<svg xmlns="http://www.w3.org/2000/svg" width="300" height="300" viewBox="0 0 300 300">
<path d="M 146.12 124.49 L 147.18 124.24 C 148.12 124.02 148.70 123.08 148.49 122.14 C 148.27 121.20 147.32 120.61 146.38 120.83 L 145.33 121.07 C 144.38 121.29 143.80 122.24 144.02 123.18 C 144.24 124.12 145.18 124.71 146.12 124.49 Z M 147.18 124.24 L 148.22 124.00 C 149.16 123.78 149.74 122.84 149.52 121.89 C 149.30 120.95 148.36 120.37 147.42 120.59 L 146.38 120.83 C 145.44 121.05 144.85 121.99 145.07 122.93 C 145.29 123.87 146.24 124.46 147.18 124.24 Z M 148.22 124.00 L 149.22 123.76 C 150.16 123.54 150.75 122.60 150.53 121.66 C 150.30 120.71 149.36 120.13 148.42 120.35 L 147.42 120.59 C 146.48 120.81 145.89 121.75 146.11 122.69 C 146.33 123.63 147.28 124.22 148.22 124.00 Z M 149.23 123.76 L 150.17 123.54 C 151.12 123.31 151.70 122.37 151.47 121.43 C 151.25 120.48 150.31 119.90 149.37 120.13 L 148.42 120.35 C 147.47 120.58 146.89 121.52 147.12 122.46 C 147.34 123.40 148.28 123.98 149.23 123.76 Z M 150.18 123.53 L 151.06 123.32 C 152.00 123.09 152.58 122.15 152.35 121.21 C 152.12 120.27 151.18 119.69 150.24 119.92 L 149.36 120.13 C 148.42 120.35 147.84 121.30 148.07 122.24 C 148.29 123.18 149.24 123.76 150.18 123.53 Z M 151.07 123.32 L 152.09 123.07 C 153.03 122.83 153.61 121.88 153.37 120.94 C 153.14 120.00 152.19 119.43 151.25 119.66 L 150.23 119.92 C 149.29 120.15 148.71 121.10 148.95 122.04 C 149.18 122.98 150.13 123.55 151.07 123.32 Z M 152.11 123.06 L 153.12 122.80 C 154.06 122.56 154.63 121.61 154.39 120.67 C 154.15 119.73 153.19 119.17 152.25 119.41 L 151.24 119.67 C 150.30 119.91 149.74 120.86 149.98 121.80 C 150.22 122.74 151.17 123.30 152.11 123.06 Z M 153.13 122.80 L 154.04 122.56 C 154.97 122.32 155.53 121.36 155.29 120.42 C 155.04 119.49 154.08 118.93 153.15 119.17 L 152.24 119.41 C 151.31 119.66 150.75 120.61 150.99 121.55 C 151.24 122.49 152.20 123.04 153.13 122.80 Z M 154.04 122.56 L 154.91 122.33 C 155.84 122.09 156.40 121.13 156.16 120.19 C 155.91 119.26 154.95 118.70 154.02 118.94 L 153.15 119.17 C 152.21 119.42 151.65 120.38 151.90 121.31 C 152.14 122.25 153.10 122.81 154.04 122.56 Z M 154.90 122.33 L 155.85 122.09 C 156.79 121.85 157.35 120.89 157.11 119.95 C 156.87 119.02 155.91 118.45 154.98 118.70 L 154.02 118.94 C 153.09 119.18 152.52 120.14 152.76 121.08 C 153.01 122.01 153.96 122.58 154.90 122.33 Z M 155.85 122.09 L 156.82 121.84 C 157.76 121.60 158.32 120.64 158.08 119.70 C 157.84 118.77 156.88 118.20 155.95 118.45 L 154.98 118.70 C 154.04 118.94 153.48 119.89 153.72 120.83 C 153.96 121.77 154.92 122.33 155.85 122.09 Z M 156.83 121.83 L 157.81 121.58 C 158.75 121.33 159.30 120.37 159.06 119.44 C 158.81 118.50 157.85 117.94 156.92 118.19 L 155.94 118.45 C 155.00 118.70 154.45 119.65 154.69 120.59 C 154.94 121.52 155.90 122.08 156.83 121.83 Z M 157.83 121.57 L 158.78 121.31 C 159.71 121.05 160.26 120.09 160.00 119.16 C 159.74 118.23 158.78 117.68 157.85 117.94 L 156.90 118.20 C 155.97 118.45 155.42 119.42 155.68 120.35 C 155.93 121.28 156.90 121.83 157.83 121.57 Z M 158.79 121.30 L 159.74 121.03 C 160.67 120.77 161.21 119.80 160.95 118.87 C 160.68 117.95 159.71 117.41 158.79 117.67 L 157.84 117.94 C 156.91 118.21 156.37 119.17 156.63 120.10 C 156.90 121.03 157.86 121.57 158.79 121.30 Z M 159.75 121.03 L 160.72 120.75 C 161.65 120.48 162.18 119.51 161.91 118.58 C 161.64 117.66 160.67 117.12 159.75 117.39 L 158.78 117.68 C 157.85 117.95 157.32 118.91 157.59 119.84 C 157.86 120.76 158.83 121.30 159.75 121.03 Z M 160.73 120.74 L 161.66 120.47 C 162.58 120.20 163.11 119.23 162.84 118.30 C 162.57 117.38 161.60 116.85 160.67 117.12 L 159.74 117.40 C 158.82 117.67 158.29 118.64 158.56 119.56 C 158.83 120.48 159.80 121.01 160.73 120.74 Z M 161.66 120.46 L 162.55 120.20 C 163.47 119.93 163.99 118.96 163.72 118.04 C 163.44 117.12 162.47 116.59 161.55 116.87 L 160.67 117.13 C 159.75 117.40 159.22 118.37 159.50 119.29 C 159.77 120.21 160.74 120.74 161.66 120.46 Z M 162.56 120.19 L 163.50 119.90 C 164.41 119.62 164.93 118.66 164.65 117.74 C 164.37 116.82 163.40 116.31 162.48 116.59 L 161.54 116.87 C 160.63 117.15 160.11 118.12 160.39 119.04 C 160.67 119.96 161.64 120.47 162.56 120.19 Z M 163.51 119.90 L 164.53 119.57 C 165.44 119.29 165.95 118.31 165.66 117.40 C 165.37 116.49 164.40 115.99 163.49 116.27 L 162.47 116.60 C 161.56 116.88 161.05 117.86 161.34 118.77 C 161.63 119.68 162.60 120.18 163.51 119.90 Z M 164.54 119.56 L 165.53 119.24 C 166.43 118.95 166.93 117.97 166.63 117.07 C 166.33 116.16 165.36 115.67 164.45 115.96 L 163.47 116.28 C 162.56 116.58 162.07 117.56 162.37 118.46 C 162.66 119.37 163.64 119.86 164.54 119.56 Z M 165.54 119.23 L 166.45 118.93 C 167.35 118.62 167.83 117.65 167.53 116.74 C 167.22 115.84 166.25 115.36 165.35 115.67 L 164.44 115.97 C 163.54 116.28 163.06 117.25 163.36 118.15 C 163.66 119.05 164.64 119.54 165.54 119.23 Z M 166.46 118.92 L 167.41 118.59 C 168.30 118.28 168.77 117.30 168.46 116.40 C 168.15 115.51 167.17 115.03 166.28 115.35 L 165.33 115.67 C 164.44 115.99 163.96 116.96 164.28 117.86 C 164.59 118.76 165.57 119.23 166.46 118.92 Z M 167.42 118.58 L 168.39 118.23 C 169.28 117.91 169.74 116.93 169.42 116.04 C 169.10 115.15 168.12 114.69 167.23 115.01 L 166.26 115.36 C 165.37 115.67 164.91 116.65 165.23 117.54 C 165.55 118.44 166.53 118.90 167.42 118.58 Z M 168.40 118.22 L 169.37 117.86 C 170.26 117.54 170.71 116.55 170.38 115.67 C 170.05 114.78 169.07 114.33 168.19 114.66 L 167.22 115.02 C 166.33 115.35 165.88 116.33 166.21 117.21 C 166.53 118.10 167.52 118.55 168.40 118.22 Z M 169.39 117.85 L 170.33 117.49 C 171.21 117.15 171.65 116.17 171.31 115.29 C 170.98 114.41 169.99 113.97 169.11 114.31 L 168.17 114.67 C 167.29 115.01 166.85 115.99 167.19 116.87 C 167.53 117.75 168.51 118.19 169.39 117.85 Z M 170.35 117.47 L 171.24 117.12 C 172.11 116.77 172.53 115.79 172.18 114.92 C 171.84 114.05 170.85 113.63 169.98 113.97 L 169.10 114.32 C 168.23 114.67 167.80 115.66 168.15 116.53 C 168.50 117.40 169.48 117.82 170.35 117.47 Z M 171.26 117.10 L 172.14 116.74 C 173.00 116.38 173.41 115.39 173.05 114.53 C 172.69 113.67 171.71 113.27 170.85 113.62 L 169.96 113.99 C 169.10 114.35 168.70 115.33 169.05 116.19 C 169.41 117.05 170.40 117.46 171.26 117.10 Z M 172.16 116.72 L 173.06 116.33 C 173.90 115.96 174.29 114.97 173.93 114.12 C 173.56 113.28 172.57 112.89 171.72 113.25 L 170.83 113.64 C 169.98 114.01 169.59 115.00 169.96 115.85 C 170.32 116.69 171.31 117.08 172.16 116.72 Z M 173.08 116.31 L 174.00 115.89 C 174.84 115.51 175.21 114.52 174.83 113.69 C 174.46 112.85 173.47 112.48 172.63 112.85 L 171.70 113.27 C 170.87 113.65 170.49 114.64 170.87 115.48 C 171.25 116.31 172.24 116.69 173.08 116.31 Z M 174.02 115.87 L 174.99 115.41 C 175.82 115.02 176.17 114.04 175.79 113.21 C 175.40 112.38 174.41 112.03 173.58 112.42 L 172.61 112.87 C 171.79 113.26 171.43 114.25 171.82 115.08 C 172.21 115.90 173.19 116.26 174.02 115.87 Z M 175.01 115.40 L 175.87 114.98 C 176.69 114.58 177.03 113.60 176.63 112.78 C 176.24 111.96 175.25 111.62 174.44 112.02 L 173.57 112.44 C 172.75 112.83 172.41 113.82 172.81 114.63 C 173.20 115.45 174.19 115.79 175.01 115.40 Z M 175.88 114.96 L 176.72 114.54 C 177.53 114.14 177.86 113.16 177.46 112.35 C 177.06 111.54 176.08 111.21 175.27 111.61 L 174.43 112.03 C 173.62 112.43 173.29 113.41 173.69 114.22 C 174.09 115.03 175.07 115.36 175.88 114.96 Z M 176.73 114.53 L 177.60 114.09 C 178.40 113.69 178.72 112.71 178.32 111.91 C 177.92 111.10 176.94 110.78 176.13 111.19 L 175.26 111.63 C 174.46 112.03 174.14 113.01 174.54 113.81 C 174.95 114.61 175.93 114.94 176.73 114.53 Z M 177.60 114.08 L 178.50 113.62 C 179.30 113.22 179.61 112.24 179.21 111.45 C 178.80 110.65 177.82 110.33 177.03 110.74 L 176.13 111.20 C 175.34 111.60 175.02 112.58 175.43 113.37 C 175.83 114.17 176.81 114.49 177.60 114.08 Z M 178.50 113.61 L 179.42 113.14 C 180.21 112.74 180.52 111.76 180.11 110.97 C 179.70 110.18 178.73 109.87 177.94 110.28 L 177.03 110.75 C 176.24 111.16 175.93 112.13 176.33 112.92 C 176.74 113.71 177.71 114.02 178.50 113.61 Z M 179.41 113.13 L 180.34 112.65 C 181.13 112.25 181.44 111.28 181.03 110.49 C 180.62 109.71 179.66 109.40 178.87 109.81 L 177.94 110.29 C 177.16 110.70 176.85 111.66 177.26 112.45 C 177.66 113.23 178.63 113.54 179.41 113.13 Z M 180.34 112.64 L 181.28 112.16 C 182.06 111.75 182.36 110.79 181.96 110.01 C 181.55 109.23 180.59 108.93 179.81 109.33 L 178.87 109.82 C 178.09 110.22 177.79 111.18 178.19 111.96 C 178.60 112.74 179.56 113.05 180.34 112.64 Z M 181.27 112.15 L 181.60 111.98 C 182.38 111.58 182.68 110.62 182.27 109.84 C 181.87 109.07 180.91 108.76 180.13 109.17 L 179.81 109.34 C 179.03 109.74 178.73 110.70 179.14 111.48 C 179.54 112.25 180.50 112.56 181.27 112.15 Z"
      fill="black"
      fill-rule="nonzero" /><path d="M 167.96 121.39 L 167.51 122.34 C 167.11 123.16 167.46 124.16 168.28 124.55 C 169.11 124.95 170.11 124.61 170.50 123.78 L 170.96 122.84 C 171.36 122.01 171.01 121.02 170.18 120.62 C 169.36 120.22 168.36 120.57 167.96 121.39 Z M 167.50 122.34 L 167.06 123.27 C 166.66 124.10 167.01 125.10 167.85 125.50 C 168.68 125.89 169.68 125.54 170.07 124.71 L 170.52 123.78 C 170.91 122.94 170.56 121.95 169.73 121.55 C 168.89 121.15 167.90 121.51 167.50 122.34 Z M 167.04 123.28 L 166.62 124.19 C 166.23 125.03 166.60 126.03 167.44 126.42 C 168.28 126.81 169.28 126.44 169.67 125.60 L 170.09 124.69 C 170.48 123.85 170.11 122.85 169.27 122.46 C 168.43 122.07 167.43 122.44 167.04 123.28 Z M 166.60 124.21 L 166.21 125.08 C 165.83 125.94 166.22 126.93 167.07 127.31 C 167.93 127.69 168.92 127.31 169.30 126.45 L 169.69 125.58 C 170.07 124.73 169.68 123.73 168.83 123.35 C 167.98 122.97 166.98 123.36 166.60 124.21 Z M 166.19 125.12 L 165.80 126.06 C 165.45 126.92 165.86 127.92 166.73 128.27 C 167.59 128.63 168.59 128.21 168.94 127.35 L 169.33 126.41 C 169.68 125.55 169.27 124.55 168.40 124.20 C 167.54 123.84 166.54 124.26 166.19 125.12 Z M 165.77 126.11 L 165.42 127.05 C 165.10 127.94 165.55 128.92 166.43 129.25 C 167.31 129.57 168.29 129.12 168.62 128.24 L 168.97 127.30 C 169.30 126.41 168.85 125.43 167.97 125.10 C 167.08 124.78 166.10 125.23 165.77 126.11 Z M 165.40 127.11 L 165.09 128.03 C 164.79 128.93 165.28 129.90 166.17 130.20 C 167.07 130.50 168.04 130.01 168.34 129.11 L 168.65 128.19 C 168.95 127.29 168.46 126.32 167.56 126.02 C 166.67 125.72 165.70 126.21 165.40 127.11 Z M 165.07 128.08 L 164.79 129.01 C 164.51 129.92 165.03 130.88 165.94 131.15 C 166.85 131.43 167.80 130.91 168.08 130.00 L 168.36 129.07 C 168.63 128.16 168.12 127.20 167.21 126.93 C 166.30 126.65 165.34 127.17 165.07 128.08 Z M 164.77 129.05 L 164.51 129.99 C 164.26 130.91 164.80 131.85 165.71 132.11 C 166.63 132.36 167.58 131.82 167.84 130.90 L 168.09 129.97 C 168.35 129.05 167.81 128.10 166.89 127.85 C 165.97 127.59 165.02 128.13 164.77 129.05 Z M 164.50 130.03 L 164.26 131.00 C 164.03 131.93 164.59 132.86 165.52 133.09 C 166.44 133.32 167.38 132.75 167.61 131.83 L 167.85 130.86 C 168.08 129.93 167.51 129.00 166.59 128.77 C 165.66 128.54 164.73 129.11 164.50 130.03 Z M 164.24 131.06 L 164.03 132.05 C 163.83 132.98 164.43 133.90 165.37 134.10 C 166.30 134.29 167.22 133.70 167.42 132.76 L 167.62 131.77 C 167.82 130.84 167.23 129.92 166.29 129.72 C 165.36 129.53 164.44 130.12 164.24 131.06 Z M 164.02 132.12 L 163.85 133.09 C 163.69 134.03 164.33 134.92 165.27 135.08 C 166.21 135.24 167.11 134.61 167.27 133.66 L 167.43 132.70 C 167.59 131.75 166.96 130.86 166.01 130.70 C 165.07 130.54 164.18 131.17 164.02 132.12 Z M 163.84 133.16 L 163.73 134.04 C 163.61 134.99 164.28 135.85 165.23 135.98 C 166.18 136.10 167.05 135.42 167.17 134.47 L 167.28 133.59 C 167.40 132.64 166.73 131.78 165.78 131.66 C 164.83 131.54 163.96 132.21 163.84 133.16 Z M 163.72 134.10 L 163.64 135.04 C 163.56 135.99 164.26 136.83 165.21 136.92 C 166.16 137.00 167.00 136.30 167.09 135.35 L 167.17 134.41 C 167.26 133.46 166.55 132.62 165.60 132.53 C 164.65 132.45 163.81 133.15 163.72 134.10 Z M 163.64 135.09 L 163.58 136.12 C 163.52 137.07 164.25 137.89 165.21 137.95 C 166.16 138.00 166.98 137.27 167.03 136.32 L 167.09 135.29 C 167.15 134.34 166.42 133.52 165.46 133.46 C 164.51 133.41 163.69 134.14 163.64 135.09 Z M 163.58 136.16 L 163.54 137.31 C 163.50 138.26 164.25 139.06 165.21 139.10 C 166.16 139.13 166.96 138.38 167.00 137.43 L 167.04 136.28 C 167.07 135.32 166.32 134.52 165.37 134.49 C 164.41 134.45 163.61 135.20 163.58 136.16 Z M 163.54 137.33 L 163.51 138.33 C 163.49 139.29 164.25 140.08 165.21 140.10 C 166.16 140.12 166.96 139.36 166.98 138.40 L 167.00 137.40 C 167.02 136.45 166.26 135.66 165.30 135.64 C 164.35 135.62 163.56 136.38 163.54 137.33 Z M 163.52 138.34 L 163.50 139.37 C 163.49 140.32 164.25 141.11 165.21 141.12 C 166.16 141.13 166.95 140.37 166.96 139.41 L 166.97 138.39 C 166.99 137.43 166.22 136.65 165.27 136.64 C 164.31 136.62 163.53 137.39 163.52 138.34 Z M 163.50 139.38 L 163.50 140.43 C 163.49 141.38 164.26 142.16 165.21 142.17 C 166.16 142.18 166.94 141.41 166.95 140.45 L 166.96 139.40 C 166.97 138.45 166.20 137.67 165.24 137.66 C 164.29 137.66 163.51 138.42 163.50 139.38 Z M 163.50 140.44 L 163.49 141.48 C 163.49 142.43 164.26 143.20 165.21 143.21 C 166.17 143.21 166.94 142.44 166.95 141.49 L 166.95 140.45 C 166.95 139.50 166.18 138.72 165.23 138.72 C 164.28 138.71 163.50 139.48 163.50 140.44 Z M 163.49 141.48 L 163.49 142.47 C 163.49 143.43 164.26 144.20 165.22 144.20 C 166.17 144.20 166.94 143.43 166.94 142.48 L 166.94 141.48 C 166.95 140.53 166.17 139.76 165.22 139.76 C 164.27 139.76 163.50 140.53 163.49 141.48 Z M 163.49 142.48 L 163.49 143.40 C 163.49 144.36 164.27 145.13 165.22 145.13 C 166.17 145.13 166.94 144.36 166.94 143.40 L 166.94 142.48 C 166.94 141.52 166.17 140.75 165.22 140.75 C 164.27 140.75 163.49 141.52 163.49 142.48 Z M 163.50 143.40 L 163.50 144.51 C 163.50 145.46 164.27 146.23 165.22 146.23 C 166.17 146.23 166.93 145.46 166.93 144.51 L 166.93 143.40 C 166.93 142.46 166.16 141.69 165.22 141.69 C 164.27 141.69 163.50 142.46 163.50 143.40 Z M 163.52 144.52 L 163.52 145.49 C 163.52 146.43 164.29 147.19 165.22 147.19 C 166.16 147.18 166.92 146.42 166.92 145.48 L 166.92 144.51 C 166.92 143.57 166.15 142.81 165.21 142.81 C 164.27 142.81 163.51 143.58 163.52 144.52 Z M 163.53 145.50 L 163.54 146.43 C 163.55 147.36 164.31 148.11 165.24 148.10 C 166.17 148.09 166.92 147.33 166.91 146.40 L 166.91 145.47 C 166.90 144.54 166.14 143.79 165.21 143.80 C 164.28 143.81 163.53 144.57 163.53 145.50 Z M 163.55 146.43 L 163.57 147.41 C 163.58 148.33 164.34 149.07 165.26 149.06 C 166.18 149.05 166.92 148.29 166.91 147.37 L 166.90 146.39 C 166.89 145.47 166.13 144.73 165.21 144.74 C 164.28 144.75 163.54 145.51 163.55 146.43 Z M 163.58 147.42 L 163.59 148.38 C 163.61 149.30 164.37 150.03 165.28 150.02 C 166.20 150.00 166.93 149.24 166.92 148.32 L 166.90 147.36 C 166.89 146.44 166.13 145.71 165.21 145.73 C 164.29 145.74 163.56 146.50 163.58 147.42 Z M 163.60 148.39 L 163.62 149.41 C 163.64 150.33 164.40 151.05 165.32 151.03 C 166.23 151.01 166.96 150.25 166.94 149.33 L 166.91 148.31 C 166.89 147.40 166.13 146.67 165.22 146.70 C 164.30 146.72 163.58 147.48 163.60 148.39 Z M 163.63 149.42 L 163.66 150.47 C 163.69 151.38 164.45 152.09 165.36 152.07 C 166.27 152.04 166.99 151.28 166.96 150.36 L 166.93 149.32 C 166.90 148.41 166.14 147.69 165.23 147.72 C 164.32 147.75 163.60 148.51 163.63 149.42 Z M 163.66 150.48 L 163.71 151.50 C 163.74 152.41 164.51 153.11 165.42 153.08 C 166.33 153.04 167.04 152.27 167.00 151.36 L 166.96 150.35 C 166.92 149.44 166.15 148.73 165.24 148.77 C 164.33 148.81 163.63 149.57 163.66 150.48 Z M 163.71 151.52 L 163.77 152.52 C 163.82 153.43 164.59 154.12 165.50 154.07 C 166.41 154.02 167.10 153.24 167.05 152.34 L 166.99 151.34 C 166.94 150.43 166.17 149.74 165.26 149.79 C 164.35 149.84 163.66 150.62 163.71 151.52 Z M 163.78 152.56 L 163.87 153.66 C 163.94 154.56 164.73 155.23 165.63 155.16 C 166.53 155.09 167.20 154.30 167.13 153.40 L 167.04 152.30 C 166.96 151.40 166.18 150.73 165.28 150.80 C 164.38 150.87 163.71 151.66 163.78 152.56 Z M 163.89 153.70 L 163.99 154.68 C 164.08 155.57 164.88 156.21 165.77 156.12 C 166.66 156.02 167.31 155.23 167.21 154.34 L 167.11 153.36 C 167.01 152.47 166.22 151.83 165.33 151.92 C 164.44 152.02 163.79 152.81 163.89 153.70 Z M 164.00 154.70 L 164.11 155.61 C 164.22 156.49 165.03 157.11 165.91 157.01 C 166.79 156.90 167.42 156.09 167.31 155.21 L 167.20 154.31 C 167.09 153.43 166.29 152.80 165.40 152.91 C 164.52 153.02 163.90 153.82 164.00 154.70 Z M 164.13 155.61 L 164.25 156.56 C 164.36 157.43 165.16 158.05 166.03 157.94 C 166.91 157.83 167.53 157.03 167.42 156.15 L 167.30 155.21 C 167.19 154.33 166.39 153.71 165.51 153.82 C 164.63 153.93 164.01 154.73 164.13 155.61 Z M 164.25 156.55 L 164.37 157.54 C 164.48 158.41 165.27 159.03 166.15 158.92 C 167.02 158.82 167.64 158.02 167.53 157.15 L 167.41 156.16 C 167.30 155.29 166.51 154.67 165.64 154.78 C 164.76 154.88 164.14 155.68 164.25 156.55 Z M 164.38 157.52 L 164.49 158.52 C 164.59 159.40 165.38 160.02 166.25 159.92 C 167.12 159.82 167.74 159.03 167.64 158.16 L 167.53 157.16 C 167.43 156.29 166.64 155.67 165.77 155.77 C 164.90 155.87 164.28 156.65 164.38 157.52 Z M 164.49 158.51 L 164.59 159.49 C 164.68 160.36 165.46 160.99 166.33 160.90 C 167.20 160.81 167.83 160.04 167.74 159.17 L 167.64 158.18 C 167.55 157.31 166.77 156.68 165.90 156.77 C 165.04 156.86 164.40 157.64 164.49 158.51 Z M 164.60 159.47 L 164.68 160.44 C 164.76 161.31 165.53 161.95 166.40 161.87 C 167.27 161.79 167.91 161.02 167.83 160.15 L 167.74 159.18 C 167.66 158.31 166.89 157.68 166.02 157.76 C 165.15 157.84 164.52 158.60 164.60 159.47 Z M 164.69 160.43 L 164.78 161.43 C 164.85 162.30 165.62 162.94 166.48 162.86 C 167.35 162.79 167.99 162.02 167.91 161.16 L 167.83 160.16 C 167.75 159.29 166.99 158.65 166.12 158.73 C 165.25 158.80 164.61 159.57 164.69 160.43 Z M 164.78 161.43 L 164.87 162.47 C 164.95 163.34 165.71 163.98 166.58 163.90 C 167.44 163.82 168.08 163.06 168.00 162.19 L 167.91 161.16 C 167.83 160.29 167.07 159.65 166.21 159.73 C 165.34 159.81 164.70 160.57 164.78 161.43 Z M 164.87 162.48 L 164.97 163.47 C 165.05 164.33 165.81 164.96 166.67 164.88 C 167.54 164.80 168.17 164.04 168.09 163.18 L 168.00 162.19 C 167.92 161.33 167.16 160.69 166.29 160.77 C 165.43 160.85 164.79 161.62 164.87 162.48 Z M 164.97 163.47 L 165.06 164.47 C 165.14 165.34 165.90 165.97 166.77 165.89 C 167.63 165.81 168.26 165.05 168.18 164.19 L 168.09 163.18 C 168.01 162.32 167.25 161.68 166.38 161.76 C 165.52 161.84 164.89 162.60 164.97 163.47 Z M 165.06 164.47 L 165.15 165.47 C 165.22 166.33 165.98 166.97 166.84 166.89 C 167.71 166.82 168.34 166.06 168.27 165.20 L 168.18 164.19 C 168.11 163.33 167.35 162.70 166.49 162.77 C 165.63 162.85 164.99 163.60 165.06 164.47 Z M 165.15 165.45 L 165.23 166.45 C 165.29 167.31 166.04 167.96 166.90 167.89 C 167.76 167.83 168.41 167.08 168.34 166.22 L 168.27 165.22 C 168.20 164.36 167.45 163.71 166.59 163.78 C 165.73 163.84 165.09 164.59 165.15 165.45 Z M 165.23 166.43 L 165.29 167.46 C 165.34 168.32 166.08 168.97 166.94 168.92 C 167.81 168.87 168.46 168.13 168.41 167.26 L 168.34 166.24 C 168.29 165.38 167.55 164.72 166.69 164.78 C 165.83 164.83 165.17 165.57 165.23 166.43 Z M 165.29 167.44 L 165.34 168.43 C 165.39 169.29 166.12 169.96 166.99 169.91 C 167.85 169.86 168.51 169.13 168.46 168.27 L 168.41 167.28 C 168.36 166.42 167.63 165.75 166.76 165.80 C 165.90 165.85 165.24 166.58 165.29 167.44 Z M 165.34 168.44 L 165.40 169.41 C 165.44 170.27 166.18 170.93 167.04 170.88 C 167.90 170.83 168.56 170.10 168.51 169.23 L 168.46 168.26 C 168.41 167.40 167.68 166.74 166.82 166.79 C 165.96 166.84 165.30 167.57 165.34 168.44 Z M 165.40 169.42 L 165.46 170.42 C 165.51 171.28 166.26 171.93 167.12 171.88 C 167.98 171.82 168.63 171.08 168.58 170.22 L 168.51 169.22 C 168.46 168.36 167.72 167.71 166.86 167.76 C 166.00 167.82 165.34 168.56 165.40 169.42 Z M 165.46 170.43 L 165.53 171.43 C 165.59 172.29 166.34 172.94 167.20 172.88 C 168.06 172.82 168.70 172.07 168.64 171.21 L 168.57 170.21 C 168.52 169.35 167.77 168.70 166.91 168.76 C 166.05 168.82 165.40 169.57 165.46 170.43 Z M 165.53 171.43 L 165.60 172.42 C 165.66 173.28 166.40 173.93 167.26 173.87 C 168.12 173.81 168.77 173.07 168.71 172.21 L 168.64 171.21 C 168.59 170.35 167.84 169.70 166.98 169.76 C 166.12 169.82 165.47 170.57 165.53 171.43 Z M 165.60 172.41 L 165.66 173.41 C 165.71 174.27 166.45 174.92 167.31 174.87 C 168.17 174.82 168.83 174.08 168.77 173.22 L 168.71 172.22 C 168.66 171.36 167.92 170.70 167.06 170.76 C 166.20 170.81 165.55 171.55 165.60 172.41 Z M 165.66 173.39 L 165.71 174.39 C 165.75 175.25 166.49 175.92 167.35 175.87 C 168.21 175.83 168.87 175.10 168.83 174.23 L 168.78 173.23 C 168.73 172.37 168.00 171.71 167.14 171.75 C 166.28 171.80 165.61 172.53 165.66 173.39 Z M 165.71 174.38 L 165.75 175.38 C 165.79 176.24 166.52 176.91 167.38 176.87 C 168.24 176.83 168.91 176.10 168.87 175.24 L 168.83 174.24 C 168.79 173.38 168.06 172.72 167.20 172.75 C 166.34 172.79 165.67 173.52 165.71 174.38 Z M 165.75 175.37 L 165.78 176.04 C 165.82 176.90 166.54 177.57 167.41 177.54 C 168.27 177.50 168.94 176.77 168.90 175.91 L 168.87 175.24 C 168.83 174.38 168.11 173.71 167.25 173.75 C 166.38 173.79 165.72 174.51 165.75 175.37 Z"
      fill="black"
      fill-rule="nonzero" /><path d="M 165.94 151.73 L 166.81 152.06 C 167.70 152.39 168.70 151.93 169.03 151.03 C 169.37 150.14 168.91 149.14 168.01 148.80 L 167.15 148.48 C 166.25 148.15 165.25 148.61 164.92 149.51 C 164.59 150.40 165.04 151.40 165.94 151.73 Z M 166.74 152.04 L 167.64 152.41 C 168.53 152.78 169.54 152.35 169.91 151.46 C 170.28 150.57 169.86 149.56 168.97 149.19 L 168.07 148.82 C 167.18 148.45 166.17 148.88 165.80 149.76 C 165.43 150.65 165.85 151.67 166.74 152.04 Z M 167.53 152.37 L 168.48 152.83 C 169.35 153.26 170.39 152.90 170.82 152.03 C 171.24 151.16 170.89 150.12 170.02 149.69 L 169.07 149.23 C 168.20 148.80 167.16 149.16 166.73 150.03 C 166.30 150.90 166.66 151.94 167.53 152.37 Z M 168.37 152.78 L 169.22 153.27 C 170.06 153.76 171.13 153.47 171.62 152.64 C 172.10 151.80 171.82 150.72 170.98 150.23 L 170.13 149.74 C 169.29 149.26 168.21 149.54 167.73 150.38 C 167.24 151.22 167.53 152.30 168.37 152.78 Z M 169.15 153.24 L 169.94 153.75 C 170.76 154.27 171.85 154.03 172.38 153.21 C 172.90 152.39 172.66 151.30 171.84 150.77 L 171.05 150.27 C 170.23 149.74 169.13 149.98 168.61 150.81 C 168.09 151.63 168.33 152.72 169.15 153.24 Z M 169.92 153.74 L 170.75 154.29 C 171.57 154.83 172.67 154.60 173.20 153.78 C 173.74 152.97 173.52 151.87 172.70 151.33 L 171.86 150.78 C 171.05 150.24 169.95 150.47 169.41 151.29 C 168.87 152.10 169.10 153.20 169.92 153.74 Z M 170.76 154.30 L 171.64 154.87 C 172.46 155.41 173.56 155.17 174.09 154.35 C 174.63 153.53 174.40 152.43 173.57 151.89 L 172.69 151.32 C 171.87 150.79 170.77 151.02 170.24 151.84 C 169.70 152.66 169.94 153.76 170.76 154.30 Z M 171.67 154.90 L 172.59 155.46 C 173.42 155.98 174.52 155.72 175.04 154.88 C 175.56 154.05 175.30 152.95 174.46 152.43 L 173.54 151.86 C 172.70 151.35 171.61 151.61 171.09 152.44 C 170.57 153.28 170.83 154.38 171.67 154.90 Z M 172.64 155.50 L 173.55 156.02 C 174.41 156.51 175.50 156.21 175.99 155.35 C 176.47 154.49 176.17 153.40 175.32 152.91 L 174.41 152.40 C 173.55 151.91 172.46 152.21 171.97 153.06 C 171.48 153.92 171.78 155.01 172.64 155.50 Z M 173.60 156.05 L 174.52 156.53 C 175.39 156.99 176.48 156.66 176.94 155.79 C 177.40 154.91 177.06 153.83 176.19 153.37 L 175.27 152.89 C 174.39 152.43 173.31 152.76 172.85 153.63 C 172.39 154.51 172.73 155.59 173.60 156.05 Z M 174.56 156.55 L 175.48 157.01 C 176.36 157.44 177.43 157.08 177.87 156.20 C 178.31 155.31 177.95 154.24 177.06 153.80 L 176.15 153.35 C 175.26 152.91 174.19 153.28 173.75 154.16 C 173.32 155.05 173.68 156.12 174.56 156.55 Z M 175.51 157.02 L 176.39 157.44 C 177.29 157.85 178.35 157.47 178.77 156.58 C 179.19 155.68 178.80 154.62 177.91 154.20 L 177.03 153.79 C 176.13 153.37 175.07 153.75 174.65 154.65 C 174.23 155.54 174.62 156.60 175.51 157.02 Z M 176.42 157.45 L 177.27 157.83 C 178.17 158.23 179.23 157.83 179.63 156.93 C 180.03 156.03 179.63 154.97 178.73 154.57 L 177.88 154.19 C 176.98 153.79 175.93 154.19 175.52 155.09 C 175.12 155.99 175.52 157.05 176.42 157.45 Z M 177.30 157.84 L 178.30 158.27 C 179.21 158.66 180.25 158.24 180.64 157.33 C 181.03 156.43 180.61 155.38 179.71 154.99 L 178.70 154.56 C 177.80 154.17 176.75 154.59 176.36 155.50 C 175.97 156.40 176.39 157.45 177.30 157.84 Z M 178.33 158.28 L 179.25 158.65 C 180.16 159.02 181.20 158.58 181.57 157.67 C 181.94 156.76 181.50 155.72 180.59 155.35 L 179.67 154.98 C 178.76 154.61 177.72 155.05 177.35 155.96 C 176.98 156.87 177.42 157.91 178.33 158.28 Z M 179.28 158.66 L 180.16 159.00 C 181.08 159.35 182.11 158.90 182.46 157.98 C 182.81 157.06 182.36 156.04 181.44 155.68 L 180.56 155.35 C 179.65 154.99 178.62 155.45 178.26 156.36 C 177.91 157.28 178.37 158.31 179.28 158.66 Z M 180.19 159.00 L 181.08 159.33 C 181.99 159.67 183.01 159.20 183.35 158.28 C 183.69 157.36 183.22 156.35 182.30 156.01 L 181.42 155.68 C 180.50 155.34 179.48 155.81 179.14 156.73 C 178.80 157.65 179.27 158.66 180.19 159.00 Z M 181.09 159.33 L 182.01 159.66 C 182.93 159.99 183.94 159.51 184.27 158.60 C 184.60 157.68 184.12 156.67 183.20 156.34 L 182.29 156.01 C 181.37 155.68 180.36 156.15 180.03 157.07 C 179.70 157.99 180.17 159.00 181.09 159.33 Z M 182.01 159.66 L 182.96 159.99 C 183.87 160.32 184.88 159.85 185.21 158.93 C 185.54 158.01 185.06 157.01 184.14 156.68 L 183.20 156.34 C 182.28 156.01 181.28 156.49 180.95 157.41 C 180.62 158.32 181.10 159.33 182.01 159.66 Z M 182.95 159.99 L 183.92 160.34 C 184.83 160.67 185.84 160.20 186.17 159.29 C 186.50 158.38 186.03 157.37 185.12 157.04 L 184.15 156.69 C 183.24 156.36 182.23 156.83 181.90 157.74 C 181.57 158.65 182.04 159.66 182.95 159.99 Z M 183.91 160.33 L 184.84 160.67 C 185.74 161.01 186.75 160.55 187.08 159.65 C 187.42 158.74 186.96 157.73 186.06 157.40 L 185.13 157.05 C 184.22 156.71 183.22 157.17 182.88 158.08 C 182.54 158.98 183.00 159.99 183.91 160.33 Z M 184.83 160.66 L 185.75 161.01 C 186.65 161.36 187.65 160.91 188.00 160.01 C 188.34 159.11 187.89 158.10 186.99 157.76 L 186.07 157.41 C 185.17 157.07 184.16 157.52 183.82 158.41 C 183.48 159.31 183.93 160.32 184.83 160.66 Z M 185.75 161.00 L 186.69 161.37 C 187.58 161.71 188.58 161.27 188.93 160.38 C 189.27 159.48 188.83 158.48 187.93 158.13 L 187.00 157.77 C 186.10 157.43 185.10 157.87 184.76 158.76 C 184.41 159.66 184.85 160.66 185.75 161.00 Z M 186.69 161.36 L 187.64 161.73 C 188.52 162.07 189.52 161.63 189.87 160.74 C 190.21 159.85 189.77 158.85 188.88 158.51 L 187.93 158.14 C 187.05 157.80 186.05 158.24 185.70 159.13 C 185.36 160.02 185.80 161.01 186.69 161.36 Z M 187.64 161.72 L 188.56 162.07 C 189.45 162.41 190.44 161.97 190.78 161.09 C 191.12 160.21 190.68 159.21 189.80 158.87 L 188.88 158.52 C 187.99 158.18 187.00 158.62 186.66 159.50 C 186.32 160.39 186.76 161.38 187.64 161.72 Z M 188.57 162.06 L 189.49 162.42 C 190.36 162.76 191.35 162.32 191.69 161.44 C 192.03 160.57 191.59 159.58 190.72 159.24 L 189.80 158.88 C 188.92 158.54 187.93 158.98 187.59 159.86 C 187.25 160.74 187.69 161.72 188.57 162.06 Z M 189.48 162.41 L 190.41 162.77 C 191.28 163.11 192.27 162.69 192.61 161.81 C 192.95 160.94 192.52 159.96 191.65 159.62 L 190.72 159.25 C 189.85 158.91 188.87 159.34 188.52 160.21 C 188.18 161.08 188.61 162.06 189.48 162.41 Z M 190.40 162.76 L 191.35 163.14 C 192.21 163.49 193.19 163.07 193.54 162.21 C 193.89 161.34 193.47 160.36 192.61 160.01 L 191.66 159.63 C 190.80 159.28 189.82 159.70 189.47 160.56 C 189.12 161.43 189.54 162.41 190.40 162.76 Z M 191.33 163.12 L 192.27 163.51 C 193.12 163.87 194.10 163.47 194.46 162.62 C 194.82 161.77 194.42 160.79 193.57 160.43 L 192.62 160.03 C 191.77 159.68 190.79 160.08 190.43 160.93 C 190.08 161.78 190.48 162.76 191.33 163.12 Z M 192.25 163.49 L 193.19 163.90 C 194.03 164.27 195.01 163.88 195.37 163.04 C 195.74 162.20 195.36 161.22 194.52 160.86 L 193.58 160.45 C 192.74 160.08 191.76 160.47 191.40 161.31 C 191.03 162.15 191.41 163.13 192.25 163.49 Z M 193.17 163.88 L 194.10 164.30 C 194.92 164.67 195.90 164.31 196.27 163.48 C 196.65 162.65 196.28 161.68 195.46 161.30 L 194.53 160.88 C 193.71 160.51 192.73 160.87 192.36 161.70 C 191.98 162.53 192.35 163.50 193.17 163.88 Z M 194.08 164.27 L 194.97 164.69 C 195.78 165.08 196.76 164.73 197.14 163.92 C 197.53 163.10 197.18 162.13 196.37 161.75 L 195.47 161.32 C 194.66 160.94 193.69 161.29 193.30 162.10 C 192.92 162.91 193.26 163.89 194.08 164.27 Z M 194.95 164.67 L 195.84 165.11 C 196.64 165.51 197.61 165.19 198.01 164.39 C 198.41 163.59 198.08 162.62 197.28 162.22 L 196.39 161.77 C 195.59 161.37 194.62 161.70 194.22 162.50 C 193.82 163.30 194.15 164.27 194.95 164.67 Z M 195.81 165.09 L 196.73 165.57 C 197.52 165.98 198.49 165.68 198.90 164.90 C 199.32 164.11 199.01 163.14 198.23 162.73 L 197.31 162.24 C 196.53 161.83 195.55 162.13 195.14 162.92 C 194.73 163.70 195.03 164.67 195.81 165.09 Z M 196.70 165.54 L 197.57 166.02 C 198.34 166.45 199.31 166.18 199.74 165.41 C 200.17 164.63 199.89 163.66 199.12 163.23 L 198.26 162.75 C 197.49 162.32 196.51 162.60 196.08 163.37 C 195.66 164.14 195.93 165.12 196.70 165.54 Z M 197.54 166.00 L 198.37 166.48 C 199.13 166.93 200.10 166.67 200.55 165.91 C 200.99 165.15 200.73 164.18 199.97 163.74 L 199.14 163.26 C 198.39 162.82 197.41 163.07 196.97 163.83 C 196.53 164.59 196.79 165.56 197.54 166.00 Z M 198.35 166.46 L 199.14 166.94 C 199.89 167.39 200.86 167.15 201.31 166.41 C 201.76 165.66 201.52 164.69 200.78 164.24 L 199.99 163.76 C 199.25 163.31 198.27 163.55 197.82 164.29 C 197.37 165.04 197.61 166.01 198.35 166.46 Z M 199.10 166.91 L 199.88 167.41 C 200.61 167.89 201.59 167.68 202.06 166.95 C 202.53 166.22 202.32 165.24 201.59 164.77 L 200.81 164.27 C 200.08 163.79 199.11 164.00 198.64 164.73 C 198.16 165.46 198.37 166.44 199.10 166.91 Z M 199.82 167.37 L 200.64 167.95 C 201.34 168.46 202.32 168.29 202.83 167.59 C 203.33 166.88 203.17 165.90 202.46 165.40 L 201.65 164.82 C 200.95 164.31 199.97 164.47 199.46 165.18 C 198.96 165.88 199.12 166.86 199.82 167.37 Z M 200.57 167.89 L 201.43 168.59 C 202.11 169.13 203.09 169.03 203.63 168.35 C 204.18 167.68 204.07 166.69 203.40 166.15 L 202.53 165.46 C 201.86 164.91 200.87 165.02 200.33 165.69 C 199.79 166.37 199.89 167.35 200.57 167.89 Z M 201.38 168.54 L 202.07 169.16 C 202.72 169.73 203.70 169.67 204.28 169.03 C 204.85 168.38 204.79 167.39 204.15 166.82 L 203.45 166.20 C 202.81 165.63 201.82 165.69 201.25 166.33 C 200.67 166.98 200.73 167.97 201.38 168.54 Z M 202.04 169.12 L 202.72 169.77 C 203.35 170.36 204.34 170.34 204.93 169.71 C 205.52 169.08 205.49 168.09 204.87 167.50 L 204.18 166.85 C 203.55 166.26 202.57 166.29 201.97 166.91 C 201.38 167.54 201.41 168.53 202.04 169.12 Z M 202.70 169.75 L 203.41 170.45 C 204.03 171.06 205.02 171.05 205.62 170.43 C 206.23 169.82 206.22 168.83 205.60 168.23 L 204.89 167.52 C 204.28 166.92 203.29 166.93 202.68 167.54 C 202.08 168.16 202.09 169.14 202.70 169.75 Z M 203.40 170.44 L 204.13 171.18 C 204.74 171.79 205.73 171.79 206.34 171.19 C 206.95 170.58 206.96 169.59 206.35 168.98 L 205.62 168.24 C 205.01 167.63 204.02 167.62 203.41 168.23 C 202.80 168.84 202.79 169.82 203.40 170.44 Z M 204.12 171.17 L 204.87 171.93 C 205.47 172.55 206.46 172.56 207.07 171.96 C 207.69 171.36 207.70 170.37 207.10 169.75 L 206.36 168.99 C 205.76 168.37 204.77 168.36 204.15 168.96 C 203.53 169.56 203.52 170.55 204.12 171.17 Z M 204.86 171.93 L 205.34 172.42 C 205.94 173.04 206.93 173.06 207.55 172.46 C 208.17 171.86 208.18 170.87 207.58 170.25 L 207.11 169.76 C 206.51 169.14 205.52 169.12 204.90 169.72 C 204.28 170.32 204.26 171.31 204.86 171.93 Z"
      fill="black"
      fill-rule="nonzero" /></svg>