<svg xmlns="http://www.w3.org/2000/svg" width="300" height="300" viewBox="0 0 300 300">
<path d="M 143.54 126.97 L 144.20 126.21 C 144.84 125.48 144.76 124.38 144.03 123.75 C 143.31 123.12 142.21 123.20 141.58 123.92 L 140.91 124.69 C 140.28 125.41 140.36 126.51 141.08 127.14 C 141.81 127.78 142.91 127.70 143.54 126.97 Z M 144.09 126.34 L 144.81 125.65 C 145.51 124.99 145.55 123.89 144.89 123.19 C 144.23 122.48 143.12 122.45 142.42 123.11 L 141.70 123.79 C 140.99 124.45 140.96 125.56 141.62 126.26 C 142.28 126.96 143.39 127.00 144.09 126.34 Z M 144.52 125.88 L 145.36 125.37 C 146.18 124.87 146.45 123.80 145.95 122.97 C 145.45 122.14 144.37 121.88 143.54 122.38 L 142.71 122.89 C 141.88 123.39 141.62 124.46 142.12 125.29 C 142.62 126.12 143.70 126.38 144.52 125.88 Z M 144.91 125.56 L 145.79 125.32 C 146.73 125.07 147.27 124.10 147.02 123.17 C 146.76 122.24 145.80 121.69 144.87 121.95 L 143.99 122.19 C 143.06 122.45 142.51 123.41 142.76 124.34 C 143.02 125.27 143.98 125.82 144.91 125.56 Z M 145.44 125.37 L 146.40 125.31 C 147.36 125.25 148.08 124.43 148.03 123.47 C 147.97 122.52 147.15 121.79 146.19 121.85 L 145.23 121.90 C 144.27 121.96 143.55 122.78 143.60 123.74 C 143.66 124.69 144.48 125.42 145.44 125.37 Z M 146.19 125.29 L 147.22 125.36 C 148.17 125.42 148.98 124.70 149.04 123.76 C 149.10 122.81 148.39 121.99 147.44 121.93 L 146.41 121.86 C 145.46 121.80 144.64 122.52 144.58 123.47 C 144.52 124.41 145.24 125.23 146.19 125.29 Z M 147.11 125.33 L 148.17 125.47 C 149.10 125.60 149.96 124.94 150.08 124.01 C 150.20 123.08 149.55 122.22 148.62 122.10 L 147.55 121.96 C 146.62 121.84 145.77 122.49 145.64 123.42 C 145.52 124.35 146.18 125.21 147.11 125.33 Z M 148.12 125.45 L 149.13 125.61 C 150.05 125.77 150.91 125.14 151.07 124.23 C 151.22 123.31 150.60 122.44 149.68 122.29 L 148.67 122.12 C 147.75 121.97 146.88 122.59 146.73 123.51 C 146.58 124.43 147.20 125.30 148.12 125.45 Z M 149.09 125.59 L 150.08 125.79 C 150.99 125.96 151.86 125.37 152.04 124.46 C 152.21 123.56 151.62 122.68 150.72 122.50 L 149.72 122.31 C 148.81 122.14 147.94 122.73 147.76 123.64 C 147.59 124.54 148.18 125.42 149.09 125.59 Z M 150.04 125.76 L 151.00 125.98 C 151.90 126.18 152.78 125.62 152.98 124.73 C 153.18 123.83 152.62 122.95 151.73 122.75 L 150.76 122.53 C 149.87 122.33 148.98 122.89 148.78 123.78 C 148.58 124.67 149.14 125.56 150.04 125.76 Z M 150.95 125.95 L 151.89 126.20 C 152.77 126.43 153.67 125.91 153.90 125.03 C 154.13 124.15 153.61 123.25 152.73 123.02 L 151.79 122.77 C 150.91 122.54 150.01 123.07 149.78 123.94 C 149.55 124.82 150.07 125.72 150.95 125.95 Z M 151.83 126.18 L 152.82 126.48 C 153.68 126.74 154.60 126.26 154.86 125.39 C 155.13 124.53 154.64 123.61 153.78 123.35 L 152.79 123.05 C 151.93 122.78 151.01 123.27 150.75 124.13 C 150.48 125.00 150.97 125.91 151.83 126.18 Z M 152.76 126.46 L 153.70 126.79 C 154.56 127.08 155.49 126.63 155.79 125.77 C 156.08 124.92 155.63 123.98 154.77 123.69 L 153.83 123.36 C 152.97 123.07 152.04 123.52 151.75 124.38 C 151.45 125.24 151.91 126.17 152.76 126.46 Z M 153.67 126.78 L 154.59 127.12 C 155.44 127.43 156.38 126.99 156.69 126.14 C 157.01 125.29 156.57 124.35 155.72 124.03 L 154.80 123.70 C 153.95 123.38 153.01 123.82 152.70 124.67 C 152.38 125.52 152.82 126.47 153.67 126.78 Z M 154.58 127.11 L 154.91 127.24 C 155.76 127.56 156.71 127.12 157.02 126.28 C 157.34 125.43 156.91 124.48 156.06 124.16 L 155.73 124.04 C 154.88 123.72 153.93 124.15 153.62 125.00 C 153.30 125.85 153.73 126.79 154.58 127.11 Z"
      fill="black"
      fill-rule="nonzero" /><path d="M 138.07 145.11 L 139.06 144.99 C 140.04 144.87 140.73 143.98 140.61 143.00 C 140.49 142.02 139.60 141.33 138.62 141.45 L 137.63 141.58 C 136.65 141.70 135.96 142.59 136.08 143.56 C 136.20 144.54 137.09 145.23 138.07 145.11 Z M 139.05 144.99 L 140.05 144.87 C 141.02 144.75 141.72 143.87 141.60 142.89 C 141.49 141.91 140.60 141.22 139.62 141.33 L 138.63 141.45 C 137.65 141.57 136.96 142.45 137.07 143.43 C 137.19 144.41 138.07 145.10 139.05 144.99 Z M 140.03 144.87 L 141.02 144.76 C 142.00 144.66 142.71 143.78 142.60 142.80 C 142.49 141.82 141.61 141.12 140.64 141.22 L 139.64 141.33 C 138.66 141.44 137.96 142.32 138.06 143.29 C 138.17 144.27 139.05 144.98 140.03 144.87 Z M 140.99 144.77 L 141.99 144.67 C 142.97 144.58 143.69 143.71 143.60 142.73 C 143.50 141.76 142.64 141.04 141.66 141.13 L 140.66 141.22 C 139.68 141.31 138.96 142.18 139.06 143.16 C 139.15 144.14 140.02 144.86 140.99 144.77 Z M 141.95 144.68 L 142.94 144.60 C 143.92 144.53 144.66 143.68 144.59 142.70 C 144.51 141.72 143.66 140.98 142.68 141.05 L 141.69 141.12 C 140.71 141.20 139.98 142.05 140.05 143.03 C 140.12 144.01 140.97 144.75 141.95 144.68 Z M 142.91 144.61 L 143.89 144.55 C 144.87 144.50 145.63 143.66 145.58 142.68 C 145.52 141.70 144.68 140.94 143.70 141.00 L 142.71 141.05 C 141.73 141.10 140.98 141.94 141.03 142.92 C 141.08 143.91 141.92 144.66 142.91 144.61 Z M 143.86 144.55 L 144.86 144.52 C 145.84 144.48 146.61 143.65 146.57 142.67 C 146.54 141.69 145.71 140.92 144.73 140.96 L 143.73 141.00 C 142.75 141.03 141.98 141.86 142.02 142.84 C 142.05 143.82 142.88 144.59 143.86 144.55 Z M 144.84 144.52 L 145.85 144.49 C 146.83 144.47 147.61 143.65 147.58 142.67 C 147.56 141.68 146.74 140.91 145.76 140.93 L 144.75 140.96 C 143.77 140.98 142.99 141.80 143.01 142.78 C 143.04 143.76 143.85 144.54 144.84 144.52 Z M 145.83 144.49 L 146.85 144.48 C 147.83 144.46 148.62 143.65 148.60 142.67 C 148.59 141.68 147.78 140.90 146.79 140.92 L 145.78 140.93 C 144.79 140.95 144.01 141.76 144.02 142.74 C 144.04 143.72 144.85 144.51 145.83 144.49 Z M 146.84 144.48 L 147.86 144.47 C 148.84 144.46 149.63 143.66 149.62 142.67 C 149.62 141.69 148.81 140.90 147.83 140.91 L 146.81 140.92 C 145.82 140.92 145.03 141.73 145.04 142.71 C 145.05 143.69 145.85 144.49 146.84 144.48 Z M 147.85 144.47 L 148.86 144.47 C 149.85 144.46 150.64 143.67 150.64 142.68 C 150.64 141.70 149.84 140.90 148.86 140.90 L 147.84 140.91 C 146.86 140.91 146.06 141.71 146.06 142.69 C 146.06 143.67 146.86 144.47 147.85 144.47 Z M 148.85 144.47 L 149.85 144.47 C 150.83 144.48 151.63 143.68 151.64 142.70 C 151.64 141.72 150.85 140.91 149.87 140.91 L 148.87 140.90 C 147.89 140.90 147.09 141.69 147.08 142.68 C 147.08 143.66 147.87 144.46 148.85 144.47 Z M 149.84 144.47 L 150.80 144.48 C 151.78 144.49 152.59 143.71 152.60 142.72 C 152.61 141.74 151.82 140.93 150.84 140.92 L 149.88 140.91 C 148.90 140.90 148.09 141.69 148.08 142.67 C 148.06 143.65 148.85 144.46 149.84 144.47 Z M 150.77 144.48 L 151.84 144.51 C 152.82 144.54 153.64 143.76 153.67 142.78 C 153.70 141.80 152.92 140.98 151.94 140.95 L 150.87 140.92 C 149.89 140.90 149.07 141.67 149.04 142.65 C 149.01 143.64 149.79 144.45 150.77 144.48 Z M 151.75 144.51 L 152.75 144.59 C 153.73 144.66 154.59 143.93 154.67 142.95 C 154.75 141.97 154.02 141.12 153.04 141.04 L 152.03 140.96 C 151.05 140.88 150.20 141.61 150.12 142.59 C 150.04 143.57 150.77 144.43 151.75 144.51 Z M 152.58 144.56 L 153.52 144.73 C 154.49 144.90 155.41 144.26 155.59 143.29 C 155.76 142.33 155.12 141.40 154.15 141.23 L 153.21 141.06 C 152.24 140.89 151.32 141.53 151.14 142.50 C 150.97 143.46 151.61 144.39 152.58 144.56 Z M 153.27 144.67 L 154.16 144.96 C 155.09 145.28 156.10 144.77 156.41 143.84 C 156.72 142.91 156.22 141.90 155.29 141.59 L 154.40 141.29 C 153.47 140.98 152.46 141.48 152.15 142.42 C 151.84 143.35 152.34 144.35 153.27 144.67 Z M 153.86 144.83 L 154.69 145.29 C 155.55 145.77 156.63 145.47 157.11 144.61 C 157.59 143.75 157.28 142.67 156.42 142.19 L 155.59 141.73 C 154.74 141.25 153.65 141.56 153.18 142.41 C 152.70 143.27 153.01 144.35 153.86 144.83 Z M 154.38 145.07 L 155.11 145.72 C 155.84 146.37 156.96 146.31 157.61 145.58 C 158.27 144.85 158.20 143.72 157.47 143.07 L 156.74 142.42 C 156.01 141.77 154.89 141.83 154.24 142.56 C 153.58 143.29 153.65 144.41 154.38 145.07 Z M 154.82 145.39 L 155.41 146.25 C 155.96 147.06 157.06 147.27 157.87 146.72 C 158.68 146.17 158.89 145.07 158.34 144.26 L 157.75 143.40 C 157.20 142.59 156.10 142.38 155.29 142.93 C 154.48 143.48 154.27 144.58 154.82 145.39 Z M 155.22 145.90 L 155.58 146.82 C 155.94 147.74 156.96 148.19 157.88 147.83 C 158.79 147.48 159.24 146.45 158.89 145.54 L 158.53 144.61 C 158.17 143.70 157.14 143.25 156.23 143.60 C 155.32 143.96 154.87 144.98 155.22 145.90 Z M 155.50 146.55 L 155.71 147.52 C 155.91 148.47 156.85 149.08 157.81 148.88 C 158.77 148.68 159.38 147.74 159.17 146.78 L 158.97 145.81 C 158.76 144.85 157.82 144.24 156.86 144.45 C 155.91 144.65 155.30 145.59 155.50 146.55 Z M 155.68 147.31 L 155.77 148.34 C 155.86 149.31 156.72 150.03 157.70 149.94 C 158.67 149.85 159.39 148.99 159.30 148.01 L 159.20 146.99 C 159.11 146.01 158.25 145.30 157.28 145.39 C 156.30 145.48 155.59 146.34 155.68 147.31 Z M 155.77 148.16 L 155.76 149.19 C 155.75 150.17 156.54 150.97 157.51 150.97 C 158.49 150.98 159.28 150.20 159.29 149.22 L 159.30 148.19 C 159.31 147.22 158.53 146.42 157.55 146.41 C 156.57 146.40 155.78 147.19 155.77 148.16 Z M 155.77 149.02 L 155.67 150.00 C 155.56 150.97 156.26 151.84 157.23 151.95 C 158.20 152.05 159.07 151.35 159.18 150.38 L 159.28 149.39 C 159.38 148.43 158.68 147.56 157.71 147.45 C 156.74 147.35 155.88 148.05 155.77 149.02 Z M 155.70 149.80 L 155.47 150.82 C 155.26 151.77 155.85 152.72 156.80 152.93 C 157.75 153.14 158.69 152.55 158.91 151.60 L 159.14 150.58 C 159.35 149.63 158.76 148.69 157.81 148.47 C 156.86 148.26 155.92 148.86 155.70 149.80 Z M 155.54 150.62 L 155.21 151.55 C 154.88 152.46 155.36 153.47 156.27 153.79 C 157.19 154.12 158.19 153.64 158.52 152.72 L 158.85 151.80 C 159.17 150.88 158.69 149.88 157.78 149.56 C 156.86 149.23 155.86 149.71 155.54 150.62 Z M 155.27 151.40 L 154.87 152.28 C 154.46 153.16 154.84 154.20 155.72 154.60 C 156.59 155.01 157.64 154.63 158.04 153.75 L 158.45 152.87 C 158.86 152.00 158.48 150.96 157.60 150.55 C 156.72 150.14 155.68 150.52 155.27 151.40 Z M 154.91 152.20 L 154.45 153.06 C 154.00 153.91 154.32 154.97 155.17 155.42 C 156.02 155.88 157.08 155.55 157.53 154.70 L 158.00 153.84 C 158.45 152.98 158.13 151.93 157.27 151.47 C 156.42 151.02 155.37 151.34 154.91 152.20 Z M 154.47 153.03 L 154.02 153.84 C 153.55 154.68 153.85 155.74 154.69 156.21 C 155.54 156.68 156.60 156.38 157.07 155.54 L 157.52 154.73 C 157.99 153.89 157.68 152.83 156.84 152.36 C 156.00 151.89 154.94 152.19 154.47 153.03 Z M 154.03 153.82 L 153.55 154.65 C 153.07 155.49 153.36 156.55 154.19 157.03 C 155.02 157.52 156.09 157.23 156.57 156.40 L 157.06 155.56 C 157.54 154.72 157.25 153.66 156.42 153.18 C 155.58 152.69 154.52 152.98 154.03 153.82 Z M 153.56 154.63 L 153.04 155.51 C 152.55 156.34 152.82 157.41 153.65 157.90 C 154.48 158.39 155.55 158.12 156.04 157.29 L 156.56 156.41 C 157.05 155.59 156.78 154.52 155.95 154.02 C 155.12 153.53 154.05 153.81 153.56 154.63 Z M 153.05 155.49 L 152.50 156.40 C 152.00 157.22 152.26 158.30 153.08 158.80 C 153.90 159.30 154.97 159.04 155.47 158.22 L 156.03 157.31 C 156.53 156.48 156.27 155.41 155.45 154.91 C 154.63 154.41 153.56 154.67 153.05 155.49 Z M 152.51 156.38 L 151.97 157.24 C 151.46 158.05 151.71 159.13 152.53 159.64 C 153.34 160.15 154.42 159.90 154.93 159.09 L 155.46 158.23 C 155.98 157.42 155.73 156.34 154.91 155.83 C 154.09 155.32 153.02 155.57 152.51 156.38 Z M 151.98 157.22 L 151.46 158.04 C 150.94 158.85 151.18 159.93 151.99 160.45 C 152.80 160.97 153.88 160.73 154.40 159.92 L 154.92 159.10 C 155.44 158.29 155.20 157.21 154.39 156.69 C 153.58 156.17 152.50 156.41 151.98 157.22 Z M 151.47 158.03 L 150.92 158.86 C 150.40 159.67 150.63 160.75 151.44 161.28 C 152.24 161.81 153.33 161.58 153.85 160.77 L 154.39 159.93 C 154.92 159.12 154.69 158.04 153.88 157.52 C 153.07 156.99 151.99 157.22 151.47 158.03 Z M 150.93 158.85 L 150.37 159.70 C 149.84 160.51 150.06 161.59 150.87 162.12 C 151.67 162.65 152.75 162.43 153.29 161.63 L 153.85 160.78 C 154.38 159.97 154.16 158.89 153.35 158.36 C 152.54 157.83 151.46 158.05 150.93 158.85 Z M 150.37 159.69 L 149.80 160.54 C 149.27 161.35 149.48 162.43 150.28 162.97 C 151.09 163.51 152.17 163.29 152.71 162.49 L 153.28 161.64 C 153.82 160.83 153.60 159.75 152.80 159.21 C 152.00 158.67 150.91 158.89 150.37 159.69 Z M 149.81 160.53 L 149.23 161.38 C 148.69 162.18 148.90 163.27 149.70 163.81 C 150.50 164.36 151.59 164.15 152.13 163.35 L 152.70 162.50 C 153.25 161.70 153.04 160.61 152.24 160.07 C 151.44 159.53 150.35 159.73 149.81 160.53 Z M 149.24 161.37 L 148.67 162.19 C 148.12 162.99 148.32 164.08 149.12 164.63 C 149.92 165.18 151.01 164.98 151.56 164.18 L 152.13 163.36 C 152.67 162.56 152.47 161.47 151.67 160.92 C 150.88 160.37 149.79 160.57 149.24 161.37 Z M 148.67 162.18 L 148.10 163.00 C 147.55 163.80 147.74 164.89 148.54 165.45 C 149.33 166.00 150.43 165.81 150.98 165.01 L 151.56 164.19 C 152.11 163.40 151.92 162.30 151.12 161.75 C 150.32 161.19 149.23 161.39 148.67 162.18 Z M 148.11 162.99 L 147.53 163.80 C 146.97 164.60 147.15 165.70 147.95 166.26 C 148.74 166.82 149.84 166.64 150.40 165.84 L 150.98 165.03 C 151.54 164.23 151.35 163.13 150.56 162.57 C 149.77 162.01 148.67 162.20 148.11 162.99 Z M 147.53 163.79 L 146.95 164.60 C 146.38 165.39 146.56 166.49 147.35 167.07 C 148.14 167.64 149.24 167.46 149.81 166.67 L 150.40 165.86 C 150.97 165.07 150.79 163.96 150.00 163.39 C 149.21 162.82 148.10 163.00 147.53 163.79 Z M 146.95 164.59 L 146.36 165.39 C 145.78 166.18 145.95 167.29 146.74 167.87 C 147.53 168.44 148.63 168.28 149.21 167.49 L 149.81 166.68 C 150.38 165.89 150.21 164.79 149.43 164.21 C 148.64 163.63 147.53 163.80 146.95 164.59 Z M 146.37 165.38 L 145.77 166.18 C 145.18 166.96 145.34 168.07 146.12 168.66 C 146.91 169.25 148.02 169.09 148.61 168.30 L 149.21 167.50 C 149.79 166.72 149.63 165.61 148.85 165.02 C 148.07 164.43 146.95 164.59 146.37 165.38 Z M 145.77 166.16 L 145.17 166.96 C 144.57 167.74 144.72 168.86 145.50 169.45 C 146.29 170.05 147.40 169.90 148.00 169.11 L 148.60 168.32 C 149.20 167.54 149.05 166.42 148.26 165.83 C 147.48 165.23 146.37 165.38 145.77 166.16 Z M 145.17 166.95 L 144.56 167.74 C 143.96 168.52 144.10 169.64 144.88 170.24 C 145.66 170.84 146.78 170.70 147.38 169.92 L 147.99 169.12 C 148.59 168.34 148.45 167.23 147.67 166.62 C 146.89 166.02 145.77 166.17 145.17 166.95 Z M 144.56 167.74 L 143.95 168.53 C 143.34 169.31 143.48 170.43 144.26 171.03 C 145.04 171.64 146.17 171.50 146.77 170.72 L 147.38 169.92 C 147.99 169.14 147.85 168.02 147.07 167.42 C 146.29 166.81 145.16 166.96 144.56 167.74 Z M 143.94 168.52 L 143.33 169.31 C 142.72 170.09 142.86 171.22 143.65 171.83 C 144.43 172.43 145.55 172.29 146.16 171.51 L 146.77 170.72 C 147.38 169.94 147.24 168.81 146.46 168.21 C 145.67 167.60 144.55 167.74 143.94 168.52 Z M 143.32 169.31 L 142.71 170.11 C 142.10 170.89 142.24 172.02 143.03 172.63 C 143.81 173.24 144.94 173.09 145.55 172.31 L 146.17 171.51 C 146.77 170.73 146.63 169.60 145.84 168.99 C 145.06 168.38 143.93 168.53 143.32 169.31 Z M 142.70 170.11 L 142.06 170.94 C 141.45 171.73 141.60 172.86 142.39 173.47 C 143.18 174.08 144.31 173.93 144.91 173.14 L 145.56 172.31 C 146.16 171.52 146.01 170.39 145.23 169.78 C 144.44 169.17 143.31 169.32 142.70 170.11 Z M 142.05 170.94 L 141.42 171.77 C 140.82 172.56 140.97 173.69 141.76 174.30 C 142.55 174.90 143.68 174.75 144.29 173.96 L 144.92 173.14 C 145.53 172.35 145.38 171.21 144.58 170.61 C 143.79 170.00 142.66 170.15 142.05 170.94 Z M 141.42 171.77 L 140.80 172.57 C 140.20 173.36 140.35 174.50 141.14 175.11 C 141.94 175.71 143.08 175.56 143.68 174.77 L 144.30 173.96 C 144.90 173.17 144.75 172.03 143.96 171.43 C 143.16 170.82 142.02 170.97 141.42 171.77 Z M 140.80 172.57 L 140.21 173.34 C 139.60 174.14 139.75 175.28 140.55 175.88 C 141.35 176.49 142.49 176.34 143.10 175.54 L 143.69 174.77 C 144.30 173.97 144.14 172.83 143.35 172.22 C 142.55 171.62 141.41 171.77 140.80 172.57 Z M 140.21 173.33 L 139.64 174.07 C 139.03 174.87 139.18 176.01 139.98 176.62 C 140.78 177.23 141.92 177.08 142.54 176.28 L 143.10 175.55 C 143.71 174.75 143.56 173.61 142.76 173.00 C 141.96 172.38 140.82 172.54 140.21 173.33 Z M 139.64 174.06 L 138.98 174.93 C 138.36 175.73 138.51 176.87 139.31 177.49 C 140.11 178.11 141.26 177.96 141.87 177.16 L 142.54 176.29 C 143.15 175.49 143.00 174.34 142.20 173.73 C 141.40 173.11 140.26 173.26 139.64 174.06 Z M 138.97 174.92 L 138.34 175.74 C 137.72 176.54 137.87 177.69 138.67 178.31 C 139.48 178.93 140.63 178.78 141.25 177.98 L 141.87 177.16 C 142.49 176.36 142.34 175.21 141.54 174.59 C 140.74 173.97 139.59 174.12 138.97 174.92 Z M 138.34 175.74 L 137.75 176.50 C 137.13 177.31 137.28 178.46 138.09 179.08 C 138.89 179.70 140.05 179.55 140.66 178.74 L 141.25 177.98 C 141.87 177.17 141.72 176.02 140.91 175.40 C 140.11 174.78 138.95 174.93 138.34 175.74 Z M 137.74 176.51 L 137.18 177.24 C 136.56 178.05 136.72 179.21 137.54 179.83 C 138.35 180.44 139.50 180.28 140.12 179.47 L 140.68 178.74 C 141.29 177.93 141.13 176.77 140.32 176.15 C 139.51 175.54 138.35 175.70 137.74 176.51 Z M 137.14 177.27 L 136.43 178.25 C 135.83 179.09 136.02 180.25 136.85 180.85 C 137.68 181.45 138.85 181.26 139.45 180.43 L 140.16 179.44 C 140.76 178.61 140.57 177.45 139.74 176.85 C 138.91 176.25 137.75 176.44 137.14 177.27 Z M 136.28 178.47 L 135.81 179.36 C 135.33 180.28 135.68 181.41 136.59 181.90 C 137.51 182.38 138.65 182.03 139.13 181.11 L 139.60 180.22 C 140.08 179.30 139.73 178.16 138.81 177.68 C 137.90 177.20 136.76 177.55 136.28 178.47 Z M 135.58 180.41 L 135.64 181.04 C 135.74 182.09 136.66 182.85 137.71 182.75 C 138.75 182.66 139.51 181.73 139.42 180.69 L 139.36 180.06 C 139.26 179.01 138.33 178.25 137.29 178.35 C 136.25 178.44 135.48 179.37 135.58 180.41 Z M 136.72 182.60 L 137.35 182.89 C 138.31 183.34 139.45 182.93 139.89 181.97 C 140.34 181.02 139.93 179.88 138.97 179.43 L 138.34 179.14 C 137.38 178.69 136.24 179.10 135.80 180.06 C 135.35 181.01 135.76 182.15 136.72 182.60 Z M 137.97 183.07 L 139.01 183.18 C 140.07 183.29 141.01 182.52 141.12 181.47 C 141.23 180.41 140.46 179.47 139.40 179.36 L 138.36 179.25 C 137.31 179.15 136.36 179.91 136.26 180.97 C 136.15 182.02 136.91 182.96 137.97 183.07 Z M 139.19 183.20 L 140.43 183.21 C 141.49 183.22 142.37 182.37 142.38 181.31 C 142.39 180.24 141.54 179.37 140.47 179.36 L 139.23 179.34 C 138.17 179.33 137.29 180.18 137.28 181.25 C 137.27 182.31 138.12 183.19 139.19 183.20 Z M 140.45 183.22 L 141.41 183.22 C 142.48 183.22 143.34 182.36 143.35 181.29 C 143.35 180.22 142.48 179.36 141.42 179.35 L 140.46 179.35 C 139.39 179.35 138.52 180.21 138.52 181.28 C 138.52 182.35 139.38 183.21 140.45 183.22 Z M 141.39 183.22 L 142.37 183.23 C 143.44 183.24 144.32 182.39 144.33 181.32 C 144.34 180.25 143.48 179.38 142.42 179.37 L 141.44 179.35 C 140.37 179.34 139.49 180.20 139.48 181.26 C 139.47 182.33 140.32 183.21 141.39 183.22 Z M 142.34 183.23 L 143.35 183.26 C 144.41 183.29 145.30 182.45 145.34 181.38 C 145.37 180.32 144.53 179.43 143.46 179.40 L 142.45 179.37 C 141.38 179.33 140.49 180.17 140.46 181.24 C 140.43 182.31 141.27 183.20 142.34 183.23 Z M 143.30 183.26 L 144.34 183.31 C 145.40 183.37 146.31 182.56 146.37 181.49 C 146.43 180.42 145.62 179.51 144.55 179.45 L 143.51 179.40 C 142.44 179.34 141.53 180.15 141.47 181.22 C 141.41 182.29 142.23 183.20 143.30 183.26 Z M 144.28 183.31 L 145.23 183.39 C 146.29 183.48 147.23 182.69 147.32 181.63 C 147.41 180.56 146.62 179.63 145.55 179.54 L 144.61 179.46 C 143.54 179.37 142.61 180.16 142.52 181.22 C 142.43 182.29 143.22 183.22 144.28 183.31 Z M 145.18 183.39 L 146.14 183.49 C 147.20 183.61 148.16 182.84 148.27 181.78 C 148.39 180.72 147.62 179.76 146.56 179.65 L 145.60 179.54 C 144.54 179.43 143.59 180.19 143.47 181.25 C 143.35 182.32 144.12 183.27 145.18 183.39 Z M 146.10 183.49 L 147.09 183.62 C 148.15 183.75 149.12 183.01 149.26 181.95 C 149.39 180.89 148.65 179.92 147.59 179.78 L 146.60 179.65 C 145.54 179.51 144.57 180.26 144.43 181.32 C 144.29 182.38 145.04 183.35 146.10 183.49 Z M 147.06 183.61 L 148.08 183.76 C 149.13 183.92 150.12 183.19 150.27 182.13 C 150.43 181.07 149.70 180.09 148.64 179.94 L 147.62 179.79 C 146.56 179.63 145.58 180.36 145.43 181.42 C 145.27 182.47 146.00 183.46 147.06 183.61 Z M 148.05 183.76 L 149.10 183.93 C 150.16 184.10 151.15 183.38 151.32 182.33 C 151.49 181.27 150.77 180.28 149.72 180.11 L 148.67 179.94 C 147.61 179.77 146.62 180.49 146.45 181.54 C 146.28 182.60 147.00 183.59 148.05 183.76 Z M 149.08 183.92 L 150.09 184.09 C 151.14 184.27 152.14 183.57 152.32 182.52 C 152.50 181.46 151.79 180.47 150.74 180.29 L 149.74 180.11 C 148.68 179.93 147.69 180.64 147.51 181.69 C 147.33 182.74 148.03 183.74 149.08 183.92 Z M 150.08 184.09 L 151.09 184.27 C 152.14 184.46 153.14 183.76 153.33 182.71 C 153.52 181.66 152.82 180.66 151.77 180.47 L 150.75 180.29 C 149.70 180.10 148.70 180.80 148.51 181.85 C 148.33 182.90 149.03 183.90 150.08 184.09 Z M 151.08 184.27 L 152.09 184.45 C 153.13 184.64 154.14 183.95 154.33 182.90 C 154.52 181.86 153.83 180.85 152.78 180.66 L 151.78 180.48 C 150.73 180.28 149.73 180.98 149.53 182.02 C 149.34 183.07 150.03 184.07 151.08 184.27 Z M 152.08 184.45 L 153.06 184.63 C 154.11 184.82 155.11 184.13 155.31 183.09 C 155.50 182.04 154.81 181.04 153.76 180.85 L 152.79 180.66 C 151.74 180.47 150.74 181.16 150.54 182.20 C 150.35 183.25 151.04 184.25 152.08 184.45 Z M 153.06 184.63 L 153.99 184.80 C 155.04 185.00 156.04 184.31 156.23 183.26 C 156.43 182.22 155.74 181.22 154.70 181.02 L 153.77 180.85 C 152.72 180.65 151.72 181.34 151.52 182.39 C 151.33 183.43 152.02 184.43 153.06 184.63 Z M 154.00 184.79 L 155.06 184.99 C 156.10 185.18 157.10 184.50 157.29 183.46 C 157.48 182.42 156.79 181.42 155.75 181.23 L 154.69 181.03 C 153.65 180.84 152.66 181.52 152.46 182.56 C 152.27 183.60 152.96 184.60 154.00 184.79 Z M 155.07 184.98 L 156.08 185.16 C 157.11 185.35 158.10 184.67 158.29 183.64 C 158.48 182.60 157.80 181.61 156.77 181.42 L 155.75 181.24 C 154.72 181.05 153.73 181.73 153.54 182.77 C 153.35 183.80 154.03 184.79 155.07 184.98 Z M 156.09 185.15 L 157.04 185.32 C 158.06 185.51 159.04 184.83 159.23 183.80 C 159.42 182.78 158.74 181.80 157.71 181.61 L 156.76 181.44 C 155.74 181.25 154.75 181.93 154.57 182.96 C 154.38 183.98 155.06 184.96 156.09 185.15 Z M 157.04 185.31 L 157.95 185.47 C 158.97 185.66 159.94 184.98 160.13 183.96 C 160.31 182.95 159.64 181.97 158.62 181.79 L 157.71 181.62 C 156.69 181.44 155.72 182.12 155.53 183.13 C 155.35 184.15 156.02 185.12 157.04 185.31 Z M 157.95 185.46 L 158.91 185.63 C 159.92 185.82 160.89 185.15 161.07 184.14 C 161.25 183.13 160.58 182.16 159.58 181.98 L 158.62 181.80 C 157.61 181.62 156.64 182.29 156.46 183.30 C 156.28 184.31 156.94 185.27 157.95 185.46 Z M 158.92 185.62 L 159.89 185.80 C 160.89 185.98 161.85 185.31 162.03 184.31 C 162.21 183.31 161.55 182.35 160.55 182.17 L 159.57 181.99 C 158.57 181.81 157.61 182.48 157.43 183.48 C 157.25 184.48 157.91 185.44 158.92 185.62 Z M 159.90 185.79 L 160.89 185.96 C 161.88 186.13 162.83 185.46 163.01 184.47 C 163.18 183.47 162.51 182.52 161.52 182.35 L 160.53 182.18 C 159.54 182.00 158.59 182.67 158.41 183.67 C 158.24 184.66 158.91 185.61 159.90 185.79 Z M 160.91 185.95 L 161.91 186.11 C 162.90 186.27 163.84 185.60 164.00 184.61 C 164.16 183.62 163.49 182.69 162.50 182.52 L 161.50 182.36 C 160.51 182.20 159.57 182.87 159.41 183.86 C 159.25 184.85 159.92 185.78 160.91 185.95 Z M 161.93 186.10 L 162.89 186.25 C 163.88 186.40 164.80 185.72 164.95 184.73 C 165.10 183.75 164.42 182.83 163.43 182.68 L 162.47 182.53 C 161.49 182.38 160.57 183.06 160.42 184.05 C 160.27 185.03 160.95 185.95 161.93 186.10 Z M 162.91 186.23 L 163.89 186.38 C 164.86 186.52 165.77 185.84 165.91 184.86 C 166.06 183.88 165.38 182.97 164.40 182.83 L 163.42 182.69 C 162.44 182.55 161.53 183.23 161.39 184.21 C 161.25 185.19 161.93 186.09 162.91 186.23 Z M 163.89 186.36 L 164.89 186.50 C 165.87 186.64 166.76 185.97 166.90 184.99 C 167.04 184.02 166.36 183.13 165.39 182.99 L 164.39 182.85 C 163.42 182.71 162.52 183.38 162.38 184.36 C 162.25 185.33 162.92 186.22 163.89 186.36 Z M 164.89 186.49 L 165.91 186.64 C 166.88 186.77 167.77 186.10 167.91 185.14 C 168.04 184.18 167.37 183.29 166.41 183.15 L 165.39 183.00 C 164.43 182.86 163.54 183.53 163.40 184.50 C 163.26 185.46 163.93 186.35 164.89 186.49 Z M 165.91 186.62 L 166.88 186.76 C 167.83 186.90 168.72 186.25 168.86 185.29 C 169.00 184.34 168.34 183.45 167.39 183.31 L 166.42 183.16 C 165.46 183.02 164.57 183.68 164.43 184.64 C 164.29 185.59 164.95 186.48 165.91 186.62 Z M 166.87 186.75 L 167.86 186.90 C 168.80 187.04 169.69 186.39 169.83 185.44 C 169.97 184.50 169.32 183.61 168.37 183.47 L 167.39 183.32 C 166.45 183.18 165.56 183.83 165.42 184.78 C 165.27 185.72 165.93 186.61 166.87 186.75 Z M 167.85 186.88 L 168.85 187.04 C 169.79 187.18 170.67 186.54 170.81 185.60 C 170.95 184.66 170.31 183.78 169.37 183.64 L 168.38 183.48 C 167.44 183.34 166.56 183.98 166.41 184.92 C 166.27 185.86 166.91 186.74 167.85 186.88 Z M 168.85 187.02 L 169.85 187.18 C 170.78 187.32 171.66 186.68 171.80 185.75 C 171.94 184.82 171.30 183.95 170.37 183.80 L 169.37 183.65 C 168.44 183.51 167.57 184.14 167.42 185.08 C 167.28 186.01 167.92 186.88 168.85 187.02 Z M 169.86 187.17 L 170.84 187.32 C 171.77 187.46 172.63 186.82 172.78 185.90 C 172.92 184.98 172.28 184.11 171.36 183.97 L 170.37 183.82 C 169.44 183.67 168.58 184.31 168.44 185.23 C 168.30 186.16 168.93 187.02 169.86 187.17 Z M 170.85 187.31 L 171.84 187.46 C 172.75 187.60 173.61 186.96 173.75 186.04 C 173.89 185.13 173.26 184.27 172.34 184.13 L 171.35 183.98 C 170.43 183.84 169.58 184.47 169.44 185.39 C 169.30 186.31 169.93 187.17 170.85 187.31 Z M 171.84 187.45 L 172.83 187.59 C 173.75 187.73 174.60 187.10 174.73 186.18 C 174.87 185.27 174.24 184.42 173.32 184.28 L 172.33 184.14 C 171.42 184.00 170.57 184.63 170.43 185.55 C 170.30 186.46 170.93 187.31 171.84 187.45 Z M 172.84 187.58 L 173.84 187.73 C 174.74 187.86 175.59 187.23 175.72 186.32 C 175.85 185.41 175.22 184.57 174.31 184.44 L 173.31 184.29 C 172.41 184.16 171.56 184.79 171.43 185.70 C 171.30 186.61 171.93 187.45 172.84 187.58 Z M 173.85 187.72 L 174.84 187.86 C 175.74 187.98 176.58 187.35 176.70 186.44 C 176.82 185.54 176.19 184.70 175.29 184.58 L 174.30 184.44 C 173.39 184.32 172.56 184.95 172.43 185.86 C 172.31 186.76 172.94 187.59 173.85 187.72 Z M 174.85 187.85 L 175.83 187.98 C 176.74 188.10 177.56 187.47 177.68 186.56 C 177.80 185.66 177.17 184.83 176.27 184.71 L 175.28 184.58 C 174.38 184.47 173.55 185.10 173.43 186.00 C 173.31 186.90 173.95 187.73 174.85 187.85 Z M 175.84 187.98 L 176.83 188.11 C 177.73 188.22 178.55 187.59 178.67 186.69 C 178.79 185.78 178.15 184.96 177.25 184.84 L 176.26 184.72 C 175.36 184.60 174.53 185.24 174.42 186.14 C 174.30 187.04 174.94 187.86 175.84 187.98 Z M 176.83 188.10 L 177.82 188.23 C 178.72 188.35 179.54 187.71 179.66 186.81 C 179.78 185.91 179.14 185.09 178.24 184.97 L 177.25 184.85 C 176.35 184.73 175.53 185.37 175.41 186.27 C 175.29 187.17 175.93 187.99 176.83 188.10 Z M 177.82 188.23 L 178.82 188.36 C 179.71 188.48 180.54 187.85 180.66 186.95 C 180.77 186.05 180.14 185.23 179.24 185.11 L 178.25 184.98 C 177.35 184.86 176.53 185.49 176.41 186.39 C 176.29 187.29 176.92 188.11 177.82 188.23 Z M 178.81 188.36 L 179.83 188.50 C 180.73 188.62 181.55 187.99 181.68 187.10 C 181.80 186.20 181.17 185.37 180.28 185.25 L 179.25 185.11 C 178.36 184.99 177.53 185.62 177.41 186.51 C 177.29 187.41 177.91 188.23 178.81 188.36 Z M 179.82 188.50 L 180.84 188.64 C 181.74 188.77 182.57 188.14 182.69 187.25 C 182.82 186.35 182.20 185.52 181.30 185.40 L 180.28 185.25 C 179.39 185.13 178.56 185.75 178.43 186.64 C 178.31 187.54 178.93 188.37 179.82 188.50 Z M 180.84 188.64 L 181.83 188.78 C 182.73 188.91 183.56 188.30 183.69 187.40 C 183.82 186.51 183.20 185.67 182.30 185.54 L 181.31 185.40 C 180.41 185.27 179.58 185.89 179.45 186.78 C 179.32 187.68 179.94 188.51 180.84 188.64 Z M 181.82 188.78 L 182.78 188.93 C 183.67 189.06 184.51 188.44 184.64 187.55 C 184.77 186.66 184.16 185.82 183.26 185.69 L 182.31 185.55 C 181.42 185.41 180.58 186.03 180.45 186.92 C 180.31 187.82 180.93 188.65 181.82 188.78 Z M 182.77 188.92 L 183.78 189.08 C 184.67 189.22 185.51 188.60 185.65 187.71 C 185.78 186.81 185.17 185.98 184.28 185.84 L 183.27 185.69 C 182.37 185.55 181.54 186.17 181.40 187.06 C 181.27 187.95 181.88 188.79 182.77 188.92 Z M 183.78 189.08 L 184.79 189.24 C 185.68 189.38 186.52 188.76 186.66 187.87 C 186.80 186.98 186.19 186.14 185.30 186.00 L 184.28 185.84 C 183.39 185.70 182.55 186.32 182.41 187.21 C 182.27 188.10 182.88 188.94 183.78 189.08 Z M 184.79 189.24 L 185.75 189.39 C 186.64 189.53 187.48 188.92 187.62 188.03 C 187.76 187.14 187.15 186.30 186.26 186.16 L 185.30 186.00 C 184.41 185.86 183.57 186.47 183.43 187.36 C 183.28 188.26 183.89 189.09 184.79 189.24 Z M 185.75 189.39 L 186.66 189.53 C 187.55 189.68 188.39 189.07 188.53 188.18 C 188.68 187.28 188.07 186.44 187.17 186.30 L 186.26 186.16 C 185.37 186.01 184.53 186.62 184.39 187.51 C 184.25 188.41 184.85 189.25 185.75 189.39 Z"
      fill="black"
      fill-rule="nonzero" /></svg>