<svg xmlns="http://www.w3.org/2000/svg" width="300" height="300" viewBox="0 0 300 300">
<path d="M 140.10 105.04 L 139.49 105.80 C 138.85 106.61 138.99 107.78 139.79 108.42 C 140.60 109.06 141.78 108.93 142.42 108.12 L 143.02 107.36 C 143.67 106.55 143.53 105.38 142.72 104.73 C 141.91 104.09 140.74 104.23 140.10 105.04 Z M 139.45 105.82 L 138.86 106.61 C 138.23 107.44 138.39 108.62 139.22 109.25 C 140.05 109.88 141.24 109.72 141.87 108.88 L 142.46 108.10 C 143.09 107.27 142.93 106.08 142.09 105.45 C 141.26 104.83 140.08 104.99 139.45 105.82 Z M 138.79 106.66 L 138.21 107.50 C 137.62 108.37 137.83 109.55 138.70 110.15 C 139.57 110.75 140.76 110.53 141.35 109.66 L 141.93 108.83 C 142.53 107.96 142.31 106.77 141.44 106.18 C 140.58 105.58 139.39 105.80 138.79 106.66 Z M 138.14 107.58 L 137.66 108.38 C 137.11 109.28 137.40 110.47 138.30 111.02 C 139.21 111.57 140.39 111.28 140.94 110.38 L 141.42 109.58 C 141.98 108.68 141.69 107.49 140.78 106.94 C 139.88 106.39 138.70 106.68 138.14 107.58 Z M 137.61 108.46 L 137.20 109.21 C 136.70 110.15 137.04 111.31 137.98 111.82 C 138.91 112.32 140.08 111.98 140.58 111.04 L 140.99 110.29 C 141.50 109.36 141.15 108.19 140.22 107.69 C 139.28 107.18 138.11 107.53 137.61 108.46 Z M 137.17 109.28 L 136.76 110.12 C 136.29 111.07 136.67 112.22 137.62 112.69 C 138.58 113.16 139.73 112.77 140.20 111.82 L 140.61 110.98 C 141.08 110.03 140.69 108.88 139.74 108.41 C 138.79 107.94 137.64 108.33 137.17 109.28 Z M 136.74 110.16 L 136.29 111.12 C 135.85 112.08 136.26 113.22 137.22 113.67 C 138.18 114.11 139.32 113.69 139.77 112.73 L 140.22 111.78 C 140.66 110.82 140.24 109.68 139.28 109.23 C 138.32 108.78 137.18 109.20 136.74 110.16 Z M 136.28 111.15 L 135.79 112.25 C 135.36 113.21 135.79 114.34 136.76 114.77 C 137.73 115.21 138.86 114.77 139.29 113.81 L 139.78 112.71 C 140.21 111.74 139.78 110.61 138.81 110.18 C 137.85 109.75 136.72 110.18 136.28 111.15 Z M 135.79 112.26 L 135.39 113.18 C 134.96 114.14 135.40 115.27 136.37 115.69 C 137.34 116.12 138.46 115.68 138.89 114.71 L 139.29 113.79 C 139.71 112.83 139.27 111.70 138.31 111.28 C 137.34 110.85 136.22 111.29 135.79 112.26 Z M 135.39 113.19 L 134.99 114.12 C 134.57 115.08 135.01 116.20 135.97 116.62 C 136.94 117.04 138.06 116.60 138.48 115.64 L 138.88 114.71 C 139.30 113.74 138.86 112.62 137.90 112.20 C 136.93 111.78 135.81 112.22 135.39 113.19 Z M 134.99 114.13 L 134.58 115.09 C 134.16 116.05 134.60 117.17 135.56 117.58 C 136.52 118.00 137.64 117.56 138.05 116.60 L 138.47 115.63 C 138.88 114.67 138.44 113.56 137.48 113.14 C 136.52 112.73 135.41 113.17 134.99 114.13 Z M 134.58 115.10 L 134.16 116.07 C 133.75 117.03 134.20 118.14 135.15 118.55 C 136.11 118.96 137.22 118.52 137.63 117.56 L 138.05 116.59 C 138.46 115.63 138.02 114.52 137.06 114.11 C 136.10 113.70 134.99 114.14 134.58 115.10 Z M 134.17 116.08 L 133.77 117.02 C 133.36 117.97 133.80 119.08 134.76 119.48 C 135.71 119.89 136.81 119.45 137.22 118.50 L 137.62 117.55 C 138.03 116.60 137.59 115.49 136.64 115.09 C 135.68 114.68 134.58 115.12 134.17 116.08 Z M 133.77 117.02 L 133.40 117.91 C 132.99 118.86 133.43 119.96 134.38 120.37 C 135.33 120.77 136.43 120.33 136.84 119.38 L 137.22 118.49 C 137.62 117.54 137.18 116.44 136.23 116.04 C 135.28 115.63 134.18 116.07 133.77 117.02 Z M 133.40 117.92 L 133.01 118.86 C 132.61 119.81 133.05 120.90 133.99 121.30 C 134.94 121.70 136.03 121.25 136.43 120.31 L 136.83 119.37 C 137.23 118.43 136.79 117.33 135.84 116.93 C 134.90 116.53 133.80 116.98 133.40 117.92 Z M 133.03 118.87 L 132.57 119.98 C 132.17 120.91 132.61 121.99 133.55 122.38 C 134.48 122.77 135.56 122.33 135.95 121.40 L 136.41 120.29 C 136.80 119.36 136.36 118.28 135.43 117.89 C 134.49 117.50 133.42 117.94 133.03 118.87 Z M 132.59 120.00 L 132.22 120.91 C 131.84 121.83 132.27 122.88 133.19 123.26 C 134.11 123.64 135.16 123.20 135.54 122.29 L 135.92 121.37 C 136.30 120.46 135.86 119.40 134.94 119.02 C 134.03 118.64 132.97 119.08 132.59 120.00 Z M 132.24 120.93 L 131.92 121.73 C 131.55 122.63 131.99 123.66 132.89 124.03 C 133.79 124.40 134.82 123.96 135.19 123.06 L 135.52 122.26 C 135.88 121.36 135.45 120.33 134.55 119.96 C 133.64 119.59 132.61 120.03 132.24 120.93 Z M 131.95 121.75 L 131.63 122.55 C 131.27 123.43 131.70 124.45 132.59 124.80 C 133.48 125.16 134.49 124.73 134.85 123.84 L 135.17 123.04 C 135.52 122.15 135.09 121.14 134.20 120.78 C 133.31 120.42 132.30 120.86 131.95 121.75 Z M 131.64 122.56 L 131.27 123.49 C 130.92 124.37 131.35 125.37 132.23 125.71 C 133.11 126.06 134.11 125.63 134.46 124.75 L 134.83 123.82 C 135.18 122.94 134.75 121.95 133.87 121.60 C 132.99 121.25 131.99 121.68 131.64 122.56 Z M 131.28 123.49 L 130.92 124.43 C 130.57 125.30 131.00 126.29 131.87 126.64 C 132.75 126.98 133.73 126.55 134.08 125.68 L 134.45 124.75 C 134.79 123.87 134.37 122.88 133.49 122.54 C 132.62 122.19 131.63 122.62 131.28 123.49 Z M 130.93 124.43 L 130.56 125.35 C 130.22 126.22 130.64 127.20 131.51 127.55 C 132.37 127.89 133.35 127.47 133.70 126.60 L 134.07 125.68 C 134.41 124.81 133.99 123.83 133.12 123.48 C 132.26 123.14 131.27 123.56 130.93 124.43 Z M 130.57 125.35 L 130.24 126.19 C 129.89 127.05 130.31 128.02 131.17 128.37 C 132.03 128.71 133.01 128.29 133.35 127.43 L 133.69 126.60 C 134.03 125.74 133.61 124.76 132.75 124.42 C 131.89 124.07 130.92 124.49 130.57 125.35 Z M 130.24 126.20 L 129.90 127.08 C 129.56 127.94 129.98 128.91 130.83 129.24 C 131.69 129.58 132.66 129.16 133.00 128.31 L 133.35 127.42 C 133.69 126.57 133.27 125.60 132.41 125.26 C 131.55 124.92 130.58 125.34 130.24 126.20 Z M 129.90 127.10 L 129.52 128.09 C 129.19 128.94 129.62 129.90 130.48 130.23 C 131.33 130.56 132.30 130.13 132.62 129.27 L 133.00 128.28 C 133.33 127.43 132.90 126.47 132.04 126.14 C 131.18 125.81 130.22 126.24 129.90 127.10 Z M 129.52 128.11 L 129.16 129.09 C 128.84 129.95 129.28 130.90 130.14 131.22 C 131.00 131.53 131.95 131.09 132.26 130.23 L 132.62 129.25 C 132.94 128.39 132.50 127.44 131.64 127.13 C 130.78 126.81 129.83 127.25 129.52 128.11 Z M 129.15 129.11 L 128.84 130.00 C 128.54 130.85 128.99 131.80 129.85 132.10 C 130.71 132.40 131.65 131.95 131.95 131.10 L 132.27 130.21 C 132.57 129.35 132.12 128.41 131.26 128.11 C 130.40 127.80 129.46 128.25 129.15 129.11 Z M 128.84 130.01 L 128.52 130.96 C 128.22 131.82 128.68 132.76 129.55 133.05 C 130.41 133.34 131.34 132.88 131.64 132.02 L 131.96 131.08 C 132.25 130.22 131.79 129.28 130.93 128.99 C 130.07 128.69 129.13 129.15 128.84 130.01 Z M 128.51 130.98 L 128.19 131.97 C 127.91 132.83 128.38 133.76 129.25 134.04 C 130.11 134.32 131.04 133.85 131.32 132.98 L 131.64 132.00 C 131.92 131.14 131.45 130.21 130.59 129.93 C 129.72 129.65 128.79 130.12 128.51 130.98 Z M 128.19 131.99 L 127.88 133.00 C 127.61 133.86 128.10 134.78 128.96 135.05 C 129.83 135.31 130.75 134.83 131.01 133.96 L 131.32 132.96 C 131.59 132.09 131.11 131.17 130.24 130.91 C 129.37 130.64 128.45 131.13 128.19 131.99 Z M 127.87 133.03 L 127.58 134.03 C 127.33 134.90 127.84 135.81 128.70 136.06 C 129.57 136.31 130.48 135.80 130.73 134.93 L 131.02 133.93 C 131.27 133.06 130.77 132.15 129.90 131.90 C 129.03 131.65 128.12 132.16 127.87 133.03 Z M 127.58 134.06 L 127.31 135.06 C 127.08 135.93 127.60 136.83 128.47 137.06 C 129.35 137.29 130.24 136.77 130.48 135.89 L 130.74 134.90 C 130.97 134.03 130.45 133.13 129.58 132.90 C 128.70 132.67 127.81 133.19 127.58 134.06 Z M 127.30 135.08 L 127.06 136.06 C 126.85 136.94 127.39 137.83 128.26 138.04 C 129.14 138.26 130.03 137.72 130.24 136.84 L 130.48 135.87 C 130.70 134.99 130.16 134.10 129.29 133.89 C 128.41 133.67 127.52 134.21 127.30 135.08 Z M 127.06 136.08 L 126.84 137.05 C 126.63 137.93 127.18 138.81 128.06 139.01 C 128.94 139.22 129.82 138.67 130.03 137.79 L 130.25 136.82 C 130.45 135.94 129.90 135.06 129.02 134.86 C 128.14 134.65 127.26 135.20 127.06 136.08 Z M 126.83 137.07 L 126.62 138.02 C 126.42 138.91 126.98 139.78 127.86 139.98 C 128.75 140.17 129.62 139.62 129.82 138.73 L 130.03 137.77 C 130.22 136.89 129.67 136.02 128.78 135.82 C 127.90 135.63 127.03 136.18 126.83 137.07 Z M 126.62 138.03 L 126.43 138.88 C 126.24 139.77 126.80 140.64 127.69 140.83 C 128.57 141.02 129.44 140.46 129.63 139.58 L 129.82 138.73 C 130.01 137.84 129.45 136.97 128.56 136.78 C 127.68 136.59 126.81 137.15 126.62 138.03 Z"
      fill="black"
      fill-rule="nonzero" /><path d="M 152.61 106.27 L 153.59 106.32 C 154.58 106.36 155.42 105.60 155.47 104.61 C 155.52 103.62 154.76 102.78 153.77 102.73 L 152.79 102.68 C 151.80 102.63 150.96 103.39 150.91 104.38 C 150.86 105.38 151.62 106.22 152.61 106.27 Z M 153.51 106.31 L 154.49 106.41 C 155.48 106.50 156.36 105.78 156.46 104.79 C 156.55 103.80 155.82 102.92 154.83 102.82 L 153.85 102.73 C 152.86 102.63 151.98 103.36 151.88 104.35 C 151.79 105.34 152.52 106.22 153.51 106.31 Z M 154.33 106.39 L 155.33 106.58 C 156.31 106.76 157.26 106.11 157.44 105.13 C 157.62 104.15 156.97 103.21 155.99 103.03 L 154.99 102.84 C 154.01 102.66 153.07 103.30 152.89 104.29 C 152.70 105.27 153.35 106.21 154.33 106.39 Z M 155.14 106.54 L 155.96 106.78 C 156.92 107.07 157.93 106.53 158.22 105.57 C 158.51 104.61 157.96 103.60 157.00 103.31 L 156.18 103.06 C 155.22 102.78 154.21 103.32 153.93 104.28 C 153.64 105.24 154.18 106.25 155.14 106.54 Z M 155.82 106.74 L 156.61 107.06 C 157.55 107.42 158.61 106.96 158.98 106.02 C 159.34 105.09 158.88 104.03 157.94 103.66 L 157.15 103.35 C 156.21 102.98 155.15 103.44 154.79 104.38 C 154.42 105.32 154.88 106.38 155.82 106.74 Z M 156.52 107.03 L 157.40 107.43 C 158.33 107.85 159.41 107.44 159.83 106.52 C 160.25 105.59 159.84 104.51 158.92 104.09 L 158.04 103.69 C 157.11 103.27 156.03 103.68 155.61 104.60 C 155.19 105.52 155.60 106.61 156.52 107.03 Z M 157.35 107.42 L 158.36 107.91 C 159.28 108.35 160.38 107.97 160.83 107.06 C 161.27 106.14 160.89 105.04 159.98 104.59 L 158.97 104.10 C 158.05 103.66 156.95 104.04 156.50 104.95 C 156.06 105.87 156.44 106.97 157.35 107.42 Z M 158.34 107.91 L 159.39 108.43 C 160.31 108.89 161.42 108.52 161.87 107.60 C 162.33 106.69 161.96 105.57 161.05 105.12 L 160.00 104.59 C 159.08 104.14 157.97 104.51 157.52 105.42 C 157.06 106.34 157.43 107.45 158.34 107.91 Z M 159.39 108.43 L 160.21 108.85 C 161.13 109.30 162.24 108.93 162.70 108.02 C 163.16 107.10 162.79 105.98 161.87 105.53 L 161.05 105.11 C 160.13 104.66 159.02 105.03 158.56 105.94 C 158.10 106.86 158.47 107.97 159.39 108.43 Z M 160.21 108.85 L 161.09 109.28 C 162.01 109.74 163.12 109.37 163.58 108.45 C 164.04 107.54 163.67 106.42 162.75 105.97 L 161.87 105.53 C 160.95 105.07 159.84 105.44 159.38 106.36 C 158.92 107.27 159.30 108.39 160.21 108.85 Z M 161.10 109.29 L 162.01 109.74 C 162.93 110.20 164.04 109.83 164.50 108.91 C 164.96 107.99 164.58 106.88 163.67 106.42 L 162.75 105.96 C 161.83 105.51 160.72 105.88 160.26 106.80 C 159.80 107.72 160.18 108.83 161.10 109.29 Z M 162.02 109.74 L 162.95 110.21 C 163.87 110.66 164.98 110.29 165.44 109.37 C 165.89 108.45 165.52 107.34 164.60 106.88 L 163.66 106.42 C 162.75 105.96 161.63 106.34 161.18 107.26 C 160.72 108.18 161.10 109.29 162.02 109.74 Z M 162.96 110.21 L 163.89 110.67 C 164.81 111.13 165.92 110.75 166.38 109.83 C 166.83 108.91 166.45 107.80 165.54 107.34 L 164.60 106.88 C 163.68 106.43 162.57 106.81 162.11 107.73 C 161.66 108.64 162.04 109.76 162.96 110.21 Z M 163.90 110.67 L 164.82 111.13 C 165.74 111.58 166.85 111.20 167.30 110.28 C 167.75 109.36 167.37 108.24 166.45 107.79 L 165.53 107.34 C 164.61 106.89 163.50 107.27 163.05 108.19 C 162.60 109.11 162.98 110.22 163.90 110.67 Z M 164.82 111.13 L 165.73 111.57 C 166.66 112.02 167.77 111.63 168.21 110.71 C 168.66 109.79 168.28 108.68 167.35 108.23 L 166.44 107.79 C 165.52 107.34 164.41 107.73 163.97 108.65 C 163.52 109.57 163.90 110.68 164.82 111.13 Z M 165.74 111.57 L 166.70 112.03 C 167.62 112.47 168.72 112.08 169.17 111.16 C 169.61 110.24 169.22 109.13 168.30 108.69 L 167.35 108.23 C 166.42 107.79 165.32 108.18 164.88 109.10 C 164.43 110.02 164.82 111.13 165.74 111.57 Z M 166.71 112.02 L 167.61 112.46 C 168.53 112.90 169.63 112.51 170.07 111.59 C 170.51 110.67 170.12 109.57 169.20 109.13 L 168.29 108.70 C 167.37 108.26 166.27 108.65 165.84 109.57 C 165.40 110.48 165.79 111.59 166.71 112.02 Z M 167.62 112.45 L 168.50 112.87 C 169.41 113.31 170.51 112.92 170.95 112.01 C 171.38 111.09 171.00 109.99 170.08 109.56 L 169.20 109.14 C 168.28 108.70 167.19 109.09 166.75 110.00 C 166.31 110.92 166.70 112.01 167.62 112.45 Z M 168.49 112.86 L 169.36 113.28 C 170.27 113.72 171.37 113.34 171.81 112.43 C 172.24 111.52 171.86 110.42 170.95 109.98 L 170.08 109.57 C 169.17 109.13 168.08 109.51 167.64 110.42 C 167.20 111.33 167.58 112.42 168.49 112.86 Z M 169.36 113.27 L 170.23 113.70 C 171.13 114.14 172.23 113.77 172.67 112.86 C 173.11 111.96 172.74 110.87 171.83 110.42 L 170.96 110.00 C 170.05 109.55 168.96 109.93 168.52 110.83 C 168.08 111.74 168.45 112.83 169.36 113.27 Z M 170.22 113.68 L 171.11 114.13 C 172.01 114.58 173.10 114.22 173.55 113.32 C 174.00 112.42 173.63 111.33 172.74 110.88 L 171.84 110.44 C 170.95 109.99 169.86 110.35 169.41 111.25 C 168.96 112.15 169.32 113.24 170.22 113.68 Z M 171.10 114.12 L 172.00 114.58 C 172.89 115.03 173.97 114.68 174.43 113.79 C 174.89 112.90 174.53 111.81 173.65 111.36 L 172.75 110.90 C 171.86 110.44 170.77 110.80 170.32 111.68 C 169.86 112.57 170.21 113.66 171.10 114.12 Z M 171.99 114.56 L 172.90 115.04 C 173.78 115.50 174.86 115.16 175.33 114.28 C 175.79 113.41 175.45 112.32 174.57 111.86 L 173.66 111.38 C 172.78 110.92 171.69 111.25 171.23 112.13 C 170.77 113.01 171.11 114.10 171.99 114.56 Z M 172.89 115.02 L 173.80 115.51 C 174.67 115.98 175.75 115.66 176.22 114.79 C 176.69 113.92 176.37 112.84 175.50 112.37 L 174.58 111.88 C 173.72 111.41 172.63 111.73 172.17 112.60 C 171.70 113.47 172.02 114.55 172.89 115.02 Z M 173.79 115.49 L 174.69 115.99 C 175.54 116.47 176.62 116.16 177.10 115.30 C 177.57 114.45 177.27 113.37 176.41 112.89 L 175.51 112.39 C 174.66 111.92 173.58 112.22 173.10 113.08 C 172.63 113.94 172.93 115.02 173.79 115.49 Z M 174.67 115.97 L 175.53 116.46 C 176.37 116.95 177.45 116.66 177.94 115.81 C 178.42 114.97 178.13 113.89 177.29 113.41 L 176.43 112.91 C 175.58 112.43 174.51 112.72 174.02 113.56 C 173.53 114.41 173.83 115.48 174.67 115.97 Z M 175.51 116.44 L 176.32 116.92 C 177.15 117.42 178.22 117.15 178.72 116.32 C 179.21 115.49 178.94 114.41 178.11 113.92 L 177.31 113.43 C 176.48 112.94 175.40 113.21 174.91 114.04 C 174.41 114.87 174.68 115.94 175.51 116.44 Z M 176.28 116.88 L 177.22 117.48 C 178.03 117.99 179.10 117.75 179.62 116.94 C 180.13 116.13 179.89 115.06 179.08 114.55 L 178.15 113.95 C 177.34 113.44 176.26 113.68 175.75 114.49 C 175.24 115.30 175.47 116.37 176.28 116.88 Z M 177.16 117.42 L 178.08 118.06 C 178.85 118.60 179.92 118.42 180.47 117.64 C 181.01 116.86 180.83 115.79 180.05 115.25 L 179.14 114.61 C 178.36 114.06 177.29 114.25 176.75 115.03 C 176.20 115.80 176.39 116.87 177.16 117.42 Z M 177.99 117.97 L 178.75 118.59 C 179.48 119.18 180.55 119.07 181.14 118.35 C 181.73 117.62 181.62 116.55 180.90 115.96 L 180.13 115.34 C 179.41 114.75 178.34 114.86 177.75 115.58 C 177.16 116.31 177.27 117.37 177.99 117.97 Z M 178.64 118.46 L 179.27 119.08 C 179.93 119.74 180.98 119.74 181.64 119.08 C 182.29 118.43 182.29 117.37 181.63 116.72 L 181.01 116.09 C 180.35 115.44 179.29 115.44 178.64 116.09 C 177.99 116.75 177.99 117.81 178.64 118.46 Z M 179.14 118.91 L 179.67 119.60 C 180.23 120.33 181.27 120.46 181.99 119.91 C 182.72 119.35 182.85 118.31 182.30 117.59 L 181.76 116.89 C 181.21 116.17 180.17 116.03 179.45 116.59 C 178.72 117.14 178.58 118.18 179.14 118.91 Z M 179.54 119.38 L 180.02 120.27 C 180.45 121.06 181.45 121.36 182.25 120.93 C 183.05 120.49 183.34 119.50 182.91 118.70 L 182.43 117.81 C 182.00 117.01 181.00 116.72 180.20 117.15 C 179.40 117.58 179.11 118.58 179.54 119.38 Z M 179.93 120.07 L 180.29 121.00 C 180.62 121.84 181.57 122.26 182.41 121.94 C 183.26 121.61 183.68 120.66 183.35 119.82 L 183.00 118.89 C 182.67 118.05 181.72 117.63 180.88 117.95 C 180.03 118.28 179.61 119.23 179.93 120.07 Z M 180.26 120.89 L 180.55 121.83 C 180.81 122.70 181.73 123.18 182.59 122.92 C 183.46 122.65 183.94 121.73 183.68 120.87 L 183.39 119.93 C 183.12 119.06 182.21 118.57 181.34 118.84 C 180.48 119.11 179.99 120.02 180.26 120.89 Z M 180.54 121.81 L 180.57 121.91 C 180.82 122.78 181.73 123.28 182.60 123.03 C 183.47 122.77 183.97 121.86 183.71 121.00 L 183.68 120.89 C 183.43 120.02 182.52 119.52 181.65 119.78 C 180.79 120.03 180.29 120.94 180.54 121.81 Z"
      fill="black"
      fill-rule="nonzero" /><path d="M 142.22 136.29 L 143.17 136.59 C 144.11 136.88 145.11 136.36 145.40 135.42 C 145.70 134.47 145.17 133.47 144.23 133.18 L 143.29 132.88 C 142.35 132.59 141.34 133.11 141.05 134.05 C 140.76 135.00 141.28 136.00 142.22 136.29 Z M 143.25 136.59 L 144.21 136.84 C 145.15 137.09 146.12 136.52 146.37 135.58 C 146.61 134.63 146.05 133.67 145.10 133.42 L 144.14 133.17 C 143.20 132.92 142.23 133.49 141.99 134.44 C 141.74 135.38 142.31 136.35 143.25 136.59 Z M 144.37 136.86 L 145.36 137.02 C 146.31 137.18 147.21 136.53 147.37 135.57 C 147.52 134.62 146.87 133.72 145.92 133.56 L 144.93 133.40 C 143.98 133.25 143.08 133.90 142.92 134.85 C 142.77 135.81 143.42 136.71 144.37 136.86 Z M 145.60 137.03 L 146.61 137.05 C 147.57 137.07 148.37 136.31 148.39 135.35 C 148.41 134.39 147.65 133.60 146.69 133.58 L 145.68 133.56 C 144.72 133.53 143.92 134.29 143.90 135.25 C 143.88 136.21 144.64 137.01 145.60 137.03 Z M 146.87 137.03 L 147.82 136.91 C 148.77 136.79 149.44 135.93 149.32 134.98 C 149.20 134.03 148.34 133.36 147.39 133.48 L 146.44 133.60 C 145.49 133.72 144.82 134.58 144.94 135.53 C 145.06 136.47 145.92 137.15 146.87 137.03 Z M 148.00 136.87 L 148.98 136.64 C 149.90 136.43 150.48 135.50 150.26 134.57 C 150.04 133.65 149.11 133.07 148.19 133.29 L 147.21 133.52 C 146.29 133.74 145.71 134.66 145.93 135.59 C 146.15 136.51 147.08 137.09 148.00 136.87 Z M 149.10 136.61 L 150.07 136.30 C 150.98 136.02 151.48 135.05 151.20 134.15 C 150.91 133.24 149.95 132.74 149.04 133.02 L 148.07 133.33 C 147.16 133.61 146.66 134.58 146.94 135.48 C 147.23 136.39 148.19 136.89 149.10 136.61 Z M 150.15 136.27 L 151.10 135.92 C 151.99 135.59 152.44 134.61 152.12 133.72 C 151.79 132.83 150.81 132.38 149.92 132.70 L 148.97 133.05 C 148.08 133.38 147.62 134.36 147.95 135.25 C 148.27 136.14 149.26 136.60 150.15 136.27 Z M 151.14 135.90 L 152.07 135.53 C 152.94 135.18 153.37 134.19 153.03 133.31 C 152.68 132.43 151.68 132.01 150.80 132.35 L 149.88 132.72 C 149.00 133.07 148.57 134.06 148.92 134.94 C 149.27 135.82 150.26 136.25 151.14 135.90 Z M 152.10 135.52 L 153.00 135.14 C 153.87 134.77 154.27 133.77 153.91 132.90 C 153.54 132.03 152.54 131.63 151.68 131.99 L 150.77 132.37 C 149.91 132.73 149.50 133.73 149.86 134.60 C 150.23 135.47 151.23 135.88 152.10 135.52 Z M 153.03 135.12 L 153.92 134.72 C 154.78 134.34 155.17 133.34 154.79 132.48 C 154.41 131.62 153.40 131.23 152.54 131.61 L 151.64 132.01 C 150.78 132.39 150.40 133.40 150.78 134.26 C 151.16 135.12 152.17 135.50 153.03 135.12 Z M 153.95 134.71 L 154.87 134.28 C 155.72 133.88 156.08 132.87 155.69 132.02 C 155.29 131.17 154.28 130.80 153.42 131.20 L 152.51 131.63 C 151.66 132.03 151.29 133.04 151.69 133.89 C 152.09 134.74 153.10 135.11 153.95 134.71 Z M 154.89 134.26 L 155.80 133.82 C 156.64 133.41 156.99 132.39 156.58 131.55 C 156.16 130.71 155.15 130.36 154.30 130.77 L 153.40 131.21 C 152.56 131.63 152.21 132.64 152.62 133.48 C 153.03 134.33 154.05 134.68 154.89 134.26 Z M 155.81 133.81 L 156.66 133.39 C 157.50 132.96 157.83 131.94 157.41 131.11 C 156.99 130.27 155.97 129.93 155.13 130.36 L 154.29 130.78 C 153.45 131.20 153.11 132.22 153.53 133.06 C 153.96 133.90 154.98 134.23 155.81 133.81 Z M 156.67 133.38 L 157.55 132.93 C 158.39 132.50 158.71 131.48 158.29 130.65 C 157.86 129.81 156.84 129.48 156.01 129.91 L 155.12 130.36 C 154.29 130.79 153.96 131.81 154.39 132.64 C 154.82 133.48 155.84 133.81 156.67 133.38 Z M 157.56 132.92 L 158.46 132.46 C 159.29 132.03 159.62 131.00 159.19 130.17 C 158.76 129.34 157.74 129.01 156.91 129.44 L 156.00 129.91 C 155.17 130.34 154.84 131.37 155.27 132.20 C 155.70 133.03 156.73 133.35 157.56 132.92 Z M 158.46 132.45 L 159.38 131.98 C 160.22 131.55 160.54 130.53 160.11 129.69 C 159.68 128.86 158.66 128.54 157.83 128.97 L 156.91 129.45 C 156.07 129.88 155.75 130.90 156.18 131.73 C 156.61 132.56 157.63 132.89 158.46 132.45 Z M 159.38 131.98 L 160.36 131.48 C 161.20 131.05 161.52 130.02 161.09 129.19 C 160.67 128.36 159.64 128.03 158.81 128.46 L 157.83 128.97 C 157.00 129.39 156.67 130.42 157.10 131.25 C 157.53 132.08 158.55 132.41 159.38 131.98 Z M 160.35 131.50 L 161.50 130.92 C 162.34 130.50 162.69 129.47 162.26 128.63 C 161.84 127.78 160.81 127.44 159.97 127.86 L 158.82 128.44 C 157.98 128.86 157.64 129.89 158.06 130.73 C 158.48 131.58 159.51 131.92 160.35 131.50 Z M 161.46 130.97 L 162.49 130.49 C 163.36 130.09 163.74 129.07 163.34 128.20 C 162.94 127.33 161.91 126.95 161.04 127.35 L 160.01 127.82 C 159.14 128.22 158.76 129.25 159.16 130.11 C 159.56 130.98 160.59 131.36 161.46 130.97 Z M 162.36 130.57 L 163.18 130.28 C 164.09 129.95 164.56 128.95 164.24 128.03 C 163.91 127.12 162.91 126.65 162.00 126.97 L 161.17 127.27 C 160.26 127.59 159.79 128.60 160.11 129.51 C 160.44 130.42 161.45 130.90 162.36 130.57 Z M 162.67 130.40 L 163.21 130.37 C 164.19 130.33 164.95 129.50 164.91 128.52 C 164.86 127.54 164.03 126.78 163.05 126.83 L 162.51 126.85 C 161.53 126.90 160.77 127.72 160.81 128.70 C 160.86 129.68 161.69 130.44 162.67 130.40 Z M 161.35 128.79 L 161.41 129.37 C 161.52 130.35 162.40 131.07 163.38 130.96 C 164.36 130.86 165.07 129.98 164.97 129.00 L 164.91 128.42 C 164.81 127.43 163.93 126.72 162.95 126.82 C 161.97 126.92 161.25 127.80 161.35 128.79 Z M 161.59 128.38 L 161.06 129.43 C 160.61 130.32 160.97 131.40 161.86 131.85 C 162.74 132.29 163.82 131.93 164.27 131.05 L 164.80 129.99 C 165.24 129.11 164.89 128.03 164.00 127.58 C 163.11 127.14 162.04 127.49 161.59 128.38 Z M 161.13 129.29 L 160.56 130.21 C 160.03 131.06 160.29 132.17 161.13 132.69 C 161.98 133.22 163.09 132.96 163.61 132.12 L 164.19 131.19 C 164.72 130.35 164.46 129.24 163.62 128.71 C 162.77 128.19 161.66 128.44 161.13 129.29 Z M 160.58 130.17 L 160.05 130.98 C 159.50 131.81 159.73 132.93 160.56 133.48 C 161.39 134.03 162.51 133.80 163.06 132.97 L 163.59 132.16 C 164.14 131.33 163.91 130.21 163.08 129.66 C 162.25 129.11 161.13 129.34 160.58 130.17 Z M 160.06 130.96 L 159.49 131.79 C 158.93 132.62 159.14 133.74 159.97 134.30 C 160.80 134.86 161.92 134.65 162.48 133.82 L 163.05 132.99 C 163.61 132.16 163.40 131.04 162.57 130.48 C 161.74 129.92 160.62 130.13 160.06 130.96 Z M 159.49 131.78 L 158.90 132.65 C 158.33 133.48 158.54 134.60 159.36 135.17 C 160.19 135.74 161.32 135.53 161.88 134.70 L 162.48 133.83 C 163.05 133.01 162.84 131.88 162.01 131.31 C 161.19 130.75 160.06 130.96 159.49 131.78 Z M 158.89 132.65 L 158.38 133.40 C 157.82 134.23 158.03 135.35 158.85 135.92 C 159.68 136.49 160.81 136.27 161.38 135.45 L 161.89 134.70 C 162.45 133.87 162.24 132.74 161.41 132.18 C 160.59 131.61 159.46 131.82 158.89 132.65 Z M 158.37 133.40 L 157.85 134.17 C 157.29 135.01 157.51 136.14 158.34 136.70 C 159.17 137.26 160.30 137.04 160.87 136.21 L 161.39 135.44 C 161.95 134.61 161.73 133.48 160.90 132.92 C 160.07 132.35 158.93 132.57 158.37 133.40 Z M 157.84 134.18 L 157.29 135.01 C 156.74 135.85 156.97 136.98 157.81 137.53 C 158.65 138.09 159.78 137.86 160.33 137.02 L 160.88 136.20 C 161.43 135.36 161.21 134.23 160.37 133.67 C 159.53 133.12 158.40 133.35 157.84 134.18 Z M 157.28 135.02 L 156.70 135.92 C 156.15 136.76 156.40 137.89 157.24 138.44 C 158.09 138.99 159.22 138.75 159.77 137.90 L 160.35 137.01 C 160.89 136.16 160.65 135.03 159.81 134.48 C 158.96 133.93 157.83 134.18 157.28 135.02 Z M 156.69 135.93 L 156.09 136.88 C 155.55 137.73 155.81 138.86 156.66 139.40 C 157.52 139.94 158.65 139.68 159.19 138.83 L 159.78 137.89 C 160.32 137.03 160.07 135.90 159.21 135.36 C 158.36 134.82 157.23 135.08 156.69 135.93 Z M 156.08 136.89 L 155.57 137.72 C 155.04 138.59 155.30 139.71 156.17 140.25 C 157.03 140.78 158.16 140.51 158.69 139.65 L 159.20 138.81 C 159.73 137.95 159.46 136.82 158.60 136.29 C 157.74 135.76 156.61 136.03 156.08 136.89 Z M 155.56 137.74 L 155.03 138.61 C 154.51 139.47 154.79 140.60 155.65 141.12 C 156.52 141.65 157.65 141.37 158.17 140.50 L 158.70 139.63 C 159.22 138.77 158.94 137.64 158.07 137.12 C 157.21 136.59 156.08 136.87 155.56 137.74 Z M 155.02 138.62 L 154.50 139.51 C 153.98 140.38 154.27 141.51 155.14 142.02 C 156.01 142.54 157.14 142.25 157.65 141.38 L 158.18 140.49 C 158.69 139.62 158.41 138.49 157.54 137.98 C 156.66 137.46 155.54 137.75 155.02 138.62 Z M 154.49 139.52 L 153.97 140.41 C 153.46 141.29 153.76 142.41 154.64 142.92 C 155.51 143.43 156.64 143.13 157.15 142.25 L 157.66 141.37 C 158.17 140.49 157.87 139.37 157.00 138.86 C 156.12 138.35 155.00 138.65 154.49 139.52 Z M 153.96 140.42 L 153.47 141.29 C 152.97 142.17 153.28 143.29 154.16 143.79 C 155.04 144.29 156.16 143.99 156.66 143.10 L 157.16 142.24 C 157.66 141.36 157.35 140.24 156.47 139.73 C 155.58 139.23 154.46 139.54 153.96 140.42 Z M 153.46 141.31 L 152.98 142.18 C 152.49 143.06 152.81 144.18 153.70 144.67 C 154.59 145.16 155.71 144.84 156.20 143.95 L 156.68 143.09 C 157.17 142.20 156.84 141.08 155.96 140.59 C 155.07 140.10 153.95 140.42 153.46 141.31 Z M 152.97 142.20 L 152.44 143.18 C 151.97 144.08 152.31 145.19 153.20 145.67 C 154.10 146.15 155.21 145.81 155.69 144.91 L 156.21 143.93 C 156.69 143.03 156.35 141.92 155.45 141.44 C 154.56 140.96 153.44 141.30 152.97 142.20 Z M 152.43 143.22 L 151.96 144.13 C 151.50 145.03 151.87 146.14 152.77 146.60 C 153.68 147.06 154.78 146.70 155.24 145.79 L 155.71 144.88 C 156.17 143.97 155.80 142.87 154.90 142.41 C 153.99 141.95 152.88 142.31 152.43 143.22 Z M 151.94 144.16 L 151.53 145.03 C 151.09 145.94 151.47 147.04 152.39 147.48 C 153.31 147.92 154.41 147.54 154.85 146.62 L 155.26 145.76 C 155.70 144.84 155.32 143.74 154.40 143.30 C 153.48 142.86 152.38 143.25 151.94 144.16 Z M 151.51 145.06 L 151.13 145.90 C 150.71 146.83 151.12 147.92 152.05 148.34 C 152.97 148.76 154.06 148.35 154.48 147.42 L 154.86 146.59 C 155.28 145.66 154.87 144.57 153.95 144.15 C 153.02 143.73 151.93 144.14 151.51 145.06 Z M 151.12 145.93 L 150.74 146.81 C 150.34 147.74 150.77 148.82 151.70 149.23 C 152.64 149.63 153.72 149.20 154.12 148.26 L 154.50 147.39 C 154.90 146.45 154.47 145.37 153.53 144.97 C 152.60 144.57 151.52 145.00 151.12 145.93 Z M 150.72 146.84 L 150.35 147.76 C 149.97 148.70 150.43 149.78 151.37 150.16 C 152.31 150.54 153.39 150.09 153.77 149.14 L 154.14 148.23 C 154.52 147.28 154.07 146.21 153.12 145.83 C 152.18 145.44 151.11 145.90 150.72 146.84 Z M 150.34 147.80 L 149.98 148.73 C 149.62 149.68 150.10 150.74 151.05 151.11 C 152.01 151.47 153.07 150.99 153.43 150.04 L 153.78 149.11 C 154.14 148.15 153.66 147.09 152.71 146.73 C 151.76 146.37 150.70 146.85 150.34 147.80 Z M 149.97 148.77 L 149.63 149.72 C 149.30 150.68 149.80 151.73 150.76 152.07 C 151.72 152.41 152.77 151.90 153.11 150.94 L 153.45 150.00 C 153.78 149.04 153.28 147.98 152.32 147.64 C 151.36 147.31 150.31 147.81 149.97 148.77 Z M 149.62 149.76 L 149.31 150.72 C 148.99 151.68 149.52 152.73 150.49 153.04 C 151.45 153.36 152.49 152.83 152.81 151.86 L 153.13 150.90 C 153.44 149.94 152.91 148.89 151.95 148.58 C 150.98 148.26 149.94 148.79 149.62 149.76 Z M 149.29 150.76 L 149.01 151.72 C 148.71 152.69 149.26 153.72 150.24 154.01 C 151.22 154.31 152.24 153.75 152.54 152.78 L 152.82 151.82 C 153.12 150.85 152.56 149.82 151.59 149.52 C 150.61 149.23 149.59 149.78 149.29 150.76 Z M 148.99 151.77 L 148.73 152.74 C 148.46 153.72 149.05 154.74 150.03 155.00 C 151.01 155.27 152.03 154.68 152.29 153.70 L 152.55 152.73 C 152.82 151.74 152.23 150.73 151.25 150.47 C 150.27 150.20 149.25 150.79 148.99 151.77 Z M 148.71 152.81 L 148.49 153.78 C 148.26 154.78 148.88 155.77 149.87 156.00 C 150.86 156.22 151.85 155.61 152.08 154.61 L 152.31 153.64 C 152.53 152.64 151.92 151.65 150.92 151.42 C 149.93 151.19 148.94 151.81 148.71 152.81 Z M 148.47 153.86 L 148.29 154.84 C 148.10 155.84 148.77 156.80 149.77 156.99 C 150.77 157.17 151.73 156.51 151.92 155.51 L 152.10 154.54 C 152.28 153.53 151.62 152.57 150.62 152.39 C 149.62 152.20 148.66 152.86 148.47 153.86 Z M 148.27 154.95 L 148.13 156.10 C 148.01 157.11 148.73 158.03 149.74 158.15 C 150.75 158.27 151.67 157.55 151.79 156.54 L 151.93 155.40 C 152.06 154.39 151.34 153.47 150.33 153.34 C 149.32 153.22 148.40 153.94 148.27 154.95 Z M 148.12 156.29 L 148.10 157.36 C 148.08 158.37 148.89 159.21 149.91 159.23 C 150.93 159.25 151.77 158.44 151.79 157.42 L 151.80 156.35 C 151.82 155.33 151.01 154.49 149.99 154.48 C 148.98 154.46 148.14 155.27 148.12 156.29 Z M 148.13 157.69 L 148.28 158.59 C 148.45 159.60 149.40 160.27 150.40 160.10 C 151.40 159.93 152.08 158.98 151.91 157.98 L 151.76 157.08 C 151.59 156.08 150.64 155.40 149.64 155.57 C 148.63 155.74 147.96 156.69 148.13 157.69 Z M 148.51 159.21 L 148.91 159.91 C 149.43 160.79 150.55 161.08 151.43 160.57 C 152.31 160.06 152.60 158.93 152.09 158.05 L 151.68 157.36 C 151.17 156.48 150.04 156.18 149.17 156.70 C 148.29 157.21 147.99 158.34 148.51 159.21 Z M 149.63 160.60 L 150.41 161.02 C 151.31 161.50 152.42 161.17 152.90 160.28 C 153.38 159.39 153.05 158.27 152.16 157.79 L 151.37 157.37 C 150.48 156.89 149.37 157.22 148.89 158.11 C 148.41 159.00 148.74 160.11 149.63 160.60 Z M 151.06 161.22 L 152.08 161.35 C 153.08 161.47 154.00 160.77 154.12 159.76 C 154.25 158.76 153.54 157.85 152.54 157.72 L 151.52 157.59 C 150.52 157.47 149.60 158.17 149.47 159.17 C 149.35 160.18 150.06 161.09 151.06 161.22 Z M 152.36 161.35 L 153.43 161.32 C 154.43 161.29 155.22 160.46 155.19 159.45 C 155.17 158.45 154.33 157.66 153.32 157.69 L 152.26 157.72 C 151.26 157.75 150.47 158.58 150.49 159.59 C 150.52 160.59 151.36 161.38 152.36 161.35 Z M 153.56 161.31 L 154.55 161.21 C 155.54 161.11 156.27 160.22 156.17 159.22 C 156.07 158.23 155.18 157.50 154.19 157.60 L 153.20 157.70 C 152.20 157.80 151.47 158.69 151.57 159.69 C 151.67 160.68 152.56 161.41 153.56 161.31 Z M 154.66 161.19 L 155.66 161.03 C 156.65 160.86 157.32 159.93 157.15 158.94 C 156.99 157.95 156.05 157.29 155.07 157.45 L 154.07 157.62 C 153.08 157.78 152.41 158.72 152.58 159.70 C 152.74 160.69 153.68 161.36 154.66 161.19 Z M 155.79 161.00 L 156.77 160.76 C 157.74 160.53 158.34 159.55 158.10 158.58 C 157.87 157.60 156.89 157.01 155.92 157.24 L 154.94 157.48 C 153.97 157.72 153.37 158.69 153.61 159.67 C 153.84 160.64 154.82 161.23 155.79 161.00 Z M 156.91 160.72 L 157.87 160.40 C 158.82 160.09 159.33 159.06 159.02 158.11 C 158.70 157.17 157.68 156.65 156.73 156.97 L 155.78 157.29 C 154.83 157.60 154.31 158.62 154.63 159.57 C 154.94 160.52 155.97 161.03 156.91 160.72 Z M 158.00 160.35 L 158.92 159.97 C 159.84 159.59 160.27 158.53 159.89 157.61 C 159.51 156.69 158.45 156.25 157.53 156.63 L 156.61 157.02 C 155.69 157.40 155.25 158.46 155.64 159.38 C 156.02 160.30 157.07 160.73 158.00 160.35 Z M 159.00 159.93 L 159.90 159.50 C 160.80 159.07 161.18 157.99 160.74 157.09 C 160.31 156.19 159.24 155.82 158.34 156.25 L 157.44 156.68 C 156.55 157.11 156.17 158.18 156.60 159.08 C 157.03 159.98 158.11 160.36 159.00 159.93 Z M 159.95 159.47 L 160.80 159.03 C 161.68 158.57 162.02 157.48 161.56 156.60 C 161.11 155.72 160.02 155.37 159.13 155.83 L 158.29 156.27 C 157.41 156.73 157.06 157.82 157.52 158.70 C 157.98 159.59 159.07 159.93 159.95 159.47 Z M 160.83 159.01 L 161.64 158.57 C 162.51 158.09 162.84 157.00 162.36 156.12 C 161.88 155.25 160.79 154.93 159.91 155.41 L 159.10 155.85 C 158.23 156.33 157.91 157.42 158.38 158.30 C 158.86 159.17 159.96 159.49 160.83 159.01 Z M 161.67 158.55 L 162.53 158.06 C 163.39 157.57 163.69 156.47 163.20 155.60 C 162.70 154.74 161.60 154.44 160.73 154.93 L 159.88 155.42 C 159.02 155.92 158.72 157.02 159.21 157.89 C 159.71 158.75 160.81 159.05 161.67 158.55 Z M 162.56 158.05 L 163.48 157.49 C 164.34 156.98 164.62 155.87 164.10 155.02 C 163.59 154.16 162.48 153.88 161.63 154.40 L 160.70 154.95 C 159.85 155.46 159.57 156.57 160.08 157.43 C 160.60 158.28 161.70 158.56 162.56 158.05 Z M 163.51 157.48 L 164.39 156.93 C 165.23 156.41 165.49 155.29 164.97 154.45 C 164.44 153.60 163.32 153.34 162.48 153.87 L 161.60 154.41 C 160.75 154.94 160.49 156.05 161.02 156.90 C 161.55 157.75 162.66 158.01 163.51 157.48 Z M 164.40 156.93 L 165.25 156.39 C 166.09 155.85 166.34 154.73 165.81 153.89 C 165.27 153.05 164.15 152.80 163.31 153.33 L 162.46 153.87 C 161.62 154.41 161.37 155.53 161.90 156.37 C 162.44 157.21 163.56 157.46 164.40 156.93 Z M 165.26 156.38 L 166.13 155.82 C 166.97 155.28 167.22 154.16 166.67 153.32 C 166.13 152.48 165.01 152.24 164.17 152.78 L 163.30 153.34 C 162.46 153.88 162.22 155.00 162.76 155.84 C 163.30 156.68 164.42 156.92 165.26 156.38 Z M 166.13 155.83 L 166.99 155.27 C 167.83 154.73 168.08 153.61 167.54 152.77 C 166.99 151.92 165.87 151.68 165.03 152.22 L 164.17 152.78 C 163.33 153.32 163.08 154.44 163.63 155.28 C 164.17 156.12 165.29 156.37 166.13 155.83 Z M 166.99 155.28 L 167.81 154.75 C 168.66 154.21 168.90 153.09 168.36 152.24 C 167.82 151.40 166.70 151.15 165.86 151.69 L 165.03 152.22 C 164.19 152.76 163.94 153.88 164.48 154.72 C 165.02 155.57 166.14 155.82 166.99 155.28 Z M 167.80 154.76 L 168.72 154.19 C 169.57 153.66 169.83 152.53 169.29 151.68 C 168.76 150.83 167.64 150.57 166.79 151.11 L 165.87 151.68 C 165.02 152.21 164.76 153.34 165.29 154.19 C 165.83 155.04 166.95 155.30 167.80 154.76 Z M 168.69 154.21 L 169.57 153.68 C 170.43 153.16 170.71 152.04 170.19 151.17 C 169.66 150.31 168.54 150.04 167.68 150.56 L 166.81 151.09 C 165.95 151.61 165.67 152.73 166.19 153.59 C 166.71 154.45 167.83 154.73 168.69 154.21 Z M 169.54 153.70 L 170.36 153.22 C 171.24 152.72 171.54 151.60 171.03 150.73 C 170.53 149.86 169.41 149.56 168.54 150.06 L 167.71 150.54 C 166.84 151.04 166.54 152.16 167.05 153.03 C 167.55 153.90 168.67 154.20 169.54 153.70 Z M 170.33 153.25 L 171.14 152.80 C 172.03 152.32 172.36 151.20 171.87 150.32 C 171.39 149.43 170.27 149.11 169.39 149.59 L 168.57 150.04 C 167.69 150.52 167.36 151.63 167.85 152.52 C 168.33 153.41 169.44 153.73 170.33 153.25 Z M 171.10 152.83 L 171.98 152.38 C 172.88 151.92 173.24 150.81 172.77 149.91 C 172.31 149.00 171.20 148.65 170.30 149.11 L 169.43 149.56 C 168.52 150.03 168.17 151.13 168.63 152.03 C 169.10 152.94 170.20 153.29 171.10 152.83 Z M 171.92 152.42 L 172.82 152.00 C 173.75 151.57 174.15 150.47 173.72 149.55 C 173.29 148.62 172.20 148.22 171.27 148.65 L 170.36 149.07 C 169.44 149.50 169.04 150.60 169.47 151.52 C 169.90 152.45 170.99 152.85 171.92 152.42 Z M 172.73 152.05 L 173.67 151.68 C 174.62 151.30 175.09 150.22 174.71 149.27 C 174.33 148.32 173.25 147.85 172.30 148.23 L 171.36 148.60 C 170.41 148.98 169.94 150.06 170.32 151.01 C 170.70 151.96 171.78 152.43 172.73 152.05 Z M 173.54 151.74 L 174.53 151.43 C 175.51 151.12 176.06 150.08 175.76 149.09 C 175.45 148.11 174.40 147.56 173.42 147.86 L 172.43 148.17 C 171.44 148.48 170.89 149.53 171.20 150.51 C 171.51 151.49 172.56 152.04 173.54 151.74 Z M 174.34 151.49 L 175.38 151.28 C 176.39 151.08 177.06 150.09 176.85 149.07 C 176.65 148.05 175.66 147.39 174.64 147.60 L 173.61 147.80 C 172.59 148.00 171.93 148.99 172.13 150.01 C 172.33 151.03 173.32 151.69 174.34 151.49 Z M 175.07 151.33 L 176.06 151.30 C 177.11 151.27 177.93 150.39 177.89 149.35 C 177.86 148.30 176.98 147.48 175.94 147.51 L 174.95 147.55 C 173.90 147.58 173.08 148.46 173.12 149.50 C 173.15 150.55 174.03 151.37 175.07 151.33 Z M 175.58 151.27 L 176.47 151.47 C 177.50 151.70 178.52 151.06 178.75 150.03 C 178.99 149.00 178.34 147.98 177.31 147.75 L 176.42 147.55 C 175.39 147.31 174.37 147.96 174.14 148.99 C 173.91 150.02 174.55 151.04 175.58 151.27 Z M 175.89 151.24 L 176.53 151.64 C 177.43 152.19 178.61 151.91 179.17 151.01 C 179.72 150.11 179.44 148.93 178.54 148.38 L 177.90 147.98 C 177.00 147.42 175.82 147.70 175.26 148.60 C 174.71 149.50 174.98 150.68 175.89 151.24 Z M 176.08 151.26 L 176.63 151.90 C 177.33 152.70 178.54 152.79 179.34 152.10 C 180.14 151.41 180.23 150.19 179.54 149.39 L 178.99 148.75 C 178.30 147.95 177.09 147.86 176.28 148.55 C 175.48 149.25 175.39 150.46 176.08 151.26 Z M 176.39 151.55 L 176.88 152.47 C 177.38 153.40 178.55 153.76 179.48 153.25 C 180.42 152.75 180.77 151.59 180.27 150.65 L 179.78 149.74 C 179.28 148.80 178.12 148.45 177.18 148.95 C 176.25 149.45 175.89 150.61 176.39 151.55 Z M 176.77 152.23 L 177.22 153.45 C 177.59 154.45 178.70 154.96 179.69 154.59 C 180.69 154.22 181.20 153.11 180.83 152.12 L 180.38 150.89 C 180.01 149.90 178.91 149.39 177.91 149.75 C 176.91 150.12 176.40 151.23 176.77 152.23 Z M 177.18 153.33 L 177.45 154.23 C 177.75 155.25 178.82 155.84 179.84 155.53 C 180.86 155.23 181.44 154.16 181.14 153.14 L 180.88 152.24 C 180.58 151.22 179.50 150.63 178.48 150.94 C 177.46 151.24 176.88 152.31 177.18 153.33 Z M 177.43 154.17 L 177.67 155.10 C 177.94 156.13 178.99 156.75 180.02 156.48 C 181.05 156.21 181.67 155.16 181.40 154.13 L 181.16 153.20 C 180.89 152.17 179.84 151.55 178.81 151.82 C 177.78 152.09 177.16 153.14 177.43 154.17 Z M 177.66 155.06 L 177.90 156.05 C 178.14 157.09 179.18 157.73 180.22 157.48 C 181.25 157.24 181.89 156.20 181.65 155.16 L 181.41 154.17 C 181.17 153.14 180.13 152.50 179.09 152.74 C 178.06 152.99 177.42 154.03 177.66 155.06 Z M 177.89 156.02 L 178.12 157.05 C 178.34 158.09 179.37 158.75 180.41 158.52 C 181.45 158.29 182.11 157.26 181.88 156.22 L 181.65 155.20 C 181.43 154.16 180.40 153.50 179.36 153.73 C 178.32 153.96 177.66 154.98 177.89 156.02 Z M 178.11 157.03 L 178.32 158.06 C 178.54 159.10 179.56 159.77 180.60 159.56 C 181.64 159.34 182.31 158.32 182.10 157.28 L 181.89 156.25 C 181.67 155.20 180.65 154.53 179.61 154.75 C 178.57 154.96 177.90 155.98 178.11 157.03 Z M 178.32 158.04 L 178.52 159.06 C 178.72 160.10 179.73 160.78 180.78 160.58 C 181.82 160.38 182.51 159.36 182.30 158.32 L 182.10 157.30 C 181.90 156.26 180.89 155.58 179.84 155.78 C 178.80 155.98 178.12 157.00 178.32 158.04 Z M 178.52 159.04 L 178.70 160.02 C 178.89 161.06 179.90 161.75 180.94 161.56 C 181.99 161.36 182.68 160.36 182.49 159.31 L 182.30 158.34 C 182.11 157.29 181.10 156.60 180.06 156.79 C 179.01 156.99 178.32 158.00 178.52 159.04 Z M 178.69 160.00 L 178.88 161.04 C 179.07 162.09 180.07 162.79 181.11 162.60 C 182.16 162.41 182.86 161.41 182.67 160.37 L 182.49 159.33 C 182.30 158.28 181.30 157.58 180.25 157.77 C 179.21 157.95 178.51 158.95 178.69 160.00 Z M 178.88 161.02 L 179.05 162.03 C 179.22 163.08 180.22 163.79 181.26 163.61 C 182.31 163.43 183.02 162.44 182.84 161.39 L 182.67 160.38 C 182.50 159.34 181.51 158.63 180.46 158.80 C 179.41 158.98 178.70 159.97 178.88 161.02 Z M 179.05 162.01 L 179.20 162.97 C 179.36 164.01 180.35 164.73 181.39 164.57 C 182.44 164.40 183.16 163.42 183.00 162.37 L 182.84 161.41 C 182.68 160.36 181.70 159.65 180.65 159.81 C 179.60 159.98 178.88 160.96 179.05 162.01 Z M 179.20 162.95 L 179.33 163.88 C 179.49 164.93 180.46 165.66 181.51 165.50 C 182.56 165.35 183.29 164.38 183.13 163.33 L 183.00 162.39 C 182.84 161.34 181.87 160.61 180.82 160.77 C 179.77 160.92 179.04 161.90 179.20 162.95 Z M 179.33 163.87 L 179.46 164.82 C 179.61 165.87 180.58 166.60 181.63 166.46 C 182.67 166.32 183.41 165.35 183.27 164.30 L 183.13 163.34 C 182.99 162.29 182.02 161.56 180.97 161.70 C 179.92 161.85 179.19 162.82 179.33 163.87 Z M 179.46 164.81 L 179.60 165.81 C 179.73 166.86 180.69 167.60 181.74 167.47 C 182.79 167.33 183.53 166.37 183.40 165.32 L 183.26 164.31 C 183.13 163.26 182.17 162.52 181.12 162.66 C 180.07 162.80 179.33 163.76 179.46 164.81 Z M 179.60 165.80 L 179.71 166.75 C 179.85 167.80 180.80 168.55 181.85 168.41 C 182.90 168.28 183.65 167.33 183.51 166.28 L 183.39 165.33 C 183.26 164.28 182.31 163.53 181.26 163.67 C 180.21 163.80 179.46 164.75 179.60 165.80 Z M 179.71 166.75 L 179.83 167.71 C 179.96 168.76 180.91 169.51 181.96 169.38 C 183.01 169.25 183.76 168.30 183.63 167.25 L 183.51 166.28 C 183.39 165.23 182.43 164.49 181.38 164.62 C 180.33 164.74 179.59 165.70 179.71 166.75 Z M 179.83 167.71 L 179.95 168.71 C 180.08 169.76 181.03 170.51 182.08 170.39 C 183.13 170.26 183.88 169.31 183.75 168.26 L 183.63 167.26 C 183.51 166.21 182.56 165.46 181.51 165.58 C 180.46 165.71 179.71 166.66 179.83 167.71 Z M 179.95 168.71 L 180.07 169.73 C 180.19 170.78 181.14 171.53 182.19 171.41 C 183.24 171.29 183.99 170.34 183.87 169.29 L 183.75 168.27 C 183.63 167.22 182.68 166.47 181.63 166.59 C 180.58 166.71 179.83 167.66 179.95 168.71 Z M 180.07 169.72 L 180.19 170.75 C 180.30 171.80 181.25 172.56 182.30 172.44 C 183.35 172.32 184.10 171.38 183.98 170.33 L 183.87 169.30 C 183.75 168.25 182.81 167.50 181.76 167.61 C 180.71 167.73 179.95 168.68 180.07 169.72 Z M 180.19 170.75 L 180.30 171.76 C 180.41 172.81 181.35 173.57 182.40 173.45 C 183.45 173.34 184.21 172.40 184.09 171.35 L 183.98 170.34 C 183.87 169.29 182.93 168.53 181.88 168.64 C 180.83 168.76 180.07 169.70 180.19 170.75 Z M 180.30 171.75 L 180.40 172.74 C 180.51 173.79 181.44 174.55 182.49 174.44 C 183.54 174.33 184.30 173.39 184.19 172.35 L 184.09 171.36 C 183.98 170.31 183.05 169.55 182.00 169.66 C 180.95 169.77 180.19 170.70 180.30 171.75 Z M 180.40 172.73 L 180.50 173.82 C 180.61 174.87 181.54 175.64 182.59 175.54 C 183.63 175.44 184.40 174.50 184.30 173.46 L 184.19 172.36 C 184.09 171.31 183.16 170.54 182.11 170.64 C 181.06 170.75 180.30 171.68 180.40 172.73 Z M 180.50 173.81 L 180.60 174.89 C 180.69 175.94 181.62 176.71 182.67 176.62 C 183.72 176.53 184.49 175.60 184.40 174.55 L 184.30 173.47 C 184.21 172.42 183.28 171.65 182.23 171.74 C 181.19 171.84 180.41 172.76 180.50 173.81 Z M 180.60 174.87 L 180.68 175.89 C 180.76 176.94 181.68 177.72 182.73 177.64 C 183.78 177.56 184.56 176.64 184.48 175.59 L 184.40 174.57 C 184.31 173.52 183.40 172.74 182.35 172.82 C 181.30 172.91 180.52 173.82 180.60 174.87 Z M 180.68 175.87 L 180.75 176.84 C 180.82 177.89 181.73 178.68 182.78 178.60 C 183.83 178.53 184.62 177.62 184.55 176.57 L 184.48 175.61 C 184.41 174.56 183.50 173.77 182.45 173.84 C 181.40 173.91 180.61 174.82 180.68 175.87 Z M 180.75 176.82 L 180.80 177.74 C 180.86 178.79 181.76 179.59 182.81 179.53 C 183.86 179.46 184.66 178.57 184.60 177.52 L 184.55 176.60 C 184.48 175.55 183.59 174.75 182.54 174.81 C 181.49 174.87 180.69 175.77 180.75 176.82 Z M 180.80 177.71 L 180.84 178.61 C 180.89 179.65 181.78 180.47 182.83 180.42 C 183.88 180.37 184.69 179.48 184.64 178.43 L 184.60 177.54 C 184.55 176.49 183.66 175.68 182.61 175.73 C 181.56 175.78 180.75 176.66 180.80 177.71 Z M 180.84 178.58 L 180.87 179.65 C 180.91 180.70 181.79 181.52 182.83 181.49 C 183.88 181.45 184.71 180.58 184.67 179.53 L 184.64 178.46 C 184.61 177.41 183.73 176.59 182.68 176.62 C 181.63 176.65 180.81 177.53 180.84 178.58 Z M 180.87 179.62 L 180.89 180.65 C 180.91 181.70 181.77 182.53 182.82 182.52 C 183.87 182.50 184.71 181.63 184.69 180.58 L 184.68 179.55 C 184.66 178.50 183.79 177.67 182.74 177.69 C 181.69 177.70 180.85 178.57 180.87 179.62 Z M 180.89 180.62 L 180.89 181.61 C 180.90 182.66 181.75 183.51 182.80 183.50 C 183.85 183.50 184.70 182.64 184.70 181.59 L 184.69 180.61 C 184.69 179.56 183.83 178.71 182.78 178.71 C 181.73 178.72 180.89 179.57 180.89 180.62 Z M 180.89 181.59 L 180.89 182.54 C 180.88 183.59 181.73 184.45 182.78 184.46 C 183.83 184.46 184.69 183.62 184.69 182.57 L 184.70 181.61 C 184.71 180.56 183.86 179.71 182.81 179.70 C 181.76 179.69 180.90 180.54 180.89 181.59 Z M 180.89 182.52 L 180.87 183.49 C 180.85 184.54 181.69 185.41 182.74 185.42 C 183.79 185.44 184.66 184.60 184.68 183.55 L 184.69 182.58 C 184.71 181.53 183.87 180.67 182.82 180.65 C 181.77 180.63 180.90 181.47 180.89 182.52 Z M 180.87 183.45 L 180.83 184.44 C 180.79 185.49 181.61 186.37 182.66 186.41 C 183.71 186.45 184.60 185.63 184.64 184.58 L 184.68 183.59 C 184.72 182.54 183.90 181.65 182.85 181.61 C 181.79 181.57 180.91 182.39 180.87 183.45 Z M 180.83 184.34 L 180.75 185.32 C 180.66 186.37 181.43 187.30 182.48 187.39 C 183.53 187.48 184.46 186.70 184.55 185.65 L 184.64 184.67 C 184.73 183.62 183.95 182.70 182.90 182.61 C 181.85 182.51 180.93 183.29 180.83 184.34 Z M 180.76 185.18 L 180.60 186.17 C 180.43 187.21 181.14 188.19 182.18 188.36 C 183.23 188.53 184.21 187.82 184.38 186.78 L 184.54 185.79 C 184.71 184.75 184.00 183.77 182.96 183.60 C 181.91 183.43 180.93 184.14 180.76 185.18 Z M 180.63 186.00 L 180.38 186.99 C 180.12 188.01 180.74 189.05 181.76 189.32 C 182.79 189.58 183.83 188.96 184.09 187.94 L 184.35 186.95 C 184.61 185.92 183.99 184.88 182.97 184.62 C 181.94 184.35 180.90 184.97 180.63 186.00 Z M 180.43 186.83 L 180.09 187.79 C 179.74 188.79 180.26 189.89 181.27 190.24 C 182.27 190.59 183.36 190.06 183.71 189.06 L 184.05 188.09 C 184.40 187.09 183.87 186.00 182.87 185.65 C 181.87 185.30 180.78 185.83 180.43 186.83 Z M 180.13 187.66 L 179.72 188.61 C 179.30 189.59 179.75 190.72 180.72 191.14 C 181.70 191.56 182.83 191.11 183.25 190.14 L 183.66 189.19 C 184.09 188.22 183.64 187.08 182.66 186.66 C 181.69 186.24 180.56 186.69 180.13 187.66 Z M 179.78 188.49 L 179.32 189.38 C 178.83 190.33 179.20 191.49 180.14 191.98 C 181.09 192.47 182.25 192.10 182.74 191.15 L 183.20 190.26 C 183.69 189.31 183.32 188.15 182.37 187.66 C 181.43 187.18 180.27 187.55 179.78 188.49 Z M 179.38 189.26 L 178.89 190.06 C 178.33 190.97 178.62 192.16 179.53 192.71 C 180.44 193.27 181.62 192.99 182.18 192.08 L 182.67 191.28 C 183.23 190.37 182.94 189.18 182.03 188.62 C 181.13 188.07 179.94 188.35 179.38 189.26 Z M 179.00 189.90 L 178.34 190.76 C 177.70 191.61 177.86 192.82 178.71 193.47 C 179.56 194.12 180.77 193.95 181.42 193.10 L 182.07 192.24 C 182.72 191.39 182.55 190.18 181.71 189.53 C 180.86 188.89 179.64 189.05 179.00 189.90 Z M 178.50 190.57 L 177.81 191.27 C 177.06 192.03 177.07 193.25 177.83 194.00 C 178.59 194.76 179.81 194.75 180.56 193.99 L 181.25 193.29 C 182.00 192.53 182.00 191.31 181.24 190.56 C 180.48 189.81 179.26 189.81 178.50 190.57 Z M 177.99 191.11 L 177.25 191.70 C 176.41 192.36 176.26 193.58 176.93 194.41 C 177.59 195.25 178.80 195.40 179.64 194.73 L 180.39 194.15 C 181.23 193.49 181.37 192.27 180.71 191.43 C 180.05 190.59 178.83 190.45 177.99 191.11 Z M 177.39 191.59 L 176.60 192.11 C 175.70 192.69 175.44 193.89 176.02 194.78 C 176.60 195.68 177.80 195.94 178.70 195.36 L 179.50 194.84 C 180.39 194.26 180.65 193.06 180.07 192.16 C 179.49 191.27 178.29 191.01 177.39 191.59 Z M 176.72 192.03 L 175.86 192.50 C 174.92 193.01 174.58 194.19 175.09 195.13 C 175.60 196.07 176.77 196.41 177.71 195.90 L 178.57 195.43 C 179.51 194.92 179.86 193.75 179.35 192.81 C 178.84 191.87 177.66 191.52 176.72 192.03 Z M 175.99 192.43 L 175.07 192.85 C 174.09 193.29 173.66 194.43 174.09 195.41 C 174.53 196.38 175.68 196.82 176.65 196.38 L 177.58 195.97 C 178.56 195.53 178.99 194.38 178.55 193.41 C 178.12 192.43 176.97 192.00 175.99 192.43 Z M 175.21 192.79 L 174.24 193.14 C 173.23 193.50 172.71 194.60 173.07 195.61 C 173.42 196.62 174.53 197.15 175.54 196.79 L 176.51 196.44 C 177.52 196.08 178.04 194.97 177.69 193.97 C 177.33 192.96 176.22 192.43 175.21 192.79 Z M 174.38 193.09 L 173.46 193.34 C 172.43 193.63 171.82 194.69 172.11 195.72 C 172.39 196.76 173.45 197.36 174.49 197.08 L 175.40 196.83 C 176.43 196.55 177.04 195.48 176.76 194.45 C 176.48 193.42 175.41 192.81 174.38 193.09 Z M 173.57 193.32 L 172.61 193.52 C 171.56 193.74 170.90 194.77 171.12 195.82 C 171.34 196.86 172.37 197.53 173.41 197.31 L 174.37 197.11 C 175.42 196.89 176.09 195.86 175.87 194.81 C 175.65 193.76 174.62 193.10 173.57 193.32 Z M 172.70 193.50 L 171.69 193.67 C 170.63 193.85 169.92 194.84 170.09 195.90 C 170.27 196.95 171.26 197.67 172.32 197.49 L 173.33 197.33 C 174.38 197.15 175.10 196.16 174.92 195.10 C 174.75 194.04 173.75 193.33 172.70 193.50 Z M 171.75 193.66 L 170.72 193.80 C 169.66 193.94 168.91 194.92 169.05 195.98 C 169.20 197.04 170.17 197.78 171.23 197.64 L 172.26 197.50 C 173.32 197.36 174.07 196.39 173.93 195.33 C 173.78 194.27 172.81 193.52 171.75 193.66 Z M 170.76 193.79 L 169.83 193.90 C 168.77 194.02 168.00 194.98 168.12 196.04 C 168.24 197.11 169.20 197.87 170.27 197.75 L 171.19 197.65 C 172.26 197.53 173.02 196.57 172.90 195.50 C 172.78 194.44 171.82 193.67 170.76 193.79 Z M 169.86 193.90 L 168.90 193.99 C 167.83 194.09 167.05 195.04 167.15 196.10 C 167.26 197.17 168.20 197.95 169.27 197.85 L 170.23 197.75 C 171.30 197.65 172.08 196.70 171.98 195.64 C 171.88 194.57 170.93 193.79 169.86 193.90 Z M 168.93 193.99 L 167.92 194.07 C 166.85 194.15 166.06 195.09 166.14 196.15 C 166.23 197.22 167.16 198.02 168.23 197.93 L 169.24 197.85 C 170.30 197.76 171.10 196.83 171.01 195.76 C 170.93 194.70 169.99 193.90 168.93 193.99 Z M 167.95 194.07 L 166.90 194.13 C 165.83 194.20 165.02 195.13 165.09 196.19 C 165.16 197.26 166.08 198.07 167.15 198.00 L 168.20 197.93 C 169.27 197.86 170.08 196.94 170.01 195.87 C 169.94 194.80 169.02 194.00 167.95 194.07 Z M 166.92 194.13 L 165.90 194.19 C 164.84 194.24 164.01 195.15 164.07 196.22 C 164.13 197.29 165.04 198.11 166.11 198.05 L 167.12 198.00 C 168.19 197.94 169.01 197.03 168.96 195.97 C 168.90 194.90 167.99 194.08 166.92 194.13 Z M 165.92 194.19 L 164.96 194.23 C 163.89 194.27 163.06 195.17 163.11 196.24 C 163.15 197.31 164.05 198.14 165.12 198.09 L 166.08 198.05 C 167.15 198.01 167.98 197.11 167.94 196.04 C 167.89 194.97 166.99 194.14 165.92 194.19 Z M 164.98 194.23 L 163.98 194.26 C 162.92 194.30 162.08 195.19 162.12 196.26 C 162.15 197.32 163.04 198.16 164.11 198.12 L 165.10 198.09 C 166.17 198.06 167.00 197.16 166.97 196.10 C 166.93 195.03 166.04 194.19 164.98 194.23 Z M 164.00 194.26 L 162.99 194.29 C 161.92 194.32 161.08 195.20 161.11 196.27 C 161.13 197.33 162.02 198.17 163.08 198.15 L 164.10 198.12 C 165.16 198.09 166.00 197.21 165.98 196.14 C 165.95 195.08 165.06 194.24 164.00 194.26 Z M 163.00 194.29 L 161.98 194.31 C 160.91 194.33 160.06 195.21 160.09 196.28 C 160.11 197.34 160.99 198.19 162.05 198.16 L 163.07 198.15 C 164.14 198.12 164.98 197.25 164.96 196.18 C 164.94 195.12 164.06 194.27 163.00 194.29 Z M 161.99 194.31 L 160.95 194.33 C 159.89 194.34 159.04 195.22 159.06 196.28 C 159.07 197.34 159.95 198.19 161.01 198.18 L 162.04 198.16 C 163.10 198.15 163.95 197.27 163.94 196.21 C 163.92 195.15 163.05 194.30 161.99 194.31 Z M 160.96 194.33 L 159.97 194.34 C 158.91 194.35 158.05 195.22 158.06 196.28 C 158.07 197.34 158.94 198.19 160.00 198.18 L 161.00 198.17 C 162.06 198.16 162.91 197.29 162.90 196.23 C 162.89 195.17 162.02 194.32 160.96 194.33 Z M 159.98 194.35 L 158.98 194.35 C 157.92 194.36 157.07 195.22 157.08 196.27 C 157.08 197.33 157.94 198.18 158.99 198.18 L 159.99 198.17 C 161.05 198.17 161.90 197.31 161.90 196.26 C 161.89 195.20 161.03 194.35 159.98 194.35 Z M 159.00 194.36 L 158.00 194.36 C 156.95 194.35 156.09 195.20 156.09 196.25 C 156.08 197.30 156.93 198.16 157.98 198.16 L 158.98 198.17 C 160.03 198.17 160.89 197.33 160.89 196.27 C 160.90 195.22 160.05 194.37 159.00 194.36 Z M 158.02 194.36 L 157.02 194.35 C 155.97 194.33 155.11 195.17 155.09 196.22 C 155.08 197.26 155.91 198.13 156.96 198.14 L 157.96 198.16 C 159.01 198.17 159.87 197.34 159.88 196.29 C 159.90 195.24 159.06 194.38 158.02 194.36 Z M 157.04 194.36 L 156.04 194.33 C 155.00 194.30 154.13 195.12 154.10 196.17 C 154.07 197.21 154.89 198.08 155.93 198.11 L 156.94 198.13 C 157.98 198.16 158.85 197.34 158.88 196.30 C 158.90 195.25 158.08 194.39 157.04 194.36 Z M 156.06 194.34 L 155.04 194.30 C 154.01 194.25 153.13 195.06 153.09 196.10 C 153.04 197.13 153.85 198.01 154.89 198.05 L 155.91 198.10 C 156.94 198.14 157.82 197.33 157.86 196.30 C 157.91 195.26 157.10 194.38 156.06 194.34 Z M 155.07 194.31 L 154.00 194.25 C 152.97 194.19 152.08 194.98 152.02 196.01 C 151.96 197.04 152.75 197.92 153.78 197.98 L 154.86 198.04 C 155.89 198.10 156.77 197.31 156.83 196.28 C 156.89 195.25 156.10 194.37 155.07 194.31 Z M 154.03 194.26 L 152.97 194.19 C 151.95 194.11 151.06 194.88 150.98 195.90 C 150.91 196.92 151.67 197.81 152.70 197.88 L 153.75 197.96 C 154.77 198.04 155.66 197.27 155.74 196.25 C 155.81 195.23 155.05 194.34 154.03 194.26 Z M 153.00 194.20 L 151.99 194.11 C 150.97 194.01 150.08 194.76 149.98 195.77 C 149.89 196.79 150.64 197.68 151.65 197.77 L 152.66 197.87 C 153.68 197.96 154.57 197.22 154.67 196.20 C 154.76 195.19 154.01 194.29 153.00 194.20 Z M 152.02 194.12 L 151.06 194.02 C 150.06 193.91 149.16 194.63 149.04 195.63 C 148.93 196.64 149.65 197.54 150.66 197.65 L 151.61 197.76 C 152.62 197.87 153.52 197.15 153.63 196.14 C 153.74 195.14 153.02 194.24 152.02 194.12 Z M 151.10 194.04 L 150.22 193.92 C 149.23 193.79 148.32 194.48 148.18 195.48 C 148.05 196.47 148.75 197.38 149.74 197.52 L 150.62 197.63 C 151.61 197.77 152.52 197.07 152.66 196.08 C 152.79 195.08 152.09 194.17 151.10 194.04 Z M 150.28 193.95 L 149.18 193.76 C 148.21 193.60 147.28 194.26 147.12 195.23 C 146.95 196.21 147.61 197.14 148.59 197.30 L 149.68 197.49 C 150.66 197.65 151.59 196.99 151.75 196.02 C 151.92 195.04 151.26 194.11 150.28 193.95 Z M 149.26 193.80 L 148.27 193.59 C 147.32 193.39 146.38 193.99 146.17 194.95 C 145.96 195.90 146.57 196.84 147.53 197.05 L 148.51 197.26 C 149.47 197.47 150.41 196.86 150.61 195.90 C 150.82 194.95 150.21 194.01 149.26 193.80 Z M 148.33 193.63 L 147.43 193.41 C 146.50 193.17 145.56 193.73 145.32 194.66 C 145.08 195.59 145.64 196.54 146.58 196.78 L 147.47 197.01 C 148.40 197.24 149.35 196.68 149.59 195.75 C 149.82 194.82 149.26 193.87 148.33 193.63 Z M 147.46 193.44 L 146.60 193.20 C 145.69 192.95 144.74 193.49 144.49 194.40 C 144.24 195.31 144.78 196.26 145.69 196.51 L 146.55 196.75 C 147.46 197.00 148.41 196.46 148.66 195.55 C 148.91 194.63 148.37 193.69 147.46 193.44 Z M 146.61 193.22 L 145.75 192.98 C 144.84 192.72 143.91 193.24 143.65 194.15 C 143.39 195.05 143.92 195.99 144.82 196.24 L 145.68 196.49 C 146.58 196.74 147.52 196.22 147.78 195.32 C 148.03 194.42 147.51 193.48 146.61 193.22 Z M 145.77 193.00 L 144.84 192.72 C 143.95 192.44 143.01 192.94 142.74 193.83 C 142.47 194.72 142.97 195.66 143.86 195.94 L 144.79 196.22 C 145.68 196.49 146.62 195.99 146.89 195.10 C 147.16 194.21 146.66 193.27 145.77 193.00 Z M 144.88 192.74 L 143.85 192.40 C 142.98 192.10 142.03 192.57 141.74 193.45 C 141.44 194.32 141.92 195.27 142.79 195.56 L 143.82 195.91 C 144.69 196.20 145.64 195.73 145.93 194.86 C 146.23 193.98 145.76 193.04 144.88 192.74 Z M 143.90 192.42 L 142.94 192.07 C 142.08 191.75 141.13 192.19 140.81 193.06 C 140.49 193.92 140.93 194.87 141.79 195.19 L 142.75 195.54 C 143.61 195.85 144.56 195.41 144.88 194.55 C 145.20 193.69 144.76 192.74 143.90 192.42 Z M 142.97 192.09 L 142.11 191.75 C 141.26 191.41 140.30 191.83 139.96 192.68 C 139.63 193.53 140.05 194.49 140.90 194.83 L 141.76 195.17 C 142.61 195.50 143.57 195.08 143.91 194.23 C 144.24 193.38 143.82 192.42 142.97 192.09 Z M 142.13 191.76 L 141.21 191.38 C 140.37 191.04 139.41 191.44 139.06 192.28 C 138.71 193.13 139.11 194.09 139.96 194.44 L 140.87 194.82 C 141.72 195.16 142.68 194.76 143.03 193.92 C 143.38 193.07 142.97 192.11 142.13 191.76 Z M 141.23 191.40 L 140.28 190.99 C 139.45 190.63 138.48 191.02 138.12 191.86 C 137.76 192.70 138.15 193.67 138.99 194.02 L 139.94 194.43 C 140.78 194.79 141.75 194.40 142.10 193.56 C 142.46 192.72 142.07 191.75 141.23 191.40 Z M 140.30 191.00 L 139.33 190.57 C 138.50 190.21 137.53 190.59 137.16 191.42 C 136.80 192.25 137.17 193.22 138.01 193.59 L 138.97 194.01 C 139.81 194.38 140.78 194.00 141.14 193.17 C 141.51 192.34 141.13 191.37 140.30 191.00 Z M 139.35 190.58 L 138.38 190.15 C 137.55 189.77 136.58 190.14 136.21 190.97 C 135.83 191.80 136.20 192.77 137.03 193.14 L 137.99 193.58 C 138.82 193.95 139.79 193.59 140.17 192.76 C 140.54 191.93 140.17 190.96 139.35 190.58 Z M 138.39 190.16 L 137.49 189.74 C 136.66 189.35 135.69 189.71 135.31 190.54 C 134.93 191.36 135.28 192.33 136.11 192.72 L 137.02 193.14 C 137.84 193.52 138.81 193.16 139.20 192.34 C 139.58 191.51 139.22 190.54 138.39 190.16 Z M 137.50 189.74 L 136.59 189.31 C 135.77 188.93 134.79 189.28 134.41 190.10 C 134.02 190.92 134.37 191.90 135.19 192.28 L 136.10 192.71 C 136.92 193.10 137.90 192.74 138.28 191.93 C 138.67 191.11 138.32 190.13 137.50 189.74 Z M 136.60 189.32 L 135.70 188.89 C 134.88 188.50 133.90 188.84 133.51 189.66 C 133.12 190.48 133.47 191.46 134.28 191.85 L 135.19 192.28 C 136.00 192.67 136.98 192.32 137.37 191.51 C 137.76 190.69 137.42 189.71 136.60 189.32 Z M 135.70 188.89 L 134.80 188.46 C 133.99 188.06 133.01 188.40 132.61 189.22 C 132.22 190.03 132.56 191.01 133.38 191.41 L 134.28 191.84 C 135.09 192.24 136.07 191.90 136.47 191.08 C 136.86 190.27 136.52 189.29 135.70 188.89 Z M 134.81 188.46 L 133.91 188.02 C 133.09 187.63 132.11 187.97 131.72 188.78 C 131.32 189.59 131.66 190.57 132.47 190.97 L 133.37 191.41 C 134.19 191.80 135.17 191.46 135.56 190.65 C 135.96 189.84 135.62 188.86 134.81 188.46 Z M 133.91 188.02 L 133.39 187.77 C 132.58 187.38 131.60 187.71 131.20 188.53 C 130.81 189.34 131.14 190.32 131.96 190.72 L 132.47 190.97 C 133.29 191.36 134.27 191.03 134.66 190.21 C 135.06 189.40 134.72 188.42 133.91 188.02 Z"
      fill="black"
      fill-rule="nonzero" /></svg>