<svg xmlns="http://www.w3.org/2000/svg" width="300" height="300" viewBox="0 0 300 300">
<path d="M 114.42 112.55 L 115.41 112.68 C 116.35 112.80 117.22 112.13 117.34 111.19 C 117.46 110.24 116.79 109.38 115.85 109.26 L 114.86 109.13 C 113.91 109.01 113.05 109.68 112.93 110.62 C 112.81 111.57 113.47 112.43 114.42 112.55 Z M 115.43 112.68 L 116.42 112.79 C 117.37 112.90 118.22 112.22 118.33 111.28 C 118.44 110.33 117.76 109.47 116.81 109.37 L 115.82 109.25 C 114.88 109.15 114.02 109.83 113.91 110.77 C 113.81 111.72 114.48 112.57 115.43 112.68 Z M 116.47 112.80 L 117.47 112.88 C 118.42 112.97 119.26 112.26 119.34 111.31 C 119.42 110.37 118.72 109.53 117.77 109.45 L 116.77 109.36 C 115.82 109.28 114.98 109.98 114.90 110.93 C 114.82 111.88 115.52 112.72 116.47 112.80 Z M 117.54 112.89 L 118.48 112.93 C 119.43 112.98 120.23 112.24 120.28 111.29 C 120.32 110.34 119.59 109.54 118.64 109.49 L 117.70 109.45 C 116.75 109.40 115.94 110.14 115.90 111.09 C 115.85 112.03 116.59 112.84 117.54 112.89 Z M 118.55 112.93 L 119.52 112.93 C 120.47 112.93 121.24 112.17 121.24 111.22 C 121.25 110.27 120.48 109.50 119.53 109.50 L 118.56 109.49 C 117.61 109.49 116.84 110.26 116.84 111.21 C 116.84 112.15 117.60 112.92 118.55 112.93 Z M 119.60 112.92 L 120.64 112.88 C 121.58 112.84 122.32 112.04 122.28 111.09 C 122.23 110.15 121.44 109.42 120.49 109.46 L 119.45 109.50 C 118.51 109.54 117.77 110.34 117.81 111.29 C 117.86 112.23 118.65 112.97 119.60 112.92 Z M 120.71 112.87 L 121.66 112.79 C 122.60 112.71 123.30 111.89 123.22 110.95 C 123.14 110.01 122.31 109.31 121.37 109.39 L 120.42 109.47 C 119.48 109.54 118.78 110.37 118.86 111.31 C 118.94 112.25 119.77 112.95 120.71 112.87 Z M 121.71 112.78 L 122.56 112.68 C 123.50 112.58 124.17 111.73 124.06 110.79 C 123.95 109.86 123.11 109.19 122.17 109.29 L 121.32 109.39 C 120.38 109.50 119.71 110.35 119.82 111.29 C 119.93 112.22 120.77 112.89 121.71 112.78 Z M 122.61 112.68 L 123.54 112.54 C 124.48 112.41 125.12 111.55 124.99 110.61 C 124.86 109.68 123.99 109.04 123.06 109.17 L 122.13 109.30 C 121.19 109.44 120.55 110.30 120.68 111.23 C 120.81 112.16 121.68 112.81 122.61 112.68 Z M 123.58 112.53 L 124.61 112.36 C 125.54 112.21 126.17 111.33 126.01 110.40 C 125.86 109.47 124.98 108.85 124.05 109.00 L 123.02 109.18 C 122.09 109.33 121.47 110.21 121.62 111.14 C 121.78 112.07 122.66 112.69 123.58 112.53 Z M 124.65 112.35 L 125.79 112.14 C 126.72 111.96 127.32 111.07 127.15 110.15 C 126.97 109.22 126.08 108.62 125.16 108.79 L 124.01 109.01 C 123.09 109.19 122.49 110.08 122.66 111.00 C 122.84 111.92 123.73 112.53 124.65 112.35 Z M 125.82 112.13 L 126.84 111.92 C 127.76 111.73 128.35 110.83 128.16 109.91 C 127.97 108.99 127.07 108.40 126.15 108.59 L 125.13 108.80 C 124.21 108.99 123.62 109.89 123.81 110.81 C 124.00 111.73 124.90 112.32 125.82 112.13 Z M 126.86 111.91 L 127.81 111.70 C 128.73 111.50 129.31 110.60 129.11 109.68 C 128.91 108.76 128.00 108.18 127.09 108.39 L 126.13 108.59 C 125.22 108.80 124.64 109.70 124.84 110.62 C 125.04 111.53 125.95 112.11 126.86 111.91 Z M 127.83 111.70 L 128.82 111.47 C 129.73 111.26 130.30 110.35 130.10 109.44 C 129.89 108.53 128.98 107.96 128.06 108.16 L 127.07 108.39 C 126.16 108.60 125.59 109.51 125.80 110.42 C 126.00 111.33 126.91 111.91 127.83 111.70 Z M 128.83 111.47 L 129.84 111.23 C 130.75 111.02 131.31 110.10 131.10 109.19 C 130.89 108.28 129.97 107.72 129.06 107.93 L 128.05 108.17 C 127.14 108.38 126.58 109.29 126.79 110.21 C 127.01 111.12 127.92 111.68 128.83 111.47 Z M 129.85 111.23 L 130.85 110.99 C 131.76 110.77 132.32 109.85 132.10 108.94 C 131.88 108.03 130.97 107.47 130.06 107.69 L 129.05 107.93 C 128.14 108.15 127.58 109.07 127.80 109.98 C 128.02 110.89 128.94 111.45 129.85 111.23 Z M 130.86 110.98 L 131.85 110.74 C 132.76 110.52 133.31 109.60 133.09 108.69 C 132.86 107.78 131.95 107.23 131.04 107.45 L 130.05 107.69 C 129.14 107.92 128.59 108.84 128.81 109.74 C 129.04 110.65 129.95 111.21 130.86 110.98 Z M 131.86 110.74 L 132.80 110.50 C 133.71 110.27 134.26 109.35 134.03 108.44 C 133.80 107.54 132.88 106.99 131.98 107.21 L 131.03 107.45 C 130.12 107.68 129.57 108.60 129.80 109.51 C 130.03 110.41 130.95 110.96 131.86 110.74 Z M 132.81 110.49 L 133.86 110.23 C 134.76 109.99 135.31 109.07 135.07 108.17 C 134.84 107.26 133.92 106.72 133.01 106.95 L 131.97 107.22 C 131.06 107.45 130.52 108.37 130.75 109.28 C 130.99 110.18 131.91 110.73 132.81 110.49 Z M 133.87 110.22 L 134.88 109.96 C 135.78 109.72 136.32 108.79 136.09 107.89 C 135.85 106.99 134.92 106.45 134.02 106.68 L 133.01 106.95 C 132.10 107.19 131.56 108.11 131.80 109.02 C 132.04 109.92 132.96 110.46 133.87 110.22 Z M 134.89 109.95 L 135.85 109.69 C 136.75 109.45 137.28 108.52 137.04 107.62 C 136.80 106.72 135.87 106.19 134.97 106.43 L 134.01 106.69 C 133.11 106.93 132.57 107.86 132.82 108.76 C 133.06 109.66 133.99 110.20 134.89 109.95 Z M 135.86 109.69 L 136.78 109.44 C 137.68 109.19 138.21 108.26 137.96 107.36 C 137.72 106.46 136.79 105.93 135.89 106.18 L 134.96 106.43 C 134.06 106.68 133.53 107.61 133.78 108.51 C 134.03 109.41 134.96 109.94 135.86 109.69 Z M 136.79 109.44 L 137.70 109.18 C 138.60 108.93 139.12 108.00 138.87 107.10 C 138.62 106.20 137.69 105.68 136.79 105.93 L 135.88 106.18 C 134.98 106.43 134.45 107.36 134.70 108.26 C 134.96 109.16 135.89 109.69 136.79 109.44 Z M 137.70 109.18 L 138.63 108.92 C 139.53 108.67 140.06 107.73 139.80 106.83 C 139.55 105.94 138.62 105.41 137.72 105.66 L 136.79 105.93 C 135.89 106.18 135.36 107.11 135.62 108.01 C 135.87 108.91 136.80 109.43 137.70 109.18 Z M 138.64 108.92 L 139.64 108.64 C 140.54 108.38 141.06 107.45 140.80 106.55 C 140.55 105.65 139.61 105.13 138.72 105.38 L 137.72 105.66 C 136.82 105.92 136.29 106.85 136.55 107.75 C 136.80 108.65 137.74 109.17 138.64 108.92 Z M 139.63 108.64 L 140.64 108.36 C 141.54 108.11 142.07 107.17 141.81 106.27 C 141.56 105.37 140.62 104.84 139.72 105.09 L 138.72 105.38 C 137.81 105.63 137.29 106.57 137.54 107.47 C 137.80 108.37 138.73 108.90 139.63 108.64 Z M 140.63 108.37 L 141.62 108.09 C 142.52 107.84 143.06 106.90 142.80 106.00 C 142.55 105.09 141.61 104.56 140.71 104.81 L 139.72 105.09 C 138.82 105.34 138.29 106.28 138.54 107.18 C 138.79 108.09 139.73 108.62 140.63 108.37 Z M 141.61 108.10 L 142.56 107.84 C 143.47 107.60 144.00 106.66 143.76 105.75 C 143.51 104.84 142.57 104.30 141.66 104.55 L 140.72 104.81 C 139.81 105.05 139.27 105.99 139.52 106.90 C 139.76 107.81 140.70 108.35 141.61 108.10 Z M 142.54 107.85 L 143.43 107.62 C 144.34 107.38 144.89 106.45 144.65 105.53 C 144.41 104.62 143.48 104.07 142.57 104.31 L 141.68 104.54 C 140.76 104.78 140.22 105.72 140.46 106.63 C 140.69 107.54 141.63 108.09 142.54 107.85 Z M 143.38 107.65 L 144.68 107.36 C 145.61 107.14 146.19 106.21 145.98 105.28 C 145.77 104.35 144.84 103.77 143.90 103.98 L 142.61 104.28 C 141.68 104.49 141.10 105.42 141.31 106.35 C 141.52 107.28 142.45 107.87 143.38 107.65 Z M 144.44 107.43 L 145.44 107.34 C 146.41 107.26 147.13 106.41 147.05 105.43 C 146.97 104.46 146.11 103.74 145.14 103.82 L 144.14 103.91 C 143.17 103.99 142.45 104.85 142.53 105.82 C 142.61 106.79 143.47 107.51 144.44 107.43 Z M 144.55 107.23 L 145.14 107.49 C 146.05 107.90 147.11 107.49 147.52 106.58 C 147.93 105.67 147.52 104.61 146.61 104.20 L 146.03 103.94 C 145.12 103.53 144.05 103.94 143.64 104.85 C 143.24 105.75 143.64 106.82 144.55 107.23 Z M 144.07 106.18 L 144.19 106.79 C 144.37 107.78 145.33 108.44 146.32 108.25 C 147.32 108.07 147.97 107.11 147.79 106.12 L 147.68 105.51 C 147.49 104.52 146.54 103.86 145.54 104.04 C 144.55 104.23 143.89 105.19 144.07 106.18 Z M 144.19 106.03 L 143.98 106.92 C 143.74 107.91 144.36 108.90 145.35 109.14 C 146.35 109.37 147.34 108.76 147.58 107.77 L 147.79 106.88 C 148.02 105.88 147.41 104.89 146.41 104.65 C 145.42 104.42 144.42 105.03 144.19 106.03 Z M 144.05 106.64 L 143.61 107.73 C 143.22 108.68 143.68 109.77 144.64 110.15 C 145.59 110.54 146.68 110.08 147.07 109.13 L 147.51 108.04 C 147.89 107.09 147.43 106.00 146.48 105.61 C 145.52 105.23 144.44 105.69 144.05 106.64 Z M 143.65 107.60 L 143.13 108.68 C 142.67 109.61 143.06 110.73 143.99 111.19 C 144.93 111.64 146.05 111.25 146.50 110.32 L 147.03 109.25 C 147.48 108.32 147.09 107.19 146.16 106.74 C 145.23 106.28 144.10 106.67 143.65 107.60 Z M 143.15 108.62 L 142.69 109.49 C 142.20 110.41 142.55 111.55 143.47 112.04 C 144.39 112.53 145.53 112.18 146.02 111.26 L 146.48 110.38 C 146.97 109.46 146.62 108.32 145.70 107.83 C 144.78 107.35 143.64 107.70 143.15 108.62 Z M 142.70 109.46 L 142.21 110.34 C 141.70 111.25 142.03 112.40 142.94 112.91 C 143.85 113.41 145.00 113.09 145.51 112.18 L 146.00 111.29 C 146.51 110.38 146.18 109.23 145.27 108.73 C 144.36 108.22 143.21 108.54 142.70 109.46 Z M 142.23 110.31 L 141.72 111.19 C 141.19 112.09 141.50 113.25 142.40 113.77 C 143.31 114.29 144.46 113.99 144.99 113.08 L 145.50 112.20 C 146.02 111.30 145.71 110.14 144.81 109.62 C 143.91 109.10 142.75 109.40 142.23 110.31 Z M 141.73 111.16 L 141.21 112.02 C 140.67 112.92 140.97 114.08 141.86 114.62 C 142.76 115.16 143.92 114.87 144.46 113.97 L 144.98 113.11 C 145.51 112.21 145.22 111.05 144.32 110.51 C 143.43 109.97 142.26 110.26 141.73 111.16 Z M 141.22 112.01 L 140.70 112.86 C 140.15 113.76 140.43 114.92 141.32 115.47 C 142.22 116.02 143.38 115.73 143.93 114.84 L 144.45 113.99 C 145.00 113.09 144.72 111.93 143.83 111.38 C 142.93 110.83 141.77 111.11 141.22 112.01 Z M 140.70 112.85 L 140.17 113.70 C 139.62 114.59 139.89 115.76 140.78 116.32 C 141.67 116.87 142.84 116.60 143.39 115.71 L 143.92 114.85 C 144.48 113.96 144.20 112.79 143.31 112.24 C 142.42 111.69 141.25 111.96 140.70 112.85 Z M 140.17 113.70 L 139.65 114.53 C 139.09 115.42 139.36 116.59 140.25 117.15 C 141.13 117.71 142.31 117.44 142.86 116.55 L 143.39 115.72 C 143.95 114.83 143.68 113.66 142.79 113.10 C 141.90 112.54 140.73 112.81 140.17 113.70 Z M 139.65 114.53 L 139.12 115.37 C 138.56 116.26 138.83 117.43 139.72 117.99 C 140.60 118.54 141.78 118.28 142.33 117.39 L 142.86 116.56 C 143.42 115.67 143.15 114.50 142.27 113.94 C 141.38 113.38 140.21 113.65 139.65 114.53 Z M 139.12 115.37 L 138.59 116.22 C 138.03 117.11 138.30 118.28 139.19 118.84 C 140.08 119.39 141.25 119.13 141.80 118.24 L 142.34 117.39 C 142.89 116.50 142.63 115.33 141.74 114.77 C 140.85 114.22 139.68 114.48 139.12 115.37 Z M 138.58 116.23 L 138.07 117.05 C 137.52 117.94 137.79 119.11 138.68 119.66 C 139.57 120.22 140.74 119.94 141.30 119.05 L 141.81 118.23 C 142.36 117.34 142.09 116.17 141.20 115.62 C 140.31 115.06 139.14 115.34 138.58 116.23 Z M 138.07 117.05 L 137.56 117.88 C 137.01 118.78 137.28 119.95 138.18 120.50 C 139.07 121.05 140.24 120.77 140.79 119.88 L 141.30 119.05 C 141.85 118.16 141.57 116.99 140.68 116.44 C 139.79 115.89 138.62 116.16 138.07 117.05 Z M 137.56 117.88 L 137.03 118.73 C 136.48 119.62 136.76 120.79 137.65 121.34 C 138.54 121.89 139.71 121.62 140.26 120.73 L 140.79 119.88 C 141.34 118.99 141.06 117.82 140.17 117.27 C 139.28 116.72 138.11 116.99 137.56 117.88 Z M 137.04 118.73 L 136.50 119.59 C 135.95 120.48 136.22 121.65 137.11 122.20 C 138.00 122.76 139.17 122.48 139.72 121.60 L 140.26 120.73 C 140.81 119.84 140.54 118.67 139.65 118.12 C 138.76 117.56 137.59 117.84 137.04 118.73 Z M 136.51 119.58 L 135.96 120.45 C 135.40 121.34 135.66 122.51 136.55 123.07 C 137.43 123.63 138.60 123.36 139.16 122.48 L 139.71 121.61 C 140.27 120.72 140.01 119.55 139.12 118.99 C 138.24 118.43 137.07 118.69 136.51 119.58 Z M 135.96 120.44 L 135.43 121.27 C 134.86 122.15 135.11 123.33 135.99 123.90 C 136.88 124.46 138.05 124.21 138.62 123.33 L 139.15 122.49 C 139.72 121.61 139.47 120.44 138.59 119.87 C 137.71 119.30 136.53 119.56 135.96 120.44 Z M 135.44 121.26 L 134.90 122.08 C 134.32 122.95 134.57 124.13 135.44 124.70 C 136.32 125.28 137.49 125.04 138.07 124.16 L 138.61 123.34 C 139.18 122.47 138.94 121.29 138.06 120.72 C 137.19 120.14 136.01 120.38 135.44 121.26 Z M 134.91 122.07 L 134.36 122.89 C 133.78 123.76 134.01 124.94 134.88 125.52 C 135.75 126.10 136.93 125.87 137.51 125.00 L 138.06 124.17 C 138.64 123.30 138.41 122.12 137.54 121.54 C 136.67 120.96 135.49 121.20 134.91 122.07 Z M 134.37 122.88 L 133.80 123.71 C 133.21 124.58 133.44 125.76 134.31 126.34 C 135.17 126.93 136.35 126.71 136.94 125.84 L 137.50 125.01 C 138.09 124.14 137.86 122.96 137.00 122.38 C 136.13 121.79 134.95 122.02 134.37 122.88 Z M 133.81 123.70 L 133.23 124.54 C 132.64 125.40 132.86 126.58 133.72 127.17 C 134.58 127.77 135.76 127.55 136.35 126.69 L 136.93 125.85 C 137.52 124.99 137.30 123.81 136.44 123.22 C 135.58 122.62 134.40 122.84 133.81 123.70 Z M 133.24 124.53 L 132.65 125.38 C 132.05 126.24 132.26 127.42 133.12 128.02 C 133.97 128.61 135.15 128.40 135.75 127.55 L 136.34 126.70 C 136.94 125.84 136.73 124.66 135.87 124.06 C 135.02 123.47 133.84 123.68 133.24 124.53 Z M 132.65 125.38 L 132.05 126.24 C 131.45 127.09 131.65 128.27 132.50 128.87 C 133.36 129.47 134.53 129.27 135.14 128.42 L 135.74 127.55 C 136.34 126.70 136.14 125.52 135.29 124.92 C 134.43 124.32 133.26 124.52 132.65 125.38 Z M 132.05 126.23 L 131.45 127.09 C 130.84 127.93 131.04 129.11 131.89 129.72 C 132.74 130.32 133.92 130.12 134.52 129.27 L 135.13 128.42 C 135.73 127.57 135.53 126.39 134.69 125.79 C 133.84 125.18 132.66 125.38 132.05 126.23 Z M 131.45 127.08 L 130.86 127.91 C 130.25 128.76 130.45 129.94 131.29 130.54 C 132.14 131.15 133.32 130.95 133.92 130.11 L 134.52 129.28 C 135.12 128.43 134.93 127.25 134.08 126.65 C 133.23 126.04 132.06 126.24 131.45 127.08 Z M 130.86 127.91 L 130.29 128.70 C 129.68 129.55 129.88 130.73 130.72 131.33 C 131.57 131.94 132.74 131.75 133.35 130.90 L 133.92 130.11 C 134.53 129.26 134.33 128.09 133.49 127.48 C 132.64 126.87 131.47 127.07 130.86 127.91 Z M 130.29 128.70 L 129.76 129.45 C 129.15 130.29 129.35 131.47 130.19 132.07 C 131.03 132.68 132.21 132.49 132.81 131.64 L 133.35 130.90 C 133.95 130.06 133.76 128.88 132.92 128.28 C 132.08 127.67 130.90 127.86 130.29 128.70 Z M 129.76 129.45 L 129.11 130.35 C 128.51 131.20 128.70 132.37 129.54 132.97 C 130.38 133.58 131.56 133.39 132.16 132.55 L 132.81 131.64 C 133.42 130.80 133.22 129.63 132.38 129.02 C 131.54 128.42 130.37 128.61 129.76 129.45 Z M 129.12 130.36 L 128.51 131.20 C 127.90 132.04 128.09 133.21 128.93 133.82 C 129.77 134.42 130.94 134.23 131.55 133.39 L 132.16 132.54 C 132.76 131.70 132.57 130.53 131.73 129.93 C 130.89 129.33 129.72 129.52 129.12 130.36 Z M 128.52 131.20 L 127.97 131.96 C 127.36 132.79 127.55 133.96 128.38 134.57 C 129.22 135.17 130.38 134.99 130.99 134.15 L 131.54 133.39 C 132.14 132.56 131.96 131.39 131.12 130.78 C 130.29 130.18 129.12 130.37 128.52 131.20 Z M 127.98 131.95 L 127.45 132.66 C 126.84 133.49 127.02 134.66 127.85 135.26 C 128.68 135.87 129.84 135.70 130.45 134.87 L 130.97 134.16 C 131.58 133.33 131.41 132.17 130.58 131.56 C 129.75 130.95 128.59 131.12 127.98 131.95 Z M 127.47 132.65 L 126.86 133.46 C 126.24 134.28 126.41 135.45 127.22 136.06 C 128.04 136.68 129.21 136.51 129.82 135.70 L 130.44 134.88 C 131.05 134.06 130.89 132.90 130.07 132.28 C 129.25 131.67 128.09 131.83 127.47 132.65 Z M 126.87 133.46 L 126.27 134.25 C 125.65 135.06 125.80 136.22 126.61 136.84 C 127.43 137.46 128.59 137.31 129.21 136.49 L 129.81 135.70 C 130.43 134.89 130.28 133.73 129.46 133.11 C 128.65 132.49 127.49 132.64 126.87 133.46 Z M 126.27 134.25 L 125.67 135.04 C 125.05 135.85 125.21 137.01 126.02 137.63 C 126.83 138.24 127.99 138.09 128.61 137.27 L 129.21 136.49 C 129.83 135.68 129.67 134.52 128.86 133.90 C 128.05 133.28 126.89 133.44 126.27 134.25 Z M 125.67 135.05 L 125.07 135.85 C 124.46 136.66 124.62 137.81 125.43 138.43 C 126.25 139.04 127.40 138.87 128.01 138.06 L 128.61 137.26 C 129.22 136.45 129.06 135.29 128.25 134.68 C 127.43 134.07 126.28 134.23 125.67 135.05 Z M 125.07 135.85 L 124.47 136.66 C 123.86 137.47 124.03 138.62 124.84 139.23 C 125.65 139.83 126.81 139.67 127.41 138.85 L 128.01 138.05 C 128.62 137.24 128.45 136.09 127.64 135.48 C 126.83 134.87 125.68 135.04 125.07 135.85 Z M 124.48 136.66 L 123.88 137.46 C 123.27 138.27 123.43 139.41 124.24 140.02 C 125.05 140.63 126.20 140.46 126.81 139.65 L 127.40 138.85 C 128.01 138.05 127.85 136.90 127.04 136.29 C 126.23 135.68 125.08 135.85 124.48 136.66 Z M 123.89 137.45 L 123.28 138.25 C 122.67 139.05 122.83 140.19 123.63 140.80 C 124.43 141.41 125.58 141.26 126.19 140.46 L 126.79 139.66 C 127.40 138.86 127.25 137.71 126.44 137.10 C 125.64 136.49 124.50 136.65 123.89 137.45 Z M 123.29 138.25 L 122.69 139.04 C 122.08 139.84 122.23 140.98 123.02 141.59 C 123.82 142.20 124.96 142.05 125.57 141.25 L 126.18 140.46 C 126.79 139.66 126.64 138.52 125.84 137.91 C 125.04 137.30 123.90 137.45 123.29 138.25 Z M 122.69 139.05 L 122.08 139.84 C 121.48 140.64 121.63 141.77 122.42 142.38 C 123.22 142.98 124.35 142.83 124.96 142.04 L 125.57 141.24 C 126.17 140.45 126.02 139.31 125.23 138.71 C 124.43 138.10 123.30 138.25 122.69 139.05 Z M 122.08 139.86 L 121.49 140.65 C 120.89 141.44 121.05 142.57 121.84 143.17 C 122.64 143.77 123.77 143.61 124.36 142.81 L 124.96 142.02 C 125.56 141.23 125.40 140.10 124.60 139.50 C 123.81 138.90 122.68 139.06 122.08 139.86 Z M 121.48 140.66 L 120.89 141.46 C 120.30 142.26 120.47 143.38 121.26 143.97 C 122.06 144.56 123.18 144.40 123.77 143.60 L 124.37 142.80 C 124.96 142.00 124.79 140.88 123.99 140.29 C 123.20 139.70 122.07 139.87 121.48 140.66 Z M 120.89 141.48 L 120.29 142.30 C 119.71 143.09 119.89 144.21 120.69 144.79 C 121.49 145.37 122.60 145.20 123.18 144.40 L 123.78 143.58 C 124.36 142.79 124.18 141.67 123.38 141.09 C 122.59 140.51 121.47 140.68 120.89 141.48 Z M 120.29 142.31 L 119.72 143.11 C 119.15 143.91 119.33 145.02 120.13 145.59 C 120.93 146.16 122.04 145.98 122.61 145.18 L 123.18 144.38 C 123.76 143.58 123.57 142.47 122.77 141.90 C 121.98 141.33 120.87 141.51 120.29 142.31 Z M 119.72 143.12 L 119.15 143.92 C 118.59 144.72 118.78 145.82 119.57 146.39 C 120.37 146.96 121.48 146.77 122.04 145.97 L 122.61 145.17 C 123.18 144.37 122.99 143.27 122.19 142.70 C 121.39 142.13 120.29 142.32 119.72 143.12 Z M 119.16 143.92 L 118.57 144.75 C 118.01 145.54 118.20 146.64 118.99 147.21 C 119.78 147.77 120.88 147.59 121.45 146.79 L 122.04 145.97 C 122.60 145.17 122.41 144.07 121.62 143.51 C 120.83 142.94 119.73 143.13 119.16 143.92 Z M 118.59 144.74 L 117.99 145.58 C 117.42 146.36 117.60 147.46 118.39 148.03 C 119.18 148.60 120.27 148.42 120.84 147.63 L 121.44 146.80 C 122.00 146.01 121.83 144.91 121.04 144.34 C 120.25 143.78 119.15 143.96 118.59 144.74 Z M 118.00 145.58 L 117.41 146.39 C 116.84 147.17 117.01 148.27 117.80 148.83 C 118.58 149.40 119.67 149.23 120.24 148.44 L 120.83 147.63 C 121.40 146.85 121.22 145.75 120.44 145.19 C 119.66 144.62 118.56 144.79 118.00 145.58 Z M 117.41 146.40 L 116.82 147.23 C 116.26 148.01 116.43 149.10 117.22 149.66 C 118.00 150.22 119.09 150.04 119.65 149.26 L 120.24 148.43 C 120.80 147.65 120.62 146.56 119.84 146.00 C 119.06 145.44 117.97 145.62 117.41 146.40 Z M 116.81 147.25 L 116.24 148.06 C 115.69 148.85 115.89 149.93 116.67 150.48 C 117.46 151.03 118.54 150.83 119.09 150.05 L 119.65 149.23 C 120.20 148.45 120.01 147.37 119.22 146.82 C 118.44 146.27 117.36 146.46 116.81 147.25 Z M 116.22 148.10 L 115.66 148.96 C 115.13 149.75 115.34 150.82 116.14 151.35 C 116.94 151.88 118.01 151.66 118.54 150.87 L 119.10 150.01 C 119.63 149.21 119.42 148.14 118.62 147.61 C 117.82 147.09 116.75 147.30 116.22 148.10 Z M 115.64 148.99 L 115.10 149.84 C 114.60 150.65 114.84 151.71 115.64 152.22 C 116.45 152.73 117.51 152.48 118.02 151.68 L 118.55 150.83 C 119.06 150.02 118.82 148.96 118.01 148.45 C 117.21 147.95 116.14 148.19 115.64 148.99 Z M 115.09 149.87 L 114.59 150.70 C 114.09 151.51 114.35 152.57 115.16 153.06 C 115.97 153.56 117.03 153.30 117.52 152.49 L 118.03 151.65 C 118.52 150.84 118.26 149.79 117.45 149.29 C 116.64 148.80 115.59 149.06 115.09 149.87 Z M 114.59 150.71 L 114.11 151.50 C 113.63 152.31 113.89 153.36 114.70 153.85 C 115.51 154.34 116.57 154.07 117.05 153.26 L 117.52 152.48 C 118.01 151.66 117.75 150.61 116.94 150.13 C 116.12 149.64 115.07 149.90 114.59 150.71 Z M 114.11 151.51 L 113.65 152.30 C 113.17 153.11 113.44 154.16 114.25 154.64 C 115.07 155.12 116.11 154.85 116.59 154.03 L 117.05 153.25 C 117.53 152.44 117.26 151.39 116.45 150.91 C 115.64 150.43 114.59 150.70 114.11 151.51 Z M 113.64 152.33 L 113.14 153.20 C 112.68 154.02 112.97 155.06 113.79 155.52 C 114.60 155.98 115.64 155.70 116.11 154.88 L 116.60 154.01 C 117.07 153.19 116.78 152.15 115.96 151.68 C 115.14 151.22 114.10 151.51 113.64 152.33 Z M 113.13 153.23 L 112.58 154.25 C 112.14 155.07 112.45 156.10 113.27 156.55 C 114.10 156.99 115.13 156.68 115.58 155.86 L 116.12 154.84 C 116.57 154.02 116.26 152.99 115.43 152.54 C 114.61 152.10 113.58 152.41 113.13 153.23 Z M 112.57 154.27 L 112.16 155.07 C 111.73 155.90 112.06 156.93 112.89 157.36 C 113.72 157.79 114.75 157.46 115.18 156.63 L 115.59 155.83 C 116.02 155.00 115.69 153.97 114.86 153.54 C 114.02 153.11 113.00 153.44 112.57 154.27 Z M 112.15 155.09 L 111.72 155.97 C 111.30 156.80 111.64 157.82 112.48 158.24 C 113.32 158.65 114.33 158.31 114.75 157.47 L 115.18 156.60 C 115.60 155.77 115.26 154.75 114.42 154.33 C 113.59 153.92 112.57 154.26 112.15 155.09 Z M 111.71 155.99 L 111.27 156.91 C 110.86 157.75 111.22 158.76 112.06 159.17 C 112.90 159.57 113.91 159.22 114.32 158.37 L 114.76 157.45 C 115.16 156.61 114.81 155.60 113.97 155.20 C 113.13 154.79 112.12 155.15 111.71 155.99 Z M 111.26 156.93 L 110.82 157.89 C 110.43 158.73 110.80 159.74 111.64 160.13 C 112.49 160.52 113.49 160.15 113.88 159.30 L 114.32 158.35 C 114.72 157.50 114.35 156.50 113.50 156.11 C 112.65 155.72 111.65 156.09 111.26 156.93 Z M 110.81 157.91 L 110.38 158.88 C 110.01 159.73 110.39 160.72 111.25 161.10 C 112.10 161.48 113.09 161.09 113.47 160.24 L 113.89 159.28 C 114.27 158.42 113.89 157.43 113.03 157.05 C 112.18 156.68 111.19 157.06 110.81 157.91 Z M 110.37 158.91 L 109.96 159.90 C 109.60 160.76 110.01 161.75 110.86 162.10 C 111.72 162.46 112.71 162.06 113.06 161.20 L 113.48 160.21 C 113.84 159.35 113.43 158.36 112.58 158.00 C 111.72 157.65 110.73 158.05 110.37 158.91 Z M 109.95 159.95 L 109.57 160.93 C 109.23 161.79 109.66 162.76 110.53 163.10 C 111.39 163.43 112.36 163.00 112.70 162.14 L 113.08 161.16 C 113.41 160.29 112.98 159.32 112.12 158.99 C 111.25 158.65 110.28 159.08 109.95 159.95 Z M 109.55 160.98 L 109.22 161.94 C 108.91 162.81 109.37 163.76 110.25 164.07 C 111.12 164.37 112.07 163.91 112.38 163.04 L 112.71 162.08 C 113.02 161.21 112.56 160.26 111.68 159.95 C 110.81 159.65 109.86 160.11 109.55 160.98 Z M 109.20 162.01 L 108.92 162.93 C 108.66 163.81 109.16 164.74 110.04 165.01 C 110.92 165.28 111.85 164.78 112.12 163.89 L 112.40 162.97 C 112.66 162.09 112.16 161.16 111.28 160.89 C 110.40 160.62 109.47 161.12 109.20 162.01 Z M 108.90 163.02 L 108.69 163.90 C 108.47 164.80 109.02 165.70 109.91 165.92 C 110.80 166.13 111.70 165.59 111.92 164.69 L 112.14 163.81 C 112.35 162.91 111.81 162.01 110.91 161.80 C 110.02 161.58 109.12 162.13 108.90 163.02 Z M 108.66 164.05 L 108.47 165.35 C 108.33 166.25 108.95 167.10 109.86 167.24 C 110.76 167.38 111.61 166.75 111.75 165.85 L 111.94 164.55 C 112.08 163.64 111.46 162.80 110.55 162.66 C 109.65 162.52 108.80 163.14 108.66 164.05 Z M 108.45 165.61 L 108.46 166.67 C 108.47 167.58 109.22 168.31 110.13 168.30 C 111.04 168.30 111.77 167.55 111.77 166.64 L 111.76 165.58 C 111.75 164.67 111.00 163.94 110.09 163.95 C 109.18 163.95 108.45 164.70 108.45 165.61 Z M 108.63 167.36 L 108.88 167.89 C 109.27 168.71 110.25 169.06 111.07 168.67 C 111.89 168.28 112.24 167.30 111.85 166.48 L 111.60 165.95 C 111.21 165.13 110.23 164.78 109.41 165.17 C 108.59 165.56 108.24 166.54 108.63 167.36 Z M 110.83 168.76 L 111.38 168.60 C 112.25 168.34 112.75 167.43 112.50 166.56 C 112.24 165.70 111.33 165.20 110.46 165.45 L 109.91 165.61 C 109.04 165.87 108.54 166.78 108.80 167.65 C 109.05 168.52 109.96 169.02 110.83 168.76 Z M 112.05 168.21 L 112.82 167.48 C 113.47 166.85 113.50 165.82 112.87 165.16 C 112.25 164.51 111.21 164.49 110.56 165.11 L 109.79 165.84 C 109.14 166.47 109.11 167.50 109.74 168.16 C 110.36 168.81 111.40 168.83 112.05 168.21 Z M 112.92 167.37 L 113.62 166.58 C 114.21 165.89 114.14 164.86 113.46 164.26 C 112.78 163.67 111.75 163.74 111.15 164.42 L 110.45 165.22 C 109.86 165.90 109.93 166.93 110.61 167.53 C 111.29 168.12 112.32 168.05 112.92 167.37 Z"
      fill="black"
      fill-rule="nonzero" /><path d="M 138.00 135.65 L 138.26 136.47 C 138.55 137.41 139.55 137.93 140.49 137.64 C 141.43 137.35 141.96 136.35 141.66 135.41 L 141.41 134.59 C 141.11 133.65 140.11 133.12 139.17 133.42 C 138.23 133.71 137.71 134.71 138.00 135.65 Z M 138.25 136.42 L 138.51 137.32 C 138.77 138.26 139.76 138.81 140.70 138.54 C 141.64 138.27 142.19 137.29 141.92 136.35 L 141.67 135.45 C 141.40 134.51 140.42 133.96 139.48 134.23 C 138.53 134.50 137.99 135.48 138.25 136.42 Z M 138.50 137.24 L 138.74 138.28 C 138.97 139.23 139.92 139.82 140.87 139.59 C 141.82 139.36 142.41 138.41 142.18 137.46 L 141.93 136.42 C 141.71 135.47 140.75 134.89 139.80 135.11 C 138.86 135.34 138.27 136.29 138.50 137.24 Z M 138.73 138.21 L 138.94 139.28 C 139.13 140.24 140.05 140.86 141.01 140.67 C 141.96 140.49 142.58 139.57 142.40 138.61 L 142.19 137.54 C 142.01 136.58 141.08 135.96 140.13 136.14 C 139.17 136.33 138.55 137.25 138.73 138.21 Z M 138.93 139.23 L 139.08 140.16 C 139.24 141.12 140.14 141.77 141.11 141.62 C 142.07 141.46 142.72 140.55 142.56 139.59 L 142.41 138.66 C 142.25 137.70 141.35 137.05 140.39 137.21 C 139.43 137.36 138.77 138.27 138.93 139.23 Z M 139.07 140.13 L 139.21 141.13 C 139.35 142.09 140.25 142.76 141.22 142.62 C 142.19 142.49 142.86 141.59 142.72 140.62 L 142.57 139.62 C 142.43 138.65 141.54 137.98 140.57 138.12 C 139.60 138.26 138.93 139.16 139.07 140.13 Z M 139.20 141.10 L 139.34 142.13 C 139.46 143.11 140.35 143.80 141.33 143.67 C 142.30 143.54 142.99 142.65 142.86 141.68 L 142.73 140.64 C 142.60 139.67 141.71 138.98 140.74 139.11 C 139.76 139.24 139.08 140.13 139.20 141.10 Z M 139.33 142.11 L 139.45 143.15 C 139.56 144.13 140.45 144.83 141.43 144.72 C 142.41 144.60 143.11 143.71 142.99 142.74 L 142.87 141.70 C 142.76 140.72 141.87 140.02 140.89 140.13 C 139.91 140.25 139.21 141.13 139.33 142.11 Z M 139.44 143.13 L 139.55 144.14 C 139.65 145.12 140.53 145.84 141.52 145.73 C 142.50 145.63 143.21 144.75 143.11 143.76 L 143.00 142.75 C 142.90 141.77 142.02 141.06 141.03 141.16 C 140.05 141.27 139.33 142.15 139.44 143.13 Z M 139.54 144.12 L 139.64 145.21 C 139.73 146.20 140.61 146.92 141.60 146.83 C 142.59 146.74 143.31 145.86 143.22 144.87 L 143.12 143.78 C 143.02 142.80 142.15 142.07 141.16 142.16 C 140.17 142.26 139.45 143.13 139.54 144.12 Z M 139.64 145.19 L 139.73 146.23 C 139.81 147.21 140.68 147.95 141.66 147.87 C 142.65 147.79 143.39 146.92 143.31 145.93 L 143.22 144.89 C 143.14 143.90 142.27 143.17 141.28 143.25 C 140.29 143.33 139.56 144.20 139.64 145.19 Z M 139.72 146.21 L 139.80 147.19 C 139.87 148.18 140.74 148.92 141.73 148.85 C 142.71 148.77 143.46 147.91 143.38 146.92 L 143.31 145.94 C 143.23 144.95 142.37 144.21 141.38 144.29 C 140.39 144.36 139.65 145.22 139.72 146.21 Z M 139.80 147.19 L 139.87 148.13 C 139.94 149.12 140.80 149.86 141.79 149.79 C 142.78 149.72 143.52 148.86 143.45 147.87 L 143.38 146.93 C 143.31 145.94 142.45 145.19 141.46 145.27 C 140.47 145.34 139.73 146.20 139.80 147.19 Z M 139.87 148.13 L 139.93 149.04 C 140.01 150.03 140.87 150.77 141.86 150.69 C 142.85 150.62 143.59 149.76 143.52 148.77 L 143.45 147.86 C 143.38 146.87 142.51 146.13 141.52 146.21 C 140.53 146.28 139.79 147.14 139.87 148.13 Z M 139.94 149.05 L 140.00 149.87 C 140.08 150.86 140.95 151.60 141.94 151.52 C 142.93 151.44 143.66 150.57 143.58 149.59 L 143.52 148.76 C 143.44 147.77 142.57 147.03 141.58 147.11 C 140.59 147.19 139.86 148.06 139.94 149.05 Z M 140.00 149.88 L 140.08 150.75 C 140.16 151.74 141.03 152.47 142.01 152.39 C 143.00 152.31 143.74 151.44 143.65 150.45 L 143.58 149.58 C 143.50 148.59 142.63 147.86 141.64 147.94 C 140.66 148.02 139.92 148.89 140.00 149.88 Z M 140.08 150.75 L 140.16 151.71 C 140.24 152.69 141.11 153.43 142.09 153.34 C 143.08 153.26 143.81 152.40 143.73 151.41 L 143.65 150.45 C 143.57 149.47 142.70 148.73 141.72 148.81 C 140.73 148.90 140.00 149.76 140.08 150.75 Z M 140.16 151.70 L 140.25 152.78 C 140.32 153.77 141.19 154.50 142.17 154.42 C 143.16 154.35 143.90 153.48 143.82 152.50 L 143.73 151.41 C 143.65 150.43 142.79 149.69 141.80 149.77 C 140.81 149.85 140.08 150.71 140.16 151.70 Z M 140.25 152.78 L 140.34 154.02 C 140.42 155.01 141.28 155.75 142.26 155.67 C 143.25 155.60 143.99 154.74 143.91 153.75 L 143.82 152.50 C 143.74 151.52 142.88 150.78 141.89 150.85 C 140.91 150.93 140.17 151.79 140.25 152.78 Z M 140.34 154.02 L 140.41 154.96 C 140.48 155.95 141.34 156.69 142.33 156.62 C 143.31 156.54 144.05 155.69 143.98 154.70 L 143.91 153.76 C 143.84 152.77 142.98 152.03 142.00 152.10 C 141.01 152.18 140.27 153.03 140.34 154.02 Z M 140.42 154.96 L 140.48 155.93 C 140.55 156.91 141.41 157.65 142.39 157.59 C 143.37 157.52 144.11 156.66 144.05 155.68 L 143.98 154.71 C 143.91 153.72 143.05 152.98 142.07 153.05 C 141.09 153.12 140.35 153.97 140.42 154.96 Z M 140.49 155.93 L 140.56 156.95 C 140.63 157.93 141.48 158.67 142.46 158.60 C 143.44 158.53 144.18 157.68 144.11 156.70 L 144.04 155.68 C 143.97 154.70 143.12 153.96 142.14 154.03 C 141.16 154.09 140.42 154.95 140.49 155.93 Z M 140.56 156.94 L 140.63 157.99 C 140.70 158.97 141.55 159.71 142.53 159.65 C 143.51 159.58 144.25 158.73 144.18 157.75 L 144.11 156.70 C 144.04 155.72 143.20 154.98 142.21 155.05 C 141.23 155.12 140.49 155.96 140.56 156.94 Z M 140.63 157.99 L 140.70 159.04 C 140.77 160.02 141.62 160.76 142.59 160.70 C 143.57 160.63 144.31 159.79 144.25 158.81 L 144.18 157.75 C 144.11 156.78 143.27 156.03 142.29 156.10 C 141.31 156.16 140.57 157.01 140.63 157.99 Z M 140.71 159.04 L 140.78 160.08 C 140.84 161.06 141.68 161.80 142.66 161.74 C 143.64 161.67 144.38 160.83 144.31 159.85 L 144.25 158.81 C 144.18 157.83 143.34 157.09 142.36 157.16 C 141.38 157.22 140.64 158.06 140.71 159.04 Z M 140.78 160.08 L 140.84 161.09 C 140.91 162.06 141.75 162.80 142.72 162.74 C 143.70 162.68 144.44 161.83 144.38 160.86 L 144.31 159.85 C 144.25 158.88 143.41 158.14 142.43 158.20 C 141.45 158.26 140.72 159.11 140.78 160.08 Z M 140.85 161.09 L 140.91 162.04 C 140.97 163.01 141.81 163.75 142.78 163.69 C 143.76 163.63 144.50 162.79 144.43 161.81 L 144.37 160.86 C 144.31 159.89 143.47 159.15 142.50 159.21 C 141.52 159.27 140.78 160.11 140.85 161.09 Z M 140.91 162.04 L 140.99 163.20 C 141.05 164.17 141.88 164.91 142.85 164.84 C 143.82 164.78 144.56 163.95 144.50 162.98 L 144.43 161.82 C 144.36 160.85 143.53 160.11 142.56 160.17 C 141.59 160.23 140.85 161.07 140.91 162.04 Z M 141.00 163.20 L 141.07 164.34 C 141.13 165.30 141.96 166.03 142.92 165.97 C 143.88 165.92 144.61 165.09 144.55 164.13 L 144.48 162.98 C 144.43 162.02 143.60 161.29 142.64 161.35 C 141.67 161.41 140.94 162.23 141.00 163.20 Z M 141.09 164.34 L 141.15 165.36 C 141.21 166.31 142.03 167.03 142.98 166.98 C 143.93 166.92 144.66 166.10 144.60 165.15 L 144.54 164.13 C 144.48 163.18 143.66 162.45 142.71 162.51 C 141.76 162.57 141.03 163.39 141.09 164.34 Z M 141.17 165.35 L 141.22 166.28 C 141.28 167.22 142.09 167.94 143.03 167.88 C 143.97 167.83 144.69 167.02 144.64 166.07 L 144.58 165.15 C 144.53 164.21 143.72 163.49 142.77 163.54 C 141.83 163.60 141.11 164.41 141.17 165.35 Z M 141.24 166.27 L 141.29 167.13 C 141.34 168.06 142.14 168.78 143.08 168.72 C 144.01 168.67 144.72 167.87 144.67 166.93 L 144.62 166.08 C 144.57 165.14 143.76 164.43 142.83 164.48 C 141.90 164.54 141.18 165.34 141.24 166.27 Z M 141.31 167.13 L 141.36 167.98 C 141.41 168.91 142.20 169.61 143.13 169.56 C 144.05 169.51 144.76 168.71 144.70 167.79 L 144.65 166.93 C 144.60 166.01 143.81 165.30 142.88 165.36 C 141.96 165.41 141.25 166.21 141.31 167.13 Z M 141.37 167.98 L 141.42 168.96 C 141.48 169.88 142.27 170.58 143.18 170.53 C 144.10 170.47 144.80 169.69 144.75 168.77 L 144.69 167.79 C 144.64 166.87 143.85 166.17 142.93 166.22 C 142.01 166.28 141.31 167.06 141.37 167.98 Z M 141.43 168.95 L 141.48 169.94 C 141.53 170.85 142.32 171.55 143.23 171.50 C 144.15 171.45 144.85 170.67 144.80 169.75 L 144.74 168.77 C 144.69 167.86 143.91 167.16 143.00 167.21 C 142.08 167.26 141.38 168.04 141.43 168.95 Z M 141.49 169.92 L 141.54 170.92 C 141.58 171.83 142.36 172.53 143.27 172.49 C 144.18 172.45 144.88 171.67 144.84 170.76 L 144.79 169.77 C 144.75 168.85 143.97 168.15 143.06 168.20 C 142.15 168.24 141.45 169.01 141.49 169.92 Z M 141.55 170.90 L 141.58 171.93 C 141.62 172.83 142.38 173.54 143.29 173.51 C 144.20 173.47 144.91 172.71 144.87 171.80 L 144.83 170.78 C 144.80 169.87 144.03 169.16 143.13 169.20 C 142.22 169.23 141.51 170.00 141.55 170.90 Z M 141.59 171.91 L 141.62 172.90 C 141.64 173.80 142.39 174.51 143.30 174.49 C 144.20 174.47 144.92 173.71 144.89 172.81 L 144.87 171.82 C 144.84 170.91 144.09 170.20 143.18 170.22 C 142.28 170.25 141.57 171.00 141.59 171.91 Z M 141.62 172.88 L 141.63 173.85 C 141.65 174.76 142.39 175.48 143.30 175.46 C 144.20 175.45 144.92 174.70 144.91 173.80 L 144.89 172.83 C 144.88 171.92 144.13 171.20 143.23 171.22 C 142.32 171.23 141.60 171.98 141.62 172.88 Z M 141.63 173.84 L 141.64 174.84 C 141.65 175.74 142.39 176.47 143.29 176.46 C 144.20 176.45 144.92 175.71 144.92 174.81 L 144.91 173.81 C 144.90 172.91 144.16 172.18 143.25 172.19 C 142.35 172.20 141.62 172.94 141.63 173.84 Z M 141.64 174.83 L 141.65 175.85 C 141.65 176.75 142.39 177.48 143.29 177.48 C 144.19 177.47 144.92 176.74 144.92 175.83 L 144.92 174.82 C 144.91 173.91 144.18 173.18 143.27 173.19 C 142.37 173.19 141.64 173.93 141.64 174.83 Z M 141.65 175.84 L 141.65 176.87 C 141.65 177.77 142.38 178.50 143.29 178.50 C 144.19 178.50 144.92 177.77 144.92 176.86 L 144.92 175.84 C 144.92 174.93 144.19 174.20 143.28 174.20 C 142.38 174.20 141.65 174.94 141.65 175.84 Z M 141.65 176.87 L 141.65 177.44 C 141.65 178.34 142.38 179.07 143.28 179.07 C 144.19 179.07 144.92 178.34 144.92 177.44 L 144.92 176.87 C 144.92 175.96 144.19 175.23 143.28 175.23 C 142.38 175.23 141.65 175.96 141.65 176.87 Z"
      fill="black"
      fill-rule="nonzero" /><path d="M 144.71 139.96 L 145.65 140.36 C 146.57 140.74 147.63 140.30 148.01 139.39 C 148.39 138.47 147.96 137.41 147.04 137.03 L 146.10 136.64 C 145.18 136.26 144.13 136.69 143.74 137.61 C 143.36 138.53 143.80 139.58 144.71 139.96 Z M 145.62 140.36 L 146.55 140.76 C 147.47 141.16 148.54 140.74 148.94 139.81 C 149.34 138.89 148.92 137.82 147.99 137.42 L 147.07 137.02 C 146.14 136.63 145.07 137.05 144.68 137.97 C 144.28 138.89 144.70 139.96 145.62 140.36 Z M 146.50 140.76 L 147.40 141.18 C 148.32 141.61 149.41 141.21 149.84 140.29 C 150.27 139.37 149.87 138.28 148.95 137.85 L 148.05 137.43 C 147.13 137.00 146.04 137.40 145.61 138.32 C 145.18 139.24 145.58 140.33 146.50 140.76 Z M 147.33 141.16 L 148.19 141.61 C 149.10 142.08 150.22 141.72 150.69 140.81 C 151.16 139.91 150.80 138.79 149.90 138.32 L 149.03 137.87 C 148.12 137.40 147.00 137.75 146.53 138.66 C 146.06 139.57 146.42 140.69 147.33 141.16 Z M 148.10 141.57 L 148.94 142.06 C 149.82 142.58 150.96 142.29 151.49 141.40 C 152.01 140.51 151.71 139.37 150.83 138.85 L 149.99 138.36 C 149.10 137.84 147.96 138.13 147.44 139.02 C 146.92 139.90 147.21 141.05 148.10 141.57 Z M 148.86 142.01 L 149.68 142.55 C 150.54 143.11 151.69 142.87 152.26 142.01 C 152.82 141.14 152.58 139.99 151.71 139.43 L 150.90 138.90 C 150.04 138.33 148.88 138.58 148.32 139.44 C 147.76 140.30 148.00 141.45 148.86 142.01 Z M 149.63 142.52 L 150.45 143.09 C 151.30 143.67 152.46 143.46 153.05 142.62 C 153.63 141.77 153.42 140.61 152.58 140.03 L 151.76 139.46 C 150.91 138.87 149.75 139.08 149.17 139.93 C 148.58 140.77 148.79 141.93 149.63 142.52 Z M 150.44 143.08 L 151.29 143.68 C 152.13 144.27 153.30 144.07 153.89 143.24 C 154.48 142.40 154.28 141.23 153.44 140.64 L 152.59 140.04 C 151.75 139.44 150.59 139.64 150.00 140.48 C 149.40 141.32 149.60 142.48 150.44 143.08 Z M 151.30 143.68 L 152.08 144.22 C 152.92 144.81 154.08 144.61 154.66 143.77 C 155.25 142.92 155.05 141.76 154.21 141.18 L 153.43 140.64 C 152.59 140.05 151.43 140.25 150.85 141.09 C 150.26 141.94 150.46 143.09 151.30 143.68 Z M 152.09 144.22 L 152.89 144.77 C 153.73 145.35 154.88 145.14 155.46 144.30 C 156.04 143.45 155.83 142.30 154.98 141.72 L 154.19 141.17 C 153.35 140.60 152.20 140.81 151.62 141.65 C 151.04 142.49 151.25 143.65 152.09 144.22 Z M 152.90 144.77 L 153.73 145.33 C 154.58 145.91 155.72 145.68 156.29 144.84 C 156.86 144.00 156.64 142.85 155.80 142.28 L 154.97 141.72 C 154.13 141.15 152.98 141.37 152.41 142.21 C 151.84 143.06 152.06 144.20 152.90 144.77 Z M 153.75 145.34 L 154.61 145.91 C 155.45 146.47 156.59 146.24 157.16 145.40 C 157.72 144.56 157.49 143.42 156.65 142.86 L 155.78 142.28 C 154.94 141.72 153.80 141.95 153.24 142.79 C 152.68 143.63 152.91 144.77 153.75 145.34 Z M 154.63 145.91 L 155.52 146.49 C 156.36 147.05 157.49 146.81 158.04 145.97 C 158.60 145.13 158.36 143.99 157.52 143.44 L 156.63 142.86 C 155.79 142.30 154.66 142.54 154.10 143.38 C 153.55 144.22 153.78 145.36 154.63 145.91 Z M 155.53 146.49 L 156.34 147.01 C 157.18 147.56 158.31 147.32 158.85 146.48 C 159.40 145.64 159.15 144.51 158.31 143.97 L 157.50 143.44 C 156.66 142.90 155.54 143.14 154.99 143.98 C 154.45 144.82 154.69 145.95 155.53 146.49 Z M 156.36 147.01 L 157.18 147.54 C 158.02 148.07 159.14 147.83 159.67 146.99 C 160.21 146.15 159.96 145.04 159.12 144.50 L 158.30 143.97 C 157.46 143.44 156.35 143.68 155.81 144.52 C 155.27 145.36 155.52 146.47 156.36 147.01 Z M 157.20 147.53 L 158.04 148.06 C 158.88 148.59 159.98 148.34 160.51 147.51 C 161.04 146.67 160.79 145.57 159.95 145.04 L 159.11 144.51 C 158.28 143.98 157.17 144.23 156.64 145.06 C 156.12 145.90 156.36 147.00 157.20 147.53 Z M 158.06 148.06 L 158.91 148.59 C 159.74 149.11 160.84 148.86 161.36 148.03 C 161.88 147.20 161.63 146.11 160.80 145.59 L 159.94 145.05 C 159.11 144.53 158.01 144.78 157.49 145.61 C 156.97 146.44 157.23 147.54 158.06 148.06 Z M 158.93 148.59 L 159.80 149.13 C 160.63 149.64 161.71 149.39 162.22 148.56 C 162.74 147.74 162.48 146.65 161.66 146.14 L 160.78 145.60 C 159.96 145.08 158.87 145.34 158.36 146.16 C 157.85 146.99 158.10 148.07 158.93 148.59 Z M 159.81 149.12 L 160.67 149.65 C 161.49 150.16 162.57 149.90 163.08 149.08 C 163.58 148.26 163.33 147.18 162.51 146.68 L 161.64 146.15 C 160.82 145.64 159.75 145.90 159.24 146.72 C 158.74 147.54 158.99 148.61 159.81 149.12 Z M 160.68 149.64 L 161.54 150.16 C 162.35 150.66 163.42 150.41 163.92 149.59 C 164.42 148.78 164.16 147.71 163.35 147.21 L 162.49 146.69 C 161.68 146.19 160.61 146.44 160.11 147.26 C 159.61 148.07 159.87 149.14 160.68 149.64 Z M 161.55 150.15 L 162.40 150.67 C 163.21 151.17 164.27 150.91 164.76 150.10 C 165.26 149.30 165.00 148.24 164.19 147.75 L 163.34 147.22 C 162.53 146.73 161.47 146.98 160.98 147.79 C 160.48 148.60 160.74 149.66 161.55 150.15 Z M 162.41 150.66 L 163.27 151.19 C 164.07 151.68 165.12 151.42 165.61 150.62 C 166.10 149.82 165.84 148.77 165.04 148.28 L 164.18 147.76 C 163.38 147.27 162.34 147.52 161.85 148.32 C 161.36 149.12 161.61 150.17 162.41 150.66 Z M 163.28 151.17 L 164.13 151.70 C 164.93 152.18 165.96 151.93 166.45 151.14 C 166.94 150.34 166.69 149.31 165.89 148.82 L 165.04 148.30 C 164.24 147.81 163.20 148.06 162.72 148.85 C 162.23 149.65 162.48 150.69 163.28 151.17 Z M 164.14 151.68 L 164.99 152.20 C 165.77 152.68 166.80 152.44 167.28 151.65 C 167.77 150.87 167.52 149.84 166.73 149.35 L 165.89 148.83 C 165.10 148.35 164.07 148.60 163.59 149.38 C 163.10 150.17 163.35 151.20 164.14 151.68 Z M 164.99 152.19 L 165.88 152.74 C 166.66 153.22 167.68 152.98 168.16 152.20 C 168.64 151.42 168.40 150.40 167.62 149.92 L 166.73 149.37 C 165.95 148.88 164.93 149.13 164.45 149.91 C 163.97 150.69 164.21 151.71 164.99 152.19 Z M 165.87 152.73 L 166.75 153.28 C 167.53 153.77 168.55 153.53 169.03 152.76 C 169.52 151.99 169.28 150.97 168.51 150.48 L 167.63 149.93 C 166.85 149.44 165.83 149.68 165.35 150.45 C 164.86 151.22 165.10 152.24 165.87 152.73 Z M 166.74 153.27 L 167.60 153.82 C 168.36 154.31 169.39 154.09 169.88 153.32 C 170.37 152.55 170.15 151.53 169.38 151.04 L 168.52 150.49 C 167.75 150.00 166.73 150.22 166.24 150.99 C 165.75 151.76 165.97 152.78 166.74 153.27 Z M 167.58 153.80 L 168.40 154.35 C 169.16 154.85 170.18 154.64 170.68 153.88 C 171.18 153.12 170.98 152.10 170.22 151.60 L 169.40 151.06 C 168.64 150.56 167.62 150.76 167.12 151.52 C 166.61 152.28 166.82 153.30 167.58 153.80 Z M 168.38 154.33 L 169.16 154.87 C 169.91 155.38 170.93 155.19 171.44 154.45 C 171.96 153.70 171.77 152.68 171.02 152.16 L 170.24 151.62 C 169.50 151.11 168.47 151.30 167.96 152.04 C 167.44 152.79 167.63 153.81 168.38 154.33 Z M 169.13 154.84 L 169.93 155.42 C 170.66 155.96 171.69 155.80 172.22 155.06 C 172.75 154.33 172.59 153.31 171.86 152.78 L 171.06 152.19 C 170.33 151.66 169.30 151.82 168.77 152.55 C 168.24 153.28 168.40 154.30 169.13 154.84 Z M 169.89 155.39 L 170.71 156.03 C 171.42 156.58 172.45 156.46 173.01 155.74 C 173.56 155.03 173.43 154.00 172.72 153.44 L 171.90 152.81 C 171.19 152.25 170.16 152.38 169.60 153.09 C 169.05 153.81 169.18 154.84 169.89 155.39 Z M 170.67 156.00 L 171.44 156.63 C 172.14 157.21 173.17 157.11 173.75 156.41 C 174.32 155.71 174.22 154.68 173.52 154.11 L 172.75 153.47 C 172.06 152.90 171.02 153.00 170.45 153.70 C 169.88 154.40 169.98 155.43 170.67 156.00 Z M 171.42 156.61 L 172.16 157.24 C 172.84 157.83 173.88 157.75 174.47 157.06 C 175.05 156.38 174.97 155.34 174.29 154.76 L 173.55 154.13 C 172.86 153.54 171.83 153.62 171.24 154.31 C 170.65 154.99 170.73 156.03 171.42 156.61 Z M 172.15 157.23 L 172.84 157.84 C 173.52 158.44 174.56 158.37 175.15 157.69 C 175.75 157.00 175.68 155.97 175.00 155.38 L 174.30 154.77 C 173.62 154.17 172.58 154.24 171.99 154.92 C 171.39 155.61 171.46 156.64 172.15 157.23 Z"
      fill="black"
      fill-rule="nonzero" /></svg>