<svg xmlns="http://www.w3.org/2000/svg" width="300" height="300" viewBox="0 0 300 300">
<path d="M 133.95 152.06 L 133.01 152.51 C 132.11 152.93 131.73 154.00 132.15 154.90 C 132.58 155.80 133.65 156.18 134.55 155.76 L 135.48 155.32 C 136.38 154.89 136.77 153.82 136.34 152.92 C 135.92 152.02 134.84 151.64 133.95 152.06 Z M 132.89 152.55 L 132.01 153.05 C 131.14 153.54 130.83 154.65 131.32 155.52 C 131.82 156.39 132.92 156.70 133.79 156.21 L 134.67 155.71 C 135.54 155.22 135.85 154.11 135.36 153.24 C 134.87 152.37 133.76 152.06 132.89 152.55 Z M 131.77 153.19 L 131.01 153.79 C 130.22 154.42 130.08 155.57 130.71 156.36 C 131.34 157.15 132.48 157.29 133.28 156.66 L 134.04 156.06 C 134.83 155.44 134.96 154.29 134.34 153.49 C 133.71 152.70 132.56 152.57 131.77 153.19 Z M 130.70 154.09 L 130.14 154.80 C 129.51 155.60 129.65 156.76 130.44 157.39 C 131.24 158.02 132.40 157.88 133.03 157.08 L 133.59 156.36 C 134.22 155.57 134.08 154.41 133.28 153.78 C 132.48 153.15 131.33 153.29 130.70 154.09 Z M 129.90 155.17 L 129.51 156.01 C 129.09 156.94 129.49 158.04 130.42 158.46 C 131.34 158.89 132.44 158.49 132.87 157.56 L 133.26 156.72 C 133.69 155.79 133.28 154.69 132.36 154.26 C 131.43 153.84 130.33 154.24 129.90 155.17 Z M 129.40 156.31 L 129.14 157.29 C 128.88 158.28 129.47 159.30 130.46 159.56 C 131.45 159.82 132.47 159.23 132.73 158.24 L 132.99 157.26 C 133.25 156.27 132.66 155.25 131.67 154.99 C 130.67 154.73 129.66 155.32 129.40 156.31 Z M 129.09 157.51 L 128.93 158.62 C 128.79 159.64 129.51 160.58 130.53 160.72 C 131.54 160.86 132.48 160.15 132.62 159.13 L 132.78 158.02 C 132.92 157.00 132.21 156.06 131.19 155.92 C 130.17 155.78 129.23 156.49 129.09 157.51 Z M 128.92 158.76 L 128.86 159.76 C 128.79 160.78 129.57 161.67 130.60 161.73 C 131.63 161.80 132.52 161.02 132.58 159.99 L 132.64 158.99 C 132.71 157.96 131.92 157.08 130.90 157.01 C 129.87 156.95 128.98 157.73 128.92 158.76 Z M 128.85 159.86 L 128.85 160.89 C 128.84 161.93 129.68 162.76 130.71 162.77 C 131.74 162.77 132.58 161.94 132.58 160.91 L 132.58 159.88 C 132.59 158.85 131.76 158.01 130.73 158.00 C 129.70 158.00 128.86 158.83 128.85 159.86 Z M 128.85 161.00 L 128.91 162.03 C 128.96 163.06 129.84 163.85 130.87 163.79 C 131.90 163.73 132.69 162.85 132.63 161.82 L 132.58 160.80 C 132.52 159.77 131.64 158.98 130.61 159.04 C 129.58 159.10 128.79 159.98 128.85 161.00 Z M 128.92 162.15 L 129.04 163.12 C 129.16 164.15 130.10 164.87 131.12 164.75 C 132.14 164.62 132.87 163.69 132.74 162.67 L 132.62 161.70 C 132.50 160.67 131.56 159.95 130.54 160.07 C 129.52 160.20 128.79 161.13 128.92 162.15 Z M 129.07 163.30 L 129.30 164.32 C 129.52 165.33 130.52 165.96 131.52 165.74 C 132.53 165.52 133.16 164.52 132.94 163.51 L 132.71 162.49 C 132.49 161.49 131.49 160.85 130.49 161.07 C 129.48 161.30 128.85 162.29 129.07 163.30 Z M 129.37 164.55 L 129.72 165.52 C 130.07 166.49 131.13 166.99 132.10 166.64 C 133.07 166.29 133.57 165.22 133.22 164.25 L 132.87 163.28 C 132.52 162.32 131.45 161.82 130.48 162.17 C 129.52 162.52 129.02 163.58 129.37 164.55 Z M 129.82 165.75 L 130.26 166.59 C 130.73 167.50 131.86 167.86 132.77 167.38 C 133.68 166.91 134.03 165.78 133.56 164.87 L 133.12 164.03 C 132.64 163.12 131.52 162.76 130.61 163.24 C 129.70 163.71 129.34 164.84 129.82 165.75 Z M 130.37 166.77 L 130.89 167.54 C 131.46 168.40 132.61 168.62 133.47 168.05 C 134.32 167.48 134.54 166.32 133.97 165.47 L 133.45 164.70 C 132.88 163.85 131.72 163.62 130.87 164.19 C 130.02 164.76 129.80 165.92 130.37 166.77 Z M 130.99 167.68 L 131.62 168.45 C 132.27 169.25 133.43 169.37 134.23 168.73 C 135.02 168.08 135.14 166.92 134.50 166.12 L 133.87 165.34 C 133.23 164.55 132.06 164.43 131.26 165.07 C 130.47 165.71 130.35 166.88 130.99 167.68 Z M 131.73 168.57 L 132.43 169.29 C 133.14 170.02 134.31 170.04 135.04 169.33 C 135.78 168.62 135.79 167.45 135.08 166.72 L 134.39 166.00 C 133.68 165.27 132.51 165.25 131.77 165.96 C 131.04 166.67 131.02 167.84 131.73 168.57 Z M 132.55 169.40 L 133.31 170.05 C 134.08 170.72 135.24 170.63 135.91 169.86 C 136.57 169.09 136.49 167.92 135.71 167.26 L 134.96 166.61 C 134.19 165.94 133.02 166.03 132.36 166.80 C 131.69 167.57 131.78 168.74 132.55 169.40 Z M 133.44 170.15 L 134.24 170.72 C 135.07 171.32 136.22 171.12 136.81 170.30 C 137.40 169.47 137.21 168.32 136.38 167.73 L 135.58 167.16 C 134.75 166.57 133.60 166.76 133.01 167.58 C 132.42 168.41 132.61 169.56 133.44 170.15 Z M 134.39 170.81 L 135.26 171.31 C 136.13 171.82 137.25 171.52 137.76 170.65 C 138.27 169.77 137.97 168.65 137.10 168.14 L 136.23 167.64 C 135.36 167.13 134.23 167.43 133.73 168.31 C 133.22 169.18 133.52 170.31 134.39 170.81 Z M 135.42 171.39 L 136.34 171.81 C 137.26 172.23 138.35 171.83 138.77 170.91 C 139.18 169.99 138.78 168.90 137.86 168.48 L 136.93 168.06 C 136.01 167.64 134.93 168.05 134.51 168.97 C 134.09 169.89 134.50 170.97 135.42 171.39 Z M 136.50 171.87 L 137.42 172.19 C 138.37 172.52 139.41 172.02 139.74 171.07 C 140.07 170.11 139.57 169.08 138.62 168.74 L 137.70 168.43 C 136.75 168.10 135.71 168.60 135.38 169.55 C 135.05 170.50 135.55 171.54 136.50 171.87 Z M 137.57 172.23 L 138.53 172.48 C 139.51 172.73 140.50 172.14 140.75 171.17 C 141.00 170.20 140.41 169.21 139.44 168.96 L 138.47 168.71 C 137.50 168.46 136.51 169.04 136.26 170.02 C 136.01 170.99 136.59 171.98 137.57 172.23 Z M 138.67 172.50 L 139.67 172.68 C 140.66 172.85 141.60 172.19 141.77 171.21 C 141.95 170.22 141.29 169.28 140.30 169.11 L 139.30 168.93 C 138.32 168.76 137.38 169.42 137.20 170.40 C 137.03 171.39 137.68 172.33 138.67 172.50 Z M 139.80 172.69 L 140.79 172.79 C 141.78 172.90 142.67 172.18 142.77 171.18 C 142.88 170.19 142.16 169.30 141.17 169.20 L 140.18 169.10 C 139.19 168.99 138.30 169.71 138.19 170.71 C 138.09 171.70 138.81 172.59 139.80 172.69 Z M 140.92 172.79 L 141.91 172.83 C 142.90 172.86 143.73 172.07 143.76 171.08 C 143.79 170.09 143.01 169.26 142.02 169.23 L 141.03 169.20 C 140.04 169.17 139.21 169.95 139.18 170.94 C 139.15 171.93 139.93 172.76 140.92 172.79 Z M 142.06 172.82 L 143.06 172.77 C 144.05 172.71 144.81 171.87 144.76 170.88 C 144.71 169.89 143.87 169.13 142.88 169.19 L 141.87 169.24 C 140.88 169.29 140.12 170.13 140.18 171.12 C 140.23 172.11 141.07 172.87 142.06 172.82 Z M 143.22 172.74 L 144.23 172.60 C 145.20 172.46 145.88 171.56 145.74 170.58 C 145.61 169.60 144.70 168.92 143.72 169.06 L 142.72 169.21 C 141.74 169.35 141.06 170.25 141.20 171.23 C 141.34 172.20 142.24 172.88 143.22 172.74 Z M 144.39 172.56 L 145.32 172.34 C 146.27 172.12 146.86 171.16 146.64 170.20 C 146.41 169.24 145.45 168.65 144.49 168.88 L 143.56 169.10 C 142.61 169.33 142.02 170.29 142.24 171.24 C 142.47 172.20 143.43 172.79 144.39 172.56 Z M 145.47 172.30 L 146.40 171.98 C 147.33 171.67 147.83 170.67 147.52 169.73 C 147.21 168.80 146.20 168.30 145.27 168.61 L 144.34 168.93 C 143.41 169.24 142.91 170.25 143.22 171.18 C 143.53 172.11 144.54 172.61 145.47 172.30 Z M 146.55 171.92 L 147.48 171.51 C 148.38 171.11 148.78 170.07 148.39 169.17 C 147.99 168.28 146.95 167.87 146.05 168.27 L 145.12 168.68 C 144.22 169.07 143.82 170.12 144.21 171.02 C 144.61 171.91 145.66 172.32 146.55 171.92 Z M 147.63 171.43 L 148.54 170.93 C 149.39 170.45 149.70 169.38 149.22 168.52 C 148.75 167.67 147.67 167.36 146.82 167.84 L 145.91 168.34 C 145.05 168.82 144.75 169.89 145.22 170.75 C 145.70 171.60 146.77 171.91 147.63 171.43 Z M 148.66 170.85 L 149.46 170.31 C 150.27 169.77 150.48 168.68 149.94 167.87 C 149.40 167.06 148.30 166.84 147.49 167.38 L 146.69 167.92 C 145.88 168.46 145.67 169.55 146.21 170.36 C 146.75 171.17 147.85 171.39 148.66 170.85 Z M 149.55 170.24 L 150.34 169.63 C 151.11 169.04 151.25 167.93 150.65 167.16 C 150.06 166.39 148.95 166.25 148.18 166.85 L 147.40 167.46 C 146.63 168.05 146.49 169.16 147.08 169.93 C 147.68 170.70 148.78 170.84 149.55 170.24 Z M 150.42 169.56 L 151.18 168.89 C 151.91 168.25 151.98 167.14 151.34 166.41 C 150.70 165.68 149.59 165.61 148.86 166.25 L 148.10 166.92 C 147.37 167.56 147.30 168.67 147.94 169.40 C 148.58 170.13 149.69 170.20 150.42 169.56 Z M 151.25 168.82 L 151.99 168.10 C 152.68 167.42 152.69 166.31 152.00 165.62 C 151.32 164.93 150.21 164.92 149.52 165.60 L 148.79 166.32 C 148.10 167.00 148.09 168.11 148.77 168.80 C 149.45 169.50 150.56 169.50 151.25 168.82 Z M 152.05 168.03 L 152.74 167.28 C 153.39 166.56 153.34 165.46 152.62 164.80 C 151.91 164.15 150.80 164.20 150.15 164.92 L 149.46 165.67 C 148.81 166.38 148.86 167.49 149.57 168.15 C 150.29 168.80 151.40 168.75 152.05 168.03 Z M 152.79 167.21 L 153.43 166.43 C 154.05 165.68 153.94 164.58 153.19 163.97 C 152.45 163.35 151.34 163.46 150.73 164.21 L 150.09 164.99 C 149.48 165.73 149.58 166.83 150.33 167.45 C 151.07 168.06 152.18 167.96 152.79 167.21 Z M 153.48 166.36 L 154.08 165.55 C 154.66 164.77 154.49 163.68 153.72 163.11 C 152.94 162.53 151.85 162.70 151.28 163.47 L 150.68 164.28 C 150.10 165.05 150.27 166.15 151.04 166.72 C 151.82 167.30 152.91 167.13 153.48 166.36 Z M 154.13 165.47 L 154.68 164.64 C 155.21 163.84 154.99 162.76 154.19 162.23 C 153.39 161.70 152.31 161.92 151.78 162.72 L 151.23 163.55 C 150.70 164.35 150.91 165.43 151.72 165.96 C 152.52 166.49 153.60 166.28 154.13 165.47 Z M 154.73 164.56 L 155.23 163.71 C 155.71 162.89 155.44 161.82 154.61 161.33 C 153.78 160.85 152.72 161.12 152.23 161.95 L 151.73 162.80 C 151.24 163.63 151.52 164.69 152.35 165.18 C 153.17 165.67 154.24 165.39 154.73 164.56 Z M 155.27 163.63 L 155.74 162.72 C 156.18 161.87 155.84 160.82 154.99 160.38 C 154.14 159.95 153.09 160.28 152.65 161.13 L 152.19 162.04 C 151.75 162.89 152.08 163.94 152.93 164.37 C 153.79 164.81 154.83 164.48 155.27 163.63 Z M 155.78 162.64 L 156.19 161.72 C 156.58 160.84 156.19 159.82 155.31 159.43 C 154.44 159.04 153.41 159.43 153.02 160.30 L 152.61 161.22 C 152.22 162.09 152.61 163.12 153.49 163.51 C 154.36 163.90 155.39 163.51 155.78 162.64 Z M 156.22 161.63 L 156.58 160.71 C 156.93 159.81 156.48 158.81 155.59 158.47 C 154.70 158.12 153.69 158.56 153.35 159.46 L 152.99 160.39 C 152.64 161.28 153.09 162.28 153.98 162.63 C 154.87 162.97 155.88 162.53 156.22 161.63 Z M 156.61 160.63 L 156.92 159.69 C 157.22 158.78 156.73 157.80 155.82 157.50 C 154.91 157.20 153.93 157.69 153.63 158.60 L 153.32 159.54 C 153.02 160.44 153.51 161.42 154.42 161.72 C 155.33 162.03 156.31 161.53 156.61 160.63 Z M 156.94 159.62 L 157.22 158.64 C 157.48 157.72 156.94 156.76 156.02 156.50 C 155.10 156.24 154.15 156.78 153.89 157.70 L 153.61 158.67 C 153.35 159.59 153.88 160.55 154.80 160.81 C 155.72 161.07 156.68 160.53 156.94 159.62 Z M 157.23 158.57 L 157.47 157.57 C 157.69 156.64 157.12 155.71 156.19 155.48 C 155.26 155.26 154.33 155.84 154.11 156.77 L 153.87 157.77 C 153.65 158.70 154.22 159.63 155.15 159.85 C 156.08 160.07 157.01 159.50 157.23 158.57 Z M 157.49 157.50 L 157.68 156.51 C 157.86 155.57 157.25 154.66 156.31 154.48 C 155.38 154.30 154.47 154.91 154.29 155.85 L 154.09 156.84 C 153.91 157.77 154.52 158.68 155.46 158.86 C 156.40 159.05 157.30 158.43 157.49 157.50 Z M 157.69 156.44 L 157.84 155.47 C 157.98 154.53 157.33 153.65 156.39 153.50 C 155.45 153.36 154.56 154.01 154.42 154.95 L 154.27 155.92 C 154.13 156.86 154.78 157.74 155.72 157.89 C 156.67 158.03 157.55 157.38 157.69 156.44 Z M 157.85 155.40 L 157.96 154.40 C 158.06 153.45 157.37 152.60 156.42 152.50 C 155.47 152.40 154.62 153.08 154.52 154.03 L 154.41 155.03 C 154.31 155.98 155.00 156.83 155.95 156.93 C 156.89 157.03 157.75 156.35 157.85 155.40 Z M 157.96 154.30 L 158.02 153.26 C 158.06 152.30 157.33 151.49 156.37 151.44 C 155.42 151.40 154.61 152.13 154.56 153.08 L 154.51 154.13 C 154.46 155.09 155.20 155.90 156.15 155.94 C 157.10 155.99 157.92 155.26 157.96 154.30 Z M 158.02 153.12 L 157.99 152.13 C 157.96 151.18 157.16 150.43 156.21 150.46 C 155.25 150.49 154.50 151.28 154.53 152.24 L 154.56 153.22 C 154.59 154.18 155.39 154.93 156.34 154.90 C 157.30 154.87 158.05 154.07 158.02 153.12 Z M 157.97 151.95 L 157.85 151.02 C 157.72 150.08 156.85 149.41 155.90 149.54 C 154.96 149.67 154.29 150.54 154.42 151.49 L 154.55 152.42 C 154.67 153.36 155.54 154.02 156.49 153.90 C 157.44 153.77 158.10 152.90 157.97 151.95 Z M 157.80 150.80 L 157.54 149.84 C 157.29 148.92 156.34 148.38 155.42 148.63 C 154.50 148.88 153.95 149.83 154.20 150.76 L 154.47 151.71 C 154.72 152.63 155.67 153.17 156.59 152.92 C 157.51 152.67 158.05 151.72 157.80 150.80 Z M 157.45 149.59 L 157.04 148.69 C 156.65 147.82 155.63 147.43 154.76 147.82 C 153.89 148.22 153.50 149.24 153.89 150.11 L 154.30 151.01 C 154.69 151.88 155.71 152.27 156.58 151.88 C 157.45 151.48 157.84 150.46 157.45 149.59 Z M 156.90 148.44 L 156.35 147.61 C 155.82 146.81 154.74 146.60 153.95 147.13 C 153.16 147.66 152.94 148.73 153.47 149.53 L 154.03 150.36 C 154.56 151.15 155.63 151.37 156.43 150.84 C 157.22 150.31 157.43 149.23 156.90 148.44 Z M 156.18 147.39 L 155.51 146.67 C 154.86 145.97 153.77 145.93 153.07 146.58 C 152.37 147.22 152.33 148.32 152.98 149.02 L 153.64 149.74 C 154.29 150.44 155.38 150.48 156.08 149.83 C 156.78 149.19 156.83 148.09 156.18 147.39 Z M 155.34 146.51 L 154.57 145.88 C 153.83 145.27 152.75 145.38 152.14 146.12 C 151.54 146.85 151.64 147.94 152.38 148.55 L 153.15 149.18 C 153.89 149.78 154.97 149.68 155.58 148.94 C 156.18 148.20 156.08 147.12 155.34 146.51 Z M 154.39 145.75 L 153.53 145.21 C 152.73 144.71 151.66 144.95 151.16 145.76 C 150.65 146.56 150.89 147.63 151.70 148.13 L 152.56 148.67 C 153.36 149.18 154.43 148.94 154.93 148.13 C 155.44 147.33 155.20 146.26 154.39 145.75 Z M 153.34 145.11 L 152.43 144.69 C 151.57 144.29 150.55 144.66 150.14 145.52 C 149.74 146.39 150.12 147.41 150.98 147.81 L 151.89 148.23 C 152.75 148.64 153.77 148.26 154.18 147.40 C 154.58 146.54 154.20 145.51 153.34 145.11 Z M 152.24 144.62 L 151.31 144.31 C 150.41 144.02 149.44 144.51 149.14 145.41 C 148.85 146.31 149.34 147.28 150.24 147.58 L 151.17 147.88 C 152.07 148.18 153.04 147.69 153.34 146.78 C 153.63 145.88 153.14 144.91 152.24 144.62 Z M 151.15 144.27 L 150.18 144.06 C 149.25 143.85 148.34 144.43 148.13 145.36 C 147.92 146.28 148.51 147.20 149.43 147.40 L 150.40 147.62 C 151.33 147.83 152.24 147.24 152.45 146.32 C 152.66 145.39 152.07 144.48 151.15 144.27 Z M 150.05 144.04 L 149.04 143.89 C 148.11 143.75 147.24 144.40 147.10 145.33 C 146.96 146.27 147.61 147.14 148.54 147.28 L 149.56 147.42 C 150.49 147.56 151.36 146.91 151.50 145.98 C 151.64 145.04 150.99 144.17 150.05 144.04 Z M 148.96 143.88 L 147.98 143.79 C 147.04 143.69 146.20 144.38 146.11 145.32 C 146.02 146.26 146.71 147.09 147.65 147.19 L 148.63 147.28 C 149.57 147.37 150.40 146.69 150.49 145.75 C 150.58 144.81 149.90 143.97 148.96 143.88 Z M 147.92 143.79 L 146.94 143.72 C 146.00 143.66 145.19 144.37 145.13 145.31 C 145.07 146.25 145.78 147.06 146.72 147.12 L 147.70 147.19 C 148.64 147.25 149.45 146.53 149.51 145.59 C 149.57 144.66 148.86 143.85 147.92 143.79 Z M 146.90 143.73 L 145.89 143.68 C 144.95 143.65 144.16 144.38 144.12 145.31 C 144.08 146.25 144.81 147.04 145.75 147.08 L 146.76 147.12 C 147.70 147.16 148.49 146.43 148.53 145.49 C 148.56 144.55 147.83 143.76 146.90 143.73 Z M 145.86 143.69 L 144.83 143.66 C 143.90 143.64 143.12 144.38 143.10 145.32 C 143.08 146.25 143.82 147.03 144.75 147.05 L 145.78 147.07 C 146.71 147.10 147.49 146.36 147.51 145.42 C 147.53 144.49 146.79 143.71 145.86 143.69 Z M 144.81 143.67 L 143.79 143.66 C 142.86 143.65 142.10 144.39 142.08 145.33 C 142.07 146.26 142.82 147.02 143.75 147.03 L 144.77 147.04 C 145.71 147.06 146.47 146.31 146.48 145.38 C 146.49 144.45 145.75 143.68 144.81 143.67 Z M 143.75 143.67 L 142.74 143.68 C 141.81 143.69 141.07 144.45 141.08 145.37 C 141.09 146.30 141.85 147.04 142.77 147.03 L 143.79 147.02 C 144.72 147.01 145.46 146.25 145.45 145.33 C 145.44 144.40 144.68 143.66 143.75 143.67 Z M 142.67 143.69 L 141.67 143.74 C 140.75 143.79 140.04 144.57 140.09 145.49 C 140.14 146.41 140.92 147.12 141.84 147.07 L 142.84 147.02 C 143.76 146.98 144.47 146.19 144.42 145.27 C 144.38 144.35 143.59 143.64 142.67 143.69 Z M 141.57 143.76 L 140.61 143.86 C 139.70 143.97 139.04 144.79 139.14 145.70 C 139.24 146.61 140.07 147.27 140.98 147.17 L 141.94 147.06 C 142.85 146.96 143.51 146.13 143.41 145.22 C 143.31 144.31 142.48 143.65 141.57 143.76 Z M 140.47 143.90 L 139.46 144.10 C 138.56 144.28 137.98 145.14 138.16 146.04 C 138.34 146.93 139.21 147.51 140.10 147.34 L 141.11 147.13 C 142.01 146.96 142.59 146.09 142.41 145.19 C 142.23 144.30 141.36 143.72 140.47 143.90 Z M 139.32 144.14 L 138.35 144.43 C 137.48 144.68 136.98 145.59 137.24 146.46 C 137.49 147.33 138.40 147.83 139.27 147.57 L 140.24 147.29 C 141.11 147.04 141.61 146.13 141.35 145.26 C 141.10 144.39 140.19 143.89 139.32 144.14 Z M 138.24 144.48 L 137.32 144.82 C 136.48 145.14 136.06 146.08 136.37 146.92 C 136.69 147.76 137.63 148.18 138.47 147.87 L 139.38 147.52 C 140.22 147.21 140.65 146.27 140.33 145.43 C 140.02 144.59 139.08 144.16 138.24 144.48 Z M 137.24 144.87 L 136.34 145.27 C 135.52 145.64 135.16 146.59 135.52 147.41 C 135.89 148.22 136.84 148.58 137.66 148.22 L 138.55 147.82 C 139.37 147.45 139.73 146.50 139.37 145.68 C 139.00 144.87 138.05 144.51 137.24 144.87 Z M 136.27 145.32 L 135.36 145.78 C 134.57 146.19 134.26 147.15 134.66 147.94 C 135.07 148.73 136.03 149.04 136.82 148.64 L 137.73 148.17 C 138.51 147.77 138.83 146.80 138.42 146.02 C 138.02 145.23 137.05 144.92 136.27 145.32 Z M 135.29 145.83 L 134.43 146.33 C 133.67 146.77 133.41 147.74 133.85 148.50 C 134.29 149.26 135.27 149.53 136.03 149.09 L 136.89 148.59 C 137.65 148.15 137.91 147.17 137.47 146.41 C 137.03 145.65 136.06 145.39 135.29 145.83 Z M 134.38 146.38 L 133.55 146.91 C 132.82 147.38 132.60 148.36 133.08 149.09 C 133.55 149.83 134.53 150.04 135.26 149.57 L 136.09 149.04 C 136.82 148.56 137.03 147.59 136.56 146.85 C 136.09 146.12 135.11 145.90 134.38 146.38 Z M 133.49 146.96 L 132.67 147.55 C 131.96 148.05 131.80 149.04 132.31 149.74 C 132.81 150.45 133.80 150.61 134.50 150.10 L 135.32 149.52 C 136.03 149.01 136.19 148.03 135.69 147.32 C 135.18 146.61 134.20 146.45 133.49 146.96 Z M 132.59 147.62 L 131.82 148.25 C 131.15 148.80 131.06 149.79 131.61 150.46 C 132.16 151.13 133.15 151.22 133.82 150.67 L 134.58 150.04 C 135.25 149.48 135.35 148.50 134.79 147.83 C 134.24 147.16 133.25 147.06 132.59 147.62 Z M 131.72 148.34 L 131.02 149.04 C 130.40 149.64 130.39 150.63 131.00 151.25 C 131.60 151.86 132.59 151.87 133.21 151.27 L 133.91 150.57 C 134.53 149.97 134.54 148.98 133.93 148.36 C 133.33 147.75 132.34 147.74 131.72 148.34 Z M 130.92 149.15 L 130.28 149.91 C 129.72 150.56 129.81 151.55 130.47 152.10 C 131.12 152.66 132.11 152.58 132.67 151.92 L 133.31 151.16 C 133.86 150.50 133.78 149.52 133.12 148.96 C 132.46 148.40 131.47 148.49 130.92 149.15 Z M 130.22 149.98 L 129.62 150.79 C 129.11 151.48 129.26 152.46 129.95 152.97 C 130.64 153.48 131.62 153.34 132.13 152.64 L 132.73 151.84 C 133.24 151.14 133.09 150.17 132.40 149.66 C 131.70 149.14 130.73 149.29 130.22 149.98 Z M 129.59 150.83 L 129.05 151.61 C 128.56 152.32 128.74 153.29 129.45 153.78 C 130.16 154.27 131.13 154.09 131.62 153.38 L 132.16 152.60 C 132.65 151.90 132.47 150.92 131.77 150.43 C 131.06 149.94 130.08 150.12 129.59 150.83 Z"
      fill="black"
      fill-rule="nonzero" /></svg>