<svg xmlns="http://www.w3.org/2000/svg" width="300" height="300" viewBox="0 0 300 300">
<path d="M 116.21 150.40 L 117.16 150.75 C 117.97 151.05 118.88 150.64 119.19 149.82 C 119.49 149.00 119.08 148.09 118.26 147.79 L 117.31 147.43 C 116.49 147.13 115.58 147.55 115.28 148.36 C 114.98 149.18 115.39 150.09 116.21 150.40 Z M 116.95 150.70 L 117.82 151.16 C 118.61 151.58 119.59 151.27 120.01 150.48 C 120.43 149.69 120.12 148.71 119.33 148.30 L 118.46 147.84 C 117.67 147.42 116.69 147.72 116.28 148.51 C 115.86 149.30 116.16 150.28 116.95 150.70 Z M 117.43 150.93 L 118.15 151.60 C 118.81 152.23 119.86 152.21 120.49 151.54 C 121.12 150.88 121.09 149.83 120.43 149.20 L 119.72 148.52 C 119.05 147.89 118.00 147.92 117.37 148.59 C 116.74 149.25 116.77 150.30 117.43 150.93 Z M 117.81 151.20 L 118.22 151.96 C 118.66 152.77 119.68 153.08 120.50 152.64 C 121.31 152.20 121.62 151.18 121.18 150.36 L 120.77 149.60 C 120.32 148.79 119.30 148.48 118.49 148.92 C 117.67 149.36 117.37 150.38 117.81 151.20 Z M 118.09 151.65 L 118.36 152.54 C 118.63 153.43 119.57 153.93 120.46 153.65 C 121.35 153.38 121.85 152.44 121.58 151.55 L 121.31 150.66 C 121.03 149.77 120.09 149.27 119.20 149.55 C 118.31 149.82 117.81 150.76 118.09 151.65 Z M 118.31 152.37 L 118.51 153.38 C 118.69 154.29 119.57 154.89 120.49 154.71 C 121.40 154.53 122.00 153.65 121.82 152.73 L 121.62 151.72 C 121.44 150.81 120.56 150.21 119.65 150.39 C 118.73 150.57 118.14 151.45 118.31 152.37 Z M 118.50 153.30 L 118.66 154.40 C 118.79 155.32 119.65 155.96 120.57 155.83 C 121.49 155.69 122.13 154.84 121.99 153.92 L 121.83 152.81 C 121.70 151.89 120.84 151.25 119.92 151.39 C 119.00 151.52 118.36 152.38 118.50 153.30 Z M 118.66 154.39 L 118.80 155.41 C 118.93 156.33 119.78 156.97 120.70 156.85 C 121.61 156.72 122.26 155.87 122.13 154.96 L 121.99 153.93 C 121.86 153.01 121.01 152.37 120.10 152.50 C 119.18 152.62 118.54 153.47 118.66 154.39 Z M 118.83 155.42 L 118.96 156.39 C 119.10 157.30 119.94 157.93 120.84 157.80 C 121.75 157.67 122.38 156.83 122.25 155.92 L 122.11 154.95 C 121.98 154.04 121.14 153.41 120.23 153.54 C 119.32 153.67 118.69 154.51 118.83 155.42 Z M 118.99 156.39 L 119.14 157.38 C 119.27 158.28 120.10 158.89 120.99 158.76 C 121.89 158.63 122.50 157.80 122.37 156.90 L 122.22 155.92 C 122.09 155.02 121.26 154.41 120.37 154.54 C 119.47 154.67 118.86 155.50 118.99 156.39 Z M 119.16 157.38 L 119.31 158.39 C 119.45 159.26 120.27 159.87 121.15 159.74 C 122.02 159.60 122.63 158.78 122.50 157.90 L 122.34 156.90 C 122.21 156.02 121.39 155.42 120.51 155.55 C 119.63 155.68 119.03 156.51 119.16 157.38 Z M 119.34 158.38 L 119.49 159.39 C 119.62 160.26 120.43 160.85 121.30 160.72 C 122.16 160.59 122.76 159.78 122.63 158.91 L 122.47 157.90 C 122.34 157.04 121.53 156.44 120.66 156.58 C 119.80 156.71 119.20 157.52 119.34 158.38 Z M 119.51 159.39 L 119.59 159.90 C 119.72 160.75 120.52 161.34 121.38 161.21 C 122.23 161.08 122.82 160.28 122.69 159.42 L 122.61 158.91 C 122.48 158.06 121.68 157.47 120.82 157.60 C 119.97 157.73 119.38 158.54 119.51 159.39 Z"
      fill="black"
      fill-rule="nonzero" /><path d="M 119.69 149.09 L 119.88 148.06 C 120.05 147.18 119.48 146.32 118.59 146.15 C 117.71 145.98 116.85 146.56 116.68 147.45 L 116.49 148.47 C 116.32 149.36 116.90 150.21 117.78 150.38 C 118.66 150.55 119.52 149.97 119.69 149.09 Z M 119.85 148.24 L 120.15 147.29 C 120.42 146.43 119.94 145.51 119.07 145.24 C 118.21 144.97 117.29 145.45 117.02 146.31 L 116.72 147.26 C 116.45 148.13 116.93 149.05 117.79 149.32 C 118.66 149.59 119.58 149.11 119.85 148.24 Z M 119.98 147.68 L 120.47 146.90 C 120.96 146.13 120.73 145.11 119.95 144.62 C 119.18 144.14 118.16 144.37 117.68 145.14 L 117.19 145.92 C 116.70 146.70 116.93 147.71 117.70 148.20 C 118.48 148.68 119.49 148.45 119.98 147.68 Z M 120.10 147.32 L 120.76 146.80 C 121.47 146.24 121.60 145.20 121.03 144.48 C 120.47 143.76 119.43 143.64 118.71 144.20 L 118.05 144.72 C 117.34 145.28 117.21 146.32 117.78 147.04 C 118.34 147.76 119.38 147.88 120.10 147.32 Z M 120.39 147.02 L 121.27 146.64 C 122.10 146.28 122.49 145.31 122.13 144.47 C 121.77 143.63 120.80 143.25 119.96 143.61 L 119.08 143.99 C 118.24 144.35 117.86 145.32 118.22 146.16 C 118.58 146.99 119.55 147.38 120.39 147.02 Z M 121.01 146.72 L 122.11 146.45 C 123.00 146.23 123.53 145.33 123.31 144.45 C 123.09 143.56 122.19 143.03 121.31 143.25 L 120.21 143.52 C 119.33 143.74 118.79 144.64 119.01 145.52 C 119.23 146.41 120.13 146.95 121.01 146.72 Z M 121.98 146.47 L 122.94 146.32 C 123.84 146.17 124.44 145.32 124.30 144.42 C 124.15 143.53 123.30 142.92 122.40 143.06 L 121.44 143.22 C 120.55 143.37 119.94 144.22 120.08 145.12 C 120.23 146.01 121.08 146.62 121.98 146.47 Z M 122.87 146.32 L 123.77 146.21 C 124.67 146.11 125.32 145.29 125.21 144.38 C 125.10 143.48 124.28 142.84 123.38 142.95 L 122.47 143.06 C 121.57 143.17 120.93 143.99 121.04 144.89 C 121.15 145.79 121.97 146.43 122.87 146.32 Z M 123.72 146.22 L 124.70 146.13 C 125.60 146.05 126.27 145.25 126.19 144.35 C 126.10 143.44 125.31 142.78 124.40 142.86 L 123.43 142.95 C 122.52 143.03 121.86 143.83 121.94 144.73 C 122.02 145.63 122.82 146.30 123.72 146.22 Z M 124.66 146.13 L 125.69 146.06 C 126.60 146.00 127.28 145.22 127.22 144.32 C 127.17 143.42 126.39 142.73 125.48 142.79 L 124.45 142.86 C 123.54 142.92 122.86 143.70 122.92 144.60 C 122.97 145.50 123.75 146.19 124.66 146.13 Z M 125.66 146.06 L 126.75 146.01 C 127.65 145.97 128.35 145.21 128.31 144.31 C 128.27 143.41 127.51 142.71 126.61 142.75 L 125.52 142.79 C 124.62 142.83 123.92 143.59 123.96 144.50 C 123.99 145.40 124.76 146.10 125.66 146.06 Z M 126.72 146.01 L 127.82 145.98 C 128.72 145.96 129.43 145.21 129.41 144.31 C 129.38 143.41 128.64 142.70 127.74 142.72 L 126.64 142.75 C 125.74 142.77 125.03 143.52 125.05 144.42 C 125.07 145.32 125.82 146.03 126.72 146.01 Z M 127.79 145.98 L 128.84 145.97 C 129.74 145.96 130.46 145.23 130.45 144.33 C 130.44 143.43 129.71 142.71 128.81 142.72 L 127.76 142.73 C 126.87 142.73 126.14 143.47 126.15 144.37 C 126.16 145.26 126.89 145.99 127.79 145.98 Z M 128.81 145.97 L 129.86 145.98 C 130.75 145.99 131.49 145.27 131.50 144.38 C 131.51 143.48 130.79 142.75 129.89 142.74 L 128.84 142.72 C 127.95 142.71 127.21 143.43 127.20 144.33 C 127.19 145.22 127.91 145.96 128.81 145.97 Z M 129.82 145.97 L 130.85 146.01 C 131.74 146.04 132.49 145.34 132.52 144.45 C 132.55 143.56 131.86 142.81 130.96 142.78 L 129.93 142.74 C 129.04 142.71 128.29 143.41 128.26 144.30 C 128.23 145.19 128.93 145.94 129.82 145.97 Z M 130.80 146.00 L 131.79 146.07 C 132.68 146.12 133.45 145.45 133.50 144.56 C 133.56 143.68 132.89 142.91 132.00 142.85 L 131.01 142.79 C 130.12 142.73 129.36 143.40 129.30 144.29 C 129.24 145.18 129.91 145.94 130.80 146.00 Z M 131.73 146.06 L 132.66 146.15 C 133.54 146.24 134.33 145.60 134.42 144.72 C 134.51 143.84 133.87 143.05 132.99 142.96 L 132.06 142.86 C 131.18 142.77 130.39 143.41 130.30 144.29 C 130.21 145.17 130.85 145.96 131.73 146.06 Z M 132.57 146.14 L 133.58 146.30 C 134.45 146.44 135.28 145.85 135.42 144.98 C 135.56 144.10 134.97 143.28 134.10 143.14 L 133.08 142.97 C 132.21 142.83 131.39 143.42 131.24 144.30 C 131.10 145.17 131.69 145.99 132.57 146.14 Z M 133.43 146.27 L 134.50 146.55 C 135.35 146.78 136.22 146.27 136.45 145.41 C 136.68 144.56 136.17 143.68 135.32 143.46 L 134.25 143.17 C 133.40 142.95 132.52 143.46 132.29 144.31 C 132.07 145.16 132.57 146.04 133.43 146.27 Z M 134.28 146.47 L 135.17 146.86 C 135.98 147.20 136.92 146.83 137.27 146.02 C 137.62 145.20 137.24 144.26 136.43 143.92 L 135.54 143.53 C 134.72 143.19 133.78 143.56 133.44 144.37 C 133.09 145.19 133.46 146.13 134.28 146.47 Z M 134.92 146.72 L 135.66 147.21 C 136.40 147.70 137.39 147.50 137.88 146.76 C 138.37 146.02 138.16 145.03 137.43 144.54 L 136.68 144.05 C 135.94 143.57 134.95 143.77 134.47 144.51 C 133.98 145.24 134.18 146.23 134.92 146.72 Z M 135.42 147.01 L 136.07 147.66 C 136.70 148.29 137.71 148.28 138.33 147.66 C 138.96 147.03 138.95 146.02 138.33 145.39 L 137.67 144.74 C 137.05 144.12 136.03 144.13 135.41 144.75 C 134.79 145.38 134.79 146.39 135.42 147.01 Z M 135.88 147.43 L 136.44 148.26 C 136.94 148.98 137.94 149.17 138.66 148.67 C 139.39 148.18 139.58 147.18 139.08 146.45 L 138.52 145.63 C 138.02 144.90 137.03 144.71 136.30 145.21 C 135.57 145.71 135.38 146.70 135.88 147.43 Z M 136.31 148.03 L 136.74 148.94 C 137.11 149.74 138.06 150.09 138.86 149.72 C 139.66 149.35 140.01 148.39 139.64 147.59 L 139.21 146.68 C 138.84 145.88 137.89 145.53 137.09 145.90 C 136.29 146.27 135.94 147.23 136.31 148.03 Z M 136.65 148.73 L 136.94 149.68 C 137.19 150.53 138.08 151.01 138.93 150.76 C 139.78 150.50 140.26 149.61 140.01 148.76 L 139.72 147.81 C 139.47 146.96 138.58 146.48 137.73 146.73 C 136.88 146.99 136.40 147.88 136.65 148.73 Z M 136.89 149.46 L 137.03 150.43 C 137.17 151.30 137.98 151.90 138.86 151.77 C 139.73 151.64 140.33 150.82 140.20 149.95 L 140.06 148.98 C 139.92 148.11 139.11 147.51 138.23 147.64 C 137.36 147.77 136.76 148.59 136.89 149.46 Z M 137.02 150.17 L 137.00 151.14 C 136.99 152.02 137.70 152.75 138.58 152.76 C 139.47 152.77 140.20 152.07 140.21 151.18 L 140.22 150.21 C 140.23 149.33 139.52 148.60 138.64 148.59 C 137.76 148.57 137.03 149.28 137.02 150.17 Z M 137.03 150.86 L 136.84 151.85 C 136.67 152.71 137.24 153.55 138.11 153.72 C 138.98 153.89 139.82 153.32 139.99 152.45 L 140.18 151.46 C 140.35 150.59 139.78 149.75 138.91 149.59 C 138.04 149.42 137.20 149.99 137.03 150.86 Z M 136.91 151.59 L 136.57 152.52 C 136.26 153.35 136.69 154.28 137.52 154.58 C 138.35 154.89 139.27 154.46 139.57 153.63 L 139.92 152.70 C 140.22 151.87 139.80 150.95 138.97 150.65 C 138.14 150.34 137.22 150.76 136.91 151.59 Z M 136.65 152.35 L 136.22 153.18 C 135.81 153.97 136.12 154.93 136.91 155.34 C 137.69 155.74 138.66 155.44 139.06 154.65 L 139.50 153.81 C 139.90 153.03 139.59 152.06 138.80 151.66 C 138.02 151.25 137.05 151.56 136.65 152.35 Z M 136.28 153.06 L 135.75 153.91 C 135.28 154.66 135.51 155.65 136.26 156.12 C 137.00 156.59 137.99 156.36 138.46 155.61 L 139.00 154.77 C 139.47 154.02 139.24 153.03 138.49 152.56 C 137.74 152.09 136.76 152.31 136.28 153.06 Z M 135.81 153.82 L 135.20 154.66 C 134.68 155.38 134.84 156.38 135.55 156.90 C 136.27 157.42 137.27 157.26 137.79 156.55 L 138.40 155.70 C 138.92 154.99 138.77 153.99 138.05 153.47 C 137.34 152.95 136.33 153.10 135.81 153.82 Z M 135.25 154.59 L 134.58 155.42 C 134.02 156.10 134.13 157.11 134.81 157.67 C 135.50 158.23 136.51 158.13 137.06 157.44 L 137.74 156.62 C 138.29 155.93 138.19 154.92 137.51 154.36 C 136.82 153.80 135.81 153.91 135.25 154.59 Z M 134.63 155.36 L 133.95 156.13 C 133.36 156.79 133.41 157.80 134.07 158.39 C 134.73 158.98 135.74 158.92 136.33 158.26 L 137.02 157.50 C 137.60 156.84 137.55 155.82 136.89 155.24 C 136.23 154.65 135.22 154.70 134.63 155.36 Z M 133.99 156.08 L 133.28 156.82 C 132.67 157.45 132.68 158.46 133.32 159.08 C 133.95 159.69 134.96 159.67 135.58 159.04 L 136.29 158.31 C 136.90 157.67 136.88 156.66 136.25 156.05 C 135.62 155.43 134.60 155.45 133.99 156.08 Z M 133.33 156.78 L 132.60 157.47 C 131.96 158.08 131.94 159.09 132.55 159.72 C 133.16 160.36 134.17 160.38 134.81 159.77 L 135.53 159.08 C 136.17 158.47 136.19 157.46 135.58 156.83 C 134.97 156.19 133.96 156.17 133.33 156.78 Z M 132.65 157.43 L 131.92 158.08 C 131.26 158.66 131.20 159.67 131.78 160.33 C 132.37 160.99 133.37 161.05 134.03 160.46 L 134.76 159.81 C 135.42 159.23 135.48 158.22 134.89 157.56 C 134.31 156.91 133.30 156.85 132.65 157.43 Z M 131.97 158.04 L 131.15 158.70 C 130.47 159.26 130.37 160.26 130.93 160.94 C 131.48 161.62 132.49 161.72 133.17 161.17 L 133.98 160.50 C 134.66 159.95 134.76 158.94 134.20 158.26 C 133.65 157.58 132.65 157.48 131.97 158.04 Z M 131.25 158.64 L 130.35 159.27 C 129.63 159.78 129.46 160.77 129.97 161.48 C 130.48 162.20 131.46 162.37 132.18 161.86 L 133.07 161.23 C 133.79 160.72 133.96 159.73 133.45 159.02 C 132.95 158.31 131.96 158.14 131.25 158.64 Z M 130.54 159.17 L 129.67 159.62 C 128.90 160.02 128.59 160.97 129.00 161.75 C 129.40 162.52 130.35 162.82 131.12 162.42 L 131.99 161.97 C 132.77 161.57 133.07 160.61 132.66 159.84 C 132.26 159.07 131.31 158.77 130.54 159.17 Z M 130.02 159.49 L 129.19 159.70 C 128.34 159.91 127.83 160.76 128.04 161.60 C 128.24 162.44 129.10 162.96 129.94 162.75 L 130.77 162.54 C 131.62 162.34 132.13 161.48 131.92 160.64 C 131.71 159.80 130.86 159.28 130.02 159.49 Z M 129.77 159.67 L 128.86 159.55 C 128.01 159.44 127.22 160.04 127.11 160.90 C 126.99 161.76 127.60 162.55 128.46 162.66 L 129.36 162.78 C 130.22 162.89 131.00 162.29 131.12 161.43 C 131.23 160.57 130.62 159.78 129.77 159.67 Z M 129.34 159.70 L 128.46 159.27 C 127.68 158.90 126.75 159.22 126.37 160.00 C 126.00 160.78 126.32 161.72 127.10 162.09 L 127.98 162.52 C 128.76 162.89 129.70 162.56 130.07 161.79 C 130.45 161.01 130.12 160.07 129.34 159.70 Z M 128.67 159.40 L 127.81 158.80 C 127.10 158.31 126.13 158.49 125.64 159.20 C 125.15 159.90 125.32 160.88 126.03 161.37 L 126.89 161.97 C 127.60 162.46 128.57 162.28 129.06 161.57 C 129.56 160.86 129.38 159.89 128.67 159.40 Z M 127.86 158.84 L 127.64 158.68 C 126.95 158.16 125.97 158.30 125.46 158.99 C 124.94 159.68 125.08 160.66 125.77 161.18 L 125.99 161.34 C 126.68 161.85 127.65 161.71 128.17 161.02 C 128.69 160.33 128.55 159.35 127.86 158.84 Z"
      fill="black"
      fill-rule="nonzero" /><path d="M 148.61 112.37 L 148.73 113.33 C 148.84 114.27 149.70 114.94 150.64 114.82 C 151.58 114.71 152.24 113.85 152.13 112.91 L 152.01 111.96 C 151.90 111.02 151.04 110.35 150.11 110.47 C 149.17 110.58 148.50 111.44 148.61 112.37 Z M 148.72 113.30 L 148.82 114.28 C 148.92 115.22 149.76 115.91 150.71 115.81 C 151.66 115.71 152.34 114.87 152.24 113.92 L 152.14 112.94 C 152.04 112.00 151.20 111.31 150.25 111.41 C 149.30 111.51 148.62 112.35 148.72 113.30 Z M 148.80 114.22 L 148.88 115.25 C 148.95 116.20 149.78 116.92 150.73 116.85 C 151.68 116.78 152.40 115.95 152.33 115.00 L 152.26 113.97 C 152.19 113.02 151.36 112.30 150.41 112.37 C 149.45 112.44 148.74 113.27 148.80 114.22 Z M 148.87 115.18 L 148.90 116.17 C 148.93 117.13 149.73 117.88 150.69 117.85 C 151.65 117.82 152.41 117.02 152.38 116.06 L 152.34 115.07 C 152.31 114.11 151.51 113.36 150.55 113.39 C 149.59 113.42 148.84 114.22 148.87 115.18 Z M 148.90 116.11 L 148.90 117.10 C 148.89 118.06 149.67 118.84 150.63 118.84 C 151.60 118.84 152.38 118.06 152.38 117.10 L 152.38 116.12 C 152.38 115.16 151.60 114.38 150.64 114.37 C 149.68 114.37 148.90 115.15 148.90 116.11 Z M 148.90 117.06 L 148.87 118.07 C 148.85 119.03 149.61 119.83 150.57 119.85 C 151.53 119.88 152.33 119.12 152.35 118.16 L 152.38 117.14 C 152.40 116.18 151.64 115.38 150.68 115.36 C 149.72 115.33 148.92 116.09 148.90 117.06 Z M 148.87 118.04 L 148.83 119.07 C 148.79 120.03 149.54 120.84 150.50 120.88 C 151.46 120.92 152.27 120.17 152.31 119.21 L 152.35 118.18 C 152.39 117.22 151.64 116.41 150.68 116.37 C 149.72 116.33 148.91 117.08 148.87 118.04 Z M 148.83 119.05 L 148.78 120.08 C 148.73 121.04 149.47 121.86 150.43 121.91 C 151.39 121.96 152.21 121.22 152.26 120.25 L 152.31 119.23 C 152.36 118.27 151.62 117.45 150.66 117.40 C 149.70 117.35 148.88 118.09 148.83 119.05 Z M 148.78 120.08 L 148.73 121.10 C 148.68 122.06 149.42 122.87 150.39 122.92 C 151.35 122.97 152.16 122.23 152.21 121.26 L 152.26 120.25 C 152.31 119.29 151.57 118.47 150.60 118.43 C 149.64 118.38 148.83 119.12 148.78 120.08 Z M 148.73 121.12 L 148.70 122.12 C 148.67 123.08 149.42 123.89 150.38 123.92 C 151.34 123.95 152.15 123.19 152.18 122.23 L 152.21 121.24 C 152.24 120.27 151.49 119.47 150.53 119.44 C 149.56 119.41 148.76 120.16 148.73 121.12 Z M 148.70 122.18 L 148.70 123.16 C 148.70 124.12 149.48 124.90 150.44 124.90 C 151.40 124.90 152.18 124.12 152.18 123.15 L 152.18 122.18 C 152.18 121.21 151.40 120.44 150.44 120.44 C 149.48 120.44 148.70 121.22 148.70 122.18 Z M 148.70 123.26 L 148.77 124.32 C 148.82 125.28 149.65 126.01 150.60 125.95 C 151.56 125.90 152.29 125.07 152.24 124.12 L 152.17 123.05 C 152.12 122.10 151.30 121.36 150.34 121.42 C 149.38 121.48 148.65 122.30 148.70 123.26 Z M 148.80 124.53 L 148.99 125.54 C 149.16 126.48 150.06 127.10 151.00 126.93 C 151.94 126.76 152.56 125.86 152.39 124.92 L 152.20 123.90 C 152.03 122.96 151.13 122.34 150.19 122.52 C 149.25 122.69 148.63 123.59 148.80 124.53 Z M 149.12 125.93 L 149.50 126.79 C 149.88 127.65 150.90 128.05 151.77 127.66 C 152.64 127.27 153.03 126.26 152.64 125.39 L 152.26 124.53 C 151.88 123.66 150.86 123.27 149.99 123.66 C 149.12 124.04 148.73 125.06 149.12 125.93 Z M 149.86 127.30 L 150.48 127.92 C 151.15 128.59 152.24 128.59 152.91 127.92 C 153.57 127.25 153.57 126.17 152.90 125.50 L 152.28 124.88 C 151.61 124.21 150.53 124.21 149.86 124.88 C 149.19 125.55 149.19 126.63 149.86 127.30 Z M 151.01 128.27 L 151.84 128.63 C 152.70 129.01 153.71 128.62 154.08 127.76 C 154.46 126.90 154.07 125.90 153.21 125.52 L 152.38 125.15 C 151.52 124.77 150.51 125.16 150.14 126.02 C 149.76 126.88 150.15 127.89 151.01 128.27 Z M 152.27 128.75 L 153.27 128.90 C 154.19 129.04 155.06 128.40 155.20 127.48 C 155.33 126.56 154.70 125.69 153.78 125.55 L 152.78 125.40 C 151.86 125.26 150.99 125.90 150.85 126.82 C 150.72 127.75 151.35 128.61 152.27 128.75 Z M 153.61 128.90 L 154.70 128.85 C 155.62 128.80 156.33 128.01 156.28 127.08 C 156.24 126.15 155.45 125.44 154.52 125.49 L 153.43 125.55 C 152.51 125.60 151.80 126.39 151.85 127.32 C 151.89 128.24 152.69 128.95 153.61 128.90 Z M 154.97 128.80 L 155.96 128.58 C 156.86 128.38 157.43 127.49 157.23 126.58 C 157.03 125.68 156.14 125.12 155.23 125.32 L 154.24 125.54 C 153.34 125.74 152.77 126.63 152.98 127.53 C 153.18 128.43 154.07 129.00 154.97 128.80 Z M 156.17 128.52 L 157.10 128.18 C 157.97 127.87 158.41 126.91 158.10 126.04 C 157.79 125.18 156.83 124.73 155.96 125.04 L 155.03 125.38 C 154.16 125.69 153.72 126.65 154.03 127.51 C 154.34 128.38 155.30 128.83 156.17 128.52 Z M 157.24 128.12 L 158.15 127.69 C 158.99 127.30 159.35 126.31 158.96 125.48 C 158.57 124.64 157.57 124.28 156.74 124.67 L 155.83 125.10 C 154.99 125.49 154.63 126.48 155.02 127.32 C 155.41 128.15 156.40 128.51 157.24 128.12 Z M 158.24 127.65 L 159.13 127.16 C 159.94 126.72 160.24 125.71 159.80 124.90 C 159.36 124.09 158.34 123.80 157.54 124.24 L 156.65 124.72 C 155.84 125.16 155.54 126.17 155.98 126.98 C 156.43 127.79 157.44 128.09 158.24 127.65 Z M 159.19 127.13 L 160.06 126.61 C 160.85 126.14 161.10 125.12 160.63 124.33 C 160.16 123.54 159.14 123.28 158.35 123.75 L 157.48 124.27 C 156.69 124.74 156.44 125.76 156.91 126.55 C 157.38 127.34 158.40 127.60 159.19 127.13 Z M 160.09 126.59 L 160.94 126.05 C 161.72 125.56 161.95 124.53 161.46 123.75 C 160.97 122.98 159.95 122.74 159.17 123.23 L 158.32 123.77 C 157.54 124.26 157.31 125.29 157.80 126.07 C 158.29 126.84 159.31 127.08 160.09 126.59 Z M 160.97 126.03 L 161.80 125.49 C 162.57 124.98 162.78 123.95 162.28 123.18 C 161.77 122.41 160.74 122.20 159.98 122.70 L 159.14 123.25 C 158.38 123.76 158.16 124.79 158.67 125.56 C 159.17 126.32 160.20 126.54 160.97 126.03 Z M 161.82 125.47 L 162.64 124.92 C 163.40 124.41 163.60 123.37 163.09 122.61 C 162.57 121.85 161.54 121.65 160.78 122.16 L 159.96 122.72 C 159.20 123.23 159.00 124.27 159.51 125.03 C 160.02 125.79 161.06 125.99 161.82 125.47 Z M 162.65 124.91 L 163.45 124.37 C 164.20 123.85 164.40 122.81 163.88 122.05 C 163.36 121.30 162.32 121.10 161.56 121.62 L 160.77 122.17 C 160.01 122.69 159.82 123.72 160.34 124.48 C 160.86 125.24 161.89 125.43 162.65 124.91 Z M 163.45 124.37 L 164.21 123.85 C 164.96 123.33 165.16 122.29 164.64 121.53 C 164.11 120.77 163.08 120.58 162.32 121.10 L 161.56 121.62 C 160.80 122.14 160.61 123.18 161.13 123.94 C 161.65 124.70 162.69 124.89 163.45 124.37 Z M 164.20 123.85 L 164.99 123.31 C 165.75 122.79 165.95 121.75 165.43 121.00 C 164.91 120.24 163.87 120.04 163.11 120.56 L 162.32 121.10 C 161.56 121.62 161.37 122.65 161.89 123.41 C 162.41 124.17 163.44 124.37 164.20 123.85 Z M 164.99 123.31 L 165.83 122.74 C 166.59 122.23 166.79 121.19 166.28 120.43 C 165.76 119.67 164.73 119.47 163.96 119.99 L 163.12 120.56 C 162.36 121.07 162.16 122.10 162.67 122.87 C 163.19 123.63 164.22 123.83 164.99 123.31 Z M 165.82 122.75 L 166.73 122.14 C 167.50 121.63 167.71 120.60 167.20 119.83 C 166.69 119.07 165.66 118.86 164.89 119.37 L 163.97 119.98 C 163.21 120.49 163.00 121.52 163.51 122.29 C 164.02 123.05 165.05 123.26 165.82 122.75 Z M 166.72 122.15 L 167.53 121.62 C 168.30 121.12 168.52 120.09 168.01 119.32 C 167.51 118.55 166.48 118.33 165.71 118.84 L 164.90 119.36 C 164.13 119.87 163.92 120.90 164.42 121.67 C 164.92 122.44 165.95 122.65 166.72 122.15 Z M 167.52 121.63 L 168.32 121.11 C 169.09 120.61 169.32 119.58 168.82 118.81 C 168.32 118.04 167.29 117.81 166.52 118.31 L 165.72 118.83 C 164.94 119.33 164.72 120.36 165.22 121.13 C 165.72 121.90 166.75 122.13 167.52 121.63 Z M 168.31 121.12 L 169.15 120.59 C 169.93 120.09 170.16 119.07 169.67 118.29 C 169.18 117.51 168.15 117.28 167.37 117.77 L 166.53 118.31 C 165.75 118.80 165.52 119.82 166.01 120.60 C 166.51 121.38 167.53 121.61 168.31 121.12 Z M 169.14 120.59 L 170.01 120.05 C 170.79 119.57 171.03 118.55 170.55 117.76 C 170.06 116.98 169.04 116.74 168.26 117.23 L 167.39 117.77 C 166.60 118.25 166.36 119.27 166.85 120.06 C 167.33 120.84 168.36 121.08 169.14 120.59 Z M 169.99 120.06 L 170.88 119.53 C 171.67 119.05 171.92 118.03 171.45 117.24 C 170.97 116.45 169.95 116.20 169.16 116.68 L 168.27 117.22 C 167.49 117.69 167.23 118.71 167.71 119.50 C 168.18 120.29 169.21 120.54 169.99 120.06 Z M 170.87 119.54 L 171.77 119.01 C 172.56 118.54 172.83 117.52 172.36 116.73 C 171.90 115.94 170.88 115.67 170.08 116.14 L 169.18 116.67 C 168.39 117.13 168.12 118.15 168.59 118.94 C 169.05 119.74 170.07 120.00 170.87 119.54 Z M 171.75 119.02 L 172.68 118.49 C 173.48 118.03 173.76 117.02 173.31 116.22 C 172.85 115.42 171.84 115.14 171.04 115.59 L 170.11 116.13 C 169.31 116.58 169.03 117.59 169.48 118.39 C 169.93 119.19 170.95 119.47 171.75 119.02 Z M 172.66 118.50 L 173.59 117.99 C 174.40 117.55 174.70 116.54 174.26 115.74 C 173.82 114.93 172.81 114.63 172.00 115.07 L 171.06 115.58 C 170.26 116.02 169.96 117.03 170.40 117.84 C 170.84 118.64 171.85 118.94 172.66 118.50 Z M 173.56 118.01 L 174.48 117.53 C 175.30 117.11 175.62 116.10 175.19 115.29 C 174.77 114.47 173.77 114.15 172.95 114.58 L 172.03 115.05 C 171.22 115.48 170.90 116.48 171.32 117.30 C 171.74 118.11 172.75 118.43 173.56 118.01 Z M 174.45 117.55 L 175.35 117.11 C 176.17 116.71 176.51 115.71 176.11 114.88 C 175.70 114.06 174.71 113.72 173.88 114.12 L 172.99 114.56 C 172.16 114.96 171.82 115.96 172.22 116.79 C 172.63 117.61 173.62 117.95 174.45 117.55 Z M 175.30 117.13 L 176.16 116.74 C 177.00 116.36 177.37 115.37 176.99 114.53 C 176.61 113.70 175.62 113.33 174.79 113.71 L 173.92 114.10 C 173.09 114.48 172.72 115.47 173.10 116.30 C 173.48 117.14 174.47 117.51 175.30 117.13 Z M 176.11 116.76 L 176.94 116.42 C 177.79 116.07 178.19 115.09 177.84 114.24 C 177.48 113.39 176.51 112.99 175.66 113.34 L 174.84 113.68 C 173.99 114.04 173.58 115.01 173.94 115.86 C 174.29 116.71 175.26 117.11 176.11 116.76 Z M 176.84 116.46 L 178.02 116.06 C 178.89 115.76 179.36 114.81 179.06 113.94 C 178.76 113.06 177.81 112.60 176.94 112.90 L 175.76 113.30 C 174.88 113.60 174.42 114.55 174.72 115.42 C 175.02 116.30 175.97 116.76 176.84 116.46 Z M 177.80 116.13 L 178.82 115.93 C 179.73 115.76 180.33 114.87 180.15 113.96 C 179.98 113.05 179.10 112.45 178.19 112.63 L 177.16 112.83 C 176.25 113.00 175.65 113.88 175.83 114.80 C 176.00 115.71 176.89 116.30 177.80 116.13 Z M 178.37 115.97 L 179.21 116.03 C 180.14 116.11 180.96 115.41 181.03 114.48 C 181.11 113.55 180.41 112.73 179.48 112.66 L 178.64 112.59 C 177.70 112.52 176.89 113.22 176.82 114.15 C 176.74 115.08 177.44 115.89 178.37 115.97 Z M 178.46 115.80 L 179.09 116.18 C 179.89 116.67 180.94 116.42 181.43 115.61 C 181.91 114.81 181.66 113.76 180.86 113.27 L 180.23 112.89 C 179.43 112.40 178.38 112.66 177.89 113.46 C 177.40 114.26 177.66 115.31 178.46 115.80 Z M 178.51 115.61 L 178.93 116.30 C 179.41 117.11 180.46 117.37 181.27 116.89 C 182.08 116.40 182.34 115.35 181.85 114.54 L 181.44 113.85 C 180.95 113.04 179.90 112.78 179.09 113.26 C 178.28 113.75 178.02 114.80 178.51 115.61 Z M 178.74 115.87 L 179.00 116.83 C 179.25 117.74 180.19 118.28 181.10 118.03 C 182.01 117.78 182.55 116.84 182.30 115.93 L 182.04 114.97 C 181.79 114.06 180.85 113.53 179.94 113.77 C 179.03 114.02 178.49 114.96 178.74 115.87 Z M 178.95 116.60 L 179.10 117.76 C 179.22 118.70 180.08 119.36 181.02 119.24 C 181.96 119.11 182.62 118.25 182.50 117.32 L 182.35 116.16 C 182.23 115.22 181.37 114.56 180.43 114.68 C 179.49 114.80 178.83 115.66 178.95 116.60 Z M 179.09 117.65 L 179.16 118.72 C 179.23 119.66 180.05 120.38 180.99 120.31 C 181.94 120.25 182.65 119.43 182.58 118.48 L 182.51 117.42 C 182.45 116.48 181.63 115.76 180.68 115.83 C 179.74 115.89 179.03 116.71 179.09 117.65 Z M 179.16 118.67 L 179.20 119.65 C 179.24 120.60 180.03 121.34 180.98 121.30 C 181.93 121.26 182.66 120.46 182.63 119.52 L 182.59 118.53 C 182.55 117.59 181.75 116.85 180.81 116.89 C 179.86 116.92 179.12 117.72 179.16 118.67 Z M 179.20 119.62 L 179.22 120.63 C 179.24 121.58 180.02 122.33 180.97 122.31 C 181.91 122.30 182.67 121.51 182.65 120.57 L 182.63 119.55 C 182.61 118.61 181.83 117.85 180.88 117.87 C 179.93 117.89 179.18 118.67 179.20 119.62 Z M 179.22 120.61 L 179.22 121.63 C 179.23 122.58 180.00 123.34 180.95 123.34 C 181.89 123.33 182.66 122.56 182.65 121.61 L 182.65 120.59 C 182.64 119.64 181.87 118.88 180.92 118.89 C 179.98 118.89 179.21 119.66 179.22 120.61 Z M 179.22 121.61 L 179.22 122.63 C 179.21 123.57 179.98 124.34 180.92 124.35 C 181.87 124.36 182.64 123.59 182.65 122.64 L 182.65 121.63 C 182.66 120.69 181.89 119.91 180.95 119.91 C 180.00 119.90 179.23 120.67 179.22 121.61 Z M 179.22 122.61 L 179.21 123.61 C 179.19 124.55 179.95 125.33 180.90 125.34 C 181.84 125.36 182.62 124.60 182.63 123.65 L 182.65 122.66 C 182.66 121.71 181.90 120.93 180.95 120.92 C 180.01 120.91 179.23 121.67 179.22 122.61 Z M 179.21 123.59 L 179.19 124.57 C 179.16 125.51 179.91 126.30 180.85 126.32 C 181.80 126.34 182.58 125.60 182.60 124.65 L 182.63 123.67 C 182.65 122.73 181.90 121.94 180.96 121.92 C 180.02 121.90 179.23 122.65 179.21 123.59 Z M 179.19 124.53 L 179.15 125.51 C 179.11 126.45 179.83 127.24 180.78 127.28 C 181.72 127.33 182.51 126.60 182.56 125.66 L 182.60 124.69 C 182.64 123.75 181.91 122.95 180.97 122.91 C 180.03 122.86 179.23 123.59 179.19 124.53 Z M 179.16 125.46 L 179.08 126.44 C 179.01 127.38 179.72 128.19 180.65 128.26 C 181.59 128.33 182.41 127.63 182.47 126.69 L 182.55 125.71 C 182.62 124.77 181.91 123.95 180.98 123.89 C 180.04 123.82 179.22 124.52 179.16 125.46 Z M 179.09 126.38 L 178.98 127.40 C 178.88 128.33 179.55 129.17 180.48 129.27 C 181.41 129.37 182.25 128.70 182.35 127.77 L 182.46 126.75 C 182.57 125.82 181.89 124.98 180.96 124.88 C 180.03 124.78 179.20 125.45 179.09 126.38 Z M 178.99 127.34 L 178.85 128.35 C 178.71 129.27 179.35 130.13 180.27 130.27 C 181.20 130.40 182.05 129.77 182.19 128.84 L 182.34 127.83 C 182.48 126.91 181.84 126.05 180.91 125.91 C 179.99 125.78 179.13 126.42 178.99 127.34 Z M 178.86 128.30 L 178.68 129.29 C 178.52 130.21 179.13 131.08 180.04 131.24 C 180.96 131.41 181.83 130.80 182.00 129.88 L 182.18 128.89 C 182.34 127.98 181.73 127.10 180.82 126.94 C 179.90 126.77 179.02 127.38 178.86 128.30 Z M 178.70 129.25 L 178.49 130.26 C 178.31 131.17 178.89 132.05 179.80 132.24 C 180.71 132.42 181.59 131.84 181.78 130.93 L 181.98 129.92 C 182.17 129.01 181.58 128.13 180.68 127.94 C 179.77 127.76 178.88 128.34 178.70 129.25 Z M 178.51 130.23 L 178.28 131.24 C 178.08 132.14 178.65 133.03 179.55 133.23 C 180.44 133.43 181.34 132.87 181.54 131.97 L 181.76 130.96 C 181.97 130.06 181.40 129.17 180.50 128.97 C 179.60 128.77 178.71 129.33 178.51 130.23 Z M 178.29 131.21 L 178.06 132.19 C 177.84 133.08 178.39 133.98 179.28 134.19 C 180.18 134.41 181.08 133.86 181.29 132.97 L 181.53 131.99 C 181.74 131.10 181.19 130.20 180.30 129.98 C 179.41 129.77 178.51 130.32 178.29 131.21 Z M 178.07 132.17 L 177.83 133.09 C 177.61 133.98 178.14 134.88 179.02 135.11 C 179.91 135.33 180.81 134.80 181.04 133.91 L 181.28 132.99 C 181.51 132.10 180.97 131.20 180.09 130.97 C 179.20 130.75 178.30 131.28 178.07 132.17 Z M 177.85 133.07 L 177.56 134.13 C 177.32 135.01 177.83 135.92 178.71 136.16 C 179.59 136.40 180.49 135.88 180.73 135.00 L 181.02 133.94 C 181.26 133.06 180.75 132.15 179.87 131.91 C 178.99 131.67 178.09 132.19 177.85 133.07 Z M 177.58 134.10 L 177.28 135.10 C 177.03 135.97 177.52 136.88 178.39 137.13 C 179.25 137.39 180.16 136.89 180.41 136.03 L 180.71 135.03 C 180.97 134.17 180.47 133.26 179.61 133.00 C 178.74 132.75 177.84 133.24 177.58 134.10 Z M 177.31 135.07 L 177.01 135.99 C 176.74 136.84 177.20 137.75 178.05 138.02 C 178.90 138.30 179.82 137.83 180.09 136.98 L 180.39 136.06 C 180.66 135.21 180.20 134.30 179.35 134.03 C 178.50 133.75 177.58 134.22 177.31 135.07 Z M 177.04 135.95 L 176.73 136.82 C 176.44 137.65 176.88 138.57 177.71 138.87 C 178.55 139.16 179.46 138.72 179.76 137.89 L 180.07 137.02 C 180.36 136.18 179.92 135.27 179.09 134.97 C 178.25 134.68 177.33 135.11 177.04 135.95 Z M 176.76 136.78 L 176.41 137.69 C 176.10 138.51 176.51 139.43 177.33 139.75 C 178.15 140.06 179.07 139.65 179.38 138.83 L 179.73 137.92 C 180.05 137.10 179.64 136.18 178.82 135.86 C 178.00 135.55 177.07 135.96 176.76 136.78 Z M 176.44 137.65 L 176.04 138.59 C 175.70 139.40 176.08 140.33 176.89 140.67 C 177.69 141.00 178.62 140.62 178.96 139.82 L 179.36 138.87 C 179.70 138.07 179.32 137.14 178.51 136.80 C 177.70 136.46 176.78 136.84 176.44 137.65 Z M 176.07 138.54 L 175.65 139.45 C 175.28 140.24 175.62 141.17 176.41 141.54 C 177.20 141.91 178.14 141.57 178.50 140.78 L 178.93 139.87 C 179.30 139.08 178.96 138.14 178.17 137.78 C 177.38 137.41 176.44 137.75 176.07 138.54 Z M 175.69 139.38 L 175.24 140.24 C 174.83 141.00 175.12 141.95 175.89 142.36 C 176.66 142.76 177.61 142.47 178.01 141.70 L 178.46 140.85 C 178.87 140.08 178.58 139.13 177.81 138.73 C 177.04 138.32 176.09 138.61 175.69 139.38 Z M 175.29 140.15 L 174.75 141.03 C 174.30 141.76 174.53 142.73 175.27 143.18 C 176.01 143.63 176.97 143.40 177.42 142.66 L 177.96 141.79 C 178.41 141.05 178.18 140.09 177.44 139.64 C 176.71 139.19 175.74 139.42 175.29 140.15 Z M 174.82 140.93 L 174.23 141.75 C 173.72 142.45 173.88 143.42 174.58 143.93 C 175.28 144.43 176.26 144.28 176.76 143.58 L 177.36 142.76 C 177.86 142.06 177.70 141.08 177.00 140.58 C 176.30 140.07 175.33 140.23 174.82 140.93 Z M 174.30 141.66 L 173.68 142.40 C 173.12 143.06 173.20 144.05 173.86 144.60 C 174.53 145.16 175.51 145.07 176.07 144.41 L 176.69 143.67 C 177.25 143.01 177.16 142.02 176.50 141.47 C 175.84 140.91 174.86 141.00 174.30 141.66 Z M 173.75 142.32 L 173.08 143.02 C 172.48 143.64 172.50 144.62 173.12 145.22 C 173.74 145.82 174.72 145.81 175.32 145.18 L 175.99 144.49 C 176.59 143.87 176.58 142.88 175.95 142.28 C 175.33 141.69 174.35 141.70 173.75 142.32 Z M 173.16 142.94 L 172.43 143.59 C 171.79 144.17 171.74 145.15 172.31 145.79 C 172.89 146.44 173.88 146.49 174.52 145.91 L 175.24 145.26 C 175.89 144.69 175.94 143.70 175.36 143.06 C 174.79 142.42 173.80 142.36 173.16 142.94 Z M 172.53 143.51 L 171.73 144.11 C 171.05 144.64 170.91 145.61 171.44 146.30 C 171.96 146.99 172.94 147.12 173.62 146.60 L 174.42 145.99 C 175.11 145.47 175.24 144.49 174.72 143.81 C 174.20 143.12 173.22 142.99 172.53 143.51 Z M 171.84 144.04 L 170.98 144.59 C 170.25 145.05 170.03 146.01 170.49 146.74 C 170.95 147.47 171.92 147.69 172.65 147.22 L 173.51 146.68 C 174.24 146.21 174.46 145.25 174.00 144.52 C 173.54 143.79 172.57 143.58 171.84 144.04 Z M 171.09 144.52 L 170.22 144.98 C 169.46 145.38 169.16 146.32 169.56 147.08 C 169.96 147.85 170.91 148.14 171.67 147.74 L 172.54 147.29 C 173.30 146.89 173.59 145.95 173.19 145.18 C 172.79 144.42 171.85 144.12 171.09 144.52 Z M 170.35 144.92 L 169.42 145.30 C 168.62 145.63 168.24 146.54 168.57 147.33 C 168.90 148.13 169.81 148.51 170.61 148.19 L 171.54 147.80 C 172.34 147.48 172.72 146.56 172.39 145.77 C 172.06 144.97 171.15 144.59 170.35 144.92 Z M 169.59 145.24 L 168.61 145.52 C 167.78 145.75 167.30 146.61 167.53 147.44 C 167.77 148.27 168.63 148.76 169.46 148.52 L 170.44 148.24 C 171.27 148.01 171.75 147.15 171.52 146.32 C 171.28 145.49 170.42 145.01 169.59 145.24 Z M 168.83 145.47 L 167.81 145.61 C 166.95 145.73 166.35 146.51 166.47 147.37 C 166.59 148.22 167.37 148.82 168.23 148.70 L 169.25 148.57 C 170.10 148.45 170.70 147.66 170.58 146.81 C 170.47 145.95 169.68 145.36 168.83 145.47 Z M 168.07 145.60 L 167.04 145.56 C 166.18 145.54 165.46 146.21 165.43 147.08 C 165.41 147.94 166.08 148.66 166.95 148.68 L 167.97 148.72 C 168.83 148.74 169.55 148.07 169.58 147.21 C 169.60 146.34 168.93 145.62 168.07 145.60 Z M 167.34 145.60 L 166.38 145.38 C 165.54 145.19 164.70 145.71 164.51 146.55 C 164.31 147.39 164.84 148.23 165.68 148.42 L 166.64 148.65 C 167.48 148.84 168.32 148.31 168.51 147.47 C 168.71 146.63 168.18 145.80 167.34 145.60 Z M 166.73 145.51 L 165.87 145.08 C 165.10 144.69 164.16 145.00 163.78 145.77 C 163.39 146.54 163.70 147.48 164.47 147.87 L 165.33 148.30 C 166.10 148.68 167.04 148.37 167.42 147.60 C 167.81 146.83 167.50 145.89 166.73 145.51 Z M 166.22 145.31 L 165.52 144.68 C 164.88 144.11 163.89 144.16 163.32 144.80 C 162.74 145.44 162.79 146.42 163.43 147.00 L 164.13 147.63 C 164.77 148.21 165.75 148.16 166.33 147.52 C 166.91 146.88 166.86 145.89 166.22 145.31 Z M 165.73 144.92 L 165.15 144.13 C 164.65 143.43 163.67 143.28 162.97 143.79 C 162.28 144.30 162.13 145.28 162.64 145.97 L 163.22 146.77 C 163.72 147.46 164.70 147.61 165.40 147.10 C 166.09 146.59 166.24 145.62 165.73 144.92 Z M 165.25 144.28 L 164.75 143.39 C 164.33 142.64 163.37 142.38 162.62 142.80 C 161.87 143.22 161.61 144.17 162.03 144.93 L 162.54 145.82 C 162.96 146.57 163.91 146.83 164.66 146.41 C 165.41 145.99 165.68 145.04 165.25 144.28 Z M 164.78 143.45 L 164.44 142.77 C 164.05 142.00 163.11 141.69 162.34 142.08 C 161.57 142.47 161.26 143.41 161.65 144.18 L 162.00 144.86 C 162.39 145.63 163.33 145.94 164.10 145.55 C 164.87 145.16 165.17 144.22 164.78 143.45 Z"
      fill="black"
      fill-rule="nonzero" /><path d="M 164.03 127.99 L 163.47 128.85 C 162.98 129.63 163.21 130.66 163.98 131.15 C 164.76 131.65 165.79 131.42 166.28 130.65 L 166.84 129.78 C 167.33 129.00 167.10 127.97 166.33 127.48 C 165.55 126.98 164.52 127.21 164.03 127.99 Z M 163.45 128.84 L 162.90 129.70 C 162.40 130.49 162.63 131.54 163.42 132.04 C 164.21 132.54 165.26 132.31 165.76 131.52 L 166.31 130.66 C 166.81 129.87 166.58 128.82 165.79 128.32 C 165.00 127.82 163.95 128.05 163.45 128.84 Z M 162.87 129.69 L 162.35 130.53 C 161.84 131.34 162.09 132.40 162.89 132.91 C 163.70 133.41 164.76 133.17 165.27 132.36 L 165.79 131.52 C 166.30 130.72 166.05 129.65 165.25 129.15 C 164.44 128.64 163.38 128.89 162.87 129.69 Z M 162.32 130.53 L 161.81 131.36 C 161.30 132.18 161.56 133.26 162.39 133.76 C 163.21 134.27 164.29 134.01 164.79 133.19 L 165.30 132.36 C 165.80 131.54 165.54 130.46 164.72 129.96 C 163.90 129.45 162.82 129.71 162.32 130.53 Z M 161.78 131.37 L 161.27 132.23 C 160.77 133.07 161.05 134.15 161.89 134.65 C 162.73 135.15 163.81 134.87 164.31 134.03 L 164.82 133.18 C 165.32 132.34 165.04 131.25 164.20 130.76 C 163.36 130.26 162.28 130.53 161.78 131.37 Z M 161.25 132.25 L 160.76 133.10 C 160.27 133.95 160.57 135.03 161.42 135.52 C 162.27 136.01 163.35 135.72 163.84 134.87 L 164.33 134.01 C 164.82 133.16 164.52 132.08 163.67 131.59 C 162.82 131.11 161.74 131.40 161.25 132.25 Z M 160.74 133.12 L 160.26 134.00 C 159.78 134.86 160.09 135.94 160.95 136.42 C 161.81 136.90 162.89 136.59 163.37 135.73 L 163.86 134.85 C 164.34 133.99 164.02 132.90 163.16 132.43 C 162.30 131.95 161.22 132.26 160.74 133.12 Z M 160.24 134.01 L 159.79 134.86 C 159.32 135.73 159.64 136.81 160.51 137.28 C 161.38 137.75 162.46 137.42 162.93 136.55 L 163.39 135.71 C 163.85 134.84 163.53 133.76 162.66 133.29 C 161.79 132.82 160.71 133.15 160.24 134.01 Z M 159.77 134.88 L 159.32 135.74 C 158.86 136.62 159.20 137.70 160.08 138.15 C 160.95 138.61 162.04 138.27 162.49 137.40 L 162.94 136.54 C 163.40 135.66 163.06 134.58 162.19 134.12 C 161.31 133.66 160.23 134.00 159.77 134.88 Z M 159.31 135.76 L 158.85 136.67 C 158.41 137.55 158.76 138.63 159.65 139.07 C 160.53 139.52 161.61 139.16 162.05 138.28 L 162.51 137.38 C 162.95 136.49 162.60 135.41 161.71 134.97 C 160.83 134.52 159.75 134.88 159.31 135.76 Z M 158.84 136.69 L 158.38 137.64 C 157.95 138.53 158.32 139.60 159.22 140.03 C 160.11 140.46 161.18 140.09 161.61 139.20 L 162.07 138.25 C 162.50 137.36 162.12 136.29 161.23 135.86 C 160.34 135.43 159.27 135.80 158.84 136.69 Z M 158.37 137.67 L 157.96 138.56 C 157.54 139.46 157.94 140.52 158.84 140.94 C 159.74 141.35 160.80 140.96 161.21 140.06 L 161.63 139.17 C 162.04 138.27 161.65 137.20 160.75 136.79 C 159.85 136.37 158.78 136.77 158.37 137.67 Z M 157.94 138.59 L 157.55 139.48 C 157.15 140.39 157.57 141.45 158.47 141.85 C 159.38 142.24 160.44 141.83 160.84 140.92 L 161.23 140.03 C 161.63 139.12 161.21 138.06 160.31 137.67 C 159.40 137.27 158.34 137.68 157.94 138.59 Z M 157.54 139.51 L 157.15 140.43 C 156.77 141.35 157.20 142.40 158.12 142.78 C 159.03 143.16 160.08 142.73 160.47 141.82 L 160.85 140.89 C 161.23 139.98 160.80 138.93 159.89 138.55 C 158.97 138.16 157.92 138.60 157.54 139.51 Z M 157.14 140.46 L 156.76 141.41 C 156.40 142.34 156.85 143.38 157.77 143.74 C 158.69 144.11 159.73 143.66 160.10 142.74 L 160.48 141.79 C 160.84 140.86 160.39 139.82 159.47 139.46 C 158.55 139.09 157.51 139.54 157.14 140.46 Z M 156.75 141.44 L 156.38 142.42 C 156.03 143.35 156.50 144.38 157.43 144.73 C 158.36 145.08 159.39 144.61 159.74 143.69 L 160.11 142.71 C 160.46 141.78 159.99 140.75 159.06 140.40 C 158.14 140.05 157.10 140.52 156.75 141.44 Z M 156.38 142.45 L 156.02 143.43 C 155.69 144.36 156.17 145.38 157.10 145.72 C 158.03 146.05 159.06 145.57 159.39 144.64 L 159.75 143.66 C 160.08 142.73 159.60 141.70 158.67 141.37 C 157.74 141.03 156.71 141.51 156.38 142.45 Z M 156.02 143.45 L 155.68 144.42 C 155.36 145.36 155.85 146.38 156.78 146.70 C 157.72 147.02 158.73 146.53 159.06 145.60 L 159.40 144.62 C 159.72 143.69 159.23 142.67 158.30 142.35 C 157.36 142.02 156.35 142.51 156.02 143.45 Z M 155.68 144.44 L 155.36 145.39 C 155.04 146.32 155.54 147.34 156.48 147.65 C 157.41 147.97 158.42 147.47 158.74 146.53 L 159.06 145.58 C 159.37 144.65 158.87 143.64 157.94 143.32 C 157.01 143.01 156.00 143.51 155.68 144.44 Z M 155.36 145.40 L 155.06 146.30 C 154.75 147.23 155.26 148.24 156.19 148.55 C 157.12 148.86 158.13 148.35 158.44 147.42 L 158.74 146.52 C 159.04 145.59 158.54 144.58 157.61 144.27 C 156.67 143.97 155.67 144.47 155.36 145.40 Z M 155.07 146.31 L 154.76 147.25 C 154.46 148.18 154.97 149.18 155.90 149.48 C 156.82 149.79 157.82 149.28 158.13 148.35 L 158.43 147.41 C 158.74 146.48 158.23 145.48 157.30 145.18 C 156.37 144.87 155.37 145.38 155.07 146.31 Z M 154.77 147.27 L 154.47 148.19 C 154.18 149.12 154.69 150.11 155.62 150.40 C 156.55 150.69 157.54 150.18 157.83 149.25 L 158.12 148.33 C 158.41 147.40 157.90 146.42 156.98 146.12 C 156.05 145.83 155.06 146.34 154.77 147.27 Z M 154.48 148.23 L 154.20 149.15 C 153.93 150.07 154.45 151.04 155.38 151.32 C 156.30 151.60 157.27 151.07 157.55 150.15 L 157.83 149.22 C 158.10 148.30 157.57 147.33 156.65 147.05 C 155.73 146.78 154.75 147.30 154.48 148.23 Z M 154.21 149.19 L 153.93 150.18 C 153.68 151.11 154.22 152.06 155.14 152.31 C 156.06 152.57 157.02 152.03 157.27 151.10 L 157.55 150.11 C 157.80 149.18 157.26 148.23 156.34 147.97 C 155.41 147.72 154.46 148.26 154.21 149.19 Z M 153.93 150.21 L 153.73 151.02 C 153.49 151.94 154.04 152.88 154.97 153.12 C 155.89 153.35 156.83 152.80 157.07 151.88 L 157.27 151.07 C 157.51 150.15 156.95 149.21 156.03 148.97 C 155.11 148.74 154.17 149.29 153.93 150.21 Z M 153.73 151.04 L 153.52 151.89 C 153.29 152.81 153.86 153.74 154.78 153.97 C 155.70 154.19 156.63 153.63 156.86 152.71 L 157.07 151.85 C 157.29 150.93 156.72 150.00 155.80 149.78 C 154.88 149.55 153.95 150.12 153.73 151.04 Z M 153.52 151.91 L 153.30 152.85 C 153.09 153.77 153.66 154.69 154.58 154.91 C 155.50 155.12 156.43 154.55 156.64 153.62 L 156.86 152.69 C 157.07 151.76 156.50 150.84 155.58 150.63 C 154.65 150.42 153.73 150.99 153.52 151.91 Z M 153.30 152.87 L 153.07 153.90 C 152.87 154.82 153.45 155.73 154.37 155.93 C 155.29 156.14 156.20 155.56 156.41 154.64 L 156.64 153.61 C 156.84 152.69 156.26 151.77 155.34 151.57 C 154.42 151.36 153.51 151.94 153.30 152.87 Z M 153.08 153.91 L 152.83 155.04 C 152.64 155.96 153.22 156.86 154.14 157.06 C 155.06 157.26 155.97 156.67 156.17 155.75 L 156.41 154.62 C 156.60 153.70 156.02 152.80 155.10 152.60 C 154.18 152.40 153.27 152.99 153.08 153.91 Z M 152.84 155.05 L 152.61 156.13 C 152.42 157.05 153.02 157.95 153.93 158.14 C 154.85 158.32 155.75 157.73 155.94 156.82 L 156.16 155.74 C 156.35 154.82 155.76 153.92 154.84 153.73 C 153.93 153.54 153.03 154.13 152.84 155.05 Z M 152.62 156.14 L 152.43 157.08 C 152.25 158.00 152.84 158.89 153.75 159.07 C 154.67 159.26 155.56 158.66 155.75 157.75 L 155.94 156.81 C 156.12 155.89 155.53 155.00 154.61 154.81 C 153.70 154.63 152.80 155.22 152.62 156.14 Z M 152.44 157.09 L 152.24 158.07 C 152.06 158.98 152.65 159.87 153.57 160.05 C 154.48 160.23 155.36 159.63 155.54 158.72 L 155.74 157.74 C 155.92 156.83 155.33 155.94 154.41 155.76 C 153.50 155.58 152.62 156.18 152.44 157.09 Z M 152.25 158.07 L 152.05 159.08 C 151.88 159.99 152.47 160.87 153.38 161.04 C 154.29 161.22 155.17 160.63 155.34 159.72 L 155.54 158.72 C 155.72 157.81 155.12 156.93 154.21 156.75 C 153.31 156.57 152.43 157.17 152.25 158.07 Z M 152.06 159.08 L 151.86 160.10 C 151.69 161.00 152.28 161.87 153.19 162.05 C 154.09 162.22 154.97 161.63 155.14 160.73 L 155.34 159.71 C 155.51 158.81 154.92 157.93 154.01 157.76 C 153.11 157.59 152.23 158.18 152.06 159.08 Z M 151.87 160.10 L 151.68 161.11 C 151.51 162.01 152.10 162.88 153.00 163.05 C 153.90 163.22 154.77 162.63 154.94 161.73 L 155.13 160.72 C 155.31 159.82 154.71 158.95 153.81 158.78 C 152.91 158.61 152.04 159.20 151.87 160.10 Z M 151.69 161.11 L 151.50 162.11 C 151.33 163.01 151.92 163.87 152.82 164.04 C 153.71 164.21 154.58 163.62 154.75 162.72 L 154.93 161.73 C 155.10 160.83 154.51 159.97 153.62 159.80 C 152.72 159.63 151.86 160.22 151.69 161.11 Z M 151.51 162.11 L 151.32 163.08 C 151.16 163.97 151.74 164.83 152.64 165.00 C 153.53 165.16 154.39 164.58 154.56 163.68 L 154.74 162.72 C 154.91 161.83 154.32 160.97 153.43 160.80 C 152.53 160.63 151.67 161.22 151.51 162.11 Z M 151.33 163.08 L 151.13 164.19 C 150.96 165.07 151.55 165.93 152.44 166.09 C 153.32 166.26 154.18 165.67 154.34 164.78 L 154.55 163.68 C 154.72 162.79 154.13 161.94 153.24 161.77 C 152.35 161.61 151.50 162.19 151.33 163.08 Z M 151.14 164.19 L 150.94 165.26 C 150.78 166.14 151.36 166.99 152.25 167.15 C 153.13 167.31 153.98 166.73 154.14 165.85 L 154.33 164.78 C 154.50 163.90 153.91 163.05 153.03 162.89 C 152.15 162.72 151.30 163.31 151.14 164.19 Z M 150.95 165.27 L 150.77 166.28 C 150.61 167.16 151.19 168.00 152.07 168.15 C 152.95 168.31 153.79 167.73 153.95 166.85 L 154.13 165.84 C 154.29 164.96 153.70 164.12 152.83 163.96 C 151.95 163.80 151.11 164.39 150.95 165.27 Z M 150.78 166.29 L 150.61 167.25 C 150.45 168.12 151.04 168.95 151.91 169.11 C 152.79 169.26 153.62 168.67 153.77 167.80 L 153.94 166.84 C 154.09 165.97 153.51 165.13 152.63 164.98 C 151.76 164.83 150.93 165.41 150.78 166.29 Z M 150.62 167.26 L 150.46 168.18 C 150.32 169.05 150.90 169.87 151.77 170.01 C 152.64 170.16 153.46 169.57 153.61 168.71 L 153.76 167.79 C 153.91 166.92 153.32 166.10 152.45 165.95 C 151.58 165.81 150.76 166.39 150.62 167.26 Z M 150.47 168.19 L 150.33 169.07 C 150.19 169.93 150.78 170.75 151.65 170.88 C 152.51 171.02 153.32 170.43 153.46 169.57 L 153.60 168.69 C 153.74 167.83 153.15 167.01 152.28 166.88 C 151.42 166.74 150.61 167.33 150.47 168.19 Z M 150.34 169.09 L 150.19 170.09 C 150.06 170.95 150.65 171.75 151.52 171.88 C 152.38 172.00 153.18 171.41 153.31 170.55 L 153.45 169.55 C 153.58 168.69 152.99 167.89 152.13 167.76 C 151.26 167.63 150.46 168.23 150.34 169.09 Z M 150.19 170.11 L 150.05 171.12 C 149.94 171.98 150.54 172.77 151.40 172.89 C 152.26 173.00 153.05 172.40 153.17 171.54 L 153.31 170.53 C 153.42 169.67 152.82 168.87 151.96 168.76 C 151.10 168.64 150.30 169.25 150.19 170.11 Z M 150.05 171.14 L 149.93 172.13 C 149.83 172.99 150.44 173.77 151.31 173.87 C 152.17 173.98 152.95 173.36 153.05 172.50 L 153.17 171.52 C 153.27 170.66 152.66 169.88 151.80 169.77 C 150.94 169.67 150.16 170.28 150.05 171.14 Z M 149.93 172.15 L 149.83 173.12 C 149.74 173.98 150.36 174.75 151.23 174.84 C 152.09 174.94 152.86 174.31 152.95 173.45 L 153.05 172.48 C 153.14 171.62 152.52 170.85 151.66 170.76 C 150.80 170.67 150.03 171.29 149.93 172.15 Z M 149.83 173.14 L 149.74 174.11 C 149.66 174.97 150.30 175.73 151.16 175.81 C 152.02 175.89 152.78 175.26 152.86 174.40 L 152.95 173.43 C 153.03 172.57 152.39 171.81 151.53 171.73 C 150.67 171.65 149.91 172.28 149.83 173.14 Z M 149.74 174.13 L 149.67 175.11 C 149.60 175.97 150.24 176.72 151.10 176.79 C 151.96 176.86 152.71 176.22 152.78 175.36 L 152.86 174.38 C 152.93 173.52 152.28 172.76 151.42 172.70 C 150.56 172.63 149.81 173.27 149.74 174.13 Z M 149.66 175.13 L 149.60 176.12 C 149.54 176.98 150.19 177.72 151.05 177.78 C 151.91 177.84 152.65 177.19 152.71 176.33 L 152.78 175.34 C 152.84 174.48 152.19 173.74 151.33 173.68 C 150.47 173.62 149.72 174.27 149.66 175.13 Z M 149.60 176.13 L 149.53 177.13 C 149.48 177.99 150.13 178.73 151.00 178.78 C 151.86 178.84 152.60 178.18 152.65 177.32 L 152.71 176.32 C 152.77 175.46 152.11 174.72 151.25 174.67 C 150.39 174.61 149.65 175.27 149.60 176.13 Z M 149.53 177.14 L 149.48 178.14 C 149.43 179.00 150.08 179.74 150.95 179.79 C 151.81 179.84 152.54 179.18 152.59 178.32 L 152.65 177.31 C 152.70 176.45 152.04 175.72 151.18 175.67 C 150.32 175.62 149.58 176.28 149.53 177.14 Z M 149.48 178.14 L 149.42 179.15 C 149.37 180.01 150.03 180.75 150.89 180.79 C 151.76 180.84 152.49 180.18 152.54 179.32 L 152.59 178.31 C 152.64 177.45 151.98 176.72 151.12 176.67 C 150.26 176.62 149.52 177.28 149.48 178.14 Z M 149.42 179.15 L 149.42 179.21 C 149.37 180.07 150.03 180.81 150.89 180.85 C 151.75 180.90 152.49 180.24 152.53 179.38 L 152.54 179.32 C 152.58 178.46 151.92 177.72 151.06 177.68 C 150.20 177.63 149.47 178.29 149.42 179.15 Z"
      fill="black"
      fill-rule="nonzero" /><path d="M 157.47 148.10 L 158.54 148.01 C 159.41 147.94 160.05 147.18 159.98 146.31 C 159.91 145.45 159.15 144.80 158.29 144.87 L 157.22 144.96 C 156.35 145.03 155.70 145.79 155.77 146.65 C 155.84 147.52 156.60 148.17 157.47 148.10 Z M 158.50 148.04 L 159.54 147.99 C 160.43 147.94 161.11 147.19 161.06 146.30 C 161.02 145.42 160.26 144.74 159.38 144.78 L 158.33 144.84 C 157.45 144.88 156.77 145.64 156.81 146.52 C 156.86 147.41 157.61 148.09 158.50 148.04 Z M 159.44 148.02 L 160.43 148.03 C 161.33 148.04 162.07 147.32 162.08 146.42 C 162.09 145.52 161.37 144.78 160.47 144.77 L 159.48 144.75 C 158.58 144.74 157.84 145.46 157.83 146.37 C 157.82 147.27 158.54 148.01 159.44 148.02 Z M 160.25 148.05 L 161.16 148.16 C 162.07 148.27 162.90 147.62 163.01 146.71 C 163.12 145.80 162.48 144.97 161.57 144.86 L 160.65 144.75 C 159.74 144.64 158.91 145.29 158.80 146.20 C 158.69 147.11 159.34 147.94 160.25 148.05 Z M 160.87 148.13 L 161.73 148.39 C 162.63 148.66 163.57 148.16 163.84 147.26 C 164.11 146.37 163.61 145.43 162.72 145.16 L 161.86 144.90 C 160.96 144.62 160.02 145.13 159.75 146.02 C 159.48 146.91 159.98 147.85 160.87 148.13 Z M 161.41 148.28 L 162.21 148.71 C 163.05 149.16 164.09 148.85 164.54 148.01 C 164.98 147.18 164.67 146.14 163.84 145.69 L 163.04 145.26 C 162.20 144.81 161.16 145.13 160.72 145.96 C 160.27 146.79 160.58 147.83 161.41 148.28 Z M 161.99 148.60 L 162.77 149.18 C 163.54 149.75 164.63 149.59 165.21 148.82 C 165.78 148.05 165.62 146.96 164.85 146.39 L 164.06 145.81 C 163.29 145.23 162.20 145.39 161.63 146.16 C 161.06 146.94 161.22 148.03 161.99 148.60 Z M 162.66 149.12 L 163.49 149.85 C 164.23 150.48 165.35 150.40 165.98 149.66 C 166.62 148.93 166.54 147.81 165.80 147.17 L 164.96 146.45 C 164.22 145.81 163.11 145.89 162.47 146.63 C 161.84 147.37 161.92 148.48 162.66 149.12 Z M 163.46 149.84 L 164.17 150.47 C 164.91 151.13 166.04 151.06 166.69 150.33 C 167.35 149.59 167.28 148.46 166.54 147.81 L 165.83 147.18 C 165.10 146.52 163.97 146.59 163.32 147.32 C 162.66 148.06 162.73 149.19 163.46 149.84 Z M 164.17 150.48 L 164.86 151.10 C 165.60 151.76 166.74 151.69 167.39 150.94 C 168.05 150.20 167.98 149.07 167.24 148.41 L 166.55 147.80 C 165.81 147.14 164.67 147.21 164.02 147.95 C 163.36 148.69 163.43 149.83 164.17 150.48 Z M 164.86 151.11 L 165.60 151.76 C 166.35 152.42 167.49 152.34 168.15 151.59 C 168.80 150.85 168.73 149.71 167.98 149.05 L 167.24 148.40 C 166.49 147.74 165.35 147.82 164.70 148.57 C 164.04 149.32 164.11 150.45 164.86 151.11 Z M 165.61 151.77 L 166.39 152.45 C 167.14 153.10 168.29 153.02 168.94 152.26 C 169.60 151.51 169.51 150.37 168.76 149.71 L 167.98 149.04 C 167.22 148.38 166.08 148.47 165.42 149.22 C 164.77 149.98 164.85 151.12 165.61 151.77 Z M 166.40 152.47 L 167.21 153.16 C 167.97 153.81 169.12 153.71 169.77 152.95 C 170.42 152.18 170.33 151.03 169.56 150.38 L 168.75 149.69 C 167.98 149.04 166.84 149.14 166.19 149.90 C 165.54 150.67 165.63 151.82 166.40 152.47 Z M 167.22 153.18 L 168.05 153.87 C 168.83 154.51 169.98 154.40 170.62 153.63 C 171.27 152.85 171.16 151.70 170.38 151.05 L 169.55 150.36 C 168.77 149.72 167.62 149.83 166.98 150.60 C 166.34 151.38 166.44 152.53 167.22 153.18 Z M 168.07 153.89 L 168.90 154.56 C 169.69 155.19 170.84 155.07 171.48 154.28 C 172.11 153.49 171.99 152.34 171.20 151.71 L 170.37 151.03 C 169.58 150.40 168.43 150.52 167.79 151.31 C 167.16 152.10 167.28 153.25 168.07 153.89 Z M 168.92 154.57 L 169.75 155.23 C 170.55 155.85 171.70 155.71 172.32 154.92 C 172.95 154.12 172.81 152.97 172.02 152.34 L 171.18 151.69 C 170.39 151.07 169.23 151.20 168.61 152.00 C 167.98 152.80 168.12 153.95 168.92 154.57 Z M 169.77 155.24 L 170.59 155.87 C 171.39 156.49 172.54 156.34 173.16 155.53 C 173.78 154.73 173.63 153.58 172.82 152.96 L 172.00 152.33 C 171.20 151.71 170.05 151.86 169.43 152.67 C 168.81 153.47 168.96 154.62 169.77 155.24 Z M 170.60 155.88 L 171.40 156.49 C 172.21 157.10 173.36 156.94 173.97 156.13 C 174.58 155.32 174.42 154.17 173.61 153.56 L 172.81 152.95 C 172.00 152.34 170.85 152.50 170.24 153.31 C 169.63 154.12 169.79 155.27 170.60 155.88 Z M 171.41 156.50 L 172.18 157.07 C 173.00 157.67 174.15 157.50 174.75 156.69 C 175.36 155.88 175.19 154.73 174.37 154.12 L 173.60 153.55 C 172.79 152.94 171.64 153.11 171.03 153.93 C 170.43 154.74 170.60 155.89 171.41 156.50 Z M 172.19 157.08 L 172.92 157.61 C 173.74 158.21 174.89 158.04 175.49 157.22 C 176.09 156.40 175.91 155.25 175.10 154.65 L 174.37 154.11 C 173.55 153.51 172.40 153.69 171.80 154.51 C 171.20 155.32 171.37 156.47 172.19 157.08 Z M 172.93 157.62 L 173.80 158.25 C 174.62 158.85 175.77 158.67 176.37 157.85 C 176.97 157.03 176.78 155.88 175.96 155.28 L 175.09 154.64 C 174.27 154.05 173.12 154.23 172.52 155.05 C 171.93 155.87 172.11 157.02 172.93 157.62 Z M 173.81 158.26 L 174.65 158.86 C 175.47 159.45 176.62 159.27 177.21 158.44 C 177.80 157.62 177.62 156.47 176.79 155.88 L 175.96 155.28 C 175.13 154.68 173.99 154.87 173.39 155.69 C 172.80 156.52 172.99 157.66 173.81 158.26 Z M 174.65 158.87 L 175.44 159.43 C 176.27 160.02 177.41 159.82 178.00 159.00 C 178.59 158.17 178.40 157.03 177.57 156.44 L 176.79 155.88 C 175.96 155.29 174.81 155.48 174.23 156.30 C 173.64 157.13 173.83 158.28 174.65 158.87 Z M 175.44 159.43 L 176.21 159.97 C 177.03 160.56 178.18 160.36 178.77 159.53 C 179.35 158.71 179.16 157.56 178.33 156.97 L 177.57 156.43 C 176.74 155.85 175.60 156.04 175.01 156.87 C 174.42 157.70 174.62 158.84 175.44 159.43 Z M 176.21 159.97 L 176.98 160.52 C 177.81 161.10 178.95 160.90 179.54 160.07 C 180.12 159.25 179.93 158.10 179.10 157.52 L 178.33 156.97 C 177.50 156.39 176.36 156.59 175.77 157.41 C 175.19 158.24 175.38 159.39 176.21 159.97 Z M 176.98 160.51 L 177.77 161.07 C 178.60 161.66 179.74 161.46 180.33 160.63 C 180.91 159.81 180.72 158.66 179.89 158.08 L 179.10 157.52 C 178.27 156.93 177.13 157.13 176.54 157.96 C 175.96 158.78 176.15 159.93 176.98 160.51 Z M 177.77 161.07 L 178.58 161.65 C 179.40 162.23 180.55 162.04 181.14 161.21 C 181.72 160.39 181.53 159.24 180.70 158.66 L 179.89 158.08 C 179.07 157.49 177.92 157.69 177.34 158.51 C 176.75 159.34 176.94 160.48 177.77 161.07 Z M 178.57 161.64 L 179.40 162.23 C 180.22 162.82 181.37 162.64 181.96 161.81 C 182.55 160.99 182.36 159.85 181.54 159.26 L 180.71 158.66 C 179.89 158.07 178.74 158.26 178.15 159.08 C 177.56 159.91 177.75 161.05 178.57 161.64 Z M 179.39 162.23 L 180.23 162.84 C 181.05 163.43 182.19 163.25 182.79 162.43 C 183.39 161.61 183.20 160.47 182.39 159.87 L 181.55 159.26 C 180.73 158.67 179.58 158.85 178.99 159.67 C 178.39 160.49 178.57 161.63 179.39 162.23 Z M 180.22 162.83 L 181.02 163.42 C 181.83 164.02 182.98 163.85 183.58 163.03 C 184.18 162.22 184.01 161.07 183.20 160.47 L 182.40 159.88 C 181.58 159.28 180.44 159.45 179.84 160.27 C 179.24 161.08 179.41 162.23 180.22 162.83 Z M 181.01 163.41 L 181.82 164.01 C 182.63 164.62 183.77 164.45 184.38 163.64 C 184.98 162.83 184.82 161.69 184.01 161.08 L 183.20 160.48 C 182.39 159.88 181.25 160.04 180.64 160.85 C 180.04 161.66 180.21 162.81 181.01 163.41 Z M 181.81 164.01 L 182.62 164.61 C 183.42 165.22 184.57 165.06 185.17 164.26 C 185.78 163.45 185.62 162.31 184.82 161.70 L 184.01 161.09 C 183.21 160.48 182.06 160.64 181.46 161.45 C 180.85 162.25 181.01 163.40 181.81 164.01 Z M 182.61 164.61 L 183.41 165.21 C 184.21 165.82 185.36 165.67 185.96 164.86 C 186.57 164.06 186.42 162.92 185.62 162.31 L 184.82 161.71 C 184.02 161.10 182.88 161.25 182.27 162.05 C 181.66 162.85 181.81 164.00 182.61 164.61 Z M 183.41 165.21 L 184.21 165.82 C 185.01 166.43 186.15 166.28 186.76 165.48 C 187.37 164.68 187.22 163.54 186.42 162.93 L 185.62 162.32 C 184.82 161.71 183.68 161.86 183.07 162.66 C 182.46 163.46 182.61 164.60 183.41 165.21 Z M 184.21 165.81 L 185.02 166.44 C 185.82 167.05 186.96 166.90 187.57 166.10 C 188.18 165.31 188.03 164.17 187.23 163.55 L 186.42 162.93 C 185.62 162.32 184.48 162.47 183.87 163.27 C 183.26 164.06 183.41 165.20 184.21 165.81 Z M 185.02 166.43 L 185.81 167.04 C 186.60 167.66 187.74 167.51 188.36 166.72 C 188.97 165.93 188.82 164.79 188.03 164.18 L 187.24 163.56 C 186.44 162.95 185.31 163.10 184.69 163.89 C 184.08 164.68 184.23 165.82 185.02 166.43 Z M 185.81 167.03 L 186.58 167.64 C 187.37 168.26 188.51 168.12 189.12 167.33 C 189.74 166.54 189.60 165.41 188.81 164.79 L 188.04 164.18 C 187.25 163.57 186.11 163.71 185.50 164.50 C 184.88 165.28 185.02 166.42 185.81 167.03 Z M 186.58 167.63 L 187.34 168.24 C 188.12 168.85 189.25 168.72 189.87 167.94 C 190.49 167.16 190.36 166.03 189.58 165.41 L 188.82 164.80 C 188.04 164.18 186.90 164.31 186.28 165.09 C 185.66 165.88 185.80 167.01 186.58 167.63 Z M 187.33 168.22 L 188.12 168.86 C 188.90 169.49 190.03 169.37 190.65 168.60 C 191.28 167.82 191.16 166.69 190.39 166.06 L 189.59 165.42 C 188.82 164.80 187.68 164.92 187.06 165.69 C 186.43 166.46 186.55 167.60 187.33 168.22 Z M 188.11 168.85 L 188.89 169.49 C 189.65 170.12 190.78 170.01 191.41 169.25 C 192.05 168.49 191.94 167.36 191.17 166.72 L 190.40 166.08 C 189.63 165.45 188.50 165.56 187.87 166.32 C 187.24 167.08 187.35 168.22 188.11 168.85 Z M 188.88 169.47 L 189.64 170.11 C 190.39 170.75 191.52 170.66 192.15 169.90 C 192.79 169.15 192.70 168.02 191.95 167.39 L 191.19 166.74 C 190.43 166.11 189.31 166.20 188.67 166.95 C 188.03 167.70 188.12 168.83 188.88 169.47 Z M 189.62 170.09 L 190.36 170.73 C 191.10 171.38 192.22 171.30 192.87 170.56 C 193.52 169.82 193.44 168.70 192.70 168.05 L 191.96 167.41 C 191.22 166.76 190.10 166.84 189.45 167.58 C 188.80 168.32 188.88 169.45 189.62 170.09 Z M 190.34 170.71 L 191.10 171.40 C 191.83 172.05 192.95 171.99 193.61 171.26 C 194.26 170.54 194.20 169.41 193.48 168.76 L 192.71 168.07 C 191.99 167.42 190.87 167.48 190.21 168.21 C 189.56 168.93 189.61 170.06 190.34 170.71 Z M 191.09 171.37 L 191.84 172.06 C 192.55 172.72 193.67 172.68 194.33 171.96 C 194.99 171.25 194.95 170.13 194.23 169.47 L 193.49 168.78 C 192.77 168.12 191.66 168.16 190.99 168.88 C 190.33 169.60 190.38 170.71 191.09 171.37 Z M 191.83 172.04 L 192.55 172.72 C 193.26 173.39 194.37 173.35 195.03 172.65 C 195.70 171.94 195.66 170.83 194.96 170.17 L 194.24 169.49 C 193.53 168.82 192.42 168.86 191.76 169.56 C 191.09 170.27 191.12 171.38 191.83 172.04 Z M 192.55 172.71 L 193.26 173.38 C 193.95 174.04 195.06 174.01 195.72 173.31 C 196.39 172.61 196.36 171.51 195.66 170.84 L 194.96 170.18 C 194.26 169.51 193.15 169.54 192.49 170.24 C 191.82 170.94 191.85 172.05 192.55 172.71 Z M 193.26 173.37 L 194.01 174.09 C 194.71 174.75 195.81 174.72 196.47 174.02 C 197.13 173.33 197.10 172.23 196.41 171.57 L 195.65 170.85 C 194.96 170.19 193.86 170.22 193.20 170.92 C 192.54 171.61 192.57 172.71 193.26 173.37 Z M 194.02 174.07 L 194.74 174.77 C 195.43 175.43 196.52 175.40 197.18 174.72 C 197.84 174.03 197.82 172.94 197.13 172.28 L 196.40 171.58 C 195.72 170.92 194.62 170.95 193.96 171.63 C 193.31 172.32 193.33 173.41 194.02 174.07 Z M 194.74 174.75 L 195.44 175.43 C 196.12 176.09 197.20 176.08 197.86 175.40 C 198.52 174.72 198.51 173.64 197.83 172.98 L 197.13 172.30 C 196.45 171.64 195.37 171.65 194.71 172.33 C 194.05 173.00 194.06 174.09 194.74 174.75 Z M 195.43 175.40 L 196.13 176.11 C 196.80 176.77 197.87 176.78 198.54 176.11 C 199.20 175.45 199.20 174.37 198.54 173.71 L 197.84 173.00 C 197.18 172.34 196.10 172.34 195.43 173.00 C 194.77 173.66 194.77 174.74 195.43 175.40 Z M 196.13 176.08 L 196.83 176.80 C 197.47 177.47 198.54 177.49 199.21 176.84 C 199.88 176.20 199.90 175.13 199.25 174.46 L 198.55 173.74 C 197.90 173.07 196.83 173.05 196.17 173.70 C 195.50 174.35 195.48 175.41 196.13 176.08 Z M 196.82 176.78 L 197.50 177.50 C 198.14 178.17 199.20 178.20 199.87 177.56 C 200.54 176.93 200.57 175.87 199.93 175.20 L 199.25 174.48 C 198.61 173.81 197.56 173.78 196.89 174.42 C 196.22 175.06 196.19 176.11 196.82 176.78 Z M 197.51 177.48 L 198.18 178.20 C 198.81 178.86 199.86 178.90 200.52 178.27 C 201.19 177.64 201.22 176.59 200.59 175.93 L 199.92 175.21 C 199.30 174.55 198.25 174.52 197.58 175.14 C 196.92 175.77 196.88 176.82 197.51 177.48 Z M 198.19 178.18 L 198.85 178.90 C 199.47 179.56 200.51 179.60 201.17 178.98 C 201.84 178.37 201.87 177.33 201.26 176.66 L 200.59 175.95 C 199.97 175.28 198.94 175.24 198.27 175.86 C 197.61 176.48 197.57 177.51 198.19 178.18 Z M 198.84 178.86 L 199.51 179.61 C 200.11 180.28 201.14 180.34 201.80 179.74 C 202.47 179.14 202.53 178.12 201.93 177.45 L 201.27 176.70 C 200.67 176.03 199.64 175.97 198.97 176.57 C 198.30 177.17 198.25 178.19 198.84 178.86 Z M 199.49 179.56 L 200.14 180.34 C 200.71 181.02 201.73 181.11 202.41 180.54 C 203.09 179.97 203.18 178.95 202.61 178.27 L 201.96 177.50 C 201.39 176.82 200.37 176.73 199.69 177.30 C 199.01 177.87 198.92 178.88 199.49 179.56 Z M 200.11 180.28 L 200.71 181.05 C 201.24 181.75 202.25 181.88 202.94 181.34 C 203.64 180.80 203.77 179.80 203.23 179.10 L 202.64 178.33 C 202.10 177.63 201.10 177.50 200.40 178.04 C 199.70 178.58 199.57 179.58 200.11 180.28 Z M 200.67 180.98 L 201.24 181.81 C 201.74 182.53 202.73 182.70 203.45 182.20 C 204.17 181.70 204.35 180.71 203.84 179.99 L 203.27 179.17 C 202.77 178.45 201.78 178.27 201.06 178.77 C 200.34 179.27 200.17 180.26 200.67 180.98 Z M 201.19 181.72 L 201.72 182.59 C 202.18 183.34 203.15 183.58 203.89 183.12 C 204.64 182.67 204.88 181.70 204.42 180.95 L 203.89 180.08 C 203.44 179.33 202.47 179.10 201.72 179.55 C 200.98 180.00 200.74 180.97 201.19 181.72 Z M 201.68 182.49 L 202.13 183.38 C 202.53 184.15 203.48 184.46 204.25 184.06 C 205.02 183.66 205.33 182.71 204.93 181.94 L 204.47 181.05 C 204.07 180.28 203.13 179.98 202.35 180.38 C 201.58 180.77 201.28 181.72 201.68 182.49 Z M 202.10 183.30 L 202.50 184.21 C 202.85 185.00 203.78 185.36 204.57 185.00 C 205.36 184.65 205.72 183.73 205.37 182.94 L 204.96 182.03 C 204.61 181.24 203.69 180.88 202.90 181.23 C 202.10 181.58 201.75 182.50 202.10 183.30 Z M 202.48 184.15 L 202.85 185.08 C 203.17 185.89 204.08 186.28 204.88 185.96 C 205.69 185.64 206.08 184.73 205.76 183.93 L 205.39 182.99 C 205.07 182.19 204.16 181.80 203.36 182.12 C 202.55 182.44 202.16 183.35 202.48 184.15 Z M 202.84 185.05 L 203.20 186.00 C 203.50 186.81 204.40 187.22 205.21 186.92 C 206.02 186.61 206.42 185.71 206.12 184.90 L 205.77 183.96 C 205.46 183.15 204.56 182.74 203.76 183.04 C 202.95 183.34 202.54 184.25 202.84 185.05 Z M 203.19 186.00 L 203.22 186.07 C 203.52 186.88 204.42 187.29 205.23 186.99 C 206.04 186.69 206.45 185.80 206.15 184.99 L 206.12 184.91 C 205.82 184.10 204.93 183.69 204.12 183.99 C 203.31 184.29 202.90 185.19 203.19 186.00 Z"
      fill="black"
      fill-rule="nonzero" /></svg>