<svg xmlns="http://www.w3.org/2000/svg" width="300" height="300" viewBox="0 0 300 300">
<path d="M 110.69 93.75 L 111.61 93.51 C 112.50 93.27 113.03 92.35 112.79 91.46 C 112.56 90.57 111.64 90.04 110.74 90.27 L 109.83 90.52 C 108.94 90.76 108.41 91.67 108.64 92.57 C 108.88 93.46 109.80 93.99 110.69 93.75 Z M 111.58 93.52 L 112.52 93.28 C 113.42 93.05 113.97 92.14 113.74 91.25 C 113.51 90.35 112.61 89.81 111.71 90.03 L 110.77 90.27 C 109.87 90.49 109.33 91.40 109.55 92.30 C 109.78 93.20 110.69 93.74 111.58 93.52 Z M 112.48 93.29 L 113.47 93.07 C 114.38 92.87 114.95 91.97 114.74 91.07 C 114.54 90.17 113.65 89.60 112.75 89.80 L 111.75 90.02 C 110.85 90.22 110.28 91.12 110.48 92.02 C 110.68 92.92 111.58 93.49 112.48 93.29 Z M 113.42 93.08 L 114.45 92.89 C 115.36 92.72 115.95 91.84 115.78 90.93 C 115.61 90.02 114.74 89.43 113.83 89.60 L 112.80 89.79 C 111.89 89.96 111.29 90.83 111.46 91.74 C 111.63 92.65 112.51 93.25 113.42 93.08 Z M 114.40 92.89 L 115.32 92.75 C 116.24 92.61 116.86 91.75 116.72 90.84 C 116.58 89.92 115.72 89.30 114.81 89.44 L 113.88 89.59 C 112.97 89.73 112.34 90.59 112.49 91.50 C 112.63 92.41 113.48 93.04 114.40 92.89 Z M 115.30 92.75 L 116.28 92.61 C 117.19 92.48 117.83 91.63 117.70 90.72 C 117.56 89.80 116.72 89.17 115.80 89.30 L 114.83 89.44 C 113.91 89.57 113.28 90.42 113.41 91.34 C 113.54 92.25 114.39 92.88 115.30 92.75 Z M 116.28 92.61 L 117.29 92.46 C 118.21 92.33 118.84 91.48 118.70 90.56 C 118.57 89.65 117.72 89.02 116.81 89.15 L 115.80 89.30 C 114.89 89.44 114.25 90.28 114.39 91.20 C 114.52 92.11 115.37 92.74 116.28 92.61 Z M 117.32 92.45 L 118.35 92.29 C 119.26 92.14 119.88 91.28 119.73 90.37 C 119.58 89.46 118.73 88.84 117.82 88.99 L 116.79 89.16 C 115.87 89.31 115.26 90.16 115.40 91.07 C 115.55 91.98 116.41 92.60 117.32 92.45 Z M 118.39 92.28 L 119.41 92.09 C 120.31 91.92 120.91 91.04 120.74 90.14 C 120.57 89.23 119.70 88.64 118.79 88.81 L 117.77 89.00 C 116.87 89.17 116.27 90.04 116.45 90.95 C 116.62 91.85 117.49 92.45 118.39 92.28 Z M 119.46 92.07 L 120.45 91.85 C 121.34 91.66 121.91 90.77 121.72 89.87 C 121.52 88.98 120.63 88.41 119.74 88.61 L 118.74 88.83 C 117.85 89.02 117.28 89.91 117.48 90.80 C 117.67 91.70 118.56 92.27 119.46 92.07 Z M 120.49 91.84 L 121.47 91.59 C 122.36 91.38 122.90 90.48 122.68 89.59 C 122.46 88.70 121.57 88.16 120.68 88.38 L 119.70 88.62 C 118.81 88.84 118.27 89.74 118.49 90.63 C 118.71 91.51 119.60 92.06 120.49 91.84 Z M 121.50 91.58 L 122.47 91.32 C 123.35 91.08 123.87 90.17 123.63 89.30 C 123.39 88.42 122.49 87.90 121.61 88.14 L 120.64 88.40 C 119.77 88.64 119.25 89.54 119.48 90.42 C 119.72 91.30 120.63 91.82 121.50 91.58 Z M 122.50 91.30 L 123.44 91.03 C 124.31 90.77 124.81 89.86 124.56 88.99 C 124.30 88.12 123.39 87.62 122.52 87.88 L 121.58 88.15 C 120.71 88.41 120.21 89.32 120.47 90.19 C 120.72 91.06 121.63 91.56 122.50 91.30 Z M 123.47 91.01 L 124.38 90.73 C 125.25 90.46 125.73 89.54 125.46 88.68 C 125.19 87.82 124.28 87.34 123.42 87.61 L 122.50 87.89 C 121.64 88.16 121.16 89.07 121.42 89.94 C 121.69 90.80 122.60 91.28 123.47 91.01 Z M 124.41 90.71 L 125.31 90.41 C 126.16 90.13 126.63 89.21 126.35 88.36 C 126.06 87.51 125.15 87.05 124.30 87.33 L 123.39 87.63 C 122.54 87.91 122.08 88.83 122.36 89.68 C 122.64 90.53 123.56 90.99 124.41 90.71 Z M 125.34 90.39 L 126.25 90.07 C 127.09 89.77 127.53 88.85 127.23 88.01 C 126.93 87.17 126.01 86.73 125.17 87.03 L 124.27 87.35 C 123.43 87.65 122.99 88.57 123.29 89.41 C 123.58 90.25 124.50 90.68 125.34 90.39 Z M 126.28 90.04 L 127.22 89.69 C 128.04 89.37 128.46 88.45 128.14 87.62 C 127.83 86.80 126.90 86.38 126.08 86.70 L 125.14 87.05 C 124.32 87.37 123.90 88.29 124.22 89.12 C 124.53 89.94 125.46 90.36 126.28 90.04 Z M 127.25 89.66 L 128.24 89.26 C 129.05 88.93 129.44 88.00 129.11 87.19 C 128.77 86.38 127.85 85.99 127.04 86.32 L 126.05 86.72 C 125.24 87.05 124.85 87.98 125.18 88.79 C 125.51 89.60 126.44 89.99 127.25 89.66 Z M 128.26 89.24 L 129.19 88.84 C 129.99 88.49 130.36 87.56 130.01 86.76 C 129.67 85.96 128.74 85.59 127.93 85.94 L 127.01 86.34 C 126.21 86.68 125.84 87.61 126.18 88.41 C 126.53 89.21 127.46 89.58 128.26 89.24 Z M 129.21 88.83 L 130.11 88.42 C 130.91 88.06 131.26 87.13 130.91 86.34 C 130.55 85.54 129.62 85.19 128.82 85.54 L 127.91 85.95 C 127.12 86.31 126.77 87.24 127.12 88.03 C 127.48 88.83 128.41 89.18 129.21 88.83 Z M 130.13 88.41 L 131.06 87.98 C 131.85 87.61 132.19 86.68 131.83 85.89 C 131.46 85.10 130.52 84.76 129.74 85.12 L 128.81 85.55 C 128.02 85.92 127.68 86.85 128.04 87.64 C 128.41 88.43 129.34 88.77 130.13 88.41 Z M 131.07 87.97 L 132.00 87.53 C 132.79 87.15 133.12 86.22 132.75 85.43 C 132.38 84.65 131.44 84.32 130.66 84.69 L 129.72 85.13 C 128.94 85.50 128.61 86.44 128.98 87.22 C 129.35 88.01 130.29 88.34 131.07 87.97 Z M 132.02 87.52 L 132.93 87.07 C 133.71 86.69 134.03 85.75 133.65 84.98 C 133.27 84.20 132.34 83.87 131.56 84.25 L 130.64 84.70 C 129.86 85.08 129.54 86.01 129.92 86.79 C 130.30 87.57 131.24 87.90 132.02 87.52 Z M 132.94 87.06 L 133.82 86.63 C 134.59 86.24 134.91 85.30 134.52 84.53 C 134.14 83.75 133.20 83.44 132.42 83.82 L 131.55 84.26 C 130.77 84.65 130.46 85.59 130.84 86.36 C 131.23 87.13 132.17 87.45 132.94 87.06 Z M 133.83 86.62 L 134.79 86.13 C 135.56 85.74 135.87 84.79 135.47 84.03 C 135.08 83.26 134.14 82.95 133.37 83.34 L 132.41 83.83 C 131.64 84.22 131.34 85.17 131.73 85.94 C 132.12 86.70 133.06 87.01 133.83 86.62 Z M 134.81 86.12 L 135.74 85.63 C 136.50 85.23 136.80 84.28 136.40 83.52 C 136.00 82.76 135.05 82.46 134.29 82.86 L 133.35 83.35 C 132.59 83.75 132.30 84.70 132.70 85.46 C 133.10 86.23 134.04 86.52 134.81 86.12 Z M 135.75 85.62 L 136.63 85.15 C 137.39 84.75 137.67 83.80 137.26 83.04 C 136.86 82.28 135.91 81.99 135.15 82.40 L 134.28 82.87 C 133.52 83.28 133.23 84.22 133.64 84.98 C 134.05 85.74 134.99 86.03 135.75 85.62 Z M 136.64 85.15 L 137.47 84.70 C 138.22 84.28 138.50 83.33 138.09 82.58 C 137.68 81.82 136.73 81.54 135.97 81.95 L 135.14 82.41 C 134.38 82.82 134.10 83.77 134.52 84.53 C 134.93 85.28 135.88 85.56 136.64 85.15 Z M 137.47 84.69 L 138.28 84.25 C 139.03 83.83 139.31 82.88 138.89 82.13 C 138.48 81.37 137.53 81.10 136.77 81.51 L 135.96 81.96 C 135.21 82.37 134.93 83.32 135.35 84.08 C 135.77 84.83 136.72 85.11 137.47 84.69 Z M 138.28 84.25 L 138.34 84.22 C 139.09 83.80 139.36 82.85 138.95 82.09 C 138.53 81.34 137.58 81.07 136.83 81.48 L 136.77 81.51 C 136.02 81.93 135.74 82.88 136.16 83.63 C 136.57 84.39 137.52 84.66 138.28 84.25 Z"
      fill="black"
      fill-rule="nonzero" /><path d="M 120.11 94.20 L 119.82 95.20 C 119.56 96.06 120.06 96.96 120.92 97.21 C 121.78 97.46 122.68 96.97 122.93 96.11 L 123.23 95.11 C 123.48 94.25 122.98 93.35 122.12 93.10 C 121.26 92.85 120.36 93.34 120.11 94.20 Z M 119.81 95.21 L 119.53 96.20 C 119.29 97.06 119.79 97.96 120.65 98.20 C 121.51 98.45 122.41 97.95 122.65 97.09 L 122.94 96.10 C 123.18 95.24 122.68 94.34 121.82 94.09 C 120.96 93.85 120.06 94.35 119.81 95.21 Z M 119.53 96.22 L 119.26 97.19 C 119.03 98.05 119.54 98.94 120.41 99.18 C 121.27 99.41 122.16 98.90 122.40 98.03 L 122.66 97.07 C 122.89 96.20 122.38 95.31 121.52 95.08 C 120.65 94.84 119.76 95.35 119.53 96.22 Z M 119.26 97.22 L 119.03 98.16 C 118.81 99.03 119.34 99.91 120.21 100.12 C 121.08 100.34 121.96 99.81 122.17 98.94 L 122.41 98.00 C 122.62 97.13 122.09 96.25 121.22 96.03 C 120.35 95.82 119.47 96.35 119.26 97.22 Z M 119.01 98.21 L 118.81 99.18 C 118.62 100.05 119.18 100.91 120.06 101.10 C 120.93 101.28 121.80 100.73 121.98 99.85 L 122.19 98.88 C 122.37 98.01 121.81 97.15 120.94 96.96 C 120.06 96.78 119.20 97.33 119.01 98.21 Z M 118.80 99.25 L 118.63 100.24 C 118.48 101.13 119.08 101.96 119.96 102.11 C 120.85 102.25 121.68 101.66 121.83 100.78 L 121.99 99.78 C 122.14 98.90 121.54 98.06 120.66 97.92 C 119.78 97.77 118.94 98.36 118.80 99.25 Z M 118.62 100.31 L 118.50 101.29 C 118.40 102.18 119.03 102.98 119.92 103.09 C 120.80 103.20 121.61 102.57 121.72 101.68 L 121.84 100.70 C 121.94 99.82 121.31 99.01 120.42 98.90 C 119.54 98.79 118.73 99.43 118.62 100.31 Z M 118.50 101.35 L 118.42 102.33 C 118.35 103.23 119.01 104.01 119.90 104.08 C 120.79 104.15 121.57 103.49 121.65 102.59 L 121.72 101.61 C 121.80 100.72 121.13 99.94 120.24 99.87 C 119.35 99.80 118.57 100.46 118.50 101.35 Z M 118.42 102.39 L 118.37 103.38 C 118.33 104.27 119.02 105.03 119.91 105.07 C 120.80 105.11 121.56 104.43 121.60 103.54 L 121.65 102.54 C 121.69 101.65 121.00 100.89 120.11 100.85 C 119.22 100.81 118.46 101.50 118.42 102.39 Z M 118.37 103.43 L 118.35 104.43 C 118.34 105.32 119.04 106.06 119.93 106.08 C 120.82 106.09 121.56 105.39 121.58 104.50 L 121.60 103.49 C 121.61 102.60 120.91 101.86 120.02 101.85 C 119.13 101.83 118.39 102.54 118.37 103.43 Z M 118.36 104.48 L 118.37 105.50 C 118.38 106.38 119.11 107.09 120.00 107.08 C 120.88 107.07 121.59 106.35 121.58 105.46 L 121.57 104.45 C 121.56 103.56 120.83 102.85 119.95 102.86 C 119.06 102.87 118.35 103.60 118.36 104.48 Z M 118.38 105.55 L 118.43 106.55 C 118.47 107.43 119.22 108.11 120.10 108.07 C 120.98 108.03 121.66 107.28 121.62 106.40 L 121.57 105.40 C 121.53 104.52 120.78 103.84 119.90 103.88 C 119.02 103.92 118.34 104.67 118.38 105.55 Z M 118.44 106.62 L 118.53 107.63 C 118.61 108.51 119.39 109.15 120.26 109.07 C 121.14 108.99 121.78 108.21 121.70 107.34 L 121.61 106.33 C 121.53 105.45 120.75 104.81 119.88 104.89 C 119.00 104.97 118.36 105.74 118.44 106.62 Z M 118.55 107.71 L 118.69 108.71 C 118.82 109.58 119.62 110.18 120.49 110.05 C 121.35 109.93 121.96 109.13 121.83 108.26 L 121.69 107.26 C 121.56 106.39 120.76 105.79 119.89 105.92 C 119.02 106.04 118.42 106.84 118.55 107.71 Z M 118.71 108.79 L 118.90 109.76 C 119.07 110.61 119.90 111.17 120.75 111.00 C 121.61 110.83 122.17 110.00 122.00 109.15 L 121.81 108.18 C 121.64 107.33 120.81 106.77 119.96 106.94 C 119.10 107.11 118.55 107.93 118.71 108.79 Z M 118.93 109.82 L 119.16 110.77 C 119.37 111.62 120.22 112.13 121.06 111.92 C 121.90 111.72 122.41 110.87 122.21 110.03 L 121.97 109.08 C 121.77 108.24 120.92 107.72 120.08 107.93 C 119.24 108.14 118.72 108.98 118.93 109.82 Z M 119.18 110.83 L 119.44 111.73 C 119.68 112.56 120.54 113.04 121.37 112.80 C 122.20 112.57 122.68 111.70 122.44 110.87 L 122.19 109.97 C 121.95 109.14 121.08 108.66 120.25 108.90 C 119.42 109.14 118.94 110.00 119.18 110.83 Z M 119.45 111.77 L 119.74 112.69 C 120.00 113.52 120.88 113.97 121.70 113.71 C 122.52 113.45 122.98 112.58 122.72 111.75 L 122.43 110.83 C 122.17 110.01 121.29 109.55 120.47 109.81 C 119.65 110.07 119.19 110.95 119.45 111.77 Z M 119.75 112.72 L 120.07 113.68 C 120.34 114.50 121.23 114.94 122.05 114.67 C 122.86 114.40 123.31 113.51 123.03 112.70 L 122.71 111.73 C 122.44 110.91 121.56 110.47 120.74 110.74 C 119.92 111.01 119.48 111.90 119.75 112.72 Z M 120.07 113.69 L 120.42 114.70 C 120.69 115.52 121.58 115.96 122.40 115.68 C 123.21 115.40 123.65 114.52 123.37 113.70 L 123.03 112.69 C 122.76 111.87 121.87 111.43 121.05 111.71 C 120.24 111.99 119.80 112.87 120.07 113.69 Z M 120.42 114.70 L 120.72 115.59 C 120.99 116.41 121.88 116.84 122.69 116.57 C 123.51 116.29 123.95 115.41 123.67 114.59 L 123.38 113.70 C 123.10 112.89 122.21 112.45 121.40 112.72 C 120.58 113.00 120.14 113.88 120.42 114.70 Z M 120.72 115.59 L 121.03 116.52 C 121.30 117.34 122.19 117.78 123.01 117.50 C 123.82 117.23 124.26 116.34 123.99 115.53 L 123.68 114.59 C 123.40 113.78 122.52 113.34 121.70 113.61 C 120.88 113.88 120.44 114.77 120.72 115.59 Z M 121.03 116.52 L 121.35 117.48 C 121.62 118.30 122.51 118.74 123.33 118.47 C 124.14 118.19 124.58 117.31 124.31 116.49 L 123.99 115.53 C 123.72 114.71 122.83 114.27 122.01 114.54 C 121.20 114.82 120.76 115.70 121.03 116.52 Z M 121.35 117.48 L 121.68 118.47 C 121.95 119.28 122.84 119.73 123.65 119.45 C 124.47 119.18 124.91 118.30 124.64 117.48 L 124.31 116.49 C 124.04 115.68 123.16 115.23 122.34 115.51 C 121.52 115.78 121.08 116.66 121.35 117.48 Z M 121.68 118.47 L 121.91 119.16 C 122.18 119.98 123.07 120.42 123.88 120.15 C 124.70 119.88 125.14 118.99 124.87 118.17 L 124.64 117.48 C 124.37 116.66 123.48 116.22 122.67 116.49 C 121.85 116.76 121.41 117.65 121.68 118.47 Z"
      fill="black"
      fill-rule="nonzero" /><path d="M 134.18 91.74 L 134.57 92.65 C 134.94 93.50 135.93 93.90 136.79 93.53 C 137.64 93.16 138.03 92.16 137.66 91.31 L 137.27 90.40 C 136.90 89.55 135.91 89.16 135.06 89.53 C 134.20 89.90 133.81 90.89 134.18 91.74 Z M 134.55 92.65 L 134.94 93.56 C 135.32 94.43 136.32 94.83 137.18 94.45 C 138.05 94.08 138.45 93.08 138.07 92.22 L 137.68 91.31 C 137.31 90.44 136.31 90.04 135.44 90.41 C 134.58 90.79 134.18 91.79 134.55 92.65 Z M 134.92 93.57 L 135.32 94.48 C 135.69 95.36 136.70 95.77 137.58 95.39 C 138.45 95.02 138.86 94.01 138.49 93.13 L 138.09 92.21 C 137.72 91.34 136.71 90.93 135.83 91.31 C 134.96 91.68 134.55 92.69 134.92 93.57 Z M 135.30 94.48 L 135.69 95.42 C 136.06 96.30 137.08 96.72 137.97 96.35 C 138.85 95.98 139.27 94.96 138.90 94.07 L 138.51 93.14 C 138.13 92.25 137.11 91.83 136.23 92.20 C 135.34 92.58 134.92 93.60 135.30 94.48 Z M 135.67 95.41 L 136.07 96.37 C 136.43 97.26 137.46 97.69 138.35 97.32 C 139.25 96.95 139.68 95.93 139.31 95.03 L 138.91 94.08 C 138.55 93.18 137.52 92.75 136.63 93.12 C 135.73 93.49 135.30 94.52 135.67 95.41 Z M 136.06 96.35 L 136.45 97.32 C 136.81 98.22 137.83 98.65 138.73 98.29 C 139.63 97.93 140.06 96.91 139.70 96.01 L 139.31 95.04 C 138.95 94.14 137.93 93.71 137.03 94.07 C 136.13 94.43 135.70 95.45 136.06 96.35 Z M 136.44 97.30 L 136.82 98.25 C 137.17 99.16 138.19 99.60 139.09 99.25 C 139.99 98.89 140.43 97.87 140.08 96.97 L 139.71 96.02 C 139.35 95.12 138.34 94.68 137.43 95.03 C 136.53 95.39 136.09 96.40 136.44 97.30 Z M 136.81 98.24 L 137.16 99.15 C 137.51 100.05 138.52 100.51 139.42 100.16 C 140.32 99.82 140.78 98.81 140.43 97.90 L 140.08 96.99 C 139.74 96.09 138.73 95.63 137.82 95.98 C 136.92 96.32 136.47 97.33 136.81 98.24 Z M 137.16 99.13 L 137.49 100.04 C 137.82 100.95 138.83 101.41 139.73 101.08 C 140.64 100.74 141.10 99.74 140.77 98.83 L 140.44 97.92 C 140.10 97.02 139.10 96.55 138.19 96.89 C 137.29 97.22 136.82 98.22 137.16 99.13 Z M 137.48 100.01 L 137.83 101.01 C 138.15 101.92 139.14 102.40 140.05 102.08 C 140.96 101.77 141.44 100.77 141.13 99.86 L 140.78 98.86 C 140.46 97.95 139.47 97.47 138.56 97.79 C 137.65 98.11 137.17 99.10 137.48 100.01 Z M 137.83 100.98 L 138.13 101.91 C 138.43 102.82 139.41 103.32 140.32 103.02 C 141.24 102.72 141.73 101.74 141.43 100.82 L 141.13 99.90 C 140.83 98.98 139.85 98.49 138.94 98.78 C 138.02 99.08 137.53 100.07 137.83 100.98 Z M 138.13 101.88 L 138.41 102.78 C 138.69 103.69 139.66 104.20 140.58 103.92 C 141.49 103.63 142.00 102.66 141.72 101.75 L 141.44 100.85 C 141.15 99.94 140.18 99.42 139.27 99.71 C 138.35 99.99 137.84 100.97 138.13 101.88 Z M 138.41 102.76 L 138.68 103.68 C 138.96 104.60 139.92 105.12 140.84 104.84 C 141.75 104.57 142.27 103.60 142.00 102.69 L 141.72 101.77 C 141.44 100.85 140.48 100.33 139.56 100.61 C 138.65 100.88 138.13 101.85 138.41 102.76 Z M 138.68 103.67 L 138.96 104.62 C 139.23 105.54 140.19 106.06 141.10 105.79 C 142.02 105.52 142.54 104.57 142.27 103.65 L 142.00 102.70 C 141.73 101.79 140.77 101.26 139.85 101.53 C 138.94 101.80 138.41 102.76 138.68 103.67 Z M 138.96 104.61 L 139.24 105.59 C 139.50 106.50 140.45 107.03 141.37 106.77 C 142.28 106.51 142.81 105.56 142.55 104.65 L 142.28 103.66 C 142.02 102.75 141.06 102.22 140.15 102.48 C 139.23 102.74 138.70 103.69 138.96 104.61 Z M 139.24 105.57 L 139.50 106.53 C 139.75 107.45 140.70 107.99 141.61 107.73 C 142.53 107.48 143.07 106.54 142.82 105.62 L 142.56 104.66 C 142.30 103.74 141.36 103.20 140.44 103.46 C 139.52 103.71 138.98 104.65 139.24 105.57 Z M 139.50 106.52 L 139.75 107.46 C 139.99 108.37 140.93 108.92 141.85 108.68 C 142.77 108.43 143.31 107.49 143.07 106.57 L 142.82 105.63 C 142.58 104.72 141.64 104.17 140.72 104.41 C 139.80 104.66 139.25 105.60 139.50 106.52 Z M 139.75 107.44 L 140.00 108.41 C 140.23 109.33 141.17 109.89 142.08 109.65 C 143.00 109.41 143.56 108.48 143.32 107.56 L 143.07 106.59 C 142.84 105.67 141.90 105.12 140.98 105.35 C 140.06 105.59 139.51 106.52 139.75 107.44 Z M 139.99 108.40 L 140.24 109.41 C 140.47 110.33 141.40 110.89 142.32 110.66 C 143.24 110.43 143.80 109.50 143.57 108.58 L 143.32 107.57 C 143.09 106.66 142.16 106.10 141.25 106.32 C 140.33 106.55 139.77 107.48 139.99 108.40 Z M 140.24 109.39 L 140.47 110.34 C 140.69 111.26 141.61 111.83 142.53 111.61 C 143.45 111.39 144.02 110.46 143.80 109.54 L 143.57 108.60 C 143.35 107.68 142.43 107.11 141.51 107.33 C 140.59 107.55 140.02 108.47 140.24 109.39 Z M 140.47 110.33 L 140.69 111.28 C 140.90 112.20 141.82 112.77 142.74 112.56 C 143.66 112.34 144.23 111.43 144.02 110.51 L 143.80 109.55 C 143.59 108.63 142.67 108.06 141.75 108.27 C 140.83 108.49 140.25 109.41 140.47 110.33 Z M 140.69 111.27 L 140.91 112.25 C 141.11 113.17 142.03 113.75 142.95 113.54 C 143.87 113.33 144.45 112.42 144.24 111.50 L 144.02 110.52 C 143.81 109.60 142.90 109.02 141.98 109.22 C 141.06 109.43 140.48 110.34 140.69 111.27 Z M 140.91 112.24 L 141.13 113.25 C 141.33 114.17 142.24 114.75 143.16 114.55 C 144.08 114.35 144.66 113.44 144.46 112.52 L 144.24 111.51 C 144.04 110.59 143.13 110.00 142.21 110.21 C 141.29 110.41 140.71 111.31 140.91 112.24 Z M 141.13 113.24 L 141.33 114.22 C 141.53 115.14 142.43 115.72 143.35 115.53 C 144.27 115.33 144.86 114.43 144.67 113.51 L 144.46 112.53 C 144.27 111.61 143.36 111.02 142.44 111.22 C 141.52 111.41 140.93 112.32 141.13 113.24 Z M 141.34 114.21 L 141.53 115.16 C 141.72 116.08 142.62 116.68 143.54 116.49 C 144.46 116.30 145.05 115.40 144.86 114.48 L 144.67 113.52 C 144.48 112.60 143.58 112.01 142.66 112.20 C 141.74 112.39 141.15 113.29 141.34 114.21 Z M 141.53 115.15 L 141.73 116.13 C 141.91 117.05 142.81 117.65 143.73 117.46 C 144.65 117.28 145.24 116.39 145.06 115.47 L 144.86 114.49 C 144.68 113.57 143.79 112.97 142.87 113.16 C 141.95 113.34 141.35 114.23 141.53 115.15 Z M 141.73 116.12 L 141.92 117.12 C 142.10 118.04 142.99 118.64 143.91 118.46 C 144.83 118.28 145.43 117.39 145.25 116.47 L 145.06 115.48 C 144.88 114.56 143.99 113.96 143.07 114.13 C 142.15 114.31 141.55 115.20 141.73 116.12 Z M 141.92 117.10 L 142.11 118.11 C 142.28 119.03 143.16 119.64 144.08 119.47 C 145.00 119.30 145.61 118.42 145.44 117.50 L 145.25 116.49 C 145.08 115.57 144.20 114.96 143.28 115.13 C 142.36 115.30 141.75 116.18 141.92 117.10 Z M 142.11 118.10 L 142.28 119.07 C 142.44 119.98 143.32 120.60 144.24 120.43 C 145.16 120.27 145.77 119.39 145.61 118.47 L 145.44 117.51 C 145.27 116.59 144.40 115.98 143.48 116.14 C 142.56 116.31 141.95 117.18 142.11 118.10 Z M 142.28 119.05 L 142.44 120.02 C 142.60 120.94 143.47 121.56 144.39 121.40 C 145.31 121.25 145.93 120.37 145.77 119.46 L 145.61 118.49 C 145.45 117.57 144.58 116.95 143.66 117.11 C 142.74 117.26 142.12 118.13 142.28 119.05 Z M 142.45 120.01 L 142.60 120.99 C 142.75 121.91 143.62 122.53 144.54 122.39 C 145.46 122.24 146.08 121.37 145.93 120.45 L 145.77 119.47 C 145.62 118.55 144.76 117.93 143.84 118.08 C 142.92 118.22 142.30 119.09 142.45 120.01 Z M 142.61 120.98 L 142.76 121.98 C 142.90 122.90 143.76 123.53 144.68 123.38 C 145.60 123.24 146.23 122.38 146.08 121.47 L 145.93 120.47 C 145.79 119.55 144.93 118.92 144.01 119.06 C 143.09 119.20 142.46 120.06 142.61 120.98 Z M 142.76 121.96 L 142.91 122.98 C 143.04 123.90 143.90 124.54 144.81 124.40 C 145.73 124.27 146.37 123.42 146.23 122.50 L 146.08 121.48 C 145.95 120.56 145.10 119.93 144.18 120.06 C 143.26 120.19 142.63 121.05 142.76 121.96 Z M 142.91 122.97 L 143.05 123.97 C 143.17 124.89 144.02 125.53 144.94 125.40 C 145.86 125.27 146.50 124.43 146.37 123.51 L 146.23 122.51 C 146.10 121.59 145.26 120.95 144.34 121.08 C 143.42 121.21 142.78 122.05 142.91 122.97 Z M 143.05 123.96 L 143.18 124.96 C 143.30 125.88 144.14 126.52 145.06 126.40 C 145.98 126.28 146.62 125.44 146.50 124.53 L 146.37 123.52 C 146.25 122.61 145.41 121.96 144.49 122.08 C 143.57 122.20 142.93 123.04 143.05 123.96 Z M 143.19 124.95 L 143.31 125.96 C 143.43 126.87 144.27 127.52 145.18 127.40 C 146.09 127.29 146.74 126.45 146.62 125.54 L 146.50 124.53 C 146.38 123.62 145.54 122.97 144.63 123.09 C 143.72 123.21 143.07 124.04 143.19 124.95 Z M 143.32 125.95 L 143.44 126.95 C 143.55 127.86 144.38 128.51 145.30 128.39 C 146.21 128.28 146.86 127.45 146.74 126.54 L 146.62 125.54 C 146.51 124.63 145.68 123.98 144.76 124.10 C 143.85 124.21 143.20 125.04 143.32 125.95 Z M 143.44 126.94 L 143.56 127.92 C 143.67 128.83 144.50 129.48 145.41 129.37 C 146.32 129.26 146.97 128.43 146.86 127.52 L 146.74 126.54 C 146.63 125.63 145.80 124.99 144.89 125.10 C 143.98 125.21 143.33 126.03 143.44 126.94 Z M 143.57 127.92 L 143.69 128.94 C 143.80 129.85 144.62 130.49 145.53 130.39 C 146.44 130.28 147.09 129.45 146.98 128.54 L 146.85 127.52 C 146.75 126.61 145.92 125.97 145.01 126.07 C 144.11 126.18 143.46 127.01 143.57 127.92 Z M 143.69 128.93 L 143.81 129.96 C 143.92 130.87 144.74 131.52 145.65 131.41 C 146.55 131.31 147.20 130.48 147.09 129.58 L 146.97 128.55 C 146.87 127.64 146.05 126.99 145.14 127.10 C 144.23 127.21 143.59 128.03 143.69 128.93 Z M 143.82 129.96 L 143.93 130.95 C 144.03 131.86 144.85 132.51 145.75 132.40 C 146.66 132.30 147.31 131.48 147.20 130.58 L 147.09 129.59 C 146.99 128.68 146.17 128.03 145.27 128.13 C 144.36 128.24 143.71 129.05 143.82 129.96 Z M 143.93 130.94 L 144.03 131.91 C 144.13 132.81 144.94 133.46 145.84 133.37 C 146.75 133.27 147.40 132.46 147.30 131.56 L 147.20 130.59 C 147.11 129.69 146.30 129.03 145.39 129.13 C 144.49 129.23 143.83 130.04 143.93 130.94 Z M 144.04 131.89 L 144.13 132.83 C 144.22 133.74 145.02 134.40 145.92 134.31 C 146.82 134.22 147.48 133.42 147.39 132.52 L 147.30 131.57 C 147.21 130.67 146.41 130.01 145.51 130.10 C 144.61 130.19 143.95 130.99 144.04 131.89 Z M 144.13 132.81 L 144.22 133.84 C 144.30 134.74 145.09 135.41 145.99 135.33 C 146.89 135.26 147.56 134.46 147.48 133.56 L 147.39 132.53 C 147.31 131.63 146.52 130.97 145.62 131.04 C 144.72 131.12 144.05 131.91 144.13 132.81 Z M 144.22 133.83 L 144.30 134.83 C 144.37 135.73 145.15 136.41 146.05 136.34 C 146.95 136.27 147.62 135.48 147.55 134.59 L 147.48 133.58 C 147.41 132.68 146.62 132.01 145.73 132.07 C 144.83 132.14 144.15 132.93 144.22 133.83 Z M 144.30 134.82 L 144.37 135.81 C 144.43 136.71 145.21 137.39 146.11 137.32 C 147.01 137.26 147.68 136.48 147.62 135.58 L 147.55 134.60 C 147.49 133.70 146.71 133.02 145.81 133.08 C 144.92 133.15 144.24 133.93 144.30 134.82 Z M 144.37 135.81 L 144.44 136.78 C 144.50 137.67 145.27 138.35 146.17 138.29 C 147.06 138.23 147.74 137.45 147.68 136.56 L 147.62 135.59 C 147.56 134.69 146.78 134.02 145.89 134.08 C 144.99 134.14 144.31 134.91 144.37 135.81 Z M 144.44 136.78 L 144.51 137.72 C 144.57 138.61 145.34 139.29 146.23 139.23 C 147.12 139.17 147.80 138.39 147.74 137.50 L 147.68 136.56 C 147.62 135.67 146.85 134.99 145.95 135.05 C 145.06 135.11 144.38 135.88 144.44 136.78 Z M 144.51 137.71 L 144.57 138.66 C 144.63 139.55 145.40 140.23 146.29 140.17 C 147.18 140.12 147.86 139.35 147.80 138.45 L 147.74 137.51 C 147.68 136.61 146.91 135.94 146.02 135.99 C 145.13 136.05 144.45 136.82 144.51 137.71 Z M 144.57 138.65 L 144.63 139.64 C 144.68 140.53 145.45 141.21 146.34 141.16 C 147.23 141.11 147.91 140.34 147.85 139.45 L 147.80 138.46 C 147.74 137.57 146.98 136.90 146.09 136.95 C 145.20 137.00 144.52 137.76 144.57 138.65 Z M 144.63 139.63 L 144.69 140.69 C 144.73 141.58 145.49 142.26 146.37 142.22 C 147.26 142.17 147.95 141.42 147.90 140.53 L 147.85 139.47 C 147.81 138.58 147.05 137.90 146.16 137.94 C 145.27 137.98 144.59 138.74 144.63 139.63 Z M 144.69 140.67 L 144.73 141.67 C 144.77 142.56 145.51 143.25 146.40 143.21 C 147.29 143.18 147.98 142.43 147.94 141.54 L 147.90 140.54 C 147.86 139.66 147.12 138.97 146.23 139.00 C 145.34 139.04 144.65 139.79 144.69 140.67 Z M 144.73 141.65 L 144.76 142.62 C 144.78 143.51 145.52 144.20 146.41 144.18 C 147.29 144.16 147.99 143.42 147.96 142.53 L 147.94 141.56 C 147.91 140.68 147.18 139.98 146.29 140.00 C 145.41 140.03 144.71 140.77 144.73 141.65 Z M 144.76 142.59 L 144.77 143.60 C 144.78 144.48 145.50 145.19 146.39 145.19 C 147.27 145.18 147.98 144.45 147.97 143.57 L 147.96 142.56 C 147.95 141.68 147.23 140.97 146.35 140.98 C 145.46 140.98 144.75 141.71 144.76 142.59 Z M 144.77 143.56 L 144.76 144.59 C 144.74 145.47 145.45 146.20 146.33 146.21 C 147.21 146.22 147.94 145.52 147.95 144.64 L 147.97 143.61 C 147.98 142.73 147.28 142.00 146.40 141.99 C 145.51 141.97 144.79 142.68 144.77 143.56 Z M 144.76 144.54 L 144.71 145.56 C 144.67 146.44 145.35 147.19 146.23 147.23 C 147.11 147.27 147.86 146.59 147.90 145.72 L 147.95 144.69 C 147.99 143.81 147.31 143.06 146.43 143.02 C 145.55 142.98 144.80 143.66 144.76 144.54 Z M 144.72 145.50 L 144.63 146.52 C 144.55 147.39 145.20 148.17 146.08 148.24 C 146.95 148.32 147.72 147.68 147.80 146.80 L 147.89 145.78 C 147.97 144.91 147.32 144.13 146.45 144.06 C 145.57 143.98 144.80 144.62 144.72 145.50 Z M 144.64 146.45 L 144.51 147.46 C 144.39 148.33 145.00 149.13 145.86 149.25 C 146.73 149.37 147.53 148.76 147.65 147.89 L 147.79 146.87 C 147.91 146.01 147.30 145.21 146.43 145.09 C 145.56 144.97 144.76 145.58 144.64 146.45 Z M 144.52 147.40 L 144.35 148.39 C 144.19 149.25 144.77 150.07 145.63 150.22 C 146.49 150.38 147.31 149.80 147.46 148.94 L 147.63 147.95 C 147.79 147.09 147.21 146.27 146.35 146.12 C 145.49 145.97 144.67 146.54 144.52 147.40 Z M 144.36 148.34 L 144.16 149.31 C 143.98 150.16 144.52 151.00 145.38 151.18 C 146.23 151.36 147.06 150.81 147.24 149.96 L 147.44 148.99 C 147.62 148.14 147.08 147.30 146.23 147.12 C 145.37 146.94 144.54 147.49 144.36 148.34 Z M 144.17 149.28 L 143.95 150.24 C 143.75 151.08 144.28 151.93 145.12 152.12 C 145.97 152.32 146.81 151.79 147.01 150.95 L 147.23 149.99 C 147.42 149.14 146.90 148.30 146.05 148.11 C 145.21 147.91 144.36 148.44 144.17 149.28 Z M 143.95 150.23 L 143.75 151.07 C 143.55 151.91 144.07 152.75 144.91 152.96 C 145.75 153.16 146.59 152.64 146.80 151.80 L 147.00 150.96 C 147.20 150.12 146.69 149.27 145.84 149.07 C 145.00 148.87 144.16 149.39 143.95 150.23 Z"
      fill="black"
      fill-rule="nonzero" /><path d="M 120.22 107.63 L 121.09 107.63 C 122.03 107.63 122.79 106.86 122.78 105.92 C 122.78 104.98 122.01 104.22 121.08 104.23 L 120.20 104.23 C 119.26 104.24 118.50 105.00 118.51 105.94 C 118.51 106.88 119.28 107.64 120.22 107.63 Z M 121.13 107.63 L 122.05 107.60 C 122.99 107.58 123.73 106.80 123.70 105.86 C 123.67 104.92 122.89 104.18 121.95 104.20 L 121.04 104.23 C 120.10 104.25 119.36 105.04 119.38 105.98 C 119.41 106.92 120.19 107.66 121.13 107.63 Z M 122.12 107.60 L 123.12 107.53 C 124.06 107.47 124.76 106.65 124.70 105.72 C 124.63 104.78 123.82 104.07 122.88 104.13 L 121.88 104.20 C 120.94 104.27 120.23 105.08 120.30 106.02 C 120.36 106.96 121.18 107.67 122.12 107.60 Z M 123.20 107.53 L 124.33 107.39 C 125.27 107.28 125.93 106.43 125.82 105.49 C 125.71 104.56 124.86 103.89 123.92 104.01 L 122.80 104.14 C 121.86 104.25 121.19 105.10 121.31 106.04 C 121.42 106.97 122.27 107.64 123.20 107.53 Z M 124.41 107.37 L 125.42 107.21 C 126.34 107.05 126.97 106.18 126.81 105.25 C 126.66 104.33 125.79 103.70 124.86 103.85 L 123.85 104.02 C 122.92 104.17 122.30 105.05 122.45 105.98 C 122.60 106.90 123.48 107.53 124.41 107.37 Z M 125.46 107.18 L 126.44 106.99 C 127.36 106.81 127.95 105.92 127.77 105.01 C 127.59 104.10 126.71 103.50 125.79 103.68 L 124.81 103.88 C 123.90 104.06 123.30 104.94 123.48 105.86 C 123.66 106.77 124.55 107.36 125.46 107.18 Z M 126.47 106.97 L 127.49 106.74 C 128.39 106.55 128.96 105.66 128.76 104.76 C 128.57 103.86 127.68 103.29 126.78 103.49 L 125.76 103.71 C 124.86 103.90 124.29 104.79 124.49 105.69 C 124.69 106.59 125.57 107.16 126.47 106.97 Z M 127.51 106.72 L 128.53 106.48 C 129.42 106.27 129.97 105.38 129.76 104.50 C 129.55 103.61 128.66 103.06 127.78 103.27 L 126.76 103.51 C 125.87 103.72 125.32 104.61 125.53 105.49 C 125.74 106.38 126.63 106.93 127.51 106.72 Z M 128.55 106.46 L 129.54 106.21 C 130.42 106.00 130.95 105.11 130.73 104.23 C 130.51 103.36 129.63 102.83 128.75 103.04 L 127.76 103.29 C 126.89 103.51 126.35 104.39 126.57 105.27 C 126.79 106.14 127.67 106.68 128.55 106.46 Z M 129.55 106.19 L 130.48 105.95 C 131.35 105.72 131.87 104.84 131.64 103.98 C 131.42 103.12 130.53 102.60 129.67 102.82 L 128.74 103.07 C 127.88 103.29 127.36 104.17 127.58 105.04 C 127.81 105.90 128.69 106.42 129.55 106.19 Z M 130.50 105.93 L 131.54 105.65 C 132.39 105.41 132.89 104.54 132.66 103.68 C 132.43 102.83 131.55 102.33 130.69 102.56 L 129.66 102.84 C 128.80 103.07 128.30 103.95 128.53 104.81 C 128.77 105.66 129.65 106.16 130.50 105.93 Z M 131.55 105.63 L 132.54 105.35 C 133.38 105.11 133.87 104.23 133.63 103.38 C 133.39 102.54 132.51 102.05 131.66 102.29 L 130.68 102.57 C 129.83 102.82 129.34 103.70 129.59 104.54 C 129.83 105.39 130.71 105.87 131.55 105.63 Z M 132.55 105.34 L 133.46 105.07 C 134.30 104.82 134.78 103.94 134.53 103.10 C 134.28 102.27 133.40 101.79 132.56 102.04 L 131.65 102.31 C 130.82 102.55 130.34 103.43 130.59 104.27 C 130.83 105.11 131.71 105.59 132.55 105.34 Z M 133.46 105.06 L 134.36 104.79 C 135.19 104.54 135.66 103.66 135.42 102.83 C 135.17 102.00 134.29 101.53 133.46 101.78 L 132.56 102.05 C 131.73 102.29 131.26 103.17 131.51 104.00 C 131.75 104.83 132.63 105.31 133.46 105.06 Z M 134.35 104.78 L 135.26 104.51 C 136.09 104.27 136.57 103.40 136.32 102.57 C 136.08 101.74 135.21 101.27 134.38 101.51 L 133.47 101.78 C 132.64 102.03 132.16 102.90 132.41 103.73 C 132.65 104.55 133.52 105.03 134.35 104.78 Z M 135.25 104.51 L 136.14 104.26 C 136.97 104.02 137.45 103.16 137.21 102.33 C 136.97 101.50 136.11 101.02 135.28 101.26 L 134.39 101.51 C 133.56 101.75 133.09 102.62 133.32 103.44 C 133.56 104.27 134.43 104.75 135.25 104.51 Z M 136.13 104.26 L 137.08 104.00 C 137.91 103.76 138.39 102.90 138.16 102.07 C 137.92 101.24 137.06 100.76 136.23 100.99 L 135.29 101.26 C 134.46 101.49 133.97 102.35 134.21 103.18 C 134.44 104.01 135.30 104.50 136.13 104.26 Z M 137.07 104.00 L 138.06 103.72 C 138.89 103.49 139.37 102.63 139.14 101.80 C 138.91 100.97 138.05 100.49 137.22 100.72 L 136.23 100.99 C 135.40 101.22 134.92 102.08 135.15 102.91 C 135.38 103.74 136.24 104.23 137.07 104.00 Z M 138.05 103.72 L 139.07 103.44 C 139.90 103.22 140.38 102.36 140.16 101.52 C 139.93 100.69 139.07 100.21 138.24 100.44 L 137.22 100.72 C 136.39 100.94 135.90 101.80 136.13 102.64 C 136.36 103.47 137.22 103.95 138.05 103.72 Z M 139.06 103.45 L 139.99 103.19 C 140.82 102.96 141.30 102.10 141.08 101.27 C 140.85 100.44 139.99 99.95 139.16 100.18 L 138.24 100.44 C 137.41 100.66 136.92 101.52 137.15 102.35 C 137.37 103.19 138.23 103.67 139.06 103.45 Z"
      fill="black"
      fill-rule="nonzero" /><path d="M 125.10 110.70 L 124.66 111.90 C 124.36 112.71 124.79 113.62 125.60 113.91 C 126.42 114.21 127.32 113.79 127.62 112.97 L 128.05 111.78 C 128.35 110.96 127.93 110.06 127.11 109.76 C 126.30 109.46 125.39 109.88 125.10 110.70 Z M 124.59 112.05 L 124.34 113.06 C 124.12 113.92 124.64 114.79 125.50 115.00 C 126.35 115.21 127.22 114.69 127.43 113.84 L 127.69 112.82 C 127.90 111.97 127.38 111.10 126.53 110.89 C 125.67 110.67 124.80 111.19 124.59 112.05 Z M 124.28 113.71 L 124.39 114.36 C 124.53 115.25 125.37 115.85 126.25 115.71 C 127.13 115.56 127.73 114.73 127.59 113.85 L 127.49 113.19 C 127.34 112.31 126.51 111.71 125.63 111.85 C 124.74 111.99 124.14 112.83 124.28 113.71 Z M 125.58 115.69 L 126.18 115.84 C 127.05 116.07 127.94 115.54 128.17 114.67 C 128.40 113.79 127.87 112.90 126.99 112.68 L 126.40 112.52 C 125.53 112.30 124.63 112.82 124.41 113.70 C 124.18 114.57 124.71 115.46 125.58 115.69 Z M 126.99 115.84 L 127.95 115.60 C 128.83 115.37 129.35 114.48 129.13 113.61 C 128.90 112.73 128.01 112.20 127.14 112.43 L 126.18 112.67 C 125.30 112.90 124.78 113.79 125.00 114.67 C 125.23 115.54 126.12 116.07 126.99 115.84 Z M 128.18 115.52 L 129.28 115.05 C 130.12 114.70 130.51 113.74 130.15 112.91 C 129.80 112.07 128.84 111.69 128.01 112.04 L 126.90 112.51 C 126.07 112.86 125.68 113.82 126.04 114.65 C 126.39 115.48 127.35 115.87 128.18 115.52 Z M 129.37 115.01 L 130.30 114.55 C 131.10 114.15 131.43 113.17 131.03 112.36 C 130.63 111.55 129.65 111.22 128.84 111.62 L 127.92 112.08 C 127.11 112.48 126.78 113.46 127.18 114.27 C 127.58 115.08 128.56 115.41 129.37 115.01 Z M 130.35 114.51 L 131.16 114.07 C 131.95 113.64 132.24 112.65 131.81 111.86 C 131.38 111.08 130.40 110.79 129.61 111.22 L 128.79 111.66 C 128.01 112.09 127.72 113.08 128.15 113.86 C 128.57 114.65 129.56 114.94 130.35 114.51 Z M 131.20 114.03 L 132.04 113.54 C 132.81 113.09 133.06 112.10 132.62 111.34 C 132.17 110.57 131.18 110.31 130.41 110.76 L 129.57 111.25 C 128.81 111.70 128.55 112.69 129.00 113.45 C 129.45 114.22 130.43 114.48 131.20 114.03 Z M 132.06 113.51 L 132.99 112.94 C 133.75 112.48 133.98 111.50 133.53 110.75 C 133.07 110.00 132.09 109.76 131.33 110.22 L 130.40 110.79 C 129.64 111.25 129.41 112.23 129.86 112.98 C 130.32 113.73 131.30 113.97 132.06 113.51 Z M 133.00 112.93 L 133.77 112.45 C 134.51 111.99 134.75 111.01 134.28 110.27 C 133.82 109.52 132.85 109.29 132.10 109.75 L 131.33 110.23 C 130.58 110.69 130.35 111.67 130.81 112.41 C 131.27 113.16 132.25 113.39 133.00 112.93 Z M 133.77 112.44 L 134.56 111.95 C 135.30 111.49 135.53 110.52 135.07 109.78 C 134.61 109.04 133.63 108.81 132.89 109.27 L 132.10 109.76 C 131.36 110.22 131.13 111.19 131.59 111.94 C 132.05 112.68 133.03 112.91 133.77 112.44 Z M 134.56 111.95 L 135.40 111.42 C 136.14 110.96 136.37 109.99 135.91 109.25 C 135.45 108.51 134.48 108.29 133.74 108.75 L 132.89 109.27 C 132.15 109.73 131.93 110.71 132.39 111.44 C 132.85 112.18 133.82 112.41 134.56 111.95 Z M 135.40 111.42 L 136.29 110.87 C 137.02 110.41 137.25 109.44 136.79 108.70 C 136.33 107.96 135.36 107.74 134.62 108.20 L 133.74 108.75 C 133.00 109.21 132.78 110.18 133.24 110.92 C 133.70 111.65 134.67 111.88 135.40 111.42 Z M 136.29 110.86 L 137.20 110.29 C 137.93 109.83 138.15 108.87 137.70 108.13 C 137.24 107.40 136.27 107.18 135.54 107.63 L 134.63 108.20 C 133.89 108.66 133.67 109.63 134.13 110.36 C 134.59 111.10 135.55 111.32 136.29 110.86 Z M 137.20 110.29 L 138.01 109.78 C 138.74 109.32 138.97 108.36 138.51 107.62 C 138.05 106.89 137.09 106.67 136.36 107.13 L 135.54 107.64 C 134.81 108.10 134.58 109.06 135.04 109.79 C 135.50 110.52 136.46 110.75 137.20 110.29 Z"
      fill="black"
      fill-rule="nonzero" /><path d="M 112.66 135.48 L 112.42 136.71 C 112.26 137.59 112.83 138.43 113.71 138.60 C 114.58 138.76 115.43 138.19 115.59 137.31 L 115.83 136.08 C 115.99 135.21 115.42 134.36 114.54 134.20 C 113.67 134.03 112.82 134.61 112.66 135.48 Z M 112.37 136.91 L 112.31 137.93 C 112.25 138.83 112.94 139.61 113.84 139.67 C 114.75 139.72 115.52 139.04 115.58 138.13 L 115.64 137.11 C 115.70 136.21 115.01 135.43 114.11 135.38 C 113.21 135.32 112.43 136.01 112.37 136.91 Z M 112.44 138.74 L 112.71 139.33 C 113.10 140.16 114.10 140.52 114.93 140.13 C 115.76 139.74 116.12 138.75 115.73 137.92 L 115.45 137.32 C 115.06 136.49 114.07 136.13 113.24 136.52 C 112.40 136.91 112.05 137.90 112.44 138.74 Z M 114.09 140.30 L 114.67 140.34 C 115.59 140.42 116.40 139.73 116.48 138.80 C 116.55 137.88 115.86 137.07 114.94 137.00 L 114.36 136.95 C 113.43 136.88 112.62 137.56 112.55 138.49 C 112.47 139.41 113.16 140.22 114.09 140.30 Z M 115.37 140.25 L 116.22 139.94 C 117.09 139.62 117.54 138.66 117.23 137.79 C 116.91 136.92 115.95 136.47 115.08 136.78 L 114.23 137.09 C 113.36 137.41 112.91 138.37 113.23 139.24 C 113.54 140.11 114.50 140.56 115.37 140.25 Z M 116.46 139.83 L 117.50 139.26 C 118.31 138.81 118.60 137.79 118.15 136.98 C 117.71 136.17 116.69 135.87 115.88 136.32 L 114.84 136.89 C 114.03 137.34 113.73 138.36 114.18 139.17 C 114.63 139.98 115.65 140.28 116.46 139.83 Z M 117.60 139.19 L 118.66 138.50 C 119.43 138.00 119.65 136.96 119.14 136.18 C 118.64 135.41 117.60 135.19 116.82 135.70 L 115.77 136.39 C 114.99 136.89 114.78 137.93 115.28 138.71 C 115.79 139.48 116.83 139.70 117.60 139.19 Z M 118.71 138.46 L 119.53 137.88 C 120.28 137.34 120.46 136.30 119.92 135.55 C 119.39 134.79 118.34 134.62 117.59 135.15 L 116.77 135.74 C 116.02 136.27 115.84 137.32 116.38 138.07 C 116.91 138.82 117.96 139.00 118.71 138.46 Z M 119.56 137.85 L 120.39 137.24 C 121.12 136.68 121.27 135.64 120.72 134.90 C 120.17 134.16 119.12 134.01 118.38 134.56 L 117.56 135.18 C 116.82 135.73 116.67 136.78 117.22 137.52 C 117.78 138.26 118.82 138.41 119.56 137.85 Z M 120.41 137.21 L 121.22 136.58 C 121.95 136.02 122.07 134.97 121.51 134.24 C 120.94 133.52 119.89 133.39 119.17 133.95 L 118.36 134.58 C 117.63 135.15 117.50 136.20 118.07 136.92 C 118.64 137.65 119.68 137.78 120.41 137.21 Z M 121.24 136.56 L 122.02 135.94 C 122.73 135.36 122.84 134.31 122.27 133.60 C 121.69 132.88 120.64 132.77 119.93 133.34 L 119.15 133.97 C 118.43 134.55 118.32 135.60 118.90 136.31 C 119.47 137.03 120.52 137.14 121.24 136.56 Z M 122.03 135.92 L 122.76 135.31 C 123.47 134.73 123.57 133.68 122.98 132.98 C 122.40 132.27 121.35 132.17 120.64 132.76 L 119.91 133.36 C 119.21 133.95 119.11 134.99 119.69 135.70 C 120.28 136.41 121.32 136.51 122.03 135.92 Z M 122.78 135.30 L 123.61 134.59 C 124.31 133.99 124.39 132.95 123.80 132.25 C 123.21 131.55 122.16 131.47 121.47 132.06 L 120.63 132.77 C 119.93 133.36 119.85 134.41 120.44 135.11 C 121.03 135.81 122.08 135.89 122.78 135.30 Z M 123.62 134.57 L 124.40 133.90 C 125.08 133.30 125.15 132.25 124.55 131.57 C 123.96 130.88 122.91 130.81 122.23 131.41 L 121.45 132.08 C 120.77 132.68 120.70 133.72 121.30 134.41 C 121.89 135.10 122.94 135.17 123.62 134.57 Z M 124.40 133.88 L 125.12 133.24 C 125.80 132.64 125.86 131.60 125.25 130.92 C 124.65 130.24 123.61 130.18 122.93 130.79 L 122.22 131.42 C 121.54 132.03 121.48 133.07 122.08 133.75 C 122.69 134.42 123.73 134.48 124.40 133.88 Z M 125.12 133.23 L 125.81 132.61 C 126.49 132.00 126.54 130.96 125.93 130.29 C 125.32 129.62 124.29 129.57 123.62 130.18 L 122.93 130.80 C 122.26 131.40 122.20 132.44 122.81 133.11 C 123.42 133.78 124.45 133.84 125.12 133.23 Z M 125.81 132.60 L 126.53 131.95 C 127.19 131.35 127.24 130.31 126.64 129.65 C 126.03 128.98 125.00 128.93 124.33 129.53 L 123.62 130.18 C 122.95 130.79 122.90 131.82 123.51 132.49 C 124.11 133.15 125.15 133.20 125.81 132.60 Z M 126.52 131.95 L 127.25 131.28 C 127.92 130.68 127.97 129.65 127.36 128.99 C 126.76 128.32 125.73 128.27 125.06 128.88 L 124.33 129.54 C 123.67 130.14 123.62 131.17 124.22 131.84 C 124.83 132.50 125.86 132.55 126.52 131.95 Z M 127.25 131.28 L 127.99 130.60 C 128.66 130.00 128.70 128.97 128.10 128.31 C 127.50 127.65 126.47 127.60 125.81 128.20 L 125.07 128.88 C 124.40 129.48 124.36 130.51 124.96 131.17 C 125.56 131.83 126.59 131.88 127.25 131.28 Z M 127.99 130.60 L 128.75 129.91 C 129.41 129.31 129.45 128.28 128.85 127.62 C 128.25 126.96 127.23 126.92 126.57 127.52 L 125.81 128.21 C 125.15 128.81 125.10 129.83 125.71 130.49 C 126.31 131.15 127.33 131.20 127.99 130.60 Z M 128.75 129.91 L 129.48 129.24 C 130.13 128.64 130.18 127.62 129.58 126.96 C 128.98 126.30 127.96 126.25 127.30 126.86 L 126.57 127.52 C 125.91 128.13 125.86 129.15 126.47 129.80 C 127.07 130.46 128.09 130.51 128.75 129.91 Z M 129.48 129.23 L 130.21 128.56 C 130.86 127.96 130.91 126.94 130.31 126.28 C 129.70 125.63 128.68 125.59 128.03 126.19 L 127.30 126.86 C 126.64 127.46 126.60 128.48 127.20 129.14 C 127.80 129.79 128.82 129.83 129.48 129.23 Z M 130.21 128.55 L 130.95 127.87 C 131.60 127.26 131.64 126.25 131.03 125.60 C 130.43 124.95 129.41 124.91 128.76 125.51 L 128.03 126.20 C 127.37 126.80 127.34 127.82 127.94 128.47 C 128.55 129.12 129.56 129.16 130.21 128.55 Z M 130.96 127.86 L 131.69 127.17 C 132.34 126.56 132.37 125.54 131.76 124.90 C 131.15 124.25 130.14 124.22 129.49 124.83 L 128.76 125.52 C 128.11 126.13 128.08 127.15 128.69 127.79 C 129.30 128.44 130.31 128.47 130.96 127.86 Z M 131.70 127.15 L 132.43 126.46 C 133.06 125.85 133.09 124.83 132.47 124.19 C 131.86 123.56 130.85 123.53 130.21 124.15 L 129.48 124.84 C 128.85 125.45 128.82 126.47 129.44 127.11 C 130.05 127.74 131.06 127.77 131.70 127.15 Z M 132.44 126.45 L 133.15 125.75 C 133.78 125.13 133.79 124.12 133.17 123.49 C 132.55 122.86 131.54 122.85 130.91 123.46 L 130.20 124.16 C 129.57 124.78 129.56 125.79 130.17 126.42 C 130.79 127.05 131.80 127.06 132.44 126.45 Z M 133.16 125.74 L 133.86 125.03 C 134.49 124.41 134.49 123.40 133.86 122.78 C 133.24 122.15 132.23 122.15 131.61 122.77 L 130.90 123.48 C 130.28 124.10 130.27 125.11 130.90 125.74 C 131.52 126.36 132.53 126.36 133.16 125.74 Z M 133.87 125.02 L 134.57 124.30 C 135.19 123.68 135.18 122.67 134.55 122.05 C 133.93 121.43 132.92 121.44 132.30 122.07 L 131.60 122.79 C 130.98 123.41 130.99 124.42 131.62 125.04 C 132.24 125.66 133.25 125.65 133.87 125.02 Z M 134.58 124.29 L 135.28 123.57 C 135.89 122.93 135.87 121.93 135.24 121.32 C 134.61 120.71 133.60 120.72 132.99 121.36 L 132.29 122.08 C 131.68 122.72 131.70 123.72 132.33 124.33 C 132.97 124.94 133.97 124.92 134.58 124.29 Z M 135.29 123.55 L 135.98 122.83 C 136.58 122.19 136.56 121.18 135.92 120.58 C 135.28 119.98 134.28 120.00 133.67 120.64 L 132.98 121.37 C 132.38 122.01 132.41 123.01 133.04 123.62 C 133.68 124.22 134.69 124.19 135.29 123.55 Z M 135.98 122.82 L 136.67 122.09 C 137.27 121.45 137.24 120.44 136.60 119.84 C 135.96 119.24 134.95 119.28 134.35 119.92 L 133.67 120.65 C 133.07 121.29 133.10 122.29 133.74 122.89 C 134.38 123.49 135.38 123.46 135.98 122.82 Z M 136.67 122.08 L 137.35 121.35 C 137.95 120.71 137.92 119.71 137.28 119.11 C 136.64 118.51 135.63 118.55 135.04 119.19 L 134.35 119.92 C 133.76 120.56 133.79 121.56 134.43 122.16 C 135.07 122.76 136.07 122.72 136.67 122.08 Z M 137.35 121.35 L 138.03 120.62 C 138.63 119.98 138.59 118.98 137.95 118.38 C 137.31 117.79 136.31 117.82 135.72 118.46 L 135.04 119.19 C 134.44 119.83 134.48 120.83 135.12 121.42 C 135.76 122.02 136.76 121.99 137.35 121.35 Z M 138.03 120.62 L 138.71 119.89 C 139.31 119.26 139.28 118.26 138.64 117.66 C 138.01 117.06 137.01 117.09 136.41 117.73 L 135.72 118.46 C 135.13 119.10 135.16 120.10 135.79 120.69 C 136.43 121.29 137.43 121.26 138.03 120.62 Z M 138.71 119.89 L 139.39 119.17 C 139.99 118.54 139.96 117.54 139.33 116.94 C 138.70 116.34 137.70 116.37 137.10 117.00 L 136.41 117.73 C 135.81 118.36 135.84 119.36 136.48 119.96 C 137.11 120.56 138.11 120.53 138.71 119.89 Z M 139.39 119.17 L 140.07 118.45 C 140.67 117.81 140.64 116.82 140.01 116.22 C 139.38 115.62 138.38 115.65 137.78 116.28 L 137.10 117.00 C 136.50 117.63 136.53 118.63 137.16 119.23 C 137.79 119.83 138.79 119.80 139.39 119.17 Z M 140.07 118.44 L 140.76 117.72 C 141.36 117.08 141.33 116.09 140.70 115.49 C 140.06 114.89 139.07 114.92 138.47 115.56 L 137.78 116.28 C 137.19 116.91 137.22 117.91 137.85 118.51 C 138.48 119.11 139.48 119.08 140.07 118.44 Z M 140.76 117.71 L 141.45 116.98 C 142.05 116.34 142.01 115.35 141.38 114.75 C 140.75 114.16 139.75 114.19 139.16 114.82 L 138.47 115.56 C 137.87 116.19 137.91 117.19 138.54 117.78 C 139.17 118.38 140.17 118.35 140.76 117.71 Z M 141.46 116.97 L 142.15 116.22 C 142.74 115.58 142.70 114.59 142.07 114.00 C 141.43 113.41 140.43 113.45 139.84 114.09 L 139.15 114.83 C 138.56 115.47 138.60 116.46 139.24 117.05 C 139.87 117.64 140.87 117.60 141.46 116.97 Z M 142.16 116.21 L 142.84 115.46 C 143.42 114.82 143.38 113.83 142.74 113.24 C 142.10 112.66 141.10 112.71 140.52 113.35 L 139.84 114.10 C 139.25 114.74 139.30 115.73 139.94 116.31 C 140.58 116.90 141.57 116.85 142.16 116.21 Z M 142.85 115.45 L 143.51 114.70 C 144.09 114.06 144.03 113.07 143.38 112.49 C 142.74 111.91 141.74 111.97 141.17 112.62 L 140.51 113.36 C 139.93 114.01 139.99 115.00 140.64 115.58 C 141.28 116.15 142.27 116.09 142.85 115.45 Z M 143.53 114.69 L 144.16 113.96 C 144.72 113.30 144.65 112.31 143.99 111.75 C 143.34 111.18 142.35 111.25 141.78 111.91 L 141.15 112.64 C 140.59 113.29 140.66 114.28 141.32 114.85 C 141.97 115.41 142.96 115.34 143.53 114.69 Z M 144.17 113.93 L 144.78 113.20 C 145.33 112.54 145.24 111.55 144.57 111.00 C 143.91 110.45 142.92 110.54 142.37 111.20 L 141.76 111.93 C 141.21 112.60 141.30 113.59 141.97 114.14 C 142.64 114.69 143.62 114.60 144.17 113.93 Z M 144.80 113.18 L 145.39 112.44 C 145.93 111.76 145.82 110.78 145.14 110.24 C 144.47 109.70 143.48 109.81 142.94 110.49 L 142.35 111.23 C 141.81 111.90 141.92 112.89 142.60 113.43 C 143.27 113.97 144.26 113.86 144.80 113.18 Z M 145.40 112.42 L 146.01 111.63 C 146.54 110.94 146.42 109.96 145.73 109.43 C 145.05 108.91 144.07 109.03 143.54 109.71 L 142.93 110.51 C 142.40 111.19 142.52 112.17 143.21 112.70 C 143.89 113.23 144.87 113.10 145.40 112.42 Z M 146.02 111.61 L 146.68 110.74 C 147.20 110.05 147.07 109.07 146.38 108.55 C 145.69 108.03 144.71 108.17 144.19 108.86 L 143.53 109.73 C 143.01 110.42 143.14 111.40 143.83 111.92 C 144.52 112.44 145.50 112.30 146.02 111.61 Z M 146.69 110.74 L 147.26 109.96 C 147.78 109.27 147.64 108.29 146.95 107.78 C 146.26 107.26 145.28 107.40 144.76 108.09 L 144.18 108.86 C 143.67 109.56 143.81 110.54 144.50 111.05 C 145.19 111.57 146.17 111.43 146.69 110.74 Z M 147.27 109.96 L 147.86 109.16 C 148.37 108.47 148.23 107.49 147.53 106.97 C 146.84 106.46 145.86 106.61 145.35 107.30 L 144.76 108.10 C 144.24 108.79 144.39 109.77 145.08 110.29 C 145.78 110.80 146.75 110.65 147.27 109.96 Z M 147.86 109.15 L 148.47 108.32 C 148.98 107.63 148.83 106.65 148.13 106.14 C 147.43 105.63 146.45 105.78 145.95 106.48 L 145.34 107.31 C 144.83 108.01 144.98 108.98 145.68 109.49 C 146.38 110.00 147.35 109.85 147.86 109.15 Z M 148.48 108.31 L 149.08 107.47 C 149.58 106.77 149.42 105.80 148.72 105.29 C 148.02 104.79 147.05 104.95 146.54 105.65 L 145.94 106.49 C 145.44 107.19 145.60 108.17 146.30 108.67 C 147.00 109.17 147.97 109.01 148.48 108.31 Z M 149.09 107.46 L 149.67 106.63 C 150.17 105.92 150.00 104.95 149.29 104.45 C 148.59 103.96 147.61 104.13 147.12 104.83 L 146.53 105.66 C 146.04 106.37 146.21 107.34 146.91 107.84 C 147.62 108.33 148.59 108.17 149.09 107.46 Z M 149.68 106.61 L 150.26 105.76 C 150.75 105.05 150.57 104.08 149.86 103.59 C 149.14 103.11 148.17 103.29 147.69 104.00 L 147.11 104.85 C 146.62 105.56 146.80 106.53 147.51 107.02 C 148.23 107.51 149.20 107.32 149.68 106.61 Z M 150.28 105.74 L 150.86 104.85 C 151.33 104.13 151.13 103.16 150.41 102.69 C 149.69 102.22 148.72 102.42 148.25 103.14 L 147.67 104.03 C 147.20 104.75 147.40 105.72 148.12 106.19 C 148.84 106.66 149.81 106.46 150.28 105.74 Z M 150.89 104.81 L 151.41 103.96 C 151.86 103.22 151.63 102.26 150.89 101.81 C 150.15 101.36 149.19 101.59 148.74 102.33 L 148.22 103.18 C 147.77 103.92 148.00 104.88 148.74 105.33 C 149.48 105.78 150.44 105.55 150.89 104.81 Z M 151.44 103.91 L 151.91 103.06 C 152.33 102.31 152.06 101.36 151.31 100.94 C 150.56 100.52 149.60 100.79 149.18 101.54 L 148.71 102.38 C 148.29 103.13 148.56 104.09 149.31 104.51 C 150.07 104.93 151.02 104.66 151.44 103.91 Z M 151.94 103.00 L 152.37 102.15 C 152.75 101.38 152.44 100.44 151.67 100.06 C 150.90 99.67 149.96 99.98 149.58 100.75 L 149.15 101.60 C 148.76 102.37 149.08 103.31 149.85 103.70 C 150.62 104.08 151.56 103.77 151.94 103.00 Z M 152.41 102.08 L 152.90 100.97 C 153.25 100.17 152.88 99.24 152.09 98.90 C 151.29 98.55 150.37 98.91 150.02 99.71 L 149.53 100.82 C 149.19 101.62 149.55 102.54 150.34 102.89 C 151.14 103.24 152.06 102.88 152.41 102.08 Z M 152.95 100.92 L 153.40 99.77 C 153.72 98.95 153.31 98.02 152.49 97.70 C 151.67 97.38 150.75 97.78 150.43 98.60 L 149.97 99.75 C 149.65 100.58 150.06 101.50 150.88 101.82 C 151.70 102.14 152.62 101.74 152.95 100.92 Z M 153.43 99.78 L 153.75 98.94 C 154.08 98.10 153.66 97.16 152.83 96.84 C 151.99 96.51 151.05 96.92 150.72 97.76 L 150.40 98.59 C 150.07 99.43 150.48 100.37 151.32 100.70 C 152.16 101.03 153.10 100.61 153.43 99.78 Z M 153.62 99.25 L 153.80 98.98 C 154.30 98.21 154.08 97.19 153.32 96.69 C 152.55 96.19 151.53 96.41 151.03 97.17 L 150.85 97.45 C 150.35 98.21 150.57 99.24 151.34 99.74 C 152.10 100.23 153.13 100.02 153.62 99.25 Z M 150.74 98.01 L 150.71 98.73 C 150.67 99.66 151.39 100.44 152.32 100.47 C 153.24 100.51 154.02 99.79 154.06 98.87 L 154.09 98.14 C 154.13 97.22 153.41 96.44 152.48 96.40 C 151.56 96.36 150.78 97.08 150.74 98.01 Z M 150.70 98.64 L 150.57 100.02 C 150.48 100.95 151.17 101.78 152.10 101.87 C 153.03 101.95 153.86 101.27 153.94 100.34 L 154.07 98.96 C 154.16 98.03 153.48 97.20 152.55 97.11 C 151.61 97.02 150.79 97.71 150.70 98.64 Z M 150.56 100.09 L 150.50 101.09 C 150.45 102.03 151.17 102.83 152.11 102.88 C 153.05 102.93 153.85 102.21 153.91 101.27 L 153.96 100.27 C 154.01 99.33 153.29 98.53 152.35 98.48 C 151.41 98.43 150.61 99.15 150.56 100.09 Z M 150.50 101.15 L 150.49 102.16 C 150.47 103.10 151.22 103.88 152.16 103.89 C 153.10 103.90 153.88 103.15 153.89 102.21 L 153.91 101.20 C 153.92 100.26 153.17 99.49 152.23 99.48 C 151.29 99.46 150.51 100.21 150.50 101.15 Z M 150.49 102.22 L 150.51 103.22 C 150.53 104.16 151.31 104.91 152.25 104.89 C 153.19 104.87 153.93 104.09 153.91 103.15 L 153.89 102.15 C 153.87 101.21 153.09 100.47 152.15 100.49 C 151.21 100.51 150.47 101.28 150.49 102.22 Z M 150.51 103.28 L 150.57 104.25 C 150.62 105.18 151.42 105.90 152.36 105.85 C 153.30 105.79 154.01 104.99 153.96 104.06 L 153.91 103.09 C 153.85 102.16 153.05 101.44 152.12 101.49 C 151.18 101.54 150.46 102.35 150.51 103.28 Z M 150.58 104.31 L 150.67 105.25 C 150.76 106.18 151.59 106.86 152.52 106.77 C 153.45 106.68 154.13 105.86 154.04 104.93 L 153.95 103.99 C 153.86 103.06 153.03 102.38 152.10 102.47 C 151.17 102.56 150.49 103.38 150.58 104.31 Z M 150.69 105.33 L 150.83 106.30 C 150.96 107.22 151.82 107.86 152.74 107.73 C 153.66 107.59 154.30 106.74 154.17 105.82 L 154.02 104.85 C 153.89 103.92 153.03 103.29 152.11 103.42 C 151.19 103.55 150.55 104.41 150.69 105.33 Z M 150.85 106.38 L 151.05 107.44 C 151.23 108.35 152.11 108.94 153.02 108.76 C 153.94 108.58 154.53 107.70 154.35 106.79 L 154.14 105.74 C 153.97 104.83 153.08 104.23 152.17 104.41 C 151.26 104.59 150.67 105.47 150.85 106.38 Z M 151.07 107.50 L 151.30 108.46 C 151.51 109.36 152.41 109.91 153.31 109.70 C 154.21 109.49 154.77 108.59 154.56 107.69 L 154.33 106.73 C 154.12 105.83 153.22 105.27 152.32 105.49 C 151.42 105.70 150.86 106.60 151.07 107.50 Z M 151.32 108.49 L 151.57 109.47 C 151.80 110.36 152.71 110.89 153.60 110.66 C 154.49 110.43 155.03 109.52 154.79 108.63 L 154.54 107.66 C 154.31 106.76 153.40 106.23 152.51 106.46 C 151.62 106.69 151.08 107.60 151.32 108.49 Z M 151.58 109.49 L 151.85 110.49 C 152.10 111.37 153.01 111.89 153.89 111.65 C 154.78 111.40 155.30 110.49 155.06 109.61 L 154.78 108.61 C 154.54 107.73 153.63 107.21 152.74 107.45 C 151.86 107.69 151.34 108.60 151.58 109.49 Z M 151.86 110.50 L 152.14 111.48 C 152.39 112.36 153.30 112.87 154.18 112.62 C 155.06 112.37 155.57 111.46 155.32 110.58 L 155.05 109.60 C 154.80 108.72 153.88 108.21 153.00 108.45 C 152.13 108.70 151.61 109.62 151.86 110.50 Z M 152.15 111.48 L 152.42 112.44 C 152.67 113.31 153.58 113.82 154.46 113.57 C 155.33 113.32 155.84 112.41 155.59 111.53 L 155.32 110.57 C 155.07 109.70 154.15 109.19 153.28 109.44 C 152.41 109.69 151.90 110.60 152.15 111.48 Z M 152.43 112.43 L 152.71 113.41 C 152.96 114.28 153.86 114.78 154.73 114.54 C 155.60 114.29 156.11 113.38 155.86 112.51 L 155.58 111.53 C 155.33 110.67 154.43 110.16 153.56 110.41 C 152.69 110.66 152.18 111.56 152.43 112.43 Z M 152.72 113.41 L 152.99 114.35 C 153.24 115.21 154.14 115.70 155.00 115.46 C 155.87 115.21 156.36 114.31 156.11 113.45 L 155.85 112.51 C 155.60 111.65 154.70 111.15 153.83 111.40 C 152.97 111.65 152.48 112.55 152.72 113.41 Z M 153.01 114.35 L 153.29 115.29 C 153.54 116.14 154.44 116.63 155.29 116.38 C 156.14 116.12 156.63 115.23 156.38 114.37 L 156.10 113.44 C 155.85 112.58 154.95 112.10 154.10 112.35 C 153.24 112.60 152.76 113.50 153.01 114.35 Z M 153.30 115.30 L 153.60 116.27 C 153.86 117.11 154.76 117.58 155.60 117.32 C 156.44 117.06 156.92 116.17 156.66 115.33 L 156.36 114.36 C 156.10 113.52 155.21 113.04 154.36 113.30 C 153.52 113.56 153.04 114.46 153.30 115.30 Z M 153.61 116.28 L 153.92 117.23 C 154.19 118.07 155.08 118.53 155.92 118.26 C 156.75 117.99 157.22 117.10 156.95 116.26 L 156.64 115.31 C 156.37 114.47 155.48 114.01 154.64 114.28 C 153.81 114.55 153.35 115.45 153.61 116.28 Z M 153.93 117.25 L 154.26 118.23 C 154.54 119.06 155.44 119.50 156.27 119.22 C 157.10 118.94 157.54 118.04 157.26 117.21 L 156.93 116.24 C 156.65 115.41 155.76 114.97 154.93 115.25 C 154.10 115.52 153.65 116.42 153.93 117.25 Z M 154.28 118.25 L 154.62 119.22 C 154.92 120.04 155.82 120.46 156.64 120.17 C 157.46 119.87 157.89 118.97 157.59 118.15 L 157.25 117.19 C 156.95 116.37 156.05 115.94 155.23 116.24 C 154.41 116.53 153.98 117.43 154.28 118.25 Z M 154.64 119.25 L 155.00 120.16 C 155.31 120.97 156.22 121.37 157.03 121.06 C 157.84 120.74 158.24 119.83 157.93 119.02 L 157.57 118.11 C 157.26 117.30 156.35 116.90 155.54 117.22 C 154.73 117.53 154.33 118.45 154.64 119.25 Z M 155.03 120.22 L 155.46 121.21 C 155.81 122.00 156.73 122.36 157.52 122.01 C 158.31 121.66 158.68 120.74 158.33 119.95 L 157.90 118.96 C 157.55 118.17 156.63 117.81 155.83 118.16 C 155.04 118.51 154.68 119.43 155.03 120.22 Z M 155.49 121.27 L 155.95 122.19 C 156.33 122.96 157.27 123.27 158.04 122.89 C 158.82 122.51 159.13 121.57 158.75 120.79 L 158.29 119.88 C 157.91 119.11 156.97 118.79 156.20 119.18 C 155.42 119.56 155.11 120.50 155.49 121.27 Z M 155.98 122.24 L 156.43 123.07 C 156.84 123.83 157.79 124.11 158.55 123.69 C 159.31 123.28 159.59 122.33 159.17 121.57 L 158.72 120.74 C 158.31 119.98 157.36 119.70 156.60 120.12 C 155.84 120.53 155.56 121.48 155.98 122.24 Z M 156.44 123.09 L 156.78 123.68 C 157.21 124.43 158.16 124.70 158.91 124.27 C 159.66 123.84 159.92 122.89 159.50 122.14 L 159.16 121.55 C 158.73 120.80 157.78 120.54 157.03 120.96 C 156.28 121.39 156.02 122.34 156.44 123.09 Z"
      fill="black"
      fill-rule="nonzero" /><path d="M 153.85 94.35 L 154.15 95.36 C 154.42 96.26 155.37 96.78 156.28 96.51 C 157.18 96.24 157.69 95.29 157.42 94.38 L 157.12 93.37 C 156.85 92.47 155.90 91.95 155.00 92.22 C 154.09 92.49 153.58 93.44 153.85 94.35 Z M 154.24 95.61 L 154.67 96.49 C 155.08 97.35 156.10 97.71 156.95 97.30 C 157.80 96.89 158.16 95.87 157.75 95.02 L 157.33 94.13 C 156.92 93.28 155.90 92.92 155.05 93.33 C 154.20 93.73 153.84 94.75 154.24 95.61 Z M 155.02 96.99 L 155.67 97.62 C 156.35 98.28 157.43 98.26 158.09 97.58 C 158.75 96.90 158.73 95.82 158.05 95.16 L 157.40 94.53 C 156.72 93.87 155.64 93.89 154.98 94.57 C 154.33 95.24 154.34 96.33 155.02 96.99 Z M 156.26 97.99 L 157.09 98.31 C 157.98 98.64 158.97 98.19 159.30 97.31 C 159.63 96.42 159.19 95.44 158.30 95.10 L 157.47 94.79 C 156.58 94.46 155.60 94.90 155.26 95.79 C 154.93 96.67 155.37 97.66 156.26 97.99 Z M 157.46 98.40 L 158.47 98.54 C 159.41 98.67 160.27 98.02 160.40 97.08 C 160.53 96.14 159.88 95.28 158.94 95.15 L 157.93 95.01 C 157.00 94.88 156.13 95.53 156.00 96.47 C 155.87 97.41 156.53 98.27 157.46 98.40 Z M 158.64 98.55 L 159.73 98.60 C 160.68 98.64 161.47 97.90 161.51 96.96 C 161.55 96.01 160.81 95.22 159.87 95.18 L 158.77 95.13 C 157.83 95.10 157.03 95.83 157.00 96.78 C 156.96 97.72 157.69 98.52 158.64 98.55 Z M 159.77 98.60 L 160.78 98.61 C 161.73 98.63 162.50 97.87 162.52 96.93 C 162.53 95.98 161.78 95.21 160.83 95.19 L 159.83 95.18 C 158.88 95.16 158.10 95.92 158.09 96.86 C 158.08 97.81 158.83 98.58 159.77 98.60 Z M 160.79 98.61 L 161.79 98.62 C 162.73 98.63 163.51 97.87 163.52 96.93 C 163.53 95.98 162.77 95.21 161.82 95.20 L 160.82 95.19 C 159.88 95.18 159.10 95.94 159.10 96.89 C 159.09 97.83 159.84 98.60 160.79 98.61 Z M 161.79 98.62 L 162.79 98.63 C 163.73 98.64 164.51 97.89 164.52 96.94 C 164.53 96.00 163.77 95.22 162.82 95.21 L 161.82 95.20 C 160.88 95.19 160.11 95.95 160.10 96.89 C 160.08 97.84 160.84 98.61 161.79 98.62 Z M 162.78 98.63 L 163.78 98.65 C 164.73 98.67 165.51 97.92 165.52 96.97 C 165.54 96.03 164.79 95.25 163.84 95.23 L 162.84 95.21 C 161.89 95.20 161.11 95.95 161.10 96.89 C 161.08 97.84 161.83 98.62 162.78 98.63 Z M 163.74 98.65 L 164.75 98.69 C 165.69 98.73 166.49 98.00 166.53 97.06 C 166.57 96.11 165.84 95.32 164.89 95.28 L 163.88 95.23 C 162.94 95.19 162.14 95.92 162.10 96.87 C 162.06 97.81 162.79 98.61 163.74 98.65 Z M 164.64 98.68 L 165.64 98.79 C 166.58 98.88 167.42 98.20 167.51 97.26 C 167.61 96.32 166.93 95.48 165.99 95.39 L 165.00 95.28 C 164.06 95.19 163.22 95.87 163.12 96.81 C 163.02 97.75 163.71 98.59 164.64 98.68 Z M 165.47 98.76 L 166.43 98.96 C 167.36 99.15 168.26 98.56 168.45 97.63 C 168.64 96.71 168.05 95.80 167.12 95.61 L 166.16 95.41 C 165.24 95.22 164.33 95.82 164.14 96.74 C 163.95 97.67 164.54 98.57 165.47 98.76 Z M 166.20 98.89 L 167.15 99.23 C 168.04 99.55 169.01 99.10 169.33 98.21 C 169.65 97.32 169.20 96.34 168.31 96.02 L 167.36 95.68 C 166.47 95.36 165.49 95.82 165.17 96.71 C 164.85 97.59 165.31 98.57 166.20 98.89 Z M 166.87 99.10 L 167.73 99.61 C 168.54 100.08 169.58 99.81 170.06 99.00 C 170.54 98.19 170.27 97.14 169.45 96.66 L 168.59 96.16 C 167.78 95.68 166.73 95.95 166.26 96.77 C 165.78 97.58 166.05 98.62 166.87 99.10 Z M 167.41 99.37 L 168.12 100.05 C 168.80 100.70 169.88 100.67 170.53 99.99 C 171.18 99.31 171.16 98.24 170.48 97.58 L 169.77 96.90 C 169.09 96.25 168.01 96.28 167.36 96.96 C 166.71 97.64 166.73 98.71 167.41 99.37 Z M 167.83 99.68 L 168.31 100.49 C 168.79 101.30 169.83 101.57 170.64 101.10 C 171.45 100.62 171.72 99.58 171.25 98.77 L 170.77 97.95 C 170.29 97.14 169.25 96.87 168.44 97.35 C 167.63 97.83 167.36 98.87 167.83 99.68 Z M 168.14 100.08 L 168.39 100.97 C 168.64 101.87 169.57 102.40 170.47 102.16 C 171.38 101.91 171.91 100.97 171.66 100.07 L 171.41 99.18 C 171.17 98.28 170.23 97.75 169.33 98.00 C 168.43 98.24 167.90 99.18 168.14 100.08 Z M 168.34 100.59 L 168.38 101.58 C 168.41 102.51 169.20 103.23 170.13 103.20 C 171.06 103.16 171.78 102.38 171.75 101.45 L 171.71 100.46 C 171.67 99.53 170.89 98.80 169.96 98.84 C 169.03 98.87 168.30 99.66 168.34 100.59 Z M 168.41 101.22 L 168.22 102.27 C 168.06 103.18 168.67 104.05 169.59 104.22 C 170.50 104.38 171.37 103.77 171.53 102.85 L 171.72 101.80 C 171.88 100.89 171.27 100.02 170.35 99.86 C 169.44 99.70 168.57 100.31 168.41 101.22 Z M 168.32 101.97 L 167.95 102.92 C 167.63 103.78 168.06 104.75 168.92 105.07 C 169.78 105.40 170.75 104.97 171.07 104.11 L 171.44 103.16 C 171.76 102.29 171.33 101.33 170.47 101.00 C 169.61 100.67 168.65 101.11 168.32 101.97 Z M 168.06 102.72 L 167.59 103.57 C 167.15 104.37 167.44 105.38 168.25 105.82 C 169.05 106.26 170.05 105.97 170.50 105.17 L 170.97 104.31 C 171.41 103.51 171.11 102.50 170.31 102.06 C 169.51 101.62 168.50 101.91 168.06 102.72 Z M 167.69 103.44 L 167.12 104.28 C 166.60 105.03 166.80 106.05 167.55 106.57 C 168.30 107.08 169.32 106.88 169.83 106.13 L 170.40 105.29 C 170.91 104.54 170.72 103.52 169.97 103.01 C 169.22 102.50 168.20 102.70 167.69 103.44 Z M 167.19 104.20 L 166.56 105.01 C 166.00 105.72 166.12 106.74 166.83 107.30 C 167.54 107.85 168.56 107.73 169.12 107.02 L 169.75 106.21 C 170.31 105.51 170.19 104.48 169.48 103.93 C 168.77 103.37 167.75 103.49 167.19 104.20 Z M 166.62 104.96 L 165.95 105.72 C 165.37 106.40 165.44 107.42 166.11 108.00 C 166.78 108.59 167.80 108.52 168.39 107.84 L 169.05 107.08 C 169.64 106.40 169.57 105.38 168.90 104.80 C 168.22 104.21 167.20 104.28 166.62 104.96 Z M 166.00 105.69 L 165.36 106.38 C 164.75 107.02 164.79 108.04 165.44 108.64 C 166.08 109.25 167.10 109.21 167.70 108.56 L 168.34 107.88 C 168.95 107.23 168.91 106.22 168.26 105.61 C 167.62 105.01 166.60 105.04 166.00 105.69 Z M 165.40 106.35 L 164.76 106.99 C 164.14 107.62 164.15 108.63 164.77 109.25 C 165.40 109.86 166.41 109.86 167.03 109.23 L 167.66 108.59 C 168.28 107.97 168.28 106.96 167.65 106.34 C 167.02 105.72 166.02 105.72 165.40 106.35 Z M 164.80 106.97 L 164.12 107.61 C 163.49 108.22 163.47 109.22 164.08 109.85 C 164.68 110.48 165.69 110.51 166.32 109.90 L 166.99 109.26 C 167.62 108.65 167.64 107.65 167.04 107.02 C 166.43 106.38 165.43 106.36 164.80 106.97 Z M 164.15 107.59 L 163.42 108.27 C 162.78 108.86 162.73 109.86 163.32 110.50 C 163.91 111.14 164.91 111.18 165.55 110.59 L 166.29 109.92 C 166.93 109.33 166.97 108.33 166.38 107.69 C 165.79 107.05 164.80 107.00 164.15 107.59 Z M 163.44 108.26 L 162.61 109.00 C 161.96 109.58 161.90 110.57 162.48 111.22 C 163.06 111.87 164.05 111.92 164.70 111.35 L 165.53 110.60 C 166.18 110.03 166.23 109.03 165.66 108.39 C 165.08 107.74 164.09 107.68 163.44 108.26 Z M 162.62 109.00 L 161.86 109.67 C 161.21 110.24 161.15 111.23 161.72 111.88 C 162.29 112.52 163.28 112.59 163.92 112.02 L 164.68 111.35 C 165.33 110.78 165.40 109.79 164.83 109.14 C 164.26 108.49 163.27 108.43 162.62 109.00 Z M 161.86 109.67 L 161.21 110.24 C 160.56 110.81 160.49 111.80 161.06 112.45 C 161.63 113.09 162.61 113.16 163.26 112.59 L 163.92 112.02 C 164.57 111.45 164.64 110.46 164.07 109.81 C 163.50 109.17 162.51 109.10 161.86 109.67 Z M 161.21 110.24 L 160.51 110.85 C 159.86 111.42 159.79 112.40 160.35 113.05 C 160.92 113.71 161.91 113.77 162.56 113.21 L 163.26 112.60 C 163.91 112.03 163.98 111.04 163.41 110.39 C 162.85 109.74 161.86 109.67 161.21 110.24 Z M 160.51 110.85 L 159.77 111.49 C 159.11 112.06 159.04 113.05 159.61 113.70 C 160.18 114.35 161.16 114.42 161.81 113.85 L 162.55 113.21 C 163.21 112.64 163.28 111.66 162.71 111.01 C 162.15 110.35 161.16 110.28 160.51 110.85 Z M 159.77 111.49 L 158.99 112.16 C 158.34 112.73 158.27 113.71 158.84 114.37 C 159.40 115.02 160.39 115.09 161.04 114.52 L 161.81 113.85 C 162.46 113.29 162.53 112.30 161.97 111.65 C 161.41 111.00 160.42 110.93 159.77 111.49 Z M 159.00 112.16 L 158.20 112.85 C 157.54 113.42 157.47 114.40 158.04 115.05 C 158.60 115.71 159.59 115.78 160.24 115.21 L 161.04 114.52 C 161.69 113.96 161.76 112.97 161.20 112.32 C 160.63 111.67 159.65 111.60 159.00 112.16 Z M 158.20 112.85 L 157.38 113.56 C 156.73 114.12 156.66 115.11 157.22 115.76 C 157.78 116.41 158.77 116.48 159.42 115.92 L 160.24 115.21 C 160.89 114.65 160.96 113.66 160.40 113.01 C 159.84 112.36 158.85 112.29 158.20 112.85 Z M 157.38 113.56 L 156.55 114.27 C 155.90 114.83 155.83 115.82 156.39 116.47 C 156.96 117.12 157.94 117.20 158.59 116.63 L 159.42 115.92 C 160.07 115.36 160.15 114.37 159.58 113.72 C 159.02 113.07 158.03 112.99 157.38 113.56 Z M 156.56 114.27 L 156.06 114.70 C 155.40 115.26 155.33 116.25 155.90 116.90 C 156.46 117.55 157.44 117.63 158.10 117.06 L 158.59 116.63 C 159.25 116.07 159.32 115.08 158.76 114.43 C 158.19 113.78 157.21 113.71 156.56 114.27 Z"
      fill="black"
      fill-rule="nonzero" /><path d="M 155.55 124.69 L 155.66 125.63 C 155.76 126.55 156.58 127.21 157.49 127.11 C 158.41 127.01 159.07 126.19 158.97 125.27 L 158.87 124.32 C 158.77 123.41 157.94 122.75 157.03 122.85 C 156.11 122.95 155.45 123.77 155.55 124.69 Z M 155.65 125.61 L 155.75 126.58 C 155.84 127.50 156.65 128.17 157.57 128.08 C 158.48 127.99 159.15 127.18 159.06 126.26 L 158.97 125.29 C 158.88 124.38 158.07 123.71 157.15 123.79 C 156.24 123.88 155.57 124.70 155.65 125.61 Z M 155.74 126.54 L 155.82 127.56 C 155.89 128.47 156.68 129.16 157.60 129.10 C 158.52 129.03 159.21 128.23 159.14 127.31 L 159.07 126.30 C 159.00 125.38 158.20 124.69 157.28 124.76 C 156.37 124.83 155.68 125.63 155.74 126.54 Z M 155.82 127.51 L 155.86 128.56 C 155.90 129.48 156.68 130.19 157.59 130.15 C 158.51 130.11 159.23 129.34 159.19 128.42 L 159.15 127.36 C 159.11 126.45 158.33 125.73 157.41 125.77 C 156.49 125.81 155.78 126.59 155.82 127.51 Z M 155.86 128.50 L 155.86 129.50 C 155.87 130.43 156.62 131.17 157.55 131.16 C 158.47 131.15 159.21 130.40 159.20 129.48 L 159.19 128.47 C 159.19 127.55 158.43 126.81 157.51 126.82 C 156.59 126.82 155.85 127.58 155.86 128.50 Z M 155.86 129.44 L 155.83 130.46 C 155.80 131.39 156.52 132.16 157.45 132.19 C 158.37 132.22 159.14 131.49 159.17 130.57 L 159.20 129.54 C 159.23 128.62 158.51 127.85 157.59 127.82 C 156.66 127.79 155.89 128.51 155.86 129.44 Z M 155.83 130.38 L 155.75 131.39 C 155.67 132.31 156.36 133.12 157.28 133.20 C 158.20 133.27 159.01 132.59 159.09 131.66 L 159.17 130.65 C 159.25 129.73 158.56 128.92 157.64 128.85 C 156.72 128.77 155.91 129.46 155.83 130.38 Z M 155.76 131.28 L 155.61 132.23 C 155.47 133.15 156.11 134.00 157.02 134.14 C 157.94 134.28 158.79 133.65 158.93 132.73 L 159.08 131.78 C 159.21 130.86 158.58 130.00 157.67 129.86 C 156.75 129.73 155.89 130.36 155.76 131.28 Z M 155.64 132.08 L 155.40 133.05 C 155.17 133.95 155.72 134.86 156.62 135.09 C 157.52 135.31 158.44 134.76 158.66 133.86 L 158.90 132.89 C 159.13 131.99 158.58 131.07 157.68 130.85 C 156.78 130.63 155.87 131.17 155.64 132.08 Z M 155.45 132.88 L 155.12 133.79 C 154.80 134.66 155.25 135.62 156.12 135.94 C 156.99 136.26 157.96 135.81 158.28 134.94 L 158.61 134.03 C 158.93 133.16 158.48 132.19 157.61 131.87 C 156.74 131.56 155.77 132.00 155.45 132.88 Z M 155.18 133.65 L 154.76 134.53 C 154.36 135.37 154.72 136.38 155.56 136.77 C 156.40 137.17 157.40 136.81 157.80 135.97 L 158.22 135.08 C 158.61 134.24 158.26 133.24 157.42 132.85 C 156.58 132.45 155.57 132.81 155.18 133.65 Z M 154.80 134.44 L 154.31 135.35 C 153.86 136.16 154.15 137.18 154.97 137.63 C 155.78 138.08 156.80 137.78 157.25 136.97 L 157.75 136.06 C 158.20 135.25 157.90 134.23 157.09 133.78 C 156.27 133.33 155.25 133.63 154.80 134.44 Z M 154.33 135.30 L 153.83 136.15 C 153.35 136.95 153.62 137.98 154.41 138.46 C 155.21 138.93 156.24 138.67 156.72 137.87 L 157.22 137.02 C 157.70 136.22 157.43 135.19 156.64 134.71 C 155.84 134.24 154.81 134.50 154.33 135.30 Z M 153.85 136.13 L 153.30 137.00 C 152.82 137.79 153.06 138.82 153.85 139.31 C 154.64 139.80 155.67 139.56 156.16 138.77 L 156.70 137.89 C 157.19 137.11 156.94 136.07 156.16 135.58 C 155.37 135.10 154.33 135.34 153.85 136.13 Z M 153.32 136.98 L 152.77 137.85 C 152.27 138.63 152.50 139.66 153.28 140.16 C 154.06 140.66 155.10 140.43 155.59 139.65 L 156.14 138.79 C 156.64 138.01 156.41 136.97 155.63 136.47 C 154.85 135.97 153.82 136.20 153.32 136.98 Z M 152.78 137.83 L 152.24 138.65 C 151.74 139.43 151.96 140.46 152.73 140.97 C 153.51 141.48 154.54 141.26 155.05 140.48 L 155.58 139.66 C 156.09 138.89 155.87 137.85 155.10 137.34 C 154.32 136.84 153.28 137.06 152.78 137.83 Z M 152.25 138.64 L 151.69 139.49 C 151.18 140.26 151.39 141.30 152.16 141.81 C 152.93 142.32 153.97 142.11 154.48 141.34 L 155.04 140.49 C 155.55 139.72 155.34 138.68 154.57 138.17 C 153.80 137.66 152.76 137.87 152.25 138.64 Z M 151.70 139.47 L 151.15 140.28 C 150.63 141.05 150.83 142.09 151.60 142.61 C 152.36 143.12 153.41 142.92 153.92 142.16 L 154.47 141.35 C 154.99 140.59 154.79 139.55 154.03 139.03 C 153.26 138.51 152.22 138.71 151.70 139.47 Z M 151.17 140.26 L 150.61 141.05 C 150.08 141.81 150.27 142.86 151.03 143.38 C 151.78 143.91 152.83 143.73 153.36 142.97 L 153.91 142.18 C 154.44 141.42 154.26 140.38 153.50 139.85 C 152.74 139.32 151.70 139.50 151.17 140.26 Z M 150.63 141.03 L 150.03 141.86 C 149.49 142.61 149.66 143.66 150.41 144.20 C 151.16 144.74 152.21 144.57 152.75 143.82 L 153.34 142.99 C 153.88 142.24 153.71 141.19 152.96 140.65 C 152.21 140.11 151.17 140.28 150.63 141.03 Z M 150.04 141.84 L 149.48 142.61 C 148.93 143.35 149.09 144.40 149.83 144.95 C 150.58 145.50 151.63 145.34 152.18 144.60 L 152.74 143.83 C 153.29 143.09 153.13 142.04 152.38 141.49 C 151.64 140.94 150.59 141.10 150.04 141.84 Z M 149.48 142.60 L 148.88 143.41 C 148.33 144.16 148.48 145.21 149.23 145.76 C 149.97 146.31 151.02 146.16 151.57 145.41 L 152.17 144.60 C 152.73 143.86 152.57 142.81 151.83 142.25 C 151.08 141.70 150.03 141.86 149.48 142.60 Z M 148.87 143.41 L 148.26 144.24 C 147.71 144.99 147.87 146.04 148.61 146.59 C 149.36 147.14 150.41 146.99 150.97 146.24 L 151.58 145.41 C 152.13 144.67 151.97 143.61 151.23 143.06 C 150.48 142.51 149.43 142.67 148.87 143.41 Z M 148.25 144.25 L 147.65 145.07 C 147.10 145.82 147.27 146.88 148.02 147.43 C 148.77 147.97 149.82 147.81 150.37 147.06 L 150.97 146.23 C 151.52 145.48 151.36 144.43 150.61 143.88 C 149.85 143.33 148.80 143.50 148.25 144.25 Z M 147.63 145.08 L 147.02 145.95 C 146.48 146.71 146.66 147.76 147.42 148.31 C 148.18 148.85 149.23 148.67 149.78 147.91 L 150.39 147.04 C 150.93 146.28 150.75 145.23 149.99 144.69 C 149.23 144.15 148.18 144.32 147.63 145.08 Z M 147.00 145.96 L 146.41 146.81 C 145.88 147.58 146.07 148.64 146.84 149.17 C 147.62 149.71 148.67 149.52 149.21 148.74 L 149.80 147.90 C 150.33 147.12 150.14 146.06 149.36 145.53 C 148.59 145.00 147.53 145.19 147.00 145.96 Z M 146.39 146.82 L 145.84 147.63 C 145.31 148.41 145.52 149.48 146.30 150.01 C 147.08 150.54 148.15 150.33 148.68 149.55 L 149.23 148.74 C 149.76 147.95 149.55 146.89 148.77 146.36 C 147.99 145.83 146.92 146.04 146.39 146.82 Z M 145.83 147.63 L 145.31 148.42 C 144.78 149.21 144.99 150.27 145.78 150.80 C 146.57 151.33 147.64 151.12 148.17 150.33 L 148.69 149.55 C 149.22 148.76 149.01 147.69 148.22 147.16 C 147.43 146.63 146.36 146.84 145.83 147.63 Z M 145.30 148.41 L 144.76 149.23 C 144.23 150.02 144.44 151.10 145.24 151.62 C 146.03 152.15 147.11 151.94 147.64 151.14 L 148.18 150.33 C 148.71 149.53 148.49 148.46 147.70 147.93 C 146.90 147.40 145.83 147.62 145.30 148.41 Z M 144.74 149.23 L 144.21 150.05 C 143.68 150.86 143.91 151.93 144.71 152.46 C 145.52 152.98 146.59 152.76 147.12 151.95 L 147.65 151.13 C 148.18 150.33 147.95 149.25 147.15 148.73 C 146.34 148.21 145.27 148.43 144.74 149.23 Z M 144.18 150.08 L 143.65 150.92 C 143.14 151.74 143.39 152.82 144.21 153.33 C 145.02 153.84 146.10 153.59 146.61 152.78 L 147.14 151.93 C 147.65 151.11 147.40 150.04 146.59 149.53 C 145.77 149.02 144.70 149.26 144.18 150.08 Z M 143.63 150.96 L 143.10 151.84 C 142.61 152.67 142.89 153.75 143.72 154.24 C 144.55 154.73 145.63 154.45 146.12 153.62 L 146.64 152.74 C 147.13 151.91 146.85 150.84 146.02 150.34 C 145.19 149.85 144.12 150.13 143.63 150.96 Z M 143.08 151.88 L 142.59 152.75 C 142.13 153.60 142.43 154.67 143.28 155.14 C 144.13 155.61 145.20 155.30 145.67 154.45 L 146.15 153.58 C 146.62 152.73 146.31 151.66 145.46 151.20 C 144.61 150.73 143.54 151.04 143.08 151.88 Z M 142.56 152.80 L 142.10 153.71 C 141.66 154.57 142.00 155.63 142.87 156.07 C 143.73 156.52 144.79 156.17 145.23 155.31 L 145.70 154.40 C 146.14 153.54 145.80 152.48 144.93 152.04 C 144.07 151.59 143.01 151.94 142.56 152.80 Z M 142.07 153.77 L 141.64 154.68 C 141.23 155.57 141.62 156.61 142.50 157.02 C 143.38 157.43 144.43 157.05 144.84 156.17 L 145.27 155.25 C 145.68 154.37 145.29 153.32 144.41 152.91 C 143.53 152.50 142.48 152.88 142.07 153.77 Z M 141.60 154.76 L 141.21 155.74 C 140.84 156.64 141.28 157.67 142.19 158.04 C 143.09 158.40 144.12 157.97 144.49 157.06 L 144.88 156.09 C 145.25 155.18 144.81 154.15 143.90 153.79 C 143.00 153.42 141.97 153.86 141.60 154.76 Z M 141.15 155.90 L 140.82 157.03 C 140.54 157.96 141.08 158.95 142.01 159.23 C 142.95 159.50 143.94 158.97 144.22 158.03 L 144.55 156.90 C 144.83 155.96 144.29 154.98 143.35 154.70 C 142.41 154.42 141.43 154.96 141.15 155.90 Z M 140.74 157.44 L 140.70 158.36 C 140.65 159.34 141.40 160.17 142.38 160.22 C 143.36 160.27 144.19 159.52 144.24 158.54 L 144.29 157.62 C 144.34 156.64 143.58 155.80 142.61 155.75 C 141.63 155.70 140.79 156.46 140.74 157.44 Z M 140.94 159.36 L 141.29 159.96 C 141.80 160.80 142.89 161.08 143.73 160.58 C 144.58 160.08 144.85 158.99 144.35 158.14 L 144.00 157.54 C 143.50 156.70 142.41 156.42 141.56 156.92 C 140.72 157.42 140.44 158.51 140.94 159.36 Z M 142.31 160.75 L 143.07 160.98 C 144.01 161.27 145.01 160.74 145.29 159.79 C 145.58 158.85 145.04 157.86 144.10 157.58 L 143.34 157.35 C 142.40 157.06 141.40 157.59 141.12 158.54 C 140.84 159.48 141.37 160.47 142.31 160.75 Z M 143.68 161.06 L 144.74 161.00 C 145.72 160.95 146.48 160.11 146.43 159.13 C 146.37 158.15 145.53 157.39 144.55 157.44 L 143.49 157.50 C 142.51 157.55 141.76 158.39 141.81 159.37 C 141.86 160.36 142.70 161.11 143.68 161.06 Z M 145.02 160.97 L 146.16 160.72 C 147.12 160.51 147.74 159.56 147.53 158.60 C 147.32 157.64 146.37 157.03 145.41 157.23 L 144.27 157.48 C 143.31 157.69 142.69 158.64 142.90 159.60 C 143.11 160.56 144.06 161.17 145.02 160.97 Z M 146.31 160.68 L 147.15 160.42 C 148.09 160.14 148.62 159.14 148.33 158.20 C 148.05 157.25 147.05 156.73 146.11 157.01 L 145.26 157.27 C 144.32 157.56 143.79 158.56 144.08 159.50 C 144.37 160.44 145.37 160.97 146.31 160.68 Z M 147.24 160.40 L 148.12 160.07 C 149.05 159.74 149.53 158.71 149.19 157.79 C 148.85 156.86 147.83 156.38 146.90 156.72 L 146.02 157.04 C 145.09 157.38 144.62 158.40 144.95 159.33 C 145.29 160.25 146.31 160.73 147.24 160.40 Z M 148.19 160.05 L 149.13 159.67 C 150.04 159.29 150.48 158.25 150.11 157.34 C 149.73 156.43 148.69 155.99 147.78 156.36 L 146.84 156.75 C 145.93 157.12 145.49 158.16 145.86 159.07 C 146.23 159.98 147.27 160.42 148.19 160.05 Z M 149.17 159.65 L 150.18 159.21 C 151.08 158.81 151.49 157.76 151.10 156.86 C 150.70 155.96 149.65 155.54 148.75 155.94 L 147.74 156.38 C 146.84 156.77 146.43 157.83 146.82 158.73 C 147.21 159.63 148.27 160.04 149.17 159.65 Z M 150.20 159.20 L 151.18 158.75 C 152.07 158.35 152.47 157.29 152.06 156.39 C 151.66 155.50 150.60 155.10 149.70 155.51 L 148.73 155.95 C 147.83 156.36 147.43 157.41 147.84 158.31 C 148.25 159.21 149.31 159.60 150.20 159.20 Z M 151.19 158.75 L 152.11 158.32 C 153.00 157.91 153.39 156.85 152.97 155.96 C 152.56 155.06 151.50 154.67 150.61 155.09 L 149.69 155.51 C 148.80 155.92 148.41 156.99 148.82 157.88 C 149.23 158.77 150.29 159.16 151.19 158.75 Z M 152.11 158.32 L 153.05 157.88 C 153.94 157.46 154.33 156.40 153.91 155.51 C 153.49 154.62 152.43 154.23 151.54 154.65 L 150.60 155.09 C 149.71 155.51 149.32 156.57 149.74 157.46 C 150.16 158.35 151.22 158.74 152.11 158.32 Z M 153.06 157.88 L 153.99 157.43 C 154.88 157.01 155.26 155.95 154.84 155.06 C 154.42 154.17 153.36 153.79 152.47 154.21 L 151.53 154.65 C 150.64 155.07 150.26 156.14 150.68 157.03 C 151.10 157.92 152.17 158.30 153.06 157.88 Z M 154.00 157.43 L 154.91 157.00 C 155.80 156.57 156.18 155.51 155.75 154.62 C 155.33 153.73 154.26 153.35 153.37 153.78 L 152.46 154.21 C 151.57 154.64 151.20 155.70 151.62 156.59 C 152.04 157.48 153.11 157.86 154.00 157.43 Z M 154.91 157.00 L 155.77 156.58 C 156.66 156.16 157.04 155.09 156.61 154.21 C 156.19 153.32 155.12 152.94 154.23 153.37 L 153.37 153.78 C 152.48 154.20 152.11 155.27 152.53 156.16 C 152.96 157.05 154.02 157.42 154.91 157.00 Z M 155.77 156.58 L 156.73 156.12 C 157.62 155.70 158.00 154.63 157.57 153.75 C 157.15 152.86 156.08 152.49 155.20 152.91 L 154.24 153.37 C 153.35 153.80 152.97 154.86 153.40 155.74 C 153.82 156.63 154.89 157.01 155.77 156.58 Z M 156.73 156.11 L 157.67 155.66 C 158.56 155.24 158.93 154.19 158.51 153.30 C 158.09 152.42 157.03 152.05 156.15 152.47 L 155.20 152.92 C 154.32 153.34 153.95 154.39 154.37 155.28 C 154.79 156.16 155.84 156.53 156.73 156.11 Z M 157.66 155.66 L 158.53 155.25 C 159.41 154.83 159.79 153.79 159.38 152.91 C 158.96 152.03 157.92 151.65 157.04 152.06 L 156.16 152.47 C 155.29 152.89 154.91 153.93 155.32 154.81 C 155.73 155.69 156.78 156.07 157.66 155.66 Z M 158.51 155.24 L 159.36 154.86 C 160.24 154.45 160.62 153.42 160.22 152.54 C 159.82 151.66 158.78 151.28 157.90 151.68 L 157.06 152.07 C 156.18 152.47 155.80 153.50 156.20 154.38 C 156.60 155.26 157.63 155.64 158.51 155.24 Z M 159.33 154.85 L 160.20 154.47 C 161.08 154.08 161.47 153.06 161.09 152.18 C 160.70 151.31 159.67 150.91 158.80 151.30 L 157.93 151.68 C 157.05 152.07 156.66 153.09 157.04 153.97 C 157.43 154.85 158.46 155.24 159.33 154.85 Z M 160.17 154.47 L 161.09 154.08 C 161.96 153.71 162.37 152.70 162.00 151.82 C 161.63 150.95 160.62 150.54 159.74 150.91 L 158.82 151.30 C 157.95 151.67 157.54 152.68 157.91 153.56 C 158.28 154.43 159.30 154.84 160.17 154.47 Z M 161.06 154.08 L 162.00 153.70 C 162.87 153.34 163.29 152.34 162.94 151.47 C 162.58 150.59 161.58 150.17 160.71 150.53 L 159.77 150.91 C 158.89 151.27 158.47 152.27 158.83 153.14 C 159.19 154.02 160.18 154.44 161.06 154.08 Z M 161.97 153.69 L 162.91 153.33 C 163.79 152.99 164.22 152.00 163.88 151.13 C 163.54 150.26 162.55 149.82 161.68 150.16 L 160.74 150.53 C 159.86 150.87 159.43 151.85 159.77 152.73 C 160.11 153.60 161.09 154.03 161.97 153.69 Z M 162.88 153.33 L 163.81 152.99 C 164.68 152.66 165.13 151.70 164.81 150.82 C 164.49 149.95 163.52 149.50 162.64 149.82 L 161.72 150.16 C 160.84 150.48 160.39 151.45 160.71 152.33 C 161.04 153.20 162.00 153.65 162.88 153.33 Z M 163.77 152.98 L 164.75 152.64 C 165.63 152.34 166.09 151.40 165.79 150.53 C 165.49 149.65 164.55 149.19 163.67 149.49 L 162.69 149.83 C 161.81 150.12 161.35 151.07 161.65 151.94 C 161.95 152.82 162.89 153.28 163.77 152.98 Z M 164.72 152.63 L 165.67 152.33 C 166.54 152.05 167.01 151.12 166.74 150.26 C 166.46 149.39 165.53 148.92 164.67 149.19 L 163.71 149.50 C 162.85 149.78 162.37 150.70 162.65 151.57 C 162.92 152.43 163.85 152.91 164.72 152.63 Z M 165.64 152.31 L 166.58 152.03 C 167.44 151.77 167.92 150.86 167.66 150.00 C 167.40 149.15 166.49 148.66 165.63 148.92 L 164.70 149.21 C 163.84 149.47 163.36 150.38 163.62 151.23 C 163.88 152.09 164.79 152.57 165.64 152.31 Z M 166.56 152.01 L 167.35 151.78 C 168.19 151.52 168.68 150.63 168.42 149.79 C 168.17 148.94 167.28 148.46 166.43 148.71 L 165.65 148.94 C 164.80 149.19 164.32 150.08 164.57 150.93 C 164.82 151.78 165.72 152.26 166.56 152.01 Z"
      fill="black"
      fill-rule="nonzero" /><path d="M 134.61 190.09 L 135.26 190.90 C 135.87 191.66 136.99 191.78 137.75 191.17 C 138.51 190.56 138.64 189.44 138.02 188.68 L 137.37 187.87 C 136.76 187.10 135.64 186.98 134.88 187.60 C 134.12 188.21 133.99 189.33 134.61 190.09 Z M 135.38 191.03 L 136.08 191.74 C 136.76 192.44 137.89 192.45 138.58 191.76 C 139.28 191.07 139.29 189.95 138.60 189.25 L 137.90 188.54 C 137.22 187.85 136.09 187.84 135.40 188.52 C 134.70 189.21 134.69 190.33 135.38 191.03 Z M 136.38 191.99 L 137.16 192.50 C 137.99 193.03 139.09 192.79 139.62 191.97 C 140.15 191.15 139.91 190.05 139.09 189.52 L 138.30 189.01 C 137.48 188.48 136.38 188.71 135.85 189.54 C 135.32 190.36 135.55 191.46 136.38 191.99 Z M 137.62 192.71 L 138.46 192.96 C 139.40 193.24 140.39 192.70 140.66 191.76 C 140.94 190.81 140.40 189.82 139.46 189.55 L 138.63 189.30 C 137.69 189.02 136.70 189.56 136.42 190.50 C 136.14 191.45 136.68 192.43 137.62 192.71 Z M 138.79 193.03 L 139.76 193.12 C 140.74 193.21 141.61 192.49 141.71 191.51 C 141.80 190.53 141.08 189.66 140.10 189.57 L 139.13 189.48 C 138.15 189.38 137.28 190.10 137.18 191.09 C 137.09 192.07 137.81 192.94 138.79 193.03 Z M 139.92 193.13 L 141.06 193.14 C 142.05 193.14 142.85 192.34 142.85 191.35 C 142.86 190.36 142.06 189.56 141.07 189.56 L 139.94 189.55 C 138.95 189.55 138.14 190.35 138.14 191.34 C 138.14 192.33 138.94 193.13 139.92 193.13 Z M 141.10 193.14 L 142.10 193.12 C 143.09 193.10 143.87 192.29 143.86 191.29 C 143.84 190.30 143.02 189.52 142.03 189.53 L 141.03 189.55 C 140.04 189.57 139.25 190.39 139.27 191.38 C 139.29 192.37 140.11 193.16 141.10 193.14 Z M 142.11 193.12 L 143.13 193.10 C 144.12 193.07 144.91 192.24 144.88 191.25 C 144.85 190.26 144.02 189.47 143.03 189.50 L 142.01 189.53 C 141.02 189.56 140.24 190.39 140.27 191.38 C 140.29 192.37 141.12 193.15 142.11 193.12 Z M 143.16 193.10 L 144.19 193.05 C 145.19 193.01 145.96 192.17 145.91 191.18 C 145.87 190.18 145.03 189.41 144.04 189.46 L 143.00 189.50 C 142.01 189.54 141.24 190.38 141.28 191.38 C 141.33 192.37 142.17 193.14 143.16 193.10 Z M 144.23 193.05 L 145.23 192.99 C 146.23 192.92 146.98 192.06 146.91 191.07 C 146.85 190.08 145.99 189.33 145.00 189.39 L 144.00 189.46 C 143.00 189.52 142.25 190.38 142.32 191.37 C 142.38 192.36 143.24 193.12 144.23 193.05 Z M 145.30 192.98 L 146.33 192.88 C 147.32 192.78 148.04 191.90 147.94 190.91 C 147.84 189.91 146.96 189.19 145.97 189.29 L 144.94 189.39 C 143.95 189.49 143.22 190.38 143.32 191.37 C 143.42 192.36 144.31 193.08 145.30 192.98 Z M 146.42 192.87 L 147.44 192.72 C 148.43 192.57 149.11 191.65 148.96 190.66 C 148.81 189.68 147.89 189.00 146.91 189.15 L 145.88 189.30 C 144.90 189.45 144.22 190.37 144.36 191.35 C 144.51 192.34 145.43 193.02 146.42 192.87 Z M 147.53 192.70 L 148.47 192.51 C 149.45 192.32 150.08 191.37 149.89 190.39 C 149.69 189.41 148.74 188.78 147.77 188.97 L 146.82 189.16 C 145.85 189.36 145.21 190.31 145.41 191.29 C 145.60 192.26 146.55 192.90 147.53 192.70 Z M 148.54 192.50 L 149.45 192.28 C 150.42 192.05 151.02 191.08 150.79 190.11 C 150.56 189.14 149.58 188.54 148.61 188.77 L 147.70 188.99 C 146.73 189.22 146.13 190.19 146.36 191.16 C 146.59 192.13 147.57 192.73 148.54 192.50 Z M 149.48 192.27 L 150.41 192.03 C 151.37 191.79 151.95 190.80 151.70 189.84 C 151.46 188.87 150.47 188.29 149.51 188.54 L 148.58 188.78 C 147.61 189.03 147.03 190.01 147.28 190.98 C 147.53 191.94 148.52 192.52 149.48 192.27 Z M 150.43 192.03 L 151.38 191.77 C 152.34 191.51 152.91 190.52 152.65 189.56 C 152.39 188.60 151.40 188.03 150.44 188.29 L 149.49 188.55 C 148.53 188.81 147.96 189.80 148.22 190.76 C 148.48 191.72 149.47 192.29 150.43 192.03 Z M 151.39 191.77 L 152.38 191.49 C 153.34 191.23 153.90 190.24 153.64 189.28 C 153.37 188.32 152.38 187.75 151.42 188.02 L 150.43 188.29 C 149.47 188.56 148.91 189.55 149.17 190.51 C 149.44 191.47 150.43 192.03 151.39 191.77 Z M 152.38 191.49 L 153.35 191.22 C 154.31 190.96 154.87 189.96 154.60 189.01 C 154.34 188.05 153.34 187.49 152.38 187.75 L 151.42 188.02 C 150.46 188.29 149.90 189.28 150.17 190.24 C 150.43 191.20 151.42 191.76 152.38 191.49 Z M 153.35 191.22 L 154.29 190.96 C 155.25 190.70 155.81 189.70 155.54 188.75 C 155.27 187.79 154.28 187.23 153.32 187.49 L 152.38 187.75 C 151.43 188.02 150.87 189.01 151.13 189.97 C 151.40 190.93 152.39 191.49 153.35 191.22 Z M 154.29 190.96 L 155.26 190.69 C 156.21 190.43 156.77 189.43 156.51 188.48 C 156.24 187.52 155.25 186.96 154.29 187.22 L 153.32 187.49 C 152.37 187.76 151.81 188.75 152.07 189.71 C 152.34 190.67 153.33 191.23 154.29 190.96 Z M 155.26 190.69 L 156.25 190.41 C 157.20 190.14 157.76 189.15 157.49 188.19 C 157.23 187.24 156.23 186.68 155.28 186.95 L 154.29 187.23 C 153.33 187.49 152.77 188.49 153.04 189.44 C 153.31 190.40 154.30 190.96 155.26 190.69 Z M 156.25 190.41 L 157.22 190.13 C 158.17 189.86 158.73 188.87 158.46 187.92 C 158.19 186.96 157.19 186.41 156.24 186.68 L 155.27 186.95 C 154.32 187.22 153.76 188.22 154.03 189.17 C 154.31 190.13 155.30 190.68 156.25 190.41 Z M 157.22 190.13 L 158.17 189.86 C 159.13 189.58 159.68 188.59 159.40 187.64 C 159.13 186.69 158.13 186.13 157.18 186.41 L 156.23 186.68 C 155.28 186.95 154.73 187.95 155.00 188.90 C 155.28 189.85 156.27 190.40 157.22 190.13 Z M 158.18 189.85 L 159.14 189.57 C 160.09 189.30 160.64 188.30 160.36 187.35 C 160.08 186.40 159.09 185.86 158.14 186.13 L 157.18 186.41 C 156.23 186.69 155.68 187.68 155.96 188.64 C 156.23 189.59 157.23 190.13 158.18 189.85 Z M 159.15 189.57 L 160.12 189.28 C 161.07 189.00 161.61 188.01 161.33 187.06 C 161.05 186.11 160.05 185.57 159.10 185.85 L 158.13 186.14 C 157.18 186.42 156.64 187.41 156.92 188.36 C 157.20 189.31 158.20 189.85 159.15 189.57 Z M 160.12 189.28 L 161.09 188.99 C 162.03 188.71 162.57 187.71 162.28 186.76 C 162.00 185.82 161.00 185.28 160.06 185.56 L 159.09 185.85 C 158.15 186.14 157.61 187.14 157.90 188.08 C 158.18 189.03 159.18 189.56 160.12 189.28 Z M 161.09 188.98 L 162.03 188.70 C 162.97 188.41 163.50 187.41 163.21 186.47 C 162.92 185.53 161.93 185.00 160.98 185.28 L 160.05 185.57 C 159.11 185.86 158.58 186.86 158.86 187.80 C 159.15 188.74 160.15 189.27 161.09 188.98 Z M 162.03 188.70 L 162.97 188.40 C 163.92 188.11 164.44 187.12 164.15 186.18 C 163.86 185.24 162.87 184.71 161.93 185.00 L 160.98 185.29 C 160.04 185.58 159.51 186.58 159.80 187.52 C 160.09 188.46 161.09 188.99 162.03 188.70 Z M 162.98 188.40 L 163.94 188.10 C 164.88 187.81 165.40 186.82 165.11 185.88 C 164.82 184.94 163.82 184.41 162.89 184.70 L 161.92 185.00 C 160.98 185.29 160.46 186.29 160.75 187.23 C 161.04 188.17 162.04 188.69 162.98 188.40 Z M 163.94 188.10 L 164.92 187.80 C 165.86 187.51 166.38 186.51 166.09 185.57 C 165.80 184.64 164.81 184.11 163.87 184.40 L 162.89 184.71 C 161.95 185.00 161.42 185.99 161.71 186.93 C 162.01 187.87 163.00 188.39 163.94 188.10 Z M 164.92 187.79 L 165.88 187.50 C 166.82 187.21 167.34 186.21 167.05 185.28 C 166.76 184.34 165.77 183.82 164.84 184.11 L 163.87 184.40 C 162.94 184.69 162.41 185.69 162.70 186.62 C 162.99 187.56 163.98 188.08 164.92 187.79 Z M 165.88 187.49 L 166.84 187.20 C 167.78 186.91 168.30 185.92 168.02 184.99 C 167.73 184.05 166.74 183.53 165.81 183.81 L 164.84 184.11 C 163.91 184.40 163.38 185.39 163.67 186.32 C 163.95 187.25 164.94 187.78 165.88 187.49 Z M 166.84 187.19 L 167.81 186.90 C 168.74 186.61 169.26 185.62 168.98 184.69 C 168.69 183.76 167.71 183.24 166.78 183.52 L 165.81 183.82 C 164.88 184.10 164.35 185.09 164.64 186.02 C 164.92 186.95 165.91 187.48 166.84 187.19 Z M 167.81 186.89 L 168.76 186.60 C 169.69 186.32 170.21 185.33 169.93 184.40 C 169.65 183.48 168.67 182.95 167.74 183.24 L 166.78 183.53 C 165.85 183.81 165.33 184.79 165.61 185.72 C 165.89 186.65 166.88 187.17 167.81 186.89 Z M 168.76 186.60 L 169.70 186.31 C 170.62 186.03 171.15 185.05 170.87 184.12 C 170.58 183.20 169.60 182.67 168.68 182.95 L 167.74 183.24 C 166.81 183.52 166.29 184.50 166.57 185.43 C 166.85 186.35 167.83 186.88 168.76 186.60 Z M 169.69 186.31 L 170.71 186.00 C 171.63 185.72 172.15 184.74 171.87 183.82 C 171.59 182.90 170.62 182.37 169.69 182.65 L 168.68 182.96 C 167.76 183.24 167.23 184.21 167.51 185.14 C 167.79 186.06 168.77 186.59 169.69 186.31 Z M 170.70 186.00 L 171.68 185.70 C 172.60 185.42 173.12 184.45 172.84 183.53 C 172.57 182.61 171.59 182.09 170.67 182.36 L 169.70 182.66 C 168.78 182.93 168.25 183.91 168.53 184.83 C 168.81 185.75 169.78 186.27 170.70 186.00 Z M 171.67 185.70 L 172.61 185.42 C 173.53 185.14 174.05 184.17 173.78 183.25 C 173.50 182.33 172.53 181.81 171.62 182.09 L 170.68 182.37 C 169.76 182.64 169.23 183.61 169.51 184.53 C 169.79 185.45 170.75 185.97 171.67 185.70 Z M 172.61 185.41 L 173.52 185.14 C 174.44 184.86 174.96 183.90 174.69 182.98 C 174.41 182.07 173.45 181.54 172.53 181.82 L 171.62 182.09 C 170.70 182.36 170.18 183.33 170.45 184.25 C 170.73 185.16 171.69 185.68 172.61 185.41 Z M 173.52 185.13 L 174.50 184.84 C 175.41 184.57 175.93 183.61 175.66 182.69 C 175.38 181.78 174.42 181.26 173.51 181.53 L 172.53 181.82 C 171.62 182.10 171.10 183.06 171.37 183.97 C 171.64 184.88 172.61 185.40 173.52 185.13 Z M 174.49 184.83 L 175.46 184.54 C 176.37 184.27 176.89 183.32 176.62 182.41 C 176.35 181.50 175.39 180.98 174.48 181.25 L 173.51 181.54 C 172.60 181.81 172.08 182.77 172.36 183.68 C 172.63 184.59 173.58 185.10 174.49 184.83 Z M 175.46 184.53 L 176.41 184.25 C 177.32 183.98 177.83 183.02 177.56 182.12 C 177.28 181.22 176.33 180.70 175.43 180.98 L 174.48 181.26 C 173.57 181.53 173.06 182.49 173.33 183.39 C 173.61 184.29 174.56 184.81 175.46 184.53 Z M 176.41 184.24 L 177.34 183.96 C 178.24 183.68 178.74 182.73 178.47 181.83 C 178.20 180.93 177.24 180.43 176.35 180.70 L 175.42 180.98 C 174.52 181.26 174.02 182.21 174.29 183.11 C 174.56 184.01 175.52 184.51 176.41 184.24 Z M 177.35 183.95 L 178.25 183.67 C 179.14 183.39 179.64 182.44 179.36 181.55 C 179.08 180.65 178.13 180.15 177.24 180.43 L 176.34 180.71 C 175.45 180.99 174.95 181.94 175.23 182.83 C 175.50 183.73 176.45 184.23 177.35 183.95 Z M 178.26 183.65 L 179.18 183.36 C 180.06 183.08 180.55 182.13 180.27 181.24 C 179.98 180.36 179.04 179.87 178.15 180.15 L 177.23 180.44 C 176.34 180.73 175.86 181.68 176.14 182.56 C 176.42 183.45 177.37 183.94 178.26 183.65 Z M 179.19 183.35 L 180.15 183.03 C 181.03 182.74 181.51 181.79 181.23 180.91 C 180.94 180.04 179.99 179.56 179.11 179.84 L 178.14 180.16 C 177.26 180.45 176.78 181.40 177.07 182.28 C 177.36 183.16 178.31 183.64 179.19 183.35 Z M 180.16 183.02 L 181.18 182.68 C 182.05 182.38 182.52 181.44 182.23 180.56 C 181.93 179.69 180.99 179.22 180.11 179.52 L 179.10 179.86 C 178.23 180.15 177.76 181.10 178.05 181.97 C 178.35 182.84 179.29 183.31 180.16 183.02 Z M 181.20 182.66 L 182.15 182.33 C 183.02 182.02 183.47 181.07 183.17 180.21 C 182.86 179.34 181.92 178.89 181.05 179.19 L 180.09 179.53 C 179.23 179.84 178.77 180.78 179.08 181.65 C 179.38 182.51 180.33 182.97 181.20 182.66 Z M 182.21 182.30 L 183.17 181.92 C 184.02 181.58 184.44 180.63 184.11 179.78 C 183.78 178.93 182.82 178.51 181.97 178.84 L 181.00 179.22 C 180.15 179.55 179.73 180.51 180.06 181.36 C 180.40 182.21 181.36 182.63 182.21 182.30 Z M 183.27 181.87 L 184.19 181.44 C 185.01 181.06 185.37 180.08 184.98 179.26 C 184.60 178.43 183.62 178.08 182.80 178.46 L 181.88 178.89 C 181.05 179.27 180.70 180.25 181.08 181.07 C 181.46 181.90 182.44 182.25 183.27 181.87 Z M 184.33 181.36 L 185.15 180.87 C 185.92 180.41 186.18 179.41 185.72 178.63 C 185.26 177.85 184.25 177.59 183.47 178.06 L 182.66 178.54 C 181.88 179.00 181.62 180.01 182.08 180.79 C 182.54 181.56 183.55 181.82 184.33 181.36 Z M 185.36 180.70 L 186.15 180.04 C 186.83 179.45 186.92 178.43 186.34 177.74 C 185.75 177.06 184.73 176.97 184.04 177.56 L 183.26 178.22 C 182.57 178.81 182.49 179.83 183.07 180.52 C 183.65 181.20 184.68 181.29 185.36 180.70 Z M 186.36 179.79 L 186.98 179.01 C 187.53 178.31 187.41 177.30 186.71 176.75 C 186.01 176.19 185.00 176.32 184.45 177.01 L 183.83 177.80 C 183.28 178.50 183.40 179.51 184.10 180.06 C 184.80 180.61 185.81 180.49 186.36 179.79 Z M 187.10 178.80 L 187.58 177.97 C 188.02 177.20 187.75 176.23 186.99 175.79 C 186.22 175.35 185.25 175.62 184.81 176.38 L 184.33 177.22 C 183.89 177.98 184.16 178.96 184.92 179.40 C 185.69 179.83 186.66 179.57 187.10 178.80 Z M 187.61 177.87 L 187.94 177.20 C 188.32 176.42 188.00 175.47 187.21 175.09 C 186.43 174.71 185.48 175.03 185.10 175.81 L 184.77 176.48 C 184.39 177.26 184.72 178.21 185.50 178.59 C 186.28 178.98 187.23 178.65 187.61 177.87 Z"
      fill="black"
      fill-rule="nonzero" /><path d="M 154.85 144.51 L 154.76 145.51 C 154.67 146.44 155.36 147.27 156.30 147.36 C 157.24 147.45 158.07 146.76 158.15 145.82 L 158.24 144.83 C 158.33 143.89 157.64 143.06 156.70 142.97 C 155.76 142.89 154.93 143.58 154.85 144.51 Z M 154.72 145.52 L 154.63 146.51 C 154.56 147.48 155.27 148.32 156.23 148.40 C 157.19 148.47 158.04 147.76 158.11 146.80 L 158.19 145.80 C 158.27 144.84 157.56 144.00 156.60 143.92 C 155.64 143.84 154.79 144.56 154.72 145.52 Z M 154.59 146.55 L 154.53 147.55 C 154.47 148.53 155.22 149.38 156.20 149.44 C 157.19 149.50 158.04 148.75 158.10 147.76 L 158.16 146.77 C 158.22 145.78 157.47 144.93 156.48 144.87 C 155.50 144.81 154.65 145.56 154.59 146.55 Z M 154.49 147.60 L 154.46 148.60 C 154.43 149.61 155.22 150.45 156.23 150.48 C 157.24 150.51 158.08 149.72 158.11 148.71 L 158.14 147.71 C 158.17 146.70 157.38 145.86 156.37 145.83 C 155.36 145.80 154.52 146.59 154.49 147.60 Z M 154.43 148.67 L 154.44 149.63 C 154.45 150.65 155.29 151.47 156.31 151.47 C 157.33 151.46 158.15 150.62 158.14 149.60 L 158.13 148.64 C 158.12 147.62 157.29 146.80 156.27 146.81 C 155.25 146.82 154.42 147.65 154.43 148.67 Z M 154.44 149.71 L 154.49 150.66 C 154.54 151.68 155.40 152.47 156.43 152.42 C 157.45 152.37 158.24 151.50 158.19 150.48 L 158.14 149.53 C 158.09 148.51 157.22 147.72 156.20 147.77 C 155.18 147.82 154.39 148.68 154.44 149.71 Z M 154.50 150.73 L 154.58 151.71 C 154.67 152.73 155.56 153.48 156.58 153.39 C 157.59 153.31 158.35 152.41 158.26 151.40 L 158.18 150.41 C 158.09 149.40 157.20 148.65 156.18 148.73 C 155.16 148.82 154.41 149.71 154.50 150.73 Z M 154.59 151.77 L 154.71 152.79 C 154.83 153.80 155.75 154.52 156.76 154.40 C 157.77 154.28 158.49 153.37 158.37 152.36 L 158.25 151.34 C 158.13 150.33 157.21 149.60 156.20 149.72 C 155.19 149.84 154.47 150.76 154.59 151.77 Z M 154.72 152.84 L 154.88 153.90 C 155.03 154.91 155.96 155.60 156.97 155.45 C 157.97 155.30 158.66 154.37 158.52 153.37 L 158.36 152.31 C 158.21 151.30 157.28 150.61 156.27 150.76 C 155.27 150.91 154.58 151.84 154.72 152.84 Z M 154.90 153.94 L 155.06 154.93 C 155.23 155.93 156.18 156.60 157.17 156.43 C 158.17 156.26 158.84 155.32 158.67 154.32 L 158.50 153.33 C 158.33 152.33 157.39 151.66 156.39 151.83 C 155.40 152.00 154.73 152.94 154.90 153.94 Z M 155.08 154.96 L 155.27 155.97 C 155.45 156.96 156.40 157.61 157.39 157.43 C 158.37 157.25 159.03 156.30 158.84 155.31 L 158.65 154.30 C 158.47 153.31 157.52 152.66 156.54 152.84 C 155.55 153.02 154.90 153.97 155.08 154.96 Z M 155.28 155.99 L 155.48 157.00 C 155.67 157.98 156.62 158.62 157.60 158.43 C 158.58 158.23 159.22 157.28 159.03 156.31 L 158.83 155.30 C 158.64 154.32 157.69 153.68 156.71 153.87 C 155.73 154.06 155.09 155.01 155.28 155.99 Z M 155.49 157.01 L 155.69 157.99 C 155.89 158.96 156.83 159.59 157.80 159.39 C 158.78 159.20 159.41 158.25 159.21 157.28 L 159.01 156.30 C 158.82 155.32 157.87 154.69 156.90 154.89 C 155.93 155.09 155.30 156.03 155.49 157.01 Z M 155.70 157.99 L 155.89 158.91 C 156.08 159.88 157.03 160.50 157.99 160.30 C 158.96 160.11 159.58 159.16 159.39 158.20 L 159.20 157.27 C 159.00 156.31 158.06 155.68 157.09 155.88 C 156.13 156.08 155.50 157.02 155.70 157.99 Z M 155.90 158.90 L 156.12 159.99 C 156.31 160.95 157.25 161.57 158.21 161.38 C 159.16 161.19 159.79 160.25 159.59 159.29 L 159.37 158.20 C 159.18 157.25 158.25 156.63 157.29 156.82 C 156.33 157.01 155.71 157.94 155.90 158.90 Z M 156.14 159.98 L 156.34 160.98 C 156.52 161.93 157.44 162.55 158.39 162.36 C 159.34 162.17 159.96 161.25 159.77 160.30 L 159.57 159.30 C 159.39 158.36 158.47 157.74 157.52 157.92 C 156.57 158.11 155.95 159.03 156.14 159.98 Z M 156.35 160.97 L 156.53 161.90 C 156.71 162.84 157.62 163.45 158.56 163.27 C 159.50 163.09 160.11 162.18 159.93 161.24 L 159.75 160.31 C 159.57 159.38 158.66 158.76 157.73 158.94 C 156.79 159.12 156.17 160.03 156.35 160.97 Z M 156.55 161.89 L 156.72 162.79 C 156.90 163.72 157.79 164.33 158.72 164.15 C 159.65 163.98 160.26 163.08 160.09 162.15 L 159.91 161.25 C 159.74 160.32 158.84 159.71 157.91 159.89 C 156.99 160.07 156.38 160.96 156.55 161.89 Z M 156.74 162.78 L 156.92 163.76 C 157.09 164.68 157.98 165.29 158.90 165.11 C 159.82 164.94 160.43 164.06 160.25 163.13 L 160.07 162.16 C 159.90 161.24 159.01 160.63 158.09 160.81 C 157.17 160.98 156.56 161.86 156.74 162.78 Z M 156.93 163.76 L 157.11 164.74 C 157.29 165.65 158.16 166.26 159.08 166.09 C 159.99 165.92 160.60 165.04 160.43 164.12 L 160.24 163.14 C 160.07 162.22 159.19 161.62 158.28 161.79 C 157.36 161.96 156.76 162.84 156.93 163.76 Z M 157.13 164.74 L 157.31 165.72 C 157.48 166.63 158.35 167.23 159.26 167.06 C 160.17 166.89 160.77 166.02 160.60 165.11 L 160.41 164.13 C 160.25 163.22 159.37 162.62 158.47 162.79 C 157.56 162.96 156.96 163.83 157.13 164.74 Z M 157.32 165.72 L 157.50 166.70 C 157.67 167.60 158.54 168.20 159.44 168.03 C 160.34 167.87 160.93 167.00 160.77 166.10 L 160.59 165.12 C 160.42 164.21 159.55 163.62 158.65 163.79 C 157.75 163.95 157.15 164.82 157.32 165.72 Z M 157.51 166.70 L 157.69 167.67 C 157.86 168.57 158.72 169.16 159.61 169.00 C 160.51 168.83 161.10 167.97 160.94 167.07 L 160.76 166.10 C 160.59 165.21 159.73 164.61 158.84 164.78 C 157.94 164.94 157.35 165.80 157.51 166.70 Z M 157.70 167.67 L 157.88 168.65 C 158.05 169.54 158.90 170.13 159.79 169.97 C 160.68 169.80 161.27 168.95 161.11 168.06 L 160.93 167.08 C 160.76 166.19 159.91 165.60 159.02 165.76 C 158.13 165.93 157.54 166.78 157.70 167.67 Z M 157.89 168.65 L 158.07 169.64 C 158.23 170.52 159.08 171.11 159.96 170.95 C 160.85 170.79 161.44 169.94 161.28 169.06 L 161.10 168.07 C 160.94 167.18 160.09 166.59 159.21 166.75 C 158.32 166.91 157.73 167.76 157.89 168.65 Z M 158.08 169.63 L 158.26 170.63 C 158.42 171.51 159.26 172.09 160.13 171.93 C 161.01 171.78 161.60 170.94 161.44 170.06 L 161.27 169.07 C 161.11 168.19 160.27 167.60 159.39 167.76 C 158.51 167.92 157.93 168.75 158.08 169.63 Z M 158.27 170.62 L 158.45 171.62 C 158.60 172.49 159.43 173.07 160.31 172.92 C 161.18 172.76 161.76 171.93 161.61 171.06 L 161.43 170.06 C 161.28 169.19 160.45 168.61 159.57 168.76 C 158.70 168.92 158.12 169.75 158.27 170.62 Z M 158.46 171.62 L 158.64 172.61 C 158.79 173.47 159.62 174.05 160.48 173.90 C 161.35 173.74 161.92 172.92 161.77 172.05 L 161.60 171.06 C 161.44 170.19 160.61 169.62 159.75 169.77 C 158.88 169.93 158.31 170.75 158.46 171.62 Z M 158.65 172.61 L 158.82 173.58 C 158.98 174.44 159.80 175.01 160.66 174.85 C 161.52 174.70 162.09 173.87 161.93 173.01 L 161.76 172.05 C 161.60 171.19 160.78 170.62 159.92 170.77 C 159.06 170.93 158.49 171.75 158.65 172.61 Z M 158.83 173.59 L 159.02 174.61 C 159.18 175.46 160.01 176.02 160.86 175.86 C 161.71 175.70 162.28 174.88 162.12 174.03 L 161.92 173.01 C 161.76 172.15 160.94 171.59 160.09 171.75 C 159.23 171.91 158.67 172.73 158.83 173.59 Z M 159.03 174.61 L 159.22 175.60 C 159.38 176.45 160.20 177.01 161.05 176.85 C 161.90 176.69 162.46 175.87 162.30 175.02 L 162.11 174.03 C 161.95 173.18 161.13 172.62 160.28 172.78 C 159.43 172.94 158.87 173.76 159.03 174.61 Z M 159.22 175.59 L 159.39 176.55 C 159.55 177.40 160.36 177.96 161.21 177.81 C 162.06 177.65 162.63 176.84 162.47 175.99 L 162.30 175.03 C 162.14 174.18 161.33 173.61 160.48 173.77 C 159.63 173.92 159.06 174.74 159.22 175.59 Z M 159.39 176.52 L 159.54 177.44 C 159.68 178.29 160.49 178.87 161.34 178.73 C 162.19 178.59 162.77 177.78 162.63 176.93 L 162.47 176.01 C 162.33 175.16 161.53 174.58 160.68 174.72 C 159.82 174.87 159.25 175.67 159.39 176.52 Z M 159.54 177.41 L 159.67 178.33 C 159.80 179.18 160.59 179.77 161.45 179.65 C 162.30 179.52 162.89 178.73 162.76 177.87 L 162.63 176.96 C 162.51 176.10 161.71 175.51 160.86 175.64 C 160.00 175.76 159.41 176.56 159.54 177.41 Z M 159.67 178.30 L 159.80 179.28 C 159.91 180.14 160.69 180.74 161.54 180.63 C 162.40 180.52 163.00 179.74 162.89 178.89 L 162.77 177.90 C 162.66 177.05 161.88 176.44 161.02 176.55 C 160.16 176.66 159.56 177.44 159.67 178.30 Z M 159.79 179.26 L 159.92 180.38 C 160.02 181.23 160.79 181.85 161.65 181.75 C 162.51 181.65 163.12 180.88 163.02 180.02 L 162.90 178.91 C 162.80 178.05 162.02 177.44 161.17 177.53 C 160.31 177.63 159.70 178.41 159.79 179.26 Z M 159.92 180.37 L 160.02 181.25 C 160.11 182.11 160.88 182.73 161.73 182.64 C 162.59 182.55 163.21 181.78 163.12 180.92 L 163.03 180.03 C 162.93 179.18 162.16 178.56 161.31 178.65 C 160.45 178.74 159.83 179.51 159.92 180.37 Z M 160.01 181.25 L 160.11 182.20 C 160.20 183.06 160.97 183.68 161.83 183.59 C 162.68 183.51 163.31 182.74 163.22 181.88 L 163.12 180.93 C 163.03 180.07 162.27 179.45 161.41 179.53 C 160.55 179.62 159.93 180.39 160.01 181.25 Z M 160.11 182.20 L 160.21 183.21 C 160.30 184.07 161.06 184.69 161.92 184.61 C 162.78 184.52 163.41 183.76 163.32 182.90 L 163.22 181.89 C 163.13 181.03 162.37 180.40 161.51 180.49 C 160.65 180.57 160.03 181.34 160.11 182.20 Z M 160.21 183.21 L 160.32 184.26 C 160.40 185.11 161.17 185.74 162.02 185.66 C 162.88 185.57 163.51 184.81 163.42 183.95 L 163.32 182.90 C 163.24 182.04 162.47 181.42 161.61 181.50 C 160.76 181.58 160.13 182.35 160.21 183.21 Z M 160.32 184.25 L 160.42 185.32 C 160.51 186.18 161.27 186.81 162.13 186.73 C 162.98 186.64 163.61 185.88 163.53 185.02 L 163.42 183.95 C 163.34 183.09 162.58 182.47 161.72 182.55 C 160.86 182.63 160.23 183.40 160.32 184.25 Z M 160.42 185.32 L 160.43 185.42 C 160.51 186.27 161.28 186.90 162.14 186.82 C 162.99 186.73 163.62 185.97 163.54 185.11 L 163.53 185.02 C 163.44 184.16 162.68 183.54 161.82 183.62 C 160.97 183.70 160.34 184.47 160.42 185.32 Z"
      fill="black"
      fill-rule="nonzero" /></svg>