<svg xmlns="http://www.w3.org/2000/svg" width="300" height="300" viewBox="0 0 300 300">
<path d="M 116.14 107.95 L 115.94 108.93 C 115.73 109.93 116.37 110.91 117.37 111.12 C 118.37 111.33 119.35 110.68 119.56 109.68 L 119.76 108.69 C 119.97 107.69 119.33 106.72 118.33 106.51 C 117.33 106.30 116.35 106.95 116.14 107.95 Z M 115.93 108.93 L 115.72 109.92 C 115.51 110.92 116.16 111.91 117.17 112.12 C 118.17 112.33 119.16 111.68 119.37 110.67 L 119.57 109.69 C 119.78 108.68 119.13 107.70 118.13 107.49 C 117.12 107.28 116.14 107.92 115.93 108.93 Z M 115.71 109.91 L 115.51 110.89 C 115.29 111.90 115.94 112.89 116.96 113.10 C 117.97 113.32 118.96 112.67 119.17 111.65 L 119.38 110.68 C 119.59 109.67 118.94 108.67 117.93 108.46 C 116.92 108.25 115.92 108.90 115.71 109.91 Z M 115.50 110.88 L 115.29 111.84 C 115.08 112.85 115.73 113.86 116.74 114.07 C 117.76 114.29 118.76 113.64 118.98 112.62 L 119.18 111.66 C 119.40 110.64 118.75 109.64 117.73 109.43 C 116.71 109.21 115.71 109.86 115.50 110.88 Z M 115.28 111.84 L 115.09 112.76 C 114.87 113.78 115.53 114.78 116.55 115.00 C 117.57 115.22 118.57 114.57 118.79 113.54 L 118.99 112.62 C 119.20 111.60 118.55 110.60 117.53 110.38 C 116.51 110.16 115.50 110.81 115.28 111.84 Z M 115.08 112.79 L 114.89 113.73 C 114.69 114.76 115.36 115.76 116.39 115.96 C 117.42 116.16 118.42 115.49 118.62 114.46 L 118.80 113.51 C 119.00 112.49 118.33 111.49 117.30 111.29 C 116.28 111.09 115.28 111.76 115.08 112.79 Z M 114.88 113.79 L 114.72 114.79 C 114.55 115.83 115.25 116.80 116.29 116.97 C 117.32 117.14 118.30 116.44 118.47 115.40 L 118.63 114.40 C 118.80 113.36 118.10 112.39 117.06 112.22 C 116.02 112.05 115.05 112.75 114.88 113.79 Z M 114.70 114.87 L 114.57 115.94 C 114.45 116.99 115.19 117.94 116.24 118.06 C 117.28 118.19 118.23 117.44 118.36 116.40 L 118.48 115.32 C 118.61 114.28 117.87 113.33 116.82 113.20 C 115.78 113.08 114.83 113.82 114.70 114.87 Z M 114.56 116.02 L 114.49 116.99 C 114.40 118.04 115.19 118.96 116.24 119.04 C 117.29 119.13 118.21 118.34 118.29 117.29 L 118.37 116.32 C 118.45 115.27 117.66 114.35 116.61 114.27 C 115.56 114.19 114.65 114.97 114.56 116.02 Z M 114.48 117.07 L 114.44 118.08 C 114.40 119.14 115.22 120.02 116.27 120.06 C 117.32 120.11 118.21 119.29 118.25 118.23 L 118.29 117.22 C 118.34 116.16 117.52 115.28 116.46 115.24 C 115.41 115.19 114.52 116.01 114.48 117.07 Z M 114.44 118.16 L 114.44 119.19 C 114.45 120.25 115.30 121.10 116.36 121.10 C 117.41 121.09 118.26 120.24 118.26 119.18 L 118.25 118.15 C 118.25 117.10 117.39 116.25 116.34 116.25 C 115.29 116.25 114.44 117.11 114.44 118.16 Z M 114.45 119.29 L 114.50 120.30 C 114.56 121.35 115.46 122.16 116.51 122.10 C 117.56 122.04 118.37 121.14 118.31 120.09 L 118.26 119.08 C 118.20 118.03 117.30 117.23 116.25 117.28 C 115.20 117.34 114.39 118.24 114.45 119.29 Z M 114.51 120.43 L 114.63 121.41 C 114.76 122.46 115.71 123.20 116.75 123.08 C 117.80 122.95 118.54 122.00 118.42 120.95 L 118.30 119.97 C 118.17 118.92 117.22 118.18 116.18 118.30 C 115.13 118.43 114.39 119.38 114.51 120.43 Z M 114.66 121.59 L 114.89 122.63 C 115.12 123.66 116.13 124.31 117.16 124.09 C 118.19 123.86 118.84 122.84 118.61 121.82 L 118.39 120.77 C 118.16 119.75 117.15 119.10 116.12 119.32 C 115.09 119.55 114.44 120.56 114.66 121.59 Z M 114.96 122.86 L 115.29 123.80 C 115.64 124.79 116.73 125.31 117.72 124.96 C 118.71 124.61 119.23 123.52 118.88 122.53 L 118.55 121.59 C 118.20 120.60 117.11 120.08 116.12 120.43 C 115.13 120.78 114.61 121.87 114.96 122.86 Z M 115.40 124.04 L 115.84 124.89 C 116.33 125.82 117.48 126.18 118.41 125.70 C 119.34 125.21 119.70 124.06 119.22 123.13 L 118.77 122.28 C 118.29 121.35 117.14 120.99 116.20 121.47 C 115.27 121.96 114.91 123.11 115.40 124.04 Z M 115.99 125.13 L 116.55 125.90 C 117.17 126.75 118.36 126.94 119.21 126.32 C 120.06 125.70 120.25 124.52 119.63 123.67 L 119.07 122.89 C 118.45 122.04 117.26 121.85 116.41 122.47 C 115.56 123.09 115.37 124.28 115.99 125.13 Z M 116.73 126.11 L 117.43 126.83 C 118.16 127.59 119.36 127.61 120.12 126.88 C 120.87 126.15 120.89 124.94 120.16 124.19 L 119.46 123.46 C 118.73 122.71 117.53 122.69 116.77 123.42 C 116.02 124.15 116.00 125.35 116.73 126.11 Z M 117.60 126.98 L 118.39 127.62 C 119.20 128.29 120.39 128.16 121.05 127.35 C 121.72 126.54 121.59 125.35 120.78 124.69 L 119.99 124.04 C 119.18 123.38 117.99 123.50 117.33 124.31 C 116.67 125.13 116.79 126.32 117.60 126.98 Z M 118.55 127.73 L 119.39 128.29 C 120.26 128.86 121.43 128.62 122.00 127.75 C 122.58 126.88 122.33 125.70 121.46 125.13 L 120.63 124.58 C 119.75 124.01 118.58 124.25 118.01 125.12 C 117.43 125.99 117.68 127.16 118.55 127.73 Z M 119.55 128.37 L 120.40 128.83 C 121.32 129.31 122.46 128.96 122.95 128.04 C 123.43 127.12 123.08 125.98 122.16 125.50 L 121.30 125.04 C 120.38 124.56 119.24 124.91 118.76 125.83 C 118.27 126.75 118.63 127.89 119.55 128.37 Z M 120.59 128.90 L 121.56 129.29 C 122.52 129.67 123.61 129.20 123.99 128.23 C 124.37 127.27 123.90 126.18 122.94 125.80 L 121.97 125.42 C 121.01 125.04 119.92 125.51 119.54 126.47 C 119.16 127.44 119.63 128.52 120.59 128.90 Z M 121.77 129.34 L 122.72 129.60 C 123.71 129.86 124.73 129.27 125.00 128.27 C 125.26 127.28 124.67 126.26 123.67 126.00 L 122.73 125.74 C 121.73 125.48 120.71 126.07 120.45 127.07 C 120.18 128.06 120.78 129.08 121.77 129.34 Z M 122.90 129.62 L 123.87 129.78 C 124.87 129.94 125.82 129.25 125.98 128.24 C 126.15 127.23 125.46 126.28 124.45 126.12 L 123.49 125.97 C 122.48 125.81 121.53 126.49 121.37 127.50 C 121.21 128.51 121.90 129.46 122.90 129.62 Z M 124.00 129.78 L 124.95 129.86 C 125.96 129.95 126.85 129.20 126.94 128.19 C 127.03 127.18 126.28 126.29 125.27 126.20 L 124.32 126.12 C 123.30 126.03 122.41 126.78 122.33 127.79 C 122.24 128.80 122.99 129.69 124.00 129.78 Z M 125.04 129.86 L 126.02 129.89 C 127.03 129.93 127.87 129.14 127.91 128.13 C 127.95 127.12 127.16 126.28 126.15 126.24 L 125.17 126.21 C 124.17 126.17 123.32 126.96 123.28 127.97 C 123.25 128.97 124.03 129.82 125.04 129.86 Z M 126.09 129.88 L 127.10 129.88 C 128.11 129.88 128.92 129.07 128.92 128.06 C 128.92 127.06 128.10 126.25 127.10 126.25 L 126.08 126.25 C 125.08 126.25 124.27 127.07 124.27 128.07 C 124.27 129.07 125.08 129.88 126.09 129.88 Z M 127.15 129.87 L 128.19 129.84 C 129.19 129.81 129.97 128.98 129.95 127.99 C 129.92 126.99 129.09 126.21 128.09 126.23 L 127.05 126.26 C 126.06 126.29 125.27 127.12 125.30 128.11 C 125.33 129.11 126.16 129.90 127.15 129.87 Z M 128.23 129.83 L 129.21 129.78 C 130.20 129.73 130.96 128.89 130.91 127.90 C 130.86 126.91 130.02 126.15 129.03 126.20 L 128.05 126.25 C 127.06 126.30 126.30 127.14 126.35 128.13 C 126.40 129.11 127.24 129.88 128.23 129.83 Z M 129.27 129.76 L 130.27 129.68 C 131.25 129.59 131.97 128.73 131.89 127.75 C 131.80 126.77 130.94 126.04 129.96 126.13 L 128.97 126.22 C 127.99 126.30 127.26 127.16 127.35 128.14 C 127.43 129.12 128.29 129.85 129.27 129.76 Z M 130.36 129.65 L 131.37 129.51 C 132.33 129.37 133.00 128.48 132.87 127.51 C 132.73 126.54 131.83 125.87 130.87 126.01 L 129.86 126.15 C 128.90 126.29 128.23 127.18 128.36 128.15 C 128.50 129.12 129.40 129.79 130.36 129.65 Z M 131.49 129.47 L 132.48 129.26 C 133.43 129.05 134.03 128.11 133.82 127.17 C 133.62 126.22 132.68 125.62 131.73 125.83 L 130.74 126.04 C 129.79 126.25 129.19 127.19 129.40 128.13 C 129.61 129.08 130.54 129.68 131.49 129.47 Z M 132.62 129.21 L 133.58 128.91 C 134.50 128.63 135.02 127.65 134.74 126.73 C 134.45 125.81 133.48 125.30 132.56 125.58 L 131.60 125.88 C 130.68 126.16 130.16 127.13 130.44 128.05 C 130.73 128.97 131.70 129.49 132.62 129.21 Z M 133.70 128.86 L 134.63 128.50 C 135.52 128.15 135.97 127.15 135.62 126.25 C 135.27 125.36 134.27 124.92 133.38 125.27 L 132.44 125.63 C 131.55 125.98 131.11 126.98 131.46 127.87 C 131.80 128.76 132.81 129.21 133.70 128.86 Z M 134.72 128.44 L 135.63 128.02 C 136.50 127.63 136.87 126.61 136.48 125.75 C 136.08 124.88 135.06 124.51 134.20 124.90 L 133.29 125.32 C 132.43 125.72 132.05 126.74 132.45 127.60 C 132.84 128.46 133.86 128.84 134.72 128.44 Z M 135.70 127.98 L 136.58 127.52 C 137.42 127.08 137.74 126.05 137.30 125.22 C 136.87 124.38 135.84 124.06 135.00 124.49 L 134.13 124.95 C 133.29 125.39 132.97 126.42 133.40 127.25 C 133.84 128.09 134.87 128.41 135.70 127.98 Z M 136.64 127.47 L 137.53 126.96 C 138.34 126.49 138.62 125.45 138.15 124.64 C 137.68 123.83 136.65 123.55 135.84 124.02 L 134.95 124.54 C 134.13 125.01 133.86 126.04 134.33 126.85 C 134.79 127.66 135.83 127.94 136.64 127.47 Z M 137.58 126.92 L 138.43 126.38 C 139.22 125.88 139.46 124.84 138.96 124.05 C 138.46 123.27 137.42 123.03 136.64 123.53 L 135.78 124.06 C 135.00 124.56 134.76 125.60 135.26 126.39 C 135.75 127.18 136.80 127.41 137.58 126.92 Z M 138.48 126.34 L 139.29 125.79 C 140.06 125.27 140.26 124.22 139.74 123.46 C 139.22 122.69 138.17 122.49 137.41 123.01 L 136.59 123.57 C 135.83 124.09 135.63 125.13 136.15 125.90 C 136.67 126.66 137.71 126.86 138.48 126.34 Z M 139.33 125.75 L 140.13 125.18 C 140.88 124.64 141.04 123.59 140.50 122.84 C 139.96 122.10 138.92 121.93 138.17 122.47 L 137.37 123.05 C 136.63 123.59 136.46 124.63 137.00 125.38 C 137.54 126.12 138.58 126.29 139.33 125.75 Z M 140.16 125.14 L 140.98 124.51 C 141.71 123.96 141.85 122.91 141.29 122.18 C 140.74 121.46 139.69 121.32 138.96 121.87 L 138.14 122.50 C 137.41 123.06 137.27 124.10 137.83 124.83 C 138.39 125.56 139.43 125.70 140.16 125.14 Z M 141.02 124.48 L 141.80 123.84 C 142.51 123.26 142.61 122.22 142.03 121.51 C 141.46 120.80 140.41 120.70 139.70 121.28 L 138.93 121.91 C 138.22 122.49 138.11 123.53 138.69 124.24 C 139.27 124.95 140.31 125.05 141.02 124.48 Z M 141.84 123.80 L 142.57 123.16 C 143.25 122.56 143.32 121.51 142.72 120.83 C 142.11 120.15 141.07 120.08 140.39 120.68 L 139.66 121.32 C 138.98 121.92 138.91 122.96 139.51 123.65 C 140.11 124.33 141.16 124.40 141.84 123.80 Z M 142.62 123.10 L 143.35 122.40 C 144.00 121.77 144.02 120.73 143.39 120.08 C 142.76 119.42 141.72 119.40 141.06 120.03 L 140.34 120.74 C 139.68 121.37 139.66 122.41 140.29 123.06 C 140.93 123.71 141.97 123.73 142.62 123.10 Z M 143.39 122.35 L 144.09 121.62 C 144.71 120.96 144.69 119.93 144.03 119.30 C 143.37 118.68 142.33 118.70 141.71 119.36 L 141.02 120.09 C 140.39 120.74 140.42 121.78 141.07 122.41 C 141.73 123.03 142.77 123.01 143.39 122.35 Z M 144.12 121.59 L 144.77 120.86 C 145.38 120.18 145.32 119.15 144.65 118.54 C 143.97 117.94 142.94 117.99 142.33 118.67 L 141.68 119.39 C 141.07 120.07 141.13 121.10 141.80 121.71 C 142.47 122.31 143.51 122.26 144.12 121.59 Z M 144.78 120.85 L 145.04 120.55 C 145.64 119.87 145.58 118.83 144.90 118.24 C 144.22 117.64 143.19 117.70 142.59 118.38 L 142.32 118.68 C 141.72 119.36 141.79 120.39 142.47 120.99 C 143.15 121.59 144.18 121.52 144.78 120.85 Z"
      fill="black"
      fill-rule="nonzero" /><path d="M 114.11 150.28 L 113.48 151.39 C 112.99 152.27 113.30 153.38 114.18 153.88 C 115.06 154.37 116.17 154.06 116.66 153.18 L 117.29 152.06 C 117.78 151.19 117.47 150.07 116.59 149.58 C 115.72 149.09 114.60 149.40 114.11 150.28 Z M 113.41 151.53 L 112.98 152.48 C 112.56 153.40 112.96 154.48 113.88 154.90 C 114.80 155.32 115.88 154.91 116.30 154.00 L 116.73 153.04 C 117.15 152.13 116.75 151.04 115.83 150.63 C 114.91 150.21 113.83 150.61 113.41 151.53 Z M 112.81 153.11 L 112.77 153.73 C 112.69 154.74 113.45 155.61 114.46 155.69 C 115.46 155.76 116.34 155.00 116.42 154.00 L 116.46 153.37 C 116.54 152.37 115.78 151.49 114.77 151.42 C 113.77 151.34 112.89 152.10 112.81 153.11 Z M 114.03 155.61 L 114.56 155.78 C 115.53 156.08 116.56 155.55 116.87 154.59 C 117.17 153.63 116.64 152.60 115.68 152.29 L 115.15 152.12 C 114.19 151.81 113.16 152.34 112.85 153.30 C 112.54 154.27 113.07 155.30 114.03 155.61 Z M 115.57 155.81 L 116.57 155.56 C 117.56 155.31 118.15 154.32 117.91 153.34 C 117.66 152.35 116.67 151.76 115.68 152.00 L 114.68 152.26 C 113.70 152.50 113.10 153.50 113.35 154.48 C 113.59 155.46 114.59 156.05 115.57 155.81 Z M 116.82 155.48 L 118.02 154.99 C 118.96 154.61 119.41 153.54 119.03 152.60 C 118.65 151.66 117.58 151.21 116.64 151.59 L 115.44 152.08 C 114.50 152.46 114.05 153.53 114.43 154.47 C 114.81 155.41 115.88 155.86 116.82 155.48 Z M 118.11 154.95 L 119.01 154.53 C 119.93 154.10 120.33 153.01 119.90 152.09 C 119.47 151.18 118.38 150.78 117.46 151.21 L 116.56 151.63 C 115.64 152.06 115.25 153.15 115.67 154.07 C 116.10 154.98 117.19 155.38 118.11 154.95 Z M 119.05 154.51 L 119.97 154.05 C 120.88 153.60 121.25 152.50 120.80 151.60 C 120.35 150.69 119.25 150.32 118.34 150.77 L 117.42 151.23 C 116.52 151.68 116.15 152.78 116.60 153.68 C 117.05 154.59 118.15 154.96 119.05 154.51 Z M 120.00 154.04 L 120.90 153.57 C 121.80 153.11 122.15 152.00 121.69 151.10 C 121.22 150.20 120.12 149.85 119.22 150.32 L 118.32 150.78 C 117.42 151.25 117.07 152.35 117.53 153.25 C 118.00 154.15 119.10 154.50 120.00 154.04 Z M 120.92 153.56 L 121.78 153.11 C 122.67 152.64 123.01 151.53 122.54 150.64 C 122.07 149.74 120.96 149.40 120.07 149.87 L 119.21 150.32 C 118.31 150.80 117.97 151.90 118.44 152.80 C 118.91 153.69 120.02 154.03 120.92 153.56 Z M 121.77 153.11 L 122.74 152.60 C 123.63 152.13 123.97 151.02 123.50 150.13 C 123.03 149.24 121.93 148.90 121.03 149.37 L 120.07 149.87 C 119.18 150.34 118.83 151.45 119.31 152.34 C 119.78 153.24 120.88 153.58 121.77 153.11 Z M 122.72 152.60 L 123.62 152.13 C 124.51 151.67 124.86 150.57 124.40 149.68 C 123.93 148.79 122.84 148.44 121.94 148.90 L 121.05 149.37 C 120.15 149.83 119.81 150.93 120.27 151.82 C 120.73 152.71 121.83 153.06 122.72 152.60 Z M 123.59 152.14 L 124.43 151.72 C 125.33 151.27 125.69 150.18 125.24 149.29 C 124.79 148.39 123.70 148.03 122.81 148.48 L 121.97 148.90 C 121.07 149.35 120.71 150.44 121.16 151.33 C 121.61 152.23 122.70 152.59 123.59 152.14 Z M 124.40 151.73 L 125.25 151.32 C 126.15 150.89 126.53 149.81 126.11 148.91 C 125.68 148.01 124.60 147.63 123.70 148.06 L 122.84 148.47 C 121.95 148.90 121.56 149.97 121.99 150.87 C 122.42 151.77 123.50 152.15 124.40 151.73 Z M 125.22 151.32 L 126.12 150.91 C 127.02 150.50 127.42 149.44 127.01 148.54 C 126.60 147.63 125.54 147.23 124.64 147.64 L 123.73 148.05 C 122.83 148.46 122.43 149.53 122.84 150.43 C 123.25 151.33 124.32 151.73 125.22 151.32 Z M 126.11 150.91 L 127.02 150.50 C 127.92 150.10 128.33 149.04 127.92 148.14 C 127.52 147.24 126.47 146.84 125.56 147.24 L 124.65 147.65 C 123.75 148.05 123.34 149.11 123.75 150.01 C 124.15 150.91 125.21 151.31 126.11 150.91 Z M 127.03 150.49 L 127.94 150.08 C 128.83 149.67 129.23 148.62 128.83 147.72 C 128.42 146.83 127.37 146.43 126.47 146.84 L 125.56 147.25 C 124.66 147.66 124.27 148.71 124.67 149.61 C 125.08 150.50 126.13 150.90 127.03 150.49 Z M 127.95 150.07 L 128.84 149.65 C 129.73 149.24 130.12 148.19 129.71 147.30 C 129.30 146.41 128.24 146.03 127.36 146.44 L 126.46 146.85 C 125.57 147.26 125.19 148.32 125.60 149.20 C 126.01 150.09 127.06 150.48 127.95 150.07 Z M 128.84 149.64 L 129.75 149.22 C 130.64 148.81 131.02 147.76 130.61 146.88 C 130.20 146.00 129.15 145.61 128.27 146.02 L 127.36 146.45 C 126.48 146.85 126.09 147.90 126.50 148.79 C 126.91 149.67 127.96 150.05 128.84 149.64 Z M 129.74 149.22 L 130.67 148.80 C 131.55 148.40 131.94 147.36 131.54 146.47 C 131.14 145.59 130.10 145.20 129.22 145.60 L 128.29 146.02 C 127.41 146.42 127.02 147.46 127.42 148.35 C 127.82 149.23 128.86 149.62 129.74 149.22 Z M 130.64 148.80 L 131.55 148.40 C 132.43 148.01 132.83 146.98 132.44 146.10 C 132.06 145.22 131.03 144.82 130.14 145.21 L 129.24 145.60 C 128.36 145.99 127.96 147.02 128.34 147.90 C 128.73 148.78 129.76 149.18 130.64 148.80 Z M 131.53 148.40 L 132.44 148.00 C 133.32 147.63 133.73 146.61 133.36 145.73 C 132.98 144.85 131.96 144.44 131.08 144.82 L 130.16 145.21 C 129.28 145.59 128.88 146.61 129.25 147.49 C 129.63 148.37 130.65 148.77 131.53 148.40 Z M 132.44 148.00 L 133.36 147.60 C 134.24 147.23 134.65 146.22 134.27 145.34 C 133.90 144.46 132.89 144.06 132.01 144.43 L 131.09 144.82 C 130.21 145.20 129.80 146.21 130.18 147.08 C 130.55 147.96 131.56 148.37 132.44 148.00 Z M 133.36 147.59 L 134.28 147.20 C 135.15 146.82 135.55 145.81 135.18 144.95 C 134.81 144.08 133.80 143.67 132.93 144.05 L 132.01 144.44 C 131.14 144.81 130.74 145.82 131.11 146.69 C 131.49 147.56 132.50 147.96 133.36 147.59 Z M 134.29 147.18 L 135.20 146.79 C 136.06 146.41 136.46 145.40 136.08 144.54 C 135.70 143.68 134.70 143.29 133.84 143.66 L 132.93 144.06 C 132.06 144.44 131.67 145.44 132.05 146.30 C 132.42 147.16 133.43 147.56 134.29 147.18 Z M 135.21 146.77 L 136.12 146.36 C 136.98 145.98 137.36 144.98 136.98 144.13 C 136.60 143.27 135.60 142.89 134.75 143.27 L 133.83 143.67 C 132.97 144.06 132.59 145.06 132.97 145.91 C 133.35 146.77 134.35 147.15 135.21 146.77 Z M 136.13 146.35 L 137.05 145.93 C 137.90 145.55 138.27 144.55 137.89 143.70 C 137.50 142.85 136.51 142.48 135.66 142.86 L 134.74 143.28 C 133.89 143.67 133.52 144.67 133.90 145.51 C 134.29 146.36 135.28 146.74 136.13 146.35 Z M 137.06 145.92 L 137.96 145.50 C 138.80 145.11 139.17 144.11 138.78 143.27 C 138.39 142.43 137.39 142.07 136.55 142.46 L 135.65 142.88 C 134.81 143.27 134.44 144.26 134.83 145.10 C 135.22 145.94 136.22 146.31 137.06 145.92 Z M 137.97 145.49 L 138.87 145.06 C 139.70 144.67 140.06 143.68 139.67 142.84 C 139.27 142.01 138.28 141.65 137.45 142.04 L 136.54 142.47 C 135.71 142.86 135.35 143.86 135.74 144.69 C 136.14 145.53 137.13 145.88 137.97 145.49 Z M 138.87 145.06 L 139.78 144.63 C 140.60 144.23 140.96 143.24 140.57 142.41 C 140.17 141.58 139.18 141.23 138.35 141.62 L 137.45 142.05 C 136.62 142.45 136.26 143.44 136.65 144.27 C 137.05 145.10 138.04 145.45 138.87 145.06 Z M 139.77 144.62 L 140.69 144.19 C 141.51 143.80 141.87 142.81 141.48 141.99 C 141.09 141.16 140.10 140.81 139.28 141.20 L 138.36 141.63 C 137.53 142.02 137.18 143.00 137.57 143.83 C 137.96 144.66 138.94 145.01 139.77 144.62 Z M 140.68 144.19 L 141.61 143.75 C 142.43 143.36 142.79 142.38 142.40 141.56 C 142.02 140.73 141.03 140.38 140.21 140.76 L 139.28 141.20 C 138.46 141.59 138.10 142.57 138.49 143.39 C 138.88 144.22 139.86 144.57 140.68 144.19 Z M 141.61 143.74 L 142.53 143.31 C 143.35 142.92 143.70 141.94 143.31 141.12 C 142.92 140.30 141.94 139.95 141.12 140.34 L 140.21 140.77 C 139.38 141.16 139.03 142.14 139.42 142.96 C 139.81 143.78 140.79 144.13 141.61 143.74 Z M 142.54 143.30 L 143.42 142.88 C 144.23 142.48 144.58 141.50 144.18 140.68 C 143.79 139.87 142.80 139.53 141.99 139.92 L 141.11 140.35 C 140.29 140.74 139.95 141.72 140.35 142.54 C 140.74 143.36 141.72 143.70 142.54 143.30 Z M 143.44 142.86 L 144.30 142.43 C 145.11 142.02 145.43 141.04 145.02 140.23 C 144.62 139.42 143.63 139.10 142.82 139.50 L 141.97 139.94 C 141.16 140.34 140.83 141.33 141.24 142.14 C 141.65 142.94 142.63 143.27 143.44 142.86 Z M 144.32 142.42 L 145.17 141.97 C 145.97 141.55 146.28 140.56 145.85 139.76 C 145.43 138.96 144.44 138.65 143.64 139.07 L 142.80 139.52 C 142.00 139.94 141.69 140.93 142.11 141.73 C 142.53 142.53 143.52 142.84 144.32 142.42 Z M 145.19 141.96 L 146.06 141.48 C 146.86 141.05 147.15 140.06 146.72 139.26 C 146.28 138.47 145.29 138.18 144.49 138.61 L 143.62 139.08 C 142.83 139.52 142.54 140.51 142.97 141.31 C 143.40 142.10 144.40 142.39 145.19 141.96 Z M 146.07 141.48 L 146.99 140.97 C 147.78 140.53 148.07 139.53 147.63 138.74 C 147.19 137.95 146.19 137.67 145.40 138.11 L 144.48 138.61 C 143.69 139.05 143.41 140.05 143.85 140.84 C 144.29 141.63 145.28 141.92 146.07 141.48 Z M 146.99 140.96 L 147.80 140.52 C 148.59 140.07 148.87 139.08 148.43 138.29 C 147.98 137.50 146.99 137.22 146.20 137.66 L 145.40 138.11 C 144.61 138.55 144.33 139.55 144.77 140.34 C 145.21 141.12 146.21 141.41 146.99 140.96 Z M 147.80 140.52 L 148.66 140.03 C 149.45 139.59 149.73 138.59 149.28 137.80 C 148.84 137.02 147.84 136.74 147.06 137.18 L 146.20 137.66 C 145.41 138.10 145.13 139.10 145.57 139.89 C 146.01 140.68 147.01 140.96 147.80 140.52 Z M 148.66 140.03 L 149.56 139.53 C 150.35 139.08 150.63 138.09 150.18 137.30 C 149.74 136.51 148.74 136.23 147.95 136.67 L 147.05 137.18 C 146.27 137.62 145.99 138.62 146.43 139.41 C 146.87 140.20 147.87 140.48 148.66 140.03 Z M 149.56 139.53 L 150.48 139.01 C 151.27 138.56 151.55 137.57 151.11 136.78 C 150.66 135.99 149.66 135.71 148.88 136.15 L 147.95 136.67 C 147.17 137.12 146.89 138.11 147.33 138.90 C 147.77 139.69 148.77 139.97 149.56 139.53 Z M 150.48 139.01 L 150.85 138.80 C 151.64 138.36 151.92 137.36 151.47 136.57 C 151.03 135.78 150.03 135.50 149.25 135.95 L 148.88 136.15 C 148.09 136.60 147.81 137.60 148.25 138.38 C 148.70 139.17 149.69 139.45 150.48 139.01 Z"
      fill="black"
      fill-rule="nonzero" /><path d="M 135.78 134.41 L 135.19 135.15 C 134.57 135.93 134.71 137.06 135.49 137.67 C 136.26 138.28 137.39 138.15 138.00 137.37 L 138.59 136.62 C 139.21 135.85 139.07 134.72 138.29 134.11 C 137.51 133.49 136.39 133.63 135.78 134.41 Z M 135.17 135.17 L 134.58 135.94 C 133.98 136.73 134.13 137.86 134.92 138.46 C 135.71 139.06 136.84 138.91 137.44 138.12 L 138.02 137.35 C 138.62 136.56 138.47 135.44 137.68 134.84 C 136.90 134.23 135.77 134.39 135.17 135.17 Z M 134.55 135.99 L 133.96 136.80 C 133.39 137.61 133.57 138.73 134.38 139.31 C 135.18 139.89 136.31 139.70 136.89 138.89 L 137.47 138.08 C 138.05 137.27 137.86 136.15 137.06 135.57 C 136.25 134.99 135.13 135.18 134.55 135.99 Z M 133.92 136.86 L 133.34 137.74 C 132.80 138.57 133.03 139.68 133.86 140.23 C 134.69 140.78 135.81 140.55 136.35 139.71 L 136.93 138.84 C 137.48 138.00 137.25 136.89 136.41 136.34 C 135.58 135.80 134.47 136.03 133.92 136.86 Z M 133.30 137.80 L 132.79 138.65 C 132.28 139.51 132.56 140.62 133.42 141.13 C 134.27 141.64 135.38 141.36 135.89 140.50 L 136.40 139.65 C 136.91 138.79 136.63 137.68 135.77 137.17 C 134.91 136.66 133.81 136.95 133.30 137.80 Z M 132.74 138.71 L 132.27 139.58 C 131.79 140.46 132.12 141.56 133.00 142.04 C 133.88 142.52 134.98 142.19 135.46 141.31 L 135.93 140.44 C 136.41 139.56 136.09 138.46 135.21 137.98 C 134.33 137.50 133.22 137.83 132.74 138.71 Z M 132.23 139.63 L 131.78 140.54 C 131.33 141.44 131.70 142.54 132.60 142.99 C 133.50 143.44 134.60 143.07 135.05 142.17 L 135.50 141.26 C 135.95 140.36 135.59 139.26 134.68 138.81 C 133.78 138.36 132.68 138.73 132.23 139.63 Z M 131.75 140.59 L 131.32 141.52 C 130.90 142.44 131.30 143.53 132.23 143.95 C 133.15 144.37 134.24 143.97 134.66 143.04 L 135.09 142.12 C 135.51 141.19 135.10 140.10 134.18 139.68 C 133.26 139.26 132.17 139.66 131.75 140.59 Z M 131.28 141.57 L 130.90 142.51 C 130.50 143.45 130.95 144.53 131.89 144.92 C 132.83 145.32 133.92 144.87 134.31 143.93 L 134.70 142.99 C 135.09 142.05 134.64 140.97 133.70 140.57 C 132.76 140.18 131.68 140.63 131.28 141.57 Z M 130.86 142.57 L 130.52 143.49 C 130.16 144.45 130.65 145.52 131.61 145.88 C 132.57 146.24 133.64 145.75 134.00 144.79 L 134.34 143.87 C 134.70 142.91 134.21 141.84 133.25 141.48 C 132.29 141.12 131.22 141.61 130.86 142.57 Z M 130.49 143.56 L 130.19 144.48 C 129.87 145.45 130.40 146.50 131.37 146.82 C 132.35 147.15 133.40 146.62 133.72 145.64 L 134.02 144.72 C 134.34 143.75 133.81 142.70 132.84 142.38 C 131.86 142.05 130.81 142.58 130.49 143.56 Z M 130.17 144.54 L 129.90 145.48 C 129.61 146.46 130.18 147.49 131.17 147.78 C 132.16 148.06 133.19 147.49 133.47 146.51 L 133.74 145.57 C 134.02 144.59 133.45 143.56 132.47 143.27 C 131.48 142.99 130.45 143.56 130.17 144.54 Z M 129.88 145.54 L 129.64 146.51 C 129.39 147.50 130.00 148.51 130.99 148.76 C 131.99 149.01 133.00 148.41 133.25 147.41 L 133.49 146.44 C 133.74 145.45 133.13 144.44 132.14 144.19 C 131.14 143.94 130.13 144.55 129.88 145.54 Z M 129.63 146.56 L 129.41 147.58 C 129.19 148.58 129.82 149.57 130.83 149.79 C 131.83 150.01 132.82 149.37 133.04 148.37 L 133.26 147.35 C 133.48 146.35 132.84 145.36 131.84 145.14 C 130.84 144.92 129.84 145.56 129.63 146.56 Z M 129.40 147.62 L 129.21 148.62 C 129.01 149.62 129.67 150.60 130.68 150.79 C 131.69 150.99 132.66 150.33 132.86 149.32 L 133.05 148.33 C 133.24 147.32 132.58 146.34 131.57 146.15 C 130.57 145.96 129.59 146.62 129.40 147.62 Z M 129.20 148.65 L 129.03 149.62 C 128.86 150.63 129.53 151.59 130.54 151.77 C 131.55 151.94 132.51 151.27 132.69 150.26 L 132.86 149.29 C 133.04 148.28 132.36 147.32 131.35 147.14 C 130.34 146.96 129.38 147.64 129.20 148.65 Z M 129.03 149.64 L 128.87 150.64 C 128.71 151.66 129.39 152.61 130.41 152.77 C 131.42 152.93 132.37 152.24 132.53 151.23 L 132.69 150.23 C 132.85 149.22 132.17 148.27 131.16 148.11 C 130.14 147.95 129.19 148.63 129.03 149.64 Z M 128.87 150.66 L 128.72 151.68 C 128.57 152.69 129.26 153.63 130.27 153.78 C 131.28 153.93 132.23 153.24 132.38 152.23 L 132.53 151.21 C 132.68 150.20 131.99 149.26 130.97 149.11 C 129.96 148.96 129.02 149.65 128.87 150.66 Z M 128.72 151.69 L 128.57 152.70 C 128.43 153.71 129.14 154.65 130.15 154.79 C 131.16 154.93 132.09 154.23 132.24 153.22 L 132.38 152.21 C 132.52 151.20 131.82 150.26 130.81 150.12 C 129.80 149.98 128.86 150.68 128.72 151.69 Z M 128.57 152.72 L 128.44 153.70 C 128.31 154.72 129.02 155.64 130.03 155.78 C 131.04 155.91 131.97 155.20 132.10 154.19 L 132.24 153.21 C 132.37 152.19 131.66 151.26 130.65 151.13 C 129.64 150.99 128.71 151.70 128.57 152.72 Z M 128.45 153.72 L 128.32 154.74 C 128.19 155.75 128.90 156.67 129.91 156.80 C 130.92 156.93 131.84 156.21 131.97 155.20 L 132.10 154.18 C 132.23 153.17 131.52 152.25 130.51 152.12 C 129.50 151.99 128.57 152.71 128.45 153.72 Z M 128.32 154.75 L 128.20 155.78 C 128.08 156.79 128.80 157.70 129.80 157.82 C 130.80 157.94 131.72 157.22 131.84 156.22 L 131.96 155.19 C 132.08 154.19 131.37 153.27 130.36 153.15 C 129.36 153.03 128.45 153.75 128.32 154.75 Z M 128.21 155.80 L 128.10 156.79 C 127.99 157.79 128.70 158.69 129.70 158.80 C 130.70 158.91 131.60 158.20 131.72 157.20 L 131.83 156.21 C 131.94 155.21 131.22 154.31 130.22 154.19 C 129.23 154.08 128.32 154.80 128.21 155.80 Z M 128.11 156.80 L 128.01 157.77 C 127.90 158.77 128.62 159.66 129.61 159.76 C 130.61 159.87 131.50 159.15 131.60 158.15 L 131.70 157.18 C 131.81 156.19 131.09 155.30 130.10 155.20 C 129.10 155.09 128.21 155.81 128.11 156.80 Z M 128.02 157.79 L 127.92 158.75 C 127.82 159.74 128.55 160.62 129.53 160.71 C 130.52 160.81 131.40 160.09 131.50 159.10 L 131.59 158.14 C 131.69 157.15 130.97 156.27 129.98 156.18 C 128.99 156.08 128.11 156.80 128.02 157.79 Z M 127.93 158.76 L 127.85 159.70 C 127.76 160.68 128.48 161.55 129.46 161.64 C 130.44 161.73 131.31 161.01 131.40 160.03 L 131.49 159.09 C 131.58 158.11 130.85 157.24 129.87 157.15 C 128.89 157.06 128.02 157.78 127.93 158.76 Z M 127.86 159.71 L 127.78 160.61 C 127.69 161.58 128.42 162.44 129.39 162.53 C 130.37 162.61 131.22 161.89 131.31 160.92 L 131.39 160.02 C 131.47 159.04 130.75 158.19 129.78 158.10 C 128.80 158.02 127.94 158.74 127.86 159.71 Z M 127.79 160.61 L 127.71 161.54 C 127.63 162.51 128.35 163.36 129.32 163.44 C 130.29 163.53 131.14 162.81 131.22 161.84 L 131.30 160.91 C 131.38 159.94 130.66 159.09 129.69 159.01 C 128.72 158.93 127.87 159.64 127.79 160.61 Z M 127.72 161.54 L 127.64 162.51 C 127.56 163.48 128.27 164.32 129.23 164.40 C 130.20 164.49 131.04 163.77 131.13 162.81 L 131.21 161.84 C 131.29 160.87 130.58 160.03 129.61 159.95 C 128.65 159.86 127.80 160.58 127.72 161.54 Z M 127.65 162.51 L 127.56 163.54 C 127.48 164.50 128.19 165.34 129.14 165.42 C 130.10 165.51 130.94 164.80 131.02 163.84 L 131.11 162.81 C 131.20 161.86 130.49 161.01 129.53 160.93 C 128.58 160.85 127.73 161.55 127.65 162.51 Z M 127.57 163.54 L 127.47 164.64 C 127.39 165.59 128.09 166.43 129.04 166.52 C 129.99 166.60 130.83 165.90 130.91 164.95 L 131.01 163.85 C 131.10 162.90 130.40 162.06 129.45 161.97 C 128.50 161.89 127.66 162.59 127.57 163.54 Z M 127.48 164.63 L 127.38 165.69 C 127.29 166.63 127.98 167.47 128.93 167.56 C 129.87 167.65 130.71 166.96 130.80 166.02 L 130.90 164.96 C 130.99 164.02 130.30 163.18 129.36 163.09 C 128.41 163.00 127.57 163.69 127.48 164.63 Z M 127.39 165.68 L 127.29 166.67 C 127.20 167.61 127.88 168.45 128.82 168.54 C 129.76 168.63 130.60 167.95 130.69 167.01 L 130.79 166.02 C 130.88 165.09 130.20 164.25 129.26 164.15 C 128.32 164.06 127.49 164.74 127.39 165.68 Z M 127.30 166.66 L 127.19 167.68 C 127.10 168.62 127.78 169.45 128.71 169.55 C 129.64 169.65 130.48 168.97 130.58 168.04 L 130.68 167.02 C 130.78 166.08 130.10 165.25 129.17 165.15 C 128.23 165.05 127.40 165.73 127.30 166.66 Z M 127.20 167.68 L 127.09 168.71 C 126.99 169.64 127.66 170.47 128.59 170.57 C 129.52 170.68 130.36 170.00 130.46 169.07 L 130.57 168.04 C 130.67 167.11 130.00 166.28 129.07 166.18 C 128.14 166.08 127.30 166.75 127.20 167.68 Z M 127.10 168.70 L 126.98 169.73 C 126.88 170.66 127.54 171.49 128.47 171.60 C 129.39 171.70 130.23 171.03 130.33 170.11 L 130.45 169.08 C 130.55 168.16 129.89 167.32 128.96 167.22 C 128.04 167.11 127.20 167.78 127.10 168.70 Z M 126.99 169.73 L 126.87 170.74 C 126.77 171.66 127.42 172.49 128.34 172.60 C 129.26 172.70 130.10 172.05 130.20 171.13 L 130.32 170.12 C 130.43 169.20 129.77 168.36 128.85 168.26 C 127.93 168.15 127.10 168.81 126.99 169.73 Z M 126.88 170.73 L 126.76 171.70 C 126.65 172.61 127.30 173.45 128.22 173.56 C 129.13 173.67 129.97 173.02 130.08 172.10 L 130.20 171.13 C 130.31 170.22 129.66 169.39 128.74 169.27 C 127.83 169.16 126.99 169.81 126.88 170.73 Z M 126.77 171.69 L 126.65 172.65 C 126.53 173.56 127.17 174.39 128.08 174.51 C 129.00 174.62 129.83 173.98 129.95 173.07 L 130.07 172.11 C 130.19 171.20 129.54 170.37 128.63 170.25 C 127.72 170.14 126.89 170.78 126.77 171.69 Z M 126.66 172.63 L 126.50 173.74 C 126.38 174.64 127.01 175.48 127.91 175.61 C 128.82 175.73 129.66 175.10 129.78 174.19 L 129.94 173.09 C 130.06 172.18 129.43 171.35 128.53 171.22 C 127.62 171.09 126.78 171.72 126.66 172.63 Z M 126.51 173.71 L 126.35 174.72 C 126.21 175.63 126.83 176.47 127.73 176.61 C 128.63 176.75 129.47 176.14 129.62 175.24 L 129.78 174.22 C 129.92 173.32 129.30 172.48 128.40 172.33 C 127.50 172.19 126.65 172.81 126.51 173.71 Z M 126.36 174.68 L 126.19 175.64 C 126.02 176.53 126.62 177.39 127.51 177.55 C 128.41 177.72 129.27 177.12 129.43 176.23 L 129.60 175.28 C 129.77 174.38 129.17 173.52 128.28 173.36 C 127.38 173.20 126.53 173.79 126.36 174.68 Z M 126.20 175.59 L 126.01 176.51 C 125.82 177.39 126.38 178.27 127.27 178.46 C 128.16 178.65 129.03 178.08 129.22 177.19 L 129.42 176.28 C 129.61 175.39 129.04 174.51 128.15 174.32 C 127.27 174.14 126.39 174.70 126.20 175.59 Z M 126.02 176.45 L 125.79 177.37 C 125.58 178.24 126.11 179.13 126.99 179.35 C 127.87 179.57 128.76 179.04 128.98 178.16 L 129.21 177.25 C 129.42 176.37 128.89 175.48 128.01 175.26 C 127.13 175.04 126.24 175.57 126.02 176.45 Z M 125.81 177.31 L 125.55 178.22 C 125.31 179.09 125.81 180.00 126.68 180.24 C 127.55 180.49 128.46 179.99 128.70 179.12 L 128.96 178.21 C 129.21 177.34 128.70 176.43 127.83 176.19 C 126.96 175.94 126.06 176.44 125.81 177.31 Z M 125.57 178.18 L 125.28 179.09 C 125.01 179.96 125.49 180.87 126.35 181.14 C 127.21 181.42 128.13 180.94 128.40 180.07 L 128.69 179.16 C 128.96 178.30 128.48 177.38 127.62 177.11 C 126.76 176.84 125.84 177.31 125.57 178.18 Z M 125.29 179.06 L 124.97 180.00 C 124.69 180.86 125.15 181.78 126.00 182.07 C 126.86 182.36 127.79 181.90 128.08 181.04 L 128.39 180.11 C 128.68 179.25 128.22 178.32 127.36 178.03 C 126.51 177.74 125.58 178.20 125.29 179.06 Z M 124.98 179.98 L 124.65 180.93 C 124.34 181.78 124.79 182.72 125.64 183.02 C 126.50 183.32 127.43 182.87 127.73 182.02 L 128.07 181.07 C 128.37 180.21 127.92 179.28 127.07 178.98 C 126.22 178.68 125.28 179.12 124.98 179.98 Z M 124.65 180.92 L 124.30 181.88 C 123.99 182.73 124.43 183.67 125.28 183.98 C 126.13 184.29 127.07 183.85 127.37 183.00 L 127.73 182.04 C 128.04 181.19 127.60 180.25 126.75 179.94 C 125.90 179.63 124.96 180.07 124.65 180.92 Z M 124.30 181.87 L 123.94 182.85 C 123.63 183.70 124.06 184.64 124.91 184.95 C 125.76 185.27 126.70 184.83 127.01 183.99 L 127.37 183.01 C 127.69 182.16 127.25 181.22 126.41 180.91 C 125.56 180.59 124.62 181.03 124.30 181.87 Z M 123.94 182.85 L 123.85 183.10 C 123.53 183.95 123.96 184.89 124.81 185.21 C 125.66 185.52 126.60 185.09 126.92 184.24 L 127.01 183.99 C 127.33 183.14 126.89 182.20 126.05 181.88 C 125.20 181.57 124.26 182.00 123.94 182.85 Z"
      fill="black"
      fill-rule="nonzero" /><path d="M 134.74 160.22 L 135.54 160.75 C 136.36 161.29 137.47 161.06 138.01 160.24 C 138.55 159.42 138.32 158.31 137.50 157.77 L 136.71 157.24 C 135.89 156.70 134.78 156.93 134.24 157.75 C 133.69 158.57 133.92 159.68 134.74 160.22 Z M 135.48 160.73 L 136.28 161.29 C 137.09 161.86 138.21 161.67 138.79 160.85 C 139.36 160.04 139.16 158.91 138.35 158.34 L 137.56 157.78 C 136.74 157.21 135.62 157.40 135.05 158.22 C 134.47 159.03 134.67 160.16 135.48 160.73 Z M 136.18 161.24 L 136.98 161.87 C 137.76 162.49 138.91 162.36 139.53 161.57 C 140.16 160.79 140.03 159.64 139.24 159.02 L 138.44 158.39 C 137.66 157.76 136.51 157.90 135.89 158.68 C 135.26 159.47 135.39 160.62 136.18 161.24 Z M 136.86 161.79 L 137.63 162.50 C 138.38 163.19 139.54 163.14 140.23 162.40 C 140.91 161.65 140.87 160.49 140.12 159.80 L 139.35 159.09 C 138.61 158.41 137.44 158.45 136.76 159.20 C 136.07 159.94 136.12 161.11 136.86 161.79 Z M 137.54 162.42 L 138.18 163.10 C 138.88 163.84 140.04 163.87 140.78 163.17 C 141.52 162.47 141.56 161.31 140.86 160.56 L 140.22 159.89 C 139.52 159.15 138.35 159.11 137.61 159.81 C 136.87 160.51 136.84 161.68 137.54 162.42 Z M 138.12 163.04 L 138.77 163.78 C 139.44 164.55 140.60 164.63 141.37 163.97 C 142.14 163.30 142.22 162.13 141.55 161.36 L 140.91 160.62 C 140.24 159.85 139.08 159.77 138.31 160.44 C 137.54 161.11 137.46 162.27 138.12 163.04 Z M 138.74 163.75 L 139.40 164.54 C 140.05 165.32 141.21 165.43 142.00 164.78 C 142.78 164.12 142.89 162.96 142.23 162.18 L 141.58 161.39 C 140.93 160.61 139.76 160.50 138.98 161.15 C 138.20 161.81 138.09 162.97 138.74 163.75 Z M 139.39 164.53 L 140.05 165.34 C 140.70 166.12 141.87 166.24 142.65 165.59 C 143.44 164.94 143.55 163.78 142.90 162.99 L 142.24 162.18 C 141.59 161.40 140.43 161.28 139.64 161.93 C 138.85 162.58 138.74 163.74 139.39 164.53 Z M 140.07 165.35 L 140.74 166.15 C 141.40 166.93 142.56 167.03 143.34 166.37 C 144.12 165.72 144.22 164.55 143.56 163.77 L 142.89 162.98 C 142.23 162.20 141.07 162.10 140.29 162.75 C 139.51 163.41 139.41 164.57 140.07 165.35 Z M 140.77 166.17 L 141.44 166.94 C 142.11 167.71 143.27 167.79 144.03 167.12 C 144.80 166.45 144.88 165.29 144.21 164.53 L 143.54 163.76 C 142.87 162.99 141.71 162.91 140.94 163.58 C 140.18 164.24 140.10 165.40 140.77 166.17 Z M 141.47 166.96 L 142.15 167.71 C 142.82 168.46 143.98 168.52 144.73 167.85 C 145.48 167.17 145.54 166.02 144.86 165.27 L 144.18 164.52 C 143.51 163.77 142.35 163.71 141.61 164.38 C 140.86 165.05 140.80 166.21 141.47 166.96 Z M 142.17 167.72 L 142.85 168.46 C 143.53 169.19 144.68 169.24 145.41 168.56 C 146.15 167.88 146.20 166.73 145.52 166.00 L 144.84 165.26 C 144.16 164.53 143.01 164.48 142.28 165.16 C 141.54 165.84 141.49 166.99 142.17 167.72 Z M 142.87 168.46 L 143.54 169.17 C 144.22 169.89 145.36 169.93 146.09 169.24 C 146.81 168.56 146.84 167.42 146.16 166.70 L 145.49 165.99 C 144.81 165.27 143.67 165.23 142.95 165.92 C 142.22 166.60 142.19 167.74 142.87 168.46 Z M 143.56 169.17 L 144.26 169.90 C 144.95 170.61 146.08 170.64 146.79 169.95 C 147.50 169.27 147.52 168.14 146.84 167.43 L 146.14 166.70 C 145.46 165.99 144.33 165.96 143.61 166.65 C 142.90 167.33 142.88 168.46 143.56 169.17 Z M 144.29 169.90 L 145.02 170.64 C 145.70 171.34 146.82 171.36 147.52 170.68 C 148.21 169.99 148.23 168.88 147.55 168.18 L 146.82 167.43 C 146.14 166.73 145.02 166.72 144.32 167.40 C 143.62 168.08 143.61 169.20 144.29 169.90 Z M 145.05 170.64 L 145.75 171.35 C 146.43 172.03 147.53 172.04 148.21 171.36 C 148.90 170.68 148.90 169.58 148.22 168.89 L 147.52 168.19 C 146.84 167.50 145.74 167.50 145.06 168.18 C 144.37 168.85 144.37 169.96 145.05 170.64 Z M 145.78 171.34 L 146.46 172.02 C 147.13 172.69 148.22 172.68 148.89 172.01 C 149.56 171.34 149.55 170.25 148.88 169.58 L 148.20 168.90 C 147.52 168.23 146.44 168.24 145.77 168.91 C 145.10 169.58 145.10 170.67 145.78 171.34 Z M 146.48 172.01 L 147.15 172.67 C 147.82 173.32 148.89 173.31 149.55 172.64 C 150.20 171.97 150.19 170.90 149.52 170.24 L 148.86 169.59 C 148.19 168.93 147.11 168.95 146.46 169.61 C 145.80 170.28 145.81 171.36 146.48 172.01 Z M 147.17 172.66 L 147.85 173.31 C 148.51 173.96 149.58 173.94 150.22 173.27 C 150.86 172.60 150.84 171.54 150.18 170.89 L 149.50 170.25 C 148.84 169.60 147.77 169.62 147.13 170.29 C 146.49 170.96 146.51 172.02 147.17 172.66 Z M 147.87 173.32 L 148.57 173.98 C 149.24 174.61 150.30 174.57 150.93 173.90 C 151.56 173.23 151.52 172.18 150.85 171.55 L 150.15 170.89 C 149.48 170.26 148.43 170.29 147.80 170.96 C 147.17 171.63 147.20 172.69 147.87 173.32 Z M 148.60 173.98 L 149.35 174.67 C 150.03 175.29 151.07 175.24 151.69 174.57 C 152.31 173.89 152.26 172.84 151.58 172.23 L 150.83 171.54 C 150.15 170.92 149.10 170.97 148.49 171.65 C 147.87 172.32 147.92 173.37 148.60 173.98 Z M 149.38 174.68 L 150.19 175.40 C 150.87 176.00 151.91 175.93 152.51 175.25 C 153.11 174.57 153.05 173.53 152.36 172.93 L 151.56 172.22 C 150.88 171.62 149.84 171.68 149.23 172.36 C 148.63 173.04 148.70 174.08 149.38 174.68 Z M 150.21 175.41 L 150.89 176.00 C 151.58 176.59 152.61 176.51 153.20 175.83 C 153.80 175.14 153.72 174.10 153.03 173.51 L 152.35 172.92 C 151.66 172.33 150.62 172.41 150.03 173.09 C 149.44 173.78 149.52 174.82 150.21 175.41 Z M 150.90 176.01 L 151.64 176.63 C 152.33 177.21 153.36 177.13 153.95 176.44 C 154.53 175.75 154.45 174.71 153.76 174.13 L 153.02 173.51 C 152.33 172.92 151.30 173.00 150.71 173.69 C 150.13 174.38 150.21 175.42 150.90 176.01 Z M 151.64 176.63 L 152.42 177.28 C 153.11 177.87 154.14 177.78 154.73 177.08 C 155.31 176.39 155.22 175.36 154.52 174.77 L 153.75 174.12 C 153.06 173.54 152.02 173.63 151.44 174.33 C 150.86 175.02 150.95 176.05 151.64 176.63 Z M 152.42 177.29 L 153.22 177.96 C 153.92 178.53 154.95 178.44 155.53 177.75 C 156.11 177.05 156.02 176.02 155.32 175.44 L 154.52 174.77 C 153.83 174.19 152.79 174.29 152.21 174.98 C 151.63 175.68 151.73 176.71 152.42 177.29 Z M 153.23 177.96 L 154.05 178.64 C 154.74 179.21 155.77 179.12 156.35 178.42 C 156.93 177.73 156.83 176.69 156.14 176.12 L 155.32 175.44 C 154.62 174.86 153.59 174.96 153.01 175.65 C 152.44 176.35 152.53 177.38 153.23 177.96 Z M 154.05 178.64 L 154.44 178.96 C 155.14 179.54 156.17 179.44 156.75 178.75 C 157.32 178.05 157.23 177.02 156.53 176.44 L 156.14 176.12 C 155.44 175.54 154.41 175.64 153.83 176.33 C 153.25 177.03 153.35 178.06 154.05 178.64 Z"
      fill="black"
      fill-rule="nonzero" /><path d="M 154.83 103.45 L 155.74 103.00 C 156.64 102.55 157.00 101.46 156.56 100.57 C 156.11 99.67 155.02 99.30 154.12 99.74 L 153.22 100.19 C 152.32 100.64 151.95 101.73 152.40 102.63 C 152.84 103.52 153.93 103.89 154.83 103.45 Z M 155.71 103.03 L 156.62 102.61 C 157.53 102.18 157.93 101.09 157.50 100.17 C 157.07 99.25 155.98 98.86 155.06 99.28 L 154.15 99.71 C 153.24 100.14 152.84 101.23 153.27 102.15 C 153.70 103.07 154.79 103.46 155.71 103.03 Z M 156.54 102.66 L 157.46 102.28 C 158.41 101.89 158.86 100.81 158.47 99.86 C 158.08 98.92 157.00 98.47 156.05 98.86 L 155.13 99.23 C 154.19 99.62 153.74 100.71 154.13 101.65 C 154.52 102.60 155.60 103.05 156.54 102.66 Z M 157.34 102.33 L 158.26 102.02 C 159.23 101.70 159.76 100.65 159.43 99.68 C 159.11 98.70 158.06 98.18 157.09 98.50 L 156.17 98.81 C 155.20 99.13 154.67 100.19 155.00 101.16 C 155.32 102.13 156.37 102.65 157.34 102.33 Z M 158.14 102.04 L 159.08 101.79 C 160.06 101.53 160.65 100.53 160.39 99.55 C 160.13 98.57 159.13 97.98 158.15 98.24 L 157.21 98.49 C 156.22 98.75 155.64 99.75 155.90 100.73 C 156.16 101.71 157.16 102.30 158.14 102.04 Z M 159.00 101.79 L 159.99 101.57 C 160.97 101.36 161.59 100.40 161.38 99.42 C 161.17 98.44 160.21 97.82 159.23 98.03 L 158.23 98.24 C 157.26 98.45 156.63 99.42 156.84 100.40 C 157.06 101.38 158.02 102.00 159.00 101.79 Z M 159.95 101.56 L 160.92 101.37 C 161.90 101.19 162.53 100.25 162.35 99.28 C 162.16 98.31 161.23 97.67 160.26 97.86 L 159.28 98.04 C 158.31 98.23 157.67 99.16 157.85 100.14 C 158.04 101.11 158.97 101.75 159.95 101.56 Z M 160.90 101.36 L 161.85 101.19 C 162.81 101.02 163.45 100.10 163.28 99.13 C 163.11 98.17 162.19 97.53 161.22 97.70 L 160.28 97.87 C 159.31 98.04 158.67 98.96 158.84 99.93 C 159.02 100.89 159.94 101.53 160.90 101.36 Z M 161.84 101.18 L 162.83 101.01 C 163.78 100.84 164.43 99.93 164.26 98.97 C 164.09 98.01 163.18 97.37 162.22 97.54 L 161.23 97.71 C 160.27 97.88 159.63 98.79 159.80 99.75 C 159.97 100.71 160.88 101.35 161.84 101.18 Z M 162.82 101.00 L 163.85 100.82 C 164.80 100.65 165.44 99.75 165.28 98.80 C 165.11 97.85 164.21 97.21 163.26 97.37 L 162.23 97.55 C 161.28 97.72 160.64 98.62 160.80 99.57 C 160.97 100.52 161.87 101.16 162.82 101.00 Z M 163.85 100.80 L 164.86 100.63 C 165.80 100.46 166.43 99.57 166.27 98.62 C 166.10 97.68 165.21 97.05 164.26 97.21 L 163.25 97.39 C 162.31 97.55 161.68 98.45 161.84 99.39 C 162.01 100.34 162.91 100.97 163.85 100.80 Z M 164.86 100.61 L 165.84 100.44 C 166.78 100.28 167.40 99.38 167.24 98.45 C 167.07 97.51 166.18 96.89 165.24 97.05 L 164.26 97.23 C 163.32 97.39 162.70 98.28 162.87 99.22 C 163.03 100.16 163.92 100.78 164.86 100.61 Z M 165.84 100.43 L 166.83 100.25 C 167.76 100.09 168.38 99.20 168.21 98.27 C 168.05 97.34 167.16 96.72 166.23 96.89 L 165.24 97.06 C 164.31 97.23 163.70 98.12 163.86 99.05 C 164.03 99.97 164.91 100.59 165.84 100.43 Z M 166.83 100.24 L 167.82 100.06 C 168.74 99.90 169.35 99.02 169.19 98.10 C 169.03 97.18 168.15 96.56 167.23 96.73 L 166.24 96.90 C 165.32 97.06 164.70 97.94 164.86 98.86 C 165.03 99.79 165.91 100.40 166.83 100.24 Z M 167.81 100.05 L 168.79 99.88 C 169.71 99.72 170.32 98.85 170.16 97.94 C 170.01 97.02 169.14 96.41 168.22 96.57 L 167.24 96.74 C 166.32 96.90 165.71 97.77 165.87 98.68 C 166.02 99.60 166.90 100.21 167.81 100.05 Z M 168.78 99.87 L 169.76 99.71 C 170.67 99.56 171.29 98.70 171.13 97.79 C 170.98 96.88 170.12 96.26 169.21 96.41 L 168.23 96.58 C 167.32 96.73 166.71 97.59 166.86 98.50 C 167.01 99.41 167.87 100.03 168.78 99.87 Z M 169.74 99.70 L 170.72 99.55 C 171.63 99.41 172.25 98.55 172.10 97.65 C 171.96 96.74 171.11 96.12 170.20 96.26 L 169.22 96.42 C 168.32 96.56 167.70 97.41 167.84 98.32 C 167.99 99.23 168.84 99.85 169.74 99.70 Z M 170.70 99.54 L 171.69 99.40 C 172.59 99.27 173.22 98.43 173.09 97.53 C 172.95 96.62 172.11 96.00 171.21 96.13 L 170.22 96.27 C 169.32 96.40 168.69 97.24 168.82 98.15 C 168.96 99.05 169.80 99.68 170.70 99.54 Z M 171.66 99.40 L 172.67 99.26 C 173.57 99.15 174.21 98.32 174.09 97.42 C 173.97 96.52 173.15 95.88 172.25 96.00 L 171.24 96.13 C 170.34 96.25 169.70 97.07 169.82 97.98 C 169.93 98.88 170.76 99.51 171.66 99.40 Z M 172.64 99.26 L 173.61 99.15 C 174.51 99.05 175.16 98.24 175.06 97.34 C 174.96 96.44 174.14 95.79 173.24 95.89 L 172.27 96.00 C 171.37 96.10 170.73 96.92 170.83 97.82 C 170.93 98.72 171.74 99.36 172.64 99.26 Z M 173.59 99.15 L 174.58 99.05 C 175.48 98.96 176.13 98.16 176.04 97.26 C 175.95 96.36 175.15 95.70 174.25 95.79 L 173.26 95.89 C 172.36 95.98 171.71 96.79 171.80 97.69 C 171.89 98.59 172.69 99.24 173.59 99.15 Z M 174.56 99.05 L 175.56 98.96 C 176.46 98.88 177.13 98.08 177.04 97.18 C 176.96 96.28 176.16 95.62 175.26 95.70 L 174.26 95.79 C 173.36 95.87 172.70 96.67 172.78 97.57 C 172.86 98.47 173.66 99.14 174.56 99.05 Z M 175.55 98.96 L 176.57 98.88 C 177.47 98.80 178.14 98.00 178.06 97.10 C 177.98 96.20 177.19 95.53 176.29 95.61 L 175.27 95.70 C 174.37 95.78 173.70 96.57 173.78 97.47 C 173.86 98.37 174.65 99.04 175.55 98.96 Z M 176.56 98.88 L 177.37 98.81 C 178.27 98.73 178.94 97.94 178.87 97.04 C 178.79 96.14 178.00 95.47 177.10 95.54 L 176.29 95.61 C 175.39 95.69 174.72 96.48 174.80 97.38 C 174.87 98.28 175.66 98.95 176.56 98.88 Z"
      fill="black"
      fill-rule="nonzero" /><path d="M 158.28 116.27 L 158.12 117.23 C 157.97 118.18 158.62 119.07 159.57 119.22 C 160.51 119.38 161.40 118.73 161.56 117.78 L 161.71 116.82 C 161.86 115.87 161.22 114.98 160.27 114.83 C 159.32 114.68 158.43 115.32 158.28 116.27 Z M 158.12 117.23 L 157.97 118.21 C 157.81 119.16 158.46 120.05 159.41 120.20 C 160.35 120.35 161.25 119.71 161.40 118.76 L 161.56 117.79 C 161.71 116.84 161.07 115.95 160.12 115.79 C 159.17 115.64 158.28 116.28 158.12 117.23 Z M 157.97 118.20 L 157.80 119.21 C 157.65 120.16 158.29 121.05 159.24 121.20 C 160.19 121.36 161.08 120.72 161.24 119.77 L 161.40 118.77 C 161.56 117.82 160.91 116.92 159.96 116.77 C 159.02 116.61 158.12 117.26 157.97 118.20 Z M 157.80 119.20 L 157.64 120.17 C 157.48 121.12 158.12 122.02 159.07 122.18 C 160.02 122.34 160.92 121.70 161.08 120.75 L 161.24 119.77 C 161.40 118.82 160.75 117.93 159.80 117.77 C 158.86 117.61 157.96 118.25 157.80 119.20 Z M 157.63 120.18 L 157.48 121.14 C 157.32 122.09 157.97 122.99 158.92 123.14 C 159.88 123.29 160.78 122.65 160.93 121.69 L 161.08 120.74 C 161.24 119.79 160.59 118.89 159.64 118.73 C 158.68 118.58 157.78 119.23 157.63 120.18 Z M 157.47 121.17 L 157.32 122.16 C 157.19 123.12 157.85 124.01 158.81 124.14 C 159.77 124.28 160.66 123.62 160.80 122.66 L 160.94 121.66 C 161.08 120.70 160.41 119.81 159.45 119.68 C 158.49 119.54 157.60 120.21 157.47 121.17 Z M 157.31 122.21 L 157.19 123.24 C 157.08 124.21 157.78 125.08 158.75 125.19 C 159.71 125.30 160.59 124.60 160.69 123.64 L 160.81 122.60 C 160.92 121.64 160.23 120.77 159.26 120.66 C 158.29 120.55 157.42 121.24 157.31 122.21 Z M 157.18 123.31 L 157.11 124.35 C 157.04 125.33 157.77 126.17 158.74 126.24 C 159.71 126.32 160.56 125.58 160.63 124.61 L 160.71 123.57 C 160.78 122.60 160.05 121.75 159.07 121.68 C 158.10 121.61 157.25 122.34 157.18 123.31 Z M 157.10 124.44 L 157.08 125.48 C 157.05 126.46 157.83 127.27 158.80 127.29 C 159.78 127.31 160.59 126.54 160.61 125.56 L 160.64 124.52 C 160.66 123.55 159.88 122.74 158.91 122.71 C 157.93 122.69 157.12 123.47 157.10 124.44 Z M 157.08 125.60 L 157.12 126.61 C 157.17 127.59 157.99 128.35 158.97 128.30 C 159.94 128.26 160.70 127.44 160.66 126.46 L 160.61 125.44 C 160.57 124.47 159.74 123.71 158.77 123.75 C 157.79 123.80 157.03 124.62 157.08 125.60 Z M 157.14 126.78 L 157.27 127.73 C 157.40 128.70 158.29 129.38 159.26 129.24 C 160.23 129.11 160.90 128.22 160.77 127.25 L 160.64 126.30 C 160.51 125.33 159.62 124.65 158.65 124.78 C 157.68 124.92 157.00 125.81 157.14 126.78 Z M 157.32 127.97 L 157.59 128.92 C 157.85 129.86 158.83 130.41 159.77 130.14 C 160.71 129.88 161.25 128.90 160.99 127.96 L 160.72 127.01 C 160.45 126.07 159.48 125.52 158.54 125.79 C 157.60 126.05 157.05 127.03 157.32 127.97 Z M 157.71 129.21 L 158.14 130.11 C 158.57 130.99 159.62 131.35 160.50 130.92 C 161.37 130.50 161.73 129.44 161.31 128.57 L 160.87 127.67 C 160.44 126.80 159.39 126.44 158.52 126.86 C 157.64 127.29 157.28 128.34 157.71 129.21 Z M 158.30 130.35 L 158.86 131.14 C 159.41 131.93 160.50 132.12 161.29 131.57 C 162.08 131.01 162.27 129.92 161.72 129.13 L 161.16 128.33 C 160.60 127.54 159.51 127.35 158.72 127.91 C 157.93 128.47 157.74 129.56 158.30 130.35 Z M 158.98 131.28 L 159.63 132.02 C 160.26 132.74 161.36 132.81 162.08 132.18 C 162.81 131.55 162.88 130.45 162.24 129.73 L 161.59 128.99 C 160.96 128.27 159.86 128.20 159.14 128.83 C 158.42 129.46 158.35 130.56 158.98 131.28 Z M 159.72 132.09 L 160.41 132.79 C 161.08 133.46 162.17 133.46 162.85 132.79 C 163.52 132.12 163.52 131.03 162.85 130.36 L 162.16 129.66 C 161.48 128.99 160.39 128.98 159.72 129.65 C 159.05 130.33 159.04 131.42 159.72 132.09 Z M 160.49 132.83 L 161.24 133.51 C 161.93 134.14 163.01 134.08 163.64 133.39 C 164.27 132.69 164.21 131.62 163.52 130.99 L 162.77 130.31 C 162.08 129.68 161.00 129.73 160.37 130.43 C 159.74 131.13 159.79 132.20 160.49 132.83 Z M 161.31 133.55 L 162.10 134.19 C 162.81 134.78 163.87 134.67 164.46 133.95 C 165.05 133.24 164.94 132.18 164.22 131.59 L 163.44 130.95 C 162.72 130.36 161.67 130.47 161.08 131.18 C 160.49 131.90 160.60 132.96 161.31 133.55 Z M 162.17 134.22 L 162.98 134.82 C 163.71 135.37 164.75 135.22 165.30 134.48 C 165.85 133.75 165.70 132.71 164.96 132.16 L 164.15 131.56 C 163.42 131.01 162.37 131.16 161.83 131.90 C 161.28 132.63 161.43 133.68 162.17 134.22 Z M 163.03 134.85 L 163.86 135.42 C 164.61 135.94 165.64 135.75 166.16 134.99 C 166.67 134.24 166.48 133.21 165.73 132.70 L 164.90 132.13 C 164.15 131.61 163.12 131.80 162.61 132.55 C 162.09 133.31 162.28 134.34 163.03 134.85 Z M 163.89 135.44 L 164.73 135.98 C 165.49 136.48 166.51 136.26 167.01 135.50 C 167.50 134.74 167.29 133.72 166.53 133.22 L 165.69 132.68 C 164.93 132.18 163.91 132.40 163.41 133.16 C 162.92 133.92 163.13 134.94 163.89 135.44 Z M 164.75 135.98 L 165.35 136.37 C 166.11 136.85 167.12 136.63 167.61 135.87 C 168.10 135.10 167.87 134.09 167.11 133.60 L 166.51 133.22 C 165.75 132.73 164.73 132.96 164.25 133.72 C 163.76 134.48 163.98 135.50 164.75 135.98 Z"
      fill="black"
      fill-rule="nonzero" /><path d="M 161.80 117.94 L 162.74 117.83 C 163.73 117.71 164.44 116.81 164.32 115.83 C 164.20 114.84 163.31 114.13 162.32 114.25 L 161.37 114.36 C 160.39 114.47 159.68 115.37 159.80 116.36 C 159.91 117.35 160.81 118.05 161.80 117.94 Z M 162.72 117.82 L 163.69 117.72 C 164.67 117.62 165.39 116.73 165.29 115.75 C 165.18 114.76 164.30 114.04 163.31 114.15 L 162.34 114.25 C 161.35 114.35 160.64 115.24 160.74 116.22 C 160.85 117.21 161.73 117.93 162.72 117.82 Z M 163.65 117.72 L 164.67 117.64 C 165.66 117.55 166.39 116.69 166.31 115.70 C 166.23 114.72 165.36 113.98 164.38 114.06 L 163.35 114.15 C 162.37 114.23 161.63 115.09 161.71 116.08 C 161.80 117.07 162.66 117.80 163.65 117.72 Z M 164.62 117.63 L 165.64 117.58 C 166.62 117.53 167.38 116.69 167.33 115.70 C 167.28 114.72 166.44 113.96 165.45 114.01 L 164.43 114.07 C 163.45 114.12 162.69 114.96 162.74 115.94 C 162.79 116.93 163.63 117.68 164.62 117.63 Z M 165.58 117.57 L 166.57 117.55 C 167.55 117.53 168.33 116.72 168.31 115.74 C 168.29 114.76 167.48 113.98 166.50 114.00 L 165.51 114.02 C 164.53 114.04 163.75 114.85 163.77 115.83 C 163.79 116.81 164.60 117.59 165.58 117.57 Z M 166.50 117.54 L 167.51 117.56 C 168.49 117.57 169.29 116.80 169.31 115.83 C 169.33 114.85 168.55 114.05 167.58 114.03 L 166.56 114.01 C 165.59 114.00 164.79 114.77 164.77 115.74 C 164.75 116.72 165.53 117.52 166.50 117.54 Z M 167.43 117.54 L 168.45 117.61 C 169.41 117.67 170.24 116.94 170.31 115.98 C 170.37 115.02 169.64 114.18 168.68 114.12 L 167.66 114.05 C 166.70 113.98 165.87 114.71 165.80 115.68 C 165.74 116.64 166.47 117.48 167.43 117.54 Z M 168.34 117.59 L 169.35 117.72 C 170.30 117.84 171.18 117.17 171.30 116.22 C 171.42 115.27 170.75 114.40 169.80 114.27 L 168.79 114.14 C 167.84 114.02 166.96 114.69 166.84 115.64 C 166.72 116.59 167.39 117.46 168.34 117.59 Z M 169.22 117.68 L 170.24 117.90 C 171.17 118.10 172.09 117.50 172.29 116.57 C 172.49 115.64 171.89 114.72 170.96 114.52 L 169.94 114.31 C 169.00 114.11 168.09 114.70 167.89 115.64 C 167.69 116.57 168.29 117.49 169.22 117.68 Z M 170.10 117.85 L 171.06 118.15 C 171.96 118.42 172.92 117.92 173.20 117.01 C 173.48 116.10 172.97 115.15 172.06 114.87 L 171.10 114.57 C 170.20 114.30 169.24 114.80 168.96 115.71 C 168.68 116.61 169.19 117.57 170.10 117.85 Z M 170.91 118.08 L 171.80 118.45 C 172.67 118.81 173.66 118.40 174.02 117.53 C 174.39 116.66 173.97 115.66 173.10 115.30 L 172.21 114.93 C 171.34 114.57 170.35 114.98 169.99 115.85 C 169.63 116.72 170.04 117.72 170.91 118.08 Z M 171.64 118.36 L 172.50 118.83 C 173.32 119.28 174.35 118.98 174.80 118.16 C 175.25 117.34 174.94 116.31 174.12 115.86 L 173.27 115.39 C 172.44 114.94 171.42 115.24 170.97 116.06 C 170.52 116.88 170.82 117.91 171.64 118.36 Z M 172.32 118.72 L 173.14 119.31 C 173.90 119.86 174.95 119.69 175.50 118.93 C 176.04 118.18 175.88 117.12 175.12 116.57 L 174.30 115.98 C 173.55 115.43 172.49 115.60 171.94 116.36 C 171.40 117.11 171.56 118.17 172.32 118.72 Z M 172.96 119.15 L 173.67 119.84 C 174.34 120.48 175.41 120.46 176.05 119.79 C 176.70 119.12 176.68 118.06 176.01 117.41 L 175.30 116.73 C 174.63 116.08 173.56 116.10 172.92 116.77 C 172.27 117.44 172.29 118.51 172.96 119.15 Z M 173.51 119.65 L 174.11 120.43 C 174.68 121.16 175.73 121.30 176.47 120.73 C 177.20 120.17 177.34 119.11 176.77 118.37 L 176.17 117.60 C 175.61 116.86 174.55 116.73 173.81 117.29 C 173.08 117.86 172.94 118.92 173.51 119.65 Z M 173.98 120.22 L 174.45 121.07 C 174.90 121.88 175.93 122.17 176.74 121.71 C 177.55 121.26 177.83 120.23 177.38 119.42 L 176.91 118.58 C 176.45 117.77 175.43 117.48 174.62 117.94 C 173.81 118.39 173.52 119.42 173.98 120.22 Z M 174.35 120.86 L 174.71 121.78 C 175.05 122.64 176.03 123.07 176.89 122.73 C 177.75 122.39 178.18 121.42 177.84 120.55 L 177.48 119.63 C 177.14 118.77 176.16 118.34 175.30 118.68 C 174.44 119.02 174.01 120.00 174.35 120.86 Z M 174.65 121.57 L 174.89 122.56 C 175.12 123.46 176.03 124.01 176.93 123.79 C 177.83 123.56 178.38 122.65 178.15 121.75 L 177.91 120.76 C 177.68 119.86 176.77 119.31 175.87 119.54 C 174.97 119.76 174.42 120.67 174.65 121.57 Z M 174.85 122.36 L 174.98 123.37 C 175.09 124.29 175.93 124.95 176.85 124.83 C 177.77 124.72 178.43 123.88 178.31 122.96 L 178.19 121.95 C 178.07 121.03 177.24 120.38 176.32 120.49 C 175.39 120.60 174.74 121.44 174.85 122.36 Z M 174.97 123.19 L 174.98 124.20 C 174.99 125.13 175.76 125.87 176.69 125.86 C 177.61 125.84 178.35 125.08 178.34 124.15 L 178.33 123.14 C 178.31 122.22 177.55 121.47 176.62 121.49 C 175.69 121.50 174.95 122.26 174.97 123.19 Z M 174.99 124.03 L 174.90 125.03 C 174.81 125.96 175.50 126.77 176.42 126.86 C 177.34 126.94 178.16 126.26 178.25 125.33 L 178.34 124.33 C 178.42 123.40 177.74 122.59 176.81 122.50 C 175.89 122.42 175.07 123.10 174.99 124.03 Z M 174.92 124.85 L 174.73 125.82 C 174.54 126.73 175.13 127.62 176.04 127.80 C 176.95 127.98 177.84 127.39 178.02 126.48 L 178.22 125.51 C 178.40 124.60 177.81 123.72 176.90 123.53 C 175.99 123.35 175.11 123.94 174.92 124.85 Z M 174.78 125.61 L 174.46 126.57 C 174.16 127.45 174.64 128.41 175.52 128.70 C 176.40 129.00 177.36 128.53 177.65 127.64 L 177.97 126.69 C 178.27 125.80 177.79 124.85 176.91 124.55 C 176.03 124.26 175.07 124.73 174.78 125.61 Z M 174.53 126.38 L 174.10 127.27 C 173.70 128.11 174.05 129.12 174.89 129.53 C 175.73 129.93 176.74 129.58 177.15 128.74 L 177.58 127.84 C 177.98 127.00 177.63 125.99 176.78 125.58 C 175.94 125.18 174.93 125.54 174.53 126.38 Z M 174.18 127.12 L 173.66 127.96 C 173.17 128.76 173.42 129.80 174.22 130.29 C 175.02 130.78 176.06 130.53 176.55 129.73 L 177.07 128.89 C 177.56 128.09 177.31 127.05 176.51 126.56 C 175.71 126.07 174.67 126.32 174.18 127.12 Z M 173.73 127.85 L 173.15 128.66 C 172.60 129.42 172.77 130.48 173.53 131.03 C 174.29 131.58 175.35 131.41 175.90 130.65 L 176.48 129.84 C 177.03 129.08 176.86 128.02 176.10 127.47 C 175.34 126.92 174.28 127.09 173.73 127.85 Z M 173.20 128.58 L 172.57 129.36 C 171.98 130.09 172.09 131.16 172.82 131.75 C 173.55 132.35 174.62 132.23 175.22 131.50 L 175.85 130.73 C 176.44 130.00 176.33 128.92 175.60 128.33 C 174.86 127.74 173.79 127.85 173.20 128.58 Z M 172.62 129.30 L 171.95 130.05 C 171.32 130.75 171.39 131.83 172.09 132.46 C 172.80 133.09 173.88 133.02 174.50 132.32 L 175.17 131.56 C 175.80 130.86 175.73 129.78 175.03 129.15 C 174.32 128.53 173.24 128.59 172.62 129.30 Z M 171.99 130.00 L 171.30 130.72 C 170.64 131.40 170.67 132.49 171.35 133.14 C 172.03 133.79 173.12 133.77 173.77 133.09 L 174.46 132.37 C 175.12 131.68 175.09 130.60 174.41 129.94 C 173.73 129.29 172.64 129.31 171.99 130.00 Z M 171.34 130.68 L 170.64 131.35 C 169.97 132.01 169.95 133.10 170.62 133.78 C 171.28 134.46 172.37 134.47 173.04 133.81 L 173.74 133.13 C 174.41 132.47 174.43 131.38 173.76 130.70 C 173.10 130.03 172.01 130.01 171.34 130.68 Z M 170.69 131.31 L 169.97 131.96 C 169.26 132.60 169.21 133.69 169.85 134.39 C 170.49 135.10 171.58 135.15 172.28 134.51 L 173.00 133.85 C 173.70 133.21 173.75 132.12 173.11 131.42 C 172.47 130.72 171.39 130.67 170.69 131.31 Z M 170.01 131.92 L 169.24 132.57 C 168.51 133.18 168.42 134.27 169.03 135.00 C 169.65 135.72 170.73 135.82 171.46 135.20 L 172.23 134.55 C 172.96 133.94 173.05 132.85 172.44 132.13 C 171.83 131.40 170.74 131.31 170.01 131.92 Z M 169.29 132.53 L 168.40 133.22 C 167.65 133.81 167.51 134.89 168.10 135.64 C 168.68 136.39 169.76 136.53 170.52 135.94 L 171.41 135.25 C 172.16 134.66 172.30 133.58 171.71 132.83 C 171.13 132.08 170.04 131.94 169.29 132.53 Z M 168.45 133.18 L 167.41 133.93 C 166.63 134.49 166.46 135.57 167.01 136.34 C 167.57 137.11 168.65 137.29 169.42 136.73 L 170.47 135.98 C 171.24 135.42 171.41 134.35 170.86 133.57 C 170.30 132.80 169.22 132.63 168.45 133.18 Z M 167.47 133.89 L 166.63 134.44 C 165.84 134.96 165.61 136.03 166.13 136.82 C 166.66 137.62 167.72 137.84 168.52 137.32 L 169.36 136.78 C 170.15 136.25 170.38 135.19 169.86 134.39 C 169.34 133.59 168.27 133.37 167.47 133.89 Z M 166.92 134.29 L 166.55 134.44 C 165.67 134.80 165.25 135.81 165.61 136.69 C 165.98 137.56 166.98 137.98 167.86 137.62 L 168.23 137.47 C 169.11 137.11 169.53 136.11 169.17 135.23 C 168.81 134.35 167.80 133.93 166.92 134.29 Z M 168.48 137.18 L 168.95 136.66 C 169.58 135.95 169.52 134.87 168.82 134.24 C 168.12 133.61 167.03 133.67 166.40 134.37 L 165.94 134.89 C 165.30 135.59 165.36 136.67 166.06 137.30 C 166.77 137.94 167.85 137.88 168.48 137.18 Z M 168.77 136.80 L 169.82 135.91 C 170.53 135.31 170.62 134.24 170.01 133.52 C 169.40 132.81 168.33 132.72 167.62 133.33 L 166.58 134.22 C 165.86 134.83 165.78 135.90 166.38 136.61 C 166.99 137.32 168.06 137.41 168.77 136.80 Z M 169.70 136.02 L 170.68 135.33 C 171.45 134.79 171.63 133.72 171.09 132.95 C 170.54 132.18 169.48 132.00 168.71 132.54 L 167.74 133.23 C 166.97 133.77 166.78 134.84 167.33 135.61 C 167.87 136.38 168.93 136.56 169.70 136.02 Z M 170.30 135.57 L 171.17 135.24 C 172.07 134.91 172.53 133.91 172.19 133.00 C 171.86 132.10 170.85 131.64 169.95 131.98 L 169.08 132.30 C 168.18 132.64 167.72 133.64 168.06 134.54 C 168.40 135.45 169.40 135.90 170.30 135.57 Z M 169.78 135.20 L 170.36 135.49 C 171.24 135.92 172.30 135.56 172.74 134.68 C 173.17 133.80 172.80 132.74 171.92 132.31 L 171.34 132.02 C 170.46 131.59 169.40 131.95 168.97 132.83 C 168.54 133.71 168.90 134.77 169.78 135.20 Z M 169.46 134.52 L 169.75 135.31 C 170.10 136.24 171.13 136.71 172.06 136.37 C 172.99 136.02 173.46 134.99 173.12 134.06 L 172.83 133.28 C 172.48 132.35 171.45 131.87 170.52 132.22 C 169.59 132.56 169.12 133.59 169.46 134.52 Z M 169.64 134.91 L 169.78 136.01 C 169.91 137.00 170.81 137.70 171.80 137.57 C 172.79 137.45 173.49 136.54 173.37 135.55 L 173.23 134.46 C 173.10 133.47 172.20 132.77 171.21 132.89 C 170.22 133.02 169.52 133.92 169.64 134.91 Z M 169.76 135.87 L 169.81 136.99 C 169.86 137.99 170.71 138.77 171.71 138.72 C 172.72 138.67 173.49 137.82 173.44 136.82 L 173.39 135.69 C 173.34 134.69 172.49 133.92 171.49 133.96 C 170.48 134.01 169.71 134.86 169.76 135.87 Z M 169.80 136.94 L 169.82 137.77 C 169.84 138.77 170.67 139.57 171.68 139.55 C 172.69 139.53 173.49 138.70 173.47 137.69 L 173.45 136.86 C 173.43 135.86 172.60 135.06 171.59 135.08 C 170.58 135.10 169.78 135.93 169.80 136.94 Z M 169.82 137.71 L 169.81 138.59 C 169.80 139.60 170.61 140.42 171.62 140.43 C 172.63 140.44 173.45 139.63 173.46 138.62 L 173.47 137.74 C 173.48 136.74 172.67 135.91 171.66 135.90 C 170.65 135.89 169.83 136.71 169.82 137.71 Z M 169.81 138.53 L 169.77 139.53 C 169.73 140.54 170.51 141.39 171.52 141.43 C 172.53 141.48 173.38 140.69 173.42 139.68 L 173.46 138.68 C 173.50 137.68 172.72 136.82 171.71 136.78 C 170.70 136.74 169.85 137.52 169.81 138.53 Z M 169.77 139.48 L 169.69 140.67 C 169.61 141.68 170.37 142.55 171.38 142.63 C 172.38 142.70 173.26 141.94 173.33 140.93 L 173.42 139.74 C 173.49 138.73 172.73 137.86 171.73 137.79 C 170.72 137.71 169.84 138.47 169.77 139.48 Z M 169.69 140.63 L 169.59 141.65 C 169.50 142.65 170.24 143.54 171.25 143.64 C 172.25 143.73 173.14 142.99 173.24 141.98 L 173.33 140.97 C 173.42 139.97 172.68 139.07 171.68 138.98 C 170.67 138.89 169.78 139.63 169.69 140.63 Z M 169.59 141.63 L 169.50 142.51 C 169.40 143.51 170.13 144.41 171.14 144.52 C 172.14 144.62 173.04 143.89 173.14 142.89 L 173.24 142.00 C 173.34 141.00 172.61 140.10 171.60 139.99 C 170.60 139.89 169.70 140.62 169.59 141.63 Z M 169.50 142.50 L 169.40 143.45 C 169.29 144.45 170.02 145.36 171.02 145.47 C 172.03 145.58 172.93 144.85 173.04 143.85 L 173.14 142.90 C 173.25 141.89 172.53 140.99 171.52 140.88 C 170.52 140.77 169.61 141.49 169.50 142.50 Z M 169.40 143.44 L 169.29 144.44 C 169.18 145.45 169.90 146.36 170.91 146.47 C 171.91 146.58 172.82 145.86 172.93 144.85 L 173.04 143.85 C 173.15 142.84 172.43 141.94 171.42 141.83 C 170.42 141.71 169.51 142.44 169.40 143.44 Z M 169.29 144.44 L 169.17 145.48 C 169.06 146.49 169.78 147.39 170.79 147.51 C 171.79 147.62 172.70 146.89 172.81 145.89 L 172.93 144.85 C 173.04 143.85 172.32 142.94 171.31 142.83 C 170.31 142.71 169.40 143.44 169.29 144.44 Z M 169.17 145.48 L 169.05 146.54 C 168.94 147.55 169.67 148.45 170.67 148.57 C 171.68 148.68 172.59 147.95 172.70 146.94 L 172.82 145.89 C 172.93 144.88 172.20 143.97 171.19 143.86 C 170.19 143.75 169.28 144.48 169.17 145.48 Z M 169.05 146.55 L 168.94 147.61 C 168.83 148.62 169.56 149.52 170.57 149.63 C 171.57 149.74 172.48 149.01 172.59 148.00 L 172.70 146.94 C 172.81 145.93 172.08 145.02 171.07 144.92 C 170.06 144.81 169.16 145.54 169.05 146.55 Z M 168.93 147.62 L 168.83 148.68 C 168.72 149.69 169.46 150.59 170.47 150.69 C 171.48 150.79 172.38 150.06 172.48 149.05 L 172.59 147.99 C 172.69 146.98 171.96 146.08 170.95 145.98 C 169.94 145.88 169.04 146.61 168.93 147.62 Z M 168.82 148.69 L 168.72 149.78 C 168.63 150.80 169.37 151.69 170.38 151.79 C 171.39 151.88 172.29 151.14 172.38 150.13 L 172.48 149.04 C 172.58 148.03 171.84 147.13 170.83 147.03 C 169.82 146.94 168.92 147.68 168.82 148.69 Z M 168.72 149.80 L 168.63 150.92 C 168.54 151.93 169.29 152.82 170.30 152.90 C 171.31 152.99 172.20 152.24 172.29 151.23 L 172.38 150.11 C 172.47 149.10 171.72 148.21 170.71 148.13 C 169.69 148.04 168.81 148.79 168.72 149.80 Z M 168.62 150.93 L 168.54 152.01 C 168.47 153.02 169.23 153.90 170.24 153.98 C 171.25 154.05 172.13 153.29 172.21 152.28 L 172.29 151.21 C 172.36 150.20 171.61 149.31 170.59 149.24 C 169.58 149.16 168.70 149.92 168.62 150.93 Z M 168.54 152.02 L 168.47 153.05 C 168.41 154.06 169.17 154.94 170.18 155.01 C 171.20 155.07 172.07 154.31 172.14 153.30 L 172.21 152.27 C 172.28 151.25 171.51 150.38 170.50 150.31 C 169.49 150.24 168.61 151.01 168.54 152.02 Z M 168.47 153.07 L 168.42 154.05 C 168.36 155.07 169.13 155.94 170.14 155.99 C 171.15 156.05 172.02 155.28 172.08 154.27 L 172.14 153.28 C 172.20 152.27 171.43 151.40 170.41 151.34 C 169.40 151.28 168.53 152.06 168.47 153.07 Z M 168.42 154.07 L 168.37 155.01 C 168.32 156.02 169.10 156.88 170.11 156.93 C 171.12 156.99 171.98 156.21 172.04 155.19 L 172.08 154.25 C 172.13 153.24 171.35 152.38 170.34 152.33 C 169.33 152.28 168.47 153.06 168.42 154.07 Z M 168.37 155.02 L 168.33 155.92 C 168.29 156.93 169.07 157.78 170.09 157.83 C 171.10 157.87 171.95 157.08 172.00 156.07 L 172.04 155.18 C 172.08 154.17 171.29 153.31 170.28 153.27 C 169.27 153.22 168.41 154.01 168.37 155.02 Z M 168.33 155.93 L 168.30 156.84 C 168.26 157.85 169.06 158.70 170.07 158.74 C 171.08 158.77 171.93 157.98 171.97 156.97 L 172.00 156.06 C 172.03 155.04 171.24 154.20 170.23 154.16 C 169.22 154.12 168.37 154.92 168.33 155.93 Z M 168.30 156.86 L 168.27 157.98 C 168.25 158.99 169.04 159.84 170.06 159.86 C 171.07 159.89 171.91 159.09 171.93 158.08 L 171.96 156.95 C 171.99 155.94 171.19 155.10 170.18 155.07 C 169.17 155.05 168.33 155.85 168.30 156.86 Z M 168.28 158.00 L 168.26 159.04 C 168.24 160.05 169.05 160.88 170.05 160.90 C 171.06 160.91 171.89 160.11 171.91 159.10 L 171.93 158.06 C 171.95 157.05 171.14 156.22 170.13 156.21 C 169.13 156.19 168.29 156.99 168.28 158.00 Z M 168.26 159.05 L 168.26 160.02 C 168.25 161.03 169.05 161.85 170.06 161.86 C 171.07 161.87 171.89 161.06 171.90 160.06 L 171.91 159.09 C 171.92 158.08 171.11 157.26 170.10 157.25 C 169.10 157.24 168.27 158.05 168.26 159.05 Z M 168.26 160.04 L 168.26 160.96 C 168.25 161.96 169.06 162.77 170.07 162.78 C 171.07 162.78 171.89 161.97 171.89 160.97 L 171.89 160.05 C 171.90 159.04 171.09 158.23 170.08 158.22 C 169.08 158.22 168.26 159.03 168.26 160.04 Z M 168.26 160.96 L 168.26 161.88 C 168.26 162.88 169.07 163.69 170.07 163.69 C 171.07 163.69 171.88 162.88 171.88 161.88 L 171.89 160.96 C 171.89 159.96 171.07 159.15 170.07 159.15 C 169.07 159.15 168.26 159.96 168.26 160.96 Z M 168.27 161.88 L 168.27 162.95 C 168.28 163.94 169.09 164.75 170.08 164.74 C 171.08 164.74 171.88 163.93 171.88 162.94 L 171.88 161.87 C 171.87 160.88 171.06 160.07 170.07 160.08 C 169.07 160.08 168.27 160.89 168.27 161.88 Z M 168.28 162.97 L 168.30 163.99 C 168.31 164.98 169.13 165.77 170.12 165.76 C 171.11 165.74 171.90 164.93 171.89 163.94 L 171.87 162.91 C 171.85 161.92 171.04 161.13 170.05 161.15 C 169.06 161.16 168.27 161.98 168.28 162.97 Z M 168.31 164.04 L 168.35 165.02 C 168.39 166.00 169.22 166.77 170.21 166.72 C 171.19 166.68 171.96 165.85 171.92 164.87 L 171.88 163.89 C 171.83 162.91 171.00 162.14 170.02 162.18 C 169.03 162.22 168.27 163.06 168.31 164.04 Z M 168.36 165.09 L 168.44 166.01 C 168.52 166.99 169.38 167.72 170.36 167.63 C 171.33 167.55 172.06 166.69 171.98 165.72 L 171.90 164.79 C 171.82 163.82 170.96 163.09 169.99 163.17 C 169.01 163.26 168.28 164.11 168.36 165.09 Z M 168.47 166.13 L 168.63 167.17 C 168.77 168.13 169.67 168.79 170.64 168.64 C 171.60 168.49 172.26 167.59 172.11 166.63 L 171.95 165.60 C 171.80 164.64 170.90 163.98 169.94 164.12 C 168.98 164.27 168.32 165.17 168.47 166.13 Z M 168.67 167.33 L 168.92 168.29 C 169.16 169.22 170.12 169.79 171.05 169.55 C 171.99 169.30 172.55 168.35 172.31 167.41 L 172.06 166.46 C 171.82 165.52 170.87 164.96 169.93 165.20 C 169.00 165.44 168.43 166.40 168.67 167.33 Z M 169.00 168.48 L 169.35 169.39 C 169.69 170.28 170.70 170.72 171.60 170.38 C 172.49 170.03 172.93 169.02 172.59 168.13 L 172.23 167.22 C 171.89 166.33 170.88 165.89 169.99 166.23 C 169.09 166.58 168.65 167.59 169.00 168.48 Z M 169.45 169.58 L 169.93 170.47 C 170.39 171.31 171.43 171.62 172.27 171.17 C 173.11 170.72 173.42 169.67 172.97 168.84 L 172.48 167.94 C 172.03 167.10 170.99 166.79 170.15 167.24 C 169.31 167.69 169.00 168.74 169.45 169.58 Z M 170.08 170.68 L 170.70 171.51 C 171.26 172.26 172.34 172.42 173.09 171.85 C 173.85 171.29 174.01 170.21 173.44 169.46 L 172.82 168.63 C 172.26 167.87 171.18 167.72 170.43 168.28 C 169.67 168.85 169.51 169.92 170.08 170.68 Z M 170.95 171.76 L 171.69 172.40 C 172.39 173.02 173.47 172.95 174.08 172.24 C 174.70 171.53 174.63 170.46 173.92 169.84 L 173.19 169.20 C 172.48 168.58 171.41 168.66 170.79 169.36 C 170.17 170.07 170.24 171.14 170.95 171.76 Z M 172.15 172.68 L 173.00 173.04 C 173.86 173.40 174.85 173.00 175.21 172.14 C 175.57 171.28 175.17 170.29 174.31 169.93 L 173.46 169.57 C 172.60 169.21 171.61 169.61 171.25 170.47 C 170.89 171.33 171.29 172.32 172.15 172.68 Z M 173.65 173.16 L 174.59 173.16 C 175.51 173.17 176.27 172.43 176.27 171.50 C 176.28 170.58 175.53 169.82 174.61 169.81 L 173.67 169.81 C 172.74 169.80 171.99 170.55 171.98 171.47 C 171.98 172.40 172.72 173.15 173.65 173.16 Z M 175.18 173.04 L 176.12 172.69 C 176.98 172.37 177.41 171.41 177.09 170.55 C 176.76 169.69 175.80 169.26 174.95 169.58 L 174.01 169.94 C 173.15 170.26 172.72 171.22 173.04 172.08 C 173.37 172.93 174.33 173.37 175.18 173.04 Z M 176.57 172.42 L 177.38 171.76 C 178.08 171.19 178.19 170.15 177.62 169.44 C 177.04 168.74 176.00 168.63 175.30 169.20 L 174.49 169.86 C 173.79 170.43 173.68 171.47 174.25 172.18 C 174.83 172.88 175.87 172.99 176.57 172.42 Z M 177.64 171.49 L 178.19 170.77 C 178.74 170.05 178.61 169.02 177.89 168.47 C 177.18 167.91 176.14 168.04 175.59 168.76 L 175.04 169.48 C 174.48 170.20 174.61 171.23 175.33 171.78 C 176.05 172.34 177.08 172.21 177.64 171.49 Z M 178.31 170.59 L 178.80 169.74 C 179.26 168.96 179.00 167.95 178.21 167.50 C 177.43 167.04 176.43 167.30 175.97 168.09 L 175.47 168.94 C 175.02 169.72 175.28 170.73 176.06 171.18 C 176.85 171.64 177.85 171.38 178.31 170.59 Z M 178.86 169.63 L 179.32 168.69 C 179.72 167.87 179.38 166.89 178.56 166.50 C 177.75 166.10 176.77 166.44 176.37 167.25 L 175.91 168.20 C 175.52 169.01 175.86 169.99 176.67 170.39 C 177.48 170.78 178.46 170.45 178.86 169.63 Z M 179.34 168.64 L 179.78 167.65 C 180.15 166.82 179.78 165.85 178.95 165.49 C 178.12 165.12 177.16 165.49 176.79 166.32 L 176.35 167.31 C 175.98 168.13 176.35 169.10 177.18 169.47 C 178.01 169.84 178.97 169.46 179.34 168.64 Z"
      fill="black"
      fill-rule="nonzero" /><path d="M 180.60 147.06 L 180.60 148.10 C 180.60 149.10 181.41 149.91 182.41 149.91 C 183.41 149.91 184.22 149.10 184.22 148.10 L 184.22 147.06 C 184.22 146.06 183.40 145.25 182.41 145.25 C 181.41 145.25 180.60 146.06 180.60 147.06 Z M 180.60 148.11 L 180.61 149.14 C 180.61 150.13 181.43 150.94 182.43 150.93 C 183.43 150.93 184.23 150.11 184.22 149.11 L 184.22 148.09 C 184.21 147.09 183.40 146.28 182.40 146.29 C 181.40 146.30 180.59 147.11 180.60 148.11 Z M 180.61 149.16 L 180.62 150.15 C 180.64 151.15 181.47 151.94 182.47 151.93 C 183.47 151.91 184.26 151.08 184.24 150.08 L 184.22 149.09 C 184.21 148.09 183.38 147.29 182.38 147.31 C 181.38 147.33 180.59 148.16 180.61 149.16 Z M 180.63 150.19 L 180.66 151.13 C 180.70 152.13 181.54 152.91 182.54 152.87 C 183.54 152.83 184.32 151.99 184.28 150.99 L 184.24 150.05 C 184.20 149.05 183.36 148.27 182.36 148.31 C 181.37 148.35 180.59 149.19 180.63 150.19 Z M 180.68 151.18 L 180.75 152.19 C 180.81 153.18 181.67 153.93 182.66 153.86 C 183.65 153.79 184.40 152.94 184.33 151.95 L 184.26 150.94 C 184.20 149.95 183.34 149.20 182.35 149.27 C 181.36 149.34 180.61 150.19 180.68 151.18 Z M 180.78 152.23 L 180.87 153.21 C 180.96 154.18 181.82 154.90 182.80 154.81 C 183.77 154.71 184.48 153.85 184.39 152.88 L 184.30 151.90 C 184.21 150.93 183.35 150.22 182.37 150.31 C 181.40 150.40 180.68 151.26 180.78 152.23 Z M 180.90 153.23 L 181.00 154.21 C 181.11 155.17 181.97 155.86 182.92 155.76 C 183.88 155.65 184.57 154.80 184.47 153.84 L 184.36 152.86 C 184.26 151.90 183.40 151.21 182.44 151.31 C 181.49 151.42 180.79 152.27 180.90 153.23 Z M 181.03 154.21 L 181.13 155.16 C 181.23 156.10 182.08 156.78 183.02 156.68 C 183.96 156.58 184.65 155.73 184.54 154.79 L 184.44 153.84 C 184.34 152.90 183.49 152.22 182.55 152.32 C 181.61 152.42 180.93 153.27 181.03 154.21 Z M 181.14 155.14 L 181.23 156.00 C 181.32 156.94 182.15 157.62 183.09 157.53 C 184.03 157.44 184.71 156.60 184.62 155.67 L 184.53 154.81 C 184.44 153.87 183.61 153.18 182.67 153.28 C 181.73 153.37 181.05 154.20 181.14 155.14 Z M 181.23 155.98 L 181.31 156.92 C 181.39 157.85 182.21 158.54 183.14 158.46 C 184.08 158.39 184.77 157.57 184.69 156.63 L 184.61 155.69 C 184.53 154.76 183.71 154.07 182.78 154.15 C 181.85 154.22 181.15 155.04 181.23 155.98 Z M 181.32 156.89 L 181.39 157.93 C 181.45 158.86 182.25 159.56 183.18 159.50 C 184.11 159.44 184.82 158.63 184.75 157.70 L 184.69 156.66 C 184.62 155.73 183.82 155.03 182.89 155.09 C 181.96 155.15 181.26 155.96 181.32 156.89 Z M 181.39 157.90 L 181.45 159.06 C 181.49 159.98 182.28 160.70 183.21 160.65 C 184.13 160.61 184.85 159.82 184.80 158.89 L 184.75 157.73 C 184.70 156.81 183.92 156.09 182.99 156.14 C 182.06 156.18 181.35 156.97 181.39 157.90 Z M 181.45 159.03 L 181.49 160.02 C 181.51 160.94 182.29 161.66 183.21 161.64 C 184.13 161.61 184.86 160.84 184.83 159.91 L 184.80 158.92 C 184.77 158.00 184.00 157.27 183.07 157.30 C 182.15 157.33 181.43 158.10 181.45 159.03 Z M 181.49 159.99 L 181.51 160.96 C 181.52 161.88 182.28 162.62 183.20 162.60 C 184.12 162.59 184.86 161.83 184.84 160.91 L 184.83 159.94 C 184.81 159.01 184.05 158.28 183.13 158.30 C 182.21 158.31 181.47 159.07 181.49 159.99 Z M 181.51 160.94 L 181.51 161.95 C 181.51 162.87 182.26 163.61 183.18 163.61 C 184.10 163.61 184.84 162.86 184.84 161.94 L 184.84 160.93 C 184.84 160.01 184.09 159.27 183.17 159.27 C 182.25 159.27 181.51 160.02 181.51 160.94 Z M 181.52 161.92 L 181.50 162.95 C 181.49 163.87 182.22 164.63 183.14 164.64 C 184.06 164.65 184.81 163.92 184.82 163.00 L 184.84 161.97 C 184.85 161.05 184.12 160.30 183.20 160.28 C 182.28 160.27 181.53 161.01 181.52 161.92 Z M 181.51 162.92 L 181.47 163.96 C 181.44 164.87 182.16 165.64 183.08 165.67 C 183.99 165.70 184.76 164.98 184.79 164.06 L 184.82 163.03 C 184.85 162.11 184.13 161.35 183.22 161.32 C 182.30 161.29 181.54 162.01 181.51 162.92 Z M 181.48 163.92 L 181.42 164.94 C 181.38 165.85 182.08 166.63 182.99 166.68 C 183.90 166.73 184.68 166.03 184.73 165.12 L 184.78 164.10 C 184.83 163.19 184.13 162.41 183.22 162.36 C 182.31 162.31 181.53 163.01 181.48 163.92 Z M 181.43 164.90 L 181.35 165.93 C 181.28 166.84 181.95 167.63 182.86 167.70 C 183.77 167.78 184.57 167.10 184.64 166.19 L 184.72 165.16 C 184.79 164.25 184.12 163.46 183.21 163.38 C 182.30 163.31 181.50 163.99 181.43 164.90 Z M 181.36 165.87 L 181.23 166.94 C 181.13 167.85 181.78 168.66 182.68 168.77 C 183.59 168.87 184.41 168.22 184.51 167.32 L 184.63 166.24 C 184.73 165.34 184.08 164.52 183.18 164.42 C 182.28 164.32 181.46 164.97 181.36 165.87 Z M 181.25 166.88 L 181.09 167.90 C 180.95 168.80 181.57 169.64 182.47 169.77 C 183.37 169.91 184.20 169.30 184.34 168.40 L 184.50 167.38 C 184.64 166.48 184.02 165.64 183.12 165.50 C 182.22 165.37 181.38 165.98 181.25 166.88 Z M 181.10 167.83 L 180.91 168.80 C 180.74 169.69 181.32 170.56 182.21 170.73 C 183.10 170.91 183.97 170.32 184.14 169.43 L 184.33 168.46 C 184.50 167.57 183.92 166.71 183.03 166.54 C 182.14 166.36 181.28 166.94 181.10 167.83 Z M 180.93 168.74 L 180.71 169.67 C 180.50 170.55 181.04 171.43 181.92 171.64 C 182.80 171.86 183.69 171.31 183.90 170.43 L 184.12 169.50 C 184.33 168.62 183.79 167.73 182.91 167.52 C 182.03 167.31 181.14 167.85 180.93 168.74 Z M 180.73 169.60 L 180.47 170.49 C 180.22 171.36 180.73 172.27 181.60 172.52 C 182.47 172.77 183.37 172.27 183.62 171.40 L 183.88 170.50 C 184.13 169.63 183.62 168.72 182.75 168.47 C 181.88 168.22 180.98 168.73 180.73 169.60 Z M 180.49 170.42 L 180.18 171.37 C 179.89 172.22 180.35 173.15 181.21 173.44 C 182.07 173.73 182.99 173.27 183.28 172.41 L 183.60 171.47 C 183.89 170.61 183.43 169.68 182.57 169.39 C 181.71 169.10 180.78 169.57 180.49 170.42 Z M 180.20 171.29 L 179.84 172.24 C 179.51 173.08 179.92 174.03 180.77 174.36 C 181.61 174.69 182.56 174.27 182.89 173.43 L 183.26 172.48 C 183.58 171.64 183.17 170.69 182.32 170.36 C 181.48 170.03 180.53 170.45 180.20 171.29 Z M 179.87 172.17 L 179.46 173.08 C 179.09 173.91 179.46 174.88 180.29 175.24 C 181.12 175.61 182.08 175.24 182.45 174.41 L 182.86 173.50 C 183.23 172.67 182.85 171.70 182.03 171.34 C 181.20 170.97 180.23 171.34 179.87 172.17 Z M 179.49 173.01 L 179.05 173.90 C 178.64 174.71 178.97 175.69 179.78 176.10 C 180.59 176.50 181.57 176.17 181.97 175.37 L 182.42 174.48 C 182.82 173.67 182.50 172.69 181.69 172.28 C 180.88 171.88 179.90 172.21 179.49 173.01 Z M 179.08 173.84 L 178.60 174.69 C 178.16 175.48 178.45 176.48 179.24 176.92 C 180.03 177.36 181.02 177.08 181.46 176.29 L 181.94 175.43 C 182.38 174.64 182.10 173.64 181.31 173.20 C 180.52 172.76 179.52 173.05 179.08 173.84 Z M 178.64 174.63 L 178.12 175.48 C 177.64 176.25 177.88 177.26 178.65 177.73 C 179.42 178.21 180.43 177.97 180.90 177.20 L 181.43 176.35 C 181.90 175.58 181.66 174.57 180.89 174.10 C 180.12 173.62 179.11 173.86 178.64 174.63 Z M 178.16 175.42 L 177.59 176.25 C 177.09 176.99 177.28 178.01 178.03 178.52 C 178.78 179.03 179.80 178.83 180.30 178.08 L 180.87 177.26 C 181.37 176.51 181.18 175.49 180.43 174.98 C 179.68 174.48 178.66 174.67 178.16 175.42 Z M 177.64 176.19 L 177.04 176.98 C 176.50 177.71 176.65 178.74 177.37 179.28 C 178.10 179.82 179.12 179.67 179.66 178.94 L 180.26 178.15 C 180.80 177.42 180.65 176.40 179.93 175.85 C 179.20 175.31 178.18 175.46 177.64 176.19 Z M 177.09 176.92 L 176.45 177.70 C 175.88 178.39 175.98 179.43 176.68 180.00 C 177.38 180.57 178.41 180.47 178.98 179.78 L 179.62 179.00 C 180.19 178.31 180.09 177.27 179.39 176.70 C 178.69 176.13 177.66 176.23 177.09 176.92 Z M 176.50 177.64 L 175.83 178.38 C 175.23 179.05 175.28 180.09 175.95 180.69 C 176.62 181.30 177.65 181.25 178.26 180.58 L 178.93 179.83 C 179.54 179.16 179.49 178.13 178.82 177.52 C 178.15 176.92 177.11 176.97 176.50 177.64 Z M 175.89 178.32 L 175.17 179.04 C 174.53 179.68 174.54 180.72 175.18 181.36 C 175.82 181.99 176.85 181.99 177.49 181.35 L 178.21 180.63 C 178.84 179.99 178.84 178.96 178.20 178.32 C 177.56 177.68 176.52 177.68 175.89 178.32 Z M 175.23 178.99 L 174.48 179.67 C 173.81 180.28 173.76 181.32 174.37 181.98 C 174.98 182.65 176.02 182.70 176.69 182.09 L 177.44 181.41 C 178.10 180.80 178.15 179.76 177.54 179.09 C 176.93 178.42 175.90 178.38 175.23 178.99 Z M 174.54 179.62 L 173.76 180.26 C 173.07 180.84 172.97 181.87 173.55 182.57 C 174.12 183.26 175.15 183.36 175.85 182.78 L 176.63 182.14 C 177.32 181.56 177.42 180.53 176.84 179.84 C 176.27 179.14 175.24 179.04 174.54 179.62 Z M 173.83 180.21 L 173.03 180.80 C 172.31 181.34 172.16 182.37 172.70 183.09 C 173.24 183.82 174.26 183.97 174.99 183.43 L 175.79 182.83 C 176.51 182.29 176.66 181.27 176.12 180.54 C 175.58 179.82 174.55 179.67 173.83 180.21 Z M 173.10 180.75 L 172.29 181.29 C 171.54 181.79 171.34 182.81 171.84 183.56 C 172.34 184.31 173.35 184.52 174.10 184.02 L 174.92 183.48 C 175.67 182.98 175.87 181.96 175.37 181.21 C 174.87 180.46 173.86 180.25 173.10 180.75 Z M 172.38 181.24 L 171.47 181.77 C 170.69 182.22 170.42 183.22 170.88 184.00 C 171.33 184.79 172.33 185.05 173.11 184.60 L 174.02 184.07 C 174.80 183.62 175.07 182.62 174.61 181.83 C 174.16 181.05 173.16 180.79 172.38 181.24 Z M 171.56 181.72 L 170.65 182.18 C 169.84 182.58 169.52 183.57 169.92 184.37 C 170.33 185.18 171.31 185.51 172.12 185.10 L 173.03 184.64 C 173.84 184.24 174.16 183.25 173.76 182.45 C 173.35 181.64 172.36 181.31 171.56 181.72 Z M 170.73 182.14 L 169.82 182.53 C 169.00 182.90 168.62 183.86 168.98 184.69 C 169.34 185.52 170.31 185.90 171.14 185.53 L 172.04 185.14 C 172.87 184.78 173.25 183.81 172.88 182.98 C 172.52 182.15 171.56 181.78 170.73 182.14 Z M 169.90 182.51 L 169.00 182.85 C 168.15 183.17 167.73 184.12 168.05 184.96 C 168.38 185.81 169.32 186.23 170.17 185.91 L 171.06 185.56 C 171.91 185.24 172.33 184.29 172.01 183.45 C 171.69 182.61 170.74 182.18 169.90 182.51 Z M 169.06 182.82 L 168.10 183.15 C 167.24 183.43 166.78 184.36 167.06 185.22 C 167.35 186.08 168.28 186.54 169.14 186.25 L 170.10 185.93 C 170.96 185.64 171.42 184.72 171.13 183.86 C 170.85 183.00 169.92 182.54 169.06 182.82 Z M 168.16 183.13 L 167.18 183.41 C 166.32 183.66 165.81 184.57 166.06 185.43 C 166.31 186.30 167.22 186.80 168.09 186.55 L 169.07 186.27 C 169.94 186.02 170.44 185.12 170.19 184.25 C 169.94 183.38 169.03 182.88 168.16 183.13 Z M 167.25 183.39 L 166.29 183.62 C 165.41 183.83 164.87 184.72 165.08 185.60 C 165.29 186.48 166.18 187.02 167.06 186.81 L 168.02 186.57 C 168.90 186.36 169.44 185.48 169.23 184.60 C 169.02 183.72 168.13 183.18 167.25 183.39 Z M 166.36 183.61 L 165.42 183.79 C 164.53 183.97 163.95 184.83 164.12 185.71 C 164.30 186.60 165.16 187.18 166.04 187.01 L 166.99 186.82 C 167.88 186.65 168.45 185.79 168.28 184.90 C 168.11 184.01 167.25 183.43 166.36 183.61 Z M 165.49 183.78 L 164.49 183.93 C 163.60 184.06 162.98 184.89 163.11 185.78 C 163.25 186.68 164.08 187.30 164.97 187.17 L 165.97 187.02 C 166.86 186.89 167.48 186.05 167.35 185.16 C 167.22 184.27 166.38 183.65 165.49 183.78 Z M 164.58 183.92 L 163.59 184.01 C 162.69 184.09 162.02 184.89 162.11 185.79 C 162.19 186.69 162.99 187.35 163.89 187.27 L 164.89 187.18 C 165.79 187.09 166.45 186.29 166.36 185.39 C 166.28 184.49 165.48 183.83 164.58 183.92 Z M 163.68 184.00 L 162.69 184.04 C 161.79 184.07 161.08 184.83 161.11 185.73 C 161.14 186.63 161.90 187.34 162.80 187.31 L 163.79 187.27 C 164.70 187.24 165.41 186.49 165.37 185.58 C 165.34 184.68 164.59 183.97 163.68 184.00 Z M 162.80 184.04 L 161.78 184.01 C 160.87 183.98 160.12 184.69 160.09 185.60 C 160.07 186.50 160.78 187.25 161.68 187.28 L 162.70 187.31 C 163.60 187.34 164.36 186.62 164.38 185.72 C 164.41 184.82 163.70 184.06 162.80 184.04 Z M 161.93 184.02 L 160.88 183.89 C 159.98 183.78 159.17 184.42 159.06 185.32 C 158.95 186.22 159.59 187.03 160.48 187.14 L 161.53 187.27 C 162.43 187.38 163.24 186.74 163.35 185.84 C 163.46 184.94 162.83 184.13 161.93 184.02 Z M 161.16 183.95 L 160.22 183.66 C 159.35 183.40 158.43 183.89 158.17 184.75 C 157.91 185.62 158.40 186.53 159.26 186.80 L 160.21 187.08 C 161.07 187.35 161.99 186.86 162.25 185.99 C 162.51 185.13 162.03 184.21 161.16 183.95 Z M 160.66 183.87 L 159.90 183.35 C 159.15 182.84 158.13 183.04 157.62 183.79 C 157.11 184.54 157.31 185.56 158.06 186.07 L 158.82 186.59 C 159.57 187.10 160.59 186.90 161.10 186.15 C 161.61 185.40 161.41 184.38 160.66 183.87 Z M 160.41 183.85 L 159.87 182.95 C 159.40 182.16 158.37 181.90 157.58 182.38 C 156.79 182.85 156.53 183.88 157.00 184.67 L 157.54 185.57 C 158.02 186.36 159.05 186.62 159.84 186.15 C 160.63 185.67 160.89 184.64 160.41 183.85 Z M 160.16 183.64 L 160.06 182.66 C 159.97 181.71 159.12 181.01 158.17 181.11 C 157.22 181.20 156.52 182.05 156.62 183.00 L 156.72 183.98 C 156.81 184.93 157.66 185.63 158.61 185.53 C 159.56 185.44 160.25 184.59 160.16 183.64 Z M 159.94 183.63 L 160.31 182.89 C 160.75 182.01 160.40 180.94 159.51 180.49 C 158.63 180.05 157.56 180.41 157.12 181.29 L 156.74 182.03 C 156.30 182.91 156.66 183.98 157.54 184.42 C 158.42 184.87 159.49 184.51 159.94 183.63 Z M 159.58 183.71 L 160.27 183.34 C 161.16 182.86 161.50 181.75 161.02 180.86 C 160.55 179.96 159.43 179.62 158.54 180.10 L 157.85 180.47 C 156.95 180.95 156.61 182.06 157.09 182.96 C 157.57 183.85 158.68 184.19 159.58 183.71 Z M 159.75 183.58 L 160.73 183.40 C 161.75 183.21 162.43 182.22 162.24 181.20 C 162.05 180.17 161.07 179.49 160.04 179.68 L 159.06 179.86 C 158.03 180.05 157.36 181.04 157.55 182.06 C 157.74 183.09 158.72 183.77 159.75 183.58 Z M 160.50 183.47 L 161.72 183.40 C 162.79 183.34 163.60 182.42 163.54 181.35 C 163.48 180.28 162.56 179.47 161.49 179.53 L 160.27 179.60 C 159.20 179.67 158.39 180.59 158.45 181.65 C 158.52 182.72 159.43 183.54 160.50 183.47 Z M 161.65 183.44 L 162.61 183.41 C 163.70 183.38 164.56 182.48 164.53 181.39 C 164.51 180.31 163.60 179.45 162.52 179.47 L 161.56 179.50 C 160.47 179.53 159.61 180.43 159.64 181.52 C 159.66 182.60 160.57 183.46 161.65 183.44 Z M 162.59 183.42 L 163.55 183.41 C 164.64 183.40 165.52 182.50 165.50 181.41 C 165.49 180.31 164.59 179.44 163.50 179.45 L 162.54 179.46 C 161.45 179.48 160.57 180.37 160.58 181.47 C 160.60 182.56 161.50 183.44 162.59 183.42 Z M 163.53 183.42 L 164.53 183.42 C 165.63 183.42 166.52 182.52 166.52 181.42 C 166.52 180.32 165.62 179.44 164.52 179.44 L 163.52 179.44 C 162.42 179.44 161.53 180.34 161.53 181.44 C 161.54 182.53 162.43 183.42 163.53 183.42 Z M 164.52 183.43 L 165.55 183.43 C 166.66 183.44 167.56 182.55 167.57 181.45 C 167.57 180.35 166.68 179.45 165.58 179.44 L 164.54 179.43 C 163.44 179.42 162.54 180.31 162.53 181.41 C 162.52 182.52 163.41 183.42 164.52 183.43 Z M 165.54 183.44 L 166.59 183.46 C 167.70 183.48 168.61 182.59 168.63 181.48 C 168.65 180.38 167.76 179.46 166.66 179.45 L 165.60 179.43 C 164.49 179.41 163.58 180.30 163.56 181.40 C 163.54 182.51 164.43 183.42 165.54 183.44 Z M 166.57 183.46 L 167.65 183.49 C 168.76 183.52 169.68 182.64 169.71 181.53 C 169.74 180.42 168.86 179.49 167.75 179.47 L 166.68 179.44 C 165.56 179.41 164.64 180.29 164.61 181.40 C 164.58 182.51 165.46 183.44 166.57 183.46 Z M 167.63 183.49 L 168.69 183.53 C 169.81 183.56 170.74 182.69 170.77 181.58 C 170.81 180.47 169.94 179.54 168.83 179.50 L 167.76 179.46 C 166.65 179.43 165.72 180.30 165.68 181.41 C 165.64 182.53 166.52 183.46 167.63 183.49 Z M 168.68 183.53 L 169.72 183.57 C 170.83 183.61 171.77 182.74 171.81 181.63 C 171.85 180.52 170.99 179.58 169.87 179.54 L 168.84 179.50 C 167.72 179.46 166.79 180.32 166.74 181.44 C 166.70 182.55 167.57 183.49 168.68 183.53 Z M 169.71 183.57 L 170.70 183.61 C 171.81 183.66 172.76 182.80 172.80 181.68 C 172.85 180.57 171.99 179.63 170.87 179.58 L 169.88 179.54 C 168.77 179.49 167.83 180.35 167.78 181.47 C 167.73 182.58 168.60 183.52 169.71 183.57 Z M 170.70 183.61 L 171.63 183.66 C 172.74 183.71 173.68 182.84 173.73 181.73 C 173.78 180.62 172.92 179.67 171.81 179.62 L 170.88 179.58 C 169.76 179.53 168.82 180.39 168.77 181.51 C 168.72 182.62 169.58 183.56 170.70 183.61 Z M 171.63 183.66 L 172.62 183.70 C 173.74 183.75 174.68 182.89 174.73 181.78 C 174.78 180.66 173.92 179.72 172.81 179.67 L 171.81 179.62 C 170.69 179.57 169.75 180.43 169.70 181.55 C 169.65 182.66 170.51 183.61 171.63 183.66 Z M 172.63 183.70 L 173.68 183.75 C 174.80 183.79 175.74 182.93 175.78 181.81 C 175.83 180.70 174.97 179.76 173.85 179.71 L 172.80 179.67 C 171.69 179.62 170.74 180.48 170.70 181.60 C 170.65 182.71 171.51 183.65 172.63 183.70 Z M 173.69 183.75 L 174.65 183.78 C 175.77 183.82 176.71 182.95 176.75 181.84 C 176.79 180.72 175.92 179.79 174.80 179.74 L 173.84 179.71 C 172.73 179.67 171.79 180.54 171.75 181.65 C 171.71 182.77 172.58 183.71 173.69 183.75 Z M 174.67 183.78 L 175.60 183.81 C 176.72 183.84 177.65 182.96 177.68 181.84 C 177.71 180.73 176.83 179.80 175.71 179.77 L 174.78 179.74 C 173.67 179.71 172.74 180.59 172.71 181.71 C 172.68 182.82 173.56 183.75 174.67 183.78 Z M 175.62 183.81 L 176.59 183.82 C 177.71 183.84 178.62 182.95 178.64 181.84 C 178.66 180.72 177.77 179.80 176.66 179.79 L 175.69 179.77 C 174.57 179.75 173.66 180.64 173.64 181.76 C 173.62 182.87 174.51 183.79 175.62 183.81 Z M 176.61 183.82 L 177.61 183.83 C 178.72 183.83 179.63 182.94 179.64 181.83 C 179.65 180.72 178.75 179.81 177.64 179.80 L 176.64 179.79 C 175.53 179.78 174.62 180.68 174.61 181.79 C 174.60 182.90 175.50 183.81 176.61 183.82 Z M 177.62 183.82 L 178.63 183.82 C 179.74 183.83 180.64 182.93 180.64 181.82 C 180.65 180.71 179.75 179.81 178.64 179.81 L 177.63 179.80 C 176.52 179.80 175.62 180.70 175.62 181.81 C 175.61 182.92 176.51 183.82 177.62 183.82 Z M 178.64 183.82 L 179.64 183.82 C 180.75 183.82 181.65 182.92 181.65 181.82 C 181.65 180.71 180.75 179.81 179.65 179.81 L 178.64 179.81 C 177.53 179.81 176.63 180.71 176.63 181.81 C 176.63 182.92 177.53 183.82 178.64 183.82 Z M 179.65 183.81 L 180.65 183.81 C 181.75 183.81 182.65 182.92 182.65 181.82 C 182.65 180.71 181.75 179.82 180.65 179.82 L 179.65 179.82 C 178.54 179.82 177.65 180.71 177.65 181.82 C 177.65 182.92 178.54 183.81 179.65 183.81 Z M 180.65 183.81 L 181.65 183.81 C 182.75 183.81 183.64 182.91 183.64 181.82 C 183.64 180.72 182.75 179.82 181.65 179.82 L 180.65 179.82 C 179.55 179.82 178.66 180.72 178.66 181.82 C 178.66 182.91 179.55 183.81 180.65 183.81 Z M 181.65 183.80 L 182.64 183.80 C 183.74 183.80 184.63 182.91 184.63 181.82 C 184.63 180.72 183.74 179.83 182.64 179.83 L 181.65 179.83 C 180.55 179.83 179.66 180.72 179.66 181.82 C 179.66 182.91 180.55 183.80 181.65 183.80 Z M 182.64 183.79 L 183.64 183.79 C 184.73 183.79 185.62 182.91 185.62 181.82 C 185.62 180.72 184.73 179.84 183.64 179.84 L 182.64 179.84 C 181.55 179.84 180.67 180.72 180.67 181.82 C 180.67 182.91 181.55 183.79 182.64 183.79 Z M 183.64 183.78 L 184.64 183.78 C 185.73 183.78 186.61 182.90 186.61 181.82 C 186.61 180.73 185.73 179.85 184.64 179.85 L 183.64 179.85 C 182.55 179.85 181.67 180.73 181.67 181.82 C 181.67 182.90 182.55 183.78 183.64 183.78 Z M 184.64 183.77 L 185.64 183.77 C 186.72 183.77 187.60 182.90 187.60 181.82 C 187.60 180.73 186.72 179.86 185.64 179.86 L 184.64 179.86 C 183.56 179.86 182.69 180.73 182.69 181.82 C 182.69 182.90 183.56 183.77 184.64 183.77 Z M 185.64 183.76 L 186.64 183.76 C 187.72 183.76 188.59 182.89 188.59 181.82 C 188.59 180.74 187.72 179.87 186.64 179.87 L 185.64 179.87 C 184.57 179.87 183.70 180.74 183.70 181.82 C 183.70 182.89 184.57 183.76 185.64 183.76 Z M 186.65 183.75 L 187.65 183.75 C 188.72 183.75 189.59 182.88 189.58 181.81 C 189.58 180.74 188.71 179.88 187.65 179.88 L 186.64 179.88 C 185.57 179.88 184.71 180.75 184.71 181.82 C 184.71 182.89 185.58 183.75 186.65 183.75 Z M 187.67 183.74 L 188.67 183.73 C 189.73 183.72 190.58 182.85 190.57 181.79 C 190.56 180.73 189.69 179.87 188.63 179.88 L 187.63 179.89 C 186.57 179.90 185.72 180.77 185.73 181.83 C 185.74 182.89 186.61 183.75 187.67 183.74 Z M 188.69 183.71 L 189.69 183.69 C 190.74 183.67 191.58 182.79 191.55 181.74 C 191.53 180.68 190.65 179.85 189.60 179.87 L 188.61 179.89 C 187.55 179.92 186.72 180.79 186.74 181.85 C 186.76 182.90 187.64 183.74 188.69 183.71 Z M 189.72 183.68 L 190.73 183.63 C 191.78 183.59 192.59 182.70 192.55 181.66 C 192.50 180.61 191.62 179.80 190.57 179.85 L 189.56 179.89 C 188.52 179.93 187.71 180.82 187.75 181.86 C 187.79 182.91 188.68 183.72 189.72 183.68 Z M 190.77 183.61 L 191.78 183.55 C 192.82 183.48 193.60 182.58 193.53 181.55 C 193.47 180.52 192.57 179.73 191.54 179.80 L 190.53 179.87 C 189.49 179.93 188.71 180.83 188.78 181.86 C 188.85 182.90 189.74 183.68 190.77 183.61 Z M 191.83 183.52 L 192.82 183.43 C 193.84 183.34 194.59 182.44 194.50 181.42 C 194.41 180.40 193.51 179.64 192.49 179.73 L 191.49 179.82 C 190.47 179.92 189.72 180.82 189.81 181.84 C 189.90 182.86 190.81 183.61 191.83 183.52 Z M 192.86 183.41 L 193.84 183.29 C 194.85 183.18 195.57 182.26 195.46 181.26 C 195.34 180.25 194.43 179.53 193.42 179.64 L 192.44 179.76 C 191.43 179.88 190.71 180.79 190.83 181.80 C 190.94 182.80 191.86 183.53 192.86 183.41 Z M 193.89 183.27 L 194.87 183.13 C 195.87 182.99 196.56 182.07 196.42 181.07 C 196.28 180.08 195.36 179.39 194.36 179.53 L 193.37 179.67 C 192.38 179.81 191.69 180.73 191.83 181.73 C 191.97 182.72 192.89 183.41 193.89 183.27 Z M 194.90 183.10 L 195.88 182.95 C 196.86 182.79 197.53 181.87 197.37 180.89 C 197.22 179.91 196.29 179.24 195.31 179.40 L 194.34 179.56 C 193.36 179.71 192.69 180.63 192.84 181.61 C 193.00 182.59 193.92 183.26 194.90 183.10 Z M 195.89 182.92 L 196.87 182.76 C 197.84 182.60 198.50 181.69 198.34 180.72 C 198.18 179.75 197.27 179.10 196.30 179.26 L 195.31 179.42 C 194.34 179.58 193.69 180.49 193.85 181.46 C 194.01 182.43 194.92 183.08 195.89 182.92 Z M 196.87 182.74 L 197.79 182.59 C 198.74 182.44 199.39 181.54 199.24 180.58 C 199.08 179.62 198.18 178.97 197.22 179.13 L 196.31 179.28 C 195.35 179.43 194.70 180.33 194.86 181.29 C 195.01 182.25 195.91 182.90 196.87 182.74 Z M 197.79 182.57 L 198.76 182.41 C 199.70 182.25 200.34 181.36 200.18 180.41 C 200.02 179.47 199.13 178.83 198.19 178.99 L 197.22 179.15 C 196.28 179.31 195.64 180.20 195.80 181.15 C 195.96 182.09 196.85 182.73 197.79 182.57 Z M 198.77 182.38 L 199.80 182.20 C 200.73 182.03 201.34 181.14 201.18 180.21 C 201.01 179.28 200.12 178.67 199.19 178.83 L 198.17 179.02 C 197.24 179.18 196.62 180.07 196.79 181.00 C 196.96 181.93 197.84 182.55 198.77 182.38 Z M 199.82 182.17 L 200.85 181.97 C 201.77 181.79 202.36 180.90 202.18 179.98 C 202.00 179.07 201.11 178.47 200.19 178.65 L 199.17 178.86 C 198.25 179.04 197.66 179.93 197.84 180.84 C 198.02 181.76 198.91 182.36 199.82 182.17 Z M 200.87 181.95 L 201.86 181.74 C 202.77 181.55 203.35 180.65 203.15 179.75 C 202.96 178.84 202.07 178.26 201.16 178.46 L 200.17 178.67 C 199.26 178.87 198.69 179.76 198.88 180.66 C 199.08 181.57 199.97 182.15 200.87 181.95 Z M 201.88 181.73 L 202.88 181.50 C 203.78 181.30 204.34 180.41 204.14 179.51 C 203.94 178.61 203.05 178.05 202.15 178.25 L 201.15 178.47 C 200.25 178.67 199.68 179.57 199.88 180.46 C 200.09 181.36 200.98 181.93 201.88 181.73 Z M 202.88 181.49 L 203.86 181.27 C 204.75 181.06 205.31 180.17 205.11 179.28 C 204.90 178.39 204.01 177.83 203.12 178.03 L 202.14 178.26 C 201.25 178.46 200.69 179.35 200.90 180.24 C 201.10 181.14 201.99 181.70 202.88 181.49 Z M 203.86 181.26 L 204.83 181.04 C 205.72 180.83 206.28 179.95 206.07 179.06 C 205.87 178.17 204.99 177.62 204.10 177.82 L 203.12 178.04 C 202.23 178.25 201.68 179.13 201.88 180.02 C 202.09 180.91 202.97 181.46 203.86 181.26 Z M 204.83 181.03 L 205.86 180.80 C 206.75 180.60 207.31 179.72 207.11 178.84 C 206.91 177.95 206.03 177.39 205.14 177.59 L 204.11 177.82 C 203.22 178.02 202.66 178.90 202.86 179.79 C 203.06 180.67 203.94 181.23 204.83 181.03 Z M 205.86 180.80 L 206.81 180.59 C 207.70 180.39 208.26 179.52 208.06 178.63 C 207.87 177.75 206.99 177.19 206.10 177.38 L 205.15 177.59 C 204.26 177.79 203.70 178.66 203.90 179.55 C 204.09 180.43 204.97 180.99 205.86 180.80 Z M 206.81 180.59 L 207.72 180.39 C 208.60 180.19 209.16 179.32 208.97 178.44 C 208.78 177.55 207.91 176.99 207.02 177.18 L 206.11 177.38 C 205.22 177.58 204.66 178.45 204.86 179.33 C 205.05 180.22 205.92 180.78 206.81 180.59 Z M 207.72 180.39 L 207.82 180.36 C 208.70 180.17 209.26 179.30 209.07 178.42 C 208.88 177.53 208.01 176.97 207.12 177.16 L 207.02 177.19 C 206.14 177.38 205.58 178.25 205.77 179.13 C 205.96 180.02 206.83 180.58 207.72 180.39 Z"
      fill="black"
      fill-rule="nonzero" /></svg>