<svg xmlns="http://www.w3.org/2000/svg" width="300" height="300" viewBox="0 0 300 300">
<path d="M 135.43 129.22 L 135.46 130.14 C 135.50 131.14 136.34 131.92 137.34 131.88 C 138.34 131.84 139.12 131.00 139.08 130.00 L 139.04 129.08 C 139.01 128.08 138.17 127.30 137.17 127.34 C 136.17 127.38 135.39 128.22 135.43 129.22 Z M 135.46 130.13 L 135.49 131.09 C 135.53 132.09 136.36 132.87 137.36 132.84 C 138.36 132.80 139.14 131.97 139.11 130.97 L 139.08 130.01 C 139.04 129.01 138.21 128.23 137.21 128.26 C 136.21 128.30 135.43 129.13 135.46 130.13 Z M 135.49 131.08 L 135.52 132.11 C 135.55 133.10 136.38 133.89 137.38 133.87 C 138.38 133.84 139.17 133.01 139.14 132.01 L 139.11 130.98 C 139.08 129.98 138.25 129.19 137.25 129.22 C 136.26 129.25 135.47 130.08 135.49 131.08 Z M 135.52 132.09 L 135.54 133.14 C 135.56 134.13 136.38 134.93 137.38 134.91 C 138.38 134.89 139.17 134.07 139.16 133.07 L 139.14 132.02 C 139.12 131.03 138.30 130.23 137.30 130.25 C 136.30 130.27 135.50 131.09 135.52 132.09 Z M 135.54 133.13 L 135.56 133.99 C 135.57 134.98 136.39 135.78 137.39 135.76 C 138.38 135.75 139.18 134.93 139.16 133.93 L 139.15 133.08 C 139.14 132.08 138.32 131.28 137.32 131.30 C 136.33 131.31 135.53 132.13 135.54 133.13 Z M 135.57 134.00 L 135.59 134.93 C 135.61 135.92 136.43 136.70 137.42 136.68 C 138.41 136.66 139.20 135.84 139.18 134.84 L 139.16 133.92 C 139.13 132.93 138.31 132.14 137.32 132.17 C 136.33 132.19 135.54 133.01 135.57 134.00 Z M 135.60 134.96 L 135.64 135.96 C 135.68 136.94 136.51 137.71 137.50 137.67 C 138.48 137.63 139.25 136.79 139.21 135.81 L 139.17 134.81 C 139.13 133.83 138.29 133.06 137.31 133.10 C 136.32 133.14 135.56 133.97 135.60 134.96 Z M 135.65 136.00 L 135.72 137.07 C 135.79 138.05 136.63 138.79 137.61 138.73 C 138.60 138.66 139.34 137.81 139.27 136.83 L 139.20 135.76 C 139.13 134.78 138.28 134.04 137.30 134.11 C 136.32 134.17 135.58 135.02 135.65 136.00 Z M 135.73 137.13 L 135.85 138.28 C 135.94 139.25 136.81 139.96 137.78 139.86 C 138.76 139.77 139.47 138.90 139.37 137.93 L 139.26 136.78 C 139.16 135.80 138.29 135.09 137.32 135.19 C 136.35 135.29 135.64 136.15 135.73 137.13 Z M 135.86 138.33 L 135.99 139.28 C 136.11 140.25 137.00 140.93 137.96 140.80 C 138.93 140.68 139.61 139.79 139.48 138.83 L 139.36 137.87 C 139.23 136.91 138.35 136.23 137.38 136.35 C 136.42 136.48 135.74 137.36 135.86 138.33 Z M 136.00 139.32 L 136.15 140.26 C 136.30 141.22 137.19 141.87 138.15 141.72 C 139.10 141.57 139.76 140.68 139.61 139.73 L 139.46 138.79 C 139.31 137.83 138.42 137.18 137.47 137.33 C 136.51 137.47 135.86 138.37 136.00 139.32 Z M 136.17 140.29 L 136.34 141.26 C 136.50 142.21 137.40 142.84 138.35 142.67 C 139.29 142.51 139.93 141.61 139.76 140.66 L 139.59 139.69 C 139.42 138.75 138.52 138.12 137.58 138.28 C 136.63 138.45 136.00 139.35 136.17 140.29 Z M 136.36 141.29 L 136.55 142.28 C 136.73 143.22 137.63 143.83 138.57 143.65 C 139.50 143.47 140.12 142.56 139.93 141.63 L 139.74 140.64 C 139.56 139.70 138.66 139.09 137.72 139.27 C 136.79 139.45 136.18 140.36 136.36 141.29 Z M 136.57 142.31 L 136.78 143.31 C 136.97 144.24 137.88 144.83 138.81 144.64 C 139.73 144.44 140.32 143.53 140.13 142.61 L 139.92 141.60 C 139.72 140.68 138.81 140.09 137.89 140.28 C 136.96 140.47 136.37 141.38 136.57 142.31 Z M 136.80 143.33 L 137.02 144.35 C 137.23 145.26 138.14 145.84 139.05 145.63 C 139.97 145.43 140.55 144.52 140.34 143.60 L 140.11 142.59 C 139.90 141.67 139.00 141.10 138.08 141.30 C 137.16 141.51 136.59 142.42 136.80 143.33 Z M 137.04 144.37 L 137.28 145.38 C 137.50 146.29 138.41 146.85 139.32 146.63 C 140.22 146.41 140.78 145.50 140.56 144.60 L 140.32 143.58 C 140.11 142.68 139.20 142.12 138.29 142.33 C 137.38 142.55 136.82 143.46 137.04 144.37 Z M 137.30 145.40 L 137.56 146.44 C 137.79 147.34 138.70 147.88 139.60 147.66 C 140.49 147.43 141.04 146.52 140.81 145.62 L 140.55 144.58 C 140.32 143.68 139.41 143.14 138.51 143.36 C 137.62 143.59 137.07 144.50 137.30 145.40 Z M 137.57 146.46 L 137.86 147.52 C 138.09 148.41 139.00 148.94 139.90 148.71 C 140.79 148.47 141.32 147.56 141.08 146.67 L 140.80 145.60 C 140.56 144.71 139.65 144.18 138.76 144.42 C 137.87 144.65 137.34 145.57 137.57 146.46 Z M 137.86 147.54 L 138.15 148.57 C 138.39 149.46 139.31 149.98 140.20 149.73 C 141.08 149.49 141.60 148.57 141.36 147.69 L 141.07 146.65 C 140.83 145.77 139.91 145.25 139.03 145.49 C 138.14 145.73 137.62 146.65 137.86 147.54 Z M 138.16 148.58 L 138.44 149.58 C 138.69 150.46 139.61 150.97 140.49 150.72 C 141.37 150.47 141.88 149.55 141.63 148.67 L 141.35 147.67 C 141.10 146.79 140.18 146.28 139.30 146.53 C 138.42 146.79 137.91 147.70 138.16 148.58 Z M 138.45 149.59 L 138.73 150.54 C 138.99 151.42 139.90 151.92 140.78 151.66 C 141.66 151.40 142.16 150.49 141.90 149.61 L 141.62 148.66 C 141.37 147.79 140.45 147.28 139.57 147.54 C 138.70 147.80 138.20 148.71 138.45 149.59 Z M 138.74 150.55 L 139.00 151.44 C 139.26 152.31 140.18 152.81 141.05 152.55 C 141.93 152.29 142.42 151.37 142.16 150.50 L 141.89 149.60 C 141.63 148.73 140.72 148.24 139.85 148.50 C 138.97 148.76 138.48 149.67 138.74 150.55 Z M 139.01 151.44 L 139.26 152.27 C 139.52 153.14 140.44 153.63 141.31 153.37 C 142.18 153.11 142.67 152.19 142.40 151.32 L 142.15 150.49 C 141.89 149.63 140.98 149.14 140.11 149.40 C 139.24 149.66 138.75 150.58 139.01 151.44 Z M 139.27 152.27 L 139.59 153.33 C 139.85 154.19 140.76 154.68 141.63 154.42 C 142.50 154.16 142.98 153.24 142.72 152.38 L 142.40 151.32 C 142.14 150.46 141.22 149.97 140.36 150.23 C 139.49 150.49 139.00 151.41 139.27 152.27 Z M 139.59 153.33 L 139.90 154.37 C 140.17 155.23 141.08 155.72 141.95 155.45 C 142.81 155.19 143.30 154.27 143.04 153.41 L 142.72 152.38 C 142.46 151.51 141.54 151.02 140.68 151.29 C 139.81 151.55 139.32 152.47 139.59 153.33 Z M 139.90 154.37 L 140.18 155.28 C 140.45 156.15 141.36 156.63 142.23 156.37 C 143.09 156.10 143.58 155.19 143.31 154.32 L 143.03 153.41 C 142.77 152.54 141.85 152.06 140.99 152.32 C 140.13 152.59 139.64 153.50 139.90 154.37 Z M 140.18 155.28 L 140.44 156.13 C 140.71 156.99 141.62 157.47 142.49 157.21 C 143.35 156.94 143.84 156.03 143.57 155.16 L 143.31 154.32 C 143.05 153.46 142.13 152.97 141.27 153.24 C 140.40 153.50 139.92 154.42 140.18 155.28 Z M 140.44 156.13 L 140.58 156.56 C 140.84 157.42 141.76 157.91 142.62 157.64 C 143.49 157.38 143.97 156.46 143.71 155.60 L 143.57 155.16 C 143.31 154.30 142.39 153.81 141.53 154.08 C 140.66 154.35 140.18 155.26 140.44 156.13 Z"
      fill="black"
      fill-rule="nonzero" /><path d="M 136.64 130.63 L 137.53 130.40 C 138.49 130.14 139.07 129.15 138.81 128.18 C 138.55 127.22 137.56 126.64 136.60 126.90 L 135.71 127.13 C 134.74 127.39 134.17 128.38 134.42 129.35 C 134.68 130.31 135.67 130.89 136.64 130.63 Z M 137.50 130.45 L 138.43 130.22 C 139.42 129.98 140.03 128.97 139.78 127.98 C 139.54 126.98 138.54 126.38 137.54 126.62 L 136.62 126.85 C 135.62 127.09 135.02 128.09 135.26 129.09 C 135.50 130.08 136.51 130.69 137.50 130.45 Z M 138.37 130.28 L 139.37 130.07 C 140.40 129.85 141.05 128.85 140.84 127.82 C 140.62 126.80 139.62 126.14 138.59 126.35 L 137.60 126.56 C 136.57 126.78 135.91 127.78 136.13 128.81 C 136.34 129.83 137.35 130.49 138.37 130.28 Z M 139.30 130.12 L 140.39 129.94 C 141.45 129.77 142.16 128.77 141.99 127.72 C 141.81 126.66 140.82 125.95 139.76 126.12 L 138.67 126.30 C 137.61 126.47 136.90 127.47 137.07 128.53 C 137.24 129.58 138.24 130.30 139.30 130.12 Z M 140.32 129.97 L 141.29 129.85 C 142.36 129.72 143.12 128.74 142.99 127.67 C 142.86 126.59 141.88 125.83 140.80 125.97 L 139.83 126.09 C 138.76 126.22 138.00 127.20 138.13 128.28 C 138.27 129.35 139.25 130.11 140.32 129.97 Z M 141.24 129.85 L 142.27 129.75 C 143.34 129.65 144.12 128.69 144.02 127.62 C 143.91 126.54 142.95 125.76 141.88 125.86 L 140.86 125.96 C 139.78 126.07 139.00 127.03 139.10 128.10 C 139.21 129.18 140.17 129.96 141.24 129.85 Z M 142.23 129.75 L 143.26 129.67 C 144.34 129.59 145.14 128.65 145.05 127.57 C 144.97 126.50 144.03 125.69 142.95 125.78 L 141.92 125.86 C 140.84 125.95 140.04 126.89 140.13 127.96 C 140.21 129.04 141.15 129.84 142.23 129.75 Z M 143.23 129.67 L 144.23 129.61 C 145.31 129.54 146.12 128.61 146.06 127.54 C 145.99 126.46 145.06 125.65 143.99 125.72 L 142.98 125.78 C 141.91 125.85 141.09 126.77 141.16 127.85 C 141.23 128.92 142.15 129.74 143.23 129.67 Z M 144.21 129.61 L 145.19 129.56 C 146.26 129.51 147.09 128.59 147.04 127.52 C 146.98 126.44 146.07 125.62 145.00 125.67 L 144.01 125.72 C 142.94 125.77 142.11 126.68 142.16 127.76 C 142.22 128.83 143.13 129.66 144.21 129.61 Z M 145.16 129.56 L 146.26 129.52 C 147.34 129.49 148.18 128.59 148.14 127.51 C 148.11 126.44 147.21 125.60 146.13 125.63 L 145.03 125.67 C 143.95 125.71 143.11 126.61 143.15 127.68 C 143.18 128.75 144.08 129.59 145.16 129.56 Z M 146.23 129.52 L 147.22 129.50 C 148.29 129.48 149.14 128.60 149.13 127.53 C 149.11 126.46 148.22 125.60 147.15 125.62 L 146.17 125.64 C 145.10 125.65 144.24 126.54 144.26 127.61 C 144.28 128.68 145.16 129.54 146.23 129.52 Z M 147.19 129.50 L 148.11 129.49 C 149.18 129.49 150.05 128.62 150.04 127.55 C 150.04 126.48 149.17 125.61 148.10 125.62 L 147.18 125.62 C 146.11 125.63 145.24 126.50 145.25 127.57 C 145.25 128.64 146.12 129.50 147.19 129.50 Z M 148.11 129.49 L 149.05 129.49 C 150.12 129.49 150.98 128.62 150.98 127.56 C 150.98 126.49 150.12 125.62 149.05 125.62 L 148.10 125.62 C 147.04 125.62 146.17 126.49 146.17 127.56 C 146.17 128.62 147.04 129.49 148.11 129.49 Z M 149.05 129.48 L 150.04 129.48 C 151.11 129.48 151.97 128.62 151.97 127.56 C 151.97 126.49 151.11 125.63 150.04 125.63 L 149.05 125.63 C 147.98 125.63 147.12 126.49 147.12 127.56 C 147.12 128.62 147.98 129.48 149.05 129.48 Z M 150.04 129.48 L 151.05 129.48 C 152.11 129.48 152.97 128.62 152.97 127.56 C 152.97 126.49 152.11 125.63 151.05 125.63 L 150.04 125.63 C 148.98 125.63 148.12 126.49 148.12 127.56 C 148.12 128.62 148.98 129.48 150.04 129.48 Z M 151.05 129.48 L 152.06 129.48 C 153.12 129.48 153.98 128.62 153.98 127.56 C 153.98 126.49 153.12 125.63 152.06 125.63 L 151.05 125.63 C 149.99 125.63 149.13 126.49 149.13 127.56 C 149.13 128.62 149.99 129.48 151.05 129.48 Z M 152.06 129.47 L 153.06 129.47 C 154.12 129.47 154.98 128.62 154.98 127.56 C 154.98 126.50 154.12 125.64 153.06 125.64 L 152.06 125.64 C 151.00 125.64 150.14 126.50 150.14 127.56 C 150.14 128.62 151.00 129.47 152.06 129.47 Z M 153.06 129.47 L 154.06 129.47 C 155.12 129.47 155.97 128.61 155.97 127.56 C 155.97 126.50 155.12 125.64 154.06 125.64 L 153.06 125.64 C 152.00 125.64 151.15 126.50 151.15 127.56 C 151.15 128.61 152.00 129.47 153.06 129.47 Z M 154.06 129.46 L 155.06 129.46 C 156.11 129.46 156.97 128.61 156.97 127.56 C 156.97 126.50 156.11 125.65 155.06 125.65 L 154.06 125.65 C 153.00 125.65 152.15 126.50 152.15 127.56 C 152.15 128.61 153.00 129.46 154.06 129.46 Z M 155.06 129.46 L 156.05 129.46 C 157.10 129.46 157.95 128.61 157.95 127.56 C 157.95 126.51 157.10 125.65 156.05 125.65 L 155.06 125.65 C 154.01 125.65 153.15 126.50 153.15 127.56 C 153.15 128.61 154.01 129.46 155.06 129.46 Z M 156.04 129.46 L 157.03 129.46 C 158.07 129.46 158.93 128.62 158.93 127.57 C 158.94 126.52 158.09 125.67 157.04 125.66 L 156.05 125.66 C 155.01 125.65 154.15 126.50 154.15 127.55 C 154.14 128.60 154.99 129.45 156.04 129.46 Z M 157.01 129.45 L 158.01 129.47 C 159.06 129.48 159.92 128.65 159.93 127.60 C 159.95 126.56 159.11 125.70 158.06 125.68 L 157.06 125.67 C 156.02 125.65 155.16 126.49 155.14 127.53 C 155.13 128.58 155.96 129.44 157.01 129.45 Z M 157.98 129.46 L 159.00 129.49 C 160.04 129.52 160.91 128.70 160.94 127.66 C 160.98 126.62 160.16 125.75 159.11 125.72 L 158.09 125.69 C 157.05 125.66 156.18 126.48 156.15 127.52 C 156.12 128.56 156.94 129.43 157.98 129.46 Z M 158.96 129.49 L 159.97 129.53 C 161.01 129.59 161.89 128.79 161.94 127.75 C 161.99 126.71 161.19 125.83 160.15 125.77 L 159.15 125.73 C 158.11 125.67 157.23 126.48 157.18 127.51 C 157.13 128.55 157.93 129.43 158.96 129.49 Z M 159.93 129.53 L 160.94 129.60 C 161.97 129.67 162.87 128.89 162.94 127.86 C 163.01 126.83 162.24 125.93 161.20 125.86 L 160.19 125.78 C 159.16 125.71 158.26 126.49 158.19 127.52 C 158.12 128.55 158.89 129.45 159.93 129.53 Z M 160.89 129.59 L 161.88 129.68 C 162.91 129.78 163.82 129.03 163.92 128.01 C 164.02 126.98 163.27 126.06 162.25 125.96 L 161.25 125.87 C 160.23 125.77 159.31 126.52 159.21 127.54 C 159.11 128.57 159.86 129.49 160.89 129.59 Z M 161.82 129.67 L 162.82 129.80 C 163.84 129.93 164.78 129.22 164.91 128.20 C 165.04 127.18 164.33 126.24 163.31 126.11 L 162.31 125.98 C 161.29 125.84 160.35 126.56 160.22 127.58 C 160.08 128.60 160.80 129.53 161.82 129.67 Z M 162.75 129.78 L 163.76 129.95 C 164.76 130.13 165.72 129.45 165.90 128.44 C 166.07 127.43 165.39 126.47 164.38 126.30 L 163.38 126.13 C 162.37 125.96 161.41 126.63 161.24 127.64 C 161.06 128.65 161.74 129.61 162.75 129.78 Z M 163.69 129.93 L 164.65 130.14 C 165.65 130.35 166.63 129.71 166.84 128.71 C 167.05 127.71 166.41 126.73 165.41 126.52 L 164.45 126.32 C 163.45 126.11 162.47 126.75 162.26 127.75 C 162.05 128.75 162.69 129.73 163.69 129.93 Z M 164.60 130.12 L 165.53 130.34 C 166.52 130.58 167.51 129.98 167.75 128.99 C 167.99 128.00 167.39 127.01 166.40 126.77 L 165.47 126.54 C 164.48 126.30 163.49 126.91 163.24 127.89 C 163.00 128.88 163.61 129.88 164.60 130.12 Z M 165.48 130.32 L 166.35 130.56 C 167.32 130.83 168.33 130.25 168.60 129.28 C 168.87 128.30 168.29 127.29 167.32 127.03 L 166.45 126.79 C 165.47 126.52 164.46 127.10 164.20 128.07 C 163.93 129.05 164.50 130.06 165.48 130.32 Z M 166.30 130.54 L 167.21 130.82 C 168.18 131.12 169.20 130.57 169.49 129.61 C 169.79 128.64 169.24 127.62 168.28 127.33 L 167.37 127.05 C 166.40 126.75 165.38 127.29 165.08 128.26 C 164.79 129.22 165.33 130.24 166.30 130.54 Z M 167.16 130.80 L 168.17 131.14 C 169.13 131.46 170.16 130.95 170.48 130.00 C 170.80 129.05 170.29 128.01 169.34 127.69 L 168.33 127.35 C 167.38 127.03 166.34 127.54 166.02 128.49 C 165.70 129.44 166.21 130.48 167.16 130.80 Z M 168.14 131.12 L 169.11 131.47 C 170.05 131.82 171.09 131.33 171.43 130.39 C 171.77 129.45 171.29 128.41 170.35 128.06 L 169.38 127.71 C 168.43 127.37 167.39 127.85 167.05 128.79 C 166.71 129.74 167.20 130.78 168.14 131.12 Z M 169.08 131.46 L 169.96 131.80 C 170.89 132.15 171.94 131.69 172.30 130.75 C 172.66 129.82 172.19 128.77 171.26 128.42 L 170.38 128.08 C 169.44 127.72 168.39 128.19 168.04 129.12 C 167.68 130.05 168.15 131.10 169.08 131.46 Z M 169.93 131.78 L 170.86 132.16 C 171.79 132.53 172.84 132.08 173.21 131.16 C 173.59 130.23 173.14 129.18 172.21 128.81 L 171.28 128.43 C 170.36 128.06 169.31 128.50 168.93 129.43 C 168.56 130.35 169.01 131.41 169.93 131.78 Z M 170.83 132.14 L 171.78 132.55 C 172.70 132.94 173.76 132.51 174.15 131.60 C 174.54 130.68 174.12 129.62 173.20 129.23 L 172.25 128.82 C 171.33 128.43 170.27 128.86 169.88 129.77 C 169.49 130.69 169.91 131.75 170.83 132.14 Z M 171.74 132.53 L 172.70 132.96 C 173.60 133.37 174.67 132.98 175.08 132.07 C 175.49 131.17 175.10 130.10 174.19 129.69 L 173.24 129.25 C 172.33 128.84 171.27 129.24 170.85 130.14 C 170.44 131.04 170.84 132.11 171.74 132.53 Z M 172.65 132.93 L 173.60 133.41 C 174.49 133.85 175.57 133.48 176.01 132.59 C 176.45 131.70 176.08 130.63 175.19 130.19 L 174.24 129.72 C 173.35 129.28 172.27 129.64 171.83 130.53 C 171.39 131.42 171.76 132.50 172.65 132.93 Z M 173.55 133.37 L 174.50 133.89 C 175.37 134.36 176.45 134.03 176.92 133.16 C 177.39 132.29 177.07 131.21 176.20 130.74 L 175.25 130.22 C 174.38 129.75 173.29 130.07 172.82 130.94 C 172.35 131.81 172.68 132.90 173.55 133.37 Z M 174.43 133.84 L 175.33 134.38 C 176.17 134.88 177.27 134.60 177.77 133.76 C 178.28 132.91 178.00 131.82 177.15 131.31 L 176.26 130.78 C 175.42 130.27 174.32 130.55 173.82 131.40 C 173.31 132.24 173.59 133.34 174.43 133.84 Z M 175.26 134.33 L 176.08 134.87 C 176.90 135.41 178.00 135.19 178.54 134.37 C 179.08 133.55 178.86 132.45 178.04 131.90 L 177.22 131.36 C 176.40 130.82 175.30 131.04 174.76 131.86 C 174.21 132.68 174.44 133.78 175.26 134.33 Z M 176.00 134.81 L 176.74 135.36 C 177.52 135.94 178.63 135.78 179.22 135.00 C 179.80 134.21 179.64 133.10 178.86 132.52 L 178.12 131.97 C 177.33 131.38 176.22 131.54 175.64 132.33 C 175.05 133.11 175.21 134.22 176.00 134.81 Z M 176.64 135.27 L 177.37 135.90 C 178.10 136.54 179.22 136.46 179.86 135.72 C 180.50 134.99 180.42 133.87 179.68 133.23 L 178.95 132.60 C 178.22 131.96 177.10 132.04 176.46 132.78 C 175.82 133.52 175.90 134.63 176.64 135.27 Z M 177.22 135.76 L 177.89 136.48 C 178.54 137.20 179.66 137.25 180.37 136.59 C 181.09 135.94 181.14 134.82 180.49 134.10 L 179.82 133.38 C 179.17 132.66 178.05 132.61 177.34 133.27 C 176.62 133.92 176.57 135.04 177.22 135.76 Z M 177.72 136.25 L 178.25 137.06 C 178.78 137.87 179.86 138.09 180.67 137.56 C 181.48 137.03 181.71 135.94 181.18 135.13 L 180.65 134.33 C 180.12 133.52 179.03 133.29 178.22 133.83 C 177.41 134.36 177.19 135.44 177.72 136.25 Z M 178.11 136.79 L 178.51 137.72 C 178.89 138.60 179.92 139.01 180.81 138.63 C 181.69 138.24 182.10 137.21 181.72 136.33 L 181.32 135.40 C 180.93 134.51 179.90 134.11 179.02 134.49 C 178.13 134.87 177.72 135.90 178.11 136.79 Z M 178.43 137.48 L 178.69 138.44 C 178.94 139.37 179.90 139.92 180.83 139.67 C 181.76 139.42 182.31 138.46 182.06 137.53 L 181.80 136.57 C 181.55 135.64 180.59 135.09 179.66 135.34 C 178.73 135.59 178.18 136.55 178.43 137.48 Z M 178.65 138.26 L 178.81 139.27 C 178.96 140.22 179.85 140.87 180.80 140.72 C 181.75 140.57 182.40 139.68 182.25 138.73 L 182.09 137.72 C 181.94 136.77 181.05 136.12 180.10 136.27 C 179.15 136.42 178.50 137.31 178.65 138.26 Z M 178.80 139.10 L 178.86 140.14 C 178.92 141.10 179.74 141.83 180.70 141.78 C 181.66 141.72 182.39 140.90 182.33 139.94 L 182.27 138.90 C 182.21 137.94 181.39 137.21 180.43 137.26 C 179.47 137.32 178.74 138.14 178.80 139.10 Z M 178.86 139.96 L 178.81 140.96 C 178.77 141.92 179.51 142.73 180.47 142.78 C 181.42 142.82 182.24 142.08 182.28 141.13 L 182.33 140.12 C 182.38 139.16 181.64 138.35 180.68 138.31 C 179.72 138.26 178.91 139.00 178.86 139.96 Z M 178.84 140.72 L 178.66 141.67 C 178.48 142.61 179.10 143.52 180.04 143.70 C 180.98 143.88 181.89 143.26 182.07 142.32 L 182.25 141.37 C 182.43 140.43 181.81 139.52 180.87 139.34 C 179.93 139.16 179.02 139.78 178.84 140.72 Z M 178.77 141.33 L 178.37 142.28 C 178.00 143.16 178.41 144.18 179.30 144.55 C 180.18 144.92 181.19 144.50 181.57 143.62 L 181.96 142.67 C 182.33 141.78 181.92 140.77 181.04 140.40 C 180.15 140.03 179.14 140.44 178.77 141.33 Z M 178.55 141.94 L 177.99 142.73 C 177.44 143.51 177.62 144.59 178.40 145.15 C 179.18 145.70 180.26 145.52 180.82 144.74 L 181.38 143.95 C 181.93 143.17 181.75 142.09 180.97 141.54 C 180.19 140.98 179.11 141.17 178.55 141.94 Z M 178.17 142.52 L 177.49 143.21 C 176.82 143.89 176.83 144.99 177.51 145.66 C 178.19 146.33 179.29 146.32 179.96 145.64 L 180.64 144.95 C 181.31 144.27 181.30 143.17 180.62 142.50 C 179.94 141.83 178.84 141.84 178.17 142.52 Z M 177.59 143.12 L 176.87 143.74 C 176.15 144.37 176.07 145.46 176.70 146.18 C 177.32 146.90 178.42 146.98 179.14 146.36 L 179.86 145.74 C 180.58 145.11 180.66 144.02 180.04 143.30 C 179.41 142.57 178.32 142.49 177.59 143.12 Z M 176.93 143.70 L 176.17 144.30 C 175.43 144.90 175.30 145.99 175.90 146.73 C 176.50 147.48 177.59 147.60 178.33 147.00 L 179.09 146.40 C 179.83 145.81 179.96 144.72 179.36 143.97 C 178.76 143.22 177.67 143.10 176.93 143.70 Z M 176.21 144.27 L 175.40 144.88 C 174.64 145.46 174.49 146.54 175.07 147.31 C 175.65 148.07 176.73 148.22 177.49 147.64 L 178.30 147.03 C 179.06 146.45 179.21 145.37 178.63 144.61 C 178.06 143.84 176.97 143.69 176.21 144.27 Z M 175.42 144.87 L 174.57 145.49 C 173.80 146.06 173.64 147.14 174.20 147.91 C 174.77 148.68 175.85 148.85 176.62 148.28 L 177.47 147.66 C 178.24 147.09 178.41 146.01 177.84 145.24 C 177.28 144.47 176.20 144.30 175.42 144.87 Z M 174.58 145.48 L 173.79 146.06 C 173.01 146.62 172.84 147.70 173.40 148.47 C 173.96 149.25 175.04 149.42 175.82 148.86 L 176.61 148.29 C 177.39 147.73 177.56 146.65 177.00 145.87 C 176.44 145.10 175.36 144.92 174.58 145.48 Z M 173.80 146.05 L 173.00 146.62 C 172.22 147.18 172.04 148.26 172.59 149.04 C 173.14 149.81 174.22 150.00 175.00 149.44 L 175.81 148.87 C 176.59 148.32 176.77 147.23 176.21 146.46 C 175.66 145.68 174.58 145.50 173.80 146.05 Z M 173.01 146.61 L 172.18 147.19 C 171.40 147.73 171.20 148.81 171.75 149.59 C 172.29 150.38 173.37 150.57 174.16 150.03 L 174.99 149.45 C 175.77 148.91 175.97 147.83 175.42 147.04 C 174.88 146.26 173.80 146.06 173.01 146.61 Z M 172.21 147.17 L 171.36 147.74 C 170.56 148.27 170.35 149.35 170.88 150.14 C 171.42 150.94 172.49 151.15 173.29 150.61 L 174.14 150.04 C 174.93 149.51 175.14 148.44 174.61 147.64 C 174.08 146.85 173.00 146.64 172.21 147.17 Z M 171.39 147.72 L 170.54 148.26 C 169.73 148.78 169.50 149.85 170.02 150.66 C 170.53 151.46 171.60 151.70 172.41 151.18 L 173.26 150.63 C 174.06 150.12 174.30 149.05 173.78 148.24 C 173.26 147.44 172.19 147.20 171.39 147.72 Z M 170.57 148.24 L 169.73 148.75 C 168.91 149.25 168.66 150.32 169.16 151.14 C 169.66 151.95 170.72 152.21 171.54 151.71 L 172.38 151.20 C 173.19 150.70 173.45 149.63 172.95 148.82 C 172.45 148.00 171.39 147.74 170.57 148.24 Z M 169.76 148.73 L 168.91 149.23 C 168.08 149.71 167.80 150.78 168.28 151.61 C 168.76 152.44 169.83 152.72 170.66 152.23 L 171.51 151.73 C 172.34 151.25 172.62 150.19 172.14 149.36 C 171.65 148.53 170.59 148.25 169.76 148.73 Z M 168.93 149.21 L 168.06 149.70 C 167.22 150.17 166.92 151.23 167.39 152.07 C 167.85 152.91 168.91 153.21 169.75 152.74 L 170.63 152.25 C 171.47 151.78 171.77 150.72 171.30 149.88 C 170.83 149.04 169.77 148.74 168.93 149.21 Z M 168.08 149.69 L 167.18 150.17 C 166.33 150.63 166.01 151.68 166.47 152.53 C 166.92 153.38 167.98 153.70 168.83 153.24 L 169.73 152.76 C 170.58 152.30 170.90 151.24 170.44 150.40 C 169.98 149.55 168.93 149.23 168.08 149.69 Z M 167.20 150.16 L 166.32 150.61 C 165.47 151.05 165.14 152.11 165.58 152.96 C 166.03 153.82 167.08 154.15 167.94 153.71 L 168.81 153.26 C 169.66 152.81 170.00 151.76 169.55 150.90 C 169.11 150.04 168.05 149.71 167.20 150.16 Z M 166.34 150.60 L 165.47 151.04 C 164.60 151.48 164.26 152.53 164.69 153.39 C 165.13 154.25 166.18 154.60 167.04 154.16 L 167.92 153.72 C 168.78 153.29 169.13 152.23 168.69 151.37 C 168.26 150.51 167.20 150.16 166.34 150.60 Z M 165.48 151.03 L 164.59 151.47 C 163.72 151.90 163.36 152.95 163.79 153.81 C 164.21 154.68 165.26 155.04 166.13 154.61 L 167.03 154.17 C 167.90 153.75 168.25 152.70 167.83 151.83 C 167.40 150.96 166.35 150.60 165.48 151.03 Z M 164.60 151.46 L 163.69 151.90 C 162.81 152.32 162.44 153.36 162.86 154.24 C 163.28 155.11 164.33 155.48 165.20 155.06 L 166.12 154.62 C 166.99 154.21 167.36 153.16 166.94 152.28 C 166.52 151.41 165.47 151.04 164.60 151.46 Z M 163.70 151.89 L 162.77 152.32 C 161.89 152.73 161.51 153.78 161.93 154.66 C 162.34 155.54 163.38 155.92 164.26 155.51 L 165.19 155.07 C 166.07 154.66 166.45 153.61 166.04 152.73 C 165.63 151.86 164.58 151.48 163.70 151.89 Z M 162.78 152.31 L 161.88 152.73 C 160.99 153.13 160.60 154.18 161.01 155.06 C 161.41 155.94 162.46 156.33 163.34 155.93 L 164.25 155.52 C 165.13 155.11 165.52 154.07 165.12 153.18 C 164.71 152.30 163.67 151.91 162.78 152.31 Z M 161.89 152.72 L 160.99 153.12 C 160.10 153.52 159.70 154.56 160.10 155.45 C 160.50 156.34 161.55 156.74 162.44 156.34 L 163.33 155.94 C 164.22 155.54 164.62 154.50 164.22 153.60 C 163.82 152.71 162.78 152.32 161.89 152.72 Z M 161.00 153.11 L 160.09 153.51 C 159.19 153.90 158.79 154.95 159.18 155.85 C 159.58 156.74 160.63 157.15 161.52 156.75 L 162.43 156.35 C 163.32 155.96 163.73 154.91 163.34 154.01 C 162.94 153.12 161.89 152.71 161.00 153.11 Z M 160.10 153.50 L 159.18 153.90 C 158.28 154.29 157.86 155.34 158.26 156.24 C 158.65 157.14 159.70 157.55 160.60 157.16 L 161.52 156.76 C 162.42 156.37 162.83 155.32 162.44 154.42 C 162.04 153.52 161.00 153.11 160.10 153.50 Z M 159.18 153.89 L 158.25 154.30 C 157.34 154.69 156.93 155.74 157.32 156.64 C 157.71 157.54 158.76 157.96 159.66 157.57 L 160.59 157.17 C 161.50 156.78 161.91 155.73 161.52 154.82 C 161.13 153.92 160.08 153.50 159.18 153.89 Z M 158.25 154.29 L 157.34 154.68 C 156.43 155.07 156.01 156.12 156.40 157.03 C 156.79 157.94 157.84 158.36 158.75 157.97 L 159.66 157.58 C 160.57 157.19 160.99 156.14 160.60 155.23 C 160.21 154.32 159.16 153.90 158.25 154.29 Z M 157.34 154.67 L 156.53 155.02 C 155.62 155.41 155.19 156.46 155.58 157.38 C 155.97 158.29 157.03 158.71 157.94 158.32 L 158.75 157.97 C 159.66 157.58 160.09 156.53 159.70 155.62 C 159.31 154.71 158.25 154.28 157.34 154.67 Z M 156.53 155.01 L 155.69 155.37 C 154.77 155.76 154.35 156.81 154.73 157.73 C 155.12 158.64 156.18 159.07 157.09 158.68 L 157.93 158.33 C 158.85 157.94 159.28 156.88 158.89 155.97 C 158.50 155.05 157.45 154.63 156.53 155.01 Z M 155.69 155.36 L 154.81 155.73 C 153.89 156.12 153.46 157.17 153.85 158.09 C 154.23 159.01 155.29 159.44 156.21 159.06 L 157.09 158.69 C 158.01 158.31 158.44 157.25 158.06 156.33 C 157.67 155.41 156.61 154.98 155.69 155.36 Z M 154.82 155.72 L 153.89 156.11 C 152.96 156.49 152.52 157.55 152.90 158.47 C 153.28 159.39 154.34 159.83 155.27 159.45 L 156.20 159.07 C 157.12 158.69 157.56 157.63 157.18 156.71 C 156.80 155.78 155.74 155.34 154.82 155.72 Z M 153.89 156.10 L 152.89 156.51 C 151.96 156.88 151.52 157.94 151.89 158.87 C 152.27 159.80 153.33 160.24 154.26 159.87 L 155.26 159.46 C 156.19 159.09 156.63 158.03 156.26 157.10 C 155.88 156.17 154.82 155.72 153.89 156.10 Z M 152.90 156.50 L 151.82 156.93 C 150.89 157.30 150.43 158.36 150.80 159.29 C 151.18 160.23 152.23 160.68 153.17 160.31 L 154.25 159.88 C 155.18 159.50 155.63 158.45 155.26 157.51 C 154.89 156.58 153.83 156.13 152.90 156.50 Z M 151.83 156.92 L 150.90 157.28 C 149.96 157.65 149.50 158.71 149.87 159.65 C 150.24 160.59 151.30 161.05 152.23 160.68 L 153.16 160.32 C 154.10 159.95 154.56 158.89 154.19 157.95 C 153.82 157.01 152.76 156.55 151.83 156.92 Z M 150.90 157.27 L 149.96 157.64 C 149.02 158.01 148.55 159.07 148.92 160.01 C 149.28 160.95 150.34 161.42 151.29 161.06 L 152.23 160.69 C 153.17 160.33 153.64 159.26 153.28 158.32 C 152.91 157.38 151.85 156.91 150.90 157.27 Z M 149.96 157.63 L 149.00 158.00 C 148.05 158.37 147.57 159.43 147.94 160.38 C 148.30 161.33 149.37 161.80 150.32 161.44 L 151.29 161.07 C 152.23 160.70 152.71 159.64 152.34 158.69 C 151.98 157.74 150.91 157.27 149.96 157.63 Z M 149.00 157.99 L 148.02 158.37 C 147.06 158.73 146.58 159.80 146.95 160.75 C 147.31 161.71 148.38 162.19 149.33 161.82 L 150.31 161.45 C 151.27 161.09 151.75 160.02 151.38 159.06 C 151.02 158.11 149.95 157.63 149.00 157.99 Z M 148.02 158.36 L 147.04 158.73 C 146.08 159.09 145.60 160.16 145.96 161.12 C 146.33 162.08 147.40 162.56 148.36 162.20 L 149.33 161.83 C 150.29 161.47 150.78 160.40 150.41 159.44 C 150.05 158.48 148.98 157.99 148.02 158.36 Z M 147.05 158.72 L 146.09 159.07 C 145.12 159.44 144.64 160.51 145.00 161.48 C 145.36 162.44 146.44 162.93 147.40 162.57 L 148.36 162.21 C 149.32 161.85 149.81 160.77 149.45 159.81 C 149.09 158.84 148.01 158.35 147.05 158.72 Z M 146.09 159.06 L 145.17 159.41 C 144.20 159.77 143.71 160.85 144.07 161.82 C 144.43 162.79 145.51 163.28 146.48 162.92 L 147.40 162.58 C 148.37 162.22 148.86 161.14 148.50 160.17 C 148.14 159.20 147.06 158.70 146.09 159.06 Z M 145.17 159.40 L 144.30 159.72 C 143.33 160.08 142.83 161.16 143.19 162.14 C 143.55 163.11 144.63 163.61 145.61 163.25 L 146.48 162.93 C 147.45 162.57 147.95 161.49 147.59 160.51 C 147.23 159.54 146.15 159.04 145.17 159.40 Z M 144.31 159.71 L 142.98 160.19 C 142.00 160.55 141.50 161.64 141.86 162.62 C 142.21 163.60 143.30 164.10 144.28 163.74 L 145.61 163.26 C 146.59 162.90 147.09 161.82 146.73 160.84 C 146.37 159.85 145.29 159.35 144.31 159.71 Z M 142.98 160.18 L 141.70 160.65 C 140.71 161.01 140.21 162.10 140.56 163.08 C 140.92 164.07 142.01 164.58 143.00 164.22 L 144.28 163.75 C 145.27 163.39 145.77 162.30 145.42 161.32 C 145.06 160.33 143.97 159.82 142.98 160.18 Z M 141.68 160.65 L 140.79 160.98 C 139.80 161.35 139.30 162.45 139.67 163.44 C 140.04 164.42 141.14 164.92 142.13 164.55 L 143.02 164.22 C 144.01 163.85 144.51 162.75 144.14 161.76 C 143.77 160.78 142.67 160.28 141.68 160.65 Z M 140.68 161.02 L 140.24 161.21 C 139.27 161.64 138.83 162.77 139.26 163.74 C 139.69 164.71 140.82 165.15 141.79 164.72 L 142.23 164.52 C 143.20 164.09 143.64 162.96 143.21 161.99 C 142.78 161.03 141.65 160.59 140.68 161.02 Z M 140.34 164.76 L 140.47 164.81 C 141.47 165.19 142.57 164.68 142.95 163.69 C 143.32 162.70 142.82 161.59 141.82 161.22 L 141.69 161.17 C 140.69 160.80 139.59 161.30 139.21 162.29 C 138.84 163.28 139.34 164.39 140.34 164.76 Z M 141.49 164.90 L 142.41 164.74 C 143.45 164.55 144.14 163.56 143.96 162.52 C 143.77 161.47 142.78 160.78 141.73 160.97 L 140.81 161.13 C 139.77 161.32 139.08 162.31 139.26 163.35 C 139.45 164.40 140.44 165.09 141.49 164.90 Z M 142.49 164.72 L 143.88 164.41 C 144.91 164.17 145.55 163.15 145.32 162.12 C 145.09 161.09 144.07 160.45 143.04 160.68 L 141.65 160.99 C 140.62 161.22 139.97 162.24 140.20 163.27 C 140.44 164.30 141.46 164.95 142.49 164.72 Z M 143.91 164.39 L 144.87 164.16 C 145.89 163.91 146.52 162.88 146.27 161.86 C 146.02 160.84 144.99 160.21 143.97 160.46 L 143.01 160.69 C 141.99 160.94 141.36 161.97 141.61 162.99 C 141.86 164.01 142.89 164.64 143.91 164.39 Z M 144.89 164.14 L 145.84 163.90 C 146.85 163.64 147.46 162.61 147.20 161.60 C 146.94 160.58 145.91 159.97 144.90 160.23 L 143.95 160.47 C 142.94 160.73 142.33 161.76 142.59 162.78 C 142.85 163.79 143.88 164.40 144.89 164.14 Z M 145.86 163.89 L 146.83 163.63 C 147.83 163.36 148.43 162.32 148.16 161.32 C 147.89 160.31 146.86 159.71 145.85 159.98 L 144.88 160.24 C 143.87 160.51 143.28 161.55 143.55 162.55 C 143.82 163.56 144.85 164.16 145.86 163.89 Z M 146.85 163.61 L 147.84 163.33 C 148.84 163.05 149.42 162.02 149.14 161.02 C 148.86 160.02 147.82 159.44 146.83 159.72 L 145.83 160.00 C 144.83 160.28 144.25 161.31 144.53 162.31 C 144.81 163.31 145.85 163.89 146.85 163.61 Z M 147.86 163.32 L 148.84 163.03 C 149.83 162.74 150.40 161.70 150.11 160.71 C 149.82 159.72 148.78 159.15 147.79 159.45 L 146.81 159.73 C 145.82 160.02 145.25 161.06 145.54 162.05 C 145.83 163.04 146.87 163.61 147.86 163.32 Z M 148.86 163.02 L 149.78 162.73 C 150.76 162.43 151.32 161.40 151.02 160.41 C 150.72 159.43 149.68 158.88 148.70 159.18 L 147.77 159.46 C 146.79 159.76 146.24 160.80 146.54 161.78 C 146.84 162.76 147.88 163.31 148.86 163.02 Z M 149.80 162.72 L 150.74 162.42 C 151.71 162.12 152.25 161.08 151.95 160.11 C 151.64 159.13 150.60 158.59 149.63 158.90 L 148.69 159.19 C 147.71 159.50 147.17 160.54 147.48 161.51 C 147.79 162.48 148.82 163.02 149.80 162.72 Z M 150.75 162.41 L 151.70 162.10 C 152.67 161.79 153.20 160.75 152.89 159.79 C 152.57 158.82 151.54 158.29 150.57 158.60 L 149.62 158.91 C 148.65 159.22 148.12 160.26 148.43 161.22 C 148.75 162.19 149.78 162.72 150.75 162.41 Z M 151.71 162.09 L 152.68 161.77 C 153.64 161.45 154.16 160.42 153.84 159.46 C 153.53 158.50 152.49 157.98 151.54 158.30 L 150.57 158.62 C 149.61 158.93 149.09 159.97 149.40 160.92 C 149.72 161.88 150.75 162.40 151.71 162.09 Z M 152.69 161.75 L 153.66 161.43 C 154.61 161.11 155.12 160.08 154.81 159.13 C 154.49 158.17 153.46 157.66 152.51 157.98 L 151.53 158.31 C 150.58 158.63 150.07 159.66 150.39 160.61 C 150.71 161.56 151.74 162.07 152.69 161.75 Z M 153.67 161.41 L 154.59 161.10 C 155.53 160.78 156.04 159.75 155.72 158.81 C 155.40 157.86 154.37 157.36 153.43 157.68 L 152.50 157.99 C 151.56 158.32 151.05 159.34 151.37 160.29 C 151.70 161.23 152.72 161.74 153.67 161.41 Z M 154.59 161.09 L 155.53 160.77 C 156.47 160.44 156.97 159.42 156.64 158.48 C 156.32 157.54 155.30 157.04 154.36 157.37 L 153.42 157.69 C 152.48 158.01 151.99 159.04 152.31 159.97 C 152.63 160.91 153.66 161.41 154.59 161.09 Z M 155.53 160.75 L 156.48 160.42 C 157.41 160.10 157.90 159.08 157.58 158.15 C 157.25 157.22 156.23 156.72 155.30 157.05 L 154.36 157.38 C 153.42 157.70 152.93 158.72 153.26 159.65 C 153.58 160.59 154.60 161.08 155.53 160.75 Z M 156.48 160.41 L 157.43 160.08 C 158.36 159.75 158.84 158.74 158.52 157.81 C 158.19 156.88 157.18 156.40 156.25 156.72 L 155.30 157.06 C 154.37 157.39 153.88 158.40 154.21 159.33 C 154.54 160.25 155.55 160.74 156.48 160.41 Z M 157.43 160.07 L 158.39 159.73 C 159.31 159.40 159.79 158.39 159.47 157.47 C 159.14 156.55 158.13 156.07 157.21 156.39 L 156.25 156.73 C 155.33 157.06 154.85 158.07 155.17 158.99 C 155.50 159.91 156.51 160.40 157.43 160.07 Z M 158.39 159.72 L 159.35 159.37 C 160.27 159.04 160.75 158.04 160.42 157.12 C 160.09 156.21 159.08 155.73 158.17 156.06 L 157.21 156.40 C 156.29 156.73 155.82 157.74 156.14 158.65 C 156.47 159.57 157.48 160.04 158.39 159.72 Z M 159.36 159.36 L 160.31 159.02 C 161.22 158.69 161.69 157.68 161.36 156.77 C 161.04 155.87 160.03 155.40 159.12 155.72 L 158.17 156.07 C 157.26 156.40 156.79 157.40 157.12 158.31 C 157.44 159.22 158.45 159.69 159.36 159.36 Z M 160.32 159.00 L 161.27 158.66 C 162.17 158.33 162.64 157.33 162.31 156.42 C 161.98 155.52 160.98 155.06 160.08 155.39 L 159.12 155.74 C 158.22 156.07 157.76 157.06 158.09 157.97 C 158.42 158.87 159.41 159.33 160.32 159.00 Z M 161.27 158.64 L 162.22 158.30 C 163.11 157.96 163.57 156.97 163.24 156.07 C 162.91 155.18 161.91 154.72 161.01 155.05 L 160.07 155.40 C 159.18 155.73 158.72 156.73 159.05 157.62 C 159.38 158.52 160.38 158.98 161.27 158.64 Z M 162.22 158.28 L 163.14 157.94 C 164.03 157.60 164.48 156.61 164.15 155.72 C 163.82 154.83 162.82 154.38 161.93 154.71 L 161.01 155.06 C 160.12 155.40 159.67 156.39 160.00 157.28 C 160.34 158.17 161.33 158.62 162.22 158.28 Z M 163.15 157.92 L 164.05 157.58 C 164.93 157.24 165.38 156.25 165.04 155.37 C 164.70 154.49 163.71 154.04 162.83 154.38 L 161.93 154.73 C 161.05 155.06 160.60 156.05 160.94 156.94 C 161.28 157.82 162.27 158.26 163.15 157.92 Z M 164.06 157.56 L 164.99 157.20 C 165.86 156.86 166.29 155.87 165.95 155.00 C 165.61 154.12 164.62 153.69 163.75 154.03 L 162.82 154.40 C 161.95 154.74 161.51 155.72 161.86 156.60 C 162.20 157.48 163.19 157.91 164.06 157.56 Z M 165.00 157.19 L 165.91 156.82 C 166.78 156.47 167.20 155.49 166.85 154.62 C 166.50 153.75 165.51 153.33 164.64 153.68 L 163.73 154.05 C 162.87 154.40 162.45 155.38 162.80 156.25 C 163.15 157.12 164.13 157.54 165.00 157.19 Z M 165.92 156.80 L 166.83 156.43 C 167.69 156.07 168.09 155.08 167.73 154.22 C 167.38 153.37 166.39 152.96 165.53 153.32 L 164.63 153.70 C 163.77 154.06 163.36 155.04 163.72 155.90 C 164.08 156.76 165.07 157.16 165.92 156.80 Z M 166.85 156.41 L 167.76 156.01 C 168.61 155.64 169.00 154.66 168.63 153.81 C 168.26 152.96 167.27 152.57 166.43 152.94 L 165.51 153.34 C 164.66 153.71 164.28 154.69 164.64 155.54 C 165.01 156.39 166.00 156.78 166.85 156.41 Z M 167.78 155.99 L 168.72 155.57 C 169.56 155.19 169.93 154.20 169.55 153.37 C 169.17 152.53 168.18 152.16 167.34 152.54 L 166.41 152.96 C 165.57 153.34 165.20 154.33 165.58 155.16 C 165.96 156.00 166.94 156.37 167.78 155.99 Z M 168.74 155.55 L 169.65 155.12 C 170.48 154.73 170.83 153.75 170.44 152.92 C 170.05 152.09 169.07 151.73 168.24 152.12 L 167.32 152.55 C 166.50 152.94 166.14 153.93 166.53 154.76 C 166.92 155.59 167.91 155.94 168.74 155.55 Z M 169.67 155.11 L 170.58 154.67 C 171.40 154.27 171.74 153.28 171.34 152.46 C 170.94 151.63 169.95 151.29 169.13 151.69 L 168.22 152.14 C 167.40 152.54 167.06 153.53 167.46 154.35 C 167.86 155.17 168.85 155.51 169.67 155.11 Z M 170.60 154.65 L 171.51 154.19 C 172.33 153.78 172.65 152.79 172.24 151.97 C 171.83 151.16 170.84 150.83 170.02 151.24 L 169.11 151.71 C 168.29 152.12 167.97 153.11 168.38 153.92 C 168.79 154.74 169.78 155.06 170.60 154.65 Z M 171.53 154.18 L 172.44 153.70 C 173.24 153.28 173.56 152.29 173.13 151.48 C 172.71 150.68 171.72 150.36 170.91 150.78 L 170.00 151.26 C 169.20 151.68 168.89 152.68 169.31 153.48 C 169.73 154.29 170.72 154.60 171.53 154.18 Z M 172.46 153.69 L 173.34 153.21 C 174.14 152.78 174.43 151.78 174.00 150.98 C 173.56 150.18 172.56 149.89 171.77 150.32 L 170.89 150.80 C 170.09 151.23 169.80 152.23 170.23 153.03 C 170.66 153.83 171.66 154.12 172.46 153.69 Z M 173.36 153.19 L 174.20 152.72 C 174.99 152.27 175.26 151.27 174.81 150.48 C 174.37 149.69 173.36 149.42 172.58 149.87 L 171.74 150.34 C 170.95 150.79 170.68 151.79 171.13 152.58 C 171.57 153.37 172.57 153.64 173.36 153.19 Z M 174.23 152.70 L 175.16 152.14 C 175.94 151.67 176.19 150.67 175.72 149.89 C 175.25 149.12 174.25 148.86 173.47 149.33 L 172.54 149.89 C 171.77 150.35 171.52 151.36 171.98 152.14 C 172.45 152.91 173.45 153.16 174.23 152.70 Z M 175.20 152.12 L 176.07 151.56 C 176.83 151.08 177.06 150.06 176.57 149.30 C 176.09 148.54 175.07 148.31 174.31 148.80 L 173.44 149.35 C 172.67 149.84 172.45 150.85 172.93 151.62 C 173.42 152.38 174.43 152.60 175.20 152.12 Z M 176.10 151.54 L 176.92 151.00 C 177.67 150.49 177.87 149.48 177.37 148.72 C 176.86 147.97 175.85 147.77 175.10 148.27 L 174.28 148.82 C 173.53 149.32 173.32 150.34 173.83 151.09 C 174.33 151.84 175.35 152.04 176.10 151.54 Z M 176.94 150.98 L 177.72 150.44 C 178.46 149.93 178.65 148.91 178.13 148.16 C 177.62 147.42 176.60 147.23 175.85 147.75 L 175.07 148.29 C 174.33 148.80 174.14 149.82 174.66 150.56 C 175.17 151.31 176.19 151.49 176.94 150.98 Z M 177.73 150.43 L 178.36 149.99 C 179.10 149.47 179.28 148.45 178.76 147.71 C 178.24 146.97 177.22 146.79 176.48 147.31 L 175.84 147.76 C 175.10 148.28 174.93 149.30 175.44 150.04 C 175.96 150.78 176.99 150.95 177.73 150.43 Z"
      fill="black"
      fill-rule="nonzero" /><path d="M 150.39 112.06 L 150.26 113.09 C 150.13 114.10 150.84 115.02 151.85 115.15 C 152.86 115.29 153.79 114.57 153.92 113.56 L 154.05 112.54 C 154.18 111.52 153.47 110.60 152.46 110.47 C 151.45 110.34 150.52 111.05 150.39 112.06 Z M 150.20 113.13 L 150.10 114.14 C 149.99 115.18 150.75 116.11 151.79 116.22 C 152.83 116.33 153.76 115.57 153.87 114.53 L 153.98 113.52 C 154.08 112.48 153.33 111.54 152.28 111.44 C 151.24 111.33 150.31 112.08 150.20 113.13 Z M 150.04 114.23 L 149.99 115.22 C 149.93 116.29 150.76 117.21 151.83 117.26 C 152.91 117.32 153.82 116.49 153.88 115.42 L 153.93 114.43 C 153.98 113.36 153.16 112.44 152.08 112.39 C 151.01 112.33 150.10 113.16 150.04 114.23 Z M 149.94 115.39 L 149.97 116.35 C 150.01 117.45 150.93 118.31 152.03 118.27 C 153.13 118.24 153.99 117.32 153.96 116.22 L 153.93 115.26 C 153.89 114.16 152.97 113.29 151.87 113.33 C 150.77 113.36 149.91 114.29 149.94 115.39 Z M 149.97 116.56 L 150.11 117.54 C 150.26 118.64 151.28 119.41 152.39 119.25 C 153.49 119.09 154.25 118.07 154.10 116.97 L 153.96 116.00 C 153.80 114.90 152.78 114.13 151.68 114.29 C 150.58 114.44 149.81 115.46 149.97 116.56 Z M 150.14 117.71 L 150.36 118.67 C 150.61 119.75 151.69 120.43 152.78 120.18 C 153.86 119.93 154.54 118.84 154.29 117.76 L 154.07 116.80 C 153.82 115.72 152.73 115.04 151.65 115.29 C 150.57 115.54 149.89 116.62 150.14 117.71 Z M 150.38 118.75 L 150.65 119.73 C 150.95 120.80 152.06 121.42 153.14 121.13 C 154.21 120.83 154.83 119.71 154.54 118.64 L 154.26 117.67 C 153.97 116.60 152.85 115.97 151.78 116.27 C 150.71 116.57 150.08 117.68 150.38 118.75 Z M 150.66 119.74 L 150.93 120.69 C 151.23 121.76 152.35 122.38 153.42 122.07 C 154.49 121.76 155.11 120.65 154.80 119.58 L 154.53 118.63 C 154.23 117.56 153.11 116.94 152.04 117.25 C 150.97 117.55 150.35 118.67 150.66 119.74 Z M 150.92 120.66 L 151.17 121.58 C 151.46 122.65 152.57 123.28 153.65 122.99 C 154.72 122.70 155.35 121.59 155.06 120.51 L 154.81 119.60 C 154.52 118.53 153.41 117.89 152.33 118.19 C 151.26 118.48 150.63 119.59 150.92 120.66 Z M 151.17 121.56 L 151.42 122.52 C 151.70 123.60 152.81 124.24 153.88 123.96 C 154.96 123.67 155.60 122.57 155.32 121.49 L 155.06 120.53 C 154.78 119.46 153.68 118.81 152.60 119.10 C 151.53 119.38 150.88 120.48 151.17 121.56 Z M 151.42 122.51 L 151.67 123.51 C 151.95 124.59 153.05 125.24 154.13 124.96 C 155.20 124.69 155.85 123.59 155.58 122.51 L 155.32 121.51 C 155.04 120.43 153.95 119.78 152.87 120.05 C 151.79 120.33 151.14 121.43 151.42 122.51 Z M 151.67 123.50 L 151.93 124.52 C 152.20 125.60 153.29 126.25 154.37 125.98 C 155.45 125.71 156.11 124.61 155.84 123.54 L 155.58 122.52 C 155.31 121.44 154.21 120.78 153.13 121.05 C 152.05 121.33 151.40 122.42 151.67 123.50 Z M 151.92 124.51 L 152.15 125.44 C 152.42 126.52 153.52 127.18 154.60 126.91 C 155.68 126.65 156.34 125.55 156.07 124.47 L 155.84 123.54 C 155.57 122.46 154.48 121.80 153.40 122.07 C 152.32 122.34 151.66 123.43 151.92 124.51 Z M 152.15 125.44 L 152.39 126.39 C 152.65 127.48 153.74 128.14 154.83 127.87 C 155.91 127.61 156.57 126.52 156.30 125.43 L 156.07 124.48 C 155.80 123.40 154.71 122.73 153.63 123.00 C 152.55 123.26 151.89 124.36 152.15 125.44 Z M 152.39 126.39 L 152.62 127.37 C 152.89 128.45 153.98 129.12 155.06 128.85 C 156.14 128.59 156.81 127.50 156.54 126.42 L 156.31 125.44 C 156.04 124.36 154.95 123.69 153.87 123.96 C 152.79 124.22 152.12 125.31 152.39 126.39 Z M 152.62 127.37 L 152.86 128.36 C 153.12 129.45 154.21 130.11 155.29 129.85 C 156.38 129.59 157.04 128.51 156.78 127.42 L 156.54 126.43 C 156.28 125.34 155.20 124.68 154.11 124.94 C 153.03 125.20 152.36 126.28 152.62 127.37 Z M 152.86 128.36 L 153.10 129.35 C 153.36 130.43 154.44 131.10 155.52 130.85 C 156.61 130.59 157.28 129.50 157.02 128.42 L 156.78 127.43 C 156.53 126.35 155.44 125.68 154.36 125.93 C 153.28 126.19 152.61 127.28 152.86 128.36 Z M 153.10 129.35 L 153.32 130.28 C 153.57 131.36 154.66 132.04 155.74 131.78 C 156.82 131.53 157.49 130.44 157.24 129.36 L 157.02 128.43 C 156.77 127.34 155.68 126.67 154.60 126.93 C 153.52 127.18 152.84 128.26 153.10 129.35 Z M 153.32 130.27 L 153.54 131.22 C 153.79 132.31 154.87 132.98 155.95 132.73 C 157.03 132.48 157.71 131.40 157.46 130.32 L 157.24 129.37 C 156.99 128.29 155.91 127.61 154.83 127.86 C 153.74 128.11 153.07 129.19 153.32 130.27 Z M 153.54 131.21 L 153.76 132.18 C 154.00 133.27 155.08 133.95 156.16 133.70 C 157.24 133.46 157.92 132.38 157.68 131.30 L 157.46 130.33 C 157.21 129.25 156.14 128.57 155.05 128.81 C 153.97 129.06 153.29 130.13 153.54 131.21 Z M 153.76 132.17 L 153.98 133.17 C 154.22 134.25 155.29 134.93 156.37 134.70 C 157.45 134.46 158.13 133.39 157.90 132.30 L 157.68 131.31 C 157.44 130.23 156.37 129.54 155.29 129.78 C 154.20 130.02 153.52 131.09 153.76 132.17 Z M 153.98 133.16 L 154.20 134.18 C 154.43 135.26 155.49 135.95 156.58 135.72 C 157.66 135.49 158.35 134.42 158.12 133.34 L 157.90 132.32 C 157.66 131.23 156.60 130.55 155.52 130.78 C 154.44 131.01 153.75 132.07 153.98 133.16 Z M 154.20 134.17 L 154.39 135.11 C 154.62 136.20 155.68 136.89 156.76 136.67 C 157.84 136.44 158.54 135.38 158.31 134.30 L 158.12 133.36 C 157.89 132.27 156.83 131.58 155.75 131.80 C 154.67 132.03 153.97 133.09 154.20 134.17 Z M 154.39 135.10 L 154.58 136.04 C 154.80 137.13 155.85 137.83 156.93 137.61 C 158.02 137.39 158.72 136.34 158.50 135.26 L 158.31 134.31 C 158.10 133.23 157.04 132.53 155.96 132.75 C 154.88 132.96 154.17 134.02 154.39 135.10 Z M 154.58 136.03 L 154.77 137.00 C 154.98 138.08 156.03 138.79 157.11 138.58 C 158.19 138.37 158.90 137.32 158.69 136.24 L 158.50 135.27 C 158.29 134.19 157.24 133.48 156.16 133.69 C 155.08 133.90 154.37 134.95 154.58 136.03 Z M 154.77 136.98 L 154.95 137.97 C 155.15 139.05 156.20 139.77 157.28 139.57 C 158.36 139.36 159.08 138.32 158.87 137.24 L 158.69 136.25 C 158.49 135.17 157.45 134.45 156.36 134.65 C 155.28 134.86 154.57 135.90 154.77 136.98 Z M 154.95 137.95 L 155.13 138.96 C 155.32 140.05 156.36 140.77 157.44 140.58 C 158.53 140.38 159.25 139.35 159.05 138.26 L 158.87 137.25 C 158.68 136.17 157.65 135.45 156.56 135.64 C 155.48 135.84 154.76 136.87 154.95 137.95 Z M 155.13 138.95 L 155.31 139.98 C 155.49 141.06 156.52 141.79 157.60 141.61 C 158.69 141.42 159.41 140.39 159.23 139.31 L 159.06 138.28 C 158.87 137.20 157.84 136.47 156.76 136.65 C 155.68 136.84 154.95 137.86 155.13 138.95 Z M 155.31 139.96 L 155.47 140.95 C 155.64 142.03 156.66 142.77 157.75 142.60 C 158.83 142.42 159.57 141.40 159.39 140.32 L 159.23 139.33 C 159.06 138.24 158.04 137.51 156.95 137.68 C 155.87 137.86 155.13 138.88 155.31 139.96 Z M 155.47 140.93 L 155.61 141.89 C 155.78 142.97 156.79 143.71 157.88 143.55 C 158.96 143.38 159.70 142.37 159.54 141.28 L 159.39 140.33 C 159.22 139.25 158.21 138.50 157.13 138.67 C 156.04 138.84 155.30 139.85 155.47 140.93 Z M 155.61 141.87 L 155.75 142.84 C 155.91 143.92 156.92 144.67 158.00 144.51 C 159.09 144.35 159.84 143.34 159.68 142.26 L 159.54 141.29 C 159.38 140.21 158.37 139.46 157.29 139.62 C 156.20 139.78 155.45 140.79 155.61 141.87 Z M 155.76 142.83 L 155.89 143.81 C 156.05 144.89 157.05 145.64 158.13 145.49 C 159.21 145.34 159.97 144.34 159.82 143.25 L 159.68 142.27 C 159.52 141.19 158.52 140.43 157.44 140.59 C 156.36 140.74 155.60 141.74 155.76 142.83 Z M 155.89 143.80 L 156.03 144.79 C 156.18 145.88 157.18 146.64 158.26 146.49 C 159.34 146.34 160.10 145.34 159.95 144.26 L 159.81 143.26 C 159.67 142.18 158.67 141.42 157.59 141.57 C 156.51 141.72 155.75 142.71 155.89 143.80 Z M 156.03 144.79 L 156.17 145.80 C 156.31 146.88 157.30 147.64 158.38 147.50 C 159.47 147.36 160.23 146.36 160.08 145.28 L 159.95 144.27 C 159.81 143.19 158.81 142.43 157.73 142.57 C 156.65 142.71 155.89 143.70 156.03 144.79 Z M 156.17 145.79 L 156.30 146.83 C 156.44 147.91 157.43 148.67 158.51 148.53 C 159.59 148.39 160.35 147.40 160.21 146.32 L 160.08 145.29 C 159.94 144.21 158.95 143.45 157.87 143.58 C 156.79 143.72 156.03 144.71 156.17 145.79 Z M 156.30 146.82 L 156.43 147.81 C 156.56 148.89 157.55 149.66 158.63 149.52 C 159.71 149.39 160.47 148.40 160.34 147.32 L 160.21 146.33 C 160.08 145.25 159.09 144.48 158.01 144.62 C 156.93 144.75 156.17 145.74 156.30 146.82 Z M 156.43 147.81 L 156.55 148.76 C 156.68 149.84 157.66 150.61 158.74 150.47 C 159.82 150.34 160.59 149.36 160.45 148.28 L 160.34 147.32 C 160.20 146.25 159.22 145.48 158.14 145.61 C 157.06 145.75 156.30 146.73 156.43 147.81 Z M 156.55 148.76 L 156.67 149.73 C 156.80 150.81 157.78 151.57 158.86 151.44 C 159.93 151.31 160.70 150.33 160.57 149.25 L 160.45 148.28 C 160.32 147.21 159.34 146.44 158.26 146.57 C 157.19 146.70 156.42 147.68 156.55 148.76 Z M 156.67 149.72 L 156.79 150.71 C 156.91 151.78 157.89 152.55 158.97 152.42 C 160.05 152.29 160.81 151.32 160.69 150.24 L 160.57 149.26 C 160.44 148.18 159.46 147.41 158.39 147.54 C 157.31 147.67 156.54 148.65 156.67 149.72 Z M 156.79 150.70 L 156.90 151.70 C 157.03 152.77 158.00 153.54 159.08 153.42 C 160.16 153.29 160.93 152.32 160.80 151.24 L 160.68 150.25 C 160.56 149.17 159.58 148.40 158.51 148.52 C 157.43 148.65 156.66 149.62 156.79 150.70 Z M 156.91 151.69 L 157.02 152.70 C 157.14 153.77 158.11 154.55 159.19 154.42 C 160.26 154.30 161.04 153.33 160.91 152.26 L 160.80 151.25 C 160.68 150.17 159.71 149.40 158.63 149.52 C 157.56 149.65 156.78 150.62 156.91 151.69 Z M 157.02 152.69 L 157.14 153.71 C 157.26 154.79 158.22 155.56 159.30 155.44 C 160.37 155.32 161.15 154.36 161.03 153.28 L 160.91 152.26 C 160.79 151.19 159.83 150.41 158.75 150.53 C 157.68 150.65 156.90 151.62 157.02 152.69 Z M 157.14 153.71 L 157.25 154.74 C 157.37 155.81 158.33 156.59 159.40 156.47 C 160.48 156.36 161.25 155.39 161.14 154.32 L 161.02 153.29 C 160.91 152.21 159.94 151.44 158.87 151.56 C 157.80 151.67 157.02 152.64 157.14 153.71 Z M 157.25 154.73 L 157.35 155.71 C 157.47 156.79 158.43 157.56 159.50 157.45 C 160.57 157.34 161.35 156.38 161.24 155.30 L 161.13 154.33 C 161.02 153.25 160.06 152.48 158.99 152.59 C 157.92 152.70 157.14 153.66 157.25 154.73 Z M 157.36 155.71 L 157.45 156.67 C 157.56 157.74 158.52 158.52 159.59 158.41 C 160.66 158.30 161.44 157.34 161.33 156.27 L 161.24 155.31 C 161.13 154.24 160.17 153.46 159.10 153.57 C 158.03 153.68 157.25 154.64 157.36 155.71 Z M 157.45 156.66 L 157.55 157.63 C 157.66 158.70 158.61 159.48 159.68 159.37 C 160.75 159.27 161.53 158.31 161.43 157.24 L 161.33 156.27 C 161.23 155.20 160.27 154.42 159.20 154.53 C 158.13 154.64 157.35 155.59 157.45 156.66 Z M 157.55 157.62 L 157.65 158.60 C 157.75 159.67 158.70 160.46 159.77 160.35 C 160.84 160.25 161.62 159.30 161.52 158.23 L 161.43 157.25 C 161.32 156.18 160.37 155.40 159.30 155.50 C 158.23 155.60 157.45 156.55 157.55 157.62 Z M 157.65 158.60 L 157.74 159.59 C 157.84 160.66 158.79 161.44 159.86 161.34 C 160.93 161.24 161.71 160.29 161.61 159.23 L 161.52 158.23 C 161.42 157.17 160.47 156.38 159.40 156.48 C 158.33 156.58 157.55 157.53 157.65 158.60 Z M 157.74 159.58 L 157.83 160.59 C 157.93 161.65 158.87 162.44 159.94 162.34 C 161.01 162.25 161.80 161.30 161.70 160.24 L 161.61 159.23 C 161.51 158.16 160.57 157.38 159.50 157.47 C 158.43 157.57 157.65 158.51 157.74 159.58 Z M 157.84 160.58 L 157.92 161.60 C 158.02 162.67 158.96 163.45 160.03 163.36 C 161.09 163.27 161.88 162.33 161.79 161.26 L 161.70 160.24 C 161.61 159.18 160.67 158.39 159.60 158.48 C 158.53 158.57 157.74 159.51 157.84 160.58 Z M 157.93 161.59 L 158.01 162.62 C 158.10 163.69 159.04 164.48 160.11 164.39 C 161.17 164.30 161.96 163.36 161.87 162.30 L 161.79 161.27 C 161.70 160.20 160.76 159.41 159.69 159.50 C 158.63 159.59 157.84 160.53 157.93 161.59 Z M 158.01 162.62 L 158.10 163.66 C 158.19 164.73 159.12 165.52 160.19 165.43 C 161.25 165.35 162.04 164.41 161.96 163.35 L 161.87 162.30 C 161.79 161.24 160.85 160.45 159.79 160.53 C 158.72 160.62 157.93 161.55 158.01 162.62 Z M 158.10 163.66 L 158.18 164.64 C 158.26 165.71 159.19 166.51 160.26 166.42 C 161.32 166.34 162.12 165.41 162.04 164.34 L 161.96 163.35 C 161.87 162.29 160.94 161.49 159.88 161.57 C 158.81 161.66 158.01 162.59 158.10 163.66 Z M 158.17 164.64 L 158.25 165.64 C 158.33 166.71 159.26 167.51 160.33 167.42 C 161.40 167.34 162.20 166.41 162.12 165.34 L 162.04 164.35 C 161.96 163.28 161.03 162.48 159.96 162.56 C 158.89 162.64 158.09 163.57 158.17 164.64 Z M 158.25 165.63 L 158.32 166.64 C 158.40 167.71 159.33 168.51 160.40 168.43 C 161.47 168.36 162.27 167.42 162.19 166.36 L 162.12 165.35 C 162.04 164.28 161.11 163.48 160.04 163.56 C 158.97 163.63 158.17 164.56 158.25 165.63 Z M 158.32 166.63 L 158.39 167.64 C 158.46 168.71 159.39 169.52 160.46 169.45 C 161.53 169.37 162.34 168.44 162.27 167.37 L 162.20 166.36 C 162.12 165.29 161.19 164.48 160.12 164.56 C 159.05 164.63 158.24 165.56 158.32 166.63 Z M 158.38 167.64 L 158.45 168.65 C 158.52 169.72 159.45 170.53 160.53 170.46 C 161.60 170.39 162.41 169.46 162.34 168.38 L 162.27 167.38 C 162.20 166.30 161.27 165.49 160.20 165.56 C 159.12 165.64 158.31 166.56 158.38 167.64 Z M 158.45 168.64 L 158.51 169.65 C 158.58 170.72 159.51 171.54 160.59 171.47 C 161.66 171.40 162.48 170.47 162.41 169.40 L 162.34 168.39 C 162.27 167.32 161.34 166.50 160.27 166.57 C 159.19 166.64 158.38 167.57 158.45 168.64 Z M 158.51 169.64 L 158.57 170.64 C 158.64 171.72 159.56 172.54 160.64 172.47 C 161.72 172.41 162.54 171.48 162.47 170.40 L 162.41 169.40 C 162.34 168.33 161.42 167.51 160.34 167.57 C 159.26 167.64 158.45 168.57 158.51 169.64 Z M 158.57 170.64 L 158.63 171.63 C 158.69 172.71 159.61 173.53 160.69 173.47 C 161.77 173.40 162.59 172.48 162.53 171.40 L 162.47 170.41 C 162.41 169.33 161.49 168.51 160.41 168.57 C 159.33 168.63 158.51 169.56 158.57 170.64 Z M 158.62 171.62 L 158.68 172.60 C 158.74 173.68 159.66 174.51 160.74 174.45 C 161.82 174.39 162.65 173.46 162.59 172.38 L 162.53 171.41 C 162.48 170.33 161.55 169.50 160.47 169.56 C 159.39 169.62 158.56 170.54 158.62 171.62 Z M 158.67 172.59 L 158.73 173.63 C 158.78 174.71 159.70 175.55 160.78 175.49 C 161.87 175.44 162.70 174.52 162.64 173.43 L 162.59 172.39 C 162.54 171.31 161.61 170.48 160.53 170.53 C 159.45 170.59 158.62 171.51 158.67 172.59 Z M 158.72 173.62 L 158.77 174.67 C 158.82 175.75 159.74 176.59 160.82 176.54 C 161.91 176.49 162.74 175.57 162.69 174.48 L 162.65 173.44 C 162.59 172.36 161.68 171.52 160.59 171.57 C 159.51 171.62 158.67 172.54 158.72 173.62 Z M 158.77 174.66 L 158.81 175.68 C 158.86 176.77 159.78 177.61 160.86 177.56 C 161.94 177.52 162.79 176.60 162.74 175.52 L 162.70 174.49 C 162.65 173.41 161.73 172.57 160.65 172.61 C 159.57 172.66 158.73 173.57 158.77 174.66 Z M 158.81 175.68 L 158.85 176.68 C 158.89 177.77 159.81 178.61 160.89 178.57 C 161.98 178.53 162.82 177.62 162.78 176.53 L 162.74 175.52 C 162.70 174.44 161.79 173.59 160.70 173.64 C 159.62 173.68 158.77 174.59 158.81 175.68 Z M 158.85 176.68 L 158.89 177.67 C 158.92 178.76 159.84 179.60 160.92 179.57 C 162.01 179.53 162.86 178.62 162.82 177.53 L 162.78 176.54 C 162.74 175.45 161.83 174.60 160.75 174.64 C 159.66 174.68 158.81 175.59 158.85 176.68 Z M 158.88 177.66 L 158.92 178.64 C 158.95 179.73 159.86 180.58 160.95 180.55 C 162.03 180.51 162.89 179.60 162.85 178.52 L 162.82 177.54 C 162.78 176.45 161.87 175.60 160.79 175.63 C 159.70 175.67 158.85 176.58 158.88 177.66 Z M 158.91 178.64 L 158.94 179.61 C 158.97 180.69 159.88 181.55 160.97 181.52 C 162.06 181.49 162.91 180.58 162.88 179.49 L 162.85 178.52 C 162.82 177.43 161.91 176.58 160.82 176.61 C 159.74 176.64 158.88 177.55 158.91 178.64 Z M 158.94 179.60 L 158.97 180.56 C 159.00 181.65 159.90 182.51 160.99 182.48 C 162.08 182.45 162.94 181.54 162.91 180.45 L 162.88 179.50 C 162.85 178.41 161.95 177.55 160.86 177.58 C 159.77 177.61 158.91 178.51 158.94 179.60 Z M 158.96 180.56 L 158.99 181.54 C 159.02 182.63 159.92 183.49 161.01 183.47 C 162.10 183.44 162.96 182.53 162.94 181.44 L 162.91 180.46 C 162.88 179.37 161.98 178.51 160.89 178.53 C 159.80 178.56 158.94 179.47 158.96 180.56 Z M 158.99 181.54 L 159.01 182.56 C 159.04 183.66 159.94 184.52 161.03 184.49 C 162.12 184.47 162.99 183.56 162.96 182.47 L 162.94 181.45 C 162.91 180.36 162.01 179.49 160.92 179.52 C 159.83 179.54 158.96 180.45 158.99 181.54 Z M 159.01 182.56 L 159.03 183.58 C 159.05 184.67 159.96 185.54 161.05 185.51 C 162.14 185.49 163.01 184.59 162.98 183.49 L 162.96 182.48 C 162.94 181.38 162.04 180.52 160.94 180.54 C 159.85 180.56 158.99 181.47 159.01 182.56 Z M 159.03 183.57 L 159.05 184.58 C 159.07 185.67 159.97 186.54 161.07 186.52 C 162.16 186.50 163.03 185.60 163.01 184.51 L 162.99 183.50 C 162.97 182.40 162.06 181.54 160.97 181.56 C 159.88 181.58 159.01 182.48 159.03 183.57 Z M 159.05 184.58 L 159.06 185.58 C 159.08 186.67 159.98 187.54 161.08 187.52 C 162.17 187.51 163.04 186.60 163.03 185.51 L 163.01 184.51 C 162.99 183.42 162.09 182.54 160.99 182.56 C 159.90 182.58 159.03 183.48 159.05 184.58 Z M 159.06 185.57 L 159.08 186.56 C 159.09 187.66 159.99 188.53 161.09 188.52 C 162.18 188.50 163.06 187.60 163.04 186.50 L 163.03 185.51 C 163.01 184.42 162.11 183.54 161.01 183.56 C 159.92 183.58 159.04 184.48 159.06 185.57 Z M 159.07 186.56 L 159.09 187.54 C 159.10 188.64 160.00 189.51 161.10 189.50 C 162.19 189.49 163.07 188.59 163.06 187.49 L 163.04 186.51 C 163.03 185.41 162.13 184.53 161.03 184.55 C 159.94 184.56 159.06 185.46 159.07 186.56 Z M 159.08 187.54 L 159.09 188.51 C 159.11 189.61 160.01 190.49 161.10 190.47 C 162.20 190.46 163.08 189.56 163.07 188.47 L 163.06 187.49 C 163.05 186.40 162.15 185.52 161.05 185.53 C 159.95 185.54 159.07 186.44 159.08 187.54 Z M 159.09 188.50 L 159.10 189.52 C 159.11 190.62 160.01 191.50 161.11 191.49 C 162.21 191.48 163.09 190.58 163.08 189.49 L 163.07 188.47 C 163.06 187.37 162.16 186.49 161.07 186.50 C 159.97 186.51 159.08 187.41 159.09 188.50 Z M 159.10 189.51 L 159.11 190.54 C 159.11 191.64 160.01 192.52 161.11 192.52 C 162.21 192.51 163.10 191.61 163.09 190.51 L 163.08 189.49 C 163.07 188.39 162.18 187.50 161.08 187.51 C 159.98 187.52 159.09 188.41 159.10 189.51 Z M 159.10 190.53 L 159.11 191.55 C 159.11 192.65 160.01 193.54 161.11 193.53 C 162.21 193.53 163.10 192.63 163.09 191.53 L 163.09 190.52 C 163.08 189.42 162.19 188.53 161.09 188.53 C 159.99 188.54 159.10 189.43 159.10 190.53 Z M 159.11 191.55 L 159.11 192.55 C 159.11 193.65 160.01 194.54 161.11 194.54 C 162.21 194.54 163.10 193.64 163.10 192.54 L 163.10 191.53 C 163.09 190.43 162.20 189.54 161.10 189.55 C 159.99 189.55 159.10 190.44 159.11 191.55 Z M 159.11 192.55 L 159.11 193.54 C 159.11 194.64 160.01 195.54 161.11 195.53 C 162.21 195.53 163.10 194.64 163.10 193.53 L 163.10 192.54 C 163.10 191.44 162.20 190.55 161.10 190.55 C 160.00 190.55 159.11 191.44 159.11 192.55 Z M 159.11 193.54 L 159.11 194.52 C 159.11 195.63 160.00 196.52 161.11 196.52 C 162.21 196.52 163.10 195.62 163.10 194.52 L 163.10 193.54 C 163.10 192.43 162.21 191.54 161.10 191.54 C 160.00 191.54 159.11 192.44 159.11 193.54 Z M 159.11 194.52 L 159.11 195.49 C 159.11 196.60 160.00 197.49 161.11 197.49 C 162.21 197.49 163.11 196.60 163.11 195.49 L 163.11 194.52 C 163.11 193.42 162.21 192.52 161.11 192.52 C 160.00 192.52 159.11 193.42 159.11 194.52 Z M 159.11 195.49 L 159.11 196.50 C 159.11 197.60 160.00 198.50 161.11 198.50 C 162.21 198.50 163.11 197.60 163.11 196.50 L 163.11 195.49 C 163.11 194.39 162.21 193.49 161.11 193.49 C 160.00 193.49 159.11 194.39 159.11 195.49 Z M 159.10 196.50 L 159.10 197.52 C 159.10 198.63 160.00 199.52 161.11 199.52 C 162.21 199.52 163.11 198.63 163.11 197.52 L 163.11 196.50 C 163.11 195.39 162.21 194.49 161.11 194.49 C 160.00 194.49 159.10 195.39 159.10 196.50 Z M 159.10 197.52 L 159.10 198.53 C 159.10 199.64 160.00 200.54 161.11 200.54 C 162.21 200.54 163.11 199.64 163.11 198.53 L 163.11 197.52 C 163.11 196.41 162.21 195.51 161.11 195.51 C 160.00 195.51 159.10 196.41 159.10 197.52 Z M 159.10 198.53 L 159.10 199.54 C 159.10 200.64 160.00 201.54 161.11 201.54 C 162.22 201.54 163.12 200.64 163.12 199.54 L 163.12 198.53 C 163.12 197.42 162.22 196.52 161.11 196.52 C 160.00 196.52 159.10 197.42 159.10 198.53 Z M 159.10 199.54 L 159.10 200.53 C 159.10 201.64 160.00 202.54 161.11 202.54 C 162.22 202.54 163.12 201.64 163.12 200.53 L 163.12 199.54 C 163.12 198.42 162.22 197.52 161.11 197.52 C 160.00 197.52 159.10 198.42 159.10 199.54 Z M 159.09 200.53 L 159.09 201.51 C 159.09 202.62 159.99 203.52 161.11 203.52 C 162.22 203.52 163.12 202.62 163.12 201.51 L 163.12 200.53 C 163.12 199.41 162.22 198.51 161.11 198.51 C 159.99 198.51 159.09 199.41 159.09 200.53 Z M 159.09 201.51 L 159.09 202.48 C 159.09 203.59 159.99 204.50 161.11 204.50 C 162.22 204.50 163.12 203.59 163.12 202.48 L 163.12 201.51 C 163.12 200.39 162.22 199.49 161.11 199.49 C 159.99 199.49 159.09 200.39 159.09 201.51 Z M 159.09 202.48 L 159.09 203.48 C 159.09 204.59 159.99 205.49 161.11 205.49 C 162.22 205.49 163.12 204.59 163.12 203.48 L 163.12 202.48 C 163.12 201.37 162.22 200.46 161.11 200.46 C 159.99 200.46 159.09 201.37 159.09 202.48 Z M 159.09 203.48 L 159.09 204.47 C 159.09 205.58 159.99 206.49 161.11 206.49 C 162.22 206.49 163.12 205.58 163.12 204.47 L 163.12 203.48 C 163.12 202.37 162.22 201.46 161.11 201.46 C 159.99 201.46 159.09 202.37 159.09 203.48 Z M 159.10 204.47 L 159.10 205.46 C 159.10 206.57 160.00 207.47 161.11 207.47 C 162.22 207.47 163.12 206.57 163.12 205.46 L 163.12 204.47 C 163.12 203.36 162.22 202.46 161.11 202.46 C 160.00 202.46 159.10 203.36 159.10 204.47 Z M 159.10 205.46 L 159.10 206.46 C 159.10 207.57 160.00 208.46 161.11 208.46 C 162.21 208.46 163.11 207.57 163.11 206.46 L 163.11 205.46 C 163.11 204.36 162.21 203.46 161.11 203.46 C 160.00 203.46 159.10 204.36 159.10 205.46 Z M 159.10 206.46 L 159.10 207.46 C 159.10 208.56 160.00 209.46 161.11 209.46 C 162.21 209.46 163.11 208.56 163.11 207.46 L 163.11 206.46 C 163.11 205.35 162.21 204.45 161.11 204.45 C 160.00 204.45 159.10 205.35 159.10 206.46 Z M 159.11 207.46 L 159.11 208.47 C 159.11 209.57 160.00 210.47 161.11 210.47 C 162.21 210.47 163.11 209.57 163.11 208.47 L 163.11 207.46 C 163.11 206.35 162.21 205.46 161.11 205.46 C 160.00 205.46 159.11 206.35 159.11 207.46 Z M 159.11 208.47 L 159.11 209.49 C 159.11 210.59 160.00 211.48 161.11 211.48 C 162.21 211.48 163.10 210.59 163.10 209.49 L 163.10 208.47 C 163.10 207.36 162.21 206.47 161.11 206.47 C 160.00 206.47 159.11 207.36 159.11 208.47 Z M 159.11 209.49 L 159.11 210.52 C 159.11 211.62 160.01 212.51 161.11 212.51 C 162.21 212.51 163.10 211.62 163.10 210.52 L 163.10 209.49 C 163.10 208.39 162.21 207.49 161.11 207.49 C 160.01 207.49 159.11 208.39 159.11 209.49 Z M 159.11 210.52 L 159.11 211.54 C 159.11 212.64 160.01 213.54 161.11 213.54 C 162.21 213.54 163.10 212.64 163.10 211.54 L 163.10 210.52 C 163.10 209.42 162.21 208.52 161.11 208.52 C 160.01 208.52 159.11 209.42 159.11 210.52 Z M 159.12 211.54 L 159.12 212.56 C 159.12 213.66 160.01 214.56 161.11 214.56 C 162.21 214.56 163.10 213.66 163.10 212.56 L 163.10 211.54 C 163.10 210.44 162.21 209.55 161.11 209.55 C 160.01 209.55 159.12 210.44 159.12 211.54 Z M 159.12 212.56 L 159.12 213.57 C 159.12 214.66 160.01 215.55 161.11 215.55 C 162.20 215.55 163.10 214.66 163.10 213.57 L 163.10 212.56 C 163.10 211.47 162.20 210.58 161.11 210.58 C 160.01 210.58 159.12 211.47 159.12 212.56 Z M 159.12 213.57 L 159.12 214.54 C 159.12 215.64 160.01 216.53 161.11 216.53 C 162.20 216.53 163.09 215.64 163.09 214.54 L 163.09 213.57 C 163.09 212.47 162.20 211.58 161.11 211.58 C 160.01 211.58 159.12 212.47 159.12 213.57 Z M 159.12 214.54 L 159.12 215.48 C 159.12 216.58 160.01 217.47 161.11 217.47 C 162.20 217.47 163.09 216.58 163.09 215.48 L 163.09 214.54 C 163.09 213.44 162.20 212.55 161.11 212.55 C 160.01 212.55 159.12 213.44 159.12 214.54 Z M 159.12 215.48 L 159.12 216.60 C 159.12 217.69 160.01 218.58 161.11 218.58 C 162.20 218.58 163.09 217.69 163.09 216.60 L 163.09 215.48 C 163.09 214.39 162.20 213.50 161.11 213.50 C 160.01 213.50 159.12 214.39 159.12 215.48 Z M 159.13 216.60 L 159.13 217.65 C 159.13 218.74 160.01 219.63 161.11 219.63 C 162.20 219.63 163.09 218.74 163.09 217.65 L 163.09 216.60 C 163.09 215.51 162.20 214.62 161.11 214.62 C 160.01 214.62 159.13 215.51 159.13 216.60 Z M 159.13 217.65 L 159.13 218.64 C 159.13 219.73 160.01 220.62 161.11 220.62 C 162.20 220.62 163.08 219.73 163.08 218.64 L 163.08 217.65 C 163.08 216.56 162.20 215.67 161.11 215.67 C 160.01 215.67 159.13 216.56 159.13 217.65 Z M 159.13 218.64 L 159.13 219.58 C 159.13 220.67 160.02 221.56 161.11 221.56 C 162.20 221.56 163.08 220.67 163.08 219.58 L 163.08 218.64 C 163.08 217.55 162.20 216.67 161.11 216.67 C 160.02 216.67 159.13 217.55 159.13 218.64 Z M 159.14 219.58 L 159.14 220.49 C 159.14 221.58 160.02 222.46 161.11 222.46 C 162.20 222.46 163.08 221.58 163.08 220.49 L 163.08 219.58 C 163.08 218.50 162.20 217.61 161.11 217.61 C 160.02 217.61 159.14 218.50 159.14 219.58 Z M 159.14 220.49 L 159.14 221.54 C 159.14 222.63 160.02 223.51 161.11 223.51 C 162.19 223.51 163.08 222.63 163.08 221.54 L 163.08 220.49 C 163.08 219.40 162.19 218.52 161.11 218.52 C 160.02 218.52 159.14 219.40 159.14 220.49 Z M 159.14 221.54 L 159.14 222.57 C 159.14 223.65 160.02 224.53 161.11 224.53 C 162.19 224.53 163.07 223.65 163.07 222.57 L 163.07 221.54 C 163.07 220.46 162.19 219.58 161.11 219.58 C 160.02 219.58 159.14 220.46 159.14 221.54 Z M 159.14 222.57 L 159.14 223.55 C 159.14 224.64 160.02 225.52 161.11 225.52 C 162.19 225.52 163.07 224.64 163.07 223.55 L 163.07 222.57 C 163.07 221.48 162.19 220.61 161.11 220.61 C 160.02 220.61 159.14 221.48 159.14 222.57 Z M 159.15 223.55 L 159.15 224.49 C 159.15 225.58 160.02 226.46 161.11 226.46 C 162.19 226.46 163.07 225.58 163.07 224.49 L 163.07 223.55 C 163.07 222.47 162.19 221.59 161.11 221.59 C 160.02 221.59 159.15 222.47 159.15 223.55 Z M 159.15 224.50 L 159.15 225.46 C 159.15 226.54 160.03 227.42 161.11 227.42 C 162.19 227.42 163.07 226.54 163.07 225.46 L 163.06 224.49 C 163.06 223.41 162.19 222.54 161.11 222.54 C 160.02 222.54 159.15 223.41 159.15 224.50 Z M 159.15 225.47 L 159.16 226.44 C 159.16 227.52 160.05 228.39 161.13 228.38 C 162.21 228.37 163.08 227.49 163.07 226.41 L 163.06 225.44 C 163.06 224.36 162.17 223.49 161.09 223.50 C 160.01 223.51 159.14 224.39 159.15 225.47 Z M 159.16 226.46 L 159.18 227.45 C 159.20 228.53 160.09 229.39 161.17 229.37 C 162.25 229.35 163.11 228.46 163.09 227.38 L 163.07 226.39 C 163.05 225.31 162.16 224.45 161.08 224.47 C 160.00 224.49 159.14 225.38 159.16 226.46 Z M 159.18 227.49 L 159.22 228.54 C 159.26 229.62 160.17 230.46 161.24 230.42 C 162.32 230.38 163.16 229.48 163.12 228.40 L 163.08 227.34 C 163.04 226.27 162.14 225.42 161.06 225.46 C 159.98 225.50 159.14 226.41 159.18 227.49 Z M 159.22 228.58 L 159.27 229.50 C 159.33 230.58 160.25 231.40 161.32 231.34 C 162.40 231.29 163.22 230.37 163.17 229.29 L 163.12 228.37 C 163.06 227.29 162.14 226.47 161.07 226.53 C 159.99 226.58 159.17 227.50 159.22 228.58 Z M 159.28 229.52 L 159.34 230.50 C 159.41 231.57 160.34 232.38 161.41 232.31 C 162.48 232.24 163.30 231.32 163.23 230.24 L 163.16 229.27 C 163.09 228.20 162.17 227.39 161.09 227.46 C 160.02 227.52 159.21 228.45 159.28 229.52 Z M 159.35 230.51 L 159.42 231.52 C 159.50 232.59 160.43 233.40 161.50 233.32 C 162.57 233.24 163.37 232.31 163.29 231.24 L 163.22 230.23 C 163.14 229.16 162.21 228.35 161.14 228.43 C 160.07 228.51 159.27 229.44 159.35 230.51 Z M 159.42 231.53 L 159.50 232.57 C 159.58 233.64 160.52 234.44 161.58 234.36 C 162.65 234.28 163.45 233.34 163.37 232.27 L 163.29 231.23 C 163.21 230.17 162.28 229.37 161.21 229.45 C 160.14 229.53 159.34 230.46 159.42 231.53 Z M 159.50 232.57 L 159.57 233.44 C 159.66 234.51 160.59 235.30 161.66 235.22 C 162.72 235.14 163.52 234.20 163.44 233.14 L 163.37 232.27 C 163.28 231.20 162.35 230.41 161.28 230.49 C 160.22 230.57 159.42 231.51 159.50 232.57 Z"
      fill="black"
      fill-rule="nonzero" /></svg>