<svg xmlns="http://www.w3.org/2000/svg" width="300" height="300" viewBox="0 0 300 300">
<path d="M 133.26 102.03 L 134.07 102.38 C 134.99 102.79 136.06 102.38 136.47 101.46 C 136.88 100.54 136.46 99.46 135.54 99.05 L 134.74 98.69 C 133.82 98.29 132.74 98.70 132.34 99.62 C 131.93 100.54 132.34 101.62 133.26 102.03 Z M 134.11 102.38 L 134.95 102.73 C 135.87 103.11 136.92 102.68 137.31 101.76 C 137.69 100.84 137.26 99.79 136.34 99.41 L 135.50 99.06 C 134.58 98.67 133.53 99.11 133.14 100.02 C 132.76 100.94 133.20 101.99 134.11 102.38 Z M 135.03 102.73 L 135.94 103.07 C 136.86 103.41 137.88 102.94 138.22 102.02 C 138.57 101.11 138.10 100.08 137.18 99.74 L 136.26 99.40 C 135.34 99.06 134.32 99.53 133.98 100.45 C 133.64 101.37 134.11 102.39 135.03 102.73 Z M 136.04 103.08 L 137.06 103.40 C 137.98 103.69 138.97 103.18 139.26 102.25 C 139.54 101.33 139.03 100.35 138.11 100.06 L 137.08 99.74 C 136.16 99.45 135.18 99.96 134.89 100.88 C 134.60 101.81 135.11 102.79 136.04 103.08 Z M 137.15 103.41 L 138.26 103.69 C 139.19 103.93 140.13 103.37 140.37 102.44 C 140.61 101.51 140.05 100.57 139.12 100.33 L 138.01 100.05 C 137.09 99.81 136.14 100.37 135.91 101.30 C 135.67 102.23 136.23 103.17 137.15 103.41 Z M 138.33 103.70 L 139.27 103.90 C 140.21 104.10 141.12 103.50 141.32 102.57 C 141.52 101.63 140.92 100.71 139.99 100.52 L 139.05 100.32 C 138.11 100.12 137.20 100.72 137.00 101.65 C 136.80 102.59 137.40 103.51 138.33 103.70 Z M 139.31 103.92 L 140.31 104.11 C 141.26 104.28 142.17 103.65 142.34 102.71 C 142.51 101.76 141.89 100.85 140.94 100.68 L 139.94 100.49 C 139.00 100.32 138.09 100.95 137.91 101.90 C 137.74 102.84 138.37 103.75 139.31 103.92 Z M 140.34 104.13 L 141.37 104.29 C 142.33 104.45 143.23 103.80 143.39 102.84 C 143.54 101.88 142.89 100.98 141.94 100.82 L 140.91 100.66 C 139.95 100.50 139.05 101.15 138.89 102.11 C 138.73 103.07 139.39 103.97 140.34 104.13 Z M 141.40 104.31 L 142.43 104.46 C 143.40 104.60 144.30 103.93 144.44 102.96 C 144.58 102.00 143.91 101.10 142.94 100.96 L 141.91 100.81 C 140.94 100.66 140.04 101.34 139.90 102.30 C 139.76 103.27 140.43 104.17 141.40 104.31 Z M 142.46 104.48 L 143.47 104.61 C 144.45 104.74 145.35 104.05 145.47 103.08 C 145.60 102.10 144.92 101.20 143.94 101.07 L 142.92 100.94 C 141.95 100.81 141.05 101.50 140.92 102.48 C 140.79 103.45 141.48 104.35 142.46 104.48 Z M 143.49 104.63 L 144.45 104.75 C 145.44 104.87 146.34 104.16 146.46 103.18 C 146.58 102.19 145.87 101.29 144.89 101.17 L 143.92 101.06 C 142.93 100.94 142.04 101.64 141.92 102.63 C 141.80 103.61 142.50 104.51 143.49 104.63 Z M 144.47 104.75 L 145.56 104.87 C 146.55 104.98 147.44 104.27 147.55 103.28 C 147.66 102.29 146.94 101.40 145.95 101.29 L 144.87 101.17 C 143.88 101.06 142.99 101.77 142.88 102.76 C 142.77 103.75 143.48 104.64 144.47 104.75 Z M 145.58 104.85 L 146.72 104.96 C 147.70 105.06 148.57 104.34 148.67 103.37 C 148.76 102.39 148.05 101.52 147.07 101.42 L 145.93 101.31 C 144.95 101.21 144.08 101.93 143.98 102.91 C 143.89 103.88 144.60 104.75 145.58 104.85 Z M 146.75 104.93 L 147.75 105.02 C 148.71 105.10 149.55 104.39 149.64 103.43 C 149.72 102.47 149.01 101.62 148.05 101.54 L 147.05 101.45 C 146.09 101.37 145.24 102.08 145.16 103.04 C 145.07 104.00 145.79 104.85 146.75 104.93 Z M 147.77 104.98 L 148.66 105.05 C 149.60 105.13 150.43 104.42 150.50 103.48 C 150.57 102.54 149.87 101.71 148.93 101.64 L 148.03 101.57 C 147.09 101.50 146.26 102.21 146.19 103.15 C 146.12 104.09 146.82 104.91 147.77 104.98 Z M 148.67 105.02 L 149.50 105.08 C 150.42 105.15 151.23 104.45 151.29 103.53 C 151.36 102.61 150.67 101.80 149.74 101.74 L 148.92 101.68 C 147.99 101.61 147.19 102.30 147.12 103.23 C 147.06 104.15 147.75 104.95 148.67 105.02 Z M 149.50 105.06 L 150.52 105.14 C 151.43 105.20 152.22 104.52 152.29 103.61 C 152.36 102.70 151.68 101.90 150.77 101.83 L 149.74 101.76 C 148.83 101.69 148.04 102.37 147.97 103.28 C 147.90 104.20 148.59 104.99 149.50 105.06 Z M 150.50 105.13 L 151.50 105.21 C 152.41 105.29 153.21 104.61 153.28 103.71 C 153.36 102.80 152.69 102.00 151.78 101.93 L 150.78 101.84 C 149.87 101.77 149.08 102.44 149.00 103.35 C 148.92 104.25 149.60 105.05 150.50 105.13 Z M 151.48 105.20 L 152.45 105.30 C 153.35 105.39 154.16 104.73 154.25 103.83 C 154.34 102.93 153.68 102.12 152.77 102.03 L 151.80 101.93 C 150.90 101.84 150.09 102.50 150.00 103.41 C 149.91 104.31 150.57 105.11 151.48 105.20 Z M 152.42 105.29 L 153.39 105.41 C 154.29 105.52 155.11 104.88 155.22 103.98 C 155.32 103.08 154.68 102.26 153.78 102.16 L 152.81 102.04 C 151.91 101.93 151.09 102.57 150.98 103.47 C 150.88 104.37 151.52 105.18 152.42 105.29 Z M 153.36 105.40 L 154.35 105.54 C 155.25 105.67 156.07 105.04 156.20 104.15 C 156.32 103.25 155.70 102.43 154.80 102.30 L 153.82 102.16 C 152.92 102.04 152.09 102.66 151.97 103.56 C 151.84 104.45 152.47 105.28 153.36 105.40 Z M 154.33 105.54 L 155.32 105.69 C 156.21 105.83 157.05 105.21 157.19 104.32 C 157.32 103.43 156.71 102.59 155.82 102.45 L 154.83 102.30 C 153.93 102.17 153.10 102.78 152.96 103.67 C 152.82 104.57 153.44 105.40 154.33 105.54 Z M 155.31 105.69 L 156.16 105.82 C 157.05 105.97 157.89 105.36 158.03 104.46 C 158.17 103.57 157.56 102.73 156.67 102.59 L 155.82 102.46 C 154.93 102.31 154.09 102.92 153.95 103.82 C 153.81 104.71 154.42 105.55 155.31 105.69 Z"
      fill="black"
      fill-rule="nonzero" /><path d="M 126.63 123.60 L 127.60 123.79 C 128.57 123.98 129.51 123.35 129.69 122.38 C 129.88 121.41 129.25 120.48 128.28 120.29 L 127.31 120.10 C 126.35 119.91 125.41 120.55 125.22 121.51 C 125.04 122.48 125.67 123.41 126.63 123.60 Z M 127.66 123.83 L 128.64 123.98 C 129.63 124.14 130.56 123.47 130.71 122.48 C 130.87 121.49 130.20 120.56 129.21 120.41 L 128.23 120.25 C 127.24 120.10 126.31 120.77 126.16 121.76 C 126.00 122.75 126.67 123.67 127.66 123.83 Z M 128.76 124.03 L 129.76 124.12 C 130.78 124.21 131.67 123.46 131.76 122.45 C 131.85 121.43 131.10 120.54 130.09 120.45 L 129.09 120.36 C 128.08 120.27 127.18 121.02 127.09 122.03 C 127.00 123.05 127.75 123.94 128.76 124.03 Z M 129.93 124.14 L 130.82 124.14 C 131.85 124.14 132.68 123.31 132.68 122.28 C 132.68 121.25 131.84 120.42 130.81 120.42 L 129.92 120.42 C 128.90 120.43 128.06 121.26 128.07 122.29 C 128.07 123.32 128.90 124.15 129.93 124.14 Z M 130.99 124.14 L 131.83 124.06 C 132.85 123.97 133.61 123.06 133.51 122.03 C 133.42 121.01 132.51 120.25 131.49 120.35 L 130.65 120.42 C 129.62 120.52 128.86 121.43 128.96 122.45 C 129.05 123.48 129.96 124.24 130.99 124.14 Z M 131.96 124.05 L 132.89 123.89 C 133.91 123.72 134.60 122.76 134.43 121.74 C 134.26 120.72 133.29 120.04 132.28 120.21 L 131.35 120.36 C 130.33 120.53 129.64 121.50 129.81 122.51 C 129.98 123.53 130.95 124.22 131.96 124.05 Z M 133.00 123.87 L 134.06 123.63 C 135.07 123.40 135.70 122.40 135.47 121.40 C 135.24 120.39 134.24 119.76 133.24 119.99 L 132.17 120.23 C 131.17 120.46 130.54 121.46 130.76 122.46 C 130.99 123.47 131.99 124.10 133.00 123.87 Z M 134.13 123.61 L 135.31 123.30 C 136.31 123.03 136.90 122.00 136.63 121.01 C 136.37 120.01 135.34 119.42 134.35 119.69 L 133.17 120.00 C 132.17 120.27 131.58 121.30 131.85 122.29 C 132.11 123.29 133.14 123.88 134.13 123.61 Z M 135.35 123.28 L 136.21 123.04 C 137.20 122.75 137.77 121.71 137.48 120.72 C 137.19 119.73 136.15 119.16 135.16 119.45 L 134.31 119.70 C 133.32 119.99 132.75 121.02 133.04 122.01 C 133.33 123.00 134.36 123.57 135.35 123.28 Z M 136.23 123.03 L 137.14 122.75 C 138.13 122.45 138.69 121.41 138.39 120.42 C 138.09 119.44 137.05 118.88 136.06 119.18 L 135.14 119.46 C 134.16 119.76 133.60 120.80 133.90 121.79 C 134.20 122.77 135.24 123.33 136.23 123.03 Z M 137.16 122.75 L 138.12 122.44 C 139.11 122.14 139.65 121.09 139.34 120.10 C 139.03 119.12 137.99 118.57 137.00 118.88 L 136.04 119.18 C 135.06 119.49 134.51 120.54 134.82 121.52 C 135.13 122.51 136.18 123.06 137.16 122.75 Z M 138.14 122.44 L 139.12 122.12 C 140.11 121.80 140.65 120.75 140.33 119.77 C 140.01 118.79 138.96 118.25 137.98 118.57 L 136.99 118.89 C 136.01 119.20 135.47 120.25 135.79 121.24 C 136.10 122.22 137.15 122.76 138.14 122.44 Z M 139.14 122.12 L 140.14 121.79 C 141.12 121.46 141.65 120.41 141.32 119.43 C 141.00 118.45 139.95 117.92 138.97 118.24 L 137.97 118.57 C 136.99 118.89 136.46 119.95 136.78 120.93 C 137.10 121.91 138.16 122.44 139.14 122.12 Z M 140.15 121.78 L 141.14 121.45 C 142.12 121.12 142.64 120.06 142.31 119.09 C 141.99 118.11 140.93 117.58 139.95 117.91 L 138.96 118.24 C 137.98 118.57 137.45 119.63 137.78 120.61 C 138.11 121.59 139.17 122.11 140.15 121.78 Z M 141.15 121.45 L 142.12 121.11 C 143.09 120.78 143.61 119.72 143.28 118.74 C 142.95 117.77 141.88 117.25 140.91 117.58 L 139.94 117.91 C 138.97 118.25 138.44 119.31 138.78 120.28 C 139.11 121.26 140.17 121.78 141.15 121.45 Z M 142.13 121.11 L 143.10 120.77 C 144.07 120.43 144.59 119.37 144.25 118.40 C 143.91 117.42 142.85 116.91 141.87 117.25 L 140.90 117.59 C 139.93 117.93 139.41 118.99 139.75 119.96 C 140.09 120.93 141.15 121.45 142.13 121.11 Z M 143.11 120.76 L 144.05 120.43 C 145.02 120.09 145.53 119.03 145.18 118.06 C 144.84 117.09 143.78 116.58 142.81 116.92 L 141.87 117.26 C 140.90 117.60 140.39 118.66 140.73 119.63 C 141.07 120.60 142.14 121.11 143.11 120.76 Z M 144.05 120.42 L 144.98 120.10 C 145.94 119.75 146.44 118.69 146.10 117.72 C 145.75 116.76 144.69 116.26 143.73 116.60 L 142.81 116.93 C 141.84 117.27 141.34 118.34 141.68 119.30 C 142.03 120.27 143.09 120.77 144.05 120.42 Z M 144.98 120.09 L 145.89 119.76 C 146.85 119.42 147.35 118.36 147.01 117.39 C 146.66 116.43 145.60 115.93 144.64 116.28 L 143.73 116.61 C 142.76 116.95 142.26 118.01 142.61 118.97 C 142.96 119.94 144.02 120.44 144.98 120.09 Z M 145.89 119.76 L 146.81 119.43 C 147.77 119.08 148.27 118.02 147.92 117.06 C 147.58 116.10 146.52 115.61 145.56 115.95 L 144.64 116.28 C 143.68 116.63 143.18 117.68 143.53 118.64 C 143.87 119.60 144.93 120.10 145.89 119.76 Z M 146.81 119.42 L 147.75 119.09 C 148.70 118.74 149.20 117.69 148.86 116.73 C 148.52 115.77 147.46 115.27 146.50 115.62 L 145.56 115.95 C 144.61 116.30 144.11 117.35 144.45 118.31 C 144.79 119.27 145.85 119.77 146.81 119.42 Z M 147.74 119.08 L 148.72 118.74 C 149.67 118.40 150.17 117.35 149.83 116.39 C 149.49 115.43 148.44 114.93 147.49 115.27 L 146.51 115.62 C 145.55 115.96 145.05 117.01 145.39 117.97 C 145.73 118.92 146.78 119.42 147.74 119.08 Z M 148.71 118.73 L 149.59 118.42 C 150.54 118.09 151.04 117.04 150.71 116.09 C 150.37 115.13 149.33 114.63 148.37 114.97 L 147.50 115.28 C 146.54 115.61 146.04 116.66 146.37 117.61 C 146.71 118.57 147.75 119.07 148.71 118.73 Z M 149.58 118.42 L 150.47 118.11 C 151.43 117.78 151.93 116.74 151.60 115.79 C 151.27 114.83 150.23 114.33 149.27 114.66 L 148.38 114.97 C 147.43 115.30 146.92 116.34 147.26 117.30 C 147.59 118.25 148.63 118.75 149.58 118.42 Z M 150.47 118.11 L 151.39 117.79 C 152.34 117.46 152.85 116.43 152.52 115.47 C 152.19 114.52 151.15 114.02 150.20 114.35 L 149.28 114.66 C 148.33 114.99 147.82 116.03 148.15 116.98 C 148.48 117.93 149.52 118.44 150.47 118.11 Z M 151.38 117.79 L 152.33 117.46 C 153.28 117.14 153.79 116.11 153.46 115.16 C 153.14 114.21 152.10 113.70 151.15 114.03 L 150.21 114.35 C 149.26 114.67 148.75 115.71 149.08 116.66 C 149.40 117.60 150.44 118.11 151.38 117.79 Z M 152.33 117.46 L 153.29 117.13 C 154.24 116.81 154.74 115.78 154.42 114.83 C 154.10 113.89 153.07 113.38 152.12 113.70 L 151.16 114.03 C 150.21 114.35 149.71 115.38 150.03 116.33 C 150.35 117.27 151.38 117.78 152.33 117.46 Z M 153.29 117.13 L 154.26 116.80 C 155.21 116.48 155.72 115.45 155.40 114.51 C 155.08 113.56 154.05 113.06 153.11 113.37 L 152.13 113.71 C 151.18 114.02 150.68 115.05 151.00 115.99 C 151.32 116.94 152.34 117.45 153.29 117.13 Z M 154.26 116.79 L 155.25 116.46 C 156.19 116.14 156.70 115.12 156.38 114.18 C 156.06 113.24 155.04 112.73 154.10 113.05 L 153.11 113.38 C 152.17 113.70 151.66 114.72 151.98 115.66 C 152.30 116.60 153.32 117.11 154.26 116.79 Z M 155.24 116.46 L 156.23 116.12 C 157.18 115.81 157.68 114.79 157.37 113.85 C 157.05 112.91 156.04 112.40 155.10 112.72 L 154.10 113.05 C 153.16 113.37 152.66 114.38 152.97 115.32 C 153.29 116.26 154.30 116.77 155.24 116.46 Z M 156.23 116.12 L 157.27 115.77 C 158.20 115.46 158.71 114.45 158.40 113.51 C 158.09 112.57 157.07 112.07 156.14 112.38 L 155.10 112.73 C 154.16 113.04 153.66 114.05 153.97 114.99 C 154.28 115.92 155.29 116.43 156.23 116.12 Z M 157.26 115.76 L 158.31 115.41 C 159.24 115.10 159.75 114.10 159.44 113.17 C 159.13 112.24 158.12 111.73 157.19 112.04 L 156.14 112.39 C 155.21 112.70 154.71 113.70 155.02 114.64 C 155.32 115.57 156.33 116.07 157.26 115.76 Z M 158.30 115.40 L 159.33 115.06 C 160.26 114.76 160.76 113.76 160.46 112.84 C 160.15 111.91 159.15 111.41 158.23 111.71 L 157.20 112.05 C 156.27 112.36 155.77 113.36 156.08 114.28 C 156.38 115.21 157.38 115.71 158.30 115.40 Z M 159.33 115.05 L 160.33 114.72 C 161.25 114.42 161.75 113.43 161.45 112.51 C 161.14 111.60 160.16 111.10 159.24 111.40 L 158.24 111.73 C 157.32 112.03 156.82 113.02 157.12 113.93 C 157.42 114.85 158.41 115.35 159.33 115.05 Z M 160.32 114.71 L 161.28 114.40 C 162.20 114.10 162.69 113.12 162.40 112.21 C 162.10 111.30 161.12 110.80 160.21 111.09 L 159.24 111.41 C 158.33 111.71 157.83 112.69 158.13 113.60 C 158.43 114.51 159.41 115.01 160.32 114.71 Z M 161.28 114.39 L 162.19 114.09 C 163.09 113.80 163.59 112.83 163.30 111.92 C 163.00 111.01 162.03 110.52 161.13 110.81 L 160.21 111.11 C 159.31 111.40 158.81 112.37 159.10 113.28 C 159.40 114.18 160.37 114.68 161.28 114.39 Z M 162.18 114.08 L 163.03 113.81 C 163.93 113.52 164.43 112.56 164.14 111.66 C 163.85 110.76 162.89 110.26 161.99 110.55 L 161.13 110.82 C 160.23 111.11 159.74 112.07 160.03 112.97 C 160.31 113.87 161.28 114.37 162.18 114.08 Z M 163.02 113.80 L 163.80 113.55 C 164.70 113.27 165.19 112.31 164.91 111.42 C 164.63 110.52 163.67 110.03 162.78 110.31 L 162.00 110.56 C 161.10 110.84 160.61 111.80 160.89 112.69 C 161.17 113.58 162.13 114.08 163.02 113.80 Z M 163.79 113.54 L 164.99 113.17 C 165.88 112.89 166.38 111.95 166.10 111.06 C 165.82 110.17 164.88 109.67 163.99 109.95 L 162.79 110.32 C 161.90 110.60 161.40 111.54 161.68 112.43 C 161.95 113.32 162.90 113.82 163.79 113.54 Z M 164.97 113.16 L 165.99 112.86 C 166.87 112.59 167.37 111.66 167.11 110.77 C 166.84 109.89 165.91 109.39 165.03 109.65 L 164.01 109.96 C 163.13 110.22 162.62 111.15 162.89 112.04 C 163.15 112.92 164.08 113.43 164.97 113.16 Z M 165.97 112.85 L 166.84 112.60 C 167.72 112.34 168.23 111.42 167.98 110.54 C 167.72 109.66 166.80 109.15 165.92 109.41 L 165.04 109.66 C 164.16 109.91 163.66 110.84 163.91 111.72 C 164.17 112.60 165.09 113.10 165.97 112.85 Z M 166.83 112.59 L 167.63 112.36 C 168.50 112.11 169.01 111.20 168.76 110.33 C 168.52 109.45 167.61 108.94 166.73 109.19 L 165.93 109.42 C 165.06 109.66 164.55 110.57 164.80 111.45 C 165.04 112.32 165.95 112.83 166.83 112.59 Z M 167.62 112.35 L 167.86 112.29 C 168.74 112.04 169.24 111.14 169.00 110.27 C 168.76 109.39 167.85 108.89 166.98 109.13 L 166.74 109.20 C 165.86 109.44 165.35 110.35 165.60 111.22 C 165.84 112.09 166.75 112.60 167.62 112.35 Z"
      fill="black"
      fill-rule="nonzero" /><path d="M 143.88 145.50 L 144.75 145.34 C 145.72 145.15 146.36 144.22 146.18 143.24 C 146.00 142.27 145.06 141.63 144.09 141.82 L 143.22 141.98 C 142.25 142.16 141.61 143.10 141.79 144.07 C 141.97 145.05 142.91 145.68 143.88 145.50 Z M 144.79 145.33 L 145.70 145.14 C 146.66 144.93 147.28 143.98 147.08 143.02 C 146.87 142.05 145.93 141.43 144.96 141.64 L 144.05 141.83 C 143.09 142.03 142.47 142.98 142.67 143.94 C 142.87 144.91 143.82 145.53 144.79 145.33 Z M 145.76 145.12 L 146.74 144.87 C 147.69 144.64 148.28 143.67 148.04 142.72 C 147.81 141.76 146.84 141.18 145.88 141.41 L 144.90 141.65 C 143.94 141.89 143.36 142.86 143.60 143.81 C 143.83 144.77 144.80 145.35 145.76 145.12 Z M 146.81 144.85 L 147.91 144.53 C 148.85 144.25 149.39 143.26 149.11 142.32 C 148.84 141.38 147.85 140.84 146.90 141.11 L 145.81 141.44 C 144.87 141.71 144.33 142.70 144.60 143.64 C 144.88 144.59 145.87 145.13 146.81 144.85 Z M 147.97 144.51 L 148.91 144.19 C 149.84 143.88 150.34 142.87 150.03 141.94 C 149.72 141.01 148.71 140.51 147.78 140.82 L 146.84 141.14 C 145.91 141.45 145.41 142.46 145.72 143.39 C 146.03 144.32 147.04 144.82 147.97 144.51 Z M 148.94 144.18 L 149.90 143.84 C 150.82 143.50 151.30 142.49 150.97 141.57 C 150.64 140.64 149.62 140.16 148.70 140.49 L 147.75 140.84 C 146.82 141.17 146.34 142.18 146.67 143.11 C 147.01 144.03 148.02 144.51 148.94 144.18 Z M 149.91 143.83 L 150.89 143.46 C 151.81 143.12 152.28 142.10 151.94 141.18 C 151.60 140.27 150.58 139.80 149.66 140.14 L 148.68 140.50 C 147.76 140.84 147.29 141.86 147.64 142.78 C 147.98 143.70 149.00 144.17 149.91 143.83 Z M 150.90 143.46 L 151.87 143.10 C 152.79 142.75 153.25 141.73 152.91 140.82 C 152.56 139.90 151.54 139.43 150.63 139.78 L 149.65 140.14 C 148.74 140.49 148.27 141.51 148.62 142.42 C 148.96 143.34 149.98 143.80 150.90 143.46 Z M 151.86 143.10 L 152.80 142.75 C 153.72 142.41 154.18 141.39 153.85 140.48 C 153.51 139.56 152.49 139.09 151.57 139.43 L 150.64 139.78 C 149.72 140.12 149.25 141.13 149.59 142.05 C 149.93 142.97 150.95 143.44 151.86 143.10 Z M 152.77 142.76 L 153.76 142.41 C 154.68 142.09 155.16 141.08 154.84 140.16 C 154.51 139.24 153.51 138.75 152.59 139.08 L 151.60 139.43 C 150.68 139.75 150.20 140.76 150.52 141.68 C 150.84 142.60 151.85 143.08 152.77 142.76 Z M 153.67 142.42 L 154.90 142.05 C 155.83 141.78 156.35 140.80 156.08 139.88 C 155.80 138.95 154.82 138.42 153.90 138.70 L 152.67 139.07 C 151.74 139.34 151.22 140.32 151.49 141.25 C 151.77 142.17 152.75 142.70 153.67 142.42 Z M 154.66 142.08 L 155.62 141.93 C 156.57 141.79 157.21 140.90 157.06 139.96 C 156.92 139.02 156.03 138.37 155.09 138.52 L 154.13 138.67 C 153.19 138.82 152.54 139.70 152.69 140.64 C 152.84 141.59 153.72 142.23 154.66 142.08 Z M 155.06 141.91 L 155.74 142.03 C 156.66 142.19 157.55 141.58 157.72 140.65 C 157.88 139.72 157.27 138.84 156.34 138.67 L 155.66 138.55 C 154.73 138.38 153.85 139.00 153.68 139.93 C 153.51 140.85 154.13 141.74 155.06 141.91 Z M 154.72 141.40 L 155.16 141.96 C 155.74 142.68 156.81 142.80 157.53 142.22 C 158.26 141.63 158.38 140.57 157.80 139.85 L 157.35 139.30 C 156.77 138.57 155.71 138.45 154.98 139.03 C 154.26 139.62 154.14 140.68 154.72 141.40 Z M 154.81 141.02 L 154.88 141.98 C 154.94 142.90 155.75 143.60 156.67 143.53 C 157.60 143.46 158.29 142.66 158.22 141.73 L 158.15 140.78 C 158.09 139.85 157.28 139.16 156.36 139.23 C 155.43 139.29 154.74 140.10 154.81 141.02 Z M 154.92 141.49 L 154.65 142.68 C 154.46 143.58 155.02 144.48 155.93 144.67 C 156.83 144.87 157.72 144.30 157.92 143.40 L 158.18 142.22 C 158.38 141.31 157.81 140.42 156.91 140.22 C 156.01 140.02 155.12 140.59 154.92 141.49 Z M 154.72 142.45 L 154.40 143.32 C 154.07 144.18 154.50 145.15 155.37 145.47 C 156.23 145.80 157.19 145.36 157.52 144.50 L 157.85 143.63 C 158.17 142.77 157.74 141.81 156.88 141.48 C 156.01 141.15 155.05 141.59 154.72 142.45 Z M 154.44 143.21 L 154.02 144.11 C 153.63 144.95 153.99 145.94 154.83 146.33 C 155.67 146.72 156.67 146.36 157.06 145.52 L 157.48 144.62 C 157.87 143.78 157.50 142.78 156.66 142.39 C 155.82 142.00 154.83 142.37 154.44 143.21 Z M 154.05 144.04 L 153.57 144.95 C 153.14 145.77 153.46 146.79 154.28 147.22 C 155.10 147.65 156.12 147.33 156.55 146.51 L 157.03 145.60 C 157.46 144.77 157.14 143.76 156.32 143.33 C 155.50 142.90 154.48 143.21 154.05 144.04 Z M 153.59 144.91 L 153.08 145.81 C 152.62 146.62 152.91 147.65 153.72 148.11 C 154.53 148.56 155.56 148.27 156.02 147.46 L 156.53 146.56 C 156.98 145.75 156.69 144.72 155.88 144.26 C 155.07 143.81 154.05 144.09 153.59 144.91 Z M 153.09 145.79 L 152.56 146.69 C 152.09 147.50 152.36 148.53 153.17 149.00 C 153.98 149.47 155.01 149.20 155.48 148.39 L 156.01 147.49 C 156.48 146.68 156.21 145.65 155.40 145.18 C 154.59 144.71 153.56 144.98 153.09 145.79 Z M 152.56 146.67 L 152.04 147.55 C 151.56 148.36 151.82 149.40 152.63 149.88 C 153.44 150.36 154.48 150.09 154.96 149.29 L 155.48 148.41 C 155.96 147.61 155.69 146.56 154.89 146.08 C 154.08 145.60 153.04 145.87 152.56 146.67 Z M 152.04 147.54 L 151.53 148.39 C 151.04 149.19 151.30 150.24 152.11 150.73 C 152.91 151.21 153.96 150.95 154.45 150.15 L 154.96 149.30 C 155.44 148.49 155.18 147.45 154.38 146.96 C 153.57 146.47 152.52 146.73 152.04 147.54 Z M 151.52 148.38 L 151.02 149.21 C 150.54 150.02 150.80 151.07 151.60 151.56 C 152.41 152.05 153.47 151.79 153.96 150.98 L 154.45 150.15 C 154.94 149.34 154.68 148.29 153.87 147.80 C 153.06 147.31 152.01 147.57 151.52 148.38 Z M 151.01 149.21 L 150.50 150.08 C 150.01 150.89 150.27 151.95 151.09 152.43 C 151.90 152.92 152.96 152.66 153.45 151.84 L 153.97 150.97 C 154.45 150.16 154.19 149.10 153.37 148.62 C 152.56 148.13 151.50 148.39 151.01 149.21 Z M 150.48 150.08 L 149.97 150.96 C 149.49 151.78 149.76 152.84 150.58 153.32 C 151.41 153.80 152.46 153.53 152.95 152.71 L 153.46 151.83 C 153.94 151.01 153.67 149.95 152.85 149.47 C 152.02 148.99 150.97 149.26 150.48 150.08 Z M 149.96 150.97 L 149.46 151.83 C 148.99 152.66 149.27 153.71 150.10 154.19 C 150.93 154.67 151.99 154.38 152.47 153.55 L 152.96 152.70 C 153.44 151.87 153.15 150.81 152.32 150.33 C 151.49 149.85 150.43 150.14 149.96 150.97 Z M 149.45 151.84 L 148.97 152.69 C 148.50 153.52 148.80 154.58 149.64 155.05 C 150.48 155.52 151.54 155.23 152.00 154.39 L 152.48 153.54 C 152.95 152.70 152.65 151.64 151.81 151.18 C 150.98 150.71 149.92 151.00 149.45 151.84 Z M 148.96 152.71 L 148.47 153.61 C 148.01 154.45 148.32 155.51 149.16 155.97 C 150.01 156.43 151.07 156.12 151.53 155.28 L 152.02 154.37 C 152.48 153.53 152.17 152.47 151.32 152.01 C 150.48 151.55 149.42 151.86 148.96 152.71 Z M 148.46 153.63 L 147.99 154.52 C 147.54 155.37 147.86 156.42 148.71 156.87 C 149.56 157.32 150.62 157.00 151.07 156.15 L 151.54 155.26 C 151.99 154.40 151.66 153.35 150.81 152.90 C 149.96 152.45 148.90 152.78 148.46 153.63 Z M 147.97 154.54 L 147.53 155.41 C 147.09 156.27 147.43 157.32 148.28 157.76 C 149.14 158.20 150.19 157.86 150.63 157.00 L 151.08 156.13 C 151.52 155.27 151.18 154.22 150.32 153.78 C 149.47 153.34 148.41 153.68 147.97 154.54 Z M 147.52 155.43 L 147.08 156.30 C 146.65 157.16 147.00 158.21 147.87 158.64 C 148.73 159.07 149.78 158.72 150.21 157.86 L 150.64 156.98 C 151.07 156.12 150.72 155.07 149.86 154.64 C 148.99 154.21 147.95 154.56 147.52 155.43 Z M 147.06 156.34 L 146.65 157.22 C 146.24 158.10 146.61 159.14 147.49 159.55 C 148.36 159.96 149.40 159.58 149.81 158.71 L 150.23 157.82 C 150.64 156.95 150.26 155.91 149.39 155.50 C 148.51 155.09 147.47 155.46 147.06 156.34 Z M 146.62 157.29 L 146.23 158.21 C 145.86 159.10 146.28 160.13 147.17 160.50 C 148.06 160.87 149.08 160.45 149.46 159.56 L 149.84 158.64 C 150.21 157.75 149.79 156.73 148.90 156.35 C 148.01 155.98 146.99 156.40 146.62 157.29 Z M 146.20 158.30 L 145.85 159.30 C 145.52 160.21 146.00 161.21 146.91 161.53 C 147.82 161.85 148.82 161.37 149.14 160.46 L 149.49 159.47 C 149.81 158.56 149.33 157.56 148.43 157.24 C 147.52 156.92 146.52 157.40 146.20 158.30 Z M 145.80 159.44 L 145.53 160.51 C 145.28 161.44 145.84 162.39 146.77 162.64 C 147.71 162.88 148.66 162.32 148.90 161.39 L 149.18 160.32 C 149.42 159.39 148.87 158.44 147.93 158.19 C 147.00 157.95 146.05 158.51 145.80 159.44 Z M 145.48 160.79 L 145.39 161.78 C 145.30 162.74 146.01 163.59 146.97 163.68 C 147.93 163.77 148.77 163.06 148.86 162.10 L 148.95 161.10 C 149.04 160.15 148.33 159.30 147.37 159.21 C 146.41 159.12 145.56 159.83 145.48 160.79 Z M 145.44 162.39 L 145.66 163.20 C 145.91 164.13 146.86 164.68 147.79 164.43 C 148.72 164.18 149.27 163.22 149.02 162.29 L 148.81 161.49 C 148.56 160.56 147.60 160.01 146.67 160.26 C 145.74 160.51 145.19 161.46 145.44 162.39 Z M 146.18 164.05 L 146.83 164.63 C 147.55 165.27 148.66 165.21 149.30 164.49 C 149.94 163.77 149.88 162.67 149.16 162.03 L 148.50 161.44 C 147.78 160.80 146.68 160.86 146.04 161.58 C 145.39 162.30 145.46 163.41 146.18 164.05 Z M 147.18 164.88 L 148.08 165.35 C 148.93 165.80 149.99 165.46 150.44 164.60 C 150.89 163.74 150.55 162.68 149.70 162.24 L 148.80 161.77 C 147.94 161.33 146.89 161.66 146.44 162.52 C 145.99 163.38 146.33 164.44 147.18 164.88 Z M 147.90 165.25 L 148.73 165.81 C 149.53 166.36 150.63 166.15 151.17 165.34 C 151.72 164.54 151.51 163.44 150.70 162.90 L 149.87 162.34 C 149.07 161.79 147.97 162.00 147.43 162.80 C 146.88 163.61 147.09 164.70 147.90 165.25 Z M 148.36 165.49 L 148.88 166.11 C 149.51 166.86 150.62 166.96 151.37 166.33 C 152.12 165.70 152.22 164.59 151.59 163.84 L 151.07 163.22 C 150.44 162.47 149.33 162.38 148.58 163.00 C 147.83 163.63 147.74 164.74 148.36 165.49 Z M 148.67 165.81 L 149.11 166.62 C 149.57 167.48 150.64 167.81 151.50 167.35 C 152.37 166.89 152.69 165.82 152.23 164.95 L 151.80 164.14 C 151.34 163.28 150.26 162.95 149.40 163.41 C 148.54 163.87 148.21 164.95 148.67 165.81 Z M 149.00 166.40 L 149.38 167.42 C 149.71 168.34 150.73 168.81 151.65 168.47 C 152.57 168.13 153.05 167.11 152.71 166.19 L 152.34 165.18 C 152.00 164.26 150.98 163.78 150.06 164.12 C 149.14 164.46 148.67 165.48 149.00 166.40 Z M 149.33 167.28 L 149.65 168.44 C 149.91 169.39 150.88 169.95 151.83 169.69 C 152.78 169.43 153.34 168.45 153.08 167.50 L 152.76 166.33 C 152.50 165.39 151.52 164.83 150.57 165.09 C 149.62 165.35 149.07 166.33 149.33 167.28 Z M 149.63 168.37 L 149.83 169.28 C 150.05 170.24 151.01 170.84 151.97 170.62 C 152.93 170.40 153.53 169.44 153.31 168.49 L 153.10 167.57 C 152.88 166.61 151.92 166.01 150.96 166.23 C 150.00 166.45 149.41 167.41 149.63 168.37 Z M 149.82 169.24 L 150.02 170.22 C 150.22 171.19 151.16 171.81 152.13 171.61 C 153.09 171.41 153.72 170.47 153.52 169.51 L 153.32 168.53 C 153.12 167.56 152.18 166.94 151.21 167.14 C 150.25 167.33 149.63 168.28 149.82 169.24 Z M 150.02 170.19 L 150.21 171.21 C 150.39 172.18 151.32 172.82 152.29 172.63 C 153.26 172.45 153.90 171.52 153.72 170.55 L 153.53 169.54 C 153.35 168.57 152.41 167.93 151.44 168.11 C 150.48 168.29 149.84 169.22 150.02 170.19 Z M 150.20 171.18 L 150.38 172.21 C 150.55 173.18 151.47 173.84 152.44 173.67 C 153.42 173.50 154.07 172.58 153.90 171.60 L 153.72 170.58 C 153.55 169.60 152.63 168.95 151.66 169.12 C 150.69 169.29 150.03 170.21 150.20 171.18 Z M 150.37 172.19 L 150.54 173.21 C 150.70 174.18 151.62 174.84 152.59 174.68 C 153.56 174.53 154.23 173.61 154.07 172.63 L 153.90 171.62 C 153.75 170.65 152.83 169.99 151.85 170.14 C 150.88 170.30 150.22 171.22 150.37 172.19 Z M 150.53 173.19 L 150.68 174.16 C 150.83 175.13 151.75 175.80 152.72 175.66 C 153.70 175.51 154.37 174.59 154.22 173.61 L 154.07 172.65 C 153.92 171.67 153.01 171.00 152.03 171.15 C 151.06 171.30 150.39 172.21 150.53 173.19 Z M 150.68 174.14 L 150.83 175.19 C 150.98 176.17 151.88 176.84 152.86 176.70 C 153.84 176.56 154.52 175.65 154.38 174.67 L 154.22 173.63 C 154.08 172.65 153.17 171.97 152.19 172.11 C 151.22 172.26 150.54 173.17 150.68 174.14 Z M 150.83 175.18 L 150.97 176.16 C 151.10 177.14 152.01 177.82 152.99 177.69 C 153.97 177.55 154.65 176.65 154.51 175.67 L 154.38 174.69 C 154.24 173.71 153.34 173.02 152.36 173.16 C 151.38 173.29 150.70 174.20 150.83 175.18 Z M 150.97 176.15 L 151.09 177.10 C 151.22 178.08 152.12 178.77 153.10 178.64 C 154.08 178.51 154.77 177.61 154.64 176.63 L 154.52 175.68 C 154.39 174.70 153.49 174.01 152.50 174.14 C 151.52 174.27 150.84 175.17 150.97 176.15 Z M 151.09 177.10 L 151.22 178.06 C 151.34 179.04 152.24 179.73 153.22 179.60 C 154.20 179.47 154.89 178.58 154.77 177.60 L 154.64 176.64 C 154.52 175.66 153.62 174.97 152.64 175.09 C 151.66 175.22 150.96 176.12 151.09 177.10 Z M 151.22 178.06 L 151.34 179.05 C 151.47 180.03 152.37 180.73 153.35 180.60 C 154.33 180.47 155.02 179.57 154.90 178.59 L 154.77 177.60 C 154.64 176.62 153.74 175.92 152.76 176.05 C 151.78 176.18 151.09 177.08 151.22 178.06 Z M 151.34 179.06 L 151.47 180.00 C 151.60 180.98 152.50 181.67 153.48 181.54 C 154.46 181.41 155.15 180.51 155.02 179.53 L 154.90 178.59 C 154.77 177.61 153.87 176.92 152.89 177.05 C 151.91 177.18 151.22 178.08 151.34 179.06 Z M 151.47 180.00 L 151.60 180.94 C 151.73 181.93 152.63 182.61 153.61 182.48 C 154.59 182.35 155.28 181.45 155.15 180.47 L 155.02 179.53 C 154.89 178.55 153.99 177.86 153.01 177.99 C 152.03 178.12 151.34 179.02 151.47 180.00 Z M 151.60 180.95 L 151.73 181.93 C 151.86 182.91 152.77 183.60 153.75 183.46 C 154.73 183.33 155.41 182.42 155.28 181.44 L 155.14 180.46 C 155.01 179.48 154.11 178.80 153.13 178.93 C 152.15 179.07 151.46 179.97 151.60 180.95 Z M 151.73 181.94 L 151.87 182.94 C 152.01 183.92 152.91 184.61 153.89 184.47 C 154.87 184.33 155.56 183.43 155.42 182.45 L 155.28 181.44 C 155.14 180.46 154.24 179.78 153.26 179.91 C 152.28 180.05 151.59 180.96 151.73 181.94 Z M 151.87 182.95 L 152.02 183.98 C 152.16 184.96 153.07 185.64 154.05 185.50 C 155.03 185.36 155.71 184.45 155.57 183.47 L 155.42 182.44 C 155.28 181.46 154.37 180.78 153.39 180.92 C 152.41 181.06 151.73 181.97 151.87 182.95 Z M 152.02 183.98 L 152.17 185.02 C 152.32 185.99 153.23 186.67 154.21 186.53 C 155.18 186.38 155.86 185.47 155.72 184.49 L 155.56 183.46 C 155.42 182.48 154.51 181.81 153.53 181.95 C 152.55 182.10 151.88 183.01 152.02 183.98 Z M 152.17 185.02 L 152.34 186.08 C 152.48 187.06 153.40 187.73 154.37 187.58 C 155.35 187.43 156.02 186.52 155.88 185.54 L 155.71 184.49 C 155.57 183.51 154.65 182.84 153.68 182.99 C 152.70 183.13 152.03 184.05 152.17 185.02 Z M 152.34 186.09 L 152.51 187.18 C 152.66 188.15 153.58 188.82 154.56 188.66 C 155.53 188.51 156.20 187.59 156.04 186.62 L 155.87 185.53 C 155.72 184.55 154.80 183.89 153.83 184.04 C 152.85 184.20 152.18 185.11 152.34 186.09 Z M 152.51 187.19 L 152.69 188.24 C 152.85 189.21 153.77 189.87 154.74 189.71 C 155.71 189.55 156.37 188.64 156.21 187.66 L 156.04 186.61 C 155.88 185.63 154.96 184.98 153.99 185.13 C 153.02 185.29 152.36 186.21 152.51 187.19 Z M 152.69 188.25 L 152.86 189.26 C 153.03 190.23 153.95 190.88 154.92 190.72 C 155.89 190.55 156.54 189.63 156.38 188.66 L 156.21 187.65 C 156.04 186.68 155.12 186.03 154.15 186.19 C 153.18 186.36 152.53 187.28 152.69 188.25 Z M 152.87 189.27 L 153.04 190.22 C 153.21 191.19 154.14 191.84 155.10 191.66 C 156.07 191.49 156.72 190.57 156.54 189.60 L 156.37 188.65 C 156.20 187.68 155.28 187.04 154.31 187.21 C 153.34 187.38 152.70 188.31 152.87 189.27 Z M 153.05 190.24 L 153.21 191.12 C 153.39 192.08 154.32 192.72 155.28 192.54 C 156.25 192.36 156.88 191.43 156.70 190.46 L 156.54 189.58 C 156.36 188.62 155.43 187.98 154.46 188.17 C 153.50 188.35 152.86 189.27 153.05 190.24 Z M 153.22 191.14 L 153.42 192.13 C 153.61 193.09 154.55 193.71 155.51 193.52 C 156.46 193.32 157.09 192.39 156.89 191.43 L 156.69 190.44 C 156.50 189.48 155.57 188.86 154.61 189.05 C 153.65 189.25 153.03 190.18 153.22 191.14 Z M 153.44 192.18 L 153.68 193.24 C 153.90 194.18 154.85 194.77 155.80 194.55 C 156.75 194.33 157.34 193.38 157.12 192.43 L 156.87 191.38 C 156.65 190.43 155.70 189.84 154.75 190.06 C 153.81 190.28 153.22 191.23 153.44 192.18 Z M 153.72 193.34 L 153.99 194.25 C 154.27 195.18 155.25 195.71 156.17 195.43 C 157.10 195.15 157.63 194.18 157.36 193.25 L 157.08 192.33 C 156.81 191.40 155.83 190.88 154.90 191.15 C 153.97 191.43 153.44 192.41 153.72 193.34 Z M 154.05 194.39 L 154.38 195.22 C 154.73 196.12 155.75 196.55 156.64 196.20 C 157.54 195.84 157.98 194.83 157.62 193.93 L 157.30 193.10 C 156.94 192.21 155.93 191.77 155.03 192.12 C 154.13 192.48 153.70 193.49 154.05 194.39 Z M 154.46 195.37 L 154.89 196.21 C 155.33 197.06 156.38 197.39 157.23 196.95 C 158.08 196.51 158.42 195.46 157.97 194.61 L 157.54 193.78 C 157.10 192.93 156.05 192.60 155.20 193.04 C 154.35 193.48 154.02 194.52 154.46 195.37 Z M 154.97 196.32 L 155.50 197.16 C 156.00 197.97 157.06 198.22 157.87 197.71 C 158.68 197.21 158.92 196.15 158.42 195.34 L 157.90 194.50 C 157.39 193.69 156.33 193.45 155.52 193.95 C 154.72 194.45 154.47 195.52 154.97 196.32 Z M 155.55 197.23 L 156.13 198.06 C 156.67 198.84 157.73 199.03 158.51 198.49 C 159.29 197.95 159.48 196.89 158.94 196.11 L 158.36 195.28 C 157.83 194.50 156.76 194.31 155.98 194.85 C 155.21 195.38 155.01 196.45 155.55 197.23 Z M 156.16 198.08 L 156.63 198.73 C 157.18 199.49 158.24 199.66 159.00 199.11 C 159.76 198.56 159.93 197.50 159.38 196.74 L 158.91 196.09 C 158.36 195.33 157.30 195.16 156.54 195.71 C 155.78 196.26 155.61 197.32 156.16 198.08 Z"
      fill="black"
      fill-rule="nonzero" /><path d="M 152.05 185.59 L 150.78 185.78 C 149.79 185.92 149.10 186.83 149.24 187.82 C 149.38 188.81 150.30 189.50 151.29 189.36 L 152.56 189.18 C 153.55 189.04 154.24 188.12 154.09 187.13 C 153.95 186.14 153.04 185.45 152.05 185.59 Z M 151.22 185.74 L 150.41 185.66 C 149.40 185.56 148.50 186.29 148.39 187.30 C 148.29 188.31 149.03 189.21 150.04 189.32 L 150.85 189.40 C 151.86 189.50 152.76 188.76 152.86 187.75 C 152.96 186.74 152.23 185.84 151.22 185.74 Z M 152.08 187.57 L 152.10 187.08 C 152.15 186.06 151.35 185.19 150.33 185.14 C 149.30 185.10 148.43 185.90 148.39 186.92 L 148.37 187.41 C 148.32 188.43 149.12 189.30 150.14 189.34 C 151.17 189.39 152.04 188.59 152.08 187.57 Z M 151.70 188.17 L 152.30 187.42 C 152.95 186.61 152.82 185.44 152.01 184.79 C 151.20 184.15 150.03 184.28 149.38 185.09 L 148.79 185.84 C 148.14 186.64 148.27 187.82 149.08 188.46 C 149.88 189.11 151.06 188.98 151.70 188.17 Z M 152.14 187.61 L 153.03 186.76 C 153.77 186.05 153.80 184.86 153.09 184.11 C 152.37 183.36 151.19 183.34 150.44 184.05 L 149.55 184.90 C 148.80 185.61 148.77 186.80 149.49 187.55 C 150.20 188.30 151.39 188.32 152.14 187.61 Z M 152.93 186.85 L 153.73 186.18 C 154.52 185.52 154.63 184.33 153.97 183.54 C 153.30 182.74 152.12 182.64 151.32 183.30 L 150.53 183.97 C 149.73 184.63 149.63 185.81 150.29 186.61 C 150.96 187.40 152.14 187.51 152.93 186.85 Z M 153.65 186.25 L 154.40 185.68 C 155.24 185.07 155.41 183.89 154.79 183.06 C 154.17 182.23 153.00 182.05 152.16 182.67 L 151.41 183.24 C 150.58 183.86 150.40 185.03 151.02 185.86 C 151.64 186.69 152.81 186.87 153.65 186.25 Z M 154.32 185.74 L 155.15 185.19 C 156.01 184.61 156.24 183.45 155.67 182.59 C 155.09 181.73 153.93 181.49 153.07 182.07 L 152.24 182.62 C 151.38 183.19 151.15 184.36 151.73 185.22 C 152.30 186.08 153.46 186.31 154.32 185.74 Z M 155.09 185.22 L 156.01 184.66 C 156.89 184.12 157.16 182.96 156.62 182.08 C 156.08 181.20 154.93 180.93 154.05 181.47 L 153.13 182.03 C 152.25 182.57 151.97 183.73 152.51 184.61 C 153.06 185.49 154.21 185.76 155.09 185.22 Z M 155.97 184.68 L 156.78 184.20 C 157.67 183.68 157.97 182.54 157.45 181.64 C 156.93 180.75 155.78 180.45 154.89 180.98 L 154.08 181.45 C 153.19 181.97 152.89 183.12 153.41 184.01 C 153.93 184.90 155.08 185.20 155.97 184.68 Z M 156.75 184.22 L 157.63 183.73 C 158.53 183.22 158.84 182.08 158.34 181.18 C 157.83 180.28 156.69 179.96 155.79 180.47 L 154.92 180.96 C 154.02 181.47 153.70 182.61 154.21 183.51 C 154.71 184.41 155.85 184.72 156.75 184.22 Z M 157.60 183.74 L 158.51 183.25 C 159.41 182.76 159.75 181.62 159.26 180.72 C 158.77 179.81 157.64 179.47 156.73 179.96 L 155.82 180.46 C 154.91 180.95 154.58 182.08 155.07 182.99 C 155.56 183.89 156.69 184.23 157.60 183.74 Z M 158.47 183.26 L 159.39 182.79 C 160.31 182.32 160.67 181.19 160.20 180.28 C 159.73 179.36 158.60 179.00 157.68 179.47 L 156.77 179.95 C 155.85 180.42 155.49 181.54 155.96 182.46 C 156.43 183.38 157.56 183.74 158.47 183.26 Z M 159.35 182.81 L 160.25 182.37 C 161.18 181.92 161.57 180.81 161.12 179.88 C 160.67 178.96 159.56 178.57 158.63 179.02 L 157.73 179.46 C 156.80 179.90 156.41 181.02 156.86 181.94 C 157.31 182.87 158.42 183.26 159.35 182.81 Z M 160.20 182.39 L 161.09 182.00 C 162.02 181.58 162.45 180.48 162.03 179.54 C 161.61 178.60 160.51 178.18 159.57 178.60 L 158.69 179.00 C 157.75 179.41 157.33 180.51 157.74 181.45 C 158.16 182.39 159.26 182.81 160.20 182.39 Z M 161.02 182.02 L 161.91 181.67 C 162.86 181.28 163.32 180.20 162.94 179.25 C 162.56 178.30 161.48 177.84 160.53 178.22 L 159.64 178.58 C 158.69 178.96 158.23 180.04 158.61 180.99 C 158.99 181.94 160.07 182.40 161.02 182.02 Z M 161.84 181.69 L 162.76 181.36 C 163.73 181.02 164.23 179.96 163.89 178.99 C 163.54 178.03 162.49 177.53 161.52 177.87 L 160.60 178.20 C 159.63 178.54 159.13 179.60 159.47 180.56 C 159.82 181.53 160.88 182.03 161.84 181.69 Z M 162.70 181.38 L 163.69 181.06 C 164.67 180.76 165.21 179.72 164.90 178.75 C 164.59 177.77 163.56 177.23 162.58 177.54 L 161.59 177.85 C 160.61 178.16 160.07 179.20 160.38 180.17 C 160.69 181.14 161.72 181.68 162.70 181.38 Z M 163.64 181.08 L 164.62 180.80 C 165.60 180.52 166.17 179.50 165.89 178.52 C 165.61 177.54 164.59 176.97 163.61 177.25 L 162.64 177.53 C 161.66 177.80 161.08 178.82 161.36 179.80 C 161.64 180.78 162.66 181.35 163.64 181.08 Z M 164.57 180.81 L 165.53 180.56 C 166.51 180.31 167.10 179.30 166.85 178.32 C 166.59 177.33 165.59 176.74 164.61 177.00 L 163.65 177.24 C 162.67 177.50 162.08 178.50 162.33 179.49 C 162.59 180.47 163.59 181.06 164.57 180.81 Z M 165.49 180.57 L 166.49 180.33 C 167.47 180.10 168.08 179.10 167.85 178.12 C 167.61 177.13 166.62 176.52 165.63 176.75 L 164.64 176.99 C 163.65 177.23 163.04 178.22 163.28 179.21 C 163.51 180.19 164.50 180.80 165.49 180.57 Z M 166.45 180.34 L 167.46 180.11 C 168.45 179.90 169.08 178.92 168.86 177.93 C 168.65 176.94 167.67 176.31 166.67 176.53 L 165.67 176.75 C 164.67 176.97 164.05 177.95 164.26 178.94 C 164.48 179.93 165.46 180.55 166.45 180.34 Z M 167.43 180.12 L 168.43 179.92 C 169.42 179.72 170.07 178.75 169.87 177.76 C 169.67 176.77 168.71 176.12 167.71 176.32 L 166.71 176.52 C 165.72 176.72 165.07 177.69 165.27 178.68 C 165.47 179.67 166.44 180.32 167.43 180.12 Z M 168.39 179.92 L 169.36 179.75 C 170.36 179.57 171.02 178.62 170.85 177.63 C 170.67 176.63 169.72 175.97 168.72 176.14 L 167.75 176.32 C 166.75 176.49 166.09 177.45 166.27 178.44 C 166.45 179.44 167.40 180.10 168.39 179.92 Z M 169.32 179.76 L 170.38 179.59 C 171.38 179.44 172.07 178.51 171.92 177.51 C 171.77 176.51 170.84 175.83 169.84 175.98 L 168.77 176.14 C 167.77 176.29 167.08 177.22 167.23 178.22 C 167.39 179.22 168.32 179.91 169.32 179.76 Z M 170.33 179.60 L 171.38 179.47 C 172.38 179.35 173.09 178.45 172.98 177.45 C 172.86 176.45 171.95 175.73 170.95 175.85 L 169.90 175.97 C 168.90 176.09 168.18 177.00 168.30 178.00 C 168.42 179.00 169.33 179.72 170.33 179.60 Z M 171.32 179.47 L 172.31 179.39 C 173.31 179.30 174.05 178.42 173.96 177.42 C 173.88 176.42 172.99 175.68 171.99 175.76 L 171.01 175.85 C 170.01 175.94 169.27 176.82 169.35 177.82 C 169.44 178.82 170.32 179.56 171.32 179.47 Z M 172.26 179.38 L 173.20 179.33 C 174.20 179.27 174.96 178.41 174.90 177.41 C 174.84 176.41 173.98 175.65 172.98 175.71 L 172.04 175.76 C 171.04 175.82 170.28 176.68 170.34 177.68 C 170.40 178.68 171.26 179.44 172.26 179.38 Z M 173.16 179.32 L 174.07 179.29 C 175.07 179.25 175.85 178.41 175.81 177.41 C 175.77 176.41 174.93 175.64 173.93 175.68 L 173.02 175.71 C 172.02 175.75 171.25 176.59 171.29 177.59 C 171.33 178.59 172.17 179.36 173.16 179.32 Z M 174.04 179.28 L 175.08 179.26 C 176.07 179.24 176.86 178.41 176.84 177.42 C 176.82 176.42 176.00 175.64 175.00 175.66 L 173.96 175.68 C 172.97 175.70 172.18 176.53 172.20 177.52 C 172.22 178.52 173.05 179.30 174.04 179.28 Z M 175.03 179.26 L 176.05 179.26 C 177.04 179.27 177.85 178.47 177.85 177.47 C 177.86 176.48 177.06 175.67 176.07 175.67 L 175.05 175.66 C 174.06 175.66 173.25 176.46 173.24 177.45 C 173.24 178.44 174.04 179.25 175.03 179.26 Z M 175.97 179.25 L 176.96 179.30 C 177.95 179.34 178.79 178.58 178.83 177.59 C 178.88 176.60 178.11 175.77 177.13 175.72 L 176.14 175.67 C 175.15 175.63 174.31 176.39 174.27 177.38 C 174.22 178.37 174.99 179.21 175.97 179.25 Z M 176.86 179.29 L 177.82 179.38 C 178.80 179.48 179.68 178.77 179.78 177.79 C 179.88 176.81 179.16 175.93 178.18 175.83 L 177.23 175.73 C 176.24 175.63 175.37 176.35 175.27 177.33 C 175.17 178.31 175.88 179.19 176.86 179.29 Z M 177.68 179.36 L 178.69 179.54 C 179.65 179.72 180.58 179.07 180.75 178.11 C 180.93 177.14 180.29 176.21 179.32 176.04 L 178.32 175.86 C 177.35 175.68 176.42 176.32 176.25 177.29 C 176.07 178.26 176.71 179.18 177.68 179.36 Z M 178.50 179.49 L 179.46 179.77 C 180.39 180.05 181.38 179.51 181.66 178.57 C 181.94 177.64 181.40 176.65 180.46 176.37 L 179.51 176.09 C 178.57 175.81 177.58 176.35 177.30 177.29 C 177.03 178.22 177.56 179.21 178.50 179.49 Z M 179.23 179.68 L 180.13 180.08 C 181.02 180.48 182.06 180.09 182.46 179.20 C 182.86 178.31 182.47 177.27 181.58 176.87 L 180.68 176.46 C 179.80 176.06 178.75 176.46 178.35 177.35 C 177.95 178.23 178.35 179.28 179.23 179.68 Z M 179.89 179.94 L 180.70 180.48 C 181.51 181.01 182.60 180.78 183.13 179.97 C 183.67 179.16 183.44 178.07 182.63 177.54 L 181.82 177.01 C 181.01 176.48 179.92 176.70 179.39 177.51 C 178.85 178.32 179.08 179.41 179.89 179.94 Z M 180.49 180.30 L 181.19 180.94 C 181.90 181.59 183.01 181.54 183.66 180.82 C 184.31 180.11 184.26 179.01 183.54 178.36 L 182.85 177.72 C 182.13 177.07 181.03 177.12 180.38 177.83 C 179.73 178.54 179.78 179.65 180.49 180.30 Z M 181.01 180.74 L 181.63 181.51 C 182.23 182.25 183.33 182.37 184.08 181.77 C 184.82 181.16 184.94 180.07 184.34 179.32 L 183.72 178.55 C 183.12 177.81 182.02 177.69 181.27 178.29 C 180.52 178.90 180.41 179.99 181.01 180.74 Z M 181.49 181.29 L 182.01 182.18 C 182.49 183.00 183.55 183.28 184.38 182.80 C 185.21 182.32 185.48 181.25 185.00 180.43 L 184.48 179.54 C 184.00 178.71 182.93 178.43 182.11 178.92 C 181.28 179.40 181.00 180.46 181.49 181.29 Z M 181.91 181.95 L 182.30 182.92 C 182.66 183.80 183.66 184.23 184.55 183.87 C 185.43 183.51 185.85 182.51 185.50 181.62 L 185.10 180.65 C 184.74 179.77 183.74 179.35 182.86 179.70 C 181.97 180.06 181.55 181.07 181.91 181.95 Z M 182.23 182.71 L 182.49 183.67 C 182.73 184.59 183.67 185.14 184.59 184.89 C 185.51 184.65 186.05 183.71 185.81 182.79 L 185.56 181.83 C 185.32 180.92 184.38 180.37 183.46 180.61 C 182.54 180.85 181.99 181.79 182.23 182.71 Z M 182.45 183.47 L 182.59 184.47 C 182.72 185.41 183.59 186.06 184.53 185.93 C 185.47 185.80 186.12 184.93 185.99 184.00 L 185.85 182.99 C 185.72 182.06 184.85 181.40 183.91 181.53 C 182.97 181.67 182.32 182.53 182.45 183.47 Z M 182.58 184.26 L 182.60 185.27 C 182.61 186.22 183.39 186.97 184.33 186.96 C 185.28 186.94 186.03 186.16 186.02 185.22 L 186.00 184.21 C 185.98 183.26 185.21 182.51 184.26 182.53 C 183.32 182.54 182.57 183.32 182.58 184.26 Z M 182.61 185.04 L 182.49 186.03 C 182.38 186.96 183.05 187.81 183.98 187.92 C 184.91 188.04 185.76 187.37 185.88 186.44 L 186.00 185.45 C 186.11 184.52 185.45 183.67 184.51 183.55 C 183.58 183.44 182.73 184.11 182.61 185.04 Z M 182.55 185.76 L 182.27 186.73 C 182.00 187.63 182.52 188.58 183.42 188.84 C 184.32 189.10 185.27 188.59 185.53 187.69 L 185.82 186.71 C 186.08 185.81 185.57 184.86 184.66 184.60 C 183.76 184.34 182.82 184.85 182.55 185.76 Z M 182.37 186.47 L 181.93 187.39 C 181.53 188.23 181.88 189.25 182.73 189.65 C 183.57 190.06 184.59 189.70 184.99 188.86 L 185.43 187.94 C 185.84 187.10 185.48 186.08 184.64 185.68 C 183.79 185.27 182.78 185.63 182.37 186.47 Z M 182.05 187.19 L 181.50 188.02 C 180.98 188.80 181.20 189.85 181.98 190.37 C 182.76 190.89 183.81 190.67 184.32 189.89 L 184.88 189.06 C 185.39 188.28 185.18 187.23 184.40 186.71 C 183.62 186.19 182.57 186.41 182.05 187.19 Z M 181.61 187.87 L 180.98 188.62 C 180.39 189.34 180.48 190.41 181.20 191.01 C 181.92 191.61 182.98 191.51 183.58 190.79 L 184.21 190.04 C 184.81 189.32 184.71 188.25 184.00 187.66 C 183.28 187.06 182.21 187.15 181.61 187.87 Z M 181.09 188.51 L 180.38 189.22 C 179.72 189.88 179.72 190.95 180.38 191.61 C 181.04 192.27 182.11 192.27 182.77 191.61 L 183.48 190.90 C 184.14 190.24 184.14 189.17 183.48 188.51 C 182.82 187.85 181.75 187.85 181.09 188.51 Z M 180.48 189.12 L 179.72 189.78 C 179.01 190.38 178.92 191.45 179.52 192.16 C 180.13 192.87 181.20 192.96 181.91 192.35 L 182.67 191.70 C 183.39 191.09 183.47 190.03 182.87 189.32 C 182.26 188.61 181.20 188.52 180.48 189.12 Z M 179.81 189.70 L 179.02 190.28 C 178.26 190.83 178.10 191.89 178.65 192.64 C 179.20 193.40 180.25 193.56 181.01 193.01 L 181.81 192.43 C 182.56 191.88 182.73 190.82 182.18 190.07 C 181.63 189.31 180.57 189.15 179.81 189.70 Z M 179.10 190.22 L 178.27 190.75 C 177.48 191.26 177.25 192.30 177.76 193.09 C 178.26 193.88 179.30 194.11 180.09 193.60 L 180.92 193.07 C 181.71 192.57 181.94 191.53 181.44 190.74 C 180.94 189.95 179.89 189.72 179.10 190.22 Z M 178.34 190.71 L 177.49 191.20 C 176.68 191.66 176.40 192.70 176.86 193.51 C 177.33 194.32 178.36 194.60 179.17 194.13 L 180.02 193.65 C 180.83 193.18 181.11 192.15 180.65 191.34 C 180.18 190.53 179.15 190.25 178.34 190.71 Z M 177.54 191.17 L 176.67 191.62 C 175.85 192.06 175.53 193.08 175.96 193.91 C 176.40 194.74 177.42 195.06 178.25 194.62 L 179.12 194.16 C 179.95 193.73 180.27 192.70 179.83 191.88 C 179.40 191.05 178.37 190.73 177.54 191.17 Z M 176.72 191.60 L 175.82 192.04 C 174.98 192.45 174.63 193.47 175.04 194.31 C 175.45 195.15 176.46 195.50 177.31 195.09 L 178.21 194.65 C 179.05 194.24 179.40 193.22 178.99 192.38 C 178.58 191.54 177.56 191.19 176.72 191.60 Z M 175.85 192.02 L 174.92 192.44 C 174.07 192.84 173.70 193.84 174.09 194.70 C 174.48 195.55 175.49 195.92 176.34 195.53 L 177.27 195.11 C 178.12 194.72 178.50 193.71 178.11 192.86 C 177.71 192.00 176.71 191.63 175.85 192.02 Z M 174.95 192.43 L 174.04 192.83 C 173.18 193.20 172.79 194.20 173.16 195.07 C 173.54 195.93 174.54 196.32 175.40 195.94 L 176.31 195.55 C 177.17 195.17 177.57 194.17 177.19 193.31 C 176.82 192.45 175.81 192.05 174.95 192.43 Z M 174.06 192.82 L 173.16 193.20 C 172.29 193.56 171.88 194.56 172.24 195.42 C 172.61 196.29 173.61 196.70 174.47 196.34 L 175.38 195.96 C 176.25 195.59 176.66 194.59 176.29 193.73 C 175.93 192.86 174.93 192.45 174.06 192.82 Z M 173.17 193.19 L 172.25 193.56 C 171.37 193.92 170.95 194.91 171.31 195.78 C 171.66 196.66 172.66 197.08 173.53 196.72 L 174.46 196.35 C 175.33 195.99 175.75 195.00 175.39 194.13 C 175.04 193.25 174.05 192.83 173.17 193.19 Z M 172.26 193.56 L 171.31 193.93 C 170.44 194.28 170.01 195.27 170.36 196.14 C 170.70 197.02 171.69 197.45 172.57 197.10 L 173.51 196.73 C 174.39 196.38 174.82 195.39 174.47 194.52 C 174.13 193.64 173.14 193.21 172.26 193.56 Z M 171.32 193.92 L 170.38 194.29 C 169.50 194.63 169.06 195.62 169.40 196.50 C 169.74 197.38 170.73 197.82 171.61 197.48 L 172.56 197.11 C 173.44 196.77 173.88 195.78 173.53 194.90 C 173.19 194.02 172.20 193.58 171.32 193.92 Z M 170.38 194.29 L 169.44 194.65 C 168.56 194.99 168.12 195.98 168.46 196.86 C 168.80 197.74 169.79 198.18 170.67 197.84 L 171.61 197.48 C 172.49 197.14 172.93 196.15 172.59 195.27 C 172.25 194.39 171.26 193.95 170.38 194.29 Z M 169.44 194.65 L 168.50 195.01 C 167.61 195.35 167.17 196.34 167.52 197.23 C 167.86 198.11 168.85 198.55 169.73 198.21 L 170.67 197.85 C 171.56 197.50 172.00 196.51 171.65 195.63 C 171.31 194.74 170.32 194.30 169.44 194.65 Z M 168.49 195.01 L 167.55 195.38 C 166.67 195.72 166.24 196.72 166.59 197.61 C 166.93 198.49 167.93 198.92 168.81 198.57 L 169.75 198.21 C 170.63 197.86 171.06 196.86 170.71 195.98 C 170.37 195.10 169.37 194.66 168.49 195.01 Z M 167.53 195.38 L 166.62 195.75 C 165.74 196.11 165.32 197.12 165.68 198.00 C 166.03 198.88 167.04 199.30 167.92 198.94 L 168.83 198.57 C 169.71 198.21 170.14 197.21 169.78 196.33 C 169.42 195.45 168.42 195.02 167.53 195.38 Z M 166.59 195.76 L 165.64 196.16 C 164.77 196.54 164.36 197.55 164.73 198.43 C 165.11 199.31 166.12 199.72 167.00 199.34 L 167.95 198.94 C 168.83 198.56 169.24 197.55 168.86 196.67 C 168.49 195.79 167.47 195.38 166.59 195.76 Z M 165.61 196.16 L 164.69 196.58 C 163.82 196.97 163.42 197.99 163.81 198.87 C 164.20 199.75 165.23 200.14 166.11 199.75 L 167.03 199.34 C 167.91 198.95 168.30 197.92 167.91 197.04 C 167.52 196.17 166.49 195.77 165.61 196.16 Z M 164.67 196.58 L 163.77 196.99 C 162.89 197.40 162.51 198.44 162.91 199.31 C 163.32 200.19 164.36 200.57 165.23 200.17 L 166.13 199.75 C 167.01 199.35 167.39 198.31 166.99 197.43 C 166.58 196.55 165.54 196.17 164.67 196.58 Z M 163.75 196.99 L 162.87 197.41 C 161.99 197.83 161.62 198.87 162.03 199.75 C 162.45 200.63 163.50 201.00 164.38 200.58 L 165.25 200.17 C 166.13 199.75 166.50 198.70 166.09 197.82 C 165.67 196.95 164.62 196.57 163.75 196.99 Z M 162.85 197.41 L 161.93 197.85 C 161.05 198.28 160.68 199.34 161.11 200.22 C 161.54 201.09 162.60 201.46 163.47 201.03 L 164.39 200.59 C 165.27 200.16 165.64 199.10 165.21 198.22 C 164.79 197.34 163.73 196.98 162.85 197.41 Z M 161.90 197.85 L 160.99 198.31 C 160.12 198.75 159.76 199.82 160.20 200.70 C 160.65 201.58 161.72 201.93 162.60 201.49 L 163.50 201.03 C 164.38 200.59 164.73 199.52 164.29 198.64 C 163.85 197.76 162.78 197.41 161.90 197.85 Z M 160.95 198.32 L 160.08 198.78 C 159.20 199.25 158.87 200.33 159.34 201.21 C 159.80 202.08 160.89 202.41 161.76 201.95 L 162.64 201.48 C 163.51 201.02 163.84 199.93 163.38 199.06 C 162.91 198.18 161.83 197.85 160.95 198.32 Z M 160.02 198.80 L 159.18 199.28 C 158.32 199.77 158.02 200.88 158.51 201.74 C 159.01 202.61 160.11 202.91 160.98 202.41 L 161.82 201.93 C 162.68 201.44 162.98 200.33 162.49 199.47 C 161.99 198.60 160.89 198.30 160.02 198.80 Z M 159.11 199.31 L 158.26 199.84 C 157.41 200.38 157.16 201.50 157.69 202.35 C 158.23 203.20 159.35 203.46 160.20 202.92 L 161.05 202.38 C 161.90 201.85 162.16 200.72 161.62 199.87 C 161.08 199.02 159.96 198.77 159.11 199.31 Z M 158.16 199.89 L 157.36 200.47 C 156.53 201.06 156.35 202.21 156.94 203.03 C 157.53 203.86 158.68 204.04 159.50 203.45 L 160.31 202.87 C 161.13 202.28 161.32 201.13 160.72 200.31 C 160.13 199.48 158.98 199.30 158.16 199.89 Z M 157.24 200.54 L 156.47 201.18 C 155.69 201.84 155.59 203.01 156.25 203.79 C 156.91 204.58 158.08 204.68 158.86 204.02 L 159.62 203.38 C 160.41 202.72 160.51 201.55 159.85 200.77 C 159.19 199.98 158.02 199.88 157.24 200.54 Z M 156.34 201.28 L 155.53 202.10 C 154.80 202.83 154.81 204.01 155.54 204.74 C 156.27 205.47 157.46 205.47 158.19 204.73 L 159.00 203.92 C 159.72 203.19 159.72 202.00 158.99 201.27 C 158.25 200.54 157.07 200.55 156.34 201.28 Z M 155.35 202.27 L 154.64 203.20 C 154.01 204.03 154.17 205.22 155.00 205.85 C 155.83 206.49 157.02 206.33 157.65 205.50 L 158.37 204.56 C 159.00 203.73 158.84 202.54 158.01 201.91 C 157.17 201.27 155.99 201.44 155.35 202.27 Z M 154.31 203.80 L 154.10 204.53 C 153.80 205.54 154.38 206.61 155.39 206.91 C 156.41 207.21 157.47 206.63 157.77 205.61 L 157.98 204.89 C 158.29 203.88 157.71 202.81 156.69 202.51 C 155.68 202.21 154.61 202.79 154.31 203.80 Z M 154.87 206.68 L 155.28 206.95 C 156.17 207.54 157.37 207.29 157.95 206.40 C 158.54 205.51 158.29 204.31 157.40 203.72 L 157.00 203.46 C 156.11 202.87 154.91 203.12 154.32 204.01 C 153.73 204.90 153.98 206.10 154.87 206.68 Z M 156.42 207.27 L 157.21 207.24 C 158.28 207.20 159.11 206.29 159.07 205.22 C 159.03 204.15 158.12 203.32 157.05 203.37 L 156.26 203.40 C 155.19 203.44 154.36 204.35 154.40 205.42 C 154.45 206.49 155.35 207.32 156.42 207.27 Z M 157.53 207.21 L 158.61 206.98 C 159.66 206.77 160.33 205.74 160.12 204.69 C 159.90 203.64 158.87 202.96 157.82 203.18 L 156.74 203.40 C 155.69 203.62 155.01 204.65 155.23 205.70 C 155.45 206.75 156.48 207.42 157.53 207.21 Z M 158.74 206.95 L 159.99 206.60 C 161.02 206.31 161.62 205.24 161.33 204.20 C 161.04 203.17 159.97 202.57 158.93 202.86 L 157.69 203.21 C 156.65 203.50 156.05 204.58 156.34 205.61 C 156.63 206.64 157.71 207.25 158.74 206.95 Z M 160.06 206.58 L 161.12 206.24 C 162.14 205.91 162.70 204.82 162.38 203.79 C 162.05 202.77 160.95 202.21 159.93 202.54 L 158.87 202.88 C 157.84 203.21 157.28 204.30 157.61 205.33 C 157.94 206.35 159.03 206.91 160.06 206.58 Z M 161.16 206.23 L 162.14 205.89 C 163.16 205.54 163.70 204.43 163.35 203.42 C 163.00 202.40 161.89 201.86 160.88 202.21 L 159.89 202.55 C 158.88 202.90 158.34 204.01 158.69 205.02 C 159.04 206.04 160.14 206.58 161.16 206.23 Z M 162.16 205.88 L 163.13 205.53 C 164.14 205.17 164.66 204.06 164.30 203.05 C 163.94 202.04 162.83 201.52 161.82 201.88 L 160.85 202.22 C 159.85 202.59 159.32 203.70 159.68 204.70 C 160.04 205.71 161.15 206.24 162.16 205.88 Z M 163.14 205.52 L 164.08 205.18 C 165.08 204.81 165.60 203.70 165.23 202.70 C 164.86 201.69 163.75 201.18 162.75 201.54 L 161.81 201.88 C 160.81 202.25 160.29 203.36 160.66 204.37 C 161.03 205.37 162.14 205.89 163.14 205.52 Z M 164.07 205.18 L 164.96 204.85 C 165.96 204.49 166.48 203.38 166.11 202.37 C 165.74 201.37 164.63 200.86 163.63 201.22 L 162.75 201.55 C 161.74 201.91 161.23 203.02 161.60 204.03 C 161.96 205.03 163.07 205.54 164.07 205.18 Z M 164.94 204.85 L 165.92 204.50 C 166.93 204.14 167.45 203.04 167.09 202.04 C 166.73 201.04 165.63 200.52 164.63 200.87 L 163.65 201.22 C 162.65 201.58 162.12 202.68 162.48 203.68 C 162.84 204.69 163.94 205.21 164.94 204.85 Z M 165.90 204.50 L 166.88 204.16 C 167.88 203.82 168.41 202.73 168.07 201.73 C 167.72 200.73 166.64 200.20 165.64 200.54 L 164.66 200.88 C 163.66 201.22 163.12 202.31 163.47 203.31 C 163.81 204.31 164.90 204.84 165.90 204.50 Z M 166.86 204.16 L 167.77 203.85 C 168.77 203.52 169.31 202.45 168.98 201.45 C 168.65 200.45 167.57 199.91 166.57 200.24 L 165.66 200.55 C 164.66 200.88 164.12 201.95 164.45 202.95 C 164.78 203.95 165.86 204.49 166.86 204.16 Z M 167.76 203.84 L 168.65 203.55 C 169.64 203.23 170.18 202.16 169.85 201.17 C 169.53 200.18 168.47 199.64 167.48 199.96 L 166.59 200.25 C 165.60 200.58 165.06 201.64 165.38 202.63 C 165.70 203.62 166.77 204.16 167.76 203.84 Z M 168.64 203.54 L 169.56 203.24 C 170.55 202.91 171.08 201.86 170.76 200.87 C 170.44 199.89 169.38 199.35 168.40 199.68 L 167.48 199.98 C 166.49 200.30 165.96 201.36 166.28 202.34 C 166.60 203.32 167.66 203.86 168.64 203.54 Z M 169.56 203.23 L 170.51 202.92 C 171.48 202.60 172.02 201.54 171.70 200.57 C 171.38 199.59 170.32 199.06 169.34 199.38 L 168.40 199.69 C 167.42 200.01 166.89 201.06 167.21 202.04 C 167.53 203.01 168.58 203.55 169.56 203.23 Z M 170.50 202.91 L 171.45 202.60 C 172.43 202.29 172.96 201.24 172.65 200.27 C 172.33 199.29 171.29 198.76 170.31 199.07 L 169.36 199.38 C 168.38 199.70 167.85 200.74 168.16 201.72 C 168.48 202.69 169.52 203.23 170.50 202.91 Z M 171.44 202.60 L 172.41 202.29 C 173.38 201.99 173.92 200.95 173.61 199.98 C 173.31 199.01 172.27 198.47 171.30 198.77 L 170.33 199.08 C 169.36 199.38 168.82 200.42 169.13 201.39 C 169.43 202.36 170.47 202.90 171.44 202.60 Z M 172.38 202.28 L 173.31 202.00 C 174.28 201.71 174.83 200.69 174.53 199.72 C 174.24 198.75 173.22 198.20 172.25 198.50 L 171.32 198.78 C 170.35 199.07 169.81 200.10 170.10 201.06 C 170.39 202.03 171.42 202.58 172.38 202.28 Z M 173.30 201.99 L 174.24 201.71 C 175.21 201.42 175.75 200.41 175.47 199.45 C 175.18 198.49 174.17 197.94 173.21 198.23 L 172.27 198.51 C 171.30 198.79 170.76 199.81 171.04 200.77 C 171.33 201.73 172.34 202.28 173.30 201.99 Z M 174.24 201.70 L 175.21 201.41 C 176.16 201.13 176.70 200.13 176.42 199.17 C 176.14 198.22 175.14 197.68 174.19 197.96 L 173.22 198.24 C 172.26 198.52 171.72 199.52 172.00 200.48 C 172.28 201.43 173.28 201.98 174.24 201.70 Z M 175.21 201.40 L 176.19 201.10 C 177.14 200.82 177.68 199.82 177.40 198.88 C 177.11 197.93 176.12 197.40 175.17 197.68 L 174.19 197.97 C 173.24 198.25 172.70 199.25 172.98 200.19 C 173.27 201.14 174.26 201.68 175.21 201.40 Z M 176.20 201.08 L 177.15 200.80 C 178.08 200.51 178.61 199.52 178.33 198.59 C 178.04 197.65 177.05 197.12 176.12 197.41 L 175.17 197.70 C 174.23 197.98 173.71 198.97 173.99 199.90 C 174.27 200.84 175.26 201.37 176.20 201.08 Z M 177.15 200.78 L 178.11 200.48 C 179.04 200.20 179.56 199.21 179.27 198.29 C 178.99 197.36 178.00 196.84 177.08 197.13 L 176.12 197.43 C 175.19 197.71 174.67 198.69 174.96 199.62 C 175.24 200.54 176.22 201.06 177.15 200.78 Z M 178.11 200.46 L 179.08 200.16 C 179.99 199.88 180.50 198.90 180.22 197.99 C 179.93 197.07 178.96 196.56 178.04 196.85 L 177.08 197.15 C 176.16 197.43 175.65 198.41 175.94 199.32 C 176.22 200.24 177.20 200.75 178.11 200.46 Z M 179.08 200.15 L 180.03 199.85 C 180.93 199.56 181.44 198.59 181.15 197.69 C 180.87 196.78 179.90 196.28 178.99 196.56 L 178.04 196.86 C 177.14 197.15 176.63 198.11 176.92 199.02 C 177.20 199.93 178.17 200.43 179.08 200.15 Z M 180.03 199.83 L 181.00 199.52 C 181.90 199.24 182.40 198.28 182.11 197.38 C 181.83 196.48 180.87 195.98 179.97 196.27 L 178.99 196.58 C 178.09 196.86 177.60 197.82 177.88 198.72 C 178.17 199.62 179.13 200.12 180.03 199.83 Z M 181.00 199.51 L 181.96 199.20 C 182.85 198.92 183.35 197.96 183.06 197.07 C 182.78 196.18 181.82 195.69 180.93 195.97 L 179.97 196.28 C 179.08 196.56 178.59 197.52 178.87 198.41 C 179.16 199.30 180.11 199.79 181.00 199.51 Z M 181.96 199.19 L 182.90 198.89 C 183.79 198.60 184.27 197.66 183.99 196.77 C 183.71 195.89 182.76 195.40 181.87 195.68 L 180.93 195.98 C 180.05 196.27 179.56 197.22 179.84 198.10 C 180.13 198.99 181.07 199.47 181.96 199.19 Z M 182.90 198.88 L 183.83 198.58 C 184.71 198.29 185.19 197.35 184.91 196.47 C 184.63 195.60 183.69 195.11 182.81 195.39 L 181.88 195.69 C 181.00 195.98 180.51 196.92 180.80 197.80 C 181.08 198.68 182.02 199.16 182.90 198.88 Z M 183.83 198.57 L 184.78 198.26 C 185.66 197.98 186.14 197.04 185.86 196.17 C 185.57 195.30 184.64 194.82 183.76 195.10 L 182.81 195.40 C 181.94 195.68 181.46 196.62 181.74 197.49 C 182.02 198.37 182.96 198.85 183.83 198.57 Z M 184.78 198.26 L 185.74 197.95 C 186.61 197.67 187.08 196.73 186.80 195.86 C 186.52 194.99 185.59 194.52 184.72 194.80 L 183.77 195.10 C 182.90 195.38 182.42 196.32 182.70 197.19 C 182.98 198.06 183.91 198.54 184.78 198.26 Z M 185.74 197.94 L 186.69 197.63 C 187.55 197.35 188.03 196.42 187.75 195.56 C 187.47 194.69 186.54 194.21 185.67 194.50 L 184.72 194.80 C 183.85 195.08 183.38 196.01 183.66 196.88 C 183.94 197.75 184.87 198.22 185.74 197.94 Z M 186.69 197.63 L 187.63 197.32 C 188.50 197.04 188.97 196.11 188.69 195.25 C 188.40 194.38 187.48 193.91 186.61 194.19 L 185.67 194.50 C 184.81 194.78 184.34 195.71 184.62 196.57 C 184.90 197.44 185.83 197.91 186.69 197.63 Z M 187.63 197.31 L 188.61 196.99 C 189.47 196.71 189.94 195.79 189.66 194.93 C 189.37 194.06 188.45 193.60 187.59 193.88 L 186.61 194.20 C 185.75 194.48 185.28 195.41 185.57 196.27 C 185.85 197.13 186.77 197.60 187.63 197.31 Z M 188.61 196.99 L 189.57 196.68 C 190.43 196.40 190.90 195.47 190.62 194.61 C 190.33 193.75 189.41 193.28 188.55 193.56 L 187.59 193.88 C 186.73 194.16 186.26 195.09 186.54 195.95 C 186.82 196.81 187.75 197.28 188.61 196.99 Z M 189.56 196.68 L 190.51 196.37 C 191.37 196.10 191.84 195.17 191.56 194.31 C 191.28 193.45 190.36 192.98 189.49 193.26 L 188.55 193.56 C 187.69 193.84 187.22 194.77 187.50 195.63 C 187.78 196.49 188.70 196.96 189.56 196.68 Z M 190.49 196.38 L 191.43 196.08 C 192.29 195.81 192.77 194.89 192.50 194.03 C 192.23 193.16 191.31 192.69 190.44 192.96 L 189.51 193.25 C 188.64 193.53 188.17 194.45 188.44 195.31 C 188.71 196.17 189.63 196.65 190.49 196.38 Z M 191.42 196.09 L 192.39 195.79 C 193.26 195.52 193.74 194.61 193.48 193.74 C 193.21 192.88 192.30 192.39 191.43 192.66 L 190.46 192.95 C 189.59 193.22 189.11 194.13 189.37 195.00 C 189.64 195.86 190.55 196.35 191.42 196.09 Z M 192.38 195.79 L 193.33 195.51 C 194.20 195.25 194.69 194.34 194.43 193.47 C 194.18 192.60 193.26 192.11 192.40 192.37 L 191.45 192.65 C 190.58 192.91 190.08 193.82 190.34 194.69 C 190.60 195.55 191.51 196.05 192.38 195.79 Z M 193.32 195.51 L 194.27 195.23 C 195.13 194.98 195.63 194.07 195.38 193.20 C 195.12 192.34 194.21 191.84 193.35 192.09 L 192.40 192.37 C 191.54 192.62 191.04 193.53 191.29 194.40 C 191.55 195.27 192.46 195.76 193.32 195.51 Z M 194.26 195.23 L 194.40 195.19 C 195.27 194.94 195.77 194.03 195.52 193.16 C 195.26 192.30 194.35 191.80 193.49 192.05 L 193.35 192.09 C 192.48 192.34 191.98 193.25 192.23 194.12 C 192.49 194.99 193.40 195.49 194.26 195.23 Z"
      fill="black"
      fill-rule="nonzero" /></svg>