<svg xmlns="http://www.w3.org/2000/svg" width="300" height="300" viewBox="0 0 300 300">
<path d="M 117.93 108.98 L 118.87 109.21 C 119.82 109.44 120.78 108.86 121.01 107.92 C 121.25 106.97 120.67 106.01 119.72 105.77 L 118.78 105.54 C 117.83 105.31 116.87 105.89 116.63 106.83 C 116.40 107.78 116.98 108.74 117.93 108.98 Z M 118.90 109.25 L 119.85 109.47 C 120.82 109.69 121.79 109.08 122.01 108.11 C 122.23 107.14 121.62 106.17 120.65 105.95 L 119.69 105.73 C 118.72 105.51 117.76 106.12 117.54 107.09 C 117.32 108.06 117.93 109.03 118.90 109.25 Z M 119.91 109.51 L 120.90 109.70 C 121.89 109.89 122.85 109.23 123.04 108.24 C 123.23 107.24 122.58 106.28 121.58 106.10 L 120.59 105.91 C 119.60 105.72 118.64 106.37 118.45 107.37 C 118.26 108.36 118.92 109.32 119.91 109.51 Z M 120.99 109.74 L 122.02 109.88 C 123.04 110.02 123.98 109.31 124.12 108.29 C 124.26 107.27 123.54 106.33 122.52 106.19 L 121.50 106.05 C 120.48 105.91 119.54 106.62 119.40 107.64 C 119.26 108.66 119.97 109.60 120.99 109.74 Z M 122.11 109.91 L 123.12 109.99 C 124.15 110.08 125.06 109.31 125.14 108.28 C 125.23 107.24 124.46 106.33 123.43 106.25 L 122.43 106.17 C 121.39 106.08 120.48 106.85 120.40 107.88 C 120.31 108.92 121.08 109.83 122.11 109.91 Z M 123.19 110.00 L 124.21 110.05 C 125.25 110.09 126.13 109.29 126.17 108.25 C 126.22 107.21 125.41 106.33 124.37 106.28 L 123.35 106.24 C 122.31 106.19 121.43 107.00 121.39 108.04 C 121.34 109.08 122.15 109.96 123.19 110.00 Z M 124.26 110.05 L 125.27 110.07 C 126.31 110.09 127.17 109.26 127.19 108.22 C 127.21 107.18 126.38 106.32 125.34 106.30 L 124.33 106.28 C 123.28 106.26 122.42 107.09 122.40 108.13 C 122.39 109.17 123.22 110.03 124.26 110.05 Z M 125.30 110.07 L 126.27 110.08 C 127.32 110.08 128.17 109.24 128.17 108.19 C 128.17 107.15 127.33 106.30 126.29 106.30 L 125.31 106.29 C 124.27 106.29 123.42 107.13 123.41 108.18 C 123.41 109.22 124.25 110.07 125.30 110.07 Z M 126.28 110.08 L 127.31 110.08 C 128.36 110.08 129.21 109.23 129.21 108.19 C 129.21 107.14 128.36 106.29 127.31 106.29 L 126.28 106.29 C 125.23 106.29 124.39 107.14 124.39 108.19 C 124.39 109.23 125.23 110.08 126.28 110.08 Z M 127.32 110.08 L 128.32 110.08 C 129.37 110.07 130.21 109.22 130.21 108.17 C 130.20 107.13 129.35 106.28 128.31 106.29 L 127.30 106.29 C 126.26 106.30 125.42 107.15 125.42 108.20 C 125.42 109.24 126.28 110.09 127.32 110.08 Z M 128.34 110.08 L 129.31 110.06 C 130.36 110.05 131.20 109.18 131.18 108.14 C 131.16 107.09 130.30 106.26 129.26 106.27 L 128.29 106.29 C 127.24 106.30 126.41 107.16 126.42 108.21 C 126.44 109.26 127.30 110.09 128.34 110.08 Z M 129.34 110.06 L 130.31 110.03 C 131.36 110.00 132.18 109.13 132.15 108.08 C 132.12 107.03 131.24 106.21 130.20 106.24 L 129.23 106.27 C 128.18 106.31 127.36 107.18 127.39 108.23 C 127.42 109.27 128.30 110.09 129.34 110.06 Z M 130.35 110.03 L 131.30 109.98 C 132.35 109.93 133.16 109.04 133.10 108.00 C 133.05 106.95 132.16 106.15 131.12 106.20 L 130.16 106.25 C 129.12 106.30 128.31 107.19 128.36 108.23 C 128.41 109.28 129.30 110.08 130.35 110.03 Z M 131.34 109.98 L 132.33 109.91 C 133.37 109.84 134.16 108.94 134.09 107.89 C 134.02 106.85 133.12 106.06 132.07 106.13 L 131.08 106.20 C 130.04 106.27 129.25 107.18 129.32 108.22 C 129.39 109.26 130.30 110.05 131.34 109.98 Z M 132.37 109.91 L 133.39 109.82 C 134.43 109.73 135.20 108.81 135.11 107.76 C 135.02 106.72 134.10 105.95 133.05 106.05 L 132.03 106.14 C 130.99 106.23 130.22 107.15 130.32 108.19 C 130.41 109.23 131.33 110.00 132.37 109.91 Z M 133.43 109.81 L 134.45 109.70 C 135.49 109.59 136.24 108.65 136.12 107.61 C 136.01 106.57 135.07 105.82 134.03 105.94 L 133.01 106.05 C 131.98 106.17 131.23 107.10 131.34 108.14 C 131.46 109.18 132.39 109.93 133.43 109.81 Z M 134.48 109.70 L 135.45 109.57 C 136.49 109.44 137.22 108.49 137.09 107.45 C 136.95 106.41 136.00 105.68 134.97 105.82 L 134.00 105.94 C 132.96 106.08 132.23 107.03 132.36 108.06 C 132.50 109.10 133.45 109.83 134.48 109.70 Z M 135.48 109.57 L 136.46 109.43 C 137.50 109.28 138.22 108.32 138.07 107.29 C 137.92 106.25 136.96 105.53 135.93 105.68 L 134.94 105.82 C 133.91 105.97 133.19 106.93 133.34 107.96 C 133.48 109.00 134.44 109.71 135.48 109.57 Z M 136.48 109.42 L 137.48 109.27 C 138.51 109.12 139.22 108.15 139.07 107.12 C 138.91 106.09 137.95 105.38 136.92 105.53 L 135.92 105.68 C 134.88 105.84 134.17 106.80 134.33 107.83 C 134.48 108.87 135.45 109.58 136.48 109.42 Z M 137.49 109.27 L 138.50 109.12 C 139.53 108.96 140.23 107.99 140.08 106.96 C 139.92 105.93 138.95 105.22 137.92 105.38 L 136.91 105.53 C 135.88 105.69 135.17 106.66 135.33 107.69 C 135.49 108.72 136.46 109.43 137.49 109.27 Z M 138.49 109.11 L 139.46 108.96 C 140.49 108.81 141.20 107.84 141.04 106.81 C 140.88 105.78 139.92 105.08 138.89 105.23 L 137.92 105.38 C 136.89 105.54 136.18 106.50 136.34 107.53 C 136.50 108.56 137.46 109.27 138.49 109.11 Z M 139.46 108.96 L 140.44 108.81 C 141.47 108.65 142.17 107.69 142.02 106.66 C 141.86 105.63 140.90 104.93 139.87 105.09 L 138.89 105.24 C 137.86 105.40 137.16 106.36 137.31 107.38 C 137.47 108.41 138.43 109.12 139.46 108.96 Z M 140.44 108.81 L 141.43 108.65 C 142.46 108.49 143.16 107.53 143.00 106.51 C 142.84 105.48 141.88 104.78 140.86 104.94 L 139.87 105.09 C 138.84 105.25 138.14 106.21 138.30 107.24 C 138.45 108.26 139.42 108.97 140.44 108.81 Z M 141.43 108.65 L 142.44 108.49 C 143.46 108.33 144.16 107.37 144.00 106.35 C 143.84 105.32 142.88 104.62 141.86 104.78 L 140.85 104.94 C 139.83 105.10 139.13 106.06 139.29 107.09 C 139.45 108.11 140.41 108.81 141.43 108.65 Z M 142.45 108.49 L 143.45 108.33 C 144.47 108.16 145.16 107.20 145.00 106.18 C 144.83 105.16 143.88 104.47 142.85 104.63 L 141.86 104.79 C 140.83 104.95 140.14 105.91 140.30 106.93 C 140.47 107.95 141.42 108.65 142.45 108.49 Z M 143.45 108.32 L 144.44 108.16 C 145.46 107.99 146.15 107.03 145.99 106.02 C 145.82 105.00 144.86 104.31 143.85 104.47 L 142.85 104.64 C 141.83 104.80 141.14 105.76 141.31 106.78 C 141.47 107.79 142.43 108.48 143.45 108.32 Z M 144.45 108.15 L 145.44 107.99 C 146.46 107.82 147.14 106.87 146.98 105.85 C 146.81 104.84 145.86 104.15 144.84 104.32 L 143.84 104.48 C 142.83 104.65 142.14 105.60 142.31 106.62 C 142.48 107.63 143.43 108.32 144.45 108.15 Z M 145.44 107.98 L 146.43 107.82 C 147.44 107.65 148.13 106.70 147.96 105.69 C 147.79 104.68 146.84 103.99 145.83 104.16 L 144.84 104.32 C 143.83 104.49 143.15 105.44 143.31 106.45 C 143.48 107.46 144.43 108.15 145.44 107.98 Z M 146.43 107.81 L 147.40 107.65 C 148.41 107.49 149.09 106.54 148.92 105.53 C 148.76 104.52 147.81 103.84 146.80 104.01 L 145.83 104.17 C 144.82 104.33 144.14 105.28 144.31 106.29 C 144.47 107.30 145.42 107.98 146.43 107.81 Z M 147.40 107.65 L 148.42 107.48 C 149.42 107.32 150.10 106.37 149.94 105.36 C 149.78 104.36 148.83 103.68 147.82 103.85 L 146.80 104.01 C 145.80 104.18 145.12 105.12 145.28 106.13 C 145.45 107.13 146.39 107.81 147.40 107.65 Z M 148.42 107.47 L 149.42 107.31 C 150.42 107.14 151.09 106.20 150.93 105.20 C 150.77 104.20 149.82 103.52 148.82 103.69 L 147.82 103.85 C 146.82 104.02 146.15 104.96 146.31 105.96 C 146.48 106.96 147.42 107.64 148.42 107.47 Z M 149.42 107.30 L 150.40 107.14 C 151.39 106.97 152.06 106.03 151.90 105.03 C 151.73 104.04 150.79 103.37 149.79 103.53 L 148.82 103.70 C 147.82 103.86 147.15 104.81 147.32 105.80 C 147.49 106.80 148.43 107.47 149.42 107.30 Z M 150.41 107.13 L 151.36 106.96 C 152.35 106.79 153.02 105.85 152.85 104.86 C 152.67 103.87 151.73 103.20 150.74 103.38 L 149.78 103.54 C 148.79 103.71 148.13 104.66 148.30 105.65 C 148.47 106.64 149.42 107.30 150.41 107.13 Z M 151.38 106.95 L 152.35 106.77 C 153.34 106.59 153.99 105.65 153.81 104.66 C 153.63 103.68 152.69 103.03 151.71 103.21 L 150.73 103.39 C 149.74 103.56 149.09 104.51 149.27 105.49 C 149.45 106.48 150.39 107.13 151.38 106.95 Z M 152.37 106.76 L 153.35 106.57 C 154.33 106.39 154.97 105.44 154.78 104.46 C 154.60 103.48 153.65 102.84 152.67 103.03 L 151.69 103.22 C 150.71 103.41 150.07 104.35 150.26 105.33 C 150.45 106.31 151.39 106.95 152.37 106.76 Z M 153.37 106.56 L 154.35 106.37 C 155.32 106.17 155.95 105.22 155.75 104.25 C 155.56 103.28 154.61 102.65 153.64 102.84 L 152.66 103.04 C 151.69 103.24 151.06 104.18 151.25 105.15 C 151.45 106.13 152.39 106.76 153.37 106.56 Z M 154.36 106.35 L 155.33 106.15 C 156.30 105.95 156.92 105.00 156.72 104.03 C 156.52 103.07 155.57 102.45 154.60 102.65 L 153.63 102.86 C 152.66 103.06 152.04 104.00 152.24 104.97 C 152.45 105.94 153.39 106.56 154.36 106.35 Z M 155.35 106.14 L 156.33 105.93 C 157.29 105.72 157.89 104.77 157.69 103.81 C 157.48 102.85 156.53 102.24 155.57 102.45 L 154.59 102.66 C 153.63 102.87 153.02 103.82 153.23 104.78 C 153.44 105.74 154.39 106.35 155.35 106.14 Z M 156.33 105.92 L 157.31 105.70 C 158.27 105.48 158.87 104.54 158.66 103.58 C 158.44 102.63 157.50 102.03 156.54 102.24 L 155.56 102.46 C 154.61 102.67 154.01 103.62 154.22 104.57 C 154.43 105.53 155.38 106.13 156.33 105.92 Z M 157.32 105.69 L 158.29 105.47 C 159.24 105.25 159.84 104.31 159.62 103.36 C 159.41 102.41 158.47 101.82 157.52 102.03 L 156.54 102.25 C 155.59 102.47 154.99 103.41 155.21 104.36 C 155.42 105.31 156.37 105.90 157.32 105.69 Z M 158.29 105.46 L 159.26 105.24 C 160.20 105.03 160.80 104.09 160.59 103.15 C 160.37 102.20 159.44 101.61 158.49 101.82 L 157.52 102.04 C 156.58 102.25 155.98 103.19 156.19 104.13 C 156.41 105.08 157.34 105.67 158.29 105.46 Z M 159.25 105.23 L 160.23 105.02 C 161.17 104.81 161.77 103.88 161.56 102.94 C 161.35 102.00 160.42 101.40 159.48 101.61 L 158.50 101.83 C 157.56 102.03 156.97 102.96 157.17 103.90 C 157.38 104.85 158.31 105.44 159.25 105.23 Z M 160.22 105.01 L 161.21 104.80 C 162.14 104.60 162.74 103.68 162.54 102.74 C 162.34 101.80 161.42 101.21 160.48 101.41 L 159.50 101.62 C 158.56 101.82 157.96 102.74 158.16 103.68 C 158.36 104.61 159.28 105.21 160.22 105.01 Z M 161.19 104.79 L 162.17 104.59 C 163.11 104.40 163.71 103.49 163.51 102.55 C 163.32 101.62 162.41 101.02 161.47 101.21 L 160.50 101.41 C 159.56 101.60 158.96 102.52 159.15 103.45 C 159.35 104.39 160.26 104.99 161.19 104.79 Z M 162.16 104.59 L 163.13 104.39 C 164.06 104.21 164.66 103.30 164.48 102.37 C 164.29 101.44 163.39 100.84 162.46 101.02 L 161.49 101.22 C 160.56 101.40 159.95 102.31 160.14 103.24 C 160.32 104.17 161.23 104.77 162.16 104.59 Z M 163.12 104.39 L 164.09 104.20 C 165.02 104.02 165.62 103.13 165.45 102.20 C 165.27 101.27 164.37 100.66 163.44 100.84 L 162.47 101.03 C 161.54 101.21 160.93 102.10 161.11 103.03 C 161.29 103.96 162.19 104.57 163.12 104.39 Z M 164.08 104.19 L 165.06 104.01 C 165.98 103.84 166.59 102.95 166.42 102.02 C 166.24 101.10 165.35 100.49 164.43 100.66 L 163.45 100.85 C 162.53 101.02 161.92 101.91 162.09 102.84 C 162.27 103.76 163.16 104.37 164.08 104.19 Z M 165.06 104.00 L 166.04 103.82 C 166.96 103.64 167.56 102.75 167.39 101.83 C 167.21 100.91 166.32 100.31 165.40 100.49 L 164.43 100.67 C 163.51 100.85 162.90 101.73 163.08 102.65 C 163.25 103.57 164.14 104.18 165.06 104.00 Z M 166.05 103.81 L 167.04 103.61 C 167.95 103.43 168.55 102.54 168.37 101.63 C 168.18 100.71 167.30 100.12 166.38 100.30 L 165.39 100.50 C 164.48 100.68 163.89 101.56 164.07 102.48 C 164.25 103.39 165.14 103.99 166.05 103.81 Z M 167.06 103.60 L 167.99 103.40 C 168.90 103.21 169.48 102.32 169.29 101.41 C 169.09 100.50 168.20 99.92 167.30 100.11 L 166.36 100.31 C 165.46 100.50 164.88 101.39 165.07 102.30 C 165.26 103.21 166.15 103.79 167.06 103.60 Z M 168.01 103.39 L 168.94 103.18 C 169.84 102.98 170.41 102.09 170.21 101.18 C 170.01 100.28 169.11 99.71 168.21 99.92 L 167.28 100.13 C 166.37 100.33 165.81 101.22 166.01 102.12 C 166.21 103.03 167.11 103.59 168.01 103.39 Z M 168.96 103.17 L 169.93 102.94 C 170.83 102.73 171.38 101.83 171.17 100.93 C 170.96 100.04 170.06 99.49 169.16 99.70 L 168.19 99.93 C 167.30 100.14 166.74 101.04 166.95 101.93 C 167.17 102.83 168.07 103.38 168.96 103.17 Z M 169.95 102.93 L 170.97 102.68 C 171.86 102.45 172.40 101.55 172.18 100.66 C 171.96 99.77 171.05 99.23 170.16 99.45 L 169.15 99.71 C 168.26 99.93 167.71 100.83 167.94 101.72 C 168.16 102.61 169.06 103.15 169.95 102.93 Z M 170.98 102.67 L 171.99 102.40 C 172.88 102.17 173.41 101.27 173.18 100.38 C 172.95 99.50 172.04 98.97 171.16 99.20 L 170.15 99.46 C 169.26 99.69 168.74 100.60 168.97 101.48 C 169.20 102.37 170.10 102.90 170.98 102.67 Z M 172.01 102.40 L 172.99 102.13 C 173.87 101.89 174.39 100.98 174.16 100.10 C 173.92 99.22 173.01 98.70 172.13 98.94 L 171.14 99.21 C 170.26 99.45 169.74 100.35 169.98 101.23 C 170.22 102.11 171.13 102.63 172.01 102.40 Z M 173.00 102.12 L 174.00 101.85 C 174.87 101.60 175.39 100.69 175.14 99.82 C 174.90 98.94 173.99 98.43 173.11 98.67 L 172.12 98.95 C 171.24 99.19 170.73 100.10 170.97 100.98 C 171.22 101.85 172.13 102.37 173.00 102.12 Z M 174.01 101.84 L 174.98 101.56 C 175.85 101.31 176.36 100.40 176.11 99.53 C 175.86 98.65 174.95 98.15 174.07 98.40 L 173.10 98.68 C 172.23 98.93 171.72 99.84 171.97 100.71 C 172.22 101.59 173.13 102.09 174.01 101.84 Z M 174.99 101.56 L 175.92 101.28 C 176.79 101.03 177.28 100.11 177.03 99.24 C 176.77 98.37 175.86 97.88 174.99 98.13 L 174.06 98.40 C 173.19 98.66 172.69 99.57 172.95 100.44 C 173.21 101.31 174.12 101.81 174.99 101.56 Z M 175.93 101.28 L 176.95 100.97 C 177.82 100.70 178.31 99.79 178.05 98.92 C 177.78 98.05 176.86 97.56 176.00 97.83 L 174.97 98.14 C 174.11 98.40 173.62 99.32 173.88 100.19 C 174.15 101.05 175.06 101.54 175.93 101.28 Z M 176.97 100.96 L 177.96 100.65 C 178.82 100.37 179.30 99.45 179.02 98.59 C 178.75 97.73 177.83 97.25 176.97 97.52 L 175.98 97.83 C 175.12 98.11 174.64 99.03 174.91 99.89 C 175.19 100.76 176.11 101.23 176.97 100.96 Z M 177.97 100.64 L 178.88 100.35 C 179.74 100.06 180.21 99.14 179.93 98.28 C 179.65 97.42 178.72 96.95 177.86 97.23 L 176.95 97.53 C 176.09 97.81 175.62 98.73 175.90 99.59 C 176.18 100.45 177.11 100.92 177.97 100.64 Z M 178.89 100.34 L 179.74 100.06 C 180.60 99.77 181.06 98.84 180.78 97.99 C 180.49 97.13 179.57 96.66 178.71 96.95 L 177.85 97.23 C 176.99 97.52 176.53 98.45 176.81 99.30 C 177.10 100.16 178.03 100.63 178.89 100.34 Z"
      fill="black"
      fill-rule="nonzero" /><path d="M 140.81 96.12 L 140.04 96.78 C 139.31 97.42 139.22 98.52 139.86 99.26 C 140.49 99.99 141.60 100.07 142.33 99.44 L 143.10 98.77 C 143.84 98.14 143.92 97.03 143.29 96.30 C 142.65 95.56 141.55 95.48 140.81 96.12 Z M 139.94 96.87 L 139.23 97.58 C 138.55 98.27 138.55 99.38 139.24 100.07 C 139.92 100.75 141.04 100.75 141.72 100.06 L 142.43 99.35 C 143.12 98.66 143.11 97.55 142.42 96.86 C 141.74 96.18 140.62 96.18 139.94 96.87 Z M 139.05 97.79 L 138.48 98.58 C 137.91 99.37 138.09 100.47 138.88 101.04 C 139.67 101.61 140.77 101.43 141.34 100.64 L 141.91 99.85 C 142.48 99.06 142.30 97.96 141.51 97.39 C 140.72 96.82 139.62 97.00 139.05 97.79 Z M 138.28 98.92 L 137.92 99.77 C 137.54 100.67 137.96 101.71 138.86 102.09 C 139.76 102.47 140.80 102.04 141.18 101.14 L 141.54 100.30 C 141.92 99.40 141.50 98.36 140.60 97.98 C 139.70 97.60 138.66 98.02 138.28 98.92 Z M 137.82 100.09 L 137.62 101.02 C 137.41 101.98 138.03 102.92 138.99 103.13 C 139.95 103.33 140.89 102.72 141.09 101.76 L 141.29 100.82 C 141.49 99.86 140.88 98.92 139.92 98.72 C 138.96 98.51 138.02 99.13 137.82 100.09 Z M 137.58 101.23 L 137.49 102.27 C 137.40 103.25 138.13 104.11 139.11 104.20 C 140.09 104.28 140.95 103.56 141.04 102.58 L 141.13 101.55 C 141.21 100.57 140.49 99.70 139.51 99.62 C 138.53 99.53 137.67 100.25 137.58 101.23 Z M 137.48 102.38 L 137.45 103.44 C 137.43 104.43 138.21 105.25 139.19 105.27 C 140.18 105.30 140.99 104.52 141.02 103.54 L 141.05 102.47 C 141.07 101.48 140.29 100.66 139.31 100.64 C 138.32 100.61 137.50 101.39 137.48 102.38 Z M 137.45 103.50 L 137.45 104.50 C 137.46 105.48 138.26 106.28 139.25 106.27 C 140.24 106.27 141.03 105.47 141.03 104.48 L 141.02 103.48 C 141.02 102.49 140.21 101.70 139.23 101.70 C 138.24 101.71 137.44 102.51 137.45 103.50 Z M 137.46 104.55 L 137.49 105.57 C 137.52 106.56 138.35 107.33 139.34 107.29 C 140.32 107.26 141.10 106.43 141.06 105.45 L 141.03 104.43 C 140.99 103.44 140.16 102.67 139.18 102.70 C 138.19 102.74 137.42 103.56 137.46 104.55 Z M 137.49 105.63 L 137.57 106.64 C 137.64 107.63 138.49 108.37 139.47 108.30 C 140.46 108.23 141.20 107.37 141.13 106.39 L 141.06 105.38 C 140.99 104.40 140.13 103.66 139.15 103.73 C 138.17 103.80 137.42 104.65 137.49 105.63 Z M 137.57 106.72 L 137.69 107.70 C 137.80 108.68 138.69 109.38 139.67 109.26 C 140.65 109.15 141.35 108.26 141.24 107.28 L 141.12 106.31 C 141.01 105.33 140.12 104.63 139.14 104.74 C 138.16 104.86 137.46 105.74 137.57 106.72 Z M 137.71 107.81 L 137.88 108.78 C 138.05 109.74 138.98 110.39 139.95 110.22 C 140.92 110.04 141.56 109.12 141.39 108.15 L 141.22 107.18 C 141.04 106.21 140.12 105.56 139.15 105.74 C 138.18 105.91 137.53 106.84 137.71 107.81 Z M 137.91 108.89 L 138.14 109.83 C 138.38 110.78 139.34 111.36 140.29 111.13 C 141.25 110.89 141.83 109.93 141.59 108.98 L 141.36 108.04 C 141.13 107.08 140.16 106.50 139.21 106.74 C 138.26 106.97 137.68 107.93 137.91 108.89 Z M 138.18 109.93 L 138.47 110.88 C 138.76 111.82 139.75 112.34 140.69 112.05 C 141.62 111.76 142.14 110.77 141.86 109.83 L 141.56 108.88 C 141.27 107.94 140.28 107.42 139.34 107.71 C 138.41 108.00 137.89 108.99 138.18 109.93 Z M 138.50 110.95 L 138.84 111.91 C 139.17 112.83 140.18 113.31 141.10 112.98 C 142.02 112.65 142.50 111.64 142.17 110.72 L 141.83 109.76 C 141.50 108.85 140.49 108.37 139.57 108.69 C 138.65 109.02 138.17 110.03 138.50 110.95 Z M 138.87 111.95 L 139.21 112.84 C 139.56 113.74 140.58 114.19 141.49 113.84 C 142.39 113.49 142.84 112.47 142.49 111.57 L 142.14 110.68 C 141.79 109.77 140.77 109.33 139.87 109.68 C 138.96 110.03 138.52 111.05 138.87 111.95 Z M 139.23 112.87 L 139.61 113.79 C 139.98 114.69 141.00 115.11 141.89 114.75 C 142.79 114.38 143.21 113.36 142.85 112.47 L 142.47 111.54 C 142.10 110.65 141.08 110.22 140.19 110.59 C 139.29 110.95 138.87 111.97 139.23 112.87 Z M 139.63 113.81 L 140.04 114.76 C 140.41 115.64 141.44 116.05 142.32 115.67 C 143.20 115.29 143.61 114.27 143.23 113.39 L 142.83 112.44 C 142.45 111.56 141.43 111.15 140.55 111.53 C 139.66 111.91 139.25 112.93 139.63 113.81 Z M 140.05 114.77 L 140.47 115.72 C 140.86 116.59 141.88 116.99 142.75 116.60 C 143.63 116.21 144.02 115.19 143.64 114.32 L 143.22 113.37 C 142.83 112.50 141.81 112.10 140.93 112.49 C 140.06 112.88 139.67 113.90 140.05 114.77 Z M 140.49 115.73 L 140.93 116.69 C 141.32 117.55 142.34 117.94 143.20 117.54 C 144.07 117.15 144.45 116.13 144.05 115.27 L 143.62 114.31 C 143.22 113.44 142.20 113.06 141.34 113.45 C 140.48 113.85 140.10 114.87 140.49 115.73 Z M 140.95 116.70 L 141.40 117.65 C 141.80 118.50 142.81 118.87 143.66 118.47 C 144.51 118.07 144.88 117.05 144.48 116.20 L 144.03 115.25 C 143.63 114.40 142.62 114.04 141.76 114.44 C 140.91 114.84 140.55 115.85 140.95 116.70 Z M 141.42 117.67 L 141.87 118.58 C 142.28 119.42 143.29 119.76 144.13 119.35 C 144.97 118.94 145.31 117.92 144.90 117.09 L 144.45 116.18 C 144.04 115.34 143.03 115.00 142.19 115.41 C 141.36 115.82 141.01 116.84 141.42 117.67 Z M 141.90 118.61 L 142.35 119.46 C 142.78 120.28 143.79 120.60 144.60 120.17 C 145.42 119.74 145.74 118.74 145.31 117.92 L 144.87 117.06 C 144.44 116.24 143.43 115.93 142.61 116.35 C 141.79 116.78 141.48 117.79 141.90 118.61 Z M 142.39 119.50 L 142.85 120.32 C 143.30 121.12 144.31 121.40 145.10 120.96 C 145.90 120.51 146.18 119.50 145.74 118.70 L 145.27 117.88 C 144.83 117.08 143.82 116.80 143.02 117.25 C 142.22 117.69 141.94 118.70 142.39 119.50 Z M 142.89 120.38 L 143.44 121.27 C 143.92 122.05 144.93 122.29 145.71 121.81 C 146.48 121.34 146.72 120.32 146.25 119.55 L 145.70 118.65 C 145.22 117.88 144.21 117.64 143.43 118.11 C 142.66 118.59 142.42 119.60 142.89 120.38 Z M 143.48 121.32 L 144.03 122.15 C 144.53 122.91 145.55 123.11 146.31 122.61 C 147.06 122.10 147.27 121.08 146.76 120.33 L 146.21 119.50 C 145.71 118.75 144.69 118.54 143.93 119.04 C 143.18 119.55 142.97 120.57 143.48 121.32 Z M 144.05 122.18 L 144.61 122.97 C 145.13 123.71 146.15 123.89 146.89 123.37 C 147.63 122.85 147.81 121.83 147.29 121.08 L 146.74 120.30 C 146.22 119.56 145.20 119.38 144.46 119.90 C 143.71 120.42 143.53 121.44 144.05 122.18 Z M 144.61 122.98 L 144.87 123.33 C 145.39 124.07 146.42 124.24 147.15 123.72 C 147.89 123.19 148.06 122.17 147.54 121.43 L 147.28 121.08 C 146.76 120.34 145.73 120.17 145.00 120.69 C 144.26 121.22 144.09 122.24 144.61 122.98 Z"
      fill="black"
      fill-rule="nonzero" /><path d="M 152.25 96.87 L 152.76 97.74 C 153.25 98.57 154.32 98.85 155.16 98.36 C 155.99 97.87 156.27 96.80 155.78 95.97 L 155.27 95.10 C 154.78 94.26 153.71 93.99 152.88 94.47 C 152.04 94.96 151.76 96.03 152.25 96.87 Z M 152.70 97.66 L 153.15 98.55 C 153.60 99.42 154.66 99.76 155.53 99.32 C 156.40 98.87 156.75 97.81 156.30 96.94 L 155.85 96.05 C 155.40 95.18 154.34 94.83 153.47 95.28 C 152.60 95.72 152.25 96.79 152.70 97.66 Z M 153.05 98.37 L 153.39 99.29 C 153.74 100.22 154.77 100.69 155.70 100.35 C 156.62 100.00 157.09 98.97 156.75 98.05 L 156.41 97.12 C 156.06 96.19 155.03 95.72 154.10 96.06 C 153.18 96.41 152.71 97.44 153.05 98.37 Z M 153.31 99.02 L 153.50 99.95 C 153.69 100.92 154.64 101.55 155.61 101.36 C 156.58 101.16 157.21 100.22 157.02 99.25 L 156.83 98.32 C 156.64 97.34 155.69 96.71 154.72 96.91 C 153.75 97.10 153.12 98.05 153.31 99.02 Z M 153.48 99.74 L 153.56 100.72 C 153.64 101.70 154.50 102.43 155.48 102.35 C 156.46 102.28 157.19 101.42 157.11 100.44 L 157.03 99.46 C 156.95 98.48 156.10 97.75 155.12 97.82 C 154.14 97.90 153.41 98.76 153.48 99.74 Z M 153.57 100.61 L 153.59 101.65 C 153.60 102.62 154.41 103.40 155.38 103.38 C 156.35 103.37 157.13 102.57 157.12 101.59 L 157.10 100.55 C 157.08 99.58 156.28 98.80 155.31 98.82 C 154.33 98.83 153.56 99.63 153.57 100.61 Z M 153.60 101.62 L 153.60 102.60 C 153.60 103.57 154.39 104.35 155.35 104.35 C 156.32 104.35 157.10 103.57 157.10 102.60 L 157.10 101.62 C 157.10 100.65 156.32 99.87 155.35 99.87 C 154.39 99.87 153.60 100.65 153.60 101.62 Z M 153.62 102.60 L 153.62 103.58 C 153.62 104.54 154.39 105.31 155.35 105.31 C 156.31 105.31 157.09 104.54 157.09 103.58 L 157.09 102.60 C 157.09 101.64 156.31 100.86 155.35 100.86 C 154.39 100.86 153.62 101.64 153.62 102.60 Z M 153.63 103.58 L 153.63 104.59 C 153.63 105.54 154.40 106.31 155.35 106.31 C 156.31 106.31 157.08 105.54 157.08 104.59 L 157.08 103.58 C 157.08 102.62 156.31 101.85 155.35 101.85 C 154.40 101.85 153.63 102.62 153.63 103.58 Z M 153.64 104.59 L 153.64 105.64 C 153.64 106.58 154.41 107.35 155.35 107.35 C 156.30 107.35 157.07 106.58 157.07 105.64 L 157.07 104.59 C 157.07 103.64 156.30 102.88 155.35 102.88 C 154.41 102.88 153.64 103.64 153.64 104.59 Z M 153.65 105.64 L 153.65 106.61 C 153.65 107.55 154.41 108.31 155.35 108.31 C 156.29 108.31 157.05 107.55 157.05 106.61 L 157.05 105.64 C 157.05 104.70 156.29 103.94 155.35 103.94 C 154.41 103.94 153.65 104.70 153.65 105.64 Z M 153.66 106.60 L 153.66 107.59 C 153.65 108.52 154.41 109.28 155.34 109.29 C 156.27 109.29 157.03 108.54 157.03 107.61 L 157.04 106.62 C 157.05 105.69 156.29 104.93 155.36 104.93 C 154.43 104.92 153.67 105.67 153.66 106.60 Z M 153.67 107.58 L 153.66 108.58 C 153.64 109.51 154.38 110.27 155.31 110.28 C 156.23 110.30 156.99 109.56 157.01 108.63 L 157.02 107.63 C 157.04 106.70 156.30 105.94 155.37 105.93 C 154.45 105.91 153.69 106.65 153.67 107.58 Z M 153.67 108.56 L 153.64 109.58 C 153.61 110.50 154.33 111.27 155.25 111.29 C 156.17 111.32 156.94 110.60 156.96 109.68 L 156.99 108.66 C 157.02 107.74 156.30 106.97 155.38 106.94 C 154.46 106.92 153.70 107.64 153.67 108.56 Z M 153.65 109.55 L 153.60 110.54 C 153.55 111.45 154.26 112.23 155.17 112.27 C 156.08 112.32 156.86 111.61 156.90 110.70 L 156.95 109.71 C 157.00 108.80 156.29 108.02 155.38 107.98 C 154.47 107.93 153.69 108.64 153.65 109.55 Z M 153.61 110.51 L 153.54 111.49 C 153.48 112.40 154.16 113.19 155.07 113.25 C 155.98 113.31 156.77 112.63 156.83 111.72 L 156.90 110.74 C 156.96 109.83 156.27 109.04 155.37 108.98 C 154.46 108.91 153.67 109.60 153.61 110.51 Z M 153.54 111.45 L 153.45 112.45 C 153.37 113.35 154.04 114.15 154.95 114.24 C 155.85 114.32 156.65 113.65 156.73 112.74 L 156.82 111.75 C 156.90 110.85 156.24 110.05 155.33 109.96 C 154.43 109.88 153.63 110.55 153.54 111.45 Z M 153.46 112.41 L 153.35 113.42 C 153.25 114.32 153.90 115.14 154.80 115.24 C 155.70 115.34 156.51 114.69 156.61 113.79 L 156.73 112.78 C 156.83 111.88 156.18 111.07 155.28 110.97 C 154.38 110.86 153.56 111.51 153.46 112.41 Z M 153.36 113.39 L 153.22 114.39 C 153.10 115.29 153.73 116.12 154.63 116.24 C 155.52 116.36 156.35 115.73 156.47 114.83 L 156.61 113.82 C 156.73 112.93 156.10 112.10 155.20 111.98 C 154.30 111.86 153.48 112.49 153.36 113.39 Z M 153.23 114.36 L 153.08 115.31 C 152.94 116.21 153.55 117.04 154.44 117.18 C 155.34 117.32 156.17 116.71 156.31 115.82 L 156.46 114.87 C 156.60 113.97 155.99 113.13 155.10 112.99 C 154.21 112.85 153.37 113.47 153.23 114.36 Z M 153.08 115.28 L 152.91 116.25 C 152.76 117.14 153.35 117.99 154.24 118.15 C 155.13 118.30 155.98 117.71 156.14 116.82 L 156.31 115.85 C 156.47 114.96 155.87 114.11 154.98 113.95 C 154.09 113.80 153.24 114.39 153.08 115.28 Z M 152.92 116.22 L 152.73 117.21 C 152.56 118.10 153.14 118.95 154.03 119.13 C 154.91 119.30 155.77 118.72 155.94 117.83 L 156.13 116.84 C 156.30 115.96 155.72 115.10 154.84 114.93 C 153.95 114.76 153.09 115.34 152.92 116.22 Z M 152.73 117.19 L 152.53 118.19 C 152.34 119.07 152.91 119.94 153.80 120.12 C 154.68 120.31 155.55 119.74 155.73 118.85 L 155.94 117.85 C 156.12 116.97 155.55 116.10 154.67 115.92 C 153.78 115.73 152.92 116.30 152.73 117.19 Z M 152.53 118.17 L 152.31 119.17 C 152.11 120.05 152.67 120.92 153.56 121.12 C 154.44 121.31 155.31 120.76 155.51 119.87 L 155.73 118.87 C 155.92 117.99 155.36 117.12 154.48 116.92 C 153.60 116.73 152.72 117.28 152.53 118.17 Z M 152.31 119.15 L 152.09 120.10 C 151.89 120.98 152.44 121.86 153.32 122.07 C 154.20 122.27 155.08 121.72 155.28 120.84 L 155.50 119.89 C 155.71 119.01 155.16 118.13 154.28 117.93 C 153.39 117.72 152.52 118.27 152.31 119.15 Z M 152.10 120.09 L 151.87 121.06 C 151.66 121.94 152.20 122.82 153.08 123.03 C 153.96 123.24 154.84 122.70 155.05 121.82 L 155.28 120.85 C 155.49 119.97 154.95 119.09 154.07 118.88 C 153.19 118.67 152.31 119.21 152.10 120.09 Z M 151.87 121.05 L 151.63 122.03 C 151.42 122.90 151.95 123.79 152.83 124.00 C 153.71 124.22 154.60 123.68 154.81 122.80 L 155.05 121.83 C 155.26 120.95 154.72 120.06 153.85 119.85 C 152.97 119.63 152.08 120.17 151.87 121.05 Z M 151.63 122.02 L 151.39 123.00 C 151.17 123.88 151.71 124.77 152.58 124.99 C 153.46 125.20 154.35 124.67 154.57 123.79 L 154.81 122.81 C 155.03 121.93 154.49 121.04 153.61 120.83 C 152.74 120.61 151.85 121.14 151.63 122.02 Z M 151.39 123.00 L 151.14 123.99 C 150.92 124.87 151.46 125.76 152.33 125.97 C 153.21 126.19 154.10 125.66 154.32 124.78 L 154.56 123.79 C 154.78 122.92 154.25 122.03 153.37 121.81 C 152.50 121.59 151.61 122.12 151.39 123.00 Z M 151.14 123.99 L 151.11 124.11 C 150.89 124.99 151.43 125.87 152.30 126.09 C 153.18 126.31 154.07 125.78 154.29 124.90 L 154.32 124.78 C 154.54 123.91 154.00 123.02 153.13 122.80 C 152.25 122.58 151.36 123.11 151.14 123.99 Z"
      fill="black"
      fill-rule="nonzero" /><path d="M 127.08 145.78 L 128.00 145.66 C 128.99 145.53 129.67 144.62 129.54 143.64 C 129.41 142.66 128.51 141.97 127.53 142.10 L 126.60 142.23 C 125.62 142.36 124.93 143.26 125.06 144.25 C 125.19 145.23 126.10 145.92 127.08 145.78 Z M 128.02 145.67 L 128.97 145.54 C 129.95 145.40 130.64 144.48 130.50 143.49 C 130.36 142.51 129.44 141.82 128.46 141.96 L 127.51 142.09 C 126.52 142.23 125.84 143.15 125.98 144.14 C 126.12 145.12 127.03 145.81 128.02 145.67 Z M 128.99 145.54 L 129.98 145.39 C 130.97 145.24 131.65 144.31 131.50 143.31 C 131.34 142.32 130.41 141.64 129.42 141.80 L 128.43 141.95 C 127.44 142.10 126.76 143.03 126.91 144.03 C 127.07 145.02 128.00 145.70 128.99 145.54 Z M 130.02 145.40 L 131.07 145.21 C 132.06 145.04 132.73 144.09 132.56 143.09 C 132.38 142.10 131.44 141.43 130.44 141.61 L 129.39 141.79 C 128.39 141.96 127.72 142.91 127.90 143.91 C 128.07 144.90 129.02 145.57 130.02 145.40 Z M 131.10 145.21 L 132.11 145.02 C 133.11 144.82 133.76 143.86 133.56 142.86 C 133.37 141.87 132.40 141.22 131.41 141.41 L 130.40 141.61 C 129.41 141.80 128.76 142.76 128.95 143.76 C 129.14 144.76 130.11 145.41 131.10 145.21 Z M 132.14 145.01 L 133.13 144.80 C 134.12 144.59 134.75 143.62 134.55 142.63 C 134.34 141.64 133.36 141.00 132.37 141.21 L 131.38 141.42 C 130.39 141.63 129.75 142.60 129.96 143.59 C 130.17 144.58 131.14 145.22 132.14 145.01 Z M 133.15 144.79 L 134.16 144.57 C 135.14 144.35 135.76 143.37 135.54 142.38 C 135.33 141.40 134.35 140.78 133.36 141.00 L 132.35 141.22 C 131.37 141.44 130.75 142.42 130.96 143.40 C 131.18 144.39 132.16 145.01 133.15 144.79 Z M 134.17 144.56 L 135.17 144.33 C 136.15 144.10 136.76 143.12 136.53 142.14 C 136.30 141.16 135.32 140.55 134.34 140.77 L 133.35 141.00 C 132.37 141.23 131.76 142.21 131.98 143.19 C 132.21 144.17 133.19 144.79 134.17 144.56 Z M 135.18 144.32 L 136.13 144.09 C 137.11 143.86 137.71 142.88 137.48 141.90 C 137.24 140.92 136.26 140.32 135.28 140.55 L 134.33 140.78 C 133.35 141.02 132.75 142.00 132.99 142.97 C 133.22 143.95 134.20 144.55 135.18 144.32 Z M 136.14 144.08 L 137.15 143.83 C 138.12 143.59 138.71 142.61 138.47 141.64 C 138.23 140.67 137.25 140.08 136.28 140.32 L 135.27 140.56 C 134.30 140.80 133.71 141.79 133.95 142.76 C 134.19 143.73 135.17 144.32 136.14 144.08 Z M 137.16 143.82 L 138.18 143.56 C 139.14 143.31 139.72 142.33 139.48 141.37 C 139.23 140.41 138.25 139.82 137.29 140.07 L 136.27 140.33 C 135.31 140.58 134.73 141.56 134.97 142.52 C 135.22 143.48 136.20 144.06 137.16 143.82 Z M 138.19 143.54 L 139.13 143.29 C 140.09 143.04 140.66 142.07 140.40 141.11 C 140.15 140.16 139.18 139.59 138.22 139.84 L 137.28 140.08 C 136.32 140.34 135.75 141.31 136.01 142.27 C 136.26 143.22 137.23 143.79 138.19 143.54 Z M 139.14 143.28 L 140.04 143.04 C 140.99 142.78 141.55 141.81 141.29 140.86 C 141.04 139.91 140.07 139.35 139.12 139.61 L 138.21 139.85 C 137.27 140.11 136.71 141.08 136.96 142.03 C 137.22 142.97 138.19 143.54 139.14 143.28 Z M 140.04 143.02 L 140.96 142.78 C 141.90 142.52 142.45 141.55 142.19 140.61 C 141.94 139.67 140.97 139.11 140.03 139.37 L 139.12 139.62 C 138.18 139.88 137.62 140.85 137.88 141.79 C 138.13 142.73 139.10 143.28 140.04 143.02 Z M 140.96 142.77 L 141.90 142.51 C 142.83 142.25 143.38 141.28 143.12 140.35 C 142.86 139.41 141.90 138.87 140.96 139.12 L 140.02 139.38 C 139.09 139.64 138.54 140.61 138.80 141.54 C 139.06 142.47 140.02 143.02 140.96 142.77 Z M 141.90 142.50 L 142.86 142.23 C 143.79 141.97 144.33 141.00 144.07 140.07 C 143.81 139.14 142.85 138.60 141.92 138.86 L 140.96 139.13 C 140.03 139.39 139.49 140.36 139.75 141.29 C 140.01 142.22 140.97 142.76 141.90 142.50 Z M 142.87 142.22 L 143.86 141.93 C 144.78 141.67 145.32 140.71 145.05 139.78 C 144.79 138.86 143.82 138.32 142.90 138.59 L 141.91 138.87 C 140.99 139.14 140.45 140.10 140.72 141.03 C 140.98 141.95 141.95 142.48 142.87 142.22 Z M 143.87 141.92 L 144.84 141.64 C 145.76 141.36 146.29 140.40 146.02 139.48 C 145.75 138.57 144.78 138.04 143.86 138.31 L 142.89 138.60 C 141.97 138.87 141.45 139.83 141.72 140.75 C 141.99 141.67 142.95 142.19 143.87 141.92 Z M 144.85 141.62 L 145.81 141.33 C 146.72 141.06 147.24 140.10 146.96 139.19 C 146.69 138.28 145.72 137.76 144.81 138.04 L 143.86 138.32 C 142.94 138.60 142.43 139.56 142.70 140.47 C 142.98 141.38 143.94 141.90 144.85 141.62 Z M 145.81 141.32 L 146.78 141.03 C 147.68 140.75 148.19 139.79 147.91 138.88 C 147.63 137.98 146.68 137.47 145.77 137.75 L 144.81 138.05 C 143.90 138.32 143.39 139.28 143.67 140.19 C 143.95 141.09 144.91 141.60 145.81 141.32 Z M 146.78 141.02 L 147.74 140.72 C 148.64 140.44 149.14 139.48 148.86 138.59 C 148.58 137.69 147.63 137.18 146.73 137.46 L 145.77 137.76 C 144.87 138.04 144.37 138.99 144.65 139.89 C 144.93 140.79 145.88 141.30 146.78 141.02 Z M 147.74 140.71 L 148.69 140.41 C 149.59 140.13 150.09 139.18 149.81 138.29 C 149.53 137.39 148.58 136.89 147.68 137.17 L 146.73 137.47 C 145.84 137.75 145.34 138.70 145.61 139.60 C 145.89 140.49 146.84 140.99 147.74 140.71 Z M 148.69 140.41 L 149.66 140.10 C 150.55 139.82 151.05 138.88 150.77 137.99 C 150.49 137.10 149.54 136.60 148.65 136.88 L 147.69 137.18 C 146.80 137.46 146.30 138.41 146.58 139.30 C 146.86 140.19 147.80 140.68 148.69 140.41 Z M 149.67 140.09 L 150.62 139.79 C 151.50 139.51 151.99 138.57 151.71 137.68 C 151.43 136.80 150.49 136.31 149.60 136.59 L 148.65 136.89 C 147.77 137.17 147.27 138.11 147.56 139.00 C 147.84 139.88 148.78 140.37 149.67 140.09 Z M 150.63 139.78 L 151.57 139.47 C 152.45 139.19 152.93 138.24 152.64 137.36 C 152.36 136.48 151.41 136.00 150.53 136.29 L 149.59 136.60 C 148.71 136.88 148.23 137.83 148.52 138.71 C 148.80 139.59 149.75 140.07 150.63 139.78 Z M 151.59 139.46 L 152.52 139.14 C 153.40 138.85 153.86 137.90 153.57 137.03 C 153.27 136.16 152.33 135.69 151.45 135.99 L 150.52 136.30 C 149.65 136.60 149.18 137.54 149.47 138.42 C 149.77 139.29 150.71 139.76 151.59 139.46 Z M 152.54 139.13 L 153.49 138.80 C 154.35 138.49 154.81 137.54 154.50 136.68 C 154.20 135.81 153.25 135.36 152.38 135.66 L 151.44 136.00 C 150.57 136.30 150.12 137.25 150.42 138.12 C 150.73 138.98 151.68 139.44 152.54 139.13 Z M 153.50 138.79 L 154.44 138.44 C 155.30 138.13 155.75 137.18 155.43 136.32 C 155.12 135.46 154.17 135.02 153.31 135.33 L 152.37 135.67 C 151.51 135.99 151.06 136.94 151.38 137.80 C 151.69 138.66 152.64 139.10 153.50 138.79 Z M 154.45 138.44 L 155.39 138.09 C 156.25 137.77 156.68 136.82 156.37 135.97 C 156.05 135.11 155.10 134.67 154.24 134.99 L 153.30 135.34 C 152.45 135.65 152.01 136.60 152.33 137.46 C 152.64 138.32 153.59 138.75 154.45 138.44 Z M 155.39 138.09 L 156.32 137.74 C 157.17 137.42 157.61 136.48 157.29 135.62 C 156.98 134.77 156.03 134.33 155.18 134.65 L 154.24 134.99 C 153.39 135.31 152.95 136.26 153.27 137.11 C 153.58 137.97 154.53 138.40 155.39 138.09 Z M 156.31 137.74 L 157.28 137.39 C 158.13 137.07 158.57 136.13 158.26 135.27 C 157.95 134.42 157.00 133.98 156.15 134.29 L 155.18 134.65 C 154.33 134.96 153.89 135.91 154.20 136.76 C 154.52 137.61 155.46 138.05 156.31 137.74 Z M 157.28 137.38 L 158.23 137.04 C 159.08 136.72 159.52 135.78 159.21 134.93 C 158.90 134.08 157.95 133.64 157.10 133.95 L 156.15 134.30 C 155.30 134.61 154.86 135.55 155.17 136.40 C 155.48 137.26 156.43 137.70 157.28 137.38 Z M 158.23 137.03 L 159.16 136.69 C 160.01 136.37 160.45 135.43 160.13 134.58 C 159.82 133.73 158.87 133.29 158.02 133.61 L 157.10 133.95 C 156.24 134.27 155.81 135.21 156.12 136.06 C 156.44 136.91 157.38 137.35 158.23 137.03 Z M 159.18 136.68 L 160.09 136.34 C 160.94 136.01 161.36 135.07 161.04 134.22 C 160.72 133.37 159.77 132.95 158.92 133.27 L 158.01 133.62 C 157.16 133.94 156.74 134.88 157.06 135.73 C 157.38 136.58 158.33 137.00 159.18 136.68 Z M 160.11 136.33 L 161.08 135.94 C 161.92 135.61 162.33 134.66 162.00 133.82 C 161.67 132.98 160.72 132.56 159.87 132.90 L 158.90 133.28 C 158.06 133.61 157.65 134.56 157.98 135.40 C 158.31 136.25 159.27 136.66 160.11 136.33 Z M 161.09 135.94 L 162.02 135.56 C 162.86 135.22 163.26 134.26 162.92 133.42 C 162.58 132.58 161.62 132.18 160.79 132.52 L 159.86 132.90 C 159.02 133.24 158.62 134.20 158.96 135.04 C 159.30 135.88 160.26 136.28 161.09 135.94 Z M 162.04 135.55 L 162.93 135.18 C 163.76 134.83 164.15 133.87 163.81 133.04 C 163.46 132.20 162.50 131.81 161.66 132.16 L 160.77 132.53 C 159.94 132.88 159.54 133.84 159.89 134.67 C 160.24 135.51 161.20 135.90 162.04 135.55 Z M 162.93 135.18 L 163.82 134.80 C 164.65 134.45 165.04 133.49 164.69 132.65 C 164.34 131.82 163.38 131.43 162.54 131.79 L 161.66 132.16 C 160.82 132.51 160.44 133.47 160.79 134.31 C 161.14 135.14 162.10 135.53 162.93 135.18 Z M 163.83 134.79 L 164.72 134.41 C 165.55 134.05 165.93 133.08 165.57 132.25 C 165.21 131.42 164.25 131.04 163.42 131.40 L 162.53 131.79 C 161.70 132.15 161.32 133.12 161.68 133.95 C 162.04 134.78 163.01 135.15 163.83 134.79 Z M 164.75 134.39 L 165.67 133.98 C 166.49 133.60 166.85 132.63 166.48 131.81 C 166.10 130.98 165.13 130.62 164.31 131.00 L 163.39 131.42 C 162.57 131.79 162.21 132.76 162.58 133.59 C 162.96 134.41 163.93 134.77 164.75 134.39 Z M 165.70 133.96 L 166.61 133.52 C 167.42 133.13 167.76 132.15 167.37 131.33 C 166.97 130.52 165.99 130.18 165.18 130.57 L 164.27 131.01 C 163.46 131.41 163.12 132.39 163.51 133.20 C 163.91 134.02 164.89 134.36 165.70 133.96 Z M 166.64 133.51 L 167.49 133.07 C 168.30 132.66 168.62 131.68 168.21 130.87 C 167.80 130.06 166.81 129.74 166.01 130.15 L 165.15 130.59 C 164.35 131.00 164.03 131.98 164.44 132.79 C 164.85 133.60 165.83 133.92 166.64 133.51 Z M 167.51 133.06 L 168.40 132.60 C 169.20 132.18 169.51 131.19 169.09 130.39 C 168.67 129.58 167.68 129.28 166.88 129.70 L 165.99 130.16 C 165.19 130.58 164.88 131.57 165.30 132.37 C 165.72 133.17 166.71 133.48 167.51 133.06 Z M 168.41 132.59 L 169.32 132.10 C 170.12 131.68 170.42 130.69 170.00 129.89 C 169.58 129.09 168.58 128.79 167.79 129.21 L 166.87 129.70 C 166.07 130.13 165.77 131.12 166.20 131.91 C 166.62 132.71 167.61 133.02 168.41 132.59 Z M 169.33 132.10 L 169.92 131.79 C 170.72 131.36 171.02 130.37 170.59 129.57 C 170.16 128.77 169.17 128.47 168.37 128.90 L 167.78 129.22 C 166.99 129.64 166.69 130.63 167.11 131.43 C 167.54 132.23 168.53 132.53 169.33 132.10 Z"
      fill="black"
      fill-rule="nonzero" /><path d="M 156.32 120.60 L 155.30 120.74 C 154.39 120.86 153.75 121.70 153.87 122.62 C 154.00 123.53 154.84 124.17 155.75 124.04 L 156.77 123.90 C 157.69 123.78 158.33 122.94 158.20 122.02 C 158.08 121.11 157.23 120.47 156.32 120.60 Z M 155.16 120.69 L 154.18 120.90 C 153.25 121.11 152.65 122.03 152.85 122.97 C 153.05 123.90 153.98 124.50 154.91 124.30 L 155.89 124.09 C 156.83 123.88 157.43 122.96 157.22 122.02 C 157.02 121.09 156.10 120.49 155.16 120.69 Z M 153.89 120.92 L 152.99 121.28 C 152.06 121.64 151.61 122.69 151.97 123.61 C 152.34 124.54 153.38 124.99 154.31 124.63 L 155.21 124.28 C 156.13 123.91 156.59 122.87 156.22 121.94 C 155.86 121.02 154.82 120.56 153.89 120.92 Z M 152.59 121.44 L 151.83 121.97 C 151.00 122.56 150.79 123.70 151.38 124.54 C 151.96 125.38 153.11 125.58 153.94 125.00 L 154.70 124.47 C 155.54 123.88 155.74 122.73 155.16 121.90 C 154.58 121.06 153.43 120.86 152.59 121.44 Z M 151.53 122.21 L 150.87 122.93 C 150.16 123.68 150.20 124.85 150.95 125.55 C 151.71 126.26 152.88 126.22 153.58 125.46 L 154.25 124.75 C 154.95 124.00 154.91 122.83 154.16 122.13 C 153.41 121.42 152.23 121.46 151.53 122.21 Z M 150.68 123.14 L 150.08 124.01 C 149.50 124.86 149.72 126.02 150.57 126.61 C 151.43 127.19 152.59 126.98 153.18 126.12 L 153.77 125.25 C 154.35 124.40 154.14 123.23 153.28 122.65 C 152.43 122.06 151.26 122.28 150.68 123.14 Z M 149.98 124.15 L 149.50 125.02 C 149.00 125.93 149.33 127.08 150.24 127.58 C 151.15 128.08 152.29 127.75 152.80 126.84 L 153.28 125.97 C 153.78 125.06 153.45 123.92 152.54 123.42 C 151.63 122.91 150.49 123.24 149.98 124.15 Z M 149.45 125.12 L 149.03 126.00 C 148.58 126.94 148.98 128.07 149.92 128.52 C 150.86 128.96 151.98 128.57 152.43 127.63 L 152.85 126.75 C 153.30 125.81 152.90 124.68 151.96 124.23 C 151.02 123.78 149.90 124.18 149.45 125.12 Z M 148.99 126.07 L 148.59 127.00 C 148.18 127.96 148.63 129.07 149.59 129.48 C 150.54 129.89 151.65 129.45 152.06 128.49 L 152.46 127.56 C 152.87 126.60 152.43 125.49 151.47 125.08 C 150.51 124.67 149.40 125.11 148.99 126.07 Z M 148.57 127.06 L 148.19 128.02 C 147.81 128.99 148.29 130.09 149.26 130.47 C 150.23 130.85 151.32 130.37 151.71 129.40 L 152.09 128.44 C 152.47 127.47 151.99 126.37 151.02 125.99 C 150.05 125.61 148.95 126.09 148.57 127.06 Z M 148.18 128.06 L 147.84 128.98 C 147.47 129.96 147.97 131.05 148.95 131.41 C 149.93 131.77 151.02 131.27 151.38 130.29 L 151.72 129.37 C 152.08 128.39 151.58 127.30 150.60 126.94 C 149.63 126.58 148.54 127.08 148.18 128.06 Z M 147.83 129.01 L 147.50 129.92 C 147.16 130.91 147.67 131.99 148.66 132.33 C 149.64 132.68 150.72 132.16 151.07 131.18 L 151.39 130.27 C 151.73 129.28 151.22 128.20 150.23 127.86 C 149.25 127.51 148.17 128.03 147.83 129.01 Z M 147.50 129.95 L 147.18 130.89 C 146.85 131.88 147.38 132.95 148.37 133.28 C 149.36 133.61 150.43 133.08 150.76 132.09 L 151.07 131.15 C 151.41 130.17 150.87 129.10 149.89 128.76 C 148.90 128.43 147.83 128.96 147.50 129.95 Z M 147.17 130.91 L 146.86 131.89 C 146.54 132.88 147.09 133.94 148.08 134.26 C 149.07 134.58 150.13 134.04 150.45 133.04 L 150.76 132.07 C 151.08 131.08 150.54 130.02 149.55 129.70 C 148.56 129.38 147.49 129.92 147.17 130.91 Z M 146.86 131.91 L 146.55 132.88 C 146.24 133.87 146.80 134.93 147.79 135.24 C 148.79 135.54 149.84 134.99 150.15 134.00 L 150.45 133.03 C 150.76 132.03 150.21 130.98 149.21 130.67 C 148.22 130.36 147.16 130.91 146.86 131.91 Z M 146.55 132.89 L 146.28 133.78 C 145.98 134.78 146.54 135.83 147.54 136.13 C 148.53 136.43 149.58 135.87 149.88 134.87 L 150.15 133.98 C 150.46 132.99 149.89 131.94 148.90 131.63 C 147.90 131.33 146.85 131.90 146.55 132.89 Z M 146.28 133.79 L 146.01 134.72 C 145.71 135.71 146.27 136.76 147.27 137.06 C 148.26 137.35 149.31 136.79 149.61 135.79 L 149.88 134.87 C 150.18 133.87 149.61 132.82 148.62 132.53 C 147.63 132.23 146.58 132.80 146.28 133.79 Z M 146.01 134.72 L 145.72 135.69 C 145.43 136.68 145.99 137.73 146.99 138.02 C 147.98 138.32 149.02 137.75 149.32 136.76 L 149.60 135.79 C 149.90 134.80 149.33 133.75 148.34 133.46 C 147.35 133.16 146.30 133.73 146.01 134.72 Z M 145.72 135.69 L 145.43 136.69 C 145.13 137.68 145.70 138.72 146.69 139.02 C 147.68 139.31 148.72 138.75 149.02 137.76 L 149.31 136.76 C 149.61 135.76 149.04 134.72 148.05 134.43 C 147.06 134.13 146.02 134.70 145.72 135.69 Z M 145.43 136.69 L 145.12 137.72 C 144.83 138.71 145.39 139.75 146.38 140.04 C 147.36 140.34 148.41 139.78 148.70 138.79 L 149.01 137.76 C 149.31 136.77 148.75 135.73 147.76 135.43 C 146.77 135.14 145.73 135.70 145.43 136.69 Z M 145.13 137.71 L 144.83 138.70 C 144.53 139.68 145.09 140.72 146.07 141.02 C 147.06 141.32 148.10 140.76 148.40 139.78 L 148.70 138.80 C 148.99 137.81 148.44 136.77 147.45 136.47 C 146.47 136.17 145.43 136.73 145.13 137.71 Z M 144.84 138.69 L 144.54 139.68 C 144.23 140.66 144.78 141.70 145.76 142.00 C 146.74 142.30 147.78 141.75 148.08 140.77 L 148.39 139.78 C 148.69 138.80 148.14 137.76 147.16 137.46 C 146.18 137.16 145.14 137.71 144.84 138.69 Z M 144.54 139.68 L 144.24 140.66 C 143.93 141.64 144.48 142.67 145.45 142.98 C 146.43 143.28 147.46 142.74 147.77 141.76 L 148.08 140.78 C 148.38 139.80 147.84 138.77 146.86 138.46 C 145.89 138.16 144.85 138.70 144.54 139.68 Z M 144.25 140.65 L 143.94 141.61 C 143.63 142.58 144.17 143.62 145.14 143.92 C 146.11 144.23 147.15 143.70 147.46 142.73 L 147.76 141.77 C 148.07 140.80 147.53 139.76 146.56 139.45 C 145.59 139.15 144.55 139.68 144.25 140.65 Z M 143.95 141.60 L 143.66 142.51 C 143.34 143.48 143.87 144.51 144.84 144.83 C 145.80 145.14 146.84 144.61 147.15 143.65 L 147.45 142.73 C 147.76 141.77 147.23 140.73 146.27 140.42 C 145.30 140.11 144.27 140.64 143.95 141.60 Z M 143.67 142.50 L 143.35 143.46 C 143.03 144.42 143.55 145.46 144.51 145.78 C 145.47 146.09 146.50 145.58 146.82 144.62 L 147.14 143.66 C 147.46 142.70 146.94 141.66 145.98 141.34 C 145.02 141.03 143.99 141.54 143.67 142.50 Z M 143.37 143.45 L 143.01 144.48 C 142.68 145.43 143.19 146.47 144.14 146.79 C 145.08 147.12 146.12 146.62 146.44 145.67 L 146.80 144.63 C 147.13 143.68 146.62 142.65 145.68 142.32 C 144.73 142.00 143.69 142.50 143.37 143.45 Z M 143.03 144.47 L 142.70 145.41 C 142.36 146.35 142.85 147.38 143.79 147.71 C 144.73 148.04 145.76 147.56 146.09 146.62 L 146.42 145.68 C 146.76 144.74 146.27 143.71 145.33 143.38 C 144.39 143.05 143.36 143.54 143.03 144.47 Z M 142.71 145.40 L 142.40 146.28 C 142.06 147.20 142.54 148.23 143.47 148.56 C 144.40 148.90 145.42 148.42 145.76 147.50 L 146.07 146.62 C 146.41 145.70 145.93 144.67 145.00 144.34 C 144.08 144.00 143.05 144.48 142.71 145.40 Z M 142.41 146.28 L 142.10 147.14 C 141.76 148.05 142.24 149.07 143.16 149.41 C 144.08 149.74 145.09 149.27 145.43 148.35 L 145.74 147.49 C 146.08 146.57 145.61 145.56 144.69 145.22 C 143.77 144.88 142.75 145.36 142.41 146.28 Z M 142.11 147.14 L 141.77 148.08 C 141.44 148.99 141.91 150.00 142.82 150.34 C 143.74 150.67 144.75 150.20 145.08 149.28 L 145.42 148.35 C 145.75 147.43 145.28 146.42 144.37 146.09 C 143.45 145.76 142.44 146.23 142.11 147.14 Z M 141.77 148.08 L 141.44 149.02 C 141.11 149.93 141.58 150.93 142.49 151.26 C 143.40 151.59 144.41 151.12 144.74 150.21 L 145.07 149.28 C 145.40 148.37 144.93 147.36 144.02 147.03 C 143.11 146.70 142.10 147.17 141.77 148.08 Z M 141.44 149.02 L 141.10 149.97 C 140.78 150.87 141.25 151.87 142.16 152.20 C 143.06 152.53 144.07 152.06 144.39 151.15 L 144.73 150.20 C 145.06 149.30 144.59 148.30 143.68 147.97 C 142.77 147.64 141.77 148.12 141.44 149.02 Z M 141.11 149.97 L 140.78 150.90 C 140.45 151.80 140.92 152.80 141.83 153.12 C 142.73 153.45 143.73 152.98 144.05 152.07 L 144.38 151.14 C 144.71 150.24 144.24 149.24 143.33 148.92 C 142.43 148.60 141.44 149.07 141.11 149.97 Z M 140.79 150.90 L 140.45 151.82 C 140.13 152.72 140.60 153.72 141.50 154.04 C 142.40 154.36 143.39 153.90 143.71 153.00 L 144.04 152.07 C 144.37 151.17 143.90 150.18 143.00 149.86 C 142.10 149.53 141.11 150.00 140.79 150.90 Z M 140.46 151.82 L 140.12 152.76 C 139.79 153.66 140.25 154.65 141.14 154.97 C 142.04 155.30 143.03 154.84 143.36 153.95 L 143.70 153.00 C 144.03 152.11 143.57 151.12 142.67 150.79 C 141.78 150.46 140.79 150.92 140.46 151.82 Z M 140.13 152.75 L 139.77 153.71 C 139.44 154.60 139.89 155.59 140.77 155.92 C 141.66 156.25 142.65 155.80 142.99 154.91 L 143.35 153.96 C 143.68 153.07 143.23 152.08 142.34 151.74 C 141.45 151.41 140.46 151.86 140.13 152.75 Z M 139.78 153.69 L 139.42 154.62 C 139.08 155.50 139.52 156.49 140.40 156.83 C 141.28 157.17 142.27 156.73 142.61 155.85 L 142.97 154.93 C 143.31 154.05 142.88 153.06 142.00 152.72 C 141.12 152.37 140.12 152.81 139.78 153.69 Z M 139.44 154.60 L 139.07 155.51 C 138.72 156.39 139.15 157.38 140.02 157.73 C 140.90 158.08 141.89 157.65 142.24 156.78 L 142.60 155.87 C 142.95 154.99 142.53 154.00 141.65 153.65 C 140.78 153.30 139.79 153.73 139.44 154.60 Z M 139.08 155.50 L 138.70 156.42 C 138.35 157.29 138.76 158.28 139.63 158.64 C 140.50 159.00 141.49 158.58 141.85 157.71 L 142.23 156.79 C 142.58 155.92 142.17 154.93 141.30 154.57 C 140.43 154.22 139.44 154.63 139.08 155.50 Z M 138.71 156.41 L 138.32 157.36 C 137.96 158.22 138.36 159.21 139.23 159.57 C 140.09 159.93 141.08 159.53 141.44 158.66 L 141.84 157.72 C 142.20 156.86 141.79 155.87 140.93 155.51 C 140.07 155.15 139.08 155.55 138.71 156.41 Z M 138.33 157.35 L 137.93 158.27 C 137.57 159.13 137.97 160.12 138.83 160.49 C 139.69 160.85 140.68 160.45 141.04 159.59 L 141.44 158.67 C 141.80 157.81 141.40 156.82 140.54 156.46 C 139.68 156.09 138.69 156.49 138.33 157.35 Z M 137.94 158.27 L 137.56 159.16 C 137.19 160.02 137.58 161.01 138.44 161.38 C 139.29 161.74 140.28 161.35 140.65 160.50 L 141.04 159.60 C 141.40 158.74 141.01 157.75 140.15 157.39 C 139.30 157.02 138.31 157.41 137.94 158.27 Z M 137.56 159.16 L 137.16 160.07 C 136.79 160.92 137.19 161.91 138.04 162.28 C 138.89 162.65 139.88 162.26 140.25 161.41 L 140.65 160.50 C 141.01 159.65 140.62 158.66 139.77 158.29 C 138.92 157.92 137.93 158.31 137.56 159.16 Z M 137.17 160.07 L 136.76 161.00 C 136.39 161.85 136.78 162.84 137.63 163.21 C 138.48 163.58 139.47 163.19 139.84 162.34 L 140.24 161.41 C 140.62 160.56 140.23 159.58 139.38 159.20 C 138.53 158.83 137.54 159.22 137.17 160.07 Z M 136.77 161.00 L 136.35 161.94 C 135.98 162.79 136.37 163.77 137.22 164.15 C 138.06 164.52 139.05 164.13 139.42 163.28 L 139.83 162.34 C 140.21 161.50 139.82 160.51 138.97 160.14 C 138.13 159.77 137.14 160.15 136.77 161.00 Z M 136.36 161.94 L 135.96 162.84 C 135.59 163.68 135.98 164.67 136.82 165.04 C 137.67 165.41 138.65 165.03 139.02 164.18 L 139.42 163.29 C 139.79 162.44 139.41 161.45 138.56 161.08 C 137.72 160.71 136.73 161.09 136.36 161.94 Z M 135.97 162.83 L 135.57 163.73 C 135.20 164.57 135.58 165.56 136.42 165.93 C 137.27 166.30 138.25 165.92 138.62 165.08 L 139.02 164.18 C 139.39 163.34 139.01 162.35 138.17 161.98 C 137.33 161.61 136.34 161.99 135.97 162.83 Z M 135.58 163.73 L 135.17 164.64 C 134.80 165.48 135.17 166.46 136.01 166.84 C 136.85 167.21 137.84 166.83 138.21 165.99 L 138.62 165.08 C 138.99 164.24 138.62 163.26 137.78 162.88 C 136.94 162.51 135.95 162.89 135.58 163.73 Z M 135.18 164.63 L 134.76 165.55 C 134.38 166.39 134.75 167.37 135.59 167.75 C 136.43 168.13 137.41 167.76 137.79 166.92 L 138.21 166.00 C 138.59 165.16 138.21 164.18 137.38 163.80 C 136.54 163.42 135.55 163.79 135.18 164.63 Z M 134.77 165.54 L 134.33 166.48 C 133.95 167.32 134.32 168.30 135.15 168.68 C 135.98 169.07 136.97 168.70 137.35 167.87 L 137.78 166.93 C 138.17 166.10 137.80 165.11 136.97 164.73 C 136.13 164.35 135.15 164.71 134.77 165.54 Z M 134.34 166.47 L 133.92 167.39 C 133.53 168.21 133.89 169.20 134.71 169.59 C 135.54 169.98 136.53 169.62 136.92 168.79 L 137.35 167.88 C 137.73 167.05 137.38 166.06 136.55 165.67 C 135.72 165.29 134.73 165.64 134.34 166.47 Z M 133.92 167.38 L 133.49 168.29 C 133.09 169.12 133.45 170.11 134.27 170.50 C 135.10 170.89 136.09 170.54 136.48 169.71 L 136.91 168.80 C 137.31 167.97 136.95 166.98 136.13 166.59 C 135.30 166.20 134.31 166.55 133.92 167.38 Z M 133.49 168.29 L 133.05 169.20 C 132.66 170.02 133.01 171.01 133.83 171.41 C 134.65 171.80 135.64 171.45 136.04 170.63 L 136.48 169.72 C 136.87 168.89 136.52 167.90 135.70 167.51 C 134.88 167.11 133.89 167.46 133.49 168.29 Z M 133.06 169.19 L 132.62 170.10 C 132.22 170.92 132.57 171.91 133.39 172.31 C 134.21 172.70 135.20 172.36 135.60 171.54 L 136.03 170.63 C 136.43 169.81 136.09 168.82 135.27 168.43 C 134.44 168.03 133.45 168.37 133.06 169.19 Z M 132.62 170.10 L 132.19 170.98 C 131.80 171.80 132.14 172.79 132.96 173.19 C 133.78 173.59 134.77 173.24 135.17 172.42 L 135.60 171.54 C 135.99 170.72 135.65 169.73 134.83 169.33 C 134.01 168.93 133.02 169.28 132.62 170.10 Z M 132.20 170.98 L 131.75 171.91 C 131.35 172.73 131.69 173.71 132.51 174.11 C 133.33 174.51 134.32 174.17 134.72 173.35 L 135.17 172.42 C 135.56 171.60 135.22 170.62 134.40 170.22 C 133.58 169.82 132.59 170.16 132.20 170.98 Z M 131.75 171.91 L 131.30 172.83 C 130.90 173.65 131.24 174.64 132.06 175.04 C 132.88 175.43 133.87 175.09 134.27 174.27 L 134.72 173.35 C 135.11 172.53 134.77 171.54 133.95 171.14 C 133.13 170.75 132.15 171.09 131.75 171.91 Z M 131.30 172.83 L 130.86 173.73 C 130.46 174.55 130.80 175.53 131.62 175.93 C 132.44 176.33 133.43 175.99 133.83 175.17 L 134.26 174.27 C 134.66 173.46 134.32 172.47 133.50 172.07 C 132.69 171.67 131.70 172.01 131.30 172.83 Z M 130.87 173.72 L 130.44 174.60 C 130.04 175.42 130.37 176.40 131.19 176.80 C 132.01 177.20 132.99 176.87 133.39 176.05 L 133.82 175.18 C 134.22 174.36 133.89 173.37 133.07 172.97 C 132.25 172.57 131.27 172.91 130.87 173.72 Z M 130.44 174.59 L 130.02 175.45 C 129.61 176.27 129.94 177.25 130.76 177.66 C 131.57 178.06 132.56 177.73 132.96 176.92 L 133.39 176.06 C 133.79 175.24 133.46 174.26 132.65 173.85 C 131.83 173.45 130.85 173.78 130.44 174.59 Z M 130.02 175.44 L 129.56 176.37 C 129.15 177.18 129.47 178.17 130.29 178.58 C 131.10 178.98 132.08 178.66 132.49 177.85 L 132.96 176.92 C 133.37 176.11 133.04 175.12 132.23 174.72 C 131.42 174.31 130.43 174.63 130.02 175.44 Z M 129.56 176.36 L 129.10 177.27 C 128.69 178.08 129.01 179.06 129.82 179.48 C 130.62 179.89 131.61 179.57 132.03 178.76 L 132.49 177.85 C 132.90 177.04 132.58 176.05 131.77 175.64 C 130.96 175.23 129.97 175.55 129.56 176.36 Z M 129.10 177.26 L 128.65 178.15 C 128.23 178.95 128.55 179.94 129.36 180.36 C 130.16 180.77 131.15 180.46 131.57 179.65 L 132.02 178.76 C 132.44 177.96 132.12 176.97 131.31 176.55 C 130.51 176.14 129.52 176.46 129.10 177.26 Z M 128.65 178.14 L 128.21 179.00 C 127.79 179.81 128.10 180.80 128.91 181.22 C 129.71 181.63 130.70 181.32 131.12 180.51 L 131.56 179.65 C 131.98 178.85 131.67 177.86 130.86 177.44 C 130.06 177.02 129.07 177.34 128.65 178.14 Z M 128.21 179.00 L 127.73 179.92 C 127.32 180.72 127.63 181.71 128.44 182.13 C 129.24 182.54 130.23 182.23 130.65 181.42 L 131.12 180.51 C 131.54 179.71 131.22 178.72 130.42 178.30 C 129.61 177.89 128.62 178.20 128.21 179.00 Z M 127.73 179.92 L 127.26 180.83 C 126.85 181.63 127.16 182.62 127.96 183.04 C 128.77 183.45 129.76 183.14 130.17 182.33 L 130.64 181.42 C 131.06 180.62 130.75 179.63 129.94 179.22 C 129.14 178.80 128.15 179.11 127.73 179.92 Z M 127.26 180.83 L 126.81 181.70 C 126.39 182.51 126.71 183.50 127.51 183.91 C 128.32 184.33 129.31 184.01 129.72 183.21 L 130.17 182.33 C 130.59 181.53 130.27 180.54 129.47 180.12 C 128.67 179.71 127.68 180.02 127.26 180.83 Z M 126.81 181.71 L 126.37 182.55 C 125.96 183.36 126.28 184.35 127.08 184.76 C 127.89 185.17 128.88 184.85 129.29 184.05 L 129.72 183.20 C 130.14 182.40 129.82 181.41 129.01 181.00 C 128.21 180.59 127.22 180.90 126.81 181.71 Z M 126.37 182.56 L 125.95 183.40 C 125.54 184.21 125.86 185.19 126.67 185.60 C 127.48 186.01 128.46 185.68 128.87 184.88 L 129.29 184.04 C 129.70 183.23 129.38 182.25 128.57 181.84 C 127.76 181.43 126.78 181.76 126.37 182.56 Z M 125.94 183.42 L 125.52 184.27 C 125.12 185.08 125.46 186.07 126.27 186.46 C 127.08 186.86 128.06 186.53 128.46 185.71 L 128.88 184.86 C 129.28 184.05 128.94 183.07 128.13 182.67 C 127.32 182.27 126.34 182.61 125.94 183.42 Z M 125.51 184.30 L 125.08 185.22 C 124.69 186.04 125.05 187.02 125.87 187.40 C 126.69 187.78 127.66 187.43 128.04 186.61 L 128.47 185.69 C 128.86 184.87 128.50 183.89 127.68 183.51 C 126.86 183.13 125.89 183.48 125.51 184.30 Z M 125.06 185.26 L 124.64 186.22 C 124.27 187.05 124.65 188.02 125.47 188.38 C 126.30 188.74 127.27 188.37 127.63 187.54 L 128.06 186.58 C 128.42 185.75 128.05 184.78 127.22 184.42 C 126.39 184.05 125.43 184.43 125.06 185.26 Z M 124.62 186.25 L 124.27 187.09 C 123.92 187.92 124.31 188.88 125.14 189.23 C 125.98 189.59 126.94 189.19 127.29 188.36 L 127.64 187.52 C 127.99 186.68 127.60 185.72 126.77 185.37 C 125.94 185.02 124.98 185.41 124.62 186.25 Z M 124.26 187.11 L 123.89 188.01 C 123.55 188.85 123.95 189.80 124.79 190.15 C 125.62 190.49 126.58 190.09 126.92 189.25 L 127.29 188.35 C 127.64 187.51 127.23 186.55 126.40 186.21 C 125.56 185.87 124.61 186.27 124.26 187.11 Z M 123.89 188.02 L 123.51 188.97 C 123.17 189.81 123.58 190.77 124.42 191.10 C 125.25 191.44 126.21 191.03 126.54 190.19 L 126.93 189.24 C 127.26 188.40 126.86 187.45 126.02 187.11 C 125.18 186.78 124.23 187.18 123.89 188.02 Z M 123.50 188.98 L 123.11 189.96 C 122.78 190.80 123.19 191.75 124.03 192.09 C 124.87 192.42 125.82 192.01 126.16 191.17 L 126.55 190.19 C 126.88 189.35 126.47 188.40 125.63 188.06 C 124.79 187.73 123.84 188.14 123.50 188.98 Z M 123.11 189.97 L 122.80 190.77 C 122.47 191.61 122.88 192.56 123.72 192.89 C 124.56 193.22 125.51 192.81 125.84 191.97 L 126.16 191.17 C 126.49 190.33 126.08 189.38 125.24 189.04 C 124.40 188.71 123.45 189.12 123.11 189.97 Z"
      fill="black"
      fill-rule="nonzero" /><path d="M 145.24 158.45 L 145.61 159.37 C 145.97 160.27 146.98 160.71 147.88 160.35 C 148.78 159.99 149.21 158.98 148.86 158.08 L 148.49 157.16 C 148.13 156.26 147.12 155.82 146.22 156.18 C 145.32 156.54 144.89 157.55 145.24 158.45 Z M 145.59 159.36 L 145.94 160.29 C 146.30 161.20 147.32 161.66 148.23 161.31 C 149.14 160.95 149.59 159.93 149.24 159.02 L 148.88 158.09 C 148.53 157.18 147.51 156.73 146.60 157.08 C 145.69 157.43 145.23 158.45 145.59 159.36 Z M 145.91 160.27 L 146.26 161.21 C 146.59 162.14 147.62 162.62 148.54 162.28 C 149.47 161.94 149.95 160.92 149.61 159.99 L 149.27 159.05 C 148.93 158.12 147.91 157.64 146.98 157.98 C 146.06 158.32 145.58 159.34 145.91 160.27 Z M 146.22 161.17 L 146.54 162.12 C 146.85 163.07 147.87 163.58 148.81 163.27 C 149.76 162.95 150.27 161.94 149.96 160.99 L 149.64 160.04 C 149.33 159.09 148.31 158.58 147.37 158.89 C 146.43 159.20 145.91 160.22 146.22 161.17 Z M 146.52 162.07 L 146.80 163.03 C 147.08 163.99 148.09 164.54 149.05 164.25 C 150.00 163.97 150.55 162.97 150.27 162.01 L 149.98 161.04 C 149.70 160.09 148.70 159.54 147.74 159.82 C 146.78 160.11 146.23 161.11 146.52 162.07 Z M 146.79 162.99 L 147.05 163.96 C 147.30 164.92 148.29 165.49 149.26 165.24 C 150.22 164.98 150.80 163.99 150.54 163.03 L 150.28 162.06 C 150.02 161.09 149.03 160.52 148.07 160.78 C 147.11 161.03 146.53 162.02 146.79 162.99 Z M 147.04 163.92 L 147.27 164.88 C 147.51 165.85 148.49 166.45 149.46 166.21 C 150.43 165.97 151.02 165.00 150.78 164.03 L 150.55 163.06 C 150.31 162.09 149.34 161.50 148.37 161.74 C 147.40 161.97 146.80 162.95 147.04 163.92 Z M 147.27 164.85 L 147.49 165.84 C 147.71 166.81 148.68 167.42 149.65 167.20 C 150.62 166.98 151.23 166.02 151.01 165.04 L 150.79 164.06 C 150.57 163.08 149.60 162.48 148.63 162.70 C 147.66 162.92 147.05 163.88 147.27 164.85 Z M 147.49 165.82 L 147.70 166.80 C 147.91 167.77 148.87 168.39 149.84 168.18 C 150.81 167.97 151.43 167.01 151.22 166.04 L 151.01 165.06 C 150.80 164.09 149.84 163.47 148.87 163.68 C 147.90 163.89 147.28 164.85 147.49 165.82 Z M 147.71 166.79 L 147.91 167.76 C 148.12 168.73 149.07 169.35 150.04 169.15 C 151.01 168.94 151.63 167.99 151.42 167.02 L 151.22 166.05 C 151.01 165.08 150.06 164.46 149.09 164.67 C 148.12 164.87 147.50 165.82 147.71 166.79 Z M 147.92 167.77 L 148.13 168.74 C 148.34 169.71 149.30 170.32 150.26 170.11 C 151.23 169.90 151.84 168.94 151.63 167.98 L 151.42 167.01 C 151.20 166.04 150.25 165.43 149.29 165.64 C 148.32 165.85 147.71 166.81 147.92 167.77 Z M 148.15 168.76 L 148.37 169.74 C 148.59 170.69 149.54 171.29 150.50 171.07 C 151.46 170.85 152.06 169.90 151.84 168.94 L 151.61 167.96 C 151.39 167.01 150.44 166.41 149.48 166.63 C 148.53 166.85 147.93 167.80 148.15 168.76 Z M 148.39 169.75 L 148.62 170.72 C 148.85 171.67 149.80 172.25 150.74 172.03 C 151.69 171.80 152.27 170.85 152.05 169.91 L 151.82 168.93 C 151.59 167.99 150.64 167.40 149.70 167.63 C 148.75 167.85 148.17 168.80 148.39 169.75 Z M 148.64 170.72 L 148.87 171.69 C 149.10 172.63 150.05 173.20 150.98 172.98 C 151.92 172.75 152.49 171.80 152.27 170.87 L 152.03 169.90 C 151.80 168.96 150.86 168.39 149.92 168.62 C 148.99 168.84 148.41 169.79 148.64 170.72 Z M 148.89 171.69 L 149.12 172.63 C 149.35 173.56 150.29 174.13 151.21 173.90 C 152.14 173.67 152.71 172.73 152.48 171.81 L 152.25 170.87 C 152.02 169.94 151.09 169.37 150.16 169.60 C 149.23 169.83 148.66 170.76 148.89 171.69 Z M 149.14 172.63 L 149.37 173.58 C 149.60 174.50 150.52 175.06 151.44 174.83 C 152.36 174.61 152.92 173.68 152.70 172.76 L 152.46 171.81 C 152.24 170.89 151.31 170.33 150.39 170.55 C 149.47 170.78 148.91 171.71 149.14 172.63 Z M 149.39 173.57 L 149.63 174.56 C 149.85 175.47 150.76 176.03 151.67 175.81 C 152.58 175.59 153.14 174.67 152.92 173.76 L 152.68 172.77 C 152.46 171.86 151.55 171.30 150.64 171.52 C 149.73 171.74 149.17 172.66 149.39 173.57 Z M 149.64 174.55 L 149.87 175.54 C 150.09 176.45 150.99 177.00 151.90 176.79 C 152.80 176.58 153.36 175.67 153.15 174.77 L 152.91 173.77 C 152.70 172.87 151.79 172.31 150.89 172.52 C 149.98 172.74 149.42 173.64 149.64 174.55 Z M 149.88 175.53 L 150.11 176.51 C 150.31 177.41 151.21 177.97 152.11 177.76 C 153.01 177.56 153.57 176.66 153.36 175.76 L 153.14 174.78 C 152.93 173.88 152.03 173.32 151.14 173.53 C 150.24 173.73 149.67 174.63 149.88 175.53 Z M 150.11 176.50 L 150.33 177.49 C 150.53 178.39 151.42 178.95 152.31 178.75 C 153.21 178.55 153.78 177.67 153.58 176.77 L 153.36 175.78 C 153.16 174.88 152.27 174.32 151.38 174.51 C 150.48 174.71 149.91 175.60 150.11 176.50 Z M 150.34 177.47 L 150.54 178.45 C 150.73 179.34 151.61 179.91 152.50 179.72 C 153.40 179.54 153.97 178.66 153.78 177.77 L 153.57 176.79 C 153.38 175.90 152.51 175.33 151.61 175.51 C 150.72 175.70 150.15 176.58 150.34 177.47 Z M 150.55 178.43 L 150.75 179.44 C 150.92 180.33 151.79 180.91 152.68 180.73 C 153.57 180.56 154.15 179.69 153.98 178.80 L 153.78 177.79 C 153.60 176.90 152.73 176.32 151.84 176.49 C 150.95 176.67 150.37 177.54 150.55 178.43 Z M 150.75 179.42 L 150.93 180.42 C 151.09 181.31 151.95 181.90 152.84 181.74 C 153.73 181.57 154.32 180.72 154.16 179.83 L 153.98 178.82 C 153.81 177.93 152.96 177.34 152.07 177.50 C 151.17 177.67 150.58 178.52 150.75 179.42 Z M 150.93 180.40 L 151.09 181.36 C 151.25 182.25 152.10 182.85 152.99 182.70 C 153.88 182.54 154.48 181.69 154.33 180.80 L 154.16 179.84 C 154.01 178.95 153.16 178.35 152.27 178.51 C 151.37 178.66 150.78 179.51 150.93 180.40 Z M 151.09 181.35 L 151.22 182.09 C 151.37 182.98 152.21 183.58 153.10 183.43 C 154.00 183.28 154.60 182.44 154.45 181.54 L 154.33 180.81 C 154.18 179.92 153.33 179.32 152.44 179.47 C 151.55 179.61 150.95 180.46 151.09 181.35 Z"
      fill="black"
      fill-rule="nonzero" /><path d="M 151.40 158.22 L 151.41 157.10 C 151.42 156.13 150.64 155.34 149.67 155.33 C 148.71 155.33 147.91 156.11 147.91 157.07 L 147.90 158.19 C 147.89 159.15 148.67 159.95 149.64 159.95 C 150.60 159.96 151.39 159.18 151.40 158.22 Z M 151.43 157.19 L 151.49 156.14 C 151.55 155.16 150.81 154.32 149.83 154.26 C 148.85 154.20 148.01 154.95 147.95 155.93 L 147.89 156.98 C 147.83 157.96 148.58 158.80 149.55 158.86 C 150.53 158.92 151.37 158.17 151.43 157.19 Z M 151.49 156.35 L 151.66 155.41 C 151.84 154.44 151.19 153.50 150.21 153.32 C 149.24 153.15 148.30 153.79 148.12 154.77 L 147.95 155.71 C 147.78 156.69 148.42 157.62 149.40 157.80 C 150.38 157.98 151.31 157.33 151.49 156.35 Z M 151.56 155.82 L 151.90 155.04 C 152.30 154.12 151.88 153.05 150.96 152.65 C 150.04 152.24 148.97 152.66 148.57 153.58 L 148.23 154.36 C 147.82 155.28 148.24 156.35 149.16 156.76 C 150.08 157.16 151.15 156.74 151.56 155.82 Z M 151.51 155.63 L 152.17 154.99 C 152.89 154.29 152.91 153.13 152.21 152.40 C 151.50 151.68 150.34 151.66 149.62 152.36 L 148.96 153.00 C 148.23 153.70 148.21 154.86 148.92 155.59 C 149.62 156.32 150.78 156.33 151.51 155.63 Z M 151.65 155.35 L 152.53 154.95 C 153.46 154.53 153.87 153.45 153.45 152.52 C 153.03 151.59 151.94 151.18 151.02 151.60 L 150.13 152.00 C 149.21 152.42 148.80 153.51 149.22 154.43 C 149.63 155.36 150.72 155.77 151.65 155.35 Z M 152.20 155.07 L 153.24 154.83 C 154.24 154.60 154.85 153.61 154.62 152.61 C 154.39 151.62 153.40 151.00 152.41 151.24 L 151.36 151.48 C 150.37 151.71 149.75 152.70 149.98 153.70 C 150.21 154.69 151.20 155.31 152.20 155.07 Z M 153.09 154.86 L 154.02 154.73 C 155.03 154.58 155.73 153.64 155.58 152.63 C 155.43 151.62 154.50 150.92 153.49 151.07 L 152.56 151.20 C 151.55 151.35 150.85 152.29 151.00 153.30 C 151.14 154.31 152.08 155.01 153.09 154.86 Z M 153.94 154.74 L 154.89 154.64 C 155.91 154.54 156.65 153.63 156.54 152.61 C 156.44 151.60 155.53 150.86 154.52 150.96 L 153.57 151.06 C 152.55 151.16 151.81 152.07 151.91 153.08 C 152.02 154.10 152.93 154.84 153.94 154.74 Z M 154.83 154.64 L 155.84 154.58 C 156.86 154.51 157.63 153.62 157.56 152.61 C 157.49 151.59 156.61 150.82 155.59 150.89 L 154.58 150.95 C 153.56 151.02 152.79 151.91 152.86 152.93 C 152.93 153.94 153.81 154.71 154.83 154.64 Z M 155.79 154.58 L 156.87 154.53 C 157.89 154.49 158.68 153.63 158.64 152.60 C 158.59 151.58 157.73 150.79 156.71 150.84 L 155.63 150.88 C 154.61 150.93 153.82 151.79 153.87 152.81 C 153.91 153.83 154.77 154.62 155.79 154.58 Z M 156.84 154.53 L 157.80 154.51 C 158.82 154.48 159.63 153.63 159.60 152.61 C 159.58 151.59 158.73 150.78 157.71 150.81 L 156.74 150.84 C 155.72 150.86 154.91 151.71 154.94 152.73 C 154.97 153.75 155.82 154.56 156.84 154.53 Z M 157.77 154.51 L 158.70 154.50 C 159.72 154.49 160.54 153.66 160.53 152.64 C 160.53 151.62 159.69 150.80 158.67 150.81 L 157.74 150.81 C 156.72 150.82 155.90 151.65 155.91 152.67 C 155.91 153.69 156.75 154.51 157.77 154.51 Z M 158.65 154.50 L 159.63 154.52 C 160.64 154.54 161.49 153.73 161.51 152.71 C 161.53 151.69 160.72 150.85 159.70 150.83 L 158.72 150.81 C 157.70 150.79 156.86 151.60 156.84 152.62 C 156.82 153.64 157.63 154.48 158.65 154.50 Z M 159.56 154.51 L 160.58 154.57 C 161.60 154.62 162.47 153.84 162.52 152.82 C 162.58 151.81 161.79 150.94 160.78 150.88 L 159.76 150.83 C 158.74 150.78 157.87 151.56 157.82 152.57 C 157.77 153.59 158.55 154.46 159.56 154.51 Z M 160.51 154.56 L 161.58 154.66 C 162.59 154.75 163.49 154.01 163.58 152.99 C 163.67 151.98 162.93 151.08 161.91 150.99 L 160.85 150.89 C 159.84 150.80 158.94 151.54 158.85 152.56 C 158.75 153.57 159.50 154.47 160.51 154.56 Z M 161.50 154.65 L 162.56 154.79 C 163.56 154.93 164.49 154.22 164.63 153.22 C 164.77 152.21 164.06 151.28 163.05 151.14 L 161.99 151.00 C 160.99 150.86 160.06 151.57 159.92 152.57 C 159.78 153.58 160.49 154.51 161.50 154.65 Z M 162.48 154.78 L 163.48 154.95 C 164.48 155.13 165.43 154.46 165.61 153.46 C 165.79 152.47 165.12 151.51 164.12 151.34 L 163.13 151.16 C 162.13 150.98 161.17 151.65 161.00 152.65 C 160.82 153.65 161.49 154.60 162.48 154.78 Z M 163.42 154.94 L 164.43 155.15 C 165.42 155.36 166.40 154.73 166.60 153.73 C 166.81 152.74 166.18 151.77 165.19 151.56 L 164.18 151.35 C 163.19 151.14 162.22 151.78 162.01 152.77 C 161.80 153.76 162.43 154.73 163.42 154.94 Z M 164.38 155.14 L 165.38 155.38 C 166.37 155.61 167.36 155.01 167.59 154.02 C 167.83 153.04 167.22 152.05 166.24 151.82 L 165.24 151.58 C 164.26 151.34 163.27 151.95 163.03 152.93 C 162.80 153.91 163.40 154.90 164.38 155.14 Z M 165.34 155.36 L 166.32 155.62 C 167.29 155.88 168.29 155.31 168.55 154.33 C 168.81 153.36 168.24 152.36 167.26 152.10 L 166.28 151.83 C 165.31 151.57 164.31 152.15 164.05 153.13 C 163.79 154.10 164.37 155.10 165.34 155.36 Z M 166.28 155.61 L 167.21 155.88 C 168.18 156.17 169.19 155.61 169.47 154.65 C 169.76 153.68 169.21 152.67 168.24 152.39 L 167.30 152.11 C 166.34 151.83 165.33 152.38 165.04 153.34 C 164.76 154.31 165.31 155.32 166.28 155.61 Z M 167.17 155.86 L 168.11 156.17 C 169.06 156.47 170.09 155.95 170.39 154.99 C 170.70 154.04 170.18 153.01 169.22 152.71 L 168.28 152.40 C 167.33 152.10 166.30 152.62 165.99 153.58 C 165.69 154.53 166.21 155.56 167.17 155.86 Z M 168.05 156.14 L 169.12 156.52 C 170.06 156.86 171.09 156.37 171.43 155.43 C 171.77 154.49 171.28 153.45 170.34 153.11 L 169.27 152.73 C 168.33 152.40 167.30 152.89 166.96 153.83 C 166.62 154.77 167.11 155.80 168.05 156.14 Z M 169.05 156.49 L 170.01 156.87 C 170.93 157.24 171.98 156.79 172.35 155.87 C 172.72 154.95 172.27 153.90 171.35 153.53 L 170.40 153.15 C 169.48 152.78 168.43 153.22 168.06 154.15 C 167.69 155.07 168.13 156.11 169.05 156.49 Z M 169.95 156.83 L 170.81 157.22 C 171.71 157.63 172.77 157.23 173.17 156.33 C 173.58 155.43 173.18 154.37 172.28 153.96 L 171.41 153.57 C 170.51 153.17 169.46 153.57 169.05 154.47 C 168.64 155.37 169.05 156.42 169.95 156.83 Z M 170.75 157.18 L 171.55 157.58 C 172.43 158.02 173.49 157.66 173.93 156.78 C 174.37 155.91 174.02 154.84 173.14 154.40 L 172.34 154.00 C 171.46 153.56 170.40 153.92 169.96 154.80 C 169.52 155.67 169.87 156.74 170.75 157.18 Z M 171.49 157.54 L 172.37 158.02 C 173.22 158.49 174.29 158.18 174.76 157.32 C 175.23 156.47 174.92 155.40 174.07 154.93 L 173.20 154.44 C 172.34 153.97 171.27 154.29 170.80 155.14 C 170.33 155.99 170.64 157.07 171.49 157.54 Z M 172.30 157.97 L 173.18 158.50 C 174.00 159.01 175.08 158.75 175.59 157.92 C 176.09 157.10 175.84 156.02 175.01 155.51 L 174.13 154.98 C 173.31 154.47 172.23 154.73 171.72 155.56 C 171.22 156.38 171.48 157.46 172.30 157.97 Z M 173.10 158.44 L 173.91 159.00 C 174.70 159.55 175.79 159.35 176.34 158.56 C 176.88 157.77 176.69 156.68 175.89 156.13 L 175.08 155.57 C 174.29 155.02 173.21 155.22 172.66 156.01 C 172.11 156.81 172.31 157.89 173.10 158.44 Z M 173.83 158.93 L 174.57 159.52 C 175.32 160.11 176.41 159.98 177.01 159.23 C 177.60 158.48 177.47 157.39 176.72 156.80 L 175.98 156.21 C 175.23 155.61 174.14 155.74 173.54 156.49 C 172.95 157.24 173.08 158.33 173.83 158.93 Z M 174.47 159.41 L 175.18 160.08 C 175.87 160.73 176.96 160.70 177.61 160.00 C 178.27 159.31 178.23 158.22 177.54 157.57 L 176.83 156.90 C 176.13 156.25 175.04 156.28 174.39 156.97 C 173.74 157.67 173.77 158.76 174.47 159.41 Z M 175.02 159.90 L 175.64 160.66 C 176.23 161.39 177.31 161.51 178.05 160.91 C 178.78 160.31 178.90 159.23 178.30 158.50 L 177.69 157.74 C 177.09 157.01 176.01 156.89 175.28 157.49 C 174.54 158.09 174.43 159.17 175.02 159.90 Z M 175.47 160.40 L 175.96 161.29 C 176.42 162.12 177.46 162.42 178.28 161.96 C 179.11 161.51 179.41 160.47 178.95 159.64 L 178.46 158.75 C 178.01 157.93 176.97 157.63 176.14 158.08 C 175.32 158.54 175.02 159.58 175.47 160.40 Z M 175.85 161.01 L 176.17 161.96 C 176.47 162.85 177.44 163.33 178.33 163.03 C 179.22 162.73 179.69 161.76 179.39 160.87 L 179.07 159.92 C 178.77 159.03 177.80 158.56 176.91 158.86 C 176.02 159.16 175.55 160.12 175.85 161.01 Z M 176.12 161.74 L 176.31 162.73 C 176.49 163.65 177.37 164.25 178.29 164.07 C 179.21 163.90 179.82 163.01 179.64 162.09 L 179.45 161.10 C 179.27 160.18 178.38 159.58 177.46 159.75 C 176.54 159.93 175.94 160.82 176.12 161.74 Z M 176.29 162.55 L 176.37 163.58 C 176.45 164.51 177.27 165.20 178.20 165.12 C 179.13 165.05 179.82 164.23 179.74 163.30 L 179.66 162.27 C 179.58 161.34 178.76 160.64 177.83 160.72 C 176.90 160.80 176.21 161.62 176.29 162.55 Z M 176.37 163.40 L 176.35 164.41 C 176.33 165.34 177.07 166.11 178.00 166.13 C 178.93 166.15 179.70 165.41 179.72 164.48 L 179.75 163.48 C 179.77 162.54 179.03 161.77 178.09 161.75 C 177.16 161.73 176.39 162.47 176.37 163.40 Z M 176.37 164.19 L 176.22 165.20 C 176.08 166.12 176.72 166.98 177.64 167.11 C 178.56 167.25 179.42 166.62 179.55 165.70 L 179.70 164.69 C 179.84 163.77 179.21 162.91 178.29 162.78 C 177.36 162.64 176.51 163.27 176.37 164.19 Z M 176.28 164.93 L 175.97 165.88 C 175.69 166.76 176.17 167.71 177.06 168.00 C 177.94 168.29 178.89 167.80 179.18 166.92 L 179.49 165.97 C 179.78 165.08 179.29 164.13 178.41 163.84 C 177.52 163.56 176.57 164.04 176.28 164.93 Z M 176.09 165.60 L 175.64 166.46 C 175.20 167.28 175.51 168.30 176.33 168.74 C 177.15 169.17 178.17 168.86 178.61 168.04 L 179.06 167.19 C 179.50 166.37 179.19 165.35 178.37 164.91 C 177.55 164.47 176.53 164.78 176.09 165.60 Z M 175.77 166.25 L 175.18 167.04 C 174.63 167.78 174.78 168.84 175.53 169.39 C 176.28 169.95 177.33 169.79 177.89 169.05 L 178.47 168.25 C 179.03 167.51 178.87 166.45 178.13 165.90 C 177.38 165.34 176.33 165.50 175.77 166.25 Z M 175.29 166.90 L 174.67 167.58 C 174.04 168.27 174.09 169.34 174.77 169.96 C 175.46 170.59 176.52 170.55 177.15 169.86 L 177.78 169.18 C 178.40 168.49 178.36 167.43 177.67 166.80 C 176.99 166.17 175.92 166.22 175.29 166.90 Z M 174.75 167.50 L 174.04 168.17 C 173.36 168.81 173.33 169.87 173.97 170.55 C 174.61 171.23 175.68 171.26 176.35 170.62 L 177.07 169.95 C 177.74 169.31 177.78 168.24 177.14 167.57 C 176.50 166.89 175.43 166.86 174.75 167.50 Z M 174.11 168.10 L 173.32 168.77 C 172.61 169.36 172.52 170.43 173.11 171.14 C 173.71 171.85 174.78 171.95 175.49 171.35 L 176.28 170.69 C 176.99 170.09 177.09 169.02 176.49 168.31 C 175.89 167.60 174.83 167.50 174.11 168.10 Z M 173.38 168.72 L 172.54 169.36 C 171.80 169.92 171.66 170.98 172.22 171.72 C 172.79 172.46 173.85 172.61 174.59 172.04 L 175.43 171.40 C 176.17 170.83 176.31 169.78 175.75 169.03 C 175.18 168.29 174.12 168.15 173.38 168.72 Z M 172.59 169.32 L 171.87 169.83 C 171.11 170.37 170.93 171.42 171.47 172.19 C 172.01 172.95 173.07 173.12 173.83 172.58 L 174.54 172.08 C 175.30 171.54 175.48 170.48 174.94 169.72 C 174.40 168.96 173.35 168.78 172.59 169.32 Z M 171.90 169.80 L 171.14 170.32 C 170.36 170.84 170.16 171.89 170.68 172.67 C 171.20 173.44 172.25 173.65 173.03 173.13 L 173.79 172.61 C 174.57 172.09 174.78 171.04 174.25 170.26 C 173.73 169.49 172.68 169.28 171.90 169.80 Z M 171.17 170.30 L 170.34 170.83 C 169.55 171.34 169.32 172.39 169.83 173.17 C 170.33 173.96 171.38 174.19 172.17 173.68 L 173.00 173.15 C 173.79 172.64 174.02 171.59 173.51 170.80 C 173.00 170.02 171.95 169.79 171.17 170.30 Z M 170.36 170.81 L 169.45 171.37 C 168.66 171.87 168.41 172.92 168.91 173.71 C 169.40 174.51 170.45 174.76 171.25 174.26 L 172.15 173.70 C 172.95 173.20 173.19 172.16 172.70 171.36 C 172.20 170.56 171.16 170.32 170.36 170.81 Z M 169.47 171.36 L 168.47 171.96 C 167.67 172.45 167.41 173.50 167.90 174.30 C 168.39 175.10 169.43 175.36 170.24 174.87 L 171.23 174.27 C 172.03 173.79 172.29 172.74 171.80 171.94 C 171.32 171.13 170.27 170.88 169.47 171.36 Z M 168.48 171.95 L 167.65 172.45 C 166.84 172.93 166.57 173.98 167.06 174.79 C 167.54 175.60 168.59 175.86 169.40 175.38 L 170.23 174.88 C 171.04 174.40 171.30 173.35 170.82 172.54 C 170.34 171.74 169.29 171.47 168.48 171.95 Z M 167.65 172.44 L 166.78 172.96 C 165.96 173.44 165.69 174.49 166.17 175.30 C 166.65 176.12 167.70 176.39 168.52 175.91 L 169.39 175.39 C 170.21 174.91 170.48 173.86 170.00 173.05 C 169.52 172.23 168.47 171.96 167.65 172.44 Z M 166.78 172.95 L 165.89 173.47 C 165.07 173.95 164.79 175.00 165.27 175.82 C 165.75 176.64 166.80 176.92 167.62 176.44 L 168.51 175.92 C 169.33 175.44 169.61 174.39 169.13 173.57 C 168.65 172.75 167.60 172.47 166.78 172.95 Z M 165.89 173.46 L 164.99 173.98 C 164.17 174.46 163.88 175.51 164.36 176.34 C 164.83 177.16 165.89 177.44 166.71 176.97 L 167.61 176.45 C 168.44 175.97 168.72 174.92 168.25 174.09 C 167.77 173.27 166.71 172.99 165.89 173.46 Z M 165.00 173.97 L 164.11 174.47 C 163.28 174.95 162.99 176.00 163.47 176.83 C 163.94 177.66 165.00 177.95 165.83 177.48 L 166.71 176.98 C 167.54 176.50 167.83 175.45 167.36 174.62 C 166.88 173.79 165.83 173.50 165.00 173.97 Z M 164.12 174.46 L 163.27 174.94 C 162.44 175.41 162.14 176.47 162.61 177.30 C 163.08 178.14 164.14 178.44 164.98 177.97 L 165.82 177.49 C 166.66 177.02 166.95 175.96 166.48 175.13 C 166.01 174.29 164.96 173.99 164.12 174.46 Z M 163.28 174.93 L 162.36 175.43 C 161.52 175.90 161.21 176.96 161.68 177.80 C 162.14 178.64 163.20 178.95 164.05 178.48 L 164.97 177.98 C 165.81 177.51 166.12 176.45 165.65 175.61 C 165.19 174.77 164.13 174.46 163.28 174.93 Z M 162.38 175.42 L 161.39 175.95 C 160.53 176.41 160.21 177.47 160.67 178.32 C 161.13 179.17 162.19 179.49 163.04 179.03 L 164.04 178.50 C 164.89 178.04 165.21 176.98 164.75 176.13 C 164.29 175.28 163.23 174.96 162.38 175.42 Z M 161.40 175.93 L 160.50 176.40 C 159.64 176.85 159.31 177.92 159.76 178.78 C 160.21 179.64 161.28 179.97 162.14 179.52 L 163.03 179.05 C 163.90 178.60 164.23 177.53 163.77 176.67 C 163.32 175.81 162.26 175.48 161.40 175.93 Z M 160.51 176.39 L 159.68 176.81 C 158.81 177.26 158.47 178.33 158.92 179.20 C 159.37 180.07 160.44 180.41 161.31 179.96 L 162.13 179.53 C 163.00 179.08 163.34 178.02 162.89 177.15 C 162.44 176.28 161.38 175.94 160.51 176.39 Z M 159.68 176.81 L 158.90 177.21 C 158.03 177.66 157.68 178.73 158.13 179.60 C 158.58 180.48 159.66 180.82 160.53 180.37 L 161.31 179.97 C 162.18 179.52 162.53 178.45 162.08 177.57 C 161.63 176.70 160.55 176.36 159.68 176.81 Z M 158.89 177.20 L 158.01 177.66 C 157.14 178.12 156.80 179.20 157.25 180.07 C 157.71 180.95 158.79 181.29 159.66 180.83 L 160.54 180.38 C 161.42 179.92 161.76 178.84 161.30 177.96 C 160.84 177.09 159.76 176.75 158.89 177.20 Z M 157.99 177.66 L 157.09 178.14 C 156.22 178.60 155.88 179.69 156.35 180.57 C 156.82 181.44 157.90 181.78 158.78 181.31 L 159.68 180.83 C 160.56 180.37 160.89 179.28 160.43 178.40 C 159.96 177.53 158.87 177.19 157.99 177.66 Z M 157.08 178.14 L 156.20 178.61 C 155.33 179.09 155.00 180.18 155.48 181.06 C 155.95 181.94 157.05 182.26 157.92 181.79 L 158.80 181.31 C 159.68 180.84 160.00 179.74 159.53 178.86 C 159.05 177.99 157.95 177.66 157.08 178.14 Z M 156.18 178.61 L 155.34 179.08 C 154.46 179.57 154.15 180.67 154.63 181.55 C 155.12 182.42 156.22 182.74 157.10 182.25 L 157.94 181.79 C 158.82 181.30 159.14 180.20 158.65 179.32 C 158.16 178.44 157.06 178.13 156.18 178.61 Z M 155.32 179.08 L 154.43 179.59 C 153.56 180.09 153.25 181.20 153.75 182.07 C 154.25 182.95 155.36 183.25 156.24 182.75 L 157.12 182.25 C 157.99 181.75 158.30 180.64 157.80 179.77 C 157.30 178.89 156.19 178.59 155.32 179.08 Z M 154.40 179.60 L 153.54 180.11 C 152.67 180.62 152.39 181.74 152.90 182.61 C 153.41 183.48 154.54 183.77 155.40 183.25 L 156.27 182.74 C 157.13 182.23 157.42 181.11 156.91 180.24 C 156.39 179.37 155.27 179.08 154.40 179.60 Z M 153.50 180.13 L 152.67 180.65 C 151.81 181.19 151.55 182.32 152.08 183.18 C 152.62 184.03 153.75 184.29 154.61 183.76 L 155.45 183.24 C 156.30 182.70 156.56 181.57 156.03 180.71 C 155.49 179.85 154.36 179.59 153.50 180.13 Z M 152.61 180.67 L 151.68 181.30 C 150.83 181.87 150.61 183.01 151.18 183.86 C 151.75 184.70 152.89 184.93 153.74 184.36 L 154.67 183.73 C 155.51 183.16 155.73 182.02 155.17 181.17 C 154.60 180.33 153.45 180.11 152.61 180.67 Z M 151.54 181.38 L 150.61 182.13 C 149.81 182.77 149.69 183.94 150.33 184.74 C 150.98 185.54 152.15 185.67 152.95 185.03 L 153.87 184.28 C 154.68 183.64 154.80 182.46 154.16 181.66 C 153.51 180.86 152.34 180.74 151.54 181.38 Z M 150.10 182.72 L 149.81 183.29 C 149.34 184.21 149.71 185.35 150.63 185.82 C 151.56 186.30 152.70 185.93 153.17 185.00 L 153.46 184.43 C 153.93 183.50 153.57 182.37 152.64 181.90 C 151.71 181.42 150.57 181.79 150.10 182.72 Z M 150.68 185.87 L 151.16 186.09 C 152.11 186.53 153.24 186.12 153.68 185.17 C 154.13 184.22 153.72 183.09 152.77 182.65 L 152.30 182.42 C 151.35 181.98 150.21 182.39 149.77 183.34 C 149.32 184.29 149.73 185.42 150.68 185.87 Z M 151.91 186.27 L 152.86 186.29 C 153.91 186.32 154.78 185.50 154.81 184.45 C 154.84 183.40 154.01 182.52 152.96 182.49 L 152.02 182.46 C 150.97 182.43 150.09 183.26 150.06 184.31 C 150.03 185.36 150.86 186.24 151.91 186.27 Z M 153.09 186.29 L 154.32 186.17 C 155.37 186.08 156.13 185.15 156.04 184.10 C 155.94 183.06 155.01 182.29 153.97 182.38 L 152.74 182.50 C 151.69 182.59 150.92 183.52 151.02 184.57 C 151.11 185.62 152.04 186.39 153.09 186.29 Z M 154.44 186.16 L 155.52 185.99 C 156.56 185.82 157.27 184.85 157.10 183.81 C 156.94 182.77 155.96 182.06 154.93 182.23 L 153.84 182.40 C 152.81 182.56 152.10 183.54 152.26 184.58 C 152.43 185.61 153.40 186.32 154.44 186.16 Z M 155.60 185.97 L 156.45 185.80 C 157.48 185.59 158.15 184.59 157.94 183.56 C 157.74 182.53 156.73 181.86 155.70 182.07 L 154.85 182.24 C 153.82 182.45 153.15 183.45 153.36 184.48 C 153.57 185.51 154.57 186.18 155.60 185.97 Z M 156.51 185.79 L 157.40 185.58 C 158.42 185.34 159.06 184.32 158.83 183.30 C 158.59 182.28 157.57 181.64 156.55 181.88 L 155.65 182.08 C 154.63 182.32 153.99 183.34 154.23 184.36 C 154.46 185.39 155.48 186.02 156.51 185.79 Z M 157.44 185.57 L 158.40 185.33 C 159.42 185.07 160.04 184.04 159.78 183.02 C 159.53 182.01 158.50 181.39 157.48 181.64 L 156.51 181.89 C 155.49 182.14 154.88 183.17 155.13 184.19 C 155.39 185.21 156.42 185.83 157.44 185.57 Z M 158.42 185.32 L 159.49 185.04 C 160.51 184.78 161.11 183.74 160.85 182.73 C 160.58 181.71 159.55 181.10 158.53 181.37 L 157.46 181.65 C 156.45 181.91 155.84 182.95 156.11 183.96 C 156.37 184.98 157.41 185.59 158.42 185.32 Z M 159.50 185.04 L 160.62 184.74 C 161.63 184.48 162.23 183.44 161.97 182.43 C 161.70 181.42 160.66 180.81 159.65 181.08 L 158.53 181.37 C 157.52 181.64 156.91 182.68 157.18 183.69 C 157.45 184.70 158.48 185.31 159.50 185.04 Z M 160.61 184.74 L 161.55 184.50 C 162.56 184.23 163.17 183.20 162.90 182.19 C 162.64 181.18 161.60 180.57 160.59 180.84 L 159.66 181.08 C 158.64 181.35 158.04 182.38 158.30 183.39 C 158.57 184.40 159.60 185.01 160.61 184.74 Z M 161.55 184.49 L 162.54 184.23 C 163.54 183.97 164.15 182.94 163.89 181.93 C 163.62 180.92 162.59 180.32 161.59 180.58 L 160.60 180.84 C 159.59 181.10 158.98 182.13 159.25 183.14 C 159.51 184.15 160.54 184.75 161.55 184.49 Z M 162.53 184.23 L 163.55 183.96 C 164.56 183.70 165.16 182.68 164.90 181.67 C 164.64 180.67 163.61 180.06 162.61 180.32 L 161.59 180.59 C 160.58 180.85 159.98 181.88 160.24 182.88 C 160.50 183.88 161.53 184.49 162.53 184.23 Z M 163.55 183.96 L 164.57 183.69 C 165.57 183.43 166.17 182.41 165.91 181.41 C 165.65 180.41 164.63 179.81 163.63 180.07 L 162.61 180.33 C 161.61 180.59 161.00 181.61 161.26 182.61 C 161.52 183.62 162.55 184.22 163.55 183.96 Z M 164.57 183.69 L 165.57 183.43 C 166.57 183.17 167.17 182.15 166.91 181.15 C 166.65 180.15 165.63 179.55 164.63 179.81 L 163.63 180.07 C 162.63 180.33 162.03 181.35 162.29 182.35 C 162.55 183.35 163.57 183.95 164.57 183.69 Z M 165.56 183.42 L 166.52 183.18 C 167.52 182.92 168.12 181.90 167.86 180.91 C 167.60 179.91 166.59 179.31 165.59 179.57 L 164.63 179.82 C 163.64 180.08 163.04 181.09 163.30 182.09 C 163.55 183.08 164.57 183.68 165.56 183.42 Z M 166.52 183.17 L 167.41 182.94 C 168.40 182.69 169.00 181.67 168.74 180.68 C 168.49 179.69 167.48 179.09 166.48 179.35 L 165.59 179.58 C 164.60 179.83 164.00 180.85 164.26 181.84 C 164.52 182.83 165.53 183.43 166.52 183.17 Z M 167.41 182.92 L 168.60 182.62 C 169.58 182.36 170.17 181.36 169.92 180.38 C 169.67 179.39 168.66 178.80 167.68 179.06 L 166.49 179.36 C 165.50 179.62 164.91 180.62 165.17 181.60 C 165.42 182.59 166.42 183.18 167.41 182.92 Z M 168.59 182.58 L 169.67 182.30 C 170.63 182.05 171.21 181.07 170.96 180.10 C 170.71 179.14 169.73 178.56 168.76 178.81 L 167.69 179.09 C 166.72 179.34 166.14 180.32 166.39 181.29 C 166.64 182.25 167.63 182.83 168.59 182.58 Z M 169.66 182.27 L 170.58 182.03 C 171.52 181.78 172.09 180.81 171.84 179.87 C 171.59 178.92 170.63 178.36 169.68 178.61 L 168.77 178.85 C 167.82 179.09 167.25 180.06 167.50 181.01 C 167.75 181.95 168.72 182.52 169.66 182.27 Z M 170.58 181.99 L 171.39 181.78 C 172.31 181.53 172.86 180.58 172.62 179.65 C 172.37 178.73 171.42 178.18 170.49 178.43 L 169.68 178.64 C 168.76 178.89 168.21 179.84 168.45 180.76 C 168.70 181.69 169.65 182.24 170.58 181.99 Z M 171.39 181.74 L 172.22 181.52 C 173.12 181.27 173.66 180.33 173.41 179.43 C 173.16 178.52 172.23 177.98 171.32 178.23 L 170.49 178.46 C 169.58 178.71 169.05 179.64 169.30 180.55 C 169.55 181.46 170.48 181.99 171.39 181.74 Z M 172.23 181.49 L 173.20 181.22 C 174.09 180.97 174.61 180.04 174.36 179.14 C 174.11 178.25 173.18 177.73 172.28 177.98 L 171.31 178.25 C 170.42 178.51 169.90 179.44 170.15 180.33 C 170.40 181.23 171.33 181.75 172.23 181.49 Z M 173.21 181.21 L 174.16 180.93 C 175.05 180.67 175.56 179.74 175.30 178.85 C 175.04 177.97 174.11 177.46 173.22 177.72 L 172.27 178.00 C 171.38 178.25 170.87 179.18 171.13 180.07 C 171.39 180.96 172.32 181.46 173.21 181.21 Z M 174.17 180.91 L 175.12 180.63 C 176.00 180.36 176.50 179.44 176.23 178.56 C 175.97 177.68 175.04 177.18 174.16 177.45 L 173.21 177.73 C 172.33 178.00 171.84 178.92 172.10 179.80 C 172.36 180.68 173.29 181.18 174.17 180.91 Z M 175.13 180.62 L 176.08 180.32 C 176.95 180.05 177.44 179.13 177.17 178.26 C 176.90 177.38 175.97 176.89 175.10 177.16 L 174.15 177.46 C 173.28 177.73 172.79 178.65 173.06 179.52 C 173.33 180.40 174.26 180.89 175.13 180.62 Z M 176.08 180.32 L 177.03 180.02 C 177.90 179.75 178.39 178.83 178.12 177.96 C 177.85 177.09 176.92 176.60 176.05 176.87 L 175.10 177.17 C 174.23 177.44 173.74 178.36 174.01 179.23 C 174.28 180.10 175.21 180.59 176.08 180.32 Z M 177.03 180.02 L 177.99 179.72 C 178.86 179.45 179.35 178.53 179.08 177.66 C 178.81 176.80 177.89 176.31 177.02 176.58 L 176.06 176.87 C 175.19 177.14 174.70 178.06 174.97 178.93 C 175.24 179.80 176.16 180.29 177.03 180.02 Z M 177.98 179.72 L 178.90 179.45 C 179.77 179.19 180.26 178.27 180.00 177.40 C 179.74 176.53 178.82 176.04 177.95 176.30 L 177.03 176.58 C 176.16 176.84 175.67 177.75 175.93 178.62 C 176.19 179.49 177.11 179.98 177.98 179.72 Z M 178.88 179.45 L 179.76 179.20 C 180.64 178.94 181.14 178.04 180.89 177.16 C 180.64 176.29 179.73 175.79 178.86 176.04 L 177.97 176.30 C 177.10 176.55 176.60 177.46 176.85 178.33 C 177.10 179.20 178.01 179.70 178.88 179.45 Z M 179.74 179.20 L 180.69 178.94 C 181.56 178.71 182.08 177.81 181.84 176.93 C 181.60 176.06 180.70 175.54 179.83 175.78 L 178.88 176.04 C 178.01 176.27 177.49 177.17 177.73 178.05 C 177.96 178.92 178.87 179.44 179.74 179.20 Z M 180.66 178.95 L 181.70 178.68 C 182.58 178.46 183.11 177.57 182.89 176.69 C 182.67 175.82 181.78 175.29 180.90 175.51 L 179.85 175.77 C 178.98 176.00 178.45 176.89 178.67 177.76 C 178.89 178.64 179.78 179.17 180.66 178.95 Z M 181.68 178.69 L 182.64 178.46 C 183.52 178.25 184.06 177.37 183.85 176.49 C 183.65 175.61 182.76 175.07 181.88 175.28 L 180.92 175.50 C 180.04 175.71 179.50 176.60 179.71 177.48 C 179.92 178.36 180.80 178.90 181.68 178.69 Z M 182.63 178.46 L 183.54 178.25 C 184.42 178.05 184.97 177.18 184.77 176.29 C 184.57 175.41 183.69 174.86 182.81 175.06 L 181.90 175.27 C 181.02 175.47 180.46 176.35 180.67 177.23 C 180.87 178.11 181.75 178.67 182.63 178.46 Z M 183.53 178.26 L 184.50 178.04 C 185.38 177.85 185.94 176.97 185.75 176.09 C 185.55 175.21 184.67 174.65 183.79 174.85 L 182.82 175.06 C 181.94 175.26 181.38 176.13 181.58 177.01 C 181.77 177.90 182.65 178.45 183.53 178.26 Z M 184.50 178.04 L 185.51 177.82 C 186.39 177.63 186.95 176.76 186.76 175.87 C 186.56 174.99 185.69 174.43 184.81 174.62 L 183.80 174.84 C 182.92 175.04 182.36 175.91 182.55 176.79 C 182.74 177.68 183.61 178.24 184.50 178.04 Z M 185.50 177.82 L 186.54 177.60 C 187.42 177.41 187.98 176.54 187.79 175.66 C 187.60 174.77 186.73 174.21 185.85 174.40 L 184.81 174.62 C 183.93 174.81 183.37 175.68 183.56 176.57 C 183.75 177.45 184.62 178.01 185.50 177.82 Z M 186.54 177.60 L 187.26 177.45 C 188.14 177.26 188.71 176.39 188.52 175.50 C 188.33 174.62 187.46 174.06 186.57 174.24 L 185.85 174.40 C 184.97 174.59 184.40 175.46 184.59 176.34 C 184.78 177.23 185.65 177.79 186.54 177.60 Z"
      fill="black"
      fill-rule="nonzero" /></svg>