<svg xmlns="http://www.w3.org/2000/svg" width="300" height="300" viewBox="0 0 300 300">
<path d="M 119.49 109.81 L 120.30 109.78 C 121.27 109.74 122.02 108.92 121.98 107.95 C 121.94 106.98 121.12 106.22 120.15 106.26 L 119.34 106.30 C 118.37 106.34 117.61 107.16 117.66 108.13 C 117.70 109.10 118.52 109.85 119.49 109.81 Z M 120.33 109.78 L 121.21 109.73 C 122.18 109.67 122.92 108.83 122.86 107.86 C 122.80 106.88 121.96 106.14 120.99 106.20 L 120.11 106.26 C 119.14 106.32 118.40 107.16 118.46 108.13 C 118.52 109.10 119.36 109.85 120.33 109.78 Z M 121.26 109.74 L 122.26 109.64 C 123.24 109.55 123.96 108.68 123.86 107.71 C 123.77 106.73 122.91 106.01 121.93 106.10 L 120.93 106.20 C 119.95 106.29 119.24 107.16 119.33 108.13 C 119.42 109.11 120.29 109.83 121.26 109.74 Z M 122.32 109.64 L 123.51 109.49 C 124.49 109.36 125.18 108.47 125.05 107.49 C 124.93 106.51 124.03 105.82 123.06 105.95 L 121.87 106.10 C 120.89 106.23 120.20 107.12 120.33 108.10 C 120.45 109.08 121.35 109.77 122.32 109.64 Z M 123.56 109.49 L 124.57 109.33 C 125.54 109.18 126.21 108.26 126.06 107.28 C 125.90 106.31 124.99 105.64 124.01 105.79 L 123.01 105.95 C 122.03 106.10 121.36 107.02 121.51 108.00 C 121.67 108.97 122.58 109.64 123.56 109.49 Z M 124.59 109.33 L 125.51 109.17 C 126.49 109.00 127.14 108.07 126.97 107.10 C 126.80 106.12 125.87 105.46 124.90 105.63 L 123.98 105.79 C 123.00 105.96 122.35 106.89 122.52 107.87 C 122.69 108.85 123.62 109.50 124.59 109.33 Z M 125.53 109.17 L 126.50 108.99 C 127.48 108.81 128.13 107.88 127.95 106.90 C 127.77 105.92 126.83 105.28 125.86 105.46 L 124.88 105.63 C 123.90 105.81 123.26 106.75 123.43 107.73 C 123.61 108.70 124.55 109.35 125.53 109.17 Z M 126.52 108.99 L 127.53 108.80 C 128.51 108.62 129.15 107.67 128.97 106.69 C 128.78 105.72 127.84 105.08 126.86 105.26 L 125.84 105.45 C 124.87 105.64 124.22 106.58 124.41 107.56 C 124.60 108.54 125.54 109.18 126.52 108.99 Z M 127.54 108.80 L 128.58 108.60 C 129.56 108.41 130.19 107.46 130.00 106.48 C 129.81 105.51 128.86 104.87 127.89 105.06 L 126.85 105.26 C 125.87 105.45 125.23 106.40 125.42 107.38 C 125.61 108.36 126.56 108.99 127.54 108.80 Z M 128.58 108.60 L 129.62 108.40 C 130.60 108.21 131.23 107.25 131.04 106.27 C 130.85 105.29 129.89 104.66 128.91 104.85 L 127.88 105.06 C 126.90 105.25 126.26 106.20 126.46 107.18 C 126.65 108.16 127.60 108.80 128.58 108.60 Z M 129.62 108.40 L 130.63 108.20 C 131.61 108.01 132.25 107.05 132.05 106.07 C 131.86 105.09 130.90 104.45 129.92 104.65 L 128.91 104.85 C 127.93 105.04 127.29 106.00 127.49 106.98 C 127.68 107.96 128.64 108.60 129.62 108.40 Z M 130.63 108.20 L 131.70 107.99 C 132.68 107.80 133.32 106.84 133.12 105.86 C 132.93 104.88 131.97 104.24 130.99 104.43 L 129.92 104.64 C 128.94 104.84 128.30 105.79 128.50 106.78 C 128.69 107.76 129.65 108.40 130.63 108.20 Z M 131.69 107.99 L 132.83 107.77 C 133.81 107.58 134.46 106.62 134.26 105.64 C 134.07 104.66 133.11 104.01 132.13 104.21 L 130.99 104.43 C 130.01 104.62 129.37 105.58 129.56 106.56 C 129.76 107.55 130.71 108.19 131.69 107.99 Z M 132.83 107.77 L 133.88 107.57 C 134.87 107.37 135.51 106.42 135.32 105.44 C 135.13 104.45 134.17 103.81 133.19 104.00 L 132.13 104.21 C 131.15 104.40 130.51 105.35 130.70 106.34 C 130.89 107.32 131.84 107.96 132.83 107.77 Z M 133.88 107.57 L 134.86 107.38 C 135.84 107.19 136.48 106.23 136.29 105.25 C 136.10 104.27 135.15 103.62 134.17 103.81 L 133.19 104.00 C 132.21 104.19 131.56 105.14 131.75 106.13 C 131.95 107.11 132.90 107.76 133.88 107.57 Z M 134.86 107.38 L 135.76 107.20 C 136.74 107.01 137.38 106.06 137.19 105.08 C 137.00 104.09 136.05 103.45 135.07 103.64 L 134.17 103.81 C 133.18 104.00 132.54 104.95 132.73 105.94 C 132.92 106.92 133.87 107.57 134.86 107.38 Z M 135.76 107.20 L 136.59 107.04 C 137.57 106.85 138.21 105.90 138.02 104.92 C 137.83 103.93 136.88 103.29 135.90 103.48 L 135.07 103.64 C 134.09 103.83 133.44 104.78 133.63 105.77 C 133.82 106.75 134.77 107.39 135.76 107.20 Z M 136.59 107.04 L 137.59 106.84 C 138.57 106.65 139.21 105.70 139.02 104.72 C 138.83 103.74 137.88 103.10 136.90 103.29 L 135.90 103.48 C 134.91 103.67 134.27 104.62 134.46 105.61 C 134.66 106.59 135.61 107.23 136.59 107.04 Z M 137.59 106.84 L 138.63 106.63 C 139.61 106.44 140.24 105.49 140.05 104.51 C 139.86 103.53 138.91 102.90 137.93 103.09 L 136.90 103.29 C 135.92 103.49 135.28 104.44 135.47 105.41 C 135.67 106.39 136.61 107.03 137.59 106.84 Z M 138.63 106.63 L 139.57 106.44 C 140.54 106.24 141.18 105.30 140.98 104.32 C 140.79 103.35 139.84 102.72 138.87 102.91 L 137.93 103.10 C 136.95 103.29 136.32 104.24 136.52 105.21 C 136.71 106.19 137.66 106.82 138.63 106.63 Z M 139.57 106.43 L 140.46 106.25 C 141.43 106.05 142.05 105.11 141.86 104.14 C 141.66 103.17 140.72 102.54 139.75 102.74 L 138.86 102.92 C 137.89 103.12 137.27 104.06 137.46 105.03 C 137.66 106.00 138.60 106.63 139.57 106.43 Z M 140.46 106.24 L 141.43 106.05 C 142.40 105.85 143.02 104.90 142.83 103.94 C 142.63 102.97 141.68 102.35 140.72 102.55 L 139.74 102.75 C 138.78 102.94 138.16 103.89 138.35 104.85 C 138.55 105.82 139.49 106.44 140.46 106.24 Z M 141.43 106.04 L 142.41 105.84 C 143.38 105.65 144.00 104.71 143.80 103.74 C 143.61 102.78 142.67 102.16 141.70 102.35 L 140.72 102.55 C 139.76 102.75 139.14 103.69 139.33 104.65 C 139.53 105.61 140.47 106.24 141.43 106.04 Z M 142.40 105.84 L 143.38 105.65 C 144.34 105.46 144.97 104.52 144.78 103.56 C 144.59 102.60 143.65 101.97 142.69 102.16 L 141.71 102.35 C 140.75 102.54 140.12 103.48 140.31 104.44 C 140.50 105.40 141.44 106.03 142.40 105.84 Z M 143.36 105.65 L 144.34 105.46 C 145.30 105.28 145.94 104.36 145.76 103.40 C 145.58 102.43 144.65 101.80 143.69 101.98 L 142.71 102.16 C 141.75 102.34 141.11 103.27 141.29 104.23 C 141.47 105.19 142.40 105.83 143.36 105.65 Z M 144.33 105.46 L 145.32 105.28 C 146.28 105.11 146.92 104.19 146.75 103.23 C 146.57 102.27 145.65 101.63 144.69 101.80 L 143.71 101.98 C 142.74 102.15 142.10 103.07 142.28 104.03 C 142.45 104.99 143.37 105.63 144.33 105.46 Z M 145.32 105.28 L 146.30 105.10 C 147.26 104.93 147.89 104.01 147.72 103.05 C 147.55 102.10 146.63 101.46 145.67 101.63 L 144.69 101.81 C 143.73 101.98 143.10 102.90 143.27 103.86 C 143.44 104.82 144.36 105.45 145.32 105.28 Z M 146.31 105.10 L 147.30 104.91 C 148.25 104.73 148.88 103.81 148.70 102.85 C 148.51 101.90 147.59 101.27 146.64 101.45 L 145.66 101.64 C 144.70 101.82 144.08 102.74 144.26 103.70 C 144.44 104.65 145.36 105.28 146.31 105.10 Z M 147.31 104.90 L 148.30 104.70 C 149.25 104.51 149.86 103.58 149.67 102.64 C 149.48 101.69 148.55 101.07 147.60 101.26 L 146.62 101.46 C 145.67 101.65 145.06 102.58 145.25 103.53 C 145.44 104.48 146.36 105.09 147.31 104.90 Z M 148.30 104.70 L 149.28 104.50 C 150.23 104.30 150.84 103.38 150.64 102.43 C 150.45 101.48 149.52 100.87 148.58 101.07 L 147.60 101.27 C 146.65 101.46 146.04 102.39 146.24 103.33 C 146.43 104.28 147.36 104.89 148.30 104.70 Z M 149.27 104.49 L 150.24 104.30 C 151.19 104.11 151.80 103.19 151.62 102.25 C 151.43 101.30 150.51 100.69 149.57 100.88 L 148.59 101.07 C 147.64 101.26 147.03 102.18 147.22 103.12 C 147.40 104.07 148.32 104.68 149.27 104.49 Z M 150.22 104.30 L 151.21 104.12 C 152.15 103.94 152.77 103.03 152.60 102.09 C 152.42 101.15 151.52 100.52 150.57 100.70 L 149.59 100.88 C 148.64 101.05 148.02 101.96 148.19 102.90 C 148.37 103.85 149.28 104.47 150.22 104.30 Z M 151.18 104.12 L 152.17 103.95 C 153.11 103.79 153.75 102.89 153.58 101.95 C 153.42 101.00 152.53 100.37 151.58 100.53 L 150.60 100.70 C 149.65 100.86 149.02 101.75 149.18 102.70 C 149.34 103.64 150.24 104.28 151.18 104.12 Z M 152.14 103.95 L 153.13 103.79 C 154.07 103.64 154.72 102.76 154.57 101.81 C 154.42 100.87 153.53 100.23 152.59 100.37 L 151.61 100.53 C 150.66 100.68 150.02 101.56 150.17 102.51 C 150.31 103.45 151.20 104.09 152.14 103.95 Z M 153.11 103.79 L 154.09 103.65 C 155.03 103.51 155.69 102.63 155.55 101.69 C 155.41 100.75 154.53 100.10 153.59 100.23 L 152.61 100.38 C 151.67 100.51 151.02 101.39 151.15 102.33 C 151.29 103.27 152.17 103.93 153.11 103.79 Z M 154.09 103.64 L 155.08 103.50 C 156.02 103.36 156.67 102.48 156.53 101.54 C 156.39 100.60 155.52 99.95 154.58 100.09 L 153.59 100.24 C 152.65 100.38 152.00 101.25 152.14 102.19 C 152.28 103.13 153.15 103.78 154.09 103.64 Z M 155.10 103.49 L 156.09 103.33 C 157.02 103.18 157.66 102.30 157.51 101.36 C 157.36 100.43 156.48 99.79 155.54 99.94 L 154.56 100.10 C 153.62 100.25 152.99 101.13 153.14 102.07 C 153.29 103.00 154.17 103.64 155.10 103.49 Z M 156.12 103.32 L 156.94 103.17 C 157.87 103.00 158.49 102.11 158.32 101.18 C 158.16 100.25 157.27 99.64 156.34 99.80 L 155.51 99.95 C 154.58 100.12 153.97 101.01 154.13 101.94 C 154.30 102.87 155.19 103.49 156.12 103.32 Z M 156.96 103.16 L 157.86 102.99 C 158.78 102.82 159.39 101.92 159.22 101.00 C 159.04 100.07 158.15 99.47 157.22 99.64 L 156.32 99.81 C 155.40 99.99 154.79 100.88 154.96 101.80 C 155.14 102.73 156.03 103.34 156.96 103.16 Z M 157.86 102.99 L 158.90 102.79 C 159.82 102.61 160.43 101.72 160.25 100.80 C 160.08 99.88 159.19 99.27 158.26 99.45 L 157.22 99.65 C 156.30 99.82 155.69 100.71 155.87 101.63 C 156.04 102.56 156.93 103.16 157.86 102.99 Z M 158.89 102.79 L 160.04 102.57 C 160.96 102.40 161.57 101.52 161.40 100.60 C 161.23 99.68 160.35 99.07 159.43 99.24 L 158.27 99.45 C 157.35 99.62 156.74 100.51 156.91 101.43 C 157.08 102.35 157.97 102.96 158.89 102.79 Z M 160.03 102.57 L 160.94 102.41 C 161.86 102.24 162.47 101.37 162.30 100.45 C 162.14 99.53 161.26 98.91 160.34 99.08 L 159.44 99.24 C 158.52 99.41 157.90 100.28 158.07 101.20 C 158.23 102.12 159.11 102.74 160.03 102.57 Z M 160.93 102.41 L 161.91 102.23 C 162.83 102.07 163.44 101.19 163.28 100.28 C 163.12 99.36 162.24 98.75 161.32 98.91 L 160.35 99.08 C 159.43 99.24 158.81 100.12 158.98 101.04 C 159.14 101.96 160.02 102.57 160.93 102.41 Z M 161.91 102.23 L 162.93 102.05 C 163.85 101.89 164.46 101.01 164.29 100.10 C 164.13 99.18 163.26 98.57 162.34 98.73 L 161.32 98.91 C 160.40 99.07 159.79 99.95 159.96 100.87 C 160.12 101.78 160.99 102.39 161.91 102.23 Z M 162.93 102.05 L 163.97 101.86 C 164.88 101.69 165.49 100.82 165.32 99.91 C 165.16 98.99 164.28 98.38 163.37 98.55 L 162.34 98.73 C 161.42 98.90 160.81 99.77 160.98 100.69 C 161.14 101.60 162.02 102.21 162.93 102.05 Z M 163.97 101.86 L 164.99 101.67 C 165.90 101.50 166.50 100.62 166.34 99.71 C 166.17 98.80 165.29 98.20 164.38 98.37 L 163.36 98.55 C 162.45 98.72 161.85 99.60 162.02 100.51 C 162.18 101.42 163.06 102.02 163.97 101.86 Z M 165.00 101.66 L 166.05 101.46 C 166.95 101.29 167.55 100.41 167.37 99.50 C 167.20 98.59 166.32 98.00 165.41 98.17 L 164.37 98.37 C 163.46 98.55 162.86 99.42 163.04 100.33 C 163.21 101.24 164.09 101.84 165.00 101.66 Z M 166.07 101.45 L 167.47 101.16 C 168.37 100.97 168.95 100.09 168.77 99.18 C 168.58 98.28 167.70 97.70 166.79 97.89 L 165.39 98.18 C 164.49 98.37 163.91 99.25 164.09 100.15 C 164.28 101.06 165.17 101.64 166.07 101.45 Z M 167.52 101.14 L 168.63 100.87 C 169.52 100.66 170.07 99.76 169.85 98.87 C 169.64 97.98 168.75 97.43 167.86 97.64 L 166.75 97.91 C 165.86 98.12 165.31 99.02 165.52 99.91 C 165.73 100.80 166.63 101.35 167.52 101.14 Z M 168.74 100.83 L 169.45 100.61 C 170.32 100.33 170.80 99.41 170.52 98.54 C 170.25 97.67 169.32 97.19 168.46 97.46 L 167.75 97.69 C 166.88 97.96 166.39 98.89 166.67 99.75 C 166.94 100.62 167.87 101.11 168.74 100.83 Z M 170.15 100.15 L 170.33 99.96 C 170.95 99.30 170.92 98.26 170.25 97.64 C 169.59 97.02 168.55 97.06 167.93 97.72 L 167.75 97.92 C 167.13 98.58 167.17 99.62 167.83 100.23 C 168.49 100.85 169.53 100.82 170.15 100.15 Z M 169.42 97.23 L 168.65 97.09 C 167.75 96.93 166.91 97.53 166.75 98.42 C 166.59 99.31 167.18 100.16 168.07 100.31 L 168.85 100.45 C 169.74 100.61 170.59 100.02 170.75 99.12 C 170.90 98.23 170.31 97.38 169.42 97.23 Z M 168.44 97.07 L 167.10 97.00 C 166.20 96.96 165.43 97.65 165.39 98.55 C 165.34 99.46 166.04 100.23 166.94 100.27 L 168.28 100.34 C 169.18 100.38 169.95 99.69 170.00 98.78 C 170.04 97.88 169.34 97.11 168.44 97.07 Z"
      fill="black"
      fill-rule="nonzero" /><path d="M 138.90 98.82 L 138.62 99.74 C 138.36 100.62 138.85 101.55 139.74 101.82 C 140.62 102.09 141.55 101.59 141.82 100.71 L 142.10 99.78 C 142.36 98.90 141.86 97.97 140.98 97.70 C 140.10 97.44 139.17 97.93 138.90 98.82 Z M 138.60 99.78 L 138.34 100.73 C 138.09 101.62 138.62 102.55 139.51 102.79 C 140.41 103.04 141.34 102.51 141.58 101.62 L 141.84 100.67 C 142.09 99.77 141.56 98.85 140.67 98.60 C 139.77 98.36 138.84 98.88 138.60 99.78 Z M 138.30 100.80 L 138.08 101.79 C 137.88 102.71 138.45 103.61 139.37 103.82 C 140.29 104.02 141.19 103.44 141.40 102.53 L 141.62 101.54 C 141.82 100.62 141.24 99.72 140.33 99.51 C 139.41 99.31 138.50 99.89 138.30 100.80 Z M 138.05 101.90 L 137.89 102.92 C 137.75 103.85 138.39 104.73 139.33 104.87 C 140.26 105.01 141.14 104.37 141.28 103.44 L 141.43 102.42 C 141.58 101.48 140.93 100.61 140.00 100.46 C 139.06 100.32 138.19 100.96 138.05 101.90 Z M 137.87 103.03 L 137.79 104.03 C 137.71 104.97 138.41 105.80 139.36 105.88 C 140.30 105.96 141.13 105.26 141.21 104.31 L 141.30 103.32 C 141.38 102.38 140.67 101.54 139.73 101.46 C 138.78 101.38 137.95 102.09 137.87 103.03 Z M 137.78 104.11 L 137.75 105.13 C 137.72 106.08 138.46 106.87 139.41 106.90 C 140.36 106.94 141.15 106.19 141.18 105.24 L 141.22 104.23 C 141.25 103.28 140.51 102.48 139.56 102.45 C 138.61 102.42 137.81 103.16 137.78 104.11 Z M 137.75 105.20 L 137.75 106.21 C 137.76 107.16 138.53 107.92 139.48 107.92 C 140.43 107.91 141.20 107.14 141.19 106.19 L 141.19 105.18 C 141.18 104.23 140.40 103.46 139.46 103.47 C 138.51 103.47 137.74 104.25 137.75 105.20 Z M 137.76 106.26 L 137.79 107.25 C 137.83 108.20 138.63 108.94 139.58 108.90 C 140.52 108.87 141.26 108.07 141.23 107.12 L 141.19 106.13 C 141.15 105.18 140.35 104.44 139.41 104.48 C 138.46 104.52 137.72 105.32 137.76 106.26 Z M 137.81 107.31 L 137.88 108.36 C 137.95 109.30 138.77 110.01 139.71 109.94 C 140.65 109.87 141.36 109.05 141.29 108.11 L 141.21 107.06 C 141.14 106.12 140.33 105.42 139.39 105.49 C 138.45 105.55 137.74 106.37 137.81 107.31 Z M 137.91 108.44 L 138.04 109.43 C 138.15 110.36 138.99 111.01 139.92 110.90 C 140.84 110.78 141.50 109.94 141.38 109.01 L 141.26 108.02 C 141.14 107.10 140.30 106.44 139.38 106.56 C 138.45 106.68 137.80 107.52 137.91 108.44 Z M 138.07 109.55 L 138.26 110.49 C 138.44 111.40 139.32 111.99 140.22 111.81 C 141.13 111.63 141.71 110.75 141.53 109.85 L 141.35 108.90 C 141.17 107.99 140.29 107.41 139.39 107.59 C 138.48 107.76 137.89 108.64 138.07 109.55 Z M 138.31 110.63 L 138.58 111.56 C 138.83 112.44 139.75 112.94 140.62 112.69 C 141.50 112.44 142.01 111.52 141.75 110.64 L 141.48 109.71 C 141.23 108.84 140.32 108.33 139.44 108.58 C 138.56 108.84 138.06 109.75 138.31 110.63 Z M 138.63 111.68 L 138.97 112.61 C 139.29 113.46 140.24 113.89 141.09 113.57 C 141.94 113.25 142.37 112.30 142.05 111.45 L 141.71 110.52 C 141.39 109.67 140.44 109.24 139.59 109.56 C 138.74 109.88 138.31 110.83 138.63 111.68 Z M 139.01 112.68 L 139.41 113.60 C 139.77 114.44 140.73 114.82 141.56 114.46 C 142.40 114.10 142.78 113.13 142.42 112.30 L 142.02 111.38 C 141.66 110.55 140.69 110.16 139.86 110.52 C 139.03 110.88 138.65 111.85 139.01 112.68 Z M 139.42 113.64 L 139.85 114.55 C 140.22 115.38 141.20 115.74 142.02 115.36 C 142.84 114.98 143.20 114.01 142.82 113.19 L 142.40 112.27 C 142.03 111.45 141.05 111.08 140.23 111.46 C 139.41 111.84 139.05 112.81 139.42 113.64 Z M 139.85 114.55 L 140.26 115.46 C 140.64 116.29 141.61 116.65 142.43 116.27 C 143.25 115.90 143.62 114.93 143.24 114.10 L 142.82 113.19 C 142.45 112.37 141.48 112.01 140.65 112.38 C 139.83 112.76 139.47 113.73 139.85 114.55 Z M 140.26 115.45 L 140.67 116.37 C 141.04 117.19 142.01 117.56 142.83 117.19 C 143.66 116.82 144.02 115.85 143.65 115.03 L 143.25 114.11 C 142.88 113.29 141.91 112.92 141.08 113.29 C 140.26 113.66 139.89 114.63 140.26 115.45 Z M 140.66 116.36 L 141.07 117.27 C 141.43 118.10 142.40 118.47 143.23 118.11 C 144.05 117.74 144.43 116.77 144.06 115.95 L 143.66 115.03 C 143.29 114.21 142.33 113.83 141.50 114.20 C 140.67 114.57 140.30 115.53 140.66 116.36 Z M 141.07 117.27 L 141.39 118.00 C 141.75 118.83 142.72 119.20 143.55 118.84 C 144.37 118.48 144.75 117.51 144.38 116.68 L 144.06 115.95 C 143.70 115.12 142.73 114.75 141.91 115.11 C 141.08 115.48 140.70 116.44 141.07 117.27 Z"
      fill="black"
      fill-rule="nonzero" /><path d="M 151.02 92.94 L 151.09 93.90 C 151.17 94.90 152.04 95.65 153.04 95.57 C 154.04 95.50 154.79 94.63 154.72 93.63 L 154.65 92.66 C 154.57 91.66 153.70 90.91 152.70 90.99 C 151.69 91.06 150.94 91.93 151.02 92.94 Z M 151.09 93.89 L 151.16 94.87 C 151.23 95.87 152.09 96.63 153.10 96.56 C 154.10 96.49 154.86 95.62 154.79 94.62 L 154.72 93.64 C 154.65 92.63 153.78 91.88 152.78 91.95 C 151.78 92.01 151.02 92.88 151.09 93.89 Z M 151.15 94.84 L 151.21 95.86 C 151.26 96.87 152.12 97.64 153.13 97.58 C 154.14 97.53 154.91 96.67 154.85 95.66 L 154.80 94.64 C 154.74 93.64 153.88 92.87 152.87 92.92 C 151.87 92.98 151.10 93.84 151.15 94.84 Z M 151.21 95.83 L 151.25 96.85 C 151.28 97.85 152.13 98.64 153.13 98.60 C 154.14 98.56 154.92 97.72 154.89 96.71 L 154.85 95.69 C 154.81 94.69 153.97 93.90 152.96 93.94 C 151.96 93.98 151.17 94.82 151.21 95.83 Z M 151.26 96.82 L 151.28 97.81 C 151.30 98.81 152.13 99.60 153.12 99.58 C 154.12 99.56 154.91 98.74 154.89 97.74 L 154.87 96.74 C 154.85 95.75 154.03 94.95 153.03 94.97 C 152.03 94.99 151.24 95.82 151.26 96.82 Z M 151.31 97.79 L 151.32 98.81 C 151.33 99.79 152.13 100.58 153.11 100.57 C 154.09 100.56 154.88 99.76 154.88 98.77 L 154.87 97.76 C 154.86 96.78 154.05 95.99 153.07 96.00 C 152.09 96.00 151.30 96.81 151.31 97.79 Z M 151.34 98.79 L 151.34 99.80 C 151.35 100.77 152.13 101.55 153.10 101.55 C 154.07 101.55 154.85 100.76 154.85 99.79 L 154.85 98.78 C 154.85 97.82 154.06 97.03 153.09 97.04 C 152.12 97.04 151.34 97.83 151.34 98.79 Z M 151.37 99.80 L 151.37 100.80 C 151.37 101.76 152.14 102.53 153.10 102.53 C 154.05 102.53 154.83 101.76 154.83 100.80 L 154.83 99.80 C 154.83 98.84 154.05 98.07 153.10 98.07 C 152.14 98.07 151.37 98.84 151.37 99.80 Z M 151.39 100.80 L 151.39 101.80 C 151.39 102.75 152.15 103.51 153.10 103.51 C 154.04 103.51 154.81 102.75 154.81 101.80 L 154.81 100.80 C 154.81 99.86 154.04 99.09 153.10 99.09 C 152.15 99.09 151.39 99.86 151.39 100.80 Z M 151.41 101.80 L 151.41 102.79 C 151.41 103.73 152.17 104.48 153.10 104.48 C 154.03 104.48 154.79 103.73 154.79 102.79 L 154.79 101.80 C 154.79 100.87 154.03 100.11 153.10 100.11 C 152.17 100.11 151.41 100.87 151.41 101.80 Z M 151.43 102.79 L 151.43 103.79 C 151.43 104.71 152.18 105.46 153.10 105.46 C 154.02 105.46 154.77 104.71 154.77 103.79 L 154.77 102.79 C 154.77 101.87 154.02 101.12 153.10 101.12 C 152.18 101.12 151.43 101.87 151.43 102.79 Z M 151.44 103.79 L 151.44 104.76 C 151.44 105.67 152.18 106.42 153.10 106.42 C 154.01 106.42 154.75 105.68 154.75 104.76 L 154.76 103.79 C 154.76 102.87 154.01 102.13 153.10 102.13 C 152.18 102.13 151.44 102.87 151.44 103.79 Z M 151.45 104.75 L 151.44 105.73 C 151.44 106.64 152.17 107.38 153.08 107.38 C 153.99 107.39 154.74 106.65 154.74 105.74 L 154.75 104.77 C 154.75 103.86 154.02 103.11 153.11 103.11 C 152.20 103.10 151.45 103.84 151.45 104.75 Z M 151.45 105.70 L 151.43 106.71 C 151.41 107.62 152.14 108.37 153.05 108.38 C 153.95 108.40 154.70 107.67 154.72 106.77 L 154.74 105.76 C 154.75 104.85 154.03 104.11 153.12 104.09 C 152.21 104.07 151.46 104.80 151.45 105.70 Z M 151.43 106.68 L 151.40 107.71 C 151.36 108.61 152.07 109.37 152.98 109.41 C 153.88 109.44 154.64 108.73 154.68 107.83 L 154.71 106.80 C 154.75 105.89 154.04 105.13 153.14 105.10 C 152.23 105.06 151.47 105.77 151.43 106.68 Z M 151.40 107.67 L 151.34 108.65 C 151.28 109.56 151.97 110.33 152.87 110.39 C 153.78 110.45 154.55 109.76 154.61 108.86 L 154.67 107.87 C 154.73 106.97 154.04 106.19 153.14 106.13 C 152.24 106.08 151.46 106.76 151.40 107.67 Z M 151.35 108.61 L 151.26 109.56 C 151.18 110.46 151.84 111.26 152.74 111.34 C 153.64 111.42 154.44 110.76 154.52 109.86 L 154.61 108.90 C 154.69 108.00 154.02 107.21 153.12 107.13 C 152.22 107.04 151.43 107.71 151.35 108.61 Z M 151.26 109.51 L 151.15 110.49 C 151.04 111.39 151.67 112.20 152.57 112.31 C 153.47 112.42 154.29 111.78 154.40 110.89 L 154.51 109.91 C 154.62 109.01 153.98 108.19 153.09 108.09 C 152.19 107.98 151.37 108.61 151.26 109.51 Z M 151.15 110.44 L 151.00 111.44 C 150.86 112.34 151.47 113.17 152.36 113.31 C 153.25 113.45 154.09 112.84 154.23 111.95 L 154.39 110.94 C 154.53 110.05 153.92 109.21 153.02 109.07 C 152.13 108.93 151.29 109.54 151.15 110.44 Z M 151.01 111.39 L 150.80 112.43 C 150.63 113.31 151.21 114.17 152.10 114.34 C 152.99 114.52 153.85 113.94 154.02 113.05 L 154.22 112.01 C 154.39 111.12 153.81 110.26 152.92 110.09 C 152.04 109.92 151.18 110.50 151.01 111.39 Z M 150.82 112.37 L 150.60 113.30 C 150.40 114.18 150.95 115.05 151.83 115.26 C 152.71 115.46 153.59 114.91 153.79 114.03 L 154.01 113.10 C 154.21 112.22 153.66 111.34 152.78 111.14 C 151.90 110.94 151.02 111.49 150.82 112.37 Z M 150.61 113.25 L 150.37 114.18 C 150.15 115.06 150.67 115.95 151.55 116.18 C 152.42 116.41 153.32 115.88 153.54 115.01 L 153.78 114.07 C 154.01 113.20 153.49 112.30 152.61 112.08 C 151.73 111.85 150.84 112.38 150.61 113.25 Z M 150.38 114.15 L 150.11 115.10 C 149.86 115.97 150.37 116.88 151.24 117.13 C 152.10 117.37 153.01 116.87 153.26 116.00 L 153.53 115.04 C 153.78 114.18 153.28 113.27 152.41 113.02 C 151.54 112.77 150.63 113.28 150.38 114.15 Z M 150.12 115.07 L 149.82 116.04 C 149.55 116.91 150.04 117.82 150.90 118.09 C 151.76 118.36 152.68 117.87 152.95 117.01 L 153.25 116.03 C 153.52 115.17 153.03 114.25 152.17 113.99 C 151.30 113.72 150.39 114.20 150.12 115.07 Z M 149.83 116.01 L 149.50 117.01 C 149.22 117.87 149.68 118.79 150.54 119.07 C 151.40 119.36 152.33 118.89 152.61 118.03 L 152.94 117.04 C 153.22 116.18 152.75 115.26 151.90 114.97 C 151.04 114.69 150.11 115.16 149.83 116.01 Z M 149.51 116.98 L 149.17 117.95 C 148.88 118.80 149.33 119.73 150.18 120.03 C 151.04 120.33 151.97 119.88 152.27 119.02 L 152.60 118.06 C 152.90 117.20 152.45 116.27 151.59 115.97 C 150.74 115.68 149.81 116.13 149.51 116.98 Z M 149.18 117.93 L 148.85 118.85 C 148.54 119.70 148.98 120.64 149.83 120.94 C 150.68 121.25 151.62 120.81 151.92 119.96 L 152.26 119.04 C 152.57 118.19 152.13 117.25 151.28 116.94 C 150.43 116.64 149.49 117.08 149.18 117.93 Z M 148.85 118.83 L 148.50 119.76 C 148.19 120.61 148.62 121.55 149.46 121.87 C 150.31 122.19 151.25 121.76 151.57 120.91 L 151.92 119.98 C 152.24 119.13 151.81 118.19 150.96 117.87 C 150.11 117.56 149.17 117.99 148.85 118.83 Z M 148.51 119.75 L 148.15 120.69 C 147.83 121.53 148.25 122.48 149.09 122.80 C 149.94 123.13 150.88 122.70 151.21 121.86 L 151.57 120.92 C 151.89 120.08 151.47 119.13 150.62 118.81 C 149.78 118.48 148.83 118.91 148.51 119.75 Z M 148.15 120.68 L 147.79 121.62 C 147.46 122.46 147.87 123.41 148.72 123.74 C 149.56 124.07 150.51 123.65 150.84 122.81 L 151.20 121.87 C 151.53 121.03 151.11 120.08 150.27 119.75 C 149.43 119.42 148.48 119.84 148.15 120.68 Z M 147.79 121.62 L 147.42 122.56 C 147.08 123.40 147.50 124.35 148.34 124.68 C 149.18 125.01 150.13 124.60 150.46 123.76 L 150.83 122.81 C 151.17 121.97 150.75 121.02 149.91 120.69 C 149.07 120.36 148.12 120.77 147.79 121.62 Z M 147.42 122.56 L 147.20 123.11 C 146.87 123.95 147.28 124.90 148.12 125.23 C 148.96 125.56 149.91 125.15 150.24 124.31 L 150.46 123.76 C 150.79 122.92 150.38 121.97 149.54 121.64 C 148.70 121.30 147.75 121.72 147.42 122.56 Z"
      fill="black"
      fill-rule="nonzero" /><path d="M 127.10 143.21 L 127.96 143.02 C 128.91 142.80 129.51 141.85 129.29 140.89 C 129.07 139.94 128.12 139.34 127.17 139.56 L 126.31 139.76 C 125.36 139.98 124.76 140.93 124.98 141.88 C 125.20 142.84 126.15 143.43 127.10 143.21 Z M 127.94 143.03 L 128.85 142.83 C 129.81 142.62 130.42 141.67 130.21 140.71 C 130.00 139.75 129.05 139.14 128.09 139.35 L 127.18 139.55 C 126.22 139.76 125.62 140.71 125.83 141.67 C 126.04 142.63 126.98 143.24 127.94 143.03 Z M 128.82 142.84 L 129.82 142.64 C 130.79 142.44 131.41 141.50 131.22 140.53 C 131.02 139.57 130.08 138.94 129.11 139.14 L 128.11 139.34 C 127.15 139.54 126.52 140.48 126.72 141.45 C 126.91 142.41 127.86 143.04 128.82 142.84 Z M 129.79 142.65 L 130.93 142.44 C 131.90 142.27 132.55 141.33 132.37 140.36 C 132.19 139.39 131.26 138.74 130.29 138.92 L 129.15 139.13 C 128.17 139.30 127.53 140.24 127.70 141.21 C 127.88 142.18 128.81 142.83 129.79 142.65 Z M 130.90 142.45 L 131.86 142.29 C 132.84 142.13 133.50 141.21 133.34 140.23 C 133.18 139.25 132.25 138.59 131.28 138.75 L 130.31 138.91 C 129.34 139.07 128.67 140.00 128.84 140.97 C 129.00 141.95 129.92 142.62 130.90 142.45 Z M 131.85 142.30 L 132.85 142.14 C 133.84 141.99 134.51 141.07 134.35 140.09 C 134.20 139.10 133.28 138.43 132.30 138.59 L 131.29 138.75 C 130.31 138.90 129.64 139.82 129.79 140.80 C 129.95 141.78 130.87 142.45 131.85 142.30 Z M 132.85 142.14 L 133.88 141.98 C 134.86 141.83 135.54 140.92 135.39 139.94 C 135.24 138.95 134.32 138.28 133.34 138.43 L 132.31 138.59 C 131.32 138.74 130.65 139.65 130.80 140.63 C 130.95 141.62 131.87 142.29 132.85 142.14 Z M 133.88 141.98 L 134.91 141.83 C 135.89 141.68 136.56 140.76 136.41 139.78 C 136.26 138.80 135.35 138.13 134.37 138.27 L 133.34 138.43 C 132.36 138.58 131.69 139.49 131.83 140.48 C 131.98 141.46 132.90 142.13 133.88 141.98 Z M 134.91 141.83 L 135.89 141.68 C 136.87 141.53 137.54 140.61 137.39 139.63 C 137.24 138.65 136.32 137.97 135.34 138.12 L 134.36 138.27 C 133.38 138.43 132.71 139.34 132.86 140.32 C 133.01 141.30 133.93 141.98 134.91 141.83 Z M 135.90 141.67 L 136.93 141.51 C 137.90 141.35 138.57 140.43 138.41 139.45 C 138.25 138.47 137.33 137.80 136.35 137.96 L 135.33 138.13 C 134.35 138.29 133.68 139.21 133.84 140.19 C 134.00 141.17 134.92 141.83 135.90 141.67 Z M 136.95 141.50 L 138.06 141.30 C 139.03 141.13 139.68 140.20 139.51 139.23 C 139.34 138.26 138.41 137.61 137.44 137.78 L 136.33 137.97 C 135.36 138.14 134.71 139.07 134.88 140.04 C 135.05 141.02 135.98 141.67 136.95 141.50 Z M 138.08 141.28 L 139.04 141.10 C 140.00 140.92 140.63 139.99 140.45 139.02 C 140.26 138.06 139.33 137.43 138.37 137.61 L 137.41 137.80 C 136.45 137.98 135.82 138.91 136.00 139.87 C 136.19 140.84 137.12 141.47 138.08 141.28 Z M 139.06 141.09 L 139.92 140.91 C 140.88 140.72 141.49 139.78 141.30 138.83 C 141.10 137.87 140.17 137.26 139.22 137.45 L 138.35 137.63 C 137.40 137.82 136.78 138.75 136.97 139.71 C 137.17 140.66 138.10 141.28 139.06 141.09 Z M 139.93 140.90 L 140.83 140.71 C 141.78 140.51 142.39 139.58 142.19 138.63 C 142.00 137.69 141.07 137.08 140.12 137.27 L 139.21 137.46 C 138.26 137.66 137.65 138.59 137.85 139.54 C 138.05 140.49 138.98 141.10 139.93 140.90 Z M 140.83 140.70 L 141.81 140.50 C 142.75 140.30 143.36 139.38 143.16 138.43 C 142.96 137.49 142.04 136.88 141.09 137.08 L 140.12 137.28 C 139.17 137.48 138.57 138.40 138.76 139.35 C 138.96 140.29 139.89 140.90 140.83 140.70 Z M 141.80 140.49 L 142.78 140.29 C 143.72 140.10 144.33 139.18 144.13 138.23 C 143.94 137.29 143.02 136.69 142.08 136.88 L 141.10 137.09 C 140.16 137.28 139.55 138.20 139.75 139.14 C 139.94 140.08 140.86 140.69 141.80 140.49 Z M 142.78 140.29 L 143.76 140.08 C 144.70 139.89 145.30 138.98 145.11 138.04 C 144.92 137.10 144.00 136.50 143.06 136.69 L 142.08 136.89 C 141.14 137.08 140.54 138.00 140.73 138.93 C 140.92 139.87 141.84 140.48 142.78 140.29 Z M 143.76 140.08 L 144.72 139.88 C 145.66 139.69 146.26 138.78 146.07 137.84 C 145.88 136.91 144.97 136.31 144.04 136.50 L 143.07 136.69 C 142.13 136.88 141.53 137.80 141.72 138.73 C 141.91 139.66 142.82 140.27 143.76 140.08 Z M 144.73 139.87 L 145.71 139.67 C 146.64 139.48 147.23 138.57 147.04 137.64 C 146.85 136.71 145.94 136.11 145.01 136.30 L 144.03 136.51 C 143.10 136.70 142.51 137.61 142.70 138.53 C 142.89 139.46 143.80 140.06 144.73 139.87 Z M 145.71 139.66 L 146.70 139.45 C 147.63 139.26 148.22 138.35 148.03 137.43 C 147.83 136.50 146.92 135.91 146.00 136.11 L 145.01 136.31 C 144.08 136.51 143.49 137.42 143.69 138.34 C 143.88 139.26 144.79 139.86 145.71 139.66 Z M 146.72 139.44 L 147.69 139.23 C 148.61 139.03 149.19 138.12 148.99 137.20 C 148.79 136.28 147.88 135.70 146.96 135.90 L 145.99 136.12 C 145.07 136.32 144.49 137.22 144.69 138.14 C 144.89 139.06 145.80 139.64 146.72 139.44 Z M 147.70 139.22 L 148.68 138.99 C 149.59 138.78 150.16 137.88 149.95 136.96 C 149.75 136.05 148.84 135.48 147.92 135.69 L 146.95 135.91 C 146.04 136.12 145.47 137.03 145.67 137.94 C 145.88 138.86 146.79 139.43 147.70 139.22 Z M 148.70 138.98 L 149.67 138.75 C 150.58 138.53 151.14 137.62 150.92 136.71 C 150.70 135.81 149.79 135.25 148.88 135.47 L 147.91 135.70 C 147.00 135.92 146.44 136.83 146.66 137.74 C 146.88 138.64 147.79 139.20 148.70 138.98 Z M 149.69 138.74 L 150.66 138.49 C 151.56 138.26 152.11 137.35 151.88 136.45 C 151.65 135.55 150.74 135.01 149.84 135.23 L 148.87 135.48 C 147.97 135.71 147.42 136.62 147.65 137.52 C 147.88 138.42 148.79 138.96 149.69 138.74 Z M 150.68 138.48 L 151.65 138.22 C 152.54 137.98 153.07 137.07 152.84 136.17 C 152.60 135.28 151.68 134.75 150.79 134.99 L 149.82 135.24 C 148.93 135.48 148.40 136.40 148.63 137.29 C 148.87 138.18 149.79 138.71 150.68 138.48 Z M 151.66 138.21 L 152.62 137.95 C 153.51 137.70 154.03 136.79 153.79 135.90 C 153.55 135.01 152.63 134.49 151.74 134.73 L 150.78 135.00 C 149.89 135.24 149.37 136.16 149.61 137.04 C 149.86 137.93 150.77 138.45 151.66 138.21 Z M 152.63 137.94 L 153.59 137.67 C 154.47 137.42 154.99 136.51 154.74 135.63 C 154.49 134.74 153.58 134.23 152.70 134.47 L 151.74 134.74 C 150.85 134.99 150.34 135.90 150.58 136.79 C 150.83 137.67 151.75 138.18 152.63 137.94 Z M 153.59 137.66 L 154.54 137.40 C 155.42 137.15 155.94 136.24 155.69 135.36 C 155.44 134.48 154.53 133.96 153.65 134.21 L 152.70 134.48 C 151.82 134.73 151.30 135.64 151.55 136.52 C 151.80 137.40 152.71 137.91 153.59 137.66 Z M 154.55 137.39 L 155.51 137.12 C 156.38 136.87 156.89 135.96 156.64 135.08 C 156.40 134.21 155.49 133.70 154.61 133.94 L 153.65 134.22 C 152.77 134.46 152.26 135.38 152.51 136.25 C 152.76 137.13 153.67 137.64 154.55 137.39 Z M 155.51 137.11 L 156.48 136.84 C 157.35 136.59 157.85 135.68 157.60 134.80 C 157.35 133.93 156.44 133.42 155.57 133.67 L 154.60 133.95 C 153.73 134.20 153.22 135.11 153.47 135.99 C 153.73 136.86 154.64 137.37 155.51 137.11 Z M 156.48 136.83 L 157.41 136.56 C 158.29 136.30 158.78 135.39 158.53 134.52 C 158.27 133.65 157.36 133.15 156.49 133.41 L 155.56 133.68 C 154.69 133.94 154.19 134.85 154.45 135.72 C 154.70 136.59 155.61 137.09 156.48 136.83 Z M 157.43 136.55 L 158.32 136.28 C 159.19 136.02 159.68 135.11 159.42 134.24 C 159.16 133.37 158.24 132.88 157.37 133.14 L 156.48 133.41 C 155.61 133.67 155.12 134.59 155.38 135.46 C 155.64 136.32 156.56 136.81 157.43 136.55 Z M 158.33 136.28 L 159.27 135.99 C 160.14 135.72 160.62 134.80 160.35 133.93 C 160.08 133.07 159.17 132.59 158.30 132.85 L 157.36 133.15 C 156.50 133.42 156.01 134.33 156.28 135.20 C 156.55 136.06 157.47 136.55 158.33 136.28 Z M 159.29 135.98 L 160.30 135.66 C 161.16 135.38 161.63 134.46 161.36 133.60 C 161.08 132.74 160.16 132.26 159.30 132.54 L 158.29 132.86 C 157.43 133.14 156.95 134.06 157.23 134.92 C 157.50 135.78 158.42 136.26 159.29 135.98 Z M 160.31 135.65 L 161.29 135.33 C 162.15 135.05 162.61 134.12 162.33 133.26 C 162.05 132.40 161.12 131.94 160.26 132.22 L 159.29 132.54 C 158.43 132.82 157.96 133.75 158.24 134.61 C 158.52 135.47 159.45 135.93 160.31 135.65 Z M 161.30 135.33 L 162.24 135.01 C 163.10 134.72 163.56 133.79 163.27 132.93 C 162.98 132.07 162.05 131.61 161.19 131.91 L 160.25 132.22 C 159.39 132.52 158.94 133.45 159.23 134.30 C 159.52 135.16 160.45 135.62 161.30 135.33 Z M 162.27 135.00 L 163.23 134.66 C 164.08 134.35 164.53 133.42 164.23 132.56 C 163.92 131.71 162.99 131.27 162.13 131.57 L 161.17 131.91 C 160.32 132.22 159.87 133.15 160.18 134.00 C 160.48 134.86 161.42 135.30 162.27 135.00 Z M 163.26 134.64 L 164.22 134.28 C 165.07 133.96 165.49 133.01 165.17 132.17 C 164.85 131.32 163.90 130.90 163.06 131.22 L 162.10 131.58 C 161.26 131.90 160.83 132.85 161.15 133.69 C 161.47 134.54 162.42 134.96 163.26 134.64 Z M 164.26 134.26 L 165.18 133.88 C 166.02 133.54 166.42 132.58 166.07 131.75 C 165.73 130.91 164.77 130.51 163.93 130.86 L 163.01 131.24 C 162.18 131.58 161.78 132.54 162.13 133.37 C 162.47 134.21 163.43 134.61 164.26 134.26 Z M 165.24 133.86 L 166.20 133.41 C 167.02 133.03 167.38 132.06 167.00 131.24 C 166.62 130.42 165.65 130.06 164.83 130.44 L 163.87 130.88 C 163.05 131.26 162.69 132.24 163.07 133.06 C 163.45 133.88 164.42 134.24 165.24 133.86 Z M 166.27 133.38 L 167.18 132.91 C 167.98 132.50 168.30 131.51 167.88 130.71 C 167.46 129.90 166.48 129.59 165.67 130.00 L 164.77 130.47 C 163.96 130.89 163.65 131.88 164.06 132.68 C 164.48 133.48 165.47 133.80 166.27 133.38 Z M 167.23 132.88 L 168.08 132.40 C 168.87 131.96 169.15 130.96 168.70 130.18 C 168.26 129.39 167.26 129.11 166.47 129.55 L 165.62 130.03 C 164.84 130.47 164.56 131.47 165.00 132.26 C 165.44 133.05 166.44 133.33 167.23 132.88 Z M 168.11 132.39 L 168.93 131.90 C 169.71 131.44 169.96 130.44 169.50 129.66 C 169.04 128.88 168.04 128.63 167.26 129.09 L 166.44 129.57 C 165.67 130.03 165.41 131.03 165.87 131.81 C 166.33 132.59 167.33 132.85 168.11 132.39 Z M 168.94 131.90 L 169.19 131.75 C 169.97 131.28 170.22 130.28 169.75 129.50 C 169.29 128.72 168.28 128.47 167.51 128.94 L 167.25 129.09 C 166.48 129.56 166.23 130.56 166.69 131.34 C 167.16 132.11 168.16 132.36 168.94 131.90 Z"
      fill="black"
      fill-rule="nonzero" /><path d="M 155.24 122.17 L 154.21 122.23 C 153.22 122.30 152.46 123.15 152.52 124.15 C 152.58 125.15 153.44 125.91 154.44 125.84 L 155.47 125.78 C 156.46 125.72 157.22 124.86 157.16 123.86 C 157.10 122.86 156.24 122.11 155.24 122.17 Z M 154.00 122.24 L 153.02 122.42 C 152.03 122.60 151.37 123.55 151.55 124.55 C 151.73 125.54 152.69 126.20 153.68 126.01 L 154.65 125.84 C 155.65 125.65 156.30 124.70 156.12 123.71 C 155.94 122.72 154.99 122.06 154.00 122.24 Z M 152.57 122.54 L 151.71 122.94 C 150.79 123.37 150.38 124.47 150.81 125.40 C 151.24 126.32 152.34 126.72 153.27 126.29 L 154.13 125.89 C 155.05 125.46 155.45 124.36 155.02 123.44 C 154.59 122.51 153.50 122.11 152.57 122.54 Z M 151.24 123.24 L 150.65 123.78 C 149.89 124.47 149.83 125.65 150.53 126.41 C 151.22 127.16 152.39 127.22 153.15 126.53 L 153.74 125.99 C 154.50 125.30 154.55 124.13 153.86 123.37 C 153.17 122.61 152.00 122.55 151.24 123.24 Z M 150.39 124.06 L 149.85 124.81 C 149.25 125.64 149.43 126.80 150.26 127.41 C 151.10 128.01 152.26 127.83 152.86 126.99 L 153.41 126.25 C 154.01 125.42 153.82 124.25 152.99 123.65 C 152.16 123.04 151.00 123.23 150.39 124.06 Z M 149.73 124.99 L 149.20 125.95 C 148.69 126.84 149.01 127.98 149.91 128.48 C 150.81 128.99 151.95 128.66 152.45 127.77 L 152.99 126.81 C 153.49 125.91 153.17 124.77 152.27 124.27 C 151.37 123.77 150.23 124.09 149.73 124.99 Z M 149.14 126.03 L 148.64 127.07 C 148.19 127.99 148.57 129.11 149.50 129.57 C 150.43 130.02 151.54 129.64 152.00 128.71 L 152.50 127.68 C 152.96 126.75 152.57 125.63 151.64 125.18 C 150.72 124.72 149.60 125.11 149.14 126.03 Z M 148.62 127.10 L 148.24 127.91 C 147.81 128.85 148.22 129.96 149.15 130.40 C 150.09 130.83 151.20 130.43 151.64 129.49 L 152.02 128.68 C 152.45 127.74 152.04 126.63 151.11 126.19 C 150.17 125.76 149.06 126.16 148.62 127.10 Z M 148.24 127.93 L 147.84 128.81 C 147.41 129.75 147.83 130.86 148.77 131.29 C 149.72 131.71 150.82 131.29 151.25 130.35 L 151.65 129.47 C 152.07 128.53 151.65 127.42 150.71 127.00 C 149.77 126.57 148.66 126.99 148.24 127.93 Z M 147.83 128.83 L 147.42 129.76 C 147.01 130.70 147.44 131.81 148.38 132.22 C 149.33 132.64 150.43 132.21 150.85 131.26 L 151.26 130.33 C 151.67 129.39 151.24 128.29 150.30 127.87 C 149.35 127.45 148.25 127.88 147.83 128.83 Z M 147.42 129.77 L 147.00 130.73 C 146.60 131.68 147.03 132.78 147.98 133.19 C 148.93 133.60 150.03 133.16 150.44 132.21 L 150.85 131.25 C 151.26 130.30 150.82 129.20 149.87 128.79 C 148.93 128.38 147.83 128.82 147.42 129.77 Z M 147.00 130.75 L 146.58 131.73 C 146.18 132.68 146.63 133.78 147.58 134.18 C 148.53 134.58 149.63 134.13 150.03 133.18 L 150.45 132.20 C 150.85 131.25 150.40 130.15 149.45 129.75 C 148.50 129.35 147.40 129.79 147.00 130.75 Z M 146.58 131.74 L 146.17 132.73 C 145.77 133.69 146.23 134.78 147.18 135.17 C 148.14 135.57 149.23 135.11 149.63 134.16 L 150.04 133.17 C 150.43 132.21 149.98 131.12 149.02 130.73 C 148.07 130.33 146.97 130.79 146.58 131.74 Z M 146.16 132.74 L 145.76 133.74 C 145.37 134.70 145.83 135.79 146.79 136.18 C 147.75 136.57 148.84 136.11 149.23 135.15 L 149.63 134.15 C 150.02 133.19 149.56 132.10 148.60 131.71 C 147.64 131.32 146.55 131.79 146.16 132.74 Z M 145.76 133.75 L 145.36 134.73 C 144.98 135.69 145.45 136.78 146.41 137.16 C 147.37 137.55 148.46 137.08 148.84 136.12 L 149.23 135.14 C 149.61 134.18 149.15 133.09 148.19 132.71 C 147.23 132.33 146.14 132.79 145.76 133.75 Z M 145.36 134.74 L 144.99 135.70 C 144.61 136.66 145.08 137.74 146.04 138.12 C 147.01 138.50 148.09 138.02 148.47 137.06 L 148.84 136.11 C 149.22 135.15 148.75 134.06 147.79 133.69 C 146.82 133.31 145.74 133.78 145.36 134.74 Z M 144.98 135.70 L 144.63 136.62 C 144.26 137.58 144.73 138.66 145.70 139.04 C 146.66 139.41 147.74 138.93 148.12 137.97 L 148.47 137.06 C 148.84 136.09 148.37 135.01 147.40 134.64 C 146.44 134.26 145.36 134.74 144.98 135.70 Z M 144.63 136.62 L 144.30 137.49 C 143.93 138.45 144.41 139.53 145.37 139.90 C 146.33 140.27 147.42 139.79 147.79 138.83 L 148.12 137.96 C 148.49 137.00 148.01 135.92 147.04 135.55 C 146.08 135.18 145.00 135.66 144.63 136.62 Z M 144.29 137.49 L 143.95 138.40 C 143.58 139.36 144.07 140.44 145.03 140.81 C 146.00 141.17 147.08 140.69 147.44 139.73 L 147.79 138.82 C 148.16 137.86 147.67 136.78 146.71 136.41 C 145.74 136.04 144.66 136.53 144.29 137.49 Z M 143.95 138.40 L 143.57 139.42 C 143.20 140.38 143.69 141.46 144.65 141.82 C 145.62 142.19 146.70 141.70 147.06 140.74 L 147.44 139.72 C 147.81 138.76 147.32 137.68 146.36 137.31 C 145.39 136.95 144.32 137.44 143.95 138.40 Z M 143.57 139.42 L 143.22 140.35 C 142.85 141.32 143.34 142.39 144.31 142.76 C 145.27 143.12 146.35 142.63 146.71 141.67 L 147.06 140.73 C 147.42 139.77 146.93 138.70 145.97 138.33 C 145.01 137.97 143.93 138.46 143.57 139.42 Z M 143.22 140.35 L 142.89 141.24 C 142.53 142.20 143.01 143.27 143.97 143.63 C 144.94 144.00 146.01 143.51 146.37 142.55 L 146.70 141.67 C 147.07 140.71 146.58 139.63 145.62 139.27 C 144.66 138.91 143.58 139.39 143.22 140.35 Z M 142.89 141.23 L 142.57 142.09 C 142.20 143.05 142.68 144.13 143.64 144.49 C 144.60 144.86 145.68 144.37 146.04 143.41 L 146.37 142.55 C 146.73 141.59 146.25 140.52 145.29 140.15 C 144.33 139.79 143.26 140.27 142.89 141.23 Z M 142.57 142.09 L 142.22 143.00 C 141.85 143.96 142.33 145.03 143.29 145.40 C 144.24 145.77 145.32 145.29 145.68 144.34 L 146.04 143.42 C 146.40 142.46 145.93 141.39 144.97 141.02 C 144.01 140.65 142.94 141.13 142.57 142.09 Z M 142.23 143.00 L 141.87 143.93 C 141.50 144.88 141.97 145.95 142.93 146.32 C 143.88 146.69 144.95 146.22 145.32 145.26 L 145.68 144.34 C 146.05 143.38 145.57 142.31 144.62 141.94 C 143.67 141.58 142.59 142.05 142.23 143.00 Z M 141.87 143.93 L 141.51 144.87 C 141.14 145.82 141.62 146.89 142.57 147.26 C 143.52 147.62 144.59 147.15 144.95 146.20 L 145.32 145.26 C 145.68 144.31 145.21 143.24 144.26 142.87 C 143.31 142.51 142.24 142.98 141.87 143.93 Z M 141.51 144.88 L 141.15 145.83 C 140.79 146.78 141.26 147.84 142.21 148.21 C 143.16 148.57 144.23 148.09 144.59 147.14 L 144.95 146.19 C 145.31 145.24 144.84 144.18 143.89 143.82 C 142.94 143.45 141.87 143.93 141.51 144.88 Z M 141.15 145.84 L 140.81 146.74 C 140.45 147.69 140.93 148.75 141.88 149.11 C 142.83 149.47 143.89 148.99 144.25 148.04 L 144.59 147.13 C 144.94 146.18 144.46 145.12 143.52 144.77 C 142.57 144.41 141.51 144.89 141.15 145.84 Z M 140.81 146.75 L 140.47 147.67 C 140.11 148.62 140.60 149.68 141.54 150.03 C 142.49 150.38 143.55 149.90 143.90 148.95 L 144.24 148.03 C 144.60 147.08 144.12 146.03 143.17 145.67 C 142.22 145.32 141.17 145.80 140.81 146.75 Z M 140.47 147.68 L 140.12 148.62 C 139.77 149.57 140.25 150.62 141.20 150.97 C 142.14 151.32 143.20 150.84 143.55 149.89 L 143.90 148.95 C 144.25 148.00 143.77 146.95 142.82 146.60 C 141.88 146.25 140.82 146.73 140.47 147.68 Z M 140.13 148.62 L 139.77 149.59 C 139.41 150.53 139.89 151.58 140.84 151.93 C 141.78 152.28 142.83 151.80 143.18 150.86 L 143.54 149.89 C 143.89 148.95 143.41 147.90 142.47 147.55 C 141.53 147.20 140.48 147.68 140.13 148.62 Z M 139.77 149.58 L 139.42 150.52 C 139.07 151.46 139.54 152.51 140.48 152.86 C 141.42 153.22 142.47 152.74 142.82 151.80 L 143.17 150.86 C 143.53 149.92 143.05 148.88 142.11 148.52 C 141.17 148.17 140.12 148.64 139.77 149.58 Z M 139.43 150.52 L 139.07 151.46 C 138.72 152.39 139.19 153.44 140.12 153.79 C 141.06 154.15 142.10 153.68 142.46 152.74 L 142.81 151.80 C 143.17 150.87 142.70 149.82 141.76 149.47 C 140.83 149.11 139.78 149.58 139.43 150.52 Z M 139.08 151.45 L 138.72 152.40 C 138.36 153.33 138.83 154.37 139.76 154.73 C 140.69 155.08 141.74 154.62 142.09 153.69 L 142.45 152.74 C 142.81 151.81 142.34 150.77 141.41 150.41 C 140.48 150.06 139.43 150.52 139.08 151.45 Z M 138.73 152.39 L 138.36 153.33 C 138.01 154.26 138.47 155.30 139.40 155.66 C 140.32 156.02 141.36 155.55 141.72 154.63 L 142.08 153.69 C 142.44 152.76 141.98 151.72 141.05 151.36 C 140.12 151.01 139.08 151.47 138.73 152.39 Z M 138.37 153.33 L 138.01 154.26 C 137.65 155.18 138.11 156.22 139.03 156.58 C 139.95 156.94 140.99 156.48 141.35 155.56 L 141.71 154.63 C 142.07 153.71 141.62 152.67 140.69 152.31 C 139.77 151.95 138.73 152.41 138.37 153.33 Z M 138.02 154.26 L 137.65 155.20 C 137.29 156.12 137.74 157.16 138.66 157.52 C 139.58 157.88 140.61 157.43 140.97 156.51 L 141.35 155.56 C 141.71 154.64 141.25 153.61 140.34 153.25 C 139.42 152.88 138.38 153.34 138.02 154.26 Z M 137.65 155.20 L 137.29 156.12 C 136.92 157.04 137.37 158.08 138.29 158.44 C 139.20 158.80 140.24 158.35 140.60 157.44 L 140.97 156.51 C 141.33 155.60 140.88 154.56 139.97 154.20 C 139.05 153.83 138.02 154.28 137.65 155.20 Z M 137.29 156.12 L 136.93 157.04 C 136.56 157.95 137.01 158.99 137.92 159.35 C 138.83 159.72 139.86 159.27 140.23 158.36 L 140.59 157.44 C 140.96 156.53 140.51 155.50 139.60 155.13 C 138.69 154.77 137.66 155.21 137.29 156.12 Z M 136.93 157.04 L 136.56 157.96 C 136.20 158.87 136.64 159.90 137.55 160.27 C 138.45 160.63 139.48 160.19 139.85 159.28 L 140.22 158.36 C 140.58 157.45 140.14 156.42 139.24 156.06 C 138.33 155.69 137.30 156.13 136.93 157.04 Z M 136.57 157.96 L 136.20 158.88 C 135.83 159.79 136.27 160.82 137.17 161.18 C 138.08 161.55 139.11 161.11 139.47 160.20 L 139.84 159.28 C 140.21 158.38 139.77 157.35 138.87 156.99 C 137.96 156.62 136.93 157.06 136.57 157.96 Z M 136.20 158.88 L 135.83 159.81 C 135.46 160.71 135.90 161.74 136.80 162.10 C 137.70 162.46 138.73 162.03 139.09 161.13 L 139.47 160.20 C 139.83 159.30 139.39 158.28 138.49 157.91 C 137.59 157.55 136.57 157.98 136.20 158.88 Z M 135.83 159.81 L 135.46 160.74 C 135.10 161.64 135.53 162.67 136.43 163.03 C 137.33 163.39 138.35 162.95 138.71 162.06 L 139.09 161.12 C 139.45 160.23 139.02 159.20 138.12 158.84 C 137.22 158.48 136.20 158.91 135.83 159.81 Z M 135.46 160.75 L 135.09 161.68 C 134.73 162.58 135.16 163.60 136.06 163.96 C 136.96 164.32 137.97 163.88 138.33 162.98 L 138.71 162.05 C 139.07 161.15 138.63 160.14 137.74 159.78 C 136.84 159.42 135.82 159.85 135.46 160.75 Z M 135.09 161.69 L 134.72 162.62 C 134.36 163.51 134.80 164.53 135.70 164.88 C 136.59 165.24 137.60 164.80 137.96 163.91 L 138.33 162.98 C 138.69 162.08 138.25 161.07 137.36 160.71 C 136.46 160.36 135.45 160.79 135.09 161.69 Z M 134.72 162.63 L 134.36 163.56 C 134.00 164.45 134.44 165.46 135.34 165.81 C 136.23 166.17 137.24 165.73 137.59 164.83 L 137.96 163.90 C 138.31 163.01 137.87 162.00 136.98 161.65 C 136.08 161.29 135.08 161.73 134.72 162.63 Z M 134.36 163.57 L 134.00 164.50 C 133.65 165.39 134.09 166.39 134.98 166.74 C 135.87 167.09 136.88 166.65 137.22 165.76 L 137.59 164.83 C 137.93 163.93 137.49 162.93 136.60 162.58 C 135.71 162.24 134.71 162.68 134.36 163.57 Z M 134.00 164.50 L 133.64 165.44 C 133.30 166.32 133.74 167.33 134.63 167.67 C 135.52 168.01 136.52 167.57 136.86 166.68 L 137.22 165.75 C 137.57 164.86 137.12 163.86 136.23 163.52 C 135.34 163.17 134.34 163.62 134.00 164.50 Z M 133.64 165.44 L 133.29 166.37 C 132.95 167.26 133.39 168.26 134.28 168.60 C 135.17 168.94 136.16 168.49 136.50 167.61 L 136.86 166.67 C 137.20 165.79 136.75 164.79 135.87 164.45 C 134.98 164.11 133.98 164.55 133.64 165.44 Z M 133.29 166.38 L 132.93 167.32 C 132.59 168.21 133.04 169.20 133.92 169.54 C 134.81 169.88 135.80 169.43 136.14 168.54 L 136.50 167.60 C 136.83 166.71 136.39 165.72 135.50 165.39 C 134.62 165.05 133.63 165.49 133.29 166.38 Z M 132.93 167.33 L 132.58 168.28 C 132.24 169.16 132.69 170.15 133.57 170.48 C 134.45 170.82 135.44 170.37 135.78 169.49 L 136.13 168.54 C 136.47 167.66 136.02 166.67 135.14 166.33 C 134.26 166.00 133.27 166.44 132.93 167.33 Z M 132.58 168.28 L 132.22 169.22 C 131.89 170.10 132.34 171.08 133.22 171.42 C 134.10 171.75 135.08 171.31 135.42 170.43 L 135.77 169.49 C 136.10 168.60 135.66 167.62 134.78 167.29 C 133.90 166.95 132.91 167.40 132.58 168.28 Z M 132.23 169.22 L 131.88 170.15 C 131.55 171.02 131.99 172.00 132.86 172.34 C 133.74 172.67 134.72 172.23 135.06 171.35 L 135.41 170.43 C 135.74 169.55 135.30 168.57 134.42 168.23 C 133.55 167.90 132.56 168.34 132.23 169.22 Z M 131.89 170.14 L 131.53 171.07 C 131.20 171.94 131.64 172.92 132.51 173.25 C 133.38 173.59 134.36 173.15 134.70 172.28 L 135.05 171.35 C 135.39 170.48 134.95 169.50 134.07 169.17 C 133.20 168.83 132.22 169.27 131.89 170.14 Z M 131.54 171.06 L 131.18 172.00 C 130.84 172.87 131.27 173.85 132.14 174.18 C 133.01 174.52 133.99 174.09 134.33 173.22 L 134.69 172.28 C 135.03 171.41 134.60 170.43 133.73 170.10 C 132.85 169.76 131.88 170.19 131.54 171.06 Z M 131.18 171.99 L 130.82 172.92 C 130.48 173.78 130.91 174.76 131.78 175.10 C 132.64 175.44 133.62 175.01 133.96 174.15 L 134.32 173.22 C 134.66 172.36 134.23 171.38 133.37 171.04 C 132.50 170.70 131.52 171.13 131.18 171.99 Z M 130.83 172.91 L 130.46 173.83 C 130.12 174.69 130.54 175.67 131.40 176.01 C 132.26 176.36 133.24 175.94 133.58 175.07 L 133.95 174.15 C 134.29 173.29 133.87 172.31 133.01 171.97 C 132.15 171.63 131.17 172.05 130.83 172.91 Z M 130.47 173.83 L 130.10 174.75 C 129.75 175.61 130.16 176.58 131.02 176.93 C 131.88 177.28 132.86 176.86 133.20 176.00 L 133.58 175.08 C 133.92 174.22 133.51 173.25 132.65 172.90 C 131.79 172.55 130.82 172.97 130.47 173.83 Z M 130.10 174.74 L 129.74 175.62 C 129.39 176.48 129.80 177.45 130.66 177.80 C 131.51 178.15 132.49 177.74 132.84 176.89 L 133.20 176.01 C 133.55 175.16 133.14 174.18 132.28 173.83 C 131.43 173.48 130.45 173.89 130.10 174.74 Z M 129.75 175.62 L 129.38 176.52 C 129.03 177.37 129.43 178.35 130.28 178.70 C 131.13 179.05 132.10 178.65 132.46 177.80 L 132.83 176.89 C 133.18 176.04 132.78 175.07 131.93 174.72 C 131.08 174.36 130.10 174.77 129.75 175.62 Z M 129.38 176.52 L 128.99 177.46 C 128.64 178.30 129.05 179.28 129.89 179.63 C 130.74 179.98 131.71 179.58 132.07 178.73 L 132.45 177.80 C 132.80 176.95 132.40 175.98 131.55 175.62 C 130.70 175.27 129.73 175.68 129.38 176.52 Z M 129.00 177.46 L 128.60 178.42 C 128.25 179.27 128.65 180.24 129.50 180.59 C 130.34 180.94 131.31 180.54 131.66 179.69 L 132.06 178.73 C 132.41 177.88 132.01 176.91 131.16 176.56 C 130.32 176.21 129.35 176.61 129.00 177.46 Z M 128.60 178.43 L 128.21 179.37 C 127.87 180.22 128.27 181.18 129.11 181.53 C 129.96 181.88 130.93 181.47 131.27 180.63 L 131.66 179.69 C 132.01 178.84 131.60 177.87 130.76 177.53 C 129.91 177.18 128.95 177.58 128.60 178.43 Z M 128.21 179.38 L 127.83 180.32 C 127.49 181.16 127.90 182.12 128.75 182.47 C 129.59 182.81 130.56 182.40 130.90 181.55 L 131.28 180.62 C 131.62 179.77 131.21 178.81 130.36 178.47 C 129.52 178.13 128.55 178.54 128.21 179.38 Z M 127.83 180.34 L 127.46 181.28 C 127.13 182.13 127.55 183.09 128.40 183.42 C 129.25 183.75 130.21 183.33 130.54 182.48 L 130.90 181.53 C 131.23 180.68 130.81 179.73 129.96 179.40 C 129.12 179.07 128.16 179.49 127.83 180.34 Z M 127.45 181.31 L 127.10 182.26 C 126.79 183.11 127.23 184.06 128.08 184.37 C 128.94 184.69 129.88 184.25 130.20 183.39 L 130.55 182.45 C 130.86 181.59 130.42 180.65 129.57 180.33 C 128.71 180.02 127.77 180.46 127.45 181.31 Z M 127.09 182.30 L 126.78 183.24 C 126.48 184.10 126.95 185.03 127.81 185.32 C 128.67 185.61 129.60 185.15 129.89 184.29 L 130.21 183.35 C 130.50 182.49 130.04 181.56 129.18 181.27 C 128.32 180.98 127.38 181.44 127.09 182.30 Z M 126.76 183.30 L 126.40 184.52 C 126.15 185.39 126.65 186.30 127.52 186.56 C 128.39 186.81 129.31 186.31 129.56 185.44 L 129.91 184.22 C 130.17 183.35 129.67 182.44 128.79 182.18 C 127.92 181.93 127.01 182.43 126.76 183.30 Z M 126.38 184.62 L 126.11 185.82 C 125.91 186.71 126.46 187.59 127.35 187.79 C 128.23 187.99 129.11 187.43 129.31 186.55 L 129.58 185.34 C 129.78 184.46 129.23 183.58 128.34 183.38 C 127.46 183.18 126.58 183.73 126.38 184.62 Z M 126.08 186.00 L 125.98 186.82 C 125.88 187.72 126.53 188.53 127.43 188.63 C 128.32 188.74 129.14 188.09 129.24 187.19 L 129.34 186.37 C 129.44 185.47 128.80 184.66 127.90 184.56 C 127.00 184.45 126.18 185.10 126.08 186.00 Z M 126.25 187.92 L 126.41 188.15 C 126.91 188.90 127.93 189.10 128.68 188.59 C 129.43 188.09 129.63 187.07 129.13 186.32 L 128.97 186.09 C 128.47 185.34 127.45 185.14 126.70 185.65 C 125.95 186.15 125.75 187.17 126.25 187.92 Z M 129.06 188.24 L 129.56 187.59 C 130.12 186.87 129.99 185.85 129.27 185.29 C 128.55 184.74 127.53 184.87 126.97 185.59 L 126.47 186.23 C 125.92 186.95 126.05 187.98 126.77 188.53 C 127.48 189.08 128.51 188.95 129.06 188.24 Z M 129.68 187.41 L 130.37 186.24 C 130.82 185.46 130.55 184.46 129.77 184.00 C 128.99 183.55 127.99 183.81 127.54 184.59 L 126.85 185.76 C 126.40 186.55 126.66 187.55 127.45 188.00 C 128.23 188.46 129.23 188.19 129.68 187.41 Z"
      fill="black"
      fill-rule="nonzero" /><path d="M 144.18 159.66 L 144.76 160.47 C 145.35 161.29 146.49 161.48 147.31 160.89 C 148.14 160.31 148.32 159.16 147.74 158.34 L 147.16 157.53 C 146.57 156.71 145.43 156.52 144.61 157.11 C 143.79 157.70 143.60 158.84 144.18 159.66 Z M 144.72 160.40 L 145.26 161.24 C 145.81 162.08 146.94 162.32 147.79 161.77 C 148.63 161.22 148.87 160.09 148.32 159.24 L 147.78 158.41 C 147.23 157.56 146.10 157.32 145.25 157.88 C 144.41 158.43 144.17 159.56 144.72 160.40 Z M 145.18 161.10 L 145.65 161.98 C 146.13 162.87 147.23 163.21 148.12 162.73 C 149.01 162.26 149.35 161.15 148.87 160.26 L 148.40 159.38 C 147.93 158.49 146.82 158.15 145.93 158.63 C 145.04 159.10 144.71 160.21 145.18 161.10 Z M 145.56 161.77 L 145.91 162.68 C 146.27 163.62 147.32 164.09 148.26 163.73 C 149.20 163.37 149.67 162.32 149.31 161.38 L 148.96 160.47 C 148.60 159.53 147.55 159.06 146.61 159.42 C 145.67 159.78 145.20 160.83 145.56 161.77 Z M 145.84 162.47 L 146.07 163.37 C 146.31 164.35 147.30 164.94 148.28 164.70 C 149.26 164.45 149.85 163.46 149.60 162.48 L 149.38 161.59 C 149.13 160.61 148.14 160.02 147.17 160.26 C 146.19 160.51 145.60 161.50 145.84 162.47 Z M 146.04 163.22 L 146.20 164.19 C 146.36 165.19 147.30 165.86 148.29 165.70 C 149.29 165.53 149.96 164.59 149.79 163.60 L 149.64 162.63 C 149.47 161.64 148.53 160.97 147.54 161.13 C 146.55 161.29 145.87 162.23 146.04 163.22 Z M 146.18 164.10 L 146.30 165.14 C 146.41 166.14 147.31 166.86 148.32 166.74 C 149.32 166.63 150.04 165.73 149.92 164.73 L 149.81 163.69 C 149.69 162.69 148.79 161.97 147.79 162.08 C 146.79 162.20 146.07 163.10 146.18 164.10 Z M 146.30 165.09 L 146.39 166.16 C 146.48 167.16 147.36 167.90 148.37 167.82 C 149.37 167.73 150.11 166.84 150.02 165.84 L 149.93 164.77 C 149.84 163.77 148.95 163.03 147.95 163.12 C 146.95 163.20 146.21 164.09 146.30 165.09 Z M 146.39 166.15 L 146.47 167.11 C 146.56 168.11 147.43 168.85 148.44 168.77 C 149.44 168.69 150.18 167.81 150.10 166.81 L 150.02 165.85 C 149.94 164.85 149.06 164.10 148.06 164.19 C 147.05 164.27 146.31 165.15 146.39 166.15 Z M 146.48 167.11 L 146.56 168.10 C 146.65 169.10 147.52 169.84 148.52 169.75 C 149.52 169.67 150.26 168.80 150.17 167.80 L 150.09 166.81 C 150.01 165.81 149.13 165.07 148.13 165.15 C 147.14 165.24 146.40 166.11 146.48 167.11 Z M 146.57 168.11 L 146.66 169.12 C 146.75 170.11 147.62 170.85 148.62 170.76 C 149.61 170.67 150.34 169.79 150.26 168.80 L 150.17 167.79 C 150.08 166.80 149.20 166.06 148.21 166.15 C 147.22 166.24 146.48 167.12 146.57 168.11 Z M 146.67 169.13 L 146.77 170.15 C 146.86 171.14 147.74 171.86 148.73 171.77 C 149.72 171.67 150.44 170.79 150.35 169.80 L 150.25 168.79 C 150.15 167.80 149.27 167.07 148.28 167.17 C 147.29 167.27 146.57 168.15 146.67 169.13 Z M 146.78 170.18 L 146.89 171.18 C 147.00 172.16 147.88 172.87 148.87 172.76 C 149.85 172.66 150.56 171.77 150.45 170.79 L 150.34 169.78 C 150.23 168.80 149.34 168.09 148.36 168.20 C 147.38 168.31 146.67 169.19 146.78 170.18 Z M 146.90 171.21 L 147.02 172.15 C 147.15 173.13 148.04 173.82 149.01 173.70 C 149.99 173.57 150.68 172.68 150.55 171.71 L 150.43 170.76 C 150.31 169.79 149.42 169.10 148.45 169.22 C 147.47 169.34 146.78 170.23 146.90 171.21 Z M 147.04 172.18 L 147.18 173.13 C 147.31 174.09 148.20 174.76 149.17 174.63 C 150.13 174.49 150.80 173.60 150.67 172.64 L 150.54 171.69 C 150.40 170.72 149.51 170.05 148.54 170.18 C 147.58 170.32 146.91 171.21 147.04 172.18 Z M 147.19 173.14 L 147.34 174.11 C 147.49 175.07 148.38 175.72 149.33 175.58 C 150.29 175.43 150.94 174.54 150.80 173.59 L 150.65 172.62 C 150.51 171.66 149.61 171.01 148.66 171.15 C 147.70 171.30 147.05 172.19 147.19 173.14 Z M 147.36 174.13 L 147.52 175.13 C 147.67 176.07 148.56 176.72 149.51 176.57 C 150.45 176.41 151.09 175.52 150.94 174.58 L 150.78 173.58 C 150.63 172.63 149.74 171.99 148.79 172.14 C 147.85 172.29 147.21 173.18 147.36 174.13 Z M 147.54 175.14 L 147.71 176.19 C 147.87 177.13 148.75 177.76 149.69 177.60 C 150.62 177.45 151.26 176.56 151.10 175.63 L 150.93 174.57 C 150.77 173.64 149.89 173.00 148.95 173.16 C 148.01 173.31 147.38 174.20 147.54 175.14 Z M 147.72 176.19 L 147.88 177.14 C 148.04 178.07 148.92 178.70 149.85 178.54 C 150.78 178.38 151.40 177.50 151.25 176.57 L 151.09 175.62 C 150.93 174.69 150.05 174.07 149.12 174.23 C 148.19 174.38 147.57 175.26 147.72 176.19 Z M 147.89 177.14 L 148.05 178.08 C 148.21 179.00 149.09 179.62 150.01 179.46 C 150.93 179.31 151.55 178.43 151.40 177.51 L 151.24 176.57 C 151.08 175.65 150.20 175.03 149.28 175.19 C 148.36 175.34 147.74 176.22 147.89 177.14 Z M 148.06 178.08 L 148.23 179.05 C 148.39 179.97 149.26 180.58 150.18 180.42 C 151.09 180.27 151.71 179.40 151.55 178.48 L 151.39 177.51 C 151.23 176.59 150.36 175.97 149.44 176.13 C 148.52 176.29 147.91 177.16 148.06 178.08 Z M 148.24 179.05 L 148.41 180.04 C 148.57 180.96 149.43 181.57 150.35 181.41 C 151.26 181.25 151.87 180.39 151.72 179.47 L 151.54 178.48 C 151.39 177.57 150.52 176.95 149.61 177.11 C 148.69 177.27 148.08 178.13 148.24 179.05 Z M 148.42 180.04 L 148.60 181.06 C 148.75 181.97 149.61 182.57 150.52 182.42 C 151.43 182.26 152.04 181.40 151.88 180.49 L 151.71 179.48 C 151.55 178.57 150.69 177.96 149.78 178.12 C 148.87 178.27 148.26 179.14 148.42 180.04 Z M 148.60 181.06 L 148.78 182.09 C 148.94 182.99 149.80 183.59 150.70 183.44 C 151.60 183.28 152.21 182.42 152.05 181.52 L 151.87 180.49 C 151.72 179.59 150.86 178.99 149.96 179.14 C 149.05 179.30 148.45 180.15 148.60 181.06 Z M 148.79 182.08 L 148.95 183.02 C 149.11 183.92 149.96 184.52 150.86 184.37 C 151.76 184.21 152.36 183.36 152.20 182.46 L 152.04 181.52 C 151.88 180.62 151.03 180.02 150.13 180.18 C 149.24 180.33 148.64 181.19 148.79 182.08 Z"
      fill="black"
      fill-rule="nonzero" /><path d="M 149.01 161.29 L 149.42 160.36 C 149.80 159.46 149.39 158.42 148.50 158.04 C 147.60 157.65 146.56 158.07 146.18 158.96 L 145.78 159.89 C 145.39 160.78 145.80 161.82 146.70 162.21 C 147.59 162.59 148.63 162.18 149.01 161.29 Z M 149.34 160.55 L 149.83 159.70 C 150.33 158.85 150.04 157.76 149.19 157.26 C 148.34 156.77 147.25 157.06 146.75 157.91 L 146.26 158.76 C 145.76 159.62 146.05 160.71 146.90 161.20 C 147.75 161.69 148.84 161.40 149.34 160.55 Z M 149.58 160.06 L 150.26 159.36 C 150.96 158.64 150.94 157.51 150.23 156.81 C 149.52 156.12 148.38 156.14 147.69 156.85 L 147.00 157.55 C 146.31 158.26 146.33 159.40 147.04 160.09 C 147.75 160.78 148.89 160.77 149.58 160.06 Z M 149.84 159.69 L 150.63 159.26 C 151.51 158.78 151.83 157.68 151.35 156.80 C 150.87 155.93 149.77 155.60 148.90 156.08 L 148.11 156.51 C 147.23 156.99 146.91 158.09 147.39 158.97 C 147.87 159.85 148.97 160.17 149.84 159.69 Z M 150.30 159.40 L 151.23 159.12 C 152.19 158.82 152.72 157.81 152.43 156.85 C 152.13 155.89 151.11 155.36 150.16 155.65 L 149.23 155.94 C 148.27 156.23 147.74 157.25 148.03 158.21 C 148.33 159.16 149.34 159.70 150.30 159.40 Z M 151.02 159.17 L 152.05 158.98 C 153.04 158.80 153.69 157.86 153.51 156.87 C 153.33 155.88 152.39 155.23 151.40 155.41 L 150.37 155.60 C 149.38 155.78 148.73 156.72 148.91 157.71 C 149.08 158.70 150.03 159.35 151.02 159.17 Z M 151.93 159.00 L 153.00 158.88 C 154.00 158.77 154.71 157.87 154.60 156.87 C 154.49 155.87 153.59 155.16 152.59 155.27 L 151.52 155.39 C 150.52 155.50 149.81 156.40 149.92 157.40 C 150.03 158.40 150.93 159.12 151.93 159.00 Z M 152.93 158.89 L 153.95 158.81 C 154.95 158.74 155.70 157.86 155.62 156.86 C 155.54 155.86 154.67 155.11 153.67 155.18 L 152.65 155.26 C 151.65 155.34 150.90 156.21 150.98 157.22 C 151.06 158.22 151.93 158.97 152.93 158.89 Z M 153.90 158.82 L 154.91 158.76 C 155.91 158.71 156.68 157.86 156.63 156.85 C 156.58 155.85 155.72 155.08 154.72 155.13 L 153.71 155.18 C 152.71 155.23 151.94 156.09 151.99 157.09 C 152.04 158.10 152.90 158.87 153.90 158.82 Z M 154.87 158.77 L 155.87 158.73 C 156.87 158.70 157.66 157.86 157.63 156.85 C 157.59 155.85 156.75 155.06 155.75 155.09 L 154.75 155.13 C 153.75 155.16 152.96 156.00 153.00 157.01 C 153.03 158.01 153.87 158.80 154.87 158.77 Z M 155.84 158.73 L 156.83 158.71 C 157.83 158.69 158.63 157.86 158.61 156.86 C 158.59 155.85 157.76 155.05 156.76 155.07 L 155.77 155.09 C 154.77 155.11 153.97 155.95 153.99 156.95 C 154.01 157.95 154.84 158.75 155.84 158.73 Z M 156.81 158.71 L 157.83 158.70 C 158.84 158.68 159.64 157.86 159.63 156.86 C 159.61 155.86 158.79 155.05 157.79 155.07 L 156.77 155.08 C 155.77 155.09 154.97 155.91 154.98 156.91 C 154.99 157.92 155.81 158.72 156.81 158.71 Z M 157.82 158.69 L 158.82 158.69 C 159.82 158.68 160.62 157.87 160.62 156.87 C 160.61 155.87 159.80 155.06 158.80 155.07 L 157.80 155.07 C 156.80 155.08 156.00 155.89 156.00 156.89 C 156.01 157.89 156.82 158.70 157.82 158.69 Z M 158.81 158.68 L 159.80 158.68 C 160.79 158.68 161.60 157.87 161.60 156.87 C 161.59 155.88 160.79 155.07 159.79 155.07 L 158.80 155.07 C 157.81 155.07 157.00 155.88 157.00 156.88 C 157.01 157.87 157.81 158.68 158.81 158.68 Z M 159.79 158.67 L 160.74 158.67 C 161.74 158.67 162.54 157.87 162.54 156.88 C 162.54 155.88 161.74 155.08 160.75 155.08 L 159.79 155.08 C 158.80 155.08 158.00 155.88 158.00 156.87 C 157.99 157.87 158.80 158.67 159.79 158.67 Z M 160.71 158.67 L 161.65 158.68 C 162.63 158.70 163.45 157.92 163.47 156.93 C 163.49 155.94 162.70 155.12 161.72 155.10 L 160.78 155.09 C 159.79 155.07 158.97 155.85 158.95 156.84 C 158.93 157.83 159.72 158.65 160.71 158.67 Z M 161.56 158.67 L 162.53 158.74 C 163.52 158.81 164.37 158.07 164.44 157.09 C 164.51 156.10 163.77 155.25 162.78 155.18 L 161.81 155.11 C 160.82 155.04 159.97 155.79 159.90 156.77 C 159.83 157.75 160.57 158.60 161.56 158.67 Z M 162.40 158.72 L 163.45 158.87 C 164.42 159.02 165.32 158.34 165.46 157.37 C 165.61 156.40 164.93 155.50 163.96 155.36 L 162.92 155.20 C 161.95 155.06 161.04 155.73 160.90 156.71 C 160.76 157.68 161.43 158.58 162.40 158.72 Z M 163.30 158.84 L 164.32 159.08 C 165.28 159.30 166.23 158.71 166.45 157.75 C 166.67 156.80 166.08 155.85 165.13 155.63 L 164.11 155.39 C 163.15 155.17 162.20 155.76 161.98 156.71 C 161.76 157.67 162.35 158.62 163.30 158.84 Z M 164.21 159.04 L 165.18 159.34 C 166.11 159.62 167.10 159.10 167.38 158.17 C 167.67 157.23 167.14 156.25 166.21 155.96 L 165.24 155.66 C 164.31 155.38 163.32 155.90 163.04 156.83 C 162.75 157.77 163.27 158.76 164.21 159.04 Z M 165.09 159.30 L 166.07 159.66 C 166.98 159.99 167.99 159.52 168.32 158.61 C 168.66 157.70 168.19 156.68 167.27 156.35 L 166.30 155.99 C 165.38 155.66 164.37 156.13 164.04 157.05 C 163.71 157.96 164.18 158.97 165.09 159.30 Z M 165.99 159.63 L 166.94 160.02 C 167.83 160.40 168.86 159.98 169.24 159.08 C 169.61 158.19 169.19 157.16 168.29 156.78 L 167.35 156.39 C 166.45 156.01 165.42 156.43 165.05 157.33 C 164.67 158.22 165.10 159.25 165.99 159.63 Z M 166.86 159.98 L 167.74 160.40 C 168.61 160.82 169.66 160.44 170.07 159.57 C 170.49 158.70 170.12 157.65 169.24 157.24 L 168.37 156.82 C 167.49 156.40 166.45 156.78 166.03 157.65 C 165.62 158.52 165.99 159.57 166.86 159.98 Z M 167.65 160.34 L 168.57 160.85 C 169.41 161.32 170.47 161.02 170.94 160.17 C 171.40 159.33 171.10 158.27 170.26 157.80 L 169.34 157.29 C 168.49 156.83 167.43 157.13 166.97 157.97 C 166.50 158.82 166.80 159.88 167.65 160.34 Z M 168.43 160.75 L 169.27 161.33 C 170.05 161.87 171.13 161.68 171.67 160.89 C 172.22 160.10 172.02 159.02 171.23 158.48 L 170.40 157.90 C 169.61 157.36 168.53 157.56 167.99 158.35 C 167.44 159.13 167.64 160.21 168.43 160.75 Z M 169.10 161.18 L 169.80 161.81 C 170.50 162.45 171.58 162.40 172.22 161.70 C 172.86 160.99 172.81 159.91 172.10 159.27 L 171.40 158.63 C 170.70 158.00 169.62 158.05 168.98 158.75 C 168.34 159.46 168.39 160.54 169.10 161.18 Z M 169.64 161.63 L 170.25 162.36 C 170.85 163.09 171.93 163.18 172.65 162.58 C 173.37 161.98 173.47 160.90 172.87 160.18 L 172.26 159.45 C 171.66 158.73 170.58 158.63 169.86 159.23 C 169.14 159.84 169.04 160.91 169.64 161.63 Z M 170.14 162.20 L 170.65 162.98 C 171.17 163.76 172.22 163.98 173.00 163.46 C 173.78 162.95 174.00 161.90 173.48 161.12 L 172.97 160.34 C 172.46 159.56 171.41 159.34 170.63 159.86 C 169.85 160.37 169.63 161.42 170.14 162.20 Z M 170.58 162.84 L 171.04 163.71 C 171.47 164.53 172.49 164.84 173.32 164.41 C 174.14 163.97 174.45 162.95 174.02 162.13 L 173.56 161.26 C 173.12 160.44 172.10 160.12 171.28 160.56 C 170.46 160.99 170.14 162.01 170.58 162.84 Z M 170.98 163.56 L 171.37 164.51 C 171.73 165.37 172.71 165.77 173.57 165.41 C 174.42 165.06 174.83 164.07 174.47 163.22 L 174.08 162.27 C 173.72 161.42 172.74 161.01 171.88 161.37 C 171.03 161.73 170.62 162.71 170.98 163.56 Z M 171.33 164.36 L 171.64 165.37 C 171.92 166.25 172.86 166.74 173.74 166.47 C 174.62 166.19 175.11 165.25 174.83 164.37 L 174.52 163.37 C 174.24 162.49 173.31 162.00 172.42 162.27 C 171.54 162.55 171.05 163.48 171.33 164.36 Z M 171.61 165.22 L 171.82 166.23 C 172.01 167.13 172.90 167.70 173.80 167.51 C 174.69 167.32 175.27 166.44 175.08 165.54 L 174.87 164.53 C 174.68 163.63 173.79 163.05 172.89 163.24 C 171.99 163.43 171.42 164.32 171.61 165.22 Z M 171.80 166.07 L 171.92 167.09 C 172.02 168.00 172.84 168.65 173.75 168.55 C 174.66 168.45 175.31 167.63 175.21 166.72 L 175.10 165.70 C 175.00 164.79 174.18 164.13 173.27 164.24 C 172.36 164.34 171.70 165.16 171.80 166.07 Z M 171.91 166.91 L 171.92 167.91 C 171.93 168.83 172.67 169.56 173.58 169.56 C 174.49 169.55 175.23 168.80 175.22 167.89 L 175.22 166.89 C 175.21 165.98 174.47 165.24 173.55 165.25 C 172.64 165.26 171.91 166.00 171.91 166.91 Z M 171.94 167.71 L 171.83 168.67 C 171.72 169.57 172.37 170.39 173.27 170.49 C 174.18 170.60 174.99 169.95 175.10 169.05 L 175.21 168.09 C 175.31 167.19 174.66 166.37 173.76 166.27 C 172.86 166.16 172.04 166.81 171.94 167.71 Z M 171.88 168.43 L 171.62 169.38 C 171.38 170.25 171.90 171.15 172.77 171.39 C 173.65 171.63 174.55 171.11 174.79 170.24 L 175.05 169.29 C 175.28 168.41 174.77 167.51 173.89 167.27 C 173.02 167.04 172.11 167.55 171.88 168.43 Z M 171.71 169.13 L 171.30 170.03 C 170.93 170.85 171.30 171.82 172.13 172.20 C 172.95 172.57 173.92 172.20 174.30 171.38 L 174.70 170.48 C 175.07 169.66 174.70 168.68 173.88 168.31 C 173.05 167.94 172.08 168.31 171.71 169.13 Z M 171.41 169.83 L 170.89 170.67 C 170.41 171.44 170.64 172.45 171.41 172.93 C 172.18 173.41 173.19 173.18 173.67 172.41 L 174.19 171.57 C 174.67 170.80 174.44 169.79 173.67 169.31 C 172.90 168.83 171.89 169.07 171.41 169.83 Z M 170.98 170.55 L 170.36 171.36 C 169.81 172.08 169.94 173.10 170.66 173.65 C 171.38 174.20 172.41 174.07 172.96 173.35 L 173.58 172.54 C 174.13 171.82 173.99 170.79 173.27 170.24 C 172.55 169.69 171.52 169.83 170.98 170.55 Z M 170.42 171.28 L 169.78 172.01 C 169.19 172.70 169.27 173.73 169.95 174.33 C 170.64 174.92 171.68 174.84 172.27 174.15 L 172.90 173.42 C 173.49 172.74 173.41 171.70 172.73 171.11 C 172.04 170.52 171.01 170.60 170.42 171.28 Z M 169.84 171.96 L 169.15 172.68 C 168.53 173.33 168.56 174.37 169.21 174.99 C 169.87 175.62 170.91 175.59 171.53 174.93 L 172.22 174.21 C 172.84 173.56 172.81 172.52 172.15 171.89 C 171.50 171.27 170.46 171.30 169.84 171.96 Z M 169.20 172.62 L 168.48 173.33 C 167.82 173.95 167.80 174.99 168.43 175.64 C 169.06 176.30 170.10 176.32 170.75 175.69 L 171.48 174.99 C 172.13 174.36 172.15 173.32 171.52 172.67 C 170.90 172.01 169.86 171.99 169.20 172.62 Z M 168.53 173.27 L 167.76 173.95 C 167.08 174.55 167.01 175.59 167.61 176.27 C 168.21 176.95 169.25 177.01 169.93 176.42 L 170.70 175.74 C 171.38 175.14 171.44 174.10 170.85 173.42 C 170.25 172.74 169.21 172.68 168.53 173.27 Z M 167.82 173.90 L 167.04 174.53 C 166.33 175.09 166.21 176.13 166.78 176.84 C 167.35 177.54 168.38 177.66 169.09 177.09 L 169.87 176.46 C 170.58 175.90 170.69 174.86 170.13 174.16 C 169.56 173.45 168.53 173.33 167.82 173.90 Z M 167.09 174.48 L 166.29 175.07 C 165.55 175.61 165.40 176.64 165.93 177.37 C 166.47 178.11 167.50 178.26 168.23 177.72 L 169.04 177.13 C 169.77 176.60 169.93 175.57 169.39 174.84 C 168.85 174.10 167.82 173.95 167.09 174.48 Z M 166.33 175.04 L 165.51 175.60 C 164.75 176.11 164.56 177.14 165.07 177.89 C 165.59 178.64 166.61 178.84 167.36 178.32 L 168.19 177.76 C 168.94 177.25 169.13 176.22 168.62 175.47 C 168.11 174.72 167.08 174.53 166.33 175.04 Z M 165.54 175.57 L 164.70 176.12 C 163.93 176.61 163.71 177.63 164.20 178.39 C 164.69 179.16 165.71 179.38 166.48 178.89 L 167.32 178.35 C 168.09 177.86 168.31 176.84 167.82 176.07 C 167.33 175.31 166.31 175.08 165.54 175.57 Z M 164.73 176.09 L 163.87 176.61 C 163.09 177.09 162.85 178.11 163.32 178.88 C 163.80 179.66 164.81 179.91 165.59 179.44 L 166.45 178.92 C 167.23 178.44 167.47 177.42 167.00 176.64 C 166.53 175.87 165.51 175.62 164.73 176.09 Z M 163.90 176.60 L 163.04 177.10 C 162.25 177.56 161.98 178.58 162.44 179.36 C 162.90 180.15 163.92 180.42 164.71 179.96 L 165.57 179.45 C 166.36 178.99 166.62 177.98 166.16 177.19 C 165.70 176.40 164.69 176.13 163.90 176.60 Z M 163.05 177.08 L 162.18 177.58 C 161.38 178.03 161.10 179.04 161.55 179.84 C 162.00 180.64 163.02 180.92 163.82 180.47 L 164.69 179.97 C 165.49 179.52 165.77 178.51 165.32 177.71 C 164.87 176.91 163.85 176.63 163.05 177.08 Z M 162.20 177.56 L 161.32 178.05 C 160.51 178.49 160.22 179.50 160.66 180.31 C 161.11 181.11 162.12 181.41 162.92 180.96 L 163.80 180.48 C 164.61 180.04 164.90 179.03 164.46 178.22 C 164.02 177.41 163.00 177.12 162.20 177.56 Z M 161.33 178.03 L 160.45 178.51 C 159.63 178.95 159.33 179.96 159.77 180.77 C 160.20 181.58 161.22 181.89 162.03 181.45 L 162.91 180.97 C 163.72 180.54 164.03 179.52 163.59 178.71 C 163.15 177.90 162.14 177.60 161.33 178.03 Z M 160.45 178.50 L 159.53 178.98 C 158.72 179.42 158.40 180.43 158.84 181.25 C 159.27 182.07 160.29 182.38 161.11 181.95 L 162.02 181.46 C 162.84 181.03 163.15 180.01 162.72 179.19 C 162.29 178.38 161.27 178.06 160.45 178.50 Z M 159.54 178.97 L 158.63 179.44 C 157.81 179.87 157.48 180.89 157.92 181.72 C 158.35 182.55 159.37 182.87 160.20 182.44 L 161.10 181.96 C 161.93 181.53 162.25 180.51 161.82 179.68 C 161.39 178.86 160.37 178.54 159.54 178.97 Z M 158.64 179.42 L 157.75 179.88 C 156.92 180.31 156.59 181.33 157.02 182.17 C 157.45 183.01 158.47 183.34 159.31 182.91 L 160.19 182.45 C 161.03 182.02 161.36 181.00 160.93 180.16 C 160.50 179.32 159.47 178.99 158.64 179.42 Z M 157.76 179.86 L 156.91 180.29 C 156.06 180.72 155.73 181.75 156.15 182.59 C 156.58 183.44 157.61 183.78 158.46 183.35 L 159.31 182.92 C 160.15 182.50 160.49 181.46 160.06 180.62 C 159.64 179.77 158.60 179.43 157.76 179.86 Z M 156.91 180.27 L 156.05 180.70 C 155.20 181.12 154.85 182.16 155.27 183.02 C 155.70 183.87 156.74 184.22 157.59 183.80 L 158.45 183.37 C 159.31 182.95 159.66 181.91 159.23 181.05 C 158.81 180.20 157.77 179.85 156.91 180.27 Z M 156.06 180.67 L 155.20 181.09 C 154.33 181.51 153.97 182.55 154.39 183.42 C 154.81 184.29 155.86 184.66 156.73 184.24 L 157.58 183.82 C 158.45 183.40 158.82 182.36 158.40 181.49 C 157.98 180.62 156.93 180.25 156.06 180.67 Z M 155.21 181.06 L 154.31 181.48 C 153.43 181.90 153.05 182.95 153.47 183.84 C 153.88 184.72 154.93 185.10 155.82 184.68 L 156.72 184.26 C 157.60 183.85 157.98 182.79 157.57 181.91 C 157.15 181.03 156.10 180.65 155.21 181.06 Z M 154.32 181.46 L 153.34 181.91 C 152.44 182.32 152.04 183.38 152.45 184.28 C 152.86 185.18 153.92 185.57 154.82 185.16 L 155.81 184.71 C 156.71 184.30 157.10 183.24 156.69 182.34 C 156.28 181.44 155.22 181.05 154.32 181.46 Z M 153.34 181.88 L 152.17 182.41 C 151.26 182.82 150.85 183.89 151.26 184.80 C 151.67 185.71 152.74 186.12 153.66 185.71 L 154.82 185.19 C 155.73 184.78 156.14 183.71 155.73 182.79 C 155.32 181.88 154.25 181.47 153.34 181.88 Z M 152.15 182.38 L 151.05 182.88 C 150.13 183.30 149.72 184.40 150.14 185.32 C 150.57 186.25 151.66 186.66 152.58 186.24 L 153.68 185.74 C 154.61 185.31 155.01 184.22 154.59 183.29 C 154.17 182.37 153.08 181.96 152.15 182.38 Z M 150.99 182.88 L 150.20 183.27 C 149.27 183.73 148.89 184.85 149.34 185.78 C 149.80 186.71 150.93 187.09 151.85 186.63 L 152.65 186.24 C 153.58 185.78 153.96 184.66 153.50 183.73 C 153.04 182.80 151.92 182.42 150.99 182.88 Z M 149.88 183.44 L 149.61 183.64 C 148.78 184.27 148.61 185.47 149.25 186.30 C 149.88 187.14 151.08 187.30 151.91 186.66 L 152.18 186.46 C 153.01 185.83 153.17 184.64 152.54 183.80 C 151.90 182.96 150.71 182.80 149.88 183.44 Z M 150.93 187.06 L 151.32 187.02 C 152.38 186.93 153.16 186.00 153.06 184.95 C 152.97 183.90 152.05 183.12 151.00 183.21 L 150.60 183.25 C 149.54 183.34 148.77 184.26 148.86 185.32 C 148.95 186.37 149.87 187.15 150.93 187.06 Z M 151.61 186.98 L 152.60 186.74 C 153.62 186.49 154.25 185.46 154.01 184.43 C 153.76 183.40 152.72 182.77 151.70 183.02 L 150.71 183.26 C 149.68 183.51 149.05 184.54 149.30 185.57 C 149.55 186.59 150.58 187.23 151.61 186.98 Z M 152.65 186.73 L 154.12 186.33 C 155.14 186.05 155.74 185.00 155.47 183.98 C 155.19 182.96 154.14 182.36 153.12 182.63 L 151.65 183.03 C 150.63 183.31 150.02 184.36 150.30 185.38 C 150.57 186.40 151.63 187.00 152.65 186.73 Z M 154.13 186.33 L 155.12 186.05 C 156.14 185.77 156.74 184.71 156.46 183.69 C 156.18 182.67 155.12 182.08 154.10 182.36 L 153.11 182.64 C 152.09 182.92 151.49 183.97 151.77 184.99 C 152.05 186.01 153.11 186.61 154.13 186.33 Z M 155.13 186.05 L 155.98 185.81 C 157.00 185.53 157.60 184.47 157.32 183.46 C 157.03 182.44 155.98 181.84 154.96 182.12 L 154.10 182.36 C 153.08 182.64 152.49 183.70 152.77 184.72 C 153.05 185.74 154.11 186.33 155.13 186.05 Z M 155.98 185.81 L 156.89 185.56 C 157.91 185.27 158.51 184.22 158.23 183.20 C 157.95 182.19 156.89 181.59 155.87 181.87 L 154.96 182.12 C 153.94 182.41 153.35 183.46 153.63 184.48 C 153.91 185.49 154.96 186.09 155.98 185.81 Z M 156.89 185.56 L 157.85 185.29 C 158.87 185.01 159.46 183.96 159.19 182.94 C 158.91 181.93 157.85 181.33 156.84 181.61 L 155.88 181.87 C 154.86 182.15 154.26 183.20 154.54 184.22 C 154.82 185.24 155.87 185.84 156.89 185.56 Z M 157.85 185.29 L 158.84 185.02 C 159.86 184.74 160.46 183.69 160.18 182.68 C 159.90 181.66 158.85 181.06 157.84 181.34 L 156.84 181.61 C 155.82 181.89 155.23 182.94 155.50 183.95 C 155.78 184.97 156.83 185.57 157.85 185.29 Z M 158.84 185.02 L 159.86 184.74 C 160.88 184.47 161.48 183.42 161.21 182.41 C 160.93 181.39 159.89 180.79 158.87 181.06 L 157.84 181.34 C 156.83 181.61 156.23 182.66 156.50 183.67 C 156.77 184.69 157.82 185.29 158.84 185.02 Z M 159.86 184.74 L 160.90 184.46 C 161.92 184.19 162.52 183.15 162.25 182.14 C 161.99 181.12 160.94 180.51 159.93 180.78 L 158.88 181.06 C 157.86 181.33 157.26 182.37 157.53 183.39 C 157.80 184.41 158.84 185.01 159.86 184.74 Z M 160.89 184.46 L 161.95 184.19 C 162.97 183.92 163.58 182.89 163.32 181.87 C 163.05 180.85 162.01 180.24 160.99 180.51 L 159.93 180.78 C 158.92 181.05 158.31 182.09 158.57 183.10 C 158.84 184.12 159.88 184.73 160.89 184.46 Z M 161.94 184.18 L 163.01 183.91 C 164.03 183.65 164.64 182.62 164.38 181.61 C 164.12 180.59 163.09 179.98 162.08 180.24 L 161.01 180.51 C 159.99 180.77 159.38 181.80 159.64 182.81 C 159.90 183.83 160.93 184.44 161.94 184.18 Z M 163.00 183.90 L 164.07 183.63 C 165.07 183.38 165.69 182.36 165.44 181.36 C 165.19 180.35 164.17 179.74 163.16 179.99 L 162.09 180.25 C 161.09 180.50 160.47 181.52 160.72 182.53 C 160.97 183.53 161.99 184.15 163.00 183.90 Z M 164.06 183.62 L 165.11 183.36 C 166.11 183.11 166.72 182.11 166.47 181.11 C 166.23 180.11 165.22 179.50 164.23 179.75 L 163.17 180.00 C 162.18 180.25 161.57 181.25 161.81 182.25 C 162.05 183.25 163.06 183.86 164.06 183.62 Z M 165.10 183.34 L 166.12 183.10 C 167.11 182.86 167.72 181.86 167.48 180.88 C 167.25 179.89 166.25 179.28 165.26 179.52 L 164.24 179.76 C 163.25 180.00 162.64 180.99 162.88 181.98 C 163.12 182.97 164.11 183.58 165.10 183.34 Z M 166.11 183.08 L 167.10 182.84 C 168.08 182.61 168.69 181.63 168.45 180.65 C 168.22 179.67 167.24 179.07 166.26 179.30 L 165.27 179.53 C 164.30 179.77 163.69 180.75 163.92 181.73 C 164.15 182.70 165.13 183.31 166.11 183.08 Z M 167.09 182.83 L 168.03 182.61 C 169.00 182.38 169.61 181.41 169.38 180.44 C 169.15 179.47 168.18 178.87 167.21 179.10 L 166.27 179.32 C 165.30 179.54 164.70 180.51 164.93 181.48 C 165.15 182.45 166.12 183.05 167.09 182.83 Z M 168.03 182.59 L 168.91 182.38 C 169.87 182.16 170.47 181.20 170.24 180.24 C 170.02 179.28 169.06 178.69 168.10 178.91 L 167.22 179.11 C 166.26 179.34 165.66 180.30 165.89 181.26 C 166.11 182.21 167.07 182.81 168.03 182.59 Z M 168.90 182.37 L 169.72 182.18 C 170.67 181.96 171.26 181.01 171.04 180.06 C 170.82 179.11 169.87 178.52 168.92 178.74 L 168.11 178.93 C 167.16 179.15 166.57 180.09 166.79 181.04 C 167.00 181.99 167.95 182.59 168.90 182.37 Z M 169.71 182.16 L 170.89 181.89 C 171.83 181.67 172.41 180.73 172.19 179.79 C 171.98 178.86 171.04 178.27 170.10 178.49 L 168.93 178.76 C 167.99 178.98 167.40 179.91 167.62 180.85 C 167.84 181.79 168.77 182.37 169.71 182.16 Z M 170.88 181.86 L 171.96 181.61 C 172.89 181.40 173.47 180.48 173.25 179.55 C 173.04 178.63 172.12 178.05 171.19 178.26 L 170.11 178.51 C 169.18 178.73 168.61 179.65 168.82 180.57 C 169.03 181.50 169.96 182.07 170.88 181.86 Z M 171.96 181.59 L 172.87 181.38 C 173.78 181.17 174.35 180.26 174.14 179.35 C 173.93 178.44 173.03 177.87 172.12 178.08 L 171.20 178.29 C 170.29 178.50 169.72 179.40 169.93 180.32 C 170.14 181.23 171.05 181.80 171.96 181.59 Z M 172.86 181.35 L 173.67 181.17 C 174.56 180.97 175.13 180.07 174.92 179.18 C 174.72 178.28 173.83 177.72 172.93 177.92 L 172.12 178.10 C 171.23 178.31 170.66 179.20 170.87 180.10 C 171.07 180.99 171.97 181.56 172.86 181.35 Z M 173.66 181.15 L 174.47 180.97 C 175.36 180.77 175.92 179.89 175.72 179.00 C 175.52 178.11 174.64 177.56 173.75 177.75 L 172.94 177.94 C 172.05 178.14 171.49 179.02 171.69 179.91 C 171.89 180.79 172.77 181.35 173.66 181.15 Z M 174.46 180.96 L 175.36 180.77 C 176.25 180.58 176.81 179.70 176.62 178.82 C 176.43 177.93 175.55 177.37 174.67 177.56 L 173.77 177.76 C 172.88 177.95 172.32 178.82 172.51 179.71 C 172.70 180.59 173.58 181.15 174.46 180.96 Z M 175.34 180.77 L 176.30 180.58 C 177.19 180.40 177.76 179.54 177.58 178.65 C 177.40 177.76 176.54 177.19 175.65 177.37 L 174.69 177.56 C 173.81 177.74 173.23 178.60 173.41 179.49 C 173.59 180.38 174.45 180.95 175.34 180.77 Z M 176.27 180.58 L 177.35 180.39 C 178.24 180.22 178.83 179.37 178.67 178.48 C 178.51 177.59 177.66 177.00 176.77 177.16 L 175.68 177.36 C 174.79 177.52 174.20 178.38 174.37 179.27 C 174.53 180.16 175.38 180.75 176.27 180.58 Z M 177.33 180.39 L 178.24 180.24 C 179.14 180.09 179.74 179.25 179.59 178.36 C 179.44 177.46 178.60 176.86 177.71 177.01 L 176.79 177.16 C 175.90 177.31 175.30 178.15 175.44 179.04 C 175.59 179.94 176.44 180.54 177.33 180.39 Z M 178.23 180.24 L 179.16 180.10 C 180.06 179.96 180.67 179.12 180.53 178.23 C 180.39 177.33 179.55 176.72 178.66 176.86 L 177.72 177.01 C 176.83 177.15 176.22 177.98 176.36 178.88 C 176.50 179.77 177.34 180.38 178.23 180.24 Z M 179.15 180.10 L 180.15 179.95 C 181.04 179.81 181.66 178.98 181.52 178.09 C 181.39 177.19 180.56 176.58 179.66 176.71 L 178.67 176.86 C 177.77 176.99 177.16 177.83 177.29 178.72 C 177.43 179.61 178.26 180.23 179.15 180.10 Z M 180.14 179.95 L 181.18 179.80 C 182.07 179.67 182.69 178.84 182.56 177.94 C 182.43 177.05 181.60 176.43 180.71 176.56 L 179.67 176.71 C 178.78 176.84 178.16 177.67 178.29 178.56 C 178.42 179.46 179.25 180.08 180.14 179.95 Z M 181.18 179.80 L 182.24 179.65 C 183.13 179.52 183.75 178.69 183.63 177.79 C 183.50 176.90 182.67 176.28 181.77 176.41 L 180.71 176.56 C 179.82 176.69 179.19 177.52 179.32 178.41 C 179.45 179.31 180.28 179.93 181.18 179.80 Z M 182.24 179.65 L 182.64 179.59 C 183.53 179.46 184.16 178.63 184.03 177.74 C 183.90 176.84 183.07 176.22 182.18 176.35 L 181.77 176.40 C 180.88 176.53 180.26 177.36 180.38 178.26 C 180.51 179.15 181.34 179.77 182.24 179.65 Z"
      fill="black"
      fill-rule="nonzero" /></svg>