<svg xmlns="http://www.w3.org/2000/svg" width="300" height="300" viewBox="0 0 300 300">
<path d="M 104.65 165.30 L 105.57 165.04 C 106.49 164.77 107.02 163.81 106.75 162.89 C 106.48 161.97 105.52 161.44 104.60 161.71 L 103.68 161.98 C 102.76 162.24 102.23 163.20 102.50 164.12 C 102.76 165.04 103.73 165.57 104.65 165.30 Z M 105.58 165.11 L 106.52 164.84 C 107.48 164.57 108.04 163.57 107.77 162.61 C 107.49 161.65 106.50 161.09 105.54 161.37 L 104.59 161.63 C 103.63 161.91 103.07 162.91 103.35 163.87 C 103.62 164.83 104.62 165.38 105.58 165.11 Z M 106.52 164.92 L 107.51 164.65 C 108.51 164.38 109.10 163.35 108.83 162.34 C 108.56 161.34 107.53 160.75 106.53 161.02 L 105.54 161.29 C 104.54 161.56 103.94 162.59 104.21 163.60 C 104.49 164.60 105.52 165.19 106.52 164.92 Z M 107.50 164.71 L 108.44 164.47 C 109.47 164.21 110.10 163.15 109.83 162.12 C 109.57 161.08 108.52 160.46 107.48 160.72 L 106.54 160.96 C 105.51 161.23 104.88 162.28 105.14 163.31 C 105.41 164.35 106.46 164.97 107.50 164.71 Z M 108.42 164.49 L 109.32 164.28 C 110.37 164.03 111.01 162.97 110.76 161.92 C 110.51 160.88 109.46 160.23 108.41 160.48 L 107.50 160.70 C 106.46 160.95 105.81 162.00 106.06 163.05 C 106.31 164.10 107.37 164.75 108.42 164.49 Z M 109.30 164.28 L 110.26 164.06 C 111.31 163.82 111.97 162.78 111.73 161.73 C 111.49 160.68 110.44 160.02 109.39 160.26 L 108.43 160.48 C 107.38 160.72 106.72 161.76 106.96 162.81 C 107.20 163.86 108.24 164.52 109.30 164.28 Z M 110.24 164.07 L 111.27 163.85 C 112.32 163.62 112.99 162.58 112.76 161.52 C 112.54 160.47 111.50 159.80 110.44 160.03 L 109.41 160.25 C 108.36 160.48 107.69 161.52 107.92 162.57 C 108.15 163.63 109.19 164.30 110.24 164.07 Z M 111.25 163.85 L 112.29 163.63 C 113.35 163.41 114.03 162.38 113.81 161.32 C 113.59 160.27 112.55 159.59 111.50 159.81 L 110.46 160.02 C 109.40 160.24 108.72 161.28 108.94 162.33 C 109.16 163.39 110.20 164.07 111.25 163.85 Z M 112.28 163.64 L 113.17 163.46 C 114.23 163.24 114.91 162.21 114.70 161.16 C 114.49 160.10 113.46 159.41 112.40 159.63 L 111.51 159.80 C 110.45 160.02 109.77 161.05 109.98 162.11 C 110.19 163.16 111.22 163.85 112.28 163.64 Z M 113.16 163.46 L 114.10 163.27 C 115.16 163.06 115.85 162.04 115.64 160.98 C 115.43 159.92 114.40 159.23 113.34 159.44 L 112.41 159.62 C 111.35 159.83 110.66 160.86 110.87 161.92 C 111.08 162.98 112.11 163.67 113.16 163.46 Z M 114.09 163.27 L 115.07 163.08 C 116.13 162.88 116.82 161.85 116.62 160.79 C 116.41 159.73 115.38 159.04 114.33 159.25 L 113.35 159.44 C 112.29 159.64 111.60 160.67 111.80 161.73 C 112.01 162.79 113.03 163.48 114.09 163.27 Z M 115.07 163.08 L 116.09 162.89 C 117.15 162.68 117.84 161.66 117.64 160.60 C 117.43 159.54 116.41 158.85 115.35 159.05 L 114.33 159.25 C 113.27 159.45 112.58 160.48 112.78 161.54 C 112.98 162.60 114.01 163.29 115.07 163.08 Z M 116.09 162.89 L 117.15 162.68 C 118.21 162.48 118.90 161.46 118.70 160.40 C 118.50 159.34 117.48 158.65 116.42 158.85 L 115.35 159.05 C 114.29 159.25 113.60 160.28 113.80 161.34 C 114.00 162.40 115.03 163.09 116.09 162.89 Z M 117.15 162.68 L 118.13 162.50 C 119.19 162.29 119.89 161.27 119.68 160.21 C 119.48 159.15 118.46 158.46 117.40 158.66 L 116.42 158.85 C 115.36 159.05 114.66 160.07 114.87 161.13 C 115.07 162.19 116.09 162.89 117.15 162.68 Z M 118.13 162.50 L 119.05 162.32 C 120.11 162.12 120.81 161.09 120.60 160.03 C 120.40 158.98 119.38 158.28 118.32 158.48 L 117.40 158.66 C 116.34 158.86 115.64 159.89 115.85 160.95 C 116.05 162.00 117.07 162.70 118.13 162.50 Z M 119.05 162.32 L 120.00 162.14 C 121.06 161.94 121.75 160.91 121.55 159.85 C 121.35 158.80 120.32 158.10 119.26 158.30 L 118.32 158.48 C 117.26 158.69 116.56 159.71 116.77 160.77 C 116.97 161.83 117.99 162.52 119.05 162.32 Z M 120.00 162.14 L 120.97 161.95 C 122.03 161.75 122.72 160.73 122.52 159.67 C 122.32 158.61 121.30 157.92 120.24 158.12 L 119.26 158.30 C 118.21 158.51 117.51 159.53 117.71 160.59 C 117.92 161.65 118.94 162.34 120.00 162.14 Z M 120.97 161.95 L 121.97 161.76 C 123.02 161.56 123.72 160.54 123.52 159.48 C 123.32 158.42 122.30 157.73 121.24 157.93 L 120.24 158.12 C 119.18 158.32 118.48 159.34 118.69 160.40 C 118.89 161.46 119.91 162.15 120.97 161.95 Z M 121.96 161.76 L 122.99 161.57 C 124.05 161.37 124.74 160.35 124.54 159.29 C 124.34 158.23 123.32 157.54 122.26 157.74 L 121.24 157.93 C 120.18 158.13 119.48 159.15 119.68 160.21 C 119.88 161.27 120.90 161.96 121.96 161.76 Z M 122.98 161.57 L 124.03 161.37 C 125.09 161.18 125.79 160.16 125.59 159.10 C 125.39 158.04 124.37 157.34 123.31 157.54 L 122.27 157.73 C 121.21 157.93 120.51 158.95 120.71 160.01 C 120.90 161.07 121.92 161.77 122.98 161.57 Z M 124.03 161.37 L 125.01 161.19 C 126.07 160.99 126.77 159.98 126.57 158.92 C 126.38 157.86 125.36 157.16 124.30 157.36 L 123.32 157.54 C 122.26 157.74 121.56 158.75 121.76 159.81 C 121.95 160.87 122.97 161.57 124.03 161.37 Z M 125.01 161.19 L 125.94 161.02 C 127.00 160.82 127.70 159.81 127.51 158.75 C 127.31 157.69 126.29 156.99 125.24 157.19 L 124.30 157.36 C 123.24 157.55 122.54 158.57 122.74 159.63 C 122.93 160.69 123.95 161.39 125.01 161.19 Z M 125.94 161.02 L 126.89 160.84 C 127.95 160.65 128.65 159.63 128.46 158.57 C 128.26 157.52 127.25 156.82 126.19 157.01 L 125.24 157.19 C 124.18 157.38 123.48 158.40 123.68 159.45 C 123.87 160.51 124.88 161.21 125.94 161.02 Z M 126.89 160.84 L 127.86 160.66 C 128.92 160.47 129.62 159.45 129.42 158.40 C 129.23 157.34 128.22 156.64 127.16 156.84 L 126.19 157.01 C 125.13 157.21 124.44 158.22 124.63 159.28 C 124.82 160.33 125.84 161.03 126.89 160.84 Z M 127.86 160.66 L 128.84 160.48 C 129.90 160.29 130.60 159.27 130.40 158.22 C 130.21 157.16 129.20 156.47 128.14 156.66 L 127.16 156.84 C 126.11 157.03 125.41 158.04 125.60 159.10 C 125.79 160.15 126.81 160.85 127.86 160.66 Z M 128.84 160.48 L 129.84 160.29 C 130.90 160.10 131.60 159.09 131.40 158.04 C 131.21 156.98 130.20 156.28 129.14 156.48 L 128.14 156.66 C 127.09 156.85 126.39 157.86 126.59 158.92 C 126.78 159.97 127.79 160.67 128.84 160.48 Z M 129.85 160.29 L 130.86 160.10 C 131.91 159.91 132.61 158.90 132.42 157.85 C 132.22 156.80 131.21 156.10 130.16 156.29 L 129.14 156.48 C 128.09 156.67 127.40 157.68 127.59 158.74 C 127.78 159.79 128.79 160.48 129.85 160.29 Z M 130.86 160.10 L 131.89 159.91 C 132.94 159.72 133.64 158.71 133.44 157.66 C 133.25 156.61 132.24 155.91 131.19 156.11 L 130.16 156.30 C 129.11 156.49 128.41 157.50 128.61 158.55 C 128.80 159.60 129.81 160.30 130.86 160.10 Z M 131.89 159.91 L 132.89 159.72 C 133.94 159.53 134.64 158.52 134.44 157.47 C 134.25 156.42 133.24 155.73 132.19 155.92 L 131.19 156.11 C 130.14 156.30 129.45 157.31 129.64 158.36 C 129.84 159.41 130.84 160.10 131.89 159.91 Z M 132.90 159.72 L 133.84 159.54 C 134.89 159.35 135.58 158.34 135.39 157.29 C 135.19 156.24 134.18 155.55 133.13 155.75 L 132.19 155.92 C 131.14 156.12 130.45 157.13 130.64 158.18 C 130.84 159.22 131.85 159.92 132.90 159.72 Z M 133.85 159.54 L 134.81 159.36 C 135.85 159.16 136.54 158.15 136.34 157.11 C 136.15 156.06 135.14 155.37 134.09 155.57 L 133.13 155.75 C 132.09 155.95 131.40 156.96 131.60 158.00 C 131.79 159.05 132.80 159.74 133.85 159.54 Z M 134.81 159.35 L 135.78 159.17 C 136.82 158.97 137.51 157.97 137.31 156.92 C 137.11 155.88 136.10 155.19 135.06 155.39 L 134.09 155.57 C 133.04 155.77 132.36 156.78 132.56 157.82 C 132.76 158.87 133.76 159.55 134.81 159.35 Z M 135.78 159.17 L 136.76 158.98 C 137.80 158.78 138.48 157.77 138.28 156.73 C 138.08 155.69 137.08 155.01 136.03 155.20 L 135.06 155.39 C 134.01 155.59 133.33 156.60 133.53 157.64 C 133.73 158.68 134.74 159.37 135.78 159.17 Z M 136.76 158.98 L 137.74 158.79 C 138.79 158.59 139.47 157.58 139.27 156.54 C 139.07 155.50 138.06 154.82 137.02 155.02 L 136.03 155.21 C 134.99 155.41 134.31 156.42 134.51 157.46 C 134.71 158.50 135.72 159.18 136.76 158.98 Z M 137.75 158.78 L 138.74 158.59 C 139.78 158.39 140.46 157.38 140.26 156.34 C 140.06 155.30 139.05 154.63 138.01 154.83 L 137.02 155.02 C 135.98 155.22 135.30 156.23 135.50 157.27 C 135.70 158.31 136.71 158.99 137.75 158.78 Z M 138.74 158.59 L 139.75 158.39 C 140.78 158.19 141.46 157.18 141.26 156.14 C 141.05 155.11 140.05 154.43 139.01 154.63 L 138.01 154.83 C 136.97 155.03 136.29 156.04 136.50 157.08 C 136.70 158.11 137.71 158.79 138.74 158.59 Z M 139.75 158.39 L 140.76 158.19 C 141.80 157.98 142.47 156.98 142.26 155.94 C 142.06 154.91 141.05 154.23 140.02 154.44 L 139.01 154.64 C 137.97 154.84 137.30 155.85 137.50 156.88 C 137.71 157.92 138.71 158.59 139.75 158.39 Z M 140.76 158.18 L 141.76 157.99 C 142.79 157.78 143.46 156.77 143.26 155.74 C 143.05 154.71 142.04 154.04 141.01 154.24 L 140.02 154.44 C 138.98 154.65 138.31 155.65 138.52 156.69 C 138.72 157.72 139.73 158.39 140.76 158.18 Z M 141.76 157.98 L 142.70 157.79 C 143.74 157.58 144.40 156.58 144.20 155.55 C 143.99 154.52 142.98 153.85 141.95 154.06 L 141.01 154.25 C 139.98 154.45 139.31 155.46 139.52 156.49 C 139.72 157.52 140.73 158.19 141.76 157.98 Z M 142.71 157.79 L 143.66 157.60 C 144.69 157.39 145.35 156.38 145.14 155.35 C 144.93 154.32 143.93 153.66 142.90 153.87 L 141.95 154.06 C 140.92 154.27 140.25 155.27 140.46 156.30 C 140.67 157.33 141.68 158.00 142.71 157.79 Z M 143.66 157.59 L 144.62 157.40 C 145.64 157.19 146.31 156.19 146.10 155.16 C 145.89 154.13 144.89 153.47 143.86 153.67 L 142.90 153.87 C 141.87 154.08 141.21 155.08 141.42 156.11 C 141.63 157.14 142.63 157.80 143.66 157.59 Z M 144.62 157.39 L 145.58 157.20 C 146.61 156.99 147.27 155.99 147.06 154.96 C 146.85 153.93 145.85 153.27 144.82 153.48 L 143.86 153.68 C 142.83 153.89 142.17 154.89 142.38 155.92 C 142.59 156.94 143.59 157.60 144.62 157.39 Z M 145.58 157.19 L 146.56 156.99 C 147.58 156.78 148.24 155.78 148.03 154.76 C 147.82 153.74 146.82 153.07 145.80 153.28 L 144.82 153.48 C 143.80 153.69 143.14 154.69 143.35 155.72 C 143.56 156.74 144.56 157.40 145.58 157.19 Z M 146.56 156.99 L 147.54 156.79 C 148.56 156.58 149.22 155.58 149.01 154.56 C 148.81 153.54 147.81 152.88 146.78 153.09 L 145.80 153.29 C 144.78 153.50 144.12 154.50 144.33 155.52 C 144.54 156.54 145.53 157.20 146.56 156.99 Z M 147.54 156.79 L 148.54 156.58 C 149.56 156.38 150.22 155.38 150.01 154.36 C 149.80 153.34 148.80 152.68 147.78 152.89 L 146.79 153.09 C 145.76 153.30 145.11 154.29 145.31 155.32 C 145.52 156.34 146.52 157.00 147.54 156.79 Z M 148.53 156.58 L 149.54 156.38 C 150.56 156.17 151.22 155.17 151.01 154.15 C 150.80 153.13 149.81 152.48 148.79 152.68 L 147.78 152.89 C 146.76 153.10 146.10 154.09 146.31 155.11 C 146.52 156.13 147.51 156.79 148.53 156.58 Z M 149.54 156.37 L 150.56 156.17 C 151.58 155.96 152.23 154.97 152.03 153.95 C 151.82 152.93 150.83 152.27 149.81 152.48 L 148.79 152.69 C 147.77 152.89 147.12 153.89 147.32 154.90 C 147.53 155.92 148.52 156.58 149.54 156.37 Z M 150.56 156.16 L 151.56 155.96 C 152.57 155.76 153.23 154.77 153.03 153.75 C 152.82 152.73 151.83 152.08 150.82 152.28 L 149.81 152.48 C 148.80 152.69 148.14 153.68 148.34 154.69 C 148.55 155.71 149.54 156.37 150.56 156.16 Z M 151.56 155.96 L 152.52 155.77 C 153.54 155.56 154.20 154.57 153.99 153.56 C 153.79 152.54 152.80 151.88 151.79 152.09 L 150.82 152.28 C 149.80 152.49 149.14 153.47 149.35 154.49 C 149.55 155.51 150.54 156.16 151.56 155.96 Z M 152.52 155.77 L 153.50 155.57 C 154.51 155.37 155.17 154.38 154.97 153.37 C 154.77 152.35 153.78 151.69 152.76 151.89 L 151.79 152.09 C 150.77 152.29 150.11 153.28 150.32 154.29 C 150.52 155.31 151.51 155.97 152.52 155.77 Z M 153.50 155.57 L 154.48 155.37 C 155.49 155.17 156.15 154.19 155.95 153.17 C 155.75 152.16 154.76 151.50 153.75 151.70 L 152.77 151.90 C 151.75 152.10 151.09 153.08 151.29 154.10 C 151.50 155.11 152.48 155.77 153.50 155.57 Z M 154.48 155.37 L 155.46 155.18 C 156.48 154.98 157.14 153.99 156.94 152.98 C 156.74 151.96 155.75 151.31 154.74 151.51 L 153.75 151.70 C 152.74 151.90 152.08 152.89 152.28 153.90 C 152.48 154.91 153.46 155.57 154.48 155.37 Z M 155.46 155.18 L 156.45 154.98 C 157.47 154.78 158.13 153.80 157.92 152.78 C 157.72 151.77 156.74 151.11 155.73 151.31 L 154.74 151.51 C 153.73 151.71 153.07 152.69 153.27 153.70 C 153.47 154.72 154.45 155.38 155.46 155.18 Z M 156.45 154.98 L 157.44 154.78 C 158.46 154.58 159.11 153.60 158.91 152.59 C 158.71 151.58 157.73 150.92 156.72 151.12 L 155.73 151.31 C 154.72 151.51 154.06 152.50 154.26 153.51 C 154.46 154.52 155.44 155.18 156.45 154.98 Z M 157.44 154.78 L 158.43 154.58 C 159.44 154.38 160.10 153.40 159.90 152.39 C 159.70 151.38 158.72 150.72 157.71 150.92 L 156.72 151.12 C 155.71 151.32 155.05 152.30 155.25 153.31 C 155.45 154.32 156.43 154.98 157.44 154.78 Z M 158.43 154.58 L 159.42 154.39 C 160.43 154.19 161.08 153.21 160.88 152.20 C 160.68 151.19 159.70 150.53 158.69 150.73 L 157.71 150.93 C 156.70 151.13 156.04 152.11 156.24 153.12 C 156.44 154.13 157.42 154.78 158.43 154.58 Z M 159.42 154.39 L 160.40 154.19 C 161.41 153.99 162.06 153.01 161.86 152.00 C 161.66 150.99 160.68 150.34 159.67 150.54 L 158.69 150.73 C 157.68 150.93 157.03 151.91 157.23 152.92 C 157.43 153.93 158.41 154.59 159.42 154.39 Z M 160.40 154.19 L 161.37 154.00 C 162.38 153.79 163.03 152.81 162.83 151.81 C 162.63 150.80 161.65 150.14 160.64 150.35 L 159.67 150.54 C 158.66 150.74 158.01 151.72 158.21 152.73 C 158.41 153.74 159.39 154.39 160.40 154.19 Z M 161.37 153.99 L 162.38 153.79 C 163.39 153.59 164.04 152.61 163.84 151.60 C 163.63 150.60 162.66 149.94 161.65 150.15 L 160.64 150.35 C 159.64 150.55 158.98 151.53 159.18 152.54 C 159.39 153.54 160.37 154.19 161.37 153.99 Z M 162.38 153.79 L 163.39 153.58 C 164.40 153.38 165.05 152.40 164.84 151.40 C 164.64 150.39 163.66 149.74 162.66 149.95 L 161.65 150.15 C 160.64 150.35 159.99 151.33 160.20 152.33 C 160.40 153.34 161.38 153.99 162.38 153.79 Z M 163.39 153.58 L 164.39 153.38 C 165.40 153.17 166.04 152.20 165.84 151.20 C 165.64 150.19 164.66 149.55 163.66 149.75 L 162.66 149.95 C 161.66 150.15 161.01 151.13 161.21 152.13 C 161.41 153.13 162.39 153.78 163.39 153.58 Z M 164.40 153.37 L 165.39 153.17 C 166.39 152.97 167.03 151.99 166.83 150.99 C 166.63 149.99 165.65 149.35 164.65 149.55 L 163.66 149.75 C 162.66 149.96 162.01 150.93 162.22 151.93 C 162.42 152.93 163.40 153.58 164.40 153.37 Z M 165.39 153.17 L 166.37 152.97 C 167.37 152.76 168.01 151.79 167.81 150.79 C 167.60 149.79 166.63 149.15 165.63 149.35 L 164.65 149.56 C 163.65 149.76 163.01 150.73 163.21 151.73 C 163.42 152.73 164.39 153.37 165.39 153.17 Z M 166.37 152.96 L 167.35 152.76 C 168.34 152.56 168.98 151.58 168.78 150.59 C 168.57 149.59 167.60 148.95 166.61 149.16 L 165.63 149.36 C 164.64 149.56 164.00 150.53 164.20 151.53 C 164.40 152.52 165.38 153.17 166.37 152.96 Z M 167.35 152.76 L 168.31 152.56 C 169.31 152.35 169.94 151.38 169.74 150.39 C 169.54 149.40 168.56 148.76 167.57 148.96 L 166.60 149.16 C 165.61 149.37 164.97 150.34 165.18 151.33 C 165.38 152.32 166.35 152.96 167.35 152.76 Z M 168.31 152.55 L 169.28 152.35 C 170.27 152.15 170.90 151.18 170.70 150.19 C 170.49 149.20 169.52 148.56 168.53 148.77 L 167.57 148.97 C 166.58 149.17 165.94 150.14 166.15 151.13 C 166.36 152.12 167.32 152.76 168.31 152.55 Z M 169.28 152.35 L 170.23 152.15 C 171.22 151.94 171.85 150.98 171.65 149.99 C 171.44 149.00 170.47 148.37 169.49 148.57 L 168.53 148.77 C 167.54 148.98 166.91 149.95 167.12 150.93 C 167.32 151.92 168.29 152.56 169.28 152.35 Z M 170.23 152.15 L 171.18 151.95 C 172.17 151.74 172.80 150.78 172.59 149.79 C 172.39 148.80 171.42 148.17 170.44 148.38 L 169.49 148.58 C 168.50 148.78 167.87 149.75 168.07 150.74 C 168.28 151.72 169.25 152.35 170.23 152.15 Z M 171.18 151.94 L 172.18 151.73 C 173.16 151.53 173.79 150.56 173.58 149.58 C 173.38 148.60 172.41 147.97 171.43 148.17 L 170.43 148.38 C 169.45 148.59 168.82 149.55 169.03 150.54 C 169.23 151.52 170.20 152.15 171.18 151.94 Z M 172.18 151.73 L 173.18 151.52 C 174.17 151.31 174.79 150.35 174.59 149.37 C 174.38 148.39 173.42 147.76 172.43 147.96 L 171.43 148.18 C 170.45 148.38 169.82 149.35 170.03 150.33 C 170.23 151.31 171.20 151.94 172.18 151.73 Z M 173.19 151.52 L 174.19 151.30 C 175.17 151.10 175.79 150.13 175.58 149.15 C 175.38 148.17 174.41 147.55 173.44 147.76 L 172.43 147.97 C 171.45 148.18 170.83 149.14 171.04 150.12 C 171.24 151.10 172.21 151.72 173.19 151.52 Z M 174.19 151.30 L 175.18 151.09 C 176.16 150.88 176.78 149.92 176.58 148.94 C 176.37 147.97 175.41 147.34 174.43 147.55 L 173.43 147.76 C 172.46 147.97 171.83 148.93 172.04 149.91 C 172.25 150.88 173.21 151.51 174.19 151.30 Z M 175.18 151.09 L 176.17 150.88 C 177.14 150.67 177.77 149.71 177.56 148.73 C 177.35 147.76 176.39 147.13 175.41 147.34 L 174.43 147.55 C 173.45 147.76 172.83 148.72 173.04 149.70 C 173.24 150.67 174.20 151.29 175.18 151.09 Z M 176.17 150.87 L 177.14 150.67 C 178.12 150.46 178.74 149.50 178.53 148.52 C 178.32 147.55 177.36 146.93 176.39 147.14 L 175.41 147.34 C 174.44 147.55 173.82 148.51 174.03 149.49 C 174.23 150.46 175.19 151.08 176.17 150.87 Z M 177.14 150.66 L 178.11 150.46 C 179.08 150.25 179.70 149.29 179.49 148.32 C 179.29 147.35 178.33 146.73 177.36 146.93 L 176.39 147.14 C 175.42 147.35 174.80 148.30 175.01 149.28 C 175.21 150.25 176.17 150.87 177.14 150.66 Z M 178.11 150.45 L 179.06 150.25 C 180.04 150.04 180.65 149.09 180.45 148.11 C 180.24 147.14 179.28 146.52 178.31 146.73 L 177.36 146.94 C 176.39 147.14 175.77 148.10 175.97 149.07 C 176.18 150.04 177.14 150.66 178.11 150.45 Z M 179.06 150.25 L 180.01 150.04 C 180.98 149.84 181.59 148.88 181.39 147.91 C 181.18 146.94 180.23 146.33 179.26 146.53 L 178.31 146.74 C 177.34 146.94 176.73 147.90 176.93 148.87 C 177.14 149.84 178.09 150.45 179.06 150.25 Z M 180.01 150.04 L 180.99 149.83 C 181.95 149.63 182.57 148.67 182.36 147.70 C 182.16 146.74 181.20 146.12 180.24 146.33 L 179.26 146.54 C 178.29 146.74 177.67 147.70 177.88 148.66 C 178.09 149.63 179.04 150.25 180.01 150.04 Z M 180.99 149.83 L 182.03 149.61 C 183.00 149.40 183.62 148.45 183.41 147.48 C 183.20 146.51 182.25 145.90 181.29 146.10 L 180.24 146.33 C 179.27 146.53 178.65 147.49 178.86 148.45 C 179.07 149.42 180.02 150.04 180.99 149.83 Z M 182.03 149.61 L 183.06 149.39 C 184.03 149.18 184.65 148.23 184.44 147.26 C 184.23 146.29 183.28 145.68 182.31 145.88 L 181.28 146.10 C 180.32 146.31 179.70 147.26 179.91 148.23 C 180.11 149.20 181.07 149.81 182.03 149.61 Z M 183.06 149.39 L 184.07 149.17 C 185.04 148.96 185.66 148.01 185.45 147.04 C 185.24 146.08 184.29 145.46 183.32 145.67 L 182.31 145.88 C 181.34 146.09 180.73 147.04 180.94 148.01 C 181.14 148.98 182.10 149.59 183.06 149.39 Z M 184.07 149.17 L 185.06 148.96 C 186.03 148.75 186.64 147.80 186.43 146.83 C 186.23 145.86 185.27 145.25 184.30 145.45 L 183.32 145.67 C 182.35 145.87 181.74 146.83 181.94 147.80 C 182.15 148.76 183.10 149.38 184.07 149.17 Z M 185.06 148.96 L 186.02 148.75 C 186.99 148.54 187.60 147.59 187.40 146.62 C 187.19 145.65 186.23 145.04 185.26 145.25 L 184.30 145.45 C 183.33 145.66 182.72 146.62 182.93 147.59 C 183.14 148.55 184.09 149.17 185.06 148.96 Z M 186.02 148.75 L 186.96 148.55 C 187.93 148.34 188.54 147.38 188.33 146.41 C 188.12 145.45 187.17 144.83 186.20 145.04 L 185.26 145.25 C 184.29 145.46 183.68 146.41 183.89 147.38 C 184.10 148.35 185.06 148.96 186.02 148.75 Z M 186.97 148.55 L 187.88 148.35 C 188.85 148.13 189.46 147.18 189.24 146.21 C 189.03 145.24 188.08 144.63 187.11 144.84 L 186.20 145.04 C 185.23 145.26 184.62 146.21 184.83 147.18 C 185.04 148.15 186.00 148.76 186.97 148.55 Z M 187.88 148.35 L 188.82 148.14 C 189.78 147.92 190.39 146.97 190.18 146.00 C 189.97 145.03 189.01 144.42 188.04 144.64 L 187.11 144.84 C 186.14 145.06 185.53 146.02 185.74 146.98 C 185.96 147.95 186.91 148.56 187.88 148.35 Z M 188.82 148.14 L 189.91 147.90 C 190.88 147.68 191.49 146.72 191.27 145.75 C 191.05 144.78 190.09 144.17 189.12 144.39 L 188.03 144.63 C 187.07 144.85 186.46 145.81 186.67 146.78 C 186.89 147.75 187.85 148.36 188.82 148.14 Z M 189.92 147.90 L 190.96 147.67 C 191.93 147.44 192.54 146.48 192.32 145.51 C 192.10 144.53 191.13 143.93 190.16 144.15 L 189.12 144.38 C 188.14 144.60 187.54 145.57 187.76 146.54 C 187.98 147.51 188.94 148.12 189.92 147.90 Z M 190.96 147.67 L 191.96 147.44 C 192.94 147.22 193.54 146.24 193.32 145.27 C 193.10 144.30 192.12 143.69 191.15 143.91 L 190.15 144.14 C 189.18 144.37 188.57 145.34 188.79 146.31 C 189.02 147.29 189.99 147.89 190.96 147.67 Z M 191.97 147.45 L 192.92 147.22 C 193.90 147.00 194.50 146.02 194.28 145.04 C 194.05 144.07 193.07 143.46 192.09 143.69 L 191.14 143.91 C 190.17 144.13 189.56 145.11 189.79 146.09 C 190.01 147.07 190.99 147.67 191.97 147.45 Z M 192.92 147.23 L 193.83 147.02 C 194.81 146.79 195.42 145.81 195.19 144.83 C 194.96 143.85 193.98 143.24 193.00 143.47 L 192.09 143.68 C 191.11 143.91 190.50 144.89 190.73 145.87 C 190.96 146.85 191.94 147.46 192.92 147.23 Z M 193.83 147.02 L 194.69 146.82 C 195.68 146.59 196.29 145.60 196.05 144.62 C 195.82 143.63 194.84 143.03 193.85 143.26 L 192.99 143.46 C 192.01 143.69 191.40 144.68 191.63 145.66 C 191.86 146.65 192.85 147.26 193.83 147.02 Z M 194.70 146.83 L 195.72 146.58 C 196.71 146.35 197.32 145.36 197.09 144.37 C 196.85 143.38 195.86 142.77 194.87 143.00 L 193.85 143.25 C 192.86 143.48 192.25 144.48 192.48 145.47 C 192.72 146.45 193.71 147.06 194.70 146.83 Z M 195.73 146.60 L 196.74 146.36 C 197.74 146.12 198.35 145.12 198.11 144.12 C 197.87 143.12 196.87 142.51 195.88 142.75 L 194.87 142.99 C 193.87 143.23 193.26 144.23 193.49 145.23 C 193.73 146.22 194.73 146.84 195.73 146.60 Z M 196.75 146.37 L 197.71 146.14 C 198.71 145.90 199.33 144.89 199.09 143.88 C 198.85 142.88 197.84 142.26 196.83 142.50 L 195.87 142.73 C 194.87 142.98 194.25 143.99 194.49 144.99 C 194.73 145.99 195.74 146.61 196.75 146.37 Z M 197.71 146.15 L 198.64 145.93 C 199.65 145.68 200.27 144.67 200.03 143.65 C 199.79 142.64 198.77 142.02 197.75 142.26 L 196.83 142.49 C 195.81 142.73 195.19 143.75 195.44 144.76 C 195.68 145.78 196.70 146.40 197.71 146.15 Z M 198.65 145.94 L 199.56 145.72 C 200.58 145.48 201.20 144.45 200.96 143.43 C 200.71 142.41 199.68 141.78 198.66 142.03 L 197.75 142.25 C 196.73 142.50 196.10 143.52 196.35 144.54 C 196.60 145.56 197.63 146.19 198.65 145.94 Z"
      fill="black"
      fill-rule="nonzero" /></svg>