<svg xmlns="http://www.w3.org/2000/svg" width="300" height="300" viewBox="0 0 300 300">
<path d="M 149.44 100.00 L 148.82 100.75 C 148.18 101.53 148.29 102.68 149.07 103.31 C 149.85 103.95 150.99 103.84 151.63 103.06 L 152.25 102.31 C 152.89 101.54 152.78 100.39 152.00 99.75 C 151.22 99.11 150.08 99.22 149.44 100.00 Z M 148.76 100.80 L 148.16 101.58 C 147.55 102.39 147.71 103.55 148.52 104.16 C 149.33 104.78 150.48 104.62 151.10 103.81 L 151.69 103.02 C 152.31 102.21 152.15 101.06 151.34 100.44 C 150.53 99.83 149.37 99.99 148.76 100.80 Z M 148.07 101.68 L 147.51 102.54 C 146.95 103.41 147.20 104.56 148.06 105.12 C 148.92 105.68 150.08 105.43 150.63 104.57 L 151.19 103.71 C 151.75 102.84 151.50 101.69 150.64 101.13 C 149.78 100.57 148.62 100.82 148.07 101.68 Z M 147.41 102.68 L 146.98 103.51 C 146.49 104.43 146.85 105.56 147.76 106.05 C 148.68 106.53 149.81 106.17 150.30 105.26 L 150.73 104.43 C 151.21 103.51 150.86 102.38 149.94 101.90 C 149.03 101.41 147.89 101.77 147.41 102.68 Z M 146.91 103.64 L 146.53 104.52 C 146.12 105.48 146.56 106.58 147.51 106.99 C 148.47 107.40 149.57 106.96 149.98 106.01 L 150.36 105.13 C 150.77 104.18 150.33 103.07 149.38 102.66 C 148.43 102.25 147.32 102.69 146.91 103.64 Z M 146.49 104.63 L 146.15 105.59 C 145.79 106.56 146.30 107.64 147.27 107.99 C 148.25 108.34 149.32 107.84 149.68 106.86 L 150.02 105.90 C 150.37 104.93 149.87 103.85 148.89 103.50 C 147.92 103.15 146.84 103.65 146.49 104.63 Z M 146.12 105.67 L 145.80 106.71 C 145.49 107.70 146.05 108.75 147.04 109.06 C 148.03 109.36 149.08 108.81 149.38 107.82 L 149.70 106.78 C 150.01 105.79 149.46 104.74 148.46 104.43 C 147.47 104.13 146.42 104.68 146.12 105.67 Z M 145.78 106.77 L 145.55 107.64 C 145.27 108.64 145.86 109.67 146.86 109.94 C 147.86 110.21 148.89 109.63 149.16 108.63 L 149.40 107.76 C 149.67 106.76 149.08 105.73 148.08 105.46 C 147.09 105.19 146.06 105.77 145.78 106.77 Z M 145.54 107.69 L 145.32 108.59 C 145.07 109.59 145.68 110.60 146.68 110.85 C 147.68 111.10 148.69 110.49 148.94 109.49 L 149.16 108.58 C 149.41 107.58 148.80 106.57 147.80 106.33 C 146.80 106.08 145.79 106.69 145.54 107.69 Z M 145.32 108.63 L 145.10 109.60 C 144.87 110.60 145.50 111.59 146.50 111.82 C 147.50 112.05 148.49 111.42 148.72 110.42 L 148.94 109.45 C 149.16 108.45 148.54 107.46 147.54 107.23 C 146.54 107.01 145.54 107.63 145.32 108.63 Z M 145.10 109.63 L 144.89 110.66 C 144.68 111.66 145.32 112.64 146.32 112.85 C 147.32 113.05 148.29 112.41 148.50 111.41 L 148.72 110.39 C 148.92 109.39 148.28 108.41 147.28 108.20 C 146.29 107.99 145.31 108.63 145.10 109.63 Z M 144.89 110.69 L 144.68 111.79 C 144.48 112.78 145.14 113.75 146.13 113.94 C 147.13 114.13 148.09 113.48 148.29 112.48 L 148.50 111.39 C 148.69 110.39 148.04 109.43 147.04 109.23 C 146.05 109.04 145.08 109.69 144.89 110.69 Z M 144.68 111.81 L 144.52 112.73 C 144.34 113.72 144.99 114.67 145.99 114.86 C 146.98 115.04 147.93 114.38 148.11 113.39 L 148.28 112.46 C 148.46 111.47 147.80 110.52 146.81 110.34 C 145.82 110.16 144.87 110.82 144.68 111.81 Z M 144.53 112.75 L 144.36 113.69 C 144.19 114.68 144.85 115.62 145.84 115.79 C 146.82 115.96 147.76 115.30 147.94 114.31 L 148.10 113.37 C 148.27 112.38 147.61 111.44 146.62 111.27 C 145.64 111.10 144.70 111.76 144.53 112.75 Z M 144.37 113.71 L 144.21 114.68 C 144.05 115.66 144.71 116.59 145.69 116.75 C 146.67 116.92 147.60 116.26 147.76 115.28 L 147.92 114.30 C 148.09 113.32 147.43 112.39 146.45 112.23 C 145.47 112.06 144.54 112.73 144.37 113.71 Z M 144.22 114.69 L 144.06 115.70 C 143.90 116.67 144.56 117.59 145.54 117.75 C 146.51 117.90 147.43 117.24 147.59 116.27 L 147.75 115.26 C 147.91 114.29 147.24 113.37 146.27 113.22 C 145.30 113.06 144.38 113.72 144.22 114.69 Z M 144.07 115.71 L 143.91 116.73 C 143.76 117.70 144.42 118.60 145.39 118.76 C 146.36 118.91 147.26 118.25 147.41 117.28 L 147.57 116.26 C 147.73 115.29 147.06 114.38 146.10 114.23 C 145.13 114.08 144.22 114.74 144.07 115.71 Z M 143.92 116.74 L 143.77 117.77 C 143.62 118.74 144.28 119.63 145.24 119.78 C 146.20 119.92 147.10 119.26 147.24 118.30 L 147.40 117.27 C 147.55 116.31 146.89 115.41 145.93 115.27 C 144.97 115.12 144.07 115.78 143.92 116.74 Z M 143.78 117.78 L 143.63 118.81 C 143.49 119.76 144.14 120.65 145.10 120.79 C 146.05 120.93 146.94 120.27 147.08 119.32 L 147.23 118.30 C 147.37 117.34 146.72 116.46 145.76 116.31 C 144.81 116.17 143.92 116.83 143.78 117.78 Z M 143.64 118.81 L 143.49 119.82 C 143.36 120.77 144.01 121.65 144.96 121.78 C 145.90 121.92 146.78 121.27 146.92 120.32 L 147.07 119.31 C 147.20 118.37 146.55 117.49 145.60 117.35 C 144.66 117.21 143.78 117.87 143.64 118.81 Z M 143.51 119.83 L 143.36 120.83 C 143.23 121.77 143.88 122.64 144.82 122.78 C 145.76 122.91 146.63 122.26 146.76 121.32 L 146.91 120.31 C 147.04 119.38 146.39 118.51 145.45 118.37 C 144.51 118.24 143.64 118.89 143.51 119.83 Z M 143.38 120.84 L 143.23 121.83 C 143.10 122.77 143.75 123.63 144.68 123.76 C 145.61 123.89 146.47 123.25 146.61 122.32 L 146.75 121.32 C 146.88 120.38 146.23 119.52 145.30 119.39 C 144.37 119.26 143.51 119.90 143.38 120.84 Z M 143.25 121.84 L 143.11 122.83 C 142.97 123.75 143.62 124.61 144.54 124.74 C 145.46 124.87 146.32 124.23 146.45 123.30 L 146.59 122.31 C 146.73 121.39 146.08 120.53 145.16 120.40 C 144.23 120.27 143.38 120.91 143.25 121.84 Z M 143.12 122.83 L 142.98 123.80 C 142.85 124.72 143.48 125.57 144.40 125.70 C 145.32 125.83 146.17 125.19 146.30 124.28 L 146.44 123.30 C 146.57 122.39 145.93 121.54 145.02 121.40 C 144.10 121.27 143.25 121.91 143.12 122.83 Z M 142.99 123.80 L 142.85 124.76 C 142.72 125.67 143.35 126.51 144.26 126.64 C 145.17 126.78 146.01 126.15 146.14 125.24 L 146.28 124.28 C 146.42 123.37 145.79 122.53 144.88 122.40 C 143.97 122.26 143.13 122.89 142.99 123.80 Z M 142.86 124.76 L 142.71 125.77 C 142.58 126.68 143.20 127.52 144.11 127.65 C 145.01 127.79 145.85 127.16 145.98 126.26 L 146.13 125.24 C 146.27 124.34 145.65 123.50 144.74 123.36 C 143.84 123.23 143.00 123.85 142.86 124.76 Z M 142.72 125.77 L 142.56 126.78 C 142.43 127.68 143.05 128.52 143.95 128.66 C 144.85 128.79 145.69 128.17 145.83 127.27 L 145.98 126.26 C 146.12 125.36 145.50 124.52 144.60 124.39 C 143.70 124.25 142.85 124.87 142.72 125.77 Z M 142.57 126.77 L 142.41 127.77 C 142.28 128.66 142.89 129.51 143.79 129.64 C 144.69 129.78 145.53 129.17 145.67 128.27 L 145.82 127.28 C 145.96 126.38 145.35 125.54 144.45 125.40 C 143.55 125.26 142.71 125.88 142.57 126.77 Z M 142.42 127.76 L 142.26 128.74 C 142.12 129.64 142.74 130.48 143.64 130.62 C 144.53 130.76 145.37 130.15 145.51 129.25 L 145.67 128.27 C 145.81 127.37 145.19 126.53 144.30 126.39 C 143.40 126.25 142.56 126.87 142.42 127.76 Z M 142.27 128.74 L 142.11 129.71 C 141.97 130.60 142.58 131.44 143.48 131.59 C 144.38 131.73 145.22 131.12 145.36 130.22 L 145.51 129.25 C 145.65 128.36 145.04 127.52 144.15 127.37 C 143.25 127.23 142.41 127.84 142.27 128.74 Z M 142.12 129.71 L 141.96 130.67 C 141.82 131.57 142.43 132.40 143.33 132.55 C 144.22 132.69 145.06 132.08 145.20 131.19 L 145.35 130.22 C 145.50 129.33 144.89 128.49 143.99 128.35 C 143.10 128.20 142.26 128.81 142.12 129.71 Z M 141.97 130.67 L 141.93 130.88 C 141.79 131.77 142.40 132.61 143.29 132.75 C 144.19 132.90 145.02 132.29 145.17 131.40 L 145.20 131.19 C 145.34 130.29 144.73 129.45 143.84 129.31 C 142.95 129.17 142.11 129.78 141.97 130.67 Z"
      fill="black"
      fill-rule="nonzero" /><path d="M 136.40 115.24 L 137.18 115.30 C 138.15 115.37 138.99 114.64 139.06 113.68 C 139.13 112.71 138.40 111.87 137.43 111.80 L 136.65 111.75 C 135.68 111.68 134.84 112.40 134.77 113.37 C 134.70 114.33 135.43 115.17 136.40 115.24 Z M 137.30 115.31 L 138.16 115.32 C 139.13 115.33 139.93 114.54 139.93 113.57 C 139.94 112.60 139.16 111.80 138.19 111.80 L 137.32 111.79 C 136.35 111.78 135.56 112.56 135.55 113.54 C 135.54 114.51 136.32 115.30 137.30 115.31 Z M 138.33 115.32 L 139.35 115.23 C 140.32 115.14 141.04 114.28 140.95 113.30 C 140.86 112.33 140.00 111.61 139.03 111.70 L 138.01 111.80 C 137.04 111.88 136.32 112.75 136.41 113.72 C 136.50 114.69 137.36 115.41 138.33 115.32 Z M 139.53 115.21 L 140.78 114.97 C 141.74 114.78 142.37 113.85 142.18 112.88 C 142.00 111.92 141.06 111.29 140.10 111.48 L 138.85 111.72 C 137.89 111.91 137.26 112.84 137.45 113.80 C 137.63 114.77 138.57 115.40 139.53 115.21 Z M 140.90 114.94 L 141.81 114.70 C 142.76 114.44 143.32 113.47 143.07 112.52 C 142.82 111.57 141.84 111.01 140.89 111.26 L 139.98 111.50 C 139.03 111.75 138.47 112.73 138.72 113.68 C 138.97 114.63 139.95 115.19 140.90 114.94 Z M 141.87 114.68 L 142.79 114.40 C 143.73 114.11 144.26 113.12 143.98 112.18 C 143.69 111.24 142.70 110.71 141.76 111.00 L 140.83 111.28 C 139.90 111.56 139.37 112.56 139.65 113.49 C 139.94 114.43 140.93 114.96 141.87 114.68 Z M 142.83 114.38 L 143.81 114.06 C 144.74 113.75 145.24 112.75 144.94 111.82 C 144.63 110.89 143.63 110.39 142.70 110.69 L 141.73 111.01 C 140.80 111.32 140.29 112.32 140.60 113.25 C 140.90 114.18 141.90 114.68 142.83 114.38 Z M 143.83 114.04 L 144.84 113.70 C 145.76 113.38 146.25 112.37 145.93 111.45 C 145.61 110.53 144.60 110.04 143.68 110.36 L 142.68 110.71 C 141.76 111.02 141.27 112.03 141.59 112.95 C 141.91 113.87 142.91 114.36 143.83 114.04 Z M 144.85 113.69 L 145.85 113.33 C 146.77 113.00 147.25 111.99 146.92 111.08 C 146.59 110.16 145.58 109.68 144.66 110.01 L 143.67 110.37 C 142.75 110.70 142.27 111.71 142.60 112.62 C 142.93 113.54 143.94 114.02 144.85 113.69 Z M 145.86 113.32 L 146.83 112.97 C 147.74 112.63 148.21 111.62 147.88 110.71 C 147.54 109.80 146.54 109.33 145.62 109.67 L 144.65 110.02 C 143.74 110.35 143.27 111.36 143.61 112.27 C 143.94 113.19 144.95 113.66 145.86 113.32 Z M 146.84 112.96 L 147.75 112.62 C 148.66 112.29 149.12 111.28 148.78 110.37 C 148.45 109.46 147.44 109.00 146.53 109.34 L 145.62 109.67 C 144.71 110.01 144.25 111.02 144.58 111.92 C 144.92 112.83 145.93 113.30 146.84 112.96 Z M 147.74 112.61 L 148.82 112.22 C 149.73 111.88 150.19 110.88 149.86 109.98 C 149.52 109.08 148.52 108.61 147.62 108.95 L 146.54 109.34 C 145.63 109.68 145.17 110.68 145.51 111.58 C 145.84 112.49 146.84 112.95 147.74 112.61 Z M 148.81 112.20 L 149.85 111.82 C 150.74 111.50 151.20 110.51 150.88 109.61 C 150.55 108.72 149.56 108.26 148.67 108.58 L 147.63 108.96 C 146.74 109.29 146.28 110.28 146.60 111.17 C 146.93 112.06 147.92 112.52 148.81 112.20 Z M 149.83 111.80 L 150.75 111.48 C 151.63 111.16 152.10 110.19 151.78 109.30 C 151.47 108.42 150.49 107.96 149.61 108.27 L 148.69 108.60 C 147.80 108.92 147.34 109.89 147.66 110.77 C 147.97 111.66 148.95 112.12 149.83 111.80 Z M 150.73 111.46 L 151.58 111.17 C 152.45 110.87 152.92 109.91 152.62 109.03 C 152.31 108.16 151.36 107.69 150.48 108.00 L 149.63 108.29 C 148.76 108.59 148.29 109.55 148.59 110.42 C 148.90 111.30 149.85 111.76 150.73 111.46 Z M 151.55 111.15 L 152.38 110.88 C 153.24 110.59 153.71 109.65 153.43 108.79 C 153.14 107.92 152.20 107.45 151.33 107.74 L 150.51 108.01 C 149.64 108.30 149.17 109.24 149.46 110.10 C 149.75 110.97 150.68 111.44 151.55 111.15 Z M 152.35 110.87 L 153.25 110.59 C 154.11 110.31 154.59 109.39 154.31 108.52 C 154.04 107.66 153.12 107.18 152.25 107.46 L 151.36 107.74 C 150.49 108.02 150.02 108.94 150.29 109.81 C 150.57 110.67 151.49 111.15 152.35 110.87 Z M 153.23 110.59 L 154.17 110.30 C 155.04 110.03 155.52 109.11 155.26 108.25 C 154.99 107.38 154.07 106.90 153.21 107.17 L 152.27 107.46 C 151.40 107.72 150.92 108.64 151.18 109.51 C 151.45 110.37 152.37 110.85 153.23 110.59 Z M 154.16 110.30 L 155.13 110.01 C 155.99 109.75 156.48 108.84 156.22 107.97 C 155.96 107.10 155.05 106.61 154.18 106.87 L 153.22 107.16 C 152.35 107.42 151.86 108.34 152.12 109.20 C 152.38 110.07 153.30 110.56 154.16 110.30 Z M 155.12 110.01 L 156.10 109.72 C 156.97 109.46 157.46 108.55 157.20 107.69 C 156.95 106.82 156.04 106.32 155.17 106.58 L 154.19 106.87 C 153.32 107.13 152.83 108.04 153.08 108.91 C 153.34 109.77 154.25 110.27 155.12 110.01 Z M 156.10 109.72 L 156.88 109.49 C 157.74 109.24 158.24 108.33 157.98 107.46 C 157.73 106.59 156.82 106.10 155.95 106.35 L 155.17 106.58 C 154.30 106.84 153.81 107.75 154.06 108.61 C 154.32 109.48 155.23 109.98 156.10 109.72 Z"
      fill="black"
      fill-rule="nonzero" /><path d="M 123.81 146.66 L 123.66 147.66 C 123.51 148.60 124.16 149.48 125.10 149.62 C 126.03 149.77 126.91 149.13 127.06 148.19 L 127.21 147.19 C 127.36 146.25 126.72 145.37 125.78 145.22 C 124.84 145.08 123.96 145.72 123.81 146.66 Z M 123.66 147.65 L 123.50 148.64 C 123.35 149.58 123.98 150.46 124.92 150.61 C 125.86 150.77 126.74 150.13 126.90 149.19 L 127.06 148.20 C 127.21 147.26 126.57 146.38 125.63 146.22 C 124.70 146.07 123.81 146.71 123.66 147.65 Z M 123.50 148.61 L 123.33 149.59 C 123.16 150.53 123.79 151.42 124.72 151.59 C 125.66 151.75 126.55 151.13 126.72 150.19 L 126.89 149.22 C 127.06 148.28 126.43 147.39 125.50 147.22 C 124.56 147.05 123.67 147.68 123.50 148.61 Z M 123.33 149.55 L 123.14 150.52 C 122.95 151.46 123.56 152.36 124.49 152.55 C 125.42 152.74 126.33 152.13 126.52 151.20 L 126.71 150.23 C 126.90 149.30 126.30 148.39 125.36 148.20 C 124.43 148.02 123.52 148.62 123.33 149.55 Z M 123.14 150.50 L 122.93 151.47 C 122.73 152.41 123.33 153.32 124.26 153.52 C 125.20 153.72 126.11 153.12 126.31 152.19 L 126.52 151.22 C 126.72 150.29 126.12 149.37 125.19 149.17 C 124.26 148.98 123.34 149.57 123.14 150.50 Z M 122.92 151.50 L 122.73 152.48 C 122.55 153.41 123.16 154.33 124.10 154.51 C 125.03 154.69 125.95 154.08 126.13 153.14 L 126.32 152.17 C 126.51 151.23 125.90 150.32 124.96 150.13 C 124.02 149.95 123.11 150.56 122.92 151.50 Z M 122.71 152.55 L 122.56 153.54 C 122.41 154.49 123.07 155.37 124.01 155.52 C 124.96 155.66 125.85 155.01 125.99 154.07 L 126.15 153.07 C 126.29 152.13 125.64 151.24 124.69 151.09 C 123.75 150.95 122.86 151.60 122.71 152.55 Z M 122.55 153.63 L 122.45 154.58 C 122.36 155.54 123.05 156.39 124.01 156.48 C 124.96 156.58 125.82 155.88 125.91 154.93 L 126.01 153.98 C 126.10 153.02 125.41 152.17 124.45 152.07 C 123.50 151.97 122.64 152.67 122.55 153.63 Z M 122.45 154.65 L 122.39 155.64 C 122.33 156.60 123.06 157.42 124.02 157.48 C 124.98 157.54 125.80 156.81 125.86 155.85 L 125.92 154.86 C 125.98 153.90 125.25 153.07 124.29 153.02 C 123.33 152.96 122.50 153.69 122.45 154.65 Z M 122.38 155.69 L 122.35 156.71 C 122.32 157.67 123.07 158.48 124.03 158.51 C 124.99 158.54 125.80 157.79 125.83 156.83 L 125.86 155.80 C 125.89 154.84 125.14 154.04 124.18 154.00 C 123.22 153.97 122.42 154.73 122.38 155.69 Z M 122.35 156.74 L 122.33 157.76 C 122.31 158.72 123.08 159.51 124.04 159.53 C 125.00 159.55 125.79 158.78 125.81 157.82 L 125.83 156.80 C 125.84 155.84 125.08 155.05 124.12 155.03 C 123.16 155.02 122.37 155.78 122.35 156.74 Z M 122.33 157.78 L 122.33 158.77 C 122.32 159.73 123.10 160.52 124.06 160.52 C 125.02 160.53 125.80 159.75 125.80 158.79 L 125.81 157.80 C 125.81 156.84 125.04 156.06 124.08 156.05 C 123.12 156.05 122.34 156.82 122.33 157.78 Z M 122.33 158.81 L 122.34 159.81 C 122.36 160.77 123.14 161.54 124.10 161.53 C 125.06 161.51 125.83 160.72 125.82 159.77 L 125.80 158.76 C 125.79 157.80 125.00 157.03 124.04 157.05 C 123.08 157.06 122.32 157.85 122.33 158.81 Z M 122.35 159.86 L 122.39 160.87 C 122.42 161.83 123.23 162.57 124.19 162.53 C 125.15 162.49 125.89 161.69 125.85 160.73 L 125.81 159.72 C 125.77 158.76 124.97 158.02 124.01 158.06 C 123.05 158.09 122.31 158.90 122.35 159.86 Z M 122.39 160.93 L 122.46 161.89 C 122.53 162.84 123.36 163.56 124.32 163.49 C 125.27 163.42 125.99 162.59 125.92 161.63 L 125.85 160.67 C 125.78 159.72 124.95 159.00 123.99 159.07 C 123.04 159.14 122.32 159.97 122.39 160.93 Z M 122.47 161.95 L 122.57 162.83 C 122.67 163.78 123.52 164.46 124.47 164.36 C 125.42 164.26 126.10 163.40 126.00 162.46 L 125.91 161.57 C 125.80 160.63 124.95 159.94 124.00 160.04 C 123.06 160.15 122.37 161.00 122.47 161.95 Z M 122.58 162.87 L 122.71 163.79 C 122.84 164.74 123.70 165.39 124.64 165.27 C 125.58 165.14 126.24 164.27 126.11 163.33 L 125.99 162.41 C 125.86 161.47 124.99 160.81 124.05 160.94 C 123.11 161.07 122.45 161.93 122.58 162.87 Z M 122.72 163.83 L 122.88 164.82 C 123.02 165.76 123.90 166.40 124.83 166.25 C 125.77 166.11 126.40 165.23 126.26 164.30 L 126.10 163.30 C 125.96 162.36 125.08 161.72 124.15 161.87 C 123.21 162.02 122.57 162.89 122.72 163.83 Z M 122.89 164.84 L 123.07 165.96 C 123.23 166.88 124.10 167.51 125.03 167.36 C 125.96 167.20 126.59 166.32 126.43 165.39 L 126.25 164.28 C 126.09 163.35 125.22 162.72 124.29 162.88 C 123.36 163.03 122.73 163.91 122.89 164.84 Z M 123.08 165.96 L 123.25 166.94 C 123.40 167.86 124.28 168.49 125.21 168.33 C 126.13 168.17 126.75 167.29 126.59 166.37 L 126.43 165.39 C 126.27 164.46 125.39 163.84 124.47 164.00 C 123.54 164.16 122.92 165.03 123.08 165.96 Z M 123.25 166.94 L 123.40 167.84 C 123.56 168.76 124.43 169.38 125.36 169.22 C 126.28 169.06 126.90 168.19 126.74 167.27 L 126.59 166.37 C 126.43 165.45 125.56 164.83 124.64 164.98 C 123.71 165.14 123.09 166.02 123.25 166.94 Z M 123.41 167.83 L 123.57 168.79 C 123.72 169.71 124.59 170.33 125.51 170.17 C 126.43 170.02 127.05 169.14 126.90 168.22 L 126.74 167.27 C 126.58 166.35 125.71 165.73 124.79 165.89 C 123.87 166.04 123.25 166.91 123.41 167.83 Z M 123.57 168.78 L 123.74 169.78 C 123.89 170.69 124.75 171.32 125.67 171.16 C 126.59 171.01 127.21 170.14 127.06 169.23 L 126.90 168.23 C 126.74 167.31 125.88 166.69 124.96 166.84 C 124.04 166.99 123.42 167.86 123.57 168.78 Z M 123.74 169.77 L 123.90 170.80 C 124.05 171.71 124.92 172.34 125.83 172.19 C 126.75 172.04 127.37 171.18 127.22 170.26 L 127.06 169.23 C 126.91 168.32 126.05 167.69 125.13 167.84 C 124.21 167.99 123.59 168.85 123.74 169.77 Z M 123.91 170.79 L 124.07 171.84 C 124.21 172.75 125.07 173.38 125.99 173.23 C 126.90 173.09 127.53 172.23 127.38 171.32 L 127.22 170.27 C 127.08 169.36 126.22 168.73 125.31 168.87 C 124.39 169.02 123.77 169.87 123.91 170.79 Z M 124.07 171.82 L 124.23 172.88 C 124.37 173.80 125.22 174.42 126.13 174.29 C 127.04 174.15 127.67 173.30 127.54 172.39 L 127.38 171.33 C 127.24 170.42 126.39 169.79 125.48 169.93 C 124.57 170.06 123.94 170.91 124.07 171.82 Z M 124.23 172.87 L 124.39 173.94 C 124.51 174.85 125.36 175.48 126.27 175.35 C 127.18 175.22 127.81 174.38 127.69 173.47 L 127.54 172.40 C 127.41 171.49 126.56 170.86 125.65 170.99 C 124.74 171.11 124.11 171.96 124.23 172.87 Z M 124.39 173.92 L 124.53 174.99 C 124.65 175.90 125.49 176.54 126.40 176.42 C 127.31 176.30 127.95 175.46 127.83 174.55 L 127.68 173.48 C 127.56 172.57 126.73 171.93 125.82 172.06 C 124.91 172.18 124.27 173.01 124.39 173.92 Z M 124.53 174.97 L 124.66 176.02 C 124.77 176.93 125.60 177.58 126.51 177.46 C 127.42 177.35 128.07 176.52 127.95 175.61 L 127.82 174.56 C 127.71 173.66 126.88 173.01 125.97 173.12 C 125.06 173.24 124.42 174.07 124.53 174.97 Z M 124.66 176.01 L 124.78 177.03 C 124.89 177.94 125.71 178.59 126.62 178.48 C 127.53 178.38 128.18 177.55 128.07 176.65 L 127.95 175.63 C 127.85 174.72 127.02 174.07 126.12 174.17 C 125.21 174.28 124.56 175.10 124.66 176.01 Z M 124.79 177.02 L 124.89 178.01 C 124.99 178.91 125.81 179.57 126.72 179.47 C 127.62 179.37 128.28 178.55 128.18 177.65 L 128.07 176.66 C 127.97 175.75 127.15 175.10 126.25 175.20 C 125.34 175.30 124.69 176.11 124.79 177.02 Z M 124.90 177.99 L 124.99 178.94 C 125.09 179.85 125.90 180.50 126.80 180.41 C 127.71 180.32 128.36 179.51 128.27 178.60 L 128.17 177.66 C 128.08 176.75 127.27 176.09 126.37 176.19 C 125.46 176.28 124.80 177.09 124.90 177.99 Z M 125.00 178.93 L 125.08 179.83 C 125.17 180.73 125.97 181.39 126.88 181.31 C 127.78 181.22 128.44 180.42 128.35 179.52 L 128.27 178.62 C 128.18 177.71 127.38 177.05 126.48 177.14 C 125.57 177.22 124.91 178.03 125.00 178.93 Z M 125.09 179.82 L 125.18 180.85 C 125.26 181.76 126.05 182.42 126.96 182.34 C 127.86 182.26 128.52 181.47 128.44 180.56 L 128.35 179.53 C 128.27 178.63 127.48 177.96 126.57 178.04 C 125.67 178.12 125.01 178.91 125.09 179.82 Z M 125.18 180.84 L 125.26 181.92 C 125.33 182.82 126.12 183.49 127.02 183.42 C 127.93 183.35 128.60 182.56 128.53 181.66 L 128.44 180.58 C 128.37 179.68 127.58 179.00 126.68 179.07 C 125.78 179.15 125.11 179.93 125.18 180.84 Z M 125.26 181.90 L 125.33 182.90 C 125.39 183.80 126.17 184.48 127.07 184.42 C 127.97 184.36 128.66 183.58 128.60 182.68 L 128.53 181.68 C 128.47 180.78 127.69 180.09 126.79 180.15 C 125.88 180.21 125.20 180.99 125.26 181.90 Z M 125.33 182.88 L 125.38 183.82 C 125.43 184.73 126.20 185.42 127.10 185.37 C 128.00 185.32 128.70 184.55 128.65 183.65 L 128.60 182.70 C 128.55 181.80 127.78 181.11 126.87 181.15 C 125.97 181.20 125.28 181.97 125.33 182.88 Z M 125.38 183.80 L 125.41 184.71 C 125.45 185.61 126.21 186.32 127.12 186.28 C 128.02 186.24 128.72 185.48 128.69 184.58 L 128.65 183.67 C 128.61 182.76 127.85 182.06 126.95 182.10 C 126.04 182.13 125.34 182.90 125.38 183.80 Z M 125.41 184.69 L 125.44 185.66 C 125.47 186.56 126.22 187.27 127.12 187.25 C 128.03 187.22 128.74 186.47 128.71 185.56 L 128.69 184.60 C 128.66 183.69 127.91 182.98 127.00 183.01 C 126.10 183.03 125.39 183.79 125.41 184.69 Z M 125.44 185.64 L 125.46 186.64 C 125.47 187.54 126.22 188.27 127.12 188.25 C 128.03 188.23 128.75 187.49 128.73 186.59 L 128.71 185.58 C 128.70 184.68 127.95 183.96 127.05 183.97 C 126.15 183.99 125.43 184.73 125.44 185.64 Z M 125.46 186.63 L 125.47 187.63 C 125.47 188.53 126.21 189.26 127.12 189.25 C 128.02 189.24 128.75 188.50 128.74 187.60 L 128.73 186.60 C 128.72 185.70 127.98 184.97 127.08 184.98 C 126.18 184.98 125.45 185.72 125.46 186.63 Z M 125.47 187.62 L 125.47 188.61 C 125.47 189.52 126.21 190.25 127.11 190.25 C 128.01 190.24 128.74 189.51 128.74 188.60 L 128.74 187.61 C 128.74 186.70 128.00 185.97 127.10 185.98 C 126.19 185.98 125.46 186.71 125.47 187.62 Z M 125.47 188.61 L 125.47 189.38 C 125.47 190.28 126.20 191.01 127.11 191.01 C 128.01 191.01 128.74 190.28 128.74 189.38 L 128.74 188.61 C 128.74 187.70 128.01 186.97 127.10 186.97 C 126.20 186.97 125.47 187.71 125.47 188.61 Z"
      fill="black"
      fill-rule="nonzero" /><path d="M 132.41 143.82 L 133.26 143.38 C 134.10 142.94 134.43 141.89 133.99 141.04 C 133.55 140.20 132.51 139.87 131.66 140.31 L 130.82 140.75 C 129.97 141.19 129.64 142.23 130.08 143.08 C 130.52 143.93 131.57 144.26 132.41 143.82 Z M 133.25 143.43 L 134.13 142.99 C 135.00 142.55 135.35 141.48 134.92 140.61 C 134.48 139.74 133.41 139.38 132.54 139.82 L 131.66 140.26 C 130.79 140.70 130.44 141.76 130.87 142.64 C 131.31 143.51 132.38 143.86 133.25 143.43 Z M 134.10 143.04 L 135.04 142.61 C 135.95 142.18 136.34 141.10 135.92 140.20 C 135.49 139.29 134.42 138.90 133.51 139.32 L 132.57 139.76 C 131.66 140.19 131.27 141.26 131.69 142.17 C 132.12 143.08 133.19 143.47 134.10 143.04 Z M 135.00 142.66 L 135.92 142.27 C 136.85 141.87 137.29 140.78 136.89 139.85 C 136.49 138.91 135.41 138.48 134.47 138.88 L 133.55 139.27 C 132.62 139.67 132.18 140.75 132.58 141.69 C 132.98 142.62 134.06 143.06 135.00 142.66 Z M 135.88 142.30 L 136.81 141.93 C 137.76 141.55 138.23 140.47 137.85 139.52 C 137.47 138.56 136.39 138.10 135.43 138.48 L 134.51 138.85 C 133.56 139.23 133.09 140.31 133.47 141.26 C 133.85 142.21 134.93 142.68 135.88 142.30 Z M 136.79 141.95 L 137.74 141.58 C 138.70 141.21 139.19 140.13 138.82 139.17 C 138.45 138.21 137.37 137.73 136.41 138.09 L 135.45 138.46 C 134.49 138.83 134.01 139.91 134.38 140.87 C 134.75 141.83 135.83 142.32 136.79 141.95 Z M 137.74 141.59 L 138.69 141.23 C 139.66 140.87 140.14 139.78 139.78 138.81 C 139.41 137.84 138.33 137.36 137.36 137.72 L 136.41 138.08 C 135.44 138.45 134.95 139.53 135.32 140.50 C 135.69 141.47 136.77 141.96 137.74 141.59 Z M 138.70 141.24 L 139.63 140.88 C 140.60 140.51 141.09 139.42 140.72 138.44 C 140.34 137.47 139.25 136.99 138.28 137.36 L 137.35 137.72 C 136.37 138.09 135.89 139.18 136.26 140.15 C 136.63 141.13 137.72 141.61 138.70 141.24 Z M 139.64 140.88 L 140.56 140.52 C 141.53 140.15 142.01 139.05 141.63 138.08 C 141.26 137.11 140.16 136.63 139.19 137.00 L 138.27 137.36 C 137.30 137.74 136.82 138.83 137.20 139.80 C 137.57 140.77 138.67 141.26 139.64 140.88 Z M 140.55 140.53 L 141.48 140.17 C 142.45 139.80 142.94 138.70 142.56 137.73 C 142.19 136.76 141.09 136.27 140.12 136.65 L 139.20 137.00 C 138.22 137.38 137.74 138.47 138.11 139.44 C 138.49 140.42 139.58 140.90 140.55 140.53 Z M 141.46 140.18 L 142.42 139.82 C 143.39 139.45 143.89 138.36 143.52 137.38 C 143.15 136.41 142.06 135.91 141.09 136.28 L 140.13 136.64 C 139.15 137.01 138.66 138.10 139.03 139.07 C 139.39 140.05 140.49 140.55 141.46 140.18 Z M 142.40 139.83 L 143.21 139.53 C 144.19 139.17 144.70 138.09 144.34 137.11 C 143.98 136.12 142.90 135.62 141.92 135.98 L 141.10 136.27 C 140.12 136.63 139.62 137.72 139.97 138.70 C 140.33 139.68 141.42 140.19 142.40 139.83 Z M 143.20 139.54 L 144.05 139.23 C 145.03 138.88 145.55 137.80 145.19 136.81 C 144.84 135.83 143.76 135.32 142.78 135.67 L 141.93 135.97 C 140.94 136.32 140.43 137.41 140.78 138.39 C 141.13 139.37 142.22 139.89 143.20 139.54 Z M 144.04 139.24 L 144.96 138.91 C 145.95 138.56 146.47 137.48 146.12 136.50 C 145.77 135.51 144.69 134.99 143.70 135.34 L 142.78 135.67 C 141.80 136.01 141.28 137.10 141.63 138.08 C 141.98 139.07 143.06 139.58 144.04 139.24 Z M 144.96 138.91 L 145.98 138.55 C 146.96 138.20 147.48 137.12 147.13 136.14 C 146.78 135.15 145.70 134.64 144.72 134.98 L 143.70 135.34 C 142.72 135.69 142.20 136.77 142.55 137.76 C 142.90 138.74 143.98 139.26 144.96 138.91 Z M 145.98 138.55 L 147.10 138.16 C 148.08 137.81 148.60 136.72 148.25 135.74 C 147.90 134.75 146.82 134.24 145.83 134.59 L 144.71 134.98 C 143.73 135.33 143.21 136.42 143.56 137.40 C 143.91 138.39 145.00 138.90 145.98 138.55 Z M 147.10 138.15 L 147.97 137.84 C 148.95 137.49 149.47 136.41 149.11 135.42 C 148.76 134.44 147.68 133.93 146.70 134.28 L 145.83 134.59 C 144.84 134.94 144.33 136.02 144.68 137.01 C 145.03 137.99 146.12 138.51 147.10 138.15 Z M 147.97 137.84 L 148.89 137.51 C 149.87 137.16 150.38 136.08 150.03 135.09 C 149.68 134.11 148.60 133.60 147.61 133.95 L 146.69 134.28 C 145.71 134.63 145.20 135.71 145.55 136.70 C 145.90 137.68 146.99 138.20 147.97 137.84 Z M 148.89 137.52 L 149.84 137.18 C 150.82 136.82 151.34 135.74 150.99 134.76 C 150.63 133.77 149.55 133.26 148.57 133.61 L 147.61 133.95 C 146.63 134.30 146.12 135.38 146.47 136.37 C 146.82 137.35 147.90 137.87 148.89 137.52 Z M 149.83 137.18 L 150.81 136.83 C 151.79 136.48 152.31 135.40 151.96 134.42 C 151.61 133.43 150.53 132.92 149.55 133.26 L 148.57 133.61 C 147.59 133.96 147.07 135.04 147.42 136.02 C 147.77 137.01 148.85 137.53 149.83 137.18 Z M 150.80 136.84 L 151.78 136.49 C 152.77 136.15 153.29 135.07 152.94 134.08 C 152.60 133.10 151.52 132.58 150.53 132.92 L 149.55 133.26 C 148.57 133.61 148.04 134.69 148.39 135.67 C 148.73 136.66 149.81 137.18 150.80 136.84 Z M 151.77 136.50 L 152.74 136.17 C 153.73 135.83 154.25 134.75 153.91 133.76 C 153.58 132.77 152.50 132.25 151.51 132.58 L 150.54 132.92 C 149.55 133.26 149.03 134.33 149.36 135.32 C 149.70 136.31 150.78 136.84 151.77 136.50 Z M 152.72 136.17 L 153.68 135.85 C 154.67 135.52 155.21 134.45 154.88 133.46 C 154.55 132.46 153.48 131.93 152.48 132.26 L 151.53 132.58 C 150.53 132.91 150.00 133.98 150.33 134.97 C 150.66 135.97 151.73 136.50 152.72 136.17 Z M 153.66 135.86 L 154.67 135.53 C 155.67 135.21 156.21 134.14 155.89 133.15 C 155.57 132.15 154.51 131.61 153.51 131.93 L 152.50 132.25 C 151.51 132.57 150.96 133.64 151.28 134.64 C 151.60 135.63 152.67 136.18 153.66 135.86 Z M 154.65 135.54 L 155.63 135.24 C 156.62 134.93 157.18 133.87 156.87 132.87 C 156.56 131.87 155.50 131.31 154.50 131.62 L 153.53 131.92 C 152.53 132.23 151.97 133.29 152.28 134.29 C 152.59 135.29 153.65 135.85 154.65 135.54 Z M 155.61 135.24 L 156.56 134.96 C 157.56 134.66 158.13 133.60 157.83 132.60 C 157.53 131.60 156.47 131.03 155.47 131.33 L 154.52 131.61 C 153.52 131.91 152.95 132.97 153.25 133.97 C 153.55 134.97 154.61 135.54 155.61 135.24 Z M 156.54 134.96 L 157.48 134.69 C 158.48 134.40 159.06 133.35 158.77 132.35 C 158.48 131.34 157.43 130.76 156.43 131.05 L 155.49 131.33 C 154.49 131.62 153.91 132.66 154.20 133.67 C 154.49 134.67 155.54 135.25 156.54 134.96 Z M 157.46 134.70 L 158.40 134.43 C 159.40 134.15 159.99 133.11 159.71 132.10 C 159.43 131.09 158.38 130.51 157.38 130.79 L 156.44 131.05 C 155.44 131.33 154.85 132.38 155.13 133.38 C 155.41 134.39 156.46 134.98 157.46 134.70 Z M 158.38 134.44 L 159.32 134.18 C 160.33 133.91 160.93 132.86 160.65 131.86 C 160.38 130.85 159.34 130.25 158.33 130.53 L 157.39 130.79 C 156.38 131.06 155.79 132.10 156.06 133.11 C 156.34 134.12 157.38 134.71 158.38 134.44 Z M 159.32 134.18 L 160.27 133.93 C 161.28 133.66 161.88 132.62 161.61 131.61 C 161.34 130.60 160.30 130.00 159.29 130.27 L 158.34 130.53 C 157.33 130.80 156.73 131.83 157.00 132.84 C 157.27 133.85 158.31 134.45 159.32 134.18 Z M 160.26 133.93 L 161.22 133.68 C 162.24 133.42 162.84 132.38 162.58 131.37 C 162.32 130.36 161.28 129.75 160.27 130.02 L 159.30 130.27 C 158.29 130.53 157.69 131.56 157.95 132.58 C 158.21 133.59 159.25 134.19 160.26 133.93 Z M 161.21 133.68 L 162.18 133.44 C 163.20 133.19 163.81 132.16 163.56 131.14 C 163.31 130.13 162.28 129.51 161.26 129.77 L 160.29 130.01 C 159.28 130.27 158.66 131.29 158.91 132.31 C 159.17 133.32 160.19 133.94 161.21 133.68 Z M 162.16 133.44 L 163.14 133.21 C 164.16 132.97 164.79 131.95 164.55 130.93 C 164.30 129.92 163.28 129.29 162.27 129.53 L 161.29 129.76 C 160.27 130.01 159.64 131.02 159.88 132.04 C 160.13 133.06 161.15 133.69 162.16 133.44 Z M 163.12 133.22 L 164.10 133.00 C 165.12 132.77 165.76 131.76 165.53 130.74 C 165.30 129.72 164.29 129.08 163.27 129.31 L 162.29 129.52 C 161.27 129.75 160.63 130.76 160.86 131.78 C 161.09 132.80 162.10 133.44 163.12 133.22 Z M 164.06 133.01 L 165.04 132.81 C 166.06 132.60 166.72 131.60 166.51 130.57 C 166.30 129.55 165.31 128.89 164.28 129.10 L 163.31 129.30 C 162.28 129.51 161.62 130.51 161.83 131.53 C 162.04 132.55 163.04 133.21 164.06 133.01 Z M 165.00 132.81 L 165.95 132.64 C 166.98 132.45 167.66 131.47 167.47 130.44 C 167.28 129.41 166.30 128.73 165.27 128.92 L 164.32 129.09 C 163.29 129.28 162.61 130.27 162.80 131.29 C 162.99 132.32 163.97 133.00 165.00 132.81 Z M 165.91 132.64 L 166.85 132.49 C 167.88 132.33 168.58 131.36 168.42 130.33 C 168.25 129.30 167.29 128.60 166.25 128.76 L 165.31 128.91 C 164.28 129.08 163.58 130.05 163.75 131.08 C 163.91 132.11 164.88 132.81 165.91 132.64 Z M 166.81 132.50 L 167.76 132.37 C 168.79 132.23 169.52 131.27 169.38 130.24 C 169.23 129.21 168.28 128.49 167.25 128.63 L 166.30 128.76 C 165.26 128.90 164.54 129.85 164.68 130.89 C 164.82 131.92 165.78 132.64 166.81 132.50 Z M 167.72 132.37 L 168.69 132.26 C 169.73 132.14 170.47 131.21 170.35 130.17 C 170.23 129.14 169.30 128.39 168.26 128.51 L 167.29 128.62 C 166.25 128.74 165.51 129.68 165.63 130.71 C 165.75 131.75 166.69 132.49 167.72 132.37 Z M 168.65 132.26 L 169.66 132.17 C 170.70 132.07 171.46 131.15 171.36 130.11 C 171.26 129.08 170.34 128.32 169.31 128.41 L 168.30 128.51 C 167.26 128.61 166.50 129.53 166.60 130.56 C 166.70 131.60 167.62 132.36 168.65 132.26 Z M 169.63 132.17 L 170.68 132.09 C 171.71 132.01 172.49 131.11 172.41 130.07 C 172.34 129.03 171.43 128.26 170.39 128.33 L 169.34 128.41 C 168.31 128.49 167.53 129.40 167.61 130.43 C 167.68 131.47 168.59 132.25 169.63 132.17 Z M 170.65 132.09 L 171.71 132.03 C 172.75 131.97 173.54 131.08 173.48 130.04 C 173.42 129.00 172.53 128.21 171.49 128.27 L 170.42 128.33 C 169.39 128.39 168.60 129.29 168.66 130.32 C 168.72 131.36 169.61 132.15 170.65 132.09 Z M 171.68 132.03 L 172.70 131.98 C 173.74 131.94 174.54 131.06 174.49 130.02 C 174.45 128.98 173.57 128.18 172.53 128.23 L 171.52 128.27 C 170.48 128.32 169.68 129.20 169.72 130.23 C 169.77 131.27 170.65 132.07 171.68 132.03 Z M 172.67 131.98 L 173.71 131.95 C 174.74 131.93 175.56 131.06 175.53 130.02 C 175.50 128.98 174.64 128.17 173.60 128.20 L 172.56 128.23 C 171.52 128.25 170.71 129.12 170.73 130.16 C 170.76 131.20 171.63 132.01 172.67 131.98 Z M 173.67 131.95 L 174.72 131.94 C 175.75 131.94 176.59 131.09 176.58 130.05 C 176.57 129.01 175.72 128.18 174.68 128.19 L 173.64 128.20 C 172.60 128.21 171.76 129.05 171.77 130.09 C 171.78 131.13 172.63 131.96 173.67 131.95 Z M 174.67 131.94 L 175.71 131.96 C 176.74 131.97 177.60 131.15 177.61 130.11 C 177.63 129.07 176.80 128.22 175.76 128.20 L 174.73 128.19 C 173.69 128.17 172.84 129.00 172.82 130.04 C 172.81 131.08 173.63 131.93 174.67 131.94 Z M 175.65 131.96 L 176.66 132.00 C 177.69 132.04 178.57 131.24 178.61 130.21 C 178.66 129.17 177.86 128.30 176.82 128.25 L 175.82 128.21 C 174.78 128.16 173.90 128.96 173.86 130.00 C 173.81 131.03 174.62 131.91 175.65 131.96 Z M 176.59 131.99 L 177.55 132.07 C 178.58 132.15 179.48 131.39 179.57 130.35 C 179.65 129.32 178.88 128.42 177.85 128.33 L 176.89 128.26 C 175.86 128.17 174.95 128.94 174.87 129.97 C 174.79 131.01 175.56 131.91 176.59 131.99 Z M 177.46 132.06 L 178.35 132.18 C 179.38 132.31 180.32 131.58 180.45 130.56 C 180.58 129.53 179.86 128.59 178.83 128.46 L 177.94 128.34 C 176.91 128.21 175.97 128.94 175.84 129.96 C 175.71 130.99 176.43 131.93 177.46 132.06 Z M 178.21 132.15 L 179.36 132.39 C 180.38 132.60 181.37 131.95 181.58 130.94 C 181.79 129.92 181.14 128.93 180.12 128.72 L 178.97 128.48 C 177.96 128.27 176.97 128.93 176.76 129.94 C 176.55 130.95 177.20 131.94 178.21 132.15 Z M 179.18 132.34 L 180.18 132.66 C 181.17 132.97 182.22 132.43 182.53 131.44 C 182.84 130.46 182.30 129.41 181.32 129.10 L 180.31 128.77 C 179.33 128.46 178.27 129.01 177.96 129.99 C 177.65 130.97 178.19 132.02 179.18 132.34 Z M 179.99 132.58 L 180.88 132.98 C 181.82 133.40 182.92 132.97 183.34 132.03 C 183.76 131.09 183.34 129.98 182.39 129.56 L 181.51 129.17 C 180.57 128.75 179.46 129.18 179.04 130.12 C 178.62 131.06 179.05 132.16 179.99 132.58 Z M 180.70 132.88 L 181.49 133.34 C 182.38 133.86 183.52 133.55 184.04 132.66 C 184.56 131.77 184.25 130.63 183.36 130.11 L 182.57 129.66 C 181.68 129.14 180.54 129.44 180.02 130.34 C 179.50 131.23 179.81 132.37 180.70 132.88 Z M 181.35 133.25 L 182.07 133.76 C 182.91 134.36 184.07 134.16 184.67 133.32 C 185.26 132.48 185.07 131.32 184.23 130.72 L 183.50 130.21 C 182.66 129.61 181.50 129.81 180.90 130.65 C 180.31 131.49 180.51 132.65 181.35 133.25 Z M 181.96 133.67 L 182.71 134.29 C 183.50 134.95 184.67 134.84 185.33 134.05 C 185.99 133.26 185.88 132.09 185.08 131.43 L 184.34 130.81 C 183.55 130.15 182.37 130.26 181.72 131.05 C 181.06 131.84 181.17 133.02 181.96 133.67 Z M 182.61 134.20 L 183.31 134.88 C 184.05 135.59 185.23 135.57 185.94 134.83 C 186.66 134.09 186.63 132.92 185.89 132.20 L 185.19 131.52 C 184.45 130.81 183.27 130.83 182.56 131.57 C 181.84 132.31 181.87 133.49 182.61 134.20 Z M 183.22 134.78 L 183.89 135.53 C 184.57 136.29 185.75 136.35 186.51 135.67 C 187.27 134.98 187.34 133.81 186.65 133.04 L 185.99 132.30 C 185.30 131.54 184.13 131.47 183.36 132.16 C 182.60 132.85 182.54 134.02 183.22 134.78 Z M 183.80 135.42 L 184.43 136.23 C 185.06 137.04 186.23 137.18 187.03 136.55 C 187.84 135.92 187.99 134.76 187.36 133.95 L 186.73 133.15 C 186.11 132.34 184.94 132.19 184.13 132.82 C 183.32 133.45 183.18 134.62 183.80 135.42 Z M 184.36 136.13 L 184.93 136.96 C 185.50 137.81 186.65 138.03 187.50 137.46 C 188.35 136.88 188.57 135.73 187.99 134.88 L 187.43 134.05 C 186.85 133.20 185.70 132.98 184.85 133.55 C 184.01 134.13 183.79 135.28 184.36 136.13 Z M 184.87 136.87 L 185.37 137.71 C 185.89 138.59 187.03 138.87 187.91 138.35 C 188.78 137.83 189.07 136.69 188.55 135.81 L 188.05 134.98 C 187.53 134.10 186.39 133.81 185.51 134.33 C 184.63 134.85 184.35 135.99 184.87 136.87 Z M 185.32 137.62 L 185.78 138.50 C 186.25 139.40 187.37 139.75 188.28 139.28 C 189.18 138.81 189.53 137.69 189.06 136.78 L 188.60 135.90 C 188.12 135.00 187.01 134.65 186.10 135.12 C 185.20 135.59 184.85 136.71 185.32 137.62 Z M 185.74 138.41 L 186.16 139.33 C 186.58 140.26 187.68 140.66 188.61 140.24 C 189.53 139.82 189.94 138.72 189.52 137.79 L 189.10 136.87 C 188.68 135.95 187.58 135.54 186.65 135.96 C 185.72 136.38 185.31 137.48 185.74 138.41 Z M 186.12 139.23 L 186.49 140.19 C 186.87 141.13 187.94 141.60 188.89 141.23 C 189.84 140.85 190.30 139.78 189.93 138.84 L 189.56 137.89 C 189.18 136.94 188.11 136.47 187.16 136.84 C 186.21 137.22 185.75 138.29 186.12 139.23 Z M 186.46 140.09 L 186.78 141.04 C 187.10 142.01 188.14 142.53 189.11 142.21 C 190.08 141.89 190.60 140.85 190.28 139.88 L 189.96 138.93 C 189.64 137.96 188.60 137.44 187.63 137.76 C 186.66 138.08 186.14 139.13 186.46 140.09 Z M 186.75 140.95 L 187.01 141.89 C 187.29 142.87 188.30 143.45 189.28 143.17 C 190.26 142.90 190.83 141.89 190.56 140.91 L 190.30 139.97 C 190.03 138.99 189.02 138.42 188.04 138.69 C 187.06 138.96 186.48 139.98 186.75 140.95 Z M 187.00 141.81 L 187.22 142.77 C 187.44 143.76 188.43 144.38 189.42 144.15 C 190.41 143.92 191.03 142.94 190.80 141.95 L 190.58 140.99 C 190.35 140.00 189.37 139.38 188.38 139.61 C 187.39 139.84 186.77 140.82 187.00 141.81 Z M 187.20 142.70 L 187.39 143.68 C 187.58 144.68 188.54 145.33 189.54 145.14 C 190.53 144.96 191.19 143.99 191.00 143.00 L 190.81 142.02 C 190.62 141.02 189.66 140.37 188.67 140.55 C 187.67 140.74 187.02 141.70 187.20 142.70 Z M 187.38 143.62 L 187.54 144.63 C 187.70 145.63 188.63 146.31 189.64 146.16 C 190.64 146.00 191.32 145.06 191.16 144.06 L 191.01 143.06 C 190.85 142.06 189.91 141.37 188.91 141.53 C 187.91 141.68 187.23 142.62 187.38 143.62 Z M 187.54 144.58 L 187.67 145.61 C 187.80 146.62 188.72 147.32 189.72 147.19 C 190.72 147.06 191.43 146.15 191.30 145.14 L 191.17 144.11 C 191.04 143.11 190.12 142.40 189.12 142.53 C 188.11 142.66 187.41 143.58 187.54 144.58 Z M 187.67 145.57 L 187.78 146.62 C 187.89 147.62 188.79 148.35 189.80 148.24 C 190.80 148.13 191.53 147.22 191.42 146.22 L 191.30 145.18 C 191.20 144.18 190.29 143.45 189.29 143.56 C 188.28 143.67 187.56 144.57 187.67 145.57 Z M 187.78 146.58 L 187.87 147.63 C 187.97 148.63 188.86 149.37 189.86 149.28 C 190.87 149.19 191.61 148.30 191.51 147.30 L 191.42 146.25 C 191.33 145.25 190.44 144.51 189.43 144.60 C 188.43 144.69 187.69 145.58 187.78 146.58 Z M 187.87 147.60 L 187.95 148.63 C 188.03 149.64 188.91 150.39 189.91 150.31 C 190.92 150.23 191.67 149.35 191.59 148.35 L 191.51 147.32 C 191.44 146.32 190.56 145.56 189.55 145.64 C 188.55 145.72 187.80 146.60 187.87 147.60 Z M 187.95 148.61 L 188.02 149.59 C 188.08 150.60 188.95 151.36 189.95 151.30 C 190.96 151.23 191.72 150.37 191.66 149.36 L 191.59 148.37 C 191.53 147.37 190.66 146.61 189.66 146.67 C 188.65 146.73 187.89 147.60 187.95 148.61 Z M 188.02 149.57 L 188.07 150.50 C 188.12 151.51 188.98 152.28 189.98 152.22 C 190.99 152.17 191.76 151.31 191.70 150.31 L 191.66 149.38 C 191.60 148.38 190.75 147.61 189.74 147.66 C 188.74 147.71 187.97 148.57 188.02 149.57 Z M 188.07 150.48 L 188.11 151.53 C 188.15 152.54 189.00 153.32 190.00 153.28 C 191.00 153.24 191.79 152.39 191.75 151.39 L 191.70 150.33 C 191.66 149.33 190.82 148.55 189.81 148.59 C 188.81 148.63 188.03 149.47 188.07 150.48 Z M 188.11 151.50 L 188.14 152.55 C 188.16 153.55 189.00 154.34 190.00 154.32 C 191.00 154.29 191.79 153.46 191.77 152.46 L 191.74 151.41 C 191.72 150.41 190.88 149.62 189.88 149.65 C 188.88 149.67 188.09 150.50 188.11 151.50 Z M 188.14 152.53 L 188.15 153.48 C 188.17 154.48 188.98 155.28 189.98 155.27 C 190.98 155.26 191.79 154.44 191.78 153.44 L 191.76 152.49 C 191.75 151.49 190.93 150.68 189.93 150.69 C 188.93 150.71 188.13 151.53 188.14 152.53 Z M 188.16 153.46 L 188.16 154.38 C 188.16 155.38 188.97 156.18 189.97 156.18 C 190.97 156.18 191.78 155.37 191.77 154.37 L 191.77 153.45 C 191.77 152.46 190.96 151.65 189.96 151.65 C 188.96 151.65 188.16 152.47 188.16 153.46 Z M 188.16 154.37 L 188.16 155.36 C 188.16 156.35 188.97 157.16 189.97 157.16 C 190.96 157.16 191.77 156.35 191.77 155.36 L 191.77 154.37 C 191.77 153.38 190.96 152.57 189.97 152.57 C 188.97 152.57 188.16 153.38 188.16 154.37 Z M 188.17 155.36 L 188.17 156.37 C 188.17 157.36 188.97 158.16 189.97 158.16 C 190.96 158.16 191.76 157.36 191.76 156.37 L 191.76 155.36 C 191.76 154.36 190.96 153.56 189.97 153.56 C 188.97 153.56 188.17 154.36 188.17 155.36 Z M 188.17 156.37 L 188.17 157.37 C 188.17 158.36 188.98 159.17 189.97 159.17 C 190.96 159.17 191.76 158.36 191.76 157.37 L 191.76 156.37 C 191.76 155.38 190.96 154.57 189.97 154.57 C 188.98 154.57 188.17 155.38 188.17 156.37 Z M 188.18 157.37 L 188.18 158.37 C 188.18 159.36 188.98 160.16 189.97 160.16 C 190.96 160.16 191.76 159.36 191.76 158.37 L 191.76 157.37 C 191.76 156.38 190.96 155.58 189.97 155.58 C 188.98 155.58 188.18 156.38 188.18 157.37 Z M 188.18 158.37 L 188.18 159.38 C 188.18 160.37 188.98 161.17 189.97 161.17 C 190.95 161.17 191.75 160.37 191.75 159.38 L 191.75 158.37 C 191.75 157.38 190.95 156.58 189.97 156.58 C 188.98 156.58 188.18 157.38 188.18 158.37 Z M 188.18 159.38 L 188.18 160.37 C 188.18 161.36 188.98 162.16 189.97 162.16 C 190.95 162.16 191.75 161.36 191.75 160.37 L 191.75 159.38 C 191.75 158.40 190.95 157.60 189.97 157.60 C 188.98 157.60 188.18 158.40 188.18 159.38 Z M 188.19 160.37 L 188.19 161.36 C 188.19 162.34 188.98 163.14 189.97 163.14 C 190.95 163.14 191.74 162.34 191.74 161.36 L 191.74 160.37 C 191.74 159.39 190.95 158.60 189.97 158.60 C 188.98 158.60 188.19 159.39 188.19 160.37 Z M 188.19 161.36 L 188.19 162.35 C 188.19 163.33 188.99 164.12 189.97 164.12 C 190.94 164.12 191.74 163.33 191.74 162.35 L 191.74 161.36 C 191.74 160.38 190.95 159.59 189.97 159.58 C 188.99 159.58 188.19 160.38 188.19 161.36 Z M 188.20 162.34 L 188.19 163.34 C 188.19 164.32 188.98 165.12 189.95 165.12 C 190.93 165.12 191.73 164.33 191.73 163.36 L 191.73 162.36 C 191.74 161.38 190.95 160.58 189.97 160.58 C 189.00 160.58 188.20 161.37 188.20 162.34 Z M 188.20 163.33 L 188.19 164.34 C 188.18 165.31 188.96 166.11 189.93 166.12 C 190.91 166.13 191.70 165.35 191.71 164.38 L 191.73 163.37 C 191.74 162.40 190.96 161.60 189.98 161.59 C 189.01 161.58 188.21 162.36 188.20 163.33 Z M 188.19 164.32 L 188.17 165.32 C 188.15 166.29 188.92 167.09 189.89 167.12 C 190.86 167.14 191.67 166.37 191.69 165.40 L 191.71 164.39 C 191.73 163.42 190.96 162.62 189.99 162.60 C 189.02 162.58 188.21 163.34 188.19 164.32 Z M 188.18 165.29 L 188.14 166.29 C 188.10 167.25 188.85 168.07 189.82 168.11 C 190.79 168.14 191.60 167.39 191.64 166.42 L 191.68 165.42 C 191.72 164.46 190.96 163.64 190.00 163.60 C 189.03 163.57 188.21 164.32 188.18 165.29 Z M 188.14 166.24 L 188.08 167.24 C 188.02 168.21 188.75 169.04 189.72 169.10 C 190.68 169.16 191.51 168.43 191.57 167.46 L 191.63 166.46 C 191.70 165.50 190.96 164.67 190.00 164.61 C 189.04 164.55 188.21 165.28 188.14 166.24 Z M 188.09 167.19 L 188.00 168.19 C 187.91 169.15 188.61 170.00 189.57 170.09 C 190.53 170.18 191.38 169.48 191.47 168.52 L 191.56 167.52 C 191.65 166.56 190.95 165.71 189.99 165.62 C 189.03 165.53 188.18 166.23 188.09 167.19 Z M 188.01 168.14 L 187.88 169.14 C 187.76 170.09 188.44 170.96 189.39 171.08 C 190.34 171.20 191.21 170.52 191.33 169.57 L 191.46 168.57 C 191.57 167.62 190.90 166.75 189.95 166.63 C 189.00 166.51 188.13 167.19 188.01 168.14 Z M 187.89 169.11 L 187.75 170.10 C 187.62 171.05 188.27 171.92 189.22 172.06 C 190.17 172.19 191.04 171.54 191.18 170.59 L 191.32 169.60 C 191.46 168.65 190.80 167.78 189.85 167.64 C 188.91 167.51 188.03 168.16 187.89 169.11 Z M 187.76 170.09 L 187.62 171.07 C 187.48 172.01 188.13 172.89 189.07 173.03 C 190.01 173.17 190.89 172.52 191.03 171.57 L 191.17 170.60 C 191.31 169.66 190.66 168.78 189.72 168.64 C 188.78 168.50 187.90 169.15 187.76 170.09 Z M 187.62 171.08 L 187.48 172.08 C 187.34 173.02 188.00 173.89 188.94 174.02 C 189.87 174.15 190.74 173.50 190.88 172.56 L 191.02 171.56 C 191.15 170.63 190.50 169.76 189.56 169.62 C 188.62 169.49 187.76 170.14 187.62 171.08 Z M 187.49 172.08 L 187.34 173.06 C 187.21 173.99 187.86 174.86 188.79 175.00 C 189.73 175.13 190.59 174.48 190.73 173.55 L 190.87 172.56 C 191.01 171.63 190.36 170.76 189.42 170.63 C 188.49 170.49 187.62 171.14 187.49 172.08 Z M 187.35 173.04 L 187.20 174.02 C 187.05 174.95 187.69 175.82 188.62 175.97 C 189.55 176.12 190.42 175.48 190.56 174.55 L 190.72 173.57 C 190.86 172.64 190.23 171.77 189.30 171.62 C 188.37 171.48 187.50 172.11 187.35 173.04 Z M 187.21 173.99 L 187.05 174.92 C 186.88 175.84 187.49 176.72 188.42 176.89 C 189.34 177.05 190.22 176.44 190.38 175.52 L 190.55 174.59 C 190.72 173.67 190.10 172.78 189.18 172.62 C 188.26 172.45 187.38 173.07 187.21 173.99 Z M 187.06 174.88 L 186.87 175.83 C 186.68 176.75 187.27 177.64 188.19 177.82 C 189.10 178.01 189.99 177.42 190.18 176.51 L 190.37 175.55 C 190.55 174.64 189.96 173.75 189.05 173.56 C 188.14 173.38 187.25 173.97 187.06 174.88 Z M 186.88 175.80 L 186.65 176.81 C 186.45 177.71 187.02 178.61 187.92 178.82 C 188.83 179.02 189.73 178.45 189.93 177.55 L 190.16 176.54 C 190.37 175.64 189.80 174.74 188.89 174.53 C 187.99 174.33 187.09 174.89 186.88 175.80 Z M 186.67 176.77 L 186.42 177.77 C 186.20 178.67 186.74 179.58 187.64 179.80 C 188.54 180.02 189.45 179.48 189.67 178.58 L 189.92 177.58 C 190.14 176.68 189.59 175.78 188.70 175.55 C 187.80 175.33 186.89 175.88 186.67 176.77 Z M 186.43 177.74 L 186.18 178.70 C 185.94 179.59 186.46 180.50 187.35 180.74 C 188.25 180.98 189.16 180.45 189.40 179.56 L 189.66 178.61 C 189.90 177.72 189.37 176.80 188.48 176.56 C 187.59 176.33 186.67 176.85 186.43 177.74 Z M 186.19 178.66 L 185.90 179.64 C 185.65 180.52 186.15 181.45 187.03 181.71 C 187.92 181.96 188.84 181.46 189.10 180.58 L 189.39 179.60 C 189.64 178.72 189.14 177.79 188.26 177.53 C 187.37 177.28 186.45 177.78 186.19 178.66 Z M 185.92 179.60 L 185.61 180.56 C 185.33 181.44 185.81 182.37 186.68 182.66 C 187.55 182.94 188.49 182.46 188.77 181.59 L 189.08 180.62 C 189.37 179.75 188.89 178.81 188.01 178.53 C 187.14 178.24 186.20 178.72 185.92 179.60 Z M 185.63 180.51 L 185.28 181.47 C 184.97 182.33 185.41 183.28 186.27 183.60 C 187.13 183.91 188.08 183.47 188.40 182.61 L 188.75 181.64 C 189.06 180.78 188.62 179.83 187.76 179.52 C 186.90 179.21 185.95 179.65 185.63 180.51 Z M 185.31 181.41 L 184.91 182.37 C 184.56 183.21 184.96 184.18 185.81 184.53 C 186.65 184.88 187.62 184.48 187.97 183.64 L 188.36 182.67 C 188.71 181.83 188.32 180.86 187.47 180.51 C 186.63 180.16 185.66 180.56 185.31 181.41 Z M 184.95 182.30 L 184.52 183.20 C 184.14 184.02 184.49 185.01 185.31 185.39 C 186.14 185.78 187.12 185.43 187.51 184.60 L 187.93 183.70 C 188.32 182.88 187.96 181.90 187.14 181.51 C 186.32 181.12 185.34 181.48 184.95 182.30 Z M 184.56 183.14 L 184.12 183.98 C 183.69 184.78 184.00 185.78 184.80 186.20 C 185.60 186.62 186.60 186.32 187.02 185.52 L 187.47 184.67 C 187.89 183.87 187.58 182.87 186.78 182.45 C 185.98 182.03 184.99 182.33 184.56 183.14 Z M 184.16 183.92 L 183.66 184.76 C 183.20 185.54 183.46 186.54 184.23 187.00 C 185.01 187.47 186.02 187.21 186.48 186.43 L 186.98 185.58 C 187.44 184.80 187.18 183.80 186.40 183.34 C 185.62 182.88 184.62 183.14 184.16 183.92 Z M 183.72 184.67 L 183.16 185.49 C 182.65 186.23 182.84 187.25 183.59 187.76 C 184.33 188.27 185.35 188.08 185.86 187.33 L 186.42 186.52 C 186.93 185.77 186.74 184.75 185.99 184.24 C 185.25 183.73 184.23 183.92 183.72 184.67 Z M 183.25 185.37 L 182.62 186.13 C 182.04 186.83 182.14 187.86 182.83 188.44 C 183.53 189.01 184.56 188.91 185.14 188.22 L 185.77 187.45 C 186.35 186.76 186.25 185.73 185.55 185.15 C 184.86 184.57 183.83 184.67 183.25 185.37 Z M 182.74 186.00 L 182.02 186.70 C 181.38 187.33 181.36 188.36 181.99 189.01 C 182.62 189.66 183.66 189.67 184.31 189.04 L 185.02 188.35 C 185.67 187.72 185.68 186.68 185.05 186.03 C 184.42 185.38 183.38 185.37 182.74 186.00 Z M 182.14 186.59 L 181.39 187.20 C 180.68 187.76 180.57 188.80 181.14 189.50 C 181.70 190.20 182.73 190.32 183.44 189.75 L 184.19 189.14 C 184.90 188.58 185.01 187.55 184.44 186.84 C 183.87 186.14 182.84 186.03 182.14 186.59 Z M 181.47 187.14 L 180.65 187.72 C 179.91 188.24 179.74 189.26 180.26 190.00 C 180.78 190.74 181.80 190.91 182.54 190.39 L 183.36 189.81 C 184.10 189.29 184.27 188.27 183.75 187.53 C 183.23 186.79 182.21 186.62 181.47 187.14 Z M 180.70 187.69 L 179.84 188.25 C 179.08 188.75 178.87 189.76 179.37 190.52 C 179.86 191.27 180.88 191.48 181.63 190.99 L 182.49 190.42 C 183.25 189.92 183.46 188.91 182.96 188.15 C 182.47 187.40 181.45 187.19 180.70 187.69 Z M 179.85 188.24 L 179.40 188.53 C 178.64 189.02 178.42 190.03 178.91 190.79 C 179.40 191.55 180.41 191.77 181.17 191.29 L 181.62 191.00 C 182.38 190.51 182.60 189.50 182.11 188.74 C 181.62 187.97 180.61 187.75 179.85 188.24 Z"
      fill="black"
      fill-rule="nonzero" /><path d="M 146.11 143.34 L 146.32 144.25 C 146.54 145.18 147.48 145.75 148.41 145.53 C 149.34 145.31 149.91 144.38 149.69 143.45 L 149.48 142.55 C 149.26 141.61 148.33 141.04 147.39 141.26 C 146.46 141.48 145.89 142.41 146.11 143.34 Z M 146.33 144.30 L 146.58 145.23 C 146.83 146.16 147.79 146.70 148.72 146.45 C 149.64 146.20 150.19 145.24 149.94 144.32 L 149.69 143.39 C 149.43 142.46 148.48 141.92 147.55 142.17 C 146.62 142.42 146.08 143.38 146.33 144.30 Z M 146.60 145.33 L 146.93 146.30 C 147.24 147.21 148.23 147.70 149.14 147.39 C 150.06 147.08 150.55 146.09 150.24 145.18 L 149.91 144.21 C 149.60 143.30 148.61 142.81 147.70 143.12 C 146.79 143.43 146.30 144.42 146.60 145.33 Z M 146.97 146.42 L 147.39 147.41 C 147.77 148.30 148.80 148.71 149.69 148.34 C 150.58 147.96 150.99 146.93 150.61 146.04 L 150.20 145.05 C 149.82 144.17 148.79 143.75 147.90 144.13 C 147.01 144.51 146.60 145.53 146.97 146.42 Z M 147.45 147.51 L 147.86 148.32 C 148.29 149.18 149.34 149.53 150.20 149.09 C 151.06 148.66 151.40 147.62 150.97 146.76 L 150.56 145.94 C 150.13 145.08 149.08 144.74 148.22 145.17 C 147.36 145.60 147.02 146.65 147.45 147.51 Z M 147.91 148.37 L 148.39 149.23 C 148.85 150.05 149.89 150.35 150.72 149.89 C 151.55 149.43 151.85 148.38 151.39 147.56 L 150.92 146.71 C 150.45 145.88 149.41 145.58 148.58 146.04 C 147.75 146.50 147.45 147.55 147.91 148.37 Z M 148.43 149.25 L 148.95 150.13 C 149.43 150.94 150.47 151.20 151.27 150.72 C 152.08 150.25 152.34 149.21 151.86 148.40 L 151.35 147.53 C 150.87 146.72 149.83 146.46 149.02 146.93 C 148.22 147.41 147.95 148.45 148.43 149.25 Z M 148.98 150.14 L 149.54 151.04 C 150.02 151.82 151.05 152.07 151.83 151.58 C 152.62 151.10 152.86 150.07 152.38 149.29 L 151.83 148.39 C 151.35 147.61 150.32 147.36 149.53 147.84 C 148.75 148.33 148.50 149.36 148.98 150.14 Z M 149.56 151.04 L 150.11 151.91 C 150.59 152.68 151.61 152.92 152.38 152.43 C 153.15 151.95 153.39 150.93 152.90 150.16 L 152.35 149.29 C 151.87 148.52 150.85 148.28 150.08 148.77 C 149.31 149.25 149.08 150.27 149.56 151.04 Z"
      fill="black"
      fill-rule="nonzero" /><path d="M 159.99 137.97 L 159.28 138.64 C 158.58 139.30 158.55 140.40 159.21 141.10 C 159.87 141.80 160.97 141.83 161.66 141.17 L 162.38 140.49 C 163.08 139.84 163.11 138.74 162.45 138.04 C 161.79 137.34 160.69 137.31 159.99 137.97 Z M 159.28 138.64 L 158.56 139.32 C 157.86 139.98 157.82 141.08 158.48 141.78 C 159.14 142.48 160.24 142.51 160.93 141.86 L 161.66 141.17 C 162.36 140.52 162.39 139.42 161.74 138.72 C 161.08 138.02 159.98 137.99 159.28 138.64 Z M 158.56 139.32 L 157.82 140.01 C 157.12 140.66 157.08 141.76 157.74 142.46 C 158.39 143.16 159.49 143.20 160.19 142.55 L 160.93 141.86 C 161.63 141.21 161.67 140.11 161.02 139.41 C 160.36 138.70 159.26 138.67 158.56 139.32 Z M 157.83 140.00 L 157.09 140.69 C 156.39 141.33 156.34 142.43 156.99 143.13 C 157.64 143.84 158.73 143.88 159.44 143.24 L 160.18 142.55 C 160.88 141.91 160.93 140.81 160.28 140.11 C 159.63 139.40 158.54 139.36 157.83 140.00 Z M 157.11 140.68 L 156.36 141.36 C 155.65 142.00 155.60 143.09 156.24 143.80 C 156.88 144.50 157.97 144.55 158.67 143.92 L 159.42 143.24 C 160.13 142.60 160.18 141.51 159.54 140.80 C 158.90 140.10 157.81 140.04 157.11 140.68 Z M 156.37 141.36 L 155.63 142.03 C 154.92 142.66 154.86 143.74 155.49 144.45 C 156.12 145.15 157.20 145.21 157.91 144.59 L 158.65 143.92 C 159.36 143.29 159.42 142.20 158.79 141.50 C 158.16 140.79 157.08 140.73 156.37 141.36 Z M 155.64 142.02 L 154.90 142.67 C 154.19 143.29 154.12 144.37 154.74 145.08 C 155.35 145.79 156.43 145.86 157.14 145.24 L 157.89 144.59 C 158.60 143.97 158.67 142.89 158.05 142.18 C 157.43 141.48 156.35 141.40 155.64 142.02 Z M 154.91 142.68 L 154.15 143.33 C 153.44 143.94 153.36 145.01 153.97 145.72 C 154.59 146.43 155.65 146.51 156.36 145.90 L 157.12 145.24 C 157.83 144.63 157.91 143.56 157.30 142.85 C 156.69 142.14 155.62 142.06 154.91 142.68 Z M 154.15 143.35 L 153.41 144.00 C 152.71 144.61 152.63 145.67 153.25 146.37 C 153.86 147.07 154.92 147.14 155.62 146.53 L 156.36 145.88 C 157.06 145.27 157.14 144.21 156.52 143.51 C 155.91 142.81 154.85 142.74 154.15 143.35 Z M 153.38 144.03 L 152.65 144.71 C 151.97 145.33 151.92 146.39 152.54 147.07 C 153.16 147.75 154.22 147.80 154.90 147.17 L 155.64 146.50 C 156.32 145.88 156.37 144.82 155.75 144.14 C 155.12 143.46 154.07 143.41 153.38 144.03 Z M 152.61 144.75 L 151.93 145.41 C 151.27 146.05 151.26 147.11 151.90 147.77 C 152.54 148.42 153.59 148.44 154.25 147.80 L 154.94 147.13 C 155.59 146.49 155.61 145.44 154.97 144.78 C 154.33 144.12 153.27 144.11 152.61 144.75 Z M 151.90 145.45 L 151.21 146.15 C 150.57 146.81 150.59 147.86 151.24 148.50 C 151.90 149.14 152.95 149.13 153.59 148.47 L 154.28 147.76 C 154.92 147.11 154.91 146.05 154.25 145.41 C 153.59 144.77 152.54 144.79 151.90 145.45 Z M 151.19 146.18 L 150.49 146.93 C 149.86 147.60 149.90 148.65 150.57 149.28 C 151.24 149.90 152.29 149.86 152.91 149.20 L 153.62 148.44 C 154.24 147.77 154.20 146.72 153.53 146.10 C 152.86 145.48 151.81 145.51 151.19 146.18 Z M 150.47 146.95 L 149.79 147.71 C 149.17 148.39 149.22 149.44 149.90 150.05 C 150.58 150.67 151.63 150.62 152.24 149.94 L 152.93 149.18 C 153.55 148.50 153.49 147.45 152.82 146.83 C 152.14 146.22 151.09 146.27 150.47 146.95 Z M 149.76 147.72 L 149.10 148.48 C 148.49 149.17 148.56 150.22 149.25 150.83 C 149.94 151.43 150.99 151.37 151.60 150.68 L 152.26 149.92 C 152.87 149.23 152.80 148.18 152.11 147.57 C 151.42 146.97 150.37 147.03 149.76 147.72 Z M 149.07 148.49 L 148.42 149.27 C 147.82 149.97 147.91 151.03 148.62 151.63 C 149.32 152.23 150.38 152.14 150.98 151.43 L 151.63 150.66 C 152.23 149.95 152.14 148.90 151.43 148.30 C 150.73 147.70 149.67 147.79 149.07 148.49 Z M 148.38 149.29 L 147.76 150.07 C 147.18 150.80 147.29 151.86 148.02 152.44 C 148.74 153.02 149.80 152.91 150.39 152.18 L 151.01 151.40 C 151.59 150.68 151.48 149.62 150.75 149.04 C 150.03 148.45 148.97 148.57 148.38 149.29 Z M 147.71 150.11 L 147.10 150.93 C 146.54 151.68 146.70 152.75 147.45 153.31 C 148.20 153.87 149.26 153.71 149.82 152.96 L 150.43 152.14 C 150.99 151.39 150.84 150.33 150.09 149.77 C 149.34 149.21 148.27 149.36 147.71 150.11 Z M 147.05 150.99 L 146.48 151.83 C 145.95 152.61 146.15 153.67 146.94 154.20 C 147.72 154.73 148.78 154.53 149.31 153.74 L 149.88 152.91 C 150.41 152.12 150.20 151.06 149.42 150.53 C 148.64 150.00 147.58 150.21 147.05 150.99 Z M 146.42 151.89 L 145.91 152.74 C 145.42 153.55 145.68 154.61 146.49 155.11 C 147.31 155.60 148.37 155.34 148.86 154.52 L 149.37 153.68 C 149.86 152.86 149.60 151.80 148.79 151.31 C 147.97 150.82 146.91 151.08 146.42 151.89 Z M 145.85 152.82 L 145.38 153.69 C 144.94 154.54 145.26 155.60 146.11 156.04 C 146.96 156.49 148.01 156.17 148.46 155.32 L 148.92 154.44 C 149.37 153.59 149.05 152.54 148.20 152.09 C 147.35 151.64 146.30 151.97 145.85 152.82 Z M 145.30 153.84 L 144.87 154.89 C 144.50 155.78 144.93 156.81 145.83 157.18 C 146.72 157.55 147.75 157.12 148.12 156.22 L 148.55 155.17 C 148.92 154.27 148.49 153.25 147.59 152.88 C 146.69 152.51 145.67 152.94 145.30 153.84 Z M 144.73 155.38 L 144.64 156.30 C 144.54 157.28 145.25 158.15 146.22 158.24 C 147.20 158.34 148.07 157.63 148.16 156.66 L 148.26 155.73 C 148.36 154.76 147.64 153.89 146.67 153.79 C 145.70 153.69 144.83 154.40 144.73 155.38 Z M 144.91 157.48 L 145.34 158.11 C 145.89 158.93 147.00 159.15 147.82 158.60 C 148.64 158.05 148.86 156.94 148.31 156.12 L 147.89 155.48 C 147.34 154.66 146.22 154.44 145.40 154.99 C 144.58 155.54 144.36 156.66 144.91 157.48 Z M 146.17 158.80 L 146.91 159.08 C 147.84 159.44 148.88 158.98 149.24 158.06 C 149.60 157.13 149.14 156.08 148.22 155.72 L 147.48 155.44 C 146.55 155.08 145.51 155.54 145.15 156.46 C 144.79 157.39 145.25 158.43 146.17 158.80 Z M 147.34 159.20 L 148.33 159.32 C 149.32 159.44 150.23 158.74 150.35 157.75 C 150.47 156.76 149.77 155.86 148.78 155.73 L 147.79 155.61 C 146.80 155.49 145.89 156.19 145.77 157.18 C 145.65 158.17 146.35 159.07 147.34 159.20 Z M 148.58 159.34 L 149.71 159.32 C 150.71 159.31 151.51 158.49 151.50 157.49 C 151.49 156.49 150.67 155.69 149.67 155.70 L 148.53 155.71 C 147.53 155.73 146.73 156.55 146.74 157.55 C 146.75 158.55 147.58 159.35 148.58 159.34 Z M 149.88 159.32 L 151.01 159.20 C 152.01 159.09 152.73 158.20 152.62 157.20 C 152.51 156.20 151.62 155.48 150.62 155.58 L 149.49 155.70 C 148.50 155.81 147.77 156.71 147.88 157.71 C 147.99 158.70 148.88 159.43 149.88 159.32 Z M 151.15 159.18 L 152.13 159.00 C 153.12 158.81 153.77 157.86 153.58 156.88 C 153.40 155.89 152.45 155.24 151.46 155.42 L 150.48 155.60 C 149.49 155.79 148.84 156.74 149.02 157.72 C 149.21 158.71 150.16 159.36 151.15 159.18 Z M 152.24 158.97 L 153.20 158.73 C 154.17 158.48 154.76 157.50 154.52 156.52 C 154.27 155.55 153.28 154.96 152.31 155.21 L 151.35 155.45 C 150.38 155.69 149.79 156.68 150.03 157.65 C 150.28 158.63 151.27 159.22 152.24 158.97 Z M 153.29 158.70 L 154.23 158.41 C 155.19 158.12 155.73 157.10 155.44 156.15 C 155.14 155.19 154.13 154.65 153.17 154.94 L 152.22 155.23 C 151.26 155.53 150.72 156.54 151.02 157.50 C 151.31 158.46 152.33 159.00 153.29 158.70 Z M 154.29 158.39 L 155.25 158.06 C 156.19 157.74 156.70 156.70 156.37 155.76 C 156.04 154.81 155.01 154.31 154.06 154.63 L 153.11 154.96 C 152.16 155.29 151.66 156.32 151.99 157.27 C 152.31 158.21 153.35 158.72 154.29 158.39 Z M 155.28 158.05 L 156.17 157.72 C 157.11 157.37 157.59 156.34 157.24 155.40 C 156.90 154.46 155.86 153.98 154.92 154.32 L 154.03 154.65 C 153.10 154.99 152.61 156.03 152.96 156.97 C 153.30 157.91 154.34 158.39 155.28 158.05 Z M 156.19 157.70 L 157.07 157.36 C 158.00 157.01 158.46 155.97 158.11 155.04 C 157.75 154.11 156.72 153.65 155.79 154.00 L 154.90 154.34 C 153.98 154.70 153.51 155.73 153.86 156.66 C 154.22 157.59 155.26 158.06 156.19 157.70 Z M 157.09 157.35 L 158.00 156.98 C 158.92 156.62 159.37 155.58 159.00 154.66 C 158.64 153.75 157.60 153.30 156.68 153.66 L 155.77 154.02 C 154.85 154.38 154.40 155.42 154.77 156.34 C 155.13 157.26 156.17 157.71 157.09 157.35 Z M 158.01 156.97 L 158.96 156.58 C 159.87 156.21 160.31 155.17 159.93 154.26 C 159.56 153.35 158.52 152.92 157.62 153.29 L 156.67 153.68 C 155.76 154.05 155.32 155.09 155.70 156.00 C 156.07 156.90 157.11 157.34 158.01 156.97 Z M 158.97 156.56 L 159.96 156.15 C 160.86 155.77 161.28 154.74 160.90 153.84 C 160.52 152.94 159.49 152.51 158.59 152.89 L 157.60 153.31 C 156.70 153.69 156.28 154.72 156.66 155.62 C 157.04 156.52 158.07 156.94 158.97 156.56 Z M 159.97 156.13 L 160.92 155.72 C 161.81 155.34 162.22 154.30 161.84 153.41 C 161.46 152.52 160.42 152.11 159.53 152.50 L 158.58 152.91 C 157.69 153.29 157.28 154.33 157.66 155.22 C 158.05 156.11 159.08 156.52 159.97 156.13 Z M 160.93 155.70 L 161.87 155.29 C 162.75 154.90 163.15 153.87 162.76 152.99 C 162.37 152.11 161.34 151.71 160.46 152.10 L 159.53 152.52 C 158.65 152.90 158.25 153.93 158.64 154.81 C 159.02 155.69 160.05 156.09 160.93 155.70 Z M 161.87 155.27 L 162.82 154.85 C 163.69 154.45 164.07 153.43 163.68 152.56 C 163.29 151.69 162.27 151.31 161.40 151.70 L 160.46 152.12 C 159.59 152.51 159.20 153.54 159.59 154.41 C 159.98 155.28 161.00 155.66 161.87 155.27 Z M 162.82 154.83 L 163.75 154.40 C 164.61 154.00 164.99 152.98 164.59 152.13 C 164.19 151.27 163.18 150.89 162.32 151.29 L 161.39 151.72 C 160.53 152.11 160.16 153.13 160.55 153.99 C 160.95 154.85 161.96 155.22 162.82 154.83 Z M 163.76 154.38 L 164.66 153.95 C 165.51 153.55 165.87 152.54 165.47 151.69 C 165.07 150.84 164.05 150.48 163.21 150.88 L 162.31 151.31 C 161.46 151.71 161.10 152.72 161.50 153.57 C 161.90 154.42 162.91 154.78 163.76 154.38 Z M 164.67 153.93 L 165.52 153.52 C 166.35 153.11 166.70 152.10 166.29 151.27 C 165.88 150.43 164.88 150.08 164.04 150.49 L 163.19 150.91 C 162.36 151.31 162.01 152.32 162.42 153.16 C 162.83 153.99 163.84 154.34 164.67 153.93 Z M 165.54 153.49 L 166.52 152.99 C 167.34 152.58 167.67 151.57 167.25 150.75 C 166.83 149.92 165.82 149.60 165.00 150.02 L 164.02 150.52 C 163.20 150.93 162.87 151.94 163.29 152.76 C 163.71 153.59 164.72 153.91 165.54 153.49 Z M 166.54 152.97 L 167.46 152.48 C 168.27 152.05 168.58 151.04 168.14 150.23 C 167.71 149.42 166.70 149.12 165.89 149.55 L 164.98 150.04 C 164.17 150.47 163.86 151.48 164.29 152.29 C 164.73 153.10 165.73 153.40 166.54 152.97 Z M 167.48 152.46 L 168.33 151.99 C 169.13 151.55 169.41 150.54 168.97 149.74 C 168.53 148.94 167.52 148.66 166.72 149.10 L 165.87 149.57 C 165.07 150.01 164.79 151.02 165.23 151.82 C 165.68 152.62 166.68 152.90 167.48 152.46 Z M 168.34 151.97 L 169.14 151.52 C 169.93 151.06 170.21 150.06 169.76 149.27 C 169.30 148.48 168.30 148.21 167.51 148.66 L 166.71 149.12 C 165.92 149.57 165.64 150.57 166.09 151.36 C 166.55 152.15 167.55 152.42 168.34 151.97 Z M 169.15 151.51 L 169.57 151.26 C 170.35 150.81 170.62 149.81 170.17 149.02 C 169.72 148.24 168.71 147.97 167.93 148.42 L 167.51 148.67 C 166.72 149.12 166.45 150.12 166.91 150.90 C 167.36 151.69 168.36 151.96 169.15 151.51 Z"
      fill="black"
      fill-rule="nonzero" /><path d="M 148.22 174.30 L 148.90 173.63 C 149.58 172.96 149.59 171.85 148.92 171.17 C 148.24 170.49 147.14 170.48 146.46 171.15 L 145.78 171.82 C 145.09 172.49 145.08 173.59 145.76 174.28 C 146.43 174.96 147.53 174.97 148.22 174.30 Z M 148.85 173.71 L 149.58 173.05 C 150.31 172.40 150.37 171.29 149.72 170.56 C 149.07 169.83 147.96 169.77 147.23 170.42 L 146.50 171.07 C 145.77 171.72 145.71 172.84 146.36 173.57 C 147.01 174.29 148.13 174.36 148.85 173.71 Z M 149.48 173.17 L 150.31 172.56 C 151.10 171.97 151.26 170.84 150.67 170.05 C 150.08 169.26 148.96 169.09 148.17 169.68 L 147.34 170.30 C 146.54 170.89 146.38 172.01 146.97 172.81 C 147.56 173.60 148.68 173.77 149.48 173.17 Z M 150.16 172.68 L 150.94 172.21 C 151.80 171.70 152.08 170.59 151.57 169.73 C 151.05 168.87 149.94 168.59 149.09 169.10 L 148.31 169.57 C 147.45 170.08 147.17 171.19 147.68 172.05 C 148.19 172.91 149.30 173.19 150.16 172.68 Z M 150.82 172.29 L 151.59 171.90 C 152.49 171.46 152.85 170.37 152.41 169.47 C 151.96 168.57 150.88 168.21 149.98 168.65 L 149.21 169.03 C 148.31 169.48 147.94 170.57 148.39 171.46 C 148.83 172.36 149.92 172.73 150.82 172.29 Z M 151.51 171.94 L 152.39 171.56 C 153.31 171.16 153.73 170.09 153.33 169.17 C 152.92 168.25 151.85 167.83 150.94 168.23 L 150.06 168.61 C 149.14 169.01 148.72 170.08 149.12 171.00 C 149.52 171.92 150.59 172.34 151.51 171.94 Z M 152.34 171.58 L 153.33 171.18 C 154.26 170.81 154.71 169.75 154.34 168.82 C 153.97 167.89 152.91 167.44 151.98 167.81 L 150.98 168.21 C 150.05 168.58 149.60 169.64 149.97 170.57 C 150.35 171.50 151.40 171.95 152.34 171.58 Z M 153.31 171.19 L 154.43 170.76 C 155.37 170.40 155.84 169.35 155.48 168.41 C 155.12 167.48 154.07 167.01 153.13 167.37 L 152.00 167.80 C 151.07 168.16 150.60 169.21 150.96 170.15 C 151.32 171.09 152.37 171.55 153.31 171.19 Z M 154.42 170.77 L 155.30 170.44 C 156.23 170.08 156.71 169.03 156.35 168.09 C 156.00 167.15 154.95 166.68 154.01 167.03 L 153.14 167.36 C 152.20 167.72 151.72 168.77 152.08 169.71 C 152.44 170.65 153.49 171.12 154.42 170.77 Z M 155.29 170.43 L 156.17 170.10 C 157.11 169.75 157.58 168.70 157.23 167.76 C 156.88 166.82 155.83 166.35 154.89 166.70 L 154.01 167.04 C 153.07 167.39 152.60 168.44 152.95 169.38 C 153.31 170.31 154.35 170.79 155.29 170.43 Z M 156.17 170.10 L 157.09 169.75 C 158.03 169.40 158.50 168.36 158.15 167.42 C 157.80 166.48 156.75 166.01 155.81 166.36 L 154.89 166.70 C 153.95 167.06 153.48 168.10 153.83 169.04 C 154.18 169.98 155.23 170.45 156.17 170.10 Z M 157.09 169.75 L 158.04 169.40 C 158.98 169.04 159.46 168.00 159.10 167.06 C 158.75 166.13 157.71 165.65 156.77 166.00 L 155.82 166.36 C 154.88 166.71 154.40 167.75 154.76 168.69 C 155.11 169.63 156.15 170.10 157.09 169.75 Z M 158.04 169.39 L 159.02 169.03 C 159.95 168.68 160.43 167.64 160.08 166.70 C 159.73 165.77 158.69 165.29 157.75 165.64 L 156.77 166.00 C 155.84 166.35 155.36 167.39 155.71 168.33 C 156.06 169.27 157.10 169.74 158.04 169.39 Z M 159.01 169.03 L 160.00 168.66 C 160.93 168.32 161.41 167.28 161.06 166.34 C 160.72 165.40 159.68 164.93 158.74 165.27 L 157.75 165.64 C 156.82 165.99 156.34 167.03 156.69 167.96 C 157.04 168.90 158.08 169.38 159.01 169.03 Z M 160.00 168.66 L 160.98 168.30 C 161.92 167.95 162.39 166.91 162.05 165.98 C 161.70 165.04 160.66 164.57 159.73 164.91 L 158.74 165.27 C 157.81 165.62 157.33 166.66 157.68 167.59 C 158.02 168.53 159.06 169.01 160.00 168.66 Z M 160.98 168.29 L 161.99 167.92 C 162.93 167.58 163.40 166.54 163.06 165.61 C 162.72 164.68 161.68 164.20 160.75 164.54 L 159.73 164.91 C 158.80 165.26 158.32 166.29 158.66 167.23 C 159.01 168.16 160.04 168.64 160.98 168.29 Z M 161.99 167.91 L 163.00 167.54 C 163.93 167.20 164.41 166.17 164.07 165.24 C 163.73 164.31 162.70 163.84 161.77 164.18 L 160.75 164.55 C 159.82 164.89 159.35 165.92 159.69 166.85 C 160.03 167.78 161.06 168.25 161.99 167.91 Z M 163.00 167.53 L 163.98 167.17 C 164.91 166.83 165.39 165.81 165.05 164.89 C 164.71 163.96 163.68 163.48 162.76 163.82 L 161.77 164.18 C 160.85 164.52 160.37 165.55 160.71 166.47 C 161.05 167.40 162.07 167.87 163.00 167.53 Z M 163.98 167.16 L 164.94 166.81 C 165.86 166.48 166.33 165.46 165.99 164.54 C 165.66 163.62 164.64 163.14 163.72 163.48 L 162.76 163.83 C 161.84 164.17 161.37 165.19 161.71 166.11 C 162.04 167.03 163.06 167.50 163.98 167.16 Z M 164.94 166.80 L 165.86 166.46 C 166.77 166.13 167.24 165.11 166.90 164.20 C 166.56 163.28 165.55 162.82 164.63 163.15 L 163.72 163.49 C 162.80 163.83 162.33 164.84 162.67 165.76 C 163.01 166.67 164.02 167.14 164.94 166.80 Z M 165.86 166.45 L 166.73 166.13 C 167.64 165.79 168.10 164.78 167.76 163.87 C 167.42 162.96 166.41 162.50 165.51 162.84 L 164.63 163.16 C 163.72 163.50 163.26 164.51 163.60 165.42 C 163.94 166.33 164.95 166.79 165.86 166.45 Z M 166.74 166.12 L 167.56 165.80 C 168.46 165.46 168.92 164.45 168.58 163.55 C 168.23 162.65 167.23 162.20 166.33 162.54 L 165.50 162.85 C 164.60 163.19 164.14 164.20 164.49 165.10 C 164.83 166.00 165.83 166.46 166.74 166.12 Z M 167.57 165.79 L 168.64 165.37 C 169.54 165.02 169.98 164.02 169.63 163.13 C 169.29 162.23 168.28 161.79 167.39 162.14 L 166.32 162.55 C 165.42 162.90 164.98 163.91 165.33 164.80 C 165.67 165.69 166.68 166.13 167.57 165.79 Z M 168.66 165.35 L 169.65 164.95 C 170.54 164.60 170.97 163.60 170.61 162.72 C 170.26 161.83 169.26 161.40 168.38 161.76 L 167.38 162.16 C 166.50 162.51 166.07 163.51 166.42 164.39 C 166.77 165.28 167.77 165.71 168.66 165.35 Z M 169.67 164.94 L 170.57 164.56 C 171.45 164.20 171.86 163.20 171.50 162.33 C 171.14 161.46 170.14 161.04 169.27 161.40 L 168.36 161.78 C 167.49 162.13 167.08 163.13 167.43 164.01 C 167.79 164.88 168.79 165.29 169.67 164.94 Z M 170.58 164.54 L 171.41 164.19 C 172.27 163.83 172.68 162.83 172.31 161.97 C 171.95 161.11 170.95 160.70 170.09 161.07 L 169.26 161.42 C 168.40 161.78 168.00 162.78 168.36 163.64 C 168.72 164.50 169.72 164.91 170.58 164.54 Z M 171.42 164.18 L 172.27 163.81 C 173.12 163.44 173.51 162.45 173.14 161.60 C 172.77 160.74 171.78 160.35 170.93 160.72 L 170.08 161.09 C 169.23 161.46 168.84 162.45 169.21 163.30 C 169.58 164.15 170.57 164.54 171.42 164.18 Z M 172.31 163.78 L 173.30 163.31 C 174.13 162.92 174.49 161.92 174.10 161.09 C 173.71 160.25 172.71 159.89 171.88 160.29 L 170.89 160.75 C 170.05 161.14 169.69 162.14 170.08 162.98 C 170.48 163.81 171.47 164.17 172.31 163.78 Z M 173.46 163.22 L 174.29 162.71 C 175.07 162.22 175.31 161.20 174.83 160.42 C 174.35 159.63 173.32 159.39 172.54 159.87 L 171.71 160.38 C 170.93 160.87 170.69 161.89 171.17 162.67 C 171.65 163.46 172.68 163.70 173.46 163.22 Z M 174.58 162.46 L 175.21 161.84 C 175.85 161.19 175.85 160.15 175.21 159.50 C 174.56 158.85 173.52 158.85 172.87 159.50 L 172.24 160.12 C 171.60 160.76 171.60 161.81 172.24 162.46 C 172.89 163.11 173.93 163.11 174.58 162.46 Z M 175.51 161.41 L 175.93 160.57 C 176.34 159.76 176.01 158.77 175.20 158.36 C 174.39 157.95 173.40 158.28 172.99 159.09 L 172.57 159.93 C 172.16 160.74 172.48 161.73 173.30 162.14 C 174.11 162.55 175.10 162.22 175.51 161.41 Z M 176.06 160.22 L 176.29 159.25 C 176.51 158.37 175.97 157.48 175.09 157.26 C 174.21 157.05 173.32 157.58 173.10 158.47 L 172.86 159.44 C 172.65 160.32 173.18 161.21 174.07 161.43 C 174.95 161.64 175.84 161.11 176.06 160.22 Z M 176.32 159.09 L 176.47 158.05 C 176.60 157.15 175.97 156.32 175.08 156.20 C 174.18 156.07 173.35 156.69 173.22 157.59 L 173.07 158.63 C 172.95 159.53 173.57 160.36 174.47 160.48 C 175.37 160.61 176.20 159.99 176.32 159.09 Z"
      fill="black"
      fill-rule="nonzero" /><path d="M 159.18 152.82 L 159.14 153.83 C 159.11 154.79 159.85 155.60 160.81 155.64 C 161.77 155.68 162.58 154.93 162.62 153.97 L 162.66 152.97 C 162.70 152.01 161.95 151.20 160.99 151.16 C 160.03 151.12 159.22 151.86 159.18 152.82 Z M 159.11 153.82 L 159.06 154.82 C 159.02 155.80 159.78 156.63 160.76 156.67 C 161.74 156.72 162.57 155.96 162.61 154.98 L 162.65 153.98 C 162.70 153.00 161.94 152.17 160.96 152.13 C 159.98 152.08 159.15 152.84 159.11 153.82 Z M 159.03 154.81 L 158.98 155.80 C 158.93 156.80 159.69 157.65 160.69 157.70 C 161.69 157.75 162.54 156.99 162.59 155.99 L 162.64 155.00 C 162.70 154.00 161.93 153.15 160.93 153.09 C 159.93 153.04 159.08 153.81 159.03 154.81 Z M 158.96 155.78 L 158.89 156.77 C 158.83 157.78 159.60 158.65 160.61 158.71 C 161.62 158.78 162.49 158.01 162.55 157.00 L 162.62 156.01 C 162.68 155.00 161.91 154.13 160.90 154.06 C 159.89 154.00 159.02 154.77 158.96 155.78 Z M 158.88 156.76 L 158.82 157.75 C 158.75 158.76 159.52 159.64 160.53 159.71 C 161.55 159.78 162.43 159.01 162.49 158.00 L 162.56 157.01 C 162.63 155.99 161.86 155.11 160.85 155.04 C 159.83 154.98 158.95 155.74 158.88 156.76 Z M 158.81 157.76 L 158.75 158.76 C 158.69 159.78 159.47 160.65 160.49 160.72 C 161.50 160.78 162.38 160.00 162.44 158.98 L 162.50 157.98 C 162.56 156.96 161.78 156.09 160.77 156.03 C 159.75 155.97 158.87 156.74 158.81 157.76 Z M 158.75 158.80 L 158.71 159.77 C 158.67 160.79 159.46 161.65 160.48 161.70 C 161.50 161.74 162.36 160.94 162.40 159.92 L 162.44 158.95 C 162.49 157.93 161.69 157.07 160.67 157.02 C 159.65 156.98 158.79 157.77 158.75 158.80 Z M 158.71 159.81 L 158.68 160.75 C 158.66 161.77 159.47 162.62 160.50 162.64 C 161.52 162.66 162.36 161.85 162.39 160.83 L 162.41 159.89 C 162.43 158.87 161.62 158.02 160.60 158.00 C 159.57 157.97 158.73 158.79 158.71 159.81 Z M 158.68 160.77 L 158.68 161.76 C 158.67 162.79 159.49 163.62 160.51 163.63 C 161.53 163.64 162.37 162.82 162.38 161.80 L 162.39 160.80 C 162.40 159.78 161.57 158.94 160.55 158.94 C 159.53 158.93 158.69 159.75 158.68 160.77 Z M 158.68 161.78 L 158.67 162.84 C 158.67 163.87 159.50 164.70 160.52 164.70 C 161.54 164.70 162.37 163.87 162.38 162.85 L 162.38 161.78 C 162.38 160.76 161.55 159.93 160.53 159.93 C 159.51 159.93 158.68 160.76 158.68 161.78 Z M 158.67 162.85 L 158.67 163.82 C 158.67 164.84 159.50 165.67 160.52 165.67 C 161.55 165.67 162.38 164.84 162.38 163.82 L 162.38 162.85 C 162.38 161.82 161.55 161.00 160.53 161.00 C 159.50 161.00 158.67 161.82 158.67 162.85 Z M 158.67 163.82 L 158.67 164.76 C 158.67 165.78 159.50 166.61 160.52 166.61 C 161.55 166.61 162.38 165.78 162.38 164.76 L 162.38 163.82 C 162.38 162.79 161.55 161.96 160.52 161.96 C 159.50 161.96 158.67 162.79 158.67 163.82 Z M 158.67 164.76 L 158.67 165.75 C 158.67 166.78 159.50 167.60 160.52 167.60 C 161.55 167.60 162.37 166.78 162.37 165.75 L 162.37 164.76 C 162.37 163.74 161.55 162.91 160.52 162.91 C 159.50 162.91 158.67 163.74 158.67 164.76 Z M 158.68 165.75 L 158.68 166.79 C 158.68 167.81 159.50 168.64 160.52 168.64 C 161.55 168.64 162.37 167.81 162.37 166.79 L 162.37 165.75 C 162.37 164.73 161.55 163.90 160.52 163.90 C 159.50 163.90 158.68 164.73 158.68 165.75 Z M 158.68 166.79 L 158.68 167.87 C 158.68 168.89 159.50 169.72 160.52 169.72 C 161.55 169.72 162.37 168.89 162.37 167.87 L 162.37 166.79 C 162.37 165.77 161.55 164.94 160.52 164.94 C 159.50 164.94 158.68 165.77 158.68 166.79 Z M 158.68 167.87 L 158.68 168.92 C 158.68 169.94 159.50 170.77 160.52 170.77 C 161.55 170.77 162.37 169.94 162.37 168.92 L 162.37 167.87 C 162.37 166.85 161.55 166.02 160.52 166.02 C 159.50 166.02 158.68 166.85 158.68 167.87 Z M 158.68 168.92 L 158.68 169.97 C 158.68 170.98 159.51 171.81 160.52 171.81 C 161.54 171.81 162.37 170.98 162.37 169.97 L 162.37 168.92 C 162.37 167.90 161.54 167.08 160.52 167.08 C 159.51 167.08 158.68 167.90 158.68 168.92 Z M 158.69 169.97 L 158.69 171.00 C 158.69 172.01 159.51 172.84 160.52 172.84 C 161.54 172.84 162.36 172.01 162.36 171.00 L 162.36 169.97 C 162.36 168.95 161.54 168.13 160.52 168.13 C 159.51 168.13 158.69 168.95 158.69 169.97 Z M 158.69 171.00 L 158.69 171.99 C 158.69 173.00 159.51 173.83 160.52 173.83 C 161.54 173.83 162.36 173.00 162.36 171.99 L 162.36 171.00 C 162.36 169.98 161.54 169.16 160.52 169.16 C 159.51 169.16 158.69 169.98 158.69 171.00 Z M 158.69 171.99 L 158.69 172.92 C 158.69 173.93 159.51 174.75 160.52 174.75 C 161.54 174.75 162.36 173.93 162.36 172.92 L 162.36 171.99 C 162.36 170.98 161.54 170.16 160.52 170.16 C 159.51 170.16 158.69 170.98 158.69 171.99 Z M 158.70 172.92 L 158.70 173.94 C 158.70 174.94 159.52 175.76 160.53 175.76 C 161.53 175.76 162.35 174.94 162.35 173.93 L 162.35 172.92 C 162.35 171.91 161.53 171.10 160.52 171.10 C 159.52 171.10 158.70 171.91 158.70 172.92 Z M 158.71 173.94 L 158.72 174.93 C 158.72 175.93 159.53 176.74 160.53 176.73 C 161.54 176.73 162.34 175.92 162.34 174.91 L 162.34 173.93 C 162.33 172.93 161.52 172.12 160.52 172.12 C 159.52 172.13 158.71 172.94 158.71 173.94 Z M 158.73 174.94 L 158.74 175.89 C 158.75 176.89 159.57 177.68 160.56 177.67 C 161.55 177.66 162.35 176.85 162.34 175.85 L 162.33 174.90 C 162.32 173.91 161.50 173.11 160.51 173.12 C 159.51 173.13 158.72 173.95 158.73 174.94 Z M 158.75 175.91 L 158.77 176.91 C 158.80 177.90 159.61 178.68 160.60 178.66 C 161.59 178.63 162.37 177.82 162.35 176.83 L 162.33 175.83 C 162.30 174.85 161.49 174.07 160.50 174.09 C 159.51 174.11 158.73 174.93 158.75 175.91 Z M 158.79 176.93 L 158.82 177.87 C 158.85 178.85 159.67 179.62 160.65 179.59 C 161.63 179.55 162.40 178.73 162.37 177.75 L 162.34 176.81 C 162.30 175.83 161.48 175.06 160.50 175.09 C 159.52 175.13 158.75 175.95 158.79 176.93 Z M 158.82 177.88 L 158.86 178.85 C 158.90 179.82 159.73 180.58 160.70 180.54 C 161.68 180.50 162.44 179.68 162.40 178.70 L 162.36 177.74 C 162.32 176.76 161.50 176.00 160.52 176.04 C 159.54 176.08 158.79 176.91 158.82 177.88 Z M 158.87 178.86 L 158.92 179.87 C 158.96 180.84 159.79 181.60 160.76 181.55 C 161.73 181.51 162.48 180.68 162.44 179.71 L 162.39 178.70 C 162.35 177.72 161.52 176.97 160.55 177.02 C 159.58 177.06 158.83 177.88 158.87 178.86 Z M 158.93 179.88 L 158.98 180.92 C 159.02 181.89 159.85 182.63 160.82 182.58 C 161.79 182.54 162.53 181.71 162.48 180.74 L 162.43 179.70 C 162.38 178.74 161.56 177.99 160.59 178.04 C 159.62 178.08 158.88 178.91 158.93 179.88 Z M 158.98 180.92 L 159.04 181.96 C 159.09 182.93 159.91 183.67 160.87 183.62 C 161.84 183.57 162.58 182.75 162.53 181.78 L 162.48 180.74 C 162.43 179.78 161.60 179.03 160.64 179.08 C 159.68 179.13 158.93 179.96 158.98 180.92 Z M 159.05 181.97 L 159.10 183.01 C 159.15 183.97 159.97 184.71 160.93 184.66 C 161.89 184.61 162.63 183.79 162.58 182.83 L 162.52 181.78 C 162.47 180.82 161.65 180.09 160.69 180.14 C 159.73 180.19 159.00 181.01 159.05 181.97 Z M 159.12 183.01 L 159.17 184.04 C 159.22 184.99 160.04 185.72 160.99 185.67 C 161.94 185.62 162.67 184.80 162.62 183.85 L 162.56 182.83 C 162.51 181.88 161.70 181.15 160.75 181.20 C 159.79 181.25 159.06 182.06 159.12 183.01 Z M 159.19 184.04 L 159.24 185.04 C 159.29 185.99 160.10 186.71 161.05 186.66 C 161.99 186.60 162.71 185.79 162.66 184.85 L 162.61 183.85 C 162.55 182.91 161.74 182.18 160.80 182.24 C 159.86 182.29 159.13 183.10 159.19 184.04 Z M 159.25 185.04 L 159.31 186.02 C 159.36 186.95 160.17 187.67 161.10 187.61 C 162.04 187.56 162.76 186.76 162.70 185.82 L 162.65 184.85 C 162.59 183.91 161.79 183.20 160.85 183.25 C 159.92 183.30 159.20 184.11 159.25 185.04 Z M 159.32 186.02 L 159.38 186.98 C 159.43 187.91 160.23 188.62 161.16 188.56 C 162.09 188.51 162.80 187.71 162.75 186.78 L 162.69 185.82 C 162.64 184.89 161.84 184.18 160.91 184.23 C 159.98 184.29 159.27 185.09 159.32 186.02 Z M 159.39 186.98 L 159.45 188.02 C 159.51 188.95 160.30 189.65 161.23 189.60 C 162.15 189.54 162.85 188.75 162.80 187.82 L 162.74 186.78 C 162.68 185.86 161.89 185.15 160.96 185.21 C 160.04 185.26 159.34 186.06 159.39 186.98 Z M 159.46 188.02 L 159.52 189.03 C 159.57 189.95 160.36 190.65 161.28 190.60 C 162.20 190.54 162.90 189.76 162.85 188.84 L 162.79 187.83 C 162.74 186.91 161.95 186.21 161.03 186.26 C 160.11 186.31 159.41 187.10 159.46 188.02 Z M 159.53 189.02 L 159.58 190.00 C 159.63 190.91 160.41 191.62 161.32 191.57 C 162.24 191.52 162.94 190.74 162.89 189.83 L 162.84 188.85 C 162.79 187.93 162.01 187.23 161.10 187.28 C 160.19 187.33 159.48 188.11 159.53 189.02 Z M 159.59 189.98 L 159.63 190.94 C 159.67 191.84 160.43 192.55 161.34 192.51 C 162.25 192.48 162.96 191.71 162.92 190.80 L 162.88 189.85 C 162.85 188.94 162.08 188.23 161.17 188.27 C 160.26 188.31 159.55 189.07 159.59 189.98 Z M 159.63 190.91 L 159.66 191.93 C 159.68 192.84 160.44 193.55 161.35 193.53 C 162.25 193.50 162.97 192.75 162.94 191.84 L 162.92 190.82 C 162.89 189.92 162.14 189.20 161.23 189.23 C 160.32 189.25 159.61 190.00 159.63 190.91 Z M 159.66 191.91 L 159.68 192.91 C 159.69 193.82 160.43 194.54 161.34 194.53 C 162.24 194.52 162.97 193.77 162.96 192.87 L 162.94 191.86 C 162.93 190.96 162.19 190.23 161.28 190.25 C 160.37 190.26 159.65 191.00 159.66 191.91 Z M 159.68 192.90 L 159.68 193.89 C 159.69 194.79 160.42 195.52 161.33 195.52 C 162.23 195.51 162.96 194.78 162.96 193.87 L 162.95 192.88 C 162.95 191.98 162.21 191.25 161.31 191.25 C 160.40 191.25 159.67 191.99 159.68 192.90 Z M 159.68 193.88 L 159.68 194.68 C 159.68 195.59 160.42 196.32 161.32 196.32 C 162.23 196.32 162.96 195.59 162.96 194.68 L 162.96 193.88 C 162.96 192.97 162.22 192.24 161.32 192.24 C 160.41 192.24 159.68 192.97 159.68 193.88 Z"
      fill="black"
      fill-rule="nonzero" /></svg>