<svg xmlns="http://www.w3.org/2000/svg" width="300" height="300" viewBox="0 0 300 300">
<path d="M 165.78 83.73 L 165.38 82.51 C 165.06 81.54 164.02 81.02 163.05 81.33 C 162.08 81.65 161.55 82.70 161.87 83.67 L 162.27 84.88 C 162.59 85.85 163.63 86.38 164.60 86.06 C 165.57 85.75 166.10 84.70 165.78 83.73 Z M 165.30 82.10 L 164.88 81.39 C 164.33 80.46 163.14 80.16 162.21 80.70 C 161.29 81.25 160.98 82.44 161.53 83.37 L 161.95 84.08 C 162.50 85.00 163.69 85.31 164.61 84.76 C 165.54 84.22 165.84 83.02 165.30 82.10 Z M 162.48 80.50 L 162.10 80.64 C 161.06 81.04 160.54 82.21 160.94 83.25 C 161.34 84.29 162.50 84.80 163.54 84.41 L 163.92 84.26 C 164.96 83.86 165.48 82.69 165.08 81.66 C 164.69 80.62 163.52 80.10 162.48 80.50 Z M 160.98 81.62 L 160.61 82.37 C 160.11 83.39 160.53 84.61 161.54 85.11 C 162.55 85.61 163.78 85.20 164.28 84.18 L 164.65 83.43 C 165.15 82.42 164.74 81.19 163.72 80.69 C 162.71 80.19 161.48 80.60 160.98 81.62 Z M 160.48 82.64 L 160.09 83.84 C 159.74 84.93 160.33 86.09 161.41 86.45 C 162.50 86.80 163.66 86.21 164.02 85.12 L 164.41 83.92 C 164.76 82.83 164.17 81.67 163.09 81.31 C 162.00 80.96 160.84 81.55 160.48 82.64 Z M 160.05 83.93 L 159.74 85.06 C 159.44 86.17 160.09 87.31 161.20 87.61 C 162.30 87.92 163.45 87.26 163.75 86.16 L 164.06 85.03 C 164.36 83.92 163.71 82.78 162.60 82.48 C 161.50 82.17 160.35 82.82 160.05 83.93 Z M 159.73 85.10 L 159.49 86.04 C 159.21 87.15 159.88 88.28 161.00 88.56 C 162.11 88.84 163.25 88.17 163.53 87.05 L 163.76 86.12 C 164.05 85.00 163.37 83.87 162.25 83.59 C 161.14 83.31 160.01 83.98 159.73 85.10 Z M 159.48 86.06 L 159.25 87.05 C 158.98 88.16 159.67 89.29 160.79 89.55 C 161.91 89.82 163.03 89.13 163.30 88.01 L 163.53 87.03 C 163.80 85.91 163.11 84.79 161.99 84.52 C 160.87 84.25 159.75 84.94 159.48 86.06 Z M 159.25 87.07 L 159.02 88.08 C 158.76 89.20 159.47 90.31 160.59 90.56 C 161.71 90.82 162.82 90.11 163.08 88.99 L 163.30 87.99 C 163.56 86.87 162.85 85.75 161.73 85.50 C 160.61 85.25 159.50 85.95 159.25 87.07 Z M 159.01 88.10 L 158.80 89.10 C 158.55 90.23 159.27 91.33 160.39 91.57 C 161.51 91.82 162.62 91.10 162.86 89.98 L 163.08 88.97 C 163.32 87.85 162.61 86.74 161.49 86.50 C 160.36 86.26 159.26 86.97 159.01 88.10 Z M 158.79 89.12 L 158.59 90.12 C 158.36 91.24 159.08 92.34 160.21 92.57 C 161.33 92.80 162.43 92.08 162.66 90.95 L 162.86 89.96 C 163.09 88.84 162.37 87.74 161.25 87.51 C 160.12 87.28 159.03 88.00 158.79 89.12 Z M 158.60 90.14 L 158.40 91.12 C 158.18 92.24 158.91 93.33 160.03 93.55 C 161.15 93.77 162.24 93.04 162.46 91.92 L 162.65 90.93 C 162.87 89.81 162.14 88.73 161.02 88.51 C 159.90 88.29 158.82 89.02 158.60 90.14 Z M 158.42 91.14 L 158.23 92.10 C 158.02 93.21 158.75 94.29 159.86 94.50 C 160.97 94.71 162.04 93.99 162.26 92.88 L 162.44 91.91 C 162.66 90.80 161.93 89.73 160.82 89.51 C 159.71 89.30 158.63 90.03 158.42 91.14 Z M 158.25 92.10 L 158.06 93.06 C 157.85 94.16 158.57 95.23 159.67 95.44 C 160.77 95.66 161.84 94.94 162.05 93.84 L 162.24 92.88 C 162.45 91.78 161.73 90.71 160.63 90.50 C 159.53 90.28 158.47 91.00 158.25 92.10 Z M 158.08 93.05 L 157.89 94.02 C 157.67 95.11 158.37 96.18 159.46 96.40 C 160.55 96.62 161.61 95.92 161.83 94.83 L 162.03 93.85 C 162.25 92.76 161.55 91.70 160.46 91.48 C 159.37 91.26 158.31 91.96 158.08 93.05 Z M 157.91 94.00 L 157.69 95.01 C 157.46 96.08 158.14 97.15 159.22 97.38 C 160.30 97.61 161.36 96.93 161.59 95.85 L 161.81 94.85 C 162.04 93.77 161.36 92.71 160.28 92.48 C 159.21 92.24 158.14 92.93 157.91 94.00 Z M 157.72 94.98 L 157.51 95.90 C 157.26 96.96 157.92 98.02 158.98 98.27 C 160.04 98.51 161.10 97.85 161.35 96.79 L 161.56 95.88 C 161.81 94.82 161.15 93.76 160.09 93.51 C 159.03 93.26 157.97 93.92 157.72 94.98 Z M 157.54 95.87 L 157.31 96.82 C 157.05 97.86 157.68 98.91 158.72 99.17 C 159.76 99.44 160.81 98.80 161.08 97.76 L 161.31 96.82 C 161.57 95.78 160.94 94.72 159.90 94.46 C 158.86 94.20 157.81 94.83 157.54 95.87 Z M 157.34 96.79 L 157.08 97.76 C 156.81 98.78 157.41 99.83 158.43 100.10 C 159.45 100.38 160.50 99.78 160.78 98.76 L 161.04 97.79 C 161.31 96.77 160.71 95.72 159.69 95.44 C 158.67 95.17 157.62 95.77 157.34 96.79 Z M 157.12 97.73 L 156.83 98.71 C 156.54 99.71 157.12 100.75 158.11 101.05 C 159.11 101.34 160.16 100.76 160.45 99.77 L 160.74 98.79 C 161.03 97.79 160.46 96.74 159.46 96.45 C 158.46 96.16 157.41 96.73 157.12 97.73 Z M 156.87 98.68 L 156.56 99.66 C 156.25 100.64 156.79 101.68 157.77 101.99 C 158.75 102.30 159.79 101.76 160.10 100.78 L 160.41 99.80 C 160.72 98.82 160.18 97.78 159.20 97.47 C 158.23 97.16 157.18 97.70 156.87 98.68 Z M 156.60 99.63 L 156.27 100.60 C 155.94 101.56 156.45 102.59 157.40 102.92 C 158.35 103.25 159.39 102.75 159.72 101.79 L 160.06 100.82 C 160.39 99.86 159.88 98.82 158.93 98.49 C 157.97 98.16 156.93 98.67 156.60 99.63 Z M 156.31 100.57 L 155.96 101.50 C 155.61 102.43 156.09 103.47 157.02 103.82 C 157.95 104.17 158.98 103.69 159.33 102.76 L 159.68 101.83 C 160.03 100.90 159.56 99.86 158.62 99.51 C 157.69 99.16 156.66 99.64 156.31 100.57 Z M 156.00 101.48 L 155.63 102.41 C 155.27 103.31 155.71 104.34 156.62 104.71 C 157.53 105.07 158.56 104.63 158.92 103.72 L 159.29 102.79 C 159.65 101.88 159.21 100.85 158.30 100.49 C 157.39 100.13 156.36 100.57 156.00 101.48 Z M 155.67 102.39 L 155.28 103.31 C 154.91 104.20 155.33 105.22 156.21 105.59 C 157.10 105.96 158.12 105.54 158.49 104.66 L 158.88 103.74 C 159.25 102.85 158.83 101.83 157.95 101.46 C 157.06 101.09 156.04 101.50 155.67 102.39 Z M 155.32 103.30 L 154.92 104.22 C 154.54 105.08 154.94 106.09 155.81 106.47 C 156.67 106.85 157.68 106.45 158.06 105.58 L 158.46 104.67 C 158.83 103.80 158.44 102.79 157.57 102.41 C 156.70 102.04 155.70 102.43 155.32 103.30 Z M 154.95 104.22 L 154.54 105.13 C 154.17 105.98 154.55 106.97 155.40 107.35 C 156.24 107.73 157.24 107.35 157.62 106.50 L 158.03 105.59 C 158.40 104.74 158.02 103.74 157.17 103.36 C 156.33 102.99 155.33 103.37 154.95 104.22 Z M 154.57 105.13 L 154.16 106.04 C 153.79 106.88 154.16 107.86 154.99 108.23 C 155.82 108.61 156.80 108.24 157.18 107.41 L 157.59 106.49 C 157.96 105.66 157.59 104.68 156.76 104.31 C 155.93 103.93 154.95 104.30 154.57 105.13 Z"
      fill="black"
      fill-rule="nonzero" /></svg>