<svg xmlns="http://www.w3.org/2000/svg" width="300" height="300" viewBox="0 0 300 300">
<path d="M 146.20 134.83 L 146.41 135.87 C 146.62 136.90 147.61 137.56 148.64 137.36 C 149.66 137.15 150.33 136.15 150.12 135.13 L 149.91 134.08 C 149.71 133.06 148.71 132.39 147.69 132.60 C 146.66 132.80 146.00 133.80 146.20 134.83 Z M 146.41 135.87 L 146.62 136.91 C 146.82 137.93 147.82 138.60 148.84 138.40 C 149.87 138.19 150.53 137.20 150.33 136.17 L 150.12 135.13 C 149.92 134.11 148.92 133.44 147.90 133.64 C 146.87 133.85 146.21 134.84 146.41 135.87 Z M 146.62 136.90 L 146.82 137.93 C 147.02 138.96 148.01 139.62 149.04 139.42 C 150.07 139.22 150.74 138.22 150.53 137.20 L 150.33 136.17 C 150.13 135.15 149.13 134.48 148.11 134.68 C 147.08 134.88 146.41 135.88 146.62 136.90 Z M 146.82 137.92 L 147.01 138.93 C 147.21 139.96 148.20 140.63 149.23 140.43 C 150.26 140.23 150.93 139.24 150.73 138.21 L 150.54 137.20 C 150.34 136.18 149.34 135.51 148.32 135.70 C 147.29 135.90 146.62 136.90 146.82 137.92 Z M 147.01 138.92 L 147.19 139.90 C 147.39 140.93 148.38 141.60 149.41 141.41 C 150.43 141.22 151.11 140.23 150.92 139.20 L 150.73 138.22 C 150.54 137.19 149.55 136.51 148.52 136.71 C 147.49 136.90 146.81 137.89 147.01 138.92 Z M 147.19 139.89 L 147.36 140.83 C 147.55 141.86 148.54 142.55 149.57 142.36 C 150.60 142.17 151.28 141.18 151.09 140.15 L 150.92 139.21 C 150.73 138.18 149.74 137.50 148.71 137.68 C 147.68 137.87 147.00 138.86 147.19 139.89 Z M 147.36 140.82 L 147.52 141.73 C 147.70 142.76 148.68 143.45 149.71 143.27 C 150.74 143.09 151.43 142.11 151.25 141.07 L 151.09 140.17 C 150.91 139.14 149.93 138.45 148.90 138.63 C 147.87 138.81 147.18 139.79 147.36 140.82 Z M 147.52 141.71 L 147.68 142.70 C 147.85 143.73 148.82 144.43 149.85 144.27 C 150.89 144.10 151.59 143.12 151.42 142.09 L 151.25 141.09 C 151.09 140.06 150.11 139.36 149.08 139.53 C 148.05 139.70 147.35 140.67 147.52 141.71 Z M 147.68 142.67 L 147.85 143.80 C 148.00 144.83 148.96 145.54 149.99 145.39 C 151.02 145.24 151.74 144.28 151.58 143.25 L 151.42 142.12 C 151.26 141.09 150.30 140.38 149.27 140.53 C 148.24 140.68 147.53 141.64 147.68 142.67 Z M 147.85 143.76 L 147.98 144.80 C 148.12 145.83 149.06 146.56 150.09 146.43 C 151.12 146.30 151.85 145.35 151.72 144.32 L 151.58 143.28 C 151.45 142.25 150.50 141.52 149.47 141.66 C 148.44 141.79 147.71 142.73 147.85 143.76 Z M 147.98 144.77 L 148.09 145.73 C 148.20 146.76 149.13 147.50 150.16 147.39 C 151.19 147.28 151.93 146.35 151.82 145.32 L 151.71 144.36 C 151.60 143.33 150.67 142.59 149.64 142.70 C 148.62 142.81 147.87 143.74 147.98 144.77 Z M 148.09 145.69 L 148.17 146.60 C 148.27 147.62 149.17 148.38 150.20 148.29 C 151.23 148.20 151.99 147.29 151.90 146.26 L 151.82 145.36 C 151.72 144.33 150.82 143.57 149.79 143.67 C 148.76 143.76 148.00 144.67 148.09 145.69 Z M 148.18 146.56 L 148.24 147.41 C 148.31 148.44 149.20 149.21 150.22 149.14 C 151.25 149.07 152.02 148.18 151.95 147.16 L 151.89 146.30 C 151.82 145.28 150.93 144.50 149.91 144.57 C 148.88 144.64 148.11 145.53 148.18 146.56 Z M 148.25 147.37 L 148.30 148.44 C 148.35 149.45 149.21 150.24 150.23 150.19 C 151.25 150.15 152.04 149.28 151.99 148.26 L 151.94 147.20 C 151.89 146.18 151.03 145.39 150.01 145.44 C 148.99 145.49 148.20 146.35 148.25 147.37 Z M 148.32 148.40 L 148.34 149.40 C 148.37 150.41 149.21 151.21 150.22 151.18 C 151.22 151.16 152.02 150.32 151.99 149.31 L 151.97 148.30 C 151.94 147.29 151.11 146.50 150.10 146.52 C 149.09 146.55 148.29 147.39 148.32 148.40 Z M 148.37 149.37 L 148.38 150.35 C 148.38 151.34 149.20 152.14 150.20 152.13 C 151.19 152.12 151.99 151.31 151.98 150.31 L 151.97 149.34 C 151.96 148.34 151.15 147.54 150.15 147.55 C 149.16 147.56 148.36 148.38 148.37 149.37 Z M 148.40 150.33 L 148.40 151.29 C 148.40 152.27 149.20 153.07 150.18 153.07 C 151.17 153.06 151.97 152.26 151.96 151.28 L 151.96 150.33 C 151.96 149.34 151.16 148.54 150.18 148.55 C 149.19 148.55 148.39 149.35 148.40 150.33 Z M 148.42 151.28 L 148.42 152.28 C 148.42 153.25 149.21 154.04 150.18 154.04 C 151.15 154.04 151.94 153.25 151.94 152.28 L 151.94 151.28 C 151.94 150.31 151.15 149.52 150.18 149.52 C 149.21 149.52 148.42 150.31 148.42 151.28 Z M 148.44 152.28 L 148.44 153.28 C 148.44 154.24 149.22 155.02 150.18 155.02 C 151.14 155.02 151.92 154.24 151.92 153.28 L 151.92 152.28 C 151.92 151.32 151.14 150.54 150.18 150.54 C 149.22 150.54 148.44 151.32 148.44 152.28 Z M 148.47 153.28 L 148.47 154.28 C 148.47 155.23 149.23 155.99 150.18 155.99 C 151.13 155.99 151.89 155.23 151.89 154.28 L 151.89 153.28 C 151.89 152.34 151.13 151.57 150.18 151.57 C 149.23 151.57 148.47 152.34 148.47 153.28 Z M 148.49 154.28 L 148.49 155.15 C 148.49 156.08 149.25 156.84 150.18 156.84 C 151.11 156.84 151.87 156.08 151.87 155.15 L 151.87 154.28 C 151.87 153.35 151.11 152.59 150.18 152.59 C 149.25 152.59 148.49 153.35 148.49 154.28 Z"
      fill="black"
      fill-rule="nonzero" /><path d="M 106.59 172.96 L 107.66 173.02 C 108.63 173.07 109.46 172.32 109.51 171.35 C 109.56 170.37 108.81 169.55 107.84 169.50 L 106.77 169.44 C 105.80 169.39 104.97 170.14 104.92 171.11 C 104.87 172.08 105.62 172.91 106.59 172.96 Z M 107.66 173.09 L 108.70 173.14 C 109.72 173.19 110.58 172.41 110.63 171.40 C 110.68 170.38 109.90 169.52 108.88 169.47 L 107.83 169.42 C 106.82 169.37 105.96 170.15 105.91 171.17 C 105.86 172.18 106.64 173.04 107.66 173.09 Z M 108.71 173.22 L 109.72 173.26 C 110.78 173.31 111.67 172.49 111.72 171.43 C 111.76 170.38 110.94 169.49 109.89 169.44 L 108.88 169.40 C 107.82 169.35 106.93 170.17 106.88 171.22 C 106.84 172.28 107.66 173.17 108.71 173.22 Z M 109.74 173.34 L 110.70 173.37 C 111.79 173.41 112.71 172.55 112.75 171.45 C 112.79 170.36 111.93 169.44 110.83 169.40 L 109.87 169.36 C 108.78 169.33 107.86 170.19 107.82 171.28 C 107.78 172.38 108.64 173.30 109.74 173.34 Z M 110.72 173.44 L 111.65 173.46 C 112.79 173.48 113.73 172.58 113.75 171.45 C 113.78 170.31 112.88 169.37 111.74 169.35 L 110.81 169.33 C 109.67 169.30 108.73 170.20 108.71 171.34 C 108.68 172.48 109.59 173.42 110.72 173.44 Z M 111.70 173.49 L 112.76 173.49 C 113.92 173.49 114.85 172.56 114.85 171.40 C 114.85 170.25 113.91 169.31 112.76 169.31 L 111.70 169.31 C 110.54 169.31 109.61 170.25 109.61 171.40 C 109.61 172.56 110.54 173.50 111.70 173.49 Z M 112.82 173.50 L 113.80 173.47 C 114.95 173.44 115.86 172.47 115.83 171.32 C 115.80 170.16 114.84 169.25 113.68 169.28 L 112.70 169.31 C 111.54 169.34 110.63 170.30 110.66 171.46 C 110.70 172.62 111.66 173.53 112.82 173.50 Z M 113.85 173.47 L 114.80 173.42 C 115.96 173.36 116.85 172.37 116.79 171.21 C 116.72 170.05 115.73 169.16 114.58 169.23 L 113.62 169.28 C 112.47 169.34 111.58 170.33 111.64 171.49 C 111.70 172.65 112.69 173.54 113.85 173.47 Z M 114.84 173.42 L 115.79 173.35 C 116.95 173.27 117.82 172.26 117.73 171.10 C 117.65 169.94 116.64 169.07 115.48 169.15 L 114.53 169.22 C 113.38 169.31 112.50 170.32 112.59 171.48 C 112.68 172.64 113.68 173.51 114.84 173.42 Z M 115.82 173.36 L 116.77 173.27 C 117.93 173.17 118.79 172.15 118.69 170.99 C 118.59 169.83 117.57 168.97 116.40 169.07 L 115.45 169.15 C 114.29 169.25 113.43 170.28 113.53 171.44 C 113.63 172.60 114.65 173.46 115.82 173.36 Z M 116.79 173.28 L 117.79 173.18 C 118.95 173.07 119.80 172.03 119.69 170.87 C 119.58 169.71 118.55 168.86 117.38 168.97 L 116.38 169.07 C 115.22 169.18 114.37 170.21 114.48 171.38 C 114.60 172.54 115.63 173.39 116.79 173.28 Z M 117.81 173.18 L 118.85 173.07 C 120.01 172.95 120.85 171.91 120.73 170.75 C 120.61 169.58 119.57 168.74 118.41 168.86 L 117.37 168.97 C 116.20 169.09 115.36 170.13 115.48 171.29 C 115.60 172.46 116.64 173.30 117.81 173.18 Z M 118.86 173.08 L 119.85 172.97 C 121.02 172.84 121.86 171.79 121.73 170.63 C 121.60 169.46 120.55 168.62 119.39 168.75 L 118.40 168.86 C 117.23 168.98 116.39 170.03 116.52 171.20 C 116.64 172.36 117.69 173.20 118.86 173.08 Z M 119.86 172.97 L 120.82 172.86 C 121.98 172.73 122.82 171.67 122.69 170.51 C 122.56 169.34 121.50 168.51 120.34 168.64 L 119.38 168.75 C 118.21 168.88 117.38 169.93 117.51 171.10 C 117.64 172.26 118.70 173.10 119.86 172.97 Z M 120.83 172.86 L 121.82 172.74 C 122.98 172.60 123.81 171.54 123.67 170.38 C 123.53 169.21 122.48 168.38 121.31 168.52 L 120.33 168.64 C 119.16 168.78 118.33 169.84 118.47 171.00 C 118.61 172.17 119.67 173.00 120.83 172.86 Z M 121.83 172.74 L 122.84 172.61 C 124.01 172.47 124.83 171.40 124.69 170.24 C 124.54 169.07 123.48 168.25 122.31 168.39 L 121.30 168.52 C 120.13 168.67 119.31 169.73 119.45 170.90 C 119.60 172.06 120.66 172.89 121.83 172.74 Z M 122.86 172.61 L 123.90 172.47 C 125.07 172.32 125.89 171.25 125.73 170.08 C 125.58 168.92 124.51 168.10 123.34 168.25 L 122.30 168.39 C 121.13 168.55 120.31 169.62 120.47 170.78 C 120.62 171.95 121.69 172.77 122.86 172.61 Z M 123.92 172.47 L 124.85 172.34 C 126.02 172.18 126.83 171.10 126.67 169.94 C 126.50 168.77 125.43 167.96 124.26 168.12 L 123.33 168.25 C 122.16 168.42 121.35 169.49 121.51 170.66 C 121.68 171.82 122.75 172.64 123.92 172.47 Z M 124.86 172.34 L 125.82 172.20 C 126.99 172.03 127.79 170.95 127.63 169.79 C 127.46 168.62 126.38 167.82 125.21 167.99 L 124.25 168.12 C 123.09 168.29 122.28 169.37 122.45 170.54 C 122.62 171.70 123.70 172.51 124.86 172.34 Z M 125.83 172.20 L 126.81 172.06 C 127.98 171.89 128.78 170.80 128.61 169.64 C 128.44 168.48 127.36 167.67 126.19 167.84 L 125.21 167.99 C 124.04 168.16 123.24 169.24 123.41 170.40 C 123.58 171.57 124.66 172.37 125.83 172.20 Z M 126.81 172.06 L 127.82 171.91 C 128.99 171.74 129.79 170.66 129.62 169.49 C 129.45 168.33 128.37 167.52 127.20 167.69 L 126.19 167.84 C 125.03 168.01 124.22 169.09 124.39 170.26 C 124.56 171.42 125.65 172.23 126.81 172.06 Z M 127.82 171.91 L 128.86 171.76 C 130.03 171.59 130.83 170.51 130.66 169.34 C 130.49 168.18 129.41 167.37 128.25 167.54 L 127.21 167.69 C 126.04 167.86 125.23 168.94 125.40 170.11 C 125.57 171.27 126.65 172.08 127.82 171.91 Z M 128.85 171.76 L 129.83 171.62 C 130.99 171.46 131.80 170.38 131.64 169.21 C 131.47 168.04 130.39 167.23 129.23 167.40 L 128.25 167.54 C 127.09 167.70 126.27 168.78 126.44 169.95 C 126.61 171.12 127.69 171.93 128.85 171.76 Z M 129.82 171.63 L 130.78 171.49 C 131.95 171.33 132.76 170.25 132.60 169.08 C 132.44 167.91 131.36 167.10 130.19 167.26 L 129.23 167.40 C 128.06 167.56 127.25 168.64 127.41 169.81 C 127.57 170.97 128.65 171.79 129.82 171.63 Z M 130.78 171.49 L 131.76 171.36 C 132.93 171.20 133.74 170.12 133.58 168.95 C 133.42 167.78 132.34 166.97 131.18 167.13 L 130.20 167.26 C 129.03 167.42 128.21 168.50 128.37 169.67 C 128.53 170.84 129.61 171.65 130.78 171.49 Z M 131.76 171.36 L 132.76 171.22 C 133.92 171.06 134.74 169.98 134.58 168.81 C 134.42 167.65 133.34 166.83 132.17 166.99 L 131.18 167.13 C 130.01 167.29 129.19 168.36 129.35 169.53 C 129.51 170.70 130.59 171.52 131.76 171.36 Z M 132.76 171.22 L 133.77 171.08 C 134.94 170.92 135.75 169.84 135.59 168.68 C 135.43 167.51 134.36 166.69 133.19 166.85 L 132.17 166.99 C 131.01 167.15 130.19 168.23 130.35 169.40 C 130.51 170.56 131.59 171.38 132.76 171.22 Z M 133.77 171.08 L 134.80 170.94 C 135.97 170.78 136.78 169.70 136.62 168.53 C 136.46 167.36 135.38 166.55 134.21 166.71 L 133.18 166.85 C 132.02 167.01 131.20 168.09 131.36 169.26 C 131.52 170.43 132.60 171.24 133.77 171.08 Z M 134.80 170.94 L 135.79 170.80 C 136.96 170.64 137.77 169.56 137.61 168.39 C 137.44 167.22 136.36 166.41 135.20 166.57 L 134.21 166.71 C 133.04 166.87 132.23 167.95 132.39 169.12 C 132.55 170.29 133.63 171.10 134.80 170.94 Z M 135.79 170.80 L 136.78 170.66 C 137.94 170.49 138.76 169.41 138.59 168.24 C 138.42 167.08 137.34 166.26 136.18 166.43 L 135.19 166.57 C 134.02 166.74 133.21 167.82 133.38 168.99 C 133.54 170.15 134.63 170.97 135.79 170.80 Z M 136.78 170.66 L 137.77 170.52 C 138.94 170.35 139.75 169.27 139.58 168.10 C 139.41 166.93 138.33 166.12 137.16 166.29 L 136.17 166.43 C 135.00 166.60 134.19 167.68 134.36 168.85 C 134.53 170.02 135.61 170.83 136.78 170.66 Z M 137.77 170.52 L 138.77 170.37 C 139.93 170.20 140.74 169.12 140.57 167.95 C 140.40 166.79 139.32 165.98 138.15 166.15 L 137.16 166.29 C 135.99 166.46 135.18 167.54 135.35 168.71 C 135.52 169.88 136.60 170.69 137.77 170.52 Z M 138.77 170.37 L 139.76 170.23 C 140.93 170.06 141.74 168.97 141.57 167.81 C 141.40 166.64 140.31 165.83 139.15 166.00 L 138.15 166.15 C 136.98 166.32 136.17 167.40 136.34 168.57 C 136.52 169.74 137.60 170.54 138.77 170.37 Z M 139.76 170.23 L 140.76 170.08 C 141.93 169.91 142.73 168.82 142.56 167.66 C 142.39 166.49 141.31 165.68 140.14 165.85 L 139.14 166.00 C 137.98 166.17 137.17 167.26 137.34 168.42 C 137.51 169.59 138.60 170.40 139.76 170.23 Z M 140.76 170.08 L 141.75 169.94 C 142.91 169.76 143.72 168.68 143.55 167.51 C 143.38 166.34 142.29 165.54 141.12 165.71 L 140.14 165.85 C 138.97 166.03 138.16 167.11 138.34 168.28 C 138.51 169.45 139.59 170.25 140.76 170.08 Z M 141.75 169.94 L 142.72 169.79 C 143.89 169.62 144.70 168.53 144.52 167.37 C 144.35 166.20 143.27 165.39 142.10 165.57 L 141.12 165.71 C 139.96 165.88 139.15 166.97 139.32 168.13 C 139.49 169.30 140.58 170.11 141.75 169.94 Z M 142.72 169.79 L 143.70 169.65 C 144.87 169.48 145.67 168.39 145.50 167.22 C 145.33 166.06 144.24 165.25 143.08 165.42 L 142.10 165.57 C 140.93 165.74 140.12 166.82 140.30 167.99 C 140.47 169.16 141.55 169.96 142.72 169.79 Z M 143.70 169.65 L 144.68 169.50 C 145.85 169.33 146.65 168.25 146.48 167.08 C 146.31 165.91 145.23 165.11 144.06 165.28 L 143.08 165.42 C 141.91 165.59 141.10 166.68 141.27 167.84 C 141.44 169.01 142.53 169.82 143.70 169.65 Z M 144.68 169.50 L 145.67 169.36 C 146.83 169.19 147.64 168.11 147.47 166.94 C 147.30 165.77 146.22 164.96 145.05 165.13 L 144.06 165.28 C 142.89 165.45 142.08 166.53 142.25 167.70 C 142.42 168.87 143.51 169.67 144.68 169.50 Z M 145.66 169.36 L 146.66 169.22 C 147.83 169.05 148.64 167.97 148.48 166.80 C 148.31 165.63 147.23 164.82 146.06 164.99 L 145.05 165.13 C 143.89 165.30 143.08 166.38 143.24 167.55 C 143.41 168.72 144.49 169.53 145.66 169.36 Z M 146.66 169.22 L 147.68 169.07 C 148.85 168.91 149.66 167.83 149.49 166.66 C 149.33 165.49 148.25 164.68 147.08 164.84 L 146.06 164.99 C 144.89 165.15 144.08 166.23 144.25 167.40 C 144.41 168.57 145.49 169.38 146.66 169.22 Z M 147.67 169.07 L 148.66 168.94 C 149.83 168.78 150.64 167.70 150.48 166.53 C 150.32 165.36 149.24 164.54 148.07 164.71 L 147.08 164.84 C 145.92 165.01 145.10 166.08 145.26 167.25 C 145.43 168.42 146.50 169.24 147.67 169.07 Z M 148.65 168.94 L 149.65 168.80 C 150.82 168.64 151.64 167.56 151.48 166.40 C 151.32 165.23 150.24 164.41 149.07 164.57 L 148.08 164.71 C 146.91 164.87 146.09 165.94 146.25 167.11 C 146.41 168.28 147.49 169.10 148.65 168.94 Z M 149.65 168.80 L 150.65 168.66 C 151.82 168.51 152.64 167.43 152.48 166.26 C 152.32 165.10 151.25 164.28 150.08 164.44 L 149.08 164.57 C 147.91 164.73 147.09 165.80 147.25 166.97 C 147.41 168.14 148.48 168.96 149.65 168.80 Z M 150.65 168.66 L 151.65 168.53 C 152.82 168.37 153.64 167.30 153.48 166.13 C 153.32 164.96 152.25 164.14 151.08 164.30 L 150.08 164.44 C 148.91 164.59 148.09 165.67 148.25 166.83 C 148.41 168.00 149.48 168.82 150.65 168.66 Z M 151.65 168.53 L 152.64 168.40 C 153.81 168.24 154.63 167.17 154.48 166.00 C 154.32 164.83 153.25 164.01 152.08 164.17 L 151.08 164.30 C 149.92 164.46 149.10 165.53 149.25 166.70 C 149.41 167.86 150.48 168.69 151.65 168.53 Z M 152.64 168.40 L 153.63 168.27 C 154.79 168.11 155.61 167.04 155.46 165.87 C 155.30 164.70 154.23 163.88 153.06 164.04 L 152.08 164.17 C 150.91 164.32 150.09 165.40 150.25 166.56 C 150.40 167.73 151.48 168.55 152.64 168.40 Z M 153.62 168.26 L 154.61 168.13 C 155.77 167.98 156.59 166.91 156.44 165.74 C 156.28 164.58 155.21 163.76 154.05 163.91 L 153.06 164.04 C 151.90 164.19 151.08 165.27 151.23 166.43 C 151.39 167.60 152.46 168.42 153.62 168.26 Z M 154.61 168.13 L 155.63 168.00 C 156.80 167.84 157.62 166.77 157.46 165.61 C 157.31 164.44 156.24 163.62 155.07 163.77 L 154.05 163.91 C 152.88 164.07 152.06 165.14 152.22 166.30 C 152.37 167.47 153.44 168.29 154.61 168.13 Z M 155.63 168.00 L 156.64 167.86 C 157.80 167.71 158.62 166.64 158.47 165.47 C 158.31 164.31 157.24 163.49 156.08 163.64 L 155.07 163.78 C 153.91 163.93 153.09 165.00 153.24 166.17 C 153.40 167.33 154.47 168.15 155.63 168.00 Z M 156.64 167.86 L 157.63 167.73 C 158.79 167.57 159.61 166.51 159.46 165.34 C 159.30 164.18 158.23 163.36 157.07 163.51 L 156.08 163.64 C 154.91 163.80 154.10 164.87 154.25 166.03 C 154.41 167.20 155.47 168.02 156.64 167.86 Z M 157.63 167.73 L 158.60 167.60 C 159.77 167.44 160.59 166.38 160.43 165.21 C 160.28 164.05 159.21 163.23 158.05 163.38 L 157.07 163.51 C 155.90 163.67 155.09 164.74 155.24 165.90 C 155.39 167.06 156.46 167.88 157.63 167.73 Z M 158.60 167.60 L 159.57 167.47 C 160.74 167.31 161.56 166.25 161.40 165.08 C 161.25 163.92 160.18 163.10 159.02 163.26 L 158.05 163.39 C 156.88 163.54 156.06 164.61 156.22 165.77 C 156.37 166.93 157.44 167.75 158.60 167.60 Z M 159.57 167.47 L 160.54 167.34 C 161.71 167.19 162.52 166.12 162.37 164.96 C 162.22 163.79 161.15 162.98 159.99 163.13 L 159.02 163.26 C 157.86 163.41 157.04 164.48 157.19 165.64 C 157.34 166.80 158.41 167.62 159.57 167.47 Z M 160.54 167.34 L 161.52 167.21 C 162.68 167.06 163.50 165.99 163.35 164.83 C 163.20 163.67 162.13 162.85 160.97 163.00 L 159.99 163.13 C 158.83 163.28 158.01 164.35 158.16 165.51 C 158.31 166.67 159.38 167.49 160.54 167.34 Z M 161.52 167.21 L 162.50 167.08 C 163.66 166.93 164.48 165.87 164.33 164.71 C 164.18 163.55 163.12 162.73 161.96 162.88 L 160.97 163.00 C 159.81 163.15 158.99 164.22 159.14 165.38 C 159.29 166.54 160.36 167.36 161.52 167.21 Z M 162.49 167.08 L 163.48 166.96 C 164.64 166.81 165.46 165.75 165.32 164.59 C 165.17 163.43 164.12 162.61 162.96 162.75 L 161.97 162.88 C 160.81 163.02 159.98 164.08 160.13 165.24 C 160.27 166.40 161.33 167.22 162.49 167.08 Z M 163.47 166.95 L 164.46 166.84 C 165.62 166.70 166.45 165.64 166.31 164.49 C 166.17 163.33 165.12 162.50 163.96 162.64 L 162.97 162.76 C 161.81 162.89 160.98 163.95 161.12 165.11 C 161.26 166.27 162.31 167.09 163.47 166.95 Z M 164.45 166.84 L 165.45 166.72 C 166.61 166.59 167.44 165.55 167.31 164.39 C 167.18 163.23 166.14 162.40 164.98 162.53 L 163.98 162.64 C 162.82 162.77 161.98 163.81 162.11 164.97 C 162.24 166.13 163.29 166.96 164.45 166.84 Z M 165.43 166.72 L 166.43 166.62 C 167.59 166.50 168.44 165.46 168.32 164.30 C 168.20 163.15 167.16 162.30 166.00 162.42 L 165.00 162.53 C 163.84 162.64 162.99 163.68 163.11 164.84 C 163.23 166.00 164.27 166.84 165.43 166.72 Z M 166.41 166.62 L 167.41 166.53 C 168.56 166.42 169.42 165.39 169.31 164.23 C 169.20 163.08 168.18 162.22 167.02 162.33 L 166.02 162.42 C 164.87 162.53 164.01 163.56 164.12 164.71 C 164.23 165.87 165.25 166.73 166.41 166.62 Z M 167.39 166.53 L 168.38 166.44 C 169.54 166.35 170.40 165.33 170.30 164.17 C 170.21 163.01 169.19 162.15 168.03 162.25 L 167.04 162.33 C 165.88 162.43 165.02 163.45 165.11 164.60 C 165.21 165.76 166.23 166.62 167.39 166.53 Z M 168.36 166.44 L 169.36 166.37 C 170.52 166.28 171.39 165.27 171.30 164.11 C 171.21 162.95 170.20 162.09 169.04 162.18 L 168.05 162.25 C 166.89 162.34 166.02 163.35 166.11 164.50 C 166.20 165.66 167.21 166.53 168.36 166.44 Z M 169.35 166.36 L 170.35 166.29 C 171.51 166.21 172.38 165.21 172.30 164.05 C 172.22 162.90 171.21 162.03 170.06 162.11 L 169.06 162.18 C 167.90 162.26 167.03 163.26 167.11 164.42 C 167.19 165.57 168.19 166.44 169.35 166.36 Z M 170.34 166.29 L 171.34 166.22 C 172.50 166.15 173.37 165.15 173.29 164.00 C 173.22 162.84 172.22 161.97 171.07 162.04 L 170.07 162.11 C 168.91 162.19 168.04 163.18 168.11 164.34 C 168.19 165.49 169.19 166.37 170.34 166.29 Z M 171.34 166.22 L 172.34 166.16 C 173.49 166.08 174.36 165.09 174.29 163.94 C 174.22 162.78 173.22 161.91 172.07 161.98 L 171.07 162.05 C 169.92 162.12 169.04 163.11 169.12 164.27 C 169.19 165.42 170.19 166.29 171.34 166.22 Z M 172.34 166.15 L 173.34 166.09 C 174.49 166.02 175.37 165.03 175.29 163.87 C 175.22 162.72 174.23 161.85 173.08 161.92 L 172.07 161.99 C 170.92 162.06 170.05 163.05 170.12 164.20 C 170.19 165.35 171.18 166.23 172.34 166.15 Z M 173.34 166.09 L 174.35 166.02 C 175.50 165.95 176.38 164.96 176.30 163.81 C 176.23 162.66 175.24 161.79 174.09 161.86 L 173.08 161.93 C 171.93 162.00 171.06 162.99 171.13 164.14 C 171.20 165.29 172.19 166.16 173.34 166.09 Z M 174.35 166.02 L 175.36 165.96 C 176.50 165.89 177.38 164.90 177.31 163.75 C 177.24 162.61 176.25 161.73 175.10 161.80 L 174.10 161.87 C 172.95 161.94 172.08 162.92 172.15 164.07 C 172.22 165.22 173.20 166.09 174.35 166.02 Z M 175.35 165.95 L 176.35 165.89 C 177.50 165.83 178.37 164.84 178.30 163.70 C 178.24 162.55 177.25 161.68 176.11 161.75 L 175.11 161.81 C 173.96 161.88 173.09 162.86 173.16 164.00 C 173.22 165.15 174.21 166.02 175.35 165.95 Z M 176.35 165.89 L 177.34 165.84 C 178.48 165.77 179.36 164.79 179.29 163.65 C 179.23 162.51 178.25 161.63 177.11 161.70 L 176.12 161.75 C 174.97 161.82 174.10 162.79 174.16 163.94 C 174.23 165.08 175.20 165.95 176.35 165.89 Z M 177.33 165.83 L 178.31 165.78 C 179.46 165.72 180.33 164.75 180.27 163.61 C 180.22 162.47 179.24 161.59 178.10 161.65 L 177.12 161.70 C 175.98 161.76 175.10 162.73 175.16 163.87 C 175.22 165.01 176.19 165.89 177.33 165.83 Z M 178.30 165.78 L 179.29 165.73 C 180.43 165.68 181.31 164.72 181.26 163.58 C 181.21 162.44 180.24 161.56 179.10 161.61 L 178.12 161.65 C 176.98 161.71 176.10 162.67 176.15 163.81 C 176.20 164.95 177.16 165.83 178.30 165.78 Z M 179.28 165.73 L 180.28 165.69 C 181.42 165.65 182.30 164.69 182.26 163.55 C 182.22 162.42 181.26 161.53 180.12 161.58 L 179.12 161.61 C 177.98 161.66 177.10 162.62 177.14 163.75 C 177.18 164.89 178.14 165.77 179.28 165.73 Z M 180.27 165.68 L 181.27 165.65 C 182.40 165.61 183.29 164.66 183.25 163.53 C 183.22 162.40 182.27 161.51 181.13 161.55 L 180.14 161.58 C 179.00 161.62 178.11 162.57 178.15 163.70 C 178.19 164.83 179.14 165.72 180.27 165.68 Z M 181.26 165.65 L 182.26 165.62 C 183.39 165.59 184.28 164.64 184.25 163.51 C 184.21 162.38 183.27 161.49 182.14 161.52 L 181.14 161.55 C 180.01 161.58 179.12 162.53 179.16 163.66 C 179.19 164.79 180.13 165.68 181.26 165.65 Z M 182.25 165.61 L 183.24 165.59 C 184.37 165.56 185.26 164.62 185.23 163.49 C 185.21 162.37 184.27 161.47 183.14 161.50 L 182.15 161.53 C 181.02 161.56 180.13 162.49 180.16 163.62 C 180.18 164.75 181.12 165.64 182.25 165.61 Z M 183.24 165.58 L 184.24 165.56 C 185.36 165.53 186.25 164.60 186.23 163.47 C 186.20 162.35 185.27 161.46 184.14 161.49 L 183.15 161.51 C 182.02 161.53 181.13 162.47 181.16 163.59 C 181.18 164.72 182.12 165.61 183.24 165.58 Z M 184.23 165.55 L 185.25 165.53 C 186.37 165.51 187.26 164.58 187.24 163.45 C 187.21 162.33 186.28 161.44 185.16 161.47 L 184.14 161.49 C 183.02 161.52 182.13 162.45 182.16 163.57 C 182.18 164.69 183.11 165.58 184.23 165.55 Z M 185.25 165.53 L 186.29 165.50 C 187.41 165.48 188.30 164.55 188.28 163.43 C 188.25 162.31 187.32 161.43 186.21 161.45 L 185.16 161.47 C 184.04 161.50 183.15 162.42 183.18 163.54 C 183.20 164.66 184.13 165.55 185.25 165.53 Z M 186.29 165.50 L 187.33 165.48 C 188.45 165.45 189.33 164.53 189.31 163.41 C 189.29 162.29 188.36 161.41 187.24 161.43 L 186.21 161.45 C 185.09 161.48 184.20 162.40 184.23 163.52 C 184.25 164.64 185.18 165.52 186.29 165.50 Z M 187.33 165.47 L 188.34 165.45 C 189.46 165.43 190.34 164.51 190.32 163.39 C 190.30 162.28 189.38 161.39 188.26 161.42 L 187.25 161.44 C 186.13 161.46 185.24 162.38 185.27 163.49 C 185.29 164.61 186.21 165.50 187.33 165.47 Z M 188.34 165.45 L 189.32 165.43 C 190.44 165.41 191.32 164.49 191.30 163.38 C 191.28 162.27 190.36 161.38 189.25 161.40 L 188.27 161.42 C 187.15 161.44 186.27 162.36 186.29 163.47 C 186.31 164.58 187.23 165.47 188.34 165.45 Z M 189.32 165.43 L 190.26 165.41 C 191.37 165.40 192.25 164.48 192.24 163.37 C 192.22 162.26 191.30 161.37 190.19 161.39 L 189.25 161.41 C 188.14 161.42 187.26 162.34 187.27 163.45 C 187.29 164.56 188.21 165.45 189.32 165.43 Z M 190.25 165.41 L 191.24 165.40 C 192.35 165.38 193.24 164.47 193.22 163.37 C 193.21 162.26 192.30 161.37 191.19 161.38 L 190.20 161.40 C 189.09 161.41 188.21 162.32 188.22 163.43 C 188.23 164.53 189.14 165.42 190.25 165.41 Z M 191.23 165.39 L 192.23 165.38 C 193.33 165.38 194.22 164.47 194.21 163.37 C 194.21 162.27 193.30 161.38 192.20 161.38 L 191.20 161.39 C 190.10 161.40 189.21 162.30 189.22 163.40 C 189.22 164.51 190.13 165.40 191.23 165.39 Z M 192.21 165.38 L 193.18 165.38 C 194.28 165.38 195.17 164.49 195.17 163.39 C 195.17 162.29 194.28 161.39 193.18 161.39 L 192.22 161.39 C 191.11 161.39 190.22 162.28 190.22 163.38 C 190.22 164.48 191.11 165.37 192.21 165.38 Z M 193.16 165.37 L 194.14 165.38 C 195.23 165.39 196.13 164.51 196.14 163.42 C 196.15 162.32 195.27 161.42 194.18 161.41 L 193.20 161.40 C 192.10 161.39 191.21 162.27 191.20 163.36 C 191.18 164.46 192.06 165.36 193.16 165.37 Z M 194.12 165.37 L 195.14 165.39 C 196.23 165.42 197.14 164.55 197.16 163.45 C 197.18 162.36 196.31 161.46 195.22 161.44 L 194.20 161.42 C 193.10 161.39 192.20 162.26 192.18 163.35 C 192.16 164.45 193.03 165.35 194.12 165.37 Z M 195.12 165.38 L 196.10 165.41 C 197.19 165.44 198.09 164.59 198.13 163.50 C 198.16 162.41 197.30 161.51 196.21 161.47 L 195.24 161.45 C 194.15 161.41 193.24 162.27 193.21 163.36 C 193.18 164.45 194.03 165.35 195.12 165.38 Z M 196.08 165.40 L 197.08 165.44 C 198.16 165.48 199.08 164.64 199.12 163.56 C 199.16 162.48 198.32 161.57 197.24 161.52 L 196.23 161.48 C 195.15 161.44 194.24 162.28 194.20 163.37 C 194.15 164.45 195.00 165.36 196.08 165.40 Z M 197.06 165.43 L 198.08 165.49 C 199.16 165.54 200.08 164.72 200.13 163.64 C 200.19 162.57 199.36 161.65 198.29 161.59 L 197.26 161.53 C 196.19 161.48 195.27 162.30 195.21 163.38 C 195.15 164.46 195.98 165.37 197.06 165.43 Z M 198.05 165.47 L 199.07 165.55 C 200.14 165.62 201.07 164.82 201.14 163.75 C 201.22 162.68 200.41 161.75 199.34 161.67 L 198.32 161.60 C 197.25 161.52 196.32 162.33 196.25 163.40 C 196.17 164.47 196.98 165.40 198.05 165.47 Z M 199.02 165.53 L 200.02 165.63 C 201.08 165.73 202.02 164.95 202.12 163.89 C 202.23 162.82 201.45 161.88 200.38 161.78 L 199.39 161.69 C 198.33 161.59 197.38 162.37 197.28 163.43 C 197.18 164.49 197.96 165.43 199.02 165.53 Z M 199.96 165.61 L 200.96 165.74 C 202.02 165.87 202.98 165.13 203.11 164.08 C 203.24 163.03 202.50 162.06 201.45 161.93 L 200.44 161.80 C 199.39 161.67 198.43 162.41 198.30 163.46 C 198.16 164.51 198.91 165.47 199.96 165.61 Z M 200.89 165.70 L 201.92 165.87 C 202.95 166.05 203.93 165.35 204.10 164.32 C 204.28 163.29 203.58 162.31 202.55 162.14 L 201.52 161.97 C 200.49 161.79 199.51 162.49 199.34 163.52 C 199.17 164.55 199.86 165.53 200.89 165.70 Z M 201.85 165.83 L 202.83 166.03 C 203.83 166.25 204.82 165.60 205.03 164.59 C 205.24 163.58 204.60 162.60 203.59 162.39 L 202.62 162.18 C 201.61 161.97 200.62 162.62 200.41 163.62 C 200.20 164.63 200.85 165.62 201.85 165.83 Z M 202.78 165.99 L 203.72 166.22 C 204.70 166.46 205.69 165.85 205.93 164.87 C 206.17 163.89 205.56 162.89 204.58 162.66 L 203.64 162.43 C 202.66 162.19 201.66 162.79 201.43 163.78 C 201.19 164.76 201.79 165.75 202.78 165.99 Z M 203.69 166.18 L 204.62 166.43 C 205.58 166.68 206.57 166.11 206.83 165.15 C 207.08 164.18 206.51 163.19 205.54 162.94 L 204.61 162.69 C 203.65 162.44 202.66 163.01 202.40 163.98 C 202.15 164.94 202.72 165.93 203.69 166.18 Z M 204.61 166.40 L 205.55 166.65 C 206.49 166.91 207.47 166.36 207.73 165.41 C 207.99 164.46 207.43 163.49 206.49 163.23 L 205.55 162.97 C 204.60 162.71 203.63 163.27 203.37 164.21 C 203.11 165.16 203.66 166.14 204.61 166.40 Z M 205.55 166.63 L 206.50 166.89 C 207.43 167.15 208.39 166.61 208.65 165.68 C 208.91 164.75 208.37 163.78 207.44 163.52 L 206.49 163.25 C 205.56 162.99 204.59 163.54 204.33 164.47 C 204.07 165.40 204.61 166.37 205.55 166.63 Z M 206.50 166.87 L 207.46 167.14 C 208.38 167.40 209.33 166.87 209.59 165.95 C 209.85 165.03 209.32 164.08 208.40 163.82 L 207.44 163.55 C 206.52 163.29 205.57 163.82 205.31 164.74 C 205.05 165.65 205.58 166.61 206.50 166.87 Z M 207.47 167.11 L 208.44 167.39 C 209.35 167.65 210.29 167.13 210.54 166.22 C 210.80 165.32 210.28 164.38 209.37 164.12 L 208.40 163.84 C 207.49 163.59 206.55 164.11 206.30 165.01 C 206.04 165.92 206.56 166.86 207.47 167.11 Z M 208.45 167.37 L 209.40 167.64 C 210.29 167.89 211.22 167.38 211.47 166.49 C 211.73 165.60 211.21 164.67 210.32 164.42 L 209.37 164.14 C 208.48 163.89 207.55 164.41 207.30 165.30 C 207.04 166.19 207.56 167.11 208.45 167.37 Z"
      fill="black"
      fill-rule="nonzero" /></svg>