<svg xmlns="http://www.w3.org/2000/svg" width="300" height="300" viewBox="0 0 300 300">
<path d="M 101.84 139.28 L 102.83 139.44 C 103.81 139.61 104.74 138.94 104.90 137.97 C 105.06 136.99 104.40 136.06 103.42 135.90 L 102.43 135.73 C 101.45 135.57 100.53 136.23 100.36 137.21 C 100.20 138.19 100.86 139.11 101.84 139.28 Z M 102.91 139.49 L 103.90 139.61 C 104.91 139.73 105.82 139.01 105.94 138.01 C 106.06 137.00 105.34 136.09 104.34 135.97 L 103.35 135.85 C 102.34 135.73 101.43 136.45 101.31 137.45 C 101.19 138.46 101.91 139.37 102.91 139.49 Z M 104.07 139.66 L 105.06 139.68 C 106.09 139.71 106.95 138.90 106.98 137.87 C 107.01 136.84 106.20 135.98 105.17 135.95 L 104.17 135.92 C 103.14 135.90 102.28 136.71 102.26 137.74 C 102.23 138.77 103.04 139.63 104.07 139.66 Z M 105.29 139.69 L 106.20 139.61 C 107.24 139.51 108.00 138.59 107.90 137.55 C 107.80 136.51 106.88 135.75 105.84 135.85 L 104.93 135.94 C 103.90 136.04 103.14 136.96 103.24 138.00 C 103.34 139.03 104.26 139.79 105.29 139.69 Z M 106.41 139.58 L 107.35 139.38 C 108.37 139.17 109.02 138.17 108.81 137.15 C 108.60 136.13 107.60 135.47 106.58 135.69 L 105.64 135.88 C 104.62 136.10 103.97 137.10 104.18 138.12 C 104.39 139.14 105.39 139.79 106.41 139.58 Z M 107.50 139.34 L 108.51 139.04 C 109.51 138.75 110.08 137.70 109.78 136.70 C 109.49 135.70 108.44 135.13 107.44 135.43 L 106.43 135.73 C 105.43 136.02 104.86 137.07 105.15 138.07 C 105.45 139.07 106.50 139.64 107.50 139.34 Z M 108.60 139.02 L 109.53 138.69 C 110.51 138.35 111.03 137.27 110.69 136.29 C 110.35 135.30 109.27 134.79 108.29 135.13 L 107.35 135.45 C 106.37 135.80 105.85 136.87 106.19 137.86 C 106.54 138.84 107.61 139.36 108.60 139.02 Z M 109.58 138.67 L 110.43 138.35 C 111.40 137.98 111.89 136.90 111.52 135.92 C 111.15 134.95 110.07 134.46 109.09 134.82 L 108.24 135.15 C 107.27 135.51 106.78 136.60 107.14 137.58 C 107.51 138.55 108.60 139.04 109.58 138.67 Z M 110.46 138.34 L 111.36 137.98 C 112.33 137.59 112.81 136.50 112.42 135.53 C 112.04 134.56 110.94 134.09 109.97 134.47 L 109.06 134.84 C 108.09 135.22 107.62 136.32 108.01 137.29 C 108.39 138.25 109.49 138.73 110.46 138.34 Z M 111.39 137.97 L 112.35 137.57 C 113.32 137.18 113.77 136.07 113.38 135.11 C 112.98 134.15 111.88 133.69 110.91 134.08 L 109.95 134.48 C 108.99 134.88 108.53 135.98 108.92 136.95 C 109.32 137.91 110.42 138.37 111.39 137.97 Z M 112.37 137.57 L 113.39 137.13 C 114.35 136.73 114.80 135.62 114.39 134.66 C 113.99 133.70 112.88 133.25 111.92 133.66 L 110.90 134.09 C 109.94 134.50 109.49 135.60 109.90 136.56 C 110.30 137.52 111.41 137.97 112.37 137.57 Z M 113.40 137.13 L 114.37 136.71 C 115.33 136.30 115.77 135.19 115.36 134.23 C 114.95 133.28 113.84 132.84 112.88 133.25 L 111.91 133.66 C 110.95 134.08 110.51 135.19 110.92 136.14 C 111.33 137.10 112.44 137.54 113.40 137.13 Z M 114.38 136.71 L 115.34 136.29 C 116.29 135.88 116.73 134.76 116.31 133.81 C 115.90 132.85 114.79 132.42 113.83 132.83 L 112.87 133.25 C 111.92 133.67 111.48 134.78 111.90 135.73 C 112.31 136.69 113.42 137.12 114.38 136.71 Z M 115.35 136.29 L 116.30 135.87 C 117.25 135.45 117.68 134.33 117.26 133.38 C 116.84 132.43 115.73 132.00 114.78 132.42 L 113.82 132.84 C 112.87 133.26 112.44 134.37 112.86 135.32 C 113.28 136.28 114.39 136.71 115.35 136.29 Z M 116.31 135.86 L 117.24 135.45 C 118.19 135.02 118.61 133.91 118.19 132.96 C 117.76 132.01 116.65 131.58 115.70 132.01 L 114.77 132.42 C 113.82 132.85 113.39 133.96 113.82 134.91 C 114.25 135.86 115.36 136.29 116.31 135.86 Z M 117.25 135.44 L 118.12 135.04 C 119.07 134.61 119.49 133.49 119.06 132.55 C 118.62 131.60 117.51 131.18 116.56 131.61 L 115.69 132.01 C 114.74 132.44 114.32 133.56 114.75 134.51 C 115.18 135.45 116.30 135.87 117.25 135.44 Z M 118.14 135.03 L 119.02 134.62 C 119.96 134.18 120.37 133.06 119.93 132.12 C 119.49 131.18 118.37 130.77 117.43 131.21 L 116.55 131.62 C 115.60 132.06 115.20 133.18 115.64 134.12 C 116.07 135.07 117.19 135.47 118.14 135.03 Z M 119.04 134.61 L 120.05 134.12 C 120.99 133.67 121.38 132.54 120.92 131.61 C 120.47 130.67 119.35 130.28 118.41 130.74 L 117.40 131.22 C 116.47 131.68 116.08 132.80 116.53 133.74 C 116.98 134.67 118.11 135.06 119.04 134.61 Z M 120.08 134.10 L 120.96 133.66 C 121.88 133.18 122.25 132.05 121.78 131.13 C 121.30 130.21 120.17 129.84 119.25 130.31 L 118.38 130.76 C 117.46 131.23 117.09 132.36 117.56 133.28 C 118.03 134.20 119.16 134.57 120.08 134.10 Z M 120.99 133.63 L 121.78 133.21 C 122.69 132.72 123.04 131.58 122.55 130.67 C 122.06 129.76 120.92 129.42 120.01 129.91 L 119.22 130.33 C 118.31 130.82 117.96 131.96 118.45 132.87 C 118.94 133.78 120.08 134.12 120.99 133.63 Z M 121.81 133.19 L 122.63 132.73 C 123.53 132.23 123.85 131.09 123.35 130.19 C 122.84 129.29 121.70 128.96 120.80 129.47 L 119.98 129.93 C 119.08 130.43 118.76 131.57 119.26 132.47 C 119.77 133.37 120.91 133.70 121.81 133.19 Z M 122.65 132.72 L 123.51 132.22 C 124.41 131.71 124.72 130.57 124.20 129.67 C 123.69 128.78 122.55 128.47 121.65 128.98 L 120.78 129.48 C 119.89 129.99 119.58 131.14 120.10 132.03 C 120.61 132.93 121.75 133.23 122.65 132.72 Z M 123.52 132.21 L 124.39 131.71 C 125.28 131.19 125.58 130.05 125.06 129.16 C 124.55 128.27 123.40 127.96 122.51 128.48 L 121.64 128.99 C 120.75 129.51 120.45 130.65 120.97 131.54 C 121.49 132.43 122.63 132.73 123.52 132.21 Z M 124.39 131.71 L 125.26 131.20 C 126.15 130.68 126.45 129.54 125.93 128.65 C 125.41 127.76 124.27 127.46 123.38 127.98 L 122.51 128.48 C 121.62 129.00 121.32 130.14 121.84 131.03 C 122.36 131.92 123.50 132.23 124.39 131.71 Z M 125.26 131.20 L 126.13 130.69 C 127.02 130.17 127.32 129.03 126.81 128.15 C 126.29 127.26 125.15 126.95 124.26 127.47 L 123.38 127.98 C 122.50 128.50 122.19 129.64 122.71 130.53 C 123.23 131.41 124.37 131.72 125.26 131.20 Z M 126.14 130.68 L 127.00 130.18 C 127.89 129.65 128.18 128.51 127.66 127.63 C 127.14 126.74 126.00 126.45 125.11 126.97 L 124.25 127.48 C 123.37 128.00 123.07 129.14 123.60 130.02 C 124.12 130.91 125.26 131.20 126.14 130.68 Z M 127.02 130.16 L 127.86 129.65 C 128.74 129.11 129.02 127.97 128.48 127.10 C 127.95 126.22 126.80 125.94 125.93 126.48 L 125.09 126.99 C 124.21 127.52 123.94 128.67 124.47 129.54 C 125.01 130.42 126.15 130.69 127.02 130.16 Z M 127.89 129.62 L 128.64 129.14 C 129.51 128.59 129.76 127.45 129.20 126.58 C 128.65 125.72 127.51 125.47 126.64 126.02 L 125.90 126.50 C 125.03 127.05 124.78 128.20 125.33 129.06 C 125.89 129.92 127.03 130.18 127.89 129.62 Z M 128.67 129.12 L 129.45 128.60 C 130.30 128.03 130.53 126.88 129.96 126.04 C 129.40 125.19 128.25 124.96 127.40 125.52 L 126.62 126.05 C 125.77 126.61 125.54 127.76 126.11 128.61 C 126.67 129.46 127.82 129.69 128.67 129.12 Z M 129.47 128.58 L 130.34 127.98 C 131.18 127.41 131.40 126.26 130.82 125.42 C 130.25 124.58 129.11 124.37 128.27 124.94 L 127.39 125.54 C 126.55 126.11 126.34 127.26 126.91 128.10 C 127.48 128.94 128.63 129.15 129.47 128.58 Z M 130.35 127.97 L 131.22 127.37 C 132.06 126.79 132.26 125.65 131.69 124.81 C 131.11 123.98 129.97 123.77 129.14 124.35 L 128.26 124.95 C 127.43 125.53 127.22 126.67 127.80 127.50 C 128.37 128.34 129.51 128.54 130.35 127.97 Z M 131.22 127.36 L 132.02 126.81 C 132.85 126.23 133.06 125.09 132.48 124.26 C 131.90 123.43 130.76 123.22 129.93 123.80 L 129.13 124.35 C 128.30 124.93 128.10 126.07 128.68 126.90 C 129.25 127.73 130.39 127.94 131.22 127.36 Z M 132.03 126.80 L 132.86 126.21 C 133.69 125.63 133.89 124.49 133.31 123.66 C 132.73 122.84 131.59 122.64 130.76 123.22 L 129.92 123.81 C 129.10 124.39 128.90 125.53 129.48 126.35 C 130.06 127.18 131.20 127.38 132.03 126.80 Z M 132.87 126.20 L 133.72 125.60 C 134.54 125.01 134.73 123.87 134.15 123.05 C 133.56 122.23 132.42 122.04 131.60 122.62 L 130.75 123.23 C 129.93 123.82 129.74 124.96 130.33 125.78 C 130.91 126.60 132.05 126.79 132.87 126.20 Z M 133.74 125.58 L 134.56 124.98 C 135.37 124.38 135.55 123.24 134.96 122.43 C 134.36 121.62 133.22 121.44 132.41 122.03 L 131.58 122.64 C 130.77 123.23 130.59 124.37 131.19 125.19 C 131.78 126.00 132.92 126.18 133.74 125.58 Z M 134.58 124.96 L 135.42 124.33 C 136.22 123.72 136.38 122.57 135.77 121.77 C 135.16 120.97 134.02 120.81 133.22 121.42 L 132.38 122.06 C 131.58 122.66 131.42 123.81 132.03 124.61 C 132.64 125.41 133.78 125.57 134.58 124.96 Z M 135.45 124.30 L 136.28 123.63 C 137.07 123.01 137.20 121.86 136.57 121.07 C 135.94 120.29 134.79 120.16 134.01 120.79 L 133.18 121.45 C 132.39 122.08 132.27 123.23 132.89 124.01 C 133.52 124.80 134.67 124.93 135.45 124.30 Z M 136.33 123.59 L 137.08 122.95 C 137.84 122.30 137.93 121.15 137.28 120.38 C 136.62 119.62 135.47 119.53 134.71 120.18 L 133.96 120.83 C 133.20 121.48 133.11 122.63 133.76 123.40 C 134.42 124.16 135.57 124.25 136.33 123.59 Z M 137.13 122.90 L 137.83 122.26 C 138.56 121.58 138.61 120.43 137.93 119.69 C 137.24 118.95 136.09 118.91 135.35 119.59 L 134.66 120.23 C 133.92 120.92 133.88 122.07 134.56 122.81 C 135.24 123.54 136.40 123.59 137.13 122.90 Z M 137.89 122.21 L 138.63 121.47 C 139.34 120.75 139.33 119.59 138.61 118.88 C 137.90 118.17 136.74 118.18 136.03 118.89 L 135.29 119.64 C 134.58 120.36 134.59 121.51 135.30 122.22 C 136.02 122.93 137.18 122.93 137.89 122.21 Z M 138.71 121.42 L 139.58 120.45 C 140.27 119.69 140.21 118.52 139.45 117.83 C 138.69 117.14 137.51 117.20 136.82 117.96 L 135.95 118.94 C 135.26 119.70 135.32 120.87 136.08 121.56 C 136.85 122.25 138.02 122.19 138.71 121.42 Z M 139.69 120.40 L 140.25 119.70 C 140.91 118.88 140.78 117.68 139.96 117.02 C 139.14 116.36 137.94 116.49 137.28 117.31 L 136.72 118.01 C 136.06 118.84 136.19 120.03 137.01 120.69 C 137.83 121.35 139.03 121.22 139.69 120.40 Z M 140.69 118.80 L 140.72 118.65 C 140.88 117.58 140.15 116.59 139.08 116.43 C 138.02 116.27 137.03 117.00 136.87 118.06 L 136.84 118.21 C 136.68 119.28 137.41 120.27 138.48 120.43 C 139.54 120.59 140.53 119.86 140.69 118.80 Z M 137.37 116.99 L 136.72 117.67 C 135.96 118.45 135.99 119.70 136.77 120.46 C 137.56 121.21 138.81 121.19 139.56 120.40 L 140.22 119.72 C 140.97 118.94 140.95 117.69 140.16 116.93 C 139.37 116.18 138.12 116.20 137.37 116.99 Z M 136.52 117.88 L 135.77 118.93 C 135.13 119.82 135.34 121.07 136.24 121.70 C 137.13 122.34 138.38 122.13 139.02 121.24 L 139.76 120.19 C 140.40 119.29 140.19 118.05 139.29 117.41 C 138.40 116.77 137.16 116.98 136.52 117.88 Z M 135.64 119.13 L 135.19 119.95 C 134.66 120.92 135.02 122.14 135.99 122.66 C 136.97 123.19 138.18 122.83 138.71 121.86 L 139.15 121.04 C 139.68 120.06 139.32 118.85 138.35 118.32 C 137.38 117.80 136.16 118.16 135.64 119.13 Z M 135.12 120.08 L 134.71 120.99 C 134.26 121.99 134.71 123.18 135.71 123.63 C 136.72 124.09 137.90 123.64 138.36 122.64 L 138.77 121.73 C 139.23 120.72 138.78 119.54 137.77 119.08 C 136.77 118.63 135.58 119.07 135.12 120.08 Z M 134.68 121.07 L 134.29 122.05 C 133.88 123.08 134.38 124.24 135.41 124.65 C 136.44 125.06 137.60 124.56 138.01 123.53 L 138.40 122.55 C 138.81 121.52 138.30 120.36 137.28 119.95 C 136.25 119.54 135.08 120.04 134.68 121.07 Z M 134.27 122.10 L 133.93 123.02 C 133.54 124.06 134.08 125.21 135.11 125.60 C 136.15 125.98 137.31 125.45 137.69 124.41 L 138.03 123.48 C 138.41 122.44 137.88 121.29 136.84 120.91 C 135.80 120.53 134.65 121.06 134.27 122.10 Z M 133.92 123.05 L 133.62 123.91 C 133.25 124.96 133.80 126.10 134.85 126.47 C 135.89 126.83 137.03 126.28 137.40 125.24 L 137.70 124.38 C 138.06 123.33 137.51 122.19 136.47 121.82 C 135.42 121.46 134.28 122.01 133.92 123.05 Z M 133.60 123.94 L 133.30 124.85 C 132.95 125.91 133.52 127.04 134.58 127.39 C 135.63 127.73 136.76 127.16 137.11 126.11 L 137.41 125.20 C 137.76 124.15 137.19 123.02 136.14 122.67 C 135.09 122.32 133.95 122.89 133.60 123.94 Z M 133.29 124.89 L 132.99 125.87 C 132.66 126.92 133.25 128.05 134.31 128.38 C 135.36 128.71 136.49 128.12 136.82 127.06 L 137.12 126.08 C 137.45 125.02 136.86 123.90 135.80 123.57 C 134.74 123.24 133.62 123.83 133.29 124.89 Z M 132.98 125.90 L 132.67 126.96 C 132.36 128.03 132.97 129.14 134.03 129.45 C 135.10 129.76 136.21 129.15 136.52 128.08 L 136.83 127.02 C 137.14 125.96 136.52 124.85 135.46 124.54 C 134.40 124.23 133.29 124.84 132.98 125.90 Z M 132.66 127.00 L 132.38 128.02 C 132.09 129.08 132.72 130.19 133.79 130.48 C 134.86 130.77 135.96 130.14 136.25 129.07 L 136.53 128.05 C 136.82 126.98 136.19 125.88 135.12 125.59 C 134.05 125.30 132.95 125.93 132.66 127.00 Z M 132.37 128.04 L 132.12 129.04 C 131.84 130.11 132.48 131.20 133.56 131.48 C 134.63 131.76 135.72 131.11 136.00 130.04 L 136.25 129.05 C 136.53 127.97 135.89 126.88 134.82 126.60 C 133.74 126.33 132.65 126.97 132.37 128.04 Z M 132.11 129.06 L 131.86 130.07 C 131.59 131.15 132.25 132.23 133.32 132.50 C 134.40 132.77 135.48 132.11 135.75 131.04 L 136.00 130.02 C 136.27 128.95 135.61 127.86 134.54 127.59 C 133.46 127.33 132.38 127.98 132.11 129.06 Z M 131.86 130.09 L 131.62 131.10 C 131.36 132.18 132.02 133.26 133.10 133.51 C 134.18 133.77 135.26 133.11 135.51 132.03 L 135.75 131.02 C 136.01 129.94 135.35 128.86 134.27 128.61 C 133.19 128.35 132.11 129.02 131.86 130.09 Z M 131.61 131.12 L 131.39 132.09 C 131.14 133.17 131.81 134.24 132.89 134.49 C 133.97 134.74 135.05 134.07 135.29 132.99 L 135.52 132.01 C 135.76 130.94 135.09 129.86 134.01 129.61 C 132.94 129.37 131.86 130.04 131.61 131.12 Z M 131.39 132.11 L 131.18 133.02 C 130.95 134.10 131.63 135.17 132.71 135.41 C 133.79 135.64 134.86 134.96 135.09 133.88 L 135.30 132.97 C 135.53 131.89 134.85 130.82 133.77 130.59 C 132.69 130.35 131.62 131.03 131.39 132.11 Z M 131.18 133.04 L 130.95 134.13 C 130.73 135.21 131.42 136.27 132.50 136.50 C 133.58 136.72 134.64 136.03 134.87 134.95 L 135.10 133.86 C 135.32 132.78 134.63 131.72 133.55 131.49 C 132.47 131.27 131.41 131.96 131.18 133.04 Z M 130.95 134.16 L 130.75 135.20 C 130.54 136.29 131.25 137.33 132.33 137.54 C 133.41 137.75 134.46 137.05 134.67 135.96 L 134.87 134.92 C 135.08 133.83 134.38 132.79 133.29 132.58 C 132.21 132.37 131.16 133.07 130.95 134.16 Z M 130.74 135.24 L 130.58 136.16 C 130.39 137.24 131.11 138.28 132.20 138.47 C 133.28 138.66 134.32 137.94 134.51 136.85 L 134.67 135.93 C 134.87 134.84 134.14 133.81 133.06 133.62 C 131.97 133.43 130.94 134.15 130.74 135.24 Z M 130.58 136.18 L 130.44 137.05 C 130.26 138.14 131.00 139.16 132.08 139.34 C 133.17 139.51 134.20 138.78 134.37 137.69 L 134.51 136.83 C 134.69 135.74 133.95 134.71 132.87 134.54 C 131.78 134.36 130.76 135.10 130.58 136.18 Z M 130.44 137.06 L 130.30 137.98 C 130.13 139.07 130.87 140.09 131.96 140.26 C 133.04 140.42 134.06 139.68 134.23 138.59 L 134.37 137.68 C 134.54 136.59 133.80 135.57 132.71 135.40 C 131.62 135.23 130.61 135.98 130.44 137.06 Z M 130.29 137.99 L 130.15 138.95 C 129.98 140.04 130.73 141.05 131.82 141.22 C 132.90 141.39 133.92 140.64 134.08 139.55 L 134.23 138.59 C 134.40 137.50 133.65 136.49 132.56 136.32 C 131.48 136.16 130.46 136.90 130.29 137.99 Z M 130.15 138.96 L 130.00 139.96 C 129.83 141.05 130.58 142.06 131.67 142.22 C 132.75 142.39 133.77 141.64 133.93 140.55 L 134.08 139.55 C 134.25 138.46 133.50 137.45 132.41 137.29 C 131.33 137.12 130.31 137.87 130.15 138.96 Z M 130.00 139.96 L 129.84 140.99 C 129.68 142.07 130.42 143.09 131.51 143.25 C 132.60 143.42 133.61 142.67 133.77 141.58 L 133.93 140.55 C 134.10 139.47 133.35 138.45 132.26 138.29 C 131.18 138.12 130.16 138.87 130.00 139.96 Z M 129.84 140.98 L 129.71 141.88 C 129.54 142.96 130.29 143.98 131.37 144.14 C 132.46 144.31 133.47 143.56 133.64 142.47 L 133.77 141.58 C 133.94 140.50 133.19 139.48 132.11 139.32 C 131.02 139.15 130.01 139.90 129.84 140.98 Z M 129.70 141.88 L 129.57 142.82 C 129.40 143.91 130.16 144.92 131.24 145.08 C 132.33 145.24 133.34 144.49 133.50 143.40 L 133.64 142.47 C 133.80 141.38 133.05 140.37 131.96 140.21 C 130.88 140.05 129.87 140.80 129.70 141.88 Z M 129.56 142.84 L 129.42 143.84 C 129.27 144.93 130.03 145.93 131.12 146.09 C 132.21 146.24 133.21 145.48 133.36 144.39 L 133.50 143.39 C 133.65 142.30 132.90 141.30 131.81 141.14 C 130.72 140.99 129.71 141.75 129.56 142.84 Z M 129.42 143.87 L 129.28 144.95 C 129.15 146.03 129.92 147.03 131.01 147.17 C 132.10 147.31 133.09 146.54 133.23 145.45 L 133.37 144.37 C 133.50 143.28 132.73 142.28 131.64 142.14 C 130.55 142.00 129.56 142.78 129.42 143.87 Z M 129.28 144.97 L 129.16 146.00 C 129.04 147.09 129.83 148.07 130.92 148.20 C 132.01 148.32 132.99 147.54 133.12 146.45 L 133.23 145.42 C 133.36 144.33 132.57 143.34 131.48 143.22 C 130.39 143.10 129.40 143.88 129.28 144.97 Z M 129.16 146.02 L 129.06 147.01 C 128.95 148.10 129.75 149.07 130.84 149.19 C 131.93 149.30 132.91 148.50 133.02 147.41 L 133.12 146.42 C 133.23 145.33 132.43 144.36 131.34 144.24 C 130.25 144.13 129.27 144.93 129.16 146.02 Z M 129.06 147.03 L 128.97 148.04 C 128.87 149.14 129.67 150.10 130.77 150.20 C 131.86 150.30 132.83 149.50 132.93 148.40 L 133.02 147.39 C 133.12 146.29 132.31 145.33 131.22 145.23 C 130.13 145.13 129.16 145.93 129.06 147.03 Z M 128.97 148.06 L 128.88 149.09 C 128.80 150.18 129.61 151.14 130.71 151.23 C 131.80 151.32 132.76 150.50 132.85 149.40 L 132.93 148.38 C 133.02 147.29 132.20 146.33 131.11 146.24 C 130.01 146.15 129.05 146.97 128.97 148.06 Z M 128.88 149.11 L 128.81 150.12 C 128.74 151.21 129.56 152.16 130.66 152.24 C 131.75 152.32 132.70 151.49 132.78 150.39 L 132.85 149.38 C 132.93 148.29 132.10 147.34 131.00 147.26 C 129.91 147.19 128.96 148.01 128.88 149.11 Z M 128.81 150.14 L 128.75 151.12 C 128.69 152.22 129.53 153.16 130.63 153.22 C 131.72 153.28 132.66 152.45 132.73 151.35 L 132.78 150.37 C 132.84 149.27 132.01 148.33 130.91 148.27 C 129.81 148.21 128.87 149.05 128.81 150.14 Z M 128.75 151.15 L 128.71 152.22 C 128.66 153.32 129.51 154.25 130.61 154.29 C 131.71 154.34 132.64 153.49 132.68 152.39 L 132.73 151.32 C 132.77 150.22 131.92 149.29 130.82 149.25 C 129.73 149.20 128.80 150.06 128.75 151.15 Z M 128.71 152.25 L 128.68 153.28 C 128.65 154.37 129.52 155.29 130.62 155.32 C 131.71 155.35 132.63 154.48 132.66 153.38 L 132.68 152.36 C 132.71 151.26 131.85 150.35 130.75 150.32 C 129.65 150.29 128.74 151.16 128.71 152.25 Z M 128.68 153.30 L 128.67 154.28 C 128.65 155.38 129.53 156.28 130.63 156.30 C 131.73 156.31 132.63 155.44 132.64 154.34 L 132.66 153.36 C 132.67 152.26 131.79 151.36 130.70 151.34 C 129.60 151.32 128.69 152.20 128.68 153.30 Z M 128.67 154.30 L 128.66 155.26 C 128.66 156.36 129.54 157.25 130.64 157.26 C 131.74 157.27 132.63 156.38 132.64 155.28 L 132.64 154.32 C 132.65 153.22 131.76 152.33 130.66 152.32 C 129.57 152.32 128.67 153.20 128.67 154.30 Z M 128.66 155.27 L 128.66 156.23 C 128.66 157.33 129.55 158.22 130.65 158.22 C 131.75 158.22 132.64 157.33 132.64 156.23 L 132.64 155.27 C 132.64 154.17 131.75 153.28 130.65 153.28 C 129.55 153.28 128.66 154.17 128.66 155.27 Z M 128.66 156.23 L 128.66 157.23 C 128.66 158.33 129.55 159.22 130.65 159.22 C 131.75 159.22 132.64 158.33 132.64 157.23 L 132.64 156.23 C 132.64 155.13 131.75 154.24 130.65 154.24 C 129.55 154.24 128.66 155.13 128.66 156.23 Z M 128.66 157.23 L 128.66 158.23 C 128.66 159.33 129.55 160.22 130.65 160.22 C 131.75 160.22 132.64 159.33 132.64 158.23 L 132.64 157.23 C 132.64 156.13 131.75 155.24 130.65 155.24 C 129.55 155.24 128.66 156.13 128.66 157.23 Z M 128.66 158.23 L 128.66 159.24 C 128.66 160.33 129.55 161.22 130.65 161.22 C 131.75 161.22 132.64 160.33 132.64 159.24 L 132.64 158.23 C 132.64 157.13 131.75 156.24 130.65 156.24 C 129.55 156.24 128.66 157.13 128.66 158.23 Z M 128.66 159.24 L 128.66 160.24 C 128.66 161.33 129.55 162.22 130.65 162.22 C 131.75 162.22 132.64 161.33 132.64 160.24 L 132.64 159.24 C 132.64 158.14 131.75 157.25 130.65 157.25 C 129.55 157.25 128.66 158.14 128.66 159.24 Z M 128.66 160.24 L 128.66 161.24 C 128.66 162.34 129.55 163.23 130.65 163.23 C 131.75 163.23 132.64 162.34 132.64 161.24 L 132.64 160.24 C 132.64 159.14 131.75 158.25 130.65 158.25 C 129.55 158.25 128.66 159.14 128.66 160.24 Z M 128.66 161.25 L 128.67 162.26 C 128.67 163.36 129.57 164.24 130.67 164.24 C 131.76 164.23 132.65 163.33 132.64 162.24 L 132.64 161.23 C 132.63 160.13 131.74 159.24 130.64 159.25 C 129.54 159.26 128.65 160.15 128.66 161.25 Z M 128.67 162.29 L 128.69 163.29 C 128.71 164.39 129.62 165.26 130.72 165.23 C 131.82 165.21 132.69 164.30 132.67 163.20 L 132.64 162.20 C 132.62 161.11 131.71 160.23 130.61 160.26 C 129.51 160.28 128.64 161.19 128.67 162.29 Z M 128.69 163.34 L 128.74 164.33 C 128.79 165.43 129.72 166.28 130.82 166.23 C 131.92 166.17 132.77 165.24 132.71 164.14 L 132.66 163.15 C 132.61 162.05 131.68 161.20 130.58 161.26 C 129.48 161.31 128.63 162.24 128.69 163.34 Z M 128.74 164.41 L 128.83 165.40 C 128.92 166.50 129.89 167.31 130.98 167.21 C 132.08 167.11 132.89 166.15 132.79 165.05 L 132.71 164.06 C 132.61 162.97 131.65 162.16 130.55 162.25 C 129.46 162.35 128.65 163.32 128.74 164.41 Z M 128.84 165.49 L 128.97 166.48 C 129.12 167.57 130.12 168.33 131.21 168.18 C 132.30 168.03 133.06 167.03 132.92 165.94 L 132.78 164.96 C 132.64 163.87 131.63 163.11 130.54 163.25 C 129.45 163.40 128.69 164.40 128.84 165.49 Z M 128.98 166.57 L 129.16 167.54 C 129.36 168.63 130.40 169.34 131.48 169.15 C 132.56 168.95 133.28 167.91 133.08 166.83 L 132.90 165.85 C 132.71 164.77 131.67 164.05 130.59 164.25 C 129.50 164.45 128.79 165.48 128.98 166.57 Z M 129.18 167.62 L 129.40 168.60 C 129.64 169.67 130.70 170.35 131.77 170.11 C 132.85 169.87 133.52 168.80 133.28 167.73 L 133.07 166.75 C 132.83 165.68 131.76 165.00 130.69 165.24 C 129.61 165.48 128.94 166.55 129.18 167.62 Z M 129.41 168.67 L 129.67 169.64 C 129.94 170.70 131.03 171.34 132.09 171.07 C 133.16 170.79 133.80 169.70 133.52 168.64 L 133.27 167.66 C 132.99 166.60 131.90 165.96 130.84 166.24 C 129.77 166.51 129.14 167.60 129.41 168.67 Z M 129.68 169.70 L 129.96 170.67 C 130.27 171.73 131.38 172.33 132.43 172.02 C 133.49 171.72 134.10 170.61 133.79 169.55 L 133.51 168.58 C 133.20 167.52 132.09 166.92 131.04 167.23 C 129.98 167.53 129.37 168.64 129.68 169.70 Z M 129.98 170.72 L 130.29 171.70 C 130.63 172.74 131.75 173.32 132.80 172.99 C 133.85 172.65 134.42 171.53 134.09 170.48 L 133.77 169.50 C 133.44 168.45 132.32 167.88 131.27 168.21 C 130.22 168.55 129.64 169.67 129.98 170.72 Z M 130.31 171.75 L 130.65 172.71 C 131.01 173.75 132.15 174.29 133.19 173.93 C 134.23 173.56 134.77 172.42 134.41 171.38 L 134.07 170.43 C 133.70 169.39 132.57 168.84 131.53 169.21 C 130.49 169.58 129.95 170.71 130.31 171.75 Z M 130.67 172.77 L 131.03 173.70 C 131.43 174.72 132.58 175.23 133.61 174.83 C 134.64 174.43 135.14 173.28 134.75 172.25 L 134.39 171.33 C 133.99 170.30 132.83 169.79 131.81 170.19 C 130.78 170.59 130.27 171.74 130.67 172.77 Z M 131.06 173.76 L 131.44 174.65 C 131.87 175.66 133.05 176.13 134.06 175.69 C 135.07 175.26 135.54 174.09 135.10 173.08 L 134.72 172.19 C 134.28 171.18 133.11 170.71 132.10 171.14 C 131.09 171.58 130.62 172.75 131.06 173.76 Z M 131.48 174.73 L 131.93 175.67 C 132.40 176.66 133.60 177.08 134.59 176.60 C 135.58 176.12 136.00 174.93 135.52 173.94 L 135.07 173.00 C 134.59 172.01 133.40 171.59 132.41 172.07 C 131.41 172.55 131.00 173.74 131.48 174.73 Z M 131.97 175.76 L 132.46 176.66 C 132.99 177.63 134.20 177.98 135.17 177.46 C 136.13 176.93 136.49 175.72 135.97 174.75 L 135.47 173.85 C 134.95 172.88 133.74 172.53 132.77 173.05 C 131.80 173.58 131.45 174.79 131.97 175.76 Z M 132.52 176.75 L 133.03 177.59 C 133.61 178.53 134.83 178.82 135.77 178.24 C 136.71 177.67 137.00 176.44 136.43 175.50 L 135.91 174.66 C 135.34 173.73 134.11 173.43 133.17 174.01 C 132.23 174.59 131.94 175.81 132.52 176.75 Z M 133.09 177.68 L 133.63 178.45 C 134.25 179.36 135.49 179.58 136.40 178.96 C 137.30 178.33 137.53 177.09 136.90 176.19 L 136.37 175.41 C 135.74 174.51 134.50 174.28 133.60 174.91 C 132.69 175.53 132.46 176.77 133.09 177.68 Z M 133.70 178.55 L 134.33 179.36 C 135.01 180.22 136.26 180.37 137.13 179.70 C 137.99 179.02 138.15 177.76 137.47 176.90 L 136.83 176.09 C 136.15 175.22 134.90 175.07 134.04 175.75 C 133.17 176.43 133.02 177.68 133.70 178.55 Z M 134.42 179.47 L 135.10 180.21 C 135.84 181.02 137.10 181.08 137.91 180.35 C 138.73 179.61 138.79 178.35 138.05 177.53 L 137.37 176.79 C 136.63 175.97 135.37 175.91 134.56 176.65 C 133.75 177.39 133.68 178.65 134.42 179.47 Z M 135.21 180.32 L 135.92 180.99 C 136.73 181.74 137.99 181.70 138.74 180.90 C 139.49 180.10 139.45 178.84 138.65 178.08 L 137.93 177.42 C 137.13 176.67 135.87 176.71 135.12 177.51 C 134.37 178.31 134.41 179.57 135.21 180.32 Z M 136.06 181.10 L 136.81 181.70 C 137.68 182.37 138.93 182.22 139.61 181.36 C 140.29 180.49 140.13 179.24 139.27 178.56 L 138.51 177.97 C 137.65 177.29 136.40 177.44 135.72 178.31 C 135.04 179.17 135.19 180.43 136.06 181.10 Z M 136.98 181.81 L 137.80 182.33 C 138.73 182.91 139.96 182.63 140.54 181.70 C 141.13 180.77 140.85 179.54 139.92 178.96 L 139.10 178.45 C 138.17 177.86 136.94 178.14 136.36 179.07 C 135.77 180.00 136.05 181.23 136.98 181.81 Z M 138.02 182.45 L 138.93 182.87 C 139.93 183.33 141.11 182.89 141.57 181.90 C 142.03 180.90 141.60 179.72 140.60 179.26 L 139.69 178.84 C 138.70 178.38 137.52 178.81 137.06 179.81 C 136.60 180.80 137.03 181.98 138.02 182.45 Z M 139.18 182.96 L 140.16 183.26 C 141.21 183.58 142.32 183.00 142.64 181.95 C 142.97 180.90 142.38 179.79 141.33 179.47 L 140.35 179.17 C 139.31 178.85 138.19 179.43 137.87 180.48 C 137.55 181.53 138.14 182.64 139.18 182.96 Z M 140.38 183.31 L 141.26 183.48 C 142.33 183.69 143.37 182.98 143.58 181.91 C 143.78 180.83 143.08 179.80 142.00 179.59 L 141.12 179.42 C 140.05 179.21 139.01 179.92 138.80 180.99 C 138.60 182.07 139.30 183.11 140.38 183.31 Z M 141.40 183.50 L 142.36 183.61 C 143.45 183.74 144.43 182.96 144.56 181.88 C 144.68 180.79 143.90 179.81 142.82 179.68 L 141.86 179.57 C 140.77 179.44 139.79 180.22 139.66 181.31 C 139.54 182.39 140.31 183.38 141.40 183.50 Z M 142.46 183.62 L 143.50 183.69 C 144.59 183.76 145.53 182.93 145.60 181.84 C 145.67 180.75 144.84 179.81 143.75 179.74 L 142.72 179.67 C 141.63 179.60 140.69 180.43 140.62 181.52 C 140.55 182.61 141.37 183.55 142.46 183.62 Z M 143.57 183.69 L 144.67 183.72 C 145.76 183.75 146.67 182.89 146.70 181.80 C 146.73 180.71 145.87 179.80 144.78 179.77 L 143.68 179.74 C 142.59 179.71 141.68 180.57 141.65 181.66 C 141.62 182.75 142.47 183.66 143.57 183.69 Z M 144.71 183.72 L 145.66 183.73 C 146.75 183.74 147.64 182.86 147.65 181.77 C 147.66 180.68 146.78 179.79 145.69 179.78 L 144.74 179.77 C 143.65 179.76 142.76 180.64 142.75 181.73 C 142.74 182.82 143.62 183.71 144.71 183.72 Z M 145.71 183.73 L 146.66 183.71 C 147.75 183.69 148.62 182.80 148.60 181.71 C 148.58 180.62 147.68 179.75 146.59 179.77 L 145.65 179.78 C 144.56 179.80 143.69 180.70 143.70 181.78 C 143.72 182.87 144.62 183.74 145.71 183.73 Z M 146.72 183.71 L 147.70 183.66 C 148.79 183.61 149.63 182.68 149.58 181.60 C 149.53 180.51 148.60 179.67 147.52 179.72 L 146.53 179.77 C 145.45 179.82 144.61 180.74 144.66 181.83 C 144.71 182.92 145.63 183.76 146.72 183.71 Z M 147.78 183.65 L 148.80 183.56 C 149.88 183.47 150.68 182.51 150.59 181.43 C 150.49 180.35 149.54 179.55 148.45 179.64 L 147.44 179.73 C 146.36 179.83 145.55 180.78 145.65 181.86 C 145.74 182.95 146.70 183.75 147.78 183.65 Z M 148.89 183.55 L 149.93 183.41 C 151.01 183.27 151.77 182.28 151.62 181.20 C 151.48 180.12 150.49 179.37 149.41 179.51 L 148.36 179.65 C 147.29 179.80 146.53 180.79 146.68 181.87 C 146.82 182.94 147.81 183.70 148.89 183.55 Z M 150.03 183.39 L 151.05 183.20 C 152.12 183.00 152.82 181.97 152.62 180.91 C 152.42 179.84 151.39 179.14 150.33 179.34 L 149.31 179.53 C 148.24 179.73 147.54 180.76 147.74 181.82 C 147.94 182.89 148.97 183.59 150.03 183.39 Z M 151.14 183.18 L 152.06 182.96 C 153.11 182.71 153.77 181.65 153.51 180.60 C 153.26 179.54 152.21 178.89 151.15 179.14 L 150.24 179.36 C 149.18 179.61 148.53 180.67 148.78 181.72 C 149.03 182.78 150.09 183.43 151.14 183.18 Z M 152.13 182.94 L 153.06 182.68 C 154.11 182.39 154.72 181.31 154.43 180.27 C 154.14 179.22 153.05 178.61 152.01 178.91 L 151.08 179.16 C 150.04 179.45 149.43 180.54 149.72 181.58 C 150.01 182.62 151.09 183.23 152.13 182.94 Z M 153.12 182.66 L 154.07 182.37 C 155.10 182.04 155.68 180.94 155.35 179.91 C 155.03 178.88 153.93 178.31 152.90 178.63 L 151.95 178.92 C 150.92 179.25 150.35 180.35 150.67 181.38 C 150.99 182.41 152.09 182.98 153.12 182.66 Z M 154.12 182.35 L 155.08 182.02 C 156.10 181.67 156.64 180.56 156.30 179.54 C 155.95 178.51 154.83 177.97 153.81 178.32 L 152.85 178.65 C 151.83 179.00 151.28 180.11 151.63 181.13 C 151.98 182.15 153.09 182.70 154.12 182.35 Z M 155.11 182.00 L 156.09 181.65 C 157.10 181.28 157.62 180.16 157.25 179.14 C 156.88 178.13 155.76 177.61 154.75 177.98 L 153.77 178.33 C 152.76 178.70 152.24 179.82 152.61 180.84 C 152.98 181.85 154.10 182.37 155.11 182.00 Z M 156.11 181.64 L 157.10 181.26 C 158.10 180.87 158.61 179.75 158.22 178.74 C 157.84 177.73 156.71 177.23 155.70 177.62 L 154.72 177.99 C 153.71 178.38 153.21 179.51 153.59 180.51 C 153.98 181.52 155.11 182.02 156.11 181.64 Z M 157.12 181.25 L 158.10 180.86 C 159.10 180.47 159.59 179.33 159.19 178.33 C 158.79 177.33 157.66 176.84 156.66 177.24 L 155.68 177.63 C 154.68 178.02 154.19 179.15 154.59 180.16 C 154.98 181.16 156.12 181.65 157.12 181.25 Z M 158.11 180.85 L 159.08 180.46 C 160.08 180.05 160.56 178.92 160.15 177.92 C 159.75 176.92 158.61 176.45 157.61 176.85 L 156.64 177.25 C 155.65 177.65 155.17 178.79 155.57 179.79 C 155.98 180.78 157.12 181.26 158.11 180.85 Z M 159.10 180.45 L 160.06 180.05 C 161.05 179.63 161.52 178.49 161.10 177.50 C 160.69 176.51 159.55 176.04 158.56 176.46 L 157.60 176.86 C 156.61 177.28 156.14 178.42 156.56 179.41 C 156.97 180.40 158.11 180.86 159.10 180.45 Z M 160.08 180.04 L 161.02 179.63 C 162.01 179.20 162.46 178.06 162.04 177.08 C 161.61 176.09 160.47 175.64 159.48 176.06 L 158.54 176.47 C 157.56 176.89 157.10 178.04 157.53 179.02 C 157.95 180.01 159.09 180.46 160.08 180.04 Z M 161.04 179.62 L 161.95 179.21 C 162.93 178.78 163.37 177.63 162.94 176.65 C 162.50 175.67 161.36 175.23 160.38 175.67 L 159.47 176.07 C 158.49 176.51 158.05 177.65 158.48 178.63 C 158.92 179.61 160.06 180.05 161.04 179.62 Z M 161.97 179.20 L 162.84 178.80 C 163.82 178.36 164.24 177.21 163.80 176.23 C 163.35 175.26 162.20 174.83 161.23 175.28 L 160.36 175.68 C 159.38 176.13 158.96 177.28 159.40 178.25 C 159.85 179.22 161.00 179.65 161.97 179.20 Z M 162.87 178.79 L 163.68 178.40 C 164.65 177.94 165.06 176.78 164.60 175.82 C 164.14 174.85 162.99 174.45 162.02 174.90 L 161.20 175.29 C 160.24 175.75 159.83 176.91 160.29 177.87 C 160.75 178.84 161.90 179.25 162.87 178.79 Z M 163.72 178.38 L 164.74 177.87 C 165.69 177.39 166.08 176.23 165.60 175.28 C 165.12 174.32 163.96 173.94 163.01 174.41 L 161.99 174.92 C 161.03 175.40 160.65 176.56 161.12 177.52 C 161.60 178.47 162.76 178.86 163.72 178.38 Z M 164.78 177.85 L 165.72 177.34 C 166.66 176.84 167.01 175.67 166.51 174.73 C 166.01 173.79 164.84 173.44 163.90 173.94 L 162.96 174.44 C 162.02 174.94 161.67 176.11 162.17 177.05 C 162.67 177.99 163.84 178.35 164.78 177.85 Z M 165.76 177.32 L 166.61 176.83 C 167.54 176.30 167.86 175.13 167.34 174.20 C 166.81 173.28 165.63 172.96 164.71 173.48 L 163.85 173.97 C 162.93 174.49 162.61 175.67 163.13 176.60 C 163.66 177.52 164.84 177.84 165.76 177.32 Z M 166.66 176.80 L 167.45 176.32 C 168.35 175.77 168.64 174.59 168.09 173.68 C 167.54 172.77 166.36 172.48 165.45 173.03 L 164.66 173.51 C 163.75 174.06 163.46 175.25 164.02 176.16 C 164.57 177.06 165.75 177.35 166.66 176.80 Z M 167.49 176.29 L 168.24 175.81 C 169.13 175.24 169.38 174.05 168.81 173.15 C 168.23 172.26 167.04 172.01 166.15 172.58 L 165.40 173.06 C 164.51 173.64 164.26 174.83 164.83 175.72 C 165.41 176.61 166.60 176.87 167.49 176.29 Z M 168.28 175.78 L 169.11 175.21 C 169.99 174.61 170.21 173.41 169.61 172.54 C 169.01 171.67 167.82 171.44 166.95 172.04 L 166.11 172.61 C 165.23 173.21 165.01 174.41 165.61 175.28 C 166.21 176.16 167.40 176.38 168.28 175.78 Z M 169.17 175.17 L 169.97 174.58 C 170.82 173.95 171.01 172.75 170.38 171.90 C 169.75 171.04 168.55 170.86 167.69 171.49 L 166.89 172.08 C 166.04 172.71 165.86 173.91 166.48 174.76 C 167.11 175.61 168.31 175.80 169.17 175.17 Z M 170.03 174.53 L 170.80 173.92 C 171.63 173.26 171.77 172.05 171.11 171.22 C 170.45 170.39 169.24 170.26 168.41 170.92 L 167.64 171.54 C 166.81 172.20 166.67 173.40 167.33 174.23 C 167.99 175.06 169.20 175.19 170.03 174.53 Z M 170.86 173.86 L 171.62 173.21 C 172.42 172.51 172.50 171.30 171.81 170.50 C 171.11 169.70 169.90 169.62 169.10 170.32 L 168.35 170.97 C 167.55 171.67 167.47 172.88 168.16 173.67 C 168.86 174.47 170.07 174.56 170.86 173.86 Z M 171.68 173.15 L 172.41 172.46 C 173.17 171.73 173.20 170.52 172.47 169.75 C 171.74 168.98 170.53 168.95 169.77 169.68 L 169.04 170.37 C 168.27 171.10 168.24 172.32 168.97 173.08 C 169.70 173.85 170.91 173.88 171.68 173.15 Z M 172.47 172.40 L 173.17 171.67 C 173.90 170.91 173.88 169.70 173.11 168.96 C 172.35 168.23 171.14 168.25 170.40 169.02 L 169.70 169.74 C 168.97 170.51 169.00 171.72 169.76 172.45 C 170.52 173.18 171.73 173.16 172.47 172.40 Z M 173.23 171.61 L 173.89 170.85 C 174.58 170.05 174.51 168.84 173.71 168.15 C 172.91 167.45 171.71 167.53 171.01 168.32 L 170.35 169.08 C 169.65 169.88 169.73 171.09 170.52 171.78 C 171.32 172.48 172.53 172.40 173.23 171.61 Z M 173.95 170.78 L 174.56 170.00 C 175.22 169.17 175.08 167.97 174.25 167.31 C 173.42 166.66 172.22 166.79 171.56 167.62 L 170.95 168.40 C 170.29 169.23 170.43 170.43 171.26 171.09 C 172.09 171.74 173.29 171.61 173.95 170.78 Z M 174.63 169.92 L 175.21 169.09 C 175.82 168.22 175.62 167.03 174.76 166.42 C 173.89 165.81 172.70 166.01 172.09 166.87 L 171.50 167.71 C 170.89 168.57 171.09 169.77 171.96 170.38 C 172.82 170.99 174.01 170.78 174.63 169.92 Z M 175.27 169.00 L 175.81 168.14 C 176.37 167.25 176.10 166.07 175.20 165.51 C 174.31 164.94 173.13 165.21 172.57 166.11 L 172.03 166.96 C 171.47 167.86 171.74 169.04 172.63 169.60 C 173.53 170.16 174.71 169.89 175.27 169.00 Z M 175.85 168.07 L 176.34 167.20 C 176.86 166.28 176.53 165.12 175.61 164.60 C 174.69 164.08 173.52 164.40 173.00 165.33 L 172.52 166.19 C 172.00 167.11 172.33 168.28 173.25 168.79 C 174.17 169.31 175.34 168.99 175.85 168.07 Z M 176.37 167.14 L 176.82 166.27 C 177.30 165.33 176.93 164.17 175.99 163.69 C 175.05 163.21 173.90 163.58 173.42 164.52 L 172.97 165.39 C 172.49 166.33 172.86 167.49 173.80 167.97 C 174.74 168.45 175.89 168.08 176.37 167.14 Z M 176.85 166.21 L 177.27 165.32 C 177.72 164.37 177.32 163.23 176.36 162.78 C 175.41 162.32 174.26 162.73 173.81 163.68 L 173.39 164.57 C 172.94 165.53 173.34 166.67 174.30 167.12 C 175.25 167.58 176.39 167.17 176.85 166.21 Z M 177.29 165.28 L 177.69 164.37 C 178.12 163.40 177.68 162.28 176.71 161.85 C 175.74 161.42 174.62 161.86 174.19 162.83 L 173.79 163.73 C 173.36 164.70 173.80 165.83 174.77 166.25 C 175.73 166.68 176.86 166.24 177.29 165.28 Z M 177.71 164.33 L 178.09 163.40 C 178.49 162.42 178.03 161.30 177.05 160.90 C 176.07 160.50 174.95 160.97 174.55 161.94 L 174.17 162.87 C 173.77 163.85 174.24 164.97 175.21 165.37 C 176.19 165.77 177.31 165.30 177.71 164.33 Z M 178.11 163.36 L 178.47 162.41 C 178.85 161.43 178.36 160.32 177.37 159.94 C 176.38 159.56 175.28 160.05 174.90 161.04 L 174.54 161.99 C 174.16 162.97 174.65 164.08 175.63 164.46 C 176.62 164.84 177.73 164.34 178.11 163.36 Z M 178.48 162.37 L 178.80 161.49 C 179.16 160.50 178.64 159.40 177.65 159.04 C 176.65 158.69 175.56 159.20 175.20 160.20 L 174.88 161.08 C 174.53 162.07 175.04 163.17 176.04 163.53 C 177.03 163.88 178.13 163.37 178.48 162.37 Z M 178.82 161.44 L 179.12 160.51 C 179.45 159.51 178.90 158.43 177.89 158.10 C 176.89 157.78 175.81 158.33 175.48 159.33 L 175.18 160.25 C 174.85 161.26 175.40 162.34 176.41 162.66 C 177.41 162.99 178.49 162.44 178.82 161.44 Z M 179.14 160.44 L 179.42 159.47 C 179.71 158.45 179.11 157.39 178.10 157.10 C 177.08 156.82 176.02 157.41 175.73 158.43 L 175.46 159.40 C 175.17 160.42 175.76 161.48 176.78 161.76 C 177.80 162.05 178.86 161.46 179.14 160.44 Z M 179.44 159.38 L 179.68 158.34 C 179.92 157.31 179.28 156.28 178.25 156.04 C 177.22 155.80 176.19 156.44 175.95 157.47 L 175.71 158.51 C 175.47 159.54 176.11 160.57 177.14 160.81 C 178.17 161.05 179.20 160.41 179.44 159.38 Z M 179.70 158.26 L 179.88 157.32 C 180.07 156.28 179.38 155.28 178.34 155.08 C 177.30 154.89 176.30 155.58 176.11 156.62 L 175.93 157.56 C 175.74 158.60 176.43 159.60 177.47 159.79 C 178.51 159.98 179.51 159.30 179.70 158.26 Z M 179.89 157.25 L 180.03 156.30 C 180.18 155.25 179.46 154.28 178.41 154.12 C 177.36 153.97 176.39 154.69 176.24 155.74 L 176.10 156.69 C 175.94 157.73 176.67 158.71 177.71 158.86 C 178.76 159.02 179.73 158.29 179.89 157.25 Z M 180.04 156.24 L 180.15 155.25 C 180.27 154.20 179.52 153.25 178.47 153.13 C 177.42 153.01 176.47 153.76 176.34 154.81 L 176.23 155.80 C 176.11 156.85 176.86 157.80 177.91 157.92 C 178.96 158.05 179.91 157.29 180.04 156.24 Z M 180.16 155.20 L 180.25 154.18 C 180.34 153.13 179.56 152.20 178.51 152.10 C 177.45 152.01 176.52 152.79 176.43 153.84 L 176.34 154.86 C 176.24 155.92 177.02 156.85 178.08 156.94 C 179.13 157.04 180.06 156.26 180.16 155.20 Z M 180.25 154.14 L 180.32 153.09 C 180.39 152.03 179.59 151.12 178.54 151.05 C 177.48 150.98 176.57 151.78 176.50 152.83 L 176.43 153.88 C 176.36 154.94 177.15 155.85 178.21 155.92 C 179.27 155.99 180.18 155.19 180.25 154.14 Z M 180.32 153.05 L 180.37 152.00 C 180.42 150.94 179.61 150.04 178.55 149.99 C 177.49 149.94 176.59 150.76 176.54 151.82 L 176.49 152.87 C 176.44 153.93 177.26 154.83 178.32 154.88 C 179.38 154.93 180.27 154.11 180.32 153.05 Z M 180.37 151.97 L 180.41 150.92 C 180.44 149.86 179.61 148.97 178.55 148.94 C 177.49 148.91 176.61 149.74 176.57 150.80 L 176.54 151.85 C 176.51 152.90 177.34 153.79 178.40 153.82 C 179.46 153.86 180.34 153.02 180.37 151.97 Z M 180.41 150.89 L 180.43 149.85 C 180.45 148.80 179.61 147.92 178.55 147.90 C 177.49 147.88 176.61 148.72 176.59 149.78 L 176.57 150.82 C 176.55 151.88 177.40 152.75 178.45 152.77 C 179.51 152.80 180.39 151.95 180.41 150.89 Z M 180.43 149.84 L 180.44 148.82 C 180.45 147.76 179.60 146.90 178.54 146.89 C 177.48 146.88 176.61 147.73 176.60 148.79 L 176.59 149.80 C 176.58 150.86 177.43 151.73 178.49 151.74 C 179.55 151.75 180.42 150.90 180.43 149.84 Z M 180.44 148.81 L 180.44 147.84 C 180.45 146.78 179.59 145.92 178.53 145.92 C 177.47 145.91 176.61 146.77 176.61 147.83 L 176.60 148.80 C 176.60 149.86 177.45 150.72 178.51 150.72 C 179.57 150.73 180.44 149.87 180.44 148.81 Z M 180.44 147.84 L 180.44 146.93 C 180.44 145.87 179.59 145.01 178.53 145.01 C 177.47 145.01 176.61 145.87 176.61 146.93 L 176.61 147.83 C 176.60 148.89 177.46 149.75 178.52 149.75 C 179.58 149.75 180.44 148.90 180.44 147.84 Z M 180.44 146.92 L 180.44 145.95 C 180.44 144.89 179.58 144.03 178.52 144.04 C 177.46 144.04 176.60 144.90 176.60 145.96 L 176.61 146.93 C 176.61 147.99 177.47 148.85 178.53 148.85 C 179.59 148.84 180.45 147.98 180.44 146.92 Z M 180.44 145.91 L 180.42 144.99 C 180.40 143.93 179.52 143.09 178.46 143.11 C 177.40 143.13 176.56 144.01 176.58 145.07 L 176.60 146.00 C 176.63 147.06 177.51 147.90 178.56 147.87 C 179.62 147.85 180.46 146.97 180.44 145.91 Z M 180.42 144.91 L 180.36 143.97 C 180.30 142.91 179.39 142.10 178.33 142.17 C 177.27 142.23 176.47 143.14 176.53 144.20 L 176.59 145.14 C 176.65 146.20 177.56 147.01 178.62 146.94 C 179.67 146.88 180.48 145.97 180.42 144.91 Z M 180.35 143.88 L 180.24 142.85 C 180.13 141.80 179.18 141.03 178.13 141.15 C 177.08 141.26 176.32 142.20 176.43 143.25 L 176.54 144.28 C 176.65 145.34 177.60 146.10 178.65 145.99 C 179.70 145.87 180.46 144.93 180.35 143.88 Z M 180.23 142.76 L 180.07 141.70 C 179.91 140.66 178.93 139.94 177.89 140.10 C 176.84 140.25 176.12 141.23 176.28 142.28 L 176.44 143.34 C 176.60 144.38 177.58 145.10 178.62 144.95 C 179.67 144.79 180.39 143.81 180.23 142.76 Z M 180.06 141.65 L 179.89 140.75 C 179.70 139.71 178.71 139.02 177.67 139.21 C 176.63 139.40 175.94 140.40 176.13 141.44 L 176.29 142.33 C 176.48 143.37 177.48 144.06 178.52 143.87 C 179.56 143.68 180.25 142.69 180.06 141.65 Z M 179.88 140.71 L 179.69 139.75 C 179.48 138.71 178.47 138.04 177.44 138.25 C 176.40 138.46 175.73 139.47 175.94 140.51 L 176.14 141.47 C 176.34 142.50 177.35 143.17 178.39 142.97 C 179.42 142.76 180.09 141.75 179.88 140.71 Z M 179.68 139.73 L 179.47 138.72 C 179.25 137.69 178.23 137.03 177.20 137.26 C 176.17 137.48 175.51 138.49 175.73 139.53 L 175.95 140.53 C 176.17 141.56 177.19 142.22 178.22 142.00 C 179.25 141.77 179.91 140.76 179.68 139.73 Z M 179.46 138.71 L 179.23 137.68 C 179.00 136.65 177.98 136.01 176.95 136.24 C 175.92 136.47 175.28 137.49 175.51 138.52 L 175.74 139.54 C 175.97 140.57 176.99 141.22 178.02 140.99 C 179.05 140.76 179.69 139.74 179.46 138.71 Z M 179.23 137.67 L 178.99 136.65 C 178.76 135.62 177.73 134.98 176.71 135.22 C 175.68 135.46 175.04 136.48 175.28 137.51 L 175.51 138.53 C 175.75 139.56 176.77 140.20 177.80 139.96 C 178.83 139.72 179.47 138.70 179.23 137.67 Z M 178.99 136.65 L 178.76 135.65 C 178.52 134.62 177.49 133.99 176.47 134.23 C 175.44 134.47 174.81 135.49 175.05 136.52 L 175.28 137.51 C 175.52 138.54 176.54 139.17 177.57 138.94 C 178.59 138.70 179.23 137.67 178.99 136.65 Z M 178.75 135.65 L 178.51 134.60 C 178.27 133.58 177.24 132.94 176.22 133.18 C 175.20 133.42 174.56 134.45 174.80 135.47 L 175.05 136.52 C 175.29 137.54 176.31 138.17 177.34 137.93 C 178.36 137.69 178.99 136.67 178.75 135.65 Z M 178.50 134.61 L 178.25 133.52 C 178.01 132.50 176.99 131.87 175.97 132.11 C 174.95 132.34 174.32 133.36 174.56 134.38 L 174.81 135.46 C 175.05 136.48 176.07 137.12 177.09 136.88 C 178.10 136.64 178.74 135.62 178.50 134.61 Z M 178.24 133.53 L 178.00 132.51 C 177.77 131.50 176.76 130.87 175.75 131.10 C 174.73 131.34 174.10 132.35 174.34 133.36 L 174.57 134.37 C 174.80 135.39 175.81 136.02 176.83 135.78 C 177.84 135.55 178.47 134.54 178.24 133.53 Z M 177.99 132.52 L 177.78 131.57 C 177.55 130.56 176.55 129.93 175.54 130.16 C 174.53 130.39 173.90 131.39 174.13 132.40 L 174.34 133.35 C 174.57 134.36 175.58 134.99 176.58 134.76 C 177.59 134.53 178.22 133.53 177.99 132.52 Z M 177.77 131.58 L 177.57 130.68 C 177.34 129.67 176.35 129.04 175.35 129.26 C 174.35 129.49 173.71 130.48 173.94 131.48 L 174.14 132.39 C 174.36 133.39 175.35 134.02 176.36 133.80 C 177.36 133.58 177.99 132.58 177.77 131.58 Z M 177.56 130.69 L 177.37 129.83 C 177.16 128.83 176.17 128.19 175.18 128.41 C 174.18 128.63 173.54 129.61 173.76 130.61 L 173.95 131.47 C 174.16 132.47 175.14 133.10 176.14 132.89 C 177.14 132.67 177.77 131.69 177.56 130.69 Z M 177.37 129.84 L 177.16 128.82 C 176.95 127.83 175.97 127.19 174.97 127.40 C 173.98 127.61 173.34 128.59 173.55 129.58 L 173.76 130.60 C 173.97 131.59 174.95 132.23 175.95 132.02 C 176.94 131.81 177.58 130.83 177.37 129.84 Z M 177.15 128.80 L 176.92 127.80 C 176.70 126.81 175.71 126.19 174.72 126.41 C 173.73 126.64 173.11 127.62 173.33 128.61 L 173.56 129.61 C 173.78 130.60 174.77 131.22 175.76 131.00 C 176.75 130.78 177.37 129.79 177.15 128.80 Z M 176.90 127.72 L 176.64 126.77 C 176.37 125.79 175.36 125.21 174.37 125.48 C 173.39 125.75 172.82 126.77 173.09 127.75 L 173.35 128.70 C 173.62 129.68 174.64 130.25 175.62 129.98 C 176.60 129.71 177.17 128.70 176.90 127.72 Z M 176.60 126.63 L 176.27 125.73 C 175.92 124.77 174.86 124.28 173.91 124.62 C 172.95 124.97 172.46 126.03 172.81 126.99 L 173.13 127.89 C 173.48 128.84 174.54 129.34 175.49 128.99 C 176.45 128.64 176.94 127.58 176.60 126.63 Z M 176.20 125.51 L 175.70 124.51 C 175.23 123.60 174.10 123.23 173.18 123.70 C 172.27 124.16 171.90 125.29 172.37 126.21 L 172.87 127.20 C 173.34 128.12 174.46 128.49 175.38 128.02 C 176.30 127.55 176.67 126.43 176.20 125.51 Z M 175.65 124.27 L 174.94 123.22 C 174.34 122.33 173.13 122.09 172.24 122.70 C 171.34 123.30 171.10 124.51 171.71 125.41 L 172.41 126.45 C 173.01 127.35 174.23 127.58 175.12 126.98 C 176.02 126.38 176.25 125.16 175.65 124.27 Z M 174.96 123.04 L 174.37 122.28 C 173.66 121.38 172.36 121.22 171.46 121.92 C 170.56 122.63 170.40 123.93 171.10 124.83 L 171.69 125.59 C 172.40 126.49 173.70 126.65 174.60 125.95 C 175.50 125.24 175.66 123.94 174.96 123.04 Z M 174.52 122.32 L 174.29 121.98 C 173.61 121.00 172.25 120.75 171.26 121.43 C 170.28 122.12 170.03 123.48 170.71 124.46 L 170.95 124.80 C 171.63 125.79 172.99 126.03 173.98 125.35 C 174.96 124.66 175.21 123.31 174.52 122.32 Z M 171.11 124.95 L 171.67 125.41 C 172.63 126.18 174.03 126.03 174.80 125.07 C 175.57 124.12 175.41 122.72 174.46 121.95 L 173.90 121.49 C 172.94 120.72 171.54 120.88 170.77 121.83 C 170.00 122.79 170.15 124.18 171.11 124.95 Z M 171.52 125.27 L 172.47 126.18 C 173.35 127.04 174.75 127.01 175.61 126.13 C 176.46 125.25 176.43 123.84 175.55 122.99 L 174.61 122.08 C 173.73 121.23 172.32 121.25 171.47 122.13 C 170.62 123.02 170.64 124.42 171.52 125.27 Z M 172.40 126.11 L 173.07 126.81 C 173.91 127.70 175.31 127.73 176.20 126.89 C 177.08 126.05 177.12 124.65 176.28 123.76 L 175.61 123.06 C 174.77 122.17 173.37 122.14 172.48 122.98 C 171.60 123.82 171.56 125.23 172.40 126.11 Z M 173.03 126.76 L 173.69 127.50 C 174.50 128.41 175.90 128.49 176.81 127.68 C 177.72 126.86 177.80 125.47 176.98 124.56 L 176.32 123.81 C 175.51 122.91 174.11 122.83 173.20 123.64 C 172.29 124.45 172.21 125.85 173.03 126.76 Z M 173.66 127.45 L 174.34 128.25 C 175.12 129.18 176.51 129.29 177.44 128.51 C 178.36 127.72 178.48 126.33 177.69 125.40 L 177.01 124.61 C 176.23 123.68 174.84 123.57 173.91 124.35 C 172.99 125.14 172.87 126.53 173.66 127.45 Z M 174.32 128.22 L 174.87 128.89 C 175.64 129.82 177.02 129.96 177.95 129.20 C 178.89 128.43 179.03 127.05 178.26 126.11 L 177.71 125.44 C 176.94 124.50 175.56 124.37 174.63 125.13 C 173.69 125.90 173.55 127.28 174.32 128.22 Z M 174.86 128.86 L 175.43 129.58 C 176.19 130.52 177.56 130.68 178.50 129.92 C 179.44 129.17 179.60 127.80 178.84 126.86 L 178.27 126.14 C 177.52 125.20 176.14 125.04 175.20 125.80 C 174.26 126.55 174.11 127.92 174.86 128.86 Z M 175.43 129.56 L 176.06 130.36 C 176.80 131.30 178.17 131.46 179.11 130.72 C 180.05 129.98 180.22 128.61 179.47 127.67 L 178.85 126.87 C 178.10 125.93 176.74 125.77 175.80 126.51 C 174.85 127.25 174.69 128.62 175.43 129.56 Z M 176.06 130.35 L 176.76 131.24 C 177.49 132.18 178.85 132.35 179.80 131.62 C 180.74 130.88 180.91 129.52 180.17 128.58 L 179.47 127.68 C 178.74 126.74 177.38 126.58 176.44 127.31 C 175.49 128.04 175.33 129.40 176.06 130.35 Z M 176.77 131.23 L 177.39 132.04 C 178.12 132.98 179.47 133.15 180.41 132.42 C 181.35 131.69 181.52 130.33 180.79 129.40 L 180.16 128.59 C 179.43 127.65 178.08 127.48 177.14 128.21 C 176.21 128.94 176.04 130.29 176.77 131.23 Z M 177.40 132.03 L 178.01 132.81 C 178.73 133.74 180.07 133.91 181.01 133.19 C 181.94 132.47 182.11 131.12 181.39 130.19 L 180.78 129.41 C 180.06 128.47 178.71 128.30 177.78 129.03 C 176.85 129.75 176.68 131.09 177.40 132.03 Z M 178.01 132.80 L 178.64 133.61 C 179.36 134.54 180.69 134.71 181.62 134.00 C 182.55 133.28 182.73 131.94 182.01 131.01 L 181.38 130.20 C 180.66 129.27 179.33 129.10 178.40 129.82 C 177.47 130.53 177.30 131.87 178.01 132.80 Z M 178.65 133.60 L 179.28 134.42 C 179.99 135.35 181.31 135.52 182.24 134.81 C 183.17 134.10 183.34 132.78 182.63 131.85 L 182.00 131.03 C 181.29 130.10 179.97 129.93 179.04 130.64 C 178.11 131.35 177.94 132.67 178.65 133.60 Z M 179.28 134.41 L 179.90 135.22 C 180.60 136.14 181.92 136.32 182.84 135.62 C 183.77 134.92 183.95 133.60 183.24 132.68 L 182.63 131.87 C 181.93 130.94 180.61 130.76 179.69 131.46 C 178.76 132.17 178.58 133.48 179.28 134.41 Z M 179.90 135.20 L 180.49 135.98 C 181.18 136.90 182.49 137.09 183.41 136.40 C 184.33 135.71 184.52 134.40 183.83 133.48 L 183.24 132.70 C 182.55 131.78 181.24 131.59 180.32 132.28 C 179.40 132.97 179.21 134.28 179.90 135.20 Z M 180.50 135.95 L 181.09 136.76 C 181.77 137.68 183.06 137.88 183.98 137.20 C 184.89 136.53 185.09 135.24 184.41 134.32 L 183.82 133.51 C 183.14 132.59 181.85 132.40 180.94 133.07 C 180.02 133.74 179.82 135.03 180.50 135.95 Z M 181.11 136.72 L 181.68 137.50 C 182.33 138.41 183.59 138.62 184.50 137.96 C 185.41 137.31 185.61 136.05 184.96 135.14 L 184.40 134.36 C 183.74 133.45 182.48 133.25 181.57 133.90 C 180.67 134.55 180.46 135.82 181.11 136.72 Z M 181.70 137.46 L 182.24 138.24 C 182.87 139.14 184.11 139.35 185.01 138.72 C 185.90 138.09 186.12 136.86 185.49 135.96 L 184.94 135.18 C 184.31 134.29 183.07 134.07 182.18 134.70 C 181.28 135.33 181.06 136.57 181.70 137.46 Z M 182.26 138.20 L 182.82 139.01 C 183.43 139.90 184.64 140.12 185.53 139.51 C 186.41 138.90 186.63 137.69 186.02 136.80 L 185.46 136.00 C 184.86 135.11 183.64 134.89 182.76 135.50 C 181.88 136.11 181.65 137.32 182.26 138.20 Z M 182.85 138.98 L 183.44 139.85 C 184.03 140.72 185.22 140.95 186.09 140.36 C 186.96 139.76 187.18 138.58 186.59 137.71 L 186.00 136.84 C 185.41 135.97 184.22 135.74 183.35 136.33 C 182.48 136.93 182.26 138.11 182.85 138.98 Z M 183.46 139.83 L 183.99 140.60 C 184.57 141.46 185.73 141.69 186.59 141.11 C 187.44 140.53 187.67 139.37 187.09 138.51 L 186.57 137.73 C 185.99 136.88 184.83 136.65 183.97 137.23 C 183.11 137.81 182.89 138.97 183.46 139.83 Z M 184.01 140.59 L 184.52 141.35 C 185.09 142.19 186.23 142.42 187.08 141.85 C 187.93 141.28 188.15 140.13 187.58 139.28 L 187.07 138.53 C 186.50 137.68 185.36 137.46 184.51 138.02 C 183.66 138.59 183.44 139.74 184.01 140.59 Z M 184.53 141.33 L 185.07 142.13 C 185.63 142.97 186.77 143.20 187.60 142.63 C 188.44 142.07 188.66 140.94 188.10 140.10 L 187.57 139.30 C 187.00 138.46 185.87 138.24 185.03 138.80 C 184.20 139.36 183.97 140.49 184.53 141.33 Z M 185.09 142.12 L 185.65 142.96 C 186.20 143.79 187.32 144.01 188.15 143.45 C 188.98 142.90 189.20 141.78 188.65 140.95 L 188.09 140.11 C 187.53 139.29 186.41 139.06 185.58 139.62 C 184.76 140.17 184.53 141.29 185.09 142.12 Z M 185.67 142.94 L 186.24 143.81 C 186.79 144.63 187.90 144.85 188.71 144.30 C 189.53 143.76 189.75 142.65 189.21 141.83 L 188.63 140.97 C 188.08 140.15 186.98 139.93 186.16 140.47 C 185.34 141.02 185.12 142.13 185.67 142.94 Z M 186.26 143.80 L 186.85 144.68 C 187.39 145.49 188.48 145.71 189.29 145.17 C 190.10 144.63 190.32 143.54 189.78 142.73 L 189.19 141.84 C 188.65 141.04 187.56 140.82 186.75 141.36 C 185.94 141.90 185.72 142.99 186.26 143.80 Z M 186.87 144.67 L 187.47 145.57 C 188.00 146.37 189.08 146.58 189.88 146.05 C 190.68 145.52 190.89 144.44 190.36 143.64 L 189.76 142.74 C 189.23 141.94 188.15 141.73 187.35 142.26 C 186.55 142.79 186.34 143.87 186.87 144.67 Z M 187.48 145.56 L 187.70 145.89 C 188.23 146.68 189.30 146.90 190.09 146.37 C 190.88 145.84 191.10 144.77 190.57 143.98 L 190.35 143.65 C 189.82 142.85 188.75 142.64 187.96 143.17 C 187.17 143.70 186.95 144.77 187.48 145.56 Z"
      fill="black"
      fill-rule="nonzero" /><path d="M 188.02 103.93 L 188.83 104.51 C 189.71 105.13 190.92 104.92 191.54 104.05 C 192.15 103.17 191.94 101.96 191.07 101.34 L 190.25 100.77 C 189.38 100.15 188.17 100.36 187.55 101.23 C 186.93 102.11 187.14 103.32 188.02 103.93 Z M 188.83 104.51 L 189.65 105.09 C 190.52 105.71 191.74 105.50 192.35 104.62 C 192.97 103.75 192.76 102.54 191.89 101.92 L 191.07 101.34 C 190.20 100.72 188.98 100.93 188.37 101.81 C 187.75 102.68 187.96 103.89 188.83 104.51 Z M 189.65 105.09 L 190.47 105.67 C 191.34 106.28 192.55 106.08 193.17 105.20 C 193.79 104.32 193.58 103.11 192.70 102.50 L 191.89 101.92 C 191.01 101.30 189.80 101.51 189.18 102.38 C 188.56 103.26 188.77 104.47 189.65 105.09 Z M 190.47 105.67 L 191.28 106.24 C 192.16 106.86 193.37 106.65 193.99 105.78 C 194.61 104.90 194.40 103.69 193.52 103.07 L 192.71 102.49 C 191.83 101.88 190.62 102.08 190.00 102.96 C 189.38 103.84 189.59 105.05 190.47 105.67 Z M 191.28 106.24 L 192.10 106.82 C 192.97 107.44 194.19 107.23 194.81 106.35 C 195.42 105.48 195.22 104.27 194.34 103.65 L 193.52 103.07 C 192.65 102.45 191.43 102.66 190.82 103.54 C 190.20 104.41 190.41 105.63 191.28 106.24 Z M 192.10 106.82 L 192.52 107.12 C 193.40 107.74 194.61 107.53 195.23 106.66 C 195.85 105.78 195.64 104.57 194.76 103.95 L 194.34 103.65 C 193.46 103.03 192.25 103.24 191.63 104.11 C 191.01 104.99 191.22 106.20 192.10 106.82 Z"
      fill="black"
      fill-rule="nonzero" /><path d="M 200.81 97.66 L 201.08 98.63 C 201.35 99.58 202.34 100.14 203.29 99.87 C 204.24 99.60 204.79 98.61 204.53 97.66 L 204.25 96.69 C 203.98 95.74 202.99 95.19 202.04 95.46 C 201.09 95.72 200.54 96.71 200.81 97.66 Z M 201.05 98.68 L 201.34 99.64 C 201.64 100.61 202.66 101.15 203.63 100.86 C 204.59 100.56 205.14 99.54 204.85 98.57 L 204.56 97.61 C 204.26 96.65 203.24 96.10 202.27 96.39 C 201.30 96.69 200.76 97.71 201.05 98.68 Z M 201.32 99.72 L 201.65 100.66 C 201.99 101.64 203.05 102.15 204.03 101.82 C 205.01 101.48 205.53 100.41 205.19 99.43 L 204.87 98.49 C 204.53 97.52 203.46 97.00 202.48 97.33 C 201.51 97.67 200.99 98.74 201.32 99.72 Z M 201.67 100.77 L 202.04 101.68 C 202.44 102.65 203.54 103.11 204.51 102.71 C 205.48 102.31 205.95 101.21 205.55 100.24 L 205.17 99.33 C 204.78 98.36 203.67 97.89 202.70 98.29 C 201.73 98.69 201.27 99.80 201.67 100.77 Z M 202.09 101.77 L 202.52 102.66 C 202.97 103.60 204.09 104.00 205.03 103.55 C 205.97 103.10 206.37 101.97 205.92 101.03 L 205.50 100.14 C 205.05 99.20 203.92 98.81 202.98 99.25 C 202.04 99.70 201.64 100.83 202.09 101.77 Z M 202.57 102.71 L 203.04 103.60 C 203.51 104.51 204.64 104.86 205.55 104.38 C 206.46 103.90 206.81 102.78 206.33 101.87 L 205.87 100.98 C 205.39 100.07 204.26 99.72 203.35 100.20 C 202.44 100.68 202.09 101.80 202.57 102.71 Z M 203.08 103.61 L 203.56 104.51 C 204.05 105.39 205.17 105.72 206.06 105.23 C 206.94 104.74 207.27 103.63 206.78 102.74 L 206.29 101.85 C 205.80 100.96 204.69 100.63 203.80 101.12 C 202.91 101.61 202.59 102.73 203.08 103.61 Z M 203.60 104.49 L 204.08 105.35 C 204.56 106.22 205.65 106.53 206.52 106.05 C 207.39 105.57 207.70 104.47 207.22 103.60 L 206.74 102.75 C 206.26 101.88 205.17 101.57 204.30 102.05 C 203.43 102.53 203.12 103.63 203.60 104.49 Z M 204.12 105.33 L 204.61 106.20 C 205.08 107.05 206.14 107.35 206.99 106.88 C 207.83 106.41 208.14 105.34 207.66 104.50 L 207.18 103.62 C 206.71 102.78 205.64 102.48 204.80 102.95 C 203.95 103.42 203.65 104.49 204.12 105.33 Z M 204.65 106.18 L 205.14 107.07 C 205.60 107.89 206.64 108.18 207.46 107.73 C 208.28 107.27 208.58 106.23 208.12 105.41 L 207.62 104.52 C 207.16 103.70 206.13 103.41 205.30 103.87 C 204.48 104.32 204.19 105.36 204.65 106.18 Z M 205.18 107.05 L 205.45 107.54 C 205.90 108.35 206.92 108.63 207.72 108.18 C 208.52 107.73 208.81 106.72 208.36 105.91 L 208.09 105.42 C 207.64 104.62 206.62 104.33 205.82 104.78 C 205.01 105.23 204.73 106.25 205.18 107.05 Z"
      fill="black"
      fill-rule="nonzero" /></svg>