<svg xmlns="http://www.w3.org/2000/svg" width="300" height="300" viewBox="0 0 300 300">
<path d="M 117.61 117.63 L 116.89 118.68 C 116.32 119.51 116.53 120.64 117.36 121.22 C 118.19 121.79 119.33 121.58 119.90 120.75 L 120.62 119.70 C 121.19 118.87 120.98 117.74 120.15 117.16 C 119.32 116.59 118.18 116.80 117.61 117.63 Z M 116.78 118.77 L 116.23 119.71 C 115.71 120.60 116.01 121.74 116.90 122.26 C 117.79 122.78 118.94 122.48 119.46 121.59 L 120.01 120.65 C 120.53 119.76 120.23 118.62 119.34 118.10 C 118.45 117.58 117.30 117.88 116.78 118.77 Z M 116.01 120.12 L 115.80 120.85 C 115.51 121.87 116.09 122.93 117.10 123.22 C 118.11 123.51 119.17 122.93 119.47 121.91 L 119.68 121.18 C 119.97 120.17 119.39 119.11 118.37 118.82 C 117.36 118.52 116.30 119.11 116.01 120.12 Z M 116.06 122.52 L 116.38 122.97 C 117.01 123.84 118.22 124.04 119.09 123.41 C 119.96 122.78 120.16 121.57 119.53 120.70 L 119.21 120.25 C 118.58 119.38 117.37 119.19 116.50 119.81 C 115.63 120.44 115.43 121.65 116.06 122.52 Z M 117.73 123.77 L 118.61 123.88 C 119.68 124.00 120.65 123.24 120.78 122.17 C 120.90 121.10 120.14 120.13 119.07 120.01 L 118.19 119.90 C 117.12 119.78 116.15 120.54 116.02 121.61 C 115.90 122.67 116.66 123.64 117.73 123.77 Z M 119.11 123.87 L 120.29 123.71 C 121.36 123.56 122.10 122.57 121.95 121.51 C 121.80 120.44 120.82 119.70 119.75 119.85 L 118.57 120.01 C 117.51 120.16 116.76 121.14 116.91 122.21 C 117.06 123.28 118.05 124.02 119.11 123.87 Z M 120.52 123.66 L 121.57 123.39 C 122.62 123.11 123.24 122.05 122.97 121.00 C 122.69 119.96 121.63 119.34 120.58 119.61 L 119.52 119.89 C 118.48 120.16 117.86 121.23 118.13 122.27 C 118.41 123.31 119.47 123.94 120.52 123.66 Z M 121.72 123.34 L 122.66 123.01 C 123.68 122.66 124.21 121.55 123.86 120.53 C 123.50 119.51 122.39 118.98 121.37 119.33 L 120.44 119.66 C 119.42 120.01 118.88 121.13 119.24 122.14 C 119.59 123.16 120.71 123.70 121.72 123.34 Z M 122.77 122.97 L 123.68 122.59 C 124.68 122.18 125.15 121.03 124.73 120.04 C 124.32 119.04 123.18 118.57 122.18 118.99 L 121.26 119.37 C 120.27 119.79 119.80 120.93 120.21 121.92 C 120.63 122.92 121.77 123.39 122.77 122.97 Z M 123.75 122.56 L 124.67 122.13 C 125.65 121.68 126.07 120.52 125.62 119.54 C 125.17 118.57 124.01 118.14 123.03 118.59 L 122.11 119.02 C 121.13 119.47 120.71 120.63 121.16 121.61 C 121.62 122.59 122.78 123.01 123.75 122.56 Z M 124.71 122.12 L 125.51 121.72 C 126.48 121.25 126.88 120.08 126.41 119.12 C 125.94 118.15 124.77 117.75 123.80 118.22 L 122.99 118.61 C 122.03 119.08 121.62 120.25 122.10 121.22 C 122.57 122.19 123.74 122.59 124.71 122.12 Z M 125.54 121.71 L 126.37 121.29 C 127.32 120.80 127.71 119.63 127.22 118.67 C 126.73 117.71 125.56 117.33 124.60 117.81 L 123.77 118.23 C 122.81 118.72 122.43 119.89 122.92 120.85 C 123.40 121.81 124.58 122.20 125.54 121.71 Z M 126.39 121.28 L 127.27 120.81 C 128.23 120.31 128.59 119.13 128.09 118.18 C 127.59 117.23 126.41 116.86 125.46 117.36 L 124.58 117.83 C 123.62 118.33 123.26 119.51 123.76 120.46 C 124.26 121.41 125.44 121.78 126.39 121.28 Z M 127.30 120.80 L 128.26 120.28 C 129.20 119.76 129.55 118.58 129.04 117.64 C 128.53 116.69 127.34 116.34 126.40 116.85 L 125.44 117.38 C 124.49 117.89 124.14 119.07 124.66 120.02 C 125.17 120.96 126.35 121.31 127.30 120.80 Z M 128.27 120.26 L 129.19 119.75 C 130.13 119.23 130.47 118.05 129.94 117.11 C 129.42 116.17 128.24 115.83 127.30 116.35 L 126.38 116.87 C 125.44 117.39 125.11 118.57 125.63 119.51 C 126.15 120.45 127.34 120.79 128.27 120.26 Z M 129.20 119.74 L 130.05 119.26 C 130.99 118.73 131.32 117.55 130.79 116.61 C 130.26 115.68 129.07 115.35 128.14 115.88 L 127.29 116.36 C 126.35 116.89 126.03 118.08 126.55 119.01 C 127.08 119.95 128.27 120.27 129.20 119.74 Z M 130.07 119.25 L 130.95 118.75 C 131.88 118.21 132.19 117.02 131.66 116.09 C 131.12 115.16 129.94 114.85 129.01 115.38 L 128.13 115.89 C 127.20 116.42 126.88 117.61 127.41 118.54 C 127.95 119.47 129.14 119.79 130.07 119.25 Z M 130.96 118.74 L 131.85 118.21 C 132.77 117.67 133.08 116.48 132.54 115.56 C 132.00 114.64 130.81 114.33 129.89 114.87 L 129.00 115.39 C 128.07 115.93 127.76 117.12 128.30 118.04 C 128.84 118.97 130.03 119.28 130.96 118.74 Z M 131.86 118.21 L 132.74 117.68 C 133.66 117.13 133.96 115.94 133.41 115.02 C 132.87 114.10 131.68 113.80 130.76 114.35 L 129.88 114.88 C 128.96 115.42 128.66 116.61 129.20 117.53 C 129.75 118.45 130.94 118.75 131.86 118.21 Z M 132.76 117.67 L 133.60 117.15 C 134.52 116.60 134.81 115.41 134.25 114.49 C 133.70 113.58 132.50 113.29 131.59 113.85 L 130.74 114.36 C 129.83 114.92 129.54 116.11 130.09 117.02 C 130.65 117.94 131.84 118.23 132.76 117.67 Z M 133.62 117.14 L 134.54 116.57 C 135.44 116.00 135.72 114.81 135.15 113.90 C 134.59 113.00 133.39 112.72 132.49 113.29 L 131.57 113.86 C 130.67 114.42 130.39 115.62 130.96 116.52 C 131.52 117.43 132.72 117.71 133.62 117.14 Z M 134.56 116.55 L 135.45 115.98 C 136.34 115.40 136.60 114.21 136.02 113.31 C 135.45 112.41 134.25 112.16 133.36 112.73 L 132.47 113.31 C 131.57 113.88 131.31 115.08 131.89 115.97 C 132.47 116.87 133.66 117.13 134.56 116.55 Z M 135.47 115.96 L 136.30 115.41 C 137.18 114.82 137.42 113.62 136.83 112.74 C 136.24 111.85 135.05 111.61 134.16 112.20 L 133.34 112.75 C 132.45 113.34 132.21 114.54 132.80 115.42 C 133.39 116.31 134.58 116.55 135.47 115.96 Z M 136.32 115.39 L 137.10 114.85 C 137.97 114.25 138.20 113.05 137.60 112.18 C 136.99 111.30 135.80 111.08 134.92 111.68 L 134.14 112.22 C 133.27 112.82 133.05 114.02 133.65 114.89 C 134.25 115.77 135.44 115.99 136.32 115.39 Z M 137.12 114.83 L 137.87 114.30 C 138.73 113.69 138.94 112.50 138.32 111.63 C 137.71 110.77 136.52 110.56 135.65 111.17 L 134.91 111.70 C 134.04 112.31 133.84 113.51 134.45 114.37 C 135.06 115.24 136.25 115.44 137.12 114.83 Z M 137.88 114.29 L 138.72 113.68 C 139.57 113.06 139.76 111.86 139.14 111.01 C 138.52 110.15 137.33 109.96 136.47 110.58 L 135.64 111.19 C 134.78 111.81 134.59 113.01 135.21 113.86 C 135.83 114.72 137.03 114.91 137.88 114.29 Z M 138.73 113.67 L 139.55 113.06 C 140.40 112.43 140.58 111.24 139.95 110.39 C 139.32 109.54 138.13 109.36 137.28 109.99 L 136.46 110.60 C 135.61 111.23 135.43 112.42 136.06 113.27 C 136.69 114.12 137.89 114.29 138.73 113.67 Z M 139.56 113.05 L 140.35 112.45 C 141.20 111.82 141.36 110.62 140.73 109.78 C 140.10 108.94 138.90 108.77 138.06 109.41 L 137.27 110.00 C 136.43 110.63 136.26 111.83 136.89 112.67 C 137.53 113.51 138.72 113.68 139.56 113.05 Z M 140.36 112.44 L 141.12 111.86 C 141.96 111.23 142.12 110.03 141.49 109.20 C 140.85 108.36 139.66 108.20 138.82 108.83 L 138.06 109.41 C 137.22 110.05 137.06 111.24 137.69 112.08 C 138.33 112.91 139.52 113.08 140.36 112.44 Z M 141.12 111.86 L 141.95 111.23 C 142.78 110.59 142.94 109.40 142.31 108.57 C 141.67 107.74 140.48 107.57 139.65 108.21 L 138.82 108.84 C 137.99 109.47 137.83 110.66 138.46 111.50 C 139.10 112.33 140.29 112.49 141.12 111.86 Z M 141.95 111.22 L 142.76 110.61 C 143.59 109.97 143.75 108.78 143.11 107.95 C 142.47 107.12 141.28 106.96 140.45 107.60 L 139.65 108.22 C 138.81 108.85 138.66 110.04 139.29 110.87 C 139.93 111.70 141.12 111.86 141.95 111.22 Z M 142.76 110.60 L 143.53 110.00 C 144.36 109.36 144.51 108.17 143.87 107.34 C 143.23 106.52 142.04 106.37 141.22 107.01 L 140.45 107.61 C 139.62 108.25 139.47 109.43 140.11 110.26 C 140.75 111.09 141.94 111.24 142.76 110.60 Z M 143.55 109.99 L 144.30 109.39 C 145.12 108.74 145.26 107.55 144.61 106.73 C 143.97 105.91 142.78 105.78 141.96 106.42 L 141.20 107.02 C 140.38 107.67 140.25 108.86 140.89 109.68 C 141.54 110.49 142.73 110.63 143.55 109.99 Z M 144.33 109.37 L 145.10 108.73 C 145.91 108.08 146.03 106.88 145.38 106.08 C 144.72 105.27 143.53 105.15 142.72 105.81 L 141.94 106.44 C 141.13 107.10 141.01 108.29 141.67 109.10 C 142.33 109.91 143.52 110.03 144.33 109.37 Z M 145.14 108.71 L 145.89 108.07 C 146.69 107.39 146.78 106.20 146.11 105.40 C 145.43 104.61 144.24 104.51 143.44 105.19 L 142.68 105.83 C 141.89 106.51 141.79 107.70 142.47 108.50 C 143.15 109.29 144.34 109.39 145.14 108.71 Z M 145.93 108.04 L 146.69 107.36 C 147.47 106.66 147.54 105.46 146.84 104.68 C 146.14 103.90 144.94 103.84 144.16 104.53 L 143.40 105.22 C 142.62 105.91 142.56 107.11 143.25 107.89 C 143.95 108.67 145.15 108.74 145.93 108.04 Z M 146.74 107.34 L 147.71 106.43 C 148.48 105.70 148.52 104.49 147.80 103.72 C 147.07 102.95 145.86 102.91 145.09 103.64 L 144.12 104.55 C 143.35 105.28 143.31 106.49 144.03 107.26 C 144.75 108.03 145.97 108.07 146.74 107.34 Z M 147.70 106.48 L 148.30 105.95 C 149.10 105.23 149.17 104.00 148.46 103.20 C 147.74 102.40 146.51 102.33 145.71 103.04 L 145.11 103.58 C 144.31 104.29 144.24 105.52 144.95 106.32 C 145.66 107.13 146.89 107.20 147.70 106.48 Z M 145.16 103.80 L 145.06 104.07 C 144.68 105.09 145.19 106.22 146.21 106.60 C 147.22 106.99 148.36 106.47 148.74 105.46 L 148.84 105.19 C 149.22 104.17 148.71 103.04 147.70 102.66 C 146.68 102.27 145.55 102.79 145.16 103.80 Z M 145.23 103.73 L 144.59 104.76 C 144.02 105.68 144.30 106.90 145.23 107.47 C 146.15 108.04 147.36 107.76 147.94 106.83 L 148.58 105.80 C 149.15 104.88 148.86 103.66 147.94 103.09 C 147.01 102.52 145.80 102.80 145.23 103.73 Z M 144.50 104.91 L 144.01 105.89 C 143.52 106.86 143.91 108.05 144.89 108.54 C 145.86 109.03 147.04 108.63 147.53 107.66 L 148.02 106.68 C 148.51 105.71 148.12 104.52 147.15 104.04 C 146.18 103.55 144.99 103.94 144.50 104.91 Z M 143.94 106.05 L 143.59 106.93 C 143.18 107.95 143.68 109.09 144.69 109.49 C 145.70 109.90 146.85 109.40 147.25 108.39 L 147.60 107.50 C 148.00 106.49 147.51 105.35 146.50 104.94 C 145.48 104.54 144.34 105.04 143.94 106.05 Z M 143.55 107.03 L 143.22 107.99 C 142.87 109.03 143.43 110.15 144.46 110.50 C 145.49 110.85 146.61 110.29 146.96 109.26 L 147.29 108.29 C 147.64 107.26 147.09 106.14 146.05 105.79 C 145.02 105.44 143.90 106.00 143.55 107.03 Z M 143.20 108.04 L 142.88 109.08 C 142.56 110.12 143.14 111.23 144.18 111.55 C 145.23 111.87 146.33 111.29 146.66 110.25 L 146.98 109.21 C 147.30 108.17 146.72 107.06 145.68 106.74 C 144.64 106.42 143.53 107.00 143.20 108.04 Z M 142.88 109.09 L 142.60 110.03 C 142.28 111.07 142.87 112.18 143.92 112.49 C 144.96 112.81 146.07 112.22 146.38 111.17 L 146.66 110.24 C 146.98 109.19 146.39 108.09 145.34 107.77 C 144.30 107.46 143.19 108.05 142.88 109.09 Z M 142.59 110.03 L 142.30 111.00 C 141.99 112.05 142.59 113.15 143.63 113.46 C 144.68 113.78 145.78 113.18 146.09 112.13 L 146.38 111.16 C 146.70 110.12 146.10 109.02 145.05 108.70 C 144.01 108.39 142.90 108.99 142.59 110.03 Z M 142.30 111.01 L 142.01 111.98 C 141.70 113.03 142.30 114.13 143.35 114.44 C 144.40 114.75 145.50 114.16 145.81 113.11 L 146.10 112.13 C 146.41 111.08 145.81 109.98 144.76 109.67 C 143.71 109.36 142.61 109.96 142.30 111.01 Z M 142.01 111.99 L 141.73 112.95 C 141.42 114.00 142.02 115.10 143.07 115.41 C 144.11 115.71 145.21 115.12 145.52 114.07 L 145.81 113.11 C 146.12 112.06 145.52 110.96 144.47 110.65 C 143.42 110.34 142.32 110.94 142.01 111.99 Z M 141.73 112.95 L 141.43 113.96 C 141.12 115.01 141.72 116.11 142.77 116.42 C 143.82 116.73 144.92 116.13 145.23 115.08 L 145.52 114.07 C 145.83 113.02 145.23 111.92 144.19 111.61 C 143.14 111.30 142.04 111.90 141.73 112.95 Z M 141.43 113.96 L 141.14 114.95 C 140.83 116.00 141.43 117.10 142.48 117.41 C 143.53 117.71 144.63 117.11 144.94 116.06 L 145.23 115.08 C 145.54 114.03 144.93 112.93 143.88 112.62 C 142.84 112.31 141.73 112.91 141.43 113.96 Z M 141.13 114.96 L 140.86 115.90 C 140.56 116.95 141.17 118.05 142.22 118.35 C 143.27 118.65 144.37 118.05 144.67 117.00 L 144.94 116.06 C 145.24 115.00 144.64 113.91 143.59 113.60 C 142.54 113.30 141.44 113.91 141.13 114.96 Z M 140.86 115.91 L 140.61 116.81 C 140.31 117.87 140.92 118.96 141.98 119.26 C 143.03 119.55 144.12 118.94 144.42 117.88 L 144.67 116.98 C 144.97 115.93 144.35 114.83 143.30 114.54 C 142.25 114.24 141.15 114.86 140.86 115.91 Z M 140.60 116.83 L 140.34 117.80 C 140.06 118.85 140.68 119.94 141.74 120.23 C 142.80 120.51 143.88 119.88 144.17 118.83 L 144.43 117.86 C 144.71 116.81 144.08 115.72 143.03 115.44 C 141.97 115.15 140.88 115.78 140.60 116.83 Z M 140.33 117.82 L 140.09 118.77 C 139.81 119.83 140.45 120.92 141.51 121.19 C 142.57 121.46 143.65 120.83 143.93 119.77 L 144.17 118.81 C 144.45 117.75 143.81 116.67 142.75 116.39 C 141.69 116.12 140.61 116.76 140.33 117.82 Z M 140.08 118.78 L 139.84 119.75 C 139.57 120.81 140.21 121.89 141.28 122.16 C 142.34 122.43 143.42 121.78 143.68 120.72 L 143.93 119.75 C 144.20 118.69 143.55 117.62 142.49 117.35 C 141.43 117.08 140.35 117.72 140.08 118.78 Z M 139.84 119.76 L 139.61 120.67 C 139.34 121.73 139.99 122.81 141.05 123.07 C 142.12 123.34 143.19 122.69 143.46 121.63 L 143.69 120.72 C 143.95 119.66 143.31 118.58 142.24 118.31 C 141.18 118.05 140.10 118.69 139.84 119.76 Z M 139.61 120.67 L 139.39 121.54 C 139.13 122.60 139.78 123.68 140.84 123.94 C 141.90 124.21 142.98 123.56 143.24 122.50 L 143.46 121.63 C 143.72 120.57 143.08 119.49 142.01 119.23 C 140.95 118.96 139.87 119.61 139.61 120.67 Z M 139.39 121.55 L 139.16 122.49 C 138.90 123.55 139.55 124.63 140.61 124.89 C 141.68 125.15 142.75 124.50 143.01 123.44 L 143.24 122.49 C 143.51 121.43 142.86 120.35 141.79 120.09 C 140.73 119.83 139.65 120.48 139.39 121.55 Z M 139.16 122.49 L 138.90 123.54 C 138.65 124.60 139.30 125.68 140.37 125.93 C 141.43 126.19 142.50 125.54 142.76 124.47 L 143.01 123.43 C 143.27 122.36 142.62 121.29 141.55 121.03 C 140.49 120.77 139.41 121.43 139.16 122.49 Z M 138.90 123.55 L 138.65 124.62 C 138.39 125.69 139.05 126.76 140.12 127.01 C 141.18 127.27 142.26 126.61 142.51 125.54 L 142.76 124.46 C 143.02 123.40 142.36 122.33 141.29 122.07 C 140.23 121.82 139.16 122.48 138.90 123.55 Z M 138.64 124.63 L 138.43 125.56 C 138.18 126.63 138.84 127.70 139.91 127.95 C 140.97 128.20 142.04 127.53 142.29 126.47 L 142.51 125.53 C 142.76 124.46 142.10 123.40 141.03 123.15 C 139.96 122.90 138.89 123.56 138.64 124.63 Z M 138.42 125.57 L 138.20 126.55 C 137.95 127.62 138.62 128.69 139.69 128.93 C 140.75 129.18 141.82 128.51 142.07 127.44 L 142.29 126.46 C 142.54 125.39 141.87 124.33 140.80 124.08 C 139.74 123.83 138.67 124.50 138.42 125.57 Z M 138.19 126.56 L 137.97 127.57 C 137.72 128.64 138.40 129.70 139.46 129.94 C 140.53 130.18 141.60 129.51 141.84 128.44 L 142.07 127.44 C 142.31 126.37 141.64 125.30 140.57 125.06 C 139.50 124.82 138.44 125.49 138.19 126.56 Z M 137.96 127.58 L 137.74 128.58 C 137.50 129.65 138.18 130.71 139.25 130.95 C 140.32 131.19 141.38 130.51 141.62 129.44 L 141.84 128.44 C 142.08 127.36 141.41 126.30 140.33 126.07 C 139.26 125.83 138.20 126.50 137.96 127.58 Z M 137.74 128.59 L 137.53 129.57 C 137.29 130.65 137.98 131.70 139.05 131.94 C 140.12 132.17 141.18 131.49 141.41 130.41 L 141.62 129.43 C 141.85 128.36 141.17 127.30 140.10 127.07 C 139.03 126.84 137.97 127.52 137.74 128.59 Z M 137.52 129.59 L 137.31 130.62 C 137.08 131.69 137.77 132.74 138.85 132.97 C 139.92 133.19 140.97 132.50 141.20 131.43 L 141.41 130.40 C 141.64 129.33 140.95 128.27 139.87 128.05 C 138.80 127.83 137.75 128.51 137.52 129.59 Z M 137.31 130.63 L 137.10 131.66 C 136.88 132.74 137.58 133.79 138.66 134.00 C 139.73 134.22 140.78 133.52 141.00 132.44 L 141.20 131.41 C 141.42 130.34 140.72 129.29 139.64 129.07 C 138.57 128.86 137.52 129.56 137.31 130.63 Z M 137.10 131.68 L 136.91 132.66 C 136.70 133.74 137.41 134.78 138.49 134.98 C 139.56 135.19 140.60 134.48 140.81 133.40 L 141.00 132.43 C 141.20 131.35 140.50 130.31 139.42 130.10 C 138.34 129.90 137.30 130.60 137.10 131.68 Z M 136.91 132.67 L 136.73 133.62 C 136.53 134.69 137.25 135.73 138.33 135.93 C 139.40 136.13 140.44 135.41 140.64 134.34 L 140.81 133.39 C 141.01 132.31 140.30 131.28 139.22 131.08 C 138.14 130.88 137.10 131.59 136.91 132.67 Z M 136.73 133.63 L 136.56 134.56 C 136.37 135.64 137.09 136.67 138.17 136.86 C 139.25 137.05 140.28 136.34 140.48 135.26 L 140.64 134.33 C 140.83 133.25 140.12 132.21 139.04 132.02 C 137.96 131.83 136.92 132.55 136.73 133.63 Z M 136.56 134.56 L 136.39 135.54 C 136.20 136.62 136.92 137.65 138.00 137.84 C 139.08 138.03 140.11 137.30 140.30 136.22 L 140.48 135.25 C 140.67 134.17 139.94 133.14 138.86 132.95 C 137.78 132.76 136.75 133.48 136.56 134.56 Z M 136.39 135.54 L 136.22 136.54 C 136.03 137.62 136.76 138.65 137.84 138.83 C 138.92 139.02 139.95 138.29 140.13 137.21 L 140.31 136.22 C 140.49 135.14 139.77 134.11 138.69 133.92 C 137.60 133.73 136.58 134.46 136.39 135.54 Z M 136.22 136.55 L 136.05 137.54 C 135.87 138.62 136.60 139.65 137.68 139.83 C 138.76 140.01 139.79 139.28 139.97 138.20 L 140.14 137.20 C 140.32 136.12 139.59 135.10 138.51 134.92 C 137.42 134.73 136.40 135.46 136.22 136.55 Z M 136.05 137.55 L 135.89 138.53 C 135.71 139.62 136.45 140.64 137.53 140.81 C 138.62 140.99 139.64 140.25 139.81 139.17 L 139.97 138.19 C 140.15 137.10 139.41 136.08 138.33 135.91 C 137.24 135.73 136.22 136.47 136.05 137.55 Z M 135.89 138.55 L 135.73 139.53 C 135.57 140.61 136.31 141.63 137.40 141.79 C 138.48 141.96 139.49 141.22 139.66 140.13 L 139.81 139.16 C 139.98 138.07 139.24 137.06 138.15 136.89 C 137.07 136.72 136.05 137.46 135.89 138.55 Z M 135.73 139.55 L 135.58 140.57 C 135.43 141.66 136.18 142.67 137.27 142.82 C 138.35 142.98 139.36 142.23 139.52 141.14 L 139.67 140.11 C 139.82 139.03 139.07 138.02 137.98 137.86 C 136.90 137.71 135.89 138.46 135.73 139.55 Z M 135.58 140.59 L 135.45 141.59 C 135.30 142.68 136.07 143.68 137.15 143.83 C 138.24 143.97 139.24 143.21 139.39 142.12 L 139.52 141.12 C 139.67 140.03 138.90 139.03 137.81 138.89 C 136.72 138.74 135.73 139.51 135.58 140.59 Z M 135.44 141.62 L 135.33 142.59 C 135.19 143.68 135.97 144.67 137.06 144.81 C 138.15 144.94 139.14 144.16 139.27 143.07 L 139.39 142.09 C 139.52 141.01 138.75 140.01 137.66 139.88 C 136.57 139.75 135.58 140.53 135.44 141.62 Z M 135.32 142.62 L 135.22 143.58 C 135.10 144.67 135.89 145.65 136.98 145.77 C 138.07 145.89 139.05 145.10 139.17 144.00 L 139.27 143.05 C 139.39 141.95 138.60 140.97 137.51 140.86 C 136.42 140.74 135.44 141.53 135.32 142.62 Z M 135.22 143.61 L 135.13 144.55 C 135.03 145.64 135.83 146.61 136.92 146.71 C 138.02 146.81 138.99 146.01 139.09 144.92 L 139.17 143.98 C 139.28 142.88 138.47 141.91 137.38 141.81 C 136.29 141.71 135.32 142.52 135.22 143.61 Z M 135.13 144.58 L 135.05 145.54 C 134.97 146.63 135.79 147.59 136.88 147.67 C 137.98 147.75 138.93 146.93 139.02 145.84 L 139.09 144.89 C 139.17 143.79 138.35 142.84 137.26 142.75 C 136.16 142.67 135.21 143.49 135.13 144.58 Z M 135.05 145.57 L 134.99 146.57 C 134.93 147.67 135.77 148.61 136.86 148.67 C 137.96 148.73 138.90 147.90 138.96 146.80 L 139.02 145.80 C 139.08 144.71 138.25 143.77 137.15 143.71 C 136.05 143.64 135.11 144.48 135.05 145.57 Z M 134.99 146.61 L 134.95 147.67 C 134.91 148.77 135.76 149.69 136.86 149.74 C 137.95 149.78 138.88 148.93 138.92 147.83 L 138.96 146.76 C 139.01 145.67 138.15 144.74 137.06 144.70 C 135.96 144.66 135.04 145.51 134.99 146.61 Z M 134.95 147.70 L 134.92 148.72 C 134.90 149.82 135.76 150.73 136.86 150.76 C 137.96 150.79 138.87 149.92 138.90 148.82 L 138.92 147.80 C 138.95 146.70 138.08 145.79 136.98 145.76 C 135.89 145.74 134.98 146.60 134.95 147.70 Z M 134.92 148.74 L 134.91 149.77 C 134.89 150.87 135.77 151.77 136.87 151.79 C 137.96 151.80 138.87 150.93 138.88 149.83 L 138.90 148.80 C 138.91 147.70 138.04 146.80 136.94 146.79 C 135.84 146.77 134.94 147.65 134.92 148.74 Z M 134.91 149.79 L 134.90 150.82 C 134.89 151.92 135.77 152.82 136.87 152.83 C 137.97 152.84 138.87 151.95 138.87 150.86 L 138.88 149.82 C 138.89 148.72 138.01 147.82 136.91 147.81 C 135.81 147.80 134.92 148.69 134.91 149.79 Z M 134.90 150.83 L 134.90 151.85 C 134.89 152.94 135.78 153.84 136.88 153.84 C 137.97 153.84 138.87 152.96 138.87 151.86 L 138.87 150.85 C 138.88 149.75 137.99 148.86 136.89 148.85 C 135.80 148.85 134.90 149.74 134.90 150.83 Z M 134.90 151.85 L 134.90 152.80 C 134.89 153.90 135.78 154.79 136.88 154.79 C 137.98 154.79 138.87 153.90 138.87 152.80 L 138.87 151.85 C 138.87 150.76 137.98 149.87 136.88 149.87 C 135.79 149.86 134.90 150.75 134.90 151.85 Z M 134.90 152.80 L 134.90 153.87 C 134.90 154.97 135.79 155.86 136.89 155.86 C 137.98 155.86 138.87 154.97 138.87 153.87 L 138.87 152.80 C 138.87 151.70 137.98 150.81 136.88 150.81 C 135.78 150.82 134.89 151.71 134.90 152.80 Z M 134.90 153.90 L 134.91 154.90 C 134.93 156.00 135.84 156.88 136.93 156.86 C 138.03 156.84 138.91 155.94 138.89 154.84 L 138.87 153.84 C 138.85 152.74 137.95 151.87 136.85 151.88 C 135.75 151.90 134.88 152.81 134.90 153.90 Z M 134.92 154.97 L 134.96 155.92 C 135.02 157.01 135.96 157.85 137.05 157.80 C 138.15 157.74 138.99 156.80 138.93 155.71 L 138.88 154.77 C 138.83 153.67 137.89 152.83 136.80 152.89 C 135.70 152.94 134.86 153.88 134.92 154.97 Z M 134.97 156.02 L 135.07 156.97 C 135.19 158.06 136.16 158.85 137.25 158.74 C 138.35 158.62 139.14 157.65 139.02 156.56 L 138.93 155.61 C 138.81 154.51 137.83 153.72 136.74 153.84 C 135.65 153.95 134.86 154.93 134.97 156.02 Z M 135.09 157.08 L 135.23 157.99 C 135.41 159.08 136.42 159.81 137.51 159.64 C 138.59 159.47 139.33 158.45 139.16 157.37 L 139.01 156.45 C 138.84 155.37 137.82 154.63 136.74 154.80 C 135.65 154.97 134.91 155.99 135.09 157.08 Z M 135.25 158.10 L 135.46 159.07 C 135.70 160.14 136.76 160.82 137.83 160.58 C 138.90 160.35 139.58 159.29 139.35 158.22 L 139.14 157.25 C 138.90 156.18 137.84 155.50 136.77 155.74 C 135.70 155.97 135.02 157.03 135.25 158.10 Z M 135.50 159.19 L 135.78 160.18 C 136.08 161.23 137.18 161.84 138.24 161.54 C 139.29 161.24 139.90 160.14 139.60 159.08 L 139.31 158.09 C 139.01 157.04 137.91 156.43 136.86 156.73 C 135.80 157.03 135.19 158.14 135.50 159.19 Z M 135.82 160.32 L 136.19 161.31 C 136.57 162.34 137.71 162.87 138.74 162.49 C 139.77 162.11 140.30 160.97 139.92 159.94 L 139.55 158.95 C 139.17 157.92 138.03 157.39 137.00 157.77 C 135.97 158.15 135.45 159.29 135.82 160.32 Z M 136.25 161.46 L 136.68 162.39 C 137.14 163.38 138.32 163.82 139.31 163.36 C 140.31 162.90 140.74 161.72 140.29 160.73 L 139.86 159.80 C 139.40 158.80 138.22 158.37 137.23 158.82 C 136.23 159.28 135.79 160.46 136.25 161.46 Z M 136.74 162.51 L 137.23 163.41 C 137.76 164.37 138.97 164.72 139.93 164.19 C 140.89 163.67 141.24 162.46 140.71 161.50 L 140.22 160.60 C 139.70 159.64 138.49 159.29 137.53 159.81 C 136.57 160.34 136.21 161.55 136.74 162.51 Z M 137.30 163.51 L 137.84 164.37 C 138.42 165.29 139.65 165.57 140.57 164.98 C 141.50 164.39 141.78 163.17 141.19 162.24 L 140.65 161.39 C 140.06 160.46 138.84 160.19 137.91 160.78 C 136.99 161.36 136.71 162.59 137.30 163.51 Z M 137.90 164.46 L 138.48 165.26 C 139.12 166.14 140.36 166.35 141.24 165.71 C 142.13 165.07 142.33 163.83 141.69 162.94 L 141.12 162.14 C 140.48 161.26 139.24 161.05 138.35 161.69 C 137.46 162.34 137.26 163.57 137.90 164.46 Z M 138.55 165.35 L 139.20 166.14 C 139.90 166.99 141.15 167.11 141.99 166.42 C 142.84 165.72 142.96 164.47 142.26 163.63 L 141.62 162.84 C 140.92 161.99 139.67 161.87 138.83 162.57 C 137.98 163.26 137.86 164.51 138.55 165.35 Z M 139.30 166.25 L 140.02 167.00 C 140.77 167.79 142.02 167.82 142.81 167.07 C 143.60 166.31 143.63 165.06 142.88 164.27 L 142.17 163.52 C 141.41 162.73 140.16 162.70 139.37 163.45 C 138.58 164.21 138.55 165.46 139.30 166.25 Z M 140.13 167.11 L 140.87 167.76 C 141.68 168.49 142.93 168.41 143.65 167.60 C 144.38 166.79 144.31 165.54 143.49 164.81 L 142.76 164.16 C 141.95 163.44 140.70 163.51 139.97 164.32 C 139.25 165.14 139.32 166.38 140.13 167.11 Z M 140.99 167.86 L 141.75 168.43 C 142.62 169.08 143.85 168.91 144.51 168.04 C 145.16 167.17 144.99 165.94 144.12 165.28 L 143.36 164.71 C 142.50 164.06 141.26 164.23 140.61 165.10 C 139.95 165.97 140.13 167.21 140.99 167.86 Z M 141.88 168.52 L 142.68 169.02 C 143.59 169.60 144.81 169.33 145.39 168.41 C 145.97 167.50 145.70 166.28 144.78 165.70 L 143.99 165.20 C 143.07 164.62 141.86 164.89 141.28 165.80 C 140.69 166.72 140.97 167.93 141.88 168.52 Z M 142.81 169.09 L 143.66 169.54 C 144.62 170.05 145.80 169.68 146.31 168.72 C 146.81 167.77 146.45 166.58 145.49 166.08 L 144.64 165.63 C 143.69 165.12 142.50 165.49 142.00 166.44 C 141.49 167.40 141.86 168.59 142.81 169.09 Z M 143.79 169.60 L 144.72 170.01 C 145.70 170.44 146.86 169.99 147.29 169.01 C 147.73 168.02 147.28 166.87 146.29 166.43 L 145.36 166.02 C 144.38 165.59 143.22 166.03 142.79 167.02 C 142.35 168.01 142.80 169.16 143.79 169.60 Z M 144.82 170.04 L 145.82 170.41 C 146.83 170.79 147.95 170.28 148.32 169.27 C 148.70 168.26 148.19 167.14 147.18 166.77 L 146.19 166.39 C 145.18 166.02 144.06 166.53 143.68 167.54 C 143.30 168.54 143.82 169.67 144.82 170.04 Z M 145.90 170.44 L 146.82 170.74 C 147.84 171.07 148.94 170.52 149.27 169.50 C 149.60 168.48 149.05 167.38 148.03 167.05 L 147.10 166.74 C 146.08 166.41 144.99 166.97 144.65 167.99 C 144.32 169.00 144.88 170.10 145.90 170.44 Z M 146.88 170.75 L 147.86 171.04 C 148.89 171.33 149.96 170.74 150.26 169.71 C 150.56 168.68 149.96 167.61 148.94 167.31 L 147.96 167.03 C 146.93 166.73 145.86 167.32 145.56 168.35 C 145.26 169.38 145.86 170.46 146.88 170.75 Z M 147.93 171.05 L 148.92 171.30 C 149.96 171.56 151.01 170.93 151.27 169.89 C 151.53 168.86 150.90 167.81 149.86 167.55 L 148.87 167.30 C 147.83 167.04 146.78 167.67 146.52 168.70 C 146.26 169.74 146.89 170.79 147.93 171.05 Z M 149.00 171.31 L 149.98 171.52 C 151.03 171.74 152.05 171.07 152.27 170.02 C 152.49 168.98 151.82 167.95 150.77 167.74 L 149.78 167.53 C 148.74 167.31 147.72 167.99 147.50 169.03 C 147.28 170.07 147.95 171.10 149.00 171.31 Z M 150.08 171.53 L 151.13 171.70 C 152.18 171.86 153.17 171.14 153.33 170.09 C 153.50 169.04 152.78 168.05 151.72 167.89 L 150.67 167.72 C 149.62 167.56 148.64 168.28 148.47 169.33 C 148.31 170.38 149.03 171.37 150.08 171.53 Z M 151.23 171.71 L 152.26 171.81 C 153.32 171.92 154.27 171.15 154.38 170.09 C 154.48 169.03 153.71 168.09 152.66 167.98 L 151.62 167.88 C 150.57 167.77 149.62 168.54 149.51 169.60 C 149.40 170.65 150.17 171.60 151.23 171.71 Z M 152.35 171.82 L 153.33 171.87 C 154.39 171.94 155.30 171.13 155.36 170.07 C 155.42 169.01 154.61 168.10 153.55 168.04 L 152.57 167.98 C 151.51 167.92 150.60 168.72 150.54 169.78 C 150.48 170.84 151.29 171.75 152.35 171.82 Z M 153.38 171.87 L 154.31 171.90 C 155.37 171.93 156.26 171.10 156.29 170.04 C 156.32 168.98 155.49 168.10 154.43 168.06 L 153.50 168.04 C 152.44 168.00 151.55 168.84 151.52 169.90 C 151.49 170.96 152.32 171.84 153.38 171.87 Z M 154.34 171.90 L 155.35 171.91 C 156.41 171.93 157.28 171.09 157.30 170.03 C 157.31 168.97 156.47 168.10 155.41 168.08 L 154.40 168.07 C 153.34 168.05 152.47 168.89 152.45 169.95 C 152.44 171.01 153.28 171.88 154.34 171.90 Z M 155.37 171.91 L 156.37 171.91 C 157.43 171.92 158.29 171.07 158.29 170.01 C 158.30 168.95 157.45 168.10 156.39 168.09 L 155.39 168.09 C 154.33 168.08 153.48 168.93 153.47 169.99 C 153.47 171.05 154.32 171.91 155.37 171.91 Z M 156.40 171.91 L 157.38 171.90 C 158.43 171.89 159.28 171.03 159.27 169.98 C 159.26 168.93 158.40 168.08 157.35 168.09 L 156.37 168.10 C 155.31 168.10 154.47 168.96 154.48 170.02 C 154.48 171.07 155.34 171.92 156.40 171.91 Z M 157.40 171.90 L 158.38 171.88 C 159.43 171.86 160.27 170.99 160.25 169.93 C 160.22 168.88 159.36 168.05 158.30 168.07 L 157.32 168.09 C 156.27 168.11 155.44 168.98 155.46 170.03 C 155.48 171.08 156.35 171.92 157.40 171.90 Z M 158.43 171.87 L 159.42 171.83 C 160.47 171.78 161.28 170.89 161.23 169.85 C 161.19 168.80 160.30 167.99 159.25 168.03 L 158.26 168.08 C 157.21 168.12 156.40 169.01 156.45 170.06 C 156.49 171.11 157.38 171.92 158.43 171.87 Z M 159.50 171.82 L 160.50 171.73 C 161.54 171.64 162.31 170.72 162.22 169.67 C 162.13 168.63 161.21 167.86 160.17 167.96 L 159.17 168.04 C 158.13 168.14 157.36 169.06 157.45 170.10 C 157.54 171.14 158.46 171.91 159.50 171.82 Z M 160.62 171.71 L 161.60 171.56 C 162.63 171.40 163.34 170.43 163.18 169.40 C 163.02 168.37 162.06 167.66 161.03 167.82 L 160.05 167.97 C 159.02 168.13 158.31 169.10 158.47 170.13 C 158.63 171.16 159.59 171.87 160.62 171.71 Z M 161.74 171.53 L 162.62 171.32 C 163.64 171.09 164.27 170.08 164.04 169.06 C 163.81 168.05 162.79 167.42 161.78 167.65 L 160.89 167.85 C 159.88 168.09 159.24 169.10 159.48 170.11 C 159.71 171.13 160.72 171.76 161.74 171.53 Z M 162.74 171.29 L 163.66 171.02 C 164.66 170.72 165.23 169.67 164.93 168.67 C 164.63 167.68 163.59 167.11 162.59 167.41 L 161.66 167.68 C 160.67 167.98 160.10 169.03 160.40 170.02 C 160.69 171.02 161.74 171.59 162.74 171.29 Z M 163.75 170.98 L 164.75 170.63 C 165.73 170.29 166.24 169.21 165.89 168.23 C 165.55 167.26 164.48 166.74 163.50 167.09 L 162.50 167.44 C 161.52 167.78 161.01 168.86 161.35 169.84 C 161.70 170.82 162.77 171.33 163.75 170.98 Z M 164.81 170.61 L 165.80 170.22 C 166.77 169.84 167.24 168.75 166.86 167.78 C 166.49 166.82 165.40 166.34 164.43 166.72 L 163.44 167.11 C 162.47 167.49 161.99 168.58 162.37 169.55 C 162.75 170.51 163.84 170.99 164.81 170.61 Z M 165.84 170.20 L 166.76 169.82 C 167.72 169.41 168.17 168.32 167.77 167.36 C 167.37 166.40 166.27 165.95 165.31 166.35 L 164.39 166.74 C 163.44 167.14 162.99 168.24 163.39 169.19 C 163.79 170.15 164.89 170.60 165.84 170.20 Z M 166.79 169.80 L 167.74 169.38 C 168.68 168.97 169.11 167.86 168.70 166.91 C 168.28 165.96 167.17 165.53 166.22 165.95 L 165.28 166.37 C 164.33 166.79 163.90 167.89 164.32 168.84 C 164.74 169.79 165.85 170.22 166.79 169.80 Z M 167.77 169.37 L 168.70 168.93 C 169.64 168.50 170.05 167.38 169.61 166.44 C 169.18 165.51 168.06 165.10 167.12 165.54 L 166.19 165.97 C 165.25 166.41 164.85 167.52 165.28 168.46 C 165.72 169.40 166.83 169.80 167.77 169.37 Z M 168.74 168.91 L 169.63 168.48 C 170.55 168.02 170.94 166.90 170.48 165.97 C 170.02 165.04 168.90 164.66 167.97 165.12 L 167.08 165.55 C 166.16 166.01 165.78 167.13 166.23 168.06 C 166.69 168.99 167.81 169.37 168.74 168.91 Z M 169.68 168.45 L 170.58 167.97 C 171.49 167.48 171.84 166.35 171.35 165.44 C 170.87 164.53 169.73 164.18 168.82 164.67 L 167.92 165.15 C 167.01 165.63 166.66 166.76 167.15 167.68 C 167.63 168.59 168.77 168.93 169.68 168.45 Z M 170.65 167.93 L 171.51 167.42 C 172.40 166.90 172.70 165.75 172.18 164.86 C 171.66 163.97 170.51 163.67 169.62 164.20 L 168.76 164.70 C 167.87 165.23 167.57 166.37 168.09 167.26 C 168.61 168.15 169.76 168.45 170.65 167.93 Z M 171.58 167.38 L 172.39 166.86 C 173.25 166.30 173.50 165.14 172.95 164.28 C 172.39 163.41 171.23 163.16 170.37 163.72 L 169.56 164.24 C 168.69 164.80 168.44 165.95 169.00 166.82 C 169.56 167.69 170.71 167.94 171.58 167.38 Z M 172.44 166.82 L 173.24 166.26 C 174.09 165.68 174.30 164.52 173.71 163.67 C 173.13 162.82 171.97 162.61 171.12 163.20 L 170.32 163.76 C 169.47 164.34 169.26 165.50 169.84 166.35 C 170.43 167.20 171.59 167.41 172.44 166.82 Z M 173.27 166.24 L 174.03 165.69 C 174.86 165.09 175.05 163.92 174.45 163.09 C 173.85 162.26 172.68 162.07 171.85 162.67 L 171.09 163.22 C 170.26 163.82 170.07 164.99 170.67 165.82 C 171.27 166.66 172.44 166.84 173.27 166.24 Z M 174.05 165.67 L 174.81 165.11 C 175.63 164.49 175.80 163.33 175.19 162.50 C 174.57 161.68 173.40 161.51 172.58 162.13 L 171.82 162.69 C 171.00 163.31 170.83 164.47 171.45 165.30 C 172.06 166.12 173.23 166.29 174.05 165.67 Z M 174.84 165.09 L 175.63 164.47 C 176.44 163.84 176.58 162.67 175.95 161.86 C 175.32 161.05 174.15 160.90 173.34 161.54 L 172.55 162.15 C 171.74 162.78 171.59 163.95 172.23 164.76 C 172.86 165.57 174.03 165.72 174.84 165.09 Z M 175.66 164.44 L 176.47 163.78 C 177.26 163.13 177.38 161.96 176.73 161.16 C 176.08 160.37 174.90 160.25 174.11 160.90 L 173.30 161.56 C 172.51 162.22 172.39 163.39 173.04 164.18 C 173.69 164.98 174.87 165.10 175.66 164.44 Z M 176.51 163.75 L 177.33 163.04 C 178.10 162.37 178.19 161.19 177.51 160.41 C 176.84 159.64 175.66 159.55 174.89 160.23 L 174.07 160.94 C 173.29 161.61 173.21 162.79 173.88 163.56 C 174.56 164.34 175.73 164.42 176.51 163.75 Z M 177.37 163.00 L 178.11 162.32 C 178.87 161.62 178.92 160.44 178.22 159.69 C 177.52 158.93 176.34 158.88 175.59 159.58 L 174.85 160.26 C 174.09 160.96 174.04 162.14 174.74 162.90 C 175.43 163.65 176.61 163.70 177.37 163.00 Z M 178.15 162.28 L 178.88 161.57 C 179.62 160.85 179.63 159.67 178.91 158.94 C 178.19 158.20 177.02 158.19 176.28 158.90 L 175.55 159.62 C 174.81 160.33 174.80 161.51 175.52 162.25 C 176.24 162.99 177.41 163.00 178.15 162.28 Z M 178.92 161.53 L 179.62 160.80 C 180.34 160.06 180.32 158.88 179.58 158.17 C 178.84 157.45 177.66 157.47 176.95 158.21 L 176.24 158.94 C 175.53 159.68 175.55 160.86 176.29 161.58 C 177.02 162.29 178.20 162.27 178.92 161.53 Z M 179.66 160.76 L 180.34 160.02 C 181.03 159.26 180.97 158.08 180.21 157.39 C 179.45 156.70 178.28 156.75 177.58 157.51 L 176.91 158.25 C 176.22 159.01 176.27 160.19 177.03 160.88 C 177.79 161.57 178.97 161.52 179.66 160.76 Z M 180.38 159.97 L 181.01 159.24 C 181.67 158.45 181.58 157.28 180.80 156.61 C 180.01 155.95 178.84 156.04 178.17 156.82 L 177.54 157.56 C 176.88 158.34 176.97 159.52 177.75 160.18 C 178.54 160.85 179.71 160.76 180.38 159.97 Z M 181.05 159.18 L 181.71 158.34 C 182.34 157.53 182.20 156.36 181.39 155.73 C 180.58 155.10 179.41 155.24 178.78 156.05 L 178.12 156.88 C 177.49 157.69 177.63 158.86 178.44 159.49 C 179.25 160.13 180.42 159.99 181.05 159.18 Z M 181.76 158.27 L 182.36 157.42 C 182.95 156.59 182.76 155.43 181.92 154.83 C 181.08 154.24 179.92 154.43 179.33 155.27 L 178.73 156.12 C 178.13 156.96 178.33 158.12 179.17 158.71 C 180.00 159.31 181.16 159.11 181.76 158.27 Z M 182.41 157.35 L 182.94 156.52 C 183.49 155.65 183.24 154.50 182.38 153.95 C 181.51 153.40 180.36 153.65 179.81 154.52 L 179.28 155.35 C 178.73 156.21 178.98 157.36 179.84 157.91 C 180.71 158.46 181.86 158.21 182.41 157.35 Z M 182.99 156.44 L 183.46 155.62 C 183.97 154.73 183.66 153.60 182.77 153.09 C 181.88 152.58 180.75 152.88 180.24 153.77 L 179.77 154.59 C 179.26 155.48 179.57 156.62 180.45 157.12 C 181.34 157.63 182.48 157.33 182.99 156.44 Z M 183.50 155.54 L 183.93 154.68 C 184.40 153.77 184.04 152.65 183.13 152.19 C 182.22 151.72 181.10 152.08 180.64 152.99 L 180.20 153.85 C 179.73 154.76 180.09 155.88 181.00 156.35 C 181.91 156.81 183.03 156.45 183.50 155.54 Z M 183.97 154.59 L 184.38 153.68 C 184.80 152.75 184.39 151.65 183.45 151.23 C 182.52 150.81 181.43 151.23 181.01 152.16 L 180.60 153.08 C 180.18 154.01 180.59 155.11 181.53 155.52 C 182.46 155.94 183.55 155.53 183.97 154.59 Z M 184.42 153.59 L 184.78 152.67 C 185.15 151.71 184.67 150.64 183.72 150.28 C 182.77 149.91 181.70 150.38 181.33 151.33 L 180.97 152.25 C 180.61 153.20 181.08 154.27 182.03 154.64 C 182.98 155.01 184.05 154.54 184.42 153.59 Z M 184.81 152.58 L 185.12 151.63 C 185.44 150.67 184.91 149.62 183.95 149.30 C 182.98 148.98 181.94 149.51 181.62 150.47 L 181.30 151.42 C 180.98 152.39 181.51 153.43 182.48 153.75 C 183.44 154.07 184.49 153.54 184.81 152.58 Z M 185.14 151.55 L 185.41 150.59 C 185.68 149.62 185.11 148.60 184.13 148.32 C 183.15 148.05 182.14 148.62 181.86 149.60 L 181.59 150.56 C 181.32 151.54 181.89 152.55 182.87 152.83 C 183.85 153.10 184.87 152.53 185.14 151.55 Z M 185.42 150.52 L 185.66 149.55 C 185.89 148.56 185.28 147.57 184.30 147.33 C 183.31 147.10 182.32 147.71 182.08 148.70 L 181.85 149.67 C 181.61 150.66 182.22 151.65 183.21 151.89 C 184.20 152.12 185.19 151.51 185.42 150.52 Z M 185.67 149.49 L 185.87 148.51 C 186.07 147.51 185.43 146.54 184.44 146.34 C 183.45 146.13 182.47 146.77 182.27 147.77 L 182.07 148.75 C 181.87 149.75 182.51 150.72 183.50 150.92 C 184.49 151.13 185.46 150.49 185.67 149.49 Z M 185.88 148.45 L 186.05 147.47 C 186.23 146.47 185.56 145.52 184.56 145.34 C 183.56 145.17 182.61 145.83 182.44 146.83 L 182.26 147.82 C 182.09 148.82 182.75 149.77 183.75 149.94 C 184.75 150.12 185.70 149.45 185.88 148.45 Z M 186.06 147.42 L 186.21 146.43 C 186.36 145.43 185.67 144.49 184.67 144.34 C 183.67 144.19 182.73 144.88 182.58 145.88 L 182.43 146.88 C 182.28 147.88 182.97 148.81 183.97 148.96 C 184.97 149.11 185.91 148.42 186.06 147.42 Z M 186.21 146.39 L 186.34 145.40 C 186.47 144.39 185.75 143.47 184.75 143.35 C 183.75 143.22 182.83 143.93 182.70 144.94 L 182.58 145.93 C 182.45 146.93 183.16 147.85 184.16 147.98 C 185.17 148.10 186.08 147.39 186.21 146.39 Z M 186.34 145.35 L 186.45 144.37 C 186.55 143.36 185.82 142.46 184.81 142.35 C 183.80 142.25 182.90 142.98 182.80 143.99 L 182.70 144.98 C 182.59 145.98 183.32 146.89 184.33 146.99 C 185.34 147.09 186.24 146.36 186.34 145.35 Z M 186.45 144.33 L 186.53 143.33 C 186.61 142.32 185.86 141.44 184.85 141.35 C 183.84 141.27 182.96 142.02 182.88 143.03 L 182.79 144.03 C 182.71 145.04 183.46 145.92 184.47 146.00 C 185.48 146.09 186.37 145.34 186.45 144.33 Z M 186.53 143.30 L 186.60 142.30 C 186.66 141.29 185.89 140.41 184.88 140.35 C 183.87 140.29 183.00 141.06 182.94 142.07 L 182.87 143.07 C 182.81 144.08 183.58 144.95 184.59 145.01 C 185.60 145.08 186.47 144.31 186.53 143.30 Z M 186.60 142.27 L 186.65 141.26 C 186.69 140.25 185.91 139.39 184.90 139.34 C 183.89 139.29 183.03 140.08 182.98 141.09 L 182.93 142.10 C 182.89 143.11 183.67 143.97 184.68 144.02 C 185.69 144.06 186.55 143.28 186.60 142.27 Z M 186.65 141.24 L 186.68 140.23 C 186.72 139.22 185.92 138.37 184.91 138.34 C 183.89 138.30 183.04 139.10 183.01 140.11 L 182.98 141.11 C 182.94 142.13 183.74 142.98 184.75 143.01 C 185.77 143.05 186.62 142.25 186.65 141.24 Z M 186.69 140.21 L 186.71 139.23 C 186.73 138.21 185.93 137.37 184.91 137.34 C 183.89 137.32 183.05 138.13 183.03 139.14 L 183.01 140.13 C 182.98 141.15 183.79 141.99 184.81 142.01 C 185.82 142.03 186.66 141.23 186.69 140.21 Z M 186.71 139.21 L 186.73 138.19 C 186.74 137.17 185.92 136.34 184.91 136.32 C 183.89 136.31 183.05 137.12 183.04 138.14 L 183.03 139.16 C 183.01 140.18 183.83 141.01 184.84 141.03 C 185.86 141.04 186.70 140.23 186.71 139.21 Z M 186.73 138.18 L 186.74 137.18 C 186.74 136.16 185.92 135.33 184.90 135.32 C 183.88 135.32 183.05 136.14 183.04 137.16 L 183.03 138.16 C 183.03 139.18 183.85 140.01 184.87 140.01 C 185.89 140.02 186.72 139.20 186.73 138.18 Z M 186.74 137.17 L 186.74 136.18 C 186.74 135.16 185.92 134.33 184.89 134.33 C 183.87 134.33 183.04 135.15 183.04 136.17 L 183.04 137.17 C 183.04 138.19 183.86 139.02 184.88 139.02 C 185.91 139.02 186.74 138.20 186.74 137.17 Z M 186.75 136.18 L 186.75 135.22 C 186.75 134.20 185.92 133.37 184.89 133.37 C 183.87 133.37 183.04 134.20 183.04 135.22 L 183.04 136.18 C 183.04 137.20 183.87 138.03 184.89 138.03 C 185.92 138.03 186.75 137.20 186.75 136.18 Z M 186.75 135.21 L 186.74 134.31 C 186.73 133.28 185.89 132.45 184.87 132.46 C 183.84 132.47 183.02 133.31 183.02 134.34 L 183.03 135.24 C 183.04 136.26 183.88 137.09 184.91 137.08 C 185.93 137.07 186.76 136.23 186.75 135.21 Z M 186.75 134.26 L 186.71 133.30 C 186.67 132.27 185.81 131.47 184.78 131.51 C 183.75 131.54 182.95 132.41 182.99 133.44 L 183.02 134.39 C 183.06 135.42 183.92 136.22 184.95 136.18 C 185.98 136.15 186.78 135.28 186.75 134.26 Z M 186.71 133.22 L 186.63 132.18 C 186.55 131.15 185.65 130.39 184.62 130.47 C 183.59 130.55 182.83 131.44 182.91 132.47 L 182.99 133.51 C 183.07 134.54 183.97 135.31 184.99 135.23 C 186.02 135.15 186.79 134.25 186.71 133.22 Z M 186.62 132.09 L 186.48 130.98 C 186.35 129.95 185.42 129.23 184.39 129.36 C 183.37 129.49 182.64 130.42 182.77 131.45 L 182.91 132.56 C 183.04 133.59 183.98 134.31 185.00 134.18 C 186.03 134.05 186.75 133.12 186.62 132.09 Z M 186.47 130.90 L 186.32 129.96 C 186.15 128.94 185.18 128.25 184.16 128.42 C 183.14 128.59 182.45 129.55 182.62 130.57 L 182.78 131.52 C 182.95 132.54 183.91 133.23 184.93 133.06 C 185.96 132.89 186.64 131.92 186.47 130.90 Z M 186.31 129.91 L 186.12 128.91 C 185.92 127.90 184.93 127.23 183.92 127.43 C 182.90 127.63 182.24 128.61 182.43 129.63 L 182.63 130.62 C 182.82 131.64 183.81 132.30 184.82 132.11 C 185.84 131.91 186.51 130.93 186.31 129.91 Z M 186.11 128.87 L 185.89 127.86 C 185.67 126.85 184.68 126.20 183.66 126.42 C 182.65 126.64 182.00 127.64 182.22 128.65 L 182.44 129.66 C 182.66 130.68 183.66 131.32 184.67 131.11 C 185.68 130.89 186.33 129.89 186.11 128.87 Z M 185.89 127.83 L 185.65 126.82 C 185.42 125.81 184.41 125.18 183.40 125.42 C 182.38 125.65 181.76 126.67 181.99 127.68 L 182.23 128.68 C 182.46 129.69 183.47 130.32 184.48 130.09 C 185.49 129.85 186.12 128.84 185.89 127.83 Z M 185.65 126.80 L 185.41 125.83 C 185.16 124.82 184.14 124.21 183.13 124.46 C 182.12 124.71 181.51 125.73 181.76 126.74 L 182.00 127.70 C 182.25 128.71 183.27 129.33 184.28 129.08 C 185.29 128.83 185.90 127.80 185.65 126.80 Z M 185.40 125.80 L 185.13 124.78 C 184.87 123.77 183.83 123.17 182.83 123.44 C 181.82 123.70 181.22 124.73 181.49 125.74 L 181.76 126.77 C 182.03 127.77 183.06 128.37 184.07 128.11 C 185.07 127.84 185.67 126.81 185.40 125.80 Z M 185.12 124.74 L 184.83 123.71 C 184.55 122.71 183.51 122.13 182.51 122.41 C 181.50 122.70 180.92 123.74 181.20 124.74 L 181.50 125.77 C 181.78 126.77 182.82 127.36 183.82 127.07 C 184.83 126.79 185.41 125.75 185.12 124.74 Z M 184.83 123.69 L 184.54 122.74 C 184.24 121.75 183.19 121.18 182.19 121.48 C 181.20 121.78 180.63 122.83 180.93 123.83 L 181.21 124.77 C 181.51 125.77 182.56 126.33 183.56 126.03 C 184.56 125.74 185.12 124.68 184.83 123.69 Z M 184.54 122.72 L 184.26 121.84 C 183.95 120.84 182.89 120.29 181.90 120.60 C 180.90 120.91 180.35 121.96 180.66 122.96 L 180.93 123.85 C 181.24 124.84 182.30 125.40 183.30 125.09 C 184.29 124.78 184.85 123.72 184.54 122.72 Z M 184.26 121.83 L 183.98 120.94 C 183.67 119.95 182.61 119.40 181.61 119.71 C 180.62 120.03 180.07 121.09 180.38 122.08 L 180.66 122.97 C 180.97 123.96 182.03 124.51 183.03 124.20 C 184.02 123.88 184.57 122.82 184.26 121.83 Z M 183.98 120.95 L 183.68 119.99 C 183.37 118.99 182.31 118.44 181.31 118.75 C 180.32 119.06 179.76 120.12 180.08 121.12 L 180.38 122.08 C 180.69 123.07 181.75 123.63 182.75 123.31 C 183.74 123.00 184.29 121.94 183.98 120.95 Z M 183.68 119.99 L 183.39 119.03 C 183.08 118.04 182.02 117.48 181.02 117.79 C 180.02 118.10 179.47 119.16 179.78 120.15 L 180.07 121.11 C 180.38 122.11 181.44 122.67 182.44 122.36 C 183.44 122.05 183.99 120.99 183.68 119.99 Z M 183.39 119.04 L 183.09 118.08 C 182.79 117.08 181.73 116.53 180.73 116.83 C 179.73 117.14 179.17 118.20 179.48 119.19 L 179.77 120.15 C 180.08 121.15 181.14 121.71 182.14 121.40 C 183.13 121.09 183.69 120.03 183.39 119.04 Z M 183.10 118.09 L 182.80 117.13 C 182.50 116.13 181.44 115.57 180.45 115.87 C 179.45 116.18 178.88 117.23 179.19 118.23 L 179.48 119.19 C 179.78 120.19 180.84 120.75 181.84 120.45 C 182.84 120.14 183.40 119.09 183.10 118.09 Z M 182.80 117.14 L 182.51 116.15 C 182.21 115.15 181.15 114.58 180.15 114.88 C 179.16 115.18 178.59 116.23 178.89 117.23 L 179.19 118.22 C 179.49 119.22 180.54 119.79 181.54 119.49 C 182.54 119.19 183.10 118.14 182.80 117.14 Z M 182.50 116.16 L 182.22 115.19 C 181.92 114.19 180.88 113.62 179.88 113.92 C 178.88 114.21 178.31 115.26 178.61 116.26 L 178.89 117.22 C 179.19 118.22 180.23 118.79 181.23 118.49 C 182.23 118.20 182.80 117.15 182.50 116.16 Z M 182.22 115.20 L 181.95 114.27 C 181.66 113.27 180.62 112.70 179.62 112.98 C 178.63 113.27 178.05 114.31 178.34 115.31 L 178.61 116.24 C 178.90 117.24 179.94 117.81 180.93 117.53 C 181.93 117.24 182.50 116.20 182.22 115.20 Z M 181.95 114.28 L 181.71 113.43 C 181.43 112.43 180.40 111.85 179.40 112.13 C 178.40 112.41 177.82 113.45 178.10 114.44 L 178.34 115.29 C 178.62 116.29 179.65 116.87 180.65 116.60 C 181.65 116.32 182.23 115.28 181.95 114.28 Z M 181.72 113.45 L 181.49 112.62 C 181.22 111.62 180.19 111.03 179.19 111.30 C 178.19 111.57 177.60 112.61 177.87 113.61 L 178.09 114.43 C 178.37 115.43 179.40 116.02 180.40 115.75 C 181.40 115.48 181.99 114.45 181.72 113.45 Z M 181.50 112.63 L 181.26 111.72 C 180.99 110.71 179.96 110.11 178.95 110.38 C 177.95 110.65 177.35 111.68 177.62 112.69 L 177.86 113.60 C 178.13 114.60 179.16 115.20 180.17 114.93 C 181.17 114.67 181.77 113.63 181.50 112.63 Z M 181.26 111.72 L 180.98 110.63 C 180.71 109.63 179.68 109.03 178.67 109.29 C 177.66 109.56 177.06 110.59 177.33 111.60 L 177.61 112.68 C 177.88 113.69 178.91 114.29 179.92 114.03 C 180.93 113.76 181.53 112.73 181.26 111.72 Z M 180.99 110.63 L 180.69 109.48 C 180.42 108.46 179.38 107.85 178.36 108.12 C 177.34 108.39 176.74 109.43 177.01 110.45 L 177.31 111.60 C 177.58 112.62 178.62 113.23 179.64 112.96 C 180.66 112.69 181.26 111.65 180.99 110.63 Z M 180.73 109.47 L 180.44 108.38 C 180.17 107.34 179.11 106.72 178.07 106.99 C 177.03 107.27 176.41 108.33 176.68 109.37 L 176.97 110.45 C 177.24 111.49 178.30 112.11 179.34 111.84 C 180.38 111.57 181.00 110.51 180.73 109.47 Z M 180.50 108.39 L 180.22 107.27 C 179.95 106.20 178.87 105.55 177.80 105.82 C 176.73 106.08 176.08 107.17 176.35 108.23 L 176.63 109.36 C 176.89 110.43 177.97 111.08 179.04 110.81 C 180.11 110.54 180.76 109.46 180.50 108.39 Z M 180.28 107.30 L 180.04 106.23 C 179.79 105.13 178.69 104.44 177.59 104.69 C 176.48 104.94 175.79 106.03 176.04 107.14 L 176.28 108.20 C 176.53 109.31 177.63 110.00 178.73 109.75 C 179.84 109.50 180.53 108.40 180.28 107.30 Z M 180.10 106.30 L 179.93 105.37 C 179.72 104.23 178.62 103.47 177.48 103.69 C 176.34 103.90 175.59 104.99 175.80 106.13 L 175.97 107.07 C 176.19 108.21 177.28 108.96 178.42 108.75 C 179.56 108.54 180.32 107.44 180.10 106.30 Z M 180.01 105.54 L 179.94 104.83 C 179.82 103.64 178.76 102.78 177.58 102.90 C 176.40 103.02 175.54 104.07 175.65 105.26 L 175.72 105.96 C 175.84 107.15 176.90 108.01 178.08 107.89 C 179.26 107.77 180.13 106.72 180.01 105.54 Z M 179.78 105.94 L 180.03 105.39 C 180.53 104.29 180.05 103.00 178.95 102.50 C 177.85 102.00 176.56 102.49 176.06 103.59 L 175.81 104.14 C 175.31 105.24 175.80 106.53 176.89 107.03 C 177.99 107.53 179.29 107.04 179.78 105.94 Z M 176.95 106.38 L 177.71 106.82 C 178.75 107.43 180.09 107.07 180.70 106.02 C 181.30 104.98 180.94 103.64 179.90 103.03 L 179.14 102.60 C 178.10 101.99 176.76 102.35 176.15 103.39 C 175.55 104.44 175.90 105.78 176.95 106.38 Z M 177.33 106.55 L 178.22 107.35 C 179.11 108.16 180.49 108.10 181.31 107.20 C 182.12 106.31 182.05 104.92 181.16 104.11 L 180.27 103.31 C 179.38 102.50 178.00 102.56 177.18 103.46 C 176.37 104.35 176.44 105.73 177.33 106.55 Z M 178.21 107.33 L 178.86 107.94 C 179.75 108.76 181.13 108.71 181.95 107.82 C 182.76 106.94 182.71 105.56 181.83 104.74 L 181.17 104.13 C 180.29 103.31 178.91 103.36 178.09 104.25 C 177.27 105.13 177.32 106.51 178.21 107.33 Z M 178.86 107.93 L 179.57 108.59 C 180.45 109.41 181.82 109.36 182.64 108.48 C 183.46 107.61 183.41 106.23 182.54 105.41 L 181.83 104.75 C 180.95 103.93 179.58 103.98 178.76 104.86 C 177.94 105.73 177.98 107.11 178.86 107.93 Z M 179.56 108.57 L 180.32 109.29 C 181.19 110.11 182.56 110.08 183.38 109.21 C 184.20 108.34 184.17 106.97 183.30 106.15 L 182.54 105.43 C 181.67 104.61 180.30 104.64 179.48 105.51 C 178.66 106.38 178.69 107.75 179.56 108.57 Z M 180.31 109.27 L 181.12 110.05 C 181.98 110.88 183.34 110.86 184.17 110.01 C 185.00 109.15 184.98 107.79 184.12 106.96 L 183.31 106.17 C 182.46 105.34 181.09 105.36 180.26 106.22 C 179.43 107.07 179.45 108.44 180.31 109.27 Z M 181.12 110.03 L 181.80 110.71 C 182.64 111.54 184.00 111.53 184.83 110.69 C 185.66 109.85 185.66 108.50 184.82 107.67 L 184.13 106.98 C 183.29 106.15 181.93 106.16 181.10 107.00 C 180.27 107.84 180.28 109.19 181.12 110.03 Z M 181.81 110.68 L 182.51 111.38 C 183.33 112.21 184.67 112.22 185.50 111.39 C 186.33 110.57 186.34 109.23 185.51 108.40 L 184.81 107.70 C 183.99 106.87 182.65 106.86 181.82 107.69 C 180.99 108.51 180.98 109.85 181.81 110.68 Z M 182.52 111.36 L 183.23 112.08 C 184.04 112.91 185.36 112.92 186.19 112.11 C 187.01 111.31 187.03 109.98 186.22 109.16 L 185.51 108.43 C 184.70 107.60 183.37 107.59 182.55 108.40 C 181.72 109.21 181.71 110.53 182.52 111.36 Z M 183.24 112.06 L 183.95 112.79 C 184.74 113.61 186.05 113.63 186.87 112.84 C 187.69 112.05 187.71 110.74 186.92 109.92 L 186.21 109.18 C 185.41 108.36 184.10 108.34 183.28 109.13 C 182.46 109.93 182.44 111.24 183.24 112.06 Z M 183.96 112.77 L 184.66 113.50 C 185.44 114.32 186.74 114.34 187.55 113.56 C 188.37 112.78 188.39 111.49 187.61 110.67 L 186.91 109.94 C 186.13 109.13 184.83 109.10 184.02 109.88 C 183.21 110.66 183.18 111.95 183.96 112.77 Z M 184.68 113.47 L 185.38 114.21 C 186.15 115.02 187.42 115.05 188.23 114.29 C 189.03 113.52 189.07 112.24 188.30 111.44 L 187.60 110.70 C 186.83 109.89 185.55 109.86 184.75 110.63 C 183.94 111.39 183.91 112.67 184.68 113.47 Z M 185.40 114.18 L 186.12 114.94 C 186.87 115.74 188.12 115.77 188.91 115.03 C 189.71 114.28 189.74 113.03 189.00 112.23 L 188.28 111.47 C 187.53 110.67 186.28 110.64 185.48 111.39 C 184.69 112.14 184.65 113.39 185.40 114.18 Z M 186.15 114.91 L 186.84 115.64 C 187.56 116.42 188.79 116.47 189.57 115.74 C 190.35 115.01 190.39 113.79 189.66 113.01 L 188.97 112.27 C 188.24 111.49 187.02 111.45 186.24 112.18 C 185.46 112.90 185.42 114.13 186.15 114.91 Z M 186.86 115.61 L 187.53 116.33 C 188.24 117.09 189.43 117.14 190.20 116.43 C 190.96 115.73 191.01 114.53 190.30 113.77 L 189.63 113.04 C 188.92 112.28 187.73 112.23 186.97 112.94 C 186.20 113.65 186.15 114.84 186.86 115.61 Z M 187.56 116.29 L 188.21 117.00 C 188.90 117.75 190.06 117.80 190.81 117.12 C 191.56 116.43 191.61 115.27 190.93 114.52 L 190.27 113.80 C 189.59 113.05 188.42 113.00 187.67 113.69 C 186.92 114.38 186.87 115.54 187.56 116.29 Z M 188.24 116.97 L 188.90 117.70 C 189.56 118.43 190.70 118.49 191.44 117.82 C 192.17 117.15 192.23 116.01 191.56 115.28 L 190.90 114.55 C 190.23 113.82 189.09 113.76 188.36 114.43 C 187.62 115.10 187.57 116.23 188.24 116.97 Z M 188.92 117.67 L 189.62 118.44 C 190.27 119.16 191.38 119.22 192.11 118.57 C 192.83 117.92 192.89 116.80 192.24 116.08 L 191.54 115.31 C 190.89 114.58 189.77 114.52 189.05 115.18 C 188.32 115.83 188.27 116.94 188.92 117.67 Z M 189.63 118.41 L 190.31 119.18 C 190.95 119.89 192.05 119.96 192.76 119.32 C 193.48 118.68 193.54 117.59 192.90 116.87 L 192.22 116.11 C 191.58 115.39 190.49 115.33 189.77 115.97 C 189.06 116.60 188.99 117.70 189.63 118.41 Z M 190.33 119.15 L 190.98 119.90 C 191.61 120.61 192.68 120.67 193.39 120.05 C 194.10 119.43 194.17 118.35 193.54 117.65 L 192.89 116.90 C 192.26 116.19 191.19 116.12 190.48 116.75 C 189.77 117.37 189.71 118.45 190.33 119.15 Z M 191.00 119.87 L 191.62 120.59 C 192.23 121.29 193.29 121.36 193.99 120.76 C 194.68 120.15 194.76 119.09 194.15 118.39 L 193.53 117.67 C 192.92 116.98 191.87 116.90 191.17 117.51 C 190.47 118.11 190.39 119.17 191.00 119.87 Z M 191.63 120.56 L 192.29 121.34 C 192.88 122.04 193.93 122.13 194.62 121.53 C 195.32 120.94 195.40 119.90 194.81 119.20 L 194.15 118.42 C 193.56 117.72 192.51 117.64 191.82 118.23 C 191.12 118.82 191.04 119.87 191.63 120.56 Z M 192.29 121.33 L 192.94 122.11 C 193.52 122.81 194.56 122.91 195.26 122.33 C 195.96 121.74 196.05 120.71 195.47 120.01 L 194.82 119.22 C 194.24 118.52 193.20 118.43 192.50 119.01 C 191.80 119.59 191.70 120.63 192.29 121.33 Z M 192.94 122.10 L 193.56 122.86 C 194.13 123.56 195.17 123.66 195.87 123.09 C 196.57 122.51 196.67 121.48 196.10 120.78 L 195.48 120.02 C 194.90 119.32 193.87 119.21 193.17 119.79 C 192.46 120.36 192.36 121.40 192.94 122.10 Z M 193.55 122.85 L 194.15 123.59 C 194.72 124.29 195.76 124.40 196.46 123.83 C 197.16 123.26 197.27 122.23 196.70 121.52 L 196.10 120.78 C 195.53 120.08 194.50 119.97 193.79 120.54 C 193.09 121.11 192.98 122.15 193.55 122.85 Z M 194.15 123.59 L 194.23 123.68 C 194.80 124.38 195.83 124.49 196.53 123.92 C 197.23 123.35 197.34 122.32 196.77 121.62 L 196.70 121.53 C 196.13 120.82 195.10 120.71 194.40 121.28 C 193.69 121.85 193.58 122.88 194.15 123.59 Z"
      fill="black"
      fill-rule="nonzero" /></svg>