<svg xmlns="http://www.w3.org/2000/svg" width="300" height="300" viewBox="0 0 300 300">
<path d="M 133.79 98.01 L 133.52 98.80 C 133.18 99.79 133.71 100.88 134.70 101.22 C 135.70 101.56 136.78 101.04 137.13 100.04 L 137.40 99.26 C 137.74 98.26 137.21 97.18 136.21 96.83 C 135.22 96.49 134.13 97.02 133.79 98.01 Z M 133.51 98.82 L 133.23 99.67 C 132.90 100.68 133.44 101.76 134.45 102.09 C 135.45 102.42 136.53 101.87 136.86 100.87 L 137.14 100.02 C 137.47 99.01 136.92 97.93 135.92 97.60 C 134.92 97.27 133.84 97.82 133.51 98.82 Z M 133.21 99.71 L 132.91 100.71 C 132.60 101.72 133.17 102.79 134.18 103.10 C 135.20 103.41 136.27 102.83 136.57 101.82 L 136.88 100.83 C 137.18 99.81 136.61 98.74 135.60 98.44 C 134.59 98.13 133.52 98.70 133.21 99.71 Z M 132.89 100.75 L 132.56 101.94 C 132.28 102.96 132.88 104.02 133.90 104.30 C 134.92 104.59 135.98 103.99 136.26 102.96 L 136.59 101.78 C 136.88 100.76 136.28 99.70 135.25 99.41 C 134.23 99.13 133.17 99.73 132.89 100.75 Z M 132.56 101.97 L 132.33 102.86 C 132.06 103.88 132.68 104.93 133.70 105.19 C 134.73 105.46 135.77 104.84 136.04 103.82 L 136.27 102.93 C 136.53 101.91 135.91 100.86 134.89 100.60 C 133.87 100.33 132.82 100.95 132.56 101.97 Z M 132.34 102.88 L 132.10 103.85 C 131.85 104.86 132.47 105.89 133.48 106.15 C 134.50 106.40 135.53 105.78 135.78 104.76 L 136.02 103.80 C 136.28 102.78 135.66 101.75 134.64 101.50 C 133.62 101.25 132.60 101.86 132.34 102.88 Z M 132.12 103.86 L 131.87 104.87 C 131.63 105.88 132.25 106.90 133.25 107.14 C 134.26 107.39 135.28 106.77 135.52 105.76 L 135.77 104.75 C 136.01 103.74 135.39 102.72 134.38 102.48 C 133.38 102.23 132.36 102.85 132.12 103.86 Z M 131.89 104.89 L 131.64 105.91 C 131.40 106.91 132.02 107.91 133.02 108.15 C 134.02 108.39 135.02 107.77 135.26 106.77 L 135.51 105.75 C 135.74 104.75 135.13 103.74 134.13 103.51 C 133.13 103.27 132.13 103.89 131.89 104.89 Z M 131.66 105.92 L 131.42 106.92 C 131.19 107.91 131.80 108.91 132.79 109.14 C 133.78 109.37 134.78 108.76 135.01 107.77 L 135.25 106.76 C 135.48 105.77 134.87 104.78 133.88 104.55 C 132.89 104.31 131.89 104.93 131.66 105.92 Z M 131.44 106.93 L 131.22 107.88 C 130.99 108.87 131.59 109.85 132.57 110.08 C 133.56 110.31 134.54 109.70 134.77 108.72 L 134.99 107.76 C 135.22 106.78 134.61 105.80 133.63 105.57 C 132.65 105.34 131.67 105.95 131.44 106.93 Z M 131.24 107.89 L 130.98 109.00 C 130.75 109.97 131.35 110.94 132.32 111.17 C 133.28 111.40 134.25 110.80 134.48 109.83 L 134.74 108.71 C 134.97 107.75 134.37 106.78 133.40 106.55 C 132.44 106.32 131.47 106.92 131.24 107.89 Z M 131.00 109.01 L 130.76 110.06 C 130.53 111.02 131.12 111.97 132.07 112.20 C 133.03 112.42 133.98 111.83 134.21 110.88 L 134.45 109.82 C 134.68 108.87 134.09 107.92 133.14 107.69 C 132.18 107.47 131.23 108.06 131.00 109.01 Z M 130.78 110.08 L 130.56 111.02 C 130.35 111.96 130.93 112.89 131.87 113.11 C 132.80 113.33 133.74 112.75 133.96 111.81 L 134.18 110.86 C 134.39 109.93 133.81 108.99 132.87 108.77 C 131.94 108.56 131.00 109.14 130.78 110.08 Z M 130.59 111.04 L 130.39 111.91 C 130.19 112.83 130.77 113.75 131.69 113.96 C 132.61 114.17 133.53 113.59 133.73 112.66 L 133.93 111.79 C 134.14 110.87 133.56 109.95 132.64 109.75 C 131.71 109.54 130.80 110.12 130.59 111.04 Z M 130.42 111.94 L 130.23 112.82 C 130.04 113.73 130.61 114.62 131.52 114.82 C 132.43 115.01 133.33 114.43 133.52 113.52 L 133.71 112.64 C 133.90 111.73 133.33 110.84 132.42 110.64 C 131.51 110.45 130.61 111.03 130.42 111.94 Z M 130.24 112.84 L 130.04 113.86 C 129.86 114.76 130.44 115.63 131.35 115.82 C 132.25 116.00 133.13 115.41 133.31 114.51 L 133.51 113.50 C 133.69 112.59 133.11 111.72 132.20 111.54 C 131.30 111.35 130.42 111.94 130.24 112.84 Z M 130.05 113.87 L 129.86 114.86 C 129.68 115.76 130.27 116.63 131.17 116.80 C 132.07 116.97 132.94 116.38 133.11 115.48 L 133.30 114.49 C 133.47 113.60 132.88 112.73 131.98 112.55 C 131.09 112.38 130.22 112.97 130.05 113.87 Z M 129.86 114.86 L 129.68 115.82 C 129.51 116.72 130.10 117.58 130.99 117.75 C 131.89 117.92 132.75 117.33 132.92 116.44 L 133.10 115.48 C 133.27 114.59 132.69 113.72 131.79 113.55 C 130.90 113.38 130.03 113.97 129.86 114.86 Z M 129.69 115.81 L 129.50 116.80 C 129.32 117.68 129.90 118.55 130.79 118.72 C 131.68 118.90 132.54 118.32 132.72 117.43 L 132.91 116.45 C 133.09 115.56 132.51 114.70 131.62 114.52 C 130.73 114.35 129.87 114.92 129.69 115.81 Z M 129.50 116.78 L 129.30 117.77 C 129.11 118.66 129.68 119.53 130.57 119.71 C 131.46 119.89 132.32 119.32 132.51 118.44 L 132.71 117.44 C 132.90 116.56 132.33 115.69 131.44 115.51 C 130.55 115.32 129.69 115.89 129.50 116.78 Z M 129.30 117.76 L 129.10 118.72 C 128.91 119.61 129.47 120.48 130.35 120.67 C 131.24 120.86 132.11 120.29 132.30 119.41 L 132.50 118.45 C 132.69 117.56 132.13 116.69 131.25 116.50 C 130.36 116.31 129.49 116.88 129.30 117.76 Z M 129.10 118.72 L 128.95 119.38 C 128.76 120.27 129.32 121.14 130.21 121.33 C 131.09 121.52 131.96 120.96 132.15 120.08 L 132.30 119.41 C 132.49 118.53 131.93 117.66 131.04 117.46 C 130.16 117.27 129.29 117.83 129.10 118.72 Z"
      fill="black"
      fill-rule="nonzero" /><path d="M 122.69 108.63 L 123.39 109.40 C 124.07 110.15 125.24 110.20 125.99 109.52 C 126.75 108.83 126.80 107.67 126.11 106.92 L 125.42 106.15 C 124.73 105.40 123.57 105.34 122.81 106.03 C 122.06 106.71 122.01 107.88 122.69 108.63 Z M 123.51 109.54 L 124.25 110.21 C 125.01 110.90 126.19 110.84 126.88 110.07 C 127.57 109.30 127.51 108.12 126.74 107.43 L 126.00 106.77 C 125.23 106.08 124.05 106.14 123.36 106.91 C 122.68 107.68 122.74 108.86 123.51 109.54 Z M 124.57 110.46 L 125.39 110.93 C 126.30 111.44 127.45 111.12 127.96 110.21 C 128.47 109.31 128.15 108.16 127.24 107.65 L 126.42 107.18 C 125.51 106.67 124.36 106.99 123.85 107.90 C 123.34 108.80 123.66 109.95 124.57 110.46 Z M 125.90 111.13 L 126.81 111.33 C 127.82 111.56 128.83 110.93 129.06 109.91 C 129.29 108.90 128.66 107.89 127.64 107.66 L 126.74 107.45 C 125.72 107.22 124.71 107.85 124.48 108.87 C 124.25 109.88 124.88 110.90 125.90 111.13 Z M 127.19 111.36 L 128.19 111.38 C 129.23 111.40 130.08 110.58 130.10 109.55 C 130.11 108.51 129.29 107.66 128.26 107.64 L 127.26 107.62 C 126.23 107.61 125.37 108.43 125.36 109.46 C 125.34 110.49 126.16 111.34 127.19 111.36 Z M 128.40 111.36 L 129.44 111.26 C 130.46 111.17 131.21 110.26 131.12 109.24 C 131.02 108.22 130.12 107.47 129.10 107.57 L 128.05 107.67 C 127.04 107.76 126.29 108.66 126.38 109.68 C 126.48 110.70 127.38 111.45 128.40 111.36 Z M 129.53 111.24 L 130.35 111.12 C 131.36 110.98 132.06 110.05 131.92 109.04 C 131.77 108.04 130.84 107.34 129.84 107.48 L 129.01 107.59 C 128.01 107.74 127.31 108.67 127.45 109.67 C 127.59 110.68 128.52 111.38 129.53 111.24 Z M 130.41 111.10 L 131.31 110.94 C 132.30 110.77 132.97 109.82 132.80 108.83 C 132.62 107.83 131.68 107.17 130.68 107.34 L 129.78 107.50 C 128.79 107.67 128.12 108.62 128.30 109.61 C 128.47 110.61 129.42 111.27 130.41 111.10 Z M 131.36 110.92 L 132.38 110.71 C 133.36 110.51 134.00 109.56 133.80 108.57 C 133.60 107.59 132.64 106.96 131.66 107.16 L 130.64 107.36 C 129.66 107.56 129.02 108.52 129.22 109.50 C 129.42 110.48 130.38 111.12 131.36 110.92 Z M 132.41 110.69 L 133.60 110.42 C 134.57 110.21 135.18 109.24 134.96 108.27 C 134.74 107.30 133.78 106.69 132.81 106.91 L 131.62 107.18 C 130.65 107.40 130.04 108.36 130.26 109.33 C 130.48 110.30 131.44 110.91 132.41 110.69 Z M 133.62 110.41 L 134.53 110.19 C 135.49 109.96 136.08 108.99 135.85 108.03 C 135.63 107.07 134.66 106.48 133.70 106.71 L 132.79 106.93 C 131.83 107.16 131.23 108.12 131.46 109.08 C 131.69 110.04 132.66 110.64 133.62 110.41 Z M 134.54 110.17 L 135.50 109.94 C 136.45 109.70 137.03 108.74 136.80 107.79 C 136.56 106.84 135.60 106.25 134.65 106.49 L 133.69 106.73 C 132.74 106.96 132.16 107.92 132.39 108.88 C 132.63 109.83 133.59 110.41 134.54 110.17 Z M 135.50 109.92 L 136.50 109.67 C 137.45 109.43 138.02 108.47 137.78 107.53 C 137.54 106.58 136.58 106.01 135.63 106.25 L 134.64 106.50 C 133.69 106.74 133.12 107.70 133.36 108.65 C 133.60 109.59 134.56 110.16 135.50 109.92 Z M 136.51 109.66 L 137.52 109.39 C 138.45 109.15 139.02 108.19 138.77 107.26 C 138.53 106.32 137.57 105.76 136.64 106.00 L 135.63 106.27 C 134.69 106.51 134.13 107.46 134.37 108.40 C 134.61 109.34 135.57 109.90 136.51 109.66 Z M 137.52 109.38 L 138.53 109.11 C 139.45 108.87 140.01 107.92 139.76 106.99 C 139.51 106.06 138.56 105.51 137.63 105.75 L 136.63 106.02 C 135.70 106.26 135.15 107.22 135.40 108.14 C 135.64 109.07 136.60 109.63 137.52 109.38 Z M 138.53 109.10 L 139.50 108.84 C 140.42 108.59 140.96 107.64 140.71 106.72 C 140.46 105.80 139.51 105.26 138.59 105.50 L 137.63 105.77 C 136.71 106.02 136.16 106.96 136.41 107.88 C 136.66 108.81 137.61 109.35 138.53 109.10 Z M 139.50 108.82 L 140.55 108.53 C 141.46 108.28 142.00 107.34 141.74 106.42 C 141.49 105.51 140.54 104.98 139.63 105.23 L 138.59 105.52 C 137.67 105.77 137.14 106.72 137.39 107.63 C 137.65 108.54 138.59 109.08 139.50 108.82 Z M 140.56 108.52 L 141.59 108.22 C 142.49 107.96 143.02 107.02 142.76 106.12 C 142.50 105.22 141.56 104.70 140.66 104.95 L 139.62 105.25 C 138.72 105.51 138.20 106.45 138.46 107.35 C 138.71 108.25 139.65 108.77 140.56 108.52 Z M 141.60 108.20 L 142.56 107.92 C 143.45 107.66 143.96 106.73 143.70 105.83 C 143.44 104.94 142.50 104.43 141.61 104.69 L 140.65 104.97 C 139.76 105.23 139.25 106.17 139.51 107.06 C 139.77 107.95 140.70 108.46 141.60 108.20 Z M 142.56 107.90 L 143.47 107.63 C 144.35 107.37 144.85 106.44 144.59 105.56 C 144.33 104.68 143.40 104.17 142.51 104.44 L 141.61 104.71 C 140.72 104.97 140.22 105.90 140.49 106.78 C 140.75 107.67 141.68 108.17 142.56 107.90 Z M 143.47 107.62 L 144.35 107.35 C 145.22 107.09 145.71 106.17 145.45 105.29 C 145.19 104.42 144.26 103.93 143.39 104.19 L 142.51 104.45 C 141.64 104.72 141.15 105.64 141.41 106.51 C 141.67 107.39 142.60 107.88 143.47 107.62 Z M 144.34 107.34 L 144.69 107.24 C 145.56 106.97 146.05 106.06 145.78 105.19 C 145.52 104.32 144.60 103.83 143.74 104.10 L 143.39 104.20 C 142.53 104.46 142.04 105.38 142.30 106.25 C 142.56 107.11 143.48 107.60 144.34 107.34 Z"
      fill="black"
      fill-rule="nonzero" /><path d="M 125.34 124.23 L 124.96 125.16 C 124.59 126.06 125.02 127.09 125.92 127.46 C 126.82 127.83 127.85 127.40 128.22 126.50 L 128.60 125.57 C 128.97 124.67 128.54 123.64 127.64 123.27 C 126.74 122.90 125.71 123.33 125.34 124.23 Z M 124.93 125.21 L 124.57 126.14 C 124.23 127.06 124.69 128.09 125.61 128.43 C 126.53 128.78 127.56 128.32 127.90 127.40 L 128.25 126.46 C 128.60 125.54 128.13 124.52 127.22 124.17 C 126.30 123.82 125.27 124.29 124.93 125.21 Z M 124.53 126.24 L 124.23 127.19 C 123.94 128.14 124.47 129.14 125.42 129.43 C 126.36 129.73 127.36 129.19 127.66 128.25 L 127.95 127.30 C 128.24 126.35 127.71 125.35 126.77 125.06 C 125.82 124.77 124.82 125.30 124.53 126.24 Z M 124.18 127.35 L 123.98 128.31 C 123.77 129.28 124.39 130.24 125.37 130.44 C 126.34 130.65 127.30 130.03 127.50 129.06 L 127.71 128.10 C 127.91 127.12 127.29 126.17 126.32 125.96 C 125.35 125.75 124.39 126.37 124.18 127.35 Z M 123.95 128.47 L 123.83 129.44 C 123.71 130.43 124.42 131.33 125.41 131.45 C 126.40 131.57 127.30 130.86 127.42 129.87 L 127.53 128.90 C 127.65 127.91 126.95 127.01 125.96 126.89 C 124.97 126.77 124.07 127.48 123.95 128.47 Z M 123.82 129.56 L 123.77 130.56 C 123.71 131.56 124.48 132.41 125.47 132.46 C 126.47 132.51 127.32 131.75 127.37 130.75 L 127.43 129.75 C 127.48 128.76 126.72 127.91 125.72 127.85 C 124.72 127.80 123.87 128.56 123.82 129.56 Z M 123.77 130.64 L 123.75 131.66 C 123.74 132.66 124.54 133.48 125.54 133.49 C 126.53 133.50 127.35 132.70 127.36 131.71 L 127.37 130.68 C 127.39 129.68 126.59 128.87 125.59 128.85 C 124.59 128.84 123.78 129.64 123.77 130.64 Z M 123.76 131.71 L 123.77 132.71 C 123.79 133.71 124.60 134.50 125.59 134.49 C 126.59 134.47 127.38 133.66 127.37 132.67 L 127.35 131.66 C 127.34 130.67 126.53 129.88 125.53 129.89 C 124.54 129.90 123.75 130.72 123.76 131.71 Z M 123.79 132.76 L 123.83 133.77 C 123.87 134.76 124.70 135.52 125.69 135.48 C 126.67 135.44 127.43 134.61 127.39 133.63 L 127.35 132.62 C 127.31 131.63 126.48 130.87 125.50 130.91 C 124.51 130.95 123.75 131.78 123.79 132.76 Z M 123.85 133.84 L 123.93 134.83 C 124.00 135.81 124.85 136.53 125.83 136.46 C 126.80 136.38 127.53 135.53 127.45 134.56 L 127.37 133.56 C 127.30 132.59 126.45 131.86 125.47 131.94 C 124.50 132.01 123.77 132.86 123.85 133.84 Z M 123.95 134.92 L 124.08 135.89 C 124.20 136.85 125.08 137.53 126.03 137.41 C 126.99 137.29 127.67 136.41 127.55 135.45 L 127.43 134.48 C 127.30 133.52 126.43 132.84 125.47 132.96 C 124.51 133.08 123.83 133.96 123.95 134.92 Z M 124.11 135.97 L 124.28 136.94 C 124.45 137.88 125.35 138.50 126.29 138.34 C 127.23 138.17 127.85 137.27 127.69 136.33 L 127.52 135.37 C 127.35 134.43 126.45 133.80 125.51 133.97 C 124.57 134.14 123.94 135.03 124.11 135.97 Z M 124.32 136.98 L 124.52 137.94 C 124.70 138.87 125.61 139.46 126.53 139.27 C 127.45 139.08 128.04 138.18 127.85 137.26 L 127.65 136.29 C 127.46 135.37 126.56 134.78 125.64 134.97 C 124.72 135.16 124.13 136.06 124.32 136.98 Z M 124.54 137.94 L 124.75 138.95 C 124.94 139.86 125.83 140.44 126.73 140.25 C 127.64 140.06 128.23 139.17 128.04 138.27 L 127.83 137.26 C 127.64 136.35 126.75 135.77 125.84 135.96 C 124.94 136.15 124.35 137.03 124.54 137.94 Z M 124.76 138.92 L 124.94 139.86 C 125.11 140.76 125.98 141.35 126.88 141.18 C 127.78 141.01 128.37 140.14 128.20 139.24 L 128.03 138.30 C 127.86 137.40 126.99 136.80 126.08 136.97 C 125.18 137.14 124.59 138.01 124.76 138.92 Z M 124.94 139.83 L 125.11 140.80 C 125.26 141.70 126.12 142.31 127.02 142.15 C 127.92 141.99 128.53 141.14 128.37 140.24 L 128.20 139.27 C 128.05 138.37 127.19 137.76 126.29 137.92 C 125.39 138.07 124.78 138.93 124.94 139.83 Z M 125.11 140.78 L 125.27 141.79 C 125.42 142.69 126.27 143.30 127.17 143.15 C 128.07 143.01 128.68 142.16 128.53 141.26 L 128.37 140.25 C 128.22 139.36 127.37 138.75 126.47 138.89 C 125.57 139.04 124.96 139.89 125.11 140.78 Z M 125.28 141.78 L 125.44 142.80 C 125.58 143.70 126.42 144.31 127.32 144.17 C 128.22 144.03 128.83 143.19 128.69 142.29 L 128.53 141.27 C 128.38 140.37 127.54 139.76 126.65 139.90 C 125.75 140.04 125.14 140.88 125.28 141.78 Z M 125.44 142.80 L 125.49 143.07 C 125.63 143.96 126.46 144.57 127.36 144.43 C 128.25 144.29 128.86 143.45 128.72 142.56 L 128.68 142.30 C 128.54 141.40 127.70 140.79 126.81 140.93 C 125.92 141.07 125.30 141.91 125.44 142.80 Z"
      fill="black"
      fill-rule="nonzero" /><path d="M 126.57 120.10 L 125.46 120.74 C 124.56 121.26 124.25 122.40 124.77 123.30 C 125.29 124.19 126.43 124.50 127.33 123.98 L 128.44 123.34 C 129.34 122.82 129.64 121.68 129.12 120.78 C 128.61 119.89 127.46 119.58 126.57 120.10 Z M 125.10 120.97 L 124.53 121.50 C 123.76 122.22 123.72 123.42 124.43 124.19 C 125.15 124.96 126.35 125.00 127.12 124.28 L 127.69 123.75 C 128.46 123.03 128.50 121.83 127.78 121.06 C 127.07 120.30 125.86 120.26 125.10 120.97 Z M 124.52 124.29 L 124.83 124.59 C 125.60 125.31 126.82 125.27 127.54 124.49 C 128.26 123.72 128.22 122.50 127.44 121.78 L 127.13 121.49 C 126.36 120.77 125.14 120.81 124.42 121.59 C 123.70 122.36 123.74 123.57 124.52 124.29 Z M 125.85 125.08 L 126.82 125.23 C 127.87 125.39 128.85 124.67 129.01 123.63 C 129.17 122.58 128.45 121.60 127.40 121.44 L 126.43 121.29 C 125.38 121.13 124.40 121.85 124.24 122.89 C 124.08 123.94 124.80 124.92 125.85 125.08 Z M 127.02 125.25 L 128.38 125.32 C 129.44 125.37 130.34 124.56 130.40 123.50 C 130.45 122.44 129.63 121.54 128.57 121.49 L 127.20 121.42 C 126.15 121.36 125.25 122.18 125.19 123.24 C 125.14 124.30 125.96 125.20 127.02 125.25 Z M 128.43 125.32 L 129.38 125.34 C 130.44 125.37 131.32 124.53 131.34 123.47 C 131.37 122.41 130.53 121.53 129.47 121.51 L 128.52 121.48 C 127.46 121.46 126.58 122.30 126.56 123.36 C 126.54 124.42 127.38 125.30 128.43 125.32 Z M 129.40 125.34 L 130.41 125.35 C 131.47 125.37 132.33 124.52 132.35 123.46 C 132.36 122.40 131.51 121.53 130.45 121.52 L 129.45 121.51 C 128.39 121.49 127.52 122.34 127.51 123.40 C 127.49 124.46 128.34 125.33 129.40 125.34 Z M 130.42 125.35 L 131.45 125.36 C 132.51 125.36 133.37 124.51 133.38 123.45 C 133.38 122.39 132.53 121.53 131.47 121.53 L 130.44 121.52 C 129.38 121.51 128.52 122.37 128.51 123.43 C 128.51 124.48 129.36 125.35 130.42 125.35 Z M 131.46 125.36 L 132.49 125.36 C 133.54 125.36 134.40 124.50 134.40 123.45 C 134.41 122.39 133.55 121.53 132.49 121.53 L 131.47 121.53 C 130.41 121.53 129.55 122.38 129.55 123.44 C 129.55 124.50 130.40 125.35 131.46 125.36 Z M 132.49 125.36 L 133.53 125.36 C 134.58 125.36 135.44 124.50 135.44 123.44 C 135.44 122.39 134.58 121.53 133.53 121.53 L 132.49 121.53 C 131.43 121.53 130.58 122.39 130.58 123.44 C 130.58 124.50 131.43 125.36 132.49 125.36 Z M 133.52 125.35 L 134.57 125.35 C 135.63 125.36 136.48 124.51 136.49 123.45 C 136.49 122.40 135.64 121.55 134.59 121.54 L 133.53 121.54 C 132.48 121.53 131.62 122.38 131.62 123.44 C 131.62 124.49 132.47 125.35 133.52 125.35 Z M 134.55 125.35 L 135.55 125.36 C 136.60 125.38 137.46 124.54 137.48 123.50 C 137.50 122.45 136.66 121.58 135.61 121.57 L 134.61 121.55 C 133.56 121.53 132.70 122.37 132.68 123.42 C 132.67 124.46 133.50 125.33 134.55 125.35 Z M 135.50 125.35 L 136.46 125.39 C 137.51 125.43 138.38 124.62 138.43 123.58 C 138.47 122.53 137.66 121.66 136.61 121.61 L 135.66 121.58 C 134.61 121.53 133.73 122.35 133.69 123.39 C 133.65 124.43 134.46 125.31 135.50 125.35 Z M 136.40 125.38 L 137.35 125.45 C 138.39 125.53 139.29 124.75 139.37 123.72 C 139.45 122.68 138.67 121.78 137.63 121.70 L 136.68 121.63 C 135.64 121.55 134.74 122.32 134.66 123.36 C 134.58 124.40 135.36 125.30 136.40 125.38 Z M 137.26 125.43 L 138.28 125.56 C 139.30 125.68 140.24 124.96 140.36 123.93 C 140.49 122.90 139.76 121.97 138.74 121.84 L 137.72 121.72 C 136.69 121.59 135.76 122.32 135.63 123.35 C 135.51 124.37 136.23 125.31 137.26 125.43 Z M 138.17 125.53 L 139.16 125.71 C 140.17 125.90 141.14 125.23 141.32 124.22 C 141.51 123.21 140.84 122.24 139.83 122.05 L 138.84 121.87 C 137.83 121.68 136.86 122.35 136.67 123.36 C 136.49 124.37 137.16 125.34 138.17 125.53 Z M 139.03 125.67 L 139.98 125.92 C 140.97 126.18 141.98 125.58 142.24 124.59 C 142.49 123.60 141.90 122.59 140.91 122.34 L 139.96 122.09 C 138.97 121.83 137.96 122.43 137.70 123.42 C 137.44 124.41 138.04 125.42 139.03 125.67 Z M 139.83 125.86 L 140.78 126.20 C 141.74 126.54 142.79 126.04 143.13 125.08 C 143.47 124.12 142.96 123.07 142.00 122.73 L 141.06 122.39 C 140.10 122.05 139.05 122.56 138.71 123.51 C 138.37 124.47 138.87 125.53 139.83 125.86 Z M 140.62 126.12 L 141.55 126.55 C 142.46 126.98 143.55 126.58 143.98 125.66 C 144.40 124.75 144.00 123.66 143.09 123.24 L 142.16 122.80 C 141.25 122.38 140.16 122.78 139.73 123.69 C 139.31 124.61 139.70 125.69 140.62 126.12 Z M 141.40 126.46 L 142.26 126.96 C 143.12 127.47 144.23 127.18 144.74 126.31 C 145.25 125.45 144.96 124.34 144.09 123.83 L 143.24 123.33 C 142.37 122.82 141.26 123.11 140.75 123.98 C 140.25 124.84 140.54 125.95 141.40 126.46 Z M 142.12 126.85 L 142.90 127.42 C 143.71 128.00 144.83 127.82 145.41 127.02 C 146.00 126.21 145.82 125.09 145.01 124.50 L 144.23 123.94 C 143.42 123.36 142.30 123.54 141.72 124.34 C 141.13 125.15 141.32 126.27 142.12 126.85 Z M 142.76 127.29 L 143.51 127.97 C 144.24 128.63 145.37 128.57 146.03 127.84 C 146.69 127.11 146.64 125.98 145.90 125.32 L 145.15 124.64 C 144.42 123.98 143.29 124.03 142.63 124.77 C 141.97 125.50 142.03 126.63 142.76 127.29 Z M 143.36 127.78 L 143.99 128.54 C 144.62 129.28 145.74 129.38 146.49 128.75 C 147.23 128.12 147.33 127.00 146.70 126.26 L 146.06 125.50 C 145.43 124.75 144.32 124.66 143.57 125.29 C 142.82 125.92 142.73 127.03 143.36 127.78 Z M 143.85 128.31 L 144.36 129.16 C 144.87 129.98 145.94 130.25 146.77 129.74 C 147.60 129.24 147.86 128.16 147.36 127.33 L 146.84 126.49 C 146.34 125.66 145.26 125.40 144.43 125.90 C 143.61 126.40 143.34 127.48 143.85 128.31 Z M 144.26 128.91 L 144.64 129.82 C 145.01 130.70 146.02 131.12 146.90 130.75 C 147.79 130.39 148.21 129.37 147.84 128.49 L 147.46 127.58 C 147.09 126.70 146.08 126.28 145.20 126.64 C 144.31 127.01 143.89 128.03 144.26 128.91 Z M 144.59 129.60 L 144.85 130.57 C 145.10 131.48 146.03 132.02 146.95 131.78 C 147.86 131.53 148.40 130.59 148.15 129.68 L 147.89 128.71 C 147.64 127.80 146.71 127.26 145.79 127.50 C 144.88 127.75 144.34 128.69 144.59 129.60 Z M 144.83 130.37 L 144.98 131.37 C 145.12 132.29 145.97 132.93 146.89 132.79 C 147.81 132.65 148.45 131.80 148.32 130.88 L 148.17 129.88 C 148.03 128.96 147.18 128.32 146.26 128.46 C 145.33 128.60 144.70 129.45 144.83 130.37 Z M 144.98 131.17 L 145.01 132.20 C 145.03 133.12 145.80 133.85 146.72 133.82 C 147.64 133.80 148.37 133.03 148.34 132.11 L 148.31 131.08 C 148.29 130.16 147.52 129.43 146.60 129.46 C 145.68 129.48 144.96 130.25 144.98 131.17 Z M 145.03 131.96 L 144.91 132.96 C 144.80 133.86 145.45 134.69 146.35 134.80 C 147.26 134.91 148.09 134.26 148.20 133.36 L 148.32 132.36 C 148.43 131.45 147.79 130.62 146.88 130.51 C 145.97 130.40 145.14 131.05 145.03 131.96 Z M 144.98 132.65 L 144.69 133.57 C 144.41 134.43 144.88 135.36 145.75 135.64 C 146.62 135.92 147.55 135.45 147.83 134.58 L 148.12 133.66 C 148.41 132.80 147.93 131.87 147.06 131.59 C 146.20 131.30 145.27 131.78 144.98 132.65 Z M 144.85 133.22 L 144.35 134.04 C 143.88 134.81 144.13 135.82 144.90 136.30 C 145.68 136.77 146.69 136.52 147.16 135.75 L 147.66 134.93 C 148.14 134.15 147.89 133.14 147.11 132.67 C 146.34 132.20 145.33 132.44 144.85 133.22 Z M 144.57 133.76 L 143.89 134.47 C 143.26 135.12 143.29 136.16 143.94 136.79 C 144.60 137.42 145.64 137.40 146.26 136.74 L 146.95 136.03 C 147.57 135.37 147.55 134.33 146.89 133.71 C 146.24 133.08 145.20 133.10 144.57 133.76 Z M 144.09 134.29 L 143.27 134.91 C 142.54 135.45 142.40 136.48 142.94 137.21 C 143.49 137.93 144.52 138.08 145.24 137.53 L 146.06 136.92 C 146.79 136.37 146.93 135.34 146.39 134.62 C 145.84 133.89 144.81 133.75 144.09 134.29 Z M 143.42 134.81 L 142.59 135.30 C 141.81 135.76 141.56 136.76 142.02 137.55 C 142.48 138.33 143.48 138.58 144.26 138.12 L 145.09 137.63 C 145.87 137.17 146.13 136.17 145.67 135.39 C 145.21 134.61 144.20 134.35 143.42 134.81 Z M 142.70 135.24 L 141.83 135.67 C 141.01 136.07 140.68 137.06 141.08 137.87 C 141.49 138.68 142.47 139.02 143.28 138.61 L 144.16 138.18 C 144.97 137.78 145.30 136.79 144.90 135.98 C 144.50 135.17 143.51 134.84 142.70 135.24 Z M 141.90 135.64 L 140.96 136.05 C 140.12 136.41 139.74 137.38 140.11 138.21 C 140.47 139.04 141.44 139.42 142.27 139.06 L 143.21 138.65 C 144.05 138.29 144.43 137.32 144.06 136.48 C 143.70 135.65 142.73 135.27 141.90 135.64 Z M 140.99 136.03 L 140.09 136.40 C 139.25 136.74 138.85 137.70 139.19 138.54 C 139.53 139.38 140.49 139.79 141.33 139.44 L 142.23 139.08 C 143.07 138.74 143.48 137.78 143.14 136.93 C 142.79 136.09 141.83 135.69 140.99 136.03 Z M 140.11 136.39 L 139.32 136.70 C 138.47 137.03 138.05 137.99 138.38 138.83 C 138.71 139.68 139.67 140.10 140.52 139.77 L 141.32 139.45 C 142.16 139.12 142.58 138.17 142.25 137.32 C 141.92 136.47 140.96 136.05 140.11 136.39 Z M 139.33 136.69 L 138.46 137.02 C 137.60 137.34 137.17 138.29 137.50 139.15 C 137.82 140.00 138.77 140.43 139.62 140.11 L 140.50 139.78 C 141.35 139.46 141.78 138.50 141.46 137.65 C 141.14 136.80 140.19 136.37 139.33 136.69 Z M 138.48 137.01 L 137.49 137.37 C 136.63 137.68 136.19 138.63 136.50 139.48 C 136.81 140.34 137.76 140.79 138.62 140.47 L 139.60 140.12 C 140.46 139.81 140.91 138.86 140.59 138.00 C 140.28 137.14 139.33 136.70 138.48 137.01 Z M 137.51 137.36 L 136.39 137.75 C 135.53 138.05 135.07 138.99 135.37 139.86 C 135.68 140.72 136.62 141.18 137.48 140.87 L 138.60 140.48 C 139.47 140.18 139.92 139.24 139.62 138.37 C 139.32 137.51 138.37 137.05 137.51 137.36 Z M 136.40 137.74 L 135.45 138.06 C 134.58 138.36 134.11 139.30 134.41 140.17 C 134.70 141.04 135.65 141.50 136.52 141.21 L 137.47 140.88 C 138.34 140.59 138.81 139.65 138.51 138.78 C 138.22 137.91 137.27 137.44 136.40 137.74 Z M 135.46 138.05 L 134.50 138.37 C 133.62 138.66 133.15 139.60 133.44 140.48 C 133.73 141.35 134.68 141.83 135.55 141.54 L 136.51 141.22 C 137.38 140.93 137.86 139.98 137.57 139.11 C 137.28 138.23 136.33 137.76 135.46 138.05 Z M 134.51 138.35 L 133.52 138.67 C 132.63 138.96 132.15 139.91 132.44 140.79 C 132.72 141.68 133.67 142.16 134.56 141.87 L 135.55 141.55 C 136.43 141.26 136.91 140.31 136.63 139.43 C 136.34 138.55 135.39 138.07 134.51 138.35 Z M 133.52 138.66 L 132.52 138.98 C 131.63 139.26 131.14 140.22 131.42 141.11 C 131.71 142.00 132.66 142.49 133.55 142.20 L 134.55 141.89 C 135.44 141.60 135.93 140.65 135.65 139.76 C 135.36 138.87 134.41 138.38 133.52 138.66 Z M 132.53 138.97 L 131.55 139.27 C 130.65 139.55 130.15 140.51 130.43 141.40 C 130.71 142.30 131.66 142.80 132.56 142.52 L 133.54 142.22 C 134.44 141.94 134.94 140.98 134.66 140.09 C 134.38 139.19 133.43 138.69 132.53 138.97 Z M 131.56 139.26 L 130.63 139.54 C 129.72 139.81 129.21 140.77 129.48 141.68 C 129.76 142.58 130.71 143.09 131.62 142.82 L 132.55 142.54 C 133.46 142.26 133.97 141.31 133.69 140.40 C 133.42 139.50 132.47 138.98 131.56 139.26 Z M 130.64 139.52 L 129.52 139.85 C 128.61 140.11 128.08 141.07 128.35 141.98 C 128.61 142.90 129.57 143.42 130.48 143.16 L 131.60 142.84 C 132.51 142.57 133.04 141.61 132.78 140.70 C 132.51 139.79 131.56 139.26 130.64 139.52 Z M 129.56 139.82 L 128.20 140.18 C 127.27 140.43 126.71 141.38 126.96 142.31 C 127.21 143.24 128.16 143.79 129.08 143.54 L 130.45 143.18 C 131.37 142.94 131.93 141.99 131.68 141.06 C 131.43 140.13 130.48 139.58 129.56 139.82 Z M 128.27 140.15 L 127.37 140.35 C 126.42 140.55 125.82 141.48 126.02 142.43 C 126.23 143.38 127.16 143.98 128.11 143.77 L 129.01 143.58 C 129.96 143.37 130.56 142.44 130.35 141.49 C 130.15 140.55 129.22 139.95 128.27 140.15 Z M 127.66 140.29 L 127.28 140.31 C 126.31 140.35 125.55 141.18 125.59 142.15 C 125.64 143.13 126.46 143.89 127.44 143.84 L 127.81 143.83 C 128.79 143.78 129.55 142.96 129.50 141.98 C 129.46 141.01 128.64 140.25 127.66 140.29 Z M 128.30 143.59 L 128.80 143.27 C 129.64 142.76 129.89 141.66 129.38 140.83 C 128.86 139.99 127.76 139.73 126.93 140.25 L 126.42 140.56 C 125.59 141.08 125.33 142.18 125.85 143.01 C 126.37 143.85 127.46 144.10 128.30 143.59 Z M 128.57 143.40 L 129.82 142.86 C 130.72 142.47 131.13 141.42 130.74 140.51 C 130.35 139.61 129.30 139.20 128.40 139.59 L 127.16 140.13 C 126.26 140.52 125.84 141.57 126.23 142.47 C 126.62 143.37 127.67 143.79 128.57 143.40 Z M 129.79 142.87 L 130.71 142.49 C 131.61 142.11 132.05 141.07 131.67 140.16 C 131.29 139.25 130.25 138.82 129.34 139.20 L 128.43 139.58 C 127.52 139.96 127.09 141.00 127.47 141.91 C 127.84 142.81 128.89 143.24 129.79 142.87 Z M 130.70 142.49 L 131.62 142.11 C 132.53 141.74 132.97 140.70 132.59 139.79 C 132.22 138.88 131.18 138.45 130.27 138.82 L 129.35 139.20 C 128.44 139.57 128.00 140.61 128.38 141.52 C 128.75 142.43 129.79 142.86 130.70 142.49 Z M 131.61 142.11 L 132.55 141.73 C 133.46 141.37 133.90 140.33 133.53 139.42 C 133.17 138.51 132.13 138.07 131.22 138.44 L 130.28 138.82 C 129.37 139.18 128.93 140.22 129.30 141.13 C 129.67 142.04 130.70 142.48 131.61 142.11 Z M 132.54 141.73 L 133.47 141.36 C 134.38 141.00 134.83 139.97 134.46 139.06 C 134.10 138.15 133.07 137.71 132.16 138.07 L 131.23 138.44 C 130.32 138.80 129.88 139.83 130.24 140.74 C 130.60 141.65 131.63 142.10 132.54 141.73 Z M 133.46 141.36 L 134.40 140.99 C 135.31 140.64 135.75 139.61 135.40 138.70 C 135.04 137.79 134.02 137.35 133.11 137.70 L 132.17 138.07 C 131.26 138.43 130.82 139.45 131.17 140.36 C 131.53 141.27 132.55 141.72 133.46 141.36 Z M 134.38 140.99 L 135.32 140.63 C 136.23 140.28 136.68 139.26 136.33 138.36 C 135.98 137.45 134.96 137.00 134.05 137.34 L 133.12 137.70 C 132.21 138.05 131.76 139.07 132.11 139.98 C 132.46 140.89 133.48 141.34 134.38 140.99 Z M 135.30 140.63 L 136.21 140.29 C 137.12 139.95 137.58 138.94 137.24 138.03 C 136.89 137.12 135.88 136.66 134.97 137.00 L 134.06 137.35 C 133.16 137.69 132.70 138.70 133.04 139.61 C 133.38 140.52 134.40 140.98 135.30 140.63 Z M 136.20 140.29 L 137.11 139.95 C 138.02 139.62 138.48 138.61 138.14 137.70 C 137.81 136.80 136.80 136.33 135.89 136.67 L 134.98 137.00 C 134.08 137.34 133.61 138.35 133.95 139.26 C 134.29 140.16 135.29 140.63 136.20 140.29 Z M 137.10 139.95 L 138.05 139.60 C 138.95 139.27 139.42 138.27 139.09 137.36 C 138.75 136.46 137.75 135.99 136.85 136.32 L 135.90 136.67 C 134.99 137.00 134.53 138.01 134.86 138.91 C 135.19 139.82 136.19 140.28 137.10 139.95 Z M 138.04 139.60 L 139.02 139.24 C 139.92 138.91 140.39 137.91 140.06 137.01 C 139.73 136.11 138.73 135.64 137.82 135.97 L 136.85 136.33 C 135.94 136.66 135.48 137.66 135.81 138.56 C 136.14 139.47 137.14 139.93 138.04 139.60 Z M 139.02 139.24 L 139.95 138.90 C 140.85 138.57 141.32 137.57 140.99 136.67 C 140.66 135.77 139.67 135.31 138.76 135.63 L 137.83 135.97 C 136.93 136.30 136.46 137.30 136.79 138.20 C 137.12 139.10 138.11 139.57 139.02 139.24 Z M 139.94 138.90 L 140.90 138.56 C 141.80 138.23 142.27 137.24 141.95 136.34 C 141.63 135.44 140.64 134.97 139.74 135.29 L 138.78 135.64 C 137.87 135.96 137.40 136.95 137.73 137.85 C 138.05 138.75 139.04 139.22 139.94 138.90 Z M 140.88 138.56 L 141.84 138.23 C 142.74 137.92 143.22 136.94 142.91 136.03 C 142.60 135.13 141.62 134.65 140.71 134.96 L 139.76 135.29 C 138.86 135.60 138.38 136.58 138.69 137.49 C 139.00 138.39 139.98 138.87 140.88 138.56 Z M 141.80 138.25 L 142.86 137.91 C 143.78 137.62 144.28 136.64 143.99 135.73 C 143.70 134.82 142.72 134.32 141.81 134.61 L 140.75 134.95 C 139.84 135.24 139.33 136.21 139.62 137.12 C 139.91 138.03 140.89 138.54 141.80 138.25 Z M 142.73 137.97 L 143.84 137.71 C 144.79 137.49 145.38 136.55 145.16 135.60 C 144.94 134.66 143.99 134.07 143.05 134.29 L 141.94 134.54 C 140.99 134.76 140.41 135.71 140.62 136.65 C 140.84 137.60 141.79 138.19 142.73 137.97 Z M 143.33 137.79 L 144.15 137.84 C 145.14 137.90 145.99 137.15 146.05 136.16 C 146.11 135.17 145.35 134.32 144.36 134.26 L 143.55 134.21 C 142.56 134.15 141.71 134.90 141.65 135.89 C 141.59 136.88 142.34 137.73 143.33 137.79 Z M 142.81 137.17 L 143.23 137.71 C 143.85 138.51 145.00 138.66 145.80 138.04 C 146.59 137.42 146.74 136.27 146.12 135.47 L 145.70 134.93 C 145.08 134.13 143.93 133.98 143.13 134.60 C 142.34 135.22 142.19 136.37 142.81 137.17 Z M 142.82 136.57 L 142.81 137.56 C 142.80 138.59 143.62 139.43 144.64 139.44 C 145.67 139.45 146.51 138.63 146.52 137.60 L 146.53 136.61 C 146.54 135.59 145.72 134.75 144.70 134.74 C 143.67 134.73 142.83 135.55 142.82 136.57 Z M 142.85 137.10 L 142.56 138.20 C 142.29 139.20 142.89 140.23 143.89 140.50 C 144.89 140.77 145.92 140.17 146.19 139.16 L 146.48 138.07 C 146.75 137.06 146.15 136.03 145.15 135.77 C 144.14 135.50 143.11 136.10 142.85 137.10 Z M 142.62 137.96 L 142.26 138.85 C 141.86 139.81 142.32 140.92 143.29 141.32 C 144.26 141.71 145.37 141.25 145.76 140.28 L 146.12 139.40 C 146.52 138.43 146.06 137.33 145.09 136.93 C 144.12 136.53 143.02 136.99 142.62 137.96 Z M 142.32 138.71 L 141.87 139.60 C 141.40 140.53 141.77 141.67 142.71 142.15 C 143.65 142.62 144.79 142.24 145.26 141.31 L 145.71 140.42 C 146.18 139.48 145.80 138.34 144.87 137.87 C 143.93 137.40 142.79 137.77 142.32 138.71 Z M 141.90 139.53 L 141.39 140.45 C 140.88 141.37 141.21 142.53 142.13 143.04 C 143.05 143.55 144.21 143.21 144.72 142.30 L 145.23 141.37 C 145.74 140.46 145.41 139.30 144.49 138.79 C 143.57 138.28 142.41 138.61 141.90 139.53 Z M 141.39 140.43 L 141.02 141.09 C 140.50 142.00 140.83 143.16 141.74 143.68 C 142.66 144.20 143.82 143.88 144.34 142.97 L 144.71 142.31 C 145.23 141.40 144.91 140.23 143.99 139.71 C 143.08 139.19 141.91 139.52 141.39 140.43 Z M 141.02 141.08 L 140.61 141.81 C 140.09 142.73 140.41 143.89 141.32 144.41 C 142.24 144.93 143.40 144.61 143.92 143.70 L 144.34 142.97 C 144.86 142.05 144.54 140.89 143.62 140.37 C 142.71 139.85 141.54 140.17 141.02 141.08 Z M 140.61 141.82 L 140.13 142.66 C 139.61 143.58 139.93 144.74 140.84 145.26 C 141.76 145.78 142.93 145.46 143.44 144.54 L 143.93 143.70 C 144.44 142.78 144.12 141.62 143.21 141.10 C 142.29 140.58 141.13 140.90 140.61 141.82 Z M 140.12 142.67 L 139.56 143.67 C 139.04 144.59 139.36 145.75 140.28 146.27 C 141.20 146.79 142.36 146.46 142.88 145.54 L 143.45 144.54 C 143.97 143.62 143.64 142.46 142.72 141.94 C 141.81 141.42 140.64 141.75 140.12 142.67 Z M 139.55 143.67 L 138.94 144.78 C 138.42 145.70 138.75 146.86 139.67 147.37 C 140.59 147.89 141.75 147.56 142.27 146.64 L 142.88 145.54 C 143.40 144.62 143.07 143.46 142.15 142.94 C 141.23 142.43 140.07 142.75 139.55 143.67 Z M 138.93 144.78 L 138.50 145.56 C 137.98 146.48 138.32 147.65 139.24 148.16 C 140.16 148.67 141.32 148.34 141.83 147.42 L 142.27 146.64 C 142.78 145.72 142.45 144.55 141.53 144.04 C 140.61 143.53 139.45 143.86 138.93 144.78 Z M 138.50 145.57 L 138.03 146.41 C 137.52 147.33 137.85 148.49 138.77 149.00 C 139.69 149.52 140.86 149.18 141.37 148.26 L 141.83 147.42 C 142.35 146.50 142.01 145.34 141.09 144.82 C 140.17 144.31 139.01 144.64 138.50 145.57 Z M 138.03 146.41 L 137.54 147.30 C 137.03 148.22 137.36 149.38 138.29 149.89 C 139.21 150.40 140.37 150.07 140.88 149.14 L 141.37 148.26 C 141.88 147.34 141.54 146.17 140.62 145.66 C 139.70 145.15 138.54 145.49 138.03 146.41 Z M 137.54 147.30 L 137.03 148.22 C 136.53 149.14 136.86 150.30 137.79 150.81 C 138.71 151.32 139.87 150.98 140.38 150.05 L 140.88 149.14 C 141.39 148.22 141.05 147.06 140.13 146.55 C 139.20 146.04 138.04 146.38 137.54 147.30 Z M 137.03 148.22 L 136.52 149.15 C 136.02 150.07 136.36 151.23 137.28 151.74 C 138.21 152.24 139.37 151.90 139.87 150.98 L 140.38 150.05 C 140.89 149.13 140.55 147.97 139.62 147.46 C 138.70 146.95 137.54 147.29 137.03 148.22 Z M 136.52 149.15 L 136.02 150.07 C 135.52 151.00 135.86 152.16 136.79 152.66 C 137.71 153.17 138.87 152.82 139.38 151.90 L 139.88 150.97 C 140.38 150.05 140.04 148.89 139.11 148.38 C 138.18 147.88 137.03 148.22 136.52 149.15 Z M 136.02 150.08 L 135.53 150.99 C 135.03 151.91 135.38 153.07 136.31 153.57 C 137.24 154.07 138.39 153.72 138.89 152.79 L 139.38 151.89 C 139.88 150.96 139.53 149.80 138.60 149.30 C 137.68 148.80 136.52 149.15 136.02 150.08 Z M 135.53 150.99 L 135.06 151.86 C 134.57 152.79 134.92 153.95 135.85 154.45 C 136.78 154.94 137.94 154.59 138.43 153.66 L 138.90 152.79 C 139.39 151.86 139.04 150.70 138.11 150.21 C 137.18 149.71 136.02 150.06 135.53 150.99 Z M 135.06 151.87 L 134.50 152.94 C 134.01 153.87 134.37 155.02 135.30 155.51 C 136.24 156.00 137.39 155.64 137.88 154.71 L 138.44 153.65 C 138.92 152.71 138.57 151.56 137.63 151.07 C 136.70 150.58 135.55 150.94 135.06 151.87 Z M 134.50 152.95 L 133.97 153.99 C 133.48 154.92 133.85 156.07 134.79 156.55 C 135.72 157.03 136.87 156.66 137.35 155.73 L 137.88 154.69 C 138.36 153.76 137.99 152.61 137.06 152.13 C 136.13 151.65 134.98 152.02 134.50 152.95 Z M 133.96 154.01 L 133.49 154.96 C 133.02 155.89 133.39 157.03 134.33 157.50 C 135.26 157.97 136.40 157.60 136.87 156.66 L 137.35 155.71 C 137.82 154.78 137.44 153.64 136.51 153.17 C 135.57 152.70 134.43 153.07 133.96 154.01 Z M 133.48 154.97 L 133.06 155.84 C 132.60 156.77 132.98 157.91 133.92 158.37 C 134.85 158.83 135.99 158.44 136.45 157.51 L 136.87 156.64 C 137.33 155.71 136.95 154.57 136.01 154.11 C 135.08 153.65 133.94 154.04 133.48 154.97 Z M 133.06 155.86 L 132.68 156.65 C 132.23 157.58 132.62 158.71 133.56 159.16 C 134.50 159.61 135.62 159.21 136.07 158.28 L 136.45 157.49 C 136.90 156.55 136.51 155.43 135.57 154.98 C 134.63 154.53 133.51 154.92 133.06 155.86 Z M 132.68 156.66 L 132.34 157.38 C 131.90 158.32 132.30 159.44 133.24 159.88 C 134.18 160.32 135.30 159.91 135.74 158.97 L 136.07 158.26 C 136.51 157.32 136.11 156.20 135.17 155.76 C 134.23 155.32 133.11 155.73 132.68 156.66 Z M 132.34 157.41 L 131.90 158.37 C 131.47 159.31 131.89 160.42 132.83 160.84 C 133.77 161.27 134.88 160.85 135.30 159.91 L 135.74 158.95 C 136.17 158.01 135.75 156.90 134.81 156.48 C 133.87 156.05 132.76 156.47 132.34 157.41 Z M 131.90 158.40 L 131.48 159.35 C 131.07 160.29 131.50 161.38 132.44 161.79 C 133.38 162.21 134.48 161.78 134.89 160.84 L 135.31 159.89 C 135.72 158.95 135.29 157.85 134.35 157.44 C 133.41 157.03 132.31 157.46 131.90 158.40 Z M 131.49 159.36 L 131.12 160.22 C 130.72 161.16 131.15 162.25 132.09 162.65 C 133.03 163.05 134.12 162.62 134.52 161.68 L 134.89 160.82 C 135.29 159.88 134.85 158.79 133.91 158.39 C 132.97 157.99 131.89 158.42 131.49 159.36 Z M 131.13 160.22 L 130.77 161.05 C 130.37 161.99 130.80 163.07 131.74 163.47 C 132.67 163.87 133.76 163.44 134.16 162.51 L 134.51 161.67 C 134.91 160.74 134.48 159.66 133.55 159.26 C 132.61 158.86 131.53 159.29 131.13 160.22 Z M 130.78 161.04 L 130.39 161.96 C 129.98 162.88 130.40 163.96 131.33 164.37 C 132.26 164.78 133.34 164.35 133.74 163.43 L 134.14 162.52 C 134.55 161.59 134.13 160.51 133.20 160.10 C 132.27 159.69 131.19 160.12 130.78 161.04 Z M 130.39 161.96 L 129.99 162.87 C 129.58 163.79 130.00 164.87 130.93 165.28 C 131.85 165.68 132.93 165.27 133.33 164.34 L 133.74 163.43 C 134.14 162.50 133.72 161.43 132.80 161.02 C 131.88 160.61 130.80 161.03 130.39 161.96 Z M 129.99 162.89 L 129.59 163.81 C 129.20 164.73 129.62 165.80 130.54 166.20 C 131.47 166.60 132.54 166.17 132.93 165.25 L 133.33 164.33 C 133.73 163.40 133.31 162.33 132.38 161.94 C 131.46 161.54 130.39 161.96 129.99 162.89 Z M 129.59 163.84 L 129.21 164.74 C 128.83 165.67 129.27 166.73 130.19 167.11 C 131.12 167.50 132.18 167.06 132.56 166.13 L 132.94 165.22 C 133.32 164.30 132.88 163.24 131.96 162.86 C 131.03 162.47 129.97 162.91 129.59 163.84 Z M 129.21 164.77 L 128.84 165.69 C 128.47 166.61 128.92 167.66 129.84 168.04 C 130.77 168.41 131.82 167.96 132.19 167.03 L 132.56 166.11 C 132.93 165.19 132.49 164.14 131.56 163.76 C 130.64 163.39 129.58 163.84 129.21 164.77 Z M 128.85 165.70 L 128.47 166.64 C 128.11 167.56 128.56 168.61 129.48 168.97 C 130.40 169.34 131.45 168.89 131.81 167.96 L 132.19 167.02 C 132.55 166.10 132.10 165.06 131.18 164.69 C 130.26 164.32 129.21 164.78 128.85 165.70 Z M 128.48 166.64 L 128.13 167.53 C 127.77 168.45 128.22 169.48 129.14 169.85 C 130.06 170.21 131.10 169.76 131.46 168.84 L 131.81 167.96 C 132.17 167.04 131.72 166.00 130.80 165.64 C 129.88 165.27 128.84 165.72 128.48 166.64 Z M 128.13 167.54 L 127.80 168.41 C 127.44 169.32 127.89 170.36 128.81 170.71 C 129.73 171.07 130.76 170.62 131.12 169.70 L 131.46 168.83 C 131.81 167.91 131.36 166.88 130.44 166.52 C 129.52 166.17 128.49 166.62 128.13 167.54 Z M 127.79 168.44 L 127.45 169.37 C 127.11 170.29 127.58 171.31 128.49 171.65 C 129.41 171.99 130.43 171.52 130.77 170.61 L 131.12 169.67 C 131.46 168.75 130.99 167.73 130.07 167.39 C 129.15 167.05 128.13 167.52 127.79 168.44 Z M 127.44 169.42 L 127.09 170.45 C 126.77 171.37 127.26 172.38 128.18 172.69 C 129.10 173.01 130.10 172.52 130.42 171.60 L 130.78 170.56 C 131.09 169.64 130.61 168.64 129.68 168.32 C 128.76 168.01 127.76 168.49 127.44 169.42 Z M 127.08 170.49 L 126.78 171.44 C 126.49 172.36 127.00 173.35 127.92 173.64 C 128.85 173.94 129.84 173.43 130.13 172.50 L 130.43 171.56 C 130.72 170.63 130.21 169.64 129.29 169.35 C 128.36 169.06 127.37 169.57 127.08 170.49 Z M 126.78 171.47 L 126.49 172.42 C 126.22 173.35 126.75 174.32 127.67 174.60 C 128.60 174.87 129.58 174.35 129.85 173.42 L 130.13 172.47 C 130.41 171.54 129.88 170.57 128.95 170.29 C 128.03 170.02 127.05 170.54 126.78 171.47 Z M 126.49 172.45 L 126.21 173.43 C 125.95 174.36 126.50 175.33 127.43 175.59 C 128.35 175.85 129.32 175.30 129.58 174.38 L 129.85 173.39 C 130.11 172.46 129.57 171.50 128.64 171.24 C 127.71 170.98 126.75 171.52 126.49 172.45 Z M 126.21 173.46 L 125.95 174.45 C 125.70 175.38 126.26 176.34 127.19 176.58 C 128.12 176.83 129.07 176.27 129.32 175.34 L 129.58 174.35 C 129.82 173.42 129.27 172.47 128.34 172.22 C 127.41 171.98 126.46 172.53 126.21 173.46 Z M 125.95 174.48 L 125.71 175.45 C 125.47 176.38 126.04 177.33 126.97 177.56 C 127.90 177.79 128.84 177.23 129.07 176.30 L 129.32 175.32 C 129.55 174.39 128.98 173.45 128.05 173.22 C 127.12 172.98 126.18 173.55 125.95 174.48 Z M 125.71 175.49 L 125.46 176.56 C 125.24 177.49 125.82 178.42 126.75 178.63 C 127.68 178.85 128.61 178.27 128.82 177.34 L 129.07 176.26 C 129.29 175.33 128.71 174.41 127.78 174.19 C 126.85 173.98 125.92 174.56 125.71 175.49 Z M 125.46 176.61 L 125.25 177.65 C 125.06 178.58 125.67 179.49 126.60 179.67 C 127.53 179.86 128.43 179.25 128.62 178.32 L 128.82 177.28 C 129.01 176.35 128.40 175.45 127.47 175.27 C 126.54 175.08 125.64 175.68 125.46 176.61 Z M 125.25 177.74 L 125.10 178.71 C 124.97 179.64 125.61 180.51 126.55 180.65 C 127.48 180.78 128.34 180.14 128.48 179.20 L 128.62 178.23 C 128.76 177.30 128.11 176.44 127.18 176.30 C 126.25 176.16 125.38 176.81 125.25 177.74 Z M 125.10 178.84 L 125.04 179.74 C 124.97 180.68 125.68 181.48 126.61 181.55 C 127.55 181.61 128.36 180.91 128.42 179.98 L 128.48 179.07 C 128.55 178.14 127.84 177.33 126.91 177.27 C 125.98 177.20 125.17 177.91 125.10 178.84 Z M 125.05 179.94 L 125.09 180.93 C 125.14 181.86 125.93 182.57 126.85 182.53 C 127.78 182.49 128.50 181.70 128.46 180.77 L 128.41 179.78 C 128.37 178.85 127.58 178.13 126.65 178.18 C 125.72 178.22 125.00 179.01 125.05 179.94 Z M 125.13 181.14 L 125.31 182.14 C 125.47 183.04 126.34 183.65 127.25 183.48 C 128.16 183.32 128.76 182.45 128.60 181.55 L 128.42 180.55 C 128.26 179.65 127.39 179.04 126.48 179.21 C 125.57 179.37 124.97 180.24 125.13 181.14 Z M 125.36 182.28 L 125.62 183.22 C 125.86 184.10 126.77 184.62 127.66 184.37 C 128.54 184.13 129.06 183.21 128.81 182.33 L 128.55 181.40 C 128.31 180.51 127.39 180.00 126.51 180.24 C 125.63 180.49 125.11 181.40 125.36 182.28 Z M 125.64 183.27 L 125.80 183.77 C 126.07 184.64 127.00 185.12 127.86 184.85 C 128.73 184.57 129.22 183.65 128.94 182.78 L 128.79 182.28 C 128.51 181.41 127.59 180.93 126.72 181.20 C 125.85 181.48 125.37 182.40 125.64 183.27 Z"
      fill="black"
      fill-rule="nonzero" /><path d="M 143.51 147.08 L 143.07 148.01 C 142.64 148.91 143.02 149.98 143.92 150.41 C 144.82 150.84 145.90 150.46 146.33 149.56 L 146.77 148.63 C 147.20 147.73 146.82 146.65 145.92 146.22 C 145.02 145.79 143.94 146.18 143.51 147.08 Z M 143.02 148.02 L 142.60 148.94 C 142.18 149.87 142.59 150.96 143.52 151.38 C 144.45 151.80 145.54 151.39 145.96 150.47 L 146.38 149.54 C 146.80 148.62 146.39 147.52 145.46 147.10 C 144.53 146.68 143.44 147.09 143.02 148.02 Z M 142.54 148.99 L 142.17 149.90 C 141.77 150.87 142.23 151.97 143.20 152.36 C 144.16 152.75 145.26 152.29 145.65 151.33 L 146.02 150.42 C 146.42 149.45 145.95 148.36 144.99 147.96 C 144.03 147.57 142.93 148.03 142.54 148.99 Z M 142.10 150.00 L 141.79 150.89 C 141.46 151.89 141.99 152.98 142.99 153.32 C 143.99 153.66 145.08 153.12 145.42 152.12 L 145.72 151.23 C 146.06 150.23 145.52 149.14 144.52 148.80 C 143.52 148.46 142.43 149.00 142.10 150.00 Z M 141.74 151.04 L 141.51 151.93 C 141.25 152.97 141.88 154.01 142.91 154.27 C 143.95 154.53 145.00 153.90 145.25 152.87 L 145.48 151.97 C 145.74 150.94 145.11 149.89 144.07 149.63 C 143.04 149.38 141.99 150.00 141.74 151.04 Z M 141.47 152.09 L 141.31 153.05 C 141.14 154.11 141.86 155.10 142.91 155.28 C 143.97 155.45 144.96 154.73 145.14 153.68 L 145.29 152.71 C 145.47 151.66 144.75 150.66 143.70 150.49 C 142.64 150.32 141.65 151.03 141.47 152.09 Z M 141.29 153.18 L 141.19 154.28 C 141.08 155.34 141.87 156.29 142.94 156.39 C 144.01 156.50 144.95 155.71 145.06 154.64 L 145.16 153.55 C 145.26 152.48 144.48 151.53 143.41 151.43 C 142.34 151.33 141.39 152.11 141.29 153.18 Z M 141.18 154.36 L 141.12 155.34 C 141.07 156.41 141.89 157.33 142.97 157.38 C 144.04 157.44 144.96 156.61 145.02 155.54 L 145.07 154.56 C 145.12 153.49 144.30 152.57 143.22 152.51 C 142.15 152.46 141.23 153.28 141.18 154.36 Z M 141.12 155.38 L 141.09 156.38 C 141.06 157.46 141.91 158.36 142.99 158.39 C 144.06 158.42 144.96 157.57 144.99 156.49 L 145.02 155.49 C 145.05 154.42 144.20 153.52 143.12 153.49 C 142.05 153.46 141.15 154.31 141.12 155.38 Z M 141.09 156.42 L 141.08 157.45 C 141.07 158.53 141.93 159.41 143.01 159.43 C 144.08 159.44 144.97 158.57 144.98 157.50 L 144.99 156.46 C 145.00 155.38 144.14 154.50 143.06 154.49 C 141.99 154.48 141.10 155.34 141.09 156.42 Z M 141.08 157.48 L 141.08 158.51 C 141.08 159.59 141.95 160.46 143.03 160.46 C 144.11 160.46 144.98 159.58 144.98 158.51 L 144.98 157.47 C 144.98 156.40 144.11 155.52 143.03 155.52 C 141.95 155.52 141.08 156.40 141.08 157.48 Z M 141.08 158.53 L 141.09 159.51 C 141.10 160.59 141.98 161.46 143.06 161.45 C 144.14 161.44 145.00 160.55 144.99 159.48 L 144.98 158.49 C 144.97 157.41 144.09 156.54 143.01 156.56 C 141.93 156.57 141.07 157.45 141.08 158.53 Z M 141.09 159.53 L 141.11 160.63 C 141.13 161.71 142.02 162.57 143.10 162.54 C 144.18 162.52 145.04 161.63 145.02 160.55 L 144.99 159.46 C 144.97 158.38 144.08 157.52 143.00 157.54 C 141.92 157.56 141.06 158.45 141.09 159.53 Z M 141.11 160.67 L 141.15 161.68 C 141.19 162.76 142.10 163.60 143.18 163.56 C 144.26 163.51 145.10 162.60 145.06 161.52 L 145.02 160.51 C 144.97 159.43 144.06 158.59 142.98 158.63 C 141.90 158.68 141.06 159.59 141.11 160.67 Z M 141.15 161.75 L 141.22 162.71 C 141.31 163.79 142.25 164.59 143.33 164.51 C 144.41 164.43 145.22 163.48 145.13 162.40 L 145.06 161.45 C 144.97 160.37 144.03 159.56 142.95 159.65 C 141.87 159.73 141.06 160.68 141.15 161.75 Z M 141.23 162.80 L 141.35 163.73 C 141.49 164.81 142.47 165.57 143.54 165.43 C 144.62 165.29 145.38 164.31 145.24 163.23 L 145.13 162.31 C 144.99 161.23 144.00 160.47 142.93 160.61 C 141.85 160.74 141.09 161.73 141.23 162.80 Z M 141.36 163.84 L 141.53 164.78 C 141.73 165.85 142.76 166.55 143.83 166.36 C 144.90 166.16 145.60 165.13 145.40 164.06 L 145.23 163.13 C 145.03 162.06 144.01 161.35 142.94 161.55 C 141.87 161.75 141.16 162.77 141.36 163.84 Z M 141.55 164.87 L 141.77 165.83 C 142.02 166.89 143.09 167.55 144.15 167.29 C 145.21 167.04 145.87 165.98 145.61 164.92 L 145.39 163.97 C 145.14 162.91 144.08 162.25 143.02 162.50 C 141.96 162.75 141.30 163.81 141.55 164.87 Z M 141.79 165.91 L 142.06 166.88 C 142.35 167.93 143.44 168.55 144.50 168.26 C 145.55 167.96 146.16 166.87 145.87 165.82 L 145.60 164.84 C 145.31 163.79 144.22 163.18 143.16 163.47 C 142.11 163.76 141.50 164.85 141.79 165.91 Z M 142.07 166.94 L 142.38 167.94 C 142.71 168.98 143.82 169.57 144.87 169.24 C 145.91 168.91 146.50 167.80 146.17 166.76 L 145.86 165.76 C 145.53 164.71 144.42 164.13 143.38 164.46 C 142.33 164.78 141.75 165.90 142.07 166.94 Z M 142.39 167.98 L 142.71 168.92 C 143.06 169.96 144.19 170.52 145.23 170.17 C 146.27 169.82 146.83 168.69 146.48 167.65 L 146.16 166.71 C 145.81 165.67 144.68 165.11 143.64 165.46 C 142.60 165.81 142.04 166.94 142.39 167.98 Z M 142.72 168.96 L 143.06 169.90 C 143.43 170.94 144.58 171.48 145.61 171.10 C 146.65 170.73 147.19 169.58 146.81 168.55 L 146.47 167.61 C 146.10 166.57 144.95 166.03 143.91 166.41 C 142.88 166.78 142.34 167.93 142.72 168.96 Z M 143.07 169.95 L 143.43 170.89 C 143.83 171.92 144.99 172.43 146.02 172.03 C 147.05 171.63 147.57 170.47 147.17 169.44 L 146.80 168.50 C 146.40 167.47 145.24 166.96 144.21 167.36 C 143.18 167.76 142.67 168.92 143.07 169.95 Z M 143.44 170.94 L 143.83 171.87 C 144.26 172.89 145.44 173.38 146.46 172.95 C 147.48 172.52 147.97 171.34 147.54 170.32 L 147.15 169.39 C 146.72 168.37 145.55 167.88 144.52 168.31 C 143.50 168.74 143.02 169.92 143.44 170.94 Z M 143.85 171.92 L 144.27 172.85 C 144.73 173.86 145.92 174.31 146.93 173.86 C 147.95 173.40 148.40 172.20 147.94 171.19 L 147.52 170.27 C 147.06 169.25 145.87 168.80 144.86 169.26 C 143.84 169.72 143.39 170.91 143.85 171.92 Z M 144.29 172.91 L 144.74 173.82 C 145.23 174.82 146.44 175.23 147.44 174.74 C 148.44 174.25 148.86 173.04 148.36 172.04 L 147.92 171.13 C 147.42 170.13 146.21 169.72 145.21 170.21 C 144.21 170.70 143.80 171.91 144.29 172.91 Z M 144.77 173.89 L 145.24 174.77 C 145.77 175.75 147.00 176.12 147.98 175.59 C 148.97 175.06 149.34 173.84 148.81 172.85 L 148.33 171.97 C 147.81 170.99 146.58 170.62 145.60 171.15 C 144.61 171.68 144.24 172.90 144.77 173.89 Z M 145.28 174.84 L 145.78 175.69 C 146.34 176.65 147.58 176.98 148.55 176.41 C 149.52 175.84 149.84 174.60 149.27 173.63 L 148.77 172.78 C 148.21 171.82 146.96 171.49 146.00 172.06 C 145.03 172.63 144.71 173.87 145.28 174.84 Z M 145.81 175.76 L 146.35 176.59 C 146.95 177.53 148.21 177.81 149.16 177.20 C 150.10 176.59 150.37 175.33 149.77 174.39 L 149.23 173.56 C 148.63 172.62 147.37 172.34 146.42 172.95 C 145.48 173.56 145.21 174.82 145.81 175.76 Z M 146.39 176.67 L 146.97 177.48 C 147.62 178.40 148.89 178.62 149.81 177.96 C 150.73 177.31 150.95 176.04 150.29 175.12 L 149.72 174.31 C 149.07 173.39 147.80 173.17 146.88 173.82 C 145.96 174.47 145.74 175.75 146.39 176.67 Z M 147.02 177.56 L 147.63 178.34 C 148.33 179.24 149.61 179.39 150.50 178.69 C 151.40 178.00 151.55 176.71 150.86 175.82 L 150.24 175.04 C 149.55 174.15 148.26 173.99 147.37 174.69 C 146.48 175.38 146.32 176.67 147.02 177.56 Z M 147.69 178.43 L 148.35 179.19 C 149.09 180.04 150.39 180.14 151.25 179.39 C 152.11 178.65 152.20 177.35 151.45 176.49 L 150.79 175.73 C 150.05 174.88 148.75 174.79 147.89 175.53 C 147.04 176.28 146.95 177.57 147.69 178.43 Z M 148.41 179.27 L 149.12 180.00 C 149.91 180.82 151.21 180.84 152.03 180.05 C 152.85 179.25 152.88 177.95 152.08 177.13 L 151.38 176.40 C 150.59 175.58 149.28 175.56 148.46 176.35 C 147.64 177.15 147.62 178.45 148.41 179.27 Z M 149.19 180.08 L 149.92 180.75 C 150.75 181.53 152.06 181.48 152.84 180.64 C 153.62 179.80 153.57 178.49 152.73 177.72 L 152.01 177.04 C 151.17 176.27 149.86 176.32 149.08 177.15 C 148.30 177.99 148.35 179.30 149.19 180.08 Z M 150.01 180.84 L 150.78 181.47 C 151.67 182.20 152.98 182.06 153.70 181.18 C 154.43 180.29 154.30 178.98 153.41 178.26 L 152.64 177.63 C 151.75 176.90 150.44 177.03 149.72 177.92 C 148.99 178.81 149.12 180.11 150.01 180.84 Z M 150.90 181.56 L 151.72 182.14 C 152.66 182.80 153.96 182.58 154.62 181.64 C 155.28 180.70 155.05 179.40 154.11 178.74 L 153.29 178.17 C 152.35 177.51 151.06 177.73 150.40 178.67 C 149.74 179.61 149.96 180.90 150.90 181.56 Z M 151.87 182.24 L 152.74 182.75 C 153.73 183.33 155.01 183.00 155.59 182.01 C 156.17 181.01 155.83 179.74 154.84 179.16 L 153.97 178.65 C 152.98 178.07 151.70 178.40 151.12 179.39 C 150.54 180.38 150.87 181.66 151.87 182.24 Z M 152.90 182.84 L 153.77 183.25 C 154.81 183.73 156.05 183.29 156.54 182.25 C 157.03 181.20 156.58 179.96 155.54 179.47 L 154.68 179.07 C 153.63 178.58 152.39 179.03 151.90 180.07 C 151.41 181.11 151.86 182.35 152.90 182.84 Z M 153.93 183.31 L 154.83 183.65 C 155.91 184.05 157.11 183.50 157.51 182.42 C 157.91 181.34 157.36 180.14 156.28 179.74 L 155.38 179.40 C 154.30 179.00 153.10 179.56 152.70 180.64 C 152.30 181.72 152.85 182.91 153.93 183.31 Z M 154.98 183.70 L 155.93 183.97 C 157.04 184.29 158.19 183.64 158.51 182.54 C 158.83 181.43 158.19 180.28 157.08 179.96 L 156.13 179.69 C 155.02 179.37 153.86 180.01 153.55 181.12 C 153.23 182.23 153.87 183.38 154.98 183.70 Z M 156.07 184.00 L 157.07 184.22 C 158.20 184.46 159.31 183.75 159.55 182.62 C 159.80 181.50 159.08 180.39 157.95 180.14 L 156.94 179.93 C 155.82 179.68 154.71 180.40 154.47 181.52 C 154.22 182.65 154.94 183.76 156.07 184.00 Z M 157.19 184.24 L 158.24 184.41 C 159.38 184.59 160.44 183.81 160.63 182.68 C 160.81 181.54 160.03 180.47 158.89 180.29 L 157.84 180.12 C 156.70 179.94 155.64 180.72 155.45 181.85 C 155.27 182.99 156.05 184.06 157.19 184.24 Z M 158.32 184.42 L 159.34 184.54 C 160.48 184.67 161.52 183.85 161.65 182.71 C 161.78 181.57 160.96 180.53 159.82 180.40 L 158.81 180.28 C 157.66 180.14 156.63 180.96 156.50 182.11 C 156.36 183.25 157.18 184.29 158.32 184.42 Z M 159.40 184.54 L 160.43 184.63 C 161.58 184.73 162.59 183.88 162.69 182.74 C 162.79 181.59 161.94 180.58 160.79 180.48 L 159.76 180.39 C 158.61 180.29 157.60 181.14 157.50 182.29 C 157.40 183.43 158.25 184.44 159.40 184.54 Z M 160.48 184.63 L 161.51 184.70 C 162.65 184.77 163.64 183.90 163.72 182.75 C 163.79 181.61 162.92 180.62 161.77 180.54 L 160.75 180.48 C 159.60 180.41 158.61 181.28 158.54 182.42 C 158.46 183.57 159.33 184.56 160.48 184.63 Z M 161.54 184.70 L 162.53 184.75 C 163.68 184.80 164.65 183.91 164.71 182.76 C 164.76 181.62 163.87 180.64 162.72 180.59 L 161.74 180.54 C 160.59 180.49 159.61 181.38 159.56 182.53 C 159.51 183.67 160.39 184.65 161.54 184.70 Z M 162.56 184.75 L 163.48 184.78 C 164.63 184.82 165.59 183.92 165.63 182.77 C 165.67 181.62 164.77 180.66 163.62 180.62 L 162.70 180.59 C 161.55 180.55 160.59 181.45 160.55 182.60 C 160.51 183.75 161.41 184.71 162.56 184.75 Z M 163.50 184.77 L 164.61 184.80 C 165.76 184.83 166.71 183.92 166.73 182.77 C 166.76 181.63 165.85 180.68 164.71 180.65 L 163.60 180.63 C 162.46 180.60 161.51 181.51 161.48 182.65 C 161.45 183.80 162.36 184.75 163.50 184.77 Z M 164.63 184.79 L 165.63 184.80 C 166.77 184.82 167.71 183.91 167.72 182.77 C 167.73 181.63 166.82 180.69 165.68 180.68 L 164.69 180.66 C 163.55 180.65 162.61 181.56 162.60 182.70 C 162.58 183.84 163.49 184.77 164.63 184.79 Z M 165.65 184.79 L 166.59 184.80 C 167.72 184.80 168.65 183.89 168.65 182.75 C 168.66 181.62 167.74 180.69 166.61 180.69 L 165.67 180.69 C 164.53 180.68 163.61 181.59 163.60 182.73 C 163.60 183.86 164.51 184.79 165.65 184.79 Z M 166.60 184.79 L 167.54 184.79 C 168.67 184.79 169.59 183.87 169.59 182.74 C 169.59 181.62 168.67 180.70 167.55 180.70 L 166.60 180.70 C 165.47 180.70 164.56 181.61 164.56 182.74 C 164.56 183.87 165.47 184.79 166.60 184.79 Z M 167.55 184.78 L 168.53 184.77 C 169.65 184.77 170.56 183.86 170.55 182.74 C 170.55 181.61 169.64 180.71 168.52 180.71 L 167.54 180.71 C 166.42 180.71 165.51 181.63 165.51 182.75 C 165.52 183.87 166.43 184.78 167.55 184.78 Z M 168.55 184.76 L 169.56 184.75 C 170.67 184.73 171.56 183.81 171.55 182.70 C 171.53 181.58 170.61 180.69 169.50 180.71 L 168.49 180.72 C 167.37 180.74 166.48 181.66 166.50 182.77 C 166.52 183.89 167.44 184.78 168.55 184.76 Z M 169.60 184.73 L 170.62 184.69 C 171.73 184.65 172.59 183.72 172.55 182.61 C 172.51 181.50 171.57 180.64 170.47 180.68 L 169.45 180.72 C 168.34 180.76 167.48 181.69 167.52 182.80 C 167.56 183.91 168.49 184.78 169.60 184.73 Z M 170.69 184.68 L 171.70 184.61 C 172.80 184.52 173.62 183.57 173.54 182.47 C 173.46 181.37 172.51 180.54 171.41 180.62 L 170.40 180.70 C 169.30 180.78 168.47 181.73 168.55 182.83 C 168.63 183.93 169.59 184.76 170.69 184.68 Z M 171.78 184.58 L 172.78 184.47 C 173.87 184.34 174.65 183.36 174.52 182.27 C 174.39 181.18 173.41 180.40 172.32 180.53 L 171.32 180.64 C 170.23 180.77 169.45 181.75 169.58 182.84 C 169.71 183.93 170.69 184.71 171.78 184.58 Z M 172.85 184.44 L 173.84 184.29 C 174.91 184.13 175.65 183.12 175.48 182.04 C 175.31 180.97 174.31 180.23 173.23 180.40 L 172.25 180.55 C 171.17 180.72 170.44 181.72 170.60 182.80 C 170.77 183.87 171.78 184.61 172.85 184.44 Z M 173.89 184.27 L 174.87 184.09 C 175.93 183.89 176.63 182.87 176.44 181.81 C 176.24 180.74 175.22 180.04 174.15 180.24 L 173.18 180.42 C 172.11 180.62 171.41 181.64 171.61 182.70 C 171.81 183.77 172.83 184.47 173.89 184.27 Z M 174.91 184.07 L 175.88 183.86 C 176.93 183.64 177.61 182.62 177.39 181.57 C 177.17 180.51 176.14 179.84 175.09 180.06 L 174.12 180.26 C 173.07 180.48 172.39 181.51 172.61 182.56 C 172.83 183.61 173.86 184.28 174.91 184.07 Z M 175.91 183.84 L 176.89 183.62 C 177.93 183.39 178.58 182.36 178.34 181.32 C 178.11 180.28 177.08 179.63 176.04 179.86 L 175.07 180.08 C 174.03 180.31 173.37 181.35 173.61 182.38 C 173.84 183.42 174.87 184.07 175.91 183.84 Z M 176.92 183.60 L 177.89 183.36 C 178.92 183.11 179.55 182.08 179.30 181.05 C 179.05 180.03 178.01 179.40 176.99 179.65 L 176.01 179.88 C 174.99 180.13 174.36 181.17 174.61 182.19 C 174.86 183.22 175.89 183.85 176.92 183.60 Z M 177.92 183.34 L 178.89 183.08 C 179.90 182.82 180.51 181.78 180.24 180.77 C 179.97 179.76 178.94 179.15 177.93 179.42 L 176.96 179.67 C 175.95 179.94 175.34 180.97 175.61 181.99 C 175.87 183.00 176.91 183.60 177.92 183.34 Z M 178.92 183.05 L 179.89 182.78 C 180.89 182.49 181.47 181.45 181.18 180.46 C 180.90 179.46 179.86 178.88 178.86 179.17 L 177.89 179.44 C 176.90 179.73 176.32 180.77 176.60 181.76 C 176.89 182.76 177.93 183.34 178.92 183.05 Z M 179.92 182.75 L 180.89 182.45 C 181.87 182.15 182.43 181.11 182.12 180.13 C 181.82 179.15 180.78 178.60 179.80 178.90 L 178.83 179.20 C 177.85 179.50 177.30 180.54 177.60 181.52 C 177.90 182.50 178.94 183.05 179.92 182.75 Z M 180.92 182.42 L 181.87 182.12 C 182.83 181.80 183.36 180.76 183.05 179.80 C 182.73 178.83 181.69 178.30 180.73 178.62 L 179.78 178.93 C 178.81 179.24 178.28 180.28 178.60 181.24 C 178.91 182.21 179.95 182.74 180.92 182.42 Z M 181.88 182.09 L 182.81 181.78 C 183.77 181.45 184.28 180.42 183.95 179.47 C 183.63 178.51 182.60 178.00 181.64 178.32 L 180.71 178.64 C 179.76 178.96 179.25 180.00 179.57 180.95 C 179.89 181.90 180.93 182.41 181.88 182.09 Z M 182.82 181.75 L 183.78 181.42 C 184.72 181.09 185.22 180.06 184.89 179.12 C 184.56 178.18 183.54 177.69 182.60 178.01 L 181.64 178.35 C 180.70 178.68 180.20 179.70 180.53 180.64 C 180.85 181.58 181.88 182.08 182.82 181.75 Z M 183.79 181.39 L 184.74 181.05 C 185.67 180.72 186.15 179.70 185.82 178.78 C 185.49 177.85 184.47 177.37 183.55 177.70 L 182.59 178.04 C 181.66 178.37 181.18 179.39 181.51 180.31 C 181.84 181.24 182.86 181.72 183.79 181.39 Z M 184.75 181.03 L 185.68 180.69 C 186.59 180.35 187.06 179.34 186.73 178.43 C 186.39 177.51 185.38 177.05 184.47 177.38 L 183.54 177.72 C 182.62 178.06 182.16 179.07 182.49 179.98 C 182.83 180.90 183.84 181.36 184.75 181.03 Z M 185.69 180.66 L 186.58 180.32 C 187.48 179.98 187.94 178.98 187.59 178.08 C 187.25 177.18 186.25 176.73 185.35 177.07 L 184.46 177.41 C 183.56 177.75 183.10 178.75 183.44 179.65 C 183.79 180.55 184.79 181.00 185.69 180.66 Z M 186.60 180.30 L 187.46 179.96 C 188.35 179.60 188.78 178.60 188.42 177.72 C 188.07 176.83 187.07 176.40 186.19 176.75 L 185.33 177.09 C 184.44 177.45 184.01 178.45 184.37 179.33 C 184.72 180.22 185.72 180.65 186.60 180.30 Z M 187.50 179.92 L 188.39 179.54 C 189.25 179.17 189.65 178.16 189.28 177.30 C 188.90 176.43 187.90 176.03 187.03 176.40 L 186.15 176.79 C 185.28 177.16 184.88 178.17 185.26 179.03 C 185.63 179.90 186.64 180.30 187.50 179.92 Z M 188.44 179.50 L 189.40 179.04 C 190.24 178.64 190.60 177.63 190.20 176.79 C 189.79 175.94 188.78 175.59 187.94 175.99 L 186.98 176.44 C 186.14 176.85 185.78 177.86 186.18 178.70 C 186.58 179.54 187.59 179.90 188.44 179.50 Z M 189.44 179.00 L 190.36 178.53 C 191.18 178.10 191.50 177.09 191.07 176.27 C 190.64 175.44 189.63 175.12 188.81 175.55 L 187.89 176.03 C 187.07 176.45 186.75 177.47 187.18 178.29 C 187.61 179.11 188.62 179.43 189.44 179.00 Z M 190.40 178.50 L 191.27 178.01 C 192.07 177.56 192.36 176.55 191.91 175.74 C 191.46 174.94 190.45 174.65 189.64 175.10 L 188.77 175.58 C 187.96 176.03 187.68 177.05 188.12 177.85 C 188.57 178.66 189.59 178.95 190.40 178.50 Z M 191.31 177.98 L 192.20 177.44 C 192.98 176.97 193.24 175.95 192.76 175.17 C 192.29 174.38 191.27 174.13 190.49 174.60 L 189.60 175.13 C 188.81 175.60 188.56 176.62 189.03 177.41 C 189.50 178.20 190.52 178.45 191.31 177.98 Z M 192.25 177.40 L 193.11 176.84 C 193.87 176.34 194.08 175.31 193.58 174.55 C 193.08 173.79 192.06 173.57 191.29 174.07 L 190.43 174.64 C 189.67 175.14 189.46 176.17 189.96 176.93 C 190.46 177.69 191.49 177.90 192.25 177.40 Z M 193.18 176.78 L 193.97 176.20 C 194.70 175.66 194.86 174.63 194.32 173.90 C 193.78 173.17 192.75 173.01 192.02 173.55 L 191.23 174.13 C 190.49 174.67 190.34 175.70 190.88 176.43 C 191.41 177.16 192.44 177.32 193.18 176.78 Z M 194.07 176.11 L 194.89 175.40 C 195.57 174.81 195.64 173.77 195.05 173.09 C 194.46 172.41 193.42 172.33 192.74 172.92 L 191.92 173.64 C 191.23 174.23 191.16 175.26 191.75 175.95 C 192.35 176.63 193.38 176.71 194.07 176.11 Z M 194.99 175.30 L 195.70 174.57 C 196.33 173.91 196.31 172.88 195.65 172.25 C 195.00 171.62 193.97 171.64 193.34 172.29 L 192.63 173.03 C 192.00 173.68 192.02 174.72 192.68 175.34 C 193.33 175.97 194.36 175.95 194.99 175.30 Z M 195.78 174.48 L 196.39 173.75 C 196.97 173.05 196.87 172.02 196.18 171.44 C 195.48 170.86 194.45 170.95 193.87 171.65 L 193.26 172.38 C 192.68 173.08 192.77 174.11 193.47 174.69 C 194.16 175.27 195.20 175.17 195.78 174.48 Z M 196.43 173.70 L 196.97 173.00 C 197.52 172.28 197.39 171.25 196.67 170.70 C 195.95 170.15 194.93 170.28 194.37 171.00 L 193.83 171.70 C 193.28 172.41 193.41 173.44 194.13 173.99 C 194.85 174.55 195.87 174.41 196.43 173.70 Z"
      fill="black"
      fill-rule="nonzero" /><path d="M 155.80 108.81 L 156.48 109.56 C 157.19 110.34 158.40 110.39 159.18 109.68 C 159.96 108.97 160.01 107.76 159.30 106.98 L 158.62 106.23 C 157.91 105.45 156.70 105.40 155.92 106.11 C 155.14 106.82 155.08 108.03 155.80 108.81 Z M 156.63 109.69 L 157.37 110.35 C 158.15 111.05 159.35 110.98 160.05 110.19 C 160.75 109.41 160.68 108.21 159.89 107.51 L 159.15 106.85 C 158.37 106.15 157.17 106.22 156.47 107.00 C 155.77 107.79 155.84 108.99 156.63 109.69 Z M 157.70 110.57 L 158.56 111.06 C 159.47 111.57 160.62 111.25 161.13 110.34 C 161.65 109.43 161.33 108.28 160.42 107.77 L 159.56 107.28 C 158.65 106.77 157.50 107.09 156.98 108.00 C 156.47 108.91 156.79 110.06 157.70 110.57 Z M 158.99 111.23 L 159.86 111.47 C 160.87 111.74 161.90 111.15 162.17 110.14 C 162.44 109.14 161.85 108.10 160.85 107.83 L 159.98 107.60 C 158.98 107.32 157.94 107.92 157.67 108.92 C 157.40 109.92 157.99 110.96 158.99 111.23 Z M 160.16 111.52 L 161.13 111.62 C 162.17 111.73 163.09 110.98 163.20 109.95 C 163.31 108.92 162.56 107.99 161.53 107.88 L 160.55 107.78 C 159.52 107.67 158.60 108.42 158.49 109.45 C 158.38 110.48 159.12 111.41 160.16 111.52 Z M 161.29 111.63 L 162.35 111.65 C 163.39 111.68 164.25 110.86 164.27 109.82 C 164.30 108.79 163.48 107.93 162.44 107.90 L 161.38 107.88 C 160.34 107.85 159.48 108.67 159.46 109.71 C 159.43 110.74 160.25 111.60 161.29 111.63 Z M 162.39 111.65 L 163.44 111.65 C 164.47 111.65 165.31 110.81 165.31 109.78 C 165.31 108.75 164.47 107.91 163.44 107.91 L 162.40 107.91 C 161.36 107.91 160.53 108.74 160.53 109.78 C 160.53 110.81 161.36 111.65 162.39 111.65 Z M 163.44 111.64 L 164.44 111.64 C 165.47 111.64 166.30 110.81 166.30 109.78 C 166.30 108.75 165.47 107.92 164.44 107.92 L 163.44 107.92 C 162.41 107.92 161.57 108.75 161.57 109.78 C 161.57 110.81 162.41 111.64 163.44 111.64 Z M 164.44 111.63 L 165.45 111.63 C 166.48 111.63 167.31 110.80 167.31 109.78 C 167.31 108.76 166.48 107.93 165.45 107.93 L 164.44 107.93 C 163.42 107.93 162.59 108.76 162.59 109.78 C 162.59 110.80 163.42 111.63 164.44 111.63 Z M 165.45 111.62 L 166.46 111.62 C 167.47 111.62 168.30 110.80 168.30 109.78 C 168.30 108.76 167.47 107.94 166.46 107.94 L 165.45 107.94 C 164.44 107.94 163.61 108.76 163.61 109.78 C 163.61 110.80 164.44 111.62 165.45 111.62 Z M 166.45 111.61 L 167.54 111.62 C 168.55 111.62 169.37 110.80 169.38 109.79 C 169.38 108.77 168.56 107.95 167.55 107.95 L 166.46 107.94 C 165.45 107.94 164.62 108.76 164.62 109.78 C 164.62 110.79 165.44 111.61 166.45 111.61 Z M 167.45 111.61 L 168.54 111.66 C 169.55 111.72 170.41 110.94 170.46 109.93 C 170.51 108.92 169.73 108.06 168.72 108.01 L 167.63 107.95 C 166.62 107.90 165.76 108.68 165.71 109.69 C 165.66 110.70 166.44 111.56 167.45 111.61 Z M 168.24 111.62 L 169.15 111.82 C 170.13 112.04 171.11 111.42 171.33 110.43 C 171.54 109.45 170.92 108.47 169.94 108.25 L 169.02 108.05 C 168.04 107.84 167.07 108.46 166.85 109.44 C 166.63 110.43 167.25 111.40 168.24 111.62 Z M 168.51 111.54 L 169.19 112.00 C 170.01 112.57 171.15 112.36 171.72 111.53 C 172.29 110.71 172.08 109.57 171.25 109.00 L 170.57 108.54 C 169.75 107.97 168.61 108.18 168.04 109.01 C 167.47 109.83 167.68 110.97 168.51 111.54 Z M 168.55 111.23 L 168.92 112.07 C 169.32 112.99 170.39 113.41 171.31 113.01 C 172.23 112.60 172.65 111.53 172.25 110.61 L 171.88 109.77 C 171.48 108.85 170.41 108.43 169.49 108.84 C 168.57 109.24 168.15 110.31 168.55 111.23 Z M 168.77 111.29 L 168.74 112.32 C 168.71 113.32 169.50 114.15 170.51 114.18 C 171.51 114.21 172.34 113.42 172.37 112.41 L 172.40 111.39 C 172.43 110.38 171.63 109.55 170.63 109.52 C 169.63 109.50 168.79 110.29 168.77 111.29 Z M 168.86 111.73 L 168.50 112.69 C 168.15 113.63 168.63 114.67 169.57 115.02 C 170.50 115.37 171.55 114.89 171.90 113.95 L 172.25 113.00 C 172.60 112.06 172.13 111.02 171.19 110.67 C 170.25 110.32 169.21 110.79 168.86 111.73 Z M 168.71 112.30 L 168.18 113.07 C 167.61 113.90 167.82 115.02 168.64 115.59 C 169.46 116.15 170.59 115.94 171.15 115.12 L 171.69 114.34 C 172.25 113.52 172.04 112.40 171.22 111.83 C 170.40 111.27 169.27 111.48 168.71 112.30 Z M 168.36 112.86 L 167.66 113.60 C 166.98 114.32 167.02 115.46 167.74 116.14 C 168.46 116.82 169.60 116.79 170.28 116.07 L 170.97 115.33 C 171.65 114.61 171.62 113.47 170.90 112.79 C 170.18 112.11 169.04 112.14 168.36 112.86 Z M 167.80 113.48 L 166.99 114.18 C 166.25 114.82 166.17 115.95 166.82 116.70 C 167.46 117.45 168.59 117.53 169.34 116.88 L 170.14 116.18 C 170.89 115.54 170.97 114.40 170.32 113.66 C 169.68 112.91 168.55 112.83 167.80 113.48 Z M 167.08 114.11 L 166.27 114.73 C 165.49 115.33 165.35 116.46 165.95 117.24 C 166.55 118.02 167.67 118.16 168.45 117.56 L 169.26 116.94 C 170.04 116.34 170.19 115.22 169.58 114.44 C 168.98 113.66 167.86 113.51 167.08 114.11 Z M 166.33 114.69 L 165.51 115.27 C 164.71 115.84 164.52 116.96 165.09 117.76 C 165.66 118.57 166.77 118.76 167.58 118.19 L 168.40 117.61 C 169.20 117.03 169.39 115.92 168.82 115.11 C 168.25 114.31 167.14 114.12 166.33 114.69 Z M 165.56 115.24 L 164.72 115.79 C 163.89 116.34 163.67 117.45 164.22 118.27 C 164.76 119.10 165.87 119.32 166.70 118.77 L 167.53 118.22 C 168.36 117.67 168.58 116.56 168.04 115.74 C 167.49 114.91 166.38 114.69 165.56 115.24 Z M 164.75 115.77 L 163.91 116.30 C 163.07 116.82 162.82 117.93 163.34 118.77 C 163.87 119.60 164.98 119.86 165.81 119.33 L 166.66 118.80 C 167.50 118.27 167.75 117.17 167.22 116.33 C 166.70 115.49 165.59 115.24 164.75 115.77 Z M 163.94 116.28 L 163.11 116.77 C 162.26 117.28 161.99 118.39 162.50 119.23 C 163.01 120.08 164.11 120.36 164.96 119.85 L 165.79 119.35 C 166.64 118.84 166.91 117.74 166.40 116.89 C 165.89 116.04 164.79 115.77 163.94 116.28 Z M 163.15 116.75 L 162.32 117.22 C 161.45 117.71 161.15 118.81 161.64 119.67 C 162.13 120.53 163.23 120.84 164.09 120.35 L 164.92 119.87 C 165.79 119.38 166.09 118.28 165.60 117.42 C 165.11 116.56 164.01 116.26 163.15 116.75 Z M 162.37 117.19 L 161.49 117.65 C 160.61 118.11 160.27 119.20 160.74 120.08 C 161.20 120.96 162.29 121.30 163.17 120.84 L 164.04 120.38 C 164.92 119.91 165.26 118.83 164.80 117.95 C 164.33 117.07 163.25 116.73 162.37 117.19 Z M 161.55 117.62 L 160.60 118.07 C 159.71 118.50 159.33 119.58 159.76 120.47 C 160.19 121.37 161.26 121.75 162.16 121.32 L 163.11 120.87 C 164.00 120.44 164.38 119.36 163.95 118.47 C 163.52 117.57 162.45 117.19 161.55 117.62 Z M 160.66 118.04 L 159.71 118.45 C 158.79 118.85 158.37 119.92 158.77 120.84 C 159.17 121.75 160.24 122.17 161.16 121.77 L 162.11 121.36 C 163.02 120.96 163.44 119.89 163.04 118.97 C 162.64 118.05 161.58 117.64 160.66 118.04 Z M 159.70 118.43 L 158.75 118.84 C 157.82 119.25 157.40 120.33 157.81 121.26 C 158.21 122.19 159.29 122.61 160.22 122.20 L 161.16 121.79 C 162.09 121.39 162.52 120.30 162.11 119.38 C 161.71 118.45 160.62 118.03 159.70 118.43 Z M 158.65 118.86 L 157.73 119.32 C 156.82 119.78 156.45 120.90 156.91 121.82 C 157.37 122.74 158.48 123.11 159.40 122.65 L 160.32 122.18 C 161.24 121.72 161.61 120.61 161.15 119.69 C 160.69 118.77 159.57 118.40 158.65 118.86 Z M 157.54 119.41 L 156.71 119.95 C 155.84 120.52 155.59 121.68 156.16 122.56 C 156.73 123.43 157.90 123.67 158.77 123.10 L 159.60 122.56 C 160.47 121.99 160.71 120.83 160.14 119.96 C 159.58 119.08 158.41 118.84 157.54 119.41 Z M 156.41 120.15 L 155.74 120.80 C 154.98 121.54 154.96 122.75 155.70 123.50 C 156.43 124.26 157.64 124.28 158.40 123.55 L 159.07 122.90 C 159.82 122.16 159.84 120.95 159.11 120.20 C 158.38 119.44 157.17 119.42 156.41 120.15 Z M 155.40 121.21 L 154.92 122.05 C 154.38 122.97 154.70 124.15 155.62 124.68 C 156.54 125.21 157.71 124.90 158.25 123.98 L 158.73 123.14 C 159.27 122.22 158.95 121.04 158.03 120.51 C 157.11 119.98 155.94 120.29 155.40 121.21 Z M 154.73 122.48 L 154.46 123.44 C 154.16 124.47 154.75 125.53 155.77 125.83 C 156.79 126.12 157.86 125.53 158.15 124.51 L 158.43 123.55 C 158.73 122.53 158.14 121.46 157.11 121.17 C 156.09 120.87 155.03 121.46 154.73 122.48 Z M 154.39 123.74 L 154.27 124.75 C 154.14 125.81 154.89 126.77 155.95 126.90 C 157.00 127.03 157.96 126.27 158.09 125.22 L 158.22 124.21 C 158.34 123.16 157.59 122.20 156.54 122.07 C 155.48 121.94 154.52 122.69 154.39 123.74 Z M 154.26 124.92 L 154.23 125.92 C 154.19 126.98 155.03 127.87 156.09 127.91 C 157.15 127.94 158.04 127.11 158.07 126.04 L 158.11 125.05 C 158.14 123.99 157.31 123.10 156.24 123.06 C 155.18 123.03 154.29 123.86 154.26 124.92 Z M 154.23 125.98 L 154.23 127.02 C 154.23 128.08 155.09 128.94 156.15 128.94 C 157.21 128.94 158.07 128.08 158.07 127.02 L 158.07 125.98 C 158.07 124.92 157.21 124.06 156.15 124.06 C 155.09 124.06 154.23 124.92 154.23 125.98 Z M 154.23 127.02 L 154.24 128.04 C 154.24 129.10 155.10 129.96 156.15 129.95 C 157.21 129.95 158.07 129.09 158.07 128.04 L 158.06 127.01 C 158.06 125.96 157.20 125.10 156.15 125.10 C 155.09 125.10 154.23 125.96 154.23 127.02 Z M 154.24 128.05 L 154.25 129.01 C 154.26 130.06 155.12 130.91 156.17 130.90 C 157.22 130.90 158.07 130.04 158.06 128.99 L 158.06 128.03 C 158.05 126.97 157.19 126.13 156.14 126.13 C 155.09 126.14 154.24 127.00 154.24 128.05 Z M 154.26 129.03 L 154.27 129.98 C 154.29 131.03 155.15 131.87 156.20 131.85 C 157.25 131.84 158.08 130.98 158.07 129.93 L 158.05 128.97 C 158.04 127.92 157.18 127.09 156.13 127.10 C 155.08 127.12 154.24 127.98 154.26 129.03 Z M 154.28 130.00 L 154.30 130.95 C 154.33 131.99 155.19 132.82 156.24 132.79 C 157.28 132.77 158.10 131.91 158.08 130.86 L 158.06 129.91 C 158.03 128.87 157.17 128.05 156.13 128.07 C 155.09 128.09 154.26 128.96 154.28 130.00 Z M 154.31 130.96 L 154.34 131.95 C 154.37 132.99 155.23 133.81 156.27 133.78 C 157.31 133.75 158.13 132.89 158.10 131.85 L 158.07 130.86 C 158.05 129.82 157.18 129.00 156.14 129.03 C 155.10 129.05 154.29 129.92 154.31 130.96 Z M 154.35 131.95 L 154.37 132.97 C 154.40 134.01 155.26 134.82 156.29 134.80 C 157.32 134.77 158.14 133.91 158.12 132.88 L 158.09 131.85 C 158.07 130.82 157.21 130.00 156.17 130.03 C 155.14 130.05 154.32 130.91 154.35 131.95 Z M 154.38 132.96 L 154.40 133.98 C 154.42 135.02 155.27 135.83 156.30 135.82 C 157.33 135.80 158.15 134.95 158.13 133.91 L 158.11 132.89 C 158.09 131.86 157.24 131.04 156.21 131.06 C 155.18 131.08 154.36 131.93 154.38 132.96 Z M 154.41 133.97 L 154.42 134.95 C 154.43 135.98 155.27 136.80 156.29 136.79 C 157.32 136.78 158.14 135.94 158.13 134.91 L 158.12 133.93 C 158.11 132.90 157.27 132.08 156.24 132.09 C 155.22 132.10 154.39 132.94 154.41 133.97 Z M 154.42 134.94 L 154.43 135.93 C 154.44 136.95 155.27 137.78 156.29 137.77 C 157.31 137.77 158.13 136.94 158.13 135.91 L 158.12 134.92 C 158.12 133.90 157.29 133.07 156.26 133.08 C 155.24 133.09 154.42 133.92 154.42 134.94 Z M 154.44 135.93 L 154.44 136.94 C 154.44 137.95 155.27 138.78 156.28 138.78 C 157.30 138.77 158.12 137.95 158.12 136.93 L 158.12 135.92 C 158.12 134.90 157.29 134.08 156.28 134.08 C 155.26 134.08 154.44 134.91 154.44 135.93 Z M 154.45 136.93 L 154.45 137.95 C 154.45 138.96 155.27 139.78 156.28 139.78 C 157.29 139.78 158.11 138.96 158.11 137.95 L 158.11 136.93 C 158.11 135.92 157.29 135.10 156.28 135.10 C 155.27 135.10 154.45 135.92 154.45 136.93 Z M 154.46 137.95 L 154.46 138.92 C 154.46 139.93 155.27 140.75 156.28 140.75 C 157.29 140.75 158.11 139.93 158.11 138.92 L 158.11 137.95 C 158.11 136.94 157.29 136.12 156.28 136.12 C 155.27 136.12 154.46 136.94 154.46 137.95 Z M 154.46 138.92 L 154.46 139.92 C 154.46 140.92 155.28 141.73 156.28 141.73 C 157.29 141.73 158.10 140.92 158.10 139.92 L 158.10 138.92 C 158.10 137.92 157.29 137.10 156.28 137.10 C 155.28 137.10 154.46 137.92 154.46 138.92 Z M 154.47 139.92 L 154.47 140.93 C 154.47 141.93 155.28 142.74 156.28 142.74 C 157.28 142.74 158.09 141.93 158.09 140.93 L 158.09 139.92 C 158.09 138.92 157.28 138.11 156.28 138.11 C 155.28 138.11 154.47 138.92 154.47 139.92 Z M 154.48 140.93 L 154.48 141.95 C 154.48 142.95 155.29 143.76 156.28 143.76 C 157.28 143.76 158.08 142.95 158.08 141.95 L 158.08 140.93 C 158.08 139.93 157.28 139.12 156.28 139.12 C 155.29 139.12 154.48 139.93 154.48 140.93 Z M 154.49 141.95 L 154.49 142.97 C 154.49 143.96 155.29 144.76 156.28 144.76 C 157.27 144.76 158.08 143.96 158.08 142.97 L 158.08 141.95 C 158.08 140.96 157.27 140.16 156.28 140.16 C 155.29 140.16 154.49 140.96 154.49 141.95 Z M 154.49 142.97 L 154.49 143.99 C 154.49 144.97 155.29 145.77 156.28 145.77 C 157.27 145.77 158.07 144.97 158.07 143.99 L 158.07 142.97 C 158.07 141.98 157.27 141.18 156.28 141.18 C 155.29 141.18 154.49 141.98 154.49 142.97 Z M 154.50 143.99 L 154.50 144.99 C 154.50 145.98 155.30 146.77 156.28 146.77 C 157.26 146.77 158.06 145.98 158.06 144.99 L 158.06 143.99 C 158.06 143.00 157.26 142.21 156.28 142.21 C 155.30 142.21 154.50 143.00 154.50 143.99 Z M 154.51 144.99 L 154.51 145.98 C 154.51 146.96 155.30 147.75 156.28 147.75 C 157.26 147.75 158.05 146.96 158.05 145.98 L 158.05 144.99 C 158.05 144.02 157.26 143.22 156.28 143.22 C 155.30 143.22 154.51 144.02 154.51 144.99 Z M 154.52 145.98 L 154.52 146.97 C 154.52 147.94 155.31 148.73 156.28 148.73 C 157.25 148.73 158.04 147.94 158.04 146.97 L 158.04 145.98 C 158.04 145.01 157.25 144.22 156.28 144.22 C 155.31 144.22 154.52 145.01 154.52 145.98 Z M 154.53 146.97 L 154.53 147.97 C 154.53 148.94 155.31 149.72 156.28 149.72 C 157.25 149.72 158.03 148.94 158.03 147.97 L 158.03 146.97 C 158.03 146.00 157.25 145.22 156.28 145.22 C 155.31 145.22 154.53 146.00 154.53 146.97 Z M 154.54 147.97 L 154.54 148.96 C 154.54 149.92 155.32 150.70 156.28 150.70 C 157.24 150.70 158.02 149.92 158.02 148.96 L 158.02 147.97 C 158.02 147.01 157.24 146.23 156.28 146.23 C 155.32 146.23 154.54 147.01 154.54 147.97 Z M 154.55 148.96 L 154.55 149.95 C 154.55 150.91 155.33 151.68 156.28 151.68 C 157.24 151.68 158.01 150.91 158.01 149.95 L 158.01 148.96 C 158.01 148.00 157.24 147.23 156.28 147.23 C 155.33 147.23 154.55 148.00 154.55 148.96 Z M 154.56 149.95 L 154.56 150.96 C 154.56 151.91 155.33 152.68 156.28 152.68 C 157.23 152.68 158.00 151.91 158.00 150.96 L 158.00 149.95 C 158.00 149.00 157.23 148.23 156.28 148.23 C 155.33 148.23 154.56 149.00 154.56 149.95 Z M 154.57 150.96 L 154.58 151.98 C 154.58 152.93 155.34 153.69 156.29 153.69 C 157.23 153.69 157.99 152.92 157.99 151.98 L 157.99 150.96 C 157.99 150.01 157.22 149.25 156.28 149.25 C 155.33 149.25 154.57 150.02 154.57 150.96 Z M 154.59 152.00 L 154.59 153.02 C 154.60 153.96 155.37 154.71 156.31 154.70 C 157.25 154.69 158.00 153.92 157.99 152.99 L 157.98 151.96 C 157.97 151.03 157.21 150.27 156.27 150.28 C 155.33 150.29 154.58 151.06 154.59 152.00 Z M 154.61 153.04 L 154.63 154.04 C 154.65 154.97 155.42 155.71 156.35 155.69 C 157.28 155.67 158.02 154.89 158.00 153.96 L 157.98 152.96 C 157.96 152.03 157.19 151.29 156.26 151.31 C 155.32 151.33 154.58 152.11 154.61 153.04 Z M 154.64 154.07 L 154.68 155.05 C 154.72 155.97 155.50 156.69 156.43 156.65 C 157.36 156.61 158.07 155.83 158.03 154.90 L 157.99 153.93 C 157.95 153.00 157.17 152.28 156.24 152.32 C 155.32 152.36 154.60 153.15 154.64 154.07 Z M 154.69 155.10 L 154.77 156.15 C 154.84 157.07 155.64 157.76 156.56 157.70 C 157.48 157.63 158.17 156.83 158.10 155.91 L 158.02 154.85 C 157.95 153.93 157.15 153.24 156.23 153.31 C 155.32 153.38 154.63 154.18 154.69 155.10 Z M 154.79 156.20 L 154.89 157.18 C 154.98 158.09 155.79 158.76 156.70 158.66 C 157.61 158.57 158.28 157.76 158.18 156.85 L 158.08 155.86 C 157.99 154.95 157.18 154.29 156.27 154.38 C 155.36 154.48 154.69 155.29 154.79 156.20 Z M 154.90 157.21 L 155.01 158.15 C 155.12 159.06 155.94 159.70 156.84 159.59 C 157.75 159.48 158.39 158.66 158.28 157.76 L 158.17 156.82 C 158.06 155.92 157.24 155.27 156.34 155.38 C 155.44 155.49 154.79 156.31 154.90 157.21 Z M 155.02 158.16 L 155.05 158.40 C 155.16 159.30 155.98 159.94 156.88 159.83 C 157.78 159.72 158.42 158.90 158.31 158.00 L 158.28 157.75 C 158.16 156.86 157.34 156.22 156.45 156.33 C 155.55 156.44 154.91 157.26 155.02 158.16 Z"
      fill="black"
      fill-rule="nonzero" /><path d="M 159.16 130.95 L 160.13 130.62 C 161.12 130.28 161.65 129.19 161.31 128.19 C 160.97 127.20 159.88 126.67 158.89 127.01 L 157.92 127.34 C 156.92 127.69 156.39 128.77 156.73 129.77 C 157.07 130.77 158.16 131.30 159.16 130.95 Z M 160.10 130.63 L 161.06 130.31 C 162.07 129.98 162.61 128.90 162.28 127.90 C 161.95 126.90 160.87 126.36 159.87 126.68 L 158.91 127.00 C 157.91 127.33 157.36 128.41 157.69 129.41 C 158.02 130.41 159.10 130.96 160.10 130.63 Z M 161.01 130.33 L 161.96 130.05 C 162.97 129.75 163.54 128.69 163.24 127.68 C 162.94 126.66 161.88 126.09 160.87 126.39 L 159.93 126.67 C 158.91 126.97 158.34 128.03 158.64 129.04 C 158.94 130.05 160.00 130.63 161.01 130.33 Z M 161.87 130.07 L 162.83 129.84 C 163.85 129.59 164.48 128.55 164.23 127.53 C 163.97 126.50 162.94 125.88 161.92 126.13 L 160.96 126.36 C 159.93 126.62 159.31 127.65 159.56 128.67 C 159.81 129.70 160.84 130.33 161.87 130.07 Z M 162.72 129.86 L 163.70 129.68 C 164.74 129.49 165.42 128.50 165.23 127.46 C 165.05 126.42 164.05 125.73 163.01 125.92 L 162.03 126.10 C 160.99 126.29 160.30 127.29 160.49 128.33 C 160.68 129.36 161.68 130.05 162.72 129.86 Z M 163.59 129.70 L 164.57 129.58 C 165.62 129.45 166.36 128.50 166.23 127.45 C 166.10 126.40 165.15 125.66 164.10 125.79 L 163.12 125.91 C 162.08 126.04 161.33 126.99 161.46 128.04 C 161.59 129.08 162.54 129.83 163.59 129.70 Z M 164.48 129.59 L 165.46 129.52 C 166.51 129.44 167.30 128.52 167.22 127.47 C 167.15 126.42 166.23 125.63 165.18 125.70 L 164.20 125.78 C 163.14 125.85 162.35 126.77 162.43 127.82 C 162.51 128.87 163.42 129.66 164.48 129.59 Z M 165.39 129.52 L 166.35 129.48 C 167.40 129.45 168.23 128.56 168.19 127.51 C 168.15 126.45 167.27 125.63 166.21 125.67 L 165.25 125.70 C 164.20 125.74 163.37 126.63 163.41 127.68 C 163.45 128.73 164.33 129.56 165.39 129.52 Z M 166.30 129.49 L 167.30 129.48 C 168.35 129.47 169.20 128.60 169.19 127.55 C 169.18 126.49 168.31 125.64 167.26 125.65 L 166.26 125.66 C 165.21 125.67 164.36 126.54 164.37 127.59 C 164.38 128.65 165.24 129.50 166.30 129.49 Z M 167.26 129.48 L 168.30 129.49 C 169.36 129.49 170.22 128.65 170.23 127.59 C 170.24 126.54 169.39 125.67 168.33 125.66 L 167.29 125.65 C 166.24 125.64 165.38 126.49 165.37 127.55 C 165.36 128.60 166.21 129.47 167.26 129.48 Z M 168.27 129.49 L 169.27 129.51 C 170.32 129.53 171.20 128.69 171.22 127.64 C 171.25 126.58 170.41 125.71 169.35 125.69 L 168.36 125.66 C 167.30 125.64 166.43 126.48 166.41 127.53 C 166.38 128.59 167.22 129.46 168.27 129.49 Z M 169.20 129.51 L 170.19 129.56 C 171.25 129.62 172.15 128.82 172.21 127.76 C 172.27 126.71 171.47 125.81 170.41 125.74 L 169.42 125.69 C 168.37 125.63 167.46 126.43 167.40 127.49 C 167.34 128.54 168.15 129.44 169.20 129.51 Z M 170.06 129.55 L 171.06 129.68 C 172.11 129.81 173.06 129.07 173.20 128.02 C 173.33 126.97 172.59 126.02 171.54 125.88 L 170.54 125.76 C 169.49 125.62 168.54 126.37 168.40 127.41 C 168.27 128.46 169.01 129.42 170.06 129.55 Z M 170.87 129.64 L 171.86 129.87 C 172.88 130.11 173.91 129.47 174.15 128.44 C 174.39 127.41 173.75 126.39 172.72 126.15 L 171.73 125.92 C 170.70 125.68 169.68 126.32 169.44 127.35 C 169.20 128.38 169.84 129.40 170.87 129.64 Z M 171.62 129.80 L 172.57 130.16 C 173.56 130.53 174.66 130.02 175.03 129.03 C 175.40 128.04 174.90 126.94 173.91 126.57 L 172.96 126.22 C 171.97 125.85 170.87 126.35 170.50 127.34 C 170.13 128.33 170.63 129.43 171.62 129.80 Z M 172.37 130.07 L 173.27 130.53 C 174.21 131.01 175.37 130.64 175.85 129.70 C 176.33 128.76 175.96 127.61 175.02 127.13 L 174.11 126.66 C 173.17 126.18 172.02 126.55 171.54 127.49 C 171.06 128.43 171.43 129.59 172.37 130.07 Z M 173.11 130.44 L 173.95 130.98 C 174.84 131.55 176.02 131.30 176.60 130.41 C 177.17 129.52 176.91 128.34 176.03 127.77 L 175.18 127.22 C 174.30 126.65 173.11 126.91 172.54 127.79 C 171.97 128.68 172.22 129.86 173.11 130.44 Z M 173.81 130.88 L 174.57 131.47 C 175.41 132.12 176.61 131.98 177.26 131.14 C 177.91 130.31 177.76 129.11 176.93 128.46 L 176.17 127.87 C 175.33 127.22 174.13 127.36 173.48 128.20 C 172.83 129.03 172.98 130.23 173.81 130.88 Z M 174.44 131.36 L 175.19 132.07 C 175.96 132.79 177.17 132.75 177.90 131.98 C 178.62 131.21 178.58 130.00 177.81 129.28 L 177.06 128.57 C 176.29 127.85 175.08 127.89 174.36 128.66 C 173.63 129.43 173.67 130.64 174.44 131.36 Z M 175.07 131.94 L 175.72 132.68 C 176.42 133.47 177.62 133.55 178.42 132.85 C 179.21 132.16 179.29 130.95 178.59 130.16 L 177.94 129.41 C 177.24 128.62 176.04 128.54 175.24 129.24 C 174.45 129.93 174.37 131.14 175.07 131.94 Z M 175.62 132.55 L 176.20 133.34 C 176.83 134.19 178.03 134.37 178.88 133.74 C 179.72 133.11 179.90 131.92 179.27 131.07 L 178.69 130.28 C 178.07 129.43 176.87 129.25 176.02 129.88 C 175.17 130.51 174.99 131.71 175.62 132.55 Z M 176.14 133.24 L 176.67 134.06 C 177.24 134.95 178.42 135.20 179.31 134.63 C 180.19 134.05 180.45 132.87 179.87 131.99 L 179.34 131.17 C 178.77 130.28 177.58 130.03 176.70 130.60 C 175.81 131.18 175.56 132.36 176.14 133.24 Z M 176.62 133.98 L 177.11 134.83 C 177.64 135.75 178.81 136.06 179.72 135.53 C 180.63 135.01 180.94 133.84 180.42 132.93 L 179.92 132.07 C 179.40 131.16 178.23 130.85 177.32 131.37 C 176.40 131.90 176.09 133.07 176.62 133.98 Z M 177.06 134.74 L 177.52 135.64 C 177.99 136.58 179.14 136.96 180.08 136.48 C 181.02 136.01 181.40 134.86 180.92 133.92 L 180.47 133.02 C 179.99 132.08 178.84 131.71 177.91 132.18 C 176.97 132.66 176.59 133.80 177.06 134.74 Z M 177.47 135.53 L 177.88 136.47 C 178.29 137.44 179.41 137.88 180.38 137.47 C 181.34 137.05 181.79 135.93 181.37 134.96 L 180.97 134.03 C 180.55 133.06 179.43 132.62 178.47 133.03 C 177.50 133.45 177.06 134.57 177.47 135.53 Z M 177.83 136.35 L 178.16 137.28 C 178.51 138.27 179.60 138.78 180.59 138.43 C 181.58 138.08 182.09 136.99 181.74 136.00 L 181.41 135.08 C 181.06 134.09 179.97 133.58 178.99 133.93 C 178.00 134.28 177.48 135.37 177.83 136.35 Z M 178.13 137.17 L 178.41 138.13 C 178.71 139.13 179.76 139.70 180.76 139.41 C 181.77 139.12 182.34 138.06 182.05 137.06 L 181.77 136.11 C 181.48 135.10 180.42 134.53 179.42 134.82 C 178.41 135.12 177.84 136.17 178.13 137.17 Z M 178.39 138.04 L 178.63 139.02 C 178.88 140.03 179.90 140.65 180.91 140.41 C 181.93 140.16 182.55 139.14 182.30 138.13 L 182.07 137.15 C 181.82 136.13 180.80 135.51 179.79 135.76 C 178.77 136.00 178.15 137.02 178.39 138.04 Z M 178.62 138.94 L 178.82 139.93 C 179.02 140.95 180.02 141.62 181.04 141.41 C 182.06 141.20 182.72 140.21 182.51 139.19 L 182.32 138.20 C 182.11 137.18 181.12 136.52 180.10 136.73 C 179.08 136.93 178.41 137.92 178.62 138.94 Z M 178.81 139.88 L 178.98 140.84 C 179.15 141.86 180.12 142.55 181.15 142.38 C 182.17 142.21 182.86 141.24 182.68 140.21 L 182.52 139.25 C 182.35 138.22 181.38 137.54 180.35 137.71 C 179.33 137.88 178.64 138.85 178.81 139.88 Z M 178.98 140.79 L 179.12 141.78 C 179.26 142.80 180.21 143.52 181.24 143.37 C 182.26 143.22 182.97 142.27 182.83 141.25 L 182.69 140.26 C 182.54 139.24 181.59 138.53 180.56 138.67 C 179.54 138.82 178.83 139.77 178.98 140.79 Z M 179.12 141.74 L 179.24 142.74 C 179.36 143.77 180.29 144.50 181.32 144.38 C 182.34 144.25 183.07 143.32 182.95 142.30 L 182.83 141.29 C 182.70 140.27 181.77 139.54 180.75 139.66 C 179.72 139.78 178.99 140.71 179.12 141.74 Z M 179.24 142.71 L 179.34 143.72 C 179.45 144.75 180.36 145.49 181.38 145.39 C 182.41 145.29 183.15 144.37 183.05 143.35 L 182.95 142.33 C 182.84 141.31 181.93 140.56 180.91 140.67 C 179.88 140.77 179.14 141.68 179.24 142.71 Z M 179.35 143.69 L 179.43 144.70 C 179.52 145.72 180.41 146.48 181.44 146.39 C 182.46 146.31 183.21 145.41 183.13 144.39 L 183.04 143.38 C 182.96 142.36 182.06 141.60 181.04 141.69 C 180.02 141.77 179.26 142.67 179.35 143.69 Z M 179.44 144.67 L 179.51 145.68 C 179.58 146.69 180.46 147.46 181.47 147.39 C 182.49 147.32 183.26 146.44 183.19 145.42 L 183.12 144.42 C 183.05 143.40 182.17 142.63 181.15 142.70 C 180.14 142.77 179.37 143.65 179.44 144.67 Z M 179.51 145.65 L 179.57 146.64 C 179.62 147.66 180.49 148.44 181.50 148.38 C 182.51 148.33 183.29 147.46 183.24 146.45 L 183.19 145.45 C 183.13 144.44 182.27 143.66 181.25 143.71 C 180.24 143.77 179.46 144.63 179.51 145.65 Z M 179.57 146.62 L 179.61 147.61 C 179.65 148.62 180.50 149.41 181.51 149.37 C 182.52 149.33 183.31 148.48 183.27 147.47 L 183.23 146.48 C 183.19 145.47 182.34 144.68 181.33 144.72 C 180.32 144.76 179.53 145.61 179.57 146.62 Z M 179.62 147.58 L 179.65 148.62 C 179.67 149.62 180.50 150.42 181.51 150.40 C 182.51 150.37 183.31 149.54 183.28 148.54 L 183.26 147.50 C 183.24 146.49 182.40 145.70 181.40 145.72 C 180.39 145.74 179.60 146.58 179.62 147.58 Z M 179.66 148.60 L 179.67 149.60 C 179.68 150.60 180.50 151.40 181.50 151.39 C 182.49 151.38 183.29 150.56 183.28 149.56 L 183.27 148.56 C 183.26 147.56 182.44 146.76 181.44 146.77 C 180.45 146.79 179.65 147.60 179.66 148.60 Z M 179.69 149.59 L 179.69 150.56 C 179.69 151.55 180.50 152.35 181.48 152.35 C 182.47 152.34 183.27 151.54 183.27 150.55 L 183.26 149.58 C 183.26 148.59 182.46 147.79 181.47 147.79 C 180.48 147.80 179.68 148.60 179.69 149.59 Z M 179.70 150.56 L 179.70 151.55 C 179.70 152.53 180.50 153.32 181.48 153.32 C 182.46 153.32 183.25 152.53 183.25 151.55 L 183.25 150.56 C 183.25 149.58 182.46 148.78 181.48 148.78 C 180.50 148.78 179.70 149.58 179.70 150.56 Z M 179.72 151.55 L 179.72 152.57 C 179.72 153.54 180.51 154.33 181.48 154.33 C 182.45 154.33 183.24 153.54 183.24 152.57 L 183.24 151.55 C 183.24 150.57 182.45 149.79 181.48 149.79 C 180.51 149.79 179.72 150.57 179.72 151.55 Z M 179.73 152.57 L 179.73 153.56 C 179.73 154.52 180.51 155.31 181.48 155.31 C 182.44 155.31 183.23 154.52 183.23 153.56 L 183.23 152.57 C 183.23 151.60 182.44 150.82 181.48 150.82 C 180.51 150.82 179.73 151.60 179.73 152.57 Z M 179.74 153.56 L 179.74 154.53 C 179.74 155.48 180.52 156.26 181.48 156.26 C 182.44 156.26 183.21 155.48 183.21 154.53 L 183.21 153.56 C 183.21 152.60 182.44 151.82 181.48 151.82 C 180.52 151.82 179.74 152.60 179.74 153.56 Z M 179.76 154.51 L 179.75 155.49 C 179.73 156.44 180.50 157.22 181.45 157.23 C 182.40 157.24 183.18 156.48 183.19 155.53 L 183.20 154.55 C 183.21 153.60 182.45 152.82 181.50 152.81 C 180.55 152.79 179.77 153.55 179.76 154.51 Z M 179.77 155.38 L 179.69 156.36 C 179.62 157.30 180.33 158.12 181.27 158.19 C 182.21 158.26 183.03 157.55 183.10 156.61 L 183.17 155.63 C 183.24 154.69 182.53 153.88 181.59 153.81 C 180.65 153.74 179.83 154.44 179.77 155.38 Z M 179.73 156.18 L 179.54 157.18 C 179.37 158.10 179.97 158.98 180.89 159.16 C 181.81 159.33 182.69 158.73 182.87 157.81 L 183.06 156.80 C 183.23 155.88 182.63 155.00 181.71 154.83 C 180.79 154.65 179.90 155.26 179.73 156.18 Z M 179.61 156.98 L 179.32 157.88 C 179.03 158.76 179.51 159.71 180.40 159.99 C 181.28 160.28 182.23 159.79 182.51 158.91 L 182.80 158.01 C 183.09 157.13 182.60 156.18 181.72 155.90 C 180.84 155.61 179.89 156.09 179.61 156.98 Z M 179.38 157.74 L 178.99 158.65 C 178.63 159.50 179.03 160.48 179.88 160.84 C 180.73 161.20 181.71 160.80 182.07 159.95 L 182.45 159.04 C 182.81 158.20 182.41 157.22 181.56 156.86 C 180.72 156.50 179.74 156.90 179.38 157.74 Z M 179.04 158.58 L 178.59 159.50 C 178.19 160.33 178.53 161.32 179.36 161.72 C 180.18 162.12 181.17 161.77 181.57 160.95 L 182.02 160.02 C 182.42 159.20 182.08 158.21 181.25 157.81 C 180.43 157.41 179.44 157.75 179.04 158.58 Z M 178.61 159.47 L 178.16 160.37 C 177.74 161.18 178.06 162.17 178.87 162.59 C 179.68 163.00 180.67 162.68 181.09 161.87 L 181.55 160.98 C 181.96 160.17 181.64 159.18 180.83 158.76 C 180.02 158.34 179.03 158.66 178.61 159.47 Z"
      fill="black"
      fill-rule="nonzero" /><path d="M 159.10 141.38 L 158.30 142.35 C 157.66 143.13 157.77 144.29 158.56 144.94 C 159.34 145.59 160.50 145.47 161.15 144.69 L 161.95 143.72 C 162.59 142.93 162.48 141.77 161.69 141.12 C 160.91 140.48 159.75 140.59 159.10 141.38 Z M 158.21 142.45 L 157.59 143.34 C 157.00 144.17 157.20 145.33 158.04 145.92 C 158.87 146.51 160.03 146.31 160.62 145.47 L 161.24 144.58 C 161.83 143.75 161.63 142.59 160.79 142.00 C 159.96 141.41 158.80 141.61 158.21 142.45 Z M 157.36 143.73 L 157.09 144.45 C 156.72 145.41 157.19 146.49 158.15 146.86 C 159.11 147.23 160.19 146.76 160.56 145.80 L 160.84 145.07 C 161.21 144.11 160.73 143.04 159.77 142.67 C 158.81 142.29 157.74 142.77 157.36 143.73 Z M 157.17 145.99 L 157.43 146.49 C 157.91 147.41 159.04 147.76 159.95 147.28 C 160.87 146.80 161.22 145.67 160.75 144.76 L 160.48 144.26 C 160.01 143.34 158.87 142.99 157.96 143.47 C 157.04 143.94 156.69 145.07 157.17 145.99 Z M 158.57 147.43 L 159.40 147.66 C 160.39 147.95 161.43 147.38 161.72 146.38 C 162.00 145.39 161.43 144.35 160.44 144.06 L 159.61 143.82 C 158.61 143.54 157.57 144.11 157.29 145.11 C 157.00 146.10 157.57 147.14 158.57 147.43 Z M 159.85 147.74 L 161.04 147.78 C 162.07 147.81 162.94 147.01 162.98 145.97 C 163.01 144.94 162.20 144.07 161.17 144.03 L 159.98 143.99 C 158.95 143.95 158.08 144.76 158.04 145.80 C 158.01 146.83 158.82 147.70 159.85 147.74 Z M 161.19 147.77 L 162.31 147.72 C 163.34 147.67 164.13 146.79 164.08 145.76 C 164.03 144.73 163.16 143.94 162.13 143.98 L 161.01 144.04 C 159.98 144.09 159.19 144.96 159.24 146.00 C 159.29 147.03 160.16 147.82 161.19 147.77 Z M 162.37 147.70 L 163.36 147.62 C 164.38 147.53 165.13 146.63 165.05 145.61 C 164.96 144.59 164.06 143.83 163.04 143.92 L 162.06 144.00 C 161.04 144.09 160.28 144.99 160.37 146.01 C 160.45 147.03 161.35 147.79 162.37 147.70 Z M 163.40 147.60 L 164.40 147.49 C 165.41 147.38 166.13 146.47 166.02 145.46 C 165.91 144.45 165.00 143.72 164.00 143.83 L 163.00 143.94 C 161.99 144.05 161.26 144.96 161.37 145.97 C 161.48 146.98 162.39 147.71 163.40 147.60 Z M 164.43 147.46 L 165.43 147.34 C 166.43 147.21 167.14 146.30 167.01 145.30 C 166.88 144.30 165.97 143.60 164.97 143.72 L 163.97 143.85 C 162.97 143.98 162.26 144.89 162.39 145.89 C 162.52 146.89 163.43 147.59 164.43 147.46 Z M 165.45 147.32 L 166.43 147.18 C 167.42 147.04 168.11 146.13 167.97 145.14 C 167.83 144.16 166.92 143.47 165.93 143.61 L 164.95 143.74 C 163.97 143.88 163.28 144.79 163.42 145.78 C 163.55 146.76 164.47 147.45 165.45 147.32 Z M 166.44 147.16 L 167.38 147.02 C 168.35 146.88 169.03 145.98 168.89 145.00 C 168.75 144.03 167.84 143.35 166.87 143.49 L 165.93 143.63 C 164.95 143.77 164.28 144.67 164.42 145.65 C 164.56 146.62 165.46 147.30 166.44 147.16 Z M 167.37 147.00 L 168.34 146.86 C 169.30 146.73 169.97 145.83 169.83 144.87 C 169.69 143.91 168.80 143.24 167.84 143.38 L 166.87 143.51 C 165.91 143.65 165.24 144.54 165.38 145.51 C 165.52 146.47 166.41 147.14 167.37 147.00 Z M 168.32 146.85 L 169.33 146.71 C 170.28 146.58 170.95 145.70 170.81 144.74 C 170.68 143.79 169.80 143.13 168.85 143.26 L 167.85 143.39 C 166.90 143.53 166.23 144.40 166.36 145.36 C 166.49 146.31 167.37 146.98 168.32 146.85 Z M 169.31 146.69 L 170.37 146.55 C 171.31 146.43 171.98 145.57 171.86 144.63 C 171.74 143.69 170.87 143.02 169.93 143.14 L 168.87 143.27 C 167.93 143.39 167.26 144.26 167.38 145.20 C 167.50 146.14 168.36 146.81 169.31 146.69 Z M 170.34 146.54 L 171.30 146.43 C 172.23 146.32 172.90 145.48 172.79 144.54 C 172.69 143.61 171.84 142.94 170.91 143.04 L 169.95 143.15 C 169.02 143.26 168.35 144.11 168.46 145.04 C 168.56 145.98 169.41 146.65 170.34 146.54 Z M 171.28 146.42 L 172.24 146.32 C 173.17 146.22 173.84 145.39 173.74 144.46 C 173.64 143.53 172.81 142.86 171.88 142.95 L 170.92 143.06 C 169.99 143.15 169.32 143.99 169.42 144.92 C 169.52 145.84 170.35 146.52 171.28 146.42 Z M 172.23 146.31 L 173.22 146.21 C 174.14 146.12 174.82 145.29 174.72 144.37 C 174.63 143.45 173.81 142.77 172.89 142.87 L 171.89 142.96 C 170.97 143.06 170.30 143.88 170.39 144.80 C 170.48 145.73 171.30 146.40 172.23 146.31 Z M 173.21 146.20 L 174.23 146.10 C 175.15 146.01 175.82 145.20 175.73 144.28 C 175.65 143.37 174.83 142.69 173.91 142.78 L 172.90 142.88 C 171.98 142.96 171.31 143.78 171.39 144.69 C 171.48 145.61 172.29 146.28 173.21 146.20 Z M 174.22 146.09 L 175.26 145.99 C 176.17 145.91 176.84 145.10 176.76 144.19 C 176.67 143.28 175.87 142.61 174.95 142.70 L 173.92 142.79 C 173.01 142.87 172.34 143.68 172.42 144.59 C 172.51 145.50 173.31 146.17 174.22 146.09 Z M 175.26 145.98 L 176.06 145.91 C 176.96 145.83 177.63 145.03 177.55 144.12 C 177.47 143.22 176.66 142.55 175.76 142.63 L 174.96 142.71 C 174.05 142.79 173.38 143.59 173.47 144.49 C 173.55 145.40 174.35 146.07 175.26 145.98 Z"
      fill="black"
      fill-rule="nonzero" /><path d="M 157.89 158.74 L 158.26 159.69 C 158.63 160.63 159.70 161.09 160.64 160.72 C 161.58 160.35 162.05 159.29 161.67 158.34 L 161.30 157.40 C 160.93 156.46 159.87 155.99 158.93 156.36 C 157.98 156.73 157.52 157.80 157.89 158.74 Z M 158.38 159.97 L 158.88 160.80 C 159.41 161.68 160.55 161.97 161.42 161.44 C 162.30 160.91 162.59 159.78 162.06 158.90 L 161.56 158.06 C 161.03 157.18 159.89 156.90 159.02 157.43 C 158.14 157.95 157.85 159.09 158.38 159.97 Z M 159.29 161.31 L 160.05 161.92 C 160.85 162.57 162.03 162.45 162.68 161.65 C 163.34 160.84 163.21 159.66 162.41 159.01 L 161.65 158.40 C 160.85 157.74 159.67 157.87 159.01 158.67 C 158.36 159.47 158.49 160.65 159.29 161.31 Z M 160.64 162.25 L 161.43 162.51 C 162.41 162.84 163.48 162.30 163.80 161.32 C 164.13 160.33 163.60 159.27 162.61 158.94 L 161.82 158.68 C 160.83 158.35 159.77 158.89 159.44 159.88 C 159.12 160.86 159.65 161.93 160.64 162.25 Z M 161.80 162.59 L 162.74 162.70 C 163.77 162.82 164.70 162.09 164.83 161.06 C 164.95 160.03 164.21 159.10 163.18 158.98 L 162.24 158.86 C 161.21 158.74 160.28 159.48 160.16 160.51 C 160.03 161.54 160.77 162.47 161.80 162.59 Z M 162.96 162.71 L 164.02 162.71 C 165.05 162.71 165.89 161.87 165.89 160.84 C 165.89 159.81 165.05 158.97 164.02 158.97 L 162.96 158.97 C 161.93 158.97 161.09 159.81 161.09 160.84 C 161.09 161.87 161.93 162.71 162.96 162.71 Z M 164.15 162.70 L 165.27 162.62 C 166.30 162.55 167.08 161.66 167.00 160.63 C 166.93 159.60 166.04 158.83 165.01 158.90 L 163.89 158.98 C 162.86 159.05 162.09 159.94 162.16 160.97 C 162.23 162.00 163.12 162.77 164.15 162.70 Z M 165.34 162.60 L 166.32 162.50 C 167.34 162.39 168.07 161.47 167.96 160.46 C 167.86 159.44 166.94 158.71 165.93 158.82 L 164.95 158.92 C 163.93 159.03 163.19 159.94 163.30 160.96 C 163.41 161.97 164.33 162.71 165.34 162.60 Z M 166.36 162.47 L 167.33 162.34 C 168.33 162.21 169.03 161.29 168.90 160.29 C 168.76 159.29 167.85 158.59 166.85 158.72 L 165.88 158.85 C 164.88 158.98 164.18 159.90 164.31 160.90 C 164.45 161.90 165.36 162.60 166.36 162.47 Z M 167.36 162.31 L 168.34 162.16 C 169.32 162.00 169.99 161.09 169.84 160.10 C 169.69 159.12 168.77 158.45 167.79 158.60 L 166.81 158.75 C 165.83 158.90 165.16 159.82 165.31 160.80 C 165.46 161.78 166.38 162.46 167.36 162.31 Z M 168.36 162.13 L 169.37 161.95 C 170.33 161.79 170.98 160.87 170.81 159.91 C 170.65 158.94 169.73 158.29 168.77 158.46 L 167.77 158.63 C 166.80 158.79 166.15 159.71 166.32 160.68 C 166.48 161.64 167.40 162.29 168.36 162.13 Z M 169.38 161.92 L 170.42 161.73 C 171.36 161.56 171.99 160.65 171.82 159.70 C 171.64 158.75 170.73 158.12 169.78 158.30 L 168.75 158.49 C 167.80 158.66 167.18 159.57 167.35 160.52 C 167.52 161.47 168.43 162.10 169.38 161.92 Z M 170.43 161.71 L 171.39 161.52 C 172.32 161.34 172.94 160.44 172.76 159.51 C 172.58 158.57 171.67 157.96 170.74 158.14 L 169.77 158.32 C 168.84 158.50 168.23 159.41 168.41 160.34 C 168.59 161.28 169.49 161.89 170.43 161.71 Z M 171.39 161.51 L 172.36 161.32 C 173.29 161.13 173.89 160.23 173.71 159.31 C 173.53 158.38 172.63 157.78 171.70 157.96 L 170.73 158.16 C 169.81 158.34 169.20 159.24 169.39 160.16 C 169.57 161.09 170.47 161.69 171.39 161.51 Z M 172.37 161.30 L 173.35 161.10 C 174.27 160.92 174.86 160.03 174.68 159.11 C 174.50 158.19 173.60 157.60 172.69 157.78 L 171.70 157.98 C 170.78 158.16 170.19 159.05 170.37 159.97 C 170.56 160.89 171.45 161.48 172.37 161.30 Z M 173.35 161.09 L 174.34 160.89 C 175.25 160.71 175.84 159.82 175.66 158.91 C 175.48 158.00 174.59 157.42 173.68 157.60 L 172.69 157.80 C 171.78 157.98 171.19 158.86 171.37 159.77 C 171.56 160.68 172.44 161.27 173.35 161.09 Z M 174.34 160.87 L 175.33 160.68 C 176.23 160.50 176.82 159.62 176.64 158.72 C 176.46 157.82 175.59 157.24 174.69 157.42 L 173.69 157.61 C 172.79 157.79 172.21 158.67 172.38 159.57 C 172.56 160.47 173.44 161.05 174.34 160.87 Z M 175.32 160.66 L 176.32 160.47 C 177.21 160.30 177.79 159.43 177.62 158.54 C 177.45 157.64 176.58 157.06 175.69 157.23 L 174.69 157.43 C 173.80 157.60 173.22 158.47 173.39 159.36 C 173.56 160.25 174.43 160.84 175.32 160.66 Z M 176.31 160.47 L 177.30 160.28 C 178.20 160.11 178.78 159.25 178.61 158.36 C 178.45 157.47 177.59 156.88 176.70 157.05 L 175.70 157.24 C 174.81 157.41 174.22 158.27 174.39 159.16 C 174.56 160.05 175.41 160.63 176.31 160.47 Z M 177.30 160.28 L 178.29 160.10 C 179.18 159.93 179.77 159.08 179.60 158.19 C 179.44 157.30 178.58 156.71 177.69 156.87 L 176.71 157.05 C 175.81 157.21 175.22 158.07 175.39 158.96 C 175.55 159.85 176.41 160.44 177.30 160.28 Z M 178.28 160.10 L 179.26 159.92 C 180.15 159.76 180.74 158.91 180.58 158.02 C 180.42 157.13 179.57 156.53 178.68 156.69 L 177.70 156.87 C 176.81 157.03 176.22 157.88 176.38 158.77 C 176.54 159.66 177.39 160.26 178.28 160.10 Z M 179.26 159.92 L 180.23 159.75 C 181.12 159.59 181.72 158.74 181.56 157.85 C 181.40 156.96 180.55 156.36 179.66 156.52 L 178.68 156.69 C 177.79 156.85 177.20 157.70 177.36 158.59 C 177.51 159.48 178.36 160.08 179.26 159.92 Z M 180.23 159.75 L 181.20 159.58 C 182.09 159.42 182.69 158.57 182.53 157.68 C 182.37 156.79 181.53 156.20 180.63 156.35 L 179.66 156.52 C 178.77 156.68 178.18 157.53 178.33 158.42 C 178.49 159.31 179.34 159.90 180.23 159.75 Z M 181.20 159.58 L 181.36 159.55 C 182.25 159.39 182.85 158.54 182.69 157.65 C 182.54 156.76 181.69 156.17 180.80 156.32 L 180.64 156.35 C 179.74 156.51 179.15 157.36 179.31 158.25 C 179.46 159.14 180.31 159.73 181.20 159.58 Z"
      fill="black"
      fill-rule="nonzero" /></svg>