<svg xmlns="http://www.w3.org/2000/svg" width="300" height="300" viewBox="0 0 300 300">
<path d="M 131.10 91.01 L 130.80 92.09 C 130.55 93.00 131.09 93.95 132.00 94.20 C 132.91 94.46 133.86 93.92 134.11 93.01 L 134.41 91.93 C 134.67 91.02 134.13 90.07 133.22 89.82 C 132.30 89.56 131.36 90.10 131.10 91.01 Z M 130.73 92.57 L 130.74 93.49 C 130.76 94.44 131.54 95.21 132.49 95.20 C 133.44 95.19 134.20 94.40 134.19 93.45 L 134.18 92.53 C 134.17 91.58 133.39 90.82 132.44 90.83 C 131.49 90.84 130.72 91.62 130.73 92.57 Z M 131.19 94.64 L 131.69 95.18 C 132.33 95.89 133.42 95.94 134.13 95.30 C 134.84 94.66 134.89 93.56 134.25 92.85 L 133.75 92.31 C 133.10 91.60 132.01 91.55 131.30 92.19 C 130.60 92.84 130.55 93.93 131.19 94.64 Z M 132.47 95.68 L 133.18 95.89 C 134.10 96.17 135.06 95.65 135.34 94.73 C 135.61 93.82 135.09 92.85 134.18 92.57 L 133.46 92.36 C 132.55 92.08 131.58 92.60 131.31 93.52 C 131.03 94.44 131.55 95.40 132.47 95.68 Z M 133.53 95.96 L 134.50 96.04 C 135.45 96.12 136.29 95.41 136.37 94.46 C 136.45 93.51 135.74 92.67 134.79 92.59 L 133.82 92.51 C 132.87 92.43 132.03 93.13 131.95 94.09 C 131.87 95.04 132.58 95.88 133.53 95.96 Z M 134.69 96.05 L 135.85 96.02 C 136.80 95.99 137.56 95.20 137.53 94.24 C 137.51 93.28 136.71 92.53 135.76 92.55 L 134.60 92.58 C 133.64 92.61 132.89 93.40 132.91 94.36 C 132.93 95.31 133.73 96.07 134.69 96.05 Z M 135.95 96.01 L 137.19 95.90 C 138.14 95.82 138.85 94.98 138.76 94.02 C 138.68 93.07 137.84 92.37 136.89 92.45 L 135.65 92.56 C 134.70 92.64 133.99 93.48 134.08 94.44 C 134.16 95.39 135.00 96.09 135.95 96.01 Z M 137.25 95.89 L 138.22 95.77 C 139.17 95.65 139.84 94.79 139.72 93.84 C 139.60 92.90 138.74 92.22 137.79 92.34 L 136.83 92.46 C 135.88 92.58 135.21 93.44 135.32 94.39 C 135.44 95.34 136.30 96.01 137.25 95.89 Z M 138.26 95.76 L 139.25 95.61 C 140.19 95.48 140.84 94.60 140.70 93.66 C 140.57 92.72 139.69 92.07 138.75 92.20 L 137.75 92.35 C 136.81 92.49 136.16 93.37 136.30 94.31 C 136.44 95.25 137.31 95.90 138.26 95.76 Z M 139.28 95.60 L 140.29 95.44 C 141.23 95.28 141.86 94.40 141.70 93.46 C 141.55 92.52 140.66 91.89 139.73 92.05 L 138.72 92.21 C 137.78 92.37 137.15 93.26 137.30 94.19 C 137.46 95.13 138.35 95.76 139.28 95.60 Z M 140.31 95.43 L 141.32 95.24 C 142.25 95.07 142.87 94.18 142.70 93.25 C 142.53 92.32 141.64 91.70 140.71 91.87 L 139.70 92.06 C 138.77 92.23 138.15 93.12 138.32 94.05 C 138.49 94.98 139.38 95.60 140.31 95.43 Z M 141.34 95.23 L 142.33 95.04 C 143.25 94.86 143.86 93.96 143.68 93.04 C 143.49 92.11 142.60 91.51 141.67 91.69 L 140.68 91.88 C 139.76 92.06 139.16 92.96 139.34 93.89 C 139.52 94.81 140.42 95.42 141.34 95.23 Z M 142.35 95.03 L 143.31 94.83 C 144.23 94.64 144.82 93.74 144.63 92.82 C 144.44 91.90 143.54 91.31 142.62 91.50 L 141.65 91.70 C 140.73 91.89 140.14 92.79 140.33 93.71 C 140.53 94.63 141.43 95.22 142.35 95.03 Z M 143.33 94.82 L 144.32 94.60 C 145.23 94.40 145.81 93.50 145.61 92.59 C 145.41 91.67 144.51 91.10 143.59 91.30 L 142.60 91.51 C 141.69 91.71 141.11 92.61 141.31 93.53 C 141.51 94.44 142.41 95.02 143.33 94.82 Z M 144.33 94.59 L 145.28 94.37 C 146.19 94.17 146.76 93.26 146.55 92.36 C 146.34 91.45 145.44 90.89 144.54 91.09 L 143.58 91.31 C 142.68 91.51 142.11 92.41 142.31 93.32 C 142.52 94.23 143.42 94.79 144.33 94.59 Z M 145.29 94.36 L 146.23 94.14 C 147.13 93.93 147.69 93.04 147.49 92.14 C 147.28 91.24 146.38 90.68 145.48 90.89 L 144.54 91.11 C 143.64 91.31 143.08 92.21 143.28 93.11 C 143.49 94.00 144.39 94.56 145.29 94.36 Z M 146.23 94.13 L 147.19 93.91 C 148.08 93.70 148.64 92.81 148.43 91.92 C 148.23 91.03 147.34 90.47 146.45 90.68 L 145.49 90.90 C 144.60 91.10 144.04 91.99 144.24 92.88 C 144.45 93.78 145.34 94.33 146.23 94.13 Z M 147.18 93.90 L 148.18 93.67 C 149.06 93.47 149.62 92.59 149.42 91.71 C 149.22 90.82 148.34 90.26 147.45 90.46 L 146.46 90.69 C 145.57 90.89 145.01 91.77 145.21 92.65 C 145.41 93.54 146.30 94.10 147.18 93.90 Z M 148.16 93.67 L 149.14 93.45 C 150.03 93.26 150.59 92.39 150.39 91.51 C 150.20 90.62 149.33 90.06 148.45 90.26 L 147.47 90.47 C 146.58 90.66 146.03 91.53 146.22 92.41 C 146.41 93.30 147.28 93.86 148.16 93.67 Z M 149.13 93.45 L 150.11 93.24 C 150.99 93.06 151.55 92.19 151.37 91.31 C 151.18 90.43 150.32 89.87 149.44 90.06 L 148.46 90.26 C 147.58 90.45 147.02 91.31 147.20 92.19 C 147.39 93.07 148.25 93.63 149.13 93.45 Z M 150.10 93.24 L 151.10 93.03 C 151.98 92.85 152.55 92.00 152.37 91.12 C 152.19 90.25 151.34 89.68 150.46 89.86 L 149.45 90.06 C 148.58 90.24 148.01 91.09 148.19 91.97 C 148.37 92.85 149.22 93.41 150.10 93.24 Z M 151.09 93.03 L 152.10 92.83 C 152.97 92.66 153.54 91.81 153.37 90.93 C 153.20 90.06 152.35 89.49 151.48 89.66 L 150.47 89.86 C 149.60 90.03 149.03 90.88 149.20 91.76 C 149.37 92.63 150.22 93.20 151.09 93.03 Z M 152.09 92.82 L 153.09 92.63 C 153.96 92.47 154.53 91.63 154.36 90.76 C 154.20 89.88 153.36 89.31 152.49 89.48 L 151.49 89.67 C 150.62 89.83 150.05 90.68 150.21 91.55 C 150.38 92.42 151.22 92.99 152.09 92.82 Z M 153.07 92.63 L 154.04 92.45 C 154.91 92.29 155.48 91.46 155.32 90.59 C 155.16 89.72 154.33 89.15 153.46 89.31 L 152.50 89.48 C 151.63 89.64 151.05 90.48 151.21 91.35 C 151.37 92.21 152.21 92.79 153.07 92.63 Z M 154.03 92.44 L 155.04 92.27 C 155.91 92.11 156.48 91.29 156.33 90.42 C 156.18 89.56 155.35 88.98 154.49 89.13 L 153.47 89.31 C 152.61 89.46 152.03 90.29 152.18 91.15 C 152.34 92.02 153.16 92.60 154.03 92.44 Z M 155.03 92.26 L 156.09 92.08 C 156.95 91.94 157.53 91.12 157.39 90.26 C 157.24 89.40 156.43 88.81 155.56 88.96 L 154.50 89.14 C 153.64 89.28 153.06 90.10 153.20 90.96 C 153.35 91.82 154.16 92.41 155.03 92.26 Z M 156.07 92.08 L 157.07 91.92 C 157.93 91.78 158.52 90.97 158.38 90.11 C 158.24 89.25 157.43 88.67 156.57 88.80 L 155.58 88.96 C 154.72 89.10 154.13 89.91 154.27 90.77 C 154.40 91.63 155.21 92.22 156.07 92.08 Z M 157.06 91.92 L 158.01 91.77 C 158.87 91.64 159.46 90.84 159.33 89.98 C 159.19 89.12 158.39 88.53 157.53 88.66 L 156.58 88.81 C 155.73 88.94 155.14 89.74 155.27 90.60 C 155.40 91.46 156.20 92.05 157.06 91.92 Z M 158.00 91.77 L 158.92 91.63 C 159.78 91.50 160.37 90.71 160.24 89.85 C 160.12 88.99 159.32 88.40 158.46 88.53 L 157.54 88.67 C 156.68 88.79 156.09 89.59 156.22 90.45 C 156.35 91.30 157.15 91.89 158.00 91.77 Z M 158.92 91.63 L 159.38 91.56 C 160.23 91.43 160.82 90.64 160.70 89.79 C 160.57 88.93 159.78 88.34 158.92 88.47 L 158.47 88.53 C 157.61 88.66 157.02 89.45 157.15 90.31 C 157.27 91.16 158.07 91.75 158.92 91.63 Z"
      fill="black"
      fill-rule="nonzero" /><path d="M 134.23 101.87 L 133.94 102.83 C 133.67 103.70 134.16 104.62 135.03 104.89 C 135.90 105.16 136.83 104.67 137.09 103.79 L 137.39 102.83 C 137.65 101.96 137.16 101.04 136.29 100.77 C 135.42 100.50 134.50 101.00 134.23 101.87 Z M 133.92 102.84 L 133.64 103.81 C 133.38 104.69 133.89 105.61 134.76 105.87 C 135.64 106.12 136.57 105.62 136.82 104.74 L 137.11 103.78 C 137.36 102.90 136.86 101.98 135.98 101.72 C 135.10 101.46 134.18 101.97 133.92 102.84 Z M 133.62 103.84 L 133.36 104.80 C 133.12 105.69 133.65 106.61 134.54 106.85 C 135.43 107.09 136.34 106.56 136.58 105.67 L 136.84 104.71 C 137.08 103.82 136.56 102.90 135.67 102.66 C 134.78 102.42 133.86 102.95 133.62 103.84 Z M 133.34 104.86 L 133.12 105.80 C 132.91 106.70 133.47 107.60 134.37 107.81 C 135.27 108.02 136.17 107.47 136.38 106.56 L 136.60 105.62 C 136.81 104.72 136.25 103.82 135.35 103.61 C 134.45 103.40 133.55 103.95 133.34 104.86 Z M 133.10 105.87 L 132.92 106.80 C 132.75 107.71 133.35 108.59 134.26 108.77 C 135.17 108.94 136.04 108.34 136.22 107.43 L 136.40 106.50 C 136.57 105.59 135.98 104.71 135.07 104.54 C 134.16 104.36 133.28 104.96 133.10 105.87 Z M 132.91 106.87 L 132.77 107.85 C 132.63 108.76 133.26 109.62 134.18 109.75 C 135.10 109.89 135.95 109.26 136.09 108.34 L 136.23 107.37 C 136.37 106.45 135.73 105.60 134.82 105.46 C 133.90 105.32 133.05 105.96 132.91 106.87 Z M 132.76 107.91 L 132.65 108.96 C 132.55 109.88 133.21 110.71 134.13 110.81 C 135.05 110.91 135.88 110.24 135.98 109.32 L 136.09 108.28 C 136.19 107.35 135.53 106.53 134.61 106.43 C 133.69 106.33 132.86 106.99 132.76 107.91 Z M 132.64 109.01 L 132.57 109.97 C 132.50 110.89 133.19 111.70 134.11 111.77 C 135.04 111.84 135.84 111.15 135.91 110.22 L 135.99 109.26 C 136.06 108.34 135.36 107.54 134.44 107.46 C 133.52 107.39 132.71 108.09 132.64 109.01 Z M 132.57 110.01 L 132.52 110.95 C 132.47 111.87 133.18 112.66 134.10 112.71 C 135.02 112.76 135.81 112.05 135.86 111.13 L 135.91 110.19 C 135.96 109.26 135.25 108.47 134.33 108.42 C 133.41 108.37 132.62 109.08 132.57 110.01 Z M 132.52 110.97 L 132.48 111.97 C 132.45 112.89 133.17 113.67 134.09 113.70 C 135.01 113.74 135.79 113.02 135.83 112.09 L 135.86 111.10 C 135.90 110.18 135.18 109.40 134.25 109.36 C 133.33 109.33 132.55 110.05 132.52 110.97 Z M 132.48 111.99 L 132.46 113.03 C 132.43 113.95 133.16 114.72 134.08 114.74 C 135.01 114.77 135.77 114.04 135.80 113.11 L 135.82 112.07 C 135.85 111.15 135.12 110.38 134.19 110.36 C 133.27 110.34 132.50 111.07 132.48 111.99 Z M 132.46 113.04 L 132.44 114.13 C 132.42 115.05 133.16 115.81 134.08 115.82 C 135.00 115.84 135.76 115.10 135.78 114.18 L 135.80 113.10 C 135.81 112.18 135.08 111.42 134.15 111.40 C 133.23 111.39 132.47 112.12 132.46 113.04 Z M 132.45 114.14 L 132.43 115.16 C 132.42 116.08 133.16 116.83 134.08 116.84 C 135.00 116.85 135.75 116.11 135.76 115.19 L 135.77 114.17 C 135.78 113.25 135.04 112.50 134.13 112.49 C 133.21 112.48 132.46 113.22 132.45 114.14 Z M 132.45 115.16 L 132.44 116.19 C 132.43 117.10 133.17 117.84 134.08 117.85 C 134.99 117.85 135.73 117.12 135.74 116.21 L 135.75 115.19 C 135.75 114.27 135.02 113.53 134.11 113.52 C 133.20 113.52 132.45 114.25 132.45 115.16 Z M 132.45 116.19 L 132.45 117.21 C 132.45 118.12 133.18 118.85 134.08 118.86 C 134.98 118.86 135.72 118.13 135.72 117.23 L 135.73 116.20 C 135.73 115.30 135.00 114.56 134.10 114.56 C 133.19 114.56 132.46 115.29 132.45 116.19 Z M 132.46 117.22 L 132.46 118.22 C 132.46 119.12 133.18 119.85 134.08 119.85 C 134.98 119.85 135.71 119.12 135.71 118.23 L 135.71 117.22 C 135.71 116.33 134.99 115.60 134.09 115.60 C 133.19 115.59 132.46 116.32 132.46 117.22 Z M 132.47 118.22 L 132.47 119.19 C 132.47 120.08 133.19 120.80 134.08 120.80 C 134.97 120.80 135.70 120.08 135.70 119.19 L 135.70 118.22 C 135.70 117.33 134.98 116.61 134.09 116.61 C 133.20 116.61 132.47 117.33 132.47 118.22 Z M 132.48 119.19 L 132.48 120.22 C 132.48 121.11 133.20 121.82 134.08 121.82 C 134.97 121.82 135.68 121.11 135.68 120.22 L 135.68 119.19 C 135.68 118.31 134.97 117.59 134.08 117.59 C 133.20 117.59 132.48 118.31 132.48 119.19 Z M 132.49 120.22 L 132.49 121.27 C 132.49 122.14 133.21 122.86 134.08 122.86 C 134.96 122.86 135.67 122.14 135.67 121.27 L 135.67 120.22 C 135.67 119.34 134.96 118.63 134.08 118.63 C 133.21 118.63 132.49 119.34 132.49 120.22 Z M 132.50 121.27 L 132.50 122.26 C 132.50 123.13 133.21 123.84 134.08 123.84 C 134.96 123.84 135.67 123.13 135.67 122.26 L 135.67 121.27 C 135.67 120.39 134.96 119.68 134.08 119.68 C 133.21 119.68 132.50 120.39 132.50 121.27 Z M 132.51 122.26 L 132.51 123.21 C 132.51 124.08 133.22 124.79 134.08 124.79 C 134.95 124.79 135.66 124.08 135.66 123.21 L 135.66 122.26 C 135.66 121.39 134.95 120.68 134.08 120.68 C 133.22 120.68 132.51 121.39 132.51 122.26 Z M 132.52 123.21 L 132.52 123.97 C 132.52 124.84 133.22 125.54 134.08 125.54 C 134.95 125.54 135.65 124.84 135.65 123.97 L 135.65 123.21 C 135.65 122.35 134.95 121.65 134.08 121.65 C 133.22 121.65 132.52 122.35 132.52 123.21 Z"
      fill="black"
      fill-rule="nonzero" /><path d="M 134.63 105.21 L 135.63 104.96 C 136.55 104.73 137.11 103.80 136.88 102.88 C 136.65 101.96 135.72 101.40 134.80 101.63 L 133.80 101.88 C 132.88 102.11 132.32 103.04 132.55 103.96 C 132.78 104.88 133.71 105.44 134.63 105.21 Z M 135.64 104.96 L 136.62 104.71 C 137.54 104.48 138.09 103.54 137.86 102.62 C 137.63 101.70 136.69 101.15 135.77 101.38 L 134.79 101.63 C 133.87 101.86 133.31 102.80 133.55 103.72 C 133.78 104.64 134.72 105.19 135.64 104.96 Z M 136.63 104.71 L 137.59 104.46 C 138.50 104.22 139.06 103.28 138.82 102.36 C 138.58 101.44 137.64 100.89 136.72 101.13 L 135.76 101.38 C 134.84 101.62 134.29 102.56 134.53 103.48 C 134.77 104.40 135.71 104.95 136.63 104.71 Z M 137.60 104.45 L 138.55 104.20 C 139.46 103.95 140.00 103.00 139.75 102.09 C 139.51 101.17 138.56 100.63 137.65 100.88 L 136.70 101.14 C 135.79 101.39 135.25 102.33 135.50 103.25 C 135.74 104.16 136.69 104.70 137.60 104.45 Z M 138.57 104.19 L 139.53 103.91 C 140.44 103.66 140.97 102.71 140.71 101.79 C 140.45 100.88 139.51 100.35 138.59 100.61 L 137.63 100.89 C 136.72 101.15 136.19 102.10 136.45 103.01 C 136.71 103.92 137.66 104.45 138.57 104.19 Z M 139.54 103.91 L 140.49 103.63 C 141.40 103.37 141.92 102.42 141.66 101.51 C 141.39 100.60 140.44 100.08 139.53 100.34 L 138.59 100.62 C 137.68 100.88 137.16 101.83 137.42 102.74 C 137.68 103.65 138.63 104.17 139.54 103.91 Z M 140.48 103.63 L 141.44 103.36 C 142.35 103.10 142.87 102.15 142.61 101.24 C 142.35 100.34 141.41 99.81 140.50 100.07 L 139.54 100.35 C 138.63 100.61 138.11 101.55 138.37 102.46 C 138.63 103.37 139.57 103.89 140.48 103.63 Z M 141.42 103.36 L 142.37 103.10 C 143.27 102.85 143.81 101.91 143.56 101.00 C 143.31 100.10 142.37 99.56 141.46 99.81 L 140.52 100.07 C 139.61 100.32 139.08 101.26 139.33 102.17 C 139.58 103.07 140.51 103.61 141.42 103.36 Z M 142.34 103.11 L 143.31 102.86 C 144.22 102.62 144.77 101.69 144.53 100.78 C 144.30 99.87 143.37 99.32 142.46 99.56 L 141.49 99.81 C 140.58 100.04 140.03 100.97 140.26 101.88 C 140.50 102.79 141.43 103.34 142.34 103.11 Z M 143.27 102.86 L 144.26 102.63 C 145.17 102.41 145.74 101.50 145.52 100.58 C 145.31 99.67 144.39 99.10 143.48 99.32 L 142.49 99.55 C 141.58 99.77 141.01 100.68 141.23 101.60 C 141.44 102.51 142.36 103.08 143.27 102.86 Z M 144.22 102.64 L 145.18 102.43 C 146.10 102.24 146.69 101.34 146.50 100.42 C 146.30 99.50 145.40 98.92 144.48 99.11 L 143.52 99.31 C 142.60 99.50 142.01 100.40 142.21 101.32 C 142.40 102.24 143.30 102.83 144.22 102.64 Z M 145.13 102.44 L 146.05 102.27 C 146.97 102.11 147.58 101.23 147.41 100.31 C 147.25 99.38 146.37 98.77 145.45 98.94 L 144.53 99.10 C 143.61 99.27 143.00 100.15 143.16 101.07 C 143.33 101.99 144.21 102.60 145.13 102.44 Z M 145.99 102.28 L 146.95 102.14 C 147.88 102.00 148.51 101.14 148.38 100.22 C 148.24 99.29 147.38 98.65 146.46 98.79 L 145.50 98.93 C 144.57 99.07 143.94 99.93 144.07 100.85 C 144.21 101.78 145.07 102.42 145.99 102.28 Z M 146.90 102.14 L 147.93 102.02 C 148.86 101.91 149.52 101.07 149.42 100.15 C 149.31 99.22 148.47 98.56 147.54 98.67 L 146.51 98.79 C 145.58 98.90 144.92 99.73 145.03 100.66 C 145.13 101.59 145.97 102.25 146.90 102.14 Z M 147.89 102.02 L 148.95 101.93 C 149.88 101.84 150.56 101.02 150.48 100.09 C 150.39 99.17 149.57 98.48 148.64 98.57 L 147.59 98.66 C 146.66 98.75 145.97 99.57 146.06 100.50 C 146.14 101.42 146.96 102.11 147.89 102.02 Z M 148.92 101.93 L 149.88 101.86 C 150.81 101.79 151.51 100.99 151.44 100.06 C 151.37 99.13 150.57 98.43 149.64 98.50 L 148.68 98.57 C 147.75 98.63 147.05 99.44 147.12 100.37 C 147.18 101.29 147.99 101.99 148.92 101.93 Z M 149.85 101.86 L 150.86 101.80 C 151.79 101.75 152.50 100.96 152.45 100.03 C 152.40 99.11 151.61 98.40 150.68 98.45 L 149.67 98.50 C 148.74 98.55 148.03 99.34 148.08 100.27 C 148.13 101.20 148.92 101.91 149.85 101.86 Z M 150.83 101.80 L 151.86 101.77 C 152.79 101.73 153.51 100.95 153.48 100.03 C 153.45 99.10 152.67 98.38 151.74 98.41 L 150.71 98.45 C 149.78 98.48 149.06 99.26 149.09 100.19 C 149.13 101.11 149.91 101.84 150.83 101.80 Z M 151.83 101.76 L 152.85 101.75 C 153.78 101.73 154.51 100.97 154.50 100.04 C 154.48 99.12 153.72 98.38 152.79 98.39 L 151.77 98.41 C 150.85 98.43 150.11 99.19 150.12 100.12 C 150.14 101.04 150.90 101.78 151.83 101.76 Z M 152.81 101.74 L 153.84 101.75 C 154.76 101.76 155.52 101.01 155.52 100.09 C 155.53 99.16 154.78 98.41 153.86 98.40 L 152.83 98.40 C 151.91 98.39 151.15 99.13 151.15 100.06 C 151.14 100.98 151.89 101.74 152.81 101.74 Z M 153.78 101.75 L 154.87 101.79 C 155.79 101.83 156.57 101.12 156.61 100.20 C 156.65 99.27 155.94 98.50 155.02 98.46 L 153.92 98.41 C 153.00 98.37 152.22 99.08 152.18 100.01 C 152.14 100.93 152.85 101.71 153.78 101.75 Z M 154.77 101.78 L 155.78 101.89 C 156.70 101.99 157.52 101.33 157.62 100.41 C 157.72 99.50 157.05 98.68 156.14 98.58 L 155.12 98.47 C 154.21 98.37 153.39 99.03 153.29 99.95 C 153.19 100.86 153.85 101.68 154.77 101.78 Z M 155.63 101.86 L 156.56 102.05 C 157.46 102.24 158.34 101.66 158.52 100.76 C 158.71 99.86 158.13 98.98 157.23 98.80 L 156.30 98.61 C 155.40 98.42 154.52 99.00 154.33 99.90 C 154.15 100.80 154.73 101.68 155.63 101.86 Z M 156.35 101.99 L 157.20 102.29 C 158.06 102.59 159.01 102.13 159.31 101.27 C 159.61 100.41 159.16 99.46 158.29 99.16 L 157.44 98.86 C 156.58 98.56 155.63 99.01 155.33 99.88 C 155.03 100.74 155.48 101.69 156.35 101.99 Z M 156.93 102.16 L 157.79 102.65 C 158.59 103.10 159.60 102.82 160.04 102.02 C 160.49 101.23 160.21 100.22 159.42 99.77 L 158.56 99.28 C 157.76 98.83 156.76 99.12 156.31 99.91 C 155.86 100.71 156.14 101.71 156.93 102.16 Z M 157.53 102.46 L 158.27 103.10 C 158.96 103.70 160.00 103.62 160.60 102.93 C 161.19 102.24 161.12 101.20 160.43 100.61 L 159.68 99.96 C 158.99 99.37 157.95 99.44 157.36 100.13 C 156.76 100.82 156.84 101.86 157.53 102.46 Z M 158.05 102.86 L 158.66 103.65 C 159.22 104.36 160.25 104.49 160.97 103.94 C 161.69 103.38 161.82 102.35 161.26 101.63 L 160.65 100.85 C 160.09 100.13 159.06 100.00 158.34 100.56 C 157.63 101.11 157.50 102.14 158.05 102.86 Z M 158.50 103.38 L 158.96 104.28 C 159.37 105.09 160.35 105.41 161.16 105.00 C 161.97 104.59 162.29 103.60 161.88 102.80 L 161.42 101.90 C 161.01 101.09 160.03 100.77 159.22 101.18 C 158.41 101.59 158.09 102.57 158.50 103.38 Z M 158.86 104.02 L 159.15 104.96 C 159.42 105.82 160.33 106.30 161.19 106.03 C 162.05 105.76 162.54 104.85 162.27 103.99 L 161.98 103.05 C 161.71 102.19 160.79 101.71 159.93 101.98 C 159.07 102.25 158.59 103.16 158.86 104.02 Z M 159.10 104.75 L 159.27 105.74 C 159.43 106.62 160.27 107.22 161.15 107.07 C 162.04 106.91 162.64 106.07 162.48 105.18 L 162.31 104.19 C 162.16 103.31 161.32 102.71 160.43 102.87 C 159.55 103.02 158.95 103.86 159.10 104.75 Z M 159.26 105.56 L 159.32 106.58 C 159.38 107.47 160.15 108.15 161.04 108.09 C 161.94 108.04 162.62 107.27 162.56 106.37 L 162.50 105.36 C 162.44 104.46 161.67 103.78 160.78 103.84 C 159.88 103.90 159.20 104.67 159.26 105.56 Z M 159.32 106.43 L 159.30 107.43 C 159.27 108.33 159.97 109.07 160.87 109.10 C 161.76 109.12 162.51 108.42 162.53 107.53 L 162.56 106.52 C 162.58 105.63 161.88 104.88 160.99 104.86 C 160.09 104.83 159.35 105.53 159.32 106.43 Z M 159.31 107.30 L 159.20 108.29 C 159.09 109.18 159.73 109.98 160.61 110.08 C 161.50 110.18 162.30 109.55 162.40 108.66 L 162.52 107.67 C 162.62 106.78 161.98 105.98 161.10 105.88 C 160.21 105.78 159.41 106.41 159.31 107.30 Z M 159.22 108.15 L 159.02 109.12 C 158.84 109.99 159.40 110.84 160.27 111.02 C 161.14 111.20 161.99 110.64 162.18 109.77 L 162.38 108.80 C 162.56 107.93 162.00 107.08 161.13 106.90 C 160.25 106.72 159.40 107.28 159.22 108.15 Z M 159.06 108.98 L 158.77 109.93 C 158.52 110.78 159.00 111.67 159.84 111.93 C 160.69 112.19 161.59 111.71 161.85 110.86 L 162.14 109.91 C 162.39 109.06 161.91 108.16 161.06 107.90 C 160.22 107.65 159.32 108.13 159.06 108.98 Z M 158.82 109.80 L 158.45 110.74 C 158.12 111.56 158.52 112.49 159.34 112.82 C 160.16 113.15 161.10 112.75 161.42 111.93 L 161.80 110.99 C 162.13 110.16 161.73 109.23 160.90 108.90 C 160.08 108.58 159.15 108.98 158.82 109.80 Z M 158.50 110.63 L 158.08 111.50 C 157.69 112.29 158.02 113.25 158.82 113.63 C 159.61 114.02 160.57 113.69 160.95 112.89 L 161.37 112.03 C 161.76 111.24 161.43 110.28 160.63 109.89 C 159.84 109.51 158.88 109.84 158.50 110.63 Z M 158.12 111.41 L 157.64 112.28 C 157.21 113.05 157.48 114.02 158.25 114.45 C 159.02 114.88 159.99 114.61 160.42 113.84 L 160.91 112.98 C 161.34 112.21 161.07 111.23 160.30 110.80 C 159.53 110.37 158.56 110.64 158.12 111.41 Z M 157.68 112.21 L 157.14 113.07 C 156.67 113.81 156.89 114.80 157.64 115.27 C 158.38 115.74 159.37 115.51 159.84 114.77 L 160.38 113.91 C 160.85 113.17 160.63 112.18 159.88 111.71 C 159.14 111.24 158.15 111.46 157.68 112.21 Z M 157.18 113.01 L 156.59 113.85 C 156.09 114.57 156.27 115.57 156.99 116.07 C 157.72 116.57 158.71 116.39 159.21 115.67 L 159.80 114.83 C 160.30 114.10 160.12 113.11 159.40 112.61 C 158.68 112.11 157.68 112.28 157.18 113.01 Z M 156.63 113.80 L 156.06 114.56 C 155.53 115.27 155.67 116.26 156.37 116.79 C 157.07 117.32 158.07 117.18 158.60 116.48 L 159.17 115.72 C 159.70 115.02 159.56 114.02 158.86 113.49 C 158.16 112.96 157.16 113.10 156.63 113.80 Z M 156.09 114.52 L 155.51 115.24 C 154.95 115.93 155.05 116.93 155.74 117.48 C 156.42 118.03 157.42 117.93 157.97 117.25 L 158.56 116.53 C 159.12 115.85 159.01 114.84 158.33 114.29 C 157.65 113.74 156.65 113.84 156.09 114.52 Z M 155.54 115.20 L 154.91 115.93 C 154.33 116.59 154.39 117.59 155.05 118.17 C 155.71 118.75 156.72 118.68 157.30 118.02 L 157.93 117.29 C 158.51 116.63 158.45 115.63 157.79 115.05 C 157.13 114.47 156.12 114.54 155.54 115.20 Z M 154.94 115.89 L 154.25 116.63 C 153.65 117.27 153.68 118.28 154.31 118.88 C 154.95 119.48 155.96 119.45 156.56 118.81 L 157.26 118.06 C 157.86 117.42 157.83 116.42 157.19 115.82 C 156.55 115.22 155.55 115.25 154.94 115.89 Z M 154.28 116.60 L 153.51 117.37 C 152.89 117.99 152.89 118.99 153.50 119.61 C 154.12 120.23 155.13 120.23 155.75 119.61 L 156.52 118.84 C 157.14 118.22 157.14 117.22 156.52 116.60 C 155.91 115.98 154.90 115.98 154.28 116.60 Z M 153.54 117.34 L 152.79 118.05 C 152.15 118.65 152.12 119.65 152.72 120.29 C 153.32 120.93 154.33 120.95 154.96 120.35 L 155.72 119.64 C 156.35 119.04 156.38 118.04 155.78 117.40 C 155.18 116.77 154.18 116.74 153.54 117.34 Z M 152.81 118.03 L 152.05 118.72 C 151.40 119.30 151.35 120.30 151.94 120.95 C 152.52 121.60 153.53 121.65 154.17 121.07 L 154.94 120.38 C 155.59 119.79 155.64 118.79 155.05 118.14 C 154.46 117.49 153.46 117.44 152.81 118.03 Z M 152.08 118.70 L 151.29 119.38 C 150.63 119.96 150.56 120.96 151.13 121.61 C 151.70 122.27 152.70 122.34 153.36 121.77 L 154.15 121.08 C 154.81 120.51 154.88 119.51 154.31 118.85 C 153.73 118.20 152.73 118.13 152.08 118.70 Z M 151.31 119.36 L 150.52 120.03 C 149.85 120.59 149.76 121.58 150.31 122.25 C 150.87 122.92 151.87 123.01 152.54 122.45 L 153.33 121.79 C 154.00 121.23 154.09 120.24 153.54 119.57 C 152.98 118.90 151.98 118.81 151.31 119.36 Z M 150.54 120.01 L 149.77 120.63 C 149.08 121.17 148.97 122.16 149.51 122.84 C 150.06 123.53 151.05 123.64 151.73 123.10 L 152.51 122.48 C 153.19 121.93 153.30 120.94 152.76 120.26 C 152.22 119.58 151.23 119.46 150.54 120.01 Z M 149.80 120.60 L 149.06 121.16 C 148.36 121.68 148.22 122.67 148.75 123.37 C 149.27 124.06 150.26 124.20 150.95 123.68 L 151.70 123.12 C 152.39 122.60 152.53 121.61 152.01 120.91 C 151.48 120.22 150.50 120.08 149.80 120.60 Z M 149.11 121.12 L 148.22 121.74 C 147.50 122.23 147.32 123.21 147.81 123.93 C 148.31 124.64 149.29 124.82 150.00 124.33 L 150.90 123.72 C 151.61 123.22 151.80 122.24 151.30 121.53 C 150.81 120.81 149.83 120.63 149.11 121.12 Z M 148.32 121.68 L 147.44 122.19 C 146.69 122.62 146.44 123.59 146.87 124.34 C 147.31 125.09 148.27 125.34 149.02 124.91 L 149.90 124.39 C 150.65 123.96 150.91 123.00 150.47 122.25 C 150.04 121.49 149.07 121.24 148.32 121.68 Z M 147.59 122.11 L 146.73 122.50 C 145.94 122.85 145.59 123.78 145.94 124.57 C 146.29 125.36 147.22 125.72 148.01 125.36 L 148.87 124.98 C 149.66 124.63 150.02 123.70 149.66 122.91 C 149.31 122.12 148.38 121.76 147.59 122.11 Z M 146.90 122.44 L 146.01 122.72 C 145.19 122.97 144.73 123.85 144.98 124.68 C 145.24 125.50 146.12 125.96 146.95 125.70 L 147.84 125.42 C 148.67 125.17 149.13 124.29 148.87 123.46 C 148.61 122.64 147.73 122.18 146.90 122.44 Z M 146.17 122.68 L 145.21 122.87 C 144.37 123.05 143.82 123.87 144.00 124.72 C 144.17 125.56 145.00 126.11 145.84 125.94 L 146.79 125.74 C 147.64 125.57 148.18 124.74 148.01 123.90 C 147.84 123.05 147.01 122.50 146.17 122.68 Z M 145.35 122.85 L 144.35 122.97 C 143.49 123.07 142.87 123.84 142.97 124.70 C 143.07 125.55 143.84 126.17 144.70 126.07 L 145.71 125.96 C 146.56 125.86 147.18 125.08 147.08 124.23 C 146.98 123.37 146.21 122.75 145.35 122.85 Z M 144.50 122.96 L 143.47 122.97 C 142.60 122.99 141.92 123.70 141.93 124.56 C 141.95 125.43 142.66 126.11 143.52 126.10 L 144.55 126.08 C 145.41 126.07 146.10 125.36 146.08 124.49 C 146.07 123.63 145.36 122.94 144.50 122.96 Z M 143.66 122.98 L 142.65 122.88 C 141.80 122.79 141.03 123.41 140.94 124.27 C 140.85 125.13 141.47 125.90 142.33 125.99 L 143.33 126.09 C 144.19 126.18 144.96 125.56 145.05 124.70 C 145.14 123.84 144.51 123.07 143.66 122.98 Z M 142.90 122.93 L 141.97 122.67 C 141.13 122.44 140.28 122.93 140.05 123.76 C 139.82 124.60 140.31 125.45 141.14 125.68 L 142.08 125.94 C 142.91 126.17 143.77 125.68 144.00 124.84 C 144.23 124.01 143.74 123.15 142.90 122.93 Z M 142.28 122.80 L 141.36 122.31 C 140.60 121.90 139.66 122.20 139.25 122.96 C 138.85 123.72 139.14 124.66 139.90 125.07 L 140.82 125.56 C 141.59 125.96 142.53 125.67 142.93 124.91 C 143.34 124.14 143.05 123.20 142.28 122.80 Z M 141.63 122.49 L 140.86 121.85 C 140.20 121.29 139.21 121.38 138.66 122.04 C 138.11 122.70 138.20 123.69 138.86 124.24 L 139.63 124.89 C 140.29 125.44 141.28 125.35 141.83 124.69 C 142.38 124.03 142.29 123.04 141.63 122.49 Z M 141.04 122.02 L 140.40 121.28 C 139.83 120.63 138.85 120.56 138.20 121.13 C 137.55 121.69 137.48 122.68 138.04 123.33 L 138.68 124.07 C 139.25 124.72 140.23 124.79 140.88 124.22 C 141.53 123.66 141.60 122.67 141.04 122.02 Z M 140.51 121.42 L 139.96 120.63 C 139.47 119.92 138.50 119.74 137.79 120.22 C 137.08 120.71 136.90 121.68 137.39 122.39 L 137.93 123.19 C 138.42 123.90 139.39 124.08 140.10 123.59 C 140.81 123.11 141.00 122.14 140.51 121.42 Z M 140.04 120.75 L 139.55 119.88 C 139.13 119.12 138.17 118.86 137.42 119.28 C 136.67 119.70 136.40 120.65 136.82 121.40 L 137.31 122.27 C 137.73 123.03 138.69 123.29 139.44 122.87 C 140.19 122.45 140.46 121.50 140.04 120.75 Z M 139.61 119.99 L 139.20 119.10 C 138.84 118.31 137.91 117.97 137.13 118.33 C 136.34 118.69 136.00 119.62 136.36 120.40 L 136.77 121.29 C 137.13 122.08 138.05 122.42 138.84 122.06 C 139.62 121.70 139.97 120.77 139.61 119.99 Z M 139.24 119.18 L 138.87 118.24 C 138.55 117.44 137.65 117.04 136.84 117.35 C 136.04 117.67 135.64 118.57 135.95 119.38 L 136.32 120.32 C 136.64 121.12 137.54 121.52 138.35 121.21 C 139.15 120.89 139.55 119.99 139.24 119.18 Z M 138.89 118.29 L 138.59 117.43 C 138.30 116.62 137.40 116.19 136.59 116.48 C 135.77 116.77 135.34 117.66 135.63 118.48 L 135.93 119.33 C 136.22 120.15 137.12 120.58 137.93 120.29 C 138.75 120.00 139.18 119.10 138.89 118.29 Z M 138.61 117.48 L 138.32 116.56 C 138.06 115.74 137.18 115.28 136.35 115.54 C 135.52 115.80 135.06 116.68 135.32 117.51 L 135.61 118.43 C 135.87 119.26 136.75 119.72 137.58 119.45 C 138.41 119.19 138.87 118.31 138.61 117.48 Z M 138.34 116.63 L 138.08 115.63 C 137.85 114.79 136.98 114.29 136.14 114.52 C 135.30 114.75 134.80 115.61 135.03 116.46 L 135.30 117.45 C 135.52 118.29 136.39 118.79 137.23 118.56 C 138.07 118.33 138.57 117.47 138.34 116.63 Z M 138.10 115.70 L 137.86 114.63 C 137.67 113.77 136.83 113.23 135.98 113.42 C 135.12 113.61 134.58 114.45 134.77 115.31 L 135.01 116.38 C 135.19 117.24 136.04 117.78 136.89 117.59 C 137.75 117.40 138.29 116.56 138.10 115.70 Z M 137.89 114.71 L 137.71 113.64 C 137.57 112.77 136.75 112.18 135.88 112.32 C 135.01 112.47 134.42 113.29 134.57 114.15 L 134.74 115.23 C 134.88 116.09 135.70 116.68 136.57 116.54 C 137.44 116.40 138.03 115.58 137.89 114.71 Z M 137.74 113.75 L 137.65 112.68 C 137.57 111.79 136.79 111.14 135.90 111.22 C 135.02 111.30 134.36 112.08 134.44 112.96 L 134.53 114.04 C 134.61 114.92 135.39 115.58 136.28 115.50 C 137.17 115.42 137.82 114.64 137.74 113.75 Z M 137.67 112.87 L 137.70 111.87 C 137.73 110.98 137.02 110.23 136.13 110.20 C 135.23 110.17 134.48 110.87 134.45 111.77 L 134.42 112.77 C 134.39 113.67 135.10 114.42 135.99 114.45 C 136.89 114.48 137.64 113.77 137.67 112.87 Z M 137.67 112.20 L 137.88 111.36 C 138.09 110.48 137.54 109.59 136.66 109.38 C 135.78 109.17 134.89 109.71 134.68 110.59 L 134.48 111.44 C 134.27 112.32 134.81 113.21 135.69 113.42 C 136.58 113.63 137.46 113.09 137.67 112.20 Z M 137.63 111.93 L 138.13 111.22 C 138.66 110.47 138.48 109.44 137.74 108.91 C 136.99 108.39 135.96 108.56 135.43 109.31 L 134.93 110.02 C 134.40 110.77 134.58 111.80 135.32 112.33 C 136.07 112.85 137.10 112.67 137.63 111.93 Z M 137.59 111.70 L 138.40 111.25 C 139.19 110.80 139.47 109.80 139.03 109.00 C 138.58 108.20 137.57 107.92 136.77 108.37 L 135.97 108.82 C 135.17 109.27 134.89 110.28 135.34 111.07 C 135.79 111.87 136.80 112.15 137.59 111.70 Z M 137.98 111.42 L 138.98 111.18 C 139.86 110.96 140.41 110.07 140.19 109.18 C 139.98 108.29 139.08 107.75 138.20 107.96 L 137.20 108.20 C 136.31 108.42 135.76 109.31 135.98 110.20 C 136.19 111.09 137.09 111.63 137.98 111.42 Z M 138.78 111.21 L 139.84 111.08 C 140.75 110.98 141.39 110.16 141.29 109.25 C 141.18 108.34 140.36 107.69 139.45 107.80 L 138.39 107.93 C 137.49 108.03 136.84 108.85 136.95 109.76 C 137.05 110.67 137.87 111.32 138.78 111.21 Z M 139.77 111.09 L 140.74 111.01 C 141.65 110.94 142.33 110.15 142.26 109.25 C 142.19 108.34 141.40 107.66 140.49 107.73 L 139.52 107.80 C 138.61 107.87 137.93 108.66 138.00 109.57 C 138.07 110.47 138.86 111.15 139.77 111.09 Z M 140.70 111.01 L 141.69 110.96 C 142.60 110.91 143.29 110.14 143.25 109.24 C 143.20 108.33 142.43 107.64 141.53 107.68 L 140.53 107.73 C 139.63 107.78 138.93 108.55 138.98 109.45 C 139.02 110.36 139.79 111.05 140.70 111.01 Z M 141.66 110.95 L 142.68 110.92 C 143.58 110.89 144.29 110.14 144.26 109.24 C 144.23 108.34 143.48 107.63 142.58 107.66 L 141.56 107.69 C 140.66 107.72 139.95 108.47 139.98 109.37 C 140.01 110.27 140.76 110.98 141.66 110.95 Z M 142.66 110.91 L 143.69 110.89 C 144.58 110.88 145.30 110.14 145.28 109.24 C 145.26 108.34 144.52 107.63 143.63 107.65 L 142.60 107.66 C 141.70 107.68 140.99 108.42 141.00 109.32 C 141.02 110.22 141.76 110.93 142.66 110.91 Z M 143.67 110.88 L 144.69 110.87 C 145.58 110.87 146.30 110.14 146.29 109.25 C 146.28 108.35 145.55 107.64 144.66 107.65 L 143.64 107.65 C 142.75 107.66 142.04 108.39 142.04 109.28 C 142.05 110.17 142.78 110.89 143.67 110.88 Z M 144.66 110.86 L 145.67 110.87 C 146.56 110.88 147.28 110.17 147.29 109.28 C 147.30 108.40 146.59 107.67 145.70 107.66 L 144.69 107.66 C 143.80 107.65 143.08 108.36 143.07 109.25 C 143.06 110.13 143.78 110.86 144.66 110.86 Z M 145.63 110.86 L 146.63 110.90 C 147.51 110.93 148.25 110.24 148.28 109.36 C 148.31 108.48 147.62 107.74 146.74 107.71 L 145.74 107.68 C 144.86 107.65 144.12 108.33 144.09 109.21 C 144.06 110.09 144.75 110.83 145.63 110.86 Z M 146.57 110.88 L 147.55 110.95 C 148.42 111.01 149.17 110.35 149.24 109.48 C 149.30 108.61 148.64 107.85 147.77 107.79 L 146.80 107.72 C 145.92 107.66 145.17 108.32 145.11 109.19 C 145.04 110.06 145.70 110.82 146.57 110.88 Z M 147.47 110.94 L 148.49 111.06 C 149.35 111.16 150.13 110.54 150.24 109.68 C 150.34 108.81 149.72 108.03 148.86 107.93 L 147.84 107.81 C 146.98 107.70 146.19 108.32 146.09 109.19 C 145.99 110.05 146.61 110.83 147.47 110.94 Z M 148.42 111.04 L 149.41 111.20 C 150.27 111.34 151.07 110.76 151.21 109.91 C 151.35 109.05 150.77 108.24 149.92 108.10 L 148.93 107.94 C 148.07 107.80 147.26 108.38 147.12 109.24 C 146.98 110.09 147.56 110.90 148.42 111.04 Z M 149.36 111.19 L 150.33 111.38 C 151.18 111.55 152.01 110.99 152.17 110.14 C 152.34 109.29 151.78 108.47 150.93 108.30 L 149.96 108.12 C 149.11 107.95 148.29 108.50 148.13 109.35 C 147.96 110.20 148.51 111.03 149.36 111.19 Z M 150.31 111.37 L 151.27 111.57 C 152.11 111.75 152.94 111.21 153.12 110.37 C 153.30 109.52 152.76 108.69 151.91 108.52 L 150.96 108.31 C 150.11 108.13 149.28 108.67 149.10 109.52 C 148.93 110.36 149.47 111.19 150.31 111.37 Z"
      fill="black"
      fill-rule="nonzero" /><path d="M 140.38 120.15 L 139.43 121.07 C 138.79 121.70 138.77 122.73 139.40 123.37 C 140.03 124.02 141.06 124.03 141.70 123.41 L 142.64 122.49 C 143.29 121.86 143.30 120.83 142.68 120.19 C 142.05 119.54 141.02 119.53 140.38 120.15 Z M 139.41 121.08 L 138.55 121.94 C 137.91 122.57 137.91 123.61 138.55 124.25 C 139.18 124.89 140.22 124.89 140.86 124.25 L 141.72 123.40 C 142.36 122.76 142.36 121.73 141.72 121.09 C 141.09 120.45 140.05 120.45 139.41 121.08 Z M 138.52 121.97 L 137.82 122.70 C 137.20 123.35 137.23 124.39 137.89 125.02 C 138.54 125.64 139.58 125.61 140.20 124.95 L 140.90 124.22 C 141.52 123.57 141.49 122.53 140.83 121.90 C 140.18 121.28 139.14 121.31 138.52 121.97 Z M 137.74 122.79 L 137.29 123.33 C 136.72 124.04 136.83 125.07 137.54 125.65 C 138.24 126.22 139.28 126.11 139.85 125.41 L 140.29 124.86 C 140.87 124.16 140.76 123.12 140.05 122.55 C 139.35 121.97 138.31 122.08 137.74 122.79 Z M 136.95 124.07 L 136.89 124.41 C 136.73 125.30 137.32 126.16 138.21 126.33 C 139.11 126.49 139.97 125.90 140.13 125.00 L 140.19 124.67 C 140.36 123.77 139.77 122.91 138.87 122.75 C 137.98 122.58 137.12 123.18 136.95 124.07 Z M 138.93 126.29 L 139.61 126.11 C 140.49 125.88 141.01 124.98 140.77 124.10 C 140.54 123.23 139.64 122.71 138.77 122.94 L 138.09 123.12 C 137.21 123.35 136.69 124.25 136.93 125.13 C 137.16 126.00 138.06 126.52 138.93 126.29 Z M 139.96 125.96 L 141.19 125.30 C 141.99 124.87 142.28 123.89 141.86 123.09 C 141.43 122.30 140.44 122.00 139.65 122.43 L 138.42 123.09 C 137.63 123.51 137.33 124.50 137.75 125.30 C 138.18 126.09 139.17 126.39 139.96 125.96 Z M 141.28 125.24 L 142.17 124.68 C 142.93 124.20 143.16 123.20 142.68 122.45 C 142.21 121.69 141.21 121.46 140.45 121.93 L 139.56 122.49 C 138.80 122.97 138.58 123.97 139.05 124.72 C 139.52 125.48 140.52 125.71 141.28 125.24 Z M 142.21 124.64 L 143.05 124.07 C 143.79 123.58 143.99 122.58 143.49 121.84 C 143.00 121.11 142.00 120.91 141.26 121.40 L 140.42 121.97 C 139.68 122.46 139.48 123.46 139.98 124.20 C 140.47 124.94 141.47 125.14 142.21 124.64 Z M 143.08 124.05 L 143.93 123.45 C 144.65 122.94 144.83 121.95 144.32 121.22 C 143.81 120.50 142.82 120.33 142.10 120.83 L 141.24 121.43 C 140.52 121.94 140.34 122.93 140.85 123.66 C 141.36 124.38 142.35 124.55 143.08 124.05 Z M 143.94 123.42 L 144.77 122.82 C 145.48 122.31 145.64 121.32 145.13 120.61 C 144.61 119.90 143.62 119.74 142.91 120.25 L 142.08 120.86 C 141.37 121.37 141.21 122.36 141.73 123.07 C 142.24 123.78 143.24 123.94 143.94 123.42 Z M 144.78 122.80 L 145.55 122.23 C 146.25 121.71 146.39 120.72 145.87 120.02 C 145.35 119.32 144.36 119.18 143.67 119.70 L 142.90 120.28 C 142.20 120.80 142.06 121.78 142.58 122.48 C 143.10 123.18 144.09 123.32 144.78 122.80 Z M 145.57 122.21 L 146.47 121.51 C 147.16 120.98 147.29 120.00 146.76 119.31 C 146.23 118.62 145.24 118.50 144.56 119.03 L 143.65 119.72 C 142.97 120.25 142.84 121.24 143.37 121.92 C 143.90 122.61 144.88 122.74 145.57 122.21 Z M 146.49 121.49 L 147.29 120.86 C 147.96 120.32 148.07 119.33 147.53 118.66 C 146.99 117.98 146.01 117.87 145.33 118.41 L 144.54 119.04 C 143.86 119.58 143.75 120.57 144.29 121.24 C 144.83 121.92 145.81 122.03 146.49 121.49 Z M 147.30 120.84 L 148.01 120.26 C 148.68 119.71 148.77 118.73 148.23 118.06 C 147.68 117.39 146.69 117.30 146.03 117.84 L 145.32 118.42 C 144.65 118.97 144.55 119.96 145.10 120.63 C 145.65 121.29 146.64 121.39 147.30 120.84 Z M 148.02 120.25 L 148.48 119.87 C 149.14 119.32 149.23 118.33 148.68 117.67 C 148.13 117.01 147.14 116.92 146.48 117.47 L 146.02 117.85 C 145.36 118.40 145.27 119.39 145.82 120.05 C 146.37 120.71 147.35 120.80 148.02 120.25 Z"
      fill="black"
      fill-rule="nonzero" /><path d="M 146.57 79.69 L 146.25 80.68 C 145.97 81.55 146.45 82.48 147.32 82.76 C 148.19 83.04 149.12 82.56 149.40 81.69 L 149.72 80.70 C 150.00 79.83 149.52 78.90 148.65 78.62 C 147.78 78.34 146.85 78.82 146.57 79.69 Z M 146.23 80.70 L 145.93 81.68 C 145.66 82.56 146.15 83.49 147.03 83.76 C 147.92 84.03 148.85 83.54 149.12 82.66 L 149.42 81.68 C 149.69 80.80 149.19 79.86 148.31 79.59 C 147.43 79.32 146.50 79.82 146.23 80.70 Z M 145.90 81.72 L 145.64 82.67 C 145.39 83.57 145.91 84.50 146.80 84.75 C 147.70 85.00 148.63 84.47 148.88 83.58 L 149.14 82.62 C 149.39 81.72 148.87 80.80 147.98 80.55 C 147.08 80.30 146.15 80.82 145.90 81.72 Z M 145.61 82.74 L 145.39 83.66 C 145.18 84.57 145.74 85.49 146.65 85.70 C 147.56 85.91 148.48 85.35 148.69 84.44 L 148.91 83.51 C 149.12 82.60 148.56 81.69 147.64 81.47 C 146.73 81.26 145.82 81.83 145.61 82.74 Z M 145.36 83.76 L 145.20 84.73 C 145.04 85.65 145.66 86.53 146.59 86.69 C 147.52 86.85 148.40 86.22 148.56 85.30 L 148.72 84.34 C 148.88 83.41 148.25 82.53 147.33 82.37 C 146.40 82.21 145.52 82.84 145.36 83.76 Z M 145.18 84.84 L 145.08 85.79 C 144.99 86.73 145.67 87.57 146.60 87.66 C 147.54 87.76 148.38 87.08 148.47 86.14 L 148.57 85.19 C 148.67 84.25 147.99 83.41 147.05 83.32 C 146.11 83.22 145.28 83.90 145.18 84.84 Z M 145.08 85.88 L 145.02 86.87 C 144.98 87.81 145.70 88.61 146.64 88.66 C 147.58 88.71 148.38 87.99 148.43 87.05 L 148.48 86.06 C 148.53 85.12 147.81 84.32 146.87 84.27 C 145.93 84.22 145.12 84.94 145.08 85.88 Z M 145.02 86.92 L 145.00 87.97 C 144.98 88.91 145.72 89.69 146.67 89.71 C 147.61 89.73 148.39 88.99 148.41 88.05 L 148.43 87.00 C 148.45 86.06 147.71 85.28 146.77 85.26 C 145.82 85.23 145.04 85.98 145.02 86.92 Z M 145.00 87.99 L 144.99 88.95 C 144.98 89.89 145.73 90.66 146.67 90.67 C 147.61 90.68 148.39 89.93 148.40 88.99 L 148.41 88.03 C 148.42 87.09 147.66 86.32 146.72 86.31 C 145.78 86.29 145.01 87.05 145.00 87.99 Z M 144.99 88.96 L 144.98 89.97 C 144.98 90.91 145.74 91.68 146.68 91.68 C 147.62 91.69 148.38 90.93 148.39 89.99 L 148.39 88.98 C 148.40 88.04 147.64 87.27 146.70 87.27 C 145.76 87.26 145.00 88.02 144.99 88.96 Z M 144.99 89.98 L 144.98 91.00 C 144.98 91.94 145.74 92.70 146.68 92.71 C 147.62 92.71 148.38 91.95 148.38 91.01 L 148.39 89.98 C 148.39 89.05 147.63 88.28 146.69 88.28 C 145.75 88.28 144.99 89.04 144.99 89.98 Z M 144.99 91.01 L 144.99 92.02 C 144.98 92.96 145.74 93.72 146.68 93.72 C 147.62 93.72 148.38 92.96 148.38 92.02 L 148.38 91.01 C 148.38 90.07 147.62 89.31 146.69 89.31 C 145.75 89.31 144.99 90.07 144.99 91.01 Z M 144.99 92.02 L 144.99 93.04 C 144.99 93.98 145.75 94.74 146.68 94.74 C 147.62 94.74 148.38 93.98 148.38 93.04 L 148.38 92.02 C 148.38 91.09 147.62 90.33 146.68 90.33 C 145.75 90.33 144.99 91.09 144.99 92.02 Z M 145.00 93.05 L 145.00 94.06 C 145.01 94.99 145.76 95.74 146.69 95.73 C 147.62 95.73 148.37 94.97 148.37 94.04 L 148.37 93.04 C 148.36 92.11 147.61 91.36 146.68 91.36 C 145.75 91.36 145.00 92.12 145.00 93.05 Z M 145.02 94.07 L 145.03 95.05 C 145.04 95.97 145.80 96.71 146.72 96.70 C 147.64 96.69 148.38 95.93 148.37 95.01 L 148.36 94.03 C 148.35 93.11 147.59 92.37 146.67 92.38 C 145.74 92.39 145.00 93.15 145.02 94.07 Z M 145.04 95.07 L 145.07 96.06 C 145.09 96.97 145.85 97.70 146.77 97.67 C 147.68 97.65 148.41 96.89 148.38 95.97 L 148.36 94.99 C 148.33 94.07 147.57 93.35 146.66 93.37 C 145.74 93.40 145.02 94.16 145.04 95.07 Z M 145.08 96.09 L 145.12 97.06 C 145.16 97.97 145.93 98.67 146.84 98.63 C 147.75 98.59 148.45 97.82 148.41 96.92 L 148.37 95.94 C 148.33 95.03 147.56 94.33 146.65 94.37 C 145.74 94.41 145.04 95.18 145.08 96.09 Z M 145.13 97.09 L 145.19 98.04 C 145.24 98.94 146.02 99.63 146.92 99.57 C 147.83 99.52 148.52 98.74 148.46 97.83 L 148.41 96.89 C 148.35 95.98 147.57 95.29 146.67 95.35 C 145.76 95.40 145.07 96.18 145.13 97.09 Z M 145.19 98.06 L 145.26 99.04 C 145.33 99.94 146.12 100.62 147.02 100.55 C 147.92 100.48 148.60 99.70 148.53 98.80 L 148.46 97.81 C 148.39 96.91 147.61 96.24 146.70 96.30 C 145.80 96.37 145.13 97.15 145.19 98.06 Z M 145.27 99.05 L 145.36 100.07 C 145.43 100.97 146.22 101.64 147.12 101.56 C 148.02 101.49 148.68 100.70 148.61 99.80 L 148.52 98.78 C 148.45 97.88 147.66 97.22 146.76 97.29 C 145.86 97.37 145.20 98.16 145.27 99.05 Z M 145.36 100.08 L 145.46 101.13 C 145.54 102.03 146.33 102.69 147.22 102.61 C 148.12 102.52 148.78 101.73 148.70 100.84 L 148.60 99.79 C 148.52 98.89 147.73 98.23 146.84 98.31 C 145.94 98.39 145.28 99.19 145.36 100.08 Z M 145.46 101.14 L 145.55 102.07 C 145.63 102.97 146.42 103.62 147.32 103.54 C 148.21 103.46 148.87 102.66 148.78 101.77 L 148.69 100.83 C 148.61 99.94 147.82 99.28 146.93 99.37 C 146.03 99.45 145.38 100.24 145.46 101.14 Z M 145.55 102.07 L 145.64 102.99 C 145.72 103.88 146.51 104.54 147.40 104.45 C 148.29 104.37 148.95 103.58 148.86 102.69 L 148.78 101.77 C 148.69 100.88 147.90 100.22 147.01 100.31 C 146.12 100.39 145.47 101.18 145.55 102.07 Z M 145.64 102.99 L 145.73 103.94 C 145.81 104.83 146.60 105.49 147.49 105.41 C 148.38 105.32 149.03 104.54 148.95 103.65 L 148.86 102.69 C 148.78 101.80 147.99 101.15 147.10 101.23 C 146.21 101.31 145.56 102.10 145.64 102.99 Z M 145.73 103.94 L 145.82 104.94 C 145.90 105.83 146.68 106.49 147.57 106.41 C 148.46 106.33 149.11 105.55 149.04 104.66 L 148.95 103.65 C 148.87 102.76 148.09 102.11 147.20 102.18 C 146.31 102.26 145.65 103.05 145.73 103.94 Z M 145.82 104.93 L 145.91 105.99 C 145.98 106.88 146.76 107.54 147.64 107.47 C 148.53 107.40 149.19 106.62 149.12 105.73 L 149.03 104.67 C 148.96 103.78 148.18 103.12 147.30 103.19 C 146.41 103.26 145.75 104.04 145.82 104.93 Z M 145.91 105.98 L 145.99 107.09 C 146.06 107.98 146.83 108.65 147.71 108.58 C 148.60 108.52 149.27 107.74 149.20 106.86 L 149.12 105.74 C 149.05 104.86 148.28 104.19 147.39 104.26 C 146.51 104.32 145.84 105.09 145.91 105.98 Z M 145.99 107.08 L 146.06 108.05 C 146.11 108.94 146.88 109.61 147.77 109.55 C 148.65 109.49 149.32 108.72 149.27 107.83 L 149.20 106.87 C 149.14 105.98 148.38 105.31 147.49 105.37 C 146.60 105.43 145.93 106.20 145.99 107.08 Z M 146.06 108.04 L 146.12 109.04 C 146.17 109.93 146.93 110.60 147.82 110.55 C 148.71 110.49 149.38 109.73 149.33 108.85 L 149.26 107.84 C 149.21 106.96 148.45 106.28 147.56 106.34 C 146.68 106.39 146.00 107.15 146.06 108.04 Z M 146.12 109.03 L 146.18 110.05 C 146.22 110.94 146.98 111.62 147.87 111.57 C 148.75 111.52 149.43 110.76 149.38 109.88 L 149.32 108.85 C 149.28 107.97 148.52 107.29 147.63 107.34 C 146.75 107.39 146.07 108.15 146.12 109.03 Z M 146.18 110.05 L 146.23 111.07 C 146.27 111.96 147.03 112.64 147.91 112.59 C 148.79 112.55 149.48 111.80 149.43 110.91 L 149.38 109.88 C 149.34 109.00 148.58 108.32 147.70 108.36 C 146.81 108.41 146.13 109.16 146.18 110.05 Z M 146.23 111.06 L 146.27 112.08 C 146.31 112.97 147.06 113.65 147.95 113.61 C 148.83 113.57 149.52 112.82 149.48 111.94 L 149.43 110.92 C 149.39 110.04 148.64 109.35 147.76 109.39 C 146.87 109.43 146.19 110.18 146.23 111.06 Z M 146.28 112.07 L 146.32 113.07 C 146.35 113.95 147.09 114.64 147.98 114.61 C 148.86 114.57 149.55 113.83 149.51 112.95 L 149.47 111.95 C 149.44 111.07 148.70 110.38 147.81 110.41 C 146.93 110.45 146.24 111.19 146.28 112.07 Z M 146.32 113.06 L 146.35 114.05 C 146.38 114.93 147.12 115.62 148.00 115.59 C 148.88 115.56 149.57 114.82 149.54 113.94 L 149.51 112.96 C 149.48 112.07 148.74 111.38 147.86 111.41 C 146.98 111.44 146.29 112.18 146.32 113.06 Z M 146.35 114.03 L 146.38 115.21 C 146.40 116.09 147.13 116.79 148.02 116.77 C 148.90 116.74 149.59 116.01 149.57 115.13 L 149.54 113.95 C 149.52 113.07 148.79 112.38 147.91 112.40 C 147.03 112.42 146.33 113.15 146.35 114.03 Z M 146.38 115.20 L 146.40 116.28 C 146.41 117.17 147.14 117.87 148.02 117.85 C 148.90 117.84 149.60 117.11 149.59 116.23 L 149.57 115.14 C 149.56 114.26 148.83 113.56 147.95 113.57 C 147.07 113.59 146.37 114.31 146.38 115.20 Z M 146.40 116.27 L 146.41 117.28 C 146.42 118.16 147.14 118.86 148.02 118.85 C 148.90 118.85 149.61 118.13 149.60 117.25 L 149.59 116.24 C 149.58 115.36 148.86 114.65 147.98 114.66 C 147.10 114.67 146.39 115.39 146.40 116.27 Z M 146.41 117.27 L 146.42 118.19 C 146.42 119.07 147.14 119.78 148.02 119.77 C 148.89 119.77 149.60 119.05 149.60 118.18 L 149.60 117.25 C 149.59 116.37 148.88 115.67 148.00 115.67 C 147.12 115.67 146.41 116.39 146.41 117.27 Z M 146.42 118.18 L 146.42 119.02 C 146.42 119.90 147.13 120.61 148.01 120.61 C 148.89 120.61 149.60 119.90 149.60 119.02 L 149.60 118.18 C 149.60 117.30 148.89 116.59 148.01 116.59 C 147.13 116.59 146.42 117.31 146.42 118.18 Z M 146.42 119.02 L 146.42 120.03 C 146.42 120.91 147.13 121.62 148.01 121.62 C 148.89 121.62 149.60 120.91 149.60 120.03 L 149.60 119.02 C 149.60 118.15 148.89 117.43 148.01 117.43 C 147.13 117.43 146.42 118.15 146.42 119.02 Z M 146.42 120.03 L 146.42 121.02 C 146.42 121.90 147.13 122.61 148.01 122.61 C 148.89 122.61 149.60 121.90 149.60 121.02 L 149.60 120.03 C 149.60 119.16 148.89 118.45 148.01 118.45 C 147.13 118.45 146.42 119.16 146.42 120.03 Z M 146.42 121.02 L 146.42 121.98 C 146.42 122.86 147.13 123.57 148.01 123.57 C 148.89 123.57 149.60 122.86 149.60 121.98 L 149.60 121.02 C 149.60 120.15 148.89 119.44 148.01 119.44 C 147.13 119.44 146.42 120.15 146.42 121.02 Z M 146.42 121.98 L 146.42 122.96 C 146.42 123.84 147.13 124.55 148.01 124.55 C 148.89 124.55 149.60 123.84 149.60 122.96 L 149.60 121.98 C 149.60 121.10 148.89 120.39 148.01 120.39 C 147.13 120.39 146.42 121.10 146.42 121.98 Z M 146.42 122.96 L 146.42 123.91 C 146.42 124.79 147.13 125.50 148.01 125.50 C 148.88 125.50 149.59 124.79 149.59 123.91 L 149.59 122.96 C 149.59 122.09 148.89 121.38 148.01 121.38 C 147.13 121.38 146.42 122.09 146.42 122.96 Z M 146.42 123.91 L 146.42 124.91 C 146.42 125.78 147.13 126.49 148.00 126.50 C 148.88 126.50 149.59 125.79 149.59 124.92 L 149.59 123.91 C 149.60 123.04 148.89 122.33 148.01 122.33 C 147.14 122.32 146.43 123.03 146.42 123.91 Z M 146.42 124.90 L 146.42 125.93 C 146.41 126.81 147.12 127.52 147.99 127.52 C 148.87 127.53 149.58 126.82 149.58 125.95 L 149.59 124.92 C 149.59 124.05 148.89 123.33 148.02 123.33 C 147.14 123.32 146.43 124.03 146.42 124.90 Z M 146.42 125.92 L 146.41 126.95 C 146.40 127.82 147.10 128.54 147.97 128.55 C 148.84 128.56 149.56 127.86 149.57 126.99 L 149.58 125.96 C 149.59 125.09 148.89 124.37 148.02 124.36 C 147.14 124.35 146.43 125.05 146.42 125.92 Z M 146.41 126.94 L 146.39 127.97 C 146.37 128.84 147.06 129.56 147.94 129.58 C 148.81 129.60 149.53 128.90 149.55 128.03 L 149.57 127.00 C 149.59 126.13 148.89 125.41 148.02 125.39 C 147.15 125.37 146.43 126.06 146.41 126.94 Z M 146.39 127.94 L 146.35 128.94 C 146.31 129.82 146.99 130.55 147.87 130.59 C 148.74 130.62 149.47 129.94 149.51 129.07 L 149.55 128.06 C 149.58 127.19 148.90 126.46 148.03 126.42 C 147.16 126.39 146.42 127.07 146.39 127.94 Z M 146.35 128.89 L 146.28 129.88 C 146.22 130.75 146.88 131.51 147.75 131.57 C 148.61 131.63 149.37 130.98 149.43 130.11 L 149.50 129.12 C 149.57 128.25 148.91 127.49 148.04 127.43 C 147.17 127.37 146.42 128.02 146.35 128.89 Z M 146.29 129.81 L 146.18 130.78 C 146.08 131.65 146.70 132.43 147.56 132.53 C 148.43 132.63 149.21 132.01 149.31 131.15 L 149.42 130.18 C 149.53 129.31 148.91 128.53 148.04 128.43 C 147.17 128.32 146.39 128.94 146.29 129.81 Z M 146.19 130.69 L 146.01 131.72 C 145.85 132.58 146.43 133.40 147.28 133.55 C 148.14 133.70 148.96 133.13 149.11 132.28 L 149.30 131.24 C 149.45 130.38 148.88 129.56 148.02 129.41 C 147.16 129.26 146.35 129.83 146.19 130.69 Z M 146.04 131.58 L 145.76 132.58 C 145.53 133.42 146.03 134.29 146.87 134.52 C 147.71 134.75 148.57 134.25 148.81 133.41 L 149.08 132.42 C 149.31 131.58 148.82 130.71 147.98 130.48 C 147.14 130.25 146.27 130.74 146.04 131.58 Z M 145.84 132.37 L 145.45 133.27 C 145.11 134.07 145.48 135.00 146.28 135.34 C 147.08 135.69 148.00 135.32 148.35 134.52 L 148.73 133.62 C 149.08 132.82 148.71 131.89 147.91 131.55 C 147.11 131.20 146.18 131.57 145.84 132.37 Z M 145.61 132.99 L 145.08 133.75 C 144.57 134.46 144.75 135.44 145.46 135.94 C 146.17 136.44 147.16 136.27 147.66 135.56 L 148.19 134.80 C 148.69 134.09 148.52 133.10 147.81 132.60 C 147.09 132.10 146.11 132.27 145.61 132.99 Z M 145.37 133.43 L 144.60 134.06 C 143.92 134.60 143.82 135.60 144.36 136.28 C 144.91 136.95 145.91 137.06 146.59 136.51 L 147.36 135.88 C 148.04 135.33 148.14 134.33 147.59 133.66 C 147.04 132.98 146.05 132.88 145.37 133.43 Z M 144.93 133.85 L 144.02 134.26 C 143.23 134.63 142.88 135.57 143.25 136.36 C 143.62 137.16 144.56 137.50 145.35 137.14 L 146.26 136.72 C 147.05 136.35 147.39 135.41 147.03 134.62 C 146.66 133.82 145.72 133.48 144.93 133.85 Z M 144.29 134.16 L 143.33 134.41 C 142.48 134.63 141.97 135.49 142.19 136.34 C 142.41 137.19 143.27 137.70 144.12 137.48 L 145.08 137.24 C 145.93 137.02 146.44 136.15 146.22 135.31 C 146.01 134.46 145.14 133.95 144.29 134.16 Z M 143.58 134.35 L 142.29 134.46 C 141.41 134.54 140.76 135.32 140.84 136.20 C 140.92 137.09 141.70 137.74 142.58 137.66 L 143.87 137.55 C 144.75 137.47 145.40 136.69 145.32 135.80 C 145.25 134.92 144.47 134.27 143.58 134.35 Z M 142.79 134.45 L 142.00 134.28 C 141.11 134.09 140.24 134.65 140.04 135.54 C 139.85 136.43 140.41 137.31 141.30 137.50 L 142.09 137.67 C 142.98 137.86 143.85 137.30 144.05 136.41 C 144.24 135.52 143.67 134.65 142.79 134.45 Z M 143.21 136.49 L 143.38 136.07 C 143.71 135.21 143.28 134.24 142.42 133.91 C 141.55 133.57 140.58 134.00 140.25 134.86 L 140.09 135.29 C 139.75 136.15 140.18 137.12 141.05 137.45 C 141.91 137.79 142.88 137.36 143.21 136.49 Z M 142.75 136.88 L 143.61 136.31 C 144.38 135.79 144.59 134.74 144.08 133.96 C 143.56 133.18 142.51 132.97 141.73 133.49 L 140.87 134.06 C 140.10 134.58 139.89 135.63 140.41 136.41 C 140.92 137.19 141.97 137.40 142.75 136.88 Z M 143.46 136.41 L 144.57 135.82 C 145.40 135.39 145.73 134.36 145.29 133.52 C 144.85 132.69 143.82 132.37 142.99 132.81 L 141.88 133.39 C 141.04 133.83 140.72 134.86 141.16 135.69 C 141.60 136.52 142.63 136.85 143.46 136.41 Z M 144.52 135.86 L 145.40 135.44 C 146.25 135.03 146.61 134.01 146.21 133.16 C 145.80 132.31 144.78 131.94 143.93 132.35 L 143.04 132.77 C 142.19 133.18 141.83 134.20 142.24 135.05 C 142.64 135.90 143.66 136.27 144.52 135.86 Z M 145.36 135.46 L 146.27 135.05 C 147.13 134.67 147.52 133.66 147.13 132.79 C 146.74 131.93 145.73 131.54 144.87 131.93 L 143.97 132.33 C 143.10 132.72 142.72 133.73 143.10 134.59 C 143.49 135.45 144.50 135.84 145.36 135.46 Z M 146.24 135.07 L 147.17 134.67 C 148.04 134.30 148.45 133.29 148.08 132.42 C 147.71 131.55 146.71 131.15 145.84 131.52 L 144.90 131.91 C 144.03 132.28 143.62 133.29 143.99 134.16 C 144.36 135.03 145.37 135.44 146.24 135.07 Z M 147.16 134.68 L 148.03 134.32 C 148.90 133.96 149.32 132.96 148.96 132.09 C 148.60 131.21 147.60 130.79 146.73 131.15 L 145.86 131.51 C 144.98 131.87 144.56 132.87 144.92 133.74 C 145.28 134.62 146.28 135.04 147.16 134.68 Z M 148.01 134.33 L 148.88 133.98 C 149.76 133.63 150.19 132.63 149.84 131.75 C 149.48 130.87 148.49 130.44 147.61 130.80 L 146.74 131.15 C 145.86 131.50 145.43 132.49 145.78 133.37 C 146.14 134.25 147.13 134.68 148.01 134.33 Z M 148.87 133.98 L 149.80 133.62 C 150.68 133.27 151.12 132.28 150.77 131.39 C 150.42 130.51 149.43 130.08 148.55 130.43 L 147.62 130.79 C 146.74 131.14 146.30 132.13 146.65 133.01 C 147.00 133.90 147.99 134.33 148.87 133.98 Z M 149.79 133.62 L 150.80 133.23 C 151.68 132.89 152.12 131.90 151.78 131.01 C 151.43 130.13 150.44 129.69 149.56 130.03 L 148.56 130.42 C 147.67 130.76 147.23 131.76 147.58 132.64 C 147.92 133.52 148.91 133.96 149.79 133.62 Z M 150.79 133.24 L 151.76 132.86 C 152.64 132.53 153.09 131.53 152.75 130.65 C 152.41 129.76 151.42 129.32 150.53 129.66 L 149.56 130.03 C 148.68 130.37 148.24 131.36 148.58 132.25 C 148.91 133.13 149.91 133.57 150.79 133.24 Z M 151.76 132.87 L 152.68 132.52 C 153.57 132.18 154.01 131.19 153.68 130.30 C 153.34 129.42 152.35 128.97 151.47 129.31 L 150.54 129.66 C 149.65 129.99 149.21 130.98 149.54 131.87 C 149.88 132.76 150.87 133.20 151.76 132.87 Z M 152.68 132.52 L 153.63 132.16 C 154.52 131.83 154.97 130.84 154.64 129.95 C 154.30 129.06 153.31 128.61 152.43 128.95 L 151.47 129.30 C 150.59 129.64 150.14 130.63 150.47 131.51 C 150.80 132.40 151.79 132.85 152.68 132.52 Z M 153.63 132.16 L 154.59 131.81 C 155.47 131.48 155.93 130.49 155.60 129.60 C 155.27 128.71 154.28 128.26 153.39 128.59 L 152.43 128.94 C 151.54 129.27 151.09 130.26 151.42 131.15 C 151.75 132.04 152.74 132.49 153.63 132.16 Z M 154.58 131.81 L 155.52 131.47 C 156.41 131.14 156.87 130.16 156.55 129.26 C 156.22 128.37 155.24 127.92 154.35 128.24 L 153.40 128.59 C 152.51 128.91 152.05 129.90 152.38 130.79 C 152.70 131.68 153.69 132.13 154.58 131.81 Z M 155.51 131.47 L 156.47 131.13 C 157.36 130.81 157.83 129.83 157.51 128.93 C 157.19 128.04 156.20 127.58 155.31 127.89 L 154.36 128.24 C 153.46 128.56 153.00 129.54 153.32 130.43 C 153.64 131.32 154.62 131.79 155.51 131.47 Z M 156.45 131.13 L 157.43 130.80 C 158.33 130.49 158.80 129.51 158.49 128.61 C 158.18 127.72 157.20 127.24 156.31 127.55 L 155.33 127.89 C 154.43 128.20 153.96 129.18 154.27 130.07 C 154.58 130.97 155.55 131.44 156.45 131.13 Z M 157.40 130.80 L 158.34 130.50 C 159.25 130.20 159.74 129.23 159.44 128.33 C 159.15 127.43 158.18 126.94 157.28 127.23 L 156.34 127.54 C 155.43 127.83 154.94 128.80 155.24 129.71 C 155.53 130.61 156.50 131.10 157.40 130.80 Z M 158.30 130.51 L 159.23 130.23 C 160.14 129.96 160.66 129.00 160.39 128.09 C 160.11 127.19 159.16 126.67 158.25 126.94 L 157.32 127.22 C 156.41 127.49 155.90 128.45 156.17 129.36 C 156.44 130.27 157.40 130.78 158.30 130.51 Z M 159.19 130.24 L 160.12 129.99 C 161.04 129.75 161.58 128.81 161.34 127.89 C 161.09 126.98 160.15 126.43 159.24 126.68 L 158.30 126.93 C 157.38 127.17 156.84 128.11 157.08 129.03 C 157.33 129.95 158.27 130.49 159.19 130.24 Z M 160.07 130.01 L 161.05 129.78 C 161.98 129.56 162.55 128.64 162.34 127.72 C 162.12 126.79 161.20 126.22 160.28 126.43 L 159.29 126.66 C 158.37 126.88 157.79 127.80 158.01 128.72 C 158.22 129.65 159.15 130.22 160.07 130.01 Z M 161.00 129.79 L 162.00 129.59 C 162.93 129.41 163.53 128.50 163.35 127.57 C 163.16 126.64 162.26 126.04 161.33 126.22 L 160.33 126.42 C 159.40 126.61 158.80 127.51 158.98 128.44 C 159.17 129.37 160.07 129.98 161.00 129.79 Z M 161.95 129.60 L 162.95 129.43 C 163.88 129.28 164.51 128.39 164.36 127.46 C 164.20 126.52 163.32 125.89 162.38 126.05 L 161.38 126.21 C 160.45 126.37 159.82 127.25 159.97 128.19 C 160.13 129.12 161.01 129.76 161.95 129.60 Z M 162.89 129.44 L 163.87 129.31 C 164.81 129.19 165.47 128.32 165.34 127.38 C 165.21 126.44 164.35 125.78 163.41 125.91 L 162.44 126.04 C 161.50 126.17 160.84 127.03 160.96 127.97 C 161.09 128.91 161.95 129.57 162.89 129.44 Z M 163.80 129.32 L 164.83 129.22 C 165.77 129.13 166.47 128.29 166.38 127.35 C 166.29 126.41 165.45 125.71 164.50 125.80 L 163.48 125.90 C 162.53 125.99 161.84 126.83 161.93 127.77 C 162.02 128.72 162.86 129.41 163.80 129.32 Z M 164.71 129.23 L 165.77 129.20 C 166.72 129.18 167.47 128.39 167.45 127.45 C 167.42 126.50 166.64 125.75 165.69 125.77 L 164.63 125.80 C 163.68 125.82 162.93 126.61 162.95 127.55 C 162.97 128.50 163.76 129.25 164.71 129.23 Z M 165.53 129.19 L 166.49 129.30 C 167.43 129.41 168.29 128.74 168.40 127.80 C 168.51 126.86 167.84 126.01 166.90 125.90 L 165.93 125.78 C 164.99 125.67 164.14 126.35 164.03 127.29 C 163.92 128.23 164.59 129.08 165.53 129.19 Z M 166.12 129.22 L 166.97 129.52 C 167.86 129.84 168.84 129.37 169.16 128.48 C 169.48 127.59 169.02 126.61 168.12 126.29 L 167.27 125.99 C 166.38 125.67 165.40 126.13 165.08 127.02 C 164.76 127.92 165.23 128.90 166.12 129.22 Z M 166.53 129.28 L 167.28 129.83 C 168.04 130.40 169.11 130.23 169.67 129.47 C 170.23 128.71 170.07 127.64 169.31 127.08 L 168.56 126.53 C 167.80 125.97 166.73 126.13 166.17 126.89 C 165.61 127.65 165.77 128.72 166.53 129.28 Z M 166.97 129.53 L 167.58 130.29 C 168.17 131.03 169.25 131.14 169.98 130.55 C 170.72 129.96 170.83 128.88 170.24 128.15 L 169.62 127.38 C 169.03 126.65 167.96 126.54 167.22 127.13 C 166.49 127.72 166.37 128.79 166.97 129.53 Z M 167.40 130.01 L 167.88 130.92 C 168.32 131.76 169.34 132.08 170.18 131.65 C 171.01 131.21 171.34 130.18 170.90 129.35 L 170.42 128.43 C 169.99 127.60 168.96 127.28 168.12 127.71 C 167.29 128.15 166.97 129.18 167.40 130.01 Z M 167.78 130.68 L 168.11 131.66 C 168.41 132.55 169.38 133.03 170.26 132.73 C 171.15 132.43 171.63 131.47 171.33 130.58 L 171.00 129.59 C 170.70 128.71 169.74 128.23 168.85 128.53 C 167.96 128.83 167.48 129.79 167.78 130.68 Z M 168.07 131.46 L 168.27 132.45 C 168.46 133.37 169.35 133.95 170.26 133.76 C 171.18 133.58 171.76 132.69 171.58 131.77 L 171.37 130.78 C 171.18 129.87 170.29 129.28 169.38 129.47 C 168.47 129.66 167.88 130.55 168.07 131.46 Z M 168.27 132.31 L 168.38 133.31 C 168.49 134.23 169.32 134.88 170.24 134.77 C 171.15 134.67 171.81 133.84 171.70 132.92 L 171.58 131.92 C 171.48 131.00 170.65 130.35 169.73 130.45 C 168.81 130.56 168.16 131.39 168.27 132.31 Z M 168.39 133.22 L 168.45 134.20 C 168.51 135.11 169.29 135.80 170.21 135.75 C 171.12 135.69 171.81 134.91 171.76 133.99 L 171.70 133.01 C 171.64 132.10 170.85 131.41 169.94 131.46 C 169.03 131.52 168.33 132.30 168.39 133.22 Z M 168.46 134.15 L 168.49 135.18 C 168.52 136.09 169.28 136.80 170.19 136.77 C 171.09 136.74 171.80 135.98 171.78 135.08 L 171.74 134.04 C 171.72 133.14 170.96 132.43 170.05 132.45 C 169.15 132.48 168.43 133.24 168.46 134.15 Z M 168.51 135.12 L 168.50 136.13 C 168.50 137.02 169.22 137.76 170.12 137.76 C 171.02 137.77 171.75 137.04 171.76 136.14 L 171.76 135.14 C 171.77 134.24 171.04 133.51 170.14 133.50 C 169.25 133.50 168.51 134.22 168.51 135.12 Z M 168.52 136.03 L 168.46 137.00 C 168.40 137.89 169.08 138.65 169.97 138.71 C 170.86 138.76 171.62 138.09 171.68 137.20 L 171.74 136.24 C 171.80 135.35 171.12 134.58 170.23 134.53 C 169.34 134.47 168.58 135.14 168.52 136.03 Z M 168.49 136.87 L 168.36 137.79 C 168.23 138.67 168.84 139.47 169.72 139.60 C 170.59 139.72 171.40 139.11 171.52 138.24 L 171.65 137.32 C 171.78 136.45 171.17 135.64 170.29 135.52 C 169.42 135.39 168.61 136.00 168.49 136.87 Z M 168.40 137.63 L 168.17 138.54 C 167.96 139.39 168.48 140.25 169.34 140.46 C 170.19 140.67 171.05 140.15 171.26 139.30 L 171.48 138.40 C 171.69 137.54 171.17 136.68 170.32 136.47 C 169.47 136.26 168.61 136.78 168.40 137.63 Z M 168.24 138.37 L 167.88 139.32 C 167.57 140.13 167.98 141.05 168.80 141.35 C 169.62 141.66 170.53 141.25 170.84 140.43 L 171.19 139.48 C 171.50 138.66 171.09 137.75 170.27 137.44 C 169.46 137.14 168.54 137.55 168.24 138.37 Z M 167.96 139.16 L 167.47 140.11 C 167.08 140.88 167.39 141.83 168.16 142.22 C 168.93 142.62 169.88 142.31 170.27 141.54 L 170.76 140.59 C 171.15 139.81 170.84 138.87 170.07 138.47 C 169.30 138.08 168.35 138.39 167.96 139.16 Z M 167.54 140.01 L 167.06 140.78 C 166.61 141.52 166.84 142.49 167.58 142.94 C 168.32 143.39 169.29 143.15 169.74 142.42 L 170.21 141.64 C 170.66 140.90 170.43 139.94 169.69 139.48 C 168.95 139.03 167.99 139.27 167.54 140.01 Z M 167.10 140.73 L 166.55 141.54 C 166.07 142.26 166.26 143.23 166.98 143.72 C 167.70 144.20 168.67 144.01 169.15 143.29 L 169.70 142.47 C 170.18 141.75 169.99 140.78 169.27 140.30 C 168.55 139.82 167.58 140.01 167.10 140.73 Z M 166.58 141.51 L 165.98 142.35 C 165.48 143.06 165.64 144.03 166.34 144.54 C 167.05 145.04 168.02 144.87 168.52 144.17 L 169.13 143.32 C 169.63 142.62 169.46 141.64 168.76 141.14 C 168.05 140.64 167.08 140.81 166.58 141.51 Z M 165.99 142.34 L 165.36 143.20 C 164.85 143.89 165.00 144.87 165.69 145.38 C 166.39 145.89 167.37 145.74 167.88 145.05 L 168.51 144.19 C 169.02 143.49 168.87 142.51 168.17 142.00 C 167.48 141.49 166.50 141.64 165.99 142.34 Z M 165.36 143.19 L 165.06 143.61 C 164.54 144.30 164.69 145.28 165.38 145.79 C 166.07 146.30 167.05 146.16 167.57 145.47 L 167.87 145.05 C 168.39 144.36 168.24 143.38 167.55 142.87 C 166.86 142.35 165.88 142.50 165.36 143.19 Z"
      fill="black"
      fill-rule="nonzero" /><path d="M 131.19 151.14 L 130.39 152.10 C 129.79 152.82 129.88 153.89 130.60 154.49 C 131.32 155.09 132.39 155.00 132.99 154.28 L 133.79 153.32 C 134.39 152.60 134.30 151.53 133.58 150.93 C 132.87 150.33 131.80 150.42 131.19 151.14 Z M 130.26 152.23 L 129.69 153.08 C 129.16 153.87 129.36 154.94 130.15 155.47 C 130.94 156.00 132.01 155.79 132.54 155.00 L 133.11 154.15 C 133.65 153.36 133.44 152.30 132.65 151.76 C 131.86 151.23 130.80 151.44 130.26 152.23 Z M 129.40 153.72 L 129.28 154.37 C 129.10 155.31 129.72 156.22 130.67 156.40 C 131.62 156.58 132.53 155.96 132.70 155.01 L 132.83 154.36 C 133.00 153.42 132.38 152.51 131.43 152.33 C 130.49 152.15 129.58 152.77 129.40 153.72 Z M 129.97 156.12 L 130.49 156.49 C 131.28 157.06 132.38 156.88 132.94 156.09 C 133.51 155.30 133.33 154.20 132.54 153.64 L 132.01 153.26 C 131.23 152.70 130.13 152.88 129.56 153.67 C 129.00 154.45 129.18 155.55 129.97 156.12 Z M 131.31 156.81 L 132.34 156.93 C 133.31 157.04 134.18 156.35 134.29 155.39 C 134.41 154.42 133.71 153.55 132.75 153.44 L 131.72 153.32 C 130.75 153.21 129.88 153.90 129.77 154.86 C 129.66 155.83 130.35 156.70 131.31 156.81 Z M 132.61 156.94 L 133.84 156.90 C 134.82 156.86 135.57 156.05 135.54 155.08 C 135.50 154.10 134.69 153.35 133.72 153.38 L 132.48 153.43 C 131.51 153.46 130.75 154.28 130.79 155.25 C 130.82 156.22 131.64 156.98 132.61 156.94 Z M 133.95 156.89 L 134.88 156.80 C 135.84 156.71 136.55 155.85 136.46 154.88 C 136.36 153.91 135.50 153.20 134.53 153.30 L 133.61 153.39 C 132.64 153.48 131.93 154.34 132.03 155.31 C 132.12 156.28 132.98 156.99 133.95 156.89 Z M 134.94 156.79 L 135.91 156.66 C 136.87 156.52 137.54 155.64 137.41 154.68 C 137.28 153.72 136.39 153.04 135.43 153.18 L 134.46 153.31 C 133.50 153.44 132.83 154.33 132.96 155.29 C 133.10 156.25 133.98 156.92 134.94 156.79 Z M 135.96 156.65 L 136.97 156.47 C 137.93 156.31 138.57 155.40 138.40 154.45 C 138.24 153.49 137.33 152.85 136.38 153.01 L 135.37 153.19 C 134.42 153.35 133.77 154.26 133.94 155.21 C 134.10 156.17 135.01 156.81 135.96 156.65 Z M 137.02 156.46 L 138.08 156.25 C 139.02 156.06 139.64 155.14 139.45 154.19 C 139.26 153.24 138.34 152.63 137.39 152.81 L 136.33 153.03 C 135.38 153.22 134.77 154.14 134.96 155.09 C 135.15 156.04 136.07 156.65 137.02 156.46 Z M 138.11 156.24 L 139.11 156.02 C 140.05 155.81 140.65 154.87 140.44 153.93 C 140.23 152.99 139.30 152.40 138.36 152.60 L 137.35 152.83 C 136.41 153.03 135.82 153.97 136.03 154.91 C 136.24 155.85 137.17 156.45 138.11 156.24 Z M 139.14 156.00 L 140.15 155.77 C 141.08 155.54 141.66 154.61 141.44 153.67 C 141.22 152.73 140.28 152.16 139.34 152.38 L 138.33 152.62 C 137.40 152.84 136.82 153.78 137.04 154.71 C 137.26 155.65 138.20 156.23 139.14 156.00 Z M 140.16 155.76 L 141.16 155.51 C 142.09 155.28 142.66 154.34 142.43 153.41 C 142.20 152.48 141.26 151.91 140.33 152.14 L 139.33 152.39 C 138.40 152.62 137.83 153.56 138.06 154.49 C 138.29 155.42 139.23 155.99 140.16 155.76 Z M 141.17 155.50 L 142.13 155.25 C 143.05 155.02 143.61 154.08 143.38 153.15 C 143.14 152.23 142.20 151.67 141.27 151.90 L 140.32 152.15 C 139.39 152.39 138.83 153.33 139.07 154.25 C 139.30 155.18 140.25 155.74 141.17 155.50 Z M 142.13 155.25 L 143.06 155.00 C 143.98 154.76 144.54 153.82 144.29 152.90 C 144.05 151.98 143.11 151.43 142.19 151.67 L 141.26 151.91 C 140.34 152.15 139.79 153.09 140.03 154.01 C 140.27 154.94 141.21 155.49 142.13 155.25 Z M 143.07 155.00 L 144.13 154.71 C 145.05 154.47 145.59 153.53 145.35 152.61 C 145.11 151.70 144.17 151.15 143.25 151.40 L 142.19 151.68 C 141.27 151.92 140.73 152.86 140.97 153.78 C 141.21 154.69 142.15 155.24 143.07 155.00 Z M 144.14 154.70 L 145.08 154.45 C 145.99 154.20 146.53 153.26 146.28 152.35 C 146.04 151.44 145.10 150.90 144.19 151.15 L 143.24 151.41 C 142.33 151.65 141.80 152.59 142.04 153.50 C 142.29 154.41 143.23 154.95 144.14 154.70 Z M 145.09 154.44 L 145.98 154.19 C 146.88 153.94 147.41 153.00 147.16 152.10 C 146.91 151.19 145.97 150.66 145.07 150.91 L 144.18 151.16 C 143.28 151.41 142.75 152.35 143.00 153.25 C 143.25 154.16 144.19 154.69 145.09 154.44 Z M 145.98 154.18 L 146.89 153.92 C 147.79 153.67 148.31 152.73 148.06 151.83 C 147.80 150.93 146.87 150.41 145.97 150.67 L 145.06 150.92 C 144.16 151.18 143.64 152.11 143.89 153.01 C 144.15 153.91 145.08 154.44 145.98 154.18 Z M 146.89 153.92 L 147.83 153.65 C 148.73 153.39 149.25 152.46 148.99 151.57 C 148.74 150.67 147.81 150.15 146.91 150.40 L 145.97 150.67 C 145.07 150.93 144.55 151.86 144.81 152.76 C 145.06 153.65 145.99 154.17 146.89 153.92 Z M 147.83 153.65 L 148.80 153.37 C 149.70 153.12 150.22 152.19 149.97 151.30 C 149.72 150.40 148.79 149.88 147.90 150.13 L 146.92 150.41 C 146.02 150.66 145.50 151.59 145.75 152.48 C 146.00 153.38 146.93 153.90 147.83 153.65 Z M 148.79 153.37 L 149.78 153.10 C 150.67 152.86 151.20 151.94 150.96 151.05 C 150.71 150.15 149.79 149.63 148.90 149.87 L 147.91 150.14 C 147.02 150.38 146.49 151.30 146.73 152.19 C 146.98 153.08 147.90 153.61 148.79 153.37 Z M 149.76 153.10 L 150.72 152.85 C 151.61 152.61 152.14 151.70 151.91 150.81 C 151.68 149.92 150.77 149.39 149.87 149.62 L 148.92 149.87 C 148.02 150.10 147.49 151.02 147.72 151.91 C 147.96 152.80 148.87 153.33 149.76 153.10 Z M 150.71 152.84 L 151.69 152.59 C 152.58 152.36 153.11 151.46 152.88 150.57 C 152.65 149.68 151.75 149.14 150.86 149.37 L 149.88 149.62 C 148.99 149.85 148.46 150.76 148.69 151.65 C 148.92 152.54 149.82 153.07 150.71 152.84 Z M 151.68 152.59 L 152.66 152.33 C 153.55 152.11 154.08 151.21 153.85 150.32 C 153.63 149.43 152.73 148.90 151.84 149.13 L 150.86 149.38 C 149.98 149.61 149.44 150.51 149.67 151.39 C 149.90 152.28 150.80 152.81 151.68 152.59 Z M 152.67 152.33 L 153.65 152.07 C 154.53 151.84 155.05 150.94 154.83 150.06 C 154.60 149.18 153.70 148.65 152.81 148.88 L 151.84 149.14 C 150.95 149.37 150.43 150.27 150.66 151.15 C 150.88 152.03 151.79 152.56 152.67 152.33 Z M 153.65 152.06 L 154.62 151.80 C 155.50 151.57 156.02 150.67 155.79 149.80 C 155.55 148.92 154.65 148.40 153.78 148.63 L 152.81 148.89 C 151.93 149.12 151.41 150.02 151.64 150.90 C 151.88 151.78 152.78 152.30 153.65 152.06 Z M 154.63 151.80 L 155.59 151.53 C 156.46 151.29 156.98 150.39 156.74 149.52 C 156.50 148.65 155.60 148.14 154.73 148.38 L 153.77 148.64 C 152.90 148.88 152.38 149.78 152.62 150.65 C 152.86 151.52 153.76 152.03 154.63 151.80 Z M 155.60 151.52 L 156.56 151.25 C 157.42 151.01 157.93 150.11 157.68 149.24 C 157.43 148.37 156.53 147.87 155.67 148.12 L 154.71 148.39 C 153.85 148.63 153.35 149.53 153.59 150.40 C 153.84 151.27 154.74 151.77 155.60 151.52 Z M 156.57 151.24 L 157.53 150.96 C 158.39 150.71 158.89 149.80 158.63 148.94 C 158.38 148.08 157.48 147.59 156.62 147.84 L 155.66 148.13 C 154.80 148.38 154.30 149.28 154.56 150.14 C 154.81 151.00 155.71 151.49 156.57 151.24 Z M 157.54 150.95 L 158.50 150.66 C 159.36 150.40 159.84 149.50 159.58 148.64 C 159.32 147.79 158.42 147.31 157.57 147.56 L 156.61 147.85 C 155.75 148.11 155.27 149.02 155.53 149.87 C 155.79 150.72 156.69 151.21 157.54 150.95 Z M 158.51 150.65 L 159.46 150.36 C 160.31 150.09 160.79 149.19 160.53 148.34 C 160.27 147.49 159.36 147.02 158.51 147.28 L 157.56 147.57 C 156.71 147.84 156.23 148.74 156.50 149.59 C 156.76 150.44 157.66 150.91 158.51 150.65 Z M 159.47 150.35 L 160.43 150.05 C 161.27 149.78 161.74 148.88 161.48 148.04 C 161.21 147.19 160.31 146.72 159.47 146.99 L 158.51 147.29 C 157.66 147.55 157.19 148.45 157.46 149.30 C 157.72 150.14 158.62 150.61 159.47 150.35 Z M 160.43 150.04 L 161.39 149.74 C 162.23 149.47 162.70 148.57 162.43 147.73 C 162.17 146.89 161.27 146.42 160.43 146.69 L 159.47 146.99 C 158.62 147.26 158.16 148.16 158.42 149.00 C 158.69 149.84 159.59 150.31 160.43 150.04 Z M 161.39 149.73 L 162.34 149.43 C 163.18 149.17 163.65 148.28 163.38 147.44 C 163.12 146.60 162.22 146.13 161.38 146.39 L 160.43 146.69 C 159.59 146.96 159.13 147.85 159.39 148.69 C 159.65 149.53 160.55 150.00 161.39 149.73 Z M 162.33 149.43 L 163.27 149.14 C 164.11 148.88 164.58 147.99 164.32 147.15 C 164.06 146.31 163.17 145.85 162.33 146.11 L 161.39 146.40 C 160.55 146.66 160.09 147.55 160.35 148.38 C 160.60 149.22 161.49 149.69 162.33 149.43 Z M 163.26 149.14 L 164.13 148.87 C 164.97 148.62 165.44 147.73 165.19 146.90 C 164.93 146.06 164.05 145.59 163.21 145.84 L 162.34 146.11 C 161.51 146.36 161.03 147.25 161.29 148.08 C 161.54 148.92 162.43 149.39 163.26 149.14 Z M 164.14 148.87 L 165.04 148.59 C 165.87 148.33 166.34 147.45 166.08 146.61 C 165.82 145.78 164.94 145.31 164.10 145.57 L 163.21 145.85 C 162.37 146.11 161.91 146.99 162.16 147.82 C 162.42 148.66 163.31 149.12 164.14 148.87 Z M 165.06 148.58 L 166.04 148.26 C 166.86 147.99 167.32 147.10 167.05 146.27 C 166.78 145.45 165.89 144.99 165.06 145.26 L 164.08 145.58 C 163.26 145.85 162.80 146.74 163.07 147.57 C 163.34 148.39 164.23 148.85 165.06 148.58 Z M 166.06 148.25 L 167.10 147.89 C 167.92 147.60 168.36 146.71 168.07 145.89 C 167.79 145.07 166.89 144.63 166.07 144.92 L 165.04 145.28 C 164.22 145.56 163.78 146.45 164.06 147.28 C 164.35 148.10 165.24 148.53 166.06 148.25 Z M 167.13 147.88 L 168.01 147.55 C 168.82 147.25 169.24 146.35 168.94 145.54 C 168.64 144.73 167.74 144.31 166.93 144.61 L 166.05 144.93 C 165.23 145.23 164.82 146.13 165.11 146.94 C 165.41 147.75 166.31 148.17 167.13 147.88 Z M 168.03 147.54 L 168.96 147.19 C 169.77 146.88 170.18 145.97 169.87 145.16 C 169.56 144.35 168.65 143.95 167.84 144.26 L 166.91 144.61 C 166.10 144.92 165.70 145.83 166.00 146.64 C 166.31 147.45 167.22 147.85 168.03 147.54 Z M 168.98 147.18 L 169.94 146.80 C 170.74 146.48 171.14 145.56 170.82 144.76 C 170.50 143.96 169.58 143.56 168.78 143.88 L 167.82 144.27 C 167.02 144.59 166.63 145.50 166.95 146.30 C 167.27 147.11 168.18 147.50 168.98 147.18 Z M 169.96 146.79 L 170.92 146.39 C 171.72 146.05 172.10 145.14 171.76 144.34 C 171.43 143.54 170.51 143.16 169.72 143.50 L 168.76 143.90 C 167.96 144.23 167.58 145.14 167.92 145.94 C 168.25 146.74 169.17 147.12 169.96 146.79 Z M 170.95 146.37 L 171.88 145.97 C 172.67 145.62 173.03 144.70 172.68 143.90 C 172.33 143.11 171.41 142.75 170.62 143.10 L 169.69 143.51 C 168.90 143.86 168.54 144.78 168.89 145.57 C 169.23 146.36 170.16 146.72 170.95 146.37 Z M 171.91 145.95 L 172.87 145.50 C 173.66 145.14 174.00 144.21 173.63 143.42 C 173.27 142.64 172.34 142.30 171.55 142.67 L 170.59 143.12 C 169.81 143.48 169.47 144.41 169.83 145.19 C 170.20 145.98 171.12 146.31 171.91 145.95 Z M 172.90 145.49 L 173.82 145.04 C 174.59 144.66 174.91 143.72 174.53 142.95 C 174.15 142.17 173.21 141.85 172.44 142.23 L 171.52 142.68 C 170.75 143.06 170.43 144.00 170.81 144.77 C 171.19 145.55 172.13 145.87 172.90 145.49 Z M 173.84 145.03 L 174.72 144.58 C 175.48 144.18 175.79 143.24 175.39 142.47 C 175.00 141.71 174.06 141.40 173.29 141.80 L 172.41 142.24 C 171.65 142.64 171.34 143.58 171.74 144.35 C 172.13 145.12 173.07 145.42 173.84 145.03 Z M 174.73 144.57 L 175.58 144.12 C 176.35 143.72 176.64 142.77 176.24 142.01 C 175.84 141.25 174.89 140.95 174.13 141.36 L 173.28 141.80 C 172.51 142.21 172.22 143.15 172.62 143.91 C 173.02 144.68 173.97 144.97 174.73 144.57 Z M 175.59 144.11 L 176.20 143.79 C 176.96 143.39 177.24 142.44 176.84 141.68 C 176.43 140.92 175.49 140.63 174.73 141.04 L 174.12 141.36 C 173.36 141.76 173.07 142.71 173.48 143.47 C 173.88 144.23 174.83 144.52 175.59 144.11 Z"
      fill="black"
      fill-rule="nonzero" /><path d="M 164.13 141.15 L 164.60 142.00 C 165.07 142.84 166.14 143.14 166.98 142.66 C 167.82 142.19 168.12 141.13 167.65 140.29 L 167.17 139.44 C 166.70 138.60 165.64 138.30 164.79 138.77 C 163.95 139.24 163.65 140.30 164.13 141.15 Z M 164.58 141.97 L 165.05 142.84 C 165.50 143.69 166.56 144.01 167.41 143.55 C 168.26 143.10 168.59 142.04 168.13 141.19 L 167.67 140.32 C 167.21 139.47 166.15 139.15 165.30 139.60 C 164.45 140.06 164.13 141.12 164.58 141.97 Z M 165.02 142.78 L 165.46 143.69 C 165.88 144.56 166.93 144.92 167.80 144.49 C 168.67 144.07 169.03 143.03 168.60 142.16 L 168.16 141.25 C 167.74 140.38 166.69 140.02 165.83 140.44 C 164.96 140.86 164.60 141.91 165.02 142.78 Z M 165.42 143.60 L 165.81 144.53 C 166.19 145.42 167.22 145.84 168.11 145.46 C 169.00 145.08 169.41 144.06 169.04 143.17 L 168.64 142.24 C 168.27 141.35 167.24 140.93 166.35 141.31 C 165.46 141.69 165.04 142.71 165.42 143.60 Z M 165.78 144.45 L 166.11 145.36 C 166.44 146.27 167.45 146.74 168.36 146.41 C 169.26 146.08 169.73 145.08 169.40 144.17 L 169.07 143.25 C 168.74 142.34 167.74 141.87 166.83 142.20 C 165.92 142.53 165.45 143.54 165.78 144.45 Z M 166.09 145.29 L 166.39 146.25 C 166.68 147.17 167.67 147.68 168.59 147.39 C 169.51 147.10 170.02 146.11 169.73 145.19 L 169.43 144.24 C 169.13 143.31 168.15 142.80 167.23 143.10 C 166.31 143.39 165.80 144.37 166.09 145.29 Z M 166.37 146.19 L 166.65 147.18 C 166.91 148.11 167.88 148.65 168.81 148.39 C 169.74 148.13 170.28 147.16 170.02 146.23 L 169.75 145.25 C 169.49 144.32 168.52 143.77 167.59 144.04 C 166.66 144.30 166.11 145.26 166.37 146.19 Z M 166.64 147.13 L 166.88 148.11 C 167.12 149.05 168.07 149.62 169.01 149.38 C 169.94 149.15 170.51 148.20 170.28 147.26 L 170.03 146.28 C 169.80 145.34 168.85 144.77 167.91 145.01 C 166.97 145.24 166.40 146.19 166.64 147.13 Z M 166.87 148.07 L 167.09 149.02 C 167.30 149.97 168.24 150.56 169.18 150.35 C 170.12 150.14 170.72 149.20 170.50 148.26 L 170.29 147.30 C 170.08 146.36 169.14 145.76 168.20 145.98 C 167.25 146.19 166.66 147.13 166.87 148.07 Z M 167.08 148.98 L 167.27 149.95 C 167.46 150.90 168.39 151.52 169.34 151.33 C 170.28 151.14 170.90 150.21 170.71 149.26 L 170.51 148.29 C 170.32 147.35 169.40 146.73 168.45 146.92 C 167.50 147.11 166.89 148.04 167.08 148.98 Z M 167.27 149.92 L 167.44 150.91 C 167.61 151.86 168.52 152.50 169.48 152.33 C 170.43 152.16 171.06 151.25 170.89 150.30 L 170.72 149.30 C 170.55 148.35 169.64 147.71 168.68 147.88 C 167.73 148.05 167.10 148.96 167.27 149.92 Z M 167.44 150.88 L 167.60 151.89 C 167.75 152.85 168.64 153.50 169.60 153.35 C 170.56 153.20 171.21 152.30 171.06 151.34 L 170.90 150.33 C 170.75 149.37 169.85 148.72 168.89 148.87 C 167.94 149.02 167.29 149.92 167.44 150.88 Z M 167.59 151.86 L 167.72 152.79 C 167.86 153.75 168.74 154.42 169.70 154.29 C 170.66 154.15 171.33 153.27 171.19 152.31 L 171.06 151.38 C 170.93 150.42 170.04 149.75 169.09 149.88 C 168.13 150.01 167.46 150.90 167.59 151.86 Z M 167.72 152.77 L 167.84 153.73 C 167.96 154.69 168.83 155.37 169.79 155.25 C 170.75 155.14 171.44 154.26 171.32 153.30 L 171.20 152.34 C 171.08 151.37 170.20 150.69 169.24 150.81 C 168.28 150.93 167.60 151.80 167.72 152.77 Z M 167.83 153.70 L 167.94 154.70 C 168.05 155.66 168.91 156.36 169.87 156.25 C 170.84 156.15 171.53 155.29 171.43 154.32 L 171.32 153.33 C 171.22 152.36 170.35 151.67 169.39 151.77 C 168.43 151.87 167.73 152.74 167.83 153.70 Z M 167.94 154.67 L 168.03 155.71 C 168.12 156.67 168.98 157.38 169.94 157.29 C 170.91 157.20 171.62 156.34 171.53 155.38 L 171.43 154.35 C 171.34 153.38 170.49 152.68 169.52 152.77 C 168.56 152.86 167.85 153.71 167.94 154.67 Z M 168.03 155.68 L 168.12 156.74 C 168.19 157.70 169.04 158.42 170.00 158.34 C 170.97 158.27 171.69 157.42 171.61 156.46 L 171.53 155.40 C 171.45 154.44 170.61 153.72 169.64 153.80 C 168.68 153.87 167.96 154.72 168.03 155.68 Z M 168.12 156.72 L 168.19 157.75 C 168.25 158.71 169.09 159.44 170.05 159.38 C 171.02 159.31 171.75 158.47 171.68 157.51 L 171.61 156.48 C 171.55 155.51 170.71 154.78 169.75 154.85 C 168.78 154.91 168.05 155.75 168.12 156.72 Z M 168.18 157.73 L 168.25 158.77 C 168.30 159.73 169.13 160.47 170.10 160.41 C 171.07 160.36 171.80 159.53 171.75 158.56 L 171.68 157.52 C 171.63 156.56 170.80 155.82 169.83 155.88 C 168.86 155.93 168.13 156.76 168.18 157.73 Z M 168.24 158.75 L 168.30 159.77 C 168.35 160.74 169.17 161.48 170.14 161.43 C 171.11 161.38 171.85 160.56 171.80 159.59 L 171.75 158.57 C 171.70 157.60 170.87 156.86 169.90 156.91 C 168.94 156.96 168.19 157.79 168.24 158.75 Z M 168.30 159.76 L 168.34 160.75 C 168.39 161.71 169.21 162.46 170.18 162.41 C 171.15 162.37 171.89 161.55 171.85 160.58 L 171.80 159.60 C 171.75 158.63 170.93 157.88 169.97 157.93 C 169.00 157.98 168.25 158.80 168.30 159.76 Z M 168.34 160.74 L 168.39 161.67 C 168.43 162.64 169.25 163.39 170.21 163.35 C 171.18 163.30 171.93 162.48 171.89 161.52 L 171.85 160.58 C 171.80 159.62 170.99 158.87 170.02 158.91 C 169.05 158.95 168.30 159.77 168.34 160.74 Z M 168.39 161.67 L 168.43 162.81 C 168.47 163.77 169.29 164.52 170.26 164.48 C 171.23 164.44 171.98 163.63 171.94 162.66 L 171.89 161.52 C 171.85 160.55 171.03 159.80 170.06 159.84 C 169.10 159.88 168.34 160.70 168.39 161.67 Z M 168.43 162.80 L 168.47 163.81 C 168.51 164.78 169.32 165.53 170.29 165.50 C 171.26 165.46 172.01 164.65 171.98 163.68 L 171.94 162.67 C 171.90 161.70 171.09 160.94 170.12 160.98 C 169.15 161.02 168.40 161.83 168.43 162.80 Z M 168.47 163.80 L 168.50 164.73 C 168.53 165.69 169.34 166.45 170.31 166.42 C 171.28 166.39 172.04 165.58 172.00 164.62 L 171.98 163.69 C 171.95 162.72 171.14 161.96 170.17 161.99 C 169.20 162.02 168.44 162.83 168.47 163.80 Z M 168.50 164.71 L 168.52 165.59 C 168.54 166.56 169.34 167.33 170.31 167.31 C 171.28 167.29 172.05 166.48 172.02 165.51 L 172.01 164.63 C 171.98 163.66 171.18 162.90 170.21 162.92 C 169.24 162.94 168.48 163.74 168.50 164.71 Z M 168.52 165.58 L 168.53 166.48 C 168.54 167.45 169.34 168.22 170.31 168.21 C 171.27 168.20 172.05 167.40 172.04 166.43 L 172.03 165.53 C 172.01 164.56 171.22 163.79 170.25 163.80 C 169.28 163.81 168.51 164.61 168.52 165.58 Z M 168.53 166.47 L 168.54 167.43 C 168.54 168.40 169.33 169.18 170.30 169.17 C 171.27 169.17 172.05 168.38 172.04 167.41 L 172.04 166.45 C 172.03 165.48 171.24 164.70 170.27 164.70 C 169.31 164.71 168.53 165.50 168.53 166.47 Z M 168.54 167.42 L 168.54 168.52 C 168.54 169.48 169.32 170.27 170.29 170.27 C 171.26 170.27 172.04 169.48 172.04 168.51 L 172.04 167.42 C 172.04 166.45 171.25 165.67 170.29 165.67 C 169.32 165.67 168.53 166.45 168.54 167.42 Z M 168.54 168.51 L 168.54 169.49 C 168.54 170.46 169.32 171.25 170.29 171.25 C 171.26 171.25 172.04 170.46 172.04 169.49 L 172.04 168.51 C 172.04 167.55 171.26 166.76 170.29 166.76 C 169.32 166.76 168.54 167.55 168.54 168.51 Z M 168.54 169.49 L 168.53 170.43 C 168.53 171.39 169.31 172.18 170.28 172.18 C 171.25 172.19 172.04 171.40 172.04 170.44 L 172.04 169.50 C 172.04 168.53 171.26 167.74 170.29 167.74 C 169.33 167.74 168.54 168.52 168.54 169.49 Z M 168.54 170.42 L 168.53 171.42 C 168.52 172.39 169.30 173.18 170.26 173.18 C 171.23 173.19 172.02 172.41 172.03 171.45 L 172.04 170.45 C 172.05 169.48 171.27 168.69 170.30 168.68 C 169.33 168.67 168.54 169.45 168.54 170.42 Z M 168.53 171.40 L 168.51 172.45 C 168.49 173.41 169.27 174.21 170.23 174.23 C 171.20 174.24 172.00 173.47 172.01 172.50 L 172.03 171.46 C 172.05 170.49 171.27 169.70 170.31 169.68 C 169.34 169.67 168.54 170.44 168.53 171.40 Z M 168.51 172.43 L 168.48 173.49 C 168.46 174.45 169.22 175.26 170.18 175.29 C 171.15 175.31 171.95 174.55 171.98 173.59 L 172.01 172.52 C 172.04 171.56 171.28 170.75 170.31 170.73 C 169.34 170.70 168.54 171.46 168.51 172.43 Z M 168.48 173.46 L 168.44 174.52 C 168.40 175.48 169.15 176.30 170.11 176.34 C 171.08 176.38 171.89 175.63 171.93 174.67 L 171.98 173.61 C 172.02 172.65 171.27 171.83 170.31 171.79 C 169.34 171.75 168.53 172.50 168.48 173.46 Z M 168.44 174.49 L 168.38 175.51 C 168.32 176.47 169.05 177.30 170.02 177.36 C 170.98 177.42 171.81 176.69 171.87 175.72 L 171.93 174.70 C 171.99 173.73 171.26 172.91 170.29 172.85 C 169.33 172.79 168.50 173.52 168.44 174.49 Z M 168.38 175.48 L 168.30 176.49 C 168.23 177.45 168.94 178.29 169.90 178.37 C 170.86 178.44 171.71 177.73 171.78 176.77 L 171.86 175.76 C 171.94 174.80 171.23 173.95 170.26 173.88 C 169.30 173.80 168.46 174.52 168.38 175.48 Z M 168.31 176.45 L 168.21 177.44 C 168.11 178.40 168.81 179.26 169.77 179.35 C 170.73 179.45 171.58 178.75 171.68 177.79 L 171.78 176.80 C 171.88 175.84 171.18 174.99 170.22 174.89 C 169.26 174.79 168.40 175.49 168.31 176.45 Z M 168.21 177.40 L 168.09 178.38 C 167.98 179.34 168.65 180.21 169.61 180.33 C 170.56 180.44 171.43 179.76 171.55 178.81 L 171.67 177.83 C 171.79 176.88 171.11 176.01 170.16 175.89 C 169.20 175.77 168.33 176.45 168.21 177.40 Z M 168.10 178.34 L 167.96 179.31 C 167.82 180.26 168.48 181.14 169.43 181.28 C 170.38 181.42 171.26 180.76 171.40 179.81 L 171.54 178.85 C 171.68 177.90 171.03 177.01 170.08 176.87 C 169.12 176.73 168.24 177.39 168.10 178.34 Z M 167.97 179.26 L 167.80 180.24 C 167.64 181.19 168.27 182.09 169.22 182.25 C 170.16 182.42 171.06 181.78 171.22 180.84 L 171.39 179.86 C 171.56 178.91 170.92 178.01 169.98 177.85 C 169.03 177.68 168.13 178.32 167.97 179.26 Z M 167.81 180.20 L 167.61 181.17 C 167.42 182.11 168.03 183.03 168.97 183.22 C 169.91 183.41 170.82 182.80 171.01 181.86 L 171.21 180.88 C 171.40 179.95 170.79 179.03 169.86 178.84 C 168.92 178.65 168.00 179.26 167.81 180.20 Z M 167.63 181.12 L 167.40 182.08 C 167.18 183.01 167.75 183.95 168.68 184.17 C 169.61 184.39 170.55 183.81 170.77 182.88 L 171.00 181.92 C 171.22 180.99 170.64 180.05 169.71 179.83 C 168.78 179.61 167.85 180.19 167.63 181.12 Z M 167.42 182.02 L 167.15 182.98 C 166.90 183.90 167.44 184.85 168.36 185.11 C 169.28 185.36 170.23 184.82 170.48 183.91 L 170.75 182.94 C 171.00 182.03 170.46 181.07 169.54 180.82 C 168.63 180.56 167.67 181.10 167.42 182.02 Z M 167.18 182.92 L 166.87 183.87 C 166.58 184.78 167.08 185.75 167.98 186.04 C 168.89 186.33 169.86 185.83 170.15 184.93 L 170.46 183.97 C 170.75 183.06 170.25 182.09 169.34 181.80 C 168.44 181.51 167.47 182.01 167.18 182.92 Z M 166.90 183.80 L 166.54 184.77 C 166.21 185.66 166.67 186.65 167.56 186.98 C 168.45 187.31 169.44 186.85 169.77 185.96 L 170.12 185.00 C 170.45 184.10 170.00 183.12 169.11 182.79 C 168.22 182.46 167.23 182.91 166.90 183.80 Z M 166.57 184.70 L 166.17 185.67 C 165.80 186.54 166.22 187.54 167.09 187.91 C 167.96 188.28 168.97 187.86 169.33 186.99 L 169.74 186.03 C 170.10 185.15 169.69 184.15 168.82 183.78 C 167.94 183.42 166.94 183.83 166.57 184.70 Z M 166.20 185.60 L 165.76 186.54 C 165.36 187.40 165.73 188.41 166.59 188.81 C 167.44 189.21 168.46 188.85 168.86 187.99 L 169.30 187.05 C 169.70 186.20 169.33 185.18 168.48 184.78 C 167.62 184.38 166.60 184.75 166.20 185.60 Z M 165.80 186.48 L 165.34 187.37 C 164.90 188.20 165.23 189.23 166.06 189.67 C 166.89 190.10 167.92 189.78 168.36 188.94 L 168.82 188.05 C 169.26 187.22 168.93 186.19 168.10 185.76 C 167.26 185.32 166.24 185.65 165.80 186.48 Z M 165.38 187.31 L 164.90 188.13 C 164.43 188.94 164.70 189.98 165.51 190.45 C 166.33 190.92 167.36 190.65 167.83 189.84 L 168.31 189.01 C 168.79 188.20 168.51 187.16 167.70 186.69 C 166.89 186.22 165.85 186.50 165.38 187.31 Z M 164.96 188.06 L 164.41 188.89 C 163.89 189.67 164.11 190.72 164.89 191.23 C 165.67 191.74 166.72 191.53 167.23 190.75 L 167.78 189.91 C 168.29 189.13 168.08 188.09 167.30 187.57 C 166.52 187.06 165.47 187.28 164.96 188.06 Z M 164.49 188.79 L 163.82 189.65 C 163.25 190.39 163.39 191.44 164.12 192.01 C 164.85 192.58 165.90 192.44 166.47 191.71 L 167.14 190.85 C 167.71 190.12 167.58 189.06 166.85 188.49 C 166.12 187.93 165.06 188.06 164.49 188.79 Z M 163.94 189.54 L 163.26 190.26 C 162.63 190.92 162.66 191.97 163.32 192.61 C 163.99 193.24 165.04 193.21 165.67 192.54 L 166.35 191.83 C 166.98 191.16 166.95 190.11 166.29 189.48 C 165.62 188.85 164.57 188.88 163.94 189.54 Z M 163.40 190.15 L 162.71 190.74 C 162.02 191.33 161.94 192.37 162.53 193.06 C 163.12 193.75 164.16 193.83 164.85 193.24 L 165.54 192.65 C 166.23 192.06 166.31 191.02 165.72 190.33 C 165.13 189.64 164.09 189.56 163.40 190.15 Z M 162.86 190.64 L 162.07 191.18 C 161.33 191.69 161.14 192.70 161.64 193.44 C 162.15 194.19 163.16 194.38 163.91 193.87 L 164.69 193.34 C 165.44 192.83 165.63 191.82 165.12 191.07 C 164.62 190.33 163.60 190.14 162.86 190.64 Z M 162.25 191.09 L 161.37 191.55 C 160.58 191.95 160.27 192.92 160.68 193.72 C 161.08 194.51 162.06 194.82 162.85 194.41 L 163.73 193.96 C 164.52 193.55 164.83 192.58 164.42 191.79 C 164.02 191.00 163.04 190.69 162.25 191.09 Z M 161.57 191.48 L 160.63 191.82 C 159.81 192.12 159.38 193.04 159.68 193.86 C 159.98 194.69 160.90 195.12 161.72 194.82 L 162.66 194.48 C 163.48 194.18 163.91 193.26 163.61 192.43 C 163.31 191.61 162.39 191.18 161.57 191.48 Z M 160.81 191.78 L 159.86 192.01 C 159.01 192.22 158.49 193.07 158.69 193.92 C 158.90 194.77 159.75 195.29 160.60 195.08 L 161.55 194.85 C 162.40 194.65 162.92 193.80 162.71 192.95 C 162.51 192.10 161.66 191.58 160.81 191.78 Z M 159.99 191.99 L 159.05 192.14 C 158.20 192.27 157.61 193.07 157.74 193.93 C 157.87 194.78 158.67 195.37 159.53 195.24 L 160.47 195.10 C 161.33 194.97 161.92 194.17 161.78 193.31 C 161.65 192.45 160.85 191.86 159.99 191.99 Z M 159.15 192.13 L 158.15 192.22 C 157.29 192.30 156.65 193.06 156.73 193.92 C 156.81 194.79 157.57 195.42 158.43 195.34 L 159.43 195.25 C 160.30 195.17 160.93 194.41 160.85 193.55 C 160.77 192.68 160.01 192.05 159.15 192.13 Z M 158.21 192.22 L 157.15 192.27 C 156.29 192.32 155.62 193.05 155.67 193.92 C 155.71 194.78 156.45 195.44 157.31 195.40 L 158.37 195.34 C 159.23 195.30 159.90 194.56 159.85 193.70 C 159.81 192.84 159.07 192.18 158.21 192.22 Z M 157.19 192.28 L 156.20 192.30 C 155.34 192.33 154.66 193.05 154.69 193.91 C 154.71 194.77 155.43 195.45 156.29 195.42 L 157.27 195.40 C 158.14 195.37 158.82 194.65 158.79 193.79 C 158.77 192.93 158.05 192.25 157.19 192.28 Z M 156.23 192.30 L 155.24 192.32 C 154.38 192.33 153.69 193.04 153.70 193.90 C 153.72 194.76 154.43 195.45 155.29 195.44 L 156.27 195.42 C 157.13 195.41 157.82 194.70 157.81 193.84 C 157.80 192.98 157.09 192.29 156.23 192.30 Z M 155.25 192.32 L 154.24 192.32 C 153.38 192.33 152.69 193.03 152.69 193.90 C 152.70 194.76 153.40 195.45 154.26 195.45 L 155.27 195.44 C 156.14 195.43 156.83 194.73 156.82 193.87 C 156.82 193.01 156.11 192.31 155.25 192.32 Z M 154.25 192.32 L 153.22 192.33 C 152.36 192.33 151.66 193.03 151.66 193.89 C 151.67 194.75 152.37 195.45 153.23 195.45 L 154.25 195.45 C 155.12 195.45 155.81 194.75 155.81 193.88 C 155.81 193.02 155.11 192.32 154.25 192.32 Z M 153.23 192.33 L 152.78 192.33 C 151.92 192.33 151.22 193.03 151.22 193.89 C 151.22 194.75 151.92 195.45 152.78 195.45 L 153.23 195.45 C 154.09 195.45 154.79 194.75 154.79 193.89 C 154.79 193.03 154.09 192.33 153.23 192.33 Z"
      fill="black"
      fill-rule="nonzero" /><path d="M 135.22 171.27 L 135.86 171.99 C 136.49 172.68 137.56 172.73 138.25 172.11 C 138.94 171.48 139.00 170.41 138.37 169.72 L 137.73 169.01 C 137.10 168.31 136.03 168.26 135.34 168.89 C 134.64 169.51 134.59 170.58 135.22 171.27 Z M 135.88 172.04 L 136.56 172.74 C 137.22 173.42 138.30 173.44 138.98 172.79 C 139.66 172.13 139.68 171.05 139.02 170.37 L 138.34 169.67 C 137.69 168.99 136.61 168.97 135.93 169.62 C 135.25 170.28 135.23 171.36 135.88 172.04 Z M 136.62 172.82 L 137.37 173.52 C 138.07 174.16 139.16 174.12 139.81 173.42 C 140.46 172.72 140.41 171.63 139.71 170.98 L 138.96 170.29 C 138.26 169.64 137.17 169.69 136.53 170.39 C 135.88 171.09 135.92 172.18 136.62 172.82 Z M 137.46 173.61 L 138.25 174.23 C 139.00 174.83 140.09 174.70 140.69 173.95 C 141.29 173.20 141.16 172.11 140.41 171.51 L 139.62 170.89 C 138.87 170.29 137.78 170.42 137.18 171.17 C 136.59 171.92 136.71 173.02 137.46 173.61 Z M 138.34 174.31 L 139.13 174.85 C 139.93 175.40 141.01 175.19 141.55 174.40 C 142.10 173.61 141.90 172.52 141.10 171.98 L 140.31 171.44 C 139.52 170.89 138.44 171.09 137.89 171.89 C 137.35 172.68 137.55 173.76 138.34 174.31 Z M 139.21 174.90 L 140.07 175.42 C 140.89 175.92 141.96 175.66 142.46 174.84 C 142.96 174.01 142.70 172.94 141.88 172.44 L 141.02 171.92 C 140.20 171.42 139.13 171.69 138.63 172.51 C 138.13 173.33 138.39 174.40 139.21 174.90 Z M 140.14 175.47 L 141.05 175.96 C 141.90 176.42 142.96 176.10 143.42 175.26 C 143.87 174.41 143.56 173.35 142.71 172.89 L 141.80 172.40 C 140.96 171.94 139.90 172.26 139.44 173.10 C 138.98 173.95 139.30 175.01 140.14 175.47 Z M 141.12 175.99 L 142.05 176.45 C 142.92 176.87 143.96 176.50 144.38 175.64 C 144.80 174.77 144.44 173.73 143.57 173.31 L 142.64 172.86 C 141.78 172.44 140.73 172.80 140.31 173.66 C 139.89 174.53 140.26 175.57 141.12 175.99 Z M 142.11 176.47 L 142.98 176.85 C 143.86 177.24 144.89 176.84 145.27 175.96 C 145.66 175.07 145.26 174.05 144.38 173.66 L 143.51 173.28 C 142.63 172.89 141.60 173.29 141.22 174.18 C 140.83 175.06 141.23 176.09 142.11 176.47 Z M 143.03 176.87 L 143.92 177.23 C 144.81 177.59 145.83 177.16 146.19 176.27 C 146.55 175.37 146.11 174.36 145.22 174.00 L 144.33 173.64 C 143.43 173.28 142.42 173.71 142.06 174.61 C 141.70 175.50 142.13 176.51 143.03 176.87 Z M 143.96 177.24 L 144.90 177.59 C 145.80 177.93 146.80 177.47 147.14 176.58 C 147.47 175.68 147.02 174.67 146.12 174.34 L 145.18 173.99 C 144.28 173.65 143.28 174.11 142.94 175.01 C 142.61 175.91 143.06 176.91 143.96 177.24 Z M 144.93 177.60 L 145.91 177.95 C 146.82 178.27 147.81 177.80 148.13 176.89 C 148.45 175.99 147.97 175.00 147.07 174.68 L 146.09 174.33 C 145.18 174.01 144.19 174.48 143.87 175.39 C 143.55 176.29 144.02 177.28 144.93 177.60 Z M 145.93 177.95 L 146.94 178.30 C 147.85 178.60 148.83 178.12 149.14 177.21 C 149.45 176.31 148.96 175.32 148.06 175.01 L 147.05 174.67 C 146.14 174.36 145.16 174.85 144.85 175.76 C 144.54 176.66 145.03 177.65 145.93 177.95 Z M 146.95 178.29 L 147.93 178.62 C 148.84 178.92 149.82 178.43 150.12 177.52 C 150.42 176.62 149.93 175.64 149.02 175.34 L 148.04 175.02 C 147.14 174.72 146.16 175.21 145.86 176.11 C 145.56 177.02 146.05 177.99 146.95 178.29 Z M 147.95 178.61 L 148.94 178.94 C 149.84 179.23 150.81 178.74 151.10 177.83 C 151.40 176.93 150.90 175.96 150.00 175.67 L 149.01 175.35 C 148.11 175.05 147.14 175.55 146.84 176.45 C 146.55 177.35 147.05 178.32 147.95 178.61 Z M 148.95 178.93 L 149.93 179.24 C 150.83 179.53 151.79 179.03 152.08 178.13 C 152.37 177.23 151.87 176.27 150.97 175.99 L 149.99 175.68 C 149.09 175.39 148.13 175.89 147.84 176.79 C 147.56 177.68 148.05 178.64 148.95 178.93 Z M 149.95 179.24 L 150.89 179.53 C 151.78 179.81 152.74 179.31 153.02 178.41 C 153.29 177.52 152.79 176.57 151.90 176.29 L 150.96 175.99 C 150.06 175.71 149.11 176.21 148.83 177.11 C 148.55 178.01 149.05 178.96 149.95 179.24 Z M 150.90 179.52 L 151.78 179.79 C 152.67 180.06 153.61 179.56 153.88 178.66 C 154.16 177.77 153.65 176.83 152.76 176.56 L 151.88 176.29 C 150.99 176.02 150.05 176.52 149.78 177.42 C 149.51 178.31 150.01 179.25 150.90 179.52 Z M 151.80 179.78 L 152.90 180.10 C 153.79 180.36 154.72 179.85 154.98 178.97 C 155.24 178.08 154.73 177.15 153.84 176.89 L 152.74 176.57 C 151.85 176.31 150.92 176.82 150.66 177.70 C 150.40 178.59 150.91 179.52 151.80 179.78 Z M 152.92 180.08 L 153.90 180.36 C 154.78 180.61 155.69 180.09 155.93 179.22 C 156.18 178.34 155.67 177.43 154.79 177.18 L 153.82 176.91 C 152.94 176.66 152.03 177.17 151.78 178.05 C 151.54 178.93 152.05 179.84 152.92 180.08 Z M 153.92 180.34 L 154.80 180.58 C 155.67 180.82 156.56 180.31 156.80 179.44 C 157.04 178.58 156.53 177.68 155.66 177.44 L 154.78 177.20 C 153.91 176.96 153.02 177.47 152.78 178.34 C 152.54 179.21 153.05 180.10 153.92 180.34 Z M 154.80 180.56 L 155.68 180.80 C 156.53 181.04 157.42 180.53 157.65 179.68 C 157.89 178.83 157.39 177.94 156.53 177.71 L 155.66 177.47 C 154.80 177.23 153.92 177.73 153.68 178.59 C 153.45 179.44 153.95 180.32 154.80 180.56 Z M 155.68 180.78 L 156.63 181.05 C 157.48 181.29 158.36 180.80 158.59 179.95 C 158.83 179.11 158.34 178.23 157.50 177.99 L 156.54 177.72 C 155.69 177.49 154.81 177.98 154.58 178.82 C 154.34 179.67 154.83 180.55 155.68 180.78 Z M 156.63 181.04 L 157.60 181.32 C 158.44 181.55 159.31 181.07 159.55 180.23 C 159.79 179.38 159.30 178.51 158.46 178.27 L 157.49 178.00 C 156.65 177.76 155.78 178.25 155.54 179.09 C 155.31 179.93 155.79 180.81 156.63 181.04 Z M 157.61 181.31 L 158.58 181.58 C 159.42 181.81 160.28 181.32 160.51 180.48 C 160.74 179.65 160.25 178.78 159.42 178.55 L 158.45 178.28 C 157.61 178.05 156.75 178.54 156.51 179.38 C 156.28 180.21 156.77 181.08 157.61 181.31 Z M 158.60 181.58 L 159.57 181.84 C 160.40 182.06 161.26 181.56 161.48 180.73 C 161.71 179.89 161.21 179.03 160.37 178.81 L 159.40 178.55 C 158.57 178.33 157.71 178.82 157.48 179.66 C 157.26 180.50 157.76 181.35 158.60 181.58 Z M 159.57 181.84 L 160.54 182.09 C 161.38 182.31 162.23 181.81 162.45 180.97 C 162.67 180.14 162.17 179.28 161.34 179.06 L 160.37 178.81 C 159.53 178.59 158.68 179.09 158.46 179.93 C 158.24 180.76 158.74 181.62 159.57 181.84 Z M 160.54 182.09 L 161.50 182.34 C 162.33 182.57 163.19 182.07 163.41 181.24 C 163.63 180.40 163.14 179.55 162.30 179.32 L 161.34 179.07 C 160.51 178.84 159.65 179.34 159.43 180.17 C 159.21 181.01 159.70 181.86 160.54 182.09 Z M 161.48 182.34 L 162.44 182.61 C 163.28 182.84 164.14 182.35 164.37 181.52 C 164.60 180.69 164.12 179.83 163.29 179.60 L 162.32 179.33 C 161.49 179.10 160.63 179.58 160.40 180.41 C 160.16 181.24 160.65 182.10 161.48 182.34 Z M 162.43 182.60 L 163.39 182.88 C 164.21 183.13 165.08 182.65 165.32 181.82 C 165.57 181.00 165.09 180.13 164.27 179.89 L 163.31 179.60 C 162.48 179.36 161.61 179.84 161.37 180.66 C 161.12 181.49 161.60 182.36 162.43 182.60 Z M 163.38 182.88 L 164.33 183.17 C 165.16 183.42 166.03 182.95 166.28 182.12 C 166.52 181.30 166.06 180.43 165.23 180.18 L 164.28 179.89 C 163.45 179.64 162.58 180.11 162.33 180.93 C 162.08 181.76 162.55 182.63 163.38 182.88 Z M 164.33 183.17 L 164.80 183.31 C 165.62 183.56 166.49 183.09 166.74 182.27 C 166.99 181.44 166.53 180.57 165.70 180.32 L 165.23 180.18 C 164.41 179.93 163.54 180.39 163.29 181.22 C 163.04 182.04 163.50 182.91 164.33 183.17 Z"
      fill="black"
      fill-rule="nonzero" /></svg>