<svg xmlns="http://www.w3.org/2000/svg" width="300" height="300" viewBox="0 0 300 300">
<path d="M 124.19 115.86 L 125.18 115.69 C 126.05 115.54 126.63 114.72 126.48 113.85 C 126.33 112.99 125.51 112.40 124.64 112.55 L 123.65 112.72 C 122.79 112.87 122.20 113.69 122.35 114.56 C 122.50 115.43 123.32 116.01 124.19 115.86 Z M 125.16 115.72 L 126.15 115.57 C 127.03 115.44 127.64 114.61 127.50 113.73 C 127.37 112.84 126.54 112.23 125.66 112.37 L 124.67 112.52 C 123.78 112.65 123.17 113.48 123.31 114.37 C 123.44 115.25 124.27 115.86 125.16 115.72 Z M 126.09 115.61 L 127.08 115.50 C 127.99 115.39 128.64 114.57 128.53 113.66 C 128.43 112.76 127.61 112.11 126.70 112.21 L 125.71 112.33 C 124.80 112.43 124.15 113.25 124.26 114.16 C 124.36 115.07 125.18 115.72 126.09 115.61 Z M 127.00 115.53 L 127.95 115.47 C 128.87 115.41 129.57 114.61 129.51 113.68 C 129.45 112.76 128.65 112.05 127.72 112.12 L 126.78 112.18 C 125.85 112.24 125.15 113.04 125.21 113.97 C 125.28 114.89 126.08 115.59 127.00 115.53 Z M 127.88 115.49 L 128.86 115.47 C 129.80 115.44 130.54 114.66 130.51 113.72 C 130.49 112.78 129.70 112.04 128.76 112.06 L 127.79 112.09 C 126.85 112.12 126.11 112.90 126.14 113.84 C 126.16 114.78 126.94 115.52 127.88 115.49 Z M 128.82 115.49 L 129.86 115.48 C 130.81 115.48 131.58 114.70 131.58 113.75 C 131.57 112.80 130.79 112.03 129.84 112.04 L 128.80 112.04 C 127.85 112.05 127.08 112.82 127.09 113.78 C 127.09 114.73 127.87 115.49 128.82 115.49 Z M 129.85 115.50 L 130.84 115.50 C 131.80 115.50 132.58 114.72 132.58 113.76 C 132.58 112.80 131.80 112.02 130.84 112.02 L 129.85 112.02 C 128.89 112.02 128.11 112.80 128.11 113.76 C 128.11 114.72 128.89 115.50 129.85 115.50 Z M 130.84 115.50 L 131.83 115.50 C 132.79 115.50 133.57 114.72 133.57 113.76 C 133.57 112.80 132.79 112.02 131.83 112.02 L 130.84 112.02 C 129.88 112.02 129.10 112.80 129.10 113.76 C 129.10 114.72 129.88 115.50 130.84 115.50 Z M 131.83 115.50 L 132.84 115.50 C 133.81 115.50 134.59 114.72 134.59 113.76 C 134.59 112.80 133.81 112.02 132.84 112.02 L 131.83 112.02 C 130.86 112.02 130.08 112.80 130.08 113.76 C 130.08 114.72 130.86 115.50 131.83 115.50 Z M 132.84 115.50 L 133.88 115.50 C 134.84 115.50 135.62 114.72 135.62 113.76 C 135.62 112.80 134.84 112.01 133.88 112.01 L 132.84 112.01 C 131.88 112.01 131.10 112.80 131.10 113.76 C 131.10 114.72 131.88 115.50 132.84 115.50 Z M 133.88 115.50 L 134.88 115.50 C 135.84 115.50 136.62 114.72 136.62 113.76 C 136.62 112.80 135.84 112.01 134.88 112.01 L 133.88 112.01 C 132.91 112.01 132.13 112.80 132.13 113.76 C 132.13 114.72 132.91 115.50 133.88 115.50 Z M 134.88 115.50 L 135.86 115.50 C 136.82 115.50 137.60 114.72 137.60 113.76 C 137.60 112.80 136.82 112.02 135.86 112.02 L 134.88 112.02 C 133.91 112.02 133.13 112.80 133.13 113.76 C 133.13 114.72 133.91 115.50 134.88 115.50 Z M 135.86 115.50 L 136.85 115.50 C 137.81 115.50 138.59 114.72 138.59 113.76 C 138.59 112.80 137.81 112.02 136.85 112.02 L 135.86 112.02 C 134.90 112.02 134.12 112.80 134.12 113.76 C 134.12 114.72 134.90 115.50 135.86 115.50 Z M 136.85 115.50 L 137.87 115.50 C 138.83 115.50 139.61 114.72 139.61 113.76 C 139.61 112.80 138.83 112.02 137.87 112.02 L 136.85 112.02 C 135.89 112.02 135.11 112.80 135.11 113.76 C 135.11 114.72 135.89 115.50 136.85 115.50 Z M 137.87 115.50 L 138.86 115.50 C 139.82 115.50 140.60 114.72 140.60 113.76 C 140.60 112.80 139.82 112.02 138.86 112.02 L 137.87 112.02 C 136.91 112.02 136.13 112.80 136.13 113.76 C 136.13 114.72 136.91 115.50 137.87 115.50 Z M 138.86 115.49 L 139.84 115.49 C 140.79 115.49 141.57 114.72 141.57 113.76 C 141.57 112.80 140.79 112.03 139.84 112.03 L 138.86 112.03 C 137.91 112.03 137.13 112.80 137.13 113.76 C 137.13 114.72 137.91 115.49 138.86 115.49 Z M 139.84 115.48 L 140.84 115.48 C 141.79 115.48 142.56 114.71 142.56 113.76 C 142.56 112.81 141.79 112.03 140.84 112.03 L 139.84 112.03 C 138.88 112.03 138.11 112.81 138.11 113.76 C 138.11 114.71 138.88 115.48 139.84 115.48 Z M 140.84 115.48 L 141.86 115.48 C 142.80 115.48 143.57 114.71 143.57 113.76 C 143.57 112.81 142.80 112.04 141.86 112.04 L 140.84 112.04 C 139.89 112.04 139.12 112.81 139.12 113.76 C 139.12 114.71 139.89 115.48 140.84 115.48 Z M 141.86 115.47 L 142.88 115.47 C 143.83 115.47 144.59 114.70 144.59 113.76 C 144.59 112.81 143.83 112.05 142.88 112.05 L 141.86 112.05 C 140.91 112.05 140.15 112.81 140.15 113.76 C 140.15 114.70 140.91 115.47 141.86 115.47 Z M 142.88 115.46 L 143.90 115.46 C 144.84 115.46 145.60 114.70 145.60 113.76 C 145.60 112.82 144.84 112.06 143.90 112.06 L 142.88 112.06 C 141.94 112.06 141.18 112.82 141.18 113.76 C 141.18 114.70 141.94 115.46 142.88 115.46 Z M 143.90 115.45 L 144.91 115.44 C 145.84 115.44 146.60 114.69 146.60 113.76 C 146.59 112.82 145.84 112.07 144.91 112.07 L 143.90 112.07 C 142.96 112.07 142.21 112.83 142.21 113.76 C 142.21 114.69 142.97 115.45 143.90 115.45 Z M 144.91 115.43 L 145.92 115.43 C 146.84 115.42 147.59 114.67 147.58 113.75 C 147.58 112.82 146.83 112.08 145.91 112.08 L 144.90 112.08 C 143.98 112.09 143.23 112.84 143.24 113.76 C 143.24 114.69 143.99 115.43 144.91 115.43 Z M 145.92 115.41 L 146.92 115.41 C 147.83 115.40 148.57 114.65 148.56 113.73 C 148.56 112.82 147.81 112.08 146.89 112.09 L 145.90 112.10 C 144.98 112.10 144.25 112.85 144.25 113.77 C 144.26 114.68 145.01 115.42 145.92 115.41 Z M 146.92 115.39 L 147.91 115.38 C 148.82 115.37 149.55 114.62 149.54 113.71 C 149.53 112.81 148.78 112.08 147.87 112.09 L 146.88 112.10 C 145.97 112.11 145.25 112.86 145.26 113.77 C 145.27 114.68 146.02 115.40 146.92 115.39 Z M 147.93 115.37 L 148.96 115.35 C 149.86 115.33 150.57 114.58 150.56 113.68 C 150.54 112.78 149.79 112.06 148.89 112.08 L 147.86 112.10 C 146.96 112.12 146.24 112.87 146.26 113.77 C 146.28 114.67 147.02 115.38 147.93 115.37 Z M 148.98 115.33 L 149.99 115.30 C 150.88 115.27 151.58 114.52 151.55 113.63 C 151.52 112.73 150.77 112.03 149.88 112.06 L 148.87 112.10 C 147.98 112.12 147.28 112.87 147.31 113.77 C 147.33 114.66 148.08 115.36 148.98 115.33 Z M 150.01 115.28 L 151.00 115.23 C 151.89 115.19 152.57 114.43 152.53 113.55 C 152.48 112.66 151.73 111.98 150.84 112.03 L 149.85 112.08 C 148.97 112.12 148.28 112.88 148.33 113.76 C 148.37 114.65 149.13 115.33 150.01 115.28 Z M 151.04 115.22 L 152.01 115.15 C 152.89 115.08 153.54 114.32 153.48 113.44 C 153.41 112.56 152.65 111.90 151.77 111.97 L 150.80 112.04 C 149.93 112.11 149.27 112.87 149.33 113.75 C 149.40 114.63 150.16 115.28 151.04 115.22 Z M 152.06 115.13 L 153.08 115.02 C 153.94 114.93 154.57 114.15 154.48 113.28 C 154.39 112.41 153.61 111.78 152.74 111.88 L 151.72 111.98 C 150.85 112.08 150.22 112.86 150.32 113.73 C 150.41 114.59 151.19 115.22 152.06 115.13 Z M 153.15 115.01 L 154.16 114.85 C 155.02 114.72 155.61 113.91 155.47 113.05 C 155.34 112.19 154.53 111.60 153.67 111.74 L 152.67 111.89 C 151.81 112.03 151.22 112.83 151.35 113.69 C 151.48 114.55 152.29 115.14 153.15 115.01 Z M 154.26 114.83 L 155.23 114.61 C 156.07 114.41 156.60 113.57 156.41 112.73 C 156.22 111.88 155.38 111.35 154.53 111.54 L 153.57 111.76 C 152.72 111.95 152.19 112.79 152.38 113.64 C 152.57 114.49 153.42 115.02 154.26 114.83 Z M 155.36 114.56 L 156.28 114.26 C 157.11 114.00 157.56 113.11 157.29 112.29 C 157.02 111.47 156.14 111.02 155.32 111.29 L 154.40 111.59 C 153.58 111.85 153.13 112.74 153.39 113.56 C 153.66 114.38 154.54 114.83 155.36 114.56 Z M 156.45 114.20 L 157.35 113.79 C 158.13 113.43 158.48 112.50 158.12 111.72 C 157.76 110.93 156.84 110.59 156.05 110.94 L 155.15 111.35 C 154.37 111.71 154.02 112.64 154.38 113.42 C 154.74 114.21 155.66 114.55 156.45 114.20 Z M 157.49 113.71 L 158.35 113.21 C 159.09 112.78 159.34 111.82 158.91 111.08 C 158.47 110.33 157.52 110.08 156.77 110.51 L 155.91 111.02 C 155.17 111.45 154.92 112.41 155.35 113.15 C 155.79 113.90 156.74 114.15 157.49 113.71 Z M 158.44 113.15 L 159.26 112.59 C 159.98 112.11 160.16 111.14 159.68 110.42 C 159.19 109.71 158.22 109.53 157.51 110.01 L 156.68 110.57 C 155.97 111.06 155.79 112.03 156.27 112.74 C 156.75 113.45 157.73 113.64 158.44 113.15 Z M 159.31 112.56 L 160.12 111.97 C 160.81 111.46 160.96 110.49 160.46 109.79 C 159.95 109.09 158.97 108.94 158.27 109.45 L 157.47 110.04 C 156.77 110.55 156.62 111.53 157.13 112.22 C 157.64 112.92 158.61 113.07 159.31 112.56 Z"
      fill="black"
      fill-rule="nonzero" /><path d="M 149.42 100.68 L 148.49 101.06 C 147.64 101.40 147.23 102.37 147.57 103.23 C 147.92 104.08 148.89 104.49 149.74 104.14 L 150.68 103.76 C 151.53 103.41 151.94 102.44 151.59 101.59 C 151.24 100.74 150.27 100.33 149.42 100.68 Z M 148.41 101.04 L 147.50 101.45 C 146.64 101.84 146.26 102.86 146.65 103.72 C 147.04 104.58 148.05 104.96 148.91 104.57 L 149.82 104.15 C 150.68 103.77 151.06 102.75 150.67 101.89 C 150.28 101.03 149.27 100.65 148.41 101.04 Z M 147.36 101.47 L 146.49 101.95 C 145.64 102.42 145.33 103.49 145.80 104.34 C 146.26 105.18 147.33 105.49 148.18 105.03 L 149.05 104.55 C 149.90 104.08 150.21 103.01 149.74 102.16 C 149.27 101.32 148.21 101.01 147.36 101.47 Z M 146.29 102.03 L 145.49 102.60 C 144.69 103.17 144.50 104.29 145.08 105.10 C 145.65 105.90 146.77 106.09 147.57 105.52 L 148.37 104.95 C 149.18 104.37 149.36 103.26 148.79 102.45 C 148.22 101.65 147.10 101.46 146.29 102.03 Z M 145.32 102.73 L 144.59 103.39 C 143.86 104.06 143.80 105.20 144.48 105.94 C 145.15 106.67 146.29 106.73 147.02 106.05 L 147.75 105.39 C 148.49 104.72 148.54 103.58 147.87 102.84 C 147.19 102.11 146.05 102.05 145.32 102.73 Z M 144.47 103.50 L 143.80 104.24 C 143.12 104.98 143.18 106.13 143.91 106.80 C 144.65 107.47 145.80 107.42 146.47 106.68 L 147.14 105.94 C 147.82 105.20 147.76 104.06 147.03 103.39 C 146.29 102.71 145.14 102.77 144.47 103.50 Z M 143.72 104.33 L 143.08 105.13 C 142.46 105.91 142.58 107.05 143.36 107.67 C 144.14 108.30 145.28 108.17 145.91 107.39 L 146.55 106.59 C 147.17 105.81 147.05 104.67 146.27 104.05 C 145.49 103.42 144.35 103.55 143.72 104.33 Z M 143.04 105.18 L 142.48 105.93 C 141.89 106.73 142.06 107.87 142.86 108.46 C 143.66 109.06 144.80 108.89 145.40 108.09 L 145.95 107.34 C 146.55 106.53 146.38 105.40 145.57 104.80 C 144.77 104.21 143.63 104.38 143.04 105.18 Z M 142.45 105.97 L 141.91 106.75 C 141.34 107.57 141.54 108.70 142.36 109.27 C 143.18 109.84 144.31 109.64 144.89 108.82 L 145.42 108.04 C 146.00 107.22 145.80 106.09 144.98 105.52 C 144.15 104.95 143.03 105.15 142.45 105.97 Z M 141.89 106.78 L 141.34 107.62 C 140.79 108.45 141.02 109.58 141.85 110.13 C 142.68 110.68 143.81 110.45 144.36 109.61 L 144.91 108.78 C 145.46 107.95 145.23 106.82 144.40 106.27 C 143.56 105.72 142.44 105.95 141.89 106.78 Z M 141.32 107.65 L 140.74 108.57 C 140.21 109.41 140.46 110.53 141.30 111.06 C 142.15 111.60 143.27 111.34 143.80 110.50 L 144.38 109.58 C 144.91 108.74 144.66 107.62 143.81 107.09 C 142.97 106.55 141.85 106.81 141.32 107.65 Z M 140.73 108.59 L 140.20 109.46 C 139.68 110.32 139.94 111.43 140.80 111.95 C 141.65 112.47 142.76 112.20 143.28 111.35 L 143.81 110.47 C 144.33 109.62 144.06 108.51 143.21 107.99 C 142.36 107.47 141.25 107.74 140.73 108.59 Z M 140.19 109.48 L 139.67 110.35 C 139.16 111.20 139.44 112.31 140.30 112.82 C 141.15 113.33 142.26 113.05 142.77 112.20 L 143.29 111.33 C 143.80 110.47 143.52 109.37 142.66 108.86 C 141.81 108.35 140.70 108.63 140.19 109.48 Z M 139.67 110.36 L 139.15 111.25 C 138.64 112.11 138.93 113.21 139.79 113.71 C 140.65 114.22 141.75 113.93 142.25 113.07 L 142.77 112.18 C 143.28 111.32 142.99 110.22 142.13 109.72 C 141.27 109.22 140.17 109.50 139.67 110.36 Z M 139.15 111.26 L 138.63 112.15 C 138.14 113.01 138.43 114.11 139.29 114.60 C 140.15 115.10 141.24 114.80 141.74 113.95 L 142.25 113.06 C 142.75 112.20 142.46 111.10 141.60 110.61 C 140.74 110.11 139.64 110.41 139.15 111.26 Z M 138.63 112.16 L 138.14 113.02 C 137.65 113.87 137.95 114.97 138.81 115.46 C 139.67 115.95 140.76 115.65 141.25 114.79 L 141.74 113.94 C 142.23 113.08 141.93 111.98 141.07 111.49 C 140.22 111.00 139.12 111.30 138.63 112.16 Z M 138.14 113.03 L 137.63 113.93 C 137.15 114.79 137.45 115.88 138.31 116.36 C 139.17 116.85 140.26 116.54 140.74 115.68 L 141.25 114.78 C 141.74 113.92 141.43 112.83 140.57 112.35 C 139.72 111.86 138.63 112.17 138.14 113.03 Z M 137.64 113.95 L 137.14 114.85 C 136.66 115.71 136.97 116.79 137.83 117.26 C 138.69 117.74 139.77 117.43 140.24 116.57 L 140.74 115.67 C 141.22 114.81 140.91 113.73 140.05 113.25 C 139.19 112.78 138.11 113.09 137.64 113.95 Z M 137.14 114.87 L 136.67 115.72 C 136.21 116.58 136.53 117.65 137.38 118.12 C 138.24 118.58 139.32 118.26 139.78 117.41 L 140.24 116.55 C 140.71 115.69 140.39 114.62 139.53 114.16 C 138.67 113.69 137.60 114.01 137.14 114.87 Z M 136.67 115.74 L 136.23 116.58 C 135.77 117.44 136.10 118.50 136.96 118.96 C 137.82 119.41 138.88 119.09 139.33 118.23 L 139.78 117.39 C 140.23 116.53 139.91 115.47 139.05 115.01 C 138.19 114.56 137.13 114.88 136.67 115.74 Z M 136.23 116.60 L 135.79 117.45 C 135.34 118.31 135.68 119.36 136.53 119.81 C 137.39 120.25 138.45 119.92 138.89 119.06 L 139.33 118.21 C 139.78 117.35 139.44 116.30 138.59 115.85 C 137.73 115.41 136.67 115.74 136.23 116.60 Z M 135.79 117.46 L 135.35 118.33 C 134.91 119.19 135.25 120.23 136.11 120.67 C 136.96 121.11 138.01 120.77 138.45 119.91 L 138.89 119.05 C 139.33 118.19 138.99 117.14 138.13 116.71 C 137.28 116.27 136.23 116.61 135.79 117.46 Z M 135.35 118.34 L 134.90 119.24 C 134.47 120.09 134.81 121.13 135.67 121.56 C 136.52 121.99 137.56 121.65 137.99 120.80 L 138.44 119.90 C 138.87 119.05 138.53 118.01 137.68 117.58 C 136.82 117.15 135.78 117.49 135.35 118.34 Z M 134.91 119.24 L 134.45 120.16 C 134.02 121.01 134.36 122.04 135.21 122.47 C 136.07 122.90 137.10 122.55 137.53 121.70 L 137.98 120.79 C 138.41 119.94 138.07 118.90 137.22 118.48 C 136.37 118.05 135.33 118.39 134.91 119.24 Z M 134.45 120.16 L 134.00 121.08 C 133.57 121.93 133.92 122.96 134.76 123.38 C 135.61 123.80 136.64 123.46 137.06 122.61 L 137.52 121.70 C 137.94 120.85 137.60 119.82 136.75 119.40 C 135.91 118.97 134.88 119.32 134.45 120.16 Z M 134.00 121.09 L 133.56 121.98 C 133.14 122.82 133.48 123.84 134.32 124.26 C 135.16 124.69 136.19 124.34 136.61 123.50 L 137.05 122.61 C 137.48 121.77 137.13 120.74 136.29 120.32 C 135.45 119.90 134.42 120.24 134.00 121.09 Z M 133.56 121.98 L 133.12 122.87 C 132.70 123.71 133.04 124.73 133.88 125.15 C 134.72 125.57 135.74 125.23 136.16 124.39 L 136.60 123.50 C 137.02 122.66 136.68 121.64 135.84 121.22 C 135.00 120.80 133.98 121.14 133.56 121.98 Z M 133.12 122.88 L 132.68 123.77 C 132.26 124.61 132.60 125.63 133.44 126.04 C 134.28 126.46 135.29 126.12 135.71 125.28 L 136.15 124.38 C 136.57 123.55 136.23 122.53 135.39 122.12 C 134.55 121.70 133.54 122.04 133.12 122.88 Z M 132.68 123.78 L 132.24 124.68 C 131.82 125.51 132.17 126.53 133.00 126.94 C 133.84 127.35 134.85 127.01 135.26 126.17 L 135.70 125.27 C 136.12 124.44 135.77 123.43 134.94 123.02 C 134.11 122.60 133.09 122.95 132.68 123.78 Z M 132.24 124.69 L 131.80 125.58 C 131.39 126.41 131.74 127.42 132.57 127.83 C 133.40 128.24 134.41 127.89 134.82 127.06 L 135.25 126.17 C 135.66 125.34 135.32 124.33 134.49 123.92 C 133.66 123.51 132.65 123.86 132.24 124.69 Z M 131.81 125.59 L 131.37 126.48 C 130.96 127.31 131.31 128.31 132.14 128.72 C 132.97 129.12 133.97 128.78 134.37 127.95 L 134.81 127.06 C 135.22 126.23 134.87 125.23 134.04 124.82 C 133.21 124.41 132.21 124.76 131.81 125.59 Z M 131.38 126.48 L 130.94 127.38 C 130.53 128.21 130.87 129.21 131.70 129.61 C 132.52 130.01 133.52 129.67 133.93 128.85 L 134.37 127.95 C 134.77 127.12 134.43 126.12 133.60 125.72 C 132.78 125.32 131.78 125.66 131.38 126.48 Z M 130.94 127.38 L 130.50 128.28 C 130.09 129.10 130.43 130.10 131.25 130.50 C 132.08 130.91 133.07 130.57 133.48 129.75 L 133.92 128.85 C 134.32 128.02 133.99 127.03 133.16 126.63 C 132.34 126.22 131.35 126.56 130.94 127.38 Z M 130.51 128.28 L 130.06 129.18 C 129.65 130.00 129.99 130.99 130.80 131.39 C 131.62 131.80 132.61 131.47 133.02 130.65 L 133.47 129.75 C 133.87 128.93 133.54 127.94 132.72 127.54 C 131.91 127.13 130.91 127.46 130.51 128.28 Z M 130.07 129.18 L 129.62 130.06 C 129.21 130.88 129.54 131.87 130.35 132.28 C 131.16 132.68 132.15 132.36 132.56 131.54 L 133.01 130.66 C 133.42 129.84 133.09 128.85 132.28 128.44 C 131.47 128.04 130.48 128.36 130.07 129.18 Z M 129.63 130.06 L 129.18 130.95 C 128.77 131.76 129.09 132.75 129.90 133.16 C 130.71 133.57 131.70 133.24 132.11 132.44 L 132.56 131.55 C 132.97 130.74 132.64 129.75 131.83 129.34 C 131.02 128.93 130.04 129.26 129.63 130.06 Z M 129.18 130.96 L 128.73 131.85 C 128.32 132.66 128.65 133.64 129.45 134.05 C 130.26 134.46 131.24 134.13 131.65 133.33 L 132.10 132.43 C 132.51 131.63 132.19 130.64 131.38 130.24 C 130.57 129.83 129.59 130.15 129.18 130.96 Z M 128.73 131.86 L 128.28 132.76 C 127.88 133.56 128.21 134.54 129.01 134.94 C 129.82 135.35 130.80 135.02 131.20 134.22 L 131.65 133.32 C 132.05 132.51 131.72 131.53 130.92 131.13 C 130.11 130.73 129.14 131.05 128.73 131.86 Z M 128.28 132.77 L 127.84 133.67 C 127.44 134.48 127.78 135.45 128.58 135.85 C 129.39 136.24 130.36 135.91 130.76 135.11 L 131.20 134.20 C 131.60 133.40 131.26 132.42 130.46 132.03 C 129.65 131.63 128.68 131.96 128.28 132.77 Z M 127.84 133.68 L 127.40 134.59 C 127.01 135.39 127.35 136.36 128.15 136.75 C 128.96 137.14 129.93 136.80 130.32 136.00 L 130.76 135.09 C 131.15 134.29 130.81 133.32 130.00 132.93 C 129.20 132.54 128.23 132.88 127.84 133.68 Z M 127.40 134.60 L 126.97 135.50 C 126.58 136.30 126.92 137.27 127.73 137.65 C 128.53 138.04 129.50 137.70 129.88 136.90 L 130.32 135.99 C 130.70 135.19 130.36 134.22 129.56 133.84 C 128.75 133.45 127.79 133.79 127.40 134.60 Z M 126.97 135.50 L 126.54 136.41 C 126.16 137.21 126.50 138.17 127.30 138.55 C 128.10 138.94 129.07 138.60 129.45 137.79 L 129.88 136.89 C 130.26 136.09 129.92 135.13 129.12 134.75 C 128.32 134.36 127.36 134.70 126.97 135.50 Z M 126.55 136.40 L 126.12 137.30 C 125.73 138.10 126.07 139.06 126.87 139.44 C 127.67 139.83 128.63 139.49 129.01 138.69 L 129.44 137.80 C 129.83 137.00 129.49 136.04 128.69 135.65 C 127.89 135.27 126.93 135.60 126.55 136.40 Z M 126.13 137.29 L 125.69 138.19 C 125.30 138.98 125.64 139.94 126.43 140.33 C 127.23 140.72 128.19 140.38 128.57 139.59 L 129.01 138.69 C 129.39 137.90 129.06 136.94 128.27 136.55 C 127.47 136.17 126.51 136.50 126.13 137.29 Z M 125.70 138.18 L 125.26 139.07 C 124.87 139.86 125.20 140.82 125.99 141.21 C 126.78 141.60 127.74 141.28 128.13 140.48 L 128.56 139.59 C 128.95 138.80 128.63 137.84 127.84 137.45 C 127.05 137.06 126.09 137.39 125.70 138.18 Z M 125.27 139.07 L 124.82 139.96 C 124.43 140.74 124.75 141.70 125.54 142.09 C 126.33 142.49 127.28 142.17 127.68 141.38 L 128.12 140.49 C 128.51 139.70 128.19 138.74 127.40 138.35 C 126.62 137.96 125.66 138.28 125.27 139.07 Z M 124.83 139.95 L 124.38 140.85 C 123.98 141.63 124.30 142.59 125.08 142.98 C 125.87 143.38 126.82 143.06 127.22 142.28 L 127.67 141.38 C 128.06 140.60 127.75 139.64 126.96 139.25 C 126.18 138.85 125.22 139.17 124.83 139.95 Z M 124.38 140.85 L 123.93 141.75 C 123.53 142.53 123.84 143.49 124.62 143.88 C 125.40 144.28 126.36 143.97 126.75 143.19 L 127.21 142.28 C 127.61 141.50 127.30 140.55 126.52 140.15 C 125.73 139.75 124.78 140.07 124.38 140.85 Z M 123.93 141.75 L 123.47 142.66 C 123.07 143.44 123.38 144.39 124.16 144.78 C 124.94 145.18 125.89 144.87 126.29 144.09 L 126.75 143.19 C 127.15 142.41 126.84 141.46 126.06 141.06 C 125.28 140.66 124.33 140.97 123.93 141.75 Z M 123.47 142.66 L 123.01 143.56 C 122.61 144.34 122.92 145.29 123.70 145.69 C 124.47 146.08 125.42 145.78 125.82 145.00 L 126.28 144.09 C 126.68 143.32 126.37 142.37 125.60 141.97 C 124.82 141.57 123.87 141.88 123.47 142.66 Z M 123.01 143.56 L 122.55 144.46 C 122.16 145.23 122.47 146.18 123.24 146.58 C 124.01 146.98 124.96 146.67 125.36 145.89 L 125.82 145.00 C 126.21 144.22 125.91 143.28 125.13 142.88 C 124.36 142.48 123.41 142.79 123.01 143.56 Z M 122.56 144.46 L 122.11 145.33 C 121.72 146.11 122.03 147.05 122.80 147.45 C 123.57 147.84 124.52 147.53 124.91 146.76 L 125.36 145.89 C 125.75 145.12 125.44 144.17 124.67 143.78 C 123.90 143.38 122.95 143.69 122.56 144.46 Z M 122.11 145.34 L 121.65 146.26 C 121.26 147.03 121.56 147.97 122.34 148.36 C 123.11 148.76 124.05 148.45 124.44 147.68 L 124.91 146.76 C 125.30 145.99 124.99 145.04 124.22 144.65 C 123.45 144.26 122.51 144.57 122.11 145.34 Z M 121.65 146.26 L 121.18 147.19 C 120.79 147.96 121.11 148.90 121.88 149.29 C 122.65 149.68 123.59 149.37 123.98 148.59 L 124.45 147.67 C 124.83 146.90 124.52 145.95 123.75 145.57 C 122.98 145.18 122.03 145.49 121.65 146.26 Z M 121.18 147.20 L 120.74 148.08 C 120.36 148.86 120.68 149.79 121.45 150.18 C 122.23 150.56 123.17 150.24 123.55 149.47 L 123.99 148.58 C 124.37 147.81 124.05 146.87 123.28 146.49 C 122.50 146.10 121.56 146.42 121.18 147.20 Z M 120.74 148.09 L 120.32 148.95 C 119.95 149.73 120.27 150.67 121.05 151.04 C 121.83 151.42 122.76 151.09 123.14 150.31 L 123.55 149.45 C 123.93 148.68 123.60 147.74 122.83 147.37 C 122.05 146.99 121.11 147.32 120.74 148.09 Z M 120.32 148.97 L 119.92 149.81 C 119.56 150.59 119.89 151.52 120.68 151.88 C 121.46 152.25 122.39 151.91 122.75 151.13 L 123.15 150.30 C 123.51 149.51 123.18 148.58 122.39 148.22 C 121.61 147.85 120.68 148.19 120.32 148.97 Z M 119.92 149.82 L 119.53 150.67 C 119.18 151.45 119.52 152.38 120.31 152.73 C 121.10 153.09 122.02 152.74 122.38 151.96 L 122.76 151.11 C 123.12 150.33 122.77 149.40 121.99 149.05 C 121.20 148.69 120.27 149.04 119.92 149.82 Z M 119.53 150.68 L 119.13 151.58 C 118.78 152.36 119.14 153.29 119.93 153.64 C 120.72 153.98 121.64 153.63 121.99 152.84 L 122.38 151.94 C 122.73 151.15 122.38 150.23 121.59 149.88 C 120.80 149.53 119.88 149.89 119.53 150.68 Z M 119.13 151.59 L 118.70 152.57 C 118.36 153.36 118.72 154.28 119.52 154.62 C 120.31 154.97 121.23 154.60 121.57 153.81 L 121.99 152.83 C 122.34 152.04 121.97 151.12 121.18 150.77 C 120.39 150.43 119.47 150.80 119.13 151.59 Z M 118.70 152.58 L 118.30 153.52 C 117.96 154.31 118.33 155.23 119.12 155.56 C 119.92 155.90 120.83 155.53 121.17 154.74 L 121.57 153.80 C 121.91 153.01 121.54 152.09 120.75 151.76 C 119.95 151.42 119.04 151.79 118.70 152.58 Z M 118.30 153.52 L 117.93 154.39 C 117.60 155.19 117.97 156.10 118.76 156.44 C 119.56 156.77 120.47 156.40 120.81 155.60 L 121.17 154.73 C 121.51 153.94 121.14 153.03 120.34 152.69 C 119.55 152.36 118.63 152.73 118.30 153.52 Z M 117.93 154.40 L 117.55 155.32 C 117.21 156.11 117.59 157.03 118.39 157.36 C 119.18 157.69 120.10 157.31 120.43 156.52 L 120.81 155.60 C 121.14 154.80 120.76 153.89 119.97 153.56 C 119.17 153.23 118.26 153.60 117.93 154.40 Z M 117.54 155.33 L 117.15 156.28 C 116.83 157.08 117.21 157.99 118.01 158.32 C 118.81 158.64 119.72 158.26 120.04 157.46 L 120.43 156.51 C 120.76 155.71 120.37 154.80 119.58 154.47 C 118.78 154.15 117.87 154.53 117.54 155.33 Z M 117.15 156.29 L 116.76 157.26 C 116.44 158.06 116.83 158.97 117.63 159.29 C 118.43 159.61 119.34 159.22 119.66 158.42 L 120.05 157.45 C 120.37 156.65 119.98 155.74 119.18 155.42 C 118.37 155.10 117.47 155.49 117.15 156.29 Z M 116.76 157.28 L 116.38 158.25 C 116.07 159.05 116.47 159.96 117.27 160.27 C 118.08 160.58 118.98 160.18 119.29 159.37 L 119.67 158.40 C 119.98 157.60 119.58 156.70 118.77 156.38 C 117.97 156.07 117.07 156.47 116.76 157.28 Z M 116.37 158.27 L 116.01 159.24 C 115.71 160.04 116.12 160.94 116.93 161.24 C 117.74 161.54 118.64 161.13 118.94 160.33 L 119.30 159.36 C 119.60 158.55 119.19 157.65 118.38 157.35 C 117.57 157.05 116.67 157.46 116.37 158.27 Z M 116.01 159.25 L 115.66 160.21 C 115.37 161.02 115.79 161.91 116.61 162.21 C 117.42 162.50 118.31 162.07 118.60 161.26 L 118.94 160.31 C 119.24 159.50 118.81 158.60 118.00 158.31 C 117.19 158.02 116.30 158.44 116.01 159.25 Z M 115.66 160.22 L 115.33 161.17 C 115.05 161.98 115.48 162.87 116.29 163.15 C 117.10 163.44 117.99 163.01 118.28 162.19 L 118.61 161.25 C 118.89 160.44 118.46 159.55 117.65 159.26 C 116.83 158.98 115.94 159.41 115.66 160.22 Z M 115.33 161.18 L 115.01 162.11 C 114.73 162.93 115.17 163.82 115.98 164.09 C 116.80 164.37 117.69 163.93 117.96 163.12 L 118.28 162.18 C 118.56 161.37 118.12 160.48 117.31 160.20 C 116.49 159.92 115.60 160.36 115.33 161.18 Z M 115.01 162.12 L 114.69 163.05 C 114.42 163.87 114.86 164.75 115.68 165.03 C 116.49 165.30 117.38 164.86 117.65 164.04 L 117.97 163.11 C 118.24 162.29 117.80 161.41 116.98 161.14 C 116.16 160.86 115.28 161.30 115.01 162.12 Z M 114.69 163.05 L 114.48 163.68 C 114.21 164.49 114.65 165.38 115.47 165.65 C 116.29 165.92 117.17 165.48 117.45 164.66 L 117.65 164.04 C 117.93 163.22 117.48 162.34 116.67 162.07 C 115.85 161.79 114.97 162.23 114.69 163.05 Z"
      fill="black"
      fill-rule="nonzero" /><path d="M 138.43 136.42 L 137.84 137.20 C 137.31 137.90 137.45 138.90 138.16 139.43 C 138.86 139.96 139.86 139.82 140.39 139.11 L 140.98 138.33 C 141.51 137.63 141.36 136.63 140.66 136.10 C 139.96 135.57 138.96 135.71 138.43 136.42 Z M 137.75 137.21 L 137.19 138.02 C 136.67 138.78 136.86 139.81 137.61 140.33 C 138.36 140.85 139.40 140.67 139.92 139.91 L 140.48 139.10 C 141.00 138.35 140.81 137.31 140.06 136.79 C 139.31 136.27 138.27 136.46 137.75 137.21 Z M 137.07 138.10 L 136.56 138.96 C 136.07 139.79 136.35 140.84 137.17 141.32 C 137.99 141.81 139.05 141.53 139.53 140.71 L 140.04 139.84 C 140.52 139.02 140.25 137.96 139.43 137.48 C 138.60 137.00 137.55 137.27 137.07 138.10 Z M 136.43 139.10 L 136.01 140.02 C 135.60 140.91 136.00 141.97 136.89 142.37 C 137.78 142.78 138.83 142.38 139.24 141.49 L 139.66 140.57 C 140.07 139.68 139.67 138.63 138.78 138.22 C 137.89 137.81 136.83 138.21 136.43 139.10 Z M 135.93 140.17 L 135.60 141.11 C 135.28 142.05 135.78 143.07 136.72 143.40 C 137.66 143.72 138.68 143.22 139.00 142.28 L 139.32 141.34 C 139.65 140.40 139.14 139.38 138.21 139.06 C 137.27 138.73 136.25 139.24 135.93 140.17 Z M 135.57 141.24 L 135.31 142.22 C 135.05 143.17 135.62 144.16 136.58 144.41 C 137.54 144.67 138.52 144.10 138.78 143.14 L 139.04 142.16 C 139.29 141.20 138.72 140.21 137.76 139.96 C 136.80 139.70 135.82 140.28 135.57 141.24 Z M 135.28 142.30 L 135.07 143.29 C 134.87 144.26 135.49 145.22 136.46 145.42 C 137.43 145.63 138.39 145.01 138.59 144.04 L 138.80 143.05 C 139.01 142.08 138.39 141.12 137.42 140.92 C 136.44 140.71 135.49 141.33 135.28 142.30 Z M 135.06 143.35 L 134.89 144.34 C 134.72 145.32 135.37 146.25 136.35 146.42 C 137.33 146.59 138.26 145.94 138.43 144.96 L 138.60 143.98 C 138.78 143.00 138.12 142.06 137.14 141.89 C 136.17 141.72 135.23 142.37 135.06 143.35 Z M 134.88 144.39 L 134.74 145.37 C 134.59 146.35 135.27 147.27 136.26 147.41 C 137.24 147.55 138.16 146.87 138.30 145.89 L 138.44 144.91 C 138.58 143.92 137.90 143.01 136.92 142.87 C 135.94 142.73 135.02 143.41 134.88 144.39 Z M 134.73 145.42 L 134.62 146.40 C 134.50 147.39 135.21 148.28 136.20 148.39 C 137.19 148.51 138.08 147.80 138.19 146.81 L 138.31 145.83 C 138.42 144.85 137.71 143.95 136.72 143.84 C 135.73 143.73 134.84 144.44 134.73 145.42 Z M 134.61 146.45 L 134.52 147.46 C 134.44 148.45 135.17 149.32 136.16 149.41 C 137.15 149.49 138.03 148.76 138.11 147.77 L 138.20 146.76 C 138.29 145.77 137.55 144.90 136.56 144.81 C 135.57 144.73 134.70 145.46 134.61 146.45 Z M 134.52 147.50 L 134.46 148.38 C 134.40 149.38 135.15 150.23 136.15 150.30 C 137.14 150.36 137.99 149.61 138.06 148.61 L 138.12 147.73 C 138.18 146.73 137.43 145.88 136.43 145.81 C 135.44 145.75 134.59 146.50 134.52 147.50 Z M 134.46 148.41 L 134.42 149.30 C 134.38 150.29 135.14 151.14 136.13 151.18 C 137.13 151.23 137.97 150.46 138.02 149.47 L 138.06 148.58 C 138.11 147.59 137.34 146.75 136.35 146.70 C 135.35 146.65 134.51 147.42 134.46 148.41 Z M 134.42 149.33 L 134.39 150.29 C 134.36 151.28 135.13 152.12 136.13 152.15 C 137.12 152.18 137.95 151.40 137.98 150.41 L 138.02 149.45 C 138.05 148.45 137.27 147.62 136.28 147.59 C 135.29 147.56 134.46 148.33 134.42 149.33 Z M 134.39 150.31 L 134.37 151.38 C 134.35 152.37 135.13 153.19 136.12 153.21 C 137.11 153.24 137.94 152.45 137.96 151.46 L 137.98 150.39 C 138.00 149.40 137.22 148.58 136.23 148.56 C 135.24 148.54 134.41 149.32 134.39 150.31 Z M 134.37 151.39 L 134.35 152.58 C 134.34 153.57 135.13 154.39 136.12 154.40 C 137.11 154.42 137.92 153.63 137.94 152.64 L 137.96 151.45 C 137.97 150.46 137.18 149.64 136.19 149.63 C 135.20 149.61 134.38 150.40 134.37 151.39 Z M 134.36 152.59 L 134.35 153.54 C 134.34 154.53 135.13 155.33 136.12 155.34 C 137.11 155.35 137.92 154.56 137.93 153.57 L 137.94 152.63 C 137.94 151.64 137.15 150.83 136.16 150.82 C 135.17 150.81 134.37 151.60 134.36 152.59 Z M 134.35 153.54 L 134.35 154.53 C 134.34 155.52 135.13 156.32 136.12 156.32 C 137.10 156.33 137.91 155.54 137.91 154.55 L 137.92 153.56 C 137.93 152.58 137.13 151.78 136.15 151.77 C 135.16 151.76 134.36 152.56 134.35 153.54 Z M 134.35 154.53 L 134.35 155.56 C 134.35 156.54 135.14 157.34 136.12 157.34 C 137.10 157.34 137.90 156.55 137.90 155.57 L 137.91 154.55 C 137.91 153.57 137.12 152.77 136.14 152.76 C 135.16 152.76 134.36 153.55 134.35 154.53 Z M 134.36 155.56 L 134.35 156.60 C 134.35 157.57 135.14 158.37 136.12 158.37 C 137.10 158.37 137.89 157.58 137.90 156.60 L 137.90 155.57 C 137.90 154.59 137.11 153.79 136.13 153.79 C 135.15 153.79 134.36 154.58 134.36 155.56 Z M 134.36 156.60 L 134.36 157.63 C 134.36 158.61 135.15 159.40 136.12 159.40 C 137.10 159.40 137.89 158.61 137.89 157.63 L 137.89 156.60 C 137.89 155.63 137.10 154.84 136.13 154.83 C 135.15 154.83 134.36 155.62 134.36 156.60 Z M 134.36 157.63 L 134.36 158.64 C 134.36 159.61 135.15 160.40 136.12 160.40 C 137.09 160.40 137.88 159.61 137.88 158.64 L 137.88 157.63 C 137.88 156.66 137.10 155.87 136.12 155.87 C 135.15 155.87 134.36 156.66 134.36 157.63 Z M 134.37 158.64 L 134.37 159.66 C 134.37 160.62 135.16 161.41 136.12 161.41 C 137.09 161.41 137.88 160.62 137.88 159.66 L 137.88 158.64 C 137.88 157.67 137.09 156.89 136.12 156.89 C 135.16 156.89 134.37 157.67 134.37 158.64 Z M 134.38 159.66 L 134.38 160.75 C 134.39 161.71 135.17 162.49 136.13 162.49 C 137.09 162.49 137.87 161.70 137.86 160.74 L 137.86 159.65 C 137.86 158.69 137.08 157.91 136.12 157.91 C 135.16 157.92 134.38 158.70 134.38 159.66 Z M 134.40 160.76 L 134.41 161.78 C 134.41 162.73 135.19 163.50 136.14 163.50 C 137.09 163.49 137.86 162.71 137.85 161.76 L 137.85 160.74 C 137.84 159.78 137.07 159.02 136.11 159.02 C 135.16 159.03 134.39 159.80 134.40 160.76 Z M 134.42 161.80 L 134.44 162.78 C 134.45 163.72 135.23 164.47 136.17 164.46 C 137.12 164.44 137.87 163.67 137.85 162.72 L 137.84 161.75 C 137.82 160.80 137.05 160.05 136.10 160.06 C 135.16 160.08 134.41 160.85 134.42 161.80 Z M 134.45 162.80 L 134.48 163.75 C 134.51 164.68 135.29 165.42 136.22 165.39 C 137.16 165.36 137.89 164.58 137.87 163.65 L 137.84 162.70 C 137.81 161.77 137.03 161.03 136.10 161.06 C 135.16 161.09 134.43 161.87 134.45 162.80 Z M 134.50 163.78 L 134.54 164.71 C 134.59 165.64 135.37 166.35 136.30 166.31 C 137.22 166.26 137.94 165.48 137.89 164.55 L 137.85 163.62 C 137.80 162.69 137.02 161.98 136.09 162.02 C 135.17 162.07 134.45 162.85 134.50 163.78 Z M 134.56 164.75 L 134.63 165.72 C 134.69 166.63 135.49 167.32 136.40 167.26 C 137.32 167.19 138.01 166.40 137.94 165.48 L 137.88 164.52 C 137.81 163.60 137.02 162.91 136.10 162.97 C 135.19 163.04 134.50 163.83 134.56 164.75 Z M 134.64 165.75 L 134.73 166.74 C 134.82 167.65 135.62 168.31 136.53 168.23 C 137.44 168.14 138.11 167.34 138.02 166.43 L 137.93 165.45 C 137.85 164.54 137.04 163.87 136.13 163.95 C 135.22 164.04 134.56 164.84 134.64 165.75 Z M 134.75 166.77 L 134.86 167.77 C 134.97 168.67 135.78 169.31 136.68 169.21 C 137.58 169.10 138.23 168.29 138.12 167.39 L 138.01 166.40 C 137.90 165.49 137.09 164.85 136.19 164.95 C 135.29 165.06 134.64 165.87 134.75 166.77 Z M 134.88 167.80 L 135.02 168.80 C 135.14 169.69 135.96 170.31 136.86 170.19 C 137.75 170.06 138.37 169.24 138.25 168.35 L 138.11 167.35 C 137.98 166.46 137.16 165.84 136.27 165.96 C 135.38 166.08 134.75 166.91 134.88 167.80 Z M 135.03 168.83 L 135.19 169.83 C 135.34 170.71 136.17 171.31 137.05 171.17 C 137.94 171.03 138.54 170.19 138.39 169.31 L 138.23 168.31 C 138.09 167.43 137.25 166.83 136.37 166.97 C 135.49 167.12 134.89 167.95 135.03 168.83 Z M 135.21 169.87 L 135.40 170.89 C 135.56 171.77 136.41 172.34 137.28 172.18 C 138.15 172.02 138.73 171.18 138.57 170.30 L 138.38 169.28 C 138.21 168.40 137.37 167.82 136.50 167.99 C 135.62 168.15 135.05 168.99 135.21 169.87 Z M 135.42 170.93 L 135.64 171.98 C 135.83 172.85 136.68 173.40 137.55 173.21 C 138.41 173.03 138.96 172.18 138.78 171.31 L 138.55 170.26 C 138.37 169.40 137.51 168.85 136.65 169.03 C 135.78 169.22 135.23 170.07 135.42 170.93 Z M 135.66 172.04 L 135.92 173.05 C 136.14 173.91 137.00 174.42 137.86 174.21 C 138.71 173.99 139.23 173.13 139.01 172.27 L 138.76 171.26 C 138.54 170.40 137.67 169.89 136.82 170.10 C 135.97 170.32 135.45 171.19 135.66 172.04 Z M 135.95 173.13 L 136.24 174.08 C 136.50 174.92 137.38 175.39 138.22 175.13 C 139.06 174.88 139.53 173.99 139.28 173.15 L 138.98 172.20 C 138.73 171.36 137.84 170.89 137.00 171.15 C 136.17 171.40 135.69 172.29 135.95 173.13 Z M 136.28 174.18 L 136.61 175.04 C 136.92 175.86 137.83 176.27 138.65 175.96 C 139.46 175.65 139.87 174.73 139.56 173.92 L 139.23 173.05 C 138.92 172.24 138.01 171.83 137.20 172.14 C 136.38 172.45 135.97 173.36 136.28 174.18 Z M 136.68 175.19 L 137.13 176.07 C 137.52 176.84 138.46 177.15 139.24 176.76 C 140.01 176.37 140.33 175.43 139.93 174.65 L 139.49 173.77 C 139.10 173.00 138.15 172.69 137.38 173.08 C 136.60 173.47 136.29 174.41 136.68 175.19 Z M 137.25 176.26 L 137.85 177.12 C 138.35 177.83 139.33 178.00 140.04 177.50 C 140.74 177.00 140.91 176.02 140.42 175.31 L 139.81 174.46 C 139.31 173.75 138.34 173.58 137.63 174.08 C 136.92 174.58 136.75 175.56 137.25 176.26 Z M 137.99 177.28 L 138.64 177.99 C 139.23 178.62 140.22 178.65 140.86 178.06 C 141.49 177.47 141.52 176.48 140.93 175.85 L 140.28 175.15 C 139.69 174.52 138.70 174.48 138.07 175.07 C 137.43 175.66 137.40 176.65 137.99 177.28 Z M 138.73 178.07 L 139.41 178.69 C 140.05 179.28 141.04 179.23 141.62 178.60 C 142.20 177.96 142.16 176.97 141.52 176.39 L 140.84 175.77 C 140.21 175.18 139.22 175.23 138.64 175.86 C 138.05 176.50 138.10 177.49 138.73 178.07 Z"
      fill="black"
      fill-rule="nonzero" /><path d="M 142.37 137.58 L 142.10 136.54 C 141.85 135.58 140.87 135.01 139.91 135.26 C 138.95 135.51 138.37 136.49 138.62 137.45 L 138.89 138.49 C 139.14 139.45 140.12 140.02 141.08 139.77 C 142.04 139.52 142.62 138.54 142.37 137.58 Z M 142.14 136.71 L 141.98 135.70 C 141.82 134.72 140.89 134.05 139.91 134.21 C 138.93 134.37 138.26 135.30 138.42 136.28 L 138.58 137.29 C 138.74 138.27 139.67 138.93 140.65 138.77 C 141.63 138.61 142.30 137.69 142.14 136.71 Z M 142.00 136.09 L 142.05 135.15 C 142.11 134.15 141.34 133.30 140.34 133.25 C 139.34 133.19 138.49 133.96 138.44 134.96 L 138.39 135.89 C 138.34 136.89 139.10 137.74 140.10 137.80 C 141.10 137.85 141.95 137.08 142.00 136.09 Z M 141.92 135.76 L 142.25 134.98 C 142.64 134.06 142.21 132.99 141.29 132.60 C 140.37 132.21 139.31 132.64 138.91 133.56 L 138.58 134.34 C 138.19 135.26 138.61 136.33 139.54 136.72 C 140.46 137.11 141.52 136.69 141.92 135.76 Z M 141.92 135.50 L 142.46 134.91 C 143.14 134.17 143.09 133.02 142.35 132.34 C 141.61 131.66 140.46 131.71 139.79 132.45 L 139.24 133.04 C 138.56 133.78 138.61 134.93 139.35 135.61 C 140.09 136.29 141.24 136.24 141.92 135.50 Z M 142.18 135.16 L 142.93 134.62 C 143.75 134.04 143.94 132.90 143.36 132.09 C 142.77 131.27 141.64 131.08 140.82 131.66 L 140.07 132.20 C 139.25 132.78 139.06 133.92 139.64 134.73 C 140.23 135.55 141.36 135.74 142.18 135.16 Z M 142.74 134.74 L 143.68 134.23 C 144.56 133.75 144.89 132.65 144.41 131.77 C 143.93 130.89 142.83 130.56 141.95 131.04 L 141.01 131.54 C 140.13 132.02 139.80 133.12 140.28 134.01 C 140.76 134.89 141.86 135.22 142.74 134.74 Z M 143.57 134.28 L 144.66 133.79 C 145.57 133.37 145.97 132.29 145.55 131.38 C 145.13 130.47 144.06 130.07 143.14 130.48 L 142.06 130.98 C 141.15 131.40 140.75 132.48 141.16 133.39 C 141.58 134.30 142.66 134.70 143.57 134.28 Z M 144.61 133.81 L 145.58 133.40 C 146.50 133.01 146.93 131.94 146.54 131.02 C 146.15 130.09 145.08 129.66 144.16 130.05 L 143.19 130.46 C 142.27 130.85 141.84 131.92 142.23 132.84 C 142.62 133.77 143.69 134.20 144.61 133.81 Z M 145.55 133.41 L 146.48 133.03 C 147.41 132.65 147.86 131.59 147.48 130.66 C 147.11 129.73 146.05 129.29 145.12 129.66 L 144.18 130.04 C 143.26 130.42 142.81 131.48 143.19 132.41 C 143.56 133.34 144.62 133.78 145.55 133.41 Z M 146.46 133.04 L 147.42 132.66 C 148.35 132.30 148.82 131.25 148.45 130.31 C 148.09 129.38 147.03 128.92 146.10 129.28 L 145.14 129.66 C 144.21 130.02 143.74 131.07 144.11 132.01 C 144.47 132.94 145.53 133.40 146.46 133.04 Z M 147.40 132.67 L 148.36 132.31 C 149.30 131.96 149.78 130.91 149.43 129.97 C 149.07 129.03 148.03 128.56 147.09 128.91 L 146.12 129.27 C 145.18 129.62 144.71 130.67 145.06 131.61 C 145.41 132.55 146.46 133.02 147.40 132.67 Z M 148.34 132.32 L 149.29 131.98 C 150.24 131.64 150.73 130.60 150.39 129.66 C 150.05 128.71 149.01 128.22 148.07 128.56 L 147.11 128.90 C 146.17 129.24 145.68 130.28 146.02 131.22 C 146.36 132.17 147.39 132.66 148.34 132.32 Z M 149.26 131.99 L 150.19 131.67 C 151.14 131.35 151.64 130.32 151.32 129.37 C 151.00 128.42 149.97 127.91 149.02 128.24 L 148.10 128.55 C 147.15 128.87 146.64 129.90 146.96 130.85 C 147.28 131.80 148.32 132.31 149.26 131.99 Z M 150.15 131.69 L 151.16 131.37 C 152.11 131.07 152.64 130.05 152.34 129.09 C 152.04 128.14 151.02 127.61 150.06 127.91 L 149.06 128.22 C 148.10 128.53 147.57 129.54 147.87 130.50 C 148.17 131.46 149.19 131.99 150.15 131.69 Z M 151.10 131.39 L 152.16 131.09 C 153.12 130.82 153.69 129.81 153.41 128.85 C 153.14 127.88 152.14 127.32 151.17 127.59 L 150.12 127.89 C 149.15 128.16 148.59 129.16 148.86 130.13 C 149.13 131.10 150.14 131.66 151.10 131.39 Z M 152.09 131.11 L 153.07 130.87 C 154.05 130.64 154.65 129.66 154.41 128.68 C 154.18 127.70 153.20 127.10 152.22 127.34 L 151.24 127.57 C 150.26 127.81 149.66 128.79 149.90 129.77 C 150.13 130.74 151.11 131.34 152.09 131.11 Z M 152.99 130.89 L 153.91 130.71 C 154.90 130.52 155.55 129.56 155.35 128.58 C 155.16 127.59 154.21 126.94 153.22 127.14 L 152.30 127.32 C 151.31 127.51 150.66 128.47 150.86 129.45 C 151.05 130.44 152.01 131.09 152.99 130.89 Z M 153.83 130.73 L 154.72 130.60 C 155.71 130.45 156.40 129.53 156.26 128.53 C 156.11 127.53 155.18 126.84 154.19 126.99 L 153.30 127.12 C 152.30 127.27 151.62 128.19 151.76 129.19 C 151.91 130.19 152.84 130.88 153.83 130.73 Z M 154.62 130.61 L 155.65 130.52 C 156.65 130.42 157.39 129.53 157.29 128.53 C 157.20 127.52 156.31 126.79 155.30 126.88 L 154.28 126.98 C 153.28 127.07 152.54 127.96 152.63 128.97 C 152.73 129.97 153.62 130.71 154.62 130.61 Z M 155.52 130.52 L 156.55 130.50 C 157.56 130.48 158.36 129.64 158.33 128.63 C 158.31 127.62 157.47 126.82 156.46 126.85 L 155.43 126.87 C 154.42 126.90 153.62 127.73 153.65 128.74 C 153.67 129.75 154.51 130.55 155.52 130.52 Z M 156.37 130.50 L 157.35 130.57 C 158.36 130.64 159.24 129.89 159.31 128.88 C 159.39 127.88 158.63 127.00 157.62 126.92 L 156.64 126.85 C 155.64 126.78 154.76 127.53 154.68 128.54 C 154.61 129.55 155.37 130.42 156.37 130.50 Z M 157.12 130.54 L 158.03 130.73 C 159.02 130.93 159.99 130.29 160.19 129.30 C 160.39 128.32 159.76 127.35 158.77 127.15 L 157.86 126.96 C 156.87 126.75 155.90 127.39 155.70 128.38 C 155.49 129.37 156.13 130.33 157.12 130.54 Z M 157.73 130.64 L 158.64 130.99 C 159.58 131.36 160.64 130.90 161.01 129.96 C 161.38 129.02 160.91 127.96 159.98 127.59 L 159.07 127.23 C 158.13 126.87 157.07 127.33 156.70 128.27 C 156.33 129.20 156.79 130.27 157.73 130.64 Z M 158.35 130.85 L 159.18 131.36 C 160.04 131.88 161.17 131.61 161.69 130.75 C 162.22 129.89 161.95 128.77 161.09 128.24 L 160.26 127.73 C 159.40 127.21 158.27 127.48 157.75 128.34 C 157.22 129.20 157.49 130.32 158.35 130.85 Z M 158.98 131.21 L 159.76 131.85 C 160.54 132.49 161.69 132.38 162.33 131.60 C 162.97 130.82 162.85 129.67 162.08 129.03 L 161.29 128.39 C 160.52 127.75 159.37 127.86 158.73 128.64 C 158.09 129.42 158.20 130.57 158.98 131.21 Z M 159.64 131.74 L 160.34 132.43 C 161.05 133.14 162.21 133.13 162.91 132.42 C 163.62 131.70 163.61 130.55 162.90 129.84 L 162.20 129.15 C 161.48 128.44 160.33 128.45 159.62 129.16 C 158.92 129.88 158.92 131.03 159.64 131.74 Z M 160.26 132.34 L 160.88 133.04 C 161.55 133.79 162.70 133.86 163.45 133.19 C 164.20 132.52 164.27 131.37 163.60 130.62 L 162.97 129.92 C 162.31 129.17 161.16 129.11 160.41 129.78 C 159.66 130.45 159.59 131.59 160.26 132.34 Z M 160.82 132.96 L 161.44 133.74 C 162.06 134.52 163.20 134.65 163.99 134.03 C 164.77 133.41 164.90 132.27 164.28 131.48 L 163.66 130.71 C 163.04 129.92 161.90 129.79 161.11 130.41 C 160.33 131.04 160.20 132.18 160.82 132.96 Z M 161.38 133.65 L 161.98 134.51 C 162.56 135.32 163.69 135.52 164.50 134.94 C 165.32 134.37 165.52 133.24 164.94 132.42 L 164.34 131.57 C 163.76 130.75 162.63 130.56 161.81 131.13 C 161.00 131.71 160.80 132.84 161.38 133.65 Z M 161.93 134.42 L 162.50 135.33 C 163.03 136.18 164.15 136.43 164.99 135.90 C 165.83 135.38 166.09 134.26 165.56 133.42 L 164.99 132.51 C 164.46 131.66 163.35 131.41 162.50 131.94 C 161.66 132.46 161.40 133.58 161.93 134.42 Z M 162.46 135.26 L 162.96 136.15 C 163.45 137.02 164.55 137.33 165.42 136.84 C 166.28 136.35 166.59 135.25 166.10 134.39 L 165.60 133.49 C 165.11 132.62 164.01 132.32 163.15 132.81 C 162.28 133.29 161.97 134.39 162.46 135.26 Z M 162.94 136.09 L 163.41 137.01 C 163.87 137.90 164.95 138.24 165.84 137.79 C 166.72 137.33 167.06 136.24 166.61 135.36 L 166.13 134.44 C 165.67 133.56 164.59 133.22 163.71 133.67 C 162.83 134.13 162.48 135.21 162.94 136.09 Z M 163.39 136.97 L 163.84 137.88 C 164.27 138.78 165.34 139.15 166.23 138.72 C 167.12 138.29 167.50 137.22 167.07 136.32 L 166.63 135.41 C 166.20 134.52 165.12 134.14 164.23 134.57 C 163.34 135.00 162.96 136.08 163.39 136.97 Z M 163.82 137.84 L 164.22 138.72 C 164.63 139.62 165.69 140.02 166.59 139.61 C 167.49 139.20 167.89 138.14 167.48 137.24 L 167.08 136.36 C 166.67 135.46 165.61 135.07 164.71 135.47 C 163.81 135.88 163.41 136.94 163.82 137.84 Z M 164.21 138.69 L 164.62 139.63 C 165.01 140.54 166.06 140.96 166.96 140.57 C 167.87 140.18 168.29 139.13 167.90 138.23 L 167.49 137.28 C 167.10 136.37 166.05 135.95 165.15 136.34 C 164.24 136.73 163.82 137.78 164.21 138.69 Z M 164.61 139.60 L 165.00 140.57 C 165.36 141.48 166.40 141.92 167.31 141.55 C 168.23 141.18 168.67 140.15 168.30 139.23 L 167.91 138.26 C 167.54 137.35 166.50 136.91 165.59 137.28 C 164.68 137.65 164.24 138.68 164.61 139.60 Z M 164.99 140.53 L 165.33 141.43 C 165.68 142.34 166.70 142.80 167.62 142.45 C 168.54 142.10 169.00 141.08 168.65 140.16 L 168.31 139.27 C 167.96 138.35 166.93 137.89 166.02 138.24 C 165.10 138.59 164.64 139.62 164.99 140.53 Z M 165.33 141.41 L 165.65 142.27 C 165.99 143.19 167.01 143.66 167.92 143.32 C 168.84 142.98 169.31 141.96 168.97 141.04 L 168.65 140.18 C 168.31 139.26 167.29 138.80 166.37 139.13 C 165.46 139.47 164.99 140.49 165.33 141.41 Z M 165.66 142.27 L 165.99 143.17 C 166.33 144.09 167.35 144.55 168.26 144.21 C 169.17 143.87 169.64 142.86 169.30 141.95 L 168.96 141.04 C 168.62 140.13 167.61 139.67 166.70 140.01 C 165.78 140.34 165.32 141.36 165.66 142.27 Z M 166.00 143.18 L 166.35 144.11 C 166.69 145.02 167.70 145.48 168.61 145.13 C 169.52 144.79 169.98 143.78 169.64 142.87 L 169.29 141.94 C 168.95 141.03 167.93 140.57 167.02 140.91 C 166.11 141.26 165.66 142.27 166.00 143.18 Z M 166.36 144.12 L 166.72 145.07 C 167.07 145.98 168.09 146.43 168.99 146.08 C 169.89 145.74 170.35 144.72 170.00 143.82 L 169.63 142.86 C 169.28 141.95 168.27 141.50 167.36 141.85 C 166.46 142.20 166.01 143.21 166.36 144.12 Z M 166.73 145.08 L 167.10 146.02 C 167.45 146.92 168.47 147.37 169.37 147.01 C 170.27 146.66 170.71 145.64 170.36 144.74 L 169.99 143.80 C 169.64 142.90 168.62 142.46 167.72 142.81 C 166.82 143.17 166.38 144.18 166.73 145.08 Z M 167.11 146.03 L 167.47 146.95 C 167.83 147.85 168.84 148.29 169.74 147.93 C 170.64 147.58 171.08 146.56 170.72 145.66 L 170.35 144.74 C 170.00 143.84 168.98 143.40 168.08 143.76 C 167.19 144.12 166.75 145.13 167.11 146.03 Z M 167.48 146.95 L 167.85 147.89 C 168.20 148.78 169.21 149.22 170.11 148.87 C 171.00 148.51 171.44 147.50 171.09 146.61 L 170.72 145.67 C 170.36 144.77 169.35 144.34 168.46 144.69 C 167.56 145.04 167.12 146.05 167.48 146.95 Z M 167.85 147.87 L 168.21 148.81 C 168.56 149.71 169.56 150.15 170.46 149.81 C 171.35 149.46 171.80 148.46 171.45 147.56 L 171.09 146.62 C 170.74 145.73 169.74 145.28 168.84 145.63 C 167.95 145.97 167.50 146.98 167.85 147.87 Z M 168.21 148.79 L 168.55 149.73 C 168.89 150.63 169.89 151.08 170.78 150.75 C 171.68 150.41 172.14 149.42 171.80 148.52 L 171.46 147.58 C 171.12 146.69 170.12 146.23 169.23 146.56 C 168.33 146.90 167.87 147.89 168.21 148.79 Z M 168.55 149.70 L 168.88 150.64 C 169.20 151.54 170.19 152.01 171.09 151.69 C 171.99 151.37 172.46 150.38 172.14 149.48 L 171.81 148.54 C 171.49 147.64 170.50 147.17 169.60 147.49 C 168.70 147.81 168.23 148.80 168.55 149.70 Z M 168.88 150.62 L 169.20 151.56 C 169.51 152.46 170.49 152.94 171.40 152.63 C 172.30 152.33 172.78 151.34 172.47 150.44 L 172.15 149.50 C 171.84 148.59 170.85 148.11 169.95 148.42 C 169.05 148.73 168.57 149.72 168.88 150.62 Z M 169.20 151.54 L 169.52 152.50 C 169.82 153.41 170.79 153.90 171.70 153.60 C 172.60 153.30 173.09 152.32 172.79 151.42 L 172.47 150.46 C 172.17 149.56 171.20 149.07 170.29 149.37 C 169.39 149.66 168.90 150.64 169.20 151.54 Z M 169.52 152.49 L 169.81 153.41 C 170.11 154.32 171.08 154.81 171.98 154.52 C 172.88 154.23 173.38 153.26 173.09 152.36 L 172.79 151.43 C 172.50 150.53 171.53 150.03 170.63 150.32 C 169.72 150.61 169.23 151.58 169.52 152.49 Z M 169.81 153.40 L 170.11 154.35 C 170.40 155.25 171.36 155.75 172.27 155.47 C 173.17 155.18 173.67 154.22 173.39 153.31 L 173.09 152.37 C 172.81 151.46 171.84 150.96 170.94 151.25 C 170.03 151.53 169.53 152.49 169.81 153.40 Z M 170.11 154.33 L 170.41 155.30 C 170.69 156.21 171.65 156.71 172.55 156.44 C 173.46 156.16 173.96 155.20 173.69 154.29 L 173.39 153.33 C 173.11 152.42 172.15 151.91 171.25 152.19 C 170.34 152.47 169.83 153.43 170.11 154.33 Z M 170.41 155.29 L 170.71 156.27 C 170.98 157.18 171.94 157.69 172.84 157.42 C 173.74 157.14 174.25 156.19 173.98 155.28 L 173.68 154.30 C 173.41 153.40 172.46 152.89 171.55 153.16 C 170.65 153.43 170.14 154.39 170.41 155.29 Z M 170.71 156.27 L 170.99 157.21 C 171.26 158.11 172.21 158.63 173.11 158.36 C 174.01 158.09 174.53 157.14 174.26 156.23 L 173.98 155.29 C 173.71 154.39 172.76 153.87 171.86 154.14 C 170.95 154.41 170.44 155.36 170.71 156.27 Z M 170.99 157.20 L 171.27 158.16 C 171.53 159.06 172.48 159.58 173.38 159.31 C 174.29 159.05 174.80 158.10 174.54 157.20 L 174.26 156.24 C 173.99 155.34 173.05 154.82 172.14 155.09 C 171.24 155.35 170.72 156.30 170.99 157.20 Z M 171.27 158.15 L 171.55 159.12 C 171.81 160.02 172.76 160.54 173.66 160.27 C 174.56 160.01 175.08 159.07 174.82 158.17 L 174.54 157.20 C 174.28 156.30 173.33 155.78 172.43 156.04 C 171.53 156.30 171.01 157.25 171.27 158.15 Z M 171.55 159.11 L 171.83 160.09 C 172.09 160.99 173.03 161.51 173.93 161.25 C 174.83 160.99 175.36 160.05 175.10 159.15 L 174.82 158.17 C 174.56 157.27 173.62 156.75 172.72 157.01 C 171.82 157.27 171.29 158.21 171.55 159.11 Z M 171.84 160.08 L 172.11 161.04 C 172.36 161.94 173.30 162.46 174.20 162.20 C 175.10 161.95 175.62 161.01 175.37 160.11 L 175.09 159.15 C 174.84 158.25 173.90 157.73 173.00 157.99 C 172.10 158.24 171.58 159.18 171.84 160.08 Z M 172.11 161.03 L 172.38 161.99 C 172.63 162.89 173.57 163.41 174.47 163.16 C 175.37 162.91 175.89 161.97 175.64 161.07 L 175.37 160.12 C 175.11 159.22 174.18 158.69 173.28 158.95 C 172.38 159.20 171.86 160.13 172.11 161.03 Z M 172.38 161.98 L 172.65 162.95 C 172.90 163.85 173.83 164.37 174.72 164.12 C 175.62 163.88 176.15 162.95 175.90 162.05 L 175.64 161.08 C 175.39 160.18 174.46 159.66 173.56 159.90 C 172.66 160.15 172.13 161.08 172.38 161.98 Z M 172.65 162.94 L 172.91 163.91 C 173.15 164.81 174.08 165.34 174.98 165.10 C 175.88 164.85 176.41 163.93 176.16 163.03 L 175.90 162.06 C 175.66 161.16 174.73 160.63 173.83 160.87 C 172.94 161.11 172.40 162.04 172.65 162.94 Z M 172.91 163.90 L 173.16 164.86 C 173.40 165.76 174.32 166.30 175.22 166.07 C 176.12 165.83 176.66 164.91 176.42 164.01 L 176.17 163.04 C 175.93 162.14 175.01 161.60 174.11 161.84 C 173.21 162.08 172.67 163.00 172.91 163.90 Z M 173.16 164.85 L 173.41 165.81 C 173.64 166.71 174.55 167.26 175.45 167.03 C 176.35 166.80 176.89 165.88 176.66 164.98 L 176.42 164.02 C 176.19 163.12 175.28 162.58 174.38 162.81 C 173.48 163.04 172.93 163.95 173.16 164.85 Z M 173.41 165.80 L 173.65 166.77 C 173.87 167.67 174.78 168.22 175.68 168.00 C 176.58 167.77 177.13 166.86 176.91 165.96 L 176.66 164.99 C 176.44 164.10 175.53 163.55 174.63 163.77 C 173.73 163.99 173.18 164.90 173.41 165.80 Z M 173.65 166.76 L 173.88 167.74 C 174.10 168.64 175.01 169.19 175.91 168.97 C 176.81 168.75 177.36 167.85 177.14 166.95 L 176.90 165.97 C 176.69 165.07 175.78 164.52 174.88 164.74 C 173.98 164.96 173.43 165.86 173.65 166.76 Z M 173.89 167.73 L 174.12 168.71 C 174.34 169.61 175.24 170.17 176.14 169.95 C 177.04 169.74 177.59 168.83 177.38 167.93 L 177.14 166.95 C 176.92 166.05 176.02 165.50 175.12 165.72 C 174.22 165.93 173.67 166.83 173.89 167.73 Z M 174.12 168.71 L 174.36 169.71 C 174.57 170.61 175.48 171.16 176.37 170.95 C 177.27 170.74 177.82 169.83 177.61 168.94 L 177.37 167.94 C 177.16 167.04 176.26 166.49 175.36 166.70 C 174.47 166.91 173.91 167.81 174.12 168.71 Z M 174.36 169.70 L 174.60 170.70 C 174.81 171.60 175.70 172.15 176.60 171.94 C 177.49 171.74 178.05 170.84 177.84 169.94 L 177.61 168.94 C 177.40 168.05 176.50 167.49 175.61 167.70 C 174.71 167.91 174.15 168.81 174.36 169.70 Z M 174.60 170.69 L 174.82 171.67 C 175.02 172.56 175.91 173.13 176.81 172.92 C 177.70 172.72 178.26 171.83 178.06 170.94 L 177.84 169.96 C 177.64 169.06 176.75 168.50 175.85 168.70 C 174.96 168.90 174.40 169.79 174.60 170.69 Z M 174.82 171.65 L 175.02 172.60 C 175.21 173.50 176.10 174.07 176.99 173.88 C 177.89 173.69 178.46 172.81 178.27 171.91 L 178.06 170.96 C 177.87 170.06 176.99 169.49 176.09 169.68 C 175.20 169.87 174.63 170.75 174.82 171.65 Z M 175.02 172.58 L 175.22 173.57 C 175.39 174.47 176.26 175.05 177.16 174.87 C 178.06 174.70 178.64 173.83 178.46 172.93 L 178.27 171.94 C 178.09 171.04 177.22 170.46 176.33 170.63 C 175.43 170.81 174.84 171.68 175.02 172.58 Z M 175.21 173.53 L 175.39 174.57 C 175.55 175.47 176.41 176.07 177.31 175.91 C 178.20 175.75 178.81 174.90 178.65 174.00 L 178.47 172.96 C 178.31 172.07 177.45 171.47 176.56 171.62 C 175.66 171.78 175.06 172.64 175.21 173.53 Z M 175.39 174.53 L 175.54 175.51 C 175.68 176.41 176.52 177.03 177.42 176.89 C 178.32 176.75 178.94 175.91 178.80 175.01 L 178.65 174.03 C 178.51 173.14 177.67 172.52 176.77 172.66 C 175.87 172.79 175.25 173.63 175.39 174.53 Z M 175.54 175.48 L 175.67 176.41 C 175.79 177.31 176.61 177.94 177.51 177.82 C 178.41 177.70 179.05 176.88 178.93 175.97 L 178.80 175.05 C 178.68 174.15 177.85 173.51 176.95 173.63 C 176.05 173.75 175.42 174.58 175.54 175.48 Z M 175.67 176.38 L 175.77 177.32 C 175.88 178.22 176.69 178.86 177.59 178.76 C 178.49 178.65 179.14 177.84 179.03 176.94 L 178.93 176.00 C 178.82 175.10 178.01 174.46 177.11 174.56 C 176.21 174.67 175.56 175.48 175.67 176.38 Z M 175.77 177.28 L 175.86 178.23 C 175.95 179.13 176.75 179.79 177.65 179.71 C 178.55 179.62 179.21 178.82 179.12 177.92 L 179.03 176.97 C 178.95 176.07 178.15 175.41 177.25 175.50 C 176.35 175.58 175.69 176.38 175.77 177.28 Z M 175.86 178.20 L 175.94 179.20 C 176.00 180.10 176.79 180.78 177.69 180.71 C 178.59 180.65 179.26 179.87 179.20 178.97 L 179.12 177.96 C 179.06 177.06 178.27 176.38 177.37 176.45 C 176.47 176.51 175.80 177.30 175.86 178.20 Z M 175.94 179.17 L 176.00 180.22 C 176.04 181.12 176.81 181.81 177.71 181.76 C 178.61 181.71 179.30 180.95 179.25 180.05 L 179.19 179.00 C 179.15 178.10 178.38 177.41 177.48 177.46 C 176.58 177.51 175.89 178.27 175.94 179.17 Z M 176.00 180.20 L 176.04 181.17 C 176.07 182.07 176.83 182.77 177.73 182.74 C 178.62 182.70 179.32 181.94 179.29 181.05 L 179.25 180.07 C 179.21 179.17 178.46 178.47 177.56 178.51 C 176.66 178.54 175.96 179.30 176.00 180.20 Z M 176.04 181.15 L 176.06 182.17 C 176.09 183.07 176.83 183.78 177.73 183.76 C 178.62 183.73 179.33 182.99 179.31 182.09 L 179.29 181.07 C 179.26 180.17 178.52 179.46 177.62 179.49 C 176.73 179.51 176.02 180.25 176.04 181.15 Z M 176.07 182.14 L 176.07 183.17 C 176.08 184.07 176.81 184.79 177.71 184.78 C 178.60 184.78 179.32 184.05 179.32 183.15 L 179.31 182.12 C 179.30 181.23 178.57 180.50 177.68 180.51 C 176.78 180.52 176.06 181.25 176.07 182.14 Z M 176.08 183.14 L 176.06 184.13 C 176.05 185.03 176.76 185.76 177.65 185.77 C 178.55 185.79 179.28 185.08 179.30 184.18 L 179.31 183.19 C 179.33 182.29 178.61 181.56 177.72 181.54 C 176.83 181.53 176.09 182.24 176.08 183.14 Z M 176.07 184.07 L 176.00 185.20 C 175.95 186.09 176.63 186.85 177.52 186.90 C 178.41 186.95 179.18 186.27 179.23 185.38 L 179.29 184.25 C 179.34 183.36 178.66 182.60 177.77 182.55 C 176.88 182.49 176.12 183.18 176.07 184.07 Z M 176.03 185.04 L 175.87 186.05 C 175.73 186.93 176.33 187.75 177.21 187.89 C 178.08 188.02 178.91 187.43 179.04 186.55 L 179.20 185.54 C 179.34 184.66 178.74 183.84 177.86 183.70 C 176.99 183.57 176.17 184.16 176.03 185.04 Z M 175.95 185.76 L 175.65 186.61 C 175.35 187.44 175.78 188.36 176.61 188.66 C 177.44 188.96 178.35 188.53 178.65 187.70 L 178.96 186.84 C 179.26 186.01 178.83 185.10 178.00 184.80 C 177.17 184.50 176.25 184.93 175.95 185.76 Z M 175.88 186.20 L 175.36 186.88 C 174.84 187.58 174.98 188.58 175.68 189.11 C 176.38 189.64 177.37 189.50 177.90 188.80 L 178.42 188.11 C 178.95 187.41 178.81 186.41 178.11 185.88 C 177.41 185.36 176.41 185.50 175.88 186.20 Z M 175.74 186.53 L 175.00 187.04 C 174.27 187.53 174.08 188.51 174.58 189.24 C 175.07 189.96 176.05 190.15 176.77 189.66 L 177.52 189.15 C 178.25 188.66 178.43 187.67 177.94 186.95 C 177.45 186.23 176.47 186.04 175.74 186.53 Z M 175.35 186.87 L 174.39 187.21 C 173.58 187.51 173.15 188.42 173.45 189.23 C 173.75 190.05 174.65 190.47 175.47 190.17 L 176.42 189.83 C 177.24 189.53 177.66 188.63 177.36 187.81 C 177.07 186.99 176.16 186.57 175.35 186.87 Z M 174.64 187.15 L 173.54 187.36 C 172.69 187.52 172.13 188.34 172.29 189.19 C 172.44 190.04 173.26 190.60 174.11 190.44 L 175.22 190.23 C 176.07 190.08 176.63 189.26 176.47 188.41 C 176.31 187.56 175.50 186.99 174.64 187.15 Z M 173.69 187.34 L 172.75 187.42 C 171.89 187.49 171.25 188.25 171.32 189.11 C 171.40 189.97 172.15 190.61 173.01 190.54 L 173.96 190.46 C 174.82 190.39 175.46 189.63 175.38 188.77 C 175.31 187.91 174.56 187.27 173.69 187.34 Z M 172.87 187.42 L 171.87 187.43 C 171.00 187.44 170.31 188.14 170.32 189.01 C 170.33 189.87 171.04 190.56 171.90 190.55 L 172.90 190.54 C 173.76 190.53 174.45 189.83 174.44 188.96 C 174.44 188.10 173.73 187.41 172.87 187.42 Z M 171.98 187.43 L 170.95 187.37 C 170.09 187.32 169.35 187.97 169.30 188.83 C 169.25 189.70 169.91 190.44 170.77 190.49 L 171.79 190.55 C 172.65 190.60 173.39 189.94 173.44 189.08 C 173.49 188.22 172.84 187.48 171.98 187.43 Z M 171.07 187.38 L 170.05 187.24 C 169.19 187.13 168.41 187.73 168.29 188.58 C 168.18 189.44 168.78 190.22 169.63 190.34 L 170.65 190.48 C 171.51 190.59 172.29 189.99 172.41 189.14 C 172.52 188.28 171.92 187.49 171.07 187.38 Z M 170.17 187.27 L 169.19 187.05 C 168.34 186.87 167.51 187.40 167.33 188.25 C 167.15 189.09 167.68 189.92 168.52 190.10 L 169.51 190.32 C 170.35 190.50 171.18 189.97 171.37 189.12 C 171.55 188.28 171.01 187.45 170.17 187.27 Z M 169.31 187.08 L 168.36 186.80 C 167.53 186.55 166.66 187.01 166.41 187.84 C 166.16 188.66 166.63 189.53 167.45 189.78 L 168.40 190.07 C 169.23 190.32 170.10 189.85 170.35 189.03 C 170.60 188.20 170.13 187.33 169.31 187.08 Z M 168.46 186.83 L 167.53 186.48 C 166.73 186.17 165.82 186.58 165.52 187.39 C 165.21 188.19 165.62 189.09 166.43 189.40 L 167.35 189.75 C 168.16 190.06 169.06 189.65 169.36 188.84 C 169.67 188.04 169.26 187.14 168.46 186.83 Z M 167.61 186.51 L 166.70 186.11 C 165.91 185.76 164.99 186.12 164.64 186.91 C 164.29 187.70 164.65 188.62 165.44 188.96 L 166.35 189.37 C 167.14 189.72 168.06 189.36 168.41 188.57 C 168.75 187.78 168.40 186.86 167.61 186.51 Z M 166.75 186.13 L 165.84 185.69 C 165.07 185.31 164.13 185.64 163.75 186.41 C 163.38 187.19 163.70 188.12 164.47 188.50 L 165.38 188.94 C 166.16 189.32 167.09 188.99 167.47 188.22 C 167.85 187.44 167.52 186.51 166.75 186.13 Z M 165.87 185.71 L 165.01 185.26 C 164.24 184.87 163.30 185.17 162.90 185.93 C 162.51 186.70 162.81 187.64 163.58 188.04 L 164.44 188.48 C 165.21 188.88 166.15 188.58 166.54 187.81 C 166.94 187.04 166.64 186.10 165.87 185.71 Z M 165.03 185.27 L 164.15 184.80 C 163.39 184.40 162.45 184.68 162.04 185.44 C 161.63 186.20 161.92 187.15 162.68 187.55 L 163.55 188.02 C 164.31 188.43 165.26 188.14 165.67 187.38 C 166.07 186.62 165.79 185.68 165.03 185.27 Z M 164.17 184.81 L 163.28 184.33 C 162.53 183.91 161.58 184.19 161.16 184.94 C 160.75 185.70 161.02 186.65 161.78 187.06 L 162.66 187.55 C 163.42 187.96 164.37 187.69 164.78 186.93 C 165.20 186.18 164.92 185.23 164.17 184.81 Z M 163.29 184.33 L 162.41 183.84 C 161.65 183.42 160.70 183.68 160.28 184.44 C 159.86 185.19 160.13 186.14 160.88 186.56 L 161.77 187.06 C 162.52 187.48 163.47 187.21 163.89 186.45 C 164.31 185.70 164.05 184.75 163.29 184.33 Z M 162.41 183.84 L 161.82 183.51 C 161.07 183.08 160.12 183.35 159.69 184.10 C 159.27 184.85 159.54 185.80 160.29 186.23 L 160.88 186.56 C 161.63 186.98 162.58 186.71 163.01 185.96 C 163.43 185.21 163.16 184.26 162.41 183.84 Z"
      fill="black"
      fill-rule="nonzero" /><path d="M 144.72 147.65 L 143.42 148.08 C 142.50 148.38 142.00 149.37 142.30 150.29 C 142.60 151.21 143.60 151.71 144.52 151.41 L 145.82 150.98 C 146.74 150.67 147.24 149.68 146.94 148.76 C 146.64 147.84 145.64 147.34 144.72 147.65 Z M 143.29 148.10 L 142.39 148.47 C 141.48 148.84 141.04 149.88 141.42 150.79 C 141.79 151.70 142.83 152.14 143.74 151.76 L 144.64 151.39 C 145.55 151.02 145.99 149.98 145.61 149.07 C 145.24 148.16 144.20 147.72 143.29 148.10 Z M 141.44 149.32 L 141.32 149.57 C 140.89 150.46 141.26 151.54 142.15 151.98 C 143.05 152.42 144.13 152.05 144.57 151.15 L 144.68 150.91 C 145.12 150.01 144.75 148.93 143.86 148.49 C 142.96 148.06 141.88 148.43 141.44 149.32 Z M 142.68 152.16 L 143.30 152.25 C 144.30 152.40 145.22 151.71 145.37 150.72 C 145.52 149.73 144.83 148.80 143.84 148.65 L 143.21 148.56 C 142.22 148.41 141.30 149.10 141.15 150.09 C 141.00 151.08 141.68 152.01 142.68 152.16 Z M 143.61 152.27 L 144.75 152.25 C 145.75 152.23 146.55 151.40 146.53 150.39 C 146.51 149.39 145.68 148.59 144.67 148.61 L 143.54 148.63 C 142.53 148.65 141.73 149.48 141.75 150.49 C 141.77 151.49 142.60 152.29 143.61 152.27 Z M 144.88 152.25 L 146.27 152.12 C 147.28 152.02 148.01 151.13 147.92 150.13 C 147.82 149.12 146.93 148.39 145.93 148.48 L 144.54 148.61 C 143.54 148.71 142.80 149.60 142.89 150.60 C 142.99 151.60 143.88 152.34 144.88 152.25 Z M 146.36 152.10 L 147.23 151.98 C 148.23 151.83 148.92 150.91 148.78 149.92 C 148.64 148.93 147.72 148.23 146.72 148.37 L 145.85 148.50 C 144.85 148.64 144.16 149.56 144.30 150.55 C 144.44 151.55 145.36 152.24 146.36 152.10 Z M 147.28 151.95 L 148.20 151.80 C 149.18 151.63 149.84 150.70 149.67 149.72 C 149.51 148.74 148.58 148.08 147.60 148.24 L 146.68 148.40 C 145.70 148.56 145.04 149.49 145.20 150.47 C 145.37 151.45 146.30 152.12 147.28 151.95 Z M 148.23 151.77 L 149.19 151.59 C 150.16 151.41 150.80 150.48 150.62 149.51 C 150.44 148.54 149.50 147.90 148.54 148.09 L 147.57 148.27 C 146.60 148.45 145.96 149.38 146.14 150.35 C 146.32 151.32 147.26 151.95 148.23 151.77 Z M 149.21 151.57 L 150.22 151.37 C 151.18 151.18 151.80 150.25 151.61 149.29 C 151.42 148.34 150.49 147.71 149.53 147.90 L 148.52 148.11 C 147.56 148.30 146.94 149.23 147.13 150.18 C 147.32 151.14 148.25 151.76 149.21 151.57 Z M 150.23 151.35 L 151.29 151.14 C 152.24 150.94 152.85 150.02 152.66 149.07 C 152.46 148.12 151.54 147.51 150.59 147.71 L 149.53 147.92 C 148.58 148.12 147.97 149.04 148.16 149.99 C 148.36 150.94 149.28 151.55 150.23 151.35 Z M 151.29 151.12 L 152.36 150.90 C 153.30 150.71 153.90 149.79 153.71 148.85 C 153.52 147.92 152.60 147.31 151.67 147.50 L 150.60 147.72 C 149.66 147.91 149.05 148.83 149.25 149.77 C 149.44 150.70 150.35 151.31 151.29 151.12 Z M 152.35 150.88 L 153.37 150.68 C 154.29 150.49 154.89 149.59 154.71 148.66 C 154.52 147.73 153.62 147.13 152.69 147.32 L 151.68 147.52 C 150.75 147.71 150.15 148.61 150.33 149.54 C 150.52 150.47 151.43 151.07 152.35 150.88 Z M 153.36 150.66 L 154.39 150.45 C 155.30 150.27 155.90 149.38 155.72 148.46 C 155.53 147.54 154.64 146.95 153.72 147.13 L 152.70 147.34 C 151.78 147.52 151.18 148.41 151.37 149.33 C 151.55 150.24 152.44 150.84 153.36 150.66 Z M 154.38 150.43 L 155.40 150.23 C 156.31 150.05 156.90 149.17 156.72 148.27 C 156.54 147.36 155.66 146.77 154.76 146.95 L 153.73 147.15 C 152.83 147.33 152.24 148.21 152.42 149.11 C 152.59 150.02 153.47 150.61 154.38 150.43 Z M 155.39 150.21 L 156.40 150.02 C 157.29 149.84 157.88 148.98 157.70 148.08 C 157.53 147.19 156.66 146.60 155.77 146.77 L 154.77 146.97 C 153.87 147.14 153.29 148.01 153.46 148.90 C 153.63 149.80 154.50 150.38 155.39 150.21 Z M 156.39 150.00 L 157.35 149.82 C 158.23 149.65 158.81 148.80 158.64 147.91 C 158.48 147.03 157.62 146.44 156.74 146.61 L 155.78 146.79 C 154.89 146.96 154.31 147.82 154.48 148.70 C 154.65 149.59 155.50 150.17 156.39 150.00 Z M 157.33 149.80 L 158.23 149.63 C 159.10 149.47 159.68 148.63 159.52 147.76 C 159.36 146.88 158.52 146.30 157.64 146.47 L 156.75 146.63 C 155.87 146.79 155.30 147.63 155.46 148.51 C 155.62 149.38 156.46 149.96 157.33 149.80 Z M 158.22 149.62 L 159.33 149.42 C 160.20 149.27 160.78 148.44 160.62 147.57 C 160.47 146.70 159.64 146.13 158.77 146.28 L 157.66 146.48 C 156.79 146.63 156.21 147.46 156.37 148.33 C 156.52 149.20 157.35 149.77 158.22 149.62 Z M 159.32 149.41 L 160.38 149.23 C 161.25 149.09 161.83 148.27 161.68 147.41 C 161.54 146.54 160.72 145.96 159.86 146.11 L 158.79 146.29 C 157.93 146.43 157.34 147.25 157.49 148.11 C 157.63 148.98 158.45 149.56 159.32 149.41 Z M 160.37 149.23 L 161.31 149.08 C 162.17 148.94 162.75 148.13 162.62 147.27 C 162.48 146.41 161.67 145.83 160.81 145.96 L 159.87 146.11 C 159.01 146.25 158.43 147.06 158.56 147.92 C 158.70 148.78 159.51 149.36 160.37 149.23 Z M 161.30 149.07 L 162.16 148.94 C 163.02 148.81 163.61 148.01 163.48 147.16 C 163.35 146.30 162.55 145.71 161.69 145.84 L 160.83 145.97 C 159.97 146.10 159.38 146.90 159.51 147.76 C 159.64 148.61 160.44 149.20 161.30 149.07 Z M 162.16 148.94 L 162.61 148.87 C 163.47 148.74 164.05 147.95 163.93 147.09 C 163.80 146.24 163.01 145.65 162.15 145.78 L 161.70 145.84 C 160.84 145.97 160.25 146.77 160.38 147.62 C 160.51 148.47 161.30 149.06 162.16 148.94 Z"
      fill="black"
      fill-rule="nonzero" /><path d="M 144.11 164.84 L 145.08 165.04 C 146.03 165.25 146.97 164.64 147.18 163.69 C 147.38 162.73 146.77 161.79 145.82 161.59 L 144.85 161.38 C 143.89 161.18 142.95 161.79 142.75 162.74 C 142.55 163.70 143.16 164.63 144.11 164.84 Z M 145.13 165.07 L 146.10 165.25 C 147.07 165.42 148.00 164.78 148.18 163.81 C 148.35 162.84 147.71 161.91 146.74 161.74 L 145.77 161.56 C 144.80 161.39 143.87 162.03 143.69 163.00 C 143.52 163.97 144.16 164.90 145.13 165.07 Z M 146.21 165.28 L 147.20 165.40 C 148.19 165.52 149.08 164.81 149.20 163.82 C 149.32 162.84 148.61 161.94 147.62 161.82 L 146.63 161.71 C 145.65 161.59 144.75 162.29 144.64 163.28 C 144.52 164.27 145.22 165.16 146.21 165.28 Z M 147.36 165.43 L 148.37 165.45 C 149.37 165.48 150.21 164.69 150.23 163.69 C 150.26 162.68 149.47 161.85 148.47 161.82 L 147.46 161.79 C 146.46 161.77 145.62 162.56 145.60 163.56 C 145.57 164.56 146.36 165.40 147.36 165.43 Z M 148.57 165.45 L 149.53 165.37 C 150.54 165.29 151.28 164.41 151.20 163.41 C 151.11 162.40 150.23 161.66 149.23 161.74 L 148.27 161.82 C 147.26 161.90 146.52 162.79 146.60 163.79 C 146.69 164.79 147.57 165.54 148.57 165.45 Z M 149.70 165.34 L 150.65 165.17 C 151.63 164.99 152.29 164.05 152.11 163.06 C 151.93 162.08 150.99 161.43 150.00 161.60 L 149.06 161.77 C 148.07 161.95 147.42 162.89 147.60 163.88 C 147.78 164.87 148.72 165.52 149.70 165.34 Z M 150.76 165.13 L 151.72 164.89 C 152.68 164.65 153.27 163.67 153.03 162.71 C 152.79 161.75 151.81 161.16 150.85 161.40 L 149.89 161.64 C 148.93 161.88 148.34 162.86 148.58 163.82 C 148.82 164.78 149.80 165.37 150.76 165.13 Z M 151.79 164.85 L 152.77 164.56 C 153.71 164.29 154.25 163.30 153.97 162.35 C 153.70 161.41 152.71 160.87 151.76 161.15 L 150.78 161.44 C 149.84 161.72 149.30 162.71 149.58 163.65 C 149.86 164.59 150.85 165.13 151.79 164.85 Z M 152.80 164.54 L 153.80 164.22 C 154.73 163.93 155.24 162.94 154.95 162.01 C 154.65 161.08 153.66 160.57 152.73 160.86 L 151.73 161.18 C 150.81 161.47 150.29 162.46 150.59 163.39 C 150.88 164.32 151.87 164.83 152.80 164.54 Z M 153.80 164.20 L 154.75 163.90 C 155.67 163.61 156.18 162.62 155.88 161.71 C 155.59 160.79 154.61 160.28 153.69 160.57 L 152.74 160.88 C 151.82 161.17 151.31 162.15 151.60 163.07 C 151.90 163.99 152.88 164.50 153.80 164.20 Z M 154.74 163.88 L 155.69 163.58 C 156.59 163.29 157.10 162.33 156.81 161.42 C 156.52 160.51 155.55 160.01 154.65 160.29 L 153.70 160.59 C 152.80 160.88 152.29 161.85 152.58 162.76 C 152.87 163.66 153.83 164.17 154.74 163.88 Z M 155.68 163.56 L 156.63 163.26 C 157.53 162.98 158.02 162.03 157.74 161.13 C 157.46 160.23 156.51 159.73 155.61 160.02 L 154.66 160.31 C 153.76 160.60 153.26 161.55 153.54 162.45 C 153.82 163.34 154.78 163.84 155.68 163.56 Z M 156.62 163.24 L 157.58 162.94 C 158.47 162.66 158.96 161.72 158.68 160.83 C 158.40 159.95 157.46 159.46 156.58 159.73 L 155.62 160.04 C 154.73 160.31 154.24 161.26 154.52 162.14 C 154.80 163.03 155.74 163.52 156.62 163.24 Z M 157.58 162.92 L 158.54 162.61 C 159.42 162.34 159.90 161.40 159.62 160.53 C 159.35 159.66 158.42 159.18 157.54 159.45 L 156.58 159.76 C 155.71 160.03 155.22 160.96 155.50 161.84 C 155.77 162.71 156.71 163.19 157.58 162.92 Z M 158.54 162.59 L 159.52 162.28 C 160.38 162.00 160.85 161.08 160.58 160.22 C 160.30 159.36 159.38 158.89 158.52 159.16 L 157.54 159.47 C 156.68 159.75 156.21 160.67 156.48 161.53 C 156.76 162.39 157.68 162.87 158.54 162.59 Z M 159.52 162.26 L 160.51 161.94 C 161.36 161.66 161.83 160.75 161.55 159.90 C 161.28 159.05 160.36 158.58 159.51 158.86 L 158.52 159.18 C 157.67 159.45 157.20 160.37 157.48 161.22 C 157.75 162.07 158.67 162.54 159.52 162.26 Z M 160.51 161.93 L 161.48 161.61 C 162.33 161.33 162.79 160.43 162.52 159.58 C 162.24 158.74 161.33 158.28 160.49 158.55 L 159.51 158.87 C 158.67 159.15 158.21 160.05 158.48 160.90 C 158.76 161.74 159.66 162.20 160.51 161.93 Z M 161.48 161.60 L 162.43 161.29 C 163.27 161.02 163.73 160.12 163.46 159.28 C 163.19 158.44 162.29 157.98 161.45 158.26 L 160.50 158.57 C 159.66 158.84 159.20 159.73 159.47 160.57 C 159.74 161.41 160.64 161.87 161.48 161.60 Z M 162.42 161.28 L 163.35 160.98 C 164.18 160.71 164.64 159.83 164.37 158.99 C 164.11 158.16 163.22 157.71 162.39 157.97 L 161.46 158.27 C 160.63 158.53 160.17 159.42 160.44 160.25 C 160.70 161.08 161.59 161.54 162.42 161.28 Z M 163.33 160.97 L 164.25 160.69 C 165.07 160.43 165.53 159.55 165.28 158.72 C 165.02 157.90 164.14 157.44 163.31 157.70 L 162.40 157.98 C 161.57 158.24 161.11 159.12 161.37 159.94 C 161.63 160.77 162.51 161.23 163.33 160.97 Z M 164.23 160.69 L 165.25 160.38 C 166.08 160.13 166.54 159.26 166.30 158.43 C 166.05 157.61 165.18 157.14 164.35 157.39 L 163.33 157.70 C 162.51 157.94 162.04 158.81 162.29 159.64 C 162.53 160.47 163.40 160.93 164.23 160.69 Z M 165.24 160.38 L 166.20 160.10 C 167.03 159.86 167.51 159.00 167.27 158.17 C 167.03 157.34 166.16 156.86 165.34 157.10 L 164.37 157.38 C 163.54 157.62 163.06 158.49 163.30 159.32 C 163.54 160.15 164.41 160.62 165.24 160.38 Z M 166.19 160.11 L 167.12 159.84 C 167.95 159.61 168.44 158.75 168.20 157.92 C 167.97 157.09 167.11 156.61 166.28 156.84 L 165.35 157.10 C 164.52 157.33 164.03 158.20 164.27 159.03 C 164.50 159.86 165.36 160.34 166.19 160.11 Z M 167.12 159.85 L 168.03 159.59 C 168.86 159.36 169.35 158.50 169.12 157.67 C 168.89 156.84 168.03 156.35 167.20 156.58 L 166.28 156.84 C 165.45 157.07 164.97 157.93 165.20 158.76 C 165.43 159.59 166.29 160.08 167.12 159.85 Z M 168.03 159.59 L 168.10 159.57 C 168.93 159.34 169.42 158.48 169.19 157.65 C 168.96 156.82 168.10 156.33 167.27 156.56 L 167.20 156.58 C 166.37 156.81 165.88 157.67 166.11 158.50 C 166.34 159.33 167.20 159.82 168.03 159.59 Z"
      fill="black"
      fill-rule="nonzero" /></svg>