<svg xmlns="http://www.w3.org/2000/svg" width="300" height="300" viewBox="0 0 300 300">
<path d="M 117.61 134.50 L 118.40 134.29 C 119.31 134.04 119.84 133.10 119.59 132.19 C 119.34 131.29 118.40 130.75 117.50 131.00 L 116.71 131.22 C 115.80 131.47 115.27 132.41 115.52 133.31 C 115.77 134.22 116.70 134.75 117.61 134.50 Z M 118.42 134.29 L 119.28 134.04 C 120.19 133.78 120.72 132.84 120.46 131.93 C 120.20 131.02 119.26 130.50 118.35 130.75 L 117.48 131.00 C 116.57 131.26 116.04 132.21 116.30 133.11 C 116.56 134.02 117.51 134.55 118.42 134.29 Z M 119.31 134.04 L 120.33 133.74 C 121.24 133.46 121.76 132.51 121.48 131.60 C 121.21 130.69 120.25 130.17 119.34 130.45 L 118.32 130.75 C 117.41 131.03 116.90 131.98 117.17 132.89 C 117.44 133.80 118.40 134.32 119.31 134.04 Z M 120.36 133.74 L 121.49 133.38 C 122.39 133.09 122.90 132.12 122.61 131.22 C 122.32 130.31 121.36 129.81 120.45 130.09 L 119.32 130.45 C 118.41 130.73 117.91 131.70 118.19 132.61 C 118.48 133.52 119.45 134.02 120.36 133.74 Z M 121.50 133.37 L 122.41 133.08 C 123.31 132.78 123.80 131.81 123.51 130.91 C 123.22 130.00 122.24 129.51 121.34 129.80 L 120.43 130.10 C 119.53 130.39 119.03 131.36 119.33 132.27 C 119.62 133.17 120.60 133.67 121.50 133.37 Z M 122.41 133.07 L 123.38 132.75 C 124.28 132.45 124.77 131.48 124.47 130.58 C 124.18 129.68 123.21 129.19 122.31 129.49 L 121.33 129.81 C 120.43 130.11 119.94 131.08 120.24 131.98 C 120.54 132.88 121.51 133.37 122.41 133.07 Z M 123.38 132.74 L 124.39 132.41 C 125.28 132.11 125.77 131.14 125.47 130.24 C 125.17 129.35 124.20 128.86 123.31 129.16 L 122.30 129.50 C 121.41 129.79 120.92 130.76 121.22 131.66 C 121.52 132.56 122.49 133.04 123.38 132.74 Z M 124.39 132.40 L 125.38 132.07 C 126.27 131.77 126.76 130.81 126.46 129.91 C 126.16 129.02 125.19 128.54 124.30 128.84 L 123.31 129.17 C 122.41 129.47 121.93 130.43 122.23 131.33 C 122.53 132.22 123.49 132.70 124.39 132.40 Z M 125.38 132.07 L 126.33 131.75 C 127.22 131.45 127.70 130.49 127.40 129.60 C 127.11 128.71 126.14 128.23 125.25 128.52 L 124.30 128.84 C 123.41 129.14 122.93 130.10 123.23 130.99 C 123.53 131.88 124.49 132.36 125.38 132.07 Z M 126.32 131.74 L 127.29 131.42 C 128.18 131.13 128.66 130.17 128.37 129.29 C 128.08 128.40 127.12 127.92 126.23 128.21 L 125.26 128.53 C 124.37 128.82 123.89 129.78 124.18 130.67 C 124.48 131.55 125.43 132.04 126.32 131.74 Z M 127.28 131.41 L 128.38 131.06 C 129.26 130.77 129.75 129.82 129.46 128.94 C 129.17 128.06 128.23 127.58 127.35 127.86 L 126.25 128.22 C 125.37 128.51 124.88 129.45 125.17 130.33 C 125.45 131.21 126.40 131.70 127.28 131.41 Z M 128.37 131.04 L 129.30 130.74 C 130.18 130.46 130.66 129.53 130.38 128.66 C 130.10 127.79 129.17 127.30 128.30 127.58 L 127.36 127.88 C 126.49 128.16 126.01 129.09 126.28 129.96 C 126.56 130.84 127.50 131.32 128.37 131.04 Z M 129.30 130.72 L 130.14 130.45 C 131.00 130.18 131.48 129.26 131.20 128.40 C 130.93 127.53 130.01 127.06 129.15 127.33 L 128.30 127.60 C 127.44 127.88 126.97 128.80 127.24 129.66 C 127.51 130.52 128.44 131.00 129.30 130.72 Z M 130.14 130.43 L 130.99 130.16 C 131.84 129.88 132.31 128.97 132.03 128.12 C 131.75 127.27 130.84 126.80 129.99 127.08 L 129.14 127.35 C 128.29 127.63 127.82 128.54 128.10 129.39 C 128.38 130.24 129.29 130.71 130.14 130.43 Z M 131.00 130.14 L 131.94 129.83 C 132.78 129.55 133.23 128.64 132.95 127.80 C 132.67 126.95 131.76 126.50 130.92 126.78 L 129.98 127.09 C 129.14 127.37 128.68 128.28 128.96 129.13 C 129.24 129.97 130.15 130.43 131.00 130.14 Z M 131.94 129.82 L 132.89 129.50 C 133.73 129.22 134.18 128.31 133.90 127.47 C 133.61 126.63 132.70 126.18 131.87 126.46 L 130.91 126.79 C 130.07 127.07 129.62 127.98 129.91 128.82 C 130.19 129.66 131.10 130.11 131.94 129.82 Z M 132.89 129.50 L 133.85 129.17 C 134.68 128.89 135.13 127.98 134.85 127.15 C 134.57 126.31 133.66 125.87 132.83 126.15 L 131.87 126.47 C 131.03 126.75 130.59 127.66 130.87 128.49 C 131.15 129.33 132.05 129.78 132.89 129.50 Z M 133.84 129.17 L 134.80 128.85 C 135.63 128.57 136.08 127.67 135.80 126.84 C 135.53 126.01 134.63 125.56 133.79 125.83 L 132.84 126.15 C 132.00 126.43 131.55 127.33 131.83 128.16 C 132.11 128.99 133.01 129.45 133.84 129.17 Z M 134.79 128.85 L 135.74 128.54 C 136.57 128.26 137.03 127.37 136.75 126.53 C 136.48 125.70 135.58 125.25 134.75 125.52 L 133.80 125.84 C 132.97 126.11 132.52 127.00 132.79 127.84 C 133.06 128.67 133.96 129.12 134.79 128.85 Z M 135.74 128.53 L 136.69 128.22 C 137.52 127.94 137.97 127.05 137.69 126.22 C 137.42 125.39 136.53 124.94 135.70 125.22 L 134.75 125.53 C 133.92 125.80 133.47 126.70 133.75 127.52 C 134.02 128.35 134.91 128.80 135.74 128.53 Z M 136.70 128.21 L 137.64 127.89 C 138.47 127.61 138.91 126.72 138.63 125.89 C 138.35 125.07 137.46 124.63 136.63 124.91 L 135.69 125.22 C 134.86 125.50 134.42 126.40 134.70 127.22 C 134.98 128.04 135.87 128.49 136.70 128.21 Z M 137.65 127.88 L 138.61 127.55 C 139.43 127.27 139.86 126.37 139.57 125.55 C 139.29 124.73 138.39 124.30 137.57 124.58 L 136.62 124.91 C 135.80 125.20 135.37 126.10 135.65 126.91 C 135.94 127.73 136.84 128.17 137.65 127.88 Z M 138.62 127.54 L 139.56 127.20 C 140.38 126.91 140.80 126.01 140.51 125.20 C 140.22 124.38 139.32 123.96 138.50 124.25 L 137.56 124.59 C 136.74 124.88 136.32 125.78 136.61 126.60 C 136.91 127.41 137.80 127.84 138.62 127.54 Z M 139.58 127.20 L 140.51 126.86 C 141.32 126.56 141.73 125.66 141.43 124.84 C 141.14 124.03 140.24 123.62 139.42 123.91 L 138.49 124.26 C 137.68 124.56 137.27 125.46 137.56 126.27 C 137.86 127.08 138.76 127.50 139.58 127.20 Z M 140.52 126.85 L 141.39 126.52 C 142.20 126.21 142.61 125.31 142.31 124.50 C 142.00 123.69 141.10 123.29 140.29 123.59 L 139.41 123.92 C 138.60 124.23 138.20 125.13 138.50 125.94 C 138.81 126.75 139.71 127.15 140.52 126.85 Z M 141.40 126.51 L 142.28 126.18 C 143.09 125.87 143.49 124.96 143.18 124.15 C 142.87 123.35 141.97 122.95 141.16 123.26 L 140.28 123.59 C 139.47 123.91 139.07 124.81 139.38 125.62 C 139.69 126.42 140.60 126.82 141.40 126.51 Z M 142.29 126.17 L 143.23 125.81 C 144.03 125.49 144.43 124.59 144.12 123.78 C 143.80 122.98 142.90 122.58 142.09 122.89 L 141.15 123.26 C 140.35 123.57 139.95 124.48 140.26 125.28 C 140.58 126.09 141.48 126.49 142.29 126.17 Z M 143.23 125.80 L 144.26 125.40 C 145.06 125.09 145.46 124.18 145.14 123.38 C 144.82 122.57 143.92 122.18 143.11 122.49 L 142.09 122.90 C 141.29 123.21 140.89 124.12 141.21 124.92 C 141.52 125.72 142.43 126.12 143.23 125.80 Z M 144.26 125.40 L 145.16 125.04 C 145.97 124.73 146.36 123.82 146.04 123.02 C 145.73 122.21 144.82 121.82 144.02 122.14 L 143.11 122.49 C 142.31 122.81 141.92 123.72 142.23 124.52 C 142.55 125.32 143.46 125.72 144.26 125.40 Z M 145.17 125.04 L 146.12 124.66 C 146.92 124.34 147.31 123.43 146.99 122.63 C 146.67 121.83 145.77 121.44 144.96 121.76 L 144.01 122.14 C 143.21 122.46 142.82 123.37 143.14 124.17 C 143.46 124.97 144.37 125.36 145.17 125.04 Z M 146.13 124.66 L 147.09 124.27 C 147.89 123.95 148.27 123.04 147.95 122.24 C 147.63 121.44 146.71 121.05 145.92 121.38 L 144.96 121.76 C 144.16 122.09 143.77 123.00 144.10 123.80 C 144.42 124.60 145.33 124.98 146.13 124.66 Z M 147.10 124.26 L 148.03 123.88 C 148.82 123.55 149.20 122.63 148.87 121.84 C 148.54 121.04 147.63 120.66 146.83 121.00 L 145.90 121.38 C 145.11 121.71 144.73 122.62 145.06 123.42 C 145.39 124.22 146.30 124.59 147.10 124.26 Z M 148.05 123.87 L 149.13 123.40 C 149.92 123.05 150.29 122.14 149.94 121.34 C 149.60 120.55 148.68 120.19 147.89 120.54 L 146.81 121.01 C 146.02 121.35 145.65 122.27 146.00 123.06 C 146.34 123.85 147.26 124.21 148.05 123.87 Z M 149.21 123.36 L 150.33 122.80 C 151.10 122.41 151.40 121.47 151.02 120.70 C 150.63 119.93 149.69 119.62 148.92 120.01 L 147.81 120.57 C 147.04 120.96 146.73 121.90 147.12 122.67 C 147.51 123.44 148.44 123.75 149.21 123.36 Z M 150.69 122.54 L 151.16 122.10 C 151.79 121.51 151.82 120.52 151.23 119.90 C 150.64 119.27 149.65 119.24 149.03 119.82 L 148.56 120.27 C 147.93 120.86 147.89 121.84 148.48 122.47 C 149.07 123.10 150.06 123.13 150.69 122.54 Z M 151.08 119.75 L 150.74 119.48 C 150.07 118.93 149.09 119.03 148.54 119.70 C 148.00 120.37 148.10 121.35 148.77 121.89 L 149.11 122.17 C 149.78 122.72 150.76 122.62 151.30 121.95 C 151.85 121.28 151.75 120.30 151.08 119.75 Z M 150.01 119.15 L 149.06 118.99 C 148.21 118.85 147.41 119.42 147.27 120.27 C 147.13 121.13 147.70 121.93 148.55 122.07 L 149.50 122.23 C 150.35 122.37 151.15 121.79 151.29 120.94 C 151.43 120.09 150.86 119.29 150.01 119.15 Z M 148.90 118.97 L 147.65 118.89 C 146.79 118.84 146.05 119.49 145.99 120.35 C 145.94 121.21 146.59 121.95 147.45 122.01 L 148.71 122.09 C 149.57 122.14 150.31 121.49 150.36 120.63 C 150.42 119.77 149.77 119.03 148.90 118.97 Z M 147.60 118.89 L 146.49 118.85 C 145.63 118.83 144.91 119.50 144.88 120.37 C 144.86 121.23 145.53 121.95 146.40 121.98 L 147.50 122.01 C 148.36 122.04 149.08 121.36 149.11 120.50 C 149.14 119.64 148.46 118.91 147.60 118.89 Z M 146.47 118.85 L 145.46 118.84 C 144.60 118.82 143.89 119.51 143.87 120.37 C 143.86 121.24 144.55 121.95 145.41 121.96 L 146.42 121.98 C 147.28 121.99 148.00 121.30 148.01 120.44 C 148.02 119.58 147.33 118.86 146.47 118.85 Z M 145.45 118.83 L 144.46 118.83 C 143.59 118.82 142.89 119.52 142.88 120.38 C 142.88 121.25 143.58 121.95 144.44 121.96 L 145.43 121.96 C 146.29 121.97 147.00 121.27 147.00 120.41 C 147.01 119.54 146.31 118.84 145.45 118.83 Z M 144.45 118.82 L 143.47 118.82 C 142.61 118.82 141.90 119.52 141.90 120.39 C 141.90 121.26 142.60 121.96 143.47 121.96 L 144.45 121.96 C 145.32 121.96 146.02 121.26 146.02 120.39 C 146.02 119.53 145.32 118.82 144.45 118.82 Z M 143.47 118.82 L 142.46 118.82 C 141.59 118.82 140.89 119.53 140.89 120.40 C 140.89 121.27 141.60 121.97 142.47 121.97 L 143.47 121.97 C 144.35 121.97 145.05 121.26 145.05 120.39 C 145.05 119.52 144.34 118.81 143.47 118.82 Z M 142.44 118.81 L 141.44 118.82 C 140.56 118.84 139.86 119.56 139.88 120.43 C 139.89 121.31 140.61 122.01 141.49 122.00 L 142.49 121.98 C 143.37 121.97 144.07 121.25 144.05 120.37 C 144.04 119.49 143.32 118.79 142.44 118.81 Z M 141.40 118.81 L 140.41 118.85 C 139.52 118.89 138.83 119.63 138.87 120.51 C 138.91 121.40 139.65 122.08 140.53 122.05 L 141.53 122.01 C 142.41 121.97 143.10 121.23 143.06 120.35 C 143.03 119.46 142.28 118.78 141.40 118.81 Z M 140.35 118.84 L 139.36 118.92 C 138.47 118.99 137.81 119.76 137.88 120.65 C 137.95 121.53 138.72 122.20 139.61 122.13 L 140.59 122.05 C 141.48 121.99 142.14 121.21 142.07 120.33 C 142.01 119.44 141.23 118.78 140.35 118.84 Z M 139.30 118.92 L 138.32 119.03 C 137.43 119.14 136.79 119.94 136.90 120.83 C 137.00 121.71 137.81 122.35 138.69 122.25 L 139.67 122.13 C 140.56 122.03 141.19 121.22 141.09 120.34 C 140.99 119.45 140.18 118.81 139.30 118.92 Z M 138.26 119.04 L 137.27 119.19 C 136.39 119.32 135.78 120.15 135.92 121.04 C 136.05 121.92 136.88 122.53 137.77 122.39 L 138.75 122.24 C 139.64 122.11 140.24 121.28 140.11 120.39 C 139.97 119.51 139.14 118.90 138.26 119.04 Z M 137.22 119.19 L 136.22 119.38 C 135.33 119.54 134.75 120.39 134.91 121.27 C 135.08 122.16 135.93 122.74 136.81 122.58 L 137.81 122.39 C 138.70 122.23 139.28 121.38 139.12 120.50 C 138.96 119.61 138.11 119.03 137.22 119.19 Z M 136.16 119.38 L 135.13 119.61 C 134.25 119.80 133.69 120.68 133.88 121.56 C 134.08 122.44 134.95 123.00 135.84 122.81 L 136.87 122.58 C 137.75 122.38 138.31 121.51 138.11 120.62 C 137.92 119.74 137.04 119.18 136.16 119.38 Z M 134.97 119.63 L 133.99 119.95 C 133.12 120.24 132.65 121.17 132.94 122.04 C 133.22 122.91 134.15 123.38 135.02 123.10 L 136.00 122.78 C 136.87 122.49 137.34 121.56 137.06 120.69 C 136.77 119.82 135.84 119.35 134.97 119.63 Z M 133.68 120.07 L 132.85 120.55 C 132.05 121.01 131.77 122.03 132.23 122.83 C 132.69 123.63 133.71 123.91 134.51 123.45 L 135.34 122.98 C 136.14 122.52 136.42 121.50 135.96 120.70 C 135.50 119.89 134.48 119.62 133.68 120.07 Z M 132.41 120.89 L 131.84 121.54 C 131.23 122.24 131.30 123.31 132.01 123.92 C 132.71 124.53 133.77 124.46 134.38 123.76 L 134.95 123.11 C 135.56 122.40 135.49 121.34 134.79 120.73 C 134.09 120.12 133.02 120.19 132.41 120.89 Z M 131.53 122.06 L 131.23 122.85 C 130.90 123.73 131.35 124.70 132.22 125.03 C 133.10 125.36 134.07 124.91 134.40 124.04 L 134.70 123.24 C 135.02 122.37 134.58 121.39 133.70 121.06 C 132.83 120.74 131.86 121.18 131.53 122.06 Z M 131.13 123.28 L 131.04 124.24 C 130.94 125.17 131.62 126.00 132.55 126.09 C 133.48 126.19 134.31 125.51 134.41 124.58 L 134.50 123.61 C 134.59 122.68 133.91 121.85 132.98 121.76 C 132.05 121.67 131.22 122.35 131.13 123.28 Z M 131.03 124.54 L 131.12 125.65 C 131.19 126.58 132.01 127.28 132.94 127.20 C 133.87 127.13 134.57 126.32 134.50 125.38 L 134.41 124.28 C 134.34 123.34 133.52 122.65 132.59 122.72 C 131.66 122.79 130.96 123.61 131.03 124.54 Z M 131.14 125.84 L 131.36 126.95 C 131.54 127.86 132.43 128.46 133.35 128.28 C 134.27 128.10 134.87 127.21 134.69 126.29 L 134.47 125.19 C 134.29 124.27 133.40 123.67 132.48 123.85 C 131.56 124.03 130.96 124.92 131.14 125.84 Z M 131.39 127.06 L 131.65 128.04 C 131.89 128.94 132.83 129.47 133.73 129.23 C 134.63 128.99 135.17 128.06 134.92 127.15 L 134.66 126.18 C 134.42 125.27 133.49 124.74 132.58 124.98 C 131.68 125.23 131.14 126.16 131.39 127.06 Z M 131.67 128.10 L 131.98 129.10 C 132.26 129.99 133.22 130.48 134.11 130.20 C 135.00 129.92 135.50 128.97 135.22 128.08 L 134.90 127.08 C 134.62 126.19 133.67 125.69 132.78 125.98 C 131.88 126.26 131.39 127.21 131.67 128.10 Z M 132.00 129.14 L 132.34 130.12 C 132.64 131.01 133.61 131.47 134.49 131.17 C 135.38 130.86 135.85 129.90 135.54 129.01 L 135.20 128.03 C 134.90 127.15 133.93 126.68 133.05 126.98 C 132.16 127.29 131.69 128.25 132.00 129.14 Z M 132.34 130.14 L 132.68 131.08 C 133.00 131.96 133.98 132.42 134.86 132.10 C 135.74 131.78 136.19 130.81 135.87 129.92 L 135.53 128.99 C 135.21 128.11 134.24 127.65 133.36 127.97 C 132.48 128.29 132.03 129.26 132.34 130.14 Z M 132.69 131.09 L 133.01 131.97 C 133.33 132.85 134.31 133.30 135.19 132.98 C 136.06 132.66 136.52 131.69 136.19 130.81 L 135.87 129.92 C 135.55 129.04 134.57 128.59 133.70 128.91 C 132.82 129.23 132.36 130.21 132.69 131.09 Z M 133.01 131.95 L 133.40 133.05 C 133.71 133.94 134.67 134.40 135.56 134.09 C 136.44 133.77 136.90 132.81 136.59 131.93 L 136.20 130.83 C 135.89 129.94 134.92 129.48 134.04 129.79 C 133.16 130.10 132.69 131.07 133.01 131.95 Z M 133.39 133.02 L 133.70 133.97 C 134.00 134.85 134.95 135.33 135.84 135.04 C 136.72 134.74 137.20 133.79 136.91 132.90 L 136.59 131.96 C 136.30 131.07 135.34 130.59 134.46 130.89 C 133.57 131.18 133.10 132.14 133.39 133.02 Z M 133.70 133.93 L 133.96 134.79 C 134.24 135.68 135.18 136.17 136.07 135.90 C 136.96 135.62 137.45 134.68 137.18 133.79 L 136.91 132.94 C 136.64 132.05 135.70 131.55 134.81 131.83 C 133.92 132.10 133.42 133.04 133.70 133.93 Z M 133.96 134.76 L 134.21 135.64 C 134.47 136.53 135.40 137.04 136.29 136.78 C 137.18 136.53 137.70 135.60 137.44 134.70 L 137.18 133.82 C 136.93 132.93 135.99 132.42 135.10 132.68 C 134.21 132.93 133.70 133.87 133.96 134.76 Z M 134.21 135.62 L 134.47 136.57 C 134.72 137.47 135.64 137.99 136.54 137.74 C 137.43 137.50 137.95 136.57 137.71 135.68 L 137.44 134.72 C 137.20 133.83 136.27 133.31 135.38 133.55 C 134.49 133.80 133.96 134.72 134.21 135.62 Z M 134.47 136.57 L 134.74 137.53 C 134.98 138.43 135.90 138.95 136.79 138.71 C 137.68 138.47 138.21 137.55 137.97 136.66 L 137.71 135.69 C 137.46 134.80 136.54 134.27 135.65 134.51 C 134.76 134.75 134.23 135.67 134.47 136.57 Z M 134.74 137.54 L 135.00 138.50 C 135.25 139.39 136.17 139.92 137.06 139.67 C 137.95 139.43 138.47 138.51 138.23 137.62 L 137.96 136.65 C 137.72 135.76 136.80 135.24 135.91 135.48 C 135.02 135.73 134.49 136.65 134.74 137.54 Z M 135.01 138.51 L 135.27 139.45 C 135.52 140.34 136.44 140.86 137.33 140.61 C 138.22 140.36 138.74 139.44 138.49 138.55 L 138.23 137.61 C 137.98 136.72 137.06 136.20 136.17 136.45 C 135.28 136.70 134.76 137.62 135.01 138.51 Z M 135.27 139.44 L 135.54 140.41 C 135.78 141.29 136.70 141.81 137.59 141.57 C 138.48 141.32 139.00 140.41 138.75 139.52 L 138.49 138.56 C 138.24 137.67 137.32 137.15 136.44 137.39 C 135.55 137.64 135.03 138.55 135.27 139.44 Z M 135.54 140.38 L 135.80 141.38 C 136.03 142.27 136.94 142.80 137.83 142.57 C 138.72 142.34 139.25 141.43 139.02 140.54 L 138.75 139.54 C 138.52 138.65 137.61 138.12 136.72 138.35 C 135.84 138.59 135.30 139.49 135.54 140.38 Z M 135.79 141.35 L 136.02 142.30 C 136.24 143.19 137.13 143.74 138.02 143.52 C 138.92 143.31 139.46 142.41 139.25 141.52 L 139.02 140.57 C 138.81 139.68 137.91 139.13 137.02 139.35 C 136.13 139.56 135.58 140.46 135.79 141.35 Z M 136.02 142.27 L 136.23 143.24 C 136.43 144.13 137.31 144.70 138.21 144.50 C 139.10 144.30 139.67 143.42 139.47 142.52 L 139.25 141.55 C 139.06 140.66 138.17 140.09 137.28 140.29 C 136.38 140.49 135.82 141.37 136.02 142.27 Z M 136.23 143.21 L 136.43 144.20 C 136.61 145.10 137.48 145.68 138.38 145.50 C 139.27 145.31 139.85 144.44 139.67 143.55 L 139.47 142.55 C 139.29 141.66 138.42 141.08 137.52 141.26 C 136.63 141.44 136.05 142.31 136.23 143.21 Z M 136.43 144.17 L 136.61 145.17 C 136.77 146.07 137.63 146.66 138.53 146.50 C 139.42 146.34 140.02 145.48 139.86 144.58 L 139.67 143.58 C 139.51 142.68 138.65 142.09 137.76 142.25 C 136.86 142.41 136.26 143.27 136.43 144.17 Z M 136.61 145.14 L 136.76 146.11 C 136.91 147.01 137.76 147.62 138.66 147.47 C 139.55 147.32 140.16 146.48 140.02 145.58 L 139.86 144.61 C 139.71 143.71 138.87 143.10 137.97 143.25 C 137.07 143.39 136.46 144.24 136.61 145.14 Z M 136.76 146.08 L 136.91 147.07 C 137.04 147.96 137.88 148.58 138.78 148.45 C 139.68 148.32 140.30 147.48 140.16 146.58 L 140.02 145.60 C 139.88 144.70 139.05 144.08 138.15 144.22 C 137.25 144.35 136.63 145.19 136.76 146.08 Z M 136.91 147.05 L 137.05 148.05 C 137.17 148.95 138.00 149.57 138.90 149.45 C 139.80 149.33 140.42 148.50 140.30 147.60 L 140.16 146.60 C 140.04 145.70 139.21 145.07 138.31 145.20 C 137.41 145.32 136.79 146.15 136.91 147.05 Z M 137.05 148.04 L 137.18 149.04 C 137.30 149.94 138.12 150.57 139.02 150.45 C 139.92 150.33 140.55 149.51 140.43 148.61 L 140.30 147.61 C 140.18 146.71 139.36 146.08 138.46 146.20 C 137.56 146.32 136.93 147.14 137.05 148.04 Z M 137.19 149.03 L 137.31 149.99 C 137.42 150.89 138.24 151.52 139.14 151.40 C 140.03 151.29 140.67 150.47 140.55 149.57 L 140.43 148.62 C 140.31 147.72 139.49 147.09 138.60 147.20 C 137.70 147.32 137.07 148.14 137.19 149.03 Z M 137.31 149.99 L 137.43 150.97 C 137.55 151.86 138.36 152.50 139.26 152.38 C 140.15 152.27 140.79 151.45 140.67 150.56 L 140.55 149.58 C 140.44 148.68 139.62 148.05 138.73 148.16 C 137.83 148.27 137.20 149.09 137.31 149.99 Z M 137.44 150.96 L 137.56 151.97 C 137.67 152.86 138.48 153.50 139.38 153.39 C 140.27 153.28 140.90 152.47 140.79 151.57 L 140.67 150.57 C 140.56 149.67 139.75 149.04 138.86 149.15 C 137.96 149.26 137.33 150.07 137.44 150.96 Z M 137.56 151.96 L 137.69 153.00 C 137.79 153.89 138.60 154.53 139.49 154.42 C 140.39 154.31 141.02 153.50 140.92 152.61 L 140.79 151.58 C 140.69 150.69 139.88 150.05 138.98 150.15 C 138.09 150.26 137.46 151.07 137.56 151.96 Z M 137.69 152.99 L 137.80 153.98 C 137.91 154.87 138.71 155.51 139.60 155.40 C 140.49 155.30 141.13 154.50 141.03 153.60 L 140.91 152.62 C 140.81 151.73 140.00 151.09 139.11 151.19 C 138.22 151.29 137.58 152.10 137.69 152.99 Z M 137.81 153.97 L 137.92 154.97 C 138.02 155.86 138.82 156.50 139.71 156.40 C 140.60 156.30 141.24 155.50 141.14 154.61 L 141.02 153.61 C 140.93 152.72 140.12 152.08 139.24 152.18 C 138.35 152.28 137.71 153.08 137.81 153.97 Z M 137.92 154.96 L 138.03 155.97 C 138.12 156.85 138.92 157.50 139.80 157.40 C 140.69 157.31 141.33 156.51 141.24 155.62 L 141.13 154.62 C 141.04 153.73 140.24 153.09 139.36 153.18 C 138.47 153.28 137.83 154.07 137.92 154.96 Z M 138.03 155.95 L 138.13 156.95 C 138.22 157.84 139.00 158.48 139.89 158.40 C 140.78 158.31 141.42 157.52 141.34 156.63 L 141.24 155.64 C 141.15 154.75 140.36 154.10 139.47 154.19 C 138.59 154.28 137.94 155.07 138.03 155.95 Z M 138.13 156.94 L 138.22 157.93 C 138.30 158.82 139.08 159.47 139.97 159.39 C 140.85 159.31 141.50 158.53 141.42 157.65 L 141.33 156.65 C 141.25 155.76 140.47 155.11 139.59 155.19 C 138.70 155.27 138.05 156.05 138.13 156.94 Z M 138.22 157.92 L 138.30 158.93 C 138.37 159.81 139.14 160.47 140.03 160.40 C 140.91 160.33 141.57 159.56 141.50 158.68 L 141.42 157.66 C 141.35 156.78 140.58 156.12 139.69 156.19 C 138.81 156.26 138.15 157.03 138.22 157.92 Z M 138.30 158.91 L 138.37 159.91 C 138.43 160.79 139.20 161.46 140.08 161.40 C 140.96 161.34 141.63 160.57 141.57 159.69 L 141.50 158.69 C 141.44 157.81 140.67 157.14 139.79 157.20 C 138.91 157.27 138.24 158.03 138.30 158.91 Z M 138.37 159.89 L 138.43 160.88 C 138.48 161.76 139.24 162.43 140.12 162.38 C 141.00 162.33 141.68 161.57 141.62 160.69 L 141.57 159.70 C 141.51 158.82 140.76 158.15 139.88 158.20 C 138.99 158.25 138.32 159.01 138.37 159.89 Z M 138.43 160.87 L 138.48 161.85 C 138.53 162.73 139.28 163.41 140.16 163.36 C 141.04 163.32 141.72 162.57 141.67 161.69 L 141.62 160.71 C 141.58 159.82 140.83 159.15 139.95 159.19 C 139.07 159.24 138.39 159.99 138.43 160.87 Z M 138.49 161.84 L 138.53 162.84 C 138.57 163.71 139.31 164.40 140.19 164.36 C 141.07 164.32 141.75 163.58 141.71 162.70 L 141.67 161.70 C 141.63 160.82 140.89 160.14 140.01 160.18 C 139.13 160.22 138.45 160.96 138.49 161.84 Z M 138.53 162.83 L 138.57 163.83 C 138.60 164.71 139.34 165.39 140.22 165.36 C 141.09 165.32 141.78 164.59 141.75 163.71 L 141.71 162.71 C 141.68 161.83 140.94 161.15 140.06 161.18 C 139.18 161.21 138.50 161.95 138.53 162.83 Z M 138.57 163.82 L 138.61 164.82 C 138.63 165.70 139.37 166.39 140.24 166.36 C 141.12 166.33 141.81 165.59 141.78 164.72 L 141.74 163.72 C 141.71 162.84 140.98 162.15 140.11 162.18 C 139.23 162.21 138.54 162.95 138.57 163.82 Z M 138.61 164.82 L 138.64 165.82 C 138.67 166.69 139.40 167.38 140.27 167.35 C 141.15 167.33 141.83 166.59 141.81 165.72 L 141.77 164.72 C 141.75 163.85 141.02 163.16 140.14 163.19 C 139.27 163.21 138.58 163.95 138.61 164.82 Z M 138.64 165.82 L 138.67 166.83 C 138.70 167.70 139.43 168.39 140.30 168.36 C 141.18 168.33 141.86 167.60 141.83 166.73 L 141.80 165.72 C 141.78 164.85 141.05 164.16 140.17 164.19 C 139.30 164.22 138.62 164.94 138.64 165.82 Z M 138.68 166.83 L 138.71 167.84 C 138.73 168.71 139.46 169.39 140.33 169.37 C 141.20 169.34 141.89 168.61 141.86 167.74 L 141.83 166.73 C 141.81 165.86 141.08 165.17 140.21 165.20 C 139.34 165.23 138.65 165.95 138.68 166.83 Z M 138.71 167.83 L 138.74 168.83 C 138.76 169.70 139.48 170.39 140.35 170.37 C 141.22 170.34 141.91 169.62 141.89 168.75 L 141.86 167.75 C 141.84 166.88 141.11 166.19 140.24 166.21 C 139.37 166.24 138.68 166.96 138.71 167.83 Z M 138.74 168.83 L 138.76 169.82 C 138.78 170.68 139.50 171.37 140.37 171.35 C 141.24 171.33 141.93 170.61 141.91 169.74 L 141.89 168.75 C 141.87 167.89 141.14 167.20 140.28 167.22 C 139.41 167.24 138.72 167.96 138.74 168.83 Z M 138.76 169.81 L 138.78 170.81 C 138.79 171.68 139.51 172.37 140.38 172.35 C 141.25 172.34 141.94 171.62 141.92 170.76 L 141.91 169.75 C 141.89 168.88 141.18 168.19 140.31 168.21 C 139.44 168.22 138.75 168.94 138.76 169.81 Z M 138.78 170.80 L 138.79 171.83 C 138.80 172.69 139.51 173.39 140.38 173.38 C 141.24 173.37 141.94 172.66 141.93 171.79 L 141.92 170.77 C 141.91 169.90 141.20 169.20 140.34 169.21 C 139.47 169.22 138.77 169.93 138.78 170.80 Z M 138.79 171.82 L 138.80 172.82 C 138.80 173.69 139.51 174.39 140.37 174.38 C 141.24 174.38 141.94 173.67 141.93 172.81 L 141.93 171.80 C 141.93 170.94 141.22 170.24 140.35 170.24 C 139.49 170.25 138.79 170.95 138.79 171.82 Z M 138.80 172.82 L 138.80 173.79 C 138.80 174.66 139.50 175.36 140.37 175.36 C 141.23 175.36 141.94 174.65 141.93 173.79 L 141.93 172.81 C 141.93 171.95 141.23 171.25 140.36 171.25 C 139.50 171.25 138.80 171.95 138.80 172.82 Z M 138.80 173.79 L 138.80 174.78 C 138.80 175.65 139.50 176.35 140.37 176.35 C 141.23 176.35 141.93 175.65 141.93 174.78 L 141.93 173.79 C 141.93 172.93 141.23 172.22 140.37 172.22 C 139.50 172.22 138.80 172.93 138.80 173.79 Z M 138.80 174.78 L 138.80 175.79 C 138.80 176.66 139.50 177.36 140.37 177.36 C 141.23 177.36 141.93 176.66 141.93 175.79 L 141.93 174.78 C 141.93 173.92 141.23 173.22 140.37 173.22 C 139.50 173.22 138.80 173.92 138.80 174.78 Z M 138.80 175.79 L 138.80 176.78 C 138.80 177.65 139.50 178.35 140.37 178.35 C 141.23 178.35 141.93 177.65 141.93 176.78 L 141.93 175.79 C 141.93 174.93 141.23 174.23 140.37 174.23 C 139.50 174.23 138.80 174.93 138.80 175.79 Z M 138.80 176.78 L 138.80 177.77 C 138.80 178.63 139.50 179.33 140.37 179.33 C 141.23 179.33 141.93 178.63 141.93 177.77 L 141.93 176.78 C 141.93 175.92 141.23 175.22 140.37 175.22 C 139.50 175.22 138.80 175.92 138.80 176.78 Z M 138.80 177.77 L 138.80 178.70 C 138.80 179.56 139.50 180.26 140.36 180.27 C 141.23 180.27 141.93 179.57 141.93 178.71 L 141.93 177.77 C 141.93 176.91 141.23 176.21 140.37 176.20 C 139.51 176.20 138.81 176.90 138.80 177.77 Z M 138.80 178.69 L 138.79 179.65 C 138.78 180.51 139.48 181.22 140.34 181.23 C 141.20 181.24 141.91 180.54 141.92 179.68 L 141.93 178.72 C 141.94 177.86 141.24 177.15 140.38 177.14 C 139.52 177.13 138.81 177.82 138.80 178.69 Z M 138.79 179.62 L 138.77 180.64 C 138.74 181.50 139.42 182.22 140.28 182.24 C 141.15 182.27 141.86 181.59 141.89 180.73 L 141.92 179.71 C 141.94 178.85 141.26 178.13 140.40 178.10 C 139.54 178.08 138.82 178.76 138.79 179.62 Z M 138.77 180.60 L 138.71 181.71 C 138.67 182.57 139.33 183.30 140.19 183.35 C 141.05 183.39 141.79 182.73 141.83 181.87 L 141.89 180.76 C 141.93 179.90 141.27 179.17 140.41 179.12 C 139.55 179.08 138.81 179.74 138.77 180.60 Z M 138.71 181.66 L 138.61 182.91 C 138.54 183.77 139.18 184.53 140.04 184.60 C 140.90 184.67 141.65 184.03 141.72 183.17 L 141.83 181.92 C 141.90 181.06 141.26 180.30 140.40 180.23 C 139.54 180.16 138.79 180.80 138.71 181.66 Z M 138.62 182.83 L 138.47 183.95 C 138.35 184.80 138.95 185.59 139.80 185.71 C 140.66 185.82 141.44 185.22 141.56 184.37 L 141.71 183.25 C 141.83 182.40 141.23 181.61 140.38 181.49 C 139.52 181.38 138.74 181.97 138.62 182.83 Z M 138.51 183.74 L 138.30 184.50 C 138.07 185.33 138.56 186.19 139.39 186.42 C 140.22 186.65 141.08 186.16 141.31 185.33 L 141.52 184.58 C 141.75 183.74 141.26 182.88 140.43 182.65 C 139.60 182.42 138.74 182.91 138.51 183.74 Z M 139.10 183.52 L 138.79 183.68 C 138.02 184.06 137.71 185.00 138.10 185.77 C 138.48 186.54 139.42 186.85 140.19 186.47 L 140.50 186.31 C 141.27 185.92 141.59 184.99 141.20 184.22 C 140.81 183.45 139.88 183.13 139.10 183.52 Z M 140.81 184.23 L 140.40 183.58 C 139.93 182.86 138.97 182.64 138.24 183.11 C 137.51 183.57 137.30 184.53 137.76 185.26 L 138.18 185.91 C 138.64 186.64 139.60 186.85 140.33 186.39 C 141.06 185.93 141.27 184.96 140.81 184.23 Z M 140.54 183.88 L 140.08 182.63 C 139.78 181.82 138.88 181.41 138.07 181.72 C 137.26 182.02 136.85 182.92 137.15 183.72 L 137.62 184.97 C 137.92 185.78 138.82 186.19 139.63 185.88 C 140.43 185.58 140.84 184.68 140.54 183.88 Z M 140.10 182.71 L 139.77 181.64 C 139.51 180.82 138.63 180.36 137.81 180.62 C 136.99 180.88 136.53 181.76 136.79 182.58 L 137.13 183.65 C 137.39 184.47 138.26 184.93 139.08 184.67 C 139.91 184.41 140.36 183.53 140.10 182.71 Z M 139.78 181.67 L 139.49 180.71 C 139.25 179.88 138.38 179.41 137.55 179.65 C 136.73 179.89 136.25 180.76 136.50 181.59 L 136.78 182.55 C 137.02 183.38 137.89 183.85 138.72 183.61 C 139.55 183.37 140.02 182.50 139.78 181.67 Z M 139.50 180.72 L 139.22 179.73 C 138.98 178.90 138.12 178.42 137.29 178.65 C 136.46 178.88 135.98 179.75 136.21 180.58 L 136.49 181.57 C 136.73 182.40 137.59 182.88 138.42 182.65 C 139.25 182.42 139.73 181.55 139.50 180.72 Z M 139.22 179.74 L 138.95 178.75 C 138.72 177.92 137.86 177.43 137.03 177.66 C 136.20 177.89 135.71 178.75 135.94 179.58 L 136.21 180.57 C 136.44 181.40 137.30 181.89 138.13 181.66 C 138.96 181.43 139.45 180.57 139.22 179.74 Z M 138.95 178.76 L 138.70 177.81 C 138.47 176.98 137.62 176.49 136.78 176.71 C 135.95 176.94 135.46 177.79 135.68 178.63 L 135.94 179.57 C 136.16 180.40 137.02 180.90 137.85 180.67 C 138.68 180.45 139.18 179.59 138.95 178.76 Z M 138.70 177.81 L 138.41 176.76 C 138.19 175.93 137.33 175.44 136.50 175.66 C 135.67 175.88 135.18 176.74 135.40 177.57 L 135.68 178.62 C 135.91 179.46 136.76 179.95 137.59 179.73 C 138.43 179.50 138.92 178.65 138.70 177.81 Z M 138.41 176.76 L 138.15 175.77 C 137.92 174.93 137.07 174.44 136.23 174.67 C 135.40 174.89 134.91 175.75 135.13 176.58 L 135.40 177.57 C 135.62 178.41 136.48 178.90 137.31 178.68 C 138.14 178.45 138.64 177.60 138.41 176.76 Z M 138.15 175.77 L 137.90 174.84 C 137.67 174.01 136.82 173.52 135.98 173.74 C 135.15 173.96 134.66 174.82 134.88 175.65 L 135.13 176.58 C 135.36 177.41 136.21 177.90 137.04 177.68 C 137.88 177.46 138.37 176.60 138.15 175.77 Z M 137.90 174.84 L 137.66 173.95 C 137.43 173.12 136.58 172.63 135.75 172.85 C 134.91 173.07 134.42 173.93 134.64 174.76 L 134.88 175.65 C 135.11 176.48 135.96 176.98 136.80 176.75 C 137.63 176.53 138.12 175.67 137.90 174.84 Z M 137.66 173.95 L 137.63 173.85 C 137.41 173.02 136.55 172.52 135.72 172.75 C 134.88 172.97 134.39 173.83 134.62 174.66 L 134.64 174.76 C 134.87 175.60 135.72 176.09 136.56 175.87 C 137.39 175.64 137.88 174.78 137.66 173.95 Z"
      fill="black"
      fill-rule="nonzero" /><path d="M 136.13 138.95 L 135.24 139.50 C 134.43 140.01 134.17 141.08 134.68 141.90 C 135.19 142.71 136.26 142.96 137.08 142.46 L 137.97 141.90 C 138.79 141.40 139.04 140.32 138.53 139.51 C 138.02 138.69 136.95 138.44 136.13 138.95 Z M 135.16 139.54 L 134.33 140.13 C 133.53 140.68 133.34 141.77 133.89 142.56 C 134.44 143.35 135.53 143.55 136.32 142.99 L 137.16 142.41 C 137.95 141.86 138.14 140.77 137.59 139.98 C 137.04 139.19 135.95 138.99 135.16 139.54 Z M 134.16 140.25 L 133.44 140.88 C 132.72 141.53 132.65 142.64 133.29 143.36 C 133.94 144.09 135.05 144.15 135.77 143.51 L 136.49 142.87 C 137.22 142.23 137.28 141.12 136.64 140.39 C 136.00 139.67 134.89 139.60 134.16 140.25 Z M 133.21 141.13 L 132.66 141.84 C 132.07 142.61 132.22 143.72 132.99 144.31 C 133.77 144.90 134.87 144.75 135.46 143.98 L 136.01 143.26 C 136.60 142.49 136.45 141.39 135.68 140.80 C 134.90 140.20 133.80 140.35 133.21 141.13 Z M 132.48 142.14 L 132.08 142.96 C 131.65 143.83 132.01 144.89 132.89 145.32 C 133.77 145.74 134.82 145.38 135.25 144.50 L 135.65 143.68 C 136.07 142.81 135.71 141.75 134.84 141.32 C 133.96 140.90 132.90 141.26 132.48 142.14 Z M 132.00 143.15 L 131.66 144.11 C 131.34 145.03 131.82 146.03 132.74 146.36 C 133.66 146.68 134.67 146.19 134.99 145.27 L 135.33 144.31 C 135.65 143.39 135.16 142.39 134.25 142.07 C 133.33 141.74 132.32 142.23 132.00 143.15 Z M 131.64 144.17 L 131.32 145.21 C 131.03 146.14 131.55 147.13 132.48 147.42 C 133.41 147.71 134.39 147.19 134.68 146.26 L 135.01 145.22 C 135.30 144.29 134.78 143.30 133.85 143.01 C 132.92 142.72 131.93 143.24 131.64 144.17 Z M 131.32 145.20 L 131.05 146.04 C 130.76 146.97 131.27 147.96 132.20 148.26 C 133.12 148.55 134.12 148.04 134.41 147.11 L 134.68 146.27 C 134.98 145.35 134.46 144.35 133.54 144.06 C 132.61 143.76 131.62 144.27 131.32 145.20 Z M 131.06 146.03 L 130.76 146.94 C 130.46 147.86 130.96 148.86 131.88 149.16 C 132.81 149.46 133.80 148.96 134.11 148.04 L 134.41 147.13 C 134.71 146.20 134.21 145.21 133.28 144.90 C 132.36 144.60 131.36 145.10 131.06 146.03 Z M 130.77 146.92 L 130.44 147.89 C 130.13 148.81 130.62 149.81 131.54 150.12 C 132.46 150.43 133.46 149.94 133.77 149.02 L 134.10 148.05 C 134.41 147.13 133.92 146.13 133.00 145.82 C 132.08 145.51 131.08 146.00 130.77 146.92 Z M 130.45 147.87 L 130.09 148.89 C 129.77 149.80 130.26 150.80 131.17 151.12 C 132.09 151.44 133.09 150.96 133.41 150.04 L 133.76 149.03 C 134.08 148.12 133.60 147.11 132.69 146.79 C 131.77 146.47 130.77 146.96 130.45 147.87 Z M 130.10 148.87 L 129.73 149.91 C 129.40 150.82 129.87 151.83 130.78 152.15 C 131.69 152.48 132.70 152.01 133.03 151.10 L 133.40 150.06 C 133.73 149.15 133.26 148.14 132.35 147.81 C 131.44 147.49 130.43 147.96 130.10 148.87 Z M 129.74 149.89 L 129.38 150.86 C 129.05 151.76 129.51 152.77 130.41 153.10 C 131.32 153.44 132.32 152.98 132.66 152.07 L 133.02 151.11 C 133.35 150.21 132.89 149.20 131.99 148.87 C 131.08 148.53 130.08 148.99 129.74 149.89 Z M 129.40 150.85 L 129.03 151.81 C 128.69 152.71 129.14 153.71 130.03 154.05 C 130.93 154.40 131.93 153.95 132.27 153.05 L 132.64 152.09 C 132.98 151.19 132.54 150.19 131.64 149.84 C 130.74 149.50 129.74 149.95 129.40 150.85 Z M 129.05 151.80 L 128.67 152.75 C 128.32 153.64 128.76 154.64 129.64 154.99 C 130.53 155.34 131.53 154.90 131.88 154.02 L 132.26 153.06 C 132.61 152.18 132.17 151.17 131.28 150.83 C 130.40 150.48 129.39 150.91 129.05 151.80 Z M 128.69 152.74 L 128.31 153.67 C 127.96 154.55 128.38 155.55 129.26 155.90 C 130.13 156.26 131.13 155.83 131.49 154.96 L 131.86 154.03 C 132.22 153.15 131.80 152.15 130.92 151.80 C 130.04 151.44 129.04 151.86 128.69 152.74 Z M 128.33 153.65 L 127.96 154.54 C 127.59 155.41 128.00 156.41 128.87 156.77 C 129.74 157.13 130.74 156.73 131.10 155.86 L 131.47 154.97 C 131.83 154.10 131.43 153.10 130.56 152.74 C 129.69 152.38 128.69 152.79 128.33 153.65 Z M 127.98 154.53 L 127.58 155.44 C 127.21 156.29 127.60 157.29 128.46 157.66 C 129.32 158.03 130.31 157.64 130.68 156.78 L 131.08 155.87 C 131.45 155.02 131.06 154.02 130.20 153.65 C 129.35 153.28 128.35 153.67 127.98 154.53 Z M 127.61 155.42 L 127.17 156.39 C 126.79 157.23 127.16 158.22 128.00 158.60 C 128.84 158.98 129.83 158.61 130.22 157.77 L 130.65 156.80 C 131.04 155.96 130.67 154.97 129.83 154.59 C 128.98 154.21 127.99 154.58 127.61 155.42 Z M 127.20 156.37 L 126.77 157.27 C 126.38 158.10 126.73 159.08 127.56 159.47 C 128.38 159.86 129.37 159.51 129.76 158.69 L 130.19 157.78 C 130.58 156.96 130.22 155.98 129.40 155.59 C 128.58 155.19 127.59 155.55 127.20 156.37 Z M 126.80 157.26 L 126.38 158.13 C 125.98 158.93 126.32 159.91 127.13 160.31 C 127.94 160.70 128.91 160.37 129.31 159.56 L 129.73 158.70 C 130.13 157.89 129.79 156.91 128.98 156.52 C 128.17 156.12 127.20 156.45 126.80 157.26 Z M 126.40 158.13 L 125.98 158.97 C 125.59 159.77 125.91 160.73 126.71 161.13 C 127.50 161.53 128.47 161.20 128.86 160.41 L 129.28 159.56 C 129.68 158.76 129.36 157.80 128.56 157.40 C 127.77 157.01 126.80 157.33 126.40 158.13 Z M 126.00 158.98 L 125.54 159.88 C 125.15 160.67 125.47 161.63 126.26 162.02 C 127.04 162.42 128.00 162.10 128.39 161.31 L 128.85 160.40 C 129.24 159.62 128.92 158.66 128.14 158.26 C 127.35 157.87 126.39 158.19 126.00 158.98 Z M 125.55 159.88 L 125.09 160.80 C 124.70 161.58 125.01 162.53 125.79 162.93 C 126.57 163.32 127.53 163.01 127.92 162.23 L 128.38 161.31 C 128.78 160.53 128.46 159.58 127.68 159.18 C 126.90 158.79 125.95 159.10 125.55 159.88 Z M 125.10 160.79 L 124.64 161.69 C 124.24 162.46 124.55 163.42 125.32 163.81 C 126.10 164.21 127.05 163.91 127.45 163.13 L 127.91 162.23 C 128.31 161.46 128.00 160.51 127.23 160.11 C 126.45 159.71 125.50 160.02 125.10 160.79 Z M 124.66 161.68 L 124.20 162.53 C 123.80 163.30 124.09 164.25 124.86 164.65 C 125.63 165.06 126.58 164.77 126.98 164.00 L 127.43 163.14 C 127.84 162.38 127.55 161.43 126.78 161.02 C 126.01 160.62 125.06 160.91 124.66 161.68 Z M 124.22 162.51 L 123.74 163.38 C 123.32 164.14 123.59 165.09 124.35 165.51 C 125.10 165.93 126.06 165.66 126.48 164.90 L 126.96 164.02 C 127.38 163.27 127.11 162.32 126.35 161.90 C 125.60 161.48 124.64 161.75 124.22 162.51 Z M 123.77 163.34 L 123.25 164.19 C 122.81 164.93 123.05 165.89 123.79 166.34 C 124.53 166.78 125.49 166.54 125.93 165.80 L 126.45 164.95 C 126.89 164.21 126.65 163.25 125.91 162.80 C 125.17 162.36 124.21 162.60 123.77 163.34 Z M 123.30 164.13 L 122.75 164.94 C 122.27 165.65 122.46 166.62 123.18 167.10 C 123.89 167.59 124.86 167.40 125.34 166.68 L 125.89 165.87 C 126.37 165.15 126.18 164.18 125.46 163.70 C 124.75 163.22 123.78 163.41 123.30 164.13 Z M 122.81 164.86 L 122.20 165.65 C 121.68 166.33 121.81 167.31 122.50 167.84 C 123.18 168.36 124.16 168.23 124.68 167.55 L 125.29 166.76 C 125.81 166.07 125.68 165.09 125.00 164.57 C 124.31 164.04 123.33 164.17 122.81 164.86 Z M 122.26 165.58 L 121.64 166.30 C 121.08 166.96 121.15 167.94 121.81 168.50 C 122.46 169.07 123.45 168.99 124.01 168.34 L 124.63 167.62 C 125.19 166.96 125.11 165.98 124.46 165.41 C 123.81 164.85 122.82 164.93 122.26 165.58 Z M 121.68 166.26 L 121.00 166.99 C 120.42 167.62 120.45 168.60 121.09 169.19 C 121.72 169.78 122.70 169.74 123.29 169.11 L 123.97 168.38 C 124.55 167.75 124.52 166.76 123.89 166.18 C 123.25 165.59 122.27 165.63 121.68 166.26 Z M 121.03 166.96 L 120.32 167.69 C 119.71 168.31 119.73 169.30 120.35 169.90 C 120.96 170.50 121.95 170.49 122.55 169.87 L 123.27 169.14 C 123.87 168.52 123.85 167.53 123.24 166.93 C 122.62 166.33 121.63 166.34 121.03 166.96 Z M 120.33 167.68 L 119.63 168.38 C 119.03 168.99 119.03 169.97 119.64 170.58 C 120.25 171.19 121.24 171.19 121.84 170.58 L 122.54 169.88 C 123.15 169.27 123.15 168.28 122.54 167.67 C 121.93 167.07 120.94 167.07 120.33 167.68 Z"
      fill="black"
      fill-rule="nonzero" /><path d="M 134.37 149.61 L 135.34 149.39 C 136.23 149.19 136.80 148.30 136.59 147.40 C 136.39 146.50 135.50 145.94 134.60 146.14 L 133.63 146.36 C 132.73 146.56 132.17 147.46 132.37 148.36 C 132.58 149.25 133.47 149.82 134.37 149.61 Z M 135.30 149.40 L 136.27 149.20 C 137.18 149.02 137.76 148.14 137.58 147.23 C 137.39 146.33 136.51 145.75 135.61 145.93 L 134.63 146.13 C 133.73 146.32 133.15 147.20 133.33 148.10 C 133.52 149.00 134.40 149.59 135.30 149.40 Z M 136.20 149.21 L 137.20 149.06 C 138.11 148.91 138.72 148.06 138.58 147.15 C 138.43 146.24 137.58 145.62 136.67 145.76 L 135.68 145.92 C 134.77 146.07 134.15 146.92 134.29 147.83 C 134.44 148.74 135.29 149.36 136.20 149.21 Z M 137.09 149.07 L 138.09 148.97 C 139.00 148.88 139.67 148.07 139.58 147.15 C 139.50 146.24 138.68 145.57 137.76 145.65 L 136.77 145.75 C 135.86 145.84 135.19 146.65 135.27 147.57 C 135.36 148.49 136.18 149.16 137.09 149.07 Z M 137.97 148.98 L 138.95 148.95 C 139.87 148.93 140.60 148.16 140.57 147.24 C 140.55 146.32 139.78 145.60 138.86 145.62 L 137.88 145.65 C 136.96 145.67 136.24 146.44 136.26 147.36 C 136.29 148.28 137.05 149.00 137.97 148.98 Z M 138.84 148.95 L 139.84 148.99 C 140.76 149.03 141.53 148.31 141.57 147.40 C 141.61 146.48 140.90 145.70 139.98 145.67 L 138.98 145.63 C 138.06 145.59 137.29 146.30 137.25 147.22 C 137.21 148.14 137.92 148.91 138.84 148.95 Z M 139.73 148.98 L 140.74 149.09 C 141.65 149.19 142.47 148.53 142.57 147.62 C 142.67 146.71 142.01 145.89 141.10 145.79 L 140.09 145.68 C 139.18 145.58 138.36 146.23 138.26 147.15 C 138.16 148.06 138.82 148.88 139.73 148.98 Z M 140.63 149.07 L 141.60 149.25 C 142.51 149.41 143.37 148.81 143.53 147.91 C 143.69 147.01 143.09 146.15 142.19 145.98 L 141.21 145.81 C 140.31 145.65 139.45 146.25 139.29 147.15 C 139.13 148.05 139.73 148.91 140.63 149.07 Z M 141.52 149.22 L 142.47 149.45 C 143.36 149.66 144.25 149.11 144.46 148.23 C 144.68 147.34 144.13 146.45 143.24 146.24 L 142.28 146.01 C 141.39 145.80 140.50 146.35 140.29 147.23 C 140.08 148.12 140.63 149.01 141.52 149.22 Z M 142.42 149.43 L 143.38 149.70 C 144.26 149.94 145.17 149.43 145.41 148.55 C 145.65 147.67 145.14 146.76 144.26 146.52 L 143.30 146.25 C 142.42 146.01 141.51 146.53 141.27 147.40 C 141.02 148.28 141.54 149.19 142.42 149.43 Z M 143.35 149.69 L 144.33 149.98 C 145.20 150.23 146.11 149.74 146.37 148.87 C 146.63 148.00 146.13 147.08 145.26 146.82 L 144.29 146.53 C 143.42 146.28 142.50 146.77 142.25 147.64 C 141.99 148.51 142.48 149.43 143.35 149.69 Z M 144.33 149.97 L 145.29 150.26 C 146.16 150.52 147.07 150.02 147.33 149.16 C 147.59 148.29 147.10 147.38 146.23 147.12 L 145.27 146.83 C 144.40 146.57 143.49 147.07 143.23 147.93 C 142.97 148.80 143.46 149.71 144.33 149.97 Z M 145.30 150.25 L 146.26 150.53 C 147.12 150.78 148.03 150.29 148.28 149.43 C 148.53 148.57 148.04 147.66 147.18 147.41 L 146.22 147.13 C 145.36 146.88 144.46 147.37 144.20 148.23 C 143.95 149.09 144.44 149.99 145.30 150.25 Z M 146.28 150.52 L 147.24 150.79 C 148.10 151.04 148.99 150.54 149.23 149.69 C 149.48 148.83 148.98 147.94 148.13 147.70 L 147.16 147.42 C 146.31 147.18 145.42 147.67 145.17 148.53 C 144.93 149.38 145.42 150.27 146.28 150.52 Z M 147.26 150.78 L 148.23 151.05 C 149.08 151.29 149.96 150.79 150.19 149.94 C 150.43 149.09 149.93 148.21 149.08 147.97 L 148.11 147.71 C 147.26 147.47 146.38 147.97 146.15 148.82 C 145.91 149.67 146.41 150.55 147.26 150.78 Z M 148.25 151.04 L 149.24 151.30 C 150.08 151.53 150.95 151.02 151.17 150.18 C 151.40 149.33 150.89 148.46 150.04 148.24 L 149.06 147.98 C 148.21 147.76 147.34 148.26 147.12 149.11 C 146.90 149.95 147.40 150.82 148.25 151.04 Z M 149.26 151.30 L 150.27 151.56 C 151.11 151.77 151.97 151.26 152.18 150.41 C 152.39 149.57 151.88 148.71 151.04 148.50 L 150.03 148.24 C 149.18 148.03 148.32 148.54 148.11 149.39 C 147.90 150.23 148.41 151.09 149.26 151.30 Z M 150.28 151.55 L 151.26 151.79 C 152.10 152.00 152.95 151.49 153.16 150.64 C 153.37 149.80 152.85 148.95 152.01 148.74 L 151.03 148.50 C 150.18 148.30 149.33 148.81 149.13 149.65 C 148.92 150.50 149.44 151.35 150.28 151.55 Z M 151.26 151.79 L 152.20 152.02 C 153.04 152.22 153.89 151.71 154.09 150.87 C 154.30 150.03 153.78 149.18 152.94 148.98 L 152.01 148.75 C 151.17 148.54 150.32 149.06 150.11 149.90 C 149.91 150.74 150.42 151.58 151.26 151.79 Z M 152.19 152.01 L 153.16 152.26 C 154.00 152.46 154.85 151.96 155.05 151.12 C 155.26 150.28 154.76 149.43 153.92 149.22 L 152.95 148.98 C 152.11 148.77 151.27 149.28 151.06 150.12 C 150.85 150.96 151.36 151.80 152.19 152.01 Z M 153.15 152.25 L 154.14 152.51 C 154.97 152.73 155.83 152.23 156.04 151.39 C 156.26 150.56 155.76 149.71 154.93 149.49 L 153.93 149.23 C 153.10 149.01 152.25 149.51 152.03 150.35 C 151.81 151.18 152.31 152.03 153.15 152.25 Z M 154.13 152.51 L 155.07 152.76 C 155.90 152.98 156.75 152.49 156.98 151.66 C 157.20 150.82 156.71 149.97 155.88 149.74 L 154.94 149.49 C 154.11 149.27 153.25 149.76 153.03 150.59 C 152.80 151.43 153.30 152.28 154.13 152.51 Z M 155.06 152.76 L 155.74 152.94 C 156.57 153.17 157.43 152.68 157.65 151.85 C 157.88 151.01 157.39 150.16 156.56 149.93 L 155.88 149.74 C 155.05 149.52 154.19 150.01 153.97 150.84 C 153.74 151.67 154.23 152.53 155.06 152.76 Z"
      fill="black"
      fill-rule="nonzero" /><path d="M 158.29 121.72 L 157.93 122.59 C 157.56 123.45 157.97 124.45 158.83 124.82 C 159.70 125.18 160.70 124.78 161.06 123.91 L 161.43 123.05 C 161.80 122.18 161.39 121.18 160.52 120.81 C 159.66 120.45 158.66 120.85 158.29 121.72 Z M 157.88 122.62 L 157.53 123.53 C 157.18 124.42 157.62 125.43 158.51 125.77 C 159.40 126.12 160.40 125.68 160.75 124.79 L 161.11 123.88 C 161.45 122.99 161.01 121.99 160.12 121.64 C 159.23 121.29 158.23 121.73 157.88 122.62 Z M 157.47 123.61 L 157.14 124.61 C 156.83 125.53 157.33 126.52 158.25 126.83 C 159.17 127.13 160.17 126.63 160.48 125.71 L 160.81 124.72 C 161.11 123.80 160.61 122.80 159.69 122.49 C 158.77 122.19 157.78 122.69 157.47 123.61 Z M 157.09 124.70 L 156.84 125.65 C 156.58 126.60 157.14 127.57 158.09 127.83 C 159.03 128.08 160.01 127.52 160.26 126.58 L 160.52 125.62 C 160.78 124.68 160.22 123.70 159.27 123.45 C 158.32 123.19 157.35 123.75 157.09 124.70 Z M 156.81 125.73 L 156.59 126.70 C 156.38 127.67 156.99 128.62 157.95 128.83 C 158.91 129.04 159.86 128.43 160.08 127.47 L 160.29 126.50 C 160.50 125.54 159.90 124.59 158.93 124.37 C 157.97 124.16 157.02 124.77 156.81 125.73 Z M 156.58 126.77 L 156.40 127.78 C 156.22 128.75 156.86 129.68 157.83 129.85 C 158.81 130.03 159.74 129.39 159.91 128.41 L 160.09 127.41 C 160.27 126.44 159.62 125.51 158.65 125.33 C 157.68 125.15 156.75 125.80 156.58 126.77 Z M 156.38 127.84 L 156.24 128.85 C 156.09 129.83 156.77 130.73 157.75 130.87 C 158.73 131.02 159.64 130.34 159.78 129.36 L 159.93 128.35 C 160.07 127.37 159.39 126.47 158.41 126.32 C 157.43 126.18 156.52 126.86 156.38 127.84 Z M 156.22 128.91 L 156.12 129.83 C 156.02 130.81 156.73 131.70 157.71 131.81 C 158.70 131.91 159.58 131.20 159.69 130.22 L 159.79 129.30 C 159.90 128.31 159.19 127.43 158.20 127.32 C 157.22 127.21 156.33 127.92 156.22 128.91 Z M 156.12 129.89 L 156.05 130.80 C 155.98 131.79 156.72 132.65 157.71 132.72 C 158.70 132.80 159.56 132.05 159.63 131.07 L 159.70 130.15 C 159.77 129.17 159.03 128.30 158.04 128.23 C 157.05 128.16 156.19 128.90 156.12 129.89 Z M 156.05 130.85 L 156.00 131.82 C 155.96 132.82 156.73 133.66 157.72 133.70 C 158.71 133.74 159.55 132.98 159.59 131.99 L 159.64 131.01 C 159.68 130.02 158.91 129.18 157.92 129.14 C 156.93 129.09 156.09 129.86 156.05 130.85 Z M 156.00 131.86 L 155.97 132.95 C 155.95 133.94 156.73 134.76 157.73 134.79 C 158.72 134.81 159.54 134.03 159.57 133.03 L 159.59 131.95 C 159.62 130.96 158.83 130.13 157.84 130.11 C 156.85 130.08 156.02 130.87 156.00 131.86 Z M 155.97 132.97 L 155.96 134.00 C 155.95 134.99 156.74 135.81 157.73 135.82 C 158.73 135.84 159.54 135.04 159.56 134.05 L 159.57 133.01 C 159.58 132.02 158.79 131.20 157.79 131.19 C 156.80 131.18 155.99 131.97 155.97 132.97 Z M 155.96 134.01 L 155.95 134.93 C 155.94 135.93 156.74 136.74 157.74 136.75 C 158.73 136.75 159.54 135.96 159.55 134.96 L 159.56 134.04 C 159.56 133.05 158.77 132.23 157.77 132.23 C 156.78 132.22 155.97 133.02 155.96 134.01 Z M 155.95 134.94 L 155.95 135.92 C 155.94 136.91 156.74 137.72 157.74 137.73 C 158.73 137.73 159.54 136.93 159.54 135.94 L 159.55 134.96 C 159.55 133.96 158.75 133.15 157.76 133.15 C 156.77 133.14 155.96 133.94 155.95 134.94 Z M 155.95 135.92 L 155.94 136.95 C 155.94 137.94 156.74 138.75 157.74 138.75 C 158.73 138.76 159.54 137.95 159.54 136.96 L 159.54 135.93 C 159.55 134.94 158.74 134.13 157.75 134.13 C 156.76 134.13 155.95 134.93 155.95 135.92 Z M 155.94 136.95 L 155.94 138.00 C 155.94 138.99 156.74 139.80 157.74 139.80 C 158.73 139.80 159.54 139.00 159.54 138.01 L 159.54 136.96 C 159.54 135.96 158.74 135.16 157.74 135.16 C 156.75 135.15 155.94 135.96 155.94 136.95 Z M 155.94 138.00 L 155.94 139.06 C 155.94 140.05 156.75 140.86 157.74 140.86 C 158.73 140.86 159.54 140.05 159.54 139.06 L 159.54 138.00 C 159.54 137.01 158.74 136.20 157.74 136.20 C 156.75 136.20 155.94 137.01 155.94 138.00 Z M 155.94 139.06 L 155.94 140.11 C 155.94 141.11 156.75 141.91 157.74 141.91 C 158.73 141.91 159.54 141.11 159.54 140.11 L 159.54 139.06 C 159.54 138.06 158.73 137.26 157.74 137.26 C 156.75 137.26 155.94 138.06 155.94 139.06 Z M 155.94 140.11 L 155.94 141.24 C 155.94 142.23 156.75 143.04 157.74 143.04 C 158.73 143.04 159.54 142.23 159.54 141.24 L 159.54 140.11 C 159.54 139.12 158.73 138.31 157.74 138.31 C 156.75 138.31 155.94 139.12 155.94 140.11 Z M 155.94 141.24 L 155.94 142.32 C 155.94 143.31 156.75 144.12 157.74 144.12 C 158.73 144.12 159.54 143.31 159.54 142.32 L 159.54 141.24 C 159.54 140.24 158.73 139.44 157.74 139.44 C 156.75 139.44 155.94 140.24 155.94 141.24 Z M 155.94 142.32 L 155.94 143.34 C 155.94 144.34 156.75 145.14 157.74 145.14 C 158.73 145.14 159.54 144.34 159.54 143.34 L 159.54 142.32 C 159.54 141.32 158.73 140.52 157.74 140.52 C 156.75 140.52 155.94 141.32 155.94 142.32 Z M 155.94 143.34 L 155.94 144.30 C 155.94 145.30 156.75 146.10 157.74 146.10 C 158.73 146.10 159.54 145.30 159.54 144.30 L 159.54 143.34 C 159.54 142.35 158.73 141.54 157.74 141.54 C 156.75 141.54 155.94 142.35 155.94 143.34 Z M 155.94 144.30 L 155.94 145.19 C 155.94 146.19 156.75 146.99 157.74 146.99 C 158.73 146.99 159.54 146.19 159.54 145.19 L 159.54 144.30 C 159.54 143.31 158.73 142.50 157.74 142.50 C 156.75 142.50 155.94 143.31 155.94 144.30 Z M 155.94 145.19 L 155.94 146.18 C 155.94 147.18 156.75 147.98 157.74 147.98 C 158.73 147.98 159.54 147.18 159.54 146.18 L 159.54 145.19 C 159.54 144.20 158.73 143.39 157.74 143.39 C 156.75 143.39 155.94 144.20 155.94 145.19 Z M 155.94 146.19 L 155.94 147.27 C 155.94 148.27 156.75 149.07 157.75 149.07 C 158.74 149.07 159.55 148.26 159.54 147.27 L 159.54 146.18 C 159.54 145.18 158.73 144.38 157.74 144.38 C 156.74 144.38 155.94 145.19 155.94 146.19 Z M 155.94 147.29 L 155.95 148.25 C 155.96 149.24 156.78 150.04 157.77 150.03 C 158.77 150.02 159.57 149.21 159.56 148.21 L 159.54 147.25 C 159.53 146.26 158.72 145.46 157.72 145.47 C 156.73 145.48 155.93 146.29 155.94 147.29 Z M 155.95 148.28 L 155.97 149.17 C 156.00 150.16 156.83 150.95 157.82 150.92 C 158.82 150.90 159.61 150.07 159.58 149.07 L 159.56 148.18 C 159.53 147.19 158.70 146.40 157.71 146.43 C 156.71 146.45 155.92 147.28 155.95 148.28 Z M 155.97 149.21 L 156.02 150.18 C 156.07 151.17 156.92 151.94 157.91 151.89 C 158.91 151.84 159.68 151.00 159.63 150.00 L 159.58 149.03 C 159.53 148.04 158.68 147.27 157.69 147.32 C 156.69 147.37 155.93 148.21 155.97 149.21 Z M 156.02 150.22 L 156.09 151.22 C 156.17 152.21 157.03 152.96 158.02 152.89 C 159.02 152.82 159.77 151.95 159.70 150.96 L 159.63 149.96 C 159.55 148.97 158.69 148.22 157.70 148.29 C 156.70 148.36 155.95 149.22 156.02 150.22 Z M 156.10 151.25 L 156.19 152.25 C 156.28 153.24 157.15 153.97 158.15 153.88 C 159.14 153.79 159.87 152.91 159.79 151.92 L 159.69 150.92 C 159.61 149.93 158.73 149.20 157.73 149.29 C 156.74 149.38 156.01 150.25 156.10 151.25 Z M 156.19 152.27 L 156.29 153.26 C 156.40 154.26 157.29 154.98 158.28 154.87 C 159.27 154.77 159.99 153.88 159.89 152.88 L 159.78 151.89 C 159.68 150.90 158.79 150.18 157.80 150.29 C 156.80 150.39 156.08 151.28 156.19 152.27 Z M 156.29 153.29 L 156.41 154.27 C 156.53 155.26 157.43 155.97 158.42 155.86 C 159.41 155.74 160.12 154.84 160.00 153.85 L 159.89 152.86 C 159.77 151.87 158.87 151.16 157.88 151.28 C 156.89 151.39 156.18 152.29 156.29 153.29 Z M 156.41 154.29 L 156.54 155.29 C 156.67 156.28 157.58 156.98 158.57 156.85 C 159.56 156.72 160.26 155.81 160.13 154.82 L 160.00 153.83 C 159.87 152.84 158.96 152.14 157.97 152.27 C 156.98 152.40 156.28 153.30 156.41 154.29 Z M 156.54 155.31 L 156.68 156.30 C 156.82 157.28 157.74 157.97 158.73 157.83 C 159.72 157.69 160.40 156.78 160.26 155.79 L 160.13 154.80 C 159.99 153.81 159.07 153.13 158.08 153.27 C 157.09 153.41 156.41 154.32 156.54 155.31 Z M 156.69 156.31 L 156.83 157.28 C 156.98 158.27 157.90 158.95 158.89 158.80 C 159.87 158.65 160.56 157.73 160.41 156.74 L 160.26 155.77 C 160.11 154.79 159.19 154.11 158.21 154.25 C 157.22 154.40 156.54 155.32 156.69 156.31 Z M 156.83 157.29 L 156.98 158.28 C 157.14 159.26 158.06 159.94 159.05 159.79 C 160.03 159.64 160.71 158.71 160.56 157.73 L 160.41 156.74 C 160.25 155.75 159.33 155.07 158.34 155.22 C 157.36 155.38 156.68 156.30 156.83 157.29 Z M 156.98 158.27 L 157.14 159.29 C 157.29 160.28 158.21 160.96 159.20 160.80 C 160.19 160.65 160.86 159.73 160.71 158.74 L 160.56 157.73 C 160.41 156.74 159.49 156.06 158.50 156.21 C 157.51 156.36 156.83 157.29 156.98 158.27 Z M 157.14 159.29 L 157.27 160.18 C 157.42 161.16 158.34 161.84 159.33 161.69 C 160.32 161.55 161.00 160.63 160.85 159.64 L 160.71 158.75 C 160.57 157.76 159.65 157.08 158.66 157.23 C 157.67 157.38 156.99 158.30 157.14 159.29 Z M 157.27 160.18 L 157.42 161.11 C 157.57 162.10 158.49 162.78 159.47 162.63 C 160.46 162.47 161.14 161.55 160.99 160.57 L 160.85 159.63 C 160.70 158.65 159.77 157.97 158.79 158.12 C 157.80 158.27 157.12 159.19 157.27 160.18 Z M 157.42 161.12 L 157.58 162.13 C 157.74 163.12 158.66 163.79 159.65 163.63 C 160.63 163.47 161.31 162.54 161.15 161.56 L 160.99 160.55 C 160.83 159.57 159.90 158.90 158.92 159.05 C 157.93 159.21 157.26 160.14 157.42 161.12 Z M 157.58 162.15 L 157.77 163.26 C 157.94 164.24 158.88 164.90 159.86 164.73 C 160.84 164.56 161.50 163.63 161.33 162.64 L 161.14 161.54 C 160.97 160.55 160.04 159.89 159.06 160.06 C 158.07 160.23 157.41 161.17 157.58 162.15 Z M 157.78 163.28 L 157.94 164.16 C 158.12 165.14 159.06 165.79 160.04 165.61 C 161.03 165.43 161.67 164.49 161.49 163.51 L 161.33 162.62 C 161.15 161.64 160.21 160.99 159.23 161.17 C 158.24 161.36 157.60 162.30 157.78 163.28 Z M 157.94 164.18 L 158.12 165.09 C 158.32 166.07 159.27 166.70 160.24 166.51 C 161.22 166.32 161.86 165.37 161.67 164.39 L 161.49 163.48 C 161.30 162.51 160.35 161.87 159.37 162.06 C 158.39 162.25 157.75 163.20 157.94 164.18 Z M 158.13 165.11 L 158.33 166.07 C 158.54 167.05 159.49 167.67 160.47 167.47 C 161.45 167.26 162.07 166.30 161.86 165.33 L 161.66 164.37 C 161.46 163.39 160.50 162.77 159.52 162.97 C 158.55 163.18 157.92 164.14 158.13 165.11 Z M 158.34 166.10 L 158.56 167.10 C 158.78 168.08 159.75 168.69 160.72 168.47 C 161.70 168.25 162.31 167.28 162.09 166.31 L 161.86 165.30 C 161.64 164.33 160.67 163.72 159.70 163.94 C 158.73 164.16 158.12 165.12 158.34 166.10 Z M 158.57 167.13 L 158.83 168.18 C 159.06 169.15 160.04 169.74 161.01 169.51 C 161.98 169.27 162.57 168.29 162.33 167.33 L 162.08 166.28 C 161.84 165.31 160.87 164.71 159.90 164.95 C 158.93 165.19 158.33 166.16 158.57 167.13 Z M 158.83 168.21 L 159.12 169.29 C 159.37 170.25 160.36 170.83 161.32 170.57 C 162.29 170.32 162.86 169.33 162.61 168.37 L 162.33 167.29 C 162.07 166.33 161.09 165.75 160.12 166.01 C 159.16 166.26 158.58 167.25 158.83 168.21 Z M 159.12 169.32 L 159.41 170.33 C 159.68 171.29 160.68 171.84 161.64 171.57 C 162.60 171.30 163.15 170.31 162.88 169.35 L 162.60 168.34 C 162.33 167.38 161.33 166.82 160.37 167.09 C 159.41 167.36 158.85 168.36 159.12 169.32 Z M 159.42 170.35 L 159.72 171.37 C 160.01 172.32 161.01 172.87 161.97 172.58 C 162.92 172.29 163.46 171.29 163.18 170.33 L 162.88 169.32 C 162.59 168.36 161.58 167.82 160.63 168.11 C 159.67 168.39 159.13 169.40 159.42 170.35 Z M 159.73 171.40 L 160.05 172.40 C 160.35 173.35 161.36 173.87 162.31 173.57 C 163.26 173.27 163.79 172.25 163.49 171.30 L 163.17 170.31 C 162.87 169.36 161.85 168.83 160.91 169.13 C 159.96 169.43 159.43 170.45 159.73 171.40 Z M 160.06 172.42 L 160.38 173.39 C 160.70 174.33 161.72 174.84 162.67 174.52 C 163.61 174.21 164.12 173.19 163.80 172.24 L 163.48 171.28 C 163.16 170.33 162.14 169.82 161.19 170.14 C 160.25 170.46 159.74 171.48 160.06 172.42 Z M 160.39 173.42 L 160.72 174.33 C 161.05 175.27 162.08 175.76 163.02 175.42 C 163.96 175.09 164.45 174.06 164.11 173.12 L 163.79 172.21 C 163.45 171.27 162.42 170.78 161.49 171.12 C 160.55 171.45 160.06 172.48 160.39 173.42 Z M 160.73 174.37 L 161.05 175.21 C 161.41 176.14 162.45 176.60 163.38 176.25 C 164.31 175.89 164.77 174.85 164.42 173.92 L 164.10 173.09 C 163.75 172.16 162.70 171.69 161.77 172.04 C 160.84 172.40 160.38 173.44 160.73 174.37 Z M 161.08 175.27 L 161.53 176.33 C 161.92 177.25 162.97 177.67 163.89 177.29 C 164.80 176.90 165.23 175.84 164.84 174.93 L 164.39 173.86 C 164.01 172.95 162.95 172.52 162.04 172.91 C 161.12 173.30 160.69 174.35 161.08 175.27 Z M 161.60 176.45 L 162.10 177.42 C 162.55 178.30 163.63 178.64 164.51 178.19 C 165.39 177.73 165.73 176.65 165.28 175.78 L 164.78 174.81 C 164.32 173.93 163.24 173.59 162.37 174.04 C 161.49 174.49 161.14 175.57 161.60 176.45 Z M 162.23 177.62 L 162.75 178.37 C 163.32 179.18 164.43 179.37 165.23 178.81 C 166.04 178.25 166.24 177.13 165.67 176.33 L 165.15 175.58 C 164.58 174.77 163.47 174.57 162.66 175.14 C 161.86 175.70 161.66 176.81 162.23 177.62 Z M 162.98 178.63 L 163.58 179.20 C 164.28 179.87 165.40 179.85 166.08 179.15 C 166.76 178.44 166.74 177.32 166.03 176.64 L 165.44 176.07 C 164.74 175.39 163.61 175.42 162.94 176.12 C 162.26 176.83 162.28 177.95 162.98 178.63 Z M 163.94 179.45 L 164.75 179.91 C 165.60 180.39 166.67 180.09 167.15 179.25 C 167.63 178.40 167.33 177.32 166.49 176.85 L 165.67 176.38 C 164.83 175.91 163.75 176.20 163.27 177.05 C 162.79 177.90 163.09 178.97 163.94 179.45 Z M 165.24 180.09 L 166.19 180.30 C 167.13 180.51 168.06 179.91 168.27 178.97 C 168.48 178.02 167.89 177.09 166.94 176.88 L 166.00 176.67 C 165.05 176.46 164.12 177.06 163.91 178.00 C 163.70 178.94 164.30 179.88 165.24 180.09 Z M 166.75 180.31 L 167.77 180.20 C 168.72 180.10 169.41 179.24 169.30 178.28 C 169.20 177.33 168.34 176.64 167.38 176.75 L 166.37 176.86 C 165.42 176.97 164.73 177.83 164.84 178.78 C 164.94 179.73 165.80 180.42 166.75 180.31 Z M 168.26 180.06 L 169.09 179.70 C 169.96 179.32 170.36 178.30 169.98 177.43 C 169.60 176.56 168.59 176.16 167.72 176.54 L 166.89 176.90 C 166.02 177.28 165.62 178.29 166.00 179.16 C 166.37 180.03 167.39 180.43 168.26 180.06 Z M 169.39 179.51 L 170.10 179.01 C 170.86 178.46 171.05 177.40 170.50 176.63 C 169.96 175.86 168.90 175.68 168.13 176.22 L 167.42 176.73 C 166.65 177.27 166.47 178.33 167.01 179.10 C 167.56 179.87 168.62 180.05 169.39 179.51 Z M 170.27 178.84 L 170.98 178.18 C 171.65 177.54 171.69 176.47 171.05 175.79 C 170.41 175.12 169.35 175.08 168.67 175.72 L 167.96 176.39 C 167.28 177.02 167.25 178.09 167.88 178.77 C 168.52 179.45 169.59 179.48 170.27 178.84 Z M 171.08 178.04 L 171.79 177.22 C 172.39 176.53 172.32 175.47 171.62 174.87 C 170.93 174.27 169.88 174.34 169.27 175.04 L 168.56 175.86 C 167.96 176.55 168.04 177.60 168.73 178.21 C 169.42 178.81 170.48 178.73 171.08 178.04 Z M 171.85 177.11 L 172.56 176.16 C 173.11 175.43 172.95 174.40 172.22 173.85 C 171.49 173.31 170.46 173.46 169.92 174.19 L 169.21 175.15 C 168.67 175.88 168.82 176.91 169.55 177.45 C 170.28 177.99 171.31 177.84 171.85 177.11 Z M 172.60 176.08 L 173.13 175.28 C 173.63 174.53 173.43 173.52 172.68 173.02 C 171.93 172.52 170.92 172.72 170.42 173.47 L 169.88 174.27 C 169.38 175.02 169.58 176.03 170.33 176.53 C 171.08 177.03 172.10 176.83 172.60 176.08 Z M 173.15 175.23 L 173.68 174.39 C 174.15 173.63 173.91 172.63 173.15 172.15 C 172.39 171.68 171.39 171.92 170.92 172.68 L 170.40 173.52 C 169.92 174.28 170.16 175.28 170.92 175.76 C 171.68 176.23 172.68 175.99 173.15 175.23 Z M 173.69 174.34 L 174.20 173.46 C 174.65 172.69 174.39 171.71 173.62 171.26 C 172.85 170.81 171.86 171.07 171.41 171.84 L 170.90 172.72 C 170.45 173.49 170.72 174.48 171.49 174.93 C 172.26 175.38 173.25 175.11 173.69 174.34 Z M 174.22 173.42 L 174.71 172.52 C 175.13 171.75 174.85 170.77 174.07 170.35 C 173.29 169.92 172.32 170.21 171.89 170.98 L 171.40 171.88 C 170.97 172.66 171.26 173.64 172.04 174.06 C 172.81 174.49 173.79 174.20 174.22 173.42 Z M 174.72 172.49 L 175.19 171.58 C 175.59 170.80 175.29 169.84 174.50 169.43 C 173.72 169.02 172.76 169.33 172.35 170.11 L 171.88 171.02 C 171.48 171.80 171.78 172.76 172.57 173.17 C 173.35 173.57 174.31 173.27 174.72 172.49 Z M 175.19 171.55 L 175.63 170.65 C 176.02 169.86 175.70 168.91 174.91 168.53 C 174.12 168.14 173.17 168.46 172.79 169.25 L 172.35 170.15 C 171.96 170.93 172.28 171.88 173.07 172.27 C 173.86 172.66 174.81 172.33 175.19 171.55 Z M 175.64 170.61 L 176.09 169.64 C 176.46 168.85 176.11 167.91 175.32 167.55 C 174.53 167.18 173.59 167.52 173.23 168.31 L 172.78 169.29 C 172.41 170.08 172.76 171.02 173.55 171.38 C 174.34 171.75 175.28 171.40 175.64 170.61 Z M 176.11 169.60 L 176.53 168.62 C 176.87 167.82 176.50 166.90 175.71 166.55 C 174.91 166.21 173.98 166.58 173.64 167.38 L 173.21 168.36 C 172.87 169.15 173.24 170.08 174.04 170.42 C 174.84 170.77 175.76 170.40 176.11 169.60 Z M 176.54 168.58 L 176.92 167.63 C 177.24 166.82 176.84 165.91 176.03 165.59 C 175.22 165.27 174.31 165.67 173.99 166.48 L 173.62 167.42 C 173.30 168.23 173.70 169.14 174.51 169.46 C 175.31 169.78 176.23 169.38 176.54 168.58 Z M 176.93 167.58 L 177.26 166.66 C 177.55 165.85 177.12 164.95 176.30 164.66 C 175.49 164.37 174.59 164.80 174.30 165.61 L 173.98 166.53 C 173.69 167.35 174.11 168.24 174.93 168.53 C 175.75 168.82 176.64 168.39 176.93 167.58 Z M 177.27 166.60 L 177.55 165.71 C 177.81 164.89 177.35 164.01 176.52 163.75 C 175.70 163.50 174.82 163.96 174.56 164.78 L 174.29 165.67 C 174.03 166.50 174.49 167.37 175.31 167.63 C 176.14 167.89 177.02 167.43 177.27 166.60 Z M 177.57 165.65 L 177.81 164.73 C 178.03 163.89 177.53 163.04 176.70 162.82 C 175.86 162.60 175.01 163.10 174.79 163.93 L 174.55 164.85 C 174.33 165.68 174.82 166.54 175.66 166.76 C 176.49 166.98 177.35 166.48 177.57 165.65 Z M 177.83 164.66 L 178.04 163.65 C 178.22 162.81 177.69 161.98 176.84 161.80 C 176.00 161.62 175.17 162.15 174.99 163.00 L 174.77 164.00 C 174.59 164.84 175.13 165.67 175.97 165.85 C 176.82 166.04 177.65 165.50 177.83 164.66 Z M 178.05 163.59 L 178.22 162.60 C 178.37 161.75 177.80 160.94 176.95 160.80 C 176.10 160.65 175.29 161.22 175.15 162.07 L 174.98 163.06 C 174.83 163.91 175.40 164.72 176.25 164.86 C 177.10 165.01 177.91 164.44 178.05 163.59 Z M 178.23 162.56 L 178.37 161.58 C 178.49 160.73 177.90 159.94 177.04 159.82 C 176.19 159.70 175.40 160.29 175.28 161.14 L 175.14 162.12 C 175.02 162.97 175.61 163.76 176.47 163.88 C 177.32 164.00 178.11 163.41 178.23 162.56 Z M 178.37 161.56 L 178.49 160.59 C 178.60 159.73 177.99 158.95 177.14 158.85 C 176.28 158.74 175.50 159.35 175.40 160.20 L 175.28 161.17 C 175.17 162.02 175.77 162.80 176.63 162.91 C 177.49 163.02 178.27 162.41 178.37 161.56 Z M 178.49 160.58 L 178.52 160.38 C 178.62 159.52 178.01 158.75 177.16 158.64 C 176.30 158.54 175.52 159.15 175.42 160.00 L 175.40 160.21 C 175.29 161.06 175.90 161.84 176.76 161.94 C 177.61 162.05 178.39 161.44 178.49 160.58 Z"
      fill="black"
      fill-rule="nonzero" /><path d="M 160.07 145.52 L 159.07 146.39 C 158.37 147.01 158.29 148.08 158.91 148.78 C 159.53 149.49 160.60 149.56 161.30 148.94 L 162.30 148.07 C 163.01 147.45 163.08 146.38 162.46 145.68 C 161.85 144.97 160.78 144.90 160.07 145.52 Z M 158.83 146.63 L 158.37 147.24 C 157.80 147.98 157.94 149.05 158.69 149.62 C 159.44 150.20 160.50 150.05 161.08 149.31 L 161.54 148.70 C 162.11 147.95 161.97 146.89 161.22 146.31 C 160.47 145.74 159.41 145.89 158.83 146.63 Z M 159.13 149.87 L 159.46 149.99 C 160.34 150.32 161.32 149.87 161.65 148.98 C 161.97 148.10 161.52 147.12 160.64 146.79 L 160.32 146.67 C 159.43 146.35 158.45 146.80 158.13 147.68 C 157.80 148.56 158.25 149.54 159.13 149.87 Z M 160.36 150.06 L 161.14 149.91 C 162.06 149.74 162.67 148.85 162.49 147.93 C 162.32 147.01 161.43 146.41 160.51 146.58 L 159.73 146.73 C 158.82 146.90 158.21 147.79 158.38 148.71 C 158.56 149.63 159.44 150.23 160.36 150.06 Z M 161.29 149.86 L 162.44 149.53 C 163.33 149.27 163.84 148.34 163.59 147.45 C 163.33 146.56 162.40 146.04 161.51 146.30 L 160.36 146.63 C 159.47 146.89 158.95 147.82 159.21 148.71 C 159.47 149.60 160.40 150.12 161.29 149.86 Z M 162.49 149.50 L 163.82 149.07 C 164.69 148.78 165.17 147.84 164.88 146.96 C 164.60 146.09 163.65 145.61 162.78 145.90 L 161.45 146.33 C 160.58 146.62 160.10 147.56 160.39 148.44 C 160.67 149.31 161.62 149.79 162.49 149.50 Z M 163.84 149.04 L 164.74 148.73 C 165.60 148.44 166.06 147.50 165.77 146.63 C 165.47 145.77 164.53 145.31 163.66 145.61 L 162.76 145.92 C 161.90 146.21 161.44 147.16 161.73 148.02 C 162.03 148.88 162.97 149.34 163.84 149.04 Z M 164.74 148.71 L 165.69 148.38 C 166.54 148.08 166.99 147.15 166.69 146.30 C 166.39 145.44 165.46 144.99 164.61 145.29 L 163.66 145.63 C 162.81 145.92 162.36 146.86 162.66 147.71 C 162.96 148.56 163.89 149.01 164.74 148.71 Z M 165.69 148.36 L 166.66 148.02 C 167.50 147.72 167.94 146.80 167.65 145.96 C 167.35 145.11 166.42 144.67 165.58 144.97 L 164.61 145.31 C 163.77 145.61 163.32 146.53 163.62 147.38 C 163.92 148.22 164.85 148.66 165.69 148.36 Z M 166.65 148.01 L 167.62 147.66 C 168.46 147.37 168.90 146.45 168.60 145.62 C 168.31 144.78 167.39 144.35 166.56 144.64 L 165.58 144.98 C 164.75 145.28 164.31 146.19 164.61 147.03 C 164.90 147.86 165.82 148.30 166.65 148.01 Z M 167.61 147.65 L 168.57 147.31 C 169.40 147.03 169.83 146.12 169.55 145.29 C 169.26 144.47 168.35 144.03 167.53 144.32 L 166.57 144.65 C 165.74 144.94 165.31 145.85 165.59 146.67 C 165.88 147.50 166.79 147.94 167.61 147.65 Z M 168.56 147.30 L 169.49 146.98 C 170.31 146.70 170.74 145.81 170.46 144.99 C 170.18 144.17 169.29 143.73 168.47 144.01 L 167.54 144.33 C 166.72 144.61 166.28 145.51 166.56 146.33 C 166.84 147.14 167.74 147.58 168.56 147.30 Z M 169.47 146.98 L 170.51 146.64 C 171.33 146.37 171.78 145.48 171.51 144.66 C 171.24 143.85 170.35 143.40 169.54 143.67 L 168.49 144.02 C 167.67 144.29 167.22 145.17 167.49 145.99 C 167.77 146.81 168.65 147.25 169.47 146.98 Z M 170.50 146.64 L 171.48 146.33 C 172.30 146.07 172.76 145.19 172.50 144.37 C 172.24 143.55 171.36 143.09 170.54 143.35 L 169.55 143.67 C 168.73 143.93 168.28 144.80 168.54 145.63 C 168.80 146.45 169.68 146.90 170.50 146.64 Z M 171.47 146.33 L 172.41 146.04 C 173.23 145.79 173.70 144.92 173.44 144.09 C 173.19 143.27 172.32 142.81 171.49 143.06 L 170.55 143.35 C 169.73 143.60 169.27 144.47 169.52 145.30 C 169.77 146.12 170.64 146.59 171.47 146.33 Z M 172.40 146.05 L 173.31 145.78 C 174.13 145.53 174.60 144.66 174.35 143.83 C 174.11 143.01 173.24 142.54 172.41 142.78 L 171.50 143.06 C 170.68 143.30 170.21 144.17 170.45 145.00 C 170.70 145.83 171.57 146.29 172.40 146.05 Z M 173.30 145.78 L 174.19 145.51 C 175.02 145.27 175.49 144.40 175.25 143.58 C 175.00 142.75 174.14 142.28 173.31 142.52 L 172.42 142.78 C 171.59 143.03 171.12 143.89 171.36 144.72 C 171.61 145.55 172.47 146.02 173.30 145.78 Z"
      fill="black"
      fill-rule="nonzero" /><path d="M 186.18 142.49 L 185.41 143.59 C 184.87 144.36 185.05 145.43 185.82 145.97 C 186.59 146.51 187.66 146.33 188.20 145.56 L 188.97 144.46 C 189.52 143.69 189.33 142.62 188.56 142.08 C 187.79 141.54 186.73 141.72 186.18 142.49 Z M 185.36 143.65 L 184.76 144.59 C 184.25 145.39 184.48 146.45 185.27 146.96 C 186.07 147.47 187.13 147.24 187.64 146.44 L 188.25 145.50 C 188.76 144.70 188.53 143.64 187.73 143.13 C 186.93 142.62 185.87 142.85 185.36 143.65 Z M 184.62 144.85 L 184.35 145.49 C 183.98 146.36 184.39 147.37 185.27 147.74 C 186.14 148.11 187.15 147.69 187.52 146.82 L 187.78 146.18 C 188.15 145.31 187.74 144.30 186.87 143.93 C 185.99 143.56 184.98 143.98 184.62 144.85 Z M 185.05 147.63 L 185.35 147.81 C 186.17 148.30 187.22 148.03 187.71 147.21 C 188.20 146.40 187.93 145.34 187.11 144.85 L 186.81 144.67 C 186.00 144.19 184.94 144.45 184.45 145.27 C 183.96 146.09 184.23 147.15 185.05 147.63 Z M 186.88 147.93 L 187.78 147.56 C 188.66 147.20 189.08 146.20 188.72 145.31 C 188.36 144.43 187.36 144.01 186.48 144.37 L 185.58 144.74 C 184.70 145.09 184.28 146.10 184.64 146.98 C 185.00 147.86 186.00 148.29 186.88 147.93 Z M 187.99 147.46 L 189.13 146.80 C 189.96 146.32 190.24 145.27 189.77 144.45 C 189.29 143.62 188.24 143.34 187.41 143.81 L 186.27 144.47 C 185.44 144.95 185.16 146.00 185.63 146.83 C 186.11 147.65 187.16 147.93 187.99 147.46 Z M 189.20 146.75 L 190.05 146.21 C 190.85 145.70 191.08 144.64 190.57 143.84 C 190.06 143.04 189.00 142.81 188.20 143.32 L 187.35 143.86 C 186.55 144.37 186.32 145.43 186.83 146.23 C 187.34 147.03 188.40 147.26 189.20 146.75 Z M 190.08 146.17 L 190.90 145.62 C 191.68 145.09 191.88 144.03 191.36 143.25 C 190.83 142.48 189.77 142.27 188.99 142.80 L 188.17 143.35 C 187.39 143.88 187.19 144.93 187.71 145.71 C 188.24 146.49 189.30 146.70 190.08 146.17 Z M 190.91 145.60 L 191.72 145.03 C 192.49 144.50 192.68 143.45 192.15 142.68 C 191.62 141.91 190.57 141.72 189.80 142.25 L 188.98 142.82 C 188.22 143.35 188.03 144.40 188.56 145.17 C 189.09 145.94 190.14 146.13 190.91 145.60 Z M 191.71 145.02 L 192.53 144.46 C 193.30 143.93 193.49 142.89 192.96 142.12 C 192.44 141.36 191.39 141.17 190.63 141.70 L 189.81 142.26 C 189.05 142.79 188.86 143.83 189.38 144.59 C 189.91 145.36 190.95 145.55 191.71 145.02 Z M 192.51 144.45 L 193.34 143.89 C 194.10 143.38 194.30 142.35 193.78 141.59 C 193.27 140.82 192.24 140.63 191.48 141.14 L 190.65 141.70 C 189.89 142.21 189.69 143.25 190.21 144.01 C 190.72 144.77 191.75 144.97 192.51 144.45 Z M 193.32 143.89 L 194.16 143.33 C 194.92 142.83 195.12 141.81 194.62 141.05 C 194.12 140.29 193.09 140.08 192.33 140.59 L 191.50 141.14 C 190.74 141.65 190.53 142.67 191.03 143.43 C 191.54 144.19 192.56 144.40 193.32 143.89 Z M 194.14 143.33 L 194.98 142.78 C 195.74 142.29 195.95 141.28 195.46 140.52 C 194.97 139.76 193.96 139.55 193.20 140.04 L 192.36 140.59 C 191.60 141.08 191.38 142.09 191.88 142.85 C 192.37 143.61 193.38 143.82 194.14 143.33 Z M 194.96 142.78 L 195.76 142.28 C 196.51 141.79 196.74 140.79 196.26 140.04 C 195.77 139.28 194.77 139.06 194.02 139.54 L 193.22 140.04 C 192.46 140.52 192.24 141.53 192.72 142.28 C 193.20 143.04 194.20 143.26 194.96 142.78 Z M 195.74 142.27 L 196.54 141.77 C 197.29 141.30 197.52 140.31 197.04 139.55 C 196.57 138.80 195.58 138.57 194.83 139.04 L 194.03 139.54 C 193.28 140.01 193.05 141.01 193.52 141.76 C 193.99 142.51 194.99 142.74 195.74 142.27 Z M 196.53 141.76 L 197.37 141.24 C 198.11 140.77 198.34 139.79 197.88 139.04 C 197.41 138.29 196.43 138.06 195.68 138.53 L 194.84 139.06 C 194.09 139.52 193.86 140.50 194.33 141.25 C 194.79 142.00 195.78 142.23 196.53 141.76 Z M 197.36 141.22 L 198.28 140.65 C 199.02 140.18 199.24 139.21 198.78 138.47 C 198.31 137.73 197.34 137.50 196.60 137.97 L 195.68 138.54 C 194.94 139.01 194.72 139.98 195.18 140.72 C 195.65 141.46 196.62 141.69 197.36 141.22 Z M 198.28 140.64 L 199.09 140.12 C 199.83 139.66 200.04 138.68 199.58 137.95 C 199.11 137.22 198.14 137.00 197.41 137.47 L 196.60 137.98 C 195.86 138.45 195.65 139.42 196.11 140.15 C 196.58 140.88 197.55 141.10 198.28 140.64 Z M 199.10 140.11 L 199.89 139.61 C 200.62 139.14 200.83 138.17 200.37 137.44 C 199.90 136.71 198.93 136.50 198.20 136.96 L 197.41 137.47 C 196.68 137.94 196.46 138.91 196.93 139.64 C 197.40 140.37 198.37 140.58 199.10 140.11 Z M 199.89 139.60 L 200.73 139.06 C 201.46 138.59 201.67 137.62 201.20 136.90 C 200.73 136.17 199.76 135.96 199.03 136.43 L 198.20 136.97 C 197.47 137.44 197.26 138.41 197.73 139.13 C 198.20 139.86 199.17 140.07 199.89 139.60 Z M 200.73 139.06 L 201.60 138.50 C 202.33 138.03 202.53 137.06 202.07 136.33 C 201.60 135.61 200.63 135.40 199.90 135.87 L 199.03 136.43 C 198.31 136.90 198.10 137.87 198.57 138.59 C 199.04 139.32 200.01 139.53 200.73 139.06 Z M 201.60 138.50 L 202.49 137.92 C 203.21 137.45 203.42 136.48 202.95 135.76 C 202.48 135.03 201.51 134.83 200.79 135.30 L 199.90 135.87 C 199.18 136.34 198.97 137.31 199.44 138.03 C 199.91 138.76 200.88 138.97 201.60 138.50 Z M 202.49 137.92 L 203.15 137.49 C 203.87 137.02 204.08 136.05 203.61 135.33 C 203.14 134.61 202.17 134.40 201.45 134.87 L 200.79 135.30 C 200.07 135.77 199.86 136.73 200.33 137.46 C 200.80 138.18 201.77 138.39 202.49 137.92 Z"
      fill="black"
      fill-rule="nonzero" /><path d="M 189.68 123.62 L 188.63 123.63 C 187.70 123.64 186.96 124.40 186.97 125.33 C 186.98 126.26 187.74 127.00 188.66 126.99 L 189.72 126.98 C 190.65 126.97 191.39 126.21 191.38 125.28 C 191.37 124.36 190.61 123.61 189.68 123.62 Z M 188.52 123.62 L 187.51 123.70 C 186.57 123.77 185.87 124.58 185.95 125.52 C 186.02 126.45 186.83 127.15 187.76 127.08 L 188.77 127.00 C 189.71 126.93 190.41 126.12 190.34 125.18 C 190.27 124.25 189.45 123.55 188.52 123.62 Z M 187.26 123.72 L 186.33 123.93 C 185.41 124.13 184.83 125.05 185.04 125.97 C 185.24 126.89 186.16 127.47 187.08 127.26 L 188.01 127.06 C 188.93 126.85 189.51 125.94 189.30 125.02 C 189.10 124.09 188.18 123.52 187.26 123.72 Z M 185.93 124.05 L 185.08 124.48 C 184.23 124.91 183.89 125.95 184.32 126.80 C 184.75 127.65 185.79 127.99 186.64 127.56 L 187.48 127.14 C 188.33 126.71 188.68 125.67 188.25 124.82 C 187.82 123.97 186.78 123.62 185.93 124.05 Z M 184.68 124.73 L 183.96 125.39 C 183.25 126.05 183.20 127.15 183.86 127.86 C 184.51 128.58 185.62 128.62 186.33 127.97 L 187.05 127.31 C 187.76 126.65 187.80 125.55 187.15 124.83 C 186.49 124.12 185.39 124.08 184.68 124.73 Z M 183.68 125.68 L 183.11 126.51 C 182.55 127.32 182.76 128.43 183.57 128.98 C 184.38 129.54 185.48 129.33 186.04 128.52 L 186.61 127.68 C 187.17 126.87 186.96 125.77 186.15 125.21 C 185.34 124.66 184.24 124.87 183.68 125.68 Z M 182.94 126.76 L 182.52 127.67 C 182.10 128.57 182.49 129.64 183.39 130.06 C 184.29 130.47 185.36 130.08 185.78 129.18 L 186.20 128.27 C 186.62 127.37 186.23 126.31 185.33 125.89 C 184.43 125.47 183.36 125.86 182.94 126.76 Z M 182.43 127.86 L 182.13 128.79 C 181.82 129.74 182.33 130.76 183.28 131.07 C 184.23 131.38 185.25 130.87 185.56 129.92 L 185.87 128.99 C 186.18 128.04 185.66 127.02 184.71 126.71 C 183.77 126.40 182.75 126.91 182.43 127.86 Z M 182.08 128.94 L 181.85 129.92 C 181.62 130.89 182.22 131.87 183.19 132.10 C 184.16 132.33 185.14 131.73 185.37 130.76 L 185.61 129.78 C 185.84 128.80 185.24 127.83 184.26 127.59 C 183.29 127.36 182.31 127.96 182.08 128.94 Z M 181.82 130.03 L 181.64 131.04 C 181.47 132.03 182.14 132.97 183.12 133.14 C 184.11 133.32 185.05 132.65 185.22 131.66 L 185.40 130.65 C 185.57 129.66 184.91 128.72 183.92 128.55 C 182.93 128.38 181.99 129.04 181.82 130.03 Z M 181.63 131.12 L 181.52 131.97 C 181.39 132.97 182.09 133.88 183.09 134.01 C 184.08 134.14 185.00 133.44 185.13 132.44 L 185.24 131.59 C 185.37 130.59 184.67 129.68 183.67 129.55 C 182.67 129.42 181.76 130.12 181.63 131.12 Z M 181.51 132.04 L 181.42 132.93 C 181.33 133.93 182.06 134.82 183.07 134.91 C 184.07 135.01 184.96 134.27 185.05 133.27 L 185.14 132.38 C 185.23 131.38 184.50 130.49 183.50 130.39 C 182.49 130.30 181.60 131.03 181.51 132.04 Z M 181.42 132.98 L 181.35 133.97 C 181.29 134.98 182.05 135.85 183.06 135.91 C 184.06 135.97 184.93 135.21 185.00 134.20 L 185.06 133.22 C 185.13 132.21 184.36 131.34 183.36 131.28 C 182.35 131.21 181.48 131.98 181.42 132.98 Z M 181.35 134.01 L 181.30 135.15 C 181.26 136.16 182.05 137.01 183.06 137.05 C 184.07 137.09 184.92 136.30 184.96 135.29 L 185.00 134.16 C 185.04 133.15 184.26 132.30 183.25 132.26 C 182.24 132.22 181.39 133.00 181.35 134.01 Z M 181.30 135.18 L 181.27 136.26 C 181.25 137.28 182.05 138.12 183.06 138.14 C 184.07 138.16 184.91 137.36 184.94 136.35 L 184.96 135.26 C 184.99 134.25 184.19 133.41 183.17 133.39 C 182.16 133.36 181.32 134.16 181.30 135.18 Z M 181.27 136.28 L 181.25 137.28 C 181.24 138.29 182.05 139.13 183.06 139.14 C 184.08 139.15 184.91 138.34 184.93 137.33 L 184.94 136.33 C 184.96 135.32 184.14 134.49 183.13 134.47 C 182.12 134.46 181.28 135.27 181.27 136.28 Z M 181.25 137.29 L 181.24 138.33 C 181.23 139.35 182.05 140.18 183.07 140.19 C 184.08 140.20 184.91 139.38 184.92 138.36 L 184.93 137.32 C 184.94 136.30 184.12 135.47 183.10 135.46 C 182.09 135.45 181.26 136.27 181.25 137.29 Z M 181.24 138.34 L 181.23 139.40 C 181.23 140.42 182.05 141.25 183.07 141.25 C 184.09 141.25 184.92 140.43 184.92 139.41 L 184.93 138.35 C 184.93 137.33 184.11 136.51 183.09 136.50 C 182.07 136.50 181.24 137.32 181.24 138.34 Z M 181.23 139.41 L 181.23 140.44 C 181.23 141.46 182.06 142.29 183.08 142.29 C 184.10 142.29 184.93 141.46 184.93 140.44 L 184.93 139.40 C 184.93 138.38 184.10 137.55 183.08 137.56 C 182.05 137.56 181.23 138.39 181.23 139.41 Z M 181.23 140.45 L 181.23 141.43 C 181.24 142.46 182.07 143.28 183.10 143.28 C 184.12 143.27 184.94 142.43 184.94 141.41 L 184.93 140.43 C 184.93 139.41 184.09 138.58 183.07 138.59 C 182.05 138.59 181.22 139.43 181.23 140.45 Z M 181.23 141.44 L 181.24 142.43 C 181.25 143.46 182.09 144.28 183.12 144.27 C 184.14 144.26 184.96 143.42 184.95 142.39 L 184.94 141.40 C 184.93 140.38 184.09 139.55 183.06 139.57 C 182.04 139.58 181.22 140.42 181.23 141.44 Z M 181.24 142.45 L 181.26 143.65 C 181.28 144.68 182.13 145.49 183.16 145.47 C 184.19 145.45 185.00 144.60 184.98 143.57 L 184.96 142.37 C 184.93 141.35 184.08 140.53 183.06 140.55 C 182.03 140.58 181.21 141.43 181.24 142.45 Z M 181.26 143.70 L 181.31 144.69 C 181.35 145.71 182.22 146.51 183.25 146.46 C 184.28 146.42 185.07 145.54 185.03 144.52 L 184.98 143.53 C 184.93 142.50 184.06 141.71 183.04 141.75 C 182.01 141.80 181.21 142.67 181.26 143.70 Z M 181.31 144.76 L 181.38 145.62 C 181.47 146.65 182.37 147.41 183.40 147.32 C 184.42 147.23 185.18 146.33 185.10 145.30 L 185.02 144.44 C 184.94 143.42 184.03 142.66 183.01 142.74 C 181.98 142.83 181.22 143.73 181.31 144.76 Z M 181.39 145.71 L 181.51 146.57 C 181.65 147.59 182.59 148.31 183.61 148.17 C 184.63 148.03 185.34 147.09 185.21 146.07 L 185.09 145.21 C 184.95 144.19 184.01 143.47 182.99 143.61 C 181.97 143.75 181.25 144.69 181.39 145.71 Z M 181.52 146.66 L 181.70 147.62 C 181.88 148.64 182.86 149.31 183.87 149.12 C 184.89 148.93 185.56 147.96 185.37 146.94 L 185.19 145.98 C 185.01 144.96 184.03 144.29 183.02 144.48 C 182.00 144.67 181.33 145.64 181.52 146.66 Z M 181.71 147.68 L 181.92 148.66 C 182.14 149.67 183.14 150.31 184.15 150.09 C 185.16 149.87 185.80 148.87 185.58 147.86 L 185.36 146.88 C 185.14 145.87 184.15 145.23 183.14 145.45 C 182.13 145.67 181.49 146.67 181.71 147.68 Z M 181.92 148.69 L 182.16 149.69 C 182.39 150.69 183.40 151.32 184.41 151.08 C 185.41 150.85 186.04 149.84 185.81 148.84 L 185.57 147.84 C 185.34 146.83 184.33 146.20 183.32 146.44 C 182.32 146.67 181.69 147.68 181.92 148.69 Z M 182.16 149.69 L 182.38 150.64 C 182.61 151.64 183.62 152.27 184.63 152.03 C 185.64 151.80 186.27 150.79 186.03 149.78 L 185.81 148.83 C 185.57 147.82 184.56 147.20 183.55 147.44 C 182.54 147.67 181.92 148.68 182.16 149.69 Z M 182.38 150.64 L 182.60 151.60 C 182.84 152.61 183.85 153.23 184.86 152.99 C 185.87 152.76 186.50 151.75 186.26 150.74 L 186.03 149.78 C 185.79 148.77 184.78 148.14 183.77 148.38 C 182.76 148.62 182.14 149.63 182.38 150.64 Z M 182.60 151.61 L 182.84 152.59 C 183.08 153.60 184.10 154.22 185.11 153.98 C 186.12 153.74 186.74 152.72 186.49 151.71 L 186.26 150.73 C 186.01 149.72 185.00 149.10 183.99 149.34 C 182.98 149.58 182.36 150.60 182.60 151.61 Z M 182.84 152.61 L 183.08 153.60 C 183.34 154.61 184.36 155.22 185.37 154.97 C 186.38 154.72 186.99 153.70 186.74 152.69 L 186.49 151.70 C 186.24 150.69 185.22 150.07 184.21 150.32 C 183.20 150.58 182.59 151.60 182.84 152.61 Z M 183.09 153.61 L 183.33 154.57 C 183.59 155.58 184.62 156.19 185.63 155.93 C 186.64 155.67 187.25 154.64 186.99 153.63 L 186.74 152.67 C 186.48 151.67 185.45 151.06 184.44 151.32 C 183.43 151.58 182.83 152.61 183.09 153.61 Z M 183.34 154.59 L 183.60 155.57 C 183.87 156.57 184.90 157.17 185.91 156.90 C 186.92 156.63 187.52 155.59 187.24 154.59 L 186.98 153.61 C 186.71 152.61 185.68 152.01 184.67 152.28 C 183.66 152.55 183.06 153.59 183.34 154.59 Z M 183.60 155.59 L 183.87 156.56 C 184.15 157.57 185.20 158.15 186.21 157.87 C 187.21 157.59 187.80 156.54 187.52 155.54 L 187.24 154.56 C 186.96 153.56 185.92 152.97 184.91 153.25 C 183.90 153.54 183.32 154.58 183.60 155.59 Z M 183.88 156.59 L 184.16 157.56 C 184.46 158.56 185.51 159.13 186.52 158.83 C 187.52 158.54 188.09 157.48 187.80 156.48 L 187.51 155.51 C 187.21 154.51 186.16 153.93 185.16 154.23 C 184.15 154.53 183.58 155.58 183.88 156.59 Z M 184.17 157.58 L 184.47 158.55 C 184.78 159.55 185.84 160.11 186.84 159.80 C 187.84 159.49 188.40 158.42 188.09 157.42 L 187.79 156.46 C 187.48 155.45 186.42 154.89 185.42 155.21 C 184.42 155.52 183.86 156.58 184.17 157.58 Z M 184.47 158.56 L 184.77 159.51 C 185.09 160.51 186.16 161.07 187.16 160.75 C 188.16 160.43 188.71 159.36 188.39 158.36 L 188.09 157.41 C 187.77 156.41 186.70 155.86 185.70 156.18 C 184.70 156.49 184.15 157.56 184.47 158.56 Z M 184.77 159.52 L 185.07 160.46 C 185.39 161.46 186.46 162.01 187.47 161.69 C 188.47 161.37 189.02 160.30 188.70 159.30 L 188.40 158.36 C 188.08 157.35 187.00 156.80 186.00 157.12 C 185.00 157.44 184.45 158.52 184.77 159.52 Z M 185.07 160.45 L 185.37 161.40 C 185.68 162.40 186.75 162.96 187.76 162.65 C 188.76 162.33 189.32 161.26 189.00 160.26 L 188.70 159.30 C 188.39 158.30 187.32 157.74 186.31 158.06 C 185.31 158.37 184.75 159.44 185.07 160.45 Z M 185.36 161.39 L 185.66 162.35 C 185.97 163.36 187.04 163.93 188.05 163.61 C 189.06 163.30 189.62 162.23 189.31 161.22 L 189.01 160.26 C 188.70 159.26 187.63 158.69 186.62 159.00 C 185.61 159.32 185.05 160.39 185.36 161.39 Z M 185.66 162.36 L 185.96 163.32 C 186.28 164.33 187.35 164.89 188.36 164.57 C 189.36 164.25 189.92 163.18 189.61 162.17 L 189.31 161.21 C 188.99 160.21 187.92 159.65 186.91 159.96 C 185.90 160.28 185.34 161.36 185.66 162.36 Z M 185.96 163.34 L 186.27 164.28 C 186.60 165.29 187.69 165.84 188.69 165.50 C 189.70 165.17 190.24 164.09 189.91 163.08 L 189.60 162.14 C 189.27 161.14 188.19 160.59 187.18 160.92 C 186.18 161.26 185.63 162.34 185.96 163.34 Z M 186.28 164.33 L 186.62 165.27 C 186.97 166.27 188.07 166.79 189.07 166.44 C 190.07 166.09 190.59 164.99 190.24 163.99 L 189.90 163.04 C 189.55 162.04 188.45 161.52 187.45 161.87 C 186.45 162.23 185.93 163.33 186.28 164.33 Z M 186.63 165.31 L 186.98 166.25 C 187.36 167.24 188.47 167.74 189.46 167.37 C 190.45 166.99 190.96 165.88 190.58 164.89 L 190.23 163.95 C 189.85 162.96 188.74 162.46 187.75 162.83 C 186.76 163.21 186.26 164.32 186.63 165.31 Z M 186.99 166.27 L 187.35 167.20 C 187.74 168.19 188.86 168.68 189.85 168.29 C 190.84 167.90 191.33 166.78 190.94 165.79 L 190.57 164.87 C 190.19 163.88 189.07 163.39 188.08 163.78 C 187.09 164.16 186.60 165.28 186.99 166.27 Z M 187.36 167.21 L 187.73 168.14 C 188.12 169.12 189.24 169.61 190.23 169.21 C 191.22 168.82 191.70 167.70 191.31 166.71 L 190.94 165.78 C 190.54 164.79 189.42 164.31 188.43 164.71 C 187.44 165.10 186.96 166.22 187.36 167.21 Z M 187.73 168.14 L 188.10 169.08 C 188.50 170.07 189.62 170.55 190.61 170.15 C 191.60 169.75 192.08 168.63 191.68 167.64 L 191.31 166.70 C 190.91 165.71 189.78 165.24 188.80 165.63 C 187.81 166.03 187.33 167.15 187.73 168.14 Z M 188.11 169.09 L 188.49 170.02 C 188.90 171.01 190.02 171.48 191.01 171.07 C 191.99 170.67 192.46 169.54 192.06 168.56 L 191.68 167.63 C 191.27 166.64 190.15 166.17 189.16 166.58 C 188.18 166.98 187.70 168.11 188.11 169.09 Z M 188.50 170.05 L 188.89 170.96 C 189.31 171.94 190.44 172.39 191.42 171.97 C 192.40 171.55 192.86 170.42 192.44 169.44 L 192.05 168.53 C 191.63 167.55 190.50 167.10 189.52 167.52 C 188.54 167.93 188.08 169.07 188.50 170.05 Z M 188.91 170.99 L 189.32 171.91 C 189.76 172.88 190.90 173.31 191.87 172.87 C 192.84 172.43 193.27 171.29 192.83 170.32 L 192.42 169.40 C 191.98 168.43 190.84 168.00 189.87 168.44 C 188.90 168.88 188.47 170.02 188.91 170.99 Z M 189.34 171.95 L 189.77 172.85 C 190.24 173.81 191.39 174.21 192.35 173.75 C 193.31 173.29 193.71 172.13 193.25 171.17 L 192.81 170.27 C 192.35 169.31 191.20 168.91 190.24 169.37 C 189.28 169.84 188.88 170.99 189.34 171.95 Z M 189.79 172.89 L 190.25 173.78 C 190.73 174.73 191.90 175.10 192.84 174.61 C 193.79 174.13 194.17 172.96 193.68 172.02 L 193.23 171.13 C 192.74 170.18 191.58 169.81 190.63 170.30 C 189.68 170.78 189.31 171.95 189.79 172.89 Z M 190.27 173.82 L 190.73 174.67 C 191.24 175.61 192.41 175.96 193.35 175.45 C 194.29 174.95 194.63 173.77 194.13 172.84 L 193.66 171.98 C 193.15 171.04 191.98 170.69 191.05 171.20 C 190.11 171.71 189.76 172.88 190.27 173.82 Z M 190.76 174.73 L 191.25 175.56 C 191.78 176.48 192.96 176.79 193.88 176.25 C 194.80 175.72 195.12 174.54 194.58 173.62 L 194.10 172.79 C 193.56 171.87 192.38 171.55 191.46 172.09 C 190.54 172.63 190.23 173.81 190.76 174.73 Z M 191.31 175.65 L 191.85 176.48 C 192.44 177.36 193.63 177.61 194.52 177.02 C 195.41 176.44 195.65 175.25 195.07 174.36 L 194.52 173.53 C 193.94 172.64 192.74 172.39 191.85 172.98 C 190.97 173.56 190.72 174.76 191.31 175.65 Z M 191.94 176.59 L 192.58 177.42 C 193.23 178.26 194.43 178.42 195.27 177.77 C 196.12 177.12 196.27 175.91 195.62 175.07 L 194.98 174.24 C 194.33 173.40 193.13 173.25 192.29 173.89 C 191.45 174.54 191.29 175.75 191.94 176.59 Z M 192.68 177.54 L 193.35 178.27 C 194.06 179.06 195.28 179.12 196.06 178.40 C 196.85 177.69 196.90 176.47 196.19 175.69 L 195.52 174.95 C 194.81 174.17 193.59 174.11 192.81 174.83 C 192.02 175.54 191.97 176.75 192.68 177.54 Z M 193.46 178.38 L 194.20 179.07 C 194.97 179.79 196.18 179.75 196.90 178.98 C 197.63 178.21 197.59 176.99 196.81 176.27 L 196.08 175.58 C 195.31 174.86 194.09 174.90 193.37 175.67 C 192.65 176.44 192.69 177.66 193.46 178.38 Z M 194.33 179.18 L 195.13 179.80 C 195.96 180.45 197.16 180.31 197.81 179.48 C 198.46 178.64 198.32 177.44 197.48 176.79 L 196.68 176.16 C 195.85 175.51 194.65 175.66 194.00 176.49 C 193.35 177.32 193.49 178.53 194.33 179.18 Z M 195.29 179.92 L 196.14 180.45 C 197.03 181.01 198.21 180.73 198.77 179.84 C 199.33 178.95 199.06 177.77 198.16 177.21 L 197.32 176.68 C 196.42 176.12 195.25 176.39 194.69 177.28 C 194.13 178.18 194.40 179.36 195.29 179.92 Z M 196.36 180.56 L 197.26 180.97 C 198.22 181.41 199.35 180.99 199.78 180.03 C 200.22 179.08 199.80 177.95 198.85 177.51 L 197.94 177.10 C 196.99 176.66 195.86 177.08 195.42 178.03 C 194.98 178.99 195.40 180.12 196.36 180.56 Z M 197.50 181.04 L 198.44 181.33 C 199.44 181.64 200.49 181.08 200.80 180.08 C 201.11 179.09 200.55 178.03 199.55 177.72 L 198.61 177.44 C 197.61 177.13 196.56 177.69 196.25 178.69 C 195.94 179.68 196.50 180.74 197.50 181.04 Z M 198.65 181.37 L 199.62 181.55 C 200.64 181.74 201.62 181.08 201.81 180.06 C 202.00 179.05 201.33 178.07 200.32 177.87 L 199.34 177.69 C 198.33 177.50 197.35 178.17 197.16 179.18 C 196.96 180.20 197.63 181.18 198.65 181.37 Z M 199.78 181.56 L 200.79 181.66 C 201.81 181.77 202.72 181.03 202.83 180.01 C 202.94 178.99 202.19 178.08 201.17 177.97 L 200.16 177.87 C 199.14 177.76 198.23 178.50 198.12 179.52 C 198.02 180.54 198.76 181.45 199.78 181.56 Z M 200.90 181.65 L 201.85 181.69 C 202.87 181.74 203.72 180.95 203.77 179.94 C 203.81 178.93 203.02 178.07 202.01 178.02 L 201.06 177.98 C 200.05 177.94 199.19 178.73 199.15 179.74 C 199.10 180.75 199.89 181.61 200.90 181.65 Z M 201.98 181.67 L 202.95 181.65 C 203.95 181.62 204.74 180.78 204.71 179.78 C 204.68 178.78 203.85 177.99 202.85 178.02 L 201.88 178.05 C 200.88 178.07 200.09 178.91 200.12 179.91 C 200.15 180.91 200.98 181.70 201.98 181.67 Z M 203.12 181.61 L 204.11 181.49 C 205.09 181.37 205.79 180.47 205.67 179.49 C 205.55 178.51 204.65 177.81 203.67 177.93 L 202.68 178.05 C 201.70 178.18 201.00 179.07 201.12 180.05 C 201.24 181.03 202.14 181.73 203.12 181.61 Z M 204.31 181.43 L 205.32 181.18 C 206.27 180.95 206.85 180.00 206.62 179.05 C 206.39 178.10 205.44 177.52 204.49 177.75 L 203.47 177.99 C 202.52 178.22 201.94 179.18 202.17 180.13 C 202.40 181.08 203.36 181.66 204.31 181.43 Z M 205.52 181.10 L 206.49 180.73 C 207.39 180.39 207.84 179.38 207.50 178.48 C 207.15 177.58 206.14 177.13 205.24 177.47 L 204.28 177.83 C 203.38 178.18 202.93 179.18 203.27 180.09 C 203.62 180.99 204.62 181.44 205.52 181.10 Z M 206.64 180.63 L 207.54 180.18 C 208.39 179.75 208.73 178.72 208.30 177.87 C 207.87 177.02 206.83 176.68 205.99 177.11 L 205.09 177.56 C 204.24 177.99 203.90 179.03 204.33 179.87 C 204.76 180.72 205.79 181.06 206.64 180.63 Z M 207.64 180.09 L 208.52 179.56 C 209.32 179.08 209.58 178.04 209.09 177.24 C 208.61 176.44 207.57 176.18 206.77 176.66 L 205.89 177.19 C 205.09 177.68 204.83 178.72 205.31 179.52 C 205.80 180.32 206.84 180.58 207.64 180.09 Z M 208.58 179.49 L 209.43 178.91 C 210.19 178.39 210.38 177.36 209.86 176.60 C 209.35 175.84 208.31 175.64 207.55 176.16 L 206.71 176.74 C 205.95 177.26 205.75 178.29 206.27 179.05 C 206.79 179.81 207.82 180.01 208.58 179.49 Z M 209.47 178.85 L 210.26 178.26 C 210.98 177.72 211.13 176.69 210.59 175.97 C 210.05 175.24 209.02 175.09 208.30 175.63 L 207.51 176.22 C 206.78 176.76 206.63 177.79 207.17 178.52 C 207.72 179.24 208.74 179.39 209.47 178.85 Z M 210.29 178.21 L 211.10 177.56 C 211.80 177.00 211.91 175.98 211.35 175.29 C 210.80 174.59 209.78 174.48 209.08 175.03 L 208.27 175.69 C 207.57 176.24 207.46 177.26 208.01 177.96 C 208.57 178.65 209.59 178.77 210.29 178.21 Z M 211.13 177.51 L 211.94 176.82 C 212.61 176.25 212.69 175.24 212.11 174.57 C 211.54 173.90 210.53 173.82 209.86 174.39 L 209.05 175.08 C 208.38 175.66 208.30 176.67 208.88 177.34 C 209.45 178.01 210.46 178.09 211.13 177.51 Z M 211.97 176.77 L 212.68 176.12 C 213.33 175.52 213.37 174.52 212.78 173.88 C 212.18 173.23 211.18 173.19 210.54 173.78 L 209.82 174.44 C 209.18 175.03 209.14 176.04 209.73 176.68 C 210.32 177.33 211.33 177.37 211.97 176.77 Z M 212.71 176.07 L 213.37 175.42 C 213.99 174.81 214.00 173.82 213.39 173.20 C 212.78 172.58 211.78 172.57 211.17 173.18 L 210.51 173.83 C 209.89 174.44 209.88 175.43 210.49 176.05 C 211.10 176.67 212.09 176.68 212.71 176.07 Z M 213.39 175.39 L 214.06 174.70 C 214.66 174.08 214.64 173.09 214.02 172.49 C 213.40 171.89 212.41 171.90 211.81 172.52 L 211.14 173.22 C 210.54 173.84 210.56 174.83 211.18 175.43 C 211.80 176.03 212.79 176.01 213.39 175.39 Z M 214.08 174.67 L 214.76 173.95 C 215.35 173.31 215.31 172.33 214.68 171.74 C 214.05 171.15 213.06 171.19 212.47 171.82 L 211.79 172.55 C 211.21 173.18 211.24 174.17 211.87 174.75 C 212.51 175.34 213.49 175.30 214.08 174.67 Z M 214.77 173.93 L 215.45 173.18 C 216.02 172.54 215.97 171.56 215.33 170.98 C 214.69 170.40 213.71 170.45 213.13 171.09 L 212.46 171.84 C 211.88 172.48 211.93 173.46 212.57 174.04 C 213.21 174.62 214.20 174.57 214.77 173.93 Z M 215.46 173.17 L 216.12 172.42 C 216.70 171.77 216.63 170.78 215.99 170.21 C 215.34 169.64 214.36 169.70 213.79 170.35 L 213.12 171.10 C 212.55 171.75 212.61 172.74 213.25 173.31 C 213.90 173.88 214.89 173.82 215.46 173.17 Z M 216.13 172.41 L 216.79 171.66 C 217.35 171.01 217.28 170.02 216.63 169.45 C 215.98 168.89 215.00 168.96 214.43 169.61 L 213.78 170.36 C 213.21 171.01 213.28 171.99 213.93 172.56 C 214.58 173.12 215.57 173.06 216.13 172.41 Z M 216.79 171.65 L 217.44 170.89 C 218.01 170.24 217.93 169.26 217.28 168.69 C 216.63 168.13 215.64 168.20 215.08 168.85 L 214.43 169.61 C 213.86 170.26 213.94 171.25 214.59 171.81 C 215.24 172.38 216.23 172.30 216.79 171.65 Z M 217.45 170.89 L 218.10 170.13 C 218.66 169.48 218.59 168.49 217.93 167.93 C 217.28 167.37 216.29 167.44 215.73 168.10 L 215.08 168.86 C 214.52 169.51 214.59 170.50 215.25 171.06 C 215.90 171.62 216.88 171.55 217.45 170.89 Z M 218.10 170.13 L 218.47 169.70 C 219.03 169.04 218.96 168.06 218.30 167.50 C 217.65 166.94 216.66 167.01 216.10 167.67 L 215.73 168.10 C 215.17 168.75 215.25 169.74 215.90 170.30 C 216.55 170.86 217.54 170.78 218.10 170.13 Z"
      fill="black"
      fill-rule="nonzero" /></svg>