<svg xmlns="http://www.w3.org/2000/svg" width="300" height="300" viewBox="0 0 300 300">
<path d="M 132.69 105.00 L 133.57 104.55 C 134.45 104.10 134.80 103.03 134.35 102.15 C 133.90 101.27 132.83 100.92 131.95 101.37 L 131.07 101.82 C 130.19 102.27 129.84 103.35 130.29 104.22 C 130.74 105.10 131.81 105.45 132.69 105.00 Z M 133.47 104.60 L 134.38 104.20 C 135.29 103.81 135.70 102.76 135.31 101.85 C 134.91 100.95 133.86 100.53 132.95 100.93 L 132.05 101.32 C 131.14 101.72 130.73 102.77 131.12 103.68 C 131.52 104.58 132.57 104.99 133.47 104.60 Z M 134.18 104.28 L 135.15 103.99 C 136.09 103.71 136.63 102.71 136.35 101.76 C 136.07 100.82 135.07 100.28 134.12 100.56 L 133.16 100.85 C 132.21 101.14 131.67 102.13 131.96 103.08 C 132.24 104.02 133.24 104.56 134.18 104.28 Z M 134.88 104.05 L 135.80 103.92 C 136.78 103.78 137.46 102.88 137.33 101.90 C 137.19 100.93 136.29 100.24 135.31 100.38 L 134.39 100.51 C 133.41 100.64 132.73 101.54 132.87 102.52 C 133.00 103.50 133.90 104.18 134.88 104.05 Z M 135.58 103.94 L 136.54 103.93 C 137.52 103.92 138.32 103.11 138.31 102.12 C 138.30 101.13 137.49 100.34 136.50 100.35 L 135.54 100.36 C 134.55 100.37 133.76 101.18 133.77 102.17 C 133.78 103.15 134.59 103.95 135.58 103.94 Z M 136.37 103.92 L 137.39 104.01 C 138.38 104.09 139.24 103.36 139.32 102.38 C 139.41 101.39 138.68 100.53 137.69 100.44 L 136.67 100.36 C 135.69 100.27 134.82 101.00 134.74 101.99 C 134.65 102.97 135.38 103.84 136.37 103.92 Z M 137.27 103.99 L 138.33 104.16 C 139.31 104.31 140.22 103.64 140.37 102.66 C 140.52 101.69 139.85 100.77 138.88 100.62 L 137.82 100.46 C 136.84 100.31 135.93 100.98 135.78 101.95 C 135.63 102.93 136.29 103.84 137.27 103.99 Z M 138.25 104.14 L 139.19 104.33 C 140.16 104.52 141.10 103.90 141.29 102.93 C 141.49 101.96 140.86 101.02 139.90 100.83 L 138.96 100.64 C 137.99 100.45 137.05 101.07 136.86 102.04 C 136.66 103.00 137.29 103.94 138.25 104.14 Z M 139.14 104.31 L 140.10 104.54 C 141.06 104.76 142.02 104.17 142.24 103.21 C 142.47 102.26 141.87 101.30 140.92 101.07 L 139.95 100.85 C 138.99 100.62 138.04 101.21 137.81 102.17 C 137.59 103.13 138.18 104.09 139.14 104.31 Z M 140.06 104.52 L 141.04 104.78 C 141.99 105.03 142.96 104.46 143.21 103.51 C 143.46 102.56 142.89 101.59 141.94 101.34 L 140.96 101.09 C 140.01 100.84 139.04 101.41 138.79 102.36 C 138.54 103.30 139.11 104.27 140.06 104.52 Z M 141.01 104.77 L 142.00 105.05 C 142.94 105.31 143.92 104.77 144.19 103.83 C 144.45 102.88 143.91 101.91 142.97 101.64 L 141.98 101.36 C 141.03 101.09 140.06 101.64 139.79 102.58 C 139.52 103.52 140.07 104.50 141.01 104.77 Z M 141.98 105.03 L 142.97 105.33 C 143.90 105.61 144.89 105.08 145.17 104.15 C 145.45 103.22 144.92 102.23 143.99 101.95 L 142.99 101.65 C 142.06 101.37 141.07 101.90 140.79 102.84 C 140.51 103.77 141.04 104.75 141.98 105.03 Z M 142.95 105.32 L 143.93 105.63 C 144.86 105.92 145.85 105.41 146.14 104.49 C 146.43 103.56 145.92 102.57 145.00 102.28 L 144.01 101.97 C 143.09 101.67 142.10 102.18 141.80 103.11 C 141.51 104.04 142.02 105.02 142.95 105.32 Z M 143.90 105.61 L 144.86 105.94 C 145.78 106.25 146.77 105.75 147.08 104.84 C 147.39 103.92 146.90 102.93 145.98 102.62 L 145.02 102.30 C 144.11 101.99 143.12 102.48 142.81 103.40 C 142.50 104.31 142.99 105.30 143.90 105.61 Z M 144.83 105.92 L 145.75 106.25 C 146.65 106.58 147.65 106.11 147.98 105.20 C 148.31 104.30 147.84 103.30 146.94 102.98 L 146.02 102.64 C 145.11 102.31 144.11 102.78 143.79 103.69 C 143.46 104.59 143.93 105.59 144.83 105.92 Z M 145.71 106.22 L 146.61 106.58 C 147.50 106.93 148.51 106.49 148.86 105.60 C 149.21 104.71 148.77 103.70 147.88 103.35 L 146.98 103.00 C 146.09 102.65 145.08 103.09 144.73 103.98 C 144.38 104.87 144.82 105.87 145.71 106.22 Z M 146.55 106.54 L 147.52 106.97 C 148.39 107.35 149.41 106.96 149.79 106.09 C 150.17 105.21 149.78 104.20 148.91 103.81 L 147.94 103.39 C 147.07 103.00 146.05 103.40 145.66 104.27 C 145.28 105.14 145.68 106.16 146.55 106.54 Z M 147.42 106.92 L 148.31 107.37 C 149.15 107.81 150.19 107.48 150.62 106.64 C 151.06 105.79 150.73 104.76 149.88 104.32 L 149.00 103.87 C 148.16 103.43 147.12 103.76 146.69 104.60 C 146.25 105.45 146.58 106.48 147.42 106.92 Z M 148.19 107.30 L 149.00 107.80 C 149.80 108.31 150.85 108.06 151.36 107.26 C 151.86 106.47 151.61 105.41 150.82 104.91 L 150.01 104.40 C 149.21 103.90 148.15 104.14 147.65 104.94 C 147.15 105.74 147.39 106.80 148.19 107.30 Z M 148.86 107.69 L 149.63 108.30 C 150.37 108.88 151.43 108.75 152.01 108.01 C 152.59 107.27 152.46 106.20 151.73 105.62 L 150.96 105.02 C 150.22 104.44 149.15 104.57 148.57 105.31 C 147.99 106.05 148.12 107.12 148.86 107.69 Z M 149.47 108.14 L 150.17 108.86 C 150.83 109.53 151.90 109.54 152.56 108.89 C 153.23 108.23 153.24 107.16 152.59 106.49 L 151.88 105.78 C 151.23 105.11 150.16 105.10 149.49 105.75 C 148.82 106.41 148.81 107.48 149.47 108.14 Z M 150.00 108.65 L 150.58 109.46 C 151.11 110.22 152.16 110.40 152.92 109.86 C 153.68 109.33 153.86 108.28 153.33 107.52 L 152.76 106.71 C 152.22 105.95 151.17 105.77 150.41 106.30 C 149.65 106.84 149.47 107.89 150.00 108.65 Z M 150.42 109.18 L 150.83 110.08 C 151.21 110.92 152.20 111.30 153.05 110.92 C 153.89 110.53 154.26 109.54 153.88 108.70 L 153.48 107.80 C 153.10 106.96 152.11 106.58 151.26 106.96 C 150.42 107.34 150.04 108.33 150.42 109.18 Z M 150.73 109.74 L 150.94 110.69 C 151.14 111.59 152.03 112.15 152.92 111.96 C 153.82 111.76 154.38 110.87 154.19 109.98 L 153.98 109.03 C 153.78 108.13 152.90 107.57 152.00 107.76 C 151.10 107.96 150.54 108.85 150.73 109.74 Z M 150.92 110.36 L 150.94 111.35 C 150.95 112.26 151.70 112.98 152.61 112.97 C 153.52 112.95 154.24 112.21 154.22 111.30 L 154.21 110.31 C 154.19 109.40 153.44 108.68 152.54 108.69 C 151.63 108.71 150.91 109.46 150.92 110.36 Z M 150.99 111.03 L 150.80 112.03 C 150.64 112.92 151.22 113.76 152.10 113.92 C 152.99 114.09 153.83 113.50 153.99 112.62 L 154.18 111.62 C 154.34 110.74 153.76 109.89 152.88 109.73 C 151.99 109.57 151.15 110.15 150.99 111.03 Z M 150.90 111.74 L 150.53 112.67 C 150.20 113.49 150.61 114.43 151.43 114.76 C 152.26 115.08 153.20 114.68 153.52 113.85 L 153.89 112.92 C 154.22 112.10 153.82 111.16 152.99 110.83 C 152.16 110.51 151.23 110.91 150.90 111.74 Z M 150.65 112.44 L 150.14 113.30 C 149.69 114.06 149.94 115.04 150.70 115.50 C 151.46 115.95 152.44 115.70 152.90 114.94 L 153.41 114.08 C 153.86 113.32 153.61 112.33 152.85 111.88 C 152.09 111.43 151.10 111.68 150.65 112.44 Z M 150.24 113.16 L 149.63 113.97 C 149.09 114.67 149.24 115.68 149.95 116.21 C 150.65 116.74 151.66 116.60 152.19 115.89 L 152.80 115.08 C 153.33 114.37 153.19 113.37 152.48 112.84 C 151.77 112.30 150.77 112.45 150.24 113.16 Z M 149.70 113.88 L 149.04 114.64 C 148.46 115.30 148.53 116.32 149.20 116.90 C 149.87 117.48 150.88 117.40 151.46 116.74 L 152.12 115.98 C 152.70 115.31 152.63 114.30 151.96 113.72 C 151.29 113.14 150.28 113.21 149.70 113.88 Z M 149.09 114.59 L 148.38 115.34 C 147.77 115.98 147.80 116.99 148.45 117.60 C 149.09 118.21 150.10 118.18 150.71 117.54 L 151.42 116.79 C 152.03 116.14 152.00 115.13 151.35 114.52 C 150.71 113.91 149.69 113.94 149.09 114.59 Z M 148.41 115.30 L 147.70 116.01 C 147.07 116.63 147.07 117.65 147.70 118.27 C 148.32 118.90 149.34 118.91 149.96 118.28 L 150.68 117.57 C 151.30 116.95 151.31 115.93 150.68 115.30 C 150.06 114.68 149.04 114.67 148.41 115.30 Z M 147.73 115.97 L 147.02 116.64 C 146.37 117.25 146.34 118.27 146.95 118.91 C 147.56 119.56 148.57 119.59 149.22 118.98 L 149.93 118.31 C 150.58 117.71 150.61 116.69 150.00 116.04 C 149.40 115.40 148.38 115.37 147.73 115.97 Z M 147.04 116.62 L 146.33 117.26 C 145.67 117.86 145.62 118.87 146.21 119.53 C 146.81 120.19 147.82 120.25 148.48 119.65 L 149.20 119.01 C 149.86 118.41 149.91 117.40 149.32 116.74 C 148.72 116.08 147.70 116.02 147.04 116.62 Z M 146.35 117.24 L 145.63 117.87 C 144.96 118.45 144.90 119.47 145.48 120.14 C 146.06 120.81 147.08 120.88 147.75 120.29 L 148.47 119.67 C 149.13 119.08 149.20 118.07 148.62 117.40 C 148.03 116.73 147.02 116.66 146.35 117.24 Z M 145.65 117.85 L 144.90 118.49 C 144.22 119.06 144.13 120.08 144.71 120.76 C 145.28 121.44 146.30 121.52 146.98 120.95 L 147.73 120.31 C 148.41 119.74 148.50 118.72 147.92 118.04 C 147.35 117.36 146.33 117.28 145.65 117.85 Z M 144.92 118.47 L 144.10 119.13 C 143.41 119.69 143.31 120.71 143.87 121.40 C 144.44 122.09 145.45 122.19 146.14 121.63 L 146.96 120.97 C 147.65 120.41 147.75 119.39 147.19 118.70 C 146.62 118.01 145.61 117.91 144.92 118.47 Z M 144.12 119.11 L 143.34 119.73 C 142.64 120.29 142.52 121.30 143.07 122.00 C 143.62 122.70 144.64 122.82 145.34 122.27 L 146.12 121.65 C 146.82 121.10 146.94 120.08 146.39 119.38 C 145.84 118.68 144.82 118.56 144.12 119.11 Z M 143.35 119.72 L 142.57 120.32 C 141.86 120.87 141.73 121.88 142.28 122.59 C 142.82 123.30 143.84 123.43 144.55 122.88 L 145.33 122.28 C 146.03 121.74 146.16 120.72 145.62 120.01 C 145.07 119.31 144.06 119.17 143.35 119.72 Z M 142.58 120.31 L 141.77 120.93 C 141.06 121.47 140.92 122.49 141.46 123.20 C 142.00 123.91 143.02 124.05 143.73 123.51 L 144.54 122.89 C 145.25 122.35 145.39 121.33 144.85 120.62 C 144.31 119.91 143.29 119.77 142.58 120.31 Z M 141.77 120.92 L 140.95 121.54 C 140.24 122.08 140.10 123.10 140.64 123.81 C 141.18 124.53 142.20 124.67 142.91 124.13 L 143.73 123.51 C 144.45 122.97 144.59 121.95 144.05 121.24 C 143.51 120.52 142.49 120.38 141.77 120.92 Z M 140.95 121.53 L 140.13 122.15 C 139.41 122.70 139.27 123.72 139.81 124.44 C 140.36 125.15 141.38 125.30 142.09 124.75 L 142.92 124.13 C 143.63 123.59 143.78 122.57 143.23 121.85 C 142.69 121.13 141.67 120.99 140.95 121.53 Z M 140.13 122.15 L 139.30 122.78 C 138.58 123.32 138.44 124.35 138.98 125.07 C 139.52 125.79 140.55 125.93 141.27 125.38 L 142.10 124.76 C 142.82 124.21 142.96 123.19 142.42 122.47 C 141.87 121.75 140.85 121.61 140.13 122.15 Z M 139.30 122.77 L 138.49 123.38 C 137.77 123.92 137.62 124.95 138.17 125.67 C 138.71 126.40 139.74 126.54 140.46 126.00 L 141.27 125.39 C 141.99 124.85 142.14 123.82 141.59 123.10 C 141.05 122.37 140.02 122.23 139.30 122.77 Z M 138.49 123.37 L 137.71 123.95 C 136.98 124.49 136.83 125.52 137.37 126.25 C 137.91 126.98 138.94 127.13 139.67 126.59 L 140.46 126.01 C 141.18 125.47 141.34 124.44 140.79 123.71 C 140.25 122.98 139.22 122.83 138.49 123.37 Z M 137.72 123.94 L 136.89 124.54 C 136.15 125.08 135.99 126.11 136.53 126.85 C 137.06 127.58 138.10 127.75 138.83 127.21 L 139.66 126.60 C 140.40 126.07 140.56 125.04 140.02 124.30 C 139.49 123.56 138.46 123.40 137.72 123.94 Z M 136.89 124.54 L 135.80 125.32 C 135.06 125.86 134.90 126.90 135.44 127.64 C 135.98 128.38 137.01 128.54 137.75 128.00 L 138.83 127.22 C 139.58 126.68 139.74 125.64 139.20 124.90 C 138.66 124.16 137.63 124.00 136.89 124.54 Z M 135.68 125.40 L 135.05 125.95 C 134.36 126.55 134.28 127.61 134.89 128.30 C 135.49 129.00 136.55 129.08 137.24 128.47 L 137.87 127.93 C 138.57 127.32 138.64 126.27 138.04 125.57 C 137.44 124.87 136.38 124.80 135.68 125.40 Z M 134.94 128.37 L 135.11 128.55 C 135.75 129.22 136.81 129.24 137.48 128.59 C 138.15 127.95 138.17 126.89 137.52 126.22 L 137.36 126.04 C 136.71 125.38 135.65 125.36 134.98 126.00 C 134.32 126.64 134.30 127.71 134.94 128.37 Z M 136.70 129.02 L 137.67 128.79 C 138.58 128.57 139.13 127.67 138.92 126.77 C 138.71 125.86 137.80 125.30 136.90 125.52 L 135.93 125.75 C 135.03 125.96 134.47 126.87 134.68 127.77 C 134.90 128.67 135.80 129.23 136.70 129.02 Z M 137.87 128.73 L 139.07 128.29 C 139.94 127.96 140.38 127.00 140.06 126.13 C 139.74 125.26 138.77 124.82 137.90 125.14 L 136.70 125.58 C 135.83 125.90 135.39 126.86 135.71 127.73 C 136.03 128.60 137.00 129.05 137.87 128.73 Z M 139.18 128.23 L 140.01 127.85 C 140.85 127.47 141.22 126.48 140.84 125.64 C 140.46 124.80 139.47 124.43 138.63 124.81 L 137.79 125.19 C 136.95 125.57 136.58 126.56 136.96 127.40 C 137.34 128.24 138.34 128.61 139.18 128.23 Z M 140.08 127.81 L 140.94 127.36 C 141.76 126.94 142.07 125.94 141.65 125.12 C 141.23 124.31 140.23 123.99 139.41 124.41 L 138.56 124.86 C 137.74 125.28 137.43 126.28 137.85 127.09 C 138.27 127.91 139.27 128.23 140.08 127.81 Z M 140.99 127.32 L 141.91 126.80 C 142.70 126.35 142.98 125.34 142.53 124.55 C 142.08 123.76 141.08 123.48 140.29 123.93 L 139.37 124.45 C 138.57 124.90 138.30 125.91 138.74 126.70 C 139.19 127.49 140.20 127.77 140.99 127.32 Z M 141.94 126.77 L 142.84 126.23 C 143.62 125.77 143.87 124.77 143.41 123.99 C 142.95 123.21 141.94 122.96 141.16 123.42 L 140.26 123.96 C 139.48 124.42 139.23 125.43 139.69 126.20 C 140.16 126.98 141.16 127.23 141.94 126.77 Z M 142.85 126.22 L 143.71 125.69 C 144.48 125.22 144.72 124.22 144.25 123.45 C 143.78 122.69 142.77 122.44 142.01 122.91 L 141.15 123.44 C 140.38 123.91 140.14 124.91 140.61 125.68 C 141.08 126.45 142.09 126.69 142.85 126.22 Z M 143.72 125.68 L 144.60 125.13 C 145.36 124.65 145.58 123.65 145.11 122.89 C 144.63 122.13 143.63 121.90 142.87 122.38 L 141.99 122.93 C 141.23 123.41 141.01 124.41 141.48 125.17 C 141.96 125.93 142.96 126.15 143.72 125.68 Z M 144.61 125.11 L 145.47 124.55 C 146.22 124.07 146.44 123.07 145.95 122.32 C 145.47 121.57 144.47 121.36 143.72 121.84 L 142.86 122.40 C 142.11 122.88 141.89 123.88 142.38 124.63 C 142.86 125.38 143.86 125.59 144.61 125.11 Z M 145.49 124.54 L 146.30 123.99 C 147.04 123.50 147.24 122.50 146.75 121.76 C 146.26 121.02 145.26 120.82 144.52 121.32 L 143.70 121.86 C 142.97 122.35 142.76 123.35 143.26 124.09 C 143.75 124.83 144.75 125.03 145.49 124.54 Z M 146.33 123.97 L 147.20 123.35 C 147.93 122.85 148.11 121.85 147.60 121.13 C 147.09 120.40 146.10 120.22 145.37 120.73 L 144.49 121.34 C 143.77 121.85 143.59 122.85 144.10 123.57 C 144.60 124.30 145.60 124.47 146.33 123.97 Z M 147.24 123.31 L 148.05 122.70 C 148.75 122.18 148.89 121.18 148.37 120.48 C 147.84 119.78 146.84 119.64 146.14 120.16 L 145.33 120.77 C 144.63 121.30 144.49 122.30 145.02 123.00 C 145.55 123.70 146.54 123.84 147.24 123.31 Z M 148.10 122.65 L 148.83 122.05 C 149.51 121.49 149.60 120.50 149.04 119.82 C 148.49 119.15 147.49 119.06 146.82 119.61 L 146.09 120.22 C 145.42 120.77 145.32 121.77 145.88 122.44 C 146.44 123.11 147.43 123.21 148.10 122.65 Z M 148.88 121.99 L 149.58 121.35 C 150.22 120.77 150.27 119.77 149.68 119.14 C 149.10 118.50 148.11 118.45 147.47 119.03 L 146.77 119.67 C 146.13 120.25 146.09 121.25 146.67 121.88 C 147.25 122.52 148.24 122.57 148.88 121.99 Z M 149.63 121.30 L 150.31 120.62 C 150.92 120.02 150.93 119.03 150.32 118.42 C 149.71 117.80 148.72 117.80 148.11 118.41 L 147.43 119.08 C 146.82 119.69 146.81 120.68 147.42 121.29 C 148.03 121.90 149.01 121.91 149.63 121.30 Z M 150.34 120.59 L 151.03 119.87 C 151.62 119.25 151.60 118.26 150.98 117.66 C 150.35 117.07 149.36 117.09 148.77 117.72 L 148.08 118.44 C 147.48 119.06 147.51 120.05 148.13 120.64 C 148.76 121.24 149.74 121.22 150.34 120.59 Z M 151.05 119.85 L 151.74 119.10 C 152.32 118.47 152.28 117.48 151.65 116.90 C 151.02 116.31 150.03 116.35 149.44 116.98 L 148.75 117.73 C 148.17 118.37 148.21 119.36 148.84 119.94 C 149.47 120.53 150.46 120.49 151.05 119.85 Z M 151.75 119.09 L 152.26 118.52 C 152.84 117.89 152.80 116.90 152.16 116.32 C 151.52 115.74 150.54 115.79 149.95 116.42 L 149.44 116.99 C 148.86 117.63 148.90 118.62 149.54 119.20 C 150.18 119.78 151.17 119.73 151.75 119.09 Z"
      fill="black"
      fill-rule="nonzero" /><path d="M 127.04 113.44 L 126.29 114.11 C 125.60 114.73 125.55 115.79 126.17 116.48 C 126.79 117.17 127.85 117.23 128.54 116.61 L 129.29 115.94 C 129.98 115.32 130.03 114.26 129.41 113.57 C 128.80 112.88 127.73 112.82 127.04 113.44 Z M 126.25 114.14 L 125.52 114.83 C 124.85 115.47 124.82 116.54 125.46 117.22 C 126.11 117.90 127.18 117.92 127.86 117.28 L 128.58 116.59 C 129.26 115.94 129.28 114.87 128.64 114.20 C 128.00 113.52 126.93 113.49 126.25 114.14 Z M 125.44 114.89 L 124.77 115.61 C 124.12 116.30 124.16 117.38 124.85 118.02 C 125.54 118.67 126.62 118.63 127.26 117.94 L 127.94 117.22 C 128.58 116.53 128.54 115.45 127.85 114.81 C 127.16 114.16 126.08 114.20 125.44 114.89 Z M 124.65 115.72 L 124.04 116.51 C 123.46 117.26 123.60 118.34 124.35 118.93 C 125.10 119.51 126.18 119.37 126.76 118.62 L 127.37 117.83 C 127.96 117.08 127.82 116.00 127.07 115.42 C 126.32 114.84 125.24 114.97 124.65 115.72 Z M 123.92 116.65 L 123.40 117.50 C 122.89 118.32 123.15 119.39 123.96 119.89 C 124.78 120.40 125.85 120.15 126.36 119.33 L 126.88 118.48 C 127.39 117.66 127.13 116.59 126.32 116.09 C 125.50 115.58 124.43 115.84 123.92 116.65 Z M 123.29 117.67 L 122.86 118.57 C 122.45 119.45 122.83 120.50 123.71 120.91 C 124.59 121.32 125.63 120.94 126.04 120.07 L 126.47 119.16 C 126.88 118.28 126.50 117.24 125.62 116.82 C 124.74 116.41 123.70 116.79 123.29 117.67 Z M 122.77 118.76 L 122.46 119.70 C 122.15 120.63 122.66 121.63 123.58 121.94 C 124.51 122.25 125.51 121.74 125.82 120.82 L 126.13 119.88 C 126.44 118.95 125.94 117.95 125.01 117.64 C 124.08 117.33 123.08 117.83 122.77 118.76 Z M 122.41 119.87 L 122.19 120.85 C 121.98 121.80 122.58 122.75 123.54 122.96 C 124.50 123.18 125.44 122.57 125.66 121.62 L 125.87 120.64 C 126.09 119.69 125.48 118.74 124.53 118.53 C 123.57 118.31 122.62 118.92 122.41 119.87 Z M 122.17 120.99 L 122.03 121.98 C 121.89 122.96 122.57 123.85 123.54 123.99 C 124.51 124.12 125.41 123.45 125.54 122.48 L 125.68 121.48 C 125.82 120.51 125.14 119.61 124.17 119.47 C 123.20 119.34 122.30 120.02 122.17 120.99 Z M 122.02 122.09 L 121.94 123.05 C 121.86 124.03 122.59 124.88 123.56 124.96 C 124.54 125.04 125.40 124.31 125.48 123.33 L 125.55 122.37 C 125.63 121.40 124.90 120.54 123.93 120.46 C 122.95 120.38 122.09 121.11 122.02 122.09 Z M 121.94 123.12 L 121.90 124.07 C 121.86 125.05 122.62 125.88 123.60 125.92 C 124.58 125.95 125.40 125.19 125.44 124.21 L 125.48 123.26 C 125.52 122.28 124.75 121.46 123.78 121.42 C 122.80 121.38 121.97 122.14 121.94 123.12 Z M 121.90 124.12 L 121.89 125.13 C 121.88 126.11 122.66 126.91 123.64 126.92 C 124.61 126.93 125.42 126.15 125.43 125.17 L 125.44 124.17 C 125.45 123.19 124.67 122.38 123.69 122.37 C 122.71 122.36 121.91 123.14 121.90 124.12 Z M 121.89 125.15 L 121.89 126.21 C 121.89 127.18 122.68 127.98 123.65 127.98 C 124.63 127.98 125.42 127.19 125.43 126.21 L 125.43 125.15 C 125.43 124.18 124.64 123.38 123.66 123.38 C 122.68 123.38 121.89 124.17 121.89 125.15 Z M 121.89 126.21 L 121.89 127.11 C 121.89 128.09 122.68 128.88 123.66 128.88 C 124.63 128.88 125.42 128.09 125.42 127.11 L 125.42 126.21 C 125.42 125.23 124.63 124.44 123.66 124.44 C 122.68 124.44 121.89 125.23 121.89 126.21 Z M 121.90 127.11 L 121.90 128.08 C 121.90 129.05 122.68 129.84 123.66 129.84 C 124.63 129.84 125.42 129.05 125.42 128.08 L 125.42 127.11 C 125.42 126.14 124.63 125.35 123.66 125.35 C 122.68 125.35 121.90 126.14 121.90 127.11 Z M 121.90 128.08 L 121.90 129.11 C 121.90 130.08 122.69 130.86 123.66 130.86 C 124.63 130.86 125.41 130.08 125.41 129.11 L 125.41 128.08 C 125.41 127.11 124.63 126.32 123.66 126.32 C 122.69 126.32 121.90 127.11 121.90 128.08 Z M 121.90 129.11 L 121.90 130.19 C 121.90 131.15 122.69 131.94 123.66 131.94 C 124.63 131.94 125.41 131.15 125.41 130.19 L 125.41 129.11 C 125.41 128.14 124.63 127.35 123.66 127.35 C 122.69 127.35 121.90 128.14 121.90 129.11 Z M 121.91 130.19 L 121.91 131.25 C 121.91 132.22 122.69 133.00 123.66 133.00 C 124.62 133.00 125.41 132.21 125.41 131.25 L 125.41 130.19 C 125.41 129.22 124.62 128.44 123.66 128.44 C 122.69 128.44 121.91 129.22 121.91 130.19 Z M 121.91 131.25 L 121.91 132.30 C 121.91 133.26 122.70 134.04 123.66 134.04 C 124.62 134.04 125.40 133.26 125.40 132.29 L 125.40 131.25 C 125.40 130.29 124.62 129.51 123.66 129.51 C 122.69 129.51 121.91 130.29 121.91 131.25 Z M 121.92 132.30 L 121.92 133.34 C 121.92 134.30 122.70 135.07 123.66 135.07 C 124.62 135.07 125.40 134.29 125.40 133.33 L 125.40 132.29 C 125.39 131.33 124.61 130.55 123.65 130.56 C 122.69 130.56 121.92 131.34 121.92 132.30 Z M 121.93 133.34 L 121.93 134.34 C 121.94 135.30 122.72 136.07 123.67 136.07 C 124.63 136.06 125.40 135.28 125.40 134.33 L 125.39 133.32 C 125.39 132.37 124.61 131.59 123.65 131.60 C 122.69 131.60 121.92 132.38 121.93 133.34 Z M 121.94 134.35 L 121.95 135.29 C 121.96 136.25 122.74 137.01 123.69 137.00 C 124.64 136.99 125.41 136.21 125.40 135.26 L 125.39 134.32 C 125.38 133.37 124.60 132.60 123.65 132.61 C 122.69 132.62 121.93 133.40 121.94 134.35 Z M 121.95 135.31 L 121.97 136.36 C 121.99 137.31 122.77 138.07 123.72 138.05 C 124.67 138.04 125.43 137.25 125.41 136.30 L 125.40 135.25 C 125.38 134.30 124.60 133.54 123.64 133.56 C 122.69 133.57 121.94 134.36 121.95 135.31 Z M 121.98 136.38 L 122.01 137.42 C 122.04 138.37 122.83 139.12 123.77 139.09 C 124.72 139.06 125.47 138.27 125.44 137.32 L 125.41 136.28 C 125.38 135.33 124.59 134.59 123.64 134.62 C 122.69 134.64 121.95 135.43 121.98 136.38 Z M 122.01 137.45 L 122.06 138.39 C 122.10 139.33 122.90 140.07 123.84 140.02 C 124.78 139.98 125.51 139.18 125.47 138.24 L 125.43 137.30 C 125.39 136.35 124.59 135.62 123.65 135.66 C 122.70 135.71 121.97 136.51 122.01 137.45 Z M 122.06 138.41 L 122.11 139.32 C 122.17 140.26 122.97 140.98 123.91 140.93 C 124.86 140.87 125.57 140.07 125.52 139.13 L 125.47 138.22 C 125.41 137.28 124.61 136.56 123.67 136.61 C 122.73 136.67 122.01 137.47 122.06 138.41 Z M 122.12 139.34 L 122.18 140.31 C 122.25 141.25 123.06 141.96 124.00 141.89 C 124.93 141.83 125.64 141.02 125.58 140.08 L 125.51 139.11 C 125.45 138.17 124.64 137.46 123.70 137.53 C 122.76 137.59 122.06 138.40 122.12 139.34 Z M 122.19 140.31 L 122.26 141.31 C 122.32 142.25 123.13 142.95 124.07 142.89 C 125.01 142.82 125.71 142.01 125.65 141.07 L 125.58 140.08 C 125.51 139.14 124.70 138.43 123.76 138.50 C 122.83 138.57 122.12 139.38 122.19 140.31 Z M 122.26 141.30 L 122.32 142.32 C 122.38 143.26 123.19 143.97 124.13 143.91 C 125.06 143.85 125.77 143.04 125.71 142.10 L 125.65 141.08 C 125.59 140.15 124.78 139.44 123.84 139.50 C 122.91 139.56 122.20 140.37 122.26 141.30 Z M 122.32 142.30 L 122.38 143.29 C 122.43 144.22 123.23 144.94 124.16 144.89 C 125.10 144.84 125.82 144.04 125.77 143.10 L 125.71 142.12 C 125.66 141.18 124.86 140.47 123.92 140.52 C 122.99 140.57 122.27 141.37 122.32 142.30 Z M 122.38 143.27 L 122.42 144.25 C 122.46 145.19 123.26 145.91 124.19 145.87 C 125.13 145.83 125.85 145.04 125.81 144.10 L 125.77 143.12 C 125.72 142.18 124.93 141.45 123.99 141.50 C 123.06 141.54 122.33 142.33 122.38 143.27 Z M 122.42 144.24 L 122.46 145.25 C 122.50 146.19 123.29 146.92 124.22 146.88 C 125.16 146.85 125.89 146.06 125.85 145.12 L 125.81 144.11 C 125.78 143.17 124.99 142.44 124.05 142.48 C 123.11 142.52 122.38 143.31 122.42 144.24 Z M 122.46 145.25 L 122.50 146.27 C 122.53 147.21 123.32 147.94 124.25 147.91 C 125.19 147.88 125.92 147.09 125.89 146.15 L 125.85 145.13 C 125.82 144.19 125.03 143.46 124.10 143.49 C 123.16 143.52 122.43 144.31 122.46 145.25 Z M 122.50 146.27 L 122.53 147.27 C 122.56 148.21 123.35 148.94 124.29 148.91 C 125.22 148.87 125.96 148.09 125.92 147.15 L 125.89 146.16 C 125.86 145.22 125.07 144.49 124.13 144.52 C 123.20 144.55 122.46 145.34 122.50 146.27 Z M 122.53 147.27 L 122.57 148.28 C 122.60 149.21 123.38 149.94 124.32 149.91 C 125.26 149.88 125.99 149.10 125.96 148.16 L 125.92 147.15 C 125.89 146.22 125.11 145.48 124.17 145.51 C 123.23 145.55 122.50 146.33 122.53 147.27 Z M 122.57 148.28 L 122.60 149.28 C 122.63 150.22 123.42 150.95 124.35 150.92 C 125.29 150.88 126.02 150.10 125.99 149.16 L 125.96 148.16 C 125.92 147.22 125.14 146.49 124.20 146.52 C 123.27 146.55 122.53 147.34 122.57 148.28 Z M 122.60 149.28 L 122.64 150.28 C 122.67 151.22 123.45 151.95 124.39 151.92 C 125.33 151.89 126.06 151.10 126.03 150.16 L 125.99 149.16 C 125.96 148.23 125.17 147.49 124.24 147.53 C 123.30 147.56 122.57 148.34 122.60 149.28 Z M 122.64 150.28 L 122.67 151.30 C 122.71 152.24 123.49 152.97 124.43 152.93 C 125.36 152.90 126.10 152.11 126.06 151.18 L 126.03 150.16 C 125.99 149.23 125.21 148.49 124.27 148.53 C 123.33 148.56 122.60 149.35 122.64 150.28 Z M 122.67 151.30 L 122.71 152.30 C 122.74 153.23 123.53 153.96 124.47 153.93 C 125.40 153.90 126.13 153.11 126.10 152.17 L 126.06 151.18 C 126.03 150.24 125.24 149.51 124.31 149.54 C 123.37 149.58 122.64 150.36 122.67 151.30 Z M 122.71 152.30 L 122.74 153.28 C 122.78 154.22 123.57 154.95 124.50 154.91 C 125.44 154.88 126.17 154.09 126.14 153.16 L 126.10 152.17 C 126.06 151.23 125.28 150.50 124.34 150.54 C 123.40 150.57 122.67 151.36 122.71 152.30 Z M 122.74 153.28 L 122.78 154.27 C 122.82 155.21 123.60 155.94 124.54 155.91 C 125.48 155.87 126.21 155.09 126.17 154.15 L 126.14 153.16 C 126.10 152.22 125.31 151.49 124.38 151.52 C 123.44 151.56 122.71 152.34 122.74 153.28 Z M 122.78 154.27 L 122.82 155.27 C 122.85 156.21 123.64 156.94 124.58 156.91 C 125.51 156.87 126.25 156.09 126.21 155.15 L 126.17 154.15 C 126.14 153.21 125.35 152.48 124.41 152.51 C 123.48 152.55 122.74 153.34 122.78 154.27 Z M 122.82 155.27 L 122.85 156.27 C 122.89 157.21 123.68 157.94 124.61 157.91 C 125.55 157.87 126.28 157.08 126.25 156.15 L 126.21 155.15 C 126.18 154.21 125.39 153.48 124.45 153.51 C 123.51 153.55 122.78 154.34 122.82 155.27 Z M 122.85 156.27 L 122.89 157.27 C 122.92 158.21 123.71 158.94 124.65 158.91 C 125.59 158.87 126.32 158.08 126.29 157.15 L 126.25 156.15 C 126.21 155.21 125.43 154.48 124.49 154.51 C 123.55 154.55 122.82 155.33 122.85 156.27 Z M 122.89 157.27 L 122.92 158.27 C 122.96 159.21 123.75 159.94 124.69 159.91 C 125.63 159.87 126.36 159.08 126.32 158.15 L 126.29 157.15 C 126.25 156.21 125.46 155.47 124.52 155.51 C 123.59 155.54 122.85 156.33 122.89 157.27 Z M 122.92 158.27 L 122.96 159.27 C 122.99 160.21 123.78 160.94 124.72 160.91 C 125.66 160.87 126.40 160.08 126.36 159.14 L 126.33 158.15 C 126.29 157.21 125.50 156.47 124.56 156.51 C 123.62 156.54 122.89 157.33 122.92 158.27 Z M 122.96 159.27 L 123.00 160.27 C 123.03 161.21 123.82 161.95 124.76 161.91 C 125.70 161.88 126.44 161.09 126.40 160.14 L 126.37 159.14 C 126.33 158.20 125.54 157.47 124.60 157.50 C 123.66 157.54 122.92 158.33 122.96 159.27 Z M 122.99 160.27 L 123.03 161.27 C 123.07 162.21 123.86 162.95 124.80 162.91 C 125.74 162.88 126.48 162.09 126.44 161.14 L 126.40 160.14 C 126.37 159.20 125.58 158.47 124.64 158.50 C 123.69 158.54 122.96 159.33 122.99 160.27 Z M 123.03 161.27 L 123.06 162.27 C 123.10 163.21 123.89 163.95 124.83 163.91 C 125.77 163.88 126.51 163.09 126.48 162.15 L 126.44 161.15 C 126.41 160.20 125.62 159.47 124.68 159.50 C 123.73 159.53 122.99 160.32 123.03 161.27 Z M 123.06 162.26 L 123.09 163.26 C 123.12 164.20 123.91 164.94 124.86 164.91 C 125.80 164.89 126.54 164.10 126.51 163.15 L 126.48 162.15 C 126.45 161.21 125.66 160.47 124.72 160.50 C 123.77 160.53 123.03 161.32 123.06 162.26 Z M 123.09 163.25 L 123.12 164.25 C 123.14 165.19 123.92 165.94 124.87 165.92 C 125.81 165.89 126.56 165.11 126.54 164.16 L 126.51 163.16 C 126.49 162.22 125.71 161.47 124.76 161.49 C 123.82 161.52 123.07 162.30 123.09 163.25 Z M 123.11 164.23 L 123.13 165.13 C 123.14 166.07 123.92 166.83 124.87 166.81 C 125.81 166.80 126.57 166.02 126.55 165.07 L 126.54 164.18 C 126.52 163.23 125.75 162.48 124.80 162.49 C 123.85 162.51 123.10 163.29 123.11 164.23 Z M 123.13 165.12 L 123.14 166.04 C 123.15 166.99 123.93 167.75 124.87 167.73 C 125.82 167.72 126.58 166.95 126.57 166.00 L 126.55 165.08 C 126.54 164.13 125.77 163.37 124.82 163.38 C 123.87 163.40 123.11 164.17 123.13 165.12 Z M 123.14 166.04 L 123.15 167.05 C 123.16 168.00 123.94 168.75 124.89 168.74 C 125.84 168.73 126.59 167.95 126.58 167.00 L 126.57 166.00 C 126.55 165.05 125.77 164.29 124.83 164.30 C 123.88 164.32 123.12 165.10 123.14 166.04 Z M 123.15 167.06 L 123.17 168.20 C 123.19 169.14 123.98 169.90 124.92 169.88 C 125.87 169.86 126.62 169.07 126.61 168.13 L 126.58 166.99 C 126.56 166.04 125.78 165.29 124.83 165.31 C 123.88 165.33 123.13 166.11 123.15 167.06 Z M 123.17 168.21 L 123.20 169.19 C 123.22 170.14 124.01 170.89 124.96 170.86 C 125.91 170.83 126.66 170.04 126.63 169.09 L 126.61 168.11 C 126.58 167.16 125.79 166.42 124.84 166.44 C 123.89 166.47 123.14 167.26 123.17 168.21 Z M 123.20 169.20 L 123.23 170.18 C 123.26 171.13 124.05 171.88 125.00 171.84 C 125.95 171.81 126.70 171.02 126.67 170.07 L 126.64 169.08 C 126.60 168.13 125.81 167.39 124.86 167.42 C 123.91 167.45 123.16 168.25 123.20 169.20 Z M 123.23 170.19 L 123.26 171.21 C 123.30 172.16 124.10 172.91 125.05 172.87 C 126.00 172.84 126.74 172.04 126.71 171.09 L 126.67 170.06 C 126.64 169.11 125.84 168.37 124.88 168.40 C 123.93 168.44 123.19 169.24 123.23 170.19 Z M 123.26 171.22 L 123.30 172.26 C 123.34 173.21 124.14 173.95 125.10 173.91 C 126.05 173.88 126.79 173.07 126.75 172.12 L 126.71 171.08 C 126.67 170.13 125.87 169.39 124.92 169.43 C 123.96 169.46 123.22 170.27 123.26 171.22 Z M 123.30 172.26 L 123.35 173.29 C 123.39 174.24 124.19 174.98 125.15 174.94 C 126.10 174.90 126.84 174.09 126.80 173.14 L 126.75 172.11 C 126.71 171.16 125.91 170.42 124.95 170.46 C 124.00 170.50 123.26 171.31 123.30 172.26 Z M 123.34 173.30 L 123.39 174.29 C 123.43 175.25 124.24 175.98 125.20 175.94 C 126.15 175.90 126.89 175.08 126.85 174.13 L 126.80 173.13 C 126.76 172.18 125.95 171.44 124.99 171.49 C 124.04 171.53 123.30 172.34 123.34 173.30 Z M 123.39 174.30 L 123.45 175.44 C 123.50 176.39 124.31 177.13 125.27 177.08 C 126.23 177.02 126.96 176.21 126.91 175.25 L 126.85 174.12 C 126.80 173.16 125.98 172.43 125.03 172.48 C 124.07 172.53 123.34 173.35 123.39 174.30 Z M 123.45 175.46 L 123.52 176.51 C 123.59 177.46 124.41 178.18 125.37 178.12 C 126.33 178.05 127.05 177.22 126.98 176.27 L 126.91 175.22 C 126.84 174.27 126.01 173.55 125.06 173.61 C 124.10 173.68 123.38 174.51 123.45 175.46 Z M 123.52 176.56 L 123.62 177.53 C 123.72 178.48 124.57 179.18 125.52 179.08 C 126.48 178.98 127.17 178.13 127.08 177.18 L 126.98 176.21 C 126.88 175.26 126.03 174.56 125.08 174.66 C 124.12 174.75 123.43 175.61 123.52 176.56 Z M 123.63 177.61 L 123.76 178.51 C 123.90 179.46 124.79 180.11 125.74 179.97 C 126.69 179.83 127.34 178.95 127.20 177.99 L 127.07 177.09 C 126.93 176.14 126.04 175.49 125.09 175.63 C 124.14 175.77 123.49 176.66 123.63 177.61 Z M 123.78 178.63 L 123.99 179.59 C 124.20 180.53 125.13 181.12 126.07 180.91 C 127.01 180.71 127.60 179.78 127.40 178.84 L 127.18 177.88 C 126.98 176.94 126.05 176.34 125.11 176.55 C 124.17 176.76 123.57 177.69 123.78 178.63 Z M 124.04 179.78 L 124.39 180.79 C 124.70 181.71 125.69 182.19 126.60 181.88 C 127.52 181.57 128.00 180.58 127.69 179.67 L 127.35 178.65 C 127.03 177.74 126.04 177.25 125.13 177.56 C 124.22 177.87 123.73 178.86 124.04 179.78 Z M 124.52 181.08 L 124.99 181.93 C 125.46 182.78 126.52 183.08 127.36 182.61 C 128.21 182.14 128.51 181.08 128.04 180.24 L 127.57 179.38 C 127.10 178.54 126.04 178.24 125.19 178.71 C 124.35 179.18 124.05 180.24 124.52 181.08 Z M 125.28 182.32 L 125.90 182.94 C 126.58 183.63 127.69 183.63 128.37 182.95 C 129.06 182.27 129.06 181.17 128.38 180.48 L 127.75 179.85 C 127.07 179.17 125.97 179.17 125.29 179.85 C 124.60 180.53 124.60 181.63 125.28 182.32 Z M 126.45 183.31 L 127.30 183.68 C 128.18 184.07 129.21 183.66 129.59 182.78 C 129.98 181.90 129.57 180.87 128.69 180.49 L 127.84 180.11 C 126.95 179.73 125.93 180.13 125.54 181.02 C 125.16 181.90 125.56 182.93 126.45 183.31 Z M 127.85 183.82 L 128.83 183.90 C 129.79 183.98 130.63 183.27 130.71 182.31 C 130.79 181.35 130.08 180.51 129.12 180.43 L 128.14 180.35 C 127.18 180.27 126.34 180.98 126.26 181.94 C 126.18 182.90 126.89 183.74 127.85 183.82 Z M 129.24 183.88 L 130.27 183.73 C 131.22 183.58 131.87 182.70 131.72 181.75 C 131.58 180.80 130.69 180.15 129.75 180.29 L 128.72 180.45 C 127.77 180.59 127.12 181.48 127.26 182.43 C 127.40 183.38 128.29 184.03 129.24 183.88 Z M 130.55 183.65 L 131.44 183.36 C 132.35 183.06 132.84 182.07 132.54 181.17 C 132.24 180.26 131.26 179.77 130.35 180.07 L 129.46 180.37 C 128.55 180.67 128.06 181.65 128.36 182.56 C 128.66 183.47 129.65 183.96 130.55 183.65 Z M 131.66 183.26 L 132.49 182.85 C 133.34 182.43 133.69 181.40 133.27 180.54 C 132.85 179.69 131.81 179.34 130.96 179.76 L 130.13 180.17 C 129.28 180.59 128.93 181.62 129.35 182.48 C 129.77 183.33 130.81 183.68 131.66 183.26 Z M 132.64 182.75 L 133.49 182.21 C 134.29 181.70 134.52 180.64 134.01 179.85 C 133.50 179.05 132.44 178.81 131.64 179.32 L 130.80 179.86 C 130.00 180.37 129.77 181.43 130.28 182.23 C 130.79 183.03 131.85 183.26 132.64 182.75 Z M 133.59 182.13 L 134.49 181.46 C 135.25 180.89 135.40 179.82 134.83 179.07 C 134.27 178.31 133.20 178.16 132.45 178.73 L 131.54 179.40 C 130.79 179.97 130.64 181.04 131.20 181.79 C 131.77 182.54 132.84 182.70 133.59 182.13 Z M 134.54 181.41 L 135.29 180.80 C 136.01 180.20 136.12 179.13 135.53 178.41 C 134.93 177.68 133.87 177.57 133.14 178.17 L 132.39 178.78 C 131.67 179.37 131.56 180.44 132.15 181.17 C 132.75 181.89 133.82 182.00 134.54 181.41 Z M 135.32 180.76 L 136.07 180.11 C 136.77 179.50 136.85 178.44 136.24 177.73 C 135.63 177.02 134.56 176.95 133.86 177.56 L 133.11 178.20 C 132.40 178.81 132.33 179.88 132.94 180.59 C 133.55 181.29 134.61 181.37 135.32 180.76 Z M 136.09 180.08 L 136.85 179.39 C 137.54 178.77 137.59 177.70 136.97 177.02 C 136.35 176.33 135.28 176.28 134.59 176.90 L 133.83 177.59 C 133.15 178.21 133.09 179.28 133.72 179.96 C 134.34 180.65 135.40 180.70 136.09 180.08 Z M 136.88 179.36 L 137.63 178.64 C 138.30 178.01 138.32 176.95 137.68 176.28 C 137.05 175.61 135.99 175.58 135.32 176.22 L 134.57 176.93 C 133.90 177.57 133.87 178.63 134.51 179.30 C 135.15 179.97 136.21 179.99 136.88 179.36 Z M 137.65 178.61 L 138.37 177.89 C 139.02 177.24 139.02 176.18 138.36 175.53 C 137.71 174.88 136.66 174.89 136.01 175.54 L 135.29 176.26 C 134.64 176.91 134.65 177.96 135.30 178.61 C 135.95 179.26 137.00 179.26 137.65 178.61 Z M 138.40 177.84 L 139.11 177.08 C 139.74 176.41 139.70 175.36 139.04 174.74 C 138.37 174.11 137.32 174.15 136.70 174.82 L 135.98 175.58 C 135.36 176.25 135.39 177.30 136.06 177.92 C 136.73 178.55 137.77 178.51 138.40 177.84 Z M 139.15 177.02 L 139.82 176.24 C 140.42 175.56 140.34 174.52 139.66 173.93 C 138.97 173.33 137.94 173.41 137.34 174.09 L 136.67 174.87 C 136.07 175.56 136.15 176.59 136.83 177.19 C 137.52 177.78 138.55 177.71 139.15 177.02 Z M 139.85 176.18 L 140.47 175.41 C 141.03 174.71 140.92 173.69 140.22 173.13 C 139.52 172.56 138.50 172.67 137.94 173.37 L 137.32 174.15 C 136.75 174.84 136.86 175.87 137.56 176.43 C 138.26 177.00 139.29 176.88 139.85 176.18 Z M 140.49 175.36 L 141.07 174.59 C 141.61 173.88 141.46 172.87 140.75 172.33 C 140.04 171.80 139.03 171.94 138.49 172.65 L 137.91 173.43 C 137.38 174.14 137.52 175.15 138.24 175.68 C 138.95 176.22 139.96 176.07 140.49 175.36 Z M 141.09 174.55 L 141.64 173.76 C 142.15 173.04 141.98 172.05 141.26 171.54 C 140.54 171.03 139.54 171.20 139.03 171.92 L 138.48 172.70 C 137.97 173.42 138.14 174.42 138.86 174.93 C 139.58 175.44 140.58 175.27 141.09 174.55 Z M 141.65 173.73 L 142.18 172.94 C 142.67 172.22 142.48 171.23 141.75 170.74 C 141.02 170.25 140.03 170.45 139.54 171.17 L 139.02 171.96 C 138.53 172.68 138.72 173.67 139.45 174.16 C 140.18 174.65 141.16 174.46 141.65 173.73 Z M 142.20 172.90 L 142.71 172.09 C 143.18 171.35 142.96 170.37 142.22 169.91 C 141.48 169.44 140.50 169.66 140.04 170.40 L 139.52 171.22 C 139.06 171.96 139.28 172.93 140.02 173.40 C 140.76 173.86 141.73 173.64 142.20 172.90 Z M 142.74 172.03 L 143.24 171.17 C 143.67 170.42 143.42 169.46 142.66 169.02 C 141.91 168.58 140.95 168.84 140.51 169.59 L 140.01 170.45 C 139.57 171.21 139.83 172.17 140.58 172.61 C 141.34 173.04 142.30 172.79 142.74 172.03 Z M 143.26 171.11 L 143.75 170.19 C 144.15 169.43 143.85 168.48 143.09 168.07 C 142.32 167.67 141.37 167.97 140.97 168.73 L 140.48 169.65 C 140.08 170.42 140.37 171.37 141.14 171.77 C 141.91 172.18 142.86 171.88 143.26 171.11 Z M 143.77 170.13 L 144.22 169.19 C 144.58 168.41 144.25 167.48 143.47 167.11 C 142.68 166.74 141.75 167.08 141.38 167.86 L 140.94 168.80 C 140.57 169.58 140.91 170.51 141.69 170.88 C 142.47 171.25 143.40 170.91 143.77 170.13 Z M 144.24 169.14 L 144.61 168.27 C 144.95 167.48 144.58 166.56 143.78 166.22 C 142.99 165.88 142.07 166.25 141.73 167.04 L 141.36 167.91 C 141.02 168.71 141.39 169.63 142.18 169.96 C 142.98 170.30 143.90 169.93 144.24 169.14 Z M 144.62 168.23 L 144.98 167.32 C 145.30 166.52 144.91 165.61 144.10 165.29 C 143.30 164.98 142.39 165.37 142.08 166.17 L 141.71 167.08 C 141.40 167.88 141.79 168.79 142.59 169.11 C 143.39 169.43 144.30 169.04 144.62 168.23 Z M 144.99 167.30 L 145.35 166.35 C 145.65 165.54 145.24 164.64 144.43 164.34 C 143.62 164.04 142.72 164.45 142.42 165.25 L 142.07 166.20 C 141.76 167.01 142.17 167.91 142.98 168.21 C 143.79 168.51 144.69 168.10 144.99 167.30 Z M 145.35 166.33 L 145.70 165.36 C 145.99 164.55 145.57 163.66 144.76 163.37 C 143.95 163.07 143.05 163.49 142.76 164.31 L 142.41 165.27 C 142.12 166.09 142.54 166.98 143.35 167.27 C 144.17 167.56 145.06 167.14 145.35 166.33 Z M 145.70 165.35 L 146.05 164.37 C 146.34 163.56 145.91 162.67 145.09 162.38 C 144.28 162.09 143.39 162.52 143.10 163.33 L 142.76 164.32 C 142.47 165.13 142.90 166.02 143.71 166.31 C 144.53 166.59 145.42 166.17 145.70 165.35 Z M 146.05 164.37 L 146.22 163.89 C 146.50 163.08 146.07 162.19 145.26 161.90 C 144.44 161.62 143.55 162.05 143.27 162.86 L 143.10 163.34 C 142.82 164.15 143.25 165.04 144.06 165.33 C 144.88 165.61 145.77 165.18 146.05 164.37 Z"
      fill="black"
      fill-rule="nonzero" /><path d="M 130.88 154.27 L 131.42 153.57 C 131.96 152.88 131.83 151.88 131.14 151.34 C 130.44 150.80 129.45 150.93 128.91 151.62 L 128.37 152.32 C 127.83 153.01 127.96 154.01 128.65 154.55 C 129.34 155.08 130.34 154.96 130.88 154.27 Z M 131.41 153.66 L 132.01 152.96 C 132.60 152.27 132.52 151.24 131.83 150.65 C 131.15 150.06 130.11 150.14 129.52 150.83 L 128.92 151.53 C 128.33 152.22 128.41 153.25 129.10 153.84 C 129.79 154.43 130.82 154.35 131.41 153.66 Z M 131.96 153.10 L 132.68 152.39 C 133.35 151.73 133.36 150.66 132.70 149.99 C 132.04 149.32 130.97 149.31 130.30 149.97 L 129.58 150.69 C 128.91 151.34 128.90 152.42 129.56 153.08 C 130.22 153.75 131.29 153.76 131.96 153.10 Z M 132.59 152.54 L 133.50 151.81 C 134.25 151.20 134.37 150.10 133.76 149.35 C 133.16 148.60 132.06 148.48 131.30 149.08 L 130.39 149.82 C 129.64 150.42 129.52 151.52 130.13 152.28 C 130.73 153.03 131.84 153.15 132.59 152.54 Z M 133.40 151.91 L 134.12 151.42 C 134.93 150.87 135.14 149.76 134.59 148.95 C 134.03 148.14 132.93 147.93 132.12 148.49 L 131.40 148.98 C 130.59 149.53 130.38 150.64 130.94 151.45 C 131.49 152.26 132.59 152.47 133.40 151.91 Z M 134.06 151.46 L 134.86 150.96 C 135.69 150.44 135.95 149.35 135.43 148.52 C 134.91 147.69 133.82 147.43 132.99 147.95 L 132.19 148.45 C 131.35 148.96 131.10 150.06 131.62 150.89 C 132.13 151.72 133.23 151.98 134.06 151.46 Z M 134.82 150.99 L 135.68 150.48 C 136.53 149.99 136.81 148.90 136.32 148.06 C 135.83 147.21 134.74 146.93 133.90 147.42 L 133.03 147.92 C 132.19 148.42 131.90 149.50 132.39 150.35 C 132.89 151.19 133.97 151.48 134.82 150.99 Z M 135.65 150.50 L 136.56 149.99 C 137.42 149.51 137.72 148.43 137.25 147.58 C 136.77 146.73 135.69 146.42 134.84 146.90 L 133.93 147.40 C 133.07 147.88 132.77 148.96 133.24 149.81 C 133.72 150.67 134.80 150.97 135.65 150.50 Z M 136.55 149.99 L 137.48 149.48 C 138.34 149.02 138.65 147.94 138.19 147.08 C 137.72 146.23 136.64 145.91 135.79 146.38 L 134.85 146.89 C 134.00 147.36 133.68 148.43 134.15 149.29 C 134.62 150.15 135.69 150.46 136.55 149.99 Z M 137.48 149.48 L 138.41 148.98 C 139.27 148.51 139.59 147.44 139.12 146.58 C 138.66 145.72 137.58 145.41 136.73 145.87 L 135.79 146.38 C 134.93 146.85 134.62 147.92 135.08 148.78 C 135.55 149.63 136.62 149.95 137.48 149.48 Z M 138.42 148.97 L 139.38 148.44 C 140.24 147.97 140.55 146.90 140.08 146.04 C 139.61 145.19 138.54 144.88 137.69 145.35 L 136.72 145.88 C 135.87 146.35 135.56 147.42 136.03 148.27 C 136.49 149.13 137.57 149.44 138.42 148.97 Z M 139.39 148.43 L 140.33 147.90 C 141.18 147.43 141.48 146.36 141.01 145.51 C 140.54 144.67 139.47 144.36 138.62 144.84 L 137.68 145.36 C 136.83 145.83 136.53 146.90 137.00 147.75 C 137.47 148.59 138.54 148.90 139.39 148.43 Z M 140.33 147.89 L 141.24 147.38 C 142.08 146.91 142.38 145.84 141.90 145.00 C 141.43 144.16 140.37 143.86 139.53 144.34 L 138.62 144.85 C 137.78 145.32 137.48 146.39 137.96 147.23 C 138.43 148.07 139.49 148.36 140.33 147.89 Z M 141.24 147.37 L 142.10 146.88 C 142.94 146.41 143.23 145.34 142.75 144.51 C 142.28 143.67 141.22 143.38 140.38 143.86 L 139.52 144.35 C 138.69 144.82 138.40 145.88 138.87 146.72 C 139.35 147.55 140.41 147.84 141.24 147.37 Z M 142.10 146.87 L 142.91 146.41 C 143.74 145.94 144.03 144.88 143.55 144.05 C 143.08 143.22 142.02 142.93 141.19 143.40 L 140.39 143.87 C 139.56 144.34 139.27 145.40 139.74 146.23 C 140.21 147.06 141.27 147.35 142.10 146.87 Z M 142.91 146.40 L 143.67 145.97 C 144.49 145.49 144.78 144.44 144.31 143.62 C 143.84 142.79 142.78 142.50 141.96 142.98 L 141.20 143.41 C 140.37 143.88 140.09 144.94 140.56 145.76 C 141.03 146.59 142.08 146.87 142.91 146.40 Z M 143.66 145.96 L 144.64 145.40 C 145.46 144.93 145.75 143.88 145.28 143.06 C 144.81 142.24 143.76 141.96 142.94 142.43 L 141.96 142.99 C 141.14 143.45 140.86 144.50 141.33 145.32 C 141.80 146.14 142.84 146.43 143.66 145.96 Z M 144.64 145.39 L 145.51 144.88 C 146.33 144.42 146.61 143.38 146.14 142.57 C 145.68 141.75 144.64 141.47 143.83 141.94 L 142.95 142.44 C 142.14 142.90 141.85 143.94 142.32 144.76 C 142.79 145.57 143.82 145.85 144.64 145.39 Z M 145.51 144.87 L 146.33 144.40 C 147.13 143.93 147.41 142.90 146.94 142.10 C 146.47 141.29 145.44 141.02 144.64 141.48 L 143.83 141.95 C 143.02 142.42 142.75 143.45 143.21 144.25 C 143.68 145.06 144.71 145.33 145.51 144.87 Z M 146.33 144.38 L 147.12 143.91 C 147.91 143.45 148.18 142.42 147.71 141.63 C 147.24 140.83 146.22 140.57 145.42 141.04 L 144.63 141.50 C 143.84 141.97 143.57 142.99 144.04 143.79 C 144.51 144.58 145.54 144.85 146.33 144.38 Z M 147.13 143.90 L 147.98 143.38 C 148.77 142.91 149.02 141.89 148.55 141.10 C 148.07 140.32 147.05 140.06 146.27 140.54 L 145.41 141.06 C 144.63 141.53 144.38 142.55 144.85 143.33 C 145.32 144.12 146.34 144.37 147.13 143.90 Z M 147.99 143.36 L 148.85 142.84 C 149.62 142.36 149.86 141.34 149.39 140.57 C 148.91 139.79 147.89 139.55 147.12 140.03 L 146.26 140.55 C 145.48 141.03 145.24 142.05 145.72 142.82 C 146.20 143.60 147.21 143.84 147.99 143.36 Z M 148.85 142.82 L 149.70 142.29 C 150.47 141.81 150.70 140.80 150.22 140.03 C 149.74 139.26 148.73 139.03 147.96 139.51 L 147.11 140.04 C 146.34 140.52 146.11 141.53 146.59 142.30 C 147.07 143.07 148.08 143.30 148.85 142.82 Z M 149.70 142.28 L 150.55 141.74 C 151.31 141.26 151.54 140.26 151.06 139.49 C 150.58 138.73 149.58 138.50 148.81 138.98 L 147.96 139.52 C 147.20 140.00 146.97 141.01 147.45 141.77 C 147.93 142.53 148.94 142.76 149.70 142.28 Z M 150.55 141.73 L 151.41 141.19 C 152.17 140.71 152.39 139.70 151.91 138.95 C 151.43 138.19 150.43 137.97 149.67 138.45 L 148.81 138.99 C 148.06 139.47 147.83 140.48 148.31 141.23 C 148.79 141.99 149.80 142.21 150.55 141.73 Z M 151.42 141.17 L 152.25 140.64 C 153.00 140.15 153.22 139.15 152.74 138.40 C 152.25 137.65 151.25 137.44 150.51 137.92 L 149.67 138.46 C 148.92 138.94 148.70 139.94 149.19 140.69 C 149.67 141.44 150.67 141.66 151.42 141.17 Z M 152.26 140.62 L 153.08 140.08 C 153.82 139.60 154.02 138.60 153.54 137.86 C 153.05 137.12 152.05 136.91 151.31 137.40 L 150.50 137.94 C 149.76 138.42 149.55 139.42 150.04 140.16 C 150.52 140.90 151.52 141.11 152.26 140.62 Z M 153.09 140.07 L 153.93 139.50 C 154.66 139.01 154.85 138.02 154.36 137.28 C 153.86 136.55 152.87 136.36 152.14 136.85 L 151.30 137.42 C 150.57 137.91 150.37 138.90 150.87 139.64 C 151.36 140.37 152.36 140.56 153.09 140.07 Z M 153.94 139.49 L 154.76 138.92 C 155.48 138.42 155.67 137.43 155.17 136.71 C 154.67 135.98 153.68 135.80 152.95 136.30 L 152.13 136.87 C 151.40 137.37 151.22 138.36 151.72 139.08 C 152.22 139.81 153.21 139.99 153.94 139.49 Z M 154.76 138.91 L 155.58 138.34 C 156.29 137.84 156.47 136.85 155.97 136.14 C 155.47 135.42 154.48 135.24 153.76 135.74 L 152.95 136.31 C 152.23 136.81 152.05 137.80 152.55 138.52 C 153.06 139.24 154.04 139.41 154.76 138.91 Z M 155.58 138.34 L 156.33 137.81 C 157.05 137.30 157.22 136.32 156.72 135.60 C 156.22 134.89 155.24 134.72 154.52 135.22 L 153.76 135.75 C 153.05 136.25 152.87 137.24 153.37 137.95 C 153.88 138.66 154.86 138.84 155.58 138.34 Z M 156.34 137.80 L 157.09 137.26 C 157.80 136.76 157.97 135.77 157.47 135.06 C 156.96 134.35 155.98 134.19 155.27 134.69 L 154.51 135.23 C 153.81 135.73 153.64 136.71 154.14 137.42 C 154.65 138.13 155.63 138.30 156.34 137.80 Z M 157.11 137.24 L 157.92 136.65 C 158.62 136.14 158.78 135.15 158.26 134.45 C 157.75 133.75 156.77 133.60 156.07 134.11 L 155.25 134.71 C 154.55 135.22 154.40 136.20 154.91 136.90 C 155.42 137.60 156.41 137.76 157.11 137.24 Z M 157.94 136.63 L 158.85 135.94 C 159.54 135.42 159.67 134.44 159.15 133.75 C 158.62 133.06 157.64 132.92 156.95 133.45 L 156.05 134.13 C 155.36 134.66 155.22 135.64 155.74 136.33 C 156.27 137.02 157.25 137.15 157.94 136.63 Z M 158.87 135.93 L 159.58 135.36 C 160.26 134.83 160.38 133.84 159.85 133.16 C 159.31 132.48 158.33 132.37 157.65 132.90 L 156.93 133.46 C 156.25 134.00 156.13 134.98 156.67 135.66 C 157.20 136.34 158.19 136.46 158.87 135.93 Z M 159.60 135.35 L 160.36 134.73 C 161.03 134.19 161.14 133.20 160.59 132.53 C 160.05 131.86 159.06 131.75 158.39 132.30 L 157.63 132.92 C 156.96 133.46 156.86 134.45 157.40 135.12 C 157.95 135.79 158.93 135.89 159.60 135.35 Z M 160.38 134.71 L 161.17 134.05 C 161.83 133.50 161.91 132.51 161.36 131.85 C 160.80 131.19 159.81 131.10 159.15 131.66 L 158.37 132.32 C 157.71 132.87 157.62 133.86 158.18 134.52 C 158.74 135.18 159.72 135.27 160.38 134.71 Z M 161.19 134.03 L 161.98 133.34 C 162.62 132.77 162.69 131.78 162.12 131.13 C 161.55 130.48 160.56 130.42 159.91 130.99 L 159.13 131.68 C 158.48 132.25 158.42 133.24 158.99 133.89 C 159.56 134.54 160.54 134.60 161.19 134.03 Z M 162.01 133.31 L 162.77 132.60 C 163.40 132.02 163.44 131.03 162.85 130.39 C 162.26 129.76 161.27 129.73 160.64 130.31 L 159.88 131.02 C 159.25 131.61 159.21 132.60 159.80 133.23 C 160.39 133.86 161.37 133.90 162.01 133.31 Z M 162.80 132.57 L 163.54 131.84 C 164.15 131.23 164.16 130.24 163.55 129.63 C 162.94 129.02 161.95 129.01 161.34 129.62 L 160.61 130.35 C 159.99 130.96 159.99 131.95 160.60 132.56 C 161.20 133.17 162.19 133.18 162.80 132.57 Z M 163.57 131.81 L 164.27 131.07 C 164.86 130.45 164.84 129.46 164.21 128.86 C 163.59 128.27 162.60 128.29 162.01 128.92 L 161.31 129.65 C 160.71 130.28 160.74 131.27 161.36 131.86 C 161.99 132.46 162.98 132.43 163.57 131.81 Z M 164.30 131.04 L 164.96 130.31 C 165.54 129.67 165.49 128.68 164.85 128.10 C 164.22 127.52 163.23 127.57 162.65 128.21 L 161.98 128.95 C 161.40 129.59 161.45 130.57 162.09 131.15 C 162.73 131.73 163.72 131.68 164.30 131.04 Z M 164.98 130.29 L 165.63 129.55 C 166.20 128.90 166.13 127.91 165.48 127.34 C 164.83 126.77 163.85 126.84 163.28 127.49 L 162.63 128.23 C 162.06 128.88 162.13 129.86 162.78 130.43 C 163.43 131.00 164.41 130.93 164.98 130.29 Z M 165.64 129.54 L 166.28 128.79 C 166.84 128.14 166.76 127.15 166.11 126.59 C 165.46 126.03 164.47 126.10 163.91 126.76 L 163.27 127.50 C 162.71 128.15 162.78 129.14 163.44 129.70 C 164.09 130.26 165.08 130.19 165.64 129.54 Z M 166.28 128.79 L 166.35 128.70 C 166.91 128.05 166.84 127.06 166.18 126.50 C 165.53 125.94 164.54 126.02 163.98 126.67 L 163.91 126.76 C 163.35 127.41 163.42 128.40 164.08 128.96 C 164.73 129.52 165.72 129.45 166.28 128.79 Z"
      fill="black"
      fill-rule="nonzero" /><path d="M 150.98 126.73 L 149.98 127.06 C 149.09 127.35 148.60 128.31 148.89 129.21 C 149.18 130.10 150.14 130.59 151.04 130.30 L 152.04 129.97 C 152.93 129.68 153.42 128.72 153.12 127.82 C 152.83 126.93 151.87 126.44 150.98 126.73 Z M 149.75 127.09 L 148.86 127.52 C 147.98 127.94 147.61 128.99 148.03 129.87 C 148.45 130.74 149.50 131.11 150.37 130.69 L 151.27 130.26 C 152.14 129.84 152.51 128.79 152.10 127.92 C 151.68 127.04 150.63 126.67 149.75 127.09 Z M 148.39 127.77 L 147.70 128.40 C 146.96 129.08 146.91 130.23 147.59 130.97 C 148.27 131.71 149.41 131.75 150.15 131.08 L 150.84 130.44 C 151.58 129.77 151.63 128.62 150.95 127.88 C 150.27 127.14 149.13 127.09 148.39 127.77 Z M 147.26 128.95 L 146.87 129.77 C 146.43 130.69 146.82 131.79 147.74 132.23 C 148.67 132.66 149.77 132.27 150.20 131.35 L 150.59 130.53 C 151.03 129.61 150.64 128.51 149.72 128.07 C 148.79 127.63 147.69 128.03 147.26 128.95 Z M 146.72 130.19 L 146.52 131.18 C 146.32 132.18 146.97 133.16 147.97 133.36 C 148.98 133.56 149.95 132.91 150.16 131.91 L 150.35 130.92 C 150.55 129.92 149.90 128.94 148.90 128.74 C 147.90 128.54 146.92 129.19 146.72 130.19 Z M 146.48 131.41 L 146.41 132.47 C 146.34 133.49 147.11 134.38 148.14 134.45 C 149.16 134.52 150.05 133.75 150.12 132.73 L 150.19 131.67 C 150.27 130.65 149.49 129.76 148.47 129.69 C 147.44 129.62 146.55 130.39 146.48 131.41 Z M 146.40 132.57 L 146.39 133.48 C 146.38 134.51 147.20 135.35 148.23 135.37 C 149.26 135.38 150.10 134.56 150.12 133.53 L 150.13 132.62 C 150.14 131.59 149.32 130.75 148.29 130.73 C 147.26 130.72 146.42 131.54 146.40 132.57 Z M 146.39 133.57 L 146.42 134.44 C 146.46 135.47 147.33 136.27 148.36 136.24 C 149.38 136.20 150.19 135.33 150.15 134.30 L 150.12 133.43 C 150.08 132.41 149.21 131.60 148.18 131.64 C 147.16 131.68 146.35 132.55 146.39 133.57 Z M 146.43 134.57 L 146.54 135.53 C 146.64 136.56 147.56 137.30 148.58 137.19 C 149.60 137.08 150.35 136.17 150.24 135.15 L 150.14 134.18 C 150.03 133.16 149.12 132.41 148.09 132.52 C 147.07 132.63 146.33 133.54 146.43 134.57 Z M 146.55 135.65 L 146.75 136.79 C 146.92 137.80 147.88 138.48 148.90 138.31 C 149.91 138.14 150.59 137.18 150.42 136.16 L 150.22 135.03 C 150.05 134.01 149.09 133.33 148.07 133.51 C 147.06 133.68 146.38 134.64 146.55 135.65 Z M 146.77 136.88 L 146.99 137.90 C 147.21 138.91 148.21 139.54 149.21 139.32 C 150.21 139.10 150.85 138.10 150.62 137.10 L 150.40 136.08 C 150.18 135.07 149.18 134.44 148.18 134.66 C 147.18 134.88 146.55 135.88 146.77 136.88 Z M 147.01 137.95 L 147.24 138.90 C 147.49 139.90 148.50 140.50 149.49 140.25 C 150.49 140.01 151.10 139.00 150.85 138.00 L 150.61 137.05 C 150.36 136.06 149.36 135.45 148.36 135.70 C 147.36 135.95 146.76 136.96 147.01 137.95 Z M 147.25 138.93 L 147.52 139.93 C 147.78 140.92 148.80 141.51 149.79 141.25 C 150.78 140.98 151.37 139.97 151.11 138.97 L 150.84 137.97 C 150.58 136.98 149.56 136.39 148.57 136.66 C 147.58 136.92 146.99 137.94 147.25 138.93 Z M 147.52 139.95 L 147.81 140.97 C 148.09 141.96 149.11 142.54 150.10 142.26 C 151.08 141.99 151.66 140.96 151.38 139.97 L 151.10 138.95 C 150.82 137.97 149.80 137.39 148.81 137.67 C 147.83 137.94 147.25 138.97 147.52 139.95 Z M 147.82 140.99 L 148.11 142.00 C 148.39 142.98 149.42 143.55 150.40 143.26 C 151.39 142.98 151.95 141.95 151.67 140.96 L 151.38 139.96 C 151.09 138.97 150.07 138.41 149.08 138.69 C 148.10 138.98 147.53 140.01 147.82 140.99 Z M 148.11 142.01 L 148.40 142.97 C 148.69 143.95 149.72 144.51 150.70 144.21 C 151.68 143.92 152.24 142.89 151.95 141.91 L 151.66 140.95 C 151.37 139.97 150.34 139.41 149.36 139.70 C 148.38 139.99 147.82 141.03 148.11 142.01 Z M 148.40 142.98 L 148.70 143.95 C 148.99 144.93 150.03 145.48 151.01 145.18 C 151.98 144.89 152.54 143.85 152.24 142.87 L 151.94 141.90 C 151.65 140.92 150.61 140.37 149.63 140.66 C 148.66 140.96 148.10 142.00 148.40 142.98 Z M 148.70 143.96 L 149.05 145.09 C 149.35 146.06 150.39 146.61 151.37 146.31 C 152.34 146.00 152.89 144.97 152.59 143.99 L 152.23 142.86 C 151.93 141.89 150.90 141.34 149.92 141.64 C 148.94 141.95 148.40 142.98 148.70 143.96 Z M 149.06 145.10 L 149.36 146.05 C 149.67 147.03 150.71 147.56 151.68 147.26 C 152.65 146.95 153.19 145.91 152.88 144.94 L 152.58 143.98 C 152.27 143.01 151.23 142.47 150.26 142.78 C 149.29 143.09 148.75 144.13 149.06 145.10 Z M 149.37 146.06 L 149.64 146.90 C 149.95 147.87 150.98 148.41 151.95 148.10 C 152.92 147.79 153.46 146.75 153.15 145.78 L 152.88 144.93 C 152.57 143.96 151.53 143.43 150.56 143.74 C 149.59 144.05 149.05 145.09 149.37 146.06 Z M 149.64 146.90 L 149.89 147.71 C 150.20 148.68 151.24 149.21 152.20 148.91 C 153.17 148.60 153.71 147.57 153.40 146.60 L 153.15 145.79 C 152.84 144.82 151.81 144.28 150.84 144.59 C 149.87 144.90 149.33 145.93 149.64 146.90 Z M 149.89 147.70 L 150.18 148.62 C 150.48 149.59 151.51 150.13 152.48 149.83 C 153.45 149.53 153.99 148.50 153.69 147.53 L 153.40 146.61 C 153.10 145.64 152.07 145.10 151.10 145.40 C 150.13 145.70 149.59 146.73 149.89 147.70 Z M 150.18 148.61 L 150.47 149.56 C 150.77 150.53 151.79 151.08 152.76 150.78 C 153.73 150.48 154.28 149.45 153.98 148.48 L 153.69 147.54 C 153.39 146.57 152.37 146.02 151.39 146.32 C 150.42 146.61 149.88 147.64 150.18 148.61 Z M 150.47 149.57 L 150.77 150.54 C 151.07 151.51 152.10 152.05 153.07 151.75 C 154.04 151.45 154.58 150.42 154.28 149.45 L 153.98 148.48 C 153.68 147.51 152.65 146.97 151.68 147.27 C 150.71 147.57 150.17 148.60 150.47 149.57 Z M 150.78 150.55 L 151.08 151.52 C 151.39 152.49 152.43 153.02 153.39 152.71 C 154.36 152.40 154.89 151.37 154.59 150.40 L 154.28 149.44 C 153.97 148.47 152.93 147.94 151.97 148.24 C 151.00 148.55 150.47 149.59 150.78 150.55 Z M 151.09 151.54 L 151.40 152.47 C 151.71 153.43 152.75 153.95 153.72 153.64 C 154.68 153.32 155.20 152.28 154.89 151.32 L 154.58 150.39 C 154.26 149.42 153.22 148.90 152.26 149.22 C 151.30 149.54 150.77 150.57 151.09 151.54 Z M 151.40 152.48 L 151.72 153.42 C 152.04 154.38 153.08 154.90 154.04 154.58 C 155.00 154.26 155.52 153.21 155.20 152.25 L 154.88 151.31 C 154.56 150.35 153.52 149.83 152.56 150.15 C 151.60 150.47 151.08 151.51 151.40 152.48 Z M 151.72 153.42 L 152.04 154.38 C 152.36 155.35 153.41 155.86 154.37 155.54 C 155.33 155.21 155.85 154.17 155.52 153.21 L 155.20 152.25 C 154.87 151.29 153.83 150.77 152.87 151.10 C 151.91 151.42 151.39 152.46 151.72 153.42 Z M 152.04 154.38 L 152.36 155.34 C 152.68 156.30 153.72 156.82 154.69 156.50 C 155.65 156.18 156.17 155.14 155.84 154.18 L 155.52 153.22 C 155.20 152.25 154.16 151.73 153.20 152.06 C 152.24 152.38 151.72 153.42 152.04 154.38 Z M 152.36 155.34 L 152.67 156.26 C 152.98 157.23 154.02 157.75 154.99 157.43 C 155.95 157.11 156.47 156.07 156.15 155.11 L 155.85 154.18 C 155.53 153.22 154.49 152.70 153.53 153.02 C 152.56 153.33 152.04 154.37 152.36 155.34 Z M 152.67 156.26 L 152.98 157.21 C 153.29 158.17 154.33 158.69 155.30 158.38 C 156.26 158.06 156.78 157.02 156.47 156.06 L 156.15 155.11 C 155.84 154.15 154.80 153.63 153.83 153.94 C 152.87 154.26 152.35 155.30 152.67 156.26 Z M 152.98 157.21 L 153.30 158.17 C 153.62 159.13 154.66 159.65 155.62 159.33 C 156.58 159.01 157.10 157.97 156.78 157.01 L 156.46 156.05 C 156.14 155.09 155.10 154.57 154.14 154.89 C 153.18 155.21 152.66 156.25 152.98 157.21 Z M 153.30 158.18 L 153.63 159.15 C 153.95 160.11 155.00 160.62 155.96 160.30 C 156.92 159.97 157.43 158.93 157.11 157.97 L 156.78 157.00 C 156.45 156.04 155.41 155.52 154.45 155.85 C 153.49 156.17 152.97 157.22 153.30 158.18 Z M 153.63 159.16 L 153.95 160.08 C 154.28 161.04 155.33 161.55 156.29 161.22 C 157.25 160.88 157.76 159.84 157.42 158.88 L 157.10 157.96 C 156.77 157.00 155.72 156.49 154.77 156.82 C 153.81 157.16 153.30 158.20 153.63 159.16 Z M 153.95 160.09 L 154.28 161.02 C 154.62 161.98 155.67 162.48 156.63 162.14 C 157.59 161.80 158.09 160.75 157.75 159.79 L 157.42 158.87 C 157.08 157.91 156.03 157.41 155.07 157.75 C 154.12 158.08 153.62 159.14 153.95 160.09 Z M 154.28 161.03 L 154.62 161.97 C 154.96 162.93 156.02 163.42 156.97 163.08 C 157.93 162.74 158.43 161.68 158.08 160.73 L 157.75 159.79 C 157.40 158.83 156.35 158.33 155.39 158.67 C 154.44 159.02 153.94 160.07 154.28 161.03 Z M 154.62 161.97 L 154.97 162.93 C 155.31 163.89 156.37 164.38 157.32 164.04 C 158.28 163.69 158.78 162.64 158.43 161.68 L 158.08 160.72 C 157.74 159.77 156.68 159.27 155.73 159.62 C 154.77 159.96 154.28 161.02 154.62 161.97 Z M 154.97 162.93 L 155.32 163.90 C 155.66 164.86 156.72 165.35 157.68 165.00 C 158.63 164.66 159.13 163.60 158.78 162.64 L 158.43 161.68 C 158.08 160.72 157.03 160.23 156.07 160.57 C 155.12 160.92 154.62 161.98 154.97 162.93 Z M 155.32 163.90 L 155.66 164.85 C 156.01 165.81 157.07 166.30 158.02 165.96 C 158.98 165.61 159.47 164.55 159.13 163.60 L 158.78 162.64 C 158.44 161.69 157.38 161.19 156.42 161.54 C 155.46 161.89 154.97 162.94 155.32 163.90 Z M 155.66 164.86 L 156.01 165.81 C 156.36 166.77 157.42 167.26 158.37 166.91 C 159.33 166.56 159.82 165.50 159.48 164.55 L 159.13 163.59 C 158.78 162.63 157.72 162.14 156.76 162.49 C 155.80 162.84 155.31 163.90 155.66 164.86 Z M 156.01 165.82 L 156.36 166.76 C 156.71 167.72 157.77 168.21 158.73 167.86 C 159.69 167.50 160.18 166.44 159.82 165.48 L 159.48 164.54 C 159.12 163.58 158.06 163.09 157.10 163.44 C 156.15 163.80 155.66 164.86 156.01 165.82 Z M 156.36 166.77 L 156.70 167.70 C 157.06 168.65 158.13 169.14 159.08 168.78 C 160.04 168.42 160.53 167.36 160.17 166.40 L 159.82 165.47 C 159.46 164.52 158.40 164.03 157.44 164.39 C 156.48 164.75 156.00 165.82 156.36 166.77 Z M 156.71 167.71 L 157.07 168.65 C 157.43 169.60 158.50 170.08 159.46 169.71 C 160.41 169.35 160.89 168.28 160.52 167.32 L 160.16 166.38 C 159.80 165.43 158.73 164.95 157.77 165.32 C 156.82 165.69 156.34 166.76 156.71 167.71 Z M 157.07 168.67 L 157.46 169.64 C 157.84 170.59 158.91 171.05 159.86 170.67 C 160.81 170.30 161.28 169.22 160.90 168.27 L 160.52 167.30 C 160.14 166.35 159.06 165.89 158.11 166.26 C 157.16 166.64 156.70 167.72 157.07 168.67 Z M 157.47 169.66 L 157.85 170.59 C 158.24 171.53 159.33 171.98 160.27 171.59 C 161.22 171.20 161.67 170.11 161.28 169.17 L 160.89 168.24 C 160.50 167.30 159.42 166.85 158.47 167.24 C 157.52 167.63 157.08 168.72 157.47 169.66 Z M 157.86 170.62 L 158.25 171.51 C 158.66 172.45 159.75 172.88 160.69 172.47 C 161.63 172.06 162.06 170.97 161.65 170.03 L 161.26 169.14 C 160.85 168.20 159.76 167.77 158.82 168.18 C 157.88 168.59 157.45 169.68 157.86 170.62 Z M 158.27 171.55 L 158.67 172.42 C 159.10 173.35 160.20 173.76 161.13 173.33 C 162.06 172.90 162.47 171.79 162.04 170.86 L 161.64 169.99 C 161.21 169.06 160.10 168.66 159.17 169.09 C 158.24 169.51 157.84 170.62 158.27 171.55 Z M 158.69 172.46 L 159.14 173.38 C 159.60 174.30 160.71 174.68 161.63 174.23 C 162.55 173.78 162.93 172.66 162.47 171.74 L 162.02 170.82 C 161.57 169.90 160.46 169.52 159.54 169.98 C 158.62 170.43 158.24 171.54 158.69 172.46 Z M 159.17 173.43 L 159.63 174.32 C 160.11 175.23 161.23 175.58 162.14 175.10 C 163.05 174.62 163.40 173.50 162.92 172.59 L 162.45 171.70 C 161.98 170.79 160.85 170.44 159.95 170.92 C 159.04 171.40 158.69 172.52 159.17 173.43 Z M 159.66 174.36 L 160.14 175.22 C 160.64 176.12 161.77 176.44 162.67 175.94 C 163.56 175.44 163.88 174.31 163.38 173.41 L 162.90 172.55 C 162.40 171.65 161.27 171.33 160.37 171.84 C 159.48 172.34 159.16 173.47 159.66 174.36 Z M 160.16 175.27 L 160.67 176.11 C 161.19 177.00 162.33 177.29 163.21 176.76 C 164.09 176.24 164.38 175.10 163.86 174.21 L 163.36 173.37 C 162.83 172.49 161.69 172.20 160.81 172.72 C 159.93 173.25 159.64 174.38 160.16 175.27 Z M 160.69 176.16 L 161.25 177.03 C 161.79 177.90 162.94 178.15 163.81 177.60 C 164.68 177.05 164.93 175.91 164.38 175.04 L 163.83 174.17 C 163.28 173.30 162.13 173.05 161.27 173.60 C 160.40 174.14 160.14 175.29 160.69 176.16 Z M 161.28 177.08 L 161.84 177.91 C 162.42 178.76 163.57 178.98 164.42 178.40 C 165.27 177.82 165.49 176.67 164.91 175.82 L 164.35 174.99 C 163.77 174.14 162.62 173.92 161.77 174.50 C 160.92 175.07 160.70 176.23 161.28 177.08 Z M 161.88 177.96 L 162.45 178.74 C 163.05 179.57 164.22 179.75 165.05 179.15 C 165.87 178.54 166.06 177.38 165.45 176.55 L 164.88 175.77 C 164.27 174.94 163.11 174.76 162.28 175.36 C 161.45 175.97 161.27 177.13 161.88 177.96 Z M 162.49 178.80 L 163.06 179.52 C 163.70 180.33 164.86 180.47 165.67 179.83 C 166.48 179.20 166.62 178.03 165.98 177.22 L 165.41 176.50 C 164.77 175.69 163.61 175.55 162.80 176.19 C 161.99 176.82 161.85 177.99 162.49 178.80 Z M 163.12 179.60 L 163.73 180.30 C 164.41 181.07 165.58 181.15 166.36 180.47 C 167.13 179.80 167.21 178.62 166.53 177.85 L 165.92 177.15 C 165.25 176.38 164.07 176.30 163.30 176.97 C 162.53 177.65 162.45 178.82 163.12 179.60 Z M 163.82 180.38 L 164.52 181.09 C 165.25 181.82 166.42 181.82 167.15 181.10 C 167.88 180.37 167.88 179.20 167.16 178.47 L 166.45 177.76 C 165.72 177.03 164.55 177.03 163.82 177.76 C 163.09 178.48 163.09 179.66 163.82 180.38 Z M 164.61 181.18 L 165.46 181.92 C 166.23 182.60 167.41 182.52 168.08 181.75 C 168.76 180.98 168.69 179.81 167.91 179.13 L 167.07 178.38 C 166.29 177.71 165.12 177.78 164.44 178.56 C 163.77 179.33 163.84 180.50 164.61 181.18 Z M 165.54 181.98 L 166.28 182.57 C 167.08 183.20 168.25 183.07 168.89 182.26 C 169.52 181.46 169.39 180.29 168.58 179.65 L 167.84 179.07 C 167.03 178.43 165.86 178.57 165.23 179.37 C 164.59 180.18 164.73 181.35 165.54 181.98 Z M 166.34 182.62 L 167.16 183.21 C 167.99 183.81 169.15 183.62 169.75 182.79 C 170.35 181.95 170.17 180.79 169.33 180.19 L 168.52 179.60 C 167.68 179.00 166.52 179.19 165.92 180.02 C 165.32 180.86 165.51 182.02 166.34 182.62 Z M 167.24 183.26 L 168.10 183.82 C 168.96 184.38 170.11 184.14 170.67 183.28 C 171.23 182.42 170.99 181.27 170.13 180.71 L 169.26 180.14 C 168.40 179.58 167.25 179.83 166.69 180.69 C 166.13 181.55 166.38 182.70 167.24 183.26 Z M 168.20 183.88 L 169.09 184.39 C 169.98 184.90 171.11 184.59 171.62 183.70 C 172.13 182.80 171.82 181.67 170.93 181.16 L 170.04 180.65 C 169.15 180.15 168.01 180.46 167.50 181.35 C 167.00 182.24 167.31 183.37 168.20 183.88 Z M 169.21 184.45 L 170.10 184.87 C 171.03 185.32 172.14 184.92 172.58 184.00 C 173.02 183.07 172.62 181.96 171.70 181.52 L 170.81 181.10 C 169.88 180.66 168.77 181.05 168.33 181.98 C 167.89 182.90 168.29 184.01 169.21 184.45 Z M 170.29 184.95 L 171.33 185.31 C 172.29 185.65 173.35 185.14 173.69 184.18 C 174.03 183.21 173.52 182.15 172.55 181.81 L 171.51 181.45 C 170.55 181.11 169.49 181.62 169.15 182.59 C 168.81 183.55 169.32 184.61 170.29 184.95 Z M 171.54 185.37 L 172.54 185.59 C 173.54 185.81 174.52 185.17 174.74 184.18 C 174.96 183.18 174.33 182.19 173.33 181.97 L 172.33 181.76 C 171.34 181.54 170.35 182.17 170.13 183.17 C 169.91 184.17 170.55 185.15 171.54 185.37 Z M 172.75 185.62 L 173.71 185.71 C 174.72 185.82 175.63 185.08 175.73 184.06 C 175.83 183.05 175.09 182.14 174.07 182.04 L 173.12 181.94 C 172.10 181.84 171.20 182.58 171.10 183.60 C 171.00 184.61 171.74 185.52 172.75 185.62 Z M 173.89 185.72 L 174.81 185.72 C 175.83 185.72 176.66 184.89 176.65 183.87 C 176.65 182.85 175.83 182.03 174.81 182.03 L 173.89 182.03 C 172.87 182.04 172.05 182.86 172.05 183.88 C 172.05 184.90 172.88 185.72 173.89 185.72 Z M 174.98 185.70 L 175.98 185.61 C 176.99 185.52 177.73 184.62 177.63 183.61 C 177.54 182.60 176.64 181.86 175.63 181.95 L 174.64 182.05 C 173.63 182.14 172.89 183.04 172.98 184.05 C 173.08 185.06 173.97 185.80 174.98 185.70 Z M 176.17 185.58 L 177.14 185.38 C 178.13 185.18 178.77 184.21 178.57 183.22 C 178.37 182.23 177.40 181.59 176.41 181.79 L 175.44 181.99 C 174.45 182.19 173.81 183.15 174.01 184.15 C 174.21 185.14 175.18 185.78 176.17 185.58 Z M 177.35 185.32 L 178.29 185.00 C 179.25 184.68 179.76 183.65 179.45 182.70 C 179.13 181.74 178.10 181.23 177.14 181.54 L 176.20 181.86 C 175.25 182.17 174.73 183.21 175.05 184.16 C 175.36 185.12 176.40 185.63 177.35 185.32 Z M 178.50 184.91 L 179.40 184.48 C 180.30 184.04 180.68 182.96 180.25 182.05 C 179.81 181.15 178.73 180.77 177.83 181.21 L 176.93 181.64 C 176.03 182.07 175.65 183.16 176.08 184.06 C 176.52 184.96 177.60 185.34 178.50 184.91 Z M 179.58 184.36 L 180.40 183.84 C 181.24 183.30 181.49 182.19 180.95 181.35 C 180.42 180.51 179.30 180.26 178.46 180.80 L 177.64 181.32 C 176.80 181.86 176.56 182.97 177.09 183.81 C 177.63 184.65 178.74 184.90 179.58 184.36 Z M 180.55 183.72 L 181.33 183.10 C 182.11 182.48 182.24 181.36 181.62 180.58 C 181.01 179.81 179.88 179.68 179.11 180.29 L 178.32 180.92 C 177.55 181.53 177.42 182.66 178.03 183.43 C 178.65 184.21 179.77 184.33 180.55 183.72 Z M 181.45 182.97 L 182.19 182.27 C 182.89 181.58 182.91 180.46 182.23 179.75 C 181.55 179.05 180.42 179.03 179.72 179.71 L 178.98 180.42 C 178.28 181.10 178.26 182.22 178.94 182.93 C 179.62 183.63 180.75 183.65 181.45 182.97 Z M 182.29 182.14 L 182.95 181.37 C 183.58 180.63 183.50 179.52 182.76 178.88 C 182.02 178.25 180.91 178.33 180.27 179.07 L 179.62 179.84 C 178.98 180.58 179.07 181.69 179.80 182.32 C 180.54 182.96 181.65 182.87 182.29 182.14 Z M 183.03 181.24 L 183.60 180.44 C 184.16 179.65 183.98 178.57 183.20 178.01 C 182.41 177.44 181.32 177.63 180.76 178.41 L 180.19 179.21 C 179.63 179.99 179.81 181.08 180.60 181.64 C 181.38 182.20 182.47 182.02 183.03 181.24 Z M 183.66 180.31 L 184.17 179.46 C 184.66 178.65 184.39 177.59 183.58 177.10 C 182.76 176.61 181.71 176.87 181.22 177.69 L 180.71 178.54 C 180.22 179.35 180.48 180.41 181.29 180.90 C 182.11 181.39 183.17 181.13 183.66 180.31 Z M 184.21 179.35 L 184.66 178.45 C 185.09 177.61 184.76 176.59 183.92 176.16 C 183.09 175.73 182.06 176.07 181.64 176.90 L 181.18 177.80 C 180.75 178.64 181.08 179.66 181.92 180.09 C 182.76 180.51 183.78 180.18 184.21 179.35 Z M 184.69 178.35 L 185.09 177.42 C 185.46 176.57 185.08 175.58 184.23 175.21 C 183.38 174.84 182.39 175.23 182.02 176.07 L 181.61 177.00 C 181.24 177.85 181.63 178.84 182.48 179.21 C 183.33 179.58 184.32 179.20 184.69 178.35 Z M 185.11 177.34 L 185.44 176.45 C 185.77 175.59 185.34 174.64 184.48 174.31 C 183.63 173.98 182.67 174.41 182.34 175.27 L 182.01 176.16 C 181.68 177.01 182.11 177.97 182.97 178.30 C 183.82 178.62 184.78 178.19 185.11 177.34 Z M 185.45 176.37 L 185.76 175.45 C 186.04 174.59 185.57 173.66 184.71 173.38 C 183.85 173.09 182.93 173.56 182.64 174.42 L 182.34 175.35 C 182.05 176.21 182.52 177.13 183.38 177.42 C 184.24 177.70 185.17 177.23 185.45 176.37 Z M 185.76 175.37 L 186.03 174.40 C 186.28 173.54 185.78 172.65 184.92 172.40 C 184.06 172.16 183.16 172.66 182.92 173.52 L 182.64 174.49 C 182.40 175.35 182.90 176.25 183.76 176.49 C 184.62 176.74 185.51 176.24 185.76 175.37 Z M 186.03 174.34 L 186.28 173.32 C 186.48 172.46 185.95 171.59 185.09 171.39 C 184.23 171.18 183.37 171.71 183.16 172.57 L 182.92 173.59 C 182.71 174.45 183.24 175.31 184.10 175.52 C 184.96 175.73 185.83 175.20 186.03 174.34 Z M 186.28 173.26 L 186.47 172.28 C 186.65 171.42 186.09 170.58 185.23 170.40 C 184.37 170.23 183.53 170.79 183.36 171.65 L 183.16 172.63 C 182.99 173.49 183.55 174.33 184.40 174.50 C 185.26 174.68 186.10 174.12 186.28 173.26 Z M 186.48 172.23 L 186.64 171.27 C 186.79 170.41 186.21 169.59 185.35 169.45 C 184.49 169.30 183.67 169.88 183.53 170.74 L 183.36 171.69 C 183.21 172.55 183.79 173.37 184.65 173.52 C 185.51 173.67 186.33 173.09 186.48 172.23 Z M 186.64 171.24 L 186.79 170.25 C 186.92 169.39 186.33 168.59 185.47 168.46 C 184.60 168.33 183.80 168.92 183.67 169.78 L 183.52 170.77 C 183.39 171.63 183.99 172.43 184.85 172.56 C 185.71 172.69 186.51 172.10 186.64 171.24 Z M 186.79 170.23 L 186.92 169.23 C 187.04 168.37 186.44 167.57 185.58 167.46 C 184.72 167.34 183.93 167.94 183.81 168.80 L 183.67 169.81 C 183.56 170.67 184.16 171.46 185.02 171.58 C 185.88 171.69 186.67 171.09 186.79 170.23 Z M 186.92 169.21 L 187.05 168.19 C 187.16 167.34 186.55 166.55 185.69 166.44 C 184.83 166.34 184.05 166.94 183.94 167.80 L 183.81 168.82 C 183.70 169.68 184.31 170.46 185.17 170.57 C 186.03 170.68 186.81 170.07 186.92 169.21 Z M 187.05 168.19 L 187.14 167.41 C 187.25 166.56 186.64 165.78 185.78 165.67 C 184.92 165.57 184.14 166.18 184.04 167.03 L 183.94 167.81 C 183.84 168.66 184.45 169.44 185.31 169.55 C 186.16 169.65 186.94 169.04 187.05 168.19 Z"
      fill="black"
      fill-rule="nonzero" /></svg>