<svg xmlns="http://www.w3.org/2000/svg" width="300" height="300" viewBox="0 0 300 300">
<path d="M 118.38 140.69 L 118.38 141.74 C 118.38 142.68 119.14 143.44 120.08 143.44 C 121.02 143.44 121.78 142.68 121.78 141.74 L 121.78 140.69 C 121.78 139.75 121.01 138.99 120.08 138.99 C 119.14 138.99 118.38 139.75 118.38 140.69 Z M 118.36 141.75 L 118.36 142.79 C 118.36 143.74 119.14 144.50 120.09 144.50 C 121.04 144.50 121.81 143.72 121.80 142.77 L 121.80 141.73 C 121.79 140.78 121.02 140.02 120.07 140.02 C 119.12 140.02 118.35 140.80 118.36 141.75 Z M 118.34 142.80 L 118.35 143.81 C 118.36 144.77 119.15 145.54 120.11 145.53 C 121.07 145.52 121.84 144.73 121.83 143.77 L 121.82 142.76 C 121.81 141.80 121.02 141.03 120.06 141.04 C 119.10 141.05 118.33 141.84 118.34 142.80 Z M 118.33 143.83 L 118.35 144.80 C 118.37 145.77 119.18 146.55 120.15 146.52 C 121.12 146.50 121.90 145.70 121.87 144.72 L 121.85 143.75 C 121.83 142.78 121.03 142.01 120.05 142.03 C 119.08 142.05 118.31 142.85 118.33 143.83 Z M 118.33 144.83 L 118.37 145.77 C 118.40 146.76 119.23 147.52 120.21 147.49 C 121.20 147.45 121.97 146.62 121.93 145.64 L 121.89 144.69 C 121.86 143.71 121.03 142.94 120.04 142.98 C 119.06 143.02 118.29 143.84 118.33 144.83 Z M 118.36 145.83 L 118.44 146.95 C 118.51 147.94 119.37 148.68 120.35 148.61 C 121.34 148.54 122.08 147.68 122.01 146.69 L 121.93 145.58 C 121.86 144.59 121.01 143.85 120.02 143.92 C 119.03 143.99 118.29 144.85 118.36 145.83 Z M 118.46 147.09 L 118.61 148.09 C 118.76 149.07 119.67 149.74 120.65 149.59 C 121.62 149.44 122.29 148.53 122.15 147.55 L 121.99 146.55 C 121.85 145.58 120.93 144.91 119.96 145.05 C 118.98 145.20 118.31 146.11 118.46 147.09 Z M 118.67 148.33 L 118.93 149.21 C 119.21 150.16 120.21 150.70 121.15 150.41 C 122.10 150.13 122.63 149.14 122.35 148.19 L 122.09 147.31 C 121.81 146.37 120.81 145.83 119.87 146.11 C 118.92 146.39 118.39 147.39 118.67 148.33 Z M 119.08 149.55 L 119.49 150.32 C 119.96 151.18 121.04 151.50 121.90 151.03 C 122.77 150.57 123.09 149.49 122.62 148.63 L 122.21 147.86 C 121.74 147.00 120.66 146.67 119.80 147.14 C 118.93 147.61 118.61 148.69 119.08 149.55 Z M 119.75 150.64 L 120.34 151.31 C 120.99 152.03 122.10 152.09 122.82 151.45 C 123.55 150.80 123.61 149.69 122.96 148.96 L 122.37 148.30 C 121.72 147.58 120.61 147.51 119.89 148.16 C 119.16 148.81 119.10 149.92 119.75 150.64 Z M 120.61 151.52 L 121.39 152.11 C 122.15 152.68 123.24 152.53 123.82 151.77 C 124.39 151.00 124.24 149.91 123.47 149.34 L 122.69 148.75 C 121.93 148.18 120.84 148.33 120.27 149.09 C 119.69 149.86 119.84 150.94 120.61 151.52 Z M 121.60 152.22 L 122.58 152.76 C 123.41 153.21 124.44 152.91 124.90 152.09 C 125.36 151.27 125.06 150.23 124.23 149.77 L 123.26 149.23 C 122.43 148.77 121.40 149.07 120.94 149.90 C 120.48 150.72 120.78 151.76 121.60 152.22 Z M 122.71 152.80 L 123.60 153.20 C 124.45 153.59 125.45 153.21 125.83 152.36 C 126.22 151.51 125.84 150.51 124.99 150.13 L 124.10 149.73 C 123.25 149.34 122.25 149.72 121.87 150.57 C 121.49 151.42 121.86 152.42 122.71 152.80 Z M 123.67 153.22 L 124.54 153.57 C 125.40 153.91 126.37 153.50 126.72 152.64 C 127.06 151.78 126.65 150.80 125.79 150.46 L 124.92 150.11 C 124.06 149.76 123.08 150.18 122.74 151.04 C 122.39 151.90 122.81 152.87 123.67 153.22 Z M 124.58 153.58 L 125.52 153.92 C 126.38 154.24 127.34 153.80 127.66 152.94 C 127.98 152.07 127.54 151.12 126.67 150.80 L 125.74 150.45 C 124.88 150.13 123.92 150.57 123.60 151.43 C 123.28 152.30 123.72 153.26 124.58 153.58 Z M 125.55 153.92 L 126.53 154.27 C 127.39 154.57 128.34 154.11 128.64 153.25 C 128.94 152.39 128.49 151.44 127.62 151.14 L 126.64 150.79 C 125.78 150.49 124.83 150.95 124.53 151.81 C 124.23 152.67 124.68 153.62 125.55 153.92 Z M 126.55 154.26 L 127.55 154.61 C 128.42 154.90 129.35 154.44 129.65 153.57 C 129.94 152.71 129.48 151.77 128.61 151.48 L 127.60 151.14 C 126.74 150.85 125.80 151.31 125.51 152.17 C 125.22 153.04 125.68 153.97 126.55 154.26 Z M 127.56 154.60 L 128.31 154.85 C 129.17 155.14 130.10 154.67 130.39 153.81 C 130.67 152.95 130.21 152.02 129.35 151.74 L 128.60 151.49 C 127.74 151.20 126.81 151.66 126.53 152.52 C 126.24 153.38 126.70 154.31 127.56 154.60 Z"
      fill="black"
      fill-rule="nonzero" /><path d="M 145.41 137.11 L 144.66 137.77 C 143.93 138.43 143.87 139.56 144.53 140.29 C 145.18 141.03 146.31 141.09 147.05 140.43 L 147.79 139.76 C 148.53 139.11 148.59 137.98 147.93 137.24 C 147.27 136.51 146.14 136.45 145.41 137.11 Z M 144.63 137.80 L 143.90 138.48 C 143.19 139.16 143.15 140.29 143.82 141.01 C 144.50 141.73 145.63 141.76 146.35 141.09 L 147.08 140.40 C 147.80 139.73 147.83 138.60 147.16 137.88 C 146.48 137.16 145.35 137.13 144.63 137.80 Z M 143.85 138.54 L 143.15 139.26 C 142.46 139.97 142.48 141.10 143.19 141.78 C 143.89 142.47 145.02 142.45 145.71 141.75 L 146.41 141.03 C 147.09 140.32 147.08 139.19 146.37 138.51 C 145.66 137.82 144.53 137.84 143.85 138.54 Z M 143.08 139.35 L 142.46 140.06 C 141.82 140.81 141.91 141.94 142.66 142.57 C 143.41 143.21 144.53 143.13 145.17 142.38 L 145.78 141.66 C 146.42 140.91 146.33 139.79 145.59 139.15 C 144.84 138.51 143.72 138.60 143.08 139.35 Z M 142.41 140.15 L 141.82 140.91 C 141.23 141.69 141.38 142.80 142.16 143.39 C 142.94 143.99 144.05 143.84 144.64 143.06 L 145.22 142.29 C 145.82 141.52 145.67 140.41 144.89 139.81 C 144.11 139.22 143.00 139.37 142.41 140.15 Z M 141.80 140.97 L 141.20 141.81 C 140.64 142.61 140.84 143.70 141.63 144.26 C 142.42 144.82 143.52 144.63 144.08 143.84 L 144.67 143.00 C 145.23 142.21 145.04 141.11 144.24 140.55 C 143.45 139.99 142.35 140.18 141.80 140.97 Z M 141.19 141.85 L 140.63 142.67 C 140.09 143.47 140.30 144.56 141.10 145.10 C 141.90 145.64 142.99 145.43 143.53 144.63 L 144.09 143.81 C 144.63 143.01 144.42 141.92 143.62 141.38 C 142.82 140.84 141.73 141.05 141.19 141.85 Z M 140.63 142.69 L 140.15 143.41 C 139.62 144.21 139.84 145.29 140.64 145.82 C 141.44 146.36 142.52 146.14 143.06 145.34 L 143.53 144.62 C 144.07 143.82 143.85 142.74 143.05 142.20 C 142.25 141.67 141.16 141.89 140.63 142.69 Z M 140.15 143.41 L 139.63 144.20 C 139.10 145.00 139.33 146.08 140.13 146.61 C 140.94 147.14 142.02 146.92 142.54 146.11 L 143.06 145.33 C 143.59 144.52 143.36 143.44 142.56 142.92 C 141.76 142.39 140.68 142.61 140.15 143.41 Z M 139.63 144.21 L 139.07 145.07 C 138.54 145.88 138.77 146.95 139.58 147.48 C 140.39 148.00 141.47 147.77 141.99 146.97 L 142.55 146.10 C 143.07 145.30 142.84 144.22 142.04 143.70 C 141.23 143.17 140.15 143.40 139.63 144.21 Z M 139.06 145.08 L 138.45 146.03 C 137.93 146.84 138.17 147.91 138.98 148.43 C 139.79 148.95 140.86 148.72 141.38 147.91 L 141.99 146.96 C 142.51 146.15 142.28 145.07 141.47 144.55 C 140.66 144.03 139.58 144.27 139.06 145.08 Z M 138.45 146.04 L 137.87 146.96 C 137.35 147.76 137.59 148.84 138.40 149.35 C 139.21 149.87 140.28 149.63 140.80 148.82 L 141.38 147.90 C 141.90 147.09 141.66 146.02 140.85 145.50 C 140.04 144.99 138.97 145.23 138.45 146.04 Z M 137.87 146.96 L 137.33 147.81 C 136.82 148.62 137.06 149.69 137.87 150.20 C 138.68 150.71 139.74 150.47 140.26 149.66 L 140.79 148.81 C 141.31 148.01 141.07 146.94 140.26 146.43 C 139.45 145.91 138.38 146.15 137.87 146.96 Z M 137.34 147.82 L 136.78 148.69 C 136.27 149.50 136.51 150.56 137.32 151.07 C 138.12 151.58 139.18 151.34 139.69 150.54 L 140.25 149.66 C 140.76 148.86 140.52 147.79 139.72 147.28 C 138.91 146.77 137.85 147.01 137.34 147.82 Z M 136.79 148.69 L 136.23 149.58 C 135.72 150.37 135.96 151.43 136.76 151.94 C 137.56 152.45 138.62 152.22 139.12 151.42 L 139.69 150.54 C 140.19 149.74 139.96 148.68 139.16 148.17 C 138.36 147.66 137.30 147.89 136.79 148.69 Z M 136.24 149.57 L 135.69 150.44 C 135.18 151.23 135.41 152.29 136.20 152.80 C 137.00 153.30 138.05 153.07 138.56 152.28 L 139.11 151.42 C 139.62 150.62 139.39 149.57 138.60 149.06 C 137.81 148.55 136.75 148.78 136.24 149.57 Z M 135.70 150.43 L 135.17 151.25 C 134.65 152.04 134.88 153.09 135.66 153.60 C 136.45 154.12 137.50 153.89 138.01 153.11 L 138.55 152.29 C 139.06 151.50 138.84 150.45 138.05 149.93 C 137.26 149.42 136.21 149.65 135.70 150.43 Z M 135.18 151.24 L 134.65 152.04 C 134.13 152.82 134.35 153.87 135.12 154.39 C 135.90 154.90 136.95 154.69 137.47 153.91 L 138.00 153.12 C 138.51 152.34 138.30 151.29 137.53 150.77 C 136.75 150.25 135.70 150.47 135.18 151.24 Z M 134.68 152.02 L 134.01 152.99 C 133.48 153.76 133.67 154.80 134.44 155.33 C 135.20 155.86 136.25 155.67 136.77 154.90 L 137.44 153.93 C 137.97 153.17 137.78 152.12 137.01 151.59 C 136.25 151.07 135.20 151.26 134.68 152.02 Z M 134.04 152.97 L 133.44 153.80 C 132.90 154.55 133.07 155.60 133.81 156.13 C 134.56 156.67 135.60 156.50 136.14 155.76 L 136.74 154.92 C 137.28 154.18 137.11 153.13 136.37 152.59 C 135.62 152.05 134.58 152.22 134.04 152.97 Z M 133.46 153.79 L 132.91 154.53 C 132.36 155.26 132.51 156.30 133.24 156.85 C 133.98 157.39 135.01 157.25 135.56 156.51 L 136.12 155.77 C 136.66 155.04 136.52 154.00 135.78 153.45 C 135.05 152.91 134.01 153.05 133.46 153.79 Z M 132.93 154.52 L 132.40 155.21 C 131.85 155.93 131.99 156.96 132.71 157.51 C 133.43 158.07 134.46 157.93 135.01 157.21 L 135.54 156.52 C 136.09 155.80 135.96 154.77 135.24 154.21 C 134.52 153.66 133.48 153.80 132.93 154.52 Z M 132.41 155.21 L 132.31 155.34 C 131.75 156.06 131.89 157.09 132.60 157.64 C 133.32 158.19 134.35 158.06 134.90 157.35 L 135.01 157.21 C 135.56 156.49 135.43 155.46 134.71 154.91 C 133.99 154.36 132.97 154.49 132.41 155.21 Z"
      fill="black"
      fill-rule="nonzero" /><path d="M 136.33 126.38 L 135.41 126.77 C 134.47 127.17 134.03 128.25 134.42 129.20 C 134.82 130.14 135.90 130.58 136.84 130.18 L 137.77 129.79 C 138.71 129.39 139.15 128.31 138.76 127.37 C 138.36 126.43 137.27 125.99 136.33 126.38 Z M 135.29 126.81 L 134.40 127.26 C 133.48 127.72 133.11 128.84 133.57 129.76 C 134.03 130.67 135.15 131.05 136.07 130.59 L 136.96 130.14 C 137.88 129.68 138.25 128.56 137.79 127.64 C 137.33 126.73 136.21 126.35 135.29 126.81 Z M 134.18 127.38 L 133.36 127.94 C 132.51 128.52 132.29 129.68 132.87 130.53 C 133.45 131.39 134.61 131.61 135.46 131.03 L 136.29 130.47 C 137.14 129.89 137.36 128.73 136.78 127.87 C 136.20 127.02 135.04 126.80 134.18 127.38 Z M 133.10 128.14 L 132.43 128.78 C 131.69 129.51 131.68 130.70 132.40 131.45 C 133.13 132.19 134.32 132.20 135.07 131.48 L 135.73 130.83 C 136.47 130.10 136.49 128.91 135.76 128.17 C 135.03 127.42 133.84 127.41 133.10 128.14 Z M 132.22 129.00 L 131.65 129.78 C 131.02 130.62 131.20 131.81 132.04 132.44 C 132.89 133.06 134.08 132.88 134.70 132.04 L 135.28 131.26 C 135.90 130.42 135.72 129.23 134.88 128.60 C 134.04 127.98 132.84 128.16 132.22 129.00 Z M 131.50 129.97 L 130.99 130.88 C 130.48 131.81 130.81 132.98 131.74 133.49 C 132.66 134.01 133.83 133.68 134.35 132.75 L 134.85 131.84 C 135.37 130.91 135.04 129.74 134.11 129.23 C 133.18 128.71 132.01 129.05 131.50 129.97 Z M 130.89 131.04 L 130.48 132.00 C 130.05 132.98 130.50 134.12 131.48 134.55 C 132.46 134.98 133.60 134.53 134.03 133.55 L 134.45 132.59 C 134.87 131.61 134.42 130.46 133.44 130.04 C 132.46 129.61 131.32 130.06 130.89 131.04 Z M 130.42 132.12 L 130.09 133.05 C 129.74 134.06 130.26 135.17 131.28 135.53 C 132.29 135.89 133.40 135.36 133.76 134.35 L 134.09 133.42 C 134.44 132.41 133.92 131.30 132.90 130.94 C 131.89 130.58 130.78 131.11 130.42 132.12 Z M 130.06 133.15 L 129.77 134.12 C 129.47 135.15 130.05 136.23 131.08 136.53 C 132.11 136.84 133.20 136.25 133.50 135.22 L 133.79 134.25 C 134.10 133.22 133.51 132.14 132.48 131.83 C 131.45 131.53 130.37 132.12 130.06 133.15 Z M 129.75 134.20 L 129.50 135.19 C 129.24 136.23 129.88 137.29 130.92 137.55 C 131.96 137.81 133.02 137.17 133.28 136.13 L 133.52 135.14 C 133.78 134.10 133.15 133.04 132.11 132.78 C 131.07 132.52 130.01 133.16 129.75 134.20 Z M 129.49 135.26 L 129.28 136.25 C 129.06 137.30 129.74 138.33 130.79 138.55 C 131.84 138.77 132.87 138.09 133.09 137.04 L 133.30 136.05 C 133.51 135.00 132.84 133.97 131.79 133.75 C 130.73 133.54 129.70 134.21 129.49 135.26 Z M 129.27 136.32 L 129.11 137.29 C 128.93 138.35 129.65 139.35 130.71 139.53 C 131.76 139.71 132.77 138.99 132.94 137.93 L 133.11 136.96 C 133.28 135.90 132.57 134.90 131.51 134.72 C 130.45 134.55 129.44 135.26 129.27 136.32 Z M 129.10 137.37 L 128.97 138.34 C 128.84 139.40 129.59 140.37 130.66 140.51 C 131.72 140.64 132.70 139.89 132.83 138.82 L 132.95 137.86 C 133.09 136.79 132.33 135.82 131.27 135.68 C 130.20 135.55 129.23 136.30 129.10 137.37 Z M 128.97 138.41 L 128.88 139.40 C 128.78 140.47 129.57 141.41 130.64 141.51 C 131.71 141.60 132.65 140.81 132.75 139.74 L 132.84 138.75 C 132.93 137.68 132.15 136.74 131.08 136.64 C 130.01 136.55 129.06 137.34 128.97 138.41 Z M 128.87 139.46 L 128.81 140.50 C 128.75 141.57 129.57 142.49 130.64 142.55 C 131.71 142.62 132.63 141.80 132.69 140.73 L 132.75 139.68 C 132.82 138.61 132.00 137.69 130.93 137.63 C 129.86 137.57 128.94 138.39 128.87 139.46 Z M 128.81 140.55 L 128.78 141.55 C 128.74 142.62 129.58 143.52 130.65 143.56 C 131.72 143.59 132.62 142.76 132.66 141.68 L 132.69 140.68 C 132.73 139.61 131.89 138.71 130.82 138.67 C 129.75 138.64 128.85 139.47 128.81 140.55 Z M 128.78 141.58 L 128.76 142.61 C 128.74 143.68 129.59 144.56 130.66 144.58 C 131.73 144.60 132.61 143.75 132.63 142.68 L 132.65 141.65 C 132.67 140.59 131.82 139.70 130.76 139.68 C 129.69 139.66 128.80 140.51 128.78 141.58 Z M 128.77 142.63 L 128.76 143.65 C 128.75 144.72 129.61 145.59 130.67 145.60 C 131.74 145.61 132.61 144.75 132.62 143.69 L 132.63 142.66 C 132.64 141.60 131.78 140.73 130.72 140.72 C 129.65 140.71 128.78 141.56 128.77 142.63 Z M 128.77 143.67 L 128.76 144.65 C 128.76 145.72 129.62 146.58 130.68 146.58 C 131.74 146.59 132.61 145.73 132.61 144.66 L 132.61 143.68 C 132.62 142.61 131.76 141.75 130.69 141.75 C 129.63 141.74 128.77 142.60 128.77 143.67 Z M 128.77 144.66 L 128.77 145.66 C 128.77 146.72 129.63 147.58 130.69 147.58 C 131.74 147.58 132.60 146.72 132.60 145.66 L 132.60 144.66 C 132.60 143.60 131.74 142.74 130.69 142.74 C 129.63 142.74 128.77 143.60 128.77 144.66 Z M 128.78 145.66 L 128.78 146.71 C 128.78 147.76 129.63 148.62 130.68 148.62 C 131.73 148.62 132.59 147.77 132.59 146.71 L 132.59 145.66 C 132.59 144.61 131.74 143.76 130.69 143.76 C 129.64 143.76 128.78 144.61 128.78 145.66 Z M 128.79 146.70 L 128.79 147.67 C 128.78 148.72 129.63 149.57 130.67 149.57 C 131.71 149.58 132.56 148.74 132.57 147.69 L 132.57 146.72 C 132.58 145.68 131.74 144.83 130.69 144.82 C 129.65 144.82 128.80 145.66 128.79 146.70 Z M 128.80 147.66 L 128.79 148.60 C 128.78 149.64 129.61 150.49 130.64 150.50 C 131.68 150.52 132.53 149.69 132.54 148.65 L 132.56 147.71 C 132.57 146.67 131.74 145.82 130.70 145.81 C 129.67 145.79 128.82 146.62 128.80 147.66 Z M 128.81 148.59 L 128.79 149.55 C 128.76 150.58 129.58 151.43 130.61 151.46 C 131.64 151.48 132.49 150.66 132.51 149.63 L 132.53 148.67 C 132.55 147.64 131.74 146.79 130.71 146.76 C 129.68 146.74 128.83 147.56 128.81 148.59 Z M 128.80 149.54 L 128.77 150.54 C 128.74 151.56 129.55 152.41 130.57 152.44 C 131.59 152.47 132.44 151.66 132.47 150.64 L 132.50 149.64 C 132.52 148.62 131.72 147.77 130.70 147.74 C 129.67 147.72 128.82 148.52 128.80 149.54 Z M 128.78 150.54 L 128.76 151.55 C 128.73 152.57 129.53 153.41 130.55 153.44 C 131.56 153.47 132.41 152.66 132.43 151.65 L 132.46 150.64 C 132.49 149.62 131.68 148.78 130.67 148.75 C 129.65 148.72 128.81 149.52 128.78 150.54 Z M 128.77 151.56 L 128.75 152.57 C 128.72 153.58 129.52 154.42 130.53 154.44 C 131.54 154.46 132.38 153.66 132.40 152.65 L 132.42 151.64 C 132.44 150.63 131.64 149.80 130.63 149.77 C 129.62 149.75 128.79 150.55 128.77 151.56 Z M 128.76 152.59 L 128.74 153.58 C 128.73 154.59 129.53 155.41 130.53 155.43 C 131.54 155.44 132.36 154.64 132.38 153.63 L 132.39 152.64 C 132.40 151.64 131.60 150.81 130.60 150.80 C 129.59 150.78 128.77 151.59 128.76 152.59 Z M 128.75 153.58 L 128.74 154.58 C 128.73 155.58 129.52 156.40 130.52 156.41 C 131.52 156.42 132.34 155.63 132.35 154.63 L 132.37 153.63 C 132.38 152.64 131.58 151.82 130.58 151.80 C 129.59 151.79 128.77 152.59 128.75 153.58 Z M 128.75 154.57 L 128.73 155.57 C 128.71 156.56 129.50 157.38 130.49 157.40 C 131.48 157.42 132.30 156.64 132.32 155.64 L 132.34 154.64 C 132.36 153.65 131.57 152.83 130.58 152.81 C 129.59 152.79 128.77 153.57 128.75 154.57 Z M 128.74 155.54 L 128.70 156.53 C 128.67 157.52 129.44 158.35 130.43 158.38 C 131.41 158.42 132.24 157.65 132.28 156.66 L 132.31 155.67 C 132.35 154.68 131.57 153.86 130.59 153.82 C 129.60 153.79 128.77 154.56 128.74 155.54 Z M 128.72 156.51 L 128.67 157.49 C 128.62 158.47 129.37 159.30 130.35 159.35 C 131.33 159.40 132.16 158.65 132.21 157.67 L 132.26 156.69 C 132.31 155.71 131.56 154.87 130.58 154.82 C 129.60 154.77 128.77 155.53 128.72 156.51 Z M 128.68 157.47 L 128.62 158.47 C 128.56 159.44 129.30 160.28 130.27 160.34 C 131.25 160.40 132.08 159.66 132.14 158.69 L 132.20 157.69 C 132.26 156.71 131.52 155.88 130.55 155.82 C 129.57 155.76 128.74 156.50 128.68 157.47 Z M 128.63 158.46 L 128.56 159.48 C 128.50 160.45 129.23 161.28 130.20 161.35 C 131.16 161.41 132.00 160.68 132.06 159.71 L 132.13 158.69 C 132.19 157.73 131.46 156.89 130.49 156.83 C 129.53 156.76 128.69 157.50 128.63 158.46 Z M 128.57 159.48 L 128.51 160.48 C 128.44 161.44 129.17 162.27 130.13 162.34 C 131.09 162.40 131.92 161.67 131.99 160.71 L 132.05 159.71 C 132.12 158.75 131.39 157.92 130.43 157.86 C 129.47 157.79 128.64 158.52 128.57 159.48 Z M 128.52 160.48 L 128.45 161.48 C 128.39 162.44 129.11 163.26 130.07 163.32 C 131.02 163.39 131.85 162.66 131.91 161.71 L 131.98 160.71 C 132.04 159.76 131.32 158.93 130.36 158.87 C 129.40 158.80 128.58 159.53 128.52 160.48 Z M 128.46 161.48 L 128.39 162.48 C 128.33 163.43 129.05 164.25 130.00 164.32 C 130.95 164.38 131.77 163.66 131.84 162.71 L 131.90 161.71 C 131.96 160.75 131.24 159.93 130.29 159.87 C 129.34 159.81 128.52 160.53 128.46 161.48 Z M 128.40 162.48 L 128.34 163.49 C 128.28 164.43 128.99 165.25 129.94 165.31 C 130.88 165.37 131.70 164.66 131.76 163.71 L 131.83 162.71 C 131.89 161.76 131.17 160.94 130.23 160.88 C 129.28 160.82 128.46 161.54 128.40 162.48 Z M 128.35 163.49 L 128.28 164.49 C 128.22 165.43 128.93 166.24 129.87 166.30 C 130.81 166.37 131.63 165.65 131.69 164.71 L 131.75 163.71 C 131.82 162.77 131.10 161.96 130.16 161.89 C 129.22 161.83 128.41 162.55 128.35 163.49 Z M 128.29 164.48 L 128.22 165.48 C 128.16 166.42 128.86 167.23 129.80 167.30 C 130.74 167.36 131.55 166.65 131.61 165.72 L 131.68 164.72 C 131.74 163.78 131.04 162.97 130.10 162.91 C 129.16 162.84 128.35 163.55 128.29 164.48 Z M 128.23 165.47 L 128.15 166.47 C 128.08 167.40 128.78 168.21 129.71 168.28 C 130.64 168.35 131.46 167.66 131.53 166.72 L 131.60 165.73 C 131.67 164.80 130.97 163.98 130.04 163.91 C 129.11 163.84 128.30 164.54 128.23 165.47 Z M 128.16 166.45 L 128.08 167.44 C 128.00 168.37 128.68 169.19 129.61 169.27 C 130.54 169.35 131.35 168.66 131.43 167.73 L 131.52 166.74 C 131.60 165.81 130.91 165.00 129.99 164.92 C 129.06 164.84 128.24 165.53 128.16 166.45 Z M 128.09 167.42 L 127.99 168.41 C 127.89 169.33 128.57 170.15 129.49 170.24 C 130.41 170.34 131.23 169.66 131.32 168.74 L 131.42 167.76 C 131.52 166.84 130.84 166.01 129.92 165.92 C 129.00 165.83 128.18 166.50 128.09 167.42 Z M 128.00 168.38 L 127.88 169.37 C 127.77 170.28 128.43 171.11 129.35 171.22 C 130.26 171.32 131.09 170.67 131.20 169.75 L 131.31 168.77 C 131.42 167.85 130.76 167.02 129.85 166.92 C 128.93 166.81 128.10 167.47 128.00 168.38 Z M 127.89 169.35 L 127.76 170.34 C 127.64 171.25 128.29 172.08 129.20 172.20 C 130.11 172.32 130.95 171.67 131.07 170.76 L 131.19 169.77 C 131.31 168.86 130.67 168.02 129.75 167.91 C 128.84 167.79 128.01 168.43 127.89 169.35 Z M 127.77 170.32 L 127.63 171.32 C 127.51 172.23 128.14 173.07 129.05 173.19 C 129.96 173.32 130.79 172.68 130.92 171.78 L 131.06 170.78 C 131.18 169.87 130.55 169.03 129.64 168.90 C 128.73 168.78 127.89 169.41 127.77 170.32 Z M 127.64 171.31 L 127.50 172.27 C 127.37 173.18 127.99 174.02 128.90 174.15 C 129.80 174.28 130.64 173.65 130.77 172.75 L 130.91 171.79 C 131.04 170.88 130.42 170.04 129.51 169.91 C 128.61 169.78 127.77 170.41 127.64 171.31 Z M 127.50 172.26 L 127.36 173.19 C 127.23 174.09 127.85 174.93 128.75 175.07 C 129.65 175.21 130.49 174.59 130.63 173.69 L 130.77 172.76 C 130.91 171.85 130.29 171.01 129.38 170.88 C 128.48 170.74 127.64 171.36 127.50 172.26 Z M 127.37 173.18 L 127.21 174.14 C 127.07 175.04 127.68 175.89 128.58 176.03 C 129.48 176.17 130.33 175.56 130.47 174.66 L 130.62 173.70 C 130.77 172.80 130.15 171.95 129.26 171.81 C 128.36 171.67 127.51 172.28 127.37 173.18 Z M 127.22 174.13 L 127.05 175.14 C 126.90 176.04 127.50 176.89 128.40 177.04 C 129.29 177.19 130.14 176.59 130.29 175.69 L 130.46 174.68 C 130.62 173.78 130.01 172.93 129.12 172.78 C 128.22 172.63 127.37 173.23 127.22 174.13 Z M 127.05 175.13 L 126.86 176.20 C 126.70 177.10 127.30 177.95 128.19 178.11 C 129.08 178.27 129.94 177.67 130.10 176.78 L 130.29 175.70 C 130.45 174.81 129.85 173.96 128.96 173.80 C 128.07 173.64 127.21 174.23 127.05 175.13 Z M 126.87 176.19 L 126.69 177.13 C 126.52 178.02 127.11 178.88 128.00 179.04 C 128.89 179.21 129.75 178.63 129.91 177.74 L 130.09 176.80 C 130.26 175.90 129.67 175.05 128.78 174.88 C 127.89 174.71 127.03 175.30 126.87 176.19 Z M 126.69 177.11 L 126.50 178.09 C 126.32 178.98 126.90 179.84 127.79 180.01 C 128.68 180.19 129.54 179.61 129.72 178.72 L 129.91 177.75 C 130.09 176.86 129.51 176.00 128.62 175.82 C 127.73 175.65 126.87 176.22 126.69 177.11 Z M 126.50 178.07 L 126.30 179.07 C 126.11 179.95 126.68 180.82 127.57 181.00 C 128.46 181.19 129.32 180.62 129.51 179.73 L 129.71 178.74 C 129.90 177.85 129.33 176.98 128.44 176.80 C 127.56 176.62 126.69 177.18 126.50 178.07 Z M 126.30 179.05 L 126.08 180.05 C 125.89 180.93 126.45 181.81 127.33 182.00 C 128.22 182.19 129.09 181.63 129.28 180.75 L 129.50 179.75 C 129.70 178.87 129.14 177.99 128.25 177.80 C 127.37 177.60 126.50 178.16 126.30 179.05 Z M 126.09 180.03 L 125.86 181.02 C 125.65 181.90 126.20 182.78 127.08 182.98 C 127.96 183.19 128.84 182.64 129.05 181.76 L 129.28 180.77 C 129.48 179.89 128.94 179.01 128.05 178.80 C 127.17 178.60 126.29 179.15 126.09 180.03 Z M 125.86 180.99 L 125.61 181.99 C 125.39 182.87 125.93 183.76 126.81 183.98 C 127.68 184.20 128.57 183.66 128.79 182.79 L 129.04 181.78 C 129.26 180.91 128.73 180.02 127.85 179.80 C 126.97 179.58 126.08 180.11 125.86 180.99 Z M 125.62 181.96 L 125.35 182.97 C 125.11 183.84 125.63 184.74 126.50 184.98 C 127.38 185.21 128.28 184.70 128.51 183.82 L 128.78 182.82 C 129.02 181.94 128.50 181.04 127.63 180.81 C 126.76 180.57 125.86 181.09 125.62 181.96 Z M 125.36 182.94 L 125.07 183.91 C 124.82 184.78 125.32 185.69 126.19 185.94 C 127.05 186.20 127.96 185.70 128.22 184.83 L 128.50 183.86 C 128.76 182.99 128.26 182.08 127.39 181.83 C 126.52 181.57 125.61 182.07 125.36 182.94 Z M 125.08 183.88 L 124.79 184.81 C 124.52 185.68 124.99 186.60 125.85 186.87 C 126.72 187.14 127.64 186.66 127.91 185.80 L 128.21 184.86 C 128.48 184.00 128.00 183.08 127.14 182.81 C 126.28 182.54 125.36 183.01 125.08 183.88 Z M 124.80 184.78 L 124.49 185.69 C 124.20 186.54 124.65 187.47 125.51 187.76 C 126.36 188.06 127.29 187.60 127.59 186.75 L 127.90 185.84 C 128.19 184.98 127.73 184.05 126.88 183.76 C 126.02 183.47 125.09 183.92 124.80 184.78 Z M 124.50 185.65 L 124.16 186.56 C 123.85 187.41 124.28 188.35 125.13 188.67 C 125.98 188.98 126.92 188.55 127.23 187.70 L 127.57 186.79 C 127.89 185.94 127.45 185.00 126.61 184.68 C 125.76 184.37 124.82 184.80 124.50 185.65 Z M 124.18 186.53 L 123.80 187.47 C 123.47 188.31 123.88 189.26 124.72 189.60 C 125.55 189.93 126.51 189.52 126.84 188.68 L 127.22 187.74 C 127.55 186.90 127.14 185.95 126.31 185.61 C 125.47 185.28 124.51 185.69 124.18 186.53 Z M 123.81 187.44 L 123.42 188.36 C 123.07 189.19 123.46 190.15 124.29 190.50 C 125.13 190.86 126.09 190.47 126.44 189.63 L 126.83 188.71 C 127.18 187.88 126.79 186.92 125.96 186.57 C 125.13 186.22 124.17 186.61 123.81 187.44 Z M 123.43 188.34 L 123.04 189.24 C 122.67 190.07 123.05 191.04 123.87 191.40 C 124.70 191.77 125.67 191.39 126.03 190.56 L 126.43 189.66 C 126.79 188.83 126.42 187.86 125.59 187.50 C 124.76 187.13 123.80 187.51 123.43 188.34 Z M 123.04 189.23 L 122.64 190.13 C 122.27 190.96 122.63 191.92 123.46 192.29 C 124.28 192.67 125.25 192.30 125.62 191.47 L 126.03 190.57 C 126.40 189.75 126.03 188.78 125.20 188.41 C 124.38 188.04 123.41 188.41 123.04 189.23 Z M 122.64 190.13 L 122.56 190.30 C 122.19 191.12 122.56 192.09 123.38 192.46 C 124.21 192.83 125.17 192.47 125.55 191.64 L 125.62 191.48 C 125.99 190.65 125.63 189.68 124.80 189.31 C 123.98 188.94 123.01 189.30 122.64 190.13 Z"
      fill="black"
      fill-rule="nonzero" /><path d="M 133.94 170.08 L 134.90 169.90 C 135.89 169.71 136.54 168.75 136.35 167.76 C 136.16 166.77 135.21 166.12 134.21 166.31 L 133.26 166.49 C 132.27 166.68 131.62 167.63 131.81 168.63 C 132.00 169.62 132.95 170.27 133.94 170.08 Z M 134.71 169.93 L 135.68 169.85 C 136.69 169.76 137.44 168.87 137.35 167.86 C 137.27 166.86 136.38 166.11 135.37 166.19 L 134.40 166.28 C 133.39 166.36 132.64 167.25 132.73 168.26 C 132.82 169.27 133.70 170.01 134.71 169.93 Z M 135.32 169.85 L 136.32 169.96 C 137.33 170.08 138.25 169.35 138.36 168.34 C 138.48 167.33 137.75 166.42 136.74 166.31 L 135.74 166.19 C 134.73 166.08 133.82 166.80 133.70 167.81 C 133.59 168.82 134.31 169.73 135.32 169.85 Z M 135.91 169.87 L 136.81 170.20 C 137.77 170.55 138.83 170.05 139.18 169.09 C 139.52 168.13 139.03 167.07 138.07 166.73 L 137.16 166.40 C 136.20 166.05 135.15 166.55 134.80 167.51 C 134.45 168.46 134.95 169.52 135.91 169.87 Z M 136.54 170.08 L 137.39 170.56 C 138.28 171.06 139.41 170.74 139.91 169.85 C 140.41 168.95 140.09 167.82 139.20 167.32 L 138.35 166.84 C 137.45 166.34 136.32 166.66 135.82 167.56 C 135.32 168.45 135.64 169.58 136.54 170.08 Z M 137.24 170.48 L 138.09 171.06 C 138.93 171.65 140.10 171.43 140.68 170.58 C 141.27 169.74 141.05 168.57 140.20 167.99 L 139.35 167.40 C 138.51 166.82 137.34 167.03 136.76 167.88 C 136.17 168.73 136.39 169.89 137.24 170.48 Z M 138.00 171.01 L 138.82 171.65 C 139.64 172.28 140.82 172.13 141.45 171.31 C 142.08 170.49 141.93 169.31 141.11 168.68 L 140.29 168.04 C 139.47 167.41 138.29 167.56 137.66 168.38 C 137.03 169.20 137.18 170.38 138.00 171.01 Z M 138.78 171.62 L 139.54 172.24 C 140.35 172.90 141.54 172.78 142.19 171.97 C 142.85 171.16 142.73 169.98 141.92 169.32 L 141.16 168.70 C 140.35 168.04 139.16 168.17 138.51 168.97 C 137.85 169.78 137.97 170.97 138.78 171.62 Z M 139.53 172.24 L 140.24 172.83 C 141.04 173.49 142.23 173.38 142.90 172.58 C 143.56 171.77 143.45 170.58 142.65 169.92 L 141.93 169.33 C 141.13 168.67 139.94 168.78 139.28 169.58 C 138.61 170.38 138.73 171.57 139.53 172.24 Z M 140.23 172.82 L 140.95 173.42 C 141.75 174.09 142.94 173.98 143.61 173.18 C 144.28 172.39 144.17 171.20 143.37 170.53 L 142.65 169.93 C 141.86 169.26 140.67 169.36 140.00 170.16 C 139.33 170.96 139.44 172.15 140.23 172.82 Z M 140.95 173.42 L 141.73 174.07 C 142.53 174.74 143.72 174.64 144.38 173.84 C 145.05 173.04 144.95 171.85 144.15 171.18 L 143.38 170.53 C 142.58 169.86 141.39 169.96 140.72 170.76 C 140.05 171.56 140.15 172.75 140.95 173.42 Z M 141.73 174.07 L 142.60 174.80 C 143.39 175.47 144.58 175.37 145.25 174.57 C 145.92 173.77 145.82 172.58 145.02 171.91 L 144.15 171.18 C 143.36 170.52 142.17 170.62 141.50 171.42 C 140.83 172.21 140.93 173.40 141.73 174.07 Z M 142.60 174.80 L 143.29 175.38 C 144.09 176.05 145.28 175.94 145.94 175.14 C 146.61 174.35 146.51 173.16 145.71 172.49 L 145.02 171.91 C 144.22 171.25 143.03 171.35 142.37 172.15 C 141.70 172.95 141.80 174.13 142.60 174.80 Z M 143.30 175.38 L 144.05 176.00 C 144.84 176.66 146.03 176.56 146.69 175.76 C 147.35 174.97 147.25 173.78 146.45 173.12 L 145.70 172.50 C 144.91 171.83 143.72 171.94 143.06 172.73 C 142.40 173.53 142.50 174.71 143.30 175.38 Z M 144.05 176.00 L 144.84 176.65 C 145.63 177.31 146.81 177.20 147.47 176.41 C 148.13 175.61 148.02 174.44 147.23 173.78 L 146.44 173.12 C 145.65 172.46 144.47 172.57 143.81 173.37 C 143.15 174.16 143.26 175.34 144.05 176.00 Z M 144.85 176.65 L 145.65 177.32 C 146.45 177.97 147.62 177.86 148.28 177.07 C 148.93 176.27 148.82 175.10 148.03 174.44 L 147.22 173.78 C 146.43 173.12 145.25 173.23 144.60 174.03 C 143.94 174.82 144.05 175.99 144.85 176.65 Z M 145.66 177.31 L 146.47 177.98 C 147.26 178.63 148.43 178.51 149.08 177.72 C 149.73 176.93 149.62 175.76 148.83 175.11 L 148.02 174.44 C 147.23 173.79 146.05 173.91 145.40 174.70 C 144.75 175.49 144.87 176.66 145.66 177.31 Z M 146.48 177.98 L 147.27 178.62 C 148.06 179.27 149.23 179.15 149.87 178.36 C 150.52 177.56 150.40 176.40 149.61 175.75 L 148.82 175.11 C 148.02 174.46 146.86 174.58 146.21 175.37 C 145.57 176.17 145.68 177.33 146.48 177.98 Z M 147.29 178.62 L 148.16 179.32 C 148.95 179.96 150.11 179.83 150.74 179.04 C 151.38 178.25 151.25 177.10 150.46 176.46 L 149.59 175.76 C 148.80 175.12 147.65 175.25 147.01 176.04 C 146.37 176.83 146.50 177.98 147.29 178.62 Z M 148.19 179.30 L 149.05 179.98 C 149.83 180.60 150.96 180.47 151.58 179.69 C 152.20 178.91 152.07 177.78 151.29 177.16 L 150.43 176.48 C 149.65 175.86 148.52 175.99 147.90 176.77 C 147.28 177.55 147.41 178.68 148.19 179.30 Z M 149.08 179.96 L 149.88 180.59 C 150.65 181.20 151.76 181.06 152.37 180.29 C 152.97 179.52 152.83 178.41 152.06 177.81 L 151.26 177.18 C 150.49 176.58 149.38 176.71 148.78 177.48 C 148.17 178.25 148.31 179.36 149.08 179.96 Z M 149.91 180.57 L 150.67 181.16 C 151.43 181.74 152.52 181.60 153.10 180.84 C 153.69 180.09 153.55 179.00 152.79 178.41 L 152.03 177.83 C 151.28 177.24 150.19 177.38 149.60 178.14 C 149.01 178.90 149.15 179.99 149.91 180.57 Z M 150.70 181.14 L 151.40 181.67 C 152.15 182.24 153.22 182.10 153.79 181.35 C 154.35 180.60 154.21 179.53 153.46 178.97 L 152.76 178.43 C 152.01 177.86 150.94 178.01 150.37 178.75 C 149.81 179.50 149.95 180.57 150.70 181.14 Z M 151.43 181.66 L 152.22 182.25 C 152.96 182.81 154.01 182.66 154.57 181.92 C 155.12 181.18 154.97 180.13 154.23 179.57 L 153.44 178.98 C 152.70 178.43 151.65 178.58 151.09 179.32 C 150.54 180.06 150.69 181.11 151.43 181.66 Z M 152.24 182.25 L 153.09 182.87 C 153.82 183.41 154.86 183.25 155.41 182.52 C 155.95 181.78 155.79 180.74 155.05 180.20 L 154.21 179.58 C 153.47 179.03 152.43 179.19 151.89 179.93 C 151.35 180.67 151.50 181.71 152.24 182.25 Z M 153.10 182.87 L 153.89 183.44 C 154.63 183.97 155.66 183.81 156.19 183.07 C 156.73 182.33 156.56 181.30 155.82 180.76 L 155.04 180.20 C 154.30 179.66 153.27 179.83 152.73 180.57 C 152.20 181.30 152.36 182.34 153.10 182.87 Z M 153.90 183.44 L 154.65 183.98 C 155.39 184.51 156.42 184.34 156.95 183.60 C 157.47 182.86 157.31 181.84 156.57 181.31 L 155.81 180.77 C 155.07 180.24 154.05 180.41 153.52 181.15 C 152.99 181.88 153.16 182.91 153.90 183.44 Z M 154.66 183.98 L 154.80 184.08 C 155.53 184.60 156.56 184.43 157.08 183.70 C 157.61 182.96 157.44 181.94 156.70 181.41 L 156.56 181.31 C 155.83 180.79 154.80 180.96 154.28 181.69 C 153.75 182.43 153.92 183.45 154.66 183.98 Z"
      fill="black"
      fill-rule="nonzero" /><path d="M 159.06 111.36 L 158.71 112.25 C 158.34 113.21 158.81 114.28 159.77 114.65 C 160.72 115.03 161.80 114.55 162.17 113.60 L 162.52 112.71 C 162.89 111.76 162.42 110.68 161.47 110.31 C 160.51 109.93 159.44 110.41 159.06 111.36 Z M 158.71 112.26 L 158.36 113.17 C 157.99 114.12 158.46 115.20 159.42 115.57 C 160.37 115.94 161.44 115.47 161.82 114.51 L 162.17 113.60 C 162.54 112.64 162.07 111.57 161.11 111.20 C 160.16 110.83 159.08 111.30 158.71 112.26 Z M 158.36 113.18 L 157.99 114.14 C 157.62 115.09 158.10 116.17 159.06 116.53 C 160.01 116.90 161.08 116.42 161.45 115.46 L 161.82 114.50 C 162.18 113.55 161.71 112.48 160.75 112.11 C 159.79 111.74 158.72 112.22 158.36 113.18 Z M 157.98 114.15 L 157.62 115.10 C 157.26 116.06 157.75 117.13 158.71 117.49 C 159.67 117.85 160.74 117.37 161.10 116.41 L 161.46 115.46 C 161.82 114.50 161.34 113.42 160.37 113.06 C 159.41 112.70 158.34 113.18 157.98 114.15 Z M 157.60 115.11 L 157.26 116.05 C 156.90 117.02 157.40 118.09 158.37 118.45 C 159.35 118.80 160.42 118.30 160.78 117.33 L 161.12 116.39 C 161.48 115.42 160.98 114.35 160.00 113.99 C 159.03 113.64 157.96 114.14 157.60 115.11 Z M 157.23 116.07 L 156.90 117.03 C 156.56 118.02 157.08 119.09 158.07 119.44 C 159.05 119.78 160.13 119.26 160.47 118.27 L 160.80 117.31 C 161.15 116.32 160.62 115.24 159.64 114.90 C 158.65 114.56 157.57 115.08 157.23 116.07 Z M 156.87 117.07 L 156.56 118.03 C 156.24 119.03 156.79 120.11 157.80 120.43 C 158.80 120.75 159.88 120.19 160.20 119.19 L 160.50 118.23 C 160.82 117.23 160.27 116.15 159.26 115.83 C 158.26 115.51 157.19 116.07 156.87 117.07 Z M 156.53 118.09 L 156.26 119.07 C 155.97 120.09 156.57 121.15 157.59 121.44 C 158.61 121.72 159.67 121.12 159.96 120.10 L 160.23 119.13 C 160.51 118.11 159.92 117.05 158.90 116.76 C 157.87 116.47 156.81 117.07 156.53 118.09 Z M 156.23 119.15 L 156.00 120.13 C 155.77 121.17 156.41 122.20 157.45 122.44 C 158.49 122.68 159.52 122.03 159.76 120.99 L 159.98 120.02 C 160.22 118.98 159.57 117.95 158.54 117.71 C 157.50 117.47 156.47 118.12 156.23 119.15 Z M 155.98 120.23 L 155.81 121.20 C 155.63 122.25 156.33 123.25 157.38 123.43 C 158.43 123.61 159.43 122.91 159.61 121.86 L 159.78 120.89 C 159.96 119.85 159.26 118.85 158.21 118.66 C 157.17 118.48 156.17 119.18 155.98 120.23 Z M 155.80 121.30 L 155.68 122.29 C 155.55 123.35 156.31 124.31 157.36 124.43 C 158.42 124.56 159.38 123.81 159.51 122.75 L 159.63 121.76 C 159.75 120.70 159.00 119.74 157.94 119.62 C 156.88 119.49 155.92 120.24 155.80 121.30 Z M 155.67 122.39 L 155.60 123.41 C 155.53 124.47 156.34 125.39 157.40 125.46 C 158.46 125.53 159.38 124.73 159.45 123.66 L 159.52 122.65 C 159.59 121.58 158.78 120.66 157.72 120.59 C 156.66 120.52 155.74 121.33 155.67 122.39 Z M 155.60 123.54 L 155.60 124.56 C 155.60 125.63 156.46 126.49 157.53 126.49 C 158.59 126.49 159.46 125.62 159.46 124.56 L 159.45 123.53 C 159.45 122.47 158.59 121.61 157.52 121.61 C 156.46 121.61 155.60 122.47 155.60 123.54 Z M 155.61 124.73 L 155.70 125.72 C 155.79 126.78 156.73 127.56 157.79 127.47 C 158.85 127.37 159.63 126.43 159.54 125.37 L 159.45 124.38 C 159.35 123.32 158.41 122.54 157.35 122.64 C 156.29 122.73 155.51 123.67 155.61 124.73 Z M 155.74 125.96 L 155.94 126.91 C 156.17 127.95 157.20 128.61 158.24 128.38 C 159.28 128.15 159.93 127.13 159.71 126.09 L 159.50 125.14 C 159.27 124.10 158.24 123.44 157.20 123.67 C 156.17 123.90 155.51 124.92 155.74 125.96 Z M 156.05 127.23 L 156.44 128.17 C 156.84 129.14 157.96 129.61 158.94 129.21 C 159.92 128.81 160.39 127.69 159.98 126.71 L 159.60 125.77 C 159.19 124.79 158.08 124.32 157.10 124.73 C 156.12 125.13 155.65 126.25 156.05 127.23 Z M 156.63 128.50 L 157.18 129.31 C 157.76 130.18 158.95 130.41 159.82 129.83 C 160.69 129.24 160.92 128.06 160.34 127.19 L 159.79 126.38 C 159.20 125.51 158.02 125.27 157.15 125.86 C 156.28 126.44 156.05 127.62 156.63 128.50 Z M 157.43 129.59 L 158.13 130.29 C 158.88 131.02 160.07 131.01 160.80 130.27 C 161.53 129.53 161.53 128.34 160.79 127.61 L 160.08 126.91 C 159.34 126.18 158.15 126.18 157.42 126.92 C 156.68 127.66 156.69 128.86 157.43 129.59 Z M 158.39 130.49 L 159.12 130.99 C 159.96 131.58 161.13 131.37 161.72 130.52 C 162.31 129.67 162.10 128.50 161.25 127.91 L 160.53 127.41 C 159.68 126.82 158.51 127.03 157.92 127.88 C 157.33 128.73 157.54 129.90 158.39 130.49 Z M 159.35 131.12 L 160.20 131.54 C 161.12 132.00 162.24 131.62 162.70 130.70 C 163.16 129.78 162.78 128.66 161.86 128.20 L 161.01 127.78 C 160.09 127.32 158.97 127.70 158.51 128.62 C 158.06 129.54 158.43 130.66 159.35 131.12 Z M 160.42 131.62 L 161.41 131.96 C 162.38 132.30 163.44 131.79 163.77 130.82 C 164.11 129.85 163.59 128.80 162.63 128.46 L 161.64 128.12 C 160.67 127.78 159.62 128.29 159.28 129.26 C 158.94 130.23 159.46 131.29 160.42 131.62 Z M 161.60 132.01 L 162.67 132.26 C 163.66 132.50 164.66 131.88 164.89 130.89 C 165.13 129.90 164.51 128.91 163.52 128.67 L 162.44 128.42 C 161.45 128.18 160.46 128.80 160.22 129.79 C 159.99 130.78 160.60 131.77 161.60 132.01 Z M 162.80 132.28 L 163.74 132.43 C 164.74 132.60 165.69 131.92 165.85 130.92 C 166.01 129.92 165.34 128.97 164.34 128.81 L 163.39 128.66 C 162.39 128.49 161.45 129.17 161.29 130.17 C 161.12 131.17 161.80 132.12 162.80 132.28 Z M 163.83 132.44 L 164.83 132.55 C 165.84 132.66 166.74 131.94 166.85 130.94 C 166.97 129.94 166.25 129.03 165.25 128.92 L 164.25 128.81 C 163.24 128.69 162.34 129.41 162.23 130.41 C 162.11 131.42 162.83 132.32 163.83 132.44 Z M 164.91 132.55 L 165.93 132.62 C 166.94 132.70 167.81 131.94 167.88 130.94 C 167.95 129.94 167.20 129.07 166.20 129.00 L 165.17 128.92 C 164.17 128.85 163.30 129.60 163.23 130.60 C 163.15 131.60 163.91 132.47 164.91 132.55 Z M 166.00 132.62 L 167.03 132.66 C 168.03 132.69 168.86 131.91 168.90 130.91 C 168.94 129.92 168.16 129.08 167.16 129.04 L 166.13 129.00 C 165.14 128.97 164.30 129.75 164.26 130.74 C 164.22 131.74 165.00 132.58 166.00 132.62 Z M 167.09 132.65 L 168.11 132.65 C 169.10 132.65 169.91 131.84 169.91 130.85 C 169.91 129.85 169.11 129.05 168.11 129.05 L 167.09 129.05 C 166.10 129.05 165.29 129.85 165.29 130.85 C 165.29 131.84 166.10 132.65 167.09 132.65 Z M 168.19 132.64 L 169.30 132.59 C 170.29 132.55 171.06 131.72 171.01 130.73 C 170.97 129.74 170.14 128.97 169.15 129.01 L 168.04 129.06 C 167.05 129.10 166.28 129.93 166.32 130.92 C 166.36 131.91 167.20 132.68 168.19 132.64 Z M 169.39 132.58 L 170.42 132.49 C 171.40 132.40 172.12 131.53 172.03 130.54 C 171.94 129.56 171.07 128.84 170.09 128.93 L 169.06 129.02 C 168.08 129.11 167.35 129.98 167.44 130.97 C 167.53 131.95 168.40 132.67 169.39 132.58 Z M 170.52 132.47 L 171.47 132.33 C 172.44 132.18 173.11 131.27 172.97 130.30 C 172.82 129.33 171.92 128.66 170.94 128.80 L 169.99 128.95 C 169.02 129.09 168.35 130.00 168.49 130.97 C 168.64 131.94 169.54 132.61 170.52 132.47 Z M 171.58 132.30 L 172.45 132.11 C 173.41 131.91 174.02 130.96 173.81 130.01 C 173.61 129.05 172.67 128.44 171.71 128.64 L 170.83 128.83 C 169.88 129.04 169.27 129.98 169.47 130.94 C 169.68 131.89 170.62 132.50 171.58 132.30 Z M 172.59 132.07 L 173.55 131.79 C 174.48 131.51 175.01 130.52 174.73 129.58 C 174.45 128.65 173.47 128.12 172.53 128.40 L 171.57 128.68 C 170.64 128.96 170.10 129.95 170.38 130.88 C 170.67 131.82 171.65 132.35 172.59 132.07 Z M 173.70 131.73 L 174.61 131.36 C 175.52 131.00 175.96 129.97 175.59 129.06 C 175.22 128.16 174.19 127.72 173.29 128.08 L 172.38 128.45 C 171.47 128.82 171.03 129.85 171.40 130.75 C 171.76 131.66 172.79 132.10 173.70 131.73 Z M 174.75 131.30 L 175.62 130.86 C 176.50 130.42 176.85 129.36 176.41 128.49 C 175.97 127.61 174.90 127.26 174.03 127.70 L 173.15 128.14 C 172.28 128.58 171.93 129.65 172.37 130.52 C 172.81 131.39 173.87 131.74 174.75 131.30 Z M 175.72 130.81 L 176.56 130.32 C 177.41 129.83 177.70 128.75 177.21 127.90 C 176.72 127.06 175.63 126.77 174.79 127.26 L 173.94 127.75 C 173.09 128.24 172.80 129.32 173.29 130.17 C 173.79 131.02 174.87 131.30 175.72 130.81 Z M 176.61 130.30 L 177.44 129.78 C 178.27 129.27 178.52 128.17 178.00 127.34 C 177.49 126.51 176.39 126.25 175.56 126.77 L 174.74 127.28 C 173.90 127.80 173.65 128.90 174.17 129.73 C 174.69 130.56 175.78 130.81 176.61 130.30 Z M 177.45 129.78 L 178.30 129.24 C 179.13 128.71 179.38 127.61 178.85 126.78 C 178.32 125.95 177.22 125.71 176.39 126.23 L 175.54 126.78 C 174.71 127.30 174.47 128.40 175.00 129.23 C 175.52 130.06 176.62 130.31 177.45 129.78 Z M 178.30 129.25 L 179.17 128.70 C 180.01 128.18 180.26 127.08 179.74 126.24 C 179.22 125.41 178.12 125.15 177.28 125.68 L 176.40 126.22 C 175.57 126.75 175.31 127.85 175.84 128.68 C 176.36 129.52 177.46 129.77 178.30 129.25 Z M 179.14 128.73 L 180.03 128.21 C 180.88 127.70 181.16 126.60 180.66 125.75 C 180.15 124.90 179.05 124.61 178.20 125.12 L 177.31 125.65 C 176.46 126.15 176.18 127.25 176.68 128.10 C 177.19 128.96 178.29 129.24 179.14 128.73 Z M 179.97 128.25 L 180.87 127.77 C 181.75 127.29 182.08 126.20 181.60 125.32 C 181.12 124.44 180.03 124.11 179.15 124.59 L 178.25 125.07 C 177.37 125.55 177.05 126.65 177.52 127.52 C 178.00 128.40 179.09 128.73 179.97 128.25 Z M 180.79 127.83 L 181.69 127.40 C 182.61 126.97 183.00 125.88 182.57 124.97 C 182.14 124.06 181.05 123.67 180.14 124.10 L 179.23 124.53 C 178.32 124.96 177.93 126.05 178.36 126.96 C 178.79 127.87 179.88 128.26 180.79 127.83 Z M 181.58 127.47 L 182.49 127.12 C 183.44 126.76 183.92 125.69 183.55 124.74 C 183.18 123.79 182.12 123.31 181.17 123.68 L 180.25 124.03 C 179.30 124.39 178.83 125.46 179.19 126.41 C 179.56 127.36 180.63 127.84 181.58 127.47 Z M 182.32 127.20 L 183.33 126.92 C 184.32 126.65 184.91 125.63 184.64 124.64 C 184.37 123.64 183.35 123.06 182.36 123.33 L 181.34 123.60 C 180.35 123.87 179.76 124.89 180.03 125.89 C 180.30 126.88 181.32 127.47 182.32 127.20 Z M 183.07 126.99 L 184.11 126.86 C 185.14 126.74 185.87 125.80 185.74 124.77 C 185.62 123.74 184.68 123.01 183.65 123.13 L 182.61 123.26 C 181.58 123.39 180.85 124.32 180.98 125.35 C 181.10 126.38 182.04 127.12 183.07 126.99 Z M 183.73 126.89 L 184.69 126.96 C 185.73 127.04 186.64 126.26 186.72 125.22 C 186.80 124.17 186.02 123.26 184.98 123.18 L 184.03 123.11 C 182.98 123.03 182.07 123.81 181.99 124.85 C 181.91 125.89 182.69 126.81 183.73 126.89 Z M 184.16 126.86 L 184.98 127.17 C 185.97 127.54 187.07 127.05 187.44 126.06 C 187.82 125.07 187.32 123.97 186.33 123.60 L 185.51 123.28 C 184.52 122.91 183.42 123.41 183.05 124.40 C 182.67 125.38 183.17 126.48 184.16 126.86 Z M 184.43 126.86 L 185.11 127.42 C 185.93 128.10 187.13 127.99 187.81 127.17 C 188.49 126.36 188.38 125.15 187.56 124.47 L 186.88 123.91 C 186.07 123.23 184.86 123.34 184.18 124.16 C 183.51 124.97 183.62 126.18 184.43 126.86 Z M 184.79 127.08 L 185.37 127.88 C 186.00 128.74 187.20 128.92 188.05 128.30 C 188.91 127.68 189.10 126.48 188.47 125.62 L 187.89 124.82 C 187.26 123.96 186.06 123.77 185.21 124.40 C 184.35 125.02 184.16 126.22 184.79 127.08 Z M 185.23 127.65 L 185.77 128.67 C 186.27 129.60 187.43 129.96 188.37 129.46 C 189.30 128.96 189.66 127.80 189.16 126.86 L 188.61 125.85 C 188.12 124.91 186.95 124.56 186.02 125.06 C 185.08 125.56 184.73 126.72 185.23 127.65 Z M 185.72 128.57 L 186.11 129.42 C 186.55 130.38 187.69 130.81 188.65 130.36 C 189.62 129.92 190.04 128.78 189.60 127.82 L 189.21 126.96 C 188.77 126.00 187.63 125.58 186.66 126.02 C 185.70 126.46 185.28 127.60 185.72 128.57 Z M 186.08 129.36 L 186.47 130.28 C 186.88 131.26 188.00 131.72 188.98 131.31 C 189.96 130.90 190.42 129.78 190.01 128.80 L 189.63 127.88 C 189.22 126.90 188.09 126.44 187.11 126.85 C 186.13 127.26 185.67 128.38 186.08 129.36 Z M 186.45 130.23 L 186.82 131.19 C 187.20 132.18 188.31 132.67 189.30 132.29 C 190.29 131.91 190.78 130.80 190.40 129.81 L 190.03 128.85 C 189.65 127.86 188.54 127.37 187.55 127.75 C 186.56 128.13 186.07 129.24 186.45 130.23 Z M 186.80 131.14 L 187.14 132.11 C 187.50 133.11 188.59 133.63 189.59 133.28 C 190.59 132.93 191.12 131.83 190.76 130.83 L 190.42 129.86 C 190.07 128.86 188.97 128.34 187.97 128.69 C 186.97 129.04 186.45 130.14 186.80 131.14 Z M 187.13 132.06 L 187.44 133.03 C 187.76 134.04 188.84 134.59 189.85 134.27 C 190.86 133.94 191.42 132.86 191.09 131.85 L 190.78 130.88 C 190.46 129.87 189.37 129.32 188.37 129.64 C 187.36 129.97 186.80 131.05 187.13 132.06 Z M 187.42 132.97 L 187.70 133.94 C 187.99 134.96 189.06 135.55 190.07 135.25 C 191.09 134.96 191.68 133.90 191.39 132.88 L 191.11 131.91 C 190.82 130.89 189.75 130.30 188.73 130.60 C 187.72 130.89 187.13 131.95 187.42 132.97 Z M 187.68 133.88 L 187.93 134.84 C 188.19 135.86 189.23 136.48 190.26 136.22 C 191.29 135.96 191.91 134.92 191.65 133.89 L 191.40 132.93 C 191.14 131.91 190.10 131.29 189.07 131.55 C 188.04 131.81 187.42 132.86 187.68 133.88 Z M 187.92 134.79 L 188.13 135.75 C 188.37 136.78 189.39 137.43 190.43 137.20 C 191.46 136.96 192.11 135.93 191.88 134.90 L 191.66 133.94 C 191.42 132.91 190.40 132.26 189.36 132.49 C 188.33 132.73 187.68 133.75 187.92 134.79 Z M 188.13 135.71 L 188.33 136.70 C 188.54 137.73 189.55 138.40 190.59 138.19 C 191.63 137.98 192.30 136.97 192.08 135.93 L 191.88 134.94 C 191.67 133.90 190.66 133.23 189.62 133.45 C 188.58 133.66 187.91 134.67 188.13 135.71 Z M 188.32 136.67 L 188.49 137.57 C 188.69 138.61 189.69 139.29 190.73 139.10 C 191.77 138.90 192.45 137.90 192.26 136.86 L 192.09 135.96 C 191.89 134.92 190.89 134.23 189.85 134.43 C 188.81 134.62 188.13 135.63 188.32 136.67 Z M 188.49 137.55 L 188.65 138.49 C 188.84 139.53 189.83 140.22 190.87 140.04 C 191.91 139.85 192.61 138.86 192.43 137.82 L 192.26 136.88 C 192.08 135.84 191.08 135.14 190.04 135.33 C 189.00 135.51 188.31 136.51 188.49 137.55 Z M 188.65 138.47 L 188.82 139.45 C 188.99 140.49 189.98 141.20 191.02 141.02 C 192.06 140.85 192.77 139.86 192.59 138.82 L 192.43 137.84 C 192.25 136.79 191.27 136.09 190.22 136.27 C 189.18 136.44 188.48 137.43 188.65 138.47 Z M 188.82 139.44 L 188.98 140.46 C 189.15 141.51 190.13 142.22 191.17 142.05 C 192.22 141.88 192.93 140.90 192.76 139.86 L 192.59 138.83 C 192.42 137.79 191.44 137.08 190.40 137.25 C 189.36 137.41 188.65 138.39 188.82 139.44 Z M 188.98 140.46 L 189.15 141.53 C 189.31 142.57 190.29 143.29 191.33 143.12 C 192.38 142.96 193.09 141.98 192.93 140.94 L 192.76 139.86 C 192.59 138.82 191.62 138.11 190.57 138.27 C 189.53 138.44 188.82 139.41 188.98 140.46 Z M 189.15 141.53 L 189.31 142.55 C 189.47 143.59 190.44 144.30 191.48 144.14 C 192.53 143.98 193.24 143.01 193.08 141.97 L 192.93 140.95 C 192.77 139.90 191.79 139.19 190.75 139.35 C 189.71 139.51 188.99 140.48 189.15 141.53 Z M 189.31 142.54 L 189.46 143.57 C 189.62 144.62 190.59 145.33 191.63 145.18 C 192.68 145.02 193.40 144.05 193.24 143.00 L 193.08 141.97 C 192.93 140.93 191.95 140.21 190.91 140.37 C 189.87 140.52 189.15 141.50 189.31 142.54 Z M 189.46 143.57 L 189.61 144.59 C 189.76 145.64 190.74 146.36 191.78 146.21 C 192.82 146.05 193.54 145.08 193.39 144.04 L 193.24 143.01 C 193.09 141.97 192.12 141.25 191.07 141.40 C 190.03 141.55 189.31 142.52 189.46 143.57 Z M 189.61 144.58 L 189.75 145.58 C 189.90 146.63 190.87 147.35 191.91 147.21 C 192.96 147.06 193.68 146.09 193.53 145.05 L 193.39 144.05 C 193.24 143.00 192.28 142.28 191.23 142.42 C 190.19 142.57 189.46 143.54 189.61 144.58 Z M 189.75 145.57 L 189.88 146.52 C 190.02 147.56 190.98 148.30 192.03 148.15 C 193.07 148.01 193.81 147.05 193.66 146.00 L 193.54 145.06 C 193.39 144.01 192.43 143.28 191.39 143.42 C 190.34 143.56 189.61 144.53 189.75 145.57 Z M 189.88 146.50 L 190.00 147.49 C 190.13 148.54 191.09 149.28 192.13 149.15 C 193.18 149.02 193.92 148.06 193.79 147.02 L 193.67 146.02 C 193.54 144.98 192.58 144.23 191.53 144.37 C 190.49 144.50 189.74 145.45 189.88 146.50 Z M 190.00 147.47 L 190.12 148.56 C 190.24 149.61 191.18 150.36 192.23 150.25 C 193.28 150.13 194.03 149.18 193.92 148.13 L 193.80 147.04 C 193.68 145.99 192.73 145.24 191.68 145.36 C 190.64 145.47 189.88 146.42 190.00 147.47 Z M 190.12 148.54 L 190.21 149.51 C 190.32 150.56 191.25 151.32 192.30 151.22 C 193.35 151.11 194.12 150.18 194.02 149.13 L 193.92 148.16 C 193.82 147.11 192.88 146.34 191.83 146.44 C 190.78 146.55 190.01 147.49 190.12 148.54 Z M 190.21 149.49 L 190.30 150.40 C 190.39 151.45 191.33 152.22 192.38 152.13 C 193.43 152.03 194.20 151.10 194.10 150.04 L 194.02 149.14 C 193.92 148.09 192.99 147.32 191.94 147.41 C 190.89 147.51 190.11 148.44 190.21 149.49 Z M 190.30 150.40 L 190.38 151.33 C 190.49 152.38 191.42 153.15 192.47 153.05 C 193.52 152.95 194.29 152.01 194.19 150.96 L 194.10 150.04 C 194.00 148.99 193.07 148.22 192.02 148.32 C 190.96 148.42 190.19 149.35 190.30 150.40 Z M 190.39 151.34 L 190.49 152.32 C 190.59 153.37 191.53 154.13 192.58 154.03 C 193.64 153.92 194.40 152.98 194.29 151.93 L 194.19 150.95 C 194.08 149.90 193.14 149.14 192.09 149.24 C 191.04 149.35 190.28 150.29 190.39 151.34 Z M 190.49 152.33 L 190.59 153.33 C 190.71 154.38 191.65 155.14 192.70 155.02 C 193.75 154.91 194.51 153.97 194.40 152.92 L 194.29 151.92 C 194.18 150.87 193.24 150.11 192.19 150.22 C 191.14 150.33 190.37 151.28 190.49 152.33 Z M 190.59 153.33 L 190.70 154.35 C 190.82 155.40 191.76 156.16 192.81 156.04 C 193.86 155.93 194.62 154.99 194.51 153.94 L 194.40 152.92 C 194.28 151.87 193.34 151.11 192.29 151.22 C 191.24 151.33 190.48 152.28 190.59 153.33 Z M 190.70 154.34 L 190.81 155.32 C 190.92 156.37 191.86 157.13 192.91 157.02 C 193.96 156.91 194.72 155.97 194.61 154.91 L 194.51 153.94 C 194.40 152.89 193.45 152.13 192.40 152.24 C 191.35 152.35 190.59 153.29 190.70 154.34 Z M 190.81 155.32 L 190.91 156.30 C 191.02 157.35 191.96 158.11 193.01 158.00 C 194.06 157.89 194.83 156.95 194.72 155.90 L 194.61 154.92 C 194.50 153.87 193.56 153.10 192.51 153.21 C 191.46 153.32 190.70 154.26 190.81 155.32 Z M 190.91 156.30 L 191.01 157.30 C 191.12 158.35 192.06 159.12 193.11 159.01 C 194.16 158.90 194.93 157.96 194.82 156.91 L 194.72 155.91 C 194.61 154.85 193.67 154.09 192.62 154.20 C 191.57 154.31 190.80 155.25 190.91 156.30 Z M 191.01 157.30 L 191.11 158.32 C 191.22 159.37 192.16 160.13 193.21 160.03 C 194.26 159.92 195.03 158.98 194.92 157.93 L 194.82 156.91 C 194.71 155.86 193.77 155.09 192.72 155.20 C 191.67 155.31 190.91 156.24 191.01 157.30 Z M 191.11 158.31 L 191.21 159.28 C 191.31 160.34 192.25 161.10 193.30 161.00 C 194.35 160.90 195.12 159.96 195.02 158.91 L 194.92 157.94 C 194.82 156.88 193.88 156.12 192.83 156.22 C 191.78 156.32 191.01 157.26 191.11 158.31 Z M 191.21 159.28 L 191.30 160.26 C 191.40 161.32 192.34 162.09 193.39 161.99 C 194.44 161.89 195.21 160.95 195.11 159.90 L 195.02 158.91 C 194.92 157.86 193.98 157.09 192.93 157.19 C 191.88 157.29 191.11 158.22 191.21 159.28 Z M 191.30 160.25 L 191.39 161.26 C 191.49 162.31 192.42 163.09 193.47 162.99 C 194.52 162.90 195.30 161.97 195.21 160.91 L 195.12 159.91 C 195.02 158.86 194.09 158.08 193.04 158.18 C 191.98 158.27 191.21 159.20 191.30 160.25 Z M 191.39 161.24 L 191.47 162.26 C 191.56 163.32 192.49 164.10 193.54 164.01 C 194.60 163.93 195.38 163.00 195.29 161.94 L 195.21 160.93 C 195.12 159.87 194.19 159.09 193.14 159.18 C 192.09 159.26 191.30 160.19 191.39 161.24 Z M 191.47 162.25 L 191.54 163.22 C 191.62 164.27 192.54 165.06 193.60 164.98 C 194.66 164.90 195.45 163.98 195.37 162.93 L 195.29 161.96 C 195.21 160.90 194.29 160.11 193.24 160.19 C 192.18 160.27 191.39 161.19 191.47 162.25 Z M 191.54 163.20 L 191.61 164.18 C 191.69 165.24 192.60 166.03 193.66 165.96 C 194.71 165.89 195.51 164.97 195.44 163.91 L 195.37 162.94 C 195.29 161.88 194.38 161.08 193.32 161.16 C 192.27 161.23 191.47 162.15 191.54 163.20 Z M 191.61 164.18 L 191.68 165.17 C 191.75 166.23 192.66 167.03 193.72 166.96 C 194.78 166.89 195.58 165.97 195.50 164.92 L 195.44 163.92 C 195.37 162.86 194.45 162.06 193.40 162.13 C 192.34 162.20 191.54 163.12 191.61 164.18 Z M 191.68 165.17 L 191.75 166.20 C 191.82 167.26 192.73 168.05 193.79 167.98 C 194.85 167.91 195.65 167.00 195.57 165.94 L 195.51 164.92 C 195.43 163.86 194.52 163.06 193.46 163.13 C 192.40 163.20 191.61 164.12 191.68 165.17 Z M 191.75 166.20 L 191.82 167.23 C 191.89 168.29 192.81 169.08 193.87 169.01 C 194.92 168.93 195.72 168.02 195.65 166.96 L 195.58 165.93 C 195.50 164.88 194.58 164.08 193.53 164.15 C 192.47 164.23 191.67 165.15 191.75 166.20 Z M 191.82 167.23 L 191.89 168.24 C 191.97 169.30 192.89 170.09 193.94 170.02 C 195.00 169.94 195.80 169.02 195.72 167.96 L 195.65 166.95 C 195.57 165.90 194.65 165.10 193.59 165.18 C 192.54 165.26 191.74 166.18 191.82 167.23 Z M 191.89 168.24 L 191.96 169.26 C 192.04 170.31 192.96 171.11 194.02 171.03 C 195.08 170.95 195.87 170.03 195.79 168.98 L 195.72 167.96 C 195.64 166.90 194.72 166.11 193.67 166.19 C 192.61 166.26 191.81 167.18 191.89 168.24 Z M 191.96 169.25 L 192.03 170.26 C 192.11 171.31 193.03 172.11 194.08 172.04 C 195.14 171.96 195.94 171.04 195.87 169.99 L 195.80 168.98 C 195.72 167.92 194.80 167.12 193.74 167.20 C 192.69 167.27 191.89 168.19 191.96 169.25 Z M 192.03 170.25 L 192.10 171.23 C 192.17 172.28 193.08 173.09 194.14 173.02 C 195.20 172.95 196.00 172.03 195.93 170.97 L 195.87 170.00 C 195.80 168.94 194.88 168.13 193.82 168.20 C 192.77 168.27 191.96 169.19 192.03 170.25 Z M 192.09 171.21 L 192.15 172.24 C 192.21 173.30 193.12 174.11 194.18 174.05 C 195.24 173.99 196.05 173.08 195.99 172.02 L 195.93 170.99 C 195.87 169.93 194.96 169.12 193.90 169.18 C 192.84 169.24 192.03 170.15 192.09 171.21 Z M 192.15 172.22 L 192.20 173.25 C 192.25 174.31 193.15 175.13 194.21 175.08 C 195.27 175.03 196.09 174.13 196.04 173.07 L 195.99 172.04 C 195.94 170.98 195.04 170.16 193.98 170.21 C 192.92 170.26 192.10 171.16 192.15 172.22 Z M 192.20 173.24 L 192.24 174.22 C 192.28 175.28 193.18 176.11 194.24 176.07 C 195.30 176.03 196.13 175.13 196.08 174.07 L 196.04 173.08 C 196.00 172.02 195.11 171.19 194.04 171.24 C 192.98 171.28 192.16 172.17 192.20 173.24 Z M 192.24 174.21 L 192.27 175.17 C 192.31 176.24 193.20 177.07 194.26 177.03 C 195.33 176.99 196.16 176.10 196.12 175.04 L 196.08 174.08 C 196.05 173.02 195.15 172.18 194.09 172.22 C 193.03 172.26 192.20 173.15 192.24 174.21 Z M 192.27 175.17 L 192.31 176.16 C 192.34 177.22 193.23 178.06 194.29 178.02 C 195.36 177.98 196.19 177.09 196.15 176.03 L 196.12 175.04 C 196.08 173.98 195.19 173.15 194.13 173.18 C 193.07 173.22 192.24 174.11 192.27 175.17 Z M 192.31 176.16 L 192.34 177.18 C 192.38 178.25 193.27 179.08 194.33 179.04 C 195.39 179.01 196.22 178.11 196.19 177.05 L 196.15 176.03 C 196.12 174.97 195.23 174.14 194.16 174.17 C 193.10 174.21 192.27 175.10 192.31 176.16 Z M 192.34 177.19 L 192.38 178.19 C 192.41 179.25 193.30 180.08 194.37 180.04 C 195.43 180.00 196.26 179.11 196.22 178.05 L 196.19 177.05 C 196.15 175.99 195.26 175.16 194.20 175.19 C 193.13 175.23 192.30 176.12 192.34 177.19 Z M 192.38 178.19 L 192.41 179.16 C 192.45 180.22 193.34 181.05 194.40 181.01 C 195.47 180.98 196.30 180.08 196.26 179.02 L 196.22 178.05 C 196.18 176.99 195.29 176.16 194.23 176.19 C 193.17 176.23 192.34 177.13 192.38 178.19 Z M 192.41 179.16 L 192.44 180.10 C 192.48 181.16 193.38 181.99 194.44 181.95 C 195.50 181.91 196.33 181.02 196.29 179.95 L 196.26 179.02 C 196.22 177.96 195.32 177.13 194.26 177.17 C 193.20 177.21 192.37 178.10 192.41 179.16 Z M 192.44 180.09 L 192.48 181.03 C 192.51 182.09 193.41 182.92 194.47 182.88 C 195.53 182.85 196.36 181.95 196.32 180.89 L 196.29 179.96 C 196.25 178.89 195.36 178.06 194.30 178.10 C 193.24 178.14 192.41 179.03 192.44 180.09 Z M 192.48 181.02 L 192.51 182.01 C 192.54 183.07 193.42 183.91 194.49 183.88 C 195.55 183.85 196.38 182.96 196.35 181.90 L 196.33 180.90 C 196.29 179.84 195.41 179.01 194.35 179.04 C 193.28 179.07 192.45 179.95 192.48 181.02 Z M 192.51 181.99 L 192.53 183.10 C 192.55 184.16 193.43 185.01 194.49 184.98 C 195.55 184.96 196.40 184.08 196.38 183.02 L 196.35 181.91 C 196.33 180.85 195.45 180.01 194.39 180.03 C 193.33 180.05 192.48 180.93 192.51 181.99 Z M 192.53 183.08 L 192.54 184.02 C 192.55 185.08 193.42 185.93 194.49 185.92 C 195.55 185.91 196.40 185.04 196.39 183.97 L 196.38 183.04 C 196.36 181.98 195.49 181.12 194.43 181.14 C 193.37 181.15 192.52 182.02 192.53 183.08 Z M 192.54 184.01 L 192.55 184.98 C 192.55 186.04 193.42 186.90 194.48 186.90 C 195.54 186.89 196.40 186.03 196.39 184.96 L 196.39 183.99 C 196.38 182.92 195.51 182.07 194.45 182.07 C 193.39 182.08 192.54 182.94 192.54 184.01 Z M 192.55 184.97 L 192.55 185.99 C 192.54 187.05 193.40 187.91 194.46 187.92 C 195.52 187.92 196.38 187.06 196.39 186.00 L 196.39 184.98 C 196.39 183.92 195.53 183.05 194.47 183.05 C 193.41 183.05 192.55 183.91 192.55 184.97 Z M 192.55 185.98 L 192.54 187.02 C 192.53 188.08 193.38 188.94 194.44 188.95 C 195.50 188.96 196.37 188.11 196.38 187.05 L 196.39 186.01 C 196.39 184.95 195.54 184.08 194.48 184.08 C 193.42 184.07 192.56 184.92 192.55 185.98 Z M 192.54 187.00 L 192.52 188.04 C 192.50 189.10 193.35 189.97 194.41 189.99 C 195.47 190.01 196.34 189.16 196.36 188.10 L 196.37 187.07 C 196.39 186.01 195.55 185.14 194.49 185.12 C 193.43 185.10 192.56 185.94 192.54 187.00 Z M 192.53 188.02 L 192.50 189.10 C 192.47 190.16 193.30 191.04 194.36 191.07 C 195.41 191.10 196.29 190.27 196.32 189.21 L 196.35 188.12 C 196.38 187.07 195.55 186.19 194.49 186.16 C 193.44 186.13 192.56 186.96 192.53 188.02 Z M 192.50 189.07 L 192.46 190.15 C 192.41 191.20 193.22 192.09 194.27 192.14 C 195.33 192.18 196.22 191.37 196.27 190.32 L 196.31 189.24 C 196.36 188.19 195.55 187.30 194.49 187.25 C 193.44 187.20 192.55 188.02 192.50 189.07 Z M 192.47 190.09 L 192.39 191.11 C 192.32 192.15 193.10 193.06 194.15 193.14 C 195.20 193.21 196.11 192.43 196.18 191.38 L 196.26 190.37 C 196.33 189.32 195.54 188.41 194.50 188.34 C 193.45 188.26 192.54 189.05 192.47 190.09 Z M 192.41 191.03 L 192.30 191.97 C 192.18 193.01 192.93 193.95 193.97 194.07 C 195.01 194.18 195.94 193.44 196.06 192.40 L 196.17 191.46 C 196.28 190.42 195.54 189.48 194.50 189.36 C 193.46 189.25 192.52 189.99 192.41 191.03 Z M 192.32 191.87 L 192.17 192.74 C 192.00 193.76 192.69 194.74 193.72 194.91 C 194.74 195.09 195.71 194.40 195.89 193.37 L 196.04 192.50 C 196.21 191.48 195.52 190.50 194.50 190.33 C 193.47 190.15 192.50 190.84 192.32 191.87 Z M 192.22 192.57 L 191.95 193.59 C 191.69 194.59 192.28 195.62 193.29 195.88 C 194.29 196.14 195.31 195.55 195.57 194.55 L 195.84 193.53 C 196.11 192.53 195.51 191.51 194.51 191.24 C 193.51 190.98 192.49 191.57 192.22 192.57 Z M 192.04 193.38 L 191.67 194.29 C 191.29 195.24 191.76 196.32 192.71 196.70 C 193.66 197.09 194.74 196.62 195.12 195.67 L 195.49 194.76 C 195.87 193.81 195.41 192.72 194.45 192.34 C 193.50 191.96 192.42 192.42 192.04 193.38 Z M 191.79 194.08 L 191.32 194.93 C 190.82 195.82 191.14 196.94 192.03 197.43 C 192.92 197.93 194.04 197.61 194.54 196.72 L 195.01 195.88 C 195.51 194.99 195.19 193.87 194.30 193.37 C 193.41 192.87 192.29 193.19 191.79 194.08 Z M 191.44 194.76 L 190.87 195.56 C 190.28 196.38 190.47 197.52 191.29 198.11 C 192.11 198.70 193.25 198.51 193.84 197.69 L 194.41 196.89 C 195.00 196.07 194.81 194.93 193.99 194.34 C 193.17 193.75 192.03 193.94 191.44 194.76 Z M 190.99 195.43 L 190.33 196.18 C 189.67 196.93 189.74 198.07 190.49 198.73 C 191.25 199.40 192.39 199.32 193.05 198.57 L 193.71 197.82 C 194.38 197.07 194.30 195.93 193.55 195.26 C 192.80 194.60 191.66 194.67 190.99 195.43 Z M 190.49 196.04 L 189.73 196.73 C 189.00 197.39 188.95 198.53 189.61 199.26 C 190.28 200.00 191.42 200.05 192.15 199.39 L 192.90 198.70 C 193.64 198.04 193.69 196.90 193.02 196.17 C 192.36 195.43 191.22 195.38 190.49 196.04 Z M 189.93 196.59 L 189.11 197.15 C 188.30 197.71 188.09 198.82 188.65 199.63 C 189.20 200.44 190.31 200.65 191.12 200.09 L 191.95 199.52 C 192.76 198.97 192.97 197.86 192.41 197.05 C 191.85 196.24 190.75 196.03 189.93 196.59 Z M 189.38 197.02 L 188.48 197.44 C 187.59 197.84 187.21 198.89 187.61 199.77 C 188.02 200.66 189.07 201.04 189.95 200.64 L 190.85 200.22 C 191.73 199.82 192.12 198.77 191.72 197.89 C 191.31 197.00 190.26 196.62 189.38 197.02 Z M 188.77 197.36 L 187.81 197.62 C 186.88 197.86 186.33 198.81 186.58 199.74 C 186.83 200.66 187.78 201.21 188.70 200.97 L 189.66 200.71 C 190.59 200.47 191.14 199.52 190.89 198.59 C 190.64 197.67 189.69 197.12 188.77 197.36 Z M 188.05 197.60 L 187.06 197.72 C 186.12 197.84 185.46 198.69 185.57 199.62 C 185.69 200.56 186.54 201.22 187.47 201.11 L 188.46 200.99 C 189.40 200.87 190.06 200.02 189.95 199.08 C 189.83 198.15 188.98 197.48 188.05 197.60 Z M 187.23 197.74 L 186.22 197.76 C 185.30 197.78 184.56 198.55 184.58 199.47 C 184.60 200.40 185.37 201.13 186.30 201.11 L 187.30 201.09 C 188.23 201.07 188.96 200.30 188.94 199.38 C 188.92 198.45 188.15 197.72 187.23 197.74 Z M 186.34 197.78 L 185.40 197.73 C 184.49 197.68 183.71 198.39 183.66 199.30 C 183.61 200.22 184.32 201.00 185.23 201.05 L 186.17 201.09 C 187.09 201.14 187.87 200.44 187.92 199.52 C 187.96 198.61 187.26 197.83 186.34 197.78 Z M 185.52 197.75 L 184.57 197.63 C 183.66 197.52 182.83 198.16 182.72 199.06 C 182.61 199.97 183.25 200.80 184.16 200.91 L 185.11 201.03 C 186.02 201.14 186.84 200.50 186.96 199.59 C 187.07 198.69 186.43 197.86 185.52 197.75 Z M 184.69 197.66 L 183.70 197.45 C 182.81 197.27 181.94 197.84 181.76 198.73 C 181.57 199.62 182.15 200.49 183.04 200.68 L 184.03 200.88 C 184.92 201.07 185.79 200.49 185.97 199.60 C 186.16 198.71 185.58 197.84 184.69 197.66 Z M 183.83 197.49 L 182.79 197.19 C 181.92 196.94 181.01 197.44 180.76 198.31 C 180.51 199.18 181.01 200.09 181.88 200.34 L 182.91 200.64 C 183.78 200.89 184.69 200.39 184.95 199.52 C 185.20 198.65 184.70 197.74 183.83 197.49 Z M 182.89 197.22 L 182.02 196.91 C 181.17 196.61 180.23 197.05 179.93 197.90 C 179.62 198.75 180.06 199.69 180.91 199.99 L 181.78 200.30 C 182.63 200.61 183.57 200.17 183.88 199.32 C 184.18 198.47 183.74 197.53 182.89 197.22 Z M 182.08 196.94 L 181.18 196.57 C 180.34 196.23 179.39 196.63 179.05 197.47 C 178.71 198.31 179.11 199.26 179.95 199.60 L 180.85 199.97 C 181.69 200.31 182.64 199.91 182.98 199.07 C 183.32 198.23 182.92 197.28 182.08 196.94 Z M 181.22 196.59 L 180.29 196.18 C 179.47 195.81 178.50 196.19 178.14 197.02 C 177.77 197.85 178.15 198.81 178.98 199.18 L 179.90 199.58 C 180.73 199.95 181.70 199.57 182.06 198.74 C 182.43 197.92 182.05 196.95 181.22 196.59 Z M 180.32 196.19 L 179.38 195.76 C 178.56 195.38 177.58 195.74 177.20 196.56 C 176.83 197.38 177.19 198.35 178.01 198.73 L 178.95 199.16 C 179.77 199.54 180.74 199.18 181.12 198.36 C 181.50 197.54 181.14 196.57 180.32 196.19 Z M 179.39 195.76 L 178.46 195.32 C 177.64 194.94 176.67 195.29 176.28 196.11 C 175.90 196.93 176.25 197.90 177.07 198.29 L 177.99 198.72 C 178.81 199.11 179.79 198.76 180.17 197.94 C 180.56 197.12 180.21 196.15 179.39 195.76 Z"
      fill="black"
      fill-rule="nonzero" /><path d="M 156.39 155.48 L 157.11 156.11 C 157.88 156.79 159.05 156.71 159.72 155.94 C 160.40 155.17 160.32 154.00 159.55 153.33 L 158.83 152.70 C 158.06 152.02 156.89 152.10 156.21 152.87 C 155.54 153.64 155.62 154.81 156.39 155.48 Z M 157.10 156.11 L 157.83 156.75 C 158.60 157.43 159.77 157.36 160.45 156.59 C 161.13 155.82 161.05 154.65 160.28 153.98 L 159.55 153.33 C 158.79 152.66 157.62 152.73 156.94 153.50 C 156.26 154.26 156.34 155.43 157.10 156.11 Z M 157.83 156.75 L 158.57 157.41 C 159.33 158.09 160.51 158.03 161.19 157.26 C 161.87 156.50 161.80 155.33 161.04 154.65 L 160.29 153.98 C 159.53 153.30 158.36 153.37 157.68 154.13 C 157.00 154.89 157.06 156.07 157.83 156.75 Z M 158.56 157.40 L 159.33 158.10 C 160.09 158.79 161.26 158.73 161.94 157.97 C 162.63 157.22 162.58 156.04 161.82 155.36 L 161.05 154.66 C 160.29 153.97 159.12 154.03 158.43 154.78 C 157.75 155.54 157.80 156.71 158.56 157.40 Z M 159.32 158.09 L 160.02 158.74 C 160.77 159.43 161.94 159.39 162.64 158.64 C 163.33 157.89 163.29 156.71 162.54 156.02 L 161.83 155.37 C 161.08 154.67 159.91 154.72 159.21 155.47 C 158.52 156.22 158.57 157.39 159.32 158.09 Z M 160.02 158.73 L 160.69 159.36 C 161.44 160.05 162.61 160.01 163.30 159.26 C 164.00 158.51 163.95 157.34 163.21 156.65 L 162.54 156.02 C 161.79 155.33 160.62 155.37 159.92 156.12 C 159.23 156.87 159.27 158.04 160.02 158.73 Z M 160.70 159.36 L 161.41 160.01 C 162.17 160.70 163.33 160.64 164.02 159.89 C 164.71 159.14 164.65 157.97 163.90 157.28 L 163.19 156.64 C 162.44 155.95 161.27 156.01 160.58 156.76 C 159.90 157.51 159.95 158.68 160.70 159.36 Z M 161.44 160.03 L 162.20 160.70 C 162.97 161.37 164.13 161.29 164.80 160.53 C 165.47 159.76 165.39 158.60 164.63 157.93 L 163.87 157.26 C 163.11 156.59 161.94 156.67 161.27 157.43 C 160.60 158.20 160.68 159.36 161.44 160.03 Z M 162.24 160.73 L 163.06 161.41 C 163.84 162.06 165.00 161.95 165.65 161.17 C 166.30 160.39 166.19 159.23 165.41 158.58 L 164.59 157.90 C 163.81 157.25 162.65 157.36 162.00 158.14 C 161.35 158.92 161.46 160.08 162.24 160.73 Z M 163.11 161.44 L 163.99 162.12 C 164.79 162.75 165.94 162.60 166.56 161.80 C 167.18 161.00 167.04 159.85 166.24 159.23 L 165.36 158.55 C 164.56 157.93 163.41 158.07 162.79 158.87 C 162.17 159.67 162.31 160.82 163.11 161.44 Z M 164.04 162.15 L 164.79 162.70 C 165.60 163.29 166.74 163.11 167.34 162.30 C 167.93 161.48 167.75 160.34 166.94 159.75 L 166.19 159.20 C 165.37 158.61 164.23 158.79 163.64 159.60 C 163.04 160.42 163.22 161.56 164.04 162.15 Z M 164.83 162.71 L 165.62 163.26 C 166.44 163.83 167.57 163.63 168.14 162.81 C 168.72 161.98 168.51 160.85 167.69 160.28 L 166.90 159.73 C 166.07 159.16 164.94 159.36 164.37 160.19 C 163.80 161.01 164.00 162.14 164.83 162.71 Z M 165.65 163.27 L 166.48 163.82 C 167.31 164.37 168.43 164.15 168.98 163.32 C 169.53 162.49 169.31 161.37 168.48 160.82 L 167.65 160.27 C 166.82 159.72 165.70 159.94 165.15 160.77 C 164.60 161.60 164.82 162.72 165.65 163.27 Z M 166.51 163.83 L 167.37 164.38 C 168.20 164.91 169.31 164.67 169.84 163.83 C 170.38 163.00 170.13 161.89 169.30 161.36 L 168.45 160.81 C 167.61 160.28 166.50 160.52 165.97 161.35 C 165.43 162.19 165.68 163.30 166.51 163.83 Z M 167.39 164.38 L 168.27 164.93 C 169.11 165.44 170.20 165.19 170.72 164.35 C 171.24 163.51 170.99 162.42 170.15 161.90 L 169.27 161.35 C 168.44 160.83 167.34 161.09 166.82 161.93 C 166.30 162.76 166.56 163.86 167.39 164.38 Z M 168.29 164.93 L 169.18 165.46 C 170.02 165.97 171.11 165.70 171.62 164.86 C 172.12 164.03 171.85 162.94 171.02 162.43 L 170.13 161.89 C 169.29 161.39 168.20 161.66 167.69 162.49 C 167.19 163.33 167.46 164.42 168.29 164.93 Z M 169.20 165.47 L 170.10 165.99 C 170.94 166.49 172.02 166.21 172.51 165.37 C 173.01 164.53 172.73 163.45 171.89 162.96 L 170.99 162.43 C 170.16 161.94 169.08 162.22 168.58 163.05 C 168.09 163.89 168.37 164.97 169.20 165.47 Z M 170.12 165.99 L 171.00 166.50 C 171.83 166.98 172.90 166.69 173.38 165.86 C 173.87 165.02 173.58 163.95 172.75 163.47 L 171.87 162.96 C 171.04 162.48 169.97 162.77 169.48 163.60 C 169.00 164.44 169.29 165.51 170.12 165.99 Z M 171.02 166.49 L 171.89 166.98 C 172.72 167.46 173.78 167.17 174.25 166.33 C 174.72 165.50 174.43 164.45 173.60 163.97 L 172.73 163.48 C 171.89 163.00 170.84 163.30 170.37 164.13 C 169.89 164.96 170.18 166.02 171.02 166.49 Z M 171.91 166.98 L 172.78 167.47 C 173.61 167.93 174.65 167.63 175.12 166.81 C 175.58 165.98 175.28 164.94 174.46 164.47 L 173.58 163.98 C 172.76 163.52 171.71 163.81 171.25 164.64 C 170.79 165.47 171.08 166.51 171.91 166.98 Z M 172.80 167.46 L 173.67 167.94 C 174.49 168.39 175.53 168.10 175.98 167.27 C 176.43 166.45 176.14 165.42 175.32 164.97 L 174.44 164.48 C 173.62 164.03 172.59 164.33 172.13 165.15 C 171.68 165.97 171.98 167.00 172.80 167.46 Z M 173.68 167.93 L 174.56 168.41 C 175.37 168.85 176.40 168.55 176.84 167.74 C 177.29 166.92 176.99 165.90 176.18 165.46 L 175.30 164.98 C 174.49 164.53 173.46 164.83 173.02 165.64 C 172.57 166.46 172.87 167.48 173.68 167.93 Z M 174.57 168.39 L 175.44 168.87 C 176.25 169.31 177.26 169.01 177.70 168.20 C 178.14 167.40 177.85 166.38 177.04 165.94 L 176.16 165.47 C 175.36 165.03 174.34 165.33 173.90 166.13 C 173.46 166.94 173.76 167.95 174.57 168.39 Z M 175.45 168.86 L 176.33 169.33 C 177.13 169.77 178.13 169.47 178.57 168.67 C 179.00 167.87 178.70 166.87 177.90 166.43 L 177.03 165.96 C 176.23 165.52 175.22 165.82 174.79 166.62 C 174.36 167.42 174.65 168.42 175.45 168.86 Z M 176.33 169.32 L 176.59 169.46 C 177.38 169.89 178.38 169.60 178.81 168.80 C 179.24 168.00 178.94 167.01 178.15 166.58 L 177.90 166.44 C 177.10 166.01 176.10 166.30 175.67 167.10 C 175.24 167.90 175.54 168.89 176.33 169.32 Z"
      fill="black"
      fill-rule="nonzero" /></svg>