<svg xmlns="http://www.w3.org/2000/svg" width="300" height="300" viewBox="0 0 300 300">
<path d="M 146.22 106.33 L 147.06 105.87 C 147.87 105.42 148.16 104.40 147.71 103.59 C 147.26 102.78 146.24 102.49 145.43 102.94 L 144.59 103.41 C 143.78 103.86 143.49 104.88 143.94 105.69 C 144.39 106.49 145.41 106.78 146.22 106.33 Z M 147.01 105.90 L 147.88 105.45 C 148.70 105.03 149.03 104.02 148.61 103.19 C 148.18 102.37 147.17 102.04 146.35 102.46 L 145.48 102.91 C 144.65 103.33 144.33 104.34 144.75 105.17 C 145.17 106.00 146.18 106.32 147.01 105.90 Z M 147.78 105.51 L 148.71 105.10 C 149.57 104.74 149.96 103.75 149.59 102.89 C 149.22 102.04 148.23 101.64 147.38 102.01 L 146.45 102.41 C 145.59 102.78 145.20 103.77 145.57 104.63 C 145.93 105.48 146.92 105.87 147.78 105.51 Z M 148.58 105.16 L 149.55 104.84 C 150.43 104.54 150.91 103.59 150.62 102.71 C 150.32 101.82 149.37 101.34 148.49 101.63 L 147.52 101.96 C 146.63 102.25 146.15 103.20 146.44 104.09 C 146.74 104.97 147.69 105.45 148.58 105.16 Z M 149.42 104.88 L 150.35 104.64 C 151.26 104.42 151.81 103.51 151.59 102.60 C 151.37 101.70 150.45 101.14 149.55 101.37 L 148.61 101.60 C 147.71 101.82 147.15 102.73 147.38 103.64 C 147.60 104.55 148.51 105.10 149.42 104.88 Z M 150.27 104.66 L 151.26 104.47 C 152.17 104.30 152.77 103.41 152.59 102.50 C 152.42 101.58 151.53 100.98 150.62 101.16 L 149.63 101.35 C 148.72 101.52 148.12 102.41 148.29 103.32 C 148.47 104.24 149.35 104.84 150.27 104.66 Z M 151.20 104.48 L 152.21 104.32 C 153.14 104.18 153.76 103.31 153.62 102.39 C 153.47 101.47 152.61 100.84 151.69 100.99 L 150.67 101.15 C 149.75 101.29 149.12 102.16 149.27 103.08 C 149.42 104.00 150.28 104.63 151.20 104.48 Z M 152.18 104.33 L 153.20 104.19 C 154.13 104.06 154.77 103.20 154.64 102.28 C 154.51 101.36 153.66 100.71 152.74 100.84 L 151.72 100.98 C 150.79 101.11 150.15 101.97 150.28 102.89 C 150.41 103.81 151.26 104.46 152.18 104.33 Z M 153.19 104.19 L 154.20 104.05 C 155.12 103.93 155.77 103.08 155.65 102.16 C 155.53 101.24 154.68 100.59 153.75 100.71 L 152.75 100.84 C 151.82 100.96 151.17 101.81 151.30 102.73 C 151.42 103.66 152.27 104.31 153.19 104.19 Z M 154.18 104.06 L 155.18 103.93 C 156.10 103.81 156.76 102.97 156.64 102.05 C 156.53 101.12 155.68 100.47 154.76 100.58 L 153.76 100.71 C 152.84 100.82 152.18 101.67 152.30 102.59 C 152.42 103.52 153.26 104.17 154.18 104.06 Z M 155.16 103.93 L 156.15 103.82 C 157.07 103.71 157.74 102.87 157.63 101.95 C 157.52 101.02 156.68 100.36 155.76 100.47 L 154.77 100.58 C 153.85 100.69 153.18 101.52 153.29 102.45 C 153.40 103.38 154.24 104.04 155.16 103.93 Z M 156.13 103.82 L 157.12 103.72 C 158.04 103.62 158.72 102.79 158.62 101.86 C 158.52 100.94 157.69 100.26 156.77 100.36 L 155.78 100.46 C 154.85 100.56 154.18 101.39 154.27 102.32 C 154.37 103.24 155.20 103.92 156.13 103.82 Z M 157.09 103.72 L 158.08 103.63 C 159.01 103.55 159.70 102.73 159.61 101.80 C 159.53 100.87 158.71 100.18 157.78 100.27 L 156.79 100.36 C 155.86 100.44 155.18 101.26 155.26 102.19 C 155.35 103.12 156.17 103.80 157.09 103.72 Z M 158.06 103.63 L 159.05 103.56 C 159.98 103.49 160.68 102.68 160.61 101.75 C 160.54 100.82 159.73 100.12 158.80 100.19 L 157.81 100.27 C 156.88 100.34 156.18 101.15 156.25 102.08 C 156.32 103.01 157.13 103.70 158.06 103.63 Z M 159.03 103.56 L 160.03 103.50 C 160.96 103.44 161.67 102.64 161.61 101.71 C 161.55 100.78 160.75 100.07 159.82 100.13 L 158.82 100.19 C 157.89 100.25 157.19 101.05 157.24 101.98 C 157.30 102.91 158.10 103.62 159.03 103.56 Z M 160.01 103.50 L 161.01 103.45 C 161.94 103.40 162.66 102.61 162.62 101.68 C 162.57 100.75 161.78 100.03 160.85 100.08 L 159.85 100.13 C 158.92 100.17 158.20 100.96 158.24 101.89 C 158.29 102.82 159.08 103.54 160.01 103.50 Z M 160.99 103.45 L 161.99 103.41 C 162.92 103.38 163.65 102.60 163.62 101.67 C 163.59 100.74 162.81 100.01 161.88 100.04 L 160.87 100.08 C 159.94 100.11 159.21 100.89 159.25 101.82 C 159.28 102.75 160.06 103.48 160.99 103.45 Z M 161.97 103.41 L 163.00 103.39 C 163.93 103.37 164.67 102.60 164.65 101.67 C 164.63 100.74 163.85 100.00 162.92 100.02 L 161.90 100.04 C 160.97 100.06 160.23 100.83 160.25 101.77 C 160.27 102.70 161.04 103.44 161.97 103.41 Z M 162.98 103.39 L 163.99 103.38 C 164.92 103.37 165.67 102.60 165.66 101.67 C 165.65 100.74 164.88 99.99 163.95 100.01 L 162.94 100.02 C 162.01 100.03 161.26 100.79 161.27 101.73 C 161.28 102.66 162.05 103.40 162.98 103.39 Z M 163.98 103.38 L 164.98 103.38 C 165.91 103.37 166.66 102.61 166.65 101.68 C 166.65 100.75 165.89 100.00 164.96 100.00 L 163.96 100.01 C 163.03 100.01 162.28 100.77 162.29 101.70 C 162.29 102.63 163.05 103.38 163.98 103.38 Z M 164.97 103.38 L 165.94 103.37 C 166.87 103.37 167.63 102.62 167.63 101.69 C 167.63 100.75 166.87 100.00 165.94 100.00 L 164.97 100.00 C 164.03 100.00 163.28 100.76 163.28 101.69 C 163.28 102.62 164.04 103.38 164.97 103.38 Z M 165.93 103.37 L 166.96 103.38 C 167.89 103.38 168.65 102.63 168.65 101.70 C 168.65 100.76 167.90 100.01 166.97 100.00 L 165.95 100.00 C 165.01 100.00 164.26 100.75 164.25 101.68 C 164.25 102.61 165.00 103.37 165.93 103.37 Z M 166.90 103.38 L 167.91 103.41 C 168.84 103.44 169.62 102.72 169.66 101.78 C 169.69 100.85 168.96 100.07 168.03 100.04 L 167.02 100.00 C 166.09 99.97 165.31 100.70 165.27 101.63 C 165.24 102.56 165.97 103.35 166.90 103.38 Z M 167.79 103.40 L 168.76 103.51 C 169.69 103.61 170.53 102.94 170.63 102.01 C 170.73 101.09 170.06 100.25 169.13 100.15 L 168.15 100.05 C 167.23 99.95 166.39 100.61 166.29 101.54 C 166.19 102.47 166.86 103.30 167.79 103.40 Z M 168.57 103.48 L 169.52 103.70 C 170.43 103.91 171.33 103.34 171.54 102.43 C 171.75 101.52 171.18 100.61 170.28 100.40 L 169.33 100.18 C 168.42 99.98 167.51 100.54 167.30 101.45 C 167.09 102.36 167.66 103.27 168.57 103.48 Z M 169.28 103.62 L 170.19 103.99 C 171.06 104.33 172.04 103.90 172.39 103.03 C 172.73 102.17 172.31 101.18 171.44 100.84 L 170.52 100.48 C 169.65 100.13 168.67 100.56 168.32 101.43 C 167.98 102.30 168.41 103.28 169.28 103.62 Z M 169.96 103.87 L 170.82 104.38 C 171.63 104.85 172.66 104.58 173.14 103.78 C 173.61 102.97 173.34 101.94 172.54 101.46 L 171.67 100.96 C 170.87 100.48 169.83 100.75 169.36 101.56 C 168.88 102.36 169.15 103.40 169.96 103.87 Z M 170.60 104.23 L 171.38 104.86 C 172.10 105.46 173.16 105.36 173.76 104.63 C 174.35 103.91 174.25 102.85 173.53 102.25 L 172.75 101.62 C 172.03 101.02 170.97 101.12 170.37 101.85 C 169.78 102.57 169.88 103.63 170.60 104.23 Z M 171.17 104.66 L 171.83 105.42 C 172.44 106.13 173.50 106.21 174.21 105.60 C 174.92 104.99 175.00 103.92 174.39 103.21 L 173.73 102.45 C 173.12 101.75 172.05 101.67 171.35 102.28 C 170.64 102.89 170.56 103.96 171.17 104.66 Z M 171.65 105.18 L 172.14 106.00 C 172.61 106.80 173.65 107.06 174.45 106.59 C 175.26 106.11 175.52 105.07 175.05 104.27 L 174.56 103.45 C 174.08 102.65 173.05 102.38 172.24 102.86 C 171.44 103.34 171.17 104.38 171.65 105.18 Z M 172.02 105.76 L 172.38 106.66 C 172.73 107.53 173.72 107.95 174.58 107.60 C 175.45 107.25 175.87 106.27 175.52 105.40 L 175.16 104.50 C 174.81 103.63 173.83 103.21 172.96 103.56 C 172.09 103.91 171.67 104.90 172.02 105.76 Z M 172.32 106.47 L 172.58 107.44 C 172.82 108.34 173.74 108.88 174.65 108.64 C 175.55 108.40 176.09 107.48 175.85 106.57 L 175.59 105.60 C 175.35 104.70 174.42 104.16 173.52 104.40 C 172.62 104.64 172.08 105.56 172.32 106.47 Z M 172.54 107.29 L 172.72 108.33 C 172.87 109.25 173.74 109.87 174.67 109.72 C 175.59 109.56 176.21 108.69 176.05 107.77 L 175.88 106.73 C 175.73 105.81 174.85 105.18 173.93 105.34 C 173.01 105.49 172.39 106.36 172.54 107.29 Z M 172.70 108.22 L 172.80 109.16 C 172.89 110.09 173.72 110.76 174.65 110.67 C 175.58 110.58 176.26 109.75 176.16 108.82 L 176.07 107.88 C 175.97 106.95 175.15 106.27 174.22 106.36 C 173.29 106.46 172.61 107.29 172.70 108.22 Z M 172.79 109.06 L 172.83 110.01 C 172.87 110.95 173.66 111.67 174.59 111.63 C 175.53 111.59 176.25 110.80 176.21 109.87 L 176.17 108.92 C 176.13 107.98 175.34 107.26 174.41 107.30 C 173.48 107.34 172.75 108.13 172.79 109.06 Z M 172.83 109.91 L 172.81 110.90 C 172.79 111.83 173.53 112.60 174.47 112.62 C 175.40 112.64 176.17 111.90 176.19 110.96 L 176.21 109.97 C 176.23 109.04 175.49 108.27 174.55 108.25 C 173.62 108.23 172.85 108.97 172.83 109.91 Z M 172.82 110.79 L 172.73 111.82 C 172.65 112.74 173.34 113.56 174.27 113.64 C 175.20 113.72 176.02 113.03 176.10 112.10 L 176.18 111.08 C 176.26 110.15 175.58 109.33 174.65 109.25 C 173.72 109.17 172.90 109.86 172.82 110.79 Z M 172.74 111.70 L 172.58 112.77 C 172.43 113.69 173.07 114.55 173.99 114.70 C 174.91 114.84 175.77 114.21 175.92 113.29 L 176.08 112.22 C 176.23 111.30 175.59 110.43 174.67 110.29 C 173.75 110.15 172.89 110.78 172.74 111.70 Z M 172.60 112.66 L 172.39 113.60 C 172.19 114.51 172.76 115.41 173.67 115.61 C 174.58 115.81 175.48 115.24 175.69 114.33 L 175.89 113.39 C 176.10 112.48 175.52 111.58 174.61 111.38 C 173.70 111.18 172.80 111.75 172.60 112.66 Z M 172.42 113.52 L 172.16 114.46 C 171.91 115.36 172.43 116.28 173.33 116.53 C 174.23 116.78 175.15 116.25 175.40 115.36 L 175.66 114.41 C 175.91 113.52 175.38 112.59 174.49 112.34 C 173.59 112.10 172.66 112.62 172.42 113.52 Z M 172.18 114.39 L 171.87 115.34 C 171.58 116.23 172.07 117.17 172.95 117.46 C 173.83 117.75 174.78 117.26 175.07 116.38 L 175.38 115.43 C 175.66 114.54 175.18 113.60 174.30 113.31 C 173.41 113.02 172.47 113.51 172.18 114.39 Z M 171.90 115.28 L 171.54 116.24 C 171.22 117.11 171.67 118.07 172.54 118.39 C 173.41 118.71 174.37 118.26 174.69 117.40 L 175.04 116.44 C 175.36 115.57 174.92 114.61 174.05 114.29 C 173.18 113.97 172.22 114.41 171.90 115.28 Z M 171.57 116.19 L 171.18 117.13 C 170.83 117.99 171.24 118.97 172.10 119.31 C 172.95 119.66 173.93 119.25 174.28 118.40 L 174.67 117.45 C 175.01 116.59 174.60 115.62 173.75 115.27 C 172.89 114.92 171.92 115.33 171.57 116.19 Z M 171.21 117.09 L 170.79 118.02 C 170.41 118.87 170.79 119.85 171.63 120.23 C 172.47 120.60 173.46 120.22 173.84 119.38 L 174.25 118.45 C 174.63 117.60 174.25 116.62 173.41 116.24 C 172.57 115.87 171.58 116.25 171.21 117.09 Z M 170.82 117.98 L 170.34 118.96 C 169.94 119.79 170.29 120.78 171.11 121.18 C 171.94 121.58 172.93 121.23 173.33 120.41 L 173.81 119.43 C 174.21 118.60 173.86 117.61 173.04 117.21 C 172.21 116.81 171.22 117.15 170.82 117.98 Z M 170.37 118.92 L 169.88 119.86 C 169.46 120.67 169.77 121.67 170.58 122.09 C 171.39 122.51 172.39 122.20 172.81 121.39 L 173.30 120.45 C 173.72 119.64 173.41 118.64 172.60 118.22 C 171.79 117.80 170.80 118.11 170.37 118.92 Z M 169.91 119.82 L 169.41 120.72 C 168.97 121.51 169.25 122.51 170.04 122.95 C 170.84 123.39 171.84 123.11 172.28 122.32 L 172.78 121.43 C 173.22 120.64 172.94 119.64 172.15 119.19 C 171.36 118.75 170.36 119.03 169.91 119.82 Z M 169.45 120.68 L 168.95 121.52 C 168.48 122.29 168.74 123.29 169.51 123.75 C 170.28 124.22 171.28 123.96 171.75 123.19 L 172.25 122.36 C 172.71 121.58 172.46 120.58 171.68 120.12 C 170.91 119.66 169.91 119.91 169.45 120.68 Z M 168.98 121.48 L 168.49 122.25 C 168.01 123.00 168.23 124.00 168.98 124.49 C 169.74 124.97 170.74 124.75 171.22 123.99 L 171.71 123.23 C 172.19 122.47 171.97 121.47 171.22 120.99 C 170.47 120.51 169.46 120.73 168.98 121.48 Z M 168.53 122.20 L 167.94 123.05 C 167.44 123.78 167.62 124.79 168.35 125.29 C 169.08 125.80 170.08 125.62 170.59 124.89 L 171.18 124.04 C 171.69 123.31 171.51 122.30 170.77 121.80 C 170.04 121.29 169.04 121.47 168.53 122.20 Z M 168.00 122.99 L 167.35 123.83 C 166.81 124.53 166.94 125.54 167.64 126.08 C 168.34 126.62 169.34 126.49 169.88 125.79 L 170.53 124.95 C 171.07 124.25 170.94 123.25 170.24 122.71 C 169.54 122.17 168.54 122.30 168.00 122.99 Z M 167.42 123.77 L 166.79 124.49 C 166.21 125.15 166.28 126.16 166.95 126.73 C 167.61 127.31 168.61 127.24 169.18 126.58 L 169.81 125.85 C 170.39 125.19 170.32 124.19 169.66 123.61 C 169.00 123.04 167.99 123.11 167.42 123.77 Z M 166.85 124.44 L 166.23 125.09 C 165.62 125.71 165.64 126.71 166.26 127.32 C 166.89 127.92 167.89 127.90 168.49 127.28 L 169.12 126.63 C 169.72 126.01 169.71 125.01 169.08 124.40 C 168.46 123.80 167.46 123.81 166.85 124.44 Z M 166.28 125.04 L 165.59 125.70 C 164.96 126.29 164.93 127.28 165.52 127.91 C 166.11 128.55 167.11 128.58 167.74 127.98 L 168.43 127.32 C 169.06 126.73 169.10 125.74 168.50 125.11 C 167.91 124.48 166.92 124.45 166.28 125.04 Z M 165.67 125.63 L 164.91 126.26 C 164.24 126.80 164.15 127.79 164.70 128.46 C 165.24 129.13 166.23 129.22 166.90 128.67 L 167.66 128.05 C 168.32 127.50 168.42 126.51 167.87 125.85 C 167.32 125.18 166.33 125.08 165.67 125.63 Z M 165.03 126.17 L 164.19 126.73 C 163.48 127.22 163.29 128.19 163.77 128.90 C 164.26 129.62 165.23 129.81 165.94 129.32 L 166.78 128.76 C 167.49 128.27 167.68 127.30 167.20 126.59 C 166.71 125.87 165.74 125.69 165.03 126.17 Z M 164.34 126.65 L 163.46 127.11 C 162.69 127.52 162.40 128.46 162.80 129.22 C 163.21 129.99 164.15 130.28 164.91 129.88 L 165.80 129.41 C 166.56 129.01 166.85 128.06 166.45 127.30 C 166.05 126.54 165.10 126.25 164.34 126.65 Z M 163.59 127.05 L 162.70 127.42 C 161.90 127.76 161.52 128.67 161.85 129.47 C 162.18 130.26 163.10 130.64 163.89 130.31 L 164.78 129.94 C 165.58 129.61 165.96 128.69 165.63 127.90 C 165.29 127.10 164.38 126.72 163.59 127.05 Z M 162.78 127.39 L 161.83 127.72 C 161.02 128.01 160.59 128.90 160.87 129.71 C 161.16 130.53 162.05 130.96 162.86 130.67 L 163.81 130.34 C 164.62 130.05 165.05 129.16 164.77 128.35 C 164.48 127.54 163.59 127.11 162.78 127.39 Z M 161.88 127.71 L 160.89 128.02 C 160.07 128.28 159.61 129.15 159.87 129.97 C 160.13 130.80 161.00 131.25 161.83 131.00 L 162.81 130.69 C 163.63 130.43 164.09 129.55 163.83 128.73 C 163.58 127.91 162.70 127.45 161.88 127.71 Z M 160.91 128.01 L 160.34 128.18 C 159.51 128.43 159.05 129.30 159.30 130.13 C 159.54 130.95 160.42 131.42 161.24 131.17 L 161.81 131.00 C 162.64 130.75 163.10 129.88 162.85 129.06 C 162.61 128.23 161.73 127.76 160.91 128.01 Z"
      fill="black"
      fill-rule="nonzero" /><path d="M 156.33 109.35 L 156.46 110.30 C 156.59 111.23 157.45 111.87 158.37 111.74 C 159.30 111.61 159.94 110.76 159.81 109.83 L 159.68 108.88 C 159.55 107.96 158.69 107.31 157.77 107.44 C 156.85 107.57 156.20 108.43 156.33 109.35 Z M 156.46 110.23 L 156.55 111.20 C 156.64 112.12 157.46 112.80 158.39 112.72 C 159.32 112.63 160.00 111.81 159.91 110.88 L 159.82 109.91 C 159.73 108.98 158.91 108.30 157.98 108.39 C 157.05 108.48 156.37 109.30 156.46 110.23 Z M 156.55 111.05 L 156.56 112.06 C 156.56 112.99 157.32 113.74 158.25 113.73 C 159.18 113.72 159.93 112.96 159.92 112.03 L 159.91 111.02 C 159.90 110.09 159.15 109.35 158.22 109.36 C 157.29 109.36 156.54 110.12 156.55 111.05 Z M 156.57 111.87 L 156.46 112.90 C 156.36 113.82 157.03 114.64 157.95 114.74 C 158.87 114.84 159.70 114.17 159.80 113.25 L 159.91 112.23 C 160.00 111.30 159.34 110.48 158.42 110.38 C 157.50 110.28 156.67 110.95 156.57 111.87 Z M 156.50 112.72 L 156.30 113.66 C 156.10 114.56 156.68 115.45 157.58 115.64 C 158.48 115.84 159.37 115.26 159.56 114.36 L 159.76 113.42 C 159.95 112.52 159.38 111.64 158.48 111.44 C 157.58 111.25 156.69 111.82 156.50 112.72 Z M 156.33 113.56 L 156.06 114.52 C 155.81 115.41 156.32 116.32 157.20 116.57 C 158.08 116.82 159.00 116.31 159.25 115.43 L 159.52 114.46 C 159.77 113.58 159.26 112.67 158.38 112.42 C 157.50 112.17 156.58 112.68 156.33 113.56 Z M 156.09 114.47 L 155.77 115.44 C 155.49 116.31 155.96 117.24 156.83 117.52 C 157.69 117.80 158.62 117.33 158.90 116.46 L 159.22 115.49 C 159.50 114.62 159.03 113.69 158.16 113.41 C 157.30 113.13 156.37 113.60 156.09 114.47 Z M 155.79 115.42 L 155.45 116.39 C 155.16 117.25 155.62 118.18 156.48 118.47 C 157.33 118.76 158.26 118.31 158.56 117.45 L 158.89 116.48 C 159.18 115.63 158.72 114.69 157.87 114.40 C 157.01 114.11 156.08 114.57 155.79 115.42 Z M 155.46 116.40 L 155.15 117.35 C 154.86 118.20 155.32 119.12 156.17 119.41 C 157.02 119.69 157.95 119.23 158.23 118.38 L 158.55 117.44 C 158.83 116.59 158.38 115.66 157.52 115.38 C 156.67 115.09 155.75 115.55 155.46 116.40 Z M 155.15 117.37 L 154.85 118.29 C 154.58 119.14 155.04 120.05 155.89 120.33 C 156.74 120.60 157.65 120.13 157.92 119.29 L 158.22 118.36 C 158.50 117.51 158.03 116.60 157.19 116.33 C 156.34 116.06 155.43 116.52 155.15 117.37 Z M 154.87 118.31 L 154.57 119.24 C 154.30 120.08 154.77 120.98 155.61 121.25 C 156.45 121.51 157.35 121.05 157.62 120.20 L 157.91 119.27 C 158.18 118.43 157.71 117.53 156.87 117.27 C 156.03 117.00 155.13 117.47 154.87 118.31 Z M 154.58 119.24 L 154.28 120.20 C 154.02 121.04 154.48 121.93 155.31 122.19 C 156.15 122.46 157.04 121.99 157.30 121.16 L 157.60 120.20 C 157.87 119.37 157.41 118.48 156.57 118.21 C 155.74 117.95 154.85 118.41 154.58 119.24 Z M 154.30 120.20 L 153.98 121.20 C 153.71 122.02 154.17 122.91 154.99 123.17 C 155.82 123.44 156.70 122.98 156.96 122.16 L 157.28 121.16 C 157.55 120.34 157.10 119.45 156.27 119.19 C 155.44 118.92 154.56 119.38 154.30 120.20 Z M 153.99 121.19 L 153.67 122.15 C 153.40 122.97 153.85 123.85 154.67 124.12 C 155.49 124.39 156.37 123.94 156.64 123.12 L 156.96 122.17 C 157.22 121.35 156.78 120.46 155.96 120.19 C 155.14 119.92 154.25 120.37 153.99 121.19 Z M 153.68 122.14 L 153.35 123.12 C 153.07 123.93 153.52 124.82 154.33 125.09 C 155.15 125.37 156.04 124.93 156.31 124.11 L 156.64 123.13 C 156.91 122.31 156.47 121.42 155.65 121.15 C 154.83 120.88 153.95 121.32 153.68 122.14 Z M 153.35 123.11 L 153.02 124.08 C 152.74 124.90 153.18 125.79 153.99 126.06 C 154.81 126.34 155.70 125.91 155.98 125.09 L 156.31 124.11 C 156.59 123.30 156.15 122.41 155.33 122.13 C 154.52 121.85 153.63 122.29 153.35 123.11 Z M 153.02 124.08 L 152.70 125.02 C 152.41 125.83 152.85 126.72 153.66 127.00 C 154.48 127.29 155.37 126.85 155.65 126.04 L 155.97 125.10 C 156.26 124.28 155.82 123.39 155.01 123.11 C 154.19 122.83 153.30 123.26 153.02 124.08 Z M 152.70 125.01 L 152.39 125.91 C 152.10 126.72 152.53 127.61 153.34 127.90 C 154.15 128.18 155.05 127.75 155.33 126.94 L 155.64 126.05 C 155.93 125.23 155.50 124.34 154.69 124.06 C 153.88 123.77 152.98 124.20 152.70 125.01 Z M 152.39 125.89 L 152.01 126.96 C 151.72 127.77 152.14 128.66 152.95 128.96 C 153.76 129.25 154.65 128.83 154.94 128.02 L 155.33 126.95 C 155.62 126.14 155.20 125.25 154.39 124.95 C 153.58 124.66 152.68 125.08 152.39 125.89 Z M 152.02 126.94 L 151.66 127.88 C 151.35 128.69 151.76 129.59 152.57 129.89 C 153.37 130.20 154.27 129.79 154.58 128.98 L 154.94 128.04 C 155.24 127.23 154.83 126.33 154.03 126.03 C 153.22 125.72 152.32 126.13 152.02 126.94 Z M 151.67 127.84 L 151.32 128.71 C 151.00 129.50 151.38 130.41 152.18 130.74 C 152.98 131.06 153.89 130.68 154.21 129.88 L 154.56 129.02 C 154.89 128.22 154.51 127.31 153.71 126.99 C 152.91 126.66 152.00 127.05 151.67 127.84 Z M 151.34 128.66 L 150.97 129.49 C 150.62 130.28 150.97 131.20 151.76 131.55 C 152.55 131.90 153.47 131.55 153.82 130.76 L 154.19 129.93 C 154.55 129.14 154.19 128.22 153.40 127.87 C 152.62 127.52 151.69 127.87 151.34 128.66 Z M 151.00 129.43 L 150.57 130.29 C 150.19 131.06 150.50 132.00 151.27 132.38 C 152.04 132.77 152.98 132.45 153.36 131.68 L 153.79 130.82 C 154.18 130.05 153.87 129.11 153.09 128.73 C 152.32 128.34 151.39 128.66 151.00 129.43 Z M 150.61 130.21 L 150.12 131.07 C 149.70 131.82 149.96 132.77 150.71 133.20 C 151.46 133.63 152.41 133.36 152.84 132.62 L 153.32 131.76 C 153.75 131.01 153.49 130.06 152.74 129.63 C 151.99 129.20 151.04 129.46 150.61 130.21 Z M 150.17 130.99 L 149.60 131.86 C 149.13 132.58 149.33 133.55 150.05 134.02 C 150.78 134.49 151.74 134.29 152.21 133.57 L 152.79 132.70 C 153.26 131.98 153.06 131.01 152.33 130.54 C 151.61 130.06 150.65 130.27 150.17 130.99 Z M 149.65 131.78 L 148.92 132.76 C 148.41 133.45 148.55 134.44 149.25 134.95 C 149.94 135.47 150.93 135.32 151.44 134.63 L 152.17 133.65 C 152.69 132.95 152.54 131.97 151.84 131.45 C 151.15 130.94 150.16 131.08 149.65 131.78 Z M 148.90 132.75 L 148.22 133.68 C 147.70 134.39 147.85 135.38 148.56 135.90 C 149.27 136.42 150.26 136.27 150.78 135.56 L 151.46 134.63 C 151.98 133.93 151.83 132.93 151.12 132.41 C 150.42 131.89 149.42 132.04 148.90 132.75 Z M 148.06 133.89 L 147.71 134.58 C 147.30 135.38 147.61 136.35 148.41 136.75 C 149.20 137.16 150.17 136.85 150.58 136.05 L 150.93 135.36 C 151.34 134.57 151.03 133.60 150.23 133.19 C 149.44 132.78 148.47 133.10 148.06 133.89 Z M 147.76 136.18 L 147.95 136.49 C 148.43 137.25 149.43 137.48 150.19 137.01 C 150.96 136.54 151.19 135.53 150.72 134.77 L 150.52 134.46 C 150.05 133.70 149.05 133.46 148.28 133.94 C 147.52 134.41 147.29 135.41 147.76 136.18 Z M 149.46 137.25 L 150.18 137.20 C 151.08 137.13 151.75 136.34 151.68 135.44 C 151.61 134.55 150.82 133.87 149.93 133.95 L 149.21 134.00 C 148.31 134.07 147.64 134.86 147.71 135.76 C 147.78 136.65 148.56 137.32 149.46 137.25 Z M 150.54 137.13 L 151.71 136.76 C 152.56 136.49 153.04 135.57 152.77 134.71 C 152.50 133.85 151.58 133.38 150.72 133.65 L 149.56 134.02 C 148.70 134.29 148.23 135.20 148.50 136.06 C 148.77 136.92 149.69 137.40 150.54 137.13 Z M 151.83 136.71 L 153.08 136.20 C 153.91 135.86 154.31 134.91 153.96 134.07 C 153.62 133.24 152.67 132.84 151.83 133.19 L 150.59 133.70 C 149.76 134.04 149.36 134.99 149.71 135.83 C 150.05 136.66 151.00 137.06 151.83 136.71 Z M 153.13 136.18 L 153.96 135.80 C 154.78 135.42 155.15 134.46 154.77 133.64 C 154.40 132.82 153.43 132.46 152.62 132.83 L 151.78 133.21 C 150.96 133.58 150.60 134.55 150.97 135.37 C 151.35 136.19 152.31 136.55 153.13 136.18 Z M 153.99 135.78 L 154.88 135.36 C 155.69 134.97 156.03 134.00 155.64 133.19 C 155.26 132.38 154.29 132.04 153.48 132.42 L 152.59 132.84 C 151.78 133.23 151.43 134.20 151.82 135.01 C 152.21 135.82 153.18 136.17 153.99 135.78 Z M 154.89 135.35 L 155.81 134.90 C 156.62 134.50 156.95 133.53 156.55 132.72 C 156.16 131.92 155.18 131.59 154.38 131.98 L 153.46 132.43 C 152.65 132.83 152.32 133.80 152.72 134.61 C 153.11 135.41 154.09 135.75 154.89 135.35 Z M 155.82 134.89 L 156.76 134.42 C 157.56 134.02 157.88 133.05 157.48 132.25 C 157.08 131.45 156.11 131.12 155.31 131.52 L 154.37 131.99 C 153.57 132.39 153.24 133.36 153.64 134.17 C 154.04 134.97 155.02 135.29 155.82 134.89 Z M 156.76 134.42 L 157.70 133.95 C 158.49 133.55 158.82 132.57 158.41 131.77 C 158.01 130.97 157.04 130.65 156.24 131.05 L 155.30 131.53 C 154.50 131.93 154.18 132.90 154.58 133.70 C 154.99 134.50 155.96 134.82 156.76 134.42 Z M 157.69 133.95 L 158.61 133.48 C 159.41 133.08 159.73 132.11 159.33 131.31 C 158.93 130.51 157.95 130.19 157.16 130.59 L 156.24 131.06 C 155.44 131.46 155.12 132.43 155.52 133.23 C 155.92 134.03 156.90 134.35 157.69 133.95 Z M 158.60 133.48 L 159.56 133.01 C 160.36 132.61 160.68 131.64 160.28 130.84 C 159.88 130.04 158.91 129.72 158.12 130.12 L 157.16 130.59 C 156.37 130.99 156.04 131.96 156.44 132.76 C 156.84 133.56 157.81 133.88 158.60 133.48 Z M 159.55 133.01 L 160.50 132.54 C 161.30 132.15 161.62 131.18 161.23 130.39 C 160.84 129.59 159.88 129.26 159.08 129.65 L 158.13 130.12 C 157.33 130.51 157.00 131.48 157.40 132.27 C 157.79 133.07 158.75 133.40 159.55 133.01 Z M 160.49 132.53 L 161.40 132.09 C 162.20 131.70 162.53 130.75 162.14 129.95 C 161.75 129.16 160.80 128.83 160.00 129.21 L 159.09 129.66 C 158.30 130.04 157.96 131.00 158.35 131.79 C 158.74 132.59 159.69 132.92 160.49 132.53 Z M 161.39 132.09 L 162.28 131.66 C 163.07 131.28 163.40 130.33 163.02 129.54 C 162.64 128.74 161.69 128.41 160.90 128.79 L 160.01 129.22 C 159.22 129.60 158.89 130.55 159.27 131.34 C 159.65 132.13 160.60 132.47 161.39 132.09 Z M 162.27 131.66 L 163.13 131.24 C 163.92 130.87 164.26 129.92 163.88 129.13 C 163.50 128.34 162.56 128.01 161.77 128.39 L 160.90 128.80 C 160.11 129.17 159.78 130.12 160.16 130.91 C 160.53 131.70 161.48 132.03 162.27 131.66 Z M 163.12 131.24 L 163.98 130.83 C 164.76 130.46 165.10 129.52 164.72 128.74 C 164.35 127.95 163.41 127.61 162.62 127.99 L 161.77 128.39 C 160.99 128.76 160.65 129.70 161.03 130.49 C 161.40 131.28 162.34 131.61 163.12 131.24 Z M 163.97 130.83 L 164.87 130.40 C 165.66 130.03 165.99 129.10 165.62 128.31 C 165.25 127.53 164.31 127.19 163.53 127.56 L 162.63 127.99 C 161.84 128.36 161.51 129.30 161.88 130.08 C 162.25 130.87 163.19 131.20 163.97 130.83 Z M 164.87 130.40 L 165.80 129.96 C 166.58 129.59 166.91 128.66 166.54 127.87 C 166.17 127.09 165.24 126.76 164.45 127.13 L 163.53 127.57 C 162.75 127.94 162.41 128.87 162.79 129.66 C 163.16 130.44 164.09 130.77 164.87 130.40 Z M 165.80 129.96 L 166.71 129.53 C 167.49 129.15 167.83 128.22 167.45 127.44 C 167.08 126.66 166.15 126.32 165.37 126.70 L 164.45 127.13 C 163.67 127.50 163.34 128.44 163.71 129.22 C 164.08 130.00 165.02 130.33 165.80 129.96 Z M 166.71 129.52 L 167.62 129.09 C 168.40 128.72 168.73 127.79 168.35 127.01 C 167.98 126.23 167.05 125.90 166.27 126.27 L 165.37 126.70 C 164.59 127.07 164.26 128.01 164.63 128.79 C 165.00 129.57 165.93 129.90 166.71 129.52 Z M 167.62 129.09 L 168.50 128.66 C 169.28 128.29 169.61 127.36 169.23 126.58 C 168.86 125.80 167.93 125.47 167.15 125.85 L 166.26 126.27 C 165.49 126.65 165.16 127.58 165.53 128.36 C 165.91 129.14 166.84 129.46 167.62 129.09 Z M 168.51 128.66 L 169.40 128.23 C 170.18 127.85 170.50 126.92 170.13 126.14 C 169.75 125.36 168.82 125.04 168.04 125.42 L 167.14 125.85 C 166.37 126.23 166.04 127.16 166.42 127.94 C 166.80 128.71 167.73 129.04 168.51 128.66 Z M 169.41 128.22 L 170.38 127.75 C 171.16 127.37 171.48 126.43 171.10 125.66 C 170.72 124.88 169.79 124.56 169.01 124.94 L 168.04 125.42 C 167.26 125.80 166.94 126.73 167.32 127.51 C 167.70 128.28 168.63 128.60 169.41 128.22 Z M 170.38 127.75 L 171.32 127.29 C 172.09 126.91 172.41 125.98 172.03 125.20 C 171.65 124.43 170.72 124.11 169.94 124.49 L 169.01 124.94 C 168.24 125.32 167.92 126.26 168.29 127.03 C 168.67 127.80 169.61 128.13 170.38 127.75 Z M 171.31 127.29 L 172.19 126.86 C 172.97 126.49 173.29 125.55 172.92 124.78 C 172.54 124.00 171.60 123.68 170.83 124.05 L 169.95 124.48 C 169.17 124.86 168.85 125.79 169.22 126.57 C 169.60 127.35 170.54 127.67 171.31 127.29 Z M 172.18 126.87 L 173.01 126.47 C 173.79 126.10 174.12 125.17 173.75 124.39 C 173.38 123.61 172.45 123.28 171.67 123.66 L 170.84 124.05 C 170.06 124.42 169.73 125.35 170.10 126.13 C 170.47 126.91 171.40 127.24 172.18 126.87 Z M 172.99 126.48 L 173.92 126.06 C 174.70 125.70 175.05 124.77 174.69 123.99 C 174.33 123.20 173.40 122.86 172.62 123.22 L 171.69 123.65 C 170.90 124.01 170.56 124.93 170.92 125.72 C 171.28 126.50 172.21 126.84 172.99 126.48 Z M 173.89 126.07 L 174.84 125.66 C 175.63 125.31 175.99 124.39 175.64 123.60 C 175.30 122.81 174.38 122.45 173.59 122.80 L 172.64 123.21 C 171.85 123.55 171.49 124.47 171.84 125.26 C 172.18 126.05 173.10 126.41 173.89 126.07 Z M 174.81 125.67 L 175.70 125.30 C 176.49 124.96 176.87 124.05 176.53 123.25 C 176.20 122.46 175.29 122.08 174.49 122.42 L 173.61 122.79 C 172.81 123.12 172.44 124.03 172.77 124.83 C 173.10 125.63 174.02 126.00 174.81 125.67 Z M 175.69 125.30 L 176.37 125.02 C 177.17 124.69 177.55 123.78 177.22 122.98 C 176.89 122.19 175.98 121.80 175.18 122.13 L 174.50 122.41 C 173.70 122.74 173.32 123.65 173.65 124.45 C 173.98 125.25 174.89 125.63 175.69 125.30 Z"
      fill="black"
      fill-rule="nonzero" /><path d="M 146.78 110.29 L 145.82 110.57 C 144.93 110.84 144.43 111.78 144.70 112.68 C 144.97 113.57 145.91 114.07 146.80 113.80 L 147.75 113.52 C 148.64 113.25 149.15 112.31 148.88 111.41 C 148.61 110.52 147.67 110.02 146.78 110.29 Z M 145.55 110.66 L 144.68 111.09 C 143.84 111.51 143.49 112.53 143.91 113.38 C 144.33 114.23 145.36 114.57 146.20 114.15 L 147.07 113.72 C 147.92 113.30 148.27 112.28 147.85 111.43 C 147.43 110.58 146.40 110.24 145.55 110.66 Z M 144.21 111.40 L 143.50 112.12 C 142.83 112.80 142.84 113.90 143.52 114.58 C 144.20 115.25 145.30 115.24 145.97 114.56 L 146.68 113.84 C 147.35 113.15 147.34 112.05 146.66 111.38 C 145.98 110.71 144.88 110.72 144.21 111.40 Z M 143.17 112.57 L 142.81 113.29 C 142.38 114.16 142.74 115.21 143.61 115.63 C 144.47 116.06 145.52 115.70 145.95 114.84 L 146.31 114.11 C 146.73 113.24 146.38 112.20 145.51 111.77 C 144.64 111.34 143.59 111.70 143.17 112.57 Z M 142.70 113.57 L 142.44 114.46 C 142.17 115.39 142.70 116.36 143.63 116.63 C 144.55 116.91 145.52 116.37 145.80 115.45 L 146.06 114.56 C 146.33 113.63 145.80 112.66 144.87 112.39 C 143.94 112.12 142.97 112.65 142.70 113.57 Z M 142.40 114.63 L 142.21 115.66 C 142.03 116.61 142.66 117.52 143.61 117.70 C 144.56 117.88 145.47 117.25 145.65 116.30 L 145.84 115.28 C 146.01 114.33 145.39 113.41 144.44 113.24 C 143.49 113.06 142.57 113.69 142.40 114.63 Z M 142.19 115.76 L 142.05 116.88 C 141.92 117.84 142.60 118.71 143.56 118.84 C 144.52 118.96 145.39 118.28 145.52 117.32 L 145.66 116.20 C 145.78 115.24 145.11 114.37 144.15 114.24 C 143.19 114.12 142.31 114.80 142.19 115.76 Z M 142.04 116.92 L 141.93 118.00 C 141.84 118.96 142.54 119.82 143.50 119.92 C 144.46 120.02 145.31 119.32 145.41 118.36 L 145.52 117.28 C 145.62 116.32 144.92 115.46 143.96 115.36 C 143.00 115.26 142.14 115.96 142.04 116.92 Z M 141.93 118.02 L 141.84 119.04 C 141.76 120.00 142.47 120.85 143.43 120.94 C 144.39 121.02 145.24 120.31 145.32 119.35 L 145.41 118.33 C 145.50 117.37 144.79 116.53 143.83 116.44 C 142.87 116.35 142.02 117.06 141.93 118.02 Z M 141.84 119.06 L 141.76 120.08 C 141.69 121.04 142.40 121.88 143.36 121.96 C 144.32 122.03 145.16 121.32 145.24 120.36 L 145.32 119.33 C 145.40 118.37 144.68 117.53 143.72 117.46 C 142.76 117.38 141.92 118.10 141.84 119.06 Z M 141.76 120.10 L 141.69 121.11 C 141.62 122.07 142.35 122.90 143.31 122.97 C 144.27 123.03 145.10 122.31 145.17 121.35 L 145.24 120.34 C 145.31 119.38 144.58 118.55 143.62 118.48 C 142.66 118.41 141.83 119.14 141.76 120.10 Z M 141.69 121.12 L 141.63 122.10 C 141.57 123.06 142.30 123.88 143.26 123.94 C 144.22 124.00 145.04 123.28 145.10 122.32 L 145.17 121.34 C 145.23 120.38 144.50 119.55 143.54 119.49 C 142.58 119.43 141.75 120.16 141.69 121.12 Z M 141.63 122.11 L 141.58 123.09 C 141.52 124.05 142.26 124.87 143.22 124.92 C 144.17 124.98 144.99 124.24 145.05 123.29 L 145.10 122.31 C 145.16 121.35 144.42 120.53 143.47 120.47 C 142.51 120.42 141.69 121.15 141.63 122.11 Z M 141.58 123.10 L 141.53 124.15 C 141.48 125.11 142.22 125.92 143.18 125.97 C 144.13 126.01 144.95 125.28 144.99 124.32 L 145.05 123.27 C 145.09 122.32 144.36 121.50 143.40 121.46 C 142.44 121.41 141.63 122.15 141.58 123.10 Z M 141.53 124.16 L 141.49 125.15 C 141.44 126.11 142.19 126.91 143.14 126.96 C 144.10 127.00 144.91 126.26 144.95 125.30 L 144.99 124.31 C 145.03 123.35 144.29 122.54 143.34 122.50 C 142.38 122.46 141.57 123.20 141.53 124.16 Z M 141.49 125.15 L 141.45 126.12 C 141.41 127.07 142.15 127.88 143.10 127.92 C 144.06 127.96 144.87 127.22 144.91 126.26 L 144.95 125.30 C 144.99 124.34 144.25 123.54 143.29 123.50 C 142.34 123.46 141.53 124.20 141.49 125.15 Z M 141.45 126.12 L 141.41 127.09 C 141.37 128.04 142.11 128.85 143.06 128.89 C 144.01 128.93 144.82 128.19 144.86 127.24 L 144.90 126.27 C 144.95 125.31 144.21 124.51 143.25 124.46 C 142.30 124.42 141.49 125.16 141.45 126.12 Z M 141.41 127.08 L 141.36 128.01 C 141.32 128.97 142.05 129.78 143.01 129.82 C 143.96 129.87 144.77 129.13 144.81 128.18 L 144.86 127.24 C 144.91 126.29 144.17 125.48 143.22 125.44 C 142.27 125.39 141.46 126.12 141.41 127.08 Z M 141.37 128.00 L 141.31 128.97 C 141.26 129.92 141.99 130.73 142.94 130.78 C 143.90 130.84 144.71 130.11 144.76 129.15 L 144.81 128.19 C 144.86 127.24 144.13 126.43 143.18 126.37 C 142.23 126.32 141.42 127.05 141.37 128.00 Z M 141.32 128.96 L 141.25 129.95 C 141.20 130.90 141.92 131.72 142.87 131.78 C 143.82 131.84 144.64 131.11 144.70 130.16 L 144.76 129.16 C 144.82 128.21 144.09 127.40 143.14 127.34 C 142.19 127.28 141.37 128.00 141.32 128.96 Z M 141.26 129.94 L 141.19 130.98 C 141.12 131.93 141.84 132.75 142.79 132.81 C 143.74 132.88 144.56 132.16 144.63 131.21 L 144.70 130.17 C 144.76 129.22 144.04 128.40 143.09 128.34 C 142.14 128.27 141.32 128.99 141.26 129.94 Z M 141.19 130.96 L 141.11 132.01 C 141.04 132.96 141.75 133.79 142.70 133.86 C 143.65 133.93 144.48 133.22 144.55 132.27 L 144.63 131.22 C 144.70 130.27 143.99 129.45 143.04 129.37 C 142.09 129.30 141.26 130.01 141.19 130.96 Z M 141.11 132.00 L 141.03 132.96 C 140.95 133.90 141.66 134.74 142.61 134.82 C 143.56 134.89 144.39 134.19 144.47 133.24 L 144.55 132.28 C 144.62 131.33 143.92 130.50 142.97 130.42 C 142.02 130.34 141.19 131.05 141.11 132.00 Z M 141.03 132.95 L 140.95 133.93 C 140.86 134.88 141.57 135.71 142.51 135.80 C 143.46 135.88 144.30 135.18 144.38 134.23 L 144.46 133.25 C 144.55 132.30 143.85 131.46 142.90 131.38 C 141.95 131.30 141.12 132.00 141.03 132.95 Z M 140.95 133.93 L 140.86 134.93 C 140.77 135.87 141.47 136.71 142.42 136.80 C 143.36 136.88 144.20 136.19 144.29 135.24 L 144.38 134.24 C 144.46 133.29 143.77 132.45 142.82 132.37 C 141.87 132.28 141.04 132.98 140.95 133.93 Z M 140.86 134.92 L 140.76 135.94 C 140.68 136.89 141.37 137.72 142.32 137.81 C 143.26 137.90 144.10 137.21 144.19 136.26 L 144.29 135.24 C 144.37 134.30 143.68 133.46 142.73 133.37 C 141.79 133.28 140.95 133.98 140.86 134.92 Z M 140.76 135.94 L 140.67 136.96 C 140.58 137.90 141.27 138.74 142.22 138.83 C 143.16 138.92 144.00 138.23 144.09 137.28 L 144.19 136.26 C 144.28 135.32 143.59 134.48 142.64 134.39 C 141.69 134.30 140.85 134.99 140.76 135.94 Z M 140.67 136.96 L 140.57 137.96 C 140.48 138.90 141.18 139.74 142.12 139.83 C 143.07 139.92 143.91 139.23 144.00 138.28 L 144.09 137.28 C 144.18 136.34 143.49 135.50 142.54 135.41 C 141.60 135.32 140.76 136.01 140.67 136.96 Z M 140.58 137.96 L 140.48 138.95 C 140.39 139.89 141.08 140.73 142.03 140.82 C 142.97 140.91 143.81 140.21 143.90 139.27 L 144.00 138.28 C 144.09 137.34 143.39 136.50 142.45 136.41 C 141.50 136.32 140.66 137.01 140.58 137.96 Z M 140.48 138.95 L 140.39 139.94 C 140.30 140.88 140.99 141.72 141.93 141.81 C 142.88 141.90 143.72 141.21 143.81 140.26 L 143.90 139.27 C 143.99 138.33 143.30 137.49 142.35 137.40 C 141.41 137.31 140.57 138.00 140.48 138.95 Z M 140.39 139.94 L 140.29 140.93 C 140.21 141.88 140.90 142.71 141.84 142.80 C 142.79 142.89 143.62 142.20 143.71 141.26 L 143.81 140.26 C 143.89 139.32 143.20 138.48 142.26 138.39 C 141.32 138.30 140.48 138.99 140.39 139.94 Z M 140.30 140.93 L 140.20 141.94 C 140.11 142.88 140.81 143.71 141.75 143.80 C 142.69 143.89 143.53 143.20 143.62 142.26 L 143.71 141.26 C 143.80 140.31 143.11 139.48 142.16 139.39 C 141.22 139.30 140.38 139.99 140.30 140.93 Z M 140.20 141.94 L 140.11 142.94 C 140.02 143.88 140.71 144.72 141.66 144.81 C 142.60 144.89 143.43 144.20 143.52 143.26 L 143.62 142.26 C 143.70 141.31 143.01 140.48 142.07 140.39 C 141.13 140.30 140.29 140.99 140.20 141.94 Z M 140.11 142.94 L 140.02 143.91 C 139.93 144.85 140.63 145.69 141.57 145.77 C 142.51 145.86 143.34 145.17 143.43 144.23 L 143.52 143.26 C 143.61 142.32 142.92 141.48 141.97 141.39 C 141.03 141.31 140.20 142.00 140.11 142.94 Z M 140.02 143.91 L 139.93 144.89 C 139.84 145.83 140.53 146.66 141.47 146.75 C 142.42 146.84 143.25 146.15 143.34 145.21 L 143.43 144.23 C 143.52 143.29 142.83 142.45 141.88 142.37 C 140.94 142.28 140.11 142.97 140.02 143.91 Z M 139.93 144.89 L 139.84 145.88 C 139.75 146.82 140.44 147.65 141.38 147.74 C 142.32 147.83 143.15 147.14 143.24 146.20 L 143.34 145.21 C 143.43 144.27 142.74 143.44 141.80 143.35 C 140.86 143.26 140.02 143.95 139.93 144.89 Z M 139.84 145.87 L 139.74 146.87 C 139.65 147.81 140.33 148.65 141.27 148.74 C 142.21 148.83 143.05 148.15 143.14 147.21 L 143.24 146.21 C 143.33 145.27 142.65 144.43 141.71 144.34 C 140.77 144.24 139.93 144.93 139.84 145.87 Z M 139.74 146.87 L 139.64 147.88 C 139.54 148.82 140.23 149.66 141.16 149.75 C 142.10 149.85 142.94 149.17 143.04 148.23 L 143.14 147.21 C 143.24 146.27 142.55 145.44 141.61 145.34 C 140.68 145.24 139.84 145.93 139.74 146.87 Z M 139.64 147.87 L 139.53 148.89 C 139.43 149.82 140.11 150.66 141.05 150.76 C 141.99 150.87 142.83 150.19 142.93 149.25 L 143.04 148.24 C 143.14 147.30 142.46 146.46 141.52 146.36 C 140.58 146.26 139.74 146.93 139.64 147.87 Z M 139.53 148.88 L 139.43 149.85 C 139.32 150.78 139.99 151.63 140.93 151.73 C 141.87 151.84 142.71 151.16 142.82 150.23 L 142.92 149.26 C 143.03 148.32 142.36 147.48 141.42 147.37 C 140.48 147.27 139.64 147.94 139.53 148.88 Z M 139.43 149.84 L 139.31 150.82 C 139.21 151.76 139.88 152.60 140.81 152.71 C 141.74 152.82 142.59 152.15 142.70 151.22 L 142.81 150.23 C 142.92 149.30 142.25 148.45 141.32 148.35 C 140.38 148.24 139.54 148.91 139.43 149.84 Z M 139.32 150.82 L 139.20 151.81 C 139.09 152.74 139.75 153.59 140.69 153.70 C 141.62 153.81 142.47 153.15 142.58 152.21 L 142.70 151.22 C 142.81 150.29 142.14 149.44 141.21 149.33 C 140.28 149.22 139.43 149.88 139.32 150.82 Z M 139.20 151.81 L 139.08 152.81 C 138.97 153.74 139.63 154.58 140.56 154.70 C 141.49 154.81 142.34 154.15 142.45 153.22 L 142.57 152.22 C 142.69 151.28 142.03 150.44 141.09 150.32 C 140.16 150.21 139.31 150.87 139.20 151.81 Z M 139.08 152.80 L 138.96 153.81 C 138.84 154.74 139.50 155.59 140.43 155.70 C 141.37 155.82 142.21 155.15 142.33 154.22 L 142.45 153.22 C 142.57 152.29 141.90 151.44 140.97 151.33 C 140.04 151.21 139.20 151.87 139.08 152.80 Z M 138.96 153.81 L 138.83 154.82 C 138.72 155.75 139.38 156.60 140.31 156.71 C 141.24 156.83 142.08 156.17 142.20 155.24 L 142.32 154.22 C 142.44 153.30 141.78 152.45 140.85 152.33 C 139.92 152.22 139.07 152.88 138.96 153.81 Z M 138.84 154.82 L 138.72 155.81 C 138.60 156.73 139.26 157.58 140.19 157.69 C 141.12 157.81 141.96 157.15 142.08 156.22 L 142.20 155.24 C 142.31 154.31 141.65 153.46 140.72 153.35 C 139.80 153.23 138.95 153.89 138.84 154.82 Z M 138.72 155.81 L 138.60 156.79 C 138.48 157.72 139.14 158.56 140.07 158.67 C 140.99 158.79 141.84 158.13 141.95 157.20 L 142.07 156.22 C 142.19 155.29 141.53 154.45 140.60 154.33 C 139.68 154.22 138.83 154.88 138.72 155.81 Z M 138.60 156.79 L 138.48 157.78 C 138.36 158.70 139.02 159.55 139.94 159.66 C 140.87 159.77 141.71 159.12 141.83 158.19 L 141.95 157.20 C 142.06 156.28 141.41 155.44 140.48 155.32 C 139.56 155.21 138.71 155.86 138.60 156.79 Z M 138.48 157.77 L 138.35 158.77 C 138.24 159.69 138.89 160.53 139.82 160.65 C 140.74 160.76 141.59 160.11 141.70 159.18 L 141.83 158.19 C 141.94 157.27 141.28 156.43 140.36 156.31 C 139.44 156.19 138.59 156.85 138.48 157.77 Z M 138.36 158.76 L 138.23 159.76 C 138.11 160.68 138.77 161.53 139.69 161.64 C 140.62 161.76 141.46 161.11 141.57 160.18 L 141.70 159.19 C 141.82 158.26 141.16 157.42 140.24 157.30 C 139.32 157.19 138.47 157.84 138.36 158.76 Z M 138.23 159.76 L 138.11 160.76 C 137.99 161.68 138.64 162.53 139.56 162.64 C 140.48 162.76 141.33 162.11 141.44 161.19 L 141.57 160.18 C 141.69 159.26 141.04 158.42 140.12 158.30 C 139.19 158.19 138.35 158.84 138.23 159.76 Z M 138.11 160.76 L 137.98 161.75 C 137.86 162.67 138.51 163.52 139.43 163.64 C 140.35 163.75 141.19 163.11 141.31 162.19 L 141.44 161.19 C 141.56 160.27 140.91 159.43 139.99 159.31 C 139.07 159.19 138.23 159.84 138.11 160.76 Z M 137.98 161.75 L 137.85 162.72 C 137.73 163.64 138.38 164.48 139.30 164.60 C 140.22 164.72 141.06 164.08 141.18 163.16 L 141.31 162.19 C 141.43 161.27 140.78 160.43 139.86 160.31 C 138.95 160.18 138.10 160.83 137.98 161.75 Z M 137.86 162.72 L 137.73 163.69 C 137.60 164.61 138.25 165.45 139.17 165.58 C 140.08 165.70 140.93 165.05 141.05 164.14 L 141.18 163.16 C 141.30 162.24 140.66 161.40 139.74 161.28 C 138.82 161.16 137.98 161.80 137.86 162.72 Z M 137.73 163.69 L 137.60 164.67 C 137.47 165.59 138.11 166.43 139.03 166.56 C 139.95 166.68 140.79 166.04 140.91 165.12 L 141.05 164.14 C 141.17 163.22 140.53 162.38 139.61 162.26 C 138.70 162.13 137.85 162.78 137.73 163.69 Z M 137.60 164.67 L 137.46 165.66 C 137.34 166.58 137.98 167.42 138.89 167.55 C 139.81 167.67 140.65 167.03 140.77 166.12 L 140.91 165.13 C 141.03 164.21 140.40 163.37 139.48 163.24 C 138.57 163.12 137.73 163.76 137.60 164.67 Z M 137.47 165.66 L 137.33 166.66 C 137.20 167.58 137.84 168.42 138.75 168.54 C 139.66 168.67 140.51 168.03 140.63 167.12 L 140.77 166.12 C 140.90 165.21 140.26 164.37 139.35 164.24 C 138.44 164.11 137.59 164.75 137.47 165.66 Z M 137.33 166.66 L 137.19 167.67 C 137.06 168.58 137.70 169.43 138.61 169.55 C 139.52 169.68 140.36 169.05 140.49 168.14 L 140.63 167.12 C 140.76 166.21 140.12 165.37 139.21 165.24 C 138.30 165.12 137.46 165.75 137.33 166.66 Z M 137.19 167.67 L 137.05 168.69 C 136.92 169.60 137.55 170.44 138.46 170.57 C 139.37 170.69 140.21 170.06 140.34 169.15 L 140.48 168.14 C 140.61 167.23 139.98 166.39 139.07 166.26 C 138.16 166.13 137.32 166.76 137.19 167.67 Z M 137.05 168.69 L 136.91 169.70 C 136.78 170.61 137.41 171.45 138.31 171.58 C 139.22 171.71 140.06 171.08 140.19 170.17 L 140.34 169.15 C 140.47 168.25 139.84 167.41 138.93 167.28 C 138.02 167.15 137.18 167.78 137.05 168.69 Z M 136.91 169.70 L 136.76 170.71 C 136.63 171.62 137.26 172.46 138.17 172.59 C 139.07 172.72 139.91 172.09 140.04 171.19 L 140.19 170.17 C 140.32 169.27 139.69 168.43 138.79 168.30 C 137.88 168.16 137.04 168.79 136.91 169.70 Z M 136.77 170.71 L 136.62 171.72 C 136.49 172.62 137.11 173.46 138.01 173.59 C 138.92 173.73 139.76 173.10 139.89 172.20 L 140.04 171.19 C 140.17 170.29 139.55 169.45 138.64 169.31 C 137.74 169.18 136.90 169.81 136.77 170.71 Z M 136.62 171.71 L 136.47 172.71 C 136.34 173.61 136.96 174.45 137.86 174.59 C 138.76 174.72 139.60 174.10 139.73 173.20 L 139.88 172.21 C 140.02 171.30 139.40 170.46 138.50 170.33 C 137.60 170.19 136.76 170.81 136.62 171.71 Z M 136.48 172.70 L 136.33 173.68 C 136.19 174.58 136.80 175.42 137.70 175.56 C 138.60 175.70 139.44 175.08 139.58 174.18 L 139.73 173.21 C 139.87 172.31 139.25 171.47 138.36 171.33 C 137.46 171.19 136.62 171.81 136.48 172.70 Z M 136.33 173.67 L 136.18 174.62 C 136.03 175.52 136.64 176.36 137.54 176.50 C 138.44 176.65 139.28 176.04 139.42 175.14 L 139.57 174.19 C 139.72 173.30 139.11 172.45 138.21 172.31 C 137.32 172.17 136.47 172.78 136.33 173.67 Z M 136.18 174.61 L 136.02 175.61 C 135.87 176.50 136.47 177.35 137.37 177.50 C 138.26 177.64 139.10 177.04 139.25 176.15 L 139.42 175.15 C 139.57 174.26 138.96 173.41 138.07 173.26 C 137.18 173.12 136.33 173.72 136.18 174.61 Z M 136.02 175.60 L 135.84 176.66 C 135.68 177.55 136.28 178.39 137.17 178.55 C 138.06 178.70 138.91 178.11 139.06 177.22 L 139.25 176.16 C 139.40 175.27 138.80 174.42 137.91 174.27 C 137.02 174.11 136.18 174.71 136.02 175.60 Z M 135.84 176.65 L 135.66 177.66 C 135.50 178.54 136.09 179.39 136.98 179.55 C 137.86 179.71 138.71 179.13 138.87 178.24 L 139.06 177.23 C 139.22 176.34 138.63 175.49 137.74 175.33 C 136.85 175.17 136.00 175.76 135.84 176.65 Z M 135.67 177.65 L 135.49 178.62 C 135.32 179.51 135.90 180.36 136.79 180.52 C 137.67 180.69 138.52 180.10 138.69 179.22 L 138.87 178.25 C 139.03 177.36 138.45 176.51 137.57 176.35 C 136.68 176.18 135.83 176.77 135.67 177.65 Z M 135.49 178.62 L 135.31 179.56 C 135.14 180.44 135.72 181.29 136.60 181.46 C 137.48 181.62 138.33 181.04 138.50 180.16 L 138.68 179.22 C 138.85 178.34 138.27 177.49 137.39 177.32 C 136.51 177.16 135.66 177.73 135.49 178.62 Z M 135.32 179.55 L 135.14 180.47 C 134.97 181.35 135.55 182.20 136.43 182.37 C 137.30 182.53 138.15 181.96 138.32 181.08 L 138.50 180.17 C 138.67 179.29 138.09 178.44 137.21 178.27 C 136.33 178.10 135.48 178.68 135.32 179.55 Z M 135.14 180.47 L 134.95 181.46 C 134.78 182.34 135.36 183.19 136.24 183.35 C 137.11 183.52 137.96 182.95 138.13 182.07 L 138.32 181.08 C 138.49 180.20 137.91 179.36 137.04 179.19 C 136.16 179.02 135.31 179.59 135.14 180.47 Z M 134.96 181.46 L 134.76 182.48 C 134.59 183.35 135.17 184.20 136.04 184.37 C 136.91 184.53 137.76 183.96 137.93 183.09 L 138.12 182.07 C 138.29 181.20 137.72 180.35 136.85 180.18 C 135.97 180.02 135.13 180.59 134.96 181.46 Z M 134.77 182.47 L 134.57 183.46 C 134.40 184.34 134.97 185.18 135.84 185.35 C 136.71 185.52 137.56 184.95 137.73 184.08 L 137.92 183.09 C 138.09 182.22 137.53 181.38 136.65 181.20 C 135.78 181.03 134.94 181.60 134.77 182.47 Z M 134.58 183.46 L 134.38 184.42 C 134.21 185.29 134.77 186.13 135.64 186.31 C 136.51 186.49 137.35 185.92 137.53 185.05 L 137.72 184.09 C 137.90 183.22 137.34 182.38 136.47 182.20 C 135.60 182.03 134.75 182.59 134.58 183.46 Z M 134.39 184.41 L 134.19 185.34 C 134.01 186.21 134.56 187.05 135.43 187.24 C 136.29 187.42 137.14 186.87 137.33 186.00 L 137.52 185.07 C 137.70 184.20 137.15 183.35 136.29 183.17 C 135.42 182.99 134.57 183.54 134.39 184.41 Z M 134.20 185.32 L 133.99 186.25 C 133.80 187.12 134.34 187.97 135.20 188.16 C 136.06 188.35 136.92 187.81 137.11 186.95 L 137.32 186.02 C 137.51 185.16 136.97 184.30 136.11 184.11 C 135.25 183.92 134.39 184.46 134.20 185.32 Z M 134.00 186.24 L 133.78 187.17 C 133.58 188.02 134.11 188.88 134.97 189.09 C 135.83 189.29 136.69 188.76 136.89 187.90 L 137.11 186.97 C 137.31 186.11 136.78 185.25 135.92 185.05 C 135.06 184.85 134.20 185.38 134.00 186.24 Z M 133.78 187.15 L 133.55 188.10 C 133.34 188.95 133.87 189.82 134.73 190.03 C 135.58 190.23 136.45 189.71 136.66 188.85 L 136.88 187.91 C 137.09 187.05 136.57 186.19 135.71 185.98 C 134.85 185.77 133.99 186.30 133.78 187.15 Z M 133.55 188.09 L 133.31 189.08 C 133.10 189.93 133.63 190.80 134.48 191.01 C 135.34 191.22 136.20 190.70 136.41 189.84 L 136.66 188.85 C 136.87 188.00 136.34 187.13 135.48 186.92 C 134.63 186.71 133.76 187.24 133.55 188.09 Z M 133.31 189.08 L 133.05 190.14 C 132.85 190.99 133.37 191.86 134.23 192.07 C 135.09 192.27 135.95 191.75 136.16 190.89 L 136.42 189.84 C 136.62 188.98 136.10 188.11 135.24 187.91 C 134.38 187.70 133.52 188.22 133.31 189.08 Z M 133.05 190.14 L 132.83 191.07 C 132.63 191.93 133.16 192.79 134.02 192.99 C 134.87 193.20 135.74 192.67 135.94 191.81 L 136.16 190.88 C 136.37 190.02 135.84 189.16 134.98 188.96 C 134.12 188.75 133.26 189.28 133.05 190.14 Z M 132.83 191.07 L 132.60 192.04 C 132.40 192.90 132.94 193.76 133.80 193.96 C 134.66 194.16 135.52 193.63 135.72 192.77 L 135.95 191.80 C 136.15 190.94 135.61 190.08 134.75 189.88 C 133.89 189.68 133.03 190.21 132.83 191.07 Z M 132.60 192.05 L 132.37 193.04 C 132.17 193.90 132.71 194.76 133.58 194.96 C 134.44 195.16 135.30 194.62 135.50 193.75 L 135.73 192.76 C 135.92 191.89 135.38 191.03 134.52 190.84 C 133.65 190.64 132.79 191.18 132.60 192.05 Z M 132.37 193.05 L 132.14 194.05 C 131.95 194.92 132.50 195.78 133.37 195.97 C 134.23 196.16 135.09 195.61 135.28 194.75 L 135.51 193.74 C 135.70 192.88 135.15 192.02 134.28 191.83 C 133.42 191.63 132.56 192.18 132.37 193.05 Z M 132.14 194.06 L 131.92 195.06 C 131.74 195.93 132.29 196.79 133.16 196.97 C 134.03 197.16 134.89 196.60 135.08 195.73 L 135.29 194.74 C 135.47 193.87 134.92 193.01 134.05 192.83 C 133.18 192.64 132.32 193.19 132.14 194.06 Z M 131.92 195.08 L 131.72 196.06 C 131.54 196.93 132.10 197.78 132.98 197.96 C 133.85 198.14 134.70 197.58 134.88 196.70 L 135.08 195.72 C 135.26 194.85 134.70 194.00 133.82 193.82 C 132.95 193.64 132.10 194.20 131.92 195.08 Z M 131.71 196.07 L 131.51 197.12 C 131.34 198.00 131.91 198.85 132.79 199.02 C 133.67 199.18 134.51 198.61 134.68 197.74 L 134.89 196.69 C 135.05 195.81 134.48 194.96 133.61 194.79 C 132.73 194.63 131.88 195.20 131.71 196.07 Z M 131.51 197.14 L 131.32 198.15 C 131.16 199.03 131.75 199.87 132.62 200.03 C 133.50 200.19 134.34 199.60 134.50 198.73 L 134.69 197.72 C 134.85 196.84 134.26 196.00 133.39 195.84 C 132.51 195.68 131.67 196.26 131.51 197.14 Z M 131.32 198.16 L 131.15 199.14 C 131.00 200.02 131.59 200.85 132.47 201.00 C 133.35 201.16 134.19 200.57 134.34 199.69 L 134.51 198.71 C 134.66 197.83 134.07 197.00 133.19 196.84 C 132.31 196.69 131.47 197.28 131.32 198.16 Z M 131.15 199.15 L 130.99 200.10 C 130.84 200.98 131.44 201.81 132.32 201.96 C 133.20 202.11 134.03 201.51 134.18 200.63 L 134.34 199.68 C 134.49 198.80 133.89 197.96 133.01 197.82 C 132.13 197.67 131.30 198.26 131.15 199.15 Z M 130.99 200.10 L 130.84 201.04 C 130.69 201.93 131.29 202.76 132.17 202.90 C 133.05 203.04 133.89 202.45 134.03 201.56 L 134.18 200.62 C 134.33 199.74 133.73 198.91 132.85 198.77 C 131.96 198.62 131.13 199.22 130.99 200.10 Z M 130.84 201.05 L 130.81 201.19 C 130.67 202.07 131.27 202.90 132.15 203.05 C 133.03 203.19 133.86 202.59 134.01 201.71 L 134.03 201.56 C 134.17 200.68 133.57 199.85 132.69 199.71 C 131.81 199.56 130.98 200.16 130.84 201.05 Z"
      fill="black"
      fill-rule="nonzero" /><path d="M 149.07 154.75 L 149.07 155.74 C 149.07 156.64 149.81 157.38 150.71 157.38 C 151.62 157.38 152.35 156.64 152.35 155.74 L 152.35 154.75 C 152.35 153.85 151.62 153.11 150.71 153.11 C 149.81 153.11 149.07 153.85 149.07 154.75 Z M 149.05 155.74 L 149.05 156.74 C 149.05 157.65 149.80 158.39 150.71 158.39 C 151.63 158.39 152.37 157.65 152.37 156.74 L 152.37 155.74 C 152.37 154.82 151.63 154.08 150.71 154.08 C 149.80 154.08 149.05 154.82 149.05 155.74 Z M 149.03 156.74 L 149.03 157.75 C 149.03 158.68 149.78 159.43 150.71 159.43 C 151.64 159.43 152.39 158.68 152.39 157.75 L 152.39 156.74 C 152.39 155.81 151.64 155.06 150.71 155.06 C 149.78 155.06 149.03 155.81 149.03 156.74 Z M 149.02 157.75 L 149.02 158.68 C 149.02 159.61 149.78 160.37 150.71 160.37 C 151.64 160.37 152.40 159.61 152.40 158.68 L 152.40 157.75 C 152.40 156.82 151.64 156.06 150.71 156.06 C 149.78 156.06 149.02 156.82 149.02 157.75 Z M 149.02 158.68 L 149.02 159.64 C 149.02 160.58 149.78 161.33 150.71 161.33 C 151.64 161.33 152.40 160.58 152.40 159.64 L 152.40 158.68 C 152.40 157.75 151.64 156.99 150.71 156.99 C 149.78 156.99 149.02 157.75 149.02 158.68 Z M 149.02 159.64 L 149.02 160.68 C 149.02 161.61 149.78 162.37 150.71 162.37 C 151.64 162.37 152.40 161.61 152.40 160.68 L 152.40 159.64 C 152.40 158.71 151.64 157.95 150.71 157.95 C 149.78 157.95 149.02 158.71 149.02 159.64 Z M 149.02 160.68 L 149.02 161.71 C 149.02 162.64 149.78 163.40 150.71 163.40 C 151.64 163.40 152.40 162.64 152.40 161.71 L 152.40 160.68 C 152.40 159.75 151.64 158.99 150.71 158.99 C 149.78 158.99 149.02 159.75 149.02 160.68 Z M 149.03 161.71 L 149.03 162.65 C 149.03 163.58 149.78 164.33 150.71 164.33 C 151.64 164.33 152.40 163.58 152.40 162.65 L 152.40 161.71 C 152.40 160.78 151.64 160.02 150.71 160.02 C 149.78 160.02 149.03 160.78 149.03 161.71 Z M 149.03 162.65 L 149.03 163.64 C 149.03 164.57 149.78 165.32 150.71 165.32 C 151.64 165.32 152.39 164.57 152.39 163.64 L 152.39 162.65 C 152.39 161.72 151.64 160.96 150.71 160.96 C 149.78 160.96 149.03 161.72 149.03 162.65 Z M 149.03 163.64 L 149.03 164.67 C 149.03 165.60 149.78 166.35 150.71 166.35 C 151.64 166.35 152.39 165.60 152.39 164.67 L 152.39 163.64 C 152.39 162.71 151.64 161.96 150.71 161.96 C 149.78 161.96 149.03 162.71 149.03 163.64 Z M 149.03 164.67 L 149.03 165.74 C 149.03 166.66 149.79 167.41 150.71 167.41 C 151.64 167.41 152.39 166.66 152.39 165.74 L 152.39 164.67 C 152.39 163.74 151.64 162.99 150.71 162.99 C 149.79 162.99 149.03 163.74 149.03 164.67 Z M 149.04 165.74 L 149.04 166.72 C 149.04 167.64 149.79 168.39 150.71 168.39 C 151.64 168.39 152.38 167.64 152.38 166.72 L 152.38 165.73 C 152.38 164.81 151.64 164.06 150.71 164.06 C 149.79 164.06 149.04 164.81 149.04 165.74 Z M 149.04 166.72 L 149.04 167.69 C 149.05 168.61 149.79 169.36 150.72 169.36 C 151.64 169.35 152.38 168.61 152.38 167.68 L 152.38 166.71 C 152.38 165.79 151.63 165.05 150.71 165.05 C 149.79 165.05 149.04 165.80 149.04 166.72 Z M 149.05 167.70 L 149.05 168.69 C 149.06 169.60 149.81 170.34 150.73 170.34 C 151.64 170.34 152.39 169.59 152.38 168.67 L 152.38 167.68 C 152.37 166.76 151.62 166.02 150.70 166.02 C 149.79 166.03 149.05 166.78 149.05 167.70 Z M 149.06 168.69 L 149.07 169.71 C 149.08 170.62 149.83 171.36 150.74 171.35 C 151.66 171.34 152.39 170.59 152.39 169.67 L 152.38 168.66 C 152.37 167.74 151.62 167.01 150.70 167.02 C 149.79 167.03 149.05 167.78 149.06 168.69 Z M 149.08 169.72 L 149.09 170.75 C 149.11 171.67 149.86 172.39 150.77 172.38 C 151.68 172.36 152.41 171.61 152.40 170.70 L 152.38 169.66 C 152.37 168.75 151.61 168.02 150.70 168.04 C 149.79 168.05 149.06 168.80 149.08 169.72 Z M 149.10 170.77 L 149.12 171.82 C 149.15 172.73 149.90 173.45 150.81 173.42 C 151.72 173.40 152.44 172.65 152.42 171.74 L 152.39 170.69 C 152.37 169.78 151.61 169.06 150.71 169.08 C 149.80 169.10 149.08 169.86 149.10 170.77 Z M 149.13 171.83 L 149.16 172.88 C 149.19 173.79 149.95 174.50 150.85 174.47 C 151.76 174.45 152.47 173.69 152.44 172.78 L 152.41 171.73 C 152.38 170.82 151.63 170.11 150.72 170.14 C 149.81 170.16 149.10 170.92 149.13 171.83 Z M 149.17 172.89 L 149.21 173.94 C 149.24 174.84 150.00 175.55 150.90 175.51 C 151.80 175.48 152.51 174.72 152.48 173.82 L 152.44 172.77 C 152.41 171.87 151.65 171.16 150.74 171.20 C 149.84 171.23 149.14 171.99 149.17 172.89 Z M 149.21 173.94 L 149.25 174.96 C 149.29 175.86 150.05 176.56 150.95 176.52 C 151.85 176.48 152.55 175.72 152.51 174.82 L 152.47 173.81 C 152.43 172.91 151.68 172.21 150.78 172.25 C 149.88 172.29 149.18 173.04 149.21 173.94 Z M 149.26 174.96 L 149.30 175.91 C 149.34 176.81 150.10 177.51 150.99 177.47 C 151.89 177.43 152.58 176.67 152.55 175.77 L 152.51 174.82 C 152.47 173.92 151.71 173.23 150.81 173.27 C 149.92 173.31 149.22 174.06 149.26 174.96 Z M 149.31 175.91 L 149.35 176.86 C 149.39 177.76 150.14 178.45 151.04 178.41 C 151.93 178.37 152.62 177.61 152.58 176.72 L 152.54 175.77 C 152.50 174.88 151.75 174.19 150.85 174.23 C 149.96 174.27 149.27 175.02 149.31 175.91 Z M 149.35 176.86 L 149.40 177.98 C 149.44 178.87 150.20 179.56 151.09 179.52 C 151.98 179.48 152.66 178.72 152.62 177.83 L 152.58 176.72 C 152.54 175.83 151.78 175.14 150.89 175.18 C 150.00 175.22 149.31 175.97 149.35 176.86 Z M 149.41 177.98 L 149.46 178.96 C 149.50 179.84 150.25 180.53 151.14 180.48 C 152.02 180.44 152.70 179.69 152.66 178.81 L 152.62 177.83 C 152.57 176.95 151.82 176.26 150.94 176.30 C 150.05 176.35 149.37 177.10 149.41 177.98 Z M 149.47 178.97 L 149.52 179.87 C 149.56 180.75 150.31 181.43 151.19 181.38 C 152.07 181.33 152.75 180.58 152.70 179.70 L 152.65 178.80 C 152.61 177.92 151.86 177.24 150.98 177.29 C 150.10 177.33 149.42 178.09 149.47 178.97 Z M 149.52 179.88 L 149.58 180.78 C 149.63 181.65 150.39 182.32 151.26 182.26 C 152.14 182.21 152.80 181.46 152.75 180.58 L 152.70 179.69 C 152.64 178.81 151.89 178.15 151.01 178.20 C 150.14 178.25 149.47 179.01 149.52 179.88 Z M 149.58 180.78 L 149.65 181.71 C 149.70 182.59 150.46 183.25 151.33 183.19 C 152.21 183.13 152.87 182.37 152.81 181.50 L 152.74 180.57 C 152.69 179.70 151.93 179.04 151.06 179.10 C 150.18 179.16 149.52 179.91 149.58 180.78 Z M 149.65 181.71 L 149.72 182.72 C 149.78 183.59 150.53 184.24 151.40 184.19 C 152.27 184.13 152.93 183.37 152.87 182.50 L 152.80 181.50 C 152.74 180.63 151.99 179.97 151.12 180.03 C 150.25 180.09 149.59 180.84 149.65 181.71 Z M 149.72 182.71 L 149.79 183.82 C 149.85 184.69 150.60 185.34 151.47 185.29 C 152.34 185.23 153.00 184.48 152.94 183.61 L 152.87 182.51 C 152.81 181.64 152.06 180.98 151.19 181.04 C 150.32 181.09 149.67 181.84 149.72 182.71 Z M 149.80 183.81 L 149.85 184.76 C 149.90 185.63 150.65 186.29 151.51 186.24 C 152.38 186.19 153.04 185.44 152.99 184.57 L 152.94 183.62 C 152.89 182.76 152.14 182.09 151.27 182.14 C 150.41 182.20 149.74 182.94 149.80 183.81 Z M 149.85 184.75 L 149.91 185.73 C 149.95 186.60 150.70 187.26 151.56 187.21 C 152.43 187.16 153.09 186.42 153.05 185.56 L 152.99 184.58 C 152.94 183.71 152.20 183.05 151.34 183.10 C 150.47 183.14 149.80 183.89 149.85 184.75 Z M 149.91 185.73 L 149.96 186.74 C 150.01 187.61 150.75 188.27 151.61 188.23 C 152.48 188.18 153.14 187.44 153.10 186.58 L 153.04 185.56 C 153.00 184.69 152.26 184.03 151.39 184.08 C 150.53 184.12 149.86 184.86 149.91 185.73 Z M 149.96 186.74 L 150.02 187.78 C 150.06 188.64 150.80 189.31 151.67 189.26 C 152.53 189.22 153.20 188.48 153.15 187.61 L 153.10 186.58 C 153.05 185.71 152.31 185.05 151.45 185.09 C 150.58 185.14 149.92 185.88 149.96 186.74 Z M 150.02 187.78 L 150.07 188.81 C 150.12 189.67 150.86 190.34 151.72 190.29 C 152.58 190.25 153.25 189.51 153.20 188.65 L 153.15 187.61 C 153.10 186.75 152.37 186.08 151.50 186.13 C 150.64 186.17 149.97 186.91 150.02 187.78 Z M 150.07 188.81 L 150.13 189.88 C 150.18 190.74 150.92 191.40 151.78 191.35 C 152.64 191.31 153.31 190.57 153.26 189.71 L 153.20 188.64 C 153.15 187.78 152.42 187.12 151.55 187.16 C 150.69 187.21 150.03 187.95 150.07 188.81 Z M 150.13 189.88 L 150.19 190.92 C 150.25 191.78 150.99 192.44 151.85 192.39 C 152.71 192.34 153.37 191.60 153.32 190.73 L 153.26 189.70 C 153.21 188.84 152.47 188.18 151.60 188.23 C 150.74 188.28 150.08 189.02 150.13 189.88 Z M 150.20 190.93 L 150.27 191.93 C 150.32 192.79 151.07 193.44 151.93 193.38 C 152.79 193.32 153.44 192.58 153.38 191.72 L 153.32 190.72 C 153.26 189.86 152.51 189.21 151.65 189.27 C 150.79 189.33 150.14 190.07 150.20 190.93 Z M 150.27 191.95 L 150.35 192.91 C 150.42 193.77 151.18 194.41 152.04 194.33 C 152.90 194.26 153.53 193.51 153.46 192.65 L 153.38 191.69 C 153.31 190.83 152.55 190.19 151.69 190.27 C 150.83 190.34 150.20 191.09 150.27 191.95 Z M 150.35 192.94 L 150.46 193.90 C 150.55 194.76 151.32 195.38 152.17 195.29 C 153.03 195.20 153.65 194.43 153.56 193.57 L 153.46 192.61 C 153.37 191.75 152.60 191.13 151.74 191.23 C 150.88 191.32 150.26 192.09 150.35 192.94 Z M 150.46 193.95 L 150.60 194.98 C 150.72 195.84 151.50 196.44 152.36 196.32 C 153.21 196.20 153.81 195.42 153.69 194.56 L 153.55 193.53 C 153.44 192.68 152.65 192.08 151.80 192.19 C 150.94 192.31 150.35 193.09 150.46 193.95 Z M 150.61 195.02 L 150.77 196.00 C 150.90 196.85 151.70 197.43 152.55 197.29 C 153.41 197.16 153.98 196.36 153.85 195.51 L 153.69 194.52 C 153.55 193.67 152.75 193.10 151.90 193.23 C 151.05 193.37 150.47 194.17 150.61 195.02 Z M 150.77 196.03 L 150.94 196.98 C 151.09 197.82 151.90 198.39 152.75 198.24 C 153.60 198.09 154.16 197.28 154.01 196.43 L 153.84 195.48 C 153.69 194.63 152.88 194.07 152.03 194.22 C 151.18 194.37 150.62 195.18 150.77 196.03 Z M 150.94 196.98 L 151.03 197.49 C 151.19 198.33 152.00 198.90 152.85 198.74 C 153.70 198.58 154.26 197.77 154.10 196.92 L 154.01 196.42 C 153.85 195.57 153.04 195.01 152.19 195.17 C 151.34 195.32 150.78 196.14 150.94 196.98 Z"
      fill="black"
      fill-rule="nonzero" /><path d="M 153.15 160.51 L 153.88 160.11 C 154.72 159.64 155.01 158.58 154.54 157.74 C 154.07 156.90 153.01 156.60 152.18 157.07 L 151.45 157.48 C 150.61 157.95 150.32 159.01 150.79 159.85 C 151.26 160.69 152.32 160.98 153.15 160.51 Z M 153.81 160.14 L 154.62 159.73 C 155.47 159.30 155.82 158.25 155.38 157.40 C 154.95 156.54 153.90 156.20 153.04 156.63 L 152.24 157.04 C 151.38 157.47 151.04 158.52 151.48 159.38 C 151.91 160.23 152.96 160.58 153.81 160.14 Z M 154.51 159.78 L 155.47 159.38 C 156.35 159.00 156.77 157.98 156.39 157.10 C 156.01 156.21 154.99 155.80 154.11 156.17 L 153.15 156.58 C 152.27 156.96 151.85 157.98 152.23 158.86 C 152.61 159.75 153.63 160.16 154.51 159.78 Z M 155.35 159.42 L 156.50 159.03 C 157.41 158.72 157.89 157.73 157.58 156.82 C 157.27 155.91 156.28 155.43 155.37 155.74 L 154.22 156.13 C 153.32 156.44 152.83 157.43 153.14 158.34 C 153.46 159.25 154.44 159.73 155.35 159.42 Z M 156.42 159.05 L 157.27 158.81 C 158.20 158.54 158.73 157.58 158.46 156.65 C 158.19 155.73 157.23 155.20 156.31 155.46 L 155.45 155.71 C 154.53 155.98 154.00 156.94 154.26 157.87 C 154.53 158.79 155.49 159.32 156.42 159.05 Z M 157.22 158.82 L 158.16 158.58 C 159.10 158.34 159.65 157.39 159.41 156.46 C 159.17 155.53 158.22 154.97 157.29 155.21 L 156.35 155.45 C 155.42 155.69 154.87 156.64 155.11 157.57 C 155.35 158.50 156.29 159.06 157.22 158.82 Z M 158.13 158.59 L 159.12 158.35 C 160.06 158.13 160.64 157.20 160.42 156.26 C 160.20 155.33 159.26 154.75 158.33 154.97 L 157.33 155.20 C 156.40 155.42 155.82 156.36 156.04 157.29 C 156.26 158.23 157.19 158.81 158.13 158.59 Z M 159.09 158.36 L 160.12 158.14 C 161.06 157.93 161.66 157.01 161.45 156.07 C 161.25 155.13 160.33 154.53 159.39 154.74 L 158.36 154.96 C 157.42 155.16 156.82 156.09 157.03 157.03 C 157.23 157.96 158.16 158.56 159.09 158.36 Z M 160.09 158.14 L 161.13 157.94 C 162.07 157.75 162.68 156.83 162.49 155.89 C 162.30 154.95 161.39 154.34 160.45 154.53 L 159.41 154.73 C 158.47 154.92 157.86 155.83 158.05 156.78 C 158.24 157.72 159.15 158.33 160.09 158.14 Z M 161.10 157.94 L 162.11 157.76 C 163.05 157.58 163.68 156.68 163.51 155.73 C 163.33 154.79 162.43 154.16 161.48 154.34 L 160.47 154.52 C 159.53 154.69 158.90 155.60 159.08 156.54 C 159.25 157.49 160.16 158.11 161.10 157.94 Z M 162.08 157.76 L 163.19 157.58 C 164.14 157.42 164.78 156.52 164.62 155.58 C 164.46 154.63 163.57 153.99 162.62 154.15 L 161.51 154.33 C 160.56 154.49 159.92 155.38 160.08 156.33 C 160.24 157.28 161.13 157.92 162.08 157.76 Z M 163.16 157.58 L 164.26 157.42 C 165.21 157.28 165.86 156.40 165.72 155.45 C 165.58 154.50 164.70 153.84 163.75 153.98 L 162.65 154.14 C 161.70 154.28 161.05 155.16 161.19 156.11 C 161.32 157.06 162.21 157.72 163.16 157.58 Z M 164.22 157.42 L 165.24 157.29 C 166.19 157.17 166.87 156.31 166.75 155.36 C 166.63 154.41 165.76 153.73 164.81 153.85 L 163.79 153.98 C 162.84 154.10 162.16 154.97 162.28 155.92 C 162.40 156.87 163.27 157.54 164.22 157.42 Z M 165.21 157.30 L 166.15 157.20 C 167.10 157.10 167.79 156.25 167.69 155.29 C 167.59 154.34 166.74 153.65 165.79 153.75 L 164.84 153.85 C 163.89 153.95 163.20 154.80 163.30 155.75 C 163.40 156.71 164.25 157.40 165.21 157.30 Z M 166.11 157.20 L 166.99 157.13 C 167.94 157.05 168.65 156.21 168.57 155.26 C 168.49 154.30 167.65 153.59 166.70 153.67 L 165.82 153.75 C 164.87 153.83 164.16 154.67 164.24 155.62 C 164.32 156.57 165.16 157.28 166.11 157.20 Z M 166.95 157.13 L 167.92 157.07 C 168.88 157.01 169.60 156.19 169.55 155.23 C 169.49 154.28 168.66 153.55 167.71 153.61 L 166.73 153.67 C 165.78 153.73 165.05 154.55 165.11 155.51 C 165.17 156.46 165.99 157.19 166.95 157.13 Z M 167.88 157.07 L 168.94 157.03 C 169.89 156.99 170.64 156.19 170.60 155.24 C 170.57 154.28 169.76 153.53 168.81 153.57 L 167.75 153.61 C 166.80 153.65 166.05 154.45 166.09 155.40 C 166.12 156.36 166.93 157.11 167.88 157.07 Z M 168.90 157.03 L 169.87 157.02 C 170.83 157.00 171.59 156.21 171.57 155.26 C 171.56 154.30 170.77 153.54 169.82 153.55 L 168.85 153.57 C 167.89 153.58 167.13 154.37 167.14 155.33 C 167.16 156.28 167.95 157.05 168.90 157.03 Z M 169.85 157.02 L 170.76 157.01 C 171.72 157.01 172.49 156.23 172.49 155.28 C 172.48 154.32 171.71 153.55 170.75 153.55 L 169.84 153.55 C 168.88 153.56 168.11 154.33 168.11 155.29 C 168.11 156.25 168.89 157.02 169.85 157.02 Z M 170.74 157.01 L 171.75 157.02 C 172.70 157.03 173.48 156.26 173.49 155.30 C 173.50 154.35 172.73 153.57 171.77 153.56 L 170.77 153.55 C 169.81 153.54 169.03 154.31 169.02 155.27 C 169.02 156.22 169.79 157.01 170.74 157.01 Z M 171.65 157.02 L 172.64 157.08 C 173.59 157.15 174.41 156.42 174.48 155.47 C 174.54 154.52 173.82 153.69 172.86 153.63 L 171.87 153.56 C 170.92 153.50 170.10 154.22 170.03 155.18 C 169.97 156.13 170.69 156.95 171.65 157.02 Z M 172.43 157.06 L 173.40 157.24 C 174.34 157.42 175.24 156.80 175.42 155.86 C 175.60 154.93 174.99 154.02 174.05 153.84 L 173.07 153.66 C 172.13 153.48 171.23 154.09 171.05 155.03 C 170.87 155.97 171.49 156.88 172.43 157.06 Z M 173.12 157.16 L 174.03 157.50 C 174.93 157.83 175.92 157.37 176.25 156.47 C 176.58 155.58 176.13 154.58 175.23 154.25 L 174.32 153.92 C 173.43 153.59 172.43 154.04 172.10 154.94 C 171.77 155.84 172.23 156.83 173.12 157.16 Z M 173.80 157.39 L 174.67 157.87 C 175.51 158.33 176.56 158.02 177.02 157.18 C 177.48 156.34 177.17 155.29 176.33 154.83 L 175.46 154.36 C 174.62 153.90 173.57 154.21 173.11 155.04 C 172.65 155.88 172.96 156.94 173.80 157.39 Z M 174.50 157.76 L 175.33 158.35 C 176.11 158.91 177.19 158.73 177.74 157.95 C 178.30 157.17 178.12 156.09 177.34 155.53 L 176.50 154.94 C 175.73 154.39 174.64 154.57 174.09 155.35 C 173.54 156.13 173.72 157.21 174.50 157.76 Z M 175.20 158.25 L 175.94 158.90 C 176.67 159.53 177.76 159.45 178.39 158.73 C 179.01 158.01 178.94 156.91 178.21 156.29 L 177.47 155.64 C 176.75 155.01 175.65 155.09 175.03 155.81 C 174.40 156.53 174.48 157.62 175.20 158.25 Z M 175.84 158.80 L 176.50 159.49 C 177.17 160.17 178.26 160.19 178.95 159.52 C 179.64 158.86 179.65 157.76 178.99 157.08 L 178.32 156.39 C 177.66 155.70 176.56 155.69 175.88 156.35 C 175.19 157.02 175.17 158.11 175.84 158.80 Z M 176.41 159.38 L 177.04 160.15 C 177.65 160.89 178.74 160.99 179.48 160.39 C 180.22 159.78 180.32 158.69 179.71 157.95 L 179.08 157.18 C 178.47 156.44 177.38 156.34 176.65 156.95 C 175.91 157.55 175.80 158.64 176.41 159.38 Z M 176.97 160.05 L 177.58 160.91 C 178.13 161.69 179.21 161.88 179.99 161.33 C 180.77 160.78 180.95 159.70 180.40 158.92 L 179.79 158.05 C 179.24 157.27 178.16 157.09 177.38 157.64 C 176.60 158.19 176.42 159.27 176.97 160.05 Z M 177.52 160.83 L 178.01 161.61 C 178.52 162.42 179.58 162.67 180.39 162.16 C 181.20 161.66 181.45 160.59 180.95 159.79 L 180.46 159.00 C 179.95 158.19 178.89 157.94 178.08 158.45 C 177.27 158.95 177.02 160.02 177.52 160.83 Z M 177.98 161.55 L 178.44 162.37 C 178.91 163.20 179.96 163.50 180.79 163.03 C 181.62 162.56 181.92 161.51 181.45 160.68 L 180.98 159.85 C 180.51 159.02 179.46 158.73 178.63 159.20 C 177.80 159.66 177.51 160.72 177.98 161.55 Z M 178.41 162.31 L 178.87 163.21 C 179.31 164.05 180.35 164.38 181.19 163.95 C 182.04 163.51 182.37 162.47 181.94 161.63 L 181.48 160.74 C 181.04 159.89 180.00 159.56 179.16 159.99 C 178.31 160.43 177.98 161.47 178.41 162.31 Z M 178.85 163.15 L 179.30 164.11 C 179.71 164.97 180.74 165.34 181.60 164.93 C 182.45 164.52 182.82 163.50 182.41 162.64 L 181.96 161.68 C 181.55 160.82 180.53 160.45 179.67 160.86 C 178.81 161.27 178.44 162.29 178.85 163.15 Z M 179.28 164.06 L 179.71 165.04 C 180.09 165.91 181.11 166.30 181.98 165.92 C 182.85 165.54 183.24 164.52 182.86 163.65 L 182.43 162.68 C 182.05 161.81 181.04 161.42 180.17 161.80 C 179.30 162.18 178.90 163.20 179.28 164.06 Z M 179.70 165.00 L 180.06 165.88 C 180.42 166.76 181.42 167.17 182.30 166.81 C 183.18 166.45 183.60 165.45 183.23 164.57 L 182.87 163.69 C 182.51 162.82 181.51 162.40 180.63 162.76 C 179.75 163.12 179.34 164.12 179.70 165.00 Z M 180.05 165.84 L 180.40 166.76 C 180.74 167.64 181.73 168.08 182.62 167.74 C 183.50 167.40 183.94 166.41 183.60 165.52 L 183.25 164.61 C 182.90 163.72 181.91 163.28 181.03 163.63 C 180.14 163.97 179.71 164.96 180.05 165.84 Z M 180.39 166.72 L 180.73 167.67 C 181.06 168.56 182.04 169.02 182.93 168.70 C 183.82 168.37 184.27 167.39 183.95 166.50 L 183.61 165.56 C 183.29 164.67 182.31 164.21 181.42 164.53 C 180.53 164.85 180.07 165.83 180.39 166.72 Z M 180.72 167.63 L 181.05 168.61 C 181.36 169.50 182.33 169.98 183.22 169.68 C 184.11 169.37 184.59 168.40 184.29 167.51 L 183.96 166.54 C 183.66 165.64 182.69 165.16 181.79 165.47 C 180.90 165.77 180.42 166.74 180.72 167.63 Z M 181.04 168.57 L 181.36 169.56 C 181.64 170.46 182.60 170.96 183.50 170.68 C 184.40 170.39 184.90 169.43 184.61 168.53 L 184.30 167.54 C 184.02 166.64 183.06 166.15 182.16 166.43 C 181.26 166.71 180.76 167.67 181.04 168.57 Z M 181.35 169.52 L 181.64 170.54 C 181.91 171.45 182.85 171.97 183.76 171.71 C 184.66 171.44 185.18 170.50 184.92 169.59 L 184.62 168.57 C 184.36 167.67 183.41 167.15 182.51 167.41 C 181.60 167.67 181.08 168.62 181.35 169.52 Z M 181.64 170.51 L 181.92 171.54 C 182.16 172.45 183.09 172.99 184.00 172.74 C 184.91 172.50 185.44 171.57 185.20 170.66 L 184.92 169.63 C 184.68 168.72 183.75 168.18 182.84 168.43 C 181.93 168.67 181.39 169.60 181.64 170.51 Z M 181.91 171.52 L 182.17 172.53 C 182.40 173.44 183.32 173.99 184.23 173.76 C 185.14 173.53 185.69 172.61 185.46 171.70 L 185.20 170.69 C 184.97 169.78 184.05 169.23 183.14 169.46 C 182.23 169.68 181.68 170.61 181.91 171.52 Z M 182.17 172.51 L 182.40 173.48 C 182.62 174.39 183.53 174.95 184.44 174.74 C 185.35 174.52 185.91 173.61 185.69 172.70 L 185.46 171.72 C 185.24 170.81 184.33 170.25 183.42 170.47 C 182.51 170.69 181.95 171.60 182.17 172.51 Z M 182.40 173.47 L 182.61 174.39 C 182.82 175.30 183.73 175.86 184.64 175.66 C 185.55 175.45 186.11 174.54 185.91 173.63 L 185.69 172.71 C 185.48 171.80 184.58 171.23 183.67 171.44 C 182.76 171.65 182.19 172.56 182.40 173.47 Z M 182.61 174.38 L 182.82 175.29 C 183.02 176.20 183.92 176.77 184.83 176.56 C 185.74 176.36 186.31 175.46 186.11 174.55 L 185.90 173.64 C 185.70 172.73 184.80 172.16 183.89 172.36 C 182.98 172.57 182.41 173.47 182.61 174.38 Z M 182.82 175.28 L 183.07 176.39 C 183.27 177.30 184.17 177.87 185.07 177.67 C 185.98 177.47 186.55 176.57 186.35 175.66 L 186.10 174.56 C 185.90 173.65 185.01 173.08 184.10 173.28 C 183.19 173.48 182.62 174.38 182.82 175.28 Z M 183.07 176.38 L 183.28 177.34 C 183.47 178.25 184.36 178.82 185.27 178.63 C 186.17 178.43 186.75 177.54 186.55 176.64 L 186.35 175.67 C 186.15 174.77 185.26 174.19 184.36 174.39 C 183.45 174.58 182.88 175.48 183.07 176.38 Z M 183.28 177.33 L 183.46 178.21 C 183.65 179.11 184.53 179.69 185.44 179.50 C 186.34 179.32 186.92 178.43 186.73 177.53 L 186.55 176.65 C 186.37 175.75 185.48 175.17 184.58 175.35 C 183.68 175.54 183.09 176.42 183.28 177.33 Z M 183.46 178.19 L 183.62 178.99 C 183.79 179.89 184.67 180.48 185.57 180.30 C 186.48 180.13 187.07 179.25 186.89 178.35 L 186.73 177.55 C 186.56 176.64 185.68 176.06 184.78 176.23 C 183.88 176.41 183.29 177.28 183.46 178.19 Z M 183.62 178.97 L 183.77 179.78 C 183.94 180.69 184.81 181.28 185.71 181.11 C 186.61 180.94 187.21 180.08 187.04 179.17 L 186.89 178.36 C 186.72 177.46 185.85 176.86 184.95 177.03 C 184.05 177.20 183.45 178.07 183.62 178.97 Z M 183.77 179.78 L 183.94 180.72 C 184.11 181.62 184.97 182.22 185.87 182.05 C 186.78 181.89 187.38 181.02 187.21 180.12 L 187.04 179.18 C 186.88 178.28 186.01 177.68 185.11 177.84 C 184.20 178.01 183.61 178.87 183.77 179.78 Z M 183.94 180.72 L 184.15 181.87 C 184.32 182.77 185.18 183.37 186.08 183.21 C 186.99 183.04 187.58 182.18 187.42 181.28 L 187.21 180.12 C 187.04 179.22 186.18 178.62 185.28 178.78 C 184.38 178.95 183.78 179.81 183.94 180.72 Z M 184.16 181.87 L 184.35 182.96 C 184.52 183.86 185.38 184.45 186.28 184.29 C 187.19 184.12 187.78 183.26 187.62 182.36 L 187.42 181.27 C 187.25 180.37 186.39 179.78 185.49 179.94 C 184.59 180.11 183.99 180.97 184.16 181.87 Z M 184.36 182.96 L 184.53 183.88 C 184.69 184.78 185.56 185.38 186.46 185.21 C 187.36 185.05 187.95 184.18 187.79 183.28 L 187.61 182.36 C 187.45 181.46 186.58 180.86 185.68 181.03 C 184.79 181.19 184.19 182.06 184.36 182.96 Z M 184.53 183.88 L 184.71 184.88 C 184.88 185.78 185.74 186.37 186.64 186.20 C 187.54 186.04 188.13 185.18 187.97 184.28 L 187.78 183.28 C 187.62 182.38 186.76 181.79 185.86 181.96 C 184.96 182.12 184.36 182.98 184.53 183.88 Z M 184.71 184.87 L 184.90 185.91 C 185.07 186.80 185.93 187.40 186.83 187.24 C 187.72 187.07 188.32 186.21 188.15 185.31 L 187.97 184.28 C 187.80 183.38 186.94 182.79 186.04 182.95 C 185.14 183.11 184.55 183.98 184.71 184.87 Z M 184.90 185.90 L 185.09 186.95 C 185.25 187.84 186.11 188.44 187.01 188.28 C 187.91 188.12 188.50 187.26 188.34 186.36 L 188.15 185.31 C 187.99 184.42 187.13 183.82 186.23 183.98 C 185.34 184.15 184.74 185.00 184.90 185.90 Z M 185.09 186.94 L 185.27 187.97 C 185.43 188.86 186.29 189.46 187.19 189.30 C 188.08 189.14 188.68 188.29 188.52 187.39 L 188.34 186.36 C 188.18 185.47 187.33 184.87 186.43 185.03 C 185.53 185.19 184.93 186.04 185.09 186.94 Z M 185.27 187.96 L 185.44 188.94 C 185.60 189.84 186.45 190.44 187.35 190.28 C 188.25 190.13 188.85 189.27 188.69 188.38 L 188.52 187.40 C 188.37 186.50 187.52 185.90 186.62 186.05 C 185.72 186.21 185.12 187.06 185.27 187.96 Z M 185.44 188.93 L 185.62 189.98 C 185.77 190.88 186.61 191.48 187.51 191.34 C 188.41 191.19 189.01 190.34 188.87 189.44 L 188.69 188.39 C 188.54 187.49 187.70 186.88 186.80 187.03 C 185.90 187.18 185.30 188.03 185.44 188.93 Z M 185.62 189.96 L 185.79 191.02 C 185.92 191.92 186.76 192.53 187.66 192.39 C 188.55 192.26 189.16 191.42 189.03 190.52 L 188.86 189.46 C 188.73 188.57 187.89 187.95 186.99 188.09 C 186.10 188.23 185.48 189.07 185.62 189.96 Z M 185.79 191.00 L 185.93 191.98 C 186.05 192.87 186.88 193.49 187.77 193.36 C 188.66 193.24 189.29 192.41 189.16 191.52 L 189.02 190.55 C 188.90 189.65 188.07 189.03 187.18 189.16 C 186.29 189.28 185.67 190.11 185.79 191.00 Z M 185.93 191.95 L 186.05 192.88 C 186.16 193.77 186.98 194.40 187.87 194.29 C 188.76 194.18 189.39 193.37 189.27 192.48 L 189.16 191.54 C 189.04 190.66 188.23 190.02 187.34 190.14 C 186.45 190.25 185.82 191.06 185.93 191.95 Z M 186.06 192.86 L 186.16 193.79 C 186.26 194.68 187.06 195.32 187.95 195.22 C 188.84 195.11 189.47 194.31 189.37 193.43 L 189.27 192.50 C 189.17 191.61 188.37 190.97 187.48 191.07 C 186.59 191.17 185.95 191.98 186.06 192.86 Z M 186.17 193.77 L 186.27 194.75 C 186.36 195.64 187.15 196.28 188.03 196.19 C 188.92 196.10 189.56 195.30 189.47 194.42 L 189.37 193.44 C 189.28 192.56 188.49 191.92 187.60 192.01 C 186.72 192.10 186.08 192.89 186.17 193.77 Z M 186.27 194.73 L 186.37 195.80 C 186.45 196.68 187.23 197.33 188.11 197.25 C 188.99 197.17 189.64 196.39 189.56 195.51 L 189.47 194.44 C 189.39 193.56 188.61 192.91 187.72 192.99 C 186.84 193.07 186.19 193.85 186.27 194.73 Z M 186.37 195.75 L 186.43 196.83 C 186.49 197.71 187.25 198.38 188.13 198.33 C 189.01 198.27 189.68 197.52 189.63 196.63 L 189.56 195.56 C 189.51 194.67 188.75 194.00 187.87 194.06 C 186.99 194.11 186.31 194.87 186.37 195.75 Z M 186.44 196.75 L 186.45 197.78 C 186.45 198.66 187.18 199.37 188.06 199.36 C 188.94 199.35 189.64 198.63 189.63 197.75 L 189.62 196.72 C 189.62 195.84 188.90 195.13 188.01 195.14 C 187.13 195.15 186.43 195.87 186.44 196.75 Z M 186.45 197.65 L 186.38 198.59 C 186.32 199.47 186.98 200.23 187.85 200.30 C 188.73 200.36 189.49 199.71 189.56 198.83 L 189.63 197.89 C 189.69 197.01 189.03 196.25 188.16 196.18 C 187.28 196.12 186.52 196.77 186.45 197.65 Z M 186.42 198.36 L 186.23 199.20 C 186.03 200.06 186.57 200.91 187.42 201.10 C 188.27 201.30 189.12 200.77 189.32 199.91 L 189.51 199.07 C 189.71 198.21 189.18 197.36 188.32 197.17 C 187.47 196.97 186.62 197.50 186.42 198.36 Z M 186.42 198.75 L 185.88 199.64 C 185.43 200.39 185.68 201.36 186.42 201.81 C 187.17 202.26 188.14 202.02 188.59 201.27 L 189.13 200.37 C 189.58 199.63 189.34 198.66 188.59 198.21 C 187.84 197.76 186.87 198.00 186.42 198.75 Z M 186.28 199.20 L 185.53 199.78 C 184.84 200.30 184.71 201.29 185.23 201.98 C 185.76 202.67 186.75 202.80 187.44 202.28 L 188.19 201.71 C 188.88 201.18 189.01 200.19 188.49 199.50 C 187.96 198.81 186.98 198.68 186.28 199.20 Z M 185.82 199.61 L 184.96 200.02 C 184.18 200.39 183.84 201.32 184.21 202.10 C 184.58 202.88 185.51 203.22 186.29 202.85 L 187.15 202.44 C 187.94 202.07 188.27 201.14 187.90 200.36 C 187.53 199.58 186.60 199.24 185.82 199.61 Z"
      fill="black"
      fill-rule="nonzero" /><path d="M 155.68 172.20 L 156.65 172.16 C 157.57 172.13 158.28 171.36 158.25 170.44 C 158.21 169.52 157.44 168.81 156.53 168.84 L 155.56 168.88 C 154.64 168.91 153.92 169.69 153.96 170.60 C 153.99 171.52 154.76 172.23 155.68 172.20 Z M 156.65 172.17 L 157.63 172.14 C 158.56 172.11 159.28 171.33 159.25 170.41 C 159.21 169.49 158.44 168.76 157.52 168.80 L 156.53 168.83 C 155.61 168.86 154.89 169.64 154.92 170.56 C 154.95 171.48 155.72 172.21 156.65 172.17 Z M 157.62 172.15 L 158.64 172.12 C 159.57 172.10 160.30 171.32 160.27 170.39 C 160.25 169.46 159.47 168.73 158.54 168.76 L 157.53 168.78 C 156.60 168.81 155.86 169.58 155.89 170.51 C 155.92 171.44 156.69 172.18 157.62 172.15 Z M 158.62 172.13 L 159.64 172.12 C 160.58 172.10 161.32 171.33 161.30 170.39 C 161.29 169.45 160.51 168.71 159.58 168.73 L 158.56 168.75 C 157.62 168.76 156.88 169.54 156.90 170.47 C 156.91 171.41 157.69 172.15 158.62 172.13 Z M 159.63 172.12 L 160.63 172.11 C 161.57 172.10 162.32 171.33 162.31 170.39 C 162.30 169.46 161.54 168.71 160.60 168.72 L 159.59 168.72 C 158.66 168.73 157.90 169.50 157.91 170.44 C 157.92 171.38 158.69 172.13 159.63 172.12 Z M 160.62 172.11 L 161.64 172.10 C 162.57 172.10 163.33 171.34 163.33 170.40 C 163.32 169.46 162.56 168.71 161.62 168.71 L 160.61 168.72 C 159.67 168.72 158.92 169.48 158.92 170.42 C 158.93 171.36 159.69 172.11 160.62 172.11 Z M 161.63 172.10 L 162.63 172.10 C 163.57 172.10 164.32 171.34 164.32 170.40 C 164.32 169.47 163.56 168.71 162.63 168.71 L 161.63 168.71 C 160.69 168.71 159.94 169.47 159.94 170.41 C 159.94 171.34 160.70 172.10 161.63 172.10 Z M 162.63 172.09 L 163.64 172.09 C 164.57 172.09 165.32 171.34 165.32 170.41 C 165.32 169.47 164.57 168.72 163.63 168.72 L 162.63 168.72 C 161.70 168.72 160.94 169.48 160.94 170.41 C 160.94 171.34 161.70 172.09 162.63 172.09 Z M 163.65 172.08 L 164.65 172.07 C 165.57 172.06 166.31 171.31 166.31 170.39 C 166.30 169.46 165.55 168.72 164.62 168.73 L 163.62 168.73 C 162.70 168.74 161.96 169.50 161.96 170.42 C 161.97 171.34 162.72 172.08 163.65 172.08 Z M 164.68 172.05 L 165.66 172.02 C 166.57 172.00 167.29 171.24 167.27 170.33 C 167.24 169.42 166.49 168.70 165.57 168.72 L 164.59 168.75 C 163.68 168.77 162.96 169.53 162.98 170.44 C 163.01 171.35 163.77 172.07 164.68 172.05 Z M 165.71 172.00 L 166.71 171.94 C 167.60 171.89 168.29 171.12 168.24 170.22 C 168.19 169.32 167.42 168.64 166.52 168.69 L 165.52 168.74 C 164.63 168.79 163.94 169.57 163.99 170.47 C 164.04 171.36 164.81 172.05 165.71 172.00 Z M 166.76 171.92 L 167.72 171.83 C 168.61 171.75 169.26 170.97 169.18 170.08 C 169.10 169.19 168.31 168.54 167.42 168.62 L 166.46 168.71 C 165.57 168.79 164.92 169.58 165.00 170.46 C 165.09 171.35 165.87 172.01 166.76 171.92 Z M 167.77 171.82 L 168.76 171.69 C 169.64 171.58 170.26 170.78 170.15 169.90 C 170.04 169.03 169.24 168.40 168.36 168.51 L 167.38 168.64 C 166.50 168.75 165.87 169.55 165.98 170.42 C 166.09 171.30 166.89 171.93 167.77 171.82 Z M 168.81 171.67 L 169.81 171.52 C 170.68 171.38 171.27 170.57 171.14 169.70 C 171.01 168.84 170.19 168.24 169.33 168.38 L 168.32 168.53 C 167.45 168.67 166.86 169.48 166.99 170.35 C 167.13 171.21 167.94 171.81 168.81 171.67 Z M 169.85 171.50 L 170.85 171.32 C 171.70 171.16 172.27 170.34 172.12 169.48 C 171.96 168.62 171.14 168.06 170.28 168.21 L 169.28 168.39 C 168.43 168.55 167.86 169.37 168.01 170.23 C 168.17 171.09 168.99 171.66 169.85 171.50 Z M 170.88 171.31 L 171.82 171.11 C 172.67 170.94 173.22 170.11 173.05 169.26 C 172.88 168.41 172.05 167.86 171.20 168.03 L 170.25 168.23 C 169.40 168.40 168.85 169.23 169.02 170.08 C 169.20 170.93 170.03 171.48 170.88 171.31 Z M 171.84 171.11 L 172.80 170.90 C 173.65 170.72 174.19 169.89 174.01 169.04 C 173.83 168.19 172.99 167.65 172.15 167.83 L 171.18 168.04 C 170.34 168.22 169.80 169.05 169.98 169.90 C 170.16 170.75 170.99 171.29 171.84 171.11 Z M 172.79 170.90 L 173.79 170.69 C 174.63 170.52 175.17 169.69 175.00 168.84 C 174.82 167.99 173.99 167.45 173.15 167.63 L 172.15 167.84 C 171.31 168.01 170.76 168.84 170.94 169.69 C 171.12 170.53 171.95 171.08 172.79 170.90 Z M 173.76 170.69 L 174.78 170.50 C 175.63 170.34 176.18 169.52 176.02 168.67 C 175.85 167.82 175.03 167.27 174.19 167.43 L 173.17 167.63 C 172.32 167.79 171.77 168.61 171.93 169.46 C 172.09 170.30 172.91 170.86 173.76 170.69 Z M 174.75 170.50 L 175.70 170.34 C 176.54 170.19 177.11 169.39 176.97 168.54 C 176.82 167.69 176.02 167.12 175.17 167.26 L 174.22 167.43 C 173.37 167.57 172.80 168.38 172.94 169.23 C 173.09 170.08 173.90 170.65 174.75 170.50 Z M 175.67 170.34 L 176.65 170.19 C 177.50 170.06 178.09 169.26 177.95 168.41 C 177.82 167.55 177.02 166.97 176.17 167.11 L 175.19 167.26 C 174.34 167.39 173.75 168.19 173.89 169.04 C 174.02 169.90 174.82 170.48 175.67 170.34 Z M 176.64 170.19 L 177.64 170.04 C 178.49 169.92 179.08 169.13 178.96 168.27 C 178.83 167.42 178.04 166.83 177.19 166.96 L 176.18 167.10 C 175.33 167.23 174.74 168.02 174.87 168.87 C 174.99 169.73 175.78 170.32 176.64 170.19 Z M 177.63 170.05 L 178.65 169.90 C 179.50 169.78 180.09 168.99 179.97 168.14 C 179.85 167.29 179.06 166.69 178.21 166.81 L 177.19 166.96 C 176.34 167.08 175.75 167.87 175.87 168.72 C 175.99 169.57 176.78 170.17 177.63 170.05 Z M 178.64 169.90 L 179.17 169.83 C 180.03 169.71 180.62 168.92 180.51 168.07 C 180.39 167.21 179.60 166.62 178.74 166.74 L 178.21 166.81 C 177.36 166.93 176.76 167.72 176.88 168.57 C 177.00 169.43 177.79 170.02 178.64 169.90 Z"
      fill="black"
      fill-rule="nonzero" /><path d="M 154.98 187.32 L 155.98 187.14 C 156.90 186.98 157.51 186.11 157.35 185.19 C 157.19 184.28 156.31 183.67 155.40 183.83 L 154.40 184.01 C 153.48 184.17 152.87 185.04 153.03 185.95 C 153.20 186.87 154.07 187.48 154.98 187.32 Z M 155.99 187.14 L 156.99 186.97 C 157.90 186.80 158.51 185.93 158.35 185.01 C 158.19 184.10 157.31 183.49 156.40 183.65 L 155.40 183.83 C 154.48 183.99 153.87 184.86 154.03 185.78 C 154.20 186.70 155.07 187.31 155.99 187.14 Z M 156.99 186.97 L 157.99 186.79 C 158.90 186.63 159.52 185.75 159.35 184.83 C 159.19 183.91 158.31 183.30 157.39 183.47 L 156.39 183.64 C 155.48 183.81 154.86 184.69 155.03 185.61 C 155.19 186.52 156.07 187.14 156.99 186.97 Z M 157.99 186.80 L 158.98 186.62 C 159.90 186.45 160.51 185.57 160.34 184.65 C 160.17 183.73 159.29 183.12 158.37 183.28 L 157.38 183.46 C 156.46 183.63 155.85 184.51 156.02 185.43 C 156.19 186.35 157.07 186.96 157.99 186.80 Z M 158.99 186.62 L 159.96 186.44 C 160.88 186.27 161.49 185.38 161.32 184.46 C 161.15 183.54 160.26 182.93 159.34 183.10 L 158.36 183.28 C 157.44 183.45 156.83 184.34 157.01 185.26 C 157.18 186.18 158.06 186.79 158.99 186.62 Z M 159.97 186.44 L 160.93 186.26 C 161.86 186.08 162.46 185.19 162.29 184.27 C 162.11 183.34 161.22 182.74 160.30 182.91 L 159.33 183.09 C 158.41 183.27 157.80 184.16 157.98 185.09 C 158.16 186.01 159.05 186.62 159.97 186.44 Z M 160.94 186.26 L 161.90 186.07 C 162.83 185.89 163.43 184.99 163.25 184.07 C 163.06 183.14 162.17 182.54 161.24 182.72 L 160.29 182.91 C 159.36 183.09 158.76 183.99 158.94 184.91 C 159.12 185.84 160.02 186.44 160.94 186.26 Z M 161.91 186.07 L 162.88 185.87 C 163.80 185.69 164.40 184.79 164.21 183.86 C 164.02 182.94 163.12 182.34 162.20 182.53 L 161.23 182.72 C 160.31 182.91 159.71 183.81 159.90 184.74 C 160.09 185.66 160.99 186.26 161.91 186.07 Z M 162.88 185.87 L 163.84 185.67 C 164.76 185.48 165.35 184.58 165.16 183.66 C 164.97 182.74 164.07 182.14 163.15 182.33 L 162.19 182.53 C 161.27 182.72 160.68 183.63 160.87 184.55 C 161.06 185.47 161.96 186.06 162.88 185.87 Z M 163.84 185.67 L 164.80 185.46 C 165.72 185.27 166.31 184.37 166.12 183.45 C 165.92 182.53 165.02 181.94 164.10 182.14 L 163.14 182.34 C 162.23 182.53 161.64 183.43 161.83 184.35 C 162.02 185.27 162.93 185.86 163.84 185.67 Z M 164.80 185.46 L 165.77 185.25 C 166.69 185.06 167.28 184.16 167.08 183.24 C 166.89 182.33 165.99 181.74 165.07 181.94 L 164.10 182.14 C 163.19 182.33 162.60 183.23 162.79 184.15 C 162.99 185.07 163.89 185.65 164.80 185.46 Z M 165.77 185.25 L 166.76 185.04 C 167.68 184.85 168.26 183.95 168.07 183.04 C 167.88 182.12 166.98 181.54 166.06 181.73 L 165.07 181.94 C 164.16 182.13 163.57 183.03 163.77 183.94 C 163.96 184.86 164.86 185.44 165.77 185.25 Z M 166.76 185.04 L 167.77 184.83 C 168.69 184.64 169.28 183.75 169.09 182.83 C 168.90 181.92 168.00 181.33 167.09 181.52 L 166.07 181.73 C 165.16 181.92 164.57 182.82 164.76 183.73 C 164.95 184.64 165.84 185.23 166.76 185.04 Z M 167.77 184.83 L 168.77 184.62 C 169.68 184.44 170.27 183.55 170.08 182.64 C 169.90 181.73 169.01 181.14 168.10 181.32 L 167.10 181.53 C 166.19 181.71 165.60 182.60 165.78 183.51 C 165.97 184.42 166.86 185.01 167.77 184.83 Z M 168.76 184.61 L 169.76 184.41 C 170.67 184.23 171.26 183.35 171.08 182.45 C 170.90 181.54 170.02 180.96 169.11 181.14 L 168.11 181.34 C 167.20 181.51 166.61 182.39 166.79 183.30 C 166.97 184.20 167.85 184.79 168.76 184.61 Z M 169.75 184.40 L 170.77 184.20 C 171.67 184.03 172.25 183.16 172.08 182.26 C 171.91 181.36 171.04 180.78 170.14 180.95 L 169.12 181.15 C 168.22 181.32 167.64 182.19 167.81 183.09 C 167.99 183.99 168.85 184.57 169.75 184.40 Z M 170.76 184.19 L 171.77 184.00 C 172.66 183.83 173.25 182.97 173.08 182.08 C 172.91 181.19 172.06 180.60 171.16 180.77 L 170.15 180.96 C 169.26 181.13 168.67 181.99 168.84 182.88 C 169.01 183.77 169.87 184.36 170.76 184.19 Z M 171.76 183.99 L 172.76 183.81 C 173.64 183.64 174.23 182.80 174.07 181.91 C 173.91 181.03 173.06 180.44 172.17 180.60 L 171.18 180.78 C 170.29 180.95 169.70 181.79 169.87 182.68 C 170.03 183.56 170.88 184.15 171.76 183.99 Z M 172.75 183.79 L 173.71 183.62 C 174.59 183.47 175.18 182.63 175.02 181.75 C 174.87 180.87 174.03 180.29 173.15 180.44 L 172.19 180.61 C 171.31 180.77 170.72 181.61 170.88 182.48 C 171.03 183.36 171.87 183.95 172.75 183.79 Z M 173.70 183.61 L 174.62 183.46 C 175.49 183.31 176.08 182.48 175.93 181.61 C 175.79 180.74 174.96 180.15 174.09 180.30 L 173.17 180.45 C 172.29 180.60 171.71 181.43 171.85 182.30 C 172.00 183.17 172.83 183.76 173.70 183.61 Z M 174.60 183.45 L 175.68 183.28 C 176.55 183.14 177.14 182.33 177.00 181.46 C 176.86 180.59 176.05 180.00 175.18 180.14 L 174.11 180.31 C 173.24 180.44 172.65 181.26 172.78 182.13 C 172.92 182.99 173.74 183.59 174.60 183.45 Z M 175.66 183.28 L 176.72 183.12 C 177.59 182.99 178.19 182.19 178.06 181.33 C 177.94 180.46 177.13 179.86 176.27 179.99 L 175.20 180.14 C 174.34 180.27 173.74 181.07 173.86 181.94 C 173.99 182.80 174.79 183.40 175.66 183.28 Z M 176.70 183.12 L 177.69 182.99 C 178.56 182.87 179.17 182.08 179.05 181.21 C 178.94 180.35 178.14 179.74 177.28 179.86 L 176.29 179.99 C 175.42 180.10 174.82 180.90 174.93 181.76 C 175.05 182.63 175.84 183.23 176.70 183.12 Z M 177.68 182.98 L 178.62 182.87 C 179.48 182.76 180.09 181.98 179.98 181.11 C 179.88 180.25 179.09 179.64 178.23 179.75 L 177.29 179.86 C 176.43 179.97 175.82 180.75 175.93 181.61 C 176.03 182.48 176.82 183.09 177.68 182.98 Z M 178.61 182.86 L 179.51 182.76 C 180.37 182.66 180.98 181.88 180.88 181.02 C 180.78 180.16 180.01 179.54 179.15 179.64 L 178.24 179.75 C 177.38 179.85 176.77 180.63 176.87 181.49 C 176.97 182.35 177.75 182.96 178.61 182.86 Z M 179.51 182.75 L 179.93 182.70 C 180.79 182.61 181.41 181.83 181.31 180.97 C 181.21 180.12 180.43 179.50 179.58 179.60 L 179.15 179.65 C 178.29 179.75 177.68 180.52 177.78 181.38 C 177.87 182.24 178.65 182.85 179.51 182.75 Z"
      fill="black"
      fill-rule="nonzero" /><path d="M 152.16 200.68 L 152.60 201.69 C 152.98 202.57 154.01 202.98 154.89 202.60 C 155.78 202.21 156.18 201.19 155.80 200.30 L 155.36 199.30 C 154.98 198.41 153.95 198.00 153.07 198.39 C 152.18 198.77 151.78 199.80 152.16 200.68 Z M 152.61 201.73 L 153.06 202.70 C 153.47 203.57 154.51 203.95 155.39 203.54 C 156.26 203.13 156.64 202.10 156.23 201.22 L 155.78 200.26 C 155.37 199.38 154.33 199.01 153.46 199.41 C 152.59 199.82 152.21 200.86 152.61 201.73 Z M 153.11 202.79 L 153.59 203.67 C 154.05 204.52 155.11 204.84 155.96 204.38 C 156.81 203.92 157.12 202.86 156.66 202.01 L 156.18 201.13 C 155.72 200.28 154.66 199.96 153.82 200.42 C 152.97 200.88 152.65 201.94 153.11 202.79 Z M 153.68 203.83 L 154.20 204.59 C 154.75 205.38 155.83 205.59 156.63 205.04 C 157.43 204.50 157.63 203.41 157.09 202.61 L 156.57 201.85 C 156.02 201.06 154.93 200.85 154.14 201.40 C 153.34 201.94 153.14 203.03 153.68 203.83 Z M 154.40 204.83 L 155.04 205.48 C 155.72 206.17 156.83 206.17 157.51 205.49 C 158.20 204.81 158.21 203.71 157.53 203.02 L 156.89 202.37 C 156.21 201.68 155.10 201.68 154.41 202.36 C 153.73 203.04 153.72 204.14 154.40 204.83 Z M 155.40 205.76 L 156.22 206.24 C 157.06 206.73 158.13 206.46 158.62 205.62 C 159.11 204.79 158.83 203.72 158.00 203.23 L 157.17 202.74 C 156.34 202.25 155.27 202.53 154.78 203.36 C 154.29 204.19 154.56 205.27 155.40 205.76 Z M 156.61 206.41 L 157.54 206.69 C 158.46 206.97 159.44 206.44 159.72 205.51 C 159.99 204.59 159.47 203.61 158.54 203.33 L 157.61 203.06 C 156.69 202.78 155.71 203.31 155.43 204.23 C 155.16 205.16 155.68 206.14 156.61 206.41 Z M 157.81 206.75 L 158.84 206.89 C 159.80 207.01 160.68 206.34 160.81 205.38 C 160.93 204.42 160.26 203.54 159.30 203.41 L 158.27 203.27 C 157.31 203.15 156.43 203.82 156.30 204.78 C 156.18 205.74 156.85 206.62 157.81 206.75 Z M 158.98 206.90 L 159.96 206.95 C 160.93 207.00 161.75 206.26 161.81 205.29 C 161.86 204.33 161.11 203.50 160.15 203.45 L 159.16 203.40 C 158.19 203.35 157.37 204.09 157.32 205.06 C 157.27 206.02 158.01 206.85 158.98 206.90 Z M 160.04 206.95 L 161.05 206.95 C 162.01 206.96 162.80 206.18 162.81 205.22 C 162.81 204.25 162.04 203.46 161.07 203.46 L 160.07 203.45 C 159.10 203.44 158.31 204.22 158.31 205.19 C 158.30 206.15 159.08 206.94 160.04 206.95 Z M 161.12 206.95 L 162.14 206.92 C 163.10 206.88 163.86 206.08 163.83 205.11 C 163.79 204.15 162.99 203.40 162.02 203.43 L 161.00 203.46 C 160.04 203.49 159.28 204.30 159.32 205.26 C 159.35 206.23 160.16 206.98 161.12 206.95 Z M 162.21 206.91 L 163.22 206.83 C 164.17 206.76 164.90 205.93 164.83 204.97 C 164.76 204.01 163.92 203.29 162.96 203.36 L 161.95 203.44 C 161.00 203.51 160.28 204.34 160.35 205.30 C 160.42 206.26 161.25 206.98 162.21 206.91 Z M 163.29 206.82 L 164.31 206.70 C 165.26 206.59 165.94 205.73 165.83 204.78 C 165.72 203.83 164.86 203.15 163.91 203.26 L 162.89 203.38 C 161.94 203.49 161.26 204.35 161.37 205.30 C 161.48 206.25 162.34 206.93 163.29 206.82 Z M 164.39 206.68 L 165.40 206.51 C 166.34 206.36 166.97 205.47 166.82 204.54 C 166.67 203.60 165.78 202.96 164.85 203.12 L 163.84 203.28 C 162.90 203.44 162.26 204.32 162.42 205.26 C 162.57 206.19 163.45 206.83 164.39 206.68 Z M 165.47 206.48 L 166.44 206.28 C 167.36 206.09 167.95 205.19 167.76 204.27 C 167.57 203.35 166.67 202.76 165.74 202.95 L 164.78 203.15 C 163.86 203.34 163.27 204.24 163.46 205.16 C 163.65 206.08 164.55 206.67 165.47 206.48 Z M 166.49 206.25 L 167.42 206.02 C 168.33 205.80 168.88 204.89 168.66 203.99 C 168.44 203.08 167.53 202.53 166.63 202.75 L 165.69 202.98 C 164.79 203.20 164.23 204.11 164.45 205.01 C 164.67 205.92 165.58 206.47 166.49 206.25 Z M 167.46 206.00 L 168.41 205.74 C 169.30 205.50 169.82 204.59 169.58 203.70 C 169.34 202.81 168.43 202.28 167.54 202.52 L 166.59 202.78 C 165.70 203.02 165.17 203.93 165.41 204.82 C 165.65 205.71 166.57 206.24 167.46 206.00 Z M 168.43 205.72 L 169.39 205.44 C 170.26 205.19 170.77 204.27 170.52 203.40 C 170.26 202.52 169.34 202.01 168.47 202.27 L 167.51 202.54 C 166.64 202.80 166.13 203.71 166.38 204.59 C 166.64 205.47 167.55 205.97 168.43 205.72 Z M 169.40 205.43 L 170.36 205.14 C 171.23 204.87 171.72 203.96 171.45 203.09 C 171.19 202.22 170.27 201.73 169.41 201.99 L 168.45 202.28 C 167.58 202.55 167.09 203.46 167.36 204.33 C 167.62 205.20 168.54 205.69 169.40 205.43 Z M 170.37 205.12 L 171.33 204.82 C 172.19 204.55 172.67 203.64 172.40 202.78 C 172.14 201.92 171.22 201.44 170.36 201.71 L 169.40 202.01 C 168.54 202.28 168.06 203.19 168.33 204.05 C 168.60 204.91 169.51 205.39 170.37 205.12 Z M 171.34 204.80 L 172.27 204.51 C 173.12 204.24 173.59 203.33 173.32 202.48 C 173.05 201.63 172.14 201.16 171.29 201.43 L 170.36 201.72 C 169.51 201.99 169.04 202.90 169.31 203.75 C 169.58 204.60 170.49 205.07 171.34 204.80 Z M 172.27 204.50 L 173.22 204.19 C 174.06 203.92 174.53 203.02 174.26 202.17 C 173.99 201.33 173.08 200.86 172.24 201.13 L 171.29 201.44 C 170.45 201.71 169.98 202.61 170.25 203.46 C 170.52 204.30 171.43 204.77 172.27 204.50 Z M 173.22 204.18 L 174.18 203.86 C 175.02 203.59 175.48 202.69 175.21 201.85 C 174.93 201.02 174.03 200.56 173.20 200.83 L 172.24 201.15 C 171.40 201.42 170.94 202.32 171.21 203.16 C 171.49 203.99 172.39 204.45 173.22 204.18 Z M 174.19 203.85 L 175.15 203.53 C 175.98 203.26 176.43 202.36 176.16 201.53 C 175.88 200.70 174.99 200.25 174.16 200.53 L 173.19 200.85 C 172.36 201.12 171.91 202.02 172.19 202.85 C 172.46 203.68 173.36 204.13 174.19 203.85 Z M 175.16 203.52 L 176.10 203.20 C 176.93 202.93 177.37 202.03 177.09 201.21 C 176.82 200.38 175.92 199.94 175.10 200.22 L 174.15 200.54 C 173.33 200.81 172.88 201.71 173.16 202.53 C 173.44 203.36 174.33 203.80 175.16 203.52 Z M 176.11 203.20 L 177.06 202.87 C 177.88 202.59 178.32 201.70 178.04 200.88 C 177.75 200.06 176.86 199.62 176.04 199.90 L 175.09 200.22 C 174.27 200.50 173.83 201.40 174.11 202.22 C 174.39 203.04 175.29 203.48 176.11 203.20 Z M 177.06 202.87 L 178.01 202.54 C 178.83 202.26 179.26 201.36 178.98 200.54 C 178.69 199.73 177.80 199.29 176.98 199.58 L 176.03 199.90 C 175.22 200.19 174.78 201.08 175.07 201.90 C 175.35 202.72 176.24 203.15 177.06 202.87 Z M 178.01 202.54 L 178.96 202.20 C 179.77 201.92 180.20 201.03 179.92 200.21 C 179.63 199.39 178.74 198.96 177.93 199.25 L 176.98 199.58 C 176.16 199.87 175.73 200.76 176.02 201.57 C 176.30 202.39 177.20 202.82 178.01 202.54 Z M 178.96 202.20 L 179.92 201.86 C 180.73 201.57 181.16 200.68 180.87 199.87 C 180.59 199.05 179.69 198.63 178.88 198.91 L 177.92 199.25 C 177.11 199.54 176.68 200.43 176.97 201.25 C 177.26 202.06 178.15 202.49 178.96 202.20 Z M 179.93 201.86 L 180.87 201.52 C 181.68 201.23 182.11 200.34 181.82 199.52 C 181.53 198.71 180.63 198.29 179.82 198.58 L 178.87 198.92 C 178.06 199.21 177.64 200.10 177.93 200.91 C 178.22 201.73 179.11 202.15 179.93 201.86 Z M 180.88 201.52 L 181.81 201.18 C 182.62 200.89 183.04 199.99 182.75 199.18 C 182.45 198.37 181.56 197.95 180.75 198.24 L 179.81 198.58 C 179.00 198.88 178.58 199.77 178.88 200.58 C 179.17 201.39 180.07 201.81 180.88 201.52 Z M 181.82 201.18 L 182.75 200.83 C 183.56 200.54 183.97 199.64 183.67 198.83 C 183.37 198.02 182.48 197.61 181.67 197.90 L 180.74 198.25 C 179.93 198.55 179.51 199.44 179.81 200.25 C 180.11 201.06 181.01 201.48 181.82 201.18 Z M 182.76 200.83 L 183.70 200.48 C 184.51 200.17 184.92 199.27 184.61 198.47 C 184.31 197.66 183.41 197.25 182.60 197.55 L 181.66 197.91 C 180.85 198.21 180.44 199.11 180.74 199.92 C 181.05 200.73 181.95 201.13 182.76 200.83 Z M 183.71 200.47 L 184.64 200.12 C 185.45 199.81 185.85 198.91 185.54 198.10 C 185.24 197.30 184.34 196.89 183.53 197.20 L 182.60 197.56 C 181.79 197.86 181.39 198.76 181.69 199.57 C 182.00 200.38 182.90 200.78 183.71 200.47 Z M 184.64 200.12 L 185.57 199.76 C 186.38 199.45 186.78 198.55 186.47 197.75 C 186.16 196.94 185.26 196.54 184.45 196.85 L 183.53 197.20 C 182.72 197.51 182.32 198.41 182.63 199.22 C 182.94 200.02 183.84 200.43 184.64 200.12 Z M 185.57 199.76 L 186.50 199.40 C 187.30 199.09 187.71 198.19 187.40 197.39 C 187.09 196.58 186.18 196.18 185.38 196.49 L 184.45 196.85 C 183.65 197.16 183.24 198.06 183.55 198.86 C 183.86 199.67 184.77 200.07 185.57 199.76 Z M 186.50 199.40 L 187.43 199.04 C 188.24 198.74 188.64 197.83 188.33 197.03 C 188.02 196.22 187.12 195.82 186.31 196.13 L 185.38 196.49 C 184.57 196.80 184.17 197.70 184.48 198.51 C 184.79 199.31 185.70 199.71 186.50 199.40 Z M 187.43 199.04 L 188.37 198.69 C 189.17 198.38 189.57 197.47 189.26 196.67 C 188.95 195.86 188.05 195.46 187.25 195.77 L 186.31 196.13 C 185.51 196.44 185.11 197.34 185.42 198.15 C 185.73 198.95 186.63 199.35 187.43 199.04 Z M 188.37 198.69 L 189.30 198.33 C 190.10 198.02 190.51 197.11 190.20 196.31 C 189.89 195.50 188.98 195.10 188.18 195.41 L 187.25 195.77 C 186.44 196.08 186.04 196.98 186.35 197.79 C 186.66 198.59 187.56 199.00 188.37 198.69 Z M 189.30 198.33 L 189.47 198.26 C 190.27 197.95 190.67 197.05 190.36 196.25 C 190.05 195.44 189.15 195.04 188.35 195.35 L 188.18 195.41 C 187.37 195.72 186.97 196.63 187.28 197.43 C 187.59 198.23 188.50 198.64 189.30 198.33 Z"
      fill="black"
      fill-rule="nonzero" /></svg>