<svg xmlns="http://www.w3.org/2000/svg" width="300" height="300" viewBox="0 0 300 300">
<path d="M 163.28 110.55 L 163.05 111.49 C 162.81 112.46 163.41 113.44 164.38 113.67 C 165.35 113.91 166.33 113.31 166.56 112.34 L 166.79 111.40 C 167.03 110.43 166.43 109.45 165.46 109.22 C 164.49 108.98 163.51 109.58 163.28 110.55 Z M 162.99 111.48 L 162.76 112.43 C 162.52 113.43 163.14 114.44 164.14 114.68 C 165.14 114.92 166.15 114.30 166.39 113.30 L 166.62 112.35 C 166.86 111.35 166.24 110.34 165.24 110.10 C 164.24 109.86 163.23 110.48 162.99 111.48 Z M 162.71 112.43 L 162.48 113.39 C 162.24 114.42 162.88 115.46 163.91 115.70 C 164.95 115.94 165.98 115.30 166.22 114.27 L 166.45 113.30 C 166.69 112.27 166.05 111.23 165.02 110.99 C 163.98 110.75 162.95 111.39 162.71 112.43 Z M 162.42 113.39 L 162.20 114.38 C 161.96 115.45 162.63 116.51 163.69 116.75 C 164.76 116.99 165.82 116.32 166.06 115.25 L 166.28 114.26 C 166.52 113.20 165.86 112.14 164.79 111.90 C 163.72 111.66 162.66 112.33 162.42 113.39 Z M 162.14 114.39 L 161.92 115.40 C 161.68 116.50 162.38 117.59 163.48 117.82 C 164.58 118.06 165.66 117.36 165.90 116.26 L 166.12 115.24 C 166.36 114.14 165.66 113.06 164.56 112.82 C 163.46 112.59 162.37 113.29 162.14 114.39 Z M 161.88 115.42 L 161.67 116.42 C 161.45 117.54 162.17 118.64 163.29 118.87 C 164.41 119.10 165.51 118.37 165.74 117.25 L 165.94 116.25 C 166.17 115.12 165.45 114.03 164.32 113.80 C 163.20 113.57 162.11 114.30 161.88 115.42 Z M 161.66 116.44 L 161.47 117.45 C 161.25 118.58 161.98 119.67 163.11 119.89 C 164.24 120.11 165.33 119.37 165.55 118.24 L 165.75 117.23 C 165.97 116.11 165.23 115.01 164.10 114.79 C 162.98 114.58 161.88 115.31 161.66 116.44 Z M 161.46 117.46 L 161.27 118.48 C 161.06 119.60 161.81 120.69 162.94 120.90 C 164.06 121.11 165.15 120.37 165.36 119.24 L 165.55 118.23 C 165.76 117.10 165.02 116.01 163.89 115.80 C 162.76 115.59 161.68 116.33 161.46 117.46 Z M 161.27 118.49 L 161.09 119.48 C 160.88 120.61 161.63 121.69 162.76 121.90 C 163.90 122.11 164.98 121.36 165.18 120.23 L 165.37 119.23 C 165.57 118.10 164.82 117.02 163.69 116.81 C 162.56 116.61 161.48 117.36 161.27 118.49 Z M 161.09 119.49 L 160.92 120.45 C 160.72 121.58 161.47 122.66 162.60 122.86 C 163.73 123.06 164.81 122.31 165.02 121.18 L 165.19 120.22 C 165.39 119.09 164.63 118.01 163.50 117.81 C 162.37 117.60 161.29 118.36 161.09 119.49 Z M 160.92 120.45 L 160.75 121.41 C 160.55 122.54 161.31 123.62 162.44 123.82 C 163.57 124.02 164.65 123.26 164.85 122.13 L 165.02 121.17 C 165.22 120.04 164.46 118.96 163.33 118.76 C 162.20 118.56 161.12 119.32 160.92 120.45 Z M 160.75 121.41 L 160.56 122.46 C 160.37 123.59 161.12 124.67 162.26 124.87 C 163.39 125.06 164.47 124.31 164.67 123.17 L 164.85 122.13 C 165.05 121.00 164.29 119.92 163.16 119.72 C 162.02 119.52 160.95 120.28 160.75 121.41 Z M 160.56 122.46 L 160.39 123.44 C 160.20 124.57 160.96 125.65 162.09 125.84 C 163.22 126.04 164.30 125.28 164.50 124.15 L 164.67 123.17 C 164.86 122.04 164.10 120.96 162.97 120.76 C 161.84 120.57 160.76 121.33 160.56 122.46 Z M 160.39 123.44 L 160.23 124.39 C 160.04 125.52 160.80 126.59 161.93 126.79 C 163.06 126.99 164.14 126.23 164.33 125.09 L 164.50 124.15 C 164.69 123.02 163.93 121.94 162.80 121.74 C 161.67 121.55 160.59 122.31 160.39 123.44 Z M 160.23 124.39 L 160.07 125.33 C 159.87 126.47 160.63 127.54 161.77 127.74 C 162.90 127.93 163.98 127.17 164.17 126.04 L 164.33 125.09 C 164.53 123.96 163.77 122.88 162.64 122.69 C 161.50 122.49 160.43 123.25 160.23 124.39 Z M 160.07 125.33 L 159.91 126.29 C 159.71 127.42 160.47 128.50 161.60 128.69 C 162.74 128.88 163.81 128.12 164.01 126.99 L 164.17 126.04 C 164.36 124.91 163.60 123.83 162.47 123.64 C 161.34 123.44 160.26 124.20 160.07 125.33 Z M 159.91 126.29 L 159.74 127.27 C 159.54 128.40 160.30 129.47 161.43 129.67 C 162.57 129.86 163.64 129.10 163.84 127.97 L 164.00 126.99 C 164.20 125.86 163.44 124.79 162.31 124.59 C 161.18 124.40 160.10 125.16 159.91 126.29 Z M 159.74 127.26 L 159.57 128.26 C 159.37 129.39 160.13 130.46 161.26 130.66 C 162.39 130.86 163.47 130.10 163.66 128.97 L 163.83 127.97 C 164.03 126.84 163.27 125.77 162.14 125.57 C 161.01 125.38 159.94 126.13 159.74 127.26 Z M 159.57 128.26 L 159.40 129.26 C 159.20 130.39 159.96 131.46 161.08 131.66 C 162.21 131.86 163.29 131.10 163.48 129.97 L 163.66 128.97 C 163.86 127.84 163.10 126.77 161.97 126.57 C 160.84 126.37 159.77 127.13 159.57 128.26 Z M 159.40 129.26 L 159.22 130.25 C 159.03 131.38 159.78 132.45 160.91 132.65 C 162.03 132.85 163.11 132.10 163.31 130.97 L 163.48 129.97 C 163.68 128.85 162.93 127.77 161.80 127.57 C 160.67 127.37 159.60 128.13 159.40 129.26 Z M 159.23 130.25 L 159.05 131.23 C 158.85 132.36 159.60 133.43 160.73 133.63 C 161.85 133.83 162.93 133.08 163.13 131.95 L 163.30 130.97 C 163.50 129.85 162.75 128.77 161.63 128.57 C 160.50 128.37 159.43 129.12 159.23 130.25 Z M 159.05 131.23 L 158.88 132.21 C 158.68 133.33 159.43 134.41 160.55 134.61 C 161.68 134.81 162.75 134.06 162.95 132.93 L 163.13 131.96 C 163.33 130.83 162.58 129.76 161.45 129.56 C 160.33 129.35 159.25 130.10 159.05 131.23 Z M 158.88 132.21 L 158.71 133.19 C 158.51 134.31 159.26 135.39 160.38 135.59 C 161.50 135.79 162.58 135.04 162.78 133.91 L 162.95 132.93 C 163.15 131.81 162.40 130.73 161.28 130.54 C 160.15 130.34 159.08 131.08 158.88 132.21 Z M 158.71 133.19 L 158.53 134.19 C 158.34 135.31 159.09 136.38 160.21 136.58 C 161.33 136.77 162.40 136.02 162.60 134.90 L 162.78 133.91 C 162.97 132.79 162.22 131.72 161.10 131.52 C 159.98 131.32 158.91 132.07 158.71 133.19 Z M 158.54 134.19 L 158.37 135.17 C 158.17 136.29 158.92 137.36 160.05 137.55 C 161.17 137.75 162.24 136.99 162.43 135.87 L 162.60 134.90 C 162.79 133.77 162.04 132.71 160.92 132.51 C 159.80 132.32 158.73 133.07 158.54 134.19 Z M 158.37 135.17 L 158.20 136.16 C 158.01 137.27 158.77 138.34 159.88 138.53 C 161.00 138.72 162.07 137.97 162.26 136.85 L 162.43 135.87 C 162.62 134.75 161.86 133.68 160.74 133.49 C 159.62 133.30 158.56 134.06 158.37 135.17 Z M 158.21 136.16 L 158.04 137.15 C 157.85 138.27 158.60 139.32 159.72 139.51 C 160.84 139.70 161.90 138.95 162.09 137.83 L 162.25 136.84 C 162.44 135.73 161.69 134.67 160.57 134.48 C 159.46 134.29 158.40 135.04 158.21 136.16 Z M 158.05 137.15 L 157.88 138.14 C 157.69 139.26 158.44 140.31 159.56 140.50 C 160.67 140.69 161.73 139.94 161.91 138.82 L 162.08 137.83 C 162.27 136.72 161.52 135.66 160.40 135.47 C 159.29 135.29 158.23 136.04 158.05 137.15 Z M 157.88 138.15 L 157.72 139.14 C 157.53 140.25 158.28 141.30 159.39 141.49 C 160.50 141.68 161.55 140.93 161.74 139.82 L 161.91 138.82 C 162.09 137.71 161.35 136.66 160.24 136.47 C 159.12 136.29 158.07 137.03 157.88 138.15 Z M 157.72 139.14 L 157.56 140.13 C 157.37 141.24 158.11 142.29 159.22 142.47 C 160.33 142.66 161.38 141.92 161.57 140.81 L 161.73 139.82 C 161.92 138.71 161.18 137.66 160.07 137.47 C 158.96 137.28 157.91 138.03 157.72 139.14 Z M 157.56 140.13 L 157.39 141.12 C 157.21 142.22 157.95 143.27 159.05 143.45 C 160.16 143.64 161.20 142.90 161.39 141.80 L 161.56 140.81 C 161.75 139.71 161.00 138.66 159.90 138.47 C 158.80 138.28 157.75 139.03 157.56 140.13 Z M 157.40 141.12 L 157.23 142.10 C 157.05 143.20 157.78 144.24 158.88 144.43 C 159.98 144.62 161.03 143.88 161.21 142.78 L 161.38 141.80 C 161.57 140.70 160.83 139.65 159.73 139.47 C 158.63 139.28 157.59 140.02 157.40 141.12 Z M 157.24 142.10 L 157.07 143.08 C 156.89 144.18 157.62 145.22 158.72 145.41 C 159.81 145.59 160.85 144.86 161.04 143.76 L 161.21 142.78 C 161.40 141.69 160.66 140.65 159.56 140.46 C 158.47 140.27 157.43 141.01 157.24 142.10 Z M 157.08 143.08 L 156.91 144.07 C 156.72 145.16 157.46 146.20 158.55 146.39 C 159.64 146.57 160.68 145.84 160.86 144.75 L 161.03 143.76 C 161.22 142.67 160.49 141.63 159.39 141.45 C 158.30 141.26 157.27 141.99 157.08 143.08 Z M 156.92 144.07 L 156.75 145.07 C 156.56 146.16 157.29 147.19 158.38 147.38 C 159.47 147.56 160.50 146.83 160.68 145.75 L 160.85 144.75 C 161.04 143.66 160.31 142.63 159.22 142.44 C 158.14 142.26 157.11 142.99 156.92 144.07 Z M 156.76 145.08 L 156.59 146.07 C 156.41 147.15 157.13 148.18 158.21 148.36 C 159.29 148.54 160.32 147.82 160.50 146.74 L 160.67 145.74 C 160.86 144.66 160.13 143.64 159.05 143.45 C 157.97 143.27 156.94 143.99 156.76 145.08 Z M 156.60 146.07 L 156.43 147.06 C 156.25 148.13 156.98 149.15 158.05 149.33 C 159.13 149.52 160.15 148.79 160.33 147.72 L 160.49 146.73 C 160.68 145.66 159.95 144.64 158.88 144.46 C 157.80 144.27 156.78 145.00 156.60 146.07 Z M 156.44 147.06 L 156.28 148.04 C 156.10 149.11 156.83 150.12 157.90 150.30 C 158.97 150.48 159.98 149.75 160.16 148.68 L 160.32 147.71 C 160.50 146.64 159.77 145.63 158.70 145.45 C 157.63 145.27 156.62 145.99 156.44 147.06 Z M 156.29 148.04 L 156.13 149.03 C 155.96 150.09 156.68 151.10 157.74 151.27 C 158.81 151.44 159.81 150.72 159.99 149.66 L 160.15 148.67 C 160.32 147.61 159.60 146.61 158.53 146.43 C 157.47 146.26 156.47 146.98 156.29 148.04 Z M 156.14 149.04 L 155.98 150.02 C 155.81 151.08 156.53 152.08 157.59 152.25 C 158.65 152.42 159.65 151.69 159.82 150.64 L 159.97 149.65 C 160.14 148.59 159.42 147.60 158.36 147.43 C 157.31 147.26 156.31 147.98 156.14 149.04 Z M 155.99 150.03 L 155.84 151.01 C 155.68 152.06 156.39 153.05 157.45 153.22 C 158.50 153.38 159.49 152.66 159.65 151.61 L 159.81 150.63 C 159.97 149.58 159.25 148.59 158.20 148.42 C 157.15 148.26 156.16 148.98 155.99 150.03 Z M 155.85 151.02 L 155.70 152.00 C 155.54 153.05 156.26 154.03 157.30 154.19 C 158.35 154.35 159.33 153.63 159.49 152.59 L 159.64 151.60 C 159.80 150.55 159.08 149.58 158.04 149.42 C 156.99 149.26 156.01 149.97 155.85 151.02 Z M 155.71 152.01 L 155.56 153.01 C 155.41 154.05 156.12 155.02 157.16 155.18 C 158.20 155.33 159.17 154.62 159.33 153.58 L 159.48 152.58 C 159.63 151.54 158.92 150.57 157.88 150.41 C 156.84 150.26 155.87 150.97 155.71 152.01 Z M 155.58 153.02 L 155.43 154.04 C 155.27 155.08 155.99 156.03 157.02 156.19 C 158.05 156.34 159.01 155.63 159.16 154.59 L 159.31 153.57 C 159.47 152.54 158.75 151.58 157.72 151.43 C 156.69 151.27 155.73 151.99 155.58 153.02 Z M 155.44 154.05 L 155.29 155.07 C 155.15 156.09 155.86 157.04 156.88 157.19 C 157.90 157.34 158.85 156.63 159.00 155.60 L 159.15 154.59 C 159.29 153.56 158.58 152.61 157.56 152.47 C 156.54 152.32 155.59 153.03 155.44 154.05 Z M 155.31 155.08 L 155.17 156.07 C 155.03 157.08 155.73 158.02 156.75 158.16 C 157.76 158.31 158.70 157.60 158.84 156.59 L 158.98 155.60 C 159.13 154.58 158.42 153.64 157.41 153.50 C 156.39 153.36 155.45 154.06 155.31 155.08 Z M 155.19 156.07 L 155.06 157.01 C 154.92 158.02 155.62 158.95 156.63 159.09 C 157.63 159.23 158.56 158.52 158.70 157.52 L 158.83 156.58 C 158.97 155.57 158.26 154.64 157.26 154.50 C 156.25 154.37 155.33 155.07 155.19 156.07 Z M 155.07 157.02 L 154.94 158.00 C 154.81 159.00 155.51 159.92 156.51 160.05 C 157.50 160.18 158.42 159.48 158.55 158.48 L 158.68 157.51 C 158.82 156.51 158.12 155.59 157.12 155.46 C 156.12 155.33 155.20 156.03 155.07 157.02 Z M 154.95 158.02 L 154.84 158.98 C 154.71 159.97 155.42 160.87 156.41 160.99 C 157.40 161.11 158.30 160.41 158.42 159.42 L 158.54 158.46 C 158.66 157.47 157.96 156.57 156.97 156.45 C 155.98 156.33 155.08 157.03 154.95 158.02 Z M 154.85 159.01 L 154.74 159.98 C 154.64 160.97 155.35 161.85 156.34 161.95 C 157.32 162.06 158.20 161.34 158.31 160.36 L 158.41 159.39 C 158.52 158.40 157.80 157.52 156.82 157.42 C 155.84 157.31 154.95 158.02 154.85 159.01 Z M 154.76 160.02 L 154.66 161.07 C 154.58 162.05 155.30 162.91 156.28 162.99 C 157.26 163.08 158.12 162.35 158.21 161.38 L 158.30 160.32 C 158.38 159.35 157.66 158.48 156.68 158.40 C 155.70 158.31 154.84 159.04 154.76 160.02 Z M 154.68 161.10 L 154.61 162.03 C 154.54 163.01 155.27 163.85 156.25 163.92 C 157.22 163.98 158.06 163.25 158.13 162.28 L 158.19 161.34 C 158.26 160.37 157.53 159.53 156.56 159.46 C 155.59 159.39 154.74 160.13 154.68 161.10 Z M 154.62 162.07 L 154.57 163.06 C 154.52 164.03 155.26 164.85 156.23 164.90 C 157.19 164.95 158.02 164.21 158.07 163.25 L 158.12 162.25 C 158.17 161.28 157.43 160.46 156.46 160.41 C 155.49 160.36 154.67 161.10 154.62 162.07 Z M 154.58 163.10 L 154.55 164.13 C 154.52 165.09 155.27 165.89 156.23 165.92 C 157.19 165.95 157.99 165.20 158.02 164.24 L 158.05 163.21 C 158.08 162.25 157.33 161.45 156.37 161.42 C 155.41 161.39 154.61 162.14 154.58 163.10 Z M 154.56 164.18 L 154.56 165.21 C 154.55 166.16 155.33 166.94 156.28 166.94 C 157.23 166.94 158.01 166.17 158.01 165.22 L 158.01 164.19 C 158.01 163.24 157.24 162.46 156.29 162.46 C 155.34 162.46 154.56 163.23 154.56 164.18 Z M 154.57 165.27 L 154.61 166.29 C 154.64 167.24 155.43 167.98 156.37 167.95 C 157.32 167.92 158.06 167.13 158.03 166.18 L 157.99 165.16 C 157.96 164.21 157.17 163.47 156.23 163.50 C 155.28 163.53 154.54 164.33 154.57 165.27 Z M 154.62 166.37 L 154.70 167.41 C 154.77 168.34 155.59 169.04 156.52 168.97 C 157.46 168.90 158.16 168.08 158.09 167.15 L 158.01 166.11 C 157.94 165.17 157.12 164.47 156.19 164.55 C 155.25 164.62 154.55 165.43 154.62 166.37 Z M 154.72 167.47 L 154.84 168.47 C 154.94 169.39 155.78 170.05 156.70 169.95 C 157.63 169.84 158.29 169.01 158.18 168.08 L 158.07 167.09 C 157.96 166.16 157.13 165.50 156.20 165.61 C 155.28 165.71 154.62 166.55 154.72 167.47 Z M 154.86 168.51 L 155.00 169.48 C 155.13 170.39 155.97 171.02 156.88 170.89 C 157.80 170.76 158.43 169.92 158.30 169.00 L 158.16 168.04 C 158.03 167.13 157.19 166.49 156.27 166.62 C 155.36 166.75 154.73 167.60 154.86 168.51 Z M 155.02 169.50 L 155.17 170.45 C 155.31 171.35 156.15 171.97 157.06 171.82 C 157.96 171.68 158.57 170.83 158.43 169.93 L 158.28 168.98 C 158.14 168.08 157.29 167.47 156.39 167.61 C 155.49 167.75 154.87 168.60 155.02 169.50 Z M 155.17 170.45 L 155.19 170.54 C 155.33 171.43 156.18 172.04 157.07 171.90 C 157.97 171.75 158.58 170.91 158.44 170.01 L 158.42 169.93 C 158.28 169.03 157.43 168.42 156.54 168.57 C 155.64 168.71 155.03 169.56 155.17 170.45 Z"
      fill="black"
      fill-rule="nonzero" /></svg>