<svg xmlns="http://www.w3.org/2000/svg" width="300" height="300" viewBox="0 0 300 300">
<path d="M 158.04 126.58 L 157.64 125.67 C 157.25 124.77 156.20 124.36 155.30 124.75 C 154.40 125.15 153.99 126.20 154.39 127.10 L 154.79 128.00 C 155.18 128.90 156.23 129.31 157.13 128.92 C 158.03 128.53 158.44 127.48 158.04 126.58 Z M 157.61 125.59 L 157.16 124.70 C 156.72 123.82 155.65 123.46 154.77 123.90 C 153.90 124.34 153.54 125.41 153.98 126.29 L 154.42 127.18 C 154.86 128.06 155.93 128.41 156.81 127.97 C 157.69 127.53 158.05 126.47 157.61 125.59 Z M 157.08 124.54 L 156.54 123.69 C 156.01 122.86 154.91 122.61 154.08 123.13 C 153.25 123.66 153.00 124.76 153.53 125.59 L 154.06 126.44 C 154.59 127.27 155.69 127.52 156.52 127.00 C 157.35 126.47 157.60 125.37 157.08 124.54 Z M 156.40 123.49 L 155.78 122.76 C 155.15 122.01 154.03 121.91 153.27 122.54 C 152.52 123.17 152.42 124.29 153.05 125.05 L 153.67 125.78 C 154.30 126.54 155.42 126.64 156.18 126.00 C 156.93 125.37 157.03 124.25 156.40 123.49 Z M 155.59 122.56 L 154.84 121.91 C 154.10 121.27 152.97 121.35 152.33 122.09 C 151.68 122.83 151.76 123.96 152.50 124.60 L 153.25 125.25 C 153.99 125.90 155.12 125.82 155.76 125.07 C 156.41 124.33 156.33 123.20 155.59 122.56 Z M 154.58 121.72 L 153.69 121.20 C 152.84 120.70 151.75 120.98 151.25 121.83 C 150.75 122.68 151.03 123.78 151.88 124.28 L 152.77 124.80 C 153.62 125.30 154.71 125.01 155.21 124.16 C 155.71 123.31 155.43 122.22 154.58 121.72 Z M 153.39 121.06 L 152.46 120.73 C 151.53 120.40 150.51 120.88 150.18 121.81 C 149.85 122.74 150.33 123.76 151.26 124.09 L 152.19 124.42 C 153.12 124.75 154.14 124.26 154.47 123.34 C 154.80 122.41 154.31 121.39 153.39 121.06 Z M 152.16 120.65 L 151.21 120.49 C 150.24 120.32 149.31 120.97 149.15 121.94 C 148.98 122.91 149.63 123.83 150.60 124.00 L 151.56 124.17 C 152.53 124.33 153.45 123.68 153.62 122.71 C 153.79 121.74 153.13 120.82 152.16 120.65 Z M 150.92 120.46 L 149.91 120.45 C 148.93 120.45 148.12 121.24 148.11 122.22 C 148.11 123.20 148.90 124.01 149.88 124.02 L 150.89 124.02 C 151.87 124.03 152.68 123.24 152.68 122.26 C 152.69 121.28 151.90 120.47 150.92 120.46 Z M 149.61 120.48 L 148.59 120.65 C 147.62 120.80 146.96 121.71 147.11 122.68 C 147.27 123.65 148.18 124.31 149.15 124.16 L 150.18 123.99 C 151.15 123.83 151.81 122.92 151.65 121.95 C 151.49 120.98 150.58 120.32 149.61 120.48 Z M 148.29 120.72 L 147.36 121.05 C 146.43 121.37 145.94 122.38 146.26 123.30 C 146.58 124.23 147.59 124.72 148.51 124.40 L 149.45 124.08 C 150.38 123.76 150.87 122.75 150.55 121.82 C 150.23 120.90 149.22 120.40 148.29 120.72 Z M 147.12 121.15 L 146.25 121.61 C 145.38 122.06 145.05 123.12 145.50 123.99 C 145.95 124.86 147.01 125.19 147.88 124.74 L 148.75 124.29 C 149.62 123.84 149.95 122.77 149.50 121.91 C 149.05 121.04 147.99 120.70 147.12 121.15 Z M 146.08 121.71 L 145.25 122.27 C 144.44 122.82 144.23 123.91 144.77 124.72 C 145.31 125.52 146.40 125.74 147.21 125.20 L 148.05 124.64 C 148.85 124.10 149.07 123.00 148.53 122.19 C 147.98 121.39 146.89 121.17 146.08 121.71 Z M 145.13 122.37 L 144.33 123.01 C 143.58 123.62 143.46 124.72 144.07 125.47 C 144.67 126.23 145.78 126.35 146.53 125.74 L 147.33 125.10 C 148.08 124.50 148.20 123.39 147.59 122.64 C 146.99 121.88 145.88 121.76 145.13 122.37 Z M 144.25 123.09 L 143.51 123.77 C 142.80 124.42 142.75 125.53 143.40 126.24 C 144.05 126.95 145.16 127.00 145.87 126.35 L 146.61 125.66 C 147.32 125.01 147.37 123.91 146.72 123.20 C 146.07 122.48 144.96 122.44 144.25 123.09 Z M 143.45 123.83 L 142.76 124.53 C 142.08 125.22 142.09 126.32 142.77 127.00 C 143.46 127.68 144.56 127.67 145.24 126.98 L 145.93 126.28 C 146.61 125.60 146.60 124.49 145.91 123.82 C 145.23 123.14 144.12 123.15 143.45 123.83 Z M 142.71 124.59 L 142.04 125.32 C 141.40 126.03 141.45 127.13 142.17 127.78 C 142.88 128.43 143.98 128.37 144.63 127.66 L 145.29 126.93 C 145.94 126.22 145.88 125.11 145.17 124.47 C 144.45 123.82 143.35 123.87 142.71 124.59 Z M 142.01 125.36 L 141.36 126.13 C 140.74 126.86 140.83 127.96 141.56 128.58 C 142.30 129.20 143.40 129.11 144.02 128.38 L 144.67 127.62 C 145.29 126.88 145.20 125.78 144.46 125.16 C 143.73 124.54 142.63 124.63 142.01 125.36 Z M 141.33 126.16 L 140.69 126.96 C 140.09 127.71 140.20 128.80 140.95 129.41 C 141.70 130.01 142.80 129.89 143.40 129.14 L 144.05 128.34 C 144.65 127.60 144.53 126.50 143.78 125.89 C 143.03 125.29 141.94 125.41 141.33 126.16 Z M 140.67 126.98 L 140.07 127.75 C 139.48 128.51 139.62 129.60 140.37 130.20 C 141.13 130.79 142.23 130.65 142.82 129.89 L 143.42 129.12 C 144.01 128.36 143.88 127.27 143.12 126.68 C 142.36 126.09 141.26 126.22 140.67 126.98 Z M 140.06 127.77 L 139.46 128.56 C 138.88 129.32 139.03 130.42 139.80 131.00 C 140.57 131.58 141.66 131.42 142.24 130.66 L 142.83 129.87 C 143.41 129.11 143.26 128.01 142.50 127.43 C 141.73 126.85 140.64 127.00 140.06 127.77 Z M 139.44 128.58 L 138.85 129.39 C 138.29 130.17 138.46 131.26 139.24 131.83 C 140.01 132.39 141.10 132.22 141.67 131.44 L 142.26 130.63 C 142.83 129.85 142.65 128.77 141.88 128.20 C 141.10 127.63 140.01 127.81 139.44 128.58 Z M 138.83 129.42 L 138.25 130.26 C 137.70 131.05 137.90 132.13 138.69 132.68 C 139.48 133.23 140.56 133.04 141.11 132.25 L 141.69 131.41 C 142.24 130.62 142.04 129.54 141.26 128.99 C 140.47 128.44 139.38 128.64 138.83 129.42 Z M 138.23 130.30 L 137.67 131.15 C 137.14 131.95 137.36 133.03 138.16 133.56 C 138.96 134.09 140.04 133.87 140.57 133.06 L 141.14 132.21 C 141.66 131.41 141.44 130.33 140.64 129.80 C 139.84 129.27 138.76 129.49 138.23 130.30 Z M 137.64 131.19 L 137.11 132.05 C 136.60 132.87 136.86 133.94 137.67 134.44 C 138.49 134.95 139.56 134.70 140.07 133.88 L 140.60 133.02 C 141.10 132.20 140.85 131.13 140.03 130.63 C 139.22 130.12 138.14 130.37 137.64 131.19 Z M 137.09 132.09 L 136.58 132.96 C 136.10 133.79 136.38 134.85 137.21 135.33 C 138.04 135.82 139.11 135.54 139.59 134.71 L 140.09 133.84 C 140.58 133.01 140.30 131.94 139.46 131.46 C 138.63 130.98 137.57 131.26 137.09 132.09 Z M 136.56 132.99 L 136.08 133.87 C 135.61 134.71 135.92 135.77 136.76 136.23 C 137.60 136.69 138.66 136.39 139.12 135.55 L 139.61 134.67 C 140.07 133.83 139.77 132.77 138.93 132.31 C 138.09 131.84 137.03 132.15 136.56 132.99 Z M 136.06 133.89 L 135.60 134.78 C 135.15 135.63 135.47 136.68 136.32 137.13 C 137.17 137.58 138.22 137.25 138.67 136.40 L 139.14 135.52 C 139.59 134.67 139.26 133.62 138.41 133.17 C 137.56 132.72 136.51 133.04 136.06 133.89 Z M 135.59 134.80 L 135.13 135.69 C 134.70 136.54 135.04 137.59 135.89 138.03 C 136.75 138.46 137.79 138.12 138.23 137.27 L 138.68 136.38 C 139.12 135.53 138.78 134.48 137.92 134.04 C 137.07 133.60 136.02 133.94 135.59 134.80 Z M 135.12 135.70 L 134.68 136.60 C 134.25 137.46 134.60 138.50 135.46 138.93 C 136.32 139.36 137.37 139.01 137.79 138.15 L 138.24 137.25 C 138.67 136.39 138.32 135.35 137.46 134.92 C 136.60 134.49 135.55 134.84 135.12 135.70 Z M 134.67 136.62 L 134.23 137.52 C 133.82 138.39 134.18 139.43 135.04 139.84 C 135.91 140.26 136.95 139.90 137.37 139.03 L 137.80 138.13 C 138.22 137.27 137.86 136.23 136.99 135.81 C 136.13 135.39 135.09 135.75 134.67 136.62 Z M 134.22 137.54 L 133.80 138.45 C 133.40 139.32 133.78 140.36 134.65 140.76 C 135.52 141.17 136.55 140.79 136.96 139.92 L 137.38 139.01 C 137.78 138.14 137.40 137.11 136.53 136.70 C 135.66 136.30 134.63 136.67 134.22 137.54 Z M 133.79 138.48 L 133.38 139.39 C 133.00 140.27 133.39 141.29 134.27 141.68 C 135.15 142.07 136.17 141.68 136.56 140.80 L 136.97 139.89 C 137.36 139.01 136.96 137.98 136.08 137.59 C 135.21 137.20 134.18 137.60 133.79 138.48 Z M 133.37 139.42 L 132.98 140.34 C 132.61 141.23 133.03 142.25 133.91 142.62 C 134.80 142.99 135.82 142.57 136.19 141.69 L 136.58 140.77 C 136.95 139.88 136.53 138.86 135.65 138.49 C 134.76 138.12 133.74 138.54 133.37 139.42 Z M 132.97 140.38 L 132.61 141.30 C 132.26 142.19 132.70 143.20 133.59 143.56 C 134.48 143.91 135.49 143.47 135.84 142.57 L 136.21 141.65 C 136.56 140.76 136.12 139.75 135.22 139.40 C 134.33 139.04 133.32 139.48 132.97 140.38 Z M 132.59 141.34 L 132.25 142.27 C 131.93 143.18 132.39 144.18 133.30 144.50 C 134.20 144.83 135.20 144.36 135.53 143.46 L 135.86 142.53 C 136.19 141.62 135.72 140.63 134.82 140.30 C 133.91 139.97 132.92 140.44 132.59 141.34 Z M 132.23 142.33 L 131.93 143.28 C 131.63 144.19 132.13 145.17 133.04 145.47 C 133.96 145.77 134.94 145.27 135.24 144.35 L 135.55 143.40 C 135.84 142.49 135.34 141.51 134.43 141.21 C 133.51 140.91 132.53 141.41 132.23 142.33 Z M 131.91 143.34 L 131.63 144.30 C 131.37 145.23 131.91 146.19 132.84 146.46 C 133.76 146.72 134.72 146.18 134.99 145.25 L 135.26 144.29 C 135.52 143.36 134.98 142.40 134.06 142.14 C 133.13 141.87 132.17 142.41 131.91 143.34 Z M 131.61 144.38 L 131.38 145.36 C 131.16 146.30 131.74 147.24 132.68 147.46 C 133.61 147.68 134.55 147.10 134.77 146.17 L 135.01 145.18 C 135.23 144.24 134.65 143.30 133.71 143.08 C 132.77 142.86 131.83 143.44 131.61 144.38 Z M 131.36 145.44 L 131.17 146.45 C 131.00 147.40 131.62 148.31 132.57 148.49 C 133.51 148.66 134.43 148.04 134.60 147.09 L 134.79 146.09 C 134.97 145.14 134.34 144.23 133.40 144.05 C 132.45 143.87 131.54 144.50 131.36 145.44 Z M 131.16 146.53 L 131.02 147.55 C 130.88 148.51 131.55 149.39 132.50 149.52 C 133.46 149.66 134.34 148.99 134.47 148.04 L 134.62 147.01 C 134.75 146.06 134.08 145.18 133.13 145.04 C 132.17 144.91 131.29 145.58 131.16 146.53 Z M 131.01 147.63 L 130.91 148.64 C 130.82 149.60 131.52 150.46 132.48 150.55 C 133.44 150.64 134.29 149.94 134.38 148.98 L 134.48 147.96 C 134.58 147.00 133.87 146.15 132.91 146.06 C 131.95 145.96 131.10 146.67 131.01 147.63 Z M 130.90 148.72 L 130.85 149.71 C 130.79 150.68 131.53 151.50 132.50 151.55 C 133.46 151.61 134.28 150.87 134.34 149.91 L 134.39 148.91 C 134.44 147.94 133.71 147.12 132.74 147.07 C 131.78 147.01 130.95 147.75 130.90 148.72 Z M 130.84 149.79 L 130.83 150.75 C 130.82 151.71 131.59 152.51 132.56 152.52 C 133.52 152.53 134.31 151.76 134.33 150.79 L 134.34 149.83 C 134.35 148.87 133.58 148.07 132.61 148.06 C 131.65 148.05 130.86 148.82 130.84 149.79 Z M 130.83 150.84 L 130.87 151.90 C 130.91 152.86 131.72 153.62 132.68 153.58 C 133.65 153.55 134.40 152.73 134.37 151.77 L 134.33 150.71 C 134.29 149.74 133.48 148.99 132.51 149.02 C 131.55 149.06 130.80 149.87 130.83 150.84 Z M 130.88 152.04 L 131.01 153.11 C 131.12 154.07 131.99 154.76 132.95 154.65 C 133.91 154.53 134.59 153.66 134.48 152.71 L 134.36 151.63 C 134.24 150.67 133.37 149.98 132.41 150.10 C 131.45 150.21 130.77 151.08 130.88 152.04 Z M 131.05 153.34 L 131.29 154.29 C 131.53 155.22 132.48 155.79 133.42 155.55 C 134.35 155.31 134.92 154.36 134.68 153.42 L 134.44 152.48 C 134.20 151.54 133.25 150.98 132.31 151.21 C 131.38 151.45 130.81 152.40 131.05 153.34 Z M 131.41 154.61 L 131.79 155.41 C 132.21 156.28 133.25 156.65 134.12 156.23 C 134.99 155.81 135.36 154.77 134.94 153.90 L 134.56 153.10 C 134.15 152.23 133.10 151.86 132.23 152.28 C 131.36 152.69 130.99 153.74 131.41 154.61 Z M 132.05 155.80 L 132.65 156.48 C 133.28 157.21 134.39 157.28 135.11 156.64 C 135.84 156.01 135.91 154.90 135.28 154.18 L 134.68 153.50 C 134.04 152.77 132.94 152.70 132.21 153.34 C 131.49 153.97 131.42 155.08 132.05 155.80 Z M 133.01 156.80 L 133.81 157.31 C 134.62 157.84 135.70 157.60 136.23 156.79 C 136.75 155.98 136.52 154.90 135.71 154.38 L 134.91 153.86 C 134.10 153.34 133.02 153.57 132.49 154.38 C 131.97 155.19 132.20 156.27 133.01 156.80 Z M 134.14 157.48 L 135.09 157.84 C 135.99 158.18 137.00 157.73 137.34 156.83 C 137.69 155.93 137.24 154.92 136.33 154.58 L 135.38 154.21 C 134.48 153.87 133.47 154.32 133.13 155.22 C 132.78 156.12 133.23 157.13 134.14 157.48 Z M 135.32 157.91 L 136.37 158.15 C 137.31 158.36 138.24 157.77 138.46 156.83 C 138.67 155.89 138.08 154.95 137.14 154.74 L 136.10 154.50 C 135.16 154.29 134.22 154.88 134.01 155.82 C 133.79 156.76 134.38 157.70 135.32 157.91 Z M 136.52 158.17 L 137.52 158.31 C 138.47 158.44 139.35 157.77 139.48 156.81 C 139.61 155.86 138.94 154.98 137.99 154.85 L 136.99 154.72 C 136.03 154.59 135.15 155.25 135.02 156.21 C 134.89 157.16 135.56 158.04 136.52 158.17 Z M 137.61 158.32 L 138.63 158.40 C 139.59 158.47 140.43 157.76 140.51 156.80 C 140.58 155.84 139.87 155.00 138.91 154.92 L 137.89 154.84 C 136.93 154.77 136.09 155.48 136.01 156.44 C 135.94 157.40 136.65 158.24 137.61 158.32 Z M 138.70 158.40 L 139.70 158.44 C 140.66 158.48 141.47 157.74 141.51 156.78 C 141.55 155.81 140.81 155.00 139.85 154.96 L 138.84 154.92 C 137.88 154.88 137.07 155.63 137.03 156.59 C 136.99 157.55 137.74 158.36 138.70 158.40 Z M 139.74 158.44 L 140.73 158.46 C 141.69 158.48 142.49 157.72 142.51 156.76 C 142.53 155.80 141.76 155.00 140.80 154.98 L 139.81 154.96 C 138.85 154.94 138.06 155.70 138.04 156.67 C 138.01 157.63 138.78 158.42 139.74 158.44 Z M 140.76 158.46 L 141.82 158.46 C 142.78 158.47 143.56 157.69 143.57 156.73 C 143.57 155.77 142.79 154.99 141.83 154.99 L 140.77 154.99 C 139.81 154.98 139.03 155.76 139.03 156.72 C 139.03 157.68 139.80 158.46 140.76 158.46 Z M 141.91 158.46 L 142.89 158.41 C 143.84 158.37 144.58 157.56 144.54 156.60 C 144.49 155.64 143.68 154.90 142.72 154.95 L 141.75 154.99 C 140.79 155.04 140.05 155.85 140.09 156.81 C 140.14 157.77 140.95 158.51 141.91 158.46 Z M 143.04 158.40 L 143.97 158.27 C 144.92 158.14 145.58 157.27 145.45 156.32 C 145.32 155.37 144.45 154.71 143.50 154.84 L 142.57 154.96 C 141.62 155.09 140.96 155.96 141.09 156.91 C 141.22 157.86 142.09 158.53 143.04 158.40 Z M 144.16 158.23 L 145.09 158.00 C 146.02 157.76 146.58 156.82 146.35 155.89 C 146.11 154.97 145.17 154.41 144.24 154.64 L 143.31 154.88 C 142.38 155.11 141.82 156.05 142.06 156.98 C 142.29 157.91 143.23 158.47 144.16 158.23 Z M 145.25 157.95 L 146.18 157.62 C 147.08 157.30 147.55 156.31 147.23 155.41 C 146.91 154.51 145.92 154.04 145.02 154.36 L 144.09 154.69 C 143.19 155.01 142.72 156.00 143.04 156.90 C 143.36 157.80 144.35 158.27 145.25 157.95 Z M 146.28 157.58 L 147.22 157.18 C 148.10 156.80 148.51 155.79 148.14 154.91 C 147.76 154.03 146.75 153.62 145.87 153.99 L 144.93 154.40 C 144.05 154.77 143.64 155.78 144.01 156.66 C 144.39 157.54 145.40 157.95 146.28 157.58 Z M 147.27 157.15 L 148.18 156.73 C 149.05 156.33 149.42 155.30 149.02 154.44 C 148.62 153.57 147.59 153.20 146.73 153.60 L 145.82 154.02 C 144.96 154.42 144.58 155.45 144.98 156.31 C 145.38 157.18 146.41 157.55 147.27 157.15 Z M 148.23 156.71 L 149.12 156.26 C 149.97 155.83 150.32 154.80 149.89 153.94 C 149.47 153.09 148.43 152.75 147.58 153.17 L 146.68 153.62 C 145.83 154.05 145.48 155.09 145.91 155.94 C 146.34 156.79 147.37 157.13 148.23 156.71 Z M 149.18 156.23 L 150.06 155.74 C 150.90 155.28 151.20 154.23 150.74 153.40 C 150.28 152.56 149.23 152.26 148.40 152.72 L 147.52 153.21 C 146.68 153.67 146.38 154.72 146.84 155.55 C 147.30 156.38 148.35 156.69 149.18 156.23 Z M 150.14 155.69 L 150.98 155.18 C 151.79 154.67 152.03 153.61 151.53 152.80 C 151.03 151.99 149.97 151.74 149.16 152.25 L 148.32 152.77 C 147.52 153.27 147.27 154.33 147.77 155.14 C 148.27 155.95 149.33 156.20 150.14 155.69 Z M 151.06 155.12 L 151.83 154.57 C 152.61 154.03 152.79 152.95 152.24 152.18 C 151.70 151.40 150.62 151.21 149.85 151.76 L 149.08 152.30 C 148.30 152.85 148.11 153.93 148.66 154.70 C 149.21 155.48 150.28 155.67 151.06 155.12 Z M 151.91 154.51 L 152.68 153.90 C 153.42 153.31 153.54 152.23 152.95 151.49 C 152.36 150.74 151.27 150.62 150.53 151.21 L 149.77 151.82 C 149.02 152.41 148.90 153.50 149.49 154.24 C 150.08 154.98 151.17 155.11 151.91 154.51 Z M 152.74 153.84 L 153.53 153.15 C 154.24 152.52 154.31 151.43 153.68 150.72 C 153.05 150.01 151.96 149.94 151.25 150.57 L 150.46 151.27 C 149.75 151.90 149.69 152.99 150.32 153.70 C 150.95 154.41 152.03 154.47 152.74 153.84 Z M 153.58 153.10 L 154.32 152.39 C 155.00 151.73 155.02 150.65 154.36 149.96 C 153.71 149.28 152.62 149.26 151.94 149.92 L 151.20 150.62 C 150.52 151.28 150.49 152.37 151.15 153.05 C 151.81 153.73 152.90 153.76 153.58 153.10 Z M 154.35 152.36 L 155.05 151.64 C 155.72 150.97 155.71 149.88 155.03 149.22 C 154.36 148.55 153.27 148.56 152.60 149.24 L 151.90 149.95 C 151.24 150.63 151.25 151.71 151.92 152.38 C 152.60 153.04 153.68 153.03 154.35 152.36 Z M 155.08 151.62 L 155.78 150.87 C 156.43 150.18 156.40 149.09 155.71 148.44 C 155.02 147.79 153.93 147.82 153.28 148.51 L 152.58 149.26 C 151.93 149.95 151.96 151.04 152.65 151.69 C 153.34 152.34 154.43 152.31 155.08 151.62 Z M 155.80 150.84 L 156.49 150.09 C 157.12 149.39 157.07 148.30 156.37 147.67 C 155.67 147.03 154.58 147.08 153.95 147.79 L 153.26 148.54 C 152.63 149.24 152.68 150.33 153.38 150.96 C 154.08 151.60 155.17 151.54 155.80 150.84 Z M 156.51 150.06 L 157.16 149.31 C 157.78 148.60 157.71 147.52 156.99 146.89 C 156.28 146.27 155.20 146.35 154.58 147.06 L 153.92 147.81 C 153.30 148.52 153.38 149.61 154.09 150.23 C 154.80 150.85 155.89 150.78 156.51 150.06 Z M 157.19 149.28 L 157.89 148.44 C 158.49 147.71 158.39 146.63 157.66 146.02 C 156.93 145.42 155.85 145.52 155.25 146.25 L 154.55 147.09 C 153.95 147.82 154.05 148.90 154.78 149.51 C 155.50 150.11 156.59 150.01 157.19 149.28 Z M 157.92 148.39 L 158.54 147.60 C 159.12 146.85 158.98 145.77 158.23 145.19 C 157.48 144.61 156.41 144.75 155.83 145.50 L 155.21 146.29 C 154.63 147.04 154.77 148.12 155.52 148.70 C 156.27 149.28 157.34 149.14 157.92 148.39 Z M 158.58 147.54 L 159.13 146.78 C 159.68 146.01 159.50 144.94 158.73 144.39 C 157.95 143.84 156.88 144.02 156.33 144.79 L 155.79 145.55 C 155.24 146.32 155.42 147.40 156.19 147.95 C 156.96 148.50 158.03 148.32 158.58 147.54 Z M 159.17 146.72 L 159.68 145.93 C 160.19 145.14 159.97 144.08 159.17 143.56 C 158.37 143.04 157.31 143.27 156.79 144.07 L 156.29 144.85 C 155.77 145.65 156.00 146.71 156.80 147.22 C 157.59 147.74 158.66 147.51 159.17 146.72 Z M 159.72 145.87 L 160.21 145.03 C 160.69 144.21 160.41 143.16 159.59 142.68 C 158.77 142.20 157.71 142.48 157.24 143.30 L 156.75 144.14 C 156.27 144.96 156.55 146.01 157.37 146.49 C 158.19 146.96 159.24 146.69 159.72 145.87 Z M 160.25 144.97 L 160.71 144.09 C 161.15 143.25 160.83 142.21 159.99 141.77 C 159.14 141.32 158.10 141.65 157.66 142.49 L 157.20 143.36 C 156.75 144.21 157.08 145.25 157.92 145.69 C 158.76 146.13 159.80 145.81 160.25 144.97 Z M 160.74 144.04 L 161.20 143.09 C 161.61 142.24 161.26 141.20 160.40 140.79 C 159.54 140.37 158.51 140.73 158.09 141.59 L 157.63 142.54 C 157.21 143.39 157.57 144.43 158.43 144.84 C 159.29 145.26 160.32 144.90 160.74 144.04 Z M 161.22 143.06 L 161.63 142.17 C 162.03 141.30 161.64 140.27 160.77 139.87 C 159.90 139.48 158.88 139.86 158.48 140.73 L 158.07 141.62 C 157.67 142.49 158.05 143.52 158.92 143.91 C 159.79 144.31 160.82 143.93 161.22 143.06 Z M 161.65 142.13 L 162.05 141.20 C 162.43 140.32 162.02 139.29 161.14 138.91 C 160.26 138.54 159.23 138.94 158.86 139.83 L 158.45 140.76 C 158.08 141.65 158.48 142.67 159.37 143.05 C 160.25 143.43 161.27 143.02 161.65 142.13 Z M 162.08 141.15 L 162.45 140.20 C 162.80 139.30 162.36 138.29 161.46 137.94 C 160.56 137.59 159.55 138.03 159.20 138.93 L 158.83 139.88 C 158.48 140.77 158.92 141.79 159.82 142.14 C 160.72 142.49 161.73 142.05 162.08 141.15 Z M 162.49 140.13 L 162.80 139.19 C 163.12 138.28 162.63 137.28 161.71 136.97 C 160.79 136.66 159.80 137.15 159.48 138.06 L 159.16 139.00 C 158.85 139.92 159.34 140.91 160.26 141.23 C 161.18 141.54 162.17 141.05 162.49 140.13 Z M 162.85 139.07 L 163.12 138.05 C 163.37 137.11 162.80 136.14 161.86 135.89 C 160.92 135.65 159.95 136.21 159.71 137.15 L 159.44 138.18 C 159.19 139.12 159.75 140.09 160.70 140.33 C 161.64 140.58 162.60 140.02 162.85 139.07 Z M 163.17 137.84 L 163.31 136.86 C 163.44 135.89 162.76 135.00 161.79 134.86 C 160.82 134.73 159.92 135.41 159.79 136.38 L 159.65 137.36 C 159.52 138.33 160.20 139.23 161.17 139.36 C 162.14 139.49 163.04 138.81 163.17 137.84 Z M 163.33 136.57 L 163.31 135.62 C 163.28 134.63 162.45 133.86 161.47 133.88 C 160.48 133.91 159.71 134.74 159.73 135.72 L 159.76 136.67 C 159.79 137.66 160.61 138.44 161.60 138.41 C 162.59 138.38 163.36 137.56 163.33 136.57 Z M 163.28 135.23 L 162.98 134.05 C 162.74 133.08 161.75 132.49 160.78 132.73 C 159.81 132.98 159.22 133.96 159.47 134.93 L 159.76 136.11 C 160.01 137.08 160.99 137.67 161.96 137.43 C 162.93 137.18 163.52 136.20 163.28 135.23 Z M 162.86 133.61 L 162.37 132.70 C 161.88 131.79 160.76 131.46 159.85 131.94 C 158.95 132.43 158.61 133.56 159.10 134.46 L 159.59 135.37 C 160.07 136.28 161.20 136.61 162.11 136.13 C 163.01 135.64 163.35 134.51 162.86 133.61 Z M 160.87 131.68 L 160.50 131.65 C 159.45 131.58 158.54 132.37 158.47 133.42 C 158.40 134.47 159.18 135.38 160.23 135.45 L 160.60 135.48 C 161.65 135.55 162.56 134.76 162.63 133.71 C 162.71 132.66 161.92 131.75 160.87 131.68 Z M 158.47 133.26 L 158.36 134.01 C 158.20 135.06 158.92 136.04 159.96 136.20 C 161.01 136.36 161.99 135.64 162.15 134.59 L 162.26 133.84 C 162.42 132.79 161.70 131.82 160.66 131.66 C 159.61 131.50 158.63 132.22 158.47 133.26 Z M 158.34 134.38 L 158.39 135.55 C 158.43 136.60 159.32 137.43 160.38 137.38 C 161.43 137.34 162.26 136.45 162.21 135.39 L 162.17 134.22 C 162.13 133.17 161.23 132.34 160.18 132.39 C 159.12 132.43 158.30 133.32 158.34 134.38 Z M 158.41 135.72 L 158.57 136.94 C 158.71 137.98 159.67 138.72 160.71 138.58 C 161.76 138.44 162.49 137.48 162.35 136.43 L 162.19 135.22 C 162.06 134.17 161.09 133.44 160.05 133.58 C 159.00 133.72 158.27 134.68 158.41 135.72 Z M 158.60 137.08 L 158.81 138.06 C 159.03 139.09 160.04 139.74 161.07 139.52 C 162.09 139.31 162.75 138.30 162.53 137.27 L 162.32 136.29 C 162.10 135.26 161.09 134.61 160.07 134.82 C 159.04 135.04 158.38 136.05 158.60 137.08 Z M 158.85 138.17 L 159.11 139.12 C 159.39 140.13 160.44 140.71 161.44 140.43 C 162.45 140.15 163.04 139.11 162.76 138.10 L 162.49 137.15 C 162.21 136.15 161.17 135.56 160.16 135.84 C 159.15 136.12 158.57 137.17 158.85 138.17 Z M 159.15 139.20 L 159.46 140.15 C 159.79 141.13 160.85 141.67 161.84 141.34 C 162.83 141.01 163.36 139.95 163.03 138.96 L 162.72 138.02 C 162.39 137.03 161.33 136.50 160.34 136.82 C 159.36 137.15 158.82 138.22 159.15 139.20 Z M 159.49 140.19 L 159.82 141.12 C 160.18 142.09 161.25 142.59 162.22 142.24 C 163.19 141.88 163.70 140.81 163.34 139.84 L 163.01 138.92 C 162.66 137.94 161.58 137.44 160.61 137.80 C 159.64 138.15 159.14 139.22 159.49 140.19 Z M 159.84 141.14 L 160.18 142.05 C 160.55 143.01 161.63 143.50 162.59 143.13 C 163.55 142.76 164.04 141.69 163.67 140.72 L 163.33 139.81 C 162.96 138.85 161.88 138.37 160.92 138.73 C 159.96 139.10 159.47 140.17 159.84 141.14 Z M 160.20 142.06 L 160.56 143.00 C 160.93 143.95 162.01 144.43 162.97 144.06 C 163.92 143.68 164.40 142.61 164.03 141.65 L 163.66 140.71 C 163.29 139.75 162.21 139.28 161.25 139.65 C 160.30 140.03 159.82 141.10 160.20 142.06 Z M 160.57 143.00 L 160.94 143.96 C 161.32 144.91 162.40 145.38 163.35 145.00 C 164.30 144.63 164.77 143.55 164.39 142.60 L 164.02 141.64 C 163.64 140.69 162.57 140.22 161.61 140.60 C 160.66 140.97 160.19 142.05 160.57 143.00 Z M 160.95 143.96 L 161.33 144.92 C 161.70 145.87 162.78 146.34 163.73 145.96 C 164.67 145.59 165.14 144.52 164.77 143.57 L 164.39 142.60 C 164.01 141.65 162.94 141.19 161.99 141.56 C 161.04 141.93 160.58 143.01 160.95 143.96 Z M 161.34 144.92 L 161.71 145.88 C 162.08 146.82 163.15 147.29 164.10 146.92 C 165.04 146.55 165.51 145.48 165.14 144.53 L 164.76 143.57 C 164.39 142.63 163.32 142.16 162.38 142.53 C 161.43 142.90 160.96 143.97 161.34 144.92 Z M 161.72 145.88 L 162.09 146.82 C 162.46 147.76 163.53 148.23 164.47 147.86 C 165.41 147.49 165.87 146.42 165.50 145.48 L 165.13 144.54 C 164.76 143.59 163.70 143.13 162.76 143.50 C 161.81 143.87 161.35 144.93 161.72 145.88 Z M 162.10 146.83 L 162.46 147.74 C 162.84 148.68 163.90 149.14 164.83 148.77 C 165.77 148.39 166.23 147.33 165.86 146.40 L 165.49 145.48 C 165.12 144.54 164.06 144.08 163.12 144.46 C 162.19 144.83 161.73 145.89 162.10 146.83 Z M 162.48 147.75 L 162.84 148.64 C 163.21 149.58 164.27 150.03 165.20 149.65 C 166.13 149.27 166.58 148.21 166.21 147.28 L 165.85 146.39 C 165.47 145.46 164.41 145.01 163.48 145.38 C 162.55 145.76 162.10 146.82 162.48 147.75 Z M 162.85 148.66 L 163.25 149.62 C 163.63 150.54 164.69 150.98 165.61 150.60 C 166.54 150.22 166.98 149.16 166.59 148.24 L 166.20 147.27 C 165.81 146.35 164.75 145.91 163.83 146.29 C 162.91 146.67 162.47 147.73 162.85 148.66 Z M 163.26 149.62 L 163.64 150.54 C 164.02 151.46 165.08 151.89 166.00 151.51 C 166.92 151.12 167.35 150.07 166.97 149.15 L 166.59 148.23 C 166.20 147.31 165.15 146.88 164.23 147.26 C 163.31 147.65 162.87 148.70 163.26 149.62 Z M 163.64 150.52 L 164.01 151.42 C 164.38 152.34 165.43 152.77 166.35 152.40 C 167.27 152.02 167.71 150.97 167.33 150.05 L 166.97 149.16 C 166.59 148.24 165.54 147.80 164.62 148.18 C 163.70 148.56 163.26 149.61 163.64 150.52 Z M 164.00 151.39 L 164.36 152.31 C 164.73 153.23 165.77 153.68 166.69 153.32 C 167.61 152.96 168.06 151.92 167.70 151.00 L 167.34 150.08 C 166.97 149.16 165.93 148.71 165.01 149.07 C 164.09 149.43 163.64 150.47 164.00 151.39 Z M 164.36 152.28 L 164.71 153.22 C 165.06 154.15 166.09 154.61 167.01 154.27 C 167.94 153.92 168.40 152.89 168.06 151.97 L 167.70 151.03 C 167.36 150.10 166.33 149.64 165.40 149.98 C 164.48 150.33 164.01 151.36 164.36 152.28 Z M 164.71 153.20 L 165.05 154.15 C 165.39 155.07 166.41 155.55 167.33 155.21 C 168.26 154.88 168.74 153.85 168.40 152.93 L 168.06 151.99 C 167.72 151.06 166.70 150.58 165.78 150.92 C 164.85 151.26 164.37 152.28 164.71 153.20 Z M 165.05 154.13 L 165.38 155.06 C 165.71 155.99 166.73 156.47 167.65 156.14 C 168.58 155.81 169.06 154.80 168.73 153.87 L 168.40 152.94 C 168.07 152.02 167.06 151.53 166.13 151.86 C 165.21 152.19 164.72 153.21 165.05 154.13 Z M 165.39 155.06 L 165.70 155.96 C 166.03 156.88 167.04 157.37 167.97 157.04 C 168.89 156.72 169.37 155.70 169.05 154.78 L 168.73 153.88 C 168.40 152.95 167.39 152.47 166.47 152.80 C 165.54 153.12 165.06 154.13 165.39 155.06 Z M 165.71 155.96 L 166.04 156.88 C 166.36 157.80 167.37 158.29 168.29 157.96 C 169.21 157.63 169.69 156.63 169.37 155.71 L 169.04 154.78 C 168.72 153.86 167.71 153.38 166.79 153.71 C 165.87 154.03 165.39 155.04 165.71 155.96 Z M 166.05 156.89 L 166.39 157.86 C 166.72 158.78 167.73 159.26 168.65 158.93 C 169.56 158.60 170.04 157.59 169.71 156.68 L 169.36 155.70 C 169.03 154.79 168.02 154.31 167.11 154.64 C 166.19 154.97 165.72 155.97 166.05 156.89 Z M 166.40 157.87 L 166.75 158.81 C 167.08 159.73 168.09 160.19 169.00 159.86 C 169.91 159.53 170.38 158.52 170.04 157.61 L 169.70 156.67 C 169.37 155.76 168.36 155.29 167.45 155.62 C 166.54 155.95 166.07 156.96 166.40 157.87 Z M 166.75 158.82 L 167.10 159.76 C 167.43 160.67 168.44 161.13 169.35 160.80 C 170.25 160.47 170.72 159.46 170.39 158.55 L 170.04 157.61 C 169.71 156.70 168.70 156.24 167.79 156.57 C 166.88 156.90 166.42 157.91 166.75 158.82 Z M 167.10 159.76 L 167.45 160.72 C 167.78 161.62 168.79 162.09 169.69 161.76 C 170.60 161.43 171.07 160.42 170.73 159.51 L 170.38 158.55 C 170.05 157.65 169.05 157.18 168.14 157.51 C 167.23 157.85 166.77 158.85 167.10 159.76 Z M 167.45 160.71 L 167.79 161.66 C 168.12 162.56 169.12 163.03 170.03 162.71 C 170.93 162.38 171.40 161.38 171.08 160.47 L 170.73 159.52 C 170.41 158.62 169.41 158.15 168.50 158.47 C 167.59 158.80 167.12 159.80 167.45 160.71 Z M 167.79 161.64 L 168.11 162.56 C 168.43 163.46 169.42 163.94 170.33 163.62 C 171.24 163.31 171.72 162.31 171.40 161.41 L 171.08 160.49 C 170.76 159.58 169.77 159.10 168.86 159.42 C 167.95 159.74 167.47 160.73 167.79 161.64 Z M 168.10 162.52 L 168.40 163.42 C 168.70 164.33 169.68 164.82 170.59 164.53 C 171.50 164.23 172.00 163.24 171.70 162.33 L 171.41 161.44 C 171.11 160.53 170.13 160.03 169.21 160.33 C 168.30 160.63 167.80 161.61 168.10 162.52 Z M 168.38 163.36 L 168.65 164.28 C 168.92 165.20 169.89 165.73 170.81 165.46 C 171.73 165.19 172.25 164.23 171.98 163.31 L 171.71 162.39 C 171.44 161.47 170.48 160.94 169.56 161.21 C 168.64 161.48 168.11 162.44 168.38 163.36 Z M 168.64 164.22 L 168.89 165.23 C 169.13 166.15 170.07 166.72 170.99 166.48 C 171.92 166.25 172.49 165.31 172.25 164.38 L 172.00 163.37 C 171.77 162.45 170.82 161.88 169.90 162.12 C 168.97 162.35 168.41 163.29 168.64 164.22 Z M 168.88 165.16 L 169.10 166.21 C 169.30 167.14 170.22 167.74 171.15 167.54 C 172.09 167.34 172.68 166.42 172.49 165.49 L 172.26 164.44 C 172.06 163.51 171.15 162.91 170.21 163.11 C 169.28 163.31 168.68 164.23 168.88 165.16 Z M 169.09 166.14 L 169.27 167.14 C 169.43 168.08 170.32 168.71 171.26 168.55 C 172.20 168.38 172.83 167.49 172.67 166.55 L 172.49 165.55 C 172.33 164.61 171.44 163.98 170.50 164.15 C 169.56 164.31 168.93 165.20 169.09 166.14 Z M 169.26 167.04 L 169.38 168.08 C 169.48 169.03 170.34 169.70 171.28 169.60 C 172.23 169.49 172.90 168.63 172.80 167.69 L 172.68 166.65 C 172.57 165.70 171.71 165.03 170.77 165.14 C 169.82 165.24 169.15 166.10 169.26 167.04 Z M 169.37 167.94 L 169.40 168.97 C 169.43 169.92 170.23 170.66 171.18 170.63 C 172.12 170.60 172.87 169.81 172.84 168.86 L 172.80 167.83 C 172.77 166.88 171.98 166.14 171.03 166.17 C 170.08 166.20 169.34 166.99 169.37 167.94 Z M 169.41 168.77 L 169.33 169.74 C 169.25 170.68 169.94 171.51 170.89 171.60 C 171.83 171.68 172.66 170.98 172.74 170.04 L 172.83 169.07 C 172.91 168.12 172.21 167.29 171.27 167.21 C 170.33 167.13 169.50 167.82 169.41 168.77 Z M 169.39 169.43 L 169.13 170.34 C 168.88 171.24 169.41 172.19 170.32 172.44 C 171.23 172.70 172.17 172.17 172.43 171.26 L 172.68 170.35 C 172.94 169.44 172.41 168.50 171.50 168.24 C 170.59 167.99 169.64 168.52 169.39 169.43 Z M 169.31 169.92 L 168.80 170.79 C 168.31 171.60 168.58 172.65 169.39 173.13 C 170.20 173.62 171.25 173.35 171.73 172.54 L 172.25 171.67 C 172.73 170.86 172.46 169.81 171.65 169.33 C 170.84 168.85 169.80 169.11 169.31 169.92 Z M 169.06 170.46 L 168.36 171.16 C 167.69 171.82 167.69 172.90 168.36 173.57 C 169.02 174.24 170.10 174.24 170.77 173.57 L 171.47 172.87 C 172.13 172.21 172.13 171.13 171.47 170.46 C 170.80 169.79 169.72 169.79 169.06 170.46 Z M 168.59 170.96 L 167.78 171.52 C 167.01 172.06 166.81 173.12 167.35 173.90 C 167.88 174.67 168.95 174.86 169.72 174.33 L 170.53 173.77 C 171.31 173.23 171.50 172.17 170.96 171.39 C 170.43 170.62 169.37 170.43 168.59 170.96 Z M 167.94 171.43 L 167.09 171.89 C 166.26 172.33 165.95 173.37 166.39 174.19 C 166.84 175.02 167.87 175.33 168.70 174.89 L 169.56 174.43 C 170.39 173.98 170.70 172.95 170.25 172.12 C 169.81 171.29 168.77 170.98 167.94 171.43 Z M 167.18 171.84 L 166.27 172.26 C 165.41 172.65 165.04 173.66 165.43 174.52 C 165.82 175.37 166.83 175.75 167.68 175.36 L 168.60 174.94 C 169.46 174.55 169.83 173.53 169.44 172.68 C 169.05 171.82 168.04 171.45 167.18 171.84 Z M 166.35 172.22 L 165.44 172.58 C 164.56 172.93 164.13 173.91 164.48 174.79 C 164.82 175.67 165.81 176.10 166.69 175.75 L 167.60 175.39 C 168.47 175.05 168.91 174.06 168.56 173.18 C 168.22 172.31 167.23 171.88 166.35 172.22 Z M 165.52 172.55 L 164.58 172.87 C 163.69 173.17 163.21 174.14 163.51 175.03 C 163.82 175.92 164.78 176.40 165.67 176.10 L 166.61 175.78 C 167.50 175.48 167.98 174.51 167.67 173.62 C 167.37 172.73 166.41 172.25 165.52 172.55 Z M 164.64 172.85 L 163.66 173.14 C 162.76 173.41 162.25 174.36 162.52 175.26 C 162.79 176.16 163.73 176.68 164.64 176.41 L 165.61 176.12 C 166.51 175.85 167.03 174.90 166.76 174.00 C 166.49 173.10 165.54 172.58 164.64 172.85 Z M 163.71 173.13 L 162.77 173.38 C 161.87 173.63 161.33 174.56 161.57 175.47 C 161.82 176.38 162.75 176.91 163.66 176.67 L 164.59 176.42 C 165.50 176.17 166.04 175.24 165.79 174.33 C 165.55 173.42 164.61 172.89 163.71 173.13 Z M 162.81 173.37 L 161.84 173.61 C 160.93 173.83 160.37 174.75 160.59 175.66 C 160.81 176.58 161.74 177.14 162.65 176.92 L 163.62 176.68 C 164.53 176.46 165.09 175.54 164.87 174.62 C 164.65 173.71 163.73 173.15 162.81 173.37 Z M 161.89 173.60 L 160.90 173.81 C 159.98 174.01 159.39 174.91 159.59 175.83 C 159.79 176.75 160.69 177.34 161.61 177.14 L 162.60 176.93 C 163.52 176.73 164.11 175.82 163.91 174.90 C 163.71 173.99 162.81 173.40 161.89 173.60 Z M 160.95 173.80 L 159.95 173.99 C 159.02 174.15 158.41 175.04 158.58 175.96 C 158.75 176.89 159.63 177.50 160.56 177.33 L 161.56 177.15 C 162.48 176.98 163.09 176.09 162.93 175.17 C 162.76 174.25 161.87 173.63 160.95 173.80 Z M 160.01 173.98 L 159.01 174.12 C 158.08 174.26 157.43 175.12 157.57 176.05 C 157.70 176.98 158.57 177.62 159.50 177.49 L 160.50 177.34 C 161.42 177.20 162.07 176.34 161.93 175.41 C 161.80 174.48 160.94 173.84 160.01 173.98 Z M 159.07 174.12 L 158.07 174.22 C 157.14 174.33 156.47 175.16 156.57 176.10 C 156.67 177.03 157.51 177.70 158.44 177.60 L 159.43 177.49 C 160.37 177.39 161.04 176.55 160.94 175.62 C 160.84 174.69 160.00 174.01 159.07 174.12 Z M 158.12 174.22 L 157.13 174.30 C 156.20 174.37 155.50 175.19 155.57 176.12 C 155.65 177.06 156.46 177.75 157.40 177.68 L 158.39 177.60 C 159.32 177.53 160.02 176.71 159.95 175.78 C 159.88 174.85 159.06 174.15 158.12 174.22 Z M 157.18 174.30 L 156.18 174.35 C 155.25 174.40 154.53 175.20 154.58 176.13 C 154.63 177.07 155.42 177.78 156.36 177.73 L 157.35 177.68 C 158.29 177.63 159.01 176.84 158.96 175.90 C 158.91 174.97 158.11 174.25 157.18 174.30 Z M 156.21 174.35 L 155.21 174.38 C 154.27 174.41 153.54 175.20 153.57 176.13 C 153.60 177.07 154.39 177.80 155.32 177.77 L 156.33 177.73 C 157.26 177.70 158.00 176.92 157.96 175.98 C 157.93 175.05 157.15 174.32 156.21 174.35 Z M 155.23 174.38 L 154.21 174.40 C 153.27 174.42 152.53 175.19 152.55 176.13 C 152.57 177.06 153.34 177.81 154.28 177.79 L 155.30 177.77 C 156.23 177.75 156.98 176.98 156.96 176.04 C 156.94 175.11 156.17 174.36 155.23 174.38 Z M 154.23 174.40 L 153.21 174.41 C 152.27 174.42 151.52 175.19 151.53 176.12 C 151.54 177.06 152.31 177.81 153.24 177.80 L 154.26 177.79 C 155.20 177.78 155.95 177.01 155.94 176.08 C 155.93 175.14 155.16 174.39 154.23 174.40 Z M 153.22 174.41 L 152.22 174.42 C 151.29 174.42 150.53 175.18 150.54 176.12 C 150.54 177.05 151.30 177.81 152.24 177.80 L 153.23 177.80 C 154.17 177.80 154.92 177.04 154.92 176.10 C 154.92 175.16 154.16 174.41 153.22 174.41 Z M 152.23 174.42 L 151.27 174.42 C 150.33 174.42 149.57 175.18 149.58 176.11 C 149.58 177.05 150.33 177.81 151.27 177.80 L 152.23 177.80 C 153.17 177.80 153.92 177.04 153.92 176.11 C 153.92 175.17 153.16 174.42 152.23 174.42 Z M 151.27 174.42 L 150.23 174.41 C 149.29 174.41 148.53 175.17 148.53 176.10 C 148.53 177.04 149.28 177.80 150.22 177.80 L 151.27 177.80 C 152.20 177.81 152.96 177.05 152.96 176.11 C 152.97 175.18 152.21 174.42 151.27 174.42 Z M 150.25 174.41 L 149.25 174.40 C 148.32 174.38 147.55 175.13 147.53 176.06 C 147.51 177.00 148.26 177.77 149.19 177.78 L 150.19 177.80 C 151.13 177.82 151.90 177.07 151.92 176.14 C 151.93 175.20 151.19 174.43 150.25 174.41 Z M 149.31 174.40 L 148.33 174.35 C 147.40 174.31 146.60 175.03 146.56 175.96 C 146.51 176.90 147.23 177.69 148.17 177.74 L 149.14 177.78 C 150.08 177.83 150.87 177.11 150.92 176.17 C 150.96 175.24 150.24 174.44 149.31 174.40 Z M 148.41 174.36 L 147.47 174.27 C 146.54 174.18 145.71 174.86 145.62 175.80 C 145.53 176.73 146.22 177.55 147.15 177.64 L 148.09 177.73 C 149.02 177.82 149.85 177.13 149.94 176.20 C 150.02 175.27 149.34 174.44 148.41 174.36 Z M 147.56 174.28 L 146.70 174.15 C 145.77 174.01 144.91 174.65 144.77 175.58 C 144.63 176.50 145.27 177.37 146.20 177.50 L 147.06 177.63 C 147.99 177.77 148.85 177.13 148.99 176.20 C 149.12 175.28 148.48 174.42 147.56 174.28 Z M 146.79 174.17 L 145.88 173.98 C 144.96 173.79 144.06 174.38 143.87 175.29 C 143.68 176.21 144.27 177.11 145.19 177.30 L 146.10 177.49 C 147.02 177.68 147.92 177.09 148.11 176.17 C 148.30 175.26 147.71 174.36 146.79 174.17 Z M 145.97 174.00 L 144.97 173.73 C 144.07 173.49 143.14 174.03 142.90 174.93 C 142.65 175.84 143.19 176.77 144.10 177.01 L 145.10 177.28 C 146.00 177.52 146.93 176.98 147.17 176.07 C 147.41 175.17 146.87 174.24 145.97 174.00 Z M 145.05 173.75 L 143.93 173.40 C 143.04 173.11 142.08 173.60 141.80 174.50 C 141.51 175.39 142.01 176.34 142.90 176.63 L 144.02 176.99 C 144.91 177.27 145.86 176.78 146.15 175.89 C 146.43 174.99 145.94 174.04 145.05 173.75 Z M 143.99 173.41 L 143.11 173.10 C 142.22 172.78 141.25 173.24 140.94 174.12 C 140.62 175.01 141.08 175.98 141.96 176.29 L 142.84 176.61 C 143.73 176.93 144.70 176.47 145.01 175.58 C 145.33 174.70 144.87 173.73 143.99 173.41 Z M 143.14 173.11 L 142.23 172.76 C 141.36 172.43 140.37 172.86 140.04 173.74 C 139.70 174.62 140.14 175.60 141.01 175.93 L 141.92 176.28 C 142.80 176.62 143.78 176.18 144.12 175.31 C 144.46 174.43 144.02 173.45 143.14 173.11 Z M 142.26 172.77 L 141.32 172.39 C 140.45 172.03 139.46 172.45 139.10 173.32 C 138.75 174.19 139.17 175.19 140.04 175.54 L 140.98 175.92 C 141.85 176.28 142.85 175.86 143.20 174.99 C 143.55 174.12 143.13 173.13 142.26 172.77 Z M 141.35 172.40 L 140.39 171.99 C 139.53 171.62 138.53 172.02 138.16 172.89 C 137.79 173.75 138.19 174.75 139.06 175.12 L 140.01 175.53 C 140.88 175.90 141.88 175.50 142.25 174.63 C 142.62 173.77 142.22 172.77 141.35 172.40 Z M 140.42 172.00 L 139.48 171.57 C 138.62 171.19 137.61 171.57 137.22 172.43 C 136.83 173.29 137.22 174.30 138.08 174.69 L 139.03 175.11 C 139.89 175.50 140.90 175.11 141.28 174.25 C 141.67 173.40 141.28 172.39 140.42 172.00 Z M 139.51 171.59 L 138.59 171.15 C 137.73 170.75 136.72 171.11 136.31 171.97 C 135.91 172.82 136.28 173.84 137.13 174.24 L 138.05 174.68 C 138.90 175.08 139.92 174.71 140.32 173.86 C 140.72 173.01 140.36 171.99 139.51 171.59 Z M 138.62 171.17 L 137.68 170.70 C 136.84 170.27 135.81 170.62 135.39 171.46 C 134.96 172.31 135.31 173.33 136.15 173.75 L 137.09 174.23 C 137.94 174.65 138.97 174.31 139.39 173.46 C 139.81 172.62 139.47 171.59 138.62 171.17 Z M 137.72 170.71 L 136.80 170.22 C 135.97 169.78 134.93 170.10 134.49 170.93 C 134.04 171.76 134.36 172.80 135.19 173.25 L 136.11 173.74 C 136.94 174.18 137.98 173.86 138.43 173.03 C 138.87 172.20 138.55 171.16 137.72 170.71 Z M 136.84 170.25 L 135.97 169.75 C 135.15 169.28 134.10 169.57 133.64 170.40 C 133.17 171.22 133.46 172.27 134.28 172.73 L 135.15 173.23 C 135.97 173.69 137.02 173.40 137.49 172.58 C 137.95 171.76 137.67 170.71 136.84 170.25 Z M 136.01 169.77 L 135.18 169.27 C 134.37 168.78 133.31 169.04 132.82 169.86 C 132.34 170.67 132.60 171.72 133.41 172.21 L 134.24 172.71 C 135.05 173.20 136.11 172.94 136.60 172.13 C 137.09 171.32 136.82 170.26 136.01 169.77 Z M 135.21 169.29 L 134.40 168.78 C 133.60 168.27 132.54 168.50 132.03 169.31 C 131.52 170.11 131.76 171.17 132.56 171.68 L 133.37 172.19 C 134.17 172.70 135.24 172.46 135.74 171.66 C 136.25 170.86 136.02 169.80 135.21 169.29 Z M 134.43 168.79 L 133.63 168.26 C 132.84 167.74 131.77 167.95 131.25 168.75 C 130.72 169.54 130.94 170.60 131.73 171.13 L 132.53 171.66 C 133.32 172.18 134.39 171.97 134.92 171.18 C 135.44 170.38 135.22 169.32 134.43 168.79 Z M 133.66 168.28 L 132.86 167.73 C 132.08 167.19 131.01 167.39 130.47 168.17 C 129.93 168.96 130.13 170.03 130.91 170.57 L 131.71 171.11 C 132.49 171.65 133.56 171.45 134.10 170.67 C 134.64 169.89 134.44 168.81 133.66 168.28 Z M 132.89 167.75 L 132.09 167.18 C 131.31 166.63 130.24 166.81 129.69 167.58 C 129.13 168.36 129.31 169.43 130.09 169.98 L 130.89 170.55 C 131.66 171.10 132.74 170.92 133.29 170.15 C 133.84 169.37 133.66 168.30 132.89 167.75 Z M 132.12 167.19 L 131.31 166.60 C 130.55 166.03 129.47 166.20 128.90 166.96 C 128.34 167.73 128.50 168.81 129.26 169.37 L 130.06 169.97 C 130.83 170.53 131.91 170.37 132.47 169.61 C 133.04 168.84 132.88 167.76 132.12 167.19 Z M 131.34 166.62 L 130.54 166.00 C 129.78 165.42 128.70 165.56 128.12 166.31 C 127.54 167.07 127.68 168.15 128.43 168.74 L 129.23 169.35 C 129.99 169.94 131.07 169.80 131.65 169.04 C 132.24 168.29 132.10 167.20 131.34 166.62 Z M 130.57 166.02 L 129.76 165.38 C 129.02 164.78 127.93 164.90 127.34 165.64 C 126.74 166.38 126.86 167.47 127.60 168.07 L 128.40 168.71 C 129.15 169.31 130.23 169.19 130.83 168.45 C 131.43 167.71 131.31 166.62 130.57 166.02 Z M 129.79 165.40 L 129.01 164.74 C 128.28 164.13 127.19 164.23 126.58 164.96 C 125.96 165.69 126.06 166.78 126.79 167.39 L 127.57 168.05 C 128.30 168.66 129.39 168.57 130.01 167.83 C 130.62 167.10 130.53 166.01 129.79 165.40 Z M 129.04 164.77 L 128.29 164.11 C 127.57 163.48 126.48 163.55 125.85 164.27 C 125.22 164.99 125.29 166.08 126.01 166.71 L 126.76 167.37 C 127.48 168.00 128.58 167.93 129.21 167.21 C 129.84 166.49 129.76 165.40 129.04 164.77 Z M 128.32 164.13 L 127.57 163.45 C 126.87 162.81 125.77 162.86 125.13 163.56 C 124.48 164.27 124.53 165.37 125.24 166.01 L 125.98 166.69 C 126.69 167.34 127.79 167.28 128.43 166.58 C 129.07 165.87 129.02 164.78 128.32 164.13 Z M 127.60 163.48 L 126.87 162.78 C 126.18 162.12 125.08 162.15 124.42 162.84 C 123.76 163.53 123.79 164.63 124.48 165.29 L 125.21 165.99 C 125.90 166.65 127.00 166.62 127.66 165.93 C 128.32 165.23 128.30 164.14 127.60 163.48 Z M 126.90 162.81 L 126.19 162.10 C 125.51 161.42 124.41 161.42 123.74 162.10 C 123.06 162.78 123.06 163.88 123.74 164.56 L 124.45 165.26 C 125.13 165.94 126.23 165.94 126.90 165.26 C 127.58 164.58 127.58 163.48 126.90 162.81 Z M 126.22 162.13 L 125.54 161.41 C 124.87 160.72 123.77 160.69 123.08 161.35 C 122.39 162.01 122.36 163.11 123.02 163.81 L 123.71 164.53 C 124.37 165.22 125.47 165.25 126.16 164.58 C 126.86 163.92 126.88 162.82 126.22 162.13 Z M 125.57 161.44 L 124.89 160.69 C 124.25 159.98 123.15 159.92 122.44 160.57 C 121.72 161.21 121.67 162.31 122.31 163.02 L 122.99 163.77 C 123.63 164.49 124.73 164.54 125.45 163.90 C 126.16 163.26 126.21 162.16 125.57 161.44 Z M 124.93 160.73 L 124.27 159.95 C 123.64 159.22 122.55 159.13 121.81 159.75 C 121.08 160.37 120.99 161.47 121.61 162.21 L 122.27 162.99 C 122.90 163.72 124.00 163.81 124.73 163.18 C 125.46 162.56 125.55 161.46 124.93 160.73 Z M 124.30 159.99 L 123.68 159.21 C 123.08 158.45 121.98 158.33 121.23 158.93 C 120.47 159.53 120.35 160.62 120.95 161.38 L 121.57 162.16 C 122.17 162.92 123.27 163.04 124.03 162.44 C 124.78 161.84 124.90 160.75 124.30 159.99 Z M 123.72 159.25 L 123.13 158.46 C 122.55 157.68 121.46 157.52 120.68 158.09 C 119.91 158.67 119.75 159.76 120.32 160.54 L 120.91 161.33 C 121.49 162.11 122.58 162.27 123.35 161.69 C 124.13 161.12 124.29 160.03 123.72 159.25 Z M 123.16 158.50 L 122.60 157.69 C 122.06 156.90 120.97 156.70 120.17 157.25 C 119.38 157.80 119.18 158.88 119.73 159.68 L 120.28 160.49 C 120.83 161.28 121.92 161.48 122.72 160.94 C 123.51 160.39 123.71 159.30 123.16 158.50 Z M 122.64 157.74 L 122.11 156.92 C 121.59 156.10 120.51 155.87 119.69 156.39 C 118.88 156.91 118.64 157.99 119.16 158.81 L 119.69 159.63 C 120.21 160.44 121.29 160.68 122.11 160.16 C 122.92 159.64 123.16 158.56 122.64 157.74 Z M 122.15 156.97 L 121.65 156.12 C 121.15 155.29 120.08 155.01 119.24 155.50 C 118.41 156.00 118.13 157.07 118.63 157.90 L 119.13 158.75 C 119.62 159.59 120.70 159.87 121.53 159.37 C 122.36 158.88 122.64 157.80 122.15 156.97 Z M 121.68 156.17 L 121.21 155.30 C 120.74 154.45 119.68 154.14 118.82 154.60 C 117.97 155.06 117.66 156.13 118.12 156.98 L 118.59 157.85 C 119.06 158.70 120.12 159.02 120.97 158.56 C 121.83 158.09 122.14 157.03 121.68 156.17 Z M 121.24 155.36 L 120.79 154.47 C 120.36 153.60 119.30 153.25 118.43 153.68 C 117.56 154.11 117.21 155.17 117.64 156.04 L 118.09 156.93 C 118.52 157.80 119.58 158.15 120.45 157.72 C 121.32 157.28 121.67 156.23 121.24 155.36 Z M 120.82 154.52 L 120.41 153.61 C 120.00 152.72 118.96 152.33 118.07 152.74 C 117.19 153.14 116.80 154.19 117.20 155.07 L 117.62 155.98 C 118.02 156.87 119.06 157.26 119.95 156.86 C 120.84 156.45 121.23 155.41 120.82 154.52 Z M 120.43 153.66 L 120.05 152.73 C 119.67 151.83 118.64 151.40 117.74 151.77 C 116.84 152.15 116.41 153.18 116.79 154.08 L 117.17 155.02 C 117.55 155.92 118.58 156.35 119.48 155.97 C 120.38 155.60 120.81 154.57 120.43 153.66 Z M 120.07 152.78 L 119.72 151.84 C 119.37 150.92 118.35 150.46 117.44 150.80 C 116.52 151.15 116.06 152.17 116.40 153.08 L 116.76 154.03 C 117.10 154.94 118.13 155.40 119.04 155.06 C 119.95 154.72 120.42 153.70 120.07 152.78 Z M 119.74 151.89 L 119.41 150.94 C 119.10 150.01 118.09 149.52 117.17 149.83 C 116.24 150.15 115.74 151.16 116.06 152.08 L 116.38 153.03 C 116.70 153.96 117.70 154.45 118.63 154.14 C 119.56 153.82 120.05 152.82 119.74 151.89 Z M 119.44 150.99 L 119.14 150.03 C 118.85 149.09 117.86 148.56 116.92 148.85 C 115.99 149.14 115.46 150.13 115.74 151.07 L 116.04 152.03 C 116.33 152.97 117.32 153.50 118.26 153.21 C 119.19 152.92 119.72 151.93 119.44 150.99 Z M 119.16 150.08 L 118.90 149.11 C 118.64 148.16 117.66 147.60 116.71 147.86 C 115.77 148.11 115.20 149.09 115.46 150.04 L 115.72 151.01 C 115.98 151.96 116.96 152.52 117.91 152.27 C 118.86 152.01 119.42 151.03 119.16 150.08 Z M 118.92 149.17 L 118.69 148.19 C 118.46 147.23 117.50 146.64 116.54 146.87 C 115.58 147.09 114.99 148.05 115.21 149.01 L 115.44 149.98 C 115.67 150.94 116.63 151.54 117.59 151.31 C 118.55 151.09 119.14 150.13 118.92 149.17 Z M 118.70 148.25 L 118.51 147.28 C 118.32 146.32 117.38 145.69 116.41 145.88 C 115.44 146.07 114.81 147.01 115.01 147.98 L 115.20 148.95 C 115.39 149.92 116.33 150.55 117.30 150.35 C 118.27 150.16 118.89 149.22 118.70 148.25 Z M 118.53 147.35 L 118.37 146.35 C 118.21 145.37 117.30 144.71 116.32 144.86 C 115.34 145.01 114.68 145.93 114.83 146.91 L 114.99 147.91 C 115.14 148.89 116.06 149.55 117.04 149.40 C 118.01 149.24 118.68 148.33 118.53 147.35 Z M 118.38 146.42 L 118.26 145.41 C 118.14 144.43 117.25 143.72 116.27 143.84 C 115.28 143.96 114.58 144.85 114.70 145.83 L 114.82 146.84 C 114.94 147.82 115.83 148.53 116.81 148.41 C 117.80 148.29 118.50 147.40 118.38 146.42 Z M 118.27 145.47 L 118.19 144.47 C 118.10 143.49 117.23 142.75 116.24 142.84 C 115.25 142.92 114.52 143.79 114.60 144.78 L 114.69 145.77 C 114.77 146.76 115.64 147.50 116.63 147.41 C 117.62 147.33 118.35 146.46 118.27 145.47 Z M 118.19 144.53 L 118.14 143.54 C 118.08 142.54 117.23 141.78 116.24 141.84 C 115.25 141.90 114.49 142.74 114.54 143.74 L 114.60 144.73 C 114.65 145.72 115.50 146.48 116.50 146.42 C 117.49 146.37 118.25 145.52 118.19 144.53 Z M 118.14 143.58 L 118.11 142.59 C 118.08 141.60 117.24 140.82 116.25 140.85 C 115.25 140.88 114.47 141.71 114.51 142.71 L 114.54 143.70 C 114.57 144.69 115.40 145.47 116.40 145.44 C 117.39 145.41 118.17 144.57 118.14 143.58 Z M 118.11 142.62 L 118.10 141.64 C 118.08 140.64 117.26 139.85 116.27 139.86 C 115.27 139.88 114.47 140.70 114.49 141.70 L 114.50 142.68 C 114.52 143.68 115.34 144.47 116.33 144.46 C 117.33 144.44 118.13 143.62 118.11 142.62 Z M 118.10 141.67 L 118.10 140.69 C 118.11 139.69 117.30 138.88 116.30 138.88 C 115.30 138.88 114.49 139.68 114.49 140.68 L 114.48 141.66 C 114.48 142.66 115.29 143.47 116.29 143.48 C 117.29 143.48 118.10 142.67 118.10 141.67 Z M 118.11 140.74 L 118.13 139.75 C 118.16 138.75 117.37 137.92 116.37 137.89 C 115.37 137.86 114.54 138.65 114.51 139.65 L 114.49 140.64 C 114.46 141.64 115.25 142.47 116.25 142.50 C 117.25 142.52 118.08 141.73 118.11 140.74 Z M 118.13 139.81 L 118.19 138.81 C 118.25 137.81 117.48 136.95 116.48 136.90 C 115.48 136.84 114.63 137.60 114.57 138.60 L 114.51 139.60 C 114.45 140.60 115.22 141.45 116.22 141.51 C 117.22 141.57 118.07 140.81 118.13 139.81 Z M 118.19 138.88 L 118.28 137.87 C 118.38 136.88 117.65 135.99 116.65 135.89 C 115.65 135.80 114.76 136.53 114.67 137.53 L 114.57 138.53 C 114.48 139.53 115.21 140.42 116.21 140.51 C 117.20 140.61 118.09 139.88 118.19 138.88 Z M 118.28 137.95 L 118.42 136.93 C 118.56 135.94 117.86 135.02 116.87 134.88 C 115.88 134.74 114.96 135.44 114.82 136.43 L 114.68 137.45 C 114.54 138.44 115.23 139.36 116.22 139.50 C 117.22 139.64 118.14 138.95 118.28 137.95 Z M 118.41 137.01 L 118.57 136.12 C 118.76 135.13 118.10 134.18 117.12 134.00 C 116.13 133.81 115.18 134.47 114.99 135.45 L 114.83 136.35 C 114.65 137.34 115.30 138.29 116.29 138.47 C 117.27 138.65 118.22 138.00 118.41 137.01 Z M 118.56 136.19 L 118.77 135.29 C 118.99 134.31 118.38 133.33 117.40 133.11 C 116.42 132.88 115.44 133.49 115.21 134.48 L 115.01 135.38 C 114.78 136.36 115.40 137.34 116.38 137.56 C 117.36 137.79 118.34 137.17 118.56 136.19 Z M 118.75 135.36 L 119.01 134.44 C 119.27 133.46 118.70 132.46 117.73 132.19 C 116.75 131.93 115.75 132.50 115.48 133.47 L 115.23 134.40 C 114.96 135.37 115.54 136.38 116.51 136.64 C 117.48 136.91 118.49 136.34 118.75 135.36 Z M 118.99 134.51 L 119.29 133.55 C 119.59 132.59 119.06 131.56 118.10 131.26 C 117.14 130.95 116.11 131.49 115.80 132.45 L 115.50 133.40 C 115.20 134.37 115.73 135.39 116.69 135.70 C 117.65 136.00 118.68 135.47 118.99 134.51 Z M 119.27 133.62 L 119.62 132.64 C 119.96 131.68 119.47 130.64 118.52 130.29 C 117.57 129.95 116.52 130.45 116.18 131.40 L 115.82 132.38 C 115.48 133.33 115.98 134.38 116.93 134.72 C 117.88 135.07 118.93 134.57 119.27 133.62 Z M 119.60 132.70 L 120.01 131.68 C 120.39 130.74 119.93 129.67 118.99 129.29 C 118.05 128.92 116.98 129.37 116.61 130.31 L 116.20 131.34 C 115.82 132.28 116.28 133.34 117.22 133.72 C 118.16 134.09 119.23 133.64 119.60 132.70 Z M 119.99 131.73 L 120.40 130.79 C 120.81 129.86 120.39 128.78 119.46 128.37 C 118.53 127.96 117.45 128.39 117.04 129.31 L 116.63 130.26 C 116.22 131.19 116.64 132.27 117.57 132.68 C 118.50 133.08 119.58 132.66 119.99 131.73 Z M 120.39 130.83 L 120.81 129.94 C 121.24 129.02 120.84 127.92 119.92 127.49 C 119.00 127.06 117.91 127.46 117.48 128.38 L 117.06 129.27 C 116.63 130.19 117.02 131.28 117.94 131.72 C 118.86 132.15 119.96 131.75 120.39 130.83 Z M 120.79 129.97 L 121.24 129.07 C 121.69 128.16 121.32 127.05 120.41 126.60 C 119.50 126.15 118.39 126.52 117.94 127.43 L 117.49 128.34 C 117.04 129.25 117.41 130.36 118.32 130.81 C 119.24 131.26 120.34 130.89 120.79 129.97 Z M 121.23 129.10 L 121.70 128.19 C 122.17 127.29 121.82 126.17 120.92 125.70 C 120.01 125.23 118.90 125.58 118.43 126.49 L 117.95 127.40 C 117.48 128.30 117.83 129.42 118.74 129.89 C 119.64 130.36 120.76 130.01 121.23 129.10 Z M 121.69 128.22 L 122.18 127.32 C 122.67 126.43 122.34 125.30 121.44 124.82 C 120.54 124.33 119.42 124.66 118.93 125.55 L 118.44 126.46 C 117.95 127.35 118.28 128.47 119.18 128.96 C 120.08 129.45 121.20 129.12 121.69 128.22 Z M 122.16 127.36 L 122.67 126.47 C 123.17 125.58 122.86 124.45 121.98 123.95 C 121.09 123.44 119.96 123.75 119.45 124.64 L 118.95 125.52 C 118.44 126.41 118.75 127.54 119.64 128.05 C 120.53 128.55 121.66 128.24 122.16 127.36 Z M 122.65 126.50 L 123.16 125.65 C 123.69 124.77 123.40 123.63 122.52 123.10 C 121.64 122.58 120.50 122.87 119.98 123.75 L 119.47 124.61 C 118.94 125.49 119.23 126.62 120.11 127.15 C 120.99 127.67 122.13 127.38 122.65 126.50 Z M 123.15 125.68 L 123.66 124.86 C 124.20 123.99 123.93 122.85 123.06 122.30 C 122.19 121.76 121.04 122.03 120.50 122.90 L 119.99 123.72 C 119.45 124.59 119.72 125.73 120.59 126.27 C 121.46 126.82 122.60 126.55 123.15 125.68 Z M 123.63 124.90 L 124.27 123.93 C 124.83 123.08 124.60 121.92 123.74 121.36 C 122.88 120.79 121.72 121.03 121.16 121.89 L 120.52 122.86 C 119.96 123.72 120.20 124.87 121.06 125.43 C 121.92 126.00 123.07 125.76 123.63 124.90 Z M 124.24 123.98 L 124.88 123.06 C 125.47 122.22 125.26 121.06 124.42 120.47 C 123.57 119.88 122.41 120.09 121.82 120.93 L 121.19 121.85 C 120.60 122.69 120.80 123.85 121.65 124.44 C 122.49 125.03 123.66 124.82 124.24 123.98 Z M 124.85 123.11 L 125.47 122.27 C 126.08 121.44 125.90 120.27 125.07 119.66 C 124.24 119.05 123.08 119.22 122.46 120.05 L 121.85 120.89 C 121.24 121.72 121.41 122.89 122.24 123.50 C 123.07 124.11 124.24 123.94 124.85 123.11 Z M 125.45 122.31 L 126.04 121.54 C 126.67 120.72 126.52 119.55 125.70 118.92 C 124.89 118.28 123.71 118.43 123.08 119.25 L 122.49 120.02 C 121.86 120.83 122.01 122.01 122.82 122.64 C 123.64 123.27 124.82 123.12 125.45 122.31 Z M 126.02 121.57 L 126.58 120.87 C 127.23 120.07 127.11 118.89 126.30 118.24 C 125.50 117.59 124.32 117.71 123.67 118.52 L 123.10 119.22 C 122.45 120.02 122.58 121.20 123.38 121.85 C 124.19 122.50 125.37 122.38 126.02 121.57 Z M 126.56 120.90 L 127.10 120.26 C 127.76 119.47 127.66 118.29 126.86 117.62 C 126.07 116.96 124.88 117.06 124.22 117.86 L 123.69 118.49 C 123.02 119.29 123.13 120.47 123.92 121.13 C 124.72 121.80 125.90 121.69 126.56 120.90 Z M 127.08 120.29 L 127.75 119.51 C 128.43 118.73 128.35 117.54 127.57 116.86 C 126.78 116.18 125.60 116.26 124.92 117.05 L 124.24 117.83 C 123.56 118.61 123.64 119.80 124.43 120.48 C 125.21 121.16 126.40 121.08 127.08 120.29 Z M 127.72 119.56 L 128.38 118.84 C 129.08 118.08 129.04 116.89 128.27 116.18 C 127.51 115.48 126.32 115.52 125.61 116.29 L 124.95 117.00 C 124.25 117.77 124.29 118.96 125.06 119.66 C 125.82 120.37 127.01 120.32 127.72 119.56 Z M 128.33 118.90 L 129.00 118.22 C 129.74 117.49 129.74 116.30 129.01 115.56 C 128.27 114.82 127.08 114.82 126.34 115.55 L 125.67 116.23 C 124.93 116.96 124.93 118.16 125.66 118.89 C 126.40 119.63 127.59 119.63 128.33 118.90 Z M 128.94 118.29 L 129.69 117.61 C 130.46 116.91 130.51 115.72 129.81 114.95 C 129.11 114.17 127.92 114.12 127.14 114.82 L 126.40 115.49 C 125.63 116.19 125.58 117.39 126.28 118.16 C 126.98 118.93 128.17 118.99 128.94 118.29 Z M 129.63 117.66 L 130.35 117.06 C 131.15 116.38 131.25 115.19 130.58 114.39 C 129.91 113.59 128.71 113.49 127.92 114.16 L 127.20 114.77 C 126.40 115.44 126.30 116.63 126.97 117.43 C 127.64 118.23 128.83 118.33 129.63 117.66 Z M 130.31 117.09 L 131.05 116.51 C 131.86 115.86 132.00 114.67 131.35 113.85 C 130.70 113.03 129.51 112.89 128.69 113.54 L 127.96 114.13 C 127.14 114.78 127.00 115.97 127.65 116.79 C 128.30 117.60 129.49 117.74 130.31 117.09 Z M 131.01 116.54 L 131.80 115.94 C 132.64 115.31 132.81 114.13 132.18 113.29 C 131.55 112.45 130.36 112.29 129.53 112.91 L 128.73 113.51 C 127.90 114.14 127.73 115.33 128.36 116.16 C 128.98 117.00 130.17 117.17 131.01 116.54 Z M 131.76 115.97 L 132.61 115.37 C 133.46 114.77 133.66 113.58 133.05 112.73 C 132.45 111.88 131.26 111.68 130.41 112.28 L 129.57 112.88 C 128.71 113.49 128.51 114.67 129.12 115.53 C 129.73 116.38 130.91 116.58 131.76 115.97 Z M 132.57 115.40 L 133.45 114.81 C 134.32 114.23 134.55 113.05 133.96 112.18 C 133.38 111.31 132.20 111.08 131.33 111.66 L 130.45 112.25 C 129.58 112.84 129.35 114.02 129.93 114.89 C 130.52 115.76 131.70 115.99 132.57 115.40 Z M 133.40 114.84 L 134.29 114.29 C 135.18 113.73 135.44 112.55 134.88 111.67 C 134.32 110.78 133.15 110.51 132.26 111.07 L 131.38 111.63 C 130.49 112.19 130.22 113.36 130.78 114.25 C 131.34 115.14 132.52 115.40 133.40 114.84 Z M 134.24 114.32 L 135.09 113.81 C 136.00 113.28 136.30 112.11 135.76 111.21 C 135.22 110.30 134.06 110.00 133.16 110.54 L 132.31 111.04 C 131.40 111.58 131.10 112.74 131.64 113.65 C 132.17 114.55 133.34 114.85 134.24 114.32 Z M 135.05 113.84 L 135.92 113.35 C 136.84 112.84 137.16 111.68 136.65 110.76 C 136.14 109.85 134.98 109.52 134.06 110.03 L 133.20 110.51 C 132.28 111.03 131.95 112.19 132.46 113.10 C 132.98 114.02 134.14 114.35 135.05 113.84 Z M 135.88 113.37 L 136.76 112.91 C 137.69 112.42 138.05 111.26 137.55 110.33 C 137.06 109.41 135.91 109.05 134.98 109.54 L 134.10 110.01 C 133.17 110.50 132.81 111.65 133.31 112.58 C 133.80 113.51 134.95 113.87 135.88 113.37 Z M 136.73 112.93 L 137.62 112.48 C 138.56 112.00 138.94 110.86 138.47 109.92 C 137.99 108.98 136.85 108.60 135.91 109.07 L 135.01 109.52 C 134.07 110.00 133.69 111.14 134.17 112.08 C 134.64 113.02 135.79 113.40 136.73 112.93 Z M 137.60 112.49 L 138.51 112.05 C 139.46 111.59 139.85 110.45 139.40 109.50 C 138.94 108.56 137.80 108.16 136.85 108.62 L 135.94 109.06 C 134.99 109.51 134.59 110.65 135.05 111.60 C 135.51 112.55 136.65 112.95 137.60 112.49 Z M 138.48 112.06 L 139.41 111.64 C 140.36 111.19 140.78 110.06 140.33 109.10 C 139.89 108.14 138.75 107.73 137.80 108.17 L 136.87 108.60 C 135.92 109.05 135.50 110.18 135.95 111.14 C 136.39 112.09 137.53 112.51 138.48 112.06 Z M 139.38 111.65 L 140.31 111.23 C 141.28 110.80 141.71 109.67 141.28 108.71 C 140.84 107.74 139.71 107.31 138.75 107.74 L 137.82 108.16 C 136.86 108.59 136.43 109.72 136.86 110.68 C 137.29 111.65 138.42 112.08 139.38 111.65 Z M 140.29 111.24 L 141.22 110.84 C 142.19 110.43 142.64 109.30 142.22 108.33 C 141.81 107.36 140.69 106.91 139.72 107.33 L 138.78 107.73 C 137.81 108.15 137.36 109.27 137.78 110.24 C 138.19 111.21 139.32 111.66 140.29 111.24 Z M 141.19 110.86 L 142.13 110.47 C 143.10 110.08 143.57 108.96 143.18 107.98 C 142.78 107.00 141.66 106.54 140.68 106.93 L 139.75 107.32 C 138.77 107.71 138.30 108.83 138.70 109.81 C 139.10 110.79 140.21 111.26 141.19 110.86 Z M 142.09 110.49 L 143.02 110.13 C 144.01 109.76 144.50 108.65 144.12 107.66 C 143.74 106.68 142.64 106.18 141.65 106.56 L 140.72 106.92 C 139.73 107.30 139.24 108.40 139.62 109.39 C 140.00 110.38 141.10 110.87 142.09 110.49 Z M 142.98 110.15 L 143.89 109.83 C 144.89 109.47 145.41 108.38 145.05 107.38 C 144.70 106.38 143.60 105.86 142.61 106.22 L 141.69 106.54 C 140.70 106.90 140.18 107.99 140.53 108.99 C 140.88 109.99 141.98 110.51 142.98 110.15 Z M 143.84 109.84 L 144.80 109.53 C 145.81 109.21 146.36 108.13 146.04 107.12 C 145.71 106.11 144.63 105.56 143.62 105.89 L 142.66 106.20 C 141.65 106.52 141.10 107.60 141.43 108.61 C 141.75 109.62 142.83 110.17 143.84 109.84 Z M 144.74 109.55 L 145.74 109.27 C 146.76 108.98 147.35 107.92 147.06 106.90 C 146.77 105.88 145.70 105.29 144.69 105.58 L 143.69 105.87 C 142.67 106.16 142.08 107.22 142.37 108.24 C 142.66 109.26 143.72 109.84 144.74 109.55 Z M 145.68 109.29 L 146.66 109.04 C 147.68 108.79 148.31 107.75 148.05 106.72 C 147.80 105.69 146.76 105.06 145.73 105.32 L 144.75 105.56 C 143.72 105.82 143.10 106.86 143.35 107.89 C 143.61 108.92 144.65 109.54 145.68 109.29 Z M 146.59 109.06 L 147.56 108.85 C 148.59 108.63 149.25 107.61 149.03 106.57 C 148.81 105.54 147.79 104.87 146.75 105.10 L 145.79 105.30 C 144.75 105.53 144.09 106.55 144.31 107.58 C 144.54 108.62 145.56 109.28 146.59 109.06 Z M 147.50 108.87 L 148.45 108.69 C 149.49 108.50 150.18 107.50 149.99 106.46 C 149.80 105.41 148.80 104.72 147.75 104.91 L 146.81 105.08 C 145.76 105.28 145.07 106.28 145.26 107.32 C 145.45 108.36 146.45 109.06 147.50 108.87 Z M 148.39 108.70 L 149.32 108.56 C 150.37 108.40 151.09 107.41 150.93 106.36 C 150.77 105.31 149.79 104.60 148.74 104.76 L 147.81 104.90 C 146.76 105.06 146.04 106.05 146.20 107.10 C 146.36 108.15 147.34 108.86 148.39 108.70 Z M 149.27 108.57 L 150.19 108.45 C 151.25 108.31 151.99 107.35 151.86 106.30 C 151.72 105.24 150.76 104.50 149.70 104.63 L 148.79 104.75 C 147.73 104.88 146.99 105.85 147.12 106.90 C 147.26 107.96 148.22 108.70 149.27 108.57 Z M 150.14 108.46 L 151.08 108.36 C 152.14 108.25 152.91 107.31 152.80 106.25 C 152.70 105.19 151.75 104.42 150.69 104.53 L 149.75 104.63 C 148.70 104.73 147.93 105.68 148.03 106.73 C 148.14 107.79 149.08 108.56 150.14 108.46 Z M 151.03 108.36 L 152.02 108.29 C 153.08 108.21 153.87 107.29 153.79 106.23 C 153.71 105.17 152.79 104.37 151.73 104.45 L 150.74 104.52 C 149.68 104.60 148.89 105.53 148.97 106.59 C 149.05 107.65 149.97 108.44 151.03 108.36 Z M 151.97 108.29 L 153.02 108.24 C 154.08 108.19 154.90 107.28 154.84 106.22 C 154.79 105.16 153.88 104.34 152.82 104.39 L 151.77 104.45 C 150.71 104.50 149.89 105.41 149.95 106.47 C 150.00 107.53 150.91 108.35 151.97 108.29 Z M 152.98 108.24 L 154.09 108.21 C 155.16 108.18 155.99 107.29 155.96 106.23 C 155.93 105.16 155.04 104.33 153.98 104.36 L 152.86 104.39 C 151.80 104.42 150.96 105.31 150.99 106.38 C 151.02 107.44 151.91 108.28 152.98 108.24 Z M 154.06 108.21 L 155.01 108.20 C 156.07 108.19 156.92 107.31 156.91 106.25 C 156.90 105.18 156.02 104.33 154.96 104.35 L 154.01 104.36 C 152.95 104.37 152.10 105.25 152.11 106.31 C 152.12 107.37 153.00 108.23 154.06 108.21 Z M 154.98 108.20 L 155.97 108.20 C 157.03 108.21 157.90 107.35 157.90 106.28 C 157.91 105.22 157.05 104.35 155.98 104.35 L 154.99 104.35 C 153.93 104.34 153.06 105.20 153.06 106.27 C 153.05 107.33 153.91 108.20 154.98 108.20 Z M 155.93 108.20 L 156.95 108.23 C 158.02 108.25 158.90 107.41 158.92 106.34 C 158.95 105.28 158.11 104.40 157.04 104.37 L 156.02 104.35 C 154.96 104.32 154.07 105.17 154.05 106.23 C 154.02 107.30 154.87 108.18 155.93 108.20 Z M 156.91 108.23 L 157.94 108.27 C 159.00 108.32 159.90 107.50 159.95 106.44 C 160.00 105.37 159.18 104.47 158.12 104.42 L 157.09 104.37 C 156.02 104.33 155.12 105.15 155.07 106.21 C 155.02 107.27 155.84 108.18 156.91 108.23 Z M 157.88 108.27 L 158.91 108.35 C 159.97 108.43 160.89 107.63 160.97 106.57 C 161.05 105.51 160.26 104.58 159.19 104.50 L 158.17 104.43 C 157.11 104.35 156.18 105.14 156.10 106.20 C 156.03 107.27 156.82 108.19 157.88 108.27 Z M 158.84 108.34 L 159.84 108.45 C 160.90 108.57 161.85 107.80 161.96 106.74 C 162.08 105.69 161.32 104.73 160.26 104.62 L 159.26 104.51 C 158.20 104.39 157.25 105.16 157.13 106.21 C 157.02 107.27 157.78 108.22 158.84 108.34 Z M 159.75 108.44 L 160.77 108.60 C 161.82 108.76 162.81 108.04 162.97 106.99 C 163.13 105.93 162.41 104.95 161.36 104.79 L 160.34 104.63 C 159.29 104.47 158.31 105.19 158.14 106.24 C 157.98 107.29 158.70 108.28 159.75 108.44 Z M 160.67 108.58 L 161.79 108.81 C 162.83 109.03 163.85 108.37 164.07 107.33 C 164.29 106.29 163.63 105.26 162.58 105.04 L 161.47 104.81 C 160.42 104.59 159.40 105.25 159.18 106.29 C 158.96 107.33 159.62 108.36 160.67 108.58 Z M 161.68 108.79 L 162.72 109.07 C 163.75 109.34 164.80 108.74 165.08 107.71 C 165.36 106.68 164.75 105.63 163.72 105.35 L 162.69 105.07 C 161.66 104.79 160.60 105.40 160.33 106.43 C 160.05 107.45 160.66 108.51 161.68 108.79 Z M 162.63 109.04 L 163.58 109.35 C 164.60 109.67 165.68 109.11 166.01 108.10 C 166.33 107.09 165.77 106.00 164.76 105.68 L 163.81 105.37 C 162.80 105.05 161.71 105.61 161.39 106.62 C 161.06 107.63 161.62 108.72 162.63 109.04 Z M 163.52 109.32 L 164.39 109.64 C 165.39 110.00 166.49 109.48 166.85 108.48 C 167.21 107.48 166.69 106.38 165.70 106.02 L 164.83 105.70 C 163.83 105.34 162.72 105.86 162.36 106.86 C 162.00 107.86 162.52 108.96 163.52 109.32 Z M 164.34 109.62 L 165.13 109.93 C 166.12 110.31 167.24 109.82 167.62 108.83 C 168.01 107.84 167.52 106.73 166.53 106.34 L 165.74 106.04 C 164.75 105.65 163.63 106.14 163.25 107.13 C 162.86 108.12 163.35 109.23 164.34 109.62 Z M 165.11 109.92 L 166.12 110.32 C 167.10 110.72 168.22 110.25 168.62 109.26 C 169.02 108.28 168.54 107.16 167.56 106.76 L 166.55 106.35 C 165.57 105.95 164.45 106.43 164.05 107.41 C 163.65 108.40 164.12 109.52 165.11 109.92 Z M 166.09 110.31 L 167.03 110.70 C 168.01 111.11 169.13 110.66 169.54 109.68 C 169.95 108.70 169.49 107.58 168.52 107.17 L 167.58 106.77 C 166.60 106.36 165.48 106.82 165.07 107.80 C 164.66 108.78 165.12 109.90 166.09 110.31 Z M 167.00 110.69 L 167.85 111.06 C 168.82 111.49 169.95 111.05 170.38 110.08 C 170.80 109.11 170.36 107.98 169.39 107.55 L 168.54 107.18 C 167.58 106.75 166.45 107.19 166.02 108.16 C 165.59 109.13 166.03 110.26 167.00 110.69 Z M 167.82 111.05 L 168.65 111.43 C 169.61 111.87 170.75 111.46 171.19 110.50 C 171.64 109.54 171.22 108.40 170.26 107.96 L 169.42 107.57 C 168.46 107.13 167.33 107.55 166.88 108.51 C 166.44 109.47 166.86 110.60 167.82 111.05 Z M 168.62 111.41 L 169.50 111.84 C 170.45 112.30 171.59 111.90 172.05 110.95 C 172.51 110.00 172.12 108.86 171.17 108.40 L 170.29 107.97 C 169.34 107.51 168.20 107.91 167.74 108.86 C 167.28 109.81 167.67 110.95 168.62 111.41 Z M 169.47 111.82 L 170.36 112.28 C 171.31 112.75 172.45 112.38 172.93 111.44 C 173.41 110.50 173.03 109.35 172.09 108.87 L 171.20 108.42 C 170.26 107.94 169.11 108.31 168.63 109.25 C 168.15 110.19 168.53 111.34 169.47 111.82 Z M 170.33 112.26 L 171.25 112.74 C 172.18 113.24 173.33 112.88 173.83 111.95 C 174.32 111.02 173.97 109.87 173.04 109.38 L 172.12 108.89 C 171.19 108.39 170.04 108.75 169.55 109.68 C 169.05 110.61 169.40 111.76 170.33 112.26 Z M 171.22 112.72 L 172.08 113.21 C 173.00 113.72 174.16 113.39 174.67 112.47 C 175.18 111.55 174.85 110.39 173.94 109.88 L 173.07 109.40 C 172.15 108.88 170.99 109.21 170.48 110.13 C 169.97 111.05 170.30 112.21 171.22 112.72 Z M 172.05 113.18 L 172.92 113.69 C 173.83 114.22 174.99 113.92 175.52 113.01 C 176.05 112.10 175.74 110.94 174.84 110.41 L 173.97 109.90 C 173.06 109.37 171.90 109.68 171.37 110.58 C 170.84 111.49 171.14 112.65 172.05 113.18 Z M 172.88 113.66 L 173.74 114.19 C 174.63 114.74 175.80 114.47 176.35 113.58 C 176.90 112.68 176.62 111.51 175.73 110.96 L 174.88 110.44 C 173.99 109.88 172.82 110.16 172.26 111.05 C 171.71 111.94 171.99 113.11 172.88 113.66 Z M 173.69 114.16 L 174.53 114.72 C 175.41 115.29 176.58 115.05 177.16 114.18 C 177.73 113.30 177.49 112.13 176.62 111.55 L 175.78 111.00 C 174.90 110.42 173.73 110.66 173.15 111.54 C 172.58 112.41 172.82 113.58 173.69 114.16 Z M 174.48 114.68 L 175.31 115.26 C 176.16 115.87 177.34 115.67 177.94 114.81 C 178.55 113.96 178.35 112.78 177.50 112.18 L 176.67 111.59 C 175.82 110.99 174.64 111.19 174.04 112.04 C 173.43 112.89 173.63 114.07 174.48 114.68 Z M 175.26 115.22 L 176.04 115.82 C 176.87 116.45 178.06 116.29 178.69 115.47 C 179.32 114.64 179.16 113.45 178.33 112.82 L 177.55 112.22 C 176.72 111.59 175.53 111.75 174.90 112.57 C 174.27 113.40 174.43 114.59 175.26 115.22 Z M 175.99 115.78 L 176.75 116.40 C 177.56 117.06 178.74 116.94 179.40 116.14 C 180.06 115.34 179.95 114.15 179.14 113.49 L 178.38 112.87 C 177.58 112.21 176.39 112.32 175.73 113.13 C 175.07 113.93 175.19 115.12 175.99 115.78 Z M 176.71 116.36 L 177.46 117.01 C 178.24 117.70 179.42 117.62 180.11 116.84 C 180.79 116.06 180.72 114.88 179.94 114.19 L 179.19 113.53 C 178.41 112.85 177.22 112.93 176.54 113.70 C 175.85 114.48 175.93 115.67 176.71 116.36 Z M 177.42 116.97 L 178.15 117.65 C 178.90 118.36 180.09 118.32 180.79 117.57 C 181.50 116.81 181.46 115.63 180.71 114.92 L 179.98 114.24 C 179.22 113.53 178.04 113.57 177.33 114.32 C 176.62 115.08 176.66 116.26 177.42 116.97 Z M 178.11 117.61 L 178.82 118.32 C 179.55 119.05 180.74 119.04 181.47 118.31 C 182.19 117.58 182.19 116.39 181.46 115.67 L 180.74 114.96 C 180.01 114.23 178.83 114.24 178.10 114.97 C 177.37 115.70 177.38 116.89 178.11 117.61 Z M 178.79 118.28 L 179.48 119.00 C 180.19 119.74 181.37 119.77 182.11 119.06 C 182.86 118.35 182.89 117.17 182.17 116.42 L 181.49 115.70 C 180.78 114.96 179.60 114.93 178.85 115.64 C 178.10 116.36 178.08 117.54 178.79 118.28 Z M 179.44 118.96 L 180.11 119.70 C 180.79 120.46 181.97 120.53 182.74 119.84 C 183.50 119.15 183.56 117.97 182.88 117.21 L 182.21 116.47 C 181.52 115.70 180.35 115.64 179.58 116.33 C 178.82 117.01 178.75 118.19 179.44 118.96 Z M 180.06 119.64 L 180.71 120.41 C 181.36 121.20 182.53 121.31 183.32 120.65 C 184.11 120.00 184.22 118.83 183.56 118.04 L 182.92 117.26 C 182.26 116.48 181.09 116.37 180.30 117.02 C 179.51 117.68 179.41 118.85 180.06 119.64 Z M 180.66 120.35 L 181.26 121.14 C 181.88 121.96 183.05 122.12 183.86 121.50 C 184.68 120.88 184.84 119.72 184.22 118.90 L 183.61 118.10 C 182.99 117.29 181.83 117.13 181.01 117.75 C 180.20 118.37 180.04 119.53 180.66 120.35 Z M 181.22 121.08 L 181.79 121.90 C 182.37 122.74 183.52 122.94 184.36 122.36 C 185.20 121.78 185.41 120.62 184.83 119.78 L 184.26 118.97 C 183.68 118.13 182.52 117.92 181.68 118.50 C 180.84 119.08 180.64 120.24 181.22 121.08 Z M 181.75 121.84 L 182.30 122.68 C 182.85 123.54 184.00 123.79 184.85 123.23 C 185.71 122.68 185.96 121.54 185.40 120.68 L 184.86 119.84 C 184.31 118.98 183.16 118.73 182.30 119.29 C 181.45 119.84 181.20 120.99 181.75 121.84 Z M 182.28 122.64 L 182.80 123.50 C 183.33 124.37 184.47 124.65 185.34 124.11 C 186.21 123.58 186.48 122.45 185.95 121.58 L 185.42 120.72 C 184.89 119.85 183.76 119.58 182.89 120.11 C 182.02 120.64 181.75 121.78 182.28 122.64 Z M 182.79 123.48 L 183.29 124.32 C 183.80 125.19 184.93 125.48 185.81 124.97 C 186.68 124.45 186.97 123.32 186.46 122.45 L 185.96 121.61 C 185.45 120.73 184.32 120.44 183.44 120.95 C 182.57 121.47 182.27 122.60 182.79 123.48 Z M 183.27 124.29 L 183.76 125.15 C 184.26 126.03 185.39 126.34 186.27 125.84 C 187.15 125.34 187.46 124.22 186.96 123.34 L 186.47 122.48 C 185.97 121.59 184.85 121.28 183.97 121.78 C 183.08 122.29 182.77 123.41 183.27 124.29 Z M 183.75 125.12 L 184.23 126.01 C 184.72 126.90 185.83 127.23 186.72 126.74 C 187.61 126.26 187.94 125.14 187.46 124.25 L 186.97 123.37 C 186.49 122.48 185.37 122.15 184.48 122.63 C 183.59 123.12 183.27 124.23 183.75 125.12 Z M 184.22 125.98 L 184.69 126.88 C 185.16 127.78 186.27 128.12 187.16 127.66 C 188.06 127.19 188.41 126.08 187.94 125.19 L 187.47 124.29 C 187.00 123.39 185.90 123.04 185.00 123.51 C 184.10 123.98 183.75 125.08 184.22 125.98 Z M 184.68 126.85 L 185.13 127.75 C 185.58 128.65 186.68 129.02 187.58 128.57 C 188.48 128.12 188.85 127.02 188.40 126.12 L 187.95 125.22 C 187.50 124.32 186.40 123.95 185.50 124.40 C 184.60 124.85 184.23 125.95 184.68 126.85 Z M 185.12 127.71 L 185.55 128.63 C 185.98 129.54 187.07 129.93 187.98 129.50 C 188.89 129.07 189.27 127.98 188.85 127.07 L 188.41 126.16 C 187.98 125.25 186.90 124.86 185.99 125.29 C 185.08 125.72 184.69 126.80 185.12 127.71 Z M 185.53 128.59 L 185.94 129.49 C 186.34 130.41 187.42 130.83 188.33 130.42 C 189.25 130.02 189.67 128.94 189.26 128.02 L 188.86 127.11 C 188.45 126.20 187.38 125.78 186.46 126.19 C 185.54 126.59 185.13 127.67 185.53 128.59 Z M 185.92 129.44 L 186.30 130.39 C 186.68 131.32 187.73 131.76 188.66 131.39 C 189.59 131.01 190.04 129.95 189.66 129.03 L 189.28 128.08 C 188.90 127.15 187.85 126.70 186.92 127.08 C 185.99 127.45 185.54 128.51 185.92 129.44 Z M 186.28 130.32 L 186.63 131.28 C 186.97 132.22 188.01 132.70 188.95 132.36 C 189.89 132.02 190.37 130.98 190.03 130.04 L 189.68 129.09 C 189.34 128.15 188.31 127.66 187.37 128.00 C 186.43 128.35 185.94 129.38 186.28 130.32 Z M 186.61 131.21 L 186.91 132.15 C 187.21 133.10 188.23 133.62 189.18 133.32 C 190.13 133.01 190.65 131.99 190.35 131.04 L 190.05 130.11 C 189.74 129.16 188.73 128.63 187.78 128.94 C 186.83 129.24 186.30 130.26 186.61 131.21 Z M 186.89 132.08 L 187.16 133.02 C 187.43 133.98 188.42 134.54 189.38 134.27 C 190.34 134.00 190.90 133.00 190.63 132.04 L 190.36 131.11 C 190.09 130.15 189.10 129.59 188.14 129.86 C 187.18 130.13 186.62 131.13 186.89 132.08 Z M 187.15 132.96 L 187.38 133.93 C 187.62 134.90 188.60 135.49 189.56 135.25 C 190.53 135.01 191.12 134.04 190.88 133.07 L 190.64 132.10 C 190.40 131.14 189.43 130.55 188.46 130.78 C 187.50 131.02 186.91 132.00 187.15 132.96 Z M 187.38 133.88 L 187.59 134.86 C 187.80 135.83 188.75 136.44 189.72 136.23 C 190.69 136.02 191.31 135.07 191.10 134.10 L 190.89 133.12 C 190.68 132.15 189.72 131.54 188.75 131.75 C 187.78 131.96 187.17 132.91 187.38 133.88 Z M 187.58 134.82 L 187.77 135.80 C 187.96 136.77 188.90 137.41 189.87 137.22 C 190.84 137.03 191.48 136.09 191.29 135.12 L 191.10 134.14 C 190.91 133.17 189.97 132.53 189.00 132.72 C 188.03 132.91 187.40 133.85 187.58 134.82 Z M 187.77 135.77 L 187.94 136.75 C 188.12 137.73 189.04 138.37 190.02 138.20 C 190.99 138.03 191.64 137.10 191.47 136.13 L 191.29 135.15 C 191.12 134.18 190.19 133.53 189.22 133.70 C 188.25 133.87 187.60 134.80 187.77 135.77 Z M 187.94 136.72 L 188.10 137.71 C 188.25 138.68 189.16 139.35 190.14 139.20 C 191.11 139.04 191.78 138.13 191.63 137.15 L 191.47 136.17 C 191.32 135.19 190.40 134.52 189.43 134.68 C 188.45 134.83 187.79 135.74 187.94 136.72 Z M 188.09 137.66 L 188.22 138.65 C 188.35 139.63 189.24 140.32 190.22 140.19 C 191.20 140.07 191.89 139.17 191.76 138.20 L 191.63 137.20 C 191.50 136.22 190.61 135.53 189.63 135.66 C 188.65 135.79 187.96 136.68 188.09 137.66 Z M 188.21 138.60 L 188.31 139.59 C 188.41 140.57 189.28 141.29 190.26 141.20 C 191.24 141.10 191.96 140.23 191.86 139.25 L 191.76 138.25 C 191.67 137.27 190.80 136.55 189.82 136.65 C 188.84 136.74 188.12 137.62 188.21 138.60 Z M 188.31 139.54 L 188.37 140.54 C 188.44 141.52 189.28 142.26 190.27 142.20 C 191.25 142.13 191.99 141.29 191.93 140.30 L 191.86 139.31 C 191.80 138.32 190.95 137.58 189.97 137.64 C 188.99 137.71 188.24 138.56 188.31 139.54 Z M 188.37 140.49 L 188.41 141.49 C 188.45 142.47 189.28 143.24 190.26 143.20 C 191.25 143.16 192.01 142.33 191.97 141.35 L 191.93 140.35 C 191.89 139.36 191.06 138.60 190.08 138.64 C 189.10 138.68 188.33 139.51 188.37 140.49 Z M 188.41 141.46 L 188.43 142.42 C 188.46 143.40 189.27 144.18 190.26 144.16 C 191.24 144.14 192.02 143.32 191.99 142.34 L 191.97 141.38 C 191.95 140.39 191.13 139.62 190.15 139.64 C 189.17 139.66 188.39 140.48 188.41 141.46 Z M 188.44 142.40 L 188.45 143.28 C 188.46 144.26 189.27 145.05 190.25 145.03 C 191.23 145.02 192.02 144.21 192.00 143.23 L 191.99 142.36 C 191.98 141.37 191.17 140.59 190.19 140.60 C 189.21 140.61 188.42 141.42 188.44 142.40 Z M 188.45 143.27 L 188.45 144.21 C 188.46 145.20 189.26 145.99 190.24 145.98 C 191.22 145.98 192.01 145.18 192.01 144.19 L 192.00 143.25 C 192.00 142.26 191.20 141.47 190.22 141.48 C 189.23 141.48 188.44 142.28 188.45 143.27 Z M 188.45 144.21 L 188.46 145.29 C 188.46 146.27 189.25 147.06 190.23 147.06 C 191.21 147.06 192.01 146.26 192.01 145.28 L 192.01 144.20 C 192.00 143.22 191.21 142.43 190.23 142.43 C 189.25 142.43 188.45 143.23 188.45 144.21 Z M 188.46 145.28 L 188.46 146.39 C 188.46 147.37 189.25 148.16 190.23 148.16 C 191.21 148.16 192.01 147.37 192.01 146.39 L 192.01 145.28 C 192.01 144.30 191.21 143.51 190.23 143.51 C 189.25 143.51 188.46 144.30 188.46 145.28 Z M 188.46 146.38 L 188.46 147.38 C 188.45 148.35 189.25 149.15 190.22 149.15 C 191.20 149.16 192.00 148.36 192.00 147.38 L 192.00 146.39 C 192.01 145.41 191.22 144.62 190.24 144.62 C 189.26 144.61 188.46 145.41 188.46 146.38 Z M 188.46 147.36 L 188.45 148.40 C 188.44 149.38 189.22 150.18 190.20 150.19 C 191.18 150.20 191.98 149.42 191.99 148.44 L 192.00 147.40 C 192.01 146.42 191.23 145.62 190.25 145.61 C 189.27 145.60 188.47 146.38 188.46 147.36 Z M 188.45 148.38 L 188.42 149.43 C 188.40 150.41 189.18 151.22 190.15 151.24 C 191.13 151.26 191.94 150.49 191.96 149.51 L 191.99 148.46 C 192.01 147.48 191.24 146.67 190.26 146.65 C 189.28 146.63 188.47 147.40 188.45 148.38 Z M 188.43 149.40 L 188.38 150.41 C 188.34 151.39 189.10 152.21 190.08 152.25 C 191.05 152.29 191.88 151.54 191.92 150.56 L 191.96 149.55 C 192.00 148.57 191.25 147.75 190.27 147.70 C 189.29 147.66 188.47 148.42 188.43 149.40 Z M 188.39 150.36 L 188.32 151.29 C 188.25 152.27 188.98 153.11 189.95 153.18 C 190.93 153.25 191.77 152.52 191.85 151.55 L 191.91 150.61 C 191.99 149.64 191.25 148.79 190.28 148.72 C 189.31 148.65 188.46 149.38 188.39 150.36 Z M 188.33 151.19 L 188.18 152.36 C 188.05 153.33 188.73 154.21 189.70 154.34 C 190.67 154.47 191.55 153.79 191.68 152.82 L 191.83 151.65 C 191.96 150.68 191.28 149.80 190.31 149.67 C 189.34 149.54 188.46 150.22 188.33 151.19 Z M 188.21 152.22 L 188.00 153.21 C 187.79 154.16 188.40 155.10 189.35 155.30 C 190.30 155.51 191.23 154.90 191.44 153.95 L 191.65 152.96 C 191.86 152.01 191.25 151.07 190.30 150.87 C 189.35 150.67 188.41 151.27 188.21 152.22 Z M 188.03 153.08 L 187.78 153.94 C 187.50 154.87 188.03 155.85 188.96 156.13 C 189.89 156.40 190.87 155.87 191.14 154.94 L 191.40 154.08 C 191.68 153.15 191.15 152.18 190.22 151.90 C 189.29 151.62 188.31 152.15 188.03 153.08 Z M 187.81 153.86 L 187.51 154.70 C 187.19 155.61 187.66 156.61 188.57 156.94 C 189.48 157.26 190.49 156.79 190.81 155.88 L 191.11 155.03 C 191.43 154.12 190.96 153.12 190.05 152.79 C 189.14 152.47 188.13 152.94 187.81 153.86 Z M 187.53 154.66 L 187.17 155.60 C 186.82 156.50 187.27 157.51 188.17 157.85 C 189.08 158.20 190.09 157.75 190.43 156.85 L 190.79 155.91 C 191.14 155.01 190.69 154.00 189.79 153.66 C 188.88 153.31 187.87 153.76 187.53 154.66 Z M 187.18 155.57 L 186.81 156.50 C 186.45 157.39 186.88 158.41 187.77 158.77 C 188.67 159.13 189.68 158.70 190.04 157.80 L 190.42 156.88 C 190.78 155.98 190.35 154.97 189.45 154.61 C 188.56 154.25 187.54 154.68 187.18 155.57 Z M 186.82 156.48 L 186.45 157.38 C 186.08 158.27 186.50 159.29 187.38 159.66 C 188.27 160.03 189.29 159.61 189.66 158.72 L 190.03 157.82 C 190.40 156.93 189.98 155.91 189.09 155.55 C 188.21 155.18 187.19 155.60 186.82 156.48 Z M 186.45 157.37 L 186.11 158.18 C 185.74 159.06 186.15 160.08 187.03 160.46 C 187.91 160.83 188.93 160.42 189.31 159.54 L 189.65 158.73 C 190.03 157.85 189.61 156.83 188.73 156.45 C 187.85 156.08 186.83 156.49 186.45 157.37 Z M 186.12 158.16 L 185.74 159.03 C 185.35 159.91 185.75 160.93 186.63 161.31 C 187.50 161.70 188.53 161.30 188.91 160.43 L 189.30 159.56 C 189.68 158.68 189.29 157.66 188.41 157.27 C 187.53 156.88 186.51 157.28 186.12 158.16 Z M 185.75 159.00 L 185.30 160.00 C 184.90 160.87 185.28 161.90 186.15 162.30 C 187.02 162.70 188.04 162.32 188.44 161.45 L 188.90 160.45 C 189.30 159.58 188.92 158.55 188.05 158.15 C 187.18 157.75 186.15 158.14 185.75 159.00 Z M 185.31 159.98 L 184.87 160.90 C 184.46 161.76 184.83 162.80 185.69 163.21 C 186.55 163.62 187.58 163.25 187.99 162.39 L 188.43 161.47 C 188.84 160.61 188.47 159.57 187.61 159.16 C 186.75 158.75 185.72 159.12 185.31 159.98 Z M 184.88 160.88 L 184.47 161.72 C 184.05 162.58 184.40 163.61 185.26 164.03 C 186.11 164.45 187.15 164.10 187.57 163.24 L 187.98 162.41 C 188.40 161.55 188.05 160.52 187.19 160.10 C 186.34 159.68 185.30 160.03 184.88 160.88 Z M 184.48 161.70 L 184.03 162.59 C 183.60 163.44 183.94 164.48 184.78 164.91 C 185.63 165.34 186.67 165.00 187.10 164.16 L 187.55 163.27 C 187.99 162.42 187.65 161.38 186.80 160.95 C 185.95 160.52 184.92 160.85 184.48 161.70 Z M 184.05 162.56 L 183.56 163.48 C 183.11 164.32 183.43 165.36 184.27 165.81 C 185.11 166.26 186.15 165.94 186.60 165.10 L 187.08 164.18 C 187.53 163.34 187.21 162.30 186.37 161.85 C 185.54 161.41 184.49 161.73 184.05 162.56 Z M 183.58 163.45 L 183.06 164.37 C 182.60 165.20 182.89 166.24 183.72 166.71 C 184.54 167.18 185.59 166.88 186.06 166.05 L 186.57 165.13 C 187.04 164.31 186.75 163.26 185.92 162.79 C 185.09 162.33 184.04 162.62 183.58 163.45 Z M 183.09 164.33 L 182.55 165.23 C 182.06 166.04 182.32 167.10 183.13 167.59 C 183.95 168.07 185.00 167.81 185.49 167.00 L 186.03 166.10 C 186.52 165.28 186.25 164.23 185.44 163.74 C 184.63 163.25 183.58 163.52 183.09 164.33 Z M 182.58 165.18 L 182.02 166.05 C 181.50 166.85 181.73 167.90 182.52 168.42 C 183.31 168.93 184.37 168.71 184.89 167.92 L 185.45 167.05 C 185.97 166.25 185.74 165.19 184.95 164.68 C 184.16 164.17 183.10 164.39 182.58 165.18 Z M 182.06 166.00 L 181.47 166.84 C 180.93 167.61 181.12 168.67 181.89 169.21 C 182.66 169.75 183.72 169.56 184.26 168.79 L 184.85 167.96 C 185.39 167.19 185.20 166.13 184.43 165.59 C 183.66 165.05 182.60 165.23 182.06 166.00 Z M 181.52 166.79 L 180.91 167.58 C 180.35 168.33 180.49 169.40 181.24 169.96 C 181.99 170.53 183.05 170.38 183.62 169.63 L 184.22 168.84 C 184.79 168.09 184.64 167.03 183.89 166.46 C 183.15 165.90 182.08 166.04 181.52 166.79 Z M 180.96 167.54 L 180.33 168.30 C 179.74 169.03 179.85 170.09 180.57 170.68 C 181.30 171.27 182.36 171.16 182.95 170.44 L 183.58 169.68 C 184.17 168.95 184.06 167.89 183.34 167.30 C 182.61 166.71 181.55 166.82 180.96 167.54 Z M 180.38 168.26 L 179.73 169.00 C 179.12 169.70 179.19 170.76 179.89 171.37 C 180.59 171.99 181.66 171.92 182.27 171.22 L 182.91 170.48 C 183.52 169.78 183.45 168.72 182.75 168.10 C 182.05 167.49 180.99 167.56 180.38 168.26 Z M 179.77 168.96 L 179.11 169.67 C 178.47 170.35 178.51 171.41 179.19 172.05 C 179.86 172.68 180.93 172.65 181.56 171.97 L 182.23 171.25 C 182.86 170.58 182.83 169.51 182.15 168.88 C 181.47 168.25 180.41 168.28 179.77 168.96 Z M 179.15 169.64 L 178.45 170.34 C 177.80 170.99 177.80 172.05 178.45 172.70 C 179.11 173.36 180.17 173.36 180.82 172.70 L 181.52 172.00 C 182.17 171.35 182.17 170.29 181.51 169.64 C 180.86 168.98 179.80 168.98 179.15 169.64 Z M 178.49 170.30 L 177.77 170.98 C 177.10 171.61 177.07 172.66 177.70 173.34 C 178.33 174.01 179.38 174.04 180.06 173.41 L 180.78 172.74 C 181.45 172.11 181.48 171.05 180.85 170.38 C 180.22 169.70 179.17 169.67 178.49 170.30 Z M 177.82 170.94 L 177.07 171.60 C 176.38 172.21 176.31 173.26 176.91 173.95 C 177.52 174.64 178.57 174.71 179.26 174.11 L 180.01 173.45 C 180.70 172.84 180.77 171.79 180.17 171.10 C 179.56 170.41 178.51 170.34 177.82 170.94 Z M 177.11 171.57 L 176.33 172.21 C 175.62 172.80 175.52 173.84 176.10 174.55 C 176.68 175.26 177.73 175.36 178.44 174.78 L 179.22 174.14 C 179.93 173.55 180.03 172.51 179.45 171.80 C 178.87 171.09 177.82 170.99 177.11 171.57 Z M 176.37 172.18 L 175.56 172.81 C 174.84 173.37 174.70 174.41 175.26 175.13 C 175.82 175.85 176.86 175.99 177.58 175.43 L 178.39 174.81 C 179.12 174.25 179.25 173.21 178.69 172.49 C 178.14 171.76 177.10 171.63 176.37 172.18 Z M 175.60 172.78 L 174.80 173.36 C 174.06 173.90 173.89 174.93 174.43 175.67 C 174.96 176.41 175.99 176.58 176.73 176.04 L 177.54 175.46 C 178.28 174.92 178.45 173.89 177.91 173.15 C 177.38 172.41 176.34 172.25 175.60 172.78 Z M 174.84 173.34 L 174.01 173.90 C 173.25 174.42 173.06 175.44 173.57 176.20 C 174.08 176.95 175.11 177.14 175.86 176.63 L 176.69 176.07 C 177.45 175.55 177.64 174.53 177.13 173.77 C 176.62 173.02 175.59 172.83 174.84 173.34 Z M 174.05 173.88 L 173.20 174.42 C 172.43 174.92 172.21 175.93 172.70 176.70 C 173.19 177.47 174.21 177.69 174.98 177.20 L 175.82 176.66 C 176.59 176.16 176.81 175.15 176.32 174.38 C 175.83 173.61 174.81 173.39 174.05 173.88 Z M 173.24 174.40 L 172.38 174.92 C 171.60 175.39 171.35 176.40 171.81 177.18 C 172.28 177.96 173.29 178.21 174.07 177.74 L 174.93 177.22 C 175.71 176.75 175.96 175.74 175.50 174.96 C 175.03 174.18 174.02 173.93 173.24 174.40 Z M 172.42 174.90 L 171.55 175.39 C 170.76 175.83 170.48 176.84 170.92 177.63 C 171.37 178.42 172.37 178.70 173.16 178.25 L 174.03 177.76 C 174.82 177.32 175.10 176.31 174.66 175.52 C 174.21 174.73 173.21 174.45 172.42 174.90 Z M 171.59 175.37 L 170.70 175.83 C 169.90 176.25 169.59 177.25 170.01 178.05 C 170.43 178.85 171.43 179.16 172.23 178.74 L 173.12 178.27 C 173.92 177.85 174.23 176.86 173.81 176.06 C 173.39 175.26 172.40 174.95 171.59 175.37 Z M 170.75 175.81 L 169.83 176.26 C 169.02 176.65 168.68 177.63 169.07 178.45 C 169.47 179.26 170.45 179.60 171.26 179.21 L 172.18 178.76 C 173.00 178.37 173.34 177.39 172.94 176.57 C 172.55 175.76 171.57 175.42 170.75 175.81 Z M 169.88 176.24 L 168.96 176.65 C 168.13 177.02 167.76 177.99 168.13 178.82 C 168.51 179.64 169.48 180.01 170.30 179.64 L 171.22 179.23 C 172.04 178.86 172.41 177.89 172.04 177.06 C 171.67 176.23 170.70 175.87 169.88 176.24 Z M 169.00 176.63 L 168.08 177.01 C 167.25 177.36 166.85 178.32 167.20 179.16 C 167.55 179.99 168.51 180.39 169.35 180.04 L 170.26 179.66 C 171.10 179.31 171.49 178.35 171.14 177.51 C 170.79 176.68 169.83 176.28 169.00 176.63 Z M 168.12 177.00 L 167.20 177.36 C 166.36 177.69 165.94 178.64 166.27 179.48 C 166.60 180.32 167.55 180.74 168.39 180.41 L 169.31 180.05 C 170.15 179.72 170.57 178.77 170.24 177.93 C 169.91 177.09 168.96 176.67 168.12 177.00 Z M 167.23 177.35 L 166.31 177.69 C 165.46 178.00 165.03 178.94 165.34 179.79 C 165.65 180.64 166.59 181.07 167.44 180.76 L 168.36 180.42 C 169.21 180.11 169.65 179.17 169.33 178.32 C 169.02 177.47 168.08 177.04 167.23 177.35 Z M 166.33 177.68 L 165.39 178.01 C 164.54 178.31 164.09 179.25 164.39 180.10 C 164.69 180.95 165.62 181.40 166.48 181.10 L 167.42 180.77 C 168.27 180.47 168.72 179.53 168.42 178.68 C 168.12 177.83 167.18 177.38 166.33 177.68 Z M 165.41 178.01 L 164.46 178.33 C 163.60 178.62 163.15 179.55 163.44 180.40 C 163.73 181.26 164.65 181.72 165.51 181.43 L 166.46 181.11 C 167.31 180.82 167.77 179.89 167.48 179.03 C 167.19 178.18 166.26 177.72 165.41 178.01 Z M 164.48 178.32 L 163.53 178.64 C 162.67 178.92 162.20 179.84 162.48 180.70 C 162.76 181.56 163.69 182.03 164.55 181.75 L 165.50 181.43 C 166.36 181.15 166.82 180.23 166.54 179.37 C 166.26 178.51 165.33 178.04 164.48 178.32 Z M 163.54 178.63 L 162.58 178.94 C 161.72 179.21 161.25 180.14 161.52 181.00 C 161.80 181.86 162.72 182.33 163.58 182.05 L 164.54 181.75 C 165.40 181.47 165.87 180.55 165.59 179.69 C 165.32 178.83 164.40 178.36 163.54 178.63 Z M 162.59 178.94 L 161.64 179.24 C 160.77 179.51 160.30 180.43 160.57 181.29 C 160.84 182.15 161.76 182.63 162.62 182.36 L 163.58 182.06 C 164.44 181.78 164.92 180.86 164.64 180.00 C 164.37 179.14 163.45 178.66 162.59 178.94 Z M 161.64 179.24 L 161.36 179.33 C 160.50 179.60 160.02 180.52 160.29 181.38 C 160.56 182.24 161.48 182.72 162.34 182.45 L 162.62 182.36 C 163.49 182.09 163.96 181.17 163.69 180.31 C 163.42 179.44 162.50 178.97 161.64 179.24 Z"
      fill="black"
      fill-rule="nonzero" /></svg>