<svg xmlns="http://www.w3.org/2000/svg" width="300" height="300" viewBox="0 0 300 300">
<path d="M 111.96 112.87 L 112.83 113.22 C 113.80 113.62 114.91 113.15 115.31 112.18 C 115.71 111.21 115.24 110.10 114.27 109.70 L 113.40 109.34 C 112.43 108.95 111.32 109.41 110.92 110.39 C 110.52 111.36 110.99 112.47 111.96 112.87 Z M 112.88 113.25 L 113.77 113.59 C 114.76 113.96 115.86 113.46 116.23 112.47 C 116.61 111.48 116.11 110.38 115.12 110.00 L 114.22 109.67 C 113.23 109.30 112.13 109.80 111.76 110.79 C 111.39 111.78 111.89 112.88 112.88 113.25 Z M 113.86 113.63 L 114.81 113.93 C 115.82 114.25 116.90 113.69 117.22 112.68 C 117.54 111.66 116.98 110.58 115.97 110.26 L 115.02 109.96 C 114.01 109.64 112.93 110.20 112.61 111.22 C 112.29 112.23 112.85 113.31 113.86 113.63 Z M 114.94 113.98 L 115.97 114.22 C 117.01 114.47 118.05 113.83 118.30 112.79 C 118.55 111.75 117.91 110.71 116.87 110.46 L 115.84 110.22 C 114.80 109.97 113.76 110.61 113.51 111.65 C 113.26 112.68 113.90 113.73 114.94 113.98 Z M 116.11 114.25 L 117.12 114.41 C 118.17 114.58 119.16 113.86 119.33 112.81 C 119.49 111.75 118.78 110.76 117.72 110.60 L 116.72 110.44 C 115.67 110.27 114.68 110.99 114.51 112.04 C 114.35 113.09 115.06 114.08 116.11 114.25 Z M 117.23 114.40 L 118.20 114.49 C 119.24 114.59 120.17 113.83 120.28 112.78 C 120.38 111.74 119.61 110.80 118.57 110.70 L 117.61 110.61 C 116.56 110.50 115.63 111.27 115.53 112.32 C 115.42 113.36 116.19 114.29 117.23 114.40 Z M 118.27 114.46 L 119.28 114.52 C 120.31 114.58 121.19 113.79 121.25 112.76 C 121.31 111.73 120.52 110.85 119.49 110.79 L 118.49 110.73 C 117.46 110.67 116.58 111.46 116.52 112.49 C 116.46 113.52 117.24 114.40 118.27 114.46 Z M 119.33 114.48 L 120.36 114.51 C 121.37 114.54 122.21 113.75 122.24 112.74 C 122.27 111.73 121.48 110.88 120.47 110.85 L 119.44 110.82 C 118.43 110.79 117.59 111.59 117.56 112.60 C 117.53 113.61 118.32 114.45 119.33 114.48 Z M 120.39 114.48 L 121.42 114.49 C 122.41 114.50 123.23 113.71 123.24 112.72 C 123.25 111.73 122.45 110.91 121.46 110.90 L 120.43 110.89 C 119.44 110.88 118.63 111.67 118.62 112.66 C 118.61 113.65 119.40 114.47 120.39 114.48 Z M 121.44 114.45 L 122.45 114.45 C 123.42 114.46 124.21 113.67 124.21 112.70 C 124.21 111.73 123.43 110.94 122.46 110.94 L 121.45 110.94 C 120.48 110.94 119.69 111.72 119.69 112.69 C 119.68 113.66 120.47 114.45 121.44 114.45 Z M 122.45 114.43 L 123.53 114.43 C 124.49 114.43 125.26 113.65 125.26 112.70 C 125.26 111.74 124.49 110.97 123.53 110.97 L 122.45 110.97 C 121.50 110.97 120.73 111.74 120.72 112.70 C 120.72 113.65 121.50 114.43 122.45 114.43 Z M 123.53 114.41 L 124.57 114.41 C 125.51 114.41 126.28 113.65 126.28 112.71 C 126.28 111.76 125.52 111.00 124.58 110.99 L 123.54 110.99 C 122.59 110.99 121.83 111.75 121.82 112.69 C 121.82 113.64 122.58 114.40 123.53 114.41 Z M 124.56 114.39 L 125.56 114.40 C 126.49 114.41 127.25 113.66 127.26 112.73 C 127.27 111.79 126.52 111.03 125.59 111.02 L 124.59 111.01 C 123.66 111.00 122.89 111.75 122.88 112.69 C 122.87 113.62 123.62 114.38 124.56 114.39 Z M 125.54 114.38 L 126.50 114.40 C 127.42 114.42 128.18 113.68 128.20 112.76 C 128.22 111.84 127.49 111.08 126.56 111.06 L 125.60 111.04 C 124.68 111.02 123.92 111.76 123.90 112.68 C 123.88 113.60 124.62 114.36 125.54 114.38 Z M 126.48 114.38 L 127.41 114.41 C 128.32 114.44 129.08 113.73 129.11 112.81 C 129.14 111.90 128.43 111.14 127.52 111.11 L 126.59 111.08 C 125.67 111.05 124.91 111.76 124.88 112.67 C 124.85 113.59 125.57 114.35 126.48 114.38 Z M 127.38 114.40 L 128.40 114.45 C 129.30 114.50 130.07 113.80 130.12 112.90 C 130.17 111.99 129.47 111.22 128.57 111.17 L 127.55 111.12 C 126.64 111.07 125.87 111.77 125.82 112.68 C 125.78 113.58 126.47 114.35 127.38 114.40 Z M 128.37 114.45 L 129.38 114.52 C 130.28 114.58 131.06 113.90 131.12 113.00 C 131.19 112.09 130.50 111.31 129.60 111.25 L 128.59 111.18 C 127.69 111.11 126.91 111.80 126.85 112.70 C 126.78 113.60 127.46 114.39 128.37 114.45 Z M 129.35 114.52 L 130.34 114.60 C 131.24 114.67 132.03 114.00 132.11 113.10 C 132.18 112.20 131.51 111.41 130.61 111.33 L 129.62 111.25 C 128.72 111.18 127.93 111.85 127.86 112.75 C 127.78 113.65 128.45 114.44 129.35 114.52 Z M 130.33 114.60 L 131.30 114.68 C 132.20 114.77 133.00 114.10 133.08 113.20 C 133.16 112.30 132.50 111.50 131.60 111.42 L 130.62 111.33 C 129.72 111.25 128.93 111.92 128.84 112.82 C 128.76 113.72 129.43 114.51 130.33 114.60 Z M 131.30 114.68 L 131.76 114.73 C 132.66 114.81 133.46 114.15 133.54 113.25 C 133.63 112.35 132.97 111.55 132.07 111.47 L 131.60 111.42 C 130.70 111.34 129.91 112.00 129.82 112.90 C 129.74 113.80 130.40 114.60 131.30 114.68 Z"
      fill="black"
      fill-rule="nonzero" /><path d="M 114.30 132.69 L 115.20 132.32 C 116.13 131.94 116.58 130.88 116.20 129.95 C 115.82 129.02 114.76 128.57 113.83 128.95 L 112.92 129.32 C 111.99 129.70 111.55 130.76 111.93 131.69 C 112.31 132.62 113.37 133.07 114.30 132.69 Z M 115.21 132.31 L 116.12 131.93 C 117.05 131.54 117.48 130.48 117.10 129.56 C 116.71 128.63 115.65 128.20 114.72 128.58 L 113.81 128.96 C 112.89 129.35 112.45 130.41 112.84 131.34 C 113.23 132.26 114.29 132.70 115.21 132.31 Z M 116.14 131.91 L 117.07 131.51 C 117.98 131.12 118.40 130.05 118.00 129.13 C 117.61 128.22 116.54 127.80 115.62 128.20 L 114.70 128.60 C 113.79 129.00 113.37 130.06 113.76 130.98 C 114.16 131.89 115.23 132.31 116.14 131.91 Z M 117.10 131.49 L 118.04 131.06 C 118.94 130.65 119.34 129.58 118.92 128.67 C 118.50 127.77 117.43 127.37 116.53 127.79 L 115.59 128.22 C 114.69 128.63 114.29 129.70 114.71 130.61 C 115.12 131.51 116.19 131.91 117.10 131.49 Z M 118.07 131.04 L 118.92 130.63 C 119.81 130.20 120.18 129.12 119.75 128.23 C 119.31 127.33 118.23 126.96 117.34 127.39 L 116.50 127.81 C 115.60 128.24 115.23 129.32 115.66 130.21 C 116.10 131.10 117.18 131.48 118.07 131.04 Z M 118.94 130.62 L 119.81 130.18 C 120.69 129.73 121.05 128.65 120.60 127.77 C 120.16 126.88 119.08 126.52 118.19 126.97 L 117.32 127.41 C 116.43 127.86 116.08 128.93 116.52 129.82 C 116.97 130.71 118.05 131.06 118.94 130.62 Z M 119.81 130.17 L 120.71 129.71 C 121.59 129.26 121.94 128.18 121.49 127.30 C 121.04 126.42 119.96 126.07 119.08 126.52 L 118.18 126.98 C 117.30 127.43 116.95 128.51 117.40 129.39 C 117.85 130.27 118.93 130.62 119.81 130.17 Z M 120.71 129.71 L 121.64 129.24 C 122.52 128.79 122.87 127.71 122.42 126.83 C 121.97 125.95 120.89 125.60 120.01 126.05 L 119.08 126.52 C 118.20 126.97 117.85 128.05 118.30 128.93 C 118.75 129.81 119.83 130.16 120.71 129.71 Z M 121.62 129.24 L 122.56 128.77 C 123.44 128.33 123.80 127.26 123.36 126.37 C 122.92 125.49 121.85 125.14 120.97 125.58 L 120.03 126.05 C 119.15 126.49 118.79 127.56 119.23 128.44 C 119.67 129.32 120.74 129.68 121.62 129.24 Z M 122.54 128.77 L 123.48 128.31 C 124.36 127.88 124.72 126.82 124.29 125.94 C 123.86 125.06 122.80 124.69 121.92 125.12 L 120.98 125.58 C 120.10 126.01 119.74 127.07 120.17 127.95 C 120.60 128.83 121.66 129.20 122.54 128.77 Z M 123.46 128.31 L 124.39 127.86 C 125.27 127.44 125.65 126.39 125.22 125.51 C 124.80 124.63 123.75 124.26 122.87 124.68 L 121.94 125.12 C 121.06 125.54 120.68 126.60 121.10 127.48 C 121.53 128.36 122.58 128.73 123.46 128.31 Z M 124.38 127.86 L 125.28 127.44 C 126.16 127.03 126.54 125.98 126.13 125.10 C 125.72 124.22 124.67 123.84 123.79 124.25 L 122.89 124.68 C 122.01 125.09 121.63 126.14 122.04 127.01 C 122.45 127.89 123.50 128.27 124.38 127.86 Z M 125.27 127.43 L 126.12 127.04 C 127.00 126.64 127.39 125.60 126.98 124.73 C 126.58 123.85 125.55 123.46 124.67 123.86 L 123.81 124.26 C 122.93 124.66 122.55 125.70 122.95 126.57 C 123.35 127.45 124.39 127.84 125.27 127.43 Z M 126.10 127.04 L 127.05 126.62 C 127.93 126.23 128.32 125.20 127.93 124.33 C 127.55 123.45 126.52 123.06 125.64 123.44 L 124.69 123.87 C 123.82 124.26 123.42 125.28 123.81 126.16 C 124.20 127.03 125.22 127.43 126.10 127.04 Z M 127.01 126.62 L 127.94 126.23 C 128.82 125.87 129.23 124.86 128.87 123.98 C 128.51 123.11 127.50 122.69 126.62 123.05 L 125.69 123.44 C 124.81 123.81 124.39 124.81 124.76 125.69 C 125.12 126.57 126.13 126.99 127.01 126.62 Z M 127.87 126.25 L 128.77 125.91 C 129.65 125.59 130.10 124.61 129.78 123.72 C 129.45 122.84 128.47 122.39 127.58 122.71 L 126.69 123.04 C 125.80 123.37 125.35 124.35 125.68 125.24 C 126.01 126.12 126.99 126.57 127.87 126.25 Z M 128.68 125.93 L 129.61 125.64 C 130.50 125.36 131.00 124.41 130.72 123.52 C 130.44 122.62 129.49 122.13 128.60 122.41 L 127.67 122.70 C 126.78 122.98 126.28 123.93 126.56 124.82 C 126.84 125.71 127.79 126.21 128.68 125.93 Z M 129.50 125.66 L 130.61 125.39 C 131.52 125.17 132.07 124.26 131.85 123.36 C 131.64 122.45 130.73 121.90 129.82 122.12 L 128.71 122.39 C 127.80 122.60 127.25 123.51 127.46 124.42 C 127.68 125.32 128.59 125.88 129.50 125.66 Z M 130.39 125.43 L 131.42 125.32 C 132.35 125.23 133.02 124.40 132.93 123.48 C 132.83 122.55 132.01 121.88 131.08 121.98 L 130.05 122.08 C 129.12 122.18 128.45 123.00 128.55 123.92 C 128.64 124.85 129.46 125.52 130.39 125.43 Z M 130.88 125.28 L 131.66 125.46 C 132.56 125.67 133.46 125.10 133.67 124.20 C 133.87 123.29 133.31 122.40 132.40 122.19 L 131.63 122.01 C 130.72 121.81 129.82 122.37 129.62 123.28 C 129.41 124.18 129.98 125.08 130.88 125.28 Z M 130.61 124.72 L 131.01 125.35 C 131.50 126.13 132.54 126.37 133.32 125.87 C 134.11 125.38 134.34 124.34 133.85 123.55 L 133.45 122.93 C 132.96 122.14 131.92 121.91 131.14 122.40 C 130.35 122.90 130.12 123.94 130.61 124.72 Z M 130.74 124.39 L 130.70 125.37 C 130.66 126.31 131.39 127.09 132.33 127.13 C 133.26 127.16 134.05 126.43 134.08 125.50 L 134.12 124.52 C 134.15 123.58 133.43 122.80 132.49 122.76 C 131.56 122.73 130.77 123.45 130.74 124.39 Z M 130.75 124.96 L 130.43 126.09 C 130.17 127.00 130.69 127.94 131.59 128.20 C 132.50 128.46 133.44 127.94 133.70 127.04 L 134.03 125.91 C 134.29 125.00 133.77 124.06 132.86 123.80 C 131.96 123.54 131.01 124.06 130.75 124.96 Z M 130.48 125.91 L 130.11 126.80 C 129.75 127.67 130.16 128.67 131.03 129.04 C 131.91 129.40 132.91 128.99 133.27 128.12 L 133.65 127.23 C 134.01 126.35 133.60 125.35 132.72 124.98 C 131.85 124.62 130.85 125.03 130.48 125.91 Z M 130.15 126.69 L 129.71 127.58 C 129.28 128.43 129.63 129.46 130.48 129.89 C 131.33 130.31 132.36 129.97 132.79 129.12 L 133.23 128.23 C 133.66 127.38 133.31 126.34 132.46 125.91 C 131.61 125.49 130.58 125.83 130.15 126.69 Z M 129.74 127.50 L 129.24 128.39 C 128.77 129.23 129.07 130.28 129.90 130.75 C 130.74 131.21 131.79 130.92 132.26 130.08 L 132.76 129.19 C 133.23 128.36 132.93 127.30 132.09 126.84 C 131.26 126.37 130.20 126.67 129.74 127.50 Z M 129.25 128.35 L 128.73 129.22 C 128.24 130.05 128.51 131.12 129.34 131.61 C 130.16 132.10 131.23 131.83 131.72 131.00 L 132.24 130.13 C 132.74 129.30 132.47 128.23 131.64 127.74 C 130.81 127.25 129.75 127.52 129.25 128.35 Z M 128.74 129.19 L 128.22 130.04 C 127.71 130.86 127.97 131.94 128.79 132.45 C 129.61 132.95 130.69 132.70 131.20 131.87 L 131.72 131.03 C 132.23 130.21 131.97 129.13 131.15 128.62 C 130.32 128.11 129.25 128.37 128.74 129.19 Z M 128.22 130.01 L 127.68 130.86 C 127.16 131.68 127.41 132.77 128.23 133.29 C 129.05 133.81 130.14 133.57 130.66 132.74 L 131.20 131.90 C 131.72 131.08 131.47 129.99 130.65 129.47 C 129.83 128.95 128.74 129.19 128.22 130.01 Z M 127.68 130.84 L 127.14 131.68 C 126.60 132.50 126.84 133.60 127.66 134.14 C 128.49 134.67 129.58 134.43 130.12 133.61 L 130.66 132.77 C 131.20 131.94 130.96 130.84 130.14 130.31 C 129.32 129.78 128.22 130.01 127.68 130.84 Z M 127.14 131.66 L 126.58 132.51 C 126.04 133.33 126.27 134.44 127.09 134.98 C 127.91 135.52 129.02 135.29 129.56 134.47 L 130.12 133.63 C 130.66 132.80 130.43 131.70 129.61 131.16 C 128.79 130.61 127.68 130.84 127.14 131.66 Z M 126.58 132.50 L 126.02 133.33 C 125.48 134.16 125.70 135.27 126.52 135.82 C 127.34 136.36 128.46 136.14 129.00 135.32 L 129.56 134.48 C 130.11 133.66 129.89 132.55 129.06 132.00 C 128.24 131.45 127.13 131.67 126.58 132.50 Z M 126.02 133.33 L 125.47 134.16 C 124.92 134.99 125.14 136.10 125.96 136.65 C 126.78 137.20 127.90 136.98 128.45 136.16 L 129.00 135.32 C 129.55 134.50 129.33 133.38 128.51 132.83 C 127.69 132.28 126.57 132.51 126.02 133.33 Z M 125.46 134.17 L 124.91 135.00 C 124.36 135.82 124.59 136.94 125.41 137.49 C 126.24 138.03 127.35 137.81 127.90 136.98 L 128.45 136.15 C 129.00 135.33 128.78 134.21 127.95 133.66 C 127.12 133.12 126.01 133.34 125.46 134.17 Z M 124.90 135.01 L 124.37 135.82 C 123.83 136.65 124.06 137.76 124.89 138.30 C 125.73 138.85 126.84 138.61 127.38 137.78 L 127.91 136.97 C 128.45 136.14 128.22 135.03 127.39 134.48 C 126.56 133.94 125.44 134.17 124.90 135.01 Z M 124.36 135.83 L 123.85 136.63 C 123.32 137.47 123.56 138.59 124.40 139.12 C 125.24 139.65 126.35 139.40 126.89 138.57 L 127.40 137.76 C 127.93 136.93 127.68 135.81 126.84 135.28 C 126.00 134.75 124.89 135.00 124.36 135.83 Z M 123.83 136.66 L 123.32 137.49 C 122.80 138.34 123.07 139.45 123.92 139.97 C 124.76 140.49 125.87 140.22 126.39 139.37 L 126.90 138.54 C 127.42 137.69 127.16 136.59 126.31 136.07 C 125.46 135.55 124.35 135.81 123.83 136.66 Z M 123.30 137.52 L 122.78 138.42 C 122.28 139.27 122.56 140.38 123.42 140.88 C 124.28 141.38 125.38 141.10 125.89 140.24 L 126.41 139.34 C 126.91 138.49 126.63 137.38 125.77 136.88 C 124.91 136.38 123.81 136.67 123.30 137.52 Z M 122.76 138.45 L 122.21 139.43 C 121.73 140.30 122.04 141.39 122.90 141.88 C 123.77 142.37 124.87 142.06 125.35 141.19 L 125.90 140.21 C 126.39 139.34 126.08 138.24 125.21 137.76 C 124.34 137.27 123.25 137.58 122.76 138.45 Z M 122.19 139.48 L 121.64 140.53 C 121.18 141.41 121.53 142.49 122.41 142.95 C 123.29 143.41 124.37 143.07 124.83 142.19 L 125.38 141.14 C 125.84 140.26 125.49 139.17 124.61 138.71 C 123.73 138.26 122.65 138.60 122.19 139.48 Z M 121.59 140.63 L 121.15 141.63 C 120.75 142.54 121.16 143.60 122.06 144.00 C 122.97 144.40 124.03 143.99 124.44 143.09 L 124.88 142.09 C 125.28 141.18 124.87 140.12 123.97 139.71 C 123.06 139.31 122.00 139.72 121.59 140.63 Z M 121.07 141.85 L 120.82 142.70 C 120.55 143.65 121.09 144.65 122.05 144.92 C 123.00 145.20 123.99 144.65 124.27 143.70 L 124.52 142.86 C 124.80 141.91 124.25 140.91 123.30 140.63 C 122.34 140.36 121.35 140.90 121.07 141.85 Z M 120.77 143.42 L 120.85 144.04 C 120.97 145.03 121.87 145.72 122.85 145.60 C 123.83 145.47 124.53 144.58 124.40 143.60 L 124.33 142.97 C 124.20 141.99 123.31 141.30 122.32 141.42 C 121.34 141.55 120.65 142.44 120.77 143.42 Z M 121.97 145.47 L 122.60 145.72 C 123.52 146.08 124.55 145.63 124.91 144.72 C 125.27 143.81 124.82 142.77 123.91 142.41 L 123.28 142.17 C 122.37 141.81 121.33 142.25 120.97 143.17 C 120.61 144.08 121.06 145.11 121.97 145.47 Z M 123.49 145.81 L 124.58 145.66 C 125.54 145.53 126.21 144.64 126.08 143.68 C 125.95 142.72 125.06 142.05 124.10 142.18 L 123.02 142.33 C 122.06 142.46 121.38 143.34 121.51 144.31 C 121.65 145.27 122.53 145.94 123.49 145.81 Z M 124.79 145.60 L 126.02 145.27 C 126.95 145.02 127.50 144.07 127.25 143.14 C 127.00 142.21 126.05 141.66 125.12 141.91 L 123.89 142.24 C 122.96 142.49 122.41 143.44 122.65 144.37 C 122.90 145.30 123.86 145.85 124.79 145.60 Z M 126.04 145.26 L 127.11 144.97 C 128.03 144.71 128.57 143.75 128.32 142.83 C 128.06 141.90 127.10 141.36 126.18 141.62 L 125.11 141.91 C 124.18 142.17 123.64 143.13 123.90 144.05 C 124.15 144.98 125.11 145.52 126.04 145.26 Z M 127.00 144.99 L 128.05 144.77 C 128.99 144.57 129.59 143.65 129.39 142.71 C 129.19 141.77 128.27 141.17 127.33 141.37 L 126.28 141.59 C 125.34 141.79 124.74 142.71 124.94 143.65 C 125.14 144.59 126.06 145.19 127.00 144.99 Z M 127.77 144.81 L 128.70 144.76 C 129.66 144.72 130.40 143.90 130.36 142.94 C 130.31 141.98 129.50 141.24 128.54 141.29 L 127.61 141.33 C 126.65 141.38 125.91 142.19 125.95 143.15 C 126.00 144.11 126.81 144.85 127.77 144.81 Z M 128.07 144.68 L 128.80 144.92 C 129.71 145.23 130.70 144.74 131.00 143.82 C 131.31 142.91 130.82 141.92 129.90 141.62 L 129.17 141.37 C 128.26 141.07 127.27 141.56 126.97 142.47 C 126.66 143.39 127.15 144.37 128.07 144.68 Z M 127.94 144.30 L 128.43 144.98 C 129.00 145.76 130.09 145.93 130.87 145.36 C 131.66 144.79 131.83 143.69 131.26 142.91 L 130.77 142.24 C 130.20 141.46 129.10 141.29 128.32 141.86 C 127.54 142.43 127.37 143.52 127.94 144.30 Z M 128.11 144.32 L 128.32 145.28 C 128.53 146.24 129.47 146.85 130.43 146.64 C 131.38 146.43 131.99 145.49 131.78 144.54 L 131.57 143.57 C 131.36 142.62 130.42 142.01 129.47 142.22 C 128.51 142.42 127.91 143.36 128.11 144.32 Z M 128.27 144.93 L 128.28 146.04 C 128.29 147.02 129.10 147.81 130.09 147.80 C 131.07 147.79 131.86 146.98 131.85 145.99 L 131.84 144.89 C 131.82 143.90 131.01 143.11 130.03 143.13 C 129.04 143.14 128.25 143.95 128.27 144.93 Z M 128.27 145.86 L 128.19 146.89 C 128.10 147.88 128.83 148.75 129.82 148.83 C 130.81 148.92 131.68 148.19 131.77 147.20 L 131.86 146.17 C 131.94 145.18 131.21 144.31 130.22 144.22 C 129.23 144.14 128.36 144.87 128.27 145.86 Z M 128.19 146.78 L 128.05 147.72 C 127.91 148.70 128.59 149.62 129.57 149.77 C 130.56 149.92 131.47 149.24 131.62 148.25 L 131.76 147.31 C 131.91 146.32 131.23 145.40 130.24 145.26 C 129.26 145.11 128.34 145.79 128.19 146.78 Z M 128.06 147.63 L 127.87 148.58 C 127.68 149.56 128.31 150.51 129.29 150.71 C 130.27 150.90 131.22 150.27 131.42 149.29 L 131.61 148.34 C 131.81 147.36 131.17 146.41 130.19 146.21 C 129.21 146.02 128.26 146.65 128.06 147.63 Z M 127.88 148.52 L 127.65 149.53 C 127.42 150.51 128.02 151.48 129.00 151.71 C 129.97 151.94 130.95 151.33 131.17 150.36 L 131.41 149.35 C 131.64 148.37 131.03 147.40 130.06 147.17 C 129.09 146.94 128.11 147.55 127.88 148.52 Z M 127.65 149.51 L 127.40 150.50 C 127.16 151.47 127.75 152.45 128.73 152.70 C 129.70 152.94 130.68 152.35 130.92 151.37 L 131.17 150.39 C 131.41 149.41 130.82 148.43 129.85 148.19 C 128.88 147.94 127.89 148.54 127.65 149.51 Z M 127.40 150.49 L 127.16 151.44 C 126.92 152.41 127.51 153.40 128.48 153.64 C 129.45 153.89 130.44 153.30 130.69 152.33 L 130.93 151.38 C 131.17 150.41 130.58 149.42 129.61 149.17 C 128.64 148.93 127.65 149.52 127.40 150.49 Z M 127.16 151.44 L 126.91 152.43 C 126.67 153.40 127.26 154.39 128.23 154.64 C 129.21 154.88 130.19 154.29 130.44 153.32 L 130.69 152.33 C 130.93 151.35 130.34 150.37 129.37 150.12 C 128.39 149.88 127.41 150.47 127.16 151.44 Z M 126.91 152.44 L 126.66 153.44 C 126.42 154.42 127.02 155.40 127.99 155.64 C 128.97 155.88 129.96 155.28 130.20 154.31 L 130.44 153.31 C 130.68 152.33 130.09 151.35 129.11 151.11 C 128.13 150.87 127.15 151.46 126.91 152.44 Z M 126.66 153.46 L 126.42 154.45 C 126.19 155.42 126.80 156.40 127.78 156.64 C 128.76 156.87 129.74 156.26 129.97 155.28 L 130.20 154.29 C 130.43 153.31 129.83 152.33 128.85 152.10 C 127.87 151.87 126.89 152.48 126.66 153.46 Z M 126.42 154.47 L 126.20 155.48 C 125.98 156.46 126.60 157.43 127.58 157.65 C 128.56 157.87 129.54 157.24 129.75 156.26 L 129.97 155.26 C 130.19 154.27 129.57 153.30 128.59 153.09 C 127.61 152.87 126.63 153.49 126.42 154.47 Z M 126.19 155.52 L 125.98 156.55 C 125.79 157.54 126.43 158.49 127.42 158.69 C 128.40 158.89 129.36 158.24 129.56 157.26 L 129.76 156.23 C 129.96 155.24 129.32 154.28 128.33 154.08 C 127.34 153.89 126.38 154.53 126.19 155.52 Z M 125.97 156.59 L 125.80 157.57 C 125.63 158.57 126.30 159.51 127.29 159.68 C 128.28 159.85 129.22 159.19 129.39 158.20 L 129.56 157.21 C 129.74 156.22 129.07 155.28 128.08 155.11 C 127.09 154.94 126.15 155.60 125.97 156.59 Z M 125.80 157.62 L 125.66 158.57 C 125.51 159.57 126.20 160.49 127.19 160.64 C 128.19 160.79 129.11 160.10 129.26 159.11 L 129.40 158.15 C 129.55 157.16 128.86 156.23 127.87 156.08 C 126.87 155.94 125.94 156.62 125.80 157.62 Z M 125.65 158.62 L 125.53 159.56 C 125.41 160.56 126.12 161.46 127.12 161.59 C 128.12 161.71 129.03 161.00 129.15 160.00 L 129.27 159.06 C 129.39 158.06 128.68 157.15 127.68 157.03 C 126.68 156.91 125.77 157.62 125.65 158.62 Z M 125.53 159.60 L 125.43 160.61 C 125.33 161.61 126.06 162.50 127.06 162.61 C 128.06 162.71 128.95 161.98 129.05 160.97 L 129.15 159.96 C 129.25 158.96 128.52 158.07 127.52 157.97 C 126.52 157.87 125.63 158.60 125.53 159.60 Z M 125.42 160.65 L 125.34 161.66 C 125.26 162.66 126.01 163.54 127.02 163.62 C 128.02 163.70 128.90 162.95 128.98 161.95 L 129.06 160.94 C 129.14 159.93 128.39 159.06 127.38 158.98 C 126.38 158.90 125.50 159.65 125.42 160.65 Z M 125.34 161.69 L 125.28 162.69 C 125.22 163.70 125.98 164.56 126.99 164.62 C 127.99 164.68 128.86 163.92 128.92 162.91 L 128.98 161.92 C 129.04 160.91 128.27 160.05 127.27 159.99 C 126.27 159.93 125.40 160.69 125.34 161.69 Z M 125.28 162.72 L 125.24 163.69 C 125.19 164.70 125.97 165.55 126.98 165.59 C 127.98 165.64 128.83 164.86 128.88 163.85 L 128.92 162.88 C 128.96 161.88 128.18 161.03 127.18 160.98 C 126.17 160.94 125.32 161.72 125.28 162.72 Z M 125.24 163.72 L 125.21 164.72 C 125.18 165.72 125.97 166.56 126.98 166.59 C 127.98 166.62 128.82 165.82 128.85 164.82 L 128.88 163.83 C 128.90 162.82 128.11 161.98 127.11 161.95 C 126.10 161.93 125.26 162.72 125.24 163.72 Z M 125.21 164.74 L 125.20 165.73 C 125.18 166.73 125.99 167.56 126.99 167.57 C 128.00 167.58 128.82 166.78 128.83 165.77 L 128.85 164.79 C 128.86 163.79 128.06 162.96 127.05 162.95 C 126.05 162.94 125.22 163.74 125.21 164.74 Z M 125.20 165.75 L 125.20 166.74 C 125.20 167.75 126.01 168.56 127.02 168.56 C 128.02 168.56 128.83 167.74 128.83 166.74 L 128.83 165.75 C 128.83 164.75 128.02 163.93 127.01 163.93 C 126.01 163.93 125.20 164.75 125.20 165.75 Z M 125.20 166.76 L 125.21 167.79 C 125.22 168.79 126.05 169.59 127.05 169.58 C 128.05 169.57 128.86 168.75 128.84 167.74 L 128.83 166.72 C 128.82 165.72 128.00 164.91 126.99 164.92 C 125.99 164.94 125.19 165.76 125.20 166.76 Z M 125.21 167.81 L 125.24 168.83 C 125.26 169.83 126.09 170.63 127.10 170.60 C 128.10 170.58 128.89 169.75 128.87 168.75 L 128.84 167.72 C 128.82 166.72 127.99 165.93 126.98 165.95 C 125.98 165.98 125.19 166.81 125.21 167.81 Z M 125.24 168.89 L 125.30 169.92 C 125.35 170.92 126.21 171.69 127.21 171.63 C 128.21 171.58 128.97 170.72 128.92 169.72 L 128.86 168.69 C 128.81 167.69 127.95 166.92 126.95 166.98 C 125.95 167.03 125.19 167.89 125.24 168.89 Z M 125.31 170.03 L 125.42 171.03 C 125.54 172.02 126.43 172.73 127.43 172.62 C 128.42 172.51 129.13 171.61 129.02 170.62 L 128.91 169.62 C 128.80 168.63 127.90 167.91 126.91 168.02 C 125.91 168.14 125.20 169.03 125.31 170.03 Z M 125.45 171.20 L 125.65 172.11 C 125.85 173.09 126.81 173.71 127.79 173.51 C 128.76 173.30 129.39 172.34 129.18 171.37 L 128.99 170.45 C 128.78 169.47 127.83 168.85 126.85 169.05 C 125.87 169.26 125.25 170.22 125.45 171.20 Z M 125.74 172.40 L 126.11 173.35 C 126.48 174.28 127.52 174.74 128.45 174.37 C 129.38 174.01 129.83 172.96 129.47 172.04 L 129.09 171.08 C 128.73 170.15 127.68 169.70 126.76 170.06 C 125.83 170.42 125.37 171.47 125.74 172.40 Z M 126.31 173.71 L 126.86 174.51 C 127.42 175.33 128.54 175.54 129.36 174.97 C 130.17 174.41 130.38 173.29 129.82 172.47 L 129.27 171.68 C 128.71 170.86 127.59 170.65 126.77 171.22 C 125.95 171.78 125.75 172.90 126.31 173.71 Z M 127.14 174.82 L 127.87 175.48 C 128.60 176.14 129.74 176.08 130.40 175.35 C 131.06 174.62 131.00 173.48 130.27 172.82 L 129.54 172.16 C 128.80 171.50 127.67 171.56 127.01 172.29 C 126.35 173.03 126.41 174.16 127.14 174.82 Z M 128.14 175.67 L 128.98 176.19 C 129.82 176.70 130.92 176.43 131.43 175.59 C 131.94 174.75 131.68 173.65 130.84 173.14 L 130.00 172.63 C 129.16 172.12 128.06 172.38 127.55 173.22 C 127.03 174.07 127.30 175.16 128.14 175.67 Z M 129.14 176.26 L 130.04 176.70 C 130.93 177.13 131.99 176.76 132.42 175.88 C 132.84 175.00 132.47 173.94 131.59 173.51 L 130.68 173.07 C 129.80 172.64 128.74 173.01 128.31 173.89 C 127.89 174.77 128.25 175.83 129.14 176.26 Z M 130.07 176.70 L 131.00 177.14 C 131.88 177.55 132.93 177.17 133.35 176.28 C 133.76 175.40 133.38 174.35 132.49 173.94 L 131.56 173.50 C 130.68 173.09 129.63 173.47 129.22 174.36 C 128.81 175.24 129.19 176.29 130.07 176.70 Z M 130.91 177.08 L 131.78 177.55 C 132.63 178.01 133.70 177.69 134.16 176.84 C 134.62 175.98 134.30 174.92 133.45 174.46 L 132.58 173.99 C 131.73 173.53 130.66 173.85 130.20 174.70 C 129.74 175.56 130.06 176.62 130.91 177.08 Z M 131.57 177.40 L 132.42 178.04 C 133.19 178.62 134.29 178.47 134.87 177.70 C 135.44 176.93 135.29 175.83 134.52 175.26 L 133.66 174.61 C 132.89 174.03 131.80 174.19 131.22 174.96 C 130.64 175.73 130.80 176.82 131.57 177.40 Z M 132.16 177.77 L 132.81 178.52 C 133.43 179.25 134.52 179.33 135.24 178.71 C 135.96 178.09 136.05 177.00 135.43 176.27 L 134.78 175.52 C 134.16 174.80 133.07 174.72 132.35 175.34 C 131.62 175.96 131.54 177.05 132.16 177.77 Z M 132.58 178.15 L 132.99 178.99 C 133.41 179.84 134.43 180.19 135.28 179.78 C 136.13 179.36 136.48 178.34 136.06 177.49 L 135.65 176.65 C 135.24 175.80 134.21 175.45 133.37 175.86 C 132.52 176.28 132.17 177.30 132.58 178.15 Z M 132.86 178.54 L 133.03 179.50 C 133.19 180.42 134.07 181.04 134.99 180.87 C 135.91 180.71 136.53 179.83 136.37 178.91 L 136.19 177.95 C 136.03 177.03 135.15 176.41 134.23 176.57 C 133.31 176.74 132.70 177.62 132.86 178.54 Z M 133.03 179.06 L 132.94 180.05 C 132.85 180.98 133.53 181.79 134.46 181.88 C 135.38 181.96 136.20 181.28 136.28 180.35 L 136.37 179.36 C 136.45 178.43 135.77 177.62 134.85 177.53 C 133.92 177.45 133.11 178.13 133.03 179.06 Z M 133.04 179.64 L 132.70 180.59 C 132.39 181.45 132.85 182.41 133.71 182.71 C 134.58 183.02 135.53 182.57 135.84 181.71 L 136.18 180.76 C 136.49 179.90 136.03 178.94 135.17 178.63 C 134.30 178.33 133.35 178.78 133.04 179.64 Z M 132.90 180.22 L 132.36 181.03 C 131.85 181.79 132.05 182.82 132.81 183.33 C 133.56 183.84 134.59 183.64 135.10 182.88 L 135.65 182.07 C 136.16 181.31 135.95 180.28 135.19 179.77 C 134.44 179.26 133.41 179.46 132.90 180.22 Z M 132.55 180.81 L 131.85 181.52 C 131.22 182.18 131.24 183.22 131.89 183.85 C 132.54 184.49 133.59 184.47 134.22 183.82 L 134.91 183.10 C 135.55 182.45 135.53 181.40 134.88 180.77 C 134.22 180.14 133.18 180.15 132.55 180.81 Z M 131.96 181.43 L 131.19 182.09 C 130.50 182.69 130.43 183.72 131.02 184.41 C 131.61 185.10 132.65 185.17 133.34 184.58 L 134.11 183.91 C 134.80 183.32 134.87 182.28 134.28 181.60 C 133.69 180.91 132.65 180.83 131.96 181.43 Z M 131.21 182.08 L 131.13 182.15 C 130.43 182.73 130.34 183.76 130.92 184.46 C 131.50 185.15 132.53 185.24 133.23 184.67 L 133.31 184.59 C 134.01 184.01 134.10 182.98 133.52 182.29 C 132.94 181.59 131.91 181.50 131.21 182.08 Z"
      fill="black"
      fill-rule="nonzero" /><path d="M 128.66 177.58 L 128.89 176.58 C 129.11 175.60 128.50 174.62 127.51 174.39 C 126.53 174.16 125.55 174.78 125.32 175.76 L 125.09 176.76 C 124.86 177.75 125.48 178.73 126.46 178.96 C 127.45 179.18 128.43 178.57 128.66 177.58 Z M 128.85 176.72 L 129.15 175.76 C 129.45 174.79 128.91 173.77 127.94 173.47 C 126.97 173.17 125.95 173.71 125.65 174.68 L 125.35 175.63 C 125.05 176.60 125.59 177.62 126.56 177.92 C 127.53 178.22 128.55 177.68 128.85 176.72 Z M 129.04 176.03 L 129.47 175.16 C 129.92 174.25 129.55 173.15 128.64 172.70 C 127.73 172.26 126.63 172.63 126.18 173.54 L 125.75 174.41 C 125.31 175.32 125.68 176.42 126.59 176.86 C 127.50 177.31 128.60 176.94 129.04 176.03 Z M 129.26 175.49 L 129.84 174.77 C 130.47 173.98 130.33 172.82 129.54 172.19 C 128.75 171.56 127.59 171.69 126.96 172.49 L 126.39 173.21 C 125.76 174.00 125.89 175.15 126.69 175.78 C 127.48 176.42 128.63 176.28 129.26 175.49 Z M 129.66 174.97 L 130.37 174.30 C 131.11 173.60 131.14 172.44 130.45 171.70 C 129.75 170.97 128.59 170.93 127.85 171.62 L 127.14 172.29 C 126.40 172.98 126.37 174.15 127.06 174.88 C 127.76 175.62 128.92 175.66 129.66 174.97 Z M 130.29 174.36 L 131.11 173.68 C 131.88 173.02 131.98 171.87 131.33 171.09 C 130.67 170.32 129.51 170.22 128.74 170.87 L 127.93 171.56 C 127.15 172.21 127.06 173.37 127.71 174.14 C 128.36 174.92 129.52 175.02 130.29 174.36 Z M 131.13 173.66 L 131.88 173.01 C 132.64 172.35 132.72 171.19 132.06 170.42 C 131.40 169.66 130.24 169.57 129.47 170.24 L 128.72 170.89 C 127.96 171.55 127.87 172.71 128.54 173.48 C 129.20 174.24 130.36 174.32 131.13 173.66 Z M 131.90 172.99 L 132.64 172.33 C 133.39 171.65 133.46 170.49 132.78 169.74 C 132.10 168.98 130.94 168.92 130.19 169.59 L 129.45 170.26 C 128.70 170.93 128.63 172.09 129.31 172.85 C 129.98 173.60 131.14 173.67 131.90 172.99 Z M 132.63 172.33 L 133.39 171.65 C 134.15 170.98 134.22 169.82 133.55 169.06 C 132.87 168.31 131.71 168.24 130.96 168.91 L 130.19 169.59 C 129.44 170.26 129.37 171.42 130.04 172.18 C 130.72 172.94 131.88 173.01 132.63 172.33 Z M 133.37 171.68 L 134.14 171.02 C 134.91 170.36 135.01 169.20 134.35 168.43 C 133.69 167.66 132.53 167.57 131.76 168.23 L 130.99 168.89 C 130.22 169.55 130.12 170.70 130.78 171.47 C 131.44 172.24 132.59 172.34 133.37 171.68 Z M 134.09 171.06 L 134.88 170.44 C 135.67 169.81 135.81 168.66 135.18 167.87 C 134.56 167.07 133.40 166.93 132.61 167.56 L 131.82 168.18 C 131.03 168.81 130.89 169.96 131.51 170.75 C 132.14 171.55 133.29 171.69 134.09 171.06 Z M 134.80 170.49 L 135.61 169.91 C 136.43 169.33 136.62 168.19 136.04 167.37 C 135.45 166.54 134.31 166.35 133.49 166.94 L 132.68 167.51 C 131.86 168.10 131.67 169.24 132.25 170.06 C 132.84 170.88 133.98 171.07 134.80 170.49 Z M 135.53 169.96 L 136.36 169.43 C 137.21 168.89 137.47 167.77 136.93 166.92 C 136.39 166.07 135.26 165.81 134.41 166.35 L 133.57 166.89 C 132.72 167.42 132.47 168.55 133.01 169.40 C 133.55 170.25 134.68 170.50 135.53 169.96 Z M 136.27 169.48 L 137.16 168.99 C 138.03 168.50 138.35 167.39 137.86 166.51 C 137.37 165.64 136.26 165.32 135.38 165.81 L 134.50 166.31 C 133.62 166.80 133.31 167.90 133.80 168.78 C 134.29 169.66 135.40 169.97 136.27 169.48 Z M 137.07 169.03 L 137.98 168.59 C 138.88 168.15 139.25 167.06 138.81 166.16 C 138.37 165.26 137.28 164.89 136.38 165.33 L 135.47 165.77 C 134.57 166.21 134.20 167.30 134.64 168.20 C 135.08 169.10 136.17 169.47 137.07 169.03 Z M 137.89 168.62 L 138.83 168.22 C 139.75 167.83 140.18 166.76 139.78 165.84 C 139.39 164.92 138.33 164.50 137.41 164.89 L 136.47 165.29 C 135.55 165.68 135.12 166.75 135.51 167.67 C 135.91 168.59 136.97 169.02 137.89 168.62 Z M 138.74 168.25 L 139.69 167.90 C 140.63 167.56 141.11 166.52 140.77 165.58 C 140.42 164.64 139.38 164.16 138.44 164.51 L 137.49 164.86 C 136.56 165.20 136.08 166.24 136.42 167.18 C 136.76 168.12 137.80 168.60 138.74 168.25 Z M 139.59 167.93 L 140.53 167.65 C 141.48 167.36 142.02 166.35 141.73 165.39 C 141.44 164.44 140.43 163.90 139.47 164.19 L 138.54 164.48 C 137.59 164.77 137.05 165.78 137.34 166.73 C 137.63 167.69 138.64 168.23 139.59 167.93 Z M 140.41 167.68 L 141.42 167.44 C 142.39 167.22 143.00 166.25 142.77 165.28 C 142.55 164.31 141.58 163.71 140.61 163.93 L 139.60 164.16 C 138.63 164.39 138.02 165.35 138.24 166.33 C 138.47 167.30 139.44 167.90 140.41 167.68 Z M 141.28 167.47 L 142.29 167.32 C 143.27 167.18 143.95 166.26 143.81 165.28 C 143.66 164.30 142.75 163.62 141.77 163.76 L 140.76 163.91 C 139.77 164.05 139.09 164.96 139.24 165.95 C 139.38 166.93 140.29 167.61 141.28 167.47 Z M 142.14 167.33 L 143.11 167.27 C 144.10 167.20 144.84 166.35 144.78 165.36 C 144.72 164.37 143.86 163.62 142.87 163.69 L 141.91 163.75 C 140.92 163.82 140.17 164.67 140.24 165.66 C 140.30 166.64 141.15 167.39 142.14 167.33 Z M 142.98 167.26 L 143.94 167.27 C 144.93 167.28 145.74 166.48 145.74 165.50 C 145.75 164.51 144.96 163.70 143.97 163.70 L 143.00 163.69 C 142.02 163.68 141.21 164.48 141.20 165.46 C 141.20 166.45 141.99 167.26 142.98 167.26 Z M 143.78 167.26 L 144.79 167.36 C 145.77 167.46 146.65 166.74 146.75 165.76 C 146.84 164.78 146.13 163.91 145.15 163.81 L 144.13 163.71 C 143.15 163.61 142.28 164.33 142.18 165.31 C 142.08 166.29 142.80 167.16 143.78 167.26 Z M 144.49 167.30 L 145.44 167.56 C 146.38 167.83 147.36 167.28 147.63 166.33 C 147.89 165.38 147.34 164.40 146.39 164.13 L 145.45 163.87 C 144.50 163.61 143.52 164.16 143.26 165.11 C 142.99 166.05 143.54 167.04 144.49 167.30 Z M 145.01 167.38 L 145.83 167.86 C 146.68 168.36 147.77 168.08 148.27 167.23 C 148.77 166.38 148.48 165.29 147.63 164.80 L 146.81 164.32 C 145.97 163.82 144.88 164.10 144.38 164.95 C 143.88 165.80 144.17 166.89 145.01 167.38 Z M 145.46 167.57 L 146.11 168.23 C 146.79 168.94 147.92 168.95 148.62 168.27 C 149.32 167.58 149.34 166.46 148.65 165.75 L 148.01 165.09 C 147.32 164.39 146.20 164.37 145.49 165.06 C 144.79 165.74 144.78 166.87 145.46 167.57 Z M 145.88 167.96 L 146.43 168.80 C 146.96 169.63 148.06 169.86 148.89 169.33 C 149.71 168.80 149.95 167.70 149.42 166.87 L 148.88 166.03 C 148.34 165.21 147.24 164.97 146.42 165.50 C 145.59 166.03 145.35 167.13 145.88 167.96 Z M 146.30 168.56 L 146.74 169.54 C 147.14 170.44 148.19 170.84 149.09 170.44 C 149.99 170.04 150.39 168.99 149.99 168.09 L 149.55 167.11 C 149.15 166.21 148.09 165.81 147.20 166.21 C 146.30 166.61 145.90 167.67 146.30 168.56 Z M 146.66 169.36 L 146.96 170.29 C 147.26 171.23 148.26 171.75 149.20 171.45 C 150.14 171.15 150.66 170.15 150.36 169.21 L 150.06 168.28 C 149.76 167.34 148.76 166.82 147.82 167.12 C 146.88 167.42 146.36 168.42 146.66 169.36 Z M 146.92 170.15 L 147.13 171.11 C 147.35 172.07 148.30 172.68 149.27 172.46 C 150.23 172.24 150.84 171.29 150.62 170.32 L 150.40 169.36 C 150.19 168.40 149.23 167.79 148.27 168.01 C 147.30 168.23 146.70 169.18 146.92 170.15 Z M 147.10 170.98 L 147.25 171.98 C 147.39 172.96 148.30 173.63 149.28 173.49 C 150.26 173.35 150.94 172.44 150.80 171.46 L 150.65 170.46 C 150.51 169.48 149.60 168.80 148.62 168.94 C 147.64 169.09 146.96 170.00 147.10 170.98 Z M 147.23 171.86 L 147.31 172.88 C 147.39 173.87 148.25 174.61 149.24 174.54 C 150.23 174.46 150.97 173.60 150.89 172.61 L 150.81 171.58 C 150.74 170.59 149.87 169.85 148.88 169.93 C 147.90 170.00 147.15 170.87 147.23 171.86 Z M 147.30 172.77 L 147.31 173.75 C 147.33 174.74 148.14 175.54 149.14 175.52 C 150.13 175.51 150.93 174.69 150.91 173.70 L 150.90 172.72 C 150.89 171.73 150.07 170.93 149.08 170.94 C 148.08 170.96 147.29 171.77 147.30 172.77 Z M 147.32 173.62 L 147.26 174.60 C 147.20 175.59 147.96 176.44 148.96 176.50 C 149.95 176.55 150.80 175.80 150.86 174.80 L 150.91 173.83 C 150.97 172.83 150.21 171.98 149.22 171.93 C 148.22 171.87 147.37 172.63 147.32 173.62 Z M 147.27 174.45 L 147.13 175.43 C 147.00 176.42 147.68 177.33 148.67 177.47 C 149.65 177.61 150.57 176.92 150.70 175.94 L 150.84 174.95 C 150.98 173.97 150.30 173.05 149.31 172.91 C 148.32 172.78 147.41 173.46 147.27 174.45 Z M 147.17 175.27 L 146.93 176.26 C 146.70 177.23 147.30 178.20 148.27 178.43 C 149.24 178.66 150.21 178.07 150.44 177.10 L 150.67 176.10 C 150.90 175.13 150.31 174.16 149.34 173.93 C 148.37 173.70 147.39 174.30 147.17 175.27 Z M 146.98 176.10 L 146.64 177.07 C 146.32 178.01 146.82 179.04 147.77 179.36 C 148.71 179.68 149.73 179.18 150.06 178.24 L 150.39 177.27 C 150.71 176.32 150.21 175.30 149.27 174.97 C 148.33 174.65 147.30 175.15 146.98 176.10 Z M 146.70 176.92 L 146.29 177.86 C 145.89 178.77 146.30 179.83 147.21 180.24 C 148.12 180.64 149.19 180.22 149.59 179.31 L 150.00 178.38 C 150.40 177.47 149.99 176.40 149.08 176.00 C 148.17 175.60 147.10 176.01 146.70 176.92 Z M 146.34 177.75 L 145.86 178.66 C 145.40 179.54 145.74 180.63 146.62 181.09 C 147.50 181.56 148.60 181.22 149.06 180.33 L 149.54 179.42 C 150.00 178.54 149.66 177.45 148.78 176.99 C 147.89 176.52 146.80 176.86 146.34 177.75 Z M 145.91 178.57 L 145.39 179.43 C 144.88 180.29 145.16 181.39 146.01 181.91 C 146.87 182.42 147.97 182.14 148.49 181.29 L 149.01 180.42 C 149.52 179.57 149.24 178.46 148.39 177.95 C 147.54 177.44 146.43 177.71 145.91 178.57 Z M 145.45 179.35 L 144.91 180.15 C 144.35 180.98 144.57 182.10 145.39 182.65 C 146.22 183.21 147.34 182.99 147.90 182.17 L 148.44 181.37 C 148.99 180.54 148.78 179.42 147.95 178.86 C 147.12 178.31 146.00 178.53 145.45 179.35 Z M 144.97 180.07 L 144.32 180.92 C 143.71 181.71 143.87 182.85 144.66 183.45 C 145.45 184.05 146.58 183.90 147.19 183.11 L 147.84 182.25 C 148.44 181.46 148.29 180.33 147.50 179.72 C 146.70 179.12 145.57 179.27 144.97 180.07 Z M 144.39 180.83 L 143.72 181.60 C 143.06 182.35 143.14 183.49 143.89 184.14 C 144.64 184.80 145.78 184.73 146.43 183.98 L 147.11 183.20 C 147.77 182.45 147.69 181.31 146.94 180.66 C 146.19 180.00 145.05 180.08 144.39 180.83 Z M 143.80 181.51 L 143.13 182.18 C 142.42 182.88 142.42 184.02 143.12 184.73 C 143.82 185.44 144.96 185.44 145.67 184.74 L 146.35 184.07 C 147.05 183.37 147.06 182.22 146.36 181.52 C 145.65 180.81 144.51 180.80 143.80 181.51 Z M 143.21 182.10 L 142.51 182.71 C 141.76 183.37 141.69 184.51 142.34 185.26 C 143.00 186.01 144.14 186.08 144.89 185.43 L 145.59 184.81 C 146.34 184.16 146.41 183.02 145.76 182.27 C 145.10 181.52 143.96 181.44 143.21 182.10 Z M 142.59 182.65 L 141.79 183.28 C 141.01 183.89 140.88 185.03 141.49 185.81 C 142.11 186.59 143.24 186.73 144.02 186.11 L 144.82 185.48 C 145.60 184.87 145.73 183.74 145.12 182.95 C 144.50 182.17 143.37 182.04 142.59 182.65 Z M 141.87 183.23 L 141.05 183.81 C 140.24 184.38 140.05 185.50 140.63 186.31 C 141.20 187.12 142.32 187.31 143.13 186.74 L 143.95 186.16 C 144.76 185.59 144.95 184.46 144.37 183.65 C 143.80 182.84 142.68 182.65 141.87 183.23 Z M 141.12 183.76 L 140.29 184.30 C 139.45 184.84 139.21 185.95 139.75 186.78 C 140.29 187.62 141.40 187.86 142.23 187.32 L 143.07 186.78 C 143.90 186.24 144.14 185.13 143.60 184.30 C 143.06 183.46 141.95 183.22 141.12 183.76 Z M 140.36 184.26 L 139.50 184.76 C 138.65 185.26 138.36 186.36 138.86 187.21 C 139.36 188.06 140.45 188.35 141.31 187.85 L 142.16 187.35 C 143.02 186.85 143.30 185.76 142.81 184.91 C 142.31 184.05 141.21 183.77 140.36 184.26 Z M 139.61 184.72 L 138.73 185.16 C 137.85 185.60 137.49 186.67 137.93 187.54 C 138.37 188.42 139.43 188.78 140.31 188.34 L 141.20 187.90 C 142.08 187.46 142.43 186.39 141.99 185.51 C 141.56 184.64 140.49 184.28 139.61 184.72 Z M 138.88 185.11 L 137.94 185.47 C 137.03 185.83 136.59 186.85 136.94 187.76 C 137.29 188.66 138.31 189.11 139.22 188.76 L 140.16 188.39 C 141.07 188.04 141.51 187.02 141.16 186.11 C 140.81 185.20 139.79 184.75 138.88 185.11 Z M 138.13 185.43 L 137.17 185.69 C 136.24 185.94 135.69 186.90 135.94 187.83 C 136.19 188.76 137.15 189.31 138.08 189.06 L 139.04 188.80 C 139.97 188.55 140.52 187.59 140.27 186.66 C 140.01 185.73 139.06 185.18 138.13 185.43 Z M 137.37 185.67 L 136.38 185.82 C 135.44 185.96 134.80 186.84 134.94 187.79 C 135.09 188.73 135.97 189.37 136.91 189.23 L 137.89 189.08 C 138.83 188.93 139.48 188.05 139.33 187.11 C 139.19 186.17 138.31 185.53 137.37 185.67 Z M 136.59 185.82 L 135.58 185.86 C 134.64 185.89 133.90 186.68 133.94 187.62 C 133.97 188.56 134.76 189.29 135.70 189.26 L 136.71 189.22 C 137.64 189.19 138.38 188.40 138.35 187.47 C 138.31 186.53 137.53 185.79 136.59 185.82 Z M 135.79 185.89 L 134.79 185.79 C 133.86 185.71 133.05 186.38 132.96 187.31 C 132.87 188.23 133.55 189.05 134.47 189.14 L 135.48 189.23 C 136.40 189.32 137.22 188.64 137.31 187.72 C 137.40 186.79 136.72 185.97 135.79 185.89 Z M 134.99 185.84 L 134.03 185.63 C 133.13 185.43 132.24 186.00 132.04 186.89 C 131.85 187.79 132.41 188.68 133.31 188.88 L 134.27 189.09 C 135.17 189.29 136.06 188.72 136.26 187.82 C 136.45 186.93 135.89 186.04 134.99 185.84 Z M 134.16 185.67 L 133.21 185.37 C 132.34 185.10 131.41 185.59 131.14 186.46 C 130.86 187.33 131.35 188.26 132.22 188.53 L 133.18 188.83 C 134.05 189.11 134.98 188.62 135.25 187.75 C 135.52 186.87 135.04 185.95 134.16 185.67 Z M 133.28 185.41 L 132.33 185.06 C 131.48 184.75 130.53 185.19 130.22 186.04 C 129.91 186.89 130.35 187.84 131.20 188.15 L 132.15 188.50 C 133.00 188.81 133.95 188.37 134.26 187.52 C 134.57 186.67 134.14 185.72 133.28 185.41 Z M 132.35 185.08 L 131.97 184.93 C 131.12 184.60 130.18 185.03 129.85 185.87 C 129.53 186.72 129.95 187.66 130.80 187.99 L 131.18 188.14 C 132.02 188.46 132.97 188.04 133.30 187.19 C 133.62 186.35 133.20 185.40 132.35 185.08 Z"
      fill="black"
      fill-rule="nonzero" /></svg>