<svg xmlns="http://www.w3.org/2000/svg" width="300" height="300" viewBox="0 0 300 300">
<path d="M 136.02 141.34 L 136.30 142.27 C 136.59 143.23 137.60 143.78 138.56 143.49 C 139.53 143.20 140.07 142.19 139.78 141.23 L 139.51 140.30 C 139.22 139.34 138.20 138.79 137.24 139.08 C 136.28 139.37 135.73 140.38 136.02 141.34 Z M 136.28 142.23 L 136.54 143.18 C 136.80 144.15 137.81 144.73 138.78 144.46 C 139.76 144.20 140.33 143.19 140.07 142.22 L 139.81 141.27 C 139.54 140.29 138.54 139.72 137.56 139.98 C 136.59 140.25 136.01 141.25 136.28 142.23 Z M 136.51 143.10 L 136.73 144.10 C 136.95 145.09 137.93 145.72 138.92 145.50 C 139.91 145.28 140.54 144.29 140.32 143.30 L 140.10 142.30 C 139.88 141.31 138.89 140.68 137.90 140.90 C 136.91 141.12 136.29 142.11 136.51 143.10 Z M 136.70 144.00 L 136.85 144.93 C 137.01 145.93 137.96 146.61 138.97 146.45 C 139.97 146.29 140.66 145.34 140.49 144.34 L 140.34 143.41 C 140.18 142.40 139.23 141.72 138.23 141.88 C 137.22 142.04 136.54 142.99 136.70 144.00 Z M 136.84 144.84 L 136.94 145.77 C 137.06 146.78 137.98 147.51 138.99 147.39 C 140.00 147.28 140.73 146.36 140.61 145.35 L 140.51 144.42 C 140.39 143.41 139.48 142.68 138.46 142.80 C 137.45 142.91 136.72 143.83 136.84 144.84 Z M 136.94 145.71 L 137.02 146.71 C 137.11 147.73 138.00 148.48 139.01 148.40 C 140.03 148.31 140.79 147.42 140.70 146.41 L 140.62 145.41 C 140.54 144.39 139.64 143.63 138.63 143.72 C 137.61 143.80 136.86 144.69 136.94 145.71 Z M 137.02 146.68 L 137.09 147.75 C 137.15 148.77 138.03 149.54 139.05 149.48 C 140.07 149.41 140.84 148.54 140.77 147.52 L 140.70 146.44 C 140.64 145.42 139.76 144.65 138.74 144.71 C 137.73 144.78 136.95 145.66 137.02 146.68 Z M 137.09 147.74 L 137.15 148.80 C 137.20 149.81 138.07 150.59 139.09 150.54 C 140.11 150.48 140.89 149.61 140.83 148.59 L 140.77 147.53 C 140.72 146.52 139.85 145.74 138.83 145.79 C 137.81 145.85 137.03 146.72 137.09 147.74 Z M 137.15 148.79 L 137.20 149.82 C 137.25 150.83 138.12 151.61 139.14 151.56 C 140.16 151.51 140.94 150.64 140.88 149.62 L 140.83 148.60 C 140.78 147.58 139.91 146.80 138.89 146.85 C 137.88 146.90 137.09 147.77 137.15 148.79 Z M 137.20 149.81 L 137.25 150.85 C 137.31 151.86 138.17 152.65 139.19 152.60 C 140.20 152.55 140.99 151.68 140.94 150.66 L 140.88 149.63 C 140.83 148.61 139.97 147.83 138.95 147.88 C 137.93 147.93 137.15 148.79 137.20 149.81 Z M 137.26 150.84 L 137.30 151.86 C 137.35 152.87 138.22 153.66 139.23 153.61 C 140.25 153.56 141.03 152.70 140.98 151.68 L 140.93 150.67 C 140.88 149.65 140.02 148.87 139.01 148.92 C 137.99 148.97 137.21 149.83 137.26 150.84 Z M 137.31 151.86 L 137.35 152.81 C 137.40 153.82 138.26 154.61 139.27 154.56 C 140.29 154.51 141.07 153.65 141.03 152.64 L 140.98 151.68 C 140.93 150.67 140.07 149.88 139.06 149.93 C 138.04 149.98 137.26 150.84 137.31 151.86 Z M 137.35 152.81 L 137.40 153.87 C 137.45 154.88 138.31 155.67 139.32 155.62 C 140.33 155.57 141.12 154.72 141.07 153.70 L 141.02 152.64 C 140.98 151.63 140.12 150.84 139.10 150.89 C 138.09 150.94 137.31 151.79 137.35 152.81 Z M 137.41 153.87 L 137.46 154.89 C 137.50 155.90 138.36 156.68 139.37 156.64 C 140.38 156.59 141.16 155.73 141.11 154.72 L 141.07 153.70 C 141.02 152.69 140.16 151.91 139.15 151.96 C 138.14 152.01 137.36 152.86 137.41 153.87 Z M 137.46 154.90 L 137.51 155.84 C 137.56 156.85 138.42 157.62 139.42 157.57 C 140.43 157.52 141.20 156.67 141.15 155.66 L 141.11 154.72 C 141.06 153.71 140.20 152.94 139.19 152.99 C 138.19 153.04 137.41 153.89 137.46 154.90 Z M 137.52 155.85 L 137.57 156.78 C 137.62 157.78 138.48 158.55 139.48 158.49 C 140.49 158.44 141.25 157.58 141.20 156.58 L 141.15 155.65 C 141.09 154.65 140.23 153.88 139.23 153.94 C 138.23 153.99 137.46 154.85 137.52 155.85 Z M 137.57 156.79 L 137.63 157.73 C 137.70 158.73 138.56 159.49 139.55 159.43 C 140.55 159.37 141.31 158.51 141.25 157.51 L 141.19 156.57 C 141.13 155.57 140.27 154.81 139.27 154.87 C 138.27 154.93 137.51 155.79 137.57 156.79 Z M 137.64 157.74 L 137.70 158.72 C 137.76 159.72 138.62 160.48 139.62 160.41 C 140.61 160.35 141.37 159.49 141.31 158.50 L 141.25 157.51 C 141.18 156.51 140.32 155.75 139.33 155.82 C 138.33 155.88 137.57 156.74 137.64 157.74 Z M 137.70 158.72 L 137.76 159.75 C 137.82 160.74 138.68 161.50 139.67 161.44 C 140.67 161.38 141.43 160.53 141.37 159.53 L 141.31 158.50 C 141.25 157.51 140.39 156.75 139.40 156.81 C 138.40 156.87 137.64 157.72 137.70 158.72 Z M 137.77 159.73 L 137.82 160.75 C 137.87 161.74 138.72 162.51 139.71 162.46 C 140.70 162.41 141.47 161.56 141.42 160.57 L 141.36 159.55 C 141.31 158.56 140.47 157.79 139.47 157.84 C 138.48 157.89 137.72 158.74 137.77 159.73 Z M 137.82 160.74 L 137.87 161.70 C 137.91 162.70 138.75 163.46 139.74 163.42 C 140.73 163.38 141.50 162.54 141.45 161.55 L 141.41 160.58 C 141.37 159.59 140.53 158.82 139.54 158.86 C 138.55 158.91 137.78 159.75 137.82 160.74 Z M 137.87 161.70 L 137.91 162.69 C 137.95 163.68 138.78 164.45 139.77 164.41 C 140.76 164.37 141.53 163.54 141.49 162.55 L 141.45 161.56 C 141.41 160.57 140.58 159.80 139.59 159.84 C 138.60 159.87 137.83 160.71 137.87 161.70 Z M 137.91 162.69 L 137.95 163.71 C 137.99 164.70 138.82 165.47 139.81 165.43 C 140.80 165.39 141.57 164.56 141.53 163.57 L 141.49 162.55 C 141.45 161.56 140.62 160.79 139.63 160.83 C 138.64 160.87 137.87 161.70 137.91 162.69 Z M 137.96 163.72 L 138.00 164.75 C 138.04 165.73 138.88 166.50 139.86 166.45 C 140.85 166.41 141.61 165.58 141.57 164.59 L 141.52 163.56 C 141.48 162.58 140.65 161.82 139.66 161.86 C 138.68 161.90 137.91 162.73 137.96 163.72 Z M 138.00 164.76 L 138.05 165.73 C 138.10 166.72 138.93 167.47 139.92 167.43 C 140.90 167.38 141.66 166.55 141.61 165.56 L 141.56 164.59 C 141.52 163.60 140.68 162.84 139.70 162.89 C 138.72 162.94 137.96 163.77 138.00 164.76 Z M 138.05 165.74 L 138.10 166.73 C 138.15 167.71 138.99 168.47 139.97 168.42 C 140.95 168.37 141.71 167.53 141.66 166.55 L 141.61 165.56 C 141.56 164.58 140.72 163.82 139.74 163.87 C 138.76 163.92 138.00 164.76 138.05 165.74 Z M 138.11 166.73 L 138.16 167.73 C 138.20 168.71 139.04 169.47 140.02 169.42 C 141.00 169.37 141.75 168.54 141.70 167.56 L 141.65 166.55 C 141.61 165.57 140.77 164.82 139.79 164.87 C 138.81 164.91 138.06 165.75 138.11 166.73 Z M 138.16 167.73 L 138.21 168.74 C 138.25 169.72 139.08 170.48 140.06 170.43 C 141.04 170.39 141.80 169.56 141.75 168.58 L 141.70 167.56 C 141.66 166.58 140.83 165.83 139.85 165.87 C 138.87 165.92 138.11 166.75 138.16 167.73 Z M 138.21 168.74 L 138.25 169.73 C 138.29 170.71 139.12 171.47 140.09 171.43 C 141.07 171.39 141.83 170.56 141.79 169.58 L 141.75 168.59 C 141.71 167.61 140.88 166.85 139.90 166.89 C 138.93 166.93 138.17 167.76 138.21 168.74 Z M 138.25 169.72 L 138.29 170.71 C 138.32 171.68 139.14 172.45 140.12 172.41 C 141.10 172.37 141.86 171.55 141.82 170.58 L 141.79 169.59 C 141.75 168.62 140.93 167.86 139.96 167.89 C 138.98 167.93 138.22 168.75 138.25 169.72 Z M 138.29 170.70 L 138.32 171.69 C 138.35 172.67 139.17 173.43 140.14 173.40 C 141.12 173.37 141.88 172.55 141.85 171.58 L 141.82 170.59 C 141.79 169.61 140.97 168.85 140.00 168.88 C 139.02 168.91 138.26 169.72 138.29 170.70 Z M 138.33 171.69 L 138.35 172.69 C 138.38 173.67 139.20 174.43 140.17 174.40 C 141.14 174.38 141.91 173.56 141.88 172.59 L 141.85 171.58 C 141.82 170.61 141.01 169.85 140.04 169.87 C 139.06 169.90 138.30 170.71 138.33 171.69 Z M 138.36 172.69 L 138.38 173.71 C 138.41 174.68 139.22 175.45 140.19 175.42 C 141.16 175.39 141.93 174.58 141.90 173.61 L 141.88 172.59 C 141.85 171.62 141.04 170.85 140.07 170.88 C 139.10 170.91 138.33 171.72 138.36 172.69 Z M 138.39 173.71 L 138.41 174.72 C 138.44 175.69 139.25 176.45 140.22 176.43 C 141.19 176.40 141.95 175.60 141.93 174.62 L 141.90 173.61 C 141.88 172.64 141.07 171.88 140.10 171.90 C 139.13 171.93 138.36 172.74 138.39 173.71 Z M 138.42 174.72 L 138.45 175.73 C 138.47 176.70 139.28 177.46 140.24 177.44 C 141.21 177.41 141.98 176.61 141.95 175.64 L 141.92 174.63 C 141.90 173.66 141.09 172.89 140.13 172.92 C 139.16 172.94 138.39 173.75 138.42 174.72 Z M 138.45 175.73 L 138.48 176.74 C 138.50 177.71 139.31 178.47 140.27 178.44 C 141.24 178.42 142.00 177.61 141.97 176.65 L 141.95 175.64 C 141.92 174.67 141.12 173.91 140.15 173.93 C 139.19 173.96 138.42 174.76 138.45 175.73 Z M 138.48 176.74 L 138.51 177.74 C 138.53 178.70 139.33 179.47 140.30 179.44 C 141.26 179.41 142.02 178.61 142.00 177.65 L 141.97 176.65 C 141.94 175.68 141.14 174.92 140.18 174.95 C 139.21 174.98 138.45 175.78 138.48 176.74 Z M 138.51 177.74 L 138.54 178.72 C 138.56 179.68 139.36 180.44 140.33 180.42 C 141.29 180.39 142.05 179.59 142.02 178.63 L 141.99 177.65 C 141.97 176.69 141.17 175.93 140.20 175.95 C 139.24 175.98 138.48 176.78 138.51 177.74 Z M 138.54 178.72 L 138.57 179.76 C 138.60 180.72 139.40 181.47 140.36 181.44 C 141.32 181.42 142.07 180.62 142.04 179.66 L 142.02 178.63 C 141.99 177.67 141.19 176.91 140.23 176.94 C 139.27 176.96 138.51 177.76 138.54 178.72 Z M 138.57 179.76 L 138.60 180.78 C 138.63 181.74 139.43 182.49 140.39 182.46 C 141.34 182.44 142.10 181.64 142.07 180.68 L 142.04 179.66 C 142.01 178.70 141.21 177.95 140.26 177.97 C 139.30 178.00 138.55 178.80 138.57 179.76 Z M 138.61 180.78 L 138.64 181.78 C 138.67 182.73 139.46 183.48 140.42 183.45 C 141.37 183.43 142.12 182.63 142.10 181.67 L 142.07 180.68 C 142.04 179.72 141.24 178.97 140.29 179.00 C 139.33 179.03 138.58 179.83 138.61 180.78 Z M 138.64 181.78 L 138.67 182.75 C 138.70 183.70 139.50 184.45 140.45 184.42 C 141.40 184.39 142.15 183.60 142.12 182.64 L 142.09 181.67 C 142.06 180.72 141.27 179.97 140.31 180.00 C 139.36 180.03 138.61 180.82 138.64 181.78 Z M 138.67 182.75 L 138.70 183.73 C 138.73 184.68 139.53 185.42 140.48 185.40 C 141.43 185.37 142.18 184.57 142.15 183.62 L 142.12 182.64 C 142.09 181.69 141.29 180.94 140.34 180.97 C 139.39 181.00 138.64 181.80 138.67 182.75 Z M 138.71 183.73 L 138.74 184.75 C 138.77 185.70 139.56 186.44 140.51 186.41 C 141.46 186.38 142.21 185.59 142.18 184.64 L 142.14 183.62 C 142.11 182.67 141.32 181.93 140.37 181.96 C 139.42 181.99 138.68 182.78 138.71 183.73 Z M 138.75 184.75 L 138.78 185.75 C 138.81 186.70 139.60 187.44 140.55 187.41 C 141.49 187.38 142.24 186.59 142.20 185.64 L 142.17 184.64 C 142.14 183.69 141.35 182.95 140.40 182.98 C 139.46 183.01 138.71 183.80 138.75 184.75 Z M 138.78 185.75 L 138.81 186.74 C 138.84 187.68 139.64 188.42 140.58 188.39 C 141.52 188.36 142.26 187.57 142.23 186.63 L 142.20 185.64 C 142.17 184.70 141.38 183.96 140.44 183.99 C 139.49 184.02 138.75 184.81 138.78 185.75 Z M 138.82 186.74 L 138.85 187.72 C 138.88 188.67 139.67 189.40 140.61 189.37 C 141.55 189.34 142.29 188.55 142.26 187.61 L 142.23 186.63 C 142.20 185.69 141.41 184.95 140.47 184.98 C 139.53 185.01 138.79 185.80 138.82 186.74 Z M 138.86 187.72 L 138.89 188.75 C 138.92 189.69 139.71 190.42 140.65 190.39 C 141.59 190.36 142.32 189.57 142.29 188.63 L 142.26 187.61 C 142.23 186.67 141.44 185.94 140.50 185.97 C 139.56 186.00 138.82 186.79 138.86 187.72 Z M 138.89 188.74 L 138.92 189.75 C 138.95 190.68 139.74 191.42 140.67 191.39 C 141.61 191.36 142.35 190.58 142.32 189.64 L 142.29 188.64 C 142.26 187.70 141.47 186.96 140.54 186.99 C 139.60 187.02 138.86 187.81 138.89 188.74 Z M 138.93 189.74 L 138.95 190.72 C 138.98 191.66 139.76 192.40 140.69 192.37 C 141.63 192.35 142.36 191.57 142.34 190.64 L 142.31 189.65 C 142.29 188.71 141.51 187.98 140.58 188.00 C 139.64 188.03 138.90 188.80 138.93 189.74 Z M 138.96 190.71 L 138.98 191.70 C 138.99 192.64 139.76 193.38 140.70 193.36 C 141.63 193.34 142.37 192.57 142.36 191.64 L 142.34 190.65 C 142.32 189.71 141.55 188.97 140.61 188.99 C 139.68 189.01 138.94 189.78 138.96 190.71 Z M 138.98 191.69 L 138.99 192.71 C 139.00 193.64 139.76 194.39 140.70 194.38 C 141.63 194.37 142.37 193.60 142.36 192.67 L 142.35 191.65 C 142.34 190.72 141.58 189.98 140.65 189.99 C 139.72 190.00 138.97 190.76 138.98 191.69 Z M 138.99 192.70 L 139.00 193.70 C 139.00 194.63 139.76 195.38 140.69 195.37 C 141.62 195.37 142.37 194.61 142.36 193.68 L 142.36 192.68 C 142.36 191.75 141.60 191.00 140.67 191.01 C 139.74 191.01 138.99 191.77 138.99 192.70 Z M 139.00 193.69 L 139.00 194.67 C 139.00 195.60 139.76 196.35 140.68 196.35 C 141.61 196.35 142.36 195.60 142.36 194.67 L 142.36 193.69 C 142.36 192.76 141.61 192.01 140.68 192.01 C 139.75 192.01 139.00 192.76 139.00 193.69 Z M 139.01 194.67 L 139.01 195.60 C 139.01 196.52 139.76 197.27 140.68 197.27 C 141.61 197.27 142.36 196.52 142.36 195.60 L 142.36 194.67 C 142.36 193.74 141.61 192.99 140.68 192.99 C 139.76 192.99 139.01 193.74 139.01 194.67 Z M 139.01 195.60 L 139.01 196.53 C 139.01 197.46 139.76 198.21 140.68 198.21 C 141.61 198.21 142.36 197.46 142.36 196.53 L 142.36 195.60 C 142.36 194.67 141.61 193.92 140.68 193.92 C 139.76 193.92 139.01 194.67 139.01 195.60 Z M 139.01 196.53 L 139.01 197.54 C 139.01 198.46 139.76 199.21 140.68 199.21 C 141.61 199.21 142.35 198.46 142.35 197.54 L 142.35 196.53 C 142.35 195.61 141.61 194.86 140.68 194.86 C 139.76 194.86 139.01 195.61 139.01 196.53 Z M 139.01 197.54 L 139.01 198.66 C 139.01 199.58 139.76 200.33 140.68 200.33 C 141.60 200.33 142.35 199.58 142.35 198.66 L 142.35 197.54 C 142.35 196.61 141.60 195.87 140.68 195.87 C 139.76 195.87 139.01 196.61 139.01 197.54 Z M 139.02 198.66 L 139.02 199.61 C 139.02 200.53 139.76 201.28 140.68 201.28 C 141.60 201.28 142.35 200.53 142.35 199.61 L 142.35 198.66 C 142.35 197.74 141.60 196.99 140.68 196.99 C 139.76 196.99 139.02 197.74 139.02 198.66 Z M 139.02 199.62 L 139.02 200.63 C 139.02 201.55 139.77 202.29 140.69 202.29 C 141.60 202.29 142.35 201.54 142.35 200.62 L 142.35 199.61 C 142.34 198.69 141.60 197.95 140.68 197.95 C 139.76 197.95 139.02 198.70 139.02 199.62 Z M 139.02 200.63 L 139.03 201.67 C 139.03 202.59 139.78 203.33 140.69 203.32 C 141.61 203.32 142.35 202.57 142.35 201.66 L 142.34 200.62 C 142.34 199.70 141.60 198.96 140.68 198.97 C 139.76 198.97 139.02 199.72 139.02 200.63 Z M 139.03 201.67 L 139.04 202.70 C 139.04 203.61 139.79 204.35 140.70 204.34 C 141.62 204.34 142.36 203.59 142.35 202.68 L 142.34 201.65 C 142.34 200.74 141.59 200.00 140.68 200.01 C 139.76 200.01 139.02 200.76 139.03 201.67 Z M 139.04 202.70 L 139.05 203.69 C 139.06 204.60 139.81 205.33 140.72 205.32 C 141.64 205.31 142.37 204.56 142.36 203.65 L 142.35 202.67 C 142.34 201.75 141.59 201.02 140.67 201.03 C 139.76 201.04 139.03 201.79 139.04 202.70 Z M 139.05 203.70 L 139.08 204.81 C 139.09 205.72 139.85 206.45 140.76 206.43 C 141.67 206.41 142.39 205.66 142.38 204.75 L 142.36 203.64 C 142.34 202.73 141.59 202.00 140.67 202.02 C 139.76 202.03 139.04 202.79 139.05 203.70 Z M 139.08 204.82 L 139.11 205.83 C 139.13 206.74 139.89 207.46 140.80 207.44 C 141.71 207.41 142.43 206.66 142.40 205.75 L 142.37 204.73 C 142.35 203.83 141.59 203.11 140.68 203.13 C 139.77 203.16 139.05 203.91 139.08 204.82 Z M 139.11 205.85 L 139.14 206.79 C 139.17 207.70 139.93 208.41 140.84 208.38 C 141.75 208.35 142.46 207.59 142.43 206.68 L 142.40 205.74 C 142.37 204.83 141.61 204.12 140.70 204.15 C 139.79 204.18 139.08 204.94 139.11 205.85 Z M 139.15 206.80 L 139.18 207.61 C 139.21 208.52 139.97 209.22 140.87 209.19 C 141.78 209.16 142.49 208.40 142.45 207.49 L 142.42 206.68 C 142.39 205.77 141.63 205.06 140.73 205.10 C 139.82 205.13 139.11 205.89 139.15 206.80 Z"
      fill="black"
      fill-rule="nonzero" /><path d="M 137.80 142.83 L 137.81 141.71 C 137.82 140.74 137.05 139.95 136.08 139.94 C 135.11 139.92 134.31 140.70 134.30 141.67 L 134.29 142.79 C 134.27 143.76 135.05 144.55 136.02 144.57 C 136.99 144.58 137.78 143.80 137.80 142.83 Z M 137.82 141.86 L 137.92 140.83 C 138.02 139.85 137.30 138.98 136.33 138.89 C 135.35 138.79 134.48 139.51 134.39 140.48 L 134.29 141.52 C 134.19 142.50 134.91 143.37 135.88 143.46 C 136.86 143.56 137.73 142.84 137.82 141.86 Z M 137.87 141.20 L 138.14 140.34 C 138.44 139.39 137.92 138.38 136.97 138.08 C 136.02 137.78 135.01 138.30 134.71 139.25 L 134.44 140.11 C 134.14 141.06 134.66 142.07 135.61 142.37 C 136.56 142.67 137.57 142.15 137.87 141.20 Z M 137.79 140.99 L 138.34 140.38 C 139.00 139.62 138.92 138.48 138.17 137.81 C 137.42 137.15 136.27 137.22 135.60 137.98 L 135.06 138.59 C 134.40 139.35 134.47 140.50 135.23 141.16 C 135.98 141.82 137.13 141.75 137.79 140.99 Z M 137.69 140.86 L 138.51 140.51 C 139.44 140.11 139.87 139.04 139.48 138.11 C 139.08 137.18 138.01 136.75 137.08 137.15 L 136.25 137.50 C 135.33 137.89 134.89 138.97 135.29 139.89 C 135.68 140.82 136.76 141.25 137.69 140.86 Z M 138.08 140.63 L 139.10 140.47 C 140.10 140.32 140.79 139.38 140.63 138.38 C 140.47 137.38 139.54 136.70 138.54 136.86 L 137.51 137.02 C 136.51 137.18 135.83 138.11 135.99 139.11 C 136.15 140.11 137.08 140.79 138.08 140.63 Z M 138.92 140.50 L 140.03 140.44 C 141.04 140.39 141.82 139.52 141.77 138.51 C 141.71 137.50 140.85 136.72 139.84 136.78 L 138.73 136.83 C 137.71 136.89 136.94 137.75 136.99 138.76 C 137.04 139.77 137.90 140.55 138.92 140.50 Z M 139.98 140.44 L 140.97 140.42 C 141.98 140.39 142.78 139.55 142.76 138.54 C 142.73 137.53 141.89 136.73 140.88 136.75 L 139.89 136.77 C 138.88 136.80 138.08 137.64 138.10 138.65 C 138.12 139.66 138.97 140.47 139.98 140.44 Z M 140.95 140.42 L 141.95 140.41 C 142.96 140.39 143.78 139.56 143.76 138.55 C 143.75 137.54 142.92 136.73 141.91 136.74 L 140.90 136.75 C 139.89 136.76 139.08 137.59 139.09 138.61 C 139.10 139.62 139.93 140.43 140.95 140.42 Z M 141.94 140.41 L 142.94 140.40 C 143.96 140.40 144.77 139.57 144.77 138.56 C 144.77 137.55 143.94 136.73 142.93 136.73 L 141.92 136.74 C 140.91 136.74 140.09 137.57 140.09 138.58 C 140.10 139.59 140.92 140.41 141.94 140.41 Z M 142.94 140.40 L 143.94 140.40 C 144.95 140.40 145.77 139.58 145.77 138.57 C 145.77 137.55 144.95 136.73 143.94 136.73 L 142.94 136.73 C 141.92 136.73 141.10 137.56 141.10 138.57 C 141.10 139.58 141.92 140.40 142.94 140.40 Z M 143.93 140.40 L 144.93 140.40 C 145.94 140.40 146.76 139.58 146.76 138.57 C 146.76 137.56 145.94 136.73 144.93 136.73 L 143.94 136.73 C 142.92 136.73 142.10 137.55 142.10 138.57 C 142.10 139.58 142.92 140.40 143.93 140.40 Z M 144.92 140.40 L 145.91 140.41 C 146.92 140.41 147.75 139.60 147.75 138.58 C 147.76 137.57 146.94 136.75 145.93 136.74 L 144.94 136.73 C 143.93 136.73 143.10 137.54 143.10 138.56 C 143.09 139.57 143.91 140.40 144.92 140.40 Z M 145.89 140.41 L 146.89 140.42 C 147.90 140.44 148.74 139.63 148.75 138.62 C 148.77 137.60 147.96 136.77 146.95 136.76 L 145.95 136.74 C 144.93 136.73 144.10 137.53 144.09 138.55 C 144.07 139.56 144.88 140.39 145.89 140.41 Z M 146.87 140.42 L 147.88 140.45 C 148.89 140.47 149.73 139.68 149.76 138.67 C 149.79 137.65 148.99 136.81 147.98 136.78 L 146.97 136.76 C 145.96 136.73 145.11 137.53 145.09 138.54 C 145.06 139.55 145.86 140.39 146.87 140.42 Z M 147.85 140.44 L 148.82 140.49 C 149.83 140.53 150.69 139.74 150.73 138.73 C 150.77 137.72 149.99 136.87 148.98 136.83 L 148.01 136.79 C 147.00 136.74 146.14 137.53 146.10 138.54 C 146.06 139.55 146.84 140.40 147.85 140.44 Z M 148.79 140.48 L 149.78 140.54 C 150.79 140.60 151.66 139.84 151.72 138.83 C 151.78 137.82 151.02 136.96 150.01 136.89 L 149.01 136.83 C 148.01 136.77 147.14 137.54 147.08 138.54 C 147.02 139.55 147.78 140.42 148.79 140.48 Z M 149.74 140.54 L 150.75 140.62 C 151.75 140.71 152.64 139.96 152.72 138.96 C 152.81 137.96 152.06 137.07 151.06 136.98 L 150.05 136.90 C 149.05 136.81 148.16 137.56 148.08 138.56 C 147.99 139.57 148.73 140.45 149.74 140.54 Z M 150.70 140.62 L 151.71 140.73 C 152.71 140.85 153.62 140.13 153.73 139.13 C 153.84 138.13 153.13 137.22 152.13 137.11 L 151.11 136.99 C 150.11 136.88 149.21 137.60 149.09 138.60 C 148.98 139.60 149.69 140.50 150.70 140.62 Z M 151.65 140.72 L 152.64 140.87 C 153.64 141.02 154.56 140.33 154.71 139.33 C 154.86 138.34 154.17 137.41 153.17 137.26 L 152.18 137.12 C 151.19 136.97 150.26 137.66 150.12 138.65 C 149.97 139.65 150.66 140.58 151.65 140.72 Z M 152.59 140.86 L 153.57 141.04 C 154.56 141.21 155.51 140.55 155.68 139.56 C 155.86 138.57 155.20 137.63 154.21 137.45 L 153.23 137.27 C 152.24 137.10 151.29 137.75 151.11 138.74 C 150.94 139.74 151.60 140.68 152.59 140.86 Z M 153.52 141.02 L 154.50 141.23 C 155.48 141.43 156.45 140.80 156.65 139.82 C 156.86 138.83 156.23 137.87 155.24 137.66 L 154.26 137.46 C 153.28 137.25 152.31 137.89 152.11 138.87 C 151.90 139.86 152.53 140.82 153.52 141.02 Z M 154.45 141.22 L 155.43 141.45 C 156.41 141.68 157.39 141.07 157.62 140.09 C 157.85 139.11 157.24 138.13 156.26 137.90 L 155.29 137.68 C 154.31 137.45 153.33 138.05 153.10 139.03 C 152.87 140.01 153.48 140.99 154.45 141.22 Z M 155.39 141.44 L 156.35 141.69 C 157.33 141.94 158.32 141.35 158.57 140.38 C 158.82 139.41 158.24 138.42 157.27 138.16 L 156.30 137.91 C 155.33 137.66 154.34 138.25 154.09 139.22 C 153.83 140.19 154.42 141.19 155.39 141.44 Z M 156.31 141.67 L 157.26 141.94 C 158.23 142.22 159.24 141.66 159.51 140.69 C 159.78 139.73 159.22 138.72 158.26 138.45 L 157.31 138.18 C 156.34 137.90 155.34 138.46 155.06 139.43 C 154.79 140.40 155.35 141.40 156.31 141.67 Z M 157.22 141.93 L 158.16 142.23 C 159.12 142.53 160.14 141.99 160.44 141.04 C 160.74 140.08 160.21 139.06 159.25 138.76 L 158.30 138.46 C 157.35 138.16 156.33 138.69 156.03 139.65 C 155.73 140.61 156.26 141.63 157.22 141.93 Z M 158.11 142.21 L 159.06 142.54 C 160.00 142.87 161.04 142.37 161.37 141.42 C 161.70 140.47 161.20 139.44 160.25 139.11 L 159.30 138.78 C 158.36 138.45 157.32 138.95 156.99 139.89 C 156.66 140.84 157.16 141.88 158.11 142.21 Z M 159.00 142.51 L 159.95 142.88 C 160.88 143.25 161.93 142.78 162.30 141.85 C 162.66 140.91 162.20 139.86 161.26 139.50 L 160.31 139.13 C 159.38 138.77 158.32 139.23 157.96 140.16 C 157.60 141.10 158.06 142.15 159.00 142.51 Z M 159.88 142.86 L 160.82 143.26 C 161.74 143.66 162.81 143.24 163.21 142.32 C 163.60 141.40 163.18 140.33 162.26 139.93 L 161.32 139.52 C 160.40 139.13 159.34 139.55 158.94 140.47 C 158.54 141.39 158.96 142.46 159.88 142.86 Z M 160.75 143.23 L 161.67 143.67 C 162.57 144.11 163.66 143.73 164.09 142.83 C 164.53 141.93 164.15 140.85 163.25 140.41 L 162.33 139.96 C 161.43 139.53 160.35 139.90 159.91 140.80 C 159.47 141.71 159.85 142.79 160.75 143.23 Z M 161.59 143.63 L 162.48 144.12 C 163.35 144.60 164.46 144.28 164.94 143.40 C 165.42 142.52 165.10 141.42 164.22 140.94 L 163.33 140.45 C 162.46 139.97 161.36 140.29 160.87 141.17 C 160.39 142.05 160.71 143.15 161.59 143.63 Z M 162.38 144.06 L 163.21 144.59 C 164.06 145.12 165.17 144.87 165.71 144.03 C 166.25 143.18 166.00 142.06 165.15 141.53 L 164.32 141.00 C 163.47 140.46 162.36 140.71 161.82 141.56 C 161.28 142.40 161.53 143.52 162.38 144.06 Z M 163.09 144.50 L 163.88 145.10 C 164.68 145.70 165.81 145.54 166.41 144.74 C 167.01 143.94 166.86 142.80 166.06 142.20 L 165.27 141.61 C 164.47 141.01 163.34 141.17 162.73 141.97 C 162.13 142.77 162.29 143.90 163.09 144.50 Z M 163.73 144.97 L 164.50 145.69 C 165.23 146.37 166.37 146.34 167.05 145.61 C 167.74 144.88 167.70 143.73 166.97 143.05 L 166.21 142.33 C 165.48 141.65 164.33 141.68 163.65 142.41 C 162.97 143.14 163.00 144.28 163.73 144.97 Z M 164.34 145.51 L 164.97 146.29 C 165.60 147.06 166.74 147.17 167.51 146.54 C 168.28 145.91 168.40 144.77 167.77 144.00 L 167.13 143.23 C 166.50 142.45 165.37 142.34 164.59 142.97 C 163.82 143.60 163.71 144.74 164.34 145.51 Z M 164.81 146.06 L 165.30 146.89 C 165.81 147.75 166.92 148.03 167.78 147.52 C 168.64 147.01 168.92 145.90 168.41 145.05 L 167.92 144.22 C 167.41 143.36 166.30 143.08 165.44 143.59 C 164.59 144.10 164.31 145.21 164.81 146.06 Z M 165.18 146.62 L 165.53 147.52 C 165.89 148.45 166.94 148.91 167.86 148.55 C 168.79 148.19 169.25 147.14 168.89 146.21 L 168.54 145.31 C 168.17 144.38 167.13 143.92 166.20 144.29 C 165.27 144.65 164.81 145.70 165.18 146.62 Z M 165.44 147.24 L 165.65 148.23 C 165.86 149.20 166.82 149.83 167.79 149.62 C 168.77 149.41 169.39 148.46 169.18 147.48 L 168.97 146.49 C 168.77 145.52 167.81 144.90 166.83 145.10 C 165.86 145.31 165.24 146.27 165.44 147.24 Z M 165.62 147.98 L 165.69 148.98 C 165.76 149.98 166.62 150.73 167.61 150.66 C 168.60 150.59 169.35 149.73 169.29 148.74 L 169.22 147.73 C 169.15 146.74 168.29 145.99 167.29 146.06 C 166.30 146.13 165.55 146.99 165.62 147.98 Z M 165.69 148.77 L 165.64 149.75 C 165.59 150.75 166.35 151.59 167.35 151.65 C 168.34 151.70 169.19 150.93 169.24 149.94 L 169.29 148.95 C 169.34 147.96 168.57 147.11 167.58 147.06 C 166.58 147.01 165.74 147.77 165.69 148.77 Z M 165.66 149.56 L 165.50 150.53 C 165.34 151.51 166.01 152.44 166.99 152.59 C 167.98 152.75 168.90 152.08 169.06 151.10 L 169.22 150.13 C 169.37 149.15 168.71 148.22 167.72 148.06 C 166.74 147.91 165.82 148.58 165.66 149.56 Z M 165.55 150.32 L 165.28 151.25 C 165.01 152.21 165.56 153.21 166.51 153.48 C 167.47 153.76 168.47 153.20 168.74 152.25 L 169.01 151.31 C 169.29 150.36 168.73 149.36 167.78 149.08 C 166.82 148.81 165.82 149.36 165.55 150.32 Z M 165.36 151.03 L 164.97 151.95 C 164.57 152.86 164.99 153.92 165.90 154.31 C 166.81 154.71 167.87 154.29 168.27 153.38 L 168.66 152.47 C 169.06 151.55 168.64 150.49 167.73 150.10 C 166.82 149.70 165.76 150.12 165.36 151.03 Z M 165.06 151.76 L 164.57 152.61 C 164.07 153.47 164.36 154.57 165.22 155.07 C 166.07 155.57 167.17 155.28 167.67 154.42 L 168.17 153.57 C 168.67 152.71 168.38 151.61 167.52 151.11 C 166.66 150.61 165.56 150.90 165.06 151.76 Z M 164.65 152.48 L 164.17 153.16 C 163.60 153.97 163.79 155.09 164.60 155.66 C 165.41 156.23 166.53 156.04 167.10 155.23 L 167.59 154.55 C 168.16 153.74 167.97 152.62 167.16 152.05 C 166.35 151.47 165.23 151.67 164.65 152.48 Z M 164.24 153.07 L 163.66 153.79 C 163.04 154.56 163.17 155.69 163.94 156.31 C 164.71 156.93 165.84 156.81 166.46 156.04 L 167.04 155.32 C 167.66 154.55 167.53 153.42 166.76 152.80 C 165.99 152.18 164.86 152.30 164.24 153.07 Z M 163.72 153.73 L 163.04 154.50 C 162.39 155.24 162.46 156.37 163.20 157.02 C 163.94 157.68 165.07 157.61 165.73 156.86 L 166.40 156.10 C 167.06 155.36 166.99 154.23 166.25 153.57 C 165.51 152.92 164.37 152.99 163.72 153.73 Z M 163.08 154.45 L 162.30 155.29 C 161.62 156.01 161.65 157.14 162.37 157.82 C 163.09 158.49 164.22 158.46 164.90 157.74 L 165.69 156.91 C 166.36 156.19 166.33 155.06 165.61 154.38 C 164.89 153.70 163.76 153.74 163.08 154.45 Z M 162.33 155.27 L 161.55 156.05 C 160.86 156.76 160.87 157.89 161.57 158.58 C 162.28 159.27 163.41 159.26 164.10 158.56 L 164.87 157.77 C 165.56 157.06 165.55 155.93 164.85 155.24 C 164.15 154.55 163.02 154.56 162.33 155.27 Z M 161.57 156.04 L 160.85 156.75 C 160.15 157.45 160.15 158.58 160.84 159.27 C 161.54 159.97 162.67 159.97 163.37 159.28 L 164.08 158.57 C 164.78 157.87 164.78 156.75 164.09 156.05 C 163.39 155.35 162.26 155.35 161.57 156.04 Z M 160.86 156.74 L 160.11 157.48 C 159.41 158.17 159.40 159.29 160.09 160.00 C 160.78 160.70 161.91 160.71 162.61 160.02 L 163.36 159.29 C 164.06 158.60 164.07 157.47 163.38 156.77 C 162.69 156.07 161.56 156.06 160.86 156.74 Z M 160.12 157.47 L 159.37 158.21 C 158.66 158.89 158.64 160.02 159.33 160.72 C 160.02 161.43 161.14 161.44 161.85 160.76 L 162.60 160.02 C 163.31 159.34 163.32 158.21 162.64 157.51 C 161.95 156.80 160.83 156.79 160.12 157.47 Z M 159.37 158.20 L 158.63 158.92 C 157.92 159.60 157.90 160.73 158.58 161.44 C 159.27 162.14 160.39 162.16 161.10 161.48 L 161.84 160.76 C 162.55 160.08 162.57 158.95 161.89 158.25 C 161.20 157.54 160.08 157.52 159.37 158.20 Z M 158.63 158.92 L 157.92 159.60 C 157.22 160.28 157.20 161.41 157.88 162.11 C 158.56 162.82 159.68 162.84 160.39 162.16 L 161.10 161.48 C 161.80 160.80 161.83 159.67 161.14 158.97 C 160.46 158.26 159.34 158.24 158.63 158.92 Z M 157.92 159.60 L 157.28 160.23 C 156.57 160.91 156.55 162.03 157.23 162.74 C 157.91 163.45 159.04 163.47 159.74 162.79 L 160.39 162.16 C 161.10 161.48 161.12 160.35 160.44 159.65 C 159.75 158.94 158.63 158.92 157.92 159.60 Z M 157.28 160.24 L 156.44 161.05 C 155.73 161.73 155.72 162.85 156.40 163.56 C 157.08 164.26 158.20 164.27 158.90 163.59 L 159.74 162.78 C 160.44 162.10 160.46 160.98 159.78 160.27 C 159.10 159.57 157.98 159.55 157.28 160.24 Z M 156.44 161.06 L 155.72 161.76 C 155.02 162.44 155.01 163.56 155.69 164.25 C 156.36 164.95 157.48 164.97 158.18 164.29 L 158.90 163.58 C 159.60 162.90 159.61 161.79 158.93 161.09 C 158.25 160.40 157.14 160.38 156.44 161.06 Z M 155.73 161.76 L 155.07 162.40 C 154.37 163.08 154.35 164.19 155.03 164.88 C 155.70 165.58 156.81 165.60 157.51 164.92 L 158.17 164.28 C 158.86 163.61 158.88 162.50 158.21 161.80 C 157.53 161.11 156.42 161.09 155.73 161.76 Z M 155.09 162.40 L 154.42 163.03 C 153.72 163.70 153.70 164.80 154.36 165.50 C 155.03 166.19 156.13 166.22 156.83 165.56 L 157.49 164.93 C 158.19 164.26 158.21 163.16 157.55 162.46 C 156.89 161.76 155.78 161.74 155.09 162.40 Z M 154.44 163.02 L 153.76 163.66 C 153.06 164.31 153.02 165.41 153.68 166.11 C 154.33 166.81 155.43 166.85 156.13 166.20 L 156.81 165.56 C 157.51 164.91 157.55 163.81 156.89 163.11 C 156.24 162.41 155.14 162.37 154.44 163.02 Z M 153.78 163.65 L 153.06 164.31 C 152.36 164.95 152.31 166.05 152.96 166.75 C 153.60 167.46 154.70 167.50 155.40 166.86 L 156.12 166.20 C 156.82 165.56 156.87 164.46 156.22 163.76 C 155.58 163.05 154.48 163.00 153.78 163.65 Z M 153.07 164.30 L 152.32 164.99 C 151.61 165.63 151.56 166.72 152.20 167.43 C 152.84 168.13 153.94 168.18 154.64 167.54 L 155.39 166.86 C 156.10 166.22 156.15 165.13 155.51 164.42 C 154.87 163.71 153.78 163.66 153.07 164.30 Z M 152.33 164.99 L 151.56 165.69 C 150.85 166.32 150.80 167.41 151.43 168.12 C 152.07 168.82 153.16 168.88 153.87 168.24 L 154.64 167.54 C 155.34 166.90 155.40 165.81 154.76 165.11 C 154.12 164.40 153.03 164.35 152.33 164.99 Z M 151.56 165.69 L 150.79 166.38 C 150.09 167.02 150.03 168.11 150.67 168.81 C 151.31 169.51 152.39 169.57 153.10 168.93 L 153.86 168.23 C 154.57 167.60 154.62 166.51 153.98 165.81 C 153.35 165.11 152.26 165.05 151.56 165.69 Z M 150.79 166.39 L 150.07 167.05 C 149.37 167.68 149.32 168.77 149.95 169.46 C 150.59 170.16 151.67 170.22 152.37 169.58 L 153.09 168.92 C 153.79 168.29 153.85 167.21 153.21 166.51 C 152.57 165.81 151.49 165.76 150.79 166.39 Z M 150.08 167.05 L 149.36 167.70 C 148.66 168.33 148.61 169.41 149.24 170.11 C 149.87 170.80 150.95 170.86 151.64 170.23 L 152.36 169.58 C 153.06 168.94 153.11 167.87 152.48 167.17 C 151.85 166.48 150.78 166.42 150.08 167.05 Z M 149.38 167.70 L 148.64 168.36 C 147.95 168.98 147.89 170.05 148.51 170.74 C 149.13 171.44 150.20 171.50 150.90 170.88 L 151.63 170.23 C 152.33 169.60 152.39 168.53 151.76 167.84 C 151.14 167.14 150.07 167.08 149.38 167.70 Z M 148.66 168.35 L 147.90 169.02 C 147.20 169.63 147.13 170.69 147.74 171.39 C 148.35 172.09 149.42 172.16 150.12 171.55 L 150.88 170.88 C 151.58 170.27 151.65 169.21 151.04 168.51 C 150.43 167.81 149.36 167.74 148.66 168.35 Z M 147.92 169.01 L 147.12 169.69 C 146.42 170.29 146.33 171.35 146.93 172.05 C 147.53 172.75 148.58 172.84 149.29 172.24 L 150.09 171.56 C 150.80 170.96 150.88 169.90 150.28 169.20 C 149.68 168.50 148.63 168.41 147.92 169.01 Z M 147.14 169.69 L 146.43 170.28 C 145.72 170.86 145.62 171.91 146.21 172.62 C 146.79 173.33 147.84 173.43 148.55 172.84 L 149.27 172.25 C 149.97 171.66 150.07 170.61 149.49 169.91 C 148.90 169.20 147.85 169.10 147.14 169.69 Z M 146.44 170.27 L 145.69 170.88 C 144.98 171.46 144.87 172.50 145.45 173.22 C 146.03 173.93 147.07 174.04 147.78 173.46 L 148.54 172.85 C 149.25 172.27 149.36 171.23 148.78 170.51 C 148.20 169.80 147.16 169.69 146.44 170.27 Z M 145.70 170.88 L 144.92 171.50 C 144.21 172.07 144.09 173.12 144.66 173.83 C 145.23 174.54 146.28 174.66 146.99 174.09 L 147.77 173.46 C 148.49 172.89 148.60 171.85 148.03 171.14 C 147.46 170.42 146.42 170.31 145.70 170.88 Z M 144.93 171.50 L 144.13 172.14 C 143.41 172.70 143.29 173.74 143.86 174.46 C 144.42 175.17 145.46 175.29 146.18 174.73 L 146.98 174.09 C 147.70 173.52 147.82 172.49 147.25 171.77 C 146.68 171.06 145.65 170.94 144.93 171.50 Z M 144.14 172.14 L 143.32 172.78 C 142.60 173.34 142.48 174.38 143.04 175.09 C 143.60 175.81 144.64 175.93 145.35 175.37 L 146.17 174.72 C 146.88 174.16 147.01 173.13 146.45 172.41 C 145.88 171.70 144.85 171.58 144.14 172.14 Z M 143.32 172.78 L 142.59 173.36 C 141.87 173.92 141.75 174.95 142.31 175.66 C 142.87 176.38 143.90 176.50 144.61 175.94 L 145.35 175.37 C 146.06 174.81 146.19 173.78 145.63 173.06 C 145.07 172.35 144.04 172.22 143.32 172.78 Z"
      fill="black"
      fill-rule="nonzero" /></svg>