<svg xmlns="http://www.w3.org/2000/svg" width="300" height="300" viewBox="0 0 300 300">
<path d="M 152.71 113.79 L 152.52 114.69 C 152.31 115.66 152.94 116.62 153.91 116.82 C 154.89 117.03 155.84 116.40 156.05 115.43 L 156.24 114.53 C 156.45 113.55 155.82 112.60 154.85 112.39 C 153.87 112.19 152.92 112.81 152.71 113.79 Z M 152.47 114.71 L 152.29 115.64 C 152.10 116.65 152.75 117.61 153.76 117.81 C 154.76 118.00 155.73 117.34 155.92 116.34 L 156.10 115.41 C 156.29 114.40 155.64 113.43 154.63 113.24 C 153.63 113.05 152.66 113.71 152.47 114.71 Z M 152.23 115.70 L 152.08 116.69 C 151.92 117.73 152.62 118.70 153.66 118.86 C 154.69 119.02 155.66 118.31 155.82 117.28 L 155.98 116.28 C 156.14 115.25 155.43 114.28 154.40 114.12 C 153.37 113.96 152.40 114.66 152.23 115.70 Z M 152.02 116.77 L 151.90 117.86 C 151.78 118.92 152.54 119.88 153.61 120.00 C 154.67 120.12 155.63 119.36 155.75 118.29 L 155.88 117.20 C 156.00 116.14 155.23 115.18 154.17 115.06 C 153.10 114.94 152.14 115.70 152.02 116.77 Z M 151.86 117.94 L 151.79 118.93 C 151.72 120.02 152.53 120.96 153.62 121.03 C 154.70 121.11 155.64 120.29 155.72 119.21 L 155.79 118.21 C 155.86 117.13 155.05 116.19 153.96 116.11 C 152.88 116.04 151.94 116.86 151.86 117.94 Z M 151.79 118.99 L 151.75 120.01 C 151.70 121.09 152.55 122.01 153.63 122.06 C 154.72 122.10 155.64 121.26 155.68 120.17 L 155.72 119.15 C 155.77 118.07 154.93 117.15 153.84 117.10 C 152.75 117.06 151.83 117.90 151.79 118.99 Z M 151.74 120.04 L 151.72 121.08 C 151.70 122.17 152.56 123.07 153.65 123.09 C 154.74 123.12 155.64 122.26 155.66 121.17 L 155.68 120.13 C 155.71 119.04 154.85 118.14 153.76 118.12 C 152.67 118.09 151.77 118.96 151.74 120.04 Z M 151.72 121.11 L 151.71 122.13 C 151.70 123.22 152.57 124.11 153.66 124.12 C 154.75 124.13 155.64 123.25 155.65 122.17 L 155.66 121.14 C 155.67 120.05 154.80 119.16 153.71 119.15 C 152.62 119.14 151.73 120.02 151.72 121.11 Z M 151.71 122.14 L 151.71 123.12 C 151.70 124.21 152.59 125.09 153.67 125.09 C 154.76 125.09 155.65 124.21 155.65 123.13 L 155.65 122.15 C 155.66 121.06 154.77 120.18 153.69 120.17 C 152.60 120.17 151.71 121.05 151.71 122.14 Z M 151.71 123.12 L 151.71 124.19 C 151.71 125.28 152.59 126.16 153.68 126.16 C 154.77 126.16 155.65 125.28 155.65 124.19 L 155.65 123.12 C 155.65 122.03 154.77 121.15 153.68 121.15 C 152.59 121.15 151.71 122.03 151.71 123.12 Z M 151.71 124.19 L 151.71 125.22 C 151.70 126.31 152.59 127.20 153.67 127.20 C 154.76 127.20 155.65 126.32 155.65 125.23 L 155.65 124.19 C 155.65 123.10 154.77 122.22 153.68 122.22 C 152.59 122.22 151.71 123.10 151.71 124.19 Z M 151.70 125.22 L 151.70 126.17 C 151.69 127.26 152.57 128.15 153.66 128.16 C 154.75 128.16 155.64 127.29 155.64 126.20 L 155.65 125.24 C 155.66 124.15 154.78 123.26 153.69 123.25 C 152.60 123.25 151.71 124.13 151.70 125.22 Z M 151.70 126.16 L 151.69 127.09 C 151.68 128.18 152.55 129.07 153.64 129.09 C 154.73 129.10 155.62 128.23 155.63 127.14 L 155.64 126.21 C 155.66 125.12 154.78 124.23 153.70 124.21 C 152.61 124.20 151.71 125.07 151.70 126.16 Z M 151.69 127.08 L 151.67 128.02 C 151.65 129.11 152.52 130.01 153.60 130.03 C 154.69 130.05 155.59 129.18 155.62 128.10 L 155.63 127.15 C 155.65 126.06 154.79 125.16 153.70 125.14 C 152.61 125.12 151.71 125.99 151.69 127.08 Z M 151.67 128.01 L 151.65 128.98 C 151.62 130.07 152.48 130.97 153.57 131.00 C 154.66 131.03 155.56 130.17 155.59 129.08 L 155.61 128.11 C 155.64 127.02 154.78 126.11 153.69 126.08 C 152.60 126.06 151.70 126.92 151.67 128.01 Z M 151.65 128.97 L 151.62 129.98 C 151.58 131.07 152.44 131.98 153.53 132.01 C 154.62 132.04 155.53 131.19 155.56 130.10 L 155.59 129.09 C 155.62 128.00 154.77 127.09 153.68 127.06 C 152.59 127.03 151.68 127.88 151.65 128.97 Z M 151.62 129.98 L 151.58 131.02 C 151.55 132.11 152.40 133.02 153.49 133.05 C 154.58 133.08 155.49 132.23 155.53 131.14 L 155.56 130.10 C 155.59 129.01 154.74 128.10 153.65 128.07 C 152.56 128.03 151.65 128.89 151.62 129.98 Z M 151.58 131.02 L 151.55 132.00 C 151.52 133.09 152.37 134.00 153.46 134.03 C 154.55 134.07 155.46 133.21 155.50 132.12 L 155.53 131.14 C 155.56 130.05 154.71 129.14 153.62 129.11 C 152.53 129.07 151.62 129.93 151.58 131.02 Z M 151.55 132.00 L 151.52 132.98 C 151.49 134.06 152.34 134.98 153.43 135.01 C 154.52 135.04 155.43 134.19 155.47 133.10 L 155.50 132.12 C 155.53 131.03 154.68 130.12 153.59 130.09 C 152.50 130.06 151.59 130.91 151.55 132.00 Z M 151.52 132.97 L 151.49 133.97 C 151.45 135.06 152.31 135.97 153.40 136.01 C 154.48 136.05 155.40 135.19 155.43 134.10 L 155.47 133.10 C 155.50 132.01 154.65 131.10 153.56 131.07 C 152.47 131.03 151.56 131.88 151.52 132.97 Z M 151.49 133.97 L 151.45 134.99 C 151.41 136.08 152.26 136.99 153.35 137.03 C 154.44 137.07 155.36 136.22 155.39 135.13 L 155.43 134.11 C 155.47 133.02 154.62 132.11 153.53 132.07 C 152.44 132.03 151.53 132.88 151.49 133.97 Z M 151.45 134.98 L 151.41 136.00 C 151.37 137.09 152.21 138.01 153.30 138.05 C 154.39 138.10 155.31 137.25 155.35 136.16 L 155.39 135.14 C 155.44 134.05 154.59 133.13 153.50 133.09 C 152.42 133.05 151.50 133.89 151.45 134.98 Z M 151.41 135.99 L 151.37 136.97 C 151.32 138.06 152.16 138.98 153.25 139.03 C 154.34 139.08 155.26 138.24 155.31 137.15 L 155.35 136.17 C 155.40 135.08 154.56 134.16 153.47 134.11 C 152.38 134.06 151.46 134.90 151.41 135.99 Z M 151.37 136.96 L 151.32 137.95 C 151.26 139.04 152.10 139.96 153.19 140.02 C 154.28 140.07 155.21 139.23 155.26 138.14 L 155.31 137.15 C 155.36 136.07 154.52 135.14 153.43 135.09 C 152.35 135.03 151.42 135.87 151.37 136.96 Z M 151.32 137.95 L 151.27 138.95 C 151.21 140.04 152.05 140.97 153.14 141.02 C 154.22 141.08 155.15 140.24 155.21 139.15 L 155.26 138.15 C 155.31 137.06 154.48 136.13 153.39 136.08 C 152.30 136.02 151.37 136.86 151.32 137.95 Z M 151.27 138.95 L 151.21 139.96 C 151.16 141.05 151.99 141.98 153.08 142.04 C 154.17 142.10 155.10 141.26 155.15 140.17 L 155.21 139.15 C 155.26 138.07 154.43 137.14 153.34 137.08 C 152.25 137.02 151.32 137.86 151.27 138.95 Z M 151.21 139.96 L 151.16 140.97 C 151.10 142.06 151.94 142.99 153.03 143.04 C 154.11 143.10 155.04 142.26 155.10 141.18 L 155.15 140.17 C 155.21 139.08 154.38 138.16 153.29 138.10 C 152.20 138.04 151.27 138.88 151.21 139.96 Z M 151.16 140.97 L 151.11 141.94 C 151.05 143.03 151.89 143.96 152.98 144.01 C 154.07 144.07 154.99 143.23 155.05 142.15 L 155.10 141.18 C 155.16 140.09 154.32 139.16 153.23 139.10 C 152.15 139.05 151.22 139.88 151.16 140.97 Z M 151.11 141.94 L 151.06 142.92 C 151.00 144.01 151.84 144.94 152.93 145.00 C 154.02 145.05 154.94 144.22 155.00 143.13 L 155.05 142.14 C 155.11 141.06 154.27 140.13 153.18 140.07 C 152.09 140.02 151.17 140.85 151.11 141.94 Z M 151.06 142.93 L 151.01 143.93 C 150.95 145.01 151.79 145.94 152.88 146.00 C 153.97 146.05 154.89 145.21 154.95 144.13 L 155.00 143.13 C 155.05 142.04 154.22 141.11 153.13 141.06 C 152.04 141.00 151.11 141.84 151.06 142.93 Z M 151.01 143.93 L 150.96 144.95 C 150.90 146.03 151.74 146.96 152.83 147.01 C 153.92 147.07 154.84 146.23 154.90 145.14 L 154.95 144.12 C 155.00 143.04 154.16 142.11 153.08 142.06 C 151.99 142.00 151.06 142.84 151.01 143.93 Z M 150.96 144.95 L 150.91 145.98 C 150.86 147.07 151.69 147.99 152.78 148.05 C 153.87 148.10 154.80 147.26 154.85 146.17 L 154.90 145.14 C 154.95 144.05 154.11 143.13 153.02 143.07 C 151.94 143.02 151.01 143.86 150.96 144.95 Z M 150.91 145.98 L 150.86 146.97 C 150.81 148.06 151.65 148.99 152.74 149.04 C 153.82 149.09 154.75 148.25 154.80 147.16 L 154.85 146.17 C 154.90 145.08 154.06 144.16 152.97 144.11 C 151.88 144.05 150.96 144.89 150.91 145.98 Z M 150.86 146.97 L 150.81 147.98 C 150.76 149.06 151.60 149.99 152.69 150.04 C 153.78 150.09 154.70 149.25 154.75 148.16 L 154.80 147.16 C 154.85 146.07 154.01 145.15 152.93 145.10 C 151.84 145.04 150.91 145.88 150.86 146.97 Z M 150.81 147.97 L 150.76 148.98 C 150.71 150.07 151.55 150.99 152.64 151.05 C 153.72 151.10 154.65 150.26 154.70 149.17 L 154.75 148.17 C 154.81 147.08 153.97 146.15 152.88 146.10 C 151.79 146.05 150.87 146.88 150.81 147.97 Z M 150.76 148.98 L 150.71 149.98 C 150.66 151.07 151.49 152.00 152.58 152.05 C 153.67 152.11 154.59 151.27 154.65 150.19 L 154.70 149.18 C 154.76 148.09 153.92 147.16 152.83 147.11 C 151.75 147.05 150.82 147.89 150.76 148.98 Z M 150.71 149.97 L 150.66 150.97 C 150.60 152.06 151.43 152.99 152.52 153.05 C 153.60 153.11 154.54 152.28 154.60 151.19 L 154.65 150.19 C 154.71 149.10 153.88 148.17 152.79 148.11 C 151.70 148.05 150.77 148.89 150.71 149.97 Z M 150.66 150.96 L 150.60 151.97 C 150.53 153.05 151.36 153.99 152.45 154.05 C 153.53 154.12 154.47 153.29 154.53 152.20 L 154.59 151.20 C 154.66 150.11 153.83 149.18 152.74 149.11 C 151.66 149.05 150.72 149.87 150.66 150.96 Z M 150.60 151.96 L 150.53 152.97 C 150.46 154.05 151.29 154.99 152.37 155.06 C 153.46 155.13 154.40 154.31 154.47 153.22 L 154.53 152.21 C 154.60 151.13 153.78 150.19 152.69 150.12 C 151.61 150.05 150.67 150.87 150.60 151.96 Z M 150.53 152.96 L 150.47 153.96 C 150.39 155.04 151.21 155.98 152.30 156.06 C 153.38 156.13 154.32 155.31 154.40 154.23 L 154.47 153.23 C 154.54 152.14 153.72 151.20 152.63 151.13 C 151.55 151.06 150.61 151.88 150.53 152.96 Z M 150.47 153.96 L 150.40 154.95 C 150.32 156.03 151.14 156.97 152.23 157.05 C 153.31 157.12 154.25 156.30 154.33 155.22 L 154.40 154.23 C 154.47 153.14 153.65 152.20 152.57 152.13 C 151.48 152.05 150.54 152.87 150.47 153.96 Z M 150.40 154.95 L 150.33 155.94 C 150.26 157.02 151.08 157.96 152.16 158.03 C 153.25 158.11 154.19 157.29 154.26 156.20 L 154.33 155.21 C 154.40 154.13 153.58 153.19 152.50 153.12 C 151.41 153.04 150.47 153.86 150.40 154.95 Z M 150.33 155.94 L 150.27 156.93 C 150.20 158.02 151.02 158.95 152.11 159.02 C 153.19 159.09 154.13 158.27 154.20 157.18 L 154.26 156.19 C 154.33 155.11 153.51 154.17 152.42 154.10 C 151.34 154.03 150.40 154.86 150.33 155.94 Z M 150.27 156.94 L 150.21 157.93 C 150.15 159.01 150.97 159.94 152.06 160.01 C 153.14 160.07 154.07 159.25 154.14 158.16 L 154.20 157.17 C 154.26 156.09 153.43 155.16 152.35 155.09 C 151.27 155.03 150.33 155.86 150.27 156.94 Z M 150.21 157.94 L 150.16 158.93 C 150.10 160.02 150.93 160.94 152.01 161.00 C 153.10 161.06 154.02 160.23 154.08 159.15 L 154.14 158.15 C 154.20 157.07 153.37 156.14 152.28 156.08 C 151.20 156.02 150.27 156.85 150.21 157.94 Z M 150.16 158.94 L 150.11 159.94 C 150.05 161.02 150.88 161.95 151.96 162.00 C 153.05 162.06 153.97 161.23 154.03 160.14 L 154.08 159.14 C 154.14 158.06 153.31 157.13 152.22 157.08 C 151.14 157.02 150.21 157.85 150.16 158.94 Z M 150.11 159.94 L 150.06 160.95 C 150.00 162.03 150.84 162.95 151.92 163.00 C 153.00 163.06 153.92 162.23 153.98 161.14 L 154.03 160.14 C 154.08 159.06 153.25 158.13 152.17 158.08 C 151.08 158.02 150.16 158.86 150.11 159.94 Z M 150.06 160.95 L 150.01 161.95 C 149.95 163.04 150.79 163.96 151.87 164.01 C 152.95 164.06 153.87 163.23 153.93 162.15 L 153.98 161.14 C 154.03 160.06 153.20 159.14 152.11 159.08 C 151.03 159.03 150.11 159.87 150.06 160.95 Z M 150.01 161.95 L 149.96 162.96 C 149.91 164.04 150.74 164.96 151.82 165.02 C 152.90 165.07 153.82 164.23 153.88 163.15 L 153.93 162.15 C 153.98 161.06 153.14 160.14 152.06 160.09 C 150.98 160.04 150.06 160.87 150.01 161.95 Z M 149.96 162.96 L 149.91 163.97 C 149.86 165.05 150.69 165.97 151.77 166.02 C 152.85 166.07 153.77 165.24 153.83 164.16 L 153.88 163.15 C 153.93 162.07 153.09 161.15 152.01 161.10 C 150.93 161.05 150.01 161.88 149.96 162.96 Z M 149.91 163.97 L 149.87 164.97 C 149.81 166.05 150.65 166.97 151.72 167.02 C 152.80 167.07 153.72 166.24 153.78 165.16 L 153.82 164.16 C 153.88 163.08 153.04 162.16 151.97 162.11 C 150.89 162.06 149.97 162.89 149.91 163.97 Z M 149.87 164.97 L 149.82 165.97 C 149.77 167.05 150.60 167.96 151.68 168.02 C 152.75 168.07 153.67 167.24 153.72 166.16 L 153.77 165.16 C 153.83 164.08 153.00 163.17 151.92 163.11 C 150.84 163.06 149.92 163.89 149.87 164.97 Z M 149.82 165.97 L 149.77 166.96 C 149.72 168.04 150.55 168.95 151.63 169.01 C 152.70 169.06 153.62 168.23 153.67 167.15 L 153.72 166.16 C 153.78 165.08 152.95 164.17 151.87 164.11 C 150.79 164.06 149.87 164.89 149.82 165.97 Z M 149.77 166.96 L 149.72 167.96 C 149.67 169.04 150.50 169.95 151.58 170.01 C 152.65 170.06 153.57 169.23 153.62 168.15 L 153.67 167.15 C 153.72 166.08 152.90 165.16 151.82 165.11 C 150.74 165.05 149.83 165.88 149.77 166.96 Z M 149.73 167.96 L 149.67 168.98 C 149.62 170.06 150.45 170.97 151.52 171.03 C 152.60 171.08 153.51 170.25 153.57 169.18 L 153.62 168.15 C 153.67 167.08 152.85 166.16 151.77 166.11 C 150.70 166.06 149.78 166.88 149.73 167.96 Z M 149.68 168.98 L 149.63 169.99 C 149.57 171.07 150.40 171.98 151.47 172.04 C 152.54 172.09 153.46 171.26 153.51 170.19 L 153.56 169.18 C 153.62 168.11 152.79 167.19 151.72 167.14 C 150.65 167.08 149.73 167.91 149.68 168.98 Z M 149.63 169.99 L 149.58 170.99 C 149.52 172.06 150.34 172.97 151.42 173.03 C 152.49 173.08 153.40 172.26 153.46 171.19 L 153.51 170.19 C 153.57 169.12 152.74 168.21 151.67 168.15 C 150.60 168.09 149.68 168.92 149.63 169.99 Z M 149.58 170.99 L 149.53 171.97 C 149.47 173.04 150.29 173.95 151.36 174.01 C 152.43 174.06 153.35 173.24 153.40 172.17 L 153.46 171.19 C 153.51 170.12 152.69 169.21 151.62 169.15 C 150.55 169.09 149.64 169.92 149.58 170.99 Z M 149.53 171.96 L 149.48 172.94 C 149.42 174.01 150.24 174.92 151.31 174.98 C 152.38 175.04 153.29 174.22 153.35 173.15 L 153.40 172.17 C 153.46 171.10 152.64 170.19 151.57 170.13 C 150.50 170.07 149.59 170.89 149.53 171.96 Z M 149.48 172.94 L 149.43 173.95 C 149.37 175.02 150.19 175.93 151.25 175.99 C 152.32 176.05 153.23 175.23 153.29 174.16 L 153.35 173.15 C 153.40 172.08 152.59 171.17 151.52 171.11 C 150.45 171.05 149.54 171.87 149.48 172.94 Z M 149.43 173.96 L 149.38 174.95 C 149.32 176.02 150.14 176.93 151.21 176.98 C 152.27 177.04 153.18 176.22 153.24 175.15 L 153.29 174.16 C 153.34 173.09 152.52 172.18 151.46 172.13 C 150.39 172.07 149.48 172.89 149.43 173.96 Z M 149.38 174.96 L 149.33 175.95 C 149.28 177.02 150.11 177.92 151.17 177.97 C 152.23 178.02 153.14 177.20 153.19 176.14 L 153.23 175.14 C 153.28 174.08 152.46 173.18 151.40 173.13 C 150.33 173.08 149.43 173.90 149.38 174.96 Z M 149.34 175.97 L 149.30 176.96 C 149.25 178.02 150.08 178.92 151.15 178.96 C 152.21 179.00 153.10 178.17 153.15 177.11 L 153.19 176.12 C 153.23 175.06 152.40 174.16 151.34 174.12 C 150.27 174.08 149.38 174.91 149.34 175.97 Z M 149.30 176.98 L 149.27 177.96 C 149.24 179.02 150.08 179.91 151.14 179.94 C 152.20 179.97 153.08 179.13 153.12 178.07 L 153.14 177.09 C 153.17 176.03 152.34 175.14 151.28 175.11 C 150.22 175.08 149.33 175.92 149.30 176.98 Z M 149.27 177.98 L 149.26 178.95 C 149.24 180.01 150.08 180.89 151.14 180.91 C 152.20 180.93 153.07 180.08 153.09 179.02 L 153.11 178.05 C 153.13 176.99 152.29 176.12 151.23 176.10 C 150.17 176.08 149.29 176.92 149.27 177.98 Z M 149.26 178.97 L 149.25 179.96 C 149.24 181.01 150.09 181.88 151.15 181.89 C 152.20 181.90 153.07 181.05 153.08 180.00 L 153.09 179.01 C 153.10 177.95 152.25 177.09 151.20 177.07 C 150.14 177.06 149.27 177.91 149.26 178.97 Z M 149.25 179.97 L 149.25 180.97 C 149.25 182.03 150.10 182.89 151.15 182.89 C 152.21 182.90 153.07 182.04 153.07 180.99 L 153.08 179.98 C 153.08 178.93 152.23 178.07 151.17 178.06 C 150.12 178.06 149.26 178.91 149.25 179.97 Z M 149.25 180.98 L 149.25 182.00 C 149.25 183.06 150.10 183.91 151.16 183.91 C 152.21 183.91 153.06 183.06 153.07 182.01 L 153.07 180.98 C 153.07 179.93 152.22 179.08 151.16 179.07 C 150.11 179.07 149.26 179.93 149.25 180.98 Z M 149.26 182.01 L 149.26 183.03 C 149.26 184.08 150.11 184.93 151.16 184.93 C 152.21 184.93 153.06 184.08 153.06 183.03 L 153.06 182.01 C 153.06 180.96 152.21 180.11 151.16 180.11 C 150.11 180.11 149.26 180.96 149.26 182.01 Z M 149.26 183.03 L 149.26 184.04 C 149.26 185.09 150.11 185.94 151.16 185.94 C 152.21 185.94 153.06 185.09 153.06 184.04 L 153.06 183.03 C 153.06 181.98 152.21 181.13 151.16 181.13 C 150.11 181.13 149.26 181.98 149.26 183.03 Z M 149.27 184.04 L 149.27 185.06 C 149.27 186.10 150.12 186.95 151.16 186.95 C 152.21 186.95 153.06 186.10 153.05 185.05 L 153.05 184.04 C 153.05 182.99 152.20 182.14 151.16 182.15 C 150.11 182.15 149.26 183.00 149.27 184.04 Z M 149.27 185.06 L 149.28 186.07 C 149.28 187.12 150.13 187.96 151.17 187.95 C 152.22 187.95 153.06 187.10 153.05 186.06 L 153.05 185.05 C 153.05 184.00 152.20 183.16 151.15 183.17 C 150.11 183.17 149.27 184.02 149.27 185.06 Z M 149.28 186.08 L 149.29 187.07 C 149.29 188.11 150.14 188.95 151.19 188.94 C 152.23 188.94 153.06 188.09 153.06 187.05 L 153.05 186.05 C 153.04 185.01 152.19 184.17 151.15 184.18 C 150.11 184.19 149.27 185.04 149.28 186.08 Z M 149.29 187.08 L 149.30 188.13 C 149.32 189.16 150.17 190.00 151.21 189.98 C 152.24 189.97 153.08 189.12 153.06 188.08 L 153.05 187.04 C 153.04 186.00 152.19 185.17 151.15 185.18 C 150.11 185.19 149.28 186.04 149.29 187.08 Z M 149.32 188.14 L 149.35 189.50 C 149.37 190.53 150.22 191.35 151.25 191.33 C 152.29 191.30 153.11 190.45 153.08 189.42 L 153.05 188.06 C 153.03 187.03 152.18 186.21 151.14 186.24 C 150.11 186.26 149.29 187.11 149.32 188.14 Z M 149.36 189.55 L 149.42 190.64 C 149.47 191.66 150.34 192.45 151.36 192.40 C 152.39 192.35 153.17 191.48 153.12 190.45 L 153.06 189.36 C 153.01 188.34 152.14 187.56 151.12 187.61 C 150.10 187.66 149.31 188.53 149.36 189.55 Z M 149.45 190.80 L 149.54 191.47 C 149.68 192.48 150.61 193.18 151.62 193.04 C 152.62 192.90 153.32 191.97 153.18 190.97 L 153.09 190.29 C 152.95 189.29 152.02 188.59 151.02 188.73 C 150.01 188.87 149.31 189.80 149.45 190.80 Z M 151.14 193.01 L 151.35 193.03 C 152.33 193.16 153.23 192.46 153.36 191.47 C 153.48 190.49 152.78 189.59 151.80 189.46 L 151.59 189.44 C 150.60 189.31 149.70 190.01 149.58 191.00 C 149.45 191.98 150.15 192.88 151.14 193.01 Z M 153.22 191.77 L 153.54 190.79 C 153.82 189.87 153.32 188.90 152.41 188.61 C 151.50 188.32 150.52 188.83 150.23 189.74 L 149.92 190.72 C 149.63 191.64 150.14 192.61 151.05 192.90 C 151.96 193.19 152.93 192.68 153.22 191.77 Z M 153.52 190.62 L 153.78 189.41 C 153.98 188.51 153.41 187.62 152.51 187.42 C 151.61 187.23 150.72 187.80 150.52 188.70 L 150.25 189.90 C 150.06 190.80 150.63 191.70 151.53 191.89 C 152.43 192.09 153.32 191.52 153.52 190.62 Z M 153.77 189.36 L 153.95 188.41 C 154.11 187.52 153.52 186.66 152.63 186.49 C 151.73 186.33 150.87 186.91 150.71 187.81 L 150.53 188.75 C 150.36 189.65 150.95 190.51 151.85 190.68 C 152.74 190.84 153.60 190.25 153.77 189.36 Z M 153.95 188.37 L 154.11 187.38 C 154.26 186.48 153.65 185.64 152.75 185.49 C 151.85 185.35 151.01 185.96 150.86 186.85 L 150.70 187.85 C 150.56 188.74 151.17 189.59 152.06 189.73 C 152.96 189.88 153.80 189.27 153.95 188.37 Z M 154.11 187.34 L 154.25 186.31 C 154.38 185.41 153.75 184.58 152.85 184.46 C 151.95 184.34 151.13 184.96 151.00 185.86 L 150.86 186.89 C 150.74 187.79 151.37 188.62 152.26 188.74 C 153.16 188.86 153.99 188.24 154.11 187.34 Z M 154.26 186.27 L 154.37 185.26 C 154.47 184.36 153.82 183.55 152.92 183.45 C 152.03 183.35 151.22 183.99 151.11 184.89 L 151.00 185.90 C 150.90 186.80 151.55 187.61 152.45 187.71 C 153.35 187.81 154.16 187.17 154.26 186.27 Z M 154.37 185.22 L 154.46 184.23 C 154.54 183.33 153.88 182.54 152.98 182.45 C 152.08 182.37 151.28 183.04 151.20 183.94 L 151.11 184.93 C 151.03 185.83 151.69 186.62 152.59 186.70 C 153.49 186.79 154.29 186.12 154.37 185.22 Z M 154.46 184.21 L 154.54 183.21 C 154.61 182.31 153.93 181.52 153.03 181.45 C 152.13 181.38 151.34 182.06 151.28 182.96 L 151.20 183.96 C 151.13 184.86 151.81 185.65 152.71 185.72 C 153.61 185.78 154.40 185.11 154.46 184.21 Z M 154.54 183.19 L 154.61 182.19 C 154.67 181.29 153.98 180.51 153.08 180.45 C 152.18 180.39 151.40 181.07 151.34 181.97 L 151.27 182.98 C 151.21 183.88 151.90 184.66 152.80 184.72 C 153.70 184.78 154.48 184.10 154.54 183.19 Z M 154.61 182.18 L 154.65 181.52 C 154.71 180.62 154.02 179.84 153.12 179.78 C 152.22 179.73 151.44 180.41 151.38 181.31 L 151.34 181.98 C 151.28 182.88 151.97 183.66 152.87 183.71 C 153.77 183.77 154.55 183.09 154.61 182.18 Z"
      fill="black"
      fill-rule="nonzero" /><path d="M 153.33 150.99 L 154.20 151.42 C 155.20 151.90 156.41 151.49 156.89 150.49 C 157.38 149.49 156.97 148.29 155.97 147.80 L 155.09 147.37 C 154.09 146.88 152.89 147.30 152.40 148.30 C 151.91 149.30 152.33 150.50 153.33 150.99 Z M 154.30 151.48 L 155.21 151.86 C 156.24 152.29 157.43 151.81 157.87 150.77 C 158.30 149.73 157.81 148.54 156.77 148.11 L 155.87 147.73 C 154.83 147.30 153.64 147.79 153.21 148.82 C 152.78 149.86 153.27 151.05 154.30 151.48 Z M 155.42 151.96 L 156.38 152.24 C 157.47 152.55 158.61 151.93 158.93 150.84 C 159.24 149.75 158.62 148.61 157.53 148.30 L 156.56 148.02 C 155.48 147.70 154.34 148.32 154.02 149.41 C 153.70 150.50 154.33 151.64 155.42 151.96 Z M 156.68 152.32 L 157.66 152.45 C 158.80 152.60 159.84 151.80 159.99 150.67 C 160.14 149.54 159.34 148.50 158.21 148.35 L 157.23 148.22 C 156.10 148.07 155.06 148.86 154.91 149.99 C 154.75 151.13 155.55 152.17 156.68 152.32 Z M 157.94 152.47 L 158.86 152.47 C 160.01 152.47 160.93 151.54 160.93 150.39 C 160.93 149.25 160.00 148.32 158.85 148.32 L 157.93 148.32 C 156.79 148.33 155.86 149.26 155.86 150.40 C 155.86 151.55 156.79 152.47 157.94 152.47 Z M 159.04 152.46 L 160.02 152.37 C 161.16 152.27 162.00 151.27 161.90 150.13 C 161.80 148.99 160.79 148.14 159.65 148.24 L 158.67 148.33 C 157.53 148.43 156.69 149.44 156.79 150.58 C 156.89 151.72 157.90 152.56 159.04 152.46 Z M 160.14 152.36 L 161.16 152.21 C 162.29 152.04 163.08 150.99 162.91 149.86 C 162.75 148.73 161.69 147.94 160.56 148.11 L 159.54 148.26 C 158.40 148.43 157.62 149.48 157.79 150.61 C 157.95 151.74 159.00 152.52 160.14 152.36 Z M 161.23 152.20 L 162.29 152.01 C 163.41 151.81 164.16 150.73 163.96 149.61 C 163.76 148.48 162.69 147.73 161.56 147.93 L 160.50 148.12 C 159.37 148.32 158.62 149.40 158.82 150.52 C 159.02 151.65 160.10 152.40 161.23 152.20 Z M 162.31 152.00 L 163.29 151.81 C 164.41 151.60 165.14 150.52 164.93 149.40 C 164.71 148.27 163.63 147.54 162.51 147.75 L 161.54 147.94 C 160.42 148.15 159.68 149.24 159.89 150.36 C 160.11 151.48 161.19 152.21 162.31 152.00 Z M 163.30 151.81 L 164.26 151.62 C 165.38 151.40 166.11 150.31 165.89 149.19 C 165.67 148.08 164.58 147.35 163.46 147.57 L 162.50 147.76 C 161.38 147.98 160.66 149.06 160.88 150.18 C 161.10 151.30 162.18 152.03 163.30 151.81 Z M 164.27 151.61 L 165.25 151.41 C 166.36 151.18 167.08 150.10 166.86 148.99 C 166.63 147.87 165.55 147.15 164.43 147.38 L 163.46 147.58 C 162.34 147.80 161.62 148.89 161.85 150.00 C 162.07 151.11 163.16 151.83 164.27 151.61 Z M 165.26 151.40 L 166.25 151.20 C 167.36 150.97 168.07 149.88 167.84 148.77 C 167.61 147.66 166.53 146.95 165.42 147.18 L 164.43 147.39 C 163.32 147.62 162.60 148.70 162.83 149.81 C 163.06 150.92 164.15 151.63 165.26 151.40 Z M 166.26 151.19 L 167.26 150.98 C 168.36 150.74 169.07 149.66 168.83 148.55 C 168.60 147.45 167.51 146.74 166.41 146.98 L 165.41 147.19 C 164.31 147.42 163.60 148.51 163.83 149.61 C 164.07 150.72 165.15 151.42 166.26 151.19 Z M 167.26 150.97 L 168.24 150.76 C 169.34 150.52 170.04 149.44 169.80 148.34 C 169.57 147.24 168.48 146.54 167.38 146.77 L 166.40 146.99 C 165.30 147.22 164.60 148.31 164.84 149.41 C 165.08 150.51 166.16 151.21 167.26 150.97 Z M 168.25 150.75 L 169.21 150.54 C 170.31 150.30 171.00 149.22 170.76 148.12 C 170.52 147.03 169.44 146.33 168.34 146.57 L 167.38 146.78 C 166.28 147.02 165.59 148.11 165.83 149.20 C 166.07 150.30 167.15 150.99 168.25 150.75 Z M 169.21 150.53 L 170.19 150.31 C 171.27 150.07 171.96 148.99 171.72 147.90 C 171.48 146.81 170.40 146.13 169.31 146.37 L 168.34 146.58 C 167.25 146.83 166.56 147.90 166.81 148.99 C 167.05 150.08 168.13 150.77 169.21 150.53 Z M 170.19 150.30 L 171.17 150.08 C 172.25 149.83 172.93 148.76 172.68 147.68 C 172.44 146.59 171.37 145.91 170.28 146.16 L 169.31 146.38 C 168.22 146.62 167.54 147.70 167.79 148.78 C 168.03 149.86 169.11 150.54 170.19 150.30 Z M 171.17 150.07 L 172.15 149.84 C 173.23 149.60 173.90 148.53 173.66 147.45 C 173.41 146.37 172.34 145.70 171.26 145.94 L 170.28 146.17 C 169.20 146.42 168.53 147.49 168.77 148.56 C 169.02 149.64 170.09 150.31 171.17 150.07 Z M 172.16 149.83 L 173.14 149.61 C 174.21 149.36 174.88 148.29 174.63 147.22 C 174.38 146.15 173.32 145.48 172.25 145.73 L 171.26 145.96 C 170.19 146.20 169.52 147.27 169.77 148.34 C 170.02 149.41 171.09 150.08 172.16 149.83 Z M 173.14 149.59 L 174.08 149.37 C 175.14 149.13 175.80 148.06 175.56 147.00 C 175.31 145.94 174.25 145.28 173.19 145.52 L 172.25 145.74 C 171.18 145.99 170.52 147.05 170.77 148.11 C 171.02 149.18 172.08 149.84 173.14 149.59 Z M 174.07 149.36 L 175.03 149.14 C 176.08 148.89 176.74 147.84 176.49 146.79 C 176.25 145.73 175.20 145.08 174.14 145.32 L 173.19 145.54 C 172.14 145.78 171.48 146.84 171.72 147.89 C 171.97 148.94 173.02 149.60 174.07 149.36 Z M 175.02 149.12 L 175.98 148.90 C 177.03 148.66 177.68 147.62 177.45 146.58 C 177.21 145.53 176.17 144.88 175.12 145.11 L 174.15 145.33 C 173.11 145.57 172.45 146.61 172.69 147.66 C 172.93 148.70 173.97 149.36 175.02 149.12 Z M 175.97 148.89 L 176.95 148.67 C 177.99 148.44 178.65 147.41 178.42 146.38 C 178.19 145.34 177.16 144.68 176.12 144.91 L 175.14 145.13 C 174.10 145.36 173.44 146.38 173.67 147.42 C 173.90 148.46 174.93 149.12 175.97 148.89 Z M 176.93 148.66 L 177.94 148.45 C 178.97 148.23 179.63 147.21 179.41 146.18 C 179.20 145.15 178.18 144.49 177.15 144.71 L 176.14 144.92 C 175.11 145.14 174.45 146.15 174.67 147.19 C 174.89 148.22 175.90 148.88 176.93 148.66 Z M 177.92 148.43 L 178.93 148.23 C 179.96 148.02 180.62 147.03 180.42 146.00 C 180.21 144.98 179.22 144.32 178.19 144.52 L 177.17 144.72 C 176.15 144.93 175.49 145.92 175.69 146.95 C 175.90 147.97 176.89 148.64 177.92 148.43 Z M 178.91 148.21 L 179.91 148.02 C 180.93 147.83 181.60 146.85 181.41 145.84 C 181.21 144.82 180.24 144.16 179.22 144.35 L 178.22 144.54 C 177.20 144.73 176.53 145.71 176.72 146.72 C 176.92 147.74 177.89 148.40 178.91 148.21 Z M 179.89 148.00 L 180.90 147.82 C 181.91 147.64 182.58 146.69 182.40 145.68 C 182.22 144.68 181.26 144.01 180.26 144.19 L 179.25 144.37 C 178.24 144.55 177.57 145.50 177.75 146.51 C 177.93 147.51 178.89 148.18 179.89 148.00 Z M 180.88 147.80 L 181.89 147.63 C 182.88 147.47 183.55 146.53 183.39 145.54 C 183.22 144.54 182.28 143.87 181.29 144.04 L 180.28 144.21 C 179.29 144.38 178.62 145.31 178.79 146.31 C 178.95 147.30 179.89 147.97 180.88 147.80 Z M 181.87 147.61 L 182.86 147.46 C 183.84 147.30 184.51 146.38 184.36 145.40 C 184.20 144.42 183.28 143.75 182.30 143.91 L 181.31 144.06 C 180.33 144.22 179.66 145.14 179.82 146.12 C 179.97 147.10 180.89 147.77 181.87 147.61 Z M 182.84 147.43 L 183.80 147.29 C 184.77 147.15 185.44 146.25 185.29 145.28 C 185.15 144.31 184.25 143.64 183.28 143.79 L 182.32 143.93 C 181.36 144.07 180.69 144.97 180.83 145.94 C 180.97 146.91 181.87 147.58 182.84 147.43 Z M 183.78 147.27 L 184.74 147.14 C 185.70 147.01 186.37 146.13 186.24 145.17 C 186.11 144.22 185.23 143.55 184.28 143.68 L 183.31 143.81 C 182.35 143.94 181.68 144.82 181.81 145.77 C 181.94 146.73 182.82 147.40 183.78 147.27 Z M 184.72 147.12 L 185.79 146.99 C 186.74 146.88 187.41 146.02 187.30 145.07 C 187.18 144.12 186.32 143.45 185.37 143.56 L 184.30 143.70 C 183.35 143.81 182.68 144.67 182.80 145.62 C 182.91 146.56 183.77 147.24 184.72 147.12 Z M 185.77 146.97 L 186.78 146.86 C 187.72 146.76 188.39 145.92 188.29 144.98 C 188.19 144.05 187.35 143.37 186.41 143.47 L 185.40 143.58 C 184.46 143.69 183.79 144.53 183.89 145.46 C 183.99 146.40 184.83 147.07 185.77 146.97 Z M 186.76 146.84 L 187.73 146.75 C 188.65 146.66 189.33 145.83 189.24 144.91 C 189.15 143.98 188.32 143.31 187.40 143.40 L 186.43 143.49 C 185.51 143.58 184.83 144.41 184.92 145.33 C 185.01 146.26 185.84 146.93 186.76 146.84 Z M 187.71 146.73 L 188.65 146.64 C 189.56 146.56 190.24 145.75 190.15 144.84 C 190.07 143.92 189.26 143.25 188.35 143.33 L 187.41 143.42 C 186.50 143.50 185.82 144.31 185.91 145.22 C 185.99 146.14 186.80 146.81 187.71 146.73 Z M 188.65 146.62 L 189.23 146.57 C 190.14 146.49 190.81 145.69 190.73 144.79 C 190.65 143.89 189.85 143.22 188.94 143.30 L 188.36 143.35 C 187.45 143.43 186.78 144.23 186.86 145.13 C 186.94 146.04 187.74 146.70 188.65 146.62 Z"
      fill="black"
      fill-rule="nonzero" /></svg>