<svg xmlns="http://www.w3.org/2000/svg" width="300" height="300" viewBox="0 0 300 300">
<path d="M 125.83 157.99 L 125.12 158.70 C 124.42 159.41 124.43 160.55 125.13 161.25 C 125.83 161.95 126.97 161.95 127.67 161.24 L 128.38 160.53 C 129.08 159.83 129.08 158.69 128.37 157.99 C 127.67 157.29 126.53 157.29 125.83 157.99 Z M 125.11 158.72 L 124.41 159.44 C 123.72 160.16 123.74 161.29 124.45 161.98 C 125.16 162.68 126.30 162.66 126.99 161.94 L 127.69 161.22 C 128.38 160.51 128.36 159.37 127.65 158.68 C 126.93 157.99 125.80 158.01 125.11 158.72 Z M 124.37 159.48 L 123.70 160.21 C 123.03 160.95 123.08 162.09 123.81 162.76 C 124.55 163.43 125.68 163.38 126.35 162.64 L 127.03 161.91 C 127.70 161.17 127.65 160.04 126.92 159.37 C 126.18 158.69 125.05 158.75 124.37 159.48 Z M 123.65 160.27 L 123.01 161.03 C 122.37 161.79 122.47 162.93 123.23 163.57 C 123.99 164.21 125.12 164.11 125.76 163.35 L 126.40 162.59 C 127.04 161.83 126.95 160.69 126.19 160.05 C 125.42 159.41 124.29 159.51 123.65 160.27 Z M 122.94 161.10 L 122.36 161.88 C 121.75 162.67 121.91 163.81 122.71 164.41 C 123.51 165.01 124.64 164.86 125.25 164.06 L 125.83 163.28 C 126.43 162.48 126.28 161.35 125.48 160.75 C 124.68 160.14 123.54 160.30 122.94 161.10 Z M 122.28 161.94 L 121.73 162.76 C 121.17 163.59 121.39 164.73 122.22 165.30 C 123.06 165.87 124.20 165.65 124.77 164.81 L 125.32 163.99 C 125.88 163.16 125.67 162.02 124.83 161.45 C 123.99 160.88 122.85 161.10 122.28 161.94 Z M 121.67 162.82 L 121.14 163.68 C 120.61 164.55 120.89 165.69 121.76 166.22 C 122.64 166.76 123.78 166.48 124.31 165.61 L 124.83 164.74 C 125.36 163.87 125.09 162.73 124.21 162.20 C 123.34 161.67 122.20 161.95 121.67 162.82 Z M 121.09 163.74 L 120.58 164.65 C 120.09 165.55 120.42 166.69 121.32 167.19 C 122.23 167.69 123.37 167.36 123.87 166.45 L 124.37 165.54 C 124.87 164.64 124.53 163.50 123.63 163.00 C 122.72 162.50 121.58 162.83 121.09 163.74 Z M 120.54 164.70 L 120.08 165.61 C 119.61 166.54 119.99 167.68 120.92 168.15 C 121.85 168.61 122.99 168.24 123.46 167.31 L 123.91 166.40 C 124.38 165.47 124.00 164.33 123.07 163.86 C 122.14 163.40 121.01 163.77 120.54 164.70 Z M 120.05 165.67 L 119.62 166.60 C 119.18 167.55 119.60 168.68 120.55 169.12 C 121.50 169.55 122.63 169.14 123.07 168.18 L 123.49 167.25 C 123.93 166.30 123.52 165.17 122.56 164.73 C 121.61 164.30 120.48 164.71 120.05 165.67 Z M 119.58 166.65 L 119.19 167.58 C 118.78 168.56 119.24 169.68 120.21 170.08 C 121.19 170.49 122.30 170.03 122.71 169.06 L 123.10 168.13 C 123.51 167.16 123.05 166.04 122.08 165.63 C 121.11 165.22 119.99 165.68 119.58 166.65 Z M 119.15 167.65 L 118.82 168.55 C 118.44 169.54 118.95 170.65 119.94 171.02 C 120.93 171.39 122.04 170.89 122.41 169.90 L 122.75 169.00 C 123.12 168.00 122.62 166.90 121.62 166.53 C 120.63 166.15 119.53 166.66 119.15 167.65 Z M 118.78 168.64 L 118.46 169.62 C 118.14 170.64 118.69 171.72 119.71 172.05 C 120.72 172.37 121.80 171.81 122.13 170.80 L 122.45 169.82 C 122.77 168.80 122.21 167.72 121.20 167.39 C 120.19 167.07 119.10 167.62 118.78 168.64 Z M 118.42 169.73 L 118.17 170.70 C 117.91 171.73 118.53 172.79 119.56 173.05 C 120.60 173.32 121.65 172.70 121.92 171.66 L 122.17 170.69 C 122.43 169.66 121.81 168.61 120.78 168.34 C 119.74 168.08 118.69 168.70 118.42 169.73 Z M 118.15 170.81 L 117.96 171.76 C 117.75 172.81 118.43 173.83 119.48 174.03 C 120.53 174.24 121.55 173.56 121.76 172.51 L 121.94 171.56 C 122.15 170.51 121.47 169.49 120.42 169.28 C 119.37 169.08 118.35 169.76 118.15 170.81 Z M 117.94 171.85 L 117.80 172.79 C 117.64 173.85 118.38 174.83 119.44 174.99 C 120.50 175.14 121.48 174.41 121.64 173.35 L 121.78 172.41 C 121.93 171.35 121.20 170.37 120.14 170.21 C 119.08 170.06 118.09 170.79 117.94 171.85 Z M 117.79 172.86 L 117.69 173.73 C 117.58 174.80 118.34 175.76 119.41 175.88 C 120.48 175.99 121.44 175.22 121.55 174.16 L 121.65 173.28 C 121.77 172.21 121.00 171.25 119.93 171.14 C 118.87 171.02 117.91 171.79 117.79 172.86 Z M 117.69 173.80 L 117.61 174.74 C 117.53 175.81 118.33 176.75 119.40 176.83 C 120.47 176.91 121.41 176.11 121.49 175.04 L 121.56 174.09 C 121.64 173.02 120.84 172.09 119.77 172.01 C 118.70 171.93 117.77 172.73 117.69 173.80 Z M 117.61 174.80 L 117.56 175.85 C 117.51 176.92 118.34 177.83 119.41 177.88 C 120.48 177.93 121.39 177.11 121.44 176.03 L 121.49 174.98 C 121.54 173.91 120.71 173.00 119.64 172.95 C 118.57 172.90 117.66 173.73 117.61 174.80 Z M 117.56 175.90 L 117.53 177.04 C 117.51 178.11 118.36 179.00 119.44 179.02 C 120.51 179.05 121.40 178.19 121.42 177.12 L 121.45 175.98 C 121.47 174.91 120.62 174.02 119.54 174.00 C 118.47 173.98 117.58 174.83 117.56 175.90 Z M 117.53 177.07 L 117.53 178.04 C 117.53 179.11 118.40 179.98 119.47 179.98 C 120.54 179.99 121.42 179.12 121.42 178.05 L 121.42 177.08 C 121.42 176.01 120.56 175.14 119.48 175.13 C 118.41 175.13 117.54 176.00 117.53 177.07 Z M 117.53 178.07 L 117.55 179.08 C 117.56 180.16 118.45 181.02 119.52 181.00 C 120.60 180.98 121.45 180.10 121.44 179.02 L 121.42 178.01 C 121.40 176.94 120.52 176.08 119.44 176.10 C 118.37 176.11 117.51 177.00 117.53 178.07 Z M 117.55 179.13 L 117.59 180.16 C 117.63 181.24 118.53 182.07 119.60 182.03 C 120.68 181.99 121.51 181.09 121.47 180.02 L 121.43 178.98 C 121.39 177.91 120.49 177.07 119.42 177.11 C 118.34 177.15 117.51 178.05 117.55 179.13 Z M 117.59 180.22 L 117.66 181.24 C 117.73 182.31 118.65 183.13 119.72 183.06 C 120.80 182.99 121.61 182.06 121.54 180.99 L 121.47 179.96 C 121.40 178.89 120.47 178.08 119.40 178.15 C 118.33 178.22 117.52 179.14 117.59 180.22 Z M 117.66 181.31 L 117.76 182.30 C 117.87 183.36 118.82 184.14 119.89 184.03 C 120.96 183.93 121.74 182.97 121.63 181.90 L 121.53 180.92 C 121.42 179.85 120.47 179.07 119.40 179.18 C 118.33 179.29 117.55 180.24 117.66 181.31 Z M 117.78 182.39 L 117.93 183.40 C 118.09 184.46 119.08 185.19 120.14 185.03 C 121.21 184.87 121.93 183.88 121.77 182.81 L 121.62 181.81 C 121.46 180.75 120.46 180.02 119.40 180.18 C 118.34 180.34 117.61 181.33 117.78 182.39 Z M 117.96 183.54 L 118.18 184.51 C 118.42 185.56 119.46 186.22 120.50 185.98 C 121.55 185.74 122.20 184.70 121.97 183.66 L 121.75 182.68 C 121.51 181.63 120.47 180.98 119.42 181.21 C 118.38 181.45 117.72 182.49 117.96 183.54 Z M 118.22 184.67 L 118.51 185.59 C 118.84 186.61 119.93 187.18 120.95 186.86 C 121.97 186.53 122.54 185.44 122.21 184.42 L 121.92 183.50 C 121.60 182.48 120.51 181.91 119.49 182.24 C 118.47 182.56 117.90 183.65 118.22 184.67 Z M 118.57 185.75 L 118.94 186.64 C 119.35 187.63 120.49 188.10 121.48 187.69 C 122.47 187.28 122.94 186.15 122.53 185.16 L 122.15 184.26 C 121.74 183.28 120.61 182.81 119.62 183.22 C 118.63 183.63 118.16 184.76 118.57 185.75 Z M 119.01 186.78 L 119.47 187.69 C 119.96 188.64 121.12 189.02 122.07 188.53 C 123.03 188.05 123.41 186.88 122.92 185.93 L 122.46 185.02 C 121.98 184.07 120.81 183.69 119.86 184.18 C 118.90 184.66 118.53 185.83 119.01 186.78 Z M 119.53 187.79 L 120.04 188.65 C 120.58 189.57 121.76 189.88 122.68 189.33 C 123.60 188.79 123.91 187.61 123.37 186.69 L 122.86 185.83 C 122.32 184.91 121.14 184.60 120.22 185.14 C 119.30 185.68 118.99 186.87 119.53 187.79 Z M 120.09 188.72 L 120.65 189.59 C 121.23 190.48 122.43 190.73 123.32 190.15 C 124.21 189.57 124.46 188.37 123.88 187.48 L 123.32 186.61 C 122.74 185.72 121.54 185.47 120.65 186.05 C 119.75 186.63 119.50 187.83 120.09 188.72 Z M 120.70 189.65 L 121.30 190.50 C 121.92 191.36 123.12 191.57 123.99 190.95 C 124.85 190.33 125.05 189.13 124.44 188.26 L 123.83 187.41 C 123.22 186.55 122.01 186.35 121.15 186.96 C 120.28 187.58 120.08 188.78 120.70 189.65 Z M 121.35 190.56 L 121.97 191.36 C 122.62 192.20 123.83 192.35 124.67 191.70 C 125.51 191.05 125.66 189.85 125.01 189.01 L 124.39 188.20 C 123.74 187.36 122.53 187.21 121.69 187.86 C 120.85 188.51 120.70 189.72 121.35 190.56 Z M 122.02 191.42 L 122.64 192.15 C 123.32 192.96 124.54 193.06 125.35 192.38 C 126.16 191.69 126.26 190.48 125.57 189.67 L 124.96 188.94 C 124.27 188.13 123.06 188.03 122.25 188.72 C 121.44 189.40 121.34 190.61 122.02 191.42 Z M 122.72 192.23 L 123.48 193.03 C 124.21 193.79 125.42 193.82 126.19 193.09 C 126.95 192.35 126.98 191.14 126.25 190.38 L 125.49 189.59 C 124.76 188.82 123.55 188.80 122.78 189.53 C 122.02 190.26 121.99 191.47 122.72 192.23 Z M 123.61 193.14 L 124.40 193.83 C 125.19 194.52 126.40 194.44 127.09 193.65 C 127.78 192.85 127.70 191.65 126.91 190.96 L 126.12 190.27 C 125.32 189.57 124.12 189.66 123.43 190.45 C 122.73 191.24 122.82 192.45 123.61 193.14 Z M 124.56 193.94 L 125.33 194.48 C 126.18 195.08 127.37 194.88 127.97 194.02 C 128.57 193.17 128.37 191.98 127.51 191.38 L 126.74 190.84 C 125.89 190.24 124.70 190.44 124.10 191.30 C 123.50 192.16 123.71 193.34 124.56 193.94 Z M 125.49 194.57 L 126.26 195.01 C 127.17 195.52 128.32 195.20 128.83 194.29 C 129.34 193.39 129.02 192.24 128.12 191.72 L 127.35 191.29 C 126.44 190.78 125.29 191.10 124.78 192.00 C 124.26 192.91 124.58 194.06 125.49 194.57 Z M 126.41 195.07 L 127.31 195.49 C 128.25 195.92 129.37 195.50 129.80 194.56 C 130.23 193.62 129.82 192.50 128.87 192.07 L 127.97 191.66 C 127.03 191.23 125.92 191.64 125.48 192.58 C 125.05 193.53 125.46 194.64 126.41 195.07 Z M 127.44 195.53 L 128.38 195.88 C 129.35 196.24 130.42 195.74 130.78 194.77 C 131.14 193.80 130.64 192.73 129.67 192.37 L 128.74 192.03 C 127.77 191.67 126.69 192.16 126.34 193.13 C 125.98 194.10 126.48 195.18 127.44 195.53 Z M 128.50 195.91 L 129.47 196.20 C 130.45 196.49 131.49 195.92 131.78 194.94 C 132.07 193.95 131.51 192.91 130.52 192.62 L 129.55 192.34 C 128.57 192.05 127.53 192.61 127.24 193.60 C 126.95 194.58 127.51 195.62 128.50 195.91 Z M 129.57 196.21 L 130.55 196.44 C 131.55 196.68 132.55 196.06 132.78 195.06 C 133.01 194.06 132.39 193.07 131.40 192.83 L 130.42 192.60 C 129.42 192.37 128.42 192.99 128.19 193.99 C 127.95 194.98 128.57 195.98 129.57 196.21 Z M 130.65 196.46 L 131.64 196.63 C 132.64 196.82 133.60 196.15 133.78 195.15 C 133.96 194.14 133.30 193.18 132.29 193.00 L 131.30 192.82 C 130.30 192.64 129.34 193.31 129.16 194.31 C 128.98 195.31 129.64 196.27 130.65 196.46 Z M 131.73 196.64 L 132.71 196.77 C 133.72 196.90 134.64 196.19 134.78 195.19 C 134.91 194.18 134.20 193.26 133.19 193.13 L 132.20 193.00 C 131.20 192.86 130.28 193.57 130.14 194.58 C 130.01 195.59 130.72 196.51 131.73 196.64 Z M 132.80 196.77 L 133.80 196.85 C 134.80 196.93 135.69 196.18 135.77 195.18 C 135.85 194.17 135.10 193.29 134.09 193.21 L 133.10 193.13 C 132.10 193.04 131.21 193.79 131.13 194.80 C 131.05 195.81 131.80 196.69 132.80 196.77 Z M 133.91 196.85 L 134.90 196.87 C 135.91 196.89 136.74 196.09 136.76 195.08 C 136.78 194.07 135.98 193.25 134.97 193.23 L 133.98 193.21 C 132.97 193.19 132.14 193.99 132.12 195.00 C 132.11 196.00 132.91 196.83 133.91 196.85 Z M 135.06 196.85 L 136.05 196.79 C 137.05 196.72 137.80 195.85 137.74 194.86 C 137.67 193.86 136.80 193.10 135.81 193.17 L 134.81 193.24 C 133.82 193.31 133.06 194.17 133.13 195.17 C 133.20 196.17 134.06 196.92 135.06 196.85 Z M 136.23 196.76 L 137.20 196.59 C 138.18 196.42 138.84 195.49 138.68 194.51 C 138.51 193.53 137.58 192.87 136.59 193.04 L 135.62 193.20 C 134.64 193.37 133.98 194.30 134.15 195.28 C 134.32 196.27 135.25 196.93 136.23 196.76 Z M 137.38 196.55 L 138.30 196.29 C 139.26 196.03 139.82 195.04 139.56 194.08 C 139.29 193.12 138.30 192.56 137.34 192.82 L 136.42 193.08 C 135.46 193.34 134.90 194.34 135.16 195.29 C 135.43 196.25 136.42 196.81 137.38 196.55 Z M 138.46 196.24 L 139.40 195.88 C 140.33 195.53 140.79 194.49 140.44 193.56 C 140.08 192.63 139.05 192.17 138.12 192.52 L 137.18 192.88 C 136.26 193.23 135.79 194.27 136.14 195.20 C 136.50 196.12 137.54 196.59 138.46 196.24 Z M 139.55 195.81 L 140.49 195.35 C 141.38 194.91 141.75 193.84 141.31 192.95 C 140.88 192.06 139.81 191.69 138.92 192.13 L 137.97 192.59 C 137.08 193.03 136.71 194.10 137.15 194.99 C 137.58 195.88 138.66 196.25 139.55 195.81 Z M 140.62 195.28 L 141.47 194.77 C 142.32 194.27 142.60 193.17 142.09 192.32 C 141.59 191.47 140.49 191.19 139.64 191.70 L 138.79 192.20 C 137.94 192.71 137.66 193.80 138.17 194.65 C 138.67 195.50 139.77 195.78 140.62 195.28 Z M 141.57 194.71 L 142.39 194.14 C 143.20 193.58 143.40 192.47 142.84 191.65 C 142.28 190.84 141.17 190.64 140.36 191.20 L 139.54 191.76 C 138.73 192.32 138.52 193.44 139.08 194.25 C 139.64 195.06 140.76 195.27 141.57 194.71 Z M 142.47 194.07 L 143.27 193.45 C 144.05 192.84 144.18 191.72 143.58 190.95 C 142.97 190.17 141.85 190.03 141.07 190.64 L 140.28 191.26 C 139.50 191.87 139.36 192.99 139.97 193.77 C 140.57 194.54 141.70 194.68 142.47 194.07 Z M 143.34 193.39 L 144.11 192.72 C 144.85 192.07 144.92 190.95 144.28 190.21 C 143.63 189.47 142.50 189.39 141.76 190.04 L 141.00 190.70 C 140.26 191.35 140.18 192.47 140.83 193.22 C 141.48 193.96 142.60 194.03 143.34 193.39 Z M 144.17 192.65 L 144.90 191.95 C 145.61 191.26 145.62 190.14 144.94 189.43 C 144.25 188.73 143.13 188.71 142.42 189.40 L 141.70 190.10 C 140.99 190.79 140.98 191.91 141.66 192.62 C 142.34 193.32 143.47 193.34 144.17 192.65 Z M 144.96 191.88 L 145.64 191.14 C 146.31 190.42 146.27 189.30 145.55 188.64 C 144.83 187.97 143.71 188.01 143.04 188.73 L 142.36 189.47 C 141.70 190.18 141.74 191.31 142.46 191.97 C 143.18 192.64 144.30 192.59 144.96 191.88 Z M 145.70 191.07 L 146.34 190.31 C 146.96 189.56 146.86 188.45 146.12 187.82 C 145.37 187.19 144.25 187.29 143.63 188.04 L 142.99 188.80 C 142.36 189.55 142.46 190.66 143.21 191.29 C 143.96 191.92 145.07 191.82 145.70 191.07 Z M 146.39 190.24 L 146.98 189.45 C 147.57 188.68 147.42 187.57 146.64 186.98 C 145.87 186.39 144.76 186.55 144.18 187.32 L 143.58 188.11 C 142.99 188.88 143.14 189.99 143.92 190.58 C 144.69 191.17 145.80 191.01 146.39 190.24 Z M 147.03 189.39 L 147.59 188.57 C 148.15 187.77 147.95 186.67 147.15 186.12 C 146.35 185.57 145.25 185.77 144.70 186.57 L 144.13 187.39 C 143.58 188.18 143.78 189.28 144.58 189.83 C 145.38 190.39 146.47 190.19 147.03 189.39 Z M 147.63 188.52 L 148.16 187.67 C 148.69 186.86 148.45 185.77 147.63 185.25 C 146.81 184.72 145.73 184.96 145.20 185.78 L 144.67 186.62 C 144.14 187.44 144.38 188.53 145.20 189.05 C 146.02 189.57 147.10 189.33 147.63 188.52 Z M 148.19 187.63 L 148.71 186.77 C 149.21 185.94 148.94 184.86 148.11 184.36 C 147.27 183.86 146.20 184.13 145.70 184.96 L 145.18 185.82 C 144.68 186.65 144.95 187.73 145.78 188.23 C 146.61 188.73 147.69 188.46 148.19 187.63 Z M 148.72 186.75 L 149.22 185.88 C 149.70 185.04 149.41 183.97 148.57 183.49 C 147.73 183.00 146.66 183.29 146.17 184.13 L 145.68 184.99 C 145.20 185.83 145.48 186.91 146.32 187.39 C 147.17 187.87 148.24 187.59 148.72 186.75 Z M 149.23 185.86 L 149.68 185.05 C 150.15 184.20 149.84 183.13 148.99 182.66 C 148.15 182.19 147.08 182.50 146.61 183.35 L 146.16 184.16 C 145.69 185.01 146.00 186.07 146.85 186.54 C 147.69 187.01 148.76 186.71 149.23 185.86 Z M 149.71 185.00 L 150.14 184.15 C 150.59 183.29 150.25 182.23 149.38 181.79 C 148.52 181.34 147.46 181.68 147.02 182.55 L 146.58 183.40 C 146.14 184.26 146.48 185.32 147.34 185.76 C 148.20 186.20 149.26 185.86 149.71 185.00 Z M 150.18 184.08 L 150.60 183.16 C 151.00 182.28 150.62 181.24 149.74 180.83 C 148.85 180.43 147.81 180.81 147.41 181.70 L 146.99 182.62 C 146.58 183.50 146.97 184.54 147.85 184.94 C 148.73 185.35 149.77 184.96 150.18 184.08 Z M 150.64 183.07 L 151.04 182.05 C 151.40 181.15 150.95 180.13 150.05 179.77 C 149.15 179.42 148.13 179.86 147.77 180.76 L 147.37 181.78 C 147.01 182.68 147.46 183.70 148.36 184.06 C 149.26 184.42 150.28 183.97 150.64 183.07 Z M 151.07 181.97 L 151.39 181.03 C 151.70 180.11 151.21 179.12 150.29 178.80 C 149.37 178.49 148.37 178.98 148.06 179.90 L 147.74 180.84 C 147.43 181.76 147.92 182.76 148.84 183.07 C 149.76 183.38 150.76 182.89 151.07 181.97 Z M 151.41 180.97 L 151.70 180.00 C 151.98 179.07 151.45 178.09 150.52 177.81 C 149.59 177.53 148.61 178.06 148.33 178.99 L 148.04 179.96 C 147.76 180.89 148.29 181.87 149.22 182.15 C 150.15 182.43 151.13 181.90 151.41 180.97 Z M 151.72 179.95 L 151.99 178.95 C 152.24 178.01 151.68 177.05 150.74 176.79 C 149.80 176.54 148.84 177.10 148.58 178.04 L 148.32 179.04 C 148.06 179.98 148.62 180.94 149.56 181.19 C 150.50 181.45 151.47 180.89 151.72 179.95 Z M 152.00 178.91 L 152.24 177.92 C 152.47 176.97 151.89 176.02 150.94 175.79 C 149.99 175.56 149.04 176.14 148.81 177.09 L 148.57 178.08 C 148.34 179.03 148.92 179.98 149.87 180.21 C 150.82 180.44 151.77 179.86 152.00 178.91 Z M 152.25 177.88 L 152.46 176.92 C 152.67 175.97 152.06 175.03 151.11 174.82 C 150.16 174.61 149.22 175.22 149.01 176.17 L 148.80 177.13 C 148.59 178.08 149.20 179.02 150.15 179.23 C 151.10 179.43 152.04 178.83 152.25 177.88 Z M 152.48 176.87 L 152.73 175.54 C 152.91 174.58 152.28 173.65 151.31 173.47 C 150.34 173.29 149.41 173.92 149.23 174.89 L 148.99 176.22 C 148.80 177.18 149.44 178.11 150.41 178.29 C 151.37 178.48 152.30 177.84 152.48 176.87 Z M 152.78 175.47 L 152.94 174.29 C 153.08 173.30 152.39 172.38 151.40 172.24 C 150.41 172.10 149.49 172.80 149.35 173.79 L 149.19 174.97 C 149.05 175.96 149.74 176.87 150.73 177.01 C 151.72 177.15 152.64 176.46 152.78 175.47 Z M 153.00 174.04 L 153.00 173.53 C 153.00 172.51 152.18 171.68 151.16 171.68 C 150.14 171.67 149.30 172.50 149.30 173.52 L 149.30 174.03 C 149.29 175.05 150.12 175.88 151.14 175.89 C 152.16 175.89 152.99 175.07 153.00 174.04 Z M 149.45 172.72 L 149.28 173.09 C 148.83 174.03 149.23 175.15 150.17 175.59 C 151.11 176.04 152.23 175.64 152.67 174.70 L 152.85 174.33 C 153.29 173.39 152.89 172.27 151.95 171.83 C 151.02 171.38 149.90 171.79 149.45 172.72 Z M 149.14 173.43 L 148.87 174.49 C 148.61 175.50 149.22 176.53 150.23 176.79 C 151.25 177.05 152.28 176.44 152.53 175.43 L 152.81 174.36 C 153.06 173.35 152.45 172.32 151.44 172.06 C 150.43 171.81 149.40 172.42 149.14 173.43 Z M 148.83 174.62 L 148.60 175.91 C 148.41 176.95 149.10 177.94 150.13 178.12 C 151.17 178.31 152.15 177.62 152.34 176.59 L 152.57 175.30 C 152.76 174.26 152.07 173.27 151.04 173.09 C 150.01 172.90 149.02 173.59 148.83 174.62 Z M 148.57 176.06 L 148.47 177.09 C 148.36 178.14 149.12 179.07 150.17 179.18 C 151.22 179.29 152.15 178.52 152.26 177.48 L 152.37 176.45 C 152.47 175.40 151.71 174.46 150.66 174.36 C 149.62 174.25 148.68 175.01 148.57 176.06 Z M 148.46 177.20 L 148.42 178.19 C 148.37 179.24 149.19 180.13 150.24 180.18 C 151.29 180.22 152.18 179.41 152.23 178.35 L 152.27 177.37 C 152.32 176.31 151.50 175.42 150.45 175.38 C 149.39 175.33 148.50 176.15 148.46 177.20 Z M 148.41 178.25 L 148.41 179.22 C 148.40 180.28 149.24 181.14 150.30 181.15 C 151.35 181.16 152.21 180.31 152.22 179.26 L 152.23 178.29 C 152.24 177.23 151.39 176.37 150.34 176.36 C 149.28 176.35 148.42 177.20 148.41 178.25 Z M 148.40 179.24 L 148.41 180.22 C 148.41 181.28 149.26 182.13 150.32 182.13 C 151.37 182.13 152.22 181.27 152.22 180.22 L 152.22 179.24 C 152.22 178.18 151.37 177.33 150.31 177.33 C 149.26 177.33 148.40 178.19 148.40 179.24 Z M 148.41 180.25 L 148.42 181.24 C 148.43 182.30 149.30 183.14 150.35 183.13 C 151.41 183.11 152.25 182.25 152.24 181.19 L 152.22 180.20 C 152.21 179.14 151.34 178.30 150.29 178.31 C 149.24 178.33 148.39 179.19 148.41 180.25 Z M 148.42 181.29 L 148.46 182.30 C 148.50 183.35 149.38 184.17 150.44 184.13 C 151.49 184.09 152.31 183.20 152.27 182.15 L 152.24 181.14 C 152.20 180.09 151.31 179.27 150.25 179.31 C 149.20 179.35 148.38 180.24 148.42 181.29 Z M 148.46 182.37 L 148.54 183.37 C 148.62 184.42 149.54 185.20 150.59 185.12 C 151.64 185.04 152.43 184.12 152.35 183.07 L 152.27 182.08 C 152.19 181.03 151.27 180.24 150.22 180.32 C 149.17 180.40 148.38 181.32 148.46 182.37 Z M 148.55 183.46 L 148.67 184.44 C 148.80 185.48 149.76 186.23 150.80 186.09 C 151.85 185.96 152.59 185.01 152.46 183.96 L 152.34 182.98 C 152.21 181.93 151.25 181.19 150.20 181.32 C 149.16 181.46 148.41 182.41 148.55 183.46 Z M 148.69 184.54 L 148.87 185.53 C 149.06 186.57 150.05 187.25 151.09 187.06 C 152.13 186.87 152.82 185.88 152.63 184.84 L 152.44 183.85 C 152.25 182.82 151.26 182.13 150.22 182.32 C 149.18 182.51 148.50 183.51 148.69 184.54 Z M 148.89 185.65 L 149.14 186.64 C 149.40 187.66 150.43 188.28 151.46 188.03 C 152.48 187.77 153.10 186.73 152.85 185.71 L 152.60 184.72 C 152.34 183.70 151.31 183.07 150.28 183.33 C 149.26 183.59 148.64 184.62 148.89 185.65 Z M 149.17 186.76 L 149.48 187.70 C 149.80 188.71 150.88 189.26 151.88 188.94 C 152.89 188.61 153.44 187.53 153.12 186.53 L 152.81 185.59 C 152.49 184.58 151.41 184.03 150.41 184.35 C 149.40 184.68 148.85 185.76 149.17 186.76 Z M 149.51 187.81 L 149.88 188.74 C 150.26 189.73 151.37 190.22 152.36 189.83 C 153.34 189.45 153.83 188.33 153.44 187.35 L 153.08 186.42 C 152.70 185.43 151.58 184.95 150.60 185.33 C 149.61 185.72 149.13 186.83 149.51 187.81 Z M 149.92 188.84 L 150.33 189.76 C 150.77 190.72 151.91 191.15 152.87 190.71 C 153.84 190.27 154.26 189.13 153.82 188.17 L 153.41 187.25 C 152.97 186.29 151.83 185.86 150.87 186.30 C 149.90 186.74 149.48 187.88 149.92 188.84 Z M 150.37 189.85 L 150.84 190.74 C 151.33 191.68 152.49 192.05 153.43 191.56 C 154.37 191.07 154.73 189.91 154.25 188.97 L 153.78 188.08 C 153.29 187.14 152.14 186.77 151.19 187.26 C 150.25 187.75 149.89 188.91 150.37 189.85 Z M 150.88 190.83 L 151.39 191.69 C 151.93 192.61 153.10 192.91 154.02 192.38 C 154.94 191.84 155.24 190.66 154.71 189.75 L 154.20 188.88 C 153.66 187.97 152.49 187.66 151.57 188.20 C 150.66 188.73 150.35 189.91 150.88 190.83 Z M 151.45 191.78 L 152.00 192.61 C 152.59 193.50 153.78 193.74 154.67 193.15 C 155.55 192.56 155.79 191.37 155.20 190.48 L 154.65 189.65 C 154.06 188.77 152.87 188.53 151.98 189.12 C 151.10 189.71 150.86 190.90 151.45 191.78 Z M 152.07 192.71 L 152.68 193.51 C 153.32 194.35 154.53 194.52 155.37 193.87 C 156.22 193.23 156.38 192.02 155.74 191.18 L 155.13 190.38 C 154.49 189.54 153.28 189.38 152.44 190.02 C 151.59 190.66 151.43 191.87 152.07 192.71 Z M 152.76 193.61 L 153.41 194.35 C 154.11 195.15 155.33 195.23 156.12 194.53 C 156.92 193.83 157.00 192.62 156.30 191.82 L 155.65 191.08 C 154.95 190.28 153.74 190.20 152.94 190.90 C 152.14 191.60 152.06 192.81 152.76 193.61 Z M 153.51 194.45 L 154.21 195.15 C 154.96 195.89 156.18 195.89 156.93 195.13 C 157.67 194.38 157.67 193.16 156.91 192.41 L 156.21 191.72 C 155.45 190.97 154.24 190.98 153.49 191.74 C 152.74 192.49 152.75 193.71 153.51 194.45 Z M 154.32 195.25 L 155.08 195.89 C 155.89 196.58 157.10 196.48 157.79 195.67 C 158.47 194.86 158.38 193.65 157.57 192.97 L 156.80 192.32 C 155.99 191.63 154.78 191.73 154.10 192.54 C 153.41 193.35 153.51 194.56 154.32 195.25 Z M 155.20 195.99 L 156.02 196.58 C 156.88 197.21 158.08 197.01 158.71 196.15 C 159.33 195.29 159.13 194.09 158.27 193.47 L 157.45 192.87 C 156.59 192.25 155.39 192.44 154.77 193.30 C 154.14 194.16 154.34 195.36 155.20 195.99 Z M 156.15 196.67 L 157.00 197.18 C 157.90 197.73 159.08 197.45 159.63 196.54 C 160.19 195.64 159.90 194.46 159.00 193.90 L 158.15 193.39 C 157.24 192.84 156.06 193.12 155.51 194.03 C 154.96 194.93 155.24 196.11 156.15 196.67 Z M 157.13 197.25 L 158.02 197.71 C 158.96 198.19 160.12 197.81 160.60 196.87 C 161.08 195.92 160.70 194.77 159.76 194.29 L 158.87 193.83 C 157.92 193.35 156.77 193.73 156.29 194.67 C 155.80 195.62 156.18 196.77 157.13 197.25 Z M 158.16 197.77 L 159.09 198.15 C 160.07 198.56 161.19 198.09 161.59 197.11 C 161.99 196.13 161.53 195.01 160.55 194.61 L 159.62 194.22 C 158.64 193.82 157.52 194.29 157.11 195.27 C 156.71 196.25 157.18 197.37 158.16 197.77 Z M 159.24 198.21 L 160.20 198.51 C 161.21 198.83 162.29 198.26 162.60 197.25 C 162.92 196.24 162.36 195.17 161.35 194.85 L 160.39 194.55 C 159.38 194.23 158.31 194.80 157.99 195.81 C 157.67 196.81 158.23 197.89 159.24 198.21 Z M 160.37 198.55 L 161.32 198.76 C 162.36 198.98 163.38 198.33 163.60 197.30 C 163.83 196.26 163.17 195.24 162.14 195.02 L 161.18 194.81 C 160.15 194.58 159.13 195.24 158.90 196.27 C 158.68 197.31 159.33 198.33 160.37 198.55 Z M 161.48 198.78 L 162.45 198.92 C 163.50 199.06 164.46 198.33 164.60 197.28 C 164.75 196.23 164.01 195.27 162.97 195.13 L 161.99 194.99 C 160.94 194.85 159.98 195.58 159.84 196.63 C 159.69 197.68 160.43 198.64 161.48 198.78 Z M 162.57 198.93 L 163.57 199.00 C 164.63 199.07 165.54 198.28 165.61 197.23 C 165.69 196.17 164.90 195.26 163.84 195.19 L 162.84 195.12 C 161.79 195.04 160.88 195.83 160.80 196.89 C 160.73 197.94 161.52 198.85 162.57 198.93 Z M 163.66 199.00 L 164.69 199.02 C 165.75 199.05 166.62 198.21 166.64 197.16 C 166.67 196.10 165.83 195.23 164.78 195.21 L 163.75 195.18 C 162.70 195.16 161.82 196.00 161.80 197.05 C 161.78 198.10 162.61 198.98 163.66 199.00 Z M 164.76 199.02 L 165.72 199.01 C 166.77 199.00 167.62 198.13 167.60 197.08 C 167.59 196.03 166.72 195.18 165.67 195.20 L 164.71 195.21 C 163.66 195.22 162.81 196.09 162.83 197.14 C 162.84 198.19 163.71 199.04 164.76 199.02 Z M 165.81 199.01 L 166.78 198.95 C 167.83 198.89 168.63 197.99 168.57 196.94 C 168.51 195.89 167.61 195.08 166.56 195.14 L 165.59 195.20 C 164.54 195.26 163.73 196.16 163.79 197.21 C 163.85 198.26 164.75 199.07 165.81 199.01 Z M 166.90 198.94 L 167.89 198.82 C 168.93 198.69 169.68 197.74 169.55 196.70 C 169.42 195.66 168.48 194.91 167.43 195.04 L 166.44 195.16 C 165.40 195.28 164.65 196.23 164.78 197.28 C 164.90 198.32 165.85 199.06 166.90 198.94 Z M 168.04 198.79 L 169.04 198.59 C 170.07 198.38 170.74 197.38 170.53 196.35 C 170.33 195.32 169.32 194.65 168.29 194.86 L 167.28 195.06 C 166.25 195.27 165.59 196.27 165.79 197.30 C 166.00 198.33 167.01 199.00 168.04 198.79 Z M 169.21 198.55 L 170.19 198.26 C 171.19 197.96 171.77 196.90 171.47 195.89 C 171.17 194.89 170.11 194.31 169.10 194.61 L 168.13 194.90 C 167.12 195.20 166.55 196.26 166.85 197.27 C 167.15 198.27 168.20 198.85 169.21 198.55 Z M 170.34 198.20 L 171.24 197.85 C 172.22 197.46 172.70 196.36 172.31 195.38 C 171.93 194.41 170.83 193.93 169.85 194.31 L 168.95 194.67 C 167.97 195.05 167.49 196.15 167.88 197.13 C 168.26 198.11 169.36 198.59 170.34 198.20 Z M 171.37 197.79 L 172.26 197.36 C 173.21 196.91 173.61 195.77 173.15 194.83 C 172.70 193.88 171.57 193.48 170.62 193.94 L 169.72 194.37 C 168.78 194.82 168.38 195.95 168.83 196.90 C 169.29 197.85 170.42 198.25 171.37 197.79 Z M 172.37 197.31 L 173.26 196.81 C 174.17 196.30 174.50 195.14 173.98 194.22 C 173.47 193.31 172.31 192.98 171.40 193.50 L 170.51 193.99 C 169.60 194.51 169.27 195.66 169.79 196.58 C 170.30 197.49 171.46 197.82 172.37 197.31 Z M 173.35 196.75 L 174.21 196.20 C 175.10 195.63 175.35 194.46 174.79 193.58 C 174.22 192.69 173.04 192.44 172.16 193.00 L 171.30 193.56 C 170.42 194.12 170.16 195.30 170.73 196.18 C 171.29 197.06 172.47 197.32 173.35 196.75 Z M 174.30 196.14 L 175.13 195.54 C 175.98 194.93 176.17 193.74 175.55 192.89 C 174.94 192.04 173.75 191.85 172.90 192.46 L 172.08 193.06 C 171.23 193.68 171.03 194.86 171.65 195.71 C 172.26 196.56 173.45 196.75 174.30 196.14 Z M 175.21 195.48 L 175.99 194.85 C 176.80 194.19 176.93 193.00 176.27 192.18 C 175.61 191.36 174.42 191.24 173.60 191.89 L 172.82 192.52 C 172.01 193.18 171.88 194.38 172.54 195.20 C 173.20 196.01 174.39 196.14 175.21 195.48 Z M 176.06 194.79 L 176.81 194.12 C 177.59 193.42 177.65 192.22 176.95 191.44 C 176.25 190.66 175.05 190.59 174.27 191.29 L 173.53 191.96 C 172.75 192.66 172.68 193.86 173.38 194.64 C 174.08 195.42 175.28 195.49 176.06 194.79 Z M 176.88 194.05 L 177.59 193.35 C 178.33 192.61 178.33 191.41 177.59 190.66 C 176.85 189.92 175.65 189.91 174.90 190.66 L 174.20 191.36 C 173.45 192.10 173.45 193.30 174.19 194.05 C 174.93 194.79 176.14 194.79 176.88 194.05 Z M 177.65 193.28 L 178.32 192.54 C 179.03 191.76 178.97 190.56 178.19 189.86 C 177.42 189.15 176.22 189.21 175.51 189.98 L 174.84 190.72 C 174.13 191.50 174.19 192.70 174.97 193.41 C 175.74 194.12 176.95 194.06 177.65 193.28 Z M 178.38 192.47 L 179.02 191.70 C 179.69 190.89 179.57 189.69 178.76 189.02 C 177.95 188.35 176.75 188.47 176.08 189.28 L 175.45 190.05 C 174.78 190.86 174.90 192.06 175.71 192.73 C 176.52 193.40 177.72 193.28 178.38 192.47 Z M 179.08 191.63 L 179.67 190.84 C 180.30 190.00 180.13 188.80 179.29 188.17 C 178.45 187.54 177.25 187.72 176.62 188.56 L 176.03 189.35 C 175.40 190.19 175.57 191.38 176.41 192.01 C 177.25 192.64 178.45 192.47 179.08 191.63 Z M 179.72 190.77 L 180.28 189.95 C 180.87 189.08 180.65 187.90 179.78 187.30 C 178.91 186.71 177.72 186.93 177.13 187.80 L 176.57 188.62 C 175.98 189.49 176.20 190.68 177.07 191.27 C 177.94 191.86 179.13 191.64 179.72 190.77 Z M 180.33 189.88 L 180.85 189.04 C 181.41 188.14 181.14 186.96 180.24 186.41 C 179.35 185.85 178.17 186.13 177.61 187.02 L 177.09 187.87 C 176.53 188.76 176.80 189.94 177.70 190.50 C 178.59 191.05 179.77 190.78 180.33 189.88 Z M 180.89 188.97 L 181.39 188.10 C 181.91 187.18 181.59 186.01 180.67 185.49 C 179.75 184.97 178.59 185.30 178.07 186.21 L 177.57 187.09 C 177.05 188.00 177.37 189.17 178.29 189.69 C 179.21 190.21 180.37 189.89 180.89 188.97 Z M 181.43 188.03 L 181.89 187.14 C 182.38 186.20 182.01 185.05 181.07 184.56 C 180.13 184.08 178.98 184.44 178.49 185.38 L 178.03 186.28 C 177.55 187.21 177.91 188.37 178.85 188.85 C 179.79 189.34 180.94 188.97 181.43 188.03 Z M 181.92 187.08 L 182.35 186.16 C 182.80 185.21 182.39 184.07 181.44 183.62 C 180.48 183.17 179.34 183.58 178.89 184.53 L 178.46 185.44 C 178.01 186.40 178.42 187.54 179.38 187.99 C 180.33 188.44 181.47 188.03 181.92 187.08 Z M 182.38 186.10 L 182.78 185.18 C 183.20 184.20 182.74 183.08 181.77 182.66 C 180.80 182.25 179.67 182.70 179.26 183.67 L 178.86 184.60 C 178.44 185.57 178.90 186.69 179.87 187.11 C 180.84 187.53 181.97 187.07 182.38 186.10 Z M 182.81 185.11 L 183.17 184.18 C 183.55 183.19 183.06 182.08 182.07 181.70 C 181.08 181.32 179.97 181.81 179.59 182.80 L 179.23 183.73 C 178.85 184.72 179.34 185.83 180.33 186.21 C 181.32 186.59 182.43 186.10 182.81 185.11 Z M 183.19 184.11 L 183.52 183.16 C 183.86 182.16 183.33 181.07 182.33 180.72 C 181.32 180.38 180.23 180.91 179.89 181.92 L 179.56 182.86 C 179.22 183.87 179.75 184.96 180.76 185.30 C 181.76 185.65 182.85 185.11 183.19 184.11 Z M 183.54 183.09 L 183.83 182.14 C 184.14 181.12 183.56 180.05 182.54 179.74 C 181.53 179.44 180.46 180.01 180.15 181.03 L 179.86 181.98 C 179.56 183.00 180.13 184.07 181.15 184.38 C 182.17 184.69 183.24 184.11 183.54 183.09 Z M 183.85 182.07 L 184.10 181.12 C 184.37 180.09 183.75 179.04 182.72 178.77 C 181.69 178.51 180.64 179.12 180.37 180.15 L 180.13 181.10 C 179.86 182.13 180.48 183.18 181.51 183.45 C 182.54 183.72 183.59 183.10 183.85 182.07 Z M 184.12 181.05 L 184.32 180.13 C 184.54 179.10 183.88 178.07 182.85 177.84 C 181.81 177.62 180.78 178.27 180.55 179.31 L 180.36 180.23 C 180.13 181.26 180.79 182.29 181.83 182.52 C 182.87 182.74 183.89 182.08 184.12 181.05 Z M 184.33 180.06 L 184.50 179.13 C 184.68 178.09 183.99 177.09 182.94 176.90 C 181.89 176.71 180.89 177.41 180.71 178.46 L 180.54 179.39 C 180.35 180.43 181.05 181.43 182.10 181.62 C 183.14 181.81 184.14 181.11 184.33 180.06 Z M 184.51 179.07 L 184.64 178.11 C 184.79 177.05 184.06 176.08 183.01 175.93 C 181.96 175.78 180.98 176.51 180.83 177.56 L 180.70 178.52 C 180.55 179.58 181.28 180.55 182.33 180.70 C 183.38 180.85 184.36 180.12 184.51 179.07 Z M 184.65 178.05 L 184.76 177.04 C 184.88 175.98 184.12 175.03 183.06 174.91 C 182.00 174.80 181.05 175.56 180.94 176.62 L 180.82 177.62 C 180.71 178.68 181.47 179.63 182.53 179.75 C 183.58 179.87 184.54 179.10 184.65 178.05 Z M 184.77 176.99 L 184.86 175.92 C 184.95 174.86 184.16 173.93 183.10 173.84 C 182.04 173.75 181.11 174.54 181.02 175.60 L 180.93 176.67 C 180.84 177.73 181.63 178.66 182.69 178.75 C 183.75 178.83 184.68 178.05 184.77 176.99 Z M 184.86 175.88 L 184.93 174.83 C 184.99 173.77 184.19 172.85 183.13 172.79 C 182.06 172.72 181.15 173.53 181.08 174.59 L 181.02 175.64 C 180.95 176.70 181.76 177.61 182.82 177.68 C 183.88 177.75 184.79 176.94 184.86 175.88 Z M 184.93 174.80 L 184.97 173.82 C 185.02 172.76 184.20 171.86 183.14 171.81 C 182.08 171.76 181.18 172.58 181.13 173.64 L 181.08 174.62 C 181.04 175.68 181.86 176.58 182.92 176.63 C 183.98 176.68 184.88 175.86 184.93 174.80 Z M 184.97 173.78 L 185.00 172.77 C 185.03 171.71 184.19 170.83 183.13 170.80 C 182.07 170.77 181.19 171.61 181.16 172.67 L 181.13 173.68 C 181.10 174.74 181.94 175.62 183.00 175.65 C 184.06 175.68 184.94 174.84 184.97 173.78 Z M 185.00 172.73 L 185.00 171.71 C 185.01 170.65 184.16 169.78 183.10 169.77 C 182.04 169.77 181.17 170.62 181.17 171.68 L 181.16 172.71 C 181.15 173.77 182.01 174.63 183.06 174.64 C 184.12 174.65 184.99 173.79 185.00 172.73 Z M 185.00 171.66 L 184.98 170.63 C 184.96 169.57 184.09 168.73 183.03 168.75 C 181.98 168.77 181.13 169.64 181.15 170.70 L 181.17 171.73 C 181.19 172.78 182.06 173.63 183.12 173.61 C 184.18 173.59 185.02 172.72 185.00 171.66 Z M 184.98 170.57 L 184.93 169.56 C 184.88 168.50 183.99 167.69 182.93 167.74 C 181.88 167.79 181.06 168.68 181.11 169.74 L 181.16 170.75 C 181.20 171.81 182.10 172.62 183.16 172.57 C 184.21 172.53 185.03 171.63 184.98 170.57 Z M 184.92 169.49 L 184.84 168.51 C 184.76 167.46 183.83 166.67 182.78 166.76 C 181.73 166.85 180.95 167.77 181.03 168.82 L 181.12 169.80 C 181.20 170.86 182.12 171.64 183.18 171.55 C 184.23 171.47 185.01 170.54 184.92 169.49 Z M 184.83 168.42 L 184.70 167.40 C 184.56 166.35 183.61 165.62 182.57 165.75 C 181.52 165.88 180.78 166.84 180.92 167.88 L 181.05 168.91 C 181.18 169.95 182.14 170.69 183.18 170.55 C 184.22 170.42 184.96 169.47 184.83 168.42 Z M 184.67 167.29 L 184.47 166.21 C 184.27 165.18 183.28 164.50 182.25 164.69 C 181.23 164.89 180.55 165.88 180.74 166.91 L 180.95 167.99 C 181.14 169.02 182.13 169.70 183.16 169.50 C 184.19 169.31 184.86 168.32 184.67 167.29 Z M 184.43 166.09 L 184.17 165.08 C 183.91 164.08 182.89 163.47 181.89 163.73 C 180.88 163.98 180.27 165.00 180.53 166.01 L 180.78 167.02 C 181.04 168.02 182.06 168.63 183.07 168.38 C 184.07 168.12 184.68 167.10 184.43 166.09 Z M 184.12 164.98 L 183.82 164.04 C 183.51 163.06 182.46 162.52 181.48 162.83 C 180.50 163.15 179.96 164.19 180.27 165.18 L 180.57 166.11 C 180.89 167.10 181.94 167.64 182.92 167.32 C 183.90 167.01 184.44 165.96 184.12 164.98 Z M 183.77 163.94 L 183.44 163.07 C 183.07 162.11 182.00 161.64 181.04 162.00 C 180.09 162.37 179.62 163.44 179.98 164.40 L 180.32 165.27 C 180.69 166.23 181.76 166.70 182.71 166.33 C 183.67 165.97 184.14 164.90 183.77 163.94 Z M 183.38 162.98 L 183.02 162.16 C 182.60 161.23 181.52 160.82 180.59 161.23 C 179.67 161.65 179.25 162.73 179.67 163.66 L 180.03 164.48 C 180.45 165.40 181.53 165.82 182.46 165.41 C 183.38 164.99 183.80 163.91 183.38 162.98 Z M 182.96 162.08 L 182.50 161.17 C 182.04 160.28 180.95 159.92 180.05 160.38 C 179.16 160.83 178.80 161.93 179.26 162.82 L 179.72 163.73 C 180.18 164.63 181.27 164.98 182.17 164.53 C 183.06 164.07 183.42 162.98 182.96 162.08 Z M 182.43 161.10 L 181.92 160.20 C 181.42 159.34 180.32 159.05 179.46 159.54 C 178.60 160.04 178.31 161.14 178.80 162.00 L 179.32 162.90 C 179.82 163.76 180.92 164.05 181.78 163.55 C 182.64 163.06 182.93 161.96 182.43 161.10 Z M 181.85 160.13 L 181.31 159.30 C 180.77 158.47 179.67 158.24 178.85 158.78 C 178.03 159.31 177.79 160.41 178.33 161.23 L 178.87 162.07 C 179.40 162.89 180.50 163.12 181.33 162.59 C 182.15 162.06 182.38 160.96 181.85 160.13 Z M 181.24 159.24 L 180.68 158.46 C 180.11 157.67 179.01 157.49 178.22 158.06 C 177.44 158.63 177.26 159.73 177.83 160.51 L 178.39 161.29 C 178.96 162.08 180.06 162.26 180.84 161.69 C 181.63 161.12 181.81 160.02 181.24 159.24 Z M 180.61 158.40 L 180.02 157.66 C 179.42 156.91 178.33 156.78 177.58 157.38 C 176.83 157.97 176.70 159.06 177.30 159.81 L 177.89 160.56 C 178.49 161.31 179.58 161.44 180.33 160.84 C 181.08 160.25 181.21 159.15 180.61 158.40 Z M 179.95 157.61 L 179.27 156.84 C 178.65 156.12 177.57 156.05 176.86 156.67 C 176.14 157.29 176.07 158.38 176.69 159.09 L 177.37 159.86 C 177.99 160.58 179.07 160.65 179.78 160.03 C 180.50 159.40 180.57 158.32 179.95 157.61 Z M 179.20 156.78 L 178.51 156.07 C 177.86 155.39 176.78 155.37 176.11 156.02 C 175.44 156.68 175.42 157.75 176.07 158.42 L 176.76 159.14 C 177.42 159.81 178.49 159.83 179.16 159.18 C 179.83 158.53 179.85 157.46 179.20 156.78 Z M 178.43 156.02 L 177.71 155.35 C 177.03 154.72 175.97 154.75 175.34 155.43 C 174.71 156.11 174.75 157.17 175.43 157.80 L 176.15 158.47 C 176.82 159.10 177.89 159.06 178.52 158.39 C 179.15 157.71 179.11 156.65 178.43 156.02 Z M 177.63 155.30 L 176.87 154.67 C 176.17 154.08 175.12 154.18 174.53 154.88 C 173.95 155.58 174.04 156.63 174.75 157.22 L 175.51 157.85 C 176.21 158.43 177.25 158.34 177.84 157.64 C 178.43 156.93 178.33 155.89 177.63 155.30 Z M 176.79 154.61 L 175.96 154.00 C 175.23 153.46 174.19 153.62 173.65 154.35 C 173.11 155.08 173.27 156.11 174.00 156.66 L 174.83 157.27 C 175.56 157.81 176.59 157.65 177.13 156.92 C 177.68 156.19 177.52 155.16 176.79 154.61 Z M 175.86 153.94 L 175.01 153.40 C 174.24 152.91 173.22 153.14 172.74 153.91 C 172.25 154.67 172.48 155.69 173.24 156.18 L 174.10 156.72 C 174.86 157.20 175.88 156.98 176.37 156.21 C 176.86 155.44 176.63 154.43 175.86 153.94 Z M 174.88 153.33 L 174.01 152.88 C 173.21 152.46 172.22 152.77 171.80 153.58 C 171.38 154.38 171.69 155.37 172.50 155.79 L 173.37 156.24 C 174.17 156.66 175.16 156.35 175.58 155.55 C 176.00 154.74 175.69 153.75 174.88 153.33 Z M 173.85 152.81 L 172.94 152.45 C 172.09 152.12 171.14 152.54 170.81 153.38 C 170.49 154.22 170.90 155.17 171.74 155.50 L 172.66 155.86 C 173.50 156.19 174.45 155.77 174.78 154.93 C 175.11 154.09 174.69 153.14 173.85 152.81 Z M 172.76 152.39 L 171.78 152.14 C 170.91 151.91 170.01 152.43 169.78 153.30 C 169.55 154.18 170.07 155.07 170.95 155.30 L 171.92 155.56 C 172.80 155.79 173.69 155.27 173.92 154.39 C 174.15 153.52 173.63 152.62 172.76 152.39 Z M 171.64 152.11 L 170.67 151.94 C 169.78 151.78 168.93 152.38 168.78 153.27 C 168.62 154.16 169.22 155.01 170.11 155.16 L 171.09 155.33 C 171.98 155.49 172.82 154.89 172.98 154.00 C 173.13 153.11 172.53 152.26 171.64 152.11 Z M 170.60 151.93 L 169.62 151.80 C 168.72 151.69 167.90 152.32 167.79 153.22 C 167.67 154.12 168.31 154.93 169.21 155.05 L 170.18 155.17 C 171.08 155.29 171.90 154.65 172.01 153.76 C 172.13 152.86 171.49 152.04 170.60 151.93 Z"
      fill="black"
      fill-rule="nonzero" /></svg>