<svg xmlns="http://www.w3.org/2000/svg" width="300" height="300" viewBox="0 0 300 300">
<path d="M 130.43 110.35 L 131.13 110.96 C 131.96 111.69 133.22 111.61 133.95 110.78 C 134.67 109.95 134.59 108.70 133.76 107.97 L 133.06 107.35 C 132.23 106.63 130.98 106.71 130.25 107.54 C 129.52 108.36 129.61 109.62 130.43 110.35 Z M 131.14 110.98 L 131.86 111.60 C 132.70 112.32 133.96 112.23 134.68 111.40 C 135.40 110.56 135.31 109.30 134.48 108.58 L 133.75 107.96 C 132.92 107.23 131.66 107.33 130.94 108.16 C 130.22 109.00 130.31 110.26 131.14 110.98 Z M 131.88 111.63 L 132.64 112.26 C 133.49 112.97 134.75 112.86 135.46 112.01 C 136.17 111.16 136.06 109.90 135.21 109.19 L 134.46 108.55 C 133.61 107.84 132.34 107.95 131.63 108.80 C 130.92 109.65 131.03 110.92 131.88 111.63 Z M 132.67 112.29 L 133.48 112.95 C 134.35 113.64 135.61 113.50 136.31 112.64 C 137.00 111.77 136.87 110.51 136.00 109.81 L 135.19 109.16 C 134.32 108.46 133.06 108.60 132.36 109.47 C 131.67 110.33 131.80 111.60 132.67 112.29 Z M 133.52 112.98 L 134.36 113.62 C 135.24 114.30 136.51 114.13 137.18 113.25 C 137.86 112.36 137.69 111.10 136.81 110.42 L 135.97 109.78 C 135.08 109.10 133.82 109.27 133.14 110.16 C 132.47 111.04 132.63 112.30 133.52 112.98 Z M 134.39 113.65 L 135.16 114.21 C 136.06 114.87 137.32 114.68 137.98 113.78 C 138.64 112.88 138.44 111.62 137.55 110.96 L 136.78 110.40 C 135.88 109.74 134.62 109.93 133.96 110.83 C 133.30 111.73 133.50 112.99 134.39 113.65 Z M 135.18 114.22 L 135.99 114.80 C 136.89 115.45 138.15 115.24 138.80 114.34 C 139.44 113.44 139.24 112.18 138.33 111.53 L 137.53 110.95 C 136.62 110.31 135.37 110.51 134.72 111.42 C 134.07 112.32 134.28 113.57 135.18 114.22 Z M 136.00 114.80 L 136.83 115.39 C 137.73 116.03 138.99 115.82 139.63 114.92 C 140.27 114.01 140.06 112.76 139.15 112.12 L 138.32 111.53 C 137.42 110.89 136.17 111.10 135.53 112.00 C 134.88 112.91 135.10 114.16 136.00 114.80 Z M 136.83 115.39 L 137.67 115.98 C 138.57 116.63 139.82 116.42 140.46 115.51 C 141.10 114.61 140.89 113.36 139.99 112.72 L 139.15 112.12 C 138.25 111.48 137.00 111.69 136.36 112.59 C 135.72 113.49 135.93 114.75 136.83 115.39 Z M 137.66 115.97 L 138.48 116.57 C 139.38 117.22 140.63 117.02 141.28 116.12 C 141.92 115.23 141.72 113.98 140.83 113.33 L 140.00 112.73 C 139.10 112.08 137.85 112.28 137.21 113.18 C 136.56 114.08 136.76 115.33 137.66 115.97 Z M 138.46 116.55 L 139.29 117.16 C 140.17 117.82 141.42 117.64 142.08 116.75 C 142.74 115.87 142.55 114.62 141.67 113.96 L 140.85 113.35 C 139.96 112.69 138.71 112.88 138.05 113.76 C 137.40 114.64 137.58 115.89 138.46 116.55 Z M 139.27 117.14 L 140.09 117.77 C 140.96 118.44 142.21 118.28 142.88 117.42 C 143.55 116.55 143.39 115.30 142.52 114.63 L 141.69 113.99 C 140.83 113.32 139.58 113.48 138.91 114.35 C 138.24 115.22 138.40 116.46 139.27 117.14 Z M 140.07 117.74 L 140.86 118.38 C 141.71 119.06 142.95 118.92 143.64 118.07 C 144.32 117.22 144.18 115.98 143.33 115.30 L 142.54 114.66 C 141.69 113.98 140.45 114.12 139.77 114.97 C 139.09 115.82 139.22 117.06 140.07 117.74 Z M 140.84 118.34 L 141.60 118.98 C 142.44 119.67 143.67 119.56 144.37 118.73 C 145.06 117.90 144.95 116.66 144.12 115.97 L 143.35 115.33 C 142.52 114.64 141.29 114.75 140.59 115.58 C 139.90 116.41 140.01 117.65 140.84 118.34 Z M 141.58 118.95 L 142.32 119.58 C 143.13 120.29 144.36 120.20 145.07 119.39 C 145.77 118.57 145.68 117.34 144.87 116.64 L 144.14 116.00 C 143.32 115.29 142.09 115.38 141.39 116.20 C 140.68 117.01 140.77 118.24 141.58 118.95 Z M 142.30 119.55 L 143.02 120.19 C 143.81 120.91 145.04 120.84 145.75 120.04 C 146.47 119.24 146.40 118.02 145.60 117.31 L 144.89 116.67 C 144.09 115.95 142.87 116.02 142.15 116.82 C 141.44 117.61 141.51 118.84 142.30 119.55 Z M 143.00 120.16 L 143.71 120.81 C 144.49 121.53 145.70 121.49 146.43 120.71 C 147.15 119.93 147.10 118.71 146.32 117.99 L 145.62 117.34 C 144.84 116.62 143.62 116.66 142.90 117.44 C 142.18 118.22 142.22 119.44 143.00 120.16 Z M 143.69 120.78 L 144.39 121.45 C 145.15 122.17 146.36 122.15 147.09 121.39 C 147.82 120.63 147.79 119.42 147.03 118.69 L 146.33 118.03 C 145.57 117.30 144.37 117.32 143.64 118.08 C 142.91 118.84 142.93 120.05 143.69 120.78 Z M 144.38 121.41 L 145.07 122.10 C 145.81 122.83 147.01 122.83 147.74 122.09 C 148.48 121.35 148.48 120.15 147.74 119.42 L 147.04 118.73 C 146.30 117.99 145.11 118.00 144.37 118.74 C 143.63 119.48 143.64 120.67 144.38 121.41 Z M 145.06 122.06 L 145.76 122.78 C 146.48 123.53 147.67 123.54 148.41 122.82 C 149.15 122.10 149.17 120.92 148.45 120.17 L 147.75 119.45 C 147.03 118.71 145.84 118.69 145.10 119.41 C 144.36 120.14 144.34 121.32 145.06 122.06 Z M 145.75 122.75 L 146.46 123.51 C 147.17 124.26 148.34 124.30 149.09 123.59 C 149.84 122.89 149.87 121.72 149.17 120.97 L 148.46 120.21 C 147.76 119.46 146.58 119.42 145.83 120.13 C 145.09 120.83 145.05 122.00 145.75 122.75 Z M 146.46 123.48 L 147.13 124.22 C 147.82 124.97 148.98 125.03 149.73 124.34 C 150.48 123.66 150.54 122.49 149.85 121.74 L 149.18 121.00 C 148.50 120.25 147.33 120.19 146.58 120.88 C 145.83 121.56 145.77 122.73 146.46 123.48 Z M 147.13 124.19 L 147.76 124.90 C 148.43 125.66 149.58 125.73 150.34 125.06 C 151.09 124.39 151.16 123.23 150.49 122.48 L 149.86 121.77 C 149.19 121.02 148.04 120.95 147.28 121.62 C 146.53 122.29 146.46 123.44 147.13 124.19 Z M 147.75 124.88 L 148.40 125.62 C 149.05 126.37 150.20 126.45 150.95 125.80 C 151.71 125.14 151.79 124.00 151.13 123.24 L 150.49 122.50 C 149.83 121.75 148.69 121.67 147.93 122.32 C 147.18 122.98 147.10 124.12 147.75 124.88 Z M 148.40 125.60 L 149.05 126.36 C 149.69 127.12 150.83 127.21 151.58 126.56 C 152.34 125.92 152.43 124.79 151.79 124.03 L 151.13 123.26 C 150.49 122.51 149.36 122.42 148.60 123.06 C 147.84 123.71 147.75 124.84 148.40 125.60 Z M 149.05 126.34 L 149.71 127.13 C 150.34 127.88 151.46 127.98 152.22 127.35 C 152.97 126.72 153.07 125.59 152.44 124.84 L 151.78 124.05 C 151.15 123.30 150.03 123.20 149.27 123.83 C 148.52 124.46 148.42 125.58 149.05 126.34 Z M 149.71 127.10 L 150.36 127.91 C 150.98 128.66 152.10 128.77 152.85 128.15 C 153.61 127.53 153.72 126.42 153.10 125.66 L 152.44 124.86 C 151.82 124.10 150.71 123.99 149.95 124.61 C 149.20 125.23 149.09 126.35 149.71 127.10 Z M 150.37 127.89 L 151.02 128.70 C 151.63 129.45 152.74 129.57 153.49 128.96 C 154.24 128.35 154.36 127.25 153.75 126.49 L 153.10 125.68 C 152.49 124.93 151.38 124.81 150.63 125.42 C 149.88 126.03 149.76 127.13 150.37 127.89 Z M 151.02 128.68 L 151.64 129.46 C 152.24 130.21 153.34 130.34 154.09 129.74 C 154.84 129.14 154.97 128.05 154.37 127.30 L 153.75 126.51 C 153.15 125.76 152.06 125.64 151.31 126.23 C 150.55 126.83 150.43 127.93 151.02 128.68 Z M 151.65 129.44 L 152.26 130.23 C 152.85 130.98 153.94 131.11 154.69 130.52 C 155.44 129.94 155.57 128.85 154.98 128.10 L 154.37 127.31 C 153.78 126.56 152.70 126.43 151.94 127.02 C 151.19 127.61 151.06 128.69 151.65 129.44 Z M 152.27 130.21 L 152.88 131.00 C 153.46 131.75 154.53 131.89 155.28 131.31 C 156.03 130.73 156.17 129.66 155.59 128.91 L 154.98 128.12 C 154.40 127.37 153.32 127.23 152.58 127.81 C 151.83 128.39 151.69 129.46 152.27 130.21 Z M 152.89 130.99 L 153.50 131.78 C 154.07 132.53 155.13 132.67 155.88 132.10 C 156.62 131.53 156.76 130.46 156.19 129.72 L 155.58 128.92 C 155.01 128.18 153.95 128.04 153.20 128.61 C 152.46 129.18 152.32 130.24 152.89 130.99 Z M 153.50 131.77 L 154.11 132.57 C 154.67 133.30 155.73 133.45 156.47 132.89 C 157.21 132.32 157.35 131.27 156.79 130.53 L 156.18 129.73 C 155.62 128.99 154.56 128.85 153.83 129.41 C 153.09 129.97 152.94 131.03 153.50 131.77 Z M 154.12 132.55 L 154.72 133.35 C 155.28 134.09 156.33 134.23 157.06 133.67 C 157.80 133.12 157.94 132.07 157.38 131.34 L 156.78 130.54 C 156.22 129.81 155.18 129.66 154.44 130.22 C 153.71 130.77 153.56 131.82 154.12 132.55 Z M 154.73 133.34 L 155.23 133.99 C 155.78 134.72 156.82 134.87 157.54 134.32 C 158.27 133.76 158.42 132.73 157.87 132.00 L 157.37 131.35 C 156.82 130.62 155.79 130.47 155.06 131.02 C 154.33 131.58 154.18 132.61 154.73 133.34 Z"
      fill="black"
      fill-rule="nonzero" /><path d="M 173.98 104.15 L 173.38 104.98 C 172.77 105.82 172.95 107.01 173.80 107.62 C 174.64 108.24 175.83 108.05 176.44 107.21 L 177.04 106.38 C 177.66 105.54 177.47 104.35 176.63 103.74 C 175.78 103.12 174.60 103.31 173.98 104.15 Z M 173.38 104.97 L 172.78 105.78 C 172.16 106.63 172.35 107.82 173.19 108.44 C 174.04 109.06 175.23 108.88 175.85 108.03 L 176.45 107.21 C 177.07 106.37 176.88 105.18 176.04 104.56 C 175.19 103.94 174.00 104.12 173.38 104.97 Z M 172.78 105.77 L 172.19 106.56 C 171.57 107.41 171.74 108.61 172.59 109.23 C 173.44 109.86 174.63 109.68 175.26 108.84 L 175.85 108.04 C 176.48 107.19 176.30 106.00 175.45 105.37 C 174.61 104.74 173.41 104.92 172.78 105.77 Z M 172.20 106.55 L 171.61 107.32 C 170.97 108.17 171.14 109.37 171.98 110.01 C 172.83 110.65 174.03 110.48 174.67 109.64 L 175.26 108.86 C 175.90 108.01 175.73 106.81 174.88 106.17 C 174.04 105.53 172.84 105.70 172.20 106.55 Z M 171.61 107.31 L 171.02 108.08 C 170.37 108.93 170.53 110.14 171.37 110.78 C 172.22 111.43 173.43 111.27 174.07 110.43 L 174.67 109.65 C 175.32 108.81 175.15 107.60 174.31 106.95 C 173.47 106.30 172.26 106.46 171.61 107.31 Z M 171.00 108.08 L 170.40 108.87 C 169.76 109.72 169.92 110.94 170.77 111.58 C 171.62 112.23 172.84 112.07 173.48 111.22 L 174.09 110.43 C 174.73 109.58 174.57 108.36 173.72 107.71 C 172.87 107.07 171.65 107.23 171.00 108.08 Z M 170.38 108.88 L 169.76 109.71 C 169.12 110.57 169.30 111.79 170.16 112.44 C 171.02 113.08 172.24 112.90 172.89 112.04 L 173.51 111.21 C 174.15 110.34 173.97 109.12 173.11 108.48 C 172.24 107.84 171.03 108.02 170.38 108.88 Z M 169.74 109.73 L 169.23 110.44 C 168.60 111.31 168.80 112.53 169.67 113.16 C 170.54 113.79 171.76 113.60 172.39 112.72 L 172.91 112.02 C 173.54 111.15 173.34 109.93 172.47 109.29 C 171.60 108.66 170.38 108.86 169.74 109.73 Z M 169.22 110.45 L 168.68 111.22 C 168.06 112.09 168.26 113.31 169.14 113.94 C 170.02 114.56 171.24 114.35 171.86 113.47 L 172.40 112.71 C 173.03 111.83 172.82 110.61 171.94 109.99 C 171.07 109.37 169.85 109.57 169.22 110.45 Z M 168.68 111.22 L 168.09 112.05 C 167.47 112.93 167.68 114.15 168.56 114.77 C 169.44 115.39 170.66 115.18 171.28 114.30 L 171.87 113.47 C 172.49 112.59 172.28 111.37 171.39 110.75 C 170.51 110.13 169.30 110.34 168.68 111.22 Z M 168.09 112.05 L 167.45 112.96 C 166.83 113.84 167.04 115.06 167.92 115.68 C 168.80 116.30 170.02 116.09 170.64 115.21 L 171.28 114.30 C 171.90 113.42 171.69 112.20 170.81 111.58 C 169.93 110.96 168.71 111.17 168.09 112.05 Z M 167.46 112.96 L 166.85 113.82 C 166.23 114.70 166.43 115.91 167.31 116.54 C 168.19 117.16 169.40 116.95 170.02 116.07 L 170.64 115.21 C 171.26 114.33 171.05 113.12 170.17 112.49 C 169.29 111.87 168.08 112.08 167.46 112.96 Z M 166.86 113.82 L 166.26 114.66 C 165.64 115.53 165.84 116.74 166.72 117.36 C 167.59 117.98 168.80 117.78 169.42 116.91 L 170.01 116.07 C 170.64 115.20 170.43 113.99 169.56 113.37 C 168.69 112.75 167.48 112.95 166.86 113.82 Z M 166.27 114.66 L 165.67 115.50 C 165.04 116.37 165.24 117.58 166.11 118.20 C 166.98 118.82 168.18 118.62 168.80 117.75 L 169.41 116.90 C 170.03 116.04 169.83 114.83 168.97 114.21 C 168.10 113.59 166.89 113.79 166.27 114.66 Z M 165.68 115.50 L 165.07 116.34 C 164.45 117.20 164.65 118.40 165.51 119.02 C 166.37 119.64 167.57 119.45 168.19 118.59 L 168.79 117.75 C 169.41 116.89 169.22 115.69 168.36 115.07 C 167.50 114.45 166.30 114.65 165.68 115.50 Z M 165.09 116.34 L 164.51 117.14 C 163.89 117.99 164.07 119.18 164.92 119.80 C 165.78 120.42 166.97 120.24 167.59 119.38 L 168.17 118.59 C 168.79 117.74 168.61 116.54 167.76 115.92 C 166.90 115.30 165.71 115.49 165.09 116.34 Z M 164.52 117.13 L 163.96 117.90 C 163.33 118.74 163.51 119.93 164.36 120.56 C 165.20 121.18 166.39 121.00 167.01 120.15 L 167.58 119.39 C 168.20 118.54 168.02 117.35 167.18 116.73 C 166.33 116.11 165.14 116.29 164.52 117.13 Z M 163.97 117.89 L 163.33 118.75 C 162.70 119.59 162.87 120.77 163.70 121.40 C 164.54 122.03 165.72 121.86 166.35 121.02 L 167.00 120.16 C 167.63 119.33 167.46 118.14 166.62 117.51 C 165.78 116.89 164.60 117.05 163.97 117.89 Z M 163.34 118.74 L 162.75 119.52 C 162.12 120.34 162.28 121.53 163.11 122.16 C 163.93 122.79 165.12 122.63 165.75 121.80 L 166.34 121.03 C 166.97 120.20 166.81 119.02 165.98 118.39 C 165.15 117.76 163.97 117.92 163.34 118.74 Z M 162.76 119.52 L 162.19 120.26 C 161.56 121.09 161.71 122.26 162.53 122.89 C 163.36 123.53 164.53 123.37 165.16 122.55 L 165.74 121.80 C 166.37 120.98 166.21 119.80 165.39 119.17 C 164.57 118.54 163.39 118.69 162.76 119.52 Z M 162.19 120.27 L 161.60 121.05 C 160.97 121.87 161.13 123.04 161.95 123.67 C 162.77 124.30 163.94 124.14 164.57 123.32 L 165.16 122.54 C 165.79 121.72 165.63 120.55 164.81 119.92 C 163.99 119.29 162.82 119.45 162.19 120.27 Z M 161.59 121.06 L 161.00 121.84 C 160.38 122.67 160.54 123.84 161.36 124.46 C 162.19 125.08 163.36 124.92 163.98 124.10 L 164.57 123.31 C 165.19 122.49 165.03 121.32 164.21 120.69 C 163.38 120.07 162.21 120.24 161.59 121.06 Z M 160.99 121.84 L 160.37 122.67 C 159.75 123.50 159.92 124.67 160.75 125.29 C 161.57 125.91 162.75 125.75 163.37 124.92 L 163.99 124.09 C 164.61 123.27 164.44 122.09 163.61 121.47 C 162.79 120.85 161.61 121.02 160.99 121.84 Z M 160.37 122.67 L 159.75 123.49 C 159.13 124.32 159.30 125.50 160.13 126.12 C 160.96 126.75 162.14 126.58 162.76 125.74 L 163.38 124.92 C 164.00 124.09 163.83 122.91 163.00 122.29 C 162.17 121.67 160.99 121.84 160.37 122.67 Z M 159.75 123.49 L 159.15 124.28 C 158.53 125.11 158.70 126.29 159.53 126.92 C 160.36 127.54 161.54 127.37 162.17 126.54 L 162.76 125.75 C 163.39 124.92 163.22 123.74 162.39 123.11 C 161.55 122.49 160.37 122.65 159.75 123.49 Z M 159.15 124.27 L 158.52 125.10 C 157.89 125.93 158.06 127.12 158.89 127.75 C 159.72 128.38 160.91 128.21 161.54 127.38 L 162.17 126.55 C 162.80 125.72 162.64 124.53 161.80 123.90 C 160.97 123.27 159.78 123.43 159.15 124.27 Z M 158.52 125.08 L 157.91 125.88 C 157.27 126.71 157.43 127.91 158.26 128.55 C 159.09 129.19 160.29 129.03 160.93 128.20 L 161.54 127.40 C 162.18 126.57 162.02 125.37 161.19 124.73 C 160.36 124.09 159.16 124.25 158.52 125.08 Z M 157.91 125.86 L 157.32 126.61 C 156.67 127.44 156.82 128.65 157.65 129.30 C 158.48 129.95 159.68 129.80 160.33 128.97 L 160.92 128.22 C 161.57 127.39 161.43 126.19 160.60 125.53 C 159.77 124.88 158.56 125.03 157.91 125.86 Z M 157.33 126.59 L 156.72 127.34 C 156.06 128.17 156.19 129.38 157.03 130.05 C 157.86 130.71 159.07 130.58 159.73 129.75 L 160.33 128.99 C 160.99 128.16 160.86 126.95 160.03 126.29 C 159.20 125.62 157.99 125.76 157.33 126.59 Z M 156.72 127.32 L 156.10 128.09 C 155.42 128.92 155.54 130.14 156.37 130.82 C 157.20 131.49 158.42 131.37 159.10 130.54 L 159.73 129.77 C 160.41 128.94 160.28 127.72 159.45 127.04 C 158.62 126.37 157.40 126.49 156.72 127.32 Z M 156.10 128.06 L 155.45 128.84 C 154.75 129.66 154.86 130.90 155.68 131.59 C 156.51 132.29 157.74 132.18 158.44 131.35 L 159.10 130.57 C 159.79 129.75 159.68 128.51 158.86 127.82 C 158.03 127.12 156.80 127.23 156.10 128.06 Z M 155.46 128.79 L 154.80 129.55 C 154.08 130.36 154.16 131.61 154.97 132.33 C 155.79 133.05 157.04 132.97 157.76 132.15 L 158.42 131.40 C 159.14 130.58 159.06 129.34 158.25 128.62 C 157.43 127.90 156.18 127.97 155.46 128.79 Z M 154.83 129.48 L 154.11 130.24 C 153.36 131.04 153.40 132.30 154.19 133.06 C 154.99 133.81 156.25 133.77 157.01 132.97 L 157.72 132.22 C 158.48 131.42 158.44 130.16 157.64 129.40 C 156.84 128.65 155.58 128.69 154.83 129.48 Z M 154.07 130.26 L 153.37 131.04 C 152.63 131.86 152.70 133.13 153.52 133.87 C 154.34 134.61 155.61 134.55 156.35 133.72 L 157.05 132.95 C 157.79 132.13 157.73 130.86 156.90 130.12 C 156.08 129.38 154.81 129.44 154.07 130.26 Z M 153.13 131.34 L 152.65 132.14 C 152.08 133.10 152.39 134.34 153.35 134.91 C 154.31 135.49 155.56 135.17 156.13 134.21 L 156.60 133.42 C 157.18 132.46 156.86 131.21 155.90 130.64 C 154.94 130.07 153.70 130.38 153.13 131.34 Z M 152.38 132.87 L 152.24 133.73 C 152.07 134.85 152.84 135.89 153.95 136.06 C 155.06 136.23 156.10 135.46 156.27 134.35 L 156.40 133.48 C 156.57 132.37 155.81 131.33 154.70 131.16 C 153.58 130.99 152.55 131.76 152.38 132.87 Z M 152.25 134.38 L 152.40 135.31 C 152.59 136.42 153.64 137.17 154.76 136.98 C 155.87 136.79 156.62 135.74 156.43 134.63 L 156.27 133.70 C 156.08 132.59 155.03 131.84 153.92 132.03 C 152.80 132.22 152.06 133.27 152.25 134.38 Z M 152.46 135.57 L 152.77 136.57 C 153.11 137.64 154.25 138.25 155.33 137.91 C 156.40 137.58 157.01 136.44 156.67 135.36 L 156.36 134.36 C 156.03 133.29 154.89 132.68 153.81 133.02 C 152.73 133.35 152.13 134.50 152.46 135.57 Z M 152.78 136.60 L 153.12 137.62 C 153.47 138.69 154.63 139.27 155.70 138.92 C 156.77 138.56 157.35 137.41 157.00 136.34 L 156.66 135.32 C 156.31 134.25 155.15 133.67 154.08 134.02 C 153.01 134.38 152.43 135.53 152.78 136.60 Z M 153.09 137.50 L 153.34 138.44 C 153.63 139.52 154.75 140.17 155.83 139.88 C 156.92 139.59 157.56 138.47 157.27 137.38 L 157.02 136.45 C 156.73 135.36 155.62 134.72 154.53 135.01 C 153.44 135.30 152.80 136.42 153.09 137.50 Z M 153.32 138.31 L 153.51 139.27 C 153.74 140.36 154.81 141.07 155.90 140.85 C 157.00 140.62 157.71 139.55 157.49 138.46 L 157.29 137.51 C 157.07 136.41 156.00 135.70 154.90 135.92 C 153.80 136.15 153.10 137.22 153.32 138.31 Z M 153.51 139.18 L 153.66 140.18 C 153.84 141.28 154.87 142.03 155.98 141.86 C 157.08 141.68 157.83 140.65 157.65 139.55 L 157.49 138.54 C 157.32 137.44 156.29 136.69 155.18 136.87 C 154.08 137.04 153.33 138.08 153.51 139.18 Z M 153.67 140.13 L 153.80 141.12 C 153.95 142.22 154.96 143.00 156.06 142.85 C 157.16 142.70 157.93 141.69 157.79 140.59 L 157.65 139.60 C 157.51 138.49 156.49 137.72 155.39 137.87 C 154.29 138.02 153.52 139.03 153.67 140.13 Z M 153.80 141.10 L 153.91 142.01 C 154.05 143.11 155.05 143.89 156.15 143.76 C 157.25 143.62 158.03 142.62 157.89 141.52 L 157.78 140.61 C 157.65 139.51 156.65 138.73 155.55 138.86 C 154.45 139.00 153.67 140.00 153.80 141.10 Z M 153.91 141.99 L 154.02 142.96 C 154.14 144.05 155.13 144.85 156.23 144.72 C 157.33 144.60 158.12 143.61 158.00 142.51 L 157.89 141.55 C 157.77 140.45 156.78 139.65 155.68 139.78 C 154.58 139.90 153.79 140.89 153.91 141.99 Z M 154.02 142.93 L 154.12 143.96 C 154.23 145.06 155.21 145.86 156.31 145.75 C 157.41 145.64 158.21 144.66 158.10 143.56 L 158.00 142.54 C 157.89 141.44 156.91 140.64 155.81 140.75 C 154.72 140.86 153.91 141.83 154.02 142.93 Z M 154.13 143.93 L 154.22 145.01 C 154.31 146.11 155.28 146.92 156.38 146.83 C 157.47 146.73 158.29 145.76 158.19 144.67 L 158.10 143.59 C 158.00 142.49 157.04 141.68 155.94 141.78 C 154.84 141.87 154.03 142.84 154.13 143.93 Z M 154.22 144.99 L 154.30 146.04 C 154.38 147.13 155.33 147.95 156.43 147.87 C 157.52 147.79 158.35 146.84 158.27 145.75 L 158.19 144.69 C 158.11 143.60 157.15 142.78 156.06 142.86 C 154.96 142.94 154.14 143.89 154.22 144.99 Z M 154.30 146.02 L 154.37 147.05 C 154.44 148.14 155.38 148.97 156.47 148.90 C 157.57 148.83 158.40 147.89 158.33 146.80 L 158.26 145.77 C 158.19 144.67 157.25 143.84 156.16 143.91 C 155.07 143.98 154.24 144.92 154.30 146.02 Z M 154.38 147.03 L 154.43 148.07 C 154.49 149.16 155.42 149.99 156.51 149.93 C 157.60 149.87 158.44 148.94 158.38 147.85 L 158.32 146.82 C 158.26 145.73 157.33 144.89 156.24 144.95 C 155.15 145.01 154.31 145.94 154.38 147.03 Z M 154.44 148.06 L 154.49 149.07 C 154.54 150.15 155.47 150.99 156.55 150.94 C 157.64 150.88 158.48 149.96 158.42 148.87 L 158.37 147.86 C 158.32 146.77 157.39 145.94 156.31 145.99 C 155.22 146.05 154.38 146.97 154.44 148.06 Z M 154.49 149.06 L 154.54 150.02 C 154.59 151.10 155.51 151.94 156.59 151.89 C 157.67 151.84 158.51 150.93 158.46 149.84 L 158.42 148.88 C 158.37 147.80 157.45 146.96 156.37 147.01 C 155.28 147.06 154.44 147.97 154.49 149.06 Z M 154.54 150.02 L 154.59 151.02 C 154.63 152.10 155.55 152.94 156.63 152.89 C 157.71 152.84 158.54 151.93 158.50 150.85 L 158.45 149.85 C 158.41 148.77 157.49 147.93 156.42 147.98 C 155.34 148.02 154.50 148.94 154.54 150.02 Z M 154.60 151.01 L 154.64 152.09 C 154.68 153.17 155.59 154.01 156.67 153.96 C 157.74 153.92 158.58 153.01 158.53 151.93 L 158.49 150.85 C 158.45 149.78 157.54 148.94 156.46 148.99 C 155.39 149.03 154.55 149.94 154.60 151.01 Z M 154.65 152.09 L 154.69 153.07 C 154.73 154.14 155.63 154.97 156.70 154.93 C 157.77 154.89 158.61 153.99 158.56 152.92 L 158.53 151.94 C 158.48 150.87 157.58 150.03 156.51 150.07 C 155.44 150.12 154.61 151.02 154.65 152.09 Z M 154.70 153.07 L 154.73 153.99 C 154.77 155.06 155.67 155.89 156.74 155.85 C 157.80 155.81 158.63 154.91 158.59 153.84 L 158.56 152.92 C 158.52 151.85 157.62 151.02 156.55 151.06 C 155.49 151.10 154.65 152.00 154.70 153.07 Z M 154.74 153.99 L 154.77 154.93 C 154.81 155.99 155.71 156.82 156.77 156.78 C 157.83 156.74 158.66 155.85 158.62 154.79 L 158.58 153.84 C 158.54 152.78 157.65 151.95 156.59 151.99 C 155.53 152.03 154.70 152.93 154.74 153.99 Z M 154.78 154.93 L 154.82 155.92 C 154.86 156.97 155.75 157.80 156.81 157.76 C 157.86 157.72 158.69 156.83 158.65 155.77 L 158.61 154.79 C 158.57 153.73 157.68 152.90 156.63 152.94 C 155.57 152.98 154.74 153.87 154.78 154.93 Z M 154.82 155.91 L 154.86 156.92 C 154.90 157.97 155.78 158.80 156.84 158.76 C 157.90 158.72 158.72 157.83 158.68 156.77 L 158.65 155.77 C 158.61 154.72 157.72 153.89 156.66 153.93 C 155.61 153.97 154.78 154.86 154.82 155.91 Z M 154.86 156.91 L 154.90 157.93 C 154.94 158.99 155.82 159.81 156.88 159.77 C 157.93 159.73 158.75 158.85 158.72 157.79 L 158.68 156.78 C 158.64 155.72 157.76 154.90 156.70 154.94 C 155.65 154.98 154.82 155.86 154.86 156.91 Z M 154.90 157.93 L 154.94 158.90 C 154.98 159.96 155.86 160.78 156.91 160.74 C 157.96 160.70 158.78 159.82 158.74 158.77 L 158.71 157.80 C 158.67 156.75 157.79 155.92 156.74 155.96 C 155.69 156.00 154.87 156.88 154.90 157.93 Z M 154.94 158.90 L 154.97 159.89 C 155.01 160.93 155.89 161.76 156.94 161.72 C 157.98 161.69 158.81 160.81 158.77 159.76 L 158.74 158.78 C 158.71 157.73 157.83 156.90 156.78 156.94 C 155.73 156.97 154.91 157.85 154.94 158.90 Z M 154.98 159.88 L 155.01 160.88 C 155.04 161.93 155.91 162.76 156.95 162.73 C 158.00 162.70 158.82 161.83 158.80 160.78 L 158.77 159.77 C 158.74 158.73 157.87 157.90 156.82 157.93 C 155.78 157.96 154.95 158.83 154.98 159.88 Z M 155.01 160.87 L 155.03 161.90 C 155.05 162.95 155.92 163.78 156.96 163.76 C 158.01 163.73 158.83 162.87 158.81 161.83 L 158.79 160.79 C 158.77 159.75 157.91 158.92 156.86 158.94 C 155.82 158.96 154.99 159.83 155.01 160.87 Z M 155.04 161.89 L 155.05 162.89 C 155.06 163.93 155.92 164.76 156.96 164.75 C 158.00 164.74 158.83 163.88 158.82 162.84 L 158.81 161.84 C 158.79 160.80 157.94 159.97 156.90 159.98 C 155.86 159.99 155.02 160.85 155.04 161.89 Z M 155.06 162.88 L 155.06 163.88 C 155.07 164.92 155.92 165.76 156.95 165.75 C 157.99 165.74 158.83 164.90 158.82 163.86 L 158.81 162.85 C 158.81 161.81 157.96 160.98 156.92 160.99 C 155.89 160.99 155.05 161.84 155.06 162.88 Z M 155.07 163.88 L 155.07 164.88 C 155.07 165.92 155.91 166.75 156.95 166.75 C 157.98 166.75 158.82 165.91 158.82 164.87 L 158.81 163.87 C 158.81 162.83 157.97 162.00 156.94 162.00 C 155.90 162.00 155.07 162.84 155.07 163.88 Z M 155.08 164.88 L 155.08 165.87 C 155.08 166.90 155.92 167.73 156.95 167.73 C 157.97 167.73 158.81 166.90 158.81 165.87 L 158.81 164.88 C 158.81 163.85 157.97 163.01 156.94 163.01 C 155.91 163.01 155.08 163.85 155.08 164.88 Z M 155.09 165.87 L 155.09 166.90 C 155.09 167.92 155.92 168.76 156.94 168.76 C 157.97 168.76 158.80 167.92 158.80 166.90 L 158.80 165.87 C 158.80 164.84 157.97 164.01 156.94 164.01 C 155.92 164.01 155.09 164.84 155.09 165.87 Z M 155.09 166.90 L 155.09 167.91 C 155.09 168.93 155.92 169.76 156.94 169.76 C 157.97 169.76 158.80 168.93 158.80 167.91 L 158.80 166.90 C 158.80 165.88 157.97 165.05 156.94 165.05 C 155.92 165.05 155.09 165.88 155.09 166.90 Z M 155.10 167.91 L 155.10 168.89 C 155.10 169.91 155.93 170.74 156.94 170.74 C 157.96 170.74 158.79 169.91 158.79 168.89 L 158.79 167.91 C 158.79 166.89 157.96 166.06 156.94 166.06 C 155.93 166.06 155.10 166.89 155.10 167.91 Z M 155.11 168.89 L 155.11 169.85 C 155.11 170.87 155.93 171.69 156.94 171.69 C 157.96 171.69 158.78 170.87 158.78 169.85 L 158.78 168.89 C 158.78 167.88 157.96 167.05 156.94 167.05 C 155.93 167.05 155.11 167.88 155.11 168.89 Z M 155.11 169.85 L 155.11 170.76 C 155.11 171.77 155.93 172.59 156.94 172.59 C 157.96 172.59 158.77 171.77 158.77 170.76 L 158.77 169.85 C 158.77 168.84 157.96 168.02 156.94 168.02 C 155.93 168.02 155.11 168.84 155.11 169.85 Z M 155.12 170.76 L 155.12 171.71 C 155.12 172.72 155.94 173.53 156.94 173.53 C 157.95 173.53 158.77 172.72 158.77 171.71 L 158.77 170.76 C 158.77 169.76 157.95 168.94 156.94 168.94 C 155.94 168.94 155.12 169.76 155.12 170.76 Z M 155.13 171.71 L 155.13 172.74 C 155.13 173.74 155.94 174.55 156.94 174.55 C 157.95 174.55 158.76 173.74 158.76 172.74 L 158.76 171.71 C 158.76 170.71 157.95 169.90 156.94 169.90 C 155.94 169.90 155.13 170.71 155.13 171.71 Z M 155.14 172.74 L 155.14 173.85 C 155.14 174.85 155.95 175.66 156.94 175.66 C 157.94 175.66 158.75 174.85 158.75 173.85 L 158.75 172.74 C 158.75 171.74 157.94 170.94 156.94 170.94 C 155.95 170.94 155.14 171.74 155.14 172.74 Z M 155.15 173.85 L 155.15 174.78 C 155.15 175.77 155.95 176.57 156.94 176.57 C 157.94 176.57 158.74 175.77 158.74 174.78 L 158.74 173.85 C 158.74 172.86 157.94 172.05 156.94 172.05 C 155.95 172.05 155.15 172.86 155.15 173.85 Z M 155.15 174.78 L 155.15 175.76 C 155.16 176.75 155.96 177.55 156.95 177.55 C 157.94 177.55 158.74 176.75 158.74 175.76 L 158.74 174.77 C 158.73 173.79 157.93 172.98 156.94 172.99 C 155.95 172.99 155.15 173.79 155.15 174.78 Z M 155.16 175.77 L 155.16 176.79 C 155.17 177.78 155.97 178.57 156.95 178.57 C 157.94 178.57 158.74 177.77 158.73 176.78 L 158.73 175.76 C 158.73 174.77 157.93 173.97 156.94 173.98 C 155.96 173.98 155.16 174.78 155.16 175.77 Z M 155.17 176.79 L 155.18 177.83 C 155.18 178.81 155.98 179.61 156.96 179.60 C 157.94 179.60 158.74 178.80 158.73 177.81 L 158.73 176.78 C 158.72 175.79 157.92 175.00 156.94 175.01 C 155.96 175.01 155.17 175.81 155.17 176.79 Z M 155.18 177.84 L 155.19 178.87 C 155.20 179.85 156.00 180.64 156.98 180.63 C 157.96 180.62 158.74 179.82 158.73 178.84 L 158.73 177.81 C 158.72 176.83 157.92 176.04 156.94 176.05 C 155.96 176.06 155.17 176.86 155.18 177.84 Z M 155.20 178.88 L 155.21 179.96 C 155.23 180.94 156.02 181.72 157.00 181.70 C 157.97 181.69 158.75 180.89 158.74 179.92 L 158.72 178.84 C 158.71 177.86 157.91 177.08 156.94 177.10 C 155.97 177.11 155.19 177.91 155.20 178.88 Z M 155.23 179.97 L 155.25 181.06 C 155.27 182.02 156.06 182.79 157.03 182.77 C 157.99 182.76 158.76 181.96 158.74 180.99 L 158.72 179.91 C 158.71 178.94 157.91 178.18 156.94 178.19 C 155.98 178.21 155.21 179.01 155.23 179.97 Z M 155.27 181.07 L 155.29 182.10 C 155.32 183.06 156.11 183.81 157.07 183.79 C 158.03 183.76 158.78 182.96 158.76 182.01 L 158.73 180.98 C 158.70 180.02 157.91 179.27 156.95 179.30 C 155.99 179.32 155.24 180.12 155.27 181.07 Z M 155.31 182.12 L 155.35 183.08 C 155.38 184.03 156.18 184.77 157.13 184.73 C 158.07 184.70 158.81 183.90 158.78 182.95 L 158.74 181.99 C 158.70 181.04 157.91 180.30 156.96 180.34 C 156.01 180.38 155.27 181.17 155.31 182.12 Z M 155.36 183.10 L 155.41 183.99 C 155.46 184.93 156.26 185.65 157.19 185.60 C 158.13 185.55 158.85 184.76 158.80 183.82 L 158.76 182.93 C 158.71 181.99 157.91 181.27 156.97 181.32 C 156.04 181.37 155.31 182.17 155.36 183.10 Z M 155.43 184.03 L 155.50 185.08 C 155.57 186.01 156.38 186.70 157.31 186.64 C 158.23 186.57 158.93 185.76 158.86 184.83 L 158.79 183.78 C 158.72 182.86 157.91 182.16 156.98 182.23 C 156.06 182.29 155.36 183.10 155.43 184.03 Z M 155.52 185.12 L 155.62 186.14 C 155.71 187.06 156.53 187.73 157.45 187.64 C 158.37 187.55 159.04 186.73 158.94 185.81 L 158.84 184.79 C 158.75 183.88 157.94 183.21 157.02 183.30 C 156.10 183.39 155.43 184.20 155.52 185.12 Z M 155.64 186.17 L 155.75 187.11 C 155.86 188.01 156.69 188.66 157.59 188.55 C 158.50 188.44 159.15 187.62 159.04 186.71 L 158.93 185.78 C 158.82 184.87 157.99 184.22 157.09 184.33 C 156.18 184.44 155.53 185.27 155.64 186.17 Z M 155.77 187.12 L 155.85 187.73 C 155.96 188.63 156.79 189.26 157.69 189.15 C 158.58 189.03 159.22 188.21 159.10 187.31 L 159.02 186.70 C 158.91 185.80 158.08 185.16 157.19 185.28 C 156.29 185.40 155.65 186.22 155.77 187.12 Z"
      fill="black"
      fill-rule="nonzero" /></svg>