<svg xmlns="http://www.w3.org/2000/svg" width="300" height="300" viewBox="0 0 300 300">
<path d="M 129.71 149.15 L 129.04 148.38 C 128.36 147.60 127.18 147.51 126.40 148.19 C 125.62 148.86 125.54 150.04 126.21 150.82 L 126.89 151.60 C 127.56 152.38 128.74 152.46 129.52 151.79 C 130.30 151.11 130.39 149.93 129.71 149.15 Z M 129.16 148.51 L 128.59 147.70 C 127.99 146.85 126.82 146.65 125.97 147.24 C 125.12 147.84 124.91 149.02 125.51 149.87 L 126.09 150.68 C 126.69 151.53 127.86 151.74 128.71 151.14 C 129.56 150.54 129.76 149.36 129.16 148.51 Z M 128.80 148.04 L 128.42 147.15 C 128.01 146.19 126.90 145.74 125.93 146.15 C 124.97 146.56 124.52 147.67 124.93 148.63 L 125.30 149.52 C 125.71 150.49 126.83 150.94 127.79 150.53 C 128.76 150.12 129.21 149.01 128.80 148.04 Z M 128.57 147.69 L 128.48 146.78 C 128.37 145.74 127.42 144.98 126.37 145.09 C 125.33 145.20 124.57 146.14 124.68 147.19 L 124.77 148.10 C 124.89 149.15 125.83 149.91 126.88 149.79 C 127.93 149.68 128.69 148.74 128.57 147.69 Z M 128.48 147.24 L 128.61 146.29 C 128.75 145.24 128.01 144.28 126.96 144.14 C 125.90 144.00 124.94 144.74 124.80 145.79 L 124.67 146.74 C 124.53 147.79 125.27 148.75 126.33 148.89 C 127.38 149.03 128.34 148.29 128.48 147.24 Z M 128.55 146.59 L 128.85 145.60 C 129.15 144.58 128.57 143.50 127.55 143.20 C 126.53 142.90 125.45 143.48 125.15 144.50 L 124.85 145.49 C 124.55 146.51 125.13 147.59 126.15 147.89 C 127.18 148.19 128.25 147.61 128.55 146.59 Z M 128.79 145.80 L 129.21 144.80 C 129.62 143.81 129.15 142.67 128.16 142.26 C 127.17 141.85 126.04 142.32 125.62 143.30 L 125.21 144.31 C 124.80 145.29 125.26 146.43 126.25 146.84 C 127.24 147.25 128.38 146.79 128.79 145.80 Z M 129.16 144.92 L 129.62 144.00 C 130.10 143.04 129.71 141.87 128.75 141.39 C 127.79 140.91 126.62 141.30 126.13 142.26 L 125.67 143.18 C 125.19 144.14 125.58 145.31 126.54 145.79 C 127.50 146.27 128.67 145.88 129.16 144.92 Z M 129.57 144.09 L 130.08 143.20 C 130.61 142.27 130.28 141.07 129.34 140.54 C 128.40 140.01 127.21 140.34 126.68 141.28 L 126.18 142.17 C 125.65 143.11 125.97 144.30 126.91 144.83 C 127.85 145.36 129.04 145.03 129.57 144.09 Z M 130.04 143.27 L 130.57 142.42 C 131.14 141.50 130.85 140.30 129.93 139.73 C 129.02 139.16 127.81 139.44 127.24 140.36 L 126.71 141.21 C 126.15 142.13 126.43 143.34 127.35 143.91 C 128.27 144.48 129.48 144.19 130.04 143.27 Z M 130.54 142.47 L 131.07 141.68 C 131.66 140.77 131.41 139.55 130.51 138.96 C 129.60 138.36 128.38 138.61 127.79 139.52 L 127.26 140.31 C 126.67 141.22 126.92 142.44 127.83 143.03 C 128.73 143.63 129.95 143.38 130.54 142.47 Z M 131.05 141.72 L 131.65 140.85 C 132.27 139.95 132.04 138.73 131.15 138.11 C 130.25 137.49 129.03 137.71 128.41 138.61 L 127.81 139.48 C 127.19 140.37 127.41 141.60 128.31 142.22 C 129.20 142.84 130.43 142.61 131.05 141.72 Z M 131.62 140.89 L 132.21 140.09 C 132.85 139.22 132.66 137.98 131.78 137.34 C 130.91 136.69 129.67 136.88 129.03 137.76 L 128.44 138.56 C 127.80 139.44 127.99 140.67 128.86 141.32 C 129.74 141.96 130.97 141.77 131.62 140.89 Z M 132.17 140.15 L 132.76 139.39 C 133.44 138.54 133.29 137.29 132.43 136.62 C 131.58 135.94 130.34 136.09 129.66 136.95 L 129.07 137.70 C 128.39 138.56 128.54 139.80 129.40 140.48 C 130.25 141.15 131.49 141.01 132.17 140.15 Z M 132.72 139.45 L 133.35 138.71 C 134.06 137.87 133.96 136.62 133.12 135.92 C 132.29 135.21 131.04 135.31 130.34 136.15 L 129.70 136.89 C 129.00 137.72 129.10 138.97 129.93 139.68 C 130.77 140.39 132.01 140.28 132.72 139.45 Z M 133.31 138.76 L 133.98 138.02 C 134.72 137.21 134.66 135.95 133.85 135.22 C 133.03 134.48 131.78 134.54 131.04 135.35 L 130.38 136.09 C 129.64 136.91 129.70 138.16 130.51 138.89 C 131.32 139.63 132.58 139.57 133.31 138.76 Z M 133.95 138.06 L 134.65 137.33 C 135.40 136.54 135.37 135.28 134.58 134.52 C 133.79 133.76 132.53 133.79 131.77 134.59 L 131.08 135.31 C 130.32 136.11 130.35 137.36 131.14 138.12 C 131.94 138.88 133.19 138.85 133.95 138.06 Z M 134.62 137.36 L 135.33 136.65 C 136.10 135.87 136.10 134.61 135.32 133.84 C 134.54 133.06 133.28 133.07 132.51 133.84 L 131.80 134.55 C 131.02 135.33 131.03 136.59 131.80 137.37 C 132.58 138.14 133.84 138.14 134.62 137.36 Z M 135.30 136.68 L 136.02 135.99 C 136.81 135.22 136.83 133.96 136.06 133.17 C 135.30 132.38 134.04 132.36 133.25 133.12 L 132.53 133.82 C 131.74 134.58 131.72 135.84 132.48 136.63 C 133.25 137.42 134.51 137.45 135.30 136.68 Z M 135.99 136.02 L 136.72 135.34 C 137.53 134.59 137.58 133.33 136.83 132.52 C 136.08 131.71 134.82 131.67 134.01 132.41 L 133.28 133.09 C 132.47 133.84 132.42 135.11 133.17 135.91 C 133.92 136.72 135.18 136.77 135.99 136.02 Z M 136.69 135.37 L 137.44 134.70 C 138.27 133.97 138.34 132.71 137.61 131.89 C 136.88 131.06 135.62 130.98 134.80 131.72 L 134.04 132.38 C 133.22 133.11 133.14 134.37 133.87 135.20 C 134.60 136.02 135.86 136.10 136.69 135.37 Z M 137.40 134.74 L 138.17 134.09 C 139.01 133.38 139.12 132.12 138.41 131.28 C 137.70 130.44 136.44 130.33 135.60 131.04 L 134.83 131.68 C 133.99 132.39 133.88 133.65 134.59 134.50 C 135.30 135.34 136.56 135.45 137.40 134.74 Z M 138.13 134.13 L 138.91 133.50 C 139.77 132.82 139.92 131.56 139.23 130.70 C 138.54 129.84 137.29 129.69 136.43 130.38 L 135.64 131.00 C 134.78 131.69 134.63 132.95 135.32 133.81 C 136.01 134.67 137.26 134.82 138.13 134.13 Z M 138.86 133.54 L 139.66 132.94 C 140.55 132.28 140.73 131.03 140.07 130.15 C 139.41 129.27 138.16 129.08 137.27 129.74 L 136.47 130.34 C 135.59 131.00 135.41 132.25 136.07 133.14 C 136.73 134.02 137.98 134.20 138.86 133.54 Z M 139.61 132.98 L 140.43 132.41 C 141.34 131.78 141.56 130.54 140.93 129.63 C 140.30 128.73 139.06 128.50 138.15 129.13 L 137.33 129.70 C 136.42 130.33 136.20 131.58 136.83 132.48 C 137.46 133.39 138.70 133.61 139.61 132.98 Z M 140.38 132.45 L 141.22 131.90 C 142.14 131.30 142.40 130.06 141.80 129.14 C 141.20 128.22 139.96 127.95 139.04 128.56 L 138.20 129.10 C 137.28 129.70 137.02 130.94 137.62 131.86 C 138.22 132.79 139.46 133.05 140.38 132.45 Z M 141.18 131.93 L 142.03 131.40 C 142.97 130.82 143.25 129.58 142.67 128.65 C 142.09 127.71 140.86 127.42 139.92 128.01 L 139.07 128.53 C 138.14 129.12 137.85 130.35 138.43 131.28 C 139.01 132.22 140.24 132.51 141.18 131.93 Z M 142.01 131.41 L 142.85 130.90 C 143.79 130.33 144.09 129.10 143.52 128.16 C 142.95 127.22 141.72 126.91 140.78 127.49 L 139.94 127.99 C 139.00 128.56 138.69 129.79 139.27 130.74 C 139.84 131.68 141.07 131.98 142.01 131.41 Z M 142.83 130.92 L 143.66 130.43 C 144.61 129.87 144.92 128.64 144.36 127.69 C 143.80 126.74 142.58 126.42 141.63 126.98 L 140.80 127.47 C 139.85 128.03 139.53 129.26 140.09 130.21 C 140.65 131.16 141.88 131.48 142.83 130.92 Z M 143.62 130.45 L 144.49 129.96 C 145.45 129.42 145.80 128.20 145.26 127.24 C 144.71 126.27 143.50 125.93 142.53 126.47 L 141.66 126.96 C 140.70 127.50 140.36 128.72 140.90 129.69 C 141.44 130.65 142.66 130.99 143.62 130.45 Z M 144.44 129.99 L 145.37 129.50 C 146.35 128.99 146.73 127.78 146.22 126.80 C 145.70 125.82 144.50 125.44 143.52 125.96 L 142.58 126.45 C 141.61 126.96 141.23 128.17 141.74 129.14 C 142.25 130.12 143.46 130.50 144.44 129.99 Z M 145.32 129.53 L 146.19 129.11 C 147.18 128.63 147.60 127.43 147.12 126.43 C 146.63 125.44 145.44 125.02 144.44 125.51 L 143.57 125.93 C 142.58 126.41 142.16 127.60 142.65 128.60 C 143.13 129.59 144.32 130.01 145.32 129.53 Z M 146.13 129.14 L 147.03 128.73 C 148.04 128.28 148.50 127.10 148.05 126.09 C 147.60 125.08 146.42 124.63 145.41 125.07 L 144.50 125.48 C 143.49 125.93 143.04 127.11 143.49 128.12 C 143.93 129.13 145.12 129.58 146.13 129.14 Z M 146.97 128.76 L 147.91 128.38 C 148.94 127.97 149.44 126.81 149.03 125.78 C 148.61 124.76 147.45 124.26 146.42 124.67 L 145.48 125.05 C 144.45 125.46 143.95 126.62 144.36 127.65 C 144.77 128.67 145.94 129.17 146.97 128.76 Z M 147.83 128.42 L 148.80 128.08 C 149.84 127.71 150.39 126.57 150.02 125.52 C 149.66 124.48 148.52 123.93 147.47 124.30 L 146.50 124.64 C 145.46 125.00 144.91 126.14 145.28 127.19 C 145.64 128.23 146.79 128.78 147.83 128.42 Z M 148.70 128.11 L 149.65 127.83 C 150.71 127.51 151.32 126.40 151.00 125.34 C 150.69 124.28 149.57 123.67 148.51 123.99 L 147.57 124.27 C 146.51 124.58 145.90 125.69 146.21 126.75 C 146.53 127.82 147.64 128.42 148.70 128.11 Z M 149.55 127.85 L 150.50 127.63 C 151.58 127.37 152.24 126.29 151.98 125.21 C 151.72 124.14 150.64 123.47 149.57 123.73 L 148.62 123.96 C 147.54 124.21 146.88 125.30 147.13 126.37 C 147.39 127.45 148.47 128.11 149.55 127.85 Z M 150.39 127.65 L 151.37 127.47 C 152.46 127.27 153.18 126.23 152.98 125.14 C 152.78 124.05 151.74 123.33 150.65 123.53 L 149.67 123.71 C 148.59 123.91 147.86 124.95 148.06 126.04 C 148.26 127.13 149.30 127.85 150.39 127.65 Z M 151.26 127.49 L 152.27 127.36 C 153.37 127.22 154.15 126.22 154.01 125.12 C 153.87 124.02 152.87 123.24 151.77 123.38 L 150.76 123.51 C 149.66 123.65 148.88 124.65 149.02 125.75 C 149.16 126.85 150.17 127.63 151.26 127.49 Z M 152.17 127.37 L 153.18 127.29 C 154.28 127.21 155.11 126.25 155.03 125.14 C 154.94 124.04 153.98 123.21 152.88 123.30 L 151.87 123.37 C 150.77 123.46 149.94 124.42 150.02 125.52 C 150.11 126.63 151.07 127.45 152.17 127.37 Z M 153.08 127.30 L 154.07 127.27 C 155.17 127.25 156.05 126.33 156.02 125.22 C 155.99 124.11 155.07 123.24 153.97 123.27 L 152.98 123.29 C 151.87 123.32 151.00 124.24 151.03 125.35 C 151.05 126.45 151.97 127.33 153.08 127.30 Z M 153.95 127.27 L 154.96 127.31 C 156.07 127.34 156.99 126.47 157.03 125.36 C 157.06 124.26 156.19 123.33 155.08 123.30 L 154.08 123.27 C 152.97 123.23 152.05 124.10 152.01 125.21 C 151.98 126.31 152.85 127.24 153.95 127.27 Z M 154.83 127.30 L 155.83 127.40 C 156.93 127.50 157.92 126.70 158.02 125.60 C 158.13 124.49 157.33 123.51 156.22 123.41 L 155.22 123.31 C 154.12 123.20 153.13 124.00 153.03 125.11 C 152.92 126.21 153.72 127.19 154.83 127.30 Z M 155.68 127.37 L 156.67 127.55 C 157.76 127.75 158.80 127.02 158.99 125.93 C 159.19 124.84 158.46 123.80 157.37 123.60 L 156.38 123.43 C 155.29 123.23 154.25 123.96 154.05 125.05 C 153.86 126.14 154.59 127.18 155.68 127.37 Z M 156.49 127.51 L 157.48 127.78 C 158.55 128.08 159.65 127.45 159.95 126.39 C 160.24 125.32 159.62 124.21 158.55 123.92 L 157.55 123.64 C 156.49 123.35 155.38 123.98 155.09 125.04 C 154.79 126.11 155.42 127.22 156.49 127.51 Z M 157.31 127.73 L 158.28 128.09 C 159.31 128.48 160.47 127.96 160.86 126.92 C 161.25 125.89 160.73 124.73 159.69 124.34 L 158.72 123.98 C 157.69 123.59 156.53 124.11 156.14 125.15 C 155.75 126.18 156.27 127.34 157.31 127.73 Z M 158.14 128.03 L 159.06 128.46 C 160.06 128.93 161.25 128.49 161.72 127.49 C 162.19 126.48 161.75 125.29 160.75 124.82 L 159.83 124.40 C 158.82 123.93 157.63 124.37 157.17 125.37 C 156.70 126.38 157.13 127.57 158.14 128.03 Z M 158.95 128.41 L 159.81 128.87 C 160.78 129.40 162.00 129.03 162.53 128.06 C 163.05 127.09 162.69 125.87 161.72 125.34 L 160.85 124.88 C 159.88 124.35 158.66 124.72 158.14 125.69 C 157.61 126.66 157.97 127.88 158.95 128.41 Z M 159.73 128.82 L 160.54 129.32 C 161.49 129.89 162.72 129.58 163.29 128.63 C 163.87 127.68 163.56 126.45 162.61 125.88 L 161.80 125.39 C 160.85 124.82 159.62 125.12 159.05 126.07 C 158.47 127.02 158.78 128.25 159.73 128.82 Z M 160.48 129.27 L 161.35 129.85 C 162.27 130.45 163.52 130.20 164.12 129.27 C 164.73 128.35 164.48 127.10 163.55 126.50 L 162.68 125.92 C 161.75 125.32 160.51 125.57 159.90 126.50 C 159.29 127.42 159.55 128.66 160.48 129.27 Z M 161.29 129.81 L 162.10 130.38 C 163.01 131.02 164.26 130.80 164.89 129.90 C 165.53 129.00 165.32 127.75 164.42 127.11 L 163.61 126.54 C 162.70 125.90 161.45 126.11 160.81 127.01 C 160.18 127.92 160.39 129.17 161.29 129.81 Z M 162.07 130.35 L 162.85 130.93 C 163.73 131.59 164.99 131.40 165.64 130.51 C 166.30 129.63 166.12 128.37 165.23 127.71 L 164.45 127.14 C 163.56 126.48 162.31 126.66 161.65 127.55 C 160.99 128.44 161.18 129.69 162.07 130.35 Z M 162.83 130.92 L 163.61 131.51 C 164.50 132.17 165.75 132.00 166.41 131.12 C 167.08 130.23 166.91 128.98 166.02 128.32 L 165.24 127.73 C 164.36 127.06 163.11 127.24 162.44 128.12 C 161.78 129.00 161.95 130.25 162.83 130.92 Z M 163.61 131.50 L 164.41 132.11 C 165.29 132.77 166.54 132.60 167.21 131.72 C 167.87 130.84 167.70 129.59 166.82 128.92 L 166.02 128.32 C 165.15 127.65 163.89 127.83 163.23 128.71 C 162.56 129.59 162.73 130.84 163.61 131.50 Z M 164.40 132.10 L 165.20 132.71 C 166.08 133.38 167.33 133.21 168.00 132.34 C 168.67 131.47 168.50 130.21 167.63 129.54 L 166.83 128.93 C 165.95 128.26 164.70 128.43 164.03 129.30 C 163.36 130.17 163.53 131.43 164.40 132.10 Z M 165.18 132.69 L 165.97 133.31 C 166.84 133.99 168.09 133.84 168.77 132.98 C 169.45 132.11 169.30 130.86 168.43 130.18 L 167.65 129.56 C 166.78 128.88 165.53 129.03 164.85 129.90 C 164.17 130.76 164.32 132.01 165.18 132.69 Z M 165.95 133.29 L 166.73 133.93 C 167.58 134.62 168.83 134.50 169.53 133.65 C 170.22 132.80 170.10 131.55 169.25 130.85 L 168.46 130.21 C 167.61 129.52 166.36 129.64 165.67 130.49 C 164.97 131.34 165.10 132.59 165.95 133.29 Z M 166.70 133.90 L 167.48 134.56 C 168.31 135.27 169.56 135.17 170.27 134.34 C 170.98 133.51 170.88 132.26 170.05 131.55 L 169.28 130.88 C 168.44 130.17 167.19 130.27 166.48 131.10 C 165.77 131.94 165.87 133.19 166.70 133.90 Z M 167.46 134.53 L 168.20 135.19 C 169.02 135.91 170.27 135.83 170.99 135.01 C 171.71 134.20 171.63 132.95 170.81 132.23 L 170.07 131.57 C 169.25 130.85 168.00 130.93 167.28 131.75 C 166.56 132.56 166.64 133.81 167.46 134.53 Z M 168.20 135.17 L 168.92 135.82 C 169.73 136.55 170.97 136.48 171.70 135.67 C 172.42 134.86 172.35 133.62 171.55 132.89 L 170.82 132.24 C 170.01 131.52 168.77 131.59 168.04 132.40 C 167.32 133.21 167.39 134.45 168.20 135.17 Z M 168.92 135.82 L 169.63 136.45 C 170.43 137.17 171.67 137.10 172.39 136.30 C 173.12 135.49 173.05 134.26 172.25 133.53 L 171.54 132.90 C 170.74 132.18 169.50 132.24 168.78 133.05 C 168.05 133.85 168.12 135.09 168.92 135.82 Z M 169.63 136.44 L 170.34 137.08 C 171.14 137.80 172.38 137.74 173.10 136.94 C 173.82 136.14 173.76 134.91 172.96 134.19 L 172.24 133.54 C 171.45 132.82 170.21 132.88 169.49 133.68 C 168.77 134.48 168.83 135.72 169.63 136.44 Z M 170.34 137.07 L 171.09 137.75 C 171.88 138.47 173.11 138.42 173.83 137.63 C 174.56 136.84 174.50 135.61 173.71 134.89 L 172.96 134.20 C 172.17 133.48 170.94 133.53 170.22 134.32 C 169.50 135.12 169.55 136.34 170.34 137.07 Z M 171.09 137.73 L 171.86 138.46 C 172.64 139.18 173.87 139.14 174.59 138.36 C 175.32 137.58 175.27 136.35 174.49 135.63 L 173.72 134.90 C 172.93 134.18 171.71 134.22 170.99 135.00 C 170.26 135.79 170.30 137.01 171.09 137.73 Z M 171.86 138.44 L 172.57 139.11 C 173.34 139.84 174.56 139.81 175.29 139.04 C 176.02 138.27 175.98 137.06 175.21 136.33 L 174.50 135.65 C 173.73 134.92 172.51 134.95 171.78 135.72 C 171.05 136.49 171.09 137.71 171.86 138.44 Z M 172.56 139.09 L 173.29 139.80 C 174.04 140.54 175.25 140.52 175.99 139.77 C 176.73 139.01 176.71 137.80 175.96 137.06 L 175.23 136.35 C 174.47 135.61 173.26 135.63 172.52 136.38 C 171.79 137.14 171.80 138.35 172.56 139.09 Z M 173.27 139.76 L 173.98 140.50 C 174.72 141.24 175.92 141.25 176.67 140.52 C 177.42 139.78 177.43 138.58 176.70 137.83 L 175.98 137.10 C 175.24 136.35 174.04 136.34 173.29 137.08 C 172.54 137.81 172.53 139.02 173.27 139.76 Z M 173.95 140.45 L 174.63 141.18 C 175.34 141.94 176.54 141.99 177.30 141.28 C 178.07 140.57 178.11 139.37 177.40 138.61 L 176.73 137.88 C 176.02 137.11 174.82 137.07 174.05 137.78 C 173.29 138.49 173.24 139.68 173.95 140.45 Z M 174.59 141.10 L 175.26 141.90 C 175.93 142.69 177.12 142.79 177.90 142.12 C 178.69 141.45 178.79 140.27 178.12 139.48 L 177.44 138.68 C 176.77 137.89 175.59 137.79 174.80 138.46 C 174.01 139.13 173.92 140.31 174.59 141.10 Z M 175.21 141.79 L 175.81 142.60 C 176.42 143.42 177.58 143.59 178.40 142.98 C 179.22 142.37 179.39 141.22 178.78 140.40 L 178.17 139.59 C 177.57 138.77 176.41 138.60 175.59 139.21 C 174.77 139.82 174.60 140.97 175.21 141.79 Z M 175.75 142.47 L 176.27 143.29 C 176.80 144.14 177.93 144.40 178.78 143.86 C 179.63 143.33 179.89 142.21 179.35 141.35 L 178.84 140.53 C 178.30 139.68 177.18 139.43 176.33 139.96 C 175.48 140.49 175.22 141.62 175.75 142.47 Z M 176.22 143.14 L 176.66 143.99 C 177.11 144.88 178.18 145.22 179.07 144.77 C 179.95 144.32 180.29 143.24 179.84 142.36 L 179.41 141.51 C 178.96 140.63 177.88 140.28 177.00 140.73 C 176.11 141.18 175.77 142.26 176.22 143.14 Z M 176.62 143.85 L 176.99 144.74 C 177.36 145.65 178.39 146.08 179.29 145.71 C 180.19 145.34 180.62 144.30 180.25 143.40 L 179.88 142.51 C 179.51 141.61 178.48 141.18 177.58 141.55 C 176.68 141.92 176.25 142.95 176.62 143.85 Z M 176.97 144.63 L 177.29 145.58 C 177.60 146.48 178.59 146.97 179.50 146.66 C 180.41 146.35 180.89 145.36 180.58 144.45 L 180.26 143.51 C 179.95 142.60 178.96 142.12 178.06 142.43 C 177.15 142.74 176.66 143.73 176.97 144.63 Z M 177.30 145.50 L 177.59 146.48 C 177.86 147.38 178.81 147.90 179.72 147.63 C 180.62 147.36 181.14 146.40 180.87 145.50 L 180.58 144.52 C 180.31 143.62 179.35 143.10 178.45 143.37 C 177.54 143.64 177.03 144.60 177.30 145.50 Z M 177.60 146.44 L 177.86 147.38 C 178.11 148.28 179.05 148.80 179.94 148.55 C 180.84 148.30 181.36 147.37 181.11 146.47 L 180.85 145.53 C 180.60 144.63 179.67 144.11 178.77 144.36 C 177.88 144.61 177.35 145.54 177.60 146.44 Z"
      fill="black"
      fill-rule="nonzero" /><path d="M 149.34 113.19 L 149.44 113.96 C 149.56 115.01 150.51 115.75 151.56 115.63 C 152.61 115.50 153.35 114.55 153.23 113.51 L 153.14 112.74 C 153.01 111.69 152.06 110.94 151.02 111.07 C 149.97 111.19 149.22 112.14 149.34 113.19 Z M 149.41 113.95 L 149.51 114.80 C 149.63 115.86 150.59 116.62 151.65 116.50 C 152.71 116.38 153.47 115.42 153.35 114.36 L 153.26 113.51 C 153.13 112.45 152.18 111.69 151.11 111.81 C 150.05 111.93 149.29 112.89 149.41 113.95 Z M 149.48 114.78 L 149.59 115.78 C 149.70 116.85 150.67 117.63 151.74 117.52 C 152.82 117.40 153.60 116.44 153.48 115.36 L 153.38 114.37 C 153.26 113.29 152.30 112.51 151.22 112.63 C 150.15 112.74 149.37 113.71 149.48 114.78 Z M 149.56 115.76 L 149.68 116.98 C 149.79 118.07 150.76 118.86 151.85 118.76 C 152.94 118.65 153.74 117.68 153.63 116.59 L 153.51 115.37 C 153.40 114.28 152.43 113.49 151.34 113.59 C 150.25 113.70 149.45 114.67 149.56 115.76 Z M 149.66 116.97 L 149.76 118.06 C 149.87 119.16 150.84 119.97 151.94 119.87 C 153.04 119.76 153.85 118.79 153.75 117.69 L 153.65 116.60 C 153.55 115.50 152.57 114.69 151.47 114.79 C 150.37 114.89 149.56 115.87 149.66 116.97 Z M 149.76 118.05 L 149.85 119.02 C 149.94 120.12 150.92 120.94 152.02 120.84 C 153.12 120.74 153.94 119.77 153.84 118.66 L 153.75 117.70 C 153.66 116.59 152.68 115.78 151.58 115.88 C 150.48 115.98 149.66 116.95 149.76 118.05 Z M 149.84 119.02 L 149.93 120.05 C 150.03 121.15 151.00 121.97 152.11 121.87 C 153.21 121.78 154.03 120.80 153.93 119.70 L 153.84 118.67 C 153.75 117.57 152.77 116.75 151.67 116.84 C 150.57 116.94 149.75 117.91 149.84 119.02 Z M 149.93 120.04 L 150.02 121.10 C 150.12 122.21 151.09 123.03 152.19 122.93 C 153.30 122.84 154.11 121.87 154.02 120.77 L 153.93 119.70 C 153.84 118.60 152.87 117.78 151.76 117.87 C 150.66 117.97 149.84 118.94 149.93 120.04 Z M 150.02 121.10 L 150.11 122.16 C 150.20 123.27 151.17 124.09 152.27 124.00 C 153.38 123.91 154.20 122.94 154.11 121.83 L 154.02 120.77 C 153.93 119.67 152.96 118.84 151.86 118.94 C 150.75 119.03 149.93 120.00 150.02 121.10 Z M 150.11 122.16 L 150.19 123.19 C 150.28 124.30 151.25 125.12 152.35 125.03 C 153.46 124.94 154.28 123.98 154.19 122.87 L 154.11 121.84 C 154.02 120.73 153.05 119.91 151.95 120.00 C 150.84 120.09 150.02 121.05 150.11 122.16 Z M 150.19 123.19 L 150.27 124.16 C 150.35 125.27 151.32 126.09 152.42 126.01 C 153.53 125.92 154.36 124.95 154.27 123.85 L 154.19 122.88 C 154.11 121.77 153.14 120.94 152.04 121.03 C 150.93 121.12 150.11 122.08 150.19 123.19 Z M 150.27 124.15 L 150.34 125.14 C 150.42 126.25 151.39 127.08 152.49 126.99 C 153.60 126.91 154.43 125.95 154.34 124.84 L 154.27 123.85 C 154.19 122.75 153.22 121.92 152.12 122.00 C 151.01 122.08 150.18 123.05 150.27 124.15 Z M 150.34 125.13 L 150.43 126.41 C 150.50 127.52 151.46 128.35 152.57 128.28 C 153.68 128.20 154.51 127.24 154.43 126.14 L 154.35 124.85 C 154.27 123.75 153.31 122.91 152.20 122.99 C 151.10 123.06 150.26 124.02 150.34 125.13 Z M 150.43 126.40 L 150.49 127.42 C 150.56 128.52 151.51 129.37 152.62 129.30 C 153.73 129.23 154.57 128.27 154.50 127.17 L 154.43 126.15 C 154.37 125.04 153.41 124.20 152.31 124.27 C 151.20 124.34 150.36 125.29 150.43 126.40 Z M 150.49 127.41 L 150.54 128.26 C 150.60 129.36 151.55 130.21 152.66 130.15 C 153.77 130.08 154.61 129.13 154.55 128.02 L 154.50 127.18 C 154.43 126.07 153.49 125.22 152.38 125.29 C 151.27 125.35 150.43 126.30 150.49 127.41 Z M 150.54 128.26 L 150.58 129.03 C 150.65 130.14 151.60 130.98 152.71 130.91 C 153.81 130.85 154.66 129.90 154.59 128.79 L 154.55 128.02 C 154.48 126.92 153.53 126.07 152.42 126.14 C 151.32 126.20 150.47 127.15 150.54 128.26 Z M 150.59 129.04 L 150.65 130.00 C 150.72 131.11 151.68 131.95 152.79 131.87 C 153.89 131.80 154.73 130.84 154.66 129.74 L 154.59 128.78 C 154.52 127.67 153.56 126.83 152.46 126.91 C 151.35 126.98 150.51 127.94 150.59 129.04 Z M 150.65 130.01 L 150.72 131.00 C 150.80 132.10 151.75 132.94 152.86 132.86 C 153.97 132.78 154.80 131.83 154.72 130.72 L 154.65 129.73 C 154.58 128.62 153.62 127.79 152.51 127.87 C 151.41 127.94 150.57 128.90 150.65 130.01 Z M 150.72 130.99 L 150.79 132.01 C 150.86 133.12 151.81 133.96 152.92 133.88 C 154.03 133.81 154.86 132.86 154.79 131.75 L 154.72 130.73 C 154.65 129.62 153.70 128.78 152.59 128.86 C 151.48 128.93 150.65 129.88 150.72 130.99 Z M 150.79 131.99 L 150.84 132.99 C 150.90 134.10 151.85 134.94 152.95 134.88 C 154.06 134.82 154.91 133.87 154.85 132.77 L 154.79 131.77 C 154.73 130.66 153.78 129.82 152.68 129.88 C 151.57 129.94 150.72 130.88 150.79 131.99 Z M 150.84 132.97 L 150.89 133.96 C 150.94 135.07 151.87 135.92 152.98 135.87 C 154.09 135.82 154.94 134.88 154.89 133.78 L 154.85 132.79 C 154.80 131.68 153.86 130.83 152.75 130.88 C 151.65 130.93 150.79 131.86 150.84 132.97 Z M 150.89 133.95 L 150.93 134.96 C 150.97 136.06 151.90 136.92 153.01 136.88 C 154.11 136.84 154.97 135.90 154.93 134.80 L 154.89 133.79 C 154.85 132.69 153.92 131.82 152.81 131.87 C 151.70 131.91 150.84 132.84 150.89 133.95 Z M 150.93 134.95 L 150.96 135.97 C 151.00 137.07 151.93 137.93 153.04 137.89 C 154.14 137.85 155.01 136.93 154.97 135.82 L 154.93 134.80 C 154.89 133.70 153.96 132.84 152.86 132.88 C 151.75 132.92 150.89 133.84 150.93 134.95 Z M 150.96 135.97 L 151.00 136.95 C 151.04 138.06 151.97 138.92 153.07 138.88 C 154.18 138.84 155.04 137.91 155.00 136.81 L 154.97 135.82 C 154.93 134.72 154.00 133.85 152.89 133.89 C 151.79 133.93 150.92 134.86 150.96 135.97 Z M 151.00 136.96 L 151.04 137.95 C 151.08 139.06 152.01 139.92 153.12 139.87 C 154.22 139.83 155.08 138.90 155.04 137.80 L 155.00 136.81 C 154.96 135.70 154.03 134.84 152.92 134.88 C 151.82 134.93 150.96 135.85 151.00 136.96 Z M 151.04 137.96 L 151.08 138.96 C 151.13 140.07 152.06 140.92 153.17 140.87 C 154.27 140.83 155.13 139.89 155.08 138.79 L 155.04 137.79 C 154.99 136.69 154.06 135.83 152.95 135.88 C 151.85 135.92 150.99 136.86 151.04 137.96 Z M 151.09 138.98 L 151.14 139.98 C 151.19 141.08 152.13 141.93 153.23 141.88 C 154.33 141.82 155.18 140.89 155.13 139.78 L 155.08 138.78 C 155.02 137.68 154.08 136.83 152.98 136.88 C 151.88 136.94 151.03 137.87 151.09 138.98 Z M 151.14 139.99 L 151.19 140.97 C 151.25 142.07 152.20 142.91 153.30 142.85 C 154.40 142.79 155.24 141.85 155.18 140.75 L 155.12 139.77 C 155.06 138.67 154.12 137.83 153.02 137.89 C 151.92 137.95 151.08 138.89 151.14 139.99 Z M 151.19 140.98 L 151.25 141.97 C 151.32 143.07 152.26 143.91 153.36 143.85 C 154.46 143.78 155.30 142.84 155.24 141.74 L 155.18 140.74 C 155.11 139.64 154.17 138.80 153.07 138.87 C 151.97 138.93 151.13 139.88 151.19 140.98 Z M 151.25 141.97 L 151.31 142.98 C 151.37 144.08 152.31 144.92 153.41 144.85 C 154.51 144.79 155.35 143.85 155.29 142.75 L 155.23 141.74 C 155.17 140.64 154.23 139.80 153.13 139.86 C 152.03 139.93 151.19 140.87 151.25 141.97 Z M 151.31 142.96 L 151.36 143.98 C 151.42 145.08 152.35 145.92 153.45 145.87 C 154.55 145.81 155.40 144.88 155.34 143.78 L 155.29 142.76 C 155.24 141.67 154.30 140.82 153.20 140.87 C 152.10 140.93 151.26 141.87 151.31 142.96 Z M 151.36 143.96 L 151.41 144.95 C 151.45 146.05 152.38 146.90 153.48 146.85 C 154.58 146.80 155.43 145.87 155.38 144.78 L 155.34 143.79 C 155.29 142.69 154.37 141.84 153.27 141.89 C 152.17 141.94 151.32 142.86 151.36 143.96 Z M 151.41 144.94 L 151.44 145.93 C 151.48 147.03 152.41 147.89 153.50 147.85 C 154.60 147.80 155.46 146.88 155.42 145.78 L 155.38 144.79 C 155.34 143.69 154.42 142.83 153.32 142.87 C 152.22 142.91 151.37 143.84 151.41 144.94 Z M 151.44 145.92 L 151.48 146.93 C 151.51 148.03 152.43 148.89 153.53 148.85 C 154.63 148.81 155.49 147.90 155.45 146.80 L 155.42 145.79 C 155.38 144.69 154.46 143.83 153.37 143.87 C 152.27 143.91 151.41 144.83 151.44 145.92 Z M 151.48 146.93 L 151.51 147.94 C 151.55 149.04 152.46 149.90 153.56 149.87 C 154.65 149.83 155.52 148.92 155.48 147.82 L 155.45 146.80 C 155.42 145.71 154.50 144.85 153.40 144.88 C 152.31 144.91 151.45 145.83 151.48 146.93 Z M 151.51 147.94 L 151.54 148.92 C 151.58 150.02 152.49 150.88 153.59 150.85 C 154.68 150.81 155.54 149.90 155.51 148.80 L 155.48 147.82 C 155.45 146.72 154.53 145.86 153.44 145.90 C 152.34 145.93 151.48 146.85 151.51 147.94 Z M 151.54 148.92 L 151.57 149.92 C 151.61 151.01 152.52 151.87 153.62 151.84 C 154.71 151.80 155.57 150.89 155.54 149.80 L 155.51 148.80 C 155.48 147.71 154.56 146.85 153.47 146.88 C 152.37 146.92 151.51 147.83 151.54 148.92 Z M 151.58 149.92 L 151.61 150.92 C 151.64 152.01 152.55 152.87 153.65 152.84 C 154.74 152.80 155.60 151.89 155.57 150.80 L 155.54 149.80 C 155.50 148.70 154.59 147.84 153.50 147.88 C 152.40 147.91 151.54 148.82 151.58 149.92 Z M 151.61 150.92 L 151.64 151.93 C 151.67 153.02 152.58 153.88 153.68 153.85 C 154.77 153.82 155.63 152.90 155.60 151.81 L 155.57 150.80 C 155.53 149.71 154.62 148.85 153.53 148.88 C 152.43 148.91 151.58 149.82 151.61 150.92 Z M 151.64 151.93 L 151.67 152.91 C 151.70 154.00 152.61 154.86 153.70 154.83 C 154.80 154.80 155.65 153.89 155.62 152.79 L 155.59 151.81 C 155.56 150.72 154.65 149.86 153.56 149.89 C 152.47 149.93 151.61 150.84 151.64 151.93 Z M 151.67 152.91 L 151.70 153.88 C 151.73 154.97 152.64 155.83 153.73 155.80 C 154.82 155.77 155.68 154.86 155.65 153.76 L 155.62 152.80 C 155.59 151.70 154.68 150.85 153.59 150.88 C 152.50 150.91 151.64 151.82 151.67 152.91 Z M 151.70 153.88 L 151.73 154.87 C 151.76 155.96 152.67 156.82 153.76 156.79 C 154.85 156.75 155.71 155.85 155.68 154.76 L 155.65 153.77 C 155.62 152.68 154.71 151.82 153.62 151.85 C 152.53 151.88 151.67 152.79 151.70 153.88 Z M 151.73 154.87 L 151.76 155.88 C 151.79 156.97 152.69 157.83 153.78 157.80 C 154.87 157.77 155.73 156.86 155.70 155.77 L 155.67 154.76 C 155.64 153.67 154.74 152.81 153.65 152.84 C 152.56 152.87 151.70 153.78 151.73 154.87 Z M 151.76 155.88 L 151.79 156.92 C 151.82 158.01 152.72 158.87 153.81 158.84 C 154.90 158.81 155.76 157.90 155.73 156.82 L 155.70 155.77 C 155.67 154.68 154.77 153.82 153.68 153.85 C 152.59 153.88 151.73 154.79 151.76 155.88 Z M 151.79 156.92 L 151.81 157.92 C 151.84 159.00 152.75 159.86 153.84 159.83 C 154.92 159.81 155.78 158.90 155.75 157.81 L 155.73 156.82 C 155.70 155.73 154.79 154.87 153.71 154.90 C 152.62 154.93 151.76 155.83 151.79 156.92 Z M 151.82 157.91 L 151.84 158.92 C 151.87 160.00 152.77 160.86 153.86 160.84 C 154.95 160.81 155.80 159.90 155.78 158.82 L 155.75 157.81 C 155.72 156.73 154.82 155.87 153.73 155.90 C 152.65 155.92 151.79 156.83 151.82 157.91 Z M 151.84 158.92 L 151.87 159.93 C 151.90 161.02 152.80 161.87 153.88 161.85 C 154.97 161.82 155.83 160.92 155.80 159.83 L 155.78 158.82 C 155.75 157.73 154.85 156.87 153.76 156.90 C 152.67 156.93 151.82 157.83 151.84 158.92 Z M 151.87 159.93 L 151.90 160.94 C 151.92 162.02 152.83 162.88 153.91 162.85 C 155.00 162.82 155.85 161.92 155.82 160.84 L 155.80 159.83 C 155.77 158.75 154.87 157.89 153.79 157.92 C 152.70 157.94 151.84 158.84 151.87 159.93 Z M 151.90 160.94 L 151.92 161.93 C 151.95 163.02 152.85 163.87 153.94 163.84 C 155.02 163.82 155.88 162.92 155.85 161.83 L 155.82 160.84 C 155.79 159.75 154.89 158.90 153.81 158.93 C 152.73 158.95 151.87 159.86 151.90 160.94 Z M 151.93 161.93 L 151.95 162.95 C 151.98 164.04 152.88 164.89 153.97 164.86 C 155.05 164.83 155.90 163.93 155.87 162.85 L 155.85 161.83 C 155.82 160.75 154.92 159.89 153.83 159.92 C 152.75 159.95 151.90 160.85 151.93 161.93 Z M 151.96 162.96 L 151.98 163.97 C 152.01 165.05 152.91 165.91 153.99 165.88 C 155.08 165.85 155.93 164.95 155.90 163.86 L 155.87 162.85 C 155.84 161.77 154.94 160.91 153.86 160.94 C 152.78 160.97 151.93 161.87 151.96 162.96 Z M 151.98 163.97 L 152.01 164.97 C 152.04 166.05 152.94 166.90 154.02 166.87 C 155.10 166.84 155.95 165.94 155.92 164.86 L 155.90 163.86 C 155.87 162.78 154.97 161.93 153.89 161.96 C 152.81 161.99 151.95 162.89 151.98 163.97 Z M 152.01 164.97 L 152.04 165.95 C 152.07 167.03 152.97 167.88 154.05 167.85 C 155.13 167.82 155.98 166.92 155.95 165.84 L 155.92 164.86 C 155.89 163.78 154.99 162.93 153.91 162.96 C 152.83 162.99 151.98 163.89 152.01 164.97 Z M 152.04 165.95 L 152.07 166.93 C 152.10 168.01 153.00 168.86 154.08 168.83 C 155.16 168.80 156.01 167.90 155.98 166.82 L 155.95 165.84 C 155.92 164.76 155.02 163.91 153.94 163.94 C 152.86 163.97 152.01 164.87 152.04 165.95 Z M 152.07 166.93 L 152.10 167.93 C 152.13 169.01 153.03 169.86 154.11 169.83 C 155.18 169.80 156.03 168.90 156.00 167.82 L 155.97 166.82 C 155.94 165.74 155.05 164.90 153.97 164.93 C 152.89 164.96 152.04 165.85 152.07 166.93 Z M 152.10 167.93 L 152.13 168.94 C 152.16 170.02 153.06 170.86 154.13 170.83 C 155.21 170.80 156.06 169.91 156.03 168.83 L 156.00 167.82 C 155.97 166.75 155.07 165.90 154.00 165.93 C 152.92 165.96 152.07 166.86 152.10 167.93 Z M 152.13 168.94 L 152.16 169.95 C 152.19 171.02 153.09 171.87 154.16 171.84 C 155.24 171.81 156.08 170.91 156.05 169.84 L 156.03 168.83 C 156.00 167.76 155.10 166.91 154.03 166.94 C 152.95 166.97 152.10 167.87 152.13 168.94 Z M 152.17 169.95 L 152.19 170.94 C 152.22 172.01 153.12 172.86 154.19 172.83 C 155.27 172.80 156.11 171.90 156.08 170.83 L 156.05 169.84 C 156.02 168.76 155.13 167.92 154.05 167.95 C 152.98 167.98 152.14 168.87 152.17 169.95 Z M 152.20 170.94 L 152.22 171.94 C 152.26 173.01 153.15 173.85 154.22 173.82 C 155.29 173.79 156.14 172.90 156.11 171.82 L 156.08 170.83 C 156.05 169.76 155.15 168.91 154.08 168.94 C 153.01 168.98 152.17 169.87 152.20 170.94 Z M 152.23 171.94 L 152.26 172.96 C 152.29 174.03 153.18 174.87 154.25 174.84 C 155.32 174.81 156.17 173.92 156.13 172.85 L 156.10 171.82 C 156.07 170.75 155.18 169.91 154.11 169.94 C 153.04 169.97 152.20 170.87 152.23 171.94 Z M 152.26 172.96 L 152.29 173.97 C 152.32 175.04 153.21 175.88 154.28 175.85 C 155.35 175.82 156.19 174.92 156.16 173.85 L 156.13 172.85 C 156.10 171.78 155.21 170.94 154.14 170.97 C 153.07 171.00 152.23 171.89 152.26 172.96 Z M 152.29 173.97 L 152.32 174.96 C 152.35 176.03 153.25 176.87 154.31 176.84 C 155.38 176.80 156.22 175.91 156.19 174.84 L 156.16 173.85 C 156.13 172.79 155.23 171.95 154.17 171.98 C 153.10 172.01 152.26 172.90 152.29 173.97 Z M 152.32 174.96 L 152.35 175.94 C 152.39 177.00 153.28 177.84 154.35 177.81 C 155.41 177.77 156.25 176.88 156.22 175.82 L 156.19 174.84 C 156.15 173.78 155.26 172.94 154.20 172.97 C 153.13 173.00 152.29 173.90 152.32 174.96 Z M 152.36 175.94 L 152.39 176.95 C 152.42 178.02 153.31 178.86 154.38 178.82 C 155.44 178.79 156.28 177.90 156.25 176.83 L 156.22 175.82 C 156.18 174.75 155.29 173.91 154.23 173.95 C 153.16 173.98 152.32 174.87 152.36 175.94 Z M 152.39 176.96 L 152.42 177.97 C 152.46 179.03 153.35 179.87 154.41 179.84 C 155.48 179.80 156.31 178.91 156.28 177.85 L 156.24 176.83 C 156.21 175.77 155.32 174.93 154.26 174.97 C 153.19 175.00 152.36 175.89 152.39 176.96 Z M 152.43 177.97 L 152.46 178.97 C 152.49 180.03 153.38 180.86 154.45 180.83 C 155.51 180.79 156.34 179.91 156.31 178.84 L 156.27 177.85 C 156.24 176.78 155.35 175.95 154.29 175.98 C 153.22 176.02 152.39 176.91 152.43 177.97 Z M 152.46 178.97 L 152.49 179.94 C 152.53 181.00 153.42 181.84 154.48 181.80 C 155.54 181.77 156.37 180.88 156.34 179.82 L 156.30 178.84 C 156.27 177.78 155.38 176.95 154.32 176.98 C 153.26 177.02 152.43 177.91 152.46 178.97 Z M 152.50 179.94 L 152.53 180.95 C 152.57 182.01 153.45 182.84 154.51 182.80 C 155.57 182.76 156.40 181.88 156.37 180.82 L 156.33 179.81 C 156.30 178.75 155.41 177.92 154.35 177.96 C 153.29 178.00 152.46 178.88 152.50 179.94 Z M 152.53 180.94 L 152.57 181.95 C 152.60 183.01 153.49 183.84 154.55 183.80 C 155.60 183.77 156.43 182.88 156.40 181.82 L 156.37 180.82 C 156.33 179.76 155.44 178.93 154.39 178.97 C 153.33 179.00 152.50 179.89 152.53 180.94 Z M 152.57 181.94 L 152.60 182.93 C 152.63 183.99 153.51 184.82 154.57 184.79 C 155.62 184.76 156.45 183.88 156.42 182.82 L 156.39 181.83 C 156.36 180.77 155.48 179.94 154.43 179.97 C 153.37 180.00 152.54 180.88 152.57 181.94 Z M 152.60 182.92 L 152.62 183.91 C 152.65 184.96 153.52 185.80 154.58 185.78 C 155.63 185.75 156.47 184.88 156.44 183.82 L 156.42 182.83 C 156.40 181.78 155.52 180.94 154.47 180.97 C 153.41 180.99 152.58 181.86 152.60 182.92 Z M 152.63 183.89 L 152.64 184.86 C 152.66 185.91 153.52 186.75 154.57 186.74 C 155.63 186.72 156.47 185.85 156.45 184.80 L 156.44 183.84 C 156.42 182.79 155.56 181.95 154.51 181.96 C 153.45 181.98 152.61 182.84 152.63 183.89 Z M 152.65 184.85 L 152.66 185.83 C 152.67 186.88 153.53 187.72 154.57 187.71 C 155.62 187.70 156.47 186.84 156.46 185.79 L 156.45 184.81 C 156.44 183.76 155.58 182.92 154.53 182.93 C 153.48 182.94 152.64 183.80 152.65 184.85 Z M 152.66 185.83 L 152.67 186.83 C 152.68 187.88 153.54 188.72 154.58 188.71 C 155.63 188.70 156.47 187.84 156.46 186.80 L 156.45 185.79 C 156.44 184.75 155.59 183.90 154.54 183.91 C 153.49 183.92 152.65 184.78 152.66 185.83 Z M 152.68 186.84 L 152.69 187.89 C 152.70 188.93 153.56 189.76 154.60 189.75 C 155.64 189.74 156.48 188.88 156.47 187.84 L 156.45 186.79 C 156.44 185.75 155.59 184.91 154.54 184.93 C 153.50 184.94 152.66 185.80 152.68 186.84 Z M 152.69 187.90 L 152.71 188.84 C 152.73 189.88 153.59 190.71 154.63 190.69 C 155.67 190.67 156.50 189.81 156.48 188.77 L 156.46 187.83 C 156.44 186.79 155.58 185.96 154.54 185.98 C 153.50 186.00 152.68 186.86 152.69 187.90 Z M 152.72 188.85 L 152.74 189.82 C 152.77 190.86 153.63 191.68 154.67 191.65 C 155.71 191.63 156.52 190.76 156.50 189.73 L 156.47 188.76 C 156.45 187.72 155.58 186.90 154.55 186.93 C 153.51 186.95 152.69 187.82 152.72 188.85 Z M 152.75 189.84 L 152.78 190.84 C 152.82 191.88 153.68 192.69 154.72 192.65 C 155.75 192.62 156.56 191.75 156.53 190.72 L 156.49 189.71 C 156.46 188.68 155.59 187.87 154.56 187.90 C 153.52 187.94 152.71 188.80 152.75 189.84 Z M 152.79 190.86 L 152.83 191.90 C 152.88 192.93 153.75 193.73 154.78 193.68 C 155.81 193.64 156.61 192.77 156.56 191.74 L 156.52 190.70 C 156.48 189.67 155.61 188.87 154.58 188.91 C 153.55 188.96 152.74 189.83 152.79 190.86 Z M 152.84 191.92 L 152.90 193.07 C 152.95 194.09 153.83 194.88 154.85 194.83 C 155.88 194.77 156.67 193.90 156.62 192.87 L 156.56 191.72 C 156.50 190.70 155.63 189.91 154.60 189.96 C 153.58 190.01 152.79 190.89 152.84 191.92 Z M 152.91 193.09 L 152.99 194.38 C 153.06 195.40 153.94 196.18 154.96 196.11 C 155.97 196.05 156.75 195.17 156.68 194.15 L 156.60 192.85 C 156.54 191.84 155.66 191.06 154.64 191.13 C 153.62 191.19 152.85 192.07 152.91 193.09 Z M 153.01 194.41 L 153.09 195.51 C 153.17 196.52 154.05 197.28 155.06 197.20 C 156.07 197.13 156.83 196.25 156.75 195.24 L 156.67 194.13 C 156.59 193.12 155.71 192.36 154.70 192.44 C 153.69 192.52 152.93 193.40 153.01 194.41 Z M 153.11 195.56 L 153.19 196.30 C 153.29 197.29 154.18 198.02 155.18 197.93 C 156.18 197.83 156.91 196.94 156.81 195.94 L 156.73 195.20 C 156.63 194.20 155.74 193.47 154.74 193.57 C 153.74 193.67 153.01 194.56 153.11 195.56 Z M 153.37 196.85 L 153.43 196.99 C 153.83 197.89 154.89 198.29 155.79 197.89 C 156.69 197.48 157.09 196.43 156.69 195.53 L 156.63 195.39 C 156.22 194.48 155.17 194.08 154.27 194.49 C 153.37 194.89 152.96 195.95 153.37 196.85 Z M 156.79 196.31 L 156.81 195.38 C 156.84 194.43 156.09 193.63 155.13 193.60 C 154.18 193.58 153.39 194.33 153.36 195.28 L 153.33 196.21 C 153.31 197.16 154.06 197.96 155.01 197.98 C 155.96 198.01 156.76 197.26 156.79 196.31 Z M 156.75 195.33 L 156.75 194.29 C 156.75 193.37 156.01 192.62 155.09 192.62 C 154.17 192.62 153.43 193.36 153.42 194.28 L 153.42 195.33 C 153.42 196.25 154.16 196.99 155.08 196.99 C 156.00 197.00 156.75 196.25 156.75 195.33 Z"
      fill="black"
      fill-rule="nonzero" /></svg>