<svg xmlns="http://www.w3.org/2000/svg" width="300" height="300" viewBox="0 0 300 300">
<path d="M 136.74 106.53 L 137.72 106.53 C 138.70 106.52 139.50 105.72 139.50 104.73 C 139.50 103.74 138.70 102.94 137.71 102.95 L 136.73 102.95 C 135.74 102.95 134.94 103.75 134.94 104.74 C 134.94 105.73 135.75 106.53 136.74 106.53 Z M 137.74 106.53 L 138.73 106.51 C 139.72 106.50 140.51 105.69 140.50 104.70 C 140.48 103.71 139.67 102.92 138.68 102.93 L 137.69 102.94 C 136.70 102.96 135.91 103.77 135.92 104.76 C 135.93 105.75 136.75 106.54 137.74 106.53 Z M 138.77 106.52 L 139.79 106.48 C 140.78 106.44 141.55 105.61 141.52 104.62 C 141.48 103.63 140.65 102.86 139.66 102.89 L 138.64 102.93 C 137.65 102.97 136.88 103.80 136.91 104.79 C 136.95 105.78 137.78 106.55 138.77 106.52 Z M 139.84 106.48 L 140.79 106.42 C 141.78 106.35 142.53 105.50 142.46 104.51 C 142.40 103.52 141.54 102.77 140.55 102.83 L 139.60 102.89 C 138.62 102.96 137.86 103.81 137.93 104.80 C 137.99 105.79 138.85 106.54 139.84 106.48 Z M 140.83 106.41 L 141.78 106.33 C 142.77 106.25 143.50 105.37 143.42 104.39 C 143.33 103.40 142.46 102.67 141.47 102.75 L 140.51 102.83 C 139.53 102.92 138.79 103.79 138.88 104.78 C 138.97 105.77 139.84 106.50 140.83 106.41 Z M 141.80 106.33 L 142.81 106.23 C 143.80 106.14 144.52 105.26 144.42 104.27 C 144.33 103.28 143.45 102.56 142.46 102.66 L 141.45 102.75 C 140.46 102.85 139.74 103.73 139.84 104.71 C 139.93 105.70 140.81 106.43 141.80 106.33 Z M 142.81 106.23 L 143.89 106.13 C 144.88 106.03 145.60 105.15 145.50 104.16 C 145.41 103.18 144.53 102.45 143.54 102.55 L 142.46 102.66 C 141.47 102.75 140.75 103.63 140.85 104.62 C 140.94 105.61 141.82 106.33 142.81 106.23 Z M 143.88 106.13 L 144.88 106.04 C 145.87 105.94 146.59 105.07 146.50 104.08 C 146.41 103.09 145.53 102.37 144.55 102.46 L 143.55 102.55 C 142.56 102.64 141.83 103.52 141.93 104.50 C 142.02 105.49 142.89 106.22 143.88 106.13 Z M 144.87 106.04 L 145.90 105.94 C 146.89 105.85 147.61 104.98 147.53 103.99 C 147.44 103.00 146.56 102.27 145.57 102.36 L 144.55 102.46 C 143.56 102.55 142.83 103.42 142.92 104.41 C 143.01 105.40 143.88 106.12 144.87 106.04 Z M 145.90 105.94 L 146.91 105.85 C 147.90 105.76 148.63 104.89 148.54 103.90 C 148.45 102.91 147.58 102.18 146.59 102.27 L 145.57 102.36 C 144.58 102.45 143.86 103.33 143.95 104.32 C 144.04 105.30 144.91 106.03 145.90 105.94 Z M 146.92 105.85 L 147.89 105.76 C 148.88 105.66 149.60 104.79 149.51 103.80 C 149.41 102.81 148.54 102.09 147.55 102.18 L 146.58 102.27 C 145.59 102.37 144.87 103.24 144.96 104.23 C 145.06 105.22 145.93 105.94 146.92 105.85 Z M 147.91 105.75 L 148.92 105.65 C 149.91 105.55 150.62 104.66 150.52 103.68 C 150.42 102.69 149.53 101.97 148.55 102.08 L 147.53 102.18 C 146.55 102.29 145.83 103.17 145.93 104.16 C 146.04 105.14 146.92 105.86 147.91 105.75 Z M 148.94 105.64 L 149.92 105.53 C 150.90 105.42 151.61 104.53 151.49 103.54 C 151.38 102.56 150.49 101.85 149.51 101.97 L 148.53 102.08 C 147.54 102.19 146.84 103.08 146.95 104.07 C 147.06 105.05 147.95 105.76 148.94 105.64 Z M 149.93 105.53 L 150.89 105.41 C 151.87 105.29 152.57 104.39 152.45 103.41 C 152.33 102.43 151.43 101.73 150.45 101.85 L 149.49 101.97 C 148.51 102.09 147.81 102.99 147.94 103.97 C 148.06 104.95 148.95 105.65 149.93 105.53 Z M 150.89 105.41 L 151.88 105.28 C 152.86 105.16 153.56 104.26 153.44 103.28 C 153.31 102.30 152.42 101.61 151.44 101.73 L 150.45 101.86 C 149.47 101.98 148.78 102.87 148.90 103.85 C 149.02 104.83 149.91 105.53 150.89 105.41 Z M 151.88 105.28 L 152.83 105.16 C 153.81 105.04 154.51 104.15 154.39 103.17 C 154.27 102.19 153.38 101.50 152.40 101.62 L 151.44 101.74 C 150.46 101.86 149.77 102.75 149.89 103.73 C 150.01 104.70 150.90 105.40 151.88 105.28 Z M 152.83 105.16 L 153.83 105.04 C 154.81 104.92 155.50 104.04 155.39 103.06 C 155.27 102.08 154.39 101.38 153.41 101.50 L 152.41 101.62 C 151.43 101.74 150.73 102.62 150.85 103.60 C 150.96 104.58 151.85 105.28 152.83 105.16 Z M 153.82 105.04 L 154.84 104.92 C 155.81 104.82 156.52 103.93 156.41 102.96 C 156.30 101.98 155.42 101.28 154.44 101.39 L 153.42 101.50 C 152.44 101.61 151.74 102.49 151.85 103.47 C 151.96 104.45 152.84 105.15 153.82 105.04 Z M 154.82 104.92 L 155.84 104.82 C 156.81 104.72 157.52 103.84 157.42 102.87 C 157.32 101.89 156.45 101.18 155.47 101.28 L 154.46 101.39 C 153.48 101.49 152.77 102.36 152.87 103.34 C 152.97 104.31 153.84 105.02 154.82 104.92 Z M 155.79 104.82 L 156.93 104.73 C 157.90 104.65 158.63 103.80 158.56 102.82 C 158.48 101.85 157.63 101.12 156.65 101.19 L 155.52 101.28 C 154.54 101.36 153.81 102.21 153.89 103.19 C 153.96 104.17 154.82 104.90 155.79 104.82 Z M 156.77 104.73 L 157.80 104.74 C 158.77 104.75 159.57 103.96 159.58 102.99 C 159.59 102.01 158.80 101.21 157.83 101.20 L 156.80 101.20 C 155.83 101.19 155.03 101.97 155.02 102.95 C 155.01 103.92 155.80 104.72 156.77 104.73 Z M 157.46 104.70 L 158.33 104.87 C 159.28 105.07 160.21 104.46 160.41 103.50 C 160.60 102.55 159.99 101.62 159.04 101.42 L 158.17 101.25 C 157.21 101.05 156.28 101.66 156.09 102.62 C 155.89 103.57 156.51 104.50 157.46 104.70 Z M 157.72 104.62 L 158.45 105.09 C 159.26 105.62 160.35 105.40 160.88 104.59 C 161.41 103.78 161.18 102.69 160.37 102.16 L 159.64 101.68 C 158.83 101.15 157.75 101.38 157.22 102.19 C 156.69 103.00 156.91 104.09 157.72 104.62 Z M 157.89 104.48 L 158.35 105.29 C 158.82 106.13 159.88 106.43 160.72 105.96 C 161.56 105.49 161.86 104.43 161.39 103.59 L 160.93 102.77 C 160.46 101.94 159.40 101.64 158.56 102.11 C 157.72 102.58 157.42 103.64 157.89 104.48 Z M 158.15 104.62 L 158.26 105.66 C 158.36 106.61 159.21 107.30 160.16 107.20 C 161.10 107.10 161.79 106.25 161.69 105.31 L 161.58 104.26 C 161.49 103.32 160.64 102.63 159.69 102.73 C 158.74 102.83 158.06 103.67 158.15 104.62 Z M 158.29 105.17 L 158.12 106.09 C 157.95 107.02 158.57 107.91 159.50 108.08 C 160.43 108.25 161.32 107.64 161.49 106.71 L 161.66 105.80 C 161.83 104.87 161.22 103.97 160.29 103.80 C 159.36 103.63 158.47 104.24 158.29 105.17 Z M 158.21 105.80 L 157.89 106.65 C 157.56 107.53 158.00 108.52 158.89 108.85 C 159.77 109.18 160.75 108.74 161.09 107.85 L 161.41 107.00 C 161.74 106.12 161.29 105.13 160.41 104.80 C 159.53 104.47 158.54 104.91 158.21 105.80 Z M 157.97 106.47 L 157.51 107.37 C 157.08 108.20 157.41 109.23 158.24 109.66 C 159.08 110.09 160.11 109.77 160.54 108.93 L 161.00 108.03 C 161.43 107.20 161.10 106.17 160.27 105.74 C 159.43 105.31 158.40 105.63 157.97 106.47 Z M 157.58 107.25 L 157.00 108.18 C 156.50 108.98 156.75 110.03 157.54 110.52 C 158.34 111.02 159.39 110.78 159.88 109.98 L 160.47 109.05 C 160.96 108.25 160.72 107.20 159.92 106.71 C 159.13 106.21 158.08 106.45 157.58 107.25 Z M 157.05 108.11 L 156.45 108.96 C 155.92 109.73 156.10 110.79 156.87 111.33 C 157.63 111.86 158.69 111.68 159.23 110.91 L 159.83 110.06 C 160.37 109.29 160.18 108.23 159.42 107.69 C 158.65 107.16 157.59 107.34 157.05 108.11 Z M 156.49 108.91 L 155.93 109.65 C 155.37 110.40 155.51 111.46 156.26 112.03 C 157.01 112.59 158.07 112.45 158.63 111.70 L 159.20 110.96 C 159.76 110.21 159.61 109.15 158.87 108.58 C 158.12 108.02 157.06 108.17 156.49 108.91 Z M 155.96 109.62 L 155.35 110.37 C 154.77 111.10 154.89 112.17 155.62 112.76 C 156.35 113.34 157.41 113.22 158.00 112.49 L 158.61 111.74 C 159.19 111.01 159.07 109.94 158.34 109.35 C 157.61 108.77 156.54 108.89 155.96 109.62 Z M 155.38 110.34 L 154.73 111.11 C 154.13 111.83 154.22 112.90 154.94 113.50 C 155.65 114.10 156.72 114.01 157.33 113.29 L 157.97 112.52 C 158.58 111.81 158.48 110.74 157.77 110.14 C 157.05 109.53 155.98 109.63 155.38 110.34 Z M 154.75 111.09 L 154.07 111.87 C 153.45 112.58 153.52 113.65 154.22 114.26 C 154.93 114.88 156.00 114.81 156.62 114.11 L 157.30 113.32 C 157.92 112.62 157.85 111.55 157.15 110.93 C 156.44 110.31 155.37 110.38 154.75 111.09 Z M 154.09 111.85 L 153.36 112.65 C 152.73 113.34 152.78 114.41 153.48 115.04 C 154.17 115.67 155.24 115.62 155.87 114.93 L 156.60 114.13 C 157.23 113.43 157.17 112.36 156.48 111.73 C 155.79 111.10 154.71 111.16 154.09 111.85 Z M 153.38 112.63 L 152.66 113.40 C 152.02 114.08 152.06 115.15 152.74 115.79 C 153.43 116.43 154.50 116.39 155.14 115.71 L 155.86 114.94 C 156.50 114.26 156.46 113.19 155.77 112.55 C 155.09 111.91 154.02 111.95 153.38 112.63 Z M 152.68 113.38 L 151.95 114.14 C 151.31 114.81 151.33 115.89 152.01 116.53 C 152.68 117.18 153.76 117.16 154.40 116.48 L 155.13 115.72 C 155.77 115.05 155.75 113.97 155.07 113.33 C 154.40 112.68 153.32 112.70 152.68 113.38 Z M 151.96 114.13 L 151.24 114.87 C 150.58 115.54 150.60 116.61 151.27 117.27 C 151.94 117.92 153.01 117.91 153.67 117.24 L 154.39 116.49 C 155.05 115.82 155.03 114.75 154.36 114.10 C 153.69 113.44 152.62 113.45 151.96 114.13 Z M 151.25 114.86 L 150.53 115.58 C 149.87 116.25 149.87 117.32 150.54 117.98 C 151.20 118.64 152.28 118.64 152.94 117.97 L 153.66 117.25 C 154.31 116.58 154.31 115.51 153.65 114.85 C 152.98 114.19 151.91 114.20 151.25 114.86 Z M 150.54 115.57 L 149.84 116.26 C 149.18 116.92 149.17 118.00 149.83 118.66 C 150.49 119.33 151.57 119.33 152.23 118.67 L 152.93 117.98 C 153.59 117.32 153.60 116.25 152.94 115.58 C 152.28 114.92 151.20 114.91 150.54 115.57 Z M 149.85 116.26 L 149.19 116.90 C 148.52 117.55 148.51 118.63 149.16 119.30 C 149.82 119.97 150.89 119.98 151.56 119.33 L 152.22 118.68 C 152.89 118.03 152.91 116.95 152.25 116.28 C 151.60 115.61 150.52 115.60 149.85 116.26 Z M 149.20 116.89 L 148.43 117.63 C 147.76 118.28 147.74 119.35 148.39 120.03 C 149.04 120.70 150.11 120.72 150.79 120.07 L 151.55 119.34 C 152.23 118.69 152.25 117.61 151.60 116.94 C 150.95 116.26 149.88 116.24 149.20 116.89 Z M 148.45 117.61 L 147.69 118.33 C 147.00 118.97 146.97 120.04 147.61 120.73 C 148.26 121.41 149.33 121.44 150.01 120.80 L 150.77 120.09 C 151.46 119.44 151.49 118.37 150.85 117.69 C 150.20 117.00 149.13 116.97 148.45 117.61 Z M 147.70 118.31 L 146.99 118.97 C 146.30 119.60 146.25 120.68 146.89 121.37 C 147.53 122.06 148.60 122.10 149.29 121.47 L 150.00 120.81 C 150.69 120.18 150.74 119.10 150.10 118.41 C 149.47 117.72 148.39 117.68 147.70 118.31 Z M 147.00 118.96 L 146.31 119.58 C 145.61 120.21 145.56 121.29 146.19 121.98 C 146.82 122.68 147.89 122.74 148.59 122.10 L 149.28 121.48 C 149.98 120.85 150.03 119.77 149.40 119.08 C 148.77 118.38 147.70 118.33 147.00 118.96 Z M 146.31 119.58 L 145.60 120.21 C 144.90 120.84 144.84 121.91 145.47 122.61 C 146.10 123.31 147.17 123.37 147.87 122.75 L 148.58 122.11 C 149.28 121.48 149.34 120.41 148.72 119.71 C 148.09 119.01 147.01 118.95 146.31 119.58 Z M 145.61 120.21 L 144.86 120.87 C 144.16 121.50 144.09 122.57 144.72 123.28 C 145.34 123.98 146.42 124.04 147.12 123.42 L 147.87 122.75 C 148.57 122.13 148.64 121.05 148.01 120.35 C 147.39 119.64 146.31 119.58 145.61 120.21 Z M 144.86 120.87 L 144.10 121.54 C 143.39 122.16 143.33 123.24 143.95 123.95 C 144.57 124.65 145.65 124.72 146.36 124.10 L 147.12 123.42 C 147.82 122.80 147.89 121.72 147.27 121.02 C 146.65 120.31 145.57 120.24 144.86 120.87 Z M 144.11 121.53 L 143.35 122.19 C 142.64 122.81 142.56 123.89 143.18 124.60 C 143.80 125.31 144.88 125.39 145.59 124.77 L 146.35 124.10 C 147.06 123.48 147.13 122.41 146.51 121.70 C 145.89 120.99 144.82 120.91 144.11 121.53 Z M 143.35 122.19 L 142.61 122.83 C 141.89 123.44 141.81 124.52 142.42 125.24 C 143.04 125.95 144.12 126.03 144.83 125.42 L 145.58 124.78 C 146.30 124.16 146.38 123.08 145.76 122.37 C 145.15 121.65 144.07 121.57 143.35 122.19 Z M 142.61 122.83 L 141.55 123.73 C 140.84 124.35 140.76 125.43 141.37 126.14 C 141.99 126.86 143.07 126.94 143.78 126.32 L 144.83 125.42 C 145.55 124.80 145.63 123.72 145.01 123.01 C 144.40 122.29 143.32 122.21 142.61 122.83 Z M 141.43 123.85 L 140.80 124.52 C 140.15 125.20 140.18 126.28 140.86 126.93 C 141.55 127.58 142.63 127.55 143.28 126.87 L 143.91 126.20 C 144.56 125.52 144.53 124.44 143.84 123.79 C 143.16 123.14 142.08 123.17 141.43 123.85 Z M 140.40 126.20 L 140.50 126.50 C 140.78 127.40 141.74 127.90 142.64 127.62 C 143.54 127.34 144.04 126.38 143.76 125.48 L 143.67 125.18 C 143.39 124.28 142.43 123.78 141.53 124.06 C 140.63 124.34 140.12 125.30 140.40 126.20 Z M 142.24 127.70 L 142.99 127.65 C 143.94 127.59 144.66 126.77 144.59 125.83 C 144.53 124.88 143.72 124.17 142.77 124.23 L 142.02 124.28 C 141.07 124.34 140.36 125.15 140.42 126.10 C 140.48 127.04 141.29 127.76 142.24 127.70 Z M 143.23 127.63 L 144.38 127.39 C 145.32 127.19 145.91 126.28 145.72 125.35 C 145.53 124.42 144.62 123.82 143.69 124.01 L 142.53 124.25 C 141.60 124.44 141.00 125.36 141.20 126.29 C 141.39 127.22 142.30 127.82 143.23 127.63 Z M 144.43 127.38 L 145.65 127.09 C 146.58 126.88 147.16 125.94 146.94 125.01 C 146.72 124.09 145.79 123.51 144.86 123.73 L 143.64 124.02 C 142.71 124.24 142.13 125.17 142.35 126.10 C 142.57 127.03 143.50 127.60 144.43 127.38 Z M 145.64 127.10 L 146.66 126.87 C 147.59 126.66 148.17 125.73 147.96 124.79 C 147.75 123.86 146.82 123.28 145.89 123.49 L 144.87 123.72 C 143.93 123.93 143.35 124.86 143.56 125.80 C 143.78 126.73 144.71 127.32 145.64 127.10 Z M 146.62 126.88 L 147.60 126.68 C 148.54 126.48 149.15 125.56 148.95 124.62 C 148.76 123.68 147.84 123.08 146.90 123.28 L 145.92 123.48 C 144.98 123.67 144.38 124.59 144.57 125.53 C 144.77 126.47 145.69 127.08 146.62 126.88 Z M 147.55 126.69 L 148.50 126.52 C 149.45 126.36 150.08 125.46 149.91 124.51 C 149.75 123.56 148.84 122.93 147.90 123.10 L 146.95 123.26 C 146.00 123.43 145.37 124.33 145.54 125.28 C 145.70 126.22 146.60 126.86 147.55 126.69 Z M 148.42 126.54 L 149.45 126.41 C 150.41 126.29 151.09 125.42 150.97 124.46 C 150.85 123.51 149.98 122.83 149.02 122.95 L 147.98 123.08 C 147.03 123.20 146.35 124.07 146.47 125.03 C 146.59 125.98 147.46 126.66 148.42 126.54 Z M 149.22 126.43 L 150.26 126.44 C 151.22 126.45 152.01 125.68 152.03 124.71 C 152.04 123.75 151.26 122.96 150.30 122.95 L 149.26 122.93 C 148.29 122.92 147.50 123.69 147.49 124.66 C 147.48 125.62 148.25 126.41 149.22 126.43 Z M 149.65 126.32 L 150.49 126.65 C 151.39 126.99 152.40 126.54 152.75 125.64 C 153.09 124.74 152.64 123.73 151.74 123.38 L 150.91 123.06 C 150.01 122.71 149.00 123.16 148.65 124.06 C 148.30 124.96 148.75 125.98 149.65 126.32 Z M 149.70 126.04 L 150.17 126.69 C 150.74 127.47 151.83 127.64 152.61 127.07 C 153.39 126.50 153.57 125.41 153.00 124.63 L 152.53 123.99 C 151.96 123.21 150.87 123.03 150.09 123.60 C 149.31 124.17 149.14 125.26 149.70 126.04 Z M 149.90 126.08 L 150.11 126.91 C 150.34 127.85 151.28 128.41 152.21 128.18 C 153.14 127.95 153.71 127.01 153.48 126.08 L 153.27 125.24 C 153.04 124.31 152.10 123.74 151.17 123.97 C 150.24 124.20 149.67 125.15 149.90 126.08 Z M 150.07 126.63 L 150.15 127.65 C 150.22 128.60 151.05 129.31 152.00 129.24 C 152.95 129.17 153.66 128.34 153.59 127.39 L 153.51 126.37 C 153.44 125.42 152.61 124.71 151.66 124.78 C 150.71 124.85 150.00 125.68 150.07 126.63 Z M 150.16 127.52 L 150.15 128.65 C 150.15 129.60 150.92 130.37 151.86 130.37 C 152.81 130.37 153.58 129.61 153.58 128.66 L 153.58 127.52 C 153.58 126.58 152.82 125.81 151.87 125.81 C 150.93 125.81 150.16 126.57 150.16 127.52 Z M 150.16 128.61 L 150.15 129.24 C 150.12 130.18 150.87 130.96 151.81 130.98 C 152.75 131.01 153.53 130.26 153.55 129.32 L 153.57 128.70 C 153.59 127.76 152.85 126.98 151.91 126.95 C 150.97 126.93 150.19 127.67 150.16 128.61 Z"
      fill="black"
      fill-rule="nonzero" /><path d="M 125.65 143.47 L 124.55 144.23 C 123.75 144.78 123.54 145.88 124.10 146.69 C 124.65 147.50 125.75 147.70 126.56 147.15 L 127.65 146.40 C 128.46 145.84 128.67 144.74 128.11 143.93 C 127.56 143.13 126.46 142.92 125.65 143.47 Z M 124.37 144.32 L 123.64 144.96 C 122.88 145.62 122.80 146.76 123.46 147.51 C 124.11 148.26 125.26 148.34 126.01 147.69 L 126.74 147.05 C 127.49 146.40 127.57 145.25 126.92 144.50 C 126.26 143.75 125.12 143.67 124.37 144.32 Z M 122.99 146.21 L 122.96 146.61 C 122.90 147.62 123.67 148.50 124.68 148.56 C 125.69 148.62 126.57 147.85 126.63 146.84 L 126.66 146.44 C 126.72 145.43 125.95 144.55 124.94 144.49 C 123.93 144.43 123.05 145.19 122.99 146.21 Z M 124.44 148.55 L 125.10 148.67 C 126.11 148.87 127.08 148.21 127.27 147.20 C 127.47 146.20 126.81 145.22 125.80 145.03 L 125.15 144.90 C 124.14 144.70 123.17 145.36 122.97 146.37 C 122.78 147.38 123.44 148.35 124.44 148.55 Z M 125.56 148.71 L 126.66 148.65 C 127.68 148.59 128.47 147.71 128.41 146.68 C 128.36 145.65 127.47 144.87 126.45 144.92 L 125.35 144.99 C 124.32 145.04 123.53 145.93 123.59 146.96 C 123.64 147.98 124.53 148.77 125.56 148.71 Z M 126.86 148.64 L 128.18 148.42 C 129.20 148.25 129.89 147.29 129.73 146.26 C 129.56 145.24 128.59 144.55 127.57 144.72 L 126.25 144.94 C 125.22 145.11 124.53 146.07 124.70 147.09 C 124.87 148.11 125.83 148.81 126.86 148.64 Z M 128.31 148.40 L 129.21 148.18 C 130.22 147.95 130.84 146.93 130.60 145.92 C 130.36 144.91 129.35 144.29 128.34 144.53 L 127.44 144.74 C 126.43 144.98 125.81 145.99 126.05 147.00 C 126.29 148.01 127.30 148.64 128.31 148.40 Z M 129.29 148.16 L 130.21 147.90 C 131.21 147.62 131.79 146.58 131.50 145.58 C 131.21 144.58 130.17 144.00 129.17 144.29 L 128.26 144.55 C 127.26 144.83 126.68 145.87 126.97 146.87 C 127.25 147.87 128.29 148.45 129.29 148.16 Z M 130.27 147.88 L 131.21 147.58 C 132.20 147.26 132.75 146.20 132.43 145.21 C 132.11 144.22 131.05 143.68 130.06 144.00 L 129.11 144.30 C 128.12 144.62 127.58 145.68 127.90 146.67 C 128.22 147.66 129.28 148.20 130.27 147.88 Z M 131.26 147.57 L 132.24 147.22 C 133.22 146.88 133.74 145.81 133.39 144.83 C 133.05 143.84 131.98 143.33 131.00 143.67 L 130.02 144.01 C 129.03 144.35 128.52 145.43 128.86 146.41 C 129.20 147.39 130.27 147.91 131.26 147.57 Z M 132.26 147.22 L 133.28 146.84 C 134.26 146.49 134.77 145.41 134.41 144.43 C 134.06 143.45 132.98 142.95 132.00 143.30 L 130.97 143.68 C 130.00 144.03 129.49 145.11 129.85 146.09 C 130.20 147.07 131.28 147.57 132.26 147.22 Z M 133.29 146.84 L 134.24 146.49 C 135.22 146.13 135.72 145.05 135.36 144.07 C 135.00 143.09 133.91 142.60 132.94 142.96 L 131.99 143.31 C 131.01 143.67 130.51 144.75 130.87 145.73 C 131.23 146.70 132.32 147.20 133.29 146.84 Z M 134.25 146.49 L 135.22 146.13 C 136.19 145.76 136.69 144.68 136.33 143.70 C 135.96 142.73 134.88 142.23 133.90 142.60 L 132.93 142.96 C 131.96 143.32 131.46 144.41 131.82 145.38 C 132.19 146.36 133.27 146.85 134.25 146.49 Z M 135.22 146.12 L 136.19 145.76 C 137.17 145.39 137.66 144.31 137.29 143.33 C 136.93 142.36 135.84 141.87 134.87 142.23 L 133.90 142.60 C 132.92 142.96 132.43 144.05 132.80 145.02 C 133.16 146.00 134.25 146.49 135.22 146.12 Z M 136.20 145.76 L 137.14 145.40 C 138.12 145.03 138.61 143.94 138.24 142.97 C 137.87 142.00 136.78 141.51 135.81 141.88 L 134.86 142.24 C 133.89 142.60 133.40 143.69 133.77 144.66 C 134.14 145.64 135.22 146.13 136.20 145.76 Z M 137.15 145.40 L 138.05 145.05 C 139.02 144.68 139.51 143.59 139.13 142.62 C 138.76 141.65 137.67 141.16 136.70 141.53 L 135.80 141.88 C 134.83 142.25 134.34 143.34 134.72 144.31 C 135.09 145.28 136.18 145.77 137.15 145.40 Z M 138.05 145.05 L 139.00 144.69 C 139.97 144.31 140.45 143.22 140.08 142.25 C 139.71 141.28 138.61 140.80 137.64 141.17 L 136.70 141.54 C 135.73 141.91 135.24 143.00 135.62 143.97 C 135.99 144.94 137.08 145.43 138.05 145.05 Z M 139.01 144.68 L 140.01 144.29 C 140.98 143.91 141.46 142.82 141.09 141.85 C 140.71 140.88 139.61 140.40 138.65 140.78 L 137.64 141.17 C 136.67 141.55 136.19 142.64 136.57 143.61 C 136.94 144.58 138.04 145.06 139.01 144.68 Z M 140.02 144.29 L 140.93 143.93 C 141.90 143.55 142.38 142.45 142.00 141.49 C 141.61 140.52 140.52 140.04 139.55 140.42 L 138.64 140.78 C 137.67 141.16 137.20 142.26 137.58 143.23 C 137.96 144.20 139.05 144.67 140.02 144.29 Z M 140.94 143.93 L 141.80 143.59 C 142.77 143.20 143.24 142.11 142.85 141.14 C 142.47 140.17 141.38 139.70 140.41 140.08 L 139.55 140.42 C 138.58 140.81 138.11 141.90 138.49 142.87 C 138.87 143.84 139.97 144.31 140.94 143.93 Z M 141.80 143.59 L 142.67 143.24 C 143.63 142.86 144.11 141.76 143.72 140.80 C 143.34 139.83 142.24 139.36 141.28 139.74 L 140.41 140.08 C 139.44 140.47 138.97 141.56 139.35 142.53 C 139.73 143.50 140.83 143.97 141.80 143.59 Z M 142.66 143.24 L 143.59 142.88 C 144.56 142.49 145.03 141.40 144.65 140.43 C 144.26 139.46 143.17 138.99 142.20 139.37 L 141.28 139.74 C 140.31 140.12 139.84 141.22 140.22 142.18 C 140.60 143.15 141.70 143.63 142.66 143.24 Z M 143.59 142.88 L 144.52 142.51 C 145.49 142.12 145.96 141.03 145.58 140.06 C 145.20 139.09 144.10 138.62 143.13 139.00 L 142.20 139.37 C 141.23 139.76 140.76 140.85 141.14 141.82 C 141.53 142.79 142.62 143.26 143.59 142.88 Z M 144.53 142.50 L 145.46 142.13 C 146.43 141.74 146.90 140.64 146.51 139.68 C 146.13 138.71 145.03 138.24 144.06 138.63 L 143.13 139.01 C 142.16 139.39 141.69 140.49 142.08 141.46 C 142.47 142.42 143.56 142.89 144.53 142.50 Z M 145.47 142.12 L 146.41 141.75 C 147.37 141.35 147.83 140.25 147.44 139.29 C 147.05 138.33 145.95 137.86 144.99 138.25 L 144.05 138.63 C 143.09 139.03 142.63 140.13 143.02 141.09 C 143.41 142.05 144.51 142.52 145.47 142.12 Z M 146.42 141.74 L 147.35 141.35 C 148.31 140.96 148.76 139.85 148.37 138.89 C 147.97 137.93 146.86 137.48 145.90 137.87 L 144.97 138.26 C 144.01 138.66 143.56 139.76 143.96 140.72 C 144.36 141.68 145.46 142.14 146.42 141.74 Z M 147.36 141.35 L 148.28 140.96 C 149.24 140.55 149.68 139.45 149.28 138.49 C 148.87 137.53 147.77 137.08 146.81 137.49 L 145.89 137.88 C 144.93 138.29 144.49 139.39 144.89 140.35 C 145.30 141.31 146.40 141.75 147.36 141.35 Z M 148.29 140.95 L 149.20 140.56 C 150.16 140.14 150.60 139.03 150.18 138.08 C 149.77 137.13 148.66 136.69 147.71 137.10 L 146.79 137.50 C 145.84 137.91 145.40 139.02 145.82 139.97 C 146.23 140.93 147.34 141.37 148.29 140.95 Z M 149.22 140.55 L 150.12 140.15 C 151.07 139.73 151.50 138.61 151.08 137.66 C 150.66 136.71 149.55 136.29 148.60 136.71 L 147.69 137.11 C 146.74 137.53 146.31 138.64 146.73 139.59 C 147.16 140.54 148.27 140.97 149.22 140.55 Z M 150.14 140.14 L 151.04 139.73 C 151.99 139.31 152.41 138.19 151.98 137.24 C 151.56 136.30 150.44 135.88 149.49 136.30 L 148.59 136.71 C 147.64 137.14 147.22 138.25 147.65 139.20 C 148.07 140.15 149.19 140.57 150.14 140.14 Z M 151.05 139.73 L 151.96 139.32 C 152.90 138.89 153.32 137.77 152.89 136.83 C 152.46 135.88 151.35 135.46 150.40 135.89 L 149.49 136.31 C 148.54 136.74 148.13 137.85 148.56 138.80 C 148.99 139.74 150.10 140.16 151.05 139.73 Z M 151.96 139.32 L 152.87 138.90 C 153.82 138.47 154.24 137.35 153.81 136.41 C 153.38 135.46 152.26 135.05 151.32 135.48 L 150.40 135.89 C 149.46 136.32 149.04 137.44 149.47 138.38 C 149.90 139.33 151.01 139.75 151.96 139.32 Z M 152.87 138.90 L 153.78 138.49 C 154.73 138.06 155.15 136.95 154.72 136.00 C 154.29 135.06 153.18 134.64 152.23 135.06 L 151.32 135.47 C 150.38 135.90 149.96 137.02 150.38 137.96 C 150.81 138.91 151.92 139.33 152.87 138.90 Z M 153.78 138.49 L 154.69 138.08 C 155.64 137.65 156.06 136.54 155.63 135.59 C 155.20 134.65 154.09 134.23 153.14 134.65 L 152.23 135.06 C 151.29 135.49 150.87 136.60 151.29 137.55 C 151.72 138.49 152.83 138.91 153.78 138.49 Z M 154.70 138.07 L 155.61 137.66 C 156.55 137.23 156.97 136.11 156.54 135.17 C 156.11 134.23 154.99 133.81 154.05 134.24 L 153.14 134.66 C 152.20 135.09 151.78 136.20 152.21 137.14 C 152.64 138.09 153.75 138.50 154.70 138.07 Z M 155.62 137.65 L 156.53 137.23 C 157.47 136.79 157.87 135.68 157.44 134.74 C 157.00 133.80 155.89 133.39 154.95 133.83 L 154.04 134.25 C 153.10 134.68 152.69 135.80 153.13 136.74 C 153.57 137.68 154.68 138.09 155.62 137.65 Z M 156.54 137.22 L 157.46 136.78 C 158.39 136.34 158.79 135.22 158.34 134.28 C 157.89 133.35 156.78 132.95 155.84 133.40 L 154.93 133.84 C 154.00 134.28 153.60 135.40 154.05 136.33 C 154.49 137.27 155.61 137.66 156.54 137.22 Z M 157.47 136.77 L 158.37 136.33 C 159.30 135.88 159.69 134.76 159.24 133.83 C 158.78 132.90 157.66 132.52 156.73 132.97 L 155.83 133.41 C 154.90 133.86 154.51 134.98 154.97 135.91 C 155.42 136.84 156.54 137.23 157.47 136.77 Z M 158.38 136.33 L 159.27 135.89 C 160.20 135.43 160.58 134.31 160.13 133.39 C 159.67 132.46 158.55 132.08 157.62 132.53 L 156.73 132.97 C 155.80 133.43 155.42 134.55 155.87 135.48 C 156.33 136.40 157.45 136.79 158.38 136.33 Z M 159.27 135.89 L 160.16 135.45 C 161.09 135.00 161.47 133.88 161.01 132.95 C 160.56 132.02 159.44 131.64 158.51 132.10 L 157.62 132.53 C 156.70 132.99 156.31 134.11 156.77 135.04 C 157.23 135.96 158.35 136.34 159.27 135.89 Z M 160.15 135.45 L 161.05 135.02 C 161.98 134.56 162.36 133.45 161.91 132.52 C 161.46 131.59 160.34 131.21 159.42 131.66 L 158.52 132.10 C 157.59 132.55 157.20 133.67 157.66 134.59 C 158.11 135.52 159.22 135.90 160.15 135.45 Z M 161.04 135.02 L 161.94 134.59 C 162.87 134.14 163.26 133.03 162.81 132.10 C 162.37 131.17 161.25 130.78 160.32 131.23 L 159.43 131.66 C 158.50 132.10 158.11 133.22 158.55 134.14 C 159.00 135.07 160.11 135.46 161.04 135.02 Z M 161.93 134.59 L 162.83 134.16 C 163.76 133.73 164.16 132.61 163.72 131.68 C 163.28 130.75 162.17 130.36 161.24 130.80 L 160.33 131.22 C 159.40 131.66 159.01 132.77 159.45 133.70 C 159.88 134.63 160.99 135.03 161.93 134.59 Z M 162.82 134.17 L 163.70 133.76 C 164.63 133.33 165.04 132.22 164.61 131.29 C 164.18 130.35 163.07 129.95 162.14 130.38 L 161.25 130.79 C 160.32 131.22 159.91 132.33 160.35 133.26 C 160.78 134.19 161.88 134.60 162.82 134.17 Z M 163.69 133.76 L 164.54 133.37 C 165.47 132.95 165.89 131.85 165.46 130.91 C 165.04 129.98 163.94 129.57 163.00 129.99 L 162.15 130.38 C 161.22 130.80 160.80 131.90 161.23 132.84 C 161.65 133.77 162.75 134.19 163.69 133.76 Z M 164.52 133.38 L 165.41 132.98 C 166.35 132.57 166.77 131.47 166.35 130.53 C 165.94 129.60 164.84 129.18 163.91 129.59 L 163.02 129.99 C 162.08 130.40 161.66 131.50 162.07 132.44 C 162.49 133.37 163.59 133.79 164.52 133.38 Z M 165.40 132.99 L 166.35 132.57 C 167.29 132.16 167.71 131.07 167.31 130.13 C 166.90 129.20 165.81 128.77 164.87 129.18 L 163.92 129.59 C 162.98 130.00 162.55 131.09 162.96 132.03 C 163.37 132.96 164.46 133.39 165.40 132.99 Z M 166.33 132.57 L 167.32 132.15 C 168.26 131.75 168.70 130.66 168.30 129.73 C 167.90 128.79 166.81 128.35 165.87 128.75 L 164.88 129.17 C 163.94 129.57 163.51 130.66 163.91 131.60 C 164.31 132.54 165.39 132.98 166.33 132.57 Z M 167.31 132.16 L 168.21 131.78 C 169.15 131.39 169.59 130.30 169.20 129.36 C 168.80 128.42 167.72 127.98 166.78 128.37 L 165.88 128.75 C 164.94 129.14 164.50 130.22 164.89 131.16 C 165.29 132.11 166.37 132.55 167.31 132.16 Z M 168.19 131.79 L 169.12 131.41 C 170.07 131.02 170.52 129.95 170.14 129.00 C 169.75 128.06 168.68 127.60 167.73 127.99 L 166.80 128.37 C 165.85 128.75 165.40 129.83 165.78 130.77 C 166.17 131.72 167.24 132.17 168.19 131.79 Z M 169.10 131.41 L 170.05 131.04 C 171.00 130.67 171.47 129.60 171.10 128.66 C 170.73 127.71 169.66 127.24 168.71 127.61 L 167.76 127.98 C 166.81 128.35 166.34 129.42 166.71 130.37 C 167.08 131.32 168.15 131.78 169.10 131.41 Z M 170.02 131.05 L 170.97 130.70 C 171.93 130.35 172.41 129.29 172.06 128.34 C 171.71 127.38 170.65 126.90 169.70 127.25 L 168.75 127.60 C 167.79 127.95 167.30 129.01 167.65 129.96 C 168.00 130.92 169.06 131.40 170.02 131.05 Z M 170.92 130.72 L 171.87 130.40 C 172.83 130.07 173.35 129.03 173.02 128.07 C 172.70 127.10 171.65 126.59 170.69 126.91 L 169.75 127.23 C 168.78 127.56 168.27 128.60 168.59 129.56 C 168.92 130.53 169.96 131.04 170.92 130.72 Z M 171.81 130.42 L 172.82 130.11 C 173.79 129.82 174.35 128.80 174.06 127.83 C 173.76 126.85 172.74 126.30 171.77 126.59 L 170.75 126.89 C 169.78 127.18 169.23 128.21 169.52 129.18 C 169.81 130.15 170.84 130.71 171.81 130.42 Z M 172.75 130.13 L 173.73 129.88 C 174.71 129.63 175.30 128.63 175.05 127.65 C 174.80 126.67 173.80 126.07 172.82 126.32 L 171.84 126.57 C 170.86 126.82 170.27 127.82 170.52 128.80 C 170.77 129.79 171.77 130.38 172.75 130.13 Z M 173.65 129.90 L 174.61 129.69 C 175.60 129.49 176.23 128.52 176.03 127.53 C 175.82 126.54 174.85 125.90 173.86 126.11 L 172.90 126.31 C 171.91 126.52 171.27 127.49 171.48 128.48 C 171.69 129.47 172.66 130.10 173.65 129.90 Z M 174.53 129.71 L 175.48 129.55 C 176.48 129.39 177.15 128.45 176.99 127.45 C 176.82 126.45 175.88 125.78 174.89 125.94 L 173.94 126.10 C 172.94 126.26 172.27 127.20 172.43 128.20 C 172.59 129.19 173.53 129.87 174.53 129.71 Z M 175.40 129.56 L 176.43 129.44 C 177.43 129.32 178.15 128.41 178.03 127.41 C 177.91 126.41 177.00 125.69 176.00 125.81 L 174.97 125.93 C 173.97 126.05 173.25 126.96 173.37 127.96 C 173.49 128.96 174.40 129.68 175.40 129.56 Z M 176.30 129.44 L 177.38 129.40 C 178.38 129.35 179.16 128.50 179.11 127.49 C 179.07 126.48 178.21 125.71 177.21 125.75 L 176.13 125.80 C 175.13 125.85 174.35 126.70 174.39 127.71 C 174.44 128.71 175.29 129.49 176.30 129.44 Z M 177.14 129.39 L 178.13 129.47 C 179.14 129.56 180.02 128.81 180.10 127.81 C 180.19 126.81 179.44 125.93 178.44 125.84 L 177.45 125.76 C 176.44 125.68 175.56 126.42 175.48 127.42 C 175.39 128.42 176.14 129.30 177.14 129.39 Z M 177.74 129.39 L 178.60 129.66 C 179.55 129.97 180.58 129.44 180.88 128.48 C 181.18 127.52 180.65 126.50 179.70 126.20 L 178.84 125.93 C 177.88 125.62 176.86 126.15 176.56 127.11 C 176.25 128.07 176.78 129.09 177.74 129.39 Z M 178.04 129.37 L 178.71 129.88 C 179.51 130.49 180.65 130.34 181.26 129.54 C 181.86 128.75 181.71 127.61 180.92 127.00 L 180.25 126.49 C 179.45 125.88 178.31 126.03 177.71 126.83 C 177.10 127.62 177.25 128.76 178.04 129.37 Z M 178.29 129.41 L 178.76 130.16 C 179.30 131.01 180.42 131.26 181.26 130.72 C 182.11 130.19 182.36 129.07 181.82 128.22 L 181.34 127.47 C 180.81 126.63 179.69 126.38 178.85 126.91 C 178.00 127.45 177.75 128.57 178.29 129.41 Z M 178.58 129.77 L 178.90 130.72 C 179.22 131.67 180.24 132.17 181.19 131.86 C 182.13 131.54 182.64 130.52 182.32 129.57 L 182.00 128.62 C 181.69 127.68 180.66 127.17 179.72 127.48 C 178.77 127.80 178.26 128.82 178.58 129.77 Z M 178.84 130.47 L 179.04 131.58 C 179.22 132.56 180.16 133.21 181.13 133.03 C 182.11 132.86 182.76 131.92 182.58 130.94 L 182.38 129.83 C 182.21 128.85 181.27 128.20 180.29 128.38 C 179.31 128.55 178.66 129.49 178.84 130.47 Z M 179.03 131.44 L 179.13 132.46 C 179.23 133.45 180.11 134.17 181.10 134.07 C 182.08 133.97 182.80 133.09 182.70 132.10 L 182.60 131.08 C 182.50 130.10 181.62 129.38 180.63 129.48 C 179.65 129.58 178.93 130.46 179.03 131.44 Z M 179.13 132.36 L 179.18 133.36 C 179.22 134.35 180.06 135.11 181.05 135.07 C 182.03 135.02 182.79 134.19 182.75 133.20 L 182.70 132.20 C 182.66 131.21 181.82 130.45 180.83 130.50 C 179.85 130.54 179.09 131.38 179.13 132.36 Z M 179.18 133.26 L 179.17 134.29 C 179.16 135.27 179.95 136.07 180.93 136.08 C 181.92 136.09 182.72 135.31 182.73 134.32 L 182.74 133.30 C 182.75 132.32 181.96 131.51 180.98 131.50 C 180.00 131.49 179.19 132.28 179.18 133.26 Z M 179.18 134.17 L 179.11 135.19 C 179.04 136.16 179.77 137.01 180.74 137.09 C 181.72 137.16 182.57 136.43 182.64 135.45 L 182.72 134.44 C 182.79 133.46 182.06 132.61 181.08 132.54 C 180.11 132.46 179.26 133.20 179.18 134.17 Z M 179.13 135.05 L 178.98 136.03 C 178.83 137.00 179.50 137.90 180.46 138.05 C 181.43 138.19 182.33 137.53 182.47 136.57 L 182.62 135.58 C 182.77 134.62 182.11 133.72 181.14 133.57 C 180.18 133.43 179.28 134.09 179.13 135.05 Z M 179.02 135.87 L 178.77 136.86 C 178.53 137.80 179.10 138.75 180.05 138.99 C 180.99 139.23 181.94 138.66 182.18 137.72 L 182.43 136.73 C 182.67 135.79 182.10 134.83 181.16 134.60 C 180.22 134.36 179.26 134.93 179.02 135.87 Z M 178.84 136.69 L 178.49 137.63 C 178.16 138.54 178.62 139.54 179.53 139.87 C 180.43 140.21 181.44 139.74 181.77 138.84 L 182.12 137.89 C 182.45 136.99 181.99 135.98 181.08 135.65 C 180.17 135.32 179.17 135.78 178.84 136.69 Z M 178.56 137.48 L 178.14 138.38 C 177.73 139.24 178.09 140.28 178.96 140.69 C 179.82 141.10 180.86 140.74 181.27 139.87 L 181.70 138.98 C 182.11 138.11 181.74 137.08 180.88 136.67 C 180.01 136.25 178.98 136.62 178.56 137.48 Z M 178.21 138.27 L 177.72 139.12 C 177.25 139.95 177.53 141.00 178.36 141.47 C 179.19 141.95 180.24 141.66 180.71 140.83 L 181.20 139.98 C 181.67 139.15 181.39 138.10 180.56 137.63 C 179.74 137.15 178.68 137.44 178.21 138.27 Z M 177.78 139.05 L 177.24 139.87 C 176.73 140.67 176.96 141.73 177.75 142.24 C 178.54 142.76 179.61 142.53 180.12 141.74 L 180.66 140.91 C 181.17 140.11 180.94 139.05 180.15 138.54 C 179.35 138.02 178.29 138.25 177.78 139.05 Z M 177.28 139.83 L 176.73 140.63 C 176.19 141.40 176.37 142.46 177.14 143.00 C 177.92 143.54 178.98 143.35 179.52 142.58 L 180.08 141.78 C 180.62 141.01 180.43 139.95 179.66 139.41 C 178.89 138.87 177.82 139.06 177.28 139.83 Z M 176.76 140.59 L 176.17 141.38 C 175.61 142.13 175.76 143.19 176.51 143.75 C 177.26 144.32 178.33 144.16 178.89 143.41 L 179.48 142.62 C 180.04 141.87 179.89 140.80 179.14 140.24 C 178.39 139.68 177.32 139.83 176.76 140.59 Z M 176.21 141.34 L 175.58 142.13 C 175.00 142.86 175.12 143.92 175.85 144.50 C 176.58 145.09 177.65 144.96 178.23 144.23 L 178.85 143.45 C 179.43 142.72 179.31 141.65 178.58 141.07 C 177.85 140.49 176.79 140.61 176.21 141.34 Z M 175.62 142.10 L 174.96 142.88 C 174.36 143.59 174.45 144.65 175.16 145.25 C 175.87 145.85 176.93 145.76 177.53 145.05 L 178.19 144.27 C 178.79 143.55 178.70 142.49 177.99 141.89 C 177.28 141.29 176.22 141.38 175.62 142.10 Z M 174.99 142.85 L 174.32 143.61 C 173.70 144.30 173.77 145.36 174.46 145.97 C 175.15 146.59 176.21 146.53 176.83 145.83 L 177.50 145.07 C 178.11 144.38 178.05 143.32 177.36 142.71 C 176.67 142.09 175.61 142.16 174.99 142.85 Z M 174.35 143.58 L 173.67 144.32 C 173.04 144.99 173.07 146.05 173.75 146.68 C 174.42 147.30 175.48 147.27 176.11 146.59 L 176.79 145.86 C 177.42 145.19 177.39 144.13 176.71 143.50 C 176.04 142.87 174.98 142.91 174.35 143.58 Z M 173.70 144.29 L 172.99 145.01 C 172.35 145.66 172.36 146.72 173.01 147.36 C 173.67 148.00 174.72 147.99 175.37 147.34 L 176.07 146.62 C 176.72 145.97 176.71 144.91 176.05 144.27 C 175.40 143.63 174.34 143.63 173.70 144.29 Z M 173.03 144.98 L 172.31 145.68 C 171.65 146.31 171.63 147.36 172.26 148.02 C 172.90 148.68 173.95 148.70 174.61 148.06 L 175.33 147.37 C 175.99 146.73 176.01 145.68 175.37 145.02 C 174.74 144.37 173.69 144.35 173.03 144.98 Z M 172.35 145.65 L 171.61 146.32 C 170.94 146.93 170.89 147.97 171.50 148.65 C 172.11 149.32 173.16 149.37 173.83 148.76 L 174.57 148.09 C 175.24 147.48 175.29 146.44 174.68 145.76 C 174.06 145.09 173.02 145.04 172.35 145.65 Z M 171.66 146.29 L 170.89 146.94 C 170.20 147.53 170.11 148.57 170.70 149.26 C 171.29 149.95 172.33 150.03 173.02 149.44 L 173.79 148.79 C 174.48 148.20 174.56 147.16 173.97 146.47 C 173.38 145.78 172.35 145.70 171.66 146.29 Z M 170.93 146.91 L 170.14 147.54 C 169.43 148.11 169.32 149.14 169.88 149.85 C 170.45 150.56 171.48 150.67 172.19 150.11 L 172.98 149.47 C 173.69 148.91 173.80 147.88 173.24 147.17 C 172.67 146.46 171.64 146.34 170.93 146.91 Z M 170.17 147.52 L 169.38 148.12 C 168.65 148.67 168.51 149.70 169.06 150.42 C 169.61 151.14 170.64 151.28 171.36 150.73 L 172.15 150.13 C 172.88 149.58 173.02 148.55 172.47 147.83 C 171.92 147.11 170.89 146.97 170.17 147.52 Z M 169.40 148.10 L 168.60 148.69 C 167.87 149.22 167.71 150.25 168.25 150.98 C 168.78 151.71 169.81 151.87 170.54 151.33 L 171.34 150.75 C 172.07 150.22 172.23 149.19 171.69 148.46 C 171.16 147.73 170.13 147.57 169.40 148.10 Z M 168.61 148.68 L 167.81 149.25 C 167.08 149.78 166.91 150.80 167.44 151.54 C 167.97 152.27 168.99 152.44 169.72 151.92 L 170.52 151.34 C 171.26 150.81 171.43 149.79 170.90 149.06 C 170.37 148.32 169.35 148.15 168.61 148.68 Z M 167.82 149.25 L 167.74 149.31 C 167.01 149.83 166.84 150.86 167.36 151.59 C 167.89 152.33 168.91 152.50 169.64 151.97 L 169.72 151.92 C 170.46 151.39 170.63 150.37 170.10 149.63 C 169.58 148.90 168.55 148.73 167.82 149.25 Z"
      fill="black"
      fill-rule="nonzero" /><path d="M 157.11 146.27 L 157.19 147.23 C 157.27 148.21 158.13 148.94 159.10 148.86 C 160.08 148.78 160.81 147.92 160.73 146.94 L 160.65 145.98 C 160.57 145.01 159.71 144.28 158.73 144.36 C 157.76 144.44 157.03 145.30 157.11 146.27 Z M 157.16 147.26 L 157.26 148.24 C 157.35 149.23 158.24 149.96 159.23 149.86 C 160.22 149.77 160.95 148.88 160.85 147.89 L 160.76 146.91 C 160.66 145.92 159.78 145.19 158.78 145.29 C 157.79 145.39 157.06 146.27 157.16 147.26 Z M 157.23 148.29 L 157.36 149.31 C 157.48 150.31 158.40 151.03 159.41 150.90 C 160.41 150.78 161.13 149.86 161.00 148.85 L 160.87 147.84 C 160.75 146.83 159.83 146.12 158.83 146.24 C 157.82 146.37 157.11 147.29 157.23 148.29 Z M 157.35 149.37 L 157.49 150.26 C 157.65 151.27 158.60 151.96 159.61 151.80 C 160.62 151.64 161.31 150.69 161.15 149.68 L 161.01 148.79 C 160.85 147.78 159.90 147.09 158.89 147.25 C 157.88 147.41 157.19 148.36 157.35 149.37 Z M 157.49 150.30 L 157.63 151.09 C 157.82 152.10 158.79 152.77 159.80 152.58 C 160.81 152.39 161.48 151.42 161.29 150.41 L 161.15 149.63 C 160.97 148.62 160.00 147.95 158.98 148.14 C 157.97 148.32 157.30 149.29 157.49 150.30 Z M 157.64 151.11 L 157.81 151.98 C 158.01 152.99 158.98 153.65 159.99 153.45 C 161.00 153.25 161.66 152.28 161.46 151.27 L 161.29 150.39 C 161.09 149.39 160.12 148.73 159.11 148.92 C 158.10 149.12 157.44 150.10 157.64 151.11 Z M 157.81 151.98 L 158.01 152.99 C 158.21 154.00 159.18 154.65 160.19 154.46 C 161.20 154.26 161.85 153.28 161.66 152.27 L 161.46 151.27 C 161.26 150.26 160.28 149.60 159.28 149.80 C 158.27 150.00 157.61 150.98 157.81 151.98 Z M 158.01 152.98 L 158.24 154.17 C 158.43 155.17 159.40 155.83 160.41 155.64 C 161.42 155.45 162.08 154.47 161.88 153.47 L 161.66 152.28 C 161.46 151.28 160.49 150.62 159.48 150.81 C 158.48 151.00 157.82 151.98 158.01 152.98 Z M 158.24 154.15 L 158.45 155.30 C 158.63 156.31 159.60 156.98 160.61 156.79 C 161.62 156.60 162.28 155.64 162.10 154.63 L 161.88 153.48 C 161.70 152.47 160.73 151.80 159.72 151.99 C 158.72 152.18 158.05 153.15 158.24 154.15 Z M 158.45 155.29 L 158.61 156.22 C 158.79 157.23 159.76 157.90 160.76 157.72 C 161.77 157.54 162.44 156.58 162.26 155.57 L 162.10 154.64 C 161.92 153.63 160.95 152.96 159.95 153.14 C 158.94 153.32 158.27 154.28 158.45 155.29 Z M 158.61 156.21 L 158.79 157.20 C 158.96 158.21 159.92 158.88 160.93 158.71 C 161.94 158.53 162.61 157.57 162.44 156.56 L 162.26 155.58 C 162.09 154.57 161.13 153.89 160.12 154.07 C 159.11 154.25 158.44 155.21 158.61 156.21 Z M 158.79 157.19 L 158.96 158.22 C 159.14 159.23 160.09 159.90 161.10 159.73 C 162.11 159.56 162.78 158.60 162.61 157.60 L 162.43 156.57 C 162.26 155.56 161.31 154.89 160.30 155.06 C 159.29 155.23 158.62 156.19 158.79 157.19 Z M 158.96 158.21 L 159.14 159.26 C 159.31 160.27 160.26 160.94 161.27 160.77 C 162.28 160.61 162.95 159.65 162.79 158.65 L 162.61 157.60 C 162.44 156.60 161.49 155.92 160.48 156.09 C 159.47 156.25 158.80 157.21 158.96 158.21 Z M 159.14 159.25 L 159.31 160.30 C 159.48 161.30 160.43 161.98 161.44 161.82 C 162.44 161.65 163.12 160.70 162.96 159.69 L 162.78 158.65 C 162.62 157.65 161.67 156.96 160.66 157.13 C 159.66 157.30 158.97 158.25 159.14 159.25 Z M 159.31 160.29 L 159.48 161.31 C 159.64 162.31 160.59 163.00 161.60 162.83 C 162.60 162.67 163.28 161.72 163.12 160.72 L 162.96 159.70 C 162.79 158.69 161.84 158.01 160.84 158.17 C 159.83 158.34 159.15 159.28 159.31 160.29 Z M 159.48 161.30 L 159.64 162.28 C 159.79 163.28 160.74 163.97 161.74 163.81 C 162.75 163.65 163.43 162.71 163.27 161.70 L 163.12 160.72 C 162.96 159.72 162.02 159.03 161.01 159.19 C 160.01 159.35 159.32 160.30 159.48 161.30 Z M 159.64 162.27 L 159.78 163.18 C 159.93 164.19 160.87 164.88 161.88 164.72 C 162.88 164.57 163.57 163.62 163.42 162.62 L 163.27 161.71 C 163.12 160.70 162.18 160.01 161.17 160.17 C 160.17 160.33 159.48 161.27 159.64 162.27 Z M 159.78 163.17 L 159.97 164.43 C 160.12 165.43 161.05 166.13 162.06 165.98 C 163.06 165.83 163.75 164.89 163.60 163.89 L 163.41 162.63 C 163.26 161.63 162.33 160.93 161.32 161.08 C 160.32 161.23 159.63 162.17 159.78 163.17 Z M 159.97 164.41 L 160.12 165.51 C 160.26 166.51 161.19 167.21 162.20 167.07 C 163.20 166.93 163.90 166.00 163.76 165.00 L 163.60 163.90 C 163.46 162.90 162.53 162.20 161.53 162.34 C 160.53 162.48 159.83 163.41 159.97 164.41 Z M 160.12 165.49 L 160.25 166.46 C 160.38 167.46 161.30 168.17 162.30 168.04 C 163.31 167.91 164.01 166.99 163.88 165.99 L 163.75 165.02 C 163.62 164.01 162.70 163.31 161.70 163.44 C 160.70 163.57 159.99 164.49 160.12 165.49 Z M 160.25 166.44 L 160.36 167.33 C 160.48 168.33 161.39 169.04 162.39 168.92 C 163.39 168.80 164.11 167.89 163.99 166.89 L 163.88 166.00 C 163.76 165.00 162.85 164.29 161.85 164.41 C 160.85 164.53 160.13 165.44 160.25 166.44 Z M 160.36 167.31 L 160.46 168.14 C 160.57 169.14 161.47 169.86 162.47 169.75 C 163.47 169.64 164.19 168.73 164.08 167.73 L 163.98 166.90 C 163.87 165.90 162.97 165.18 161.97 165.30 C 160.97 165.41 160.25 166.31 160.36 167.31 Z M 160.46 168.12 L 160.55 169.04 C 160.66 170.03 161.55 170.76 162.55 170.66 C 163.55 170.55 164.27 169.66 164.17 168.66 L 164.07 167.75 C 163.97 166.75 163.08 166.02 162.08 166.13 C 161.08 166.23 160.35 167.13 160.46 168.12 Z M 160.55 169.02 L 160.65 170.02 C 160.75 171.01 161.64 171.74 162.63 171.65 C 163.63 171.55 164.36 170.66 164.27 169.66 L 164.17 168.67 C 164.07 167.67 163.18 166.94 162.18 167.04 C 161.19 167.14 160.46 168.03 160.55 169.02 Z M 160.65 170.01 L 160.74 171.00 C 160.84 172.00 161.72 172.74 162.72 172.64 C 163.72 172.55 164.45 171.67 164.36 170.67 L 164.26 169.67 C 164.17 168.67 163.29 167.94 162.29 168.03 C 161.29 168.13 160.56 169.01 160.65 170.01 Z M 160.74 171.00 L 160.83 172.00 C 160.92 172.99 161.81 173.73 162.80 173.64 C 163.80 173.55 164.54 172.67 164.45 171.67 L 164.36 170.67 C 164.27 169.68 163.39 168.94 162.39 169.03 C 161.39 169.12 160.65 170.00 160.74 171.00 Z M 160.84 171.99 L 160.92 172.99 C 161.01 173.99 161.89 174.73 162.89 174.64 C 163.89 174.55 164.62 173.67 164.53 172.67 L 164.45 171.67 C 164.36 170.68 163.48 169.94 162.48 170.03 C 161.48 170.12 160.75 171.00 160.84 171.99 Z M 160.92 172.99 L 161.01 173.98 C 161.10 174.97 161.98 175.71 162.97 175.62 C 163.97 175.53 164.71 174.65 164.62 173.66 L 164.53 172.68 C 164.45 171.68 163.57 170.94 162.57 171.03 C 161.57 171.12 160.84 172.00 160.92 172.99 Z M 161.01 173.97 L 161.10 174.96 C 161.18 175.96 162.06 176.69 163.06 176.61 C 164.05 176.52 164.79 175.64 164.70 174.65 L 164.62 173.66 C 164.53 172.67 163.66 171.93 162.66 172.01 C 161.66 172.10 160.93 172.98 161.01 173.97 Z M 161.10 174.95 L 161.18 175.95 C 161.26 176.94 162.14 177.68 163.13 177.60 C 164.13 177.52 164.87 176.65 164.78 175.65 L 164.70 174.66 C 164.62 173.66 163.75 172.92 162.75 173.00 C 161.76 173.08 161.02 173.96 161.10 174.95 Z M 161.18 175.94 L 161.26 176.95 C 161.33 177.94 162.20 178.69 163.20 178.61 C 164.20 178.53 164.94 177.66 164.86 176.67 L 164.78 175.66 C 164.71 174.67 163.84 173.92 162.84 174.00 C 161.85 174.07 161.10 174.94 161.18 175.94 Z M 161.26 176.94 L 161.33 177.95 C 161.40 178.94 162.26 179.69 163.26 179.62 C 164.25 179.55 165.00 178.69 164.93 177.69 L 164.86 176.68 C 164.79 175.69 163.93 174.94 162.93 175.01 C 161.94 175.08 161.19 175.94 161.26 176.94 Z M 161.33 177.94 L 161.39 178.95 C 161.46 179.94 162.32 180.70 163.31 180.63 C 164.31 180.57 165.06 179.71 165.00 178.71 L 164.93 177.70 C 164.87 176.71 164.01 175.95 163.02 176.02 C 162.02 176.08 161.27 176.94 161.33 177.94 Z M 161.40 178.93 L 161.45 179.95 C 161.51 180.94 162.36 181.70 163.36 181.64 C 164.35 181.58 165.11 180.73 165.06 179.74 L 165.00 178.73 C 164.94 177.73 164.09 176.97 163.09 177.03 C 162.10 177.09 161.34 177.94 161.40 178.93 Z M 161.45 179.94 L 161.51 180.94 C 161.56 181.93 162.41 182.70 163.40 182.64 C 164.40 182.59 165.16 181.74 165.11 180.75 L 165.06 179.75 C 165.00 178.75 164.15 177.99 163.16 178.04 C 162.17 178.09 161.40 178.94 161.45 179.94 Z M 161.51 180.93 L 161.55 181.91 C 161.60 182.90 162.45 183.67 163.44 183.62 C 164.43 183.57 165.20 182.73 165.15 181.74 L 165.11 180.76 C 165.06 179.76 164.22 179.00 163.22 179.04 C 162.23 179.09 161.46 179.93 161.51 180.93 Z M 161.56 181.90 L 161.60 182.93 C 161.64 183.93 162.48 184.70 163.48 184.66 C 164.47 184.61 165.24 183.77 165.20 182.78 L 165.15 181.75 C 165.11 180.75 164.27 179.98 163.28 180.02 C 162.28 180.07 161.51 180.91 161.56 181.90 Z M 161.60 182.92 L 161.64 183.95 C 161.68 184.95 162.51 185.72 163.50 185.68 C 164.50 185.65 165.27 184.81 165.24 183.82 L 165.20 182.79 C 165.16 181.80 164.33 181.02 163.33 181.06 C 162.34 181.10 161.56 181.93 161.60 182.92 Z M 161.64 183.94 L 161.67 184.93 C 161.70 185.92 162.53 186.70 163.52 186.67 C 164.52 186.64 165.30 185.81 165.27 184.82 L 165.24 183.83 C 165.20 182.84 164.37 182.06 163.38 182.09 C 162.39 182.12 161.61 182.95 161.64 183.94 Z M 161.67 184.92 L 161.69 185.88 C 161.72 186.87 162.54 187.66 163.53 187.63 C 164.53 187.61 165.31 186.79 165.29 185.79 L 165.27 184.83 C 165.24 183.84 164.42 183.05 163.42 183.08 C 162.43 183.10 161.65 183.93 161.67 184.92 Z M 161.69 185.87 L 161.71 186.86 C 161.73 187.85 162.54 188.65 163.54 188.63 C 164.53 188.61 165.32 187.79 165.30 186.80 L 165.29 185.81 C 165.27 184.81 164.45 184.02 163.46 184.04 C 162.47 184.05 161.68 184.87 161.69 185.87 Z M 161.71 186.85 L 161.72 187.87 C 161.73 188.86 162.54 189.66 163.53 189.65 C 164.53 189.64 165.32 188.83 165.31 187.83 L 165.30 186.81 C 165.30 185.82 164.48 185.03 163.49 185.03 C 162.50 185.04 161.70 185.86 161.71 186.85 Z M 161.72 187.86 L 161.72 188.85 C 161.73 189.84 162.53 190.64 163.53 190.64 C 164.52 190.64 165.32 189.83 165.32 188.84 L 165.31 187.84 C 165.31 186.85 164.50 186.05 163.51 186.05 C 162.52 186.06 161.72 186.86 161.72 187.86 Z M 161.72 188.85 L 161.73 189.82 C 161.73 190.81 162.53 191.61 163.52 191.61 C 164.51 191.61 165.32 190.81 165.32 189.82 L 165.32 188.84 C 165.32 187.85 164.51 187.05 163.52 187.05 C 162.53 187.05 161.72 187.85 161.72 188.85 Z M 161.73 189.82 L 161.73 190.84 C 161.73 191.83 162.53 192.63 163.52 192.63 C 164.51 192.63 165.32 191.83 165.32 190.84 L 165.32 189.82 C 165.32 188.83 164.51 188.02 163.52 188.02 C 162.53 188.02 161.73 188.83 161.73 189.82 Z M 161.73 190.84 L 161.73 191.85 C 161.73 192.84 162.53 193.65 163.52 193.65 C 164.51 193.65 165.32 192.84 165.32 191.85 L 165.32 190.84 C 165.32 189.85 164.51 189.04 163.52 189.04 C 162.53 189.04 161.73 189.85 161.73 190.84 Z M 161.73 191.85 L 161.73 192.83 C 161.73 193.83 162.53 194.63 163.52 194.63 C 164.51 194.63 165.31 193.83 165.31 192.83 L 165.31 191.85 C 165.31 190.86 164.51 190.06 163.52 190.06 C 162.53 190.06 161.73 190.86 161.73 191.85 Z M 161.73 192.83 L 161.73 193.78 C 161.73 194.77 162.53 195.57 163.52 195.57 C 164.51 195.57 165.31 194.77 165.31 193.78 L 165.31 192.84 C 165.31 191.84 164.51 191.04 163.52 191.04 C 162.53 191.04 161.73 191.84 161.73 192.83 Z M 161.73 193.77 L 161.72 194.68 C 161.72 195.67 162.52 196.48 163.51 196.49 C 164.50 196.49 165.30 195.70 165.31 194.70 L 165.31 193.79 C 165.32 192.80 164.52 191.99 163.53 191.98 C 162.54 191.98 161.73 192.78 161.73 193.77 Z M 161.72 194.65 L 161.70 195.63 C 161.68 196.62 162.46 197.44 163.45 197.47 C 164.44 197.49 165.26 196.70 165.29 195.71 L 165.31 194.73 C 165.33 193.74 164.55 192.92 163.56 192.90 C 162.57 192.88 161.75 193.67 161.72 194.65 Z M 161.70 195.59 L 161.65 196.69 C 161.61 197.68 162.37 198.52 163.36 198.57 C 164.35 198.61 165.19 197.85 165.23 196.86 L 165.28 195.75 C 165.33 194.77 164.56 193.93 163.58 193.88 C 162.59 193.84 161.75 194.60 161.70 195.59 Z M 161.66 196.66 L 161.59 197.63 C 161.52 198.62 162.27 199.48 163.26 199.54 C 164.24 199.61 165.10 198.86 165.17 197.87 L 165.23 196.90 C 165.30 195.91 164.55 195.06 163.56 194.99 C 162.58 194.92 161.72 195.67 161.66 196.66 Z M 161.59 197.60 L 161.51 198.60 C 161.42 199.59 162.15 200.46 163.14 200.54 C 164.12 200.63 164.99 199.90 165.08 198.91 L 165.16 197.91 C 165.25 196.92 164.52 196.05 163.53 195.97 C 162.55 195.88 161.68 196.61 161.59 197.60 Z M 161.51 198.56 L 161.40 199.59 C 161.29 200.58 162.00 201.46 162.98 201.57 C 163.97 201.68 164.85 200.97 164.96 199.98 L 165.07 198.95 C 165.18 197.97 164.47 197.08 163.48 196.97 C 162.50 196.87 161.62 197.58 161.51 198.56 Z M 161.40 199.55 L 161.26 200.57 C 161.13 201.55 161.82 202.45 162.80 202.58 C 163.78 202.72 164.68 202.03 164.82 201.05 L 164.95 200.03 C 165.09 199.05 164.40 198.15 163.42 198.01 C 162.44 197.88 161.54 198.57 161.40 199.55 Z M 161.27 200.50 L 161.11 201.47 C 160.94 202.45 161.59 203.38 162.57 203.54 C 163.54 203.71 164.47 203.06 164.64 202.08 L 164.81 201.11 C 164.97 200.14 164.32 199.21 163.34 199.04 C 162.37 198.87 161.44 199.53 161.27 200.50 Z M 161.13 201.37 L 160.87 202.46 C 160.65 203.43 161.25 204.39 162.22 204.61 C 163.18 204.84 164.14 204.24 164.37 203.27 L 164.62 202.18 C 164.84 201.22 164.24 200.26 163.28 200.03 C 162.31 199.81 161.35 200.41 161.13 201.37 Z M 160.91 202.33 L 160.61 203.29 C 160.31 204.24 160.84 205.24 161.78 205.54 C 162.72 205.84 163.73 205.31 164.03 204.37 L 164.33 203.40 C 164.63 202.46 164.10 201.45 163.16 201.16 C 162.21 200.86 161.21 201.39 160.91 202.33 Z M 160.66 203.15 L 160.30 204.01 C 159.92 204.93 160.36 205.98 161.27 206.35 C 162.19 206.73 163.24 206.30 163.62 205.38 L 163.97 204.52 C 164.35 203.60 163.92 202.55 163.00 202.18 C 162.09 201.80 161.04 202.23 160.66 203.15 Z M 160.37 203.86 L 159.94 204.69 C 159.48 205.57 159.81 206.65 160.69 207.11 C 161.56 207.57 162.65 207.24 163.11 206.36 L 163.54 205.53 C 164.01 204.66 163.67 203.57 162.79 203.11 C 161.92 202.65 160.83 202.99 160.37 203.86 Z M 160.04 204.52 L 159.46 205.38 C 158.91 206.19 159.12 207.31 159.94 207.86 C 160.76 208.42 161.87 208.20 162.43 207.38 L 163.01 206.53 C 163.56 205.71 163.35 204.60 162.53 204.04 C 161.71 203.49 160.59 203.70 160.04 204.52 Z M 159.65 205.15 L 158.97 205.87 C 158.29 206.58 158.32 207.71 159.03 208.39 C 159.75 209.07 160.88 209.04 161.56 208.33 L 162.24 207.61 C 162.92 206.89 162.89 205.76 162.18 205.08 C 161.46 204.40 160.33 204.43 159.65 205.15 Z M 159.28 205.61 L 158.48 206.14 C 157.66 206.68 157.43 207.78 157.97 208.61 C 158.51 209.43 159.62 209.66 160.44 209.12 L 161.24 208.59 C 162.07 208.05 162.30 206.94 161.75 206.12 C 161.21 205.29 160.11 205.07 159.28 205.61 Z M 158.93 205.93 L 157.99 206.22 C 157.05 206.51 156.52 207.51 156.82 208.45 C 157.11 209.39 158.10 209.91 159.04 209.62 L 159.99 209.32 C 160.93 209.03 161.45 208.04 161.16 207.10 C 160.87 206.16 159.87 205.64 158.93 205.93 Z M 158.45 206.16 L 157.44 206.19 C 156.47 206.23 155.71 207.05 155.74 208.02 C 155.78 209.00 156.60 209.76 157.57 209.72 L 158.58 209.69 C 159.55 209.65 160.31 208.83 160.28 207.86 C 160.24 206.88 159.42 206.12 158.45 206.16 Z M 157.89 206.25 L 156.92 206.03 C 155.97 205.82 155.03 206.42 154.82 207.36 C 154.61 208.31 155.21 209.25 156.16 209.46 L 157.13 209.67 C 158.07 209.88 159.01 209.29 159.22 208.34 C 159.43 207.39 158.84 206.46 157.89 206.25 Z M 157.35 206.21 L 156.53 205.77 C 155.68 205.33 154.63 205.65 154.18 206.50 C 153.73 207.35 154.06 208.40 154.91 208.85 L 155.73 209.28 C 156.57 209.73 157.63 209.40 158.08 208.56 C 158.52 207.71 158.20 206.65 157.35 206.21 Z M 156.84 206.01 L 156.12 205.39 C 155.40 204.78 154.31 204.86 153.70 205.58 C 153.08 206.30 153.16 207.38 153.88 208.00 L 154.60 208.62 C 155.33 209.23 156.41 209.15 157.03 208.43 C 157.64 207.71 157.56 206.62 156.84 206.01 Z M 156.26 205.57 L 155.57 204.80 C 154.95 204.10 153.88 204.04 153.18 204.66 C 152.49 205.28 152.43 206.35 153.05 207.05 L 153.74 207.82 C 154.36 208.52 155.43 208.58 156.13 207.96 C 156.83 207.34 156.89 206.27 156.26 205.57 Z M 155.62 204.88 L 154.98 204.07 C 154.40 203.35 153.35 203.23 152.63 203.81 C 151.90 204.38 151.78 205.43 152.36 206.16 L 153.00 206.96 C 153.58 207.69 154.63 207.81 155.35 207.23 C 156.08 206.66 156.19 205.60 155.62 204.88 Z M 154.98 204.10 L 154.43 203.38 C 153.87 202.65 152.82 202.51 152.10 203.07 C 151.37 203.63 151.23 204.67 151.79 205.40 L 152.35 206.13 C 152.91 206.85 153.95 206.99 154.68 206.43 C 155.41 205.87 155.54 204.83 154.98 204.10 Z M 154.44 203.40 L 153.85 202.62 C 153.31 201.88 152.27 201.73 151.54 202.28 C 150.80 202.83 150.65 203.87 151.20 204.60 L 151.78 205.38 C 152.33 206.11 153.37 206.26 154.10 205.72 C 154.83 205.17 154.98 204.13 154.44 203.40 Z M 153.86 202.64 L 153.26 201.80 C 152.72 201.06 151.69 200.90 150.95 201.43 C 150.22 201.97 150.05 203.00 150.58 203.74 L 151.19 204.57 C 151.72 205.31 152.75 205.48 153.49 204.94 C 154.23 204.41 154.40 203.38 153.86 202.64 Z M 153.27 201.83 L 152.65 200.93 C 152.13 200.19 151.10 200.01 150.36 200.53 C 149.61 201.04 149.43 202.07 149.95 202.81 L 150.57 203.71 C 151.09 204.45 152.11 204.64 152.86 204.12 C 153.61 203.60 153.79 202.57 153.27 201.83 Z M 152.66 200.96 L 152.11 200.14 C 151.60 199.39 150.58 199.19 149.83 199.69 C 149.08 200.20 148.88 201.22 149.38 201.97 L 149.94 202.79 C 150.44 203.54 151.46 203.74 152.21 203.24 C 152.96 202.73 153.16 201.71 152.66 200.96 Z M 152.12 200.16 L 151.59 199.34 C 151.09 198.59 150.08 198.37 149.32 198.87 C 148.56 199.36 148.35 200.38 148.84 201.14 L 149.37 201.95 C 149.87 202.71 150.88 202.92 151.64 202.43 C 152.40 201.93 152.61 200.92 152.12 200.16 Z M 151.60 199.36 L 151.06 198.52 C 150.57 197.75 149.56 197.53 148.79 198.02 C 148.03 198.51 147.81 199.52 148.30 200.28 L 148.83 201.12 C 149.32 201.89 150.33 202.11 151.10 201.62 C 151.86 201.13 152.08 200.12 151.60 199.36 Z M 151.06 198.53 L 150.52 197.67 C 150.04 196.90 149.03 196.67 148.26 197.15 C 147.50 197.64 147.27 198.65 147.75 199.41 L 148.29 200.27 C 148.77 201.04 149.78 201.27 150.55 200.79 C 151.32 200.30 151.55 199.29 151.06 198.53 Z M 150.52 197.67 L 149.98 196.80 C 149.50 196.03 148.49 195.80 147.72 196.28 C 146.96 196.76 146.72 197.77 147.20 198.54 L 147.75 199.41 C 148.23 200.17 149.24 200.41 150.00 199.93 C 150.77 199.45 151.00 198.44 150.52 197.67 Z M 149.98 196.80 L 149.53 196.07 C 149.05 195.31 148.04 195.07 147.27 195.55 C 146.50 196.03 146.27 197.04 146.75 197.80 L 147.20 198.53 C 147.68 199.30 148.69 199.54 149.46 199.06 C 150.22 198.58 150.46 197.57 149.98 196.80 Z"
      fill="black"
      fill-rule="nonzero" /><path d="M 156.97 144.01 L 155.98 144.26 C 155.03 144.51 154.46 145.49 154.71 146.44 C 154.96 147.39 155.93 147.96 156.89 147.71 L 157.87 147.46 C 158.82 147.21 159.39 146.23 159.14 145.28 C 158.90 144.33 157.92 143.76 156.97 144.01 Z M 155.84 144.21 L 154.89 144.53 C 153.91 144.86 153.38 145.92 153.71 146.90 C 154.04 147.88 155.10 148.41 156.08 148.08 L 157.03 147.77 C 158.01 147.44 158.54 146.37 158.21 145.39 C 157.88 144.41 156.82 143.88 155.84 144.21 Z M 154.61 144.55 L 153.73 144.99 C 152.76 145.47 152.37 146.65 152.85 147.62 C 153.34 148.59 154.52 148.99 155.49 148.50 L 156.37 148.07 C 157.34 147.58 157.73 146.40 157.25 145.43 C 156.76 144.46 155.58 144.06 154.61 144.55 Z M 153.38 145.14 L 152.68 145.68 C 151.80 146.36 151.63 147.63 152.31 148.51 C 152.99 149.40 154.26 149.56 155.15 148.88 L 155.84 148.34 C 156.73 147.66 156.89 146.40 156.21 145.51 C 155.53 144.63 154.26 144.46 153.38 145.14 Z M 152.43 145.90 L 151.81 146.56 C 151.04 147.38 151.08 148.66 151.90 149.43 C 152.72 150.19 154.00 150.15 154.77 149.34 L 155.39 148.67 C 156.16 147.85 156.12 146.57 155.30 145.80 C 154.48 145.04 153.20 145.08 152.43 145.90 Z M 151.68 146.72 L 151.05 147.53 C 150.37 148.42 150.54 149.69 151.43 150.37 C 152.31 151.05 153.58 150.89 154.26 150.00 L 154.89 149.18 C 155.57 148.30 155.41 147.03 154.52 146.34 C 153.63 145.66 152.36 145.83 151.68 146.72 Z M 151.00 147.61 L 150.34 148.55 C 149.70 149.47 149.92 150.73 150.83 151.37 C 151.75 152.01 153.01 151.79 153.65 150.87 L 154.31 149.93 C 154.96 149.01 154.73 147.75 153.82 147.11 C 152.90 146.47 151.64 146.69 151.00 147.61 Z M 150.33 148.57 L 149.79 149.36 C 149.16 150.28 149.40 151.53 150.32 152.16 C 151.23 152.79 152.49 152.56 153.12 151.64 L 153.66 150.86 C 154.29 149.94 154.05 148.68 153.14 148.05 C 152.22 147.42 150.96 147.65 150.33 148.57 Z M 149.79 149.37 L 149.22 150.20 C 148.60 151.12 148.84 152.38 149.76 153.00 C 150.68 153.62 151.93 153.38 152.55 152.46 L 153.12 151.63 C 153.75 150.71 153.51 149.46 152.59 148.83 C 151.67 148.21 150.42 148.45 149.79 149.37 Z M 149.22 150.21 L 148.65 151.07 C 148.03 151.99 148.27 153.24 149.19 153.86 C 150.11 154.48 151.36 154.23 151.98 153.31 L 152.56 152.45 C 153.17 151.53 152.93 150.29 152.01 149.67 C 151.09 149.05 149.84 149.29 149.22 150.21 Z M 148.64 151.09 L 148.08 151.94 C 147.46 152.87 147.72 154.11 148.64 154.72 C 149.56 155.33 150.80 155.08 151.41 154.16 L 151.98 153.30 C 152.59 152.38 152.34 151.14 151.42 150.52 C 150.50 149.91 149.25 150.17 148.64 151.09 Z M 148.07 151.96 L 147.53 152.78 C 146.93 153.71 147.19 154.95 148.11 155.55 C 149.04 156.15 150.28 155.89 150.88 154.97 L 151.42 154.14 C 152.02 153.22 151.76 151.98 150.84 151.38 C 149.91 150.77 148.67 151.03 148.07 151.96 Z M 147.53 152.81 L 146.96 153.70 C 146.37 154.63 146.64 155.86 147.56 156.45 C 148.49 157.04 149.72 156.77 150.31 155.84 L 150.88 154.95 C 151.47 154.02 151.20 152.79 150.28 152.20 C 149.35 151.61 148.12 151.88 147.53 152.81 Z M 146.96 153.73 L 146.42 154.58 C 145.85 155.51 146.13 156.73 147.05 157.30 C 147.98 157.88 149.20 157.60 149.78 156.67 L 150.31 155.82 C 150.89 154.89 150.60 153.68 149.68 153.10 C 148.75 152.52 147.53 152.80 146.96 153.73 Z M 146.43 154.60 L 145.92 155.43 C 145.36 156.35 145.65 157.56 146.57 158.12 C 147.49 158.69 148.70 158.40 149.27 157.48 L 149.77 156.65 C 150.34 155.73 150.05 154.52 149.12 153.96 C 148.20 153.39 146.99 153.68 146.43 154.60 Z M 145.93 155.44 L 145.43 156.27 C 144.87 157.19 145.16 158.38 146.08 158.94 C 147.00 159.50 148.20 159.21 148.76 158.29 L 149.26 157.46 C 149.82 156.54 149.52 155.35 148.60 154.79 C 147.69 154.23 146.49 154.52 145.93 155.44 Z M 145.44 156.27 L 144.95 157.09 C 144.39 158.00 144.68 159.19 145.60 159.74 C 146.51 160.30 147.70 160.01 148.25 159.09 L 148.75 158.28 C 149.30 157.37 149.01 156.18 148.10 155.62 C 147.18 155.07 145.99 155.36 145.44 156.27 Z M 144.96 157.09 L 144.46 157.91 C 143.91 158.82 144.19 160.00 145.10 160.55 C 146.01 161.10 147.19 160.82 147.75 159.91 L 148.24 159.09 C 148.80 158.18 148.51 157.00 147.60 156.45 C 146.69 155.89 145.51 156.18 144.96 157.09 Z M 144.46 157.91 L 143.95 158.76 C 143.40 159.67 143.69 160.85 144.59 161.39 C 145.50 161.94 146.68 161.65 147.23 160.75 L 147.74 159.90 C 148.29 159.00 148.00 157.82 147.10 157.27 C 146.19 156.72 145.01 157.01 144.46 157.91 Z M 143.95 158.77 L 143.43 159.65 C 142.88 160.55 143.17 161.72 144.08 162.27 C 144.98 162.81 146.15 162.52 146.69 161.62 L 147.22 160.74 C 147.77 159.84 147.48 158.67 146.57 158.12 C 145.67 157.58 144.50 157.87 143.95 158.77 Z M 143.43 159.66 L 142.89 160.56 C 142.35 161.47 142.65 162.63 143.55 163.17 C 144.45 163.71 145.61 163.41 146.15 162.51 L 146.69 161.61 C 147.23 160.71 146.93 159.54 146.03 159.00 C 145.13 158.47 143.97 158.76 143.43 159.66 Z M 142.89 160.58 L 142.39 161.43 C 141.86 162.33 142.16 163.48 143.06 164.01 C 143.96 164.54 145.12 164.24 145.65 163.34 L 146.15 162.50 C 146.68 161.60 146.38 160.44 145.48 159.91 C 144.58 159.38 143.42 159.68 142.89 160.58 Z M 142.40 161.44 L 141.91 162.28 C 141.38 163.18 141.69 164.33 142.58 164.85 C 143.48 165.38 144.63 165.07 145.16 164.17 L 145.65 163.33 C 146.17 162.43 145.87 161.28 144.97 160.76 C 144.07 160.24 142.92 160.54 142.40 161.44 Z M 141.91 162.29 L 141.41 163.15 C 140.90 164.05 141.20 165.19 142.10 165.71 C 142.99 166.23 144.14 165.92 144.65 165.02 L 145.15 164.16 C 145.67 163.27 145.36 162.12 144.47 161.61 C 143.57 161.09 142.43 161.40 141.91 162.29 Z M 141.42 163.16 L 140.91 164.04 C 140.40 164.93 140.71 166.07 141.60 166.58 C 142.49 167.09 143.63 166.78 144.14 165.89 L 144.65 165.02 C 145.16 164.13 144.85 162.99 143.96 162.47 C 143.07 161.96 141.93 162.27 141.42 163.16 Z M 140.92 164.04 L 140.41 164.93 C 139.90 165.82 140.21 166.95 141.09 167.46 C 141.98 167.97 143.11 167.67 143.62 166.78 L 144.14 165.89 C 144.65 165.00 144.34 163.87 143.45 163.36 C 142.56 162.85 141.43 163.15 140.92 164.04 Z M 140.42 164.94 L 139.91 165.81 C 139.41 166.69 139.71 167.82 140.59 168.33 C 141.48 168.84 142.60 168.53 143.11 167.65 L 143.62 166.78 C 144.12 165.89 143.82 164.77 142.94 164.26 C 142.05 163.75 140.93 164.05 140.42 164.94 Z M 139.92 165.82 L 139.43 166.66 C 138.93 167.54 139.23 168.66 140.11 169.17 C 140.99 169.68 142.11 169.37 142.61 168.50 L 143.10 167.65 C 143.61 166.77 143.31 165.65 142.43 165.14 C 141.55 164.64 140.43 164.94 139.92 165.82 Z M 139.44 166.67 L 138.95 167.53 C 138.44 168.40 138.74 169.52 139.61 170.02 C 140.49 170.52 141.60 170.23 142.11 169.35 L 142.60 168.49 C 143.11 167.62 142.81 166.50 141.94 166.00 C 141.06 165.49 139.95 165.79 139.44 166.67 Z M 138.96 167.53 L 138.45 168.40 C 137.95 169.26 138.25 170.38 139.11 170.88 C 139.98 171.38 141.09 171.09 141.60 170.22 L 142.10 169.35 C 142.60 168.48 142.31 167.37 141.44 166.87 C 140.57 166.36 139.46 166.66 138.96 167.53 Z M 138.46 168.40 L 137.95 169.27 C 137.45 170.14 137.75 171.24 138.61 171.74 C 139.47 172.25 140.58 171.95 141.08 171.09 L 141.59 170.22 C 142.09 169.35 141.80 168.25 140.93 167.74 C 140.07 167.24 138.96 167.54 138.46 168.40 Z M 137.96 169.28 L 137.45 170.16 C 136.95 171.01 137.24 172.12 138.10 172.62 C 138.96 173.12 140.06 172.83 140.56 171.97 L 141.07 171.09 C 141.57 170.23 141.28 169.13 140.42 168.63 C 139.56 168.13 138.46 168.42 137.96 169.28 Z M 137.46 170.16 L 136.96 171.02 C 136.46 171.87 136.75 172.96 137.60 173.46 C 138.45 173.96 139.55 173.67 140.05 172.82 L 140.55 171.97 C 141.05 171.11 140.76 170.02 139.91 169.52 C 139.05 169.02 137.96 169.31 137.46 170.16 Z M 136.97 171.02 L 136.47 171.87 C 135.98 172.71 136.26 173.80 137.11 174.30 C 137.95 174.80 139.04 174.51 139.54 173.67 L 140.04 172.82 C 140.53 171.97 140.25 170.88 139.40 170.39 C 138.56 169.89 137.47 170.17 136.97 171.02 Z M 136.48 171.87 L 135.98 172.72 C 135.49 173.56 135.77 174.64 136.61 175.14 C 137.45 175.64 138.53 175.36 139.03 174.52 L 139.53 173.66 C 140.02 172.82 139.74 171.74 138.90 171.24 C 138.06 170.75 136.98 171.03 136.48 171.87 Z M 135.99 172.72 L 135.48 173.58 C 134.99 174.42 135.27 175.49 136.10 175.99 C 136.93 176.48 138.01 176.21 138.50 175.37 L 139.01 174.51 C 139.51 173.68 139.23 172.60 138.40 172.11 C 137.56 171.62 136.49 171.89 135.99 172.72 Z M 135.50 173.59 L 134.98 174.45 C 134.49 175.28 134.76 176.35 135.58 176.84 C 136.41 177.33 137.48 177.06 137.97 176.24 L 138.49 175.37 C 138.98 174.54 138.71 173.47 137.89 172.98 C 137.06 172.49 135.99 172.76 135.50 173.59 Z M 134.99 174.45 L 134.47 175.33 C 133.97 176.15 134.24 177.21 135.06 177.71 C 135.88 178.20 136.94 177.93 137.43 177.11 L 137.96 176.24 C 138.45 175.42 138.19 174.35 137.37 173.86 C 136.55 173.37 135.49 173.63 134.99 174.45 Z M 134.48 175.33 L 133.95 176.20 C 133.46 177.01 133.72 178.07 134.53 178.56 C 135.35 179.05 136.40 178.79 136.90 177.98 L 137.42 177.11 C 137.91 176.30 137.65 175.24 136.84 174.75 C 136.03 174.26 134.97 174.52 134.48 175.33 Z M 133.97 176.20 L 133.44 177.06 C 132.95 177.87 133.20 178.92 134.01 179.41 C 134.82 179.90 135.87 179.65 136.36 178.84 L 136.89 177.98 C 137.38 177.17 137.12 176.12 136.31 175.63 C 135.51 175.14 134.46 175.39 133.97 176.20 Z M 133.45 177.06 L 132.92 177.93 C 132.43 178.73 132.68 179.77 133.48 180.27 C 134.28 180.76 135.33 180.51 135.82 179.70 L 136.35 178.84 C 136.84 178.04 136.59 176.99 135.79 176.50 C 134.99 176.01 133.94 176.26 133.45 177.06 Z M 132.93 177.93 L 132.40 178.79 C 131.91 179.58 132.16 180.63 132.95 181.12 C 133.75 181.61 134.79 181.36 135.28 180.56 L 135.81 179.70 C 136.30 178.91 136.05 177.87 135.26 177.38 C 134.46 176.89 133.42 177.13 132.93 177.93 Z M 132.41 178.79 L 131.88 179.64 C 131.39 180.43 131.64 181.47 132.43 181.96 C 133.22 182.45 134.25 182.20 134.74 181.41 L 135.27 180.56 C 135.76 179.77 135.51 178.74 134.72 178.25 C 133.93 177.76 132.90 178.00 132.41 178.79 Z M 131.89 179.65 L 131.37 180.48 C 130.89 181.27 131.13 182.30 131.91 182.78 C 132.70 183.27 133.73 183.03 134.21 182.25 L 134.73 181.41 C 135.22 180.63 134.98 179.60 134.19 179.11 C 133.41 178.62 132.38 178.86 131.89 179.65 Z M 131.38 180.49 L 130.85 181.33 C 130.37 182.11 130.61 183.14 131.39 183.62 C 132.17 184.11 133.19 183.87 133.68 183.09 L 134.20 182.24 C 134.69 181.46 134.45 180.44 133.67 179.95 C 132.89 179.47 131.87 179.71 131.38 180.49 Z M 130.86 181.33 L 130.30 182.22 C 129.82 183.00 130.06 184.02 130.83 184.51 C 131.61 184.99 132.63 184.76 133.11 183.98 L 133.67 183.09 C 134.16 182.31 133.92 181.29 133.14 180.81 C 132.37 180.32 131.34 180.56 130.86 181.33 Z M 130.31 182.22 L 129.77 183.08 C 129.28 183.86 129.51 184.88 130.29 185.36 C 131.06 185.85 132.08 185.62 132.57 184.84 L 133.11 183.98 C 133.60 183.21 133.36 182.19 132.59 181.70 C 131.82 181.21 130.80 181.45 130.31 182.22 Z M 129.77 183.08 L 129.24 183.92 C 128.75 184.69 128.98 185.71 129.75 186.20 C 130.52 186.69 131.54 186.46 132.03 185.69 L 132.56 184.85 C 133.05 184.08 132.82 183.06 132.05 182.57 C 131.28 182.08 130.26 182.31 129.77 183.08 Z M 129.25 183.91 L 128.72 184.74 C 128.23 185.50 128.46 186.52 129.22 187.01 C 129.99 187.50 131.01 187.28 131.50 186.51 L 132.02 185.69 C 132.51 184.93 132.29 183.91 131.52 183.42 C 130.76 182.93 129.74 183.15 129.25 183.91 Z M 128.73 184.73 L 128.21 185.53 C 127.71 186.29 127.93 187.31 128.69 187.81 C 129.46 188.30 130.47 188.08 130.97 187.32 L 131.49 186.52 C 131.98 185.76 131.77 184.74 131.00 184.24 C 130.24 183.75 129.22 183.97 128.73 184.73 Z M 128.22 185.52 L 127.66 186.37 C 127.16 187.13 127.37 188.14 128.13 188.64 C 128.89 189.14 129.90 188.93 130.40 188.18 L 130.96 187.33 C 131.46 186.57 131.25 185.56 130.49 185.06 C 129.73 184.56 128.72 184.77 128.22 185.52 Z M 127.67 186.36 L 127.10 187.21 C 126.60 187.96 126.80 188.98 127.55 189.49 C 128.30 189.99 129.32 189.79 129.83 189.04 L 130.40 188.18 C 130.90 187.43 130.70 186.41 129.94 185.91 C 129.19 185.40 128.17 185.61 127.67 186.36 Z M 127.11 187.20 L 126.54 188.04 C 126.03 188.78 126.23 189.80 126.97 190.31 C 127.72 190.82 128.74 190.63 129.25 189.88 L 129.82 189.04 C 130.33 188.29 130.13 187.27 129.38 186.77 C 128.63 186.26 127.61 186.45 127.11 187.20 Z M 126.55 188.03 L 125.98 188.84 C 125.47 189.59 125.66 190.61 126.41 191.12 C 127.15 191.64 128.17 191.45 128.69 190.70 L 129.25 189.88 C 129.76 189.14 129.57 188.12 128.82 187.61 C 128.08 187.09 127.06 187.28 126.55 188.03 Z M 125.99 188.84 L 125.44 189.63 C 124.92 190.38 125.10 191.40 125.85 191.91 C 126.59 192.43 127.61 192.25 128.13 191.50 L 128.68 190.71 C 129.20 189.96 129.01 188.94 128.27 188.43 C 127.53 187.91 126.51 188.10 125.99 188.84 Z M 125.44 189.63 L 124.87 190.45 C 124.35 191.19 124.53 192.21 125.27 192.73 C 126.01 193.25 127.03 193.07 127.55 192.33 L 128.12 191.51 C 128.64 190.77 128.46 189.75 127.72 189.23 C 126.98 188.71 125.96 188.89 125.44 189.63 Z M 124.87 190.45 L 124.28 191.28 C 123.76 192.02 123.94 193.04 124.68 193.56 C 125.42 194.08 126.44 193.90 126.96 193.16 L 127.54 192.33 C 128.07 191.60 127.89 190.57 127.15 190.05 C 126.41 189.53 125.39 189.71 124.87 190.45 Z M 124.29 191.27 L 123.71 192.09 C 123.19 192.83 123.36 193.85 124.10 194.37 C 124.83 194.89 125.86 194.72 126.38 193.98 L 126.96 193.17 C 127.48 192.43 127.31 191.41 126.57 190.89 C 125.83 190.36 124.81 190.54 124.29 191.27 Z M 123.71 192.09 L 123.14 192.89 C 122.61 193.62 122.79 194.65 123.52 195.17 C 124.26 195.70 125.28 195.52 125.80 194.79 L 126.38 193.98 C 126.90 193.25 126.73 192.23 125.99 191.70 C 125.26 191.18 124.23 191.35 123.71 192.09 Z M 123.14 192.89 L 122.57 193.69 C 122.04 194.42 122.21 195.44 122.95 195.97 C 123.69 196.49 124.71 196.32 125.23 195.59 L 125.80 194.79 C 126.33 194.05 126.16 193.03 125.42 192.51 C 124.69 191.98 123.66 192.15 123.14 192.89 Z M 122.57 193.68 L 122.54 193.73 C 122.01 194.47 122.18 195.49 122.92 196.02 C 123.65 196.54 124.67 196.37 125.20 195.63 L 125.23 195.59 C 125.76 194.85 125.59 193.83 124.85 193.30 C 124.12 192.78 123.09 192.95 122.57 193.68 Z"
      fill="black"
      fill-rule="nonzero" /></svg>