<svg xmlns="http://www.w3.org/2000/svg" width="300" height="300" viewBox="0 0 300 300">
<path d="M 127.41 142.23 L 128.36 142.23 C 129.36 142.23 130.16 141.42 130.16 140.42 C 130.16 139.42 129.35 138.61 128.35 138.61 L 127.40 138.62 C 126.40 138.62 125.60 139.43 125.60 140.43 C 125.60 141.43 126.41 142.23 127.41 142.23 Z M 128.38 142.29 L 129.34 142.27 C 130.38 142.26 131.20 141.41 131.18 140.38 C 131.17 139.35 130.32 138.53 129.29 138.54 L 128.33 138.56 C 127.30 138.57 126.47 139.42 126.49 140.45 C 126.50 141.48 127.35 142.30 128.38 142.29 Z M 129.39 142.33 L 130.38 142.29 C 131.45 142.25 132.27 141.36 132.23 140.30 C 132.19 139.23 131.30 138.41 130.24 138.45 L 129.24 138.49 C 128.18 138.53 127.35 139.42 127.40 140.48 C 127.44 141.54 128.33 142.37 129.39 142.33 Z M 130.45 142.35 L 131.49 142.27 C 132.58 142.19 133.40 141.25 133.32 140.15 C 133.24 139.06 132.30 138.24 131.20 138.32 L 130.17 138.39 C 129.08 138.47 128.26 139.42 128.33 140.51 C 128.41 141.60 129.36 142.42 130.45 142.35 Z M 131.57 142.31 L 132.62 142.19 C 133.73 142.07 134.53 141.07 134.41 139.96 C 134.29 138.84 133.28 138.04 132.17 138.16 L 131.12 138.28 C 130.01 138.40 129.21 139.41 129.33 140.52 C 129.45 141.63 130.46 142.43 131.57 142.31 Z M 132.69 142.20 L 133.70 142.05 C 134.82 141.89 135.59 140.85 135.43 139.74 C 135.27 138.62 134.23 137.85 133.11 138.01 L 132.10 138.16 C 130.98 138.32 130.21 139.36 130.37 140.48 C 130.53 141.59 131.57 142.37 132.69 142.20 Z M 133.75 142.04 L 134.78 141.87 C 135.89 141.68 136.64 140.62 136.45 139.51 C 136.25 138.40 135.20 137.65 134.09 137.84 L 133.06 138.02 C 131.95 138.21 131.20 139.27 131.40 140.38 C 131.59 141.49 132.64 142.24 133.75 142.04 Z M 134.82 141.86 L 135.83 141.66 C 136.93 141.45 137.66 140.38 137.45 139.28 C 137.23 138.17 136.16 137.45 135.06 137.66 L 134.05 137.85 C 132.94 138.06 132.22 139.13 132.43 140.24 C 132.64 141.35 133.71 142.07 134.82 141.86 Z M 135.86 141.66 L 136.82 141.46 C 137.92 141.23 138.63 140.15 138.40 139.05 C 138.17 137.94 137.09 137.24 135.99 137.47 L 135.03 137.67 C 133.93 137.90 133.22 138.97 133.45 140.08 C 133.68 141.18 134.76 141.89 135.86 141.66 Z M 136.84 141.45 L 137.78 141.24 C 138.88 141.00 139.57 139.91 139.33 138.82 C 139.09 137.72 138.00 137.02 136.91 137.27 L 135.97 137.47 C 134.87 137.72 134.17 138.80 134.42 139.90 C 134.66 141.00 135.74 141.69 136.84 141.45 Z M 137.80 141.23 L 138.90 140.98 C 139.99 140.73 140.67 139.63 140.42 138.54 C 140.16 137.45 139.07 136.77 137.98 137.02 L 136.88 137.27 C 135.79 137.53 135.11 138.62 135.36 139.71 C 135.62 140.81 136.71 141.49 137.80 141.23 Z M 138.92 140.97 L 139.88 140.74 C 140.96 140.47 141.63 139.37 141.36 138.28 C 141.10 137.20 140.00 136.53 138.91 136.79 L 137.95 137.03 C 136.87 137.29 136.20 138.39 136.47 139.48 C 136.73 140.57 137.83 141.24 138.92 140.97 Z M 139.89 140.73 L 140.77 140.51 C 141.85 140.24 142.51 139.14 142.24 138.05 C 141.97 136.97 140.87 136.31 139.78 136.58 L 138.90 136.80 C 137.81 137.07 137.16 138.17 137.43 139.26 C 137.70 140.34 138.80 141.00 139.89 140.73 Z M 140.77 140.51 L 141.67 140.28 C 142.75 140.01 143.41 138.91 143.14 137.83 C 142.87 136.74 141.77 136.09 140.69 136.36 L 139.79 136.58 C 138.70 136.85 138.04 137.95 138.31 139.03 C 138.59 140.12 139.68 140.78 140.77 140.51 Z M 141.66 140.28 L 142.62 140.04 C 143.71 139.77 144.37 138.68 144.10 137.60 C 143.83 136.52 142.74 135.85 141.66 136.12 L 140.70 136.36 C 139.62 136.62 138.95 137.72 139.22 138.80 C 139.49 139.88 140.58 140.54 141.66 140.28 Z M 142.62 140.04 L 143.60 139.80 C 144.68 139.53 145.34 138.44 145.07 137.36 C 144.81 136.28 143.71 135.62 142.63 135.88 L 141.66 136.12 C 140.58 136.39 139.92 137.48 140.18 138.57 C 140.45 139.65 141.54 140.31 142.62 140.04 Z M 143.61 139.79 L 144.60 139.54 C 145.67 139.27 146.33 138.18 146.05 137.10 C 145.78 136.02 144.69 135.37 143.61 135.64 L 142.63 135.89 C 141.55 136.16 140.89 137.25 141.17 138.33 C 141.44 139.41 142.53 140.06 143.61 139.79 Z M 144.61 139.54 L 145.56 139.29 C 146.64 139.01 147.28 137.91 147.00 136.84 C 146.72 135.77 145.63 135.12 144.55 135.40 L 143.60 135.65 C 142.53 135.93 141.88 137.02 142.16 138.10 C 142.44 139.17 143.53 139.81 144.61 139.54 Z M 145.57 139.28 L 146.54 139.03 C 147.61 138.74 148.24 137.65 147.96 136.58 C 147.68 135.51 146.58 134.87 145.51 135.15 L 144.55 135.41 C 143.48 135.69 142.84 136.78 143.12 137.86 C 143.40 138.93 144.50 139.56 145.57 139.28 Z M 146.54 139.02 L 147.51 138.76 C 148.58 138.48 149.22 137.38 148.93 136.32 C 148.65 135.25 147.55 134.61 146.49 134.90 L 145.51 135.16 C 144.44 135.44 143.81 136.53 144.09 137.60 C 144.37 138.67 145.47 139.31 146.54 139.02 Z M 147.51 138.76 L 148.47 138.51 C 149.54 138.22 150.17 137.13 149.89 136.07 C 149.61 135.00 148.52 134.36 147.45 134.65 L 146.49 134.90 C 145.42 135.18 144.79 136.27 145.07 137.34 C 145.35 138.41 146.44 139.04 147.51 138.76 Z M 148.47 138.50 L 149.42 138.25 C 150.49 137.97 151.12 136.88 150.84 135.82 C 150.57 134.75 149.48 134.12 148.41 134.40 L 147.46 134.65 C 146.39 134.93 145.76 136.02 146.04 137.08 C 146.31 138.15 147.40 138.78 148.47 138.50 Z M 149.42 138.25 L 150.39 137.99 C 151.45 137.71 152.09 136.63 151.81 135.56 C 151.53 134.50 150.44 133.87 149.38 134.15 L 148.41 134.40 C 147.35 134.68 146.71 135.77 146.99 136.83 C 147.27 137.89 148.36 138.53 149.42 138.25 Z M 150.39 137.99 L 151.38 137.73 C 152.44 137.45 153.07 136.36 152.79 135.30 C 152.51 134.24 151.42 133.61 150.36 133.89 L 149.38 134.15 C 148.32 134.43 147.68 135.52 147.97 136.58 C 148.25 137.64 149.33 138.27 150.39 137.99 Z M 151.38 137.72 L 152.36 137.46 C 153.41 137.18 154.04 136.09 153.75 135.03 C 153.47 133.98 152.38 133.35 151.32 133.63 L 150.35 133.89 C 149.30 134.18 148.67 135.27 148.95 136.32 C 149.24 137.38 150.33 138.01 151.38 137.72 Z M 152.36 137.46 L 153.33 137.19 C 154.39 136.91 155.01 135.82 154.72 134.76 C 154.44 133.71 153.35 133.09 152.29 133.37 L 151.32 133.64 C 150.27 133.93 149.64 135.01 149.93 136.07 C 150.22 137.12 151.31 137.74 152.36 137.46 Z M 153.33 137.19 L 154.30 136.92 C 155.36 136.64 155.98 135.55 155.69 134.50 C 155.40 133.44 154.31 132.82 153.26 133.11 L 152.29 133.38 C 151.24 133.67 150.62 134.75 150.91 135.80 C 151.19 136.86 152.28 137.48 153.33 137.19 Z M 154.30 136.92 L 155.26 136.66 C 156.31 136.37 156.93 135.29 156.64 134.24 C 156.35 133.19 155.27 132.57 154.22 132.85 L 153.26 133.12 C 152.21 133.40 151.59 134.49 151.88 135.54 C 152.17 136.59 153.25 137.21 154.30 136.92 Z M 155.25 136.66 L 156.25 136.39 C 157.30 136.10 157.92 135.02 157.63 133.97 C 157.35 132.92 156.27 132.30 155.22 132.59 L 154.22 132.86 C 153.17 133.14 152.55 134.22 152.84 135.27 C 153.12 136.32 154.20 136.94 155.25 136.66 Z M 156.24 136.38 L 157.22 136.12 C 158.27 135.84 158.89 134.76 158.61 133.71 C 158.32 132.66 157.24 132.04 156.20 132.33 L 155.22 132.59 C 154.17 132.87 153.55 133.95 153.84 135.00 C 154.12 136.05 155.20 136.67 156.24 136.38 Z M 157.21 136.12 L 158.16 135.87 C 159.21 135.59 159.83 134.52 159.55 133.47 C 159.27 132.42 158.20 131.80 157.15 132.08 L 156.20 132.33 C 155.16 132.61 154.53 133.68 154.81 134.73 C 155.09 135.78 156.16 136.40 157.21 136.12 Z M 158.15 135.87 L 159.10 135.62 C 160.15 135.35 160.78 134.28 160.50 133.23 C 160.23 132.18 159.16 131.56 158.11 131.83 L 157.16 132.08 C 156.11 132.35 155.49 133.42 155.76 134.47 C 156.03 135.51 157.10 136.14 158.15 135.87 Z M 159.09 135.62 L 160.07 135.37 C 161.12 135.10 161.75 134.04 161.48 132.99 C 161.21 131.94 160.15 131.31 159.10 131.58 L 158.12 131.83 C 157.08 132.10 156.45 133.16 156.71 134.21 C 156.98 135.25 158.05 135.89 159.09 135.62 Z M 160.06 135.37 L 161.03 135.12 C 162.07 134.86 162.71 133.80 162.44 132.75 C 162.18 131.71 161.12 131.07 160.07 131.34 L 159.11 131.58 C 158.06 131.84 157.43 132.91 157.69 133.95 C 157.96 135.00 159.02 135.63 160.06 135.37 Z M 161.02 135.12 L 161.98 134.88 C 163.02 134.62 163.66 133.56 163.40 132.52 C 163.14 131.47 162.08 130.84 161.03 131.10 L 160.08 131.34 C 159.03 131.60 158.40 132.66 158.66 133.70 C 158.92 134.75 159.98 135.38 161.02 135.12 Z M 161.98 134.88 L 162.96 134.63 C 164.00 134.37 164.63 133.32 164.37 132.28 C 164.11 131.23 163.06 130.60 162.01 130.86 L 161.04 131.10 C 160.00 131.36 159.36 132.42 159.62 133.46 C 159.88 134.50 160.94 135.14 161.98 134.88 Z M 162.95 134.63 L 163.92 134.39 C 164.96 134.13 165.60 133.08 165.34 132.04 C 165.09 131.00 164.03 130.37 162.99 130.62 L 162.02 130.86 C 160.98 131.12 160.35 132.17 160.60 133.21 C 160.86 134.25 161.91 134.89 162.95 134.63 Z M 163.91 134.39 L 164.88 134.16 C 165.92 133.91 166.56 132.86 166.31 131.82 C 166.06 130.78 165.01 130.14 163.97 130.39 L 163.01 130.62 C 161.97 130.87 161.33 131.92 161.58 132.96 C 161.83 134.00 162.87 134.64 163.91 134.39 Z M 164.86 134.16 L 165.69 133.96 C 166.73 133.72 167.38 132.69 167.14 131.65 C 166.90 130.61 165.86 129.96 164.82 130.20 L 163.99 130.39 C 162.95 130.63 162.30 131.67 162.54 132.71 C 162.78 133.75 163.82 134.40 164.86 134.16 Z M 165.66 133.97 L 166.51 133.79 C 167.55 133.57 168.21 132.54 167.99 131.50 C 167.77 130.46 166.75 129.79 165.71 130.02 L 164.86 130.20 C 163.82 130.42 163.15 131.44 163.37 132.48 C 163.59 133.52 164.62 134.19 165.66 133.97 Z M 166.46 133.79 L 167.44 133.61 C 168.49 133.42 169.18 132.41 168.98 131.37 C 168.79 130.32 167.78 129.63 166.74 129.83 L 165.75 130.01 C 164.71 130.20 164.02 131.21 164.22 132.25 C 164.41 133.30 165.41 133.99 166.46 133.79 Z M 167.39 133.62 L 168.59 133.42 C 169.64 133.25 170.35 132.27 170.18 131.22 C 170.01 130.17 169.03 129.46 167.98 129.63 L 166.78 129.82 C 165.74 129.99 165.02 130.98 165.19 132.02 C 165.36 133.07 166.35 133.78 167.39 133.62 Z M 168.56 133.42 L 169.53 133.29 C 170.57 133.14 171.30 132.16 171.15 131.12 C 171.00 130.07 170.03 129.34 168.98 129.49 L 168.01 129.63 C 166.96 129.78 166.24 130.75 166.39 131.80 C 166.54 132.85 167.51 133.57 168.56 133.42 Z M 169.50 133.29 L 170.47 133.16 C 171.52 133.02 172.26 132.06 172.12 131.01 C 171.98 129.96 171.02 129.22 169.97 129.36 L 169.00 129.49 C 167.96 129.63 167.22 130.59 167.36 131.64 C 167.49 132.69 168.46 133.42 169.50 133.29 Z M 170.45 133.16 L 171.48 133.03 C 172.53 132.91 173.28 131.95 173.15 130.90 C 173.02 129.85 172.07 129.11 171.02 129.24 L 169.99 129.36 C 168.94 129.49 168.20 130.44 168.32 131.49 C 168.45 132.54 169.41 133.29 170.45 133.16 Z M 171.46 133.03 L 172.51 132.92 C 173.56 132.80 174.31 131.85 174.20 130.81 C 174.08 129.76 173.13 129.00 172.09 129.12 L 171.04 129.24 C 169.99 129.35 169.23 130.30 169.35 131.35 C 169.47 132.40 170.41 133.15 171.46 133.03 Z M 172.49 132.92 L 173.53 132.81 C 174.58 132.71 175.34 131.77 175.24 130.72 C 175.13 129.67 174.20 128.91 173.15 129.01 L 172.11 129.12 C 171.06 129.22 170.29 130.16 170.40 131.21 C 170.50 132.26 171.44 133.02 172.49 132.92 Z M 173.50 132.81 L 174.50 132.73 C 175.55 132.63 176.33 131.71 176.24 130.66 C 176.15 129.61 175.22 128.84 174.17 128.93 L 173.17 129.01 C 172.12 129.11 171.35 130.03 171.44 131.08 C 171.53 132.13 172.46 132.90 173.50 132.81 Z M 174.47 132.72 L 175.57 132.65 C 176.62 132.58 177.42 131.67 177.35 130.62 C 177.28 129.58 176.37 128.78 175.32 128.85 L 174.21 128.93 C 173.16 129.00 172.37 129.90 172.44 130.95 C 172.51 132.00 173.42 132.79 174.47 132.72 Z M 175.49 132.65 L 176.70 132.62 C 177.75 132.59 178.58 131.72 178.55 130.68 C 178.53 129.63 177.66 128.80 176.61 128.83 L 175.40 128.86 C 174.36 128.88 173.53 129.75 173.55 130.80 C 173.58 131.84 174.45 132.67 175.49 132.65 Z M 176.53 132.60 L 177.54 132.67 C 178.58 132.74 179.48 131.96 179.55 130.92 C 179.62 129.88 178.83 128.98 177.80 128.91 L 176.79 128.84 C 175.75 128.77 174.85 129.56 174.78 130.60 C 174.71 131.63 175.49 132.53 176.53 132.60 Z M 177.24 132.62 L 178.06 132.81 C 179.07 133.05 180.08 132.42 180.31 131.41 C 180.55 130.40 179.92 129.39 178.91 129.16 L 178.10 128.96 C 177.09 128.73 176.08 129.35 175.84 130.36 C 175.61 131.37 176.23 132.38 177.24 132.62 Z M 177.58 132.62 L 178.26 132.99 C 179.16 133.49 180.30 133.16 180.80 132.26 C 181.29 131.35 180.97 130.22 180.06 129.72 L 179.39 129.35 C 178.48 128.85 177.35 129.18 176.85 130.08 C 176.35 130.98 176.68 132.12 177.58 132.62 Z M 177.70 132.50 L 178.28 133.24 C 178.91 134.05 180.08 134.19 180.89 133.56 C 181.69 132.93 181.84 131.76 181.21 130.96 L 180.62 130.21 C 179.99 129.41 178.83 129.26 178.02 129.89 C 177.21 130.53 177.07 131.69 177.70 132.50 Z M 177.96 132.58 L 178.22 133.53 C 178.48 134.52 179.50 135.10 180.48 134.84 C 181.47 134.57 182.05 133.56 181.78 132.57 L 181.53 131.62 C 181.26 130.63 180.25 130.05 179.26 130.32 C 178.28 130.58 177.70 131.60 177.96 132.58 Z M 178.17 132.96 L 178.11 134.00 C 178.06 135.01 178.84 135.87 179.85 135.93 C 180.86 135.98 181.72 135.20 181.78 134.19 L 181.83 133.15 C 181.89 132.14 181.11 131.28 180.10 131.22 C 179.09 131.17 178.22 131.94 178.17 132.96 Z M 178.21 133.58 L 177.94 134.49 C 177.65 135.45 178.20 136.46 179.16 136.74 C 180.12 137.03 181.13 136.48 181.42 135.52 L 181.69 134.61 C 181.97 133.65 181.42 132.64 180.46 132.35 C 179.50 132.07 178.49 132.62 178.21 133.58 Z M 178.06 134.24 L 177.63 135.15 C 177.21 136.04 177.59 137.11 178.49 137.53 C 179.38 137.95 180.45 137.57 180.87 136.67 L 181.30 135.77 C 181.72 134.87 181.33 133.81 180.44 133.38 C 179.54 132.96 178.48 133.35 178.06 134.24 Z M 177.74 135.00 L 177.20 135.89 C 176.70 136.72 176.97 137.80 177.81 138.31 C 178.64 138.81 179.72 138.54 180.23 137.71 L 180.76 136.82 C 181.26 135.99 180.99 134.90 180.16 134.40 C 179.32 133.90 178.24 134.17 177.74 135.00 Z M 177.29 135.80 L 176.70 136.64 C 176.16 137.43 176.35 138.51 177.14 139.06 C 177.92 139.61 179.01 139.42 179.56 138.63 L 180.14 137.79 C 180.69 137.00 180.50 135.92 179.71 135.37 C 178.92 134.82 177.84 135.02 177.29 135.80 Z M 176.77 136.59 L 176.16 137.38 C 175.59 138.13 175.72 139.20 176.47 139.78 C 177.22 140.36 178.30 140.22 178.88 139.47 L 179.49 138.68 C 180.07 137.93 179.93 136.86 179.18 136.28 C 178.43 135.70 177.35 135.84 176.77 136.59 Z M 176.23 137.33 L 175.59 138.09 C 174.99 138.81 175.08 139.88 175.79 140.48 C 176.51 141.08 177.57 140.99 178.18 140.27 L 178.82 139.51 C 179.42 138.80 179.33 137.73 178.61 137.13 C 177.90 136.53 176.83 136.62 176.23 137.33 Z M 175.65 138.06 L 174.97 138.81 C 174.35 139.49 174.41 140.54 175.09 141.16 C 175.77 141.78 176.82 141.73 177.44 141.05 L 178.12 140.30 C 178.74 139.62 178.68 138.57 178.00 137.95 C 177.32 137.33 176.26 137.38 175.65 138.06 Z M 175.02 138.78 L 174.34 139.49 C 173.71 140.15 173.73 141.19 174.39 141.82 C 175.04 142.46 176.09 142.44 176.72 141.78 L 177.40 141.07 C 178.03 140.41 178.01 139.37 177.35 138.74 C 176.69 138.10 175.65 138.13 175.02 138.78 Z M 174.37 139.47 L 173.67 140.16 C 173.03 140.80 173.03 141.84 173.67 142.49 C 174.31 143.13 175.35 143.13 176.00 142.49 L 176.69 141.80 C 177.34 141.16 177.34 140.12 176.70 139.47 C 176.05 138.83 175.01 138.83 174.37 139.47 Z M 173.70 140.14 L 172.97 140.84 C 172.32 141.46 172.30 142.50 172.93 143.16 C 173.56 143.81 174.60 143.83 175.25 143.21 L 175.97 142.51 C 176.63 141.88 176.65 140.84 176.02 140.19 C 175.39 139.53 174.35 139.51 173.70 140.14 Z M 172.99 140.82 L 172.24 141.52 C 171.58 142.14 171.54 143.18 172.16 143.84 C 172.78 144.50 173.82 144.54 174.48 143.92 L 175.23 143.22 C 175.89 142.60 175.93 141.56 175.31 140.90 C 174.69 140.24 173.66 140.20 172.99 140.82 Z M 172.26 141.51 L 171.52 142.19 C 170.85 142.80 170.80 143.83 171.41 144.50 C 172.02 145.17 173.06 145.22 173.73 144.61 L 174.47 143.93 C 175.13 143.32 175.18 142.29 174.57 141.62 C 173.96 140.95 172.92 140.90 172.26 141.51 Z M 171.53 142.18 L 170.79 142.84 C 170.12 143.44 170.06 144.48 170.67 145.15 C 171.27 145.83 172.31 145.88 172.98 145.28 L 173.72 144.61 C 174.39 144.01 174.44 142.97 173.84 142.30 C 173.24 141.63 172.20 141.57 171.53 142.18 Z M 170.80 142.83 L 170.05 143.50 C 169.37 144.10 169.31 145.14 169.91 145.81 C 170.51 146.49 171.55 146.55 172.22 145.95 L 172.97 145.28 C 173.65 144.68 173.71 143.65 173.11 142.97 C 172.51 142.29 171.47 142.23 170.80 142.83 Z M 170.05 143.50 L 169.29 144.17 C 168.62 144.76 168.55 145.80 169.15 146.48 C 169.75 147.16 170.78 147.22 171.46 146.62 L 172.22 145.95 C 172.90 145.35 172.96 144.32 172.36 143.64 C 171.76 142.96 170.73 142.90 170.05 143.50 Z M 169.30 144.17 L 168.76 144.63 C 168.08 145.23 168.02 146.27 168.62 146.95 C 169.21 147.62 170.25 147.69 170.93 147.09 L 171.46 146.62 C 172.14 146.03 172.20 144.99 171.61 144.31 C 171.01 143.63 169.97 143.57 169.30 144.17 Z"
      fill="black"
      fill-rule="nonzero" /><path d="M 151.35 150.24 L 151.35 151.21 C 151.35 152.27 152.21 153.13 153.27 153.13 C 154.33 153.13 155.19 152.27 155.19 151.21 L 155.19 150.24 C 155.19 149.18 154.33 148.32 153.27 148.32 C 152.21 148.32 151.35 149.18 151.35 150.24 Z M 151.34 151.21 L 151.34 152.19 C 151.34 153.25 152.20 154.12 153.27 154.12 C 154.33 154.12 155.19 153.25 155.19 152.19 L 155.19 151.21 C 155.19 150.14 154.33 149.28 153.27 149.28 C 152.20 149.28 151.34 150.14 151.34 151.21 Z M 151.34 152.19 L 151.34 153.20 C 151.34 154.27 152.20 155.14 153.27 155.14 C 154.33 155.14 155.20 154.27 155.20 153.20 L 155.20 152.19 C 155.20 151.12 154.33 150.26 153.27 150.26 C 152.20 150.26 151.34 151.12 151.34 152.19 Z M 151.33 153.20 L 151.33 154.24 C 151.33 155.31 152.20 156.18 153.27 156.18 C 154.34 156.18 155.20 155.31 155.20 154.24 L 155.20 153.20 C 155.20 152.13 154.34 151.27 153.27 151.27 C 152.20 151.27 151.33 152.13 151.33 153.20 Z M 151.33 154.24 L 151.33 155.26 C 151.33 156.33 152.20 157.19 153.27 157.19 C 154.34 157.19 155.20 156.33 155.20 155.26 L 155.20 154.24 C 155.20 153.17 154.34 152.30 153.27 152.30 C 152.20 152.30 151.33 153.17 151.33 154.24 Z M 151.34 155.26 L 151.34 156.28 C 151.34 157.35 152.20 158.21 153.27 158.21 C 154.33 158.21 155.20 157.35 155.20 156.28 L 155.20 155.26 C 155.20 154.19 154.33 153.32 153.27 153.32 C 152.20 153.32 151.34 154.19 151.34 155.26 Z M 151.34 156.28 L 151.34 157.28 C 151.34 158.34 152.20 159.20 153.27 159.20 C 154.33 159.20 155.19 158.34 155.19 157.28 L 155.19 156.28 C 155.19 155.22 154.33 154.35 153.27 154.35 C 152.20 154.35 151.34 155.22 151.34 156.28 Z M 151.35 157.28 L 151.35 158.27 C 151.35 159.33 152.21 160.19 153.27 160.19 C 154.33 160.19 155.19 159.33 155.19 158.27 L 155.19 157.28 C 155.19 156.22 154.33 155.36 153.27 155.36 C 152.21 155.36 151.35 156.22 151.35 157.28 Z M 151.35 158.27 L 151.35 159.32 C 151.35 160.38 152.21 161.23 153.27 161.23 C 154.32 161.23 155.18 160.38 155.18 159.32 L 155.18 158.27 C 155.18 157.21 154.32 156.36 153.27 156.36 C 152.21 156.36 151.35 157.21 151.35 158.27 Z M 151.36 159.32 L 151.36 160.30 C 151.36 161.35 152.21 162.20 153.27 162.20 C 154.32 162.20 155.17 161.35 155.17 160.30 L 155.17 159.32 C 155.17 158.27 154.32 157.41 153.27 157.41 C 152.21 157.41 151.36 158.27 151.36 159.32 Z M 151.37 160.30 L 151.37 161.24 C 151.37 162.29 152.22 163.14 153.27 163.14 C 154.32 163.14 155.16 162.29 155.16 161.24 L 155.16 160.30 C 155.16 159.25 154.32 158.40 153.27 158.40 C 152.22 158.40 151.37 159.25 151.37 160.30 Z M 151.38 161.24 L 151.38 162.22 C 151.38 163.26 152.22 164.11 153.27 164.11 C 154.31 164.11 155.16 163.26 155.16 162.22 L 155.16 161.24 C 155.16 160.20 154.31 159.35 153.27 159.35 C 152.22 159.35 151.38 160.20 151.38 161.24 Z M 151.38 162.22 L 151.38 163.21 C 151.38 164.25 152.23 165.09 153.27 165.09 C 154.31 165.09 155.15 164.25 155.15 163.21 L 155.15 162.22 C 155.15 161.17 154.31 160.33 153.27 160.33 C 152.23 160.33 151.38 161.17 151.38 162.22 Z M 151.39 163.21 L 151.39 164.23 C 151.39 165.27 152.23 166.11 153.27 166.11 C 154.31 166.11 155.15 165.27 155.15 164.23 L 155.15 163.21 C 155.15 162.17 154.31 161.33 153.27 161.33 C 152.23 161.33 151.39 162.17 151.39 163.21 Z M 151.39 164.23 L 151.39 165.22 C 151.39 166.25 152.23 167.09 153.27 167.09 C 154.30 167.09 155.14 166.25 155.14 165.22 L 155.14 164.23 C 155.14 163.19 154.30 162.35 153.27 162.35 C 152.23 162.35 151.39 163.19 151.39 164.23 Z M 151.40 165.22 L 151.40 166.21 C 151.40 167.24 152.23 168.08 153.27 168.08 C 154.30 168.08 155.14 167.24 155.14 166.21 L 155.14 165.22 C 155.14 164.18 154.30 163.35 153.27 163.35 C 152.23 163.35 151.40 164.18 151.40 165.22 Z M 151.40 166.21 L 151.40 167.22 C 151.40 168.25 152.24 169.08 153.27 169.08 C 154.30 169.08 155.13 168.25 155.13 167.22 L 155.13 166.21 C 155.13 165.18 154.30 164.34 153.27 164.34 C 152.24 164.34 151.40 165.18 151.40 166.21 Z M 151.41 167.22 L 151.41 168.24 C 151.41 169.27 152.24 170.10 153.27 170.10 C 154.29 170.10 155.13 169.27 155.13 168.24 L 155.13 167.22 C 155.13 166.19 154.29 165.36 153.27 165.36 C 152.24 165.36 151.41 166.19 151.41 167.22 Z M 151.41 168.24 L 151.41 169.23 C 151.41 170.25 152.24 171.08 153.26 171.09 C 154.29 171.09 155.12 170.26 155.12 169.23 L 155.12 168.24 C 155.12 167.22 154.29 166.39 153.27 166.39 C 152.25 166.39 151.42 167.21 151.41 168.24 Z M 151.42 169.23 L 151.42 170.23 C 151.41 171.25 152.24 172.08 153.26 172.08 C 154.27 172.08 155.10 171.26 155.11 170.24 L 155.11 169.24 C 155.12 168.22 154.29 167.39 153.27 167.39 C 152.25 167.38 151.42 168.21 151.42 169.23 Z M 151.42 170.22 L 151.41 171.22 C 151.40 172.24 152.22 173.07 153.23 173.08 C 154.25 173.09 155.08 172.27 155.09 171.26 L 155.10 170.25 C 155.11 169.24 154.30 168.40 153.28 168.39 C 152.26 168.38 151.43 169.20 151.42 170.22 Z M 151.42 171.21 L 151.40 172.21 C 151.38 173.22 152.19 174.06 153.20 174.07 C 154.21 174.09 155.05 173.29 155.07 172.27 L 155.09 171.27 C 155.10 170.26 154.30 169.42 153.29 169.40 C 152.27 169.39 151.44 170.19 151.42 171.21 Z M 151.41 172.19 L 151.38 173.19 C 151.35 174.20 152.15 175.04 153.16 175.07 C 154.17 175.09 155.01 174.30 155.03 173.29 L 155.06 172.29 C 155.09 171.28 154.29 170.44 153.29 170.41 C 152.28 170.39 151.44 171.18 151.41 172.19 Z M 151.39 173.17 L 151.35 174.17 C 151.31 175.18 152.10 176.02 153.10 176.06 C 154.11 176.10 154.95 175.31 154.99 174.31 L 155.03 173.31 C 155.06 172.30 154.28 171.46 153.27 171.42 C 152.27 171.38 151.43 172.17 151.39 173.17 Z M 151.36 174.15 L 151.31 175.15 C 151.27 176.15 152.04 177.00 153.04 177.05 C 154.04 177.10 154.89 176.32 154.93 175.32 L 154.98 174.32 C 155.03 173.32 154.25 172.48 153.25 172.43 C 152.25 172.38 151.41 173.15 151.36 174.15 Z M 151.32 175.14 L 151.27 176.13 C 151.21 177.13 151.97 177.98 152.97 178.03 C 153.96 178.09 154.81 177.33 154.87 176.33 L 154.93 175.34 C 154.98 174.34 154.22 173.49 153.22 173.44 C 152.23 173.38 151.38 174.14 151.32 175.14 Z M 151.27 176.11 L 151.21 177.11 C 151.14 178.10 151.89 178.95 152.88 179.02 C 153.87 179.09 154.73 178.33 154.80 177.34 L 154.86 176.35 C 154.93 175.36 154.18 174.50 153.19 174.44 C 152.19 174.37 151.34 175.12 151.27 176.11 Z M 151.22 177.09 L 151.14 178.09 C 151.07 179.08 151.81 179.94 152.79 180.01 C 153.78 180.08 154.64 179.34 154.71 178.36 L 154.79 177.36 C 154.86 176.37 154.12 175.51 153.14 175.44 C 152.15 175.37 151.29 176.11 151.22 177.09 Z M 151.15 178.08 L 151.07 179.08 C 150.98 180.06 151.71 180.92 152.69 181.01 C 153.68 181.09 154.54 180.36 154.62 179.38 L 154.70 178.37 C 154.79 177.39 154.06 176.53 153.08 176.45 C 152.09 176.37 151.23 177.09 151.15 178.08 Z M 151.08 179.07 L 150.98 180.09 C 150.89 181.06 151.61 181.93 152.59 182.02 C 153.56 182.11 154.43 181.39 154.52 180.41 L 154.61 179.39 C 154.70 178.42 153.98 177.55 153.01 177.46 C 152.03 177.37 151.17 178.09 151.08 179.07 Z M 150.99 180.07 L 150.89 181.09 C 150.79 182.06 151.50 182.92 152.47 183.02 C 153.44 183.12 154.31 182.41 154.40 181.44 L 154.51 180.43 C 154.60 179.46 153.89 178.59 152.92 178.49 C 151.95 178.40 151.09 179.10 150.99 180.07 Z M 150.90 181.07 L 150.80 182.06 C 150.69 183.02 151.39 183.89 152.36 183.99 C 153.32 184.10 154.19 183.40 154.29 182.43 L 154.39 181.45 C 154.50 180.48 153.80 179.62 152.84 179.51 C 151.87 179.41 151.00 180.11 150.90 181.07 Z M 150.81 182.05 L 150.70 182.98 C 150.59 183.94 151.28 184.80 152.24 184.91 C 153.20 185.02 154.06 184.33 154.17 183.37 L 154.28 182.44 C 154.39 181.48 153.70 180.62 152.74 180.51 C 151.78 180.40 150.92 181.09 150.81 182.05 Z M 150.71 182.97 L 150.60 183.86 C 150.49 184.82 151.17 185.68 152.12 185.80 C 153.08 185.91 153.94 185.23 154.06 184.27 L 154.16 183.38 C 154.28 182.43 153.60 181.56 152.64 181.45 C 151.69 181.33 150.82 182.02 150.71 182.97 Z M 150.61 183.86 L 150.50 184.80 C 150.38 185.75 151.06 186.62 152.01 186.73 C 152.96 186.84 153.83 186.17 153.94 185.22 L 154.05 184.27 C 154.17 183.32 153.49 182.46 152.54 182.35 C 151.59 182.23 150.72 182.91 150.61 183.86 Z M 150.50 184.81 L 150.38 185.88 C 150.27 186.83 150.95 187.69 151.89 187.80 C 152.84 187.91 153.70 187.23 153.81 186.28 L 153.93 185.21 C 154.04 184.26 153.36 183.40 152.42 183.29 C 151.47 183.18 150.61 183.86 150.50 184.81 Z M 150.38 185.89 L 150.27 186.95 C 150.16 187.90 150.84 188.75 151.79 188.85 C 152.73 188.96 153.58 188.27 153.69 187.33 L 153.80 186.27 C 153.91 185.32 153.23 184.47 152.28 184.37 C 151.34 184.27 150.49 184.95 150.38 185.89 Z M 150.27 186.96 L 150.17 187.95 C 150.07 188.89 150.75 189.73 151.69 189.83 C 152.63 189.93 153.48 189.25 153.58 188.31 L 153.68 187.32 C 153.78 186.38 153.10 185.54 152.16 185.44 C 151.22 185.34 150.37 186.02 150.27 186.96 Z M 150.17 187.95 L 150.06 188.99 C 149.96 189.93 150.65 190.77 151.59 190.87 C 152.53 190.97 153.37 190.28 153.46 189.35 L 153.57 188.31 C 153.67 187.37 152.99 186.53 152.05 186.43 C 151.11 186.33 150.27 187.01 150.17 187.95 Z M 150.07 188.99 L 149.96 190.04 C 149.86 190.97 150.54 191.81 151.48 191.91 C 152.41 192.01 153.25 191.33 153.35 190.39 L 153.46 189.34 C 153.56 188.41 152.88 187.57 151.94 187.47 C 151.00 187.37 150.17 188.05 150.07 188.99 Z M 149.96 190.03 L 149.86 191.04 C 149.76 191.97 150.44 192.81 151.37 192.91 C 152.30 193.01 153.14 192.33 153.24 191.40 L 153.34 190.39 C 153.44 189.46 152.77 188.62 151.83 188.52 C 150.90 188.42 150.06 189.10 149.96 190.03 Z M 149.86 191.04 L 149.76 192.00 C 149.66 192.93 150.33 193.76 151.26 193.86 C 152.19 193.97 153.03 193.29 153.13 192.36 L 153.23 191.40 C 153.33 190.47 152.66 189.64 151.73 189.54 C 150.80 189.43 149.97 190.11 149.86 191.04 Z M 149.77 191.99 L 149.63 193.17 C 149.53 194.10 150.19 194.93 151.11 195.04 C 152.03 195.15 152.87 194.48 152.98 193.56 L 153.12 192.37 C 153.22 191.45 152.56 190.61 151.64 190.51 C 150.71 190.40 149.88 191.06 149.77 191.99 Z M 149.65 193.16 L 149.53 194.14 C 149.41 195.06 150.06 195.89 150.97 196.01 C 151.89 196.12 152.72 195.47 152.84 194.56 L 152.96 193.57 C 153.08 192.66 152.43 191.83 151.51 191.71 C 150.60 191.60 149.76 192.24 149.65 193.16 Z M 149.54 194.13 L 149.43 194.99 C 149.31 195.90 149.94 196.73 150.85 196.85 C 151.75 196.97 152.59 196.34 152.71 195.43 L 152.82 194.57 C 152.94 193.66 152.31 192.83 151.40 192.71 C 150.49 192.59 149.66 193.23 149.54 194.13 Z M 149.44 194.99 L 149.38 195.39 C 149.26 196.29 149.89 197.12 150.79 197.24 C 151.69 197.36 152.52 196.73 152.64 195.83 L 152.70 195.43 C 152.82 194.53 152.19 193.71 151.29 193.58 C 150.39 193.46 149.56 194.09 149.44 194.99 Z"
      fill="black"
      fill-rule="nonzero" /><path d="M 128.30 205.50 L 129.12 205.02 C 129.97 204.53 130.25 203.44 129.76 202.60 C 129.27 201.75 128.19 201.47 127.34 201.96 L 126.52 202.44 C 125.67 202.93 125.38 204.02 125.88 204.86 C 126.37 205.71 127.45 205.99 128.30 205.50 Z M 129.12 205.15 L 129.98 204.69 C 130.90 204.20 131.24 203.06 130.75 202.14 C 130.26 201.22 129.12 200.88 128.21 201.37 L 127.34 201.83 C 126.43 202.32 126.08 203.46 126.57 204.38 C 127.06 205.29 128.20 205.64 129.12 205.15 Z M 129.91 204.85 L 130.84 204.43 C 131.85 203.98 132.30 202.79 131.85 201.79 C 131.39 200.78 130.21 200.34 129.21 200.79 L 128.27 201.21 C 127.27 201.66 126.82 202.84 127.27 203.85 C 127.73 204.85 128.91 205.30 129.91 204.85 Z M 130.71 204.58 L 131.68 204.24 C 132.77 203.86 133.35 202.67 132.97 201.58 C 132.59 200.50 131.40 199.92 130.31 200.30 L 129.34 200.64 C 128.25 201.02 127.68 202.21 128.06 203.29 C 128.44 204.38 129.62 204.96 130.71 204.58 Z M 131.54 204.32 L 132.52 204.06 C 133.65 203.76 134.32 202.60 134.02 201.46 C 133.72 200.33 132.56 199.66 131.42 199.96 L 130.45 200.22 C 129.32 200.52 128.65 201.68 128.95 202.82 C 129.25 203.95 130.41 204.62 131.54 204.32 Z M 132.42 204.09 L 133.42 203.88 C 134.57 203.63 135.30 202.50 135.06 201.35 C 134.81 200.20 133.68 199.47 132.53 199.71 L 131.52 199.93 C 130.37 200.17 129.64 201.31 129.89 202.46 C 130.13 203.61 131.27 204.34 132.42 204.09 Z M 133.35 203.90 L 134.34 203.72 C 135.51 203.51 136.28 202.40 136.07 201.24 C 135.86 200.08 134.75 199.30 133.59 199.51 L 132.59 199.69 C 131.43 199.90 130.66 201.01 130.87 202.17 C 131.08 203.34 132.19 204.11 133.35 203.90 Z M 134.30 203.74 L 135.30 203.58 C 136.47 203.39 137.26 202.29 137.08 201.12 C 136.89 199.95 135.79 199.15 134.62 199.34 L 133.63 199.50 C 132.45 199.69 131.66 200.79 131.85 201.96 C 132.03 203.13 133.13 203.92 134.30 203.74 Z M 135.27 203.58 L 136.29 203.43 C 137.47 203.26 138.28 202.17 138.11 200.99 C 137.93 199.82 136.84 199.01 135.66 199.18 L 134.64 199.33 C 133.47 199.51 132.66 200.60 132.83 201.77 C 133.01 202.95 134.10 203.76 135.27 203.58 Z M 136.28 203.44 L 137.24 203.30 C 138.42 203.14 139.24 202.05 139.07 200.87 C 138.91 199.70 137.82 198.88 136.64 199.04 L 135.68 199.18 C 134.50 199.34 133.68 200.43 133.85 201.61 C 134.01 202.78 135.10 203.60 136.28 203.44 Z M 137.24 203.31 L 138.19 203.17 C 139.37 203.01 140.19 201.92 140.03 200.74 C 139.87 199.57 138.78 198.74 137.60 198.91 L 136.65 199.04 C 135.47 199.20 134.65 200.29 134.81 201.47 C 134.97 202.65 136.06 203.47 137.24 203.31 Z M 138.20 203.17 L 139.14 203.04 C 140.32 202.87 141.14 201.78 140.97 200.60 C 140.81 199.43 139.72 198.61 138.54 198.77 L 137.59 198.91 C 136.42 199.07 135.60 200.16 135.76 201.34 C 135.93 202.52 137.02 203.34 138.20 203.17 Z M 139.14 203.04 L 140.12 202.90 C 141.30 202.74 142.12 201.65 141.95 200.47 C 141.79 199.29 140.70 198.47 139.52 198.63 L 138.54 198.77 C 137.36 198.94 136.54 200.03 136.71 201.21 C 136.87 202.39 137.96 203.21 139.14 203.04 Z M 140.11 202.90 L 141.12 202.77 C 142.30 202.61 143.13 201.52 142.97 200.34 C 142.81 199.16 141.72 198.33 140.54 198.49 L 139.53 198.63 C 138.35 198.79 137.52 199.88 137.68 201.06 C 137.84 202.24 138.93 203.06 140.11 202.90 Z M 141.10 202.77 L 142.11 202.64 C 143.29 202.50 144.13 201.42 143.98 200.24 C 143.84 199.06 142.76 198.22 141.58 198.37 L 140.57 198.49 C 139.38 198.64 138.55 199.72 138.69 200.90 C 138.84 202.08 139.92 202.92 141.10 202.77 Z M 142.09 202.65 L 143.05 202.54 C 144.24 202.40 145.09 201.33 144.95 200.15 C 144.82 198.97 143.75 198.12 142.57 198.25 L 141.60 198.36 C 140.42 198.50 139.57 199.57 139.70 200.75 C 139.84 201.93 140.90 202.78 142.09 202.65 Z M 143.04 202.54 L 144.03 202.44 C 145.21 202.31 146.07 201.25 145.94 200.06 C 145.82 198.88 144.76 198.02 143.57 198.15 L 142.58 198.25 C 141.40 198.37 140.54 199.44 140.66 200.62 C 140.79 201.81 141.85 202.66 143.04 202.54 Z M 144.01 202.44 L 145.03 202.34 C 146.21 202.22 147.08 201.16 146.96 199.98 C 146.84 198.79 145.79 197.93 144.60 198.04 L 143.59 198.14 C 142.40 198.26 141.54 199.32 141.65 200.50 C 141.77 201.69 142.83 202.55 144.01 202.44 Z M 145.02 202.34 L 146.03 202.24 C 147.22 202.13 148.08 201.07 147.97 199.89 C 147.86 198.70 146.80 197.83 145.62 197.95 L 144.61 198.04 C 143.42 198.16 142.55 199.21 142.67 200.39 C 142.78 201.58 143.83 202.45 145.02 202.34 Z M 146.02 202.24 L 146.99 202.15 C 148.18 202.04 149.05 200.99 148.94 199.80 C 148.83 198.61 147.78 197.74 146.59 197.85 L 145.62 197.94 C 144.44 198.06 143.56 199.11 143.68 200.29 C 143.79 201.48 144.84 202.35 146.02 202.24 Z M 146.99 202.15 L 147.98 202.06 C 149.16 201.95 150.04 200.90 149.93 199.71 C 149.82 198.53 148.77 197.65 147.58 197.76 L 146.59 197.85 C 145.41 197.96 144.53 199.01 144.64 200.20 C 144.75 201.39 145.80 202.26 146.99 202.15 Z M 147.97 202.06 L 148.98 201.97 C 150.17 201.86 151.04 200.81 150.94 199.63 C 150.83 198.44 149.78 197.57 148.60 197.67 L 147.59 197.76 C 146.40 197.87 145.52 198.92 145.63 200.10 C 145.74 201.29 146.79 202.17 147.97 202.06 Z M 148.98 201.97 L 150.01 201.88 C 151.19 201.77 152.07 200.73 151.97 199.54 C 151.86 198.35 150.82 197.48 149.63 197.58 L 148.60 197.67 C 147.41 197.78 146.54 198.82 146.64 200.01 C 146.74 201.20 147.79 202.07 148.98 201.97 Z M 150.00 201.88 L 151.00 201.79 C 152.19 201.69 153.07 200.65 152.96 199.46 C 152.86 198.27 151.82 197.39 150.63 197.50 L 149.63 197.58 C 148.45 197.68 147.57 198.73 147.67 199.92 C 147.77 201.10 148.82 201.98 150.00 201.88 Z M 151.00 201.79 L 152.00 201.71 C 153.19 201.60 154.07 200.56 153.97 199.37 C 153.86 198.19 152.82 197.31 151.63 197.41 L 150.63 197.50 C 149.45 197.60 148.57 198.64 148.67 199.83 C 148.77 201.01 149.81 201.89 151.00 201.79 Z M 152.00 201.70 L 153.01 201.62 C 154.19 201.52 155.07 200.47 154.97 199.29 C 154.87 198.10 153.82 197.23 152.64 197.33 L 151.63 197.41 C 150.45 197.51 149.57 198.56 149.67 199.74 C 149.77 200.93 150.82 201.81 152.00 201.70 Z M 153.01 201.62 L 154.00 201.53 C 155.19 201.43 156.06 200.39 155.96 199.20 C 155.86 198.02 154.82 197.14 153.63 197.24 L 152.64 197.33 C 151.45 197.43 150.58 198.47 150.68 199.66 C 150.78 200.84 151.82 201.72 153.01 201.62 Z M 154.01 201.53 L 155.00 201.44 C 156.19 201.34 157.06 200.29 156.96 199.11 C 156.85 197.93 155.81 197.05 154.63 197.16 L 153.63 197.24 C 152.45 197.35 151.57 198.39 151.68 199.57 C 151.78 200.76 152.82 201.63 154.01 201.53 Z M 155.01 201.44 L 156.03 201.35 C 157.21 201.24 158.08 200.20 157.97 199.01 C 157.87 197.83 156.82 196.96 155.64 197.07 L 154.62 197.16 C 153.44 197.27 152.57 198.31 152.68 199.49 C 152.78 200.67 153.83 201.54 155.01 201.44 Z M 156.03 201.34 L 157.03 201.25 C 158.21 201.14 159.08 200.10 158.97 198.92 C 158.86 197.74 157.82 196.87 156.64 196.98 L 155.64 197.07 C 154.46 197.18 153.59 198.22 153.70 199.40 C 153.81 200.58 154.85 201.45 156.03 201.34 Z M 157.03 201.25 L 158.02 201.16 C 159.19 201.05 160.06 200.00 159.95 198.82 C 159.84 197.65 158.79 196.78 157.62 196.89 L 156.63 196.98 C 155.46 197.09 154.59 198.14 154.70 199.31 C 154.81 200.49 155.86 201.36 157.03 201.25 Z M 158.02 201.15 L 158.99 201.06 C 160.16 200.95 161.03 199.91 160.92 198.73 C 160.80 197.55 159.76 196.69 158.58 196.80 L 157.61 196.89 C 156.44 197.01 155.58 198.05 155.69 199.23 C 155.80 200.40 156.84 201.26 158.02 201.15 Z M 158.99 201.06 L 160.00 200.96 C 161.17 200.85 162.03 199.81 161.92 198.63 C 161.81 197.46 160.76 196.60 159.59 196.71 L 158.58 196.81 C 157.41 196.92 156.55 197.96 156.66 199.13 C 156.77 200.31 157.81 201.17 158.99 201.06 Z M 159.99 200.96 L 160.99 200.86 C 162.17 200.75 163.03 199.71 162.92 198.54 C 162.80 197.37 161.77 196.51 160.59 196.62 L 159.59 196.71 C 158.42 196.82 157.56 197.86 157.67 199.04 C 157.78 200.21 158.82 201.07 159.99 200.96 Z M 160.99 200.86 L 161.98 200.77 C 163.15 200.66 164.01 199.63 163.90 198.46 C 163.80 197.29 162.76 196.43 161.59 196.53 L 160.60 196.62 C 159.43 196.73 158.57 197.76 158.68 198.93 C 158.78 200.10 159.82 200.97 160.99 200.86 Z M 161.97 200.77 L 162.95 200.68 C 164.12 200.58 164.99 199.55 164.89 198.38 C 164.79 197.21 163.76 196.35 162.59 196.45 L 161.60 196.54 C 160.44 196.64 159.57 197.66 159.67 198.83 C 159.77 200.00 160.80 200.87 161.97 200.77 Z M 162.94 200.68 L 163.94 200.60 C 165.11 200.50 165.98 199.48 165.88 198.32 C 165.79 197.15 164.77 196.28 163.60 196.37 L 162.60 196.45 C 161.44 196.55 160.57 197.57 160.66 198.73 C 160.75 199.90 161.77 200.77 162.94 200.68 Z M 163.93 200.59 L 164.93 200.52 C 166.09 200.43 166.97 199.42 166.88 198.26 C 166.79 197.09 165.78 196.22 164.62 196.30 L 163.62 196.38 C 162.45 196.46 161.58 197.48 161.66 198.64 C 161.75 199.81 162.76 200.68 163.93 200.59 Z M 164.92 200.52 L 165.91 200.45 C 167.07 200.37 167.95 199.36 167.87 198.20 C 167.79 197.04 166.78 196.16 165.62 196.24 L 164.63 196.31 C 163.46 196.39 162.59 197.40 162.67 198.56 C 162.75 199.72 163.76 200.60 164.92 200.52 Z M 165.91 200.44 L 166.90 200.38 C 168.06 200.30 168.94 199.29 168.86 198.14 C 168.78 196.98 167.78 196.10 166.62 196.18 L 165.63 196.24 C 164.47 196.32 163.59 197.32 163.67 198.48 C 163.75 199.64 164.75 200.52 165.91 200.44 Z M 166.90 200.37 L 167.90 200.30 C 169.06 200.23 169.93 199.23 169.86 198.07 C 169.78 196.91 168.78 196.04 167.63 196.12 L 166.62 196.18 C 165.46 196.26 164.59 197.26 164.67 198.42 C 164.74 199.57 165.74 200.45 166.90 200.37 Z M 167.90 200.30 L 168.91 200.23 C 170.06 200.16 170.93 199.16 170.86 198.01 C 170.78 196.86 169.79 195.98 168.63 196.06 L 167.63 196.12 C 166.48 196.20 165.60 197.19 165.68 198.35 C 165.75 199.50 166.75 200.37 167.90 200.30 Z M 168.90 200.22 L 169.90 200.16 C 171.04 200.09 171.92 199.10 171.85 197.95 C 171.78 196.81 170.79 195.93 169.64 196.00 L 168.64 196.06 C 167.49 196.13 166.62 197.12 166.69 198.27 C 166.76 199.42 167.75 200.30 168.90 200.22 Z M 169.88 200.16 L 170.87 200.10 C 172.01 200.04 172.89 199.06 172.83 197.91 C 172.76 196.77 171.78 195.89 170.64 195.95 L 169.65 196.01 C 168.51 196.07 167.63 197.05 167.69 198.20 C 167.76 199.34 168.74 200.22 169.88 200.16 Z M 170.85 200.09 L 171.85 200.05 C 172.99 199.99 173.87 199.02 173.82 197.88 C 173.76 196.74 172.79 195.86 171.65 195.91 L 170.65 195.96 C 169.51 196.02 168.63 196.99 168.69 198.13 C 168.74 199.27 169.71 200.15 170.85 200.09 Z M 171.84 200.04 L 172.83 200.00 C 173.96 199.95 174.85 198.99 174.80 197.85 C 174.75 196.71 173.79 195.83 172.65 195.88 L 171.66 195.92 C 170.53 195.97 169.64 196.93 169.69 198.07 C 169.74 199.20 170.70 200.09 171.84 200.04 Z M 172.82 199.99 L 173.81 199.95 C 174.94 199.91 175.83 198.96 175.79 197.82 C 175.74 196.69 174.79 195.81 173.66 195.85 L 172.66 195.89 C 171.53 195.93 170.65 196.88 170.69 198.01 C 170.73 199.15 171.69 200.03 172.82 199.99 Z M 173.81 199.94 L 174.82 199.90 C 175.94 199.87 176.83 198.92 176.79 197.79 C 176.75 196.67 175.80 195.79 174.68 195.83 L 173.67 195.86 C 172.54 195.90 171.66 196.84 171.70 197.97 C 171.74 199.10 172.68 199.98 173.81 199.94 Z M 174.82 199.89 L 175.83 199.86 C 176.95 199.82 177.83 198.88 177.79 197.76 C 177.75 196.64 176.81 195.77 175.69 195.80 L 174.68 195.84 C 173.56 195.88 172.68 196.81 172.72 197.93 C 172.76 199.05 173.70 199.93 174.82 199.89 Z M 175.83 199.84 L 176.85 199.81 C 177.96 199.77 178.83 198.84 178.79 197.73 C 178.75 196.62 177.82 195.75 176.71 195.79 L 175.70 195.82 C 174.58 195.86 173.71 196.79 173.75 197.90 C 173.79 199.01 174.72 199.88 175.83 199.84 Z M 176.85 199.79 L 177.85 199.76 C 178.95 199.72 179.81 198.80 179.77 197.69 C 179.74 196.59 178.81 195.73 177.71 195.77 L 176.71 195.80 C 175.61 195.84 174.75 196.76 174.78 197.87 C 174.82 198.97 175.75 199.83 176.85 199.79 Z M 177.85 199.74 L 178.83 199.71 C 179.92 199.67 180.78 198.75 180.74 197.66 C 180.70 196.56 179.78 195.71 178.69 195.75 L 177.71 195.78 C 176.61 195.82 175.76 196.74 175.80 197.83 C 175.84 198.93 176.75 199.78 177.85 199.74 Z M 178.84 199.69 L 179.88 199.65 C 180.97 199.61 181.81 198.70 181.77 197.61 C 181.73 196.53 180.82 195.68 179.73 195.72 L 178.69 195.76 C 177.60 195.80 176.75 196.72 176.80 197.80 C 176.84 198.89 177.75 199.73 178.84 199.69 Z M 179.89 199.63 L 180.88 199.59 C 181.95 199.55 182.79 198.64 182.74 197.57 C 182.70 196.49 181.79 195.66 180.72 195.70 L 179.73 195.74 C 178.65 195.78 177.82 196.69 177.86 197.77 C 177.91 198.84 178.81 199.68 179.89 199.63 Z M 180.88 199.58 L 181.83 199.54 C 182.90 199.49 183.72 198.59 183.68 197.53 C 183.64 196.46 182.74 195.63 181.67 195.68 L 180.72 195.72 C 179.65 195.76 178.82 196.66 178.87 197.73 C 178.91 198.79 179.81 199.62 180.88 199.58 Z M 181.83 199.52 L 182.74 199.48 C 183.80 199.44 184.62 198.54 184.57 197.49 C 184.53 196.43 183.64 195.61 182.58 195.66 L 181.67 195.70 C 180.62 195.74 179.80 196.63 179.84 197.69 C 179.88 198.74 180.78 199.56 181.83 199.52 Z M 182.73 199.46 L 183.68 199.43 C 184.72 199.39 185.54 198.51 185.50 197.46 C 185.46 196.42 184.58 195.60 183.53 195.64 L 182.59 195.68 C 181.55 195.72 180.73 196.60 180.77 197.64 C 180.81 198.69 181.69 199.50 182.73 199.46 Z M 183.66 199.41 L 184.70 199.38 C 185.73 199.35 186.55 198.49 186.52 197.45 C 186.49 196.42 185.63 195.60 184.59 195.63 L 183.55 195.66 C 182.52 195.69 181.70 196.55 181.73 197.59 C 181.76 198.62 182.62 199.44 183.66 199.41 Z M 184.68 199.36 L 185.72 199.34 C 186.75 199.32 187.56 198.48 187.55 197.45 C 187.53 196.43 186.68 195.61 185.66 195.63 L 184.61 195.65 C 183.59 195.67 182.77 196.51 182.79 197.54 C 182.81 198.56 183.65 199.38 184.68 199.36 Z M 185.71 199.33 L 186.64 199.32 C 187.66 199.31 188.47 198.47 188.46 197.46 C 188.45 196.44 187.62 195.63 186.61 195.64 L 185.67 195.65 C 184.66 195.66 183.84 196.49 183.85 197.50 C 183.86 198.52 184.69 199.34 185.71 199.33 Z M 186.63 199.30 L 187.63 199.30 C 188.64 199.29 189.45 198.47 189.45 197.46 C 189.44 196.46 188.62 195.64 187.61 195.65 L 186.62 195.65 C 185.61 195.66 184.80 196.48 184.80 197.49 C 184.81 198.49 185.63 199.31 186.63 199.30 Z M 187.63 199.28 L 188.66 199.28 C 189.66 199.28 190.47 198.47 190.47 197.47 C 190.47 196.47 189.66 195.66 188.66 195.66 L 187.62 195.66 C 186.62 195.66 185.81 196.48 185.81 197.48 C 185.82 198.48 186.63 199.28 187.63 199.28 Z M 188.66 199.27 L 189.72 199.27 C 190.71 199.26 191.51 198.46 191.51 197.47 C 191.51 196.48 190.71 195.67 189.71 195.67 L 188.66 195.67 C 187.67 195.67 186.86 196.48 186.87 197.47 C 186.87 198.46 187.67 199.27 188.66 199.27 Z M 189.72 199.25 L 190.75 199.25 C 191.73 199.25 192.53 198.45 192.53 197.47 C 192.53 196.49 191.73 195.69 190.75 195.69 L 189.72 195.69 C 188.73 195.69 187.94 196.49 187.94 197.47 C 187.94 198.45 188.73 199.25 189.72 199.25 Z M 190.75 199.22 L 191.76 199.22 C 192.73 199.22 193.52 198.44 193.52 197.47 C 193.52 196.50 192.73 195.71 191.76 195.71 L 190.75 195.71 C 189.78 195.71 189.00 196.50 189.00 197.47 C 189.00 198.44 189.78 199.22 190.75 199.22 Z M 191.76 199.20 L 192.76 199.20 C 193.72 199.20 194.50 198.42 194.50 197.47 C 194.50 196.51 193.72 195.74 192.76 195.74 L 191.76 195.74 C 190.81 195.74 190.03 196.51 190.03 197.47 C 190.03 198.42 190.81 199.20 191.76 199.20 Z M 192.76 199.17 L 193.76 199.17 C 194.70 199.17 195.46 198.41 195.46 197.47 C 195.46 196.53 194.70 195.76 193.76 195.76 L 192.76 195.76 C 191.82 195.76 191.06 196.53 191.06 197.47 C 191.06 198.41 191.82 199.17 192.76 199.17 Z M 193.76 199.15 L 194.75 199.15 C 195.67 199.15 196.43 198.40 196.43 197.47 C 196.43 196.54 195.67 195.79 194.75 195.79 L 193.76 195.79 C 192.83 195.79 192.08 196.54 192.08 197.47 C 192.08 198.40 192.83 199.15 193.76 199.15 Z M 194.75 199.13 L 195.17 199.13 C 196.09 199.13 196.84 198.39 196.84 197.47 C 196.84 196.55 196.09 195.81 195.17 195.81 L 194.75 195.81 C 193.83 195.81 193.08 196.55 193.08 197.47 C 193.08 198.39 193.83 199.13 194.75 199.13 Z"
      fill="black"
      fill-rule="nonzero" /></svg>