<svg xmlns="http://www.w3.org/2000/svg" width="300" height="300" viewBox="0 0 300 300">
<path d="M 130.91 126.97 L 131.38 125.68 C 131.72 124.77 131.25 123.76 130.34 123.43 C 129.44 123.09 128.43 123.56 128.09 124.47 L 127.62 125.76 C 127.28 126.66 127.75 127.67 128.66 128.01 C 129.57 128.34 130.57 127.88 130.91 126.97 Z M 131.37 125.85 L 131.78 124.99 C 132.20 124.09 131.82 123.02 130.93 122.59 C 130.03 122.16 128.95 122.54 128.52 123.44 L 128.11 124.29 C 127.68 125.19 128.06 126.27 128.96 126.70 C 129.86 127.13 130.94 126.75 131.37 125.85 Z M 130.35 126.05 L 130.62 126.02 C 131.63 125.91 132.36 125.00 132.25 123.98 C 132.14 122.97 131.23 122.23 130.21 122.35 L 129.95 122.38 C 128.93 122.49 128.20 123.40 128.31 124.42 C 128.42 125.43 129.34 126.16 130.35 126.05 Z M 128.57 124.51 L 128.69 125.17 C 128.87 126.19 129.85 126.87 130.86 126.69 C 131.88 126.51 132.56 125.53 132.38 124.52 L 132.26 123.85 C 132.08 122.84 131.10 122.16 130.09 122.34 C 129.07 122.52 128.39 123.50 128.57 124.51 Z M 128.65 124.94 L 128.71 126.04 C 128.77 127.07 129.65 127.87 130.69 127.82 C 131.73 127.76 132.52 126.88 132.47 125.84 L 132.41 124.75 C 132.36 123.71 131.47 122.91 130.43 122.97 C 129.40 123.02 128.60 123.91 128.65 124.94 Z M 128.70 125.98 L 128.73 127.29 C 128.76 128.34 129.63 129.16 130.67 129.13 C 131.72 129.11 132.54 128.24 132.51 127.20 L 132.48 125.89 C 132.45 124.84 131.59 124.02 130.54 124.05 C 129.50 124.07 128.67 124.94 128.70 125.98 Z M 128.73 127.30 L 128.76 128.39 C 128.79 129.43 129.67 130.26 130.72 130.22 C 131.76 130.19 132.59 129.32 132.55 128.27 L 132.52 127.19 C 132.49 126.14 131.61 125.32 130.57 125.35 C 129.52 125.38 128.70 126.26 128.73 127.30 Z M 128.76 128.41 L 128.80 129.39 C 128.85 130.44 129.73 131.25 130.78 131.21 C 131.83 131.16 132.64 130.28 132.60 129.23 L 132.55 128.25 C 132.51 127.20 131.63 126.39 130.58 126.43 C 129.53 126.48 128.72 127.36 128.76 128.41 Z M 128.80 129.41 L 128.85 130.39 C 128.91 131.44 129.80 132.24 130.84 132.19 C 131.89 132.14 132.70 131.25 132.64 130.20 L 132.59 129.22 C 132.54 128.17 131.65 127.36 130.60 127.42 C 129.56 127.47 128.75 128.36 128.80 129.41 Z M 128.85 130.40 L 128.91 131.40 C 128.96 132.44 129.86 133.25 130.91 133.19 C 131.95 133.13 132.75 132.24 132.70 131.19 L 132.64 130.19 C 132.59 129.15 131.69 128.34 130.65 128.40 C 129.60 128.46 128.80 129.35 128.85 130.40 Z M 128.91 131.40 L 128.96 132.43 C 129.02 133.47 129.92 134.28 130.96 134.22 C 132.01 134.16 132.81 133.27 132.75 132.22 L 132.70 131.19 C 132.64 130.14 131.75 129.34 130.70 129.40 C 129.65 129.46 128.85 130.35 128.91 131.40 Z M 128.96 132.42 L 129.02 133.44 C 129.07 134.49 129.97 135.29 131.01 135.24 C 132.06 135.18 132.86 134.29 132.81 133.24 L 132.75 132.22 C 132.70 131.18 131.81 130.37 130.76 130.43 C 129.71 130.48 128.91 131.38 128.96 132.42 Z M 129.02 133.44 L 129.07 134.47 C 129.13 135.52 130.02 136.33 131.07 136.27 C 132.11 136.22 132.92 135.32 132.86 134.28 L 132.81 133.24 C 132.75 132.20 131.86 131.39 130.81 131.45 C 129.77 131.50 128.96 132.39 129.02 133.44 Z M 129.07 134.48 L 129.13 135.50 C 129.18 136.54 130.07 137.35 131.12 137.29 C 132.17 137.24 132.97 136.34 132.92 135.30 L 132.86 134.28 C 132.81 133.23 131.91 132.42 130.87 132.48 C 129.82 132.54 129.02 133.43 129.07 134.48 Z M 129.13 135.50 L 129.18 136.48 C 129.24 137.53 130.13 138.33 131.18 138.27 C 132.23 138.22 133.03 137.32 132.97 136.28 L 132.92 135.29 C 132.86 134.25 131.96 133.44 130.92 133.50 C 129.87 133.56 129.07 134.45 129.13 135.50 Z M 129.18 136.49 L 129.24 137.46 C 129.30 138.51 130.20 139.30 131.24 139.24 C 132.29 139.18 133.09 138.28 133.03 137.24 L 132.97 136.27 C 132.91 135.22 132.01 134.42 130.96 134.48 C 129.92 134.55 129.12 135.44 129.18 136.49 Z M 129.24 137.47 L 129.31 138.58 C 129.38 139.63 130.28 140.42 131.33 140.35 C 132.38 140.28 133.17 139.38 133.10 138.33 L 133.03 137.22 C 132.96 136.18 132.05 135.38 131.01 135.45 C 129.96 135.52 129.17 136.43 129.24 137.47 Z M 129.31 138.59 L 129.38 139.59 C 129.46 140.63 130.37 141.42 131.42 141.34 C 132.46 141.26 133.25 140.35 133.17 139.31 L 133.10 138.32 C 133.02 137.27 132.11 136.49 131.07 136.56 C 130.02 136.64 129.23 137.55 129.31 138.59 Z M 129.39 139.60 L 129.46 140.51 C 129.54 141.56 130.46 142.34 131.50 142.25 C 132.55 142.17 133.33 141.26 133.24 140.21 L 133.17 139.30 C 133.09 138.25 132.17 137.47 131.13 137.56 C 130.08 137.64 129.30 138.55 129.39 139.60 Z M 129.46 140.52 L 129.54 141.47 C 129.62 142.51 130.54 143.29 131.59 143.20 C 132.63 143.11 133.41 142.20 133.32 141.15 L 133.24 140.20 C 133.16 139.16 132.24 138.38 131.19 138.47 C 130.15 138.56 129.37 139.48 129.46 140.52 Z M 129.54 141.47 L 129.62 142.46 C 129.71 143.51 130.63 144.28 131.67 144.19 C 132.72 144.10 133.49 143.19 133.41 142.14 L 133.32 141.15 C 133.23 140.10 132.31 139.33 131.27 139.42 C 130.22 139.51 129.45 140.42 129.54 141.47 Z M 129.62 142.46 L 129.71 143.45 C 129.79 144.50 130.71 145.27 131.76 145.18 C 132.80 145.10 133.58 144.18 133.49 143.13 L 133.40 142.14 C 133.32 141.10 132.40 140.32 131.35 140.41 C 130.31 140.50 129.53 141.42 129.62 142.46 Z M 129.71 143.45 L 129.79 144.44 C 129.88 145.48 130.79 146.26 131.84 146.17 C 132.88 146.09 133.66 145.17 133.57 144.12 L 133.49 143.14 C 133.40 142.09 132.48 141.31 131.44 141.40 C 130.39 141.49 129.62 142.41 129.71 143.45 Z M 129.79 144.44 L 129.87 145.41 C 129.95 146.46 130.87 147.24 131.91 147.15 C 132.96 147.07 133.74 146.15 133.65 145.10 L 133.57 144.13 C 133.49 143.08 132.57 142.30 131.53 142.39 C 130.48 142.47 129.70 143.39 129.79 144.44 Z M 129.87 145.41 L 129.95 146.41 C 130.03 147.46 130.95 148.24 131.99 148.15 C 133.04 148.07 133.82 147.16 133.73 146.11 L 133.65 145.11 C 133.57 144.06 132.65 143.28 131.61 143.37 C 130.56 143.45 129.78 144.36 129.87 145.41 Z M 129.95 146.41 L 130.03 147.43 C 130.11 148.47 131.02 149.26 132.07 149.18 C 133.11 149.09 133.89 148.18 133.81 147.14 L 133.73 146.11 C 133.65 145.07 132.74 144.29 131.69 144.37 C 130.65 144.45 129.87 145.36 129.95 146.41 Z M 130.03 147.43 L 130.10 148.39 C 130.18 149.44 131.09 150.22 132.14 150.14 C 133.18 150.06 133.97 149.15 133.89 148.10 L 133.81 147.14 C 133.73 146.09 132.82 145.31 131.78 145.39 C 130.73 145.47 129.95 146.38 130.03 147.43 Z M 130.10 148.39 L 130.17 149.38 C 130.25 150.42 131.16 151.21 132.21 151.13 C 133.25 151.05 134.04 150.14 133.96 149.10 L 133.89 148.11 C 133.81 147.06 132.90 146.28 131.85 146.35 C 130.81 146.43 130.02 147.34 130.10 148.39 Z M 130.17 149.38 L 130.24 150.39 C 130.32 151.44 131.23 152.22 132.28 152.15 C 133.32 152.07 134.11 151.16 134.03 150.12 L 133.96 149.10 C 133.88 148.05 132.98 147.27 131.93 147.34 C 130.88 147.42 130.10 148.33 130.17 149.38 Z M 130.24 150.39 L 130.31 151.39 C 130.39 152.44 131.30 153.23 132.34 153.15 C 133.39 153.08 134.18 152.17 134.10 151.12 L 134.03 150.12 C 133.96 149.07 133.05 148.28 132.01 148.36 C 130.96 148.43 130.17 149.34 130.24 150.39 Z M 130.31 151.39 L 130.38 152.36 C 130.45 153.41 131.36 154.20 132.41 154.13 C 133.45 154.06 134.24 153.15 134.17 152.10 L 134.11 151.13 C 134.03 150.08 133.13 149.29 132.08 149.36 C 131.03 149.43 130.24 150.34 130.31 151.39 Z M 130.38 152.36 L 130.45 153.36 C 130.52 154.40 131.42 155.20 132.47 155.13 C 133.52 155.06 134.31 154.15 134.24 153.10 L 134.17 152.11 C 134.10 151.06 133.20 150.27 132.15 150.34 C 131.10 150.41 130.31 151.31 130.38 152.36 Z M 130.45 153.36 L 130.52 154.37 C 130.58 155.42 131.49 156.21 132.53 156.14 C 133.58 156.08 134.37 155.17 134.31 154.12 L 134.24 153.11 C 134.17 152.06 133.27 151.27 132.22 151.34 C 131.17 151.40 130.38 152.31 130.45 153.36 Z M 130.52 154.37 L 130.58 155.37 C 130.65 156.41 131.55 157.21 132.60 157.14 C 133.64 157.07 134.44 156.17 134.37 155.12 L 134.31 154.13 C 134.24 153.08 133.33 152.29 132.29 152.35 C 131.24 152.42 130.45 153.32 130.52 154.37 Z M 130.58 155.37 L 130.64 156.34 C 130.71 157.38 131.61 158.18 132.66 158.11 C 133.71 158.04 134.50 157.14 134.43 156.09 L 134.37 155.12 C 134.30 154.08 133.40 153.28 132.35 153.35 C 131.31 153.42 130.51 154.32 130.58 155.37 Z M 130.64 156.34 L 130.70 157.33 C 130.77 158.38 131.68 159.17 132.73 159.10 C 133.77 159.03 134.57 158.13 134.50 157.08 L 134.44 156.09 C 134.37 155.04 133.46 154.25 132.41 154.31 C 131.36 154.38 130.57 155.29 130.64 156.34 Z M 130.70 157.33 L 130.77 158.35 C 130.84 159.40 131.75 160.19 132.80 160.12 C 133.85 160.05 134.64 159.14 134.57 158.09 L 134.50 157.07 C 134.43 156.02 133.52 155.23 132.47 155.30 C 131.42 155.37 130.63 156.28 130.70 157.33 Z M 130.77 158.35 L 130.84 159.39 C 130.92 160.44 131.83 161.23 132.88 161.15 C 133.93 161.08 134.72 160.17 134.65 159.12 L 134.57 158.08 C 134.50 157.03 133.59 156.24 132.54 156.32 C 131.48 156.39 130.69 157.30 130.77 158.35 Z M 130.84 159.39 L 130.91 160.38 C 130.99 161.43 131.91 162.22 132.96 162.14 C 134.01 162.06 134.80 161.15 134.72 160.10 L 134.65 159.11 C 134.57 158.06 133.65 157.27 132.60 157.35 C 131.55 157.43 130.76 158.34 130.84 159.39 Z M 130.91 160.38 L 130.99 161.39 C 131.07 162.44 131.99 163.23 133.04 163.15 C 134.09 163.07 134.88 162.15 134.80 161.09 L 134.72 160.09 C 134.64 159.04 133.72 158.25 132.67 158.33 C 131.62 158.41 130.83 159.33 130.91 160.38 Z M 130.98 161.39 L 131.06 162.39 C 131.14 163.45 132.06 164.24 133.12 164.16 C 134.17 164.08 134.96 163.16 134.88 162.10 L 134.80 161.09 C 134.72 160.04 133.80 159.25 132.75 159.33 C 131.69 159.41 130.90 160.33 130.98 161.39 Z M 131.06 162.39 L 131.13 163.39 C 131.21 164.45 132.13 165.24 133.19 165.16 C 134.24 165.08 135.04 164.16 134.96 163.11 L 134.88 162.10 C 134.80 161.05 133.88 160.26 132.83 160.34 C 131.77 160.42 130.98 161.34 131.06 162.39 Z M 131.13 163.39 L 131.20 164.40 C 131.28 165.46 132.20 166.25 133.26 166.18 C 134.31 166.10 135.11 165.18 135.03 164.12 L 134.96 163.11 C 134.88 162.05 133.97 161.26 132.91 161.33 C 131.85 161.41 131.06 162.33 131.13 163.39 Z M 131.20 164.39 L 131.27 165.42 C 131.34 166.47 132.26 167.27 133.32 167.20 C 134.38 167.13 135.18 166.21 135.10 165.16 L 135.04 164.13 C 134.96 163.07 134.05 162.27 132.99 162.34 C 131.93 162.42 131.13 163.33 131.20 164.39 Z M 131.27 165.41 L 131.33 166.41 C 131.40 167.47 132.32 168.28 133.38 168.21 C 134.44 168.14 135.24 167.22 135.17 166.16 L 135.11 165.16 C 135.04 164.10 134.12 163.30 133.06 163.37 C 132.00 163.43 131.20 164.35 131.27 165.41 Z M 131.33 166.41 L 131.39 167.39 C 131.46 168.45 132.37 169.26 133.43 169.19 C 134.50 169.12 135.30 168.21 135.24 167.15 L 135.17 166.17 C 135.11 165.10 134.19 164.30 133.13 164.36 C 132.07 164.43 131.26 165.35 131.33 166.41 Z M 131.39 167.39 L 131.45 168.35 C 131.51 169.42 132.43 170.23 133.49 170.16 C 134.56 170.09 135.37 169.18 135.30 168.11 L 135.24 167.15 C 135.17 166.09 134.26 165.28 133.19 165.34 C 132.13 165.41 131.32 166.33 131.39 167.39 Z M 131.45 168.36 L 131.51 169.38 C 131.58 170.44 132.49 171.25 133.56 171.18 C 134.62 171.12 135.43 170.20 135.37 169.13 L 135.30 168.11 C 135.23 167.05 134.32 166.24 133.25 166.31 C 132.19 166.37 131.38 167.29 131.45 168.36 Z M 131.51 169.38 L 131.57 170.39 C 131.64 171.45 132.56 172.26 133.63 172.19 C 134.69 172.13 135.50 171.21 135.43 170.14 L 135.37 169.13 C 135.30 168.07 134.38 167.26 133.31 167.33 C 132.25 167.39 131.44 168.31 131.51 169.38 Z M 131.57 170.39 L 131.63 171.38 C 131.70 172.45 132.62 173.26 133.69 173.19 C 134.76 173.12 135.57 172.20 135.50 171.13 L 135.44 170.14 C 135.37 169.07 134.44 168.26 133.38 168.33 C 132.31 168.40 131.50 169.32 131.57 170.39 Z M 131.63 171.38 L 131.70 172.36 C 131.77 173.43 132.69 174.24 133.76 174.17 C 134.83 174.10 135.64 173.17 135.57 172.10 L 135.50 171.13 C 135.43 170.06 134.51 169.25 133.44 169.32 C 132.37 169.39 131.56 170.31 131.63 171.38 Z M 131.69 172.36 L 131.76 173.38 C 131.83 174.45 132.76 175.26 133.83 175.19 C 134.90 175.12 135.71 174.19 135.64 173.12 L 135.57 172.10 C 135.50 171.03 134.57 170.22 133.50 170.29 C 132.43 170.36 131.62 171.29 131.69 172.36 Z M 131.76 173.39 L 131.83 174.40 C 131.91 175.47 132.84 176.28 133.91 176.20 C 134.98 176.13 135.79 175.20 135.71 174.12 L 135.64 173.11 C 135.57 172.04 134.64 171.23 133.56 171.31 C 132.49 171.38 131.68 172.32 131.76 173.39 Z M 131.83 174.41 L 131.90 175.40 C 131.99 176.47 132.92 177.28 134.00 177.19 C 135.07 177.11 135.87 176.17 135.79 175.10 L 135.72 174.11 C 135.63 173.04 134.70 172.23 133.62 172.32 C 132.55 172.40 131.74 173.34 131.83 174.41 Z M 131.90 175.42 L 131.98 176.38 C 132.08 177.45 133.02 178.25 134.10 178.16 C 135.17 178.07 135.97 177.12 135.88 176.04 L 135.79 175.08 C 135.70 174.01 134.76 173.21 133.68 173.30 C 132.61 173.39 131.81 174.34 131.90 175.42 Z M 131.98 176.40 L 132.07 177.33 C 132.18 178.40 133.13 179.19 134.21 179.09 C 135.28 178.98 136.07 178.03 135.97 176.95 L 135.88 176.02 C 135.77 174.95 134.82 174.16 133.74 174.26 C 132.67 174.37 131.88 175.32 131.98 176.40 Z M 132.07 177.35 L 132.17 178.29 C 132.29 179.37 133.25 180.15 134.33 180.03 C 135.40 179.92 136.18 178.95 136.07 177.88 L 135.97 176.93 C 135.85 175.85 134.89 175.07 133.81 175.19 C 132.74 175.30 131.96 176.27 132.07 177.35 Z M 132.17 178.30 L 132.28 179.31 C 132.41 180.39 133.38 181.17 134.45 181.05 C 135.53 180.92 136.31 179.95 136.18 178.88 L 136.07 177.86 C 135.95 176.79 134.98 176.01 133.90 176.13 C 132.82 176.26 132.05 177.23 132.17 178.30 Z M 132.28 179.32 L 132.41 180.41 C 132.53 181.49 133.51 182.26 134.59 182.14 C 135.66 182.01 136.44 181.04 136.31 179.96 L 136.19 178.87 C 136.06 177.79 135.09 177.02 134.01 177.14 C 132.93 177.27 132.16 178.24 132.28 179.32 Z M 132.41 180.42 L 132.52 181.41 C 132.65 182.48 133.63 183.26 134.71 183.13 C 135.79 183.00 136.56 182.02 136.43 180.94 L 136.31 179.95 C 136.19 178.87 135.21 178.10 134.13 178.23 C 133.05 178.36 132.28 179.34 132.41 180.42 Z M 132.52 181.43 L 132.66 182.46 C 132.80 183.54 133.79 184.30 134.87 184.16 C 135.95 184.01 136.71 183.02 136.57 181.94 L 136.43 180.91 C 136.29 179.84 135.30 179.08 134.22 179.22 C 133.14 179.36 132.38 180.35 132.52 181.43 Z M 132.67 182.51 L 132.83 183.54 C 133.00 184.61 134.01 185.35 135.08 185.18 C 136.16 185.01 136.89 184.00 136.72 182.92 L 136.56 181.89 C 136.39 180.82 135.38 180.09 134.31 180.26 C 133.23 180.43 132.50 181.44 132.67 182.51 Z M 132.84 183.62 L 133.04 184.59 C 133.25 185.66 134.29 186.35 135.36 186.14 C 136.43 185.92 137.12 184.88 136.91 183.81 L 136.71 182.84 C 136.50 181.77 135.46 181.08 134.39 181.29 C 133.32 181.51 132.63 182.55 132.84 183.62 Z M 133.07 184.72 L 133.33 185.70 C 133.62 186.75 134.71 187.37 135.76 187.08 C 136.81 186.79 137.43 185.71 137.14 184.65 L 136.88 183.68 C 136.59 182.63 135.50 182.01 134.45 182.30 C 133.40 182.58 132.78 183.67 133.07 184.72 Z M 133.43 185.97 L 133.88 187.00 C 134.33 188.00 135.49 188.45 136.49 188.01 C 137.49 187.57 137.94 186.41 137.50 185.41 L 137.05 184.38 C 136.61 183.38 135.44 182.93 134.44 183.37 C 133.44 183.81 132.99 184.98 133.43 185.97 Z M 134.19 187.49 L 134.80 188.19 C 135.51 189.02 136.76 189.12 137.58 188.40 C 138.41 187.69 138.50 186.44 137.79 185.62 L 137.19 184.92 C 136.48 184.09 135.23 184.00 134.40 184.71 C 133.58 185.42 133.48 186.67 134.19 187.49 Z M 135.50 188.71 L 136.29 189.06 C 137.28 189.50 138.45 189.05 138.89 188.05 C 139.33 187.05 138.88 185.89 137.88 185.45 L 137.09 185.10 C 136.09 184.66 134.93 185.11 134.49 186.11 C 134.05 187.11 134.50 188.27 135.50 188.71 Z M 137.05 189.23 L 137.88 189.24 C 138.97 189.26 139.87 188.39 139.88 187.29 C 139.90 186.20 139.03 185.31 137.94 185.29 L 137.11 185.28 C 136.02 185.26 135.12 186.13 135.11 187.22 C 135.09 188.32 135.96 189.21 137.05 189.23 Z M 138.35 189.19 L 139.28 188.98 C 140.34 188.73 141.01 187.67 140.77 186.61 C 140.52 185.55 139.46 184.88 138.40 185.13 L 137.47 185.34 C 136.40 185.58 135.74 186.64 135.98 187.71 C 136.23 188.77 137.28 189.43 138.35 189.19 Z M 139.58 188.88 L 140.57 188.48 C 141.59 188.08 142.08 186.93 141.67 185.91 C 141.26 184.90 140.11 184.41 139.10 184.82 L 138.10 185.22 C 137.09 185.63 136.60 186.78 137.01 187.79 C 137.42 188.80 138.57 189.29 139.58 188.88 Z M 140.78 188.39 L 141.76 187.85 C 142.72 187.33 143.08 186.14 142.56 185.18 C 142.04 184.22 140.84 183.86 139.88 184.38 L 138.90 184.92 C 137.94 185.43 137.58 186.63 138.10 187.59 C 138.62 188.55 139.82 188.91 140.78 188.39 Z M 141.90 187.77 L 142.68 187.26 C 143.59 186.67 143.85 185.45 143.25 184.53 C 142.66 183.62 141.43 183.36 140.52 183.96 L 139.75 184.46 C 138.83 185.06 138.58 186.28 139.17 187.19 C 139.77 188.11 140.99 188.36 141.90 187.77 Z M 142.77 187.20 L 143.54 186.63 C 144.42 185.98 144.60 184.75 143.96 183.87 C 143.31 183.00 142.08 182.81 141.20 183.46 L 140.43 184.03 C 139.55 184.67 139.37 185.91 140.01 186.78 C 140.66 187.66 141.89 187.84 142.77 187.20 Z M 143.61 186.58 L 144.38 185.95 C 145.23 185.27 145.36 184.03 144.68 183.18 C 144.00 182.33 142.76 182.20 141.91 182.88 L 141.13 183.51 C 140.29 184.19 140.15 185.43 140.84 186.28 C 141.52 187.13 142.76 187.26 143.61 186.58 Z M 144.43 185.91 L 145.22 185.24 C 146.05 184.53 146.14 183.29 145.44 182.46 C 144.73 181.63 143.49 181.54 142.66 182.24 L 141.87 182.92 C 141.04 183.63 140.94 184.87 141.65 185.70 C 142.36 186.52 143.60 186.62 144.43 185.91 Z M 145.24 185.21 L 146.05 184.50 C 146.87 183.78 146.95 182.54 146.23 181.72 C 145.51 180.91 144.27 180.83 143.45 181.55 L 142.64 182.26 C 141.83 182.98 141.75 184.23 142.47 185.04 C 143.19 185.85 144.43 185.93 145.24 185.21 Z M 146.06 184.49 L 146.82 183.81 C 147.63 183.09 147.69 181.85 146.97 181.04 C 146.25 180.23 145.00 180.16 144.20 180.88 L 143.44 181.56 C 142.63 182.28 142.56 183.52 143.29 184.33 C 144.01 185.14 145.25 185.21 146.06 184.49 Z M 146.82 183.81 L 147.59 183.11 C 148.39 182.39 148.46 181.15 147.73 180.34 C 147.00 179.54 145.76 179.47 144.96 180.20 L 144.19 180.89 C 143.39 181.62 143.32 182.86 144.05 183.66 C 144.78 184.47 146.02 184.53 146.82 183.81 Z M 147.59 183.11 L 148.35 182.41 C 149.15 181.68 149.21 180.44 148.48 179.64 C 147.76 178.84 146.52 178.78 145.71 179.51 L 144.95 180.21 C 144.15 180.94 144.09 182.18 144.82 182.98 C 145.55 183.78 146.79 183.84 147.59 183.11 Z M 148.36 182.41 L 149.10 181.73 C 149.90 181.00 149.95 179.76 149.22 178.96 C 148.49 178.16 147.25 178.11 146.45 178.84 L 145.71 179.52 C 144.91 180.25 144.86 181.49 145.59 182.29 C 146.32 183.08 147.56 183.14 148.36 182.41 Z M 149.10 181.72 L 149.81 181.07 C 150.61 180.33 150.66 179.10 149.92 178.30 C 149.19 177.51 147.95 177.46 147.16 178.19 L 146.45 178.84 C 145.66 179.58 145.61 180.82 146.34 181.61 C 147.07 182.40 148.31 182.45 149.10 181.72 Z M 149.82 181.06 L 150.57 180.35 C 151.36 179.62 151.41 178.38 150.68 177.59 C 149.94 176.80 148.71 176.76 147.92 177.49 L 147.16 178.20 C 146.37 178.93 146.32 180.17 147.05 180.96 C 147.79 181.75 149.03 181.79 149.82 181.06 Z M 150.58 180.34 L 151.37 179.60 C 152.15 178.86 152.19 177.63 151.46 176.85 C 150.72 176.06 149.49 176.02 148.70 176.76 L 147.91 177.50 C 147.13 178.24 147.09 179.47 147.83 180.26 C 148.56 181.04 149.79 181.08 150.58 180.34 Z M 151.38 179.58 L 152.09 178.89 C 152.87 178.15 152.89 176.93 152.15 176.15 C 151.41 175.38 150.18 175.35 149.41 176.09 L 148.69 176.78 C 147.92 177.52 147.89 178.75 148.64 179.52 C 149.38 180.30 150.60 180.32 151.38 179.58 Z M 152.11 178.87 L 152.77 178.22 C 153.53 177.47 153.54 176.25 152.79 175.49 C 152.04 174.73 150.82 174.72 150.05 175.47 L 149.40 176.12 C 148.64 176.87 148.63 178.09 149.37 178.85 C 150.12 179.61 151.35 179.62 152.11 178.87 Z M 152.78 178.20 L 153.43 177.54 C 154.18 176.78 154.16 175.56 153.41 174.81 C 152.65 174.07 151.43 174.08 150.68 174.84 L 150.04 175.50 C 149.29 176.26 149.30 177.47 150.06 178.22 C 150.82 178.96 152.04 178.95 152.78 178.20 Z M 153.45 177.51 L 154.14 176.77 C 154.87 176.00 154.84 174.79 154.07 174.06 C 153.30 173.33 152.08 173.37 151.36 174.14 L 150.66 174.87 C 149.93 175.64 149.97 176.85 150.74 177.58 C 151.51 178.31 152.72 178.28 153.45 177.51 Z M 154.16 176.75 L 154.83 176.01 C 155.55 175.23 155.49 174.02 154.71 173.31 C 153.93 172.60 152.72 172.65 152.01 173.43 L 151.34 174.16 C 150.62 174.94 150.68 176.15 151.46 176.87 C 152.24 177.58 153.45 177.53 154.16 176.75 Z M 154.85 175.99 L 155.51 175.25 C 156.21 174.46 156.14 173.26 155.35 172.56 C 154.57 171.85 153.36 171.92 152.66 172.71 L 152.00 173.45 C 151.30 174.24 151.37 175.44 152.15 176.14 C 152.94 176.85 154.14 176.78 154.85 175.99 Z M 155.51 175.23 L 156.17 174.49 C 156.86 173.70 156.78 172.50 155.99 171.80 C 155.20 171.11 154.00 171.19 153.31 171.98 L 152.65 172.73 C 151.96 173.52 152.04 174.72 152.83 175.41 C 153.62 176.10 154.82 176.02 155.51 175.23 Z M 156.17 174.47 L 156.82 173.72 C 157.50 172.93 157.42 171.73 156.62 171.05 C 155.83 170.37 154.64 170.45 153.95 171.24 L 153.30 172.00 C 152.62 172.79 152.71 173.98 153.50 174.67 C 154.29 175.35 155.48 175.26 156.17 174.47 Z M 156.82 173.71 L 157.47 172.94 C 158.15 172.15 158.05 170.96 157.26 170.29 C 156.47 169.61 155.28 169.70 154.60 170.50 L 153.95 171.26 C 153.28 172.05 153.37 173.24 154.16 173.92 C 154.95 174.59 156.14 174.50 156.82 173.71 Z M 157.47 172.93 L 158.12 172.16 C 158.79 171.36 158.69 170.18 157.90 169.51 C 157.10 168.84 155.92 168.94 155.25 169.74 L 154.60 170.51 C 153.93 171.30 154.03 172.49 154.83 173.15 C 155.62 173.82 156.80 173.72 157.47 172.93 Z M 158.12 172.14 L 158.76 171.38 C 159.42 170.58 159.31 169.40 158.52 168.74 C 157.73 168.08 156.55 168.19 155.89 168.98 L 155.25 169.75 C 154.59 170.55 154.70 171.72 155.49 172.38 C 156.29 173.04 157.46 172.94 158.12 172.14 Z M 158.76 171.36 L 159.40 170.59 C 160.05 169.79 159.94 168.62 159.14 167.97 C 158.35 167.32 157.18 167.43 156.53 168.23 L 155.89 169.00 C 155.24 169.79 155.35 170.96 156.15 171.62 C 156.94 172.27 158.11 172.15 158.76 171.36 Z M 159.40 170.57 L 160.03 169.79 C 160.67 169.00 160.55 167.83 159.76 167.19 C 158.96 166.55 157.80 166.67 157.16 167.46 L 156.53 168.24 C 155.88 169.04 156.00 170.20 156.80 170.84 C 157.59 171.49 158.76 171.36 159.40 170.57 Z M 160.03 169.78 L 160.66 168.99 C 161.29 168.20 161.16 167.04 160.37 166.41 C 159.57 165.77 158.41 165.90 157.78 166.70 L 157.16 167.48 C 156.52 168.27 156.65 169.43 157.44 170.07 C 158.24 170.70 159.40 170.57 160.03 169.78 Z M 160.65 168.98 L 161.28 168.18 C 161.90 167.39 161.77 166.24 160.97 165.61 C 160.18 164.99 159.03 165.13 158.41 165.92 L 157.78 166.71 C 157.16 167.51 157.29 168.66 158.09 169.28 C 158.88 169.91 160.03 169.77 160.65 168.98 Z M 161.28 168.17 L 161.89 167.37 C 162.51 166.58 162.37 165.44 161.57 164.83 C 160.78 164.21 159.64 164.35 159.03 165.14 L 158.41 165.93 C 157.79 166.73 157.94 167.87 158.73 168.48 C 159.52 169.10 160.66 168.96 161.28 168.17 Z M 161.89 167.36 L 162.49 166.58 C 163.10 165.79 162.95 164.65 162.17 164.05 C 161.38 163.44 160.24 163.58 159.64 164.37 L 159.03 165.16 C 158.42 165.95 158.57 167.08 159.36 167.69 C 160.15 168.30 161.28 168.15 161.89 167.36 Z M 162.49 166.56 L 163.09 165.78 C 163.69 164.99 163.54 163.87 162.76 163.27 C 161.97 162.67 160.85 162.81 160.25 163.60 L 159.64 164.38 C 159.04 165.17 159.19 166.29 159.97 166.90 C 160.76 167.50 161.88 167.35 162.49 166.56 Z M 163.08 165.77 L 163.68 164.98 C 164.28 164.20 164.12 163.08 163.34 162.49 C 162.56 161.89 161.45 162.04 160.85 162.82 L 160.25 163.61 C 159.66 164.39 159.81 165.51 160.59 166.10 C 161.37 166.70 162.49 166.55 163.08 165.77 Z M 163.68 164.96 L 164.27 164.16 C 164.86 163.39 164.70 162.28 163.93 161.70 C 163.15 161.11 162.04 161.27 161.46 162.04 L 160.86 162.84 C 160.27 163.62 160.43 164.72 161.21 165.31 C 161.98 165.89 163.09 165.74 163.68 164.96 Z M 164.27 164.14 L 164.87 163.33 C 165.45 162.55 165.29 161.46 164.51 160.89 C 163.73 160.31 162.64 160.47 162.07 161.25 L 161.46 162.06 C 160.89 162.84 161.05 163.93 161.83 164.51 C 162.60 165.08 163.70 164.92 164.27 164.14 Z M 164.87 163.31 L 165.41 162.57 C 165.98 161.79 165.80 160.71 165.03 160.15 C 164.26 159.58 163.17 159.75 162.61 160.53 L 162.07 161.27 C 161.50 162.04 161.68 163.13 162.45 163.69 C 163.22 164.25 164.31 164.08 164.87 163.31 Z M 165.41 162.55 L 165.96 161.78 C 166.52 161.01 166.34 159.93 165.57 159.38 C 164.80 158.82 163.73 159.00 163.17 159.77 L 162.62 160.54 C 162.06 161.31 162.24 162.39 163.01 162.94 C 163.78 163.50 164.85 163.32 165.41 162.55 Z M 165.95 161.77 L 166.54 160.94 C 167.09 160.18 166.92 159.12 166.15 158.57 C 165.39 158.02 164.32 158.19 163.77 158.96 L 163.18 159.78 C 162.63 160.54 162.81 161.61 163.57 162.16 C 164.34 162.71 165.40 162.53 165.95 161.77 Z M 166.53 160.94 L 167.17 160.05 C 167.71 159.30 167.54 158.24 166.78 157.69 C 166.03 157.15 164.97 157.32 164.43 158.08 L 163.79 158.96 C 163.24 159.72 163.41 160.78 164.17 161.32 C 164.93 161.87 165.98 161.70 166.53 160.94 Z M 167.16 160.05 L 167.72 159.28 C 168.26 158.53 168.09 157.48 167.34 156.93 C 166.59 156.39 165.54 156.56 165.00 157.31 L 164.44 158.08 C 163.89 158.83 164.06 159.88 164.81 160.42 C 165.56 160.97 166.61 160.80 167.16 160.05 Z M 167.71 159.27 L 168.27 158.49 C 168.81 157.75 168.64 156.70 167.90 156.16 C 167.15 155.62 166.10 155.79 165.56 156.54 L 165.00 157.32 C 164.46 158.06 164.63 159.11 165.38 159.65 C 166.13 160.19 167.17 160.02 167.71 159.27 Z M 168.27 158.48 L 168.85 157.67 C 169.39 156.92 169.21 155.88 168.46 155.34 C 167.71 154.81 166.67 154.99 166.14 155.74 L 165.56 156.55 C 165.03 157.30 165.20 158.34 165.95 158.87 C 166.70 159.41 167.74 159.23 168.27 158.48 Z M 168.86 157.65 L 169.45 156.80 C 169.97 156.05 169.78 155.01 169.03 154.49 C 168.28 153.97 167.24 154.16 166.72 154.91 L 166.13 155.75 C 165.61 156.51 165.80 157.54 166.55 158.06 C 167.30 158.59 168.34 158.40 168.86 157.65 Z M 169.46 156.77 L 170.04 155.90 C 170.55 155.14 170.35 154.11 169.59 153.61 C 168.83 153.10 167.80 153.30 167.30 154.06 L 166.71 154.93 C 166.20 155.69 166.41 156.72 167.17 157.23 C 167.92 157.74 168.95 157.53 169.46 156.77 Z M 170.06 155.87 L 170.61 155.00 C 171.10 154.24 170.88 153.22 170.11 152.73 C 169.34 152.24 168.32 152.46 167.83 153.23 L 167.28 154.09 C 166.79 154.86 167.02 155.88 167.78 156.37 C 168.55 156.86 169.57 156.63 170.06 155.87 Z M 170.63 154.97 L 171.14 154.13 C 171.62 153.35 171.37 152.34 170.60 151.86 C 169.82 151.39 168.81 151.64 168.34 152.41 L 167.82 153.26 C 167.34 154.03 167.59 155.05 168.36 155.52 C 169.14 155.99 170.15 155.75 170.63 154.97 Z M 171.16 154.10 L 171.66 153.24 C 172.12 152.46 171.86 151.45 171.08 150.99 C 170.30 150.53 169.29 150.79 168.83 151.57 L 168.32 152.43 C 167.86 153.22 168.12 154.22 168.91 154.68 C 169.69 155.14 170.70 154.88 171.16 154.10 Z M 171.67 153.22 L 172.17 152.35 C 172.62 151.57 172.34 150.56 171.56 150.11 C 170.77 149.66 169.77 149.94 169.32 150.72 L 168.82 151.59 C 168.37 152.38 168.64 153.38 169.43 153.83 C 170.22 154.28 171.22 154.01 171.67 153.22 Z M 172.17 152.34 L 172.66 151.46 C 173.11 150.67 172.83 149.67 172.04 149.23 C 171.24 148.79 170.25 149.07 169.80 149.86 L 169.31 150.74 C 168.87 151.53 169.15 152.53 169.94 152.97 C 170.73 153.41 171.73 153.13 172.17 152.34 Z M 172.67 151.46 L 173.15 150.58 C 173.59 149.79 173.31 148.79 172.51 148.35 C 171.72 147.91 170.73 148.20 170.29 148.99 L 169.80 149.87 C 169.36 150.66 169.65 151.66 170.44 152.10 C 171.23 152.53 172.23 152.25 172.67 151.46 Z M 173.15 150.57 L 173.27 150.37 C 173.70 149.58 173.42 148.58 172.63 148.14 C 171.83 147.71 170.84 147.99 170.40 148.79 L 170.29 148.99 C 169.85 149.78 170.14 150.78 170.93 151.22 C 171.72 151.65 172.72 151.37 173.15 150.57 Z"
      fill="black"
      fill-rule="nonzero" /></svg>