<svg xmlns="http://www.w3.org/2000/svg" width="300" height="300" viewBox="0 0 300 300">
<path d="M 143.69 98.95 L 144.68 98.72 C 145.66 98.49 146.27 97.52 146.05 96.54 C 145.82 95.56 144.84 94.95 143.87 95.18 L 142.87 95.41 C 141.90 95.63 141.29 96.61 141.51 97.59 C 141.74 98.56 142.72 99.17 143.69 98.95 Z M 144.69 98.72 L 145.67 98.49 C 146.65 98.26 147.26 97.28 147.03 96.30 C 146.80 95.33 145.82 94.72 144.84 94.95 L 143.86 95.18 C 142.88 95.41 142.28 96.38 142.51 97.36 C 142.73 98.34 143.71 98.95 144.69 98.72 Z M 145.68 98.49 L 146.64 98.26 C 147.62 98.03 148.22 97.04 147.99 96.07 C 147.76 95.09 146.77 94.49 145.80 94.72 L 144.84 94.95 C 143.86 95.18 143.26 96.16 143.49 97.14 C 143.72 98.12 144.70 98.72 145.68 98.49 Z M 146.65 98.25 L 147.62 98.02 C 148.60 97.78 149.19 96.79 148.95 95.82 C 148.72 94.84 147.73 94.25 146.76 94.49 L 145.79 94.72 C 144.81 94.96 144.21 95.95 144.45 96.92 C 144.69 97.90 145.68 98.49 146.65 98.25 Z M 147.63 98.01 L 148.61 97.77 C 149.58 97.52 150.17 96.53 149.93 95.56 C 149.68 94.59 148.69 94.00 147.72 94.24 L 146.74 94.49 C 145.77 94.73 145.18 95.72 145.43 96.70 C 145.67 97.67 146.66 98.26 147.63 98.01 Z M 148.61 97.77 L 149.57 97.52 C 150.55 97.27 151.13 96.28 150.88 95.31 C 150.63 94.34 149.64 93.75 148.67 94.00 L 147.71 94.24 C 146.74 94.49 146.15 95.48 146.40 96.46 C 146.65 97.43 147.64 98.02 148.61 97.77 Z M 149.57 97.52 L 150.53 97.28 C 151.50 97.03 152.09 96.04 151.84 95.06 C 151.59 94.09 150.60 93.50 149.63 93.75 L 148.67 94.00 C 147.70 94.25 147.11 95.24 147.36 96.21 C 147.61 97.18 148.60 97.77 149.57 97.52 Z M 150.52 97.28 L 151.48 97.04 C 152.45 96.80 153.04 95.81 152.80 94.84 C 152.56 93.86 151.57 93.27 150.59 93.51 L 149.64 93.75 C 148.66 93.99 148.07 94.98 148.31 95.96 C 148.56 96.93 149.54 97.52 150.52 97.28 Z M 151.45 97.04 L 152.43 96.81 C 153.40 96.58 154.01 95.61 153.78 94.63 C 153.55 93.65 152.57 93.05 151.59 93.28 L 150.62 93.51 C 149.64 93.74 149.04 94.72 149.27 95.69 C 149.50 96.67 150.48 97.27 151.45 97.04 Z M 152.39 96.82 L 153.38 96.61 C 154.37 96.40 154.99 95.44 154.78 94.45 C 154.57 93.47 153.61 92.85 152.63 93.06 L 151.63 93.27 C 150.65 93.48 150.02 94.44 150.23 95.43 C 150.44 96.41 151.41 97.03 152.39 96.82 Z M 153.34 96.62 L 154.30 96.44 C 155.28 96.26 155.93 95.31 155.75 94.32 C 155.57 93.34 154.62 92.69 153.64 92.87 L 152.67 93.05 C 151.69 93.23 151.04 94.18 151.22 95.16 C 151.41 96.15 152.35 96.80 153.34 96.62 Z M 154.24 96.44 L 155.22 96.29 C 156.21 96.14 156.89 95.22 156.74 94.23 C 156.59 93.25 155.67 92.57 154.68 92.72 L 153.69 92.87 C 152.71 93.02 152.03 93.94 152.18 94.93 C 152.33 95.91 153.25 96.59 154.24 96.44 Z M 155.16 96.29 L 156.16 96.18 C 157.15 96.06 157.86 95.17 157.75 94.18 C 157.63 93.19 156.74 92.48 155.75 92.60 L 154.75 92.72 C 153.76 92.83 153.05 93.72 153.16 94.71 C 153.28 95.70 154.17 96.41 155.16 96.29 Z M 156.08 96.18 L 157.15 96.10 C 158.14 96.03 158.88 95.18 158.81 94.19 C 158.74 93.20 157.88 92.45 156.89 92.52 L 155.83 92.60 C 154.84 92.67 154.10 93.53 154.17 94.52 C 154.24 95.50 155.10 96.25 156.08 96.18 Z M 156.98 96.10 L 158.05 96.12 C 159.04 96.15 159.86 95.36 159.88 94.37 C 159.90 93.39 159.11 92.57 158.13 92.55 L 157.06 92.52 C 156.07 92.50 155.25 93.29 155.23 94.28 C 155.21 95.26 156.00 96.08 156.98 96.10 Z M 157.68 96.07 L 158.61 96.29 C 159.57 96.51 160.53 95.92 160.75 94.96 C 160.98 94.00 160.38 93.05 159.43 92.82 L 158.50 92.60 C 157.54 92.38 156.58 92.97 156.35 93.93 C 156.13 94.89 156.72 95.85 157.68 96.07 Z M 157.95 95.97 L 158.64 96.49 C 159.42 97.08 160.54 96.92 161.12 96.14 C 161.71 95.35 161.55 94.24 160.77 93.65 L 160.08 93.14 C 159.30 92.55 158.19 92.71 157.60 93.49 C 157.01 94.27 157.17 95.39 157.95 95.97 Z M 158.10 95.79 L 158.48 96.64 C 158.88 97.53 159.92 97.92 160.81 97.52 C 161.70 97.12 162.09 96.08 161.69 95.19 L 161.31 94.35 C 160.91 93.46 159.87 93.06 158.98 93.46 C 158.09 93.86 157.70 94.91 158.10 95.79 Z M 158.35 96.08 L 158.44 97.10 C 158.53 98.06 159.38 98.77 160.34 98.68 C 161.30 98.59 162.01 97.74 161.92 96.78 L 161.83 95.75 C 161.74 94.79 160.89 94.09 159.92 94.18 C 158.96 94.27 158.26 95.12 158.35 96.08 Z M 158.47 96.70 L 158.32 97.74 C 158.19 98.69 158.85 99.57 159.80 99.70 C 160.74 99.83 161.62 99.17 161.75 98.22 L 161.90 97.18 C 162.03 96.23 161.37 95.36 160.42 95.23 C 159.47 95.09 158.60 95.76 158.47 96.70 Z M 158.43 97.40 L 158.08 98.34 C 157.76 99.23 158.22 100.22 159.11 100.54 C 160.00 100.86 160.98 100.40 161.31 99.51 L 161.65 98.57 C 161.97 97.68 161.51 96.69 160.62 96.37 C 159.73 96.05 158.75 96.51 158.43 97.40 Z M 158.22 98.09 L 157.73 98.95 C 157.27 99.76 157.55 100.79 158.37 101.26 C 159.18 101.72 160.22 101.44 160.68 100.62 L 161.17 99.77 C 161.63 98.95 161.35 97.92 160.53 97.46 C 159.72 96.99 158.69 97.28 158.22 98.09 Z M 157.85 98.81 L 157.26 99.62 C 156.72 100.37 156.90 101.42 157.65 101.96 C 158.40 102.50 159.45 102.32 159.99 101.57 L 160.57 100.76 C 161.11 100.01 160.93 98.96 160.18 98.42 C 159.43 97.88 158.38 98.06 157.85 98.81 Z M 157.31 99.57 L 156.77 100.27 C 156.20 100.99 156.33 102.04 157.05 102.60 C 157.78 103.17 158.82 103.04 159.39 102.32 L 159.93 101.62 C 160.50 100.90 160.37 99.85 159.65 99.29 C 158.93 98.72 157.88 98.85 157.31 99.57 Z M 156.80 100.23 L 156.20 100.96 C 155.61 101.67 155.71 102.71 156.42 103.30 C 157.13 103.88 158.18 103.79 158.76 103.08 L 159.36 102.35 C 159.95 101.64 159.85 100.60 159.14 100.01 C 158.43 99.42 157.38 99.52 156.80 100.23 Z M 156.22 100.93 L 155.54 101.72 C 154.93 102.42 155.01 103.47 155.70 104.07 C 156.40 104.67 157.45 104.59 158.05 103.90 L 158.74 103.11 C 159.34 102.41 159.26 101.36 158.57 100.76 C 157.87 100.16 156.82 100.23 156.22 100.93 Z M 155.55 101.70 L 154.82 102.53 C 154.20 103.21 154.26 104.26 154.95 104.87 C 155.63 105.49 156.68 105.43 157.29 104.74 L 158.03 103.92 C 158.64 103.24 158.59 102.18 157.90 101.57 C 157.22 100.96 156.17 101.02 155.55 101.70 Z M 154.83 102.51 L 154.16 103.24 C 153.54 103.92 153.59 104.97 154.27 105.59 C 154.95 106.21 156.00 106.16 156.62 105.49 L 157.28 104.76 C 157.90 104.08 157.86 103.03 157.18 102.41 C 156.50 101.79 155.45 101.83 154.83 102.51 Z M 154.17 103.23 L 153.47 103.99 C 152.84 104.66 152.88 105.72 153.56 106.34 C 154.23 106.97 155.28 106.93 155.91 106.25 L 156.61 105.49 C 157.24 104.82 157.20 103.77 156.52 103.14 C 155.85 102.52 154.79 102.56 154.17 103.23 Z M 153.47 103.98 L 152.76 104.74 C 152.13 105.41 152.17 106.46 152.84 107.09 C 153.51 107.72 154.56 107.69 155.19 107.02 L 155.90 106.26 C 156.53 105.59 156.50 104.53 155.83 103.90 C 155.16 103.27 154.10 103.31 153.47 103.98 Z M 152.77 104.73 L 152.08 105.46 C 151.44 106.13 151.47 107.18 152.14 107.82 C 152.81 108.45 153.87 108.42 154.50 107.75 L 155.19 107.02 C 155.82 106.36 155.79 105.30 155.12 104.67 C 154.46 104.03 153.40 104.06 152.77 104.73 Z M 152.08 105.45 L 151.38 106.19 C 150.74 106.85 150.76 107.91 151.43 108.55 C 152.09 109.19 153.15 109.16 153.79 108.50 L 154.49 107.76 C 155.13 107.09 155.11 106.04 154.44 105.40 C 153.78 104.76 152.72 104.79 152.08 105.45 Z M 151.38 106.18 L 150.63 106.95 C 149.99 107.62 150.01 108.67 150.67 109.32 C 151.33 109.96 152.39 109.94 153.03 109.28 L 153.78 108.51 C 154.43 107.84 154.41 106.79 153.75 106.14 C 153.08 105.50 152.03 105.52 151.38 106.18 Z M 150.64 106.95 L 149.96 107.64 C 149.32 108.31 149.33 109.36 149.99 110.01 C 150.65 110.65 151.71 110.64 152.36 109.98 L 153.03 109.28 C 153.68 108.62 153.66 107.56 153.00 106.92 C 152.34 106.27 151.28 106.29 150.64 106.95 Z M 149.95 107.65 L 149.31 108.31 C 148.67 108.98 148.69 110.04 149.35 110.68 C 150.02 111.32 151.08 111.30 151.72 110.64 L 152.36 109.97 C 153.01 109.31 152.99 108.25 152.32 107.60 C 151.66 106.96 150.60 106.98 149.95 107.65 Z M 149.30 108.32 L 148.64 109.02 C 148.00 109.69 148.03 110.75 148.71 111.39 C 149.38 112.03 150.44 112.00 151.08 111.32 L 151.74 110.63 C 152.37 109.95 152.34 108.89 151.67 108.25 C 150.99 107.62 149.93 107.65 149.30 108.32 Z M 148.62 109.03 L 147.95 109.77 C 147.32 110.45 147.36 111.52 148.05 112.14 C 148.73 112.77 149.79 112.73 150.42 112.04 L 151.10 111.31 C 151.73 110.62 151.68 109.56 151.00 108.93 C 150.31 108.30 149.25 108.35 148.62 109.03 Z M 147.93 109.78 L 147.25 110.54 C 146.63 111.23 146.69 112.30 147.39 112.92 C 148.08 113.54 149.15 113.48 149.77 112.78 L 150.44 112.03 C 151.06 111.34 151.00 110.27 150.31 109.65 C 149.61 109.03 148.55 109.09 147.93 109.78 Z M 147.23 110.56 L 146.57 111.32 C 145.96 112.02 146.04 113.09 146.74 113.70 C 147.45 114.31 148.51 114.23 149.13 113.53 L 149.79 112.77 C 150.40 112.06 150.32 111.00 149.62 110.39 C 148.91 109.78 147.85 109.85 147.23 110.56 Z M 146.53 111.36 L 145.71 112.37 C 145.13 113.10 145.24 114.16 145.97 114.75 C 146.69 115.34 147.76 115.23 148.35 114.50 L 149.17 113.49 C 149.76 112.76 149.64 111.69 148.91 111.11 C 148.19 110.52 147.12 110.63 146.53 111.36 Z M 145.55 112.59 L 145.10 113.39 C 144.64 114.21 144.92 115.24 145.74 115.71 C 146.56 116.17 147.59 115.89 148.06 115.07 L 148.51 114.28 C 148.98 113.46 148.69 112.42 147.87 111.95 C 147.06 111.49 146.02 111.78 145.55 112.59 Z M 145.07 115.04 L 145.28 115.43 C 145.73 116.26 146.76 116.58 147.60 116.13 C 148.43 115.68 148.74 114.65 148.30 113.81 L 148.09 113.42 C 147.64 112.59 146.60 112.28 145.77 112.72 C 144.94 113.17 144.63 114.20 145.07 115.04 Z M 146.88 116.34 L 147.76 116.29 C 148.71 116.24 149.44 115.44 149.39 114.49 C 149.34 113.54 148.54 112.81 147.59 112.86 L 146.70 112.91 C 145.75 112.95 145.03 113.76 145.07 114.71 C 145.12 115.66 145.93 116.39 146.88 116.34 Z M 148.11 116.25 L 149.31 115.93 C 150.24 115.69 150.79 114.75 150.55 113.83 C 150.31 112.91 149.37 112.36 148.45 112.59 L 147.24 112.91 C 146.32 113.15 145.77 114.09 146.01 115.01 C 146.25 115.93 147.19 116.49 148.11 116.25 Z M 149.43 115.90 L 150.32 115.60 C 151.23 115.30 151.72 114.32 151.41 113.42 C 151.11 112.51 150.13 112.02 149.23 112.33 L 148.33 112.62 C 147.43 112.93 146.94 113.91 147.24 114.81 C 147.54 115.72 148.52 116.21 149.43 115.90 Z M 150.34 115.60 L 151.22 115.29 C 152.12 114.98 152.60 114.00 152.29 113.09 C 151.97 112.19 150.99 111.71 150.09 112.03 L 149.21 112.33 C 148.30 112.64 147.83 113.63 148.14 114.53 C 148.45 115.43 149.44 115.91 150.34 115.60 Z M 151.17 115.31 L 152.16 115.00 C 153.07 114.72 153.57 113.75 153.29 112.83 C 153.00 111.92 152.03 111.41 151.12 111.70 L 150.14 112.01 C 149.22 112.30 148.72 113.27 149.00 114.18 C 149.29 115.09 150.26 115.60 151.17 115.31 Z M 152.07 115.03 L 153.17 114.75 C 154.09 114.51 154.65 113.57 154.41 112.64 C 154.18 111.71 153.23 111.16 152.31 111.39 L 151.21 111.67 C 150.28 111.91 149.72 112.86 149.96 113.78 C 150.20 114.71 151.14 115.27 152.07 115.03 Z M 153.07 114.77 L 154.15 114.56 C 155.09 114.37 155.70 113.46 155.52 112.52 C 155.33 111.59 154.42 110.97 153.48 111.16 L 152.40 111.37 C 151.47 111.56 150.85 112.47 151.04 113.40 C 151.22 114.34 152.13 114.95 153.07 114.77 Z M 154.03 114.57 L 155.13 114.44 C 156.08 114.32 156.75 113.45 156.63 112.51 C 156.51 111.56 155.65 110.88 154.70 111.00 L 153.60 111.14 C 152.65 111.26 151.98 112.12 152.10 113.07 C 152.22 114.02 153.08 114.69 154.03 114.57 Z M 154.94 114.45 L 155.93 114.44 C 156.89 114.43 157.65 113.64 157.64 112.68 C 157.63 111.73 156.84 110.96 155.89 110.98 L 154.89 110.99 C 153.93 111.00 153.17 111.79 153.18 112.74 C 153.20 113.70 153.98 114.46 154.94 114.45 Z M 155.57 114.40 L 156.35 114.56 C 157.29 114.75 158.20 114.14 158.39 113.21 C 158.58 112.27 157.97 111.36 157.04 111.17 L 156.25 111.01 C 155.31 110.82 154.40 111.43 154.21 112.37 C 154.02 113.30 154.63 114.22 155.57 114.40 Z M 155.50 114.11 L 156.08 114.66 C 156.76 115.32 157.85 115.30 158.51 114.62 C 159.17 113.93 159.15 112.84 158.47 112.18 L 157.89 111.62 C 157.20 110.96 156.11 110.98 155.45 111.67 C 154.79 112.35 154.81 113.45 155.50 114.11 Z M 155.57 113.49 L 155.60 114.38 C 155.64 115.32 156.43 116.06 157.37 116.02 C 158.31 115.99 159.04 115.20 159.01 114.25 L 158.98 113.36 C 158.94 112.42 158.15 111.68 157.21 111.72 C 156.27 111.75 155.53 112.54 155.57 113.49 Z M 155.73 113.72 L 155.32 114.79 C 155.00 115.66 155.44 116.64 156.31 116.96 C 157.18 117.29 158.15 116.85 158.48 115.98 L 158.88 114.91 C 159.21 114.04 158.77 113.07 157.90 112.74 C 157.03 112.41 156.06 112.85 155.73 113.72 Z M 155.48 114.51 L 154.96 115.36 C 154.47 116.15 154.72 117.18 155.51 117.66 C 156.29 118.14 157.32 117.90 157.81 117.11 L 158.33 116.26 C 158.81 115.47 158.57 114.44 157.78 113.96 C 156.99 113.48 155.96 113.72 155.48 114.51 Z M 155.07 115.22 L 154.46 116.00 C 153.90 116.72 154.04 117.77 154.76 118.33 C 155.49 118.89 156.54 118.76 157.10 118.03 L 157.70 117.25 C 158.26 116.52 158.13 115.48 157.40 114.92 C 156.67 114.36 155.63 114.49 155.07 115.22 Z M 154.55 115.91 L 153.87 116.68 C 153.26 117.36 153.32 118.40 154.00 119.01 C 154.69 119.62 155.73 119.56 156.34 118.87 L 157.02 118.11 C 157.62 117.43 157.56 116.38 156.88 115.78 C 156.20 115.17 155.15 115.23 154.55 115.91 Z M 153.92 116.63 L 153.20 117.37 C 152.57 118.02 152.58 119.06 153.24 119.69 C 153.89 120.33 154.93 120.31 155.56 119.66 L 156.28 118.92 C 156.92 118.27 156.90 117.23 156.25 116.59 C 155.60 115.96 154.56 115.98 153.92 116.63 Z M 153.24 117.34 L 152.51 118.06 C 151.86 118.69 151.85 119.73 152.48 120.37 C 153.12 121.02 154.15 121.03 154.80 120.40 L 155.53 119.69 C 156.18 119.05 156.19 118.02 155.55 117.37 C 154.92 116.72 153.88 116.71 153.24 117.34 Z M 152.53 118.04 L 151.80 118.73 C 151.15 119.35 151.12 120.39 151.74 121.04 C 152.36 121.70 153.40 121.73 154.05 121.10 L 154.78 120.42 C 155.44 119.79 155.46 118.76 154.84 118.10 C 154.22 117.45 153.18 117.42 152.53 118.04 Z M 151.82 118.71 L 151.09 119.39 C 150.42 120.00 150.38 121.04 151.00 121.70 C 151.61 122.36 152.64 122.41 153.31 121.79 L 154.04 121.12 C 154.70 120.51 154.74 119.47 154.13 118.81 C 153.52 118.14 152.48 118.10 151.82 118.71 Z M 151.10 119.37 L 150.36 120.04 C 149.69 120.64 149.64 121.68 150.24 122.35 C 150.85 123.02 151.88 123.08 152.55 122.47 L 153.29 121.81 C 153.97 121.20 154.02 120.17 153.41 119.49 C 152.81 118.82 151.78 118.77 151.10 119.37 Z M 150.38 120.03 L 149.63 120.69 C 148.95 121.29 148.89 122.32 149.48 123.00 C 150.08 123.68 151.12 123.74 151.79 123.14 L 152.54 122.48 C 153.22 121.89 153.28 120.85 152.69 120.17 C 152.09 119.50 151.05 119.43 150.38 120.03 Z M 149.64 120.68 L 148.90 121.32 C 148.21 121.92 148.14 122.95 148.73 123.63 C 149.32 124.32 150.36 124.39 151.04 123.80 L 151.78 123.15 C 152.47 122.56 152.54 121.53 151.95 120.84 C 151.36 120.16 150.32 120.09 149.64 120.68 Z M 148.90 121.32 L 148.14 121.97 C 147.46 122.56 147.38 123.59 147.97 124.28 C 148.56 124.96 149.59 125.04 150.28 124.45 L 151.03 123.80 C 151.72 123.21 151.80 122.18 151.21 121.49 C 150.62 120.81 149.59 120.73 148.90 121.32 Z M 148.15 121.96 L 147.38 122.62 C 146.69 123.20 146.61 124.24 147.20 124.92 C 147.78 125.61 148.81 125.70 149.50 125.11 L 150.27 124.46 C 150.96 123.87 151.04 122.84 150.46 122.15 C 149.87 121.46 148.84 121.38 148.15 121.96 Z M 147.38 122.61 L 146.61 123.27 C 145.92 123.85 145.84 124.89 146.42 125.58 C 147.00 126.27 148.04 126.35 148.73 125.77 L 149.50 125.11 C 150.19 124.53 150.28 123.50 149.69 122.81 C 149.11 122.12 148.07 122.03 147.38 122.61 Z M 146.61 123.27 L 145.90 123.87 C 145.21 124.46 145.12 125.49 145.71 126.18 C 146.29 126.87 147.32 126.96 148.01 126.37 L 148.73 125.77 C 149.42 125.18 149.50 124.15 148.92 123.46 C 148.33 122.77 147.30 122.68 146.61 123.27 Z M 145.90 123.87 L 145.19 124.47 C 144.50 125.05 144.41 126.09 144.99 126.78 C 145.57 127.47 146.61 127.56 147.30 126.97 L 148.01 126.37 C 148.70 125.79 148.79 124.76 148.21 124.07 C 147.62 123.38 146.59 123.29 145.90 123.87 Z M 145.19 124.47 L 144.45 125.09 C 143.75 125.67 143.66 126.70 144.24 127.40 C 144.82 128.09 145.85 128.18 146.55 127.60 L 147.29 126.98 C 147.99 126.40 148.08 125.37 147.50 124.67 C 146.92 123.98 145.89 123.89 145.19 124.47 Z M 144.45 125.08 L 143.66 125.74 C 142.96 126.32 142.87 127.35 143.44 128.05 C 144.02 128.74 145.05 128.84 145.75 128.26 L 146.54 127.61 C 147.24 127.03 147.34 126.00 146.76 125.30 C 146.18 124.61 145.15 124.51 144.45 125.08 Z M 143.67 125.74 L 142.81 126.44 C 142.11 127.01 142.00 128.04 142.57 128.74 C 143.14 129.44 144.18 129.55 144.88 128.97 L 145.74 128.27 C 146.44 127.70 146.54 126.67 145.97 125.97 C 145.40 125.27 144.37 125.16 143.67 125.74 Z M 142.81 126.43 L 142.03 127.07 C 141.32 127.63 141.21 128.66 141.78 129.37 C 142.35 130.07 143.38 130.18 144.08 129.62 L 144.87 128.98 C 145.57 128.41 145.68 127.38 145.12 126.68 C 144.55 125.98 143.52 125.86 142.81 126.43 Z M 142.03 127.06 L 141.23 127.71 C 140.52 128.27 140.40 129.30 140.97 130.01 C 141.53 130.71 142.56 130.83 143.27 130.26 L 144.07 129.62 C 144.78 129.06 144.90 128.03 144.33 127.32 C 143.77 126.61 142.74 126.50 142.03 127.06 Z M 141.23 127.70 L 140.41 128.35 C 139.70 128.91 139.58 129.94 140.14 130.65 C 140.71 131.36 141.73 131.48 142.44 130.92 L 143.26 130.27 C 143.97 129.71 144.09 128.68 143.53 127.97 C 142.97 127.26 141.94 127.14 141.23 127.70 Z M 140.41 128.35 L 139.60 128.99 C 138.89 129.55 138.77 130.58 139.33 131.29 C 139.89 132.00 140.92 132.12 141.63 131.56 L 142.44 130.92 C 143.15 130.36 143.27 129.33 142.71 128.62 C 142.15 127.91 141.12 127.79 140.41 128.35 Z M 139.61 128.99 L 138.82 129.60 C 138.11 130.15 137.99 131.18 138.54 131.90 C 139.10 132.61 140.13 132.73 140.84 132.18 L 141.62 131.56 C 142.33 131.01 142.46 129.98 141.90 129.27 C 141.35 128.55 140.32 128.43 139.61 128.99 Z M 138.83 129.59 L 138.10 130.16 C 137.38 130.72 137.26 131.74 137.81 132.46 C 138.37 133.17 139.39 133.30 140.11 132.75 L 140.84 132.18 C 141.55 131.62 141.68 130.60 141.12 129.88 C 140.57 129.17 139.54 129.04 138.83 129.59 Z M 138.10 130.15 L 137.24 130.82 C 136.52 131.37 136.39 132.40 136.95 133.12 C 137.50 133.84 138.53 133.97 139.25 133.41 L 140.11 132.75 C 140.82 132.20 140.96 131.17 140.40 130.45 C 139.85 129.73 138.82 129.60 138.10 130.15 Z M 137.24 130.80 L 136.45 131.41 C 135.72 131.96 135.58 133.00 136.14 133.72 C 136.69 134.45 137.72 134.59 138.45 134.03 L 139.25 133.43 C 139.97 132.88 140.11 131.84 139.56 131.11 C 139.01 130.39 137.97 130.25 137.24 130.80 Z M 136.45 131.39 L 135.70 131.95 C 134.97 132.50 134.82 133.55 135.37 134.28 C 135.92 135.02 136.96 135.16 137.69 134.61 L 138.45 134.05 C 139.18 133.50 139.33 132.46 138.78 131.72 C 138.23 130.99 137.19 130.84 136.45 131.39 Z M 135.71 131.94 L 134.94 132.50 C 134.20 133.05 134.04 134.10 134.59 134.84 C 135.13 135.59 136.18 135.74 136.92 135.20 L 137.69 134.63 C 138.43 134.08 138.59 133.04 138.04 132.29 C 137.50 131.55 136.45 131.39 135.71 131.94 Z M 134.94 132.49 L 134.03 133.15 C 133.28 133.69 133.11 134.75 133.66 135.50 C 134.21 136.26 135.26 136.42 136.02 135.87 L 136.92 135.21 C 137.68 134.67 137.84 133.61 137.30 132.86 C 136.75 132.10 135.69 131.94 134.94 132.49 Z M 134.00 133.13 L 133.01 133.88 C 132.25 134.44 132.09 135.51 132.65 136.27 C 133.21 137.03 134.29 137.19 135.05 136.63 L 136.05 135.88 C 136.80 135.32 136.96 134.25 136.40 133.49 C 135.84 132.73 134.76 132.57 134.00 133.13 Z M 132.93 133.90 L 132.09 134.58 C 131.34 135.18 131.23 136.28 131.83 137.03 C 132.44 137.77 133.54 137.89 134.28 137.28 L 135.12 136.60 C 135.87 136.00 135.98 134.90 135.38 134.15 C 134.77 133.41 133.68 133.29 132.93 133.90 Z M 131.89 134.72 L 131.42 135.23 C 130.75 135.95 130.79 137.07 131.51 137.74 C 132.23 138.40 133.35 138.36 134.01 137.65 L 134.49 137.13 C 135.15 136.42 135.11 135.30 134.39 134.63 C 133.68 133.97 132.56 134.01 131.89 134.72 Z M 131.15 137.31 L 131.30 137.58 C 131.78 138.45 132.87 138.76 133.74 138.28 C 134.60 137.79 134.92 136.70 134.43 135.83 L 134.28 135.57 C 133.80 134.70 132.71 134.39 131.84 134.87 C 130.97 135.35 130.66 136.45 131.15 137.31 Z M 133.04 138.51 L 133.93 138.42 C 134.93 138.33 135.66 137.44 135.56 136.44 C 135.46 135.45 134.57 134.72 133.58 134.82 L 132.69 134.91 C 131.69 135.00 130.96 135.89 131.06 136.89 C 131.16 137.88 132.05 138.61 133.04 138.51 Z M 134.21 138.39 L 135.50 138.07 C 136.47 137.82 137.07 136.82 136.82 135.84 C 136.57 134.87 135.57 134.27 134.60 134.52 L 133.31 134.85 C 132.33 135.10 131.74 136.09 131.98 137.07 C 132.23 138.05 133.23 138.64 134.21 138.39 Z M 135.59 138.05 L 136.61 137.73 C 137.58 137.43 138.13 136.40 137.82 135.43 C 137.52 134.46 136.49 133.92 135.53 134.22 L 134.50 134.54 C 133.53 134.84 132.99 135.87 133.29 136.84 C 133.59 137.81 134.62 138.35 135.59 138.05 Z M 136.67 137.72 L 137.61 137.39 C 138.57 137.07 139.08 136.02 138.75 135.06 C 138.42 134.09 137.38 133.58 136.41 133.91 L 135.47 134.23 C 134.51 134.56 134.00 135.61 134.33 136.57 C 134.66 137.54 135.70 138.05 136.67 137.72 Z M 137.65 137.38 L 138.58 137.04 C 139.54 136.69 140.03 135.63 139.68 134.67 C 139.33 133.72 138.27 133.23 137.31 133.58 L 136.38 133.92 C 135.42 134.27 134.93 135.33 135.28 136.29 C 135.63 137.24 136.69 137.74 137.65 137.38 Z M 138.61 137.03 L 139.55 136.68 C 140.50 136.31 140.98 135.24 140.61 134.29 C 140.25 133.34 139.18 132.86 138.23 133.23 L 137.29 133.58 C 136.34 133.95 135.86 135.02 136.22 135.97 C 136.59 136.92 137.66 137.40 138.61 137.03 Z M 139.56 136.67 L 140.48 136.31 C 141.43 135.94 141.90 134.87 141.53 133.92 C 141.16 132.97 140.08 132.50 139.13 132.87 L 138.21 133.23 C 137.26 133.60 136.79 134.67 137.16 135.62 C 137.54 136.57 138.61 137.04 139.56 136.67 Z M 140.49 136.31 L 141.40 135.95 C 142.35 135.57 142.82 134.50 142.44 133.55 C 142.07 132.60 140.99 132.13 140.04 132.51 L 139.12 132.87 C 138.17 133.25 137.71 134.32 138.09 135.27 C 138.46 136.22 139.54 136.69 140.49 136.31 Z M 141.41 135.95 L 142.34 135.57 C 143.29 135.19 143.75 134.11 143.37 133.16 C 142.98 132.21 141.91 131.76 140.96 132.14 L 140.03 132.51 C 139.08 132.89 138.62 133.97 139.01 134.92 C 139.39 135.87 140.47 136.33 141.41 135.95 Z M 142.35 135.57 L 143.29 135.18 C 144.24 134.80 144.69 133.71 144.30 132.77 C 143.91 131.82 142.83 131.37 141.88 131.76 L 140.95 132.14 C 140.00 132.53 139.55 133.61 139.94 134.56 C 140.32 135.50 141.41 135.96 142.35 135.57 Z M 143.30 135.18 L 144.20 134.80 C 145.15 134.41 145.59 133.32 145.20 132.38 C 144.80 131.43 143.72 130.99 142.77 131.38 L 141.87 131.76 C 140.93 132.16 140.48 133.24 140.88 134.19 C 141.27 135.13 142.36 135.57 143.30 135.18 Z M 144.21 134.80 L 145.05 134.44 C 145.99 134.04 146.43 132.96 146.03 132.01 C 145.63 131.07 144.54 130.63 143.60 131.03 L 142.76 131.39 C 141.82 131.79 141.38 132.88 141.78 133.82 C 142.18 134.76 143.27 135.20 144.21 134.80 Z M 145.06 134.44 L 145.92 134.07 C 146.86 133.66 147.30 132.57 146.89 131.63 C 146.49 130.69 145.40 130.26 144.46 130.66 L 143.59 131.04 C 142.65 131.44 142.22 132.53 142.62 133.47 C 143.02 134.41 144.11 134.85 145.06 134.44 Z M 145.93 134.07 L 146.85 133.67 C 147.79 133.26 148.22 132.17 147.81 131.23 C 147.41 130.29 146.31 129.86 145.37 130.27 L 144.45 130.66 C 143.51 131.07 143.08 132.16 143.49 133.10 C 143.90 134.04 144.99 134.47 145.93 134.07 Z M 146.85 133.67 L 147.84 133.24 C 148.78 132.83 149.21 131.74 148.80 130.80 C 148.39 129.86 147.30 129.43 146.36 129.84 L 145.37 130.27 C 144.43 130.67 144.00 131.77 144.41 132.71 C 144.82 133.64 145.91 134.08 146.85 133.67 Z M 147.84 133.24 L 148.81 132.81 C 149.75 132.41 150.18 131.31 149.78 130.38 C 149.37 129.44 148.28 129.00 147.34 129.41 L 146.36 129.84 C 145.42 130.24 144.99 131.34 145.40 132.27 C 145.81 133.21 146.90 133.65 147.84 133.24 Z M 148.81 132.82 L 149.64 132.46 C 150.58 132.05 151.01 130.96 150.60 130.02 C 150.20 129.08 149.11 128.65 148.17 129.05 L 147.34 129.41 C 146.40 129.82 145.97 130.91 146.37 131.85 C 146.78 132.79 147.87 133.22 148.81 132.82 Z M 149.64 132.46 L 150.51 132.08 C 151.45 131.68 151.88 130.59 151.48 129.65 C 151.07 128.71 149.98 128.27 149.04 128.68 L 148.17 129.05 C 147.23 129.46 146.79 130.55 147.20 131.49 C 147.60 132.43 148.69 132.86 149.64 132.46 Z M 150.50 132.09 L 151.41 131.70 C 152.35 131.30 152.79 130.21 152.39 129.27 C 151.99 128.32 150.90 127.89 149.95 128.29 L 149.04 128.68 C 148.10 129.08 147.66 130.17 148.07 131.11 C 148.47 132.05 149.56 132.49 150.50 132.09 Z M 151.40 131.70 L 152.35 131.30 C 153.29 130.91 153.73 129.82 153.33 128.87 C 152.93 127.93 151.85 127.49 150.90 127.89 L 149.96 128.29 C 149.02 128.68 148.57 129.77 148.97 130.72 C 149.37 131.66 150.46 132.10 151.40 131.70 Z M 152.34 131.31 L 153.31 130.90 C 154.25 130.51 154.70 129.42 154.31 128.48 C 153.91 127.53 152.83 127.08 151.88 127.48 L 150.91 127.88 C 149.97 128.28 149.52 129.36 149.91 130.31 C 150.31 131.25 151.39 131.70 152.34 131.31 Z M 153.30 130.91 L 154.29 130.50 C 155.24 130.11 155.69 129.03 155.30 128.08 C 154.91 127.13 153.83 126.68 152.88 127.07 L 151.89 127.48 C 150.94 127.86 150.49 128.95 150.88 129.90 C 151.27 130.84 152.35 131.30 153.30 130.91 Z M 154.28 130.50 L 155.29 130.10 C 156.24 129.71 156.70 128.63 156.32 127.68 C 155.93 126.73 154.85 126.27 153.90 126.66 L 152.89 127.06 C 151.94 127.45 151.49 128.53 151.87 129.48 C 152.25 130.43 153.33 130.89 154.28 130.50 Z M 155.28 130.10 L 156.30 129.70 C 157.25 129.32 157.72 128.24 157.34 127.29 C 156.96 126.34 155.88 125.87 154.93 126.25 L 153.92 126.65 C 152.96 127.03 152.50 128.11 152.87 129.06 C 153.25 130.01 154.33 130.48 155.28 130.10 Z M 156.29 129.70 L 157.30 129.31 C 158.25 128.94 158.72 127.86 158.35 126.91 C 157.98 125.95 156.91 125.48 155.95 125.85 L 154.94 126.24 C 153.99 126.62 153.51 127.69 153.89 128.64 C 154.26 129.60 155.33 130.07 156.29 129.70 Z M 157.29 129.31 L 158.27 128.94 C 159.23 128.57 159.71 127.50 159.35 126.54 C 158.98 125.59 157.91 125.11 156.95 125.47 L 155.96 125.85 C 155.01 126.21 154.53 127.28 154.89 128.24 C 155.26 129.20 156.33 129.68 157.29 129.31 Z M 158.26 128.94 L 159.22 128.58 C 160.18 128.22 160.66 127.16 160.30 126.20 C 159.94 125.24 158.87 124.75 157.92 125.11 L 156.96 125.47 C 156.00 125.83 155.52 126.89 155.88 127.85 C 156.24 128.81 157.30 129.30 158.26 128.94 Z M 159.20 128.59 L 160.11 128.26 C 161.07 127.90 161.56 126.84 161.21 125.88 C 160.86 124.92 159.79 124.42 158.83 124.78 L 157.93 125.11 C 156.97 125.46 156.47 126.52 156.83 127.49 C 157.18 128.45 158.24 128.94 159.20 128.59 Z M 160.09 128.26 L 160.93 127.96 C 161.89 127.62 162.39 126.55 162.05 125.59 C 161.70 124.63 160.64 124.13 159.68 124.47 L 158.84 124.77 C 157.88 125.12 157.38 126.18 157.72 127.14 C 158.07 128.11 159.13 128.61 160.09 128.26 Z M 160.91 127.97 L 161.84 127.65 C 162.80 127.31 163.32 126.25 162.98 125.29 C 162.65 124.32 161.59 123.81 160.62 124.14 L 159.69 124.47 C 158.73 124.80 158.22 125.86 158.55 126.82 C 158.89 127.79 159.94 128.30 160.91 127.97 Z M 161.81 127.66 L 162.93 127.29 C 163.90 126.97 164.43 125.92 164.11 124.95 C 163.79 123.98 162.75 123.45 161.77 123.77 L 160.65 124.13 C 159.68 124.45 159.15 125.50 159.47 126.47 C 159.79 127.44 160.83 127.97 161.81 127.66 Z M 162.88 127.30 L 163.81 127.02 C 164.79 126.73 165.35 125.69 165.05 124.71 C 164.76 123.73 163.72 123.18 162.74 123.47 L 161.82 123.75 C 160.84 124.05 160.28 125.08 160.58 126.06 C 160.87 127.04 161.91 127.60 162.88 127.30 Z M 163.77 127.03 L 164.59 126.81 C 165.57 126.53 166.15 125.51 165.88 124.53 C 165.61 123.54 164.59 122.97 163.60 123.24 L 162.79 123.46 C 161.80 123.74 161.22 124.76 161.49 125.74 C 161.77 126.73 162.79 127.30 163.77 127.03 Z M 164.56 126.81 L 165.38 126.60 C 166.36 126.34 166.96 125.33 166.70 124.34 C 166.44 123.35 165.43 122.76 164.44 123.02 L 163.63 123.23 C 162.64 123.49 162.05 124.50 162.31 125.49 C 162.57 126.48 163.58 127.07 164.56 126.81 Z M 165.35 126.60 L 166.23 126.39 C 167.23 126.14 167.83 125.14 167.58 124.15 C 167.34 123.16 166.34 122.55 165.35 122.80 L 164.46 123.02 C 163.47 123.26 162.87 124.26 163.11 125.25 C 163.36 126.24 164.36 126.85 165.35 126.60 Z M 166.19 126.39 L 167.16 126.18 C 168.15 125.96 168.78 124.97 168.56 123.98 C 168.34 122.98 167.35 122.35 166.36 122.57 L 165.39 122.79 C 164.39 123.01 163.77 124.00 163.99 124.99 C 164.21 125.99 165.19 126.62 166.19 126.39 Z M 167.10 126.19 L 168.19 125.98 C 169.20 125.79 169.85 124.83 169.66 123.82 C 169.47 122.82 168.51 122.17 167.51 122.36 L 166.41 122.56 C 165.41 122.75 164.75 123.72 164.94 124.72 C 165.13 125.72 166.10 126.38 167.10 126.19 Z M 168.14 125.99 L 169.05 125.84 C 170.05 125.68 170.74 124.74 170.58 123.73 C 170.41 122.72 169.47 122.04 168.46 122.20 L 167.56 122.35 C 166.55 122.51 165.87 123.46 166.03 124.46 C 166.19 125.47 167.14 126.15 168.14 125.99 Z M 169.01 125.85 L 169.91 125.72 C 170.92 125.58 171.62 124.65 171.48 123.64 C 171.34 122.63 170.41 121.93 169.40 122.07 L 168.50 122.20 C 167.49 122.34 166.79 123.27 166.93 124.28 C 167.07 125.29 168.00 125.99 169.01 125.85 Z M 169.88 125.73 L 170.85 125.61 C 171.86 125.49 172.58 124.57 172.46 123.56 C 172.34 122.55 171.42 121.83 170.41 121.95 L 169.44 122.07 C 168.43 122.19 167.71 123.11 167.83 124.12 C 167.95 125.13 168.87 125.85 169.88 125.73 Z M 170.82 125.61 L 171.85 125.51 C 172.87 125.40 173.60 124.50 173.50 123.49 C 173.40 122.48 172.49 121.74 171.48 121.84 L 170.44 121.95 C 169.43 122.05 168.69 122.95 168.80 123.97 C 168.90 124.98 169.80 125.72 170.82 125.61 Z M 171.82 125.51 L 172.92 125.42 C 173.93 125.33 174.68 124.44 174.60 123.43 C 174.51 122.42 173.62 121.66 172.61 121.75 L 171.51 121.84 C 170.50 121.92 169.75 122.82 169.83 123.83 C 169.92 124.84 170.81 125.59 171.82 125.51 Z M 172.88 125.42 L 173.99 125.35 C 175.00 125.28 175.77 124.40 175.70 123.39 C 175.63 122.37 174.76 121.61 173.74 121.67 L 172.64 121.75 C 171.63 121.81 170.86 122.69 170.93 123.70 C 170.99 124.72 171.87 125.49 172.88 125.42 Z M 173.95 125.35 L 175.00 125.30 C 176.02 125.25 176.80 124.39 176.75 123.37 C 176.70 122.36 175.84 121.57 174.83 121.62 L 173.78 121.67 C 172.76 121.72 171.98 122.58 172.03 123.60 C 172.08 124.61 172.94 125.40 173.95 125.35 Z M 174.97 125.30 L 176.02 125.27 C 177.04 125.24 177.84 124.39 177.81 123.38 C 177.78 122.36 176.94 121.56 175.92 121.59 L 174.86 121.62 C 173.85 121.65 173.05 122.50 173.08 123.51 C 173.11 124.53 173.95 125.33 174.97 125.30 Z M 175.98 125.27 L 177.02 125.26 C 178.03 125.26 178.85 124.43 178.85 123.42 C 178.85 122.41 178.02 121.59 177.01 121.59 L 175.97 121.59 C 174.95 121.60 174.13 122.42 174.13 123.44 C 174.14 124.45 174.96 125.27 175.98 125.27 Z M 176.96 125.26 L 177.96 125.29 C 178.98 125.32 179.82 124.52 179.85 123.51 C 179.88 122.49 179.08 121.65 178.06 121.62 L 177.06 121.59 C 176.05 121.56 175.21 122.36 175.18 123.37 C 175.15 124.39 175.95 125.23 176.96 125.26 Z M 177.89 125.28 L 178.82 125.35 C 179.83 125.42 180.71 124.66 180.78 123.65 C 180.85 122.63 180.09 121.76 179.08 121.69 L 178.14 121.62 C 177.13 121.55 176.25 122.32 176.18 123.33 C 176.11 124.34 176.88 125.21 177.89 125.28 Z M 178.71 125.34 L 179.66 125.46 C 180.67 125.59 181.58 124.88 181.71 123.88 C 181.84 122.87 181.14 121.95 180.13 121.82 L 179.19 121.70 C 178.18 121.57 177.26 122.28 177.13 123.28 C 177.00 124.29 177.71 125.21 178.71 125.34 Z M 179.46 125.42 L 180.57 125.69 C 181.55 125.93 182.54 125.33 182.78 124.35 C 183.02 123.37 182.42 122.38 181.44 122.14 L 180.33 121.86 C 179.35 121.62 178.36 122.23 178.12 123.21 C 177.88 124.19 178.48 125.18 179.46 125.42 Z M 180.26 125.58 L 181.15 125.98 C 182.06 126.39 183.15 125.99 183.56 125.07 C 183.98 124.15 183.57 123.07 182.65 122.65 L 181.76 122.25 C 180.84 121.83 179.76 122.24 179.34 123.16 C 178.93 124.08 179.34 125.16 180.26 125.58 Z M 180.78 125.75 L 181.48 126.30 C 182.28 126.92 183.42 126.78 184.04 125.98 C 184.66 125.19 184.51 124.05 183.72 123.43 L 183.02 122.88 C 182.22 122.26 181.08 122.40 180.46 123.20 C 179.84 123.99 179.99 125.13 180.78 125.75 Z M 181.17 125.98 L 181.72 126.69 C 182.34 127.48 183.48 127.62 184.27 127.01 C 185.06 126.39 185.20 125.25 184.59 124.46 L 184.04 123.75 C 183.42 122.96 182.28 122.81 181.49 123.43 C 180.70 124.05 180.55 125.19 181.17 125.98 Z M 181.53 126.38 L 181.96 127.24 C 182.40 128.14 183.49 128.50 184.38 128.06 C 185.28 127.62 185.65 126.53 185.20 125.63 L 184.78 124.77 C 184.34 123.87 183.25 123.51 182.35 123.95 C 181.45 124.39 181.09 125.48 181.53 126.38 Z M 181.86 127.00 L 182.18 127.96 C 182.49 128.91 183.51 129.43 184.46 129.12 C 185.41 128.80 185.93 127.78 185.62 126.83 L 185.30 125.87 C 184.99 124.92 183.96 124.41 183.01 124.72 C 182.07 125.03 181.55 126.05 181.86 127.00 Z M 182.14 127.79 L 182.36 128.80 C 182.57 129.77 183.54 130.38 184.51 130.17 C 185.48 129.95 186.10 128.99 185.88 128.02 L 185.66 127.01 C 185.44 126.03 184.48 125.42 183.51 125.64 C 182.53 125.85 181.92 126.81 182.14 127.79 Z M 182.34 128.66 L 182.49 129.69 C 182.63 130.67 183.54 131.35 184.52 131.21 C 185.51 131.07 186.19 130.16 186.05 129.17 L 185.90 128.15 C 185.76 127.17 184.85 126.48 183.87 126.62 C 182.88 126.77 182.20 127.68 182.34 128.66 Z M 182.48 129.55 L 182.55 130.57 C 182.61 131.56 183.46 132.30 184.45 132.24 C 185.44 132.17 186.18 131.32 186.12 130.34 L 186.05 129.31 C 185.99 128.33 185.14 127.58 184.15 127.64 C 183.16 127.71 182.42 128.56 182.48 129.55 Z M 182.56 130.38 L 182.52 131.37 C 182.48 132.35 183.24 133.17 184.22 133.21 C 185.20 133.25 186.03 132.49 186.07 131.51 L 186.11 130.53 C 186.15 129.55 185.39 128.72 184.41 128.68 C 183.43 128.64 182.60 129.40 182.56 130.38 Z M 182.56 131.13 L 182.39 132.09 C 182.22 133.05 182.86 133.96 183.82 134.13 C 184.78 134.30 185.69 133.66 185.86 132.70 L 186.03 131.75 C 186.20 130.79 185.56 129.87 184.60 129.70 C 183.64 129.53 182.73 130.17 182.56 131.13 Z M 182.46 131.84 L 182.16 132.74 C 181.85 133.65 182.35 134.65 183.26 134.96 C 184.18 135.26 185.17 134.77 185.48 133.85 L 185.79 132.95 C 186.09 132.04 185.60 131.04 184.68 130.73 C 183.77 130.42 182.77 130.92 182.46 131.84 Z M 182.26 132.53 L 181.83 133.40 C 181.41 134.26 181.77 135.31 182.63 135.73 C 183.49 136.15 184.53 135.79 184.96 134.93 L 185.38 134.06 C 185.81 133.20 185.45 132.16 184.59 131.73 C 183.72 131.31 182.68 131.67 182.26 132.53 Z M 181.93 133.25 L 181.40 134.11 C 180.89 134.92 181.14 135.98 181.95 136.49 C 182.76 136.99 183.82 136.74 184.33 135.93 L 184.86 135.08 C 185.36 134.27 185.12 133.20 184.31 132.70 C 183.50 132.20 182.43 132.44 181.93 133.25 Z M 181.48 134.01 L 180.86 134.86 C 180.30 135.62 180.47 136.69 181.23 137.25 C 181.99 137.81 183.07 137.64 183.62 136.88 L 184.24 136.03 C 184.80 135.27 184.64 134.20 183.87 133.64 C 183.11 133.08 182.04 133.25 181.48 134.01 Z M 180.93 134.79 L 180.31 135.55 C 179.72 136.27 179.82 137.35 180.55 137.94 C 181.28 138.53 182.35 138.43 182.94 137.70 L 183.56 136.94 C 184.15 136.22 184.05 135.15 183.32 134.55 C 182.59 133.96 181.52 134.06 180.93 134.79 Z M 180.36 135.50 L 179.71 136.23 C 179.09 136.93 179.16 137.99 179.85 138.62 C 180.55 139.24 181.62 139.17 182.24 138.48 L 182.89 137.75 C 183.51 137.05 183.45 135.98 182.75 135.36 C 182.05 134.74 180.98 134.80 180.36 135.50 Z M 179.76 136.19 L 179.07 136.91 C 178.43 137.58 178.45 138.64 179.12 139.29 C 179.79 139.93 180.85 139.91 181.49 139.24 L 182.19 138.52 C 182.83 137.85 182.81 136.78 182.14 136.14 C 181.47 135.50 180.41 135.52 179.76 136.19 Z M 179.12 136.88 L 178.38 137.59 C 177.72 138.24 177.70 139.29 178.34 139.96 C 178.99 140.62 180.04 140.63 180.71 139.99 L 181.45 139.28 C 182.11 138.63 182.12 137.57 181.48 136.91 C 180.84 136.25 179.78 136.23 179.12 136.88 Z M 178.42 137.56 L 177.67 138.25 C 176.99 138.87 176.94 139.92 177.56 140.60 C 178.18 141.28 179.23 141.33 179.91 140.71 L 180.66 140.02 C 181.34 139.40 181.39 138.35 180.77 137.67 C 180.16 136.99 179.10 136.94 178.42 137.56 Z M 177.71 138.22 L 176.96 138.87 C 176.26 139.46 176.18 140.51 176.78 141.20 C 177.37 141.90 178.42 141.98 179.11 141.38 L 179.87 140.74 C 180.56 140.14 180.64 139.10 180.05 138.40 C 179.45 137.71 178.41 137.63 177.71 138.22 Z M 177.00 138.84 L 176.22 139.47 C 175.51 140.04 175.39 141.08 175.97 141.79 C 176.54 142.50 177.58 142.61 178.29 142.04 L 179.07 141.41 C 179.78 140.84 179.89 139.80 179.32 139.09 C 178.75 138.38 177.71 138.27 177.00 138.84 Z M 176.26 139.44 L 175.46 140.04 C 174.73 140.59 174.58 141.62 175.13 142.35 C 175.68 143.08 176.71 143.22 177.44 142.68 L 178.24 142.07 C 178.97 141.52 179.12 140.49 178.57 139.76 C 178.02 139.04 176.99 138.89 176.26 139.44 Z M 175.51 140.01 L 174.68 140.59 C 173.94 141.11 173.76 142.13 174.28 142.88 C 174.80 143.62 175.82 143.80 176.57 143.28 L 177.39 142.71 C 178.13 142.19 178.31 141.16 177.80 140.42 C 177.28 139.68 176.25 139.49 175.51 140.01 Z M 174.74 140.56 L 173.94 141.07 C 173.17 141.56 172.95 142.57 173.44 143.34 C 173.93 144.10 174.95 144.32 175.71 143.83 L 176.51 143.31 C 177.27 142.83 177.49 141.81 177.00 141.05 C 176.52 140.29 175.50 140.07 174.74 140.56 Z M 174.00 141.04 L 173.19 141.51 C 172.41 141.96 172.15 142.97 172.60 143.75 C 173.06 144.53 174.06 144.79 174.84 144.34 L 175.65 143.86 C 176.43 143.41 176.69 142.40 176.24 141.62 C 175.78 140.84 174.78 140.58 174.00 141.04 Z M 173.25 141.47 L 172.41 141.92 C 171.60 142.34 171.30 143.33 171.72 144.13 C 172.14 144.93 173.13 145.24 173.93 144.82 L 174.78 144.37 C 175.58 143.95 175.89 142.96 175.47 142.16 C 175.05 141.36 174.05 141.05 173.25 141.47 Z M 172.47 141.89 L 171.56 142.32 C 170.74 142.70 170.39 143.68 170.77 144.50 C 171.16 145.31 172.14 145.66 172.95 145.28 L 173.87 144.85 C 174.68 144.46 175.04 143.49 174.65 142.67 C 174.26 141.85 173.29 141.50 172.47 141.89 Z M 171.62 142.29 L 170.62 142.71 C 169.79 143.06 169.40 144.02 169.75 144.85 C 170.10 145.69 171.06 146.08 171.90 145.73 L 172.89 145.31 C 173.73 144.96 174.12 143.99 173.76 143.16 C 173.41 142.33 172.45 141.94 171.62 142.29 Z M 170.68 142.69 L 169.74 143.04 C 168.90 143.37 168.47 144.31 168.80 145.16 C 169.12 146.00 170.07 146.43 170.91 146.10 L 171.85 145.75 C 172.69 145.42 173.11 144.48 172.79 143.63 C 172.47 142.79 171.52 142.37 170.68 142.69 Z M 169.78 143.03 L 168.91 143.34 C 168.06 143.64 167.61 144.58 167.91 145.43 C 168.22 146.28 169.15 146.73 170.00 146.43 L 170.87 146.12 C 171.73 145.81 172.17 144.88 171.87 144.03 C 171.57 143.17 170.63 142.73 169.78 143.03 Z M 168.94 143.33 L 168.02 143.64 C 167.16 143.93 166.70 144.86 166.99 145.71 C 167.28 146.57 168.21 147.03 169.06 146.74 L 169.98 146.43 C 170.84 146.15 171.30 145.22 171.01 144.36 C 170.72 143.50 169.79 143.04 168.94 143.33 Z M 168.04 143.63 L 167.08 143.94 C 166.22 144.22 165.75 145.14 166.03 146.00 C 166.30 146.86 167.23 147.34 168.09 147.06 L 169.04 146.75 C 169.90 146.47 170.38 145.55 170.10 144.69 C 169.82 143.83 168.90 143.36 168.04 143.63 Z M 167.10 143.94 L 166.11 144.25 C 165.25 144.52 164.77 145.43 165.04 146.30 C 165.31 147.16 166.23 147.64 167.09 147.37 L 168.07 147.06 C 168.94 146.79 169.42 145.87 169.15 145.01 C 168.88 144.15 167.96 143.67 167.10 143.94 Z M 166.12 144.24 L 165.11 144.55 C 164.25 144.82 163.76 145.73 164.03 146.60 C 164.29 147.46 165.21 147.95 166.07 147.68 L 167.08 147.37 C 167.94 147.11 168.43 146.19 168.16 145.33 C 167.90 144.46 166.98 143.98 166.12 144.24 Z M 165.12 144.55 L 164.10 144.86 C 163.24 145.12 162.75 146.03 163.01 146.90 C 163.27 147.77 164.18 148.25 165.05 147.99 L 166.07 147.68 C 166.93 147.42 167.42 146.51 167.16 145.64 C 166.90 144.78 165.98 144.29 165.12 144.55 Z M 164.10 144.86 L 163.77 144.96 C 162.90 145.22 162.41 146.13 162.67 147.00 C 162.93 147.87 163.85 148.36 164.71 148.09 L 165.05 147.99 C 165.91 147.73 166.40 146.82 166.14 145.95 C 165.88 145.09 164.97 144.60 164.10 144.86 Z"
      fill="black"
      fill-rule="nonzero" /><path d="M 153.61 140.02 L 153.96 140.90 C 154.33 141.79 155.34 142.22 156.23 141.86 C 157.12 141.50 157.55 140.48 157.19 139.59 L 156.83 138.71 C 156.47 137.82 155.46 137.39 154.57 137.75 C 153.67 138.11 153.25 139.13 153.61 140.02 Z M 153.92 140.88 L 154.27 141.80 C 154.62 142.72 155.65 143.17 156.56 142.82 C 157.48 142.47 157.94 141.44 157.59 140.53 L 157.24 139.61 C 156.89 138.69 155.86 138.23 154.94 138.59 C 154.02 138.94 153.57 139.97 153.92 140.88 Z M 154.21 141.75 L 154.55 142.73 C 154.87 143.68 155.90 144.19 156.85 143.86 C 157.80 143.54 158.31 142.50 157.98 141.55 L 157.65 140.57 C 157.32 139.63 156.29 139.12 155.34 139.44 C 154.39 139.77 153.89 140.80 154.21 141.75 Z M 154.50 142.67 L 154.77 143.60 C 155.06 144.58 156.09 145.13 157.06 144.84 C 158.04 144.55 158.60 143.53 158.31 142.55 L 158.03 141.62 C 157.74 140.64 156.72 140.09 155.74 140.38 C 154.77 140.67 154.21 141.69 154.50 142.67 Z M 154.75 143.54 L 154.99 144.48 C 155.25 145.47 156.26 146.06 157.25 145.81 C 158.24 145.55 158.83 144.54 158.58 143.55 L 158.34 142.61 C 158.08 141.62 157.07 141.03 156.08 141.28 C 155.09 141.54 154.49 142.55 154.75 143.54 Z M 154.97 144.43 L 155.20 145.42 C 155.43 146.42 156.43 147.04 157.43 146.81 C 158.43 146.58 159.06 145.58 158.82 144.57 L 158.60 143.59 C 158.36 142.59 157.36 141.97 156.36 142.20 C 155.36 142.43 154.74 143.43 154.97 144.43 Z M 155.19 145.39 L 155.41 146.41 C 155.62 147.42 156.61 148.06 157.62 147.85 C 158.63 147.63 159.27 146.64 159.06 145.63 L 158.84 144.61 C 158.62 143.60 157.63 142.96 156.62 143.17 C 155.62 143.39 154.97 144.38 155.19 145.39 Z M 155.40 146.39 L 155.59 147.35 C 155.79 148.36 156.78 149.02 157.79 148.82 C 158.80 148.62 159.46 147.63 159.26 146.62 L 159.07 145.66 C 158.86 144.64 157.88 143.98 156.87 144.19 C 155.85 144.39 155.19 145.37 155.40 146.39 Z M 155.58 147.33 L 155.75 148.25 C 155.95 149.27 156.93 149.94 157.94 149.75 C 158.96 149.55 159.63 148.58 159.44 147.56 L 159.26 146.64 C 159.07 145.62 158.09 144.95 157.08 145.14 C 156.06 145.33 155.39 146.31 155.58 147.33 Z M 155.75 148.23 L 155.92 149.19 C 156.10 150.21 157.07 150.89 158.09 150.71 C 159.11 150.53 159.79 149.56 159.61 148.54 L 159.44 147.58 C 159.26 146.56 158.29 145.88 157.27 146.06 C 156.25 146.24 155.57 147.21 155.75 148.23 Z M 155.91 149.17 L 156.08 150.18 C 156.25 151.20 157.22 151.89 158.24 151.72 C 159.26 151.55 159.95 150.59 159.78 149.57 L 159.62 148.56 C 159.45 147.53 158.48 146.84 157.46 147.01 C 156.44 147.18 155.75 148.15 155.91 149.17 Z M 156.08 150.16 L 156.24 151.23 C 156.40 152.25 157.36 152.96 158.38 152.80 C 159.41 152.64 160.11 151.68 159.95 150.66 L 159.79 149.59 C 159.63 148.56 158.67 147.86 157.65 148.02 C 156.62 148.17 155.92 149.13 156.08 150.16 Z M 156.24 151.21 L 156.39 152.23 C 156.53 153.26 157.49 153.97 158.51 153.82 C 159.54 153.67 160.25 152.72 160.10 151.69 L 159.96 150.68 C 159.81 149.65 158.86 148.94 157.83 149.08 C 156.80 149.23 156.09 150.19 156.24 151.21 Z M 156.38 152.22 L 156.52 153.24 C 156.66 154.27 157.61 154.99 158.64 154.85 C 159.67 154.70 160.39 153.76 160.25 152.73 L 160.11 151.71 C 159.97 150.68 159.02 149.96 157.99 150.10 C 156.96 150.24 156.24 151.19 156.38 152.22 Z M 156.52 153.23 L 156.65 154.26 C 156.79 155.29 157.73 156.01 158.76 155.88 C 159.79 155.74 160.52 154.80 160.38 153.77 L 160.25 152.74 C 160.11 151.71 159.17 150.99 158.14 151.12 C 157.11 151.25 156.39 152.20 156.52 153.23 Z M 156.65 154.25 L 156.78 155.26 C 156.91 156.29 157.84 157.02 158.87 156.90 C 159.90 156.77 160.64 155.83 160.51 154.80 L 160.38 153.78 C 160.26 152.75 159.32 152.02 158.29 152.15 C 157.26 152.28 156.53 153.22 156.65 154.25 Z M 156.78 155.25 L 156.89 156.22 C 157.01 157.25 157.95 157.99 158.98 157.87 C 160.01 157.75 160.75 156.82 160.63 155.78 L 160.51 154.81 C 160.39 153.78 159.46 153.04 158.42 153.16 C 157.39 153.28 156.66 154.22 156.78 155.25 Z M 156.89 156.21 L 156.99 157.16 C 157.11 158.20 158.04 158.94 159.07 158.83 C 160.10 158.71 160.85 157.78 160.73 156.75 L 160.63 155.80 C 160.51 154.77 159.58 154.02 158.55 154.14 C 157.52 154.25 156.78 155.18 156.89 156.21 Z M 156.99 157.14 L 157.11 158.26 C 157.21 159.30 158.13 160.05 159.16 159.95 C 160.20 159.84 160.95 158.92 160.85 157.89 L 160.73 156.77 C 160.63 155.74 159.71 154.98 158.68 155.09 C 157.64 155.19 156.89 156.11 156.99 157.14 Z M 157.10 158.24 L 157.19 159.23 C 157.28 160.27 158.19 161.04 159.23 160.95 C 160.26 160.86 161.03 159.94 160.94 158.91 L 160.85 157.91 C 160.76 156.88 159.85 156.11 158.81 156.20 C 157.78 156.29 157.01 157.20 157.10 158.24 Z M 157.19 159.21 L 157.25 160.13 C 157.33 161.17 158.23 161.95 159.27 161.87 C 160.30 161.80 161.08 160.90 161.00 159.86 L 160.94 158.94 C 160.86 157.90 159.96 157.12 158.93 157.20 C 157.89 157.27 157.11 158.17 157.19 159.21 Z M 157.25 160.11 L 157.31 161.02 C 157.37 162.05 158.26 162.85 159.29 162.78 C 160.33 162.72 161.12 161.83 161.06 160.80 L 161.01 159.89 C 160.95 158.85 160.06 158.06 159.02 158.12 C 157.98 158.18 157.19 159.07 157.25 160.11 Z M 157.30 161.00 L 157.35 161.97 C 157.40 163.00 158.28 163.81 159.32 163.75 C 160.36 163.70 161.16 162.82 161.11 161.79 L 161.06 160.82 C 161.01 159.78 160.13 158.98 159.09 159.03 C 158.06 159.08 157.25 159.96 157.30 161.00 Z M 157.35 161.95 L 157.39 162.95 C 157.43 163.98 158.31 164.79 159.35 164.75 C 160.38 164.71 161.19 163.83 161.15 162.79 L 161.11 161.80 C 161.07 160.76 160.19 159.96 159.15 160.00 C 158.12 160.04 157.31 160.92 157.35 161.95 Z M 157.39 162.94 L 157.43 163.95 C 157.47 164.99 158.34 165.80 159.37 165.77 C 160.41 165.73 161.22 164.86 161.19 163.82 L 161.15 162.80 C 161.11 161.77 160.24 160.95 159.20 160.99 C 158.17 161.03 157.35 161.90 157.39 162.94 Z M 157.43 163.95 L 157.46 164.97 C 157.50 166.01 158.37 166.82 159.40 166.79 C 160.44 166.75 161.26 165.88 161.22 164.84 L 161.19 163.82 C 161.15 162.79 160.28 161.97 159.24 162.01 C 158.21 162.04 157.39 162.91 157.43 163.95 Z M 157.46 164.97 L 157.49 165.97 C 157.53 167.00 158.40 167.82 159.43 167.79 C 160.47 167.75 161.29 166.88 161.25 165.85 L 161.22 164.85 C 161.19 163.81 160.32 162.99 159.28 163.03 C 158.24 163.06 157.43 163.93 157.46 164.97 Z M 157.49 165.96 L 157.52 166.97 C 157.55 168.00 158.42 168.82 159.46 168.79 C 160.50 168.76 161.31 167.89 161.28 166.86 L 161.25 165.85 C 161.22 164.81 160.36 164.00 159.32 164.03 C 158.28 164.06 157.46 164.92 157.49 165.96 Z M 157.52 166.96 L 157.55 167.96 C 157.57 169.00 158.44 169.82 159.47 169.79 C 160.51 169.77 161.33 168.90 161.31 167.87 L 161.28 166.86 C 161.26 165.83 160.39 165.00 159.36 165.03 C 158.32 165.06 157.50 165.92 157.52 166.96 Z M 157.55 167.95 L 157.56 168.95 C 157.58 169.99 158.44 170.81 159.48 170.80 C 160.52 170.78 161.35 169.92 161.33 168.88 L 161.31 167.88 C 161.29 166.84 160.43 166.01 159.39 166.03 C 158.35 166.05 157.53 166.91 157.55 167.95 Z M 157.56 168.93 L 157.58 169.95 C 157.59 170.98 158.44 171.82 159.48 171.81 C 160.52 171.80 161.35 170.94 161.34 169.90 L 161.33 168.89 C 161.32 167.85 160.47 167.02 159.43 167.03 C 158.39 167.04 157.55 167.89 157.56 168.93 Z M 157.57 169.93 L 157.58 170.93 C 157.58 171.97 158.43 172.81 159.47 172.81 C 160.51 172.80 161.35 171.95 161.35 170.91 L 161.34 169.91 C 161.34 168.87 160.49 168.04 159.45 168.04 C 158.41 168.05 157.57 168.89 157.57 169.93 Z M 157.58 170.93 L 157.58 171.92 C 157.58 172.96 158.43 173.80 159.47 173.80 C 160.51 173.80 161.35 172.95 161.35 171.91 L 161.35 170.92 C 161.35 169.88 160.50 169.04 159.46 169.04 C 158.42 169.04 157.58 169.89 157.58 170.93 Z M 157.58 171.92 L 157.58 172.91 C 157.58 173.95 158.42 174.79 159.46 174.79 C 160.51 174.79 161.35 173.95 161.35 172.91 L 161.35 171.91 C 161.35 170.87 160.51 170.03 159.46 170.03 C 158.42 170.03 157.58 170.87 157.58 171.92 Z M 157.58 172.91 L 157.58 173.90 C 157.58 174.94 158.42 175.79 159.46 175.79 C 160.51 175.79 161.35 174.94 161.35 173.90 L 161.35 172.91 C 161.35 171.86 160.51 171.02 159.46 171.02 C 158.42 171.02 157.58 171.86 157.58 172.91 Z M 157.58 173.90 L 157.58 174.90 C 157.58 175.94 158.42 176.79 159.46 176.79 C 160.51 176.79 161.35 175.94 161.35 174.90 L 161.35 173.90 C 161.35 172.86 160.51 172.01 159.46 172.01 C 158.42 172.01 157.58 172.86 157.58 173.90 Z M 157.58 174.90 L 157.58 175.90 C 157.58 176.95 158.42 177.79 159.46 177.79 C 160.51 177.79 161.35 176.95 161.35 175.90 L 161.35 174.90 C 161.35 173.86 160.51 173.01 159.46 173.01 C 158.42 173.01 157.58 173.86 157.58 174.90 Z M 157.58 175.90 L 157.58 176.87 C 157.58 177.92 158.42 178.76 159.46 178.76 C 160.51 178.76 161.35 177.92 161.35 176.87 L 161.35 175.90 C 161.35 174.86 160.51 174.02 159.46 174.02 C 158.42 174.02 157.58 174.86 157.58 175.90 Z M 157.58 176.86 L 157.57 177.81 C 157.56 178.86 158.41 179.71 159.45 179.71 C 160.49 179.72 161.34 178.88 161.35 177.83 L 161.35 176.88 C 161.36 175.84 160.52 174.99 159.47 174.99 C 158.43 174.98 157.58 175.82 157.58 176.86 Z M 157.57 177.79 L 157.55 178.77 C 157.53 179.81 158.36 180.67 159.41 180.69 C 160.45 180.71 161.31 179.88 161.33 178.84 L 161.35 177.86 C 161.37 176.82 160.54 175.95 159.49 175.93 C 158.45 175.91 157.59 176.74 157.57 177.79 Z M 157.55 178.73 L 157.51 179.77 C 157.47 180.81 158.28 181.69 159.33 181.73 C 160.37 181.77 161.25 180.96 161.29 179.92 L 161.33 178.88 C 161.37 177.84 160.56 176.96 159.51 176.92 C 158.47 176.88 157.59 177.69 157.55 178.73 Z M 157.51 179.72 L 157.45 180.77 C 157.38 181.81 158.17 182.71 159.21 182.77 C 160.25 182.84 161.15 182.05 161.22 181.01 L 161.28 179.96 C 161.35 178.92 160.56 178.02 159.52 177.96 C 158.48 177.89 157.58 178.68 157.51 179.72 Z M 157.45 180.72 L 157.36 181.70 C 157.27 182.74 158.03 183.66 159.07 183.75 C 160.11 183.84 161.03 183.08 161.13 182.04 L 161.21 181.06 C 161.31 180.02 160.54 179.10 159.50 179.01 C 158.46 178.91 157.54 179.68 157.45 180.72 Z M 157.37 181.65 L 157.25 182.66 C 157.13 183.69 157.87 184.63 158.91 184.75 C 159.94 184.87 160.88 184.13 161.00 183.09 L 161.12 182.09 C 161.24 181.05 160.50 180.11 159.46 179.99 C 158.43 179.87 157.49 180.61 157.37 181.65 Z M 157.25 182.60 L 157.10 183.61 C 156.95 184.64 157.67 185.61 158.70 185.76 C 159.74 185.91 160.70 185.20 160.85 184.16 L 161.00 183.15 C 161.15 182.12 160.44 181.15 159.40 181.00 C 158.37 180.85 157.41 181.57 157.25 182.60 Z M 157.11 183.54 L 156.93 184.54 C 156.74 185.57 157.42 186.55 158.45 186.74 C 159.48 186.93 160.47 186.25 160.66 185.22 L 160.84 184.23 C 161.03 183.20 160.35 182.21 159.32 182.02 C 158.29 181.83 157.30 182.51 157.11 183.54 Z M 156.95 184.45 L 156.72 185.45 C 156.48 186.47 157.12 187.49 158.14 187.72 C 159.16 187.96 160.18 187.32 160.41 186.30 L 160.64 185.30 C 160.88 184.28 160.24 183.27 159.22 183.03 C 158.20 182.80 157.18 183.43 156.95 184.45 Z M 156.74 185.35 L 156.44 186.38 C 156.15 187.38 156.73 188.44 157.74 188.73 C 158.74 189.02 159.80 188.44 160.09 187.43 L 160.39 186.40 C 160.68 185.40 160.10 184.34 159.09 184.05 C 158.09 183.76 157.04 184.34 156.74 185.35 Z M 156.48 186.27 L 156.14 187.23 C 155.79 188.21 156.30 189.30 157.29 189.65 C 158.28 190.00 159.36 189.49 159.72 188.50 L 160.06 187.54 C 160.41 186.55 159.89 185.47 158.90 185.12 C 157.92 184.76 156.83 185.28 156.48 186.27 Z M 156.18 187.12 L 155.80 188.01 C 155.39 188.98 155.84 190.09 156.81 190.50 C 157.78 190.91 158.89 190.46 159.30 189.49 L 159.68 188.60 C 160.09 187.64 159.63 186.52 158.67 186.11 C 157.70 185.70 156.59 186.15 156.18 187.12 Z M 155.84 187.91 L 155.44 188.73 C 154.98 189.67 155.36 190.81 156.31 191.28 C 157.25 191.74 158.39 191.35 158.85 190.41 L 159.26 189.59 C 159.72 188.65 159.33 187.51 158.39 187.04 C 157.45 186.58 156.31 186.97 155.84 187.91 Z M 155.50 188.61 L 154.96 189.54 C 154.43 190.45 154.74 191.61 155.65 192.14 C 156.56 192.67 157.73 192.36 158.26 191.45 L 158.79 190.52 C 159.32 189.62 159.01 188.45 158.10 187.92 C 157.19 187.39 156.03 187.70 155.50 188.61 Z M 155.07 189.37 L 154.48 190.18 C 153.86 191.02 154.04 192.22 154.88 192.84 C 155.73 193.46 156.92 193.28 157.55 192.43 L 158.14 191.62 C 158.77 190.78 158.58 189.58 157.74 188.96 C 156.89 188.34 155.70 188.52 155.07 189.37 Z M 154.67 189.95 L 154.00 190.62 C 153.25 191.37 153.25 192.57 153.99 193.32 C 154.73 194.06 155.94 194.07 156.68 193.33 L 157.36 192.66 C 158.10 191.91 158.11 190.71 157.36 189.96 C 156.62 189.21 155.42 189.21 154.67 189.95 Z M 154.29 190.38 L 153.49 190.91 C 152.61 191.49 152.37 192.67 152.95 193.55 C 153.52 194.43 154.71 194.67 155.58 194.09 L 156.39 193.57 C 157.27 192.99 157.51 191.81 156.93 190.93 C 156.35 190.05 155.17 189.80 154.29 190.38 Z M 153.82 190.74 L 152.90 191.11 C 151.92 191.51 151.45 192.62 151.85 193.60 C 152.25 194.57 153.36 195.04 154.33 194.64 L 155.26 194.27 C 156.23 193.87 156.70 192.76 156.30 191.78 C 155.91 190.81 154.79 190.34 153.82 190.74 Z M 153.16 191.03 L 152.18 191.27 C 151.16 191.52 150.54 192.55 150.79 193.57 C 151.04 194.59 152.07 195.22 153.09 194.97 L 154.07 194.73 C 155.09 194.48 155.72 193.44 155.46 192.42 C 155.21 191.40 154.18 190.78 153.16 191.03 Z M 152.37 191.23 L 151.39 191.37 C 150.35 191.52 149.62 192.48 149.77 193.53 C 149.92 194.57 150.88 195.29 151.92 195.14 L 152.91 195.00 C 153.95 194.85 154.67 193.89 154.52 192.85 C 154.37 191.81 153.41 191.09 152.37 191.23 Z M 151.53 191.36 L 150.57 191.43 C 149.52 191.50 148.73 192.40 148.80 193.44 C 148.87 194.49 149.77 195.28 150.82 195.21 L 151.78 195.15 C 152.83 195.08 153.62 194.18 153.55 193.13 C 153.48 192.09 152.58 191.30 151.53 191.36 Z M 150.70 191.43 L 149.71 191.43 C 148.67 191.42 147.82 192.26 147.81 193.30 C 147.81 194.35 148.65 195.20 149.69 195.20 L 150.68 195.21 C 151.72 195.22 152.57 194.37 152.58 193.33 C 152.59 192.29 151.75 191.44 150.70 191.43 Z M 149.83 191.44 L 148.78 191.37 C 147.75 191.30 146.85 192.08 146.78 193.12 C 146.71 194.15 147.49 195.05 148.53 195.12 L 149.58 195.19 C 150.61 195.26 151.51 194.48 151.58 193.44 C 151.65 192.41 150.86 191.51 149.83 191.44 Z M 148.87 191.39 L 147.97 191.28 C 146.94 191.17 146.01 191.90 145.90 192.93 C 145.78 193.96 146.52 194.88 147.54 195.00 L 148.45 195.10 C 149.47 195.22 150.40 194.48 150.51 193.46 C 150.63 192.43 149.89 191.50 148.87 191.39 Z M 148.04 191.31 L 147.08 191.16 C 146.07 191.00 145.12 191.69 144.96 192.71 C 144.80 193.72 145.50 194.67 146.51 194.83 L 147.47 194.98 C 148.48 195.13 149.43 194.44 149.59 193.43 C 149.75 192.41 149.05 191.46 148.04 191.31 Z M 147.16 191.18 L 146.15 190.98 C 145.16 190.78 144.18 191.43 143.98 192.42 C 143.78 193.42 144.43 194.40 145.42 194.60 L 146.43 194.80 C 147.43 195.00 148.40 194.36 148.61 193.36 C 148.81 192.36 148.16 191.39 147.16 191.18 Z M 146.24 191.01 L 145.18 190.75 C 144.20 190.50 143.21 191.09 142.96 192.08 C 142.71 193.06 143.31 194.05 144.29 194.30 L 145.34 194.57 C 146.32 194.81 147.32 194.22 147.57 193.24 C 147.81 192.26 147.22 191.26 146.24 191.01 Z M 145.26 190.78 L 144.28 190.49 C 143.32 190.20 142.30 190.74 142.01 191.70 C 141.72 192.66 142.26 193.68 143.23 193.97 L 144.21 194.26 C 145.17 194.55 146.19 194.01 146.48 193.05 C 146.77 192.09 146.22 191.07 145.26 190.78 Z M 144.33 190.52 L 143.35 190.19 C 142.41 189.86 141.39 190.37 141.07 191.31 C 140.74 192.25 141.25 193.28 142.19 193.60 L 143.17 193.93 C 144.11 194.25 145.14 193.75 145.46 192.81 C 145.78 191.87 145.28 190.84 144.33 190.52 Z M 143.40 190.22 L 142.44 189.86 C 141.51 189.52 140.48 189.99 140.14 190.91 C 139.79 191.84 140.26 192.87 141.19 193.21 L 142.15 193.57 C 143.07 193.91 144.10 193.44 144.45 192.52 C 144.79 191.59 144.32 190.56 143.40 190.22 Z M 142.47 189.89 L 141.55 189.53 C 140.65 189.17 139.62 189.61 139.25 190.52 C 138.89 191.43 139.34 192.46 140.25 192.82 L 141.16 193.18 C 142.07 193.54 143.10 193.10 143.46 192.19 C 143.82 191.28 143.38 190.25 142.47 189.89 Z M 141.58 189.55 L 140.66 189.17 C 139.77 188.80 138.74 189.22 138.37 190.11 C 137.99 191.01 138.42 192.04 139.31 192.41 L 140.22 192.79 C 141.12 193.17 142.15 192.74 142.52 191.85 C 142.89 190.96 142.47 189.93 141.58 189.55 Z M 140.68 189.20 L 139.70 188.77 C 138.83 188.39 137.80 188.79 137.42 189.67 C 137.03 190.54 137.43 191.57 138.31 191.95 L 139.29 192.38 C 140.17 192.76 141.19 192.37 141.58 191.49 C 141.96 190.61 141.56 189.59 140.68 189.20 Z M 139.72 188.80 L 138.83 188.40 C 137.97 188.01 136.96 188.39 136.57 189.25 C 136.18 190.11 136.56 191.13 137.42 191.52 L 138.30 191.92 C 139.16 192.31 140.18 191.93 140.57 191.07 C 140.96 190.21 140.58 189.20 139.72 188.80 Z M 138.83 188.43 L 137.99 188.04 C 137.14 187.65 136.14 188.02 135.75 188.87 C 135.36 189.72 135.73 190.72 136.58 191.11 L 137.42 191.50 C 138.27 191.88 139.27 191.51 139.66 190.67 C 140.05 189.82 139.68 188.82 138.83 188.43 Z M 137.97 188.05 L 137.10 187.66 C 136.26 187.28 135.27 187.65 134.89 188.49 C 134.51 189.34 134.88 190.33 135.73 190.71 L 136.59 191.10 C 137.44 191.48 138.43 191.10 138.81 190.26 C 139.19 189.42 138.81 188.43 137.97 188.05 Z M 137.09 187.66 L 136.19 187.26 C 135.36 186.89 134.37 187.26 134.00 188.10 C 133.62 188.94 134.00 189.92 134.83 190.30 L 135.73 190.70 C 136.57 191.08 137.56 190.70 137.93 189.86 C 138.31 189.02 137.93 188.04 137.09 187.66 Z M 136.20 187.27 L 135.27 186.85 C 134.44 186.47 133.46 186.84 133.08 187.67 C 132.70 188.51 133.07 189.49 133.90 189.87 L 134.83 190.29 C 135.66 190.67 136.64 190.30 137.02 189.46 C 137.40 188.63 137.03 187.65 136.20 187.27 Z M 135.29 186.86 L 134.36 186.43 C 133.54 186.04 132.56 186.40 132.17 187.23 C 131.78 188.05 132.14 189.03 132.96 189.42 L 133.89 189.85 C 134.71 190.24 135.69 189.88 136.08 189.06 C 136.47 188.23 136.11 187.25 135.29 186.86 Z M 134.38 186.45 L 133.49 186.01 C 132.67 185.61 131.68 185.95 131.29 186.77 C 130.89 187.59 131.23 188.57 132.05 188.97 L 132.95 189.41 C 133.76 189.80 134.75 189.46 135.15 188.64 C 135.54 187.83 135.20 186.84 134.38 186.45 Z M 133.51 186.02 L 132.60 185.57 C 131.79 185.16 130.80 185.49 130.40 186.30 C 129.99 187.11 130.32 188.10 131.13 188.51 L 132.03 188.96 C 132.84 189.37 133.83 189.04 134.24 188.23 C 134.64 187.42 134.32 186.43 133.51 186.02 Z M 132.62 185.58 L 131.73 185.12 C 130.92 184.70 129.93 185.02 129.52 185.82 C 129.10 186.62 129.41 187.61 130.22 188.03 L 131.11 188.49 C 131.92 188.91 132.91 188.60 133.32 187.79 C 133.74 186.99 133.42 186.00 132.62 185.58 Z M 131.75 185.13 L 130.85 184.65 C 130.05 184.23 129.06 184.53 128.63 185.32 C 128.21 186.12 128.51 187.11 129.31 187.54 L 130.20 188.02 C 131.00 188.45 131.99 188.15 132.42 187.35 C 132.84 186.55 132.54 185.56 131.75 185.13 Z M 130.87 184.66 L 129.99 184.18 C 129.20 183.74 128.21 184.03 127.77 184.82 C 127.33 185.61 127.62 186.61 128.41 187.04 L 129.29 187.53 C 130.08 187.97 131.07 187.68 131.51 186.89 C 131.95 186.10 131.66 185.10 130.87 184.66 Z M 130.01 184.19 L 129.15 183.70 C 128.36 183.25 127.36 183.53 126.92 184.31 C 126.47 185.10 126.74 186.10 127.53 186.54 L 128.39 187.03 C 129.18 187.48 130.18 187.21 130.62 186.42 C 131.07 185.63 130.80 184.64 130.01 184.19 Z M 129.16 183.71 L 128.31 183.21 C 127.53 182.75 126.53 183.02 126.07 183.80 C 125.61 184.58 125.88 185.58 126.66 186.04 L 127.52 186.54 C 128.30 186.99 129.30 186.73 129.75 185.95 C 130.21 185.16 129.94 184.16 129.16 183.71 Z M 128.32 183.22 L 127.46 182.71 C 126.69 182.24 125.68 182.50 125.22 183.28 C 124.76 184.05 125.01 185.06 125.79 185.52 L 126.65 186.03 C 127.42 186.49 128.43 186.24 128.89 185.46 C 129.35 184.68 129.10 183.68 128.32 183.22 Z M 127.47 182.71 L 126.62 182.19 C 125.84 181.73 124.84 181.98 124.37 182.75 C 123.90 183.53 124.15 184.53 124.93 185.00 L 125.78 185.52 C 126.56 185.98 127.56 185.73 128.03 184.96 C 128.50 184.18 128.25 183.18 127.47 182.71 Z M 126.62 182.20 L 125.76 181.68 C 124.99 181.21 123.98 181.45 123.51 182.23 C 123.05 183.00 123.29 184.01 124.06 184.48 L 124.92 185.00 C 125.69 185.47 126.70 185.22 127.17 184.45 C 127.64 183.67 127.39 182.67 126.62 182.20 Z M 125.76 181.68 L 125.44 181.48 C 124.66 181.01 123.66 181.25 123.19 182.03 C 122.72 182.80 122.96 183.80 123.73 184.27 L 124.06 184.47 C 124.83 184.94 125.84 184.70 126.31 183.93 C 126.78 183.16 126.54 182.15 125.76 181.68 Z"
      fill="black"
      fill-rule="nonzero" /></svg>