<svg xmlns="http://www.w3.org/2000/svg" width="300" height="300" viewBox="0 0 300 300">
<path d="M 133.82 118.34 L 132.92 118.72 C 132.00 119.12 131.58 120.18 131.98 121.10 C 132.37 122.01 133.44 122.44 134.35 122.04 L 135.25 121.65 C 136.16 121.26 136.59 120.19 136.19 119.28 C 135.79 118.36 134.73 117.94 133.82 118.34 Z M 132.84 118.75 L 131.96 119.18 C 131.06 119.62 130.68 120.70 131.12 121.60 C 131.56 122.50 132.64 122.88 133.54 122.44 L 134.43 122.01 C 135.33 121.58 135.70 120.49 135.27 119.59 C 134.83 118.69 133.74 118.31 132.84 118.75 Z M 131.82 119.25 L 130.96 119.76 C 130.10 120.28 129.81 121.39 130.33 122.26 C 130.84 123.12 131.96 123.40 132.82 122.89 L 133.68 122.37 C 134.55 121.86 134.83 120.74 134.31 119.88 C 133.80 119.02 132.68 118.73 131.82 119.25 Z M 130.77 119.88 L 129.97 120.50 C 129.17 121.12 129.02 122.27 129.64 123.06 C 130.25 123.86 131.40 124.01 132.20 123.39 L 133.01 122.77 C 133.81 122.15 133.95 121.01 133.34 120.21 C 132.72 119.41 131.57 119.26 130.77 119.88 Z M 129.80 120.64 L 129.13 121.30 C 128.40 122.01 128.39 123.17 129.10 123.90 C 129.81 124.62 130.98 124.63 131.70 123.92 L 132.37 123.25 C 133.09 122.54 133.10 121.38 132.39 120.66 C 131.68 119.94 130.52 119.93 129.80 120.64 Z M 129.01 121.41 L 128.37 122.16 C 127.71 122.94 127.80 124.10 128.57 124.76 C 129.34 125.42 130.51 125.33 131.17 124.56 L 131.81 123.81 C 132.47 123.03 132.38 121.87 131.61 121.21 C 130.84 120.55 129.67 120.64 129.01 121.41 Z M 128.29 122.25 L 127.68 123.06 C 127.06 123.88 127.22 125.04 128.04 125.65 C 128.85 126.27 130.01 126.10 130.63 125.29 L 131.24 124.47 C 131.86 123.66 131.70 122.50 130.88 121.89 C 130.07 121.27 128.91 121.43 128.29 122.25 Z M 127.63 123.12 L 127.03 123.98 C 126.45 124.82 126.66 125.97 127.50 126.56 C 128.34 127.14 129.50 126.93 130.08 126.09 L 130.68 125.23 C 131.26 124.39 131.05 123.24 130.21 122.65 C 129.37 122.07 128.21 122.28 127.63 123.12 Z M 127.00 124.01 L 126.42 124.90 C 125.86 125.76 126.10 126.91 126.96 127.47 C 127.82 128.03 128.97 127.80 129.53 126.94 L 130.11 126.05 C 130.68 125.19 130.44 124.04 129.58 123.48 C 128.72 122.91 127.57 123.15 127.00 124.01 Z M 126.40 124.92 L 125.84 125.81 C 125.30 126.68 125.55 127.83 126.42 128.38 C 127.29 128.93 128.44 128.67 128.99 127.80 L 129.55 126.91 C 130.10 126.04 129.84 124.89 128.97 124.34 C 128.10 123.80 126.95 124.05 126.40 124.92 Z M 125.83 125.83 L 125.30 126.70 C 124.76 127.58 125.04 128.72 125.92 129.26 C 126.79 129.79 127.94 129.52 128.47 128.64 L 129.00 127.78 C 129.54 126.90 129.26 125.75 128.39 125.22 C 127.51 124.68 126.37 124.96 125.83 125.83 Z M 125.29 126.72 L 124.80 127.54 C 124.27 128.43 124.56 129.57 125.44 130.10 C 126.33 130.62 127.47 130.33 127.99 129.45 L 128.49 128.62 C 129.01 127.74 128.72 126.60 127.84 126.07 C 126.96 125.55 125.81 125.84 125.29 126.72 Z M 124.79 127.56 L 124.32 128.36 C 123.80 129.25 124.10 130.39 124.99 130.91 C 125.88 131.42 127.02 131.12 127.54 130.23 L 128.00 129.43 C 128.52 128.54 128.22 127.41 127.33 126.89 C 126.44 126.37 125.30 126.67 124.79 127.56 Z M 124.32 128.38 L 123.85 129.20 C 123.34 130.09 123.65 131.23 124.54 131.73 C 125.43 132.24 126.56 131.93 127.07 131.04 L 127.54 130.22 C 128.05 129.33 127.74 128.19 126.85 127.69 C 125.96 127.18 124.82 127.49 124.32 128.38 Z M 123.84 129.21 L 123.38 130.04 C 122.88 130.93 123.19 132.06 124.08 132.56 C 124.97 133.06 126.10 132.75 126.61 131.86 L 127.07 131.03 C 127.57 130.14 127.26 129.01 126.37 128.51 C 125.48 128.01 124.35 128.32 123.84 129.21 Z M 123.38 130.04 L 122.88 130.94 C 122.38 131.83 122.69 132.95 123.58 133.45 C 124.47 133.95 125.60 133.64 126.10 132.75 L 126.60 131.85 C 127.10 130.96 126.79 129.84 125.90 129.33 C 125.01 128.83 123.88 129.15 123.38 130.04 Z M 122.88 130.93 L 122.37 131.84 C 121.87 132.73 122.18 133.85 123.07 134.35 C 123.95 134.85 125.08 134.54 125.58 133.66 L 126.09 132.75 C 126.60 131.86 126.28 130.74 125.40 130.24 C 124.51 129.74 123.39 130.05 122.88 130.93 Z M 122.38 131.84 L 121.89 132.69 C 121.39 133.57 121.70 134.70 122.58 135.20 C 123.46 135.70 124.59 135.39 125.09 134.51 L 125.58 133.66 C 126.08 132.77 125.77 131.65 124.89 131.15 C 124.00 130.64 122.88 130.95 122.38 131.84 Z M 121.89 132.69 L 121.38 133.59 C 120.88 134.47 121.18 135.59 122.07 136.10 C 122.95 136.60 124.07 136.29 124.58 135.41 L 125.09 134.51 C 125.59 133.63 125.28 132.51 124.40 132.00 C 123.52 131.50 122.40 131.81 121.89 132.69 Z M 121.38 133.59 L 120.87 134.50 C 120.36 135.38 120.67 136.50 121.55 137.00 C 122.43 137.50 123.55 137.20 124.06 136.32 L 124.57 135.41 C 125.08 134.53 124.77 133.41 123.89 132.90 C 123.01 132.40 121.89 132.71 121.38 133.59 Z M 120.87 134.50 L 120.37 135.38 C 119.87 136.26 120.17 137.38 121.05 137.88 C 121.93 138.38 123.05 138.07 123.56 137.19 L 124.06 136.31 C 124.56 135.43 124.25 134.31 123.37 133.81 C 122.49 133.31 121.37 133.62 120.87 134.50 Z M 120.37 135.38 L 119.86 136.29 C 119.36 137.17 119.67 138.28 120.55 138.78 C 121.43 139.28 122.55 138.97 123.05 138.09 L 123.55 137.19 C 124.05 136.31 123.74 135.19 122.86 134.69 C 121.98 134.19 120.86 134.50 120.37 135.38 Z M 119.86 136.30 L 119.32 137.26 C 118.83 138.14 119.15 139.25 120.03 139.74 C 120.91 140.23 122.02 139.92 122.51 139.04 L 123.04 138.08 C 123.54 137.20 123.22 136.08 122.34 135.59 C 121.46 135.10 120.35 135.42 119.86 136.30 Z M 119.32 137.27 L 118.85 138.13 C 118.37 139.01 118.69 140.11 119.57 140.60 C 120.45 141.08 121.55 140.76 122.04 139.88 L 122.51 139.02 C 122.99 138.14 122.67 137.04 121.79 136.56 C 120.91 136.07 119.81 136.40 119.32 137.27 Z M 118.86 138.15 L 118.42 138.94 C 117.95 139.82 118.28 140.92 119.15 141.39 C 120.03 141.87 121.13 141.54 121.60 140.66 L 122.03 139.86 C 122.51 138.99 122.18 137.89 121.30 137.42 C 120.43 136.94 119.33 137.27 118.86 138.15 Z M 118.43 138.96 L 117.98 139.79 C 117.52 140.67 117.85 141.75 118.72 142.22 C 119.60 142.69 120.69 142.36 121.16 141.48 L 121.60 140.65 C 122.07 139.77 121.73 138.68 120.86 138.22 C 119.98 137.75 118.89 138.08 118.43 138.96 Z M 117.99 139.80 L 117.52 140.69 C 117.06 141.56 117.40 142.64 118.27 143.10 C 119.15 143.56 120.23 143.23 120.69 142.35 L 121.15 141.47 C 121.61 140.59 121.28 139.51 120.40 139.05 C 119.53 138.59 118.45 138.93 117.99 139.80 Z M 117.52 140.70 L 117.06 141.59 C 116.61 142.47 116.95 143.54 117.83 143.99 C 118.70 144.45 119.78 144.10 120.23 143.23 L 120.69 142.34 C 121.14 141.46 120.80 140.39 119.92 139.94 C 119.05 139.48 117.97 139.83 117.52 140.70 Z M 117.06 141.61 L 116.61 142.50 C 116.17 143.38 116.52 144.45 117.40 144.89 C 118.27 145.33 119.34 144.98 119.78 144.10 L 120.23 143.21 C 120.67 142.34 120.32 141.27 119.45 140.83 C 118.57 140.38 117.50 140.74 117.06 141.61 Z M 116.61 142.52 L 116.18 143.40 C 115.74 144.27 116.10 145.33 116.98 145.77 C 117.85 146.20 118.91 145.84 119.35 144.96 L 119.78 144.09 C 120.21 143.21 119.85 142.15 118.98 141.72 C 118.10 141.29 117.04 141.64 116.61 142.52 Z M 116.18 143.41 L 115.74 144.29 C 115.32 145.17 115.68 146.22 116.55 146.65 C 117.42 147.08 118.47 146.72 118.90 145.85 L 119.34 144.96 C 119.77 144.09 119.41 143.03 118.54 142.60 C 117.67 142.17 116.61 142.53 116.18 143.41 Z M 115.76 144.29 L 115.30 145.20 C 114.87 146.06 115.22 147.12 116.09 147.55 C 116.96 147.98 118.01 147.63 118.44 146.76 L 118.89 145.85 C 119.32 144.99 118.97 143.93 118.10 143.50 C 117.24 143.07 116.19 143.42 115.76 144.29 Z M 115.32 145.19 L 114.86 146.09 C 114.42 146.94 114.76 147.99 115.62 148.43 C 116.47 148.87 117.52 148.53 117.96 147.67 L 118.42 146.77 C 118.86 145.92 118.52 144.87 117.66 144.43 C 116.81 143.99 115.76 144.33 115.32 145.19 Z M 114.87 146.08 L 114.41 146.98 C 113.96 147.83 114.29 148.87 115.14 149.31 C 115.99 149.76 117.04 149.43 117.48 148.58 L 117.95 147.68 C 118.39 146.83 118.06 145.79 117.21 145.34 C 116.36 144.90 115.31 145.23 114.87 146.08 Z M 114.41 146.98 L 113.95 147.88 C 113.51 148.72 113.84 149.76 114.68 150.20 C 115.52 150.64 116.57 150.31 117.00 149.47 L 117.47 148.57 C 117.91 147.73 117.58 146.69 116.74 146.25 C 115.89 145.81 114.85 146.14 114.41 146.98 Z M 113.95 147.89 L 113.50 148.77 C 113.07 149.61 113.41 150.65 114.25 151.08 C 115.09 151.51 116.12 151.17 116.56 150.33 L 117.00 149.45 C 117.43 148.61 117.10 147.58 116.26 147.15 C 115.41 146.72 114.38 147.05 113.95 147.89 Z M 113.50 148.80 L 113.04 149.73 C 112.63 150.58 112.98 151.60 113.82 152.01 C 114.67 152.43 115.69 152.08 116.10 151.23 L 116.56 150.30 C 116.97 149.46 116.62 148.43 115.78 148.02 C 114.93 147.60 113.91 147.95 113.50 148.80 Z M 113.04 149.76 L 112.61 150.66 C 112.21 151.51 112.57 152.52 113.42 152.92 C 114.27 153.32 115.28 152.96 115.68 152.11 L 116.11 151.21 C 116.51 150.36 116.14 149.35 115.29 148.95 C 114.45 148.55 113.43 148.91 113.04 149.76 Z M 112.61 150.68 L 112.20 151.57 C 111.81 152.42 112.19 153.42 113.04 153.81 C 113.88 154.20 114.89 153.83 115.28 152.98 L 115.68 152.09 C 116.07 151.24 115.70 150.24 114.85 149.85 C 114.00 149.46 113.00 149.83 112.61 150.68 Z M 112.21 151.58 L 111.80 152.48 C 111.41 153.32 111.79 154.32 112.63 154.71 C 113.48 155.09 114.48 154.72 114.86 153.87 L 115.27 152.97 C 115.66 152.12 115.28 151.12 114.44 150.74 C 113.59 150.36 112.59 150.73 112.21 151.58 Z M 111.81 152.48 L 111.39 153.39 C 111.00 154.23 111.38 155.23 112.22 155.61 C 113.06 156.00 114.06 155.62 114.44 154.78 L 114.86 153.87 C 115.24 153.03 114.87 152.03 114.03 151.65 C 113.18 151.26 112.19 151.64 111.81 152.48 Z M 111.40 153.39 L 110.98 154.30 C 110.60 155.13 110.96 156.13 111.80 156.51 C 112.64 156.90 113.63 156.53 114.02 155.69 L 114.43 154.78 C 114.82 153.94 114.45 152.95 113.61 152.57 C 112.77 152.18 111.78 152.55 111.40 153.39 Z M 110.99 154.29 L 110.57 155.20 C 110.18 156.03 110.54 157.02 111.38 157.41 C 112.21 157.80 113.20 157.43 113.59 156.60 L 114.01 155.69 C 114.39 154.86 114.03 153.87 113.20 153.48 C 112.37 153.10 111.38 153.46 110.99 154.29 Z M 110.58 155.19 L 110.15 156.10 C 109.76 156.93 110.12 157.92 110.94 158.31 C 111.77 158.70 112.76 158.34 113.15 157.51 L 113.58 156.61 C 113.97 155.78 113.61 154.79 112.78 154.40 C 111.95 154.01 110.97 154.36 110.58 155.19 Z M 110.16 156.10 L 109.73 157.00 C 109.34 157.82 109.69 158.81 110.51 159.20 C 111.34 159.59 112.33 159.24 112.72 158.42 L 113.15 157.52 C 113.54 156.69 113.18 155.70 112.36 155.31 C 111.53 154.92 110.55 155.27 110.16 156.10 Z M 109.73 157.00 L 109.32 157.86 C 108.93 158.69 109.28 159.67 110.10 160.06 C 110.93 160.45 111.91 160.10 112.30 159.28 L 112.71 158.42 C 113.11 157.59 112.76 156.61 111.93 156.22 C 111.11 155.83 110.12 156.18 109.73 157.00 Z M 109.32 157.87 L 108.94 158.67 C 108.55 159.50 108.90 160.48 109.73 160.87 C 110.55 161.26 111.53 160.90 111.92 160.08 L 112.30 159.28 C 112.69 158.45 112.34 157.47 111.52 157.08 C 110.69 156.69 109.71 157.04 109.32 157.87 Z M 108.94 158.69 L 108.53 159.57 C 108.15 160.39 108.51 161.37 109.33 161.75 C 110.16 162.13 111.14 161.77 111.52 160.95 L 111.92 160.07 C 112.31 159.24 111.95 158.26 111.12 157.88 C 110.30 157.50 109.32 157.86 108.94 158.69 Z M 108.52 159.59 L 108.07 160.61 C 107.70 161.44 108.07 162.41 108.90 162.78 C 109.73 163.15 110.70 162.78 111.07 161.95 L 111.52 160.93 C 111.89 160.10 111.52 159.13 110.69 158.76 C 109.87 158.39 108.89 158.76 108.52 159.59 Z M 108.06 160.63 L 107.68 161.51 C 107.32 162.34 107.70 163.31 108.53 163.67 C 109.36 164.03 110.33 163.65 110.69 162.82 L 111.07 161.93 C 111.43 161.10 111.05 160.13 110.22 159.77 C 109.39 159.41 108.42 159.80 108.06 160.63 Z M 107.67 161.53 L 107.31 162.39 C 106.95 163.23 107.34 164.19 108.18 164.54 C 109.01 164.90 109.98 164.51 110.33 163.67 L 110.70 162.80 C 111.05 161.97 110.66 161.01 109.82 160.65 C 108.99 160.30 108.03 160.69 107.67 161.53 Z M 107.30 162.41 L 106.92 163.34 C 106.57 164.17 106.97 165.13 107.81 165.48 C 108.65 165.82 109.60 165.43 109.95 164.59 L 110.33 163.66 C 110.68 162.82 110.28 161.86 109.44 161.52 C 108.61 161.17 107.65 161.57 107.30 162.41 Z M 106.91 163.35 L 106.52 164.32 C 106.19 165.16 106.59 166.12 107.43 166.45 C 108.27 166.79 109.23 166.38 109.56 165.54 L 109.95 164.57 C 110.29 163.73 109.88 162.78 109.04 162.44 C 108.20 162.10 107.25 162.51 106.91 163.35 Z M 106.52 164.34 L 106.13 165.33 C 105.80 166.17 106.22 167.12 107.06 167.45 C 107.91 167.78 108.86 167.36 109.18 166.52 L 109.57 165.53 C 109.90 164.68 109.48 163.73 108.64 163.41 C 107.80 163.08 106.85 163.49 106.52 164.34 Z M 106.12 165.35 L 105.70 166.46 C 105.39 167.31 105.82 168.26 106.66 168.57 C 107.51 168.89 108.45 168.46 108.77 167.62 L 109.19 166.50 C 109.51 165.65 109.08 164.71 108.23 164.39 C 107.39 164.07 106.44 164.50 106.12 165.35 Z M 105.70 166.48 L 105.25 167.71 C 104.94 168.56 105.37 169.50 106.22 169.81 C 107.07 170.12 108.01 169.69 108.32 168.84 L 108.78 167.60 C 109.09 166.75 108.65 165.81 107.80 165.50 C 106.95 165.19 106.01 165.63 105.70 166.48 Z M 105.25 167.70 L 104.86 168.74 C 104.54 169.58 104.97 170.53 105.82 170.85 C 106.66 171.17 107.61 170.74 107.93 169.89 L 108.32 168.85 C 108.64 168.00 108.21 167.06 107.36 166.74 C 106.52 166.42 105.57 166.85 105.25 167.70 Z M 104.89 168.66 L 104.58 169.38 C 104.22 170.21 104.60 171.18 105.43 171.54 C 106.26 171.90 107.23 171.51 107.59 170.69 L 107.90 169.96 C 108.26 169.13 107.88 168.17 107.05 167.81 C 106.22 167.45 105.25 167.83 104.89 168.66 Z M 104.83 168.98 L 104.60 169.25 C 104.02 169.95 104.11 170.98 104.80 171.56 C 105.49 172.14 106.52 172.05 107.10 171.36 L 107.34 171.09 C 107.92 170.40 107.83 169.36 107.14 168.78 C 106.45 168.20 105.41 168.29 104.83 168.98 Z M 107.45 169.97 L 107.35 169.50 C 107.16 168.61 106.30 168.05 105.41 168.24 C 104.53 168.43 103.96 169.30 104.15 170.18 L 104.25 170.65 C 104.44 171.53 105.31 172.10 106.19 171.91 C 107.08 171.72 107.64 170.85 107.45 169.97 Z M 107.39 169.95 L 107.46 168.78 C 107.53 167.88 106.84 167.10 105.94 167.04 C 105.04 166.97 104.26 167.66 104.20 168.56 L 104.12 169.73 C 104.06 170.63 104.74 171.41 105.64 171.47 C 106.54 171.53 107.32 170.85 107.39 169.95 Z M 107.45 168.89 L 107.64 167.53 C 107.77 166.63 107.14 165.81 106.24 165.68 C 105.35 165.56 104.52 166.18 104.40 167.08 L 104.21 168.44 C 104.09 169.34 104.71 170.17 105.61 170.29 C 106.50 170.41 107.33 169.79 107.45 168.89 Z M 107.63 167.58 L 107.79 166.64 C 107.95 165.75 107.35 164.91 106.46 164.75 C 105.56 164.60 104.72 165.20 104.57 166.09 L 104.41 167.03 C 104.25 167.92 104.85 168.76 105.74 168.92 C 106.64 169.07 107.48 168.47 107.63 167.58 Z M 107.79 166.67 L 107.97 165.68 C 108.14 164.79 107.56 163.94 106.67 163.77 C 105.78 163.60 104.93 164.19 104.76 165.07 L 104.57 166.07 C 104.40 166.95 104.99 167.81 105.88 167.98 C 106.77 168.14 107.62 167.56 107.79 166.67 Z M 107.97 165.70 L 108.18 164.68 C 108.36 163.80 107.78 162.94 106.90 162.76 C 106.01 162.58 105.15 163.15 104.97 164.04 L 104.76 165.05 C 104.58 165.94 105.16 166.80 106.04 166.98 C 106.93 167.16 107.79 166.59 107.97 165.70 Z M 108.17 164.70 L 108.39 163.68 C 108.58 162.80 108.02 161.93 107.13 161.74 C 106.25 161.55 105.38 162.11 105.19 163.00 L 104.97 164.02 C 104.78 164.90 105.35 165.77 106.23 165.96 C 107.11 166.15 107.98 165.59 108.17 164.70 Z M 108.39 163.70 L 108.61 162.71 C 108.81 161.83 108.26 160.95 107.37 160.75 C 106.49 160.55 105.62 161.11 105.42 161.99 L 105.19 162.98 C 105.00 163.86 105.55 164.74 106.43 164.94 C 107.31 165.14 108.19 164.58 108.39 163.70 Z M 108.61 162.73 L 108.85 161.72 C 109.05 160.84 108.51 159.96 107.63 159.75 C 106.75 159.54 105.87 160.09 105.66 160.97 L 105.42 161.97 C 105.21 162.85 105.76 163.74 106.64 163.94 C 107.52 164.15 108.40 163.61 108.61 162.73 Z M 108.84 161.74 L 109.11 160.67 C 109.33 159.79 108.80 158.90 107.92 158.68 C 107.04 158.46 106.15 158.99 105.93 159.87 L 105.66 160.94 C 105.44 161.82 105.98 162.71 106.85 162.93 C 107.73 163.15 108.62 162.62 108.84 161.74 Z M 109.10 160.69 L 109.37 159.71 C 109.60 158.83 109.08 157.94 108.21 157.70 C 107.34 157.47 106.44 157.98 106.21 158.86 L 105.94 159.84 C 105.71 160.72 106.22 161.61 107.10 161.85 C 107.97 162.08 108.87 161.57 109.10 160.69 Z M 109.36 159.74 L 109.63 158.82 C 109.88 157.95 109.38 157.05 108.51 156.79 C 107.64 156.54 106.74 157.04 106.48 157.91 L 106.22 158.82 C 105.96 159.69 106.46 160.60 107.33 160.85 C 108.20 161.11 109.11 160.61 109.36 159.74 Z M 109.61 158.86 L 109.89 157.99 C 110.16 157.13 109.69 156.21 108.82 155.93 C 107.96 155.66 107.04 156.14 106.77 157.00 L 106.49 157.87 C 106.22 158.73 106.70 159.65 107.56 159.92 C 108.42 160.20 109.34 159.72 109.61 158.86 Z M 109.88 158.03 L 110.19 157.13 C 110.48 156.27 110.03 155.34 109.18 155.05 C 108.32 154.75 107.39 155.20 107.09 156.06 L 106.78 156.96 C 106.49 157.81 106.94 158.75 107.80 159.04 C 108.65 159.34 109.58 158.88 109.88 158.03 Z M 110.17 157.17 L 110.53 156.23 C 110.84 155.38 110.41 154.44 109.57 154.12 C 108.72 153.81 107.78 154.23 107.46 155.08 L 107.11 156.02 C 106.79 156.86 107.22 157.81 108.07 158.13 C 108.91 158.44 109.86 158.01 110.17 157.17 Z M 110.51 156.27 L 110.88 155.35 C 111.22 154.51 110.82 153.55 109.98 153.21 C 109.14 152.88 108.19 153.28 107.85 154.12 L 107.48 155.04 C 107.14 155.88 107.54 156.83 108.38 157.17 C 109.22 157.51 110.17 157.11 110.51 156.27 Z M 110.87 155.38 L 111.27 154.47 C 111.62 153.64 111.24 152.68 110.41 152.32 C 109.58 151.96 108.62 152.34 108.26 153.17 L 107.87 154.08 C 107.51 154.91 107.89 155.87 108.72 156.23 C 109.55 156.59 110.51 156.21 110.87 155.38 Z M 111.25 154.50 L 111.67 153.59 C 112.05 152.77 111.69 151.80 110.87 151.42 C 110.05 151.04 109.07 151.40 108.70 152.22 L 108.28 153.13 C 107.90 153.95 108.26 154.93 109.08 155.30 C 109.90 155.68 110.87 155.32 111.25 154.50 Z M 111.66 153.62 L 112.10 152.71 C 112.49 151.89 112.15 150.91 111.34 150.52 C 110.53 150.12 109.55 150.46 109.15 151.28 L 108.71 152.19 C 108.32 153.00 108.66 153.98 109.47 154.38 C 110.28 154.77 111.26 154.43 111.66 153.62 Z M 112.08 152.74 L 112.54 151.84 C 112.96 151.03 112.64 150.05 111.83 149.64 C 111.03 149.22 110.04 149.54 109.63 150.35 L 109.17 151.24 C 108.76 152.05 109.07 153.04 109.88 153.45 C 110.68 153.86 111.67 153.54 112.08 152.74 Z M 112.53 151.87 L 113.00 151.00 C 113.43 150.20 113.14 149.21 112.34 148.78 C 111.55 148.35 110.56 148.64 110.12 149.44 L 109.65 150.31 C 109.22 151.10 109.51 152.10 110.31 152.53 C 111.10 152.96 112.09 152.67 112.53 151.87 Z M 112.98 151.04 L 113.47 150.19 C 113.92 149.41 113.66 148.41 112.87 147.96 C 112.09 147.50 111.09 147.77 110.63 148.55 L 110.15 149.40 C 109.69 150.18 109.96 151.18 110.74 151.63 C 111.52 152.09 112.53 151.82 112.98 151.04 Z M 113.45 150.24 L 113.98 149.39 C 114.46 148.62 114.22 147.60 113.45 147.12 C 112.68 146.64 111.66 146.88 111.18 147.65 L 110.65 148.50 C 110.17 149.27 110.41 150.29 111.18 150.77 C 111.95 151.25 112.97 151.02 113.45 150.24 Z M 113.97 149.45 L 114.52 148.63 C 115.03 147.86 114.82 146.82 114.05 146.31 C 113.29 145.80 112.25 146.01 111.74 146.78 L 111.19 147.60 C 110.68 148.36 110.89 149.40 111.66 149.91 C 112.42 150.42 113.46 150.21 113.97 149.45 Z M 114.51 148.68 L 115.08 147.86 C 115.62 147.10 115.44 146.05 114.68 145.51 C 113.92 144.98 112.87 145.15 112.33 145.91 L 111.75 146.73 C 111.21 147.49 111.39 148.54 112.15 149.08 C 112.91 149.61 113.97 149.44 114.51 148.68 Z M 115.07 147.91 L 115.68 147.09 C 116.24 146.34 116.08 145.27 115.33 144.71 C 114.57 144.15 113.50 144.30 112.94 145.06 L 112.34 145.87 C 111.77 146.63 111.93 147.70 112.69 148.26 C 113.44 148.82 114.51 148.66 115.07 147.91 Z M 115.66 147.13 L 116.27 146.34 C 116.86 145.59 116.72 144.52 115.98 143.94 C 115.23 143.36 114.16 143.49 113.58 144.23 L 112.96 145.02 C 112.38 145.77 112.51 146.84 113.26 147.43 C 114.00 148.01 115.08 147.87 115.66 147.13 Z M 116.23 146.39 L 116.89 145.61 C 117.50 144.89 117.41 143.81 116.68 143.21 C 115.96 142.60 114.89 142.69 114.28 143.41 L 113.62 144.18 C 113.01 144.90 113.10 145.98 113.82 146.59 C 114.54 147.20 115.62 147.11 116.23 146.39 Z M 116.82 145.69 L 117.51 144.96 C 118.16 144.28 118.14 143.20 117.46 142.55 C 116.77 141.90 115.69 141.92 115.04 142.60 L 114.35 143.33 C 113.70 144.01 113.72 145.09 114.40 145.74 C 115.08 146.40 116.16 146.37 116.82 145.69 Z M 117.40 145.07 L 118.14 144.42 C 118.84 143.80 118.91 142.72 118.29 142.01 C 117.67 141.31 116.59 141.24 115.88 141.86 L 115.15 142.50 C 114.44 143.12 114.37 144.20 114.99 144.91 C 115.62 145.62 116.69 145.69 117.40 145.07 Z M 117.96 144.58 L 118.93 143.94 C 119.72 143.41 119.94 142.34 119.41 141.55 C 118.89 140.76 117.82 140.54 117.03 141.06 L 116.06 141.70 C 115.27 142.23 115.05 143.30 115.57 144.09 C 116.10 144.88 117.17 145.10 117.96 144.58 Z M 118.61 144.14 L 119.56 143.77 C 120.46 143.42 120.91 142.40 120.56 141.50 C 120.21 140.59 119.19 140.14 118.29 140.49 L 117.34 140.86 C 116.44 141.21 115.99 142.23 116.34 143.14 C 116.69 144.04 117.71 144.49 118.61 144.14 Z M 118.95 143.92 L 119.80 143.91 C 120.79 143.90 121.58 143.09 121.57 142.10 C 121.56 141.11 120.74 140.32 119.75 140.33 L 118.90 140.34 C 117.91 140.35 117.12 141.17 117.13 142.16 C 117.15 143.15 117.96 143.94 118.95 143.92 Z M 118.84 143.68 L 119.51 144.08 C 120.37 144.60 121.49 144.33 122.01 143.47 C 122.53 142.61 122.25 141.49 121.39 140.97 L 120.72 140.56 C 119.86 140.05 118.74 140.32 118.22 141.18 C 117.70 142.04 117.98 143.16 118.84 143.68 Z M 118.93 143.54 L 119.44 144.31 C 120.00 145.15 121.14 145.38 121.98 144.82 C 122.82 144.26 123.05 143.12 122.49 142.28 L 121.98 141.51 C 121.41 140.67 120.28 140.44 119.44 141.00 C 118.59 141.56 118.37 142.70 118.93 143.54 Z M 119.24 143.95 L 119.63 144.97 C 120.00 145.92 121.06 146.39 122.01 146.03 C 122.96 145.66 123.43 144.59 123.07 143.65 L 122.68 142.63 C 122.32 141.68 121.25 141.21 120.30 141.57 C 119.35 141.94 118.88 143.00 119.24 143.95 Z M 119.56 144.79 L 119.85 145.84 C 120.11 146.83 121.13 147.41 122.12 147.14 C 123.10 146.88 123.69 145.86 123.42 144.88 L 123.14 143.82 C 122.87 142.84 121.86 142.25 120.87 142.52 C 119.88 142.79 119.30 143.80 119.56 144.79 Z M 119.82 145.75 L 120.02 146.67 C 120.24 147.68 121.22 148.31 122.22 148.10 C 123.23 147.88 123.86 146.89 123.65 145.89 L 123.45 144.97 C 123.23 143.97 122.24 143.33 121.24 143.55 C 120.24 143.76 119.61 144.75 119.82 145.75 Z M 120.01 146.61 L 120.18 147.57 C 120.36 148.58 121.32 149.25 122.33 149.08 C 123.34 148.90 124.01 147.93 123.83 146.93 L 123.66 145.96 C 123.48 144.95 122.52 144.28 121.51 144.46 C 120.50 144.64 119.83 145.60 120.01 146.61 Z M 120.17 147.52 L 120.32 148.53 C 120.47 149.54 121.41 150.25 122.42 150.10 C 123.44 149.95 124.14 149.01 123.99 147.99 L 123.84 146.98 C 123.69 145.97 122.75 145.27 121.74 145.42 C 120.72 145.56 120.02 146.51 120.17 147.52 Z M 120.31 148.49 L 120.44 149.55 C 120.57 150.57 121.49 151.29 122.51 151.17 C 123.52 151.04 124.25 150.12 124.12 149.10 L 123.99 148.04 C 123.87 147.02 122.95 146.30 121.93 146.42 C 120.91 146.54 120.19 147.47 120.31 148.49 Z M 120.44 149.52 L 120.54 150.54 C 120.65 151.56 121.56 152.30 122.58 152.19 C 123.60 152.09 124.34 151.17 124.23 150.15 L 124.13 149.13 C 124.02 148.11 123.11 147.37 122.09 147.48 C 121.07 147.59 120.33 148.50 120.44 149.52 Z M 120.54 150.52 L 120.64 151.55 C 120.73 152.57 121.63 153.32 122.65 153.23 C 123.67 153.13 124.43 152.23 124.33 151.21 L 124.24 150.18 C 124.14 149.16 123.24 148.40 122.22 148.50 C 121.20 148.59 120.45 149.50 120.54 150.52 Z M 120.64 151.54 L 120.72 152.56 C 120.81 153.58 121.71 154.34 122.73 154.25 C 123.75 154.16 124.50 153.27 124.42 152.25 L 124.33 151.22 C 124.25 150.20 123.35 149.45 122.33 149.53 C 121.31 149.62 120.55 150.52 120.64 151.54 Z M 120.72 152.55 L 120.80 153.53 C 120.88 154.55 121.78 155.31 122.80 155.23 C 123.82 155.15 124.58 154.25 124.50 153.23 L 124.42 152.25 C 124.34 151.23 123.44 150.47 122.42 150.55 C 121.40 150.63 120.64 151.53 120.72 152.55 Z M 120.80 153.53 L 120.87 154.47 C 120.96 155.49 121.85 156.25 122.87 156.17 C 123.89 156.09 124.65 155.19 124.57 154.17 L 124.50 153.23 C 124.42 152.21 123.52 151.45 122.50 151.53 C 121.48 151.61 120.72 152.50 120.80 153.53 Z M 120.88 154.47 L 120.96 155.45 C 121.04 156.47 121.93 157.23 122.95 157.15 C 123.97 157.07 124.73 156.18 124.65 155.16 L 124.57 154.17 C 124.49 153.15 123.59 152.39 122.58 152.48 C 121.56 152.56 120.80 153.45 120.88 154.47 Z M 120.96 155.45 L 121.04 156.39 C 121.12 157.41 122.00 158.17 123.02 158.09 C 124.03 158.01 124.79 157.12 124.71 156.11 L 124.64 155.16 C 124.56 154.15 123.67 153.39 122.66 153.47 C 121.64 153.55 120.89 154.43 120.96 155.45 Z M 121.04 156.38 L 121.11 157.36 C 121.18 158.38 122.06 159.14 123.07 159.07 C 124.09 159.00 124.85 158.12 124.78 157.11 L 124.71 156.12 C 124.64 155.11 123.76 154.35 122.75 154.42 C 121.73 154.49 120.97 155.37 121.04 156.38 Z M 121.12 157.35 L 121.18 158.39 C 121.24 159.40 122.11 160.16 123.12 160.10 C 124.13 160.04 124.90 159.17 124.84 158.16 L 124.77 157.12 C 124.71 156.11 123.84 155.35 122.83 155.41 C 121.82 155.47 121.06 156.34 121.12 157.35 Z M 121.19 158.37 L 121.24 159.34 C 121.29 160.35 122.15 161.12 123.16 161.07 C 124.17 161.01 124.94 160.15 124.88 159.15 L 124.83 158.18 C 124.78 157.17 123.92 156.40 122.91 156.45 C 121.90 156.51 121.13 157.37 121.19 158.37 Z M 121.24 159.34 L 121.29 160.37 C 121.34 161.37 122.20 162.15 123.20 162.10 C 124.21 162.05 124.98 161.19 124.93 160.19 L 124.88 159.16 C 124.83 158.15 123.98 157.38 122.97 157.43 C 121.97 157.48 121.19 158.33 121.24 159.34 Z M 121.30 160.36 L 121.34 161.40 C 121.39 162.41 122.24 163.18 123.25 163.14 C 124.25 163.09 125.02 162.24 124.98 161.23 L 124.93 160.19 C 124.88 159.19 124.03 158.41 123.03 158.46 C 122.02 158.51 121.25 159.36 121.30 160.36 Z M 121.35 161.40 L 121.39 162.41 C 121.44 163.41 122.29 164.19 123.29 164.14 C 124.29 164.10 125.06 163.25 125.02 162.25 L 124.97 161.24 C 124.93 160.24 124.08 159.46 123.08 159.51 C 122.08 159.55 121.30 160.40 121.35 161.40 Z M 121.40 162.41 L 121.44 163.43 C 121.49 164.43 122.33 165.20 123.33 165.16 C 124.33 165.11 125.10 164.27 125.06 163.27 L 125.01 162.25 C 124.97 161.25 124.12 160.48 123.13 160.52 C 122.13 160.57 121.36 161.41 121.40 162.41 Z M 121.45 163.43 L 121.50 164.55 C 121.54 165.54 122.38 166.31 123.37 166.27 C 124.37 166.23 125.14 165.39 125.09 164.40 L 125.05 163.28 C 125.00 162.28 124.17 161.51 123.17 161.55 C 122.18 161.60 121.41 162.43 121.45 163.43 Z M 121.52 164.54 L 121.55 165.52 C 121.59 166.50 122.42 167.27 123.40 167.23 C 124.39 167.19 125.15 166.37 125.12 165.38 L 125.08 164.40 C 125.04 163.42 124.21 162.65 123.23 162.69 C 122.25 162.73 121.48 163.56 121.52 164.54 Z M 121.57 165.50 L 121.59 166.40 C 121.62 167.37 122.44 168.14 123.42 168.11 C 124.39 168.08 125.16 167.26 125.13 166.29 L 125.10 165.40 C 125.07 164.42 124.26 163.65 123.28 163.68 C 122.30 163.71 121.54 164.53 121.57 165.50 Z M 121.61 166.38 L 121.63 167.33 C 121.64 168.30 122.45 169.07 123.41 169.05 C 124.38 169.03 125.15 168.23 125.14 167.26 L 125.12 166.31 C 125.10 165.34 124.30 164.57 123.33 164.59 C 122.36 164.61 121.59 165.41 121.61 166.38 Z M 121.64 167.32 L 121.65 168.32 C 121.66 169.28 122.45 170.05 123.41 170.04 C 124.38 170.03 125.15 169.24 125.14 168.28 L 125.13 167.28 C 125.11 166.31 124.32 165.54 123.36 165.55 C 122.40 165.56 121.62 166.35 121.64 167.32 Z M 121.66 168.32 L 121.67 169.31 C 121.68 170.27 122.47 171.04 123.43 171.03 C 124.39 171.02 125.15 170.23 125.14 169.27 L 125.13 168.28 C 125.11 167.32 124.33 166.55 123.37 166.56 C 122.41 166.58 121.65 167.36 121.66 168.32 Z M 121.68 169.33 L 121.70 170.26 C 121.72 171.22 122.51 171.97 123.46 171.95 C 124.42 171.93 125.17 171.14 125.15 170.19 L 125.13 169.25 C 125.11 168.30 124.32 167.55 123.37 167.57 C 122.41 167.59 121.66 168.38 121.68 169.33 Z M 121.71 170.28 L 121.74 171.20 C 121.77 172.14 122.57 172.88 123.51 172.85 C 124.46 172.82 125.20 172.03 125.17 171.08 L 125.14 170.17 C 125.11 169.22 124.32 168.48 123.37 168.51 C 122.42 168.54 121.68 169.34 121.71 170.28 Z M 121.75 171.21 L 121.79 172.22 C 121.83 173.16 122.63 173.89 123.57 173.85 C 124.51 173.81 125.24 173.02 125.20 172.07 L 125.16 171.07 C 125.12 170.13 124.33 169.39 123.39 169.43 C 122.44 169.47 121.71 170.27 121.75 171.21 Z M 121.80 172.22 L 121.85 173.36 C 121.90 174.29 122.69 175.02 123.63 174.97 C 124.56 174.93 125.29 174.14 125.25 173.20 L 125.19 172.07 C 125.15 171.13 124.36 170.41 123.42 170.45 C 122.48 170.49 121.76 171.29 121.80 172.22 Z M 121.86 173.36 L 121.90 174.30 C 121.95 175.23 122.74 175.95 123.67 175.91 C 124.60 175.86 125.32 175.07 125.28 174.14 L 125.24 173.20 C 125.19 172.27 124.40 171.55 123.47 171.59 C 122.54 171.63 121.82 172.43 121.86 173.36 Z M 121.91 174.30 L 121.96 175.30 C 122.00 176.23 122.79 176.95 123.72 176.90 C 124.65 176.86 125.37 176.07 125.32 175.14 L 125.27 174.14 C 125.23 173.21 124.44 172.49 123.51 172.54 C 122.58 172.58 121.87 173.37 121.91 174.30 Z M 121.97 175.31 L 122.02 176.34 C 122.06 177.27 122.85 177.98 123.78 177.93 C 124.70 177.89 125.41 177.10 125.37 176.18 L 125.32 175.14 C 125.27 174.21 124.48 173.50 123.56 173.55 C 122.63 173.59 121.92 174.38 121.97 175.31 Z M 122.02 176.34 L 122.08 177.37 C 122.13 178.30 122.91 179.00 123.83 178.96 C 124.75 178.91 125.46 178.12 125.41 177.20 L 125.36 176.17 C 125.31 175.25 124.53 174.54 123.61 174.59 C 122.68 174.64 121.98 175.42 122.02 176.34 Z M 122.08 177.38 L 122.14 178.40 C 122.19 179.32 122.98 180.02 123.89 179.97 C 124.81 179.92 125.51 179.14 125.46 178.22 L 125.41 177.20 C 125.36 176.28 124.57 175.58 123.65 175.63 C 122.74 175.68 122.03 176.46 122.08 177.38 Z M 122.15 178.42 L 122.22 179.51 C 122.28 180.42 123.07 181.11 123.98 181.05 C 124.90 180.99 125.59 180.21 125.53 179.29 L 125.46 178.20 C 125.40 177.29 124.61 176.60 123.69 176.66 C 122.78 176.72 122.09 177.51 122.15 178.42 Z M 122.23 179.56 L 122.33 180.56 C 122.42 181.47 123.22 182.14 124.13 182.05 C 125.04 181.96 125.70 181.15 125.62 180.24 L 125.52 179.24 C 125.43 178.33 124.62 177.67 123.71 177.76 C 122.81 177.84 122.14 178.65 122.23 179.56 Z M 122.35 180.66 L 122.49 181.59 C 122.63 182.49 123.47 183.11 124.37 182.97 C 125.27 182.83 125.88 181.98 125.74 181.09 L 125.60 180.15 C 125.46 179.25 124.62 178.64 123.72 178.78 C 122.82 178.92 122.21 179.76 122.35 180.66 Z M 122.52 181.73 L 122.74 182.62 C 122.96 183.50 123.85 184.04 124.73 183.83 C 125.61 183.61 126.14 182.72 125.93 181.84 L 125.71 180.95 C 125.49 180.07 124.61 179.53 123.73 179.75 C 122.85 179.96 122.31 180.85 122.52 181.73 Z M 122.79 182.79 L 123.13 183.73 C 123.44 184.58 124.38 185.02 125.23 184.72 C 126.08 184.41 126.52 183.47 126.22 182.62 L 125.88 181.68 C 125.57 180.83 124.63 180.39 123.78 180.69 C 122.93 181.00 122.49 181.94 122.79 182.79 Z M 123.18 183.86 L 123.60 184.76 C 123.97 185.59 124.95 185.95 125.77 185.57 C 126.59 185.20 126.95 184.23 126.58 183.40 L 126.16 182.50 C 125.79 181.67 124.82 181.31 123.99 181.69 C 123.17 182.06 122.81 183.03 123.18 183.86 Z M 123.64 184.84 L 124.10 185.72 C 124.51 186.53 125.50 186.84 126.30 186.42 C 127.10 186.01 127.42 185.02 127.00 184.22 L 126.54 183.33 C 126.13 182.53 125.14 182.21 124.33 182.63 C 123.53 183.05 123.22 184.03 123.64 184.84 Z M 124.11 185.75 L 124.34 186.17 C 124.77 186.97 125.76 187.27 126.56 186.84 C 127.35 186.41 127.65 185.41 127.22 184.62 L 126.99 184.19 C 126.56 183.40 125.57 183.10 124.77 183.53 C 123.98 183.96 123.68 184.95 124.11 185.75 Z"
      fill="black"
      fill-rule="nonzero" /><path d="M 143.17 134.82 L 144.09 134.34 C 144.95 133.89 145.29 132.83 144.84 131.97 C 144.39 131.11 143.33 130.77 142.47 131.22 L 141.54 131.70 C 140.68 132.15 140.35 133.21 140.79 134.07 C 141.24 134.94 142.31 135.27 143.17 134.82 Z M 144.10 134.34 L 145.01 133.86 C 145.87 133.41 146.19 132.34 145.74 131.48 C 145.29 130.62 144.22 130.29 143.36 130.75 L 142.46 131.22 C 141.60 131.68 141.27 132.74 141.72 133.60 C 142.18 134.46 143.24 134.79 144.10 134.34 Z M 145.03 133.85 L 145.89 133.38 C 146.75 132.91 147.06 131.84 146.60 130.99 C 146.13 130.13 145.06 129.82 144.21 130.28 L 143.34 130.76 C 142.49 131.22 142.17 132.29 142.64 133.15 C 143.10 134.00 144.17 134.32 145.03 133.85 Z M 145.93 133.36 L 146.76 132.88 C 147.60 132.40 147.89 131.32 147.41 130.48 C 146.93 129.63 145.85 129.34 145.01 129.83 L 144.17 130.30 C 143.33 130.79 143.04 131.86 143.52 132.71 C 144.01 133.55 145.08 133.84 145.93 133.36 Z M 146.80 132.83 L 147.68 132.29 C 148.50 131.78 148.76 130.71 148.25 129.89 C 147.75 129.07 146.67 128.82 145.85 129.32 L 144.97 129.87 C 144.15 130.38 143.90 131.45 144.40 132.27 C 144.91 133.09 145.98 133.34 146.80 132.83 Z M 147.71 132.23 L 148.53 131.69 C 149.32 131.17 149.54 130.11 149.02 129.33 C 148.50 128.54 147.44 128.32 146.65 128.84 L 145.83 129.38 C 145.04 129.90 144.82 130.96 145.34 131.75 C 145.86 132.53 146.92 132.75 147.71 132.23 Z M 148.54 131.65 L 149.34 131.10 C 150.10 130.58 150.29 129.54 149.77 128.77 C 149.25 128.01 148.21 127.82 147.44 128.34 L 146.65 128.88 C 145.88 129.41 145.69 130.45 146.21 131.21 C 146.73 131.97 147.78 132.17 148.54 131.65 Z M 149.33 131.08 L 150.15 130.51 C 150.90 129.99 151.08 128.96 150.56 128.21 C 150.04 127.46 149.01 127.28 148.26 127.80 L 147.45 128.36 C 146.70 128.88 146.51 129.91 147.03 130.66 C 147.55 131.41 148.58 131.60 149.33 131.08 Z M 150.15 130.50 L 150.97 129.93 C 151.71 129.40 151.89 128.38 151.37 127.63 C 150.85 126.89 149.82 126.71 149.08 127.23 L 148.26 127.81 C 147.51 128.33 147.33 129.35 147.86 130.10 C 148.38 130.84 149.40 131.02 150.15 130.50 Z M 150.97 129.92 L 151.79 129.34 C 152.53 128.81 152.70 127.79 152.18 127.05 C 151.66 126.31 150.63 126.13 149.89 126.66 L 149.07 127.24 C 148.33 127.76 148.16 128.79 148.69 129.53 C 149.21 130.27 150.23 130.44 150.97 129.92 Z M 151.80 129.33 L 152.59 128.75 C 153.33 128.22 153.49 127.20 152.96 126.47 C 152.43 125.73 151.41 125.57 150.68 126.10 L 149.88 126.67 C 149.15 127.20 148.98 128.22 149.51 128.95 C 150.04 129.69 151.07 129.85 151.80 129.33 Z M 152.61 128.74 L 153.40 128.16 C 154.12 127.62 154.27 126.59 153.73 125.87 C 153.19 125.14 152.17 124.99 151.44 125.53 L 150.66 126.11 C 149.93 126.65 149.78 127.68 150.32 128.40 C 150.86 129.13 151.89 129.28 152.61 128.74 Z M 153.43 128.13 L 154.22 127.51 C 154.94 126.96 155.07 125.93 154.51 125.21 C 153.95 124.50 152.93 124.37 152.21 124.93 L 151.41 125.55 C 150.70 126.11 150.57 127.13 151.13 127.85 C 151.68 128.56 152.71 128.69 153.43 128.13 Z M 154.26 127.48 L 155.04 126.84 C 155.73 126.27 155.83 125.24 155.26 124.54 C 154.68 123.84 153.65 123.74 152.95 124.32 L 152.18 124.96 C 151.48 125.53 151.38 126.56 151.95 127.26 C 152.53 127.96 153.56 128.06 154.26 127.48 Z M 155.07 126.82 L 155.80 126.18 C 156.49 125.59 156.56 124.56 155.97 123.87 C 155.38 123.19 154.35 123.11 153.66 123.70 L 152.92 124.34 C 152.24 124.93 152.17 125.97 152.76 126.65 C 153.35 127.33 154.38 127.41 155.07 126.82 Z M 155.82 126.17 L 156.57 125.50 C 157.25 124.89 157.31 123.86 156.71 123.18 C 156.11 122.51 155.07 122.45 154.40 123.05 L 153.64 123.72 C 152.97 124.32 152.91 125.36 153.51 126.03 C 154.11 126.71 155.14 126.77 155.82 126.17 Z M 156.58 125.49 L 157.35 124.80 C 158.02 124.19 158.07 123.15 157.46 122.48 C 156.86 121.81 155.82 121.76 155.15 122.37 L 154.39 123.06 C 153.72 123.67 153.66 124.70 154.27 125.37 C 154.88 126.04 155.91 126.09 156.58 125.49 Z M 157.35 124.79 L 157.65 124.52 C 158.32 123.91 158.37 122.88 157.76 122.21 C 157.15 121.54 156.11 121.49 155.45 122.10 L 155.15 122.37 C 154.48 122.98 154.43 124.01 155.04 124.68 C 155.65 125.35 156.68 125.40 157.35 124.79 Z"
      fill="black"
      fill-rule="nonzero" /><path d="M 145.09 115.09 L 144.73 115.97 C 144.37 116.87 144.81 117.91 145.71 118.27 C 146.62 118.64 147.65 118.20 148.02 117.30 L 148.37 116.41 C 148.74 115.51 148.30 114.47 147.40 114.11 C 146.49 113.74 145.46 114.18 145.09 115.09 Z M 144.72 115.99 L 144.36 116.89 C 144.01 117.81 144.46 118.84 145.38 119.20 C 146.30 119.55 147.33 119.10 147.68 118.18 L 148.03 117.28 C 148.39 116.36 147.94 115.33 147.02 114.97 C 146.10 114.62 145.07 115.07 144.72 115.99 Z M 144.34 116.93 L 144.00 117.88 C 143.67 118.81 144.15 119.84 145.08 120.17 C 146.01 120.50 147.04 120.02 147.37 119.09 L 147.71 118.14 C 148.04 117.21 147.56 116.19 146.63 115.85 C 145.70 115.52 144.67 116.00 144.34 116.93 Z M 143.97 117.94 L 143.65 118.95 C 143.35 119.90 143.87 120.91 144.82 121.21 C 145.76 121.51 146.78 120.99 147.08 120.04 L 147.40 119.03 C 147.70 118.08 147.18 117.07 146.23 116.77 C 145.28 116.47 144.27 116.99 143.97 117.94 Z M 143.62 119.02 L 143.36 119.94 C 143.10 120.91 143.66 121.90 144.63 122.17 C 145.59 122.43 146.58 121.87 146.85 120.91 L 147.10 119.98 C 147.37 119.02 146.81 118.02 145.84 117.76 C 144.88 117.49 143.89 118.05 143.62 119.02 Z M 143.35 120.00 L 143.11 120.97 C 142.88 121.94 143.48 122.92 144.45 123.15 C 145.43 123.38 146.40 122.78 146.64 121.81 L 146.87 120.85 C 147.10 119.88 146.50 118.90 145.53 118.66 C 144.56 118.43 143.58 119.03 143.35 120.00 Z M 143.10 121.02 L 142.89 122.02 C 142.69 123.00 143.32 123.96 144.30 124.16 C 145.28 124.36 146.25 123.73 146.45 122.75 L 146.65 121.76 C 146.86 120.77 146.22 119.81 145.24 119.61 C 144.26 119.41 143.30 120.04 143.10 121.02 Z M 142.88 122.07 L 142.70 123.08 C 142.53 124.07 143.20 125.01 144.19 125.18 C 145.18 125.35 146.12 124.69 146.29 123.70 L 146.46 122.69 C 146.63 121.70 145.97 120.76 144.98 120.59 C 143.99 120.42 143.05 121.08 142.88 122.07 Z M 142.69 123.14 L 142.55 124.15 C 142.41 125.14 143.11 126.07 144.11 126.20 C 145.10 126.34 146.02 125.64 146.16 124.65 L 146.30 123.64 C 146.44 122.64 145.74 121.72 144.75 121.58 C 143.75 121.45 142.83 122.14 142.69 123.14 Z M 142.54 124.21 L 142.44 125.20 C 142.34 126.20 143.07 127.10 144.07 127.20 C 145.07 127.31 145.97 126.58 146.07 125.57 L 146.17 124.58 C 146.27 123.58 145.54 122.68 144.54 122.58 C 143.54 122.48 142.64 123.21 142.54 124.21 Z M 142.43 125.26 L 142.37 126.24 C 142.29 127.25 143.05 128.12 144.06 128.19 C 145.06 128.26 145.94 127.51 146.01 126.50 L 146.08 125.52 C 146.15 124.51 145.39 123.64 144.38 123.57 C 143.38 123.50 142.51 124.25 142.43 125.26 Z M 142.36 126.29 L 142.32 127.28 C 142.27 128.29 143.05 129.14 144.06 129.18 C 145.07 129.23 145.92 128.45 145.96 127.44 L 146.01 126.45 C 146.05 125.45 145.27 124.59 144.27 124.55 C 143.26 124.50 142.41 125.28 142.36 126.29 Z M 142.32 127.31 L 142.29 128.32 C 142.26 129.33 143.06 130.16 144.07 130.19 C 145.07 130.22 145.91 129.42 145.94 128.41 L 145.97 127.41 C 145.99 126.40 145.20 125.56 144.19 125.54 C 143.18 125.51 142.34 126.31 142.32 127.31 Z M 142.29 128.34 L 142.27 129.36 C 142.26 130.37 143.06 131.20 144.07 131.21 C 145.08 131.23 145.91 130.42 145.92 129.42 L 145.94 128.39 C 145.96 127.39 145.15 126.56 144.14 126.54 C 143.13 126.53 142.30 127.33 142.29 128.34 Z M 142.27 129.38 L 142.27 130.40 C 142.26 131.40 143.07 132.23 144.08 132.23 C 145.09 132.24 145.91 131.43 145.92 130.42 L 145.92 129.40 C 145.93 128.39 145.12 127.57 144.11 127.56 C 143.10 127.56 142.28 128.37 142.27 129.38 Z M 142.27 130.42 L 142.27 131.45 C 142.28 132.45 143.10 133.27 144.11 133.26 C 145.12 133.26 145.93 132.43 145.92 131.43 L 145.92 130.40 C 145.91 129.39 145.09 128.58 144.08 128.58 C 143.07 128.59 142.26 129.41 142.27 130.42 Z M 142.27 131.48 L 142.30 132.50 C 142.32 133.50 143.16 134.30 144.17 134.27 C 145.17 134.25 145.97 133.41 145.95 132.41 L 145.92 131.39 C 145.90 130.38 145.06 129.59 144.05 129.61 C 143.05 129.64 142.25 130.47 142.27 131.48 Z M 142.30 132.54 L 142.35 133.53 C 142.40 134.53 143.26 135.31 144.27 135.25 C 145.27 135.20 146.05 134.34 145.99 133.34 L 145.94 132.36 C 145.89 131.35 145.03 130.58 144.03 130.63 C 143.02 130.68 142.25 131.54 142.30 132.54 Z M 142.36 133.60 L 142.44 134.56 C 142.53 135.57 143.42 136.31 144.42 136.22 C 145.43 136.13 146.17 135.24 146.08 134.24 L 145.99 133.27 C 145.90 132.27 145.01 131.53 144.01 131.62 C 143.01 131.71 142.27 132.59 142.36 133.60 Z M 142.46 134.66 L 142.61 135.69 C 142.75 136.69 143.67 137.38 144.67 137.23 C 145.66 137.09 146.35 136.17 146.21 135.18 L 146.06 134.14 C 145.92 133.15 145.00 132.46 144.00 132.60 C 143.01 132.74 142.32 133.66 142.46 134.66 Z M 142.63 135.80 L 142.83 136.77 C 143.03 137.75 143.99 138.38 144.97 138.18 C 145.95 137.98 146.59 137.02 146.38 136.04 L 146.19 135.07 C 145.98 134.09 145.02 133.46 144.04 133.66 C 143.06 133.86 142.43 134.82 142.63 135.80 Z M 142.86 136.87 L 143.11 137.80 C 143.37 138.77 144.36 139.34 145.32 139.09 C 146.29 138.83 146.86 137.84 146.60 136.88 L 146.36 135.94 C 146.10 134.97 145.11 134.40 144.14 134.66 C 143.18 134.91 142.60 135.90 142.86 136.87 Z M 143.14 137.89 L 143.44 138.82 C 143.74 139.77 144.75 140.29 145.70 139.99 C 146.65 139.69 147.17 138.67 146.87 137.72 L 146.57 136.79 C 146.27 135.84 145.26 135.32 144.31 135.62 C 143.36 135.92 142.84 136.94 143.14 137.89 Z M 143.46 138.88 L 143.81 139.83 C 144.14 140.77 145.17 141.25 146.11 140.91 C 147.04 140.58 147.52 139.55 147.19 138.61 L 146.84 137.66 C 146.51 136.73 145.48 136.24 144.54 136.58 C 143.61 136.92 143.13 137.95 143.46 138.88 Z M 143.84 139.89 L 144.22 140.84 C 144.59 141.76 145.63 142.20 146.55 141.83 C 147.47 141.46 147.91 140.42 147.54 139.50 L 147.16 138.55 C 146.79 137.64 145.74 137.19 144.83 137.56 C 143.91 137.93 143.47 138.97 143.84 139.89 Z M 144.25 140.90 L 144.66 141.82 C 145.07 142.72 146.13 143.12 147.02 142.72 C 147.92 142.31 148.33 141.25 147.92 140.36 L 147.51 139.44 C 147.10 138.54 146.04 138.14 145.15 138.54 C 144.25 138.95 143.85 140.00 144.25 140.90 Z M 144.70 141.89 L 145.14 142.76 C 145.59 143.63 146.66 143.98 147.53 143.54 C 148.41 143.09 148.76 142.02 148.32 141.15 L 147.88 140.28 C 147.44 139.41 146.36 139.06 145.49 139.50 C 144.61 139.94 144.26 141.02 144.70 141.89 Z M 145.21 142.86 L 145.76 143.78 C 146.26 144.62 147.34 144.89 148.18 144.39 C 149.02 143.89 149.30 142.81 148.80 141.97 L 148.25 141.04 C 147.75 140.20 146.66 139.93 145.82 140.43 C 144.98 140.93 144.71 142.02 145.21 142.86 Z M 145.89 143.95 L 146.51 144.74 C 147.11 145.51 148.21 145.64 148.97 145.05 C 149.74 144.45 149.87 143.35 149.28 142.58 L 148.66 141.79 C 148.06 141.03 146.96 140.89 146.20 141.49 C 145.43 142.08 145.30 143.19 145.89 143.95 Z M 146.76 144.98 L 147.48 145.60 C 148.21 146.22 149.30 146.14 149.93 145.41 C 150.56 144.68 150.47 143.58 149.74 142.95 L 149.03 142.34 C 148.30 141.71 147.20 141.80 146.57 142.53 C 145.95 143.26 146.03 144.36 146.76 144.98 Z M 147.86 145.83 L 148.70 146.24 C 149.56 146.65 150.59 146.29 151.01 145.44 C 151.42 144.58 151.07 143.55 150.21 143.13 L 149.36 142.72 C 148.50 142.31 147.47 142.67 147.06 143.52 C 146.64 144.38 147.00 145.41 147.86 145.83 Z M 149.12 146.36 L 150.08 146.55 C 151.01 146.73 151.91 146.13 152.09 145.21 C 152.28 144.28 151.67 143.38 150.75 143.20 L 149.79 143.01 C 148.86 142.83 147.96 143.43 147.78 144.35 C 147.60 145.28 148.20 146.18 149.12 146.36 Z M 150.47 146.56 L 151.49 146.53 C 152.42 146.50 153.15 145.71 153.11 144.78 C 153.08 143.85 152.30 143.12 151.37 143.15 L 150.36 143.19 C 149.43 143.22 148.70 144.00 148.73 144.93 C 148.76 145.87 149.54 146.60 150.47 146.56 Z M 151.87 146.45 L 152.85 146.18 C 153.74 145.94 154.27 145.02 154.03 144.13 C 153.78 143.24 152.87 142.72 151.98 142.96 L 150.99 143.23 C 150.10 143.47 149.57 144.39 149.82 145.28 C 150.06 146.17 150.98 146.69 151.87 146.45 Z M 153.20 146.03 L 154.04 145.59 C 154.84 145.15 155.15 144.15 154.72 143.34 C 154.29 142.53 153.28 142.23 152.48 142.66 L 151.64 143.11 C 150.83 143.54 150.52 144.54 150.95 145.35 C 151.38 146.16 152.39 146.46 153.20 146.03 Z M 154.25 145.44 L 155.04 144.84 C 155.77 144.29 155.91 143.25 155.36 142.53 C 154.81 141.80 153.77 141.66 153.04 142.21 L 152.26 142.81 C 151.53 143.36 151.39 144.39 151.94 145.12 C 152.49 145.85 153.53 145.99 154.25 145.44 Z M 155.16 144.74 L 155.91 144.05 C 156.58 143.43 156.62 142.39 156.01 141.72 C 155.39 141.05 154.35 141.01 153.68 141.62 L 152.93 142.31 C 152.26 142.93 152.22 143.97 152.83 144.64 C 153.45 145.31 154.49 145.35 155.16 144.74 Z M 155.95 144.00 L 156.51 143.45 C 157.15 142.81 157.15 141.77 156.52 141.13 C 155.88 140.48 154.84 140.48 154.20 141.12 L 153.64 141.67 C 153.00 142.31 152.99 143.34 153.63 143.99 C 154.27 144.63 155.31 144.64 155.95 144.00 Z"
      fill="black"
      fill-rule="nonzero" /><path d="M 159.51 126.39 L 160.44 126.58 C 161.40 126.77 162.35 126.14 162.54 125.18 C 162.74 124.21 162.11 123.27 161.14 123.07 L 160.21 122.88 C 159.25 122.69 158.30 123.32 158.11 124.29 C 157.91 125.25 158.54 126.20 159.51 126.39 Z M 160.60 126.60 L 161.56 126.71 C 162.55 126.81 163.43 126.10 163.53 125.12 C 163.64 124.13 162.92 123.25 161.94 123.15 L 160.98 123.04 C 160.00 122.94 159.11 123.65 159.01 124.63 C 158.91 125.62 159.62 126.50 160.60 126.60 Z M 161.86 126.71 L 162.90 126.65 C 163.89 126.59 164.64 125.73 164.57 124.75 C 164.51 123.76 163.66 123.01 162.67 123.07 L 161.64 123.14 C 160.65 123.20 159.90 124.05 159.96 125.04 C 160.03 126.03 160.88 126.78 161.86 126.71 Z M 163.22 126.59 L 164.12 126.37 C 165.07 126.13 165.66 125.16 165.42 124.20 C 165.18 123.25 164.21 122.67 163.26 122.91 L 162.36 123.13 C 161.40 123.37 160.82 124.34 161.06 125.29 C 161.30 126.25 162.26 126.83 163.22 126.59 Z M 164.32 126.28 L 165.17 125.96 C 166.08 125.61 166.53 124.59 166.19 123.68 C 165.84 122.77 164.82 122.32 163.91 122.66 L 163.06 122.99 C 162.15 123.34 161.69 124.35 162.04 125.26 C 162.39 126.17 163.41 126.63 164.32 126.28 Z M 165.27 125.89 L 166.18 125.47 C 167.05 125.07 167.43 124.03 167.02 123.16 C 166.62 122.29 165.59 121.91 164.72 122.31 L 163.81 122.73 C 162.94 123.14 162.56 124.17 162.97 125.04 C 163.37 125.91 164.40 126.29 165.27 125.89 Z M 166.22 125.42 L 167.18 124.93 C 168.02 124.50 168.35 123.47 167.92 122.63 C 167.50 121.79 166.47 121.45 165.62 121.88 L 164.67 122.37 C 163.83 122.79 163.49 123.83 163.92 124.67 C 164.35 125.51 165.38 125.85 166.22 125.42 Z M 167.19 124.90 L 168.18 124.38 C 169.00 123.94 169.32 122.92 168.88 122.10 C 168.45 121.27 167.43 120.96 166.60 121.39 L 165.61 121.92 C 164.79 122.35 164.47 123.37 164.91 124.19 C 165.34 125.02 166.36 125.33 167.19 124.90 Z M 168.17 124.36 L 169.03 123.91 C 169.85 123.48 170.16 122.47 169.73 121.66 C 169.30 120.84 168.29 120.52 167.47 120.95 L 166.61 121.41 C 165.80 121.83 165.48 122.84 165.91 123.66 C 166.34 124.48 167.35 124.79 168.17 124.36 Z M 169.02 123.91 L 169.90 123.45 C 170.71 123.03 171.03 122.02 170.60 121.21 C 170.18 120.39 169.17 120.08 168.36 120.50 L 167.48 120.96 C 166.67 121.38 166.35 122.39 166.78 123.20 C 167.20 124.02 168.21 124.33 169.02 123.91 Z M 169.89 123.45 L 170.78 122.99 C 171.59 122.56 171.91 121.56 171.49 120.75 C 171.07 119.94 170.07 119.62 169.25 120.04 L 168.36 120.50 C 167.55 120.93 167.23 121.93 167.65 122.74 C 168.08 123.55 169.08 123.87 169.89 123.45 Z M 170.78 122.98 L 171.68 122.52 C 172.49 122.10 172.80 121.10 172.38 120.29 C 171.96 119.48 170.97 119.16 170.16 119.58 L 169.26 120.05 C 168.45 120.47 168.13 121.46 168.55 122.27 C 168.97 123.08 169.97 123.40 170.78 122.98 Z M 171.67 122.51 L 172.58 122.04 C 173.38 121.62 173.70 120.63 173.28 119.82 C 172.86 119.02 171.87 118.70 171.06 119.12 L 170.16 119.59 C 169.35 120.01 169.04 121.00 169.46 121.81 C 169.87 122.61 170.87 122.93 171.67 122.51 Z M 172.58 122.04 L 173.48 121.57 C 174.28 121.15 174.59 120.16 174.18 119.36 C 173.76 118.55 172.77 118.24 171.96 118.66 L 171.06 119.13 C 170.26 119.54 169.95 120.53 170.36 121.34 C 170.78 122.14 171.77 122.45 172.58 122.04 Z M 173.48 121.57 L 174.37 121.10 C 175.17 120.68 175.48 119.69 175.06 118.89 C 174.64 118.09 173.66 117.78 172.85 118.20 L 171.96 118.66 C 171.16 119.08 170.85 120.07 171.27 120.87 C 171.69 121.67 172.68 121.98 173.48 121.57 Z M 174.37 121.10 L 175.26 120.64 C 176.06 120.22 176.37 119.23 175.95 118.43 C 175.53 117.62 174.54 117.31 173.74 117.73 L 172.85 118.20 C 172.05 118.62 171.74 119.61 172.16 120.41 C 172.58 121.21 173.57 121.52 174.37 121.10 Z M 175.26 120.63 L 176.14 120.17 C 176.94 119.75 177.25 118.76 176.83 117.96 C 176.41 117.16 175.42 116.85 174.62 117.27 L 173.74 117.73 C 172.94 118.16 172.63 119.14 173.05 119.95 C 173.47 120.75 174.46 121.05 175.26 120.63 Z M 176.14 120.17 L 177.03 119.71 C 177.83 119.28 178.14 118.29 177.72 117.49 C 177.29 116.69 176.30 116.39 175.50 116.81 L 174.62 117.27 C 173.82 117.69 173.51 118.68 173.93 119.48 C 174.35 120.28 175.34 120.59 176.14 120.17 Z M 177.03 119.70 L 177.91 119.24 C 178.71 118.82 179.02 117.83 178.60 117.03 C 178.18 116.23 177.19 115.92 176.39 116.34 L 175.50 116.81 C 174.70 117.23 174.40 118.22 174.82 119.02 C 175.24 119.82 176.23 120.13 177.03 119.70 Z M 177.91 119.24 L 178.26 119.06 C 179.06 118.63 179.37 117.64 178.95 116.84 C 178.53 116.04 177.54 115.74 176.74 116.16 L 176.39 116.34 C 175.59 116.76 175.28 117.75 175.70 118.55 C 176.12 119.35 177.11 119.66 177.91 119.24 Z"
      fill="black"
      fill-rule="nonzero" /><path d="M 162.21 109.74 L 161.66 110.58 C 161.13 111.41 161.36 112.52 162.19 113.05 C 163.02 113.59 164.12 113.35 164.66 112.52 L 165.21 111.68 C 165.74 110.85 165.51 109.75 164.68 109.21 C 163.85 108.67 162.75 108.91 162.21 109.74 Z M 161.65 110.59 L 161.11 111.43 C 160.58 112.27 160.82 113.38 161.66 113.91 C 162.49 114.44 163.60 114.20 164.13 113.36 L 164.67 112.52 C 165.20 111.68 164.96 110.57 164.12 110.04 C 163.29 109.51 162.18 109.75 161.65 110.59 Z M 161.09 111.45 L 160.57 112.30 C 160.05 113.14 160.31 114.25 161.15 114.77 C 162.00 115.29 163.11 115.03 163.63 114.19 L 164.15 113.34 C 164.67 112.50 164.41 111.39 163.57 110.87 C 162.72 110.35 161.61 110.61 161.09 111.45 Z M 160.54 112.33 L 160.04 113.19 C 159.54 114.05 159.83 115.15 160.69 115.66 C 161.55 116.16 162.66 115.87 163.16 115.01 L 163.66 114.15 C 164.16 113.29 163.87 112.19 163.01 111.68 C 162.15 111.18 161.04 111.47 160.54 112.33 Z M 159.99 113.26 L 159.53 114.14 C 159.07 115.03 159.41 116.13 160.30 116.59 C 161.19 117.05 162.29 116.71 162.76 115.82 L 163.21 114.94 C 163.68 114.05 163.33 112.95 162.44 112.48 C 161.55 112.02 160.45 112.37 159.99 113.26 Z M 159.46 114.25 L 159.06 115.18 C 158.66 116.11 159.09 117.19 160.02 117.59 C 160.96 117.99 162.03 117.55 162.43 116.62 L 162.83 115.70 C 163.23 114.77 162.79 113.69 161.86 113.29 C 160.93 112.89 159.86 113.32 159.46 114.25 Z M 159.00 115.33 L 158.70 116.23 C 158.39 117.19 158.92 118.23 159.88 118.55 C 160.85 118.86 161.89 118.33 162.21 117.37 L 162.50 116.47 C 162.81 115.51 162.28 114.47 161.32 114.15 C 160.35 113.84 159.31 114.37 159.00 115.33 Z M 158.66 116.37 L 158.44 117.30 C 158.20 118.29 158.82 119.29 159.81 119.52 C 160.80 119.76 161.80 119.14 162.03 118.15 L 162.25 117.22 C 162.48 116.23 161.87 115.24 160.88 115.00 C 159.89 114.77 158.89 115.38 158.66 116.37 Z M 158.41 117.43 L 158.25 118.44 C 158.08 119.45 158.77 120.40 159.78 120.56 C 160.78 120.72 161.73 120.04 161.90 119.03 L 162.06 118.02 C 162.22 117.02 161.54 116.07 160.53 115.90 C 159.52 115.74 158.57 116.42 158.41 117.43 Z M 158.23 118.55 L 158.12 119.63 C 158.02 120.64 158.76 121.55 159.78 121.65 C 160.79 121.76 161.70 121.02 161.80 120.00 L 161.91 118.92 C 162.02 117.91 161.27 117.00 160.26 116.90 C 159.24 116.79 158.33 117.53 158.23 118.55 Z M 158.11 119.71 L 158.06 120.68 C 158.00 121.71 158.78 122.58 159.80 122.64 C 160.83 122.70 161.70 121.91 161.76 120.89 L 161.81 119.92 C 161.87 118.89 161.09 118.02 160.07 117.96 C 159.05 117.91 158.17 118.69 158.11 119.71 Z M 158.05 120.74 L 158.03 121.75 C 158.00 122.78 158.81 123.63 159.83 123.65 C 160.86 123.68 161.71 122.87 161.73 121.85 L 161.76 120.84 C 161.79 119.81 160.98 118.96 159.95 118.94 C 158.93 118.91 158.08 119.72 158.05 120.74 Z M 158.03 121.80 L 158.03 122.82 C 158.03 123.84 158.85 124.68 159.88 124.68 C 160.90 124.68 161.73 123.85 161.73 122.82 L 161.74 121.80 C 161.74 120.78 160.91 119.95 159.88 119.95 C 158.86 119.95 158.03 120.77 158.03 121.80 Z M 158.03 122.86 L 158.04 123.86 C 158.06 124.88 158.91 125.70 159.93 125.68 C 160.96 125.66 161.77 124.81 161.75 123.79 L 161.74 122.79 C 161.72 121.76 160.87 120.95 159.85 120.97 C 158.82 120.99 158.01 121.83 158.03 122.86 Z M 158.04 123.89 L 158.08 124.89 C 158.12 125.91 158.98 126.71 160.01 126.67 C 161.03 126.63 161.83 125.77 161.79 124.75 L 161.75 123.75 C 161.72 122.73 160.85 121.93 159.83 121.97 C 158.81 122.01 158.01 122.87 158.04 123.89 Z M 158.09 124.96 L 158.16 125.92 C 158.24 126.95 159.13 127.71 160.15 127.63 C 161.17 127.56 161.94 126.67 161.86 125.64 L 161.79 124.67 C 161.71 123.65 160.82 122.89 159.80 122.96 C 158.77 123.04 158.01 123.93 158.09 124.96 Z M 158.17 126.04 L 158.31 127.01 C 158.45 128.02 159.39 128.73 160.41 128.59 C 161.42 128.44 162.13 127.50 161.99 126.49 L 161.85 125.52 C 161.70 124.51 160.76 123.80 159.75 123.95 C 158.73 124.09 158.03 125.03 158.17 126.04 Z M 158.34 127.16 L 158.56 128.16 C 158.79 129.16 159.79 129.78 160.79 129.55 C 161.79 129.32 162.41 128.33 162.18 127.33 L 161.96 126.33 C 161.73 125.33 160.73 124.71 159.73 124.94 C 158.73 125.17 158.11 126.16 158.34 127.16 Z M 158.61 128.31 L 158.91 129.27 C 159.23 130.24 160.27 130.78 161.25 130.47 C 162.23 130.15 162.76 129.11 162.45 128.13 L 162.14 127.17 C 161.83 126.20 160.78 125.66 159.81 125.98 C 158.83 126.29 158.29 127.34 158.61 128.31 Z M 158.96 129.39 L 159.32 130.31 C 159.70 131.26 160.78 131.73 161.74 131.35 C 162.69 130.97 163.15 129.89 162.78 128.94 L 162.41 128.01 C 162.03 127.06 160.95 126.59 160.00 126.97 C 159.04 127.35 158.58 128.43 158.96 129.39 Z M 159.36 130.40 L 159.79 131.33 C 160.22 132.26 161.32 132.67 162.25 132.25 C 163.18 131.82 163.59 130.72 163.17 129.79 L 162.74 128.85 C 162.31 127.92 161.21 127.51 160.28 127.94 C 159.35 128.36 158.94 129.46 159.36 130.40 Z M 159.82 131.40 L 160.29 132.32 C 160.75 133.23 161.87 133.59 162.78 133.13 C 163.70 132.67 164.06 131.55 163.60 130.63 L 163.13 129.72 C 162.67 128.80 161.55 128.44 160.64 128.91 C 159.72 129.37 159.36 130.49 159.82 131.40 Z M 160.32 132.38 L 160.81 133.25 C 161.30 134.14 162.43 134.46 163.33 133.96 C 164.23 133.47 164.55 132.34 164.05 131.44 L 163.56 130.57 C 163.07 129.68 161.94 129.36 161.04 129.85 C 160.14 130.35 159.82 131.48 160.32 132.38 Z M 160.84 133.31 L 161.39 134.20 C 161.92 135.08 163.06 135.35 163.94 134.82 C 164.81 134.28 165.09 133.14 164.55 132.27 L 164.01 131.38 C 163.48 130.50 162.33 130.23 161.46 130.76 C 160.59 131.29 160.31 132.44 160.84 133.31 Z M 161.44 134.28 L 162.02 135.13 C 162.60 135.97 163.75 136.19 164.60 135.61 C 165.44 135.03 165.66 133.88 165.08 133.04 L 164.50 132.19 C 163.92 131.35 162.77 131.13 161.93 131.71 C 161.08 132.29 160.87 133.44 161.44 134.28 Z M 162.10 135.22 L 162.70 135.99 C 163.32 136.79 164.49 136.93 165.29 136.30 C 166.09 135.67 166.23 134.51 165.60 133.71 L 165.01 132.94 C 164.38 132.14 163.22 132.00 162.41 132.63 C 161.61 133.26 161.47 134.42 162.10 135.22 Z M 162.78 136.08 L 163.42 136.79 C 164.10 137.55 165.27 137.61 166.02 136.93 C 166.78 136.24 166.84 135.08 166.16 134.32 L 165.52 133.61 C 164.84 132.86 163.67 132.80 162.92 133.48 C 162.16 134.16 162.10 135.32 162.78 136.08 Z M 163.51 136.87 L 164.20 137.55 C 164.93 138.26 166.09 138.24 166.80 137.51 C 167.51 136.79 167.49 135.62 166.76 134.91 L 166.07 134.24 C 165.34 133.53 164.18 133.55 163.47 134.28 C 162.76 135.00 162.78 136.17 163.51 136.87 Z M 164.29 137.62 L 165.04 138.27 C 165.81 138.93 166.97 138.84 167.63 138.07 C 168.28 137.30 168.20 136.15 167.43 135.49 L 166.68 134.84 C 165.91 134.18 164.75 134.27 164.09 135.04 C 163.43 135.81 163.52 136.96 164.29 137.62 Z M 165.14 138.33 L 165.94 138.94 C 166.74 139.55 167.89 139.39 168.50 138.59 C 169.10 137.78 168.94 136.64 168.14 136.03 L 167.34 135.42 C 166.53 134.81 165.39 134.97 164.78 135.78 C 164.17 136.58 164.33 137.73 165.14 138.33 Z M 166.04 139.01 L 166.89 139.56 C 167.73 140.11 168.86 139.88 169.41 139.04 C 169.96 138.20 169.72 137.07 168.88 136.52 L 168.04 135.97 C 167.20 135.42 166.07 135.65 165.52 136.49 C 164.97 137.33 165.20 138.45 166.04 139.01 Z M 167.01 139.62 L 167.88 140.11 C 168.75 140.59 169.85 140.28 170.34 139.40 C 170.82 138.53 170.51 137.43 169.64 136.95 L 168.77 136.46 C 167.89 135.98 166.79 136.29 166.31 137.16 C 165.82 138.03 166.14 139.13 167.01 139.62 Z M 168.01 140.16 L 168.91 140.56 C 169.81 140.97 170.87 140.58 171.28 139.68 C 171.69 138.78 171.30 137.71 170.39 137.30 L 169.50 136.90 C 168.60 136.48 167.54 136.88 167.13 137.78 C 166.72 138.68 167.11 139.74 168.01 140.16 Z M 169.05 140.60 L 169.98 140.94 C 170.90 141.27 171.91 140.79 172.25 139.87 C 172.58 138.95 172.10 137.93 171.18 137.60 L 170.25 137.27 C 169.33 136.93 168.32 137.41 167.98 138.33 C 167.65 139.25 168.13 140.27 169.05 140.60 Z M 170.12 140.96 L 171.09 141.22 C 172.02 141.48 172.99 140.93 173.24 139.99 C 173.50 139.06 172.94 138.09 172.01 137.84 L 171.04 137.58 C 170.10 137.32 169.14 137.87 168.89 138.81 C 168.63 139.74 169.18 140.71 170.12 140.96 Z M 171.22 141.24 L 172.24 141.43 C 173.18 141.61 174.09 140.99 174.27 140.05 C 174.45 139.11 173.83 138.20 172.89 138.02 L 171.87 137.83 C 170.93 137.65 170.02 138.27 169.85 139.21 C 169.67 140.15 170.28 141.06 171.22 141.24 Z M 172.36 141.43 L 173.37 141.55 C 174.31 141.67 175.16 141.00 175.28 140.05 C 175.39 139.11 174.72 138.26 173.78 138.14 L 172.77 138.02 C 171.83 137.91 170.97 138.58 170.86 139.52 C 170.74 140.46 171.41 141.31 172.36 141.43 Z M 173.47 141.54 L 174.49 141.61 C 175.43 141.67 176.23 140.95 176.29 140.02 C 176.35 139.08 175.64 138.28 174.70 138.22 L 173.68 138.15 C 172.74 138.09 171.94 138.81 171.88 139.74 C 171.82 140.68 172.53 141.48 173.47 141.54 Z M 174.59 141.59 L 175.60 141.60 C 176.52 141.61 177.28 140.86 177.29 139.93 C 177.29 139.00 176.55 138.25 175.62 138.24 L 174.61 138.23 C 173.68 138.22 172.92 138.97 172.92 139.90 C 172.91 140.83 173.66 141.59 174.59 141.59 Z M 175.69 141.58 L 176.65 141.53 C 177.57 141.49 178.28 140.71 178.23 139.79 C 178.19 138.87 177.41 138.17 176.49 138.21 L 175.53 138.26 C 174.61 138.30 173.90 139.08 173.95 140.00 C 173.99 140.92 174.77 141.63 175.69 141.58 Z M 176.77 141.51 L 177.81 141.38 C 178.72 141.28 179.36 140.45 179.25 139.55 C 179.15 138.65 178.32 138.00 177.42 138.11 L 176.38 138.23 C 175.47 138.34 174.82 139.16 174.93 140.07 C 175.04 140.97 175.86 141.62 176.77 141.51 Z M 177.93 141.36 L 178.93 141.16 C 179.82 140.99 180.40 140.12 180.23 139.23 C 180.05 138.34 179.19 137.76 178.30 137.94 L 177.30 138.13 C 176.41 138.31 175.83 139.17 176.00 140.06 C 176.18 140.95 177.04 141.54 177.93 141.36 Z M 179.02 141.14 L 179.95 140.90 C 180.83 140.67 181.36 139.78 181.13 138.90 C 180.91 138.02 180.01 137.50 179.14 137.72 L 178.21 137.96 C 177.33 138.19 176.80 139.08 177.03 139.96 C 177.25 140.84 178.15 141.37 179.02 141.14 Z M 180.00 140.89 L 180.74 140.67 C 181.61 140.42 182.11 139.51 181.86 138.65 C 181.61 137.78 180.70 137.27 179.83 137.52 L 179.09 137.74 C 178.22 137.99 177.72 138.89 177.97 139.76 C 178.22 140.63 179.13 141.13 180.00 140.89 Z"
      fill="black"
      fill-rule="nonzero" /><path d="M 164.08 143.24 L 163.37 143.91 C 162.66 144.58 162.62 145.70 163.29 146.42 C 163.97 147.13 165.09 147.17 165.81 146.50 L 166.52 145.83 C 167.23 145.16 167.27 144.04 166.60 143.32 C 165.92 142.61 164.80 142.57 164.08 143.24 Z M 163.38 143.88 L 162.65 144.55 C 161.92 145.22 161.87 146.35 162.54 147.08 C 163.21 147.81 164.34 147.86 165.07 147.19 L 165.80 146.52 C 166.53 145.85 166.58 144.72 165.91 143.99 C 165.24 143.27 164.11 143.22 163.38 143.88 Z M 162.67 144.52 L 161.90 145.20 C 161.15 145.85 161.08 146.99 161.74 147.74 C 162.39 148.48 163.53 148.56 164.28 147.90 L 165.05 147.22 C 165.80 146.57 165.87 145.43 165.21 144.68 C 164.56 143.94 163.42 143.86 162.67 144.52 Z M 161.93 145.16 L 161.18 145.79 C 160.41 146.43 160.31 147.57 160.95 148.33 C 161.59 149.10 162.73 149.21 163.49 148.57 L 164.25 147.94 C 165.01 147.30 165.12 146.16 164.48 145.39 C 163.84 144.63 162.70 144.52 161.93 145.16 Z M 161.21 145.76 L 160.43 146.38 C 159.65 147.00 159.52 148.13 160.14 148.92 C 160.76 149.70 161.89 149.83 162.68 149.21 L 163.46 148.60 C 164.24 147.98 164.37 146.84 163.75 146.05 C 163.13 145.27 162.00 145.14 161.21 145.76 Z M 160.46 146.35 L 159.65 146.96 C 158.85 147.56 158.70 148.70 159.30 149.50 C 159.90 150.30 161.04 150.46 161.84 149.85 L 162.65 149.24 C 163.44 148.64 163.60 147.50 163.00 146.70 C 162.40 145.91 161.26 145.75 160.46 146.35 Z M 159.68 146.94 L 158.87 147.52 C 158.06 148.11 157.88 149.24 158.46 150.05 C 159.05 150.87 160.18 151.05 160.99 150.46 L 161.80 149.88 C 162.62 149.29 162.80 148.16 162.21 147.35 C 161.63 146.54 160.50 146.35 159.68 146.94 Z M 158.90 147.50 L 158.13 148.04 C 157.30 148.61 157.10 149.74 157.67 150.56 C 158.24 151.39 159.37 151.59 160.19 151.02 L 160.96 150.49 C 161.79 149.92 161.99 148.78 161.42 147.96 C 160.85 147.14 159.72 146.93 158.90 147.50 Z M 158.14 148.02 L 157.34 148.57 C 156.50 149.13 156.29 150.26 156.85 151.09 C 157.41 151.92 158.54 152.14 159.37 151.58 L 160.18 151.03 C 161.01 150.47 161.23 149.34 160.67 148.51 C 160.10 147.68 158.97 147.46 158.14 148.02 Z M 157.34 148.56 L 156.48 149.14 C 155.65 149.70 155.43 150.83 155.99 151.66 C 156.55 152.50 157.68 152.72 158.51 152.16 L 159.37 151.58 C 160.21 151.02 160.43 149.89 159.87 149.06 C 159.31 148.22 158.17 148.00 157.34 148.56 Z M 156.48 149.14 L 155.60 149.73 C 154.76 150.29 154.54 151.43 155.11 152.26 C 155.67 153.10 156.81 153.32 157.64 152.75 L 158.52 152.16 C 159.36 151.59 159.58 150.46 159.01 149.62 C 158.45 148.79 157.31 148.57 156.48 149.14 Z M 155.57 149.74 L 154.76 150.31 C 153.93 150.89 153.73 152.04 154.31 152.86 C 154.90 153.69 156.04 153.89 156.87 153.31 L 157.68 152.74 C 158.51 152.16 158.71 151.02 158.12 150.19 C 157.54 149.36 156.40 149.16 155.57 149.74 Z M 154.68 150.35 L 153.88 150.97 C 153.07 151.59 152.92 152.76 153.55 153.56 C 154.17 154.37 155.33 154.52 156.14 153.89 L 156.94 153.27 C 157.75 152.65 157.90 151.49 157.27 150.68 C 156.65 149.87 155.49 149.72 154.68 150.35 Z M 153.76 151.05 L 153.01 151.74 C 152.25 152.43 152.19 153.60 152.88 154.36 C 153.57 155.12 154.75 155.18 155.51 154.49 L 156.26 153.81 C 157.02 153.12 157.08 151.94 156.39 151.18 C 155.70 150.42 154.52 150.36 153.76 151.05 Z M 152.85 151.88 L 152.19 152.63 C 151.51 153.41 151.59 154.60 152.37 155.28 C 153.15 155.95 154.33 155.87 155.01 155.10 L 155.67 154.35 C 156.35 153.57 156.27 152.38 155.49 151.70 C 154.71 151.02 153.53 151.10 152.85 151.88 Z M 152.00 152.88 L 151.47 153.74 C 150.93 154.63 151.20 155.78 152.09 156.33 C 152.97 156.87 154.13 156.60 154.68 155.71 L 155.21 154.85 C 155.75 153.96 155.47 152.81 154.59 152.26 C 153.70 151.72 152.54 151.99 152.00 152.88 Z M 151.32 154.04 L 150.94 155.00 C 150.56 155.97 151.04 157.06 152.01 157.44 C 152.98 157.82 154.07 157.34 154.45 156.37 L 154.83 155.41 C 155.21 154.44 154.73 153.35 153.76 152.97 C 152.79 152.59 151.70 153.07 151.32 154.04 Z M 150.86 155.24 L 150.63 156.23 C 150.39 157.24 151.01 158.26 152.02 158.50 C 153.03 158.75 154.05 158.12 154.29 157.11 L 154.53 156.12 C 154.77 155.11 154.15 154.09 153.14 153.85 C 152.12 153.61 151.11 154.23 150.86 155.24 Z M 150.59 156.41 L 150.46 157.38 C 150.31 158.41 151.03 159.37 152.06 159.51 C 153.10 159.65 154.05 158.94 154.19 157.90 L 154.33 156.93 C 154.47 155.90 153.75 154.95 152.72 154.80 C 151.69 154.66 150.74 155.38 150.59 156.41 Z M 150.45 157.49 L 150.37 158.44 C 150.29 159.48 151.06 160.39 152.10 160.47 C 153.13 160.56 154.04 159.78 154.13 158.75 L 154.20 157.80 C 154.29 156.76 153.51 155.85 152.48 155.77 C 151.44 155.68 150.53 156.45 150.45 157.49 Z M 150.37 158.50 L 150.32 159.55 C 150.27 160.59 151.07 161.47 152.10 161.52 C 153.14 161.57 154.02 160.77 154.07 159.74 L 154.13 158.69 C 154.18 157.65 153.38 156.77 152.34 156.72 C 151.30 156.67 150.42 157.46 150.37 158.50 Z M 150.33 159.60 L 150.30 160.58 C 150.28 161.61 151.10 162.47 152.13 162.49 C 153.17 162.52 154.02 161.70 154.05 160.66 L 154.07 159.69 C 154.09 158.65 153.27 157.80 152.24 157.77 C 151.21 157.75 150.35 158.57 150.33 159.60 Z M 150.31 160.61 L 150.31 161.57 C 150.30 162.60 151.13 163.44 152.16 163.45 C 153.19 163.45 154.03 162.62 154.03 161.59 L 154.04 160.63 C 154.04 159.60 153.21 158.76 152.18 158.76 C 151.15 158.75 150.32 159.58 150.31 160.61 Z M 150.31 161.58 L 150.31 162.51 C 150.31 163.54 151.14 164.37 152.17 164.37 C 153.20 164.37 154.03 163.54 154.03 162.51 L 154.03 161.58 C 154.03 160.56 153.20 159.72 152.17 159.72 C 151.14 159.72 150.31 160.56 150.31 161.58 Z M 150.32 162.51 L 150.32 163.46 C 150.32 164.48 151.15 165.31 152.17 165.31 C 153.19 165.31 154.02 164.48 154.02 163.46 L 154.02 162.51 C 154.02 161.49 153.19 160.66 152.17 160.66 C 151.15 160.66 150.32 161.49 150.32 162.51 Z M 150.32 163.46 L 150.32 164.47 C 150.32 165.48 151.15 166.31 152.17 166.31 C 153.19 166.31 154.02 165.48 154.02 164.47 L 154.02 163.46 C 154.02 162.44 153.19 161.61 152.17 161.61 C 151.15 161.61 150.32 162.44 150.32 163.46 Z M 150.33 164.47 L 150.33 165.54 C 150.33 166.56 151.15 167.39 152.17 167.39 C 153.19 167.39 154.01 166.56 154.01 165.54 L 154.01 164.47 C 154.01 163.45 153.19 162.62 152.17 162.62 C 151.15 162.62 150.33 163.45 150.33 164.47 Z M 150.33 165.54 L 150.33 166.47 C 150.33 167.49 151.16 168.31 152.17 168.31 C 153.18 168.31 154.01 167.49 154.01 166.47 L 154.01 165.54 C 154.01 164.53 153.18 163.71 152.17 163.71 C 151.16 163.71 150.33 164.53 150.33 165.54 Z M 150.34 166.47 L 150.34 167.38 C 150.34 168.39 151.16 169.21 152.17 169.21 C 153.18 169.21 154.00 168.39 154.00 167.38 L 154.00 166.47 C 154.00 165.46 153.18 164.64 152.17 164.64 C 151.16 164.64 150.34 165.46 150.34 166.47 Z M 150.35 167.38 L 150.35 168.34 C 150.35 169.35 151.16 170.17 152.17 170.17 C 153.18 170.17 153.99 169.35 153.99 168.34 L 153.99 167.38 C 153.99 166.37 153.18 165.55 152.17 165.55 C 151.16 165.55 150.35 166.37 150.35 167.38 Z M 150.35 168.34 L 150.35 169.38 C 150.35 170.38 151.16 171.20 152.17 171.20 C 153.17 171.20 153.99 170.38 153.99 169.38 L 153.99 168.34 C 153.99 167.34 153.17 166.52 152.17 166.52 C 151.16 166.52 150.35 167.34 150.35 168.34 Z M 150.36 169.38 L 150.36 170.49 C 150.36 171.49 151.17 172.30 152.17 172.30 C 153.17 172.30 153.98 171.49 153.98 170.49 L 153.98 169.38 C 153.98 168.37 153.17 167.56 152.17 167.56 C 151.17 167.56 150.36 168.37 150.36 169.38 Z M 150.36 170.49 L 150.36 171.56 C 150.36 172.55 151.17 173.36 152.17 173.36 C 153.17 173.36 153.98 172.55 153.98 171.56 L 153.98 170.49 C 153.98 169.49 153.17 168.68 152.17 168.68 C 151.17 168.68 150.36 169.49 150.36 170.49 Z M 150.37 171.56 L 150.37 172.55 C 150.37 173.54 151.17 174.35 152.17 174.35 C 153.17 174.35 153.97 173.54 153.97 172.55 L 153.97 171.56 C 153.97 170.56 153.17 169.75 152.17 169.75 C 151.17 169.75 150.37 170.56 150.37 171.56 Z M 150.37 172.55 L 150.37 173.57 C 150.37 174.56 151.18 175.36 152.17 175.36 C 153.16 175.36 153.97 174.56 153.97 173.57 L 153.97 172.55 C 153.97 171.55 153.16 170.75 152.17 170.75 C 151.18 170.75 150.37 171.55 150.37 172.55 Z M 150.38 173.57 L 150.38 174.60 C 150.38 175.59 151.18 176.39 152.17 176.39 C 153.16 176.39 153.96 175.59 153.96 174.60 L 153.96 173.57 C 153.96 172.57 153.16 171.77 152.17 171.77 C 151.18 171.77 150.38 172.57 150.38 173.57 Z M 150.38 174.60 L 150.38 175.62 C 150.38 176.61 151.18 177.41 152.17 177.41 C 153.16 177.41 153.96 176.61 153.96 175.62 L 153.96 174.60 C 153.96 173.61 153.16 172.81 152.17 172.81 C 151.18 172.81 150.38 173.61 150.38 174.60 Z M 150.39 175.62 L 150.39 176.63 C 150.39 177.61 151.19 178.41 152.17 178.41 C 153.15 178.41 153.95 177.61 153.95 176.63 L 153.95 175.62 C 153.95 174.64 153.15 173.84 152.17 173.84 C 151.19 173.84 150.39 174.64 150.39 175.62 Z M 150.39 176.63 L 150.39 177.59 C 150.39 178.57 151.19 179.37 152.17 179.37 C 153.15 179.37 153.95 178.57 153.95 177.59 L 153.95 176.63 C 153.95 175.65 153.15 174.85 152.17 174.85 C 151.19 174.85 150.39 175.65 150.39 176.63 Z M 150.40 177.59 L 150.40 178.70 C 150.40 179.68 151.19 180.47 152.17 180.47 C 153.15 180.47 153.94 179.68 153.94 178.70 L 153.94 177.59 C 153.94 176.61 153.15 175.82 152.17 175.82 C 151.19 175.82 150.40 176.61 150.40 177.59 Z M 150.41 178.70 L 150.41 179.78 C 150.41 180.75 151.20 181.54 152.17 181.54 C 153.14 181.54 153.93 180.75 153.93 179.78 L 153.93 178.70 C 153.93 177.73 153.14 176.94 152.17 176.94 C 151.20 176.94 150.41 177.73 150.41 178.70 Z M 150.42 179.78 L 150.42 180.78 C 150.42 181.74 151.20 182.53 152.17 182.53 C 153.14 182.53 153.92 181.74 153.92 180.78 L 153.92 179.78 C 153.92 178.81 153.14 178.03 152.17 178.03 C 151.20 178.03 150.42 178.81 150.42 179.78 Z M 150.43 180.78 L 150.43 181.72 C 150.43 182.68 151.21 183.46 152.17 183.46 C 153.13 183.46 153.91 182.68 153.91 181.72 L 153.91 180.78 C 153.91 179.82 153.13 179.04 152.17 179.04 C 151.21 179.04 150.43 179.82 150.43 180.78 Z M 150.44 181.72 L 150.44 182.62 C 150.44 183.57 151.22 184.34 152.17 184.34 C 153.12 184.34 153.90 183.57 153.90 182.62 L 153.90 181.72 C 153.90 180.77 153.12 179.99 152.17 179.99 C 151.22 179.99 150.44 180.77 150.44 181.72 Z M 150.46 182.62 L 150.46 183.60 C 150.46 184.55 151.23 185.31 152.17 185.31 C 153.12 185.31 153.89 184.54 153.89 183.60 L 153.88 182.62 C 153.88 181.67 153.12 180.90 152.17 180.90 C 151.22 180.90 150.45 181.67 150.46 182.62 Z M 150.47 183.62 L 150.48 184.64 C 150.50 185.58 151.27 186.33 152.21 186.31 C 153.15 186.30 153.90 185.53 153.89 184.58 L 153.87 183.57 C 153.86 182.63 153.09 181.88 152.15 181.89 C 151.20 181.91 150.45 182.68 150.47 183.62 Z M 150.50 184.70 L 150.55 185.69 C 150.59 186.62 151.39 187.34 152.32 187.29 C 153.26 187.25 153.97 186.45 153.93 185.52 L 153.88 184.52 C 153.83 183.59 153.03 182.87 152.10 182.92 C 151.17 182.97 150.45 183.76 150.50 184.70 Z M 150.56 185.78 L 150.67 186.76 C 150.77 187.68 151.60 188.35 152.53 188.25 C 153.45 188.15 154.12 187.32 154.01 186.40 L 153.91 185.42 C 153.81 184.50 152.98 183.83 152.05 183.93 C 151.13 184.03 150.46 184.86 150.56 185.78 Z M 150.70 186.89 L 150.88 187.85 C 151.06 188.76 151.93 189.36 152.84 189.18 C 153.74 189.01 154.34 188.14 154.17 187.23 L 153.98 186.27 C 153.81 185.36 152.94 184.76 152.03 184.94 C 151.12 185.11 150.53 185.98 150.70 186.89 Z M 150.92 187.99 L 151.19 188.93 C 151.43 189.82 152.35 190.34 153.23 190.09 C 154.12 189.85 154.64 188.93 154.39 188.04 L 154.13 187.10 C 153.88 186.21 152.97 185.69 152.08 185.94 C 151.20 186.18 150.68 187.10 150.92 187.99 Z M 151.22 189.03 L 151.55 189.97 C 151.85 190.84 152.79 191.30 153.65 191.00 C 154.52 190.70 154.98 189.76 154.68 188.89 L 154.35 187.95 C 154.06 187.08 153.11 186.62 152.25 186.92 C 151.38 187.22 150.92 188.16 151.22 189.03 Z M 151.58 190.03 L 151.94 190.97 C 152.28 191.82 153.23 192.24 154.08 191.91 C 154.93 191.58 155.35 190.62 155.02 189.77 L 154.65 188.83 C 154.32 187.98 153.36 187.56 152.51 187.89 C 151.66 188.23 151.24 189.18 151.58 190.03 Z M 151.96 191.00 L 152.35 191.94 C 152.70 192.78 153.66 193.17 154.50 192.83 C 155.34 192.48 155.74 191.52 155.39 190.68 L 155.00 189.74 C 154.65 188.90 153.69 188.51 152.85 188.85 C 152.01 189.20 151.62 190.16 151.96 191.00 Z M 152.36 191.94 L 152.38 192.00 C 152.73 192.84 153.69 193.23 154.53 192.88 C 155.36 192.53 155.76 191.57 155.41 190.73 L 155.38 190.68 C 155.03 189.84 154.07 189.45 153.24 189.80 C 152.40 190.15 152.01 191.11 152.36 191.94 Z"
      fill="black"
      fill-rule="nonzero" /><path d="M 155.99 168.60 L 156.69 168.01 C 157.45 167.37 157.54 166.23 156.90 165.47 C 156.26 164.71 155.12 164.61 154.36 165.25 L 153.66 165.84 C 152.90 166.48 152.80 167.62 153.44 168.39 C 154.08 169.15 155.22 169.25 155.99 168.60 Z M 156.66 168.05 L 157.40 167.45 C 158.18 166.82 158.30 165.68 157.67 164.90 C 157.05 164.12 155.90 164.00 155.12 164.62 L 154.38 165.22 C 153.60 165.85 153.48 166.99 154.11 167.77 C 154.74 168.55 155.88 168.67 156.66 168.05 Z M 157.34 167.50 L 158.17 166.89 C 158.98 166.29 159.15 165.15 158.55 164.34 C 157.95 163.54 156.81 163.36 156.00 163.96 L 155.18 164.57 C 154.37 165.17 154.20 166.31 154.80 167.12 C 155.39 167.93 156.54 168.10 157.34 167.50 Z M 158.10 166.95 L 159.01 166.34 C 159.85 165.78 160.08 164.65 159.52 163.81 C 158.96 162.97 157.83 162.74 156.99 163.30 L 156.07 163.90 C 155.23 164.46 155.00 165.60 155.56 166.44 C 156.12 167.28 157.26 167.51 158.10 166.95 Z M 158.95 166.39 L 159.78 165.88 C 160.65 165.36 160.93 164.24 160.40 163.37 C 159.88 162.50 158.76 162.23 157.89 162.75 L 157.05 163.25 C 156.19 163.77 155.91 164.90 156.43 165.77 C 156.95 166.63 158.08 166.91 158.95 166.39 Z M 159.73 165.91 L 160.62 165.41 C 161.51 164.92 161.82 163.80 161.33 162.92 C 160.83 162.04 159.71 161.72 158.83 162.22 L 157.94 162.72 C 157.06 163.21 156.74 164.33 157.24 165.21 C 157.73 166.09 158.85 166.41 159.73 165.91 Z M 160.58 165.44 L 161.50 164.96 C 162.39 164.49 162.74 163.38 162.27 162.48 C 161.80 161.59 160.69 161.24 159.79 161.71 L 158.88 162.19 C 157.98 162.66 157.64 163.77 158.11 164.67 C 158.58 165.56 159.68 165.91 160.58 165.44 Z M 161.45 164.98 L 162.36 164.53 C 163.27 164.09 163.64 162.99 163.20 162.08 C 162.75 161.17 161.65 160.80 160.74 161.25 L 159.84 161.69 C 158.93 162.14 158.55 163.23 159.00 164.14 C 159.45 165.05 160.54 165.42 161.45 164.98 Z M 162.31 164.56 L 163.22 164.14 C 164.14 163.72 164.55 162.64 164.13 161.72 C 163.72 160.80 162.63 160.39 161.71 160.81 L 160.79 161.22 C 159.87 161.64 159.47 162.73 159.88 163.65 C 160.30 164.57 161.39 164.98 162.31 164.56 Z M 163.16 164.17 L 164.16 163.76 C 165.10 163.38 165.55 162.31 165.17 161.37 C 164.79 160.44 163.72 159.99 162.78 160.37 L 161.78 160.78 C 160.84 161.16 160.39 162.23 160.77 163.16 C 161.15 164.10 162.22 164.55 163.16 164.17 Z M 164.08 163.79 L 165.02 163.47 C 165.97 163.13 166.47 162.08 166.14 161.13 C 165.80 160.17 164.76 159.67 163.80 160.01 L 162.87 160.34 C 161.91 160.67 161.41 161.72 161.74 162.67 C 162.08 163.63 163.13 164.13 164.08 163.79 Z M 164.93 163.49 L 165.83 163.22 C 166.80 162.93 167.35 161.91 167.06 160.94 C 166.77 159.97 165.75 159.42 164.78 159.71 L 163.88 159.98 C 162.91 160.27 162.36 161.29 162.65 162.26 C 162.94 163.23 163.96 163.78 164.93 163.49 Z M 165.76 163.25 L 166.67 163.01 C 167.65 162.76 168.25 161.76 168.00 160.78 C 167.75 159.80 166.75 159.21 165.77 159.46 L 164.85 159.69 C 163.87 159.94 163.28 160.94 163.53 161.92 C 163.78 162.90 164.78 163.50 165.76 163.25 Z M 166.61 163.03 L 167.58 162.82 C 168.57 162.60 169.20 161.62 168.99 160.63 C 168.77 159.64 167.79 159.01 166.80 159.23 L 165.83 159.44 C 164.84 159.66 164.21 160.63 164.43 161.62 C 164.64 162.61 165.62 163.24 166.61 163.03 Z M 167.52 162.83 L 168.51 162.65 C 169.50 162.47 170.17 161.52 169.99 160.52 C 169.81 159.52 168.85 158.86 167.86 159.04 L 166.87 159.22 C 165.87 159.40 165.21 160.35 165.39 161.35 C 165.57 162.34 166.52 163.01 167.52 162.83 Z M 168.44 162.66 L 169.43 162.52 C 170.43 162.38 171.13 161.45 170.99 160.45 C 170.85 159.45 169.92 158.75 168.92 158.89 L 167.92 159.03 C 166.92 159.17 166.22 160.10 166.36 161.10 C 166.50 162.10 167.43 162.80 168.44 162.66 Z M 169.36 162.53 L 170.36 162.43 C 171.37 162.33 172.11 161.43 172.01 160.42 C 171.91 159.41 171.01 158.68 170.00 158.78 L 168.99 158.88 C 167.98 158.98 167.25 159.88 167.35 160.89 C 167.45 161.90 168.35 162.63 169.36 162.53 Z M 170.29 162.44 L 171.29 162.38 C 172.31 162.32 173.08 161.45 173.02 160.44 C 172.96 159.43 172.09 158.65 171.08 158.71 L 170.07 158.77 C 169.06 158.83 168.29 159.70 168.35 160.71 C 168.41 161.72 169.28 162.50 170.29 162.44 Z M 171.22 162.38 L 172.21 162.36 C 173.23 162.35 174.04 161.51 174.02 160.50 C 174.00 159.48 173.17 158.68 172.15 158.69 L 171.16 158.71 C 170.14 158.73 169.33 159.56 169.35 160.58 C 169.37 161.59 170.20 162.40 171.22 162.38 Z M 172.13 162.36 L 173.12 162.39 C 174.14 162.42 174.98 161.62 175.01 160.60 C 175.03 159.59 174.23 158.75 173.22 158.72 L 172.23 158.69 C 171.22 158.67 170.37 159.47 170.35 160.48 C 170.32 161.49 171.12 162.34 172.13 162.36 Z M 173.02 162.38 L 174.02 162.47 C 175.03 162.55 175.92 161.80 176.00 160.79 C 176.09 159.78 175.34 158.89 174.33 158.81 L 173.33 158.72 C 172.31 158.64 171.43 159.39 171.34 160.40 C 171.26 161.41 172.01 162.30 173.02 162.38 Z M 173.85 162.45 L 174.82 162.62 C 175.82 162.80 176.78 162.14 176.96 161.14 C 177.14 160.15 176.48 159.19 175.48 159.01 L 174.50 158.83 C 173.50 158.65 172.55 159.31 172.37 160.31 C 172.19 161.31 172.85 162.26 173.85 162.45 Z M 174.58 162.56 L 175.53 162.87 C 176.49 163.18 177.53 162.66 177.84 161.69 C 178.15 160.73 177.63 159.69 176.66 159.38 L 175.72 159.07 C 174.75 158.76 173.72 159.28 173.40 160.25 C 173.09 161.21 173.62 162.25 174.58 162.56 Z M 175.26 162.76 L 176.10 163.19 C 177.01 163.65 178.11 163.29 178.57 162.38 C 179.03 161.48 178.67 160.37 177.77 159.91 L 176.93 159.49 C 176.02 159.03 174.92 159.39 174.46 160.29 C 174.00 161.19 174.36 162.30 175.26 162.76 Z M 175.89 163.06 L 176.69 163.62 C 177.53 164.19 178.67 163.98 179.25 163.15 C 179.82 162.32 179.62 161.17 178.78 160.60 L 177.98 160.04 C 177.15 159.47 176.00 159.67 175.43 160.51 C 174.85 161.34 175.06 162.48 175.89 163.06 Z M 176.53 163.49 L 177.31 164.16 C 178.07 164.83 179.23 164.74 179.89 163.98 C 180.56 163.21 180.48 162.05 179.71 161.39 L 178.94 160.72 C 178.17 160.06 177.02 160.14 176.35 160.90 C 175.69 161.67 175.77 162.83 176.53 163.49 Z M 177.19 164.05 L 177.92 164.81 C 178.62 165.53 179.78 165.55 180.51 164.85 C 181.24 164.15 181.26 162.98 180.56 162.26 L 179.83 161.50 C 179.12 160.77 177.96 160.75 177.23 161.46 C 176.51 162.16 176.49 163.32 177.19 164.05 Z M 177.84 164.71 L 178.45 165.44 C 179.11 166.22 180.26 166.32 181.04 165.66 C 181.81 165.01 181.91 163.86 181.26 163.08 L 180.64 162.35 C 179.99 161.58 178.83 161.48 178.06 162.13 C 177.28 162.78 177.18 163.94 177.84 164.71 Z M 178.39 165.36 L 178.98 166.15 C 179.59 166.96 180.73 167.13 181.54 166.52 C 182.35 165.91 182.52 164.77 181.91 163.96 L 181.32 163.17 C 180.72 162.36 179.57 162.19 178.76 162.80 C 177.95 163.40 177.78 164.55 178.39 165.36 Z M 178.92 166.07 L 179.49 166.91 C 180.05 167.75 181.18 167.98 182.02 167.42 C 182.87 166.86 183.09 165.72 182.53 164.88 L 181.97 164.04 C 181.41 163.20 180.27 162.97 179.43 163.53 C 178.59 164.09 178.36 165.23 178.92 166.07 Z M 179.44 166.83 L 179.97 167.72 C 180.49 168.59 181.61 168.88 182.48 168.36 C 183.34 167.84 183.63 166.72 183.11 165.86 L 182.58 164.96 C 182.06 164.10 180.94 163.81 180.08 164.33 C 179.21 164.84 178.92 165.96 179.44 166.83 Z M 179.93 167.65 L 180.39 168.52 C 180.87 169.41 181.97 169.75 182.86 169.27 C 183.75 168.80 184.09 167.69 183.62 166.80 L 183.15 165.93 C 182.68 165.04 181.57 164.71 180.68 165.18 C 179.79 165.65 179.46 166.76 179.93 167.65 Z M 180.36 168.45 L 180.79 169.34 C 181.22 170.24 182.31 170.63 183.22 170.19 C 184.13 169.76 184.51 168.67 184.07 167.76 L 183.65 166.87 C 183.21 165.97 182.12 165.58 181.22 166.02 C 180.31 166.45 179.93 167.54 180.36 168.45 Z M 180.76 169.27 L 181.16 170.19 C 181.56 171.11 182.63 171.54 183.55 171.14 C 184.48 170.74 184.90 169.66 184.50 168.74 L 184.10 167.82 C 183.70 166.90 182.63 166.48 181.71 166.88 C 180.78 167.28 180.36 168.35 180.76 169.27 Z M 181.14 170.13 L 181.51 171.08 C 181.88 172.01 182.94 172.47 183.87 172.10 C 184.80 171.73 185.26 170.68 184.89 169.74 L 184.52 168.80 C 184.15 167.87 183.10 167.41 182.16 167.78 C 181.23 168.15 180.77 169.20 181.14 170.13 Z M 181.50 171.03 L 181.84 171.99 C 182.18 172.93 183.22 173.41 184.16 173.08 C 185.10 172.74 185.59 171.70 185.25 170.76 L 184.91 169.80 C 184.57 168.85 183.53 168.37 182.59 168.71 C 181.65 169.05 181.16 170.08 181.50 171.03 Z M 181.83 171.94 L 182.14 172.88 C 182.45 173.82 183.48 174.34 184.43 174.03 C 185.37 173.71 185.89 172.69 185.57 171.74 L 185.26 170.80 C 184.95 169.86 183.93 169.34 182.98 169.65 C 182.03 169.97 181.52 170.99 181.83 171.94 Z M 182.13 172.84 L 182.42 173.79 C 182.71 174.74 183.72 175.28 184.68 174.99 C 185.63 174.70 186.16 173.69 185.87 172.73 L 185.58 171.78 C 185.29 170.83 184.28 170.29 183.33 170.58 C 182.38 170.87 181.84 171.88 182.13 172.84 Z M 182.42 173.75 L 182.69 174.72 C 182.96 175.67 183.96 176.23 184.91 175.96 C 185.87 175.68 186.42 174.69 186.15 173.73 L 185.88 172.77 C 185.61 171.81 184.61 171.26 183.66 171.53 C 182.70 171.80 182.15 172.80 182.42 173.75 Z M 182.69 174.69 L 182.95 175.66 C 183.20 176.62 184.18 177.19 185.14 176.93 C 186.10 176.68 186.67 175.70 186.41 174.74 L 186.16 173.76 C 185.90 172.81 184.92 172.24 183.96 172.49 C 183.00 172.75 182.43 173.73 182.69 174.69 Z M 182.95 175.63 L 183.19 176.61 C 183.43 177.56 184.40 178.15 185.36 177.91 C 186.32 177.67 186.90 176.69 186.66 175.74 L 186.42 174.76 C 186.18 173.80 185.20 173.22 184.25 173.46 C 183.29 173.70 182.71 174.68 182.95 175.63 Z M 183.19 176.58 L 183.41 177.52 C 183.64 178.48 184.60 179.07 185.56 178.84 C 186.52 178.62 187.11 177.66 186.88 176.70 L 186.66 175.76 C 186.43 174.80 185.47 174.21 184.51 174.44 C 183.56 174.66 182.96 175.62 183.19 176.58 Z M 183.41 177.49 L 183.62 178.44 C 183.83 179.40 184.78 180.01 185.74 179.80 C 186.69 179.59 187.30 178.64 187.09 177.68 L 186.88 176.73 C 186.67 175.77 185.72 175.17 184.77 175.38 C 183.81 175.59 183.20 176.53 183.41 177.49 Z M 183.62 178.41 L 183.82 179.38 C 184.01 180.34 184.94 180.96 185.89 180.77 C 186.85 180.58 187.47 179.65 187.28 178.69 L 187.09 177.72 C 186.90 176.76 185.97 176.14 185.01 176.33 C 184.06 176.52 183.43 177.45 183.62 178.41 Z M 183.82 179.34 L 183.99 180.34 C 184.16 181.30 185.07 181.94 186.03 181.77 C 186.98 181.61 187.62 180.70 187.46 179.74 L 187.28 178.74 C 187.12 177.78 186.21 177.14 185.25 177.31 C 184.29 177.47 183.65 178.38 183.82 179.34 Z M 183.99 180.30 L 184.15 181.34 C 184.29 182.29 185.17 182.95 186.13 182.81 C 187.09 182.67 187.75 181.79 187.61 180.83 L 187.46 179.79 C 187.32 178.83 186.43 178.17 185.47 178.31 C 184.51 178.45 183.85 179.34 183.99 180.30 Z M 184.15 181.29 L 184.27 182.28 C 184.38 183.24 185.25 183.92 186.20 183.80 C 187.16 183.69 187.84 182.82 187.73 181.86 L 187.61 180.87 C 187.49 179.92 186.62 179.24 185.67 179.35 C 184.71 179.47 184.03 180.34 184.15 181.29 Z M 184.27 182.24 L 184.37 183.25 C 184.46 184.21 185.31 184.90 186.27 184.81 C 187.22 184.71 187.91 183.87 187.82 182.91 L 187.72 181.90 C 187.63 180.95 186.78 180.25 185.83 180.35 C 184.87 180.44 184.18 181.29 184.27 182.24 Z M 184.38 183.22 L 184.46 184.24 C 184.53 185.19 185.37 185.90 186.32 185.82 C 187.26 185.74 187.97 184.91 187.90 183.96 L 187.81 182.94 C 187.74 182.00 186.91 181.29 185.96 181.36 C 185.01 181.44 184.30 182.27 184.38 183.22 Z M 184.47 184.21 L 184.53 185.22 C 184.59 186.17 185.41 186.88 186.35 186.82 C 187.30 186.76 188.02 185.94 187.96 185.00 L 187.89 183.99 C 187.83 183.04 187.01 182.33 186.07 182.39 C 185.12 182.45 184.40 183.27 184.47 184.21 Z M 184.54 185.20 L 184.59 186.18 C 184.64 187.12 185.44 187.85 186.38 187.80 C 187.32 187.75 188.05 186.95 188.00 186.01 L 187.95 185.02 C 187.90 184.08 187.10 183.36 186.16 183.40 C 185.21 183.45 184.49 184.26 184.54 185.20 Z M 184.60 186.16 L 184.64 187.18 C 184.67 188.12 185.46 188.85 186.40 188.82 C 187.34 188.78 188.07 187.99 188.03 187.05 L 187.99 186.03 C 187.95 185.09 187.16 184.36 186.23 184.40 C 185.29 184.43 184.56 185.22 184.60 186.16 Z M 184.65 187.15 L 184.67 188.26 C 184.69 189.19 185.46 189.93 186.39 189.92 C 187.32 189.90 188.06 189.13 188.04 188.20 L 188.02 187.09 C 188.00 186.15 187.23 185.41 186.30 185.43 C 185.37 185.45 184.63 186.22 184.65 187.15 Z M 184.68 188.20 L 184.66 189.23 C 184.65 190.16 185.39 190.92 186.31 190.93 C 187.23 190.95 188.00 190.21 188.01 189.29 L 188.03 188.26 C 188.04 187.33 187.31 186.57 186.38 186.56 C 185.46 186.54 184.70 187.28 184.68 188.20 Z M 184.68 189.14 L 184.61 190.09 C 184.54 191.00 185.23 191.80 186.14 191.86 C 187.06 191.93 187.86 191.25 187.92 190.33 L 187.99 189.38 C 188.06 188.47 187.38 187.67 186.46 187.60 C 185.55 187.54 184.75 188.22 184.68 189.14 Z M 184.64 189.95 L 184.50 190.81 C 184.36 191.71 184.97 192.56 185.87 192.70 C 186.77 192.85 187.61 192.23 187.76 191.33 L 187.89 190.47 C 188.04 189.57 187.43 188.73 186.53 188.58 C 185.63 188.44 184.78 189.05 184.64 189.95 Z M 184.56 190.61 L 184.27 191.59 C 184.01 192.46 184.51 193.37 185.38 193.63 C 186.25 193.88 187.16 193.39 187.41 192.52 L 187.70 191.54 C 187.96 190.67 187.46 189.76 186.59 189.50 C 185.72 189.25 184.81 189.74 184.56 190.61 Z M 184.35 191.38 L 183.94 192.29 C 183.57 193.12 183.94 194.09 184.76 194.46 C 185.59 194.83 186.56 194.46 186.93 193.64 L 187.34 192.72 C 187.71 191.90 187.34 190.93 186.51 190.56 C 185.69 190.19 184.72 190.56 184.35 191.38 Z M 184.01 192.16 L 183.53 193.00 C 183.08 193.79 183.36 194.79 184.15 195.23 C 184.93 195.68 185.93 195.40 186.38 194.62 L 186.86 193.77 C 187.30 192.99 187.03 191.99 186.24 191.54 C 185.45 191.10 184.45 191.37 184.01 192.16 Z M 183.56 192.95 L 183.27 193.43 C 182.79 194.20 183.03 195.21 183.81 195.68 C 184.58 196.15 185.58 195.91 186.06 195.14 L 186.35 194.67 C 186.82 193.90 186.58 192.89 185.81 192.41 C 185.04 191.94 184.03 192.18 183.56 192.95 Z"
      fill="black"
      fill-rule="nonzero" /><path d="M 159.10 182.48 L 159.94 182.04 C 160.82 181.59 161.17 180.50 160.71 179.62 C 160.25 178.74 159.17 178.40 158.29 178.85 L 157.45 179.29 C 156.57 179.75 156.22 180.83 156.68 181.71 C 157.13 182.59 158.22 182.94 159.10 182.48 Z M 159.91 182.08 L 160.79 181.65 C 161.69 181.22 162.07 180.13 161.63 179.23 C 161.19 178.33 160.11 177.95 159.21 178.39 L 158.33 178.82 C 157.43 179.25 157.05 180.34 157.49 181.24 C 157.92 182.14 159.01 182.52 159.91 182.08 Z M 160.71 181.70 L 161.67 181.30 C 162.60 180.90 163.03 179.83 162.64 178.90 C 162.24 177.97 161.17 177.54 160.24 177.93 L 159.28 178.34 C 158.35 178.73 157.92 179.81 158.31 180.74 C 158.71 181.67 159.78 182.10 160.71 181.70 Z M 161.57 181.34 L 162.43 181.03 C 163.38 180.69 163.88 179.64 163.54 178.69 C 163.19 177.74 162.14 177.24 161.19 177.58 L 160.33 177.89 C 159.38 178.23 158.89 179.28 159.23 180.23 C 159.57 181.19 160.62 181.68 161.57 181.34 Z M 162.35 181.04 L 163.19 180.78 C 164.15 180.48 164.69 179.47 164.39 178.51 C 164.09 177.55 163.08 177.01 162.12 177.31 L 161.27 177.57 C 160.31 177.87 159.78 178.89 160.08 179.85 C 160.37 180.80 161.39 181.34 162.35 181.04 Z M 163.14 180.77 L 164.08 180.51 C 165.03 180.24 165.59 179.25 165.32 178.30 C 165.06 177.35 164.07 176.79 163.11 177.06 L 162.17 177.32 C 161.22 177.58 160.66 178.57 160.93 179.53 C 161.20 180.48 162.19 181.04 163.14 180.77 Z M 164.04 180.50 L 165.09 180.22 C 166.04 179.98 166.60 179.01 166.36 178.06 C 166.11 177.12 165.14 176.55 164.20 176.80 L 163.15 177.07 C 162.20 177.32 161.63 178.28 161.88 179.23 C 162.13 180.18 163.10 180.74 164.04 180.50 Z M 165.07 180.21 L 166.20 179.92 C 167.14 179.69 167.70 178.74 167.47 177.80 C 167.23 176.86 166.28 176.29 165.34 176.53 L 164.22 176.81 C 163.28 177.05 162.71 178.00 162.95 178.94 C 163.18 179.87 164.13 180.44 165.07 180.21 Z M 166.19 179.91 L 167.11 179.68 C 168.04 179.45 168.61 178.51 168.38 177.58 C 168.15 176.65 167.21 176.08 166.28 176.31 L 165.35 176.54 C 164.42 176.77 163.86 177.72 164.09 178.64 C 164.32 179.57 165.26 180.14 166.19 179.91 Z M 167.11 179.67 L 168.08 179.43 C 169.01 179.20 169.57 178.26 169.34 177.34 C 169.11 176.42 168.18 175.85 167.26 176.08 L 166.28 176.32 C 165.36 176.55 164.79 177.49 165.02 178.41 C 165.25 179.33 166.19 179.90 167.11 179.67 Z M 168.08 179.42 L 169.08 179.17 C 170.00 178.95 170.56 178.02 170.33 177.10 C 170.11 176.18 169.18 175.62 168.26 175.84 L 167.26 176.09 C 166.34 176.32 165.78 177.25 166.01 178.16 C 166.23 179.08 167.16 179.64 168.08 179.42 Z M 169.08 179.16 L 170.08 178.92 C 170.99 178.69 171.55 177.77 171.33 176.86 C 171.11 175.94 170.18 175.38 169.27 175.61 L 168.26 175.85 C 167.35 176.08 166.79 177.00 167.02 177.91 C 167.24 178.83 168.16 179.39 169.08 179.16 Z M 170.08 178.91 L 171.07 178.67 C 171.98 178.44 172.53 177.53 172.31 176.62 C 172.09 175.71 171.17 175.15 170.26 175.38 L 169.28 175.62 C 168.37 175.84 167.81 176.75 168.03 177.66 C 168.25 178.57 169.17 179.13 170.08 178.91 Z M 171.06 178.66 L 172.01 178.43 C 172.92 178.21 173.47 177.30 173.25 176.39 C 173.03 175.49 172.12 174.94 171.22 175.15 L 170.27 175.39 C 169.37 175.60 168.81 176.51 169.03 177.42 C 169.25 178.32 170.16 178.88 171.06 178.66 Z M 172.01 178.42 L 173.12 178.15 C 174.02 177.93 174.57 177.03 174.35 176.13 C 174.14 175.23 173.23 174.68 172.33 174.90 L 171.23 175.16 C 170.33 175.38 169.77 176.28 169.99 177.18 C 170.21 178.08 171.11 178.63 172.01 178.42 Z M 173.11 178.14 L 174.17 177.89 C 175.06 177.68 175.62 176.79 175.40 175.89 C 175.19 175.00 174.30 174.44 173.40 174.65 L 172.34 174.90 C 171.45 175.11 170.89 176.01 171.10 176.91 C 171.32 177.80 172.21 178.36 173.11 178.14 Z M 174.15 177.89 L 175.12 177.67 C 176.02 177.46 176.58 176.58 176.37 175.68 C 176.17 174.79 175.28 174.23 174.39 174.44 L 173.42 174.66 C 172.52 174.86 171.96 175.75 172.17 176.64 C 172.37 177.53 173.26 178.09 174.15 177.89 Z M 175.10 177.66 L 176.00 177.47 C 176.89 177.28 177.46 176.40 177.27 175.51 C 177.08 174.62 176.20 174.05 175.31 174.25 L 174.41 174.44 C 173.52 174.63 172.95 175.51 173.14 176.40 C 173.34 177.29 174.21 177.86 175.10 177.66 Z M 175.97 177.47 L 176.81 177.30 C 177.70 177.13 178.28 176.26 178.10 175.38 C 177.92 174.49 177.06 173.91 176.17 174.08 L 175.34 174.25 C 174.45 174.42 173.87 175.29 174.04 176.18 C 174.22 177.07 175.08 177.64 175.97 177.47 Z M 176.77 177.31 L 177.82 177.13 C 178.71 176.97 179.31 176.13 179.16 175.23 C 179.00 174.34 178.16 173.75 177.27 173.90 L 176.21 174.08 C 175.32 174.23 174.72 175.08 174.88 175.97 C 175.03 176.86 175.88 177.46 176.77 177.31 Z M 177.78 177.13 L 178.77 176.99 C 179.67 176.86 180.29 176.03 180.16 175.13 C 180.03 174.24 179.19 173.62 178.30 173.75 L 177.31 173.89 C 176.41 174.02 175.79 174.85 175.92 175.75 C 176.05 176.64 176.89 177.26 177.78 177.13 Z M 178.74 176.99 L 179.69 176.87 C 180.59 176.76 181.22 175.94 181.11 175.04 C 181.00 174.14 180.18 173.51 179.28 173.62 L 178.33 173.74 C 177.43 173.86 176.80 174.68 176.91 175.57 C 177.03 176.47 177.85 177.11 178.74 176.99 Z M 179.68 176.87 L 180.22 176.81 C 181.11 176.70 181.75 175.88 181.65 174.99 C 181.54 174.09 180.72 173.45 179.82 173.56 L 179.29 173.62 C 178.39 173.73 177.75 174.55 177.86 175.44 C 177.97 176.34 178.78 176.98 179.68 176.87 Z"
      fill="black"
      fill-rule="nonzero" /><path d="M 154.69 193.49 L 155.63 193.78 C 156.58 194.07 157.59 193.53 157.88 192.58 C 158.17 191.63 157.64 190.62 156.69 190.33 L 155.75 190.04 C 154.80 189.75 153.79 190.28 153.50 191.24 C 153.20 192.19 153.74 193.20 154.69 193.49 Z M 155.66 193.79 L 156.61 194.06 C 157.57 194.34 158.57 193.78 158.85 192.82 C 159.12 191.86 158.56 190.86 157.60 190.58 L 156.65 190.31 C 155.69 190.04 154.69 190.60 154.42 191.56 C 154.15 192.52 154.70 193.52 155.66 193.79 Z M 156.68 194.09 L 157.65 194.32 C 158.63 194.56 159.61 193.96 159.84 192.99 C 160.08 192.01 159.48 191.03 158.51 190.80 L 157.54 190.56 C 156.56 190.32 155.58 190.92 155.35 191.90 C 155.11 192.87 155.71 193.85 156.68 194.09 Z M 157.75 194.35 L 158.76 194.53 C 159.75 194.71 160.70 194.06 160.88 193.07 C 161.06 192.08 160.40 191.14 159.42 190.95 L 158.41 190.77 C 157.42 190.59 156.47 191.24 156.29 192.23 C 156.11 193.22 156.77 194.17 157.75 194.35 Z M 158.88 194.55 L 159.90 194.66 C 160.89 194.78 161.79 194.06 161.91 193.07 C 162.02 192.07 161.31 191.17 160.31 191.06 L 159.30 190.94 C 158.30 190.83 157.40 191.54 157.28 192.54 C 157.17 193.53 157.88 194.43 158.88 194.55 Z M 159.99 194.66 L 161.02 194.72 C 162.01 194.79 162.87 194.03 162.93 193.04 C 162.99 192.04 162.24 191.19 161.24 191.13 L 160.22 191.06 C 159.22 191.00 158.37 191.75 158.30 192.75 C 158.24 193.74 159.00 194.60 159.99 194.66 Z M 161.08 194.71 L 162.10 194.74 C 163.08 194.77 163.91 193.99 163.93 193.00 C 163.96 192.01 163.18 191.19 162.19 191.16 L 161.18 191.14 C 160.19 191.11 159.37 191.89 159.34 192.88 C 159.32 193.86 160.10 194.69 161.08 194.71 Z M 162.13 194.73 L 163.10 194.73 C 164.08 194.74 164.88 193.95 164.89 192.97 C 164.89 191.99 164.10 191.19 163.12 191.18 L 162.16 191.18 C 161.18 191.17 160.38 191.96 160.37 192.94 C 160.36 193.92 161.15 194.72 162.13 194.73 Z M 163.11 194.71 L 164.15 194.71 C 165.12 194.71 165.90 193.93 165.90 192.96 C 165.90 191.99 165.12 191.20 164.15 191.20 L 163.11 191.20 C 162.14 191.20 161.35 191.99 161.36 192.96 C 161.36 193.93 162.14 194.71 163.11 194.71 Z M 164.16 194.69 L 165.18 194.68 C 166.13 194.67 166.90 193.89 166.89 192.94 C 166.89 191.98 166.11 191.22 165.15 191.22 L 164.14 191.23 C 163.18 191.24 162.41 192.02 162.42 192.97 C 162.43 193.93 163.21 194.69 164.16 194.69 Z M 165.21 194.65 L 166.17 194.63 C 167.10 194.60 167.84 193.82 167.82 192.88 C 167.80 191.95 167.02 191.20 166.08 191.23 L 165.12 191.25 C 164.18 191.28 163.44 192.06 163.47 192.99 C 163.49 193.93 164.27 194.67 165.21 194.65 Z M 166.21 194.60 L 167.16 194.54 C 168.09 194.49 168.79 193.70 168.74 192.78 C 168.69 191.86 167.90 191.15 166.98 191.20 L 166.03 191.26 C 165.11 191.31 164.40 192.10 164.45 193.02 C 164.50 193.94 165.29 194.65 166.21 194.60 Z M 167.22 194.53 L 168.20 194.44 C 169.11 194.36 169.79 193.55 169.71 192.64 C 169.63 191.73 168.82 191.06 167.91 191.14 L 166.93 191.22 C 166.02 191.30 165.34 192.11 165.42 193.02 C 165.50 193.93 166.31 194.61 167.22 194.53 Z M 168.24 194.43 L 169.24 194.32 C 170.15 194.21 170.80 193.39 170.70 192.49 C 170.59 191.58 169.77 190.93 168.87 191.03 L 167.87 191.15 C 166.96 191.25 166.31 192.07 166.41 192.97 C 166.52 193.88 167.34 194.53 168.24 194.43 Z M 169.27 194.31 L 170.28 194.17 C 171.18 194.05 171.81 193.23 171.69 192.32 C 171.57 191.42 170.75 190.79 169.84 190.91 L 168.84 191.04 C 167.94 191.16 167.30 191.99 167.42 192.89 C 167.54 193.79 168.37 194.43 169.27 194.31 Z M 170.30 194.17 L 171.28 194.02 C 172.18 193.89 172.80 193.06 172.67 192.16 C 172.54 191.26 171.71 190.64 170.81 190.77 L 169.82 190.91 C 168.93 191.05 168.31 191.88 168.44 192.78 C 168.57 193.67 169.40 194.30 170.30 194.17 Z M 171.29 194.02 L 172.28 193.87 C 173.17 193.73 173.79 192.89 173.65 192.00 C 173.51 191.10 172.68 190.49 171.78 190.63 L 170.80 190.78 C 169.90 190.91 169.29 191.75 169.42 192.65 C 169.56 193.54 170.40 194.16 171.29 194.02 Z M 172.28 193.87 L 173.28 193.71 C 174.17 193.57 174.78 192.73 174.64 191.84 C 174.50 190.94 173.66 190.33 172.77 190.47 L 171.78 190.63 C 170.88 190.77 170.27 191.61 170.41 192.50 C 170.55 193.39 171.39 194.01 172.28 193.87 Z M 173.28 193.71 L 174.27 193.55 C 175.16 193.41 175.77 192.58 175.63 191.68 C 175.49 190.79 174.65 190.18 173.76 190.32 L 172.77 190.47 C 171.88 190.61 171.27 191.45 171.41 192.34 C 171.55 193.24 172.38 193.85 173.28 193.71 Z M 174.26 193.55 L 175.25 193.40 C 176.15 193.26 176.76 192.42 176.62 191.53 C 176.48 190.64 175.64 190.03 174.75 190.16 L 173.76 190.32 C 172.87 190.46 172.26 191.29 172.40 192.19 C 172.53 193.08 173.37 193.69 174.26 193.55 Z M 175.25 193.40 L 176.24 193.25 C 177.14 193.11 177.75 192.27 177.61 191.38 C 177.47 190.48 176.64 189.87 175.74 190.01 L 174.75 190.16 C 173.86 190.30 173.25 191.14 173.39 192.03 C 173.52 192.93 174.36 193.54 175.25 193.40 Z M 176.25 193.25 L 177.23 193.09 C 178.13 192.95 178.74 192.11 178.60 191.22 C 178.46 190.33 177.62 189.72 176.73 189.86 L 175.74 190.01 C 174.85 190.15 174.24 190.99 174.38 191.88 C 174.52 192.77 175.35 193.38 176.25 193.25 Z M 177.24 193.09 L 178.23 192.93 C 179.12 192.79 179.73 191.95 179.59 191.06 C 179.45 190.17 178.61 189.56 177.72 189.70 L 176.73 189.86 C 175.83 190.00 175.22 190.84 175.36 191.73 C 175.51 192.62 176.34 193.23 177.24 193.09 Z M 178.23 192.93 L 179.22 192.78 C 180.11 192.63 180.72 191.79 180.58 190.90 C 180.44 190.01 179.60 189.40 178.70 189.54 L 177.72 189.70 C 176.82 189.84 176.22 190.68 176.36 191.57 C 176.50 192.47 177.34 193.07 178.23 192.93 Z M 179.22 192.78 L 180.20 192.62 C 181.09 192.48 181.70 191.64 181.56 190.74 C 181.42 189.85 180.58 189.24 179.68 189.39 L 178.70 189.54 C 177.81 189.69 177.20 190.53 177.34 191.42 C 177.49 192.31 178.33 192.92 179.22 192.78 Z M 180.20 192.62 L 180.41 192.59 C 181.30 192.44 181.91 191.60 181.77 190.71 C 181.63 189.82 180.79 189.21 179.89 189.35 L 179.68 189.39 C 178.79 189.53 178.18 190.37 178.33 191.26 C 178.47 192.15 179.31 192.76 180.20 192.62 Z"
      fill="black"
      fill-rule="nonzero" /></svg>