<svg xmlns="http://www.w3.org/2000/svg" width="300" height="300" viewBox="0 0 300 300">
<path d="M 130.59 125.70 L 130.73 126.71 C 130.88 127.72 131.81 128.41 132.82 128.27 C 133.83 128.12 134.53 127.19 134.38 126.18 L 134.23 125.17 C 134.09 124.16 133.15 123.46 132.15 123.61 C 131.14 123.76 130.44 124.69 130.59 125.70 Z M 130.73 126.67 L 130.86 127.67 C 130.98 128.68 131.90 129.40 132.91 129.27 C 133.92 129.14 134.63 128.22 134.50 127.22 L 134.38 126.22 C 134.25 125.21 133.33 124.49 132.33 124.62 C 131.32 124.75 130.61 125.67 130.73 126.67 Z M 130.86 127.60 L 130.94 128.58 C 131.03 129.59 131.91 130.34 132.92 130.26 C 133.93 130.17 134.68 129.28 134.59 128.27 L 134.51 127.29 C 134.42 126.28 133.53 125.53 132.53 125.62 C 131.52 125.71 130.77 126.59 130.86 127.60 Z M 130.94 128.47 L 130.96 129.41 C 130.98 130.42 131.82 131.21 132.83 131.19 C 133.84 131.17 134.64 130.33 134.61 129.32 L 134.59 128.39 C 134.57 127.38 133.73 126.58 132.72 126.60 C 131.71 126.63 130.91 127.46 130.94 128.47 Z M 130.96 129.29 L 130.93 130.20 C 130.88 131.20 131.67 132.05 132.68 132.10 C 133.68 132.14 134.53 131.35 134.57 130.35 L 134.61 129.44 C 134.65 128.43 133.87 127.58 132.86 127.54 C 131.85 127.50 131.00 128.28 130.96 129.29 Z M 130.93 130.13 L 130.85 131.10 C 130.77 132.10 131.52 132.98 132.53 133.06 C 133.53 133.14 134.41 132.39 134.49 131.39 L 134.57 130.42 C 134.65 129.41 133.90 128.53 132.89 128.45 C 131.89 128.37 131.01 129.12 130.93 130.13 Z M 130.85 131.08 L 130.75 132.17 C 130.66 133.18 131.40 134.07 132.41 134.16 C 133.41 134.25 134.30 133.51 134.39 132.50 L 134.49 131.41 C 134.58 130.40 133.84 129.51 132.84 129.42 C 131.83 129.33 130.94 130.07 130.85 131.08 Z M 130.75 132.19 L 130.67 133.11 C 130.59 134.12 131.34 135.00 132.34 135.09 C 133.35 135.17 134.23 134.43 134.31 133.42 L 134.39 132.49 C 134.48 131.49 133.73 130.60 132.73 130.52 C 131.72 130.43 130.84 131.18 130.75 132.19 Z M 130.67 133.13 L 130.61 134.01 C 130.53 135.02 131.29 135.89 132.29 135.97 C 133.30 136.04 134.17 135.29 134.25 134.28 L 134.31 133.40 C 134.39 132.40 133.64 131.52 132.63 131.45 C 131.62 131.37 130.75 132.13 130.67 133.13 Z M 130.61 134.03 L 130.55 134.99 C 130.48 135.99 131.24 136.86 132.25 136.92 C 133.25 136.99 134.12 136.23 134.19 135.22 L 134.25 134.27 C 134.31 133.26 133.55 132.39 132.55 132.33 C 131.54 132.26 130.67 133.02 130.61 134.03 Z M 130.55 135.00 L 130.49 136.03 C 130.43 137.03 131.20 137.89 132.21 137.95 C 133.21 138.00 134.07 137.23 134.13 136.23 L 134.19 135.21 C 134.24 134.20 133.47 133.34 132.47 133.29 C 131.46 133.23 130.60 134.00 130.55 135.00 Z M 130.49 136.04 L 130.44 137.13 C 130.39 138.13 131.17 138.99 132.17 139.03 C 133.18 139.08 134.03 138.30 134.08 137.30 L 134.13 136.21 C 134.17 135.21 133.40 134.36 132.39 134.31 C 131.39 134.26 130.54 135.04 130.49 136.04 Z M 130.44 137.15 L 130.40 138.29 C 130.36 139.29 131.15 140.14 132.15 140.17 C 133.16 140.21 134.00 139.42 134.04 138.42 L 134.08 137.28 C 134.11 136.27 133.33 135.43 132.32 135.39 C 131.32 135.36 130.48 136.14 130.44 137.15 Z M 130.40 138.31 L 130.38 139.32 C 130.35 140.33 131.14 141.16 132.14 141.19 C 133.15 141.21 133.98 140.42 134.01 139.42 L 134.03 138.40 C 134.06 137.40 133.27 136.57 132.27 136.54 C 131.26 136.51 130.43 137.30 130.40 138.31 Z M 130.38 139.34 L 130.36 140.34 C 130.35 141.34 131.14 142.16 132.14 142.18 C 133.14 142.20 133.96 141.40 133.98 140.41 L 134.00 139.41 C 134.02 138.41 133.22 137.58 132.22 137.56 C 131.23 137.54 130.40 138.34 130.38 139.34 Z M 130.37 140.35 L 130.36 141.37 C 130.35 142.36 131.14 143.18 132.14 143.19 C 133.13 143.20 133.95 142.41 133.96 141.41 L 133.97 140.40 C 133.99 139.40 133.19 138.58 132.20 138.57 C 131.20 138.56 130.38 139.35 130.37 140.35 Z M 130.37 141.37 L 130.36 142.40 C 130.35 143.39 131.15 144.20 132.14 144.20 C 133.13 144.21 133.94 143.41 133.95 142.42 L 133.95 141.40 C 133.96 140.41 133.16 139.60 132.17 139.59 C 131.18 139.59 130.37 140.38 130.37 141.37 Z M 130.36 142.40 L 130.36 143.42 C 130.36 144.41 131.15 145.21 132.14 145.21 C 133.13 145.22 133.93 144.42 133.93 143.43 L 133.94 142.42 C 133.94 141.43 133.15 140.63 132.16 140.62 C 131.17 140.62 130.37 141.41 130.36 142.40 Z M 130.37 143.42 L 130.37 144.43 C 130.36 145.41 131.16 146.21 132.14 146.21 C 133.12 146.21 133.92 145.42 133.92 144.43 L 133.93 143.43 C 133.93 142.45 133.13 141.65 132.15 141.65 C 131.17 141.64 130.37 142.44 130.37 143.42 Z M 130.37 144.43 L 130.37 145.41 C 130.37 146.38 131.16 147.18 132.14 147.18 C 133.12 147.18 133.92 146.39 133.92 145.41 L 133.92 144.43 C 133.92 143.45 133.12 142.66 132.15 142.66 C 131.17 142.66 130.37 143.45 130.37 144.43 Z M 130.38 145.41 L 130.38 146.45 C 130.38 147.43 131.17 148.22 132.14 148.22 C 133.12 148.22 133.91 147.43 133.91 146.45 L 133.91 145.41 C 133.91 144.43 133.12 143.64 132.14 143.64 C 131.17 143.64 130.38 144.43 130.38 145.41 Z M 130.39 146.45 L 130.39 147.53 C 130.39 148.49 131.18 149.28 132.14 149.28 C 133.11 149.28 133.90 148.49 133.90 147.53 L 133.90 146.45 C 133.90 145.49 133.11 144.70 132.14 144.70 C 131.18 144.70 130.39 145.49 130.39 146.45 Z M 130.40 147.53 L 130.40 148.55 C 130.40 149.52 131.18 150.29 132.14 150.29 C 133.11 150.29 133.88 149.52 133.88 148.55 L 133.88 147.53 C 133.88 146.57 133.11 145.79 132.14 145.79 C 131.18 145.79 130.40 146.57 130.40 147.53 Z M 130.42 148.55 L 130.42 149.54 C 130.42 150.50 131.19 151.27 132.14 151.27 C 133.10 151.27 133.87 150.50 133.87 149.54 L 133.87 148.55 C 133.87 147.60 133.10 146.83 132.14 146.83 C 131.19 146.83 130.42 147.60 130.42 148.55 Z M 130.43 149.54 L 130.43 150.50 C 130.43 151.45 131.20 152.21 132.14 152.21 C 133.09 152.21 133.86 151.45 133.86 150.50 L 133.86 149.54 C 133.86 148.60 133.09 147.83 132.14 147.83 C 131.20 147.83 130.43 148.60 130.43 149.54 Z M 130.44 150.50 L 130.44 151.43 C 130.44 152.37 131.20 153.13 132.14 153.13 C 133.08 153.13 133.85 152.37 133.85 151.43 L 133.85 150.50 C 133.85 149.56 133.08 148.80 132.14 148.80 C 131.20 148.80 130.44 149.56 130.44 150.50 Z M 130.45 151.43 L 130.45 152.38 C 130.45 153.31 131.21 154.07 132.14 154.07 C 133.08 154.07 133.84 153.31 133.84 152.38 L 133.84 151.43 C 133.84 150.50 133.08 149.74 132.14 149.74 C 131.21 149.74 130.45 150.50 130.45 151.43 Z M 130.46 152.38 L 130.46 153.35 C 130.46 154.28 131.21 155.03 132.14 155.03 C 133.07 155.03 133.83 154.28 133.83 153.35 L 133.83 152.38 C 133.83 151.45 133.07 150.69 132.14 150.69 C 131.21 150.69 130.46 151.45 130.46 152.38 Z M 130.47 153.35 L 130.47 154.32 C 130.47 155.25 131.22 156.00 132.14 156.00 C 133.07 156.00 133.82 155.25 133.82 154.32 L 133.82 153.35 C 133.82 152.42 133.07 151.67 132.14 151.67 C 131.22 151.67 130.47 152.42 130.47 153.35 Z M 130.47 154.32 L 130.47 155.31 C 130.47 156.23 131.22 156.98 132.14 156.98 C 133.07 156.98 133.81 156.23 133.81 155.31 L 133.81 154.32 C 133.81 153.40 133.07 152.65 132.14 152.65 C 131.22 152.65 130.47 153.40 130.47 154.32 Z M 130.48 155.31 L 130.48 156.32 C 130.48 157.24 131.23 157.99 132.14 157.99 C 133.06 157.99 133.81 157.24 133.81 156.32 L 133.81 155.31 C 133.81 154.39 133.06 153.64 132.14 153.64 C 131.23 153.64 130.48 154.39 130.48 155.31 Z M 130.49 156.32 L 130.49 157.38 C 130.49 158.30 131.23 159.04 132.14 159.04 C 133.06 159.04 133.80 158.30 133.80 157.38 L 133.80 156.32 C 133.80 155.41 133.06 154.67 132.14 154.67 C 131.23 154.67 130.49 155.41 130.49 156.32 Z M 130.49 157.38 L 130.49 158.38 C 130.49 159.30 131.23 160.04 132.14 160.04 C 133.06 160.04 133.80 159.30 133.80 158.38 L 133.80 157.38 C 133.80 156.47 133.06 155.73 132.14 155.73 C 131.23 155.73 130.49 156.47 130.49 157.38 Z M 130.49 158.38 L 130.49 159.40 C 130.49 160.31 131.23 161.05 132.14 161.06 C 133.05 161.06 133.79 160.32 133.79 159.41 L 133.79 158.39 C 133.80 157.48 133.06 156.74 132.15 156.73 C 131.24 156.73 130.50 157.47 130.49 158.38 Z M 130.50 159.40 L 130.49 160.43 C 130.49 161.34 131.22 162.08 132.13 162.09 C 133.04 162.09 133.78 161.36 133.78 160.45 L 133.79 159.41 C 133.79 158.50 133.06 157.76 132.15 157.76 C 131.24 157.76 130.50 158.49 130.50 159.40 Z M 130.49 160.42 L 130.48 161.45 C 130.47 162.36 131.20 163.10 132.11 163.11 C 133.02 163.12 133.76 162.39 133.77 161.48 L 133.78 160.46 C 133.79 159.55 133.06 158.80 132.15 158.80 C 131.24 158.79 130.50 159.52 130.49 160.42 Z M 130.49 161.44 L 130.47 162.44 C 130.46 163.34 131.18 164.09 132.09 164.11 C 132.99 164.12 133.74 163.40 133.75 162.49 L 133.77 161.49 C 133.78 160.59 133.06 159.84 132.15 159.82 C 131.25 159.81 130.50 160.53 130.49 161.44 Z M 130.47 162.42 L 130.45 163.37 C 130.43 164.28 131.14 165.03 132.05 165.05 C 132.95 165.08 133.70 164.36 133.73 163.46 L 133.75 162.51 C 133.77 161.60 133.06 160.85 132.15 160.83 C 131.25 160.80 130.50 161.52 130.47 162.42 Z M 130.45 163.35 L 130.41 164.43 C 130.37 165.33 131.08 166.09 131.98 166.13 C 132.88 166.16 133.65 165.46 133.68 164.56 L 133.72 163.48 C 133.76 162.58 133.06 161.82 132.15 161.78 C 131.25 161.74 130.49 162.45 130.45 163.35 Z M 130.41 164.40 L 130.35 165.47 C 130.30 166.37 130.99 167.14 131.89 167.19 C 132.80 167.24 133.57 166.55 133.62 165.65 L 133.68 164.59 C 133.73 163.68 133.04 162.91 132.14 162.86 C 131.24 162.81 130.46 163.50 130.41 164.40 Z M 130.35 165.44 L 130.28 166.42 C 130.21 167.33 130.89 168.11 131.79 168.18 C 132.70 168.24 133.48 167.56 133.55 166.66 L 133.62 165.68 C 133.68 164.78 133.01 163.99 132.10 163.93 C 131.20 163.86 130.42 164.54 130.35 165.44 Z M 130.28 166.40 L 130.20 167.34 C 130.13 168.24 130.79 169.03 131.69 169.11 C 132.59 169.18 133.39 168.52 133.46 167.61 L 133.54 166.68 C 133.62 165.78 132.95 164.99 132.05 164.91 C 131.15 164.84 130.36 165.50 130.28 166.40 Z M 130.20 167.32 L 130.12 168.23 C 130.04 169.13 130.70 169.93 131.60 170.01 C 132.50 170.09 133.30 169.43 133.38 168.53 L 133.46 167.63 C 133.55 166.73 132.88 165.93 131.98 165.85 C 131.08 165.76 130.29 166.42 130.20 167.32 Z"
      fill="black"
      fill-rule="nonzero" /><path d="M 113.51 143.48 L 114.39 143.08 C 115.27 142.68 115.66 141.64 115.26 140.75 C 114.85 139.87 113.81 139.48 112.93 139.89 L 112.05 140.29 C 111.17 140.69 110.78 141.73 111.19 142.61 C 111.59 143.50 112.63 143.88 113.51 143.48 Z M 114.39 143.11 L 115.28 142.71 C 116.19 142.31 116.59 141.25 116.19 140.35 C 115.78 139.45 114.73 139.05 113.83 139.45 L 112.93 139.85 C 112.03 140.25 111.62 141.31 112.03 142.21 C 112.43 143.11 113.49 143.52 114.39 143.11 Z M 115.27 142.75 L 116.21 142.35 C 117.13 141.96 117.56 140.89 117.16 139.97 C 116.77 139.04 115.70 138.61 114.77 139.01 L 113.84 139.41 C 112.92 139.81 112.49 140.88 112.88 141.80 C 113.28 142.72 114.35 143.15 115.27 142.75 Z M 116.18 142.38 L 117.12 142.00 C 118.06 141.62 118.51 140.55 118.13 139.61 C 117.75 138.67 116.68 138.22 115.74 138.60 L 114.80 138.98 C 113.86 139.36 113.41 140.43 113.79 141.37 C 114.17 142.31 115.24 142.76 116.18 142.38 Z M 117.07 142.00 L 117.96 141.66 C 118.90 141.31 119.38 140.26 119.02 139.32 C 118.67 138.38 117.62 137.91 116.68 138.27 L 115.78 138.60 C 114.85 138.96 114.37 140.01 114.73 140.95 C 115.08 141.88 116.13 142.36 117.07 142.00 Z M 117.91 141.63 L 118.85 141.30 C 119.77 140.98 120.26 139.97 119.93 139.05 C 119.61 138.13 118.60 137.64 117.67 137.96 L 116.74 138.29 C 115.81 138.62 115.33 139.63 115.65 140.55 C 115.98 141.47 116.99 141.96 117.91 141.63 Z M 118.79 141.28 L 119.77 140.96 C 120.67 140.67 121.17 139.70 120.88 138.79 C 120.59 137.89 119.62 137.39 118.71 137.68 L 117.73 137.99 C 116.83 138.28 116.33 139.25 116.62 140.16 C 116.91 141.07 117.88 141.57 118.79 141.28 Z M 119.70 140.94 L 120.71 140.65 C 121.60 140.39 122.12 139.46 121.86 138.57 C 121.60 137.68 120.67 137.16 119.78 137.42 L 118.77 137.70 C 117.88 137.96 117.37 138.89 117.62 139.79 C 117.88 140.68 118.81 141.19 119.70 140.94 Z M 120.65 140.64 L 121.60 140.40 C 122.49 140.17 123.03 139.27 122.80 138.38 C 122.57 137.49 121.67 136.96 120.78 137.18 L 119.83 137.43 C 118.95 137.65 118.41 138.56 118.64 139.44 C 118.86 140.33 119.77 140.87 120.65 140.64 Z M 121.57 140.40 L 122.54 140.18 C 123.42 139.97 123.98 139.08 123.77 138.19 C 123.57 137.30 122.68 136.75 121.79 136.96 L 120.82 137.18 C 119.93 137.38 119.38 138.27 119.58 139.16 C 119.79 140.05 120.68 140.61 121.57 140.40 Z M 122.51 140.18 L 123.49 139.97 C 124.38 139.78 124.95 138.90 124.76 138.01 C 124.57 137.12 123.69 136.55 122.80 136.74 L 121.82 136.95 C 120.93 137.14 120.36 138.02 120.55 138.91 C 120.74 139.80 121.62 140.37 122.51 140.18 Z M 123.47 139.96 L 124.47 139.76 C 125.36 139.58 125.93 138.71 125.75 137.82 C 125.57 136.94 124.70 136.36 123.81 136.54 L 122.82 136.75 C 121.93 136.93 121.36 137.79 121.54 138.68 C 121.72 139.57 122.59 140.15 123.47 139.96 Z M 124.46 139.76 L 125.04 139.64 C 125.93 139.47 126.50 138.60 126.32 137.71 C 126.15 136.83 125.28 136.25 124.40 136.43 L 123.82 136.55 C 122.93 136.72 122.35 137.59 122.53 138.47 C 122.71 139.36 123.57 139.94 124.46 139.76 Z"
      fill="black"
      fill-rule="nonzero" /><path d="M 114.09 175.26 L 114.73 174.43 C 115.29 173.71 115.16 172.67 114.43 172.11 C 113.71 171.55 112.67 171.69 112.11 172.41 L 111.47 173.24 C 110.91 173.97 111.05 175.01 111.77 175.56 C 112.50 176.12 113.53 175.99 114.09 175.26 Z M 114.75 174.46 L 115.39 173.65 C 115.96 172.92 115.83 171.85 115.10 171.28 C 114.36 170.70 113.30 170.83 112.72 171.57 L 112.09 172.38 C 111.51 173.12 111.65 174.18 112.38 174.75 C 113.12 175.33 114.18 175.20 114.75 174.46 Z M 115.40 173.69 L 116.03 172.92 C 116.62 172.18 116.51 171.09 115.76 170.49 C 115.02 169.89 113.93 170.01 113.33 170.75 L 112.71 171.53 C 112.11 172.27 112.23 173.36 112.97 173.96 C 113.72 174.55 114.80 174.44 115.40 173.69 Z M 116.03 172.97 L 116.63 172.26 C 117.26 171.51 117.17 170.40 116.42 169.77 C 115.68 169.14 114.57 169.24 113.94 169.98 L 113.33 170.70 C 112.70 171.44 112.80 172.56 113.54 173.18 C 114.29 173.81 115.40 173.72 116.03 172.97 Z M 116.60 172.31 L 117.28 171.55 C 117.94 170.83 117.89 169.71 117.16 169.05 C 116.44 168.40 115.32 168.45 114.67 169.17 L 113.98 169.93 C 113.32 170.65 113.37 171.77 114.10 172.43 C 114.82 173.08 115.94 173.03 116.60 172.31 Z M 117.21 171.59 L 117.90 170.89 C 118.58 170.20 118.57 169.10 117.89 168.42 C 117.21 167.75 116.10 167.75 115.43 168.44 L 114.73 169.14 C 114.06 169.82 114.07 170.93 114.75 171.60 C 115.43 172.28 116.54 172.27 117.21 171.59 Z M 117.84 170.90 L 118.55 170.23 C 119.24 169.57 119.26 168.49 118.61 167.81 C 117.96 167.13 116.88 167.10 116.19 167.75 L 115.49 168.43 C 114.80 169.08 114.78 170.16 115.43 170.84 C 116.08 171.52 117.16 171.55 117.84 170.90 Z M 118.52 170.22 L 119.23 169.56 C 119.91 168.93 119.95 167.87 119.32 167.19 C 118.69 166.51 117.63 166.46 116.94 167.10 L 116.23 167.75 C 115.55 168.38 115.51 169.45 116.14 170.13 C 116.77 170.81 117.83 170.85 118.52 170.22 Z M 119.21 169.56 L 119.92 168.92 C 120.60 168.30 120.65 167.24 120.03 166.56 C 119.41 165.88 118.35 165.83 117.67 166.45 L 116.96 167.10 C 116.28 167.72 116.23 168.77 116.85 169.45 C 117.47 170.13 118.53 170.18 119.21 169.56 Z M 119.90 168.92 L 120.65 168.26 C 121.33 167.64 121.39 166.60 120.78 165.91 C 120.17 165.23 119.12 165.17 118.44 165.78 L 117.69 166.44 C 117.00 167.05 116.94 168.10 117.55 168.79 C 118.16 169.47 119.21 169.53 119.90 168.92 Z M 120.62 168.27 L 121.41 167.59 C 122.10 166.99 122.18 165.94 121.58 165.25 C 120.98 164.56 119.94 164.49 119.25 165.08 L 118.46 165.76 C 117.77 166.36 117.69 167.41 118.29 168.10 C 118.89 168.79 119.93 168.86 120.62 168.27 Z M 121.39 167.60 L 122.16 166.96 C 122.86 166.38 122.95 165.34 122.37 164.64 C 121.79 163.94 120.75 163.84 120.05 164.43 L 119.28 165.07 C 118.58 165.65 118.48 166.69 119.06 167.39 C 119.65 168.09 120.69 168.18 121.39 167.60 Z M 122.13 166.98 L 122.89 166.37 C 123.60 165.80 123.71 164.76 123.14 164.05 C 122.57 163.35 121.53 163.23 120.83 163.80 L 120.07 164.41 C 119.36 164.98 119.25 166.02 119.82 166.72 C 120.39 167.43 121.42 167.54 122.13 166.98 Z M 122.87 166.38 L 123.65 165.77 C 124.37 165.21 124.49 164.18 123.94 163.46 C 123.38 162.75 122.34 162.62 121.63 163.18 L 120.85 163.79 C 120.13 164.35 120.00 165.38 120.56 166.10 C 121.12 166.81 122.15 166.94 122.87 166.38 Z M 123.64 165.78 L 124.45 165.15 C 125.17 164.60 125.31 163.57 124.76 162.85 C 124.21 162.13 123.18 162.00 122.46 162.55 L 121.64 163.17 C 120.92 163.72 120.79 164.75 121.34 165.47 C 121.89 166.19 122.92 166.33 123.64 165.78 Z M 124.44 165.16 L 125.26 164.54 C 125.99 164.00 126.13 162.97 125.59 162.24 C 125.04 161.52 124.01 161.38 123.29 161.92 L 122.47 162.54 C 121.74 163.09 121.60 164.11 122.14 164.84 C 122.69 165.56 123.72 165.71 124.44 165.16 Z M 125.25 164.55 L 126.03 163.97 C 126.75 163.43 126.90 162.40 126.36 161.68 C 125.82 160.95 124.80 160.80 124.07 161.34 L 123.30 161.92 C 122.57 162.46 122.42 163.48 122.96 164.21 C 123.50 164.94 124.53 165.09 125.25 164.55 Z M 126.02 163.98 L 126.81 163.39 C 127.54 162.86 127.70 161.83 127.17 161.10 C 126.63 160.38 125.61 160.22 124.88 160.75 L 124.08 161.33 C 123.35 161.87 123.19 162.89 123.73 163.62 C 124.26 164.35 125.29 164.51 126.02 163.98 Z M 126.80 163.40 L 127.62 162.82 C 128.35 162.29 128.52 161.27 127.99 160.53 C 127.47 159.80 126.44 159.63 125.71 160.16 L 124.89 160.74 C 124.16 161.27 123.99 162.29 124.51 163.03 C 125.04 163.76 126.06 163.93 126.80 163.40 Z M 127.60 162.83 L 128.44 162.24 C 129.18 161.72 129.36 160.70 128.84 159.96 C 128.33 159.22 127.31 159.04 126.56 159.56 L 125.72 160.14 C 124.98 160.66 124.80 161.68 125.32 162.42 C 125.84 163.17 126.86 163.35 127.60 162.83 Z M 128.42 162.26 L 129.27 161.68 C 130.02 161.17 130.21 160.16 129.71 159.41 C 129.20 158.66 128.18 158.46 127.43 158.97 L 126.58 159.54 C 125.84 160.05 125.64 161.07 126.15 161.82 C 126.65 162.57 127.67 162.76 128.42 162.26 Z M 129.25 161.69 L 130.08 161.15 C 130.84 160.65 131.05 159.64 130.55 158.88 C 130.05 158.12 129.04 157.91 128.28 158.41 L 127.45 158.96 C 126.70 159.45 126.49 160.47 126.98 161.22 C 127.48 161.98 128.49 162.19 129.25 161.69 Z M 130.07 161.16 L 130.91 160.62 C 131.67 160.13 131.89 159.12 131.40 158.35 C 130.92 157.59 129.90 157.37 129.14 157.86 L 128.30 158.40 C 127.54 158.89 127.32 159.90 127.80 160.66 C 128.29 161.42 129.30 161.65 130.07 161.16 Z M 130.90 160.62 L 131.75 160.09 C 132.51 159.61 132.74 158.59 132.26 157.83 C 131.78 157.06 130.77 156.84 130.00 157.32 L 129.15 157.85 C 128.39 158.34 128.16 159.35 128.64 160.11 C 129.12 160.88 130.13 161.11 130.90 160.62 Z M 131.74 160.09 L 132.59 159.56 C 133.36 159.08 133.60 158.07 133.12 157.30 C 132.64 156.54 131.63 156.30 130.86 156.78 L 130.01 157.31 C 129.24 157.79 129.01 158.80 129.49 159.57 C 129.97 160.34 130.98 160.57 131.74 160.09 Z M 132.59 159.56 L 133.44 159.03 C 134.21 158.56 134.45 157.55 133.97 156.78 C 133.49 156.01 132.48 155.78 131.71 156.25 L 130.86 156.78 C 130.10 157.26 129.86 158.27 130.34 159.04 C 130.81 159.80 131.82 160.04 132.59 159.56 Z M 133.44 159.03 L 134.31 158.49 C 135.08 158.01 135.32 157.00 134.84 156.24 C 134.36 155.47 133.35 155.23 132.59 155.71 L 131.71 156.25 C 130.95 156.73 130.71 157.74 131.19 158.51 C 131.66 159.28 132.67 159.51 133.44 159.03 Z M 134.31 158.49 L 135.17 157.96 C 135.94 157.48 136.18 156.47 135.70 155.70 C 135.23 154.94 134.22 154.70 133.45 155.18 L 132.59 155.71 C 131.82 156.19 131.58 157.20 132.06 157.96 C 132.54 158.73 133.54 158.97 134.31 158.49 Z M 135.17 157.96 L 136.02 157.43 C 136.79 156.96 137.03 155.95 136.56 155.18 C 136.08 154.41 135.07 154.17 134.30 154.65 L 133.45 155.17 C 132.68 155.65 132.44 156.66 132.92 157.43 C 133.39 158.20 134.40 158.43 135.17 157.96 Z M 136.01 157.44 L 136.85 156.93 C 137.63 156.45 137.87 155.45 137.40 154.68 C 136.93 153.90 135.92 153.66 135.15 154.13 L 134.31 154.64 C 133.54 155.12 133.29 156.12 133.76 156.89 C 134.24 157.67 135.24 157.91 136.01 157.44 Z M 136.85 156.93 L 137.68 156.43 C 138.46 155.96 138.71 154.96 138.24 154.18 C 137.78 153.41 136.77 153.16 135.99 153.62 L 135.16 154.13 C 134.38 154.59 134.13 155.60 134.60 156.37 C 135.07 157.15 136.07 157.40 136.85 156.93 Z M 137.67 156.44 L 138.55 155.92 C 139.33 155.46 139.59 154.46 139.13 153.68 C 138.67 152.90 137.66 152.64 136.88 153.10 L 136.01 153.62 C 135.23 154.08 134.97 155.08 135.43 155.86 C 135.89 156.64 136.89 156.90 137.67 156.44 Z M 138.54 155.92 L 139.41 155.42 C 140.19 154.97 140.45 153.96 140.00 153.18 C 139.55 152.40 138.55 152.13 137.76 152.59 L 136.90 153.09 C 136.11 153.55 135.85 154.55 136.30 155.33 C 136.75 156.11 137.76 156.38 138.54 155.92 Z M 139.40 155.42 L 140.26 154.93 C 141.05 154.48 141.32 153.48 140.87 152.70 C 140.42 151.91 139.42 151.64 138.63 152.09 L 137.77 152.58 C 136.99 153.03 136.72 154.03 137.16 154.82 C 137.61 155.60 138.61 155.87 139.40 155.42 Z M 140.26 154.93 L 141.11 154.45 C 141.90 154.00 142.18 153.00 141.73 152.21 C 141.28 151.43 140.28 151.15 139.50 151.60 L 138.64 152.09 C 137.85 152.53 137.58 153.53 138.02 154.32 C 138.47 155.11 139.47 155.38 140.26 154.93 Z M 141.11 154.45 L 141.57 154.19 C 142.36 153.74 142.63 152.74 142.19 151.95 C 141.74 151.17 140.74 150.89 139.96 151.34 L 139.50 151.60 C 138.71 152.04 138.44 153.04 138.88 153.83 C 139.33 154.62 140.33 154.89 141.11 154.45 Z"
      fill="black"
      fill-rule="nonzero" /><path d="M 155.30 137.47 L 155.90 136.66 C 156.46 135.89 156.30 134.80 155.52 134.23 C 154.75 133.66 153.66 133.83 153.09 134.60 L 152.49 135.41 C 151.92 136.19 152.09 137.28 152.86 137.85 C 153.64 138.42 154.73 138.25 155.30 137.47 Z M 155.89 136.71 L 156.50 135.92 C 157.10 135.15 156.96 134.04 156.19 133.44 C 155.42 132.85 154.31 132.99 153.71 133.76 L 153.10 134.55 C 152.50 135.32 152.64 136.43 153.41 137.03 C 154.18 137.62 155.29 137.48 155.89 136.71 Z M 156.46 136.01 L 157.11 135.25 C 157.75 134.51 157.67 133.38 156.92 132.73 C 156.17 132.09 155.05 132.17 154.40 132.92 L 153.75 133.67 C 153.11 134.42 153.19 135.55 153.94 136.19 C 154.68 136.84 155.81 136.75 156.46 136.01 Z M 157.02 135.36 L 157.69 134.69 C 158.40 134.00 158.41 132.86 157.71 132.15 C 157.01 131.45 155.87 131.44 155.17 132.14 L 154.49 132.81 C 153.78 133.51 153.78 134.64 154.48 135.35 C 155.18 136.06 156.31 136.06 157.02 135.36 Z M 157.57 134.77 L 158.28 134.18 C 159.03 133.55 159.12 132.43 158.49 131.68 C 157.86 130.93 156.74 130.84 155.99 131.47 L 155.29 132.06 C 154.54 132.69 154.44 133.81 155.07 134.56 C 155.70 135.31 156.82 135.40 157.57 134.77 Z M 158.18 134.21 L 158.96 133.62 C 159.72 133.04 159.87 131.95 159.29 131.19 C 158.71 130.43 157.63 130.28 156.86 130.85 L 156.09 131.44 C 155.32 132.02 155.17 133.11 155.75 133.87 C 156.33 134.63 157.42 134.78 158.18 134.21 Z M 158.90 133.61 L 159.77 132.98 C 160.52 132.44 160.70 131.38 160.15 130.62 C 159.60 129.86 158.55 129.69 157.79 130.24 L 156.92 130.86 C 156.17 131.41 155.99 132.47 156.54 133.22 C 157.08 133.98 158.14 134.15 158.90 133.61 Z M 159.75 132.96 L 160.60 132.34 C 161.34 131.81 161.51 130.77 160.98 130.03 C 160.44 129.29 159.40 129.12 158.66 129.65 L 157.81 130.26 C 157.07 130.80 156.90 131.84 157.43 132.58 C 157.97 133.32 159.00 133.49 159.75 132.96 Z M 160.60 132.32 L 161.41 131.73 C 162.14 131.19 162.30 130.16 161.76 129.43 C 161.22 128.70 160.19 128.54 159.46 129.08 L 158.65 129.67 C 157.92 130.21 157.76 131.24 158.30 131.97 C 158.84 132.71 159.87 132.86 160.60 132.32 Z M 161.43 131.72 L 162.25 131.09 C 162.97 130.55 163.11 129.51 162.57 128.79 C 162.02 128.07 160.99 127.92 160.26 128.47 L 159.44 129.10 C 158.72 129.64 158.57 130.68 159.12 131.40 C 159.67 132.12 160.70 132.27 161.43 131.72 Z M 162.27 131.07 L 163.08 130.43 C 163.79 129.87 163.91 128.84 163.35 128.13 C 162.79 127.42 161.76 127.29 161.05 127.86 L 160.24 128.49 C 159.53 129.06 159.40 130.09 159.97 130.80 C 160.53 131.51 161.56 131.63 162.27 131.07 Z M 163.12 130.40 L 163.88 129.77 C 164.57 129.18 164.67 128.15 164.08 127.46 C 163.50 126.76 162.47 126.67 161.78 127.25 L 161.01 127.89 C 160.32 128.47 160.23 129.50 160.81 130.20 C 161.39 130.89 162.42 130.98 163.12 130.40 Z M 163.93 129.72 L 164.70 129.01 C 165.37 128.40 165.42 127.37 164.81 126.70 C 164.20 126.03 163.17 125.98 162.50 126.59 L 161.72 127.30 C 161.06 127.91 161.01 128.94 161.62 129.61 C 162.22 130.28 163.26 130.33 163.93 129.72 Z M 164.77 128.95 L 165.51 128.19 C 166.15 127.55 166.14 126.51 165.49 125.88 C 164.85 125.25 163.81 125.25 163.18 125.90 L 162.43 126.65 C 161.80 127.30 161.81 128.34 162.45 128.97 C 163.10 129.60 164.13 129.59 164.77 128.95 Z M 165.57 128.13 L 166.22 127.41 C 166.82 126.73 166.76 125.69 166.08 125.09 C 165.40 124.49 164.37 124.55 163.77 125.23 L 163.12 125.96 C 162.52 126.64 162.58 127.67 163.26 128.27 C 163.93 128.87 164.97 128.81 165.57 128.13 Z M 166.25 127.36 L 166.84 126.65 C 167.42 125.95 167.32 124.92 166.63 124.34 C 165.93 123.77 164.90 123.86 164.32 124.56 L 163.73 125.27 C 163.15 125.97 163.25 127.00 163.95 127.58 C 164.64 128.16 165.67 128.06 166.25 127.36 Z M 166.86 126.64 L 167.10 126.33 C 167.67 125.63 167.56 124.60 166.86 124.03 C 166.16 123.46 165.13 123.57 164.56 124.27 L 164.31 124.57 C 163.74 125.28 163.85 126.31 164.55 126.88 C 165.26 127.45 166.29 127.34 166.86 126.64 Z"
      fill="black"
      fill-rule="nonzero" /><path d="M 153.64 111.45 L 152.78 111.86 C 151.88 112.29 151.49 113.38 151.93 114.29 C 152.36 115.20 153.45 115.58 154.36 115.15 L 155.21 114.74 C 156.12 114.31 156.50 113.22 156.07 112.31 C 155.63 111.40 154.55 111.02 153.64 111.45 Z M 152.62 111.92 L 151.80 112.42 C 150.92 112.95 150.64 114.08 151.17 114.95 C 151.70 115.83 152.83 116.11 153.70 115.58 L 154.52 115.09 C 155.40 114.56 155.68 113.42 155.15 112.55 C 154.62 111.68 153.49 111.40 152.62 111.92 Z M 151.51 112.60 L 150.76 113.27 C 149.99 113.95 149.92 115.13 150.60 115.91 C 151.29 116.68 152.47 116.75 153.24 116.06 L 153.99 115.40 C 154.76 114.71 154.83 113.53 154.15 112.76 C 153.46 111.99 152.28 111.92 151.51 112.60 Z M 150.47 113.56 L 149.87 114.40 C 149.26 115.25 149.45 116.43 150.30 117.03 C 151.14 117.64 152.32 117.45 152.93 116.60 L 153.53 115.77 C 154.14 114.92 153.95 113.74 153.10 113.13 C 152.25 112.52 151.07 112.72 150.47 113.56 Z M 149.69 114.67 L 149.29 115.49 C 148.84 116.43 149.23 117.57 150.17 118.03 C 151.11 118.49 152.25 118.09 152.71 117.15 L 153.11 116.33 C 153.56 115.39 153.17 114.25 152.23 113.79 C 151.28 113.34 150.15 113.73 149.69 114.67 Z M 149.22 115.67 L 148.88 116.60 C 148.52 117.59 149.03 118.68 150.01 119.04 C 151.00 119.39 152.09 118.89 152.45 117.90 L 152.78 116.97 C 153.14 115.98 152.64 114.90 151.65 114.54 C 150.66 114.18 149.58 114.69 149.22 115.67 Z M 148.83 116.73 L 148.55 117.74 C 148.26 118.75 148.85 119.80 149.86 120.08 C 150.87 120.37 151.92 119.78 152.21 118.77 L 152.49 117.77 C 152.78 116.76 152.19 115.71 151.18 115.42 C 150.17 115.14 149.12 115.72 148.83 116.73 Z M 148.52 117.84 L 148.29 118.87 C 148.06 119.89 148.71 120.91 149.73 121.14 C 150.76 121.37 151.77 120.73 152.00 119.70 L 152.23 118.67 C 152.46 117.64 151.82 116.63 150.79 116.40 C 149.77 116.17 148.75 116.81 148.52 117.84 Z M 148.27 118.95 L 148.09 119.99 C 147.90 121.02 148.59 122.01 149.62 122.20 C 150.66 122.38 151.65 121.69 151.83 120.66 L 152.02 119.62 C 152.21 118.59 151.52 117.60 150.48 117.41 C 149.45 117.23 148.46 117.92 148.27 118.95 Z M 148.08 120.06 L 147.92 121.16 C 147.77 122.20 148.50 123.17 149.54 123.31 C 150.58 123.46 151.54 122.73 151.69 121.69 L 151.85 120.59 C 151.99 119.55 151.27 118.59 150.23 118.44 C 149.18 118.29 148.22 119.02 148.08 120.06 Z M 147.91 121.23 L 147.80 122.27 C 147.69 123.32 148.45 124.25 149.50 124.36 C 150.54 124.47 151.48 123.71 151.59 122.67 L 151.70 121.63 C 151.81 120.58 151.05 119.64 150.00 119.54 C 148.96 119.43 148.02 120.18 147.91 121.23 Z M 147.80 122.33 L 147.73 123.31 C 147.65 124.35 148.43 125.27 149.48 125.35 C 150.53 125.42 151.44 124.64 151.52 123.59 L 151.59 122.61 C 151.67 121.56 150.89 120.65 149.84 120.57 C 148.79 120.49 147.88 121.28 147.80 122.33 Z M 147.72 123.35 L 147.68 124.26 C 147.62 125.31 148.43 126.20 149.48 126.26 C 150.53 126.31 151.42 125.50 151.48 124.45 L 151.52 123.54 C 151.58 122.50 150.77 121.60 149.72 121.55 C 148.67 121.49 147.78 122.30 147.72 123.35 Z M 147.68 124.29 L 147.64 125.28 C 147.61 126.33 148.43 127.21 149.48 127.25 C 150.53 127.28 151.41 126.46 151.45 125.41 L 151.48 124.42 C 151.51 123.37 150.69 122.49 149.64 122.45 C 148.59 122.42 147.71 123.24 147.68 124.29 Z M 147.64 125.31 L 147.62 126.34 C 147.60 127.39 148.44 128.26 149.49 128.28 C 150.54 128.30 151.41 127.47 151.43 126.42 L 151.45 125.38 C 151.47 124.33 150.63 123.46 149.58 123.45 C 148.53 123.43 147.66 124.26 147.64 125.31 Z M 147.62 126.37 L 147.62 127.33 C 147.61 128.38 148.46 129.23 149.51 129.24 C 150.55 129.25 151.41 128.40 151.42 127.35 L 151.43 126.39 C 151.43 125.34 150.59 124.49 149.54 124.48 C 148.49 124.47 147.63 125.32 147.62 126.37 Z M 147.62 127.34 L 147.62 128.28 C 147.62 129.33 148.47 130.18 149.52 130.18 C 150.57 130.18 151.42 129.33 151.42 128.28 L 151.42 127.34 C 151.42 126.29 150.57 125.44 149.52 125.44 C 148.47 125.44 147.62 126.29 147.62 127.34 Z M 147.62 128.28 L 147.62 129.26 C 147.62 130.30 148.47 131.15 149.52 131.15 C 150.57 131.15 151.42 130.30 151.42 129.26 L 151.42 128.28 C 151.42 127.23 150.57 126.38 149.52 126.38 C 148.47 126.38 147.62 127.23 147.62 128.28 Z M 147.62 129.26 L 147.62 130.25 C 147.62 131.30 148.47 132.15 149.52 132.15 C 150.57 132.15 151.42 131.30 151.42 130.25 L 151.42 129.26 C 151.42 128.21 150.57 127.36 149.52 127.36 C 148.47 127.36 147.62 128.21 147.62 129.26 Z M 147.62 130.25 L 147.62 131.28 C 147.62 132.33 148.47 133.18 149.52 133.18 C 150.57 133.18 151.41 132.33 151.41 131.28 L 151.41 130.25 C 151.41 129.21 150.57 128.36 149.52 128.36 C 148.47 128.36 147.62 129.21 147.62 130.25 Z M 147.62 131.28 L 147.62 132.24 C 147.62 133.29 148.47 134.14 149.52 134.14 C 150.57 134.14 151.41 133.29 151.41 132.24 L 151.41 131.28 C 151.41 130.24 150.57 129.39 149.52 129.39 C 148.47 129.39 147.62 130.24 147.62 131.28 Z M 147.62 132.24 L 147.62 133.23 C 147.62 134.27 148.47 135.12 149.52 135.12 C 150.56 135.12 151.41 134.27 151.41 133.23 L 151.41 132.24 C 151.41 131.19 150.56 130.35 149.52 130.35 C 148.47 130.35 147.62 131.19 147.62 132.24 Z M 147.62 133.23 L 147.62 134.25 C 147.62 135.30 148.47 136.15 149.52 136.15 C 150.56 136.15 151.41 135.30 151.41 134.25 L 151.41 133.23 C 151.41 132.18 150.56 131.33 149.52 131.33 C 148.47 131.33 147.62 132.18 147.62 133.23 Z M 147.62 134.25 L 147.62 135.28 C 147.62 136.32 148.47 137.17 149.52 137.17 C 150.56 137.17 151.41 136.32 151.41 135.28 L 151.41 134.25 C 151.41 133.20 150.56 132.35 149.52 132.35 C 148.47 132.35 147.62 133.20 147.62 134.25 Z M 147.62 135.28 L 147.62 136.27 C 147.62 137.31 148.47 138.16 149.52 138.16 C 150.57 138.16 151.41 137.31 151.41 136.26 L 151.41 135.27 C 151.41 134.23 150.56 133.38 149.52 133.38 C 148.47 133.38 147.62 134.23 147.62 135.28 Z M 147.62 136.27 L 147.63 137.28 C 147.63 138.33 148.48 139.17 149.53 139.17 C 150.58 139.16 151.42 138.31 151.42 137.27 L 151.41 136.26 C 151.41 135.21 150.56 134.37 149.51 134.37 C 148.46 134.37 147.62 135.23 147.62 136.27 Z M 147.63 137.29 L 147.64 138.30 C 147.64 139.35 148.50 140.19 149.55 140.18 C 150.59 140.17 151.43 139.31 151.43 138.27 L 151.42 137.26 C 151.41 136.21 150.55 135.37 149.51 135.38 C 148.46 135.39 147.62 136.24 147.63 137.29 Z M 147.64 138.31 L 147.65 139.32 C 147.67 140.37 148.53 141.20 149.58 141.19 C 150.62 141.17 151.46 140.31 151.44 139.26 L 151.43 138.25 C 151.41 137.21 150.55 136.37 149.50 136.39 C 148.45 136.40 147.62 137.27 147.64 138.31 Z M 147.65 139.34 L 147.68 140.35 C 147.71 141.40 148.58 142.22 149.62 142.19 C 150.67 142.17 151.49 141.30 151.47 140.25 L 151.44 139.24 C 151.41 138.20 150.54 137.37 149.50 137.40 C 148.45 137.42 147.62 138.30 147.65 139.34 Z M 147.68 140.38 L 147.72 141.38 C 147.76 142.42 148.65 143.23 149.69 143.19 C 150.74 143.15 151.55 142.26 151.51 141.22 L 151.47 140.22 C 151.42 139.18 150.54 138.36 149.49 138.41 C 148.45 138.45 147.64 139.33 147.68 140.38 Z M 147.72 141.41 L 147.78 142.40 C 147.85 143.45 148.75 144.24 149.79 144.18 C 150.84 144.11 151.63 143.22 151.57 142.17 L 151.51 141.18 C 151.44 140.14 150.54 139.34 149.50 139.41 C 148.45 139.47 147.66 140.37 147.72 141.41 Z M 147.79 142.45 L 147.87 143.44 C 147.96 144.48 148.88 145.25 149.92 145.16 C 150.96 145.07 151.74 144.16 151.65 143.11 L 151.56 142.13 C 151.47 141.08 150.56 140.31 149.51 140.40 C 148.47 140.49 147.70 141.41 147.79 142.45 Z M 147.88 143.49 L 147.99 144.48 C 148.10 145.52 149.04 146.27 150.08 146.15 C 151.12 146.03 151.87 145.10 151.75 144.06 L 151.64 143.06 C 151.53 142.02 150.59 141.28 149.55 141.39 C 148.51 141.51 147.76 142.45 147.88 143.49 Z M 147.99 144.53 L 148.13 145.52 C 148.27 146.55 149.23 147.28 150.27 147.13 C 151.30 146.99 152.03 146.03 151.88 145.00 L 151.75 144.01 C 151.60 142.97 150.65 142.25 149.61 142.39 C 148.57 142.53 147.85 143.49 147.99 144.53 Z M 148.14 145.56 L 148.30 146.56 C 148.47 147.59 149.45 148.29 150.48 148.12 C 151.51 147.95 152.21 146.97 152.04 145.94 L 151.88 144.95 C 151.71 143.91 150.73 143.22 149.70 143.39 C 148.67 143.56 147.97 144.53 148.14 145.56 Z M 148.31 146.60 L 148.50 147.59 C 148.70 148.61 149.69 149.29 150.72 149.09 C 151.74 148.89 152.42 147.90 152.22 146.87 L 152.03 145.89 C 151.83 144.86 150.84 144.19 149.81 144.39 C 148.79 144.58 148.11 145.58 148.31 146.60 Z M 148.51 147.63 L 148.72 148.61 C 148.94 149.63 149.95 150.28 150.98 150.06 C 152.00 149.83 152.65 148.82 152.42 147.80 L 152.21 146.82 C 151.99 145.80 150.98 145.15 149.95 145.38 C 148.93 145.60 148.28 146.61 148.51 147.63 Z M 148.73 148.66 L 148.97 149.63 C 149.22 150.65 150.25 151.27 151.26 151.02 C 152.28 150.77 152.90 149.74 152.65 148.72 L 152.41 147.75 C 152.16 146.74 151.14 146.11 150.12 146.36 C 149.10 146.61 148.48 147.64 148.73 148.66 Z M 148.98 149.68 L 149.25 150.64 C 149.52 151.65 150.57 152.25 151.58 151.97 C 152.59 151.70 153.18 150.65 152.90 149.64 L 152.64 148.68 C 152.36 147.67 151.32 147.07 150.31 147.35 C 149.30 147.62 148.71 148.67 148.98 149.68 Z M 149.26 150.69 L 149.55 151.66 C 149.85 152.66 150.91 153.22 151.92 152.92 C 152.92 152.62 153.49 151.56 153.18 150.56 L 152.89 149.59 C 152.59 148.59 151.53 148.02 150.53 148.33 C 149.52 148.63 148.96 149.69 149.26 150.69 Z M 149.56 151.70 L 149.88 152.66 C 150.21 153.65 151.28 154.19 152.28 153.86 C 153.27 153.54 153.81 152.46 153.48 151.47 L 153.17 150.51 C 152.84 149.52 151.77 148.98 150.77 149.30 C 149.78 149.63 149.24 150.71 149.56 151.70 Z M 149.89 152.70 L 150.23 153.64 C 150.57 154.63 151.66 155.15 152.65 154.80 C 153.64 154.45 154.16 153.36 153.81 152.37 L 153.47 151.43 C 153.12 150.44 152.04 149.92 151.05 150.27 C 150.06 150.62 149.54 151.71 149.89 152.70 Z M 150.24 153.67 L 150.58 154.60 C 150.95 155.58 152.05 156.08 153.03 155.71 C 154.01 155.34 154.51 154.25 154.14 153.27 L 153.79 152.34 C 153.43 151.36 152.33 150.86 151.35 151.23 C 150.37 151.59 149.87 152.69 150.24 153.67 Z M 150.59 154.63 L 150.96 155.56 C 151.34 156.53 152.45 157.01 153.42 156.63 C 154.40 156.24 154.88 155.14 154.50 154.16 L 154.13 153.24 C 153.75 152.26 152.64 151.78 151.67 152.16 C 150.69 152.55 150.21 153.65 150.59 154.63 Z M 150.97 155.59 L 151.35 156.51 C 151.75 157.48 152.86 157.94 153.84 157.54 C 154.81 157.13 155.27 156.02 154.87 155.05 L 154.49 154.13 C 154.08 153.16 152.97 152.70 152.00 153.10 C 151.03 153.50 150.57 154.62 150.97 155.59 Z M 151.36 156.54 L 151.77 157.46 C 152.19 158.42 153.31 158.86 154.28 158.43 C 155.24 158.01 155.67 156.88 155.25 155.92 L 154.85 155.01 C 154.43 154.05 153.30 153.61 152.34 154.03 C 151.38 154.46 150.94 155.58 151.36 156.54 Z M 151.79 157.50 L 152.21 158.41 C 152.66 159.37 153.80 159.77 154.75 159.33 C 155.70 158.88 156.11 157.74 155.66 156.79 L 155.23 155.88 C 154.78 154.93 153.65 154.52 152.70 154.97 C 151.75 155.41 151.34 156.55 151.79 157.50 Z M 152.24 158.46 L 152.70 159.37 C 153.17 160.31 154.32 160.69 155.26 160.21 C 156.20 159.74 156.57 158.59 156.10 157.65 L 155.64 156.74 C 155.17 155.80 154.02 155.43 153.08 155.90 C 152.14 156.38 151.76 157.52 152.24 158.46 Z M 152.72 159.42 L 153.21 160.32 C 153.71 161.24 154.87 161.59 155.80 161.08 C 156.72 160.58 157.06 159.42 156.56 158.50 L 156.07 157.60 C 155.57 156.67 154.41 156.33 153.49 156.84 C 152.56 157.34 152.22 158.50 152.72 159.42 Z M 153.24 160.38 L 153.75 161.24 C 154.29 162.15 155.46 162.45 156.37 161.91 C 157.27 161.38 157.57 160.20 157.04 159.30 L 156.53 158.44 C 155.99 157.53 154.82 157.23 153.91 157.77 C 153.01 158.30 152.71 159.47 153.24 160.38 Z M 153.80 161.31 L 154.32 162.12 C 154.90 163.00 156.08 163.25 156.97 162.68 C 157.85 162.10 158.10 160.92 157.52 160.03 L 156.99 159.23 C 156.42 158.34 155.23 158.09 154.35 158.67 C 153.47 159.25 153.22 160.43 153.80 161.31 Z M 154.39 162.21 L 155.02 163.06 C 155.65 163.91 156.84 164.09 157.69 163.46 C 158.54 162.83 158.71 161.64 158.09 160.79 L 157.46 159.94 C 156.83 159.09 155.63 158.91 154.78 159.54 C 153.94 160.17 153.76 161.37 154.39 162.21 Z M 155.10 163.17 L 155.74 163.93 C 156.43 164.73 157.63 164.83 158.44 164.14 C 159.24 163.46 159.34 162.25 158.65 161.45 L 158.01 160.69 C 157.32 159.89 156.12 159.79 155.31 160.47 C 154.51 161.16 154.41 162.36 155.10 163.17 Z M 155.83 164.02 L 156.49 164.70 C 157.23 165.46 158.44 165.48 159.19 164.75 C 159.95 164.01 159.97 162.80 159.24 162.04 L 158.57 161.36 C 157.84 160.60 156.63 160.58 155.87 161.31 C 155.11 162.05 155.09 163.26 155.83 164.02 Z M 156.57 164.79 L 157.31 165.45 C 158.08 166.17 159.29 166.11 160.01 165.33 C 160.72 164.55 160.67 163.35 159.89 162.63 L 159.15 161.96 C 158.38 161.25 157.17 161.31 156.45 162.08 C 155.74 162.86 155.79 164.07 156.57 164.79 Z M 157.40 165.53 L 158.18 166.16 C 159.00 166.82 160.20 166.69 160.86 165.87 C 161.53 165.05 161.40 163.84 160.57 163.18 L 159.79 162.55 C 158.97 161.89 157.77 162.02 157.11 162.85 C 156.44 163.67 156.57 164.87 157.40 165.53 Z M 158.28 166.24 L 159.09 166.81 C 159.96 167.41 161.15 167.20 161.76 166.33 C 162.36 165.47 162.15 164.28 161.28 163.67 L 160.47 163.10 C 159.60 162.50 158.41 162.71 157.81 163.58 C 157.20 164.44 157.41 165.63 158.28 166.24 Z M 159.21 166.88 L 160.06 167.39 C 160.97 167.93 162.14 167.64 162.68 166.73 C 163.22 165.82 162.93 164.65 162.02 164.11 L 161.17 163.60 C 160.26 163.06 159.09 163.35 158.55 164.26 C 158.01 165.16 158.30 166.34 159.21 166.88 Z M 160.19 167.46 L 161.08 167.90 C 162.02 168.37 163.17 167.99 163.64 167.05 C 164.11 166.10 163.73 164.95 162.79 164.48 L 161.89 164.04 C 160.95 163.57 159.80 163.95 159.33 164.89 C 158.86 165.84 159.24 166.99 160.19 167.46 Z M 161.22 167.97 L 162.15 168.34 C 163.13 168.73 164.25 168.26 164.64 167.28 C 165.03 166.30 164.55 165.18 163.57 164.79 L 162.64 164.42 C 161.66 164.03 160.55 164.50 160.16 165.48 C 159.77 166.46 160.24 167.57 161.22 167.97 Z M 162.31 168.39 L 163.26 168.68 C 164.27 168.99 165.33 168.41 165.64 167.40 C 165.94 166.40 165.37 165.33 164.36 165.03 L 163.42 164.74 C 162.41 164.43 161.34 165.00 161.04 166.01 C 160.73 167.02 161.30 168.09 162.31 168.39 Z M 163.41 168.72 L 164.38 168.93 C 165.41 169.15 166.42 168.49 166.64 167.46 C 166.87 166.43 166.21 165.42 165.18 165.20 L 164.21 164.99 C 163.19 164.77 162.17 165.42 161.95 166.45 C 161.73 167.48 162.38 168.49 163.41 168.72 Z M 164.51 168.95 L 165.50 169.09 C 166.55 169.24 167.51 168.52 167.66 167.48 C 167.81 166.44 167.09 165.47 166.05 165.32 L 165.05 165.18 C 164.01 165.03 163.04 165.75 162.89 166.79 C 162.74 167.83 163.47 168.80 164.51 168.95 Z M 165.61 169.10 L 166.61 169.19 C 167.65 169.28 168.57 168.50 168.67 167.46 C 168.76 166.41 167.98 165.49 166.94 165.40 L 165.94 165.31 C 164.90 165.22 163.97 165.99 163.88 167.04 C 163.79 168.09 164.57 169.01 165.61 169.10 Z M 166.69 169.19 L 167.65 169.23 C 168.70 169.28 169.59 168.47 169.63 167.42 C 169.68 166.37 168.87 165.48 167.82 165.44 L 166.85 165.40 C 165.81 165.35 164.92 166.16 164.87 167.21 C 164.83 168.26 165.64 169.14 166.69 169.19 Z M 167.70 169.23 L 168.70 169.25 C 169.75 169.27 170.61 168.43 170.63 167.38 C 170.65 166.34 169.82 165.47 168.77 165.46 L 167.77 165.44 C 166.72 165.42 165.86 166.26 165.84 167.30 C 165.82 168.35 166.66 169.21 167.70 169.23 Z M 168.73 169.24 L 169.77 169.25 C 170.82 169.25 171.67 168.41 171.67 167.36 C 171.68 166.31 170.83 165.47 169.78 165.46 L 168.74 165.46 C 167.70 165.46 166.85 166.30 166.84 167.35 C 166.84 168.39 167.69 169.24 168.73 169.24 Z M 169.78 169.24 L 170.78 169.24 C 171.82 169.24 172.66 168.39 172.66 167.35 C 172.66 166.31 171.81 165.46 170.77 165.47 L 169.78 165.47 C 168.73 165.47 167.89 166.32 167.89 167.36 C 167.89 168.40 168.74 169.24 169.78 169.24 Z M 170.80 169.23 L 171.80 169.22 C 172.84 169.21 173.67 168.35 173.66 167.32 C 173.64 166.28 172.79 165.45 171.75 165.46 L 170.75 165.47 C 169.71 165.49 168.88 166.34 168.89 167.38 C 168.91 168.42 169.76 169.25 170.80 169.23 Z M 171.85 169.21 L 172.86 169.17 C 173.89 169.14 174.70 168.27 174.66 167.23 C 174.62 166.20 173.75 165.39 172.72 165.43 L 171.71 165.47 C 170.67 165.51 169.87 166.38 169.91 167.41 C 169.94 168.44 170.81 169.25 171.85 169.21 Z M 172.93 169.16 L 173.93 169.09 C 174.95 169.01 175.72 168.11 175.64 167.09 C 175.57 166.06 174.67 165.29 173.64 165.37 L 172.65 165.44 C 171.62 165.52 170.85 166.42 170.93 167.44 C 171.01 168.47 171.90 169.24 172.93 169.16 Z M 174.03 169.07 L 175.03 168.94 C 176.05 168.80 176.76 167.87 176.63 166.86 C 176.50 165.84 175.57 165.12 174.55 165.25 L 173.55 165.39 C 172.53 165.52 171.81 166.45 171.94 167.47 C 172.08 168.48 173.01 169.20 174.03 169.07 Z M 175.14 168.91 L 176.12 168.72 C 177.12 168.53 177.77 167.56 177.58 166.56 C 177.39 165.56 176.42 164.90 175.42 165.09 L 174.44 165.28 C 173.44 165.47 172.78 166.44 172.98 167.44 C 173.17 168.44 174.14 169.10 175.14 168.91 Z M 176.22 168.69 L 177.18 168.44 C 178.16 168.20 178.76 167.20 178.51 166.21 C 178.26 165.23 177.26 164.63 176.28 164.88 L 175.32 165.13 C 174.33 165.38 173.74 166.38 173.99 167.36 C 174.24 168.34 175.24 168.94 176.22 168.69 Z M 177.28 168.41 L 178.23 168.11 C 179.19 167.81 179.72 166.78 179.42 165.82 C 179.12 164.86 178.09 164.32 177.13 164.62 L 176.18 164.92 C 175.22 165.23 174.68 166.25 174.99 167.21 C 175.29 168.17 176.32 168.71 177.28 168.41 Z M 178.31 168.07 L 179.23 167.73 C 180.17 167.38 180.65 166.34 180.30 165.40 C 179.95 164.46 178.91 163.98 177.97 164.32 L 177.05 164.66 C 176.11 165.01 175.63 166.06 175.98 167.00 C 176.32 167.94 177.37 168.42 178.31 168.07 Z M 179.29 167.69 L 180.21 167.31 C 181.13 166.93 181.57 165.88 181.19 164.96 C 180.81 164.04 179.76 163.60 178.84 163.98 L 177.91 164.36 C 176.99 164.74 176.56 165.79 176.94 166.71 C 177.31 167.63 178.37 168.07 179.29 167.69 Z M 180.25 167.28 L 181.17 166.87 C 182.07 166.47 182.48 165.41 182.08 164.51 C 181.68 163.61 180.63 163.20 179.72 163.60 L 178.80 164.01 C 177.90 164.41 177.49 165.47 177.89 166.37 C 178.29 167.27 179.34 167.68 180.25 167.28 Z M 181.19 166.85 L 182.11 166.42 C 183.00 166.01 183.39 164.96 182.98 164.07 C 182.57 163.18 181.51 162.79 180.62 163.20 L 179.71 163.63 C 178.82 164.03 178.43 165.09 178.84 165.98 C 179.25 166.87 180.30 167.26 181.19 166.85 Z M 182.12 166.40 L 183.02 165.97 C 183.90 165.56 184.28 164.51 183.86 163.63 C 183.45 162.75 182.40 162.38 181.52 162.79 L 180.61 163.22 C 179.74 163.64 179.36 164.69 179.78 165.56 C 180.19 166.44 181.24 166.82 182.12 166.40 Z M 183.04 165.95 L 183.94 165.51 C 184.80 165.09 185.16 164.05 184.74 163.18 C 184.32 162.31 183.27 161.95 182.41 162.38 L 181.51 162.82 C 180.64 163.24 180.28 164.28 180.70 165.15 C 181.13 166.02 182.17 166.37 183.04 165.95 Z M 183.96 165.49 L 184.85 165.03 C 185.70 164.60 186.04 163.56 185.60 162.71 C 185.17 161.86 184.13 161.52 183.28 161.95 L 182.39 162.40 C 181.54 162.84 181.20 163.88 181.63 164.73 C 182.06 165.58 183.11 165.92 183.96 165.49 Z M 184.87 165.00 L 185.76 164.53 C 186.59 164.08 186.91 163.05 186.46 162.21 C 186.01 161.38 184.97 161.06 184.14 161.51 L 183.25 161.98 C 182.42 162.43 182.10 163.47 182.55 164.30 C 183.00 165.14 184.04 165.45 184.87 165.00 Z M 185.78 164.50 L 186.66 164.01 C 187.48 163.55 187.77 162.51 187.31 161.69 C 186.85 160.87 185.81 160.58 184.99 161.04 L 184.11 161.54 C 183.29 162.00 183.00 163.03 183.46 163.85 C 183.92 164.67 184.96 164.96 185.78 164.50 Z M 186.67 163.98 L 187.54 163.48 C 188.35 163.01 188.62 161.98 188.15 161.17 C 187.68 160.37 186.65 160.09 185.84 160.56 L 184.98 161.07 C 184.17 161.53 183.90 162.57 184.37 163.37 C 184.84 164.18 185.87 164.45 186.67 163.98 Z M 187.54 163.46 L 188.40 162.96 C 189.19 162.49 189.46 161.46 188.99 160.67 C 188.52 159.87 187.49 159.61 186.69 160.08 L 185.84 160.58 C 185.05 161.05 184.78 162.08 185.25 162.87 C 185.72 163.67 186.75 163.93 187.54 163.46 Z M 188.39 162.95 L 189.24 162.44 C 190.03 161.98 190.30 160.96 189.83 160.17 C 189.36 159.38 188.34 159.11 187.55 159.58 L 186.70 160.09 C 185.91 160.55 185.65 161.57 186.12 162.36 C 186.58 163.15 187.60 163.41 188.39 162.95 Z M 189.24 162.44 L 190.09 161.93 C 190.88 161.47 191.14 160.46 190.68 159.67 C 190.21 158.88 189.20 158.62 188.41 159.08 L 187.56 159.59 C 186.77 160.05 186.51 161.07 186.97 161.85 C 187.44 162.64 188.45 162.90 189.24 162.44 Z M 190.09 161.93 L 190.95 161.42 C 191.73 160.96 191.99 159.95 191.53 159.16 C 191.07 158.38 190.06 158.12 189.27 158.58 L 188.41 159.09 C 187.63 159.55 187.37 160.56 187.83 161.35 C 188.30 162.13 189.31 162.39 190.09 161.93 Z M 190.95 161.42 L 191.82 160.90 C 192.60 160.44 192.85 159.43 192.39 158.65 C 191.93 157.87 190.92 157.61 190.14 158.07 L 189.27 158.59 C 188.49 159.05 188.23 160.06 188.70 160.84 C 189.16 161.62 190.17 161.88 190.95 161.42 Z M 191.82 160.89 L 192.65 160.39 C 193.42 159.93 193.67 158.92 193.21 158.14 C 192.74 157.37 191.73 157.12 190.95 157.59 L 190.13 158.08 C 189.35 158.55 189.10 159.56 189.57 160.33 C 190.04 161.11 191.05 161.36 191.82 160.89 Z M 192.66 160.38 L 193.49 159.87 C 194.26 159.40 194.49 158.39 194.02 157.62 C 193.54 156.85 192.53 156.61 191.76 157.09 L 190.94 157.60 C 190.17 158.07 189.93 159.08 190.41 159.85 C 190.88 160.62 191.89 160.86 192.66 160.38 Z M 193.51 159.86 L 194.35 159.31 C 195.11 158.82 195.33 157.81 194.84 157.05 C 194.35 156.29 193.33 156.07 192.57 156.56 L 191.73 157.11 C 190.97 157.60 190.76 158.61 191.25 159.37 C 191.74 160.13 192.75 160.35 193.51 159.86 Z M 194.39 159.29 L 195.25 158.70 C 196.00 158.19 196.19 157.17 195.67 156.42 C 195.16 155.68 194.14 155.49 193.40 156.00 L 192.54 156.59 C 191.79 157.10 191.60 158.12 192.11 158.86 C 192.62 159.61 193.64 159.80 194.39 159.29 Z M 195.29 158.67 L 196.10 158.08 C 196.83 157.55 196.99 156.52 196.45 155.79 C 195.92 155.06 194.89 154.90 194.16 155.44 L 193.36 156.03 C 192.63 156.56 192.47 157.58 193.00 158.31 C 193.53 159.04 194.56 159.20 195.29 158.67 Z M 196.13 158.06 L 196.90 157.46 C 197.62 156.91 197.75 155.88 197.20 155.17 C 196.65 154.45 195.62 154.32 194.90 154.87 L 194.13 155.46 C 193.42 156.01 193.28 157.04 193.83 157.76 C 194.38 158.47 195.41 158.61 196.13 158.06 Z M 196.92 157.45 L 197.70 156.82 C 198.41 156.26 198.53 155.23 197.96 154.52 C 197.40 153.81 196.37 153.70 195.66 154.26 L 194.88 154.88 C 194.17 155.45 194.06 156.48 194.62 157.19 C 195.18 157.89 196.21 158.01 196.92 157.45 Z M 197.72 156.81 L 198.51 156.17 C 199.21 155.59 199.32 154.56 198.74 153.86 C 198.17 153.16 197.14 153.06 196.44 153.63 L 195.65 154.27 C 194.95 154.84 194.84 155.88 195.42 156.58 C 195.99 157.28 197.02 157.38 197.72 156.81 Z M 198.52 156.16 L 199.31 155.50 C 200.01 154.93 200.11 153.90 199.53 153.20 C 198.96 152.50 197.93 152.40 197.23 152.98 L 196.43 153.63 C 195.74 154.21 195.64 155.24 196.21 155.94 C 196.79 156.64 197.82 156.73 198.52 156.16 Z M 199.31 155.50 L 199.50 155.35 C 200.19 154.77 200.29 153.74 199.72 153.04 C 199.14 152.35 198.11 152.25 197.41 152.83 L 197.23 152.98 C 196.53 153.56 196.43 154.59 197.01 155.28 C 197.59 155.98 198.62 156.08 199.31 155.50 Z"
      fill="black"
      fill-rule="nonzero" /></svg>