<svg xmlns="http://www.w3.org/2000/svg" width="300" height="300" viewBox="0 0 300 300">
<path d="M 135.11 77.26 L 134.15 77.53 C 133.19 77.79 132.62 78.79 132.89 79.75 C 133.15 80.71 134.15 81.27 135.11 81.01 L 136.07 80.74 C 137.03 80.48 137.60 79.48 137.33 78.52 C 137.07 77.56 136.07 77.00 135.11 77.26 Z M 133.99 77.54 L 133.06 77.89 C 132.11 78.24 131.62 79.29 131.97 80.25 C 132.32 81.20 133.38 81.69 134.33 81.33 L 135.26 80.99 C 136.21 80.64 136.70 79.58 136.35 78.63 C 136.00 77.68 134.94 77.19 133.99 77.54 Z M 132.76 77.99 L 131.90 78.49 C 131.01 79.01 130.70 80.15 131.22 81.04 C 131.73 81.93 132.87 82.24 133.77 81.73 L 134.63 81.23 C 135.52 80.71 135.83 79.57 135.31 78.68 C 134.80 77.78 133.66 77.48 132.76 77.99 Z M 131.56 78.71 L 130.86 79.35 C 130.09 80.06 130.04 81.25 130.74 82.02 C 131.45 82.79 132.65 82.85 133.42 82.14 L 134.11 81.50 C 134.88 80.80 134.93 79.60 134.23 78.83 C 133.52 78.06 132.33 78.01 131.56 78.71 Z M 130.62 79.59 L 130.02 80.37 C 129.39 81.21 129.55 82.40 130.38 83.04 C 131.22 83.68 132.42 83.52 133.06 82.69 L 133.65 81.90 C 134.29 81.07 134.13 79.87 133.30 79.23 C 132.46 78.59 131.26 78.75 130.62 79.59 Z M 129.87 80.57 L 129.36 81.47 C 128.83 82.39 129.15 83.56 130.07 84.09 C 130.99 84.62 132.17 84.30 132.70 83.38 L 133.21 82.48 C 133.74 81.56 133.42 80.39 132.50 79.86 C 131.57 79.33 130.40 79.65 129.87 80.57 Z M 129.26 81.64 L 128.84 82.59 C 128.40 83.57 128.84 84.71 129.82 85.15 C 130.80 85.58 131.94 85.14 132.37 84.16 L 132.80 83.21 C 133.23 82.23 132.79 81.09 131.81 80.65 C 130.83 80.22 129.69 80.66 129.26 81.64 Z M 128.77 82.74 L 128.43 83.70 C 128.08 84.72 128.62 85.82 129.63 86.18 C 130.65 86.53 131.76 85.99 132.11 84.98 L 132.44 84.01 C 132.79 83.00 132.26 81.89 131.24 81.54 C 130.23 81.19 129.12 81.72 128.77 82.74 Z M 128.39 83.83 L 128.12 84.80 C 127.84 85.84 128.46 86.91 129.50 87.20 C 130.54 87.48 131.61 86.86 131.89 85.82 L 132.15 84.85 C 132.44 83.81 131.82 82.74 130.78 82.46 C 129.74 82.17 128.67 82.79 128.39 83.83 Z M 128.09 84.92 L 127.89 85.88 C 127.68 86.94 128.36 87.98 129.42 88.19 C 130.48 88.41 131.51 87.72 131.73 86.67 L 131.93 85.70 C 132.14 84.64 131.46 83.61 130.40 83.39 C 129.34 83.18 128.31 83.86 128.09 84.92 Z M 127.87 85.99 L 127.73 86.98 C 127.57 88.05 128.32 89.05 129.39 89.20 C 130.46 89.36 131.46 88.61 131.61 87.54 L 131.75 86.55 C 131.91 85.48 131.16 84.49 130.09 84.33 C 129.02 84.18 128.03 84.92 127.87 85.99 Z M 127.72 87.08 L 127.63 88.07 C 127.53 89.15 128.32 90.11 129.40 90.20 C 130.48 90.30 131.44 89.50 131.53 88.43 L 131.62 87.44 C 131.72 86.36 130.92 85.40 129.85 85.31 C 128.77 85.21 127.81 86.01 127.72 87.08 Z M 127.62 88.15 L 127.57 89.14 C 127.52 90.22 128.36 91.14 129.44 91.20 C 130.52 91.25 131.44 90.41 131.49 89.33 L 131.54 88.34 C 131.59 87.26 130.76 86.34 129.67 86.29 C 128.59 86.24 127.67 87.07 127.62 88.15 Z M 127.57 89.19 L 127.55 90.19 C 127.52 91.27 128.38 92.17 129.46 92.20 C 130.55 92.22 131.45 91.36 131.47 90.28 L 131.49 89.28 C 131.52 88.20 130.66 87.30 129.58 87.28 C 128.49 87.25 127.60 88.11 127.57 89.19 Z M 127.55 90.21 L 127.54 91.20 C 127.53 92.29 128.39 93.17 129.48 93.18 C 130.56 93.20 131.45 92.33 131.46 91.24 L 131.47 90.26 C 131.48 89.17 130.61 88.28 129.53 88.27 C 128.45 88.26 127.56 89.13 127.55 90.21 Z M 127.54 91.22 L 127.54 92.23 C 127.54 93.31 128.42 94.19 129.50 94.19 C 130.58 94.19 131.46 93.32 131.46 92.23 L 131.46 91.22 C 131.46 90.14 130.58 89.26 129.50 89.26 C 128.42 89.26 127.54 90.14 127.54 91.22 Z M 127.54 92.25 L 127.55 93.26 C 127.56 94.34 128.45 95.21 129.53 95.20 C 130.61 95.19 131.48 94.30 131.47 93.22 L 131.46 92.21 C 131.45 91.13 130.56 90.26 129.48 90.27 C 128.40 90.28 127.53 91.17 127.54 92.25 Z M 127.55 93.29 L 127.57 94.31 C 127.60 95.39 128.49 96.25 129.58 96.22 C 130.66 96.20 131.51 95.30 131.49 94.22 L 131.47 93.20 C 131.44 92.12 130.55 91.26 129.47 91.28 C 128.38 91.31 127.53 92.20 127.55 93.29 Z M 127.58 94.37 L 127.63 95.38 C 127.69 96.46 128.61 97.28 129.69 97.23 C 130.77 97.17 131.60 96.25 131.54 95.17 L 131.49 94.16 C 131.43 93.08 130.51 92.25 129.43 92.31 C 128.35 92.37 127.52 93.29 127.58 94.37 Z M 127.64 95.50 L 127.76 96.48 C 127.88 97.55 128.85 98.32 129.93 98.20 C 131.00 98.07 131.77 97.10 131.64 96.03 L 131.53 95.05 C 131.40 93.97 130.43 93.20 129.36 93.33 C 128.29 93.46 127.52 94.43 127.64 95.50 Z M 127.79 96.66 L 128.00 97.62 C 128.23 98.68 129.26 99.35 130.32 99.12 C 131.37 98.90 132.04 97.86 131.82 96.80 L 131.61 95.84 C 131.38 94.79 130.34 94.12 129.29 94.34 C 128.24 94.57 127.57 95.61 127.79 96.66 Z M 128.06 97.84 L 128.39 98.80 C 128.73 99.82 129.84 100.36 130.86 100.02 C 131.87 99.67 132.42 98.57 132.08 97.55 L 131.75 96.59 C 131.41 95.57 130.30 95.02 129.28 95.37 C 128.26 95.71 127.72 96.82 128.06 97.84 Z M 128.46 98.98 L 128.88 99.89 C 129.32 100.86 130.47 101.29 131.45 100.85 C 132.42 100.41 132.86 99.26 132.41 98.28 L 132.00 97.37 C 131.56 96.39 130.40 95.96 129.43 96.41 C 128.45 96.85 128.02 98.00 128.46 98.98 Z M 128.96 100.03 L 129.44 100.88 C 129.96 101.82 131.13 102.15 132.07 101.63 C 133.00 101.11 133.33 99.93 132.81 99.00 L 132.34 98.14 C 131.82 97.21 130.64 96.87 129.70 97.39 C 128.77 97.91 128.44 99.09 128.96 100.03 Z M 129.52 101.01 L 130.07 101.83 C 130.65 102.72 131.85 102.97 132.74 102.38 C 133.62 101.79 133.87 100.60 133.28 99.71 L 132.73 98.88 C 132.14 97.99 130.95 97.75 130.06 98.34 C 129.17 98.92 128.93 100.12 129.52 101.01 Z M 130.20 102.00 L 130.83 102.75 C 131.51 103.57 132.71 103.68 133.53 103.00 C 134.34 102.32 134.45 101.11 133.78 100.30 L 133.15 99.54 C 132.47 98.73 131.26 98.62 130.45 99.30 C 129.63 99.98 129.52 101.18 130.20 102.00 Z M 131.03 102.95 L 131.78 103.62 C 132.57 104.33 133.77 104.26 134.48 103.47 C 135.18 102.69 135.11 101.48 134.33 100.78 L 133.58 100.11 C 132.79 99.40 131.58 99.47 130.88 100.25 C 130.18 101.04 130.24 102.25 131.03 102.95 Z M 132.02 103.80 L 132.84 104.33 C 133.72 104.90 134.90 104.65 135.47 103.77 C 136.04 102.89 135.79 101.71 134.91 101.14 L 134.09 100.61 C 133.21 100.03 132.03 100.28 131.46 101.16 C 130.89 102.05 131.14 103.22 132.02 103.80 Z M 133.05 104.44 L 133.95 104.88 C 134.90 105.33 136.03 104.94 136.49 103.99 C 136.94 103.05 136.55 101.92 135.60 101.46 L 134.70 101.03 C 133.76 100.57 132.62 100.97 132.17 101.91 C 131.71 102.85 132.11 103.99 133.05 104.44 Z M 134.14 104.95 L 135.11 105.30 C 136.09 105.65 137.17 105.13 137.52 104.14 C 137.87 103.16 137.36 102.08 136.37 101.73 L 135.41 101.39 C 134.43 101.04 133.34 101.55 132.99 102.54 C 132.64 103.52 133.16 104.60 134.14 104.95 Z M 135.30 105.35 L 136.28 105.58 C 137.29 105.83 138.31 105.20 138.56 104.19 C 138.80 103.17 138.18 102.16 137.16 101.91 L 136.18 101.68 C 135.17 101.43 134.15 102.06 133.90 103.07 C 133.66 104.08 134.28 105.10 135.30 105.35 Z M 136.48 105.61 L 137.47 105.74 C 138.50 105.87 139.44 105.15 139.58 104.12 C 139.71 103.10 138.99 102.15 137.96 102.02 L 136.97 101.89 C 135.94 101.75 135.00 102.47 134.86 103.50 C 134.73 104.53 135.45 105.47 136.48 105.61 Z M 137.63 105.74 L 138.62 105.79 C 139.64 105.84 140.52 105.04 140.57 104.02 C 140.62 102.99 139.82 102.12 138.80 102.07 L 137.81 102.02 C 136.78 101.97 135.91 102.76 135.86 103.79 C 135.81 104.82 136.60 105.69 137.63 105.74 Z M 138.71 105.77 L 139.71 105.77 C 140.73 105.77 141.55 104.94 141.55 103.92 C 141.55 102.90 140.72 102.07 139.70 102.08 L 138.70 102.08 C 137.68 102.08 136.86 102.91 136.86 103.93 C 136.86 104.95 137.69 105.78 138.71 105.77 Z M 139.75 105.75 L 140.72 105.73 C 141.73 105.70 142.53 104.86 142.50 103.85 C 142.47 102.84 141.63 102.04 140.62 102.07 L 139.66 102.09 C 138.64 102.12 137.85 102.96 137.87 103.97 C 137.90 104.98 138.74 105.78 139.75 105.75 Z M 140.78 105.71 L 141.76 105.65 C 142.76 105.59 143.52 104.72 143.46 103.72 C 143.40 102.72 142.53 101.96 141.53 102.02 L 140.55 102.09 C 139.55 102.15 138.79 103.01 138.85 104.01 C 138.92 105.01 139.78 105.78 140.78 105.71 Z M 141.88 105.62 L 142.88 105.49 C 143.87 105.36 144.56 104.46 144.43 103.47 C 144.30 102.48 143.40 101.79 142.41 101.92 L 141.41 102.05 C 140.42 102.18 139.73 103.09 139.86 104.07 C 139.99 105.06 140.90 105.75 141.88 105.62 Z M 143.04 105.45 L 144.04 105.22 C 145.01 105.00 145.61 104.04 145.39 103.08 C 145.17 102.12 144.21 101.52 143.25 101.74 L 142.25 101.96 C 141.29 102.18 140.69 103.14 140.91 104.10 C 141.12 105.06 142.08 105.67 143.04 105.45 Z M 144.20 105.16 L 145.09 104.87 C 146.02 104.57 146.53 103.57 146.22 102.64 C 145.92 101.71 144.92 101.20 143.99 101.50 L 143.10 101.79 C 142.17 102.10 141.66 103.10 141.96 104.03 C 142.27 104.96 143.27 105.47 144.20 105.16 Z M 145.19 104.82 L 146.10 104.46 C 147.00 104.09 147.44 103.07 147.08 102.17 C 146.72 101.27 145.70 100.83 144.80 101.19 L 143.88 101.56 C 142.98 101.92 142.54 102.94 142.91 103.84 C 143.27 104.74 144.29 105.18 145.19 104.82 Z M 146.17 104.41 L 147.10 103.99 C 147.98 103.59 148.37 102.55 147.97 101.68 C 147.57 100.80 146.53 100.41 145.66 100.81 L 144.73 101.24 C 143.85 101.63 143.46 102.67 143.86 103.55 C 144.26 104.42 145.29 104.81 146.17 104.41 Z M 147.15 103.95 L 148.10 103.48 C 148.96 103.06 149.31 102.02 148.89 101.16 C 148.46 100.31 147.43 99.95 146.57 100.38 L 145.62 100.85 C 144.76 101.27 144.41 102.31 144.83 103.16 C 145.25 104.02 146.29 104.37 147.15 103.95 Z M 148.12 103.46 L 148.96 103.03 C 149.80 102.59 150.14 101.56 149.70 100.71 C 149.27 99.87 148.23 99.54 147.39 99.97 L 146.55 100.40 C 145.71 100.83 145.37 101.87 145.81 102.71 C 146.24 103.56 147.27 103.89 148.12 103.46 Z M 148.97 103.01 L 149.81 102.57 C 150.64 102.13 150.96 101.10 150.53 100.27 C 150.09 99.43 149.06 99.11 148.22 99.55 L 147.38 99.99 C 146.55 100.42 146.22 101.45 146.66 102.29 C 147.10 103.13 148.13 103.45 148.97 103.01 Z M 149.81 102.56 L 150.68 102.10 C 151.51 101.66 151.82 100.63 151.38 99.80 C 150.95 98.98 149.92 98.66 149.09 99.10 L 148.22 99.56 C 147.39 100.00 147.08 101.02 147.51 101.85 C 147.95 102.68 148.98 103.00 149.81 102.56 Z M 150.67 102.09 L 151.58 101.61 C 152.40 101.17 152.72 100.15 152.28 99.33 C 151.85 98.51 150.83 98.19 150.00 98.63 L 149.10 99.11 C 148.27 99.54 147.96 100.56 148.39 101.39 C 148.83 102.21 149.85 102.52 150.67 102.09 Z M 151.57 101.60 L 152.52 101.10 C 153.34 100.67 153.66 99.66 153.23 98.84 C 152.80 98.02 151.79 97.70 150.97 98.13 L 150.01 98.63 C 149.19 99.06 148.88 100.08 149.31 100.90 C 149.74 101.72 150.75 102.03 151.57 101.60 Z M 152.51 101.10 L 153.42 100.62 C 154.24 100.20 154.56 99.19 154.14 98.38 C 153.71 97.56 152.71 97.24 151.89 97.66 L 150.98 98.14 C 150.16 98.56 149.84 99.57 150.27 100.38 C 150.69 101.20 151.69 101.52 152.51 101.10 Z M 153.41 100.62 L 154.32 100.16 C 155.14 99.75 155.46 98.75 155.05 97.93 C 154.63 97.11 153.63 96.78 152.81 97.20 L 151.90 97.66 C 151.09 98.08 150.76 99.08 151.18 99.90 C 151.59 100.71 152.59 101.04 153.41 100.62 Z M 154.30 100.17 L 155.23 99.71 C 156.05 99.30 156.38 98.31 155.97 97.49 C 155.57 96.67 154.57 96.33 153.75 96.74 L 152.83 97.20 C 152.01 97.60 151.68 98.60 152.08 99.42 C 152.49 100.24 153.48 100.57 154.30 100.17 Z M 155.21 99.71 L 156.13 99.27 C 156.95 98.87 157.30 97.88 156.90 97.06 C 156.50 96.24 155.52 95.90 154.70 96.29 L 153.77 96.73 C 152.95 97.13 152.61 98.12 153.00 98.94 C 153.40 99.76 154.39 100.11 155.21 99.71 Z M 156.10 99.27 L 157.01 98.86 C 157.83 98.48 158.19 97.50 157.81 96.67 C 157.43 95.85 156.45 95.49 155.62 95.87 L 154.72 96.28 C 153.90 96.67 153.54 97.65 153.92 98.47 C 154.30 99.30 155.28 99.66 156.10 99.27 Z M 156.97 98.87 L 157.84 98.49 C 158.67 98.12 159.05 97.15 158.69 96.32 C 158.32 95.49 157.35 95.11 156.52 95.48 L 155.66 95.86 C 154.83 96.22 154.45 97.19 154.81 98.02 C 155.17 98.85 156.14 99.23 156.97 98.87 Z M 157.80 98.50 L 158.81 98.09 C 159.65 97.75 160.06 96.80 159.72 95.96 C 159.38 95.12 158.42 94.71 157.58 95.05 L 156.57 95.46 C 155.73 95.80 155.32 96.76 155.66 97.60 C 156.00 98.44 156.96 98.84 157.80 98.50 Z M 158.76 98.11 L 159.74 97.75 C 160.59 97.44 161.02 96.50 160.71 95.65 C 160.40 94.80 159.46 94.37 158.61 94.68 L 157.64 95.03 C 156.79 95.34 156.35 96.28 156.66 97.13 C 156.97 97.98 157.91 98.42 158.76 98.11 Z M 159.69 97.77 L 160.62 97.46 C 161.48 97.18 161.94 96.25 161.65 95.39 C 161.37 94.53 160.44 94.07 159.58 94.35 L 158.66 94.66 C 157.80 94.95 157.34 95.87 157.62 96.73 C 157.91 97.59 158.83 98.05 159.69 97.77 Z M 160.59 97.47 L 161.48 97.19 C 162.34 96.93 162.82 96.01 162.55 95.15 C 162.29 94.28 161.37 93.80 160.51 94.07 L 159.61 94.34 C 158.75 94.61 158.27 95.53 158.54 96.39 C 158.80 97.26 159.72 97.74 160.59 97.47 Z M 161.46 97.20 L 162.06 97.02 C 162.92 96.76 163.41 95.85 163.15 94.98 C 162.89 94.11 161.98 93.62 161.11 93.88 L 160.52 94.06 C 159.65 94.32 159.16 95.24 159.42 96.10 C 159.68 96.97 160.60 97.46 161.46 97.20 Z"
      fill="black"
      fill-rule="nonzero" /><path d="M 123.36 125.61 L 122.57 126.17 C 121.72 126.77 121.52 127.95 122.12 128.81 C 122.72 129.66 123.90 129.86 124.76 129.26 L 125.54 128.70 C 126.40 128.10 126.60 126.92 126.00 126.07 C 125.40 125.21 124.21 125.01 123.36 125.61 Z M 122.54 126.20 L 121.75 126.78 C 120.92 127.41 120.74 128.59 121.36 129.42 C 121.98 130.26 123.16 130.44 124.00 129.81 L 124.79 129.23 C 125.63 128.61 125.80 127.43 125.18 126.59 C 124.56 125.75 123.38 125.58 122.54 126.20 Z M 121.69 126.84 L 120.89 127.49 C 120.09 128.15 119.97 129.33 120.62 130.13 C 121.28 130.94 122.46 131.06 123.27 130.41 L 124.06 129.76 C 124.87 129.10 124.99 127.92 124.33 127.11 C 123.68 126.31 122.50 126.19 121.69 126.84 Z M 120.80 127.57 L 119.94 128.37 C 119.18 129.07 119.13 130.26 119.84 131.02 C 120.54 131.79 121.73 131.83 122.49 131.13 L 123.36 130.33 C 124.12 129.62 124.17 128.43 123.46 127.67 C 122.76 126.91 121.57 126.86 120.80 127.57 Z M 119.81 128.48 L 119.04 129.34 C 118.34 130.12 118.40 131.32 119.18 132.02 C 119.96 132.71 121.16 132.65 121.85 131.87 L 122.62 131.01 C 123.32 130.23 123.26 129.04 122.48 128.34 C 121.70 127.64 120.50 127.71 119.81 128.48 Z M 118.78 129.67 L 118.38 130.39 C 117.86 131.31 118.19 132.47 119.11 132.99 C 120.03 133.51 121.19 133.18 121.71 132.26 L 122.11 131.54 C 122.63 130.62 122.30 129.46 121.38 128.94 C 120.46 128.43 119.30 128.75 118.78 129.67 Z M 118.30 132.14 L 118.50 132.57 C 118.95 133.53 120.10 133.94 121.06 133.49 C 122.02 133.04 122.44 131.89 121.98 130.93 L 121.79 130.51 C 121.33 129.54 120.19 129.13 119.22 129.58 C 118.26 130.03 117.85 131.18 118.30 132.14 Z M 120.08 133.68 L 120.91 133.75 C 121.98 133.84 122.92 133.05 123.01 131.98 C 123.09 130.91 122.30 129.97 121.23 129.88 L 120.40 129.81 C 119.33 129.72 118.39 130.52 118.30 131.59 C 118.22 132.65 119.01 133.59 120.08 133.68 Z M 121.41 133.74 L 122.70 133.52 C 123.76 133.33 124.47 132.32 124.29 131.25 C 124.10 130.19 123.09 129.48 122.02 129.66 L 120.73 129.89 C 119.67 130.08 118.96 131.09 119.14 132.15 C 119.33 133.22 120.34 133.93 121.41 133.74 Z M 122.88 133.49 L 123.91 133.20 C 124.96 132.92 125.58 131.84 125.29 130.79 C 125.00 129.74 123.92 129.12 122.87 129.41 L 121.84 129.69 C 120.79 129.98 120.18 131.06 120.46 132.11 C 120.75 133.16 121.83 133.77 122.88 133.49 Z M 123.99 133.18 L 124.95 132.88 C 125.99 132.55 126.56 131.44 126.23 130.40 C 125.90 129.37 124.80 128.79 123.76 129.12 L 122.80 129.43 C 121.76 129.76 121.19 130.87 121.52 131.90 C 121.85 132.94 122.95 133.51 123.99 133.18 Z M 125.00 132.86 L 125.98 132.53 C 127.01 132.17 127.56 131.05 127.20 130.02 C 126.85 128.99 125.73 128.45 124.70 128.80 L 123.72 129.14 C 122.69 129.49 122.14 130.61 122.49 131.64 C 122.85 132.67 123.97 133.22 125.00 132.86 Z M 126.01 132.52 L 126.97 132.17 C 128.00 131.80 128.53 130.67 128.16 129.65 C 127.79 128.62 126.66 128.09 125.64 128.46 L 124.67 128.81 C 123.65 129.18 123.12 130.31 123.48 131.33 C 123.85 132.35 124.98 132.89 126.01 132.52 Z M 126.98 132.17 L 127.89 131.84 C 128.91 131.46 129.44 130.33 129.06 129.31 C 128.69 128.28 127.56 127.76 126.53 128.13 L 125.63 128.46 C 124.60 128.84 124.08 129.97 124.45 130.99 C 124.82 132.02 125.96 132.54 126.98 132.17 Z M 127.88 131.84 L 128.93 131.46 C 129.95 131.09 130.48 129.96 130.11 128.93 C 129.74 127.91 128.61 127.38 127.58 127.75 L 126.54 128.13 C 125.51 128.50 124.98 129.63 125.36 130.66 C 125.73 131.68 126.86 132.21 127.88 131.84 Z M 128.92 131.46 L 129.86 131.13 C 130.89 130.76 131.43 129.63 131.06 128.61 C 130.70 127.58 129.57 127.05 128.54 127.41 L 127.60 127.75 C 126.57 128.11 126.03 129.24 126.40 130.27 C 126.76 131.29 127.89 131.83 128.92 131.46 Z M 129.85 131.13 L 130.74 130.82 C 131.77 130.46 132.31 129.33 131.95 128.31 C 131.59 127.28 130.46 126.74 129.44 127.10 L 128.55 127.41 C 127.53 127.77 126.99 128.89 127.34 129.92 C 127.70 130.95 128.83 131.49 129.85 131.13 Z M 130.73 130.82 L 131.61 130.51 C 132.64 130.16 133.18 129.03 132.83 128.01 C 132.47 126.98 131.35 126.44 130.32 126.79 L 129.44 127.10 C 128.42 127.46 127.87 128.58 128.23 129.60 C 128.59 130.63 129.71 131.17 130.73 130.82 Z M 131.61 130.51 L 132.53 130.19 C 133.56 129.83 134.10 128.71 133.74 127.69 C 133.39 126.66 132.27 126.12 131.24 126.48 L 130.32 126.80 C 129.30 127.15 128.75 128.27 129.11 129.30 C 129.47 130.32 130.59 130.87 131.61 130.51 Z M 132.54 130.19 L 133.48 129.86 C 134.50 129.50 135.04 128.38 134.69 127.36 C 134.33 126.33 133.21 125.79 132.19 126.15 L 131.24 126.48 C 130.22 126.84 129.68 127.96 130.03 128.98 C 130.39 130.01 131.51 130.54 132.54 130.19 Z M 133.49 129.85 L 134.45 129.51 C 135.47 129.15 136.01 128.03 135.65 127.01 C 135.28 125.99 134.16 125.45 133.14 125.81 L 132.18 126.15 C 131.16 126.52 130.62 127.64 130.98 128.66 C 131.34 129.68 132.47 130.21 133.49 129.85 Z M 134.46 129.51 L 135.40 129.17 C 136.42 128.80 136.95 127.68 136.58 126.66 C 136.22 125.64 135.10 125.11 134.08 125.48 L 133.13 125.82 C 132.12 126.19 131.59 127.31 131.95 128.32 C 132.32 129.34 133.44 129.87 134.46 129.51 Z M 135.41 129.16 L 136.35 128.82 C 137.36 128.45 137.88 127.33 137.51 126.31 C 137.14 125.30 136.02 124.78 135.01 125.15 L 134.07 125.49 C 133.06 125.86 132.54 126.98 132.91 127.99 C 133.28 129.01 134.40 129.53 135.41 129.16 Z M 136.35 128.81 L 137.29 128.46 C 138.30 128.09 138.82 126.97 138.45 125.96 C 138.08 124.95 136.96 124.43 135.95 124.81 L 135.00 125.15 C 133.99 125.52 133.48 126.64 133.85 127.66 C 134.22 128.67 135.34 129.18 136.35 128.81 Z M 137.29 128.46 L 138.24 128.11 C 139.25 127.74 139.76 126.62 139.39 125.61 C 139.01 124.60 137.90 124.09 136.89 124.46 L 135.94 124.81 C 134.94 125.18 134.42 126.30 134.79 127.31 C 135.17 128.32 136.29 128.83 137.29 128.46 Z M 138.24 128.10 L 139.17 127.76 C 140.18 127.39 140.69 126.27 140.32 125.27 C 139.94 124.26 138.83 123.75 137.82 124.12 L 136.89 124.47 C 135.88 124.84 135.37 125.95 135.74 126.96 C 136.12 127.96 137.23 128.48 138.24 128.10 Z M 139.17 127.75 L 140.10 127.41 C 141.10 127.04 141.62 125.93 141.25 124.92 C 140.88 123.92 139.76 123.41 138.76 123.78 L 137.83 124.13 C 136.83 124.50 136.31 125.61 136.68 126.61 C 137.05 127.61 138.17 128.12 139.17 127.75 Z M 140.10 127.40 L 141.04 127.06 C 142.04 126.69 142.55 125.58 142.18 124.58 C 141.81 123.58 140.71 123.07 139.71 123.44 L 138.77 123.79 C 137.77 124.15 137.26 125.26 137.62 126.26 C 137.99 127.26 139.10 127.77 140.10 127.40 Z M 141.03 127.05 L 141.98 126.71 C 142.97 126.34 143.49 125.24 143.12 124.24 C 142.76 123.25 141.65 122.73 140.66 123.10 L 139.71 123.44 C 138.72 123.81 138.20 124.91 138.57 125.91 C 138.93 126.90 140.03 127.42 141.03 127.05 Z M 141.97 126.70 L 142.89 126.37 C 143.88 126.01 144.39 124.91 144.03 123.92 C 143.67 122.92 142.58 122.41 141.58 122.77 L 140.67 123.10 C 139.67 123.46 139.16 124.56 139.52 125.56 C 139.88 126.55 140.98 127.06 141.97 126.70 Z M 142.88 126.36 L 143.81 126.02 C 144.80 125.67 145.31 124.57 144.95 123.59 C 144.60 122.60 143.50 122.08 142.51 122.44 L 141.59 122.78 C 140.60 123.14 140.09 124.23 140.44 125.22 C 140.80 126.21 141.89 126.72 142.88 126.36 Z M 143.81 126.02 L 144.76 125.67 C 145.74 125.31 146.25 124.22 145.89 123.24 C 145.53 122.26 144.44 121.75 143.46 122.11 L 142.51 122.45 C 141.53 122.81 141.02 123.90 141.38 124.88 C 141.74 125.87 142.83 126.37 143.81 126.02 Z M 144.76 125.66 L 145.73 125.30 C 146.71 124.94 147.21 123.86 146.85 122.88 C 146.48 121.90 145.40 121.40 144.42 121.76 L 143.45 122.12 C 142.48 122.48 141.98 123.57 142.34 124.54 C 142.70 125.52 143.79 126.02 144.76 125.66 Z M 145.74 125.29 L 146.66 124.94 C 147.63 124.57 148.13 123.49 147.76 122.52 C 147.40 121.55 146.31 121.06 145.34 121.43 L 144.42 121.78 C 143.45 122.14 142.95 123.22 143.32 124.19 C 143.68 125.16 144.77 125.65 145.74 125.29 Z M 146.67 124.93 L 147.61 124.57 C 148.57 124.20 149.05 123.13 148.69 122.16 C 148.32 121.20 147.25 120.72 146.28 121.08 L 145.34 121.44 C 144.38 121.81 143.90 122.88 144.26 123.84 C 144.63 124.81 145.70 125.29 146.67 124.93 Z M 147.60 124.56 L 148.54 124.20 C 149.50 123.83 149.98 122.77 149.62 121.81 C 149.25 120.85 148.19 120.37 147.23 120.74 L 146.29 121.10 C 145.33 121.46 144.85 122.53 145.21 123.48 C 145.58 124.44 146.65 124.92 147.60 124.56 Z M 148.54 124.19 L 149.47 123.84 C 150.42 123.48 150.90 122.42 150.54 121.47 C 150.18 120.52 149.12 120.04 148.17 120.40 L 147.24 120.75 C 146.29 121.11 145.81 122.17 146.17 123.12 C 146.53 124.07 147.59 124.55 148.54 124.19 Z M 149.46 123.83 L 150.40 123.48 C 151.35 123.13 151.83 122.07 151.48 121.13 C 151.13 120.18 150.08 119.70 149.13 120.05 L 148.18 120.40 C 147.24 120.75 146.76 121.81 147.11 122.75 C 147.46 123.70 148.51 124.18 149.46 123.83 Z M 150.39 123.47 L 151.33 123.13 C 152.27 122.78 152.76 121.74 152.41 120.80 C 152.07 119.86 151.03 119.37 150.09 119.72 L 149.15 120.06 C 148.20 120.40 147.72 121.44 148.06 122.38 C 148.40 123.33 149.45 123.81 150.39 123.47 Z M 151.31 123.12 L 152.25 122.79 C 153.19 122.45 153.68 121.42 153.34 120.48 C 153.01 119.54 151.97 119.05 151.04 119.39 L 150.10 119.72 C 149.16 120.06 148.67 121.09 149.01 122.03 C 149.34 122.97 150.38 123.46 151.31 123.12 Z M 152.23 122.78 L 153.17 122.45 C 154.11 122.13 154.60 121.10 154.27 120.17 C 153.94 119.23 152.92 118.74 151.99 119.07 L 151.05 119.40 C 150.12 119.72 149.62 120.75 149.95 121.68 C 150.28 122.62 151.30 123.11 152.23 122.78 Z M 153.16 122.45 L 154.09 122.12 C 155.02 121.80 155.52 120.79 155.20 119.86 C 154.88 118.93 153.86 118.43 152.93 118.75 L 152.00 119.08 C 151.07 119.40 150.57 120.41 150.89 121.34 C 151.21 122.27 152.23 122.77 153.16 122.45 Z M 154.08 122.12 L 155.02 121.80 C 155.95 121.49 156.44 120.48 156.13 119.55 C 155.81 118.63 154.81 118.13 153.88 118.44 L 152.94 118.76 C 152.02 119.08 151.52 120.08 151.83 121.01 C 152.15 121.93 153.15 122.43 154.08 122.12 Z M 155.01 121.79 L 155.96 121.47 C 156.88 121.17 157.38 120.17 157.07 119.25 C 156.76 118.32 155.76 117.83 154.84 118.13 L 153.89 118.45 C 152.97 118.76 152.47 119.76 152.78 120.68 C 153.09 121.60 154.09 122.10 155.01 121.79 Z M 155.95 121.47 L 156.91 121.15 C 157.83 120.84 158.33 119.85 158.02 118.94 C 157.72 118.02 156.73 117.52 155.81 117.82 L 154.85 118.14 C 153.93 118.45 153.44 119.44 153.74 120.35 C 154.04 121.27 155.03 121.77 155.95 121.47 Z M 156.90 121.14 L 157.86 120.83 C 158.77 120.53 159.27 119.54 158.97 118.63 C 158.67 117.72 157.69 117.22 156.77 117.52 L 155.82 117.83 C 154.91 118.13 154.41 119.12 154.71 120.03 C 155.01 120.94 155.99 121.44 156.90 121.14 Z M 157.85 120.82 L 158.80 120.51 C 159.71 120.21 160.21 119.24 159.91 118.33 C 159.61 117.42 158.64 116.92 157.73 117.22 L 156.78 117.53 C 155.87 117.82 155.37 118.80 155.67 119.71 C 155.97 120.62 156.94 121.11 157.85 120.82 Z M 158.79 120.50 L 159.75 120.19 C 160.65 119.90 161.15 118.93 160.85 118.02 C 160.56 117.12 159.59 116.62 158.68 116.92 L 157.73 117.23 C 156.83 117.52 156.33 118.49 156.63 119.40 C 156.92 120.30 157.89 120.80 158.79 120.50 Z M 159.74 120.19 L 160.70 119.88 C 161.60 119.59 162.09 118.62 161.80 117.72 C 161.51 116.82 160.54 116.33 159.64 116.62 L 158.69 116.93 C 157.79 117.22 157.29 118.18 157.59 119.08 C 157.88 119.98 158.84 120.48 159.74 120.19 Z M 160.69 119.87 L 161.65 119.56 C 162.54 119.27 163.03 118.31 162.75 117.42 C 162.46 116.52 161.50 116.03 160.60 116.32 L 159.65 116.63 C 158.75 116.91 158.26 117.87 158.55 118.77 C 158.84 119.67 159.80 120.16 160.69 119.87 Z M 161.64 119.55 L 162.59 119.25 C 163.48 118.96 163.97 118.01 163.68 117.12 C 163.40 116.22 162.44 115.73 161.55 116.02 L 160.60 116.33 C 159.71 116.61 159.22 117.57 159.51 118.46 C 159.80 119.35 160.75 119.84 161.64 119.55 Z M 162.58 119.24 L 163.53 118.94 C 164.42 118.66 164.91 117.71 164.63 116.82 C 164.34 115.93 163.39 115.44 162.51 115.72 L 161.56 116.03 C 160.67 116.31 160.18 117.26 160.46 118.15 C 160.74 119.04 161.69 119.53 162.58 119.24 Z M 163.52 118.94 L 164.47 118.64 C 165.36 118.36 165.86 117.42 165.58 116.53 C 165.30 115.65 164.36 115.15 163.47 115.43 L 162.52 115.73 C 161.63 116.01 161.14 116.95 161.41 117.83 C 161.69 118.72 162.63 119.22 163.52 118.94 Z M 164.46 118.64 L 165.43 118.34 C 166.31 118.07 166.81 117.14 166.54 116.25 C 166.27 115.37 165.34 114.87 164.45 115.14 L 163.49 115.43 C 162.60 115.70 162.10 116.64 162.37 117.52 C 162.64 118.41 163.58 118.91 164.46 118.64 Z M 165.41 118.34 L 166.35 118.06 C 167.24 117.81 167.74 116.88 167.48 115.99 C 167.22 115.11 166.30 114.60 165.41 114.86 L 164.47 115.14 C 163.59 115.40 163.08 116.33 163.34 117.21 C 163.60 118.09 164.53 118.60 165.41 118.34 Z M 166.34 118.06 L 167.29 117.79 C 168.17 117.54 168.69 116.62 168.43 115.74 C 168.18 114.85 167.26 114.34 166.38 114.59 L 165.43 114.86 C 164.54 115.12 164.03 116.04 164.28 116.92 C 164.54 117.80 165.46 118.32 166.34 118.06 Z M 167.28 117.79 L 168.24 117.52 C 169.13 117.27 169.64 116.36 169.39 115.48 C 169.15 114.59 168.23 114.08 167.35 114.33 L 166.39 114.60 C 165.50 114.84 164.99 115.76 165.24 116.64 C 165.48 117.52 166.40 118.04 167.28 117.79 Z M 168.24 117.52 L 169.22 117.25 C 170.10 117.00 170.61 116.09 170.37 115.21 C 170.12 114.33 169.21 113.81 168.33 114.06 L 167.35 114.33 C 166.47 114.57 165.96 115.49 166.20 116.37 C 166.45 117.25 167.36 117.76 168.24 117.52 Z M 169.22 117.24 L 170.20 116.97 C 171.08 116.72 171.59 115.81 171.35 114.93 C 171.10 114.06 170.19 113.54 169.32 113.79 L 168.33 114.06 C 167.45 114.31 166.94 115.22 167.18 116.10 C 167.43 116.97 168.34 117.49 169.22 117.24 Z M 170.21 116.96 L 171.19 116.68 C 172.07 116.44 172.58 115.53 172.33 114.65 C 172.08 113.78 171.17 113.27 170.30 113.51 L 169.31 113.79 C 168.44 114.04 167.93 114.95 168.17 115.82 C 168.42 116.70 169.33 117.21 170.21 116.96 Z M 171.19 116.68 L 172.17 116.40 C 173.05 116.15 173.56 115.24 173.31 114.37 C 173.06 113.50 172.15 112.99 171.28 113.24 L 170.30 113.52 C 169.42 113.77 168.91 114.67 169.16 115.55 C 169.41 116.42 170.32 116.93 171.19 116.68 Z M 172.18 116.40 L 173.14 116.12 C 174.01 115.87 174.51 114.96 174.27 114.09 C 174.02 113.22 173.11 112.72 172.24 112.97 L 171.27 113.24 C 170.40 113.49 169.90 114.40 170.15 115.27 C 170.40 116.14 171.31 116.65 172.18 116.40 Z M 173.14 116.12 L 174.07 115.85 C 174.94 115.60 175.44 114.69 175.19 113.82 C 174.94 112.95 174.03 112.45 173.16 112.70 L 172.23 112.97 C 171.36 113.22 170.86 114.13 171.11 115.00 C 171.36 115.87 172.27 116.37 173.14 116.12 Z M 174.07 115.85 L 175.08 115.56 C 175.95 115.30 176.44 114.40 176.19 113.53 C 175.94 112.66 175.03 112.16 174.16 112.41 L 173.16 112.70 C 172.29 112.96 171.79 113.87 172.04 114.73 C 172.30 115.60 173.21 116.10 174.07 115.85 Z M 175.08 115.56 L 176.07 115.27 C 176.94 115.01 177.44 114.10 177.18 113.23 C 176.93 112.37 176.02 111.87 175.15 112.12 L 174.16 112.41 C 173.29 112.67 172.79 113.58 173.05 114.45 C 173.30 115.31 174.21 115.81 175.08 115.56 Z M 176.07 115.26 L 177.01 114.99 C 177.88 114.73 178.37 113.82 178.12 112.96 C 177.86 112.09 176.95 111.59 176.09 111.85 L 175.15 112.12 C 174.28 112.38 173.78 113.29 174.04 114.16 C 174.30 115.02 175.21 115.52 176.07 115.26 Z M 177.01 114.99 L 177.91 114.72 C 178.78 114.47 179.27 113.56 179.02 112.69 C 178.76 111.82 177.85 111.33 176.99 111.58 L 176.09 111.85 C 175.22 112.10 174.72 113.01 174.98 113.88 C 175.23 114.75 176.14 115.24 177.01 114.99 Z M 177.91 114.72 L 178.82 114.46 C 179.68 114.20 180.18 113.29 179.92 112.42 C 179.67 111.56 178.76 111.06 177.89 111.32 L 176.98 111.58 C 176.12 111.84 175.62 112.75 175.88 113.62 C 176.13 114.48 177.04 114.98 177.91 114.72 Z M 178.83 114.45 L 179.75 114.17 C 180.61 113.91 181.10 112.99 180.83 112.13 C 180.57 111.26 179.65 110.78 178.79 111.04 L 177.87 111.32 C 177.01 111.58 176.52 112.50 176.79 113.36 C 177.05 114.23 177.97 114.72 178.83 114.45 Z M 179.78 114.16 L 180.74 113.85 C 181.59 113.57 182.06 112.64 181.78 111.78 C 181.50 110.92 180.58 110.46 179.72 110.74 L 178.76 111.05 C 177.90 111.33 177.43 112.26 177.71 113.12 C 177.99 113.97 178.92 114.44 179.78 114.16 Z M 180.78 113.83 L 181.77 113.48 C 182.62 113.18 183.07 112.24 182.77 111.39 C 182.46 110.54 181.53 110.09 180.68 110.40 L 179.68 110.75 C 178.83 111.05 178.38 111.99 178.68 112.84 C 178.99 113.69 179.92 114.14 180.78 113.83 Z M 181.81 113.47 L 182.67 113.14 C 183.51 112.82 183.94 111.87 183.61 111.03 C 183.29 110.18 182.35 109.76 181.50 110.08 L 180.64 110.41 C 179.80 110.73 179.37 111.68 179.69 112.52 C 180.02 113.37 180.96 113.79 181.81 113.47 Z M 182.69 113.13 L 183.60 112.77 C 184.44 112.43 184.85 111.48 184.52 110.64 C 184.18 109.80 183.23 109.39 182.39 109.73 L 181.48 110.09 C 180.64 110.42 180.23 111.37 180.56 112.21 C 180.90 113.05 181.85 113.46 182.69 113.13 Z M 183.61 112.76 L 184.56 112.38 C 185.40 112.03 185.80 111.08 185.46 110.24 C 185.12 109.41 184.16 109.00 183.33 109.34 L 182.38 109.73 C 181.54 110.07 181.14 111.03 181.48 111.87 C 181.82 112.70 182.78 113.10 183.61 112.76 Z M 184.57 112.37 L 185.54 111.97 C 186.38 111.62 186.77 110.67 186.43 109.83 C 186.08 109.00 185.13 108.60 184.29 108.95 L 183.32 109.35 C 182.48 109.69 182.09 110.65 182.43 111.49 C 182.78 112.32 183.74 112.72 184.57 112.37 Z M 185.55 111.97 L 186.22 111.69 C 187.05 111.34 187.45 110.38 187.10 109.55 C 186.75 108.71 185.80 108.32 184.96 108.67 L 184.29 108.95 C 183.45 109.29 183.06 110.25 183.41 111.09 C 183.75 111.92 184.71 112.32 185.55 111.97 Z"
      fill="black"
      fill-rule="nonzero" /><path d="M 152.68 77.69 L 152.09 76.52 C 151.66 75.65 150.60 75.30 149.74 75.73 C 148.87 76.17 148.52 77.22 148.96 78.09 L 149.54 79.26 C 149.97 80.12 151.03 80.47 151.89 80.04 C 152.76 79.61 153.11 78.55 152.68 77.69 Z M 151.89 76.17 L 151.42 75.60 C 150.79 74.84 149.67 74.74 148.91 75.37 C 148.16 76.00 148.06 77.12 148.69 77.87 L 149.16 78.44 C 149.79 79.20 150.91 79.30 151.66 78.67 C 152.42 78.04 152.52 76.92 151.89 76.17 Z M 148.60 75.69 L 148.38 75.99 C 147.80 76.80 147.98 77.92 148.79 78.49 C 149.59 79.07 150.71 78.89 151.29 78.08 L 151.51 77.78 C 152.08 76.98 151.90 75.86 151.10 75.28 C 150.29 74.70 149.17 74.89 148.60 75.69 Z M 148.05 76.82 L 147.95 77.68 C 147.83 78.67 148.53 79.56 149.51 79.68 C 150.49 79.80 151.39 79.10 151.51 78.12 L 151.61 77.26 C 151.73 76.27 151.03 75.38 150.05 75.26 C 149.07 75.14 148.17 75.84 148.05 76.82 Z M 147.94 77.84 L 147.89 79.17 C 147.86 80.15 148.63 80.98 149.62 81.02 C 150.61 81.05 151.44 80.28 151.47 79.29 L 151.52 77.96 C 151.55 76.97 150.78 76.14 149.79 76.11 C 148.80 76.08 147.97 76.85 147.94 77.84 Z M 147.90 79.21 L 147.88 80.41 C 147.87 81.40 148.66 82.21 149.64 82.22 C 150.63 82.23 151.44 81.44 151.45 80.46 L 151.47 79.25 C 151.48 78.27 150.69 77.46 149.71 77.44 C 148.72 77.43 147.91 78.22 147.90 79.21 Z M 147.89 80.42 L 147.88 81.42 C 147.87 82.41 148.66 83.21 149.65 83.21 C 150.63 83.22 151.43 82.43 151.44 81.45 L 151.44 80.45 C 151.45 79.47 150.66 78.66 149.68 78.66 C 148.70 78.65 147.90 79.44 147.89 80.42 Z M 147.89 81.43 L 147.89 82.48 C 147.88 83.45 148.67 84.25 149.65 84.25 C 150.62 84.25 151.42 83.47 151.42 82.49 L 151.43 81.45 C 151.43 80.47 150.64 79.68 149.67 79.67 C 148.69 79.67 147.90 80.45 147.89 81.43 Z M 147.90 82.48 L 147.90 83.53 C 147.89 84.50 148.68 85.29 149.65 85.29 C 150.62 85.29 151.41 84.51 151.41 83.54 L 151.41 82.49 C 151.41 81.52 150.63 80.73 149.66 80.73 C 148.69 80.73 147.90 81.51 147.90 82.48 Z M 147.91 83.53 L 147.91 84.55 C 147.90 85.52 148.68 86.30 149.65 86.30 C 150.61 86.30 151.39 85.52 151.40 84.55 L 151.40 83.54 C 151.40 82.57 150.62 81.79 149.65 81.79 C 148.69 81.79 147.91 82.57 147.91 83.53 Z M 147.92 84.55 L 147.92 85.50 C 147.92 86.46 148.69 87.24 149.65 87.24 C 150.61 87.24 151.38 86.46 151.38 85.50 L 151.39 84.55 C 151.39 83.60 150.61 82.82 149.65 82.82 C 148.69 82.82 147.92 83.59 147.92 84.55 Z M 147.93 85.50 L 147.93 86.66 C 147.93 87.61 148.70 88.38 149.65 88.38 C 150.60 88.38 151.37 87.61 151.37 86.66 L 151.37 85.50 C 151.37 84.55 150.60 83.78 149.65 83.78 C 148.70 83.78 147.93 84.55 147.93 85.50 Z M 147.94 86.66 L 147.94 87.73 C 147.95 88.67 148.71 89.43 149.66 89.43 C 150.60 89.43 151.36 88.66 151.36 87.72 L 151.36 86.65 C 151.36 85.71 150.59 84.95 149.65 84.95 C 148.70 84.95 147.94 85.72 147.94 86.66 Z M 147.96 87.73 L 147.97 88.65 C 147.97 89.58 148.73 90.34 149.67 90.33 C 150.61 90.32 151.36 89.56 151.35 88.62 L 151.35 87.71 C 151.34 86.78 150.58 86.02 149.64 86.03 C 148.71 86.04 147.95 86.80 147.96 87.73 Z M 147.98 88.66 L 147.99 89.50 C 148.01 90.43 148.77 91.17 149.70 91.15 C 150.62 91.14 151.36 90.38 151.35 89.45 L 151.34 88.61 C 151.32 87.68 150.56 86.94 149.63 86.96 C 148.71 86.97 147.97 87.73 147.98 88.66 Z M 148.00 89.52 L 148.03 90.49 C 148.05 91.41 148.82 92.14 149.74 92.11 C 150.66 92.09 151.39 91.32 151.37 90.40 L 151.34 89.43 C 151.32 88.51 150.55 87.78 149.63 87.81 C 148.71 87.83 147.98 88.60 148.00 89.52 Z M 148.03 90.50 L 148.07 91.49 C 148.10 92.41 148.87 93.13 149.79 93.10 C 150.71 93.07 151.43 92.30 151.40 91.38 L 151.36 90.38 C 151.33 89.47 150.56 88.75 149.64 88.78 C 148.72 88.81 148.00 89.58 148.03 90.50 Z M 148.07 91.50 L 148.11 92.52 C 148.15 93.44 148.92 94.15 149.84 94.12 C 150.75 94.08 151.47 93.31 151.43 92.39 L 151.39 91.37 C 151.36 90.45 150.58 89.74 149.67 89.78 C 148.75 89.81 148.04 90.58 148.07 91.50 Z M 148.12 92.52 L 148.15 93.52 C 148.19 94.43 148.96 95.15 149.88 95.11 C 150.79 95.08 151.50 94.31 151.47 93.39 L 151.43 92.39 C 151.39 91.48 150.62 90.76 149.71 90.80 C 148.79 90.84 148.08 91.61 148.12 92.52 Z M 148.16 93.52 L 148.20 94.52 C 148.23 95.43 149.00 96.14 149.91 96.11 C 150.82 96.07 151.54 95.31 151.50 94.39 L 151.46 93.39 C 151.43 92.48 150.66 91.77 149.75 91.80 C 148.84 91.84 148.12 92.61 148.16 93.52 Z M 148.20 94.52 L 148.24 95.53 C 148.27 96.44 149.04 97.15 149.95 97.11 C 150.86 97.08 151.57 96.31 151.54 95.40 L 151.50 94.39 C 151.46 93.48 150.70 92.77 149.79 92.81 C 148.88 92.84 148.17 93.61 148.20 94.52 Z M 148.24 95.53 L 148.28 96.53 C 148.32 97.44 149.08 98.15 149.99 98.11 C 150.90 98.08 151.61 97.31 151.57 96.40 L 151.53 95.40 C 151.50 94.49 150.73 93.78 149.82 93.82 C 148.92 93.85 148.21 94.62 148.24 95.53 Z M 148.28 96.53 L 148.32 97.53 C 148.36 98.44 149.12 99.14 150.03 99.11 C 150.94 99.07 151.64 98.31 151.61 97.40 L 151.57 96.40 C 151.53 95.50 150.77 94.79 149.86 94.82 C 148.95 94.86 148.25 95.62 148.28 96.53 Z M 148.32 97.53 L 148.36 98.52 C 148.40 99.43 149.16 100.14 150.07 100.10 C 150.97 100.06 151.68 99.30 151.64 98.40 L 151.61 97.40 C 151.57 96.50 150.81 95.79 149.90 95.83 C 148.99 95.86 148.29 96.62 148.32 97.53 Z M 148.36 98.52 L 148.40 99.52 C 148.44 100.43 149.20 101.13 150.11 101.10 C 151.01 101.06 151.72 100.30 151.68 99.40 L 151.64 98.40 C 151.61 97.49 150.84 96.79 149.94 96.82 C 149.03 96.86 148.33 97.62 148.36 98.52 Z M 148.41 99.52 L 148.44 100.50 C 148.48 101.40 149.24 102.11 150.14 102.07 C 151.05 102.04 151.75 101.28 151.72 100.37 L 151.68 99.40 C 151.65 98.49 150.88 97.79 149.98 97.82 C 149.08 97.86 148.37 98.62 148.41 99.52 Z M 148.44 100.50 L 148.48 101.49 C 148.51 102.39 149.27 103.10 150.18 103.06 C 151.08 103.03 151.79 102.27 151.75 101.37 L 151.72 100.38 C 151.68 99.47 150.92 98.77 150.02 98.80 C 149.11 98.83 148.41 99.59 148.44 100.50 Z M 148.48 101.49 L 148.52 102.50 C 148.55 103.40 149.31 104.11 150.21 104.07 C 151.12 104.04 151.82 103.28 151.79 102.38 L 151.75 101.37 C 151.72 100.46 150.96 99.76 150.06 99.79 C 149.15 99.82 148.45 100.58 148.48 101.49 Z M 148.52 102.50 L 148.55 103.51 C 148.59 104.41 149.35 105.12 150.25 105.09 C 151.15 105.06 151.86 104.30 151.83 103.39 L 151.79 102.38 C 151.76 101.48 151.00 100.77 150.09 100.80 C 149.19 100.83 148.49 101.59 148.52 102.50 Z M 148.55 103.51 L 148.59 104.49 C 148.62 105.40 149.38 106.10 150.28 106.07 C 151.18 106.04 151.89 105.28 151.86 104.38 L 151.83 103.40 C 151.79 102.49 151.04 101.78 150.13 101.82 C 149.23 101.85 148.52 102.60 148.55 103.51 Z M 148.59 104.49 L 148.62 105.49 C 148.65 106.39 149.40 107.10 150.31 107.07 C 151.21 107.04 151.92 106.29 151.89 105.38 L 151.86 104.39 C 151.83 103.48 151.08 102.77 150.17 102.80 C 149.27 102.83 148.56 103.58 148.59 104.49 Z M 148.62 105.48 L 148.64 106.49 C 148.67 107.39 149.42 108.11 150.32 108.08 C 151.23 108.06 151.94 107.31 151.92 106.41 L 151.89 105.39 C 151.87 104.49 151.12 103.78 150.21 103.80 C 149.31 103.82 148.60 104.57 148.62 105.48 Z M 148.64 106.48 L 148.66 107.48 C 148.68 108.38 149.42 109.10 150.33 109.09 C 151.23 109.07 151.95 108.33 151.93 107.42 L 151.92 106.42 C 151.90 105.51 151.16 104.79 150.25 104.81 C 149.35 104.83 148.63 105.57 148.64 106.48 Z M 148.66 107.47 L 148.67 108.46 C 148.68 109.36 149.42 110.09 150.32 110.08 C 151.23 110.07 151.95 109.33 151.94 108.43 L 151.93 107.43 C 151.93 106.53 151.19 105.81 150.28 105.81 C 149.38 105.82 148.65 106.56 148.66 107.47 Z M 148.67 108.45 L 148.68 109.45 C 148.68 110.35 149.42 111.08 150.32 111.08 C 151.22 111.07 151.95 110.34 151.95 109.43 L 151.94 108.43 C 151.94 107.53 151.20 106.80 150.30 106.81 C 149.40 106.81 148.67 107.55 148.67 108.45 Z M 148.68 109.44 L 148.68 110.45 C 148.68 111.36 149.41 112.09 150.32 112.09 C 151.22 112.09 151.95 111.35 151.95 110.45 L 151.95 109.44 C 151.95 108.54 151.21 107.80 150.31 107.80 C 149.41 107.81 148.67 108.54 148.68 109.44 Z M 148.68 110.45 L 148.68 111.44 C 148.68 112.35 149.41 113.08 150.31 113.08 C 151.22 113.08 151.95 112.35 151.95 111.44 L 151.95 110.45 C 151.95 109.55 151.22 108.81 150.31 108.81 C 149.41 108.81 148.68 109.55 148.68 110.45 Z M 148.68 111.44 L 148.68 112.42 C 148.68 113.32 149.41 114.05 150.31 114.05 C 151.22 114.05 151.95 113.32 151.95 112.42 L 151.95 111.44 C 151.95 110.54 151.22 109.80 150.31 109.80 C 149.41 109.80 148.68 110.54 148.68 111.44 Z M 148.68 112.42 L 148.68 113.41 C 148.68 114.31 149.41 115.04 150.31 115.04 C 151.22 115.04 151.95 114.31 151.95 113.41 L 151.95 112.42 C 151.95 111.51 151.22 110.78 150.31 110.78 C 149.41 110.78 148.68 111.51 148.68 112.42 Z M 148.68 113.41 L 148.68 114.42 C 148.68 115.33 149.41 116.06 150.31 116.06 C 151.22 116.06 151.95 115.33 151.95 114.42 L 151.95 113.41 C 151.95 112.50 151.22 111.77 150.31 111.77 C 149.41 111.77 148.68 112.50 148.68 113.41 Z M 148.68 114.42 L 148.68 115.45 C 148.68 116.36 149.41 117.09 150.31 117.09 C 151.22 117.09 151.95 116.36 151.95 115.45 L 151.95 114.42 C 151.95 113.52 151.22 112.79 150.31 112.79 C 149.41 112.79 148.68 113.52 148.68 114.42 Z M 148.68 115.45 L 148.68 116.45 C 148.68 117.35 149.41 118.08 150.31 118.08 C 151.22 118.08 151.95 117.35 151.95 116.45 L 151.95 115.45 C 151.95 114.55 151.22 113.82 150.31 113.82 C 149.41 113.81 148.68 114.55 148.68 115.45 Z M 148.68 116.44 L 148.67 117.45 C 148.67 118.36 149.40 119.09 150.31 119.09 C 151.21 119.10 151.95 118.36 151.95 117.46 L 151.95 116.45 C 151.95 115.55 151.22 114.81 150.32 114.81 C 149.41 114.81 148.68 115.54 148.68 116.44 Z M 148.67 117.45 L 148.67 118.46 C 148.66 119.36 149.39 120.10 150.30 120.10 C 151.20 120.11 151.94 119.38 151.94 118.48 L 151.95 117.47 C 151.95 116.56 151.22 115.83 150.32 115.82 C 149.42 115.82 148.68 116.54 148.67 117.45 Z M 148.67 118.45 L 148.66 119.45 C 148.65 120.35 149.37 121.09 150.28 121.10 C 151.18 121.11 151.92 120.38 151.93 119.48 L 151.94 118.48 C 151.95 117.58 151.23 116.84 150.32 116.83 C 149.42 116.82 148.68 117.55 148.67 118.45 Z M 148.66 119.44 L 148.64 120.47 C 148.63 121.37 149.35 122.11 150.25 122.13 C 151.15 122.14 151.90 121.42 151.91 120.52 L 151.93 119.49 C 151.95 118.59 151.23 117.84 150.32 117.83 C 149.42 117.81 148.67 118.53 148.66 119.44 Z M 148.64 120.45 L 148.62 121.47 C 148.59 122.38 149.31 123.13 150.21 123.15 C 151.12 123.17 151.87 122.46 151.89 121.55 L 151.91 120.53 C 151.94 119.63 151.22 118.88 150.32 118.86 C 149.41 118.83 148.66 119.55 148.64 120.45 Z M 148.62 121.46 L 148.58 122.45 C 148.55 123.36 149.26 124.11 150.17 124.14 C 151.07 124.17 151.83 123.46 151.86 122.56 L 151.89 121.57 C 151.92 120.66 151.21 119.91 150.31 119.88 C 149.40 119.85 148.65 120.56 148.62 121.46 Z M 148.58 122.44 L 148.54 123.41 C 148.51 124.31 149.21 125.07 150.11 125.11 C 151.02 125.15 151.78 124.45 151.82 123.54 L 151.86 122.57 C 151.89 121.67 151.19 120.91 150.29 120.87 C 149.38 120.83 148.62 121.54 148.58 122.44 Z M 148.55 123.39 L 148.50 124.39 C 148.45 125.29 149.14 126.06 150.05 126.11 C 150.95 126.15 151.72 125.46 151.76 124.55 L 151.82 123.56 C 151.86 122.66 151.17 121.89 150.26 121.84 C 149.36 121.80 148.59 122.49 148.55 123.39 Z M 148.50 124.37 L 148.44 125.39 C 148.38 126.29 149.07 127.07 149.97 127.12 C 150.87 127.18 151.65 126.49 151.70 125.59 L 151.76 124.57 C 151.82 123.67 151.13 122.89 150.23 122.84 C 149.33 122.78 148.55 123.47 148.50 124.37 Z M 148.44 125.38 L 148.37 126.37 C 148.30 127.27 148.98 128.06 149.88 128.12 C 150.79 128.18 151.57 127.50 151.63 126.60 L 151.70 125.61 C 151.77 124.70 151.09 123.92 150.18 123.86 C 149.28 123.79 148.50 124.47 148.44 125.38 Z M 148.37 126.35 L 148.29 127.33 C 148.21 128.23 148.89 129.02 149.79 129.09 C 150.69 129.16 151.48 128.49 151.55 127.59 L 151.63 126.62 C 151.70 125.72 151.03 124.93 150.13 124.86 C 149.23 124.78 148.44 125.45 148.37 126.35 Z M 148.29 127.31 L 148.20 128.26 C 148.12 129.16 148.78 129.96 149.68 130.04 C 150.58 130.12 151.38 129.46 151.46 128.56 L 151.55 127.61 C 151.63 126.71 150.97 125.91 150.07 125.83 C 149.17 125.75 148.37 126.41 148.29 127.31 Z M 148.20 128.25 L 148.11 129.20 C 148.02 130.10 148.67 130.90 149.57 130.99 C 150.47 131.08 151.27 130.42 151.36 129.52 L 151.46 128.57 C 151.55 127.67 150.89 126.87 150.00 126.78 C 149.10 126.69 148.29 127.35 148.20 128.25 Z M 148.11 129.19 L 148.01 130.18 C 147.91 131.08 148.57 131.88 149.47 131.98 C 150.37 132.07 151.17 131.41 151.26 130.51 L 151.36 129.53 C 151.46 128.63 150.80 127.82 149.90 127.73 C 149.00 127.64 148.20 128.29 148.11 129.19 Z M 148.01 130.19 L 147.90 131.25 C 147.81 132.15 148.47 132.95 149.37 133.04 C 150.27 133.13 151.07 132.47 151.16 131.57 L 151.26 130.51 C 151.35 129.61 150.69 128.81 149.79 128.72 C 148.89 128.63 148.09 129.29 148.01 130.19 Z M 147.90 131.26 L 147.81 132.25 C 147.73 133.15 148.40 133.95 149.30 134.03 C 150.20 134.11 150.99 133.44 151.07 132.54 L 151.16 131.56 C 151.24 130.66 150.58 129.86 149.68 129.78 C 148.78 129.70 147.98 130.36 147.90 131.26 Z M 147.81 132.26 L 147.73 133.27 C 147.65 134.17 148.32 134.96 149.22 135.04 C 150.12 135.11 150.91 134.45 150.99 133.54 L 151.07 132.53 C 151.15 131.63 150.48 130.84 149.58 130.77 C 148.68 130.69 147.89 131.36 147.81 132.26 Z M 147.73 133.28 L 147.64 134.30 C 147.57 135.20 148.24 135.99 149.14 136.07 C 150.05 136.14 150.83 135.47 150.91 134.56 L 150.99 133.54 C 151.06 132.64 150.39 131.85 149.49 131.78 C 148.59 131.70 147.80 132.38 147.73 133.28 Z M 147.64 134.31 L 147.57 135.31 C 147.49 136.21 148.17 137.00 149.07 137.07 C 149.97 137.14 150.76 136.47 150.83 135.57 L 150.91 134.56 C 150.98 133.66 150.30 132.87 149.40 132.80 C 148.50 132.73 147.71 133.41 147.64 134.31 Z M 147.56 135.31 L 147.48 136.33 C 147.41 137.23 148.09 138.02 148.99 138.09 C 149.90 138.16 150.69 137.48 150.76 136.58 L 150.83 135.57 C 150.90 134.66 150.23 133.87 149.32 133.80 C 148.42 133.73 147.63 134.41 147.56 135.31 Z M 147.46 136.32 L 147.37 137.40 C 147.29 138.32 147.97 139.13 148.89 139.20 C 149.81 139.28 150.61 138.60 150.69 137.68 L 150.78 136.59 C 150.86 135.67 150.17 134.87 149.26 134.79 C 148.34 134.72 147.53 135.40 147.46 136.32 Z M 147.33 137.36 L 147.23 138.34 C 147.12 139.28 147.80 140.12 148.74 140.22 C 149.67 140.33 150.51 139.65 150.62 138.71 L 150.72 137.73 C 150.83 136.79 150.15 135.95 149.21 135.85 C 148.28 135.74 147.44 136.42 147.33 137.36 Z M 147.20 138.25 L 147.05 139.16 C 146.90 140.11 147.55 141.00 148.50 141.16 C 149.45 141.31 150.34 140.67 150.50 139.71 L 150.64 138.81 C 150.80 137.86 150.15 136.96 149.20 136.81 C 148.25 136.65 147.35 137.30 147.20 138.25 Z M 147.05 139.01 L 146.82 139.94 C 146.59 140.90 147.17 141.86 148.12 142.09 C 149.08 142.32 150.04 141.74 150.27 140.79 L 150.50 139.86 C 150.73 138.91 150.15 137.94 149.20 137.71 C 148.25 137.48 147.28 138.06 147.05 139.01 Z M 146.83 139.83 L 146.54 140.78 C 146.25 141.73 146.77 142.73 147.72 143.03 C 148.66 143.32 149.67 142.79 149.96 141.85 L 150.26 140.90 C 150.55 139.95 150.02 138.95 149.08 138.66 C 148.13 138.36 147.13 138.89 146.83 139.83 Z M 146.53 140.79 L 146.24 141.74 C 145.95 142.70 146.49 143.70 147.45 143.99 C 148.40 144.28 149.40 143.74 149.69 142.78 L 149.98 141.84 C 150.26 140.88 149.72 139.88 148.77 139.59 C 147.82 139.30 146.81 139.84 146.53 140.79 Z M 146.20 141.88 L 145.99 142.84 C 145.77 143.82 146.39 144.78 147.37 144.99 C 148.35 145.21 149.31 144.59 149.53 143.61 L 149.74 142.65 C 149.95 141.67 149.33 140.71 148.35 140.49 C 147.37 140.28 146.41 140.90 146.20 141.88 Z M 145.95 143.00 L 145.84 143.97 C 145.71 144.97 146.42 145.88 147.42 146.00 C 148.41 146.12 149.32 145.41 149.44 144.42 L 149.56 143.44 C 149.68 142.45 148.97 141.54 147.98 141.42 C 146.98 141.30 146.08 142.01 145.95 143.00 Z M 145.82 144.09 L 145.76 145.09 C 145.70 146.10 146.46 146.96 147.47 147.02 C 148.47 147.08 149.33 146.32 149.39 145.31 L 149.45 144.30 C 149.51 143.30 148.75 142.44 147.75 142.38 C 146.75 142.32 145.88 143.08 145.82 144.09 Z M 145.76 145.16 L 145.73 146.19 C 145.71 147.19 146.50 148.03 147.50 148.05 C 148.50 148.08 149.34 147.29 149.37 146.28 L 149.39 145.25 C 149.42 144.25 148.63 143.41 147.62 143.39 C 146.62 143.36 145.79 144.15 145.76 145.16 Z M 145.74 146.21 L 145.73 147.23 C 145.72 148.23 146.51 149.05 147.51 149.06 C 148.51 149.07 149.33 148.27 149.34 147.27 L 149.36 146.26 C 149.37 145.26 148.57 144.44 147.57 144.43 C 146.57 144.42 145.75 145.21 145.74 146.21 Z M 145.75 147.25 L 145.74 148.26 C 145.74 149.25 146.54 150.05 147.53 150.05 C 148.52 150.05 149.32 149.25 149.32 148.26 L 149.33 147.25 C 149.33 146.27 148.53 145.46 147.54 145.46 C 146.55 145.46 145.75 146.26 145.75 147.25 Z M 145.76 148.28 L 145.77 149.27 C 145.78 150.24 146.58 151.03 147.56 151.02 C 148.54 151.01 149.33 150.21 149.32 149.23 L 149.31 148.24 C 149.30 147.27 148.50 146.48 147.52 146.49 C 146.54 146.50 145.75 147.30 145.76 148.28 Z M 145.79 149.29 L 145.81 150.28 C 145.84 151.25 146.64 152.02 147.60 151.99 C 148.57 151.97 149.34 151.17 149.32 150.20 L 149.30 149.21 C 149.27 148.24 148.47 147.48 147.50 147.50 C 146.54 147.52 145.77 148.32 145.79 149.29 Z M 145.84 150.32 L 145.88 151.31 C 145.93 152.26 146.74 153.00 147.69 152.96 C 148.64 152.91 149.38 152.11 149.34 151.15 L 149.29 150.16 C 149.25 149.21 148.44 148.47 147.49 148.51 C 146.53 148.56 145.80 149.37 145.84 150.32 Z M 145.91 151.37 L 146.00 152.36 C 146.07 153.30 146.90 153.99 147.84 153.92 C 148.77 153.84 149.47 153.01 149.39 152.08 L 149.31 151.09 C 149.23 150.15 148.41 149.45 147.47 149.53 C 146.53 149.61 145.83 150.43 145.91 151.37 Z M 146.03 152.44 L 146.15 153.38 C 146.27 154.30 147.12 154.95 148.04 154.83 C 148.96 154.71 149.61 153.87 149.49 152.95 L 149.36 152.00 C 149.24 151.08 148.40 150.43 147.47 150.55 C 146.55 150.67 145.90 151.52 146.03 152.44 Z M 146.17 153.45 L 146.33 154.32 C 146.48 155.23 147.35 155.84 148.25 155.68 C 149.16 155.53 149.77 154.66 149.61 153.76 L 149.46 152.88 C 149.30 151.97 148.44 151.36 147.53 151.52 C 146.63 151.68 146.02 152.54 146.17 153.45 Z M 146.34 154.36 L 146.53 155.31 C 146.70 156.21 147.58 156.80 148.48 156.62 C 149.38 156.44 149.96 155.57 149.78 154.67 L 149.60 153.72 C 149.42 152.82 148.55 152.23 147.65 152.41 C 146.75 152.59 146.16 153.46 146.34 154.36 Z M 146.54 155.32 L 146.76 156.38 C 146.94 157.28 147.82 157.85 148.71 157.67 C 149.60 157.48 150.18 156.61 149.99 155.72 L 149.77 154.66 C 149.59 153.76 148.71 153.19 147.82 153.37 C 146.93 153.56 146.35 154.43 146.54 155.32 Z M 146.77 156.38 L 146.98 157.43 C 147.16 158.32 148.03 158.89 148.92 158.71 C 149.81 158.53 150.38 157.66 150.20 156.77 L 149.99 155.72 C 149.80 154.83 148.93 154.26 148.04 154.44 C 147.15 154.62 146.58 155.49 146.77 156.38 Z M 146.98 157.42 L 147.17 158.33 C 147.34 159.22 148.21 159.79 149.10 159.62 C 149.99 159.44 150.56 158.57 150.38 157.68 L 150.20 156.77 C 150.02 155.89 149.16 155.31 148.27 155.49 C 147.38 155.67 146.80 156.53 146.98 157.42 Z M 147.17 158.32 L 147.35 159.29 C 147.53 160.18 148.39 160.76 149.28 160.58 C 150.17 160.41 150.75 159.54 150.57 158.66 L 150.38 157.69 C 150.21 156.80 149.35 156.22 148.46 156.40 C 147.57 156.57 146.99 157.43 147.17 158.32 Z M 147.35 159.28 L 147.54 160.28 C 147.71 161.17 148.57 161.76 149.46 161.59 C 150.35 161.42 150.93 160.56 150.77 159.67 L 150.57 158.67 C 150.40 157.78 149.55 157.19 148.66 157.36 C 147.77 157.53 147.18 158.39 147.35 159.28 Z M 147.54 160.27 L 147.73 161.30 C 147.90 162.19 148.75 162.78 149.64 162.62 C 150.53 162.45 151.12 161.60 150.96 160.71 L 150.77 159.68 C 150.60 158.79 149.75 158.20 148.86 158.36 C 147.97 158.53 147.38 159.38 147.54 160.27 Z M 147.73 161.29 L 147.91 162.33 C 148.07 163.22 148.92 163.81 149.81 163.65 C 150.70 163.50 151.30 162.65 151.14 161.76 L 150.96 160.72 C 150.80 159.83 149.95 159.23 149.06 159.39 C 148.17 159.55 147.57 160.40 147.73 161.29 Z M 147.91 162.31 L 148.08 163.33 C 148.23 164.22 149.07 164.82 149.97 164.67 C 150.86 164.52 151.46 163.68 151.31 162.79 L 151.14 161.77 C 150.99 160.88 150.15 160.28 149.26 160.43 C 148.36 160.58 147.76 161.42 147.91 162.31 Z M 148.08 163.31 L 148.24 164.31 C 148.38 165.21 149.22 165.82 150.11 165.67 C 151.00 165.53 151.61 164.69 151.47 163.80 L 151.31 162.80 C 151.17 161.91 150.33 161.30 149.44 161.44 C 148.55 161.58 147.94 162.42 148.08 163.31 Z M 148.24 164.30 L 148.39 165.29 C 148.52 166.19 149.35 166.80 150.25 166.67 C 151.14 166.53 151.76 165.70 151.62 164.80 L 151.47 163.81 C 151.34 162.92 150.50 162.30 149.61 162.44 C 148.72 162.57 148.10 163.41 148.24 164.30 Z M 148.38 165.28 L 148.53 166.27 C 148.66 167.16 149.49 167.78 150.38 167.65 C 151.28 167.52 151.90 166.69 151.77 165.80 L 151.62 164.81 C 151.49 163.92 150.66 163.30 149.77 163.43 C 148.87 163.56 148.25 164.39 148.38 165.28 Z M 148.53 166.26 L 148.67 167.24 C 148.79 168.14 149.62 168.76 150.52 168.63 C 151.41 168.51 152.03 167.68 151.91 166.78 L 151.77 165.80 C 151.64 164.91 150.81 164.29 149.92 164.41 C 149.02 164.54 148.40 165.37 148.53 166.26 Z M 148.67 167.24 L 148.80 168.22 C 148.93 169.11 149.76 169.74 150.65 169.61 C 151.55 169.49 152.17 168.66 152.04 167.77 L 151.91 166.79 C 151.78 165.89 150.96 165.27 150.06 165.39 C 149.16 165.52 148.54 166.35 148.67 167.24 Z M 148.80 168.22 L 148.82 168.38 C 148.95 169.27 149.78 169.90 150.67 169.77 C 151.57 169.65 152.19 168.82 152.07 167.92 L 152.04 167.77 C 151.92 166.87 151.09 166.25 150.20 166.37 C 149.30 166.50 148.68 167.32 148.80 168.22 Z"
      fill="black"
      fill-rule="nonzero" /><path d="M 146.19 149.52 L 144.82 149.32 C 143.84 149.18 142.93 149.87 142.79 150.85 C 142.65 151.84 143.33 152.75 144.31 152.89 L 145.68 153.09 C 146.67 153.23 147.58 152.54 147.72 151.56 C 147.86 150.57 147.18 149.66 146.19 149.52 Z M 144.88 149.28 L 143.75 149.09 C 142.74 148.91 141.78 149.59 141.61 150.60 C 141.43 151.61 142.11 152.56 143.12 152.74 L 144.26 152.93 C 145.26 153.11 146.22 152.43 146.40 151.42 C 146.57 150.41 145.89 149.45 144.88 149.28 Z M 143.96 149.08 L 143.28 148.89 C 142.27 148.59 141.22 149.18 140.92 150.19 C 140.63 151.20 141.22 152.26 142.23 152.55 L 142.90 152.74 C 143.91 153.03 144.97 152.45 145.26 151.44 C 145.55 150.43 144.97 149.37 143.96 149.08 Z M 144.67 151.06 L 144.71 150.84 C 144.89 149.79 144.19 148.78 143.14 148.59 C 142.08 148.40 141.07 149.10 140.88 150.16 L 140.84 150.37 C 140.65 151.43 141.36 152.44 142.41 152.63 C 143.47 152.82 144.48 152.11 144.67 151.06 Z M 143.32 152.38 L 144.17 152.14 C 145.21 151.85 145.81 150.77 145.52 149.74 C 145.23 148.70 144.15 148.09 143.11 148.38 L 142.27 148.62 C 141.23 148.91 140.62 149.99 140.91 151.03 C 141.20 152.07 142.28 152.67 143.32 152.38 Z M 144.02 152.18 L 145.31 151.93 C 146.37 151.72 147.06 150.69 146.85 149.63 C 146.64 148.57 145.61 147.88 144.55 148.09 L 143.26 148.34 C 142.20 148.55 141.51 149.58 141.72 150.64 C 141.93 151.70 142.96 152.39 144.02 152.18 Z M 145.32 151.92 L 146.42 151.70 C 147.47 151.49 148.16 150.45 147.94 149.39 C 147.72 148.34 146.69 147.65 145.63 147.87 L 144.54 148.09 C 143.48 148.31 142.80 149.34 143.02 150.40 C 143.23 151.46 144.27 152.14 145.32 151.92 Z M 146.46 151.69 L 147.42 151.47 C 148.47 151.23 149.13 150.19 148.89 149.14 C 148.66 148.08 147.61 147.42 146.56 147.66 L 145.59 147.88 C 144.54 148.12 143.88 149.16 144.12 150.22 C 144.36 151.27 145.40 151.93 146.46 151.69 Z M 147.45 151.46 L 148.41 151.23 C 149.46 150.97 150.10 149.92 149.85 148.87 C 149.59 147.82 148.54 147.18 147.49 147.44 L 146.53 147.67 C 145.48 147.93 144.84 148.98 145.09 150.03 C 145.35 151.08 146.40 151.72 147.45 151.46 Z M 148.43 151.22 L 149.41 150.97 C 150.46 150.70 151.08 149.64 150.82 148.60 C 150.55 147.56 149.49 146.93 148.45 147.19 L 147.47 147.45 C 146.43 147.71 145.80 148.77 146.06 149.82 C 146.33 150.86 147.39 151.49 148.43 151.22 Z M 149.42 150.96 L 150.37 150.71 C 151.41 150.44 152.03 149.38 151.76 148.34 C 151.48 147.30 150.42 146.68 149.38 146.95 L 148.44 147.20 C 147.40 147.47 146.78 148.54 147.05 149.58 C 147.32 150.61 148.39 151.24 149.42 150.96 Z M 150.37 150.71 L 151.32 150.46 C 152.35 150.19 152.97 149.13 152.70 148.09 C 152.43 147.05 151.36 146.43 150.33 146.71 L 149.38 146.96 C 148.34 147.23 147.73 148.29 148.00 149.33 C 148.27 150.36 149.33 150.98 150.37 150.71 Z M 151.30 150.46 L 152.28 150.21 C 153.31 149.94 153.94 148.89 153.67 147.85 C 153.40 146.82 152.35 146.19 151.31 146.46 L 150.34 146.71 C 149.30 146.97 148.68 148.03 148.95 149.07 C 149.21 150.10 150.27 150.73 151.30 150.46 Z M 152.25 150.21 L 153.25 149.97 C 154.28 149.72 154.92 148.67 154.67 147.63 C 154.41 146.60 153.37 145.96 152.33 146.21 L 151.34 146.46 C 150.30 146.71 149.66 147.76 149.92 148.79 C 150.17 149.83 151.22 150.47 152.25 150.21 Z M 153.21 149.97 L 154.19 149.75 C 155.23 149.52 155.88 148.48 155.65 147.45 C 155.41 146.41 154.38 145.75 153.34 145.99 L 152.36 146.21 C 151.32 146.45 150.67 147.48 150.91 148.52 C 151.14 149.56 152.18 150.21 153.21 149.97 Z M 154.15 149.76 L 155.05 149.57 C 156.09 149.36 156.76 148.34 156.55 147.30 C 156.33 146.26 155.32 145.59 154.28 145.80 L 153.38 145.99 C 152.34 146.20 151.67 147.22 151.88 148.26 C 152.09 149.30 153.11 149.97 154.15 149.76 Z M 155.00 149.57 L 155.93 149.41 C 156.98 149.22 157.67 148.22 157.48 147.18 C 157.29 146.14 156.29 145.44 155.25 145.63 L 154.32 145.80 C 153.28 145.99 152.59 146.99 152.78 148.03 C 152.96 149.07 153.96 149.76 155.00 149.57 Z M 155.89 149.41 L 156.87 149.26 C 157.91 149.09 158.62 148.12 158.46 147.07 C 158.30 146.03 157.32 145.31 156.28 145.48 L 155.30 145.63 C 154.25 145.79 153.54 146.77 153.70 147.81 C 153.87 148.86 154.84 149.57 155.89 149.41 Z M 156.82 149.26 L 157.87 149.12 C 158.91 148.98 159.65 148.02 159.51 146.98 C 159.37 145.94 158.42 145.20 157.37 145.34 L 156.32 145.48 C 155.28 145.61 154.54 146.57 154.68 147.61 C 154.82 148.66 155.78 149.39 156.82 149.26 Z M 157.83 149.12 L 158.92 149.00 C 159.97 148.89 160.72 147.95 160.61 146.91 C 160.50 145.86 159.56 145.11 158.52 145.22 L 157.42 145.34 C 156.37 145.45 155.62 146.39 155.73 147.43 C 155.84 148.48 156.78 149.23 157.83 149.12 Z M 158.89 149.00 L 159.86 148.91 C 160.90 148.82 161.67 147.90 161.57 146.85 C 161.48 145.81 160.56 145.04 159.52 145.13 L 158.55 145.22 C 157.51 145.31 156.74 146.24 156.83 147.28 C 156.92 148.32 157.85 149.09 158.89 149.00 Z M 159.83 148.91 L 160.84 148.83 C 161.88 148.75 162.66 147.84 162.58 146.80 C 162.50 145.76 161.59 144.98 160.55 145.06 L 159.54 145.14 C 158.50 145.22 157.72 146.13 157.80 147.17 C 157.88 148.21 158.79 148.99 159.83 148.91 Z M 160.82 148.83 L 161.84 148.76 C 162.88 148.69 163.67 147.80 163.60 146.76 C 163.54 145.72 162.64 144.93 161.60 145.00 L 160.57 145.06 C 159.53 145.13 158.74 146.03 158.81 147.07 C 158.88 148.11 159.78 148.90 160.82 148.83 Z M 161.83 148.76 L 162.86 148.70 C 163.89 148.64 164.69 147.75 164.63 146.72 C 164.57 145.68 163.68 144.88 162.65 144.94 L 161.62 145.00 C 160.58 145.06 159.78 145.95 159.84 146.98 C 159.90 148.02 160.79 148.82 161.83 148.76 Z M 162.84 148.70 L 163.85 148.65 C 164.89 148.60 165.69 147.72 165.64 146.68 C 165.59 145.65 164.71 144.85 163.67 144.90 L 162.66 144.95 C 161.63 144.99 160.83 145.87 160.87 146.91 C 160.92 147.95 161.80 148.75 162.84 148.70 Z M 163.84 148.65 L 164.81 148.61 C 165.84 148.57 166.65 147.69 166.61 146.66 C 166.56 145.63 165.69 144.82 164.66 144.86 L 163.69 144.90 C 162.65 144.94 161.85 145.81 161.89 146.85 C 161.93 147.88 162.80 148.69 163.84 148.65 Z M 164.79 148.60 L 165.91 148.57 C 166.94 148.54 167.75 147.68 167.72 146.64 C 167.69 145.61 166.83 144.80 165.80 144.83 L 164.68 144.87 C 163.65 144.90 162.84 145.76 162.87 146.79 C 162.90 147.82 163.76 148.63 164.79 148.60 Z M 165.88 148.56 L 166.98 148.54 C 168.01 148.53 168.83 147.69 168.81 146.66 C 168.80 145.64 167.96 144.81 166.93 144.83 L 165.83 144.84 C 164.80 144.86 163.98 145.70 164.00 146.73 C 164.01 147.75 164.85 148.57 165.88 148.56 Z M 166.93 148.53 L 167.94 148.55 C 168.96 148.56 169.80 147.75 169.81 146.73 C 169.82 145.71 169.01 144.87 167.99 144.85 L 166.98 144.84 C 165.96 144.82 165.12 145.64 165.11 146.66 C 165.09 147.68 165.91 148.52 166.93 148.53 Z M 167.86 148.54 L 168.78 148.59 C 169.80 148.64 170.66 147.86 170.72 146.85 C 170.77 145.84 170.00 144.97 168.98 144.91 L 168.06 144.86 C 167.05 144.81 166.18 145.59 166.12 146.60 C 166.07 147.61 166.85 148.48 167.86 148.54 Z M 168.68 148.57 L 169.53 148.66 C 170.54 148.77 171.44 148.05 171.55 147.04 C 171.66 146.04 170.94 145.14 169.93 145.02 L 169.08 144.93 C 168.08 144.82 167.17 145.55 167.06 146.55 C 166.95 147.56 167.68 148.46 168.68 148.57 Z M 169.38 148.63 L 170.38 148.83 C 171.37 149.02 172.33 148.38 172.52 147.39 C 172.72 146.40 172.07 145.44 171.08 145.25 L 170.08 145.05 C 169.09 144.86 168.14 145.50 167.94 146.49 C 167.75 147.48 168.39 148.44 169.38 148.63 Z M 170.15 148.76 L 171.09 149.08 C 172.04 149.40 173.07 148.89 173.39 147.94 C 173.72 146.98 173.20 145.95 172.25 145.63 L 171.31 145.32 C 170.36 145.00 169.33 145.51 169.01 146.46 C 168.69 147.41 169.20 148.44 170.15 148.76 Z M 170.81 148.96 L 171.66 149.41 C 172.55 149.89 173.65 149.56 174.12 148.67 C 174.60 147.79 174.27 146.69 173.38 146.21 L 172.53 145.76 C 171.65 145.28 170.54 145.61 170.07 146.50 C 169.60 147.38 169.93 148.48 170.81 148.96 Z M 171.39 149.23 L 172.16 149.84 C 172.94 150.46 174.08 150.34 174.70 149.55 C 175.33 148.77 175.20 147.63 174.42 147.01 L 173.65 146.40 C 172.87 145.77 171.73 145.90 171.11 146.68 C 170.48 147.47 170.61 148.61 171.39 149.23 Z M 171.95 149.63 L 172.58 150.34 C 173.25 151.08 174.40 151.14 175.14 150.47 C 175.88 149.80 175.93 148.66 175.27 147.92 L 174.63 147.21 C 173.96 146.47 172.82 146.41 172.07 147.08 C 171.33 147.75 171.28 148.89 171.95 149.63 Z M 172.43 150.13 L 172.98 150.96 C 173.53 151.79 174.65 152.01 175.48 151.46 C 176.31 150.90 176.53 149.78 175.98 148.96 L 175.42 148.13 C 174.87 147.30 173.75 147.08 172.92 147.63 C 172.10 148.18 171.87 149.30 172.43 150.13 Z M 172.86 150.73 L 173.30 151.66 C 173.72 152.55 174.79 152.93 175.69 152.51 C 176.58 152.08 176.97 151.01 176.54 150.12 L 176.10 149.19 C 175.67 148.29 174.60 147.91 173.71 148.34 C 172.81 148.76 172.43 149.83 172.86 150.73 Z M 173.21 151.40 L 173.50 152.38 C 173.78 153.32 174.78 153.86 175.72 153.58 C 176.67 153.30 177.21 152.30 176.93 151.35 L 176.63 150.37 C 176.35 149.43 175.35 148.89 174.41 149.17 C 173.46 149.45 172.92 150.45 173.21 151.40 Z M 173.45 152.11 L 173.57 153.01 C 173.71 153.99 174.61 154.67 175.58 154.54 C 176.56 154.40 177.24 153.50 177.10 152.52 L 176.98 151.62 C 176.84 150.65 175.94 149.96 174.97 150.10 C 173.99 150.23 173.31 151.13 173.45 152.11 Z M 173.56 152.75 L 173.55 153.70 C 173.54 154.68 174.33 155.48 175.31 155.49 C 176.29 155.50 177.10 154.71 177.11 153.73 L 177.11 152.79 C 177.12 151.80 176.34 151.00 175.35 150.99 C 174.37 150.98 173.57 151.77 173.56 152.75 Z M 173.58 153.44 L 173.42 154.43 C 173.27 155.39 173.94 156.30 174.90 156.45 C 175.87 156.60 176.78 155.94 176.93 154.97 L 177.08 153.98 C 177.23 153.02 176.57 152.11 175.60 151.96 C 174.63 151.81 173.73 152.47 173.58 153.44 Z M 173.48 154.19 L 173.18 155.22 C 172.90 156.16 173.43 157.14 174.36 157.42 C 175.30 157.70 176.28 157.17 176.56 156.23 L 176.87 155.20 C 177.15 154.27 176.62 153.28 175.68 153.00 C 174.74 152.73 173.76 153.26 173.48 154.19 Z M 173.25 155.02 L 172.83 155.99 C 172.44 156.89 172.85 157.92 173.75 158.31 C 174.64 158.70 175.68 158.29 176.07 157.40 L 176.49 156.43 C 176.87 155.53 176.46 154.49 175.57 154.11 C 174.68 153.72 173.64 154.13 173.25 155.02 Z M 172.90 155.85 L 172.44 156.69 C 171.98 157.55 172.29 158.62 173.15 159.08 C 174.00 159.55 175.07 159.23 175.54 158.38 L 176.00 157.54 C 176.46 156.68 176.14 155.61 175.29 155.15 C 174.44 154.68 173.37 155.00 172.90 155.85 Z M 172.50 156.60 L 171.97 157.44 C 171.45 158.27 171.69 159.35 172.52 159.87 C 173.34 160.39 174.43 160.14 174.95 159.32 L 175.48 158.48 C 176.00 157.65 175.75 156.57 174.93 156.05 C 174.11 155.53 173.02 155.77 172.50 156.60 Z M 172.02 157.37 L 171.43 158.20 C 170.87 159.00 171.05 160.09 171.85 160.66 C 172.64 161.22 173.74 161.03 174.30 160.24 L 174.89 159.40 C 175.45 158.61 175.27 157.51 174.47 156.95 C 173.68 156.38 172.58 156.57 172.02 157.37 Z M 171.48 158.14 L 170.84 158.95 C 170.24 159.72 170.38 160.82 171.15 161.42 C 171.91 162.02 173.02 161.88 173.62 161.12 L 174.25 160.30 C 174.85 159.54 174.71 158.43 173.95 157.83 C 173.18 157.24 172.07 157.37 171.48 158.14 Z M 170.89 158.90 L 170.23 159.67 C 169.60 160.41 169.69 161.52 170.43 162.15 C 171.17 162.78 172.28 162.69 172.91 161.95 L 173.57 161.17 C 174.20 160.43 174.11 159.32 173.37 158.69 C 172.63 158.06 171.52 158.16 170.89 158.90 Z M 170.27 159.62 L 169.60 160.36 C 168.94 161.07 168.99 162.18 169.70 162.84 C 170.42 163.50 171.53 163.45 172.19 162.74 L 172.86 162.00 C 173.52 161.29 173.47 160.17 172.76 159.52 C 172.04 158.86 170.93 158.91 170.27 159.62 Z M 169.65 160.30 L 168.94 161.01 C 168.26 161.70 168.26 162.81 168.95 163.50 C 169.63 164.18 170.75 164.18 171.43 163.49 L 172.14 162.79 C 172.83 162.10 172.82 160.99 172.14 160.30 C 171.45 159.61 170.33 159.62 169.65 160.30 Z M 169.00 160.96 L 168.28 161.61 C 167.57 162.27 167.52 163.39 168.18 164.10 C 168.84 164.82 169.95 164.86 170.67 164.21 L 171.38 163.55 C 172.10 162.89 172.14 161.78 171.48 161.06 C 170.83 160.35 169.71 160.30 169.00 160.96 Z M 168.34 161.56 L 167.60 162.19 C 166.86 162.82 166.76 163.93 167.39 164.67 C 168.02 165.41 169.13 165.51 169.87 164.88 L 170.61 164.25 C 171.35 163.63 171.45 162.52 170.82 161.77 C 170.19 161.03 169.08 160.94 168.34 161.56 Z M 167.65 162.15 L 166.87 162.75 C 166.11 163.35 165.97 164.46 166.57 165.23 C 167.17 165.99 168.28 166.13 169.05 165.53 L 169.82 164.92 C 170.59 164.32 170.72 163.21 170.12 162.45 C 169.52 161.68 168.42 161.55 167.65 162.15 Z M 166.92 162.72 L 166.09 163.33 C 165.30 163.90 165.14 165.01 165.71 165.79 C 166.29 166.58 167.39 166.75 168.18 166.17 L 169.00 165.56 C 169.79 164.99 169.96 163.88 169.38 163.10 C 168.80 162.31 167.70 162.14 166.92 162.72 Z M 166.12 163.30 L 165.28 163.89 C 164.48 164.45 164.29 165.55 164.85 166.35 C 165.40 167.15 166.50 167.34 167.30 166.78 L 168.14 166.19 C 168.94 165.63 169.14 164.53 168.58 163.74 C 168.02 162.94 166.92 162.74 166.12 163.30 Z M 165.30 163.88 L 164.48 164.43 C 163.68 164.98 163.46 166.07 164.01 166.88 C 164.56 167.69 165.66 167.90 166.47 167.35 L 167.28 166.80 C 168.09 166.25 168.30 165.15 167.75 164.35 C 167.21 163.54 166.11 163.33 165.30 163.88 Z M 164.50 164.41 L 163.65 164.97 C 162.83 165.51 162.61 166.61 163.15 167.43 C 163.69 168.24 164.78 168.47 165.60 167.93 L 166.45 167.37 C 167.27 166.83 167.49 165.73 166.95 164.92 C 166.41 164.10 165.32 163.87 164.50 164.41 Z M 163.66 164.96 L 162.80 165.52 C 161.97 166.05 161.74 167.15 162.27 167.97 C 162.80 168.80 163.90 169.03 164.72 168.50 L 165.59 167.94 C 166.41 167.41 166.65 166.31 166.12 165.49 C 165.59 164.67 164.49 164.43 163.66 164.96 Z M 162.81 165.51 L 161.94 166.06 C 161.11 166.58 160.86 167.68 161.38 168.51 C 161.91 169.34 163.01 169.59 163.84 169.06 L 164.71 168.51 C 165.54 167.99 165.78 166.89 165.26 166.06 C 164.74 165.23 163.64 164.98 162.81 165.51 Z M 161.95 166.05 L 161.09 166.58 C 160.26 167.09 160.00 168.19 160.51 169.03 C 161.03 169.86 162.13 170.12 162.97 169.60 L 163.82 169.07 C 164.66 168.56 164.92 167.46 164.40 166.62 C 163.88 165.79 162.79 165.53 161.95 166.05 Z M 161.11 166.56 L 160.28 167.07 C 159.43 167.58 159.16 168.67 159.67 169.52 C 160.18 170.36 161.28 170.63 162.12 170.12 L 162.95 169.62 C 163.80 169.11 164.07 168.01 163.56 167.17 C 163.05 166.32 161.95 166.05 161.11 166.56 Z M 160.29 167.05 L 159.35 167.61 C 158.50 168.11 158.22 169.20 158.72 170.05 C 159.22 170.90 160.32 171.19 161.17 170.69 L 162.11 170.13 C 162.96 169.63 163.24 168.53 162.74 167.68 C 162.24 166.83 161.14 166.55 160.29 167.05 Z M 159.37 167.59 L 158.41 168.14 C 157.55 168.63 157.26 169.72 157.75 170.58 C 158.24 171.44 159.34 171.74 160.20 171.25 L 161.15 170.70 C 162.01 170.21 162.31 169.11 161.82 168.25 C 161.33 167.39 160.23 167.10 159.37 167.59 Z M 158.43 168.12 L 157.54 168.62 C 156.67 169.10 156.36 170.20 156.84 171.06 C 157.33 171.93 158.42 172.24 159.29 171.76 L 160.18 171.27 C 161.05 170.78 161.36 169.69 160.88 168.82 C 160.39 167.95 159.30 167.64 158.43 168.12 Z M 157.55 168.60 L 156.72 169.05 C 155.84 169.53 155.52 170.63 156.00 171.51 C 156.47 172.38 157.57 172.71 158.45 172.23 L 159.28 171.77 C 160.16 171.30 160.48 170.20 160.00 169.32 C 159.53 168.45 158.43 168.12 157.55 168.60 Z M 156.73 169.04 L 155.94 169.46 C 155.06 169.94 154.73 171.04 155.20 171.92 C 155.68 172.80 156.77 173.13 157.66 172.66 L 158.44 172.24 C 159.32 171.76 159.66 170.67 159.18 169.78 C 158.71 168.90 157.61 168.57 156.73 169.04 Z M 155.94 169.46 L 155.12 169.89 C 154.24 170.37 153.90 171.47 154.38 172.36 C 154.85 173.25 155.96 173.58 156.84 173.11 L 157.66 172.67 C 158.55 172.19 158.88 171.09 158.41 170.20 C 157.93 169.31 156.83 168.98 155.94 169.46 Z M 155.11 169.88 L 154.26 170.34 C 153.36 170.82 153.03 171.94 153.51 172.83 C 153.99 173.73 155.11 174.06 156.00 173.58 L 156.86 173.12 C 157.75 172.63 158.08 171.52 157.60 170.62 C 157.12 169.73 156.01 169.40 155.11 169.88 Z M 154.23 170.33 L 153.38 170.80 C 152.48 171.30 152.16 172.43 152.65 173.33 C 153.15 174.22 154.28 174.55 155.17 174.06 L 156.03 173.59 C 156.92 173.09 157.25 171.96 156.76 171.06 C 156.26 170.16 155.13 169.84 154.23 170.33 Z M 153.35 170.80 L 152.48 171.29 C 151.58 171.81 151.26 172.95 151.77 173.85 C 152.29 174.75 153.43 175.07 154.33 174.56 L 155.20 174.06 C 156.11 173.55 156.42 172.40 155.91 171.50 C 155.40 170.60 154.25 170.29 153.35 170.80 Z M 152.44 171.29 L 151.51 171.84 C 150.60 172.37 150.30 173.54 150.84 174.44 C 151.37 175.34 152.53 175.64 153.43 175.11 L 154.37 174.56 C 155.27 174.03 155.57 172.87 155.04 171.96 C 154.51 171.06 153.34 170.76 152.44 171.29 Z M 151.45 171.84 L 150.39 172.50 C 149.49 173.06 149.21 174.25 149.77 175.15 C 150.34 176.06 151.53 176.33 152.43 175.77 L 153.49 175.11 C 154.39 174.55 154.67 173.36 154.11 172.46 C 153.54 171.55 152.35 171.28 151.45 171.84 Z M 150.28 172.52 L 149.34 173.18 C 148.45 173.81 148.23 175.03 148.85 175.93 C 149.48 176.82 150.71 177.03 151.60 176.41 L 152.54 175.75 C 153.43 175.12 153.65 173.89 153.03 173.00 C 152.40 172.11 151.17 171.90 150.28 172.52 Z M 149.11 173.31 L 148.46 173.91 C 147.64 174.66 147.58 175.94 148.34 176.76 C 149.09 177.57 150.36 177.63 151.18 176.88 L 151.83 176.28 C 152.65 175.52 152.70 174.25 151.95 173.43 C 151.20 172.61 149.92 172.56 149.11 173.31 Z M 147.90 174.67 L 147.72 175.14 C 147.32 176.20 147.85 177.39 148.91 177.79 C 149.98 178.19 151.16 177.66 151.56 176.59 L 151.74 176.12 C 152.14 175.06 151.61 173.87 150.54 173.47 C 149.48 173.07 148.30 173.61 147.90 174.67 Z M 148.40 177.55 L 148.84 177.87 C 149.77 178.55 151.07 178.35 151.75 177.43 C 152.44 176.50 152.24 175.20 151.31 174.51 L 150.88 174.19 C 149.95 173.51 148.64 173.71 147.96 174.63 C 147.28 175.56 147.48 176.86 148.40 177.55 Z M 149.70 178.26 L 150.65 178.43 C 151.80 178.64 152.89 177.88 153.10 176.73 C 153.30 175.59 152.54 174.50 151.40 174.29 L 150.45 174.12 C 149.30 173.91 148.21 174.67 148.00 175.82 C 147.80 176.96 148.56 178.06 149.70 178.26 Z M 150.91 178.48 L 152.21 178.55 C 153.38 178.62 154.38 177.72 154.44 176.55 C 154.51 175.37 153.61 174.37 152.43 174.31 L 151.14 174.24 C 149.97 174.17 148.96 175.07 148.90 176.25 C 148.84 177.42 149.74 178.42 150.91 178.48 Z M 152.29 178.57 L 153.47 178.59 C 154.65 178.60 155.63 177.66 155.64 176.48 C 155.66 175.29 154.71 174.32 153.53 174.31 L 152.35 174.29 C 151.17 174.27 150.19 175.22 150.18 176.40 C 150.16 177.58 151.11 178.56 152.29 178.57 Z M 153.50 178.59 L 154.51 178.59 C 155.70 178.59 156.66 177.63 156.65 176.44 C 156.65 175.26 155.69 174.30 154.50 174.30 L 153.50 174.30 C 152.31 174.30 151.35 175.26 151.36 176.45 C 151.36 177.64 152.32 178.59 153.50 178.59 Z M 154.54 178.59 L 155.56 178.58 C 156.74 178.56 157.69 177.59 157.68 176.41 C 157.66 175.22 156.69 174.27 155.50 174.29 L 154.48 174.30 C 153.30 174.31 152.35 175.29 152.36 176.47 C 152.38 177.66 153.35 178.61 154.54 178.59 Z M 155.58 178.58 L 156.60 178.55 C 157.79 178.53 158.73 177.54 158.70 176.36 C 158.67 175.17 157.69 174.24 156.50 174.26 L 155.48 174.29 C 154.30 174.32 153.36 175.30 153.39 176.48 C 153.41 177.67 154.40 178.61 155.58 178.58 Z M 156.63 178.55 L 157.62 178.52 C 158.81 178.48 159.74 177.49 159.70 176.30 C 159.66 175.12 158.66 174.19 157.48 174.23 L 156.48 174.26 C 155.29 174.30 154.37 175.30 154.41 176.48 C 154.45 177.67 155.44 178.59 156.63 178.55 Z M 157.65 178.52 L 158.61 178.47 C 159.79 178.42 160.71 177.42 160.66 176.23 C 160.60 175.05 159.60 174.13 158.42 174.19 L 157.45 174.23 C 156.27 174.28 155.35 175.29 155.41 176.47 C 155.46 177.66 156.46 178.57 157.65 178.52 Z M 158.64 178.47 L 159.72 178.40 C 160.90 178.33 161.80 177.32 161.73 176.14 C 161.66 174.96 160.65 174.06 159.47 174.13 L 158.39 174.19 C 157.21 174.26 156.31 175.28 156.38 176.46 C 156.45 177.64 157.46 178.54 158.64 178.47 Z M 159.75 178.39 L 160.77 178.31 C 161.94 178.22 162.82 177.20 162.73 176.03 C 162.64 174.86 161.62 173.98 160.45 174.07 L 159.43 174.14 C 158.26 174.23 157.38 175.25 157.47 176.43 C 157.56 177.60 158.58 178.48 159.75 178.39 Z M 160.80 178.30 L 161.77 178.21 C 162.93 178.10 163.79 177.07 163.68 175.91 C 163.58 174.74 162.55 173.89 161.38 173.99 L 160.41 174.08 C 159.25 174.19 158.39 175.22 158.50 176.38 C 158.60 177.55 159.63 178.40 160.80 178.30 Z M 161.80 178.19 L 162.75 178.09 C 163.90 177.97 164.74 176.93 164.62 175.78 C 164.49 174.62 163.46 173.78 162.30 173.91 L 161.35 174.01 C 160.20 174.13 159.36 175.17 159.48 176.33 C 159.61 177.48 160.64 178.32 161.80 178.19 Z M 162.77 178.08 L 163.73 177.96 C 164.88 177.83 165.69 176.78 165.56 175.64 C 165.42 174.49 164.38 173.67 163.23 173.81 L 162.28 173.92 C 161.13 174.06 160.31 175.10 160.45 176.25 C 160.58 177.40 161.63 178.22 162.77 178.08 Z M 163.75 177.95 L 164.72 177.82 C 165.86 177.67 166.66 176.63 166.51 175.49 C 166.36 174.35 165.32 173.55 164.18 173.70 L 163.21 173.82 C 162.07 173.97 161.27 175.02 161.42 176.15 C 161.56 177.29 162.61 178.10 163.75 177.95 Z M 164.73 177.81 L 165.72 177.67 C 166.85 177.51 167.64 176.47 167.48 175.34 C 167.33 174.21 166.29 173.42 165.16 173.58 L 164.17 173.71 C 163.04 173.87 162.25 174.91 162.40 176.04 C 162.56 177.17 163.60 177.96 164.73 177.81 Z M 165.73 177.65 L 166.72 177.51 C 167.85 177.35 168.63 176.31 168.47 175.19 C 168.31 174.07 167.27 173.29 166.15 173.45 L 165.15 173.59 C 164.03 173.75 163.25 174.79 163.41 175.91 C 163.56 177.03 164.60 177.81 165.73 177.65 Z M 166.72 177.50 L 167.74 177.35 C 168.85 177.19 169.62 176.16 169.46 175.05 C 169.30 173.93 168.27 173.16 167.16 173.32 L 166.15 173.46 C 165.03 173.62 164.26 174.66 164.42 175.77 C 164.58 176.88 165.61 177.66 166.72 177.50 Z M 167.73 177.34 L 168.70 177.20 C 169.81 177.04 170.58 176.02 170.42 174.91 C 170.26 173.81 169.24 173.04 168.13 173.19 L 167.16 173.33 C 166.06 173.49 165.29 174.52 165.44 175.62 C 165.60 176.73 166.63 177.50 167.73 177.34 Z M 168.70 177.19 L 169.68 177.05 C 170.77 176.89 171.54 175.87 171.38 174.77 C 171.22 173.68 170.21 172.91 169.11 173.07 L 168.13 173.21 C 167.04 173.37 166.27 174.38 166.43 175.48 C 166.59 176.58 167.60 177.34 168.70 177.19 Z M 169.68 177.03 L 170.67 176.89 C 171.75 176.73 172.51 175.72 172.35 174.63 C 172.19 173.54 171.18 172.79 170.09 172.94 L 169.11 173.09 C 168.02 173.25 167.26 174.26 167.42 175.35 C 167.58 176.43 168.59 177.19 169.68 177.03 Z M 170.67 176.87 L 171.67 176.72 C 172.75 176.56 173.50 175.55 173.34 174.47 C 173.17 173.39 172.17 172.65 171.09 172.81 L 170.09 172.96 C 169.01 173.12 168.26 174.13 168.42 175.21 C 168.59 176.29 169.59 177.03 170.67 176.87 Z M 171.68 176.70 L 172.70 176.54 C 173.77 176.38 174.50 175.37 174.34 174.30 C 174.17 173.23 173.17 172.50 172.10 172.67 L 171.08 172.83 C 170.01 172.99 169.28 174.00 169.44 175.07 C 169.61 176.14 170.61 176.87 171.68 176.70 Z M 172.71 176.52 L 173.68 176.37 C 174.74 176.19 175.46 175.19 175.29 174.13 C 175.11 173.07 174.11 172.36 173.05 172.53 L 172.08 172.69 C 171.02 172.86 170.31 173.86 170.48 174.92 C 170.65 175.98 171.65 176.70 172.71 176.52 Z M 173.69 176.34 L 174.67 176.18 C 175.72 176.00 176.42 175.01 176.25 173.96 C 176.07 172.91 175.07 172.21 174.03 172.38 L 173.05 172.55 C 172.00 172.73 171.29 173.72 171.47 174.77 C 171.65 175.82 172.64 176.52 173.69 176.34 Z M 174.68 176.16 L 175.67 175.98 C 176.70 175.80 177.40 174.81 177.21 173.78 C 177.03 172.74 176.05 172.05 175.01 172.23 L 174.02 172.41 C 172.99 172.59 172.29 173.57 172.48 174.61 C 172.66 175.64 173.64 176.34 174.68 176.16 Z M 175.67 175.96 L 176.66 175.78 C 177.69 175.60 178.37 174.62 178.19 173.60 C 178.00 172.58 177.02 171.89 176.00 172.08 L 175.01 172.25 C 173.98 172.44 173.30 173.41 173.48 174.44 C 173.67 175.46 174.65 176.14 175.67 175.96 Z M 176.66 175.76 L 177.65 175.58 C 178.67 175.40 179.34 174.43 179.16 173.42 C 178.97 172.41 178.00 171.73 176.99 171.92 L 176.00 172.10 C 174.99 172.28 174.31 173.25 174.50 174.26 C 174.68 175.27 175.65 175.95 176.66 175.76 Z M 177.65 175.56 L 178.65 175.38 C 179.65 175.20 180.31 174.24 180.13 173.24 C 179.95 172.24 178.99 171.57 177.99 171.76 L 176.99 171.94 C 175.99 172.12 175.33 173.08 175.51 174.08 C 175.69 175.08 176.65 175.75 177.65 175.56 Z M 178.65 175.36 L 179.63 175.18 C 180.63 175.00 181.28 174.05 181.10 173.06 C 180.92 172.07 179.97 171.41 178.98 171.59 L 177.99 171.78 C 177.00 171.96 176.34 172.91 176.52 173.90 C 176.70 174.89 177.65 175.55 178.65 175.36 Z M 179.63 175.16 L 180.62 174.98 C 181.60 174.80 182.25 173.86 182.07 172.88 C 181.89 171.90 180.94 171.25 179.96 171.43 L 178.98 171.61 C 178.00 171.79 177.35 172.73 177.53 173.72 C 177.71 174.70 178.65 175.34 179.63 175.16 Z M 180.62 174.96 L 181.60 174.78 C 182.56 174.60 183.21 173.67 183.03 172.70 C 182.85 171.73 181.92 171.09 180.95 171.27 L 179.97 171.45 C 179.00 171.63 178.36 172.56 178.53 173.53 C 178.71 174.50 179.65 175.14 180.62 174.96 Z M 181.59 174.76 L 182.57 174.58 C 183.53 174.40 184.16 173.48 183.98 172.52 C 183.80 171.56 182.88 170.93 181.92 171.11 L 180.95 171.29 C 179.99 171.47 179.35 172.39 179.53 173.35 C 179.71 174.31 180.63 174.94 181.59 174.76 Z M 182.57 174.56 L 183.55 174.38 C 184.50 174.20 185.13 173.29 184.95 172.34 C 184.77 171.39 183.86 170.76 182.91 170.94 L 181.92 171.13 C 180.97 171.30 180.35 172.22 180.53 173.17 C 180.70 174.12 181.62 174.74 182.57 174.56 Z M 183.55 174.36 L 184.54 174.18 C 185.48 174.00 186.10 173.10 185.92 172.16 C 185.74 171.21 184.84 170.60 183.90 170.77 L 182.91 170.96 C 181.97 171.13 181.35 172.04 181.53 172.98 C 181.70 173.92 182.61 174.54 183.55 174.36 Z M 184.53 174.16 L 185.52 173.98 C 186.45 173.80 187.06 172.91 186.89 171.97 C 186.71 171.04 185.81 170.43 184.88 170.60 L 183.90 170.79 C 182.96 170.96 182.35 171.86 182.53 172.79 C 182.70 173.73 183.60 174.34 184.53 174.16 Z M 185.51 173.96 L 186.49 173.78 C 187.42 173.61 188.03 172.71 187.85 171.79 C 187.68 170.86 186.79 170.26 185.86 170.43 L 184.88 170.62 C 183.96 170.79 183.35 171.68 183.52 172.61 C 183.70 173.53 184.59 174.14 185.51 173.96 Z M 186.49 173.77 L 187.47 173.58 C 188.39 173.41 188.99 172.52 188.82 171.61 C 188.64 170.69 187.76 170.09 186.84 170.26 L 185.86 170.45 C 184.95 170.62 184.34 171.50 184.52 172.42 C 184.69 173.34 185.57 173.94 186.49 173.77 Z M 187.47 173.57 L 188.42 173.39 C 189.33 173.22 189.92 172.34 189.75 171.43 C 189.58 170.52 188.70 169.92 187.79 170.09 L 186.84 170.27 C 185.93 170.44 185.34 171.32 185.51 172.23 C 185.68 173.14 186.56 173.74 187.47 173.57 Z M 188.41 173.38 L 189.35 173.20 C 190.26 173.03 190.85 172.16 190.68 171.26 C 190.51 170.35 189.64 169.75 188.74 169.92 L 187.79 170.10 C 186.89 170.27 186.29 171.14 186.46 172.05 C 186.63 172.96 187.51 173.55 188.41 173.38 Z M 189.35 173.20 L 190.31 173.02 C 191.21 172.85 191.81 171.98 191.64 171.08 C 191.47 170.18 190.60 169.58 189.70 169.75 L 188.74 169.93 C 187.84 170.10 187.24 170.97 187.41 171.87 C 187.58 172.77 188.45 173.36 189.35 173.20 Z M 190.30 173.01 L 191.29 172.83 C 192.19 172.66 192.78 171.80 192.62 170.91 C 192.46 170.01 191.59 169.41 190.70 169.58 L 189.71 169.76 C 188.81 169.92 188.21 170.79 188.38 171.68 C 188.54 172.58 189.40 173.18 190.30 173.01 Z M 191.28 172.82 L 192.32 172.64 C 193.21 172.48 193.80 171.62 193.64 170.73 C 193.48 169.83 192.63 169.24 191.73 169.40 L 190.70 169.58 C 189.81 169.74 189.22 170.60 189.38 171.49 C 189.54 172.39 190.39 172.98 191.28 172.82 Z M 192.31 172.63 L 193.31 172.46 C 194.20 172.30 194.79 171.45 194.64 170.56 C 194.48 169.67 193.63 169.07 192.74 169.23 L 191.74 169.40 C 190.85 169.56 190.25 170.41 190.41 171.30 C 190.57 172.19 191.42 172.79 192.31 172.63 Z M 193.30 172.46 L 194.24 172.30 C 195.13 172.15 195.73 171.30 195.57 170.41 C 195.42 169.52 194.58 168.92 193.68 169.07 L 192.75 169.23 C 191.86 169.38 191.26 170.23 191.41 171.12 C 191.56 172.01 192.41 172.61 193.30 172.46 Z M 194.23 172.30 L 195.20 172.14 C 196.09 171.99 196.69 171.14 196.54 170.25 C 196.39 169.36 195.55 168.76 194.66 168.91 L 193.69 169.07 C 192.80 169.22 192.20 170.06 192.35 170.96 C 192.50 171.85 193.34 172.45 194.23 172.30 Z M 195.20 172.14 L 196.19 171.97 C 197.08 171.82 197.68 170.98 197.54 170.09 C 197.39 169.20 196.54 168.59 195.65 168.74 L 194.66 168.91 C 193.77 169.05 193.17 169.90 193.31 170.79 C 193.46 171.68 194.30 172.28 195.20 172.14 Z M 196.19 171.97 L 197.20 171.80 C 198.09 171.66 198.69 170.82 198.55 169.92 C 198.40 169.03 197.56 168.43 196.66 168.57 L 195.65 168.74 C 194.76 168.89 194.16 169.73 194.31 170.62 C 194.45 171.51 195.29 172.12 196.19 171.97 Z M 197.20 171.81 L 198.22 171.64 C 199.11 171.49 199.71 170.65 199.57 169.76 C 199.42 168.87 198.58 168.26 197.69 168.41 L 196.67 168.57 C 195.77 168.72 195.17 169.56 195.32 170.45 C 195.46 171.35 196.30 171.95 197.20 171.81 Z M 198.22 171.64 L 199.12 171.49 C 200.01 171.35 200.61 170.50 200.47 169.61 C 200.32 168.72 199.48 168.11 198.59 168.26 L 197.69 168.41 C 196.80 168.55 196.19 169.39 196.34 170.29 C 196.48 171.18 197.32 171.78 198.22 171.64 Z"
      fill="black"
      fill-rule="nonzero" /></svg>