<svg xmlns="http://www.w3.org/2000/svg" width="300" height="300" viewBox="0 0 300 300">
<path d="M 133.92 99.22 L 134.80 98.90 C 135.71 98.58 136.18 97.59 135.86 96.68 C 135.54 95.77 134.55 95.30 133.64 95.62 L 132.76 95.93 C 131.85 96.25 131.38 97.25 131.70 98.16 C 132.02 99.06 133.01 99.54 133.92 99.22 Z M 134.73 98.94 L 135.66 98.66 C 136.59 98.38 137.11 97.40 136.83 96.47 C 136.55 95.55 135.57 95.02 134.65 95.30 L 133.72 95.58 C 132.79 95.86 132.26 96.84 132.54 97.77 C 132.82 98.69 133.80 99.22 134.73 98.94 Z M 135.52 98.71 L 136.54 98.49 C 137.50 98.29 138.11 97.35 137.90 96.40 C 137.70 95.45 136.77 94.84 135.81 95.04 L 134.79 95.25 C 133.84 95.46 133.23 96.39 133.43 97.34 C 133.63 98.30 134.56 98.91 135.52 98.71 Z M 136.38 98.52 L 137.32 98.42 C 138.29 98.31 138.99 97.43 138.88 96.46 C 138.77 95.48 137.89 94.79 136.92 94.90 L 135.98 95.00 C 135.01 95.11 134.31 95.99 134.42 96.96 C 134.53 97.94 135.41 98.63 136.38 98.52 Z M 137.19 98.43 L 138.11 98.40 C 139.09 98.36 139.86 97.54 139.82 96.56 C 139.79 95.58 138.96 94.82 137.99 94.85 L 137.06 94.88 C 136.08 94.92 135.31 95.74 135.35 96.72 C 135.38 97.70 136.21 98.46 137.19 98.43 Z M 138.00 98.40 L 139.00 98.42 C 139.98 98.45 140.79 97.68 140.82 96.70 C 140.85 95.72 140.07 94.90 139.10 94.88 L 138.10 94.85 C 137.12 94.82 136.30 95.60 136.28 96.57 C 136.25 97.55 137.02 98.37 138.00 98.40 Z M 138.90 98.42 L 139.96 98.51 C 140.93 98.59 141.79 97.87 141.87 96.89 C 141.95 95.91 141.23 95.06 140.25 94.97 L 139.20 94.88 C 138.22 94.80 137.36 95.53 137.28 96.50 C 137.20 97.48 137.92 98.34 138.90 98.42 Z M 139.86 98.50 L 140.96 98.65 C 141.92 98.78 142.82 98.10 142.95 97.13 C 143.09 96.16 142.41 95.27 141.44 95.13 L 140.35 94.98 C 139.38 94.85 138.48 95.53 138.35 96.50 C 138.22 97.47 138.89 98.36 139.86 98.50 Z M 140.88 98.62 L 141.88 98.81 C 142.84 98.98 143.76 98.35 143.94 97.39 C 144.11 96.44 143.48 95.52 142.52 95.34 L 141.52 95.16 C 140.56 94.98 139.64 95.61 139.46 96.57 C 139.29 97.53 139.92 98.45 140.88 98.62 Z M 141.82 98.78 L 142.83 99.01 C 143.77 99.22 144.70 98.63 144.92 97.69 C 145.13 96.75 144.54 95.81 143.60 95.60 L 142.59 95.37 C 141.65 95.16 140.71 95.75 140.50 96.69 C 140.29 97.63 140.88 98.57 141.82 98.78 Z M 142.76 98.97 L 143.75 99.24 C 144.68 99.49 145.62 98.94 145.87 98.02 C 146.12 97.09 145.57 96.15 144.65 95.90 L 143.66 95.63 C 142.74 95.39 141.79 95.93 141.54 96.86 C 141.30 97.78 141.84 98.73 142.76 98.97 Z M 143.69 99.20 L 144.63 99.50 C 145.53 99.78 146.49 99.28 146.78 98.38 C 147.06 97.48 146.56 96.52 145.66 96.23 L 144.72 95.94 C 143.82 95.65 142.85 96.15 142.57 97.05 C 142.29 97.96 142.79 98.92 143.69 99.20 Z M 144.56 99.45 L 145.42 99.78 C 146.30 100.10 147.28 99.66 147.60 98.78 C 147.93 97.90 147.48 96.93 146.61 96.60 L 145.74 96.28 C 144.86 95.95 143.88 96.40 143.56 97.28 C 143.23 98.15 143.68 99.13 144.56 99.45 Z M 145.32 99.72 L 146.33 100.18 C 147.18 100.56 148.18 100.19 148.56 99.34 C 148.94 98.50 148.57 97.50 147.72 97.12 L 146.71 96.66 C 145.86 96.28 144.87 96.65 144.49 97.50 C 144.10 98.34 144.48 99.34 145.32 99.72 Z M 146.22 100.11 L 147.11 100.60 C 147.92 101.04 148.93 100.75 149.37 99.94 C 149.82 99.13 149.52 98.12 148.72 97.68 L 147.83 97.19 C 147.03 96.74 146.01 97.04 145.57 97.85 C 145.12 98.65 145.42 99.67 146.22 100.11 Z M 147.03 100.54 L 147.83 101.04 C 148.60 101.53 149.62 101.30 150.11 100.53 C 150.60 99.75 150.37 98.73 149.60 98.24 L 148.80 97.74 C 148.03 97.25 147.00 97.48 146.52 98.25 C 146.03 99.03 146.26 100.05 147.03 100.54 Z M 147.79 101.00 L 148.47 101.46 C 149.22 101.96 150.24 101.77 150.75 101.01 C 151.25 100.26 151.06 99.24 150.30 98.73 L 149.63 98.28 C 148.88 97.77 147.86 97.97 147.35 98.72 C 146.84 99.47 147.04 100.50 147.79 101.00 Z"
      fill="black"
      fill-rule="nonzero" /><path d="M 125.89 110.86 L 126.86 111.19 C 127.75 111.50 128.72 111.02 129.03 110.13 C 129.33 109.24 128.85 108.27 127.96 107.96 L 126.99 107.63 C 126.10 107.33 125.13 107.81 124.83 108.70 C 124.52 109.59 125.00 110.56 125.89 110.86 Z M 126.90 111.25 L 127.87 111.54 C 128.79 111.82 129.76 111.30 130.05 110.38 C 130.33 109.46 129.81 108.48 128.88 108.20 L 127.92 107.91 C 127.00 107.63 126.02 108.15 125.74 109.07 C 125.46 109.99 125.98 110.97 126.90 111.25 Z M 127.97 111.61 L 128.93 111.84 C 129.89 112.06 130.85 111.46 131.07 110.50 C 131.30 109.54 130.70 108.58 129.74 108.36 L 128.78 108.13 C 127.82 107.91 126.86 108.51 126.64 109.47 C 126.41 110.43 127.01 111.39 127.97 111.61 Z M 129.11 111.90 L 130.07 112.02 C 131.06 112.14 131.97 111.43 132.09 110.44 C 132.22 109.44 131.51 108.54 130.52 108.41 L 129.56 108.29 C 128.56 108.17 127.66 108.88 127.53 109.87 C 127.41 110.87 128.12 111.78 129.11 111.90 Z M 130.29 112.04 L 131.25 112.04 C 132.26 112.04 133.08 111.23 133.08 110.22 C 133.08 109.21 132.26 108.39 131.26 108.39 L 130.29 108.39 C 129.28 108.39 128.47 109.20 128.46 110.21 C 128.46 111.22 129.28 112.04 130.29 112.04 Z M 131.44 112.03 L 132.43 111.93 C 133.43 111.83 134.16 110.93 134.06 109.93 C 133.95 108.93 133.06 108.20 132.05 108.30 L 131.07 108.40 C 130.07 108.50 129.34 109.40 129.44 110.40 C 129.54 111.40 130.44 112.13 131.44 112.03 Z M 132.56 111.91 L 133.60 111.72 C 134.59 111.55 135.25 110.60 135.07 109.61 C 134.89 108.62 133.95 107.96 132.96 108.14 L 131.92 108.32 C 130.93 108.50 130.27 109.44 130.45 110.44 C 130.62 111.43 131.57 112.09 132.56 111.91 Z M 133.67 111.70 L 134.58 111.50 C 135.56 111.28 136.18 110.31 135.96 109.33 C 135.74 108.35 134.77 107.73 133.79 107.95 L 132.88 108.16 C 131.90 108.38 131.28 109.35 131.50 110.33 C 131.72 111.31 132.70 111.92 133.67 111.70 Z M 134.62 111.48 L 135.56 111.25 C 136.53 111.00 137.12 110.02 136.88 109.05 C 136.64 108.08 135.65 107.49 134.68 107.73 L 133.74 107.97 C 132.77 108.21 132.18 109.20 132.43 110.17 C 132.67 111.14 133.65 111.73 134.62 111.48 Z M 135.59 111.23 L 136.57 110.97 C 137.53 110.71 138.10 109.73 137.85 108.76 C 137.59 107.80 136.60 107.23 135.64 107.49 L 134.66 107.75 C 133.70 108.01 133.12 108.99 133.38 109.96 C 133.64 110.92 134.62 111.49 135.59 111.23 Z M 136.58 110.96 L 137.60 110.68 C 138.56 110.42 139.12 109.43 138.86 108.47 C 138.59 107.52 137.61 106.95 136.65 107.22 L 135.63 107.50 C 134.67 107.76 134.11 108.75 134.37 109.70 C 134.63 110.66 135.62 111.22 136.58 110.96 Z M 137.60 110.67 L 138.58 110.40 C 139.53 110.14 140.09 109.16 139.82 108.21 C 139.56 107.25 138.58 106.69 137.63 106.96 L 136.65 107.23 C 135.70 107.49 135.14 108.47 135.40 109.42 C 135.66 110.37 136.65 110.93 137.60 110.67 Z M 138.57 110.39 L 139.52 110.14 C 140.46 109.88 141.02 108.90 140.76 107.95 C 140.50 107.00 139.52 106.45 138.58 106.71 L 137.63 106.97 C 136.68 107.22 136.13 108.20 136.39 109.15 C 136.65 110.10 137.62 110.65 138.57 110.39 Z M 139.51 110.13 L 140.48 109.86 C 141.42 109.60 141.97 108.63 141.71 107.69 C 141.46 106.75 140.48 106.19 139.54 106.45 L 138.58 106.72 C 137.64 106.97 137.08 107.95 137.34 108.89 C 137.60 109.83 138.57 110.38 139.51 110.13 Z M 140.48 109.85 L 141.45 109.58 C 142.39 109.32 142.94 108.35 142.68 107.42 C 142.42 106.48 141.45 105.93 140.52 106.19 L 139.54 106.46 C 138.61 106.72 138.06 107.69 138.32 108.62 C 138.57 109.56 139.54 110.11 140.48 109.85 Z M 141.46 109.57 L 142.44 109.29 C 143.37 109.03 143.91 108.07 143.65 107.14 C 143.39 106.21 142.43 105.67 141.50 105.93 L 140.52 106.20 C 139.59 106.46 139.04 107.43 139.30 108.36 C 139.56 109.29 140.53 109.83 141.46 109.57 Z M 142.44 109.28 L 143.44 109.00 C 144.36 108.74 144.90 107.78 144.63 106.85 C 144.37 105.93 143.41 105.40 142.49 105.66 L 141.49 105.94 C 140.57 106.20 140.04 107.16 140.30 108.09 C 140.56 109.01 141.52 109.54 142.44 109.28 Z M 143.44 108.99 L 144.44 108.70 C 145.35 108.43 145.88 107.48 145.61 106.56 C 145.35 105.65 144.39 105.12 143.48 105.38 L 142.49 105.67 C 141.57 105.94 141.04 106.89 141.31 107.81 C 141.57 108.72 142.53 109.25 143.44 108.99 Z M 144.44 108.69 L 145.42 108.40 C 146.32 108.13 146.84 107.18 146.58 106.28 C 146.31 105.37 145.36 104.85 144.46 105.11 L 143.48 105.40 C 142.57 105.66 142.05 106.61 142.31 107.52 C 142.58 108.43 143.53 108.95 144.44 108.69 Z M 145.41 108.39 L 146.37 108.11 C 147.27 107.84 147.78 106.90 147.52 106.00 C 147.25 105.10 146.31 104.58 145.41 104.84 L 144.46 105.12 C 143.56 105.39 143.04 106.33 143.30 107.23 C 143.57 108.14 144.51 108.65 145.41 108.39 Z M 146.36 108.10 L 147.28 107.83 C 148.17 107.57 148.69 106.63 148.42 105.73 C 148.16 104.84 147.22 104.32 146.33 104.59 L 145.41 104.86 C 144.52 105.12 144.00 106.06 144.27 106.95 C 144.53 107.85 145.47 108.36 146.36 108.10 Z M 147.27 107.82 L 148.26 107.53 C 149.15 107.27 149.66 106.34 149.40 105.45 C 149.14 104.56 148.21 104.05 147.32 104.31 L 146.33 104.60 C 145.44 104.86 144.93 105.79 145.19 106.68 C 145.45 107.57 146.38 108.08 147.27 107.82 Z M 148.25 107.52 L 149.23 107.24 C 150.12 106.99 150.63 106.07 150.38 105.18 C 150.13 104.29 149.20 103.78 148.32 104.03 L 147.33 104.31 C 146.45 104.57 145.93 105.49 146.19 106.38 C 146.44 107.26 147.36 107.78 148.25 107.52 Z M 149.22 107.24 L 150.16 106.98 C 151.05 106.73 151.57 105.82 151.32 104.94 C 151.08 104.05 150.17 103.53 149.28 103.78 L 148.33 104.04 C 147.45 104.28 146.93 105.20 147.17 106.08 C 147.42 106.96 148.33 107.48 149.22 107.24 Z M 150.14 106.98 L 151.07 106.73 C 151.95 106.50 152.48 105.60 152.25 104.72 C 152.02 103.83 151.11 103.31 150.23 103.54 L 149.30 103.78 C 148.42 104.01 147.89 104.91 148.12 105.79 C 148.35 106.68 149.26 107.21 150.14 106.98 Z M 151.03 106.74 L 152.23 106.45 C 153.11 106.24 153.66 105.35 153.45 104.47 C 153.24 103.58 152.35 103.04 151.46 103.25 L 150.27 103.53 C 149.38 103.74 148.84 104.63 149.05 105.52 C 149.26 106.40 150.15 106.95 151.03 106.74 Z M 152.13 106.47 L 153.28 106.26 C 154.18 106.10 154.77 105.25 154.62 104.36 C 154.46 103.47 153.61 102.87 152.71 103.03 L 151.56 103.23 C 150.67 103.39 150.07 104.24 150.23 105.14 C 150.39 106.03 151.24 106.62 152.13 106.47 Z M 152.82 106.27 L 153.40 106.34 C 154.30 106.43 155.10 105.78 155.20 104.88 C 155.30 103.98 154.65 103.17 153.75 103.08 L 153.17 103.02 C 152.27 102.92 151.47 103.57 151.37 104.47 C 151.27 105.37 151.92 106.18 152.82 106.27 Z M 152.17 103.86 L 151.94 104.24 C 151.47 105.02 151.73 106.03 152.50 106.49 C 153.28 106.96 154.28 106.71 154.75 105.93 L 154.98 105.55 C 155.44 104.77 155.19 103.77 154.42 103.30 C 153.64 102.84 152.63 103.09 152.17 103.86 Z M 152.34 103.80 L 151.54 104.41 C 150.83 104.97 150.70 106.00 151.26 106.71 C 151.82 107.43 152.84 107.55 153.56 107.00 L 154.35 106.38 C 155.06 105.82 155.19 104.79 154.64 104.08 C 154.08 103.37 153.05 103.24 152.34 103.80 Z M 151.63 104.35 L 150.53 105.10 C 149.78 105.61 149.59 106.63 150.10 107.38 C 150.61 108.12 151.63 108.32 152.38 107.81 L 153.47 107.06 C 154.22 106.55 154.41 105.53 153.90 104.78 C 153.39 104.04 152.38 103.84 151.63 104.35 Z M 150.54 105.09 L 150.33 105.23 C 149.58 105.74 149.38 106.75 149.88 107.50 C 150.38 108.26 151.40 108.46 152.15 107.96 L 152.36 107.82 C 153.11 107.31 153.32 106.30 152.81 105.55 C 152.31 104.79 151.30 104.59 150.54 105.09 Z"
      fill="black"
      fill-rule="nonzero" /><path d="M 133.42 129.15 L 133.42 130.12 C 133.42 131.02 134.16 131.76 135.06 131.76 C 135.97 131.76 136.70 131.02 136.70 130.12 L 136.70 129.15 C 136.70 128.24 135.97 127.51 135.06 127.51 C 134.16 127.51 133.42 128.24 133.42 129.15 Z M 133.41 130.12 L 133.41 131.11 C 133.41 132.02 134.15 132.75 135.06 132.75 C 135.97 132.75 136.71 132.02 136.71 131.11 L 136.71 130.12 C 136.71 129.21 135.97 128.47 135.06 128.47 C 134.15 128.47 133.41 129.21 133.41 130.12 Z M 133.41 131.11 L 133.41 132.13 C 133.41 133.05 134.15 133.79 135.06 133.79 C 135.98 133.79 136.72 133.05 136.72 132.13 L 136.72 131.11 C 136.72 130.19 135.98 129.45 135.06 129.45 C 134.15 129.45 133.41 130.19 133.41 131.11 Z M 133.40 132.14 L 133.40 133.17 C 133.41 134.09 134.15 134.83 135.07 134.83 C 135.99 134.82 136.73 134.08 136.73 133.16 L 136.72 132.13 C 136.72 131.21 135.97 130.47 135.06 130.47 C 134.14 130.47 133.40 131.22 133.40 132.14 Z M 133.40 133.24 L 133.45 134.27 C 133.49 135.19 134.27 135.90 135.19 135.86 C 136.10 135.82 136.81 135.04 136.77 134.12 L 136.73 133.09 C 136.69 132.17 135.91 131.46 134.99 131.50 C 134.07 131.54 133.36 132.32 133.40 133.24 Z M 133.46 134.44 L 133.61 135.42 C 133.75 136.33 134.60 136.96 135.51 136.82 C 136.42 136.69 137.04 135.84 136.91 134.93 L 136.76 133.95 C 136.62 133.04 135.77 132.41 134.86 132.55 C 133.95 132.68 133.33 133.53 133.46 134.44 Z M 133.69 135.74 L 134.01 136.63 C 134.31 137.50 135.27 137.95 136.14 137.64 C 137.00 137.33 137.46 136.38 137.15 135.51 L 136.83 134.62 C 136.52 133.75 135.57 133.30 134.70 133.60 C 133.83 133.91 133.38 134.87 133.69 135.74 Z M 134.21 137.02 L 134.76 137.82 C 135.29 138.58 136.32 138.77 137.08 138.25 C 137.84 137.73 138.03 136.69 137.50 135.93 L 136.95 135.12 C 136.42 134.37 135.39 134.18 134.63 134.70 C 133.87 135.22 133.68 136.26 134.21 137.02 Z M 134.98 138.07 L 135.69 138.76 C 136.35 139.40 137.40 139.38 138.03 138.73 C 138.67 138.07 138.66 137.02 138.00 136.38 L 137.29 135.69 C 136.63 135.05 135.58 135.07 134.95 135.72 C 134.31 136.38 134.32 137.43 134.98 138.07 Z M 135.81 138.85 L 136.54 139.45 C 137.25 140.03 138.29 139.92 138.86 139.21 C 139.44 138.50 139.33 137.46 138.62 136.89 L 137.89 136.29 C 137.18 135.71 136.14 135.82 135.56 136.53 C 134.99 137.24 135.10 138.28 135.81 138.85 Z"
      fill="black"
      fill-rule="nonzero" /><path d="M 140.04 121.64 L 140.96 121.75 C 141.94 121.85 142.83 121.14 142.94 120.16 C 143.05 119.17 142.34 118.29 141.35 118.18 L 140.43 118.08 C 139.45 117.97 138.56 118.68 138.45 119.67 C 138.34 120.65 139.05 121.54 140.04 121.64 Z M 140.98 121.73 L 141.93 121.83 C 142.91 121.93 143.78 121.21 143.88 120.24 C 143.97 119.26 143.26 118.39 142.29 118.29 L 141.34 118.20 C 140.36 118.10 139.49 118.81 139.39 119.78 C 139.29 120.76 140.00 121.63 140.98 121.73 Z M 141.96 121.81 L 142.97 121.90 C 143.94 121.98 144.79 121.27 144.88 120.30 C 144.96 119.33 144.24 118.48 143.28 118.39 L 142.26 118.31 C 141.29 118.22 140.44 118.94 140.36 119.91 C 140.27 120.88 140.99 121.73 141.96 121.81 Z M 143.01 121.89 L 144.10 121.96 C 145.06 122.02 145.89 121.30 145.95 120.34 C 146.02 119.38 145.29 118.55 144.33 118.48 L 143.24 118.41 C 142.28 118.34 141.45 119.07 141.38 120.03 C 141.32 120.99 142.05 121.82 143.01 121.89 Z M 144.12 121.95 L 145.11 122.00 C 146.07 122.06 146.88 121.32 146.94 120.37 C 146.99 119.41 146.26 118.60 145.30 118.54 L 144.31 118.49 C 143.35 118.44 142.54 119.17 142.48 120.13 C 142.43 121.08 143.16 121.90 144.12 121.95 Z M 145.09 122.00 L 146.12 122.06 C 147.08 122.13 147.90 121.40 147.96 120.45 C 148.02 119.50 147.30 118.68 146.35 118.62 L 145.32 118.55 C 144.37 118.49 143.55 119.21 143.48 120.16 C 143.42 121.11 144.14 121.94 145.09 122.00 Z M 146.07 122.05 L 147.09 122.16 C 148.03 122.25 148.88 121.56 148.97 120.61 C 149.07 119.67 148.38 118.83 147.43 118.73 L 146.41 118.63 C 145.46 118.53 144.62 119.22 144.52 120.17 C 144.43 121.12 145.12 121.96 146.07 122.05 Z M 146.98 122.14 L 147.96 122.30 C 148.89 122.45 149.77 121.82 149.93 120.88 C 150.08 119.95 149.45 119.06 148.51 118.91 L 147.54 118.75 C 146.60 118.60 145.72 119.23 145.57 120.17 C 145.41 121.10 146.05 121.98 146.98 122.14 Z M 147.78 122.25 L 148.72 122.51 C 149.63 122.77 150.58 122.23 150.83 121.32 C 151.08 120.41 150.55 119.47 149.64 119.22 L 148.69 118.96 C 147.78 118.70 146.84 119.24 146.59 120.15 C 146.33 121.06 146.87 122.00 147.78 122.25 Z M 148.44 122.40 L 149.35 122.84 C 150.19 123.24 151.21 122.89 151.62 122.04 C 152.03 121.19 151.67 120.17 150.82 119.77 L 149.92 119.33 C 149.07 118.92 148.05 119.28 147.65 120.13 C 147.24 120.98 147.60 121.99 148.44 122.40 Z M 149.01 122.61 L 149.75 123.22 C 150.47 123.81 151.54 123.70 152.13 122.98 C 152.73 122.26 152.62 121.19 151.90 120.60 L 151.16 119.99 C 150.44 119.40 149.37 119.50 148.77 120.23 C 148.18 120.95 148.29 122.02 149.01 122.61 Z M 149.45 122.89 L 150.03 123.69 C 150.57 124.44 151.62 124.62 152.38 124.07 C 153.14 123.53 153.31 122.47 152.76 121.72 L 152.19 120.92 C 151.65 120.16 150.59 119.99 149.84 120.54 C 149.08 121.08 148.91 122.14 149.45 122.89 Z M 149.85 123.35 L 150.23 124.28 C 150.59 125.13 151.58 125.53 152.43 125.17 C 153.29 124.81 153.69 123.83 153.33 122.97 L 152.94 122.05 C 152.58 121.20 151.60 120.79 150.74 121.15 C 149.89 121.51 149.49 122.50 149.85 123.35 Z M 150.16 124.02 L 150.39 124.99 C 150.61 125.89 151.52 126.44 152.42 126.22 C 153.31 126.00 153.87 125.09 153.65 124.19 L 153.41 123.23 C 153.19 122.33 152.28 121.78 151.39 122.00 C 150.49 122.22 149.94 123.12 150.16 124.02 Z M 150.36 124.80 L 150.49 125.83 C 150.61 126.75 151.44 127.40 152.36 127.28 C 153.27 127.17 153.92 126.33 153.81 125.41 L 153.68 124.38 C 153.56 123.47 152.73 122.82 151.81 122.93 C 150.90 123.05 150.25 123.88 150.36 124.80 Z M 150.48 125.66 L 150.51 126.70 C 150.53 127.62 151.29 128.34 152.21 128.32 C 153.13 128.30 153.86 127.54 153.84 126.62 L 153.81 125.58 C 153.79 124.66 153.03 123.94 152.11 123.96 C 151.19 123.98 150.46 124.74 150.48 125.66 Z M 150.52 126.52 L 150.44 127.49 C 150.36 128.41 151.04 129.21 151.96 129.29 C 152.87 129.36 153.68 128.68 153.75 127.76 L 153.83 126.79 C 153.90 125.88 153.22 125.07 152.31 125.00 C 151.39 124.92 150.59 125.61 150.52 126.52 Z M 150.48 127.26 L 150.24 128.30 C 150.04 129.19 150.60 130.08 151.49 130.28 C 152.38 130.48 153.27 129.92 153.47 129.03 L 153.71 128.00 C 153.91 127.10 153.35 126.22 152.46 126.01 C 151.57 125.81 150.68 126.37 150.48 127.26 Z M 150.34 128.02 L 149.95 128.93 C 149.59 129.77 149.98 130.74 150.82 131.10 C 151.66 131.46 152.63 131.07 152.98 130.23 L 153.38 129.31 C 153.73 128.47 153.34 127.50 152.51 127.14 C 151.67 126.79 150.70 127.18 150.34 128.02 Z M 150.07 128.71 L 149.57 129.51 C 149.08 130.28 149.31 131.30 150.08 131.78 C 150.85 132.26 151.87 132.03 152.35 131.26 L 152.86 130.46 C 153.34 129.69 153.11 128.67 152.34 128.19 C 151.57 127.71 150.56 127.94 150.07 128.71 Z M 149.66 129.38 L 149.08 130.14 C 148.53 130.85 148.66 131.88 149.37 132.44 C 150.09 132.99 151.12 132.86 151.68 132.14 L 152.26 131.39 C 152.81 130.67 152.68 129.64 151.96 129.09 C 151.25 128.53 150.22 128.67 149.66 129.38 Z M 149.12 130.08 L 148.51 130.81 C 147.93 131.50 148.02 132.54 148.71 133.12 C 149.41 133.70 150.44 133.61 151.02 132.92 L 151.63 132.19 C 152.21 131.50 152.12 130.47 151.43 129.88 C 150.74 129.30 149.71 129.39 149.12 130.08 Z M 148.55 130.77 L 147.89 131.51 C 147.28 132.18 147.34 133.22 148.01 133.82 C 148.69 134.43 149.72 134.37 150.33 133.70 L 150.99 132.96 C 151.59 132.29 151.53 131.25 150.86 130.65 C 150.19 130.04 149.15 130.10 148.55 130.77 Z M 147.92 131.47 L 147.21 132.22 C 146.59 132.87 146.61 133.91 147.26 134.53 C 147.92 135.16 148.95 135.13 149.58 134.48 L 150.29 133.73 C 150.92 133.08 150.89 132.04 150.24 131.42 C 149.58 130.79 148.55 130.82 147.92 131.47 Z M 147.24 132.18 L 146.51 132.90 C 145.87 133.54 145.86 134.58 146.50 135.22 C 147.13 135.86 148.17 135.87 148.81 135.24 L 149.54 134.51 C 150.19 133.88 150.19 132.84 149.56 132.20 C 148.93 131.55 147.89 131.55 147.24 132.18 Z M 146.54 132.87 L 145.82 133.55 C 145.16 134.16 145.13 135.20 145.74 135.86 C 146.36 136.52 147.40 136.56 148.06 135.94 L 148.78 135.27 C 149.44 134.65 149.48 133.61 148.86 132.95 C 148.24 132.29 147.21 132.26 146.54 132.87 Z M 145.86 133.52 L 145.10 134.18 C 144.42 134.78 144.36 135.82 144.96 136.49 C 145.56 137.17 146.59 137.23 147.27 136.64 L 148.02 135.97 C 148.70 135.37 148.77 134.34 148.17 133.66 C 147.57 132.98 146.53 132.92 145.86 133.52 Z M 145.14 134.15 L 144.36 134.80 C 143.66 135.38 143.57 136.41 144.15 137.11 C 144.73 137.80 145.76 137.89 146.46 137.31 L 147.23 136.67 C 147.93 136.09 148.02 135.05 147.44 134.36 C 146.86 133.67 145.83 133.57 145.14 134.15 Z M 144.40 134.77 L 143.60 135.39 C 142.89 135.95 142.77 136.98 143.32 137.69 C 143.88 138.40 144.91 138.53 145.62 137.97 L 146.42 137.35 C 147.13 136.79 147.25 135.76 146.70 135.05 C 146.14 134.34 145.11 134.21 144.40 134.77 Z M 143.64 135.36 L 142.81 135.97 C 142.08 136.50 141.93 137.53 142.46 138.26 C 143.00 138.99 144.02 139.15 144.75 138.61 L 145.58 138.00 C 146.31 137.47 146.47 136.44 145.93 135.71 C 145.40 134.98 144.37 134.83 143.64 135.36 Z M 142.85 135.94 L 142.02 136.51 C 141.28 137.03 141.09 138.05 141.60 138.79 C 142.11 139.54 143.13 139.73 143.88 139.21 L 144.71 138.64 C 145.46 138.13 145.64 137.11 145.13 136.36 C 144.62 135.62 143.60 135.43 142.85 135.94 Z M 142.05 136.49 L 141.23 137.03 C 140.47 137.53 140.26 138.55 140.75 139.30 C 141.25 140.06 142.26 140.27 143.02 139.78 L 143.85 139.23 C 144.61 138.74 144.82 137.72 144.32 136.97 C 143.83 136.21 142.81 136.00 142.05 136.49 Z M 141.25 137.02 L 140.43 137.53 C 139.66 138.02 139.43 139.03 139.92 139.79 C 140.40 140.56 141.41 140.79 142.18 140.31 L 143.00 139.79 C 143.76 139.31 143.99 138.30 143.51 137.53 C 143.03 136.77 142.02 136.54 141.25 137.02 Z M 140.45 137.52 L 139.56 138.06 C 138.79 138.53 138.54 139.54 139.02 140.32 C 139.49 141.09 140.50 141.34 141.27 140.86 L 142.16 140.32 C 142.93 139.85 143.18 138.84 142.70 138.07 C 142.23 137.29 141.22 137.05 140.45 137.52 Z M 139.58 138.05 L 138.71 138.56 C 137.93 139.03 137.67 140.04 138.14 140.82 C 138.60 141.60 139.61 141.85 140.39 141.39 L 141.26 140.88 C 142.04 140.41 142.29 139.40 141.83 138.62 C 141.37 137.84 140.36 137.59 139.58 138.05 Z M 138.73 138.55 L 137.88 139.04 C 137.09 139.50 136.82 140.51 137.28 141.29 C 137.73 142.08 138.74 142.35 139.53 141.89 L 140.37 141.40 C 141.16 140.95 141.43 139.94 140.97 139.15 C 140.52 138.37 139.51 138.10 138.73 138.55 Z M 137.89 139.03 L 136.89 139.60 C 136.10 140.05 135.82 141.05 136.27 141.85 C 136.72 142.64 137.72 142.92 138.51 142.47 L 139.51 141.90 C 140.31 141.45 140.58 140.45 140.14 139.66 C 139.69 138.86 138.68 138.59 137.89 139.03 Z M 136.90 139.59 L 135.80 140.20 C 135.00 140.64 134.71 141.64 135.15 142.44 C 135.59 143.24 136.59 143.53 137.39 143.09 L 138.50 142.48 C 139.30 142.04 139.59 141.03 139.15 140.23 C 138.71 139.44 137.70 139.14 136.90 139.59 Z M 135.85 140.16 L 135.42 140.38 C 134.60 140.79 134.27 141.79 134.69 142.61 C 135.10 143.43 136.10 143.75 136.92 143.34 L 137.34 143.13 C 138.16 142.71 138.49 141.72 138.08 140.90 C 137.67 140.08 136.67 139.75 135.85 140.16 Z M 137.04 143.27 L 137.50 142.99 C 138.28 142.51 138.52 141.48 138.04 140.70 C 137.56 139.92 136.54 139.68 135.75 140.16 L 135.30 140.45 C 134.52 140.93 134.27 141.95 134.76 142.73 C 135.24 143.51 136.26 143.75 137.04 143.27 Z M 137.45 143.01 L 138.53 142.40 C 139.33 141.94 139.60 140.93 139.15 140.14 C 138.69 139.34 137.68 139.07 136.89 139.52 L 135.81 140.14 C 135.01 140.59 134.74 141.60 135.19 142.40 C 135.64 143.19 136.65 143.47 137.45 143.01 Z M 138.50 142.41 L 139.60 141.81 C 140.40 141.37 140.69 140.37 140.25 139.57 C 139.81 138.77 138.81 138.47 138.01 138.91 L 136.92 139.51 C 136.12 139.95 135.82 140.95 136.26 141.75 C 136.70 142.55 137.70 142.85 138.50 142.41 Z M 139.57 141.82 L 140.46 141.35 C 141.26 140.93 141.57 139.93 141.14 139.12 C 140.72 138.32 139.72 138.01 138.91 138.43 L 138.03 138.90 C 137.22 139.33 136.92 140.33 137.34 141.13 C 137.77 141.94 138.77 142.25 139.57 141.82 Z M 140.44 141.36 L 141.35 140.89 C 142.16 140.48 142.48 139.48 142.06 138.67 C 141.65 137.86 140.65 137.54 139.84 137.96 L 138.93 138.42 C 138.12 138.84 137.80 139.84 138.21 140.65 C 138.63 141.46 139.63 141.78 140.44 141.36 Z M 141.33 140.90 L 142.24 140.45 C 143.06 140.05 143.39 139.06 142.99 138.24 C 142.58 137.42 141.59 137.09 140.77 137.49 L 139.86 137.95 C 139.04 138.35 138.71 139.34 139.12 140.16 C 139.52 140.98 140.51 141.31 141.33 140.90 Z M 142.22 140.46 L 143.11 140.04 C 143.94 139.65 144.29 138.66 143.90 137.84 C 143.50 137.01 142.52 136.66 141.70 137.06 L 140.80 137.48 C 139.98 137.87 139.62 138.86 140.02 139.68 C 140.41 140.50 141.39 140.85 142.22 140.46 Z M 143.08 140.05 L 144.05 139.62 C 144.88 139.25 145.26 138.27 144.88 137.44 C 144.51 136.60 143.53 136.23 142.70 136.60 L 141.73 137.04 C 140.90 137.41 140.52 138.39 140.90 139.22 C 141.27 140.05 142.25 140.43 143.08 140.05 Z M 144.01 139.64 L 144.93 139.26 C 145.78 138.91 146.18 137.95 145.83 137.10 C 145.48 136.26 144.51 135.85 143.67 136.20 L 142.74 136.58 C 141.90 136.93 141.50 137.90 141.84 138.74 C 142.19 139.59 143.16 139.99 144.01 139.64 Z M 144.88 139.29 L 145.78 138.95 C 146.64 138.63 147.08 137.67 146.76 136.81 C 146.43 135.96 145.48 135.52 144.62 135.84 L 143.72 136.18 C 142.86 136.50 142.42 137.45 142.75 138.31 C 143.07 139.17 144.02 139.61 144.88 139.29 Z M 145.73 138.98 L 146.70 138.65 C 147.58 138.36 148.05 137.42 147.76 136.54 C 147.47 135.67 146.52 135.20 145.65 135.49 L 144.67 135.81 C 143.80 136.10 143.33 137.05 143.62 137.92 C 143.91 138.80 144.85 139.27 145.73 138.98 Z M 146.61 138.71 L 147.73 138.41 C 148.64 138.17 149.18 137.24 148.94 136.34 C 148.70 135.44 147.78 134.90 146.87 135.14 L 145.74 135.43 C 144.84 135.67 144.30 136.60 144.54 137.50 C 144.78 138.40 145.70 138.94 146.61 138.71 Z M 147.44 138.49 L 148.39 138.42 C 149.34 138.34 150.05 137.51 149.97 136.56 C 149.89 135.61 149.06 134.90 148.11 134.97 L 147.16 135.05 C 146.21 135.13 145.50 135.96 145.58 136.91 C 145.66 137.86 146.49 138.57 147.44 138.49 Z M 147.46 138.27 L 148.07 138.57 C 148.94 139.01 149.99 138.66 150.43 137.79 C 150.86 136.92 150.51 135.87 149.65 135.43 L 149.03 135.12 C 148.17 134.69 147.11 135.04 146.67 135.91 C 146.24 136.78 146.59 137.83 147.46 138.27 Z M 147.11 137.31 L 147.26 138.13 C 147.43 139.10 148.35 139.74 149.31 139.57 C 150.27 139.40 150.92 138.48 150.75 137.52 L 150.60 136.70 C 150.43 135.73 149.51 135.09 148.55 135.26 C 147.59 135.43 146.94 136.35 147.11 137.31 Z M 147.28 137.41 L 147.01 138.52 C 146.78 139.48 147.37 140.43 148.32 140.66 C 149.27 140.89 150.23 140.31 150.46 139.35 L 150.73 138.24 C 150.96 137.29 150.37 136.33 149.42 136.10 C 148.47 135.87 147.51 136.46 147.28 137.41 Z M 147.10 138.24 L 146.71 139.16 C 146.32 140.06 146.74 141.10 147.64 141.49 C 148.55 141.88 149.59 141.46 149.98 140.55 L 150.37 139.64 C 150.75 138.73 150.34 137.69 149.43 137.30 C 148.53 136.92 147.49 137.34 147.10 138.24 Z M 146.78 139.00 L 146.32 139.85 C 145.85 140.71 146.17 141.79 147.03 142.26 C 147.89 142.73 148.97 142.42 149.44 141.55 L 149.90 140.71 C 150.37 139.85 150.06 138.77 149.19 138.30 C 148.33 137.83 147.25 138.14 146.78 139.00 Z M 146.38 139.75 L 145.83 140.62 C 145.31 141.45 145.56 142.55 146.39 143.07 C 147.22 143.60 148.31 143.35 148.84 142.52 L 149.38 141.65 C 149.91 140.82 149.66 139.72 148.83 139.20 C 148.00 138.68 146.90 138.93 146.38 139.75 Z M 145.87 140.57 L 145.28 141.43 C 144.73 142.24 144.93 143.34 145.74 143.90 C 146.55 144.45 147.66 144.24 148.21 143.43 L 148.80 142.57 C 149.35 141.76 149.15 140.66 148.34 140.10 C 147.53 139.55 146.42 139.76 145.87 140.57 Z M 145.30 141.40 L 144.77 142.15 C 144.20 142.95 144.39 144.06 145.19 144.62 C 145.99 145.19 147.10 145.00 147.66 144.21 L 148.19 143.46 C 148.76 142.66 148.58 141.55 147.78 140.98 C 146.98 140.41 145.87 140.60 145.30 141.40 Z M 144.78 142.13 L 144.21 142.91 C 143.63 143.70 143.80 144.81 144.59 145.39 C 145.38 145.97 146.49 145.80 147.07 145.01 L 147.65 144.23 C 148.23 143.44 148.06 142.33 147.27 141.74 C 146.48 141.16 145.36 141.33 144.78 142.13 Z M 144.23 142.88 L 143.61 143.70 C 143.02 144.48 143.17 145.60 143.95 146.19 C 144.73 146.78 145.85 146.63 146.44 145.85 L 147.06 145.03 C 147.65 144.25 147.50 143.13 146.72 142.54 C 145.93 141.95 144.82 142.10 144.23 142.88 Z M 143.62 143.68 L 142.96 144.53 C 142.35 145.31 142.49 146.42 143.26 147.03 C 144.03 147.63 145.15 147.50 145.76 146.72 L 146.42 145.87 C 147.03 145.10 146.89 143.98 146.12 143.37 C 145.34 142.77 144.23 142.91 143.62 143.68 Z M 142.97 144.52 L 142.32 145.33 C 141.71 146.09 141.83 147.21 142.59 147.82 C 143.36 148.44 144.47 148.32 145.09 147.55 L 145.74 146.74 C 146.35 145.98 146.23 144.86 145.47 144.25 C 144.70 143.63 143.59 143.75 142.97 144.52 Z M 142.33 145.32 L 141.68 146.11 C 141.06 146.87 141.17 147.99 141.92 148.61 C 142.68 149.23 143.80 149.12 144.42 148.36 L 145.07 147.57 C 145.70 146.81 145.59 145.69 144.83 145.07 C 144.07 144.45 142.95 144.56 142.33 145.32 Z M 141.69 146.11 L 141.02 146.90 C 140.40 147.65 140.50 148.77 141.25 149.40 C 142.00 150.02 143.12 149.92 143.75 149.17 L 144.41 148.37 C 145.03 147.62 144.93 146.50 144.18 145.88 C 143.43 145.25 142.31 145.35 141.69 146.11 Z M 141.03 146.90 L 140.38 147.67 C 139.75 148.42 139.85 149.53 140.60 150.16 C 141.35 150.79 142.46 150.69 143.09 149.94 L 143.74 149.17 C 144.37 148.42 144.27 147.31 143.52 146.68 C 142.78 146.05 141.66 146.15 141.03 146.90 Z M 140.39 147.67 L 139.77 148.39 C 139.14 149.14 139.24 150.25 139.98 150.88 C 140.73 151.51 141.84 151.42 142.47 150.67 L 143.09 149.95 C 143.72 149.20 143.62 148.09 142.88 147.46 C 142.13 146.83 141.02 146.92 140.39 147.67 Z M 139.77 148.40 L 139.10 149.20 C 138.47 149.94 138.56 151.05 139.31 151.68 C 140.05 152.31 141.16 152.22 141.79 151.47 L 142.47 150.67 C 143.10 149.93 143.00 148.82 142.26 148.19 C 141.52 147.56 140.40 147.65 139.77 148.40 Z M 139.10 149.20 L 138.43 149.99 C 137.80 150.73 137.89 151.84 138.64 152.47 C 139.38 153.10 140.49 153.01 141.12 152.26 L 141.79 151.47 C 142.42 150.73 142.32 149.62 141.58 148.99 C 140.84 148.36 139.73 148.46 139.10 149.20 Z M 138.43 149.99 L 137.81 150.72 C 137.19 151.46 137.28 152.57 138.02 153.20 C 138.76 153.83 139.87 153.74 140.50 152.99 L 141.12 152.26 C 141.74 151.52 141.65 150.41 140.91 149.78 C 140.17 149.16 139.06 149.25 138.43 149.99 Z M 137.82 150.72 L 137.22 151.43 C 136.59 152.17 136.68 153.28 137.42 153.90 C 138.16 154.53 139.26 154.44 139.89 153.70 L 140.50 152.99 C 141.12 152.26 141.03 151.15 140.29 150.52 C 139.56 149.89 138.45 149.98 137.82 150.72 Z M 137.22 151.43 L 136.59 152.16 C 135.96 152.90 136.05 154.01 136.78 154.64 C 137.52 155.27 138.63 155.18 139.26 154.44 L 139.89 153.71 C 140.52 152.97 140.43 151.86 139.69 151.23 C 138.96 150.60 137.85 150.69 137.22 151.43 Z M 136.60 152.16 L 135.94 152.92 C 135.31 153.65 135.39 154.76 136.13 155.39 C 136.86 156.02 137.97 155.94 138.60 155.21 L 139.25 154.45 C 139.88 153.71 139.80 152.61 139.07 151.98 C 138.33 151.35 137.23 151.43 136.60 152.16 Z M 135.95 152.91 L 135.29 153.68 C 134.65 154.41 134.73 155.51 135.46 156.15 C 136.19 156.78 137.29 156.70 137.93 155.97 L 138.59 155.21 C 139.22 154.48 139.15 153.37 138.42 152.74 C 137.69 152.11 136.58 152.19 135.95 152.91 Z M 135.29 153.67 L 134.63 154.43 C 133.99 155.16 134.07 156.26 134.79 156.90 C 135.52 157.53 136.62 157.46 137.26 156.73 L 137.92 155.98 C 138.56 155.25 138.48 154.15 137.76 153.51 C 137.03 152.88 135.93 152.95 135.29 153.67 Z M 134.64 154.43 L 133.98 155.17 C 133.34 155.89 133.41 156.99 134.13 157.63 C 134.85 158.27 135.95 158.21 136.59 157.48 L 137.25 156.74 C 137.89 156.02 137.82 154.91 137.10 154.28 C 136.38 153.64 135.28 153.70 134.64 154.43 Z M 133.98 155.17 L 133.32 155.91 C 132.68 156.63 132.75 157.73 133.47 158.37 C 134.18 159.01 135.29 158.95 135.93 158.23 L 136.59 157.49 C 137.23 156.77 137.16 155.67 136.44 155.03 C 135.72 154.39 134.62 154.45 133.98 155.17 Z M 133.32 155.91 L 132.66 156.66 C 132.02 157.38 132.08 158.48 132.80 159.12 C 133.52 159.76 134.62 159.69 135.26 158.97 L 135.93 158.22 C 136.56 157.51 136.50 156.41 135.78 155.77 C 135.06 155.13 133.96 155.19 133.32 155.91 Z M 132.66 156.66 L 132.00 157.41 C 131.36 158.13 131.43 159.23 132.15 159.86 C 132.87 160.50 133.97 160.43 134.60 159.71 L 135.26 158.97 C 135.90 158.25 135.83 157.15 135.11 156.51 C 134.39 155.88 133.29 155.94 132.66 156.66 Z M 131.99 157.42 L 131.35 158.15 C 130.72 158.87 130.79 159.97 131.51 160.60 C 132.23 161.24 133.33 161.16 133.96 160.44 L 134.61 159.71 C 135.24 158.99 135.17 157.89 134.45 157.26 C 133.72 156.62 132.63 156.69 131.99 157.42 Z M 131.35 158.15 L 130.69 158.91 C 130.06 159.63 130.13 160.73 130.85 161.36 C 131.58 161.99 132.67 161.91 133.30 161.19 L 133.96 160.44 C 134.59 159.72 134.52 158.62 133.80 157.99 C 133.08 157.36 131.98 157.43 131.35 158.15 Z M 130.69 158.91 L 130.02 159.68 C 129.39 160.40 129.46 161.50 130.19 162.13 C 130.91 162.76 132.00 162.68 132.63 161.96 L 133.30 161.19 C 133.93 160.47 133.86 159.37 133.14 158.74 C 132.41 158.11 131.32 158.19 130.69 158.91 Z M 130.02 159.68 L 129.36 160.44 C 128.73 161.16 128.80 162.26 129.52 162.89 C 130.24 163.52 131.34 163.44 131.97 162.72 L 132.63 161.96 C 133.26 161.24 133.19 160.14 132.47 159.51 C 131.74 158.88 130.65 158.96 130.02 159.68 Z M 129.36 160.44 L 128.71 161.19 C 128.08 161.91 128.15 163.00 128.87 163.63 C 129.59 164.26 130.69 164.19 131.32 163.47 L 131.97 162.72 C 132.60 162.00 132.52 160.90 131.80 160.28 C 131.08 159.65 129.98 159.72 129.36 160.44 Z M 128.71 161.19 L 128.05 161.95 C 127.42 162.67 127.50 163.76 128.22 164.39 C 128.94 165.01 130.03 164.94 130.66 164.22 L 131.32 163.46 C 131.94 162.74 131.87 161.65 131.15 161.02 C 130.43 160.39 129.33 160.47 128.71 161.19 Z M 128.05 161.95 L 127.39 162.71 C 126.76 163.43 126.84 164.52 127.56 165.15 C 128.29 165.77 129.38 165.70 130.00 164.97 L 130.66 164.21 C 131.29 163.49 131.21 162.40 130.49 161.77 C 129.76 161.15 128.67 161.23 128.05 161.95 Z M 127.39 162.72 L 126.73 163.48 C 126.11 164.21 126.19 165.30 126.91 165.92 C 127.64 166.54 128.73 166.46 129.35 165.73 L 130.01 164.97 C 130.63 164.24 130.54 163.15 129.82 162.53 C 129.10 161.91 128.01 161.99 127.39 162.72 Z M 126.72 163.49 L 126.08 164.25 C 125.46 164.97 125.55 166.06 126.27 166.68 C 127.00 167.30 128.09 167.21 128.71 166.48 L 129.35 165.73 C 129.97 165.00 129.88 163.91 129.16 163.29 C 128.43 162.68 127.34 162.76 126.72 163.49 Z M 126.07 164.26 L 125.43 165.02 C 124.82 165.75 124.91 166.84 125.64 167.45 C 126.37 168.06 127.46 167.97 128.07 167.24 L 128.71 166.48 C 129.33 165.75 129.23 164.66 128.50 164.04 C 127.77 163.43 126.69 163.53 126.07 164.26 Z M 125.42 165.03 L 124.78 165.80 C 124.18 166.54 124.28 167.62 125.01 168.23 C 125.75 168.84 126.83 168.74 127.44 168.00 L 128.08 167.23 C 128.69 166.50 128.58 165.41 127.85 164.80 C 127.12 164.20 126.03 164.30 125.42 165.03 Z M 124.78 165.82 L 124.14 166.59 C 123.54 167.33 123.65 168.42 124.39 169.02 C 125.13 169.62 126.21 169.51 126.81 168.77 L 127.45 167.99 C 128.05 167.25 127.94 166.17 127.20 165.57 C 126.46 164.97 125.38 165.08 124.78 165.82 Z M 124.13 166.61 L 123.51 167.38 C 122.92 168.13 123.04 169.21 123.79 169.80 C 124.53 170.40 125.61 170.27 126.21 169.53 L 126.82 168.76 C 127.42 168.01 127.30 166.93 126.55 166.34 C 125.81 165.74 124.73 165.86 124.13 166.61 Z M 123.51 167.39 L 122.89 168.17 C 122.31 168.92 122.43 170.00 123.18 170.59 C 123.93 171.18 125.01 171.05 125.60 170.30 L 126.21 169.52 C 126.80 168.77 126.67 167.69 125.92 167.10 C 125.18 166.52 124.10 166.65 123.51 167.39 Z M 122.89 168.18 L 122.28 168.96 C 121.69 169.71 121.82 170.79 122.57 171.38 C 123.32 171.96 124.40 171.83 124.98 171.08 L 125.60 170.30 C 126.18 169.55 126.05 168.47 125.31 167.88 C 124.56 167.30 123.48 167.43 122.89 168.18 Z M 122.28 168.96 L 121.65 169.76 C 121.07 170.50 121.20 171.58 121.95 172.17 C 122.69 172.75 123.77 172.62 124.36 171.88 L 124.98 171.08 C 125.57 170.34 125.44 169.26 124.69 168.67 C 123.94 168.09 122.86 168.22 122.28 168.96 Z M 121.66 169.75 L 121.03 170.55 C 120.44 171.29 120.56 172.37 121.31 172.96 C 122.05 173.55 123.13 173.43 123.72 172.68 L 124.35 171.88 C 124.94 171.14 124.81 170.06 124.07 169.47 C 123.33 168.88 122.25 169.01 121.66 169.75 Z M 121.03 170.55 L 120.39 171.35 C 119.80 172.09 119.92 173.17 120.66 173.76 C 121.40 174.35 122.48 174.23 123.07 173.49 L 123.71 172.69 C 124.30 171.95 124.18 170.87 123.44 170.28 C 122.70 169.69 121.63 169.81 121.03 170.55 Z M 120.40 171.35 L 119.76 172.14 C 119.17 172.88 119.29 173.95 120.02 174.54 C 120.76 175.13 121.84 175.02 122.43 174.28 L 123.06 173.49 C 123.65 172.75 123.54 171.68 122.80 171.09 C 122.07 170.50 120.99 170.61 120.40 171.35 Z M 119.76 172.15 L 119.14 172.92 C 118.56 173.65 118.67 174.72 119.41 175.31 C 120.14 175.90 121.22 175.78 121.80 175.05 L 122.42 174.28 C 123.01 173.54 122.89 172.47 122.16 171.88 C 121.43 171.29 120.35 171.41 119.76 172.15 Z M 119.14 172.93 L 118.55 173.67 C 117.96 174.41 118.09 175.48 118.82 176.06 C 119.56 176.65 120.63 176.52 121.21 175.79 L 121.81 175.04 C 122.39 174.31 122.27 173.24 121.53 172.65 C 120.80 172.07 119.73 172.19 119.14 172.93 Z M 118.54 173.68 L 117.94 174.45 C 117.36 175.19 117.49 176.26 118.23 176.84 C 118.97 177.42 120.03 177.29 120.61 176.55 L 121.22 175.78 C 121.79 175.04 121.66 173.97 120.93 173.40 C 120.19 172.82 119.12 172.95 118.54 173.68 Z M 117.94 174.47 L 117.35 175.23 C 116.78 175.97 116.91 177.03 117.65 177.60 C 118.39 178.18 119.46 178.04 120.03 177.30 L 120.62 176.54 C 121.19 175.80 121.05 174.73 120.31 174.16 C 119.57 173.59 118.51 173.73 117.94 174.47 Z M 117.34 175.24 L 116.74 176.03 C 116.17 176.77 116.32 177.83 117.06 178.40 C 117.80 178.96 118.86 178.82 119.43 178.08 L 120.03 177.29 C 120.60 176.55 120.46 175.49 119.71 174.92 C 118.97 174.35 117.91 174.50 117.34 175.24 Z M 116.74 176.03 L 116.10 176.87 C 115.54 177.62 115.68 178.67 116.42 179.24 C 117.17 179.80 118.22 179.66 118.79 178.92 L 119.43 178.07 C 119.99 177.33 119.85 176.27 119.10 175.71 C 118.36 175.15 117.30 175.29 116.74 176.03 Z M 116.10 176.88 L 115.52 177.65 C 114.96 178.39 115.10 179.45 115.85 180.01 C 116.59 180.57 117.64 180.42 118.20 179.68 L 118.79 178.91 C 119.35 178.17 119.20 177.11 118.46 176.55 C 117.72 175.99 116.66 176.14 116.10 176.88 Z M 115.52 177.66 L 114.91 178.47 C 114.35 179.21 114.50 180.26 115.25 180.82 C 115.99 181.38 117.04 181.23 117.60 180.48 L 118.21 179.67 C 118.76 178.93 118.61 177.88 117.87 177.32 C 117.13 176.76 116.07 176.91 115.52 177.66 Z M 114.90 178.48 L 114.29 179.31 C 113.74 180.06 113.90 181.11 114.65 181.66 C 115.40 182.21 116.45 182.05 117.00 181.30 L 117.61 180.47 C 118.16 179.72 118.00 178.67 117.25 178.12 C 116.50 177.57 115.45 177.73 114.90 178.48 Z M 114.28 179.33 L 113.69 180.16 C 113.15 180.91 113.33 181.96 114.08 182.50 C 114.83 183.03 115.88 182.86 116.42 182.11 L 117.01 181.28 C 117.55 180.53 117.37 179.48 116.62 178.94 C 115.86 178.40 114.82 178.58 114.28 179.33 Z M 113.67 180.19 L 113.06 181.10 C 112.54 181.86 112.74 182.90 113.50 183.42 C 114.26 183.94 115.30 183.74 115.82 182.98 L 116.44 182.07 C 116.96 181.31 116.76 180.27 116.00 179.75 C 115.23 179.23 114.19 179.43 113.67 180.19 Z M 113.02 181.17 L 112.31 182.32 C 111.83 183.11 112.07 184.13 112.86 184.62 C 113.64 185.10 114.67 184.85 115.15 184.07 L 115.86 182.91 C 116.34 182.12 116.10 181.10 115.31 180.62 C 114.53 180.14 113.50 180.38 113.02 181.17 Z M 112.22 182.52 L 111.85 183.34 C 111.47 184.18 111.85 185.16 112.68 185.53 C 113.52 185.91 114.50 185.53 114.87 184.70 L 115.24 183.87 C 115.62 183.04 115.24 182.06 114.40 181.68 C 113.57 181.31 112.59 181.68 112.22 182.52 Z M 111.83 184.64 L 111.96 184.95 C 112.30 185.80 113.26 186.20 114.10 185.86 C 114.95 185.52 115.36 184.56 115.02 183.72 L 114.89 183.40 C 114.55 182.56 113.59 182.15 112.74 182.49 C 111.90 182.83 111.49 183.79 111.83 184.64 Z M 114.12 185.85 L 114.80 185.57 C 115.64 185.22 116.04 184.26 115.69 183.42 C 115.34 182.58 114.38 182.18 113.54 182.53 L 112.86 182.81 C 112.02 183.16 111.62 184.12 111.97 184.96 C 112.31 185.80 113.28 186.20 114.12 185.85 Z M 115.10 185.41 L 116.08 184.73 C 116.83 184.22 117.02 183.20 116.51 182.45 C 116.00 181.71 114.98 181.51 114.23 182.02 L 113.25 182.69 C 112.50 183.20 112.31 184.23 112.82 184.97 C 113.33 185.72 114.35 185.92 115.10 185.41 Z M 116.18 184.66 L 117.08 183.94 C 117.79 183.38 117.91 182.35 117.34 181.64 C 116.78 180.93 115.75 180.81 115.04 181.38 L 114.14 182.10 C 113.43 182.66 113.31 183.69 113.88 184.40 C 114.44 185.11 115.47 185.22 116.18 184.66 Z M 117.14 183.89 L 117.85 183.27 C 118.53 182.67 118.59 181.63 117.99 180.96 C 117.39 180.28 116.36 180.21 115.68 180.81 L 114.98 181.43 C 114.30 182.03 114.24 183.06 114.83 183.74 C 115.43 184.42 116.47 184.48 117.14 183.89 Z M 117.89 183.23 L 118.59 182.56 C 119.25 181.94 119.28 180.91 118.66 180.25 C 118.03 179.59 117.00 179.56 116.34 180.19 L 115.64 180.85 C 114.98 181.47 114.95 182.51 115.57 183.16 C 116.20 183.82 117.23 183.85 117.89 183.23 Z M 118.61 182.55 L 119.38 181.80 C 120.02 181.17 120.04 180.13 119.40 179.48 C 118.77 178.84 117.74 178.82 117.09 179.45 L 116.32 180.20 C 115.68 180.84 115.66 181.87 116.29 182.52 C 116.93 183.17 117.96 183.18 118.61 182.55 Z M 119.38 181.80 L 120.04 181.14 C 120.69 180.51 120.70 179.48 120.07 178.83 C 119.44 178.18 118.40 178.17 117.76 178.80 L 117.09 179.46 C 116.44 180.09 116.43 181.12 117.06 181.77 C 117.69 182.42 118.73 182.43 119.38 181.80 Z M 120.04 181.15 L 120.71 180.49 C 121.36 179.86 121.37 178.83 120.74 178.18 C 120.11 177.53 119.08 177.52 118.43 178.15 L 117.76 178.80 C 117.11 179.43 117.10 180.47 117.73 181.12 C 118.36 181.76 119.39 181.78 120.04 181.15 Z M 120.71 180.49 L 121.43 179.80 C 122.08 179.17 122.09 178.13 121.46 177.48 C 120.83 176.83 119.80 176.82 119.15 177.45 L 118.43 178.15 C 117.78 178.78 117.77 179.81 118.40 180.46 C 119.03 181.11 120.06 181.12 120.71 180.49 Z M 121.43 179.80 L 122.18 179.07 C 122.83 178.44 122.85 177.40 122.22 176.75 C 121.59 176.10 120.55 176.09 119.90 176.72 L 119.15 177.45 C 118.50 178.08 118.49 179.11 119.12 179.76 C 119.74 180.41 120.78 180.43 121.43 179.80 Z M 122.18 179.07 L 122.96 178.32 C 123.60 177.69 123.62 176.65 122.99 176.00 C 122.36 175.36 121.33 175.34 120.68 175.97 L 119.90 176.72 C 119.26 177.35 119.24 178.38 119.87 179.03 C 120.50 179.68 121.53 179.70 122.18 179.07 Z M 122.95 178.32 L 123.34 177.95 C 123.99 177.32 124.00 176.28 123.37 175.64 C 122.75 174.99 121.71 174.97 121.06 175.60 L 120.68 175.97 C 120.03 176.60 120.01 177.63 120.64 178.28 C 121.27 178.93 122.31 178.95 122.95 178.32 Z"
      fill="black"
      fill-rule="nonzero" /><path d="M 139.54 162.58 L 139.40 163.42 C 139.25 164.32 139.86 165.17 140.76 165.31 C 141.66 165.46 142.50 164.85 142.65 163.95 L 142.79 163.11 C 142.93 162.21 142.33 161.37 141.43 161.22 C 140.53 161.07 139.69 161.68 139.54 162.58 Z M 139.39 163.40 L 139.23 164.28 C 139.07 165.18 139.67 166.04 140.58 166.20 C 141.48 166.37 142.35 165.76 142.51 164.86 L 142.66 163.98 C 142.82 163.07 142.22 162.21 141.32 162.05 C 140.41 161.89 139.55 162.49 139.39 163.40 Z M 139.22 164.23 L 139.03 165.18 C 138.84 166.09 139.43 166.98 140.34 167.16 C 141.25 167.35 142.14 166.76 142.32 165.85 L 142.52 164.90 C 142.70 163.99 142.11 163.10 141.20 162.92 C 140.29 162.73 139.40 163.32 139.22 164.23 Z M 139.02 165.13 L 138.78 166.18 C 138.56 167.09 139.13 168.01 140.04 168.22 C 140.96 168.44 141.87 167.87 142.09 166.95 L 142.33 165.90 C 142.54 164.99 141.98 164.07 141.06 163.86 C 140.15 163.65 139.24 164.21 139.02 165.13 Z M 138.77 166.13 L 138.46 167.28 C 138.22 168.20 138.77 169.14 139.68 169.38 C 140.60 169.63 141.54 169.08 141.78 168.16 L 142.09 167.01 C 142.33 166.09 141.79 165.15 140.87 164.91 C 139.96 164.66 139.02 165.21 138.77 166.13 Z M 138.46 167.24 L 138.19 168.15 C 137.93 169.07 138.45 170.03 139.37 170.30 C 140.29 170.57 141.25 170.04 141.52 169.12 L 141.79 168.21 C 142.05 167.29 141.53 166.33 140.61 166.06 C 139.69 165.79 138.73 166.32 138.46 167.24 Z M 138.19 168.13 L 137.89 169.09 C 137.61 170.02 138.13 170.99 139.05 171.27 C 139.97 171.56 140.95 171.04 141.23 170.11 L 141.53 169.15 C 141.81 168.22 141.29 167.25 140.37 166.96 C 139.45 166.68 138.47 167.20 138.19 168.13 Z M 137.88 169.07 L 137.57 170.07 C 137.28 171.00 137.79 171.99 138.72 172.28 C 139.65 172.57 140.63 172.06 140.93 171.13 L 141.24 170.13 C 141.53 169.20 141.02 168.22 140.09 167.92 C 139.16 167.63 138.17 168.15 137.88 169.07 Z M 137.56 170.06 L 137.24 171.06 C 136.94 172.00 137.45 173.00 138.38 173.30 C 139.32 173.59 140.32 173.08 140.61 172.15 L 140.94 171.14 C 141.24 170.21 140.72 169.21 139.79 168.91 C 138.86 168.61 137.86 169.13 137.56 170.06 Z M 137.22 171.06 L 136.90 172.04 C 136.60 172.98 137.12 173.99 138.06 174.29 C 139.00 174.60 140.00 174.08 140.31 173.14 L 140.63 172.16 C 140.93 171.22 140.42 170.21 139.48 169.90 C 138.54 169.60 137.53 170.12 137.22 171.06 Z M 136.89 172.04 L 136.59 172.98 C 136.28 173.93 136.80 174.94 137.75 175.25 C 138.70 175.55 139.71 175.03 140.02 174.09 L 140.32 173.14 C 140.63 172.20 140.11 171.18 139.16 170.88 C 138.21 170.57 137.20 171.09 136.89 172.04 Z M 136.57 172.98 L 136.29 173.86 C 135.99 174.81 136.52 175.83 137.47 176.14 C 138.43 176.44 139.45 175.91 139.75 174.96 L 140.03 174.08 C 140.34 173.13 139.81 172.11 138.85 171.80 C 137.90 171.50 136.88 172.03 136.57 172.98 Z M 136.28 173.87 L 135.91 175.09 C 135.61 176.05 136.15 177.07 137.12 177.37 C 138.08 177.66 139.10 177.12 139.40 176.16 L 139.77 174.94 C 140.06 173.98 139.52 172.96 138.56 172.66 C 137.59 172.37 136.57 172.91 136.28 173.87 Z M 135.89 175.13 L 135.60 176.16 C 135.33 177.13 135.89 178.14 136.86 178.41 C 137.83 178.69 138.84 178.12 139.12 177.15 L 139.41 176.12 C 139.69 175.15 139.12 174.14 138.15 173.86 C 137.18 173.59 136.17 174.15 135.89 175.13 Z M 135.58 176.21 L 135.36 177.10 C 135.11 178.09 135.71 179.08 136.69 179.33 C 137.67 179.57 138.66 178.98 138.91 178.00 L 139.14 177.10 C 139.38 176.12 138.79 175.12 137.81 174.88 C 136.83 174.63 135.83 175.23 135.58 176.21 Z M 135.34 177.17 L 135.17 177.98 C 134.96 178.97 135.59 179.95 136.58 180.16 C 137.57 180.37 138.55 179.74 138.76 178.74 L 138.93 177.93 C 139.14 176.94 138.51 175.97 137.52 175.76 C 136.52 175.54 135.55 176.18 135.34 177.17 Z M 135.15 178.06 L 135.00 178.97 C 134.83 179.97 135.50 180.92 136.50 181.09 C 137.51 181.26 138.45 180.58 138.62 179.58 L 138.78 178.67 C 138.94 177.66 138.27 176.72 137.27 176.55 C 136.26 176.38 135.32 177.06 135.15 178.06 Z M 134.98 179.06 L 134.86 180.07 C 134.75 181.08 135.47 182.00 136.48 182.11 C 137.49 182.23 138.40 181.51 138.52 180.50 L 138.64 179.49 C 138.75 178.48 138.03 177.56 137.02 177.45 C 136.01 177.33 135.10 178.05 134.98 179.06 Z M 134.85 180.18 L 134.80 181.17 C 134.74 182.18 135.51 183.05 136.53 183.11 C 137.54 183.17 138.41 182.39 138.47 181.38 L 138.53 180.39 C 138.59 179.38 137.81 178.51 136.80 178.45 C 135.78 178.39 134.91 179.16 134.85 180.18 Z M 134.79 181.28 L 134.80 182.26 C 134.80 183.28 135.63 184.10 136.64 184.10 C 137.66 184.10 138.48 183.27 138.48 182.25 L 138.47 181.27 C 138.47 180.25 137.64 179.43 136.63 179.43 C 135.61 179.43 134.79 180.26 134.79 181.28 Z M 134.81 182.44 L 134.91 183.47 C 135.01 184.48 135.91 185.22 136.92 185.12 C 137.93 185.02 138.67 184.12 138.57 183.11 L 138.47 182.08 C 138.37 181.07 137.47 180.33 136.46 180.43 C 135.45 180.53 134.71 181.43 134.81 182.44 Z M 134.99 183.83 L 135.28 184.76 C 135.57 185.73 136.60 186.27 137.57 185.97 C 138.54 185.67 139.08 184.65 138.78 183.68 L 138.49 182.75 C 138.19 181.78 137.17 181.24 136.20 181.54 C 135.23 181.84 134.69 182.87 134.99 183.83 Z M 135.55 185.30 L 136.09 186.04 C 136.68 186.85 137.82 187.04 138.64 186.44 C 139.46 185.85 139.64 184.71 139.05 183.89 L 138.51 183.15 C 137.91 182.33 136.77 182.15 135.95 182.74 C 135.14 183.33 134.95 184.48 135.55 185.30 Z M 136.54 186.46 L 137.26 186.96 C 138.09 187.53 139.22 187.32 139.79 186.50 C 140.36 185.67 140.15 184.54 139.33 183.97 L 138.60 183.47 C 137.77 182.90 136.64 183.11 136.07 183.93 C 135.50 184.76 135.71 185.89 136.54 186.46 Z M 137.64 187.15 L 138.57 187.51 C 139.50 187.87 140.54 187.42 140.90 186.49 C 141.27 185.56 140.81 184.51 139.88 184.15 L 138.95 183.79 C 138.03 183.42 136.98 183.88 136.62 184.81 C 136.25 185.74 136.71 186.78 137.64 187.15 Z M 138.84 187.58 L 139.93 187.82 C 140.89 188.03 141.84 187.42 142.06 186.45 C 142.27 185.49 141.66 184.53 140.69 184.32 L 139.61 184.08 C 138.64 183.87 137.69 184.48 137.48 185.45 C 137.27 186.41 137.88 187.37 138.84 187.58 Z M 140.11 187.83 L 141.13 187.94 C 142.11 188.05 142.98 187.35 143.09 186.37 C 143.20 185.40 142.49 184.52 141.52 184.42 L 140.50 184.30 C 139.53 184.20 138.65 184.90 138.54 185.87 C 138.44 186.85 139.14 187.72 140.11 187.83 Z M 141.27 187.94 L 142.28 187.97 C 143.25 188.00 144.07 187.24 144.10 186.27 C 144.13 185.30 143.36 184.48 142.39 184.45 L 141.38 184.42 C 140.41 184.39 139.60 185.15 139.56 186.12 C 139.53 187.10 140.30 187.91 141.27 187.94 Z M 142.40 187.96 L 143.42 187.92 C 144.38 187.88 145.14 187.07 145.10 186.11 C 145.06 185.14 144.25 184.39 143.29 184.43 L 142.27 184.47 C 141.31 184.50 140.55 185.31 140.59 186.28 C 140.63 187.24 141.44 187.99 142.40 187.96 Z M 143.54 187.90 L 144.53 187.79 C 145.48 187.69 146.17 186.83 146.07 185.88 C 145.97 184.93 145.11 184.24 144.16 184.34 L 143.17 184.45 C 142.22 184.55 141.53 185.41 141.63 186.36 C 141.73 187.31 142.59 188.00 143.54 187.90 Z M 144.67 187.76 L 145.67 187.56 C 146.61 187.39 147.22 186.49 147.04 185.55 C 146.87 184.62 145.97 184.01 145.03 184.19 L 144.03 184.38 C 143.09 184.55 142.48 185.45 142.66 186.39 C 142.83 187.32 143.73 187.93 144.67 187.76 Z M 145.83 187.51 L 146.81 187.23 C 147.72 186.97 148.24 186.02 147.98 185.12 C 147.72 184.21 146.77 183.69 145.87 183.95 L 144.88 184.24 C 143.98 184.50 143.46 185.44 143.72 186.35 C 143.98 187.25 144.92 187.77 145.83 187.51 Z M 146.96 187.16 L 147.87 186.80 C 148.74 186.46 149.17 185.48 148.83 184.61 C 148.48 183.74 147.50 183.32 146.64 183.66 L 145.72 184.02 C 144.85 184.36 144.43 185.34 144.77 186.21 C 145.11 187.08 146.09 187.50 146.96 187.16 Z M 148.00 186.73 L 148.86 186.30 C 149.68 185.89 150.02 184.88 149.61 184.06 C 149.19 183.23 148.19 182.89 147.36 183.31 L 146.51 183.73 C 145.68 184.15 145.34 185.15 145.76 185.98 C 146.17 186.81 147.17 187.14 148.00 186.73 Z M 148.97 186.23 L 149.78 185.74 C 150.56 185.27 150.82 184.25 150.35 183.46 C 149.87 182.67 148.85 182.42 148.07 182.89 L 147.26 183.38 C 146.47 183.85 146.21 184.87 146.69 185.66 C 147.16 186.45 148.18 186.70 148.97 186.23 Z M 149.88 185.67 L 150.66 185.11 C 151.41 184.58 151.59 183.55 151.06 182.80 C 150.53 182.06 149.50 181.88 148.75 182.41 L 147.96 182.97 C 147.22 183.49 147.04 184.53 147.57 185.27 C 148.10 186.02 149.13 186.20 149.88 185.67 Z M 150.75 185.03 L 151.54 184.39 C 152.24 183.81 152.34 182.77 151.76 182.07 C 151.18 181.37 150.14 181.27 149.44 181.84 L 148.66 182.49 C 147.96 183.07 147.86 184.11 148.43 184.81 C 149.01 185.51 150.05 185.61 150.75 185.03 Z M 151.61 184.32 L 152.39 183.59 C 153.05 182.97 153.09 181.93 152.47 181.27 C 151.85 180.60 150.81 180.57 150.14 181.19 L 149.37 181.92 C 148.70 182.54 148.67 183.58 149.29 184.24 C 149.91 184.90 150.95 184.94 151.61 184.32 Z M 152.45 183.53 L 153.14 182.81 C 153.77 182.16 153.75 181.12 153.10 180.49 C 152.44 179.86 151.41 179.88 150.78 180.53 L 150.09 181.25 C 149.46 181.90 149.48 182.94 150.13 183.57 C 150.78 184.20 151.82 184.18 152.45 183.53 Z M 153.19 182.76 L 153.87 181.99 C 154.47 181.31 154.40 180.27 153.72 179.67 C 153.04 179.07 152.01 179.14 151.41 179.82 L 150.73 180.59 C 150.13 181.27 150.19 182.30 150.87 182.90 C 151.55 183.50 152.59 183.44 153.19 182.76 Z M 153.91 181.93 L 154.55 181.13 C 155.12 180.43 155.01 179.40 154.30 178.83 C 153.60 178.26 152.57 178.38 152.00 179.08 L 151.36 179.88 C 150.79 180.58 150.91 181.61 151.61 182.18 C 152.32 182.75 153.35 182.63 153.91 181.93 Z M 154.61 181.06 L 155.18 180.27 C 155.70 179.53 155.54 178.51 154.80 177.98 C 154.07 177.46 153.04 177.62 152.52 178.36 L 151.95 179.15 C 151.42 179.89 151.59 180.91 152.32 181.44 C 153.06 181.96 154.08 181.80 154.61 181.06 Z M 155.24 180.16 L 155.78 179.28 C 156.25 178.51 156.01 177.50 155.24 177.03 C 154.46 176.56 153.46 176.80 152.99 177.58 L 152.45 178.46 C 151.98 179.24 152.22 180.24 152.99 180.71 C 153.77 181.18 154.77 180.94 155.24 180.16 Z M 155.86 179.13 L 156.29 178.23 C 156.68 177.41 156.33 176.44 155.51 176.05 C 154.70 175.66 153.72 176.01 153.33 176.83 L 152.91 177.73 C 152.52 178.54 152.87 179.52 153.68 179.91 C 154.50 180.29 155.48 179.95 155.86 179.13 Z M 156.36 178.05 L 156.67 177.14 C 156.96 176.28 156.50 175.35 155.65 175.06 C 154.79 174.77 153.86 175.23 153.57 176.09 L 153.26 177.00 C 152.97 177.86 153.43 178.79 154.29 179.08 C 155.14 179.37 156.07 178.91 156.36 178.05 Z M 156.72 176.97 L 156.93 176.02 C 157.13 175.13 156.57 174.26 155.69 174.06 C 154.81 173.87 153.93 174.43 153.74 175.31 L 153.52 176.26 C 153.33 177.14 153.89 178.02 154.77 178.21 C 155.65 178.41 156.52 177.85 156.72 176.97 Z M 156.96 175.88 L 157.08 174.94 C 157.20 174.04 156.58 173.22 155.68 173.09 C 154.78 172.97 153.96 173.60 153.84 174.50 L 153.71 175.44 C 153.59 176.34 154.22 177.16 155.11 177.28 C 156.01 177.41 156.83 176.78 156.96 175.88 Z M 157.09 174.85 L 157.17 173.85 C 157.24 172.95 156.57 172.16 155.67 172.09 C 154.77 172.02 153.98 172.69 153.91 173.59 L 153.83 174.59 C 153.76 175.49 154.43 176.28 155.33 176.35 C 156.23 176.42 157.02 175.75 157.09 174.85 Z M 157.18 173.80 L 157.22 172.77 C 157.27 171.87 156.57 171.10 155.67 171.06 C 154.76 171.02 154.00 171.72 153.95 172.62 L 153.91 173.64 C 153.86 174.55 154.56 175.31 155.46 175.36 C 156.37 175.40 157.13 174.70 157.18 173.80 Z M 157.23 172.75 L 157.25 171.92 C 157.28 171.02 156.58 170.26 155.67 170.23 C 154.77 170.20 154.01 170.91 153.98 171.81 L 153.95 172.64 C 153.92 173.54 154.63 174.30 155.53 174.33 C 156.44 174.36 157.19 173.66 157.23 172.75 Z"
      fill="black"
      fill-rule="nonzero" /><path d="M 153.55 167.50 L 154.41 166.92 C 155.22 166.38 155.44 165.28 154.90 164.47 C 154.36 163.66 153.26 163.44 152.45 163.98 L 151.58 164.56 C 150.77 165.10 150.56 166.20 151.10 167.01 C 151.64 167.82 152.74 168.04 153.55 167.50 Z M 154.22 167.08 L 155.11 166.65 C 156.01 166.21 156.39 165.12 155.95 164.22 C 155.51 163.32 154.42 162.95 153.52 163.39 L 152.63 163.82 C 151.73 164.26 151.36 165.35 151.80 166.25 C 152.24 167.15 153.32 167.52 154.22 167.08 Z M 154.60 166.86 L 155.54 166.71 C 156.56 166.55 157.25 165.60 157.09 164.59 C 156.94 163.57 155.99 162.88 154.97 163.04 L 154.03 163.18 C 153.02 163.34 152.32 164.29 152.48 165.31 C 152.64 166.32 153.59 167.01 154.60 166.86 Z M 154.86 166.71 L 155.71 166.89 C 156.72 167.11 157.73 166.46 157.94 165.45 C 158.16 164.43 157.51 163.43 156.49 163.21 L 155.65 163.03 C 154.64 162.81 153.63 163.46 153.42 164.48 C 153.20 165.50 153.85 166.50 154.86 166.71 Z M 155.31 166.77 L 156.18 167.17 C 157.13 167.60 158.25 167.19 158.69 166.24 C 159.12 165.30 158.71 164.18 157.76 163.74 L 156.89 163.34 C 155.94 162.90 154.82 163.32 154.39 164.26 C 153.95 165.21 154.36 166.33 155.31 166.77 Z M 156.00 167.07 L 156.91 167.62 C 157.81 168.15 158.97 167.86 159.50 166.97 C 160.04 166.07 159.75 164.91 158.85 164.38 L 157.94 163.83 C 157.05 163.30 155.89 163.59 155.35 164.48 C 154.82 165.38 155.11 166.54 156.00 167.07 Z M 156.85 167.58 L 157.76 168.17 C 158.64 168.74 159.81 168.49 160.38 167.62 C 160.94 166.74 160.70 165.57 159.82 165.00 L 158.91 164.41 C 158.03 163.85 156.86 164.10 156.30 164.97 C 155.73 165.85 155.98 167.02 156.85 167.58 Z M 157.78 168.18 L 158.51 168.65 C 159.39 169.21 160.56 168.95 161.12 168.07 C 161.68 167.19 161.42 166.03 160.54 165.46 L 159.81 165.00 C 158.93 164.43 157.76 164.69 157.20 165.57 C 156.64 166.45 156.90 167.62 157.78 168.18 Z M 158.54 168.66 L 159.31 169.14 C 160.20 169.69 161.36 169.42 161.91 168.53 C 162.46 167.64 162.18 166.48 161.30 165.93 L 160.52 165.45 C 159.63 164.90 158.47 165.18 157.92 166.07 C 157.37 166.95 157.65 168.12 158.54 168.66 Z M 159.34 169.16 L 160.18 169.66 C 161.07 170.19 162.23 169.90 162.77 169.01 C 163.30 168.12 163.01 166.96 162.12 166.42 L 161.27 165.92 C 160.38 165.38 159.22 165.67 158.69 166.57 C 158.15 167.46 158.44 168.62 159.34 169.16 Z M 160.20 169.67 L 161.14 170.21 C 162.04 170.74 163.19 170.43 163.71 169.53 C 164.23 168.63 163.93 167.48 163.03 166.95 L 162.09 166.41 C 161.19 165.89 160.04 166.19 159.52 167.09 C 158.99 167.99 159.30 169.15 160.20 169.67 Z M 161.15 170.22 L 162.16 170.79 C 163.07 171.31 164.22 170.99 164.73 170.08 C 165.24 169.18 164.92 168.03 164.02 167.52 L 163.01 166.95 C 162.10 166.43 160.96 166.75 160.44 167.66 C 159.93 168.56 160.25 169.71 161.15 170.22 Z M 162.18 170.80 L 163.04 171.28 C 163.95 171.78 165.09 171.45 165.60 170.55 C 166.10 169.64 165.77 168.49 164.87 167.99 L 164.00 167.51 C 163.09 167.01 161.95 167.33 161.45 168.24 C 160.94 169.15 161.27 170.29 162.18 170.80 Z M 163.05 171.28 L 163.96 171.78 C 164.87 172.28 166.01 171.94 166.51 171.03 C 167.01 170.12 166.67 168.98 165.76 168.49 L 164.85 167.99 C 163.95 167.49 162.80 167.82 162.31 168.73 C 161.81 169.64 162.14 170.78 163.05 171.28 Z M 163.97 171.78 L 164.90 172.28 C 165.81 172.78 166.95 172.44 167.44 171.53 C 167.93 170.62 167.60 169.48 166.68 168.99 L 165.75 168.48 C 164.84 167.99 163.71 168.33 163.21 169.24 C 162.72 170.15 163.06 171.29 163.97 171.78 Z M 164.91 172.29 L 165.84 172.78 C 166.75 173.27 167.88 172.92 168.37 172.01 C 168.85 171.10 168.51 169.96 167.60 169.48 L 166.67 168.98 C 165.76 168.50 164.63 168.84 164.14 169.75 C 163.66 170.67 164.00 171.80 164.91 172.29 Z M 165.85 172.78 L 166.74 173.25 C 167.65 173.73 168.78 173.38 169.26 172.47 C 169.74 171.56 169.39 170.43 168.48 169.94 L 167.59 169.48 C 166.67 168.99 165.54 169.34 165.06 170.26 C 164.58 171.17 164.93 172.30 165.85 172.78 Z M 166.75 173.25 L 167.58 173.69 C 168.50 174.16 169.62 173.80 170.10 172.89 C 170.57 171.97 170.21 170.85 169.30 170.37 L 168.47 169.94 C 167.55 169.47 166.43 169.83 165.95 170.74 C 165.48 171.65 165.84 172.78 166.75 173.25 Z M 167.60 173.69 L 168.60 174.19 C 169.51 174.65 170.63 174.28 171.09 173.37 C 171.56 172.45 171.19 171.33 170.27 170.87 L 169.28 170.37 C 168.36 169.91 167.24 170.27 166.78 171.19 C 166.32 172.11 166.69 173.23 167.60 173.69 Z M 168.63 174.19 L 169.65 174.69 C 170.57 175.13 171.68 174.75 172.12 173.83 C 172.56 172.91 172.18 171.81 171.26 171.36 L 170.24 170.87 C 169.32 170.42 168.22 170.81 167.77 171.73 C 167.33 172.64 167.71 173.75 168.63 174.19 Z M 169.69 174.69 L 170.55 175.08 C 171.46 175.50 172.55 175.10 172.97 174.18 C 173.39 173.26 172.99 172.18 172.07 171.75 L 171.22 171.36 C 170.30 170.94 169.22 171.34 168.80 172.26 C 168.37 173.18 168.78 174.26 169.69 174.69 Z M 170.57 175.07 L 171.33 175.41 C 172.24 175.81 173.32 175.40 173.72 174.49 C 174.13 173.57 173.72 172.50 172.80 172.09 L 172.05 171.76 C 171.13 171.35 170.06 171.77 169.65 172.68 C 169.25 173.60 169.66 174.67 170.57 175.07 Z M 171.34 175.40 L 172.17 175.76 C 173.07 176.17 174.14 175.76 174.54 174.85 C 174.94 173.94 174.53 172.88 173.62 172.47 L 172.79 172.11 C 171.89 171.70 170.82 172.11 170.42 173.02 C 170.02 173.93 170.43 174.99 171.34 175.40 Z M 172.16 175.75 L 173.06 176.16 C 173.96 176.56 175.02 176.16 175.43 175.26 C 175.83 174.36 175.43 173.30 174.53 172.90 L 173.63 172.49 C 172.73 172.08 171.67 172.48 171.26 173.38 C 170.86 174.28 171.26 175.34 172.16 175.75 Z M 173.06 176.14 L 173.97 176.56 C 174.87 176.97 175.92 176.58 176.33 175.69 C 176.74 174.80 176.35 173.74 175.46 173.33 L 174.54 172.91 C 173.65 172.50 172.59 172.89 172.18 173.79 C 171.77 174.68 172.16 175.73 173.06 176.14 Z M 173.97 176.55 L 174.84 176.96 C 175.73 177.37 176.78 176.99 177.19 176.10 C 177.61 175.22 177.22 174.16 176.34 173.75 L 175.46 173.34 C 174.58 172.93 173.52 173.31 173.11 174.20 C 172.70 175.09 173.08 176.14 173.97 176.55 Z M 174.84 176.95 L 175.67 177.33 C 176.55 177.75 177.59 177.37 178.01 176.49 C 178.42 175.61 178.04 174.56 177.16 174.15 L 176.34 173.76 C 175.46 173.35 174.41 173.73 174.00 174.61 C 173.58 175.49 173.96 176.54 174.84 176.95 Z M 175.68 177.33 L 176.56 177.74 C 177.44 178.15 178.48 177.77 178.89 176.89 C 179.30 176.01 178.92 174.97 178.04 174.57 L 177.15 174.15 C 176.27 173.74 175.23 174.13 174.82 175.00 C 174.42 175.88 174.80 176.92 175.68 177.33 Z M 176.58 177.74 L 177.58 178.19 C 178.45 178.59 179.48 178.20 179.88 177.33 C 180.28 176.45 179.89 175.42 179.02 175.02 L 178.02 174.57 C 177.15 174.17 176.11 174.56 175.72 175.43 C 175.32 176.31 175.70 177.34 176.58 177.74 Z M 177.59 178.19 L 178.51 178.60 C 179.38 178.99 180.41 178.59 180.80 177.72 C 181.19 176.84 180.79 175.82 179.92 175.43 L 179.00 175.02 C 178.12 174.63 177.10 175.03 176.71 175.90 C 176.32 176.78 176.72 177.80 177.59 178.19 Z M 178.52 178.60 L 179.40 178.98 C 180.27 179.36 181.29 178.96 181.67 178.09 C 182.06 177.21 181.66 176.19 180.78 175.81 L 179.90 175.43 C 179.03 175.04 178.01 175.44 177.63 176.32 C 177.24 177.19 177.64 178.21 178.52 178.60 Z M 179.40 178.98 L 180.33 179.38 C 181.20 179.76 182.22 179.36 182.60 178.49 C 182.98 177.61 182.58 176.59 181.70 176.21 L 180.78 175.81 C 179.90 175.43 178.89 175.83 178.51 176.71 C 178.13 177.58 178.53 178.60 179.40 178.98 Z M 180.33 179.38 L 181.28 179.79 C 182.15 180.17 183.16 179.77 183.54 178.90 C 183.92 178.03 183.52 177.01 182.65 176.63 L 181.70 176.22 C 180.83 175.84 179.81 176.24 179.43 177.11 C 179.06 177.98 179.45 179.00 180.33 179.38 Z M 181.27 179.78 L 182.23 180.20 C 183.10 180.58 184.11 180.19 184.49 179.32 C 184.87 178.45 184.48 177.44 183.61 177.06 L 182.65 176.64 C 181.79 176.26 180.77 176.65 180.39 177.52 C 180.01 178.39 180.41 179.40 181.27 179.78 Z M 182.22 180.20 L 183.16 180.61 C 184.02 181.00 185.03 180.61 185.42 179.74 C 185.80 178.88 185.41 177.87 184.55 177.48 L 183.62 177.07 C 182.75 176.68 181.74 177.07 181.36 177.93 C 180.97 178.80 181.36 179.81 182.22 180.20 Z M 183.15 180.60 L 184.05 181.01 C 184.91 181.40 185.92 181.02 186.31 180.16 C 186.70 179.30 186.32 178.29 185.46 177.90 L 184.56 177.49 C 183.70 177.10 182.69 177.48 182.30 178.34 C 181.91 179.20 182.29 180.21 183.15 180.60 Z M 184.04 181.00 L 184.93 181.41 C 185.78 181.80 186.79 181.43 187.18 180.58 C 187.58 179.73 187.21 178.72 186.36 178.33 L 185.47 177.92 C 184.62 177.52 183.61 177.89 183.22 178.74 C 182.82 179.59 183.19 180.60 184.04 181.00 Z M 184.93 181.39 L 185.82 181.81 C 186.66 182.21 187.67 181.85 188.07 181.01 C 188.46 180.16 188.10 179.16 187.26 178.76 L 186.36 178.34 C 185.52 177.95 184.52 178.31 184.12 179.15 C 183.72 179.99 184.08 181.00 184.93 181.39 Z M 185.82 181.80 L 186.72 182.24 C 187.56 182.64 188.56 182.28 188.96 181.45 C 189.36 180.61 189.01 179.61 188.17 179.21 L 187.26 178.78 C 186.43 178.38 185.43 178.73 185.03 179.56 C 184.63 180.40 184.98 181.40 185.82 181.80 Z M 186.72 182.22 L 187.64 182.67 C 188.47 183.07 189.47 182.73 189.87 181.90 C 190.27 181.07 189.93 180.07 189.10 179.67 L 188.17 179.22 C 187.34 178.82 186.35 179.17 185.94 179.99 C 185.54 180.82 185.89 181.82 186.72 182.22 Z M 187.64 182.66 L 188.49 183.08 C 189.32 183.48 190.31 183.14 190.72 182.32 C 191.12 181.49 190.78 180.50 189.95 180.09 L 189.10 179.68 C 188.28 179.27 187.28 179.61 186.88 180.44 C 186.47 181.26 186.81 182.26 187.64 182.66 Z M 188.49 183.07 L 189.37 183.51 C 190.19 183.91 191.18 183.58 191.59 182.75 C 191.99 181.93 191.66 180.94 190.83 180.53 L 189.96 180.10 C 189.14 179.70 188.14 180.03 187.74 180.85 C 187.33 181.68 187.67 182.67 188.49 183.07 Z M 189.37 183.50 L 190.26 183.95 C 191.08 184.35 192.07 184.02 192.48 183.20 C 192.88 182.38 192.55 181.39 191.73 180.98 L 190.84 180.54 C 190.02 180.13 189.02 180.47 188.62 181.29 C 188.21 182.10 188.55 183.10 189.37 183.50 Z M 190.26 183.94 L 191.17 184.40 C 191.99 184.80 192.98 184.47 193.38 183.65 C 193.79 182.84 193.46 181.85 192.64 181.44 L 191.73 180.99 C 190.92 180.58 189.93 180.91 189.52 181.73 C 189.11 182.55 189.45 183.54 190.26 183.94 Z M 191.17 184.39 L 192.09 184.85 C 192.91 185.26 193.89 184.93 194.30 184.11 C 194.71 183.30 194.38 182.31 193.56 181.91 L 192.64 181.45 C 191.83 181.04 190.84 181.37 190.44 182.18 C 190.03 183.00 190.36 183.99 191.17 184.39 Z M 192.09 184.85 L 192.95 185.27 C 193.76 185.68 194.74 185.35 195.15 184.54 C 195.55 183.73 195.22 182.74 194.41 182.34 L 193.56 181.91 C 192.75 181.51 191.76 181.83 191.36 182.64 C 190.95 183.46 191.28 184.44 192.09 184.85 Z"
      fill="black"
      fill-rule="nonzero" /><path d="M 185.90 143.50 L 184.88 143.55 C 183.94 143.60 183.22 144.40 183.27 145.34 C 183.32 146.28 184.11 147.00 185.05 146.95 L 186.07 146.90 C 187.01 146.85 187.73 146.05 187.69 145.11 C 187.64 144.18 186.84 143.45 185.90 143.50 Z M 184.75 143.50 L 183.75 143.62 C 182.78 143.75 182.10 144.63 182.22 145.60 C 182.34 146.57 183.23 147.25 184.19 147.13 L 185.19 147.01 C 186.16 146.88 186.84 146.00 186.72 145.03 C 186.60 144.06 185.71 143.38 184.75 143.50 Z M 183.46 143.62 L 182.53 143.89 C 181.55 144.17 180.99 145.19 181.28 146.16 C 181.56 147.13 182.57 147.69 183.55 147.41 L 184.48 147.14 C 185.46 146.86 186.02 145.84 185.73 144.87 C 185.45 143.89 184.44 143.33 183.46 143.62 Z M 182.11 144.01 L 181.29 144.47 C 180.39 144.97 180.06 146.12 180.57 147.03 C 181.08 147.94 182.23 148.26 183.14 147.75 L 183.96 147.29 C 184.87 146.78 185.19 145.63 184.68 144.73 C 184.17 143.82 183.02 143.50 182.11 144.01 Z M 180.96 144.67 L 180.23 145.31 C 179.44 146.00 179.36 147.21 180.06 148.01 C 180.75 148.80 181.96 148.88 182.75 148.18 L 183.48 147.55 C 184.27 146.85 184.35 145.64 183.65 144.85 C 182.96 144.05 181.75 143.98 180.96 144.67 Z M 180.02 145.49 L 179.36 146.27 C 178.67 147.08 178.77 148.30 179.58 148.99 C 180.39 149.68 181.61 149.58 182.30 148.77 L 182.96 148.00 C 183.65 147.18 183.56 145.97 182.74 145.28 C 181.93 144.58 180.71 144.68 180.02 145.49 Z M 179.24 146.40 L 178.63 147.27 C 178.01 148.15 178.23 149.37 179.11 149.98 C 179.99 150.60 181.20 150.39 181.82 149.50 L 182.43 148.64 C 183.04 147.76 182.83 146.54 181.95 145.92 C 181.07 145.31 179.85 145.52 179.24 146.40 Z M 178.56 147.36 L 178.06 148.16 C 177.50 149.08 177.78 150.29 178.70 150.86 C 179.62 151.42 180.83 151.14 181.39 150.22 L 181.89 149.41 C 182.46 148.49 182.17 147.29 181.25 146.72 C 180.33 146.15 179.13 146.44 178.56 147.36 Z M 178.02 148.24 L 177.55 149.09 C 177.02 150.03 177.36 151.22 178.31 151.75 C 179.25 152.27 180.44 151.93 180.97 150.99 L 181.44 150.14 C 181.96 149.20 181.62 148.01 180.68 147.48 C 179.74 146.96 178.54 147.30 178.02 148.24 Z M 177.51 149.16 L 177.05 150.06 C 176.57 151.02 176.95 152.20 177.92 152.69 C 178.88 153.18 180.06 152.79 180.55 151.83 L 181.00 150.92 C 181.49 149.96 181.10 148.78 180.14 148.29 C 179.18 147.81 178.00 148.19 177.51 149.16 Z M 177.03 150.12 L 176.58 151.08 C 176.12 152.06 176.55 153.22 177.53 153.68 C 178.51 154.14 179.67 153.71 180.13 152.73 L 180.57 151.77 C 181.03 150.79 180.61 149.62 179.63 149.17 C 178.65 148.71 177.48 149.14 177.03 150.12 Z M 176.56 151.13 L 176.15 152.06 C 175.72 153.05 176.17 154.20 177.16 154.63 C 178.15 155.07 179.31 154.61 179.74 153.62 L 180.15 152.69 C 180.58 151.70 180.12 150.54 179.13 150.11 C 178.14 149.68 176.99 150.14 176.56 151.13 Z M 176.14 152.09 L 175.75 153.05 C 175.33 154.04 175.80 155.18 176.80 155.60 C 177.80 156.01 178.94 155.54 179.35 154.54 L 179.75 153.59 C 180.16 152.60 179.69 151.45 178.69 151.04 C 177.70 150.63 176.56 151.10 176.14 152.09 Z M 175.74 153.07 L 175.36 154.02 C 174.95 155.01 175.44 156.15 176.44 156.55 C 177.44 156.96 178.57 156.47 178.97 155.47 L 179.36 154.52 C 179.76 153.53 179.28 152.39 178.28 151.99 C 177.28 151.58 176.14 152.07 175.74 153.07 Z M 175.36 154.03 L 174.99 154.94 C 174.60 155.94 175.08 157.08 176.08 157.47 C 177.08 157.87 178.22 157.38 178.61 156.38 L 178.98 155.46 C 179.37 154.46 178.88 153.33 177.88 152.94 C 176.88 152.54 175.75 153.03 175.36 154.03 Z M 175.00 154.95 L 174.63 155.87 C 174.24 156.86 174.73 157.99 175.72 158.39 C 176.72 158.78 177.85 158.29 178.24 157.30 L 178.61 156.38 C 179.00 155.38 178.51 154.25 177.52 153.86 C 176.52 153.46 175.39 153.95 175.00 154.95 Z M 174.65 155.87 L 174.25 156.86 C 173.86 157.85 174.34 158.97 175.33 159.37 C 176.31 159.76 177.44 159.28 177.83 158.29 L 178.23 157.30 C 178.62 156.31 178.14 155.19 177.15 154.79 C 176.16 154.40 175.04 154.88 174.65 155.87 Z M 174.27 156.87 L 173.91 157.77 C 173.51 158.75 173.99 159.86 174.97 160.25 C 175.95 160.64 177.06 160.17 177.45 159.19 L 177.81 158.29 C 178.20 157.31 177.73 156.20 176.75 155.80 C 175.77 155.41 174.66 155.89 174.27 156.87 Z M 173.92 157.78 L 173.58 158.65 C 173.19 159.62 173.67 160.72 174.64 161.10 C 175.61 161.49 176.70 161.01 177.09 160.04 L 177.43 159.18 C 177.82 158.21 177.34 157.11 176.37 156.73 C 175.41 156.34 174.31 156.81 173.92 157.78 Z M 173.59 158.67 L 173.25 159.56 C 172.87 160.52 173.35 161.60 174.31 161.98 C 175.27 162.35 176.36 161.88 176.73 160.91 L 177.08 160.02 C 177.45 159.06 176.97 157.98 176.01 157.60 C 175.05 157.23 173.97 157.71 173.59 158.67 Z M 173.26 159.58 L 172.91 160.50 C 172.54 161.45 173.02 162.52 173.98 162.89 C 174.93 163.25 176.00 162.77 176.37 161.82 L 176.72 160.90 C 177.08 159.94 176.60 158.87 175.65 158.51 C 174.69 158.14 173.62 158.62 173.26 159.58 Z M 172.92 160.51 L 172.56 161.46 C 172.21 162.41 172.69 163.47 173.64 163.82 C 174.58 164.18 175.64 163.70 176.00 162.75 L 176.36 161.80 C 176.71 160.85 176.23 159.80 175.28 159.44 C 174.33 159.08 173.28 159.56 172.92 160.51 Z M 172.58 161.47 L 172.22 162.42 C 171.87 163.36 172.35 164.41 173.29 164.76 C 174.23 165.11 175.28 164.63 175.63 163.69 L 175.99 162.74 C 176.34 161.80 175.86 160.75 174.92 160.40 C 173.97 160.05 172.93 160.53 172.58 161.47 Z M 172.24 162.42 L 171.90 163.33 C 171.55 164.26 172.03 165.30 172.96 165.65 C 173.89 166.00 174.93 165.52 175.28 164.59 L 175.62 163.68 C 175.96 162.75 175.49 161.71 174.56 161.36 C 173.62 161.02 172.58 161.49 172.24 162.42 Z M 171.92 163.33 L 171.57 164.27 C 171.22 165.19 171.69 166.22 172.61 166.57 C 173.54 166.91 174.57 166.45 174.91 165.52 L 175.26 164.59 C 175.61 163.66 175.14 162.63 174.22 162.29 C 173.29 161.94 172.26 162.41 171.92 163.33 Z M 171.58 164.26 L 171.22 165.22 C 170.87 166.14 171.33 167.16 172.25 167.51 C 173.16 167.86 174.19 167.40 174.53 166.48 L 174.90 165.52 C 175.25 164.61 174.78 163.58 173.87 163.24 C 172.95 162.89 171.93 163.35 171.58 164.26 Z M 171.24 165.22 L 170.87 166.17 C 170.52 167.08 170.97 168.10 171.88 168.45 C 172.78 168.79 173.80 168.34 174.15 167.44 L 174.52 166.49 C 174.86 165.58 174.41 164.56 173.51 164.21 C 172.60 163.87 171.59 164.32 171.24 165.22 Z M 170.89 166.17 L 170.52 167.11 C 170.17 168.00 170.61 169.01 171.51 169.36 C 172.40 169.71 173.41 169.27 173.76 168.38 L 174.13 167.44 C 174.48 166.55 174.04 165.54 173.14 165.19 C 172.25 164.84 171.24 165.28 170.89 166.17 Z M 170.55 167.10 L 170.17 168.04 C 169.82 168.92 170.25 169.92 171.13 170.27 C 172.01 170.63 173.01 170.20 173.36 169.31 L 173.74 168.38 C 174.09 167.50 173.66 166.50 172.78 166.14 C 171.90 165.79 170.90 166.22 170.55 167.10 Z M 170.19 168.04 L 169.82 168.97 C 169.47 169.84 169.89 170.83 170.76 171.18 C 171.63 171.53 172.62 171.11 172.97 170.24 L 173.34 169.32 C 173.69 168.45 173.27 167.46 172.40 167.10 C 171.54 166.75 170.55 167.17 170.19 168.04 Z M 169.84 168.97 L 169.46 169.90 C 169.11 170.76 169.52 171.74 170.38 172.09 C 171.23 172.44 172.21 172.03 172.57 171.17 L 172.95 170.24 C 173.30 169.39 172.89 168.40 172.03 168.05 C 171.17 167.70 170.19 168.11 169.84 168.97 Z M 169.47 169.90 L 169.08 170.84 C 168.73 171.69 169.14 172.66 169.99 173.02 C 170.84 173.37 171.81 172.96 172.16 172.11 L 172.55 171.17 C 172.91 170.32 172.50 169.35 171.65 168.99 C 170.80 168.64 169.82 169.05 169.47 169.90 Z M 169.09 170.84 L 168.71 171.76 C 168.36 172.61 168.76 173.58 169.61 173.93 C 170.46 174.28 171.43 173.87 171.78 173.03 L 172.16 172.11 C 172.51 171.26 172.10 170.29 171.26 169.94 C 170.41 169.59 169.44 170.00 169.09 170.84 Z M 168.72 171.77 L 168.35 172.68 C 168.00 173.53 168.41 174.49 169.25 174.83 C 170.10 175.18 171.06 174.77 171.40 173.93 L 171.77 173.02 C 172.11 172.17 171.71 171.21 170.87 170.87 C 170.02 170.52 169.06 170.93 168.72 171.77 Z M 168.35 172.70 L 167.98 173.62 C 167.65 174.47 168.06 175.42 168.90 175.75 C 169.75 176.09 170.70 175.68 171.03 174.83 L 171.40 173.91 C 171.73 173.07 171.32 172.11 170.48 171.78 C 169.63 171.44 168.68 171.86 168.35 172.70 Z M 167.98 173.63 L 167.62 174.57 C 167.29 175.41 167.71 176.36 168.55 176.69 C 169.40 177.02 170.35 176.60 170.67 175.76 L 171.04 174.82 C 171.36 173.98 170.95 173.03 170.10 172.70 C 169.26 172.37 168.31 172.79 167.98 173.63 Z M 167.62 174.57 L 167.25 175.50 C 166.92 176.34 167.34 177.29 168.18 177.62 C 169.03 177.95 169.98 177.54 170.31 176.69 L 170.67 175.76 C 171.00 174.92 170.58 173.97 169.74 173.64 C 168.90 173.31 167.95 173.72 167.62 174.57 Z M 167.26 175.48 L 166.89 176.40 C 166.55 177.24 166.95 178.20 167.79 178.54 C 168.63 178.88 169.59 178.47 169.92 177.63 L 170.30 176.71 C 170.64 175.87 170.23 174.92 169.40 174.58 C 168.56 174.24 167.60 174.64 167.26 175.48 Z M 166.90 176.37 L 166.50 177.30 C 166.15 178.13 166.53 179.09 167.36 179.45 C 168.19 179.81 169.16 179.42 169.51 178.59 L 169.91 177.67 C 170.27 176.84 169.88 175.87 169.05 175.51 C 168.22 175.16 167.26 175.54 166.90 176.37 Z M 166.52 177.27 L 166.10 178.18 C 165.73 179.01 166.09 179.98 166.91 180.35 C 167.74 180.73 168.71 180.36 169.08 179.54 L 169.50 178.62 C 169.87 177.80 169.51 176.83 168.69 176.46 C 167.86 176.08 166.89 176.44 166.52 177.27 Z M 166.11 178.16 L 165.69 179.06 C 165.30 179.88 165.65 180.85 166.46 181.24 C 167.28 181.63 168.26 181.28 168.64 180.46 L 169.07 179.56 C 169.46 178.74 169.11 177.77 168.29 177.38 C 167.48 176.99 166.50 177.34 166.11 178.16 Z M 165.69 179.05 L 165.26 179.93 C 164.87 180.75 165.20 181.73 166.02 182.12 C 166.83 182.52 167.81 182.18 168.21 181.37 L 168.64 180.48 C 169.03 179.66 168.69 178.68 167.88 178.29 C 167.07 177.89 166.09 178.23 165.69 179.05 Z M 165.27 179.93 L 164.82 180.83 C 164.42 181.64 164.75 182.62 165.56 183.02 C 166.37 183.42 167.35 183.09 167.75 182.28 L 168.20 181.37 C 168.60 180.56 168.27 179.58 167.46 179.18 C 166.65 178.78 165.67 179.12 165.27 179.93 Z M 164.82 180.82 L 164.37 181.71 C 163.97 182.52 164.29 183.51 165.10 183.91 C 165.91 184.32 166.89 183.99 167.30 183.18 L 167.75 182.29 C 168.16 181.48 167.83 180.50 167.02 180.09 C 166.21 179.69 165.23 180.01 164.82 180.82 Z M 164.38 181.70 L 163.93 182.58 C 163.51 183.39 163.83 184.37 164.63 184.79 C 165.44 185.20 166.42 184.89 166.84 184.08 L 167.29 183.20 C 167.71 182.40 167.39 181.41 166.59 180.99 C 165.78 180.58 164.80 180.90 164.38 181.70 Z M 163.94 182.57 L 163.47 183.45 C 163.04 184.24 163.35 185.23 164.15 185.66 C 164.94 186.08 165.93 185.78 166.36 184.98 L 166.83 184.10 C 167.25 183.30 166.95 182.31 166.15 181.89 C 165.35 181.46 164.36 181.77 163.94 182.57 Z M 163.48 183.43 L 163.00 184.31 C 162.56 185.10 162.85 186.09 163.65 186.53 C 164.44 186.96 165.43 186.67 165.87 185.88 L 166.35 185.00 C 166.78 184.21 166.49 183.21 165.70 182.78 C 164.91 182.34 163.91 182.63 163.48 183.43 Z M 163.00 184.29 L 162.52 185.17 C 162.08 185.96 162.36 186.95 163.15 187.39 C 163.94 187.83 164.93 187.55 165.37 186.76 L 165.86 185.89 C 166.30 185.10 166.02 184.10 165.23 183.66 C 164.44 183.22 163.44 183.50 163.00 184.29 Z M 162.52 185.16 L 162.03 186.03 C 161.59 186.82 161.86 187.81 162.65 188.26 C 163.44 188.70 164.44 188.42 164.88 187.64 L 165.37 186.77 C 165.82 185.98 165.54 184.98 164.75 184.54 C 163.96 184.09 162.96 184.37 162.52 185.16 Z"
      fill="black"
      fill-rule="nonzero" /></svg>