<svg xmlns="http://www.w3.org/2000/svg" width="300" height="300" viewBox="0 0 300 300">
<path d="M 119.46 123.90 L 120.40 123.17 C 121.09 122.63 121.22 121.63 120.67 120.94 C 120.13 120.25 119.13 120.12 118.44 120.66 L 117.51 121.39 C 116.81 121.93 116.69 122.93 117.23 123.63 C 117.77 124.32 118.77 124.44 119.46 123.90 Z M 120.03 123.43 L 120.85 123.10 C 121.69 122.77 122.10 121.82 121.76 120.98 C 121.42 120.14 120.47 119.74 119.64 120.07 L 118.81 120.40 C 117.97 120.74 117.57 121.69 117.90 122.53 C 118.24 123.36 119.19 123.77 120.03 123.43 Z M 119.36 123.00 L 119.91 123.35 C 120.69 123.83 121.72 123.60 122.21 122.82 C 122.70 122.04 122.46 121.01 121.68 120.52 L 121.13 120.18 C 120.35 119.69 119.32 119.92 118.83 120.70 C 118.34 121.48 118.58 122.51 119.36 123.00 Z M 119.23 122.56 L 119.55 123.37 C 119.90 124.24 120.88 124.66 121.75 124.31 C 122.62 123.96 123.04 122.98 122.69 122.11 L 122.36 121.30 C 122.02 120.44 121.03 120.02 120.17 120.36 C 119.30 120.71 118.88 121.70 119.23 122.56 Z M 119.44 123.08 L 119.67 124.18 C 119.85 125.10 120.75 125.70 121.68 125.51 C 122.60 125.32 123.20 124.42 123.02 123.50 L 122.79 122.40 C 122.61 121.48 121.71 120.88 120.78 121.07 C 119.86 121.25 119.26 122.16 119.44 123.08 Z M 119.63 124.06 L 119.78 125.21 C 119.90 126.16 120.77 126.83 121.72 126.70 C 122.66 126.58 123.33 125.71 123.20 124.77 L 123.05 123.61 C 122.93 122.67 122.06 122.00 121.12 122.13 C 120.17 122.25 119.51 123.12 119.63 124.06 Z M 119.77 125.17 L 119.87 126.16 C 119.97 127.11 120.83 127.80 121.78 127.70 C 122.73 127.60 123.42 126.75 123.32 125.80 L 123.22 124.81 C 123.11 123.86 122.26 123.17 121.31 123.27 C 120.36 123.37 119.67 124.22 119.77 125.17 Z M 119.87 126.14 L 119.96 127.12 C 120.05 128.07 120.90 128.77 121.85 128.69 C 122.80 128.60 123.51 127.75 123.42 126.80 L 123.32 125.82 C 123.23 124.86 122.39 124.16 121.43 124.25 C 120.48 124.34 119.78 125.19 119.87 126.14 Z M 119.96 127.12 L 120.05 128.11 C 120.14 129.06 120.98 129.77 121.94 129.68 C 122.89 129.59 123.59 128.75 123.51 127.79 L 123.42 126.80 C 123.33 125.85 122.49 125.14 121.53 125.23 C 120.58 125.32 119.87 126.16 119.96 127.12 Z M 120.05 128.12 L 120.15 129.11 C 120.24 130.06 121.09 130.76 122.04 130.67 C 123.00 130.58 123.70 129.73 123.60 128.77 L 123.51 127.78 C 123.42 126.83 122.57 126.13 121.61 126.22 C 120.66 126.32 119.96 127.16 120.05 128.12 Z M 120.15 129.12 L 120.24 130.06 C 120.34 131.02 121.20 131.71 122.15 131.61 C 123.11 131.51 123.80 130.66 123.70 129.70 L 123.60 128.76 C 123.50 127.81 122.65 127.11 121.69 127.21 C 120.74 127.31 120.05 128.17 120.15 129.12 Z M 120.25 130.07 L 120.35 131.05 C 120.45 132.01 121.31 132.70 122.26 132.59 C 123.22 132.49 123.91 131.64 123.81 130.68 L 123.70 129.70 C 123.60 128.74 122.74 128.05 121.79 128.16 C 120.83 128.26 120.14 129.12 120.25 130.07 Z M 120.35 131.05 L 120.46 132.07 C 120.56 133.02 121.42 133.72 122.37 133.61 C 123.33 133.51 124.02 132.66 123.91 131.70 L 123.81 130.68 C 123.70 129.73 122.85 129.04 121.89 129.14 C 120.94 129.24 120.25 130.10 120.35 131.05 Z M 120.46 132.06 L 120.57 133.11 C 120.66 134.07 121.52 134.76 122.47 134.67 C 123.42 134.57 124.12 133.72 124.02 132.76 L 123.92 131.71 C 123.82 130.76 122.97 130.06 122.01 130.16 C 121.06 130.26 120.36 131.11 120.46 132.06 Z M 120.56 133.10 L 120.65 134.06 C 120.75 135.01 121.59 135.71 122.55 135.62 C 123.50 135.53 124.20 134.68 124.11 133.73 L 124.02 132.77 C 123.93 131.82 123.09 131.12 122.13 131.21 C 121.18 131.30 120.47 132.15 120.56 133.10 Z M 120.65 134.04 L 120.74 135.00 C 120.82 135.96 121.66 136.67 122.62 136.58 C 123.57 136.50 124.28 135.66 124.20 134.70 L 124.12 133.74 C 124.03 132.79 123.19 132.08 122.23 132.16 C 121.28 132.24 120.57 133.09 120.65 134.04 Z M 120.74 134.99 L 120.81 135.98 C 120.89 136.93 121.73 137.65 122.68 137.57 C 123.64 137.49 124.35 136.66 124.28 135.70 L 124.20 134.71 C 124.12 133.76 123.29 133.04 122.33 133.12 C 121.37 133.20 120.66 134.03 120.74 134.99 Z M 120.81 135.96 L 120.89 136.98 C 120.96 137.94 121.79 138.66 122.74 138.59 C 123.70 138.52 124.42 137.69 124.35 136.73 L 124.28 135.71 C 124.21 134.76 123.38 134.04 122.42 134.11 C 121.46 134.17 120.74 135.01 120.81 135.96 Z M 120.89 136.97 L 120.95 138.02 C 121.02 138.98 121.84 139.70 122.80 139.64 C 123.76 139.58 124.48 138.75 124.42 137.80 L 124.35 136.74 C 124.29 135.79 123.46 135.06 122.51 135.12 C 121.55 135.18 120.82 136.01 120.89 136.97 Z M 120.95 138.01 L 121.01 139.05 C 121.07 140.01 121.89 140.74 122.85 140.69 C 123.81 140.63 124.54 139.81 124.48 138.85 L 124.42 137.81 C 124.37 136.85 123.54 136.12 122.59 136.17 C 121.63 136.23 120.90 137.05 120.95 138.01 Z M 121.01 139.04 L 121.07 140.09 C 121.12 141.05 121.94 141.78 122.90 141.73 C 123.85 141.68 124.59 140.86 124.54 139.90 L 124.48 138.86 C 124.43 137.90 123.61 137.17 122.66 137.22 C 121.70 137.27 120.96 138.09 121.01 139.04 Z M 121.07 140.08 L 121.12 141.12 C 121.17 142.08 121.98 142.82 122.94 142.77 C 123.90 142.72 124.64 141.91 124.59 140.95 L 124.54 139.91 C 124.49 138.95 123.68 138.21 122.72 138.26 C 121.76 138.31 121.02 139.12 121.07 140.08 Z M 121.12 141.11 L 121.17 142.12 C 121.21 143.08 122.02 143.82 122.98 143.78 C 123.94 143.74 124.68 142.92 124.64 141.97 L 124.59 140.95 C 124.55 140.00 123.73 139.26 122.78 139.30 C 121.82 139.34 121.08 140.16 121.12 141.11 Z M 121.17 142.12 L 121.21 143.08 C 121.25 144.04 122.06 144.78 123.02 144.74 C 123.98 144.70 124.72 143.89 124.68 142.93 L 124.64 141.97 C 124.59 141.01 123.78 140.27 122.83 140.31 C 121.87 140.35 121.12 141.16 121.17 142.12 Z M 121.21 143.08 L 121.25 144.05 C 121.29 145.01 122.10 145.75 123.06 145.71 C 124.02 145.67 124.76 144.86 124.72 143.90 L 124.68 142.93 C 124.64 141.97 123.83 141.23 122.87 141.27 C 121.91 141.31 121.17 142.12 121.21 143.08 Z M 121.25 144.04 L 121.30 145.15 C 121.33 146.10 122.14 146.85 123.10 146.81 C 124.06 146.77 124.80 145.96 124.76 145.00 L 124.72 143.90 C 124.68 142.95 123.87 142.20 122.91 142.24 C 121.96 142.28 121.21 143.09 121.25 144.04 Z M 121.30 145.14 L 121.33 146.12 C 121.37 147.08 122.17 147.82 123.13 147.79 C 124.08 147.75 124.83 146.95 124.80 145.99 L 124.76 145.01 C 124.73 144.05 123.92 143.31 122.97 143.34 C 122.01 143.38 121.26 144.18 121.30 145.14 Z M 121.34 146.11 L 121.36 147.03 C 121.39 147.98 122.19 148.73 123.14 148.71 C 124.10 148.68 124.85 147.88 124.82 146.93 L 124.79 146.01 C 124.77 145.05 123.97 144.30 123.01 144.33 C 122.06 144.36 121.31 145.15 121.34 146.11 Z M 121.37 147.01 L 121.38 147.95 C 121.40 148.90 122.19 149.66 123.14 149.64 C 124.10 149.62 124.86 148.84 124.84 147.88 L 124.82 146.94 C 124.80 145.99 124.01 145.23 123.06 145.25 C 122.10 145.27 121.35 146.06 121.37 147.01 Z M 121.39 147.93 L 121.40 148.94 C 121.41 149.89 122.19 150.65 123.14 150.64 C 124.09 150.63 124.86 149.85 124.85 148.90 L 124.84 147.90 C 124.83 146.95 124.05 146.18 123.09 146.19 C 122.14 146.20 121.38 146.98 121.39 147.93 Z M 121.40 148.93 L 121.40 149.93 C 121.41 150.89 122.18 151.65 123.13 151.65 C 124.08 151.65 124.85 150.87 124.85 149.92 L 124.84 148.91 C 124.84 147.96 124.07 147.19 123.11 147.19 C 122.16 147.20 121.39 147.97 121.40 148.93 Z M 121.40 149.93 L 121.40 150.93 C 121.41 151.88 122.18 152.65 123.13 152.65 C 124.08 152.64 124.85 151.87 124.85 150.92 L 124.85 149.93 C 124.85 148.97 124.07 148.20 123.12 148.21 C 122.17 148.21 121.40 148.98 121.40 149.93 Z M 121.41 150.92 L 121.41 151.94 C 121.41 152.89 122.18 153.66 123.13 153.66 C 124.08 153.66 124.85 152.89 124.85 151.94 L 124.85 150.92 C 124.85 149.97 124.08 149.20 123.13 149.20 C 122.18 149.20 121.41 149.97 121.41 150.92 Z M 121.41 151.94 L 121.41 152.95 C 121.41 153.89 122.18 154.66 123.13 154.66 C 124.07 154.66 124.84 153.89 124.84 152.95 L 124.84 151.94 C 124.84 150.99 124.07 150.23 123.13 150.23 C 122.18 150.23 121.41 150.99 121.41 151.94 Z M 121.41 152.95 L 121.41 153.93 C 121.41 154.88 122.18 155.65 123.13 155.65 C 124.07 155.65 124.84 154.88 124.84 153.93 L 124.84 152.95 C 124.84 152.00 124.07 151.23 123.13 151.23 C 122.18 151.23 121.41 152.00 121.41 152.95 Z M 121.41 153.93 L 121.41 154.92 C 121.41 155.87 122.18 156.64 123.13 156.64 C 124.07 156.64 124.84 155.87 124.84 154.92 L 124.84 153.93 C 124.84 152.99 124.07 152.22 123.13 152.22 C 122.18 152.22 121.41 152.99 121.41 153.93 Z M 121.41 154.92 L 121.41 155.92 C 121.41 156.87 122.18 157.63 123.13 157.63 C 124.07 157.63 124.84 156.87 124.84 155.92 L 124.84 154.92 C 124.84 153.98 124.07 153.21 123.13 153.21 C 122.18 153.21 121.41 153.98 121.41 154.92 Z M 121.42 155.92 L 121.42 156.92 C 121.42 157.86 122.18 158.63 123.13 158.63 C 124.07 158.63 124.83 157.86 124.83 156.92 L 124.83 155.92 C 124.83 154.98 124.07 154.21 123.13 154.21 C 122.18 154.21 121.42 154.98 121.42 155.92 Z M 121.42 156.92 L 121.42 157.92 C 121.42 158.86 122.18 159.63 123.13 159.63 C 124.07 159.63 124.83 158.86 124.83 157.92 L 124.83 156.92 C 124.83 155.98 124.07 155.22 123.13 155.22 C 122.18 155.22 121.42 155.98 121.42 156.92 Z M 121.42 157.92 L 121.42 158.92 C 121.42 159.86 122.19 160.62 123.13 160.62 C 124.07 160.62 124.83 159.86 124.83 158.92 L 124.83 157.92 C 124.83 156.98 124.07 156.22 123.13 156.22 C 122.19 156.22 121.42 156.98 121.42 157.92 Z M 121.43 158.92 L 121.43 159.92 C 121.43 160.86 122.19 161.62 123.13 161.62 C 124.06 161.62 124.82 160.86 124.82 159.92 L 124.82 158.92 C 124.82 157.98 124.06 157.22 123.13 157.22 C 122.19 157.22 121.43 157.98 121.43 158.92 Z M 121.43 159.92 L 121.43 160.92 C 121.43 161.86 122.19 162.62 123.13 162.62 C 124.06 162.62 124.82 161.86 124.82 160.92 L 124.82 159.92 C 124.82 158.99 124.06 158.23 123.13 158.23 C 122.19 158.23 121.43 158.99 121.43 159.92 Z M 121.43 160.92 L 121.43 161.92 C 121.43 162.86 122.19 163.61 123.13 163.61 C 124.06 163.61 124.82 162.86 124.82 161.92 L 124.82 160.92 C 124.82 159.99 124.06 159.23 123.13 159.23 C 122.19 159.23 121.43 159.99 121.43 160.92 Z M 121.44 161.92 L 121.44 162.92 C 121.44 163.85 122.19 164.61 123.13 164.61 C 124.06 164.61 124.81 163.85 124.81 162.92 L 124.81 161.92 C 124.81 160.99 124.06 160.23 123.13 160.23 C 122.19 160.23 121.44 160.99 121.44 161.92 Z M 121.44 162.92 L 121.44 163.92 C 121.44 164.85 122.20 165.61 123.13 165.61 C 124.06 165.61 124.81 164.85 124.81 163.92 L 124.81 162.92 C 124.81 161.99 124.06 161.24 123.13 161.24 C 122.20 161.24 121.44 161.99 121.44 162.92 Z M 121.45 163.92 L 121.45 164.86 C 121.45 165.79 122.20 166.54 123.13 166.54 C 124.05 166.54 124.81 165.79 124.81 164.86 L 124.81 163.92 C 124.81 162.99 124.05 162.24 123.13 162.24 C 122.20 162.24 121.45 162.99 121.45 163.92 Z M 121.45 164.86 L 121.45 165.76 C 121.45 166.69 122.20 167.44 123.12 167.44 C 124.05 167.45 124.80 166.70 124.80 165.77 L 124.80 164.87 C 124.81 163.94 124.06 163.19 123.13 163.19 C 122.20 163.18 121.45 163.93 121.45 164.86 Z M 121.45 165.76 L 121.45 166.74 C 121.44 167.66 122.19 168.42 123.11 168.42 C 124.04 168.43 124.79 167.68 124.79 166.76 L 124.80 165.78 C 124.80 164.85 124.06 164.10 123.13 164.09 C 122.21 164.09 121.46 164.83 121.45 165.76 Z M 121.45 166.73 L 121.44 167.84 C 121.43 168.76 122.17 169.52 123.09 169.53 C 124.02 169.54 124.77 168.80 124.78 167.87 L 124.79 166.76 C 124.80 165.84 124.06 165.09 123.14 165.08 C 122.21 165.07 121.46 165.81 121.45 166.73 Z M 121.44 167.83 L 121.43 168.84 C 121.41 169.76 122.15 170.52 123.07 170.53 C 123.99 170.55 124.75 169.81 124.76 168.89 L 124.78 167.88 C 124.79 166.96 124.05 166.20 123.13 166.19 C 122.21 166.18 121.45 166.91 121.44 167.83 Z M 121.43 168.83 L 121.41 169.82 C 121.39 170.74 122.12 171.50 123.04 171.52 C 123.96 171.54 124.72 170.80 124.74 169.89 L 124.76 168.90 C 124.78 167.98 124.05 167.22 123.13 167.20 C 122.21 167.18 121.45 167.91 121.43 168.83 Z M 121.41 169.81 L 121.39 170.84 C 121.36 171.75 122.09 172.52 123.00 172.54 C 123.92 172.57 124.68 171.84 124.71 170.92 L 124.74 169.90 C 124.76 168.98 124.04 168.22 123.12 168.19 C 122.20 168.17 121.44 168.89 121.41 169.81 Z M 121.39 170.82 L 121.35 171.86 C 121.32 172.77 122.04 173.54 122.95 173.58 C 123.87 173.61 124.63 172.89 124.67 171.98 L 124.70 170.94 C 124.74 170.02 124.02 169.26 123.11 169.22 C 122.19 169.19 121.42 169.91 121.39 170.82 Z M 121.36 171.84 L 121.31 172.85 C 121.26 173.77 121.97 174.54 122.88 174.59 C 123.80 174.63 124.57 173.93 124.62 173.01 L 124.66 172.00 C 124.71 171.08 124.00 170.31 123.09 170.26 C 122.18 170.22 121.40 170.93 121.36 171.84 Z M 121.31 172.83 L 121.24 173.89 C 121.18 174.80 121.87 175.58 122.78 175.64 C 123.69 175.70 124.48 175.01 124.54 174.10 L 124.61 173.04 C 124.67 172.13 123.98 171.34 123.07 171.29 C 122.16 171.23 121.37 171.92 121.31 172.83 Z M 121.25 173.84 L 121.15 174.94 C 121.07 175.85 121.73 176.65 122.64 176.73 C 123.54 176.82 124.35 176.15 124.43 175.25 L 124.53 174.14 C 124.61 173.24 123.95 172.44 123.04 172.35 C 122.14 172.27 121.34 172.94 121.25 173.84 Z M 121.17 174.88 L 121.04 175.88 C 120.92 176.78 121.55 177.60 122.45 177.72 C 123.35 177.83 124.17 177.20 124.29 176.30 L 124.41 175.31 C 124.53 174.41 123.90 173.59 123.00 173.47 C 122.10 173.35 121.28 173.99 121.17 174.88 Z M 121.05 175.80 L 120.89 176.71 C 120.74 177.60 121.33 178.44 122.21 178.60 C 123.10 178.76 123.95 178.17 124.11 177.28 L 124.27 176.38 C 124.42 175.49 123.83 174.64 122.95 174.48 C 122.06 174.33 121.21 174.92 121.05 175.80 Z M 120.92 176.61 L 120.69 177.56 C 120.48 178.43 121.02 179.31 121.89 179.52 C 122.76 179.73 123.64 179.19 123.85 178.32 L 124.08 177.38 C 124.29 176.51 123.75 175.63 122.88 175.42 C 122.01 175.21 121.13 175.74 120.92 176.61 Z M 120.77 177.36 L 120.35 178.44 C 120.02 179.27 120.44 180.20 121.27 180.53 C 122.10 180.85 123.03 180.44 123.35 179.61 L 123.77 178.52 C 124.10 177.69 123.69 176.76 122.86 176.44 C 122.03 176.11 121.09 176.53 120.77 177.36 Z M 120.76 177.85 L 120.19 178.38 C 119.54 178.98 119.50 179.99 120.10 180.64 C 120.70 181.29 121.71 181.33 122.36 180.73 L 122.94 180.20 C 123.58 179.60 123.62 178.59 123.02 177.94 C 122.43 177.29 121.41 177.25 120.76 177.85 Z M 121.70 178.03 L 121.08 177.85 C 120.23 177.62 119.35 178.11 119.12 178.96 C 118.88 179.80 119.38 180.68 120.22 180.92 L 120.85 181.09 C 121.69 181.32 122.57 180.83 122.80 179.98 C 123.04 179.14 122.54 178.26 121.70 178.03 Z M 121.72 178.23 L 121.08 177.63 C 120.44 177.03 119.44 177.07 118.84 177.71 C 118.25 178.35 118.29 179.35 118.93 179.95 L 119.58 180.54 C 120.22 181.14 121.22 181.10 121.81 180.46 C 122.40 179.82 122.36 178.82 121.72 178.23 Z M 121.24 177.81 L 120.54 176.93 C 120.01 176.25 119.02 176.14 118.34 176.67 C 117.65 177.21 117.54 178.20 118.08 178.88 L 118.77 179.76 C 119.31 180.44 120.30 180.56 120.98 180.02 C 121.66 179.48 121.78 178.49 121.24 177.81 Z M 120.60 177.02 L 119.92 176.02 C 119.43 175.31 118.46 175.13 117.74 175.62 C 117.03 176.10 116.85 177.08 117.34 177.79 L 118.02 178.79 C 118.51 179.50 119.48 179.69 120.19 179.20 C 120.91 178.71 121.09 177.74 120.60 177.02 Z M 119.94 176.07 L 119.40 175.22 C 118.93 174.50 117.97 174.29 117.24 174.75 C 116.52 175.22 116.31 176.18 116.77 176.91 L 117.31 177.75 C 117.78 178.48 118.74 178.69 119.47 178.22 C 120.19 177.76 120.41 176.79 119.94 176.07 Z M 119.42 175.25 L 118.89 174.40 C 118.44 173.66 117.48 173.43 116.74 173.89 C 116.01 174.34 115.78 175.30 116.23 176.03 L 116.76 176.89 C 117.21 177.62 118.17 177.85 118.91 177.40 C 119.64 176.94 119.87 175.98 119.42 175.25 Z M 118.90 174.41 L 118.39 173.56 C 117.94 172.82 116.99 172.58 116.25 173.02 C 115.51 173.46 115.27 174.42 115.71 175.16 L 116.22 176.02 C 116.67 176.76 117.62 177.00 118.36 176.55 C 119.10 176.11 119.34 175.15 118.90 174.41 Z M 118.39 173.57 L 117.89 172.70 C 117.45 171.96 116.49 171.71 115.75 172.15 C 115.01 172.59 114.76 173.54 115.20 174.29 L 115.70 175.15 C 116.14 175.89 117.10 176.14 117.84 175.70 C 118.58 175.27 118.83 174.31 118.39 173.57 Z M 117.89 172.71 L 117.71 172.40 C 117.27 171.66 116.32 171.41 115.57 171.85 C 114.83 172.28 114.58 173.24 115.02 173.98 L 115.19 174.28 C 115.63 175.03 116.59 175.28 117.33 174.84 C 118.07 174.41 118.32 173.45 117.89 172.71 Z"
      fill="black"
      fill-rule="nonzero" /><path d="M 107.88 140.31 L 108.72 139.77 C 109.53 139.26 109.77 138.18 109.26 137.36 C 108.74 136.55 107.66 136.31 106.85 136.83 L 106.01 137.36 C 105.20 137.88 104.96 138.95 105.47 139.77 C 105.99 140.58 107.07 140.82 107.88 140.31 Z M 108.62 139.83 L 109.49 139.35 C 110.34 138.88 110.64 137.83 110.18 136.98 C 109.71 136.14 108.66 135.83 107.81 136.30 L 106.94 136.77 C 106.10 137.24 105.79 138.30 106.26 139.14 C 106.72 139.98 107.78 140.29 108.62 139.83 Z M 109.30 139.44 L 110.23 139.06 C 111.12 138.71 111.56 137.70 111.20 136.81 C 110.85 135.91 109.84 135.48 108.94 135.83 L 108.01 136.21 C 107.12 136.56 106.68 137.57 107.04 138.47 C 107.39 139.36 108.40 139.79 109.30 139.44 Z M 109.96 139.14 L 110.90 138.93 C 111.83 138.72 112.42 137.80 112.21 136.86 C 112.01 135.93 111.08 135.34 110.15 135.55 L 109.21 135.76 C 108.28 135.97 107.69 136.89 107.90 137.83 C 108.11 138.76 109.03 139.35 109.96 139.14 Z M 110.70 138.95 L 111.68 138.85 C 112.62 138.76 113.31 137.92 113.22 136.97 C 113.12 136.03 112.28 135.34 111.33 135.43 L 110.35 135.53 C 109.41 135.62 108.72 136.47 108.81 137.41 C 108.91 138.36 109.75 139.05 110.70 138.95 Z M 111.56 138.85 L 112.58 138.82 C 113.52 138.79 114.26 138.00 114.24 137.06 C 114.21 136.12 113.42 135.38 112.48 135.40 L 111.45 135.44 C 110.51 135.47 109.77 136.25 109.80 137.19 C 109.83 138.14 110.62 138.88 111.56 138.85 Z M 112.53 138.80 L 113.55 138.80 C 114.49 138.80 115.25 138.04 115.24 137.10 C 115.24 136.17 114.48 135.41 113.55 135.42 L 112.53 135.42 C 111.59 135.42 110.83 136.18 110.84 137.12 C 110.84 138.05 111.60 138.81 112.53 138.80 Z M 113.55 138.78 L 114.52 138.78 C 115.44 138.78 116.19 138.03 116.19 137.11 C 116.19 136.18 115.44 135.44 114.52 135.44 L 113.55 135.44 C 112.63 135.44 111.88 136.18 111.88 137.11 C 111.88 138.03 112.63 138.78 113.55 138.78 Z M 114.52 138.76 L 115.50 138.76 C 116.41 138.76 117.15 138.02 117.15 137.11 C 117.15 136.20 116.41 135.46 115.50 135.46 L 114.52 135.46 C 113.60 135.46 112.87 136.20 112.87 137.11 C 112.87 138.02 113.60 138.76 114.52 138.76 Z M 115.50 138.73 L 116.52 138.73 C 117.42 138.73 118.15 138.00 118.15 137.11 C 118.15 136.21 117.42 135.48 116.52 135.48 L 115.50 135.48 C 114.60 135.48 113.88 136.21 113.88 137.11 C 113.88 138.00 114.60 138.73 115.50 138.73 Z M 116.52 138.71 L 117.54 138.71 C 118.42 138.71 119.14 137.99 119.14 137.11 C 119.14 136.22 118.42 135.50 117.54 135.50 L 116.52 135.50 C 115.64 135.50 114.92 136.22 114.92 137.11 C 114.92 137.99 115.64 138.71 116.52 138.71 Z M 117.54 138.70 L 118.51 138.70 C 119.39 138.70 120.10 137.98 120.10 137.10 C 120.10 136.23 119.39 135.51 118.51 135.52 L 117.54 135.52 C 116.66 135.52 115.95 136.23 115.95 137.11 C 115.95 137.99 116.66 138.70 117.54 138.70 Z M 118.52 138.69 L 119.52 138.68 C 120.39 138.68 121.10 137.97 121.09 137.09 C 121.09 136.22 120.38 135.51 119.50 135.52 L 118.50 135.52 C 117.63 135.53 116.92 136.24 116.93 137.12 C 116.93 137.99 117.64 138.69 118.52 138.69 Z M 119.53 138.68 L 120.55 138.66 C 121.42 138.65 122.12 137.94 122.11 137.07 C 122.10 136.20 121.38 135.50 120.51 135.51 L 119.49 135.53 C 118.62 135.54 117.93 136.25 117.94 137.12 C 117.95 137.99 118.66 138.69 119.53 138.68 Z M 120.57 138.65 L 121.59 138.63 C 122.46 138.61 123.14 137.90 123.12 137.03 C 123.10 136.17 122.39 135.48 121.52 135.50 L 120.50 135.52 C 119.63 135.54 118.95 136.26 118.97 137.12 C 118.98 137.99 119.70 138.67 120.57 138.65 Z M 121.61 138.63 L 122.64 138.59 C 123.51 138.56 124.18 137.84 124.15 136.98 C 124.12 136.12 123.40 135.44 122.54 135.47 L 121.50 135.50 C 120.64 135.53 119.97 136.26 120.00 137.12 C 120.03 137.98 120.75 138.66 121.61 138.63 Z M 122.66 138.59 L 123.68 138.55 C 124.54 138.51 125.21 137.78 125.17 136.92 C 125.14 136.06 124.41 135.39 123.55 135.43 L 122.53 135.47 C 121.66 135.51 121.00 136.24 121.03 137.10 C 121.07 137.96 121.80 138.63 122.66 138.59 Z M 123.68 138.55 L 124.68 138.50 C 125.54 138.46 126.21 137.73 126.17 136.87 C 126.13 136.01 125.40 135.34 124.54 135.38 L 123.54 135.43 C 122.68 135.47 122.01 136.20 122.05 137.06 C 122.09 137.92 122.82 138.59 123.68 138.55 Z M 124.68 138.50 L 125.65 138.46 C 126.51 138.43 127.18 137.70 127.14 136.84 C 127.11 135.98 126.38 135.31 125.52 135.34 L 124.55 135.38 C 123.69 135.42 123.02 136.15 123.05 137.01 C 123.09 137.87 123.82 138.54 124.68 138.50 Z M 125.63 138.46 L 126.63 138.43 C 127.50 138.40 128.17 137.68 128.14 136.82 C 128.12 135.96 127.40 135.28 126.54 135.31 L 125.53 135.34 C 124.67 135.37 124.00 136.09 124.02 136.95 C 124.05 137.81 124.77 138.49 125.63 138.46 Z M 126.61 138.43 L 127.64 138.41 C 128.50 138.40 129.18 137.69 129.17 136.82 C 129.15 135.96 128.44 135.28 127.58 135.29 L 126.56 135.31 C 125.69 135.33 125.01 136.04 125.02 136.90 C 125.04 137.76 125.75 138.45 126.61 138.43 Z M 127.62 138.41 L 128.61 138.41 C 129.47 138.40 130.16 137.69 130.16 136.83 C 130.15 135.97 129.45 135.28 128.58 135.28 L 127.59 135.29 C 126.73 135.30 126.04 136.00 126.05 136.87 C 126.05 137.73 126.76 138.42 127.62 138.41 Z M 128.60 138.41 L 129.57 138.40 C 130.43 138.40 131.13 137.70 131.13 136.84 C 131.13 135.98 130.43 135.28 129.56 135.28 L 128.59 135.28 C 127.73 135.29 127.03 135.99 127.04 136.85 C 127.04 137.71 127.74 138.41 128.60 138.41 Z M 129.57 138.40 L 129.89 138.40 C 130.75 138.40 131.45 137.70 131.45 136.84 C 131.45 135.98 130.75 135.28 129.89 135.28 L 129.57 135.28 C 128.70 135.28 128.01 135.98 128.01 136.84 C 128.01 137.70 128.71 138.40 129.57 138.40 Z"
      fill="black"
      fill-rule="nonzero" /><path d="M 109.01 149.78 L 108.47 150.91 C 108.07 151.75 108.42 152.75 109.25 153.15 C 110.09 153.56 111.10 153.20 111.50 152.37 L 112.04 151.24 C 112.45 150.40 112.09 149.39 111.26 148.99 C 110.42 148.59 109.41 148.94 109.01 149.78 Z M 108.39 151.09 L 108.06 152.05 C 107.75 152.93 108.22 153.89 109.10 154.20 C 109.98 154.50 110.94 154.03 111.25 153.15 L 111.58 152.19 C 111.88 151.31 111.41 150.35 110.53 150.04 C 109.65 149.74 108.69 150.21 108.39 151.09 Z M 107.98 152.84 L 108.06 153.47 C 108.20 154.40 109.05 155.04 109.98 154.91 C 110.90 154.78 111.55 153.92 111.41 153.00 L 111.33 152.37 C 111.20 151.44 110.34 150.80 109.41 150.93 C 108.49 151.06 107.85 151.91 107.98 152.84 Z M 109.23 154.85 L 109.84 155.04 C 110.74 155.32 111.69 154.82 111.96 153.93 C 112.24 153.04 111.75 152.09 110.85 151.81 L 110.25 151.62 C 109.35 151.34 108.40 151.84 108.12 152.73 C 107.84 153.62 108.34 154.57 109.23 154.85 Z M 110.57 155.10 L 111.58 154.97 C 112.50 154.84 113.15 153.99 113.03 153.07 C 112.90 152.14 112.05 151.49 111.13 151.62 L 110.12 151.75 C 109.20 151.87 108.55 152.72 108.67 153.65 C 108.80 154.58 109.65 155.23 110.57 155.10 Z M 111.80 154.92 L 113.02 154.58 C 113.92 154.34 114.45 153.41 114.20 152.51 C 113.95 151.61 113.02 151.08 112.12 151.33 L 110.90 151.66 C 110.00 151.91 109.47 152.84 109.72 153.74 C 109.97 154.64 110.90 155.17 111.80 154.92 Z M 113.10 154.55 L 114.03 154.24 C 114.91 153.96 115.39 153.01 115.10 152.12 C 114.82 151.24 113.87 150.76 112.98 151.05 L 112.05 151.36 C 111.17 151.65 110.69 152.60 110.98 153.48 C 111.26 154.36 112.21 154.84 113.10 154.55 Z M 114.06 154.22 L 114.98 153.89 C 115.84 153.59 116.30 152.64 115.99 151.78 C 115.69 150.91 114.74 150.45 113.88 150.76 L 112.96 151.08 C 112.09 151.38 111.64 152.33 111.94 153.20 C 112.24 154.06 113.19 154.52 114.06 154.22 Z M 114.99 153.87 L 115.93 153.53 C 116.78 153.22 117.22 152.28 116.92 151.42 C 116.61 150.57 115.66 150.13 114.81 150.44 L 113.87 150.78 C 113.01 151.09 112.57 152.03 112.88 152.89 C 113.19 153.74 114.13 154.18 114.99 153.87 Z M 115.92 153.51 L 116.90 153.16 C 117.74 152.85 118.18 151.92 117.87 151.08 C 117.57 150.23 116.63 149.80 115.79 150.10 L 114.82 150.46 C 113.97 150.76 113.53 151.69 113.84 152.54 C 114.15 153.38 115.08 153.82 115.92 153.51 Z M 116.88 153.15 L 117.79 152.83 C 118.63 152.53 119.07 151.61 118.77 150.77 C 118.48 149.93 117.56 149.49 116.72 149.79 L 115.81 150.11 C 114.97 150.41 114.53 151.33 114.83 152.17 C 115.12 153.01 116.04 153.45 116.88 153.15 Z M 117.77 152.82 L 118.60 152.54 C 119.44 152.25 119.88 151.34 119.59 150.50 C 119.31 149.67 118.40 149.22 117.56 149.51 L 116.73 149.80 C 115.90 150.08 115.45 150.99 115.74 151.83 C 116.03 152.66 116.94 153.11 117.77 152.82 Z M 118.59 152.53 L 119.46 152.24 C 120.30 151.96 120.74 151.05 120.46 150.22 C 120.18 149.39 119.28 148.94 118.44 149.22 L 117.57 149.52 C 116.74 149.80 116.29 150.70 116.57 151.53 C 116.85 152.37 117.76 152.81 118.59 152.53 Z M 119.46 152.23 L 120.39 151.92 C 121.22 151.64 121.67 150.74 121.39 149.91 C 121.12 149.08 120.22 148.64 119.39 148.91 L 118.45 149.23 C 117.62 149.50 117.17 150.40 117.45 151.23 C 117.73 152.06 118.63 152.51 119.46 152.23 Z M 120.39 151.91 L 121.40 151.57 C 122.23 151.30 122.68 150.41 122.40 149.58 C 122.12 148.75 121.23 148.31 120.40 148.58 L 119.39 148.92 C 118.56 149.20 118.12 150.09 118.39 150.92 C 118.67 151.74 119.56 152.19 120.39 151.91 Z M 121.40 151.57 L 122.51 151.20 C 123.33 150.92 123.77 150.03 123.50 149.21 C 123.22 148.39 122.33 147.94 121.51 148.22 L 120.40 148.59 C 119.58 148.87 119.14 149.75 119.41 150.58 C 119.69 151.40 120.58 151.84 121.40 151.57 Z M 122.51 151.19 L 123.49 150.86 C 124.31 150.58 124.75 149.70 124.48 148.88 C 124.20 148.06 123.31 147.62 122.49 147.89 L 121.51 148.22 C 120.69 148.50 120.25 149.39 120.53 150.21 C 120.80 151.03 121.69 151.47 122.51 151.19 Z M 123.49 150.86 L 124.47 150.53 C 125.29 150.25 125.72 149.36 125.45 148.54 C 125.17 147.73 124.28 147.29 123.46 147.57 L 122.49 147.90 C 121.67 148.17 121.23 149.06 121.51 149.88 C 121.79 150.70 122.68 151.14 123.49 150.86 Z M 124.47 150.53 L 125.47 150.19 C 126.29 149.91 126.72 149.02 126.45 148.20 C 126.17 147.39 125.28 146.95 124.46 147.23 L 123.46 147.57 C 122.64 147.84 122.21 148.73 122.49 149.55 C 122.76 150.37 123.65 150.80 124.47 150.53 Z M 125.47 150.19 L 126.47 149.85 C 127.29 149.57 127.72 148.68 127.45 147.86 C 127.17 147.05 126.28 146.61 125.46 146.89 L 124.46 147.23 C 123.64 147.51 123.21 148.39 123.49 149.21 C 123.76 150.03 124.65 150.46 125.47 150.19 Z M 126.47 149.85 L 127.45 149.51 C 128.27 149.23 128.71 148.35 128.43 147.53 C 128.15 146.71 127.26 146.27 126.45 146.55 L 125.46 146.89 C 124.65 147.16 124.21 148.05 124.49 148.87 C 124.77 149.69 125.65 150.12 126.47 149.85 Z M 127.45 149.51 L 128.39 149.19 C 129.21 148.92 129.65 148.03 129.37 147.21 C 129.09 146.39 128.21 145.96 127.39 146.23 L 126.45 146.55 C 125.63 146.83 125.19 147.72 125.47 148.53 C 125.75 149.35 126.63 149.79 127.45 149.51 Z M 128.39 149.19 L 129.27 148.90 C 130.08 148.62 130.52 147.74 130.25 146.92 C 129.97 146.10 129.09 145.66 128.27 145.94 L 127.39 146.23 C 126.58 146.51 126.14 147.39 126.41 148.21 C 126.69 149.03 127.57 149.47 128.39 149.19 Z M 129.26 148.90 L 130.28 148.56 C 131.10 148.29 131.54 147.40 131.27 146.58 C 131.00 145.77 130.11 145.32 129.30 145.60 L 128.28 145.94 C 127.46 146.21 127.02 147.09 127.29 147.91 C 127.56 148.73 128.44 149.17 129.26 148.90 Z M 130.27 148.56 L 131.41 148.19 C 132.23 147.92 132.68 147.04 132.41 146.22 C 132.14 145.40 131.26 144.95 130.44 145.22 L 129.31 145.59 C 128.49 145.86 128.04 146.74 128.31 147.56 C 128.57 148.38 129.45 148.83 130.27 148.56 Z M 131.40 148.19 L 132.33 147.90 C 133.15 147.64 133.60 146.76 133.34 145.94 C 133.08 145.12 132.21 144.66 131.38 144.92 L 130.45 145.22 C 129.63 145.48 129.18 146.36 129.44 147.18 C 129.70 148.00 130.58 148.45 131.40 148.19 Z M 132.32 147.90 L 133.11 147.66 C 133.94 147.40 134.40 146.53 134.14 145.70 C 133.89 144.88 133.02 144.42 132.19 144.67 L 131.40 144.92 C 130.57 145.17 130.11 146.05 130.37 146.87 C 130.62 147.70 131.49 148.16 132.32 147.90 Z M 133.11 147.66 L 133.66 147.49 C 134.49 147.24 134.95 146.37 134.70 145.54 C 134.45 144.72 133.57 144.25 132.75 144.50 L 132.20 144.67 C 131.37 144.92 130.91 145.80 131.16 146.62 C 131.41 147.44 132.28 147.91 133.11 147.66 Z"
      fill="black"
      fill-rule="nonzero" /><path d="M 144.93 124.16 L 144.18 125.20 C 143.62 125.97 143.80 127.06 144.57 127.61 C 145.34 128.17 146.43 128.00 146.98 127.22 L 147.74 126.18 C 148.30 125.41 148.12 124.32 147.35 123.77 C 146.57 123.21 145.49 123.38 144.93 124.16 Z M 144.12 125.27 L 143.50 126.22 C 142.98 127.03 143.21 128.11 144.02 128.63 C 144.83 129.15 145.91 128.92 146.43 128.11 L 147.05 127.15 C 147.57 126.35 147.33 125.27 146.52 124.75 C 145.72 124.23 144.64 124.46 144.12 125.27 Z M 143.36 126.47 L 143.02 127.25 C 142.63 128.13 143.03 129.17 143.92 129.56 C 144.81 129.94 145.84 129.54 146.23 128.65 L 146.57 127.87 C 146.96 126.98 146.56 125.95 145.67 125.56 C 144.78 125.17 143.75 125.58 143.36 126.47 Z M 142.88 128.22 L 142.96 128.75 C 143.11 129.72 144.01 130.38 144.98 130.23 C 145.94 130.08 146.60 129.18 146.45 128.22 L 146.37 127.68 C 146.22 126.72 145.32 126.06 144.36 126.21 C 143.39 126.35 142.73 127.25 142.88 128.22 Z M 144.15 130.17 L 144.83 130.39 C 145.76 130.70 146.76 130.19 147.06 129.26 C 147.37 128.33 146.87 127.33 145.94 127.03 L 145.26 126.80 C 144.33 126.50 143.33 127.00 143.03 127.93 C 142.72 128.86 143.22 129.86 144.15 130.17 Z M 145.51 130.48 L 146.58 130.40 C 147.56 130.33 148.29 129.48 148.23 128.51 C 148.16 127.53 147.31 126.80 146.33 126.86 L 145.26 126.94 C 144.28 127.01 143.55 127.86 143.62 128.83 C 143.69 129.81 144.53 130.54 145.51 130.48 Z M 146.81 130.37 L 148.02 130.12 C 148.98 129.93 149.59 128.99 149.40 128.03 C 149.20 127.07 148.26 126.45 147.31 126.65 L 146.10 126.90 C 145.14 127.09 144.53 128.03 144.72 128.99 C 144.92 129.95 145.85 130.56 146.81 130.37 Z M 148.12 130.09 L 149.03 129.85 C 149.98 129.60 150.54 128.63 150.28 127.69 C 150.03 126.74 149.06 126.18 148.12 126.43 L 147.20 126.68 C 146.26 126.93 145.70 127.90 145.95 128.84 C 146.20 129.79 147.17 130.35 148.12 130.09 Z M 149.09 129.82 L 149.99 129.55 C 150.92 129.27 151.45 128.28 151.17 127.35 C 150.88 126.42 149.90 125.90 148.97 126.18 L 148.06 126.46 C 147.13 126.74 146.61 127.72 146.89 128.65 C 147.18 129.58 148.16 130.11 149.09 129.82 Z M 150.02 129.53 L 150.97 129.22 C 151.89 128.93 152.40 127.94 152.10 127.02 C 151.80 126.10 150.81 125.59 149.89 125.89 L 148.94 126.20 C 148.02 126.50 147.52 127.48 147.82 128.40 C 148.12 129.32 149.10 129.83 150.02 129.53 Z M 150.97 129.21 L 152.02 128.87 C 152.93 128.58 153.43 127.60 153.13 126.68 C 152.84 125.77 151.86 125.27 150.94 125.56 L 149.90 125.90 C 148.98 126.20 148.48 127.18 148.78 128.10 C 149.07 129.01 150.06 129.51 150.97 129.21 Z M 152.00 128.87 L 152.90 128.59 C 153.82 128.30 154.32 127.33 154.04 126.41 C 153.75 125.50 152.78 124.99 151.87 125.28 L 150.96 125.57 C 150.05 125.85 149.54 126.83 149.83 127.74 C 150.11 128.65 151.09 129.16 152.00 128.87 Z M 152.89 128.58 L 153.84 128.29 C 154.76 128.01 155.27 127.05 154.99 126.14 C 154.71 125.23 153.75 124.71 152.84 124.99 L 151.88 125.29 C 150.97 125.56 150.46 126.53 150.74 127.44 C 151.02 128.35 151.98 128.86 152.89 128.58 Z M 153.83 128.28 L 154.82 127.99 C 155.73 127.72 156.24 126.76 155.97 125.85 C 155.70 124.95 154.74 124.43 153.84 124.70 L 152.85 125.00 C 151.94 125.27 151.43 126.23 151.70 127.13 C 151.97 128.04 152.92 128.56 153.83 128.28 Z M 154.81 127.98 L 155.80 127.69 C 156.71 127.43 157.22 126.48 156.96 125.57 C 156.69 124.67 155.74 124.15 154.84 124.42 L 153.85 124.71 C 152.94 124.97 152.43 125.92 152.69 126.83 C 152.96 127.73 153.91 128.25 154.81 127.98 Z M 155.79 127.69 L 156.76 127.41 C 157.66 127.15 158.18 126.21 157.92 125.31 C 157.66 124.40 156.72 123.88 155.82 124.14 L 154.85 124.42 C 153.95 124.68 153.43 125.62 153.69 126.53 C 153.95 127.43 154.89 127.95 155.79 127.69 Z M 156.75 127.40 L 157.73 127.12 C 158.62 126.87 159.14 125.94 158.89 125.04 C 158.63 124.14 157.70 123.62 156.81 123.88 L 155.83 124.15 C 154.93 124.41 154.41 125.34 154.66 126.24 C 154.92 127.13 155.85 127.65 156.75 127.40 Z M 157.71 127.10 L 158.68 126.84 C 159.56 126.59 160.08 125.67 159.83 124.78 C 159.59 123.90 158.67 123.38 157.78 123.62 L 156.82 123.89 C 155.93 124.14 155.41 125.06 155.66 125.95 C 155.91 126.83 156.83 127.35 157.71 127.10 Z M 158.67 126.82 L 159.60 126.56 C 160.48 126.32 160.99 125.41 160.75 124.53 C 160.51 123.65 159.60 123.14 158.72 123.38 L 157.79 123.64 C 156.91 123.89 156.40 124.79 156.64 125.67 C 156.88 126.55 157.79 127.06 158.67 126.82 Z M 159.60 126.54 L 160.54 126.28 C 161.41 126.03 161.91 125.14 161.67 124.27 C 161.43 123.41 160.53 122.90 159.67 123.14 L 158.73 123.40 C 157.86 123.65 157.36 124.54 157.60 125.41 C 157.84 126.27 158.74 126.78 159.60 126.54 Z M 160.54 126.25 L 161.52 125.98 C 162.37 125.73 162.87 124.85 162.63 123.99 C 162.39 123.14 161.50 122.64 160.64 122.89 L 159.67 123.16 C 158.81 123.41 158.32 124.29 158.56 125.15 C 158.80 126.00 159.69 126.50 160.54 126.25 Z M 161.53 125.96 L 162.48 125.68 C 163.33 125.44 163.82 124.55 163.57 123.71 C 163.33 122.87 162.44 122.38 161.60 122.62 L 160.64 122.90 C 159.79 123.15 159.31 124.03 159.55 124.87 C 159.80 125.72 160.68 126.21 161.53 125.96 Z M 162.49 125.68 L 163.47 125.39 C 164.31 125.14 164.80 124.26 164.55 123.42 C 164.30 122.58 163.42 122.10 162.58 122.34 L 161.60 122.63 C 160.76 122.88 160.27 123.76 160.52 124.60 C 160.77 125.44 161.65 125.92 162.49 125.68 Z M 163.47 125.38 L 164.46 125.09 C 165.30 124.85 165.78 123.97 165.54 123.13 C 165.30 122.30 164.42 121.81 163.58 122.06 L 162.59 122.35 C 161.75 122.59 161.27 123.47 161.51 124.31 C 161.75 125.14 162.63 125.63 163.47 125.38 Z M 164.46 125.09 L 165.43 124.81 C 166.27 124.57 166.75 123.70 166.51 122.86 C 166.27 122.03 165.40 121.54 164.56 121.78 L 163.59 122.06 C 162.75 122.30 162.27 123.17 162.51 124.01 C 162.75 124.84 163.62 125.33 164.46 125.09 Z M 165.42 124.81 L 166.34 124.55 C 167.18 124.32 167.67 123.45 167.44 122.62 C 167.20 121.78 166.34 121.30 165.51 121.53 L 164.58 121.78 C 163.74 122.02 163.25 122.88 163.49 123.71 C 163.72 124.55 164.58 125.04 165.42 124.81 Z M 166.32 124.55 L 167.36 124.28 C 168.20 124.06 168.70 123.21 168.48 122.37 C 168.27 121.54 167.41 121.04 166.58 121.25 L 165.53 121.52 C 164.69 121.74 164.19 122.60 164.41 123.43 C 164.63 124.27 165.48 124.77 166.32 124.55 Z M 167.33 124.29 L 168.35 124.04 C 169.19 123.85 169.71 123.00 169.51 122.16 C 169.32 121.32 168.47 120.80 167.63 121.00 L 166.61 121.25 C 165.77 121.45 165.25 122.29 165.45 123.13 C 165.65 123.97 166.49 124.49 167.33 124.29 Z M 168.32 124.05 L 169.26 123.85 C 170.10 123.67 170.63 122.84 170.45 121.99 C 170.27 121.15 169.44 120.61 168.60 120.80 L 167.66 121.00 C 166.82 121.18 166.29 122.01 166.47 122.85 C 166.65 123.70 167.48 124.23 168.32 124.05 Z M 169.24 123.85 L 170.12 123.67 C 170.96 123.50 171.51 122.68 171.34 121.83 C 171.17 120.99 170.34 120.44 169.50 120.61 L 168.61 120.79 C 167.77 120.96 167.22 121.79 167.40 122.63 C 167.57 123.48 168.39 124.02 169.24 123.85 Z M 170.11 123.67 L 170.25 123.65 C 171.09 123.48 171.64 122.66 171.47 121.81 C 171.30 120.97 170.48 120.42 169.63 120.59 L 169.50 120.61 C 168.66 120.78 168.11 121.60 168.28 122.45 C 168.45 123.30 169.27 123.84 170.11 123.67 Z"
      fill="black"
      fill-rule="nonzero" /><path d="M 146.56 138.75 L 145.51 139.57 C 144.73 140.18 144.59 141.31 145.20 142.09 C 145.81 142.86 146.93 143.00 147.71 142.39 L 148.76 141.57 C 149.54 140.96 149.68 139.84 149.07 139.06 C 148.46 138.28 147.34 138.14 146.56 138.75 Z M 145.49 139.60 L 144.53 140.37 C 143.77 140.99 143.65 142.11 144.27 142.88 C 144.89 143.64 146.01 143.76 146.78 143.14 L 147.73 142.37 C 148.49 141.75 148.61 140.63 147.99 139.86 C 147.37 139.10 146.25 138.98 145.49 139.60 Z M 144.48 140.43 L 143.72 141.09 C 142.99 141.74 142.92 142.86 143.57 143.60 C 144.22 144.33 145.34 144.40 146.08 143.75 L 146.83 143.08 C 147.57 142.43 147.63 141.31 146.98 140.58 C 146.33 139.84 145.21 139.78 144.48 140.43 Z M 143.58 141.25 L 143.13 141.76 C 142.48 142.49 142.54 143.60 143.27 144.25 C 144.00 144.90 145.12 144.84 145.77 144.11 L 146.22 143.60 C 146.87 142.87 146.81 141.75 146.08 141.10 C 145.35 140.45 144.23 140.52 143.58 141.25 Z M 142.69 142.95 L 142.69 143.30 C 142.70 144.28 143.50 145.06 144.47 145.05 C 145.44 145.04 146.22 144.24 146.21 143.27 L 146.21 142.91 C 146.20 141.94 145.40 141.16 144.43 141.17 C 143.46 141.18 142.68 141.98 142.69 142.95 Z M 144.47 145.04 L 145.24 145.04 C 146.21 145.03 146.99 144.23 146.99 143.26 C 146.98 142.29 146.18 141.51 145.21 141.52 L 144.44 141.52 C 143.46 141.53 142.68 142.33 142.69 143.30 C 142.70 144.27 143.50 145.05 144.47 145.04 Z M 145.67 144.98 L 146.90 144.66 C 147.84 144.41 148.40 143.45 148.15 142.51 C 147.90 141.57 146.94 141.00 146.00 141.25 L 144.78 141.58 C 143.84 141.82 143.28 142.79 143.52 143.73 C 143.77 144.67 144.73 145.23 145.67 144.98 Z M 147.05 144.60 L 148.10 144.22 C 149.01 143.89 149.48 142.88 149.15 141.97 C 148.81 141.06 147.80 140.59 146.89 140.92 L 145.85 141.30 C 144.93 141.64 144.47 142.65 144.80 143.56 C 145.13 144.47 146.14 144.94 147.05 144.60 Z M 148.19 144.18 L 149.09 143.78 C 149.98 143.40 150.38 142.37 150.00 141.48 C 149.61 140.60 148.58 140.19 147.70 140.58 L 146.80 140.97 C 145.91 141.35 145.51 142.38 145.89 143.27 C 146.28 144.16 147.31 144.56 148.19 144.18 Z M 149.15 143.75 L 150.04 143.31 C 150.91 142.90 151.27 141.86 150.85 140.99 C 150.43 140.13 149.39 139.76 148.53 140.18 L 147.64 140.61 C 146.77 141.03 146.41 142.07 146.83 142.94 C 147.25 143.80 148.29 144.16 149.15 143.75 Z M 150.07 143.29 L 150.98 142.82 C 151.83 142.39 152.17 141.35 151.74 140.50 C 151.30 139.64 150.26 139.31 149.41 139.74 L 148.50 140.21 C 147.65 140.64 147.31 141.69 147.75 142.54 C 148.18 143.39 149.22 143.72 150.07 143.29 Z M 150.99 142.81 L 151.84 142.37 C 152.69 141.93 153.02 140.89 152.58 140.05 C 152.14 139.20 151.10 138.87 150.26 139.31 L 149.40 139.75 C 148.56 140.19 148.23 141.23 148.67 142.08 C 149.10 142.92 150.14 143.25 150.99 142.81 Z M 151.84 142.36 L 152.69 141.92 C 153.54 141.49 153.87 140.45 153.43 139.61 C 153.00 138.77 151.96 138.44 151.12 138.88 L 150.27 139.32 C 149.42 139.75 149.09 140.79 149.53 141.63 C 149.96 142.47 151.00 142.80 151.84 142.36 Z M 152.69 141.92 L 153.58 141.46 C 154.42 141.03 154.75 140.00 154.32 139.16 C 153.89 138.32 152.86 137.99 152.02 138.42 L 151.13 138.88 C 150.29 139.31 149.96 140.34 150.39 141.18 C 150.82 142.02 151.85 142.35 152.69 141.92 Z M 153.57 141.46 L 154.49 140.99 C 155.33 140.56 155.66 139.54 155.24 138.70 C 154.81 137.87 153.79 137.53 152.95 137.96 L 152.03 138.43 C 151.19 138.85 150.86 139.87 151.29 140.71 C 151.71 141.55 152.73 141.88 153.57 141.46 Z M 154.48 140.98 L 155.41 140.52 C 156.25 140.10 156.58 139.08 156.16 138.25 C 155.75 137.41 154.73 137.08 153.89 137.49 L 152.96 137.96 C 152.13 138.38 151.79 139.40 152.21 140.23 C 152.63 141.07 153.65 141.40 154.48 140.98 Z M 155.40 140.51 L 156.27 140.08 C 157.10 139.67 157.44 138.66 157.03 137.83 C 156.61 137.00 155.60 136.66 154.77 137.07 L 153.90 137.50 C 153.07 137.91 152.73 138.92 153.15 139.75 C 153.56 140.59 154.57 140.93 155.40 140.51 Z M 156.26 140.08 L 157.14 139.65 C 157.97 139.24 158.31 138.23 157.91 137.40 C 157.50 136.57 156.49 136.23 155.66 136.64 L 154.78 137.07 C 153.95 137.48 153.60 138.48 154.01 139.32 C 154.42 140.15 155.43 140.49 156.26 140.08 Z M 157.13 139.64 L 158.03 139.20 C 158.86 138.80 159.21 137.80 158.80 136.97 C 158.40 136.14 157.40 135.80 156.57 136.20 L 155.67 136.64 C 154.84 137.05 154.50 138.04 154.90 138.87 C 155.30 139.70 156.30 140.05 157.13 139.64 Z M 158.03 139.20 L 158.94 138.75 C 159.77 138.36 160.12 137.36 159.72 136.54 C 159.32 135.71 158.32 135.36 157.50 135.76 L 156.58 136.21 C 155.75 136.61 155.41 137.60 155.81 138.43 C 156.21 139.25 157.20 139.60 158.03 139.20 Z M 158.94 138.75 L 159.87 138.30 C 160.70 137.90 161.04 136.92 160.65 136.09 C 160.25 135.27 159.26 134.92 158.44 135.32 L 157.50 135.77 C 156.68 136.16 156.33 137.15 156.73 137.98 C 157.13 138.80 158.11 139.15 158.94 138.75 Z M 159.87 138.30 L 160.82 137.84 C 161.64 137.45 161.98 136.46 161.59 135.64 C 161.20 134.82 160.21 134.48 159.39 134.87 L 158.44 135.32 C 157.62 135.72 157.28 136.70 157.67 137.52 C 158.06 138.34 159.05 138.69 159.87 138.30 Z M 160.81 137.84 L 161.76 137.38 C 162.57 136.99 162.92 136.01 162.53 135.20 C 162.14 134.38 161.16 134.03 160.34 134.42 L 159.40 134.87 C 158.58 135.26 158.23 136.24 158.62 137.06 C 159.01 137.88 159.99 138.23 160.81 137.84 Z M 161.75 137.38 L 162.68 136.94 C 163.49 136.55 163.84 135.57 163.45 134.76 C 163.06 133.95 162.08 133.60 161.27 133.99 L 160.35 134.43 C 159.53 134.82 159.19 135.79 159.58 136.61 C 159.96 137.42 160.94 137.77 161.75 137.38 Z M 162.68 136.93 L 163.56 136.51 C 164.37 136.12 164.71 135.15 164.32 134.34 C 163.93 133.53 162.96 133.19 162.15 133.57 L 161.27 134.00 C 160.46 134.38 160.12 135.35 160.51 136.17 C 160.89 136.98 161.87 137.32 162.68 136.93 Z M 163.56 136.50 L 164.38 136.11 C 165.18 135.72 165.52 134.75 165.14 133.94 C 164.75 133.14 163.78 132.80 162.97 133.19 L 162.15 133.58 C 161.35 133.97 161.01 134.94 161.40 135.74 C 161.78 136.55 162.75 136.89 163.56 136.50 Z M 164.38 136.10 L 165.39 135.60 C 166.19 135.22 166.52 134.25 166.14 133.45 C 165.75 132.65 164.78 132.32 163.98 132.71 L 162.97 133.20 C 162.17 133.59 161.84 134.55 162.23 135.35 C 162.62 136.15 163.58 136.48 164.38 136.10 Z M 165.39 135.60 L 166.31 135.15 C 167.10 134.76 167.43 133.80 167.04 133.01 C 166.65 132.21 165.70 131.88 164.90 132.27 L 163.98 132.72 C 163.19 133.10 162.86 134.06 163.25 134.86 C 163.63 135.65 164.59 135.98 165.39 135.60 Z M 166.30 135.14 L 167.13 134.74 C 167.92 134.36 168.25 133.40 167.87 132.61 C 167.49 131.82 166.54 131.49 165.75 131.87 L 164.91 132.27 C 164.12 132.66 163.79 133.61 164.17 134.40 C 164.55 135.19 165.50 135.52 166.30 135.14 Z M 167.11 134.74 L 167.94 134.35 C 168.74 133.98 169.08 133.03 168.71 132.24 C 168.34 131.45 167.39 131.11 166.60 131.48 L 165.77 131.87 C 164.97 132.24 164.63 133.18 165.00 133.98 C 165.38 134.77 166.32 135.11 167.11 134.74 Z M 167.92 134.35 L 168.84 133.94 C 169.63 133.58 169.99 132.65 169.63 131.85 C 169.27 131.06 168.34 130.70 167.54 131.06 L 166.62 131.48 C 165.83 131.83 165.48 132.77 165.84 133.56 C 166.19 134.36 167.13 134.71 167.92 134.35 Z M 168.83 133.94 L 169.74 133.54 C 170.53 133.18 170.89 132.25 170.54 131.46 C 170.18 130.66 169.25 130.31 168.46 130.66 L 167.55 131.06 C 166.76 131.41 166.40 132.34 166.75 133.14 C 167.10 133.93 168.03 134.29 168.83 133.94 Z M 169.74 133.53 L 170.61 133.14 C 171.40 132.79 171.75 131.86 171.40 131.07 C 171.04 130.27 170.11 129.92 169.32 130.28 L 168.46 130.66 C 167.66 131.02 167.31 131.95 167.67 132.74 C 168.02 133.53 168.95 133.88 169.74 133.53 Z M 170.62 133.13 L 171.36 132.79 C 172.14 132.43 172.49 131.50 172.13 130.71 C 171.76 129.93 170.83 129.58 170.05 129.95 L 169.31 130.28 C 168.52 130.65 168.18 131.58 168.54 132.36 C 168.90 133.15 169.83 133.50 170.62 133.13 Z M 171.36 132.79 L 172.19 132.40 C 172.98 132.04 173.32 131.11 172.95 130.32 C 172.59 129.54 171.65 129.20 170.87 129.56 L 170.04 129.95 C 169.26 130.31 168.92 131.25 169.28 132.03 C 169.64 132.81 170.58 133.16 171.36 132.79 Z M 172.19 132.40 L 173.19 131.94 C 173.97 131.57 174.31 130.64 173.95 129.86 C 173.58 129.08 172.65 128.74 171.87 129.10 L 170.87 129.56 C 170.09 129.93 169.75 130.86 170.11 131.64 C 170.48 132.43 171.41 132.77 172.19 132.40 Z M 173.19 131.94 L 174.26 131.44 C 175.04 131.08 175.38 130.15 175.02 129.37 C 174.66 128.59 173.73 128.24 172.95 128.61 L 171.87 129.10 C 171.09 129.46 170.75 130.39 171.11 131.17 C 171.47 131.96 172.40 132.30 173.19 131.94 Z M 174.25 131.45 L 175.11 131.05 C 175.90 130.69 176.24 129.76 175.88 128.98 C 175.52 128.19 174.59 127.85 173.81 128.21 L 172.95 128.61 C 172.16 128.97 171.82 129.89 172.18 130.68 C 172.54 131.46 173.47 131.81 174.25 131.45 Z M 175.11 131.05 L 176.04 130.62 C 176.82 130.27 177.17 129.34 176.81 128.55 C 176.45 127.77 175.52 127.42 174.74 127.78 L 173.81 128.21 C 173.03 128.57 172.68 129.50 173.04 130.28 C 173.40 131.07 174.33 131.41 175.11 131.05 Z M 176.04 130.62 L 177.00 130.18 C 177.78 129.82 178.13 128.90 177.77 128.11 C 177.41 127.33 176.48 126.98 175.70 127.34 L 174.74 127.79 C 173.95 128.15 173.61 129.07 173.97 129.86 C 174.33 130.64 175.26 130.98 176.04 130.62 Z M 177.00 130.18 L 177.96 129.74 C 178.74 129.38 179.09 128.45 178.72 127.67 C 178.36 126.88 177.44 126.54 176.65 126.90 L 175.69 127.35 C 174.91 127.71 174.57 128.64 174.93 129.42 C 175.29 130.20 176.22 130.54 177.00 130.18 Z M 177.96 129.74 L 178.89 129.31 C 179.67 128.94 180.01 128.02 179.65 127.23 C 179.28 126.45 178.36 126.11 177.57 126.48 L 176.65 126.91 C 175.87 127.27 175.53 128.20 175.89 128.98 C 176.25 129.76 177.18 130.10 177.96 129.74 Z M 178.90 129.30 L 179.76 128.90 C 180.54 128.53 180.87 127.60 180.50 126.82 C 180.14 126.04 179.21 125.71 178.43 126.07 L 177.57 126.48 C 176.79 126.85 176.45 127.78 176.82 128.56 C 177.19 129.34 178.12 129.67 178.90 129.30 Z M 179.77 128.89 L 180.86 128.37 C 181.64 128.00 181.97 127.06 181.60 126.29 C 181.22 125.51 180.29 125.18 179.51 125.55 L 178.42 126.08 C 177.64 126.45 177.31 127.39 177.68 128.16 C 178.06 128.94 178.99 129.27 179.77 128.89 Z M 180.88 128.36 L 181.83 127.89 C 182.61 127.51 182.92 126.57 182.54 125.80 C 182.16 125.03 181.22 124.71 180.45 125.09 L 179.50 125.56 C 178.72 125.94 178.41 126.88 178.79 127.65 C 179.17 128.43 180.11 128.74 180.88 128.36 Z M 181.85 127.88 L 182.67 127.46 C 183.44 127.07 183.75 126.13 183.36 125.36 C 182.97 124.60 182.03 124.29 181.26 124.68 L 180.44 125.10 C 179.67 125.49 179.36 126.43 179.75 127.20 C 180.14 127.97 181.08 128.27 181.85 127.88 Z M 182.68 127.46 L 183.43 127.07 C 184.20 126.67 184.49 125.73 184.10 124.97 C 183.70 124.20 182.76 123.90 181.99 124.30 L 181.25 124.69 C 180.48 125.08 180.18 126.02 180.58 126.79 C 180.98 127.56 181.92 127.85 182.68 127.46 Z M 183.43 127.07 L 183.66 126.95 C 184.42 126.55 184.72 125.61 184.32 124.84 C 183.92 124.08 182.98 123.78 182.22 124.18 L 181.99 124.30 C 181.23 124.70 180.93 125.64 181.33 126.41 C 181.73 127.17 182.67 127.47 183.43 127.07 Z"
      fill="black"
      fill-rule="nonzero" /><path d="M 169.38 112.05 L 168.43 111.68 C 167.56 111.33 166.58 111.75 166.23 112.62 C 165.89 113.49 166.31 114.47 167.18 114.82 L 168.12 115.20 C 168.99 115.54 169.97 115.12 170.32 114.25 C 170.67 113.39 170.24 112.40 169.38 112.05 Z M 168.35 111.64 L 167.40 111.32 C 166.52 111.02 165.55 111.49 165.25 112.38 C 164.95 113.27 165.42 114.23 166.31 114.53 L 167.26 114.86 C 168.14 115.16 169.11 114.68 169.41 113.80 C 169.71 112.91 169.24 111.95 168.35 111.64 Z M 167.23 111.27 L 166.27 111.05 C 165.36 110.85 164.45 111.42 164.24 112.34 C 164.03 113.25 164.61 114.16 165.52 114.37 L 166.48 114.58 C 167.40 114.79 168.31 114.22 168.51 113.30 C 168.72 112.38 168.15 111.47 167.23 111.27 Z M 165.98 111.00 L 164.96 110.95 C 164.01 110.90 163.21 111.63 163.16 112.57 C 163.11 113.52 163.84 114.33 164.79 114.37 L 165.81 114.42 C 166.76 114.47 167.56 113.74 167.61 112.80 C 167.66 111.85 166.93 111.04 165.98 111.00 Z M 164.52 110.95 L 163.55 111.15 C 162.61 111.35 162.00 112.27 162.20 113.21 C 162.39 114.16 163.32 114.76 164.26 114.57 L 165.23 114.37 C 166.17 114.17 166.78 113.25 166.58 112.31 C 166.39 111.36 165.46 110.76 164.52 110.95 Z M 162.95 111.36 L 162.14 111.88 C 161.32 112.41 161.08 113.50 161.60 114.33 C 162.13 115.15 163.22 115.40 164.05 114.87 L 164.86 114.36 C 165.68 113.83 165.93 112.73 165.40 111.91 C 164.88 111.08 163.78 110.84 162.95 111.36 Z M 161.66 112.31 L 161.18 112.97 C 160.59 113.76 160.76 114.88 161.55 115.47 C 162.35 116.05 163.47 115.88 164.05 115.09 L 164.54 114.44 C 165.12 113.64 164.95 112.52 164.16 111.94 C 163.36 111.35 162.24 111.52 161.66 112.31 Z M 160.97 113.33 L 160.60 114.19 C 160.22 115.11 160.64 116.16 161.56 116.54 C 162.47 116.93 163.52 116.50 163.90 115.59 L 164.27 114.72 C 164.65 113.81 164.22 112.76 163.31 112.38 C 162.40 111.99 161.35 112.42 160.97 113.33 Z M 160.51 114.44 L 160.24 115.50 C 159.99 116.46 160.57 117.44 161.53 117.68 C 162.49 117.93 163.47 117.35 163.72 116.40 L 163.99 115.34 C 164.24 114.38 163.66 113.40 162.70 113.15 C 161.74 112.91 160.76 113.48 160.51 114.44 Z M 160.21 115.64 L 160.02 116.75 C 159.85 117.73 160.51 118.66 161.49 118.82 C 162.46 118.99 163.39 118.33 163.56 117.36 L 163.75 116.25 C 163.92 115.27 163.26 114.34 162.28 114.18 C 161.30 114.01 160.38 114.67 160.21 115.64 Z M 160.01 116.82 L 159.89 117.74 C 159.76 118.72 160.46 119.62 161.44 119.75 C 162.43 119.88 163.33 119.18 163.45 118.20 L 163.57 117.28 C 163.70 116.30 163.00 115.40 162.02 115.27 C 161.03 115.14 160.13 115.84 160.01 116.82 Z M 159.89 117.78 L 159.78 118.75 C 159.68 119.74 160.39 120.62 161.38 120.73 C 162.37 120.83 163.25 120.12 163.36 119.13 L 163.46 118.16 C 163.56 117.17 162.85 116.29 161.86 116.18 C 160.87 116.08 159.99 116.79 159.89 117.78 Z M 159.78 118.78 L 159.69 119.79 C 159.59 120.78 160.32 121.65 161.31 121.75 C 162.30 121.84 163.17 121.11 163.26 120.12 L 163.36 119.11 C 163.45 118.12 162.72 117.24 161.73 117.15 C 160.75 117.06 159.87 117.79 159.78 118.78 Z M 159.69 119.80 L 159.59 120.84 C 159.51 121.83 160.24 122.70 161.23 122.79 C 162.22 122.87 163.09 122.14 163.18 121.15 L 163.27 120.11 C 163.35 119.12 162.62 118.25 161.63 118.17 C 160.64 118.08 159.77 118.81 159.69 119.80 Z M 159.59 120.84 L 159.50 121.90 C 159.42 122.88 160.15 123.76 161.14 123.84 C 162.12 123.93 163.00 123.20 163.08 122.21 L 163.18 121.16 C 163.26 120.17 162.53 119.29 161.54 119.21 C 160.55 119.12 159.68 119.85 159.59 120.84 Z M 159.50 121.88 L 159.40 122.95 C 159.31 123.94 160.03 124.82 161.02 124.91 C 162.01 125.01 162.89 124.28 162.98 123.29 L 163.08 122.22 C 163.17 121.23 162.45 120.36 161.46 120.26 C 160.47 120.17 159.60 120.90 159.50 121.88 Z M 159.40 122.94 L 159.30 124.00 C 159.20 124.99 159.92 125.87 160.90 125.97 C 161.89 126.07 162.77 125.35 162.87 124.36 L 162.98 123.30 C 163.08 122.32 162.36 121.44 161.37 121.34 C 160.39 121.24 159.50 121.95 159.40 122.94 Z M 159.30 123.99 L 159.19 125.02 C 159.08 126.00 159.80 126.89 160.79 126.99 C 161.77 127.10 162.66 126.38 162.76 125.40 L 162.87 124.37 C 162.97 123.38 162.26 122.50 161.27 122.39 C 160.29 122.29 159.40 123.00 159.30 123.99 Z M 159.19 125.01 L 159.08 125.99 C 158.98 126.98 159.69 127.86 160.68 127.97 C 161.66 128.08 162.55 127.36 162.65 126.38 L 162.76 125.40 C 162.87 124.41 162.15 123.53 161.17 123.42 C 160.18 123.31 159.30 124.03 159.19 125.01 Z M 159.08 125.99 L 158.99 126.91 C 158.88 127.90 159.59 128.78 160.58 128.89 C 161.57 128.99 162.45 128.28 162.56 127.30 L 162.65 126.38 C 162.76 125.39 162.05 124.51 161.06 124.40 C 160.07 124.30 159.19 125.01 159.08 125.99 Z M 158.99 126.92 L 158.88 127.92 C 158.78 128.91 159.50 129.79 160.49 129.89 C 161.47 129.99 162.35 129.28 162.45 128.29 L 162.56 127.29 C 162.66 126.30 161.94 125.42 160.95 125.32 C 159.97 125.22 159.09 125.94 158.99 126.92 Z M 158.88 127.94 L 158.78 128.99 C 158.69 129.98 159.41 130.85 160.39 130.95 C 161.38 131.04 162.25 130.32 162.35 129.34 L 162.45 128.28 C 162.55 127.29 161.83 126.42 160.84 126.32 C 159.86 126.23 158.98 126.95 158.88 127.94 Z M 158.78 128.99 L 158.69 129.95 C 158.60 130.94 159.32 131.81 160.30 131.91 C 161.29 132.00 162.16 131.28 162.26 130.30 L 162.35 129.33 C 162.44 128.35 161.72 127.48 160.74 127.38 C 159.75 127.29 158.88 128.01 158.78 128.99 Z M 158.70 129.94 L 158.60 130.86 C 158.50 131.84 159.21 132.72 160.19 132.82 C 161.18 132.92 162.06 132.21 162.16 131.23 L 162.25 130.31 C 162.35 129.33 161.64 128.45 160.66 128.35 C 159.68 128.25 158.80 128.96 158.70 129.94 Z M 158.61 130.83 L 158.49 131.77 C 158.38 132.75 159.08 133.64 160.06 133.76 C 161.04 133.87 161.92 133.17 162.04 132.19 L 162.15 131.25 C 162.27 130.27 161.57 129.38 160.59 129.27 C 159.61 129.15 158.72 129.85 158.61 130.83 Z M 158.50 131.74 L 158.37 132.72 C 158.24 133.69 158.92 134.59 159.90 134.72 C 160.87 134.85 161.77 134.17 161.90 133.19 L 162.03 132.22 C 162.17 131.24 161.48 130.35 160.51 130.22 C 159.53 130.08 158.63 130.77 158.50 131.74 Z M 158.37 132.70 L 158.23 133.70 C 158.08 134.67 158.76 135.57 159.73 135.72 C 160.70 135.86 161.61 135.19 161.75 134.21 L 161.90 133.21 C 162.04 132.24 161.37 131.34 160.39 131.19 C 159.42 131.05 158.52 131.72 158.37 132.70 Z M 158.23 133.68 L 158.07 134.70 C 157.92 135.67 158.59 136.58 159.56 136.73 C 160.53 136.88 161.44 136.22 161.59 135.25 L 161.75 134.23 C 161.90 133.26 161.23 132.35 160.26 132.20 C 159.29 132.05 158.38 132.71 158.23 133.68 Z M 158.08 134.69 L 157.92 135.66 C 157.77 136.62 158.43 137.53 159.40 137.69 C 160.36 137.84 161.27 137.19 161.43 136.22 L 161.58 135.26 C 161.74 134.29 161.08 133.38 160.11 133.22 C 159.14 133.07 158.23 133.73 158.08 134.69 Z M 157.93 135.65 L 157.77 136.63 C 157.61 137.60 158.27 138.51 159.23 138.67 C 160.20 138.83 161.11 138.17 161.27 137.20 L 161.43 136.22 C 161.58 135.26 160.93 134.34 159.96 134.19 C 159.00 134.03 158.09 134.69 157.93 135.65 Z M 157.77 136.63 L 157.61 137.63 C 157.45 138.59 158.10 139.50 159.07 139.66 C 160.03 139.82 160.94 139.17 161.10 138.20 L 161.26 137.21 C 161.42 136.24 160.77 135.33 159.80 135.17 C 158.84 135.01 157.93 135.67 157.77 136.63 Z M 157.61 137.63 L 157.44 138.64 C 157.29 139.60 157.94 140.51 158.90 140.67 C 159.86 140.82 160.77 140.17 160.93 139.21 L 161.10 138.20 C 161.25 137.24 160.60 136.33 159.64 136.17 C 158.68 136.02 157.77 136.67 157.61 137.63 Z M 157.45 138.64 L 157.29 139.59 C 157.13 140.55 157.78 141.46 158.75 141.62 C 159.71 141.78 160.61 141.12 160.77 140.16 L 160.93 139.21 C 161.09 138.25 160.43 137.34 159.47 137.18 C 158.51 137.02 157.60 137.68 157.45 138.64 Z M 157.29 139.59 L 157.13 140.56 C 156.98 141.52 157.62 142.43 158.58 142.59 C 159.54 142.74 160.45 142.09 160.61 141.13 L 160.77 140.16 C 160.93 139.20 160.28 138.30 159.32 138.14 C 158.36 137.98 157.45 138.63 157.29 139.59 Z M 157.14 140.56 L 156.97 141.55 C 156.81 142.50 157.45 143.41 158.41 143.57 C 159.37 143.73 160.28 143.09 160.44 142.13 L 160.61 141.14 C 160.77 140.18 160.12 139.28 159.16 139.11 C 158.21 138.95 157.30 139.60 157.14 140.56 Z M 156.97 141.54 L 156.80 142.56 C 156.63 143.51 157.27 144.42 158.23 144.59 C 159.18 144.76 160.09 144.12 160.26 143.16 L 160.43 142.14 C 160.60 141.19 159.96 140.28 159.01 140.11 C 158.05 139.94 157.14 140.58 156.97 141.54 Z M 156.80 142.55 L 156.63 143.52 C 156.45 144.47 157.09 145.39 158.04 145.56 C 158.99 145.73 159.90 145.10 160.07 144.15 L 160.25 143.17 C 160.42 142.22 159.79 141.31 158.84 141.14 C 157.89 140.96 156.97 141.59 156.80 142.55 Z M 156.63 143.51 L 156.45 144.49 C 156.27 145.44 156.89 146.36 157.84 146.53 C 158.79 146.71 159.71 146.09 159.89 145.14 L 160.07 144.16 C 160.25 143.21 159.62 142.29 158.67 142.12 C 157.72 141.94 156.81 142.56 156.63 143.51 Z M 156.45 144.48 L 156.26 145.47 C 156.08 146.42 156.70 147.34 157.65 147.52 C 158.59 147.70 159.51 147.08 159.69 146.13 L 159.88 145.14 C 160.06 144.20 159.44 143.28 158.50 143.10 C 157.55 142.92 156.63 143.54 156.45 144.48 Z M 156.27 145.47 L 156.07 146.46 C 155.88 147.40 156.50 148.32 157.44 148.51 C 158.39 148.69 159.30 148.08 159.49 147.13 L 159.68 146.14 C 159.87 145.20 159.26 144.28 158.31 144.10 C 157.37 143.91 156.45 144.52 156.27 145.47 Z M 156.08 146.45 L 155.88 147.44 C 155.69 148.38 156.30 149.30 157.24 149.49 C 158.18 149.68 159.10 149.07 159.29 148.13 L 159.48 147.14 C 159.67 146.20 159.06 145.28 158.12 145.09 C 157.18 144.90 156.26 145.51 156.08 146.45 Z M 155.88 147.43 L 155.68 148.43 C 155.48 149.37 156.09 150.29 157.03 150.48 C 157.97 150.67 158.88 150.07 159.08 149.13 L 159.28 148.13 C 159.47 147.19 158.87 146.28 157.93 146.08 C 156.99 145.89 156.07 146.50 155.88 147.43 Z M 155.68 148.42 L 155.48 149.40 C 155.28 150.34 155.88 151.26 156.81 151.46 C 157.75 151.65 158.67 151.05 158.87 150.12 L 159.07 149.14 C 159.27 148.20 158.67 147.28 157.73 147.08 C 156.80 146.89 155.88 147.49 155.68 148.42 Z M 155.48 149.40 L 155.27 150.37 C 155.07 151.30 155.66 152.22 156.60 152.42 C 157.53 152.62 158.45 152.03 158.65 151.10 L 158.86 150.12 C 159.06 149.19 158.47 148.27 157.53 148.07 C 156.60 147.87 155.68 148.46 155.48 149.40 Z M 155.28 150.36 L 155.06 151.32 C 154.86 152.25 155.44 153.18 156.37 153.38 C 157.31 153.59 158.23 153.00 158.43 152.07 L 158.65 151.10 C 158.85 150.17 158.26 149.25 157.33 149.05 C 156.40 148.84 155.48 149.43 155.28 150.36 Z M 155.07 151.32 L 154.85 152.28 C 154.64 153.21 155.22 154.13 156.15 154.34 C 157.07 154.55 158.00 153.97 158.21 153.05 L 158.43 152.08 C 158.64 151.15 158.06 150.23 157.13 150.02 C 156.20 149.81 155.28 150.39 155.07 151.32 Z M 154.85 152.27 L 154.63 153.24 C 154.41 154.17 154.99 155.09 155.91 155.31 C 156.84 155.52 157.76 154.95 157.97 154.02 L 158.20 153.05 C 158.42 152.13 157.84 151.21 156.92 150.99 C 155.99 150.77 155.07 151.35 154.85 152.27 Z M 154.63 153.24 L 154.40 154.21 C 154.18 155.13 154.75 156.05 155.68 156.27 C 156.60 156.49 157.52 155.92 157.74 155.00 L 157.97 154.03 C 158.19 153.11 157.62 152.18 156.70 151.96 C 155.78 151.75 154.85 152.32 154.63 153.24 Z M 154.41 154.21 L 154.17 155.18 C 153.95 156.10 154.52 157.02 155.44 157.24 C 156.36 157.46 157.28 156.90 157.50 155.98 L 157.74 155.00 C 157.96 154.08 157.39 153.16 156.47 152.94 C 155.55 152.72 154.63 153.29 154.41 154.21 Z M 154.18 155.18 L 153.94 156.16 C 153.72 157.08 154.29 158.00 155.21 158.22 C 156.12 158.44 157.05 157.87 157.26 156.96 L 157.50 155.98 C 157.72 155.06 157.15 154.14 156.24 153.92 C 155.32 153.70 154.40 154.27 154.18 155.18 Z M 153.95 156.16 L 153.72 157.13 C 153.50 158.05 154.06 158.97 154.98 159.18 C 155.89 159.40 156.81 158.84 157.03 157.92 L 157.26 156.95 C 157.48 156.04 156.91 155.12 156.00 154.90 C 155.08 154.68 154.16 155.25 153.95 156.16 Z M 153.72 157.13 L 153.49 158.11 C 153.27 159.02 153.84 159.93 154.75 160.15 C 155.67 160.37 156.58 159.80 156.80 158.89 L 157.03 157.92 C 157.24 157.00 156.68 156.09 155.77 155.87 C 154.85 155.66 153.94 156.22 153.72 157.13 Z M 153.49 158.11 L 153.26 159.08 C 153.05 159.99 153.61 160.91 154.52 161.12 C 155.44 161.34 156.35 160.77 156.56 159.86 L 156.79 158.89 C 157.01 157.98 156.44 157.06 155.53 156.85 C 154.62 156.63 153.71 157.20 153.49 158.11 Z M 153.27 159.09 L 153.04 160.06 C 152.82 160.97 153.39 161.88 154.30 162.09 C 155.20 162.31 156.11 161.75 156.33 160.84 L 156.56 159.86 C 156.77 158.95 156.21 158.04 155.30 157.83 C 154.39 157.61 153.48 158.18 153.27 159.09 Z M 153.04 160.06 L 152.81 161.04 C 152.60 161.95 153.16 162.85 154.07 163.07 C 154.97 163.28 155.88 162.72 156.09 161.81 L 156.32 160.84 C 156.54 159.93 155.98 159.02 155.07 158.81 C 154.16 158.60 153.26 159.16 153.04 160.06 Z M 152.82 161.04 L 152.59 162.02 C 152.37 162.92 152.93 163.83 153.84 164.04 C 154.74 164.25 155.65 163.69 155.86 162.79 L 156.09 161.81 C 156.30 160.91 155.74 160.00 154.84 159.79 C 153.94 159.58 153.03 160.14 152.82 161.04 Z M 152.59 162.02 L 152.36 163.00 C 152.15 163.90 152.71 164.80 153.61 165.01 C 154.51 165.22 155.41 164.67 155.62 163.76 L 155.85 162.79 C 156.07 161.89 155.51 160.99 154.61 160.77 C 153.71 160.56 152.80 161.12 152.59 162.02 Z M 152.37 163.00 L 152.14 163.97 C 151.92 164.87 152.48 165.77 153.38 165.98 C 154.28 166.19 155.18 165.64 155.39 164.74 L 155.62 163.76 C 155.83 162.87 155.28 161.97 154.38 161.75 C 153.48 161.54 152.58 162.10 152.37 163.00 Z M 152.14 163.97 L 151.91 164.93 C 151.70 165.83 152.25 166.73 153.15 166.94 C 154.04 167.15 154.94 166.60 155.15 165.71 L 155.38 164.74 C 155.60 163.84 155.04 162.94 154.15 162.73 C 153.25 162.52 152.36 163.07 152.14 163.97 Z M 151.92 164.93 L 151.69 165.90 C 151.47 166.79 152.02 167.69 152.91 167.90 C 153.81 168.12 154.70 167.57 154.92 166.67 L 155.15 165.71 C 155.36 164.81 154.81 163.92 153.92 163.70 C 153.03 163.49 152.13 164.04 151.92 164.93 Z M 151.69 165.90 L 151.46 166.87 C 151.24 167.76 151.79 168.65 152.68 168.87 C 153.57 169.08 154.46 168.53 154.68 167.64 L 154.91 166.68 C 155.13 165.79 154.58 164.89 153.69 164.68 C 152.80 164.46 151.91 165.01 151.69 165.90 Z M 151.46 166.86 L 151.23 167.83 C 151.01 168.72 151.56 169.61 152.44 169.83 C 153.33 170.04 154.22 169.50 154.44 168.61 L 154.67 167.65 C 154.89 166.76 154.35 165.87 153.46 165.65 C 152.57 165.43 151.68 165.98 151.46 166.86 Z M 151.23 167.83 L 150.99 168.80 C 150.78 169.69 151.32 170.58 152.20 170.80 C 153.08 171.01 153.97 170.47 154.19 169.59 L 154.43 168.62 C 154.65 167.73 154.11 166.84 153.23 166.62 C 152.34 166.41 151.45 166.95 151.23 167.83 Z M 151.00 168.80 L 150.76 169.76 C 150.54 170.64 151.08 171.53 151.96 171.75 C 152.84 171.97 153.73 171.44 153.95 170.56 L 154.19 169.59 C 154.41 168.71 153.87 167.82 152.99 167.60 C 152.11 167.38 151.22 167.92 151.00 168.80 Z M 150.77 169.76 L 150.53 170.68 C 150.31 171.56 150.84 172.45 151.72 172.67 C 152.60 172.89 153.49 172.36 153.71 171.48 L 153.94 170.56 C 154.16 169.68 153.63 168.79 152.75 168.57 C 151.88 168.35 150.99 168.88 150.77 169.76 Z M 150.54 170.68 L 150.30 171.62 C 150.08 172.50 150.61 173.39 151.48 173.61 C 152.35 173.83 153.24 173.30 153.46 172.43 L 153.70 171.48 C 153.92 170.61 153.39 169.72 152.52 169.50 C 151.65 169.28 150.76 169.81 150.54 170.68 Z M 150.31 171.62 L 150.06 172.60 C 149.84 173.47 150.36 174.35 151.23 174.57 C 152.10 174.79 152.99 174.27 153.21 173.40 L 153.46 172.43 C 153.68 171.56 153.15 170.67 152.28 170.45 C 151.41 170.23 150.53 170.75 150.31 171.62 Z M 150.06 172.60 L 149.81 173.60 C 149.59 174.47 150.11 175.35 150.98 175.57 C 151.85 175.79 152.73 175.27 152.95 174.40 L 153.21 173.40 C 153.43 172.53 152.90 171.65 152.03 171.43 C 151.17 171.21 150.28 171.73 150.06 172.60 Z M 149.81 173.61 L 149.55 174.64 C 149.33 175.50 149.86 176.38 150.72 176.60 C 151.59 176.82 152.46 176.30 152.68 175.43 L 152.94 174.40 C 153.16 173.53 152.64 172.66 151.78 172.44 C 150.91 172.22 150.03 172.74 149.81 173.61 Z M 149.56 174.64 L 149.30 175.67 C 149.08 176.53 149.60 177.41 150.46 177.62 C 151.33 177.84 152.20 177.32 152.42 176.46 L 152.68 175.43 C 152.90 174.57 152.37 173.69 151.51 173.47 C 150.65 173.26 149.77 173.78 149.56 174.64 Z M 149.30 175.67 L 149.04 176.70 C 148.82 177.56 149.35 178.43 150.21 178.65 C 151.07 178.86 151.94 178.34 152.16 177.48 L 152.42 176.45 C 152.63 175.59 152.11 174.72 151.25 174.50 C 150.39 174.29 149.52 174.81 149.30 175.67 Z M 149.04 176.70 L 148.79 177.69 C 148.58 178.55 149.10 179.42 149.96 179.64 C 150.81 179.86 151.69 179.34 151.90 178.48 L 152.15 177.48 C 152.37 176.62 151.85 175.75 150.99 175.54 C 150.13 175.32 149.26 175.84 149.04 176.70 Z M 148.80 177.69 L 148.56 178.62 C 148.34 179.48 148.86 180.35 149.72 180.57 C 150.57 180.78 151.44 180.27 151.66 179.41 L 151.90 178.48 C 152.11 177.62 151.60 176.75 150.74 176.54 C 149.89 176.32 149.02 176.84 148.80 177.69 Z M 148.57 178.62 L 148.34 179.51 C 148.12 180.36 148.63 181.23 149.49 181.45 C 150.34 181.67 151.21 181.15 151.43 180.30 L 151.66 179.41 C 151.87 178.56 151.36 177.69 150.51 177.47 C 149.65 177.25 148.79 177.77 148.57 178.62 Z M 148.35 179.50 L 148.05 180.65 C 147.82 181.50 148.33 182.36 149.18 182.59 C 150.03 182.81 150.90 182.30 151.12 181.45 L 151.42 180.31 C 151.64 179.46 151.14 178.59 150.29 178.37 C 149.44 178.14 148.57 178.65 148.35 179.50 Z M 148.06 180.64 L 147.81 181.55 C 147.58 182.39 148.08 183.26 148.92 183.49 C 149.76 183.72 150.63 183.22 150.86 182.38 L 151.11 181.46 C 151.33 180.62 150.84 179.76 150.00 179.53 C 149.15 179.30 148.29 179.80 148.06 180.64 Z M 147.82 181.55 L 147.61 182.33 C 147.38 183.16 147.87 184.03 148.70 184.26 C 149.54 184.49 150.40 184.00 150.63 183.16 L 150.85 182.38 C 151.08 181.55 150.59 180.68 149.75 180.45 C 148.92 180.22 148.05 180.71 147.82 181.55 Z"
      fill="black"
      fill-rule="nonzero" /><path d="M 159.70 151.16 L 160.69 150.72 C 161.49 150.37 161.85 149.43 161.50 148.63 C 161.15 147.84 160.22 147.48 159.42 147.83 L 158.43 148.27 C 157.63 148.62 157.27 149.55 157.62 150.35 C 157.97 151.15 158.91 151.51 159.70 151.16 Z M 160.61 150.79 L 161.59 150.44 C 162.42 150.13 162.86 149.20 162.55 148.36 C 162.25 147.53 161.32 147.09 160.48 147.40 L 159.50 147.75 C 158.66 148.06 158.23 148.99 158.54 149.83 C 158.84 150.67 159.77 151.10 160.61 150.79 Z M 161.36 150.54 L 162.31 150.35 C 163.20 150.17 163.78 149.29 163.60 148.40 C 163.42 147.50 162.55 146.92 161.65 147.10 L 160.70 147.30 C 159.81 147.48 159.23 148.35 159.41 149.25 C 159.59 150.14 160.46 150.72 161.36 150.54 Z M 161.88 150.41 L 162.79 150.47 C 163.72 150.52 164.52 149.81 164.57 148.88 C 164.63 147.95 163.92 147.15 162.99 147.09 L 162.08 147.04 C 161.15 146.98 160.35 147.69 160.29 148.62 C 160.24 149.56 160.95 150.36 161.88 150.41 Z M 162.21 150.37 L 163.00 150.70 C 163.88 151.08 164.89 150.67 165.27 149.79 C 165.64 148.92 165.23 147.90 164.35 147.53 L 163.56 147.19 C 162.69 146.82 161.67 147.23 161.30 148.10 C 160.93 148.98 161.33 150.00 162.21 150.37 Z M 162.58 150.49 L 163.28 151.05 C 164.04 151.66 165.14 151.54 165.75 150.78 C 166.36 150.02 166.24 148.91 165.48 148.31 L 164.78 147.74 C 164.02 147.14 162.91 147.26 162.30 148.02 C 161.70 148.78 161.82 149.88 162.58 150.49 Z M 163.05 150.88 L 163.72 151.62 C 164.38 152.35 165.51 152.40 166.25 151.74 C 166.98 151.08 167.04 149.95 166.37 149.21 L 165.71 148.48 C 165.04 147.74 163.91 147.69 163.18 148.35 C 162.44 149.02 162.39 150.15 163.05 150.88 Z M 163.59 151.51 L 164.23 152.36 C 164.84 153.16 165.98 153.32 166.78 152.71 C 167.58 152.11 167.74 150.97 167.14 150.16 L 166.50 149.32 C 165.89 148.51 164.75 148.35 163.95 148.96 C 163.15 149.57 162.99 150.71 163.59 151.51 Z M 164.16 152.31 L 164.78 153.21 C 165.36 154.05 166.51 154.26 167.35 153.68 C 168.20 153.09 168.41 151.94 167.82 151.10 L 167.21 150.21 C 166.62 149.37 165.47 149.16 164.63 149.74 C 163.79 150.32 163.58 151.47 164.16 152.31 Z M 164.76 153.22 L 165.35 154.08 C 165.94 154.93 167.10 155.15 167.96 154.56 C 168.81 153.97 169.03 152.80 168.44 151.95 L 167.85 151.09 C 167.26 150.24 166.09 150.02 165.24 150.61 C 164.38 151.19 164.17 152.36 164.76 153.22 Z M 165.36 154.11 L 165.94 154.92 C 166.54 155.77 167.72 155.96 168.57 155.36 C 169.41 154.76 169.61 153.58 169.01 152.73 L 168.43 151.92 C 167.82 151.07 166.65 150.87 165.80 151.48 C 164.95 152.08 164.75 153.26 165.36 154.11 Z M 165.95 154.95 L 166.54 155.74 C 167.16 156.58 168.34 156.75 169.18 156.13 C 170.02 155.51 170.19 154.33 169.57 153.49 L 168.99 152.70 C 168.37 151.86 167.19 151.68 166.35 152.31 C 165.51 152.93 165.33 154.11 165.95 154.95 Z M 166.55 155.77 L 167.15 156.55 C 167.79 157.38 168.98 157.53 169.81 156.89 C 170.64 156.26 170.79 155.07 170.16 154.24 L 169.56 153.46 C 168.92 152.63 167.73 152.47 166.90 153.11 C 166.07 153.75 165.92 154.94 166.55 155.77 Z M 167.17 156.58 L 167.80 157.36 C 168.45 158.18 169.64 158.32 170.46 157.66 C 171.28 157.01 171.42 155.82 170.76 155.00 L 170.14 154.21 C 169.49 153.39 168.29 153.26 167.47 153.91 C 166.65 154.56 166.52 155.76 167.17 156.58 Z M 167.81 157.39 L 168.46 158.18 C 169.13 158.99 170.33 159.11 171.14 158.44 C 171.95 157.77 172.07 156.57 171.40 155.76 L 170.75 154.97 C 170.08 154.16 168.88 154.04 168.07 154.71 C 167.26 155.38 167.15 156.58 167.81 157.39 Z M 168.48 158.20 L 169.14 158.98 C 169.81 159.78 171.01 159.88 171.82 159.20 C 172.62 158.53 172.72 157.33 172.04 156.52 L 171.39 155.74 C 170.71 154.94 169.51 154.84 168.70 155.52 C 167.90 156.19 167.80 157.39 168.48 158.20 Z M 169.15 158.99 L 169.82 159.78 C 170.51 160.57 171.71 160.66 172.51 159.98 C 173.31 159.29 173.39 158.09 172.71 157.29 L 172.03 156.51 C 171.35 155.71 170.14 155.62 169.35 156.31 C 168.55 156.99 168.46 158.20 169.15 158.99 Z M 169.83 159.79 L 170.51 160.56 C 171.20 161.35 172.41 161.43 173.20 160.74 C 173.99 160.05 174.07 158.84 173.38 158.05 L 172.70 157.28 C 172.01 156.49 170.80 156.41 170.01 157.10 C 169.22 157.80 169.14 159.00 169.83 159.79 Z M 170.52 160.57 L 171.18 161.32 C 171.88 162.11 173.09 162.18 173.87 161.48 C 174.66 160.78 174.73 159.57 174.03 158.79 L 173.37 158.04 C 172.67 157.26 171.46 157.18 170.68 157.88 C 169.89 158.58 169.82 159.79 170.52 160.57 Z M 171.19 161.33 L 171.82 162.03 C 172.53 162.81 173.73 162.87 174.51 162.17 C 175.30 161.47 175.36 160.26 174.65 159.48 L 174.02 158.78 C 173.32 158.00 172.11 157.93 171.33 158.64 C 170.55 159.34 170.49 160.55 171.19 161.33 Z M 171.83 162.04 L 172.56 162.84 C 173.27 163.61 174.47 163.67 175.25 162.96 C 176.03 162.25 176.08 161.05 175.37 160.27 L 174.65 159.47 C 173.94 158.69 172.73 158.64 171.95 159.35 C 171.18 160.06 171.12 161.26 171.83 162.04 Z M 172.56 162.84 L 173.27 163.61 C 173.98 164.38 175.19 164.43 175.96 163.72 C 176.74 163.01 176.79 161.80 176.07 161.03 L 175.37 160.26 C 174.65 159.49 173.45 159.44 172.67 160.15 C 171.90 160.86 171.85 162.07 172.56 162.84 Z M 173.27 163.61 L 173.92 164.31 C 174.63 165.09 175.84 165.14 176.61 164.43 C 177.39 163.72 177.44 162.51 176.72 161.74 L 176.07 161.03 C 175.36 160.25 174.16 160.20 173.38 160.91 C 172.61 161.63 172.56 162.83 173.27 163.61 Z M 173.91 164.30 L 174.53 164.99 C 175.23 165.77 176.44 165.83 177.22 165.12 C 178.00 164.42 178.06 163.21 177.35 162.43 L 176.73 161.75 C 176.03 160.97 174.82 160.91 174.04 161.61 C 173.26 162.32 173.20 163.52 173.91 164.30 Z M 174.51 164.97 L 175.13 165.67 C 175.83 166.46 177.03 166.54 177.82 165.85 C 178.61 165.15 178.69 163.95 177.99 163.16 L 177.37 162.45 C 176.68 161.66 175.47 161.59 174.68 162.28 C 173.89 162.97 173.82 164.18 174.51 164.97 Z M 175.12 165.66 L 175.75 166.39 C 176.44 167.19 177.64 167.28 178.43 166.60 C 179.23 165.91 179.32 164.71 178.64 163.91 L 178.01 163.18 C 177.32 162.38 176.12 162.29 175.32 162.97 C 174.53 163.66 174.43 164.86 175.12 165.66 Z M 175.74 166.38 L 176.39 167.15 C 177.07 167.95 178.27 168.05 179.07 167.37 C 179.87 166.69 179.97 165.49 179.29 164.69 L 178.65 163.92 C 177.97 163.12 176.77 163.02 175.97 163.70 C 175.16 164.38 175.06 165.58 175.74 166.38 Z M 176.39 167.15 L 177.06 167.93 C 177.74 168.73 178.94 168.83 179.74 168.15 C 180.54 167.48 180.64 166.28 179.96 165.47 L 179.29 164.69 C 178.61 163.89 177.41 163.79 176.61 164.47 C 175.81 165.15 175.71 166.35 176.39 167.15 Z M 177.07 167.94 L 177.73 168.71 C 178.41 169.51 179.61 169.60 180.41 168.92 C 181.20 168.23 181.30 167.03 180.61 166.24 L 179.95 165.47 C 179.27 164.67 178.07 164.58 177.27 165.26 C 176.48 165.95 176.38 167.15 177.07 167.94 Z M 177.74 168.72 L 178.40 169.48 C 179.09 170.27 180.28 170.35 181.08 169.67 C 181.87 168.98 181.95 167.78 181.26 166.99 L 180.60 166.23 C 179.92 165.44 178.72 165.36 177.93 166.04 C 177.14 166.73 177.05 167.93 177.74 168.72 Z M 178.41 169.48 L 179.07 170.24 C 179.76 171.03 180.96 171.11 181.75 170.42 C 182.53 169.73 182.61 168.54 181.92 167.75 L 181.26 166.99 C 180.57 166.20 179.37 166.12 178.58 166.81 C 177.80 167.50 177.72 168.69 178.41 169.48 Z M 179.08 170.24 L 179.74 171.00 C 180.43 171.78 181.62 171.86 182.41 171.17 C 183.19 170.48 183.27 169.29 182.58 168.50 L 181.92 167.75 C 181.23 166.96 180.04 166.89 179.25 167.58 C 178.46 168.26 178.39 169.46 179.08 170.24 Z M 179.74 171.00 L 180.40 171.75 C 181.08 172.53 182.28 172.61 183.06 171.92 C 183.85 171.24 183.93 170.04 183.24 169.26 L 182.58 168.51 C 181.89 167.72 180.70 167.64 179.92 168.33 C 179.13 169.02 179.05 170.21 179.74 171.00 Z M 180.40 171.74 L 181.08 172.52 C 181.76 173.31 182.95 173.39 183.74 172.71 C 184.52 172.02 184.60 170.83 183.92 170.05 L 183.24 169.27 C 182.56 168.48 181.37 168.40 180.58 169.08 C 179.79 169.76 179.71 170.96 180.40 171.74 Z M 181.07 172.51 L 181.73 173.27 C 182.41 174.06 183.59 174.14 184.38 173.47 C 185.17 172.79 185.25 171.60 184.58 170.81 L 183.92 170.05 C 183.24 169.27 182.05 169.18 181.27 169.86 C 180.48 170.54 180.39 171.73 181.07 172.51 Z M 181.72 173.26 L 182.36 174.00 C 183.03 174.79 184.22 174.88 185.00 174.21 C 185.79 173.54 185.89 172.35 185.21 171.57 L 184.58 170.82 C 183.91 170.03 182.72 169.94 181.93 170.61 C 181.14 171.29 181.05 172.47 181.72 173.26 Z M 182.35 173.99 L 182.98 174.74 C 183.65 175.53 184.83 175.63 185.62 174.96 C 186.41 174.30 186.51 173.12 185.85 172.33 L 185.22 171.58 C 184.55 170.79 183.37 170.69 182.58 171.35 C 181.79 172.02 181.69 173.20 182.35 173.99 Z M 182.98 174.73 L 183.63 175.51 C 184.29 176.30 185.46 176.41 186.26 175.75 C 187.05 175.09 187.16 173.91 186.50 173.12 L 185.85 172.34 C 185.19 171.55 184.02 171.44 183.22 172.10 C 182.43 172.76 182.32 173.93 182.98 174.73 Z M 183.62 175.49 L 184.26 176.27 C 184.91 177.06 186.08 177.18 186.88 176.53 C 187.67 175.88 187.79 174.71 187.14 173.91 L 186.50 173.13 C 185.85 172.34 184.68 172.22 183.89 172.87 C 183.09 173.52 182.97 174.70 183.62 175.49 Z M 184.25 176.25 L 184.87 177.02 C 185.52 177.82 186.68 177.95 187.48 177.30 C 188.28 176.66 188.41 175.49 187.76 174.70 L 187.14 173.93 C 186.50 173.13 185.33 173.00 184.54 173.64 C 183.74 174.29 183.61 175.45 184.25 176.25 Z M 184.87 177.01 L 185.46 177.75 C 186.09 178.55 187.25 178.69 188.05 178.05 C 188.85 177.42 188.99 176.26 188.36 175.46 L 187.77 174.71 C 187.14 173.91 185.97 173.78 185.17 174.41 C 184.37 175.04 184.24 176.20 184.87 177.01 Z M 185.45 177.73 L 186.02 178.47 C 186.65 179.27 187.80 179.42 188.61 178.79 C 189.41 178.17 189.56 177.01 188.93 176.21 L 188.36 175.47 C 187.74 174.67 186.58 174.52 185.78 175.15 C 184.97 175.77 184.83 176.93 185.45 177.73 Z M 186.02 178.45 L 186.62 179.23 C 187.23 180.04 188.38 180.19 189.19 179.57 C 189.99 178.96 190.15 177.81 189.53 177.00 L 188.94 176.23 C 188.32 175.42 187.17 175.27 186.37 175.88 C 185.56 176.50 185.41 177.65 186.02 178.45 Z M 186.62 179.22 L 187.26 180.07 C 187.87 180.88 189.01 181.04 189.82 180.43 C 190.62 179.82 190.78 178.67 190.17 177.87 L 189.53 177.02 C 188.92 176.21 187.78 176.05 186.97 176.66 C 186.17 177.27 186.01 178.41 186.62 179.22 Z M 187.26 180.06 L 187.87 180.87 C 188.47 181.67 189.61 181.84 190.41 181.23 C 191.22 180.63 191.38 179.49 190.78 178.69 L 190.17 177.88 C 189.57 177.07 188.43 176.91 187.63 177.51 C 186.82 178.12 186.66 179.26 187.26 180.06 Z M 187.87 180.86 L 188.45 181.64 C 189.05 182.44 190.18 182.61 190.98 182.01 C 191.79 181.41 191.95 180.28 191.36 179.47 L 190.78 178.70 C 190.18 177.89 189.04 177.73 188.24 178.32 C 187.44 178.92 187.27 180.06 187.87 180.86 Z M 188.45 181.63 L 189.05 182.44 C 189.64 183.25 190.77 183.42 191.58 182.82 C 192.38 182.23 192.55 181.10 191.96 180.30 L 191.35 179.48 C 190.76 178.68 189.63 178.51 188.83 179.10 C 188.03 179.70 187.86 180.83 188.45 181.63 Z M 189.05 182.43 L 189.66 183.27 C 190.25 184.07 191.37 184.24 192.17 183.66 C 192.98 183.07 193.15 181.95 192.57 181.15 L 191.96 180.31 C 191.37 179.51 190.25 179.33 189.44 179.92 C 188.64 180.50 188.47 181.63 189.05 182.43 Z M 189.66 183.25 L 190.26 184.09 C 190.84 184.89 191.96 185.07 192.76 184.50 C 193.56 183.92 193.75 182.80 193.17 182.00 L 192.57 181.16 C 191.99 180.36 190.87 180.17 190.07 180.75 C 189.26 181.33 189.08 182.45 189.66 183.25 Z M 190.26 184.07 L 190.85 184.91 C 191.41 185.71 192.53 185.90 193.33 185.34 C 194.14 184.77 194.33 183.66 193.76 182.85 L 193.17 182.02 C 192.60 181.21 191.49 181.02 190.69 181.58 C 189.88 182.15 189.69 183.26 190.26 184.07 Z M 190.85 184.88 L 191.43 185.72 C 191.98 186.53 193.08 186.73 193.88 186.18 C 194.68 185.63 194.89 184.53 194.34 183.73 L 193.76 182.88 C 193.21 182.08 192.11 181.87 191.31 182.42 C 190.50 182.97 190.30 184.07 190.85 184.88 Z M 191.43 185.69 L 191.97 186.52 C 192.51 187.32 193.59 187.54 194.39 187.01 C 195.20 186.48 195.42 185.39 194.89 184.59 L 194.34 183.76 C 193.81 182.96 192.72 182.74 191.92 183.27 C 191.11 183.80 190.89 184.88 191.43 185.69 Z M 191.97 186.48 L 192.50 187.31 C 193.01 188.11 194.08 188.35 194.88 187.84 C 195.69 187.33 195.92 186.26 195.41 185.46 L 194.89 184.63 C 194.38 183.82 193.31 183.58 192.51 184.10 C 191.70 184.61 191.46 185.67 191.97 186.48 Z M 192.50 187.27 L 193.01 188.11 C 193.50 188.91 194.55 189.17 195.35 188.68 C 196.16 188.19 196.41 187.14 195.93 186.34 L 195.41 185.50 C 194.93 184.69 193.88 184.43 193.07 184.92 C 192.27 185.41 192.01 186.46 192.50 187.27 Z M 193.01 188.07 L 193.50 188.91 C 193.96 189.72 195.00 190.00 195.80 189.53 C 196.61 189.06 196.88 188.03 196.42 187.23 L 195.93 186.38 C 195.46 185.57 194.43 185.30 193.62 185.76 C 192.82 186.23 192.54 187.26 193.01 188.07 Z M 193.50 188.88 L 193.97 189.74 C 194.42 190.54 195.44 190.83 196.24 190.39 C 197.05 189.94 197.34 188.93 196.89 188.12 L 196.42 187.26 C 195.97 186.46 194.95 186.16 194.15 186.61 C 193.34 187.06 193.05 188.07 193.50 188.88 Z M 193.98 189.71 L 194.45 190.59 C 194.88 191.39 195.88 191.69 196.69 191.26 C 197.49 190.83 197.79 189.83 197.36 189.03 L 196.89 188.15 C 196.46 187.34 195.46 187.04 194.65 187.47 C 193.85 187.90 193.55 188.91 193.98 189.71 Z M 194.46 190.57 L 194.92 191.46 C 195.34 192.26 196.33 192.57 197.13 192.15 C 197.93 191.73 198.24 190.74 197.82 189.94 L 197.35 189.05 C 196.93 188.25 195.95 187.94 195.14 188.36 C 194.34 188.78 194.04 189.77 194.46 190.57 Z M 194.93 191.45 L 195.40 192.35 C 195.81 193.14 196.79 193.45 197.58 193.04 C 198.38 192.63 198.69 191.66 198.28 190.86 L 197.81 189.96 C 197.40 189.16 196.42 188.85 195.63 189.26 C 194.84 189.67 194.52 190.65 194.93 191.45 Z M 195.41 192.34 L 195.70 192.90 C 196.11 193.69 197.07 194.00 197.86 193.59 C 198.65 193.19 198.96 192.22 198.56 191.43 L 198.27 190.87 C 197.86 190.08 196.90 189.77 196.11 190.18 C 195.32 190.58 195.01 191.55 195.41 192.34 Z"
      fill="black"
      fill-rule="nonzero" /></svg>