<svg xmlns="http://www.w3.org/2000/svg" width="300" height="300" viewBox="0 0 300 300">
<path d="M 124.79 118.31 L 124.88 119.21 C 124.97 120.19 125.85 120.92 126.83 120.82 C 127.82 120.73 128.54 119.85 128.44 118.87 L 128.36 117.97 C 128.26 116.98 127.39 116.26 126.40 116.35 C 125.42 116.45 124.70 117.32 124.79 118.31 Z M 124.86 119.20 L 124.95 120.13 C 125.04 121.13 125.92 121.86 126.92 121.76 C 127.91 121.67 128.64 120.79 128.55 119.80 L 128.46 118.87 C 128.37 117.88 127.49 117.15 126.49 117.24 C 125.50 117.33 124.77 118.21 124.86 119.20 Z M 124.93 120.13 L 125.02 121.11 C 125.11 122.11 125.99 122.85 126.99 122.77 C 128.00 122.68 128.74 121.79 128.65 120.79 L 128.56 119.81 C 128.47 118.80 127.59 118.06 126.59 118.15 C 125.59 118.24 124.85 119.12 124.93 120.13 Z M 125.00 121.10 L 125.09 122.17 C 125.17 123.18 126.06 123.94 127.07 123.85 C 128.08 123.77 128.83 122.89 128.75 121.88 L 128.66 120.80 C 128.58 119.79 127.70 119.04 126.69 119.12 C 125.68 119.20 124.92 120.09 125.00 121.10 Z M 125.08 122.16 L 125.16 123.24 C 125.23 124.26 126.12 125.02 127.14 124.95 C 128.15 124.87 128.92 123.99 128.84 122.97 L 128.76 121.89 C 128.69 120.87 127.80 120.11 126.79 120.18 C 125.77 120.25 125.00 121.14 125.08 122.16 Z M 125.15 123.23 L 125.22 124.24 C 125.29 125.26 126.17 126.03 127.19 125.97 C 128.22 125.90 128.99 125.01 128.92 123.99 L 128.85 122.98 C 128.78 121.96 127.90 121.18 126.87 121.25 C 125.85 121.32 125.08 122.21 125.15 123.23 Z M 125.21 124.23 L 125.28 125.28 C 125.34 126.30 126.23 127.08 127.26 127.01 C 128.28 126.95 129.06 126.06 128.99 125.04 L 128.93 123.99 C 128.86 122.97 127.97 122.19 126.95 122.26 C 125.92 122.32 125.14 123.21 125.21 124.23 Z M 125.27 125.27 L 125.34 126.32 C 125.40 127.35 126.29 128.13 127.32 128.06 C 128.35 128.00 129.13 127.11 129.06 126.08 L 129.00 125.04 C 128.93 124.01 128.05 123.23 127.02 123.29 C 125.99 123.36 125.21 124.24 125.27 125.27 Z M 125.33 126.32 L 125.40 127.33 C 125.46 128.36 126.35 129.14 127.38 129.08 C 128.41 129.01 129.20 128.13 129.13 127.09 L 129.07 126.08 C 129.00 125.05 128.12 124.27 127.08 124.33 C 126.05 124.40 125.27 125.29 125.33 126.32 Z M 125.39 127.33 L 125.45 128.28 C 125.52 129.31 126.41 130.09 127.44 130.03 C 128.48 129.96 129.26 129.07 129.20 128.04 L 129.14 127.09 C 129.07 126.06 128.18 125.27 127.14 125.34 C 126.11 125.41 125.33 126.30 125.39 127.33 Z M 125.45 128.28 L 125.52 129.37 C 125.59 130.41 126.49 131.19 127.53 131.12 C 128.56 131.05 129.34 130.15 129.27 129.12 L 129.20 128.03 C 129.13 126.99 128.23 126.21 127.20 126.28 C 126.16 126.35 125.38 127.25 125.45 128.28 Z M 125.52 129.39 L 125.60 130.45 C 125.68 131.49 126.58 132.26 127.62 132.19 C 128.66 132.11 129.43 131.21 129.35 130.17 L 129.27 129.10 C 129.20 128.07 128.29 127.29 127.26 127.37 C 126.22 127.45 125.45 128.35 125.52 129.39 Z M 125.60 130.47 L 125.68 131.40 C 125.77 132.44 126.68 133.20 127.72 133.12 C 128.75 133.03 129.52 132.12 129.43 131.08 L 129.35 130.15 C 129.27 129.12 128.36 128.35 127.32 128.44 C 126.29 128.52 125.52 129.43 125.60 130.47 Z M 125.68 131.42 L 125.77 132.29 C 125.86 133.33 126.78 134.09 127.81 133.99 C 128.85 133.90 129.61 132.98 129.51 131.95 L 129.43 131.07 C 129.33 130.03 128.42 129.27 127.38 129.37 C 126.35 129.46 125.59 130.38 125.68 131.42 Z M 125.77 132.31 L 125.86 133.25 C 125.96 134.28 126.88 135.04 127.92 134.94 C 128.95 134.83 129.71 133.91 129.61 132.88 L 129.51 131.93 C 129.41 130.90 128.49 130.14 127.45 130.25 C 126.42 130.35 125.66 131.27 125.77 132.31 Z M 125.86 133.25 L 125.96 134.24 C 126.06 135.28 126.99 136.03 128.02 135.93 C 129.06 135.82 129.81 134.90 129.71 133.86 L 129.61 132.87 C 129.50 131.84 128.58 131.08 127.54 131.19 C 126.51 131.29 125.75 132.22 125.86 133.25 Z M 125.96 134.24 L 126.06 135.25 C 126.16 136.29 127.08 137.04 128.12 136.94 C 129.15 136.84 129.91 135.91 129.81 134.88 L 129.71 133.87 C 129.60 132.83 128.68 132.08 127.65 132.18 C 126.61 132.28 125.86 133.20 125.96 134.24 Z M 126.06 135.24 L 126.15 136.25 C 126.25 137.29 127.17 138.05 128.20 137.95 C 129.24 137.86 130.00 136.94 129.90 135.90 L 129.81 134.89 C 129.71 133.85 128.79 133.09 127.76 133.19 C 126.72 133.29 125.96 134.20 126.06 135.24 Z M 126.15 136.24 L 126.24 137.23 C 126.32 138.27 127.24 139.03 128.27 138.95 C 129.31 138.86 130.08 137.94 129.99 136.91 L 129.91 135.92 C 129.82 134.88 128.90 134.11 127.87 134.20 C 126.83 134.29 126.06 135.20 126.15 136.24 Z M 126.24 137.22 L 126.32 138.21 C 126.40 139.25 127.31 140.02 128.35 139.94 C 129.39 139.85 130.16 138.94 130.07 137.91 L 129.99 136.91 C 129.91 135.88 129.00 135.10 127.96 135.19 C 126.92 135.28 126.15 136.19 126.24 137.22 Z M 126.32 138.22 L 126.40 139.22 C 126.49 140.25 127.40 141.02 128.44 140.94 C 129.47 140.85 130.24 139.94 130.16 138.90 L 130.07 137.90 C 129.99 136.87 129.07 136.10 128.04 136.18 C 127.00 136.27 126.23 137.18 126.32 138.22 Z M 126.40 139.23 L 126.49 140.21 C 126.58 141.25 127.50 142.02 128.53 141.92 C 129.57 141.83 130.34 140.91 130.24 139.88 L 130.16 138.89 C 130.06 137.86 129.15 137.09 128.11 137.18 C 127.07 137.28 126.31 138.19 126.40 139.23 Z M 126.49 140.23 L 126.59 141.20 C 126.68 142.24 127.60 143.00 128.64 142.90 C 129.67 142.80 130.43 141.88 130.34 140.85 L 130.24 139.87 C 130.14 138.83 129.22 138.07 128.19 138.17 C 127.15 138.27 126.39 139.19 126.49 140.23 Z M 126.59 141.21 L 126.69 142.21 C 126.79 143.24 127.71 144.00 128.75 143.90 C 129.78 143.79 130.54 142.87 130.43 141.84 L 130.33 140.84 C 130.23 139.80 129.31 139.05 128.27 139.15 C 127.24 139.25 126.48 140.18 126.59 141.21 Z M 126.69 142.21 L 126.79 143.23 C 126.89 144.26 127.82 145.01 128.85 144.91 C 129.88 144.81 130.64 143.88 130.53 142.85 L 130.43 141.83 C 130.33 140.80 129.41 140.05 128.37 140.15 C 127.34 140.25 126.58 141.18 126.69 142.21 Z M 126.79 143.22 L 126.89 144.22 C 126.99 145.25 127.91 146.01 128.95 145.90 C 129.98 145.80 130.74 144.88 130.63 143.84 L 130.53 142.85 C 130.43 141.82 129.51 141.06 128.47 141.16 C 127.44 141.27 126.69 142.19 126.79 143.22 Z M 126.89 144.22 L 126.99 145.21 C 127.09 146.24 128.01 146.99 129.04 146.89 C 130.08 146.79 130.83 145.87 130.73 144.84 L 130.63 143.85 C 130.53 142.81 129.61 142.06 128.58 142.16 C 127.54 142.26 126.79 143.18 126.89 144.22 Z M 126.99 145.20 L 127.08 146.20 C 127.19 147.23 128.10 147.99 129.14 147.89 C 130.17 147.79 130.93 146.87 130.83 145.84 L 130.73 144.84 C 130.63 143.81 129.71 143.05 128.68 143.15 C 127.64 143.25 126.89 144.17 126.99 145.20 Z M 127.09 146.20 L 127.18 147.20 C 127.28 148.24 128.20 148.99 129.23 148.89 C 130.27 148.79 131.02 147.88 130.92 146.84 L 130.82 145.84 C 130.72 144.81 129.81 144.05 128.77 144.15 C 127.74 144.25 126.99 145.17 127.09 146.20 Z M 127.18 147.20 L 127.28 148.20 C 127.38 149.23 128.30 149.99 129.33 149.89 C 130.36 149.79 131.12 148.87 131.02 147.84 L 130.92 146.84 C 130.82 145.81 129.90 145.06 128.87 145.16 C 127.84 145.26 127.08 146.17 127.18 147.20 Z M 127.28 148.20 L 127.38 149.19 C 127.48 150.22 128.39 150.98 129.42 150.88 C 130.46 150.78 131.21 149.86 131.11 148.83 L 131.01 147.84 C 130.92 146.81 130.00 146.06 128.97 146.15 C 127.94 146.25 127.18 147.17 127.28 148.20 Z M 127.38 149.19 L 127.48 150.19 C 127.58 151.22 128.49 151.97 129.52 151.87 C 130.55 151.77 131.30 150.86 131.20 149.83 L 131.11 148.83 C 131.01 147.80 130.09 147.05 129.07 147.15 C 128.04 147.25 127.28 148.16 127.38 149.19 Z M 127.48 150.18 L 127.57 151.18 C 127.67 152.21 128.59 152.97 129.61 152.87 C 130.64 152.77 131.40 151.85 131.30 150.83 L 131.20 149.83 C 131.10 148.80 130.19 148.05 129.16 148.14 C 128.13 148.24 127.38 149.16 127.48 150.18 Z M 127.58 151.18 L 127.67 152.17 C 127.77 153.20 128.68 153.95 129.71 153.85 C 130.73 153.76 131.49 152.84 131.39 151.82 L 131.30 150.83 C 131.20 149.80 130.29 149.05 129.26 149.15 C 128.23 149.24 127.48 150.16 127.58 151.18 Z M 127.67 152.17 L 127.77 153.14 C 127.86 154.17 128.77 154.92 129.80 154.82 C 130.82 154.73 131.58 153.82 131.48 152.79 L 131.39 151.82 C 131.29 150.79 130.38 150.04 129.36 150.14 C 128.33 150.23 127.58 151.14 127.67 152.17 Z M 127.77 153.14 L 127.86 154.13 C 127.96 155.15 128.86 155.90 129.89 155.81 C 130.91 155.71 131.66 154.81 131.57 153.78 L 131.48 152.79 C 131.38 151.77 130.47 151.02 129.45 151.11 C 128.43 151.21 127.67 152.12 127.77 153.14 Z M 127.86 154.12 L 127.96 155.13 C 128.05 156.15 128.95 156.91 129.97 156.81 C 131.00 156.72 131.75 155.82 131.66 154.79 L 131.56 153.79 C 131.47 152.76 130.57 152.01 129.55 152.10 C 128.52 152.20 127.77 153.10 127.86 154.12 Z M 127.96 155.13 L 128.05 156.15 C 128.14 157.17 129.04 157.93 130.06 157.84 C 131.08 157.75 131.84 156.84 131.75 155.82 L 131.65 154.80 C 131.56 153.78 130.66 153.02 129.64 153.11 C 128.62 153.21 127.87 154.11 127.96 155.13 Z M 128.05 156.15 L 128.14 157.15 C 128.23 158.17 129.13 158.92 130.14 158.84 C 131.16 158.75 131.92 157.85 131.83 156.83 L 131.74 155.83 C 131.65 154.81 130.76 154.06 129.74 154.14 C 128.72 154.23 127.97 155.13 128.05 156.15 Z M 128.14 157.14 L 128.23 158.16 C 128.31 159.17 129.20 159.93 130.22 159.85 C 131.24 159.76 131.99 158.87 131.91 157.85 L 131.82 156.84 C 131.74 155.82 130.85 155.07 129.83 155.15 C 128.82 155.24 128.06 156.13 128.14 157.14 Z M 128.23 158.15 L 128.31 159.15 C 128.39 160.17 129.27 160.93 130.29 160.85 C 131.30 160.77 132.06 159.88 131.98 158.87 L 131.90 157.86 C 131.83 156.85 130.94 156.09 129.93 156.17 C 128.91 156.25 128.15 157.13 128.23 158.15 Z M 128.31 159.14 L 128.38 160.12 C 128.45 161.14 129.33 161.90 130.34 161.83 C 131.36 161.76 132.12 160.88 132.05 159.87 L 131.98 158.88 C 131.91 157.87 131.03 157.11 130.02 157.18 C 129.01 157.25 128.24 158.13 128.31 159.14 Z M 128.39 160.11 L 128.45 161.12 C 128.51 162.13 129.38 162.90 130.39 162.84 C 131.40 162.78 132.17 161.91 132.11 160.90 L 132.04 159.88 C 131.98 158.87 131.11 158.10 130.10 158.17 C 129.09 158.23 128.33 159.10 128.39 160.11 Z M 128.45 161.10 L 128.50 162.13 C 128.55 163.14 129.41 163.92 130.42 163.87 C 131.43 163.81 132.20 162.96 132.15 161.95 L 132.10 160.92 C 132.05 159.91 131.19 159.14 130.19 159.19 C 129.18 159.24 128.40 160.09 128.45 161.10 Z M 128.51 162.12 L 128.55 163.11 C 128.59 164.11 129.44 164.89 130.45 164.85 C 131.45 164.81 132.23 163.96 132.19 162.95 L 132.15 161.96 C 132.11 160.96 131.26 160.18 130.25 160.22 C 129.25 160.26 128.47 161.11 128.51 162.12 Z M 128.55 163.10 L 128.59 164.06 C 128.63 165.06 129.47 165.85 130.47 165.81 C 131.48 165.77 132.26 164.93 132.22 163.93 L 132.19 162.96 C 132.15 161.96 131.31 161.18 130.30 161.21 C 129.30 161.25 128.52 162.09 128.55 163.10 Z M 128.59 164.06 L 128.63 165.05 C 128.66 166.05 129.50 166.83 130.50 166.80 C 131.50 166.76 132.29 165.92 132.25 164.92 L 132.22 163.93 C 132.18 162.93 131.34 162.15 130.34 162.18 C 129.34 162.22 128.56 163.06 128.59 164.06 Z M 128.63 165.05 L 128.67 166.07 C 128.71 167.06 129.54 167.84 130.54 167.81 C 131.54 167.77 132.32 166.93 132.28 165.94 L 132.25 164.92 C 132.21 163.92 131.37 163.14 130.38 163.18 C 129.38 163.22 128.60 164.05 128.63 165.05 Z M 128.68 166.07 L 128.71 167.06 C 128.75 168.06 129.58 168.83 130.58 168.80 C 131.57 168.76 132.35 167.93 132.31 166.93 L 132.28 165.94 C 132.24 164.94 131.41 164.17 130.41 164.20 C 129.42 164.24 128.64 165.07 128.68 166.07 Z M 128.72 167.07 L 128.75 168.04 C 128.79 169.03 129.62 169.80 130.62 169.77 C 131.61 169.73 132.38 168.90 132.34 167.91 L 132.31 166.93 C 132.27 165.94 131.44 165.17 130.45 165.21 C 129.46 165.24 128.68 166.07 128.72 167.07 Z M 128.76 168.04 L 128.80 168.97 C 128.83 169.96 129.66 170.73 130.65 170.69 C 131.64 170.65 132.41 169.82 132.37 168.83 L 132.34 167.91 C 132.30 166.92 131.47 166.15 130.48 166.18 C 129.49 166.22 128.72 167.05 128.76 168.04 Z M 128.80 168.96 L 128.83 169.91 C 128.87 170.89 129.69 171.66 130.68 171.63 C 131.66 171.59 132.43 170.77 132.40 169.78 L 132.37 168.84 C 132.33 167.85 131.51 167.08 130.52 167.12 C 129.54 167.15 128.77 167.98 128.80 168.96 Z M 128.84 169.89 L 128.87 170.90 C 128.89 171.89 129.71 172.66 130.69 172.63 C 131.68 172.61 132.45 171.79 132.42 170.81 L 132.39 169.79 C 132.37 168.81 131.55 168.04 130.57 168.07 C 129.59 168.09 128.81 168.91 128.84 169.89 Z M 128.87 170.89 L 128.89 171.99 C 128.91 172.97 129.72 173.75 130.70 173.73 C 131.68 173.71 132.46 172.90 132.44 171.92 L 132.42 170.82 C 132.40 169.84 131.59 169.06 130.61 169.08 C 129.63 169.10 128.85 169.91 128.87 170.89 Z M 128.90 171.97 L 128.91 172.91 C 128.92 173.89 129.72 174.67 130.69 174.66 C 131.67 174.65 132.45 173.85 132.44 172.87 L 132.43 171.94 C 132.42 170.96 131.62 170.18 130.65 170.19 C 129.67 170.20 128.89 171.00 128.90 171.97 Z M 128.91 172.90 L 128.91 173.89 C 128.91 174.87 129.71 175.66 130.68 175.65 C 131.66 175.65 132.44 174.86 132.44 173.89 L 132.44 172.89 C 132.44 171.91 131.65 171.12 130.67 171.13 C 129.70 171.13 128.91 171.92 128.91 172.90 Z M 128.91 173.88 L 128.91 174.91 C 128.90 175.88 129.68 176.67 130.66 176.68 C 131.63 176.69 132.42 175.90 132.43 174.93 L 132.44 173.90 C 132.45 172.93 131.66 172.13 130.69 172.13 C 129.72 172.12 128.92 172.90 128.91 173.88 Z M 128.91 174.89 L 128.89 175.92 C 128.87 176.89 129.65 177.70 130.62 177.71 C 131.59 177.73 132.39 176.96 132.41 175.99 L 132.43 174.95 C 132.45 173.98 131.67 173.18 130.70 173.16 C 129.73 173.14 128.93 173.92 128.91 174.89 Z M 128.90 175.90 L 128.86 176.91 C 128.83 177.88 129.59 178.69 130.56 178.72 C 131.53 178.75 132.34 177.99 132.37 177.02 L 132.41 176.01 C 132.44 175.04 131.68 174.23 130.71 174.20 C 129.74 174.17 128.93 174.93 128.90 175.90 Z M 128.87 176.87 L 128.81 177.98 C 128.76 178.94 129.50 179.77 130.47 179.82 C 131.43 179.87 132.26 179.13 132.31 178.17 L 132.37 177.06 C 132.42 176.10 131.68 175.27 130.71 175.22 C 129.75 175.17 128.92 175.91 128.87 176.87 Z M 128.82 177.90 L 128.72 178.93 C 128.63 179.89 129.32 180.74 130.28 180.84 C 131.24 180.94 132.10 180.24 132.19 179.28 L 132.29 178.25 C 132.39 177.29 131.69 176.43 130.73 176.34 C 129.77 176.24 128.92 176.94 128.82 177.90 Z M 128.75 178.80 L 128.58 179.76 C 128.41 180.71 129.04 181.61 129.98 181.77 C 130.93 181.94 131.83 181.31 132.00 180.37 L 132.17 179.41 C 132.33 178.46 131.70 177.56 130.76 177.39 C 129.81 177.23 128.91 177.86 128.75 178.80 Z M 128.63 179.58 L 128.37 180.46 C 128.10 181.38 128.62 182.34 129.54 182.61 C 130.46 182.88 131.42 182.35 131.69 181.43 L 131.95 180.55 C 132.22 179.64 131.69 178.67 130.77 178.40 C 129.86 178.14 128.90 178.66 128.63 179.58 Z M 128.47 180.21 L 128.05 181.10 C 127.64 181.96 128.01 182.99 128.87 183.40 C 129.73 183.81 130.75 183.44 131.16 182.58 L 131.58 181.68 C 131.99 180.82 131.62 179.80 130.76 179.39 C 129.90 178.98 128.88 179.35 128.47 180.21 Z M 128.21 180.84 L 127.61 181.68 C 127.06 182.45 127.23 183.52 128.00 184.07 C 128.77 184.62 129.84 184.45 130.40 183.68 L 131.00 182.84 C 131.55 182.07 131.37 181.00 130.60 180.45 C 129.83 179.90 128.76 180.07 128.21 180.84 Z M 127.81 181.46 L 127.10 182.15 C 126.43 182.81 126.41 183.89 127.07 184.56 C 127.73 185.24 128.81 185.25 129.48 184.59 L 130.19 183.90 C 130.87 183.24 130.88 182.16 130.22 181.49 C 129.56 180.81 128.48 180.80 127.81 181.46 Z M 127.33 181.97 L 126.56 182.51 C 125.78 183.04 125.59 184.09 126.12 184.87 C 126.65 185.64 127.70 185.84 128.48 185.30 L 129.25 184.77 C 130.03 184.24 130.22 183.18 129.69 182.41 C 129.16 181.64 128.10 181.44 127.33 181.97 Z M 126.86 182.35 L 125.94 182.74 C 125.08 183.10 124.68 184.09 125.04 184.95 C 125.41 185.81 126.39 186.21 127.25 185.85 L 128.17 185.46 C 129.03 185.10 129.43 184.11 129.07 183.25 C 128.71 182.39 127.72 181.99 126.86 182.35 Z M 126.40 182.63 L 125.44 182.75 C 124.52 182.86 123.87 183.69 123.98 184.61 C 124.09 185.53 124.93 186.18 125.84 186.07 L 126.80 185.95 C 127.71 185.84 128.37 185.01 128.26 184.09 C 128.14 183.18 127.31 182.52 126.40 182.63 Z M 125.99 182.79 L 125.00 182.58 C 124.11 182.39 123.23 182.96 123.04 183.86 C 122.85 184.75 123.42 185.63 124.32 185.82 L 125.30 186.03 C 126.19 186.22 127.07 185.65 127.26 184.75 C 127.45 183.86 126.88 182.98 125.99 182.79 Z M 125.43 182.75 L 124.63 182.32 C 123.83 181.90 122.83 182.21 122.41 183.01 C 121.98 183.81 122.29 184.81 123.09 185.24 L 123.89 185.66 C 124.70 186.08 125.69 185.78 126.12 184.97 C 126.54 184.17 126.24 183.17 125.43 182.75 Z M 124.86 182.47 L 124.12 181.91 C 123.40 181.36 122.37 181.50 121.82 182.22 C 121.27 182.94 121.40 183.97 122.13 184.52 L 122.86 185.09 C 123.59 185.64 124.62 185.50 125.17 184.78 C 125.72 184.06 125.58 183.03 124.86 182.47 Z M 124.25 182.02 L 123.50 181.32 C 122.84 180.70 121.80 180.73 121.18 181.40 C 120.56 182.06 120.60 183.10 121.26 183.72 L 122.00 184.41 C 122.66 185.03 123.70 185.00 124.32 184.34 C 124.94 183.67 124.91 182.64 124.25 182.02 Z M 123.57 181.39 L 122.82 180.60 C 122.20 179.95 121.17 179.92 120.51 180.54 C 119.85 181.16 119.82 182.20 120.44 182.86 L 121.19 183.64 C 121.81 184.30 122.85 184.33 123.51 183.71 C 124.16 183.09 124.19 182.05 123.57 181.39 Z M 122.86 180.65 L 122.15 179.84 C 121.56 179.17 120.52 179.10 119.84 179.70 C 119.16 180.30 119.10 181.33 119.70 182.01 L 120.41 182.81 C 121.00 183.49 122.04 183.56 122.72 182.96 C 123.40 182.36 123.46 181.32 122.86 180.65 Z M 122.17 179.87 L 121.53 179.11 C 120.95 178.43 119.91 178.34 119.23 178.93 C 118.54 179.51 118.45 180.55 119.04 181.24 L 119.68 181.99 C 120.27 182.68 121.30 182.76 121.99 182.18 C 122.68 181.59 122.76 180.56 122.17 179.87 Z M 121.55 179.13 L 120.91 178.36 C 120.33 177.67 119.30 177.57 118.61 178.15 C 117.91 178.72 117.81 179.76 118.39 180.45 L 119.03 181.22 C 119.60 181.92 120.63 182.01 121.33 181.44 C 122.03 180.86 122.12 179.83 121.55 179.13 Z M 120.92 178.37 L 120.29 177.59 C 119.72 176.89 118.68 176.79 117.98 177.36 C 117.28 177.93 117.18 178.96 117.75 179.66 L 118.38 180.44 C 118.95 181.14 119.98 181.25 120.68 180.68 C 121.38 180.11 121.49 179.08 120.92 178.37 Z M 120.29 177.60 L 119.66 176.82 C 119.09 176.11 118.06 176.00 117.36 176.57 C 116.65 177.13 116.54 178.16 117.11 178.87 L 117.74 179.65 C 118.31 180.36 119.34 180.47 120.04 179.90 C 120.75 179.34 120.86 178.31 120.29 177.60 Z M 119.66 176.82 L 119.23 176.28 C 118.67 175.58 117.64 175.46 116.93 176.03 C 116.23 176.59 116.11 177.62 116.68 178.33 L 117.11 178.86 C 117.67 179.57 118.70 179.68 119.41 179.12 C 120.11 178.55 120.23 177.52 119.66 176.82 Z"
      fill="black"
      fill-rule="nonzero" /><path d="M 111.99 142.93 L 112.85 142.65 C 113.79 142.36 114.31 141.35 114.02 140.41 C 113.72 139.47 112.71 138.95 111.77 139.25 L 110.92 139.52 C 109.98 139.81 109.45 140.82 109.75 141.76 C 110.05 142.70 111.05 143.22 111.99 142.93 Z M 112.82 142.68 L 113.72 142.41 C 114.67 142.14 115.22 141.14 114.94 140.18 C 114.66 139.23 113.66 138.68 112.71 138.96 L 111.81 139.22 C 110.85 139.50 110.30 140.50 110.58 141.46 C 110.86 142.41 111.86 142.96 112.82 142.68 Z M 113.66 142.45 L 114.65 142.19 C 115.62 141.95 116.21 140.97 115.97 139.99 C 115.72 139.02 114.74 138.43 113.77 138.68 L 112.77 138.93 C 111.80 139.17 111.21 140.16 111.45 141.13 C 111.70 142.10 112.68 142.69 113.66 142.45 Z M 114.57 142.22 L 115.67 142.00 C 116.66 141.80 117.30 140.84 117.10 139.85 C 116.90 138.86 115.93 138.22 114.94 138.42 L 113.84 138.65 C 112.86 138.85 112.22 139.81 112.42 140.80 C 112.62 141.79 113.58 142.43 114.57 142.22 Z M 115.61 142.01 L 116.49 141.86 C 117.48 141.70 118.16 140.76 117.99 139.77 C 117.83 138.78 116.89 138.10 115.90 138.27 L 115.01 138.42 C 114.02 138.58 113.35 139.52 113.51 140.51 C 113.68 141.50 114.61 142.17 115.61 142.01 Z M 116.45 141.85 L 117.41 141.71 C 118.39 141.57 119.08 140.66 118.94 139.67 C 118.79 138.68 117.88 138.00 116.89 138.14 L 115.94 138.28 C 114.95 138.42 114.27 139.34 114.41 140.32 C 114.55 141.31 115.47 141.99 116.45 141.85 Z M 117.38 141.70 L 118.38 141.57 C 119.36 141.44 120.05 140.55 119.93 139.57 C 119.80 138.59 118.90 137.90 117.92 138.02 L 116.92 138.15 C 115.94 138.28 115.25 139.18 115.38 140.16 C 115.50 141.14 116.40 141.83 117.38 141.70 Z M 118.37 141.56 L 119.41 141.43 C 120.38 141.31 121.07 140.42 120.95 139.45 C 120.83 138.48 119.95 137.79 118.97 137.91 L 117.94 138.04 C 116.97 138.16 116.28 139.04 116.39 140.01 C 116.51 140.98 117.40 141.67 118.37 141.56 Z M 119.40 141.41 L 120.45 141.28 C 121.42 141.17 122.10 140.29 121.99 139.33 C 121.87 138.37 121.00 137.68 120.03 137.80 L 118.98 137.93 C 118.02 138.04 117.33 138.92 117.45 139.88 C 117.56 140.84 118.44 141.53 119.40 141.41 Z M 120.46 141.27 L 121.53 141.14 C 122.48 141.02 123.16 140.15 123.04 139.20 C 122.92 138.24 122.05 137.57 121.10 137.68 L 120.03 137.82 C 119.08 137.94 118.40 138.80 118.52 139.76 C 118.64 140.71 119.50 141.39 120.46 141.27 Z M 121.53 141.12 L 122.61 140.98 C 123.55 140.86 124.22 139.99 124.10 139.05 C 123.98 138.11 123.12 137.44 122.17 137.56 L 121.10 137.70 C 120.15 137.82 119.49 138.69 119.61 139.63 C 119.73 140.57 120.59 141.24 121.53 141.12 Z M 122.62 140.96 L 123.66 140.82 C 124.59 140.70 125.25 139.84 125.12 138.91 C 125.00 137.98 124.14 137.32 123.21 137.44 L 122.17 137.58 C 121.24 137.71 120.58 138.56 120.70 139.50 C 120.83 140.43 121.68 141.08 122.62 140.96 Z M 123.66 140.80 L 124.65 140.67 C 125.58 140.55 126.22 139.70 126.10 138.77 C 125.97 137.85 125.13 137.20 124.20 137.33 L 123.21 137.46 C 122.29 137.59 121.64 138.44 121.76 139.36 C 121.89 140.28 122.74 140.93 123.66 140.80 Z M 124.65 140.65 L 125.58 140.53 C 126.50 140.40 127.13 139.56 127.01 138.65 C 126.89 137.73 126.04 137.09 125.13 137.22 L 124.20 137.35 C 123.29 137.47 122.65 138.31 122.77 139.23 C 122.90 140.14 123.74 140.78 124.65 140.65 Z M 125.58 140.51 L 126.47 140.39 C 127.37 140.26 128.01 139.43 127.88 138.53 C 127.76 137.62 126.93 136.99 126.02 137.11 L 125.13 137.24 C 124.23 137.36 123.60 138.19 123.72 139.10 C 123.84 140.00 124.68 140.63 125.58 140.51 Z M 126.47 140.38 L 127.59 140.23 C 128.49 140.10 129.12 139.28 129.00 138.38 C 128.88 137.48 128.05 136.85 127.15 136.97 L 126.03 137.12 C 125.13 137.24 124.50 138.07 124.62 138.97 C 124.74 139.87 125.57 140.50 126.47 140.38 Z M 127.59 140.22 L 128.57 140.09 C 129.47 139.98 130.10 139.15 129.98 138.25 C 129.86 137.35 129.04 136.72 128.14 136.84 L 127.16 136.97 C 126.26 137.09 125.63 137.92 125.75 138.81 C 125.87 139.71 126.69 140.34 127.59 140.22 Z M 128.57 140.09 L 129.46 139.98 C 130.36 139.86 130.99 139.03 130.88 138.14 C 130.76 137.24 129.94 136.61 129.04 136.73 L 128.14 136.84 C 127.25 136.96 126.61 137.78 126.73 138.68 C 126.85 139.58 127.67 140.21 128.57 140.09 Z M 129.46 139.97 L 130.37 139.86 C 131.27 139.74 131.90 138.92 131.78 138.02 C 131.67 137.12 130.84 136.49 129.95 136.61 L 129.04 136.73 C 128.14 136.84 127.51 137.67 127.63 138.56 C 127.74 139.46 128.57 140.09 129.46 139.97 Z M 130.37 139.86 L 131.32 139.73 C 132.22 139.62 132.85 138.80 132.74 137.90 C 132.63 137.01 131.81 136.37 130.91 136.49 L 129.95 136.61 C 129.06 136.72 128.42 137.54 128.54 138.44 C 128.65 139.34 129.47 139.97 130.37 139.86 Z M 131.31 139.73 L 132.32 139.61 C 133.22 139.50 133.86 138.69 133.75 137.79 C 133.64 136.89 132.82 136.25 131.92 136.36 L 130.92 136.48 C 130.02 136.59 129.38 137.41 129.49 138.31 C 129.60 139.20 130.42 139.84 131.31 139.73 Z M 132.31 139.61 L 133.33 139.50 C 134.22 139.40 134.87 138.59 134.77 137.69 C 134.67 136.79 133.86 136.14 132.96 136.25 L 131.94 136.36 C 131.04 136.46 130.39 137.27 130.50 138.17 C 130.60 139.07 131.41 139.72 132.31 139.61 Z M 133.31 139.50 L 134.27 139.40 C 135.17 139.30 135.82 138.50 135.72 137.60 C 135.63 136.70 134.82 136.05 133.93 136.14 L 132.97 136.24 C 132.07 136.34 131.42 137.14 131.51 138.04 C 131.61 138.94 132.42 139.59 133.31 139.50 Z M 134.26 139.40 L 135.26 139.30 C 136.16 139.21 136.82 138.41 136.73 137.51 C 136.63 136.61 135.83 135.95 134.93 136.04 L 133.93 136.14 C 133.03 136.23 132.38 137.04 132.47 137.94 C 132.56 138.83 133.36 139.49 134.26 139.40 Z M 135.26 139.30 L 136.28 139.20 C 137.18 139.11 137.84 138.31 137.75 137.41 C 137.67 136.51 136.86 135.85 135.97 135.94 L 134.94 136.04 C 134.04 136.13 133.38 136.93 133.47 137.83 C 133.56 138.73 134.36 139.39 135.26 139.30 Z M 136.28 139.20 L 136.94 139.14 C 137.84 139.05 138.50 138.25 138.42 137.35 C 138.33 136.45 137.53 135.79 136.63 135.88 L 135.97 135.94 C 135.07 136.03 134.41 136.83 134.50 137.73 C 134.58 138.63 135.38 139.29 136.28 139.20 Z"
      fill="black"
      fill-rule="nonzero" /><path d="M 114.55 156.12 L 115.49 156.02 C 116.46 155.92 117.17 155.05 117.07 154.08 C 116.97 153.10 116.10 152.40 115.13 152.50 L 114.19 152.59 C 113.22 152.69 112.51 153.56 112.61 154.54 C 112.71 155.51 113.58 156.22 114.55 156.12 Z M 115.52 156.02 L 116.47 155.90 C 117.44 155.78 118.14 154.90 118.02 153.93 C 117.90 152.96 117.02 152.27 116.05 152.38 L 115.10 152.50 C 114.12 152.62 113.43 153.50 113.55 154.47 C 113.67 155.44 114.55 156.13 115.52 156.02 Z M 116.53 155.89 L 117.52 155.74 C 118.49 155.59 119.15 154.69 119.00 153.72 C 118.85 152.75 117.95 152.09 116.98 152.24 L 115.99 152.39 C 115.02 152.54 114.36 153.45 114.51 154.41 C 114.66 155.38 115.56 156.04 116.53 155.89 Z M 117.60 155.73 L 118.64 155.52 C 119.60 155.33 120.22 154.40 120.03 153.44 C 119.84 152.48 118.91 151.85 117.95 152.04 L 116.90 152.25 C 115.94 152.44 115.32 153.38 115.51 154.34 C 115.70 155.30 116.64 155.92 117.60 155.73 Z M 118.72 155.49 L 119.71 155.25 C 120.65 155.01 121.23 154.06 120.99 153.11 C 120.76 152.17 119.80 151.59 118.86 151.83 L 117.87 152.07 C 116.93 152.31 116.35 153.26 116.59 154.21 C 116.82 155.15 117.78 155.73 118.72 155.49 Z M 119.76 155.21 L 120.73 154.93 C 121.66 154.67 122.19 153.70 121.93 152.78 C 121.66 151.86 120.70 151.32 119.78 151.59 L 118.80 151.87 C 117.88 152.13 117.34 153.09 117.61 154.02 C 117.87 154.94 118.84 155.48 119.76 155.21 Z M 120.77 154.89 L 121.75 154.58 C 122.66 154.30 123.16 153.34 122.87 152.43 C 122.59 151.53 121.63 151.03 120.72 151.31 L 119.74 151.62 C 118.84 151.91 118.34 152.87 118.62 153.77 C 118.90 154.68 119.87 155.18 120.77 154.89 Z M 121.78 154.55 L 122.74 154.22 C 123.63 153.93 124.10 152.97 123.81 152.09 C 123.51 151.20 122.55 150.73 121.67 151.02 L 120.70 151.35 C 119.82 151.65 119.34 152.60 119.64 153.49 C 119.94 154.37 120.89 154.85 121.78 154.55 Z M 122.76 154.19 L 123.68 153.87 C 124.55 153.56 125.00 152.61 124.70 151.75 C 124.39 150.88 123.44 150.42 122.57 150.73 L 121.65 151.06 C 120.79 151.36 120.33 152.31 120.64 153.18 C 120.94 154.04 121.89 154.50 122.76 154.19 Z M 123.69 153.84 L 124.68 153.48 C 125.53 153.17 125.97 152.23 125.66 151.37 C 125.35 150.52 124.40 150.08 123.55 150.39 L 122.56 150.75 C 121.71 151.07 121.27 152.01 121.58 152.86 C 121.89 153.72 122.84 154.16 123.69 153.84 Z M 124.69 153.47 L 125.66 153.11 C 126.51 152.79 126.93 151.84 126.61 150.99 C 126.29 150.14 125.35 149.72 124.50 150.04 L 123.53 150.40 C 122.69 150.72 122.26 151.67 122.58 152.52 C 122.90 153.36 123.85 153.79 124.69 153.47 Z M 125.67 153.10 L 126.57 152.75 C 127.42 152.42 127.84 151.48 127.51 150.63 C 127.18 149.79 126.23 149.37 125.39 149.69 L 124.49 150.04 C 123.64 150.37 123.22 151.32 123.55 152.16 C 123.88 153.01 124.83 153.43 125.67 153.10 Z M 126.58 152.75 L 127.46 152.41 C 128.30 152.08 128.72 151.13 128.39 150.28 C 128.06 149.44 127.11 149.02 126.26 149.35 L 125.39 149.70 C 124.54 150.03 124.13 150.98 124.46 151.82 C 124.79 152.66 125.74 153.08 126.58 152.75 Z M 127.45 152.41 L 128.35 152.06 C 129.19 151.73 129.61 150.78 129.28 149.94 C 128.96 149.10 128.01 148.68 127.17 149.00 L 126.27 149.35 C 125.43 149.68 125.01 150.63 125.33 151.47 C 125.66 152.32 126.61 152.73 127.45 152.41 Z M 128.34 152.06 L 129.27 151.70 C 130.12 151.38 130.54 150.43 130.21 149.59 C 129.89 148.75 128.94 148.32 128.10 148.65 L 127.17 149.00 C 126.33 149.33 125.91 150.27 126.23 151.12 C 126.55 151.96 127.50 152.38 128.34 152.06 Z M 129.26 151.71 L 130.21 151.35 C 131.05 151.03 131.48 150.09 131.16 149.24 C 130.84 148.39 129.89 147.97 129.05 148.29 L 128.11 148.64 C 127.26 148.96 126.83 149.91 127.15 150.75 C 127.47 151.60 128.42 152.03 129.26 151.71 Z M 130.20 151.35 L 131.15 151.00 C 132.00 150.68 132.43 149.74 132.11 148.89 C 131.79 148.05 130.85 147.62 130.01 147.93 L 129.06 148.29 C 128.21 148.60 127.78 149.54 128.09 150.39 C 128.41 151.24 129.35 151.67 130.20 151.35 Z M 131.14 151.00 L 132.10 150.65 C 132.94 150.34 133.38 149.40 133.07 148.55 C 132.75 147.70 131.81 147.27 130.97 147.58 L 130.01 147.93 C 129.16 148.24 128.73 149.18 129.04 150.03 C 129.35 150.88 130.29 151.31 131.14 151.00 Z M 132.09 150.65 L 133.04 150.30 C 133.89 149.99 134.33 149.05 134.02 148.20 C 133.71 147.36 132.77 146.92 131.92 147.23 L 130.97 147.58 C 130.12 147.89 129.68 148.83 129.99 149.68 C 130.30 150.53 131.24 150.96 132.09 150.65 Z M 133.05 150.30 L 133.98 149.96 C 134.83 149.64 135.26 148.70 134.95 147.85 C 134.64 147.01 133.70 146.57 132.85 146.89 L 131.91 147.23 C 131.06 147.54 130.63 148.49 130.94 149.33 C 131.26 150.18 132.20 150.62 133.05 150.30 Z M 133.99 149.95 L 134.92 149.60 C 135.76 149.28 136.19 148.34 135.87 147.49 C 135.55 146.65 134.61 146.22 133.76 146.54 L 132.84 146.89 C 131.99 147.21 131.57 148.15 131.89 149.00 C 132.20 149.85 133.15 150.27 133.99 149.95 Z M 134.94 149.60 L 135.87 149.23 C 136.71 148.90 137.13 147.95 136.80 147.11 C 136.47 146.27 135.52 145.85 134.67 146.18 L 133.74 146.55 C 132.90 146.88 132.48 147.83 132.81 148.67 C 133.14 149.51 134.09 149.93 134.94 149.60 Z M 135.89 149.22 L 136.82 148.85 C 137.66 148.50 138.06 147.55 137.72 146.71 C 137.38 145.87 136.42 145.47 135.58 145.81 L 134.65 146.19 C 133.82 146.53 133.41 147.49 133.76 148.32 C 134.10 149.16 135.05 149.56 135.89 149.22 Z M 136.83 148.84 L 137.75 148.46 C 138.58 148.11 138.98 147.15 138.63 146.32 C 138.28 145.48 137.33 145.09 136.49 145.43 L 135.57 145.82 C 134.74 146.17 134.34 147.12 134.69 147.96 C 135.04 148.79 136.00 149.19 136.83 148.84 Z M 137.76 148.45 L 138.67 148.07 C 139.50 147.72 139.89 146.76 139.54 145.92 C 139.19 145.09 138.23 144.70 137.40 145.05 L 136.48 145.44 C 135.65 145.79 135.26 146.75 135.61 147.58 C 135.96 148.42 136.92 148.81 137.76 148.45 Z M 138.67 148.07 L 138.75 148.03 C 139.58 147.68 139.97 146.72 139.62 145.89 C 139.27 145.06 138.31 144.67 137.47 145.02 L 137.40 145.05 C 136.56 145.40 136.17 146.37 136.53 147.20 C 136.88 148.03 137.84 148.42 138.67 148.07 Z"
      fill="black"
      fill-rule="nonzero" /><path d="M 163.40 101.98 L 162.83 102.81 C 162.27 103.64 162.48 104.77 163.31 105.34 C 164.14 105.91 165.28 105.70 165.85 104.86 L 166.41 104.04 C 166.98 103.21 166.76 102.08 165.93 101.51 C 165.10 100.94 163.96 101.15 163.40 101.98 Z M 162.82 102.80 L 162.26 103.63 C 161.69 104.47 161.91 105.61 162.75 106.18 C 163.59 106.75 164.73 106.53 165.30 105.69 L 165.86 104.87 C 166.43 104.03 166.21 102.89 165.37 102.32 C 164.53 101.75 163.39 101.97 162.82 102.80 Z M 162.25 103.63 L 161.69 104.47 C 161.12 105.31 161.35 106.46 162.19 107.03 C 163.03 107.59 164.18 107.37 164.75 106.52 L 165.31 105.69 C 165.88 104.84 165.65 103.70 164.81 103.13 C 163.96 102.56 162.82 102.79 162.25 103.63 Z M 161.67 104.47 L 161.14 105.28 C 160.57 106.14 160.81 107.29 161.66 107.85 C 162.52 108.42 163.67 108.18 164.23 107.33 L 164.77 106.52 C 165.33 105.66 165.09 104.51 164.24 103.95 C 163.38 103.38 162.23 103.62 161.67 104.47 Z M 161.11 105.30 L 160.58 106.13 C 160.02 107.00 160.28 108.16 161.15 108.71 C 162.02 109.27 163.17 109.01 163.72 108.14 L 164.26 107.31 C 164.81 106.44 164.56 105.29 163.69 104.73 C 162.82 104.18 161.67 104.43 161.11 105.30 Z M 160.54 106.16 L 160.01 107.04 C 159.47 107.93 159.76 109.08 160.64 109.62 C 161.53 110.16 162.69 109.88 163.23 108.99 L 163.76 108.11 C 164.30 107.23 164.01 106.07 163.13 105.53 C 162.24 104.99 161.08 105.27 160.54 106.16 Z M 159.98 107.08 L 159.49 107.93 C 158.98 108.83 159.29 109.99 160.20 110.50 C 161.10 111.02 162.26 110.71 162.77 109.80 L 163.26 108.95 C 163.78 108.05 163.46 106.89 162.56 106.37 C 161.65 105.86 160.50 106.17 159.98 107.08 Z M 159.47 107.97 L 159.00 108.83 C 158.51 109.75 158.85 110.90 159.77 111.39 C 160.69 111.89 161.84 111.54 162.34 110.62 L 162.80 109.76 C 163.30 108.84 162.95 107.69 162.03 107.19 C 161.11 106.70 159.96 107.04 159.47 107.97 Z M 158.98 108.86 L 158.52 109.77 C 158.04 110.70 158.42 111.85 159.35 112.32 C 160.29 112.79 161.43 112.42 161.91 111.49 L 162.36 110.58 C 162.84 109.65 162.46 108.50 161.53 108.03 C 160.59 107.56 159.45 107.93 158.98 108.86 Z M 158.50 109.81 L 158.04 110.75 C 157.59 111.70 157.99 112.84 158.94 113.29 C 159.89 113.74 161.02 113.34 161.48 112.39 L 161.93 111.45 C 162.38 110.50 161.98 109.36 161.03 108.91 C 160.08 108.46 158.95 108.86 158.50 109.81 Z M 158.03 110.79 L 157.69 111.53 C 157.26 112.49 157.68 113.62 158.64 114.05 C 159.60 114.48 160.73 114.06 161.16 113.10 L 161.50 112.36 C 161.93 111.40 161.50 110.27 160.54 109.84 C 159.59 109.40 158.46 109.83 158.03 110.79 Z M 157.67 111.57 L 157.34 112.36 C 156.92 113.33 157.37 114.45 158.34 114.86 C 159.31 115.27 160.43 114.82 160.84 113.86 L 161.18 113.06 C 161.59 112.09 161.14 110.97 160.17 110.56 C 159.21 110.15 158.09 110.60 157.67 111.57 Z M 157.32 112.40 L 156.96 113.29 C 156.57 114.27 157.05 115.38 158.02 115.77 C 159.00 116.16 160.11 115.68 160.50 114.71 L 160.85 113.82 C 161.24 112.84 160.77 111.73 159.79 111.34 C 158.82 110.95 157.71 111.42 157.32 112.40 Z M 156.95 113.33 L 156.56 114.35 C 156.19 115.34 156.69 116.43 157.67 116.80 C 158.65 117.18 159.75 116.68 160.12 115.70 L 160.51 114.67 C 160.88 113.69 160.39 112.59 159.40 112.22 C 158.42 111.85 157.32 112.34 156.95 113.33 Z M 156.55 114.38 L 156.12 115.58 C 155.77 116.57 156.28 117.65 157.27 118.01 C 158.26 118.36 159.35 117.85 159.71 116.86 L 160.13 115.67 C 160.49 114.68 159.97 113.59 158.98 113.23 C 158.00 112.88 156.91 113.39 156.55 114.38 Z M 156.12 115.60 L 155.81 116.48 C 155.47 117.48 156.00 118.56 156.99 118.90 C 157.98 119.24 159.06 118.72 159.40 117.73 L 159.71 116.84 C 160.05 115.85 159.53 114.76 158.54 114.42 C 157.54 114.08 156.46 114.60 156.12 115.60 Z M 155.81 116.50 L 155.49 117.45 C 155.15 118.44 155.69 119.52 156.68 119.85 C 157.67 120.19 158.75 119.66 159.08 118.66 L 159.41 117.71 C 159.74 116.72 159.21 115.64 158.22 115.31 C 157.22 114.97 156.15 115.50 155.81 116.50 Z M 155.49 117.46 L 155.16 118.45 C 154.83 119.44 155.37 120.52 156.36 120.85 C 157.35 121.18 158.42 120.64 158.75 119.65 L 159.08 118.65 C 159.41 117.66 158.88 116.59 157.88 116.26 C 156.89 115.93 155.82 116.47 155.49 117.46 Z M 155.16 118.46 L 154.83 119.47 C 154.50 120.46 155.05 121.53 156.04 121.85 C 157.03 122.18 158.10 121.64 158.42 120.65 L 158.75 119.64 C 159.08 118.64 158.54 117.58 157.55 117.25 C 156.55 116.93 155.48 117.47 155.16 118.46 Z M 154.83 119.48 L 154.51 120.48 C 154.19 121.47 154.73 122.53 155.72 122.85 C 156.72 123.17 157.78 122.63 158.10 121.64 L 158.42 120.64 C 158.74 119.64 158.20 118.58 157.21 118.26 C 156.21 117.94 155.15 118.48 154.83 119.48 Z M 154.51 120.48 L 154.20 121.45 C 153.88 122.44 154.43 123.50 155.42 123.82 C 156.42 124.14 157.48 123.59 157.79 122.60 L 158.10 121.63 C 158.42 120.64 157.87 119.58 156.88 119.26 C 155.88 118.94 154.82 119.49 154.51 120.48 Z M 154.20 121.46 L 153.91 122.37 C 153.60 123.36 154.15 124.42 155.15 124.73 C 156.14 125.04 157.19 124.49 157.51 123.50 L 157.79 122.59 C 158.10 121.60 157.55 120.54 156.56 120.23 C 155.57 119.92 154.51 120.47 154.20 121.46 Z M 153.92 122.38 L 153.60 123.41 C 153.30 124.40 153.85 125.45 154.84 125.76 C 155.83 126.06 156.88 125.51 157.18 124.52 L 157.50 123.49 C 157.81 122.50 157.25 121.45 156.26 121.14 C 155.27 120.84 154.22 121.39 153.92 122.38 Z M 153.61 123.43 L 153.27 124.58 C 152.98 125.56 153.53 126.60 154.52 126.89 C 155.50 127.19 156.53 126.63 156.83 125.65 L 157.17 124.50 C 157.46 123.52 156.91 122.48 155.92 122.19 C 154.94 121.89 153.91 122.45 153.61 123.43 Z M 153.29 124.61 L 153.01 125.58 C 152.73 126.55 153.29 127.56 154.26 127.84 C 155.24 128.12 156.25 127.56 156.53 126.59 L 156.81 125.62 C 157.09 124.65 156.53 123.63 155.55 123.36 C 154.58 123.08 153.57 123.64 153.29 124.61 Z M 153.03 125.60 L 152.80 126.45 C 152.53 127.41 153.09 128.40 154.06 128.67 C 155.02 128.93 156.01 128.37 156.28 127.41 L 156.51 126.56 C 156.78 125.60 156.21 124.61 155.25 124.34 C 154.29 124.08 153.29 124.64 153.03 125.60 Z M 152.82 126.47 L 152.61 127.25 C 152.35 128.20 152.92 129.17 153.87 129.43 C 154.82 129.68 155.79 129.12 156.05 128.17 L 156.26 127.39 C 156.51 126.44 155.95 125.46 155.00 125.21 C 154.05 124.95 153.07 125.52 152.82 126.47 Z M 152.63 127.26 L 152.38 128.18 C 152.13 129.12 152.70 130.09 153.64 130.33 C 154.58 130.58 155.54 130.02 155.79 129.08 L 156.03 128.15 C 156.28 127.21 155.72 126.25 154.78 126.00 C 153.84 125.76 152.87 126.32 152.63 127.26 Z M 152.39 128.19 L 152.14 129.16 C 151.90 130.09 152.46 131.04 153.39 131.29 C 154.32 131.53 155.28 130.97 155.52 130.04 L 155.78 129.07 C 156.02 128.14 155.46 127.18 154.53 126.94 C 153.59 126.70 152.64 127.26 152.39 128.19 Z M 152.15 129.16 L 151.90 130.13 C 151.66 131.06 152.22 132.01 153.14 132.25 C 154.07 132.49 155.02 131.93 155.26 131.00 L 155.51 130.03 C 155.75 129.11 155.20 128.16 154.27 127.92 C 153.34 127.68 152.39 128.23 152.15 129.16 Z M 151.91 130.14 L 151.66 131.11 C 151.42 132.03 151.97 132.97 152.90 133.21 C 153.82 133.45 154.76 132.90 155.00 131.97 L 155.25 131.00 C 155.49 130.08 154.93 129.14 154.01 128.90 C 153.09 128.66 152.15 129.21 151.91 130.14 Z M 151.67 131.11 L 151.42 132.08 C 151.18 133.00 151.73 133.93 152.65 134.17 C 153.56 134.41 154.50 133.86 154.73 132.94 L 154.98 131.97 C 155.22 131.06 154.67 130.12 153.76 129.88 C 152.84 129.65 151.91 130.20 151.67 131.11 Z M 151.43 132.09 L 151.18 133.06 C 150.94 133.96 151.49 134.89 152.40 135.13 C 153.30 135.37 154.23 134.82 154.47 133.91 L 154.72 132.94 C 154.96 132.03 154.41 131.11 153.50 130.87 C 152.59 130.63 151.67 131.18 151.43 132.09 Z M 151.19 133.06 L 150.94 134.02 C 150.70 134.92 151.24 135.85 152.14 136.08 C 153.05 136.32 153.97 135.78 154.20 134.88 L 154.46 133.91 C 154.69 133.01 154.15 132.09 153.25 131.85 C 152.35 131.61 151.43 132.15 151.19 133.06 Z M 150.95 134.02 L 150.69 134.99 C 150.46 135.89 150.99 136.81 151.89 137.04 C 152.78 137.28 153.70 136.74 153.94 135.85 L 154.19 134.88 C 154.43 133.98 153.89 133.06 153.00 132.83 C 152.10 132.59 151.19 133.12 150.95 134.02 Z M 150.70 134.99 L 150.44 135.97 C 150.20 136.86 150.73 137.77 151.62 138.01 C 152.51 138.25 153.43 137.72 153.67 136.83 L 153.93 135.85 C 154.16 134.96 153.64 134.05 152.75 133.81 C 151.85 133.57 150.94 134.10 150.70 134.99 Z M 150.45 135.96 L 150.19 136.93 C 149.95 137.81 150.47 138.73 151.36 138.97 C 152.24 139.21 153.15 138.68 153.39 137.80 L 153.66 136.83 C 153.90 135.95 153.37 135.04 152.49 134.80 C 151.60 134.56 150.69 135.08 150.45 135.96 Z M 150.20 136.92 L 149.94 137.87 C 149.69 138.75 150.21 139.66 151.09 139.90 C 151.97 140.15 152.88 139.63 153.12 138.75 L 153.38 137.80 C 153.63 136.92 153.11 136.01 152.23 135.77 C 151.35 135.53 150.44 136.04 150.20 136.92 Z M 149.94 137.86 L 149.67 138.83 C 149.42 139.70 149.93 140.61 150.81 140.86 C 151.68 141.11 152.59 140.60 152.84 139.72 L 153.12 138.76 C 153.36 137.88 152.85 136.97 151.98 136.72 C 151.10 136.47 150.19 136.98 149.94 137.86 Z M 149.68 138.82 L 149.40 139.77 C 149.15 140.65 149.65 141.56 150.52 141.81 C 151.39 142.07 152.31 141.56 152.56 140.69 L 152.84 139.73 C 153.09 138.86 152.59 137.95 151.71 137.70 C 150.84 137.44 149.93 137.94 149.68 138.82 Z M 149.40 139.76 L 149.12 140.72 C 148.86 141.59 149.36 142.50 150.23 142.76 C 151.09 143.02 152.01 142.52 152.27 141.66 L 152.55 140.70 C 152.81 139.83 152.32 138.92 151.45 138.66 C 150.58 138.40 149.66 138.89 149.40 139.76 Z M 149.13 140.71 L 148.84 141.64 C 148.58 142.50 149.06 143.42 149.93 143.68 C 150.80 143.95 151.71 143.46 151.98 142.60 L 152.26 141.67 C 152.53 140.80 152.04 139.88 151.17 139.62 C 150.31 139.35 149.39 139.84 149.13 140.71 Z M 148.85 141.62 L 148.56 142.54 C 148.28 143.40 148.76 144.32 149.62 144.60 C 150.49 144.87 151.41 144.39 151.68 143.53 L 151.97 142.61 C 152.25 141.75 151.77 140.83 150.90 140.55 C 150.04 140.28 149.12 140.76 148.85 141.62 Z M 148.56 142.52 L 148.25 143.47 C 147.97 144.33 148.43 145.26 149.29 145.54 C 150.15 145.83 151.08 145.36 151.36 144.50 L 151.67 143.55 C 151.96 142.69 151.49 141.76 150.63 141.48 C 149.77 141.20 148.85 141.66 148.56 142.52 Z M 148.26 143.45 L 147.91 144.45 C 147.62 145.30 148.07 146.23 148.92 146.53 C 149.78 146.83 150.71 146.37 151.01 145.52 L 151.35 144.52 C 151.65 143.67 151.20 142.74 150.34 142.44 C 149.49 142.14 148.55 142.60 148.26 143.45 Z M 147.92 144.42 L 147.59 145.33 C 147.28 146.18 147.72 147.12 148.57 147.42 C 149.42 147.73 150.36 147.29 150.67 146.44 L 151.00 145.54 C 151.31 144.69 150.87 143.75 150.02 143.44 C 149.17 143.14 148.23 143.57 147.92 144.42 Z M 147.60 145.31 L 147.25 146.24 C 146.94 147.08 147.37 148.03 148.21 148.34 C 149.06 148.66 150.00 148.23 150.32 147.38 L 150.66 146.46 C 150.98 145.61 150.55 144.67 149.71 144.35 C 148.86 144.04 147.92 144.47 147.60 145.31 Z M 147.26 146.23 L 146.89 147.18 C 146.57 148.02 147.00 148.97 147.84 149.29 C 148.68 149.61 149.63 149.19 149.95 148.34 L 150.31 147.39 C 150.64 146.55 150.21 145.60 149.37 145.28 C 148.52 144.96 147.58 145.38 147.26 146.23 Z M 146.90 147.17 L 146.52 148.13 C 146.20 148.98 146.62 149.92 147.46 150.25 C 148.31 150.57 149.25 150.15 149.58 149.31 L 149.95 148.35 C 150.28 147.51 149.86 146.56 149.01 146.23 C 148.17 145.91 147.22 146.33 146.90 147.17 Z M 146.53 148.13 L 146.40 148.46 C 146.07 149.30 146.49 150.25 147.34 150.57 C 148.18 150.90 149.13 150.48 149.45 149.64 L 149.58 149.31 C 149.90 148.47 149.49 147.52 148.64 147.20 C 147.80 146.87 146.85 147.29 146.53 148.13 Z"
      fill="black"
      fill-rule="nonzero" /><path d="M 158.92 113.03 L 159.49 113.76 C 160.11 114.58 161.27 114.73 162.08 114.11 C 162.89 113.49 163.05 112.33 162.43 111.52 L 161.86 110.78 C 161.24 109.97 160.08 109.81 159.27 110.43 C 158.46 111.05 158.30 112.21 158.92 113.03 Z M 159.60 113.92 L 160.26 114.62 C 160.96 115.37 162.14 115.40 162.89 114.69 C 163.64 113.99 163.68 112.81 162.97 112.06 L 162.31 111.36 C 161.61 110.61 160.43 110.58 159.68 111.28 C 158.93 111.99 158.89 113.17 159.60 113.92 Z M 160.51 114.86 L 161.35 115.47 C 162.19 116.08 163.36 115.90 163.97 115.06 C 164.59 114.22 164.40 113.05 163.56 112.43 L 162.72 111.82 C 161.88 111.21 160.71 111.39 160.10 112.23 C 159.48 113.07 159.67 114.24 160.51 114.86 Z M 161.65 115.66 L 162.49 116.06 C 163.43 116.50 164.56 116.10 165.01 115.15 C 165.45 114.21 165.05 113.08 164.10 112.64 L 163.26 112.24 C 162.32 111.80 161.19 112.20 160.75 113.15 C 160.30 114.09 160.71 115.22 161.65 115.66 Z M 162.71 116.15 L 163.53 116.42 C 164.52 116.74 165.59 116.20 165.92 115.21 C 166.24 114.21 165.70 113.15 164.71 112.82 L 163.89 112.55 C 162.89 112.22 161.82 112.77 161.50 113.76 C 161.17 114.75 161.71 115.82 162.71 116.15 Z M 163.66 116.45 L 164.59 116.69 C 165.61 116.94 166.64 116.32 166.89 115.31 C 167.14 114.29 166.52 113.27 165.51 113.01 L 164.58 112.78 C 163.56 112.53 162.54 113.15 162.28 114.16 C 162.03 115.18 162.65 116.20 163.66 116.45 Z M 164.68 116.71 L 165.71 116.91 C 166.73 117.12 167.73 116.45 167.93 115.43 C 168.14 114.40 167.48 113.41 166.45 113.20 L 165.42 113.00 C 164.40 112.79 163.40 113.45 163.20 114.48 C 162.99 115.50 163.66 116.50 164.68 116.71 Z M 165.76 116.92 L 166.87 117.11 C 167.90 117.29 168.88 116.60 169.05 115.57 C 169.23 114.54 168.54 113.56 167.51 113.38 L 166.40 113.19 C 165.37 113.01 164.39 113.71 164.21 114.74 C 164.04 115.77 164.73 116.74 165.76 116.92 Z M 166.89 117.11 L 167.99 117.29 C 169.02 117.45 169.99 116.75 170.15 115.72 C 170.32 114.69 169.61 113.72 168.58 113.56 L 167.49 113.38 C 166.45 113.22 165.49 113.92 165.32 114.95 C 165.16 115.98 165.86 116.95 166.89 117.11 Z M 168.00 117.28 L 168.97 117.43 C 169.99 117.59 170.96 116.89 171.12 115.86 C 171.28 114.84 170.57 113.88 169.55 113.71 L 168.58 113.56 C 167.55 113.40 166.59 114.11 166.43 115.13 C 166.27 116.16 166.97 117.12 168.00 117.28 Z M 168.97 117.42 L 169.96 117.58 C 170.98 117.73 171.94 117.04 172.10 116.02 C 172.26 115.00 171.56 114.04 170.54 113.88 L 169.54 113.73 C 168.53 113.57 167.57 114.27 167.41 115.29 C 167.25 116.31 167.95 117.26 168.97 117.42 Z M 169.96 117.56 L 170.97 117.72 C 171.98 117.88 172.93 117.19 173.09 116.18 C 173.25 115.17 172.56 114.22 171.55 114.06 L 170.54 113.90 C 169.53 113.74 168.58 114.43 168.42 115.44 C 168.26 116.45 168.95 117.40 169.96 117.56 Z M 170.96 117.71 L 171.97 117.87 C 172.97 118.03 173.92 117.35 174.08 116.35 C 174.25 115.34 173.56 114.40 172.56 114.23 L 171.55 114.07 C 170.55 113.91 169.60 114.59 169.44 115.59 C 169.28 116.60 169.96 117.54 170.96 117.71 Z M 171.96 117.86 L 172.95 118.02 C 173.95 118.19 174.89 117.52 175.06 116.53 C 175.23 115.53 174.56 114.59 173.56 114.42 L 172.57 114.25 C 171.57 114.08 170.63 114.75 170.46 115.75 C 170.29 116.74 170.96 117.69 171.96 117.86 Z M 172.94 118.01 L 173.91 118.18 C 174.90 118.36 175.84 117.70 176.02 116.72 C 176.20 115.73 175.54 114.78 174.55 114.61 L 173.58 114.43 C 172.59 114.26 171.65 114.91 171.47 115.90 C 171.29 116.89 171.95 117.83 172.94 118.01 Z M 173.89 118.16 L 174.92 118.36 C 175.90 118.55 176.84 117.91 177.03 116.93 C 177.22 115.96 176.58 115.01 175.60 114.82 L 174.57 114.63 C 173.59 114.44 172.65 115.08 172.46 116.05 C 172.27 117.03 172.91 117.98 173.89 118.16 Z M 174.90 118.34 L 175.93 118.56 C 176.89 118.76 177.84 118.14 178.04 117.17 C 178.24 116.21 177.62 115.26 176.66 115.06 L 175.62 114.85 C 174.66 114.64 173.71 115.26 173.51 116.23 C 173.31 117.19 173.93 118.14 174.90 118.34 Z M 175.90 118.53 L 176.90 118.75 C 177.85 118.97 178.79 118.37 179.01 117.42 C 179.22 116.47 178.62 115.52 177.67 115.31 L 176.68 115.09 C 175.73 114.87 174.78 115.47 174.57 116.42 C 174.35 117.37 174.95 118.32 175.90 118.53 Z M 176.87 118.73 L 177.83 118.96 C 178.77 119.19 179.71 118.61 179.94 117.67 C 180.17 116.73 179.59 115.79 178.65 115.56 L 177.69 115.33 C 176.76 115.11 175.81 115.68 175.58 116.62 C 175.36 117.56 175.93 118.50 176.87 118.73 Z M 177.81 118.94 L 178.74 119.18 C 179.66 119.41 180.60 118.86 180.84 117.93 C 181.08 117.01 180.52 116.06 179.60 115.83 L 178.67 115.59 C 177.75 115.35 176.80 115.91 176.56 116.83 C 176.33 117.76 176.88 118.70 177.81 118.94 Z M 178.72 119.15 L 179.62 119.40 C 180.53 119.65 181.47 119.11 181.72 118.20 C 181.97 117.29 181.43 116.35 180.52 116.10 L 179.62 115.85 C 178.71 115.60 177.77 116.14 177.52 117.05 C 177.27 117.96 177.80 118.90 178.72 119.15 Z M 179.60 119.38 L 180.61 119.67 C 181.51 119.93 182.45 119.41 182.71 118.51 C 182.97 117.61 182.45 116.67 181.55 116.41 L 180.54 116.12 C 179.64 115.86 178.70 116.38 178.44 117.28 C 178.18 118.18 178.70 119.12 179.60 119.38 Z M 180.59 119.65 L 181.59 119.96 C 182.48 120.23 183.42 119.74 183.70 118.85 C 183.97 117.96 183.47 117.02 182.58 116.74 L 181.58 116.43 C 180.69 116.16 179.75 116.66 179.48 117.54 C 179.20 118.43 179.70 119.37 180.59 119.65 Z M 181.56 119.93 L 182.52 120.26 C 183.39 120.55 184.34 120.08 184.63 119.20 C 184.93 118.33 184.46 117.38 183.58 117.09 L 182.62 116.77 C 181.74 116.47 180.80 116.94 180.50 117.82 C 180.21 118.69 180.68 119.64 181.56 119.93 Z M 182.47 120.23 L 183.38 120.57 C 184.24 120.88 185.19 120.45 185.51 119.59 C 185.83 118.73 185.39 117.77 184.53 117.45 L 183.62 117.12 C 182.77 116.80 181.81 117.24 181.49 118.10 C 181.17 118.96 181.61 119.91 182.47 120.23 Z M 183.32 120.53 L 184.17 120.88 C 185.01 121.23 185.97 120.83 186.32 119.99 C 186.67 119.15 186.27 118.19 185.43 117.84 L 184.59 117.49 C 183.75 117.14 182.79 117.54 182.44 118.38 C 182.09 119.22 182.48 120.18 183.32 120.53 Z M 184.09 120.84 L 185.05 121.30 C 185.86 121.69 186.84 121.35 187.24 120.53 C 187.63 119.72 187.29 118.74 186.47 118.35 L 185.51 117.88 C 184.70 117.49 183.72 117.83 183.32 118.65 C 182.93 119.47 183.27 120.45 184.09 120.84 Z M 184.96 121.26 L 185.85 121.75 C 186.64 122.19 187.64 121.90 188.08 121.11 C 188.52 120.32 188.23 119.32 187.44 118.88 L 186.56 118.39 C 185.76 117.95 184.77 118.24 184.33 119.03 C 183.89 119.82 184.17 120.82 184.96 121.26 Z M 185.79 121.71 L 186.61 122.22 C 187.38 122.69 188.39 122.45 188.86 121.68 C 189.34 120.91 189.10 119.90 188.33 119.42 L 187.50 118.92 C 186.73 118.45 185.72 118.69 185.25 119.46 C 184.78 120.23 185.02 121.24 185.79 121.71 Z M 186.58 122.20 L 187.35 122.70 C 188.11 123.19 189.13 122.97 189.62 122.21 C 190.11 121.45 189.89 120.44 189.13 119.95 L 188.36 119.45 C 187.60 118.95 186.58 119.17 186.09 119.93 C 185.60 120.69 185.82 121.70 186.58 122.20 Z"
      fill="black"
      fill-rule="nonzero" /><path d="M 156.17 142.95 L 157.07 142.66 C 158.02 142.35 158.55 141.33 158.24 140.38 C 157.93 139.42 156.91 138.90 155.96 139.21 L 155.06 139.49 C 154.11 139.80 153.58 140.82 153.89 141.78 C 154.20 142.73 155.22 143.25 156.17 142.95 Z M 157.07 142.66 L 157.99 142.36 C 158.94 142.05 159.47 141.03 159.16 140.07 C 158.85 139.12 157.82 138.60 156.87 138.91 L 155.95 139.20 C 155.00 139.51 154.48 140.54 154.79 141.49 C 155.10 142.45 156.12 142.97 157.07 142.66 Z M 158.00 142.36 L 158.95 142.05 C 159.91 141.73 160.43 140.70 160.11 139.75 C 159.79 138.79 158.77 138.28 157.81 138.59 L 156.86 138.91 C 155.90 139.22 155.39 140.25 155.70 141.21 C 156.02 142.16 157.04 142.68 158.00 142.36 Z M 158.97 142.05 L 159.98 141.70 C 160.93 141.38 161.45 140.35 161.12 139.39 C 160.80 138.44 159.77 137.93 158.82 138.25 L 157.80 138.59 C 156.85 138.92 156.34 139.95 156.66 140.90 C 156.98 141.86 158.01 142.37 158.97 142.05 Z M 159.99 141.70 L 160.94 141.37 C 161.89 141.04 162.40 140.01 162.07 139.05 C 161.74 138.10 160.70 137.60 159.75 137.93 L 158.80 138.25 C 157.85 138.58 157.35 139.62 157.68 140.57 C 158.00 141.52 159.04 142.03 159.99 141.70 Z M 160.95 141.37 L 161.91 141.03 C 162.86 140.70 163.36 139.66 163.02 138.71 C 162.69 137.76 161.65 137.26 160.70 137.59 L 159.74 137.93 C 158.79 138.26 158.29 139.30 158.63 140.25 C 158.96 141.20 160.00 141.70 160.95 141.37 Z M 161.91 141.03 L 162.88 140.69 C 163.83 140.35 164.33 139.31 163.99 138.36 C 163.65 137.41 162.61 136.92 161.67 137.25 L 160.70 137.60 C 159.75 137.93 159.25 138.97 159.59 139.92 C 159.92 140.87 160.96 141.37 161.91 141.03 Z M 162.88 140.69 L 163.84 140.35 C 164.78 140.01 165.28 138.97 164.94 138.02 C 164.61 137.07 163.57 136.58 162.62 136.91 L 161.66 137.25 C 160.72 137.59 160.22 138.63 160.56 139.58 C 160.89 140.53 161.94 141.02 162.88 140.69 Z M 163.84 140.35 L 164.75 140.02 C 165.70 139.69 166.19 138.65 165.85 137.70 C 165.52 136.75 164.48 136.26 163.53 136.59 L 162.62 136.92 C 161.67 137.25 161.18 138.29 161.51 139.24 C 161.85 140.19 162.89 140.68 163.84 140.35 Z M 164.74 140.02 L 165.76 139.66 C 166.70 139.33 167.20 138.29 166.87 137.35 C 166.53 136.40 165.50 135.90 164.55 136.24 L 163.54 136.59 C 162.59 136.93 162.09 137.96 162.43 138.91 C 162.76 139.86 163.80 140.35 164.74 140.02 Z M 165.75 139.66 L 166.70 139.33 C 167.65 139.00 168.15 137.97 167.82 137.02 C 167.49 136.08 166.46 135.58 165.52 135.91 L 164.56 136.24 C 163.62 136.57 163.12 137.60 163.44 138.54 C 163.77 139.49 164.80 139.99 165.75 139.66 Z M 166.69 139.32 L 167.60 139.01 C 168.55 138.69 169.05 137.67 168.73 136.72 C 168.41 135.78 167.38 135.28 166.44 135.60 L 165.53 135.91 C 164.58 136.23 164.08 137.26 164.40 138.20 C 164.72 139.14 165.75 139.65 166.69 139.32 Z M 167.59 139.01 L 168.49 138.71 C 169.43 138.40 169.94 137.38 169.63 136.44 C 169.31 135.50 168.30 134.99 167.35 135.30 L 166.45 135.60 C 165.51 135.91 165.00 136.93 165.32 137.87 C 165.63 138.82 166.65 139.32 167.59 139.01 Z M 168.47 138.71 L 169.39 138.41 C 170.33 138.11 170.85 137.10 170.54 136.16 C 170.24 135.22 169.23 134.70 168.29 135.01 L 167.37 135.30 C 166.43 135.61 165.91 136.62 166.22 137.56 C 166.52 138.50 167.53 139.01 168.47 138.71 Z M 169.38 138.41 L 170.32 138.11 C 171.26 137.81 171.78 136.81 171.48 135.87 C 171.18 134.93 170.18 134.41 169.24 134.71 L 168.30 135.01 C 167.36 135.31 166.84 136.31 167.14 137.25 C 167.44 138.19 168.44 138.71 169.38 138.41 Z M 170.31 138.10 L 171.28 137.80 C 172.21 137.50 172.73 136.51 172.44 135.57 C 172.14 134.64 171.14 134.12 170.21 134.41 L 169.25 134.72 C 168.31 135.01 167.79 136.01 168.09 136.94 C 168.38 137.88 169.38 138.40 170.31 138.10 Z M 171.27 137.79 L 172.26 137.48 C 173.19 137.19 173.70 136.20 173.41 135.26 C 173.12 134.33 172.12 133.82 171.19 134.11 L 170.21 134.42 C 169.28 134.71 168.76 135.71 169.06 136.64 C 169.35 137.57 170.34 138.09 171.27 137.79 Z M 172.26 137.47 L 173.22 137.17 C 174.15 136.87 174.66 135.88 174.37 134.96 C 174.07 134.03 173.08 133.52 172.16 133.81 L 171.19 134.12 C 170.26 134.41 169.75 135.40 170.05 136.33 C 170.34 137.26 171.33 137.77 172.26 137.47 Z M 173.22 137.16 L 174.19 136.85 C 175.11 136.55 175.62 135.57 175.32 134.65 C 175.03 133.73 174.04 133.22 173.12 133.52 L 172.16 133.82 C 171.24 134.12 170.73 135.10 171.02 136.02 C 171.32 136.94 172.30 137.45 173.22 137.16 Z M 174.18 136.84 L 175.14 136.53 C 176.06 136.24 176.56 135.26 176.27 134.35 C 175.98 133.43 175.00 132.93 174.09 133.22 L 173.13 133.53 C 172.21 133.82 171.71 134.80 172.00 135.71 C 172.29 136.62 173.27 137.13 174.18 136.84 Z M 175.14 136.52 L 176.07 136.22 C 176.98 135.93 177.48 134.96 177.19 134.05 C 176.90 133.15 175.93 132.64 175.03 132.93 L 174.09 133.23 C 173.18 133.52 172.68 134.49 172.97 135.40 C 173.26 136.31 174.23 136.81 175.14 136.52 Z M 176.06 136.21 L 177.05 135.90 C 177.96 135.62 178.46 134.65 178.17 133.75 C 177.89 132.85 176.93 132.35 176.02 132.63 L 175.03 132.94 C 174.13 133.23 173.63 134.19 173.91 135.09 C 174.20 136.00 175.16 136.50 176.06 136.21 Z M 177.04 135.89 L 178.02 135.59 C 178.92 135.31 179.42 134.35 179.14 133.46 C 178.86 132.56 177.91 132.06 177.01 132.34 L 176.03 132.64 C 175.13 132.92 174.63 133.87 174.91 134.77 C 175.19 135.67 176.15 136.17 177.04 135.89 Z M 178.01 135.58 L 178.95 135.29 C 179.84 135.01 180.34 134.07 180.07 133.17 C 179.79 132.28 178.85 131.78 177.95 132.06 L 177.02 132.35 C 176.12 132.62 175.62 133.57 175.90 134.46 C 176.17 135.35 177.12 135.85 178.01 135.58 Z M 178.94 135.28 L 179.84 135.00 C 180.73 134.73 181.23 133.79 180.96 132.90 C 180.69 132.02 179.75 131.52 178.86 131.79 L 177.96 132.07 C 177.07 132.34 176.57 133.28 176.85 134.17 C 177.12 135.05 178.06 135.55 178.94 135.28 Z M 179.84 135.00 L 180.68 134.74 C 181.56 134.47 182.06 133.54 181.79 132.66 C 181.53 131.77 180.59 131.28 179.71 131.54 L 178.87 131.80 C 177.98 132.07 177.48 133.00 177.75 133.88 C 178.02 134.76 178.95 135.26 179.84 135.00 Z M 180.65 134.74 L 181.54 134.48 C 182.43 134.23 182.94 133.31 182.68 132.43 C 182.43 131.54 181.51 131.03 180.62 131.29 L 179.73 131.54 C 178.85 131.80 178.34 132.72 178.60 133.60 C 178.85 134.48 179.77 134.99 180.65 134.74 Z M 181.51 134.49 L 182.51 134.22 C 183.40 133.99 183.93 133.08 183.69 132.20 C 183.46 131.31 182.55 130.79 181.67 131.02 L 180.66 131.29 C 179.78 131.52 179.25 132.43 179.48 133.31 C 179.72 134.19 180.62 134.72 181.51 134.49 Z M 182.48 134.22 L 183.56 133.96 C 184.45 133.75 184.99 132.86 184.78 131.97 C 184.57 131.09 183.68 130.54 182.79 130.76 L 181.71 131.02 C 180.82 131.23 180.28 132.12 180.49 133.00 C 180.70 133.89 181.59 134.43 182.48 134.22 Z M 183.54 133.96 L 184.39 133.77 C 185.27 133.57 185.83 132.69 185.63 131.81 C 185.43 130.92 184.55 130.37 183.67 130.56 L 182.82 130.75 C 181.93 130.95 181.38 131.83 181.58 132.72 C 181.77 133.60 182.65 134.16 183.54 133.96 Z M 184.37 133.77 L 185.30 133.58 C 186.18 133.39 186.75 132.51 186.56 131.62 C 186.37 130.74 185.49 130.17 184.61 130.36 L 183.68 130.56 C 182.80 130.75 182.23 131.63 182.42 132.51 C 182.61 133.40 183.49 133.96 184.37 133.77 Z M 185.29 133.58 L 186.27 133.37 C 187.16 133.19 187.73 132.32 187.54 131.43 C 187.36 130.54 186.49 129.97 185.60 130.16 L 184.62 130.36 C 183.73 130.55 183.16 131.42 183.34 132.30 C 183.53 133.19 184.40 133.76 185.29 133.58 Z M 186.26 133.37 L 187.29 133.16 C 188.18 132.98 188.75 132.11 188.57 131.23 C 188.39 130.34 187.52 129.77 186.64 129.95 L 185.61 130.16 C 184.72 130.34 184.15 131.20 184.33 132.09 C 184.51 132.98 185.38 133.55 186.26 133.37 Z M 187.29 133.16 L 188.35 132.95 C 189.24 132.77 189.81 131.90 189.63 131.02 C 189.45 130.13 188.59 129.56 187.70 129.73 L 186.64 129.95 C 185.75 130.13 185.18 130.99 185.36 131.88 C 185.54 132.77 186.40 133.34 187.29 133.16 Z M 188.35 132.95 L 189.36 132.74 C 190.25 132.57 190.82 131.70 190.64 130.82 C 190.47 129.93 189.60 129.35 188.72 129.53 L 187.70 129.74 C 186.82 129.91 186.24 130.78 186.42 131.66 C 186.60 132.55 187.46 133.12 188.35 132.95 Z"
      fill="black"
      fill-rule="nonzero" /><path d="M 160.24 156.39 L 160.18 157.45 C 160.13 158.41 160.88 159.23 161.84 159.28 C 162.80 159.33 163.63 158.59 163.68 157.63 L 163.73 156.57 C 163.78 155.60 163.04 154.78 162.07 154.73 C 161.11 154.68 160.29 155.42 160.24 156.39 Z M 160.18 157.45 L 160.13 158.49 C 160.08 159.46 160.83 160.28 161.79 160.33 C 162.76 160.37 163.58 159.63 163.62 158.67 L 163.68 157.62 C 163.72 156.66 162.98 155.84 162.02 155.79 C 161.05 155.74 160.23 156.49 160.18 157.45 Z M 160.13 158.50 L 160.08 159.51 C 160.04 160.47 160.78 161.29 161.75 161.34 C 162.71 161.38 163.53 160.64 163.58 159.67 L 163.62 158.66 C 163.67 157.70 162.92 156.88 161.96 156.83 C 161.00 156.79 160.18 157.53 160.13 158.50 Z M 160.08 159.52 L 160.04 160.48 C 160.00 161.45 160.75 162.26 161.72 162.30 C 162.68 162.34 163.50 161.59 163.54 160.63 L 163.58 159.66 C 163.62 158.70 162.87 157.89 161.90 157.85 C 160.94 157.80 160.12 158.55 160.08 159.52 Z M 160.04 160.49 L 160.01 161.43 C 159.98 162.40 160.73 163.21 161.70 163.24 C 162.66 163.27 163.47 162.52 163.50 161.55 L 163.54 160.62 C 163.57 159.65 162.82 158.84 161.85 158.81 C 160.89 158.78 160.08 159.53 160.04 160.49 Z M 160.01 161.45 L 159.99 162.54 C 159.97 163.51 160.73 164.30 161.69 164.33 C 162.66 164.35 163.45 163.59 163.48 162.62 L 163.50 161.53 C 163.52 160.57 162.76 159.77 161.80 159.75 C 160.84 159.73 160.04 160.49 160.01 161.45 Z M 160.00 162.56 L 159.98 163.56 C 159.97 164.52 160.74 165.30 161.70 165.31 C 162.66 165.33 163.45 164.56 163.46 163.60 L 163.47 162.60 C 163.48 161.64 162.71 160.86 161.75 160.85 C 160.79 160.83 160.01 161.60 160.00 162.56 Z M 159.99 163.57 L 159.99 164.51 C 159.98 165.46 160.76 166.24 161.71 166.24 C 162.67 166.25 163.45 165.47 163.45 164.52 L 163.45 163.58 C 163.46 162.63 162.68 161.85 161.73 161.85 C 160.77 161.84 159.99 162.62 159.99 163.57 Z M 159.99 164.51 L 159.99 165.47 C 159.99 166.43 160.76 167.20 161.72 167.20 C 162.67 167.20 163.45 166.43 163.45 165.47 L 163.45 164.51 C 163.45 163.56 162.67 162.79 161.72 162.79 C 160.76 162.79 159.99 163.56 159.99 164.51 Z M 159.99 165.48 L 160.00 166.49 C 160.00 167.44 160.78 168.21 161.73 168.20 C 162.68 168.20 163.45 167.42 163.45 166.47 L 163.44 165.47 C 163.44 164.51 162.66 163.75 161.71 163.75 C 160.76 163.75 159.99 164.53 159.99 165.48 Z M 160.00 166.50 L 160.01 167.50 C 160.03 168.46 160.81 169.22 161.76 169.20 C 162.72 169.19 163.48 168.40 163.46 167.45 L 163.45 166.45 C 163.43 165.50 162.65 164.74 161.70 164.75 C 160.74 164.77 159.98 165.55 160.00 166.50 Z M 160.02 167.54 L 160.05 168.52 C 160.08 169.48 160.88 170.22 161.83 170.19 C 162.78 170.16 163.53 169.36 163.49 168.41 L 163.46 167.42 C 163.43 166.47 162.63 165.72 161.68 165.76 C 160.73 165.79 159.98 166.59 160.02 167.54 Z M 160.06 168.59 L 160.13 169.57 C 160.20 170.51 161.02 171.23 161.97 171.16 C 162.91 171.09 163.63 170.26 163.56 169.32 L 163.49 168.34 C 163.42 167.39 162.59 166.68 161.65 166.75 C 160.70 166.82 159.99 167.64 160.06 168.59 Z M 160.15 169.71 L 160.30 170.68 C 160.45 171.62 161.32 172.26 162.26 172.11 C 163.20 171.97 163.84 171.09 163.69 170.15 L 163.54 169.18 C 163.39 168.24 162.51 167.60 161.58 167.75 C 160.64 167.89 160.00 168.77 160.15 169.71 Z M 160.35 170.89 L 160.63 171.87 C 160.89 172.78 161.84 173.31 162.74 173.05 C 163.65 172.79 164.18 171.85 163.92 170.94 L 163.64 169.95 C 163.38 169.04 162.44 168.51 161.53 168.77 C 160.62 169.03 160.09 169.98 160.35 170.89 Z M 160.71 172.08 L 161.07 172.90 C 161.44 173.77 162.44 174.17 163.31 173.79 C 164.17 173.42 164.57 172.41 164.20 171.55 L 163.84 170.73 C 163.47 169.87 162.46 169.47 161.60 169.84 C 160.74 170.21 160.34 171.22 160.71 172.08 Z M 161.16 173.07 L 161.62 173.88 C 162.09 174.70 163.12 174.98 163.94 174.51 C 164.75 174.05 165.03 173.01 164.57 172.20 L 164.10 171.38 C 163.64 170.57 162.60 170.29 161.79 170.75 C 160.97 171.22 160.69 172.25 161.16 173.07 Z M 161.72 174.02 L 162.31 174.85 C 162.85 175.61 163.90 175.79 164.66 175.25 C 165.42 174.71 165.60 173.65 165.06 172.89 L 164.47 172.06 C 163.93 171.30 162.88 171.12 162.12 171.66 C 161.36 172.20 161.18 173.26 161.72 174.02 Z M 162.40 174.96 L 163.12 175.80 C 163.72 176.51 164.78 176.60 165.49 175.99 C 166.20 175.39 166.29 174.33 165.68 173.62 L 164.97 172.78 C 164.36 172.07 163.30 171.99 162.59 172.59 C 161.89 173.19 161.80 174.25 162.40 174.96 Z M 163.21 175.88 L 163.89 176.59 C 164.54 177.25 165.60 177.26 166.26 176.61 C 166.92 175.97 166.93 174.91 166.29 174.24 L 165.60 173.54 C 164.95 172.88 163.89 172.87 163.23 173.52 C 162.57 174.16 162.56 175.22 163.21 175.88 Z M 163.95 176.64 L 164.65 177.28 C 165.32 177.91 166.38 177.87 167.01 177.20 C 167.63 176.52 167.60 175.47 166.92 174.84 L 166.23 174.19 C 165.55 173.57 164.50 173.60 163.87 174.28 C 163.24 174.95 163.28 176.01 163.95 176.64 Z M 164.69 177.31 L 165.44 177.97 C 166.13 178.57 167.18 178.50 167.78 177.81 C 168.39 177.12 168.32 176.07 167.62 175.46 L 166.88 174.81 C 166.19 174.21 165.14 174.28 164.53 174.97 C 163.93 175.66 164.00 176.71 164.69 177.31 Z M 165.47 177.98 L 166.26 178.64 C 166.96 179.23 168.00 179.13 168.59 178.43 C 169.17 177.73 169.08 176.69 168.38 176.10 L 167.59 175.45 C 166.89 174.86 165.85 174.95 165.26 175.65 C 164.68 176.36 164.77 177.40 165.47 177.98 Z M 166.28 178.65 L 167.09 179.31 C 167.80 179.88 168.84 179.78 169.41 179.07 C 169.98 178.36 169.88 177.33 169.17 176.75 L 168.36 176.09 C 167.65 175.52 166.61 175.63 166.04 176.33 C 165.47 177.04 165.58 178.08 166.28 178.65 Z M 167.11 179.31 L 167.85 179.91 C 168.56 180.48 169.59 180.36 170.16 179.66 C 170.73 178.95 170.61 177.92 169.91 177.35 L 169.16 176.75 C 168.45 176.19 167.42 176.30 166.85 177.01 C 166.29 177.71 166.40 178.74 167.11 179.31 Z"
      fill="black"
      fill-rule="nonzero" /><path d="M 163.78 156.88 L 164.79 156.92 C 165.82 156.95 166.68 156.14 166.72 155.11 C 166.75 154.08 165.94 153.22 164.91 153.19 L 163.90 153.15 C 162.87 153.12 162.01 153.93 161.98 154.96 C 161.94 155.99 162.75 156.85 163.78 156.88 Z M 164.79 156.92 L 165.80 156.95 C 166.83 156.99 167.70 156.17 167.73 155.14 C 167.76 154.11 166.95 153.24 165.91 153.21 L 164.91 153.18 C 163.87 153.15 163.01 153.96 162.98 154.99 C 162.95 156.03 163.76 156.89 164.79 156.92 Z M 165.81 156.96 L 166.80 156.99 C 167.84 157.02 168.70 156.20 168.73 155.16 C 168.76 154.12 167.94 153.26 166.90 153.23 L 165.91 153.20 C 164.87 153.17 164.01 153.99 163.98 155.03 C 163.95 156.07 164.77 156.93 165.81 156.96 Z M 166.81 156.99 L 167.80 157.01 C 168.84 157.04 169.70 156.21 169.72 155.17 C 169.74 154.13 168.92 153.26 167.88 153.24 L 166.89 153.22 C 165.85 153.20 164.99 154.03 164.97 155.07 C 164.95 156.11 165.77 156.97 166.81 156.99 Z M 167.81 157.02 L 168.79 157.03 C 169.83 157.04 170.69 156.21 170.70 155.17 C 170.71 154.12 169.88 153.27 168.83 153.25 L 167.86 153.24 C 166.82 153.23 165.96 154.06 165.95 155.10 C 165.93 156.15 166.77 157.00 167.81 157.02 Z M 168.80 157.03 L 169.78 157.04 C 170.82 157.04 171.67 156.20 171.68 155.16 C 171.68 154.12 170.84 153.27 169.80 153.26 L 168.82 153.25 C 167.78 153.25 166.93 154.09 166.92 155.13 C 166.91 156.17 167.75 157.02 168.80 157.03 Z M 169.78 157.04 L 170.79 157.04 C 171.83 157.04 172.68 156.20 172.68 155.15 C 172.68 154.11 171.84 153.26 170.80 153.26 L 169.79 153.26 C 168.75 153.26 167.90 154.10 167.90 155.14 C 167.90 156.19 168.74 157.03 169.78 157.04 Z M 170.79 157.04 L 171.83 157.04 C 172.87 157.04 173.71 156.19 173.71 155.15 C 173.71 154.11 172.87 153.26 171.83 153.26 L 170.79 153.26 C 169.75 153.26 168.91 154.11 168.91 155.15 C 168.91 156.19 169.75 157.04 170.79 157.04 Z M 171.83 157.03 L 172.76 157.03 C 173.80 157.03 174.64 156.19 174.64 155.15 C 174.64 154.11 173.80 153.27 172.76 153.27 L 171.83 153.27 C 170.79 153.27 169.94 154.11 169.94 155.15 C 169.94 156.19 170.79 157.03 171.83 157.03 Z M 172.76 157.03 L 173.73 157.03 C 174.77 157.03 175.61 156.19 175.61 155.15 C 175.61 154.11 174.77 153.27 173.73 153.27 L 172.76 153.27 C 171.72 153.27 170.88 154.11 170.88 155.15 C 170.88 156.19 171.72 157.03 172.76 157.03 Z M 173.73 157.03 L 174.75 157.03 C 175.78 157.03 176.62 156.19 176.62 155.15 C 176.62 154.11 175.78 153.27 174.75 153.27 L 173.73 153.27 C 172.69 153.27 171.85 154.11 171.85 155.15 C 171.85 156.19 172.69 157.03 173.73 157.03 Z M 174.75 157.02 L 175.80 157.02 C 176.83 157.02 177.67 156.19 177.67 155.15 C 177.67 154.11 176.83 153.28 175.80 153.28 L 174.75 153.28 C 173.71 153.28 172.87 154.11 172.87 155.15 C 172.87 156.19 173.71 157.02 174.75 157.02 Z M 175.80 157.02 L 176.83 157.02 C 177.86 157.02 178.70 156.18 178.70 155.15 C 178.70 154.12 177.86 153.28 176.83 153.28 L 175.80 153.28 C 174.76 153.28 173.92 154.12 173.92 155.15 C 173.92 156.18 174.76 157.02 175.80 157.02 Z M 176.83 157.02 L 177.82 157.02 C 178.85 157.02 179.68 156.18 179.68 155.15 C 179.68 154.12 178.85 153.28 177.82 153.28 L 176.83 153.28 C 175.80 153.28 174.96 154.12 174.96 155.15 C 174.96 156.18 175.80 157.02 176.83 157.02 Z M 177.82 157.01 L 178.82 157.01 C 179.85 157.01 180.68 156.18 180.68 155.15 C 180.68 154.12 179.85 153.29 178.82 153.29 L 177.82 153.29 C 176.79 153.29 175.96 154.12 175.96 155.15 C 175.96 156.18 176.79 157.01 177.82 157.01 Z M 178.82 157.00 L 179.83 157.00 C 180.85 157.00 181.68 156.17 181.68 155.15 C 181.68 154.13 180.85 153.30 179.83 153.30 L 178.82 153.30 C 177.80 153.30 176.97 154.13 176.97 155.15 C 176.97 156.17 177.80 157.00 178.82 157.00 Z M 179.83 157.00 L 180.84 157.00 C 181.86 157.00 182.68 156.17 182.68 155.15 C 182.68 154.13 181.86 153.30 180.84 153.30 L 179.83 153.30 C 178.81 153.30 177.98 154.13 177.98 155.15 C 177.98 156.17 178.81 157.00 179.83 157.00 Z M 180.84 156.99 L 181.85 156.99 C 182.87 156.99 183.69 156.17 183.69 155.15 C 183.69 154.13 182.87 153.31 181.85 153.31 L 180.84 153.31 C 179.82 153.31 179.00 154.13 179.00 155.15 C 179.00 156.17 179.82 156.99 180.84 156.99 Z M 181.85 156.98 L 182.91 156.98 C 183.92 156.98 184.74 156.17 184.75 155.15 C 184.75 154.14 183.93 153.32 182.92 153.32 L 181.85 153.32 C 180.84 153.32 180.02 154.14 180.02 155.15 C 180.02 156.16 180.84 156.98 181.85 156.98 Z M 182.90 156.97 L 183.93 156.98 C 184.94 156.99 185.76 156.18 185.77 155.18 C 185.78 154.17 184.97 153.35 183.97 153.34 L 182.93 153.33 C 181.92 153.32 181.10 154.13 181.09 155.13 C 181.08 156.14 181.89 156.96 182.90 156.97 Z M 183.90 156.97 L 184.90 157.00 C 185.90 157.02 186.74 156.23 186.76 155.23 C 186.78 154.23 185.99 153.40 184.99 153.37 L 183.99 153.35 C 182.99 153.32 182.16 154.12 182.14 155.12 C 182.11 156.12 182.90 156.95 183.90 156.97 Z M 184.86 156.99 L 185.81 157.03 C 186.81 157.08 187.65 156.32 187.70 155.32 C 187.75 154.33 186.98 153.48 185.99 153.43 L 185.04 153.39 C 184.04 153.34 183.20 154.10 183.15 155.10 C 183.10 156.09 183.87 156.94 184.86 156.99 Z M 185.75 157.02 L 186.72 157.10 C 187.70 157.19 188.57 156.46 188.66 155.47 C 188.74 154.48 188.01 153.61 187.02 153.53 L 186.05 153.45 C 185.07 153.36 184.20 154.09 184.11 155.08 C 184.03 156.07 184.76 156.94 185.75 157.02 Z M 186.61 157.08 L 187.66 157.23 C 188.64 157.38 189.54 156.70 189.69 155.73 C 189.83 154.75 189.15 153.85 188.18 153.70 L 187.13 153.55 C 186.15 153.41 185.25 154.08 185.10 155.06 C 184.96 156.03 185.64 156.94 186.61 157.08 Z M 187.51 157.19 L 188.48 157.42 C 189.43 157.65 190.38 157.06 190.61 156.11 C 190.84 155.16 190.25 154.20 189.30 153.97 L 188.33 153.74 C 187.38 153.52 186.42 154.11 186.20 155.06 C 185.97 156.01 186.56 156.97 187.51 157.19 Z M 188.28 157.36 L 189.17 157.68 C 190.09 158.01 191.10 157.54 191.43 156.62 C 191.76 155.71 191.29 154.70 190.38 154.37 L 189.49 154.04 C 188.58 153.71 187.56 154.18 187.23 155.10 C 186.90 156.01 187.37 157.02 188.28 157.36 Z M 188.95 157.57 L 189.80 158.02 C 190.66 158.48 191.72 158.15 192.17 157.30 C 192.63 156.45 192.31 155.39 191.45 154.93 L 190.60 154.48 C 189.74 154.02 188.68 154.35 188.23 155.20 C 187.77 156.05 188.10 157.11 188.95 157.57 Z M 189.57 157.86 L 190.37 158.47 C 191.14 159.05 192.23 158.91 192.81 158.15 C 193.39 157.38 193.25 156.29 192.48 155.71 L 191.69 155.10 C 190.92 154.51 189.83 154.66 189.25 155.42 C 188.66 156.18 188.81 157.28 189.57 157.86 Z M 190.14 158.24 L 190.80 158.98 C 191.44 159.69 192.53 159.75 193.24 159.12 C 193.95 158.48 194.01 157.39 193.38 156.68 L 192.72 155.94 C 192.08 155.23 190.99 155.17 190.28 155.80 C 189.57 156.44 189.50 157.53 190.14 158.24 Z M 190.60 158.67 L 191.08 159.53 C 191.55 160.36 192.59 160.65 193.42 160.18 C 194.24 159.72 194.54 158.67 194.07 157.85 L 193.59 156.99 C 193.12 156.16 192.07 155.87 191.25 156.33 C 190.42 156.80 190.13 157.85 190.60 158.67 Z M 190.94 159.16 L 191.21 160.09 C 191.47 161.00 192.41 161.52 193.31 161.26 C 194.22 161.00 194.74 160.06 194.48 159.16 L 194.21 158.22 C 193.95 157.31 193.01 156.79 192.11 157.05 C 191.20 157.31 190.68 158.25 190.94 159.16 Z M 191.16 159.74 L 191.23 160.74 C 191.29 161.67 192.10 162.37 193.03 162.30 C 193.96 162.24 194.66 161.43 194.60 160.50 L 194.53 159.51 C 194.46 158.58 193.66 157.88 192.73 157.94 C 191.80 158.00 191.09 158.81 191.16 159.74 Z M 191.25 160.42 L 191.13 161.42 C 191.02 162.34 191.67 163.18 192.59 163.29 C 193.51 163.40 194.34 162.74 194.45 161.83 L 194.58 160.82 C 194.69 159.90 194.03 159.07 193.11 158.96 C 192.20 158.85 191.36 159.50 191.25 160.42 Z M 191.20 161.13 L 190.91 162.07 C 190.64 162.95 191.13 163.88 192.01 164.15 C 192.89 164.42 193.82 163.93 194.09 163.05 L 194.38 162.12 C 194.65 161.24 194.16 160.31 193.28 160.04 C 192.41 159.76 191.47 160.25 191.20 161.13 Z M 191.02 161.83 L 190.59 162.68 C 190.19 163.50 190.52 164.50 191.34 164.90 C 192.16 165.31 193.16 164.97 193.56 164.15 L 193.98 163.30 C 194.39 162.48 194.05 161.48 193.23 161.08 C 192.42 160.67 191.42 161.01 191.02 161.83 Z M 190.69 162.52 L 190.15 163.35 C 189.66 164.11 189.87 165.13 190.64 165.63 C 191.40 166.13 192.42 165.91 192.92 165.15 L 193.46 164.32 C 193.96 163.55 193.74 162.53 192.98 162.03 C 192.22 161.54 191.19 161.75 190.69 162.52 Z M 190.23 163.24 L 189.60 164.07 C 189.04 164.79 189.18 165.82 189.90 166.38 C 190.62 166.93 191.65 166.80 192.21 166.08 L 192.84 165.25 C 193.40 164.53 193.26 163.50 192.54 162.94 C 191.82 162.39 190.79 162.52 190.23 163.24 Z M 189.64 164.02 L 189.00 164.78 C 188.42 165.48 188.51 166.52 189.21 167.10 C 189.90 167.68 190.94 167.59 191.52 166.89 L 192.16 166.13 C 192.75 165.43 192.65 164.40 191.96 163.81 C 191.26 163.23 190.23 163.32 189.64 164.02 Z M 189.03 164.75 L 188.39 165.47 C 187.79 166.16 187.86 167.19 188.54 167.79 C 189.22 168.39 190.26 168.33 190.86 167.65 L 191.49 166.92 C 192.09 166.24 192.03 165.21 191.35 164.61 C 190.67 164.01 189.63 164.07 189.03 164.75 Z M 188.42 165.44 L 187.74 166.17 C 187.13 166.84 187.16 167.88 187.83 168.49 C 188.49 169.11 189.53 169.07 190.15 168.41 L 190.83 167.68 C 191.44 167.01 191.41 165.98 190.74 165.36 C 190.08 164.74 189.04 164.78 188.42 165.44 Z M 187.78 166.14 L 187.06 166.87 C 186.42 167.52 186.43 168.56 187.08 169.19 C 187.72 169.83 188.76 169.82 189.40 169.17 L 190.12 168.44 C 190.75 167.80 190.74 166.76 190.10 166.12 C 189.45 165.49 188.41 165.50 187.78 166.14 Z M 187.09 166.84 L 186.33 167.57 C 185.68 168.19 185.66 169.23 186.28 169.88 C 186.91 170.54 187.95 170.56 188.60 169.93 L 189.36 169.21 C 190.02 168.58 190.04 167.54 189.41 166.89 C 188.78 166.23 187.75 166.21 187.09 166.84 Z M 186.37 167.53 L 185.71 168.13 C 185.04 168.74 184.98 169.77 185.59 170.44 C 186.20 171.12 187.23 171.17 187.91 170.56 L 188.57 169.97 C 189.24 169.36 189.29 168.32 188.69 167.65 C 188.08 166.98 187.04 166.93 186.37 167.53 Z M 185.74 168.10 L 185.05 168.69 C 184.36 169.28 184.28 170.32 184.87 171.01 C 185.45 171.69 186.49 171.78 187.18 171.19 L 187.87 170.59 C 188.56 170.00 188.64 168.97 188.06 168.28 C 187.47 167.59 186.43 167.51 185.74 168.10 Z M 185.08 168.66 L 184.33 169.27 C 183.63 169.84 183.52 170.87 184.09 171.58 C 184.66 172.28 185.70 172.39 186.40 171.82 L 187.15 171.22 C 187.85 170.64 187.96 169.61 187.39 168.91 C 186.82 168.20 185.78 168.09 185.08 168.66 Z M 184.36 169.24 L 183.55 169.87 C 182.83 170.42 182.70 171.46 183.26 172.17 C 183.81 172.89 184.84 173.03 185.56 172.47 L 186.37 171.84 C 187.09 171.29 187.22 170.26 186.67 169.54 C 186.11 168.82 185.08 168.69 184.36 169.24 Z M 183.58 169.85 L 182.69 170.51 C 181.96 171.05 181.81 172.08 182.35 172.81 C 182.89 173.54 183.92 173.69 184.65 173.15 L 185.53 172.49 C 186.26 171.95 186.42 170.92 185.88 170.19 C 185.34 169.46 184.31 169.31 183.58 169.85 Z M 182.71 170.49 L 181.83 171.12 C 181.09 171.65 180.92 172.68 181.45 173.41 C 181.98 174.15 183.00 174.33 183.74 173.80 L 184.63 173.17 C 185.36 172.64 185.54 171.61 185.01 170.87 C 184.48 170.13 183.45 169.96 182.71 170.49 Z M 181.84 171.11 L 181.04 171.66 C 180.29 172.18 180.11 173.21 180.63 173.96 C 181.15 174.71 182.18 174.89 182.93 174.37 L 183.73 173.81 C 184.47 173.29 184.66 172.26 184.14 171.52 C 183.62 170.77 182.59 170.59 181.84 171.11 Z M 181.05 171.65 L 180.21 172.23 C 179.46 172.74 179.27 173.77 179.78 174.52 C 180.30 175.27 181.32 175.47 182.08 174.95 L 182.92 174.38 C 183.67 173.87 183.86 172.84 183.35 172.09 C 182.83 171.33 181.81 171.14 181.05 171.65 Z M 180.22 172.21 L 179.36 172.79 C 178.60 173.30 178.40 174.33 178.91 175.09 C 179.42 175.85 180.45 176.05 181.21 175.54 L 182.07 174.96 C 182.83 174.45 183.03 173.43 182.52 172.67 C 182.01 171.91 180.98 171.71 180.22 172.21 Z M 179.37 172.78 L 178.51 173.35 C 177.74 173.86 177.53 174.89 178.04 175.65 C 178.54 176.42 179.57 176.63 180.34 176.12 L 181.20 175.55 C 181.97 175.05 182.18 174.02 181.67 173.25 C 181.17 172.49 180.14 172.28 179.37 172.78 Z M 178.51 173.34 L 177.66 173.90 C 176.89 174.40 176.67 175.43 177.17 176.20 C 177.67 176.97 178.70 177.19 179.47 176.69 L 180.33 176.13 C 181.10 175.63 181.32 174.60 180.81 173.83 C 180.31 173.06 179.28 172.84 178.51 173.34 Z M 177.67 173.89 L 176.83 174.42 C 176.06 174.92 175.83 175.95 176.33 176.73 C 176.82 177.50 177.85 177.73 178.63 177.23 L 179.46 176.70 C 180.24 176.20 180.46 175.17 179.97 174.40 C 179.47 173.62 178.44 173.40 177.67 173.89 Z M 176.84 174.41 L 176.01 174.93 C 175.23 175.42 175.00 176.46 175.49 177.24 C 175.98 178.02 177.01 178.25 177.79 177.76 L 178.62 177.24 C 179.40 176.75 179.64 175.72 179.15 174.94 C 178.66 174.16 177.62 173.92 176.84 174.41 Z M 176.03 174.92 L 175.04 175.53 C 174.25 176.01 174.00 177.04 174.48 177.83 C 174.97 178.62 176.00 178.87 176.79 178.38 L 177.78 177.78 C 178.57 177.29 178.82 176.26 178.33 175.47 C 177.85 174.68 176.82 174.44 176.03 174.92 Z M 175.05 175.51 L 174.14 176.06 C 173.34 176.53 173.08 177.56 173.55 178.36 C 174.03 179.16 175.06 179.42 175.86 178.94 L 176.77 178.40 C 177.57 177.93 177.83 176.89 177.35 176.10 C 176.88 175.30 175.85 175.04 175.05 175.51 Z M 174.15 176.04 L 173.30 176.53 C 172.50 177.00 172.22 178.03 172.69 178.83 C 173.15 179.64 174.18 179.91 174.99 179.45 L 175.84 178.96 C 176.65 178.49 176.92 177.46 176.46 176.66 C 175.99 175.85 174.96 175.58 174.15 176.04 Z M 173.32 176.52 L 172.52 176.97 C 171.71 177.43 171.42 178.46 171.87 179.27 C 172.33 180.08 173.36 180.37 174.17 179.91 L 174.97 179.46 C 175.79 179.01 176.08 177.98 175.62 177.16 C 175.16 176.35 174.13 176.06 173.32 176.52 Z M 172.53 176.96 L 171.76 177.38 C 170.94 177.83 170.64 178.86 171.09 179.68 C 171.54 180.50 172.57 180.80 173.39 180.35 L 174.16 179.93 C 174.98 179.48 175.28 178.45 174.83 177.63 C 174.38 176.81 173.35 176.51 172.53 176.96 Z M 171.77 177.37 L 170.90 177.84 C 170.07 178.28 169.76 179.32 170.21 180.14 C 170.65 180.97 171.68 181.28 172.51 180.83 L 173.38 180.36 C 174.21 179.91 174.52 178.88 174.07 178.06 C 173.63 177.23 172.60 176.92 171.77 177.37 Z M 170.90 177.83 L 170.00 178.31 C 169.17 178.75 168.85 179.78 169.29 180.61 C 169.74 181.45 170.77 181.76 171.60 181.32 L 172.50 180.84 C 173.34 180.40 173.65 179.37 173.21 178.53 C 172.77 177.70 171.73 177.39 170.90 177.83 Z M 170.00 178.29 L 169.12 178.76 C 168.28 179.20 167.96 180.24 168.40 181.08 C 168.85 181.92 169.89 182.24 170.72 181.80 L 171.60 181.33 C 172.44 180.89 172.76 179.85 172.32 179.01 C 171.88 178.17 170.84 177.85 170.00 178.29 Z M 169.11 178.75 L 168.25 179.21 C 167.41 179.66 167.09 180.70 167.53 181.54 C 167.98 182.39 169.02 182.71 169.87 182.26 L 170.73 181.80 C 171.57 181.36 171.89 180.31 171.45 179.47 C 171.00 178.63 169.96 178.31 169.11 178.75 Z M 168.24 179.20 L 167.35 179.68 C 166.51 180.13 166.19 181.18 166.64 182.03 C 167.10 182.87 168.15 183.19 168.99 182.74 L 169.88 182.27 C 170.72 181.81 171.04 180.76 170.59 179.92 C 170.14 179.07 169.08 178.75 168.24 179.20 Z M 167.33 179.67 L 166.41 180.18 C 165.56 180.64 165.25 181.71 165.72 182.56 C 166.19 183.41 167.25 183.72 168.10 183.25 L 169.02 182.75 C 169.87 182.28 170.18 181.21 169.71 180.36 C 169.24 179.51 168.18 179.20 167.33 179.67 Z M 166.37 180.18 L 165.49 180.68 C 164.65 181.17 164.36 182.26 164.85 183.11 C 165.34 183.95 166.42 184.24 167.27 183.75 L 168.15 183.25 C 168.99 182.76 169.28 181.67 168.79 180.82 C 168.30 179.98 167.22 179.69 166.37 180.18 Z M 165.43 180.70 L 164.61 181.21 C 163.77 181.74 163.52 182.84 164.04 183.68 C 164.57 184.52 165.68 184.78 166.51 184.25 L 167.33 183.74 C 168.17 183.21 168.43 182.11 167.90 181.27 C 167.38 180.43 166.27 180.17 165.43 180.70 Z M 164.51 181.25 L 163.61 181.89 C 162.80 182.47 162.60 183.61 163.19 184.42 C 163.77 185.24 164.90 185.43 165.72 184.85 L 166.62 184.21 C 167.43 183.63 167.63 182.50 167.04 181.68 C 166.46 180.86 165.33 180.67 164.51 181.25 Z M 163.33 182.09 L 162.60 182.86 C 161.89 183.59 161.91 184.76 162.65 185.47 C 163.39 186.18 164.56 186.15 165.27 185.42 L 166.00 184.65 C 166.71 183.91 166.68 182.74 165.95 182.03 C 165.21 181.33 164.04 181.35 163.33 182.09 Z M 162.10 184.60 L 162.25 185.20 C 162.51 186.21 163.53 186.83 164.54 186.57 C 165.56 186.32 166.17 185.29 165.92 184.28 L 165.77 183.67 C 165.51 182.66 164.48 182.05 163.47 182.30 C 162.46 182.56 161.85 183.58 162.10 184.60 Z M 163.46 186.55 L 164.13 186.78 C 165.13 187.12 166.22 186.59 166.57 185.59 C 166.91 184.59 166.38 183.51 165.38 183.16 L 164.71 182.93 C 163.71 182.59 162.62 183.12 162.27 184.12 C 161.93 185.12 162.46 186.21 163.46 186.55 Z M 164.49 186.87 L 165.40 187.00 C 166.45 187.15 167.42 186.42 167.57 185.37 C 167.72 184.32 166.99 183.35 165.94 183.20 L 165.02 183.07 C 163.97 182.92 163.00 183.65 162.86 184.70 C 162.71 185.75 163.44 186.72 164.49 186.87 Z M 165.55 187.02 L 166.64 187.09 C 167.70 187.15 168.61 186.35 168.68 185.29 C 168.75 184.23 167.94 183.32 166.88 183.25 L 165.79 183.18 C 164.73 183.11 163.82 183.92 163.75 184.98 C 163.69 186.04 164.49 186.95 165.55 187.02 Z M 166.73 187.09 L 167.88 187.12 C 168.94 187.13 169.82 186.29 169.84 185.22 C 169.86 184.16 169.01 183.28 167.95 183.26 L 166.80 183.24 C 165.73 183.22 164.86 184.07 164.84 185.13 C 164.82 186.20 165.66 187.07 166.73 187.09 Z M 167.94 187.12 L 169.04 187.10 C 170.10 187.09 170.96 186.22 170.94 185.15 C 170.93 184.09 170.06 183.23 168.99 183.25 L 167.89 183.26 C 166.82 183.27 165.97 184.15 165.99 185.21 C 166.00 186.28 166.87 187.13 167.94 187.12 Z M 169.10 187.10 L 170.29 187.05 C 171.35 187.00 172.18 186.10 172.13 185.04 C 172.08 183.98 171.18 183.15 170.12 183.20 L 168.93 183.25 C 167.87 183.30 167.04 184.20 167.09 185.26 C 167.14 186.32 168.04 187.15 169.10 187.10 Z M 170.36 187.04 L 171.37 186.96 C 172.42 186.87 173.21 185.94 173.12 184.88 C 173.03 183.83 172.11 183.04 171.05 183.13 L 170.05 183.21 C 168.99 183.30 168.20 184.23 168.29 185.28 C 168.38 186.34 169.31 187.13 170.36 187.04 Z M 171.44 186.94 L 172.34 186.83 C 173.39 186.70 174.13 185.75 174.00 184.70 C 173.88 183.65 172.92 182.90 171.87 183.03 L 170.97 183.14 C 169.93 183.27 169.18 184.22 169.31 185.27 C 169.43 186.32 170.39 187.07 171.44 186.94 Z M 172.39 186.82 L 173.27 186.68 C 174.31 186.53 175.03 185.56 174.87 184.51 C 174.71 183.47 173.74 182.76 172.70 182.91 L 171.82 183.05 C 170.78 183.20 170.06 184.17 170.22 185.22 C 170.37 186.26 171.35 186.97 172.39 186.82 Z M 173.29 186.67 L 174.26 186.51 C 175.29 186.34 175.99 185.37 175.82 184.33 C 175.65 183.30 174.68 182.60 173.64 182.77 L 172.68 182.93 C 171.64 183.10 170.94 184.07 171.11 185.11 C 171.28 186.14 172.26 186.84 173.29 186.67 Z M 174.27 186.50 L 175.26 186.33 C 176.29 186.15 176.98 185.18 176.80 184.16 C 176.63 183.13 175.65 182.44 174.63 182.61 L 173.64 182.78 C 172.61 182.96 171.92 183.93 172.09 184.96 C 172.27 185.98 173.24 186.67 174.27 186.50 Z M 175.26 186.32 L 176.26 186.15 C 177.28 185.97 177.97 185.00 177.79 183.99 C 177.62 182.97 176.65 182.28 175.63 182.46 L 174.63 182.63 C 173.61 182.80 172.93 183.77 173.10 184.79 C 173.27 185.81 174.24 186.49 175.26 186.32 Z M 176.25 186.13 L 177.25 185.97 C 178.27 185.80 178.95 184.84 178.78 183.83 C 178.61 182.82 177.65 182.13 176.64 182.30 L 175.64 182.47 C 174.63 182.64 173.94 183.59 174.11 184.61 C 174.28 185.62 175.24 186.30 176.25 186.13 Z M 177.25 185.96 L 178.24 185.79 C 179.24 185.63 179.93 184.68 179.76 183.67 C 179.60 182.67 178.65 181.99 177.64 182.15 L 176.65 182.31 C 175.64 182.48 174.96 183.43 175.13 184.43 C 175.29 185.44 176.24 186.12 177.25 185.96 Z M 178.25 185.78 L 179.23 185.61 C 180.22 185.44 180.90 184.50 180.73 183.50 C 180.56 182.50 179.61 181.83 178.61 182.00 L 177.63 182.16 C 176.64 182.33 175.96 183.28 176.13 184.28 C 176.30 185.28 177.25 185.95 178.25 185.78 Z M 179.25 185.59 L 180.22 185.42 C 181.21 185.24 181.86 184.29 181.68 183.30 C 181.50 182.31 180.55 181.66 179.57 181.84 L 178.59 182.02 C 177.60 182.20 176.95 183.14 177.13 184.13 C 177.31 185.12 178.26 185.78 179.25 185.59 Z M 180.25 185.39 L 181.23 185.20 C 182.20 185.00 182.84 184.05 182.64 183.07 C 182.44 182.10 181.49 181.46 180.51 181.66 L 179.54 181.86 C 178.56 182.06 177.93 183.01 178.13 183.98 C 178.32 184.96 179.28 185.59 180.25 185.39 Z M 181.25 185.17 L 182.23 184.96 C 183.19 184.75 183.80 183.80 183.59 182.84 C 183.38 181.87 182.43 181.26 181.47 181.47 L 180.49 181.69 C 179.53 181.90 178.92 182.85 179.13 183.81 C 179.34 184.77 180.29 185.38 181.25 185.17 Z M 182.24 184.94 L 183.22 184.71 C 184.17 184.50 184.76 183.55 184.54 182.60 C 184.33 181.65 183.38 181.06 182.43 181.27 L 181.46 181.50 C 180.51 181.71 179.91 182.66 180.13 183.61 C 180.34 184.56 181.29 185.15 182.24 184.94 Z M 183.22 184.69 L 184.19 184.47 C 185.13 184.25 185.72 183.32 185.50 182.38 C 185.28 181.44 184.35 180.85 183.41 181.07 L 182.43 181.29 C 181.49 181.51 180.91 182.45 181.12 183.39 C 181.34 184.33 182.28 184.91 183.22 184.69 Z M 184.19 184.45 L 185.16 184.23 C 186.09 184.01 186.67 183.08 186.46 182.15 C 186.24 181.22 185.31 180.64 184.38 180.86 L 183.41 181.09 C 182.48 181.30 181.90 182.23 182.12 183.16 C 182.33 184.09 183.26 184.67 184.19 184.45 Z M 185.17 184.21 L 186.14 183.98 C 187.06 183.76 187.63 182.84 187.41 181.92 C 187.19 181.00 186.27 180.43 185.35 180.65 L 184.38 180.88 C 183.46 181.10 182.89 182.02 183.11 182.94 C 183.33 183.86 184.25 184.43 185.17 184.21 Z M 186.15 183.96 L 187.12 183.72 C 188.03 183.50 188.59 182.58 188.36 181.67 C 188.14 180.76 187.22 180.21 186.32 180.43 L 185.34 180.67 C 184.44 180.89 183.88 181.81 184.10 182.71 C 184.32 183.62 185.24 184.18 186.15 183.96 Z M 187.13 183.70 L 188.11 183.45 C 189.01 183.22 189.55 182.31 189.32 181.41 C 189.09 180.51 188.18 179.97 187.28 180.20 L 186.30 180.45 C 185.40 180.68 184.86 181.59 185.09 182.49 C 185.32 183.39 186.23 183.93 187.13 183.70 Z M 188.13 183.44 L 189.10 183.18 C 189.99 182.94 190.52 182.03 190.28 181.13 C 190.04 180.24 189.12 179.71 188.23 179.95 L 187.26 180.21 C 186.37 180.45 185.84 181.37 186.08 182.26 C 186.32 183.15 187.24 183.68 188.13 183.44 Z M 189.12 183.16 L 190.08 182.89 C 190.96 182.65 191.47 181.73 191.22 180.85 C 190.97 179.96 190.06 179.45 189.17 179.70 L 188.21 179.97 C 187.33 180.22 186.82 181.13 187.07 182.02 C 187.32 182.90 188.23 183.41 189.12 183.16 Z M 190.10 182.88 L 191.06 182.59 C 191.93 182.33 192.43 181.41 192.17 180.54 C 191.91 179.66 190.99 179.16 190.11 179.43 L 189.15 179.71 C 188.28 179.97 187.78 180.89 188.04 181.77 C 188.30 182.64 189.22 183.14 190.10 182.88 Z M 191.08 182.58 L 192.04 182.28 C 192.91 182.00 193.39 181.08 193.12 180.21 C 192.85 179.34 191.93 178.86 191.06 179.13 L 190.09 179.44 C 189.22 179.71 188.74 180.63 189.01 181.50 C 189.29 182.37 190.21 182.85 191.08 182.58 Z M 192.05 182.27 L 193.00 181.96 C 193.87 181.69 194.34 180.76 194.06 179.90 C 193.78 179.03 192.86 178.56 191.99 178.84 L 191.05 179.14 C 190.18 179.42 189.71 180.35 189.99 181.21 C 190.27 182.07 191.19 182.55 192.05 182.27 Z M 193.00 181.96 L 193.94 181.66 C 194.80 181.38 195.27 180.46 194.99 179.60 C 194.72 178.74 193.79 178.26 192.93 178.54 L 192.00 178.84 C 191.13 179.12 190.66 180.04 190.94 180.90 C 191.22 181.76 192.14 182.24 193.00 181.96 Z M 193.92 181.66 L 194.89 181.36 C 195.75 181.09 196.23 180.17 195.96 179.30 C 195.69 178.44 194.77 177.96 193.90 178.24 L 192.94 178.54 C 192.08 178.81 191.60 179.73 191.87 180.59 C 192.14 181.45 193.06 181.93 193.92 181.66 Z M 194.88 181.36 L 195.83 181.07 C 196.70 180.80 197.18 179.88 196.91 179.02 C 196.65 178.16 195.73 177.67 194.87 177.94 L 193.91 178.23 C 193.05 178.50 192.57 179.42 192.83 180.28 C 193.10 181.14 194.01 181.63 194.88 181.36 Z M 195.83 181.07 L 196.78 180.78 C 197.64 180.51 198.13 179.60 197.87 178.73 C 197.60 177.87 196.69 177.38 195.82 177.65 L 194.87 177.94 C 194.01 178.20 193.52 179.12 193.78 179.98 C 194.05 180.84 194.96 181.33 195.83 181.07 Z M 196.78 180.78 L 196.94 180.73 C 197.81 180.46 198.29 179.55 198.03 178.69 C 197.77 177.82 196.85 177.33 195.99 177.60 L 195.82 177.65 C 194.96 177.91 194.47 178.82 194.73 179.69 C 195.00 180.55 195.91 181.04 196.78 180.78 Z"
      fill="black"
      fill-rule="nonzero" /></svg>