<svg xmlns="http://www.w3.org/2000/svg" width="300" height="300" viewBox="0 0 300 300">
<path d="M 125.34 118.83 L 126.34 118.61 C 127.23 118.41 127.80 117.53 127.60 116.63 C 127.40 115.74 126.52 115.17 125.63 115.37 L 124.63 115.59 C 123.73 115.79 123.17 116.67 123.37 117.56 C 123.56 118.46 124.45 119.02 125.34 118.83 Z M 126.33 118.66 L 127.32 118.46 C 128.24 118.26 128.84 117.36 128.64 116.44 C 128.45 115.51 127.55 114.92 126.62 115.11 L 125.63 115.32 C 124.71 115.51 124.12 116.41 124.31 117.34 C 124.50 118.26 125.40 118.85 126.33 118.66 Z M 127.29 118.52 L 128.26 118.34 C 129.22 118.17 129.85 117.25 129.68 116.29 C 129.50 115.33 128.59 114.70 127.63 114.87 L 126.66 115.05 C 125.70 115.22 125.06 116.14 125.24 117.10 C 125.41 118.06 126.33 118.69 127.29 118.52 Z M 128.19 118.39 L 129.15 118.26 C 130.14 118.12 130.82 117.21 130.69 116.22 C 130.55 115.23 129.63 114.55 128.65 114.69 L 127.69 114.82 C 126.70 114.96 126.02 115.87 126.16 116.86 C 126.30 117.85 127.21 118.53 128.19 118.39 Z M 129.07 118.28 L 130.03 118.19 C 131.03 118.10 131.76 117.21 131.67 116.21 C 131.57 115.21 130.68 114.47 129.68 114.57 L 128.72 114.66 C 127.72 114.76 126.99 115.64 127.09 116.65 C 127.18 117.65 128.07 118.38 129.07 118.28 Z M 129.97 118.20 L 130.96 118.13 C 131.96 118.07 132.72 117.20 132.66 116.20 C 132.59 115.20 131.72 114.43 130.72 114.50 L 129.74 114.56 C 128.73 114.63 127.97 115.49 128.04 116.50 C 128.10 117.50 128.97 118.26 129.97 118.20 Z M 130.93 118.14 L 131.99 118.08 C 132.99 118.03 133.77 117.17 133.71 116.17 C 133.66 115.16 132.81 114.39 131.80 114.44 L 130.74 114.50 C 129.74 114.55 128.97 115.41 129.02 116.41 C 129.07 117.42 129.93 118.19 130.93 118.14 Z M 131.99 118.08 L 132.88 118.04 C 133.89 117.98 134.66 117.12 134.61 116.12 C 134.55 115.12 133.70 114.34 132.69 114.40 L 131.80 114.44 C 130.79 114.50 130.02 115.35 130.07 116.36 C 130.13 117.36 130.98 118.13 131.99 118.08 Z M 132.89 118.03 L 133.83 117.98 C 134.83 117.92 135.60 117.06 135.54 116.06 C 135.48 115.05 134.62 114.29 133.62 114.34 L 132.68 114.40 C 131.68 114.46 130.91 115.32 130.97 116.32 C 131.03 117.32 131.89 118.09 132.89 118.03 Z M 133.84 117.98 L 134.84 117.91 C 135.85 117.85 136.61 116.98 136.54 115.98 C 136.48 114.98 135.61 114.22 134.61 114.28 L 133.60 114.35 C 132.60 114.41 131.84 115.28 131.91 116.28 C 131.97 117.28 132.84 118.04 133.84 117.98 Z M 134.86 117.91 L 135.93 117.83 C 136.93 117.76 137.68 116.88 137.61 115.88 C 137.54 114.88 136.66 114.13 135.66 114.20 L 134.59 114.28 C 133.59 114.36 132.84 115.23 132.91 116.23 C 132.99 117.23 133.86 117.98 134.86 117.91 Z M 135.95 117.83 L 137.04 117.74 C 138.04 117.65 138.79 116.77 138.70 115.77 C 138.62 114.77 137.74 114.03 136.74 114.11 L 135.65 114.21 C 134.65 114.29 133.90 115.17 133.99 116.17 C 134.07 117.17 134.95 117.91 135.95 117.83 Z M 137.06 117.73 L 138.07 117.64 C 139.07 117.54 139.80 116.66 139.71 115.66 C 139.62 114.67 138.74 113.93 137.74 114.03 L 136.72 114.12 C 135.73 114.21 134.99 115.10 135.09 116.09 C 135.18 117.09 136.06 117.82 137.06 117.73 Z M 138.09 117.63 L 139.12 117.53 C 140.11 117.43 140.84 116.54 140.74 115.55 C 140.64 114.55 139.75 113.83 138.76 113.93 L 137.73 114.03 C 136.73 114.13 136.01 115.02 136.11 116.01 C 136.21 117.01 137.09 117.73 138.09 117.63 Z M 139.13 117.52 L 140.15 117.41 C 141.15 117.31 141.86 116.42 141.76 115.43 C 141.65 114.43 140.76 113.72 139.77 113.82 L 138.75 113.93 C 137.76 114.04 137.04 114.93 137.14 115.92 C 137.25 116.91 138.14 117.63 139.13 117.52 Z M 140.17 117.41 L 141.16 117.29 C 142.14 117.18 142.85 116.29 142.74 115.30 C 142.63 114.31 141.74 113.60 140.75 113.72 L 139.76 113.83 C 138.77 113.94 138.06 114.83 138.17 115.82 C 138.29 116.81 139.18 117.52 140.17 117.41 Z M 141.17 117.29 L 142.10 117.18 C 143.08 117.06 143.79 116.16 143.67 115.18 C 143.55 114.19 142.65 113.49 141.67 113.61 L 140.74 113.72 C 139.75 113.84 139.05 114.73 139.17 115.72 C 139.29 116.70 140.18 117.41 141.17 117.29 Z M 142.11 117.17 L 143.22 117.02 C 144.20 116.90 144.89 116.00 144.76 115.02 C 144.64 114.04 143.74 113.35 142.76 113.48 L 141.66 113.62 C 140.68 113.75 139.98 114.64 140.11 115.62 C 140.24 116.60 141.13 117.29 142.11 117.17 Z M 143.24 117.01 L 144.27 116.86 C 145.24 116.73 145.91 115.83 145.78 114.86 C 145.64 113.89 144.74 113.21 143.77 113.35 L 142.74 113.49 C 141.77 113.63 141.09 114.53 141.23 115.50 C 141.37 116.47 142.27 117.15 143.24 117.01 Z M 144.29 116.85 L 145.22 116.70 C 146.18 116.55 146.84 115.65 146.69 114.69 C 146.55 113.73 145.65 113.07 144.68 113.22 L 143.75 113.36 C 142.79 113.51 142.13 114.41 142.28 115.38 C 142.43 116.34 143.33 117.00 144.29 116.85 Z M 145.24 116.69 L 146.12 116.54 C 147.08 116.38 147.72 115.47 147.56 114.52 C 147.40 113.57 146.49 112.93 145.54 113.09 L 144.66 113.24 C 143.71 113.40 143.07 114.30 143.23 115.25 C 143.39 116.21 144.29 116.85 145.24 116.69 Z M 146.14 116.52 L 147.12 116.35 C 148.07 116.17 148.69 115.27 148.52 114.32 C 148.35 113.38 147.44 112.75 146.50 112.93 L 145.52 113.10 C 144.58 113.27 143.95 114.18 144.12 115.12 C 144.29 116.07 145.20 116.69 146.14 116.52 Z M 147.14 116.33 L 148.12 116.15 C 149.06 115.97 149.67 115.06 149.49 114.12 C 149.31 113.18 148.41 112.57 147.47 112.75 L 146.49 112.94 C 145.55 113.12 144.93 114.02 145.11 114.96 C 145.29 115.90 146.20 116.51 147.14 116.33 Z M 148.13 116.14 L 149.10 115.94 C 150.04 115.76 150.64 114.85 150.46 113.92 C 150.27 112.99 149.37 112.38 148.44 112.57 L 147.46 112.76 C 146.53 112.94 145.92 113.85 146.10 114.78 C 146.29 115.71 147.19 116.32 148.13 116.14 Z M 149.11 115.93 L 150.08 115.74 C 151.01 115.55 151.61 114.65 151.43 113.72 C 151.24 112.79 150.34 112.19 149.41 112.38 L 148.43 112.57 C 147.51 112.76 146.91 113.66 147.09 114.59 C 147.28 115.52 148.18 116.12 149.11 115.93 Z M 150.09 115.73 L 151.06 115.53 C 151.99 115.34 152.58 114.45 152.40 113.52 C 152.21 112.60 151.31 112.00 150.39 112.19 L 149.41 112.39 C 148.49 112.57 147.89 113.47 148.08 114.40 C 148.26 115.32 149.16 115.91 150.09 115.73 Z M 151.07 115.52 L 152.05 115.32 C 152.97 115.13 153.56 114.23 153.37 113.31 C 153.18 112.40 152.28 111.81 151.36 112.00 L 150.38 112.20 C 149.47 112.39 148.88 113.29 149.07 114.20 C 149.26 115.12 150.15 115.71 151.07 115.52 Z M 152.06 115.30 L 153.04 115.09 C 153.95 114.90 154.53 114.00 154.33 113.09 C 154.14 112.18 153.24 111.60 152.33 111.80 L 151.35 112.01 C 150.44 112.21 149.86 113.10 150.06 114.01 C 150.26 114.92 151.15 115.50 152.06 115.30 Z M 153.06 115.08 L 154.03 114.86 C 154.93 114.65 155.50 113.76 155.29 112.85 C 155.09 111.95 154.19 111.38 153.29 111.59 L 152.31 111.81 C 151.41 112.02 150.84 112.91 151.05 113.82 C 151.26 114.72 152.15 115.29 153.06 115.08 Z M 154.04 114.85 L 155.02 114.61 C 155.91 114.40 156.47 113.50 156.25 112.60 C 156.04 111.71 155.14 111.16 154.24 111.37 L 153.27 111.60 C 152.37 111.82 151.82 112.72 152.04 113.61 C 152.25 114.51 153.15 115.06 154.04 114.85 Z M 155.03 114.60 L 156.01 114.36 C 156.89 114.13 157.43 113.23 157.21 112.35 C 156.99 111.46 156.09 110.92 155.20 111.14 L 154.23 111.38 C 153.34 111.61 152.80 112.51 153.02 113.40 C 153.24 114.28 154.14 114.82 155.03 114.60 Z M 156.02 114.34 L 156.99 114.09 C 157.88 113.86 158.40 112.95 158.17 112.07 C 157.94 111.19 157.04 110.67 156.16 110.90 L 155.18 111.15 C 154.30 111.38 153.78 112.29 154.01 113.17 C 154.24 114.05 155.14 114.58 156.02 114.34 Z M 157.01 114.07 L 157.98 113.81 C 158.85 113.57 159.37 112.66 159.13 111.79 C 158.89 110.92 157.98 110.40 157.11 110.64 L 156.14 110.91 C 155.27 111.15 154.75 112.06 154.99 112.93 C 155.24 113.80 156.14 114.31 157.01 114.07 Z M 158.00 113.79 L 158.96 113.51 C 159.82 113.26 160.32 112.36 160.07 111.49 C 159.82 110.63 158.91 110.13 158.05 110.38 L 157.09 110.66 C 156.23 110.91 155.73 111.82 155.98 112.68 C 156.23 113.55 157.14 114.04 158.00 113.79 Z M 158.98 113.49 L 159.93 113.20 C 160.78 112.94 161.26 112.03 161.00 111.18 C 160.73 110.32 159.83 109.84 158.97 110.11 L 158.03 110.40 C 157.17 110.66 156.69 111.57 156.96 112.42 C 157.22 113.28 158.13 113.76 158.98 113.49 Z M 159.95 113.18 L 160.90 112.87 C 161.74 112.60 162.21 111.69 161.93 110.84 C 161.65 110.00 160.74 109.54 159.90 109.81 L 158.95 110.12 C 158.10 110.40 157.64 111.31 157.92 112.16 C 158.20 113.00 159.11 113.46 159.95 113.18 Z M 160.92 112.86 L 161.86 112.54 C 162.69 112.25 163.14 111.34 162.85 110.50 C 162.57 109.67 161.66 109.22 160.82 109.51 L 159.88 109.83 C 159.04 110.11 158.60 111.03 158.88 111.86 C 159.17 112.70 160.08 113.15 160.92 112.86 Z M 161.87 112.52 L 162.82 112.19 C 163.65 111.90 164.08 110.99 163.79 110.16 C 163.50 109.33 162.59 108.89 161.76 109.18 L 160.81 109.52 C 159.98 109.81 159.54 110.72 159.84 111.55 C 160.13 112.38 161.04 112.82 161.87 112.52 Z M 162.82 112.18 L 163.71 111.86 C 164.54 111.57 164.97 110.66 164.67 109.83 C 164.37 109.01 163.47 108.58 162.64 108.88 L 161.75 109.19 C 160.93 109.49 160.50 110.40 160.80 111.22 C 161.09 112.05 162.00 112.48 162.82 112.18 Z M 163.73 111.85 L 164.65 111.50 C 165.47 111.20 165.88 110.28 165.57 109.47 C 165.26 108.65 164.35 108.24 163.54 108.55 L 162.62 108.89 C 161.80 109.20 161.39 110.11 161.70 110.93 C 162.01 111.74 162.92 112.16 163.73 111.85 Z M 164.69 111.48 L 165.64 111.09 C 166.44 110.77 166.83 109.85 166.50 109.04 C 166.17 108.24 165.26 107.85 164.45 108.18 L 163.50 108.57 C 162.69 108.89 162.31 109.81 162.63 110.62 C 162.96 111.42 163.88 111.81 164.69 111.48 Z M 165.69 111.07 L 166.64 110.64 C 167.43 110.29 167.79 109.36 167.43 108.57 C 167.08 107.78 166.15 107.42 165.36 107.78 L 164.40 108.20 C 163.61 108.56 163.26 109.49 163.61 110.28 C 163.97 111.07 164.90 111.42 165.69 111.07 Z M 166.70 110.61 L 167.61 110.16 C 168.38 109.77 168.70 108.83 168.31 108.06 C 167.92 107.28 166.98 106.97 166.21 107.35 L 165.30 107.81 C 164.53 108.19 164.21 109.13 164.60 109.91 C 164.98 110.68 165.92 111.00 166.70 110.61 Z M 167.68 110.12 L 168.57 109.61 C 169.32 109.19 169.59 108.23 169.16 107.48 C 168.73 106.73 167.78 106.46 167.02 106.89 L 166.14 107.40 C 165.38 107.82 165.12 108.78 165.55 109.53 C 165.97 110.28 166.93 110.54 167.68 110.12 Z M 168.67 109.55 L 169.50 108.99 C 170.21 108.51 170.41 107.54 169.92 106.82 C 169.44 106.11 168.47 105.92 167.75 106.40 L 166.93 106.95 C 166.21 107.43 166.02 108.41 166.50 109.12 C 166.98 109.84 167.95 110.03 168.67 109.55 Z M 169.63 108.89 L 170.38 108.26 C 171.05 107.70 171.13 106.72 170.58 106.06 C 170.02 105.40 169.04 105.31 168.38 105.87 L 167.62 106.50 C 166.96 107.05 166.88 108.04 167.43 108.70 C 167.98 109.36 168.97 109.45 169.63 108.89 Z M 170.54 108.11 L 171.23 107.35 C 171.81 106.71 171.76 105.72 171.12 105.14 C 170.48 104.56 169.49 104.61 168.91 105.25 L 168.22 106.01 C 167.64 106.65 167.69 107.64 168.33 108.22 C 168.97 108.80 169.96 108.75 170.54 108.11 Z M 171.34 107.21 L 171.91 106.40 C 172.41 105.70 172.25 104.73 171.55 104.23 C 170.85 103.72 169.87 103.89 169.37 104.59 L 168.80 105.39 C 168.30 106.10 168.46 107.07 169.16 107.57 C 169.87 108.07 170.84 107.91 171.34 107.21 Z M 171.97 106.31 L 172.48 105.49 C 172.93 104.75 172.70 103.79 171.97 103.34 C 171.23 102.89 170.27 103.12 169.82 103.85 L 169.31 104.68 C 168.86 105.41 169.09 106.38 169.82 106.83 C 170.56 107.28 171.52 107.05 171.97 106.31 Z M 172.49 105.47 L 172.61 105.27 C 173.05 104.53 172.80 103.57 172.06 103.13 C 171.32 102.69 170.36 102.94 169.92 103.68 L 169.81 103.88 C 169.37 104.62 169.61 105.58 170.36 106.01 C 171.10 106.45 172.06 106.21 172.49 105.47 Z"
      fill="black"
      fill-rule="nonzero" /><path d="M 147.60 109.06 L 147.87 110.02 C 148.14 110.94 149.09 111.46 150.01 111.20 C 150.92 110.94 151.45 109.98 151.19 109.06 L 150.91 108.11 C 150.64 107.19 149.69 106.66 148.77 106.93 C 147.86 107.19 147.33 108.15 147.60 109.06 Z M 147.85 110.03 L 148.13 110.98 C 148.40 111.91 149.36 112.44 150.29 112.18 C 151.21 111.91 151.75 110.94 151.48 110.02 L 151.20 109.06 C 150.94 108.14 149.97 107.60 149.05 107.87 C 148.12 108.14 147.59 109.10 147.85 110.03 Z M 148.11 110.99 L 148.39 111.95 C 148.65 112.88 149.63 113.42 150.56 113.16 C 151.50 112.89 152.04 111.91 151.77 110.98 L 151.50 110.02 C 151.23 109.08 150.26 108.54 149.32 108.81 C 148.39 109.08 147.85 110.05 148.11 110.99 Z M 148.37 111.95 L 148.64 112.91 C 148.91 113.85 149.89 114.40 150.83 114.14 C 151.78 113.87 152.33 112.89 152.06 111.94 L 151.79 110.98 C 151.52 110.04 150.54 109.49 149.60 109.75 C 148.65 110.02 148.10 111.00 148.37 111.95 Z M 148.62 112.91 L 148.89 113.87 C 149.15 114.83 150.14 115.39 151.10 115.12 C 152.05 114.86 152.61 113.87 152.35 112.91 L 152.08 111.95 C 151.82 110.99 150.83 110.43 149.87 110.70 C 148.92 110.96 148.36 111.95 148.62 112.91 Z M 148.88 113.87 L 149.15 114.87 C 149.41 115.84 150.40 116.41 151.37 116.15 C 152.33 115.88 152.90 114.89 152.64 113.93 L 152.36 112.92 C 152.10 111.96 151.11 111.39 150.15 111.65 C 149.18 111.91 148.61 112.90 148.88 113.87 Z M 149.14 114.86 L 149.41 115.88 C 149.67 116.85 150.66 117.42 151.62 117.17 C 152.59 116.91 153.17 115.92 152.91 114.96 L 152.64 113.94 C 152.39 112.97 151.40 112.40 150.43 112.65 C 149.46 112.91 148.89 113.90 149.14 114.86 Z M 149.41 115.87 L 149.67 116.86 C 149.91 117.83 150.90 118.41 151.87 118.16 C 152.84 117.91 153.42 116.93 153.17 115.96 L 152.91 114.97 C 152.66 114.00 151.68 113.42 150.71 113.67 C 149.74 113.92 149.16 114.90 149.41 115.87 Z M 149.66 116.85 L 149.90 117.80 C 150.14 118.77 151.13 119.36 152.10 119.12 C 153.06 118.88 153.65 117.90 153.41 116.93 L 153.17 115.97 C 152.93 115.00 151.95 114.41 150.98 114.66 C 150.01 114.90 149.42 115.88 149.66 116.85 Z M 149.90 117.79 L 150.12 118.69 C 150.35 119.66 151.33 120.26 152.30 120.02 C 153.27 119.79 153.87 118.81 153.63 117.84 L 153.41 116.94 C 153.18 115.97 152.20 115.37 151.23 115.61 C 150.26 115.84 149.66 116.82 149.90 117.79 Z M 150.11 118.67 L 150.35 119.70 C 150.57 120.67 151.54 121.28 152.52 121.06 C 153.49 120.83 154.10 119.86 153.87 118.89 L 153.63 117.86 C 153.41 116.89 152.44 116.28 151.47 116.51 C 150.50 116.73 149.89 117.70 150.11 118.67 Z M 150.35 119.67 L 150.56 120.68 C 150.77 121.65 151.73 122.27 152.70 122.06 C 153.68 121.85 154.30 120.89 154.09 119.92 L 153.88 118.92 C 153.67 117.94 152.71 117.32 151.73 117.53 C 150.76 117.74 150.14 118.70 150.35 119.67 Z M 150.56 120.65 L 150.74 121.58 C 150.93 122.56 151.88 123.20 152.86 123.00 C 153.84 122.81 154.47 121.86 154.28 120.89 L 154.09 119.95 C 153.90 118.97 152.95 118.33 151.98 118.53 C 151.00 118.72 150.36 119.67 150.56 120.65 Z M 150.74 121.56 L 150.90 122.47 C 151.08 123.45 152.02 124.10 153.00 123.93 C 153.98 123.75 154.63 122.81 154.45 121.83 L 154.28 120.92 C 154.11 119.94 153.17 119.29 152.19 119.46 C 151.21 119.64 150.56 120.58 150.74 121.56 Z M 150.90 122.45 L 151.06 123.40 C 151.23 124.38 152.15 125.05 153.13 124.88 C 154.11 124.72 154.77 123.79 154.61 122.81 L 154.45 121.86 C 154.29 120.88 153.36 120.22 152.38 120.38 C 151.40 120.54 150.74 121.47 150.90 122.45 Z M 151.06 123.39 L 151.22 124.37 C 151.37 125.35 152.29 126.02 153.27 125.86 C 154.25 125.71 154.92 124.79 154.77 123.81 L 154.61 122.83 C 154.46 121.85 153.54 121.18 152.56 121.33 C 151.58 121.49 150.91 122.41 151.06 123.39 Z M 151.22 124.36 L 151.37 125.37 C 151.53 126.34 152.44 127.02 153.42 126.86 C 154.40 126.71 155.07 125.79 154.92 124.81 L 154.76 123.81 C 154.61 122.83 153.70 122.16 152.72 122.31 C 151.74 122.47 151.07 123.38 151.22 124.36 Z M 151.38 125.37 L 151.53 126.36 C 151.69 127.34 152.60 128.01 153.58 127.86 C 154.56 127.70 155.23 126.79 155.07 125.81 L 154.92 124.81 C 154.76 123.83 153.85 123.17 152.87 123.32 C 151.89 123.47 151.22 124.39 151.38 125.37 Z M 151.54 126.37 L 151.69 127.32 C 151.84 128.30 152.76 128.96 153.74 128.81 C 154.72 128.65 155.38 127.73 155.22 126.76 L 155.07 125.80 C 154.92 124.83 154.00 124.16 153.02 124.32 C 152.05 124.47 151.38 125.39 151.54 126.37 Z M 151.69 127.32 L 151.85 128.30 C 152.00 129.28 152.92 129.94 153.89 129.79 C 154.87 129.63 155.53 128.72 155.38 127.74 L 155.22 126.76 C 155.07 125.79 154.15 125.12 153.18 125.27 C 152.20 125.43 151.54 126.34 151.69 127.32 Z M 151.85 128.29 L 152.00 129.30 C 152.15 130.28 153.06 130.95 154.03 130.80 C 155.01 130.65 155.68 129.74 155.53 128.76 L 155.38 127.75 C 155.23 126.78 154.32 126.11 153.34 126.26 C 152.37 126.41 151.70 127.32 151.85 128.29 Z M 152.00 129.29 L 152.15 130.31 C 152.29 131.28 153.19 131.96 154.16 131.82 C 155.14 131.68 155.82 130.78 155.68 129.80 L 155.53 128.78 C 155.39 127.81 154.49 127.13 153.51 127.27 C 152.54 127.41 151.86 128.31 152.00 129.29 Z M 152.15 130.29 L 152.28 131.29 C 152.41 132.26 153.30 132.95 154.28 132.82 C 155.25 132.69 155.94 131.80 155.81 130.82 L 155.68 129.82 C 155.55 128.85 154.65 128.16 153.68 128.29 C 152.70 128.42 152.02 129.31 152.15 130.29 Z M 152.28 131.27 L 152.40 132.28 C 152.52 133.25 153.41 133.94 154.38 133.82 C 155.35 133.71 156.05 132.82 155.93 131.85 L 155.81 130.84 C 155.69 129.87 154.80 129.17 153.83 129.29 C 152.86 129.41 152.16 130.30 152.28 131.27 Z M 152.41 132.26 L 152.52 133.26 C 152.63 134.23 153.50 134.93 154.48 134.82 C 155.45 134.71 156.15 133.83 156.04 132.86 L 155.93 131.86 C 155.82 130.89 154.94 130.19 153.97 130.30 C 153.00 130.41 152.30 131.29 152.41 132.26 Z M 152.52 133.24 L 152.62 134.21 C 152.72 135.18 153.59 135.89 154.56 135.79 C 155.53 135.69 156.24 134.82 156.14 133.85 L 156.04 132.88 C 155.94 131.91 155.07 131.20 154.10 131.30 C 153.13 131.40 152.42 132.27 152.52 133.24 Z M 152.62 134.19 L 152.71 135.22 C 152.80 136.20 153.66 136.91 154.63 136.82 C 155.60 136.73 156.32 135.88 156.23 134.90 L 156.14 133.87 C 156.05 132.90 155.19 132.18 154.22 132.27 C 153.25 132.36 152.53 133.22 152.62 134.19 Z M 152.72 135.20 L 152.80 136.20 C 152.87 137.17 153.72 137.90 154.69 137.82 C 155.66 137.74 156.38 136.90 156.31 135.93 L 156.23 134.93 C 156.15 133.96 155.30 133.23 154.33 133.31 C 153.36 133.39 152.64 134.23 152.72 135.20 Z M 152.80 136.18 L 152.86 137.16 C 152.93 138.13 153.77 138.86 154.74 138.80 C 155.70 138.73 156.44 137.89 156.37 136.92 L 156.30 135.95 C 156.24 134.98 155.40 134.25 154.43 134.31 C 153.46 134.38 152.73 135.21 152.80 136.18 Z M 152.87 137.14 L 152.92 138.12 C 152.98 139.08 153.80 139.82 154.77 139.77 C 155.74 139.71 156.48 138.89 156.42 137.92 L 156.37 136.94 C 156.31 135.98 155.49 135.24 154.52 135.29 C 153.55 135.35 152.81 136.18 152.87 137.14 Z M 152.92 138.10 L 152.97 139.10 C 153.02 140.06 153.84 140.81 154.80 140.76 C 155.77 140.72 156.51 139.90 156.47 138.93 L 156.42 137.93 C 156.38 136.97 155.56 136.22 154.59 136.27 C 153.62 136.31 152.88 137.13 152.92 138.10 Z M 152.97 139.09 L 153.02 140.09 C 153.05 141.05 153.87 141.80 154.83 141.76 C 155.80 141.72 156.55 140.91 156.51 139.95 L 156.47 138.94 C 156.43 137.98 155.61 137.23 154.65 137.27 C 153.68 137.31 152.93 138.12 152.97 139.09 Z M 153.02 140.08 L 153.05 141.08 C 153.09 142.04 153.90 142.80 154.86 142.76 C 155.82 142.72 156.57 141.92 156.54 140.95 L 156.50 139.95 C 156.47 138.99 155.66 138.24 154.70 138.27 C 153.73 138.31 152.98 139.12 153.02 140.08 Z M 153.06 141.08 L 153.09 142.08 C 153.13 143.04 153.93 143.79 154.89 143.76 C 155.85 143.72 156.61 142.92 156.57 141.96 L 156.54 140.96 C 156.50 140.00 155.70 139.24 154.74 139.28 C 153.78 139.31 153.02 140.12 153.06 141.08 Z M 153.10 142.08 L 153.13 143.09 C 153.17 144.05 153.97 144.80 154.93 144.76 C 155.89 144.73 156.64 143.93 156.60 142.97 L 156.57 141.96 C 156.53 141.00 155.73 140.25 154.77 140.28 C 153.81 140.32 153.06 141.12 153.10 142.08 Z M 153.14 143.09 L 153.17 144.09 C 153.21 145.05 154.01 145.79 154.97 145.76 C 155.92 145.73 156.67 144.92 156.64 143.97 L 156.60 142.97 C 156.57 142.01 155.76 141.26 154.81 141.30 C 153.85 141.33 153.10 142.13 153.14 143.09 Z M 153.18 144.09 L 153.21 145.08 C 153.25 146.04 154.05 146.78 155.00 146.75 C 155.96 146.71 156.70 145.91 156.67 144.96 L 156.63 143.97 C 156.60 143.01 155.80 142.27 154.84 142.30 C 153.89 142.34 153.14 143.14 153.18 144.09 Z M 153.22 145.08 L 153.25 146.08 C 153.29 147.03 154.09 147.78 155.04 147.74 C 155.99 147.71 156.73 146.91 156.70 145.96 L 156.66 144.96 C 156.63 144.01 155.83 143.26 154.88 143.30 C 153.93 143.33 153.18 144.13 153.22 145.08 Z M 153.26 146.08 L 153.29 147.08 C 153.32 148.03 154.12 148.77 155.07 148.74 C 156.02 148.71 156.76 147.91 156.73 146.96 L 156.70 145.96 C 156.66 145.01 155.87 144.27 154.92 144.30 C 153.97 144.33 153.22 145.13 153.26 146.08 Z M 153.30 147.07 L 153.33 148.07 C 153.36 149.02 154.15 149.76 155.09 149.73 C 156.04 149.70 156.79 148.91 156.76 147.96 L 156.73 146.97 C 156.70 146.02 155.91 145.28 154.96 145.30 C 154.01 145.33 153.27 146.13 153.30 147.07 Z M 153.33 148.06 L 153.35 149.05 C 153.38 150.00 154.16 150.74 155.11 150.72 C 156.05 150.70 156.80 149.92 156.78 148.97 L 156.75 147.98 C 156.73 147.03 155.95 146.28 155.00 146.31 C 154.06 146.33 153.31 147.11 153.33 148.06 Z M 153.36 149.04 L 153.37 150.02 C 153.38 150.97 154.16 151.72 155.10 151.71 C 156.05 151.69 156.80 150.92 156.79 149.98 L 156.77 148.99 C 156.76 148.04 155.98 147.29 155.04 147.30 C 154.10 147.32 153.34 148.09 153.36 149.04 Z M 153.38 150.01 L 153.38 151.01 C 153.39 151.95 154.16 152.70 155.10 152.70 C 156.04 152.69 156.79 151.92 156.79 150.98 L 156.78 149.99 C 156.78 149.05 156.01 148.29 155.07 148.30 C 154.13 148.30 153.37 149.07 153.38 150.01 Z M 153.39 151.00 L 153.39 152.00 C 153.39 152.94 154.15 153.70 155.09 153.70 C 156.03 153.70 156.79 152.93 156.79 152.00 L 156.78 150.99 C 156.78 150.05 156.02 149.29 155.08 149.30 C 154.14 149.30 153.39 150.06 153.39 151.00 Z M 153.39 152.00 L 153.39 152.98 C 153.39 153.92 154.15 154.67 155.09 154.67 C 156.02 154.67 156.78 153.92 156.78 152.98 L 156.78 152.00 C 156.78 151.06 156.02 150.30 155.09 150.31 C 154.15 150.31 153.39 151.06 153.39 152.00 Z M 153.40 152.98 L 153.40 153.91 C 153.40 154.84 154.16 155.60 155.09 155.60 C 156.02 155.60 156.78 154.84 156.78 153.91 L 156.78 152.98 C 156.78 152.05 156.02 151.29 155.09 151.29 C 154.16 151.29 153.40 152.05 153.40 152.98 Z M 153.41 153.91 L 153.41 154.88 C 153.41 155.81 154.16 156.57 155.09 156.57 C 156.02 156.57 156.77 155.81 156.77 154.88 L 156.77 153.91 C 156.77 152.98 156.02 152.23 155.09 152.23 C 154.16 152.23 153.41 152.98 153.41 153.91 Z M 153.41 154.88 L 153.41 155.92 C 153.41 156.85 154.16 157.60 155.09 157.60 C 156.01 157.60 156.76 156.85 156.76 155.92 L 156.76 154.88 C 156.76 153.96 156.01 153.21 155.09 153.21 C 154.16 153.21 153.41 153.96 153.41 154.88 Z M 153.42 155.92 L 153.42 156.99 C 153.42 157.91 154.16 158.66 155.09 158.66 C 156.01 158.66 156.76 157.91 156.76 156.99 L 156.76 155.92 C 156.76 155.00 156.01 154.25 155.09 154.25 C 154.17 154.25 153.42 155.00 153.42 155.92 Z M 153.42 156.99 L 153.42 157.94 C 153.42 158.86 154.16 159.60 155.08 159.60 C 156.00 159.61 156.75 158.86 156.75 157.94 L 156.75 156.99 C 156.76 156.07 156.01 155.32 155.09 155.32 C 154.17 155.32 153.42 156.07 153.42 156.99 Z M 153.42 157.93 L 153.42 158.92 C 153.41 159.84 154.15 160.59 155.07 160.59 C 155.98 160.60 156.73 159.86 156.74 158.94 L 156.75 157.95 C 156.75 157.03 156.02 156.28 155.10 156.28 C 154.18 156.27 153.43 157.01 153.42 157.93 Z M 153.42 158.90 L 153.40 159.92 C 153.39 160.84 154.12 161.59 155.03 161.61 C 155.95 161.62 156.70 160.90 156.72 159.98 L 156.74 158.96 C 156.75 158.04 156.02 157.29 155.11 157.27 C 154.19 157.26 153.44 157.99 153.42 158.90 Z M 153.41 159.90 L 153.37 160.93 C 153.34 161.84 154.06 162.61 154.97 162.64 C 155.89 162.66 156.65 161.95 156.68 161.04 L 156.71 160.00 C 156.74 159.09 156.03 158.33 155.11 158.30 C 154.20 158.27 153.44 158.98 153.41 159.90 Z M 153.38 160.90 L 153.33 161.93 C 153.28 162.84 153.98 163.61 154.89 163.66 C 155.80 163.71 156.57 163.01 156.62 162.10 L 156.68 161.07 C 156.72 160.16 156.02 159.38 155.11 159.33 C 154.20 159.29 153.43 159.99 153.38 160.90 Z M 153.33 161.89 L 153.25 162.93 C 153.19 163.83 153.86 164.62 154.77 164.69 C 155.67 164.76 156.46 164.08 156.53 163.18 L 156.61 162.14 C 156.68 161.23 156.00 160.44 155.10 160.37 C 154.19 160.30 153.40 160.98 153.33 161.89 Z M 153.27 162.89 L 153.16 163.91 C 153.07 164.81 153.73 165.61 154.63 165.70 C 155.53 165.79 156.33 165.13 156.42 164.24 L 156.52 163.22 C 156.61 162.32 155.96 161.52 155.06 161.42 C 154.16 161.33 153.36 161.99 153.27 162.89 Z M 153.18 163.87 L 153.05 164.87 C 152.94 165.76 153.58 166.57 154.47 166.68 C 155.36 166.79 156.18 166.16 156.29 165.26 L 156.41 164.27 C 156.52 163.38 155.88 162.57 154.99 162.46 C 154.10 162.35 153.29 162.98 153.18 163.87 Z M 153.07 164.84 L 152.93 165.80 C 152.80 166.69 153.41 167.51 154.30 167.64 C 155.19 167.76 156.01 167.15 156.13 166.26 L 156.27 165.30 C 156.40 164.41 155.79 163.59 154.90 163.46 C 154.01 163.33 153.19 163.95 153.07 164.84 Z M 152.94 165.77 L 152.79 166.71 C 152.64 167.59 153.24 168.42 154.12 168.56 C 155.00 168.71 155.83 168.11 155.97 167.23 L 156.12 166.29 C 156.26 165.41 155.67 164.58 154.79 164.44 C 153.91 164.30 153.08 164.89 152.94 165.77 Z M 152.80 166.68 L 152.60 167.75 C 152.44 168.62 153.01 169.46 153.88 169.62 C 154.75 169.78 155.59 169.21 155.75 168.34 L 155.95 167.27 C 156.12 166.40 155.54 165.56 154.67 165.40 C 153.80 165.23 152.96 165.81 152.80 166.68 Z M 152.63 167.68 L 152.38 168.69 C 152.18 169.54 152.71 170.40 153.57 170.61 C 154.42 170.81 155.28 170.28 155.49 169.42 L 155.73 168.42 C 155.93 167.56 155.40 166.70 154.55 166.49 C 153.69 166.29 152.83 166.82 152.63 167.68 Z M 152.43 168.56 L 152.12 169.48 C 151.85 170.32 152.30 171.21 153.14 171.49 C 153.97 171.76 154.86 171.31 155.14 170.48 L 155.44 169.55 C 155.72 168.72 155.27 167.82 154.43 167.55 C 153.60 167.27 152.70 167.73 152.43 168.56 Z M 152.21 169.30 L 151.81 170.12 C 151.44 170.91 151.77 171.85 152.56 172.23 C 153.34 172.60 154.28 172.27 154.66 171.49 L 155.06 170.66 C 155.43 169.88 155.10 168.93 154.31 168.56 C 153.53 168.18 152.59 168.51 152.21 169.30 Z M 151.97 169.87 L 151.39 170.66 C 150.88 171.36 151.03 172.35 151.73 172.86 C 152.43 173.37 153.41 173.22 153.93 172.52 L 154.51 171.73 C 155.02 171.03 154.87 170.05 154.17 169.54 C 153.47 169.02 152.48 169.17 151.97 169.87 Z M 151.58 170.45 L 150.86 171.13 C 150.23 171.73 150.21 172.72 150.80 173.35 C 151.40 173.98 152.39 174.01 153.02 173.41 L 153.74 172.73 C 154.37 172.14 154.39 171.14 153.80 170.51 C 153.20 169.88 152.21 169.86 151.58 170.45 Z M 151.01 171.01 L 150.21 171.61 C 149.51 172.12 149.37 173.10 149.88 173.80 C 150.40 174.49 151.38 174.64 152.07 174.12 L 152.87 173.53 C 153.57 173.01 153.71 172.03 153.20 171.34 C 152.68 170.64 151.70 170.50 151.01 171.01 Z M 150.28 171.56 L 149.58 172.02 C 148.86 172.50 148.67 173.47 149.14 174.19 C 149.62 174.91 150.59 175.10 151.31 174.63 L 152.00 174.17 C 152.72 173.69 152.92 172.72 152.44 172.00 C 151.97 171.28 151.00 171.09 150.28 171.56 Z"
      fill="black"
      fill-rule="nonzero" /><path d="M 126.96 133.76 L 126.56 134.87 C 126.25 135.76 126.72 136.73 127.61 137.05 C 128.50 137.36 129.47 136.89 129.78 136.00 L 130.17 134.89 C 130.48 134.00 130.02 133.03 129.13 132.71 C 128.24 132.40 127.27 132.87 126.96 133.76 Z M 126.51 135.07 L 126.29 136.08 C 126.09 136.99 126.67 137.90 127.59 138.10 C 128.51 138.30 129.41 137.72 129.61 136.80 L 129.83 135.80 C 130.03 134.88 129.45 133.98 128.53 133.78 C 127.62 133.58 126.71 134.16 126.51 135.07 Z M 126.28 136.71 L 126.41 137.49 C 126.56 138.41 127.43 139.04 128.35 138.88 C 129.28 138.73 129.90 137.86 129.75 136.94 L 129.63 136.16 C 129.48 135.24 128.60 134.62 127.68 134.77 C 126.76 134.92 126.13 135.79 126.28 136.71 Z M 127.06 138.55 L 127.64 139.00 C 128.38 139.57 129.44 139.42 130.00 138.68 C 130.57 137.94 130.43 136.89 129.69 136.32 L 129.11 135.87 C 128.37 135.31 127.31 135.45 126.74 136.19 C 126.17 136.93 126.32 137.99 127.06 138.55 Z M 128.33 139.30 L 129.27 139.49 C 130.18 139.68 131.06 139.10 131.25 138.19 C 131.44 137.29 130.85 136.40 129.95 136.21 L 129.00 136.02 C 128.10 135.83 127.21 136.41 127.02 137.32 C 126.84 138.23 127.42 139.11 128.33 139.30 Z M 129.54 139.52 L 130.67 139.56 C 131.59 139.60 132.36 138.89 132.40 137.97 C 132.44 137.06 131.73 136.28 130.81 136.24 L 129.68 136.19 C 128.76 136.15 127.99 136.87 127.95 137.78 C 127.91 138.70 128.62 139.48 129.54 139.52 Z M 130.74 139.55 L 131.83 139.56 C 132.74 139.56 133.48 138.82 133.48 137.91 C 133.49 137.00 132.75 136.26 131.84 136.25 L 130.74 136.25 C 129.83 136.25 129.09 136.99 129.09 137.90 C 129.09 138.81 129.83 139.55 130.74 139.55 Z M 131.81 139.54 L 132.81 139.56 C 133.72 139.57 134.47 138.85 134.48 137.95 C 134.49 137.04 133.77 136.30 132.87 136.28 L 131.86 136.26 C 130.95 136.25 130.21 136.97 130.19 137.88 C 130.18 138.78 130.90 139.53 131.81 139.54 Z M 132.75 139.55 L 133.73 139.60 C 134.63 139.65 135.40 138.97 135.45 138.07 C 135.50 137.17 134.82 136.40 133.92 136.35 L 132.93 136.29 C 132.04 136.24 131.27 136.93 131.21 137.83 C 131.16 138.73 131.85 139.50 132.75 139.55 Z M 133.62 139.58 L 134.60 139.70 C 135.48 139.82 136.29 139.19 136.40 138.30 C 136.52 137.41 135.89 136.61 135.00 136.49 L 134.03 136.37 C 133.14 136.26 132.33 136.89 132.22 137.78 C 132.11 138.66 132.74 139.47 133.62 139.58 Z M 134.45 139.67 L 135.48 139.90 C 136.35 140.09 137.21 139.55 137.40 138.68 C 137.59 137.81 137.05 136.95 136.18 136.76 L 135.15 136.53 C 134.28 136.34 133.42 136.88 133.23 137.75 C 133.04 138.62 133.58 139.48 134.45 139.67 Z M 135.28 139.83 L 136.24 140.19 C 137.07 140.49 137.99 140.07 138.30 139.24 C 138.60 138.41 138.18 137.48 137.34 137.18 L 136.38 136.82 C 135.55 136.52 134.63 136.94 134.32 137.78 C 134.02 138.61 134.44 139.53 135.28 139.83 Z M 135.95 140.04 L 136.76 140.54 C 137.52 141.00 138.50 140.77 138.96 140.02 C 139.43 139.27 139.19 138.28 138.44 137.82 L 137.63 137.32 C 136.88 136.86 135.89 137.09 135.43 137.85 C 134.97 138.60 135.20 139.58 135.95 140.04 Z M 136.39 140.22 L 137.00 140.93 C 137.57 141.59 138.58 141.67 139.25 141.09 C 139.92 140.52 139.99 139.51 139.42 138.84 L 138.81 138.14 C 138.24 137.47 137.23 137.40 136.56 137.97 C 135.89 138.55 135.82 139.55 136.39 140.22 Z M 136.70 140.40 L 137.00 141.30 C 137.29 142.13 138.20 142.58 139.03 142.29 C 139.87 142.01 140.31 141.10 140.02 140.27 L 139.72 139.37 C 139.43 138.53 138.52 138.09 137.69 138.37 C 136.86 138.66 136.41 139.57 136.70 140.40 Z M 136.92 140.73 L 136.88 141.74 C 136.85 142.63 137.55 143.36 138.43 143.39 C 139.31 143.42 140.05 142.73 140.08 141.85 L 140.11 140.83 C 140.14 139.95 139.45 139.21 138.57 139.18 C 137.68 139.16 136.95 139.85 136.92 140.73 Z M 136.96 141.28 L 136.64 142.22 C 136.36 143.06 136.80 143.97 137.64 144.26 C 138.48 144.55 139.39 144.10 139.68 143.26 L 140.00 142.31 C 140.28 141.48 139.84 140.56 139.00 140.28 C 138.16 139.99 137.25 140.44 136.96 141.28 Z M 136.76 141.94 L 136.28 142.77 C 135.84 143.54 136.10 144.53 136.87 144.97 C 137.64 145.42 138.63 145.15 139.07 144.38 L 139.56 143.55 C 140.00 142.78 139.74 141.79 138.96 141.35 C 138.19 140.90 137.21 141.16 136.76 141.94 Z M 136.37 142.61 L 135.76 143.43 C 135.23 144.15 135.38 145.17 136.10 145.70 C 136.82 146.24 137.84 146.09 138.37 145.36 L 138.98 144.54 C 139.52 143.82 139.37 142.80 138.64 142.27 C 137.92 141.74 136.91 141.89 136.37 142.61 Z M 135.83 143.33 L 135.15 144.12 C 134.56 144.81 134.64 145.84 135.32 146.43 C 136.01 147.02 137.04 146.94 137.63 146.25 L 138.31 145.46 C 138.90 144.78 138.82 143.74 138.13 143.16 C 137.45 142.57 136.41 142.65 135.83 143.33 Z M 135.18 144.07 L 134.47 144.83 C 133.85 145.50 133.89 146.54 134.56 147.16 C 135.22 147.78 136.26 147.74 136.88 147.07 L 137.59 146.31 C 138.21 145.65 138.18 144.60 137.51 143.98 C 136.85 143.36 135.80 143.40 135.18 144.07 Z M 134.50 144.79 L 133.78 145.52 C 133.14 146.18 133.15 147.22 133.81 147.86 C 134.46 148.50 135.51 148.49 136.15 147.84 L 136.86 147.11 C 137.50 146.46 137.49 145.41 136.84 144.77 C 136.18 144.13 135.14 144.14 134.50 144.79 Z M 133.80 145.50 L 133.09 146.19 C 132.44 146.84 132.43 147.89 133.08 148.54 C 133.72 149.20 134.78 149.21 135.43 148.56 L 136.13 147.87 C 136.79 147.22 136.80 146.17 136.15 145.51 C 135.50 144.86 134.45 144.85 133.80 145.50 Z M 133.09 146.18 L 132.40 146.85 C 131.74 147.50 131.72 148.56 132.36 149.22 C 133.01 149.88 134.07 149.90 134.73 149.25 L 135.43 148.58 C 136.09 147.93 136.10 146.87 135.46 146.21 C 134.82 145.55 133.76 145.53 133.09 146.18 Z M 132.39 146.85 L 131.68 147.55 C 131.01 148.20 131.00 149.26 131.65 149.93 C 132.30 150.59 133.36 150.60 134.03 149.95 L 134.74 149.26 C 135.40 148.61 135.41 147.54 134.77 146.88 C 134.12 146.22 133.05 146.20 132.39 146.85 Z M 131.66 147.55 L 130.95 148.26 C 130.28 148.92 130.28 149.98 130.93 150.65 C 131.59 151.31 132.66 151.32 133.32 150.66 L 134.04 149.95 C 134.70 149.30 134.71 148.23 134.05 147.56 C 133.40 146.90 132.33 146.90 131.66 147.55 Z M 130.94 148.26 L 130.23 148.97 C 129.57 149.63 129.56 150.70 130.22 151.36 C 130.88 152.02 131.96 152.03 132.62 151.37 L 133.33 150.66 C 133.99 150.00 133.99 148.93 133.33 148.27 C 132.67 147.60 131.60 147.60 130.94 148.26 Z M 130.22 148.97 L 129.53 149.66 C 128.86 150.32 128.86 151.40 129.53 152.06 C 130.19 152.73 131.27 152.73 131.93 152.06 L 132.63 151.37 C 133.29 150.71 133.29 149.63 132.63 148.97 C 131.96 148.30 130.89 148.30 130.22 148.97 Z M 129.52 149.66 L 128.81 150.37 C 128.14 151.04 128.14 152.12 128.81 152.78 C 129.47 153.45 130.55 153.45 131.22 152.78 L 131.93 152.07 C 132.60 151.40 132.60 150.32 131.93 149.66 C 131.27 148.99 130.19 148.99 129.52 149.66 Z M 128.80 150.37 L 128.10 151.08 C 127.43 151.74 127.43 152.82 128.10 153.49 C 128.77 154.16 129.85 154.16 130.52 153.49 L 131.22 152.79 C 131.89 152.12 131.89 151.04 131.22 150.37 C 130.55 149.70 129.47 149.70 128.80 150.37 Z M 128.10 151.07 L 127.40 151.77 C 126.73 152.44 126.73 153.53 127.40 154.19 C 128.07 154.86 129.15 154.86 129.82 154.19 L 130.52 153.49 C 131.19 152.82 131.19 151.74 130.52 151.07 C 129.85 150.40 128.77 150.40 128.10 151.07 Z M 127.39 151.77 L 126.52 152.65 C 125.85 153.32 125.85 154.40 126.52 155.07 C 127.20 155.74 128.28 155.74 128.95 155.07 L 129.82 154.19 C 130.49 153.52 130.49 152.44 129.82 151.77 C 129.15 151.10 128.06 151.10 127.39 151.77 Z M 126.49 152.68 L 125.70 153.52 C 125.05 154.20 125.08 155.29 125.77 155.94 C 126.45 156.59 127.54 156.56 128.19 155.87 L 128.98 155.04 C 129.63 154.35 129.60 153.26 128.91 152.61 C 128.23 151.96 127.14 151.99 126.49 152.68 Z M 125.38 154.00 L 125.26 154.28 C 124.87 155.14 125.26 156.15 126.13 156.54 C 127.00 156.92 128.01 156.53 128.39 155.66 L 128.51 155.39 C 128.90 154.52 128.50 153.51 127.64 153.13 C 126.77 152.74 125.76 153.14 125.38 154.00 Z M 127.64 156.47 L 128.05 156.25 C 128.88 155.80 129.19 154.76 128.74 153.93 C 128.29 153.10 127.25 152.79 126.42 153.24 L 126.01 153.46 C 125.18 153.91 124.87 154.95 125.32 155.78 C 125.77 156.61 126.81 156.92 127.64 156.47 Z M 128.19 156.16 L 128.97 155.64 C 129.76 155.12 129.97 154.05 129.44 153.27 C 128.92 152.49 127.86 152.27 127.07 152.80 L 126.29 153.32 C 125.50 153.85 125.29 154.91 125.82 155.69 C 126.34 156.48 127.40 156.69 128.19 156.16 Z M 129.00 155.61 L 130.11 154.84 C 130.87 154.29 131.06 153.23 130.52 152.46 C 129.97 151.69 128.91 151.51 128.14 152.05 L 127.04 152.83 C 126.27 153.37 126.09 154.43 126.63 155.20 C 127.17 155.97 128.24 156.16 129.00 155.61 Z M 130.11 154.83 L 131.20 154.05 C 131.97 153.50 132.14 152.44 131.59 151.67 C 131.05 150.91 129.98 150.73 129.22 151.28 L 128.13 152.06 C 127.37 152.61 127.19 153.67 127.74 154.44 C 128.29 155.20 129.35 155.37 130.11 154.83 Z M 131.20 154.04 L 132.02 153.46 C 132.78 152.91 132.95 151.85 132.40 151.09 C 131.85 150.32 130.79 150.15 130.03 150.70 L 129.22 151.29 C 128.46 151.83 128.28 152.90 128.83 153.66 C 129.38 154.42 130.44 154.59 131.20 154.04 Z M 132.02 153.45 L 132.86 152.84 C 133.62 152.29 133.80 151.23 133.25 150.47 C 132.70 149.71 131.63 149.54 130.88 150.09 L 130.03 150.70 C 129.27 151.25 129.10 152.31 129.65 153.07 C 130.20 153.83 131.26 154.00 132.02 153.45 Z M 132.87 152.84 L 133.72 152.22 C 134.48 151.67 134.65 150.61 134.10 149.85 C 133.55 149.09 132.49 148.92 131.73 149.47 L 130.87 150.09 C 130.12 150.64 129.95 151.70 130.50 152.46 C 131.05 153.22 132.11 153.39 132.87 152.84 Z M 133.73 152.21 L 134.57 151.60 C 135.33 151.05 135.49 149.99 134.94 149.23 C 134.39 148.47 133.33 148.31 132.57 148.86 L 131.73 149.47 C 130.97 150.02 130.81 151.09 131.36 151.84 C 131.91 152.60 132.97 152.77 133.73 152.21 Z M 134.57 151.60 L 135.38 151.01 C 136.13 150.45 136.30 149.39 135.75 148.64 C 135.19 147.88 134.13 147.72 133.38 148.27 L 132.57 148.86 C 131.82 149.41 131.65 150.47 132.20 151.23 C 132.76 151.98 133.82 152.15 134.57 151.60 Z M 135.38 151.00 L 136.13 150.46 C 136.88 149.90 137.04 148.84 136.49 148.09 C 135.94 147.34 134.88 147.17 134.12 147.73 L 133.38 148.28 C 132.62 148.83 132.46 149.89 133.01 150.64 C 133.57 151.40 134.63 151.56 135.38 151.00 Z M 136.13 150.45 L 137.06 149.76 C 137.81 149.21 137.96 148.15 137.41 147.40 C 136.85 146.65 135.79 146.49 135.04 147.05 L 134.12 147.73 C 133.37 148.29 133.21 149.35 133.77 150.10 C 134.32 150.85 135.38 151.01 136.13 150.45 Z M 137.06 149.75 L 137.96 149.08 C 138.70 148.52 138.85 147.47 138.29 146.72 C 137.73 145.98 136.68 145.83 135.93 146.38 L 135.04 147.06 C 134.29 147.62 134.14 148.67 134.70 149.42 C 135.26 150.16 136.32 150.31 137.06 149.75 Z M 137.96 149.07 L 138.70 148.51 C 139.44 147.95 139.58 146.89 139.02 146.15 C 138.46 145.42 137.40 145.27 136.66 145.83 L 135.92 146.39 C 135.18 146.96 135.04 148.01 135.60 148.75 C 136.17 149.49 137.22 149.64 137.96 149.07 Z M 138.70 148.51 L 139.35 148.01 C 140.09 147.44 140.23 146.39 139.66 145.65 C 139.10 144.92 138.05 144.78 137.31 145.34 L 136.66 145.84 C 135.92 146.40 135.78 147.46 136.35 148.19 C 136.91 148.93 137.96 149.07 138.70 148.51 Z M 139.35 148.01 L 140.07 147.45 C 140.81 146.89 140.95 145.84 140.39 145.11 C 139.83 144.37 138.78 144.23 138.04 144.79 L 137.32 145.34 C 136.58 145.90 136.44 146.95 137.00 147.69 C 137.56 148.43 138.61 148.57 139.35 148.01 Z M 140.07 147.45 L 140.86 146.85 C 141.60 146.30 141.74 145.25 141.18 144.51 C 140.62 143.77 139.57 143.63 138.84 144.19 L 138.05 144.79 C 137.31 145.35 137.17 146.40 137.73 147.13 C 138.28 147.87 139.33 148.01 140.07 147.45 Z M 140.86 146.85 L 141.67 146.24 C 142.40 145.68 142.54 144.63 141.98 143.89 C 141.42 143.16 140.37 143.02 139.64 143.58 L 138.84 144.19 C 138.10 144.75 137.96 145.80 138.52 146.53 C 139.08 147.27 140.13 147.41 140.86 146.85 Z M 141.67 146.23 L 142.47 145.61 C 143.20 145.05 143.33 144.00 142.77 143.27 C 142.20 142.54 141.16 142.41 140.43 142.97 L 139.63 143.59 C 138.90 144.15 138.77 145.20 139.33 145.93 C 139.90 146.66 140.94 146.79 141.67 146.23 Z M 142.48 145.60 L 143.26 144.99 C 143.98 144.42 144.11 143.37 143.54 142.65 C 142.97 141.93 141.92 141.80 141.20 142.37 L 140.42 142.98 C 139.69 143.55 139.57 144.60 140.14 145.32 C 140.71 146.05 141.76 146.17 142.48 145.60 Z M 143.27 144.98 L 144.05 144.36 C 144.77 143.79 144.89 142.74 144.31 142.02 C 143.74 141.30 142.69 141.18 141.97 141.75 L 141.19 142.38 C 140.47 142.95 140.35 144.00 140.92 144.72 C 141.50 145.44 142.55 145.56 143.27 144.98 Z M 144.05 144.36 L 144.84 143.72 C 145.56 143.14 145.67 142.10 145.10 141.38 C 144.52 140.66 143.47 140.55 142.76 141.12 L 141.97 141.76 C 141.25 142.33 141.14 143.38 141.71 144.10 C 142.29 144.82 143.34 144.93 144.05 144.36 Z M 144.85 143.72 L 145.60 143.11 C 146.31 142.53 146.43 141.48 145.85 140.77 C 145.27 140.05 144.22 139.94 143.51 140.52 L 142.76 141.13 C 142.04 141.70 141.93 142.75 142.50 143.47 C 143.08 144.18 144.13 144.29 144.85 143.72 Z M 145.60 143.11 L 146.37 142.49 C 147.08 141.91 147.19 140.86 146.61 140.15 C 146.03 139.43 144.99 139.32 144.27 139.90 L 143.51 140.52 C 142.79 141.10 142.68 142.15 143.26 142.86 C 143.84 143.58 144.89 143.69 145.60 143.11 Z M 146.37 142.48 L 147.16 141.84 C 147.87 141.26 147.98 140.21 147.40 139.50 C 146.82 138.79 145.77 138.68 145.06 139.26 L 144.27 139.90 C 143.56 140.48 143.45 141.53 144.03 142.24 C 144.61 142.96 145.66 143.06 146.37 142.48 Z M 147.16 141.84 L 147.96 141.19 C 148.66 140.60 148.77 139.55 148.18 138.85 C 147.60 138.14 146.55 138.03 145.84 138.62 L 145.05 139.27 C 144.34 139.85 144.24 140.90 144.82 141.61 C 145.40 142.32 146.45 142.42 147.16 141.84 Z M 147.96 141.18 L 148.73 140.54 C 149.44 139.96 149.53 138.91 148.95 138.20 C 148.36 137.50 147.32 137.40 146.61 137.98 L 145.84 138.62 C 145.13 139.21 145.03 140.25 145.62 140.96 C 146.21 141.67 147.25 141.77 147.96 141.18 Z M 148.74 140.54 L 149.51 139.89 C 150.21 139.30 150.31 138.25 149.72 137.55 C 149.13 136.85 148.08 136.75 147.38 137.34 L 146.60 137.99 C 145.90 138.58 145.81 139.63 146.40 140.33 C 146.98 141.03 148.03 141.13 148.74 140.54 Z M 149.52 139.88 L 150.28 139.23 C 150.98 138.64 151.07 137.59 150.48 136.89 C 149.88 136.19 148.84 136.11 148.14 136.70 L 147.37 137.35 C 146.67 137.94 146.59 138.99 147.18 139.69 C 147.77 140.39 148.82 140.47 149.52 139.88 Z M 150.29 139.22 L 151.05 138.57 C 151.75 137.97 151.82 136.92 151.23 136.23 C 150.63 135.53 149.58 135.46 148.89 136.05 L 148.13 136.71 C 147.44 137.31 147.36 138.35 147.96 139.05 C 148.55 139.74 149.60 139.82 150.29 139.22 Z M 151.06 138.56 L 151.82 137.89 C 152.51 137.29 152.58 136.24 151.98 135.55 C 151.37 134.86 150.33 134.80 149.64 135.40 L 148.88 136.07 C 148.19 136.67 148.12 137.72 148.72 138.40 C 149.33 139.09 150.37 139.16 151.06 138.56 Z M 151.83 137.88 L 152.57 137.23 C 153.25 136.62 153.32 135.58 152.71 134.89 C 152.10 134.21 151.06 134.14 150.37 134.75 L 149.63 135.41 C 148.95 136.01 148.88 137.06 149.49 137.74 C 150.10 138.43 151.14 138.49 151.83 137.88 Z M 152.57 137.23 L 153.31 136.57 C 153.99 135.96 154.06 134.92 153.45 134.23 C 152.84 133.55 151.80 133.49 151.11 134.09 L 150.37 134.75 C 149.69 135.36 149.63 136.40 150.23 137.09 C 150.84 137.77 151.89 137.83 152.57 137.23 Z M 153.30 136.57 L 154.04 135.92 C 154.73 135.32 154.79 134.28 154.19 133.59 C 153.59 132.91 152.54 132.84 151.86 133.44 L 151.12 134.09 C 150.43 134.69 150.37 135.74 150.97 136.42 C 151.57 137.11 152.62 137.18 153.30 136.57 Z M 154.03 135.93 L 154.78 135.28 C 155.47 134.68 155.54 133.64 154.94 132.95 C 154.34 132.26 153.29 132.19 152.61 132.79 L 151.86 133.44 C 151.18 134.04 151.11 135.08 151.70 135.77 C 152.30 136.46 153.35 136.53 154.03 135.93 Z M 154.77 135.28 L 155.53 134.62 C 156.22 134.02 156.29 132.98 155.70 132.29 C 155.10 131.61 154.06 131.53 153.37 132.13 L 152.61 132.79 C 151.92 133.39 151.85 134.43 152.45 135.12 C 153.04 135.80 154.09 135.88 154.77 135.28 Z M 155.53 134.62 L 156.30 133.95 C 156.99 133.36 157.06 132.32 156.47 131.63 C 155.87 130.94 154.83 130.87 154.14 131.46 L 153.37 132.13 C 152.68 132.73 152.61 133.77 153.21 134.45 C 153.80 135.14 154.84 135.22 155.53 134.62 Z M 156.30 133.95 L 157.05 133.30 C 157.74 132.70 157.82 131.66 157.22 130.98 C 156.62 130.29 155.59 130.21 154.90 130.81 L 154.14 131.46 C 153.46 132.06 153.38 133.10 153.98 133.79 C 154.57 134.47 155.61 134.55 156.30 133.95 Z M 157.05 133.30 L 157.81 132.64 C 158.49 132.05 158.57 131.01 157.97 130.32 C 157.38 129.64 156.34 129.56 155.66 130.16 L 154.90 130.81 C 154.21 131.41 154.14 132.44 154.73 133.13 C 155.33 133.82 156.37 133.89 157.05 133.30 Z M 157.80 132.64 L 158.56 131.99 C 159.25 131.40 159.33 130.36 158.74 129.67 C 158.14 128.98 157.11 128.91 156.42 129.50 L 155.66 130.16 C 154.97 130.75 154.90 131.78 155.49 132.47 C 156.08 133.16 157.12 133.23 157.80 132.64 Z M 158.56 131.99 L 159.32 131.34 C 160.01 130.75 160.09 129.71 159.50 129.03 C 158.91 128.34 157.88 128.26 157.19 128.85 L 156.43 129.50 C 155.74 130.09 155.66 131.12 156.25 131.81 C 156.83 132.50 157.87 132.58 158.56 131.99 Z M 159.31 131.34 L 160.08 130.70 C 160.77 130.11 160.86 129.08 160.27 128.39 C 159.69 127.69 158.66 127.61 157.96 128.19 L 157.20 128.84 C 156.51 129.42 156.42 130.46 157.00 131.15 C 157.59 131.84 158.62 131.93 159.31 131.34 Z M 160.07 130.70 L 160.84 130.06 C 161.53 129.48 161.63 128.44 161.05 127.75 C 160.47 127.06 159.43 126.97 158.74 127.55 L 157.97 128.19 C 157.28 128.77 157.19 129.80 157.77 130.49 C 158.35 131.19 159.38 131.28 160.07 130.70 Z M 160.83 130.06 L 161.60 129.42 C 162.30 128.85 162.39 127.81 161.82 127.12 C 161.24 126.42 160.21 126.33 159.51 126.91 L 158.74 127.54 C 158.05 128.12 157.95 129.15 158.53 129.85 C 159.11 130.54 160.14 130.64 160.83 130.06 Z M 161.60 129.42 L 162.37 128.79 C 163.06 128.21 163.16 127.18 162.59 126.49 C 162.01 125.79 160.98 125.69 160.28 126.27 L 159.52 126.90 C 158.82 127.48 158.72 128.51 159.30 129.21 C 159.87 129.90 160.90 130.00 161.60 129.42 Z M 162.37 128.79 L 163.13 128.16 C 163.82 127.58 163.92 126.55 163.35 125.86 C 162.77 125.16 161.74 125.07 161.05 125.64 L 160.29 126.27 C 159.59 126.84 159.49 127.87 160.07 128.57 C 160.64 129.26 161.67 129.36 162.37 128.79 Z M 163.12 128.16 L 163.89 127.53 C 164.59 126.96 164.69 125.93 164.12 125.24 C 163.55 124.54 162.52 124.44 161.82 125.01 L 161.05 125.64 C 160.36 126.21 160.26 127.24 160.83 127.93 C 161.40 128.63 162.43 128.73 163.12 128.16 Z M 163.88 127.54 L 164.66 126.91 C 165.36 126.34 165.47 125.32 164.90 124.62 C 164.34 123.92 163.31 123.81 162.61 124.37 L 161.83 125.00 C 161.13 125.57 161.02 126.59 161.59 127.29 C 162.15 128.00 163.18 128.10 163.88 127.54 Z M 164.64 126.92 L 165.44 126.29 C 166.15 125.73 166.27 124.71 165.71 124.00 C 165.15 123.30 164.12 123.18 163.42 123.73 L 162.62 124.36 C 161.92 124.92 161.80 125.95 162.36 126.65 C 162.91 127.36 163.94 127.48 164.64 126.92 Z M 165.42 126.30 L 166.24 125.68 C 166.95 125.13 167.08 124.11 166.53 123.39 C 165.99 122.68 164.96 122.55 164.25 123.10 L 163.44 123.72 C 162.72 124.27 162.59 125.29 163.14 126.00 C 163.69 126.72 164.71 126.85 165.42 126.30 Z M 166.22 125.69 L 167.04 125.07 C 167.76 124.53 167.90 123.51 167.36 122.79 C 166.82 122.07 165.80 121.93 165.09 122.47 L 164.26 123.09 C 163.55 123.63 163.40 124.65 163.94 125.36 C 164.48 126.08 165.50 126.23 166.22 125.69 Z M 167.03 125.08 L 167.84 124.48 C 168.56 123.95 168.71 122.93 168.18 122.20 C 167.64 121.48 166.63 121.33 165.90 121.86 L 165.10 122.46 C 164.37 123.00 164.22 124.02 164.76 124.74 C 165.29 125.46 166.31 125.61 167.03 125.08 Z M 167.83 124.48 L 168.61 123.91 C 169.33 123.38 169.49 122.36 168.96 121.64 C 168.43 120.92 167.41 120.76 166.68 121.29 L 165.91 121.86 C 165.18 122.39 165.03 123.41 165.56 124.14 C 166.09 124.86 167.11 125.02 167.83 124.48 Z M 168.61 123.92 L 169.40 123.33 C 170.13 122.80 170.29 121.78 169.75 121.06 C 169.22 120.33 168.21 120.18 167.48 120.71 L 166.68 121.29 C 165.96 121.82 165.80 122.84 166.33 123.57 C 166.87 124.29 167.88 124.45 168.61 123.92 Z M 169.40 123.34 L 170.18 122.77 C 170.91 122.24 171.07 121.22 170.54 120.49 C 170.02 119.77 169.00 119.61 168.27 120.13 L 167.49 120.70 C 166.76 121.23 166.60 122.25 167.13 122.97 C 167.65 123.70 168.67 123.86 169.40 123.34 Z M 170.17 122.78 L 170.97 122.21 C 171.71 121.69 171.88 120.68 171.36 119.94 C 170.84 119.21 169.83 119.03 169.10 119.55 L 168.29 120.12 C 167.56 120.64 167.38 121.65 167.90 122.39 C 168.42 123.12 169.43 123.30 170.17 122.78 Z M 170.95 122.22 L 171.80 121.64 C 172.54 121.14 172.73 120.13 172.23 119.39 C 171.72 118.64 170.71 118.45 169.97 118.96 L 169.12 119.54 C 168.38 120.04 168.18 121.05 168.69 121.80 C 169.20 122.54 170.21 122.73 170.95 122.22 Z M 171.77 121.66 L 172.60 121.12 C 173.35 120.63 173.56 119.62 173.07 118.87 C 172.58 118.12 171.58 117.91 170.82 118.40 L 170.00 118.94 C 169.24 119.43 169.03 120.44 169.52 121.19 C 170.01 121.94 171.02 122.15 171.77 121.66 Z M 172.56 121.14 L 173.44 120.61 C 174.20 120.14 174.44 119.14 173.97 118.37 C 173.50 117.61 172.50 117.37 171.74 117.84 L 170.86 118.38 C 170.10 118.84 169.86 119.84 170.33 120.61 C 170.80 121.37 171.80 121.61 172.56 121.14 Z M 173.38 120.64 L 174.27 120.14 C 175.05 119.70 175.33 118.71 174.89 117.93 C 174.46 117.15 173.47 116.87 172.68 117.31 L 171.79 117.81 C 171.01 118.24 170.73 119.23 171.17 120.02 C 171.61 120.80 172.60 121.08 173.38 120.64 Z M 174.19 120.18 L 175.07 119.75 C 175.88 119.36 176.21 118.39 175.82 117.58 C 175.43 116.78 174.46 116.44 173.66 116.83 L 172.77 117.27 C 171.96 117.66 171.63 118.63 172.02 119.43 C 172.41 120.24 173.38 120.57 174.19 120.18 Z M 174.90 119.83 L 176.03 119.44 C 176.88 119.14 177.33 118.21 177.03 117.36 C 176.73 116.51 175.80 116.06 174.95 116.36 L 173.82 116.75 C 172.97 117.05 172.53 117.98 172.83 118.83 C 173.12 119.68 174.05 120.13 174.90 119.83 Z M 175.60 119.54 L 176.55 119.48 C 177.46 119.42 178.15 118.63 178.09 117.72 C 178.03 116.82 177.24 116.13 176.33 116.19 L 175.38 116.25 C 174.47 116.31 173.79 117.10 173.85 118.01 C 173.91 118.92 174.69 119.60 175.60 119.54 Z M 175.61 119.28 L 176.29 119.67 C 177.09 120.13 178.11 119.85 178.56 119.05 C 179.02 118.25 178.74 117.23 177.94 116.77 L 177.27 116.39 C 176.47 115.93 175.45 116.21 174.99 117.01 C 174.53 117.81 174.81 118.82 175.61 119.28 Z M 175.58 118.92 L 175.89 119.60 C 176.28 120.44 177.28 120.82 178.12 120.43 C 178.97 120.05 179.34 119.05 178.96 118.21 L 178.65 117.53 C 178.26 116.68 177.27 116.30 176.42 116.69 C 175.57 117.07 175.20 118.07 175.58 118.92 Z M 175.75 119.14 L 175.89 120.09 C 176.02 121.02 176.88 121.66 177.80 121.53 C 178.73 121.39 179.37 120.53 179.24 119.61 L 179.10 118.66 C 178.97 117.73 178.11 117.09 177.18 117.22 C 176.26 117.36 175.62 118.22 175.75 119.14 Z M 175.86 119.86 L 175.87 120.99 C 175.87 121.93 176.64 122.69 177.59 122.68 C 178.53 122.67 179.29 121.90 179.28 120.96 L 179.27 119.83 C 179.26 118.89 178.49 118.13 177.55 118.14 C 176.61 118.15 175.85 118.92 175.86 119.86 Z M 175.86 120.87 L 175.79 122.00 C 175.74 122.95 176.46 123.76 177.41 123.82 C 178.35 123.87 179.17 123.15 179.22 122.20 L 179.29 121.07 C 179.34 120.12 178.62 119.31 177.67 119.26 C 176.72 119.20 175.91 119.93 175.86 120.87 Z M 175.79 121.95 L 175.71 122.84 C 175.62 123.79 176.32 124.63 177.27 124.72 C 178.22 124.80 179.06 124.10 179.14 123.16 L 179.22 122.26 C 179.31 121.31 178.61 120.47 177.66 120.38 C 176.71 120.30 175.88 121.00 175.79 121.95 Z M 175.71 122.80 L 175.60 123.72 C 175.49 124.67 176.17 125.53 177.11 125.65 C 178.06 125.76 178.92 125.08 179.03 124.13 L 179.14 123.20 C 179.26 122.25 178.58 121.39 177.63 121.28 C 176.68 121.17 175.82 121.85 175.71 122.80 Z M 175.60 123.68 L 175.46 124.66 C 175.32 125.61 175.98 126.49 176.93 126.62 C 177.88 126.76 178.76 126.10 178.90 125.15 L 179.03 124.17 C 179.17 123.22 178.51 122.34 177.56 122.21 C 176.61 122.07 175.73 122.73 175.60 123.68 Z M 175.46 124.62 L 175.29 125.66 C 175.13 126.61 175.77 127.51 176.72 127.66 C 177.67 127.82 178.57 127.18 178.72 126.23 L 178.89 125.19 C 179.05 124.24 178.41 123.34 177.46 123.19 C 176.51 123.03 175.62 123.67 175.46 124.62 Z M 175.29 125.63 L 175.08 126.75 C 174.90 127.70 175.53 128.61 176.48 128.79 C 177.43 128.96 178.34 128.34 178.51 127.39 L 178.72 126.26 C 178.90 125.31 178.27 124.40 177.32 124.23 C 176.37 124.05 175.46 124.68 175.29 125.63 Z M 175.08 126.73 L 174.89 127.67 C 174.70 128.62 175.32 129.54 176.27 129.73 C 177.22 129.92 178.14 129.30 178.33 128.35 L 178.52 127.41 C 178.70 126.46 178.09 125.54 177.14 125.35 C 176.19 125.16 175.27 125.78 175.08 126.73 Z M 174.89 127.65 L 174.69 128.63 C 174.49 129.58 175.10 130.51 176.05 130.71 C 177.00 130.91 177.93 130.29 178.13 129.34 L 178.33 128.37 C 178.53 127.42 177.92 126.49 176.97 126.29 C 176.02 126.09 175.09 126.70 174.89 127.65 Z M 174.68 128.62 L 174.47 129.63 C 174.27 130.58 174.88 131.52 175.83 131.72 C 176.79 131.92 177.72 131.31 177.92 130.35 L 178.13 129.35 C 178.33 128.40 177.72 127.46 176.77 127.26 C 175.82 127.06 174.88 127.67 174.68 128.62 Z M 174.47 129.62 L 174.25 130.64 C 174.05 131.59 174.66 132.53 175.62 132.73 C 176.57 132.94 177.51 132.33 177.71 131.37 L 177.93 130.36 C 178.13 129.40 177.52 128.46 176.56 128.26 C 175.61 128.06 174.67 128.67 174.47 129.62 Z M 174.25 130.64 L 174.04 131.64 C 173.84 132.60 174.45 133.54 175.41 133.74 C 176.37 133.94 177.31 133.33 177.51 132.37 L 177.72 131.37 C 177.92 130.41 177.30 129.47 176.35 129.27 C 175.39 129.07 174.45 129.68 174.25 130.64 Z M 174.03 131.65 L 173.83 132.63 C 173.63 133.59 174.25 134.53 175.22 134.73 C 176.18 134.92 177.12 134.30 177.32 133.34 L 177.51 132.36 C 177.71 131.40 177.09 130.46 176.13 130.26 C 175.17 130.07 174.23 130.69 174.03 131.65 Z M 173.82 132.64 L 173.63 133.62 C 173.44 134.59 174.07 135.53 175.04 135.71 C 176.01 135.90 176.94 135.27 177.13 134.30 L 177.32 133.33 C 177.51 132.36 176.88 131.42 175.91 131.23 C 174.95 131.04 174.01 131.68 173.82 132.64 Z M 173.62 133.65 L 173.42 134.75 C 173.25 135.72 173.90 136.65 174.87 136.82 C 175.84 137.00 176.77 136.35 176.94 135.38 L 177.14 134.28 C 177.32 133.31 176.67 132.38 175.70 132.20 C 174.73 132.03 173.80 132.67 173.62 133.65 Z M 173.42 134.78 L 173.25 135.80 C 173.09 136.78 173.76 137.70 174.73 137.85 C 175.71 138.01 176.63 137.35 176.78 136.37 L 176.95 135.35 C 177.11 134.37 176.45 133.45 175.47 133.30 C 174.49 133.14 173.58 133.80 173.42 134.78 Z M 173.24 135.83 L 173.11 136.81 C 172.97 137.78 173.65 138.69 174.63 138.83 C 175.60 138.97 176.51 138.29 176.65 137.31 L 176.79 136.34 C 176.93 135.36 176.25 134.46 175.27 134.32 C 174.29 134.18 173.38 134.86 173.24 135.83 Z M 173.10 136.84 L 172.98 137.77 C 172.86 138.75 173.56 139.65 174.54 139.77 C 175.52 139.89 176.42 139.19 176.54 138.21 L 176.66 137.28 C 176.78 136.30 176.08 135.40 175.10 135.28 C 174.12 135.16 173.22 135.86 173.10 136.84 Z M 172.98 137.80 L 172.88 138.71 C 172.78 139.69 173.49 140.58 174.48 140.68 C 175.46 140.79 176.35 140.07 176.45 139.09 L 176.55 138.18 C 176.65 137.19 175.94 136.31 174.95 136.20 C 173.97 136.10 173.08 136.81 172.98 137.80 Z M 172.88 138.73 L 172.79 139.72 C 172.70 140.71 173.43 141.58 174.42 141.67 C 175.40 141.76 176.28 141.03 176.37 140.04 L 176.46 139.06 C 176.54 138.07 175.82 137.20 174.83 137.11 C 173.84 137.02 172.97 137.75 172.88 138.73 Z M 172.79 139.75 L 172.71 140.75 C 172.64 141.74 173.38 142.60 174.37 142.67 C 175.36 142.75 176.22 142.00 176.30 141.01 L 176.37 140.01 C 176.44 139.02 175.70 138.16 174.71 138.09 C 173.72 138.02 172.86 138.76 172.79 139.75 Z M 172.71 140.79 L 172.66 141.78 C 172.60 142.77 173.36 143.62 174.35 143.67 C 175.34 143.73 176.19 142.97 176.24 141.98 L 176.30 140.98 C 176.35 139.99 175.59 139.14 174.60 139.09 C 173.61 139.03 172.76 139.79 172.71 140.79 Z M 172.65 141.82 L 172.62 142.81 C 172.59 143.81 173.37 144.64 174.36 144.67 C 175.35 144.70 176.18 143.93 176.21 142.93 L 176.25 141.94 C 176.28 140.95 175.50 140.12 174.51 140.08 C 173.52 140.05 172.69 140.83 172.65 141.82 Z M 172.62 142.85 L 172.61 143.85 C 172.60 144.84 173.39 145.65 174.39 145.67 C 175.38 145.68 176.19 144.88 176.20 143.89 L 176.21 142.90 C 176.23 141.90 175.43 141.09 174.44 141.08 C 173.45 141.07 172.63 141.86 172.62 142.85 Z M 172.61 143.90 L 172.63 144.96 C 172.64 145.95 173.46 146.74 174.45 146.72 C 175.44 146.71 176.23 145.89 176.22 144.90 L 176.20 143.84 C 176.19 142.85 175.37 142.06 174.38 142.07 C 173.39 142.09 172.59 142.91 172.61 143.90 Z M 172.63 145.04 L 172.70 146.07 C 172.76 147.06 173.61 147.81 174.60 147.75 C 175.59 147.69 176.34 146.84 176.28 145.85 L 176.21 144.82 C 176.15 143.83 175.30 143.08 174.31 143.14 C 173.32 143.20 172.57 144.05 172.63 145.04 Z M 172.71 146.20 L 172.85 147.19 C 172.98 148.17 173.88 148.86 174.86 148.73 C 175.84 148.59 176.53 147.69 176.40 146.71 L 176.26 145.72 C 176.13 144.74 175.23 144.05 174.25 144.19 C 173.27 144.32 172.58 145.22 172.71 146.20 Z M 172.89 147.38 L 173.11 148.30 C 173.35 149.26 174.32 149.84 175.28 149.61 C 176.24 149.37 176.82 148.40 176.59 147.44 L 176.36 146.52 C 176.12 145.56 175.15 144.98 174.19 145.22 C 173.23 145.45 172.65 146.42 172.89 147.38 Z M 173.20 148.56 L 173.58 149.46 C 173.96 150.37 175.01 150.80 175.92 150.41 C 176.83 150.03 177.25 148.99 176.87 148.08 L 176.49 147.18 C 176.11 146.27 175.06 145.84 174.16 146.23 C 173.25 146.61 172.82 147.66 173.20 148.56 Z M 173.76 149.77 L 174.33 150.60 C 174.89 151.41 175.99 151.62 176.80 151.06 C 177.61 150.51 177.81 149.40 177.26 148.60 L 176.69 147.77 C 176.13 146.96 175.03 146.75 174.22 147.31 C 173.42 147.86 173.21 148.97 173.76 149.77 Z M 174.59 150.89 L 175.31 151.56 C 176.02 152.22 177.14 152.18 177.80 151.47 C 178.46 150.76 178.43 149.65 177.72 148.98 L 177.00 148.31 C 176.29 147.65 175.18 147.69 174.51 148.40 C 173.85 149.11 173.88 150.22 174.59 150.89 Z M 175.62 151.77 L 176.46 152.28 C 177.29 152.77 178.37 152.50 178.86 151.67 C 179.35 150.84 179.08 149.77 178.25 149.27 L 177.41 148.77 C 176.58 148.28 175.51 148.55 175.01 149.38 C 174.52 150.21 174.79 151.28 175.62 151.77 Z M 176.79 152.41 L 177.70 152.73 C 178.61 153.05 179.60 152.57 179.91 151.67 C 180.23 150.77 179.75 149.78 178.85 149.46 L 177.93 149.14 C 177.03 148.82 176.04 149.30 175.72 150.20 C 175.41 151.10 175.88 152.09 176.79 152.41 Z M 177.99 152.78 L 178.96 152.95 C 179.90 153.11 180.78 152.49 180.94 151.56 C 181.10 150.63 180.48 149.74 179.55 149.58 L 178.57 149.41 C 177.64 149.25 176.75 149.88 176.59 150.81 C 176.43 151.74 177.06 152.62 177.99 152.78 Z M 179.19 152.95 L 180.21 152.99 C 181.14 153.02 181.92 152.29 181.95 151.36 C 181.99 150.43 181.26 149.65 180.33 149.62 L 179.32 149.58 C 178.38 149.55 177.60 150.27 177.57 151.20 C 177.54 152.14 178.26 152.92 179.19 152.95 Z M 180.39 152.96 L 181.41 152.88 C 182.32 152.81 183.01 152.01 182.94 151.10 C 182.87 150.18 182.07 149.49 181.15 149.56 L 180.14 149.64 C 179.22 149.71 178.54 150.51 178.61 151.43 C 178.68 152.35 179.48 153.03 180.39 152.96 Z M 181.57 152.84 L 182.56 152.66 C 183.45 152.50 184.05 151.65 183.88 150.75 C 183.72 149.86 182.87 149.27 181.97 149.43 L 180.98 149.61 C 180.09 149.77 179.50 150.62 179.66 151.52 C 179.82 152.41 180.68 153.00 181.57 152.84 Z M 182.72 152.61 L 183.67 152.33 C 184.53 152.09 185.03 151.18 184.78 150.32 C 184.54 149.46 183.64 148.96 182.77 149.21 L 181.82 149.48 C 180.96 149.73 180.46 150.63 180.70 151.49 C 180.95 152.36 181.85 152.85 182.72 152.61 Z M 183.81 152.27 L 184.74 151.90 C 185.56 151.57 185.97 150.64 185.64 149.81 C 185.31 148.99 184.38 148.58 183.55 148.91 L 182.63 149.28 C 181.80 149.60 181.40 150.54 181.73 151.36 C 182.05 152.19 182.99 152.59 183.81 152.27 Z M 184.86 151.82 L 185.76 151.37 C 186.54 150.97 186.86 150.01 186.46 149.23 C 186.06 148.44 185.10 148.13 184.32 148.53 L 183.42 148.99 C 182.64 149.38 182.33 150.34 182.73 151.13 C 183.12 151.91 184.08 152.22 184.86 151.82 Z M 185.87 151.29 L 186.70 150.78 C 187.45 150.32 187.68 149.35 187.22 148.61 C 186.76 147.87 185.79 147.63 185.05 148.09 L 184.21 148.60 C 183.47 149.06 183.24 150.03 183.70 150.78 C 184.15 151.52 185.12 151.75 185.87 151.29 Z M 186.79 150.72 L 187.60 150.15 C 188.31 149.64 188.47 148.66 187.97 147.95 C 187.47 147.24 186.49 147.07 185.78 147.58 L 184.97 148.15 C 184.26 148.65 184.09 149.63 184.59 150.34 C 185.09 151.05 186.08 151.22 186.79 150.72 Z M 187.66 150.09 L 188.45 149.47 C 189.13 148.93 189.25 147.95 188.71 147.27 C 188.18 146.59 187.19 146.47 186.51 147.00 L 185.72 147.63 C 185.04 148.16 184.92 149.15 185.46 149.83 C 185.99 150.51 186.98 150.63 187.66 150.09 Z M 188.50 149.43 L 189.27 148.77 C 189.93 148.21 190.00 147.22 189.44 146.56 C 188.88 145.91 187.90 145.83 187.24 146.39 L 186.47 147.05 C 185.81 147.61 185.73 148.59 186.29 149.25 C 186.85 149.91 187.84 149.99 188.50 149.43 Z M 189.30 148.74 L 190.05 148.06 C 190.69 147.48 190.74 146.49 190.16 145.85 C 189.58 145.22 188.59 145.17 187.95 145.74 L 187.21 146.42 C 186.57 147.00 186.52 147.99 187.10 148.63 C 187.67 149.27 188.66 149.31 189.30 148.74 Z M 190.07 148.04 L 190.80 147.35 C 191.43 146.75 191.45 145.77 190.86 145.14 C 190.27 144.51 189.28 144.49 188.66 145.08 L 187.93 145.77 C 187.30 146.36 187.27 147.35 187.87 147.97 C 188.46 148.60 189.45 148.63 190.07 148.04 Z M 190.82 147.33 L 191.53 146.63 C 192.15 146.03 192.16 145.04 191.56 144.43 C 190.96 143.81 189.97 143.80 189.35 144.40 L 188.64 145.10 C 188.02 145.70 188.01 146.69 188.61 147.30 C 189.21 147.92 190.20 147.93 190.82 147.33 Z M 191.54 146.62 L 192.25 145.92 C 192.86 145.31 192.86 144.32 192.26 143.71 C 191.65 143.10 190.66 143.10 190.05 143.71 L 189.34 144.41 C 188.73 145.02 188.73 146.01 189.34 146.62 C 189.94 147.23 190.93 147.23 191.54 146.62 Z M 192.25 145.92 L 192.53 145.64 C 193.14 145.03 193.14 144.04 192.53 143.43 C 191.92 142.82 190.93 142.82 190.32 143.43 L 190.05 143.71 C 189.44 144.32 189.44 145.31 190.05 145.92 C 190.65 146.53 191.64 146.53 192.25 145.92 Z"
      fill="black"
      fill-rule="nonzero" /><path d="M 176.33 83.79 L 177.01 84.53 C 177.67 85.25 178.80 85.29 179.52 84.62 C 180.24 83.96 180.28 82.83 179.62 82.11 L 178.94 81.38 C 178.27 80.66 177.15 80.61 176.43 81.28 C 175.70 81.95 175.66 83.07 176.33 83.79 Z M 177.00 84.53 L 177.68 85.27 C 178.35 85.99 179.48 86.03 180.21 85.36 C 180.93 84.69 180.97 83.56 180.30 82.84 L 179.62 82.10 C 178.95 81.38 177.82 81.33 177.10 82.01 C 176.37 82.68 176.33 83.81 177.00 84.53 Z M 177.67 85.27 L 178.35 86.01 C 179.03 86.73 180.16 86.78 180.89 86.10 C 181.62 85.43 181.66 84.29 180.99 83.56 L 180.31 82.83 C 179.64 82.10 178.50 82.06 177.77 82.73 C 177.04 83.41 177.00 84.54 177.67 85.27 Z M 178.34 86.01 L 179.02 86.75 C 179.70 87.48 180.85 87.52 181.58 86.85 C 182.31 86.17 182.35 85.02 181.68 84.29 L 181.00 83.56 C 180.32 82.83 179.18 82.78 178.44 83.46 C 177.71 84.14 177.67 85.28 178.34 86.01 Z M 179.02 86.75 L 179.62 87.40 C 180.30 88.14 181.45 88.18 182.18 87.50 C 182.92 86.82 182.96 85.67 182.28 84.93 L 181.68 84.29 C 181.00 83.55 179.85 83.50 179.12 84.19 C 178.38 84.87 178.34 86.02 179.02 86.75 Z"
      fill="black"
      fill-rule="nonzero" /></svg>