<svg xmlns="http://www.w3.org/2000/svg" width="300" height="300" viewBox="0 0 300 300">
<path d="M 103.70 117.16 L 104.40 117.92 C 105.03 118.61 106.11 118.66 106.80 118.03 C 107.49 117.39 107.54 116.31 106.91 115.62 L 106.21 114.86 C 105.58 114.17 104.50 114.12 103.81 114.76 C 103.11 115.40 103.07 116.47 103.70 117.16 Z M 104.47 118.03 L 105.20 118.71 C 105.90 119.36 106.99 119.33 107.64 118.63 C 108.29 117.94 108.25 116.85 107.56 116.20 L 106.83 115.51 C 106.13 114.86 105.04 114.90 104.39 115.59 C 103.74 116.29 103.78 117.38 104.47 118.03 Z M 105.41 118.90 L 106.22 119.44 C 107.01 119.98 108.10 119.77 108.63 118.97 C 109.17 118.17 108.96 117.09 108.16 116.55 L 107.35 116.01 C 106.56 115.47 105.47 115.69 104.94 116.48 C 104.40 117.28 104.61 118.36 105.41 118.90 Z M 106.58 119.64 L 107.46 119.97 C 108.37 120.31 109.38 119.85 109.72 118.94 C 110.05 118.03 109.59 117.02 108.68 116.68 L 107.80 116.35 C 106.89 116.02 105.88 116.48 105.54 117.39 C 105.21 118.30 105.67 119.31 106.58 119.64 Z M 107.83 120.07 L 108.79 120.20 C 109.75 120.34 110.64 119.67 110.78 118.70 C 110.91 117.74 110.24 116.85 109.28 116.72 L 108.31 116.58 C 107.35 116.45 106.46 117.12 106.33 118.08 C 106.20 119.04 106.87 119.93 107.83 120.07 Z M 109.06 120.22 L 110.09 120.20 C 111.06 120.19 111.83 119.39 111.82 118.41 C 111.80 117.44 111.00 116.67 110.03 116.69 L 109.01 116.70 C 108.03 116.72 107.26 117.52 107.28 118.49 C 107.29 119.46 108.09 120.23 109.06 120.22 Z M 110.27 120.19 L 111.26 120.07 C 112.22 119.95 112.91 119.07 112.79 118.11 C 112.67 117.15 111.79 116.46 110.83 116.58 L 109.85 116.70 C 108.88 116.82 108.20 117.69 108.31 118.66 C 108.43 119.62 109.31 120.31 110.27 120.19 Z M 111.38 120.05 L 112.20 119.89 C 113.16 119.70 113.78 118.78 113.59 117.83 C 113.41 116.88 112.49 116.25 111.53 116.44 L 110.71 116.60 C 109.76 116.78 109.13 117.70 109.32 118.66 C 109.50 119.61 110.42 120.23 111.38 120.05 Z M 112.29 119.87 L 113.18 119.65 C 114.12 119.42 114.69 118.47 114.46 117.52 C 114.23 116.58 113.28 116.01 112.33 116.24 L 111.45 116.46 C 110.51 116.69 109.93 117.64 110.16 118.58 C 110.40 119.53 111.35 120.10 112.29 119.87 Z M 113.24 119.63 L 114.23 119.35 C 115.16 119.08 115.70 118.11 115.43 117.18 C 115.17 116.25 114.20 115.71 113.26 115.97 L 112.27 116.26 C 111.34 116.52 110.80 117.50 111.07 118.43 C 111.33 119.36 112.31 119.90 113.24 119.63 Z M 114.27 119.34 L 115.40 118.98 C 116.33 118.70 116.85 117.71 116.56 116.79 C 116.27 115.86 115.29 115.34 114.36 115.63 L 113.22 115.98 C 112.30 116.27 111.78 117.26 112.07 118.18 C 112.36 119.11 113.34 119.63 114.27 119.34 Z M 115.42 118.98 L 116.37 118.67 C 117.29 118.38 117.79 117.39 117.50 116.46 C 117.20 115.54 116.21 115.03 115.29 115.33 L 114.34 115.64 C 113.42 115.93 112.91 116.92 113.21 117.85 C 113.51 118.77 114.50 119.28 115.42 118.98 Z M 116.37 118.67 L 117.27 118.37 C 118.19 118.07 118.70 117.08 118.39 116.16 C 118.09 115.24 117.10 114.74 116.18 115.04 L 115.28 115.34 C 114.36 115.64 113.86 116.63 114.16 117.55 C 114.46 118.47 115.45 118.97 116.37 118.67 Z M 117.28 118.37 L 118.23 118.06 C 119.15 117.76 119.65 116.76 119.34 115.84 C 119.04 114.92 118.05 114.42 117.13 114.73 L 116.18 115.04 C 115.26 115.35 114.76 116.34 115.06 117.26 C 115.36 118.18 116.36 118.68 117.28 118.37 Z M 118.23 118.06 L 119.21 117.73 C 120.13 117.43 120.63 116.44 120.32 115.52 C 120.02 114.60 119.03 114.10 118.11 114.40 L 117.13 114.73 C 116.21 115.03 115.71 116.03 116.01 116.94 C 116.32 117.86 117.31 118.36 118.23 118.06 Z M 119.21 117.73 L 120.20 117.40 C 121.12 117.10 121.62 116.11 121.32 115.19 C 121.01 114.27 120.02 113.77 119.10 114.08 L 118.11 114.40 C 117.19 114.71 116.69 115.70 116.99 116.62 C 117.30 117.54 118.29 118.04 119.21 117.73 Z M 120.20 117.40 L 121.19 117.08 C 122.11 116.78 122.61 115.79 122.31 114.87 C 122.01 113.95 121.02 113.45 120.10 113.75 L 119.11 114.08 C 118.19 114.38 117.69 115.37 117.99 116.29 C 118.29 117.21 119.28 117.71 120.20 117.40 Z M 121.18 117.08 L 122.15 116.77 C 123.07 116.47 123.57 115.48 123.28 114.56 C 122.98 113.64 121.99 113.14 121.07 113.44 L 120.10 113.75 C 119.18 114.05 118.68 115.04 118.98 115.96 C 119.28 116.87 120.26 117.38 121.18 117.08 Z M 122.14 116.77 L 123.14 116.45 C 124.06 116.16 124.57 115.17 124.28 114.25 C 123.99 113.33 123.00 112.82 122.08 113.11 L 121.08 113.43 C 120.16 113.73 119.65 114.71 119.94 115.63 C 120.24 116.55 121.22 117.06 122.14 116.77 Z M 123.13 116.45 L 124.12 116.15 C 125.04 115.86 125.56 114.88 125.27 113.96 C 124.99 113.03 124.01 112.52 123.08 112.80 L 122.09 113.11 C 121.17 113.40 120.65 114.38 120.94 115.30 C 121.23 116.22 122.21 116.74 123.13 116.45 Z M 124.10 116.15 L 125.06 115.87 C 125.99 115.59 126.51 114.61 126.24 113.69 C 125.96 112.76 124.98 112.23 124.06 112.51 L 123.10 112.80 C 122.17 113.07 121.65 114.05 121.92 114.98 C 122.20 115.90 123.18 116.43 124.10 116.15 Z M 125.04 115.87 L 125.98 115.61 C 126.91 115.34 127.45 114.37 127.18 113.44 C 126.91 112.51 125.94 111.97 125.01 112.24 L 124.08 112.50 C 123.15 112.77 122.61 113.74 122.87 114.67 C 123.14 115.60 124.11 116.14 125.04 115.87 Z M 125.95 115.61 L 126.89 115.36 C 127.82 115.11 128.37 114.14 128.12 113.21 C 127.87 112.28 126.90 111.72 125.97 111.98 L 125.04 112.23 C 124.10 112.48 123.55 113.44 123.80 114.38 C 124.06 115.31 125.02 115.87 125.95 115.61 Z M 126.86 115.37 L 127.81 115.13 C 128.74 114.89 129.31 113.93 129.07 112.99 C 128.83 112.06 127.88 111.49 126.94 111.73 L 126.00 111.97 C 125.06 112.21 124.49 113.16 124.73 114.10 C 124.97 115.04 125.92 115.61 126.86 115.37 Z M 127.78 115.13 L 128.75 114.90 C 129.69 114.68 130.27 113.73 130.05 112.79 C 129.82 111.84 128.88 111.26 127.93 111.49 L 126.96 111.72 C 126.02 111.95 125.44 112.89 125.67 113.84 C 125.89 114.78 126.84 115.36 127.78 115.13 Z M 128.73 114.91 L 129.72 114.69 C 130.67 114.48 131.27 113.54 131.06 112.59 C 130.84 111.64 129.90 111.05 128.96 111.26 L 127.96 111.48 C 127.01 111.69 126.42 112.63 126.63 113.58 C 126.84 114.53 127.78 115.12 128.73 114.91 Z M 129.70 114.70 L 130.71 114.49 C 131.66 114.29 132.28 113.36 132.08 112.41 C 131.88 111.45 130.95 110.84 130.00 111.04 L 128.98 111.25 C 128.03 111.44 127.42 112.38 127.61 113.33 C 127.81 114.28 128.74 114.90 129.70 114.70 Z M 130.68 114.50 L 131.69 114.31 C 132.65 114.13 133.28 113.21 133.10 112.25 C 132.92 111.29 132.00 110.66 131.04 110.84 L 130.03 111.03 C 129.07 111.21 128.44 112.13 128.62 113.09 C 128.80 114.05 129.72 114.68 130.68 114.50 Z M 131.66 114.32 L 132.65 114.15 C 133.62 113.99 134.27 113.08 134.11 112.12 C 133.95 111.15 133.04 110.50 132.07 110.66 L 131.07 110.83 C 130.11 110.99 129.46 111.90 129.62 112.86 C 129.78 113.83 130.69 114.48 131.66 114.32 Z M 132.61 114.17 L 133.58 114.03 C 134.55 113.89 135.23 112.99 135.09 112.02 C 134.95 111.05 134.05 110.37 133.08 110.51 L 132.11 110.65 C 131.14 110.79 130.47 111.69 130.60 112.66 C 130.74 113.63 131.64 114.30 132.61 114.17 Z M 133.53 114.04 L 134.45 113.94 C 135.42 113.83 136.13 112.95 136.02 111.97 C 135.91 110.99 135.03 110.29 134.05 110.40 L 133.13 110.50 C 132.15 110.61 131.45 111.49 131.56 112.47 C 131.67 113.45 132.55 114.15 133.53 114.04 Z M 134.36 113.95 L 135.58 113.88 C 136.57 113.81 137.32 112.97 137.26 111.98 C 137.19 110.99 136.35 110.24 135.36 110.31 L 134.14 110.38 C 133.15 110.44 132.40 111.29 132.46 112.28 C 132.52 113.26 133.37 114.01 134.36 113.95 Z M 135.42 113.89 L 136.50 113.92 C 137.50 113.94 138.32 113.16 138.35 112.17 C 138.38 111.17 137.59 110.35 136.60 110.32 L 135.52 110.29 C 134.52 110.27 133.70 111.05 133.67 112.04 C 133.65 113.04 134.43 113.86 135.42 113.89 Z M 136.26 113.91 L 137.19 114.06 C 138.17 114.22 139.10 113.55 139.27 112.57 C 139.43 111.58 138.76 110.65 137.77 110.49 L 136.84 110.33 C 135.86 110.17 134.93 110.84 134.76 111.83 C 134.60 112.81 135.27 113.74 136.26 113.91 Z M 136.82 113.97 L 137.59 114.27 C 138.53 114.63 139.58 114.17 139.95 113.23 C 140.31 112.29 139.84 111.24 138.91 110.87 L 138.14 110.57 C 137.20 110.21 136.15 110.68 135.78 111.61 C 135.42 112.55 135.88 113.61 136.82 113.97 Z M 137.10 113.99 L 137.78 114.54 C 138.56 115.18 139.71 115.05 140.35 114.27 C 140.98 113.48 140.86 112.33 140.08 111.69 L 139.40 111.15 C 138.61 110.51 137.46 110.63 136.82 111.42 C 136.19 112.21 136.31 113.36 137.10 113.99 Z M 137.37 114.09 L 137.87 114.90 C 138.41 115.76 139.55 116.02 140.41 115.48 C 141.27 114.94 141.53 113.80 140.99 112.95 L 140.48 112.14 C 139.94 111.28 138.81 111.02 137.95 111.56 C 137.09 112.10 136.83 113.23 137.37 114.09 Z M 137.68 114.51 L 138.00 115.47 C 138.33 116.43 139.37 116.95 140.34 116.63 C 141.30 116.31 141.82 115.27 141.50 114.30 L 141.18 113.34 C 140.86 112.37 139.81 111.85 138.85 112.17 C 137.88 112.49 137.36 113.54 137.68 114.51 Z M 137.93 115.21 L 138.12 116.25 C 138.30 117.26 139.26 117.92 140.27 117.74 C 141.27 117.56 141.94 116.60 141.76 115.59 L 141.57 114.55 C 141.39 113.55 140.43 112.88 139.42 113.06 C 138.42 113.25 137.75 114.21 137.93 115.21 Z M 138.09 116.11 L 138.19 117.05 C 138.29 118.07 139.20 118.81 140.22 118.71 C 141.24 118.61 141.98 117.70 141.88 116.68 L 141.78 115.74 C 141.68 114.72 140.77 113.97 139.75 114.08 C 138.74 114.18 137.99 115.09 138.09 116.11 Z M 138.18 116.96 L 138.23 117.93 C 138.28 118.96 139.15 119.75 140.17 119.69 C 141.20 119.64 141.99 118.77 141.94 117.75 L 141.89 116.77 C 141.84 115.75 140.97 114.96 139.94 115.01 C 138.92 115.06 138.13 115.93 138.18 116.96 Z M 138.22 117.87 L 138.24 118.89 C 138.26 119.92 139.11 120.73 140.13 120.72 C 141.16 120.70 141.97 119.85 141.96 118.83 L 141.94 117.81 C 141.92 116.78 141.08 115.97 140.05 115.98 C 139.02 116.00 138.21 116.85 138.22 117.87 Z M 138.24 118.86 L 138.24 119.92 C 138.24 120.95 139.08 121.78 140.11 121.78 C 141.13 121.77 141.96 120.94 141.96 119.91 L 141.96 118.85 C 141.96 117.83 141.12 117.00 140.10 117.00 C 139.07 117.00 138.24 117.84 138.24 118.86 Z M 138.24 119.92 L 138.24 120.85 C 138.24 121.87 139.07 122.71 140.10 122.71 C 141.13 122.71 141.96 121.88 141.96 120.85 L 141.96 119.92 C 141.96 118.89 141.13 118.06 140.10 118.06 C 139.08 118.06 138.24 118.89 138.24 119.92 Z M 138.24 120.83 L 138.23 121.80 C 138.23 122.83 139.05 123.67 140.08 123.68 C 141.11 123.68 141.95 122.86 141.95 121.83 L 141.96 120.86 C 141.97 119.83 141.14 118.99 140.11 118.99 C 139.09 118.98 138.25 119.81 138.24 120.83 Z M 138.23 121.78 L 138.21 122.78 C 138.19 123.81 139.01 124.66 140.04 124.68 C 141.07 124.70 141.92 123.88 141.94 122.85 L 141.95 121.85 C 141.97 120.82 141.16 119.97 140.13 119.95 C 139.10 119.93 138.25 120.75 138.23 121.78 Z M 138.21 122.75 L 138.18 123.79 C 138.14 124.82 138.95 125.68 139.98 125.72 C 141.00 125.75 141.87 124.95 141.90 123.92 L 141.94 122.88 C 141.97 121.85 141.17 120.99 140.14 120.96 C 139.11 120.92 138.25 121.73 138.21 122.75 Z M 138.18 123.76 L 138.12 124.81 C 138.07 125.84 138.85 126.72 139.88 126.77 C 140.91 126.83 141.79 126.04 141.84 125.01 L 141.90 123.96 C 141.96 122.93 141.17 122.05 140.14 122.00 C 139.11 121.94 138.24 122.73 138.18 123.76 Z M 138.12 124.77 L 138.05 125.74 C 137.98 126.77 138.75 127.66 139.77 127.74 C 140.80 127.81 141.69 127.04 141.77 126.02 L 141.84 125.05 C 141.92 124.02 141.15 123.13 140.12 123.05 C 139.09 122.98 138.20 123.75 138.12 124.77 Z M 138.05 125.72 L 137.97 126.70 C 137.88 127.73 138.64 128.63 139.66 128.72 C 140.69 128.81 141.59 128.05 141.68 127.03 L 141.77 126.04 C 141.86 125.02 141.10 124.11 140.07 124.02 C 139.05 123.93 138.14 124.69 138.05 125.72 Z M 137.97 126.69 L 137.88 127.69 C 137.78 128.72 138.53 129.63 139.56 129.72 C 140.58 129.82 141.49 129.07 141.58 128.04 L 141.68 127.04 C 141.78 126.02 141.02 125.11 140.00 125.01 C 138.97 124.92 138.07 125.67 137.97 126.69 Z M 137.88 127.69 L 137.78 128.70 C 137.68 129.73 138.43 130.63 139.46 130.73 C 140.48 130.83 141.39 130.08 141.49 129.05 L 141.58 128.04 C 141.68 127.02 140.93 126.11 139.91 126.01 C 138.88 125.92 137.97 126.67 137.88 127.69 Z M 137.78 128.71 L 137.69 129.72 C 137.59 130.75 138.35 131.65 139.37 131.75 C 140.40 131.84 141.30 131.08 141.40 130.06 L 141.49 129.05 C 141.58 128.02 140.83 127.12 139.80 127.02 C 138.78 126.93 137.87 127.68 137.78 128.71 Z M 137.68 129.74 L 137.60 130.74 C 137.52 131.77 138.28 132.67 139.31 132.75 C 140.33 132.84 141.23 132.07 141.32 131.05 L 141.40 130.04 C 141.48 129.02 140.72 128.12 139.69 128.03 C 138.67 127.95 137.77 128.71 137.68 129.74 Z M 137.60 130.77 L 137.53 131.76 C 137.46 132.79 138.24 133.68 139.26 133.75 C 140.29 133.82 141.18 133.05 141.25 132.02 L 141.32 131.02 C 141.39 130.00 140.61 129.11 139.59 129.04 C 138.56 128.97 137.67 129.74 137.60 130.77 Z M 137.53 131.78 L 137.47 132.78 C 137.41 133.80 138.20 134.68 139.22 134.74 C 140.25 134.80 141.13 134.02 141.19 132.99 L 141.25 132.00 C 141.31 130.97 140.52 130.09 139.50 130.03 C 138.47 129.97 137.59 130.76 137.53 131.78 Z M 137.47 132.80 L 137.43 133.79 C 137.38 134.82 138.17 135.69 139.20 135.74 C 140.22 135.79 141.10 135.00 141.14 133.97 L 141.19 132.97 C 141.24 131.95 140.45 131.07 139.42 131.03 C 138.39 130.98 137.52 131.77 137.47 132.80 Z M 137.43 133.81 L 137.39 134.81 C 137.35 135.84 138.15 136.70 139.18 136.74 C 140.20 136.78 141.07 135.98 141.11 134.95 L 141.14 133.95 C 141.18 132.92 140.38 132.06 139.35 132.02 C 138.33 131.98 137.46 132.78 137.43 133.81 Z M 137.39 134.83 L 137.36 135.84 C 137.33 136.86 138.14 137.72 139.17 137.75 C 140.19 137.78 141.05 136.97 141.08 135.94 L 141.11 134.93 C 141.14 133.91 140.33 133.05 139.30 133.02 C 138.27 132.99 137.42 133.80 137.39 134.83 Z M 137.36 135.85 L 137.34 136.83 C 137.32 137.86 138.14 138.71 139.16 138.73 C 140.19 138.75 141.04 137.93 141.06 136.90 L 141.08 135.92 C 141.10 134.90 140.28 134.05 139.26 134.03 C 138.23 134.01 137.38 134.82 137.36 135.85 Z M 137.34 136.84 L 137.33 137.83 C 137.31 138.85 138.14 139.70 139.16 139.71 C 140.19 139.72 141.03 138.90 141.05 137.88 L 141.06 136.89 C 141.07 135.87 140.25 135.02 139.22 135.01 C 138.20 134.99 137.35 135.82 137.34 136.84 Z M 137.33 137.84 L 137.32 138.83 C 137.31 139.86 138.14 140.70 139.16 140.70 C 140.19 140.71 141.03 139.89 141.04 138.86 L 141.04 137.87 C 141.05 136.84 140.23 136.00 139.20 135.99 C 138.18 135.99 137.34 136.81 137.33 137.84 Z M 137.32 138.84 L 137.32 139.84 C 137.31 140.87 138.14 141.70 139.17 141.71 C 140.19 141.71 141.03 140.88 141.03 139.86 L 141.04 138.85 C 141.04 137.83 140.21 136.99 139.19 136.99 C 138.16 136.99 137.33 137.81 137.32 138.84 Z M 137.32 139.85 L 137.32 140.86 C 137.32 141.89 138.15 142.72 139.17 142.72 C 140.20 142.72 141.03 141.89 141.03 140.87 L 141.03 139.85 C 141.03 138.83 140.20 138.00 139.18 137.99 C 138.15 137.99 137.32 138.82 137.32 139.85 Z M 137.32 140.86 L 137.32 141.88 C 137.32 142.91 138.15 143.74 139.17 143.74 C 140.20 143.74 141.03 142.91 141.03 141.88 L 141.03 140.87 C 141.03 139.84 140.20 139.01 139.17 139.01 C 138.15 139.01 137.32 139.84 137.32 140.86 Z M 137.32 141.88 L 137.32 142.79 C 137.32 143.82 138.15 144.65 139.18 144.64 C 140.20 144.64 141.03 143.81 141.03 142.79 L 141.03 141.88 C 141.03 140.86 140.19 140.03 139.17 140.03 C 138.15 140.03 137.32 140.86 137.32 141.88 Z M 137.32 142.80 L 137.33 143.73 C 137.34 144.75 138.17 145.58 139.19 145.57 C 140.22 145.56 141.04 144.73 141.03 143.71 L 141.03 142.78 C 141.02 141.75 140.18 140.93 139.16 140.94 C 138.14 140.95 137.32 141.78 137.32 142.80 Z M 137.33 143.75 L 137.35 144.71 C 137.37 145.73 138.21 146.54 139.23 146.52 C 140.25 146.50 141.07 145.66 141.05 144.64 L 141.03 143.68 C 141.01 142.66 140.17 141.85 139.15 141.87 C 138.13 141.89 137.31 142.73 137.33 143.75 Z M 137.35 144.74 L 137.39 145.73 C 137.42 146.75 138.28 147.55 139.30 147.51 C 140.32 147.48 141.11 146.62 141.08 145.60 L 141.05 144.61 C 141.01 143.59 140.16 142.79 139.14 142.83 C 138.12 142.86 137.32 143.72 137.35 144.74 Z M 137.39 145.76 L 137.45 146.80 C 137.50 147.82 138.37 148.60 139.39 148.54 C 140.41 148.49 141.19 147.62 141.13 146.60 L 141.08 145.57 C 141.02 144.55 140.15 143.77 139.13 143.82 C 138.12 143.88 137.34 144.75 137.39 145.76 Z M 137.45 146.84 L 137.53 147.93 C 137.61 148.95 138.50 149.71 139.51 149.63 C 140.53 149.55 141.29 148.67 141.21 147.65 L 141.13 146.56 C 141.05 145.55 140.16 144.79 139.15 144.86 C 138.13 144.94 137.37 145.83 137.45 146.84 Z M 137.54 147.97 L 137.65 149.06 C 137.75 150.07 138.65 150.81 139.66 150.71 C 140.67 150.61 141.41 149.71 141.31 148.69 L 141.20 147.61 C 141.10 146.60 140.20 145.86 139.19 145.96 C 138.18 146.06 137.44 146.96 137.54 147.97 Z M 137.65 149.09 L 137.77 150.11 C 137.89 151.12 138.81 151.84 139.82 151.72 C 140.83 151.60 141.55 150.69 141.43 149.68 L 141.31 148.66 C 141.19 147.65 140.27 146.93 139.26 147.05 C 138.25 147.17 137.53 148.09 137.65 149.09 Z M 137.78 150.14 L 137.92 151.19 C 138.06 152.19 138.98 152.90 139.99 152.76 C 140.99 152.63 141.70 151.70 141.56 150.70 L 141.42 149.65 C 141.29 148.65 140.36 147.94 139.36 148.08 C 138.35 148.21 137.64 149.14 137.78 150.14 Z M 137.92 151.21 L 138.08 152.26 C 138.23 153.26 139.16 153.96 140.16 153.81 C 141.17 153.66 141.86 152.73 141.71 151.72 L 141.56 150.67 C 141.41 149.67 140.48 148.98 139.47 149.13 C 138.47 149.27 137.78 150.21 137.92 151.21 Z M 138.08 152.28 L 138.25 153.31 C 138.41 154.31 139.34 155.00 140.35 154.84 C 141.35 154.68 142.03 153.74 141.87 152.74 L 141.71 151.71 C 141.55 150.70 140.61 150.02 139.61 150.18 C 138.61 150.34 137.93 151.28 138.08 152.28 Z M 138.25 153.33 L 138.42 154.33 C 138.59 155.33 139.53 156.01 140.53 155.84 C 141.53 155.67 142.20 154.73 142.04 153.73 L 141.87 152.73 C 141.70 151.73 140.76 151.05 139.76 151.22 C 138.76 151.39 138.08 152.33 138.25 153.33 Z M 138.42 154.35 L 138.59 155.30 C 138.76 156.30 139.71 156.97 140.71 156.79 C 141.71 156.62 142.37 155.67 142.20 154.67 L 142.03 153.72 C 141.86 152.72 140.91 152.05 139.91 152.23 C 138.91 152.40 138.25 153.35 138.42 154.35 Z M 138.59 155.32 L 138.76 156.20 C 138.94 157.20 139.89 157.85 140.88 157.67 C 141.88 157.49 142.54 156.54 142.36 155.54 L 142.19 154.66 C 142.01 153.66 141.06 153.01 140.07 153.19 C 139.07 153.37 138.41 154.32 138.59 155.32 Z M 138.76 156.21 L 138.97 157.30 C 139.16 158.29 140.11 158.94 141.10 158.75 C 142.10 158.56 142.75 157.60 142.56 156.61 L 142.35 155.53 C 142.16 154.54 141.21 153.89 140.21 154.08 C 139.22 154.27 138.57 155.22 138.76 156.21 Z M 138.97 157.31 L 139.20 158.46 C 139.40 159.45 140.36 160.09 141.35 159.89 C 142.34 159.69 142.98 158.73 142.78 157.74 L 142.55 156.59 C 142.35 155.60 141.39 154.96 140.40 155.16 C 139.41 155.36 138.77 156.32 138.97 157.31 Z M 139.21 158.47 L 139.41 159.43 C 139.62 160.41 140.58 161.04 141.57 160.84 C 142.55 160.63 143.18 159.66 142.98 158.68 L 142.78 157.72 C 142.57 156.74 141.60 156.11 140.62 156.31 C 139.63 156.52 139.00 157.49 139.21 158.47 Z M 139.41 159.44 L 139.59 160.28 C 139.81 161.26 140.77 161.88 141.76 161.67 C 142.74 161.46 143.36 160.49 143.15 159.51 L 142.97 158.67 C 142.76 157.69 141.79 157.06 140.81 157.27 C 139.83 157.49 139.20 158.45 139.41 159.44 Z M 139.60 160.27 L 139.76 161.06 C 139.97 162.05 140.93 162.68 141.91 162.47 C 142.90 162.26 143.53 161.30 143.32 160.32 L 143.15 159.52 C 142.95 158.54 141.98 157.91 141.00 158.12 C 140.02 158.32 139.39 159.28 139.60 160.27 Z M 139.76 161.04 L 139.95 162.02 C 140.14 163.00 141.10 163.64 142.08 163.45 C 143.06 163.26 143.70 162.30 143.51 161.32 L 143.32 160.34 C 143.13 159.36 142.18 158.72 141.19 158.91 C 140.21 159.10 139.57 160.06 139.76 161.04 Z M 139.95 161.99 L 140.13 162.99 C 140.31 163.97 141.25 164.62 142.24 164.45 C 143.22 164.27 143.88 163.32 143.70 162.34 L 143.52 161.34 C 143.34 160.36 142.39 159.71 141.41 159.88 C 140.42 160.06 139.77 161.01 139.95 161.99 Z M 140.13 162.97 L 140.30 163.96 C 140.47 164.95 141.41 165.61 142.39 165.44 C 143.38 165.27 144.04 164.33 143.87 163.34 L 143.70 162.35 C 143.53 161.37 142.59 160.71 141.60 160.88 C 140.62 161.05 139.96 161.99 140.13 162.97 Z M 140.30 163.95 L 140.47 164.94 C 140.63 165.93 141.56 166.59 142.55 166.43 C 143.53 166.26 144.20 165.33 144.03 164.34 L 143.87 163.35 C 143.70 162.37 142.77 161.70 141.79 161.87 C 140.80 162.03 140.14 162.97 140.30 163.95 Z M 140.47 164.93 L 140.63 165.94 C 140.79 166.93 141.72 167.59 142.71 167.43 C 143.69 167.27 144.36 166.34 144.20 165.36 L 144.03 164.35 C 143.87 163.36 142.94 162.70 141.96 162.86 C 140.97 163.02 140.31 163.95 140.47 164.93 Z M 140.63 165.94 L 140.79 166.92 C 140.95 167.90 141.88 168.57 142.86 168.41 C 143.85 168.25 144.51 167.33 144.36 166.34 L 144.20 165.36 C 144.04 164.38 143.11 163.71 142.13 163.87 C 141.14 164.03 140.48 164.95 140.63 165.94 Z M 140.79 166.91 L 140.95 167.88 C 141.11 168.86 142.03 169.53 143.01 169.37 C 144.00 169.22 144.67 168.29 144.51 167.31 L 144.35 166.34 C 144.20 165.36 143.27 164.69 142.29 164.85 C 141.31 165.01 140.64 165.93 140.79 166.91 Z M 140.95 167.88 L 141.11 168.87 C 141.27 169.85 142.19 170.52 143.17 170.36 C 144.15 170.21 144.82 169.28 144.66 168.30 L 144.51 167.31 C 144.35 166.33 143.43 165.66 142.44 165.82 C 141.46 165.97 140.79 166.90 140.95 167.88 Z M 141.11 168.87 L 141.27 169.87 C 141.43 170.85 142.35 171.51 143.33 171.36 C 144.31 171.20 144.98 170.28 144.82 169.30 L 144.66 168.30 C 144.50 167.32 143.58 166.66 142.60 166.81 C 141.62 166.97 140.96 167.89 141.11 168.87 Z M 141.28 169.87 L 141.44 170.85 C 141.60 171.83 142.52 172.49 143.50 172.33 C 144.47 172.17 145.14 171.25 144.98 170.27 L 144.82 169.29 C 144.66 168.31 143.74 167.65 142.76 167.81 C 141.78 167.97 141.12 168.89 141.28 169.87 Z M 141.44 170.86 L 141.59 171.78 C 141.76 172.76 142.68 173.42 143.66 173.26 C 144.63 173.09 145.29 172.17 145.13 171.20 L 144.98 170.27 C 144.81 169.29 143.89 168.63 142.91 168.79 C 141.94 168.96 141.28 169.88 141.44 170.86 Z M 141.60 171.78 L 141.75 172.69 C 141.91 173.66 142.83 174.32 143.80 174.16 C 144.78 174.00 145.44 173.08 145.28 172.11 L 145.13 171.20 C 144.97 170.22 144.05 169.56 143.07 169.72 C 142.10 169.88 141.44 170.80 141.60 171.78 Z M 141.74 172.67 L 141.89 173.65 C 142.04 174.62 142.95 175.30 143.93 175.15 C 144.90 175.00 145.58 174.09 145.43 173.11 L 145.28 172.13 C 145.13 171.15 144.22 170.48 143.24 170.63 C 142.27 170.78 141.60 171.69 141.74 172.67 Z M 141.89 173.62 L 142.04 174.73 C 142.17 175.71 143.07 176.40 144.05 176.27 C 145.02 176.14 145.71 175.24 145.58 174.26 L 145.43 173.14 C 145.30 172.17 144.40 171.48 143.42 171.61 C 142.45 171.74 141.76 172.64 141.89 173.62 Z M 142.04 174.70 L 142.15 175.63 C 142.26 176.60 143.15 177.30 144.12 177.19 C 145.10 177.08 145.80 176.19 145.69 175.21 L 145.58 174.29 C 145.47 173.31 144.58 172.61 143.60 172.73 C 142.62 172.84 141.92 173.73 142.04 174.70 Z M 142.15 175.61 L 142.25 176.59 C 142.35 177.57 143.23 178.28 144.21 178.17 C 145.18 178.07 145.89 177.19 145.79 176.22 L 145.69 175.23 C 145.59 174.26 144.71 173.55 143.73 173.65 C 142.75 173.75 142.04 174.63 142.15 175.61 Z M 142.25 176.57 L 142.35 177.59 C 142.44 178.57 143.31 179.29 144.28 179.20 C 145.26 179.11 145.98 178.24 145.89 177.26 L 145.79 176.23 C 145.70 175.26 144.83 174.54 143.85 174.63 C 142.87 174.72 142.16 175.59 142.25 176.57 Z M 142.35 177.58 L 142.43 178.61 C 142.51 179.59 143.37 180.32 144.35 180.24 C 145.33 180.15 146.06 179.29 145.98 178.31 L 145.89 177.28 C 145.81 176.30 144.95 175.57 143.97 175.65 C 142.99 175.74 142.26 176.60 142.35 177.58 Z M 142.43 178.59 L 142.51 179.61 C 142.58 180.59 143.43 181.33 144.41 181.25 C 145.39 181.18 146.12 180.33 146.05 179.35 L 145.98 178.33 C 145.90 177.36 145.05 176.62 144.07 176.69 C 143.10 176.76 142.36 177.61 142.43 178.59 Z M 142.51 179.59 L 142.57 180.68 C 142.63 181.66 143.47 182.41 144.45 182.35 C 145.43 182.29 146.17 181.45 146.11 180.47 L 146.05 179.38 C 145.99 178.40 145.15 177.65 144.17 177.71 C 143.20 177.77 142.45 178.61 142.51 179.59 Z M 142.57 180.65 L 142.62 181.69 C 142.66 182.67 143.49 183.42 144.46 183.38 C 145.44 183.34 146.20 182.51 146.16 181.54 L 146.11 180.50 C 146.07 179.52 145.24 178.76 144.27 178.81 C 143.29 178.85 142.53 179.68 142.57 180.65 Z M 142.62 181.66 L 142.65 182.64 C 142.67 183.62 143.48 184.39 144.46 184.36 C 145.43 184.34 146.20 183.53 146.18 182.55 L 146.16 181.57 C 146.13 180.59 145.32 179.82 144.34 179.85 C 143.37 179.87 142.60 180.68 142.62 181.66 Z M 142.65 182.60 L 142.65 183.53 C 142.66 184.51 143.45 185.29 144.42 185.29 C 145.40 185.29 146.19 184.49 146.18 183.52 L 146.18 182.59 C 146.17 181.61 145.38 180.83 144.40 180.83 C 143.43 180.84 142.64 181.63 142.65 182.60 Z M 142.66 183.49 L 142.63 184.50 C 142.61 185.47 143.38 186.28 144.35 186.30 C 145.33 186.32 146.13 185.55 146.15 184.58 L 146.18 183.57 C 146.20 182.59 145.43 181.79 144.46 181.76 C 143.48 181.74 142.68 182.51 142.66 183.49 Z M 142.64 184.37 L 142.54 185.40 C 142.45 186.37 143.16 187.23 144.12 187.32 C 145.09 187.42 145.95 186.71 146.04 185.74 L 146.14 184.71 C 146.24 183.74 145.53 182.88 144.56 182.79 C 143.60 182.70 142.74 183.40 142.64 184.37 Z M 142.60 185.11 L 142.35 186.03 C 142.09 186.96 142.64 187.93 143.57 188.19 C 144.51 188.44 145.47 187.89 145.73 186.96 L 145.98 186.04 C 146.24 185.10 145.69 184.14 144.76 183.88 C 143.82 183.62 142.86 184.17 142.60 185.11 Z M 142.55 185.58 L 142.07 186.36 C 141.56 187.19 141.82 188.27 142.64 188.77 C 143.47 189.28 144.55 189.02 145.05 188.19 L 145.53 187.41 C 146.04 186.58 145.78 185.51 144.95 185.00 C 144.13 184.50 143.05 184.76 142.55 185.58 Z M 142.42 185.96 L 141.70 186.57 C 140.97 187.20 140.89 188.30 141.52 189.03 C 142.14 189.76 143.25 189.85 143.98 189.22 L 144.69 188.60 C 145.43 187.97 145.51 186.87 144.88 186.14 C 144.25 185.41 143.15 185.33 142.42 185.96 Z M 142.02 186.37 L 141.12 186.85 C 140.28 187.30 139.96 188.35 140.42 189.20 C 140.87 190.04 141.92 190.36 142.77 189.90 L 143.66 189.43 C 144.50 188.97 144.82 187.92 144.37 187.08 C 143.91 186.23 142.86 185.91 142.02 186.37 Z M 141.37 186.75 L 140.39 187.10 C 139.49 187.42 139.03 188.41 139.35 189.30 C 139.67 190.20 140.66 190.67 141.55 190.35 L 142.53 190.00 C 143.43 189.68 143.89 188.69 143.57 187.80 C 143.25 186.90 142.26 186.43 141.37 186.75 Z M 140.59 187.05 L 139.61 187.28 C 138.69 187.49 138.11 188.41 138.32 189.33 C 138.53 190.25 139.45 190.83 140.37 190.62 L 141.36 190.39 C 142.28 190.18 142.86 189.26 142.64 188.34 C 142.43 187.42 141.51 186.84 140.59 187.05 Z M 139.80 187.27 L 138.84 187.37 C 137.91 187.48 137.24 188.31 137.34 189.24 C 137.44 190.17 138.28 190.84 139.21 190.74 L 140.18 190.63 C 141.11 190.53 141.78 189.69 141.67 188.76 C 141.57 187.83 140.73 187.16 139.80 187.27 Z M 139.01 187.39 L 138.03 187.40 C 137.11 187.40 136.37 188.15 136.38 189.07 C 136.38 189.99 137.13 190.73 138.05 190.73 L 139.03 190.72 C 139.95 190.71 140.69 189.96 140.69 189.04 C 140.68 188.12 139.93 187.38 139.01 187.39 Z M 138.15 187.43 L 137.13 187.36 C 136.23 187.30 135.44 187.98 135.38 188.88 C 135.32 189.79 136.01 190.57 136.91 190.63 L 137.93 190.70 C 138.84 190.76 139.62 190.08 139.68 189.17 C 139.74 188.27 139.06 187.49 138.15 187.43 Z M 137.20 187.38 L 136.31 187.28 C 135.42 187.19 134.62 187.83 134.52 188.72 C 134.42 189.61 135.06 190.41 135.95 190.51 L 136.84 190.61 C 137.73 190.70 138.53 190.06 138.63 189.17 C 138.73 188.28 138.09 187.48 137.20 187.38 Z M 136.36 187.30 L 135.41 187.16 C 134.53 187.03 133.71 187.64 133.58 188.52 C 133.46 189.41 134.07 190.23 134.95 190.35 L 135.90 190.49 C 136.78 190.62 137.60 190.01 137.73 189.13 C 137.86 188.25 137.25 187.43 136.36 187.30 Z M 135.47 187.18 L 134.46 186.99 C 133.59 186.83 132.75 187.41 132.59 188.28 C 132.43 189.15 133.01 189.99 133.88 190.15 L 134.89 190.33 C 135.76 190.50 136.60 189.92 136.76 189.05 C 136.92 188.18 136.34 187.34 135.47 187.18 Z M 134.52 187.02 L 133.46 186.77 C 132.60 186.58 131.74 187.12 131.55 187.98 C 131.36 188.84 131.89 189.69 132.75 189.89 L 133.82 190.13 C 134.68 190.32 135.53 189.78 135.73 188.92 C 135.92 188.06 135.38 187.21 134.52 187.02 Z M 133.51 186.80 L 132.51 186.53 C 131.66 186.30 130.79 186.80 130.56 187.65 C 130.34 188.50 130.84 189.37 131.69 189.59 L 132.69 189.86 C 133.54 190.09 134.41 189.59 134.64 188.74 C 134.86 187.89 134.36 187.02 133.51 186.80 Z M 132.55 186.55 L 131.57 186.25 C 130.73 186.00 129.85 186.47 129.60 187.31 C 129.34 188.14 129.82 189.02 130.65 189.28 L 131.64 189.57 C 132.48 189.83 133.36 189.35 133.61 188.52 C 133.86 187.68 133.39 186.80 132.55 186.55 Z M 131.60 186.27 L 130.62 185.94 C 129.80 185.67 128.90 186.12 128.63 186.95 C 128.36 187.77 128.81 188.66 129.64 188.94 L 130.62 189.26 C 131.44 189.53 132.33 189.08 132.61 188.26 C 132.88 187.43 132.43 186.54 131.60 186.27 Z M 130.66 185.96 L 129.71 185.62 C 128.89 185.33 127.99 185.76 127.70 186.58 C 127.41 187.40 127.84 188.29 128.65 188.59 L 129.60 188.92 C 130.42 189.21 131.32 188.78 131.61 187.97 C 131.90 187.15 131.47 186.25 130.66 185.96 Z M 129.73 185.64 L 128.84 185.30 C 128.03 184.99 127.13 185.40 126.82 186.21 C 126.51 187.02 126.92 187.93 127.73 188.23 L 128.63 188.57 C 129.44 188.88 130.34 188.47 130.65 187.66 C 130.95 186.85 130.54 185.94 129.73 185.64 Z M 128.87 185.31 L 127.88 184.92 C 127.08 184.59 126.17 184.98 125.85 185.78 C 125.52 186.58 125.91 187.49 126.71 187.82 L 127.70 188.22 C 128.50 188.54 129.41 188.15 129.74 187.35 C 130.06 186.55 129.67 185.64 128.87 185.31 Z M 127.92 184.93 L 126.96 184.52 C 126.17 184.18 125.25 184.54 124.91 185.33 C 124.57 186.13 124.93 187.05 125.72 187.39 L 126.68 187.80 C 127.47 188.14 128.39 187.78 128.73 186.99 C 129.08 186.19 128.71 185.27 127.92 184.93 Z M 126.99 184.53 L 126.12 184.14 C 125.34 183.78 124.41 184.12 124.05 184.91 C 123.70 185.70 124.04 186.62 124.83 186.98 L 125.70 187.38 C 126.48 187.73 127.41 187.39 127.77 186.60 C 128.12 185.82 127.78 184.89 126.99 184.53 Z M 126.14 184.14 L 125.31 183.76 C 124.52 183.39 123.60 183.73 123.23 184.51 C 122.86 185.29 123.20 186.22 123.98 186.58 L 124.81 186.97 C 125.59 187.34 126.52 187.00 126.89 186.22 C 127.25 185.44 126.92 184.51 126.14 184.14 Z M 125.30 183.76 L 124.41 183.34 C 123.63 182.97 122.70 183.31 122.34 184.09 C 121.97 184.87 122.31 185.80 123.09 186.17 L 123.98 186.58 C 124.76 186.95 125.69 186.61 126.06 185.83 C 126.42 185.05 126.09 184.12 125.30 183.76 Z M 124.42 183.34 L 123.51 182.91 C 122.73 182.55 121.80 182.88 121.44 183.66 C 121.07 184.44 121.40 185.37 122.18 185.74 L 123.09 186.16 C 123.87 186.53 124.80 186.20 125.16 185.42 C 125.53 184.64 125.20 183.71 124.42 183.34 Z M 123.53 182.92 L 122.62 182.48 C 121.85 182.11 120.92 182.43 120.54 183.21 C 120.16 183.98 120.49 184.92 121.26 185.29 L 122.17 185.73 C 122.94 186.11 123.88 185.78 124.25 185.01 C 124.63 184.23 124.30 183.30 123.53 182.92 Z M 122.65 182.50 L 121.76 182.05 C 121.00 181.66 120.06 181.96 119.67 182.73 C 119.28 183.50 119.58 184.44 120.35 184.83 L 121.24 185.28 C 122.01 185.67 122.94 185.37 123.34 184.60 C 123.73 183.83 123.42 182.89 122.65 182.50 Z M 121.79 182.06 L 120.92 181.60 C 120.16 181.19 119.22 181.48 118.81 182.24 C 118.41 183.00 118.69 183.95 119.45 184.35 L 120.32 184.82 C 121.08 185.22 122.03 184.93 122.43 184.17 C 122.84 183.41 122.55 182.47 121.79 182.06 Z M 120.94 181.61 L 120.07 181.13 C 119.31 180.71 118.36 180.99 117.95 181.74 C 117.53 182.50 117.81 183.45 118.56 183.86 L 119.44 184.34 C 120.19 184.76 121.14 184.48 121.56 183.73 C 121.97 182.97 121.70 182.02 120.94 181.61 Z M 120.07 181.13 L 119.18 180.63 C 118.42 180.22 117.47 180.49 117.06 181.24 C 116.64 182.00 116.91 182.95 117.67 183.37 L 118.56 183.86 C 119.31 184.28 120.26 184.00 120.68 183.25 C 121.10 182.50 120.82 181.55 120.07 181.13 Z M 119.17 180.63 L 118.29 180.15 C 117.53 179.73 116.58 180.01 116.17 180.76 C 115.75 181.52 116.03 182.47 116.78 182.88 L 117.67 183.37 C 118.43 183.78 119.37 183.51 119.79 182.75 C 120.20 182.00 119.93 181.05 119.17 180.63 Z M 118.29 180.15 L 117.40 179.66 C 116.64 179.24 115.69 179.52 115.28 180.27 C 114.86 181.03 115.14 181.98 115.89 182.39 L 116.78 182.88 C 117.54 183.30 118.49 183.02 118.90 182.27 C 119.32 181.51 119.04 180.56 118.29 180.15 Z M 117.41 179.66 L 116.53 179.17 C 115.78 178.75 114.83 179.02 114.41 179.77 C 113.99 180.53 114.26 181.48 115.01 181.90 L 115.88 182.39 C 116.64 182.81 117.59 182.54 118.01 181.79 C 118.43 181.03 118.16 180.08 117.41 179.66 Z M 116.55 179.18 L 115.71 178.70 C 114.97 178.27 114.01 178.52 113.58 179.27 C 113.15 180.02 113.40 180.97 114.15 181.40 L 114.99 181.89 C 115.74 182.32 116.69 182.06 117.12 181.32 C 117.55 180.57 117.30 179.61 116.55 179.18 Z M 115.74 178.72 L 114.95 178.23 C 114.21 177.79 113.25 178.02 112.80 178.76 C 112.35 179.49 112.59 180.45 113.32 180.90 L 114.12 181.38 C 114.86 181.83 115.82 181.60 116.26 180.86 C 116.71 180.12 116.48 179.16 115.74 178.72 Z M 114.98 178.25 L 114.18 177.74 C 113.46 177.27 112.49 177.48 112.02 178.21 C 111.56 178.93 111.77 179.90 112.49 180.36 L 113.29 180.88 C 114.01 181.35 114.98 181.14 115.45 180.41 C 115.91 179.69 115.70 178.72 114.98 178.25 Z M 114.21 177.76 L 113.35 177.18 C 112.64 176.69 111.67 176.88 111.19 177.59 C 110.70 178.31 110.89 179.28 111.60 179.76 L 112.46 180.34 C 113.17 180.83 114.14 180.64 114.63 179.93 C 115.11 179.22 114.92 178.24 114.21 177.76 Z M 113.38 177.19 L 112.54 176.60 C 111.83 176.10 110.86 176.27 110.36 176.98 C 109.86 177.68 110.03 178.66 110.74 179.15 L 111.58 179.75 C 112.28 180.24 113.26 180.07 113.75 179.37 C 114.25 178.67 114.08 177.69 113.38 177.19 Z M 112.55 176.61 L 111.81 176.08 C 111.11 175.57 110.14 175.73 109.63 176.43 C 109.13 177.13 109.29 178.10 109.98 178.61 L 110.72 179.14 C 111.42 179.65 112.40 179.49 112.90 178.79 C 113.41 178.09 113.25 177.12 112.55 176.61 Z M 111.82 176.08 L 111.03 175.51 C 110.33 175.00 109.36 175.15 108.85 175.84 C 108.34 176.54 108.49 177.52 109.19 178.03 L 109.98 178.60 C 110.67 179.11 111.65 178.96 112.16 178.26 C 112.67 177.57 112.51 176.59 111.82 176.08 Z M 111.03 175.51 L 110.20 174.90 C 109.51 174.39 108.53 174.53 108.02 175.23 C 107.51 175.92 107.66 176.90 108.35 177.41 L 109.18 178.02 C 109.87 178.53 110.85 178.39 111.36 177.69 C 111.87 177.00 111.73 176.02 111.03 175.51 Z M 110.21 174.90 L 109.35 174.27 C 108.66 173.75 107.68 173.90 107.17 174.59 C 106.66 175.28 106.80 176.26 107.49 176.78 L 108.35 177.41 C 109.04 177.92 110.02 177.78 110.53 177.08 C 111.04 176.39 110.90 175.41 110.21 174.90 Z M 109.35 174.27 L 108.54 173.66 C 107.85 173.15 106.87 173.29 106.36 173.99 C 105.84 174.68 105.99 175.66 106.68 176.17 L 107.49 176.77 C 108.18 177.29 109.16 177.14 109.68 176.45 C 110.19 175.76 110.05 174.78 109.35 174.27 Z"
      fill="black"
      fill-rule="nonzero" /><path d="M 104.97 143.27 L 105.97 143.19 C 106.96 143.12 107.69 142.25 107.62 141.27 C 107.54 140.28 106.68 139.54 105.69 139.62 L 104.68 139.70 C 103.70 139.78 102.96 140.64 103.04 141.63 C 103.11 142.61 103.98 143.35 104.97 143.27 Z M 105.96 143.18 L 106.96 143.11 C 107.93 143.04 108.67 142.19 108.60 141.21 C 108.53 140.23 107.68 139.49 106.70 139.56 L 105.70 139.63 C 104.72 139.70 103.99 140.55 104.06 141.53 C 104.13 142.51 104.98 143.25 105.96 143.18 Z M 106.93 143.09 L 107.92 143.03 C 108.89 142.98 109.63 142.15 109.58 141.18 C 109.52 140.21 108.69 139.47 107.72 139.52 L 106.73 139.58 C 105.76 139.63 105.02 140.47 105.07 141.44 C 105.13 142.41 105.96 143.15 106.93 143.09 Z M 107.88 143.01 L 108.86 142.97 C 109.82 142.94 110.57 142.14 110.53 141.18 C 110.50 140.23 109.70 139.48 108.74 139.52 L 107.76 139.55 C 106.81 139.58 106.06 140.38 106.09 141.34 C 106.13 142.29 106.93 143.04 107.88 143.01 Z M 108.80 142.92 L 109.78 142.93 C 110.71 142.93 111.47 142.18 111.47 141.25 C 111.47 140.32 110.72 139.57 109.79 139.57 L 108.81 139.56 C 107.88 139.56 107.13 140.31 107.12 141.24 C 107.12 142.17 107.87 142.92 108.80 142.92 Z M 109.69 142.87 L 110.70 142.93 C 111.59 142.98 112.36 142.30 112.41 141.40 C 112.47 140.50 111.78 139.74 110.89 139.68 L 109.88 139.63 C 108.99 139.57 108.22 140.26 108.17 141.15 C 108.11 142.05 108.80 142.82 109.69 142.87 Z M 110.59 142.87 L 111.59 143.00 C 112.45 143.11 113.24 142.49 113.35 141.63 C 113.46 140.76 112.85 139.97 111.98 139.86 L 110.99 139.74 C 110.12 139.63 109.33 140.24 109.22 141.11 C 109.12 141.97 109.73 142.76 110.59 142.87 Z M 111.50 142.97 L 112.46 143.14 C 113.31 143.30 114.12 142.74 114.28 141.89 C 114.44 141.04 113.88 140.23 113.03 140.07 L 112.07 139.89 C 111.22 139.74 110.41 140.30 110.25 141.15 C 110.09 141.99 110.65 142.81 111.50 142.97 Z M 112.40 143.13 L 113.39 143.35 C 114.23 143.54 115.07 143.01 115.25 142.17 C 115.44 141.33 114.91 140.49 114.07 140.30 L 113.09 140.08 C 112.24 139.90 111.41 140.43 111.22 141.27 C 111.03 142.11 111.56 142.94 112.40 143.13 Z M 113.36 143.34 L 114.36 143.59 C 115.19 143.79 116.04 143.28 116.24 142.44 C 116.45 141.60 115.93 140.76 115.10 140.55 L 114.10 140.31 C 113.26 140.11 112.42 140.62 112.21 141.46 C 112.01 142.29 112.52 143.14 113.36 143.34 Z M 114.35 143.59 L 114.66 143.66 C 115.49 143.87 116.34 143.36 116.55 142.53 C 116.76 141.69 116.25 140.84 115.41 140.63 L 115.10 140.56 C 114.27 140.35 113.42 140.86 113.21 141.69 C 113.00 142.53 113.51 143.38 114.35 143.59 Z"
      fill="black"
      fill-rule="nonzero" /><path d="M 104.32 169.89 L 103.60 171.02 C 103.10 171.81 103.33 172.86 104.12 173.36 C 104.91 173.87 105.96 173.63 106.46 172.84 L 107.18 171.72 C 107.69 170.93 107.46 169.88 106.67 169.37 C 105.87 168.87 104.83 169.10 104.32 169.89 Z M 103.58 171.02 L 102.93 172.04 C 102.43 172.85 102.67 173.91 103.47 174.42 C 104.28 174.92 105.34 174.68 105.84 173.87 L 106.49 172.85 C 106.99 172.04 106.75 170.98 105.95 170.48 C 105.15 169.97 104.08 170.21 103.58 171.02 Z M 102.90 172.06 L 102.40 172.89 C 101.90 173.71 102.16 174.78 102.99 175.28 C 103.81 175.77 104.88 175.51 105.38 174.69 L 105.88 173.86 C 106.38 173.04 106.11 171.97 105.29 171.47 C 104.47 170.97 103.40 171.24 102.90 172.06 Z M 102.33 172.96 L 102.05 173.48 C 101.59 174.34 101.92 175.41 102.78 175.87 C 103.64 176.33 104.70 176.00 105.16 175.14 L 105.44 174.62 C 105.90 173.76 105.58 172.69 104.72 172.23 C 103.86 171.77 102.79 172.10 102.33 172.96 Z M 102.59 175.76 L 102.69 175.83 C 103.49 176.40 104.60 176.21 105.16 175.40 C 105.72 174.60 105.53 173.50 104.73 172.93 L 104.63 172.86 C 103.83 172.30 102.72 172.49 102.16 173.29 C 101.59 174.09 101.79 175.20 102.59 175.76 Z M 104.98 175.62 L 105.66 174.91 C 106.34 174.21 106.32 173.09 105.62 172.41 C 104.92 171.73 103.80 171.75 103.12 172.45 L 102.44 173.15 C 101.76 173.85 101.77 174.97 102.48 175.65 C 103.18 176.33 104.30 176.32 104.98 175.62 Z M 105.71 174.85 L 106.63 173.81 C 107.28 173.08 107.21 171.97 106.48 171.32 C 105.75 170.68 104.63 170.74 103.99 171.47 L 103.07 172.51 C 102.42 173.24 102.49 174.36 103.22 175.00 C 103.95 175.65 105.07 175.58 105.71 174.85 Z M 106.63 173.80 L 107.28 173.05 C 107.92 172.32 107.85 171.21 107.12 170.57 C 106.39 169.94 105.28 170.01 104.64 170.74 L 103.99 171.49 C 103.35 172.22 103.42 173.33 104.15 173.97 C 104.88 174.60 105.99 174.53 106.63 173.80 Z M 107.28 173.04 L 107.95 172.27 C 108.59 171.54 108.51 170.44 107.78 169.80 C 107.06 169.17 105.95 169.25 105.32 169.97 L 104.64 170.75 C 104.01 171.48 104.09 172.58 104.81 173.21 C 105.54 173.85 106.64 173.77 107.28 173.04 Z M 107.95 172.26 L 108.62 171.48 C 109.25 170.76 109.18 169.66 108.45 169.03 C 107.73 168.40 106.63 168.48 106.00 169.20 L 105.33 169.98 C 104.70 170.70 104.77 171.80 105.50 172.43 C 106.22 173.06 107.32 172.98 107.95 172.26 Z M 108.61 171.48 L 109.26 170.74 C 109.89 170.02 109.81 168.93 109.10 168.30 C 108.38 167.67 107.29 167.75 106.66 168.47 L 106.01 169.21 C 105.38 169.93 105.46 171.02 106.18 171.65 C 106.90 172.27 107.99 172.20 108.61 171.48 Z M 109.25 170.73 L 109.95 169.93 C 110.57 169.22 110.50 168.14 109.79 167.51 C 109.08 166.89 108.00 166.96 107.37 167.67 L 106.67 168.47 C 106.05 169.18 106.12 170.27 106.83 170.89 C 107.54 171.51 108.63 171.44 109.25 170.73 Z M 109.92 169.92 L 110.61 169.15 C 111.23 168.45 111.16 167.38 110.47 166.76 C 109.77 166.15 108.70 166.21 108.08 166.91 L 107.40 167.68 C 106.78 168.38 106.85 169.45 107.54 170.06 C 108.24 170.68 109.31 170.62 109.92 169.92 Z M 110.58 169.14 L 111.22 168.43 C 111.83 167.75 111.78 166.70 111.10 166.09 C 110.42 165.47 109.37 165.53 108.76 166.21 L 108.12 166.91 C 107.50 167.59 107.55 168.64 108.23 169.26 C 108.91 169.87 109.96 169.82 110.58 169.14 Z M 111.18 168.43 L 111.81 167.76 C 112.43 167.10 112.39 166.06 111.73 165.45 C 111.07 164.83 110.04 164.87 109.42 165.53 L 108.79 166.21 C 108.18 166.87 108.21 167.90 108.87 168.52 C 109.53 169.13 110.57 169.09 111.18 168.43 Z M 111.78 167.76 L 112.46 167.06 C 113.08 166.42 113.06 165.39 112.41 164.78 C 111.77 164.16 110.75 164.18 110.13 164.82 L 109.45 165.52 C 108.83 166.17 108.85 167.19 109.50 167.81 C 110.14 168.43 111.16 168.41 111.78 167.76 Z M 112.43 167.07 L 113.13 166.36 C 113.76 165.73 113.75 164.71 113.12 164.09 C 112.49 163.47 111.48 163.47 110.85 164.10 L 110.15 164.81 C 109.53 165.44 109.54 166.46 110.17 167.08 C 110.80 167.70 111.81 167.70 112.43 167.07 Z M 113.11 166.36 L 113.84 165.65 C 114.46 165.03 114.47 164.02 113.85 163.40 C 113.23 162.77 112.22 162.76 111.60 163.38 L 110.87 164.10 C 110.25 164.72 110.24 165.73 110.86 166.35 C 111.48 166.98 112.49 166.98 113.11 166.36 Z M 113.82 165.65 L 114.53 164.97 C 115.15 164.36 115.17 163.36 114.56 162.73 C 113.95 162.10 112.95 162.09 112.32 162.70 L 111.61 163.38 C 110.99 163.99 110.97 164.99 111.58 165.62 C 112.19 166.25 113.19 166.26 113.82 165.65 Z M 114.52 164.97 L 115.22 164.29 C 115.85 163.69 115.87 162.69 115.26 162.06 C 114.66 161.43 113.66 161.41 113.03 162.02 L 112.33 162.70 C 111.70 163.30 111.68 164.30 112.28 164.93 C 112.89 165.55 113.89 165.57 114.52 164.97 Z M 115.21 164.29 L 115.94 163.60 C 116.57 163.00 116.59 162.00 115.99 161.37 C 115.39 160.75 114.40 160.72 113.77 161.32 L 113.04 162.02 C 112.41 162.62 112.39 163.61 112.99 164.24 C 113.59 164.87 114.58 164.89 115.21 164.29 Z M 115.94 163.59 L 116.69 162.87 C 117.32 162.28 117.34 161.28 116.74 160.66 C 116.15 160.03 115.15 160.01 114.53 160.61 L 113.77 161.33 C 113.15 161.92 113.12 162.91 113.72 163.54 C 114.32 164.17 115.31 164.19 115.94 163.59 Z M 116.69 162.87 L 117.40 162.19 C 118.03 161.59 118.05 160.61 117.45 159.98 C 116.86 159.36 115.87 159.33 115.24 159.93 L 114.53 160.61 C 113.91 161.20 113.88 162.19 114.48 162.82 C 115.07 163.44 116.06 163.47 116.69 162.87 Z M 117.40 162.19 L 118.13 161.50 C 118.75 160.91 118.78 159.92 118.18 159.29 C 117.59 158.67 116.60 158.64 115.97 159.24 L 115.25 159.93 C 114.62 160.52 114.60 161.51 115.19 162.14 C 115.78 162.76 116.77 162.79 117.40 162.19 Z M 118.12 161.51 L 118.86 160.82 C 119.48 160.22 119.52 159.24 118.93 158.61 C 118.33 157.98 117.35 157.95 116.72 158.54 L 115.98 159.23 C 115.35 159.82 115.32 160.81 115.91 161.44 C 116.50 162.07 117.49 162.10 118.12 161.51 Z M 118.85 160.82 L 119.58 160.14 C 120.22 159.56 120.26 158.57 119.67 157.94 C 119.09 157.30 118.10 157.26 117.46 157.85 L 116.73 158.53 C 116.09 159.11 116.05 160.10 116.64 160.74 C 117.22 161.37 118.21 161.41 118.85 160.82 Z M 119.57 160.15 L 120.32 159.48 C 120.96 158.90 121.01 157.91 120.43 157.27 C 119.86 156.63 118.87 156.58 118.23 157.16 L 117.48 157.84 C 116.84 158.41 116.79 159.40 117.36 160.04 C 117.94 160.68 118.93 160.73 119.57 160.15 Z M 120.31 159.49 L 121.06 158.83 C 121.70 158.25 121.76 157.27 121.19 156.62 C 120.62 155.98 119.63 155.92 118.99 156.49 L 118.24 157.15 C 117.59 157.72 117.53 158.71 118.11 159.35 C 118.68 160.00 119.66 160.06 120.31 159.49 Z M 121.05 158.83 L 121.80 158.18 C 122.45 157.61 122.51 156.63 121.95 155.98 C 121.38 155.33 120.39 155.26 119.74 155.83 L 119.00 156.48 C 118.35 157.05 118.28 158.03 118.85 158.68 C 119.41 159.33 120.40 159.40 121.05 158.83 Z M 121.79 158.18 L 122.55 157.53 C 123.20 156.97 123.27 155.98 122.70 155.33 C 122.14 154.68 121.15 154.61 120.50 155.17 L 119.75 155.82 C 119.10 156.39 119.03 157.37 119.59 158.03 C 120.16 158.68 121.14 158.75 121.79 158.18 Z M 122.55 157.53 L 123.29 156.89 C 123.94 156.32 124.01 155.33 123.45 154.68 C 122.88 154.03 121.90 153.96 121.25 154.53 L 120.50 155.17 C 119.85 155.74 119.78 156.72 120.34 157.37 C 120.91 158.02 121.89 158.10 122.55 157.53 Z M 123.29 156.89 L 124.04 156.24 C 124.69 155.68 124.77 154.69 124.21 154.04 C 123.64 153.38 122.66 153.31 122.00 153.87 L 121.25 154.52 C 120.60 155.08 120.52 156.07 121.09 156.72 C 121.65 157.38 122.63 157.45 123.29 156.89 Z M 124.03 156.25 L 124.80 155.60 C 125.46 155.04 125.54 154.06 124.98 153.40 C 124.42 152.74 123.44 152.66 122.78 153.22 L 122.01 153.87 C 121.36 154.42 121.27 155.41 121.83 156.07 C 122.39 156.72 123.37 156.80 124.03 156.25 Z M 124.78 155.61 L 125.56 154.96 C 126.23 154.41 126.32 153.43 125.77 152.77 C 125.22 152.10 124.24 152.01 123.57 152.56 L 122.79 153.20 C 122.13 153.75 122.04 154.74 122.59 155.40 C 123.14 156.07 124.12 156.16 124.78 155.61 Z M 125.55 154.98 L 126.32 154.36 C 126.99 153.82 127.10 152.83 126.56 152.16 C 126.02 151.49 125.04 151.38 124.37 151.92 L 123.59 152.54 C 122.92 153.08 122.81 154.07 123.35 154.74 C 123.89 155.41 124.87 155.52 125.55 154.98 Z M 126.31 154.37 L 127.09 153.75 C 127.77 153.22 127.89 152.24 127.36 151.56 C 126.83 150.88 125.85 150.76 125.17 151.29 L 124.38 151.91 C 123.70 152.44 123.59 153.42 124.12 154.10 C 124.65 154.78 125.63 154.90 126.31 154.37 Z M 127.08 153.76 L 127.88 153.15 C 128.56 152.62 128.69 151.64 128.16 150.96 C 127.64 150.28 126.66 150.15 125.97 150.68 L 125.18 151.29 C 124.50 151.81 124.37 152.79 124.89 153.48 C 125.42 154.16 126.40 154.29 127.08 153.76 Z M 127.87 153.15 L 128.67 152.54 C 129.36 152.02 129.49 151.04 128.97 150.36 C 128.44 149.67 127.46 149.54 126.78 150.06 L 125.98 150.67 C 125.29 151.19 125.16 152.17 125.68 152.86 C 126.21 153.54 127.19 153.68 127.87 153.15 Z M 128.67 152.55 L 128.85 152.41 C 129.53 151.89 129.66 150.91 129.14 150.23 C 128.62 149.54 127.64 149.41 126.96 149.93 L 126.78 150.06 C 126.09 150.58 125.96 151.56 126.48 152.25 C 127.00 152.93 127.98 153.07 128.67 152.55 Z"
      fill="black"
      fill-rule="nonzero" /><path d="M 162.99 105.66 L 163.93 105.54 C 164.88 105.43 165.55 104.57 165.44 103.62 C 165.32 102.68 164.47 102.00 163.52 102.11 L 162.57 102.23 C 161.63 102.34 160.95 103.20 161.07 104.15 C 161.18 105.10 162.04 105.77 162.99 105.66 Z M 163.94 105.55 L 164.91 105.43 C 165.86 105.31 166.53 104.44 166.41 103.50 C 166.30 102.55 165.43 101.87 164.48 101.99 L 163.51 102.11 C 162.56 102.23 161.89 103.09 162.01 104.04 C 162.12 104.99 162.99 105.66 163.94 105.55 Z M 164.92 105.43 L 165.94 105.30 C 166.89 105.17 167.56 104.30 167.44 103.35 C 167.31 102.40 166.44 101.73 165.49 101.85 L 164.47 101.99 C 163.52 102.11 162.85 102.98 162.97 103.93 C 163.10 104.88 163.97 105.55 164.92 105.43 Z M 165.95 105.30 L 166.89 105.17 C 167.84 105.04 168.51 104.16 168.38 103.21 C 168.25 102.26 167.37 101.59 166.42 101.72 L 165.48 101.85 C 164.53 101.98 163.86 102.86 163.99 103.81 C 164.12 104.76 165.00 105.43 165.95 105.30 Z M 166.90 105.17 L 167.74 105.05 C 168.70 104.92 169.36 104.03 169.22 103.08 C 169.09 102.12 168.20 101.46 167.25 101.60 L 166.41 101.72 C 165.45 101.86 164.79 102.74 164.93 103.70 C 165.06 104.65 165.95 105.31 166.90 105.17 Z M 167.75 105.05 L 168.67 104.92 C 169.63 104.78 170.29 103.89 170.15 102.93 C 170.00 101.98 169.11 101.32 168.16 101.46 L 167.24 101.60 C 166.28 101.74 165.62 102.63 165.77 103.58 C 165.91 104.54 166.80 105.20 167.75 105.05 Z M 168.68 104.92 L 169.71 104.76 C 170.66 104.62 171.32 103.72 171.17 102.77 C 171.03 101.81 170.13 101.15 169.18 101.30 L 168.15 101.46 C 167.20 101.60 166.54 102.50 166.68 103.45 C 166.83 104.41 167.72 105.07 168.68 104.92 Z M 169.71 104.77 L 170.86 104.59 C 171.82 104.44 172.47 103.54 172.33 102.58 C 172.18 101.62 171.28 100.97 170.32 101.12 L 169.17 101.30 C 168.21 101.45 167.56 102.34 167.71 103.30 C 167.86 104.26 168.75 104.92 169.71 104.77 Z M 170.87 104.59 L 171.89 104.43 C 172.85 104.28 173.51 103.38 173.35 102.42 C 173.20 101.46 172.30 100.80 171.34 100.95 L 170.32 101.12 C 169.36 101.27 168.70 102.17 168.85 103.13 C 169.01 104.09 169.91 104.74 170.87 104.59 Z M 171.89 104.43 L 172.81 104.28 C 173.77 104.13 174.42 103.23 174.27 102.27 C 174.12 101.31 173.22 100.66 172.26 100.81 L 171.34 100.95 C 170.38 101.10 169.73 102.01 169.88 102.97 C 170.03 103.93 170.93 104.58 171.89 104.43 Z M 172.81 104.29 L 173.77 104.13 C 174.73 103.98 175.39 103.08 175.23 102.12 C 175.08 101.16 174.18 100.50 173.22 100.65 L 172.26 100.81 C 171.30 100.96 170.64 101.86 170.79 102.82 C 170.94 103.78 171.85 104.44 172.81 104.29 Z M 173.77 104.14 L 174.77 103.98 C 175.73 103.83 176.39 102.93 176.24 101.96 C 176.09 101.00 175.18 100.34 174.22 100.50 L 173.22 100.65 C 172.26 100.80 171.60 101.70 171.75 102.67 C 171.90 103.63 172.81 104.29 173.77 104.14 Z M 174.76 103.98 L 175.79 103.82 C 176.75 103.67 177.41 102.77 177.26 101.81 C 177.11 100.85 176.21 100.19 175.25 100.33 L 174.22 100.49 C 173.26 100.64 172.60 101.54 172.75 102.51 C 172.90 103.47 173.80 104.13 174.76 103.98 Z M 175.78 103.82 L 176.82 103.67 C 177.78 103.52 178.45 102.62 178.30 101.66 C 178.15 100.69 177.25 100.03 176.29 100.18 L 175.25 100.33 C 174.29 100.48 173.63 101.38 173.77 102.34 C 173.92 103.31 174.82 103.97 175.78 103.82 Z M 176.81 103.67 L 177.85 103.52 C 178.81 103.38 179.48 102.48 179.34 101.51 C 179.20 100.55 178.30 99.88 177.33 100.02 L 176.30 100.17 C 175.33 100.32 174.66 101.21 174.81 102.18 C 174.95 103.15 175.85 103.81 176.81 103.67 Z M 177.84 103.52 L 178.88 103.37 C 179.85 103.23 180.52 102.34 180.38 101.37 C 180.24 100.40 179.35 99.73 178.38 99.87 L 177.34 100.02 C 176.37 100.16 175.70 101.05 175.84 102.02 C 175.98 102.99 176.87 103.66 177.84 103.52 Z M 178.87 103.38 L 179.98 103.22 C 180.95 103.09 181.63 102.20 181.49 101.23 C 181.36 100.26 180.47 99.58 179.50 99.71 L 178.39 99.87 C 177.42 100.00 176.74 100.89 176.87 101.86 C 177.01 102.83 177.90 103.51 178.87 103.38 Z M 179.97 103.23 L 181.04 103.09 C 182.01 102.96 182.70 102.07 182.57 101.10 C 182.45 100.13 181.56 99.45 180.59 99.57 L 179.51 99.71 C 178.54 99.84 177.86 100.73 177.98 101.70 C 178.11 102.67 179.00 103.35 179.97 103.23 Z M 181.03 103.09 L 182.07 102.96 C 183.04 102.84 183.73 101.96 183.61 100.99 C 183.49 100.01 182.61 99.32 181.63 99.44 L 180.60 99.57 C 179.63 99.69 178.93 100.57 179.05 101.55 C 179.17 102.52 180.06 103.21 181.03 103.09 Z M 182.06 102.97 L 183.04 102.85 C 184.02 102.74 184.72 101.86 184.60 100.88 C 184.49 99.91 183.61 99.21 182.63 99.32 L 181.64 99.44 C 180.67 99.55 179.97 100.43 180.09 101.41 C 180.20 102.38 181.08 103.08 182.06 102.97 Z M 183.03 102.85 L 183.97 102.75 C 184.95 102.64 185.65 101.76 185.54 100.79 C 185.43 99.81 184.56 99.11 183.58 99.22 L 182.64 99.32 C 181.67 99.43 180.96 100.31 181.07 101.28 C 181.18 102.26 182.06 102.96 183.03 102.85 Z M 183.96 102.75 L 184.84 102.66 C 185.82 102.56 186.53 101.68 186.42 100.71 C 186.32 99.73 185.45 99.02 184.47 99.12 L 183.59 99.21 C 182.61 99.31 181.90 100.19 182.00 101.17 C 182.11 102.15 182.98 102.86 183.96 102.75 Z M 184.83 102.67 L 185.82 102.57 C 186.80 102.47 187.51 101.60 187.42 100.62 C 187.32 99.64 186.45 98.93 185.47 99.02 L 184.48 99.12 C 183.50 99.21 182.78 100.08 182.88 101.06 C 182.97 102.04 183.85 102.76 184.83 102.67 Z M 185.79 102.58 L 186.88 102.48 C 187.87 102.40 188.60 101.54 188.51 100.55 C 188.43 99.57 187.56 98.84 186.58 98.92 L 185.49 99.01 C 184.51 99.10 183.78 99.96 183.86 100.95 C 183.95 101.93 184.81 102.66 185.79 102.58 Z M 186.85 102.49 L 187.84 102.43 C 188.83 102.36 189.58 101.51 189.51 100.52 C 189.45 99.54 188.60 98.79 187.61 98.85 L 186.62 98.91 C 185.63 98.98 184.88 99.83 184.94 100.82 C 185.01 101.81 185.86 102.56 186.85 102.49 Z M 187.79 102.44 L 188.72 102.40 C 189.71 102.37 190.49 101.53 190.45 100.54 C 190.41 99.55 189.58 98.77 188.59 98.81 L 187.66 98.84 C 186.67 98.88 185.89 99.71 185.93 100.71 C 185.96 101.70 186.80 102.47 187.79 102.44 Z M 188.66 102.41 L 189.56 102.41 C 190.56 102.40 191.36 101.59 191.36 100.60 C 191.36 99.60 190.55 98.80 189.55 98.80 L 188.65 98.80 C 187.65 98.81 186.85 99.62 186.85 100.61 C 186.86 101.61 187.66 102.41 188.66 102.41 Z M 189.48 102.41 L 190.56 102.46 C 191.56 102.50 192.40 101.72 192.45 100.72 C 192.49 99.72 191.71 98.88 190.71 98.84 L 189.63 98.79 C 188.63 98.75 187.79 99.53 187.75 100.53 C 187.70 101.53 188.48 102.37 189.48 102.41 Z M 190.42 102.46 L 191.45 102.59 C 192.45 102.71 193.36 102.00 193.49 100.99 C 193.61 99.99 192.89 99.08 191.89 98.96 L 190.86 98.83 C 189.85 98.71 188.94 99.43 188.82 100.43 C 188.70 101.43 189.41 102.34 190.42 102.46 Z M 191.21 102.56 L 192.14 102.80 C 193.13 103.05 194.13 102.46 194.39 101.47 C 194.64 100.49 194.05 99.49 193.06 99.23 L 192.13 98.99 C 191.15 98.74 190.14 99.33 189.89 100.31 C 189.64 101.30 190.23 102.30 191.21 102.56 Z M 191.75 102.66 L 192.55 103.08 C 193.46 103.55 194.58 103.20 195.06 102.29 C 195.53 101.38 195.17 100.26 194.26 99.79 L 193.46 99.37 C 192.55 98.89 191.43 99.25 190.96 100.16 C 190.48 101.07 190.84 102.19 191.75 102.66 Z M 192.04 102.71 L 192.72 103.43 C 193.42 104.18 194.60 104.22 195.36 103.51 C 196.11 102.81 196.15 101.62 195.44 100.87 L 194.77 100.15 C 194.07 99.40 192.88 99.36 192.13 100.07 C 191.38 100.77 191.34 101.96 192.04 102.71 Z M 192.39 102.98 L 192.82 103.86 C 193.28 104.79 194.41 105.18 195.34 104.72 C 196.27 104.27 196.66 103.14 196.20 102.21 L 195.77 101.32 C 195.31 100.39 194.19 100.00 193.25 100.46 C 192.32 100.92 191.93 102.04 192.39 102.98 Z M 192.69 103.55 L 192.96 104.48 C 193.24 105.48 194.29 106.07 195.29 105.78 C 196.30 105.50 196.88 104.45 196.59 103.45 L 196.33 102.52 C 196.05 101.52 195.00 100.93 194.00 101.22 C 192.99 101.50 192.41 102.55 192.69 103.55 Z M 192.91 104.29 L 193.06 105.16 C 193.24 106.19 194.23 106.88 195.26 106.69 C 196.29 106.51 196.98 105.53 196.80 104.50 L 196.64 103.63 C 196.46 102.60 195.48 101.91 194.45 102.10 C 193.41 102.28 192.73 103.26 192.91 104.29 Z M 193.04 105.02 L 193.14 105.98 C 193.24 107.03 194.17 107.79 195.22 107.68 C 196.26 107.58 197.02 106.64 196.92 105.60 L 196.82 104.64 C 196.71 103.59 195.78 102.83 194.74 102.94 C 193.69 103.04 192.93 103.97 193.04 105.02 Z M 193.13 105.89 L 193.18 107.02 C 193.24 108.07 194.13 108.88 195.18 108.82 C 196.23 108.77 197.04 107.87 196.99 106.82 L 196.93 105.69 C 196.87 104.64 195.98 103.84 194.93 103.89 C 193.88 103.95 193.07 104.84 193.13 105.89 Z M 193.18 106.97 L 193.21 107.95 C 193.23 109.00 194.11 109.83 195.16 109.80 C 196.21 109.77 197.04 108.90 197.02 107.84 L 196.99 106.87 C 196.96 105.82 196.09 104.99 195.03 105.02 C 193.98 105.04 193.15 105.92 193.18 106.97 Z M 193.20 107.92 L 193.22 108.87 C 193.23 109.93 194.10 110.77 195.15 110.75 C 196.21 110.74 197.05 109.87 197.03 108.82 L 197.02 107.87 C 197.00 106.81 196.13 105.97 195.08 105.99 C 194.03 106.00 193.19 106.87 193.20 107.92 Z M 193.22 108.86 L 193.23 109.87 C 193.23 110.92 194.10 111.77 195.15 111.76 C 196.20 111.75 197.05 110.89 197.04 109.84 L 197.03 108.83 C 197.02 107.78 196.16 106.93 195.11 106.94 C 194.06 106.95 193.21 107.81 193.22 108.86 Z M 193.22 109.86 L 193.23 110.91 C 193.23 111.96 194.09 112.81 195.14 112.81 C 196.20 112.80 197.05 111.95 197.05 110.89 L 197.04 109.85 C 197.04 108.79 196.18 107.94 195.13 107.95 C 194.07 107.95 193.22 108.81 193.22 109.86 Z M 193.23 110.90 L 193.23 111.96 C 193.23 113.01 194.09 113.87 195.14 113.86 C 196.20 113.86 197.05 113.01 197.05 111.95 L 197.05 110.90 C 197.05 109.84 196.19 108.99 195.14 108.99 C 194.08 108.99 193.23 109.85 193.23 110.90 Z M 193.23 111.96 L 193.23 113.03 C 193.23 114.08 194.08 114.94 195.14 114.94 C 196.19 114.94 197.05 114.08 197.05 113.03 L 197.05 111.96 C 197.05 110.90 196.19 110.05 195.14 110.05 C 194.08 110.05 193.23 110.90 193.23 111.96 Z M 193.23 113.03 L 193.23 114.13 C 193.23 115.18 194.08 116.04 195.14 116.04 C 196.19 116.04 197.05 115.18 197.05 114.13 L 197.05 113.03 C 197.05 111.97 196.19 111.12 195.14 111.12 C 194.08 111.12 193.23 111.97 193.23 113.03 Z M 193.23 114.13 L 193.23 115.17 C 193.23 116.23 194.08 117.08 195.14 117.08 C 196.19 117.08 197.05 116.23 197.05 115.17 L 197.05 114.13 C 197.05 113.07 196.19 112.22 195.14 112.22 C 194.08 112.22 193.23 113.07 193.23 114.13 Z M 193.23 115.17 L 193.23 116.16 C 193.23 117.22 194.08 118.07 195.14 118.07 C 196.19 118.07 197.05 117.22 197.05 116.16 L 197.05 115.17 C 197.05 114.12 196.19 113.26 195.14 113.26 C 194.08 113.26 193.23 114.12 193.23 115.17 Z M 193.23 116.16 L 193.23 117.08 C 193.23 118.14 194.08 118.99 195.14 118.99 C 196.19 118.99 197.05 118.14 197.05 117.08 L 197.05 116.16 C 197.05 115.11 196.19 114.25 195.14 114.25 C 194.08 114.25 193.23 115.11 193.23 116.16 Z M 193.23 117.08 L 193.23 118.04 C 193.23 119.10 194.08 119.95 195.14 119.95 C 196.19 119.95 197.05 119.10 197.05 118.04 L 197.05 117.08 C 197.05 116.03 196.19 115.17 195.14 115.17 C 194.08 115.17 193.23 116.03 193.23 117.08 Z M 193.23 118.04 L 193.23 119.11 C 193.23 120.17 194.08 121.02 195.14 121.02 C 196.19 121.02 197.05 120.17 197.05 119.11 L 197.05 118.04 C 197.05 116.99 196.19 116.14 195.14 116.14 C 194.08 116.14 193.23 116.99 193.23 118.04 Z M 193.23 119.11 L 193.23 120.08 C 193.23 121.13 194.09 121.99 195.14 121.99 C 196.19 121.99 197.05 121.13 197.05 120.08 L 197.05 119.11 C 197.05 118.06 196.19 117.21 195.14 117.21 C 194.09 117.21 193.23 118.06 193.23 119.11 Z M 193.23 120.08 L 193.23 121.00 C 193.23 122.05 194.09 122.90 195.14 122.90 C 196.19 122.90 197.04 122.05 197.04 121.00 L 197.04 120.08 C 197.04 119.03 196.19 118.17 195.14 118.17 C 194.09 118.17 193.23 119.03 193.23 120.08 Z M 193.24 121.00 L 193.24 121.95 C 193.24 123.00 194.09 123.85 195.14 123.85 C 196.19 123.85 197.04 123.00 197.04 121.95 L 197.04 121.00 C 197.04 119.94 196.19 119.09 195.14 119.09 C 194.09 119.09 193.24 119.94 193.24 121.00 Z M 193.24 121.95 L 193.24 122.94 C 193.24 123.99 194.09 124.84 195.14 124.84 C 196.19 124.84 197.04 123.99 197.04 122.94 L 197.04 121.95 C 197.04 120.90 196.19 120.05 195.14 120.05 C 194.09 120.05 193.24 120.90 193.24 121.95 Z M 193.24 122.94 L 193.24 123.96 C 193.24 125.01 194.09 125.86 195.14 125.86 C 196.19 125.86 197.04 125.01 197.04 123.96 L 197.04 122.94 C 197.04 121.89 196.19 121.04 195.14 121.04 C 194.09 121.04 193.24 121.89 193.24 122.94 Z M 193.24 123.96 L 193.24 124.97 C 193.24 126.02 194.09 126.87 195.14 126.87 C 196.19 126.87 197.04 126.02 197.04 124.97 L 197.04 123.96 C 197.04 122.91 196.19 122.06 195.14 122.06 C 194.09 122.06 193.24 122.92 193.24 123.96 Z M 193.24 124.98 L 193.24 125.98 C 193.24 127.03 194.10 127.88 195.14 127.87 C 196.19 127.87 197.04 127.02 197.04 125.97 L 197.04 124.97 C 197.03 123.92 196.18 123.07 195.14 123.08 C 194.09 123.08 193.24 123.93 193.24 124.98 Z M 193.24 125.99 L 193.25 127.00 C 193.26 128.05 194.11 128.89 195.16 128.88 C 196.21 128.88 197.05 128.02 197.04 126.98 L 197.04 125.96 C 197.03 124.92 196.18 124.07 195.13 124.08 C 194.08 124.09 193.24 124.94 193.24 125.99 Z M 193.25 127.01 L 193.27 128.01 C 193.28 129.06 194.14 129.89 195.19 129.88 C 196.23 129.87 197.07 129.01 197.05 127.96 L 197.04 126.96 C 197.03 125.92 196.17 125.08 195.12 125.09 C 194.08 125.11 193.24 125.97 193.25 127.01 Z M 193.27 128.03 L 193.29 129.06 C 193.32 130.10 194.18 130.93 195.23 130.90 C 196.27 130.88 197.10 130.01 197.08 128.97 L 197.05 127.94 C 197.03 126.90 196.16 126.07 195.12 126.10 C 194.07 126.12 193.24 126.99 193.27 128.03 Z M 193.30 129.07 L 193.33 130.07 C 193.36 131.11 194.24 131.93 195.28 131.90 C 196.32 131.86 197.14 130.99 197.11 129.95 L 197.07 128.95 C 197.04 127.91 196.17 127.09 195.12 127.12 C 194.08 127.16 193.26 128.03 193.30 129.07 Z M 193.33 130.08 L 193.37 131.06 C 193.41 132.10 194.28 132.92 195.33 132.88 C 196.37 132.84 197.18 131.96 197.14 130.92 L 197.10 129.94 C 197.06 128.89 196.19 128.08 195.15 128.12 C 194.10 128.16 193.29 129.04 193.33 130.08 Z M 193.37 131.07 L 193.41 132.05 C 193.45 133.09 194.33 133.90 195.37 133.86 C 196.41 133.82 197.22 132.94 197.18 131.90 L 197.14 130.92 C 197.10 129.88 196.22 129.07 195.18 129.11 C 194.14 129.15 193.33 130.02 193.37 131.07 Z M 193.41 132.06 L 193.45 133.05 C 193.50 134.09 194.38 134.89 195.42 134.85 C 196.45 134.80 197.26 133.93 197.22 132.89 L 197.17 131.89 C 197.13 130.86 196.25 130.05 195.21 130.09 C 194.17 130.14 193.37 131.02 193.41 132.06 Z M 193.46 133.06 L 193.51 134.07 C 193.56 135.10 194.45 135.90 195.49 135.85 C 196.52 135.79 197.32 134.91 197.27 133.87 L 197.21 132.87 C 197.16 131.83 196.27 131.03 195.24 131.09 C 194.20 131.14 193.40 132.03 193.46 133.06 Z M 193.51 134.10 L 193.58 135.11 C 193.65 136.14 194.55 136.92 195.58 136.85 C 196.62 136.78 197.40 135.89 197.33 134.85 L 197.26 133.84 C 197.19 132.81 196.30 132.02 195.26 132.09 C 194.22 132.16 193.44 133.06 193.51 134.10 Z M 193.59 135.14 L 193.67 136.13 C 193.76 137.17 194.67 137.93 195.70 137.84 C 196.74 137.76 197.50 136.85 197.41 135.81 L 197.33 134.82 C 197.24 133.79 196.33 133.02 195.30 133.11 C 194.26 133.20 193.50 134.11 193.59 135.14 Z M 193.67 136.15 L 193.77 137.15 C 193.87 138.18 194.79 138.94 195.82 138.84 C 196.85 138.74 197.61 137.82 197.51 136.79 L 197.41 135.79 C 197.31 134.76 196.39 134.01 195.36 134.11 C 194.33 134.21 193.57 135.12 193.67 136.15 Z M 193.77 137.16 L 193.87 138.15 C 193.97 139.18 194.89 139.94 195.92 139.83 C 196.95 139.73 197.71 138.81 197.60 137.78 L 197.50 136.79 C 197.40 135.76 196.48 135.00 195.45 135.11 C 194.42 135.21 193.67 136.13 193.77 137.16 Z M 193.87 138.14 L 193.96 139.14 C 194.06 140.17 194.98 140.93 196.01 140.83 C 197.04 140.73 197.79 139.82 197.70 138.79 L 197.60 137.79 C 197.51 136.76 196.59 136.01 195.56 136.10 C 194.53 136.20 193.77 137.11 193.87 138.14 Z M 193.97 139.13 L 194.05 140.12 C 194.15 141.15 195.06 141.91 196.09 141.82 C 197.12 141.73 197.88 140.82 197.78 139.79 L 197.70 138.80 C 197.60 137.77 196.69 137.01 195.66 137.10 C 194.63 137.19 193.87 138.10 193.97 139.13 Z M 194.06 140.13 L 194.15 141.12 C 194.24 142.15 195.15 142.91 196.18 142.81 C 197.21 142.72 197.97 141.81 197.87 140.78 L 197.78 139.78 C 197.69 138.76 196.78 138.00 195.75 138.09 C 194.72 138.19 193.96 139.10 194.06 140.13 Z M 194.15 141.15 L 194.26 142.14 C 194.36 143.17 195.28 143.91 196.31 143.81 C 197.34 143.70 198.08 142.78 197.98 141.75 L 197.87 140.76 C 197.76 139.73 196.84 138.98 195.82 139.09 C 194.79 139.20 194.04 140.12 194.15 141.15 Z M 194.26 142.17 L 194.38 143.14 C 194.50 144.17 195.44 144.90 196.46 144.77 C 197.49 144.65 198.21 143.71 198.09 142.69 L 197.97 141.72 C 197.85 140.70 196.91 139.97 195.89 140.09 C 194.86 140.22 194.14 141.15 194.26 142.17 Z M 194.38 143.16 L 194.51 144.14 C 194.64 145.17 195.58 145.89 196.61 145.75 C 197.63 145.62 198.35 144.68 198.22 143.65 L 198.09 142.67 C 197.95 141.65 197.01 140.93 195.99 141.06 C 194.97 141.20 194.25 142.14 194.38 143.16 Z M 194.51 144.14 L 194.64 145.15 C 194.78 146.17 195.72 146.89 196.74 146.76 C 197.76 146.62 198.48 145.68 198.35 144.66 L 198.22 143.65 C 198.08 142.63 197.14 141.91 196.12 142.05 C 195.10 142.18 194.38 143.12 194.51 144.14 Z M 194.64 145.13 L 194.77 146.15 C 194.89 147.17 195.83 147.90 196.85 147.77 C 197.88 147.64 198.60 146.71 198.48 145.69 L 198.35 144.67 C 198.22 143.65 197.29 142.92 196.27 143.05 C 195.24 143.18 194.51 144.11 194.64 145.13 Z M 194.77 146.13 L 194.88 147.13 C 195.00 148.16 195.93 148.89 196.95 148.77 C 197.98 148.66 198.71 147.73 198.59 146.71 L 198.48 145.70 C 198.36 144.68 197.43 143.94 196.41 144.06 C 195.38 144.18 194.65 145.10 194.77 146.13 Z M 194.88 147.13 L 194.99 148.13 C 195.11 149.16 196.03 149.89 197.06 149.78 C 198.08 149.66 198.82 148.74 198.71 147.71 L 198.59 146.71 C 198.48 145.69 197.55 144.95 196.53 145.06 C 195.50 145.18 194.77 146.10 194.88 147.13 Z M 194.99 148.14 L 195.11 149.13 C 195.23 150.15 196.16 150.88 197.18 150.76 C 198.21 150.65 198.94 149.72 198.82 148.69 L 198.70 147.71 C 198.59 146.68 197.66 145.95 196.63 146.07 C 195.61 146.19 194.88 147.12 194.99 148.14 Z M 195.11 149.15 L 195.24 150.15 C 195.37 151.18 196.31 151.90 197.33 151.77 C 198.35 151.63 199.08 150.70 198.95 149.68 L 198.82 148.67 C 198.69 147.65 197.75 146.93 196.73 147.06 C 195.70 147.19 194.98 148.12 195.11 149.15 Z M 195.25 150.18 L 195.39 151.18 C 195.54 152.20 196.48 152.91 197.50 152.77 C 198.52 152.62 199.23 151.67 199.09 150.65 L 198.94 149.65 C 198.80 148.63 197.85 147.92 196.83 148.07 C 195.81 148.21 195.10 149.16 195.25 150.18 Z M 195.39 151.20 L 195.54 152.18 C 195.70 153.19 196.65 153.89 197.67 153.74 C 198.69 153.58 199.39 152.63 199.23 151.61 L 199.08 150.63 C 198.93 149.62 197.97 148.92 196.95 149.07 C 195.93 149.23 195.24 150.18 195.39 151.20 Z M 195.54 152.19 L 195.70 153.15 C 195.86 154.17 196.82 154.86 197.83 154.70 C 198.85 154.54 199.55 153.58 199.38 152.56 L 199.23 151.60 C 199.07 150.58 198.11 149.89 197.09 150.05 C 196.08 150.21 195.38 151.17 195.54 152.19 Z M 195.70 153.15 L 195.86 154.14 C 196.02 155.15 196.97 155.85 197.99 155.69 C 199.01 155.52 199.70 154.57 199.54 153.55 L 199.38 152.56 C 199.22 151.54 198.26 150.85 197.25 151.01 C 196.23 151.17 195.54 152.13 195.70 153.15 Z M 195.85 154.13 L 196.01 155.12 C 196.17 156.14 197.12 156.83 198.14 156.67 C 199.16 156.52 199.85 155.56 199.69 154.54 L 199.54 153.56 C 199.38 152.54 198.43 151.84 197.41 152.00 C 196.39 152.16 195.70 153.11 195.85 154.13 Z M 196.01 155.10 L 196.15 156.09 C 196.30 157.11 197.25 157.82 198.27 157.66 C 199.29 157.51 199.99 156.57 199.84 155.55 L 199.70 154.56 C 199.55 153.54 198.60 152.84 197.58 152.99 C 196.56 153.14 195.86 154.08 196.01 155.10 Z M 196.15 156.07 L 196.29 157.06 C 196.43 158.08 197.37 158.80 198.39 158.66 C 199.41 158.52 200.12 157.58 199.98 156.56 L 199.85 155.57 C 199.70 154.55 198.76 153.83 197.74 153.97 C 196.72 154.11 196.01 155.05 196.15 156.07 Z M 196.28 157.05 L 196.41 158.04 C 196.54 159.06 197.48 159.78 198.50 159.65 C 199.52 159.52 200.24 158.59 200.11 157.57 L 199.98 156.57 C 199.85 155.55 198.92 154.83 197.90 154.96 C 196.88 155.09 196.15 156.03 196.28 157.05 Z M 196.41 158.03 L 196.53 159.02 C 196.66 160.04 197.59 160.77 198.61 160.64 C 199.63 160.52 200.36 159.59 200.23 158.57 L 200.11 157.58 C 199.99 156.55 199.06 155.83 198.03 155.95 C 197.01 156.08 196.29 157.01 196.41 158.03 Z M 196.53 159.02 L 196.65 160.01 C 196.77 161.03 197.70 161.76 198.72 161.64 C 199.75 161.51 200.47 160.59 200.35 159.56 L 200.23 158.57 C 200.11 157.55 199.18 156.82 198.16 156.94 C 197.14 157.07 196.41 157.99 196.53 159.02 Z M 196.65 160.01 L 196.77 161.00 C 196.89 162.02 197.82 162.75 198.84 162.63 C 199.86 162.51 200.59 161.58 200.47 160.56 L 200.35 159.57 C 200.23 158.54 199.30 157.81 198.28 157.94 C 197.26 158.06 196.53 158.99 196.65 160.01 Z M 196.77 161.00 L 196.89 161.99 C 197.01 163.02 197.94 163.74 198.96 163.62 C 199.98 163.50 200.71 162.57 200.59 161.55 L 200.47 160.56 C 200.35 159.54 199.42 158.81 198.40 158.93 C 197.38 159.05 196.65 159.98 196.77 161.00 Z M 196.89 161.99 L 197.01 162.99 C 197.13 164.01 198.06 164.74 199.08 164.61 C 200.10 164.49 200.83 163.56 200.71 162.54 L 200.59 161.55 C 200.47 160.53 199.54 159.80 198.52 159.92 C 197.50 160.05 196.77 160.97 196.89 161.99 Z M 197.01 162.99 L 197.13 163.96 C 197.25 164.98 198.17 165.70 199.20 165.58 C 200.22 165.46 200.94 164.53 200.82 163.51 L 200.71 162.54 C 200.58 161.52 199.66 160.79 198.64 160.92 C 197.62 161.04 196.89 161.96 197.01 162.99 Z M 197.13 163.95 L 197.24 164.94 C 197.36 165.96 198.29 166.69 199.31 166.57 C 200.33 166.45 201.06 165.52 200.94 164.50 L 200.82 163.52 C 200.70 162.50 199.78 161.77 198.76 161.89 C 197.74 162.01 197.01 162.93 197.13 163.95 Z M 197.24 164.93 L 197.36 165.94 C 197.48 166.96 198.40 167.69 199.42 167.58 C 200.44 167.46 201.17 166.54 201.05 165.52 L 200.94 164.51 C 200.82 163.49 199.90 162.75 198.88 162.87 C 197.86 162.99 197.13 163.91 197.24 164.93 Z M 197.36 165.93 L 197.46 166.87 C 197.58 167.89 198.49 168.63 199.51 168.51 C 200.53 168.40 201.27 167.48 201.16 166.46 L 201.05 165.53 C 200.94 164.51 200.02 163.77 199.00 163.88 C 197.98 164.00 197.25 164.91 197.36 165.93 Z M 197.46 166.86 L 197.56 167.78 C 197.66 168.80 198.58 169.54 199.60 169.43 C 200.62 169.32 201.36 168.41 201.25 167.39 L 201.16 166.48 C 201.05 165.46 200.14 164.71 199.12 164.82 C 198.10 164.93 197.36 165.84 197.46 166.86 Z M 197.56 167.76 L 197.65 168.74 C 197.75 169.76 198.65 170.51 199.67 170.42 C 200.69 170.32 201.44 169.42 201.34 168.40 L 201.25 167.41 C 201.16 166.39 200.25 165.64 199.23 165.74 C 198.21 165.83 197.46 166.74 197.56 167.76 Z M 197.65 168.72 L 197.74 169.80 C 197.82 170.82 198.71 171.58 199.73 171.49 C 200.75 171.41 201.51 170.52 201.43 169.50 L 201.34 168.42 C 201.26 167.40 200.37 166.64 199.35 166.72 C 198.33 166.81 197.57 167.70 197.65 168.72 Z M 197.74 169.77 L 197.81 170.81 C 197.88 171.83 198.76 172.60 199.78 172.53 C 200.80 172.46 201.57 171.58 201.50 170.55 L 201.43 169.52 C 201.36 168.50 200.48 167.73 199.46 167.80 C 198.44 167.87 197.67 168.75 197.74 169.77 Z M 197.81 170.79 L 197.86 171.74 C 197.92 172.76 198.80 173.54 199.82 173.48 C 200.84 173.42 201.62 172.55 201.56 171.53 L 201.50 170.57 C 201.44 169.55 200.57 168.77 199.55 168.83 C 198.53 168.89 197.75 169.77 197.81 170.79 Z M 197.86 171.73 L 197.91 172.73 C 197.96 173.75 198.83 174.53 199.85 174.48 C 200.87 174.43 201.66 173.56 201.61 172.54 L 201.56 171.54 C 201.51 170.52 200.64 169.74 199.62 169.79 C 198.60 169.84 197.81 170.71 197.86 171.73 Z M 197.91 172.71 L 197.96 173.74 C 198.00 174.76 198.86 175.55 199.88 175.51 C 200.90 175.46 201.69 174.60 201.65 173.58 L 201.61 172.56 C 201.56 171.54 200.70 170.75 199.68 170.79 C 198.66 170.83 197.87 171.69 197.91 172.71 Z M 197.96 173.73 L 198.00 174.76 C 198.03 175.78 198.89 176.58 199.91 176.54 C 200.92 176.50 201.72 175.65 201.69 174.63 L 201.65 173.60 C 201.61 172.58 200.76 171.78 199.74 171.81 C 198.72 171.85 197.92 172.71 197.96 173.73 Z M 198.00 174.75 L 198.02 175.77 C 198.05 176.79 198.90 177.59 199.92 177.56 C 200.94 177.54 201.74 176.69 201.71 175.67 L 201.69 174.64 C 201.66 173.62 200.81 172.82 199.79 172.85 C 198.77 172.88 197.97 173.73 198.00 174.75 Z M 198.03 175.76 L 198.05 176.81 C 198.07 177.83 198.91 178.64 199.93 178.62 C 200.94 178.60 201.75 177.75 201.73 176.74 L 201.71 175.68 C 201.69 174.67 200.85 173.86 199.83 173.88 C 198.81 173.90 198.01 174.74 198.03 175.76 Z M 198.05 176.80 L 198.06 177.82 C 198.08 178.84 198.91 179.65 199.93 179.64 C 200.94 179.63 201.76 178.79 201.74 177.78 L 201.73 176.75 C 201.72 175.73 200.88 174.92 199.87 174.93 C 198.85 174.95 198.04 175.78 198.05 176.80 Z M 198.06 177.81 L 198.07 178.81 C 198.08 179.83 198.91 180.64 199.92 180.64 C 200.94 180.63 201.75 179.80 201.75 178.79 L 201.74 177.79 C 201.73 176.77 200.91 175.95 199.89 175.96 C 198.87 175.97 198.06 176.80 198.06 177.81 Z M 198.07 178.80 L 198.08 179.78 C 198.08 180.80 198.90 181.61 199.92 181.61 C 200.93 181.61 201.75 180.78 201.75 179.77 L 201.74 178.79 C 201.74 177.78 200.92 176.96 199.90 176.96 C 198.89 176.97 198.07 177.79 198.07 178.80 Z M 198.08 179.78 L 198.08 180.73 C 198.08 181.74 198.90 182.56 199.91 182.56 C 200.93 182.56 201.75 181.74 201.75 180.73 L 201.74 179.78 C 201.74 178.76 200.92 177.94 199.91 177.94 C 198.90 177.94 198.08 178.77 198.08 179.78 Z M 198.08 180.73 L 198.08 181.74 C 198.08 182.76 198.90 183.57 199.91 183.58 C 200.92 183.58 201.74 182.76 201.74 181.75 L 201.74 180.73 C 201.74 179.72 200.93 178.90 199.92 178.90 C 198.90 178.90 198.08 179.72 198.08 180.73 Z M 198.09 181.72 L 198.07 182.74 C 198.06 183.75 198.87 184.58 199.88 184.59 C 200.89 184.60 201.71 183.79 201.72 182.78 L 201.74 181.77 C 201.75 180.76 200.94 179.93 199.93 179.92 C 198.93 179.91 198.10 180.72 198.09 181.72 Z M 198.08 182.69 L 198.04 183.69 C 198.00 184.70 198.79 185.54 199.79 185.58 C 200.80 185.62 201.64 184.83 201.68 183.83 L 201.72 182.83 C 201.76 181.83 200.97 180.98 199.97 180.94 C 198.96 180.90 198.12 181.69 198.08 182.69 Z M 198.05 183.62 L 197.97 184.60 C 197.90 185.60 198.64 186.47 199.64 186.55 C 200.64 186.63 201.52 185.88 201.60 184.88 L 201.67 183.90 C 201.75 182.90 201.00 182.03 200.00 181.95 C 199.00 181.87 198.13 182.62 198.05 183.62 Z M 197.99 184.50 L 197.86 185.47 C 197.73 186.46 198.42 187.37 199.41 187.50 C 200.41 187.64 201.32 186.94 201.45 185.95 L 201.58 184.98 C 201.72 183.99 201.02 183.08 200.03 182.94 C 199.04 182.81 198.12 183.50 197.99 184.50 Z M 197.89 185.35 L 197.68 186.35 C 197.48 187.32 198.11 188.28 199.09 188.48 C 200.07 188.68 201.02 188.05 201.22 187.07 L 201.42 186.07 C 201.62 185.09 200.99 184.14 200.02 183.94 C 199.04 183.74 198.09 184.37 197.89 185.35 Z M 197.72 186.23 L 197.45 187.21 C 197.19 188.17 197.75 189.16 198.71 189.42 C 199.66 189.68 200.65 189.12 200.92 188.16 L 201.18 187.18 C 201.45 186.23 200.88 185.24 199.93 184.97 C 198.97 184.71 197.98 185.28 197.72 186.23 Z M 197.49 187.11 L 197.17 188.05 C 196.85 188.99 197.35 190.01 198.28 190.33 C 199.22 190.65 200.23 190.15 200.55 189.21 L 200.88 188.26 C 201.20 187.33 200.70 186.31 199.76 185.99 C 198.82 185.67 197.81 186.17 197.49 187.11 Z M 197.21 187.96 L 196.84 188.87 C 196.47 189.78 196.91 190.82 197.82 191.19 C 198.73 191.56 199.77 191.12 200.14 190.21 L 200.51 189.30 C 200.88 188.39 200.44 187.35 199.53 186.98 C 198.62 186.61 197.58 187.05 197.21 187.96 Z M 196.89 188.77 L 196.44 189.71 C 196.02 190.59 196.40 191.65 197.28 192.07 C 198.16 192.49 199.22 192.12 199.64 191.24 L 200.09 190.30 C 200.51 189.42 200.14 188.36 199.25 187.94 C 198.37 187.52 197.31 187.89 196.89 188.77 Z M 196.51 189.61 L 196.00 190.52 C 195.52 191.37 195.82 192.44 196.67 192.92 C 197.52 193.39 198.59 193.09 199.07 192.25 L 199.58 191.34 C 200.05 190.49 199.75 189.42 198.90 188.94 C 198.06 188.47 196.99 188.77 196.51 189.61 Z M 196.08 190.42 L 195.53 191.24 C 195.00 192.05 195.22 193.13 196.02 193.66 C 196.82 194.20 197.90 193.98 198.44 193.18 L 198.98 192.35 C 199.52 191.55 199.30 190.47 198.50 189.93 C 197.70 189.40 196.61 189.62 196.08 190.42 Z M 195.63 191.13 L 195.05 191.86 C 194.45 192.61 194.58 193.70 195.32 194.29 C 196.07 194.89 197.16 194.77 197.75 194.02 L 198.34 193.29 C 198.93 192.54 198.81 191.45 198.06 190.86 C 197.31 190.26 196.23 190.39 195.63 191.13 Z M 195.19 191.73 L 194.51 192.42 C 193.84 193.09 193.85 194.17 194.52 194.84 C 195.19 195.51 196.27 195.50 196.94 194.83 L 197.62 194.15 C 198.28 193.47 198.28 192.39 197.61 191.72 C 196.94 191.06 195.85 191.06 195.19 191.73 Z M 194.72 192.26 L 193.95 192.83 C 193.20 193.39 193.04 194.45 193.59 195.20 C 194.15 195.95 195.21 196.11 195.96 195.55 L 196.73 194.98 C 197.48 194.43 197.64 193.37 197.08 192.62 C 196.53 191.87 195.47 191.71 194.72 192.26 Z M 194.22 192.70 L 193.32 193.13 C 192.50 193.54 192.15 194.54 192.56 195.36 C 192.96 196.19 193.96 196.54 194.79 196.13 L 195.68 195.69 C 196.51 195.29 196.85 194.29 196.45 193.46 C 196.05 192.63 195.05 192.29 194.22 192.70 Z M 193.59 193.05 L 192.61 193.34 C 191.74 193.60 191.24 194.51 191.50 195.39 C 191.76 196.26 192.67 196.76 193.54 196.50 L 194.52 196.21 C 195.39 195.95 195.89 195.04 195.64 194.17 C 195.38 193.29 194.46 192.79 193.59 193.05 Z M 192.81 193.31 L 191.85 193.47 C 190.96 193.62 190.36 194.46 190.51 195.35 C 190.66 196.24 191.50 196.84 192.39 196.69 L 193.35 196.53 C 194.23 196.38 194.83 195.54 194.69 194.65 C 194.54 193.76 193.70 193.16 192.81 193.31 Z M 192.00 193.47 L 190.99 193.54 C 190.09 193.61 189.43 194.38 189.49 195.27 C 189.55 196.16 190.33 196.83 191.22 196.77 L 192.24 196.69 C 193.13 196.63 193.80 195.85 193.73 194.96 C 193.67 194.07 192.89 193.40 192.00 193.47 Z M 191.13 193.55 L 190.10 193.53 C 189.21 193.52 188.48 194.23 188.47 195.11 C 188.45 196.00 189.16 196.73 190.04 196.74 L 191.08 196.76 C 191.96 196.77 192.69 196.07 192.70 195.18 C 192.72 194.30 192.01 193.57 191.13 193.55 Z M 190.25 193.56 L 189.25 193.44 C 188.38 193.35 187.59 193.97 187.49 194.85 C 187.39 195.72 188.02 196.50 188.89 196.60 L 189.89 196.72 C 190.76 196.82 191.55 196.19 191.65 195.32 C 191.75 194.44 191.12 193.66 190.25 193.56 Z M 189.42 193.48 L 188.46 193.26 C 187.61 193.07 186.76 193.60 186.57 194.45 C 186.37 195.30 186.91 196.15 187.76 196.34 L 188.72 196.56 C 189.57 196.76 190.41 196.23 190.61 195.38 C 190.80 194.53 190.27 193.68 189.42 193.48 Z M 188.64 193.32 L 187.72 193.00 C 186.91 192.71 186.01 193.14 185.71 193.96 C 185.42 194.78 185.85 195.68 186.67 195.97 L 187.58 196.29 C 188.40 196.58 189.30 196.15 189.59 195.33 C 189.88 194.51 189.46 193.61 188.64 193.32 Z M 187.87 193.06 L 186.97 192.64 C 186.19 192.27 185.25 192.61 184.88 193.39 C 184.51 194.18 184.85 195.11 185.64 195.48 L 186.53 195.90 C 187.31 196.27 188.25 195.93 188.62 195.15 C 188.99 194.37 188.65 193.43 187.87 193.06 Z M 187.07 192.70 L 186.16 192.18 C 185.41 191.76 184.46 192.02 184.03 192.77 C 183.60 193.52 183.87 194.48 184.62 194.90 L 185.53 195.42 C 186.28 195.85 187.24 195.58 187.66 194.83 C 188.09 194.08 187.83 193.12 187.07 192.70 Z M 186.22 192.22 L 185.39 191.69 C 184.66 191.23 183.69 191.45 183.23 192.18 C 182.77 192.91 182.99 193.88 183.72 194.34 L 184.56 194.86 C 185.29 195.32 186.25 195.10 186.71 194.38 C 187.17 193.65 186.95 192.68 186.22 192.22 Z M 185.42 191.72 L 184.58 191.15 C 183.86 190.67 182.89 190.86 182.41 191.58 C 181.93 192.29 182.12 193.26 182.84 193.74 L 183.68 194.31 C 184.40 194.79 185.37 194.60 185.85 193.89 C 186.33 193.17 186.14 192.20 185.42 191.72 Z M 184.60 191.17 L 183.76 190.58 C 183.06 190.08 182.08 190.25 181.59 190.96 C 181.09 191.66 181.26 192.64 181.97 193.13 L 182.81 193.72 C 183.52 194.22 184.49 194.05 184.99 193.34 C 185.48 192.64 185.31 191.66 184.60 191.17 Z M 183.78 190.59 L 182.96 190.00 C 182.26 189.50 181.29 189.65 180.78 190.35 C 180.28 191.05 180.44 192.02 181.13 192.53 L 181.95 193.12 C 182.65 193.63 183.63 193.47 184.13 192.77 C 184.64 192.07 184.48 191.10 183.78 190.59 Z M 182.97 190.01 L 182.19 189.43 C 181.49 188.92 180.52 189.07 180.01 189.76 C 179.49 190.45 179.64 191.43 180.34 191.94 L 181.12 192.52 C 181.82 193.03 182.79 192.89 183.30 192.19 C 183.82 191.50 183.67 190.52 182.97 190.01 Z M 182.20 189.43 L 181.31 188.78 C 180.62 188.26 179.65 188.40 179.13 189.09 C 178.61 189.78 178.75 190.76 179.44 191.28 L 180.33 191.94 C 181.02 192.45 182.00 192.31 182.51 191.62 C 183.03 190.93 182.89 189.95 182.20 189.43 Z M 181.33 188.78 L 180.53 188.17 C 179.84 187.65 178.86 187.78 178.34 188.47 C 177.82 189.15 177.95 190.13 178.63 190.66 L 179.43 191.27 C 180.12 191.79 181.10 191.66 181.62 190.97 C 182.14 190.29 182.01 189.31 181.33 188.78 Z M 180.55 188.19 L 179.81 187.61 C 179.13 187.07 178.15 187.19 177.61 187.87 C 177.08 188.55 177.20 189.53 177.88 190.06 L 178.61 190.64 C 179.29 191.17 180.27 191.06 180.81 190.38 C 181.34 189.70 181.22 188.72 180.55 188.19 Z M 179.83 187.63 L 179.10 187.03 C 178.44 186.48 177.45 186.58 176.91 187.25 C 176.36 187.92 176.46 188.90 177.13 189.45 L 177.85 190.04 C 178.52 190.59 179.50 190.49 180.05 189.82 C 180.59 189.16 180.50 188.17 179.83 187.63 Z M 179.13 187.05 L 178.36 186.40 C 177.71 185.84 176.72 185.92 176.16 186.57 C 175.60 187.23 175.68 188.21 176.34 188.77 L 177.10 189.43 C 177.76 189.99 178.74 189.91 179.30 189.25 C 179.86 188.59 179.78 187.61 179.13 187.05 Z M 178.38 186.41 L 177.63 185.76 C 176.98 185.19 176.00 185.25 175.43 185.90 C 174.86 186.55 174.92 187.53 175.57 188.10 L 176.32 188.76 C 176.97 189.33 177.95 189.26 178.52 188.62 C 179.09 187.97 179.03 186.98 178.38 186.41 Z M 177.64 185.76 L 176.90 185.10 C 176.25 184.53 175.27 184.58 174.69 185.23 C 174.12 185.87 174.17 186.86 174.82 187.43 L 175.56 188.09 C 176.20 188.67 177.19 188.61 177.76 187.97 C 178.34 187.32 178.28 186.34 177.64 185.76 Z M 176.90 185.10 L 176.82 185.03 C 176.17 184.46 175.19 184.51 174.61 185.15 C 174.04 185.79 174.09 186.78 174.74 187.36 L 174.82 187.43 C 175.46 188.00 176.45 187.95 177.02 187.31 C 177.60 186.66 177.54 185.68 176.90 185.10 Z"
      fill="black"
      fill-rule="nonzero" /><path d="M 157.79 136.00 L 158.79 135.81 C 159.72 135.64 160.33 134.75 160.16 133.82 C 159.99 132.90 159.10 132.28 158.17 132.46 L 157.16 132.64 C 156.24 132.82 155.62 133.71 155.80 134.63 C 155.97 135.56 156.86 136.17 157.79 136.00 Z M 158.78 135.83 L 159.78 135.65 C 160.72 135.49 161.34 134.59 161.17 133.66 C 161.01 132.72 160.12 132.10 159.18 132.26 L 158.18 132.44 C 157.25 132.61 156.62 133.50 156.79 134.43 C 156.95 135.37 157.85 135.99 158.78 135.83 Z M 159.75 135.67 L 160.74 135.51 C 161.68 135.36 162.33 134.48 162.18 133.53 C 162.03 132.59 161.14 131.94 160.20 132.09 L 159.21 132.25 C 158.27 132.40 157.62 133.28 157.77 134.23 C 157.92 135.17 158.81 135.82 159.75 135.67 Z M 160.69 135.53 L 161.65 135.41 C 162.61 135.29 163.28 134.41 163.16 133.46 C 163.04 132.50 162.17 131.83 161.21 131.95 L 160.25 132.07 C 159.29 132.19 158.61 133.07 158.74 134.02 C 158.86 134.98 159.73 135.66 160.69 135.53 Z M 161.58 135.41 L 162.57 135.32 C 163.53 135.24 164.23 134.40 164.15 133.44 C 164.07 132.49 163.23 131.78 162.27 131.86 L 161.28 131.95 C 160.33 132.03 159.62 132.87 159.70 133.83 C 159.78 134.79 160.63 135.49 161.58 135.41 Z M 162.50 135.30 L 163.48 135.25 C 164.43 135.21 165.15 134.41 165.11 133.47 C 165.06 132.53 164.27 131.80 163.32 131.84 L 162.34 131.89 C 161.40 131.93 160.67 132.73 160.72 133.67 C 160.76 134.61 161.56 135.34 162.50 135.30 Z M 163.44 135.22 L 164.42 135.20 C 165.35 135.18 166.08 134.42 166.06 133.50 C 166.05 132.58 165.28 131.84 164.36 131.86 L 163.37 131.88 C 162.45 131.90 161.72 132.66 161.74 133.58 C 161.75 134.50 162.51 135.23 163.44 135.22 Z M 164.40 135.16 L 165.42 135.16 C 166.32 135.15 167.04 134.42 167.04 133.52 C 167.04 132.62 166.31 131.89 165.40 131.89 L 164.39 131.90 C 163.49 131.90 162.76 132.63 162.76 133.53 C 162.77 134.44 163.50 135.16 164.40 135.16 Z M 165.41 135.13 L 166.38 135.13 C 167.27 135.13 167.99 134.41 167.99 133.53 C 167.99 132.64 167.27 131.92 166.38 131.92 L 165.41 131.92 C 164.52 131.92 163.80 132.64 163.80 133.53 C 163.80 134.41 164.52 135.13 165.41 135.13 Z M 166.38 135.12 L 167.37 135.12 C 168.25 135.12 168.97 134.41 168.97 133.53 C 168.97 132.65 168.25 131.93 167.37 131.93 L 166.38 131.93 C 165.50 131.93 164.79 132.65 164.79 133.53 C 164.79 134.41 165.50 135.12 166.38 135.12 Z M 167.37 135.11 L 168.38 135.11 C 169.26 135.11 169.97 134.40 169.97 133.53 C 169.97 132.65 169.26 131.94 168.38 131.94 L 167.37 131.94 C 166.50 131.94 165.79 132.65 165.79 133.53 C 165.79 134.40 166.50 135.11 167.37 135.11 Z M 168.38 135.10 L 169.41 135.10 C 170.27 135.10 170.98 134.40 170.98 133.53 C 170.98 132.66 170.27 131.95 169.41 131.95 L 168.38 131.95 C 167.51 131.95 166.81 132.66 166.81 133.53 C 166.81 134.40 167.51 135.10 168.38 135.10 Z M 169.41 135.09 L 170.44 135.09 C 171.31 135.09 172.01 134.39 172.01 133.53 C 172.01 132.66 171.31 131.96 170.44 131.96 L 169.41 131.96 C 168.54 131.96 167.84 132.66 167.84 133.53 C 167.84 134.39 168.54 135.09 169.41 135.09 Z M 170.44 135.09 L 171.48 135.09 C 172.34 135.09 173.04 134.39 173.04 133.53 C 173.04 132.66 172.34 131.96 171.48 131.96 L 170.44 131.96 C 169.58 131.96 168.88 132.66 168.88 133.53 C 168.88 134.39 169.58 135.09 170.44 135.09 Z M 171.48 135.09 L 172.49 135.09 C 173.35 135.09 174.05 134.39 174.05 133.53 C 174.05 132.66 173.35 131.96 172.49 131.96 L 171.48 131.96 C 170.62 131.96 169.92 132.66 169.92 133.53 C 169.92 134.39 170.62 135.09 171.48 135.09 Z M 172.49 135.09 L 173.47 135.09 C 174.33 135.09 175.03 134.39 175.03 133.53 C 175.03 132.66 174.33 131.96 173.47 131.96 L 172.49 131.96 C 171.63 131.96 170.93 132.66 170.93 133.53 C 170.93 134.39 171.63 135.09 172.49 135.09 Z M 173.47 135.09 L 174.44 135.09 C 175.30 135.09 176.00 134.39 176.00 133.53 C 176.00 132.66 175.30 131.96 174.44 131.96 L 173.47 131.96 C 172.60 131.96 171.90 132.66 171.90 133.53 C 171.90 134.39 172.60 135.09 173.47 135.09 Z M 174.44 135.09 L 175.48 135.09 C 176.35 135.09 177.04 134.39 177.04 133.53 C 177.04 132.66 176.35 131.97 175.48 131.97 L 174.44 131.97 C 173.58 131.97 172.88 132.66 172.88 133.53 C 172.88 134.39 173.58 135.09 174.44 135.09 Z M 175.48 135.09 L 176.47 135.09 C 177.33 135.09 178.03 134.39 178.03 133.53 C 178.03 132.66 177.33 131.97 176.47 131.97 L 175.48 131.97 C 174.62 131.97 173.92 132.66 173.92 133.53 C 173.92 134.39 174.62 135.09 175.48 135.09 Z M 176.47 135.09 L 177.43 135.09 C 178.29 135.09 178.99 134.39 178.99 133.53 C 178.99 132.66 178.29 131.97 177.43 131.97 L 176.47 131.97 C 175.61 131.97 174.91 132.66 174.91 133.53 C 174.91 134.39 175.61 135.09 176.47 135.09 Z M 177.43 135.09 L 177.63 135.09 C 178.49 135.09 179.19 134.39 179.19 133.53 C 179.19 132.66 178.49 131.97 177.63 131.97 L 177.43 131.97 C 176.56 131.97 175.87 132.66 175.87 133.53 C 175.87 134.39 176.56 135.09 177.43 135.09 Z"
      fill="black"
      fill-rule="nonzero" /><path d="M 159.15 160.31 L 159.07 161.31 C 158.99 162.29 159.72 163.15 160.70 163.23 C 161.68 163.31 162.54 162.58 162.62 161.60 L 162.70 160.60 C 162.78 159.62 162.05 158.76 161.07 158.68 C 160.08 158.60 159.22 159.33 159.15 160.31 Z M 159.07 161.30 L 158.98 162.30 C 158.90 163.28 159.63 164.14 160.61 164.23 C 161.59 164.31 162.45 163.58 162.54 162.60 L 162.62 161.60 C 162.70 160.62 161.97 159.76 160.99 159.68 C 160.01 159.59 159.15 160.32 159.07 161.30 Z M 158.98 162.29 L 158.89 163.28 C 158.80 164.26 159.52 165.13 160.51 165.22 C 161.49 165.31 162.35 164.59 162.44 163.61 L 162.53 162.61 C 162.62 161.63 161.90 160.76 160.92 160.67 C 159.94 160.58 159.07 161.31 158.98 162.29 Z M 158.89 163.27 L 158.77 164.51 C 158.68 165.49 159.40 166.36 160.38 166.46 C 161.36 166.55 162.23 165.83 162.33 164.85 L 162.45 163.62 C 162.54 162.63 161.82 161.76 160.84 161.67 C 159.86 161.57 158.98 162.29 158.89 163.27 Z M 158.76 164.70 L 158.77 165.71 C 158.78 166.70 159.59 167.50 160.58 167.48 C 161.57 167.47 162.36 166.66 162.35 165.67 L 162.34 164.66 C 162.33 163.67 161.52 162.87 160.53 162.89 C 159.54 162.90 158.75 163.71 158.76 164.70 Z M 159.73 167.29 L 160.08 167.47 C 160.96 167.93 162.04 167.59 162.50 166.71 C 162.96 165.82 162.62 164.74 161.74 164.28 L 161.39 164.10 C 160.51 163.64 159.42 163.98 158.96 164.86 C 158.50 165.74 158.85 166.83 159.73 167.29 Z M 162.11 167.22 L 162.69 166.70 C 163.43 166.04 163.50 164.90 162.83 164.16 C 162.17 163.42 161.03 163.35 160.29 164.01 L 159.71 164.53 C 158.97 165.19 158.90 166.33 159.56 167.07 C 160.22 167.82 161.36 167.88 162.11 167.22 Z M 162.87 166.52 L 163.60 165.65 C 164.24 164.89 164.15 163.75 163.38 163.11 C 162.62 162.47 161.49 162.56 160.84 163.32 L 160.11 164.20 C 159.47 164.96 159.56 166.09 160.33 166.74 C 161.09 167.38 162.22 167.28 162.87 166.52 Z M 163.63 165.61 L 164.39 164.65 C 165.01 163.87 164.88 162.74 164.11 162.12 C 163.33 161.50 162.20 161.63 161.58 162.41 L 160.81 163.36 C 160.19 164.14 160.32 165.28 161.10 165.89 C 161.88 166.51 163.01 166.38 163.63 165.61 Z M 164.37 164.66 L 165.04 163.85 C 165.66 163.09 165.55 161.96 164.79 161.33 C 164.03 160.70 162.90 160.82 162.27 161.58 L 161.60 162.39 C 160.98 163.15 161.09 164.28 161.85 164.91 C 162.61 165.54 163.74 165.43 164.37 164.66 Z M 165.00 163.87 L 165.63 163.12 C 166.27 162.38 166.18 161.26 165.44 160.63 C 164.70 159.99 163.58 160.08 162.94 160.82 L 162.31 161.56 C 161.67 162.31 161.76 163.42 162.50 164.06 C 163.24 164.69 164.36 164.61 165.00 163.87 Z M 165.60 163.13 L 166.24 162.41 C 166.88 161.68 166.81 160.58 166.09 159.94 C 165.36 159.30 164.25 159.37 163.61 160.09 L 162.98 160.81 C 162.34 161.54 162.41 162.64 163.13 163.28 C 163.85 163.92 164.96 163.86 165.60 163.13 Z M 166.22 162.41 L 166.86 161.69 C 167.49 160.98 167.43 159.89 166.72 159.25 C 166.01 158.61 164.91 158.67 164.28 159.38 L 163.64 160.10 C 163.00 160.81 163.06 161.90 163.77 162.54 C 164.48 163.18 165.58 163.12 166.22 162.41 Z M 166.84 161.68 L 167.50 160.95 C 168.13 160.25 168.07 159.17 167.37 158.54 C 166.67 157.90 165.59 157.96 164.96 158.66 L 164.30 159.39 C 163.66 160.09 163.72 161.17 164.42 161.81 C 165.12 162.44 166.20 162.39 166.84 161.68 Z M 167.48 160.95 L 168.16 160.19 C 168.79 159.50 168.74 158.43 168.05 157.80 C 167.36 157.17 166.29 157.22 165.66 157.91 L 164.98 158.67 C 164.35 159.36 164.40 160.43 165.09 161.06 C 165.78 161.69 166.85 161.64 167.48 160.95 Z M 168.14 160.19 L 168.84 159.43 C 169.47 158.75 169.42 157.69 168.75 157.07 C 168.07 156.44 167.01 156.48 166.38 157.16 L 165.68 157.92 C 165.06 158.60 165.10 159.66 165.78 160.28 C 166.46 160.91 167.51 160.87 168.14 160.19 Z M 168.82 159.42 L 169.49 158.70 C 170.12 158.04 170.08 156.99 169.41 156.37 C 168.75 155.74 167.70 155.78 167.07 156.45 L 166.40 157.16 C 165.78 157.83 165.82 158.88 166.48 159.50 C 167.15 160.13 168.20 160.09 168.82 159.42 Z M 169.48 158.70 L 170.16 157.98 C 170.78 157.31 170.75 156.28 170.09 155.65 C 169.43 155.03 168.39 155.07 167.77 155.73 L 167.09 156.45 C 166.47 157.11 166.50 158.15 167.16 158.77 C 167.82 159.39 168.86 159.36 169.48 158.70 Z M 170.15 157.97 L 170.84 157.23 C 171.46 156.58 171.42 155.55 170.77 154.93 C 170.11 154.32 169.08 154.35 168.47 155.00 L 167.78 155.74 C 167.16 156.39 167.19 157.42 167.85 158.04 C 168.51 158.65 169.54 158.62 170.15 157.97 Z M 170.83 157.22 L 171.53 156.48 C 172.13 155.83 172.10 154.81 171.45 154.20 C 170.80 153.59 169.77 153.62 169.16 154.28 L 168.47 155.01 C 167.87 155.67 167.90 156.69 168.55 157.30 C 169.20 157.91 170.23 157.87 170.83 157.22 Z M 171.52 156.47 L 172.19 155.75 C 172.79 155.10 172.75 154.08 172.10 153.48 C 171.45 152.88 170.44 152.92 169.83 153.57 L 169.17 154.29 C 168.57 154.94 168.61 155.95 169.26 156.56 C 169.91 157.16 170.92 157.12 171.52 156.47 Z M 172.19 155.74 L 172.86 155.01 C 173.46 154.36 173.41 153.35 172.76 152.75 C 172.12 152.16 171.11 152.20 170.51 152.85 L 169.84 153.58 C 169.24 154.23 169.28 155.24 169.93 155.83 C 170.58 156.43 171.59 156.39 172.19 155.74 Z M 172.85 155.00 L 173.54 154.25 C 174.13 153.61 174.08 152.60 173.44 152.01 C 172.79 151.42 171.79 151.46 171.20 152.11 L 170.52 152.85 C 169.92 153.50 169.97 154.50 170.61 155.10 C 171.26 155.69 172.26 155.64 172.85 155.00 Z M 173.53 154.25 L 174.22 153.49 C 174.81 152.85 174.76 151.85 174.12 151.27 C 173.48 150.68 172.48 150.72 171.89 151.37 L 171.20 152.12 C 170.62 152.76 170.66 153.76 171.30 154.35 C 171.95 154.93 172.94 154.89 173.53 154.25 Z M 174.21 153.49 L 174.88 152.76 C 175.47 152.12 175.42 151.13 174.78 150.54 C 174.14 149.95 173.15 150.00 172.56 150.64 L 171.90 151.37 C 171.31 152.01 171.35 153.00 171.99 153.59 C 172.63 154.17 173.63 154.13 174.21 153.49 Z M 174.88 152.76 L 175.55 152.02 C 176.14 151.38 176.10 150.39 175.46 149.81 C 174.82 149.22 173.83 149.26 173.24 149.90 L 172.57 150.64 C 171.98 151.28 172.03 152.27 172.66 152.86 C 173.30 153.44 174.29 153.40 174.88 152.76 Z M 175.55 152.02 L 176.23 151.28 C 176.81 150.64 176.77 149.65 176.13 149.07 C 175.50 148.48 174.51 148.53 173.92 149.16 L 173.24 149.90 C 172.66 150.54 172.70 151.53 173.34 152.12 C 173.98 152.70 174.97 152.66 175.55 152.02 Z M 176.23 151.28 L 176.91 150.54 C 177.49 149.90 177.45 148.91 176.81 148.33 C 176.17 147.74 175.19 147.79 174.60 148.42 L 173.92 149.17 C 173.34 149.80 173.38 150.79 174.02 151.37 C 174.66 151.96 175.64 151.91 176.23 151.28 Z M 176.91 150.53 L 177.59 149.79 C 178.17 149.16 178.13 148.17 177.49 147.59 C 176.85 147.00 175.87 147.05 175.28 147.68 L 174.60 148.43 C 174.02 149.06 174.07 150.05 174.70 150.63 C 175.34 151.21 176.32 151.17 176.91 150.53 Z M 177.59 149.79 L 178.27 149.05 C 178.85 148.42 178.80 147.43 178.17 146.85 C 177.53 146.26 176.55 146.31 175.96 146.94 L 175.28 147.68 C 174.70 148.32 174.75 149.31 175.38 149.89 C 176.02 150.47 177.00 150.43 177.59 149.79 Z M 178.27 149.05 L 178.94 148.31 C 179.52 147.68 179.48 146.69 178.85 146.11 C 178.21 145.53 177.22 145.57 176.64 146.20 L 175.96 146.94 C 175.38 147.58 175.43 148.57 176.06 149.15 C 176.70 149.73 177.68 149.69 178.27 149.05 Z M 178.94 148.31 L 179.61 147.58 C 180.20 146.94 180.15 145.96 179.52 145.37 C 178.88 144.79 177.89 144.84 177.31 145.47 L 176.64 146.20 C 176.06 146.84 176.10 147.83 176.74 148.41 C 177.37 148.99 178.36 148.95 178.94 148.31 Z M 179.61 147.58 L 180.29 146.84 C 180.87 146.20 180.83 145.22 180.19 144.64 C 179.55 144.05 178.57 144.10 177.99 144.73 L 177.31 145.47 C 176.73 146.11 176.77 147.09 177.41 147.68 C 178.05 148.26 179.03 148.21 179.61 147.58 Z M 180.29 146.84 L 180.97 146.10 C 181.55 145.46 181.50 144.47 180.87 143.89 C 180.23 143.31 179.25 143.36 178.66 143.99 L 177.99 144.73 C 177.40 145.37 177.45 146.36 178.08 146.94 C 178.72 147.52 179.71 147.48 180.29 146.84 Z M 180.97 146.10 L 181.64 145.36 C 182.22 144.72 182.18 143.74 181.54 143.15 C 180.91 142.57 179.92 142.62 179.34 143.25 L 178.66 143.99 C 178.08 144.63 178.13 145.62 178.76 146.20 C 179.40 146.78 180.39 146.73 180.97 146.10 Z M 181.64 145.36 L 182.31 144.63 C 182.89 143.99 182.85 143.00 182.21 142.42 C 181.58 141.84 180.59 141.88 180.01 142.52 L 179.34 143.25 C 178.76 143.89 178.80 144.88 179.44 145.46 C 180.07 146.04 181.06 146.00 181.64 145.36 Z M 182.31 144.62 L 182.76 144.13 C 183.35 143.49 183.30 142.51 182.66 141.92 C 182.03 141.34 181.04 141.39 180.46 142.03 L 180.01 142.52 C 179.43 143.16 179.47 144.14 180.11 144.73 C 180.74 145.31 181.73 145.26 182.31 144.62 Z"
      fill="black"
      fill-rule="nonzero" /></svg>