<svg xmlns="http://www.w3.org/2000/svg" width="300" height="300" viewBox="0 0 300 300">
<path d="M 118.76 115.88 L 118.76 116.87 C 118.76 117.82 119.53 118.58 120.47 118.58 C 121.42 118.58 122.18 117.82 122.18 116.88 L 122.18 115.88 C 122.18 114.94 121.42 114.17 120.47 114.17 C 119.53 114.17 118.77 114.94 118.76 115.88 Z M 118.75 116.87 L 118.75 117.87 C 118.75 118.82 119.52 119.59 120.47 119.59 C 121.42 119.59 122.19 118.82 122.19 117.87 L 122.19 116.88 C 122.20 115.93 121.43 115.16 120.48 115.15 C 119.53 115.15 118.75 115.92 118.75 116.87 Z M 118.74 117.86 L 118.74 118.86 C 118.73 119.81 119.50 120.59 120.46 120.60 C 121.42 120.60 122.19 119.83 122.20 118.87 L 122.20 117.88 C 122.21 116.92 121.44 116.14 120.48 116.14 C 119.52 116.13 118.74 116.90 118.74 117.86 Z M 118.72 118.85 L 118.71 119.85 C 118.71 120.81 119.48 121.60 120.44 121.61 C 121.40 121.62 122.19 120.84 122.20 119.88 L 122.21 118.88 C 122.22 117.92 121.45 117.13 120.48 117.12 C 119.52 117.11 118.73 117.89 118.72 118.85 Z M 118.70 119.84 L 118.69 120.84 C 118.67 121.81 119.45 122.61 120.42 122.62 C 121.38 122.64 122.18 121.86 122.20 120.89 L 122.21 119.89 C 122.23 118.92 121.45 118.13 120.48 118.11 C 119.52 118.10 118.72 118.87 118.70 119.84 Z M 118.68 120.83 L 118.65 121.84 C 118.63 122.81 119.40 123.62 120.38 123.64 C 121.35 123.66 122.16 122.89 122.18 121.92 L 122.21 120.91 C 122.23 119.93 121.46 119.12 120.48 119.10 C 119.51 119.08 118.70 119.85 118.68 120.83 Z M 118.65 121.82 L 118.62 122.82 C 118.58 123.80 119.35 124.62 120.33 124.65 C 121.31 124.68 122.13 123.91 122.16 122.94 L 122.19 121.93 C 122.22 120.95 121.45 120.13 120.48 120.10 C 119.50 120.07 118.68 120.84 118.65 121.82 Z M 118.61 122.81 L 118.57 123.81 C 118.54 124.79 119.30 125.62 120.28 125.66 C 121.26 125.69 122.09 124.93 122.13 123.95 L 122.16 122.95 C 122.20 121.97 121.44 121.14 120.46 121.10 C 119.48 121.07 118.65 121.83 118.61 122.81 Z M 118.57 123.80 L 118.53 124.81 C 118.49 125.79 119.25 126.62 120.23 126.66 C 121.21 126.70 122.04 125.94 122.08 124.96 L 122.13 123.96 C 122.17 122.98 121.41 122.15 120.43 122.10 C 119.45 122.06 118.62 122.82 118.57 123.80 Z M 118.53 124.80 L 118.48 125.81 C 118.44 126.79 119.20 127.62 120.18 127.67 C 121.16 127.71 121.99 126.95 122.04 125.97 L 122.08 124.96 C 122.13 123.98 121.37 123.15 120.39 123.11 C 119.40 123.06 118.57 123.82 118.53 124.80 Z M 118.48 125.81 L 118.44 126.81 C 118.39 127.79 119.15 128.62 120.14 128.67 C 121.12 128.71 121.95 127.95 121.99 126.97 L 122.04 125.97 C 122.08 124.98 121.32 124.15 120.34 124.11 C 119.36 124.06 118.53 124.83 118.48 125.81 Z M 118.44 126.82 L 118.39 127.81 C 118.35 128.80 119.12 129.63 120.10 129.67 C 121.09 129.71 121.91 128.94 121.96 127.96 L 122.00 126.96 C 122.04 125.98 121.27 125.15 120.29 125.11 C 119.31 125.07 118.48 125.83 118.44 126.82 Z M 118.39 127.82 L 118.36 128.82 C 118.32 129.80 119.09 130.63 120.08 130.66 C 121.06 130.70 121.89 129.93 121.92 128.94 L 121.96 127.95 C 121.99 126.96 121.22 126.14 120.24 126.10 C 119.25 126.07 118.43 126.84 118.39 127.82 Z M 118.36 128.84 L 118.33 129.92 C 118.30 130.91 119.08 131.72 120.07 131.75 C 121.05 131.77 121.87 131.00 121.90 130.01 L 121.92 128.93 C 121.95 127.94 121.17 127.12 120.19 127.10 C 119.20 127.07 118.38 127.85 118.36 128.84 Z M 118.33 129.94 L 118.31 131.00 C 118.29 131.98 119.08 132.80 120.06 132.81 C 121.05 132.83 121.86 132.04 121.88 131.06 L 121.90 130.00 C 121.91 129.01 121.13 128.20 120.14 128.18 C 119.16 128.17 118.35 128.95 118.33 129.94 Z M 118.31 131.01 L 118.30 132.04 C 118.29 133.03 119.08 133.83 120.06 133.84 C 121.05 133.85 121.86 133.06 121.87 132.08 L 121.88 131.05 C 121.89 130.06 121.10 129.26 120.11 129.25 C 119.13 129.24 118.32 130.03 118.31 131.01 Z M 118.30 132.05 L 118.29 133.04 C 118.29 134.02 119.08 134.82 120.07 134.83 C 121.05 134.83 121.86 134.04 121.86 133.06 L 121.87 132.07 C 121.87 131.08 121.08 130.28 120.09 130.28 C 119.11 130.27 118.30 131.06 118.30 132.05 Z M 118.29 133.04 L 118.29 133.97 C 118.29 134.96 119.09 135.76 120.07 135.76 C 121.06 135.76 121.86 134.97 121.86 133.98 L 121.86 133.05 C 121.86 132.06 121.07 131.26 120.08 131.26 C 119.10 131.26 118.30 132.06 118.29 133.04 Z M 118.29 133.98 L 118.29 134.91 C 118.29 135.89 119.09 136.69 120.08 136.69 C 121.06 136.69 121.86 135.90 121.86 134.91 L 121.86 133.98 C 121.86 132.99 121.06 132.19 120.08 132.19 C 119.09 132.19 118.29 132.99 118.29 133.98 Z M 118.29 134.91 L 118.29 136.03 C 118.29 137.01 119.09 137.81 120.08 137.81 C 121.06 137.81 121.86 137.01 121.86 136.03 L 121.86 134.91 C 121.86 133.92 121.06 133.13 120.08 133.13 C 119.09 133.13 118.29 133.92 118.29 134.91 Z M 118.30 136.03 L 118.30 137.04 C 118.30 138.02 119.09 138.82 120.08 138.82 C 121.06 138.82 121.86 138.02 121.86 137.04 L 121.86 136.03 C 121.86 135.04 121.06 134.25 120.08 134.25 C 119.09 134.25 118.30 135.04 118.30 136.03 Z M 118.30 137.04 L 118.30 137.97 C 118.30 138.95 119.09 139.75 120.08 139.75 C 121.06 139.75 121.86 138.95 121.86 137.97 L 121.86 137.04 C 121.86 136.05 121.06 135.26 120.08 135.26 C 119.09 135.26 118.30 136.05 118.30 137.04 Z M 118.30 137.97 L 118.30 138.88 C 118.30 139.86 119.09 140.65 120.08 140.65 C 121.06 140.65 121.85 139.86 121.85 138.88 L 121.85 137.97 C 121.85 136.99 121.06 136.19 120.08 136.19 C 119.09 136.19 118.30 136.99 118.30 137.97 Z M 118.30 138.88 L 118.30 139.88 C 118.30 140.86 119.10 141.66 120.08 141.66 C 121.06 141.66 121.85 140.86 121.85 139.88 L 121.85 138.88 C 121.85 137.90 121.06 137.10 120.08 137.10 C 119.10 137.10 118.30 137.90 118.30 138.88 Z M 118.30 139.88 L 118.30 140.88 C 118.30 141.86 119.10 142.66 120.08 142.66 C 121.06 142.66 121.85 141.86 121.85 140.88 L 121.85 139.88 C 121.85 138.90 121.06 138.11 120.08 138.11 C 119.10 138.11 118.30 138.90 118.30 139.88 Z M 118.31 140.88 L 118.31 141.88 C 118.31 142.86 119.10 143.65 120.08 143.65 C 121.05 143.65 121.85 142.86 121.85 141.88 L 121.85 140.88 C 121.85 139.90 121.05 139.11 120.08 139.11 C 119.10 139.11 118.31 139.90 118.31 140.88 Z M 118.31 141.88 L 118.31 142.87 C 118.31 143.85 119.10 144.64 120.08 144.64 C 121.05 144.64 121.84 143.85 121.84 142.87 L 121.84 141.88 C 121.84 140.90 121.05 140.11 120.08 140.11 C 119.10 140.11 118.31 140.90 118.31 141.88 Z M 118.31 142.87 L 118.31 143.87 C 118.31 144.85 119.10 145.64 120.08 145.64 C 121.05 145.64 121.84 144.85 121.84 143.87 L 121.84 142.87 C 121.84 141.90 121.05 141.11 120.08 141.11 C 119.10 141.11 118.31 141.90 118.31 142.87 Z M 118.31 143.87 L 118.31 144.87 C 118.31 145.85 119.10 146.64 120.08 146.64 C 121.05 146.64 121.84 145.85 121.84 144.87 L 121.84 143.87 C 121.84 142.90 121.05 142.11 120.08 142.11 C 119.10 142.11 118.31 142.90 118.31 143.87 Z M 118.32 144.87 L 118.32 145.87 C 118.32 146.85 119.10 147.64 120.08 147.64 C 121.05 147.64 121.84 146.85 121.84 145.87 L 121.84 144.87 C 121.84 143.90 121.05 143.11 120.08 143.11 C 119.10 143.11 118.32 143.90 118.32 144.87 Z M 118.32 145.87 L 118.32 146.87 C 118.32 147.84 119.11 148.63 120.08 148.63 C 121.05 148.63 121.83 147.84 121.83 146.87 L 121.83 145.87 C 121.83 144.90 121.05 144.12 120.08 144.12 C 119.11 144.12 118.32 144.90 118.32 145.87 Z M 118.32 146.87 L 118.32 147.87 C 118.32 148.84 119.11 149.63 120.08 149.63 C 121.04 149.63 121.83 148.84 121.83 147.87 L 121.83 146.87 C 121.83 145.91 121.04 145.12 120.08 145.12 C 119.11 145.12 118.32 145.91 118.32 146.87 Z M 118.33 147.87 L 118.33 148.87 C 118.33 149.84 119.11 150.62 120.08 150.62 C 121.04 150.62 121.82 149.84 121.82 148.87 L 121.82 147.87 C 121.82 146.91 121.04 146.13 120.08 146.13 C 119.11 146.13 118.33 146.91 118.33 147.87 Z M 118.34 148.87 L 118.34 149.88 C 118.34 150.84 119.12 151.62 120.08 151.62 C 121.04 151.62 121.82 150.84 121.82 149.88 L 121.82 148.87 C 121.82 147.91 121.04 147.13 120.08 147.13 C 119.11 147.13 118.34 147.91 118.34 148.87 Z M 118.34 149.88 L 118.34 150.88 C 118.34 151.84 119.12 152.62 120.08 152.62 C 121.04 152.61 121.81 151.84 121.81 150.88 L 121.81 149.87 C 121.81 148.92 121.03 148.14 120.07 148.14 C 119.12 148.14 118.34 148.92 118.34 149.88 Z M 118.35 150.89 L 118.35 151.89 C 118.36 152.85 119.14 153.62 120.09 153.61 C 121.04 153.61 121.81 152.83 121.81 151.87 L 121.81 150.87 C 121.80 149.92 121.02 149.15 120.07 149.15 C 119.11 149.16 118.34 149.94 118.35 150.89 Z M 118.36 151.90 L 118.37 152.90 C 118.38 153.85 119.16 154.61 120.11 154.60 C 121.06 154.59 121.83 153.81 121.82 152.86 L 121.80 151.86 C 121.79 150.91 121.01 150.15 120.06 150.16 C 119.11 150.17 118.35 150.95 118.36 151.90 Z M 118.38 152.91 L 118.40 153.91 C 118.42 154.86 119.20 155.61 120.15 155.59 C 121.10 155.57 121.85 154.78 121.83 153.84 L 121.81 152.84 C 121.79 151.89 121.00 151.14 120.06 151.16 C 119.11 151.18 118.36 151.97 118.38 152.91 Z M 118.41 153.92 L 118.44 154.92 C 118.47 155.86 119.25 156.60 120.20 156.57 C 121.14 156.54 121.88 155.76 121.85 154.81 L 121.82 153.82 C 121.79 152.88 121.01 152.14 120.06 152.17 C 119.12 152.19 118.38 152.98 118.41 153.92 Z M 118.45 154.93 L 118.48 155.92 C 118.52 156.86 119.30 157.59 120.24 157.56 C 121.18 157.53 121.91 156.74 121.88 155.80 L 121.84 154.81 C 121.81 153.87 121.02 153.14 120.08 153.17 C 119.15 153.20 118.41 153.99 118.45 154.93 Z M 118.49 155.93 L 118.53 156.91 C 118.56 157.85 119.35 158.57 120.28 158.54 C 121.21 158.50 121.94 157.72 121.90 156.79 L 121.87 155.80 C 121.83 154.87 121.05 154.14 120.12 154.18 C 119.18 154.21 118.46 154.99 118.49 155.93 Z M 118.54 156.92 L 118.57 157.83 C 118.61 158.76 119.39 159.48 120.32 159.45 C 121.24 159.41 121.96 158.63 121.93 157.71 L 121.89 156.79 C 121.86 155.86 121.08 155.14 120.15 155.17 C 119.22 155.21 118.50 155.99 118.54 156.92 Z M 118.58 157.84 L 118.63 158.81 C 118.67 159.73 119.45 160.44 120.37 160.40 C 121.29 160.36 122.00 159.58 121.96 158.66 L 121.92 157.70 C 121.88 156.77 121.10 156.06 120.18 156.10 C 119.26 156.14 118.54 156.92 118.58 157.84 Z M 118.64 158.83 L 118.69 159.86 C 118.74 160.78 119.53 161.48 120.44 161.43 C 121.36 161.38 122.06 160.60 122.01 159.68 L 121.95 158.64 C 121.90 157.73 121.12 157.03 120.20 157.08 C 119.29 157.13 118.59 157.91 118.64 158.83 Z M 118.70 159.88 L 118.78 160.96 C 118.84 161.87 119.62 162.56 120.53 162.50 C 121.44 162.43 122.13 161.65 122.07 160.74 L 122.00 159.66 C 121.94 158.75 121.15 158.07 120.24 158.13 C 119.33 158.19 118.64 158.97 118.70 159.88 Z M 118.78 160.98 L 118.86 161.94 C 118.93 162.84 119.72 163.52 120.63 163.45 C 121.53 163.38 122.21 162.58 122.14 161.68 L 122.06 160.72 C 121.99 159.82 121.20 159.14 120.29 159.21 C 119.39 159.28 118.71 160.07 118.78 160.98 Z M 118.87 161.95 L 118.95 162.95 C 119.03 163.85 119.83 164.52 120.73 164.44 C 121.63 164.36 122.30 163.57 122.22 162.67 L 122.13 161.67 C 122.05 160.76 121.26 160.10 120.36 160.18 C 119.46 160.25 118.79 161.05 118.87 161.95 Z M 118.96 162.96 L 119.06 163.98 C 119.14 164.88 119.94 165.54 120.83 165.46 C 121.73 165.37 122.39 164.58 122.31 163.68 L 122.21 162.66 C 122.13 161.76 121.33 161.10 120.43 161.18 C 119.54 161.27 118.88 162.06 118.96 162.96 Z M 119.06 163.99 L 119.16 165.01 C 119.25 165.91 120.05 166.56 120.94 166.47 C 121.84 166.38 122.49 165.58 122.40 164.69 L 122.30 163.67 C 122.21 162.78 121.42 162.12 120.52 162.21 C 119.63 162.30 118.97 163.10 119.06 163.99 Z M 119.17 165.02 L 119.28 166.03 C 119.37 166.92 120.17 167.57 121.06 167.48 C 121.95 167.38 122.60 166.58 122.50 165.69 L 122.40 164.68 C 122.30 163.79 121.51 163.14 120.61 163.24 C 119.72 163.33 119.08 164.13 119.17 165.02 Z M 119.28 166.04 L 119.40 167.11 C 119.50 168.00 120.30 168.64 121.19 168.54 C 122.07 168.44 122.71 167.64 122.61 166.75 L 122.49 165.68 C 122.40 164.80 121.60 164.16 120.71 164.26 C 119.82 164.36 119.19 165.15 119.28 166.04 Z M 119.41 167.13 L 119.54 168.15 C 119.65 169.03 120.45 169.65 121.33 169.54 C 122.21 169.44 122.83 168.64 122.73 167.76 L 122.60 166.74 C 122.49 165.86 121.69 165.23 120.81 165.34 C 119.93 165.45 119.31 166.25 119.41 167.13 Z M 119.55 168.17 L 119.69 169.14 C 119.81 170.01 120.61 170.62 121.49 170.50 C 122.36 170.38 122.97 169.57 122.85 168.70 L 122.71 167.73 C 122.59 166.86 121.79 166.25 120.91 166.37 C 120.04 166.49 119.43 167.30 119.55 168.17 Z M 119.70 169.17 L 119.85 170.09 C 119.99 170.96 120.80 171.55 121.67 171.41 C 122.53 171.27 123.12 170.46 122.98 169.59 L 122.83 168.67 C 122.70 167.80 121.88 167.21 121.02 167.35 C 120.15 167.49 119.56 168.30 119.70 169.17 Z M 119.86 170.14 L 120.11 171.41 C 120.28 172.27 121.11 172.83 121.96 172.66 C 122.82 172.49 123.38 171.66 123.21 170.81 L 122.97 169.54 C 122.80 168.68 121.97 168.12 121.11 168.29 C 120.26 168.46 119.70 169.29 119.86 170.14 Z M 120.14 171.50 L 120.40 172.50 C 120.61 173.34 121.47 173.85 122.31 173.63 C 123.15 173.41 123.66 172.55 123.44 171.71 L 123.18 170.72 C 122.97 169.87 122.11 169.37 121.27 169.59 C 120.43 169.80 119.92 170.66 120.14 171.50 Z M 122.25 173.64 L 122.36 173.61 C 123.20 173.43 123.74 172.59 123.55 171.75 C 123.37 170.90 122.53 170.37 121.69 170.55 L 121.58 170.58 C 120.74 170.76 120.21 171.60 120.39 172.44 C 120.58 173.29 121.41 173.82 122.25 173.64 Z M 123.58 171.97 L 123.54 171.45 C 123.48 170.59 122.74 169.94 121.88 170.00 C 121.01 170.06 120.36 170.80 120.43 171.67 L 120.46 172.19 C 120.52 173.05 121.27 173.70 122.13 173.64 C 122.99 173.58 123.64 172.84 123.58 171.97 Z M 123.54 171.39 L 123.45 170.55 C 123.35 169.69 122.58 169.07 121.72 169.17 C 120.86 169.26 120.25 170.03 120.34 170.89 L 120.43 171.73 C 120.52 172.58 121.30 173.20 122.15 173.11 C 123.01 173.02 123.63 172.24 123.54 171.39 Z M 123.44 170.53 L 123.31 169.46 C 123.20 168.60 122.42 167.99 121.57 168.10 C 120.71 168.21 120.10 168.99 120.21 169.84 L 120.34 170.91 C 120.45 171.77 121.23 172.38 122.09 172.27 C 122.94 172.16 123.55 171.38 123.44 170.53 Z M 123.31 169.45 L 123.15 168.22 C 123.03 167.36 122.25 166.76 121.40 166.87 C 120.54 166.99 119.94 167.77 120.05 168.63 L 120.21 169.85 C 120.32 170.71 121.11 171.31 121.96 171.20 C 122.82 171.09 123.42 170.30 123.31 169.45 Z M 123.15 168.22 L 122.97 166.90 C 122.86 166.05 122.07 165.45 121.22 165.56 C 120.36 165.68 119.76 166.46 119.88 167.32 L 120.05 168.63 C 120.17 169.48 120.95 170.08 121.81 169.97 C 122.66 169.86 123.26 169.07 123.15 168.22 Z M 122.97 166.90 L 122.95 166.75 C 122.83 165.89 122.05 165.30 121.19 165.41 C 120.34 165.52 119.74 166.31 119.86 167.16 L 119.88 167.32 C 119.99 168.17 120.78 168.77 121.63 168.66 C 122.49 168.54 123.08 167.76 122.97 166.90 Z"
      fill="black"
      fill-rule="nonzero" /><path d="M 119.51 117.53 L 120.33 117.00 C 121.10 116.51 121.32 115.49 120.82 114.72 C 120.33 113.96 119.31 113.74 118.54 114.23 L 117.72 114.76 C 116.96 115.26 116.74 116.28 117.23 117.04 C 117.73 117.81 118.75 118.03 119.51 117.53 Z M 120.33 117.07 L 121.17 116.55 C 121.97 116.06 122.22 115.01 121.72 114.21 C 121.23 113.41 120.18 113.16 119.38 113.65 L 118.54 114.17 C 117.74 114.66 117.49 115.71 117.99 116.51 C 118.48 117.31 119.53 117.56 120.33 117.07 Z M 121.13 116.63 L 122.01 116.14 C 122.86 115.67 123.16 114.60 122.69 113.75 C 122.21 112.91 121.15 112.60 120.30 113.08 L 119.42 113.57 C 118.58 114.04 118.27 115.11 118.75 115.96 C 119.22 116.80 120.29 117.10 121.13 116.63 Z M 121.94 116.23 L 122.85 115.79 C 123.74 115.35 124.12 114.28 123.68 113.38 C 123.25 112.49 122.18 112.12 121.28 112.55 L 120.37 112.99 C 119.48 113.42 119.10 114.50 119.54 115.39 C 119.97 116.29 121.05 116.66 121.94 116.23 Z M 122.76 115.85 L 123.64 115.49 C 124.57 115.10 125.01 114.04 124.63 113.11 C 124.24 112.18 123.18 111.74 122.25 112.12 L 121.37 112.48 C 120.44 112.87 120.00 113.93 120.38 114.86 C 120.77 115.79 121.83 116.24 122.76 115.85 Z M 123.57 115.52 L 124.50 115.18 C 125.45 114.84 125.93 113.78 125.59 112.84 C 125.24 111.89 124.19 111.40 123.24 111.75 L 122.31 112.09 C 121.36 112.43 120.88 113.49 121.22 114.43 C 121.57 115.38 122.62 115.87 123.57 115.52 Z M 124.46 115.21 L 125.42 114.88 C 126.39 114.56 126.90 113.51 126.58 112.55 C 126.26 111.59 125.21 111.08 124.25 111.40 L 123.28 111.73 C 122.32 112.05 121.81 113.09 122.13 114.05 C 122.45 115.01 123.49 115.53 124.46 115.21 Z M 125.40 114.89 L 126.41 114.57 C 127.38 114.26 127.91 113.22 127.60 112.25 C 127.29 111.28 126.25 110.75 125.28 111.06 L 124.28 111.38 C 123.31 111.70 122.77 112.73 123.09 113.70 C 123.40 114.67 124.43 115.20 125.40 114.89 Z M 126.40 114.58 L 127.39 114.26 C 128.36 113.95 128.90 112.92 128.59 111.94 C 128.28 110.97 127.25 110.43 126.27 110.74 L 125.29 111.06 C 124.31 111.36 123.78 112.40 124.09 113.37 C 124.39 114.35 125.43 114.88 126.40 114.58 Z M 127.39 114.26 L 128.38 113.95 C 129.35 113.64 129.89 112.60 129.58 111.63 C 129.28 110.66 128.24 110.12 127.26 110.43 L 126.28 110.74 C 125.30 111.05 124.76 112.09 125.07 113.06 C 125.38 114.03 126.42 114.57 127.39 114.26 Z M 128.38 113.95 L 129.34 113.65 C 130.32 113.34 130.86 112.30 130.55 111.33 C 130.24 110.36 129.20 109.82 128.23 110.12 L 127.27 110.43 C 126.29 110.73 125.75 111.77 126.06 112.75 C 126.37 113.72 127.40 114.26 128.38 113.95 Z M 129.34 113.65 L 130.26 113.36 C 131.23 113.05 131.77 112.01 131.47 111.04 C 131.16 110.07 130.12 109.53 129.15 109.83 L 128.23 110.12 C 127.26 110.43 126.72 111.47 127.02 112.44 C 127.33 113.41 128.37 113.95 129.34 113.65 Z M 130.26 113.36 L 131.23 113.05 C 132.21 112.74 132.75 111.71 132.44 110.73 C 132.13 109.76 131.09 109.22 130.12 109.53 L 129.15 109.83 C 128.17 110.14 127.63 111.18 127.94 112.15 C 128.25 113.13 129.29 113.67 130.26 113.36 Z M 131.23 113.05 L 132.22 112.74 C 133.19 112.43 133.73 111.39 133.43 110.42 C 133.12 109.45 132.08 108.91 131.11 109.21 L 130.12 109.53 C 129.15 109.83 128.61 110.87 128.91 111.84 C 129.22 112.82 130.26 113.36 131.23 113.05 Z M 132.22 112.74 L 133.13 112.45 C 134.10 112.15 134.65 111.11 134.34 110.14 C 134.04 109.16 133.00 108.62 132.03 108.93 L 131.11 109.21 C 130.14 109.52 129.60 110.55 129.90 111.53 C 130.20 112.50 131.24 113.04 132.22 112.74 Z M 133.12 112.46 L 134.02 112.18 C 134.99 111.88 135.54 110.85 135.24 109.87 C 134.94 108.90 133.91 108.35 132.93 108.65 L 132.04 108.92 C 131.06 109.22 130.51 110.26 130.81 111.23 C 131.11 112.21 132.15 112.76 133.12 112.46 Z M 134.01 112.18 L 134.93 111.90 C 135.91 111.61 136.46 110.58 136.17 109.60 C 135.87 108.63 134.84 108.07 133.87 108.37 L 132.94 108.65 C 131.96 108.94 131.41 109.97 131.71 110.95 C 132.00 111.92 133.03 112.48 134.01 112.18 Z M 134.93 111.90 L 135.88 111.62 C 136.86 111.32 137.41 110.29 137.12 109.32 C 136.83 108.34 135.80 107.79 134.82 108.08 L 133.87 108.37 C 132.89 108.66 132.34 109.69 132.63 110.67 C 132.93 111.64 133.95 112.20 134.93 111.90 Z M 135.89 111.61 L 136.88 111.31 C 137.85 111.01 138.40 109.98 138.10 109.01 C 137.80 108.03 136.77 107.49 135.80 107.79 L 134.81 108.09 C 133.84 108.39 133.29 109.42 133.59 110.39 C 133.89 111.36 134.92 111.91 135.89 111.61 Z M 136.89 111.30 L 137.85 111.00 C 138.82 110.69 139.36 109.66 139.05 108.69 C 138.74 107.72 137.71 107.18 136.74 107.49 L 135.78 107.79 C 134.81 108.10 134.27 109.13 134.58 110.10 C 134.89 111.07 135.92 111.61 136.89 111.30 Z M 137.87 110.99 L 138.82 110.68 C 139.79 110.37 140.31 109.33 140.00 108.36 C 139.68 107.39 138.64 106.87 137.67 107.18 L 136.72 107.50 C 135.75 107.81 135.23 108.85 135.54 109.82 C 135.86 110.78 136.90 111.31 137.87 110.99 Z M 138.84 110.67 L 139.79 110.35 C 140.75 110.03 141.27 108.98 140.94 108.02 C 140.62 107.06 139.58 106.54 138.61 106.87 L 137.66 107.19 C 136.70 107.52 136.18 108.56 136.50 109.52 C 136.83 110.48 137.87 111.00 138.84 110.67 Z M 139.81 110.34 L 140.75 110.01 C 141.71 109.68 142.22 108.63 141.88 107.68 C 141.55 106.72 140.50 106.21 139.54 106.55 L 138.60 106.88 C 137.64 107.21 137.13 108.26 137.47 109.21 C 137.80 110.17 138.85 110.68 139.81 110.34 Z M 140.77 110.01 L 141.74 109.66 C 142.69 109.32 143.19 108.27 142.84 107.31 C 142.50 106.36 141.45 105.86 140.50 106.21 L 139.53 106.55 C 138.58 106.89 138.08 107.95 138.42 108.90 C 138.76 109.85 139.81 110.35 140.77 110.01 Z M 141.74 109.66 L 142.68 109.32 C 143.63 108.97 144.13 107.92 143.78 106.97 C 143.44 106.02 142.39 105.53 141.44 105.87 L 140.49 106.21 C 139.54 106.55 139.05 107.60 139.39 108.56 C 139.74 109.51 140.79 110.00 141.74 109.66 Z M 142.67 109.32 L 143.59 108.99 C 144.54 108.66 145.04 107.61 144.71 106.66 C 144.37 105.70 143.32 105.20 142.37 105.54 L 141.45 105.87 C 140.49 106.20 139.99 107.25 140.33 108.20 C 140.67 109.16 141.71 109.66 142.67 109.32 Z M 143.56 109.00 L 144.43 108.71 C 145.39 108.39 145.90 107.35 145.58 106.39 C 145.25 105.43 144.22 104.92 143.26 105.24 L 142.39 105.53 C 141.44 105.86 140.92 106.89 141.25 107.85 C 141.57 108.81 142.61 109.32 143.56 109.00 Z M 144.40 108.72 L 145.27 108.44 C 146.23 108.14 146.77 107.11 146.46 106.15 C 146.15 105.18 145.13 104.65 144.16 104.96 L 143.29 105.23 C 142.33 105.54 141.80 106.57 142.10 107.53 C 142.41 108.49 143.43 109.02 144.40 108.72 Z M 145.24 108.45 L 146.21 108.16 C 147.17 107.87 147.72 106.85 147.43 105.88 C 147.14 104.92 146.12 104.37 145.15 104.66 L 144.19 104.95 C 143.23 105.24 142.68 106.26 142.97 107.22 C 143.26 108.19 144.28 108.74 145.24 108.45 Z M 146.19 108.16 L 147.29 107.84 C 148.26 107.57 148.82 106.55 148.54 105.58 C 148.26 104.62 147.25 104.06 146.28 104.34 L 145.17 104.66 C 144.21 104.93 143.65 105.95 143.93 106.92 C 144.20 107.88 145.22 108.44 146.19 108.16 Z M 147.28 107.85 L 148.14 107.61 C 149.11 107.33 149.67 106.33 149.40 105.36 C 149.13 104.39 148.12 103.82 147.15 104.09 L 146.29 104.33 C 145.32 104.61 144.76 105.61 145.03 106.58 C 145.30 107.55 146.31 108.12 147.28 107.85 Z M 148.13 107.61 L 149.05 107.36 C 150.02 107.09 150.60 106.09 150.33 105.11 C 150.06 104.14 149.06 103.57 148.09 103.84 L 147.16 104.09 C 146.19 104.36 145.62 105.36 145.88 106.33 C 146.15 107.30 147.15 107.88 148.13 107.61 Z M 149.04 107.36 L 150.02 107.10 C 150.99 106.84 151.57 105.84 151.32 104.87 C 151.06 103.90 150.06 103.31 149.08 103.57 L 148.10 103.83 C 147.13 104.09 146.55 105.09 146.81 106.06 C 147.06 107.04 148.06 107.62 149.04 107.36 Z M 150.00 107.10 L 151.02 106.85 C 151.99 106.60 152.58 105.61 152.34 104.63 C 152.09 103.65 151.10 103.06 150.12 103.31 L 149.10 103.57 C 148.13 103.82 147.54 104.81 147.78 105.78 C 148.03 106.76 149.02 107.35 150.00 107.10 Z M 150.99 106.85 L 152.02 106.60 C 153.00 106.37 153.61 105.38 153.37 104.41 C 153.14 103.43 152.15 102.82 151.17 103.06 L 150.14 103.31 C 149.16 103.54 148.56 104.53 148.79 105.50 C 149.03 106.48 150.01 107.09 150.99 106.85 Z M 152.00 106.61 L 153.04 106.38 C 154.02 106.16 154.64 105.18 154.42 104.20 C 154.20 103.22 153.22 102.60 152.24 102.82 L 151.20 103.05 C 150.22 103.27 149.60 104.25 149.82 105.23 C 150.04 106.21 151.01 106.83 152.00 106.61 Z M 153.00 106.39 L 154.04 106.17 C 155.02 105.97 155.66 105.01 155.46 104.02 C 155.26 103.04 154.29 102.40 153.31 102.60 L 152.27 102.81 C 151.29 103.01 150.65 103.98 150.85 104.96 C 151.05 105.95 152.02 106.59 153.00 106.39 Z M 154.00 106.18 L 155.01 105.99 C 156.00 105.81 156.66 104.86 156.48 103.87 C 156.29 102.88 155.34 102.23 154.35 102.41 L 153.34 102.60 C 152.35 102.78 151.70 103.73 151.88 104.72 C 152.06 105.71 153.01 106.36 154.00 106.18 Z M 154.98 106.00 L 155.96 105.84 C 156.95 105.67 157.63 104.74 157.46 103.74 C 157.30 102.75 156.36 102.08 155.37 102.24 L 154.39 102.40 C 153.39 102.57 152.72 103.50 152.88 104.50 C 153.05 105.49 153.99 106.16 154.98 106.00 Z M 155.92 105.84 L 156.87 105.71 C 157.87 105.57 158.56 104.64 158.42 103.65 C 158.27 102.65 157.35 101.96 156.35 102.10 L 155.41 102.24 C 154.41 102.38 153.72 103.30 153.86 104.30 C 154.00 105.29 154.93 105.99 155.92 105.84 Z M 156.83 105.71 L 157.77 105.60 C 158.77 105.48 159.48 104.57 159.36 103.58 C 159.24 102.58 158.33 101.86 157.33 101.98 L 156.40 102.09 C 155.40 102.21 154.68 103.12 154.80 104.12 C 154.92 105.12 155.83 105.83 156.83 105.71 Z M 157.71 105.61 L 158.79 105.51 C 159.79 105.42 160.53 104.53 160.44 103.53 C 160.35 102.53 159.46 101.79 158.46 101.88 L 157.39 101.98 C 156.39 102.07 155.65 102.95 155.74 103.95 C 155.83 104.96 156.71 105.70 157.71 105.61 Z M 158.72 105.52 L 159.74 105.46 C 160.74 105.41 161.51 104.55 161.46 103.54 C 161.40 102.54 160.54 101.77 159.54 101.82 L 158.53 101.88 C 157.52 101.93 156.75 102.79 156.80 103.79 C 156.86 104.80 157.72 105.57 158.72 105.52 Z M 159.67 105.46 L 160.63 105.45 C 161.64 105.43 162.44 104.60 162.43 103.60 C 162.41 102.59 161.58 101.79 160.58 101.80 L 159.61 101.82 C 158.60 101.83 157.80 102.66 157.82 103.67 C 157.83 104.67 158.66 105.48 159.67 105.46 Z M 160.56 105.45 L 161.49 105.47 C 162.50 105.50 163.33 104.70 163.36 103.70 C 163.38 102.69 162.59 101.85 161.58 101.83 L 160.65 101.80 C 159.64 101.78 158.81 102.57 158.78 103.58 C 158.76 104.59 159.55 105.42 160.56 105.45 Z M 161.41 105.47 L 162.41 105.54 C 163.42 105.61 164.29 104.85 164.36 103.85 C 164.43 102.84 163.67 101.97 162.67 101.90 L 161.67 101.83 C 160.66 101.76 159.79 102.52 159.72 103.52 C 159.65 104.52 160.40 105.40 161.41 105.47 Z M 162.30 105.53 L 163.29 105.66 C 164.29 105.80 165.20 105.10 165.34 104.10 C 165.48 103.10 164.78 102.18 163.78 102.05 L 162.79 101.91 C 161.79 101.78 160.87 102.48 160.74 103.48 C 160.60 104.47 161.30 105.39 162.30 105.53 Z M 163.13 105.63 L 164.10 105.85 C 165.08 106.07 166.06 105.45 166.28 104.47 C 166.50 103.49 165.88 102.51 164.90 102.29 L 163.93 102.08 C 162.95 101.86 161.98 102.47 161.76 103.46 C 161.54 104.44 162.15 105.41 163.13 105.63 Z M 163.91 105.80 L 164.85 106.12 C 165.80 106.44 166.84 105.93 167.16 104.98 C 167.48 104.02 166.97 102.99 166.02 102.67 L 165.09 102.35 C 164.13 102.02 163.10 102.53 162.77 103.49 C 162.45 104.44 162.96 105.47 163.91 105.80 Z M 164.65 106.03 L 165.55 106.46 C 166.46 106.90 167.54 106.51 167.98 105.60 C 168.41 104.70 168.03 103.61 167.12 103.18 L 166.22 102.75 C 165.31 102.31 164.23 102.70 163.79 103.61 C 163.36 104.51 163.74 105.60 164.65 106.03 Z M 165.37 106.36 L 166.22 106.89 C 167.07 107.43 168.19 107.17 168.73 106.32 C 169.26 105.47 169.00 104.34 168.15 103.81 L 167.30 103.28 C 166.45 102.74 165.32 103.00 164.79 103.85 C 164.26 104.70 164.51 105.83 165.37 106.36 Z M 166.05 106.77 L 166.83 107.40 C 167.62 108.03 168.76 107.90 169.39 107.11 C 170.02 106.33 169.89 105.18 169.10 104.56 L 168.32 103.93 C 167.53 103.30 166.39 103.43 165.76 104.22 C 165.13 105.00 165.26 106.15 166.05 106.77 Z M 166.67 107.26 L 167.37 107.96 C 168.07 108.67 169.23 108.68 169.94 107.97 C 170.65 107.27 170.66 106.12 169.95 105.40 L 169.26 104.70 C 168.55 103.99 167.40 103.98 166.69 104.69 C 165.97 105.39 165.97 106.54 166.67 107.26 Z M 167.23 107.80 L 167.82 108.56 C 168.44 109.35 169.58 109.49 170.37 108.87 C 171.16 108.25 171.30 107.11 170.68 106.32 L 170.09 105.56 C 169.47 104.77 168.33 104.63 167.54 105.25 C 166.75 105.87 166.61 107.01 167.23 107.80 Z M 167.72 108.41 L 168.24 109.24 C 168.78 110.09 169.91 110.34 170.75 109.80 C 171.60 109.26 171.85 108.14 171.31 107.29 L 170.79 106.46 C 170.25 105.62 169.13 105.37 168.28 105.90 C 167.43 106.44 167.18 107.56 167.72 108.41 Z M 168.18 109.12 L 168.66 110.02 C 169.13 110.90 170.23 111.24 171.11 110.77 C 172.00 110.29 172.33 109.19 171.86 108.31 L 171.38 107.41 C 170.91 106.52 169.81 106.19 168.92 106.66 C 168.04 107.13 167.70 108.23 168.18 109.12 Z M 168.61 109.93 L 169.06 110.88 C 169.48 111.79 170.56 112.18 171.47 111.76 C 172.38 111.33 172.77 110.25 172.35 109.34 L 171.90 108.39 C 171.48 107.49 170.40 107.10 169.49 107.52 C 168.58 107.95 168.19 109.03 168.61 109.93 Z M 169.04 110.83 L 169.44 111.76 C 169.83 112.68 170.90 113.11 171.82 112.72 C 172.74 112.32 173.17 111.25 172.77 110.33 L 172.37 109.40 C 171.97 108.48 170.91 108.05 169.99 108.45 C 169.07 108.84 168.64 109.91 169.04 110.83 Z M 169.42 111.72 L 169.81 112.68 C 170.18 113.61 171.23 114.06 172.16 113.69 C 173.09 113.32 173.54 112.26 173.17 111.33 L 172.79 110.38 C 172.41 109.45 171.36 109.00 170.43 109.37 C 169.50 109.74 169.05 110.79 169.42 111.72 Z M 169.80 112.64 L 170.15 113.58 C 170.50 114.52 171.54 114.99 172.48 114.64 C 173.41 114.29 173.88 113.25 173.53 112.31 L 173.18 111.37 C 172.83 110.44 171.79 109.96 170.85 110.31 C 169.92 110.67 169.45 111.71 169.80 112.64 Z M 170.14 113.55 L 170.46 114.44 C 170.79 115.38 171.82 115.88 172.76 115.55 C 173.70 115.21 174.19 114.18 173.86 113.24 L 173.54 112.35 C 173.21 111.41 172.18 110.92 171.24 111.25 C 170.30 111.58 169.81 112.61 170.14 113.55 Z M 170.44 114.40 L 170.77 115.41 C 171.08 116.36 172.10 116.87 173.04 116.56 C 173.99 116.26 174.51 115.24 174.20 114.29 L 173.87 113.28 C 173.56 112.34 172.54 111.82 171.60 112.13 C 170.65 112.44 170.14 113.46 170.44 114.40 Z M 170.76 115.37 L 171.05 116.31 C 171.33 117.26 172.34 117.80 173.29 117.52 C 174.24 117.23 174.78 116.23 174.49 115.28 L 174.21 114.34 C 173.92 113.39 172.92 112.85 171.97 113.13 C 171.02 113.42 170.48 114.42 170.76 115.37 Z M 171.04 116.29 L 171.31 117.21 C 171.58 118.16 172.57 118.71 173.52 118.44 C 174.47 118.17 175.03 117.18 174.76 116.23 L 174.49 115.31 C 174.22 114.35 173.23 113.80 172.28 114.07 C 171.33 114.34 170.77 115.33 171.04 116.29 Z M 171.31 117.20 L 171.57 118.13 C 171.83 119.08 172.82 119.63 173.77 119.37 C 174.72 119.10 175.28 118.11 175.01 117.16 L 174.75 116.24 C 174.49 115.28 173.50 114.73 172.55 114.99 C 171.60 115.26 171.04 116.25 171.31 117.20 Z M 171.57 118.13 L 171.83 119.07 C 172.10 120.02 173.08 120.57 174.04 120.31 C 174.99 120.04 175.54 119.05 175.27 118.10 L 175.01 117.16 C 174.74 116.21 173.76 115.66 172.81 115.92 C 171.86 116.19 171.30 117.17 171.57 118.13 Z M 171.83 119.06 L 172.10 120.03 C 172.36 120.98 173.34 121.54 174.29 121.28 C 175.24 121.02 175.80 120.04 175.54 119.09 L 175.27 118.11 C 175.01 117.16 174.03 116.60 173.08 116.87 C 172.13 117.13 171.57 118.11 171.83 119.06 Z M 172.10 120.01 L 172.36 121.01 C 172.61 121.96 173.58 122.53 174.53 122.28 C 175.49 122.03 176.05 121.06 175.81 120.11 L 175.54 119.11 C 175.29 118.16 174.32 117.59 173.37 117.84 C 172.42 118.09 171.85 119.06 172.10 120.01 Z M 172.35 120.98 L 172.59 121.95 C 172.83 122.90 173.79 123.49 174.74 123.25 C 175.70 123.02 176.28 122.06 176.05 121.10 L 175.81 120.13 C 175.58 119.18 174.61 118.60 173.66 118.83 C 172.70 119.07 172.12 120.03 172.35 120.98 Z M 172.59 121.93 L 172.81 122.89 C 173.03 123.85 173.99 124.44 174.94 124.22 C 175.90 124.00 176.49 123.05 176.27 122.09 L 176.05 121.13 C 175.83 120.17 174.88 119.57 173.92 119.80 C 172.96 120.02 172.37 120.97 172.59 121.93 Z M 172.81 122.88 L 173.03 123.85 C 173.24 124.81 174.19 125.41 175.15 125.20 C 176.10 124.99 176.70 124.04 176.49 123.08 L 176.27 122.10 C 176.06 121.15 175.11 120.55 174.16 120.76 C 173.20 120.97 172.60 121.92 172.81 122.88 Z M 173.03 123.85 L 173.25 124.84 C 173.46 125.80 174.40 126.40 175.36 126.19 C 176.31 125.98 176.92 125.04 176.71 124.08 L 176.49 123.09 C 176.28 122.13 175.34 121.53 174.38 121.74 C 173.42 121.95 172.82 122.89 173.03 123.85 Z M 173.25 124.84 L 173.46 125.79 C 173.67 126.74 174.61 127.35 175.57 127.14 C 176.52 126.93 177.13 125.98 176.92 125.03 L 176.71 124.08 C 176.50 123.12 175.55 122.52 174.60 122.73 C 173.64 122.94 173.04 123.89 173.25 124.84 Z M 173.46 125.79 L 173.67 126.75 C 173.88 127.70 174.83 128.31 175.78 128.10 C 176.73 127.89 177.33 126.94 177.13 125.99 L 176.91 125.03 C 176.70 124.08 175.76 123.47 174.81 123.68 C 173.85 123.89 173.25 124.84 173.46 125.79 Z M 173.67 126.74 L 173.89 127.73 C 174.09 128.68 175.03 129.28 175.98 129.08 C 176.94 128.87 177.54 127.93 177.34 126.98 L 177.12 126.00 C 176.92 125.05 175.98 124.44 175.03 124.65 C 174.07 124.85 173.47 125.79 173.67 126.74 Z M 173.89 127.71 L 174.10 128.72 C 174.30 129.67 175.23 130.28 176.18 130.09 C 177.13 129.89 177.74 128.95 177.55 128.00 L 177.34 126.99 C 177.14 126.04 176.20 125.43 175.25 125.63 C 174.30 125.83 173.69 126.76 173.89 127.71 Z M 174.10 128.70 L 174.29 129.68 C 174.48 130.63 175.40 131.25 176.36 131.06 C 177.31 130.87 177.93 129.94 177.74 128.99 L 177.55 128.02 C 177.36 127.07 176.43 126.45 175.48 126.64 C 174.53 126.82 173.91 127.75 174.10 128.70 Z M 174.29 129.66 L 174.47 130.63 C 174.65 131.58 175.57 132.21 176.53 132.02 C 177.48 131.84 178.10 130.92 177.92 129.97 L 177.74 129.01 C 177.56 128.05 176.64 127.43 175.69 127.61 C 174.73 127.79 174.11 128.71 174.29 129.66 Z M 174.47 130.62 L 174.66 131.60 C 174.83 132.55 175.75 133.18 176.70 133.01 C 177.65 132.83 178.28 131.92 178.10 130.96 L 177.92 129.98 C 177.75 129.03 176.83 128.40 175.88 128.58 C 174.93 128.75 174.30 129.67 174.47 130.62 Z M 174.66 131.60 L 174.84 132.59 C 175.01 133.55 175.93 134.18 176.88 134.00 C 177.83 133.83 178.46 132.92 178.28 131.96 L 178.10 130.97 C 177.93 130.02 177.01 129.39 176.06 129.56 C 175.11 129.73 174.48 130.65 174.66 131.60 Z M 174.84 132.60 L 175.03 133.60 C 175.20 134.55 176.12 135.18 177.06 135.00 C 178.01 134.83 178.64 133.92 178.47 132.97 L 178.28 131.96 C 178.11 131.01 177.19 130.39 176.25 130.56 C 175.30 130.74 174.67 131.65 174.84 132.60 Z M 175.03 133.61 L 175.21 134.57 C 175.39 135.52 176.30 136.14 177.25 135.97 C 178.20 135.79 178.82 134.87 178.64 133.93 L 178.46 132.96 C 178.28 132.02 177.37 131.39 176.43 131.57 C 175.48 131.75 174.85 132.66 175.03 133.61 Z M 175.22 134.58 L 175.40 135.55 C 175.59 136.50 176.50 137.12 177.44 136.94 C 178.39 136.76 179.01 135.84 178.83 134.90 L 178.64 133.92 C 178.46 132.98 177.55 132.36 176.60 132.54 C 175.66 132.72 175.04 133.63 175.22 134.58 Z M 175.41 135.56 L 175.60 136.54 C 175.79 137.49 176.70 138.10 177.64 137.92 C 178.59 137.73 179.20 136.82 179.02 135.87 L 178.82 134.89 C 178.64 133.95 177.72 133.33 176.78 133.52 C 175.84 133.70 175.22 134.62 175.41 135.56 Z M 175.60 136.55 L 175.80 137.54 C 175.99 138.48 176.91 139.09 177.85 138.91 C 178.79 138.72 179.40 137.80 179.21 136.86 L 179.01 135.87 C 178.82 134.93 177.91 134.32 176.97 134.51 C 176.03 134.69 175.42 135.61 175.60 136.55 Z M 175.81 137.55 L 176.01 138.54 C 176.20 139.47 177.12 140.08 178.06 139.89 C 179.00 139.70 179.60 138.78 179.41 137.84 L 179.21 136.85 C 179.02 135.91 178.10 135.31 177.16 135.50 C 176.22 135.69 175.62 136.61 175.81 137.55 Z M 176.01 138.54 L 176.21 139.50 C 176.41 140.44 177.33 141.04 178.26 140.85 C 179.20 140.65 179.80 139.73 179.61 138.80 L 179.41 137.83 C 179.21 136.90 178.29 136.30 177.36 136.49 C 176.42 136.69 175.82 137.60 176.01 138.54 Z M 176.22 139.51 L 176.42 140.48 C 176.62 141.41 177.53 142.01 178.47 141.81 C 179.41 141.62 180.00 140.70 179.81 139.76 L 179.60 138.79 C 179.41 137.86 178.49 137.26 177.55 137.46 C 176.62 137.65 176.02 138.57 176.22 139.51 Z M 176.42 140.48 L 176.63 141.46 C 176.83 142.39 177.74 142.99 178.68 142.79 C 179.61 142.59 180.21 141.67 180.01 140.74 L 179.80 139.76 C 179.61 138.83 178.69 138.23 177.76 138.43 C 176.82 138.63 176.22 139.54 176.42 140.48 Z M 176.63 141.45 L 176.84 142.44 C 177.04 143.38 177.95 143.97 178.88 143.78 C 179.82 143.58 180.41 142.67 180.22 141.73 L 180.01 140.74 C 179.81 139.81 178.90 139.21 177.96 139.41 C 177.03 139.61 176.43 140.52 176.63 141.45 Z M 176.84 142.44 L 177.05 143.44 C 177.24 144.37 178.16 144.97 179.09 144.77 C 180.02 144.58 180.62 143.67 180.42 142.73 L 180.22 141.74 C 180.02 140.81 179.11 140.21 178.18 140.40 C 177.25 140.60 176.65 141.51 176.84 142.44 Z M 177.05 143.43 L 177.25 144.42 C 177.45 145.35 178.36 145.95 179.29 145.76 C 180.22 145.57 180.82 144.66 180.63 143.72 L 180.42 142.74 C 180.23 141.81 179.32 141.21 178.39 141.40 C 177.46 141.59 176.86 142.50 177.05 143.43 Z M 177.26 144.41 L 177.46 145.40 C 177.65 146.33 178.55 146.93 179.48 146.74 C 180.41 146.56 181.01 145.65 180.83 144.72 L 180.62 143.73 C 180.43 142.80 179.53 142.20 178.60 142.39 C 177.67 142.58 177.07 143.48 177.26 144.41 Z M 177.46 145.40 L 177.66 146.39 C 177.85 147.32 178.75 147.92 179.68 147.73 C 180.61 147.54 181.21 146.64 181.02 145.71 L 180.82 144.72 C 180.64 143.79 179.73 143.19 178.80 143.38 C 177.87 143.57 177.27 144.47 177.46 145.40 Z M 177.66 146.39 L 177.86 147.36 C 178.04 148.29 178.95 148.89 179.87 148.71 C 180.80 148.52 181.40 147.62 181.22 146.69 L 181.02 145.71 C 180.83 144.78 179.93 144.18 179.00 144.37 C 178.07 144.55 177.47 145.46 177.66 146.39 Z M 177.86 147.36 L 178.05 148.32 C 178.24 149.25 179.14 149.85 180.06 149.67 C 180.99 149.48 181.59 148.58 181.41 147.65 L 181.21 146.69 C 181.03 145.76 180.13 145.16 179.20 145.35 C 178.27 145.53 177.67 146.44 177.86 147.36 Z M 178.05 148.32 L 178.26 149.34 C 178.44 150.26 179.34 150.86 180.27 150.68 C 181.19 150.49 181.79 149.59 181.61 148.66 L 181.40 147.65 C 181.22 146.73 180.32 146.13 179.39 146.31 C 178.47 146.50 177.87 147.40 178.05 148.32 Z M 178.26 149.34 L 178.46 150.33 C 178.64 151.25 179.54 151.85 180.47 151.66 C 181.39 151.48 181.99 150.58 181.80 149.65 L 181.60 148.66 C 181.42 147.74 180.52 147.14 179.59 147.33 C 178.67 147.51 178.07 148.41 178.26 149.34 Z M 178.46 150.33 L 178.66 151.30 C 178.85 152.23 179.75 152.82 180.67 152.63 C 181.59 152.45 182.19 151.55 182.00 150.62 L 181.80 149.65 C 181.61 148.73 180.71 148.13 179.79 148.32 C 178.87 148.51 178.27 149.41 178.46 150.33 Z M 178.66 151.31 L 178.86 152.27 C 179.05 153.19 179.95 153.78 180.87 153.59 C 181.79 153.40 182.39 152.50 182.20 151.58 L 182.00 150.62 C 181.81 149.70 180.90 149.10 179.98 149.30 C 179.06 149.49 178.47 150.39 178.66 151.31 Z M 178.86 152.28 L 179.07 153.24 C 179.26 154.16 180.17 154.75 181.08 154.55 C 182.00 154.36 182.59 153.45 182.40 152.53 L 182.19 151.57 C 182.00 150.65 181.09 150.07 180.18 150.26 C 179.26 150.46 178.67 151.36 178.86 152.28 Z M 179.07 153.25 L 179.28 154.22 C 179.48 155.14 180.39 155.72 181.31 155.52 C 182.22 155.32 182.80 154.42 182.60 153.50 L 182.39 152.53 C 182.19 151.61 181.29 151.03 180.37 151.23 C 179.45 151.42 178.87 152.33 179.07 153.25 Z M 179.29 154.23 L 179.50 155.21 C 179.70 156.12 180.61 156.70 181.53 156.50 C 182.44 156.30 183.02 155.39 182.82 154.47 L 182.60 153.50 C 182.40 152.58 181.49 152.00 180.58 152.21 C 179.66 152.41 179.08 153.31 179.29 154.23 Z M 179.50 155.21 L 179.72 156.18 C 179.92 157.10 180.83 157.67 181.74 157.47 C 182.66 157.27 183.23 156.36 183.03 155.45 L 182.82 154.47 C 182.61 153.56 181.71 152.98 180.79 153.18 C 179.88 153.39 179.30 154.29 179.50 155.21 Z M 179.72 156.18 L 179.94 157.16 C 180.14 158.07 181.04 158.65 181.95 158.45 C 182.87 158.25 183.45 157.34 183.24 156.43 L 183.03 155.45 C 182.83 154.54 181.93 153.96 181.01 154.16 C 180.10 154.36 179.52 155.27 179.72 156.18 Z M 179.94 157.15 L 180.15 158.13 C 180.34 159.04 181.24 159.62 182.16 159.42 C 183.07 159.23 183.65 158.33 183.45 157.41 L 183.24 156.44 C 183.05 155.52 182.15 154.94 181.23 155.14 C 180.32 155.34 179.74 156.24 179.94 157.15 Z M 180.14 158.12 L 180.35 159.09 C 180.54 160.01 181.44 160.59 182.35 160.40 C 183.26 160.21 183.85 159.31 183.66 158.40 L 183.45 157.42 C 183.26 156.51 182.37 155.92 181.45 156.12 C 180.54 156.31 179.95 157.20 180.14 158.12 Z M 180.35 159.08 L 180.55 160.06 C 180.73 160.97 181.62 161.57 182.54 161.38 C 183.45 161.20 184.04 160.30 183.86 159.39 L 183.66 158.41 C 183.47 157.50 182.58 156.91 181.67 157.09 C 180.75 157.28 180.16 158.17 180.35 159.08 Z M 180.55 160.05 L 180.74 161.03 C 180.92 161.95 181.80 162.54 182.72 162.36 C 183.63 162.18 184.23 161.30 184.05 160.38 L 183.86 159.40 C 183.68 158.49 182.79 157.89 181.88 158.07 C 180.96 158.25 180.37 159.13 180.55 160.05 Z M 180.74 161.02 L 180.92 162.00 C 181.10 162.92 181.98 163.52 182.89 163.35 C 183.81 163.17 184.41 162.29 184.24 161.38 L 184.05 160.39 C 183.88 159.48 183.00 158.88 182.08 159.05 C 181.17 159.22 180.56 160.10 180.74 161.02 Z M 180.92 161.99 L 181.10 162.98 C 181.27 163.89 182.15 164.50 183.06 164.33 C 183.98 164.17 184.58 163.29 184.42 162.38 L 184.24 161.39 C 184.07 160.47 183.19 159.87 182.28 160.04 C 181.36 160.20 180.76 161.08 180.92 161.99 Z M 181.10 162.97 L 181.28 163.95 C 181.44 164.87 182.31 165.48 183.22 165.32 C 184.14 165.16 184.75 164.29 184.59 163.37 L 184.42 162.39 C 184.26 161.47 183.38 160.86 182.47 161.02 C 181.55 161.18 180.94 162.05 181.10 162.97 Z M 181.28 163.94 L 181.45 164.93 C 181.60 165.85 182.47 166.46 183.38 166.31 C 184.30 166.15 184.91 165.29 184.76 164.37 L 184.59 163.38 C 184.43 162.47 183.57 161.85 182.65 162.01 C 181.74 162.16 181.12 163.03 181.28 163.94 Z M 181.45 164.92 L 181.61 165.91 C 181.76 166.82 182.62 167.44 183.53 167.29 C 184.45 167.14 185.07 166.28 184.92 165.37 L 184.75 164.38 C 184.61 163.47 183.74 162.85 182.83 163.00 C 181.92 163.15 181.30 164.01 181.45 164.92 Z M 181.61 165.90 L 181.77 166.89 C 181.91 167.80 182.77 168.42 183.68 168.28 C 184.59 168.13 185.22 167.27 185.07 166.36 L 184.92 165.38 C 184.77 164.46 183.91 163.84 183.00 163.99 C 182.09 164.13 181.47 164.99 181.61 165.90 Z M 181.77 166.88 L 181.92 167.87 C 182.06 168.78 182.91 169.41 183.82 169.27 C 184.74 169.13 185.36 168.27 185.22 167.36 L 185.07 166.37 C 184.93 165.46 184.08 164.83 183.17 164.97 C 182.25 165.11 181.63 165.97 181.77 166.88 Z M 181.92 167.86 L 182.07 168.85 C 182.20 169.76 183.05 170.39 183.96 170.25 C 184.87 170.12 185.50 169.27 185.37 168.36 L 185.22 167.37 C 185.09 166.46 184.24 165.83 183.33 165.97 C 182.42 166.10 181.79 166.95 181.92 167.86 Z M 182.07 168.84 L 182.21 169.83 C 182.34 170.74 183.18 171.37 184.09 171.24 C 185.00 171.11 185.63 170.27 185.50 169.36 L 185.36 168.37 C 185.24 167.46 184.39 166.83 183.48 166.96 C 182.57 167.09 181.94 167.93 182.07 168.84 Z M 182.21 169.82 L 182.34 170.80 C 182.47 171.71 183.31 172.35 184.22 172.23 C 185.12 172.10 185.76 171.27 185.64 170.36 L 185.50 169.37 C 185.38 168.46 184.54 167.82 183.63 167.95 C 182.72 168.07 182.09 168.91 182.21 169.82 Z M 182.35 170.79 L 182.48 171.79 C 182.59 172.70 183.42 173.34 184.33 173.22 C 185.24 173.10 185.88 172.27 185.77 171.36 L 185.64 170.37 C 185.52 169.46 184.69 168.82 183.78 168.94 C 182.87 169.05 182.23 169.89 182.35 170.79 Z M 182.48 171.78 L 182.60 172.82 C 182.72 173.72 183.54 174.37 184.45 174.26 C 185.36 174.15 186.00 173.32 185.89 172.41 L 185.76 171.38 C 185.65 170.47 184.83 169.82 183.92 169.93 C 183.01 170.05 182.37 170.87 182.48 171.78 Z M 182.61 172.81 L 182.73 173.83 C 182.83 174.74 183.65 175.39 184.56 175.28 C 185.46 175.18 186.11 174.36 186.01 173.45 L 185.89 172.42 C 185.78 171.52 184.96 170.87 184.06 170.97 C 183.15 171.08 182.50 171.90 182.61 172.81 Z M 182.73 173.82 L 182.84 174.82 C 182.94 175.72 183.75 176.38 184.66 176.28 C 185.56 176.18 186.22 175.36 186.12 174.46 L 186.01 173.46 C 185.91 172.55 185.09 171.90 184.19 172.00 C 183.28 172.10 182.63 172.92 182.73 173.82 Z M 182.84 174.81 L 182.94 175.76 C 183.03 176.66 183.84 177.32 184.75 177.22 C 185.65 177.13 186.31 176.32 186.21 175.42 L 186.11 174.47 C 186.02 173.56 185.21 172.91 184.31 173.00 C 183.40 173.10 182.75 173.90 182.84 174.81 Z M 182.94 175.75 L 183.04 176.72 C 183.13 177.62 183.93 178.28 184.83 178.20 C 185.73 178.11 186.39 177.30 186.31 176.40 L 186.21 175.43 C 186.12 174.53 185.32 173.87 184.42 173.95 C 183.51 174.04 182.85 174.84 182.94 175.75 Z M 183.04 176.71 L 183.13 177.69 C 183.20 178.59 184.00 179.26 184.90 179.18 C 185.80 179.10 186.47 178.30 186.39 177.40 L 186.30 176.42 C 186.22 175.52 185.43 174.85 184.53 174.93 C 183.63 175.01 182.96 175.80 183.04 176.71 Z M 183.13 177.67 L 183.20 178.63 C 183.26 179.53 184.05 180.21 184.95 180.14 C 185.85 180.08 186.53 179.29 186.46 178.39 L 186.39 177.42 C 186.32 176.52 185.54 175.85 184.64 175.91 C 183.74 175.98 183.06 176.76 183.13 177.67 Z M 183.20 178.61 L 183.26 179.61 C 183.31 180.51 184.09 181.20 184.99 181.15 C 185.89 181.09 186.57 180.32 186.52 179.42 L 186.46 178.41 C 186.41 177.51 185.63 176.83 184.73 176.88 C 183.83 176.94 183.15 177.71 183.20 178.61 Z M 183.26 179.59 L 183.31 180.57 C 183.35 181.47 184.11 182.16 185.01 182.12 C 185.91 182.08 186.60 181.32 186.56 180.42 L 186.52 179.44 C 186.48 178.54 185.71 177.85 184.81 177.89 C 183.92 177.93 183.22 178.69 183.26 179.59 Z M 183.31 180.54 L 183.34 181.53 C 183.36 182.43 184.11 183.13 185.01 183.11 C 185.91 183.08 186.61 182.33 186.59 181.43 L 186.56 180.45 C 186.53 179.55 185.79 178.84 184.89 178.87 C 183.99 178.89 183.28 179.64 183.31 180.54 Z M 183.34 181.49 L 183.34 182.51 C 183.35 183.41 184.08 184.13 184.97 184.13 C 185.87 184.12 186.60 183.39 186.59 182.50 L 186.59 181.47 C 186.58 180.58 185.85 179.85 184.96 179.86 C 184.06 179.86 183.33 180.59 183.34 181.49 Z M 183.35 182.45 L 183.32 183.48 C 183.29 184.37 183.99 185.12 184.89 185.15 C 185.78 185.17 186.53 184.47 186.56 183.57 L 186.59 182.55 C 186.61 181.65 185.91 180.91 185.01 180.88 C 184.12 180.85 183.37 181.56 183.35 182.45 Z M 183.32 183.40 L 183.24 184.44 C 183.18 185.33 183.85 186.11 184.74 186.18 C 185.63 186.24 186.41 185.58 186.47 184.68 L 186.55 183.65 C 186.62 182.76 185.95 181.98 185.06 181.91 C 184.17 181.84 183.39 182.51 183.32 183.40 Z M 183.26 184.32 L 183.10 185.42 C 182.96 186.30 183.57 187.12 184.45 187.25 C 185.33 187.39 186.15 186.78 186.29 185.90 L 186.45 184.81 C 186.59 183.92 185.98 183.10 185.10 182.97 C 184.22 182.83 183.40 183.44 183.26 184.32 Z M 183.15 185.20 L 182.86 186.17 C 182.61 187.03 183.10 187.92 183.95 188.17 C 184.80 188.42 185.69 187.94 185.95 187.09 L 186.23 186.12 C 186.48 185.26 186.00 184.37 185.15 184.12 C 184.30 183.87 183.40 184.35 183.15 185.20 Z M 183.01 185.84 L 182.56 186.64 C 182.13 187.41 182.40 188.38 183.17 188.82 C 183.94 189.25 184.92 188.98 185.35 188.21 L 185.80 187.42 C 186.23 186.65 185.96 185.67 185.19 185.24 C 184.42 184.80 183.44 185.07 183.01 185.84 Z M 182.91 186.22 L 182.26 186.79 C 181.59 187.37 181.53 188.38 182.10 189.04 C 182.68 189.70 183.69 189.77 184.35 189.19 L 185.00 188.62 C 185.67 188.05 185.74 187.04 185.16 186.38 C 184.58 185.71 183.57 185.65 182.91 186.22 Z M 182.74 186.51 L 181.88 186.84 C 181.06 187.15 180.65 188.06 180.96 188.88 C 181.27 189.70 182.19 190.11 183.01 189.80 L 183.87 189.48 C 184.69 189.17 185.10 188.25 184.79 187.43 C 184.48 186.61 183.56 186.20 182.74 186.51 Z M 182.27 186.75 L 181.27 186.87 C 180.40 186.96 179.78 187.75 179.88 188.61 C 179.98 189.48 180.76 190.10 181.62 190.00 L 182.62 189.89 C 183.49 189.79 184.11 189.01 184.01 188.14 C 183.91 187.28 183.13 186.65 182.27 186.75 Z M 181.53 186.87 L 180.46 186.81 C 179.60 186.76 178.86 187.43 178.81 188.29 C 178.77 189.16 179.43 189.90 180.30 189.94 L 181.36 190.00 C 182.23 190.05 182.97 189.38 183.01 188.52 C 183.06 187.65 182.39 186.91 181.53 186.87 Z M 180.64 186.84 L 179.65 186.67 C 178.79 186.52 177.99 187.09 177.84 187.94 C 177.70 188.79 178.27 189.60 179.12 189.75 L 180.12 189.92 C 180.97 190.06 181.77 189.49 181.92 188.64 C 182.06 187.79 181.49 186.98 180.64 186.84 Z M 179.78 186.69 L 178.84 186.45 C 178.00 186.23 177.15 186.73 176.93 187.57 C 176.72 188.40 177.22 189.25 178.05 189.47 L 178.99 189.72 C 179.82 189.93 180.68 189.43 180.89 188.60 C 181.11 187.77 180.61 186.91 179.78 186.69 Z M 178.93 186.48 L 177.99 186.17 C 177.18 185.90 176.29 186.34 176.02 187.16 C 175.75 187.98 176.20 188.86 177.02 189.13 L 177.96 189.44 C 178.78 189.71 179.66 189.27 179.93 188.45 C 180.20 187.63 179.75 186.75 178.93 186.48 Z M 178.06 186.19 L 177.10 185.83 C 176.29 185.52 175.39 185.93 175.09 186.74 C 174.78 187.54 175.19 188.44 176.00 188.75 L 176.95 189.11 C 177.76 189.42 178.66 189.01 178.97 188.20 C 179.27 187.40 178.86 186.50 178.06 186.19 Z M 177.13 185.84 L 176.19 185.46 C 175.39 185.14 174.48 185.52 174.16 186.32 C 173.83 187.12 174.22 188.03 175.02 188.36 L 175.96 188.74 C 176.76 189.06 177.67 188.67 178.00 187.87 C 178.32 187.07 177.93 186.16 177.13 185.84 Z M 176.20 185.47 L 175.31 185.10 C 174.51 184.77 173.60 185.15 173.27 185.94 C 172.94 186.74 173.32 187.65 174.11 187.98 L 175.01 188.35 C 175.80 188.68 176.72 188.30 177.04 187.50 C 177.37 186.71 177.00 185.80 176.20 185.47 Z M 175.31 185.10 L 174.40 184.71 C 173.60 184.38 172.69 184.75 172.35 185.55 C 172.02 186.34 172.39 187.26 173.19 187.59 L 174.10 187.98 C 174.90 188.31 175.81 187.94 176.15 187.14 C 176.48 186.35 176.11 185.43 175.31 185.10 Z M 174.40 184.72 L 173.47 184.32 C 172.68 183.98 171.76 184.35 171.42 185.15 C 171.09 185.94 171.46 186.86 172.25 187.19 L 173.18 187.59 C 173.98 187.93 174.89 187.56 175.23 186.76 C 175.57 185.97 175.20 185.05 174.40 184.72 Z M 173.47 184.32 L 172.53 183.92 C 171.74 183.58 170.82 183.95 170.48 184.74 C 170.14 185.53 170.51 186.45 171.30 186.79 L 172.25 187.19 C 173.04 187.53 173.96 187.16 174.29 186.37 C 174.63 185.58 174.27 184.66 173.47 184.32 Z M 172.53 183.92 L 172.01 183.70 C 171.22 183.36 170.30 183.72 169.97 184.52 C 169.63 185.31 169.99 186.23 170.78 186.57 L 171.30 186.79 C 172.09 187.13 173.01 186.76 173.35 185.97 C 173.69 185.17 173.32 184.26 172.53 183.92 Z"
      fill="black"
      fill-rule="nonzero" /><path d="M 134.00 122.40 L 134.99 122.15 C 135.88 121.93 136.42 121.04 136.20 120.15 C 135.99 119.27 135.09 118.72 134.21 118.94 L 133.21 119.19 C 132.32 119.40 131.78 120.30 132.00 121.18 C 132.22 122.07 133.11 122.61 134.00 122.40 Z M 134.84 122.19 L 135.83 122.04 C 136.73 121.90 137.36 121.06 137.22 120.16 C 137.09 119.25 136.25 118.63 135.34 118.76 L 134.36 118.91 C 133.45 119.04 132.83 119.88 132.96 120.79 C 133.09 121.70 133.94 122.32 134.84 122.19 Z M 135.50 122.06 L 136.47 122.11 C 137.39 122.15 138.17 121.45 138.21 120.53 C 138.26 119.61 137.55 118.83 136.63 118.79 L 135.67 118.74 C 134.75 118.69 133.97 119.40 133.93 120.32 C 133.88 121.23 134.59 122.01 135.50 122.06 Z M 136.05 122.02 L 136.91 122.29 C 137.77 122.57 138.70 122.09 138.98 121.22 C 139.26 120.35 138.78 119.42 137.91 119.15 L 137.05 118.88 C 136.19 118.60 135.26 119.08 134.98 119.95 C 134.70 120.82 135.18 121.74 136.05 122.02 Z M 136.65 122.16 L 137.51 122.61 C 138.30 123.02 139.28 122.72 139.70 121.92 C 140.12 121.13 139.81 120.15 139.02 119.73 L 138.16 119.28 C 137.37 118.87 136.39 119.17 135.97 119.96 C 135.55 120.76 135.86 121.74 136.65 122.16 Z M 137.41 122.52 L 138.31 123.09 C 139.06 123.56 140.04 123.33 140.51 122.59 C 140.98 121.84 140.76 120.86 140.01 120.39 L 139.11 119.82 C 138.37 119.35 137.38 119.57 136.91 120.32 C 136.44 121.06 136.67 122.05 137.41 122.52 Z M 138.31 123.06 L 139.18 123.62 C 139.91 124.08 140.88 123.87 141.35 123.14 C 141.82 122.41 141.61 121.43 140.88 120.96 L 140.01 120.41 C 139.28 119.94 138.30 120.15 137.84 120.89 C 137.37 121.62 137.58 122.59 138.31 123.06 Z M 139.21 123.62 L 140.03 124.13 C 140.77 124.58 141.73 124.36 142.19 123.62 C 142.64 122.88 142.41 121.92 141.67 121.46 L 140.85 120.96 C 140.11 120.50 139.15 120.73 138.69 121.47 C 138.24 122.20 138.47 123.17 139.21 123.62 Z M 140.05 124.14 L 140.91 124.66 C 141.65 125.10 142.61 124.86 143.06 124.12 C 143.50 123.38 143.26 122.42 142.52 121.97 L 141.66 121.46 C 140.92 121.01 139.96 121.25 139.51 121.99 C 139.07 122.73 139.31 123.69 140.05 124.14 Z M 140.92 124.66 L 141.81 125.18 C 142.55 125.62 143.51 125.38 143.95 124.63 C 144.39 123.89 144.14 122.93 143.40 122.49 L 142.51 121.97 C 141.77 121.53 140.81 121.78 140.37 122.52 C 139.93 123.26 140.18 124.22 140.92 124.66 Z M 141.81 125.19 L 142.49 125.59 C 143.24 126.02 144.19 125.77 144.63 125.03 C 145.07 124.29 144.82 123.33 144.07 122.89 L 143.39 122.49 C 142.65 122.06 141.69 122.30 141.25 123.05 C 140.82 123.79 141.07 124.75 141.81 125.19 Z"
      fill="black"
      fill-rule="nonzero" /><path d="M 150.73 110.69 L 150.40 111.62 C 150.10 112.48 150.55 113.44 151.42 113.74 C 152.29 114.05 153.24 113.59 153.55 112.72 L 153.88 111.79 C 154.18 110.92 153.73 109.97 152.86 109.66 C 151.99 109.36 151.03 109.82 150.73 110.69 Z M 150.40 111.58 L 150.05 112.51 C 149.73 113.38 150.17 114.34 151.03 114.67 C 151.90 115.00 152.87 114.56 153.20 113.69 L 153.55 112.76 C 153.87 111.89 153.43 110.92 152.57 110.60 C 151.70 110.27 150.73 110.71 150.40 111.58 Z M 150.07 112.44 L 149.68 113.37 C 149.31 114.23 149.71 115.22 150.57 115.58 C 151.43 115.95 152.42 115.55 152.78 114.69 L 153.18 113.76 C 153.54 112.90 153.14 111.91 152.28 111.55 C 151.43 111.18 150.44 111.58 150.07 112.44 Z M 149.71 113.28 L 149.28 114.16 C 148.86 115.00 149.21 116.01 150.05 116.43 C 150.89 116.84 151.90 116.50 152.32 115.66 L 152.75 114.78 C 153.16 113.94 152.82 112.92 151.98 112.51 C 151.14 112.10 150.12 112.44 149.71 113.28 Z M 149.32 114.08 L 148.84 114.94 C 148.38 115.76 148.67 116.79 149.49 117.25 C 150.31 117.71 151.34 117.41 151.80 116.59 L 152.28 115.73 C 152.74 114.92 152.44 113.88 151.62 113.43 C 150.81 112.97 149.77 113.26 149.32 114.08 Z M 148.87 114.88 L 148.34 115.75 C 147.85 116.55 148.11 117.59 148.91 118.08 C 149.71 118.57 150.75 118.32 151.24 117.52 L 151.77 116.65 C 152.25 115.85 152.00 114.81 151.20 114.32 C 150.40 113.83 149.36 114.08 148.87 114.88 Z M 148.37 115.71 L 147.82 116.56 C 147.31 117.35 147.53 118.40 148.32 118.91 C 149.10 119.42 150.15 119.19 150.66 118.41 L 151.21 117.56 C 151.72 116.77 151.50 115.72 150.71 115.21 C 149.93 114.70 148.88 114.92 148.37 115.71 Z M 147.83 116.53 L 147.32 117.29 C 146.80 118.06 147.00 119.12 147.78 119.64 C 148.56 120.17 149.61 119.96 150.13 119.19 L 150.64 118.43 C 151.17 117.66 150.96 116.60 150.19 116.08 C 149.41 115.55 148.36 115.76 147.83 116.53 Z M 147.34 117.27 L 146.79 118.05 C 146.25 118.81 146.44 119.87 147.21 120.41 C 147.97 120.95 149.03 120.76 149.57 119.99 L 150.12 119.21 C 150.65 118.45 150.47 117.39 149.70 116.85 C 148.94 116.31 147.88 116.50 147.34 117.27 Z M 146.81 118.03 L 146.21 118.86 C 145.66 119.61 145.82 120.67 146.58 121.22 C 147.34 121.77 148.40 121.60 148.95 120.85 L 149.55 120.02 C 150.10 119.26 149.93 118.20 149.18 117.65 C 148.42 117.10 147.36 117.27 146.81 118.03 Z M 146.22 118.84 L 145.55 119.73 C 144.99 120.48 145.14 121.54 145.89 122.10 C 146.63 122.66 147.70 122.51 148.26 121.76 L 148.93 120.87 C 149.49 120.12 149.34 119.06 148.59 118.50 C 147.84 117.94 146.78 118.09 146.22 118.84 Z M 145.57 119.72 L 145.01 120.43 C 144.45 121.17 144.58 122.23 145.32 122.80 C 146.06 123.37 147.12 123.23 147.69 122.49 L 148.24 121.78 C 148.81 121.04 148.67 119.98 147.93 119.41 C 147.19 118.84 146.13 118.98 145.57 119.72 Z M 145.03 120.43 L 144.44 121.18 C 143.87 121.91 144.00 122.97 144.73 123.54 C 145.46 124.11 146.52 123.98 147.09 123.25 L 147.68 122.50 C 148.25 121.77 148.12 120.71 147.39 120.14 C 146.66 119.57 145.60 119.70 145.03 120.43 Z M 144.45 121.17 L 143.83 121.96 C 143.26 122.68 143.38 123.74 144.11 124.31 C 144.83 124.89 145.89 124.76 146.46 124.04 L 147.08 123.25 C 147.66 122.53 147.53 121.47 146.81 120.90 C 146.08 120.32 145.02 120.45 144.45 121.17 Z M 143.84 121.95 L 143.19 122.76 C 142.62 123.49 142.74 124.54 143.46 125.11 C 144.18 125.69 145.23 125.57 145.81 124.85 L 146.45 124.04 C 147.03 123.32 146.91 122.26 146.19 121.69 C 145.47 121.11 144.42 121.23 143.84 121.95 Z M 143.20 122.76 L 142.54 123.59 C 141.96 124.31 142.08 125.36 142.80 125.93 C 143.51 126.51 144.56 126.39 145.14 125.68 L 145.80 124.85 C 146.38 124.13 146.26 123.08 145.55 122.51 C 144.83 121.93 143.78 122.04 143.20 122.76 Z M 142.54 123.59 L 141.87 124.43 C 141.30 125.14 141.41 126.19 142.12 126.76 C 142.84 127.34 143.88 127.23 144.46 126.51 L 145.13 125.68 C 145.71 124.96 145.59 123.92 144.88 123.34 C 144.17 122.77 143.12 122.88 142.54 123.59 Z M 141.88 124.43 L 141.21 125.26 C 140.64 125.97 140.75 127.01 141.46 127.58 C 142.16 128.16 143.20 128.05 143.78 127.34 L 144.45 126.51 C 145.02 125.80 144.91 124.76 144.20 124.19 C 143.49 123.61 142.45 123.72 141.88 124.43 Z M 141.23 125.26 L 140.56 126.08 C 139.98 126.78 140.09 127.81 140.79 128.39 C 141.49 128.96 142.52 128.86 143.09 128.15 L 143.76 127.34 C 144.34 126.64 144.23 125.60 143.53 125.03 C 142.83 124.46 141.80 124.56 141.23 125.26 Z M 140.58 126.08 L 139.92 126.86 C 139.34 127.55 139.44 128.58 140.13 129.15 C 140.82 129.73 141.84 129.64 142.42 128.95 L 143.07 128.16 C 143.65 127.47 143.56 126.44 142.87 125.87 C 142.18 125.29 141.15 125.39 140.58 126.08 Z M 139.94 126.85 L 139.31 127.60 C 138.72 128.27 138.80 129.29 139.48 129.87 C 140.16 130.45 141.18 130.38 141.76 129.70 L 142.39 128.96 C 142.97 128.28 142.90 127.26 142.22 126.68 C 141.54 126.10 140.52 126.18 139.94 126.85 Z M 139.34 127.58 L 138.73 128.26 C 138.14 128.92 138.19 129.94 138.85 130.53 C 139.51 131.12 140.53 131.06 141.12 130.40 L 141.73 129.72 C 142.32 129.06 142.26 128.04 141.60 127.45 C 140.94 126.86 139.93 126.92 139.34 127.58 Z M 138.77 128.23 L 138.04 128.99 C 137.44 129.63 137.46 130.64 138.09 131.24 C 138.73 131.85 139.74 131.83 140.35 131.19 L 141.07 130.43 C 141.68 129.79 141.66 128.79 141.02 128.18 C 140.39 127.57 139.38 127.59 138.77 128.23 Z M 138.10 128.94 L 137.32 129.69 C 136.68 130.30 136.66 131.30 137.26 131.93 C 137.87 132.57 138.87 132.59 139.51 131.99 L 140.29 131.24 C 140.92 130.63 140.95 129.63 140.34 129.00 C 139.74 128.36 138.73 128.34 138.10 128.94 Z M 137.37 129.65 L 136.65 130.28 C 135.99 130.85 135.92 131.85 136.50 132.51 C 137.07 133.17 138.07 133.24 138.73 132.66 L 139.45 132.03 C 140.11 131.46 140.18 130.46 139.60 129.80 C 139.03 129.14 138.03 129.07 137.37 129.65 Z M 136.68 130.25 L 136.01 130.81 C 135.33 131.37 135.24 132.36 135.79 133.04 C 136.35 133.71 137.34 133.80 138.01 133.25 L 138.69 132.69 C 139.37 132.13 139.46 131.14 138.91 130.47 C 138.35 129.79 137.36 129.70 136.68 130.25 Z M 135.99 130.81 L 135.08 131.56 C 134.41 132.13 134.32 133.13 134.88 133.81 C 135.45 134.48 136.45 134.57 137.13 134.01 L 138.03 133.25 C 138.71 132.69 138.80 131.68 138.23 131.01 C 137.67 130.33 136.66 130.24 135.99 130.81 Z M 134.89 131.68 L 134.22 132.42 C 133.61 133.09 133.66 134.13 134.33 134.74 C 135.00 135.35 136.04 135.30 136.65 134.63 L 137.32 133.89 C 137.93 133.22 137.88 132.18 137.21 131.57 C 136.54 130.96 135.50 131.01 134.89 131.68 Z M 133.75 133.64 L 133.79 134.16 C 133.85 135.09 134.65 135.80 135.58 135.73 C 136.51 135.67 137.22 134.87 137.15 133.94 L 137.12 133.41 C 137.06 132.48 136.25 131.78 135.32 131.84 C 134.39 131.90 133.69 132.71 133.75 133.64 Z M 134.90 135.66 L 135.64 135.92 C 136.52 136.24 137.50 135.78 137.82 134.89 C 138.13 134.00 137.67 133.02 136.78 132.71 L 136.04 132.44 C 135.16 132.13 134.18 132.59 133.86 133.48 C 133.55 134.36 134.01 135.34 134.90 135.66 Z M 136.14 136.02 L 137.32 136.07 C 138.27 136.11 139.06 135.38 139.10 134.43 C 139.14 133.49 138.41 132.70 137.46 132.66 L 136.28 132.61 C 135.34 132.57 134.54 133.30 134.50 134.25 C 134.46 135.19 135.20 135.98 136.14 136.02 Z M 137.57 136.06 L 138.62 135.95 C 139.56 135.85 140.24 135.01 140.15 134.08 C 140.05 133.14 139.21 132.46 138.27 132.55 L 137.22 132.66 C 136.28 132.76 135.60 133.60 135.69 134.54 C 135.79 135.48 136.63 136.16 137.57 136.06 Z M 138.78 135.93 L 139.67 135.75 C 140.60 135.56 141.19 134.66 141.01 133.74 C 140.82 132.81 139.92 132.22 139.00 132.40 L 138.11 132.58 C 137.19 132.77 136.59 133.67 136.77 134.59 C 136.96 135.51 137.86 136.11 138.78 135.93 Z M 139.78 135.72 L 140.72 135.47 C 141.63 135.22 142.17 134.29 141.93 133.38 C 141.68 132.47 140.75 131.93 139.84 132.17 L 138.89 132.43 C 137.98 132.67 137.45 133.61 137.69 134.52 C 137.94 135.43 138.87 135.96 139.78 135.72 Z M 140.80 135.44 L 141.82 135.12 C 142.71 134.83 143.20 133.87 142.92 132.98 C 142.63 132.08 141.68 131.59 140.78 131.87 L 139.76 132.20 C 138.87 132.48 138.37 133.44 138.66 134.34 C 138.95 135.23 139.90 135.73 140.80 135.44 Z M 141.86 135.10 L 142.92 134.73 C 143.80 134.41 144.27 133.44 143.96 132.56 C 143.64 131.67 142.67 131.21 141.79 131.52 L 140.73 131.89 C 139.85 132.20 139.38 133.17 139.70 134.06 C 140.01 134.94 140.98 135.41 141.86 135.10 Z M 142.94 134.71 L 143.89 134.36 C 144.76 134.04 145.21 133.06 144.89 132.18 C 144.56 131.31 143.59 130.86 142.71 131.18 L 141.77 131.53 C 140.89 131.86 140.44 132.83 140.77 133.71 C 141.09 134.59 142.07 135.04 142.94 134.71 Z M 143.90 134.35 L 144.87 133.98 C 145.74 133.65 146.18 132.67 145.85 131.80 C 145.52 130.93 144.54 130.49 143.67 130.83 L 142.70 131.20 C 141.83 131.53 141.39 132.50 141.72 133.37 C 142.05 134.25 143.03 134.68 143.90 134.35 Z M 144.88 133.97 L 145.85 133.59 C 146.72 133.26 147.14 132.28 146.81 131.42 C 146.47 130.55 145.50 130.12 144.63 130.46 L 143.66 130.83 C 142.80 131.17 142.37 132.14 142.70 133.01 C 143.04 133.88 144.01 134.31 144.88 133.97 Z M 145.85 133.58 L 146.79 133.22 C 147.65 132.88 148.08 131.91 147.74 131.05 C 147.40 130.19 146.43 129.76 145.57 130.10 L 144.63 130.47 C 143.77 130.80 143.35 131.77 143.68 132.64 C 144.02 133.50 144.99 133.92 145.85 133.58 Z M 146.79 133.21 L 147.67 132.87 C 148.52 132.53 148.95 131.57 148.61 130.71 C 148.28 129.85 147.31 129.43 146.45 129.76 L 145.57 130.10 C 144.72 130.44 144.29 131.41 144.63 132.27 C 144.96 133.12 145.93 133.55 146.79 133.21 Z M 147.66 132.86 L 148.56 132.51 C 149.41 132.18 149.84 131.22 149.51 130.37 C 149.18 129.51 148.22 129.09 147.36 129.42 L 146.46 129.77 C 145.61 130.10 145.18 131.06 145.51 131.91 C 145.84 132.77 146.80 133.19 147.66 132.86 Z M 148.55 132.50 L 149.42 132.16 C 150.26 131.84 150.69 130.89 150.36 130.04 C 150.03 129.19 149.08 128.77 148.24 129.10 L 147.37 129.43 C 146.52 129.76 146.10 130.71 146.43 131.56 C 146.76 132.40 147.71 132.82 148.55 132.50 Z M 149.42 132.14 L 150.28 131.81 C 151.12 131.48 151.53 130.53 151.20 129.70 C 150.87 128.86 149.93 128.45 149.09 128.78 L 148.23 129.12 C 147.40 129.45 146.99 130.39 147.31 131.23 C 147.64 132.06 148.59 132.47 149.42 132.14 Z M 150.29 131.78 L 151.23 131.40 C 152.05 131.06 152.45 130.13 152.11 129.30 C 151.78 128.48 150.84 128.09 150.02 128.42 L 149.08 128.81 C 148.26 129.14 147.86 130.08 148.20 130.90 C 148.53 131.72 149.47 132.12 150.29 131.78 Z M 151.25 131.38 L 152.25 130.95 C 153.06 130.61 153.44 129.67 153.09 128.86 C 152.75 128.05 151.81 127.68 151.00 128.02 L 150.00 128.45 C 149.19 128.79 148.81 129.72 149.16 130.53 C 149.50 131.34 150.44 131.72 151.25 131.38 Z M 152.26 130.94 L 153.02 130.60 C 153.82 130.25 154.19 129.32 153.84 128.52 C 153.49 127.72 152.55 127.35 151.75 127.70 L 150.99 128.03 C 150.19 128.38 149.83 129.32 150.18 130.12 C 150.53 130.92 151.46 131.29 152.26 130.94 Z M 153.03 130.60 L 153.86 130.23 C 154.65 129.88 155.02 128.94 154.66 128.14 C 154.31 127.35 153.37 126.99 152.58 127.34 L 151.75 127.71 C 150.95 128.06 150.59 129.00 150.94 129.79 C 151.29 130.59 152.23 130.95 153.03 130.60 Z M 153.86 130.23 L 154.75 129.83 C 155.55 129.47 155.90 128.54 155.55 127.74 C 155.19 126.95 154.26 126.59 153.46 126.95 L 152.57 127.35 C 151.78 127.70 151.42 128.64 151.78 129.43 C 152.13 130.23 153.07 130.58 153.86 130.23 Z M 154.75 129.82 L 155.69 129.40 C 156.48 129.04 156.84 128.11 156.48 127.32 C 156.12 126.52 155.19 126.17 154.39 126.53 L 153.46 126.95 C 152.66 127.31 152.31 128.24 152.67 129.04 C 153.03 129.83 153.96 130.18 154.75 129.82 Z M 155.69 129.40 L 156.66 128.95 C 157.46 128.60 157.81 127.66 157.45 126.87 C 157.09 126.08 156.16 125.73 155.37 126.09 L 154.39 126.53 C 153.60 126.89 153.25 127.82 153.61 128.61 C 153.97 129.41 154.90 129.76 155.69 129.40 Z M 156.67 128.95 L 157.66 128.50 C 158.45 128.14 158.80 127.21 158.44 126.42 C 158.08 125.63 157.15 125.28 156.36 125.64 L 155.36 126.09 C 154.58 126.45 154.23 127.38 154.59 128.17 C 154.95 128.96 155.88 129.31 156.67 128.95 Z M 157.66 128.49 L 158.68 128.03 C 159.46 127.67 159.81 126.74 159.45 125.96 C 159.09 125.17 158.16 124.82 157.38 125.18 L 156.36 125.64 C 155.58 126.00 155.23 126.93 155.59 127.72 C 155.95 128.51 156.88 128.85 157.66 128.49 Z M 158.68 128.03 L 158.92 127.92 C 159.71 127.56 160.05 126.63 159.69 125.84 C 159.34 125.06 158.41 124.71 157.62 125.07 L 157.38 125.18 C 156.59 125.54 156.24 126.47 156.60 127.26 C 156.96 128.04 157.89 128.39 158.68 128.03 Z"
      fill="black"
      fill-rule="nonzero" /><path d="M 146.63 133.97 L 147.52 134.43 C 148.35 134.85 149.37 134.52 149.79 133.68 C 150.22 132.85 149.89 131.83 149.05 131.41 L 148.16 130.96 C 147.33 130.53 146.31 130.86 145.89 131.70 C 145.46 132.53 145.79 133.55 146.63 133.97 Z M 147.46 134.40 L 148.32 134.88 C 149.14 135.34 150.17 135.05 150.63 134.23 C 151.09 133.42 150.80 132.38 149.98 131.93 L 149.11 131.44 C 148.30 130.98 147.26 131.27 146.81 132.09 C 146.35 132.90 146.64 133.94 147.46 134.40 Z M 148.21 134.81 L 149.03 135.37 C 149.81 135.89 150.87 135.69 151.39 134.91 C 151.91 134.13 151.71 133.08 150.93 132.55 L 150.10 132.00 C 149.32 131.47 148.27 131.68 147.75 132.46 C 147.22 133.23 147.43 134.29 148.21 134.81 Z M 148.88 135.24 L 149.64 135.90 C 150.34 136.51 151.41 136.43 152.02 135.73 C 152.64 135.02 152.56 133.95 151.85 133.34 L 151.09 132.68 C 150.38 132.07 149.31 132.15 148.70 132.86 C 148.09 133.56 148.17 134.63 148.88 135.24 Z M 149.49 135.73 L 150.17 136.49 C 150.78 137.18 151.84 137.24 152.53 136.62 C 153.22 136.01 153.28 134.95 152.67 134.26 L 151.99 133.50 C 151.38 132.82 150.32 132.75 149.63 133.37 C 148.94 133.99 148.88 135.04 149.49 135.73 Z M 150.07 136.31 L 150.64 137.14 C 151.16 137.89 152.19 138.07 152.93 137.56 C 153.68 137.04 153.86 136.01 153.34 135.26 L 152.77 134.44 C 152.25 133.69 151.22 133.50 150.48 134.02 C 149.73 134.54 149.55 135.57 150.07 136.31 Z M 150.56 136.96 L 151.02 137.83 C 151.44 138.62 152.42 138.92 153.21 138.50 C 154.00 138.09 154.30 137.11 153.88 136.32 L 153.42 135.45 C 153.01 134.66 152.03 134.36 151.24 134.77 C 150.45 135.19 150.15 136.17 150.56 136.96 Z M 150.95 137.62 L 151.30 138.57 C 151.60 139.40 152.52 139.83 153.35 139.53 C 154.17 139.22 154.60 138.31 154.30 137.48 L 153.95 136.53 C 153.65 135.70 152.73 135.27 151.90 135.57 C 151.08 135.87 150.65 136.79 150.95 137.62 Z M 151.26 138.39 L 151.48 139.36 C 151.68 140.21 152.53 140.74 153.38 140.54 C 154.24 140.34 154.77 139.49 154.57 138.64 L 154.34 137.67 C 154.14 136.82 153.29 136.29 152.44 136.48 C 151.59 136.68 151.06 137.53 151.26 138.39 Z M 151.47 139.24 L 151.62 140.21 C 151.75 141.07 152.55 141.66 153.41 141.52 C 154.27 141.39 154.86 140.59 154.73 139.73 L 154.58 138.76 C 154.45 137.90 153.65 137.31 152.79 137.44 C 151.93 137.58 151.34 138.38 151.47 139.24 Z M 151.62 140.17 L 151.68 140.62 C 151.79 141.48 152.57 142.08 153.43 141.98 C 154.28 141.87 154.89 141.08 154.78 140.23 L 154.72 139.77 C 154.62 138.92 153.83 138.31 152.98 138.42 C 152.12 138.53 151.51 139.31 151.62 140.17 Z"
      fill="black"
      fill-rule="nonzero" /><path d="M 135.00 144.35 L 134.02 145.22 C 133.33 145.85 133.27 146.91 133.90 147.60 C 134.52 148.29 135.58 148.35 136.28 147.73 L 137.25 146.85 C 137.94 146.23 138.00 145.16 137.38 144.47 C 136.75 143.78 135.69 143.72 135.00 144.35 Z M 133.93 145.28 L 133.15 146.07 C 132.49 146.75 132.50 147.83 133.17 148.49 C 133.85 149.15 134.93 149.14 135.59 148.47 L 136.37 147.67 C 137.03 147.00 137.02 145.92 136.35 145.25 C 135.67 144.59 134.59 144.60 133.93 145.28 Z M 132.90 146.36 L 132.51 146.99 C 132.00 147.80 132.25 148.87 133.07 149.37 C 133.88 149.88 134.95 149.63 135.45 148.81 L 135.84 148.18 C 136.35 147.37 136.10 146.30 135.28 145.80 C 134.47 145.29 133.40 145.54 132.90 146.36 Z M 132.42 148.70 L 132.63 149.10 C 133.07 149.96 134.12 150.30 134.98 149.85 C 135.84 149.41 136.18 148.36 135.74 147.50 L 135.54 147.10 C 135.09 146.24 134.04 145.90 133.18 146.34 C 132.32 146.78 131.98 147.84 132.42 148.70 Z M 133.91 150.03 L 134.73 150.16 C 135.69 150.32 136.59 149.66 136.74 148.70 C 136.90 147.75 136.24 146.84 135.28 146.69 L 134.46 146.56 C 133.50 146.41 132.60 147.06 132.45 148.02 C 132.29 148.98 132.95 149.88 133.91 150.03 Z M 135.13 150.18 L 136.32 150.10 C 137.29 150.04 138.02 149.20 137.95 148.23 C 137.89 147.26 137.05 146.52 136.08 146.59 L 134.89 146.67 C 133.92 146.74 133.18 147.58 133.25 148.55 C 133.32 149.52 134.16 150.25 135.13 150.18 Z M 136.48 150.09 L 137.63 149.90 C 138.59 149.74 139.24 148.83 139.08 147.87 C 138.92 146.91 138.01 146.26 137.05 146.42 L 135.91 146.61 C 134.95 146.77 134.30 147.67 134.46 148.63 C 134.62 149.59 135.52 150.24 136.48 150.09 Z M 137.73 149.88 L 138.64 149.67 C 139.59 149.46 140.19 148.51 139.97 147.56 C 139.76 146.62 138.81 146.02 137.87 146.23 L 136.95 146.44 C 136.00 146.65 135.41 147.60 135.62 148.55 C 135.83 149.50 136.78 150.09 137.73 149.88 Z M 138.71 149.65 L 139.64 149.40 C 140.58 149.15 141.13 148.18 140.88 147.24 C 140.63 146.30 139.66 145.75 138.72 146.00 L 137.79 146.25 C 136.86 146.51 136.30 147.47 136.55 148.41 C 136.81 149.35 137.77 149.91 138.71 149.65 Z M 139.69 149.39 L 140.66 149.09 C 141.59 148.81 142.12 147.83 141.84 146.90 C 141.56 145.97 140.58 145.44 139.65 145.72 L 138.67 146.02 C 137.74 146.30 137.22 147.28 137.50 148.21 C 137.78 149.14 138.76 149.67 139.69 149.39 Z M 140.69 149.08 L 141.74 148.75 C 142.67 148.45 143.18 147.46 142.88 146.54 C 142.59 145.61 141.60 145.10 140.67 145.40 L 139.62 145.73 C 138.70 146.03 138.19 147.02 138.48 147.94 C 138.78 148.87 139.77 149.38 140.69 149.08 Z M 141.75 148.74 L 142.62 148.45 C 143.55 148.15 144.05 147.16 143.75 146.24 C 143.45 145.32 142.46 144.82 141.54 145.12 L 140.66 145.40 C 139.74 145.70 139.24 146.69 139.54 147.62 C 139.84 148.54 140.83 149.04 141.75 148.74 Z M 142.63 148.45 L 143.54 148.14 C 144.46 147.84 144.96 146.85 144.65 145.93 C 144.35 145.02 143.36 144.52 142.44 144.82 L 141.53 145.13 C 140.61 145.43 140.12 146.42 140.42 147.34 C 140.72 148.25 141.71 148.75 142.63 148.45 Z M 143.55 148.14 L 144.50 147.82 C 145.41 147.51 145.90 146.52 145.60 145.61 C 145.29 144.69 144.30 144.20 143.39 144.51 L 142.44 144.83 C 141.52 145.14 141.03 146.13 141.34 147.04 C 141.65 147.95 142.64 148.44 143.55 148.14 Z M 144.51 147.81 L 145.48 147.47 C 146.39 147.16 146.88 146.17 146.56 145.26 C 146.25 144.35 145.26 143.87 144.35 144.18 L 143.38 144.52 C 142.47 144.83 141.99 145.82 142.30 146.73 C 142.61 147.64 143.60 148.12 144.51 147.81 Z M 145.50 147.46 L 146.48 147.12 C 147.39 146.80 147.86 145.81 147.54 144.90 C 147.22 144.00 146.23 143.53 145.33 143.84 L 144.34 144.19 C 143.44 144.51 142.96 145.50 143.28 146.41 C 143.60 147.31 144.59 147.78 145.50 147.46 Z M 146.50 147.11 L 147.48 146.75 C 148.38 146.42 148.84 145.43 148.52 144.53 C 148.19 143.63 147.20 143.17 146.30 143.50 L 145.32 143.85 C 144.42 144.18 143.95 145.17 144.28 146.07 C 144.61 146.97 145.60 147.43 146.50 147.11 Z M 147.50 146.73 L 148.47 146.37 C 149.36 146.03 149.81 145.04 149.48 144.15 C 149.15 143.26 148.15 142.81 147.26 143.14 L 146.29 143.51 C 145.40 143.84 144.95 144.84 145.28 145.73 C 145.61 146.62 146.61 147.07 147.50 146.73 Z M 148.49 146.35 L 149.45 145.98 C 150.33 145.64 150.77 144.65 150.43 143.77 C 150.08 142.88 149.09 142.45 148.21 142.79 L 147.25 143.16 C 146.37 143.50 145.93 144.49 146.27 145.37 C 146.61 146.25 147.60 146.69 148.49 146.35 Z M 149.46 145.96 L 150.40 145.59 C 151.27 145.24 151.70 144.25 151.35 143.38 C 151.00 142.50 150.01 142.08 149.14 142.43 L 148.20 142.80 C 147.33 143.15 146.90 144.14 147.25 145.01 C 147.60 145.89 148.59 146.31 149.46 145.96 Z M 150.41 145.57 L 151.33 145.20 C 152.19 144.84 152.61 143.85 152.25 142.99 C 151.90 142.12 150.91 141.71 150.04 142.07 L 149.13 142.44 C 148.26 142.80 147.85 143.79 148.21 144.65 C 148.56 145.52 149.55 145.93 150.41 145.57 Z M 151.34 145.18 L 152.23 144.80 C 153.09 144.44 153.49 143.45 153.12 142.60 C 152.76 141.74 151.77 141.34 150.92 141.71 L 150.03 142.08 C 149.18 142.45 148.78 143.43 149.14 144.29 C 149.50 145.14 150.49 145.54 151.34 145.18 Z M 152.24 144.79 L 153.14 144.39 C 153.99 144.02 154.38 143.04 154.01 142.19 C 153.64 141.35 152.65 140.96 151.81 141.33 L 150.91 141.72 C 150.06 142.09 149.67 143.08 150.04 143.92 C 150.41 144.77 151.40 145.16 152.24 144.79 Z M 153.16 144.37 L 154.15 143.92 C 154.98 143.55 155.36 142.56 154.98 141.73 C 154.60 140.90 153.62 140.52 152.78 140.90 L 151.79 141.35 C 150.96 141.73 150.59 142.71 150.96 143.54 C 151.34 144.38 152.32 144.75 153.16 144.37 Z M 154.16 143.90 L 155.10 143.46 C 155.93 143.08 156.28 142.10 155.90 141.28 C 155.51 140.45 154.53 140.10 153.71 140.48 L 152.77 140.92 C 151.95 141.31 151.59 142.29 151.98 143.11 C 152.36 143.93 153.34 144.29 154.16 143.90 Z M 155.12 143.44 L 156.00 143.01 C 156.81 142.62 157.15 141.64 156.76 140.83 C 156.37 140.02 155.39 139.68 154.58 140.08 L 153.70 140.51 C 152.89 140.90 152.55 141.87 152.94 142.68 C 153.33 143.49 154.31 143.83 155.12 143.44 Z M 156.02 142.99 L 156.85 142.57 C 157.65 142.17 157.97 141.20 157.57 140.40 C 157.17 139.61 156.20 139.28 155.40 139.68 L 154.57 140.10 C 153.77 140.50 153.45 141.47 153.85 142.27 C 154.25 143.07 155.22 143.39 156.02 142.99 Z M 156.86 142.55 L 157.89 142.02 C 158.67 141.61 158.98 140.64 158.57 139.86 C 158.16 139.07 157.20 138.77 156.41 139.17 L 155.39 139.71 C 154.60 140.11 154.29 141.08 154.70 141.87 C 155.11 142.65 156.08 142.96 156.86 142.55 Z M 157.92 141.98 L 159.04 141.36 C 159.80 140.94 160.08 139.97 159.65 139.21 C 159.23 138.44 158.26 138.16 157.50 138.59 L 156.38 139.21 C 155.61 139.63 155.34 140.60 155.76 141.37 C 156.19 142.13 157.15 142.41 157.92 141.98 Z M 159.16 141.27 L 159.68 140.91 C 160.40 140.42 160.58 139.44 160.09 138.72 C 159.59 138.01 158.61 137.83 157.90 138.32 L 157.37 138.68 C 156.66 139.18 156.48 140.15 156.97 140.87 C 157.46 141.58 158.44 141.76 159.16 141.27 Z M 158.68 138.06 L 158.36 138.08 C 157.50 138.14 156.85 138.88 156.91 139.74 C 156.97 140.60 157.72 141.25 158.58 141.19 L 158.90 141.17 C 159.76 141.11 160.41 140.37 160.35 139.51 C 160.29 138.65 159.55 138.00 158.68 138.06 Z M 157.92 138.17 L 156.90 138.56 C 156.09 138.86 155.68 139.76 155.98 140.57 C 156.29 141.38 157.19 141.79 157.99 141.48 L 159.02 141.10 C 159.83 140.79 160.24 139.89 159.93 139.09 C 159.63 138.28 158.73 137.87 157.92 138.17 Z M 156.79 138.60 L 155.59 139.15 C 154.81 139.51 154.47 140.44 154.83 141.22 C 155.19 142.01 156.11 142.35 156.90 141.99 L 158.10 141.44 C 158.88 141.08 159.22 140.15 158.86 139.37 C 158.50 138.59 157.58 138.24 156.79 138.60 Z M 155.52 139.19 L 154.63 139.65 C 153.87 140.05 153.57 141.00 153.97 141.76 C 154.37 142.52 155.32 142.82 156.08 142.42 L 156.97 141.96 C 157.73 141.56 158.03 140.61 157.63 139.85 C 157.23 139.09 156.29 138.79 155.52 139.19 Z M 154.59 139.68 L 153.70 140.18 C 152.95 140.60 152.69 141.56 153.11 142.31 C 153.54 143.06 154.49 143.32 155.24 142.90 L 156.12 142.40 C 156.87 141.97 157.14 141.02 156.71 140.27 C 156.29 139.52 155.34 139.25 154.59 139.68 Z M 153.67 140.20 L 152.81 140.71 C 152.07 141.16 151.83 142.11 152.27 142.85 C 152.72 143.59 153.67 143.83 154.41 143.39 L 155.27 142.88 C 156.01 142.43 156.25 141.48 155.81 140.74 C 155.37 140.00 154.41 139.76 153.67 140.20 Z M 152.79 140.73 L 151.94 141.26 C 151.21 141.71 150.98 142.67 151.44 143.41 C 151.89 144.14 152.86 144.36 153.59 143.91 L 154.44 143.38 C 155.17 142.92 155.39 141.96 154.94 141.23 C 154.48 140.49 153.52 140.27 152.79 140.73 Z M 151.92 141.27 L 151.07 141.82 C 150.34 142.28 150.13 143.25 150.60 143.97 C 151.07 144.70 152.03 144.91 152.76 144.44 L 153.61 143.89 C 154.33 143.43 154.54 142.46 154.08 141.74 C 153.61 141.01 152.64 140.80 151.92 141.27 Z M 151.05 141.83 L 150.23 142.38 C 149.51 142.86 149.32 143.82 149.80 144.54 C 150.27 145.26 151.24 145.45 151.96 144.97 L 152.78 144.43 C 153.50 143.95 153.69 142.98 153.21 142.26 C 152.73 141.54 151.76 141.35 151.05 141.83 Z M 150.21 142.39 L 149.40 142.95 C 148.69 143.44 148.51 144.41 149.00 145.12 C 149.49 145.83 150.46 146.01 151.17 145.52 L 151.98 144.96 C 152.69 144.47 152.87 143.50 152.38 142.79 C 151.89 142.08 150.92 141.90 150.21 142.39 Z M 149.37 142.97 L 148.59 143.53 C 147.89 144.03 147.73 145.00 148.23 145.70 C 148.73 146.41 149.70 146.57 150.40 146.07 L 151.19 145.51 C 151.89 145.00 152.05 144.03 151.55 143.33 C 151.05 142.63 150.08 142.46 149.37 142.97 Z M 148.54 143.56 L 147.76 144.16 C 147.08 144.69 146.95 145.67 147.48 146.35 C 148.01 147.03 148.99 147.16 149.67 146.63 L 150.45 146.03 C 151.13 145.51 151.26 144.53 150.73 143.85 C 150.21 143.16 149.23 143.03 148.54 143.56 Z M 147.69 144.22 L 146.93 144.88 C 146.28 145.45 146.21 146.44 146.78 147.09 C 147.34 147.74 148.33 147.80 148.98 147.24 L 149.74 146.57 C 150.39 146.01 150.46 145.02 149.89 144.37 C 149.33 143.72 148.34 143.65 147.69 144.22 Z M 146.83 144.97 L 146.11 145.72 C 145.51 146.33 145.53 147.32 146.15 147.92 C 146.76 148.52 147.75 148.51 148.35 147.89 L 149.07 147.15 C 149.68 146.53 149.66 145.54 149.04 144.94 C 148.42 144.34 147.43 144.35 146.83 144.97 Z M 146.00 145.81 L 145.42 146.54 C 144.87 147.22 144.98 148.21 145.65 148.76 C 146.33 149.31 147.33 149.20 147.87 148.52 L 148.46 147.79 C 149.01 147.12 148.90 146.12 148.22 145.57 C 147.55 145.03 146.55 145.13 146.00 145.81 Z M 145.31 146.63 L 144.77 147.43 C 144.26 148.17 144.45 149.17 145.19 149.67 C 145.92 150.17 146.93 149.98 147.43 149.25 L 147.98 148.44 C 148.48 147.71 148.29 146.70 147.55 146.20 C 146.82 145.70 145.81 145.89 145.31 146.63 Z M 144.68 147.51 L 144.17 148.39 C 143.71 149.17 143.98 150.18 144.76 150.63 C 145.55 151.09 146.55 150.82 147.01 150.04 L 147.52 149.16 C 147.97 148.38 147.71 147.37 146.92 146.92 C 146.14 146.46 145.13 146.73 144.68 147.51 Z M 144.09 148.46 L 143.62 149.41 C 143.20 150.23 143.54 151.24 144.37 151.66 C 145.19 152.07 146.20 151.73 146.62 150.91 L 147.09 149.96 C 147.50 149.14 147.17 148.13 146.34 147.71 C 145.51 147.30 144.50 147.64 144.09 148.46 Z M 143.55 149.48 L 143.16 150.39 C 142.78 151.25 143.18 152.25 144.04 152.63 C 144.90 153.01 145.90 152.61 146.28 151.75 L 146.68 150.84 C 147.05 149.97 146.66 148.97 145.80 148.60 C 144.93 148.22 143.93 148.61 143.55 149.48 Z M 143.11 150.46 L 142.76 151.37 C 142.42 152.26 142.87 153.26 143.75 153.59 C 144.64 153.93 145.64 153.49 145.98 152.60 L 146.33 151.68 C 146.66 150.79 146.22 149.80 145.33 149.46 C 144.44 149.12 143.45 149.57 143.11 150.46 Z M 142.72 151.44 L 142.40 152.39 C 142.10 153.30 142.59 154.28 143.50 154.59 C 144.41 154.89 145.40 154.40 145.70 153.49 L 146.01 152.54 C 146.32 151.63 145.83 150.64 144.92 150.34 C 144.01 150.04 143.02 150.53 142.72 151.44 Z M 142.37 152.46 L 142.09 153.44 C 141.82 154.37 142.36 155.34 143.29 155.60 C 144.22 155.87 145.19 155.33 145.46 154.40 L 145.74 153.42 C 146.00 152.49 145.46 151.52 144.53 151.25 C 143.60 150.99 142.63 151.53 142.37 152.46 Z M 142.05 153.51 L 141.82 154.50 C 141.59 155.45 142.18 156.40 143.13 156.63 C 144.08 156.85 145.03 156.27 145.26 155.32 L 145.49 154.32 C 145.72 153.37 145.13 152.42 144.18 152.20 C 143.23 151.97 142.28 152.56 142.05 153.51 Z M 141.79 154.58 L 141.60 155.58 C 141.42 156.55 142.05 157.48 143.02 157.66 C 143.98 157.84 144.91 157.21 145.10 156.24 L 145.29 155.24 C 145.47 154.27 144.83 153.34 143.87 153.16 C 142.90 152.98 141.97 153.61 141.79 154.58 Z M 141.58 155.66 L 141.43 156.66 C 141.29 157.64 141.97 158.55 142.95 158.69 C 143.93 158.83 144.83 158.15 144.97 157.17 L 145.12 156.17 C 145.26 155.19 144.58 154.28 143.60 154.14 C 142.62 154.00 141.72 154.68 141.58 155.66 Z M 141.42 156.73 L 141.32 157.73 C 141.21 158.72 141.93 159.60 142.92 159.70 C 143.90 159.81 144.79 159.09 144.89 158.10 L 144.99 157.10 C 145.09 156.11 144.37 155.23 143.39 155.13 C 142.40 155.03 141.52 155.75 141.42 156.73 Z M 141.30 157.80 L 141.24 158.79 C 141.17 159.78 141.92 160.64 142.91 160.71 C 143.91 160.77 144.77 160.02 144.83 159.03 L 144.90 158.04 C 144.97 157.05 144.22 156.19 143.22 156.12 C 142.23 156.05 141.37 156.80 141.30 157.80 Z M 141.23 158.85 L 141.19 159.82 C 141.16 160.82 141.94 161.66 142.94 161.70 C 143.94 161.73 144.78 160.95 144.81 159.95 L 144.84 158.97 C 144.88 157.97 144.10 157.14 143.10 157.10 C 142.10 157.07 141.26 157.85 141.23 158.85 Z M 141.18 159.88 L 141.18 160.95 C 141.18 161.95 141.99 162.77 142.99 162.77 C 143.99 162.77 144.81 161.96 144.81 160.96 L 144.82 159.89 C 144.82 158.89 144.01 158.07 143.01 158.07 C 142.00 158.07 141.19 158.88 141.18 159.88 Z M 141.18 161.02 L 141.22 162.08 C 141.25 163.08 142.10 163.87 143.10 163.83 C 144.11 163.80 144.89 162.95 144.86 161.94 L 144.82 160.89 C 144.78 159.88 143.94 159.10 142.93 159.13 C 141.92 159.17 141.14 160.01 141.18 161.02 Z M 141.22 162.18 L 141.31 163.18 C 141.40 164.18 142.29 164.92 143.30 164.83 C 144.30 164.73 145.04 163.84 144.95 162.84 L 144.85 161.84 C 144.76 160.84 143.87 160.10 142.87 160.19 C 141.86 160.29 141.12 161.18 141.22 162.18 Z M 141.32 163.32 L 141.48 164.23 C 141.65 165.23 142.59 165.90 143.59 165.73 C 144.59 165.56 145.26 164.62 145.09 163.62 L 144.93 162.70 C 144.76 161.70 143.82 161.03 142.82 161.20 C 141.82 161.37 141.15 162.32 141.32 163.32 Z M 141.52 164.44 L 141.80 165.38 C 142.08 166.35 143.10 166.91 144.07 166.63 C 145.04 166.35 145.60 165.33 145.32 164.36 L 145.05 163.41 C 144.76 162.44 143.75 161.88 142.77 162.16 C 141.80 162.45 141.24 163.46 141.52 164.44 Z M 141.90 165.65 L 142.33 166.58 C 142.76 167.50 143.86 167.89 144.78 167.46 C 145.69 167.03 146.09 165.94 145.66 165.02 L 145.22 164.09 C 144.79 163.17 143.70 162.78 142.78 163.21 C 141.86 163.64 141.46 164.73 141.90 165.65 Z M 142.48 166.84 L 143.02 167.63 C 143.59 168.47 144.74 168.68 145.57 168.11 C 146.41 167.54 146.63 166.40 146.06 165.56 L 145.51 164.76 C 144.94 163.92 143.80 163.71 142.96 164.28 C 142.12 164.85 141.90 166.00 142.48 166.84 Z M 143.17 167.82 L 143.80 168.53 C 144.48 169.29 145.64 169.35 146.40 168.68 C 147.16 168.00 147.22 166.84 146.54 166.08 L 145.91 165.37 C 145.23 164.61 144.07 164.54 143.31 165.22 C 142.55 165.90 142.49 167.06 143.17 167.82 Z M 143.93 168.67 L 144.67 169.33 C 145.42 170.02 146.58 169.96 147.27 169.21 C 147.95 168.46 147.90 167.29 147.14 166.61 L 146.41 165.94 C 145.66 165.26 144.49 165.31 143.81 166.07 C 143.13 166.82 143.18 167.98 143.93 168.67 Z M 144.81 169.45 L 145.62 170.05 C 146.43 170.65 147.59 170.48 148.19 169.66 C 148.80 168.84 148.62 167.68 147.80 167.08 L 147.00 166.49 C 146.18 165.88 145.03 166.06 144.42 166.88 C 143.82 167.69 143.99 168.85 144.81 169.45 Z M 145.77 170.15 L 146.63 170.66 C 147.50 171.18 148.63 170.90 149.16 170.02 C 149.68 169.15 149.39 168.02 148.52 167.49 L 147.65 166.98 C 146.78 166.46 145.65 166.75 145.13 167.62 C 144.60 168.49 144.89 169.63 145.77 170.15 Z M 146.78 170.74 L 147.67 171.16 C 148.59 171.60 149.69 171.21 150.12 170.29 C 150.56 169.37 150.17 168.27 149.25 167.83 L 148.36 167.41 C 147.44 166.98 146.34 167.37 145.91 168.29 C 145.47 169.21 145.86 170.31 146.78 170.74 Z M 147.84 171.23 L 148.78 171.57 C 149.74 171.91 150.79 171.41 151.14 170.46 C 151.48 169.50 150.98 168.44 150.02 168.10 L 149.08 167.76 C 148.12 167.42 147.06 167.92 146.72 168.88 C 146.38 169.84 146.88 170.89 147.84 171.23 Z M 148.97 171.63 L 149.97 171.87 C 150.96 172.10 151.95 171.49 152.19 170.50 C 152.43 169.51 151.82 168.52 150.83 168.28 L 149.83 168.04 C 148.84 167.80 147.84 168.41 147.61 169.40 C 147.37 170.40 147.98 171.39 148.97 171.63 Z M 150.16 171.90 L 151.10 172.02 C 152.11 172.16 153.03 171.45 153.16 170.44 C 153.30 169.43 152.58 168.50 151.58 168.37 L 150.64 168.25 C 149.63 168.11 148.70 168.82 148.57 169.83 C 148.44 170.84 149.15 171.77 150.16 171.90 Z M 151.24 172.04 L 152.22 172.09 C 153.24 172.14 154.10 171.36 154.16 170.34 C 154.21 169.33 153.43 168.46 152.41 168.41 L 151.43 168.36 C 150.42 168.31 149.55 169.09 149.50 170.10 C 149.44 171.12 150.22 171.98 151.24 172.04 Z M 152.32 172.09 L 153.35 172.09 C 154.36 172.09 155.18 171.26 155.18 170.25 C 155.18 169.23 154.36 168.41 153.34 168.41 L 152.32 168.41 C 151.30 168.41 150.48 169.23 150.48 170.25 C 150.48 171.27 151.30 172.09 152.32 172.09 Z M 153.40 172.08 L 154.41 172.05 C 155.43 172.02 156.22 171.17 156.19 170.16 C 156.16 169.15 155.31 168.35 154.30 168.38 L 153.29 168.41 C 152.28 168.44 151.48 169.29 151.51 170.30 C 151.54 171.32 152.39 172.11 153.40 172.08 Z M 154.46 172.04 L 155.40 171.99 C 156.41 171.93 157.18 171.07 157.13 170.06 C 157.07 169.05 156.21 168.28 155.20 168.34 L 154.25 168.39 C 153.25 168.45 152.47 169.31 152.53 170.32 C 152.59 171.33 153.45 172.10 154.46 172.04 Z M 155.47 171.97 L 156.46 171.88 C 157.45 171.78 158.19 170.89 158.09 169.89 C 157.99 168.89 157.11 168.16 156.11 168.26 L 155.13 168.35 C 154.13 168.45 153.39 169.34 153.49 170.34 C 153.59 171.34 154.47 172.07 155.47 171.97 Z M 156.56 171.86 L 157.57 171.70 C 158.56 171.55 159.24 170.62 159.08 169.64 C 158.93 168.65 158.01 167.97 157.02 168.12 L 156.00 168.28 C 155.02 168.43 154.34 169.36 154.49 170.35 C 154.64 171.33 155.57 172.01 156.56 171.86 Z M 157.70 171.67 L 158.73 171.43 C 159.70 171.21 160.31 170.25 160.09 169.28 C 159.87 168.31 158.90 167.70 157.93 167.92 L 156.90 168.16 C 155.93 168.38 155.32 169.34 155.54 170.31 C 155.76 171.28 156.73 171.89 157.70 171.67 Z M 158.85 171.39 L 159.74 171.12 C 160.68 170.83 161.22 169.84 160.93 168.89 C 160.65 167.95 159.66 167.41 158.71 167.70 L 157.82 167.97 C 156.87 168.25 156.34 169.25 156.62 170.19 C 156.91 171.14 157.90 171.67 158.85 171.39 Z M 159.83 171.07 L 160.74 170.74 C 161.66 170.40 162.13 169.39 161.80 168.48 C 161.47 167.56 160.45 167.08 159.54 167.42 L 158.62 167.75 C 157.71 168.08 157.23 169.09 157.57 170.01 C 157.90 170.93 158.91 171.40 159.83 171.07 Z M 160.81 170.69 L 161.74 170.30 C 162.63 169.93 163.05 168.91 162.68 168.02 C 162.31 167.13 161.29 166.71 160.40 167.08 L 159.47 167.46 C 158.58 167.83 158.16 168.86 158.53 169.75 C 158.90 170.64 159.92 171.06 160.81 170.69 Z M 161.79 170.26 L 162.73 169.82 C 163.60 169.42 163.97 168.40 163.57 167.53 C 163.17 166.67 162.15 166.29 161.28 166.69 L 160.34 167.12 C 159.48 167.52 159.10 168.55 159.50 169.42 C 159.90 170.28 160.93 170.66 161.79 170.26 Z M 162.77 169.78 L 163.72 169.31 C 164.56 168.88 164.90 167.85 164.47 167.01 C 164.05 166.17 163.02 165.83 162.18 166.26 L 161.24 166.73 C 160.39 167.16 160.06 168.18 160.48 169.03 C 160.91 169.87 161.93 170.21 162.77 169.78 Z M 163.75 169.27 L 164.56 168.83 C 165.38 168.39 165.69 167.36 165.25 166.54 C 164.80 165.72 163.78 165.42 162.96 165.86 L 162.15 166.29 C 161.33 166.74 161.02 167.76 161.46 168.58 C 161.90 169.40 162.93 169.71 163.75 169.27 Z M 164.59 168.80 L 165.39 168.34 C 166.19 167.88 166.47 166.86 166.01 166.06 C 165.56 165.26 164.53 164.98 163.73 165.43 L 162.93 165.89 C 162.13 166.35 161.85 167.37 162.31 168.17 C 162.76 168.97 163.78 169.25 164.59 168.80 Z M 165.41 168.31 L 166.23 167.82 C 167.01 167.35 167.27 166.33 166.80 165.55 C 166.33 164.76 165.31 164.51 164.53 164.98 L 163.71 165.47 C 162.93 165.94 162.67 166.95 163.14 167.74 C 163.61 168.52 164.63 168.78 165.41 168.31 Z M 166.25 167.78 L 167.09 167.25 C 167.86 166.77 168.09 165.76 167.61 165.00 C 167.13 164.23 166.12 164.00 165.35 164.48 L 164.51 165.01 C 163.74 165.49 163.51 166.50 163.99 167.27 C 164.47 168.03 165.48 168.26 166.25 167.78 Z M 167.11 167.22 L 167.99 166.65 C 168.74 166.16 168.95 165.16 168.46 164.41 C 167.97 163.66 166.97 163.45 166.22 163.93 L 165.34 164.51 C 164.59 165.00 164.38 166.00 164.87 166.75 C 165.36 167.50 166.36 167.71 167.11 167.22 Z M 168.00 166.62 L 168.93 166.00 C 169.66 165.51 169.85 164.51 169.36 163.77 C 168.86 163.04 167.87 162.84 167.13 163.34 L 166.21 163.96 C 165.47 164.46 165.28 165.45 165.77 166.19 C 166.27 166.92 167.27 167.12 168.00 166.62 Z M 168.93 165.98 L 169.73 165.43 C 170.46 164.93 170.64 163.94 170.14 163.21 C 169.64 162.49 168.65 162.31 167.92 162.81 L 167.12 163.36 C 166.40 163.86 166.22 164.85 166.72 165.58 C 167.22 166.30 168.21 166.48 168.93 165.98 Z M 169.74 165.42 L 170.50 164.88 C 171.22 164.38 171.39 163.39 170.89 162.67 C 170.38 161.95 169.39 161.78 168.68 162.29 L 167.92 162.82 C 167.20 163.32 167.03 164.31 167.53 165.03 C 168.04 165.75 169.02 165.92 169.74 165.42 Z M 170.51 164.87 L 171.29 164.31 C 172.00 163.81 172.17 162.82 171.66 162.11 C 171.15 161.39 170.17 161.23 169.45 161.74 L 168.67 162.29 C 167.96 162.80 167.79 163.79 168.30 164.50 C 168.81 165.21 169.80 165.38 170.51 164.87 Z M 171.30 164.31 L 172.10 163.72 C 172.81 163.22 172.97 162.23 172.46 161.52 C 171.95 160.81 170.96 160.65 170.26 161.16 L 169.45 161.74 C 168.74 162.25 168.58 163.24 169.09 163.95 C 169.60 164.65 170.59 164.81 171.30 164.31 Z M 172.10 163.72 L 172.93 163.12 C 173.63 162.61 173.79 161.62 173.28 160.92 C 172.76 160.22 171.78 160.06 171.08 160.57 L 170.25 161.17 C 169.55 161.68 169.39 162.67 169.90 163.37 C 170.41 164.07 171.40 164.23 172.10 163.72 Z M 172.93 163.12 L 173.76 162.50 C 174.47 161.99 174.62 161.01 174.11 160.31 C 173.59 159.61 172.61 159.45 171.91 159.97 L 171.07 160.58 C 170.37 161.09 170.22 162.07 170.73 162.77 C 171.24 163.47 172.23 163.63 172.93 163.12 Z M 173.76 162.50 L 174.61 161.88 C 175.31 161.37 175.46 160.39 174.95 159.69 C 174.43 158.99 173.45 158.84 172.76 159.35 L 171.91 159.97 C 171.21 160.48 171.06 161.46 171.57 162.16 C 172.08 162.86 173.07 163.01 173.76 162.50 Z M 174.61 161.88 L 175.46 161.25 C 176.16 160.74 176.31 159.76 175.79 159.06 C 175.28 158.37 174.30 158.22 173.61 158.73 L 172.76 159.35 C 172.06 159.87 171.91 160.85 172.42 161.54 C 172.93 162.24 173.91 162.39 174.61 161.88 Z M 175.46 161.25 L 175.91 160.92 C 176.60 160.41 176.75 159.43 176.24 158.73 C 175.73 158.04 174.75 157.89 174.05 158.40 L 173.61 158.73 C 172.91 159.24 172.77 160.22 173.28 160.91 C 173.79 161.61 174.77 161.76 175.46 161.25 Z"
      fill="black"
      fill-rule="nonzero" /></svg>