<svg xmlns="http://www.w3.org/2000/svg" width="300" height="300" viewBox="0 0 300 300">
<path d="M 120.54 102.99 L 121.30 102.33 C 122.02 101.71 122.09 100.62 121.47 99.90 C 120.85 99.18 119.76 99.10 119.04 99.73 L 118.28 100.38 C 117.56 101.01 117.49 102.10 118.11 102.82 C 118.74 103.54 119.82 103.61 120.54 102.99 Z M 121.24 102.40 L 122.03 101.78 C 122.78 101.19 122.91 100.10 122.32 99.34 C 121.73 98.59 120.63 98.46 119.88 99.05 L 119.09 99.67 C 118.34 100.26 118.21 101.35 118.80 102.11 C 119.39 102.86 120.49 102.99 121.24 102.40 Z M 121.89 101.89 L 122.74 101.35 C 123.55 100.83 123.79 99.75 123.27 98.93 C 122.75 98.12 121.67 97.88 120.85 98.40 L 120.01 98.94 C 119.19 99.46 118.96 100.54 119.48 101.36 C 120.00 102.17 121.08 102.41 121.89 101.89 Z M 122.54 101.47 L 123.43 101.06 C 124.31 100.65 124.69 99.60 124.28 98.72 C 123.87 97.84 122.82 97.46 121.94 97.87 L 121.05 98.28 C 120.17 98.69 119.79 99.74 120.20 100.62 C 120.61 101.50 121.66 101.88 122.54 101.47 Z M 123.21 101.14 L 124.16 100.84 C 125.09 100.55 125.61 99.56 125.32 98.63 C 125.02 97.71 124.04 97.19 123.11 97.48 L 122.15 97.78 C 121.23 98.08 120.71 99.06 121.00 99.99 C 121.30 100.92 122.28 101.44 123.21 101.14 Z M 123.95 100.90 L 124.95 100.72 C 125.91 100.54 126.55 99.62 126.37 98.67 C 126.20 97.71 125.28 97.07 124.32 97.25 L 123.32 97.43 C 122.36 97.60 121.73 98.52 121.90 99.48 C 122.08 100.44 122.99 101.07 123.95 100.90 Z M 124.74 100.74 L 125.73 100.69 C 126.70 100.63 127.44 99.80 127.39 98.82 C 127.33 97.85 126.50 97.11 125.53 97.16 L 124.53 97.22 C 123.56 97.27 122.82 98.11 122.87 99.08 C 122.93 100.06 123.76 100.80 124.74 100.74 Z M 125.48 100.68 L 126.47 100.77 C 127.44 100.85 128.29 100.13 128.38 99.16 C 128.46 98.19 127.74 97.33 126.77 97.25 L 125.78 97.17 C 124.80 97.08 123.95 97.80 123.87 98.78 C 123.78 99.75 124.51 100.60 125.48 100.68 Z M 126.17 100.72 L 127.14 100.97 C 128.08 101.22 129.05 100.65 129.30 99.71 C 129.54 98.77 128.98 97.80 128.04 97.55 L 127.06 97.30 C 126.12 97.05 125.15 97.62 124.91 98.56 C 124.66 99.50 125.23 100.47 126.17 100.72 Z M 126.82 100.85 L 127.69 101.27 C 128.57 101.70 129.63 101.33 130.05 100.45 C 130.47 99.57 130.10 98.51 129.22 98.09 L 128.35 97.67 C 127.47 97.25 126.42 97.62 126.00 98.50 C 125.57 99.38 125.94 100.43 126.82 100.85 Z M 127.40 101.09 L 128.17 101.67 C 128.95 102.26 130.05 102.10 130.64 101.32 C 131.22 100.54 131.07 99.43 130.29 98.85 L 129.52 98.27 C 128.74 97.68 127.63 97.84 127.05 98.62 C 126.46 99.40 126.62 100.51 127.40 101.09 Z M 127.90 101.43 L 128.57 102.18 C 129.22 102.91 130.33 102.98 131.06 102.33 C 131.79 101.69 131.86 100.57 131.22 99.84 L 130.55 99.09 C 129.90 98.36 128.79 98.29 128.06 98.94 C 127.33 99.58 127.26 100.70 127.90 101.43 Z M 128.35 101.88 L 128.88 102.81 C 129.36 103.66 130.43 103.96 131.28 103.48 C 132.13 103.00 132.43 101.93 131.96 101.08 L 131.43 100.15 C 130.95 99.30 129.88 98.99 129.03 99.47 C 128.18 99.95 127.87 101.03 128.35 101.88 Z M 128.74 102.50 L 129.05 103.41 C 129.35 104.33 130.35 104.83 131.28 104.52 C 132.20 104.21 132.70 103.21 132.39 102.29 L 132.09 101.38 C 131.78 100.46 130.78 99.96 129.86 100.27 C 128.93 100.58 128.43 101.58 128.74 102.50 Z M 128.98 103.15 L 129.16 104.14 C 129.33 105.10 130.24 105.74 131.20 105.57 C 132.16 105.40 132.80 104.48 132.63 103.53 L 132.46 102.54 C 132.29 101.58 131.37 100.94 130.41 101.11 C 129.45 101.28 128.81 102.20 128.98 103.15 Z M 129.13 103.91 L 129.18 104.93 C 129.22 105.90 130.04 106.65 131.01 106.61 C 131.98 106.57 132.74 105.75 132.70 104.78 L 132.65 103.76 C 132.61 102.79 131.79 102.03 130.82 102.07 C 129.85 102.11 129.09 102.94 129.13 103.91 Z M 129.18 104.70 L 129.09 105.71 C 129.01 106.68 129.72 107.53 130.69 107.62 C 131.65 107.71 132.51 106.99 132.60 106.03 L 132.69 105.01 C 132.78 104.05 132.06 103.19 131.09 103.10 C 130.13 103.02 129.27 103.73 129.18 104.70 Z M 129.14 105.46 L 128.89 106.47 C 128.67 107.41 129.25 108.36 130.19 108.58 C 131.14 108.81 132.08 108.23 132.31 107.29 L 132.55 106.28 C 132.78 105.33 132.20 104.39 131.25 104.16 C 130.31 103.93 129.36 104.51 129.14 105.46 Z M 128.97 106.24 L 128.59 107.20 C 128.24 108.10 128.69 109.12 129.59 109.47 C 130.49 109.83 131.51 109.38 131.86 108.48 L 132.24 107.52 C 132.59 106.61 132.14 105.60 131.24 105.24 C 130.34 104.89 129.32 105.34 128.97 106.24 Z M 128.67 107.05 L 128.21 107.94 C 127.77 108.80 128.12 109.85 128.98 110.29 C 129.84 110.73 130.89 110.39 131.33 109.53 L 131.79 108.63 C 132.22 107.77 131.88 106.72 131.02 106.28 C 130.16 105.84 129.11 106.18 128.67 107.05 Z M 128.26 107.85 L 127.78 108.68 C 127.30 109.52 127.58 110.59 128.41 111.07 C 129.25 111.55 130.32 111.27 130.80 110.44 L 131.28 109.61 C 131.77 108.77 131.48 107.71 130.65 107.22 C 129.81 106.74 128.75 107.02 128.26 107.85 Z M 127.79 108.67 L 127.27 109.54 C 126.78 110.37 127.06 111.44 127.89 111.93 C 128.72 112.42 129.79 112.15 130.28 111.32 L 130.79 110.45 C 131.29 109.62 131.01 108.55 130.18 108.06 C 129.35 107.57 128.28 107.84 127.79 108.67 Z M 127.25 109.58 L 126.76 110.47 C 126.29 111.31 126.59 112.38 127.43 112.84 C 128.27 113.31 129.34 113.01 129.81 112.17 L 130.30 111.28 C 130.77 110.44 130.47 109.37 129.63 108.91 C 128.78 108.44 127.72 108.74 127.25 109.58 Z M 126.72 110.54 L 126.29 111.40 C 125.86 112.26 126.20 113.31 127.07 113.74 C 127.93 114.18 128.98 113.83 129.41 112.96 L 129.84 112.10 C 130.27 111.24 129.93 110.19 129.06 109.76 C 128.20 109.33 127.15 109.68 126.72 110.54 Z M 126.24 111.50 L 125.84 112.44 C 125.46 113.32 125.87 114.35 126.76 114.73 C 127.65 115.11 128.67 114.70 129.05 113.81 L 129.45 112.87 C 129.83 111.98 129.42 110.96 128.53 110.58 C 127.65 110.20 126.62 110.61 126.24 111.50 Z M 125.77 112.64 L 125.47 113.69 C 125.20 114.62 125.73 115.58 126.65 115.85 C 127.58 116.12 128.54 115.59 128.81 114.67 L 129.12 113.61 C 129.39 112.69 128.86 111.72 127.93 111.45 C 127.01 111.18 126.04 111.71 125.77 112.64 Z M 125.40 114.27 L 125.45 115.14 C 125.50 116.10 126.32 116.84 127.27 116.79 C 128.23 116.74 128.97 115.92 128.92 114.97 L 128.88 114.09 C 128.83 113.13 128.01 112.39 127.05 112.44 C 126.09 112.49 125.35 113.31 125.40 114.27 Z M 125.98 116.30 L 126.49 116.80 C 127.18 117.47 128.28 117.45 128.95 116.77 C 129.61 116.08 129.60 114.98 128.91 114.31 L 128.39 113.81 C 127.71 113.14 126.61 113.16 125.94 113.85 C 125.27 114.53 125.29 115.63 125.98 116.30 Z M 127.29 117.24 L 128.18 117.46 C 129.11 117.69 130.05 117.13 130.28 116.20 C 130.51 115.27 129.95 114.33 129.02 114.10 L 128.12 113.87 C 127.19 113.64 126.25 114.21 126.02 115.14 C 125.79 116.07 126.36 117.01 127.29 117.24 Z M 128.49 117.51 L 129.65 117.58 C 130.60 117.64 131.43 116.92 131.49 115.96 C 131.55 115.00 130.82 114.18 129.86 114.12 L 128.71 114.05 C 127.75 113.99 126.93 114.72 126.87 115.67 C 126.81 116.63 127.54 117.45 128.49 117.51 Z M 129.73 117.59 L 130.78 117.60 C 131.74 117.62 132.52 116.86 132.54 115.90 C 132.56 114.94 131.79 114.15 130.83 114.13 L 129.78 114.12 C 128.83 114.10 128.04 114.87 128.02 115.82 C 128.01 116.78 128.77 117.57 129.73 117.59 Z M 130.80 117.60 L 131.79 117.61 C 132.75 117.61 133.53 116.84 133.53 115.88 C 133.53 114.92 132.76 114.14 131.80 114.14 L 130.81 114.13 C 129.85 114.13 129.07 114.91 129.07 115.86 C 129.07 116.82 129.84 117.60 130.80 117.60 Z M 131.82 117.61 L 132.83 117.59 C 133.79 117.58 134.55 116.80 134.54 115.84 C 134.53 114.88 133.74 114.11 132.79 114.13 L 131.78 114.14 C 130.82 114.15 130.05 114.94 130.06 115.89 C 130.07 116.85 130.86 117.62 131.82 117.61 Z M 132.86 117.59 L 133.88 117.56 C 134.84 117.53 135.59 116.73 135.56 115.77 C 135.53 114.82 134.73 114.07 133.77 114.10 L 132.75 114.13 C 131.80 114.16 131.04 114.96 131.07 115.91 C 131.10 116.87 131.90 117.62 132.86 117.59 Z M 133.92 117.56 L 134.96 117.51 C 135.91 117.45 136.65 116.64 136.60 115.68 C 136.54 114.72 135.73 113.99 134.77 114.04 L 133.73 114.10 C 132.77 114.15 132.04 114.97 132.09 115.92 C 132.14 116.88 132.96 117.61 133.92 117.56 Z M 134.98 117.51 L 136.01 117.43 C 136.97 117.37 137.69 116.54 137.62 115.58 C 137.56 114.62 136.73 113.90 135.77 113.97 L 134.74 114.04 C 133.79 114.11 133.06 114.94 133.13 115.89 C 133.20 116.85 134.03 117.57 134.98 117.51 Z M 136.01 117.44 L 137.01 117.37 C 137.97 117.30 138.69 116.47 138.62 115.51 C 138.55 114.55 137.72 113.83 136.76 113.90 L 135.77 113.97 C 134.81 114.03 134.09 114.87 134.16 115.82 C 134.22 116.78 135.06 117.50 136.01 117.44 Z M 136.98 117.37 L 137.93 117.32 C 138.89 117.26 139.63 116.44 139.57 115.48 C 139.52 114.52 138.70 113.78 137.74 113.84 L 136.79 113.89 C 135.83 113.95 135.09 114.77 135.15 115.73 C 135.20 116.69 136.02 117.42 136.98 117.37 Z M 137.85 117.32 L 138.96 117.31 C 139.92 117.30 140.70 116.52 140.69 115.55 C 140.68 114.59 139.89 113.82 138.93 113.82 L 137.82 113.83 C 136.86 113.84 136.08 114.63 136.09 115.59 C 136.10 116.55 136.89 117.33 137.85 117.32 Z M 138.69 117.29 L 139.68 117.44 C 140.63 117.58 141.52 116.92 141.66 115.97 C 141.80 115.01 141.14 114.13 140.18 113.99 L 139.20 113.84 C 138.24 113.70 137.36 114.36 137.22 115.31 C 137.08 116.27 137.74 117.15 138.69 117.29 Z M 139.10 117.25 L 139.87 117.66 C 140.72 118.12 141.78 117.80 142.23 116.95 C 142.69 116.10 142.37 115.04 141.52 114.58 L 140.76 114.17 C 139.91 113.72 138.85 114.04 138.39 114.89 C 137.94 115.74 138.25 116.79 139.10 117.25 Z M 139.24 117.09 L 139.69 117.77 C 140.22 118.58 141.31 118.80 142.11 118.27 C 142.92 117.73 143.14 116.65 142.61 115.85 L 142.15 115.16 C 141.62 114.35 140.54 114.13 139.73 114.67 C 138.93 115.20 138.70 116.28 139.24 117.09 Z M 139.43 117.13 L 139.61 118.07 C 139.79 119.02 140.70 119.64 141.65 119.46 C 142.60 119.28 143.22 118.37 143.04 117.42 L 142.86 116.48 C 142.68 115.54 141.77 114.91 140.82 115.09 C 139.87 115.27 139.25 116.19 139.43 117.13 Z M 139.59 117.55 L 139.46 118.66 C 139.36 119.62 140.04 120.49 141.00 120.59 C 141.96 120.70 142.83 120.01 142.93 119.06 L 143.06 117.94 C 143.17 116.98 142.48 116.12 141.52 116.01 C 140.56 115.90 139.70 116.59 139.59 117.55 Z M 139.55 118.29 L 139.22 119.24 C 138.91 120.15 139.40 121.15 140.31 121.46 C 141.22 121.77 142.21 121.29 142.52 120.38 L 142.85 119.43 C 143.16 118.51 142.68 117.52 141.76 117.21 C 140.85 116.90 139.86 117.38 139.55 118.29 Z M 139.32 119.03 L 138.89 119.89 C 138.45 120.75 138.80 121.79 139.65 122.23 C 140.51 122.66 141.56 122.31 141.99 121.46 L 142.42 120.59 C 142.85 119.74 142.51 118.69 141.65 118.26 C 140.80 117.83 139.75 118.17 139.32 119.03 Z M 138.97 119.76 L 138.43 120.63 C 137.92 121.44 138.17 122.51 138.98 123.01 C 139.80 123.52 140.86 123.27 141.37 122.46 L 141.91 121.59 C 142.41 120.78 142.16 119.71 141.35 119.21 C 140.54 118.70 139.47 118.95 138.97 119.76 Z M 138.50 120.54 L 137.89 121.39 C 137.33 122.16 137.51 123.24 138.29 123.79 C 139.06 124.35 140.13 124.17 140.69 123.39 L 141.30 122.55 C 141.85 121.77 141.67 120.70 140.90 120.14 C 140.13 119.59 139.05 119.77 138.50 120.54 Z M 137.95 121.32 L 137.31 122.13 C 136.71 122.87 136.84 123.95 137.58 124.54 C 138.32 125.13 139.40 125.01 139.99 124.27 L 140.63 123.46 C 141.22 122.72 141.10 121.64 140.36 121.05 C 139.62 120.46 138.54 120.58 137.95 121.32 Z M 137.36 122.07 L 136.68 122.86 C 136.06 123.57 136.13 124.64 136.84 125.26 C 137.55 125.88 138.63 125.81 139.25 125.10 L 139.93 124.32 C 140.55 123.61 140.48 122.53 139.77 121.91 C 139.06 121.29 137.98 121.36 137.36 122.07 Z M 136.74 122.81 L 136.05 123.53 C 135.40 124.21 135.42 125.28 136.10 125.93 C 136.77 126.57 137.84 126.55 138.49 125.88 L 139.19 125.15 C 139.83 124.48 139.81 123.40 139.13 122.76 C 138.46 122.11 137.39 122.13 136.74 122.81 Z M 136.11 123.48 L 135.40 124.16 C 134.72 124.80 134.70 125.87 135.34 126.54 C 135.98 127.21 137.04 127.24 137.72 126.60 L 138.43 125.92 C 139.10 125.28 139.13 124.22 138.49 123.54 C 137.85 122.87 136.78 122.84 136.11 123.48 Z M 135.46 124.12 L 134.72 124.76 C 134.02 125.37 133.95 126.43 134.56 127.12 C 135.17 127.82 136.22 127.89 136.92 127.28 L 137.65 126.64 C 138.35 126.03 138.42 124.98 137.82 124.28 C 137.21 123.59 136.15 123.51 135.46 124.12 Z M 134.78 124.73 L 134.02 125.34 C 133.31 125.92 133.19 126.96 133.77 127.68 C 134.35 128.39 135.39 128.50 136.11 127.93 L 136.86 127.32 C 137.57 126.74 137.69 125.69 137.11 124.98 C 136.53 124.27 135.49 124.16 134.78 124.73 Z M 134.07 125.31 L 133.29 125.90 C 132.56 126.45 132.42 127.48 132.97 128.21 C 133.52 128.94 134.55 129.09 135.28 128.54 L 136.06 127.95 C 136.79 127.40 136.93 126.37 136.38 125.64 C 135.83 124.91 134.80 124.76 134.07 125.31 Z M 133.33 125.87 L 132.52 126.45 C 131.78 126.97 131.60 128.00 132.13 128.75 C 132.66 129.49 133.69 129.67 134.43 129.14 L 135.24 128.56 C 135.99 128.04 136.16 127.01 135.63 126.26 C 135.11 125.52 134.08 125.34 133.33 125.87 Z M 132.56 126.43 L 131.72 126.99 C 130.96 127.50 130.76 128.52 131.27 129.28 C 131.77 130.03 132.80 130.23 133.55 129.73 L 134.39 129.16 C 135.15 128.65 135.35 127.63 134.84 126.88 C 134.34 126.12 133.32 125.92 132.56 126.43 Z M 131.75 126.97 L 130.88 127.53 C 130.11 128.02 129.89 129.04 130.38 129.80 C 130.86 130.56 131.88 130.79 132.64 130.30 L 133.52 129.74 C 134.28 129.25 134.51 128.24 134.02 127.48 C 133.53 126.71 132.52 126.49 131.75 126.97 Z M 130.91 127.52 L 130.06 128.04 C 129.28 128.51 129.04 129.52 129.51 130.29 C 129.98 131.06 130.99 131.31 131.76 130.83 L 132.61 130.32 C 133.39 129.84 133.63 128.84 133.16 128.06 C 132.69 127.29 131.68 127.05 130.91 127.52 Z M 130.08 128.02 L 129.22 128.52 C 128.44 128.98 128.18 129.98 128.63 130.76 C 129.09 131.55 130.09 131.81 130.87 131.35 L 131.74 130.85 C 132.52 130.39 132.78 129.39 132.33 128.61 C 131.87 127.83 130.87 127.56 130.08 128.02 Z M 129.25 128.51 L 128.37 128.99 C 127.58 129.43 127.30 130.43 127.73 131.22 C 128.17 132.01 129.17 132.30 129.96 131.86 L 130.84 131.37 C 131.63 130.93 131.92 129.93 131.48 129.14 C 131.04 128.35 130.04 128.07 129.25 128.51 Z M 128.41 128.98 L 127.51 129.44 C 126.71 129.86 126.41 130.85 126.83 131.66 C 127.25 132.46 128.24 132.76 129.04 132.34 L 129.93 131.88 C 130.73 131.46 131.04 130.47 130.62 129.66 C 130.20 128.86 129.21 128.56 128.41 128.98 Z M 127.55 129.43 L 126.65 129.87 C 125.84 130.27 125.51 131.25 125.91 132.06 C 126.31 132.87 127.29 133.20 128.10 132.81 L 129.00 132.36 C 129.81 131.96 130.14 130.98 129.74 130.17 C 129.34 129.36 128.36 129.03 127.55 129.43 Z M 126.70 129.85 L 125.77 130.27 C 124.95 130.65 124.59 131.62 124.97 132.44 C 125.34 133.26 126.32 133.62 127.14 133.25 L 128.06 132.82 C 128.88 132.45 129.24 131.48 128.87 130.65 C 128.49 129.83 127.52 129.47 126.70 129.85 Z M 125.82 130.25 L 124.89 130.64 C 124.06 131.00 123.67 131.96 124.02 132.79 C 124.37 133.62 125.33 134.01 126.16 133.66 L 127.09 133.27 C 127.93 132.92 128.32 131.96 127.96 131.12 C 127.61 130.29 126.65 129.90 125.82 130.25 Z M 124.93 130.63 L 124.00 130.99 C 123.16 131.31 122.74 132.26 123.07 133.11 C 123.40 133.95 124.34 134.37 125.19 134.04 L 126.12 133.68 C 126.96 133.35 127.38 132.40 127.05 131.56 C 126.73 130.72 125.78 130.30 124.93 130.63 Z M 124.05 130.97 L 123.12 131.30 C 122.26 131.60 121.82 132.54 122.12 133.39 C 122.42 134.24 123.36 134.69 124.21 134.39 L 125.14 134.06 C 125.99 133.75 126.44 132.82 126.14 131.97 C 125.84 131.11 124.90 130.67 124.05 130.97 Z M 123.16 131.29 L 122.22 131.59 C 121.36 131.86 120.89 132.78 121.16 133.65 C 121.44 134.51 122.36 134.98 123.22 134.70 L 124.16 134.40 C 125.02 134.13 125.50 133.20 125.22 132.34 C 124.94 131.48 124.02 131.01 123.16 131.29 Z M 122.27 131.57 L 121.30 131.85 C 120.44 132.10 119.94 133.01 120.19 133.88 C 120.44 134.75 121.35 135.25 122.22 135.00 L 123.18 134.72 C 124.05 134.47 124.55 133.56 124.29 132.69 C 124.04 131.82 123.14 131.32 122.27 131.57 Z M 121.34 131.84 L 120.37 132.10 C 119.50 132.33 118.98 133.22 119.21 134.10 C 119.44 134.97 120.34 135.49 121.21 135.26 L 122.18 135.01 C 123.05 134.78 123.57 133.88 123.34 133.01 C 123.11 132.13 122.22 131.61 121.34 131.84 Z M 120.40 132.09 L 119.43 132.33 C 118.55 132.55 118.02 133.43 118.23 134.31 C 118.45 135.19 119.34 135.72 120.21 135.51 L 121.18 135.27 C 122.06 135.05 122.60 134.17 122.38 133.29 C 122.17 132.41 121.28 131.87 120.40 132.09 Z M 119.45 132.33 L 118.48 132.55 C 117.60 132.76 117.05 133.64 117.26 134.52 C 117.46 135.40 118.34 135.95 119.22 135.74 L 120.20 135.51 C 121.08 135.31 121.62 134.43 121.42 133.55 C 121.21 132.67 120.33 132.12 119.45 132.33 Z M 118.48 132.55 L 117.72 132.73 C 116.84 132.93 116.29 133.81 116.49 134.69 C 116.69 135.57 117.57 136.12 118.45 135.92 L 119.22 135.74 C 120.10 135.54 120.65 134.66 120.45 133.78 C 120.24 132.90 119.37 132.35 118.48 132.55 Z"
      fill="black"
      fill-rule="nonzero" /><path d="M 113.10 111.30 L 113.51 112.17 C 113.91 113.02 114.92 113.39 115.77 112.99 C 116.62 112.59 116.99 111.57 116.59 110.72 L 116.18 109.85 C 115.78 109.00 114.77 108.63 113.91 109.03 C 113.06 109.43 112.70 110.45 113.10 111.30 Z M 113.41 112.14 L 113.80 113.05 C 114.18 113.95 115.22 114.37 116.13 113.99 C 117.03 113.61 117.45 112.56 117.07 111.66 L 116.69 110.75 C 116.30 109.85 115.26 109.43 114.36 109.81 C 113.45 110.19 113.03 111.24 113.41 112.14 Z M 113.68 112.95 L 114.01 113.91 C 114.34 114.88 115.39 115.40 116.36 115.07 C 117.32 114.74 117.84 113.69 117.51 112.72 L 117.19 111.76 C 116.86 110.79 115.80 110.27 114.84 110.60 C 113.87 110.93 113.35 111.98 113.68 112.95 Z M 113.90 113.76 L 114.14 114.75 C 114.38 115.78 115.41 116.41 116.43 116.17 C 117.46 115.92 118.10 114.90 117.85 113.87 L 117.62 112.88 C 117.37 111.85 116.35 111.22 115.32 111.46 C 114.29 111.70 113.66 112.73 113.90 113.76 Z M 114.09 114.60 L 114.24 115.60 C 114.40 116.65 115.38 117.37 116.44 117.21 C 117.49 117.05 118.21 116.07 118.05 115.02 L 117.90 114.02 C 117.74 112.97 116.76 112.24 115.71 112.40 C 114.65 112.56 113.93 113.55 114.09 114.60 Z M 114.23 115.50 L 114.33 116.52 C 114.43 117.57 115.38 118.35 116.44 118.24 C 117.50 118.14 118.27 117.19 118.17 116.13 L 118.07 115.12 C 117.96 114.06 117.02 113.28 115.96 113.39 C 114.90 113.49 114.12 114.44 114.23 115.50 Z M 114.32 116.46 L 114.39 117.45 C 114.46 118.51 115.38 119.32 116.45 119.25 C 117.51 119.17 118.31 118.25 118.24 117.19 L 118.17 116.20 C 118.10 115.13 117.18 114.33 116.12 114.40 C 115.06 114.47 114.25 115.39 114.32 116.46 Z M 114.39 117.43 L 114.45 118.44 C 114.50 119.51 115.41 120.32 116.47 120.26 C 117.54 120.21 118.35 119.30 118.29 118.24 L 118.24 117.22 C 118.18 116.16 117.27 115.34 116.21 115.40 C 115.15 115.46 114.33 116.36 114.39 117.43 Z M 114.45 118.43 L 114.50 119.45 C 114.55 120.51 115.45 121.32 116.51 121.27 C 117.57 121.22 118.39 120.32 118.34 119.26 L 118.29 118.25 C 118.24 117.19 117.34 116.37 116.28 116.42 C 115.22 116.47 114.40 117.37 114.45 118.43 Z M 114.50 119.44 L 114.55 120.41 C 114.59 121.46 115.49 122.28 116.55 122.24 C 117.60 122.19 118.42 121.29 118.38 120.24 L 118.34 119.27 C 118.29 118.21 117.39 117.39 116.33 117.44 C 115.28 117.48 114.46 118.38 114.50 119.44 Z M 114.55 120.40 L 114.59 121.36 C 114.63 122.42 115.52 123.24 116.58 123.20 C 117.63 123.15 118.46 122.26 118.41 121.21 L 118.37 120.24 C 118.33 119.19 117.44 118.37 116.38 118.41 C 115.33 118.45 114.51 119.34 114.55 120.40 Z M 114.59 121.36 L 114.63 122.31 C 114.67 123.36 115.56 124.18 116.61 124.14 C 117.67 124.10 118.49 123.21 118.45 122.16 L 118.41 121.21 C 118.37 120.16 117.48 119.34 116.43 119.38 C 115.37 119.42 114.55 120.31 114.59 121.36 Z M 114.63 122.31 L 114.68 123.30 C 114.72 124.35 115.61 125.17 116.66 125.13 C 117.71 125.08 118.53 124.20 118.48 123.14 L 118.44 122.15 C 118.40 121.10 117.51 120.29 116.46 120.33 C 115.41 120.37 114.59 121.26 114.63 122.31 Z M 114.68 123.31 L 114.73 124.35 C 114.77 125.39 115.66 126.21 116.71 126.16 C 117.76 126.11 118.57 125.22 118.53 124.17 L 118.48 123.14 C 118.43 122.09 117.54 121.28 116.49 121.32 C 115.44 121.37 114.63 122.26 114.68 123.31 Z M 114.73 124.36 L 114.78 125.36 C 114.84 126.41 115.73 127.21 116.77 127.16 C 117.82 127.10 118.62 126.21 118.57 125.17 L 118.52 124.16 C 118.47 123.12 117.58 122.31 116.53 122.37 C 115.48 122.42 114.68 123.31 114.73 124.36 Z M 114.79 125.37 L 114.84 126.34 C 114.90 127.38 115.79 128.18 116.84 128.12 C 117.88 128.07 118.68 127.17 118.62 126.13 L 118.57 125.16 C 118.51 124.11 117.61 123.32 116.57 123.37 C 115.53 123.43 114.73 124.33 114.79 125.37 Z M 114.85 126.35 L 114.91 127.35 C 114.97 128.39 115.86 129.18 116.90 129.12 C 117.94 129.06 118.74 128.17 118.68 127.12 L 118.62 126.12 C 118.55 125.08 117.66 124.29 116.62 124.35 C 115.58 124.41 114.79 125.31 114.85 126.35 Z M 114.91 127.35 L 114.97 128.37 C 115.04 129.41 115.93 130.20 116.97 130.14 C 118.00 130.08 118.80 129.18 118.73 128.15 L 118.67 127.12 C 118.61 126.08 117.71 125.29 116.68 125.36 C 115.64 125.42 114.85 126.31 114.91 127.35 Z M 114.98 128.37 L 115.04 129.39 C 115.10 130.42 115.99 131.21 117.03 131.15 C 118.06 131.09 118.85 130.20 118.79 129.16 L 118.73 128.15 C 118.67 127.11 117.77 126.32 116.74 126.39 C 115.70 126.45 114.91 127.34 114.98 128.37 Z M 115.04 129.39 L 115.10 130.36 C 115.17 131.40 116.05 132.18 117.09 132.12 C 118.12 132.06 118.91 131.17 118.84 130.14 L 118.78 129.16 C 118.72 128.13 117.83 127.34 116.80 127.40 C 115.77 127.47 114.98 128.35 115.04 129.39 Z M 115.11 130.36 L 115.17 131.35 C 115.23 132.38 116.12 133.17 117.15 133.10 C 118.18 133.04 118.96 132.16 118.90 131.13 L 118.84 130.14 C 118.77 129.11 117.89 128.32 116.86 128.39 C 115.83 128.45 115.05 129.34 115.11 130.36 Z M 115.18 131.36 L 115.24 132.37 C 115.31 133.39 116.19 134.17 117.22 134.10 C 118.24 134.04 119.02 133.15 118.96 132.13 L 118.89 131.12 C 118.83 130.10 117.94 129.32 116.92 129.38 C 115.89 129.45 115.11 130.33 115.18 131.36 Z M 115.25 132.37 L 115.32 133.40 C 115.38 134.42 116.27 135.19 117.29 135.12 C 118.31 135.05 119.09 134.17 119.02 133.15 L 118.95 132.12 C 118.88 131.10 118.00 130.33 116.97 130.40 C 115.95 130.46 115.18 131.35 115.25 132.37 Z M 115.32 133.40 L 115.39 134.38 C 115.47 135.39 116.35 136.16 117.37 136.09 C 118.39 136.02 119.15 135.13 119.08 134.11 L 119.01 133.14 C 118.94 132.12 118.05 131.35 117.04 131.43 C 116.02 131.50 115.25 132.38 115.32 133.40 Z M 115.40 134.38 L 115.47 135.36 C 115.55 136.37 116.43 137.13 117.45 137.06 C 118.46 136.98 119.22 136.10 119.15 135.08 L 119.07 134.11 C 119.00 133.09 118.11 132.33 117.10 132.41 C 116.08 132.48 115.32 133.37 115.40 134.38 Z M 115.48 135.36 L 115.56 136.35 C 115.63 137.36 116.52 138.12 117.53 138.04 C 118.54 137.96 119.30 137.08 119.22 136.07 L 119.14 135.08 C 119.06 134.07 118.18 133.31 117.17 133.39 C 116.16 133.47 115.40 134.35 115.48 135.36 Z M 115.56 136.35 L 115.64 137.37 C 115.72 138.37 116.60 139.13 117.61 139.05 C 118.62 138.97 119.37 138.09 119.29 137.08 L 119.21 136.07 C 119.13 135.06 118.25 134.31 117.24 134.39 C 116.24 134.47 115.48 135.35 115.56 136.35 Z M 115.65 137.37 L 115.73 138.40 C 115.81 139.40 116.68 140.15 117.69 140.07 C 118.69 140.00 119.44 139.12 119.36 138.12 L 119.28 137.08 C 119.21 136.08 118.33 135.33 117.32 135.41 C 116.32 135.48 115.57 136.36 115.65 137.37 Z M 115.74 138.40 L 115.81 139.39 C 115.89 140.39 116.76 141.14 117.76 141.07 C 118.76 140.99 119.51 140.12 119.43 139.12 L 119.36 138.12 C 119.28 137.12 118.41 136.37 117.41 136.45 C 116.41 136.52 115.66 137.40 115.74 138.40 Z M 115.82 139.39 L 115.90 140.39 C 115.97 141.39 116.84 142.14 117.83 142.06 C 118.83 141.99 119.58 141.12 119.50 140.12 L 119.42 139.12 C 119.35 138.12 118.48 137.38 117.49 137.45 C 116.49 137.53 115.74 138.40 115.82 139.39 Z M 115.90 140.39 L 115.98 141.40 C 116.05 142.39 116.92 143.13 117.91 143.06 C 118.90 142.99 119.64 142.12 119.57 141.13 L 119.49 140.12 C 119.42 139.13 118.55 138.39 117.56 138.46 C 116.57 138.54 115.83 139.40 115.90 140.39 Z M 115.99 141.40 L 116.06 142.40 C 116.14 143.39 117.00 144.13 117.98 144.05 C 118.97 143.98 119.71 143.12 119.64 142.13 L 119.56 141.13 C 119.49 140.14 118.63 139.40 117.64 139.48 C 116.65 139.55 115.91 140.41 115.99 141.40 Z M 116.07 142.40 L 116.15 143.39 C 116.22 144.38 117.08 145.11 118.06 145.04 C 119.04 144.96 119.78 144.10 119.70 143.12 L 119.63 142.13 C 119.55 141.15 118.70 140.41 117.71 140.49 C 116.73 140.56 116.00 141.42 116.07 142.40 Z M 116.15 143.40 L 116.23 144.41 C 116.31 145.39 117.16 146.12 118.14 146.04 C 119.12 145.96 119.85 145.11 119.77 144.13 L 119.70 143.12 C 119.62 142.14 118.76 141.41 117.79 141.49 C 116.81 141.56 116.08 142.42 116.15 143.40 Z M 116.24 144.41 L 116.32 145.42 C 116.40 146.40 117.25 147.12 118.23 147.05 C 119.20 146.97 119.93 146.12 119.85 145.14 L 119.77 144.13 C 119.69 143.15 118.84 142.43 117.86 142.51 C 116.89 142.58 116.16 143.44 116.24 144.41 Z M 116.33 145.43 L 116.41 146.42 C 116.49 147.39 117.34 148.12 118.31 148.04 C 119.28 147.96 120.00 147.11 119.92 146.14 L 119.84 145.14 C 119.76 144.17 118.91 143.45 117.94 143.53 C 116.97 143.61 116.25 144.46 116.33 145.43 Z M 116.42 146.42 L 116.50 147.41 C 116.58 148.37 117.43 149.09 118.39 149.01 C 119.36 148.93 120.08 148.08 120.00 147.12 L 119.92 146.14 C 119.84 145.17 118.99 144.45 118.02 144.53 C 117.06 144.61 116.34 145.46 116.42 146.42 Z M 116.50 147.41 L 116.59 148.38 C 116.67 149.35 117.51 150.06 118.47 149.98 C 119.44 149.90 120.15 149.06 120.07 148.09 L 119.99 147.12 C 119.91 146.16 119.07 145.44 118.10 145.52 C 117.14 145.60 116.42 146.45 116.50 147.41 Z M 116.59 148.38 L 116.68 149.38 C 116.76 150.34 117.60 151.05 118.56 150.97 C 119.52 150.89 120.23 150.05 120.15 149.09 L 120.07 148.09 C 119.99 147.14 119.14 146.42 118.18 146.50 C 117.23 146.58 116.51 147.42 116.59 148.38 Z M 116.68 149.38 L 116.77 150.38 C 116.85 151.33 117.68 152.04 118.64 151.96 C 119.59 151.88 120.30 151.04 120.22 150.09 L 120.14 149.09 C 120.06 148.13 119.22 147.42 118.27 147.50 C 117.31 147.58 116.60 148.42 116.68 149.38 Z M 116.77 150.38 L 116.86 151.37 C 116.94 152.33 117.77 153.03 118.72 152.95 C 119.67 152.87 120.38 152.04 120.30 151.09 L 120.22 150.09 C 120.14 149.14 119.30 148.43 118.35 148.51 C 117.40 148.59 116.69 149.43 116.77 150.38 Z M 116.86 151.37 L 116.95 152.37 C 117.03 153.32 117.86 154.02 118.81 153.94 C 119.75 153.86 120.46 153.03 120.38 152.08 L 120.29 151.09 C 120.21 150.14 119.38 149.44 118.43 149.51 C 117.49 149.59 116.78 150.43 116.86 151.37 Z M 116.95 152.37 L 117.04 153.36 C 117.12 154.30 117.95 155.00 118.89 154.92 C 119.83 154.85 120.53 154.02 120.45 153.07 L 120.37 152.08 C 120.29 151.14 119.46 150.44 118.52 150.52 C 117.57 150.60 116.87 151.43 116.95 152.37 Z M 117.04 153.36 L 117.13 154.37 C 117.21 155.31 118.03 156.00 118.97 155.92 C 119.91 155.85 120.61 155.02 120.53 154.08 L 120.45 153.07 C 120.37 152.13 119.54 151.43 118.60 151.51 C 117.66 151.59 116.96 152.42 117.04 153.36 Z M 117.13 154.37 L 117.22 155.37 C 117.30 156.31 118.12 157.00 119.06 156.92 C 120.00 156.84 120.69 156.02 120.61 155.08 L 120.53 154.08 C 120.45 153.14 119.62 152.45 118.69 152.53 C 117.75 152.61 117.05 153.43 117.13 154.37 Z M 117.23 155.37 L 117.31 156.36 C 117.39 157.30 118.21 157.99 119.15 157.91 C 120.08 157.83 120.77 157.01 120.69 156.07 L 120.61 155.08 C 120.53 154.15 119.70 153.45 118.77 153.53 C 117.84 153.61 117.15 154.44 117.23 155.37 Z M 117.32 156.37 L 117.40 157.35 C 117.48 158.28 118.30 158.97 119.23 158.89 C 120.16 158.81 120.85 157.99 120.77 157.06 L 120.69 156.07 C 120.60 155.14 119.79 154.46 118.86 154.54 C 117.93 154.62 117.24 155.44 117.32 156.37 Z M 117.41 157.36 L 117.50 158.35 C 117.58 159.27 118.39 159.96 119.32 159.88 C 120.24 159.80 120.93 158.98 120.85 158.06 L 120.76 157.06 C 120.68 156.14 119.87 155.45 118.94 155.53 C 118.01 155.61 117.33 156.43 117.41 157.36 Z M 117.50 158.35 L 117.59 159.35 C 117.67 160.28 118.48 160.96 119.41 160.88 C 120.33 160.80 121.01 159.98 120.93 159.06 L 120.84 158.05 C 120.76 157.13 119.95 156.45 119.03 156.53 C 118.10 156.61 117.42 157.42 117.50 158.35 Z M 117.59 159.36 L 117.68 160.36 C 117.77 161.28 118.58 161.95 119.50 161.87 C 120.42 161.79 121.10 160.97 121.02 160.05 L 120.93 159.06 C 120.84 158.14 120.03 157.46 119.11 157.54 C 118.19 157.62 117.51 158.44 117.59 159.36 Z M 117.69 160.36 L 117.78 161.35 C 117.87 162.27 118.68 162.94 119.60 162.86 C 120.52 162.77 121.19 161.96 121.11 161.04 L 121.01 160.05 C 120.93 159.13 120.11 158.46 119.19 158.54 C 118.28 158.63 117.60 159.44 117.69 160.36 Z M 117.79 161.36 L 117.89 162.35 C 117.98 163.26 118.79 163.93 119.71 163.84 C 120.62 163.75 121.29 162.93 121.20 162.02 L 121.10 161.03 C 121.01 160.12 120.19 159.45 119.28 159.54 C 118.37 159.63 117.70 160.45 117.79 161.36 Z M 117.89 162.36 L 118.00 163.35 C 118.10 164.26 118.91 164.92 119.82 164.82 C 120.73 164.72 121.39 163.91 121.30 163.00 L 121.19 162.01 C 121.09 161.10 120.28 160.44 119.37 160.53 C 118.46 160.63 117.80 161.45 117.89 162.36 Z M 118.00 163.36 L 118.12 164.35 C 118.22 165.25 119.04 165.91 119.95 165.80 C 120.85 165.70 121.51 164.88 121.40 163.97 L 121.29 162.99 C 121.19 162.08 120.37 161.42 119.46 161.53 C 118.55 161.63 117.90 162.45 118.00 163.36 Z M 118.12 164.36 L 118.24 165.35 C 118.35 166.25 119.17 166.90 120.07 166.79 C 120.98 166.68 121.63 165.86 121.52 164.95 L 121.40 163.96 C 121.29 163.06 120.47 162.41 119.56 162.52 C 118.66 162.63 118.01 163.45 118.12 164.36 Z M 118.24 165.36 L 118.37 166.35 C 118.48 167.25 119.31 167.89 120.21 167.78 C 121.11 167.67 121.75 166.84 121.64 165.94 L 121.51 164.94 C 121.40 164.04 120.58 163.40 119.67 163.51 C 118.77 163.63 118.13 164.45 118.24 165.36 Z M 118.37 166.36 L 118.51 167.37 C 118.62 168.27 119.45 168.90 120.35 168.78 C 121.25 168.67 121.88 167.84 121.77 166.94 L 121.63 165.93 C 121.52 165.03 120.69 164.40 119.79 164.51 C 118.89 164.63 118.26 165.46 118.37 166.36 Z M 118.51 167.38 L 118.65 168.40 C 118.77 169.30 119.60 169.93 120.50 169.81 C 121.40 169.69 122.03 168.86 121.90 167.96 L 121.76 166.93 C 121.64 166.03 120.81 165.40 119.91 165.53 C 119.02 165.65 118.39 166.48 118.51 167.38 Z M 118.65 168.41 L 118.80 169.43 C 118.93 170.33 119.76 170.95 120.65 170.82 C 121.55 170.69 122.17 169.86 122.05 168.97 L 121.90 167.95 C 121.77 167.05 120.94 166.43 120.04 166.56 C 119.15 166.69 118.52 167.52 118.65 168.41 Z M 118.80 169.44 L 118.95 170.43 C 119.08 171.32 119.92 171.94 120.81 171.80 C 121.71 171.67 122.33 170.83 122.19 169.94 L 122.04 168.95 C 121.91 168.06 121.07 167.44 120.18 167.58 C 119.28 167.71 118.67 168.55 118.80 169.44 Z M 118.95 170.44 L 119.10 171.37 C 119.25 172.27 120.09 172.87 120.98 172.73 C 121.87 172.59 122.48 171.75 122.34 170.85 L 122.19 169.92 C 122.04 169.03 121.20 168.42 120.31 168.56 C 119.42 168.71 118.81 169.55 118.95 170.44 Z M 119.11 171.40 L 119.28 172.38 C 119.44 173.27 120.29 173.87 121.18 173.71 C 122.07 173.55 122.66 172.71 122.51 171.81 L 122.33 170.83 C 122.18 169.94 121.33 169.34 120.44 169.50 C 119.55 169.66 118.95 170.51 119.11 171.40 Z M 119.29 172.42 L 119.48 173.37 C 119.65 174.26 120.51 174.83 121.40 174.66 C 122.29 174.48 122.86 173.62 122.69 172.73 L 122.50 171.78 C 122.33 170.89 121.46 170.32 120.58 170.49 C 119.69 170.67 119.11 171.53 119.29 172.42 Z M 119.48 173.40 L 119.69 174.36 C 119.89 175.24 120.76 175.80 121.65 175.61 C 122.53 175.41 123.09 174.54 122.89 173.65 L 122.68 172.70 C 122.49 171.82 121.61 171.26 120.73 171.45 C 119.85 171.65 119.29 172.52 119.48 173.40 Z M 119.70 174.39 L 119.94 175.39 C 120.16 176.27 121.04 176.81 121.92 176.60 C 122.80 176.39 123.34 175.50 123.13 174.62 L 122.88 173.62 C 122.67 172.74 121.79 172.20 120.91 172.42 C 120.03 172.63 119.49 173.51 119.70 174.39 Z M 119.95 175.42 L 120.20 176.36 C 120.42 177.23 121.32 177.76 122.19 177.53 C 123.07 177.30 123.59 176.41 123.36 175.54 L 123.12 174.60 C 122.89 173.72 122.00 173.20 121.12 173.42 C 120.25 173.65 119.72 174.54 119.95 175.42 Z M 120.20 176.39 L 120.48 177.37 C 120.72 178.24 121.62 178.75 122.49 178.50 C 123.36 178.26 123.87 177.36 123.63 176.49 L 123.36 175.51 C 123.11 174.64 122.21 174.13 121.34 174.37 C 120.47 174.61 119.96 175.52 120.20 176.39 Z M 120.49 177.40 L 120.78 178.38 C 121.04 179.25 121.96 179.74 122.82 179.48 C 123.69 179.22 124.18 178.30 123.92 177.44 L 123.62 176.45 C 123.36 175.59 122.45 175.10 121.58 175.36 C 120.71 175.62 120.22 176.53 120.49 177.40 Z M 120.80 178.43 L 121.11 179.38 C 121.40 180.24 122.32 180.70 123.18 180.42 C 124.04 180.13 124.50 179.20 124.22 178.35 L 123.90 177.39 C 123.62 176.54 122.69 176.07 121.83 176.36 C 120.97 176.64 120.51 177.57 120.80 178.43 Z M 121.13 179.44 L 121.50 180.42 C 121.82 181.27 122.77 181.70 123.61 181.38 C 124.46 181.06 124.89 180.11 124.57 179.27 L 124.20 178.29 C 123.88 177.44 122.93 177.01 122.09 177.33 C 121.24 177.65 120.81 178.59 121.13 179.44 Z M 121.53 180.49 L 121.93 181.43 C 122.29 182.26 123.25 182.65 124.08 182.29 C 124.91 181.94 125.30 180.97 124.94 180.14 L 124.54 179.20 C 124.18 178.37 123.22 177.98 122.39 178.34 C 121.56 178.70 121.17 179.66 121.53 180.49 Z M 121.96 181.48 L 122.37 182.37 C 122.76 183.18 123.73 183.53 124.55 183.15 C 125.37 182.77 125.72 181.79 125.33 180.97 L 124.92 180.09 C 124.54 179.27 123.56 178.92 122.74 179.31 C 121.92 179.69 121.57 180.67 121.96 181.48 Z M 122.39 182.39 L 122.81 183.24 C 123.21 184.05 124.19 184.39 125.00 183.98 C 125.81 183.58 126.14 182.60 125.74 181.79 L 125.32 180.94 C 124.92 180.13 123.94 179.80 123.13 180.20 C 122.32 180.60 121.99 181.58 122.39 182.39 Z M 122.81 183.25 L 122.86 183.34 C 123.26 184.15 124.24 184.48 125.05 184.08 C 125.86 183.67 126.19 182.69 125.78 181.88 L 125.74 181.79 C 125.33 180.98 124.35 180.65 123.54 181.05 C 122.73 181.46 122.40 182.44 122.81 183.25 Z"
      fill="black"
      fill-rule="nonzero" /><path d="M 149.43 99.91 L 150.40 99.66 C 151.32 99.41 151.88 98.47 151.63 97.54 C 151.39 96.62 150.45 96.07 149.52 96.31 L 148.55 96.56 C 147.62 96.81 147.07 97.75 147.31 98.68 C 147.56 99.60 148.50 100.15 149.43 99.91 Z M 150.34 99.70 L 151.32 99.48 C 152.27 99.27 152.87 98.33 152.66 97.38 C 152.45 96.43 151.51 95.83 150.56 96.05 L 149.58 96.26 C 148.63 96.47 148.03 97.41 148.24 98.36 C 148.45 99.31 149.39 99.91 150.34 99.70 Z M 151.19 99.54 L 152.17 99.40 C 153.15 99.26 153.84 98.35 153.70 97.37 C 153.56 96.39 152.65 95.71 151.67 95.85 L 150.69 95.99 C 149.71 96.13 149.02 97.04 149.16 98.02 C 149.30 99.00 150.21 99.68 151.19 99.54 Z M 151.97 99.44 L 152.92 99.42 C 153.92 99.39 154.71 98.55 154.68 97.55 C 154.66 96.55 153.82 95.76 152.82 95.78 L 151.87 95.81 C 150.87 95.84 150.08 96.67 150.11 97.68 C 150.13 98.68 150.97 99.47 151.97 99.44 Z M 152.72 99.42 L 153.63 99.49 C 154.64 99.58 155.52 98.83 155.60 97.82 C 155.68 96.82 154.93 95.94 153.93 95.85 L 153.01 95.78 C 152.01 95.70 151.13 96.45 151.05 97.45 C 150.97 98.46 151.71 99.34 152.72 99.42 Z M 153.52 99.48 L 154.49 99.62 C 155.49 99.77 156.41 99.07 156.56 98.08 C 156.70 97.08 156.01 96.15 155.01 96.01 L 154.04 95.87 C 153.05 95.72 152.12 96.41 151.97 97.41 C 151.83 98.41 152.52 99.34 153.52 99.48 Z M 154.45 99.61 L 155.51 99.79 C 156.50 99.96 157.44 99.29 157.61 98.29 C 157.77 97.30 157.10 96.36 156.11 96.19 L 155.05 96.01 C 154.06 95.85 153.12 96.52 152.95 97.51 C 152.78 98.51 153.45 99.45 154.45 99.61 Z M 155.52 99.79 L 156.57 99.96 C 157.56 100.11 158.49 99.44 158.65 98.44 C 158.81 97.45 158.13 96.51 157.13 96.35 L 156.09 96.19 C 155.10 96.03 154.16 96.71 154.01 97.71 C 153.85 98.70 154.53 99.64 155.52 99.79 Z M 156.60 99.96 L 157.59 100.10 C 158.58 100.24 159.50 99.54 159.64 98.55 C 159.78 97.55 159.09 96.63 158.09 96.49 L 157.10 96.35 C 156.11 96.21 155.19 96.91 155.05 97.90 C 154.91 98.90 155.60 99.82 156.60 99.96 Z M 157.61 100.09 L 158.64 100.23 C 159.63 100.35 160.54 99.65 160.67 98.66 C 160.79 97.66 160.09 96.75 159.10 96.63 L 158.07 96.50 C 157.08 96.37 156.17 97.07 156.04 98.07 C 155.92 99.06 156.62 99.97 157.61 100.09 Z M 158.66 100.22 L 159.68 100.34 C 160.67 100.46 161.57 99.75 161.68 98.76 C 161.80 97.77 161.09 96.87 160.10 96.75 L 159.08 96.63 C 158.09 96.51 157.19 97.22 157.07 98.21 C 156.95 99.21 157.66 100.11 158.66 100.22 Z M 159.69 100.34 L 160.68 100.45 C 161.67 100.55 162.56 99.84 162.66 98.85 C 162.77 97.86 162.06 96.97 161.07 96.86 L 160.08 96.75 C 159.09 96.65 158.20 97.36 158.10 98.35 C 157.99 99.34 158.70 100.23 159.69 100.34 Z M 160.69 100.43 L 161.74 100.54 C 162.73 100.64 163.60 99.92 163.70 98.94 C 163.80 97.96 163.09 97.08 162.10 96.98 L 161.05 96.87 C 160.07 96.77 159.19 97.49 159.09 98.47 C 158.99 99.46 159.71 100.33 160.69 100.43 Z M 161.76 100.51 L 162.83 100.61 C 163.80 100.70 164.66 99.99 164.75 99.02 C 164.84 98.05 164.12 97.19 163.15 97.10 L 162.08 97.00 C 161.11 96.91 160.26 97.63 160.17 98.60 C 160.08 99.57 160.79 100.43 161.76 100.51 Z M 162.85 100.58 L 163.81 100.66 C 164.76 100.74 165.60 100.04 165.68 99.09 C 165.76 98.14 165.06 97.30 164.10 97.22 L 163.14 97.14 C 162.19 97.06 161.35 97.76 161.27 98.71 C 161.19 99.66 161.89 100.50 162.85 100.58 Z M 163.82 100.63 L 164.72 100.70 C 165.66 100.78 166.47 100.08 166.55 99.15 C 166.62 98.22 165.93 97.40 165.00 97.32 L 164.09 97.25 C 163.16 97.18 162.35 97.87 162.27 98.80 C 162.20 99.74 162.89 100.55 163.82 100.63 Z M 164.72 100.68 L 165.71 100.76 C 166.63 100.83 167.43 100.15 167.51 99.23 C 167.59 98.31 166.90 97.51 165.98 97.43 L 165.00 97.35 C 164.08 97.27 163.27 97.96 163.20 98.88 C 163.12 99.79 163.80 100.60 164.72 100.68 Z M 165.66 100.74 L 166.67 100.85 C 167.58 100.95 168.40 100.30 168.50 99.39 C 168.60 98.48 167.94 97.66 167.03 97.56 L 166.03 97.45 C 165.12 97.35 164.30 98.00 164.20 98.91 C 164.10 99.82 164.75 100.64 165.66 100.74 Z M 166.56 100.83 L 167.52 101.00 C 168.42 101.16 169.27 100.57 169.44 99.67 C 169.60 98.78 169.00 97.92 168.11 97.76 L 167.15 97.59 C 166.25 97.42 165.39 98.02 165.23 98.91 C 165.07 99.81 165.66 100.66 166.56 100.83 Z M 167.34 100.95 L 168.29 101.23 C 169.15 101.49 170.07 101.00 170.33 100.13 C 170.59 99.27 170.09 98.35 169.23 98.09 L 168.29 97.81 C 167.42 97.55 166.51 98.04 166.25 98.91 C 165.99 99.78 166.48 100.69 167.34 100.95 Z M 168.11 101.17 L 169.03 101.56 C 169.86 101.92 170.82 101.53 171.18 100.70 C 171.53 99.87 171.15 98.91 170.32 98.55 L 169.40 98.16 C 168.57 97.80 167.61 98.19 167.25 99.02 C 166.90 99.85 167.28 100.81 168.11 101.17 Z M 168.92 101.51 L 169.81 101.97 C 170.61 102.39 171.60 102.07 172.01 101.27 C 172.43 100.47 172.12 99.48 171.31 99.06 L 170.42 98.60 C 169.62 98.19 168.63 98.50 168.22 99.31 C 167.80 100.11 168.12 101.10 168.92 101.51 Z M 169.77 101.95 L 170.22 102.19 C 171.01 102.63 172.00 102.34 172.44 101.54 C 172.87 100.75 172.58 99.76 171.79 99.32 L 171.35 99.08 C 170.55 98.65 169.56 98.94 169.12 99.73 C 168.69 100.52 168.98 101.52 169.77 101.95 Z"
      fill="black"
      fill-rule="nonzero" /><path d="M 149.01 118.56 L 150.02 118.78 C 150.99 118.99 151.94 118.37 152.15 117.40 C 152.35 116.43 151.74 115.48 150.77 115.27 L 149.76 115.06 C 148.79 114.85 147.84 115.47 147.63 116.44 C 147.43 117.40 148.04 118.36 149.01 118.56 Z M 150.11 118.81 L 151.11 118.96 C 152.09 119.12 153.02 118.45 153.17 117.47 C 153.33 116.48 152.66 115.56 151.68 115.41 L 150.68 115.25 C 149.70 115.09 148.77 115.76 148.62 116.74 C 148.46 117.73 149.13 118.65 150.11 118.81 Z M 151.31 118.99 L 152.29 119.04 C 153.28 119.08 154.13 118.31 154.18 117.31 C 154.22 116.31 153.45 115.47 152.45 115.42 L 151.48 115.38 C 150.48 115.33 149.63 116.10 149.58 117.10 C 149.54 118.10 150.31 118.95 151.31 118.99 Z M 152.60 119.03 L 153.49 118.92 C 154.49 118.79 155.19 117.88 155.06 116.89 C 154.94 115.89 154.03 115.19 153.03 115.31 L 152.14 115.43 C 151.14 115.55 150.44 116.46 150.56 117.46 C 150.69 118.46 151.60 119.16 152.60 119.03 Z M 153.80 118.85 L 154.63 118.59 C 155.59 118.30 156.12 117.28 155.83 116.32 C 155.53 115.36 154.51 114.82 153.55 115.12 L 152.72 115.38 C 151.76 115.68 151.22 116.70 151.52 117.66 C 151.82 118.62 152.84 119.15 153.80 118.85 Z M 154.82 118.52 L 155.70 118.14 C 156.62 117.73 157.04 116.66 156.63 115.74 C 156.23 114.82 155.16 114.40 154.24 114.81 L 153.36 115.19 C 152.44 115.60 152.02 116.67 152.42 117.59 C 152.83 118.51 153.90 118.93 154.82 118.52 Z M 155.78 118.10 L 156.77 117.60 C 157.67 117.16 158.03 116.07 157.59 115.17 C 157.14 114.27 156.05 113.91 155.15 114.35 L 154.16 114.85 C 153.26 115.29 152.90 116.38 153.34 117.28 C 153.79 118.18 154.88 118.54 155.78 118.10 Z M 156.77 117.60 L 157.74 117.11 C 158.64 116.66 159.00 115.58 158.55 114.68 C 158.10 113.78 157.01 113.42 156.12 113.87 L 155.15 114.36 C 154.25 114.81 153.89 115.90 154.34 116.79 C 154.79 117.69 155.88 118.05 156.77 117.60 Z M 157.72 117.12 L 158.59 116.69 C 159.49 116.26 159.86 115.17 159.42 114.28 C 158.98 113.38 157.90 113.01 157.00 113.45 L 156.14 113.87 C 155.24 114.31 154.87 115.39 155.31 116.29 C 155.74 117.18 156.83 117.55 157.72 117.12 Z M 158.58 116.69 L 159.49 116.25 C 160.39 115.82 160.76 114.74 160.33 113.85 C 159.90 112.95 158.83 112.57 157.93 113.01 L 157.01 113.45 C 156.12 113.88 155.74 114.95 156.17 115.85 C 156.60 116.75 157.68 117.12 158.58 116.69 Z M 159.48 116.25 L 160.42 115.80 C 161.32 115.38 161.70 114.30 161.27 113.41 C 160.85 112.51 159.77 112.13 158.88 112.56 L 157.94 113.01 C 157.04 113.43 156.66 114.51 157.09 115.40 C 157.52 116.30 158.59 116.68 159.48 116.25 Z M 160.42 115.80 L 161.35 115.35 C 162.25 114.93 162.63 113.86 162.20 112.97 C 161.78 112.08 160.72 111.70 159.82 112.12 L 158.89 112.56 C 157.99 112.99 157.61 114.05 158.03 114.95 C 158.46 115.84 159.52 116.22 160.42 115.80 Z M 161.35 115.35 L 162.26 114.92 C 163.15 114.50 163.53 113.44 163.11 112.55 C 162.69 111.66 161.62 111.28 160.73 111.70 L 159.83 112.13 C 158.94 112.55 158.56 113.61 158.98 114.50 C 159.40 115.39 160.46 115.77 161.35 115.35 Z M 162.25 114.91 L 163.24 114.44 C 164.13 114.02 164.51 112.96 164.09 112.08 C 163.67 111.19 162.61 110.82 161.72 111.24 L 160.74 111.71 C 159.85 112.13 159.47 113.18 159.89 114.07 C 160.31 114.95 161.37 115.33 162.25 114.91 Z M 163.24 114.43 L 164.23 113.95 C 165.11 113.54 165.48 112.49 165.06 111.61 C 164.64 110.73 163.60 110.36 162.72 110.78 L 161.73 111.25 C 160.85 111.67 160.48 112.72 160.90 113.60 C 161.32 114.47 162.37 114.84 163.24 114.43 Z M 164.23 113.94 L 165.13 113.50 C 166.00 113.09 166.37 112.05 165.95 111.18 C 165.53 110.31 164.49 109.95 163.63 110.36 L 162.72 110.80 C 161.86 111.21 161.49 112.25 161.90 113.12 C 162.32 113.99 163.36 114.35 164.23 113.94 Z M 165.13 113.49 L 165.96 113.09 C 166.82 112.68 167.18 111.65 166.76 110.79 C 166.35 109.93 165.32 109.57 164.46 109.98 L 163.63 110.38 C 162.77 110.79 162.41 111.82 162.82 112.68 C 163.24 113.54 164.27 113.90 165.13 113.49 Z M 165.95 113.07 L 166.73 112.70 C 167.58 112.29 167.94 111.27 167.53 110.42 C 167.12 109.57 166.10 109.21 165.25 109.62 L 164.47 109.99 C 163.62 110.40 163.26 111.42 163.67 112.28 C 164.08 113.13 165.10 113.48 165.95 113.07 Z M 166.72 112.69 L 167.63 112.25 C 168.48 111.85 168.84 110.84 168.43 109.99 C 168.03 109.15 167.02 108.79 166.17 109.19 L 165.26 109.63 C 164.42 110.03 164.06 111.04 164.46 111.89 C 164.87 112.73 165.88 113.09 166.72 112.69 Z M 167.62 112.25 L 168.50 111.84 C 169.35 111.44 169.72 110.44 169.32 109.60 C 168.93 108.75 167.93 108.38 167.08 108.78 L 166.19 109.19 C 165.35 109.59 164.98 110.59 165.37 111.43 C 165.77 112.28 166.77 112.65 167.62 112.25 Z M 168.47 111.84 L 169.38 111.44 C 170.23 111.07 170.61 110.08 170.23 109.23 C 169.86 108.38 168.87 108.00 168.02 108.37 L 167.11 108.77 C 166.26 109.15 165.88 110.14 166.26 110.99 C 166.63 111.84 167.62 112.22 168.47 111.84 Z M 169.34 111.46 L 170.35 111.04 C 171.21 110.69 171.61 109.71 171.26 108.85 C 170.91 108.00 169.93 107.59 169.08 107.94 L 168.06 108.36 C 167.21 108.71 166.80 109.69 167.15 110.54 C 167.50 111.40 168.48 111.81 169.34 111.46 Z M 170.27 111.08 L 171.41 110.68 C 172.28 110.37 172.75 109.41 172.44 108.53 C 172.13 107.66 171.17 107.19 170.29 107.50 L 169.16 107.90 C 168.28 108.21 167.82 109.17 168.13 110.05 C 168.44 110.92 169.40 111.39 170.27 111.08 Z M 171.18 110.75 L 172.14 110.56 C 173.06 110.38 173.65 109.48 173.47 108.56 C 173.29 107.64 172.39 107.05 171.47 107.23 L 170.52 107.43 C 169.60 107.61 169.00 108.51 169.19 109.42 C 169.37 110.34 170.26 110.94 171.18 110.75 Z M 171.30 110.54 L 171.87 110.71 C 172.77 110.99 173.73 110.48 174.01 109.57 C 174.29 108.67 173.78 107.71 172.87 107.43 L 172.31 107.26 C 171.40 106.98 170.45 107.49 170.17 108.40 C 169.89 109.30 170.40 110.26 171.30 110.54 Z M 170.64 109.18 L 170.69 109.83 C 170.75 110.78 171.57 111.50 172.52 111.44 C 173.47 111.38 174.20 110.56 174.14 109.61 L 174.10 108.96 C 174.04 108.01 173.21 107.29 172.26 107.35 C 171.31 107.41 170.58 108.23 170.64 109.18 Z M 170.78 109.09 L 170.40 110.09 C 170.05 110.99 170.50 112.00 171.40 112.34 C 172.30 112.69 173.31 112.24 173.66 111.34 L 174.04 110.35 C 174.39 109.45 173.94 108.44 173.04 108.09 C 172.14 107.74 171.13 108.19 170.78 109.09 Z M 170.48 109.88 L 169.87 111.00 C 169.41 111.86 169.73 112.93 170.59 113.39 C 171.45 113.85 172.52 113.53 172.98 112.67 L 173.58 111.55 C 174.04 110.69 173.72 109.62 172.86 109.16 C 172.00 108.70 170.94 109.02 170.48 109.88 Z M 169.90 110.93 L 169.44 111.71 C 168.94 112.55 169.22 113.64 170.06 114.14 C 170.90 114.64 171.98 114.36 172.48 113.52 L 172.95 112.74 C 173.45 111.90 173.17 110.81 172.33 110.31 C 171.49 109.81 170.40 110.09 169.90 110.93 Z M 169.45 111.68 L 168.95 112.49 C 168.43 113.32 168.69 114.42 169.52 114.94 C 170.36 115.45 171.45 115.20 171.97 114.36 L 172.47 113.55 C 172.99 112.72 172.73 111.62 171.90 111.11 C 171.06 110.59 169.97 110.85 169.45 111.68 Z M 168.95 112.47 L 168.42 113.33 C 167.89 114.16 168.14 115.26 168.97 115.78 C 169.80 116.31 170.90 116.06 171.42 115.23 L 171.96 114.38 C 172.49 113.55 172.24 112.45 171.41 111.92 C 170.58 111.40 169.48 111.64 168.95 112.47 Z M 168.41 113.32 L 167.84 114.22 C 167.32 115.05 167.56 116.16 168.40 116.68 C 169.23 117.21 170.33 116.96 170.86 116.13 L 171.43 115.23 C 171.96 114.40 171.71 113.30 170.87 112.77 C 170.04 112.24 168.94 112.49 168.41 113.32 Z M 167.83 114.23 L 167.26 115.15 C 166.74 115.99 166.99 117.09 167.83 117.61 C 168.67 118.14 169.77 117.88 170.30 117.04 L 170.87 116.12 C 171.39 115.28 171.14 114.18 170.30 113.66 C 169.46 113.14 168.36 113.39 167.83 114.23 Z M 167.25 115.16 L 166.72 116.04 C 166.20 116.88 166.47 117.98 167.32 118.50 C 168.16 119.01 169.26 118.74 169.78 117.90 L 170.31 117.03 C 170.82 116.18 170.55 115.08 169.71 114.57 C 168.87 114.05 167.76 114.32 167.25 115.16 Z M 166.71 116.05 L 166.18 116.94 C 165.67 117.79 165.95 118.89 166.80 119.39 C 167.65 119.90 168.75 119.63 169.25 118.78 L 169.78 117.89 C 170.29 117.04 170.02 115.94 169.17 115.43 C 168.32 114.92 167.22 115.20 166.71 116.05 Z M 166.17 116.95 L 165.65 117.84 C 165.15 118.69 165.43 119.79 166.29 120.29 C 167.14 120.79 168.24 120.51 168.74 119.65 L 169.26 118.76 C 169.76 117.91 169.47 116.81 168.62 116.31 C 167.77 115.81 166.67 116.10 166.17 116.95 Z M 165.64 117.85 L 165.14 118.72 C 164.65 119.58 164.94 120.67 165.80 121.17 C 166.66 121.66 167.75 121.36 168.25 120.51 L 168.75 119.64 C 169.24 118.78 168.94 117.69 168.09 117.20 C 167.23 116.70 166.14 117.00 165.64 117.85 Z M 165.14 118.73 L 164.67 119.56 C 164.19 120.42 164.49 121.51 165.35 122.00 C 166.21 122.48 167.30 122.18 167.79 121.32 L 168.25 120.49 C 168.74 119.63 168.44 118.54 167.57 118.05 C 166.71 117.57 165.62 117.87 165.14 118.73 Z M 164.66 119.57 L 164.14 120.52 C 163.67 121.39 163.98 122.47 164.85 122.95 C 165.72 123.43 166.81 123.11 167.28 122.24 L 167.80 121.30 C 168.28 120.43 167.96 119.34 167.09 118.87 C 166.23 118.39 165.14 118.71 164.66 119.57 Z M 164.13 120.54 L 163.64 121.47 C 163.17 122.35 163.51 123.43 164.38 123.89 C 165.26 124.35 166.34 124.02 166.80 123.15 L 167.29 122.22 C 167.76 121.34 167.42 120.26 166.55 119.80 C 165.68 119.34 164.59 119.67 164.13 120.54 Z M 163.62 121.50 L 163.19 122.35 C 162.74 123.23 163.09 124.31 163.97 124.76 C 164.85 125.21 165.93 124.86 166.38 123.98 L 166.82 123.12 C 167.26 122.24 166.91 121.16 166.03 120.71 C 165.15 120.26 164.07 120.62 163.62 121.50 Z M 163.18 122.38 L 162.77 123.20 C 162.34 124.08 162.71 125.16 163.59 125.59 C 164.48 126.03 165.55 125.66 165.99 124.77 L 166.39 123.95 C 166.83 123.07 166.46 121.99 165.57 121.56 C 164.69 121.12 163.61 121.49 163.18 122.38 Z M 162.77 123.21 L 162.36 124.07 C 161.93 124.96 162.31 126.03 163.20 126.46 C 164.09 126.88 165.16 126.51 165.59 125.61 L 166.00 124.76 C 166.43 123.87 166.05 122.80 165.16 122.37 C 164.26 121.94 163.19 122.32 162.77 123.21 Z M 162.35 124.08 L 161.93 124.97 C 161.51 125.87 161.90 126.94 162.79 127.36 C 163.69 127.78 164.76 127.39 165.18 126.49 L 165.59 125.60 C 166.01 124.70 165.63 123.64 164.73 123.22 C 163.84 122.80 162.77 123.18 162.35 124.08 Z M 161.93 124.99 L 161.51 125.90 C 161.09 126.80 161.49 127.86 162.39 128.27 C 163.29 128.69 164.35 128.29 164.76 127.39 L 165.18 126.48 C 165.59 125.58 165.20 124.52 164.30 124.11 C 163.40 123.69 162.34 124.09 161.93 124.99 Z M 161.50 125.91 L 161.08 126.84 C 160.68 127.74 161.08 128.80 161.98 129.21 C 162.88 129.62 163.94 129.21 164.35 128.31 L 164.77 127.38 C 165.17 126.48 164.77 125.42 163.87 125.01 C 162.97 124.61 161.91 125.01 161.50 125.91 Z M 161.08 126.85 L 160.68 127.76 C 160.28 128.66 160.69 129.72 161.59 130.12 C 162.50 130.52 163.56 130.11 163.95 129.21 L 164.35 128.30 C 164.75 127.40 164.34 126.34 163.44 125.94 C 162.54 125.54 161.48 125.95 161.08 126.85 Z M 160.67 127.77 L 160.28 128.68 C 159.88 129.59 160.30 130.64 161.21 131.03 C 162.11 131.43 163.17 131.01 163.56 130.11 L 163.96 129.20 C 164.35 128.29 163.94 127.23 163.03 126.84 C 162.12 126.45 161.07 126.86 160.67 127.77 Z M 160.28 128.69 L 159.88 129.61 C 159.49 130.52 159.91 131.57 160.82 131.96 C 161.73 132.35 162.78 131.93 163.17 131.02 L 163.57 130.10 C 163.96 129.19 163.53 128.14 162.63 127.75 C 161.72 127.36 160.66 127.78 160.28 128.69 Z M 159.88 129.62 L 159.48 130.55 C 159.10 131.46 159.52 132.51 160.43 132.90 C 161.34 133.28 162.39 132.86 162.78 131.95 L 163.17 131.01 C 163.56 130.10 163.13 129.05 162.22 128.67 C 161.31 128.28 160.26 128.71 159.88 129.62 Z M 159.48 130.56 L 159.09 131.48 C 158.71 132.39 159.14 133.44 160.05 133.82 C 160.96 134.20 162.01 133.77 162.39 132.86 L 162.78 131.94 C 163.16 131.03 162.73 129.98 161.82 129.60 C 160.91 129.22 159.86 129.65 159.48 130.56 Z M 159.09 131.48 L 158.71 132.40 C 158.33 133.32 158.76 134.36 159.68 134.74 C 160.59 135.12 161.64 134.69 162.02 133.77 L 162.40 132.85 C 162.78 131.94 162.34 130.89 161.43 130.52 C 160.52 130.14 159.47 130.57 159.09 131.48 Z M 158.71 132.41 L 158.33 133.34 C 157.96 134.26 158.40 135.30 159.31 135.67 C 160.22 136.04 161.27 135.61 161.64 134.69 L 162.02 133.76 C 162.39 132.85 161.95 131.80 161.04 131.43 C 160.12 131.06 159.08 131.50 158.71 132.41 Z M 158.32 133.35 L 157.95 134.29 C 157.59 135.21 158.03 136.25 158.95 136.61 C 159.87 136.98 160.91 136.53 161.27 135.61 L 161.65 134.68 C 162.01 133.76 161.56 132.72 160.65 132.35 C 159.73 131.99 158.69 132.44 158.32 133.35 Z M 157.95 134.30 L 157.59 135.23 C 157.23 136.15 157.69 137.18 158.61 137.54 C 159.53 137.90 160.56 137.44 160.92 136.52 L 161.28 135.60 C 161.64 134.68 161.18 133.64 160.26 133.29 C 159.34 132.93 158.30 133.38 157.95 134.30 Z M 157.58 135.24 L 157.24 136.16 C 156.89 137.09 157.36 138.12 158.28 138.46 C 159.20 138.81 160.23 138.34 160.58 137.42 L 160.93 136.50 C 161.27 135.58 160.81 134.55 159.88 134.20 C 158.96 133.85 157.93 134.32 157.58 135.24 Z M 157.23 136.18 L 156.89 137.11 C 156.55 138.04 157.03 139.06 157.95 139.40 C 158.88 139.74 159.90 139.27 160.24 138.34 L 160.58 137.41 C 160.92 136.48 160.45 135.46 159.52 135.12 C 158.60 134.78 157.57 135.25 157.23 136.18 Z M 156.89 137.13 L 156.55 138.09 C 156.22 139.01 156.70 140.03 157.63 140.36 C 158.56 140.69 159.57 140.21 159.90 139.28 L 160.24 138.32 C 160.57 137.40 160.09 136.38 159.16 136.05 C 158.23 135.72 157.22 136.20 156.89 137.13 Z M 156.54 138.10 L 156.21 139.07 C 155.89 140.00 156.38 141.01 157.31 141.33 C 158.24 141.65 159.25 141.16 159.57 140.23 L 159.91 139.26 C 160.23 138.34 159.74 137.32 158.81 137.00 C 157.88 136.68 156.86 137.17 156.54 138.10 Z M 156.21 139.08 L 155.89 140.04 C 155.58 140.97 156.08 141.98 157.01 142.29 C 157.94 142.60 158.95 142.10 159.26 141.17 L 159.58 140.21 C 159.89 139.28 159.39 138.27 158.46 137.96 C 157.53 137.65 156.52 138.15 156.21 139.08 Z M 155.88 140.06 L 155.57 141.02 C 155.27 141.95 155.78 142.95 156.71 143.26 C 157.65 143.56 158.65 143.05 158.95 142.11 L 159.26 141.15 C 159.56 140.22 159.05 139.22 158.12 138.91 C 157.19 138.61 156.19 139.12 155.88 140.06 Z M 155.57 141.04 L 155.27 142.00 C 154.98 142.93 155.50 143.93 156.43 144.22 C 157.37 144.51 158.36 143.99 158.65 143.05 L 158.95 142.09 C 159.24 141.16 158.72 140.17 157.79 139.87 C 156.85 139.58 155.86 140.10 155.57 141.04 Z M 155.26 142.02 L 154.98 142.96 C 154.71 143.90 155.24 144.89 156.18 145.16 C 157.11 145.44 158.10 144.91 158.38 143.97 L 158.66 143.03 C 158.94 142.09 158.40 141.11 157.47 140.83 C 156.53 140.55 155.54 141.08 155.26 142.02 Z M 154.98 142.99 L 154.70 143.98 C 154.44 144.92 154.99 145.90 155.93 146.16 C 156.87 146.42 157.85 145.87 158.11 144.93 L 158.38 143.94 C 158.65 143.00 158.10 142.03 157.16 141.77 C 156.22 141.50 155.24 142.05 154.98 142.99 Z M 154.70 144.01 L 154.44 144.99 C 154.20 145.93 154.76 146.90 155.71 147.14 C 156.65 147.39 157.61 146.82 157.86 145.88 L 158.11 144.90 C 158.36 143.96 157.79 142.99 156.85 142.75 C 155.91 142.50 154.94 143.07 154.70 144.01 Z M 154.44 145.02 L 154.20 145.98 C 153.97 146.92 154.55 147.88 155.50 148.11 C 156.45 148.34 157.40 147.76 157.63 146.81 L 157.86 145.85 C 158.09 144.91 157.51 143.95 156.57 143.72 C 155.62 143.49 154.67 144.07 154.44 145.02 Z M 154.20 146.00 L 153.98 146.95 C 153.76 147.90 154.36 148.84 155.31 149.06 C 156.25 149.28 157.20 148.69 157.42 147.74 L 157.63 146.79 C 157.85 145.84 157.26 144.89 156.31 144.68 C 155.36 144.46 154.42 145.05 154.20 146.00 Z M 153.98 146.97 L 153.77 147.94 C 153.56 148.89 154.16 149.83 155.11 150.04 C 156.06 150.24 157.00 149.64 157.21 148.69 L 157.42 147.72 C 157.62 146.77 157.02 145.83 156.07 145.63 C 155.12 145.42 154.19 146.02 153.98 146.97 Z M 153.77 147.96 L 153.56 148.94 C 153.37 149.89 153.98 150.82 154.93 151.02 C 155.88 151.22 156.81 150.60 157.00 149.65 L 157.21 148.67 C 157.40 147.72 156.79 146.79 155.84 146.60 C 154.89 146.40 153.96 147.01 153.77 147.96 Z M 153.56 148.96 L 153.37 149.95 C 153.19 150.90 153.81 151.82 154.76 152.00 C 155.71 152.19 156.63 151.57 156.81 150.62 L 157.01 149.63 C 157.19 148.68 156.57 147.76 155.62 147.58 C 154.67 147.39 153.75 148.01 153.56 148.96 Z M 153.37 149.97 L 153.19 150.95 C 153.02 151.90 153.65 152.81 154.60 152.99 C 155.56 153.16 156.47 152.53 156.64 151.58 L 156.82 150.59 C 156.99 149.64 156.36 148.73 155.40 148.56 C 154.45 148.39 153.54 149.02 153.37 149.97 Z M 153.19 150.98 L 153.02 151.97 C 152.87 152.92 153.51 153.82 154.46 153.98 C 155.42 154.14 156.32 153.49 156.48 152.54 L 156.64 151.55 C 156.80 150.60 156.15 149.70 155.20 149.54 C 154.25 149.38 153.35 150.02 153.19 150.98 Z M 153.02 151.99 L 152.87 152.99 C 152.73 153.94 153.38 154.83 154.34 154.97 C 155.29 155.12 156.18 154.46 156.33 153.51 L 156.48 152.52 C 156.62 151.56 155.97 150.67 155.01 150.53 C 154.06 150.38 153.17 151.04 153.02 151.99 Z M 152.87 153.01 L 152.74 154.00 C 152.61 154.95 153.27 155.83 154.22 155.96 C 155.18 156.09 156.06 155.43 156.19 154.47 L 156.33 153.49 C 156.46 152.53 155.79 151.65 154.84 151.52 C 153.89 151.39 153.01 152.06 152.87 153.01 Z M 152.74 154.02 L 152.61 155.00 C 152.49 155.95 153.17 156.82 154.12 156.95 C 155.07 157.07 155.94 156.39 156.06 155.44 L 156.19 154.45 C 156.31 153.50 155.64 152.63 154.68 152.51 C 153.73 152.39 152.86 153.06 152.74 154.02 Z M 152.61 155.02 L 152.50 156.01 C 152.38 156.97 153.07 157.83 154.02 157.94 C 154.97 158.05 155.83 157.37 155.94 156.42 L 156.06 155.42 C 156.17 154.47 155.49 153.61 154.54 153.50 C 153.59 153.38 152.73 154.07 152.61 155.02 Z M 152.50 156.04 L 152.39 157.04 C 152.29 157.99 152.98 158.84 153.93 158.94 C 154.89 159.04 155.74 158.35 155.84 157.40 L 155.94 156.40 C 156.04 155.45 155.35 154.59 154.40 154.49 C 153.45 154.39 152.60 155.09 152.50 156.04 Z M 152.39 157.07 L 152.31 158.06 C 152.22 159.01 152.93 159.85 153.88 159.93 C 154.83 160.02 155.67 159.31 155.75 158.36 L 155.84 157.37 C 155.92 156.42 155.22 155.58 154.27 155.49 C 153.32 155.41 152.48 156.11 152.39 157.07 Z M 152.31 158.10 L 152.24 159.09 C 152.18 160.04 152.90 160.86 153.85 160.92 C 154.80 160.98 155.62 160.26 155.68 159.31 L 155.75 158.33 C 155.81 157.38 155.09 156.55 154.14 156.49 C 153.19 156.43 152.37 157.15 152.31 158.10 Z M 152.24 159.13 L 152.20 160.12 C 152.16 161.07 152.90 161.87 153.85 161.91 C 154.80 161.95 155.60 161.21 155.64 160.26 L 155.68 159.27 C 155.72 158.32 154.98 157.52 154.03 157.48 C 153.08 157.44 152.28 158.18 152.24 159.13 Z M 152.21 160.16 L 152.19 161.15 C 152.17 162.10 152.92 162.88 153.87 162.90 C 154.81 162.92 155.60 162.16 155.62 161.22 L 155.64 160.23 C 155.66 159.28 154.90 158.49 153.96 158.47 C 153.01 158.45 152.22 159.21 152.21 160.16 Z M 152.19 161.17 L 152.18 162.17 C 152.18 163.12 152.94 163.89 153.88 163.90 C 154.83 163.90 155.60 163.14 155.61 162.19 L 155.61 161.19 C 155.62 160.25 154.86 159.48 153.91 159.47 C 152.97 159.46 152.20 160.22 152.19 161.17 Z M 152.19 162.18 L 152.19 163.18 C 152.19 164.13 152.95 164.89 153.89 164.89 C 154.84 164.89 155.60 164.13 155.60 163.18 L 155.60 162.18 C 155.60 161.24 154.84 160.48 153.90 160.47 C 152.95 160.47 152.19 161.24 152.19 162.18 Z M 152.19 163.18 L 152.19 164.10 C 152.19 165.05 152.95 165.81 153.89 165.81 C 154.84 165.81 155.60 165.05 155.60 164.10 L 155.60 163.18 C 155.60 162.24 154.84 161.48 153.89 161.48 C 152.95 161.48 152.19 162.24 152.19 163.18 Z M 152.20 164.10 L 152.20 165.07 C 152.20 166.00 152.96 166.76 153.89 166.76 C 154.83 166.76 155.59 166.00 155.59 165.07 L 155.59 164.10 C 155.59 163.17 154.83 162.41 153.89 162.41 C 152.96 162.41 152.20 163.17 152.20 164.10 Z M 152.20 165.07 L 152.20 166.08 C 152.20 167.02 152.96 167.78 153.89 167.78 C 154.83 167.78 155.59 167.02 155.59 166.08 L 155.59 165.07 C 155.59 164.13 154.83 163.37 153.89 163.37 C 152.96 163.37 152.20 164.13 152.20 165.07 Z M 152.21 166.08 L 152.21 167.17 C 152.21 168.11 152.96 168.86 153.89 168.86 C 154.83 168.86 155.58 168.11 155.58 167.17 L 155.58 166.08 C 155.58 165.15 154.83 164.39 153.89 164.39 C 152.96 164.39 152.21 165.15 152.21 166.08 Z M 152.21 167.17 L 152.21 168.18 C 152.21 169.11 152.97 169.86 153.90 169.86 C 154.83 169.86 155.58 169.10 155.58 168.17 L 155.58 167.17 C 155.58 166.24 154.82 165.49 153.89 165.49 C 152.96 165.49 152.21 166.24 152.21 167.17 Z M 152.21 168.18 L 152.22 169.19 C 152.22 170.12 152.98 170.87 153.91 170.86 C 154.84 170.86 155.59 170.10 155.58 169.18 L 155.58 168.17 C 155.57 167.24 154.81 166.49 153.89 166.49 C 152.96 166.50 152.21 167.26 152.21 168.18 Z M 152.22 169.21 L 152.24 170.24 C 152.25 171.16 153.01 171.90 153.94 171.89 C 154.87 171.87 155.61 171.11 155.59 170.19 L 155.58 169.16 C 155.56 168.23 154.80 167.49 153.87 167.51 C 152.95 167.52 152.21 168.28 152.22 169.21 Z M 152.24 170.26 L 152.27 171.28 C 152.30 172.20 153.07 172.93 154.00 172.90 C 154.92 172.87 155.65 172.10 155.62 171.18 L 155.59 170.16 C 155.56 169.24 154.79 168.51 153.86 168.54 C 152.94 168.57 152.21 169.34 152.24 170.26 Z M 152.28 171.32 L 152.33 172.30 C 152.38 173.22 153.16 173.93 154.08 173.88 C 155.01 173.84 155.71 173.05 155.66 172.13 L 155.61 171.14 C 155.56 170.22 154.78 169.51 153.86 169.56 C 152.94 169.61 152.23 170.40 152.28 171.32 Z M 152.34 172.36 L 152.44 173.46 C 152.52 174.38 153.32 175.06 154.24 174.98 C 155.16 174.89 155.83 174.09 155.75 173.17 L 155.66 172.07 C 155.58 171.15 154.77 170.48 153.85 170.56 C 152.93 170.64 152.26 171.45 152.34 172.36 Z M 152.45 173.57 L 152.63 174.67 C 152.77 175.58 153.61 176.20 154.52 176.06 C 155.43 175.92 156.05 175.07 155.91 174.16 L 155.73 173.06 C 155.59 172.16 154.75 171.54 153.84 171.68 C 152.93 171.82 152.31 172.67 152.45 173.57 Z M 152.67 174.86 L 152.93 175.80 C 153.17 176.68 154.08 177.20 154.96 176.96 C 155.84 176.71 156.36 175.81 156.12 174.92 L 155.86 173.98 C 155.62 173.10 154.71 172.58 153.83 172.82 C 152.95 173.07 152.43 173.98 152.67 174.86 Z M 153.05 176.09 L 153.42 176.85 C 153.82 177.67 154.80 178.01 155.62 177.61 C 156.44 177.21 156.78 176.22 156.38 175.40 L 156.00 174.64 C 155.61 173.82 154.62 173.49 153.80 173.88 C 152.99 174.28 152.65 175.27 153.05 176.09 Z M 153.71 177.26 L 154.33 177.91 C 154.96 178.57 156.00 178.59 156.66 177.96 C 157.31 177.34 157.33 176.30 156.71 175.64 L 156.08 174.99 C 155.46 174.34 154.42 174.31 153.76 174.94 C 153.11 175.57 153.09 176.61 153.71 177.26 Z M 154.78 178.24 L 155.64 178.68 C 156.45 179.09 157.44 178.76 157.85 177.96 C 158.26 177.15 157.93 176.16 157.13 175.75 L 156.26 175.31 C 155.45 174.91 154.47 175.23 154.06 176.04 C 153.65 176.84 153.97 177.83 154.78 178.24 Z M 155.95 178.79 L 156.92 179.06 C 157.80 179.31 158.70 178.80 158.94 177.92 C 159.18 177.05 158.67 176.15 157.80 175.91 L 156.82 175.64 C 155.95 175.39 155.05 175.91 154.81 176.78 C 154.56 177.65 155.08 178.55 155.95 178.79 Z M 157.01 179.09 L 157.39 179.17 C 158.27 179.36 159.14 178.81 159.34 177.92 C 159.53 177.04 158.98 176.17 158.09 175.97 L 157.72 175.89 C 156.83 175.69 155.96 176.25 155.76 177.13 C 155.57 178.02 156.13 178.89 157.01 179.09 Z"
      fill="black"
      fill-rule="nonzero" /><path d="M 161.80 145.47 L 162.57 144.73 C 163.23 144.10 163.25 143.06 162.62 142.40 C 161.99 141.74 160.94 141.71 160.28 142.34 L 159.52 143.08 C 158.86 143.71 158.83 144.75 159.46 145.41 C 160.09 146.07 161.14 146.10 161.80 145.47 Z M 162.57 144.77 L 163.33 144.06 C 164.01 143.43 164.05 142.37 163.42 141.69 C 162.79 141.01 161.73 140.97 161.04 141.60 L 160.28 142.31 C 159.60 142.94 159.56 144.00 160.19 144.68 C 160.82 145.36 161.89 145.40 162.57 144.77 Z M 163.31 144.12 L 164.06 143.47 C 164.78 142.85 164.85 141.77 164.23 141.05 C 163.61 140.34 162.53 140.27 161.82 140.89 L 161.07 141.54 C 160.35 142.16 160.28 143.24 160.90 143.95 C 161.52 144.67 162.60 144.74 163.31 144.12 Z M 164.01 143.55 L 164.75 142.97 C 165.51 142.38 165.64 141.29 165.05 140.53 C 164.46 139.77 163.37 139.64 162.61 140.23 L 161.87 140.80 C 161.11 141.40 160.98 142.49 161.57 143.25 C 162.16 144.00 163.25 144.14 164.01 143.55 Z M 164.64 143.09 L 165.47 142.55 C 166.29 142.02 166.53 140.92 166.00 140.10 C 165.47 139.28 164.37 139.05 163.55 139.58 L 162.72 140.12 C 161.90 140.65 161.66 141.74 162.19 142.56 C 162.72 143.38 163.82 143.62 164.64 143.09 Z M 165.32 142.66 L 166.20 142.22 C 167.08 141.78 167.44 140.70 167.00 139.82 C 166.55 138.93 165.48 138.58 164.59 139.02 L 163.71 139.46 C 162.83 139.90 162.47 140.98 162.91 141.87 C 163.35 142.75 164.43 143.11 165.32 142.66 Z M 166.06 142.31 L 166.96 141.95 C 167.90 141.59 168.36 140.53 167.99 139.60 C 167.62 138.67 166.57 138.21 165.63 138.57 L 164.73 138.93 C 163.80 139.30 163.34 140.35 163.70 141.29 C 164.07 142.22 165.13 142.68 166.06 142.31 Z M 166.89 142.01 L 167.83 141.69 C 168.79 141.37 169.31 140.32 168.98 139.36 C 168.66 138.40 167.62 137.88 166.66 138.21 L 165.71 138.52 C 164.75 138.85 164.23 139.89 164.56 140.85 C 164.88 141.81 165.92 142.33 166.89 142.01 Z M 167.80 141.71 L 168.72 141.42 C 169.69 141.11 170.23 140.07 169.92 139.10 C 169.62 138.12 168.58 137.58 167.60 137.89 L 166.68 138.18 C 165.71 138.49 165.17 139.53 165.48 140.51 C 165.79 141.48 166.83 142.02 167.80 141.71 Z M 168.71 141.43 L 169.67 141.13 C 170.65 140.83 171.19 139.80 170.89 138.82 C 170.59 137.84 169.56 137.29 168.58 137.59 L 167.62 137.88 C 166.64 138.18 166.09 139.22 166.39 140.20 C 166.69 141.18 167.73 141.73 168.71 141.43 Z M 169.66 141.14 L 170.64 140.84 C 171.62 140.55 172.18 139.52 171.88 138.53 C 171.59 137.55 170.56 136.99 169.57 137.29 L 168.59 137.58 C 167.61 137.88 167.05 138.91 167.35 139.89 C 167.64 140.87 168.67 141.43 169.66 141.14 Z M 170.63 140.85 L 171.58 140.57 C 172.57 140.28 173.13 139.25 172.84 138.26 C 172.55 137.28 171.52 136.71 170.53 137.00 L 169.58 137.28 C 168.60 137.57 168.03 138.61 168.32 139.59 C 168.61 140.58 169.65 141.14 170.63 140.85 Z M 171.57 140.57 L 172.44 140.33 C 173.43 140.04 174.00 139.01 173.71 138.02 C 173.43 137.04 172.40 136.47 171.41 136.75 L 170.54 137.00 C 169.56 137.28 168.99 138.31 169.27 139.30 C 169.55 140.29 170.58 140.86 171.57 140.57 Z M 172.41 140.33 L 173.32 140.09 C 174.31 139.82 174.90 138.79 174.63 137.80 C 174.36 136.81 173.33 136.23 172.34 136.50 L 171.44 136.74 C 170.44 137.01 169.86 138.03 170.13 139.03 C 170.40 140.02 171.42 140.60 172.41 140.33 Z M 173.28 140.10 L 174.27 139.85 C 175.26 139.60 175.87 138.59 175.62 137.59 C 175.37 136.60 174.36 135.99 173.36 136.24 L 172.38 136.49 C 171.38 136.74 170.77 137.75 171.02 138.74 C 171.27 139.74 172.28 140.35 173.28 140.10 Z M 174.22 139.86 L 175.33 139.61 C 176.33 139.38 176.96 138.39 176.73 137.38 C 176.51 136.38 175.51 135.75 174.51 135.98 L 173.40 136.23 C 172.40 136.46 171.77 137.45 172.00 138.46 C 172.22 139.46 173.22 140.09 174.22 139.86 Z M 175.29 139.62 L 176.24 139.42 C 177.25 139.22 177.89 138.23 177.69 137.23 C 177.48 136.22 176.50 135.57 175.49 135.78 L 174.54 135.97 C 173.54 136.18 172.89 137.16 173.09 138.17 C 173.30 139.18 174.28 139.83 175.29 139.62 Z M 176.21 139.43 L 177.16 139.25 C 178.17 139.06 178.84 138.08 178.64 137.07 C 178.45 136.06 177.48 135.40 176.47 135.59 L 175.51 135.77 C 174.50 135.96 173.84 136.94 174.03 137.95 C 174.23 138.96 175.20 139.62 176.21 139.43 Z M 177.14 139.25 L 178.14 139.08 C 179.15 138.89 179.83 137.93 179.65 136.92 C 179.46 135.90 178.50 135.23 177.49 135.41 L 176.49 135.59 C 175.48 135.77 174.80 136.73 174.98 137.75 C 175.16 138.76 176.13 139.43 177.14 139.25 Z M 178.12 139.08 L 179.14 138.91 C 180.16 138.74 180.84 137.78 180.67 136.77 C 180.50 135.75 179.54 135.07 178.53 135.23 L 177.51 135.41 C 176.49 135.57 175.81 136.53 175.98 137.55 C 176.14 138.56 177.10 139.25 178.12 139.08 Z M 179.12 138.91 L 180.15 138.75 C 181.16 138.59 181.86 137.64 181.70 136.63 C 181.54 135.61 180.59 134.91 179.58 135.07 L 178.55 135.23 C 177.53 135.39 176.84 136.34 176.99 137.36 C 177.15 138.37 178.10 139.07 179.12 138.91 Z M 180.13 138.76 L 181.13 138.61 C 182.15 138.47 182.86 137.52 182.71 136.50 C 182.57 135.49 181.63 134.78 180.61 134.92 L 179.60 135.07 C 178.58 135.21 177.87 136.16 178.02 137.18 C 178.16 138.19 179.11 138.90 180.13 138.76 Z M 181.11 138.61 L 182.14 138.48 C 183.16 138.35 183.88 137.42 183.75 136.40 C 183.61 135.38 182.68 134.66 181.66 134.79 L 180.63 134.92 C 179.61 135.05 178.89 135.99 179.03 137.01 C 179.16 138.03 180.09 138.74 181.11 138.61 Z M 182.11 138.48 L 183.13 138.37 C 184.15 138.25 184.89 137.33 184.77 136.31 C 184.66 135.29 183.74 134.56 182.72 134.67 L 181.69 134.79 C 180.67 134.90 179.94 135.82 180.05 136.84 C 180.17 137.86 181.09 138.60 182.11 138.48 Z M 183.10 138.37 L 184.09 138.27 C 185.11 138.18 185.86 137.27 185.76 136.25 C 185.67 135.23 184.77 134.49 183.75 134.58 L 182.75 134.67 C 181.73 134.77 180.98 135.67 181.08 136.69 C 181.17 137.71 182.08 138.46 183.10 138.37 Z M 184.05 138.27 L 185.03 138.20 C 186.05 138.13 186.81 137.24 186.74 136.22 C 186.66 135.20 185.78 134.43 184.76 134.51 L 183.78 134.58 C 182.76 134.66 182.00 135.54 182.07 136.56 C 182.15 137.58 183.03 138.35 184.05 138.27 Z M 184.99 138.20 L 185.96 138.15 C 186.98 138.09 187.76 137.22 187.71 136.21 C 187.65 135.19 186.78 134.40 185.76 134.46 L 184.79 134.51 C 183.77 134.57 182.99 135.44 183.05 136.45 C 183.10 137.47 183.97 138.25 184.99 138.20 Z M 185.93 138.15 L 186.91 138.11 C 187.93 138.08 188.72 137.22 188.69 136.21 C 188.65 135.19 187.80 134.39 186.78 134.43 L 185.80 134.46 C 184.78 134.50 183.99 135.35 184.02 136.37 C 184.05 137.38 184.91 138.18 185.93 138.15 Z M 186.87 138.11 L 187.90 138.09 C 188.92 138.08 189.73 137.24 189.71 136.23 C 189.70 135.21 188.86 134.40 187.84 134.41 L 186.82 134.43 C 185.80 134.45 184.99 135.28 185.01 136.30 C 185.02 137.31 185.86 138.13 186.87 138.11 Z M 187.86 138.09 L 188.90 138.10 C 189.91 138.11 190.74 137.29 190.75 136.28 C 190.76 135.26 189.94 134.43 188.93 134.43 L 187.89 134.42 C 186.87 134.41 186.04 135.22 186.04 136.24 C 186.03 137.25 186.84 138.08 187.86 138.09 Z M 188.84 138.09 L 189.87 138.13 C 190.88 138.17 191.73 137.39 191.77 136.38 C 191.81 135.36 191.03 134.51 190.01 134.47 L 188.98 134.43 C 187.97 134.39 187.12 135.18 187.08 136.19 C 187.04 137.20 187.83 138.05 188.84 138.09 Z M 189.79 138.13 L 190.79 138.21 C 191.80 138.29 192.68 137.54 192.76 136.53 C 192.85 135.52 192.10 134.64 191.09 134.56 L 190.09 134.48 C 189.08 134.40 188.20 135.15 188.12 136.16 C 188.04 137.16 188.79 138.05 189.79 138.13 Z M 190.69 138.19 L 191.64 138.32 C 192.64 138.46 193.56 137.76 193.70 136.76 C 193.83 135.76 193.13 134.84 192.13 134.70 L 191.19 134.57 C 190.19 134.44 189.27 135.14 189.13 136.14 C 189.00 137.14 189.70 138.06 190.69 138.19 Z M 191.50 138.29 L 192.48 138.51 C 193.46 138.72 194.43 138.10 194.65 137.11 C 194.86 136.13 194.24 135.16 193.25 134.94 L 192.27 134.73 C 191.29 134.52 190.32 135.14 190.11 136.13 C 189.89 137.11 190.52 138.08 191.50 138.29 Z M 192.28 138.45 L 193.31 138.80 C 194.26 139.12 195.29 138.61 195.61 137.66 C 195.94 136.71 195.43 135.67 194.47 135.35 L 193.45 135.00 C 192.50 134.68 191.47 135.19 191.14 136.14 C 190.82 137.09 191.33 138.13 192.28 138.45 Z M 193.08 138.70 L 193.97 139.14 C 194.87 139.59 195.96 139.22 196.41 138.33 C 196.85 137.43 196.49 136.34 195.59 135.89 L 194.70 135.45 C 193.80 135.00 192.71 135.36 192.26 136.26 C 191.82 137.16 192.18 138.25 193.08 138.70 Z M 193.75 139.01 L 194.52 139.54 C 195.35 140.11 196.48 139.90 197.05 139.07 C 197.61 138.25 197.40 137.12 196.58 136.55 L 195.81 136.02 C 194.98 135.45 193.85 135.66 193.28 136.49 C 192.72 137.32 192.93 138.44 193.75 139.01 Z M 194.33 139.38 L 195.01 140.01 C 195.75 140.68 196.90 140.63 197.57 139.89 C 198.24 139.15 198.19 138.00 197.45 137.33 L 196.77 136.71 C 196.03 136.03 194.89 136.09 194.21 136.82 C 193.54 137.56 193.59 138.71 194.33 139.38 Z M 194.84 139.83 L 195.47 140.58 C 196.11 141.34 197.25 141.44 198.02 140.80 C 198.79 140.16 198.89 139.02 198.25 138.25 L 197.62 137.50 C 196.98 136.74 195.83 136.64 195.07 137.28 C 194.30 137.92 194.20 139.06 194.84 139.83 Z M 195.34 140.40 L 195.87 141.22 C 196.42 142.06 197.54 142.30 198.38 141.76 C 199.22 141.22 199.46 140.10 198.91 139.26 L 198.38 138.43 C 197.83 137.59 196.71 137.35 195.87 137.89 C 195.03 138.44 194.79 139.56 195.34 140.40 Z M 195.78 141.06 L 196.24 141.97 C 196.70 142.86 197.79 143.21 198.68 142.76 C 199.57 142.30 199.92 141.21 199.47 140.32 L 199.01 139.42 C 198.55 138.53 197.46 138.17 196.57 138.63 C 195.68 139.08 195.33 140.17 195.78 141.06 Z M 196.18 141.84 L 196.56 142.75 C 196.95 143.68 198.01 144.11 198.93 143.73 C 199.85 143.34 200.29 142.28 199.91 141.36 L 199.53 140.45 C 199.14 139.53 198.08 139.09 197.16 139.47 C 196.24 139.86 195.80 140.92 196.18 141.84 Z M 196.53 142.66 L 196.84 143.55 C 197.17 144.49 198.20 144.99 199.15 144.66 C 200.09 144.33 200.59 143.29 200.26 142.35 L 199.94 141.46 C 199.61 140.51 198.58 140.02 197.64 140.35 C 196.69 140.68 196.19 141.71 196.53 142.66 Z M 196.81 143.47 L 197.09 144.41 C 197.38 145.37 198.39 145.92 199.35 145.63 C 200.30 145.35 200.85 144.34 200.57 143.38 L 200.28 142.43 C 200.00 141.47 198.99 140.93 198.03 141.21 C 197.07 141.50 196.53 142.51 196.81 143.47 Z M 197.07 144.34 L 197.32 145.34 C 197.57 146.31 198.55 146.90 199.52 146.66 C 200.49 146.41 201.08 145.43 200.84 144.46 L 200.59 143.46 C 200.34 142.48 199.36 141.89 198.39 142.14 C 197.42 142.38 196.83 143.37 197.07 144.34 Z M 197.31 145.27 L 197.53 146.32 C 197.73 147.30 198.70 147.93 199.68 147.72 C 200.66 147.51 201.28 146.55 201.08 145.57 L 200.85 144.52 C 200.65 143.54 199.69 142.92 198.71 143.12 C 197.73 143.33 197.10 144.29 197.31 145.27 Z M 197.51 146.27 L 197.68 147.20 C 197.86 148.18 198.80 148.84 199.79 148.66 C 200.78 148.49 201.43 147.54 201.26 146.56 L 201.09 145.63 C 200.91 144.64 199.97 143.98 198.98 144.16 C 197.99 144.33 197.34 145.28 197.51 146.27 Z M 197.67 147.15 L 197.82 148.12 C 197.97 149.11 198.90 149.79 199.89 149.64 C 200.88 149.49 201.57 148.56 201.41 147.57 L 201.27 146.60 C 201.11 145.61 200.19 144.93 199.19 145.08 C 198.20 145.23 197.52 146.16 197.67 147.15 Z M 197.81 148.07 L 197.94 149.07 C 198.06 150.07 198.98 150.77 199.98 150.64 C 200.97 150.51 201.68 149.60 201.55 148.60 L 201.42 147.61 C 201.29 146.61 200.38 145.91 199.38 146.03 C 198.38 146.16 197.68 147.08 197.81 148.07 Z M 197.93 149.03 L 198.04 150.05 C 198.14 151.05 199.04 151.78 200.05 151.67 C 201.05 151.56 201.77 150.66 201.67 149.66 L 201.56 148.64 C 201.45 147.64 200.55 146.91 199.55 147.02 C 198.55 147.13 197.82 148.03 197.93 149.03 Z M 198.03 150.01 L 198.12 151.05 C 198.21 152.06 199.09 152.80 200.10 152.72 C 201.10 152.63 201.85 151.74 201.76 150.74 L 201.67 149.70 C 201.59 148.69 200.70 147.95 199.70 148.03 C 198.69 148.12 197.94 149.01 198.03 150.01 Z M 198.11 151.02 L 198.18 152.07 C 198.25 153.08 199.12 153.85 200.13 153.78 C 201.14 153.71 201.91 152.84 201.84 151.83 L 201.77 150.77 C 201.70 149.76 200.83 149.00 199.82 149.07 C 198.81 149.13 198.05 150.01 198.11 151.02 Z M 198.18 152.04 L 198.23 153.10 C 198.28 154.11 199.15 154.89 200.16 154.84 C 201.17 154.79 201.95 153.92 201.90 152.91 L 201.85 151.86 C 201.79 150.84 200.93 150.06 199.92 150.12 C 198.91 150.17 198.13 151.03 198.18 152.04 Z M 198.23 153.07 L 198.26 154.11 C 198.30 155.12 199.16 155.92 200.17 155.88 C 201.19 155.84 201.98 154.98 201.94 153.97 L 201.90 152.94 C 201.87 151.92 201.01 151.13 200.00 151.17 C 198.98 151.20 198.19 152.06 198.23 153.07 Z M 198.26 154.09 L 198.29 155.08 C 198.32 156.10 199.16 156.90 200.18 156.87 C 201.20 156.84 202.00 156.00 201.98 154.98 L 201.95 153.99 C 201.92 152.97 201.07 152.16 200.05 152.19 C 199.03 152.22 198.23 153.07 198.26 154.09 Z M 198.28 155.06 L 198.30 155.99 C 198.32 157.01 199.17 157.82 200.19 157.80 C 201.21 157.78 202.02 156.94 202.00 155.92 L 201.98 154.99 C 201.96 153.97 201.12 153.16 200.09 153.18 C 199.07 153.20 198.26 154.04 198.28 155.06 Z M 198.30 155.98 L 198.31 157.03 C 198.33 158.05 199.17 158.87 200.19 158.86 C 201.22 158.84 202.03 158.00 202.02 156.98 L 202.00 155.93 C 201.99 154.90 201.15 154.09 200.12 154.10 C 199.10 154.11 198.28 154.96 198.30 155.98 Z M 198.31 157.02 L 198.32 158.08 C 198.33 159.10 199.16 159.93 200.19 159.92 C 201.22 159.91 202.04 159.07 202.03 158.04 L 202.02 156.99 C 202.01 155.96 201.17 155.14 200.15 155.15 C 199.12 155.15 198.30 155.99 198.31 157.02 Z M 198.31 158.07 L 198.32 159.02 C 198.32 160.04 199.16 160.87 200.18 160.87 C 201.21 160.87 202.04 160.03 202.04 159.00 L 202.04 158.05 C 202.03 157.03 201.20 156.20 200.17 156.20 C 199.14 156.20 198.31 157.04 198.31 158.07 Z M 198.31 159.01 L 198.31 159.90 C 198.31 160.93 199.15 161.77 200.18 161.77 C 201.21 161.77 202.04 160.93 202.04 159.90 L 202.04 159.01 C 202.04 157.98 201.21 157.14 200.18 157.14 C 199.15 157.14 198.31 157.98 198.31 159.01 Z M 198.31 159.90 L 198.31 160.89 C 198.31 161.93 199.14 162.76 200.17 162.77 C 201.20 162.77 202.04 161.93 202.04 160.90 L 202.05 159.91 C 202.05 158.88 201.21 158.04 200.18 158.03 C 199.15 158.03 198.31 158.87 198.31 159.90 Z M 198.30 160.86 L 198.29 161.86 C 198.27 162.90 199.09 163.75 200.12 163.77 C 201.16 163.79 202.01 162.97 202.03 161.93 L 202.05 160.93 C 202.07 159.90 201.24 159.05 200.21 159.03 C 199.18 159.01 198.32 159.83 198.30 160.86 Z M 198.28 161.80 L 198.23 162.80 C 198.18 163.84 198.98 164.72 200.01 164.77 C 201.05 164.82 201.93 164.03 201.98 162.99 L 202.03 161.99 C 202.08 160.96 201.29 160.08 200.25 160.02 C 199.22 159.97 198.34 160.77 198.28 161.80 Z M 198.24 162.72 L 198.14 163.69 C 198.04 164.72 198.80 165.64 199.83 165.74 C 200.86 165.84 201.78 165.09 201.88 164.05 L 201.98 163.08 C 202.08 162.05 201.32 161.13 200.29 161.03 C 199.26 160.93 198.34 161.68 198.24 162.72 Z M 198.15 163.61 L 198.01 164.59 C 197.87 165.62 198.58 166.57 199.61 166.71 C 200.64 166.86 201.59 166.14 201.74 165.11 L 201.87 164.13 C 202.02 163.10 201.30 162.15 200.27 162.01 C 199.24 161.86 198.29 162.58 198.15 163.61 Z M 198.02 164.53 L 197.84 165.53 C 197.67 166.55 198.35 167.53 199.38 167.71 C 200.40 167.88 201.38 167.20 201.56 166.17 L 201.73 165.17 C 201.91 164.15 201.22 163.17 200.20 162.99 C 199.17 162.82 198.20 163.50 198.02 164.53 Z M 197.85 165.49 L 197.66 166.43 C 197.47 167.46 198.13 168.45 199.15 168.65 C 200.18 168.85 201.17 168.18 201.37 167.16 L 201.55 166.21 C 201.75 165.19 201.09 164.20 200.06 164.00 C 199.04 163.80 198.05 164.46 197.85 165.49 Z M 197.67 166.40 L 197.48 167.30 C 197.26 168.32 197.91 169.33 198.93 169.54 C 199.95 169.76 200.95 169.11 201.17 168.09 L 201.36 167.19 C 201.58 166.17 200.93 165.17 199.91 164.95 C 198.89 164.73 197.89 165.38 197.67 166.40 Z M 197.49 167.26 L 197.26 168.23 C 197.02 169.24 197.65 170.26 198.66 170.50 C 199.68 170.74 200.70 170.11 200.93 169.09 L 201.16 168.13 C 201.40 167.12 200.77 166.10 199.76 165.86 C 198.74 165.62 197.73 166.25 197.49 167.26 Z M 197.27 168.18 L 197.00 169.23 C 196.73 170.24 197.34 171.27 198.35 171.53 C 199.36 171.79 200.39 171.19 200.65 170.18 L 200.92 169.14 C 201.19 168.13 200.58 167.10 199.57 166.83 C 198.56 166.57 197.53 167.17 197.27 168.18 Z M 197.01 169.19 L 196.73 170.17 C 196.45 171.17 197.03 172.21 198.03 172.50 C 199.03 172.78 200.08 172.20 200.36 171.20 L 200.64 170.22 C 200.93 169.22 200.34 168.17 199.34 167.89 C 198.34 167.60 197.29 168.18 197.01 169.19 Z M 196.74 170.13 L 196.46 171.05 C 196.16 172.05 196.72 173.11 197.72 173.41 C 198.71 173.72 199.77 173.15 200.07 172.16 L 200.35 171.23 C 200.66 170.23 200.10 169.18 199.10 168.88 C 198.10 168.57 197.04 169.13 196.74 170.13 Z M 196.47 171.02 L 196.16 171.98 C 195.84 172.97 196.38 174.03 197.37 174.36 C 198.36 174.68 199.43 174.14 199.75 173.15 L 200.06 172.19 C 200.38 171.20 199.84 170.13 198.85 169.81 C 197.86 169.49 196.79 170.03 196.47 171.02 Z M 196.17 171.94 L 195.83 172.91 C 195.49 173.90 196.01 174.97 196.99 175.32 C 197.98 175.66 199.05 175.14 199.40 174.16 L 199.74 173.18 C 200.08 172.20 199.56 171.12 198.58 170.78 C 197.59 170.43 196.51 170.95 196.17 171.94 Z M 195.85 172.87 L 195.48 173.84 C 195.12 174.81 195.61 175.90 196.59 176.27 C 197.56 176.64 198.65 176.14 199.02 175.17 L 199.38 174.20 C 199.75 173.22 199.26 172.13 198.28 171.77 C 197.30 171.40 196.21 171.89 195.85 172.87 Z M 195.50 173.79 L 195.11 174.74 C 194.72 175.71 195.18 176.81 196.14 177.20 C 197.11 177.60 198.21 177.14 198.61 176.17 L 199.00 175.22 C 199.39 174.25 198.93 173.15 197.97 172.75 C 197.00 172.36 195.90 172.82 195.50 173.79 Z M 195.14 174.69 L 194.72 175.62 C 194.29 176.57 194.72 177.69 195.67 178.12 C 196.62 178.54 197.74 178.12 198.16 177.16 L 198.58 176.23 C 199.01 175.28 198.58 174.16 197.63 173.73 C 196.68 173.31 195.56 173.73 195.14 174.69 Z M 194.74 175.57 L 194.30 176.47 C 193.85 177.41 194.24 178.54 195.17 178.99 C 196.11 179.45 197.24 179.06 197.70 178.12 L 198.14 177.22 C 198.59 176.28 198.20 175.15 197.27 174.70 C 196.33 174.24 195.20 174.63 194.74 175.57 Z M 194.33 176.42 L 193.87 177.29 C 193.39 178.21 193.74 179.35 194.66 179.84 C 195.58 180.32 196.72 179.97 197.21 179.05 L 197.67 178.18 C 198.15 177.26 197.80 176.12 196.88 175.63 C 195.96 175.14 194.82 175.50 194.33 176.42 Z M 193.90 177.24 L 193.42 178.09 C 192.90 178.99 193.22 180.14 194.12 180.66 C 195.03 181.17 196.18 180.86 196.69 179.95 L 197.18 179.10 C 197.69 178.20 197.37 177.05 196.47 176.54 C 195.57 176.02 194.42 176.34 193.90 177.24 Z M 193.45 178.04 L 192.93 178.90 C 192.39 179.78 192.66 180.94 193.55 181.48 C 194.44 182.02 195.59 181.74 196.14 180.86 L 196.66 180.00 C 197.20 179.12 196.92 177.96 196.04 177.42 C 195.15 176.87 193.99 177.15 193.45 178.04 Z M 192.97 178.85 L 192.40 179.71 C 191.83 180.58 192.07 181.74 192.93 182.31 C 193.80 182.88 194.96 182.64 195.53 181.77 L 196.10 180.91 C 196.67 180.04 196.43 178.88 195.56 178.31 C 194.70 177.74 193.53 177.98 192.97 178.85 Z M 192.44 179.66 L 191.85 180.49 C 191.26 181.33 191.45 182.49 192.29 183.09 C 193.14 183.69 194.30 183.49 194.90 182.65 L 195.49 181.82 C 196.08 180.98 195.89 179.82 195.05 179.22 C 194.20 178.62 193.04 178.82 192.44 179.66 Z M 191.90 180.43 L 191.30 181.22 C 190.67 182.03 190.82 183.20 191.64 183.83 C 192.45 184.45 193.62 184.30 194.25 183.49 L 194.85 182.70 C 195.48 181.89 195.33 180.72 194.51 180.09 C 193.70 179.47 192.53 179.62 191.90 180.43 Z M 191.36 181.16 L 190.74 181.89 C 190.08 182.67 190.18 183.84 190.97 184.50 C 191.75 185.16 192.92 185.06 193.58 184.27 L 194.19 183.54 C 194.85 182.76 194.75 181.59 193.97 180.93 C 193.18 180.27 192.01 180.37 191.36 181.16 Z M 190.81 181.82 L 190.11 182.58 C 189.41 183.32 189.45 184.49 190.20 185.18 C 190.94 185.88 192.11 185.84 192.80 185.09 L 193.51 184.34 C 194.20 183.59 194.16 182.43 193.42 181.73 C 192.67 181.04 191.51 181.08 190.81 181.82 Z M 190.19 182.51 L 189.46 183.20 C 188.73 183.90 188.70 185.06 189.40 185.79 C 190.09 186.52 191.25 186.55 191.99 185.86 L 192.72 185.16 C 193.45 184.46 193.48 183.31 192.78 182.57 C 192.09 181.84 190.93 181.81 190.19 182.51 Z M 189.55 183.14 L 188.80 183.77 C 188.03 184.42 187.93 185.56 188.58 186.33 C 189.23 187.10 190.37 187.20 191.14 186.55 L 191.89 185.92 C 192.66 185.28 192.76 184.13 192.12 183.36 C 191.47 182.59 190.32 182.49 189.55 183.14 Z M 188.90 183.71 L 188.12 184.29 C 187.32 184.89 187.15 186.02 187.74 186.82 C 188.34 187.62 189.47 187.78 190.27 187.19 L 191.05 186.61 C 191.85 186.02 192.02 184.89 191.42 184.08 C 190.83 183.28 189.70 183.12 188.90 183.71 Z M 188.21 184.25 L 187.39 184.79 C 186.56 185.33 186.33 186.44 186.88 187.27 C 187.42 188.09 188.53 188.32 189.35 187.78 L 190.18 187.23 C 191.00 186.69 191.23 185.58 190.69 184.76 C 190.14 183.93 189.03 183.70 188.21 184.25 Z M 187.48 184.76 L 186.62 185.26 C 185.78 185.75 185.49 186.84 185.99 187.68 C 186.48 188.52 187.56 188.80 188.40 188.31 L 189.26 187.81 C 190.10 187.31 190.39 186.23 189.89 185.39 C 189.40 184.55 188.32 184.26 187.48 184.76 Z M 186.71 185.24 L 185.82 185.70 C 184.96 186.15 184.63 187.20 185.08 188.05 C 185.52 188.91 186.58 189.24 187.43 188.79 L 188.32 188.33 C 189.17 187.89 189.50 186.83 189.06 185.98 C 188.61 185.12 187.56 184.79 186.71 185.24 Z M 185.90 185.69 L 184.98 186.11 C 184.12 186.51 183.74 187.54 184.15 188.40 C 184.55 189.26 185.57 189.64 186.43 189.24 L 187.35 188.81 C 188.21 188.41 188.59 187.38 188.18 186.52 C 187.78 185.66 186.76 185.29 185.90 185.69 Z M 185.06 186.10 L 184.10 186.50 C 183.24 186.86 182.82 187.85 183.18 188.72 C 183.54 189.59 184.54 190.00 185.41 189.64 L 186.36 189.25 C 187.23 188.89 187.64 187.89 187.28 187.02 C 186.92 186.16 185.92 185.74 185.06 186.10 Z M 184.18 186.48 L 183.22 186.83 C 182.35 187.15 181.90 188.11 182.21 188.99 C 182.53 189.86 183.49 190.32 184.37 190.00 L 185.33 189.65 C 186.20 189.33 186.66 188.37 186.34 187.50 C 186.02 186.62 185.06 186.17 184.18 186.48 Z M 183.31 186.82 L 182.36 187.11 C 181.48 187.38 180.98 188.31 181.25 189.19 C 181.52 190.07 182.45 190.57 183.33 190.30 L 184.28 190.01 C 185.16 189.74 185.66 188.81 185.39 187.93 C 185.12 187.05 184.19 186.55 183.31 186.82 Z M 182.46 187.10 L 181.53 187.32 C 180.64 187.54 180.09 188.43 180.30 189.31 C 180.52 190.20 181.41 190.74 182.29 190.53 L 183.23 190.31 C 184.11 190.10 184.66 189.21 184.45 188.32 C 184.24 187.44 183.35 186.89 182.46 187.10 Z M 181.65 187.31 L 180.62 187.47 C 179.73 187.61 179.12 188.46 179.26 189.35 C 179.40 190.24 180.24 190.85 181.14 190.71 L 182.17 190.55 C 183.06 190.41 183.67 189.57 183.53 188.67 C 183.39 187.78 182.55 187.17 181.65 187.31 Z M 180.74 187.46 L 179.75 187.55 C 178.85 187.62 178.18 188.42 178.26 189.32 C 178.34 190.22 179.13 190.89 180.03 190.81 L 181.02 190.73 C 181.92 190.65 182.59 189.85 182.51 188.95 C 182.43 188.05 181.64 187.38 180.74 187.46 Z M 179.83 187.54 L 178.86 187.58 C 177.96 187.62 177.25 188.38 177.29 189.28 C 177.32 190.19 178.08 190.89 178.99 190.85 L 179.95 190.82 C 180.86 190.78 181.56 190.02 181.53 189.11 C 181.49 188.21 180.73 187.51 179.83 187.54 Z M 178.89 187.58 L 177.90 187.60 C 177.00 187.61 176.28 188.36 176.30 189.26 C 176.31 190.17 177.06 190.89 177.96 190.87 L 178.95 190.85 C 179.86 190.84 180.58 190.09 180.56 189.19 C 180.54 188.28 179.80 187.56 178.89 187.58 Z M 177.92 187.60 L 176.92 187.61 C 176.02 187.61 175.29 188.35 175.30 189.25 C 175.30 190.16 176.04 190.89 176.95 190.88 L 177.95 190.87 C 178.85 190.86 179.58 190.13 179.57 189.22 C 179.56 188.32 178.82 187.59 177.92 187.60 Z M 176.93 187.61 L 175.93 187.61 C 175.03 187.61 174.29 188.34 174.30 189.25 C 174.30 190.15 175.03 190.88 175.94 190.88 L 176.94 190.88 C 177.84 190.88 178.57 190.14 178.57 189.24 C 178.57 188.34 177.83 187.60 176.93 187.61 Z M 175.93 187.61 L 175.51 187.61 C 174.61 187.61 173.87 188.34 173.87 189.24 C 173.87 190.15 174.61 190.88 175.51 190.88 L 175.93 190.88 C 176.84 190.88 177.57 190.15 177.57 189.24 C 177.57 188.34 176.84 187.61 175.93 187.61 Z"
      fill="black"
      fill-rule="nonzero" /></svg>