<svg xmlns="http://www.w3.org/2000/svg" width="300" height="300" viewBox="0 0 300 300">
<path d="M 150.93 117.84 L 150.18 117.21 C 149.43 116.58 148.31 116.68 147.68 117.43 C 147.05 118.18 147.15 119.30 147.90 119.93 L 148.64 120.56 C 149.39 121.19 150.51 121.09 151.14 120.34 C 151.77 119.59 151.68 118.47 150.93 117.84 Z M 150.15 117.17 L 149.38 116.56 C 148.60 115.95 147.48 116.08 146.87 116.85 C 146.26 117.63 146.39 118.75 147.16 119.36 L 147.93 119.97 C 148.70 120.58 149.83 120.45 150.44 119.68 C 151.05 118.91 150.92 117.79 150.15 117.17 Z M 149.30 116.49 L 148.47 115.91 C 147.66 115.34 146.54 115.54 145.97 116.35 C 145.40 117.16 145.60 118.28 146.41 118.85 L 147.24 119.43 C 148.05 120.00 149.17 119.81 149.74 118.99 C 150.31 118.18 150.11 117.06 149.30 116.49 Z M 148.36 115.83 L 147.51 115.32 C 146.65 114.81 145.55 115.10 145.04 115.95 C 144.53 116.81 144.81 117.92 145.67 118.43 L 146.52 118.93 C 147.37 119.44 148.48 119.16 148.99 118.30 C 149.50 117.44 149.22 116.34 148.36 115.83 Z M 147.39 115.24 L 146.55 114.83 C 145.65 114.39 144.56 114.77 144.12 115.67 C 143.68 116.57 144.05 117.66 144.95 118.10 L 145.79 118.51 C 146.69 118.95 147.78 118.57 148.22 117.67 C 148.66 116.77 148.29 115.68 147.39 115.24 Z M 146.41 114.76 L 145.50 114.41 C 144.56 114.04 143.50 114.50 143.13 115.44 C 142.77 116.38 143.23 117.44 144.17 117.81 L 145.09 118.17 C 146.03 118.53 147.08 118.07 147.45 117.13 C 147.82 116.19 147.35 115.13 146.41 114.76 Z M 145.35 114.35 L 144.36 114.05 C 143.39 113.77 142.37 114.32 142.08 115.29 C 141.79 116.27 142.35 117.29 143.32 117.58 L 144.32 117.87 C 145.29 118.16 146.31 117.60 146.60 116.63 C 146.88 115.65 146.33 114.63 145.35 114.35 Z M 144.21 114.00 L 143.14 113.79 C 142.14 113.59 141.17 114.23 140.97 115.23 C 140.76 116.23 141.41 117.21 142.41 117.41 L 143.47 117.62 C 144.47 117.83 145.45 117.18 145.65 116.18 C 145.85 115.18 145.21 114.21 144.21 114.00 Z M 143.00 113.76 L 141.97 113.64 C 140.96 113.52 140.04 114.24 139.91 115.26 C 139.79 116.27 140.52 117.19 141.53 117.31 L 142.55 117.44 C 143.57 117.56 144.49 116.83 144.61 115.82 C 144.74 114.80 144.01 113.88 143.00 113.76 Z M 141.84 113.62 L 140.80 113.57 C 139.78 113.52 138.91 114.31 138.86 115.33 C 138.81 116.36 139.60 117.23 140.62 117.28 L 141.66 117.33 C 142.68 117.38 143.55 116.59 143.60 115.57 C 143.66 114.54 142.87 113.67 141.84 113.62 Z M 140.67 113.57 L 139.64 113.59 C 138.62 113.61 137.81 114.46 137.83 115.49 C 137.85 116.51 138.70 117.32 139.72 117.30 L 140.75 117.28 C 141.77 117.26 142.59 116.41 142.56 115.38 C 142.54 114.36 141.69 113.55 140.67 113.57 Z M 139.50 113.60 L 138.53 113.70 C 137.51 113.80 136.77 114.71 136.87 115.73 C 136.97 116.75 137.88 117.50 138.91 117.39 L 139.87 117.29 C 140.89 117.19 141.64 116.28 141.53 115.26 C 141.43 114.24 140.52 113.49 139.50 113.60 Z M 138.34 113.72 L 137.43 113.91 C 136.43 114.12 135.78 115.10 135.99 116.11 C 136.20 117.11 137.18 117.76 138.19 117.55 L 139.10 117.36 C 140.10 117.16 140.75 116.17 140.54 115.17 C 140.33 114.16 139.35 113.52 138.34 113.72 Z M 137.16 113.99 L 136.28 114.32 C 135.32 114.68 134.83 115.75 135.19 116.71 C 135.55 117.67 136.62 118.16 137.58 117.80 L 138.46 117.47 C 139.42 117.11 139.91 116.04 139.55 115.08 C 139.19 114.12 138.12 113.63 137.16 113.99 Z M 135.97 114.47 L 135.18 114.95 C 134.30 115.48 134.02 116.62 134.55 117.50 C 135.08 118.38 136.22 118.66 137.10 118.13 L 137.89 117.65 C 138.77 117.12 139.05 115.98 138.52 115.10 C 137.99 114.22 136.85 113.94 135.97 114.47 Z M 134.94 115.12 L 134.17 115.77 C 133.38 116.43 133.28 117.60 133.94 118.39 C 134.60 119.17 135.78 119.27 136.56 118.61 L 137.34 117.96 C 138.12 117.30 138.22 116.13 137.56 115.34 C 136.90 114.56 135.73 114.46 134.94 115.12 Z M 134.04 115.89 L 133.28 116.66 C 132.56 117.39 132.57 118.57 133.31 119.29 C 134.04 120.01 135.21 120.00 135.93 119.26 L 136.69 118.49 C 137.41 117.76 137.40 116.58 136.67 115.86 C 135.93 115.14 134.76 115.16 134.04 115.89 Z M 133.23 116.72 L 132.63 117.39 C 131.94 118.15 132.00 119.32 132.77 120.01 C 133.53 120.70 134.70 120.63 135.39 119.87 L 135.99 119.20 C 136.68 118.44 136.61 117.26 135.85 116.58 C 135.09 115.89 133.91 115.96 133.23 116.72 Z M 132.59 117.42 L 131.96 118.17 C 131.30 118.95 131.39 120.12 132.17 120.78 C 132.96 121.45 134.13 121.35 134.79 120.57 L 135.42 119.83 C 136.09 119.05 135.99 117.88 135.21 117.21 C 134.43 116.55 133.26 116.64 132.59 117.42 Z M 131.93 118.20 L 131.29 119.00 C 130.64 119.80 130.77 120.97 131.56 121.61 C 132.36 122.26 133.53 122.13 134.18 121.33 L 134.82 120.54 C 135.47 119.74 135.34 118.57 134.55 117.92 C 133.75 117.28 132.58 117.40 131.93 118.20 Z M 131.26 119.03 L 130.62 119.87 C 129.99 120.68 130.14 121.85 130.96 122.47 C 131.77 123.10 132.94 122.95 133.56 122.13 L 134.20 121.30 C 134.83 120.49 134.68 119.32 133.87 118.69 C 133.05 118.07 131.89 118.22 131.26 119.03 Z M 130.59 119.90 L 129.97 120.76 C 129.36 121.58 129.54 122.75 130.37 123.35 C 131.19 123.96 132.36 123.78 132.96 122.95 L 133.59 122.10 C 134.19 121.27 134.02 120.11 133.19 119.50 C 132.36 118.90 131.20 119.07 130.59 119.90 Z M 129.94 120.80 L 129.34 121.65 C 128.76 122.50 128.97 123.65 129.81 124.24 C 130.65 124.82 131.81 124.61 132.40 123.77 L 132.99 122.91 C 133.58 122.07 133.37 120.91 132.52 120.33 C 131.68 119.74 130.52 119.95 129.94 120.80 Z M 129.31 121.70 L 128.75 122.57 C 128.19 123.43 128.43 124.58 129.29 125.14 C 130.15 125.70 131.30 125.46 131.86 124.60 L 132.43 123.72 C 132.99 122.86 132.74 121.71 131.88 121.15 C 131.02 120.60 129.87 120.84 129.31 121.70 Z M 128.72 122.62 L 128.19 123.48 C 127.66 124.36 127.94 125.50 128.81 126.04 C 129.69 126.57 130.83 126.29 131.37 125.41 L 131.89 124.55 C 132.42 123.67 132.15 122.53 131.27 122.00 C 130.39 121.46 129.25 121.74 128.72 122.62 Z M 128.16 123.53 L 127.67 124.39 C 127.16 125.28 127.48 126.41 128.37 126.92 C 129.26 127.43 130.39 127.12 130.90 126.23 L 131.39 125.37 C 131.90 124.48 131.59 123.34 130.70 122.83 C 129.81 122.32 128.67 122.63 128.16 123.53 Z M 127.65 124.43 L 127.19 125.29 C 126.70 126.20 127.04 127.32 127.95 127.81 C 128.85 128.30 129.98 127.96 130.46 127.05 L 130.93 126.19 C 131.41 125.28 131.07 124.15 130.17 123.67 C 129.26 123.18 128.13 123.52 127.65 124.43 Z M 127.17 125.33 L 126.72 126.20 C 126.26 127.12 126.62 128.24 127.54 128.70 C 128.45 129.17 129.57 128.80 130.04 127.89 L 130.48 127.01 C 130.95 126.10 130.58 124.98 129.67 124.51 C 128.75 124.05 127.63 124.41 127.17 125.33 Z M 126.71 126.23 L 126.27 127.14 C 125.82 128.06 126.21 129.18 127.13 129.62 C 128.05 130.07 129.17 129.69 129.62 128.76 L 130.06 127.86 C 130.50 126.93 130.12 125.82 129.19 125.37 C 128.27 124.92 127.15 125.31 126.71 126.23 Z M 126.26 127.16 L 125.81 128.13 C 125.37 129.06 125.78 130.17 126.71 130.60 C 127.64 131.03 128.75 130.63 129.18 129.70 L 129.63 128.74 C 130.06 127.80 129.66 126.70 128.73 126.26 C 127.80 125.83 126.69 126.23 126.26 127.16 Z M 125.80 128.15 L 125.37 129.11 C 124.94 130.05 125.36 131.15 126.30 131.57 C 127.24 131.99 128.34 131.57 128.76 130.63 L 129.19 129.68 C 129.61 128.74 129.19 127.64 128.26 127.22 C 127.32 126.80 126.22 127.21 125.80 128.15 Z M 125.36 129.13 L 124.95 130.07 C 124.54 131.01 124.97 132.10 125.91 132.51 C 126.85 132.92 127.95 132.49 128.36 131.55 L 128.77 130.61 C 129.18 129.67 128.74 128.58 127.80 128.17 C 126.86 127.76 125.77 128.19 125.36 129.13 Z M 124.94 130.09 L 124.56 130.98 C 124.17 131.93 124.61 133.02 125.55 133.42 C 126.50 133.82 127.59 133.37 127.99 132.43 L 128.37 131.53 C 128.76 130.59 128.32 129.50 127.38 129.10 C 126.43 128.70 125.34 129.14 124.94 130.09 Z M 124.56 131.00 L 124.22 131.84 C 123.83 132.79 124.28 133.87 125.23 134.26 C 126.18 134.65 127.26 134.19 127.65 133.25 L 127.99 132.41 C 128.38 131.46 127.93 130.38 126.98 129.99 C 126.03 129.60 124.95 130.05 124.56 131.00 Z M 124.21 131.86 L 123.80 132.88 C 123.43 133.84 123.90 134.91 124.85 135.29 C 125.81 135.67 126.88 135.20 127.26 134.24 L 127.66 133.22 C 128.04 132.27 127.57 131.19 126.61 130.82 C 125.66 130.44 124.58 130.91 124.21 131.86 Z M 123.79 132.91 L 123.43 133.87 C 123.07 134.83 123.56 135.90 124.52 136.27 C 125.48 136.63 126.55 136.14 126.91 135.18 L 127.27 134.21 C 127.63 133.25 127.15 132.18 126.18 131.82 C 125.22 131.46 124.15 131.95 123.79 132.91 Z M 123.42 133.90 L 123.10 134.78 C 122.76 135.75 123.26 136.81 124.23 137.16 C 125.20 137.51 126.26 137.00 126.61 136.03 L 126.92 135.15 C 127.27 134.18 126.77 133.12 125.80 132.77 C 124.83 132.42 123.77 132.93 123.42 133.90 Z M 123.09 134.79 L 122.79 135.65 C 122.46 136.62 122.97 137.69 123.94 138.03 C 124.92 138.37 125.98 137.85 126.32 136.88 L 126.62 136.02 C 126.96 135.05 126.44 133.98 125.47 133.65 C 124.50 133.31 123.43 133.82 123.09 134.79 Z M 122.79 135.66 L 122.47 136.60 C 122.13 137.57 122.65 138.64 123.62 138.97 C 124.60 139.31 125.66 138.79 126.00 137.81 L 126.32 136.87 C 126.66 135.90 126.14 134.83 125.17 134.50 C 124.19 134.16 123.13 134.68 122.79 135.66 Z M 122.45 136.61 L 122.14 137.57 C 121.81 138.55 122.34 139.61 123.32 139.94 C 124.30 140.27 125.36 139.74 125.69 138.75 L 126.01 137.80 C 126.34 136.82 125.81 135.75 124.83 135.43 C 123.84 135.10 122.78 135.63 122.45 136.61 Z M 122.12 137.60 L 121.82 138.56 C 121.51 139.55 122.06 140.60 123.05 140.91 C 124.05 141.22 125.10 140.67 125.41 139.68 L 125.71 138.72 C 126.02 137.73 125.46 136.68 124.47 136.37 C 123.48 136.06 122.43 136.61 122.12 137.60 Z M 121.80 138.61 L 121.53 139.59 C 121.25 140.59 121.84 141.63 122.84 141.91 C 123.84 142.19 124.88 141.60 125.16 140.60 L 125.43 139.62 C 125.71 138.62 125.12 137.59 124.12 137.31 C 123.12 137.03 122.08 137.61 121.80 138.61 Z M 121.51 139.65 L 121.27 140.63 C 121.03 141.64 121.65 142.66 122.66 142.91 C 123.67 143.15 124.69 142.53 124.94 141.52 L 125.18 140.54 C 125.42 139.52 124.80 138.50 123.79 138.26 C 122.77 138.01 121.75 138.64 121.51 139.65 Z M 121.26 140.68 L 121.05 141.65 C 120.83 142.67 121.48 143.67 122.51 143.89 C 123.53 144.11 124.53 143.46 124.75 142.43 L 124.96 141.47 C 125.17 140.45 124.52 139.44 123.50 139.22 C 122.48 139.01 121.47 139.66 121.26 140.68 Z M 121.04 141.68 L 120.85 142.65 C 120.66 143.68 121.33 144.67 122.36 144.87 C 123.38 145.07 124.38 144.39 124.58 143.37 L 124.76 142.40 C 124.96 141.37 124.29 140.38 123.26 140.18 C 122.23 139.98 121.24 140.66 121.04 141.68 Z M 120.84 142.67 L 120.67 143.66 C 120.48 144.69 121.17 145.68 122.21 145.86 C 123.24 146.04 124.23 145.36 124.41 144.32 L 124.58 143.34 C 124.77 142.31 124.08 141.32 123.05 141.14 C 122.01 140.95 121.03 141.64 120.84 142.67 Z M 120.66 143.68 L 120.50 144.66 C 120.33 145.70 121.03 146.68 122.07 146.85 C 123.11 147.02 124.09 146.32 124.26 145.28 L 124.42 144.30 C 124.59 143.26 123.89 142.28 122.85 142.11 C 121.81 141.94 120.83 142.64 120.66 143.68 Z M 120.49 144.69 L 120.34 145.68 C 120.18 146.73 120.90 147.70 121.94 147.86 C 122.99 148.01 123.96 147.30 124.12 146.25 L 124.27 145.26 C 124.42 144.22 123.70 143.24 122.66 143.09 C 121.62 142.93 120.65 143.65 120.49 144.69 Z M 120.33 145.71 L 120.20 146.69 C 120.05 147.74 120.79 148.70 121.84 148.85 C 122.88 148.99 123.85 148.25 123.99 147.21 L 124.12 146.23 C 124.27 145.18 123.53 144.21 122.49 144.07 C 121.44 143.93 120.47 144.66 120.33 145.71 Z M 120.19 146.72 L 120.07 147.71 C 119.94 148.77 120.70 149.72 121.75 149.85 C 122.80 149.97 123.76 149.22 123.88 148.17 L 124.00 147.18 C 124.13 146.12 123.37 145.17 122.32 145.04 C 121.27 144.92 120.31 145.67 120.19 146.72 Z M 120.06 147.75 L 119.96 148.75 C 119.86 149.81 120.63 150.75 121.69 150.86 C 122.75 150.96 123.69 150.19 123.79 149.13 L 123.89 148.13 C 124.00 147.07 123.22 146.13 122.17 146.02 C 121.11 145.92 120.16 146.69 120.06 147.75 Z M 119.95 148.80 L 119.88 149.80 C 119.79 150.86 120.59 151.79 121.65 151.87 C 122.72 151.95 123.64 151.16 123.73 150.09 L 123.80 149.09 C 123.88 148.02 123.09 147.10 122.02 147.02 C 120.96 146.94 120.03 147.73 119.95 148.80 Z M 119.87 149.84 L 119.81 150.85 C 119.75 151.91 120.57 152.83 121.64 152.88 C 122.71 152.94 123.62 152.13 123.68 151.06 L 123.73 150.05 C 123.79 148.99 122.97 148.07 121.91 148.01 C 120.84 147.96 119.93 148.77 119.87 149.84 Z M 119.81 150.88 L 119.77 151.88 C 119.73 152.95 120.57 153.85 121.64 153.89 C 122.71 153.93 123.61 153.10 123.65 152.02 L 123.68 151.02 C 123.72 149.95 122.89 149.05 121.82 149.01 C 120.75 148.97 119.85 149.81 119.81 150.88 Z M 119.76 151.91 L 119.74 152.87 C 119.72 153.94 120.57 154.83 121.64 154.86 C 122.71 154.89 123.61 154.04 123.63 152.96 L 123.65 152.00 C 123.68 150.92 122.83 150.03 121.75 150.01 C 120.68 149.98 119.79 150.83 119.76 151.91 Z M 119.74 152.89 L 119.73 153.78 C 119.71 154.86 120.57 155.74 121.65 155.75 C 122.73 155.77 123.61 154.90 123.62 153.83 L 123.63 152.94 C 123.65 151.86 122.79 150.98 121.71 150.97 C 120.63 150.95 119.75 151.82 119.74 152.89 Z M 119.72 153.80 L 119.72 154.75 C 119.72 155.83 120.59 156.70 121.67 156.71 C 122.75 156.71 123.63 155.83 123.63 154.76 L 123.63 153.81 C 123.63 152.73 122.76 151.85 121.68 151.85 C 120.60 151.85 119.72 152.72 119.72 153.80 Z M 119.72 154.77 L 119.72 155.84 C 119.73 156.92 120.62 157.79 121.70 157.79 C 122.78 157.78 123.65 156.89 123.64 155.81 L 123.63 154.74 C 123.62 153.66 122.74 152.79 121.66 152.80 C 120.58 152.80 119.71 153.69 119.72 154.77 Z M 119.72 155.85 L 119.73 156.91 C 119.75 157.99 120.64 158.86 121.72 158.85 C 122.81 158.83 123.67 157.94 123.66 156.86 L 123.64 155.80 C 123.63 154.72 122.74 153.85 121.66 153.87 C 120.57 153.88 119.71 154.77 119.72 155.85 Z M 119.73 156.93 L 119.75 157.87 C 119.78 158.95 120.68 159.81 121.76 159.79 C 122.85 159.76 123.71 158.86 123.68 157.77 L 123.66 156.84 C 123.64 155.75 122.74 154.89 121.65 154.92 C 120.56 154.94 119.71 155.84 119.73 156.93 Z M 119.75 157.90 L 119.79 158.90 C 119.84 159.99 120.76 160.83 121.84 160.79 C 122.93 160.74 123.77 159.82 123.73 158.73 L 123.69 157.74 C 123.64 156.65 122.72 155.81 121.63 155.85 C 120.55 155.90 119.70 156.82 119.75 157.90 Z M 119.79 158.96 L 119.86 159.99 C 119.94 161.08 120.89 161.90 121.98 161.82 C 123.06 161.74 123.88 160.80 123.80 159.71 L 123.73 158.68 C 123.65 157.59 122.71 156.77 121.62 156.85 C 120.53 156.93 119.71 157.87 119.79 158.96 Z M 119.87 160.07 L 119.99 161.11 C 120.11 162.20 121.09 162.98 122.18 162.86 C 123.26 162.73 124.04 161.75 123.92 160.67 L 123.80 159.63 C 123.68 158.54 122.70 157.76 121.61 157.88 C 120.53 158.01 119.74 158.99 119.87 160.07 Z M 120.00 161.22 L 120.17 162.24 C 120.35 163.32 121.38 164.05 122.46 163.87 C 123.54 163.68 124.26 162.66 124.08 161.58 L 123.91 160.56 C 123.73 159.48 122.70 158.75 121.62 158.94 C 120.54 159.12 119.81 160.14 120.00 161.22 Z M 120.19 162.38 L 120.45 163.41 C 120.71 164.48 121.78 165.13 122.85 164.87 C 123.91 164.61 124.57 163.53 124.31 162.46 L 124.06 161.44 C 123.79 160.37 122.72 159.72 121.65 159.98 C 120.59 160.24 119.93 161.32 120.19 162.38 Z M 120.49 163.56 L 120.81 164.54 C 121.15 165.58 122.28 166.15 123.32 165.81 C 124.37 165.46 124.93 164.34 124.59 163.29 L 124.27 162.31 C 123.92 161.27 122.80 160.70 121.75 161.05 C 120.71 161.39 120.14 162.52 120.49 163.56 Z M 120.86 164.68 L 121.25 165.61 C 121.67 166.62 122.83 167.10 123.85 166.68 C 124.87 166.26 125.35 165.09 124.92 164.08 L 124.54 163.15 C 124.11 162.13 122.95 161.65 121.93 162.08 C 120.92 162.50 120.44 163.67 120.86 164.68 Z M 121.30 165.74 L 121.74 166.61 C 122.24 167.60 123.44 167.99 124.42 167.49 C 125.41 167.00 125.80 165.80 125.31 164.82 L 124.86 163.94 C 124.37 162.96 123.17 162.56 122.19 163.06 C 121.20 163.56 120.81 164.76 121.30 165.74 Z M 121.81 166.73 L 122.30 167.56 C 122.86 168.51 124.09 168.82 125.03 168.25 C 125.98 167.69 126.29 166.47 125.73 165.52 L 125.24 164.69 C 124.68 163.75 123.45 163.43 122.51 164.00 C 121.56 164.56 121.25 165.79 121.81 166.73 Z M 122.37 167.67 L 122.93 168.49 C 123.55 169.40 124.80 169.63 125.71 169.00 C 126.62 168.38 126.85 167.13 126.22 166.22 L 125.66 165.41 C 125.04 164.50 123.79 164.27 122.88 164.89 C 121.97 165.52 121.74 166.76 122.37 167.67 Z M 123.01 168.60 L 123.64 169.39 C 124.33 170.26 125.59 170.40 126.45 169.71 C 127.32 169.03 127.46 167.77 126.77 166.91 L 126.14 166.11 C 125.45 165.25 124.20 165.10 123.33 165.79 C 122.47 166.48 122.32 167.74 123.01 168.60 Z M 123.74 169.51 L 124.42 170.24 C 125.17 171.05 126.44 171.10 127.25 170.35 C 128.06 169.60 128.10 168.33 127.35 167.52 L 126.67 166.79 C 125.92 165.98 124.66 165.93 123.85 166.68 C 123.04 167.44 122.99 168.70 123.74 169.51 Z M 124.53 170.36 L 125.26 171.02 C 126.08 171.77 127.34 171.72 128.09 170.90 C 128.83 170.09 128.78 168.82 127.97 168.08 L 127.24 167.41 C 126.42 166.66 125.16 166.72 124.41 167.53 C 123.67 168.34 123.72 169.61 124.53 170.36 Z M 125.39 171.13 L 126.17 171.73 C 127.04 172.41 128.30 172.25 128.98 171.38 C 129.65 170.50 129.49 169.25 128.62 168.57 L 127.84 167.97 C 126.96 167.29 125.71 167.45 125.03 168.33 C 124.36 169.20 124.52 170.46 125.39 171.13 Z M 126.31 171.83 L 127.14 172.36 C 128.07 172.96 129.30 172.69 129.90 171.76 C 130.50 170.83 130.23 169.60 129.30 169.00 L 128.48 168.47 C 127.55 167.87 126.31 168.14 125.71 169.07 C 125.11 170.00 125.38 171.24 126.31 171.83 Z M 127.28 172.45 L 128.16 172.91 C 129.13 173.43 130.34 173.05 130.86 172.08 C 131.37 171.10 131.00 169.89 130.02 169.37 L 129.15 168.91 C 128.18 168.40 126.97 168.77 126.45 169.75 C 125.94 170.72 126.31 171.93 127.28 172.45 Z M 128.31 172.98 L 129.22 173.37 C 130.24 173.80 131.41 173.33 131.84 172.31 C 132.27 171.30 131.80 170.13 130.79 169.69 L 129.87 169.30 C 128.86 168.87 127.68 169.34 127.25 170.36 C 126.82 171.37 127.29 172.55 128.31 172.98 Z M 129.37 173.43 L 130.33 173.75 C 131.38 174.09 132.51 173.53 132.86 172.48 C 133.20 171.44 132.64 170.30 131.59 169.96 L 130.64 169.64 C 129.59 169.29 128.46 169.86 128.11 170.90 C 127.76 171.95 128.33 173.08 129.37 173.43 Z M 130.48 173.79 L 131.48 174.03 C 132.55 174.30 133.63 173.65 133.89 172.58 C 134.16 171.51 133.51 170.42 132.44 170.16 L 131.44 169.91 C 130.37 169.65 129.29 170.30 129.02 171.37 C 128.76 172.44 129.41 173.52 130.48 173.79 Z M 131.62 174.06 L 132.57 174.23 C 133.65 174.41 134.68 173.68 134.87 172.60 C 135.06 171.51 134.33 170.48 133.24 170.30 L 132.29 170.13 C 131.21 169.95 130.18 170.67 129.99 171.76 C 129.80 172.84 130.53 173.88 131.62 174.06 Z M 132.69 174.24 L 133.66 174.35 C 134.75 174.47 135.73 173.68 135.86 172.59 C 135.98 171.50 135.19 170.51 134.10 170.39 L 133.13 170.28 C 132.03 170.16 131.05 170.95 130.93 172.04 C 130.81 173.13 131.59 174.12 132.69 174.24 Z M 133.75 174.35 L 134.75 174.42 C 135.84 174.48 136.79 173.65 136.86 172.55 C 136.92 171.46 136.09 170.51 134.99 170.45 L 134.00 170.38 C 132.90 170.32 131.96 171.15 131.89 172.25 C 131.82 173.34 132.66 174.29 133.75 174.35 Z M 134.83 174.42 L 135.84 174.44 C 136.94 174.46 137.85 173.60 137.87 172.50 C 137.90 171.40 137.03 170.49 135.93 170.47 L 134.92 170.44 C 133.82 170.42 132.91 171.29 132.89 172.38 C 132.86 173.48 133.73 174.39 134.83 174.42 Z M 135.90 174.44 L 136.93 174.43 C 138.03 174.42 138.91 173.53 138.90 172.43 C 138.90 171.34 138.00 170.46 136.91 170.46 L 135.87 170.47 C 134.78 170.48 133.90 171.37 133.90 172.47 C 133.91 173.56 134.80 174.44 135.90 174.44 Z M 136.97 174.43 L 138.03 174.40 C 139.12 174.37 139.98 173.46 139.95 172.36 C 139.92 171.27 139.01 170.41 137.92 170.44 L 136.87 170.47 C 135.77 170.50 134.91 171.41 134.94 172.50 C 134.97 173.59 135.88 174.46 136.97 174.43 Z M 138.06 174.39 L 139.12 174.34 C 140.21 174.29 141.05 173.37 141.00 172.28 C 140.95 171.19 140.03 170.35 138.93 170.40 L 137.88 170.44 C 136.79 170.49 135.95 171.42 136.00 172.51 C 136.05 173.60 136.97 174.44 138.06 174.39 Z M 139.15 174.34 L 140.19 174.27 C 141.27 174.20 142.10 173.26 142.03 172.17 C 141.96 171.09 141.02 170.26 139.93 170.33 L 138.90 170.40 C 137.81 170.47 136.99 171.41 137.06 172.50 C 137.13 173.59 138.07 174.41 139.15 174.34 Z M 140.23 174.26 L 141.22 174.18 C 142.31 174.08 143.11 173.13 143.01 172.04 C 142.92 170.96 141.96 170.16 140.88 170.25 L 139.89 170.34 C 138.80 170.44 138.00 171.39 138.10 172.47 C 138.19 173.56 139.15 174.36 140.23 174.26 Z M 141.28 174.17 L 142.21 174.06 C 143.29 173.94 144.06 172.96 143.94 171.89 C 143.81 170.81 142.84 170.03 141.76 170.16 L 140.83 170.26 C 139.75 170.39 138.98 171.36 139.10 172.44 C 139.22 173.52 140.20 174.29 141.28 174.17 Z M 142.28 174.05 L 143.23 173.90 C 144.30 173.74 145.04 172.75 144.88 171.68 C 144.72 170.61 143.72 169.87 142.65 170.03 L 141.70 170.17 C 140.63 170.33 139.89 171.33 140.05 172.40 C 140.21 173.47 141.21 174.21 142.28 174.05 Z M 143.33 173.88 L 144.30 173.68 C 145.36 173.46 146.04 172.43 145.82 171.37 C 145.60 170.32 144.57 169.64 143.52 169.86 L 142.55 170.06 C 141.49 170.27 140.81 171.30 141.03 172.36 C 141.25 173.41 142.28 174.09 143.33 173.88 Z M 144.43 173.64 L 145.35 173.38 C 146.38 173.09 146.99 172.02 146.70 170.99 C 146.41 169.95 145.34 169.35 144.31 169.64 L 143.39 169.90 C 142.36 170.19 141.75 171.26 142.04 172.29 C 142.33 173.32 143.40 173.92 144.43 173.64 Z M 145.48 173.33 L 146.40 173.00 C 147.41 172.64 147.93 171.54 147.58 170.53 C 147.22 169.53 146.11 169.00 145.11 169.36 L 144.18 169.69 C 143.18 170.05 142.65 171.15 143.01 172.16 C 143.37 173.16 144.47 173.69 145.48 173.33 Z M 146.50 172.95 L 147.41 172.57 C 148.39 172.16 148.85 171.04 148.45 170.06 C 148.04 169.08 146.91 168.61 145.93 169.02 L 145.01 169.41 C 144.03 169.81 143.57 170.94 143.98 171.92 C 144.39 172.90 145.52 173.36 146.50 172.95 Z M 147.47 172.54 L 148.30 172.16 C 149.26 171.72 149.68 170.58 149.24 169.62 C 148.79 168.65 147.66 168.23 146.69 168.68 L 145.87 169.06 C 144.91 169.50 144.49 170.64 144.93 171.60 C 145.37 172.56 146.51 172.98 147.47 172.54 Z M 148.34 172.13 L 149.22 171.70 C 150.16 171.23 150.55 170.09 150.08 169.14 C 149.61 168.19 148.47 167.80 147.52 168.27 L 146.65 168.70 C 145.70 169.17 145.31 170.32 145.78 171.27 C 146.25 172.21 147.40 172.60 148.34 172.13 Z M 149.26 171.67 L 150.17 171.20 C 151.10 170.70 151.45 169.55 150.96 168.61 C 150.47 167.68 149.31 167.33 148.38 167.82 L 147.47 168.30 C 146.54 168.79 146.19 169.95 146.68 170.88 C 147.17 171.81 148.33 172.17 149.26 171.67 Z M 150.21 171.17 L 151.13 170.65 C 152.05 170.13 152.37 168.97 151.85 168.05 C 151.34 167.13 150.17 166.81 149.26 167.33 L 148.34 167.85 C 147.42 168.37 147.10 169.53 147.61 170.44 C 148.13 171.36 149.29 171.68 150.21 171.17 Z M 151.18 170.61 L 152.10 170.06 C 153.00 169.51 153.29 168.35 152.75 167.45 C 152.21 166.55 151.04 166.26 150.14 166.80 L 149.21 167.36 C 148.31 167.90 148.02 169.07 148.57 169.97 C 149.11 170.87 150.28 171.16 151.18 170.61 Z M 152.15 170.02 L 152.98 169.48 C 153.86 168.92 154.12 167.74 153.55 166.86 C 152.98 165.98 151.81 165.73 150.93 166.30 L 150.09 166.84 C 149.22 167.40 148.96 168.57 149.53 169.45 C 150.09 170.33 151.27 170.59 152.15 170.02 Z M 153.02 169.45 L 153.84 168.89 C 154.70 168.30 154.92 167.13 154.34 166.27 C 153.75 165.41 152.58 165.19 151.72 165.77 L 150.90 166.33 C 150.04 166.92 149.82 168.09 150.40 168.95 C 150.99 169.81 152.16 170.03 153.02 169.45 Z M 153.87 168.85 L 154.68 168.27 C 155.52 167.67 155.72 166.50 155.11 165.66 C 154.51 164.82 153.34 164.62 152.50 165.22 L 151.69 165.81 C 150.85 166.41 150.66 167.58 151.26 168.42 C 151.86 169.26 153.03 169.45 153.87 168.85 Z M 154.71 168.24 L 155.51 167.64 C 156.33 167.02 156.50 165.85 155.89 165.03 C 155.27 164.21 154.10 164.04 153.28 164.66 L 152.48 165.26 C 151.65 165.87 151.48 167.04 152.10 167.86 C 152.72 168.69 153.88 168.85 154.71 168.24 Z M 155.53 167.61 L 156.32 166.99 C 157.13 166.36 157.28 165.20 156.65 164.39 C 156.02 163.59 154.86 163.44 154.05 164.07 L 153.26 164.69 C 152.45 165.31 152.31 166.48 152.93 167.28 C 153.56 168.09 154.72 168.24 155.53 167.61 Z M 156.34 166.96 L 157.13 166.33 C 157.92 165.70 158.04 164.54 157.41 163.75 C 156.77 162.95 155.61 162.83 154.82 163.46 L 154.04 164.09 C 153.24 164.73 153.12 165.89 153.75 166.68 C 154.39 167.47 155.55 167.60 156.34 166.96 Z M 157.14 166.31 L 157.93 165.65 C 158.71 165.01 158.82 163.86 158.17 163.08 C 157.53 162.30 156.38 162.19 155.60 162.84 L 154.81 163.49 C 154.03 164.13 153.92 165.29 154.56 166.06 C 155.21 166.84 156.36 166.95 157.14 166.31 Z M 157.94 165.63 L 158.72 164.96 C 159.48 164.31 159.58 163.17 158.93 162.40 C 158.28 161.64 157.13 161.55 156.37 162.20 L 155.59 162.86 C 154.82 163.51 154.73 164.66 155.38 165.42 C 156.03 166.19 157.18 166.28 157.94 165.63 Z M 158.74 164.93 L 159.50 164.26 C 160.24 163.61 160.32 162.47 159.66 161.72 C 159.00 160.97 157.86 160.90 157.11 161.56 L 156.35 162.23 C 155.61 162.89 155.53 164.03 156.19 164.77 C 156.85 165.52 157.99 165.59 158.74 164.93 Z M 159.51 164.23 L 160.25 163.56 C 160.98 162.89 161.03 161.76 160.36 161.03 C 159.69 160.30 158.56 160.25 157.83 160.92 L 157.10 161.59 C 156.37 162.26 156.32 163.39 156.98 164.12 C 157.65 164.85 158.78 164.90 159.51 164.23 Z M 160.27 163.52 L 160.97 162.85 C 161.68 162.17 161.71 161.05 161.03 160.34 C 160.36 159.63 159.23 159.60 158.52 160.28 L 157.81 160.95 C 157.10 161.63 157.08 162.75 157.75 163.46 C 158.43 164.18 159.56 164.20 160.27 163.52 Z M 161.00 162.81 L 161.69 162.12 C 162.38 161.43 162.37 160.31 161.69 159.62 C 161.00 158.93 159.88 158.94 159.19 159.63 L 158.50 160.32 C 157.81 161.01 157.81 162.12 158.50 162.81 C 159.19 163.50 160.31 163.50 161.00 162.81 Z M 161.71 162.07 L 162.44 161.29 C 163.11 160.59 163.07 159.48 162.37 158.82 C 161.67 158.16 160.56 158.19 159.90 158.89 L 159.16 159.67 C 158.50 160.37 158.53 161.48 159.24 162.15 C 159.94 162.81 161.05 162.78 161.71 162.07 Z M 162.47 161.24 L 163.15 160.47 C 163.79 159.76 163.72 158.66 163.00 158.02 C 162.29 157.39 161.19 157.46 160.55 158.17 L 159.87 158.94 C 159.24 159.66 159.30 160.76 160.02 161.39 C 160.74 162.03 161.83 161.96 162.47 161.24 Z M 163.18 160.42 L 163.81 159.66 C 164.42 158.93 164.32 157.84 163.59 157.24 C 162.86 156.63 161.77 156.73 161.16 157.46 L 160.53 158.23 C 159.92 158.96 160.02 160.04 160.75 160.65 C 161.49 161.25 162.57 161.15 163.18 160.42 Z M 163.83 159.61 L 164.42 158.85 C 165.00 158.11 164.86 157.04 164.12 156.46 C 163.38 155.88 162.31 156.02 161.73 156.76 L 161.14 157.51 C 160.57 158.26 160.70 159.33 161.44 159.90 C 162.18 160.48 163.25 160.35 163.83 159.61 Z M 164.44 158.80 L 165.00 158.03 C 165.55 157.28 165.38 156.22 164.63 155.67 C 163.88 155.12 162.82 155.29 162.27 156.04 L 161.71 156.81 C 161.16 157.56 161.33 158.62 162.08 159.17 C 162.83 159.72 163.89 159.55 164.44 158.80 Z M 165.02 157.97 L 165.62 157.10 C 166.14 156.33 165.93 155.29 165.17 154.77 C 164.40 154.25 163.36 154.45 162.84 155.22 L 162.25 156.10 C 161.73 156.87 161.93 157.91 162.70 158.43 C 163.46 158.94 164.51 158.74 165.02 157.97 Z M 165.65 157.03 L 166.18 156.16 C 166.66 155.38 166.42 154.35 165.63 153.87 C 164.85 153.39 163.82 153.64 163.34 154.42 L 162.81 155.29 C 162.33 156.07 162.57 157.10 163.36 157.58 C 164.14 158.06 165.17 157.81 165.65 157.03 Z M 166.21 156.08 L 166.68 155.23 C 167.12 154.43 166.82 153.42 166.02 152.98 C 165.22 152.54 164.21 152.84 163.77 153.64 L 163.31 154.50 C 162.87 155.30 163.16 156.31 163.97 156.75 C 164.77 157.18 165.78 156.89 166.21 156.08 Z M 166.72 155.14 L 167.12 154.29 C 167.50 153.47 167.15 152.49 166.33 152.10 C 165.51 151.71 164.53 152.06 164.14 152.89 L 163.74 153.73 C 163.35 154.55 163.70 155.54 164.52 155.93 C 165.35 156.31 166.33 155.96 166.72 155.14 Z M 167.16 154.18 L 167.54 153.18 C 167.87 152.33 167.45 151.38 166.60 151.06 C 165.76 150.73 164.81 151.15 164.48 152.00 L 164.09 153.00 C 163.77 153.85 164.19 154.80 165.04 155.12 C 165.88 155.45 166.83 155.03 167.16 154.18 Z M 167.59 153.02 L 167.86 152.04 C 168.10 151.17 167.58 150.26 166.71 150.03 C 165.83 149.79 164.93 150.31 164.70 151.18 L 164.43 152.16 C 164.19 153.03 164.71 153.93 165.58 154.17 C 166.46 154.41 167.36 153.89 167.59 153.02 Z M 167.90 151.82 L 168.03 150.88 C 168.14 149.98 167.51 149.16 166.62 149.04 C 165.72 148.92 164.90 149.56 164.78 150.45 L 164.65 151.40 C 164.54 152.29 165.17 153.12 166.07 153.23 C 166.96 153.35 167.79 152.72 167.90 151.82 Z M 168.04 150.58 L 167.99 149.62 C 167.94 148.72 167.17 148.02 166.27 148.07 C 165.37 148.12 164.67 148.88 164.72 149.79 L 164.77 150.75 C 164.81 151.65 165.58 152.35 166.48 152.30 C 167.39 152.26 168.08 151.49 168.04 150.58 Z M 167.95 149.32 L 167.71 148.35 C 167.50 147.48 166.61 146.94 165.73 147.15 C 164.86 147.36 164.32 148.25 164.53 149.12 L 164.76 150.09 C 164.98 150.97 165.86 151.51 166.74 151.30 C 167.62 151.08 168.16 150.20 167.95 149.32 Z M 167.65 148.16 L 167.30 147.23 C 166.98 146.39 166.04 145.96 165.19 146.28 C 164.35 146.59 163.92 147.54 164.24 148.38 L 164.59 149.31 C 164.91 150.16 165.85 150.59 166.70 150.27 C 167.54 149.95 167.97 149.01 167.65 148.16 Z M 167.28 147.17 L 167.07 146.68 C 166.72 145.85 165.76 145.46 164.93 145.82 C 164.09 146.17 163.70 147.13 164.06 147.96 L 164.26 148.45 C 164.62 149.28 165.58 149.67 166.41 149.32 C 167.24 148.96 167.63 148.00 167.28 147.17 Z"
      fill="black"
      fill-rule="nonzero" /><path d="M 136.33 148.64 L 137.14 149.28 C 138.02 149.97 139.29 149.83 139.98 148.95 C 140.67 148.08 140.52 146.80 139.64 146.11 L 138.83 145.47 C 137.96 144.78 136.69 144.93 136.00 145.81 C 135.31 146.68 135.45 147.95 136.33 148.64 Z M 137.26 149.37 L 138.09 149.94 C 139.02 150.56 140.28 150.32 140.90 149.39 C 141.53 148.47 141.28 147.21 140.36 146.59 L 139.52 146.02 C 138.60 145.40 137.34 145.64 136.72 146.57 C 136.09 147.49 136.34 148.75 137.26 149.37 Z M 138.37 150.10 L 139.25 150.51 C 140.27 150.98 141.47 150.54 141.94 149.52 C 142.41 148.51 141.97 147.30 140.96 146.83 L 140.08 146.43 C 139.07 145.95 137.86 146.39 137.39 147.41 C 136.92 148.42 137.36 149.63 138.37 150.10 Z M 139.72 150.66 L 140.63 150.83 C 141.73 151.05 142.79 150.33 143.00 149.23 C 143.22 148.14 142.50 147.07 141.40 146.86 L 140.49 146.68 C 139.39 146.47 138.33 147.18 138.12 148.28 C 137.90 149.38 138.62 150.44 139.72 150.66 Z M 141.09 150.87 L 142.04 150.83 C 143.15 150.79 144.03 149.85 143.98 148.73 C 143.94 147.62 143.00 146.75 141.88 146.79 L 140.94 146.83 C 139.82 146.87 138.95 147.81 138.99 148.92 C 139.04 150.04 139.98 150.91 141.09 150.87 Z M 142.35 150.79 L 143.34 150.60 C 144.43 150.39 145.15 149.33 144.94 148.23 C 144.73 147.14 143.67 146.42 142.57 146.63 L 141.58 146.83 C 140.48 147.04 139.76 148.10 139.98 149.20 C 140.19 150.29 141.25 151.01 142.35 150.79 Z M 143.52 150.56 L 144.55 150.26 C 145.62 149.95 146.23 148.83 145.92 147.76 C 145.61 146.69 144.49 146.07 143.42 146.38 L 142.39 146.68 C 141.32 146.99 140.71 148.11 141.02 149.18 C 141.33 150.25 142.45 150.87 143.52 150.56 Z M 144.63 150.23 L 145.44 149.95 C 146.50 149.60 147.06 148.45 146.70 147.40 C 146.35 146.34 145.20 145.78 144.15 146.14 L 143.34 146.41 C 142.28 146.77 141.72 147.91 142.07 148.97 C 142.43 150.02 143.57 150.59 144.63 150.23 Z M 145.49 149.93 L 146.31 149.63 C 147.35 149.25 147.88 148.09 147.50 147.05 C 147.11 146.00 145.95 145.47 144.91 145.86 L 144.10 146.16 C 143.05 146.54 142.52 147.70 142.91 148.74 C 143.29 149.79 144.45 150.32 145.49 149.93 Z M 146.35 149.61 L 147.24 149.26 C 148.27 148.84 148.77 147.68 148.36 146.64 C 147.94 145.61 146.77 145.11 145.74 145.53 L 144.86 145.88 C 143.83 146.29 143.33 147.46 143.74 148.49 C 144.15 149.52 145.32 150.02 146.35 149.61 Z M 147.28 149.24 L 148.26 148.82 C 149.28 148.38 149.75 147.21 149.32 146.19 C 148.89 145.17 147.71 144.69 146.69 145.13 L 145.70 145.54 C 144.68 145.98 144.21 147.16 144.64 148.18 C 145.08 149.20 146.26 149.67 147.28 149.24 Z M 148.29 148.80 L 149.41 148.30 C 150.42 147.85 150.87 146.67 150.42 145.66 C 149.97 144.65 148.78 144.19 147.77 144.64 L 146.66 145.14 C 145.65 145.59 145.19 146.78 145.64 147.79 C 146.09 148.80 147.28 149.25 148.29 148.80 Z M 149.43 148.29 L 150.32 147.88 C 151.32 147.42 151.76 146.23 151.30 145.23 C 150.84 144.23 149.65 143.79 148.65 144.25 L 147.75 144.66 C 146.75 145.12 146.31 146.31 146.77 147.31 C 147.23 148.31 148.42 148.75 149.43 148.29 Z M 150.33 147.87 L 151.22 147.46 C 152.22 146.99 152.65 145.80 152.18 144.80 C 151.71 143.80 150.52 143.37 149.52 143.84 L 148.63 144.26 C 147.63 144.72 147.20 145.91 147.67 146.91 C 148.14 147.91 149.33 148.34 150.33 147.87 Z M 151.22 147.45 L 152.15 147.01 C 153.15 146.54 153.57 145.35 153.10 144.35 C 152.63 143.36 151.44 142.93 150.44 143.41 L 149.52 143.85 C 148.52 144.32 148.10 145.51 148.57 146.50 C 149.04 147.50 150.23 147.92 151.22 147.45 Z M 152.16 147.01 L 153.10 146.55 C 154.10 146.08 154.52 144.89 154.04 143.89 C 153.56 142.90 152.37 142.48 151.38 142.96 L 150.44 143.41 C 149.44 143.89 149.03 145.08 149.50 146.07 C 149.98 147.06 151.17 147.48 152.16 147.01 Z M 153.11 146.55 L 154.05 146.09 C 155.04 145.61 155.46 144.42 154.98 143.43 C 154.50 142.44 153.31 142.03 152.32 142.51 L 151.38 142.97 C 150.39 143.44 149.97 144.63 150.45 145.62 C 150.93 146.61 152.12 147.03 153.11 146.55 Z M 154.06 146.08 L 154.98 145.63 C 155.97 145.15 156.38 143.96 155.89 142.97 C 155.41 141.99 154.22 141.58 153.24 142.06 L 152.31 142.51 C 151.33 143.00 150.92 144.19 151.40 145.17 C 151.88 146.16 153.07 146.57 154.06 146.08 Z M 154.99 145.63 L 155.87 145.19 C 156.85 144.71 157.26 143.52 156.77 142.53 C 156.29 141.55 155.10 141.15 154.11 141.63 L 153.23 142.07 C 152.25 142.55 151.85 143.74 152.33 144.73 C 152.82 145.71 154.01 146.11 154.99 145.63 Z M 155.88 145.18 L 156.80 144.72 C 157.78 144.24 158.17 143.05 157.69 142.07 C 157.20 141.09 156.01 140.69 155.03 141.18 L 154.11 141.64 C 153.13 142.13 152.73 143.32 153.22 144.30 C 153.71 145.28 154.90 145.67 155.88 145.18 Z M 156.81 144.72 L 157.85 144.19 C 158.82 143.69 159.21 142.50 158.72 141.53 C 158.23 140.56 157.04 140.17 156.06 140.66 L 155.02 141.19 C 154.05 141.68 153.66 142.87 154.15 143.84 C 154.64 144.82 155.83 145.21 156.81 144.72 Z M 157.86 144.18 L 158.79 143.70 C 159.75 143.20 160.14 142.02 159.64 141.05 C 159.14 140.08 157.95 139.70 156.99 140.19 L 156.06 140.67 C 155.09 141.17 154.70 142.35 155.20 143.32 C 155.70 144.29 156.89 144.67 157.86 144.18 Z M 158.79 143.69 L 159.63 143.26 C 160.60 142.76 160.98 141.57 160.48 140.61 C 159.98 139.64 158.79 139.26 157.83 139.76 L 156.98 140.20 C 156.02 140.70 155.64 141.89 156.14 142.85 C 156.64 143.81 157.82 144.19 158.79 143.69 Z M 159.63 143.25 L 160.42 142.84 C 161.39 142.35 161.76 141.16 161.26 140.20 C 160.77 139.24 159.58 138.86 158.62 139.36 L 157.83 139.77 C 156.87 140.27 156.49 141.45 156.99 142.41 C 157.49 143.37 158.67 143.75 159.63 143.25 Z M 160.41 142.84 L 161.18 142.45 C 162.14 141.95 162.52 140.78 162.03 139.82 C 161.54 138.85 160.36 138.47 159.40 138.97 L 158.63 139.36 C 157.67 139.85 157.29 141.03 157.78 141.99 C 158.27 142.95 159.45 143.33 160.41 142.84 Z M 161.17 142.46 L 162.08 142.00 C 163.05 141.51 163.44 140.34 162.96 139.37 C 162.47 138.41 161.30 138.01 160.33 138.50 L 159.42 138.96 C 158.45 139.44 158.06 140.62 158.54 141.58 C 159.03 142.55 160.20 142.94 161.17 142.46 Z M 162.06 142.02 L 162.98 141.57 C 163.95 141.10 164.36 139.93 163.89 138.95 C 163.42 137.98 162.25 137.57 161.27 138.04 L 160.36 138.48 C 159.38 138.95 158.97 140.12 159.44 141.10 C 159.91 142.08 161.08 142.49 162.06 142.02 Z M 162.94 141.60 L 163.85 141.18 C 164.84 140.74 165.28 139.57 164.83 138.58 C 164.38 137.59 163.21 137.15 162.22 137.60 L 161.31 138.01 C 160.32 138.46 159.88 139.63 160.33 140.62 C 160.78 141.61 161.95 142.05 162.94 141.60 Z M 163.80 141.22 L 164.70 140.84 C 165.70 140.42 166.18 139.27 165.76 138.26 C 165.34 137.25 164.19 136.78 163.18 137.19 L 162.28 137.57 C 161.27 137.99 160.80 139.14 161.21 140.15 C 161.63 141.16 162.79 141.63 163.80 141.22 Z M 164.61 140.88 L 165.66 140.51 C 166.69 140.13 167.22 139.00 166.85 137.96 C 166.47 136.93 165.34 136.40 164.31 136.77 L 163.26 137.15 C 162.23 137.52 161.70 138.66 162.07 139.69 C 162.44 140.72 163.58 141.26 164.61 140.88 Z M 165.49 140.57 L 166.57 140.29 C 167.64 140.01 168.28 138.92 168.00 137.85 C 167.72 136.78 166.62 136.14 165.55 136.42 L 164.47 136.71 C 163.40 136.99 162.77 138.08 163.05 139.15 C 163.33 140.22 164.42 140.86 165.49 140.57 Z M 166.21 140.37 L 167.13 140.30 C 168.24 140.22 169.08 139.26 169.00 138.15 C 168.92 137.03 167.95 136.20 166.84 136.28 L 165.92 136.34 C 164.81 136.42 163.97 137.39 164.05 138.50 C 164.13 139.61 165.09 140.45 166.21 140.37 Z M 166.33 140.22 L 167.02 140.45 C 168.09 140.82 169.24 140.25 169.61 139.18 C 169.97 138.12 169.40 136.96 168.33 136.60 L 167.64 136.36 C 166.58 136.00 165.42 136.57 165.06 137.63 C 164.70 138.70 165.26 139.85 166.33 140.22 Z M 166.00 139.69 L 166.44 140.32 C 167.09 141.25 168.36 141.47 169.28 140.83 C 170.21 140.18 170.44 138.91 169.79 137.98 L 169.35 137.36 C 168.71 136.43 167.44 136.21 166.51 136.85 C 165.59 137.50 165.36 138.77 166.00 139.69 Z M 166.12 139.59 L 166.34 140.57 C 166.58 141.68 167.67 142.37 168.77 142.13 C 169.87 141.89 170.57 140.80 170.33 139.70 L 170.11 138.71 C 169.87 137.61 168.78 136.92 167.68 137.16 C 166.58 137.40 165.88 138.49 166.12 139.59 Z M 166.29 140.28 L 166.38 141.52 C 166.46 142.65 167.44 143.49 168.56 143.41 C 169.69 143.33 170.54 142.36 170.46 141.23 L 170.37 139.99 C 170.29 138.87 169.31 138.02 168.19 138.10 C 167.06 138.18 166.21 139.16 166.29 140.28 Z M 166.38 141.44 L 166.41 142.34 C 166.45 143.47 167.39 144.35 168.52 144.31 C 169.64 144.28 170.53 143.33 170.49 142.20 L 170.46 141.31 C 170.42 140.18 169.48 139.30 168.35 139.33 C 167.22 139.37 166.34 140.32 166.38 141.44 Z M 166.41 142.31 L 166.43 143.28 C 166.45 144.41 167.38 145.31 168.51 145.28 C 169.63 145.26 170.53 144.33 170.51 143.20 L 170.49 142.23 C 170.47 141.11 169.54 140.21 168.41 140.23 C 167.28 140.25 166.39 141.18 166.41 142.31 Z M 166.43 143.26 L 166.44 144.29 C 166.45 145.41 167.37 146.32 168.50 146.31 C 169.62 146.30 170.53 145.37 170.52 144.25 L 170.51 143.22 C 170.50 142.10 169.58 141.19 168.45 141.20 C 167.32 141.21 166.42 142.14 166.43 143.26 Z M 166.44 144.27 L 166.44 145.33 C 166.44 146.46 167.36 147.37 168.49 147.36 C 169.62 147.36 170.53 146.44 170.52 145.31 L 170.52 144.26 C 170.51 143.13 169.60 142.22 168.47 142.23 C 167.34 142.23 166.43 143.15 166.44 144.27 Z M 166.44 145.32 L 166.44 146.38 C 166.44 147.51 167.36 148.42 168.48 148.42 C 169.61 148.42 170.52 147.51 170.52 146.38 L 170.52 145.32 C 170.52 144.19 169.61 143.28 168.48 143.28 C 167.35 143.28 166.44 144.19 166.44 145.32 Z M 166.44 146.38 L 166.44 147.46 C 166.44 148.59 167.36 149.50 168.48 149.50 C 169.61 149.50 170.52 148.59 170.52 147.46 L 170.52 146.38 C 170.52 145.26 169.61 144.34 168.48 144.34 C 167.36 144.34 166.44 145.26 166.44 146.38 Z M 166.45 147.46 L 166.45 148.52 C 166.45 149.65 167.36 150.56 168.48 150.56 C 169.61 150.56 170.52 149.65 170.52 148.52 L 170.52 147.46 C 170.52 146.34 169.61 145.43 168.48 145.43 C 167.36 145.43 166.45 146.34 166.45 147.46 Z M 166.45 148.52 L 166.45 149.54 C 166.45 150.67 167.36 151.58 168.48 151.58 C 169.61 151.58 170.52 150.67 170.52 149.54 L 170.52 148.52 C 170.52 147.40 169.61 146.49 168.48 146.49 C 167.36 146.49 166.45 147.40 166.45 148.52 Z M 166.45 149.54 L 166.45 150.51 C 166.45 151.64 167.36 152.54 168.48 152.54 C 169.60 152.54 170.51 151.64 170.51 150.51 L 170.51 149.54 C 170.51 148.42 169.60 147.51 168.48 147.51 C 167.36 147.51 166.45 148.42 166.45 149.54 Z M 166.45 150.51 L 166.45 151.43 C 166.45 152.55 167.36 153.45 168.48 153.45 C 169.60 153.45 170.51 152.55 170.51 151.43 L 170.51 150.51 C 170.51 149.39 169.60 148.49 168.48 148.49 C 167.36 148.49 166.45 149.39 166.45 150.51 Z M 166.46 151.43 L 166.46 152.48 C 166.46 153.60 167.36 154.50 168.48 154.50 C 169.60 154.50 170.51 153.60 170.51 152.48 L 170.51 151.43 C 170.51 150.31 169.60 149.40 168.48 149.40 C 167.37 149.40 166.46 150.31 166.46 151.43 Z M 166.47 152.47 L 166.46 153.50 C 166.46 154.62 167.36 155.52 168.47 155.53 C 169.58 155.53 170.49 154.63 170.49 153.52 L 170.50 152.49 C 170.50 151.37 169.60 150.47 168.49 150.46 C 167.38 150.46 166.47 151.36 166.47 152.47 Z M 166.47 153.48 L 166.46 154.44 C 166.44 155.55 167.33 156.46 168.44 156.48 C 169.55 156.49 170.46 155.60 170.47 154.50 L 170.49 153.54 C 170.50 152.43 169.61 151.52 168.50 151.50 C 167.40 151.49 166.48 152.37 166.47 153.48 Z M 166.47 154.41 L 166.44 155.34 C 166.41 156.44 167.28 157.36 168.38 157.39 C 169.49 157.42 170.41 156.55 170.44 155.45 L 170.46 154.53 C 170.50 153.42 169.63 152.50 168.52 152.47 C 167.42 152.44 166.50 153.31 166.47 154.41 Z M 166.45 155.30 L 166.40 156.28 C 166.35 157.38 167.20 158.32 168.30 158.37 C 169.40 158.42 170.33 157.57 170.38 156.47 L 170.43 155.49 C 170.48 154.39 169.63 153.45 168.53 153.40 C 167.43 153.35 166.50 154.20 166.45 155.30 Z M 166.41 156.27 L 166.35 157.26 C 166.29 158.36 167.13 159.29 168.22 159.36 C 169.32 159.42 170.26 158.58 170.32 157.48 L 170.38 156.49 C 170.44 155.39 169.60 154.46 168.50 154.39 C 167.41 154.33 166.47 155.17 166.41 156.27 Z M 166.36 157.27 L 166.30 158.27 C 166.25 159.37 167.09 160.30 168.18 160.36 C 169.27 160.41 170.21 159.57 170.26 158.48 L 170.32 157.48 C 170.37 156.38 169.53 155.45 168.44 155.39 C 167.35 155.33 166.41 156.17 166.36 157.27 Z M 166.31 158.30 L 166.27 159.30 C 166.23 160.39 167.08 161.31 168.17 161.35 C 169.26 161.39 170.18 160.54 170.22 159.45 L 170.26 158.45 C 170.30 157.36 169.45 156.44 168.36 156.40 C 167.27 156.36 166.35 157.21 166.31 158.30 Z M 166.28 159.33 L 166.26 160.32 C 166.23 161.41 167.10 162.31 168.18 162.33 C 169.27 162.35 170.17 161.49 170.19 160.40 L 170.21 159.42 C 170.24 158.33 169.37 157.43 168.29 157.41 C 167.20 157.38 166.30 158.25 166.28 159.33 Z M 166.27 160.34 L 166.25 161.34 C 166.24 162.42 167.10 163.31 168.19 163.32 C 169.27 163.34 170.16 162.47 170.17 161.39 L 170.18 160.39 C 170.20 159.30 169.33 158.42 168.25 158.40 C 167.17 158.39 166.28 159.25 166.27 160.34 Z M 166.26 161.34 L 166.25 162.35 C 166.23 163.43 167.10 164.32 168.17 164.33 C 169.25 164.35 170.14 163.48 170.15 162.41 L 170.16 161.39 C 170.18 160.31 169.32 159.43 168.24 159.41 C 167.16 159.40 166.27 160.26 166.26 161.34 Z M 166.26 162.34 L 166.24 163.34 C 166.21 164.41 167.07 165.30 168.14 165.32 C 169.21 165.34 170.10 164.49 170.12 163.42 L 170.14 162.42 C 170.16 161.35 169.31 160.46 168.24 160.44 C 167.16 160.42 166.28 161.27 166.26 162.34 Z M 166.24 163.33 L 166.22 164.33 C 166.19 165.40 167.04 166.28 168.11 166.31 C 169.17 166.34 170.06 165.49 170.09 164.42 L 170.11 163.43 C 170.14 162.36 169.30 161.47 168.23 161.44 C 167.16 161.42 166.27 162.26 166.24 163.33 Z M 166.23 164.33 L 166.20 165.33 C 166.18 166.39 167.02 167.28 168.08 167.30 C 169.14 167.33 170.03 166.49 170.05 165.43 L 170.08 164.43 C 170.11 163.36 169.27 162.48 168.20 162.45 C 167.14 162.42 166.26 163.26 166.23 164.33 Z M 166.21 165.34 L 166.19 166.34 C 166.17 167.40 167.01 168.28 168.07 168.30 C 169.13 168.32 170.00 167.48 170.02 166.42 L 170.05 165.42 C 170.07 164.36 169.23 163.48 168.17 163.46 C 167.11 163.44 166.23 164.28 166.21 165.34 Z M 166.20 166.36 L 166.18 167.36 C 166.17 168.42 167.01 169.28 168.07 169.30 C 169.12 169.31 169.99 168.47 170.00 167.42 L 170.02 166.41 C 170.03 165.36 169.19 164.49 168.13 164.47 C 167.08 164.46 166.21 165.30 166.20 166.36 Z M 166.19 167.38 L 166.19 168.38 C 166.18 169.43 167.02 170.29 168.07 170.29 C 169.12 170.30 169.98 169.46 169.99 168.41 L 170.00 167.40 C 170.00 166.35 169.16 165.50 168.11 165.49 C 167.06 165.48 166.20 166.33 166.19 167.38 Z M 166.19 168.39 L 166.19 169.39 C 166.19 170.43 167.03 171.28 168.08 171.28 C 169.13 171.29 169.98 170.44 169.98 169.40 L 169.98 168.40 C 169.98 167.35 169.14 166.50 168.09 166.50 C 167.05 166.50 166.20 167.34 166.19 168.39 Z M 166.20 169.39 L 166.20 170.38 C 166.20 171.42 167.04 172.27 168.08 172.27 C 169.13 172.27 169.97 171.43 169.97 170.38 L 169.97 169.39 C 169.97 168.35 169.13 167.51 168.09 167.51 C 167.04 167.51 166.20 168.35 166.20 169.39 Z M 166.21 170.38 L 166.21 171.38 C 166.21 172.42 167.05 173.26 168.08 173.26 C 169.12 173.26 169.96 172.42 169.96 171.38 L 169.96 170.38 C 169.96 169.35 169.12 168.51 168.08 168.51 C 167.05 168.51 166.21 169.35 166.21 170.38 Z M 166.21 171.38 L 166.21 172.37 C 166.21 173.41 167.05 174.24 168.08 174.24 C 169.12 174.24 169.95 173.41 169.95 172.37 L 169.95 171.38 C 169.95 170.35 169.12 169.51 168.08 169.51 C 167.05 169.51 166.21 170.35 166.21 171.38 Z M 166.22 172.37 L 166.22 173.38 C 166.22 174.40 167.06 175.24 168.08 175.24 C 169.11 175.24 169.95 174.40 169.95 173.38 L 169.95 172.37 C 169.95 171.35 169.11 170.51 168.08 170.51 C 167.06 170.51 166.22 171.35 166.22 172.37 Z M 166.23 173.38 L 166.23 174.36 C 166.23 175.38 167.06 176.21 168.08 176.21 C 169.11 176.21 169.94 175.38 169.94 174.36 L 169.94 173.38 C 169.94 172.35 169.11 171.52 168.08 171.52 C 167.06 171.52 166.23 172.35 166.23 173.38 Z M 166.24 174.36 L 166.24 175.29 C 166.24 176.31 167.07 177.13 168.08 177.13 C 169.10 177.13 169.93 176.31 169.93 175.29 L 169.93 174.36 C 169.93 173.34 169.10 172.51 168.08 172.51 C 167.07 172.51 166.24 173.34 166.24 174.36 Z M 166.26 175.29 L 166.26 176.27 C 166.26 177.28 167.07 178.09 168.08 178.09 C 169.09 178.09 169.91 177.28 169.91 176.27 L 169.91 175.29 C 169.91 174.28 169.09 173.46 168.08 173.46 C 167.07 173.46 166.26 174.28 166.26 175.29 Z M 166.27 176.27 L 166.27 177.30 C 166.27 178.30 167.08 179.11 168.08 179.11 C 169.09 179.11 169.90 178.30 169.90 177.30 L 169.90 176.27 C 169.90 175.26 169.09 174.45 168.08 174.45 C 167.08 174.45 166.27 175.26 166.27 176.27 Z M 166.28 177.30 L 166.28 178.38 C 166.28 179.37 167.09 180.18 168.08 180.18 C 169.08 180.18 169.89 179.37 169.89 178.38 L 169.89 177.30 C 169.89 176.30 169.08 175.50 168.08 175.50 C 167.09 175.50 166.28 176.30 166.28 177.30 Z M 166.29 178.38 L 166.29 179.35 C 166.29 180.34 167.10 181.14 168.08 181.14 C 169.07 181.14 169.88 180.34 169.88 179.35 L 169.88 178.38 C 169.88 177.39 169.07 176.58 168.08 176.58 C 167.10 176.58 166.29 177.39 166.29 178.38 Z M 166.30 179.35 L 166.30 180.36 C 166.30 181.34 167.10 182.14 168.08 182.14 C 169.07 182.14 169.87 181.34 169.87 180.36 L 169.87 179.35 C 169.87 178.36 169.07 177.57 168.08 177.57 C 167.10 177.57 166.30 178.36 166.30 179.35 Z M 166.31 180.36 L 166.31 181.38 C 166.31 182.36 167.10 183.16 168.08 183.16 C 169.06 183.16 169.86 182.36 169.86 181.38 L 169.86 180.36 C 169.86 179.38 169.06 178.59 168.08 178.59 C 167.10 178.59 166.31 179.38 166.31 180.36 Z M 166.32 181.38 L 166.32 182.40 C 166.32 183.37 167.11 184.16 168.08 184.16 C 169.06 184.16 169.85 183.37 169.85 182.40 L 169.85 181.38 C 169.85 180.41 169.06 179.62 168.08 179.62 C 167.11 179.62 166.32 180.41 166.32 181.38 Z M 166.33 182.40 L 166.33 183.39 C 166.33 184.36 167.11 185.15 168.08 185.15 C 169.05 185.15 169.84 184.36 169.84 183.39 L 169.84 182.40 C 169.84 181.43 169.05 180.64 168.08 180.64 C 167.11 180.64 166.33 181.43 166.33 182.40 Z M 166.34 183.39 L 166.34 184.45 C 166.35 185.41 167.13 186.19 168.09 186.19 C 169.05 186.19 169.83 185.41 169.83 184.45 L 169.83 183.39 C 169.82 182.43 169.04 181.65 168.08 181.65 C 167.12 181.65 166.34 182.43 166.34 183.39 Z M 166.36 184.46 L 166.37 185.47 C 166.38 186.42 167.15 187.19 168.11 187.18 C 169.06 187.18 169.82 186.40 169.82 185.45 L 169.81 184.44 C 169.80 183.49 169.02 182.72 168.07 182.73 C 167.12 182.73 166.36 183.51 166.36 184.46 Z M 166.39 185.49 L 166.41 186.47 C 166.43 187.41 167.21 188.16 168.15 188.14 C 169.09 188.12 169.83 187.34 169.82 186.40 L 169.80 185.43 C 169.78 184.49 169.00 183.74 168.06 183.76 C 167.12 183.78 166.37 184.55 166.39 185.49 Z M 166.43 186.50 L 166.47 187.47 C 166.50 188.40 167.29 189.12 168.22 189.08 C 169.15 189.05 169.87 188.26 169.83 187.33 L 169.80 186.37 C 169.76 185.44 168.98 184.72 168.05 184.75 C 167.12 184.79 166.39 185.57 166.43 186.50 Z M 166.48 187.51 L 166.55 188.48 C 166.60 189.40 167.40 190.10 168.32 190.04 C 169.24 189.98 169.94 189.19 169.88 188.27 L 169.82 187.29 C 169.76 186.37 168.96 185.68 168.04 185.73 C 167.12 185.79 166.43 186.59 166.48 187.51 Z M 166.56 188.52 L 166.64 189.51 C 166.72 190.42 167.53 191.10 168.44 191.02 C 169.36 190.94 170.03 190.13 169.95 189.22 L 169.87 188.23 C 169.79 187.32 168.98 186.64 168.07 186.72 C 167.15 186.80 166.48 187.61 166.56 188.52 Z M 166.65 189.54 L 166.76 190.53 C 166.85 191.44 167.67 192.10 168.57 192.01 C 169.48 191.91 170.14 191.10 170.05 190.19 L 169.94 189.19 C 169.85 188.29 169.03 187.63 168.13 187.72 C 167.22 187.82 166.56 188.63 166.65 189.54 Z M 166.77 190.55 L 166.88 191.55 C 166.99 192.45 167.80 193.10 168.71 192.99 C 169.61 192.89 170.26 192.07 170.15 191.17 L 170.04 190.17 C 169.93 189.27 169.12 188.62 168.21 188.73 C 167.31 188.83 166.66 189.65 166.77 190.55 Z M 166.89 191.56 L 166.99 192.36 C 167.10 193.26 167.91 193.90 168.81 193.79 C 169.71 193.68 170.35 192.87 170.24 191.97 L 170.15 191.16 C 170.04 190.26 169.22 189.62 168.32 189.73 C 167.42 189.84 166.78 190.66 166.89 191.56 Z"
      fill="black"
      fill-rule="nonzero" /></svg>