<svg xmlns="http://www.w3.org/2000/svg" width="300" height="300" viewBox="0 0 300 300">
<path d="M 176.32 115.49 L 175.88 116.36 C 175.44 117.23 175.79 118.29 176.66 118.73 C 177.53 119.17 178.59 118.82 179.03 117.95 L 179.47 117.07 C 179.91 116.20 179.56 115.14 178.69 114.70 C 177.82 114.27 176.76 114.62 176.32 115.49 Z M 175.84 116.30 L 175.38 117.17 C 174.91 118.06 175.25 119.17 176.14 119.64 C 177.03 120.12 178.14 119.77 178.61 118.88 L 179.07 118.01 C 179.55 117.12 179.21 116.01 178.31 115.54 C 177.42 115.06 176.31 115.41 175.84 116.30 Z M 175.36 117.08 L 174.85 117.95 C 174.33 118.86 174.64 120.01 175.54 120.54 C 176.45 121.06 177.60 120.75 178.13 119.85 L 178.63 118.98 C 179.16 118.07 178.85 116.91 177.95 116.39 C 177.04 115.86 175.88 116.17 175.36 117.08 Z M 174.86 117.84 L 174.32 118.66 C 173.73 119.57 173.99 120.77 174.89 121.36 C 175.79 121.95 176.99 121.69 177.58 120.79 L 178.12 119.96 C 178.71 119.06 178.45 117.86 177.55 117.27 C 176.65 116.68 175.45 116.94 174.86 117.84 Z M 174.36 118.57 L 173.81 119.32 C 173.17 120.20 173.37 121.43 174.25 122.07 C 175.13 122.71 176.36 122.52 177.00 121.64 L 177.54 120.89 C 178.18 120.01 177.99 118.78 177.11 118.14 C 176.23 117.50 175.00 117.69 174.36 118.57 Z M 173.85 119.27 L 173.25 120.04 C 172.58 120.89 172.73 122.13 173.59 122.80 C 174.45 123.47 175.68 123.32 176.35 122.46 L 176.95 121.69 C 177.62 120.84 177.47 119.60 176.62 118.93 C 175.76 118.26 174.52 118.41 173.85 119.27 Z M 173.28 120.00 L 172.62 120.80 C 171.93 121.65 172.06 122.89 172.90 123.57 C 173.74 124.26 174.98 124.14 175.67 123.30 L 176.33 122.50 C 177.01 121.65 176.89 120.41 176.05 119.73 C 175.21 119.04 173.97 119.16 173.28 120.00 Z M 172.64 120.79 L 171.94 121.63 C 171.24 122.46 171.35 123.70 172.18 124.40 C 173.02 125.09 174.26 124.98 174.96 124.15 L 175.66 123.31 C 176.35 122.48 176.24 121.24 175.41 120.54 C 174.57 119.84 173.33 119.95 172.64 120.79 Z M 171.94 121.62 L 171.30 122.39 C 170.60 123.22 170.70 124.46 171.54 125.16 C 172.37 125.86 173.61 125.75 174.31 124.92 L 174.95 124.15 C 175.65 123.32 175.54 122.08 174.71 121.38 C 173.88 120.68 172.64 120.79 171.94 121.62 Z M 171.30 122.39 L 170.64 123.17 C 169.94 124.00 170.04 125.24 170.87 125.94 C 171.70 126.64 172.94 126.54 173.64 125.71 L 174.30 124.92 C 175.00 124.09 174.90 122.86 174.07 122.16 C 173.24 121.46 172.00 121.56 171.30 122.39 Z M 170.64 123.17 L 169.98 123.95 C 169.28 124.78 169.38 126.01 170.20 126.72 C 171.02 127.42 172.26 127.32 172.96 126.49 L 173.63 125.71 C 174.33 124.89 174.23 123.65 173.41 122.95 C 172.58 122.25 171.35 122.35 170.64 123.17 Z M 169.99 123.95 L 169.34 124.70 C 168.63 125.52 168.73 126.75 169.54 127.46 C 170.36 128.17 171.60 128.07 172.30 127.25 L 172.95 126.50 C 173.66 125.68 173.57 124.45 172.75 123.74 C 171.93 123.03 170.69 123.13 169.99 123.95 Z M 169.35 124.69 L 168.72 125.42 C 168.01 126.23 168.09 127.46 168.90 128.17 C 169.71 128.88 170.95 128.80 171.66 127.99 L 172.29 127.26 C 173.00 126.45 172.92 125.22 172.11 124.51 C 171.30 123.80 170.06 123.88 169.35 124.69 Z M 168.73 125.40 L 168.01 126.21 C 167.29 127.01 167.36 128.24 168.16 128.96 C 168.96 129.68 170.20 129.61 170.91 128.81 L 171.64 128.00 C 172.36 127.20 172.29 125.97 171.49 125.25 C 170.69 124.53 169.45 124.60 168.73 125.40 Z M 168.03 126.20 L 167.36 126.93 C 166.63 127.72 166.69 128.95 167.48 129.68 C 168.27 130.40 169.50 130.35 170.22 129.56 L 170.90 128.82 C 171.62 128.03 171.57 126.80 170.78 126.08 C 169.99 125.35 168.76 125.40 168.03 126.20 Z M 167.37 126.92 L 166.72 127.62 C 166.00 128.40 166.04 129.63 166.83 130.36 C 167.61 131.09 168.84 131.04 169.57 130.26 L 170.21 129.56 C 170.94 128.78 170.89 127.55 170.11 126.82 C 169.33 126.09 168.10 126.14 167.37 126.92 Z M 166.73 127.62 L 166.09 128.31 C 165.36 129.10 165.41 130.32 166.19 131.05 C 166.97 131.77 168.19 131.73 168.92 130.94 L 169.56 130.25 C 170.29 129.47 170.24 128.25 169.46 127.52 C 168.68 126.80 167.45 126.84 166.73 127.62 Z M 166.09 128.32 L 165.44 129.03 C 164.72 129.81 164.77 131.03 165.55 131.75 C 166.34 132.47 167.56 132.42 168.28 131.64 L 168.92 130.93 C 169.64 130.15 169.59 128.93 168.81 128.21 C 168.03 127.49 166.81 127.54 166.09 128.32 Z M 165.44 129.04 L 164.77 129.77 C 164.06 130.55 164.11 131.77 164.90 132.48 C 165.68 133.20 166.90 133.14 167.61 132.36 L 168.28 131.63 C 168.99 130.84 168.94 129.63 168.15 128.91 C 167.37 128.20 166.15 128.25 165.44 129.04 Z M 164.77 129.78 L 164.08 130.54 C 163.37 131.32 163.43 132.53 164.22 133.24 C 165.00 133.95 166.22 133.89 166.93 133.11 L 167.61 132.35 C 168.32 131.56 168.26 130.35 167.48 129.64 C 166.69 128.93 165.48 128.99 164.77 129.78 Z M 164.08 130.55 L 163.39 131.32 C 162.69 132.10 162.75 133.31 163.54 134.02 C 164.32 134.72 165.53 134.66 166.24 133.87 L 166.93 133.10 C 167.63 132.31 167.57 131.11 166.78 130.40 C 166.00 129.70 164.79 129.76 164.08 130.55 Z M 163.39 131.33 L 162.74 132.06 C 162.04 132.84 162.11 134.05 162.89 134.75 C 163.68 135.45 164.88 135.38 165.58 134.59 L 166.23 133.86 C 166.93 133.08 166.87 131.87 166.08 131.17 C 165.30 130.47 164.09 130.54 163.39 131.33 Z M 162.74 132.06 L 162.08 132.81 C 161.38 133.60 161.45 134.80 162.24 135.49 C 163.02 136.19 164.22 136.12 164.92 135.33 L 165.58 134.59 C 166.28 133.80 166.21 132.60 165.42 131.90 C 164.64 131.21 163.44 131.28 162.74 132.06 Z M 162.08 132.82 L 161.41 133.58 C 160.72 134.36 160.79 135.56 161.57 136.25 C 162.35 136.94 163.55 136.87 164.24 136.09 L 164.91 135.33 C 165.61 134.54 165.53 133.35 164.75 132.66 C 163.97 131.96 162.77 132.04 162.08 132.82 Z M 161.41 133.58 L 160.74 134.34 C 160.05 135.12 160.12 136.32 160.90 137.01 C 161.69 137.70 162.88 137.62 163.57 136.84 L 164.24 136.08 C 164.93 135.30 164.86 134.11 164.07 133.42 C 163.29 132.73 162.10 132.80 161.41 133.58 Z M 160.74 134.35 L 160.08 135.10 C 159.39 135.88 159.46 137.07 160.24 137.76 C 161.02 138.45 162.21 138.37 162.90 137.59 L 163.56 136.84 C 164.25 136.06 164.18 134.87 163.40 134.18 C 162.62 133.49 161.43 133.57 160.74 134.35 Z M 160.08 135.11 L 159.42 135.86 C 158.73 136.64 158.81 137.82 159.59 138.51 C 160.37 139.19 161.55 139.12 162.24 138.34 L 162.90 137.59 C 163.58 136.81 163.50 135.62 162.73 134.94 C 161.95 134.25 160.76 134.33 160.08 135.11 Z M 159.42 135.87 L 158.76 136.62 C 158.08 137.39 158.16 138.58 158.94 139.26 C 159.71 139.94 160.90 139.86 161.58 139.08 L 162.23 138.33 C 162.92 137.55 162.84 136.37 162.06 135.69 C 161.28 135.01 160.10 135.09 159.42 135.87 Z M 158.76 136.62 L 158.11 137.38 C 157.43 138.15 157.51 139.33 158.29 140.01 C 159.07 140.69 160.25 140.61 160.92 139.83 L 161.58 139.08 C 162.25 138.30 162.17 137.12 161.40 136.44 C 160.62 135.76 159.44 135.85 158.76 136.62 Z M 158.11 137.38 L 157.46 138.14 C 156.78 138.91 156.87 140.09 157.65 140.76 C 158.43 141.43 159.60 141.35 160.27 140.57 L 160.92 139.82 C 161.60 139.04 161.51 137.86 160.73 137.19 C 159.95 136.52 158.78 136.61 158.11 137.38 Z M 157.46 138.14 L 156.81 138.89 C 156.15 139.67 156.24 140.84 157.02 141.51 C 157.79 142.18 158.97 142.09 159.64 141.31 L 160.28 140.56 C 160.94 139.78 160.85 138.61 160.07 137.94 C 159.30 137.27 158.12 137.36 157.46 138.14 Z M 156.82 138.90 L 156.17 139.65 C 155.51 140.43 155.60 141.60 156.38 142.27 C 157.16 142.93 158.33 142.84 158.99 142.06 L 159.64 141.30 C 160.30 140.52 160.21 139.35 159.43 138.69 C 158.65 138.03 157.48 138.12 156.82 138.90 Z M 156.17 139.66 L 155.52 140.42 C 154.86 141.20 154.96 142.37 155.73 143.03 C 156.51 143.69 157.68 143.60 158.34 142.82 L 158.99 142.05 C 159.65 141.28 159.56 140.11 158.78 139.45 C 158.00 138.79 156.83 138.88 156.17 139.66 Z M 155.53 140.43 L 154.87 141.20 C 154.21 141.98 154.30 143.14 155.08 143.80 C 155.85 144.46 157.02 144.37 157.68 143.59 L 158.33 142.81 C 158.99 142.04 158.90 140.88 158.12 140.22 C 157.35 139.56 156.19 139.65 155.53 140.43 Z M 154.87 141.20 L 154.23 141.96 C 153.57 142.73 153.66 143.89 154.44 144.55 C 155.21 145.21 156.37 145.11 157.03 144.34 L 157.67 143.59 C 158.33 142.82 158.24 141.65 157.46 141.00 C 156.69 140.34 155.53 140.43 154.87 141.20 Z M 154.23 141.96 L 153.59 142.71 C 152.93 143.48 153.03 144.64 153.80 145.30 C 154.57 145.95 155.73 145.86 156.38 145.09 L 157.02 144.34 C 157.68 143.57 157.59 142.41 156.82 141.75 C 156.05 141.10 154.89 141.19 154.23 141.96 Z M 153.60 142.72 L 152.95 143.48 C 152.29 144.25 152.38 145.40 153.15 146.05 C 153.92 146.71 155.08 146.62 155.73 145.85 L 156.38 145.09 C 157.03 144.32 156.94 143.16 156.17 142.51 C 155.40 141.85 154.25 141.95 153.60 142.72 Z M 152.95 143.48 L 152.29 144.25 C 151.64 145.02 151.74 146.17 152.50 146.82 C 153.27 147.47 154.42 147.38 155.07 146.61 L 155.73 145.84 C 156.38 145.08 156.29 143.93 155.52 143.27 C 154.75 142.62 153.60 142.71 152.95 143.48 Z M 152.30 144.26 L 151.64 145.04 C 150.99 145.80 151.09 146.95 151.85 147.60 C 152.62 148.25 153.77 148.15 154.42 147.38 L 155.07 146.61 C 155.72 145.84 155.63 144.69 154.86 144.04 C 154.09 143.40 152.94 143.49 152.30 144.26 Z M 151.64 145.04 L 151.00 145.80 C 150.36 146.57 150.46 147.71 151.23 148.36 C 151.99 149.00 153.14 148.90 153.78 148.13 L 154.42 147.38 C 155.06 146.61 154.96 145.46 154.19 144.82 C 153.43 144.18 152.28 144.28 151.64 145.04 Z M 151.00 145.81 L 150.37 146.57 C 149.73 147.34 149.83 148.48 150.60 149.12 C 151.37 149.76 152.51 149.65 153.15 148.89 L 153.78 148.12 C 154.42 147.36 154.32 146.22 153.55 145.58 C 152.78 144.94 151.64 145.04 151.00 145.81 Z M 150.37 146.58 L 149.73 147.34 C 149.10 148.11 149.20 149.25 149.97 149.88 C 150.74 150.52 151.87 150.41 152.51 149.65 L 153.15 148.88 C 153.78 148.11 153.68 146.97 152.91 146.34 C 152.14 145.70 151.00 145.81 150.37 146.58 Z M 149.73 147.35 L 149.09 148.13 C 148.46 148.90 148.57 150.03 149.34 150.66 C 150.10 151.29 151.24 151.18 151.87 150.42 L 152.51 149.64 C 153.14 148.87 153.03 147.74 152.27 147.11 C 151.50 146.48 150.36 146.58 149.73 147.35 Z M 149.09 148.14 L 148.45 148.92 C 147.82 149.69 147.93 150.82 148.70 151.45 C 149.47 152.07 150.60 151.96 151.23 151.20 L 151.87 150.41 C 152.50 149.64 152.39 148.51 151.62 147.88 C 150.85 147.26 149.72 147.37 149.09 148.14 Z M 148.45 148.93 L 147.84 149.68 C 147.21 150.45 147.33 151.57 148.09 152.20 C 148.86 152.82 149.99 152.71 150.61 151.94 L 151.23 151.19 C 151.85 150.42 151.74 149.30 150.97 148.67 C 150.20 148.05 149.08 148.16 148.45 148.93 Z M 147.84 149.68 L 147.22 150.44 C 146.60 151.21 146.72 152.33 147.48 152.95 C 148.25 153.58 149.37 153.46 150.00 152.69 L 150.61 151.94 C 151.23 151.17 151.12 150.05 150.35 149.42 C 149.59 148.80 148.46 148.92 147.84 149.68 Z M 147.23 150.44 L 146.60 151.21 C 145.98 151.98 146.10 153.10 146.86 153.72 C 147.63 154.34 148.75 154.22 149.37 153.46 L 149.99 152.69 C 150.61 151.93 150.50 150.80 149.73 150.18 C 148.97 149.56 147.85 149.68 147.23 150.44 Z M 146.61 151.22 L 145.97 152.00 C 145.35 152.76 145.47 153.88 146.23 154.50 C 146.99 155.12 148.11 155.00 148.73 154.24 L 149.36 153.46 C 149.98 152.70 149.87 151.58 149.11 150.96 C 148.34 150.34 147.22 150.45 146.61 151.22 Z M 145.97 152.00 L 145.32 152.80 C 144.70 153.56 144.82 154.68 145.58 155.30 C 146.34 155.91 147.45 155.80 148.07 155.04 L 148.72 154.24 C 149.34 153.48 149.23 152.36 148.47 151.75 C 147.71 151.13 146.59 151.24 145.97 152.00 Z M 145.33 152.80 L 144.69 153.58 C 144.07 154.34 144.18 155.45 144.94 156.07 C 145.69 156.69 146.81 156.58 147.43 155.82 L 148.07 155.04 C 148.69 154.28 148.57 153.17 147.82 152.55 C 147.06 151.93 145.95 152.04 145.33 152.80 Z M 144.69 153.58 L 144.06 154.35 C 143.44 155.10 143.55 156.21 144.31 156.83 C 145.06 157.45 146.17 157.34 146.79 156.59 L 147.42 155.82 C 148.04 155.07 147.93 153.96 147.18 153.34 C 146.42 152.72 145.31 152.83 144.69 153.58 Z M 144.07 154.35 L 143.43 155.12 C 142.81 155.87 142.92 156.98 143.67 157.60 C 144.42 158.22 145.53 158.11 146.15 157.36 L 146.79 156.59 C 147.41 155.84 147.30 154.73 146.55 154.11 C 145.80 153.49 144.69 153.60 144.07 154.35 Z M 143.44 155.12 L 142.79 155.90 C 142.17 156.65 142.28 157.75 143.03 158.37 C 143.77 158.99 144.88 158.89 145.50 158.14 L 146.14 157.36 C 146.76 156.61 146.66 155.51 145.91 154.89 C 145.16 154.27 144.06 154.37 143.44 155.12 Z M 142.80 155.90 L 142.15 156.68 C 141.54 157.42 141.64 158.52 142.38 159.14 C 143.13 159.76 144.23 159.66 144.85 158.92 L 145.49 158.14 C 146.11 157.39 146.01 156.29 145.27 155.67 C 144.52 155.05 143.42 155.15 142.80 155.90 Z M 142.16 156.68 L 141.52 157.45 C 140.90 158.19 141.00 159.29 141.74 159.91 C 142.48 160.53 143.58 160.43 144.20 159.69 L 144.85 158.91 C 145.46 158.17 145.36 157.07 144.62 156.45 C 143.88 155.83 142.78 155.93 142.16 156.68 Z M 141.52 157.45 L 140.87 158.22 C 140.25 158.96 140.35 160.06 141.09 160.68 C 141.83 161.30 142.93 161.20 143.55 160.46 L 144.20 159.68 C 144.82 158.95 144.72 157.85 143.98 157.23 C 143.24 156.61 142.14 156.71 141.52 157.45 Z M 140.88 158.22 L 140.23 158.99 C 139.61 159.73 139.71 160.83 140.44 161.45 C 141.18 162.07 142.28 161.97 142.90 161.23 L 143.55 160.46 C 144.16 159.72 144.07 158.62 143.33 158.01 C 142.59 157.39 141.49 157.49 140.88 158.22 Z M 140.23 158.99 L 139.59 159.76 C 138.97 160.49 139.07 161.59 139.80 162.21 C 140.54 162.83 141.63 162.73 142.25 162.00 L 142.89 161.23 C 143.51 160.50 143.42 159.40 142.68 158.78 C 141.95 158.16 140.85 158.26 140.23 158.99 Z M 139.59 159.76 L 138.95 160.52 C 138.33 161.25 138.43 162.35 139.16 162.97 C 139.89 163.58 140.99 163.49 141.61 162.76 L 142.25 162.00 C 142.87 161.26 142.77 160.17 142.04 159.55 C 141.31 158.93 140.21 159.03 139.59 159.76 Z M 138.96 160.52 L 138.32 161.28 C 137.70 162.01 137.79 163.10 138.52 163.72 C 139.25 164.34 140.35 164.25 140.96 163.51 L 141.60 162.76 C 142.22 162.02 142.13 160.93 141.40 160.31 C 140.67 159.70 139.57 159.79 138.96 160.52 Z M 138.32 161.28 L 137.68 162.04 C 137.06 162.77 137.15 163.86 137.88 164.48 C 138.61 165.09 139.70 165.00 140.32 164.27 L 140.96 163.51 C 141.58 162.78 141.49 161.69 140.76 161.07 C 140.03 160.46 138.94 160.55 138.32 161.28 Z M 137.68 162.04 L 137.04 162.80 C 136.42 163.53 136.51 164.62 137.24 165.23 C 137.97 165.85 139.06 165.76 139.68 165.03 L 140.32 164.27 C 140.93 163.54 140.84 162.45 140.11 161.84 C 139.39 161.22 138.30 161.31 137.68 162.04 Z M 137.04 162.80 L 136.40 163.56 C 135.78 164.28 135.87 165.37 136.59 165.99 C 137.32 166.61 138.41 166.52 139.03 165.79 L 139.67 165.03 C 140.29 164.30 140.20 163.21 139.47 162.60 C 138.75 161.98 137.66 162.07 137.04 162.80 Z M 136.40 163.55 L 135.75 164.32 C 135.13 165.04 135.22 166.13 135.94 166.75 C 136.67 167.36 137.76 167.28 138.37 166.55 L 139.02 165.79 C 139.64 165.07 139.55 163.98 138.83 163.36 C 138.11 162.74 137.02 162.83 136.40 163.55 Z M 135.76 164.31 L 135.10 165.07 C 134.48 165.80 134.57 166.88 135.29 167.50 C 136.01 168.12 137.10 168.04 137.71 167.32 L 138.37 166.56 C 138.99 165.83 138.90 164.75 138.18 164.13 C 137.46 163.51 136.38 163.59 135.76 164.31 Z M 135.11 165.07 L 134.45 165.83 C 133.83 166.55 133.91 167.63 134.63 168.25 C 135.34 168.87 136.43 168.80 137.05 168.08 L 137.71 167.32 C 138.33 166.60 138.25 165.52 137.53 164.90 C 136.82 164.28 135.73 164.35 135.11 165.07 Z M 134.46 165.82 L 133.80 166.58 C 133.17 167.29 133.25 168.38 133.96 169.00 C 134.67 169.63 135.76 169.55 136.38 168.84 L 137.04 168.08 C 137.67 167.37 137.59 166.29 136.88 165.66 C 136.17 165.04 135.08 165.11 134.46 165.82 Z M 133.81 166.58 L 133.14 167.33 C 132.51 168.04 132.58 169.12 133.29 169.75 C 134.00 170.37 135.08 170.31 135.71 169.60 L 136.37 168.85 C 137.00 168.14 136.93 167.05 136.23 166.43 C 135.52 165.80 134.43 165.87 133.81 166.58 Z M 133.15 167.32 L 132.48 168.07 C 131.85 168.78 131.91 169.86 132.62 170.49 C 133.33 171.12 134.41 171.06 135.04 170.35 L 135.70 169.60 C 136.33 168.89 136.27 167.81 135.56 167.18 C 134.86 166.55 133.78 166.62 133.15 167.32 Z M 132.48 168.07 L 131.82 168.82 C 131.19 169.52 131.25 170.60 131.95 171.23 C 132.66 171.86 133.74 171.80 134.37 171.10 L 135.03 170.35 C 135.66 169.65 135.60 168.56 134.90 167.93 C 134.20 167.30 133.11 167.36 132.48 168.07 Z M 131.82 168.82 L 131.15 169.56 C 130.52 170.26 130.58 171.34 131.29 171.97 C 131.99 172.60 133.07 172.54 133.70 171.84 L 134.37 171.10 C 135.00 170.39 134.94 169.31 134.23 168.68 C 133.53 168.05 132.45 168.11 131.82 168.82 Z M 131.15 169.56 L 130.49 170.30 C 129.86 171.01 129.92 172.09 130.62 172.72 C 131.33 173.34 132.41 173.28 133.03 172.58 L 133.70 171.84 C 134.33 171.13 134.27 170.06 133.56 169.43 C 132.86 168.80 131.78 168.86 131.15 169.56 Z M 130.49 170.31 L 129.81 171.07 C 129.19 171.77 129.25 172.85 129.95 173.47 C 130.66 174.10 131.74 174.04 132.36 173.33 L 133.04 172.58 C 133.66 171.87 133.60 170.79 132.90 170.17 C 132.19 169.54 131.11 169.60 130.49 170.31 Z M 129.81 171.07 L 129.14 171.83 C 128.51 172.54 128.58 173.62 129.28 174.24 C 129.99 174.86 131.07 174.80 131.69 174.09 L 132.36 173.33 C 132.99 172.62 132.92 171.55 132.22 170.92 C 131.51 170.30 130.44 170.37 129.81 171.07 Z M 129.14 171.84 L 128.47 172.60 C 127.84 173.30 127.91 174.38 128.62 175.00 C 129.32 175.62 130.40 175.55 131.02 174.85 L 131.69 174.09 C 132.31 173.38 132.24 172.31 131.54 171.69 C 130.83 171.06 129.76 171.13 129.14 171.84 Z M 128.47 172.60 L 127.81 173.35 C 127.19 174.05 127.25 175.13 127.96 175.75 C 128.66 176.37 129.74 176.30 130.36 175.60 L 131.02 174.85 C 131.64 174.14 131.57 173.07 130.87 172.45 C 130.16 171.82 129.09 171.89 128.47 172.60 Z M 127.81 173.35 L 127.16 174.09 C 126.54 174.79 126.61 175.87 127.31 176.49 C 128.01 177.11 129.09 177.04 129.71 176.33 L 130.36 175.59 C 130.98 174.89 130.91 173.82 130.21 173.20 C 129.50 172.58 128.43 172.65 127.81 173.35 Z M 127.16 174.09 L 126.52 174.81 C 125.90 175.52 125.97 176.59 126.67 177.21 C 127.37 177.83 128.45 177.76 129.07 177.06 L 129.71 176.33 C 130.32 175.63 130.26 174.56 129.55 173.94 C 128.85 173.32 127.78 173.39 127.16 174.09 Z M 126.52 174.81 L 125.90 175.52 C 125.28 176.22 125.34 177.29 126.04 177.92 C 126.74 178.54 127.82 178.47 128.44 177.77 L 129.06 177.06 C 129.68 176.36 129.62 175.29 128.92 174.67 C 128.21 174.05 127.14 174.11 126.52 174.81 Z M 125.90 175.52 L 125.27 176.23 C 124.65 176.93 124.72 178.00 125.42 178.62 C 126.12 179.24 127.19 179.18 127.81 178.48 L 128.43 177.77 C 129.05 177.07 128.99 176.00 128.29 175.38 C 127.59 174.76 126.52 174.82 125.90 175.52 Z M 125.27 176.24 L 124.63 176.96 C 124.01 177.66 124.08 178.73 124.78 179.35 C 125.48 179.97 126.55 179.90 127.17 179.20 L 127.81 178.47 C 128.42 177.77 128.36 176.70 127.66 176.09 C 126.96 175.47 125.89 175.54 125.27 176.24 Z M 124.63 176.97 L 123.96 177.73 C 123.35 178.43 123.42 179.49 124.12 180.11 C 124.82 180.72 125.89 180.65 126.50 179.95 L 127.17 179.19 C 127.78 178.49 127.71 177.43 127.01 176.81 C 126.31 176.20 125.24 176.27 124.63 176.97 Z M 123.96 177.73 L 123.26 178.54 C 122.65 179.24 122.72 180.31 123.42 180.92 C 124.13 181.53 125.19 181.45 125.80 180.75 L 126.50 179.94 C 127.12 179.24 127.04 178.18 126.34 177.57 C 125.64 176.96 124.57 177.03 123.96 177.73 Z M 123.26 178.55 L 122.56 179.36 C 121.95 180.06 122.03 181.12 122.73 181.73 C 123.44 182.34 124.50 182.26 125.11 181.56 L 125.81 180.74 C 126.41 180.04 126.33 178.98 125.63 178.37 C 124.93 177.76 123.86 177.84 123.26 178.55 Z M 122.55 179.37 L 121.87 180.17 C 121.27 180.88 121.36 181.94 122.07 182.54 C 122.77 183.14 123.83 183.05 124.43 182.34 L 125.11 181.54 C 125.71 180.83 125.63 179.77 124.92 179.17 C 124.21 178.57 123.15 178.66 122.55 179.37 Z M 121.86 180.19 L 121.18 181.02 C 120.59 181.74 120.69 182.79 121.41 183.38 C 122.13 183.97 123.18 183.86 123.77 183.15 L 124.45 182.32 C 125.04 181.60 124.93 180.55 124.22 179.96 C 123.50 179.37 122.44 179.48 121.86 180.19 Z M 121.15 181.05 L 120.50 181.89 C 119.94 182.62 120.07 183.67 120.80 184.24 C 121.52 184.81 122.58 184.68 123.15 183.95 L 123.80 183.11 C 124.36 182.38 124.23 181.33 123.50 180.76 C 122.77 180.19 121.72 180.32 121.15 181.05 Z M 120.47 181.94 L 119.88 182.76 C 119.34 183.51 119.50 184.55 120.25 185.09 C 121.00 185.63 122.05 185.47 122.59 184.72 L 123.18 183.90 C 123.72 183.15 123.55 182.10 122.80 181.56 C 122.05 181.02 121.01 181.19 120.47 181.94 Z M 119.83 182.84 L 119.32 183.63 C 118.82 184.40 119.05 185.43 119.82 185.93 C 120.60 186.43 121.63 186.21 122.13 185.43 L 122.64 184.64 C 123.13 183.86 122.91 182.83 122.13 182.33 C 121.36 181.84 120.33 182.06 119.83 182.84 Z M 119.25 183.75 L 118.83 184.54 C 118.40 185.35 118.72 186.36 119.53 186.79 C 120.34 187.22 121.35 186.91 121.78 186.09 L 122.20 185.31 C 122.63 184.49 122.32 183.48 121.50 183.06 C 120.69 182.63 119.68 182.94 119.25 183.75 Z M 118.73 184.80 L 118.36 185.91 C 118.08 186.78 118.55 187.72 119.43 188.01 C 120.30 188.29 121.24 187.82 121.52 186.95 L 121.89 185.83 C 122.17 184.96 121.70 184.02 120.83 183.74 C 119.95 183.45 119.02 183.93 118.73 184.80 Z M 118.29 186.29 L 118.22 187.27 C 118.14 188.18 118.82 188.98 119.73 189.05 C 120.64 189.12 121.44 188.44 121.52 187.53 L 121.59 186.56 C 121.67 185.65 120.99 184.85 120.08 184.78 C 119.17 184.70 118.37 185.38 118.29 186.29 Z M 118.23 187.58 L 118.33 188.47 C 118.43 189.37 119.24 190.02 120.15 189.92 C 121.05 189.82 121.71 189.00 121.60 188.10 L 121.50 187.21 C 121.40 186.31 120.59 185.66 119.68 185.76 C 118.78 185.86 118.12 186.68 118.23 187.58 Z M 118.35 188.60 L 118.46 189.17 C 118.64 190.06 119.50 190.64 120.40 190.46 C 121.29 190.28 121.87 189.42 121.69 188.53 L 121.58 187.96 C 121.40 187.07 120.54 186.49 119.65 186.67 C 118.75 186.85 118.18 187.71 118.35 188.60 Z"
      fill="black"
      fill-rule="nonzero" /><path d="M 118.39 131.66 L 117.09 131.24 C 116.13 130.92 115.10 131.44 114.79 132.40 C 114.48 133.35 115.00 134.38 115.95 134.70 L 117.25 135.12 C 118.21 135.44 119.24 134.92 119.55 133.96 C 119.87 133.01 119.35 131.98 118.39 131.66 Z M 117.25 131.21 L 116.45 130.88 C 115.48 130.48 114.37 130.94 113.96 131.91 C 113.56 132.88 114.02 133.99 114.99 134.39 L 115.79 134.72 C 116.76 135.13 117.88 134.66 118.28 133.69 C 118.68 132.72 118.22 131.61 117.25 131.21 Z M 117.09 134.05 L 117.23 133.91 C 118.02 133.16 118.04 131.91 117.28 131.13 C 116.53 130.34 115.28 130.32 114.50 131.08 L 114.35 131.22 C 113.57 131.97 113.55 133.22 114.30 134.00 C 115.06 134.79 116.31 134.81 117.09 134.05 Z M 115.74 134.51 L 116.70 134.56 C 117.82 134.63 118.77 133.78 118.84 132.67 C 118.90 131.56 118.06 130.61 116.95 130.54 L 115.99 130.49 C 114.88 130.42 113.92 131.26 113.86 132.37 C 113.79 133.48 114.63 134.44 115.74 134.51 Z M 116.49 134.57 L 117.85 134.80 C 118.97 134.99 120.02 134.24 120.21 133.12 C 120.40 132.01 119.64 130.95 118.53 130.76 L 117.16 130.53 C 116.05 130.35 114.99 131.10 114.81 132.21 C 114.62 133.33 115.37 134.39 116.49 134.57 Z M 117.70 134.79 L 118.59 135.01 C 119.71 135.28 120.82 134.59 121.09 133.48 C 121.36 132.37 120.68 131.25 119.57 130.99 L 118.68 130.77 C 117.56 130.50 116.45 131.18 116.18 132.30 C 115.91 133.41 116.59 134.53 117.70 134.79 Z M 118.50 134.99 L 119.42 135.26 C 120.52 135.58 121.68 134.95 122.00 133.85 C 122.32 132.75 121.69 131.59 120.58 131.27 L 119.66 131.00 C 118.56 130.68 117.41 131.31 117.09 132.42 C 116.76 133.52 117.40 134.67 118.50 134.99 Z M 119.35 135.25 L 120.31 135.57 C 121.40 135.93 122.58 135.33 122.95 134.24 C 123.31 133.15 122.72 131.97 121.62 131.60 L 120.66 131.28 C 119.56 130.92 118.38 131.52 118.02 132.61 C 117.66 133.70 118.25 134.88 119.35 135.25 Z M 120.26 135.56 L 121.27 135.92 C 122.36 136.31 123.56 135.75 123.95 134.66 C 124.34 133.57 123.78 132.37 122.69 131.98 L 121.68 131.61 C 120.59 131.22 119.39 131.79 119.00 132.87 C 118.60 133.96 119.17 135.16 120.26 135.56 Z M 121.23 135.92 L 122.20 136.28 C 123.29 136.69 124.50 136.15 124.91 135.06 C 125.32 133.98 124.78 132.77 123.69 132.35 L 122.73 131.99 C 121.64 131.57 120.43 132.12 120.02 133.20 C 119.60 134.29 120.15 135.50 121.23 135.92 Z M 122.18 136.28 L 123.13 136.65 C 124.22 137.08 125.44 136.55 125.86 135.46 C 126.29 134.38 125.76 133.16 124.67 132.73 L 123.72 132.36 C 122.63 131.93 121.41 132.47 120.99 133.55 C 120.56 134.63 121.10 135.85 122.18 136.28 Z M 123.12 136.65 L 124.08 137.04 C 125.16 137.47 126.38 136.95 126.82 135.87 C 127.25 134.78 126.73 133.56 125.65 133.12 L 124.69 132.74 C 123.61 132.30 122.38 132.83 121.95 133.91 C 121.51 134.99 122.04 136.22 123.12 136.65 Z M 124.06 137.03 L 124.99 137.42 C 126.07 137.86 127.31 137.34 127.75 136.26 C 128.19 135.18 127.68 133.95 126.60 133.51 L 125.66 133.12 C 124.58 132.68 123.35 133.20 122.91 134.28 C 122.46 135.36 122.98 136.59 124.06 137.03 Z M 124.98 137.42 L 125.86 137.78 C 126.94 138.23 128.18 137.72 128.63 136.64 C 129.08 135.56 128.57 134.32 127.49 133.87 L 126.61 133.51 C 125.53 133.06 124.29 133.57 123.84 134.65 C 123.39 135.73 123.90 136.97 124.98 137.42 Z M 125.85 137.78 L 126.85 138.20 C 127.93 138.65 129.17 138.15 129.63 137.07 C 130.08 135.99 129.57 134.75 128.49 134.29 L 127.50 133.87 C 126.42 133.42 125.18 133.93 124.72 135.00 C 124.27 136.08 124.77 137.33 125.85 137.78 Z M 126.84 138.20 L 127.78 138.60 C 128.86 139.06 130.11 138.56 130.57 137.49 C 131.03 136.41 130.53 135.16 129.45 134.70 L 128.51 134.30 C 127.43 133.84 126.18 134.33 125.72 135.41 C 125.26 136.49 125.76 137.74 126.84 138.20 Z M 127.77 138.60 L 128.64 138.98 C 129.72 139.45 130.97 138.95 131.43 137.88 C 131.90 136.80 131.41 135.55 130.34 135.09 L 129.47 134.71 C 128.39 134.24 127.14 134.73 126.67 135.80 C 126.20 136.88 126.70 138.13 127.77 138.60 Z M 128.63 138.97 L 129.47 139.34 C 130.54 139.82 131.79 139.34 132.27 138.26 C 132.74 137.19 132.26 135.94 131.19 135.46 L 130.35 135.09 C 129.28 134.61 128.02 135.10 127.55 136.17 C 127.07 137.24 127.56 138.50 128.63 138.97 Z M 129.45 139.34 L 130.33 139.74 C 131.40 140.22 132.66 139.74 133.14 138.67 C 133.62 137.60 133.15 136.34 132.08 135.86 L 131.20 135.47 C 130.13 134.98 128.87 135.46 128.39 136.53 C 127.91 137.60 128.38 138.86 129.45 139.34 Z M 130.32 139.73 L 131.21 140.14 C 132.28 140.63 133.54 140.16 134.03 139.10 C 134.52 138.03 134.05 136.77 132.99 136.28 L 132.09 135.87 C 131.02 135.38 129.76 135.84 129.27 136.91 C 128.78 137.98 129.25 139.24 130.32 139.73 Z M 131.20 140.13 L 132.12 140.57 C 133.18 141.07 134.45 140.61 134.95 139.55 C 135.45 138.48 134.99 137.22 133.93 136.72 L 133.00 136.29 C 131.94 135.79 130.67 136.24 130.18 137.31 C 129.68 138.37 130.13 139.64 131.20 140.13 Z M 132.10 140.56 L 133.02 141.00 C 134.08 141.51 135.35 141.06 135.86 140.00 C 136.37 138.94 135.92 137.67 134.86 137.17 L 133.95 136.73 C 132.89 136.22 131.62 136.66 131.11 137.72 C 130.60 138.78 131.05 140.05 132.10 140.56 Z M 133.00 140.99 L 133.89 141.43 C 134.94 141.94 136.22 141.51 136.74 140.45 C 137.25 139.40 136.82 138.12 135.76 137.61 L 134.88 137.17 C 133.82 136.66 132.55 137.09 132.03 138.15 C 131.51 139.20 131.95 140.48 133.00 140.99 Z M 133.88 141.42 L 134.78 141.87 C 135.83 142.40 137.11 141.97 137.63 140.92 C 138.16 139.87 137.73 138.59 136.68 138.07 L 135.78 137.62 C 134.73 137.09 133.45 137.52 132.92 138.57 C 132.40 139.62 132.83 140.89 133.88 141.42 Z M 134.76 141.86 L 135.67 142.32 C 136.71 142.86 138.00 142.44 138.53 141.39 C 139.06 140.35 138.64 139.07 137.60 138.53 L 136.69 138.07 C 135.65 137.54 134.37 137.96 133.83 139.00 C 133.30 140.05 133.72 141.33 134.76 141.86 Z M 135.65 142.32 L 136.54 142.78 C 137.59 143.32 138.87 142.91 139.41 141.87 C 139.95 140.82 139.54 139.54 138.50 139.00 L 137.61 138.54 C 136.57 138.00 135.28 138.41 134.74 139.45 C 134.20 140.49 134.61 141.78 135.65 142.32 Z M 136.53 142.77 L 137.40 143.23 C 138.44 143.78 139.72 143.38 140.27 142.34 C 140.82 141.31 140.43 140.02 139.39 139.47 L 138.52 139.01 C 137.48 138.46 136.19 138.86 135.64 139.90 C 135.10 140.93 135.49 142.22 136.53 142.77 Z M 137.38 143.22 L 138.25 143.69 C 139.28 144.25 140.57 143.87 141.13 142.84 C 141.69 141.81 141.31 140.52 140.28 139.96 L 139.41 139.48 C 138.38 138.92 137.09 139.31 136.53 140.34 C 135.97 141.37 136.35 142.66 137.38 143.22 Z M 138.23 143.68 L 139.11 144.17 C 140.13 144.74 141.42 144.38 142.00 143.35 C 142.57 142.33 142.20 141.04 141.18 140.47 L 140.30 139.97 C 139.28 139.40 137.99 139.76 137.41 140.79 C 136.84 141.81 137.21 143.10 138.23 143.68 Z M 139.08 144.15 L 139.95 144.65 C 140.96 145.24 142.26 144.90 142.85 143.88 C 143.43 142.87 143.09 141.57 142.07 140.98 L 141.21 140.48 C 140.19 139.89 138.90 140.24 138.31 141.25 C 137.72 142.27 138.07 143.56 139.08 144.15 Z M 139.93 144.64 L 140.76 145.14 C 141.77 145.74 143.07 145.41 143.67 144.40 C 144.27 143.40 143.94 142.10 142.94 141.50 L 142.10 141.00 C 141.09 140.40 139.79 140.73 139.19 141.73 C 138.59 142.74 138.92 144.04 139.93 144.64 Z M 140.74 145.12 L 141.60 145.65 C 142.59 146.26 143.90 145.94 144.51 144.94 C 145.12 143.95 144.80 142.64 143.81 142.03 L 142.95 141.51 C 141.96 140.90 140.65 141.22 140.04 142.21 C 139.43 143.21 139.75 144.52 140.74 145.12 Z M 141.58 145.63 L 142.44 146.17 C 143.43 146.79 144.74 146.49 145.36 145.50 C 145.98 144.50 145.67 143.20 144.68 142.58 L 143.82 142.05 C 142.83 141.43 141.52 141.73 140.91 142.72 C 140.29 143.71 140.59 145.02 141.58 145.63 Z M 142.43 146.16 L 143.30 146.71 C 144.28 147.34 145.59 147.04 146.21 146.06 C 146.84 145.07 146.55 143.76 145.56 143.14 L 144.69 142.59 C 143.71 141.97 142.40 142.26 141.78 143.25 C 141.15 144.23 141.45 145.54 142.43 146.16 Z M 143.29 146.70 L 144.12 147.24 C 145.10 147.87 146.41 147.58 147.04 146.60 C 147.67 145.62 147.38 144.31 146.40 143.68 L 145.57 143.15 C 144.59 142.52 143.28 142.80 142.65 143.79 C 142.02 144.77 142.31 146.07 143.29 146.70 Z M 144.11 147.23 L 144.95 147.77 C 145.92 148.40 147.23 148.13 147.86 147.15 C 148.50 146.17 148.22 144.87 147.24 144.23 L 146.41 143.69 C 145.43 143.06 144.13 143.33 143.49 144.31 C 142.86 145.29 143.14 146.59 144.11 147.23 Z M 144.94 147.76 L 145.77 148.31 C 146.74 148.95 148.05 148.68 148.69 147.71 C 149.33 146.74 149.06 145.43 148.09 144.79 L 147.25 144.24 C 146.28 143.60 144.97 143.87 144.33 144.84 C 143.69 145.81 143.96 147.12 144.94 147.76 Z M 145.76 148.30 L 146.60 148.86 C 147.57 149.51 148.87 149.24 149.52 148.28 C 150.16 147.31 149.90 146.00 148.94 145.36 L 148.10 144.80 C 147.13 144.15 145.82 144.41 145.18 145.38 C 144.53 146.35 144.79 147.66 145.76 148.30 Z M 146.59 148.85 L 147.42 149.41 C 148.38 150.07 149.69 149.81 150.34 148.85 C 150.99 147.89 150.74 146.58 149.78 145.93 L 148.95 145.37 C 147.98 144.72 146.68 144.97 146.03 145.93 C 145.37 146.89 145.63 148.20 146.59 148.85 Z M 147.41 149.41 L 148.23 149.96 C 149.18 150.62 150.49 150.38 151.15 149.42 C 151.80 148.46 151.56 147.15 150.60 146.50 L 149.79 145.94 C 148.83 145.28 147.52 145.53 146.87 146.48 C 146.21 147.44 146.46 148.75 147.41 149.41 Z M 148.22 149.96 L 149.04 150.52 C 149.99 151.19 151.30 150.95 151.96 150.00 C 152.62 149.04 152.38 147.74 151.43 147.08 L 150.61 146.51 C 149.66 145.85 148.35 146.08 147.69 147.03 C 147.03 147.99 147.27 149.29 148.22 149.96 Z M 149.03 150.52 L 149.85 151.09 C 150.80 151.76 152.11 151.53 152.77 150.58 C 153.44 149.63 153.21 148.33 152.26 147.66 L 151.44 147.08 C 150.49 146.42 149.18 146.65 148.52 147.59 C 147.85 148.54 148.08 149.85 149.03 150.52 Z M 149.84 151.09 L 150.67 151.67 C 151.61 152.34 152.92 152.12 153.59 151.17 C 154.26 150.23 154.04 148.92 153.09 148.25 L 152.27 147.67 C 151.33 147.00 150.02 147.22 149.35 148.16 C 148.68 149.11 148.90 150.42 149.84 151.09 Z M 150.66 151.66 L 151.47 152.24 C 152.41 152.91 153.71 152.70 154.39 151.76 C 155.06 150.82 154.85 149.51 153.91 148.84 L 153.10 148.26 C 152.16 147.59 150.85 147.80 150.18 148.74 C 149.51 149.68 149.72 150.99 150.66 151.66 Z M 151.46 152.23 L 152.25 152.81 C 153.19 153.48 154.50 153.27 155.17 152.33 C 155.85 151.40 155.64 150.09 154.70 149.42 L 153.91 148.84 C 152.97 148.17 151.67 148.38 150.99 149.32 C 150.32 150.25 150.53 151.56 151.46 152.23 Z M 152.25 152.80 L 153.05 153.38 C 153.98 154.06 155.29 153.85 155.97 152.92 C 156.64 151.98 156.44 150.68 155.50 150.00 L 154.70 149.42 C 153.77 148.74 152.46 148.95 151.79 149.88 C 151.11 150.82 151.32 152.12 152.25 152.80 Z M 153.05 153.38 L 153.86 153.97 C 154.79 154.64 156.10 154.44 156.77 153.51 C 157.45 152.57 157.25 151.27 156.31 150.59 L 155.50 150.00 C 154.57 149.33 153.27 149.53 152.59 150.46 C 151.91 151.40 152.12 152.70 153.05 153.38 Z M 153.86 153.97 L 154.69 154.57 C 155.62 155.24 156.93 155.04 157.60 154.11 C 158.28 153.17 158.07 151.87 157.14 151.20 L 156.31 150.59 C 155.38 149.92 154.08 150.12 153.40 151.06 C 152.72 151.99 152.93 153.29 153.86 153.97 Z M 154.70 154.57 L 155.52 155.17 C 156.45 155.84 157.75 155.63 158.43 154.70 C 159.10 153.77 158.89 152.47 157.96 151.79 L 157.14 151.20 C 156.20 150.52 154.90 150.73 154.23 151.66 C 153.56 152.59 153.76 153.89 154.70 154.57 Z M 155.53 155.16 L 156.34 155.75 C 157.27 156.42 158.57 156.21 159.24 155.28 C 159.91 154.35 159.70 153.05 158.77 152.38 L 157.96 151.79 C 157.03 151.12 155.73 151.33 155.06 152.26 C 154.38 153.19 154.59 154.49 155.53 155.16 Z M 156.34 155.75 L 157.16 156.34 C 158.09 157.01 159.39 156.80 160.06 155.87 C 160.73 154.94 160.52 153.64 159.58 152.97 L 158.77 152.38 C 157.84 151.71 156.54 151.92 155.87 152.85 C 155.20 153.78 155.41 155.08 156.34 155.75 Z M 157.16 156.33 L 157.98 156.93 C 158.91 157.60 160.20 157.39 160.87 156.46 C 161.54 155.53 161.33 154.24 160.41 153.57 L 159.58 152.97 C 158.66 152.30 157.36 152.51 156.69 153.44 C 156.02 154.37 156.23 155.66 157.16 156.33 Z M 157.98 156.92 L 158.79 157.51 C 159.71 158.18 161.01 157.98 161.68 157.05 C 162.35 156.12 162.14 154.83 161.22 154.16 L 160.41 153.57 C 159.48 152.90 158.19 153.11 157.52 154.03 C 156.84 154.96 157.05 156.25 157.98 156.92 Z M 158.78 157.50 L 159.58 158.08 C 160.50 158.76 161.79 158.56 162.47 157.63 C 163.14 156.71 162.94 155.42 162.02 154.75 L 161.22 154.17 C 160.30 153.49 159.01 153.69 158.33 154.61 C 157.66 155.54 157.86 156.83 158.78 157.50 Z M 159.57 158.07 L 160.41 158.69 C 161.32 159.37 162.61 159.17 163.29 158.26 C 163.97 157.34 163.77 156.05 162.86 155.37 L 162.02 154.76 C 161.11 154.08 159.81 154.27 159.14 155.19 C 158.46 156.11 158.65 157.40 159.57 158.07 Z M 160.40 158.68 L 161.21 159.29 C 162.12 159.97 163.41 159.78 164.09 158.87 C 164.77 157.96 164.59 156.66 163.67 155.98 L 162.86 155.38 C 161.95 154.70 160.66 154.89 159.98 155.80 C 159.30 156.71 159.49 158.00 160.40 158.68 Z M 161.21 159.28 L 162.00 159.88 C 162.91 160.56 164.20 160.37 164.88 159.46 C 165.56 158.55 165.38 157.27 164.47 156.59 L 163.68 155.99 C 162.77 155.31 161.48 155.49 160.80 156.40 C 160.12 157.31 160.30 158.60 161.21 159.28 Z M 162.01 159.87 L 162.79 160.46 C 163.70 161.14 164.98 160.96 165.66 160.05 C 166.34 159.14 166.16 157.86 165.25 157.18 L 164.47 156.59 C 163.56 155.91 162.28 156.09 161.59 157.00 C 160.91 157.91 161.10 159.19 162.01 159.87 Z M 162.79 160.46 L 163.58 161.05 C 164.48 161.72 165.77 161.54 166.44 160.63 C 167.12 159.73 166.94 158.44 166.03 157.76 L 165.25 157.18 C 164.34 156.50 163.06 156.69 162.38 157.59 C 161.70 158.50 161.89 159.78 162.79 160.46 Z M 163.58 161.05 L 164.38 161.64 C 165.29 162.31 166.57 162.12 167.24 161.22 C 167.92 160.31 167.73 159.03 166.82 158.36 L 166.02 157.76 C 165.12 157.09 163.84 157.28 163.16 158.19 C 162.49 159.09 162.68 160.37 163.58 161.05 Z M 164.39 161.64 L 165.19 162.23 C 166.10 162.90 167.38 162.71 168.05 161.80 C 168.72 160.89 168.52 159.61 167.62 158.95 L 166.81 158.35 C 165.90 157.69 164.63 157.88 163.96 158.79 C 163.29 159.69 163.48 160.97 164.39 161.64 Z M 165.21 162.23 L 166.01 162.82 C 166.92 163.49 168.20 163.29 168.86 162.38 C 169.52 161.47 169.32 160.20 168.41 159.53 L 167.60 158.94 C 166.70 158.28 165.42 158.48 164.76 159.39 C 164.10 160.30 164.30 161.57 165.21 162.23 Z M 166.03 162.83 L 166.84 163.41 C 167.75 164.07 169.02 163.86 169.68 162.95 C 170.33 162.04 170.13 160.77 169.21 160.12 L 168.40 159.53 C 167.49 158.87 166.22 159.08 165.56 159.99 C 164.91 160.90 165.12 162.17 166.03 162.83 Z M 166.85 163.42 L 167.67 164.00 C 168.59 164.65 169.85 164.43 170.50 163.52 C 171.15 162.61 170.93 161.34 170.02 160.69 L 169.20 160.11 C 168.29 159.46 167.02 159.68 166.37 160.59 C 165.73 161.50 165.94 162.77 166.85 163.42 Z M 167.69 164.00 L 168.51 164.58 C 169.43 165.22 170.69 165.00 171.33 164.08 C 171.97 163.17 171.75 161.91 170.83 161.27 L 170.01 160.69 C 169.09 160.05 167.83 160.27 167.19 161.19 C 166.55 162.10 166.77 163.36 167.69 164.00 Z M 168.53 164.58 L 169.36 165.16 C 170.27 165.79 171.53 165.56 172.16 164.64 C 172.79 163.73 172.56 162.47 171.65 161.84 L 170.82 161.26 C 169.90 160.63 168.65 160.86 168.01 161.78 C 167.38 162.69 167.61 163.95 168.53 164.58 Z M 169.36 165.16 L 170.19 165.72 C 171.11 166.35 172.36 166.12 172.99 165.20 C 173.62 164.28 173.38 163.03 172.47 162.40 L 171.64 161.84 C 170.72 161.21 169.47 161.44 168.84 162.36 C 168.21 163.28 168.45 164.53 169.36 165.16 Z M 170.20 165.72 L 171.02 166.28 C 171.93 166.90 173.18 166.67 173.81 165.75 C 174.43 164.84 174.20 163.59 173.28 162.97 L 172.46 162.41 C 171.54 161.78 170.30 162.02 169.67 162.93 C 169.05 163.85 169.28 165.09 170.20 165.72 Z M 171.02 166.28 L 171.84 166.84 C 172.75 167.46 174.00 167.22 174.62 166.31 C 175.24 165.40 175.01 164.15 174.10 163.53 L 173.28 162.97 C 172.37 162.35 171.12 162.58 170.50 163.50 C 169.87 164.41 170.11 165.65 171.02 166.28 Z M 171.84 166.83 L 172.68 167.40 C 173.59 168.03 174.83 167.80 175.46 166.89 C 176.08 165.98 175.85 164.74 174.94 164.11 L 174.10 163.54 C 173.19 162.92 171.95 163.15 171.32 164.06 C 170.70 164.97 170.93 166.21 171.84 166.83 Z M 172.68 167.40 L 173.51 167.97 C 174.42 168.59 175.66 168.36 176.28 167.45 C 176.90 166.55 176.67 165.31 175.76 164.69 L 174.94 164.12 C 174.03 163.50 172.79 163.73 172.17 164.63 C 171.55 165.54 171.78 166.78 172.68 167.40 Z M 173.52 167.96 L 174.34 168.53 C 175.24 169.15 176.47 168.92 177.09 168.01 C 177.71 167.11 177.48 165.88 176.58 165.26 L 175.76 164.70 C 174.86 164.08 173.63 164.30 173.01 165.21 C 172.39 166.11 172.62 167.34 173.52 167.96 Z M 174.34 168.52 L 175.16 169.08 C 176.05 169.70 177.28 169.47 177.90 168.57 C 178.52 167.67 178.29 166.44 177.39 165.82 L 176.58 165.26 C 175.68 164.65 174.45 164.88 173.83 165.77 C 173.21 166.67 173.44 167.90 174.34 168.52 Z M 175.16 169.07 L 175.98 169.63 C 176.88 170.25 178.10 170.02 178.72 169.12 C 179.33 168.22 179.10 167.00 178.20 166.39 L 177.38 165.83 C 176.49 165.21 175.26 165.44 174.65 166.34 C 174.03 167.24 174.26 168.46 175.16 169.07 Z M 175.99 169.63 L 176.81 170.19 C 177.71 170.80 178.93 170.57 179.54 169.68 C 180.15 168.78 179.92 167.57 179.02 166.95 L 178.20 166.39 C 177.30 165.78 176.08 166.01 175.47 166.90 C 174.86 167.80 175.09 169.02 175.99 169.63 Z M 176.82 170.19 L 177.64 170.75 C 178.53 171.36 179.75 171.13 180.35 170.23 C 180.96 169.34 180.73 168.13 179.84 167.52 L 179.02 166.96 C 178.13 166.35 176.91 166.58 176.30 167.47 C 175.70 168.37 175.93 169.58 176.82 170.19 Z M 177.65 170.74 L 178.47 171.30 C 179.36 171.91 180.57 171.68 181.17 170.79 C 181.78 169.91 181.55 168.70 180.66 168.09 L 179.84 167.53 C 178.95 166.93 177.74 167.15 177.14 168.04 C 176.53 168.93 176.76 170.14 177.65 170.74 Z M 178.47 171.30 L 179.30 171.86 C 180.18 172.46 181.39 172.24 181.99 171.35 C 182.59 170.47 182.37 169.27 181.48 168.67 L 180.66 168.10 C 179.77 167.50 178.57 167.72 177.97 168.61 C 177.36 169.49 177.59 170.69 178.47 171.30 Z M 179.31 171.85 L 180.17 172.44 C 181.04 173.04 182.24 172.82 182.84 171.94 C 183.44 171.06 183.22 169.87 182.34 169.27 L 181.48 168.68 C 180.60 168.08 179.41 168.30 178.81 169.18 C 178.20 170.05 178.43 171.25 179.31 171.85 Z M 180.17 172.43 L 181.03 173.01 C 181.90 173.61 183.09 173.39 183.68 172.52 C 184.28 171.65 184.06 170.46 183.19 169.86 L 182.33 169.28 C 181.46 168.68 180.27 168.90 179.68 169.77 C 179.08 170.64 179.30 171.83 180.17 172.43 Z M 181.03 173.01 L 181.86 173.57 C 182.73 174.17 183.91 173.94 184.50 173.08 C 185.10 172.21 184.88 171.03 184.01 170.44 L 183.18 169.87 C 182.31 169.28 181.13 169.50 180.54 170.37 C 179.95 171.23 180.17 172.41 181.03 173.01 Z M 181.88 173.57 L 182.67 174.10 C 183.53 174.69 184.70 174.47 185.29 173.61 C 185.87 172.74 185.65 171.57 184.79 170.98 L 184.00 170.45 C 183.14 169.86 181.96 170.08 181.38 170.95 C 180.79 171.81 181.01 172.98 181.88 173.57 Z M 182.68 174.10 L 183.47 174.63 C 184.32 175.20 185.49 174.98 186.07 174.12 C 186.64 173.26 186.42 172.09 185.56 171.52 L 184.77 170.99 C 183.92 170.41 182.75 170.64 182.17 171.50 C 181.60 172.36 181.82 173.52 182.68 174.10 Z M 183.48 174.62 L 184.26 175.14 C 185.12 175.71 186.27 175.48 186.84 174.62 C 187.41 173.77 187.18 172.61 186.32 172.04 L 185.54 171.52 C 184.69 170.95 183.53 171.18 182.96 172.04 C 182.39 172.89 182.62 174.05 183.48 174.62 Z M 184.27 175.13 L 185.07 175.66 C 185.92 176.23 187.06 176.00 187.63 175.15 C 188.19 174.30 187.96 173.15 187.11 172.58 L 186.32 172.05 C 185.47 171.49 184.32 171.72 183.75 172.57 C 183.19 173.42 183.42 174.56 184.27 175.13 Z M 185.07 175.65 L 185.94 176.24 C 186.79 176.80 187.93 176.58 188.49 175.73 C 189.06 174.89 188.83 173.75 187.99 173.19 L 187.11 172.60 C 186.27 172.03 185.13 172.26 184.57 173.10 C 184.00 173.94 184.23 175.08 185.07 175.65 Z M 185.94 176.22 L 186.79 176.79 C 187.62 177.36 188.76 177.14 189.32 176.31 C 189.89 175.47 189.67 174.34 188.84 173.78 L 187.99 173.20 C 187.16 172.64 186.02 172.85 185.46 173.69 C 184.89 174.52 185.11 175.65 185.94 176.22 Z M 186.79 176.78 L 187.62 177.35 C 188.45 177.91 189.57 177.69 190.14 176.87 C 190.70 176.04 190.49 174.91 189.66 174.35 L 188.83 173.79 C 188.00 173.22 186.88 173.44 186.31 174.26 C 185.75 175.09 185.96 176.22 186.79 176.78 Z M 187.63 177.34 L 188.49 177.92 C 189.32 178.48 190.44 178.26 191.00 177.44 C 191.55 176.61 191.34 175.49 190.51 174.93 L 189.65 174.35 C 188.82 173.79 187.70 174.01 187.14 174.84 C 186.59 175.66 186.80 176.78 187.63 177.34 Z M 188.51 177.92 L 189.38 178.50 C 190.20 179.05 191.32 178.82 191.87 178.00 C 192.41 177.17 192.19 176.06 191.36 175.51 L 190.49 174.93 C 189.67 174.39 188.55 174.61 188.01 175.44 C 187.46 176.26 187.68 177.38 188.51 177.92 Z M 189.40 178.51 L 190.24 179.05 C 191.07 179.58 192.18 179.34 192.71 178.51 C 193.25 177.68 193.01 176.58 192.18 176.05 L 191.34 175.50 C 190.51 174.97 189.40 175.21 188.87 176.04 C 188.34 176.87 188.58 177.97 189.40 178.51 Z M 190.29 179.06 L 191.18 179.60 C 192.02 180.11 193.11 179.85 193.62 179.01 C 194.13 178.18 193.86 177.09 193.02 176.58 L 192.13 176.03 C 191.30 175.52 190.21 175.79 189.70 176.63 C 189.19 177.46 189.45 178.55 190.29 179.06 Z M 191.25 179.62 L 192.22 180.15 C 193.06 180.62 194.13 180.32 194.60 179.48 C 195.07 178.63 194.76 177.57 193.92 177.10 L 192.95 176.56 C 192.11 176.09 191.05 176.40 190.58 177.24 C 190.11 178.08 190.41 179.15 191.25 179.62 Z M 192.30 180.16 L 193.16 180.60 C 194.01 181.02 195.04 180.68 195.47 179.83 C 195.89 178.99 195.55 177.95 194.70 177.53 L 193.84 177.09 C 192.99 176.67 191.96 177.01 191.54 177.86 C 191.11 178.70 191.45 179.73 192.30 180.16 Z M 193.22 180.59 L 194.02 180.96 C 194.87 181.36 195.87 180.99 196.26 180.15 C 196.66 179.31 196.29 178.30 195.45 177.91 L 194.65 177.53 C 193.80 177.14 192.80 177.51 192.41 178.35 C 192.01 179.19 192.38 180.20 193.22 180.59 Z M 194.05 180.95 L 194.32 181.07 C 195.15 181.46 196.14 181.09 196.52 180.25 C 196.90 179.41 196.53 178.43 195.70 178.05 L 195.43 177.92 C 194.59 177.54 193.60 177.91 193.22 178.75 C 192.84 179.58 193.21 180.57 194.05 180.95 Z"
      fill="black"
      fill-rule="nonzero" /><path d="M 147.83 113.48 L 147.25 114.25 C 146.66 115.03 146.82 116.15 147.60 116.74 C 148.39 117.33 149.50 117.18 150.09 116.39 L 150.67 115.63 C 151.26 114.84 151.11 113.73 150.32 113.14 C 149.54 112.54 148.42 112.70 147.83 113.48 Z M 147.13 114.34 L 146.61 115.17 C 146.07 116.02 146.32 117.15 147.18 117.69 C 148.03 118.23 149.16 117.98 149.70 117.12 L 150.22 116.30 C 150.76 115.44 150.50 114.32 149.65 113.78 C 148.80 113.24 147.67 113.49 147.13 114.34 Z M 146.43 115.40 L 146.02 116.35 C 145.61 117.30 146.04 118.40 146.99 118.82 C 147.94 119.23 149.04 118.80 149.45 117.85 L 149.87 116.89 C 150.28 115.95 149.85 114.84 148.90 114.43 C 147.95 114.02 146.85 114.45 146.43 115.40 Z M 145.89 116.64 L 145.68 117.48 C 145.42 118.50 146.04 119.53 147.06 119.79 C 148.08 120.05 149.11 119.43 149.37 118.41 L 149.58 117.56 C 149.84 116.55 149.22 115.51 148.20 115.26 C 147.18 115.00 146.15 115.62 145.89 116.64 Z M 145.63 117.69 L 145.51 118.58 C 145.37 119.63 146.10 120.59 147.14 120.74 C 148.18 120.88 149.15 120.15 149.29 119.11 L 149.41 118.21 C 149.56 117.16 148.83 116.20 147.79 116.06 C 146.74 115.91 145.78 116.64 145.63 117.69 Z M 145.49 118.71 L 145.42 119.72 C 145.35 120.77 146.14 121.68 147.20 121.76 C 148.25 121.83 149.16 121.04 149.24 119.98 L 149.31 118.98 C 149.38 117.93 148.59 117.01 147.53 116.94 C 146.48 116.87 145.57 117.66 145.49 118.71 Z M 145.42 119.79 L 145.38 120.90 C 145.35 121.96 146.18 122.84 147.24 122.87 C 148.29 122.91 149.18 122.07 149.21 121.02 L 149.24 119.91 C 149.28 118.85 148.45 117.97 147.39 117.94 C 146.33 117.90 145.45 118.73 145.42 119.79 Z M 145.38 120.93 L 145.36 122.02 C 145.35 123.08 146.20 123.95 147.25 123.96 C 148.31 123.98 149.18 123.13 149.20 122.07 L 149.21 120.99 C 149.23 119.93 148.38 119.06 147.32 119.04 C 146.26 119.03 145.39 119.87 145.38 120.93 Z M 145.36 122.03 L 145.36 122.99 C 145.35 124.05 146.20 124.91 147.26 124.92 C 148.32 124.93 149.19 124.08 149.19 123.02 L 149.20 122.06 C 149.21 121.00 148.35 120.13 147.29 120.13 C 146.23 120.12 145.37 120.97 145.36 122.03 Z M 145.36 123.00 L 145.36 124.00 C 145.36 125.06 146.22 125.92 147.28 125.92 C 148.34 125.92 149.19 125.06 149.19 124.00 L 149.19 123.00 C 149.19 121.94 148.33 121.08 147.27 121.08 C 146.21 121.08 145.36 121.94 145.36 123.00 Z M 145.36 124.02 L 145.37 125.04 C 145.38 126.10 146.24 126.95 147.30 126.94 C 148.36 126.93 149.21 126.06 149.20 125.00 L 149.19 123.98 C 149.18 122.92 148.32 122.07 147.26 122.08 C 146.20 122.09 145.35 122.96 145.36 124.02 Z M 145.37 125.06 L 145.39 126.09 C 145.41 127.15 146.29 127.99 147.35 127.97 C 148.41 127.94 149.25 127.07 149.23 126.01 L 149.20 124.98 C 149.18 123.92 148.30 123.08 147.24 123.10 C 146.18 123.12 145.34 124.00 145.37 125.06 Z M 145.39 126.12 L 145.43 127.14 C 145.46 128.20 146.35 129.03 147.41 128.99 C 148.47 128.95 149.30 128.06 149.26 127.00 L 149.23 125.98 C 149.19 124.92 148.30 124.09 147.24 124.13 C 146.18 124.17 145.35 125.06 145.39 126.12 Z M 145.43 127.17 L 145.49 128.23 C 145.54 129.29 146.45 130.10 147.51 130.05 C 148.57 129.99 149.38 129.08 149.32 128.02 L 149.26 126.96 C 149.20 125.91 148.30 125.09 147.24 125.15 C 146.18 125.21 145.37 126.12 145.43 127.17 Z M 145.49 128.27 L 145.57 129.37 C 145.65 130.43 146.57 131.22 147.63 131.14 C 148.69 131.06 149.48 130.14 149.40 129.08 L 149.32 127.98 C 149.24 126.93 148.32 126.13 147.26 126.21 C 146.20 126.29 145.41 127.22 145.49 128.27 Z M 145.57 129.41 L 145.67 130.45 C 145.77 131.51 146.71 132.28 147.77 132.18 C 148.82 132.08 149.60 131.15 149.50 130.09 L 149.40 129.05 C 149.30 127.99 148.36 127.22 147.30 127.32 C 146.25 127.42 145.47 128.35 145.57 129.41 Z M 145.68 130.49 L 145.79 131.47 C 145.90 132.52 146.85 133.28 147.91 133.17 C 148.96 133.05 149.72 132.10 149.60 131.05 L 149.49 130.06 C 149.38 129.01 148.43 128.25 147.37 128.36 C 146.32 128.48 145.56 129.43 145.68 130.49 Z M 145.79 131.50 L 145.90 132.41 C 146.04 133.46 147.00 134.21 148.05 134.08 C 149.10 133.95 149.85 132.99 149.71 131.93 L 149.60 131.02 C 149.47 129.97 148.51 129.22 147.46 129.35 C 146.40 129.49 145.66 130.45 145.79 131.50 Z M 145.91 132.43 L 146.03 133.34 C 146.18 134.39 147.15 135.13 148.20 134.98 C 149.25 134.84 149.98 133.87 149.84 132.82 L 149.71 131.91 C 149.57 130.86 148.60 130.13 147.55 130.27 C 146.50 130.42 145.76 131.38 145.91 132.43 Z M 146.04 133.36 L 146.20 134.46 C 146.36 135.50 147.33 136.23 148.38 136.07 C 149.43 135.91 150.15 134.94 150.00 133.89 L 149.83 132.80 C 149.68 131.75 148.70 131.02 147.65 131.18 C 146.60 131.34 145.88 132.32 146.04 133.36 Z M 146.20 134.48 L 146.36 135.44 C 146.53 136.49 147.51 137.20 148.56 137.03 C 149.61 136.86 150.32 135.88 150.15 134.83 L 149.99 133.87 C 149.82 132.82 148.84 132.11 147.79 132.28 C 146.75 132.45 146.03 133.43 146.20 134.48 Z M 146.36 135.46 L 146.51 136.36 C 146.69 137.40 147.68 138.11 148.73 137.93 C 149.77 137.76 150.48 136.76 150.30 135.72 L 150.15 134.82 C 149.97 133.77 148.98 133.07 147.93 133.25 C 146.89 133.42 146.19 134.41 146.36 135.46 Z M 146.51 136.36 L 146.67 137.29 C 146.85 138.33 147.84 139.04 148.89 138.86 C 149.93 138.68 150.63 137.69 150.46 136.65 L 150.30 135.72 C 150.12 134.67 149.13 133.97 148.09 134.15 C 147.04 134.32 146.34 135.32 146.51 136.36 Z M 146.67 137.28 L 146.83 138.25 C 147.01 139.30 147.99 140.00 149.04 139.83 C 150.09 139.66 150.79 138.67 150.62 137.62 L 150.46 136.65 C 150.28 135.61 149.29 134.90 148.25 135.08 C 147.20 135.25 146.50 136.24 146.67 137.28 Z M 146.83 138.24 L 146.99 139.24 C 147.16 140.29 148.15 141.00 149.19 140.83 C 150.24 140.66 150.95 139.68 150.78 138.63 L 150.62 137.63 C 150.45 136.59 149.47 135.87 148.42 136.04 C 147.37 136.21 146.66 137.20 146.83 138.24 Z M 146.99 139.23 L 147.15 140.24 C 147.31 141.29 148.29 142.00 149.34 141.84 C 150.38 141.68 151.10 140.70 150.94 139.65 L 150.78 138.64 C 150.62 137.60 149.64 136.88 148.59 137.04 C 147.55 137.20 146.83 138.18 146.99 139.23 Z M 147.14 140.23 L 147.29 141.21 C 147.45 142.26 148.42 142.99 149.47 142.83 C 150.52 142.67 151.24 141.70 151.09 140.65 L 150.94 139.66 C 150.78 138.62 149.81 137.89 148.76 138.05 C 147.71 138.20 146.99 139.18 147.14 140.23 Z M 147.29 141.20 L 147.43 142.20 C 147.58 143.25 148.55 143.98 149.60 143.83 C 150.65 143.68 151.38 142.71 151.23 141.66 L 151.09 140.66 C 150.94 139.61 149.97 138.88 148.92 139.03 C 147.87 139.18 147.14 140.15 147.29 141.20 Z M 147.43 142.19 L 147.57 143.19 C 147.71 144.23 148.68 144.97 149.73 144.83 C 150.78 144.68 151.51 143.72 151.37 142.67 L 151.23 141.67 C 151.09 140.62 150.12 139.89 149.07 140.03 C 148.02 140.18 147.29 141.14 147.43 142.19 Z M 147.57 143.17 L 147.70 144.17 C 147.83 145.22 148.80 145.97 149.85 145.83 C 150.90 145.69 151.64 144.73 151.50 143.68 L 151.37 142.68 C 151.23 141.63 150.27 140.89 149.22 141.02 C 148.17 141.16 147.43 142.12 147.57 143.17 Z M 147.70 144.17 L 147.82 145.16 C 147.95 146.21 148.91 146.95 149.96 146.82 C 151.01 146.68 151.76 145.72 151.62 144.67 L 151.50 143.68 C 151.37 142.63 150.41 141.89 149.36 142.02 C 148.31 142.16 147.56 143.12 147.70 144.17 Z M 147.82 145.16 L 147.95 146.14 C 148.08 147.19 149.04 147.93 150.09 147.80 C 151.14 147.67 151.88 146.71 151.75 145.66 L 151.62 144.67 C 151.49 143.62 150.53 142.88 149.48 143.01 C 148.43 143.15 147.69 144.11 147.82 145.16 Z M 147.95 146.15 L 148.08 147.14 C 148.22 148.19 149.18 148.92 150.23 148.78 C 151.28 148.64 152.02 147.68 151.88 146.63 L 151.75 145.65 C 151.61 144.60 150.64 143.86 149.60 144.00 C 148.55 144.14 147.81 145.10 147.95 146.15 Z M 148.08 147.15 L 148.22 148.13 C 148.36 149.18 149.33 149.91 150.38 149.76 C 151.43 149.62 152.16 148.65 152.01 147.60 L 151.88 146.62 C 151.73 145.57 150.77 144.84 149.72 144.99 C 148.67 145.13 147.94 146.10 148.08 147.15 Z M 148.22 148.12 L 148.35 149.12 C 148.49 150.16 149.46 150.90 150.51 150.76 C 151.55 150.62 152.29 149.65 152.15 148.60 L 152.01 147.61 C 151.87 146.56 150.91 145.83 149.86 145.97 C 148.81 146.11 148.08 147.07 148.22 148.12 Z M 148.35 149.10 L 148.47 150.10 C 148.60 151.15 149.56 151.89 150.61 151.76 C 151.66 151.63 152.40 150.68 152.27 149.63 L 152.15 148.62 C 152.02 147.58 151.06 146.83 150.01 146.96 C 148.96 147.09 148.22 148.05 148.35 149.10 Z M 148.47 150.06 L 148.58 151.06 C 148.69 152.11 149.63 152.87 150.68 152.76 C 151.73 152.65 152.49 151.70 152.38 150.65 L 152.28 149.66 C 152.16 148.61 151.22 147.85 150.17 147.96 C 149.12 148.07 148.36 149.01 148.47 150.06 Z M 148.57 151.03 L 148.67 152.02 C 148.76 153.07 149.69 153.85 150.75 153.75 C 151.80 153.65 152.57 152.72 152.48 151.67 L 152.38 150.68 C 152.29 149.63 151.36 148.85 150.30 148.95 C 149.25 149.05 148.48 149.98 148.57 151.03 Z M 148.67 152.01 L 148.75 153.01 C 148.84 154.06 149.77 154.84 150.82 154.75 C 151.87 154.66 152.65 153.73 152.56 152.68 L 152.48 151.68 C 152.39 150.63 151.46 149.85 150.41 149.94 C 149.35 150.03 148.58 150.96 148.67 152.01 Z M 148.75 153.01 L 148.84 154.01 C 148.93 155.06 149.86 155.84 150.91 155.75 C 151.96 155.66 152.74 154.73 152.65 153.68 L 152.56 152.68 C 152.47 151.62 151.54 150.85 150.49 150.94 C 149.44 151.03 148.66 151.96 148.75 153.01 Z M 148.84 154.03 L 148.94 155.01 C 149.04 156.06 149.97 156.83 151.02 156.73 C 152.07 156.63 152.84 155.70 152.74 154.65 L 152.65 153.66 C 152.55 152.61 151.61 151.84 150.56 151.94 C 149.51 152.04 148.74 152.98 148.84 154.03 Z M 148.94 155.01 L 149.04 156.01 C 149.14 157.06 150.07 157.82 151.12 157.72 C 152.17 157.62 152.94 156.68 152.84 155.64 L 152.74 154.64 C 152.64 153.59 151.70 152.83 150.65 152.93 C 149.60 153.03 148.84 153.97 148.94 155.01 Z M 149.04 156.00 L 149.13 157.01 C 149.23 158.05 150.17 158.82 151.21 158.72 C 152.26 158.62 153.03 157.69 152.93 156.64 L 152.83 155.64 C 152.73 154.59 151.80 153.82 150.75 153.92 C 149.71 154.02 148.94 154.95 149.04 156.00 Z M 149.13 156.99 L 149.22 157.98 C 149.31 159.03 150.24 159.81 151.29 159.72 C 152.34 159.62 153.11 158.70 153.02 157.65 L 152.93 156.66 C 152.84 155.61 151.91 154.83 150.86 154.93 C 149.82 155.02 149.04 155.94 149.13 156.99 Z M 149.22 157.97 L 149.30 158.94 C 149.38 159.99 150.30 160.77 151.35 160.69 C 152.40 160.61 153.18 159.69 153.10 158.64 L 153.02 157.67 C 152.94 156.62 152.02 155.83 150.97 155.92 C 149.92 156.00 149.14 156.92 149.22 157.97 Z M 149.30 158.93 L 149.37 159.92 C 149.45 160.97 150.36 161.76 151.41 161.68 C 152.46 161.60 153.24 160.69 153.17 159.65 L 153.10 158.65 C 153.02 157.60 152.11 156.82 151.06 156.89 C 150.01 156.97 149.22 157.88 149.30 158.93 Z M 149.37 159.91 L 149.44 160.93 C 149.51 161.98 150.42 162.77 151.47 162.70 C 152.52 162.63 153.31 161.72 153.24 160.67 L 153.17 159.65 C 153.10 158.61 152.19 157.81 151.14 157.89 C 150.09 157.96 149.30 158.86 149.37 159.91 Z M 149.44 160.92 L 149.51 161.93 C 149.58 162.98 150.48 163.78 151.53 163.71 C 152.57 163.64 153.37 162.74 153.30 161.69 L 153.23 160.68 C 153.17 159.63 152.26 158.84 151.22 158.90 C 150.17 158.97 149.38 159.87 149.44 160.92 Z M 149.51 161.93 L 149.57 162.93 C 149.64 163.98 150.54 164.77 151.58 164.71 C 152.63 164.64 153.43 163.74 153.36 162.69 L 153.30 161.69 C 153.23 160.65 152.33 159.85 151.29 159.92 C 150.24 159.98 149.45 160.88 149.51 161.93 Z M 149.57 162.92 L 149.63 163.93 C 149.70 164.98 150.59 165.77 151.64 165.71 C 152.68 165.65 153.48 164.75 153.42 163.71 L 153.36 162.70 C 153.30 161.66 152.40 160.86 151.35 160.92 C 150.31 160.98 149.51 161.88 149.57 162.92 Z M 149.64 163.92 L 149.69 164.93 C 149.75 165.97 150.64 166.77 151.68 166.71 C 152.73 166.66 153.53 165.76 153.47 164.72 L 153.42 163.72 C 153.36 162.67 152.47 161.87 151.42 161.93 C 150.38 161.99 149.58 162.88 149.64 163.92 Z M 149.69 164.92 L 149.74 165.92 C 149.79 166.96 150.68 167.77 151.72 167.71 C 152.77 167.66 153.57 166.77 153.52 165.73 L 153.47 164.73 C 153.42 163.69 152.53 162.88 151.49 162.93 C 150.44 162.99 149.64 163.87 149.69 164.92 Z M 149.74 165.91 L 149.79 166.93 C 149.83 167.98 150.72 168.78 151.76 168.74 C 152.80 168.69 153.61 167.81 153.56 166.77 L 153.52 165.74 C 153.47 164.70 152.59 163.89 151.55 163.94 C 150.51 163.98 149.70 164.87 149.74 165.91 Z M 149.79 166.92 L 149.83 167.92 C 149.87 168.96 150.75 169.78 151.79 169.73 C 152.83 169.69 153.64 168.82 153.60 167.78 L 153.56 166.78 C 153.52 165.74 152.64 164.93 151.60 164.97 C 150.56 165.01 149.75 165.88 149.79 166.92 Z M 149.83 167.92 L 149.87 168.90 C 149.91 169.94 150.78 170.75 151.82 170.71 C 152.86 170.67 153.67 169.80 153.63 168.76 L 153.60 167.78 C 153.56 166.74 152.69 165.93 151.65 165.97 C 150.61 166.01 149.80 166.88 149.83 167.92 Z M 149.87 168.90 L 149.91 169.88 C 149.94 170.92 150.81 171.73 151.85 171.70 C 152.89 171.66 153.70 170.79 153.66 169.75 L 153.63 168.76 C 153.59 167.73 152.72 166.91 151.68 166.95 C 150.65 166.99 149.83 167.86 149.87 168.90 Z M 149.91 169.88 L 149.94 170.90 C 149.98 171.93 150.85 172.74 151.89 172.71 C 152.92 172.67 153.73 171.80 153.70 170.76 L 153.66 169.75 C 153.62 168.71 152.75 167.90 151.72 167.94 C 150.68 167.98 149.87 168.85 149.91 169.88 Z M 149.95 170.90 L 149.98 171.90 C 150.02 172.93 150.89 173.74 151.92 173.71 C 152.96 173.67 153.77 172.80 153.73 171.76 L 153.69 170.76 C 153.66 169.73 152.79 168.92 151.75 168.96 C 150.72 168.99 149.91 169.86 149.95 170.90 Z M 149.99 171.90 L 150.02 172.88 C 150.06 173.92 150.93 174.72 151.96 174.69 C 152.99 174.65 153.80 173.78 153.76 172.75 L 153.73 171.76 C 153.69 170.73 152.82 169.92 151.79 169.96 C 150.76 170.00 149.95 170.87 149.99 171.90 Z M 150.03 172.89 L 150.06 173.81 C 150.10 174.84 150.96 175.65 152.00 175.61 C 153.03 175.57 153.83 174.71 153.79 173.67 L 153.76 172.75 C 153.72 171.72 152.85 170.91 151.82 170.95 C 150.79 170.99 149.99 171.85 150.03 172.89 Z M 150.06 173.81 L 150.10 174.73 C 150.13 175.76 150.99 176.56 152.02 176.53 C 153.05 176.49 153.86 175.63 153.82 174.60 L 153.79 173.68 C 153.75 172.65 152.89 171.84 151.86 171.88 C 150.83 171.92 150.03 172.78 150.06 173.81 Z M 150.10 174.72 L 150.13 175.70 C 150.16 176.73 151.01 177.54 152.04 177.51 C 153.07 177.48 153.88 176.62 153.85 175.59 L 153.82 174.61 C 153.79 173.58 152.93 172.77 151.91 172.80 C 150.88 172.83 150.07 173.69 150.10 174.72 Z M 150.13 175.69 L 150.15 176.79 C 150.17 177.81 151.02 178.62 152.05 178.60 C 153.07 178.58 153.89 177.73 153.87 176.71 L 153.84 175.61 C 153.82 174.58 152.97 173.77 151.95 173.79 C 150.92 173.81 150.11 174.66 150.13 175.69 Z M 150.16 176.77 L 150.17 177.75 C 150.18 178.78 151.02 179.60 152.05 179.58 C 153.07 179.57 153.89 178.73 153.88 177.71 L 153.86 176.72 C 153.85 175.70 153.01 174.88 151.99 174.89 C 150.96 174.91 150.14 175.75 150.16 176.77 Z M 150.17 177.74 L 150.18 178.70 C 150.19 179.72 151.02 180.54 152.04 180.53 C 153.07 180.52 153.89 179.69 153.88 178.67 L 153.87 177.72 C 153.86 176.69 153.03 175.87 152.01 175.88 C 150.99 175.89 150.16 176.72 150.17 177.74 Z M 150.18 178.69 L 150.19 179.70 C 150.19 180.72 151.02 181.54 152.04 181.53 C 153.06 181.53 153.89 180.70 153.88 179.68 L 153.88 178.67 C 153.87 177.65 153.04 176.83 152.02 176.84 C 151.00 176.84 150.18 177.67 150.18 178.69 Z M 150.19 179.69 L 150.19 180.73 C 150.20 181.75 151.02 182.57 152.04 182.57 C 153.06 182.56 153.88 181.74 153.88 180.72 L 153.88 179.68 C 153.88 178.66 153.05 177.84 152.03 177.84 C 151.01 177.85 150.19 178.67 150.19 179.69 Z M 150.20 180.72 L 150.20 181.77 C 150.20 182.79 151.02 183.61 152.04 183.61 C 153.05 183.61 153.88 182.79 153.88 181.77 L 153.88 180.72 C 153.88 179.71 153.05 178.88 152.04 178.88 C 151.02 178.88 150.20 179.71 150.20 180.72 Z M 150.20 181.77 L 150.20 182.82 C 150.20 183.83 151.02 184.65 152.04 184.65 C 153.05 184.65 153.87 183.83 153.87 182.82 L 153.87 181.77 C 153.87 180.76 153.05 179.93 152.04 179.93 C 151.02 179.93 150.20 180.76 150.20 181.77 Z M 150.21 182.82 L 150.21 183.92 C 150.21 184.93 151.03 185.75 152.04 185.75 C 153.05 185.75 153.87 184.93 153.87 183.92 L 153.87 182.82 C 153.87 181.81 153.05 180.99 152.04 180.99 C 151.03 180.99 150.21 181.81 150.21 182.82 Z M 150.22 183.92 L 150.22 184.98 C 150.22 185.98 151.03 186.80 152.04 186.80 C 153.04 186.80 153.86 185.98 153.86 184.98 L 153.86 183.92 C 153.86 182.91 153.04 182.10 152.04 182.10 C 151.03 182.10 150.22 182.91 150.22 183.92 Z M 150.23 184.98 L 150.23 185.98 C 150.23 186.98 151.04 187.79 152.04 187.79 C 153.04 187.79 153.85 186.98 153.85 185.98 L 153.85 184.98 C 153.85 183.98 153.04 183.17 152.04 183.17 C 151.04 183.17 150.23 183.98 150.23 184.98 Z M 150.24 185.98 L 150.24 186.93 C 150.24 187.93 151.04 188.73 152.04 188.73 C 153.03 188.73 153.84 187.93 153.84 186.93 L 153.84 185.98 C 153.84 184.99 153.03 184.19 152.04 184.19 C 151.04 184.19 150.24 184.99 150.24 185.98 Z M 150.25 186.93 L 150.25 187.81 C 150.25 188.80 151.05 189.60 152.04 189.60 C 153.03 189.60 153.83 188.80 153.83 187.81 L 153.83 186.93 C 153.83 185.94 153.03 185.14 152.04 185.14 C 151.05 185.14 150.25 185.94 150.25 186.93 Z M 150.26 187.81 L 150.26 188.89 C 150.25 189.87 151.05 190.67 152.03 190.67 C 153.02 190.67 153.81 189.87 153.82 188.89 L 153.82 187.82 C 153.82 186.83 153.02 186.03 152.04 186.03 C 151.06 186.03 150.26 186.83 150.26 187.81 Z M 150.27 188.87 L 150.26 189.87 C 150.24 190.84 151.03 191.64 152.01 191.65 C 152.98 191.67 153.78 190.88 153.79 189.90 L 153.81 188.91 C 153.82 187.93 153.03 187.13 152.06 187.12 C 151.08 187.11 150.28 187.89 150.27 188.87 Z M 150.27 189.83 L 150.24 190.78 C 150.20 191.75 150.97 192.57 151.94 192.60 C 152.91 192.63 153.72 191.87 153.75 190.89 L 153.78 189.94 C 153.82 188.97 153.05 188.16 152.08 188.13 C 151.11 188.10 150.30 188.86 150.27 189.83 Z M 150.25 190.73 L 150.19 191.68 C 150.13 192.65 150.86 193.48 151.83 193.54 C 152.79 193.60 153.62 192.87 153.68 191.90 L 153.74 190.95 C 153.80 189.98 153.07 189.15 152.10 189.09 C 151.14 189.03 150.31 189.77 150.25 190.73 Z M 150.20 191.63 L 150.11 192.59 C 150.02 193.55 150.73 194.40 151.68 194.49 C 152.64 194.58 153.49 193.87 153.58 192.92 L 153.67 191.95 C 153.76 191.00 153.05 190.15 152.10 190.06 C 151.14 189.97 150.29 190.67 150.20 191.63 Z M 150.13 192.56 L 150.01 193.55 C 149.90 194.50 150.58 195.36 151.53 195.47 C 152.48 195.58 153.34 194.90 153.45 193.95 L 153.56 192.95 C 153.67 192.00 152.99 191.15 152.04 191.04 C 151.09 190.93 150.23 191.61 150.13 192.56 Z M 150.02 193.53 L 149.90 194.55 C 149.77 195.49 150.44 196.35 151.38 196.47 C 152.33 196.59 153.19 195.92 153.31 194.98 L 153.44 193.97 C 153.56 193.03 152.89 192.16 151.95 192.04 C 151.01 191.92 150.14 192.59 150.02 193.53 Z M 149.90 194.54 L 149.81 195.25 C 149.69 196.19 150.34 197.05 151.28 197.18 C 152.22 197.30 153.08 196.64 153.20 195.70 L 153.30 194.99 C 153.42 194.05 152.76 193.19 151.83 193.07 C 150.89 192.94 150.03 193.60 149.90 194.54 Z"
      fill="black"
      fill-rule="nonzero" /></svg>