<svg xmlns="http://www.w3.org/2000/svg" width="300" height="300" viewBox="0 0 300 300">
<path d="M 148.29 115.47 L 148.39 114.06 C 148.45 113.13 147.75 112.32 146.82 112.25 C 145.88 112.19 145.08 112.89 145.01 113.82 L 144.91 115.23 C 144.85 116.17 145.55 116.97 146.48 117.04 C 147.41 117.10 148.22 116.40 148.29 115.47 Z M 148.47 114.12 L 148.57 113.13 C 148.67 112.15 147.95 111.28 146.97 111.18 C 146.00 111.09 145.12 111.80 145.03 112.78 L 144.93 113.77 C 144.83 114.74 145.54 115.62 146.52 115.71 C 147.50 115.81 148.37 115.10 148.47 114.12 Z M 148.38 113.92 L 148.48 113.76 C 149.01 112.88 148.73 111.74 147.85 111.21 C 146.98 110.68 145.84 110.96 145.31 111.84 L 145.21 111.99 C 144.68 112.87 144.96 114.01 145.84 114.54 C 146.71 115.07 147.85 114.79 148.38 113.92 Z M 145.02 113.06 L 145.12 113.74 C 145.26 114.77 146.22 115.49 147.25 115.34 C 148.28 115.20 149.00 114.24 148.86 113.21 L 148.76 112.53 C 148.62 111.50 147.66 110.78 146.63 110.93 C 145.60 111.07 144.88 112.03 145.02 113.06 Z M 145.10 113.66 L 145.22 114.88 C 145.33 115.92 146.26 116.68 147.30 116.57 C 148.34 116.47 149.10 115.54 148.99 114.50 L 148.87 113.29 C 148.77 112.25 147.84 111.49 146.80 111.59 C 145.76 111.69 145.00 112.62 145.10 113.66 Z M 145.22 114.90 L 145.37 116.19 C 145.48 117.23 146.42 117.98 147.46 117.87 C 148.50 117.75 149.25 116.81 149.14 115.77 L 148.99 114.48 C 148.88 113.44 147.94 112.69 146.90 112.80 C 145.86 112.92 145.11 113.86 145.22 114.90 Z M 145.37 116.23 L 145.49 117.16 C 145.63 118.20 146.58 118.93 147.62 118.79 C 148.66 118.65 149.40 117.70 149.26 116.66 L 149.14 115.73 C 149.00 114.69 148.04 113.96 147.00 114.10 C 145.96 114.24 145.23 115.19 145.37 116.23 Z M 145.50 117.18 L 145.64 118.14 C 145.79 119.18 146.75 119.90 147.79 119.75 C 148.83 119.60 149.55 118.63 149.39 117.59 L 149.25 116.63 C 149.10 115.60 148.14 114.88 147.10 115.03 C 146.06 115.18 145.34 116.15 145.50 117.18 Z M 145.64 118.16 L 145.79 119.15 C 145.95 120.19 146.92 120.90 147.96 120.74 C 149.00 120.58 149.71 119.61 149.55 118.57 L 149.39 117.58 C 149.23 116.54 148.26 115.83 147.22 115.99 C 146.19 116.15 145.48 117.12 145.64 118.16 Z M 145.79 119.16 L 145.96 120.20 C 146.12 121.24 147.10 121.94 148.13 121.78 C 149.17 121.61 149.88 120.64 149.71 119.60 L 149.55 118.56 C 149.38 117.53 148.41 116.82 147.37 116.99 C 146.34 117.15 145.63 118.13 145.79 119.16 Z M 145.96 120.20 L 146.13 121.25 C 146.29 122.29 147.26 122.99 148.30 122.83 C 149.34 122.66 150.04 121.69 149.88 120.65 L 149.71 119.60 C 149.55 118.57 148.57 117.86 147.54 118.02 C 146.50 118.19 145.79 119.16 145.96 120.20 Z M 146.12 121.25 L 146.28 122.26 C 146.45 123.30 147.42 124.01 148.45 123.84 C 149.49 123.68 150.20 122.71 150.04 121.67 L 149.88 120.66 C 149.72 119.62 148.74 118.91 147.71 119.07 C 146.67 119.24 145.96 120.21 146.12 121.25 Z M 146.28 122.26 L 146.44 123.29 C 146.60 124.32 147.57 125.03 148.61 124.87 C 149.65 124.71 150.36 123.74 150.20 122.70 L 150.04 121.68 C 149.88 120.64 148.91 119.93 147.87 120.09 C 146.83 120.25 146.12 121.22 146.28 122.26 Z M 146.44 123.28 L 146.60 124.30 C 146.76 125.34 147.73 126.05 148.76 125.89 C 149.80 125.73 150.51 124.76 150.35 123.72 L 150.20 122.71 C 150.04 121.67 149.07 120.96 148.03 121.12 C 146.99 121.28 146.28 122.25 146.44 123.28 Z M 146.60 124.30 L 146.75 125.28 C 146.91 126.31 147.88 127.03 148.91 126.87 C 149.95 126.71 150.66 125.74 150.50 124.70 L 150.35 123.72 C 150.20 122.69 149.23 121.97 148.19 122.13 C 147.15 122.29 146.44 123.26 146.60 124.30 Z M 146.75 125.28 L 146.89 126.20 C 147.05 127.23 148.02 127.95 149.05 127.79 C 150.09 127.63 150.80 126.66 150.64 125.62 L 150.50 124.70 C 150.35 123.67 149.38 122.95 148.34 123.11 C 147.30 123.27 146.59 124.24 146.75 125.28 Z M 146.89 126.20 L 147.06 127.29 C 147.21 128.33 148.18 129.04 149.22 128.88 C 150.26 128.72 150.97 127.75 150.81 126.71 L 150.64 125.62 C 150.49 124.58 149.52 123.87 148.48 124.03 C 147.44 124.19 146.73 125.16 146.89 126.20 Z M 147.05 127.29 L 147.21 128.31 C 147.37 129.34 148.34 130.06 149.38 129.90 C 150.41 129.74 151.13 128.77 150.97 127.73 L 150.81 126.72 C 150.65 125.68 149.68 124.97 148.65 125.12 C 147.61 125.28 146.90 126.25 147.05 127.29 Z M 147.21 128.31 L 147.35 129.24 C 147.51 130.28 148.48 130.99 149.52 130.84 C 150.55 130.68 151.27 129.71 151.11 128.67 L 150.97 127.74 C 150.81 126.70 149.84 125.99 148.80 126.14 C 147.77 126.30 147.05 127.27 147.21 128.31 Z M 147.35 129.24 L 147.49 130.14 C 147.64 131.18 148.61 131.89 149.65 131.74 C 150.68 131.58 151.40 130.61 151.24 129.58 L 151.11 128.68 C 150.95 127.64 149.99 126.92 148.95 127.08 C 147.91 127.23 147.20 128.20 147.35 129.24 Z M 147.49 130.13 L 147.63 131.10 C 147.78 132.14 148.74 132.85 149.78 132.70 C 150.82 132.55 151.54 131.58 151.39 130.55 L 151.25 129.58 C 151.09 128.54 150.13 127.83 149.09 127.98 C 148.05 128.13 147.33 129.10 147.49 130.13 Z M 147.63 131.09 L 147.77 132.08 C 147.91 133.12 148.88 133.84 149.92 133.69 C 150.95 133.54 151.68 132.58 151.53 131.54 L 151.39 130.55 C 151.24 129.51 150.28 128.79 149.24 128.94 C 148.20 129.09 147.48 130.05 147.63 131.09 Z M 147.77 132.07 L 147.90 133.06 C 148.04 134.10 149.00 134.83 150.04 134.69 C 151.08 134.55 151.81 133.59 151.67 132.55 L 151.53 131.55 C 151.39 130.51 150.43 129.79 149.39 129.93 C 148.35 130.07 147.62 131.03 147.77 132.07 Z M 147.90 133.05 L 148.03 134.05 C 148.16 135.09 149.11 135.82 150.15 135.69 C 151.19 135.56 151.93 134.60 151.80 133.56 L 151.67 132.57 C 151.53 131.52 150.58 130.79 149.54 130.92 C 148.50 131.06 147.77 132.01 147.90 133.05 Z M 148.03 134.03 L 148.14 135.00 C 148.27 136.04 149.21 136.79 150.25 136.66 C 151.30 136.54 152.04 135.59 151.91 134.55 L 151.80 133.58 C 151.67 132.54 150.73 131.79 149.69 131.92 C 148.64 132.04 147.90 132.99 148.03 134.03 Z M 148.14 134.99 L 148.25 135.98 C 148.37 137.02 149.32 137.77 150.36 137.65 C 151.40 137.53 152.15 136.59 152.03 135.54 L 151.91 134.56 C 151.79 133.52 150.85 132.77 149.81 132.89 C 148.77 133.01 148.02 133.95 148.14 134.99 Z M 148.25 135.97 L 148.37 136.98 C 148.49 138.02 149.43 138.77 150.47 138.65 C 151.51 138.53 152.26 137.59 152.14 136.55 L 152.03 135.55 C 151.91 134.50 150.97 133.76 149.93 133.87 C 148.89 133.99 148.14 134.93 148.25 135.97 Z M 148.37 136.98 L 148.49 137.99 C 148.61 139.03 149.55 139.78 150.59 139.66 C 151.63 139.54 152.38 138.60 152.26 137.56 L 152.14 136.55 C 152.02 135.50 151.08 134.76 150.04 134.88 C 149.00 135.00 148.25 135.94 148.37 136.98 Z M 148.49 138.00 L 148.61 138.98 C 148.73 140.03 149.67 140.77 150.71 140.64 C 151.75 140.52 152.50 139.58 152.37 138.54 L 152.26 137.55 C 152.13 136.51 151.19 135.77 150.15 135.89 C 149.11 136.01 148.36 136.96 148.49 138.00 Z M 148.61 138.99 L 148.73 139.99 C 148.85 141.03 149.80 141.77 150.84 141.64 C 151.88 141.52 152.62 140.57 152.49 139.53 L 152.37 138.53 C 152.25 137.49 151.30 136.75 150.26 136.88 C 149.22 137.00 148.48 137.95 148.61 138.99 Z M 148.73 139.99 L 148.85 140.99 C 148.97 142.03 149.92 142.77 150.95 142.64 C 151.99 142.52 152.73 141.58 152.61 140.54 L 152.49 139.54 C 152.37 138.50 151.42 137.76 150.39 137.88 C 149.35 138.00 148.60 138.95 148.73 139.99 Z M 148.85 140.98 L 148.96 141.98 C 149.08 143.02 150.02 143.76 151.06 143.64 C 152.10 143.52 152.85 142.58 152.73 141.54 L 152.61 140.54 C 152.49 139.50 151.55 138.76 150.51 138.88 C 149.47 139.00 148.73 139.94 148.85 140.98 Z M 148.96 141.97 L 149.08 142.97 C 149.19 144.01 150.13 144.76 151.16 144.65 C 152.20 144.53 152.95 143.60 152.84 142.56 L 152.73 141.55 C 152.61 140.51 151.68 139.76 150.64 139.88 C 149.60 139.99 148.85 140.93 148.96 141.97 Z M 149.08 142.96 L 149.18 143.95 C 149.29 144.99 150.22 145.75 151.25 145.64 C 152.29 145.53 153.05 144.60 152.94 143.56 L 152.84 142.57 C 152.73 141.53 151.80 140.78 150.76 140.88 C 149.72 140.99 148.97 141.92 149.08 142.96 Z M 149.18 143.94 L 149.27 144.92 C 149.37 145.96 150.30 146.72 151.33 146.63 C 152.37 146.53 153.13 145.60 153.04 144.56 L 152.94 143.58 C 152.84 142.54 151.92 141.78 150.88 141.88 C 149.84 141.98 149.08 142.90 149.18 143.94 Z M 149.27 144.91 L 149.36 145.90 C 149.45 146.94 150.36 147.70 151.40 147.61 C 152.44 147.52 153.21 146.61 153.12 145.57 L 153.04 144.58 C 152.95 143.54 152.03 142.77 150.99 142.86 C 149.95 142.95 149.18 143.87 149.27 144.91 Z M 149.36 145.88 L 149.44 146.88 C 149.52 147.92 150.42 148.69 151.46 148.61 C 152.50 148.53 153.28 147.62 153.20 146.58 L 153.12 145.59 C 153.04 144.55 152.13 143.77 151.09 143.85 C 150.05 143.93 149.28 144.84 149.36 145.88 Z M 149.44 146.86 L 149.51 147.86 C 149.58 148.90 150.48 149.68 151.52 149.61 C 152.56 149.54 153.34 148.64 153.27 147.60 L 153.20 146.60 C 153.13 145.56 152.23 144.78 151.19 144.85 C 150.15 144.92 149.36 145.82 149.44 146.86 Z M 149.51 147.84 L 149.57 148.84 C 149.63 149.88 150.52 150.67 151.56 150.61 C 152.60 150.55 153.39 149.65 153.33 148.61 L 153.27 147.62 C 153.21 146.58 152.31 145.78 151.27 145.85 C 150.23 145.91 149.44 146.80 149.51 147.84 Z M 149.57 148.83 L 149.62 149.83 C 149.67 150.86 150.56 151.66 151.60 151.61 C 152.64 151.55 153.44 150.67 153.38 149.63 L 153.33 148.63 C 153.27 147.59 152.39 146.79 151.35 146.85 C 150.31 146.90 149.51 147.79 149.57 148.83 Z M 149.62 149.81 L 149.67 150.82 C 149.71 151.85 150.59 152.66 151.63 152.61 C 152.67 152.56 153.47 151.69 153.42 150.65 L 153.38 149.64 C 153.33 148.61 152.45 147.80 151.42 147.85 C 150.38 147.89 149.57 148.77 149.62 149.81 Z M 149.67 150.81 L 149.71 151.80 C 149.75 152.84 150.62 153.65 151.66 153.61 C 152.69 153.57 153.50 152.69 153.46 151.66 L 153.42 150.66 C 153.38 149.62 152.51 148.81 151.47 148.85 C 150.43 148.90 149.63 149.77 149.67 150.81 Z M 149.71 151.80 L 149.74 152.79 C 149.78 153.83 150.65 154.64 151.69 154.60 C 152.72 154.56 153.53 153.69 153.49 152.66 L 153.46 151.66 C 153.42 150.63 152.55 149.82 151.52 149.86 C 150.48 149.89 149.67 150.76 149.71 151.80 Z M 149.75 152.79 L 149.78 153.79 C 149.82 154.82 150.68 155.63 151.72 155.60 C 152.75 155.56 153.56 154.69 153.53 153.66 L 153.49 152.66 C 153.46 151.63 152.59 150.82 151.56 150.85 C 150.52 150.89 149.71 151.76 149.75 152.79 Z M 149.78 153.79 L 149.82 154.79 C 149.85 155.82 150.72 156.63 151.75 156.60 C 152.78 156.56 153.59 155.70 153.56 154.67 L 153.52 153.66 C 153.49 152.63 152.62 151.82 151.59 151.85 C 150.56 151.89 149.75 152.75 149.78 153.79 Z M 149.82 154.78 L 149.85 155.79 C 149.88 156.82 150.74 157.63 151.77 157.60 C 152.81 157.56 153.62 156.70 153.59 155.67 L 153.55 154.67 C 153.52 153.64 152.66 152.83 151.63 152.86 C 150.60 152.89 149.79 153.75 149.82 154.78 Z M 149.85 155.77 L 149.88 156.77 C 149.90 157.80 150.76 158.61 151.79 158.59 C 152.82 158.56 153.63 157.71 153.61 156.68 L 153.58 155.68 C 153.56 154.65 152.70 153.84 151.67 153.86 C 150.64 153.89 149.83 154.74 149.85 155.77 Z M 149.88 156.76 L 149.90 157.75 C 149.91 158.78 150.76 159.60 151.79 159.58 C 152.82 159.56 153.64 158.72 153.62 157.69 L 153.60 156.69 C 153.59 155.66 152.74 154.84 151.71 154.86 C 150.68 154.88 149.86 155.73 149.88 156.76 Z M 149.90 157.74 L 149.91 158.73 C 149.92 159.76 150.76 160.58 151.78 160.57 C 152.81 160.56 153.64 159.72 153.63 158.70 L 153.62 157.70 C 153.61 156.67 152.77 155.85 151.74 155.86 C 150.72 155.87 149.89 156.71 149.90 157.74 Z M 149.91 158.72 L 149.91 159.72 C 149.92 160.74 150.75 161.57 151.78 161.57 C 152.80 161.56 153.63 160.73 153.63 159.70 L 153.62 158.71 C 153.62 157.68 152.79 156.85 151.76 156.86 C 150.74 156.86 149.91 157.69 149.91 158.72 Z M 149.92 159.71 L 149.92 160.72 C 149.92 161.74 150.75 162.57 151.77 162.57 C 152.80 162.57 153.63 161.74 153.63 160.72 L 153.63 159.71 C 153.63 158.68 152.79 157.85 151.77 157.86 C 150.75 157.86 149.92 158.69 149.92 159.71 Z M 149.92 160.72 L 149.92 161.65 C 149.92 162.68 150.75 163.51 151.77 163.51 C 152.79 163.51 153.62 162.68 153.62 161.65 L 153.62 160.72 C 153.62 159.69 152.79 158.87 151.77 158.87 C 150.75 158.87 149.92 159.69 149.92 160.72 Z M 149.92 161.65 L 149.92 162.60 C 149.92 163.62 150.75 164.45 151.77 164.45 C 152.79 164.45 153.62 163.62 153.62 162.60 L 153.62 161.65 C 153.62 160.63 152.79 159.80 151.77 159.80 C 150.75 159.80 149.92 160.63 149.92 161.65 Z M 149.93 162.60 L 149.93 163.60 C 149.93 164.62 150.75 165.45 151.77 165.45 C 152.79 165.45 153.62 164.62 153.62 163.60 L 153.62 162.60 C 153.62 161.58 152.79 160.76 151.77 160.76 C 150.75 160.76 149.93 161.58 149.93 162.60 Z M 149.93 163.60 L 149.93 164.67 C 149.93 165.69 150.75 166.51 151.77 166.51 C 152.79 166.51 153.61 165.69 153.61 164.67 L 153.61 163.60 C 153.61 162.58 152.79 161.76 151.77 161.76 C 150.75 161.76 149.93 162.58 149.93 163.60 Z M 149.93 164.67 L 149.93 165.69 C 149.93 166.70 150.76 167.53 151.77 167.53 C 152.79 167.53 153.61 166.71 153.61 165.69 L 153.61 164.67 C 153.61 163.65 152.79 162.83 151.77 162.83 C 150.76 162.83 149.93 163.65 149.93 164.67 Z M 149.93 165.68 L 149.93 166.67 C 149.92 167.68 150.74 168.51 151.76 168.51 C 152.77 168.52 153.60 167.70 153.60 166.69 L 153.61 165.70 C 153.62 164.68 152.80 163.86 151.78 163.85 C 150.77 163.85 149.94 164.66 149.93 165.68 Z M 149.93 166.64 L 149.91 167.66 C 149.89 168.67 150.70 169.51 151.71 169.53 C 152.73 169.55 153.56 168.74 153.58 167.73 L 153.60 166.71 C 153.62 165.70 152.81 164.86 151.80 164.84 C 150.79 164.82 149.95 165.63 149.93 166.64 Z M 149.92 167.62 L 149.87 168.64 C 149.83 169.65 150.62 170.51 151.63 170.55 C 152.64 170.59 153.50 169.80 153.54 168.79 L 153.58 167.76 C 153.62 166.75 152.83 165.90 151.82 165.86 C 150.81 165.82 149.96 166.61 149.92 167.62 Z M 149.88 168.58 L 149.81 169.59 C 149.74 170.60 150.50 171.48 151.51 171.55 C 152.51 171.62 153.39 170.86 153.46 169.85 L 153.53 168.84 C 153.60 167.83 152.84 166.96 151.84 166.89 C 150.83 166.82 149.95 167.58 149.88 168.58 Z M 149.82 169.51 L 149.70 170.53 C 149.59 171.53 150.31 172.44 151.31 172.55 C 152.31 172.67 153.22 171.95 153.34 170.94 L 153.45 169.93 C 153.57 168.93 152.85 168.02 151.84 167.91 C 150.84 167.79 149.93 168.51 149.82 169.51 Z M 149.72 170.43 L 149.55 171.45 C 149.38 172.44 150.04 173.38 151.04 173.55 C 152.03 173.72 152.97 173.06 153.14 172.06 L 153.32 171.04 C 153.49 170.05 152.82 169.11 151.83 168.94 C 150.84 168.77 149.89 169.43 149.72 170.43 Z M 149.58 171.34 L 149.35 172.31 C 149.11 173.29 149.72 174.26 150.69 174.50 C 151.67 174.73 152.65 174.12 152.88 173.15 L 153.11 172.17 C 153.34 171.20 152.74 170.22 151.76 169.99 C 150.79 169.76 149.81 170.36 149.58 171.34 Z M 149.38 172.20 L 149.10 173.13 C 148.80 174.09 149.34 175.10 150.29 175.39 C 151.25 175.69 152.26 175.15 152.55 174.20 L 152.84 173.26 C 153.13 172.31 152.60 171.29 151.64 171.00 C 150.69 170.71 149.68 171.24 149.38 172.20 Z M 149.14 173.02 L 148.80 173.93 C 148.44 174.85 148.91 175.90 149.84 176.25 C 150.77 176.61 151.81 176.14 152.16 175.21 L 152.51 174.31 C 152.86 173.38 152.40 172.34 151.47 171.98 C 150.54 171.63 149.50 172.09 149.14 173.02 Z M 148.85 173.82 L 148.42 174.75 C 148.00 175.65 148.40 176.72 149.29 177.13 C 150.19 177.55 151.26 177.16 151.67 176.26 L 152.11 175.32 C 152.52 174.42 152.13 173.36 151.23 172.94 C 150.33 172.53 149.27 172.92 148.85 173.82 Z M 148.50 174.63 L 147.98 175.54 C 147.50 176.40 147.80 177.48 148.65 177.97 C 149.51 178.45 150.60 178.15 151.08 177.29 L 151.60 176.38 C 152.08 175.53 151.78 174.44 150.92 173.96 C 150.07 173.47 148.98 173.77 148.50 174.63 Z M 148.09 175.38 L 147.50 176.20 C 146.93 176.99 147.11 178.10 147.90 178.67 C 148.70 179.24 149.80 179.06 150.38 178.27 L 150.97 177.45 C 151.54 176.66 151.36 175.55 150.57 174.98 C 149.77 174.41 148.67 174.59 148.09 175.38 Z M 147.68 176.01 L 147.02 176.69 C 146.34 177.38 146.35 178.49 147.04 179.17 C 147.74 179.85 148.85 179.84 149.53 179.15 L 150.20 178.46 C 150.88 177.77 150.86 176.66 150.17 175.98 C 149.48 175.30 148.36 175.31 147.68 176.01 Z M 147.31 176.46 L 146.51 176.99 C 145.71 177.52 145.49 178.61 146.03 179.41 C 146.56 180.21 147.64 180.43 148.45 179.90 L 149.24 179.37 C 150.04 178.84 150.26 177.75 149.73 176.95 C 149.19 176.15 148.11 175.93 147.31 176.46 Z M 146.93 176.81 L 145.98 177.13 C 145.07 177.43 144.58 178.41 144.88 179.31 C 145.19 180.21 146.16 180.70 147.07 180.40 L 148.03 180.08 C 148.93 179.78 149.42 178.80 149.12 177.90 C 148.82 176.99 147.84 176.50 146.93 176.81 Z M 146.42 177.06 L 145.43 177.12 C 144.49 177.18 143.78 177.98 143.83 178.92 C 143.89 179.86 144.69 180.58 145.63 180.52 L 146.62 180.46 C 147.56 180.41 148.28 179.60 148.22 178.66 C 148.17 177.72 147.36 177.01 146.42 177.06 Z M 145.85 177.17 L 144.88 176.99 C 143.97 176.81 143.09 177.41 142.92 178.33 C 142.74 179.24 143.34 180.12 144.26 180.29 L 145.22 180.47 C 146.13 180.65 147.01 180.05 147.18 179.14 C 147.36 178.22 146.76 177.34 145.85 177.17 Z M 145.25 177.12 L 144.40 176.74 C 143.57 176.36 142.58 176.73 142.20 177.57 C 141.83 178.41 142.20 179.39 143.04 179.77 L 143.88 180.16 C 144.72 180.53 145.71 180.16 146.09 179.32 C 146.46 178.49 146.09 177.50 145.25 177.12 Z M 144.69 176.92 L 143.93 176.36 C 143.19 175.83 142.15 175.99 141.62 176.73 C 141.08 177.47 141.25 178.51 141.99 179.04 L 142.75 179.60 C 143.49 180.13 144.52 179.97 145.06 179.23 C 145.60 178.49 145.43 177.45 144.69 176.92 Z M 144.11 176.52 L 143.39 175.82 C 142.74 175.19 141.70 175.20 141.06 175.85 C 140.42 176.50 140.44 177.54 141.09 178.18 L 141.80 178.88 C 142.46 179.52 143.50 179.51 144.14 178.86 C 144.77 178.20 144.76 177.16 144.11 176.52 Z M 143.49 175.94 L 142.80 175.12 C 142.21 174.42 141.18 174.33 140.48 174.92 C 139.79 175.50 139.70 176.54 140.29 177.23 L 140.98 178.06 C 141.57 178.75 142.60 178.84 143.30 178.26 C 143.99 177.67 144.08 176.64 143.49 175.94 Z M 142.85 175.19 L 142.23 174.37 C 141.68 173.65 140.65 173.50 139.93 174.05 C 139.21 174.60 139.07 175.62 139.62 176.34 L 140.24 177.16 C 140.78 177.88 141.81 178.03 142.53 177.48 C 143.25 176.93 143.39 175.91 142.85 175.19 Z M 142.25 174.41 L 141.66 173.57 C 141.13 172.83 140.11 172.66 139.37 173.18 C 138.64 173.71 138.47 174.73 138.99 175.47 L 139.59 176.30 C 140.11 177.04 141.13 177.21 141.87 176.69 C 142.61 176.16 142.78 175.14 142.25 174.41 Z M 141.67 173.59 L 141.09 172.74 C 140.58 172.00 139.56 171.81 138.82 172.32 C 138.07 172.83 137.88 173.85 138.39 174.59 L 138.97 175.44 C 139.48 176.19 140.50 176.38 141.25 175.87 C 141.99 175.36 142.19 174.34 141.67 173.59 Z M 141.10 172.76 L 140.55 171.93 C 140.05 171.18 139.03 170.98 138.28 171.49 C 137.53 171.99 137.33 173.01 137.83 173.76 L 138.38 174.58 C 138.89 175.33 139.90 175.53 140.65 175.03 C 141.41 174.53 141.61 173.51 141.10 172.76 Z M 140.55 171.94 L 140.00 171.11 C 139.50 170.35 138.48 170.15 137.73 170.65 C 136.98 171.15 136.78 172.17 137.28 172.92 L 137.83 173.75 C 138.33 174.51 139.35 174.71 140.10 174.21 C 140.85 173.71 141.06 172.69 140.55 171.94 Z M 140.00 171.10 L 139.39 170.21 C 138.89 169.45 137.87 169.26 137.12 169.76 C 136.37 170.26 136.17 171.28 136.68 172.03 L 137.28 172.93 C 137.78 173.68 138.80 173.88 139.55 173.37 C 140.30 172.87 140.50 171.85 140.00 171.10 Z M 139.39 170.20 L 138.85 169.40 C 138.34 168.65 137.32 168.45 136.57 168.96 C 135.82 169.47 135.63 170.49 136.14 171.24 L 136.68 172.04 C 137.19 172.79 138.21 172.98 138.96 172.47 C 139.70 171.96 139.90 170.95 139.39 170.20 Z M 138.84 169.39 L 138.33 168.64 C 137.82 167.89 136.80 167.70 136.05 168.21 C 135.31 168.72 135.12 169.74 135.63 170.49 L 136.14 171.24 C 136.65 171.99 137.67 172.18 138.41 171.67 C 139.16 171.16 139.35 170.14 138.84 169.39 Z M 138.33 168.64 L 138.27 168.55 C 137.76 167.81 136.74 167.62 135.99 168.13 C 135.25 168.64 135.06 169.66 135.57 170.40 L 135.63 170.49 C 136.14 171.23 137.15 171.42 137.90 170.91 C 138.65 170.40 138.84 169.38 138.33 168.64 Z"
      fill="black"
      fill-rule="nonzero" /><path d="M 114.71 139.16 L 115.59 139.13 C 116.58 139.09 117.35 138.26 117.31 137.27 C 117.27 136.28 116.44 135.51 115.45 135.55 L 114.57 135.58 C 113.58 135.62 112.81 136.46 112.85 137.44 C 112.89 138.43 113.72 139.20 114.71 139.16 Z M 115.55 139.13 L 116.49 139.12 C 117.48 139.10 118.27 138.29 118.26 137.30 C 118.24 136.31 117.43 135.52 116.44 135.54 L 115.50 135.55 C 114.51 135.56 113.72 136.37 113.73 137.36 C 113.75 138.35 114.56 139.14 115.55 139.13 Z M 116.42 139.11 L 117.48 139.15 C 118.47 139.17 119.30 138.40 119.32 137.41 C 119.35 136.42 118.58 135.60 117.59 135.57 L 116.52 135.54 C 115.53 135.51 114.71 136.29 114.68 137.27 C 114.65 138.26 115.43 139.09 116.42 139.11 Z M 117.41 139.14 L 118.46 139.22 C 119.44 139.29 120.30 138.55 120.37 137.56 C 120.44 136.58 119.70 135.72 118.72 135.65 L 117.67 135.57 C 116.68 135.50 115.82 136.24 115.75 137.23 C 115.68 138.21 116.42 139.07 117.41 139.14 Z M 118.40 139.21 L 119.37 139.31 C 120.35 139.41 121.23 138.70 121.33 137.73 C 121.43 136.75 120.72 135.87 119.75 135.76 L 118.78 135.66 C 117.80 135.56 116.92 136.27 116.81 137.25 C 116.71 138.22 117.42 139.10 118.40 139.21 Z M 119.32 139.30 L 120.34 139.44 C 121.31 139.56 122.21 138.88 122.34 137.91 C 122.47 136.93 121.78 136.04 120.81 135.91 L 119.79 135.77 C 118.82 135.64 117.92 136.33 117.79 137.30 C 117.66 138.28 118.35 139.17 119.32 139.30 Z M 120.29 139.42 L 121.32 139.59 C 122.29 139.74 123.20 139.09 123.35 138.12 C 123.51 137.15 122.85 136.24 121.88 136.09 L 120.86 135.92 C 119.89 135.77 118.98 136.42 118.82 137.39 C 118.67 138.36 119.33 139.27 120.29 139.42 Z M 121.27 139.57 L 122.27 139.76 C 123.22 139.95 124.15 139.32 124.33 138.36 C 124.52 137.40 123.89 136.48 122.93 136.29 L 121.93 136.10 C 120.98 135.92 120.05 136.55 119.86 137.50 C 119.68 138.46 120.31 139.39 121.27 139.57 Z M 122.20 139.74 L 123.25 139.99 C 124.20 140.21 125.14 139.62 125.36 138.68 C 125.58 137.73 125.00 136.78 124.05 136.56 L 123.00 136.32 C 122.05 136.09 121.11 136.68 120.89 137.63 C 120.66 138.57 121.25 139.52 122.20 139.74 Z M 123.15 139.95 L 124.19 140.26 C 125.11 140.53 126.08 140.01 126.36 139.08 C 126.64 138.16 126.11 137.19 125.18 136.91 L 124.15 136.60 C 123.23 136.33 122.25 136.85 121.98 137.78 C 121.70 138.70 122.23 139.67 123.15 139.95 Z M 124.05 140.19 L 124.97 140.55 C 125.86 140.90 126.86 140.47 127.21 139.58 C 127.56 138.69 127.12 137.68 126.23 137.33 L 125.32 136.97 C 124.43 136.62 123.42 137.06 123.07 137.95 C 122.72 138.84 123.16 139.84 124.05 140.19 Z M 124.80 140.46 L 125.60 140.88 C 126.44 141.32 127.48 141.00 127.92 140.16 C 128.36 139.32 128.04 138.28 127.20 137.84 L 126.40 137.42 C 125.56 136.98 124.52 137.31 124.08 138.15 C 123.64 138.98 123.96 140.02 124.80 140.46 Z M 125.40 140.75 L 126.17 141.30 C 126.94 141.85 128.00 141.67 128.55 140.91 C 129.10 140.15 128.92 139.08 128.16 138.53 L 127.39 137.98 C 126.63 137.43 125.57 137.60 125.02 138.37 C 124.47 139.13 124.64 140.20 125.40 140.75 Z M 125.95 141.09 L 126.63 141.80 C 127.28 142.47 128.36 142.49 129.03 141.84 C 129.70 141.19 129.72 140.11 129.07 139.44 L 128.38 138.74 C 127.73 138.06 126.66 138.05 125.99 138.70 C 125.32 139.35 125.30 140.42 125.95 141.09 Z M 126.43 141.53 L 126.96 142.36 C 127.46 143.15 128.51 143.38 129.29 142.88 C 130.08 142.37 130.31 141.33 129.80 140.54 L 129.27 139.71 C 128.77 138.92 127.73 138.70 126.94 139.20 C 126.15 139.70 125.93 140.74 126.43 141.53 Z M 126.82 142.07 L 127.19 143.01 C 127.52 143.88 128.50 144.30 129.37 143.96 C 130.23 143.62 130.66 142.65 130.32 141.78 L 129.95 140.84 C 129.61 139.97 128.63 139.55 127.77 139.89 C 126.90 140.22 126.48 141.20 126.82 142.07 Z M 127.11 142.75 L 127.32 143.73 C 127.51 144.63 128.41 145.21 129.31 145.02 C 130.22 144.82 130.80 143.93 130.60 143.02 L 130.39 142.04 C 130.20 141.14 129.31 140.56 128.40 140.75 C 127.49 140.95 126.92 141.84 127.11 142.75 Z M 127.29 143.51 L 127.37 144.53 C 127.44 145.45 128.25 146.14 129.17 146.07 C 130.10 145.99 130.79 145.19 130.71 144.26 L 130.63 143.24 C 130.56 142.32 129.75 141.63 128.83 141.70 C 127.91 141.77 127.22 142.58 127.29 143.51 Z M 127.37 144.31 L 127.32 145.31 C 127.27 146.23 127.99 147.02 128.91 147.06 C 129.83 147.11 130.62 146.40 130.67 145.47 L 130.72 144.48 C 130.76 143.55 130.05 142.77 129.12 142.72 C 128.20 142.67 127.41 143.39 127.37 144.31 Z M 127.35 145.06 L 127.16 146.04 C 126.97 146.95 127.56 147.83 128.47 148.01 C 129.38 148.19 130.26 147.60 130.44 146.70 L 130.63 145.72 C 130.82 144.81 130.23 143.93 129.32 143.75 C 128.41 143.57 127.53 144.15 127.35 145.06 Z M 127.23 145.77 L 126.88 146.69 C 126.56 147.56 126.99 148.52 127.86 148.85 C 128.72 149.18 129.69 148.74 130.02 147.88 L 130.36 146.96 C 130.69 146.09 130.25 145.13 129.39 144.80 C 128.53 144.47 127.56 144.91 127.23 145.77 Z M 126.98 146.48 L 126.51 147.35 C 126.07 148.16 126.37 149.18 127.18 149.62 C 127.99 150.06 129.01 149.76 129.45 148.95 L 129.92 148.08 C 130.36 147.27 130.06 146.25 129.25 145.81 C 128.44 145.37 127.42 145.67 126.98 146.48 Z M 126.58 147.23 L 126.03 148.06 C 125.53 148.83 125.74 149.87 126.51 150.38 C 127.28 150.89 128.32 150.67 128.83 149.90 L 129.38 149.07 C 129.89 148.30 129.67 147.26 128.90 146.75 C 128.13 146.24 127.09 146.46 126.58 147.23 Z M 126.07 148.00 L 125.51 148.78 C 124.97 149.53 125.13 150.58 125.89 151.12 C 126.64 151.66 127.68 151.50 128.23 150.74 L 128.79 149.96 C 129.33 149.21 129.17 148.16 128.41 147.62 C 127.66 147.08 126.62 147.25 126.07 148.00 Z M 125.54 148.74 L 124.92 149.53 C 124.35 150.27 124.49 151.33 125.23 151.89 C 125.96 152.46 127.02 152.32 127.58 151.59 L 128.20 150.79 C 128.77 150.05 128.63 149.00 127.89 148.43 C 127.16 147.86 126.10 148.00 125.54 148.74 Z M 124.94 149.50 L 124.29 150.30 C 123.71 151.02 123.82 152.08 124.54 152.67 C 125.26 153.26 126.32 153.15 126.91 152.42 L 127.56 151.62 C 128.15 150.90 128.04 149.84 127.31 149.25 C 126.59 148.67 125.53 148.78 124.94 149.50 Z M 124.31 150.27 L 123.69 151.01 C 123.08 151.72 123.17 152.79 123.88 153.39 C 124.60 153.99 125.66 153.90 126.27 153.19 L 126.89 152.45 C 127.49 151.74 127.41 150.68 126.69 150.07 C 125.98 149.47 124.91 149.56 124.31 150.27 Z M 123.70 150.98 L 123.09 151.69 C 122.47 152.39 122.54 153.46 123.24 154.08 C 123.95 154.70 125.02 154.63 125.64 153.92 L 126.25 153.22 C 126.87 152.51 126.80 151.44 126.09 150.82 C 125.39 150.21 124.32 150.28 123.70 150.98 Z M 123.10 151.67 L 122.44 152.40 C 121.81 153.10 121.87 154.17 122.57 154.80 C 123.27 155.43 124.34 155.37 124.97 154.67 L 125.63 153.94 C 126.26 153.24 126.20 152.17 125.50 151.54 C 124.80 150.91 123.72 150.97 123.10 151.67 Z M 122.45 152.38 L 121.74 153.16 C 121.10 153.85 121.15 154.93 121.85 155.57 C 122.54 156.20 123.62 156.16 124.26 155.46 L 124.97 154.69 C 125.60 153.99 125.55 152.91 124.86 152.27 C 124.16 151.64 123.08 151.68 122.45 152.38 Z M 121.74 153.14 L 121.02 153.92 C 120.38 154.62 120.42 155.70 121.11 156.34 C 121.81 156.99 122.89 156.94 123.54 156.25 L 124.26 155.47 C 124.90 154.78 124.86 153.69 124.16 153.05 C 123.47 152.41 122.38 152.45 121.74 153.14 Z M 121.02 153.91 L 120.37 154.62 C 119.72 155.31 119.76 156.40 120.45 157.05 C 121.15 157.69 122.24 157.65 122.88 156.96 L 123.54 156.26 C 124.18 155.56 124.15 154.47 123.45 153.83 C 122.75 153.18 121.67 153.22 121.02 153.91 Z M 120.36 154.61 L 119.68 155.34 C 119.03 156.04 119.07 157.13 119.76 157.78 C 120.46 158.43 121.55 158.39 122.20 157.70 L 122.89 156.96 C 123.54 156.27 123.50 155.18 122.80 154.53 C 122.11 153.88 121.01 153.91 120.36 154.61 Z M 119.68 155.34 L 118.98 156.08 C 118.32 156.78 118.36 157.88 119.06 158.53 C 119.76 159.19 120.85 159.15 121.51 158.45 L 122.21 157.70 C 122.86 157.00 122.82 155.91 122.13 155.25 C 121.43 154.60 120.33 154.64 119.68 155.34 Z M 118.97 156.08 L 118.27 156.83 C 117.61 157.53 117.65 158.63 118.35 159.29 C 119.05 159.94 120.15 159.91 120.81 159.21 L 121.51 158.45 C 122.17 157.75 122.13 156.65 121.43 156.00 C 120.73 155.34 119.63 155.38 118.97 156.08 Z M 118.27 156.83 L 117.57 157.57 C 116.92 158.27 116.95 159.38 117.66 160.03 C 118.36 160.69 119.46 160.65 120.12 159.95 L 120.81 159.21 C 121.47 158.51 121.43 157.40 120.73 156.74 C 120.03 156.09 118.92 156.12 118.27 156.83 Z M 117.57 157.57 L 116.83 158.36 C 116.17 159.07 116.20 160.18 116.91 160.84 C 117.62 161.49 118.73 161.46 119.39 160.75 L 120.13 159.95 C 120.79 159.25 120.75 158.14 120.04 157.48 C 119.33 156.82 118.23 156.86 117.57 157.57 Z M 116.82 158.35 L 116.10 159.13 C 115.44 159.84 115.47 160.95 116.18 161.61 C 116.89 162.27 118.01 162.24 118.67 161.53 L 119.39 160.76 C 120.05 160.05 120.02 158.93 119.31 158.27 C 118.60 157.61 117.48 157.64 116.82 158.35 Z M 116.10 159.11 L 115.41 159.85 C 114.74 160.56 114.77 161.67 115.48 162.34 C 116.19 163.01 117.31 162.98 117.98 162.27 L 118.67 161.54 C 119.34 160.83 119.31 159.71 118.60 159.04 C 117.89 158.37 116.77 158.40 116.10 159.11 Z M 115.41 159.83 L 114.76 160.52 C 114.08 161.22 114.10 162.35 114.81 163.03 C 115.52 163.70 116.64 163.68 117.32 162.97 L 117.98 162.29 C 118.66 161.58 118.63 160.45 117.92 159.78 C 117.22 159.10 116.09 159.12 115.41 159.83 Z M 114.77 160.49 L 114.13 161.14 C 113.44 161.84 113.45 162.97 114.15 163.66 C 114.85 164.35 115.98 164.34 116.67 163.64 L 117.31 163.00 C 118.00 162.29 117.99 161.16 117.29 160.47 C 116.58 159.78 115.46 159.79 114.77 160.49 Z M 114.16 161.10 L 113.13 162.10 C 112.42 162.79 112.40 163.92 113.08 164.63 C 113.77 165.34 114.90 165.36 115.61 164.67 L 116.64 163.67 C 117.35 162.99 117.37 161.86 116.69 161.15 C 116.00 160.44 114.87 160.42 114.16 161.10 Z M 113.20 162.04 L 112.47 162.67 C 111.73 163.31 111.65 164.44 112.29 165.19 C 112.94 165.93 114.07 166.01 114.81 165.37 L 115.54 164.74 C 116.28 164.09 116.36 162.96 115.72 162.22 C 115.07 161.47 113.94 161.39 113.20 162.04 Z M 113.11 162.31 L 112.91 162.38 C 111.97 162.67 111.45 163.67 111.74 164.61 C 112.04 165.56 113.04 166.08 113.98 165.78 L 114.18 165.72 C 115.12 165.42 115.64 164.42 115.35 163.48 C 115.05 162.54 114.05 162.02 113.11 162.31 Z M 114.90 165.10 L 115.24 164.62 C 115.80 163.82 115.61 162.71 114.81 162.15 C 114.00 161.58 112.89 161.77 112.33 162.58 L 111.99 163.05 C 111.43 163.86 111.62 164.97 112.42 165.53 C 113.22 166.10 114.33 165.91 114.90 165.10 Z M 115.12 164.76 L 115.91 163.85 C 116.56 163.11 116.48 161.99 115.74 161.35 C 115.01 160.71 113.89 160.79 113.25 161.52 L 112.45 162.44 C 111.81 163.18 111.88 164.29 112.62 164.93 C 113.36 165.58 114.48 165.50 115.12 164.76 Z M 115.86 163.89 L 116.83 162.87 C 117.50 162.16 117.47 161.05 116.77 160.38 C 116.06 159.71 114.95 159.74 114.28 160.45 L 113.30 161.47 C 112.64 162.18 112.66 163.29 113.37 163.96 C 114.08 164.63 115.19 164.60 115.86 163.89 Z M 116.80 162.89 L 117.48 162.21 C 118.16 161.52 118.16 160.41 117.47 159.73 C 116.78 159.05 115.67 159.05 114.99 159.74 L 114.31 160.42 C 113.63 161.11 113.63 162.22 114.32 162.90 C 115.01 163.58 116.12 163.58 116.80 162.89 Z M 117.46 162.22 L 118.19 161.50 C 118.88 160.82 118.89 159.72 118.21 159.03 C 117.53 158.34 116.43 158.33 115.74 159.01 L 115.01 159.73 C 114.32 160.40 114.31 161.51 114.99 162.20 C 115.66 162.89 116.77 162.90 117.46 162.22 Z M 118.18 161.51 L 118.94 160.78 C 119.63 160.11 119.65 159.00 118.98 158.31 C 118.31 157.62 117.21 157.60 116.51 158.26 L 115.75 159.00 C 115.06 159.67 115.04 160.77 115.71 161.47 C 116.38 162.16 117.48 162.18 118.18 161.51 Z M 118.92 160.79 L 119.68 160.07 C 120.38 159.41 120.41 158.30 119.75 157.60 C 119.09 156.90 117.99 156.87 117.29 157.54 L 116.53 158.26 C 115.83 158.92 115.80 160.02 116.46 160.72 C 117.12 161.42 118.22 161.45 118.92 160.79 Z M 119.67 160.07 L 120.40 159.39 C 121.11 158.74 121.15 157.64 120.49 156.93 C 119.84 156.23 118.74 156.19 118.04 156.84 L 117.30 157.53 C 116.60 158.18 116.56 159.28 117.21 159.99 C 117.87 160.69 118.97 160.73 119.67 160.07 Z M 120.39 159.40 L 121.10 158.75 C 121.81 158.11 121.86 157.01 121.21 156.30 C 120.57 155.59 119.47 155.54 118.76 156.19 L 118.05 156.84 C 117.34 157.48 117.29 158.58 117.94 159.29 C 118.58 159.99 119.68 160.04 120.39 159.40 Z M 121.08 158.76 L 121.98 157.96 C 122.70 157.33 122.76 156.24 122.13 155.52 C 121.50 154.81 120.40 154.74 119.69 155.37 L 118.79 156.17 C 118.07 156.81 118.00 157.90 118.64 158.61 C 119.27 159.33 120.36 159.40 121.08 158.76 Z M 121.95 157.98 L 122.73 157.32 C 123.45 156.70 123.54 155.61 122.92 154.89 C 122.31 154.17 121.22 154.08 120.50 154.70 L 119.72 155.36 C 118.99 155.98 118.91 157.06 119.52 157.79 C 120.14 158.51 121.23 158.60 121.95 157.98 Z M 122.70 157.33 L 123.40 156.75 C 124.13 156.15 124.24 155.07 123.64 154.34 C 123.03 153.61 121.95 153.51 121.22 154.11 L 120.52 154.68 C 119.79 155.28 119.69 156.36 120.29 157.10 C 120.89 157.83 121.97 157.93 122.70 157.33 Z M 123.38 156.76 L 124.05 156.22 C 124.78 155.63 124.89 154.56 124.30 153.82 C 123.71 153.09 122.63 152.98 121.90 153.57 L 121.24 154.10 C 120.51 154.69 120.39 155.77 120.99 156.50 C 121.58 157.24 122.65 157.35 123.38 156.76 Z M 124.04 156.22 L 124.79 155.62 C 125.52 155.03 125.64 153.96 125.05 153.23 C 124.46 152.49 123.39 152.38 122.65 152.97 L 121.91 153.57 C 121.17 154.16 121.06 155.23 121.65 155.96 C 122.24 156.70 123.31 156.81 124.04 156.22 Z M 124.79 155.62 L 125.56 155.00 C 126.29 154.41 126.40 153.34 125.81 152.61 C 125.22 151.88 124.15 151.76 123.42 152.35 L 122.65 152.97 C 121.92 153.56 121.81 154.63 122.40 155.36 C 122.99 156.09 124.06 156.21 124.79 155.62 Z M 125.55 155.00 L 126.34 154.36 C 127.07 153.77 127.19 152.70 126.60 151.97 C 126.01 151.25 124.95 151.13 124.22 151.72 L 123.43 152.35 C 122.70 152.94 122.58 154.01 123.17 154.74 C 123.76 155.47 124.82 155.58 125.55 155.00 Z M 126.34 154.36 L 127.13 153.72 C 127.86 153.14 127.98 152.07 127.40 151.34 C 126.81 150.61 125.75 150.49 125.02 151.08 L 124.22 151.72 C 123.49 152.30 123.37 153.37 123.96 154.10 C 124.54 154.83 125.61 154.95 126.34 154.36 Z M 127.13 153.72 L 127.90 153.11 C 128.63 152.53 128.75 151.47 128.17 150.73 C 127.59 150.00 126.52 149.88 125.79 150.47 L 125.02 151.08 C 124.29 151.66 124.17 152.72 124.75 153.46 C 125.33 154.19 126.40 154.31 127.13 153.72 Z M 127.89 153.11 L 128.68 152.49 C 129.41 151.91 129.54 150.85 128.96 150.12 C 128.38 149.39 127.32 149.26 126.59 149.84 L 125.80 150.46 C 125.07 151.04 124.94 152.10 125.52 152.84 C 126.10 153.57 127.16 153.69 127.89 153.11 Z M 128.67 152.50 L 129.47 151.87 C 130.20 151.30 130.33 150.24 129.76 149.50 C 129.18 148.77 128.12 148.64 127.39 149.21 L 126.59 149.84 C 125.86 150.41 125.73 151.47 126.30 152.21 C 126.88 152.94 127.94 153.07 128.67 152.50 Z M 129.46 151.88 L 130.26 151.26 C 130.99 150.69 131.13 149.63 130.56 148.90 C 129.99 148.16 128.93 148.02 128.20 148.59 L 127.40 149.21 C 126.66 149.78 126.53 150.84 127.10 151.57 C 127.67 152.31 128.72 152.44 129.46 151.88 Z M 130.25 151.26 L 131.04 150.66 C 131.78 150.10 131.92 149.04 131.36 148.30 C 130.79 147.56 129.74 147.42 129.00 147.98 L 128.21 148.59 C 127.47 149.15 127.33 150.21 127.89 150.95 C 128.45 151.68 129.51 151.83 130.25 151.26 Z M 131.03 150.67 L 131.83 150.07 C 132.57 149.51 132.72 148.46 132.16 147.72 C 131.60 146.97 130.55 146.82 129.81 147.38 L 129.01 147.98 C 128.27 148.54 128.12 149.59 128.67 150.33 C 129.23 151.07 130.29 151.22 131.03 150.67 Z M 131.81 150.08 L 132.62 149.48 C 133.37 148.93 133.53 147.88 132.98 147.13 C 132.43 146.39 131.37 146.23 130.63 146.78 L 129.82 147.37 C 129.07 147.92 128.91 148.97 129.46 149.72 C 130.01 150.47 131.07 150.63 131.81 150.08 Z M 132.61 149.49 L 133.42 148.90 C 134.17 148.36 134.34 147.31 133.79 146.56 C 133.25 145.81 132.20 145.64 131.45 146.18 L 130.64 146.77 C 129.89 147.31 129.72 148.36 130.26 149.11 C 130.81 149.86 131.86 150.03 132.61 149.49 Z M 133.41 148.91 L 134.21 148.34 C 134.97 147.80 135.14 146.75 134.61 146.00 C 134.07 145.24 133.02 145.07 132.27 145.60 L 131.46 146.18 C 130.71 146.71 130.53 147.76 131.07 148.52 C 131.61 149.27 132.65 149.45 133.41 148.91 Z M 134.21 148.34 L 135.02 147.76 C 135.78 147.23 135.96 146.19 135.43 145.43 C 134.89 144.67 133.85 144.49 133.09 145.03 L 132.28 145.60 C 131.52 146.13 131.34 147.18 131.87 147.94 C 132.40 148.69 133.45 148.87 134.21 148.34 Z M 135.02 147.76 L 135.84 147.18 C 136.60 146.65 136.78 145.61 136.25 144.85 C 135.72 144.09 134.67 143.91 133.92 144.45 L 133.09 145.03 C 132.34 145.56 132.16 146.60 132.69 147.36 C 133.22 148.12 134.27 148.30 135.02 147.76 Z M 135.85 147.18 L 136.67 146.60 C 137.43 146.06 137.60 145.02 137.07 144.26 C 136.53 143.51 135.49 143.33 134.74 143.87 L 133.91 144.45 C 133.16 144.98 132.98 146.03 133.51 146.78 C 134.05 147.54 135.09 147.72 135.85 147.18 Z M 136.68 146.59 L 137.49 146.01 C 138.24 145.47 138.41 144.43 137.87 143.68 C 137.34 142.92 136.29 142.75 135.54 143.29 L 134.73 143.87 C 133.98 144.41 133.81 145.46 134.34 146.21 C 134.88 146.96 135.93 147.13 136.68 146.59 Z M 137.49 146.01 L 138.30 145.42 C 139.05 144.88 139.22 143.83 138.68 143.08 C 138.14 142.34 137.09 142.17 136.34 142.71 L 135.53 143.30 C 134.78 143.84 134.62 144.88 135.16 145.63 C 135.70 146.38 136.75 146.55 137.49 146.01 Z M 138.31 145.42 L 139.12 144.83 C 139.87 144.28 140.03 143.24 139.49 142.49 C 138.94 141.74 137.90 141.58 137.15 142.12 L 136.34 142.71 C 135.59 143.26 135.43 144.30 135.97 145.05 C 136.52 145.80 137.56 145.96 138.31 145.42 Z M 139.12 144.83 L 139.93 144.23 C 140.68 143.69 140.84 142.64 140.29 141.90 C 139.75 141.15 138.70 140.99 137.96 141.53 L 137.15 142.12 C 136.40 142.67 136.24 143.72 136.78 144.46 C 137.33 145.21 138.37 145.37 139.12 144.83 Z M 139.93 144.23 L 140.74 143.65 C 141.48 143.10 141.64 142.05 141.10 141.31 C 140.55 140.56 139.51 140.40 138.76 140.94 L 137.96 141.53 C 137.21 142.08 137.05 143.12 137.59 143.87 C 138.14 144.62 139.18 144.78 139.93 144.23 Z M 140.73 143.65 L 141.54 143.06 C 142.29 142.51 142.45 141.47 141.90 140.72 C 141.36 139.98 140.31 139.81 139.57 140.36 L 138.76 140.94 C 138.02 141.49 137.85 142.53 138.40 143.28 C 138.94 144.03 139.99 144.19 140.73 143.65 Z M 141.54 143.06 L 142.35 142.47 C 143.09 141.93 143.26 140.88 142.72 140.14 C 142.17 139.39 141.13 139.22 140.38 139.77 L 139.57 140.35 C 138.82 140.90 138.66 141.94 139.20 142.69 C 139.74 143.44 140.79 143.60 141.54 143.06 Z M 142.34 142.48 L 143.16 141.89 C 143.90 141.35 144.07 140.30 143.53 139.55 C 142.99 138.80 141.95 138.64 141.20 139.18 L 140.38 139.76 C 139.63 140.31 139.47 141.35 140.01 142.10 C 140.55 142.85 141.59 143.02 142.34 142.48 Z M 143.15 141.89 L 143.95 141.32 C 144.70 140.78 144.88 139.73 144.34 138.98 C 143.80 138.23 142.75 138.06 142.00 138.60 L 141.20 139.17 C 140.45 139.71 140.28 140.76 140.82 141.51 C 141.36 142.26 142.40 142.43 143.15 141.89 Z M 143.95 141.32 L 144.75 140.75 C 145.50 140.21 145.67 139.17 145.14 138.42 C 144.60 137.67 143.56 137.49 142.81 138.03 L 142.01 138.60 C 141.26 139.13 141.08 140.18 141.62 140.93 C 142.15 141.68 143.20 141.86 143.95 141.32 Z M 144.75 140.75 L 145.56 140.18 C 146.31 139.64 146.48 138.60 145.95 137.84 C 145.41 137.09 144.37 136.91 143.62 137.45 L 142.81 138.03 C 142.05 138.56 141.88 139.61 142.41 140.36 C 142.95 141.11 143.99 141.29 144.75 140.75 Z M 145.56 140.17 L 146.38 139.59 C 147.13 139.05 147.31 138.01 146.77 137.25 C 146.24 136.50 145.19 136.33 144.44 136.86 L 143.62 137.45 C 142.86 137.99 142.69 139.03 143.22 139.78 C 143.76 140.54 144.81 140.71 145.56 140.17 Z M 146.39 139.58 L 147.22 138.98 C 147.97 138.45 148.14 137.40 147.61 136.65 C 147.07 135.90 146.02 135.73 145.27 136.27 L 144.44 136.87 C 143.69 137.40 143.51 138.45 144.05 139.20 C 144.59 139.95 145.64 140.12 146.39 139.58 Z M 147.23 138.98 L 148.04 138.39 C 148.79 137.85 148.96 136.80 148.42 136.05 C 147.88 135.31 146.83 135.14 146.08 135.68 L 145.27 136.27 C 144.52 136.81 144.35 137.86 144.89 138.60 C 145.43 139.35 146.48 139.52 147.23 138.98 Z M 148.05 138.39 L 148.87 137.79 C 149.61 137.24 149.78 136.20 149.24 135.45 C 148.69 134.71 147.65 134.54 146.90 135.09 L 146.08 135.68 C 145.33 136.23 145.17 137.27 145.71 138.02 C 146.26 138.77 147.30 138.93 148.05 138.39 Z M 148.87 137.79 L 149.69 137.19 C 150.43 136.64 150.59 135.60 150.05 134.85 C 149.50 134.11 148.45 133.95 147.71 134.49 L 146.89 135.09 C 146.15 135.63 145.99 136.68 146.53 137.43 C 147.08 138.17 148.13 138.33 148.87 137.79 Z M 149.69 137.19 L 150.49 136.60 C 151.23 136.05 151.39 135.00 150.84 134.26 C 150.29 133.52 149.24 133.36 148.50 133.91 L 147.71 134.49 C 146.96 135.04 146.80 136.09 147.35 136.83 C 147.90 137.58 148.95 137.73 149.69 137.19 Z M 150.49 136.60 L 151.30 136.00 C 152.04 135.45 152.20 134.40 151.65 133.66 C 151.10 132.91 150.05 132.76 149.31 133.31 L 148.50 133.91 C 147.76 134.46 147.60 135.51 148.15 136.25 C 148.70 136.99 149.75 137.15 150.49 136.60 Z M 151.30 135.99 L 152.13 135.38 C 152.87 134.83 153.02 133.78 152.47 133.04 C 151.92 132.30 150.87 132.14 150.13 132.70 L 149.31 133.31 C 148.57 133.86 148.41 134.91 148.96 135.65 C 149.51 136.39 150.56 136.55 151.30 135.99 Z M 152.13 135.38 L 152.93 134.78 C 153.67 134.23 153.82 133.18 153.27 132.44 C 152.71 131.70 151.67 131.55 150.93 132.10 L 150.13 132.70 C 149.39 133.25 149.24 134.30 149.79 135.04 C 150.34 135.78 151.39 135.93 152.13 135.38 Z M 152.93 134.78 L 153.71 134.20 C 154.45 133.64 154.60 132.60 154.04 131.86 C 153.49 131.12 152.44 130.97 151.70 131.52 L 150.92 132.10 C 150.19 132.66 150.04 133.71 150.59 134.44 C 151.14 135.18 152.19 135.33 152.93 134.78 Z M 153.71 134.20 L 154.49 133.61 C 155.23 133.06 155.38 132.01 154.83 131.27 C 154.27 130.53 153.22 130.38 152.48 130.93 L 151.70 131.52 C 150.96 132.08 150.81 133.12 151.37 133.86 C 151.92 134.60 152.97 134.75 153.71 134.20 Z M 154.49 133.61 L 155.30 133.00 C 156.04 132.45 156.19 131.40 155.63 130.66 C 155.08 129.92 154.03 129.77 153.29 130.33 L 152.48 130.93 C 151.74 131.49 151.60 132.54 152.15 133.28 C 152.70 134.01 153.75 134.16 154.49 133.61 Z M 155.30 133.00 L 156.10 132.40 C 156.84 131.84 156.99 130.79 156.43 130.06 C 155.88 129.32 154.83 129.17 154.09 129.73 L 153.29 130.33 C 152.55 130.88 152.40 131.93 152.96 132.67 C 153.51 133.41 154.56 133.56 155.30 133.00 Z M 156.11 132.40 L 156.90 131.80 C 157.64 131.24 157.78 130.19 157.22 129.45 C 156.67 128.72 155.62 128.57 154.88 129.13 L 154.09 129.73 C 153.35 130.28 153.21 131.33 153.76 132.07 C 154.32 132.81 155.37 132.95 156.11 132.40 Z M 156.90 131.79 L 157.70 131.19 C 158.43 130.63 158.57 129.58 158.01 128.85 C 157.46 128.11 156.41 127.97 155.67 128.53 L 154.88 129.13 C 154.14 129.69 154.00 130.74 154.56 131.48 C 155.12 132.21 156.17 132.35 156.90 131.79 Z M 157.70 131.19 L 158.50 130.57 C 159.24 130.01 159.38 128.96 158.81 128.23 C 158.25 127.50 157.20 127.36 156.47 127.92 L 155.67 128.53 C 154.93 129.09 154.79 130.14 155.36 130.88 C 155.92 131.61 156.97 131.75 157.70 131.19 Z M 158.51 130.57 L 159.30 129.96 C 160.03 129.40 160.16 128.35 159.60 127.62 C 159.04 126.88 157.99 126.75 157.25 127.31 L 156.46 127.92 C 155.73 128.48 155.60 129.53 156.16 130.27 C 156.72 131.00 157.77 131.13 158.51 130.57 Z M 159.30 129.96 L 160.08 129.36 C 160.81 128.79 160.95 127.74 160.38 127.01 C 159.82 126.28 158.77 126.14 158.04 126.71 L 157.25 127.31 C 156.52 127.88 156.39 128.93 156.95 129.66 C 157.52 130.39 158.57 130.53 159.30 129.96 Z M 160.08 129.36 L 160.88 128.74 C 161.61 128.18 161.74 127.13 161.18 126.39 C 160.61 125.66 159.56 125.53 158.83 126.09 L 158.03 126.71 C 157.30 127.27 157.17 128.32 157.73 129.06 C 158.30 129.79 159.35 129.92 160.08 129.36 Z M 160.88 128.74 L 161.68 128.12 C 162.41 127.56 162.54 126.51 161.98 125.78 C 161.42 125.05 160.36 124.91 159.63 125.47 L 158.83 126.09 C 158.10 126.66 157.96 127.71 158.53 128.44 C 159.09 129.17 160.15 129.31 160.88 128.74 Z M 161.68 128.13 L 162.47 127.52 C 163.20 126.95 163.34 125.90 162.77 125.17 C 162.21 124.44 161.16 124.30 160.43 124.86 L 159.63 125.47 C 158.90 126.04 158.77 127.09 159.33 127.82 C 159.89 128.55 160.94 128.69 161.68 128.13 Z M 162.46 127.52 L 163.24 126.92 C 163.98 126.36 164.12 125.31 163.55 124.58 C 162.99 123.84 161.94 123.70 161.21 124.27 L 160.43 124.86 C 159.70 125.42 159.56 126.47 160.12 127.21 C 160.68 127.94 161.73 128.08 162.46 127.52 Z M 163.24 126.93 L 164.04 126.32 C 164.78 125.76 164.92 124.71 164.36 123.97 C 163.80 123.24 162.75 123.09 162.02 123.65 L 161.21 124.26 C 160.48 124.82 160.33 125.87 160.89 126.61 C 161.45 127.34 162.50 127.49 163.24 126.93 Z M 164.04 126.32 L 164.83 125.72 C 165.57 125.16 165.71 124.11 165.15 123.37 C 164.59 122.63 163.54 122.49 162.81 123.05 L 162.01 123.65 C 161.28 124.21 161.14 125.26 161.70 126.00 C 162.26 126.73 163.31 126.88 164.04 126.32 Z M 164.84 125.71 L 165.63 125.11 C 166.36 124.54 166.50 123.49 165.94 122.76 C 165.37 122.02 164.32 121.89 163.59 122.45 L 162.80 123.05 C 162.07 123.62 161.93 124.67 162.49 125.40 C 163.05 126.14 164.11 126.27 164.84 125.71 Z M 165.64 125.10 L 166.40 124.50 C 167.12 123.93 167.25 122.88 166.68 122.15 C 166.11 121.43 165.06 121.30 164.33 121.87 L 163.58 122.46 C 162.85 123.03 162.72 124.08 163.29 124.81 C 163.86 125.54 164.91 125.67 165.64 125.10 Z M 166.40 124.49 L 167.15 123.90 C 167.88 123.33 168.00 122.27 167.42 121.55 C 166.85 120.83 165.80 120.71 165.07 121.28 L 164.33 121.88 C 163.60 122.45 163.48 123.50 164.06 124.23 C 164.63 124.95 165.68 125.07 166.40 124.49 Z M 167.16 123.89 L 167.94 123.27 C 168.66 122.69 168.78 121.64 168.20 120.92 C 167.63 120.20 166.58 120.08 165.86 120.66 L 165.07 121.29 C 164.35 121.86 164.24 122.91 164.81 123.63 C 165.39 124.35 166.44 124.47 167.16 123.89 Z M 167.94 123.27 L 168.77 122.60 C 169.49 122.02 169.61 120.98 169.03 120.26 C 168.46 119.54 167.41 119.42 166.69 120.00 L 165.86 120.66 C 165.14 121.24 165.02 122.28 165.60 123.00 C 166.17 123.72 167.22 123.84 167.94 123.27 Z M 168.77 122.60 L 169.51 122.01 C 170.23 121.44 170.35 120.39 169.78 119.67 C 169.21 118.95 168.16 118.83 167.44 119.40 L 166.70 119.99 C 165.98 120.57 165.86 121.61 166.43 122.33 C 167.00 123.05 168.05 123.17 168.77 122.60 Z M 169.51 122.01 L 170.27 121.41 C 170.99 120.84 171.12 119.79 170.55 119.07 C 169.98 118.35 168.93 118.23 168.21 118.80 L 167.44 119.40 C 166.72 119.97 166.60 121.02 167.17 121.74 C 167.74 122.46 168.79 122.58 169.51 122.01 Z M 170.27 121.41 L 171.06 120.79 C 171.79 120.22 171.91 119.17 171.35 118.45 C 170.78 117.73 169.73 117.60 169.01 118.17 L 168.21 118.79 C 167.49 119.36 167.36 120.41 167.93 121.13 C 168.50 121.86 169.55 121.98 170.27 121.41 Z M 171.06 120.79 L 171.88 120.15 C 172.61 119.59 172.73 118.54 172.17 117.81 C 171.60 117.09 170.55 116.96 169.83 117.53 L 169.01 118.16 C 168.28 118.73 168.15 119.78 168.72 120.51 C 169.29 121.23 170.34 121.36 171.06 120.79 Z M 171.88 120.16 L 172.79 119.45 C 173.52 118.89 173.65 117.84 173.08 117.11 C 172.52 116.38 171.47 116.24 170.74 116.81 L 169.83 117.52 C 169.10 118.08 168.96 119.14 169.53 119.87 C 170.10 120.60 171.15 120.73 171.88 120.16 Z M 172.79 119.48 L 173.84 118.68 C 174.59 118.11 174.73 117.05 174.16 116.30 C 173.60 115.56 172.53 115.42 171.79 115.98 L 170.74 116.79 C 169.99 117.35 169.85 118.42 170.42 119.16 C 170.98 119.90 172.05 120.05 172.79 119.48 Z M 173.82 118.74 L 174.70 118.11 C 175.47 117.56 175.65 116.48 175.10 115.70 C 174.55 114.93 173.47 114.75 172.69 115.30 L 171.82 115.92 C 171.04 116.48 170.86 117.55 171.41 118.33 C 171.96 119.11 173.04 119.29 173.82 118.74 Z M 174.54 118.24 L 175.10 117.94 C 175.95 117.47 176.26 116.40 175.79 115.55 C 175.32 114.70 174.26 114.39 173.40 114.86 L 172.85 115.16 C 172.00 115.63 171.69 116.70 172.16 117.55 C 172.62 118.40 173.69 118.71 174.54 118.24 Z M 172.55 116.94 L 172.62 117.16 C 172.92 118.10 173.92 118.62 174.86 118.32 C 175.80 118.03 176.32 117.02 176.02 116.08 L 175.95 115.86 C 175.66 114.92 174.65 114.40 173.71 114.70 C 172.77 114.99 172.25 116.00 172.55 116.94 Z M 172.77 115.70 L 172.28 116.51 C 171.77 117.37 172.05 118.48 172.91 118.99 C 173.77 119.50 174.88 119.22 175.39 118.36 L 175.87 117.54 C 176.38 116.69 176.10 115.58 175.24 115.07 C 174.39 114.56 173.28 114.84 172.77 115.70 Z M 172.30 116.44 L 171.54 117.62 C 170.99 118.46 171.23 119.59 172.07 120.14 C 172.92 120.69 174.05 120.45 174.60 119.61 L 175.37 118.43 C 175.92 117.59 175.68 116.46 174.83 115.91 C 173.99 115.36 172.85 115.60 172.30 116.44 Z M 171.50 117.65 L 170.96 118.53 C 170.43 119.40 170.71 120.54 171.58 121.07 C 172.45 121.60 173.58 121.32 174.11 120.45 L 174.65 119.57 C 175.18 118.70 174.90 117.57 174.03 117.04 C 173.16 116.51 172.02 116.78 171.50 117.65 Z M 170.92 118.58 L 170.42 119.46 C 169.91 120.36 170.22 121.49 171.12 122.00 C 172.01 122.50 173.14 122.19 173.65 121.30 L 174.15 120.41 C 174.66 119.52 174.34 118.38 173.45 117.88 C 172.56 117.37 171.42 117.68 170.92 118.58 Z M 170.38 119.50 L 169.91 120.39 C 169.42 121.30 169.76 122.44 170.68 122.92 C 171.59 123.41 172.72 123.06 173.21 122.15 L 173.68 121.26 C 174.17 120.35 173.82 119.21 172.91 118.73 C 172.00 118.24 170.87 118.59 170.38 119.50 Z M 169.87 120.42 L 169.43 121.30 C 168.97 122.23 169.34 123.36 170.27 123.83 C 171.20 124.30 172.33 123.92 172.80 122.99 L 173.24 122.12 C 173.71 121.19 173.34 120.05 172.40 119.59 C 171.47 119.12 170.34 119.49 169.87 120.42 Z M 169.40 121.33 L 168.96 122.27 C 168.51 123.22 168.91 124.35 169.86 124.80 C 170.81 125.25 171.94 124.84 172.39 123.89 L 172.83 122.96 C 173.28 122.01 172.88 120.88 171.93 120.43 C 170.98 119.98 169.85 120.38 169.40 121.33 Z M 168.93 122.31 L 168.52 123.24 C 168.09 124.20 168.53 125.33 169.49 125.76 C 170.45 126.18 171.58 125.75 172.01 124.79 L 172.42 123.85 C 172.84 122.89 172.41 121.76 171.45 121.34 C 170.48 120.91 169.36 121.35 168.93 122.31 Z M 168.49 123.28 L 168.12 124.18 C 167.72 125.16 168.18 126.28 169.16 126.68 C 170.14 127.09 171.26 126.62 171.66 125.64 L 172.03 124.74 C 172.44 123.76 171.97 122.64 170.99 122.24 C 170.01 121.84 168.89 122.31 168.49 123.28 Z M 168.09 124.22 L 167.75 125.12 C 167.37 126.11 167.86 127.22 168.86 127.60 C 169.85 127.98 170.96 127.49 171.34 126.50 L 171.69 125.60 C 172.07 124.61 171.57 123.50 170.58 123.12 C 169.59 122.74 168.48 123.23 168.09 124.22 Z M 167.73 125.15 L 167.39 126.11 C 167.03 127.11 167.55 128.22 168.55 128.58 C 169.56 128.94 170.66 128.42 171.02 127.41 L 171.37 126.46 C 171.73 125.45 171.20 124.35 170.20 123.99 C 169.20 123.63 168.09 124.15 167.73 125.15 Z M 167.36 126.15 L 167.05 127.10 C 166.71 128.12 167.26 129.22 168.28 129.55 C 169.30 129.89 170.39 129.34 170.73 128.32 L 171.04 127.37 C 171.38 126.35 170.83 125.26 169.81 124.92 C 168.80 124.58 167.70 125.14 167.36 126.15 Z M 167.03 127.15 L 166.74 128.10 C 166.43 129.13 167.02 130.21 168.05 130.52 C 169.07 130.83 170.16 130.25 170.47 129.22 L 170.75 128.27 C 171.06 127.24 170.48 126.16 169.45 125.85 C 168.42 125.54 167.34 126.12 167.03 127.15 Z M 166.72 128.16 L 166.49 129.03 C 166.21 130.07 166.83 131.14 167.87 131.42 C 168.91 131.69 169.98 131.08 170.26 130.03 L 170.49 129.16 C 170.77 128.12 170.15 127.05 169.11 126.77 C 168.07 126.49 167.00 127.11 166.72 128.16 Z M 166.46 129.12 L 166.27 130.02 C 166.04 131.07 166.71 132.11 167.76 132.34 C 168.82 132.57 169.86 131.90 170.09 130.85 L 170.28 129.95 C 170.51 128.89 169.84 127.85 168.79 127.62 C 167.73 127.39 166.69 128.06 166.46 129.12 Z M 166.24 130.12 L 166.08 131.13 C 165.91 132.20 166.64 133.20 167.71 133.37 C 168.78 133.54 169.78 132.82 169.95 131.75 L 170.11 130.74 C 170.28 129.67 169.55 128.67 168.49 128.50 C 167.42 128.33 166.41 129.05 166.24 130.12 Z M 166.06 131.23 L 165.94 132.36 C 165.83 133.44 166.61 134.41 167.69 134.52 C 168.77 134.64 169.74 133.85 169.85 132.78 L 169.97 131.64 C 170.08 130.57 169.30 129.60 168.22 129.49 C 167.14 129.37 166.18 130.15 166.06 131.23 Z M 165.94 132.45 L 165.88 133.42 C 165.81 134.51 166.63 135.44 167.72 135.51 C 168.80 135.57 169.73 134.75 169.80 133.66 L 169.86 132.69 C 169.92 131.61 169.10 130.67 168.02 130.61 C 166.93 130.54 166.00 131.37 165.94 132.45 Z M 165.87 133.53 L 165.86 134.56 C 165.85 135.65 166.73 136.53 167.81 136.54 C 168.90 136.55 169.79 135.68 169.79 134.59 L 169.80 133.56 C 169.81 132.47 168.94 131.59 167.85 131.58 C 166.77 131.57 165.88 132.44 165.87 133.53 Z M 165.87 134.71 L 165.94 135.74 C 166.01 136.83 166.94 137.65 168.03 137.58 C 169.11 137.51 169.93 136.57 169.86 135.49 L 169.79 134.45 C 169.72 133.36 168.78 132.54 167.70 132.62 C 166.62 132.69 165.80 133.62 165.87 134.71 Z M 165.96 135.95 L 166.13 136.94 C 166.32 138.01 167.33 138.73 168.40 138.54 C 169.47 138.36 170.19 137.34 170.01 136.27 L 169.83 135.28 C 169.65 134.21 168.63 133.49 167.56 133.68 C 166.49 133.86 165.77 134.88 165.96 135.95 Z M 166.21 137.24 L 166.52 138.14 C 166.87 139.17 167.99 139.72 169.01 139.37 C 170.04 139.01 170.59 137.90 170.24 136.87 L 169.93 135.97 C 169.58 134.94 168.46 134.39 167.43 134.74 C 166.40 135.09 165.86 136.21 166.21 137.24 Z M 166.71 138.55 L 167.26 139.42 C 167.84 140.34 169.05 140.61 169.97 140.03 C 170.89 139.45 171.16 138.24 170.58 137.32 L 170.04 136.46 C 169.46 135.54 168.25 135.26 167.33 135.84 C 166.41 136.42 166.14 137.64 166.71 138.55 Z M 167.56 139.78 L 168.27 140.47 C 169.05 141.22 170.29 141.20 171.04 140.42 C 171.80 139.64 171.77 138.40 170.99 137.64 L 170.29 136.96 C 169.51 136.21 168.26 136.23 167.51 137.01 C 166.76 137.79 166.78 139.03 167.56 139.78 Z M 168.56 140.70 L 169.39 141.23 C 170.30 141.82 171.51 141.57 172.10 140.66 C 172.69 139.75 172.43 138.54 171.52 137.95 L 170.70 137.41 C 169.79 136.82 168.58 137.08 167.99 137.99 C 167.40 138.90 167.66 140.11 168.56 140.70 Z M 169.63 141.36 L 170.52 141.78 C 171.50 142.24 172.66 141.82 173.12 140.84 C 173.58 139.86 173.16 138.70 172.18 138.24 L 171.29 137.82 C 170.31 137.36 169.14 137.78 168.69 138.76 C 168.23 139.74 168.65 140.90 169.63 141.36 Z M 170.69 141.84 L 171.60 142.17 C 172.61 142.53 173.73 142.01 174.09 141.00 C 174.45 139.99 173.93 138.87 172.92 138.51 L 172.01 138.18 C 171.00 137.82 169.88 138.34 169.52 139.35 C 169.15 140.36 169.68 141.48 170.69 141.84 Z M 171.75 142.20 L 172.68 142.46 C 173.71 142.74 174.77 142.14 175.06 141.11 C 175.34 140.08 174.74 139.02 173.71 138.74 L 172.77 138.48 C 171.75 138.19 170.68 138.80 170.40 139.83 C 170.12 140.85 170.72 141.92 171.75 142.20 Z M 172.81 142.47 L 173.78 142.67 C 174.82 142.89 175.83 142.22 176.05 141.18 C 176.26 140.15 175.59 139.14 174.56 138.92 L 173.58 138.72 C 172.55 138.51 171.53 139.17 171.32 140.21 C 171.11 141.25 171.77 142.26 172.81 142.47 Z M 173.89 142.68 L 174.91 142.83 C 175.95 142.99 176.92 142.27 177.07 141.24 C 177.23 140.20 176.52 139.23 175.48 139.07 L 174.46 138.92 C 173.42 138.76 172.45 139.48 172.29 140.51 C 172.14 141.55 172.85 142.52 173.89 142.68 Z M 174.98 142.82 L 175.96 142.93 C 176.99 143.05 177.92 142.31 178.04 141.27 C 178.15 140.24 177.41 139.31 176.38 139.19 L 175.41 139.08 C 174.37 138.97 173.44 139.71 173.32 140.74 C 173.21 141.77 173.95 142.71 174.98 142.82 Z M 176.01 142.92 L 176.96 143.00 C 177.99 143.09 178.89 142.33 178.98 141.31 C 179.07 140.28 178.31 139.38 177.28 139.29 L 176.33 139.21 C 175.30 139.12 174.40 139.88 174.31 140.90 C 174.22 141.93 174.98 142.83 176.01 142.92 Z M 177.00 142.99 L 177.99 143.05 C 179.01 143.12 179.89 142.35 179.95 141.33 C 180.02 140.31 179.25 139.44 178.23 139.37 L 177.24 139.30 C 176.23 139.24 175.35 140.01 175.28 141.02 C 175.21 142.04 175.98 142.92 177.00 142.99 Z M 178.02 143.03 L 179.05 143.08 C 180.05 143.13 180.91 142.36 180.96 141.35 C 181.01 140.34 180.23 139.49 179.22 139.44 L 178.20 139.39 C 177.20 139.34 176.34 140.11 176.29 141.12 C 176.24 142.13 177.02 142.99 178.02 143.03 Z M 179.07 143.07 L 180.12 143.10 C 181.12 143.14 181.95 142.36 181.99 141.36 C 182.02 140.36 181.24 139.53 180.25 139.49 L 179.20 139.45 C 178.20 139.42 177.36 140.20 177.33 141.20 C 177.29 142.19 178.07 143.03 179.07 143.07 Z M 180.14 143.09 L 181.15 143.11 C 182.14 143.13 182.96 142.35 182.98 141.36 C 183.01 140.38 182.23 139.56 181.24 139.53 L 180.22 139.51 C 179.24 139.49 178.42 140.27 178.39 141.25 C 178.37 142.24 179.15 143.06 180.14 143.09 Z M 181.18 143.09 L 182.17 143.10 C 183.14 143.11 183.95 142.33 183.96 141.35 C 183.97 140.38 183.19 139.57 182.21 139.56 L 181.22 139.55 C 180.24 139.54 179.44 140.32 179.43 141.30 C 179.42 142.28 180.20 143.08 181.18 143.09 Z M 182.20 143.08 L 183.20 143.08 C 184.16 143.07 184.94 142.29 184.94 141.32 C 184.93 140.35 184.15 139.57 183.18 139.58 L 182.18 139.58 C 181.21 139.59 180.43 140.37 180.44 141.34 C 180.44 142.31 181.23 143.09 182.20 143.08 Z M 183.23 143.06 L 184.24 143.03 C 185.19 143.01 185.95 142.21 185.92 141.26 C 185.90 140.30 185.10 139.54 184.15 139.57 L 183.14 139.60 C 182.18 139.62 181.43 140.42 181.45 141.37 C 181.48 142.33 182.28 143.09 183.23 143.06 Z M 184.28 143.01 L 185.29 142.96 C 186.23 142.91 186.96 142.11 186.91 141.16 C 186.86 140.21 186.05 139.49 185.11 139.54 L 184.10 139.59 C 183.16 139.64 182.43 140.45 182.48 141.39 C 182.53 142.34 183.33 143.06 184.28 143.01 Z M 185.34 142.94 L 186.34 142.86 C 187.28 142.78 187.97 141.96 187.89 141.03 C 187.82 140.09 187.00 139.40 186.06 139.48 L 185.06 139.56 C 184.12 139.64 183.43 140.46 183.51 141.39 C 183.58 142.32 184.40 143.02 185.34 142.94 Z M 186.40 142.84 L 187.41 142.72 C 188.33 142.61 188.99 141.78 188.88 140.85 C 188.78 139.93 187.94 139.27 187.02 139.38 L 186.01 139.49 C 185.08 139.60 184.42 140.44 184.53 141.36 C 184.64 142.28 185.47 142.95 186.40 142.84 Z M 187.46 142.70 L 188.46 142.56 C 189.37 142.42 190.01 141.57 189.87 140.66 C 189.74 139.74 188.89 139.11 187.97 139.24 L 186.97 139.39 C 186.05 139.53 185.42 140.38 185.56 141.29 C 185.69 142.21 186.54 142.84 187.46 142.70 Z M 188.50 142.54 L 189.49 142.37 C 190.40 142.21 191.00 141.35 190.85 140.44 C 190.69 139.54 189.83 138.93 188.92 139.09 L 187.93 139.26 C 187.02 139.42 186.42 140.28 186.57 141.18 C 186.73 142.09 187.59 142.70 188.50 142.54 Z M 189.52 142.35 L 190.50 142.17 C 191.40 141.99 191.98 141.12 191.81 140.22 C 191.63 139.32 190.76 138.74 189.87 138.91 L 188.89 139.10 C 187.99 139.28 187.41 140.15 187.58 141.04 C 187.75 141.94 188.62 142.53 189.52 142.35 Z M 190.52 142.15 L 191.48 141.95 C 192.37 141.76 192.94 140.89 192.75 140.00 C 192.56 139.11 191.69 138.54 190.80 138.72 L 189.84 138.93 C 188.95 139.11 188.38 139.99 188.57 140.88 C 188.76 141.77 189.63 142.34 190.52 142.15 Z M 191.50 141.94 L 192.48 141.72 C 193.37 141.52 193.93 140.65 193.73 139.76 C 193.53 138.88 192.65 138.32 191.77 138.51 L 190.78 138.73 C 189.90 138.93 189.34 139.81 189.54 140.69 C 189.73 141.58 190.61 142.14 191.50 141.94 Z M 192.50 141.71 L 193.49 141.48 C 194.37 141.28 194.92 140.40 194.71 139.52 C 194.51 138.63 193.63 138.09 192.74 138.29 L 191.76 138.52 C 190.87 138.73 190.32 139.61 190.53 140.49 C 190.73 141.37 191.62 141.92 192.50 141.71 Z M 193.50 141.48 L 194.47 141.25 C 195.35 141.04 195.89 140.15 195.68 139.27 C 195.47 138.39 194.59 137.85 193.70 138.06 L 192.73 138.29 C 191.85 138.51 191.31 139.39 191.52 140.27 C 191.73 141.15 192.62 141.69 193.50 141.48 Z M 194.48 141.24 L 195.44 141.01 C 196.32 140.79 196.85 139.91 196.64 139.03 C 196.42 138.15 195.53 137.61 194.66 137.83 L 193.70 138.06 C 192.82 138.28 192.28 139.17 192.50 140.05 C 192.71 140.92 193.60 141.46 194.48 141.24 Z M 195.44 141.01 L 196.40 140.77 C 197.27 140.55 197.81 139.66 197.59 138.79 C 197.37 137.91 196.48 137.37 195.60 137.59 L 194.65 137.83 C 193.77 138.05 193.24 138.94 193.46 139.81 C 193.68 140.69 194.57 141.23 195.44 141.01 Z M 196.40 140.77 L 196.73 140.69 C 197.61 140.47 198.14 139.58 197.92 138.70 C 197.70 137.82 196.81 137.29 195.94 137.51 L 195.60 137.59 C 194.73 137.81 194.19 138.70 194.41 139.58 C 194.63 140.46 195.52 140.99 196.40 140.77 Z"
      fill="black"
      fill-rule="nonzero" /></svg>