<svg xmlns="http://www.w3.org/2000/svg" width="300" height="300" viewBox="0 0 300 300">
<path d="M 133.21 111.22 L 132.72 112.05 C 132.27 112.83 132.54 113.82 133.31 114.27 C 134.09 114.72 135.08 114.46 135.53 113.69 L 136.02 112.85 C 136.47 112.08 136.21 111.08 135.43 110.63 C 134.66 110.18 133.66 110.44 133.21 111.22 Z M 132.70 112.04 L 132.21 112.89 C 131.75 113.68 132.02 114.69 132.81 115.15 C 133.60 115.60 134.61 115.33 135.06 114.54 L 135.56 113.70 C 136.01 112.91 135.74 111.90 134.95 111.44 C 134.17 110.99 133.16 111.26 132.70 112.04 Z M 132.18 112.89 L 131.68 113.77 C 131.23 114.57 131.50 115.59 132.31 116.05 C 133.11 116.51 134.13 116.23 134.59 115.43 L 135.09 114.55 C 135.55 113.75 135.27 112.72 134.47 112.27 C 133.66 111.81 132.64 112.09 132.18 112.89 Z M 131.66 113.77 L 131.16 114.66 C 130.70 115.48 130.99 116.51 131.81 116.97 C 132.63 117.42 133.66 117.13 134.12 116.31 L 134.62 115.43 C 135.07 114.61 134.78 113.57 133.96 113.12 C 133.15 112.66 132.11 112.95 131.66 113.77 Z M 131.14 114.67 L 130.71 115.46 C 130.26 116.28 130.56 117.32 131.38 117.77 C 132.21 118.22 133.24 117.92 133.70 117.10 L 134.13 116.31 C 134.59 115.48 134.28 114.45 133.46 113.99 C 132.63 113.54 131.60 113.84 131.14 114.67 Z M 130.71 115.46 L 130.25 116.30 C 129.80 117.12 130.11 118.16 130.93 118.61 C 131.76 119.06 132.79 118.75 133.24 117.93 L 133.70 117.09 C 134.15 116.27 133.84 115.23 133.02 114.78 C 132.19 114.33 131.16 114.64 130.71 115.46 Z M 130.26 116.30 L 129.77 117.19 C 129.32 118.01 129.63 119.05 130.45 119.49 C 131.27 119.94 132.31 119.64 132.76 118.82 L 133.24 117.93 C 133.69 117.10 133.39 116.07 132.56 115.62 C 131.74 115.17 130.70 115.47 130.26 116.30 Z M 129.77 117.18 L 129.25 118.13 C 128.80 118.96 129.10 119.99 129.93 120.44 C 130.75 120.89 131.78 120.59 132.23 119.77 L 132.75 118.82 C 133.21 118.00 132.90 116.96 132.08 116.51 C 131.26 116.06 130.23 116.36 129.77 117.18 Z M 129.26 118.13 L 128.74 119.06 C 128.29 119.88 128.58 120.91 129.40 121.36 C 130.22 121.82 131.26 121.52 131.71 120.70 L 132.23 119.77 C 132.68 118.95 132.39 117.92 131.57 117.47 C 130.75 117.01 129.71 117.31 129.26 118.13 Z M 128.75 119.05 L 128.25 119.93 C 127.80 120.75 128.09 121.78 128.90 122.24 C 129.72 122.70 130.75 122.41 131.21 121.59 L 131.70 120.71 C 132.16 119.89 131.87 118.86 131.06 118.40 C 130.24 117.94 129.21 118.24 128.75 119.05 Z M 128.26 119.93 L 127.75 120.83 C 127.29 121.64 127.57 122.67 128.39 123.13 C 129.20 123.59 130.23 123.31 130.69 122.50 L 131.20 121.60 C 131.66 120.78 131.38 119.75 130.57 119.29 C 129.75 118.83 128.72 119.12 128.26 119.93 Z M 127.76 120.82 L 127.24 121.72 C 126.78 122.53 127.06 123.56 127.87 124.02 C 128.68 124.49 129.71 124.20 130.18 123.40 L 130.69 122.50 C 131.15 121.69 130.87 120.66 130.06 120.20 C 129.25 119.73 128.22 120.01 127.76 120.82 Z M 127.25 121.71 L 126.75 122.58 C 126.28 123.38 126.56 124.42 127.36 124.88 C 128.17 125.35 129.20 125.07 129.67 124.27 L 130.17 123.40 C 130.64 122.59 130.36 121.56 129.55 121.10 C 128.75 120.63 127.72 120.91 127.25 121.71 Z M 126.76 122.57 L 126.28 123.39 C 125.81 124.19 126.08 125.22 126.88 125.69 C 127.68 126.16 128.71 125.89 129.18 125.09 L 129.66 124.27 C 130.13 123.47 129.86 122.44 129.06 121.97 C 128.26 121.50 127.23 121.77 126.76 122.57 Z M 126.29 123.38 L 125.72 124.33 C 125.25 125.13 125.51 126.16 126.31 126.63 C 127.11 127.10 128.14 126.84 128.61 126.05 L 129.17 125.10 C 129.65 124.30 129.38 123.27 128.59 122.80 C 127.79 122.33 126.76 122.59 126.29 123.38 Z M 125.74 124.32 L 125.20 125.21 C 124.72 126.00 124.98 127.02 125.77 127.50 C 126.55 127.98 127.58 127.73 128.06 126.94 L 128.59 126.05 C 129.07 125.26 128.82 124.24 128.03 123.76 C 127.24 123.28 126.22 123.53 125.74 124.32 Z M 125.22 125.21 L 124.71 126.02 C 124.23 126.80 124.48 127.83 125.26 128.31 C 126.04 128.79 127.06 128.54 127.54 127.76 L 128.04 126.94 C 128.52 126.16 128.28 125.14 127.50 124.66 C 126.72 124.18 125.70 124.42 125.22 125.21 Z M 124.72 126.02 L 124.24 126.81 C 123.76 127.58 124.00 128.60 124.77 129.08 C 125.55 129.56 126.56 129.32 127.04 128.54 L 127.53 127.76 C 128.01 126.99 127.77 125.97 127.00 125.49 C 126.22 125.01 125.20 125.25 124.72 126.02 Z M 124.25 126.81 L 123.75 127.61 C 123.27 128.39 123.51 129.40 124.28 129.88 C 125.05 130.35 126.06 130.11 126.54 129.34 L 127.04 128.54 C 127.52 127.77 127.28 126.76 126.51 126.28 C 125.74 125.80 124.72 126.04 124.25 126.81 Z M 123.75 127.62 L 123.24 128.45 C 122.76 129.22 123.00 130.23 123.77 130.70 C 124.54 131.18 125.54 130.94 126.02 130.17 L 126.54 129.34 C 127.01 128.57 126.77 127.56 126.00 127.09 C 125.24 126.61 124.23 126.85 123.75 127.62 Z M 123.24 128.45 L 122.71 129.30 C 122.24 130.07 122.48 131.08 123.24 131.55 C 124.01 132.02 125.01 131.79 125.49 131.02 L 126.01 130.17 C 126.49 129.41 126.25 128.40 125.49 127.93 C 124.72 127.45 123.72 127.69 123.24 128.45 Z M 122.72 129.30 L 122.18 130.17 C 121.70 130.93 121.94 131.93 122.70 132.41 C 123.46 132.89 124.46 132.65 124.94 131.89 L 125.48 131.02 C 125.96 130.26 125.72 129.26 124.96 128.78 C 124.20 128.31 123.20 128.54 122.72 129.30 Z M 122.19 130.17 L 121.65 131.02 C 121.18 131.77 121.40 132.78 122.16 133.25 C 122.92 133.73 123.92 133.50 124.40 132.74 L 124.93 131.89 C 125.41 131.14 125.18 130.13 124.42 129.66 C 123.67 129.18 122.67 129.41 122.19 130.17 Z M 121.66 131.01 L 121.13 131.84 C 120.65 132.60 120.87 133.60 121.62 134.08 C 122.38 134.56 123.38 134.34 123.86 133.58 L 124.39 132.75 C 124.87 132.00 124.65 131.00 123.89 130.52 C 123.14 130.04 122.14 130.26 121.66 131.01 Z M 121.14 131.83 L 120.60 132.67 C 120.11 133.42 120.32 134.42 121.07 134.91 C 121.82 135.39 122.82 135.18 123.30 134.43 L 123.85 133.59 C 124.33 132.84 124.12 131.85 123.37 131.36 C 122.62 130.88 121.63 131.09 121.14 131.83 Z M 120.61 132.66 L 120.05 133.50 C 119.56 134.24 119.76 135.24 120.50 135.73 C 121.24 136.23 122.24 136.03 122.73 135.29 L 123.29 134.44 C 123.78 133.70 123.58 132.70 122.84 132.21 C 122.10 131.72 121.10 131.92 120.61 132.66 Z M 120.06 133.49 L 119.49 134.32 C 118.99 135.06 119.18 136.05 119.91 136.55 C 120.64 137.05 121.64 136.87 122.14 136.13 L 122.71 135.30 C 123.21 134.57 123.03 133.57 122.29 133.07 C 121.56 132.57 120.56 132.76 120.06 133.49 Z M 119.51 134.31 L 118.94 135.12 C 118.43 135.84 118.60 136.84 119.33 137.35 C 120.05 137.86 121.05 137.68 121.56 136.96 L 122.13 136.15 C 122.64 135.43 122.46 134.43 121.74 133.92 C 121.02 133.41 120.02 133.58 119.51 134.31 Z M 118.95 135.10 L 118.37 135.91 C 117.85 136.62 118.01 137.62 118.73 138.14 C 119.44 138.65 120.44 138.49 120.96 137.78 L 121.54 136.97 C 122.06 136.26 121.90 135.26 121.19 134.74 C 120.47 134.23 119.47 134.39 118.95 135.10 Z M 118.38 135.89 L 117.79 136.70 C 117.26 137.41 117.41 138.41 118.12 138.93 C 118.83 139.45 119.83 139.30 120.35 138.60 L 120.95 137.79 C 121.47 137.08 121.32 136.08 120.62 135.56 C 119.91 135.04 118.91 135.19 118.38 135.89 Z M 117.80 136.69 L 117.19 137.50 C 116.66 138.20 116.80 139.20 117.50 139.73 C 118.21 140.26 119.20 140.12 119.73 139.41 L 120.34 138.61 C 120.87 137.90 120.73 136.91 120.03 136.38 C 119.33 135.85 118.33 135.99 117.80 136.69 Z M 117.20 137.49 L 116.60 138.28 C 116.06 138.97 116.20 139.97 116.89 140.51 C 117.59 141.04 118.59 140.91 119.12 140.21 L 119.72 139.42 C 120.26 138.72 120.12 137.73 119.43 137.19 C 118.73 136.66 117.73 136.79 117.20 137.49 Z M 116.60 138.27 L 116.00 139.05 C 115.46 139.75 115.59 140.74 116.28 141.28 C 116.98 141.82 117.97 141.69 118.51 141.00 L 119.11 140.21 C 119.65 139.52 119.52 138.52 118.83 137.99 C 118.14 137.45 117.14 137.58 116.60 138.27 Z M 116.00 139.05 L 115.39 139.84 C 114.85 140.53 114.98 141.52 115.67 142.06 C 116.36 142.60 117.35 142.48 117.89 141.79 L 118.50 141.00 C 119.04 140.31 118.92 139.31 118.23 138.78 C 117.54 138.24 116.54 138.36 116.00 139.05 Z M 115.40 139.84 L 114.77 140.63 C 114.23 141.32 114.35 142.31 115.04 142.85 C 115.73 143.39 116.72 143.27 117.26 142.58 L 117.89 141.79 C 118.42 141.10 118.30 140.11 117.62 139.57 C 116.93 139.03 115.94 139.15 115.40 139.84 Z M 114.78 140.63 L 114.15 141.43 C 113.61 142.11 113.72 143.11 114.41 143.65 C 115.09 144.19 116.09 144.07 116.63 143.38 L 117.26 142.58 C 117.80 141.90 117.68 140.90 117.00 140.36 C 116.31 139.82 115.32 139.94 114.78 140.63 Z M 114.15 141.43 L 113.52 142.23 C 112.97 142.91 113.09 143.91 113.78 144.45 C 114.46 144.99 115.45 144.87 115.99 144.19 L 116.63 143.38 C 117.17 142.70 117.05 141.71 116.37 141.17 C 115.68 140.63 114.69 140.74 114.15 141.43 Z M 113.52 142.23 L 112.88 143.03 C 112.34 143.71 112.46 144.70 113.14 145.24 C 113.82 145.78 114.81 145.67 115.35 144.99 L 115.99 144.19 C 116.53 143.50 116.41 142.51 115.73 141.97 C 115.05 141.43 114.06 141.55 113.52 142.23 Z M 112.89 143.03 L 112.26 143.82 C 111.72 144.50 111.83 145.49 112.51 146.03 C 113.19 146.57 114.18 146.46 114.72 145.78 L 115.35 144.99 C 115.89 144.31 115.78 143.32 115.10 142.78 C 114.42 142.23 113.43 142.35 112.89 143.03 Z M 112.26 143.81 L 111.65 144.58 C 111.11 145.26 111.22 146.25 111.89 146.79 C 112.57 147.34 113.56 147.23 114.10 146.55 L 114.72 145.78 C 115.26 145.10 115.15 144.11 114.47 143.57 C 113.80 143.03 112.81 143.14 112.26 143.81 Z M 111.65 144.58 L 111.03 145.35 C 110.49 146.02 110.60 147.01 111.27 147.56 C 111.95 148.10 112.94 148.00 113.48 147.32 L 114.10 146.55 C 114.64 145.88 114.54 144.89 113.86 144.34 C 113.19 143.80 112.20 143.90 111.65 144.58 Z M 111.04 145.35 L 110.37 146.17 C 109.82 146.84 109.93 147.83 110.60 148.38 C 111.27 148.92 112.26 148.82 112.81 148.15 L 113.47 147.32 C 114.02 146.65 113.92 145.66 113.25 145.12 C 112.57 144.57 111.59 144.67 111.04 145.35 Z M 110.37 146.17 L 109.74 146.95 C 109.19 147.62 109.29 148.61 109.96 149.15 C 110.63 149.70 111.62 149.60 112.16 148.93 L 112.80 148.15 C 113.35 147.48 113.25 146.49 112.58 145.94 C 111.91 145.40 110.92 145.50 110.37 146.17 Z M 109.74 146.95 L 109.13 147.69 C 108.58 148.36 108.68 149.35 109.35 149.90 C 110.02 150.45 111.00 150.35 111.55 149.68 L 112.16 148.93 C 112.71 148.26 112.61 147.27 111.94 146.73 C 111.27 146.18 110.29 146.28 109.74 146.95 Z M 109.13 147.70 L 108.52 148.44 C 107.97 149.11 108.07 150.10 108.74 150.64 C 109.41 151.19 110.40 151.09 110.95 150.42 L 111.55 149.67 C 112.10 149.00 112.00 148.02 111.33 147.47 C 110.66 146.93 109.67 147.03 109.13 147.70 Z M 108.52 148.44 L 107.86 149.25 C 107.32 149.92 107.42 150.91 108.10 151.45 C 108.77 152.00 109.75 151.89 110.30 151.22 L 110.95 150.41 C 111.49 149.74 111.39 148.75 110.72 148.21 C 110.05 147.67 109.06 147.77 108.52 148.44 Z M 107.86 149.26 L 107.24 150.04 C 106.70 150.71 106.81 151.70 107.48 152.24 C 108.15 152.78 109.14 152.67 109.68 151.99 L 110.30 151.21 C 110.84 150.54 110.73 149.56 110.06 149.02 C 109.38 148.48 108.40 148.58 107.86 149.26 Z M 107.23 150.04 L 106.64 150.80 C 106.10 151.47 106.21 152.45 106.89 152.99 C 107.56 153.53 108.55 153.41 109.08 152.74 L 109.68 151.99 C 110.22 151.31 110.10 150.33 109.43 149.79 C 108.75 149.25 107.77 149.37 107.23 150.04 Z M 106.63 150.80 L 106.03 151.56 C 105.50 152.24 105.62 153.22 106.30 153.75 C 106.98 154.29 107.96 154.17 108.49 153.49 L 109.09 152.73 C 109.62 152.05 109.50 151.07 108.82 150.54 C 108.15 150.01 107.16 150.12 106.63 150.80 Z M 106.02 151.58 L 105.43 152.35 C 104.91 153.03 105.03 154.01 105.72 154.54 C 106.40 155.06 107.38 154.93 107.91 154.25 L 108.50 153.48 C 109.03 152.79 108.90 151.81 108.21 151.29 C 107.53 150.76 106.55 150.89 106.02 151.58 Z M 105.41 152.37 L 104.81 153.19 C 104.30 153.88 104.45 154.86 105.14 155.37 C 105.83 155.88 106.81 155.74 107.32 155.04 L 107.92 154.23 C 108.44 153.53 108.29 152.56 107.60 152.04 C 106.90 151.53 105.93 151.68 105.41 152.37 Z M 104.79 153.22 L 104.22 154.03 C 103.72 154.73 103.89 155.71 104.59 156.20 C 105.30 156.70 106.27 156.53 106.77 155.83 L 107.34 155.01 C 107.84 154.31 107.67 153.34 106.97 152.84 C 106.26 152.34 105.29 152.51 104.79 153.22 Z M 104.20 154.05 L 103.66 154.85 C 103.17 155.56 103.36 156.54 104.07 157.02 C 104.78 157.50 105.76 157.32 106.24 156.61 L 106.78 155.80 C 107.27 155.09 107.08 154.12 106.37 153.64 C 105.66 153.15 104.69 153.34 104.20 154.05 Z M 103.65 154.86 L 103.09 155.71 C 102.61 156.43 102.81 157.40 103.52 157.87 C 104.24 158.35 105.21 158.15 105.69 157.44 L 106.25 156.59 C 106.73 155.87 106.53 154.91 105.81 154.43 C 105.09 153.95 104.13 154.15 103.65 154.86 Z M 103.08 155.72 L 102.51 156.58 C 102.04 157.30 102.24 158.27 102.96 158.75 C 103.68 159.22 104.65 159.02 105.12 158.30 L 105.69 157.43 C 106.17 156.71 105.97 155.74 105.25 155.27 C 104.52 154.79 103.56 155.00 103.08 155.72 Z M 102.51 156.59 L 102.28 156.95 C 101.80 157.67 102.01 158.64 102.73 159.11 C 103.45 159.58 104.42 159.38 104.89 158.66 L 105.13 158.29 C 105.60 157.57 105.39 156.61 104.67 156.13 C 103.95 155.66 102.98 155.86 102.51 156.59 Z"
      fill="black"
      fill-rule="nonzero" /><path d="M 121.72 137.75 L 122.38 138.53 C 122.95 139.21 123.97 139.29 124.65 138.71 C 125.33 138.14 125.41 137.12 124.83 136.44 L 124.17 135.67 C 123.60 134.99 122.58 134.91 121.90 135.48 C 121.22 136.06 121.14 137.08 121.72 137.75 Z M 122.30 138.49 L 122.92 139.29 C 123.47 140.01 124.51 140.14 125.23 139.58 C 125.95 139.03 126.08 137.99 125.52 137.27 L 124.91 136.48 C 124.35 135.76 123.32 135.63 122.60 136.18 C 121.88 136.74 121.74 137.77 122.30 138.49 Z M 122.79 139.18 L 123.32 140.02 C 123.82 140.80 124.86 141.04 125.65 140.54 C 126.43 140.04 126.67 139.00 126.17 138.22 L 125.64 137.38 C 125.15 136.60 124.11 136.36 123.32 136.86 C 122.53 137.35 122.30 138.39 122.79 139.18 Z M 123.18 139.81 L 123.57 140.69 C 123.95 141.56 124.96 141.95 125.83 141.57 C 126.70 141.19 127.09 140.17 126.71 139.30 L 126.32 138.42 C 125.93 137.55 124.92 137.16 124.05 137.55 C 123.18 137.93 122.79 138.94 123.18 139.81 Z M 123.46 140.43 L 123.69 141.34 C 123.93 142.26 124.88 142.82 125.80 142.58 C 126.73 142.34 127.29 141.40 127.05 140.47 L 126.81 139.57 C 126.57 138.64 125.63 138.08 124.70 138.32 C 123.78 138.56 123.22 139.50 123.46 140.43 Z M 123.65 141.13 L 123.78 142.10 C 123.91 143.05 124.78 143.72 125.73 143.59 C 126.67 143.46 127.34 142.59 127.22 141.65 L 127.09 140.68 C 126.96 139.73 126.09 139.06 125.14 139.19 C 124.19 139.31 123.53 140.18 123.65 141.13 Z M 123.77 141.97 L 123.83 143.00 C 123.88 143.96 124.70 144.69 125.65 144.63 C 126.61 144.58 127.34 143.76 127.29 142.81 L 127.23 141.78 C 127.17 140.82 126.36 140.09 125.40 140.14 C 124.45 140.20 123.72 141.01 123.77 141.97 Z M 123.82 142.94 L 123.85 144.01 C 123.87 144.96 124.66 145.72 125.61 145.70 C 126.57 145.68 127.33 144.89 127.31 143.94 L 127.29 142.87 C 127.27 141.91 126.48 141.15 125.52 141.17 C 124.56 141.19 123.81 141.98 123.82 142.94 Z M 123.85 143.99 L 123.86 145.01 C 123.87 145.97 124.65 146.74 125.61 146.73 C 126.56 146.72 127.33 145.93 127.32 144.98 L 127.31 143.95 C 127.30 143.00 126.52 142.23 125.56 142.24 C 124.60 142.25 123.84 143.03 123.85 143.99 Z M 123.86 145.00 L 123.86 146.04 C 123.87 146.99 124.65 147.76 125.60 147.76 C 126.56 147.75 127.33 146.97 127.32 146.02 L 127.32 144.99 C 127.31 144.03 126.53 143.26 125.58 143.26 C 124.62 143.27 123.85 144.05 123.86 145.00 Z M 123.86 146.03 L 123.87 147.04 C 123.87 148.00 124.64 148.77 125.60 148.77 C 126.56 148.77 127.33 147.99 127.33 147.03 L 127.32 146.02 C 127.32 145.07 126.55 144.30 125.59 144.30 C 124.63 144.30 123.86 145.08 123.86 146.03 Z M 123.87 147.04 L 123.87 147.99 C 123.87 148.95 124.64 149.72 125.60 149.72 C 126.55 149.72 127.33 148.95 127.33 147.99 L 127.33 147.04 C 127.33 146.08 126.55 145.31 125.60 145.31 C 124.64 145.31 123.87 146.08 123.87 147.04 Z M 123.87 147.99 L 123.87 149.06 C 123.87 150.01 124.64 150.78 125.60 150.78 C 126.55 150.78 127.32 150.01 127.32 149.06 L 127.32 147.99 C 127.32 147.04 126.55 146.26 125.60 146.26 C 124.64 146.26 123.87 147.04 123.87 147.99 Z M 123.87 149.06 L 123.87 150.07 C 123.87 151.02 124.65 151.79 125.60 151.79 C 126.55 151.79 127.32 151.02 127.32 150.07 L 127.32 149.06 C 127.32 148.10 126.55 147.33 125.60 147.33 C 124.65 147.33 123.87 148.10 123.87 149.06 Z M 123.88 150.07 L 123.88 151.01 C 123.88 151.96 124.65 152.73 125.60 152.73 C 126.55 152.73 127.31 151.96 127.31 151.01 L 127.31 150.07 C 127.31 149.12 126.55 148.35 125.60 148.35 C 124.65 148.35 123.88 149.12 123.88 150.07 Z M 123.88 151.01 L 123.88 151.95 C 123.88 152.90 124.65 153.67 125.60 153.67 C 126.54 153.67 127.31 152.90 127.31 151.95 L 127.31 151.01 C 127.31 150.07 126.54 149.30 125.60 149.30 C 124.65 149.30 123.88 150.07 123.88 151.01 Z M 123.89 151.95 L 123.89 152.92 C 123.88 153.87 124.65 154.64 125.59 154.64 C 126.53 154.64 127.30 153.88 127.30 152.94 L 127.30 151.96 C 127.31 151.02 126.54 150.25 125.60 150.25 C 124.66 150.24 123.89 151.01 123.89 151.95 Z M 123.89 152.91 L 123.88 153.91 C 123.87 154.85 124.62 155.63 125.56 155.64 C 126.50 155.65 127.27 154.90 127.28 153.96 L 127.30 152.95 C 127.31 152.01 126.56 151.24 125.62 151.23 C 124.67 151.21 123.90 151.97 123.89 152.91 Z M 123.88 153.89 L 123.85 154.92 C 123.83 155.86 124.57 156.64 125.50 156.67 C 126.44 156.69 127.22 155.95 127.25 155.02 L 127.28 153.98 C 127.31 153.04 126.57 152.26 125.63 152.24 C 124.69 152.21 123.91 152.95 123.88 153.89 Z M 123.86 154.89 L 123.81 155.87 C 123.77 156.81 124.49 157.60 125.43 157.64 C 126.36 157.69 127.15 156.96 127.20 156.03 L 127.24 155.05 C 127.29 154.11 126.57 153.32 125.63 153.28 C 124.70 153.23 123.90 153.96 123.86 154.89 Z M 123.82 155.85 L 123.76 156.85 C 123.70 157.78 124.41 158.58 125.34 158.63 C 126.27 158.69 127.07 157.98 127.13 157.05 L 127.19 156.05 C 127.25 155.12 126.54 154.32 125.61 154.27 C 124.68 154.21 123.88 154.92 123.82 155.85 Z M 123.77 156.83 L 123.70 157.84 C 123.64 158.77 124.33 159.57 125.26 159.64 C 126.19 159.70 126.99 159.00 127.05 158.07 L 127.12 157.07 C 127.19 156.14 126.49 155.34 125.56 155.27 C 124.63 155.21 123.83 155.91 123.77 156.83 Z M 123.71 157.84 L 123.63 158.84 C 123.57 159.77 124.26 160.57 125.18 160.64 C 126.10 160.70 126.91 160.01 126.97 159.09 L 127.05 158.08 C 127.11 157.16 126.42 156.35 125.50 156.29 C 124.57 156.22 123.77 156.91 123.71 157.84 Z M 123.64 158.84 L 123.57 159.85 C 123.50 160.76 124.19 161.56 125.11 161.63 C 126.03 161.70 126.83 161.01 126.89 160.09 L 126.97 159.09 C 127.04 158.17 126.34 157.37 125.43 157.30 C 124.51 157.23 123.71 157.92 123.64 158.84 Z M 123.57 159.84 L 123.50 160.84 C 123.43 161.76 124.12 162.55 125.03 162.62 C 125.95 162.69 126.75 162.00 126.82 161.08 L 126.89 160.09 C 126.96 159.17 126.27 158.38 125.35 158.31 C 124.44 158.24 123.64 158.93 123.57 159.84 Z M 123.50 160.84 L 123.43 161.83 C 123.36 162.75 124.05 163.54 124.96 163.61 C 125.87 163.68 126.67 162.99 126.74 162.08 L 126.81 161.08 C 126.88 160.17 126.19 159.38 125.28 159.31 C 124.37 159.24 123.57 159.93 123.50 160.84 Z M 123.43 161.83 L 123.36 162.83 C 123.29 163.74 123.98 164.53 124.89 164.60 C 125.80 164.67 126.59 163.98 126.66 163.07 L 126.73 162.08 C 126.80 161.17 126.11 160.37 125.20 160.31 C 124.29 160.24 123.50 160.92 123.43 161.83 Z M 123.37 162.83 L 123.30 163.83 C 123.23 164.74 123.91 165.53 124.82 165.59 C 125.73 165.66 126.52 164.97 126.58 164.07 L 126.65 163.07 C 126.72 162.16 126.03 161.37 125.13 161.31 C 124.22 161.24 123.43 161.93 123.37 162.83 Z M 123.30 163.84 L 123.23 164.84 C 123.17 165.74 123.86 166.52 124.76 166.58 C 125.67 166.64 126.45 165.96 126.51 165.06 L 126.58 164.06 C 126.64 163.15 125.95 162.37 125.05 162.31 C 124.14 162.25 123.36 162.94 123.30 163.84 Z M 123.24 164.85 L 123.18 165.85 C 123.13 166.75 123.82 167.53 124.72 167.58 C 125.62 167.63 126.39 166.94 126.45 166.04 L 126.50 165.04 C 126.56 164.14 125.87 163.37 124.97 163.31 C 124.07 163.26 123.29 163.95 123.24 164.85 Z M 123.19 165.86 L 123.14 166.87 C 123.09 167.77 123.78 168.53 124.68 168.58 C 125.58 168.62 126.35 167.93 126.39 167.03 L 126.44 166.03 C 126.49 165.13 125.79 164.36 124.89 164.32 C 123.99 164.27 123.23 164.97 123.19 165.86 Z M 123.14 166.88 L 123.10 167.88 C 123.06 168.78 123.76 169.53 124.65 169.57 C 125.55 169.61 126.31 168.92 126.34 168.02 L 126.39 167.02 C 126.42 166.12 125.73 165.37 124.83 165.33 C 123.94 165.29 123.18 165.98 123.14 166.88 Z M 123.10 167.89 L 123.07 168.88 C 123.03 169.78 123.73 170.53 124.62 170.56 C 125.51 170.60 126.26 169.90 126.30 169.01 L 126.34 168.01 C 126.37 167.12 125.68 166.37 124.78 166.33 C 123.89 166.30 123.14 167.00 123.10 167.89 Z M 123.07 168.88 L 123.03 169.89 C 123.00 170.78 123.69 171.53 124.58 171.56 C 125.47 171.60 126.22 170.90 126.26 170.01 L 126.29 169.01 C 126.33 168.12 125.63 167.37 124.74 167.33 C 123.85 167.30 123.11 167.99 123.07 168.88 Z M 123.04 169.90 L 123.00 170.91 C 122.97 171.79 123.66 172.54 124.55 172.57 C 125.44 172.60 126.18 171.91 126.21 171.02 L 126.25 170.01 C 126.28 169.13 125.59 168.38 124.70 168.35 C 123.82 168.32 123.07 169.01 123.04 169.90 Z M 123.01 170.91 L 122.98 171.91 C 122.95 172.79 123.64 173.53 124.53 173.56 C 125.41 173.59 126.15 172.89 126.18 172.01 L 126.21 171.01 C 126.24 170.13 125.54 169.39 124.66 169.37 C 123.77 169.34 123.04 170.03 123.01 170.91 Z M 122.98 171.92 L 122.96 172.91 C 122.94 173.79 123.64 174.52 124.52 174.54 C 125.40 174.56 126.13 173.86 126.15 172.98 L 126.17 172.00 C 126.19 171.11 125.49 170.38 124.61 170.36 C 123.73 170.34 123.00 171.04 122.98 171.92 Z M 122.97 172.92 L 122.95 173.94 C 122.94 174.81 123.64 175.53 124.52 175.54 C 125.40 175.56 126.12 174.85 126.13 173.98 L 126.14 172.96 C 126.15 172.09 125.45 171.37 124.57 171.35 C 123.70 171.34 122.98 172.05 122.97 172.92 Z M 122.96 173.95 L 122.95 174.94 C 122.95 175.82 123.65 176.53 124.53 176.54 C 125.40 176.54 126.12 175.83 126.12 174.96 L 126.13 173.96 C 126.13 173.09 125.42 172.38 124.55 172.37 C 123.67 172.37 122.96 173.07 122.96 173.95 Z M 122.96 174.95 L 122.96 175.94 C 122.96 176.81 123.66 177.52 124.53 177.52 C 125.41 177.52 126.11 176.81 126.11 175.94 L 126.12 174.95 C 126.12 174.08 125.41 173.37 124.54 173.37 C 123.67 173.37 122.96 174.08 122.96 174.95 Z M 122.96 175.94 L 122.96 176.92 C 122.96 177.79 123.67 178.49 124.54 178.49 C 125.41 178.49 126.11 177.78 126.11 176.91 L 126.11 175.94 C 126.11 175.07 125.40 174.36 124.53 174.37 C 123.67 174.37 122.96 175.07 122.96 175.94 Z M 122.97 176.92 L 122.97 177.91 C 122.97 178.78 123.68 179.48 124.55 179.47 C 125.41 179.47 126.11 178.77 126.11 177.90 L 126.11 176.91 C 126.10 176.04 125.40 175.34 124.53 175.34 C 123.66 175.35 122.96 176.05 122.97 176.92 Z M 122.97 177.92 L 122.99 178.94 C 123.00 179.81 123.71 180.50 124.57 180.49 C 125.43 180.48 126.13 179.77 126.12 178.91 L 126.11 177.89 C 126.10 177.02 125.39 176.33 124.52 176.34 C 123.66 176.35 122.96 177.06 122.97 177.92 Z M 122.99 178.96 L 123.01 179.95 C 123.03 180.81 123.74 181.49 124.61 181.48 C 125.47 181.46 126.15 180.74 126.14 179.88 L 126.12 178.89 C 126.10 178.03 125.38 177.34 124.52 177.36 C 123.66 177.38 122.97 178.09 122.99 178.96 Z M 123.01 179.96 L 123.04 180.95 C 123.06 181.81 123.78 182.49 124.65 182.47 C 125.51 182.44 126.19 181.72 126.16 180.86 L 126.13 179.87 C 126.11 179.01 125.39 178.33 124.53 178.35 C 123.67 178.38 122.99 179.10 123.01 179.96 Z M 123.04 180.96 L 123.07 181.97 C 123.10 182.83 123.82 183.51 124.69 183.48 C 125.55 183.45 126.22 182.73 126.20 181.86 L 126.16 180.85 C 126.13 179.99 125.41 179.31 124.55 179.34 C 123.69 179.37 123.01 180.09 123.04 180.96 Z M 123.07 181.97 L 123.11 182.93 C 123.14 183.79 123.86 184.47 124.72 184.44 C 125.59 184.41 126.26 183.68 126.23 182.82 L 126.19 181.86 C 126.16 181.00 125.44 180.33 124.58 180.36 C 123.72 180.39 123.04 181.11 123.07 181.97 Z"
      fill="black"
      fill-rule="nonzero" /><path d="M 157.17 103.08 L 156.88 104.06 C 156.62 104.93 157.12 105.85 158.00 106.11 C 158.87 106.36 159.79 105.86 160.05 104.99 L 160.34 104.01 C 160.59 103.13 160.09 102.22 159.22 101.96 C 158.34 101.70 157.42 102.20 157.17 103.08 Z M 156.86 104.08 L 156.59 105.05 C 156.34 105.94 156.87 106.86 157.75 107.10 C 158.64 107.35 159.56 106.83 159.80 105.94 L 160.07 104.97 C 160.32 104.08 159.79 103.16 158.91 102.92 C 158.02 102.67 157.10 103.19 156.86 104.08 Z M 156.56 105.11 L 156.33 106.07 C 156.11 106.97 156.67 107.88 157.58 108.10 C 158.48 108.31 159.39 107.76 159.60 106.85 L 159.83 105.89 C 160.05 104.98 159.49 104.08 158.59 103.86 C 157.68 103.64 156.78 104.20 156.56 105.11 Z M 156.30 106.16 L 156.12 107.11 C 155.95 108.03 156.57 108.91 157.49 109.08 C 158.41 109.25 159.29 108.64 159.46 107.72 L 159.64 106.77 C 159.80 105.84 159.19 104.96 158.27 104.79 C 157.35 104.62 156.47 105.23 156.30 106.16 Z M 156.10 107.21 L 155.99 108.17 C 155.88 109.10 156.55 109.95 157.48 110.06 C 158.42 110.17 159.26 109.50 159.37 108.57 L 159.48 107.61 C 159.59 106.68 158.92 105.83 157.99 105.72 C 157.06 105.61 156.21 106.28 156.10 107.21 Z M 155.98 108.26 L 155.92 109.24 C 155.86 110.18 156.57 110.99 157.51 111.05 C 158.45 111.11 159.25 110.40 159.31 109.46 L 159.38 108.48 C 159.44 107.54 158.73 106.73 157.79 106.67 C 156.85 106.61 156.04 107.32 155.98 108.26 Z M 155.92 109.30 L 155.88 110.34 C 155.86 111.28 156.59 112.06 157.53 112.09 C 158.47 112.12 159.26 111.38 159.29 110.44 L 159.32 109.40 C 159.35 108.46 158.61 107.68 157.67 107.65 C 156.73 107.62 155.94 108.36 155.92 109.30 Z M 155.88 110.36 L 155.87 111.35 C 155.86 112.29 156.61 113.06 157.55 113.07 C 158.48 113.09 159.26 112.34 159.27 111.40 L 159.29 110.41 C 159.30 109.48 158.55 108.70 157.61 108.69 C 156.67 108.68 155.90 109.43 155.88 110.36 Z M 155.87 111.36 L 155.86 112.35 C 155.86 113.29 156.61 114.06 157.55 114.06 C 158.49 114.07 159.25 113.32 159.26 112.38 L 159.27 111.39 C 159.28 110.45 158.52 109.68 157.58 109.68 C 156.65 109.67 155.88 110.42 155.87 111.36 Z M 155.87 112.36 L 155.86 113.38 C 155.86 114.32 156.62 115.08 157.55 115.08 C 158.49 115.08 159.25 114.33 159.25 113.39 L 159.26 112.37 C 159.26 111.44 158.51 110.67 157.57 110.67 C 156.63 110.67 155.87 111.42 155.87 112.36 Z M 155.87 113.38 L 155.87 114.41 C 155.86 115.34 156.62 116.10 157.56 116.10 C 158.49 116.10 159.25 115.34 159.25 114.41 L 159.25 113.39 C 159.25 112.45 158.50 111.69 157.56 111.69 C 156.63 111.69 155.87 112.45 155.87 113.38 Z M 155.87 114.41 L 155.87 115.39 C 155.87 116.33 156.63 117.08 157.56 117.08 C 158.49 117.08 159.25 116.33 159.25 115.39 L 159.25 114.41 C 159.25 113.48 158.49 112.72 157.56 112.72 C 156.63 112.72 155.87 113.48 155.87 114.41 Z M 155.88 115.40 L 155.88 116.34 C 155.88 117.27 156.64 118.02 157.56 118.02 C 158.49 118.02 159.24 117.26 159.24 116.34 L 159.24 115.39 C 159.24 114.46 158.48 113.71 157.55 113.71 C 156.63 113.72 155.88 114.47 155.88 115.40 Z M 155.89 116.35 L 155.90 117.31 C 155.91 118.24 156.66 118.98 157.58 118.97 C 158.50 118.96 159.25 118.21 159.24 117.29 L 159.23 116.32 C 159.22 115.40 158.47 114.66 157.55 114.67 C 156.62 114.68 155.88 115.43 155.89 116.35 Z M 155.91 117.33 L 155.93 118.34 C 155.95 119.26 156.70 119.99 157.62 119.97 C 158.53 119.95 159.26 119.19 159.25 118.28 L 159.23 117.27 C 159.21 116.35 158.45 115.63 157.54 115.64 C 156.62 115.66 155.89 116.42 155.91 117.33 Z M 155.94 118.36 L 155.98 119.46 C 156.00 120.37 156.76 121.08 157.67 121.05 C 158.58 121.02 159.30 120.26 159.27 119.35 L 159.23 118.26 C 159.21 117.35 158.45 116.64 157.54 116.67 C 156.63 116.69 155.91 117.45 155.94 118.36 Z M 155.99 119.47 L 156.03 120.44 C 156.07 121.34 156.83 122.04 157.73 122.00 C 158.64 121.96 159.34 121.20 159.30 120.30 L 159.26 119.34 C 159.22 118.43 158.46 117.73 157.55 117.77 C 156.65 117.81 155.95 118.57 155.99 119.47 Z M 156.04 120.45 L 156.08 121.45 C 156.13 122.35 156.89 123.04 157.79 123.00 C 158.69 122.95 159.38 122.19 159.34 121.29 L 159.29 120.29 C 159.25 119.39 158.48 118.70 157.58 118.74 C 156.68 118.78 155.99 119.55 156.04 120.45 Z M 156.09 121.45 L 156.14 122.48 C 156.19 123.37 156.95 124.06 157.85 124.02 C 158.74 123.97 159.43 123.21 159.38 122.31 L 159.33 121.29 C 159.29 120.39 158.52 119.70 157.63 119.75 C 156.73 119.80 156.05 120.56 156.09 121.45 Z M 156.15 122.48 L 156.20 123.51 C 156.25 124.40 157.01 125.08 157.90 125.04 C 158.79 124.99 159.47 124.23 159.43 123.34 L 159.38 122.32 C 159.33 121.43 158.57 120.74 157.68 120.78 C 156.79 120.83 156.11 121.59 156.15 122.48 Z M 156.21 123.50 L 156.26 124.50 C 156.30 125.39 157.05 126.08 157.94 126.03 C 158.82 125.99 159.51 125.24 159.47 124.35 L 159.42 123.35 C 159.38 122.46 158.63 121.78 157.74 121.82 C 156.86 121.86 156.17 122.61 156.21 123.50 Z M 156.27 124.49 L 156.31 125.51 C 156.34 126.40 157.08 127.08 157.96 127.05 C 158.85 127.02 159.53 126.27 159.50 125.39 L 159.46 124.37 C 159.43 123.49 158.68 122.80 157.80 122.83 C 156.92 122.87 156.23 123.61 156.27 124.49 Z M 156.31 125.50 L 156.34 126.58 C 156.37 127.46 157.10 128.15 157.98 128.13 C 158.85 128.10 159.55 127.37 159.52 126.49 L 159.49 125.41 C 159.47 124.53 158.74 123.84 157.86 123.86 C 156.98 123.89 156.29 124.62 156.31 125.50 Z M 156.35 126.56 L 156.37 127.57 C 156.38 128.44 157.10 129.14 157.97 129.13 C 158.85 129.11 159.54 128.39 159.53 127.52 L 159.51 126.51 C 159.50 125.64 158.78 124.94 157.91 124.95 C 157.03 124.97 156.34 125.69 156.35 126.56 Z M 156.37 127.56 L 156.38 128.51 C 156.39 129.38 157.10 130.08 157.97 130.08 C 158.84 130.07 159.54 129.36 159.53 128.49 L 159.52 127.53 C 159.52 126.67 158.81 125.96 157.94 125.97 C 157.07 125.98 156.37 126.69 156.37 127.56 Z M 156.39 128.50 L 156.39 129.43 C 156.39 130.29 157.09 131.00 157.96 130.99 C 158.82 130.99 159.52 130.29 159.52 129.42 L 159.52 128.50 C 159.52 127.63 158.82 126.93 157.95 126.94 C 157.09 126.94 156.39 127.64 156.39 128.50 Z M 156.39 129.43 L 156.39 130.41 C 156.39 131.27 157.09 131.97 157.96 131.97 C 158.82 131.97 159.52 131.27 159.52 130.41 L 159.52 129.43 C 159.52 128.56 158.82 127.86 157.96 127.86 C 157.09 127.86 156.39 128.56 156.39 129.43 Z M 156.39 130.41 L 156.39 131.41 C 156.39 132.28 157.09 132.97 157.96 132.97 C 158.82 132.97 159.52 132.28 159.52 131.41 L 159.52 130.41 C 159.52 129.55 158.82 128.85 157.96 128.85 C 157.09 128.85 156.39 129.55 156.39 130.41 Z M 156.39 131.41 L 156.39 132.41 C 156.39 133.27 157.09 133.97 157.96 133.97 C 158.82 133.97 159.52 133.27 159.52 132.41 L 159.52 131.41 C 159.52 130.55 158.82 129.85 157.96 129.85 C 157.09 129.85 156.39 130.55 156.39 131.41 Z M 156.39 132.41 L 156.39 133.41 C 156.39 134.27 157.09 134.97 157.96 134.97 C 158.82 134.97 159.52 134.27 159.52 133.41 L 159.52 132.41 C 159.52 131.55 158.82 130.85 157.96 130.85 C 157.09 130.85 156.39 131.55 156.39 132.41 Z M 156.39 133.41 L 156.39 133.79 C 156.39 134.65 157.09 135.35 157.96 135.35 C 158.82 135.35 159.52 134.65 159.52 133.79 L 159.52 133.41 C 159.52 132.54 158.82 131.85 157.96 131.85 C 157.09 131.85 156.39 132.54 156.39 133.41 Z"
      fill="black"
      fill-rule="nonzero" /><path d="M 142.46 124.93 L 143.39 124.85 C 144.36 124.77 145.08 123.92 145.00 122.95 C 144.91 121.98 144.06 121.26 143.09 121.34 L 142.16 121.42 C 141.19 121.51 140.47 122.36 140.55 123.33 C 140.64 124.30 141.49 125.02 142.46 124.93 Z M 143.42 124.85 L 144.38 124.75 C 145.35 124.66 146.06 123.79 145.96 122.83 C 145.86 121.86 145.00 121.15 144.03 121.25 L 143.07 121.35 C 142.10 121.44 141.39 122.31 141.49 123.27 C 141.59 124.24 142.45 124.95 143.42 124.85 Z M 144.43 124.75 L 145.46 124.62 C 146.43 124.50 147.11 123.62 146.99 122.65 C 146.87 121.69 145.99 121.00 145.02 121.12 L 143.99 121.25 C 143.02 121.38 142.34 122.26 142.46 123.22 C 142.58 124.19 143.46 124.87 144.43 124.75 Z M 145.51 124.61 L 146.47 124.46 C 147.43 124.31 148.09 123.41 147.94 122.45 C 147.79 121.49 146.89 120.83 145.93 120.98 L 144.97 121.13 C 144.01 121.28 143.35 122.18 143.50 123.14 C 143.65 124.10 144.55 124.76 145.51 124.61 Z M 146.51 124.46 L 147.41 124.30 C 148.37 124.13 149.01 123.21 148.84 122.26 C 148.67 121.30 147.75 120.66 146.80 120.83 L 145.89 120.99 C 144.94 121.16 144.30 122.07 144.47 123.03 C 144.64 123.99 145.55 124.63 146.51 124.46 Z M 147.43 124.29 L 148.40 124.11 C 149.35 123.93 149.98 123.01 149.80 122.05 C 149.62 121.10 148.70 120.47 147.74 120.65 L 146.78 120.83 C 145.82 121.01 145.19 121.93 145.37 122.89 C 145.55 123.85 146.47 124.47 147.43 124.29 Z M 148.40 124.11 L 149.44 123.91 C 150.39 123.73 151.02 122.80 150.83 121.85 C 150.65 120.89 149.72 120.27 148.77 120.45 L 147.74 120.65 C 146.78 120.84 146.16 121.76 146.34 122.72 C 146.53 123.67 147.45 124.29 148.40 124.11 Z M 149.44 123.91 L 150.54 123.70 C 151.49 123.52 152.12 122.59 151.93 121.64 C 151.75 120.68 150.83 120.06 149.87 120.24 L 148.77 120.45 C 147.81 120.64 147.19 121.56 147.37 122.51 C 147.56 123.47 148.48 124.09 149.44 123.91 Z M 150.53 123.70 L 151.41 123.53 C 152.37 123.35 153.00 122.43 152.82 121.48 C 152.64 120.52 151.72 119.89 150.76 120.07 L 149.88 120.24 C 148.92 120.42 148.29 121.34 148.47 122.30 C 148.65 123.25 149.57 123.88 150.53 123.70 Z M 151.41 123.53 L 152.32 123.36 C 153.28 123.19 153.91 122.27 153.73 121.31 C 153.56 120.36 152.64 119.73 151.68 119.90 L 150.77 120.07 C 149.81 120.25 149.18 121.17 149.36 122.12 C 149.53 123.08 150.45 123.71 151.41 123.53 Z M 152.32 123.36 L 153.28 123.19 C 154.23 123.01 154.87 122.09 154.69 121.14 C 154.51 120.18 153.59 119.55 152.64 119.73 L 151.68 119.90 C 150.73 120.08 150.09 121.00 150.27 121.95 C 150.45 122.91 151.37 123.54 152.32 123.36 Z M 153.28 123.19 L 154.28 123.00 C 155.23 122.82 155.86 121.91 155.69 120.95 C 155.51 119.99 154.59 119.36 153.64 119.54 L 152.64 119.73 C 151.68 119.90 151.05 120.82 151.23 121.78 C 151.41 122.73 152.32 123.36 153.28 123.19 Z M 154.28 123.00 L 155.32 122.80 C 156.28 122.62 156.91 121.71 156.73 120.75 C 156.55 119.80 155.63 119.17 154.67 119.35 L 153.63 119.54 C 152.68 119.72 152.05 120.64 152.23 121.60 C 152.41 122.55 153.33 123.18 154.28 123.00 Z M 155.33 122.80 L 156.42 122.59 C 157.37 122.41 157.99 121.49 157.81 120.54 C 157.63 119.58 156.71 118.96 155.75 119.14 L 154.67 119.35 C 153.71 119.53 153.09 120.45 153.27 121.41 C 153.45 122.36 154.38 122.98 155.33 122.80 Z M 156.42 122.59 L 157.43 122.39 C 158.38 122.21 159.00 121.28 158.82 120.33 C 158.63 119.38 157.71 118.76 156.76 118.95 L 155.75 119.14 C 154.80 119.33 154.18 120.25 154.36 121.20 C 154.55 122.16 155.47 122.78 156.42 122.59 Z M 157.44 122.39 L 158.45 122.19 C 159.39 122.00 160.01 121.08 159.82 120.13 C 159.63 119.18 158.71 118.56 157.76 118.75 L 156.75 118.95 C 155.80 119.14 155.19 120.06 155.38 121.01 C 155.57 121.96 156.49 122.58 157.44 122.39 Z M 158.45 122.18 L 159.47 121.97 C 160.41 121.78 161.02 120.86 160.83 119.92 C 160.64 118.97 159.72 118.36 158.78 118.55 L 157.76 118.76 C 156.81 118.95 156.20 119.87 156.39 120.81 C 156.58 121.76 157.50 122.37 158.45 122.18 Z M 159.47 121.97 L 160.48 121.76 C 161.42 121.57 162.03 120.65 161.84 119.71 C 161.65 118.77 160.73 118.16 159.79 118.35 L 158.78 118.56 C 157.83 118.75 157.23 119.67 157.42 120.61 C 157.61 121.55 158.53 122.16 159.47 121.97 Z M 160.48 121.75 L 161.47 121.55 C 162.41 121.36 163.01 120.44 162.82 119.50 C 162.63 118.57 161.71 117.96 160.78 118.16 L 159.78 118.36 C 158.85 118.55 158.24 119.47 158.44 120.41 C 158.63 121.34 159.55 121.95 160.48 121.75 Z M 161.47 121.54 L 162.43 121.35 C 163.36 121.15 163.96 120.24 163.77 119.31 C 163.58 118.37 162.66 117.77 161.73 117.96 L 160.77 118.16 C 159.84 118.36 159.24 119.27 159.43 120.20 C 159.63 121.14 160.54 121.74 161.47 121.54 Z M 162.43 121.34 L 163.33 121.15 C 164.26 120.96 164.86 120.05 164.67 119.12 C 164.47 118.19 163.56 117.59 162.63 117.78 L 161.73 117.97 C 160.80 118.16 160.20 119.08 160.39 120.01 C 160.59 120.94 161.50 121.54 162.43 121.34 Z M 163.33 121.14 L 164.41 120.92 C 165.34 120.72 165.93 119.81 165.74 118.89 C 165.54 117.97 164.64 117.37 163.71 117.57 L 162.63 117.79 C 161.71 117.99 161.11 118.89 161.31 119.82 C 161.50 120.74 162.41 121.34 163.33 121.14 Z M 164.42 120.90 L 165.44 120.68 C 166.36 120.48 166.94 119.58 166.75 118.67 C 166.55 117.76 165.65 117.17 164.74 117.37 L 163.71 117.58 C 162.80 117.78 162.21 118.68 162.41 119.59 C 162.60 120.51 163.50 121.09 164.42 120.90 Z M 165.45 120.66 L 166.41 120.45 C 167.31 120.25 167.88 119.36 167.68 118.45 C 167.49 117.55 166.59 116.98 165.69 117.18 L 164.73 117.39 C 163.83 117.58 163.26 118.48 163.46 119.38 C 163.65 120.28 164.55 120.86 165.45 120.66 Z M 166.42 120.43 L 167.33 120.22 C 168.22 120.01 168.78 119.12 168.58 118.23 C 168.37 117.34 167.48 116.78 166.59 116.99 L 165.68 117.20 C 164.79 117.40 164.23 118.29 164.43 119.18 C 164.64 120.07 165.53 120.63 166.42 120.43 Z M 167.35 120.19 L 168.25 119.98 C 169.13 119.76 169.67 118.88 169.46 118.00 C 169.24 117.12 168.36 116.58 167.48 116.79 L 166.58 117.01 C 165.70 117.22 165.16 118.11 165.37 118.99 C 165.58 119.87 166.47 120.41 167.35 120.19 Z M 168.27 119.96 L 169.19 119.72 C 170.06 119.50 170.58 118.61 170.36 117.75 C 170.14 116.88 169.25 116.35 168.39 116.58 L 167.46 116.81 C 166.60 117.04 166.07 117.92 166.29 118.79 C 166.52 119.65 167.40 120.18 168.27 119.96 Z M 169.21 119.70 L 170.15 119.45 C 171.01 119.22 171.52 118.33 171.29 117.48 C 171.06 116.62 170.18 116.11 169.32 116.34 L 168.37 116.59 C 167.51 116.82 167.00 117.71 167.23 118.57 C 167.46 119.42 168.35 119.93 169.21 119.70 Z M 170.16 119.44 L 171.13 119.17 C 171.98 118.93 172.48 118.05 172.24 117.20 C 172.00 116.34 171.12 115.85 170.27 116.08 L 169.31 116.35 C 168.45 116.59 167.96 117.47 168.19 118.32 C 168.43 119.17 169.31 119.67 170.16 119.44 Z M 171.13 119.15 L 172.11 118.88 C 172.95 118.64 173.44 117.76 173.20 116.91 C 172.96 116.07 172.08 115.58 171.24 115.82 L 170.26 116.10 C 169.42 116.34 168.93 117.22 169.17 118.06 C 169.41 118.91 170.29 119.39 171.13 119.15 Z M 172.11 118.87 L 173.09 118.58 C 173.93 118.34 174.42 117.46 174.17 116.63 C 173.93 115.79 173.06 115.30 172.22 115.55 L 171.24 115.83 C 170.40 116.07 169.91 116.95 170.16 117.79 C 170.40 118.62 171.27 119.11 172.11 118.87 Z M 173.09 118.57 L 173.51 118.45 C 174.35 118.21 174.83 117.34 174.59 116.51 C 174.34 115.67 173.47 115.19 172.64 115.43 L 172.22 115.55 C 171.38 115.80 170.90 116.67 171.15 117.50 C 171.39 118.34 172.26 118.82 173.09 118.57 Z"
      fill="black"
      fill-rule="nonzero" /><path d="M 148.80 136.68 L 148.02 137.63 C 147.41 138.37 147.52 139.45 148.26 140.06 C 148.99 140.66 150.08 140.55 150.68 139.82 L 151.46 138.86 C 152.07 138.13 151.96 137.04 151.22 136.44 C 150.49 135.84 149.40 135.94 148.80 136.68 Z M 147.70 138.20 L 147.47 138.93 C 147.18 139.84 147.68 140.81 148.59 141.10 C 149.50 141.39 150.48 140.89 150.77 139.98 L 151.00 139.25 C 151.29 138.34 150.78 137.37 149.87 137.08 C 148.96 136.79 147.99 137.29 147.70 138.20 Z M 148.31 140.98 L 148.82 141.26 C 149.67 141.71 150.72 141.38 151.17 140.54 C 151.62 139.69 151.29 138.64 150.45 138.19 L 149.93 137.92 C 149.08 137.47 148.03 137.80 147.59 138.64 C 147.14 139.49 147.46 140.54 148.31 140.98 Z M 149.57 141.46 L 150.50 141.49 C 151.46 141.53 152.26 140.79 152.30 139.83 C 152.33 138.87 151.59 138.07 150.63 138.03 L 149.70 137.99 C 148.74 137.96 147.94 138.70 147.90 139.66 C 147.87 140.62 148.61 141.42 149.57 141.46 Z M 150.71 141.49 L 151.88 141.39 C 152.84 141.31 153.55 140.48 153.47 139.52 C 153.39 138.57 152.55 137.86 151.60 137.94 L 150.42 138.03 C 149.47 138.11 148.76 138.95 148.84 139.91 C 148.92 140.86 149.75 141.57 150.71 141.49 Z M 151.97 141.38 L 153.06 141.23 C 154.01 141.10 154.67 140.23 154.54 139.28 C 154.41 138.33 153.54 137.67 152.59 137.80 L 151.50 137.95 C 150.56 138.08 149.89 138.95 150.02 139.90 C 150.15 140.85 151.03 141.51 151.97 141.38 Z M 153.11 141.21 L 153.95 141.07 C 154.88 140.91 155.51 140.03 155.35 139.09 C 155.20 138.15 154.31 137.52 153.37 137.68 L 152.54 137.82 C 151.60 137.98 150.97 138.87 151.13 139.80 C 151.29 140.74 152.18 141.37 153.11 141.21 Z M 153.99 141.05 L 154.86 140.88 C 155.79 140.69 156.39 139.80 156.21 138.87 C 156.02 137.95 155.13 137.35 154.20 137.53 L 153.33 137.70 C 152.40 137.88 151.80 138.78 151.99 139.71 C 152.17 140.63 153.06 141.23 153.99 141.05 Z M 154.90 140.85 L 155.87 140.64 C 156.78 140.43 157.36 139.53 157.16 138.62 C 156.95 137.71 156.05 137.13 155.14 137.34 L 154.17 137.55 C 153.26 137.75 152.68 138.66 152.88 139.57 C 153.09 140.48 153.99 141.05 154.90 140.85 Z M 155.90 140.62 L 157.02 140.35 C 157.92 140.13 158.47 139.22 158.26 138.32 C 158.04 137.43 157.14 136.87 156.24 137.09 L 155.11 137.36 C 154.21 137.57 153.66 138.48 153.88 139.38 C 154.09 140.28 155.00 140.83 155.90 140.62 Z M 157.03 140.33 L 158.08 140.07 C 158.97 139.84 159.51 138.94 159.28 138.05 C 159.06 137.16 158.16 136.62 157.27 136.84 L 156.22 137.10 C 155.33 137.33 154.79 138.23 155.02 139.12 C 155.24 140.01 156.14 140.55 157.03 140.33 Z M 158.08 140.06 L 158.90 139.85 C 159.78 139.62 160.32 138.72 160.09 137.83 C 159.86 136.95 158.96 136.42 158.08 136.64 L 157.26 136.85 C 156.37 137.08 155.84 137.98 156.07 138.87 C 156.29 139.75 157.20 140.28 158.08 140.06 Z M 158.90 139.84 L 159.78 139.61 C 160.66 139.38 161.19 138.48 160.96 137.60 C 160.73 136.72 159.83 136.19 158.95 136.42 L 158.07 136.65 C 157.19 136.88 156.66 137.78 156.89 138.66 C 157.12 139.54 158.02 140.07 158.90 139.84 Z M 159.78 139.61 L 160.72 139.36 C 161.59 139.13 162.12 138.23 161.89 137.35 C 161.66 136.48 160.76 135.95 159.88 136.18 L 158.95 136.43 C 158.07 136.66 157.55 137.56 157.78 138.43 C 158.01 139.31 158.91 139.84 159.78 139.61 Z M 160.72 139.36 L 161.70 139.10 C 162.57 138.87 163.09 137.97 162.86 137.10 C 162.63 136.22 161.73 135.70 160.86 135.93 L 159.88 136.19 C 159.01 136.42 158.48 137.32 158.71 138.19 C 158.95 139.07 159.84 139.59 160.72 139.36 Z M 161.70 139.09 L 162.71 138.82 C 163.58 138.59 164.10 137.70 163.87 136.83 C 163.64 135.95 162.74 135.43 161.87 135.67 L 160.86 135.94 C 159.99 136.17 159.47 137.06 159.70 137.93 C 159.93 138.80 160.82 139.32 161.70 139.09 Z M 162.71 138.82 L 163.75 138.54 C 164.62 138.31 165.14 137.42 164.91 136.55 C 164.67 135.68 163.78 135.16 162.91 135.39 L 161.87 135.67 C 161.00 135.90 160.49 136.79 160.72 137.66 C 160.95 138.53 161.84 139.05 162.71 138.82 Z M 163.75 138.53 L 164.81 138.25 C 165.68 138.02 166.19 137.13 165.96 136.26 C 165.73 135.40 164.84 134.88 163.98 135.12 L 162.91 135.40 C 162.05 135.63 161.53 136.52 161.77 137.39 C 162.00 138.25 162.89 138.77 163.75 138.53 Z M 164.81 138.25 L 165.88 137.96 C 166.75 137.73 167.26 136.84 167.03 135.98 C 166.80 135.11 165.91 134.60 165.05 134.83 L 163.98 135.12 C 163.11 135.35 162.60 136.24 162.83 137.10 C 163.06 137.96 163.95 138.48 164.81 138.25 Z M 165.88 137.95 L 166.20 137.87 C 167.06 137.64 167.57 136.76 167.34 135.89 C 167.11 135.03 166.22 134.52 165.36 134.75 L 165.05 134.84 C 164.19 135.07 163.68 135.95 163.91 136.81 C 164.14 137.67 165.02 138.19 165.88 137.95 Z"
      fill="black"
      fill-rule="nonzero" /><path d="M 138.98 154.35 L 138.30 155.03 C 137.64 155.70 137.64 156.78 138.31 157.44 C 138.97 158.10 140.05 158.10 140.71 157.43 L 141.39 156.75 C 142.05 156.08 142.05 155.00 141.38 154.34 C 140.72 153.68 139.64 153.68 138.98 154.35 Z M 138.28 155.06 L 137.60 155.77 C 136.95 156.45 136.98 157.53 137.65 158.18 C 138.33 158.82 139.41 158.80 140.06 158.12 L 140.74 157.40 C 141.38 156.72 141.36 155.65 140.68 155.00 C 140.00 154.36 138.92 154.38 138.28 155.06 Z M 137.55 155.82 L 136.87 156.60 C 136.25 157.30 136.32 158.37 137.03 158.99 C 137.73 159.61 138.80 159.54 139.42 158.84 L 140.10 158.07 C 140.72 157.36 140.65 156.29 139.95 155.67 C 139.24 155.05 138.17 155.12 137.55 155.82 Z M 136.80 156.66 L 136.07 157.59 C 135.49 158.34 135.62 159.41 136.36 159.99 C 137.11 160.57 138.18 160.44 138.76 159.70 L 139.49 158.77 C 140.07 158.03 139.94 156.96 139.20 156.37 C 138.46 155.79 137.39 155.92 136.80 156.66 Z M 135.95 157.73 L 135.35 158.68 C 134.84 159.49 135.09 160.56 135.90 161.07 C 136.71 161.58 137.78 161.33 138.29 160.52 L 138.89 159.57 C 139.39 158.76 139.15 157.69 138.34 157.18 C 137.53 156.67 136.46 156.91 135.95 157.73 Z M 135.12 159.13 L 134.91 159.88 C 134.65 160.82 135.20 161.79 136.14 162.05 C 137.08 162.31 138.05 161.76 138.31 160.82 L 138.52 160.07 C 138.78 159.13 138.23 158.16 137.29 157.90 C 136.35 157.64 135.38 158.19 135.12 159.13 Z M 135.33 161.59 L 135.68 161.95 C 136.36 162.66 137.49 162.67 138.20 161.99 C 138.91 161.30 138.93 160.17 138.24 159.46 L 137.90 159.10 C 137.21 158.40 136.08 158.38 135.37 159.07 C 134.66 159.75 134.64 160.88 135.33 161.59 Z M 136.91 162.50 L 137.74 162.52 C 138.73 162.55 139.56 161.77 139.59 160.77 C 139.61 159.78 138.83 158.96 137.84 158.93 L 137.01 158.91 C 136.01 158.88 135.19 159.67 135.16 160.66 C 135.14 161.65 135.92 162.47 136.91 162.50 Z M 138.12 162.50 L 139.35 162.26 C 140.32 162.08 140.97 161.14 140.78 160.16 C 140.60 159.18 139.66 158.54 138.68 158.73 L 137.46 158.96 C 136.48 159.14 135.84 160.08 136.02 161.06 C 136.21 162.04 137.15 162.68 138.12 162.50 Z M 139.48 162.24 L 140.60 161.94 C 141.56 161.68 142.13 160.69 141.87 159.73 C 141.61 158.77 140.63 158.20 139.66 158.45 L 138.55 158.75 C 137.58 159.01 137.01 160.00 137.27 160.96 C 137.53 161.93 138.52 162.50 139.48 162.24 Z M 140.65 161.92 L 141.54 161.66 C 142.49 161.37 143.03 160.36 142.75 159.41 C 142.46 158.46 141.45 157.91 140.50 158.20 L 139.61 158.47 C 138.66 158.75 138.12 159.76 138.40 160.71 C 138.69 161.67 139.70 162.21 140.65 161.92 Z M 141.57 161.65 L 142.50 161.35 C 143.45 161.05 143.98 160.03 143.68 159.09 C 143.38 158.14 142.36 157.61 141.41 157.91 L 140.47 158.21 C 139.53 158.51 139.00 159.52 139.30 160.47 C 139.60 161.42 140.62 161.95 141.57 161.65 Z M 142.52 161.34 L 143.49 161.02 C 144.44 160.71 144.96 159.70 144.65 158.75 C 144.34 157.81 143.32 157.29 142.37 157.60 L 141.40 157.92 C 140.45 158.23 139.94 159.24 140.25 160.19 C 140.56 161.14 141.57 161.65 142.52 161.34 Z M 143.50 161.02 L 144.50 160.69 C 145.44 160.38 145.95 159.36 145.64 158.41 C 145.33 157.47 144.31 156.96 143.37 157.27 L 142.37 157.60 C 141.42 157.91 140.91 158.93 141.22 159.88 C 141.54 160.82 142.56 161.33 143.50 161.02 Z M 144.50 160.69 L 145.50 160.36 C 146.45 160.05 146.96 159.03 146.65 158.08 C 146.33 157.14 145.32 156.63 144.37 156.94 L 143.37 157.27 C 142.42 157.58 141.91 158.60 142.22 159.55 C 142.53 160.49 143.55 161.00 144.50 160.69 Z M 145.49 160.36 L 146.53 160.02 C 147.47 159.71 147.99 158.70 147.68 157.76 C 147.38 156.81 146.36 156.29 145.42 156.60 L 144.38 156.94 C 143.44 157.25 142.92 158.26 143.23 159.20 C 143.53 160.15 144.55 160.67 145.49 160.36 Z M 146.52 160.02 L 147.56 159.69 C 148.50 159.39 149.02 158.38 148.72 157.44 C 148.42 156.49 147.41 155.97 146.47 156.27 L 145.43 156.60 C 144.49 156.90 143.97 157.91 144.27 158.85 C 144.57 159.80 145.57 160.32 146.52 160.02 Z M 147.55 159.69 L 148.55 159.38 C 149.49 159.08 150.02 158.08 149.72 157.14 C 149.43 156.19 148.42 155.67 147.48 155.96 L 146.48 156.27 C 145.54 156.57 145.01 157.57 145.30 158.52 C 145.60 159.46 146.60 159.98 147.55 159.69 Z M 148.54 159.37 L 149.49 159.08 C 150.43 158.79 150.96 157.79 150.67 156.85 C 150.38 155.91 149.38 155.38 148.44 155.67 L 147.49 155.96 C 146.55 156.25 146.02 157.25 146.31 158.20 C 146.60 159.14 147.60 159.66 148.54 159.37 Z M 149.49 159.08 L 150.38 158.80 C 151.32 158.52 151.84 157.52 151.56 156.58 C 151.27 155.64 150.27 155.11 149.33 155.40 L 148.44 155.67 C 147.50 155.96 146.98 156.96 147.26 157.90 C 147.55 158.84 148.55 159.36 149.49 159.08 Z M 150.37 158.80 L 151.22 158.54 C 152.16 158.25 152.69 157.26 152.40 156.32 C 152.11 155.38 151.12 154.86 150.18 155.14 L 149.33 155.41 C 148.40 155.69 147.87 156.69 148.16 157.62 C 148.44 158.56 149.44 159.09 150.37 158.80 Z M 151.23 158.53 L 152.32 158.19 C 153.25 157.90 153.77 156.91 153.49 155.98 C 153.20 155.05 152.21 154.52 151.27 154.81 L 150.18 155.15 C 149.25 155.44 148.72 156.43 149.01 157.36 C 149.30 158.30 150.29 158.82 151.23 158.53 Z M 152.32 158.18 L 153.27 157.89 C 154.19 157.60 154.71 156.61 154.42 155.68 C 154.13 154.75 153.14 154.24 152.22 154.53 L 151.27 154.82 C 150.34 155.11 149.83 156.10 150.12 157.03 C 150.41 157.96 151.39 158.47 152.32 158.18 Z M 153.26 157.88 L 154.12 157.61 C 155.05 157.32 155.56 156.34 155.27 155.41 C 154.98 154.49 154.00 153.98 153.08 154.27 L 152.22 154.54 C 151.29 154.83 150.78 155.81 151.07 156.73 C 151.36 157.65 152.34 158.17 153.26 157.88 Z M 154.12 157.60 L 155.01 157.33 C 155.92 157.04 156.44 156.06 156.15 155.14 C 155.87 154.22 154.89 153.71 153.97 154.00 L 153.08 154.27 C 152.16 154.56 151.65 155.54 151.94 156.46 C 152.22 157.37 153.20 157.89 154.12 157.60 Z M 155.00 157.32 L 155.94 157.03 C 156.86 156.75 157.37 155.78 157.09 154.86 C 156.81 153.94 155.84 153.43 154.92 153.71 L 153.98 154.00 C 153.06 154.29 152.55 155.26 152.83 156.17 C 153.11 157.09 154.08 157.60 155.00 157.32 Z M 155.94 157.02 L 156.90 156.73 C 157.82 156.45 158.33 155.48 158.05 154.56 C 157.76 153.65 156.80 153.14 155.88 153.42 L 154.92 153.72 C 154.01 154.00 153.50 154.97 153.78 155.88 C 154.06 156.79 155.03 157.31 155.94 157.02 Z M 156.91 156.72 L 157.87 156.42 C 158.78 156.14 159.29 155.17 159.00 154.26 C 158.72 153.35 157.75 152.84 156.85 153.13 L 155.88 153.43 C 154.97 153.71 154.46 154.68 154.75 155.59 C 155.03 156.50 156.00 157.00 156.91 156.72 Z M 157.88 156.41 L 158.82 156.11 C 159.72 155.83 160.23 154.86 159.94 153.96 C 159.65 153.05 158.69 152.55 157.78 152.84 L 156.84 153.13 C 155.94 153.42 155.43 154.39 155.72 155.29 C 156.01 156.19 156.97 156.70 157.88 156.41 Z M 158.82 156.11 L 159.78 155.80 C 160.68 155.51 161.18 154.55 160.89 153.65 C 160.60 152.75 159.64 152.25 158.74 152.54 L 157.78 152.84 C 156.88 153.13 156.38 154.09 156.67 154.99 C 156.96 155.90 157.92 156.39 158.82 156.11 Z M 159.78 155.79 L 160.74 155.49 C 161.64 155.20 162.13 154.24 161.85 153.34 C 161.56 152.44 160.60 151.95 159.70 152.24 L 158.74 152.55 C 157.84 152.83 157.35 153.79 157.63 154.69 C 157.92 155.59 158.88 156.08 159.78 155.79 Z M 160.74 155.48 L 161.69 155.17 C 162.59 154.89 163.08 153.93 162.80 153.04 C 162.51 152.14 161.55 151.65 160.66 151.94 L 159.70 152.24 C 158.81 152.53 158.32 153.49 158.60 154.38 C 158.89 155.27 159.85 155.77 160.74 155.48 Z M 161.69 155.17 L 162.65 154.86 C 163.54 154.58 164.03 153.63 163.74 152.74 C 163.46 151.85 162.50 151.35 161.61 151.64 L 160.66 151.94 C 159.77 152.23 159.28 153.18 159.56 154.07 C 159.85 154.96 160.80 155.45 161.69 155.17 Z M 162.64 154.86 L 163.60 154.55 C 164.48 154.27 164.97 153.32 164.69 152.43 C 164.40 151.55 163.45 151.06 162.57 151.34 L 161.62 151.65 C 160.73 151.93 160.24 152.88 160.52 153.77 C 160.81 154.65 161.76 155.14 162.64 154.86 Z M 163.59 154.55 L 164.54 154.24 C 165.42 153.96 165.91 153.01 165.63 152.13 C 165.34 151.25 164.40 150.76 163.52 151.04 L 162.57 151.35 C 161.69 151.63 161.20 152.58 161.48 153.46 C 161.77 154.34 162.71 154.83 163.59 154.55 Z M 164.54 154.23 L 165.48 153.93 C 166.36 153.65 166.84 152.71 166.56 151.83 C 166.28 150.95 165.33 150.47 164.46 150.75 L 163.52 151.05 C 162.64 151.34 162.15 152.28 162.44 153.16 C 162.72 154.03 163.66 154.52 164.54 154.23 Z M 165.49 153.92 L 166.44 153.61 C 167.31 153.33 167.79 152.38 167.50 151.51 C 167.21 150.64 166.27 150.16 165.40 150.45 L 164.45 150.76 C 163.58 151.05 163.10 151.99 163.39 152.86 C 163.67 153.73 164.61 154.21 165.49 153.92 Z M 166.45 153.60 L 167.41 153.28 C 168.28 152.98 168.74 152.04 168.45 151.17 C 168.16 150.31 167.22 149.84 166.35 150.13 L 165.39 150.46 C 164.52 150.75 164.05 151.69 164.35 152.56 C 164.64 153.43 165.58 153.89 166.45 153.60 Z M 167.43 153.26 L 168.38 152.93 C 169.24 152.63 169.70 151.68 169.39 150.82 C 169.09 149.96 168.15 149.51 167.29 149.81 L 166.33 150.15 C 165.47 150.45 165.02 151.39 165.32 152.25 C 165.62 153.11 166.56 153.56 167.43 153.26 Z M 168.39 152.92 L 169.35 152.57 C 170.20 152.27 170.65 151.33 170.34 150.47 C 170.04 149.62 169.09 149.17 168.24 149.48 L 167.28 149.82 C 166.43 150.13 165.98 151.07 166.29 151.92 C 166.59 152.78 167.54 153.22 168.39 152.92 Z M 169.34 152.57 L 170.29 152.23 C 171.14 151.93 171.58 150.99 171.28 150.14 C 170.97 149.29 170.03 148.85 169.18 149.15 L 168.24 149.49 C 167.39 149.79 166.95 150.73 167.25 151.58 C 167.56 152.43 168.49 152.87 169.34 152.57 Z M 170.27 152.23 L 171.17 151.91 C 172.01 151.62 172.46 150.69 172.16 149.84 C 171.87 148.99 170.94 148.54 170.09 148.84 L 169.20 149.15 C 168.35 149.45 167.90 150.38 168.20 151.23 C 168.50 152.08 169.42 152.52 170.27 152.23 Z M 171.15 151.91 L 171.97 151.63 C 172.82 151.34 173.27 150.42 172.98 149.57 C 172.69 148.72 171.77 148.27 170.92 148.56 L 170.10 148.84 C 169.25 149.13 168.80 150.05 169.09 150.90 C 169.38 151.75 170.30 152.20 171.15 151.91 Z M 171.98 151.62 L 172.85 151.32 C 173.69 151.03 174.14 150.11 173.85 149.26 C 173.55 148.42 172.63 147.97 171.79 148.27 L 170.92 148.57 C 170.07 148.86 169.63 149.78 169.92 150.63 C 170.21 151.47 171.14 151.92 171.98 151.62 Z M 172.87 151.31 L 173.87 150.94 C 174.71 150.64 175.14 149.71 174.83 148.87 C 174.53 148.04 173.60 147.61 172.76 147.91 L 171.76 148.28 C 170.93 148.58 170.50 149.51 170.80 150.35 C 171.11 151.18 172.04 151.61 172.87 151.31 Z M 173.90 150.93 L 174.95 150.52 C 175.78 150.20 176.19 149.27 175.87 148.44 C 175.55 147.61 174.62 147.20 173.79 147.52 L 172.74 147.93 C 171.91 148.25 171.50 149.18 171.82 150.01 C 172.14 150.84 173.07 151.25 173.90 150.93 Z M 174.97 150.51 L 175.82 150.17 C 176.64 149.84 177.04 148.90 176.71 148.08 C 176.38 147.26 175.45 146.86 174.62 147.19 L 173.77 147.53 C 172.95 147.86 172.55 148.80 172.88 149.62 C 173.21 150.44 174.15 150.84 174.97 150.51 Z M 175.83 150.16 L 176.75 149.78 C 177.57 149.44 177.95 148.51 177.62 147.69 C 177.28 146.87 176.34 146.48 175.53 146.82 L 174.61 147.20 C 173.79 147.54 173.40 148.47 173.74 149.29 C 174.08 150.11 175.02 150.50 175.83 150.16 Z M 176.76 149.77 L 177.71 149.37 C 178.53 149.03 178.91 148.09 178.56 147.27 C 178.22 146.46 177.28 146.08 176.47 146.43 L 175.51 146.83 C 174.70 147.17 174.32 148.11 174.67 148.92 C 175.01 149.74 175.95 150.12 176.76 149.77 Z M 177.73 149.36 L 178.69 148.94 C 179.50 148.59 179.87 147.65 179.52 146.84 C 179.17 146.04 178.23 145.66 177.43 146.01 L 176.46 146.43 C 175.65 146.78 175.28 147.72 175.63 148.53 C 175.98 149.34 176.92 149.71 177.73 149.36 Z M 178.71 148.93 L 179.66 148.51 C 180.46 148.15 180.82 147.21 180.47 146.41 C 180.11 145.61 179.17 145.24 178.37 145.60 L 177.41 146.02 C 176.61 146.38 176.25 147.32 176.60 148.12 C 176.96 148.93 177.90 149.29 178.71 148.93 Z M 179.67 148.50 L 180.59 148.08 C 181.38 147.72 181.74 146.78 181.37 145.98 C 181.01 145.18 180.06 144.83 179.27 145.19 L 178.35 145.61 C 177.55 145.97 177.20 146.92 177.57 147.72 C 177.93 148.51 178.87 148.87 179.67 148.50 Z M 180.60 148.07 L 181.62 147.59 C 182.41 147.21 182.75 146.27 182.37 145.48 C 182.00 144.69 181.05 144.35 180.26 144.72 L 179.25 145.20 C 178.46 145.58 178.12 146.53 178.49 147.32 C 178.87 148.11 179.81 148.45 180.60 148.07 Z M 181.64 147.57 L 182.58 147.11 C 183.36 146.73 183.68 145.78 183.30 145.00 C 182.91 144.21 181.96 143.89 181.18 144.28 L 180.24 144.74 C 179.46 145.12 179.14 146.07 179.52 146.85 C 179.91 147.64 180.86 147.96 181.64 147.57 Z M 182.59 147.10 L 183.47 146.65 C 184.25 146.26 184.56 145.31 184.16 144.53 C 183.77 143.76 182.82 143.45 182.04 143.84 L 181.17 144.29 C 180.39 144.68 180.08 145.63 180.48 146.41 C 180.87 147.18 181.82 147.49 182.59 147.10 Z M 183.48 146.64 L 184.32 146.20 C 185.09 145.80 185.39 144.85 184.99 144.08 C 184.59 143.32 183.64 143.02 182.87 143.42 L 182.03 143.85 C 181.26 144.26 180.96 145.20 181.37 145.97 C 181.77 146.74 182.72 147.04 183.48 146.64 Z M 184.33 146.19 L 185.14 145.76 C 185.91 145.36 186.20 144.41 185.79 143.65 C 185.39 142.88 184.44 142.59 183.68 143.00 L 182.86 143.43 C 182.10 143.83 181.81 144.78 182.21 145.54 C 182.62 146.31 183.56 146.60 184.33 146.19 Z M 185.14 145.76 L 185.35 145.65 C 186.11 145.25 186.40 144.30 185.99 143.54 C 185.59 142.78 184.64 142.49 183.88 142.89 L 183.68 143.00 C 182.91 143.40 182.63 144.35 183.03 145.11 C 183.44 145.87 184.38 146.16 185.14 145.76 Z"
      fill="black"
      fill-rule="nonzero" /><path d="M 174.52 138.71 L 174.06 139.57 C 173.63 140.39 173.94 141.40 174.75 141.83 C 175.56 142.26 176.57 141.95 177.01 141.14 L 177.46 140.28 C 177.90 139.47 177.59 138.46 176.78 138.02 C 175.96 137.59 174.95 137.90 174.52 138.71 Z M 173.97 139.68 L 173.57 140.58 C 173.20 141.45 173.60 142.45 174.46 142.83 C 175.33 143.20 176.34 142.81 176.71 141.94 L 177.10 141.04 C 177.48 140.17 177.08 139.16 176.21 138.79 C 175.35 138.41 174.34 138.81 173.97 139.68 Z M 173.45 140.82 L 173.19 141.81 C 172.95 142.74 173.51 143.70 174.44 143.94 C 175.37 144.19 176.33 143.63 176.57 142.70 L 176.83 141.70 C 177.08 140.77 176.52 139.81 175.59 139.57 C 174.65 139.32 173.69 139.88 173.45 140.82 Z M 173.11 142.11 L 173.04 143.06 C 172.96 144.04 173.69 144.89 174.67 144.97 C 175.64 145.05 176.50 144.32 176.58 143.34 L 176.65 142.39 C 176.73 141.42 176.00 140.56 175.02 140.48 C 174.05 140.41 173.19 141.14 173.11 142.11 Z M 173.03 143.29 L 173.07 144.28 C 173.12 145.26 173.96 146.02 174.94 145.97 C 175.92 145.93 176.68 145.09 176.63 144.11 L 176.59 143.12 C 176.54 142.13 175.71 141.37 174.72 141.42 C 173.74 141.47 172.98 142.30 173.03 143.29 Z M 173.08 144.43 L 173.22 145.46 C 173.35 146.43 174.25 147.12 175.23 146.99 C 176.21 146.85 176.90 145.95 176.76 144.98 L 176.63 143.95 C 176.49 142.98 175.59 142.29 174.62 142.42 C 173.64 142.56 172.95 143.46 173.08 144.43 Z M 173.23 145.56 L 173.43 146.57 C 173.62 147.54 174.57 148.17 175.54 147.98 C 176.51 147.79 177.14 146.84 176.95 145.87 L 176.75 144.87 C 176.56 143.90 175.62 143.26 174.65 143.46 C 173.67 143.65 173.04 144.59 173.23 145.56 Z M 173.45 146.64 L 173.67 147.59 C 173.91 148.55 174.88 149.14 175.84 148.91 C 176.81 148.68 177.40 147.71 177.17 146.74 L 176.94 145.80 C 176.70 144.83 175.73 144.24 174.77 144.47 C 173.81 144.71 173.21 145.68 173.45 146.64 Z M 173.68 147.63 L 173.94 148.58 C 174.20 149.54 175.19 150.10 176.14 149.84 C 177.10 149.58 177.67 148.60 177.41 147.64 L 177.15 146.69 C 176.90 145.74 175.91 145.17 174.95 145.43 C 173.99 145.69 173.43 146.68 173.68 147.63 Z M 173.94 148.60 L 174.22 149.57 C 174.49 150.53 175.49 151.08 176.44 150.81 C 177.40 150.54 177.95 149.55 177.68 148.59 L 177.41 147.62 C 177.13 146.66 176.14 146.11 175.18 146.38 C 174.23 146.65 173.67 147.64 173.94 148.60 Z M 174.22 149.57 L 174.49 150.54 C 174.76 151.50 175.75 152.05 176.71 151.79 C 177.67 151.52 178.22 150.52 177.96 149.57 L 177.68 148.60 C 177.42 147.64 176.42 147.08 175.46 147.35 C 174.51 147.62 173.95 148.61 174.22 149.57 Z M 174.48 150.52 L 174.73 151.42 C 174.98 152.38 175.97 152.95 176.93 152.69 C 177.89 152.43 178.46 151.44 178.20 150.48 L 177.96 149.58 C 177.70 148.62 176.71 148.05 175.75 148.31 C 174.79 148.57 174.22 149.56 174.48 150.52 Z M 174.72 151.40 L 174.96 152.35 C 175.21 153.31 176.20 153.89 177.16 153.64 C 178.12 153.39 178.70 152.41 178.45 151.44 L 178.21 150.50 C 177.96 149.53 176.98 148.95 176.01 149.20 C 175.05 149.45 174.47 150.44 174.72 151.40 Z M 174.96 152.33 L 175.20 153.32 C 175.44 154.29 176.42 154.88 177.38 154.64 C 178.35 154.40 178.94 153.42 178.71 152.46 L 178.46 151.46 C 178.22 150.50 177.25 149.90 176.28 150.14 C 175.31 150.38 174.72 151.36 174.96 152.33 Z M 175.20 153.30 L 175.44 154.34 C 175.66 155.31 176.63 155.91 177.61 155.68 C 178.58 155.46 179.18 154.49 178.95 153.52 L 178.71 152.48 C 178.49 151.51 177.51 150.90 176.54 151.13 C 175.57 151.36 174.97 152.33 175.20 153.30 Z M 175.43 154.31 L 175.66 155.34 C 175.87 156.32 176.84 156.94 177.81 156.72 C 178.78 156.51 179.40 155.54 179.19 154.57 L 178.96 153.54 C 178.75 152.56 177.78 151.95 176.81 152.16 C 175.83 152.38 175.22 153.34 175.43 154.31 Z M 175.65 155.32 L 175.86 156.34 C 176.07 157.32 177.02 157.95 178.00 157.74 C 178.98 157.54 179.61 156.58 179.40 155.61 L 179.19 154.59 C 178.99 153.61 178.03 152.98 177.05 153.19 C 176.08 153.39 175.45 154.35 175.65 155.32 Z M 175.86 156.32 L 176.06 157.34 C 176.25 158.32 177.20 158.96 178.18 158.76 C 179.16 158.57 179.80 157.62 179.61 156.64 L 179.41 155.62 C 179.21 154.65 178.26 154.01 177.28 154.20 C 176.30 154.39 175.67 155.35 175.86 156.32 Z M 176.06 157.32 L 176.24 158.31 C 176.43 159.30 177.37 159.94 178.35 159.76 C 179.33 159.58 179.98 158.63 179.80 157.65 L 179.61 156.66 C 179.43 155.68 178.48 155.03 177.50 155.21 C 176.52 155.40 175.87 156.34 176.06 157.32 Z M 176.24 158.30 L 176.40 159.24 C 176.58 160.22 177.52 160.88 178.50 160.70 C 179.48 160.53 180.14 159.59 179.97 158.61 L 179.80 157.67 C 179.63 156.68 178.69 156.03 177.71 156.20 C 176.72 156.37 176.06 157.31 176.24 158.30 Z M 176.40 159.22 L 176.57 160.22 C 176.73 161.21 177.66 161.88 178.64 161.72 C 179.63 161.55 180.30 160.62 180.14 159.64 L 179.97 158.63 C 179.81 157.64 178.88 156.98 177.89 157.14 C 176.91 157.30 176.24 158.23 176.40 159.22 Z M 176.56 160.20 L 176.72 161.26 C 176.87 162.25 177.79 162.93 178.78 162.78 C 179.76 162.63 180.45 161.71 180.30 160.72 L 180.14 159.66 C 179.99 158.68 179.07 157.99 178.08 158.14 C 177.10 158.29 176.41 159.21 176.56 160.20 Z M 176.72 161.24 L 176.85 162.20 C 176.99 163.19 177.90 163.88 178.89 163.74 C 179.88 163.61 180.57 162.69 180.43 161.70 L 180.30 160.74 C 180.17 159.75 179.25 159.06 178.26 159.20 C 177.27 159.33 176.58 160.25 176.72 161.24 Z M 176.85 162.19 L 176.97 163.10 C 177.10 164.09 178.02 164.78 179.01 164.65 C 180.00 164.51 180.69 163.60 180.56 162.61 L 180.44 161.71 C 180.30 160.72 179.39 160.02 178.40 160.16 C 177.41 160.29 176.71 161.20 176.85 162.19 Z M 176.97 163.11 L 177.11 164.07 C 177.25 165.06 178.16 165.74 179.15 165.60 C 180.14 165.46 180.83 164.55 180.69 163.56 L 180.56 162.60 C 180.42 161.61 179.50 160.92 178.51 161.06 C 177.52 161.20 176.83 162.12 176.97 163.11 Z M 177.11 164.07 L 177.25 165.06 C 177.40 166.05 178.31 166.73 179.30 166.59 C 180.29 166.45 180.98 165.53 180.84 164.54 L 180.69 163.55 C 180.55 162.56 179.63 161.88 178.64 162.02 C 177.65 162.16 176.96 163.08 177.11 164.07 Z M 177.25 165.05 L 177.39 166.04 C 177.52 167.03 178.44 167.72 179.43 167.58 C 180.42 167.45 181.11 166.53 180.98 165.54 L 180.84 164.55 C 180.70 163.56 179.79 162.87 178.79 163.00 C 177.80 163.14 177.11 164.06 177.25 165.05 Z M 177.38 166.01 L 177.50 167.00 C 177.62 167.99 178.53 168.70 179.52 168.58 C 180.51 168.46 181.22 167.55 181.10 166.56 L 180.98 165.57 C 180.86 164.58 179.96 163.87 178.96 163.99 C 177.97 164.11 177.26 165.02 177.38 166.01 Z M 177.50 166.96 L 177.60 167.94 C 177.70 168.93 178.58 169.66 179.58 169.56 C 180.57 169.46 181.30 168.57 181.20 167.57 L 181.10 166.60 C 181.00 165.60 180.12 164.88 179.12 164.98 C 178.13 165.08 177.40 165.96 177.50 166.96 Z M 177.59 167.91 L 177.68 168.90 C 177.76 169.90 178.64 170.64 179.64 170.56 C 180.63 170.47 181.37 169.59 181.29 168.60 L 181.20 167.60 C 181.12 166.60 180.24 165.87 179.25 165.95 C 178.25 166.03 177.51 166.91 177.59 167.91 Z M 177.68 168.89 L 177.75 169.91 C 177.83 170.90 178.70 171.65 179.70 171.58 C 180.69 171.50 181.44 170.63 181.37 169.63 L 181.29 168.61 C 181.21 167.62 180.34 166.87 179.35 166.94 C 178.35 167.02 177.60 167.89 177.68 168.89 Z M 177.75 169.90 L 177.83 170.91 C 177.90 171.91 178.77 172.66 179.76 172.59 C 180.76 172.52 181.51 171.65 181.44 170.65 L 181.37 169.64 C 181.30 168.64 180.43 167.89 179.43 167.96 C 178.43 168.04 177.68 168.90 177.75 169.90 Z M 177.83 170.91 L 177.90 171.92 C 177.96 172.92 178.83 173.67 179.83 173.60 C 180.83 173.54 181.58 172.67 181.51 171.67 L 181.44 170.66 C 181.37 169.66 180.51 168.91 179.51 168.98 C 178.51 169.04 177.76 169.91 177.83 170.91 Z M 177.90 171.91 L 177.96 172.91 C 178.03 173.91 178.89 174.67 179.89 174.60 C 180.88 174.54 181.64 173.68 181.58 172.68 L 181.51 171.68 C 181.45 170.68 180.58 169.92 179.59 169.99 C 178.59 170.05 177.83 170.92 177.90 171.91 Z M 177.96 172.90 L 178.02 173.89 C 178.08 174.89 178.94 175.65 179.93 175.59 C 180.93 175.53 181.69 174.67 181.64 173.67 L 181.58 172.69 C 181.52 171.69 180.66 170.93 179.66 170.99 C 178.66 171.05 177.90 171.91 177.96 172.90 Z M 178.02 173.88 L 178.07 174.91 C 178.13 175.91 178.98 176.68 179.98 176.63 C 180.98 176.57 181.74 175.72 181.69 174.72 L 181.64 173.69 C 181.58 172.69 180.73 171.92 179.73 171.97 C 178.73 172.03 177.97 172.88 178.02 173.88 Z M 178.07 174.90 L 178.12 175.89 C 178.17 176.89 179.01 177.66 180.01 177.61 C 181.01 177.56 181.78 176.72 181.74 175.72 L 181.69 174.73 C 181.64 173.73 180.79 172.96 179.80 173.01 C 178.80 173.06 178.03 173.90 178.07 174.90 Z M 178.12 175.88 L 178.16 176.84 C 178.21 177.84 179.05 178.62 180.05 178.57 C 181.05 178.53 181.82 177.68 181.78 176.69 L 181.74 175.72 C 181.69 174.73 180.85 173.95 179.85 174.00 C 178.85 174.04 178.08 174.88 178.12 175.88 Z M 178.16 176.84 L 178.20 177.73 C 178.24 178.73 179.09 179.50 180.08 179.46 C 181.08 179.42 181.86 178.57 181.81 177.58 L 181.78 176.69 C 181.73 175.69 180.89 174.92 179.89 174.96 C 178.90 175.00 178.12 175.84 178.16 176.84 Z M 178.20 177.72 L 178.24 178.67 C 178.27 179.66 179.11 180.44 180.11 180.41 C 181.11 180.37 181.88 179.53 181.85 178.54 L 181.81 177.59 C 181.78 176.59 180.94 175.81 179.94 175.85 C 178.95 175.88 178.17 176.72 178.20 177.72 Z M 178.24 178.65 L 178.27 179.72 C 178.29 180.71 179.12 181.50 180.12 181.47 C 181.12 181.45 181.90 180.62 181.88 179.62 L 181.85 178.55 C 181.82 177.56 180.99 176.77 179.99 176.80 C 179.00 176.82 178.21 177.65 178.24 178.65 Z M 178.27 179.70 L 178.28 180.73 C 178.30 181.72 179.12 182.52 180.12 182.50 C 181.11 182.49 181.91 181.67 181.89 180.67 L 181.87 179.64 C 181.86 178.64 181.04 177.85 180.04 177.87 C 179.05 177.88 178.25 178.70 178.27 179.70 Z M 178.28 180.71 L 178.29 181.65 C 178.30 182.65 179.11 183.45 180.11 183.44 C 181.11 183.43 181.91 182.62 181.90 181.62 L 181.89 180.68 C 181.88 179.69 181.07 178.89 180.07 178.90 C 179.08 178.90 178.28 179.72 178.28 180.71 Z M 178.29 181.64 L 178.30 182.64 C 178.30 183.64 179.11 184.44 180.10 184.44 C 181.10 184.44 181.90 183.63 181.90 182.63 L 181.90 181.63 C 181.89 180.64 181.09 179.83 180.09 179.84 C 179.10 179.84 178.29 180.65 178.29 181.64 Z M 178.30 182.63 L 178.29 183.67 C 178.29 184.67 179.10 185.48 180.09 185.48 C 181.09 185.48 181.89 184.68 181.90 183.68 L 181.90 182.64 C 181.90 181.65 181.10 180.84 180.10 180.84 C 179.11 180.84 178.30 181.64 178.30 182.63 Z M 178.30 183.66 L 178.29 184.72 C 178.28 185.71 179.08 186.53 180.07 186.53 C 181.07 186.54 181.88 185.74 181.89 184.75 L 181.89 183.69 C 181.90 182.70 181.10 181.89 180.11 181.88 C 179.11 181.87 178.30 182.67 178.30 183.66 Z M 178.29 184.71 L 178.28 185.78 C 178.27 186.77 179.06 187.59 180.05 187.60 C 181.04 187.61 181.86 186.82 181.87 185.82 L 181.88 184.76 C 181.90 183.76 181.10 182.95 180.11 182.94 C 179.12 182.92 178.30 183.72 178.29 184.71 Z M 178.28 185.76 L 178.26 186.83 C 178.24 187.82 179.02 188.64 180.01 188.66 C 181.00 188.68 181.82 187.90 181.84 186.91 L 181.87 185.84 C 181.89 184.85 181.10 184.03 180.11 184.01 C 179.12 183.99 178.30 184.77 178.28 185.76 Z M 178.26 186.80 L 178.22 187.83 C 178.18 188.81 178.95 189.65 179.94 189.68 C 180.93 189.72 181.76 188.95 181.80 187.97 L 181.84 186.94 C 181.88 185.95 181.11 185.12 180.12 185.08 C 179.13 185.04 178.30 185.81 178.26 186.80 Z M 178.23 187.78 L 178.16 188.76 C 178.10 189.74 178.84 190.59 179.82 190.66 C 180.81 190.72 181.66 189.98 181.73 189.00 L 181.79 188.02 C 181.86 187.03 181.11 186.18 180.13 186.12 C 179.15 186.05 178.30 186.79 178.23 187.78 Z M 178.17 188.69 L 178.07 189.61 C 177.97 190.59 178.68 191.46 179.65 191.57 C 180.63 191.68 181.51 190.97 181.62 189.99 L 181.72 189.07 C 181.82 188.09 181.11 187.21 180.14 187.11 C 179.16 187.00 178.28 187.71 178.17 188.69 Z M 178.10 189.50 L 177.93 190.46 C 177.77 191.43 178.42 192.35 179.38 192.51 C 180.35 192.68 181.27 192.03 181.43 191.06 L 181.59 190.10 C 181.76 189.13 181.11 188.21 180.14 188.05 C 179.18 187.89 178.26 188.54 178.10 189.50 Z M 177.97 190.31 L 177.72 191.27 C 177.48 192.21 178.04 193.18 178.98 193.42 C 179.93 193.67 180.89 193.11 181.14 192.16 L 181.39 191.21 C 181.64 190.26 181.07 189.30 180.13 189.05 C 179.18 188.81 178.22 189.37 177.97 190.31 Z M 177.79 191.10 L 177.45 192.01 C 177.11 192.91 177.57 193.93 178.47 194.27 C 179.38 194.61 180.39 194.15 180.73 193.24 L 181.07 192.33 C 181.42 191.43 180.96 190.41 180.05 190.07 C 179.14 189.73 178.13 190.19 177.79 191.10 Z M 177.53 191.85 L 177.08 192.74 C 176.65 193.61 177.01 194.65 177.87 195.08 C 178.73 195.51 179.78 195.16 180.21 194.30 L 180.65 193.40 C 181.08 192.54 180.73 191.49 179.87 191.06 C 179.01 190.63 177.96 190.98 177.53 191.85 Z M 177.17 192.62 L 176.65 193.47 C 176.15 194.28 176.41 195.35 177.23 195.85 C 178.04 196.35 179.11 196.09 179.61 195.27 L 180.12 194.42 C 180.62 193.61 180.36 192.54 179.55 192.04 C 178.73 191.54 177.66 191.80 177.17 192.62 Z M 176.74 193.36 L 176.15 194.16 C 175.59 194.93 175.76 196.01 176.53 196.57 C 177.29 197.12 178.37 196.96 178.93 196.19 L 179.52 195.38 C 180.08 194.61 179.91 193.54 179.14 192.98 C 178.37 192.42 177.30 192.59 176.74 193.36 Z M 176.27 194.04 L 175.59 194.80 C 174.96 195.50 175.02 196.58 175.73 197.21 C 176.43 197.83 177.51 197.77 178.13 197.07 L 178.81 196.31 C 179.44 195.61 179.38 194.53 178.68 193.90 C 177.97 193.28 176.90 193.34 176.27 194.04 Z M 175.75 194.66 L 174.99 195.32 C 174.28 195.93 174.21 197.00 174.82 197.70 C 175.43 198.41 176.50 198.49 177.21 197.87 L 177.97 197.21 C 178.68 196.60 178.75 195.53 178.14 194.83 C 177.53 194.12 176.46 194.04 175.75 194.66 Z M 175.23 195.16 L 174.38 195.67 C 173.59 196.15 173.34 197.19 173.82 197.98 C 174.30 198.77 175.33 199.02 176.13 198.54 L 176.97 198.03 C 177.76 197.55 178.01 196.52 177.53 195.72 C 177.05 194.93 176.02 194.68 175.23 195.16 Z M 174.68 195.55 L 173.78 195.88 C 172.92 196.20 172.48 197.15 172.79 198.01 C 173.11 198.87 174.06 199.31 174.92 199.00 L 175.83 198.67 C 176.69 198.35 177.13 197.40 176.81 196.54 C 176.50 195.68 175.55 195.23 174.68 195.55 Z M 174.04 195.83 L 173.08 196.02 C 172.19 196.19 171.61 197.05 171.79 197.94 C 171.96 198.83 172.82 199.40 173.70 199.23 L 174.67 199.04 C 175.55 198.87 176.13 198.01 175.96 197.12 C 175.78 196.24 174.93 195.66 174.04 195.83 Z M 173.26 196.02 L 172.25 196.10 C 171.37 196.18 170.71 196.96 170.78 197.85 C 170.86 198.73 171.64 199.39 172.53 199.32 L 173.53 199.23 C 174.42 199.16 175.07 198.38 175.00 197.49 C 174.92 196.60 174.14 195.94 173.26 196.02 Z M 172.35 196.12 L 171.33 196.14 C 170.45 196.16 169.75 196.89 169.77 197.77 C 169.79 198.65 170.52 199.34 171.40 199.32 L 172.43 199.30 C 173.30 199.28 174.00 198.55 173.98 197.67 C 173.96 196.80 173.23 196.10 172.35 196.12 Z M 171.36 196.16 L 170.82 196.16 C 169.95 196.16 169.25 196.87 169.25 197.74 C 169.25 198.61 169.95 199.31 170.82 199.31 L 171.37 199.31 C 172.24 199.30 172.94 198.60 172.94 197.73 C 172.94 196.86 172.23 196.16 171.36 196.16 Z"
      fill="black"
      fill-rule="nonzero" /><path d="M 146.95 168.57 L 147.76 169.01 C 148.58 169.44 149.60 169.14 150.04 168.32 C 150.47 167.51 150.17 166.49 149.35 166.05 L 148.54 165.61 C 147.72 165.17 146.71 165.48 146.27 166.29 C 145.83 167.11 146.13 168.13 146.95 168.57 Z M 147.75 169.02 L 148.59 169.47 C 149.41 169.91 150.44 169.61 150.88 168.79 C 151.33 167.96 151.02 166.94 150.20 166.49 L 149.36 166.04 C 148.54 165.60 147.51 165.90 147.07 166.72 C 146.63 167.55 146.93 168.57 147.75 169.02 Z M 148.58 169.48 L 149.46 169.96 C 150.29 170.41 151.32 170.11 151.78 169.28 C 152.23 168.45 151.92 167.41 151.09 166.96 L 150.21 166.48 C 149.38 166.03 148.35 166.34 147.90 167.16 C 147.45 167.99 147.75 169.03 148.58 169.48 Z M 149.45 169.97 L 150.40 170.49 C 151.23 170.95 152.28 170.65 152.73 169.81 C 153.19 168.98 152.89 167.93 152.06 167.47 L 151.11 166.95 C 150.27 166.50 149.23 166.80 148.77 167.63 C 148.31 168.47 148.61 169.51 149.45 169.97 Z M 150.39 170.50 L 151.23 170.97 C 152.07 171.43 153.12 171.13 153.59 170.29 C 154.05 169.46 153.75 168.40 152.91 167.94 L 152.07 167.47 C 151.23 167.01 150.18 167.31 149.71 168.14 C 149.25 168.98 149.55 170.03 150.39 170.50 Z M 151.23 170.97 L 152.06 171.43 C 152.90 171.90 153.96 171.60 154.42 170.77 C 154.89 169.93 154.59 168.87 153.76 168.41 L 152.92 167.94 C 152.08 167.47 151.03 167.77 150.56 168.61 C 150.09 169.44 150.39 170.50 151.23 170.97 Z M 152.06 171.43 L 152.93 171.92 C 153.77 172.39 154.83 172.09 155.30 171.26 C 155.76 170.42 155.47 169.37 154.63 168.90 L 153.76 168.41 C 152.92 167.94 151.87 168.24 151.40 169.07 C 150.93 169.91 151.23 170.96 152.06 171.43 Z M 152.93 171.92 L 153.83 172.43 C 154.66 172.90 155.72 172.60 156.19 171.77 C 156.66 170.93 156.37 169.87 155.53 169.40 L 154.63 168.90 C 153.80 168.43 152.74 168.72 152.27 169.56 C 151.80 170.39 152.10 171.45 152.93 171.92 Z M 153.82 172.43 L 154.73 172.94 C 155.57 173.41 156.63 173.12 157.10 172.28 C 157.57 171.45 157.28 170.39 156.44 169.92 L 155.53 169.40 C 154.70 168.93 153.64 169.23 153.17 170.06 C 152.70 170.90 152.99 171.96 153.82 172.43 Z M 154.73 172.94 L 155.65 173.46 C 156.49 173.93 157.55 173.64 158.02 172.80 C 158.49 171.97 158.20 170.91 157.36 170.44 L 156.44 169.92 C 155.61 169.44 154.55 169.74 154.08 170.57 C 153.60 171.41 153.90 172.47 154.73 172.94 Z M 155.65 173.46 L 156.60 173.99 C 157.43 174.47 158.49 174.17 158.96 173.34 C 159.44 172.51 159.14 171.45 158.31 170.98 L 157.36 170.44 C 156.53 169.97 155.47 170.26 155.00 171.09 C 154.52 171.93 154.82 172.99 155.65 173.46 Z M 156.60 173.99 L 157.52 174.51 C 158.36 174.98 159.41 174.69 159.88 173.86 C 160.35 173.03 160.06 171.97 159.23 171.50 L 158.31 170.98 C 157.48 170.51 156.42 170.80 155.95 171.63 C 155.48 172.46 155.77 173.52 156.60 173.99 Z M 157.53 174.51 L 158.41 175.01 C 159.24 175.48 160.29 175.19 160.76 174.36 C 161.23 173.53 160.94 172.48 160.11 172.01 L 159.23 171.51 C 158.40 171.04 157.34 171.33 156.88 172.16 C 156.41 172.99 156.70 174.04 157.53 174.51 Z M 158.41 175.01 L 159.24 175.47 C 160.07 175.94 161.12 175.65 161.59 174.82 C 162.05 173.99 161.76 172.94 160.94 172.48 L 160.11 172.01 C 159.28 171.54 158.23 171.83 157.76 172.66 C 157.29 173.49 157.59 174.54 158.41 175.01 Z M 159.25 175.47 L 160.01 175.90 C 160.83 176.37 161.88 176.07 162.35 175.25 C 162.81 174.42 162.52 173.37 161.69 172.91 L 160.93 172.48 C 160.10 172.01 159.06 172.31 158.59 173.13 C 158.13 173.96 158.42 175.01 159.25 175.47 Z M 160.02 175.89 L 161.01 176.45 C 161.83 176.91 162.87 176.61 163.33 175.79 C 163.79 174.97 163.50 173.93 162.67 173.47 L 161.68 172.92 C 160.86 172.46 159.82 172.75 159.36 173.57 C 158.90 174.39 159.20 175.43 160.02 175.89 Z M 161.02 176.43 L 161.90 176.92 C 162.71 177.38 163.74 177.08 164.19 176.27 C 164.64 175.46 164.35 174.43 163.54 173.98 L 162.66 173.49 C 161.85 173.03 160.82 173.33 160.37 174.14 C 159.92 174.95 160.21 175.98 161.02 176.43 Z M 161.90 176.90 L 162.70 177.35 C 163.50 177.80 164.51 177.52 164.96 176.72 C 165.42 175.91 165.13 174.90 164.33 174.45 L 163.54 174.00 C 162.74 173.55 161.72 173.83 161.27 174.63 C 160.82 175.43 161.10 176.45 161.90 176.90 Z M 162.69 177.33 L 163.45 177.76 C 164.24 178.22 165.25 177.94 165.70 177.16 C 166.15 176.37 165.88 175.36 165.09 174.91 L 164.33 174.47 C 163.55 174.02 162.54 174.29 162.09 175.08 C 161.63 175.87 161.90 176.87 162.69 177.33 Z M 163.44 177.74 L 164.22 178.20 C 164.99 178.66 165.99 178.40 166.45 177.62 C 166.91 176.85 166.65 175.85 165.88 175.39 L 165.10 174.93 C 164.33 174.47 163.33 174.73 162.87 175.50 C 162.41 176.28 162.67 177.28 163.44 177.74 Z M 164.21 178.18 L 165.05 178.69 C 165.82 179.16 166.82 178.91 167.28 178.15 C 167.75 177.39 167.50 176.39 166.74 175.92 L 165.89 175.41 C 165.12 174.94 164.13 175.19 163.66 175.95 C 163.20 176.71 163.44 177.71 164.21 178.18 Z M 165.05 178.67 L 166.02 179.28 C 166.77 179.75 167.76 179.52 168.23 178.77 C 168.70 178.01 168.47 177.02 167.72 176.55 L 166.75 175.94 C 165.99 175.47 165.00 175.70 164.53 176.46 C 164.06 177.21 164.29 178.20 165.05 178.67 Z M 166.01 179.27 L 166.77 179.75 C 167.52 180.22 168.51 180.00 168.98 179.26 C 169.45 178.51 169.23 177.52 168.49 177.05 L 167.73 176.57 C 166.98 176.09 165.99 176.31 165.52 177.06 C 165.05 177.81 165.27 178.79 166.01 179.27 Z M 166.77 179.74 L 167.57 180.25 C 168.31 180.73 169.29 180.51 169.77 179.77 C 170.24 179.03 170.03 178.04 169.29 177.57 L 168.49 177.06 C 167.75 176.58 166.76 176.80 166.29 177.54 C 165.81 178.28 166.03 179.27 166.77 179.74 Z M 167.57 180.24 L 168.41 180.79 C 169.15 181.27 170.13 181.05 170.61 180.32 C 171.08 179.58 170.87 178.59 170.13 178.12 L 169.29 177.57 C 168.55 177.10 167.57 177.31 167.09 178.05 C 166.62 178.79 166.83 179.77 167.57 180.24 Z M 168.41 180.78 L 169.30 181.35 C 170.03 181.83 171.01 181.62 171.48 180.89 C 171.96 180.15 171.75 179.17 171.02 178.70 L 170.13 178.13 C 169.40 177.65 168.42 177.86 167.94 178.59 C 167.47 179.33 167.68 180.31 168.41 180.78 Z M 169.30 181.35 L 170.20 181.94 C 170.93 182.41 171.91 182.20 172.38 181.47 C 172.86 180.74 172.65 179.76 171.92 179.29 L 171.01 178.70 C 170.28 178.23 169.31 178.43 168.83 179.17 C 168.36 179.90 168.56 180.88 169.30 181.35 Z M 170.20 181.93 L 170.63 182.21 C 171.36 182.68 172.33 182.47 172.80 181.74 C 173.28 181.01 173.07 180.04 172.34 179.57 L 171.92 179.29 C 171.19 178.82 170.21 179.02 169.74 179.75 C 169.26 180.48 169.47 181.46 170.20 181.93 Z"
      fill="black"
      fill-rule="nonzero" /></svg>