<svg xmlns="http://www.w3.org/2000/svg" width="300" height="300" viewBox="0 0 300 300">
<path d="M 142.01 95.03 L 142.88 94.73 C 143.81 94.40 144.31 93.38 143.99 92.45 C 143.66 91.51 142.64 91.01 141.71 91.34 L 140.84 91.63 C 139.91 91.96 139.41 92.98 139.73 93.91 C 140.05 94.85 141.08 95.35 142.01 95.03 Z M 142.86 94.76 L 143.77 94.46 C 144.72 94.15 145.24 93.12 144.93 92.17 C 144.62 91.22 143.59 90.70 142.64 91.01 L 141.73 91.30 C 140.77 91.62 140.25 92.64 140.56 93.60 C 140.88 94.55 141.90 95.07 142.86 94.76 Z M 143.72 94.50 L 144.73 94.20 C 145.70 93.91 146.26 92.89 145.97 91.91 C 145.68 90.94 144.65 90.38 143.68 90.67 L 142.68 90.97 C 141.70 91.26 141.15 92.28 141.44 93.26 C 141.72 94.23 142.75 94.79 143.72 94.50 Z M 144.68 94.23 L 145.68 93.97 C 146.67 93.71 147.27 92.69 147.01 91.70 C 146.75 90.71 145.73 90.11 144.74 90.38 L 143.73 90.64 C 142.74 90.90 142.15 91.92 142.41 92.91 C 142.67 93.90 143.68 94.49 144.68 94.23 Z M 145.64 93.99 L 146.57 93.77 C 147.57 93.53 148.19 92.53 147.95 91.53 C 147.71 90.52 146.71 89.90 145.71 90.14 L 144.78 90.36 C 143.78 90.60 143.16 91.60 143.40 92.60 C 143.63 93.60 144.64 94.22 145.64 93.99 Z M 146.53 93.77 L 147.52 93.56 C 148.52 93.34 149.16 92.35 148.94 91.34 C 148.72 90.34 147.73 89.70 146.73 89.92 L 145.74 90.14 C 144.74 90.35 144.10 91.34 144.32 92.35 C 144.54 93.35 145.53 93.99 146.53 93.77 Z M 147.49 93.56 L 148.50 93.36 C 149.51 93.15 150.16 92.17 149.96 91.17 C 149.75 90.16 148.77 89.51 147.77 89.71 L 146.75 89.92 C 145.75 90.12 145.10 91.10 145.30 92.11 C 145.50 93.11 146.48 93.77 147.49 93.56 Z M 148.48 93.36 L 149.50 93.17 C 150.51 92.98 151.17 92.01 150.98 91.00 C 150.79 89.99 149.82 89.33 148.81 89.52 L 147.79 89.71 C 146.78 89.90 146.12 90.87 146.31 91.88 C 146.50 92.89 147.47 93.55 148.48 93.36 Z M 149.48 93.16 L 150.50 92.98 C 151.51 92.81 152.18 91.85 152.00 90.84 C 151.83 89.83 150.87 89.16 149.86 89.34 L 148.83 89.52 C 147.83 89.70 147.16 90.66 147.33 91.66 C 147.51 92.67 148.47 93.34 149.48 93.16 Z M 150.48 92.97 L 151.50 92.81 C 152.50 92.64 153.17 91.69 153.01 90.69 C 152.84 89.69 151.89 89.01 150.89 89.18 L 149.88 89.35 C 148.88 89.51 148.20 90.46 148.37 91.46 C 148.54 92.46 149.48 93.14 150.48 92.97 Z M 151.48 92.79 L 152.47 92.64 C 153.46 92.48 154.14 91.55 153.98 90.55 C 153.83 89.56 152.89 88.88 151.90 89.04 L 150.91 89.19 C 149.92 89.35 149.24 90.28 149.40 91.28 C 149.55 92.27 150.48 92.95 151.48 92.79 Z M 152.46 92.62 L 153.42 92.47 C 154.41 92.32 155.09 91.40 154.94 90.42 C 154.79 89.43 153.86 88.75 152.88 88.90 L 151.91 89.05 C 150.92 89.20 150.25 90.12 150.40 91.11 C 150.55 92.10 151.47 92.77 152.46 92.62 Z M 153.42 92.46 L 154.37 92.32 C 155.35 92.17 156.02 91.26 155.87 90.28 C 155.72 89.30 154.81 88.63 153.83 88.78 L 152.88 88.92 C 151.91 89.07 151.23 89.98 151.38 90.96 C 151.53 91.93 152.44 92.61 153.42 92.46 Z M 154.37 92.30 L 155.39 92.14 C 156.36 91.99 157.03 91.09 156.88 90.12 C 156.73 89.15 155.83 88.49 154.86 88.63 L 153.83 88.79 C 152.87 88.94 152.20 89.85 152.35 90.81 C 152.50 91.78 153.40 92.45 154.37 92.30 Z M 155.40 92.12 L 156.41 91.96 C 157.37 91.81 158.02 90.91 157.87 89.95 C 157.71 88.99 156.81 88.34 155.85 88.49 L 154.85 88.65 C 153.89 88.81 153.24 89.71 153.39 90.67 C 153.54 91.62 154.44 92.28 155.40 92.12 Z M 156.42 91.94 L 157.40 91.78 C 158.35 91.61 158.99 90.71 158.83 89.77 C 158.66 88.82 157.76 88.18 156.82 88.35 L 155.84 88.51 C 154.89 88.67 154.25 89.57 154.42 90.52 C 154.58 91.47 155.48 92.10 156.42 91.94 Z M 157.43 91.75 L 158.38 91.58 C 159.31 91.40 159.93 90.50 159.75 89.57 C 159.58 88.63 158.68 88.01 157.74 88.19 L 156.79 88.37 C 155.86 88.54 155.24 89.44 155.42 90.38 C 155.59 91.31 156.49 91.93 157.43 91.75 Z M 158.41 91.55 L 159.43 91.34 C 160.35 91.14 160.94 90.24 160.74 89.32 C 160.55 88.39 159.64 87.80 158.72 88.00 L 157.71 88.21 C 156.78 88.41 156.20 89.31 156.39 90.24 C 156.58 91.16 157.49 91.75 158.41 91.55 Z M 159.47 91.31 L 160.47 91.07 C 161.38 90.85 161.93 89.93 161.71 89.03 C 161.49 88.12 160.58 87.56 159.67 87.78 L 158.67 88.03 C 157.77 88.25 157.21 89.16 157.43 90.07 C 157.65 90.97 158.57 91.53 159.47 91.31 Z M 160.53 91.04 L 161.47 90.77 C 162.36 90.52 162.88 89.59 162.63 88.70 C 162.38 87.81 161.45 87.30 160.56 87.55 L 159.62 87.81 C 158.73 88.07 158.21 88.99 158.46 89.88 C 158.71 90.77 159.64 91.29 160.53 91.04 Z M 161.54 90.73 L 162.43 90.44 C 163.30 90.15 163.78 89.21 163.49 88.34 C 163.20 87.47 162.26 87.00 161.39 87.29 L 160.50 87.58 C 159.63 87.87 159.15 88.81 159.44 89.68 C 159.73 90.55 160.67 91.02 161.54 90.73 Z M 162.51 90.40 L 163.47 90.03 C 164.32 89.70 164.75 88.74 164.41 87.89 C 164.08 87.04 163.13 86.62 162.28 86.95 L 161.31 87.32 C 160.46 87.65 160.04 88.61 160.37 89.46 C 160.71 90.31 161.66 90.73 162.51 90.40 Z M 163.54 90.00 L 164.45 89.60 C 165.29 89.23 165.66 88.26 165.30 87.42 C 164.93 86.59 163.95 86.21 163.12 86.58 L 162.21 86.98 C 161.37 87.34 160.99 88.32 161.36 89.15 C 161.73 89.99 162.71 90.37 163.54 90.00 Z M 164.49 89.58 L 165.37 89.17 C 166.20 88.78 166.55 87.80 166.16 86.97 C 165.77 86.14 164.79 85.79 163.96 86.18 L 163.08 86.59 C 162.25 86.98 161.90 87.96 162.29 88.79 C 162.68 89.62 163.66 89.97 164.49 89.58 Z M 165.38 89.17 L 165.48 89.12 C 166.30 88.73 166.65 87.74 166.26 86.91 C 165.87 86.09 164.88 85.74 164.06 86.13 L 163.95 86.18 C 163.13 86.57 162.78 87.56 163.17 88.39 C 163.57 89.21 164.55 89.56 165.38 89.17 Z"
      fill="black"
      fill-rule="nonzero" /><path d="M 144.75 96.91 L 144.28 97.78 C 143.83 98.58 144.13 99.58 144.93 100.02 C 145.73 100.46 146.73 100.17 147.17 99.37 L 147.65 98.50 C 148.09 97.71 147.80 96.70 147.00 96.26 C 146.20 95.82 145.19 96.11 144.75 96.91 Z M 144.23 97.79 L 143.77 98.67 C 143.34 99.50 143.65 100.52 144.48 100.95 C 145.30 101.38 146.32 101.06 146.75 100.24 L 147.22 99.36 C 147.65 98.53 147.33 97.52 146.51 97.08 C 145.68 96.65 144.66 96.97 144.23 97.79 Z M 143.71 98.72 L 143.28 99.62 C 142.88 100.48 143.24 101.50 144.10 101.91 C 144.95 102.32 145.98 101.95 146.38 101.09 L 146.81 100.19 C 147.22 99.34 146.85 98.31 146.00 97.91 C 145.14 97.50 144.12 97.87 143.71 98.72 Z M 143.21 99.71 L 142.83 100.64 C 142.47 101.54 142.91 102.56 143.80 102.92 C 144.70 103.28 145.72 102.84 146.08 101.95 L 146.45 101.01 C 146.82 100.12 146.38 99.10 145.49 98.74 C 144.59 98.38 143.57 98.81 143.21 99.71 Z M 142.77 100.76 L 142.47 101.71 C 142.17 102.64 142.68 103.64 143.61 103.94 C 144.54 104.23 145.54 103.72 145.84 102.79 L 146.14 101.84 C 146.44 100.90 145.93 99.91 145.00 99.61 C 144.06 99.31 143.07 99.83 142.77 100.76 Z M 142.42 101.82 L 142.18 102.80 C 141.94 103.75 142.52 104.72 143.48 104.96 C 144.43 105.20 145.40 104.61 145.64 103.66 L 145.88 102.68 C 146.12 101.72 145.54 100.76 144.58 100.52 C 143.63 100.28 142.66 100.86 142.42 101.82 Z M 142.15 102.89 L 141.96 103.88 C 141.77 104.85 142.40 105.79 143.38 105.98 C 144.35 106.17 145.29 105.53 145.48 104.56 L 145.67 103.57 C 145.86 102.59 145.22 101.65 144.25 101.47 C 143.27 101.28 142.33 101.91 142.15 102.89 Z M 141.93 103.95 L 141.79 104.94 C 141.64 105.92 142.32 106.84 143.31 106.99 C 144.30 107.13 145.21 106.45 145.36 105.46 L 145.50 104.48 C 145.65 103.49 144.97 102.58 143.98 102.43 C 142.99 102.29 142.08 102.97 141.93 103.95 Z M 141.77 105.00 L 141.66 105.99 C 141.55 106.98 142.27 107.88 143.27 107.99 C 144.27 108.10 145.16 107.38 145.27 106.38 L 145.38 105.40 C 145.48 104.40 144.77 103.51 143.77 103.40 C 142.77 103.29 141.88 104.01 141.77 105.00 Z M 141.65 106.05 L 141.58 107.02 C 141.50 108.03 142.25 108.90 143.25 108.98 C 144.26 109.05 145.13 108.30 145.21 107.30 L 145.28 106.32 C 145.36 105.32 144.61 104.45 143.60 104.37 C 142.60 104.29 141.73 105.04 141.65 106.05 Z M 141.57 107.07 L 141.52 108.06 C 141.47 109.06 142.25 109.92 143.26 109.97 C 144.26 110.01 145.12 109.24 145.16 108.23 L 145.21 107.25 C 145.26 106.24 144.48 105.39 143.48 105.34 C 142.47 105.29 141.62 106.07 141.57 107.07 Z M 141.52 108.09 L 141.49 109.11 C 141.46 110.11 142.26 110.96 143.27 110.98 C 144.27 111.01 145.11 110.22 145.14 109.21 L 145.17 108.20 C 145.20 107.19 144.40 106.35 143.39 106.32 C 142.39 106.29 141.55 107.09 141.52 108.09 Z M 141.49 109.13 L 141.47 110.12 C 141.46 111.13 142.26 111.96 143.27 111.98 C 144.28 111.99 145.11 111.19 145.13 110.18 L 145.15 109.19 C 145.16 108.18 144.36 107.34 143.34 107.33 C 142.33 107.31 141.50 108.12 141.49 109.13 Z M 141.47 110.13 L 141.46 111.09 C 141.45 112.11 142.26 112.93 143.27 112.94 C 144.29 112.95 145.11 112.14 145.12 111.13 L 145.13 110.16 C 145.14 109.15 144.33 108.33 143.32 108.32 C 142.31 108.31 141.48 109.12 141.47 110.13 Z M 141.46 111.10 L 141.45 112.10 C 141.45 113.11 142.27 113.94 143.28 113.94 C 144.29 113.95 145.11 113.13 145.12 112.12 L 145.12 111.12 C 145.13 110.11 144.31 109.28 143.30 109.28 C 142.29 109.27 141.46 110.09 141.46 111.10 Z M 141.45 112.10 L 141.45 113.13 C 141.45 114.14 142.27 114.96 143.28 114.96 C 144.29 114.97 145.12 114.15 145.12 113.13 L 145.12 112.11 C 145.12 111.10 144.30 110.28 143.29 110.27 C 142.28 110.27 141.45 111.09 141.45 112.10 Z M 141.45 113.13 L 141.45 114.17 C 141.45 115.18 142.27 116.00 143.28 116.00 C 144.30 116.01 145.12 115.18 145.12 114.17 L 145.12 113.13 C 145.12 112.12 144.30 111.30 143.29 111.29 C 142.27 111.29 141.45 112.12 141.45 113.13 Z M 141.45 114.17 L 141.45 115.16 C 141.45 116.17 142.27 117.00 143.29 117.00 C 144.30 117.00 145.12 116.17 145.12 115.16 L 145.12 114.17 C 145.12 113.16 144.30 112.33 143.28 112.33 C 142.27 112.33 141.45 113.16 141.45 114.17 Z M 141.45 115.17 L 141.45 116.15 C 141.46 117.16 142.28 117.98 143.29 117.97 C 144.31 117.97 145.12 117.15 145.12 116.13 L 145.12 115.15 C 145.12 114.14 144.29 113.32 143.28 113.33 C 142.27 113.33 141.45 114.15 141.45 115.17 Z M 141.46 116.16 L 141.47 117.15 C 141.48 118.16 142.30 118.97 143.32 118.96 C 144.33 118.95 145.14 118.12 145.13 117.11 L 145.12 116.12 C 145.11 115.11 144.28 114.30 143.27 114.31 C 142.26 114.32 141.45 115.15 141.46 116.16 Z M 141.47 117.17 L 141.49 118.17 C 141.51 119.18 142.35 119.99 143.36 119.97 C 144.37 119.95 145.17 119.11 145.15 118.10 L 145.13 117.09 C 145.11 116.08 144.27 115.28 143.26 115.30 C 142.25 115.32 141.45 116.16 141.47 117.17 Z M 141.49 118.20 L 141.53 119.23 C 141.56 120.23 142.41 121.02 143.42 120.99 C 144.43 120.95 145.22 120.11 145.18 119.10 L 145.15 118.07 C 145.11 117.07 144.26 116.28 143.26 116.31 C 142.25 116.35 141.46 117.19 141.49 118.20 Z M 141.53 119.26 L 141.59 120.30 C 141.64 121.30 142.49 122.08 143.50 122.03 C 144.51 121.98 145.28 121.12 145.23 120.11 L 145.18 119.07 C 145.12 118.06 144.27 117.29 143.26 117.34 C 142.25 117.39 141.48 118.25 141.53 119.26 Z M 141.59 120.33 L 141.66 121.37 C 141.73 122.38 142.60 123.13 143.60 123.07 C 144.60 123.00 145.36 122.13 145.29 121.13 L 145.22 120.08 C 145.16 119.08 144.29 118.32 143.29 118.39 C 142.28 118.46 141.53 119.32 141.59 120.33 Z M 141.67 121.39 L 141.75 122.43 C 141.83 123.43 142.70 124.17 143.70 124.09 C 144.70 124.02 145.44 123.14 145.37 122.14 L 145.28 121.11 C 145.20 120.11 144.33 119.37 143.33 119.45 C 142.34 119.52 141.59 120.40 141.67 121.39 Z M 141.76 122.45 L 141.85 123.45 C 141.94 124.44 142.81 125.18 143.81 125.09 C 144.80 125.00 145.54 124.12 145.45 123.13 L 145.36 122.13 C 145.27 121.13 144.39 120.40 143.40 120.49 C 142.41 120.58 141.67 121.45 141.76 122.45 Z M 141.86 123.46 L 141.95 124.41 C 142.04 125.39 142.92 126.12 143.91 126.02 C 144.90 125.93 145.63 125.05 145.53 124.06 L 145.44 123.11 C 145.34 122.12 144.46 121.40 143.47 121.50 C 142.48 121.59 141.76 122.47 141.86 123.46 Z M 141.96 124.42 L 142.06 125.39 C 142.16 126.37 143.04 127.09 144.03 126.98 C 145.01 126.88 145.72 126.00 145.62 125.02 L 145.52 124.05 C 145.42 123.06 144.54 122.35 143.55 122.45 C 142.57 122.55 141.86 123.43 141.96 124.42 Z M 142.07 125.40 L 142.19 126.41 C 142.29 127.39 143.17 128.09 144.15 127.98 C 145.12 127.87 145.83 127.00 145.72 126.02 L 145.61 125.01 C 145.50 124.03 144.62 123.33 143.65 123.44 C 142.67 123.54 141.97 124.42 142.07 125.40 Z M 142.20 126.42 L 142.31 127.37 C 142.42 128.34 143.30 129.03 144.26 128.92 C 145.23 128.81 145.92 127.93 145.81 126.96 L 145.70 126.01 C 145.59 125.05 144.72 124.35 143.75 124.46 C 142.78 124.58 142.09 125.45 142.20 126.42 Z M 142.33 127.37 L 142.44 128.33 C 142.55 129.29 143.42 129.97 144.38 129.86 C 145.33 129.75 146.02 128.89 145.91 127.93 L 145.80 126.97 C 145.69 126.01 144.82 125.32 143.86 125.43 C 142.90 125.54 142.22 126.41 142.33 127.37 Z M 142.45 128.32 L 142.56 129.26 C 142.67 130.21 143.52 130.89 144.48 130.79 C 145.43 130.68 146.11 129.82 146.00 128.87 L 145.90 127.93 C 145.79 126.98 144.93 126.30 143.98 126.41 C 143.03 126.51 142.35 127.37 142.45 128.32 Z M 142.57 129.26 L 142.67 130.16 C 142.77 131.11 143.63 131.79 144.57 131.68 C 145.52 131.57 146.20 130.72 146.09 129.78 L 145.99 128.87 C 145.89 127.93 145.03 127.25 144.09 127.35 C 143.14 127.46 142.46 128.31 142.57 129.26 Z M 142.68 130.16 L 142.79 131.13 C 142.90 132.07 143.75 132.75 144.69 132.64 C 145.63 132.53 146.31 131.68 146.20 130.74 L 146.09 129.77 C 145.98 128.83 145.13 128.16 144.19 128.26 C 143.24 128.37 142.57 129.22 142.68 130.16 Z M 142.80 131.14 L 142.92 132.17 C 143.03 133.11 143.89 133.77 144.82 133.66 C 145.76 133.55 146.43 132.70 146.31 131.76 L 146.19 130.73 C 146.08 129.79 145.22 129.13 144.29 129.24 C 143.35 129.35 142.68 130.21 142.80 131.14 Z M 142.93 132.19 L 143.07 133.27 C 143.19 134.20 144.05 134.86 144.98 134.73 C 145.91 134.61 146.57 133.76 146.45 132.83 L 146.30 131.74 C 146.18 130.81 145.33 130.16 144.40 130.28 C 143.46 130.40 142.81 131.25 142.93 132.19 Z M 143.08 133.29 L 143.23 134.34 C 143.36 135.26 144.22 135.91 145.15 135.78 C 146.08 135.64 146.72 134.79 146.59 133.86 L 146.44 132.81 C 146.30 131.88 145.45 131.24 144.52 131.37 C 143.59 131.50 142.95 132.36 143.08 133.29 Z M 143.24 134.36 L 143.40 135.37 C 143.55 136.29 144.41 136.92 145.33 136.78 C 146.25 136.63 146.88 135.77 146.73 134.85 L 146.58 133.84 C 146.43 132.92 145.57 132.29 144.65 132.43 C 143.73 132.58 143.10 133.44 143.24 134.36 Z M 143.41 135.40 L 143.59 136.41 C 143.75 137.33 144.62 137.94 145.53 137.78 C 146.44 137.62 147.06 136.75 146.90 135.84 L 146.72 134.82 C 146.56 133.91 145.69 133.30 144.78 133.46 C 143.87 133.62 143.26 134.48 143.41 135.40 Z M 143.61 136.45 L 143.80 137.45 C 143.98 138.35 144.85 138.94 145.76 138.77 C 146.66 138.59 147.26 137.71 147.08 136.81 L 146.88 135.81 C 146.71 134.90 145.83 134.31 144.92 134.49 C 144.02 134.66 143.43 135.54 143.61 136.45 Z M 143.82 137.49 L 144.03 138.45 C 144.23 139.35 145.12 139.91 146.01 139.71 C 146.91 139.52 147.47 138.63 147.28 137.73 L 147.06 136.77 C 146.86 135.87 145.98 135.31 145.08 135.50 C 144.18 135.70 143.62 136.59 143.82 137.49 Z M 144.05 138.50 L 144.29 139.42 C 144.51 140.30 145.42 140.83 146.30 140.61 C 147.18 140.38 147.72 139.48 147.49 138.59 L 147.26 137.68 C 147.03 136.80 146.13 136.26 145.24 136.49 C 144.36 136.72 143.83 137.62 144.05 138.50 Z M 144.31 139.49 L 144.63 140.53 C 144.90 141.40 145.82 141.89 146.69 141.62 C 147.56 141.35 148.05 140.43 147.78 139.56 L 147.46 138.52 C 147.20 137.65 146.27 137.16 145.40 137.43 C 144.53 137.70 144.05 138.62 144.31 139.49 Z M 144.66 140.61 L 145.02 141.58 C 145.33 142.43 146.28 142.87 147.13 142.56 C 147.98 142.24 148.42 141.30 148.11 140.45 L 147.75 139.48 C 147.44 138.63 146.50 138.19 145.64 138.50 C 144.79 138.81 144.35 139.76 144.66 140.61 Z M 145.05 141.64 L 145.42 142.54 C 145.77 143.38 146.73 143.77 147.57 143.42 C 148.40 143.08 148.80 142.11 148.45 141.28 L 148.08 140.38 C 147.73 139.54 146.77 139.15 145.93 139.49 C 145.09 139.84 144.70 140.80 145.05 141.64 Z M 145.44 142.58 L 145.83 143.44 C 146.20 144.26 147.17 144.63 148.00 144.26 C 148.82 143.89 149.19 142.92 148.82 142.09 L 148.43 141.24 C 148.06 140.41 147.09 140.04 146.26 140.41 C 145.44 140.79 145.07 141.76 145.44 142.58 Z M 145.84 143.45 L 146.04 143.90 C 146.42 144.72 147.40 145.08 148.22 144.70 C 149.04 144.32 149.39 143.34 149.01 142.52 L 148.81 142.08 C 148.43 141.25 147.45 140.90 146.63 141.28 C 145.81 141.66 145.46 142.63 145.84 143.45 Z"
      fill="black"
      fill-rule="nonzero" /><path d="M 146.28 112.91 L 147.10 113.43 C 147.95 113.97 149.07 113.72 149.61 112.88 C 150.16 112.03 149.91 110.90 149.06 110.36 L 148.25 109.84 C 147.40 109.29 146.27 109.54 145.73 110.39 C 145.18 111.24 145.43 112.36 146.28 112.91 Z M 147.20 113.45 L 148.05 113.93 C 148.91 114.42 150.00 114.12 150.49 113.26 C 150.98 112.40 150.67 111.31 149.81 110.82 L 148.96 110.34 C 148.10 109.85 147.01 110.15 146.52 111.01 C 146.03 111.87 146.34 112.96 147.20 113.45 Z M 148.23 113.99 L 149.15 114.39 C 150.04 114.78 151.07 114.37 151.46 113.48 C 151.85 112.59 151.45 111.56 150.56 111.17 L 149.64 110.76 C 148.75 110.38 147.71 110.78 147.32 111.67 C 146.93 112.56 147.34 113.60 148.23 113.99 Z M 149.39 114.44 L 150.38 114.72 C 151.30 114.98 152.25 114.44 152.51 113.52 C 152.77 112.60 152.23 111.65 151.31 111.39 L 150.32 111.11 C 149.40 110.86 148.44 111.39 148.19 112.31 C 147.93 113.23 148.47 114.19 149.39 114.44 Z M 150.60 114.74 L 151.59 114.88 C 152.52 115.02 153.38 114.37 153.51 113.44 C 153.65 112.50 153.00 111.64 152.07 111.51 L 151.08 111.37 C 150.15 111.23 149.29 111.88 149.16 112.81 C 149.02 113.75 149.67 114.61 150.60 114.74 Z M 151.73 114.88 L 152.75 114.94 C 153.68 115.00 154.48 114.29 154.54 113.36 C 154.59 112.42 153.88 111.62 152.95 111.57 L 151.93 111.51 C 150.99 111.45 150.19 112.16 150.14 113.10 C 150.08 114.03 150.80 114.83 151.73 114.88 Z M 152.84 114.93 L 153.86 114.94 C 154.78 114.95 155.54 114.20 155.54 113.28 C 155.55 112.36 154.81 111.60 153.89 111.59 L 152.87 111.58 C 151.94 111.57 151.19 112.32 151.18 113.24 C 151.17 114.16 151.91 114.92 152.84 114.93 Z M 153.90 114.92 L 154.87 114.91 C 155.78 114.89 156.51 114.14 156.50 113.23 C 156.49 112.31 155.73 111.58 154.82 111.60 L 153.85 111.61 C 152.93 111.62 152.20 112.37 152.22 113.29 C 152.23 114.20 152.98 114.93 153.90 114.92 Z M 154.84 114.90 L 156.02 114.90 C 156.93 114.90 157.67 114.16 157.67 113.26 C 157.67 112.35 156.94 111.61 156.03 111.61 L 154.84 111.61 C 153.94 111.60 153.20 112.34 153.20 113.25 C 153.20 114.16 153.93 114.90 154.84 114.90 Z M 155.81 114.88 L 156.79 115.01 C 157.69 115.13 158.52 114.50 158.64 113.60 C 158.75 112.70 158.12 111.87 157.22 111.76 L 156.24 111.63 C 155.34 111.51 154.52 112.14 154.40 113.04 C 154.28 113.94 154.91 114.76 155.81 114.88 Z M 156.24 114.83 L 156.96 115.22 C 157.76 115.64 158.75 115.34 159.18 114.54 C 159.60 113.74 159.30 112.75 158.50 112.32 L 157.78 111.94 C 156.98 111.51 155.98 111.81 155.56 112.61 C 155.13 113.41 155.44 114.41 156.24 114.83 Z M 156.32 114.61 L 156.76 115.34 C 157.22 116.12 158.23 116.37 159.00 115.91 C 159.78 115.44 160.04 114.44 159.57 113.66 L 159.14 112.93 C 158.67 112.15 157.67 111.90 156.89 112.36 C 156.11 112.82 155.86 113.83 156.32 114.61 Z M 156.54 114.76 L 156.70 115.75 C 156.85 116.64 157.69 117.25 158.59 117.10 C 159.48 116.96 160.09 116.11 159.95 115.22 L 159.79 114.23 C 159.64 113.34 158.80 112.73 157.90 112.87 C 157.00 113.02 156.39 113.86 156.54 114.76 Z M 156.68 115.34 L 156.59 116.42 C 156.51 117.33 157.18 118.13 158.09 118.20 C 159.00 118.28 159.80 117.61 159.88 116.70 L 159.97 115.62 C 160.05 114.71 159.37 113.92 158.46 113.84 C 157.56 113.76 156.76 114.43 156.68 115.34 Z M 156.64 116.09 L 156.36 117.02 C 156.10 117.90 156.60 118.82 157.48 119.08 C 158.36 119.34 159.28 118.85 159.54 117.97 L 159.82 117.03 C 160.08 116.16 159.58 115.23 158.71 114.97 C 157.83 114.71 156.90 115.21 156.64 116.09 Z M 156.45 116.76 L 156.03 117.63 C 155.63 118.46 155.97 119.46 156.80 119.86 C 157.64 120.26 158.63 119.92 159.04 119.09 L 159.46 118.22 C 159.86 117.39 159.51 116.39 158.68 115.99 C 157.85 115.59 156.85 115.93 156.45 116.76 Z M 156.10 117.47 L 155.57 118.33 C 155.08 119.12 155.32 120.16 156.11 120.65 C 156.90 121.14 157.94 120.90 158.43 120.11 L 158.97 119.24 C 159.46 118.45 159.21 117.42 158.42 116.92 C 157.63 116.43 156.59 116.68 156.10 117.47 Z M 155.60 118.26 L 155.00 119.13 C 154.47 119.90 154.67 120.96 155.44 121.49 C 156.22 122.02 157.27 121.82 157.81 121.05 L 158.40 120.18 C 158.93 119.41 158.73 118.35 157.96 117.82 C 157.19 117.29 156.13 117.49 155.60 118.26 Z M 155.00 119.11 L 154.43 119.92 C 153.89 120.70 154.08 121.77 154.86 122.31 C 155.64 122.85 156.71 122.66 157.25 121.88 L 157.81 121.07 C 158.35 120.29 158.16 119.22 157.38 118.68 C 156.61 118.14 155.54 118.33 155.00 119.11 Z M 154.41 119.92 L 153.83 120.76 C 153.29 121.55 153.49 122.63 154.28 123.17 C 155.07 123.71 156.15 123.51 156.69 122.72 L 157.27 121.88 C 157.81 121.09 157.61 120.01 156.82 119.47 C 156.03 118.93 154.95 119.13 154.41 119.92 Z M 153.80 120.77 L 153.24 121.62 C 152.70 122.43 152.92 123.52 153.73 124.05 C 154.54 124.59 155.63 124.37 156.17 123.56 L 156.73 122.71 C 157.26 121.90 157.04 120.81 156.23 120.28 C 155.42 119.74 154.33 119.96 153.80 120.77 Z M 153.19 121.66 L 152.66 122.52 C 152.14 123.35 152.40 124.45 153.24 124.96 C 154.07 125.48 155.16 125.22 155.68 124.38 L 156.21 123.52 C 156.73 122.69 156.47 121.59 155.63 121.08 C 154.80 120.56 153.71 120.82 153.19 121.66 Z M 152.59 122.62 L 152.01 123.72 C 151.55 124.59 151.88 125.67 152.75 126.13 C 153.63 126.59 154.71 126.26 155.17 125.39 L 155.75 124.29 C 156.21 123.41 155.88 122.33 155.00 121.87 C 154.13 121.41 153.05 121.74 152.59 122.62 Z M 151.87 124.02 L 151.58 124.94 C 151.29 125.89 151.82 126.90 152.76 127.19 C 153.71 127.49 154.72 126.96 155.02 126.01 L 155.30 125.09 C 155.60 124.14 155.07 123.13 154.12 122.84 C 153.18 122.54 152.17 123.07 151.87 124.02 Z M 151.54 125.87 L 151.68 126.52 C 151.90 127.49 152.87 128.10 153.84 127.88 C 154.81 127.66 155.43 126.70 155.21 125.73 L 155.06 125.08 C 154.84 124.11 153.88 123.50 152.90 123.72 C 151.93 123.94 151.32 124.90 151.54 125.87 Z M 152.67 127.76 L 153.29 128.05 C 154.19 128.48 155.27 128.09 155.70 127.19 C 156.13 126.29 155.74 125.21 154.84 124.78 L 154.22 124.49 C 153.32 124.06 152.24 124.45 151.81 125.35 C 151.38 126.25 151.77 127.33 152.67 127.76 Z M 154.05 128.22 L 155.05 128.23 C 156.05 128.24 156.86 127.44 156.87 126.44 C 156.88 125.45 156.08 124.63 155.09 124.62 L 154.08 124.61 C 153.09 124.60 152.27 125.40 152.26 126.40 C 152.25 127.40 153.05 128.21 154.05 128.22 Z M 155.39 128.20 L 156.66 127.97 C 157.64 127.79 158.29 126.86 158.11 125.88 C 157.94 124.90 157.00 124.25 156.02 124.43 L 154.75 124.65 C 153.77 124.83 153.12 125.77 153.30 126.74 C 153.47 127.72 154.41 128.37 155.39 128.20 Z M 156.81 127.92 L 157.70 127.68 C 158.66 127.42 159.22 126.43 158.96 125.48 C 158.69 124.52 157.71 123.96 156.75 124.23 L 155.86 124.47 C 154.91 124.73 154.35 125.72 154.61 126.67 C 154.88 127.63 155.86 128.19 156.81 127.92 Z M 157.79 127.64 L 158.70 127.33 C 159.63 127.02 160.14 126.02 159.83 125.09 C 159.52 124.16 158.51 123.66 157.58 123.97 L 156.67 124.27 C 155.74 124.58 155.24 125.58 155.55 126.51 C 155.85 127.44 156.86 127.95 157.79 127.64 Z M 158.77 127.29 L 159.71 126.93 C 160.62 126.59 161.08 125.57 160.73 124.66 C 160.38 123.76 159.37 123.30 158.46 123.65 L 157.52 124.01 C 156.61 124.35 156.15 125.37 156.50 126.28 C 156.85 127.18 157.86 127.64 158.77 127.29 Z M 159.77 126.89 L 160.73 126.49 C 161.62 126.11 162.03 125.09 161.65 124.20 C 161.28 123.32 160.26 122.90 159.37 123.28 L 158.41 123.68 C 157.52 124.06 157.11 125.08 157.48 125.97 C 157.86 126.86 158.88 127.27 159.77 126.89 Z M 160.77 126.45 L 161.74 126.00 C 162.61 125.60 162.98 124.57 162.58 123.71 C 162.18 122.84 161.16 122.47 160.29 122.87 L 159.32 123.31 C 158.46 123.71 158.08 124.74 158.48 125.61 C 158.88 126.47 159.91 126.85 160.77 126.45 Z M 161.78 125.97 L 162.72 125.50 C 163.56 125.08 163.91 124.05 163.48 123.20 C 163.06 122.36 162.03 122.01 161.19 122.43 L 160.25 122.90 C 159.40 123.32 159.06 124.35 159.48 125.20 C 159.91 126.05 160.93 126.39 161.78 125.97 Z M 162.75 125.47 L 163.66 124.98 C 164.49 124.54 164.81 123.51 164.36 122.68 C 163.92 121.85 162.89 121.54 162.07 121.98 L 161.15 122.47 C 160.32 122.91 160.01 123.94 160.45 124.77 C 160.89 125.59 161.92 125.91 162.75 125.47 Z M 163.69 124.95 L 164.58 124.45 C 165.39 123.99 165.68 122.96 165.22 122.15 C 164.76 121.34 163.73 121.05 162.92 121.51 L 162.04 122.01 C 161.23 122.47 160.94 123.50 161.40 124.31 C 161.85 125.12 162.88 125.41 163.69 124.95 Z M 164.61 124.42 L 165.46 123.91 C 166.25 123.44 166.51 122.41 166.04 121.62 C 165.57 120.83 164.54 120.56 163.75 121.04 L 162.90 121.54 C 162.10 122.01 161.84 123.04 162.31 123.83 C 162.79 124.63 163.81 124.89 164.61 124.42 Z M 165.48 123.88 L 166.29 123.38 C 167.06 122.89 167.30 121.87 166.82 121.09 C 166.33 120.32 165.31 120.08 164.53 120.56 L 163.73 121.07 C 162.95 121.55 162.71 122.57 163.20 123.35 C 163.68 124.13 164.70 124.37 165.48 123.88 Z M 166.31 123.35 L 167.17 122.78 C 167.93 122.29 168.15 121.26 167.65 120.50 C 167.15 119.74 166.13 119.53 165.37 120.03 L 164.51 120.59 C 163.74 121.09 163.53 122.11 164.03 122.87 C 164.53 123.64 165.55 123.85 166.31 123.35 Z M 167.20 122.76 L 168.06 122.17 C 168.80 121.65 168.99 120.63 168.48 119.88 C 167.96 119.14 166.94 118.95 166.19 119.46 L 165.34 120.05 C 164.59 120.57 164.40 121.59 164.92 122.34 C 165.43 123.09 166.46 123.28 167.20 122.76 Z M 168.08 122.15 L 168.88 121.57 C 169.62 121.04 169.78 120.02 169.25 119.28 C 168.72 118.55 167.70 118.38 166.96 118.91 L 166.16 119.48 C 165.43 120.02 165.26 121.04 165.79 121.78 C 166.32 122.51 167.35 122.68 168.08 122.15 Z M 168.90 121.56 L 169.66 120.99 C 170.39 120.45 170.54 119.42 170.01 118.70 C 169.47 117.97 168.44 117.82 167.71 118.36 L 166.95 118.92 C 166.22 119.46 166.07 120.49 166.60 121.22 C 167.14 121.95 168.17 122.10 168.90 121.56 Z M 169.67 120.98 L 170.13 120.64 C 170.85 120.10 171.00 119.07 170.46 118.35 C 169.91 117.62 168.89 117.48 168.16 118.02 L 167.71 118.36 C 166.98 118.91 166.83 119.93 167.38 120.66 C 167.92 121.38 168.95 121.53 169.67 120.98 Z"
      fill="black"
      fill-rule="nonzero" /><path d="M 125.75 150.48 L 126.52 151.07 C 127.31 151.67 128.44 151.52 129.05 150.73 C 129.65 149.94 129.50 148.80 128.70 148.20 L 127.93 147.61 C 127.14 147.01 126.01 147.16 125.40 147.95 C 124.80 148.75 124.95 149.88 125.75 150.48 Z M 126.66 151.19 L 127.49 151.70 C 128.35 152.22 129.48 151.95 130.00 151.09 C 130.52 150.23 130.25 149.11 129.39 148.58 L 128.56 148.08 C 127.70 147.55 126.58 147.83 126.05 148.69 C 125.53 149.55 125.80 150.67 126.66 151.19 Z M 127.81 151.87 L 128.77 152.22 C 129.73 152.56 130.78 152.07 131.13 151.12 C 131.47 150.16 130.98 149.10 130.03 148.76 L 129.07 148.41 C 128.11 148.06 127.06 148.56 126.71 149.51 C 126.37 150.47 126.86 151.52 127.81 151.87 Z M 129.18 152.33 L 130.15 152.44 C 131.17 152.56 132.09 151.83 132.21 150.82 C 132.32 149.80 131.60 148.88 130.58 148.76 L 129.61 148.65 C 128.60 148.53 127.68 149.26 127.56 150.27 C 127.44 151.29 128.17 152.21 129.18 152.33 Z M 130.45 152.46 L 131.44 152.41 C 132.46 152.37 133.26 151.50 133.21 150.48 C 133.17 149.45 132.30 148.66 131.28 148.70 L 130.29 148.75 C 129.26 148.79 128.47 149.66 128.51 150.68 C 128.55 151.71 129.42 152.50 130.45 152.46 Z M 131.62 152.40 L 132.64 152.26 C 133.66 152.11 134.37 151.17 134.23 150.16 C 134.09 149.14 133.15 148.43 132.13 148.57 L 131.10 148.72 C 130.08 148.86 129.38 149.80 129.52 150.82 C 129.66 151.83 130.60 152.54 131.62 152.40 Z M 132.76 152.24 L 133.76 152.03 C 134.77 151.83 135.42 150.85 135.21 149.84 C 135.01 148.83 134.03 148.18 133.02 148.39 L 132.02 148.59 C 131.01 148.79 130.36 149.78 130.56 150.78 C 130.77 151.79 131.75 152.44 132.76 152.24 Z M 133.83 152.02 L 134.85 151.77 C 135.85 151.53 136.46 150.52 136.22 149.52 C 135.97 148.52 134.97 147.91 133.97 148.15 L 132.95 148.40 C 131.95 148.64 131.34 149.65 131.58 150.65 C 131.82 151.65 132.83 152.26 133.83 152.02 Z M 134.90 151.76 L 135.89 151.49 C 136.88 151.21 137.46 150.19 137.19 149.19 C 136.91 148.20 135.89 147.62 134.89 147.89 L 133.91 148.17 C 132.92 148.44 132.34 149.47 132.61 150.46 C 132.89 151.45 133.91 152.03 134.90 151.76 Z M 135.94 151.47 L 136.86 151.19 C 137.84 150.89 138.39 149.84 138.09 148.86 C 137.79 147.88 136.75 147.32 135.76 147.63 L 134.84 147.91 C 133.86 148.21 133.31 149.25 133.61 150.24 C 133.91 151.22 134.96 151.77 135.94 151.47 Z M 136.89 151.18 L 137.80 150.88 C 138.78 150.56 139.31 149.51 138.99 148.53 C 138.67 147.55 137.61 147.02 136.64 147.34 L 135.73 147.64 C 134.75 147.96 134.22 149.01 134.54 149.99 C 134.86 150.97 135.91 151.50 136.89 151.18 Z M 137.81 150.88 L 138.72 150.57 C 139.69 150.24 140.22 149.18 139.89 148.21 C 139.56 147.23 138.50 146.71 137.53 147.04 L 136.62 147.35 C 135.65 147.67 135.12 148.73 135.45 149.71 C 135.78 150.68 136.84 151.20 137.81 150.88 Z M 138.73 150.56 L 139.67 150.24 C 140.64 149.91 141.16 148.85 140.83 147.88 C 140.49 146.90 139.43 146.39 138.46 146.72 L 137.52 147.04 C 136.55 147.38 136.03 148.44 136.36 149.41 C 136.70 150.38 137.76 150.90 138.73 150.56 Z M 139.68 150.24 L 140.65 149.90 C 141.62 149.56 142.13 148.50 141.79 147.53 C 141.45 146.56 140.39 146.05 139.42 146.39 L 138.45 146.72 C 137.48 147.06 136.97 148.12 137.31 149.09 C 137.65 150.06 138.71 150.58 139.68 150.24 Z M 140.65 149.90 L 141.61 149.56 C 142.58 149.22 143.08 148.16 142.74 147.19 C 142.40 146.22 141.34 145.71 140.37 146.05 L 139.42 146.39 C 138.45 146.73 137.94 147.79 138.28 148.76 C 138.62 149.73 139.68 150.24 140.65 149.90 Z M 141.61 149.56 L 142.54 149.23 C 143.51 148.88 144.01 147.82 143.67 146.86 C 143.33 145.89 142.26 145.38 141.30 145.73 L 140.37 146.06 C 139.40 146.40 138.90 147.46 139.24 148.43 C 139.58 149.39 140.64 149.90 141.61 149.56 Z M 142.55 149.22 L 143.49 148.89 C 144.45 148.54 144.95 147.48 144.61 146.51 C 144.26 145.55 143.20 145.05 142.23 145.39 L 141.29 145.73 C 140.33 146.08 139.83 147.14 140.17 148.10 C 140.52 149.07 141.58 149.57 142.55 149.22 Z M 143.50 148.88 L 144.45 148.53 C 145.41 148.18 145.91 147.12 145.56 146.16 C 145.21 145.20 144.14 144.70 143.18 145.05 L 142.23 145.40 C 141.27 145.75 140.77 146.81 141.12 147.77 C 141.47 148.73 142.53 149.23 143.50 148.88 Z M 144.46 148.53 L 145.39 148.18 C 146.35 147.83 146.84 146.77 146.49 145.81 C 146.13 144.85 145.07 144.36 144.11 144.71 L 143.18 145.05 C 142.22 145.41 141.72 146.47 142.08 147.43 C 142.43 148.39 143.50 148.88 144.46 148.53 Z M 145.40 148.18 L 146.32 147.84 C 147.27 147.48 147.76 146.41 147.40 145.46 C 147.05 144.50 145.98 144.01 145.02 144.37 L 144.10 144.71 C 143.15 145.07 142.66 146.14 143.02 147.09 C 143.37 148.05 144.44 148.54 145.40 148.18 Z M 146.32 147.83 L 147.25 147.48 C 148.21 147.12 148.69 146.06 148.33 145.10 C 147.97 144.15 146.91 143.67 145.95 144.02 L 145.02 144.38 C 144.07 144.73 143.58 145.80 143.94 146.75 C 144.30 147.71 145.37 148.19 146.32 147.83 Z M 147.25 147.48 L 148.20 147.12 C 149.16 146.76 149.64 145.70 149.28 144.74 C 148.92 143.79 147.86 143.31 146.90 143.67 L 145.95 144.03 C 145.00 144.39 144.52 145.45 144.88 146.40 C 145.24 147.36 146.30 147.84 147.25 147.48 Z M 148.20 147.11 L 149.15 146.76 C 150.10 146.40 150.58 145.34 150.22 144.39 C 149.87 143.44 148.80 142.96 147.85 143.31 L 146.90 143.67 C 145.95 144.03 145.47 145.09 145.83 146.04 C 146.19 146.99 147.25 147.47 148.20 147.11 Z M 149.15 146.75 L 150.08 146.40 C 151.03 146.04 151.51 144.98 151.15 144.04 C 150.80 143.09 149.74 142.61 148.79 142.97 L 147.86 143.32 C 146.91 143.68 146.43 144.74 146.79 145.68 C 147.14 146.63 148.20 147.11 149.15 146.75 Z M 150.09 146.39 L 151.03 146.04 C 151.97 145.68 152.45 144.62 152.09 143.68 C 151.73 142.73 150.67 142.26 149.73 142.62 L 148.79 142.97 C 147.84 143.33 147.37 144.39 147.73 145.33 C 148.08 146.28 149.14 146.75 150.09 146.39 Z M 151.03 146.03 L 151.97 145.67 C 152.91 145.31 153.38 144.25 153.02 143.31 C 152.66 142.37 151.60 141.90 150.66 142.26 L 149.72 142.62 C 148.78 142.98 148.31 144.04 148.67 144.98 C 149.03 145.92 150.09 146.39 151.03 146.03 Z M 151.98 145.66 L 152.91 145.30 C 153.84 144.94 154.30 143.88 153.94 142.94 C 153.57 142.01 152.52 141.55 151.58 141.91 L 150.66 142.27 C 149.72 142.64 149.26 143.69 149.62 144.63 C 149.99 145.56 151.04 146.03 151.98 145.66 Z M 152.92 145.29 L 153.86 144.91 C 154.79 144.54 155.24 143.49 154.87 142.56 C 154.50 141.63 153.45 141.17 152.52 141.54 L 151.57 141.92 C 150.64 142.29 150.19 143.35 150.56 144.28 C 150.93 145.21 151.99 145.66 152.92 145.29 Z M 153.87 144.90 L 154.80 144.52 C 155.72 144.15 156.17 143.09 155.79 142.17 C 155.41 141.24 154.36 140.80 153.44 141.18 L 152.51 141.56 C 151.58 141.93 151.14 142.99 151.52 143.91 C 151.89 144.83 152.95 145.28 153.87 144.90 Z M 154.81 144.51 L 155.73 144.13 C 156.64 143.75 157.08 142.69 156.70 141.78 C 156.31 140.86 155.26 140.42 154.34 140.81 L 153.43 141.19 C 152.51 141.57 152.07 142.62 152.46 143.54 C 152.84 144.46 153.89 144.89 154.81 144.51 Z M 155.74 144.12 L 156.65 143.73 C 157.56 143.34 157.98 142.29 157.60 141.38 C 157.21 140.47 156.16 140.04 155.24 140.43 L 154.33 140.82 C 153.42 141.21 153.00 142.26 153.38 143.17 C 153.77 144.08 154.83 144.51 155.74 144.12 Z M 156.66 143.72 L 157.57 143.32 C 158.48 142.93 158.90 141.88 158.50 140.97 C 158.11 140.07 157.06 139.65 156.15 140.04 L 155.24 140.44 C 154.33 140.83 153.91 141.89 154.31 142.79 C 154.70 143.70 155.75 144.11 156.66 143.72 Z M 157.58 143.31 L 158.50 142.91 C 159.40 142.51 159.81 141.46 159.41 140.56 C 159.02 139.66 157.97 139.26 157.07 139.65 L 156.15 140.05 C 155.25 140.45 154.84 141.50 155.23 142.40 C 155.63 143.30 156.68 143.71 157.58 143.31 Z M 158.50 142.90 L 159.41 142.50 C 160.31 142.10 160.72 141.05 160.32 140.16 C 159.92 139.26 158.88 138.86 157.98 139.25 L 157.07 139.66 C 156.17 140.05 155.77 141.10 156.16 142.00 C 156.56 142.89 157.60 143.30 158.50 142.90 Z M 159.41 142.49 L 160.32 142.09 C 161.21 141.69 161.62 140.65 161.22 139.76 C 160.83 138.87 159.79 138.46 158.90 138.86 L 157.99 139.26 C 157.09 139.65 156.69 140.70 157.08 141.59 C 157.48 142.48 158.52 142.88 159.41 142.49 Z M 160.32 142.08 L 161.24 141.68 C 162.12 141.29 162.53 140.25 162.14 139.36 C 161.75 138.48 160.71 138.07 159.82 138.46 L 158.90 138.86 C 158.01 139.25 157.61 140.29 158.00 141.18 C 158.39 142.07 159.43 142.47 160.32 142.08 Z M 161.23 141.68 L 162.15 141.27 C 163.04 140.89 163.44 139.85 163.06 138.97 C 162.67 138.08 161.64 137.68 160.75 138.06 L 159.83 138.47 C 158.94 138.85 158.54 139.88 158.92 140.77 C 159.31 141.66 160.34 142.06 161.23 141.68 Z M 162.15 141.27 L 163.07 140.86 C 163.95 140.48 164.35 139.45 163.96 138.57 C 163.58 137.69 162.55 137.28 161.67 137.67 L 160.75 138.07 C 159.87 138.46 159.47 139.49 159.85 140.37 C 160.24 141.25 161.27 141.65 162.15 141.27 Z M 163.07 140.85 L 163.98 140.45 C 164.86 140.06 165.25 139.04 164.86 138.16 C 164.47 137.28 163.44 136.89 162.57 137.28 L 161.66 137.68 C 160.78 138.07 160.39 139.10 160.78 139.97 C 161.17 140.85 162.20 141.24 163.07 140.85 Z M 163.99 140.44 L 164.90 140.02 C 165.77 139.63 166.16 138.60 165.76 137.73 C 165.36 136.86 164.34 136.48 163.47 136.87 L 162.56 137.29 C 161.69 137.69 161.30 138.71 161.70 139.58 C 162.09 140.45 163.12 140.83 163.99 140.44 Z M 164.92 140.01 L 165.83 139.58 C 166.69 139.18 167.07 138.15 166.66 137.29 C 166.26 136.43 165.24 136.06 164.37 136.46 L 163.46 136.89 C 162.60 137.29 162.22 138.31 162.62 139.18 C 163.03 140.04 164.05 140.41 164.92 140.01 Z M 165.84 139.57 L 166.74 139.14 C 167.60 138.73 167.96 137.71 167.56 136.85 C 167.15 136.00 166.13 135.63 165.27 136.04 L 164.37 136.47 C 163.51 136.88 163.15 137.90 163.55 138.76 C 163.96 139.61 164.98 139.98 165.84 139.57 Z M 166.75 139.13 L 167.64 138.71 C 168.49 138.30 168.85 137.28 168.44 136.42 C 168.03 135.57 167.01 135.21 166.16 135.62 L 165.27 136.05 C 164.42 136.46 164.06 137.48 164.47 138.33 C 164.87 139.18 165.90 139.54 166.75 139.13 Z M 167.64 138.70 L 168.54 138.26 C 169.39 137.86 169.74 136.84 169.33 135.99 C 168.93 135.14 167.91 134.79 167.06 135.20 L 166.16 135.63 C 165.31 136.04 164.96 137.05 165.36 137.90 C 165.77 138.75 166.79 139.11 167.64 138.70 Z M 168.54 138.26 L 169.44 137.82 C 170.29 137.41 170.64 136.40 170.23 135.56 C 169.83 134.71 168.81 134.36 167.97 134.77 L 167.06 135.20 C 166.22 135.61 165.87 136.62 166.27 137.47 C 166.68 138.31 167.69 138.66 168.54 138.26 Z M 169.44 137.81 L 170.34 137.38 C 171.18 136.97 171.53 135.96 171.12 135.12 C 170.71 134.28 169.70 133.93 168.86 134.34 L 167.97 134.77 C 167.13 135.18 166.78 136.19 167.19 137.03 C 167.59 137.87 168.61 138.22 169.44 137.81 Z M 170.35 137.37 L 171.23 136.93 C 172.07 136.52 172.41 135.51 172.00 134.67 C 171.59 133.84 170.58 133.50 169.74 133.91 L 168.85 134.35 C 168.02 134.76 167.68 135.77 168.09 136.60 C 168.50 137.44 169.51 137.78 170.35 137.37 Z M 171.25 136.92 L 172.07 136.50 C 172.89 136.08 173.22 135.07 172.81 134.25 C 172.39 133.42 171.38 133.09 170.55 133.51 L 169.73 133.92 C 168.90 134.34 168.57 135.35 168.99 136.18 C 169.41 137.00 170.42 137.33 171.25 136.92 Z M 172.09 136.48 L 172.92 136.04 C 173.74 135.60 174.05 134.59 173.61 133.78 C 173.18 132.96 172.17 132.65 171.35 133.09 L 170.52 133.53 C 169.71 133.96 169.40 134.97 169.83 135.79 C 170.27 136.60 171.28 136.91 172.09 136.48 Z M 172.97 136.01 L 173.84 135.51 C 174.63 135.05 174.91 134.03 174.45 133.23 C 173.99 132.44 172.97 132.16 172.18 132.62 L 171.31 133.12 C 170.51 133.58 170.24 134.60 170.69 135.39 C 171.15 136.19 172.17 136.46 172.97 136.01 Z M 173.89 135.47 L 174.82 134.88 C 175.59 134.39 175.83 133.37 175.34 132.59 C 174.85 131.82 173.83 131.59 173.05 132.07 L 172.12 132.66 C 171.35 133.15 171.11 134.17 171.60 134.95 C 172.09 135.72 173.11 135.96 173.89 135.47 Z M 174.87 134.84 L 175.86 134.16 C 176.61 133.64 176.80 132.61 176.28 131.86 C 175.76 131.11 174.73 130.92 173.98 131.44 L 173.00 132.12 C 172.24 132.63 172.05 133.66 172.57 134.42 C 173.09 135.17 174.12 135.36 174.87 134.84 Z M 175.92 134.11 L 176.87 133.38 C 177.60 132.83 177.74 131.80 177.19 131.07 C 176.63 130.35 175.60 130.21 174.87 130.76 L 173.92 131.49 C 173.19 132.04 173.05 133.08 173.61 133.80 C 174.16 134.53 175.20 134.66 175.92 134.11 Z M 176.97 133.30 L 177.76 132.60 C 178.44 132.00 178.50 130.96 177.89 130.28 C 177.29 129.60 176.25 129.54 175.57 130.14 L 174.78 130.84 C 174.10 131.45 174.04 132.49 174.64 133.17 C 175.25 133.84 176.29 133.91 176.97 133.30 Z M 177.94 132.40 L 178.42 131.81 C 178.99 131.10 178.88 130.07 178.17 129.50 C 177.46 128.93 176.43 129.04 175.86 129.75 L 175.38 130.34 C 174.81 131.05 174.93 132.08 175.63 132.65 C 176.34 133.22 177.37 133.11 177.94 132.40 Z M 178.78 130.74 L 178.77 130.28 C 178.75 129.37 177.99 128.66 177.09 128.68 C 176.18 128.70 175.47 129.45 175.49 130.36 L 175.50 130.82 C 175.52 131.72 176.27 132.44 177.18 132.42 C 178.08 132.39 178.80 131.64 178.78 130.74 Z M 177.54 128.73 L 176.84 128.55 C 175.96 128.32 175.07 128.85 174.84 129.72 C 174.62 130.60 175.14 131.49 176.02 131.72 L 176.72 131.90 C 177.59 132.13 178.49 131.60 178.71 130.73 C 178.94 129.85 178.42 128.96 177.54 128.73 Z M 176.27 128.50 L 175.08 128.62 C 174.18 128.71 173.52 129.51 173.61 130.41 C 173.70 131.31 174.50 131.97 175.40 131.88 L 176.59 131.76 C 177.49 131.68 178.15 130.88 178.06 129.98 C 177.97 129.08 177.17 128.42 176.27 128.50 Z M 174.86 128.66 L 173.73 128.92 C 172.85 129.13 172.31 130.02 172.52 130.90 C 172.73 131.78 173.61 132.32 174.49 132.11 L 175.62 131.84 C 176.50 131.63 177.04 130.75 176.83 129.87 C 176.63 128.99 175.74 128.45 174.86 128.66 Z M 173.61 128.96 L 172.83 129.21 C 171.97 129.48 171.49 130.40 171.77 131.26 C 172.04 132.13 172.97 132.60 173.83 132.33 L 174.61 132.08 C 175.47 131.80 175.95 130.88 175.67 130.02 C 175.40 129.16 174.47 128.68 173.61 128.96 Z M 172.76 129.23 L 171.93 129.54 C 171.08 129.85 170.65 130.80 170.97 131.64 C 171.28 132.49 172.22 132.92 173.07 132.61 L 173.90 132.30 C 174.75 131.99 175.18 131.04 174.86 130.20 C 174.55 129.35 173.61 128.92 172.76 129.23 Z M 171.88 129.56 L 170.99 129.93 C 170.15 130.27 169.75 131.23 170.10 132.07 C 170.44 132.90 171.40 133.30 172.23 132.96 L 173.13 132.59 C 173.96 132.24 174.36 131.29 174.02 130.45 C 173.67 129.61 172.71 129.22 171.88 129.56 Z M 170.95 129.94 L 169.98 130.37 C 169.15 130.74 168.78 131.71 169.14 132.53 C 169.51 133.36 170.47 133.73 171.30 133.37 L 172.27 132.94 C 173.10 132.57 173.47 131.61 173.11 130.78 C 172.74 129.95 171.78 129.58 170.95 129.94 Z M 169.95 130.38 L 168.89 130.87 C 168.07 131.25 167.71 132.23 168.09 133.05 C 168.47 133.87 169.44 134.23 170.26 133.85 L 171.33 133.36 C 172.15 132.98 172.51 132.01 172.13 131.19 C 171.75 130.36 170.78 130.00 169.95 130.38 Z M 168.88 130.88 L 167.82 131.38 C 167.00 131.76 166.65 132.74 167.04 133.56 C 167.42 134.38 168.40 134.73 169.22 134.34 L 170.27 133.84 C 171.09 133.46 171.44 132.48 171.06 131.66 C 170.67 130.85 169.69 130.49 168.88 130.88 Z M 167.81 131.38 L 166.94 131.80 C 166.12 132.19 165.77 133.16 166.16 133.98 C 166.55 134.80 167.53 135.15 168.34 134.76 L 169.22 134.34 C 170.04 133.95 170.39 132.97 170.00 132.16 C 169.61 131.34 168.63 130.99 167.81 131.38 Z M 166.93 131.80 L 166.01 132.24 C 165.20 132.63 164.85 133.61 165.25 134.43 C 165.64 135.24 166.61 135.59 167.43 135.19 L 168.35 134.75 C 169.16 134.36 169.51 133.39 169.12 132.57 C 168.73 131.75 167.75 131.41 166.93 131.80 Z M 166.01 132.24 L 165.07 132.70 C 164.26 133.09 163.91 134.07 164.31 134.88 C 164.70 135.70 165.68 136.04 166.49 135.65 L 167.43 135.19 C 168.25 134.80 168.59 133.82 168.20 133.01 C 167.80 132.19 166.83 131.85 166.01 132.24 Z M 165.07 132.70 L 164.12 133.16 C 163.30 133.55 162.96 134.53 163.36 135.35 C 163.75 136.16 164.73 136.50 165.55 136.11 L 166.50 135.64 C 167.31 135.25 167.65 134.27 167.26 133.46 C 166.86 132.64 165.88 132.30 165.07 132.70 Z M 164.11 133.16 L 163.17 133.62 C 162.36 134.02 162.02 135.00 162.42 135.81 C 162.82 136.62 163.80 136.96 164.61 136.56 L 165.55 136.10 C 166.36 135.71 166.70 134.73 166.30 133.91 C 165.91 133.10 164.93 132.76 164.11 133.16 Z M 163.17 133.62 L 162.25 134.07 C 161.44 134.47 161.10 135.46 161.50 136.27 C 161.90 137.08 162.88 137.41 163.69 137.01 L 164.61 136.56 C 165.43 136.16 165.76 135.18 165.36 134.37 C 164.96 133.56 163.98 133.22 163.17 133.62 Z M 162.24 134.08 L 161.36 134.51 C 160.55 134.92 160.22 135.90 160.62 136.71 C 161.02 137.52 162.01 137.85 162.82 137.45 L 163.70 137.01 C 164.51 136.61 164.84 135.63 164.44 134.82 C 164.04 134.01 163.06 133.67 162.24 134.08 Z M 161.36 134.52 L 160.53 134.93 C 159.72 135.33 159.39 136.32 159.80 137.13 C 160.20 137.94 161.19 138.26 162.00 137.86 L 162.82 137.45 C 163.63 137.04 163.96 136.06 163.56 135.25 C 163.15 134.44 162.17 134.11 161.36 134.52 Z M 160.52 134.93 L 159.50 135.45 C 158.70 135.86 158.37 136.84 158.78 137.65 C 159.19 138.46 160.18 138.78 160.98 138.37 L 162.00 137.86 C 162.81 137.45 163.13 136.46 162.72 135.65 C 162.31 134.85 161.33 134.53 160.52 134.93 Z M 159.49 135.46 L 158.45 136.00 C 157.64 136.41 157.33 137.40 157.74 138.20 C 158.16 139.01 159.15 139.32 159.95 138.91 L 161.00 138.37 C 161.80 137.95 162.11 136.96 161.70 136.16 C 161.28 135.36 160.30 135.04 159.49 135.46 Z M 158.43 136.01 L 157.52 136.49 C 156.72 136.91 156.42 137.90 156.84 138.70 C 157.27 139.50 158.26 139.80 159.06 139.38 L 159.97 138.90 C 160.77 138.47 161.07 137.48 160.65 136.68 C 160.22 135.89 159.23 135.58 158.43 136.01 Z M 157.51 136.50 L 156.70 136.94 C 155.91 137.37 155.62 138.36 156.05 139.16 C 156.48 139.95 157.48 140.24 158.27 139.81 L 159.08 139.37 C 159.87 138.94 160.16 137.94 159.73 137.15 C 159.30 136.35 158.30 136.06 157.51 136.50 Z M 156.69 136.94 L 155.95 137.36 C 155.16 137.80 154.88 138.80 155.32 139.59 C 155.77 140.38 156.77 140.66 157.55 140.21 L 158.29 139.80 C 159.08 139.36 159.36 138.36 158.92 137.57 C 158.47 136.78 157.47 136.50 156.69 136.94 Z M 155.93 137.37 L 155.20 137.79 C 154.41 138.24 154.14 139.24 154.60 140.03 C 155.05 140.81 156.05 141.08 156.83 140.63 L 157.57 140.21 C 158.35 139.75 158.62 138.75 158.17 137.97 C 157.72 137.19 156.72 136.92 155.93 137.37 Z M 155.19 137.80 L 154.29 138.32 C 153.51 138.78 153.25 139.78 153.71 140.56 C 154.17 141.34 155.17 141.60 155.95 141.15 L 156.84 140.62 C 157.62 140.16 157.89 139.16 157.43 138.38 C 156.97 137.60 155.97 137.34 155.19 137.80 Z M 154.28 138.33 L 153.41 138.85 C 152.63 139.32 152.38 140.32 152.84 141.10 C 153.31 141.87 154.31 142.13 155.09 141.66 L 155.96 141.14 C 156.74 140.67 156.99 139.67 156.53 138.89 C 156.06 138.12 155.06 137.86 154.28 138.33 Z M 153.40 138.86 L 152.55 139.37 C 151.78 139.84 151.53 140.85 152.00 141.62 C 152.47 142.40 153.48 142.64 154.25 142.17 L 155.10 141.66 C 155.87 141.19 156.12 140.18 155.65 139.41 C 155.18 138.63 154.17 138.39 153.40 138.86 Z M 152.54 139.38 L 151.73 139.88 C 150.96 140.35 150.72 141.36 151.20 142.13 C 151.67 142.90 152.68 143.14 153.45 142.67 L 154.26 142.17 C 155.03 141.69 155.27 140.68 154.80 139.91 C 154.32 139.14 153.31 138.90 152.54 139.38 Z M 151.72 139.88 L 150.82 140.45 C 150.05 140.93 149.82 141.94 150.30 142.71 C 150.78 143.47 151.79 143.71 152.56 143.23 L 153.46 142.66 C 154.23 142.18 154.46 141.17 153.98 140.40 C 153.50 139.64 152.49 139.40 151.72 139.88 Z M 150.80 140.46 L 149.95 141.01 C 149.19 141.50 148.97 142.52 149.46 143.28 C 149.95 144.04 150.97 144.25 151.73 143.76 L 152.58 143.21 C 153.34 142.72 153.55 141.71 153.06 140.95 C 152.57 140.19 151.56 139.97 150.80 140.46 Z M 149.91 141.04 L 149.12 141.58 C 148.37 142.09 148.18 143.11 148.69 143.85 C 149.20 144.60 150.22 144.79 150.97 144.28 L 151.76 143.74 C 152.51 143.23 152.70 142.21 152.19 141.46 C 151.68 140.72 150.66 140.53 149.91 141.04 Z M 149.07 141.61 L 148.31 142.18 C 147.59 142.71 147.43 143.74 147.97 144.47 C 148.51 145.19 149.54 145.35 150.26 144.81 L 151.02 144.25 C 151.75 143.71 151.90 142.68 151.36 141.95 C 150.82 141.23 149.80 141.08 149.07 141.61 Z M 148.24 142.23 L 147.50 142.84 C 146.81 143.42 146.71 144.45 147.29 145.15 C 147.87 145.85 148.90 145.94 149.59 145.37 L 150.33 144.75 C 151.03 144.18 151.13 143.14 150.55 142.45 C 149.97 141.75 148.94 141.65 148.24 142.23 Z M 147.42 142.92 L 146.70 143.60 C 146.04 144.22 146.02 145.26 146.64 145.91 C 147.26 146.57 148.30 146.60 148.95 145.98 L 149.68 145.29 C 150.33 144.67 150.36 143.63 149.74 142.98 C 149.12 142.32 148.08 142.29 147.42 142.92 Z M 146.62 143.67 L 145.91 144.44 C 145.30 145.11 145.34 146.15 146.00 146.76 C 146.67 147.38 147.71 147.33 148.32 146.67 L 149.03 145.90 C 149.65 145.23 149.61 144.20 148.94 143.58 C 148.28 142.97 147.24 143.01 146.62 143.67 Z M 145.84 144.50 L 145.24 145.23 C 144.66 145.93 144.76 146.98 145.47 147.56 C 146.18 148.14 147.22 148.04 147.80 147.33 L 148.40 146.61 C 148.98 145.90 148.88 144.86 148.17 144.28 C 147.46 143.70 146.42 143.80 145.84 144.50 Z M 145.16 145.29 L 144.58 146.09 C 144.03 146.84 144.20 147.90 144.95 148.44 C 145.70 148.99 146.75 148.82 147.30 148.07 L 147.89 147.27 C 148.43 146.52 148.27 145.46 147.51 144.92 C 146.76 144.37 145.71 144.54 145.16 145.29 Z M 144.49 146.18 L 143.94 147.05 C 143.44 147.85 143.69 148.91 144.49 149.41 C 145.29 149.91 146.35 149.66 146.85 148.86 L 147.39 147.99 C 147.89 147.18 147.65 146.13 146.84 145.63 C 146.04 145.13 144.99 145.37 144.49 146.18 Z M 143.84 147.17 L 143.37 148.10 C 142.93 148.96 143.27 150.01 144.13 150.44 C 144.99 150.88 146.03 150.54 146.47 149.68 L 146.95 148.74 C 147.38 147.89 147.04 146.84 146.18 146.40 C 145.33 145.97 144.28 146.31 143.84 147.17 Z M 143.29 148.25 L 142.91 149.20 C 142.56 150.10 143.01 151.12 143.91 151.47 C 144.81 151.82 145.83 151.38 146.18 150.48 L 146.55 149.53 C 146.90 148.63 146.46 147.61 145.56 147.26 C 144.66 146.91 143.64 147.35 143.29 148.25 Z M 142.87 149.34 L 142.58 150.31 C 142.31 151.24 142.83 152.21 143.76 152.49 C 144.69 152.76 145.66 152.24 145.94 151.31 L 146.22 150.34 C 146.50 149.41 145.97 148.44 145.04 148.16 C 144.12 147.89 143.14 148.42 142.87 149.34 Z M 142.55 150.44 L 142.34 151.42 C 142.13 152.36 142.72 153.29 143.66 153.50 C 144.60 153.71 145.54 153.11 145.74 152.17 L 145.96 151.19 C 146.17 150.25 145.58 149.32 144.64 149.11 C 143.69 148.90 142.76 149.49 142.55 150.44 Z M 142.32 151.52 L 142.17 152.49 C 142.02 153.44 142.66 154.33 143.61 154.48 C 144.56 154.63 145.45 153.99 145.60 153.04 L 145.76 152.07 C 145.91 151.12 145.26 150.23 144.32 150.08 C 143.37 149.92 142.47 150.57 142.32 151.52 Z M 142.16 152.58 L 142.05 153.59 C 141.94 154.55 142.64 155.40 143.59 155.51 C 144.55 155.61 145.40 154.92 145.51 153.96 L 145.62 152.95 C 145.72 151.99 145.03 151.14 144.07 151.03 C 143.12 150.93 142.26 151.62 142.16 152.58 Z M 142.03 153.67 L 141.97 154.69 C 141.91 155.65 142.64 156.48 143.61 156.54 C 144.57 156.60 145.40 155.87 145.46 154.91 L 145.52 153.88 C 145.58 152.92 144.85 152.09 143.88 152.03 C 142.92 151.97 142.09 152.71 142.03 153.67 Z M 141.96 154.75 L 141.93 155.74 C 141.91 156.71 142.67 157.51 143.64 157.54 C 144.61 157.56 145.42 156.80 145.44 155.83 L 145.47 154.84 C 145.49 153.88 144.73 153.07 143.76 153.04 C 142.79 153.02 141.98 153.78 141.96 154.75 Z M 141.92 155.78 L 141.92 156.74 C 141.91 157.71 142.70 158.51 143.67 158.51 C 144.65 158.52 145.44 157.73 145.45 156.76 L 145.45 155.79 C 145.46 154.82 144.67 154.03 143.70 154.02 C 142.72 154.02 141.93 154.80 141.92 155.78 Z M 141.91 156.75 L 141.91 157.73 C 141.91 158.70 142.70 159.50 143.68 159.50 C 144.66 159.50 145.46 158.70 145.45 157.73 L 145.45 156.75 C 145.45 155.77 144.66 154.98 143.68 154.98 C 142.70 154.98 141.91 155.77 141.91 156.75 Z M 141.90 157.73 L 141.91 158.72 C 141.91 159.70 142.71 160.49 143.69 160.49 C 144.67 160.49 145.47 159.69 145.46 158.71 L 145.46 157.72 C 145.46 156.74 144.66 155.94 143.68 155.95 C 142.70 155.95 141.90 156.75 141.90 157.73 Z M 141.90 158.72 L 141.91 159.72 C 141.91 160.71 142.72 161.50 143.70 161.50 C 144.69 161.49 145.48 160.69 145.48 159.70 L 145.47 158.70 C 145.46 157.71 144.66 156.92 143.67 156.93 C 142.69 156.93 141.89 157.74 141.90 158.72 Z M 141.90 159.74 L 141.91 160.76 C 141.93 161.75 142.74 162.54 143.73 162.52 C 144.72 162.51 145.51 161.70 145.50 160.71 L 145.48 159.69 C 145.47 158.70 144.66 157.91 143.67 157.92 C 142.68 157.93 141.89 158.75 141.90 159.74 Z M 141.91 160.77 L 141.93 161.72 C 141.95 162.71 142.78 163.50 143.77 163.48 C 144.76 163.45 145.55 162.63 145.53 161.63 L 145.50 160.69 C 145.48 159.70 144.66 158.91 143.66 158.93 C 142.67 158.96 141.88 159.78 141.91 160.77 Z M 141.92 161.76 L 141.96 162.73 C 142.01 163.73 142.85 164.50 143.85 164.46 C 144.84 164.42 145.62 163.58 145.58 162.58 L 145.53 161.60 C 145.49 160.60 144.65 159.83 143.65 159.87 C 142.65 159.91 141.88 160.76 141.92 161.76 Z M 141.96 162.79 L 142.03 163.80 C 142.10 164.80 142.97 165.55 143.97 165.48 C 144.97 165.41 145.73 164.54 145.65 163.54 L 145.58 162.53 C 145.51 161.53 144.64 160.77 143.64 160.84 C 142.64 160.92 141.89 161.79 141.96 162.79 Z M 142.03 163.87 L 142.14 164.92 C 142.25 165.92 143.15 166.64 144.16 166.53 C 145.16 166.42 145.88 165.52 145.77 164.52 L 145.66 163.47 C 145.55 162.47 144.65 161.75 143.64 161.86 C 142.64 161.96 141.92 162.87 142.03 163.87 Z M 142.15 164.99 L 142.29 165.96 C 142.44 166.96 143.37 167.65 144.37 167.50 C 145.38 167.35 146.06 166.42 145.91 165.42 L 145.77 164.45 C 145.62 163.45 144.69 162.76 143.69 162.91 C 142.69 163.06 142.00 163.99 142.15 164.99 Z M 142.30 166.03 L 142.48 167.00 C 142.67 168.00 143.63 168.66 144.62 168.47 C 145.62 168.29 146.28 167.33 146.09 166.33 L 145.91 165.35 C 145.72 164.35 144.76 163.70 143.77 163.88 C 142.77 164.07 142.11 165.03 142.30 166.03 Z M 142.49 167.06 L 142.71 168.05 C 142.93 169.04 143.91 169.67 144.90 169.45 C 145.89 169.23 146.52 168.25 146.30 167.26 L 146.08 166.27 C 145.86 165.28 144.88 164.65 143.89 164.87 C 142.90 165.09 142.27 166.07 142.49 167.06 Z M 142.71 168.11 L 142.96 169.09 C 143.21 170.08 144.22 170.68 145.21 170.43 C 146.19 170.18 146.79 169.17 146.54 168.18 L 146.29 167.20 C 146.04 166.21 145.04 165.61 144.05 165.86 C 143.06 166.11 142.46 167.12 142.71 168.11 Z M 142.97 169.14 L 143.25 170.12 C 143.53 171.10 144.56 171.67 145.54 171.39 C 146.52 171.11 147.09 170.09 146.81 169.10 L 146.53 168.13 C 146.25 167.15 145.23 166.58 144.25 166.86 C 143.26 167.14 142.69 168.16 142.97 169.14 Z M 143.27 170.17 L 143.57 171.14 C 143.89 172.12 144.93 172.66 145.90 172.35 C 146.88 172.04 147.41 170.99 147.10 170.02 L 146.80 169.05 C 146.48 168.07 145.44 167.54 144.47 167.85 C 143.49 168.16 142.95 169.20 143.27 170.17 Z M 143.59 171.20 L 143.93 172.15 C 144.27 173.11 145.33 173.62 146.29 173.28 C 147.26 172.94 147.76 171.88 147.42 170.91 L 147.09 169.96 C 146.75 169.00 145.69 168.49 144.72 168.83 C 143.76 169.18 143.25 170.23 143.59 171.20 Z M 143.95 172.20 L 144.31 173.13 C 144.68 174.08 145.75 174.55 146.71 174.18 C 147.66 173.81 148.13 172.74 147.76 171.78 L 147.40 170.86 C 147.03 169.90 145.96 169.43 145.00 169.80 C 144.05 170.17 143.57 171.25 143.95 172.20 Z M 144.33 173.18 L 144.71 174.09 C 145.12 175.03 146.21 175.47 147.15 175.07 C 148.09 174.66 148.53 173.57 148.13 172.63 L 147.74 171.73 C 147.34 170.78 146.25 170.35 145.31 170.75 C 144.36 171.15 143.93 172.24 144.33 173.18 Z M 144.74 174.14 L 145.16 175.05 C 145.59 175.98 146.70 176.38 147.63 175.95 C 148.56 175.52 148.96 174.41 148.53 173.48 L 148.10 172.57 C 147.67 171.65 146.57 171.24 145.64 171.68 C 144.71 172.11 144.31 173.21 144.74 174.14 Z M 145.19 175.11 L 145.65 176.01 C 146.11 176.92 147.23 177.28 148.14 176.82 C 149.05 176.36 149.42 175.24 148.96 174.33 L 148.50 173.43 C 148.04 172.51 146.92 172.15 146.00 172.61 C 145.09 173.08 144.73 174.19 145.19 175.11 Z M 145.68 176.06 L 146.16 176.94 C 146.66 177.84 147.79 178.16 148.68 177.67 C 149.58 177.17 149.90 176.04 149.41 175.14 L 148.92 174.27 C 148.43 173.37 147.30 173.05 146.40 173.54 C 145.51 174.04 145.18 175.17 145.68 176.06 Z M 146.19 177.00 L 146.71 177.85 C 147.23 178.73 148.37 179.01 149.25 178.48 C 150.13 177.95 150.41 176.81 149.89 175.93 L 149.37 175.08 C 148.85 174.21 147.71 173.92 146.83 174.45 C 145.95 174.98 145.67 176.12 146.19 177.00 Z M 146.74 177.91 L 147.30 178.75 C 147.86 179.61 149.01 179.85 149.86 179.28 C 150.72 178.72 150.96 177.57 150.40 176.72 L 149.85 175.88 C 149.29 175.02 148.14 174.78 147.28 175.34 C 146.42 175.90 146.18 177.05 146.74 177.91 Z M 147.34 178.81 L 147.95 179.66 C 148.55 180.49 149.71 180.68 150.54 180.08 C 151.37 179.49 151.56 178.33 150.96 177.50 L 150.35 176.65 C 149.75 175.82 148.60 175.63 147.77 176.23 C 146.94 176.83 146.75 177.98 147.34 178.81 Z M 148.01 179.74 L 148.65 180.53 C 149.29 181.33 150.45 181.45 151.25 180.81 C 152.05 180.18 152.17 179.01 151.54 178.22 L 150.90 177.42 C 150.26 176.63 149.10 176.50 148.30 177.14 C 147.50 177.78 147.38 178.94 148.01 179.74 Z M 148.73 180.62 L 149.39 181.34 C 150.08 182.09 151.25 182.14 152.00 181.46 C 152.75 180.77 152.80 179.60 152.11 178.85 L 151.45 178.13 C 150.77 177.37 149.60 177.32 148.85 178.01 C 148.09 178.70 148.04 179.87 148.73 180.62 Z M 149.50 181.44 L 150.19 182.09 C 150.94 182.78 152.10 182.73 152.79 181.99 C 153.49 181.24 153.44 180.08 152.70 179.38 L 152.01 178.74 C 151.26 178.05 150.09 178.09 149.40 178.84 C 148.71 179.59 148.75 180.75 149.50 181.44 Z M 150.35 182.21 L 151.12 182.78 C 151.94 183.39 153.09 183.21 153.69 182.40 C 154.29 181.59 154.12 180.44 153.31 179.83 L 152.54 179.26 C 151.72 178.66 150.57 178.83 149.97 179.64 C 149.36 180.46 149.54 181.61 150.35 182.21 Z M 151.34 182.91 L 152.18 183.37 C 153.07 183.86 154.18 183.53 154.66 182.64 C 155.15 181.76 154.82 180.65 153.93 180.16 L 153.09 179.70 C 152.21 179.22 151.10 179.54 150.61 180.43 C 150.13 181.32 150.45 182.43 151.34 182.91 Z M 152.42 183.47 L 153.38 183.83 C 154.32 184.18 155.37 183.71 155.72 182.77 C 156.07 181.83 155.60 180.78 154.66 180.42 L 153.70 180.06 C 152.76 179.71 151.71 180.19 151.35 181.13 C 151.00 182.07 151.48 183.12 152.42 183.47 Z M 153.58 183.89 L 154.56 184.13 C 155.53 184.37 156.52 183.78 156.76 182.81 C 157.00 181.84 156.41 180.85 155.43 180.61 L 154.45 180.37 C 153.48 180.13 152.50 180.72 152.26 181.69 C 152.02 182.66 152.61 183.64 153.58 183.89 Z M 154.70 184.15 L 155.65 184.31 C 156.64 184.47 157.56 183.80 157.73 182.82 C 157.89 181.84 157.22 180.91 156.24 180.75 L 155.29 180.59 C 154.31 180.43 153.38 181.09 153.22 182.08 C 153.06 183.06 153.72 183.99 154.70 184.15 Z M 155.75 184.31 L 156.76 184.42 C 157.75 184.53 158.63 183.82 158.74 182.83 C 158.84 181.85 158.13 180.96 157.15 180.86 L 156.14 180.75 C 155.16 180.64 154.27 181.35 154.17 182.33 C 154.06 183.32 154.77 184.20 155.75 184.31 Z M 156.84 184.42 L 157.88 184.48 C 158.86 184.54 159.71 183.80 159.77 182.81 C 159.83 181.83 159.08 180.98 158.10 180.92 L 157.07 180.86 C 156.08 180.80 155.24 181.54 155.18 182.53 C 155.11 183.51 155.86 184.36 156.84 184.42 Z M 157.95 184.48 L 158.98 184.50 C 159.96 184.52 160.77 183.74 160.79 182.76 C 160.81 181.78 160.04 180.97 159.06 180.95 L 158.03 180.93 C 157.05 180.91 156.24 181.68 156.22 182.66 C 156.20 183.64 156.97 184.45 157.95 184.48 Z M 159.05 184.49 L 160.10 184.46 C 161.07 184.44 161.84 183.64 161.82 182.67 C 161.80 181.69 161.00 180.92 160.03 180.94 L 158.98 180.96 C 158.01 180.98 157.24 181.79 157.26 182.76 C 157.28 183.73 158.08 184.50 159.05 184.49 Z M 160.19 184.44 L 161.21 184.37 C 162.17 184.30 162.89 183.46 162.82 182.50 C 162.75 181.54 161.92 180.82 160.96 180.89 L 159.94 180.96 C 158.97 181.03 158.25 181.87 158.32 182.83 C 158.39 183.79 159.23 184.51 160.19 184.44 Z M 161.32 184.34 L 162.30 184.20 C 163.25 184.07 163.90 183.20 163.77 182.25 C 163.64 181.31 162.77 180.65 161.82 180.78 L 160.84 180.92 C 159.90 181.05 159.24 181.92 159.37 182.87 C 159.51 183.81 160.38 184.47 161.32 184.34 Z M 162.43 184.16 L 163.38 183.95 C 164.30 183.74 164.88 182.83 164.68 181.91 C 164.47 180.99 163.56 180.41 162.64 180.61 L 161.69 180.83 C 160.77 181.03 160.19 181.94 160.40 182.86 C 160.60 183.78 161.51 184.36 162.43 184.16 Z M 163.52 183.89 L 164.45 183.60 C 165.34 183.31 165.83 182.36 165.54 181.47 C 165.26 180.58 164.31 180.09 163.42 180.38 L 162.50 180.67 C 161.61 180.95 161.12 181.91 161.40 182.79 C 161.68 183.68 162.63 184.17 163.52 183.89 Z M 164.59 183.53 L 165.50 183.15 C 166.35 182.79 166.75 181.81 166.39 180.95 C 166.03 180.10 165.05 179.70 164.19 180.06 L 163.28 180.44 C 162.43 180.80 162.03 181.78 162.39 182.64 C 162.75 183.49 163.73 183.89 164.59 183.53 Z M 165.61 183.09 L 166.50 182.63 C 167.32 182.20 167.64 181.20 167.22 180.38 C 166.79 179.56 165.79 179.24 164.97 179.66 L 164.08 180.12 C 163.26 180.54 162.94 181.55 163.36 182.37 C 163.78 183.19 164.79 183.51 165.61 183.09 Z M 166.59 182.57 L 167.45 182.05 C 168.24 181.57 168.49 180.55 168.02 179.77 C 167.55 178.98 166.53 178.73 165.74 179.20 L 164.88 179.72 C 164.09 180.19 163.84 181.21 164.31 182.00 C 164.78 182.79 165.81 183.04 166.59 182.57 Z M 167.53 181.99 L 168.36 181.42 C 169.11 180.91 169.31 179.88 168.80 179.13 C 168.28 178.37 167.25 178.18 166.50 178.69 L 165.67 179.26 C 164.91 179.77 164.72 180.80 165.23 181.55 C 165.75 182.31 166.77 182.50 167.53 181.99 Z M 168.42 181.37 L 169.25 180.75 C 169.98 180.20 170.12 179.17 169.57 178.44 C 169.02 177.71 167.99 177.57 167.26 178.12 L 166.44 178.74 C 165.71 179.29 165.57 180.32 166.11 181.05 C 166.66 181.78 167.70 181.92 168.42 181.37 Z M 169.31 180.70 L 170.10 180.04 C 170.80 179.46 170.90 178.42 170.32 177.72 C 169.74 177.02 168.70 176.93 168.00 177.51 L 167.21 178.17 C 166.51 178.75 166.41 179.78 166.99 180.48 C 167.57 181.18 168.61 181.28 169.31 180.70 Z M 170.16 179.99 L 170.90 179.31 C 171.57 178.70 171.62 177.66 171.01 176.99 C 170.39 176.32 169.36 176.27 168.69 176.88 L 167.94 177.56 C 167.27 178.17 167.23 179.21 167.84 179.88 C 168.45 180.55 169.49 180.60 170.16 179.99 Z M 170.95 179.26 L 171.63 178.58 C 172.27 177.93 172.27 176.90 171.63 176.26 C 170.99 175.62 169.95 175.62 169.31 176.26 L 168.63 176.94 C 167.99 177.58 167.99 178.62 168.63 179.26 C 169.27 179.90 170.31 179.90 170.95 179.26 Z M 171.69 178.51 L 172.36 177.77 C 172.96 177.10 172.91 176.07 172.24 175.46 C 171.57 174.85 170.53 174.91 169.93 175.58 L 169.26 176.32 C 168.65 176.99 168.70 178.02 169.38 178.63 C 170.05 179.24 171.08 179.19 171.69 178.51 Z M 172.44 177.68 L 173.06 176.87 C 173.62 176.15 173.49 175.12 172.77 174.57 C 172.06 174.02 171.03 174.15 170.47 174.86 L 169.85 175.67 C 169.29 176.39 169.42 177.42 170.14 177.97 C 170.86 178.52 171.88 178.39 172.44 177.68 Z M 173.18 176.70 L 173.68 175.87 C 174.14 175.09 173.88 174.08 173.11 173.62 C 172.33 173.16 171.33 173.41 170.86 174.19 L 170.36 175.03 C 169.90 175.80 170.15 176.81 170.93 177.27 C 171.71 177.74 172.71 177.48 173.18 176.70 Z M 173.79 175.63 L 174.15 174.73 C 174.48 173.89 174.06 172.94 173.22 172.61 C 172.38 172.28 171.43 172.69 171.10 173.53 L 170.75 174.43 C 170.41 175.27 170.83 176.22 171.67 176.55 C 172.51 176.88 173.46 176.47 173.79 175.63 Z M 174.23 174.46 L 174.42 173.53 C 174.60 172.64 174.02 171.78 173.14 171.60 C 172.25 171.41 171.39 171.99 171.21 172.87 L 171.02 173.81 C 170.84 174.69 171.41 175.56 172.30 175.74 C 173.18 175.92 174.05 175.34 174.23 174.46 Z M 174.44 173.32 L 174.52 172.33 C 174.58 171.43 173.91 170.65 173.00 170.58 C 172.10 170.51 171.32 171.19 171.25 172.09 L 171.18 173.08 C 171.11 173.98 171.79 174.77 172.69 174.83 C 173.59 174.90 174.38 174.22 174.44 173.32 Z M 174.52 172.21 L 174.52 171.19 C 174.52 170.28 173.79 169.55 172.88 169.55 C 171.98 169.55 171.24 170.29 171.24 171.19 L 171.25 172.21 C 171.25 173.12 171.98 173.85 172.89 173.85 C 173.79 173.85 174.52 173.12 174.52 172.21 Z M 174.52 171.14 L 174.50 170.36 C 174.47 169.45 173.71 168.74 172.81 168.77 C 171.90 168.80 171.19 169.55 171.22 170.46 L 171.25 171.24 C 171.27 172.14 172.03 172.85 172.93 172.83 C 173.84 172.80 174.55 172.04 174.52 171.14 Z"
      fill="black"
      fill-rule="nonzero" /><path d="M 164.45 159.62 L 163.37 160.09 C 162.46 160.49 162.05 161.54 162.45 162.44 C 162.84 163.35 163.90 163.76 164.80 163.36 L 165.88 162.89 C 166.79 162.49 167.20 161.44 166.80 160.54 C 166.41 159.63 165.35 159.22 164.45 159.62 Z M 163.02 160.21 L 162.25 160.75 C 161.41 161.33 161.20 162.49 161.79 163.33 C 162.38 164.17 163.53 164.37 164.37 163.79 L 165.14 163.25 C 165.98 162.66 166.19 161.51 165.60 160.67 C 165.02 159.83 163.86 159.62 163.02 160.21 Z M 161.47 161.77 L 161.30 162.38 C 161.03 163.40 161.63 164.45 162.65 164.72 C 163.67 165.00 164.72 164.39 164.99 163.37 L 165.16 162.76 C 165.43 161.75 164.83 160.70 163.81 160.42 C 162.79 160.15 161.74 160.75 161.47 161.77 Z M 161.48 163.85 L 161.87 164.52 C 162.41 165.44 163.59 165.75 164.51 165.21 C 165.44 164.67 165.75 163.49 165.21 162.57 L 164.82 161.90 C 164.28 160.98 163.09 160.67 162.17 161.21 C 161.25 161.75 160.94 162.93 161.48 163.85 Z M 162.19 164.94 L 163.00 165.72 C 163.77 166.46 165.00 166.44 165.74 165.67 C 166.48 164.90 166.46 163.67 165.69 162.93 L 164.88 162.15 C 164.11 161.41 162.88 161.43 162.14 162.20 C 161.40 162.97 161.42 164.20 162.19 164.94 Z M 163.14 165.84 L 164.09 166.60 C 164.93 167.27 166.15 167.13 166.82 166.29 C 167.49 165.45 167.35 164.23 166.51 163.56 L 165.56 162.81 C 164.72 162.14 163.50 162.27 162.83 163.11 C 162.16 163.95 162.30 165.17 163.14 165.84 Z M 164.14 166.64 L 164.92 167.22 C 165.78 167.86 166.99 167.69 167.64 166.83 C 168.28 165.97 168.10 164.75 167.24 164.11 L 166.46 163.53 C 165.60 162.88 164.38 163.06 163.74 163.92 C 163.10 164.78 163.28 166.00 164.14 166.64 Z M 164.94 167.24 L 165.77 167.84 C 166.64 168.47 167.86 168.27 168.49 167.40 C 169.11 166.53 168.92 165.32 168.05 164.69 L 167.22 164.09 C 166.35 163.46 165.13 163.66 164.50 164.53 C 163.88 165.40 164.07 166.61 164.94 167.24 Z M 165.79 167.85 L 166.64 168.45 C 167.52 169.07 168.73 168.86 169.35 167.98 C 169.97 167.10 169.75 165.89 168.88 165.27 L 168.03 164.68 C 167.15 164.06 165.94 164.27 165.32 165.15 C 164.70 166.03 164.92 167.24 165.79 167.85 Z M 166.66 168.46 L 167.49 169.04 C 168.37 169.65 169.58 169.42 170.19 168.54 C 170.80 167.66 170.58 166.45 169.70 165.84 L 168.86 165.26 C 167.98 164.65 166.77 164.88 166.16 165.76 C 165.55 166.64 165.77 167.85 166.66 168.46 Z M 167.50 169.04 L 168.35 169.62 C 169.24 170.22 170.45 169.99 171.05 169.11 C 171.65 168.22 171.42 167.01 170.54 166.41 L 169.69 165.83 C 168.80 165.23 167.59 165.46 166.99 166.35 C 166.38 167.23 166.62 168.44 167.50 169.04 Z M 168.37 169.63 L 169.26 170.22 C 170.15 170.82 171.35 170.58 171.95 169.69 C 172.55 168.80 172.31 167.59 171.42 167.00 L 170.52 166.40 C 169.63 165.80 168.43 166.04 167.83 166.94 C 167.23 167.83 167.47 169.03 168.37 169.63 Z M 169.27 170.23 L 170.10 170.78 C 170.99 171.36 172.20 171.11 172.78 170.22 C 173.37 169.32 173.12 168.12 172.23 167.53 L 171.40 166.99 C 170.50 166.40 169.30 166.65 168.71 167.55 C 168.13 168.44 168.38 169.65 169.27 170.23 Z M 170.12 170.78 L 170.91 171.29 C 171.81 171.87 173.01 171.61 173.59 170.71 C 174.16 169.81 173.90 168.61 173.00 168.03 L 172.21 167.52 C 171.31 166.94 170.11 167.21 169.53 168.11 C 168.95 169.01 169.21 170.21 170.12 170.78 Z M 170.92 171.30 L 171.72 171.80 C 172.63 172.37 173.82 172.10 174.39 171.19 C 174.96 170.28 174.69 169.09 173.78 168.52 L 172.98 168.02 C 172.08 167.45 170.88 167.73 170.31 168.63 C 169.74 169.54 170.02 170.73 170.92 171.30 Z M 171.74 171.81 L 172.57 172.32 C 173.48 172.88 174.67 172.60 175.23 171.69 C 175.79 170.78 175.51 169.59 174.60 169.03 L 173.76 168.51 C 172.85 167.95 171.66 168.24 171.10 169.15 C 170.54 170.06 170.83 171.25 171.74 171.81 Z M 172.58 172.32 L 173.44 172.84 C 174.35 173.39 175.53 173.10 176.09 172.19 C 176.64 171.28 176.35 170.09 175.44 169.54 L 174.58 169.03 C 173.67 168.47 172.49 168.76 171.94 169.67 C 171.38 170.59 171.67 171.77 172.58 172.32 Z M 173.45 172.84 L 174.32 173.36 C 175.23 173.91 176.41 173.62 176.96 172.70 C 177.50 171.79 177.21 170.61 176.30 170.06 L 175.43 169.54 C 174.52 168.99 173.33 169.29 172.79 170.20 C 172.24 171.11 172.54 172.29 173.45 172.84 Z M 174.32 173.36 L 175.19 173.88 C 176.10 174.42 177.28 174.12 177.82 173.21 C 178.37 172.30 178.07 171.13 177.16 170.58 L 176.29 170.07 C 175.38 169.52 174.20 169.82 173.66 170.73 C 173.12 171.64 173.41 172.82 174.32 173.36 Z M 175.19 173.88 L 176.05 174.38 C 176.95 174.92 178.13 174.62 178.67 173.72 C 179.21 172.81 178.91 171.63 178.00 171.09 L 177.15 170.58 C 176.24 170.04 175.07 170.34 174.53 171.25 C 173.99 172.16 174.29 173.34 175.19 173.88 Z M 176.05 174.38 L 176.91 174.89 C 177.82 175.43 178.99 175.13 179.53 174.22 C 180.07 173.32 179.77 172.14 178.86 171.61 L 178.00 171.09 C 177.09 170.56 175.92 170.85 175.38 171.76 C 174.84 172.67 175.14 173.84 176.05 174.38 Z M 176.91 174.89 L 177.78 175.40 C 178.69 175.94 179.86 175.64 180.39 174.73 C 180.93 173.83 180.63 172.66 179.73 172.12 L 178.86 171.61 C 177.95 171.07 176.78 171.37 176.25 172.28 C 175.71 173.18 176.01 174.35 176.91 174.89 Z M 177.78 175.40 L 178.66 175.91 C 179.56 176.45 180.72 176.15 181.26 175.25 C 181.79 174.35 181.50 173.18 180.59 172.64 L 179.72 172.13 C 178.82 171.59 177.65 171.89 177.12 172.79 C 176.58 173.70 176.88 174.86 177.78 175.40 Z M 178.66 175.91 L 179.53 176.42 C 180.43 176.96 181.59 176.66 182.12 175.76 C 182.66 174.86 182.36 173.70 181.46 173.17 L 180.59 172.65 C 179.69 172.12 178.53 172.41 178.00 173.31 C 177.46 174.21 177.76 175.38 178.66 175.91 Z M 179.54 176.42 L 180.40 176.93 C 181.30 177.46 182.46 177.16 182.99 176.26 C 183.51 175.37 183.22 174.21 182.32 173.68 L 181.45 173.17 C 180.56 172.64 179.40 172.94 178.87 173.84 C 178.34 174.73 178.64 175.89 179.54 176.42 Z M 180.41 176.93 L 181.27 177.43 C 182.17 177.95 183.32 177.65 183.84 176.76 C 184.36 175.86 184.06 174.71 183.17 174.19 L 182.31 173.69 C 181.42 173.16 180.27 173.46 179.74 174.36 C 179.22 175.25 179.52 176.40 180.41 176.93 Z M 181.28 177.43 L 182.14 177.92 C 183.03 178.44 184.18 178.13 184.69 177.24 C 185.21 176.35 184.91 175.20 184.01 174.69 L 183.16 174.19 C 182.26 173.67 181.12 173.98 180.60 174.87 C 180.09 175.76 180.39 176.91 181.28 177.43 Z M 182.15 177.92 L 183.04 178.43 C 183.93 178.94 185.07 178.63 185.58 177.74 C 186.09 176.84 185.78 175.71 184.89 175.20 L 184.00 174.69 C 183.11 174.18 181.97 174.49 181.46 175.38 C 180.95 176.27 181.26 177.41 182.15 177.92 Z M 183.05 178.43 L 183.93 178.92 C 184.82 179.42 185.95 179.11 186.45 178.21 C 186.95 177.32 186.64 176.19 185.75 175.69 L 184.88 175.20 C 183.98 174.69 182.85 175.01 182.35 175.90 C 181.85 176.79 182.16 177.92 183.05 178.43 Z M 183.94 178.92 L 184.80 179.40 C 185.69 179.89 186.81 179.57 187.31 178.68 C 187.81 177.79 187.49 176.67 186.60 176.17 L 185.74 175.69 C 184.85 175.20 183.72 175.52 183.23 176.41 C 182.73 177.30 183.05 178.42 183.94 178.92 Z M 184.81 179.39 L 185.68 179.87 C 186.57 180.36 187.69 180.04 188.18 179.15 C 188.67 178.26 188.34 177.14 187.46 176.65 L 186.59 176.17 C 185.70 175.68 184.58 176.01 184.09 176.90 C 183.60 177.78 183.92 178.90 184.81 179.39 Z M 185.69 179.87 L 186.58 180.36 C 187.47 180.84 188.58 180.52 189.06 179.63 C 189.55 178.74 189.22 177.63 188.34 177.15 L 187.45 176.66 C 186.56 176.17 185.45 176.50 184.96 177.39 C 184.48 178.27 184.80 179.38 185.69 179.87 Z M 186.59 180.35 L 187.47 180.83 C 188.35 181.31 189.45 180.98 189.93 180.10 C 190.42 179.22 190.09 178.11 189.21 177.63 L 188.33 177.15 C 187.45 176.67 186.34 177.00 185.86 177.88 C 185.38 178.76 185.71 179.87 186.59 180.35 Z M 187.47 180.82 L 188.34 181.29 C 189.21 181.76 190.31 181.44 190.79 180.56 C 191.26 179.68 190.94 178.59 190.06 178.11 L 189.20 177.64 C 188.32 177.16 187.23 177.49 186.75 178.37 C 186.27 179.24 186.60 180.34 187.47 180.82 Z M 188.34 181.28 L 189.23 181.76 C 190.11 182.24 191.20 181.92 191.67 181.04 C 192.15 180.17 191.83 179.08 190.95 178.61 L 190.06 178.12 C 189.19 177.64 188.09 177.97 187.62 178.84 C 187.14 179.71 187.47 180.80 188.34 181.28 Z M 189.24 181.75 L 190.13 182.24 C 190.99 182.71 192.08 182.39 192.55 181.52 C 193.02 180.66 192.70 179.57 191.84 179.10 L 190.95 178.62 C 190.08 178.14 189.00 178.46 188.52 179.33 C 188.05 180.20 188.37 181.28 189.24 181.75 Z M 190.13 182.23 L 190.99 182.70 C 191.85 183.17 192.93 182.85 193.40 181.99 C 193.87 181.13 193.56 180.05 192.70 179.58 L 191.83 179.11 C 190.97 178.64 189.89 178.96 189.42 179.82 C 188.95 180.68 189.27 181.76 190.13 182.23 Z M 191.00 182.69 L 191.82 183.14 C 192.68 183.61 193.75 183.30 194.22 182.44 C 194.69 181.58 194.37 180.51 193.52 180.04 L 192.69 179.59 C 191.84 179.12 190.76 179.44 190.29 180.29 C 189.83 181.15 190.14 182.22 191.00 182.69 Z M 191.83 183.13 L 192.64 183.58 C 193.49 184.04 194.56 183.73 195.02 182.88 C 195.49 182.02 195.17 180.96 194.32 180.49 L 193.51 180.05 C 192.66 179.59 191.59 179.90 191.13 180.75 C 190.66 181.60 190.98 182.67 191.83 183.13 Z M 192.65 183.57 L 193.53 184.04 C 194.38 184.50 195.44 184.18 195.89 183.33 C 196.35 182.48 196.03 181.42 195.18 180.96 L 194.31 180.50 C 193.46 180.04 192.40 180.36 191.94 181.21 C 191.49 182.06 191.80 183.12 192.65 183.57 Z M 193.55 184.04 L 194.54 184.56 C 195.39 185.01 196.44 184.68 196.89 183.83 C 197.33 182.98 197.00 181.93 196.15 181.49 L 195.16 180.97 C 194.31 180.52 193.26 180.85 192.82 181.70 C 192.37 182.55 192.70 183.60 193.55 184.04 Z M 194.56 184.56 L 195.37 184.98 C 196.22 185.42 197.27 185.08 197.70 184.23 C 198.14 183.38 197.80 182.34 196.95 181.90 L 196.14 181.49 C 195.29 181.05 194.24 181.38 193.81 182.23 C 193.37 183.08 193.71 184.13 194.56 184.56 Z M 195.39 184.98 L 196.27 185.43 C 197.12 185.86 198.16 185.51 198.58 184.66 C 199.01 183.81 198.67 182.78 197.82 182.35 L 196.94 181.90 C 196.09 181.48 195.05 181.82 194.62 182.67 C 194.20 183.52 194.54 184.55 195.39 184.98 Z M 196.28 185.43 L 197.21 185.88 C 198.06 186.30 199.09 185.95 199.51 185.10 C 199.93 184.25 199.58 183.22 198.73 182.80 L 197.80 182.35 C 196.95 181.93 195.92 182.28 195.50 183.13 C 195.08 183.98 195.43 185.01 196.28 185.43 Z M 197.22 185.88 L 198.16 186.34 C 199.02 186.75 200.04 186.39 200.45 185.54 C 200.86 184.69 200.50 183.66 199.65 183.25 L 198.71 182.80 C 197.86 182.39 196.84 182.75 196.43 183.60 C 196.02 184.45 196.37 185.47 197.22 185.88 Z M 198.18 186.34 L 199.14 186.79 C 200.00 187.19 201.01 186.82 201.41 185.97 C 201.81 185.11 201.44 184.10 200.59 183.70 L 199.63 183.25 C 198.78 182.85 197.76 183.22 197.36 184.07 C 196.96 184.93 197.33 185.94 198.18 186.34 Z M 199.19 186.80 L 200.23 187.25 C 201.09 187.63 202.09 187.24 202.46 186.38 C 202.84 185.52 202.45 184.52 201.59 184.15 L 200.55 183.69 C 199.69 183.32 198.69 183.71 198.31 184.56 C 197.94 185.42 198.33 186.42 199.19 186.80 Z M 200.34 187.28 L 201.32 187.64 C 202.20 187.96 203.16 187.51 203.48 186.64 C 203.80 185.76 203.35 184.79 202.47 184.48 L 201.49 184.12 C 200.61 183.80 199.65 184.25 199.33 185.13 C 199.01 186.00 199.46 186.97 200.34 187.28 Z M 201.52 187.69 L 202.43 187.90 C 203.33 188.11 204.23 187.54 204.44 186.64 C 204.64 185.74 204.08 184.84 203.18 184.64 L 202.27 184.43 C 201.37 184.22 200.47 184.79 200.27 185.69 C 200.06 186.59 200.62 187.48 201.52 187.69 Z M 202.79 187.93 L 203.62 187.94 C 204.54 187.94 205.29 187.20 205.30 186.29 C 205.30 185.37 204.56 184.62 203.65 184.61 L 202.82 184.61 C 201.90 184.60 201.15 185.34 201.14 186.26 C 201.14 187.17 201.88 187.92 202.79 187.93 Z M 204.20 187.83 L 205.09 187.51 C 205.95 187.20 206.40 186.25 206.09 185.39 C 205.78 184.53 204.83 184.09 203.97 184.40 L 203.07 184.72 C 202.21 185.03 201.77 185.98 202.08 186.84 C 202.39 187.69 203.34 188.14 204.20 187.83 Z M 205.54 187.26 L 206.31 186.66 C 207.03 186.10 207.17 185.07 206.62 184.35 C 206.06 183.63 205.03 183.49 204.30 184.05 L 203.53 184.64 C 202.81 185.20 202.67 186.23 203.23 186.95 C 203.78 187.68 204.81 187.81 205.54 187.26 Z M 206.50 186.49 L 207.21 185.74 C 207.83 185.09 207.81 184.05 207.16 183.42 C 206.50 182.79 205.46 182.82 204.83 183.47 L 204.12 184.22 C 203.50 184.87 203.52 185.91 204.17 186.54 C 204.83 187.17 205.87 187.14 206.50 186.49 Z M 207.24 185.70 L 207.37 185.56 C 207.97 184.89 207.91 183.85 207.24 183.25 C 206.56 182.64 205.53 182.70 204.93 183.38 L 204.80 183.51 C 204.20 184.19 204.25 185.22 204.93 185.83 C 205.60 186.43 206.64 186.37 207.24 185.70 Z"
      fill="black"
      fill-rule="nonzero" /><path d="M 196.83 145.09 L 196.07 145.68 C 195.27 146.28 195.12 147.41 195.72 148.20 C 196.33 149.00 197.46 149.15 198.25 148.54 L 199.02 147.96 C 199.81 147.36 199.96 146.23 199.36 145.43 C 198.75 144.64 197.62 144.49 196.83 145.09 Z M 196.00 145.73 L 195.25 146.35 C 194.49 146.99 194.38 148.13 195.02 148.89 C 195.66 149.66 196.80 149.76 197.56 149.12 L 198.31 148.49 C 199.08 147.86 199.18 146.72 198.54 145.95 C 197.90 145.19 196.77 145.09 196.00 145.73 Z M 195.14 146.46 L 194.41 147.17 C 193.70 147.87 193.70 149.02 194.40 149.72 C 195.10 150.43 196.24 150.44 196.95 149.74 L 197.67 149.02 C 198.38 148.32 198.39 147.18 197.69 146.47 C 196.99 145.76 195.85 145.76 195.14 146.46 Z M 194.29 147.31 L 193.69 148.04 C 193.06 148.81 193.17 149.94 193.94 150.58 C 194.71 151.21 195.84 151.10 196.48 150.33 L 197.07 149.60 C 197.71 148.83 197.59 147.70 196.83 147.06 C 196.06 146.43 194.92 146.54 194.29 147.31 Z M 193.60 148.16 L 193.10 148.88 C 192.53 149.70 192.74 150.82 193.56 151.39 C 194.38 151.96 195.50 151.75 196.07 150.93 L 196.57 150.21 C 197.14 149.39 196.93 148.26 196.11 147.70 C 195.29 147.13 194.16 147.33 193.60 148.16 Z M 193.04 148.96 L 192.54 149.78 C 192.02 150.63 192.29 151.75 193.14 152.27 C 193.99 152.79 195.11 152.52 195.63 151.67 L 196.13 150.85 C 196.65 150.00 196.38 148.88 195.53 148.36 C 194.68 147.84 193.56 148.11 193.04 148.96 Z M 192.51 149.83 L 191.99 150.76 C 191.50 151.63 191.80 152.73 192.67 153.22 C 193.55 153.71 194.65 153.41 195.14 152.53 L 195.66 151.61 C 196.15 150.74 195.84 149.64 194.97 149.15 C 194.10 148.65 193.00 148.96 192.51 149.83 Z M 191.97 150.79 L 191.41 151.82 C 190.94 152.70 191.27 153.80 192.15 154.27 C 193.03 154.75 194.13 154.42 194.60 153.54 L 195.16 152.51 C 195.63 151.62 195.31 150.52 194.42 150.05 C 193.54 149.57 192.44 149.90 191.97 150.79 Z M 191.41 151.83 L 190.93 152.72 C 190.46 153.61 190.80 154.71 191.68 155.17 C 192.57 155.64 193.66 155.31 194.13 154.42 L 194.61 153.53 C 195.08 152.64 194.74 151.55 193.86 151.08 C 192.97 150.61 191.87 150.94 191.41 151.83 Z M 190.93 152.73 L 190.45 153.65 C 189.98 154.53 190.32 155.62 191.21 156.09 C 192.09 156.56 193.19 156.22 193.65 155.33 L 194.13 154.42 C 194.60 153.53 194.26 152.44 193.38 151.97 C 192.49 151.51 191.40 151.85 190.93 152.73 Z M 190.45 153.65 L 189.96 154.58 C 189.50 155.47 189.84 156.56 190.73 157.02 C 191.61 157.48 192.70 157.14 193.17 156.26 L 193.65 155.33 C 194.11 154.44 193.77 153.35 192.89 152.89 C 192.00 152.42 190.91 152.77 190.45 153.65 Z M 189.96 154.59 L 189.48 155.51 C 189.02 156.39 189.37 157.48 190.25 157.94 C 191.14 158.40 192.23 158.06 192.69 157.17 L 193.17 156.25 C 193.62 155.37 193.28 154.28 192.39 153.82 C 191.51 153.36 190.42 153.70 189.96 154.59 Z M 189.48 155.52 L 189.03 156.40 C 188.57 157.28 188.92 158.37 189.81 158.82 C 190.69 159.28 191.78 158.93 192.23 158.05 L 192.69 157.17 C 193.14 156.28 192.80 155.19 191.91 154.74 C 191.03 154.28 189.94 154.63 189.48 155.52 Z M 189.03 156.40 L 188.61 157.22 C 188.16 158.10 188.51 159.19 189.40 159.64 C 190.28 160.09 191.37 159.74 191.82 158.85 L 192.23 158.04 C 192.69 157.15 192.33 156.07 191.45 155.62 C 190.56 155.17 189.48 155.52 189.03 156.40 Z M 188.62 157.23 L 188.09 158.28 C 187.65 159.16 188.00 160.24 188.88 160.68 C 189.77 161.13 190.84 160.77 191.28 159.89 L 191.81 158.84 C 192.26 157.96 191.90 156.88 191.02 156.44 C 190.14 156.00 189.06 156.35 188.62 157.23 Z M 188.11 158.31 L 187.65 159.23 C 187.22 160.10 187.58 161.16 188.45 161.59 C 189.32 162.02 190.38 161.67 190.81 160.79 L 191.27 159.87 C 191.70 158.99 191.34 157.94 190.47 157.51 C 189.60 157.07 188.54 157.43 188.11 158.31 Z M 187.67 159.25 L 187.27 160.07 C 186.85 160.93 187.21 161.97 188.07 162.39 C 188.93 162.81 189.97 162.45 190.39 161.59 L 190.79 160.77 C 191.21 159.91 190.85 158.87 189.99 158.45 C 189.13 158.03 188.09 158.39 187.67 159.25 Z M 187.29 160.08 L 186.91 160.86 C 186.50 161.71 186.85 162.73 187.70 163.14 C 188.55 163.56 189.58 163.20 189.99 162.35 L 190.37 161.58 C 190.78 160.73 190.43 159.70 189.58 159.29 C 188.73 158.88 187.71 159.23 187.29 160.08 Z M 186.93 160.86 L 186.51 161.73 C 186.09 162.57 186.44 163.58 187.28 163.99 C 188.12 164.41 189.13 164.06 189.55 163.22 L 189.97 162.35 C 190.39 161.51 190.04 160.50 189.20 160.08 C 188.36 159.67 187.35 160.02 186.93 160.86 Z M 186.52 161.73 L 186.07 162.62 C 185.66 163.46 186.00 164.47 186.84 164.88 C 187.67 165.29 188.68 164.95 189.09 164.11 L 189.54 163.22 C 189.95 162.39 189.61 161.38 188.77 160.96 C 187.94 160.55 186.93 160.89 186.52 161.73 Z M 186.08 162.63 L 185.63 163.54 C 185.22 164.37 185.56 165.38 186.39 165.78 C 187.22 166.19 188.23 165.85 188.63 165.02 L 189.09 164.11 C 189.50 163.28 189.15 162.28 188.33 161.87 C 187.50 161.46 186.49 161.80 186.08 162.63 Z M 185.64 163.55 L 185.19 164.45 C 184.79 165.28 185.13 166.28 185.96 166.68 C 186.78 167.09 187.78 166.74 188.19 165.92 L 188.63 165.02 C 189.03 164.19 188.69 163.19 187.87 162.79 C 187.04 162.38 186.04 162.72 185.64 163.55 Z M 185.20 164.46 L 184.77 165.35 C 184.36 166.17 184.71 167.16 185.53 167.57 C 186.35 167.97 187.35 167.63 187.75 166.80 L 188.18 165.91 C 188.58 165.09 188.24 164.10 187.42 163.69 C 186.59 163.29 185.60 163.63 185.20 164.46 Z M 184.77 165.35 L 184.33 166.24 C 183.93 167.06 184.27 168.05 185.09 168.46 C 185.91 168.86 186.90 168.52 187.30 167.70 L 187.74 166.80 C 188.14 165.98 187.81 164.99 186.99 164.59 C 186.17 164.19 185.18 164.53 184.77 165.35 Z M 184.34 166.24 L 183.89 167.14 C 183.48 167.96 183.81 168.95 184.62 169.35 C 185.44 169.76 186.43 169.43 186.84 168.62 L 187.29 167.71 C 187.70 166.90 187.37 165.91 186.55 165.50 C 185.74 165.09 184.75 165.42 184.34 166.24 Z M 183.90 167.13 L 183.45 167.99 C 183.04 168.80 183.36 169.79 184.17 170.21 C 184.97 170.62 185.96 170.31 186.38 169.50 L 186.82 168.63 C 187.24 167.82 186.92 166.83 186.11 166.42 C 185.31 166.00 184.31 166.32 183.90 167.13 Z M 183.46 167.98 L 183.01 168.85 C 182.59 169.65 182.89 170.65 183.70 171.07 C 184.50 171.49 185.49 171.18 185.91 170.38 L 186.37 169.51 C 186.79 168.71 186.48 167.71 185.68 167.29 C 184.88 166.87 183.88 167.18 183.46 167.98 Z M 183.01 168.84 L 182.54 169.73 C 182.11 170.53 182.42 171.52 183.22 171.95 C 184.02 172.38 185.01 172.07 185.44 171.27 L 185.91 170.39 C 186.33 169.59 186.03 168.59 185.23 168.17 C 184.43 167.74 183.44 168.04 183.01 168.84 Z M 182.54 169.73 L 182.05 170.64 C 181.63 171.44 181.93 172.43 182.73 172.86 C 183.52 173.29 184.52 172.99 184.94 172.19 L 185.43 171.28 C 185.86 170.48 185.56 169.48 184.76 169.06 C 183.96 168.63 182.97 168.93 182.54 169.73 Z M 182.06 170.64 L 181.58 171.53 C 181.15 172.33 181.45 173.32 182.25 173.75 C 183.05 174.17 184.04 173.87 184.47 173.07 L 184.94 172.19 C 185.37 171.39 185.07 170.40 184.27 169.97 C 183.47 169.54 182.48 169.85 182.06 170.64 Z M 181.58 171.53 L 181.10 172.42 C 180.67 173.21 180.97 174.20 181.77 174.63 C 182.57 175.06 183.56 174.76 183.99 173.97 L 184.47 173.08 C 184.90 172.28 184.60 171.29 183.80 170.86 C 183.00 170.43 182.01 170.73 181.58 171.53 Z M 181.11 172.41 L 180.62 173.29 C 180.19 174.09 180.48 175.08 181.28 175.52 C 182.07 175.95 183.07 175.66 183.50 174.86 L 183.98 173.98 C 184.42 173.18 184.12 172.19 183.33 171.75 C 182.54 171.32 181.54 171.61 181.11 172.41 Z M 180.63 173.28 L 180.15 174.15 C 179.71 174.94 179.99 175.94 180.78 176.38 C 181.57 176.82 182.57 176.53 183.01 175.74 L 183.49 174.88 C 183.93 174.09 183.65 173.09 182.86 172.65 C 182.07 172.21 181.07 172.49 180.63 173.28 Z M 180.16 174.13 L 179.65 175.01 C 179.20 175.80 179.47 176.80 180.25 177.25 C 181.04 177.70 182.04 177.43 182.49 176.65 L 183.00 175.76 C 183.45 174.98 183.18 173.98 182.39 173.53 C 181.61 173.08 180.61 173.35 180.16 174.13 Z M 179.66 174.99 L 179.14 175.87 C 178.68 176.64 178.93 177.65 179.71 178.11 C 180.49 178.57 181.49 178.32 181.95 177.54 L 182.48 176.67 C 182.94 175.89 182.69 174.89 181.91 174.42 C 181.13 173.96 180.13 174.21 179.66 174.99 Z M 179.15 175.85 L 178.63 176.69 C 178.16 177.46 178.41 178.47 179.18 178.94 C 179.95 179.42 180.96 179.17 181.43 178.40 L 181.94 177.56 C 182.42 176.79 182.17 175.78 181.40 175.31 C 180.63 174.84 179.62 175.08 179.15 175.85 Z M 178.64 176.68 L 178.13 177.51 C 177.65 178.28 177.88 179.29 178.65 179.76 C 179.42 180.24 180.43 180.01 180.91 179.24 L 181.42 178.41 C 181.90 177.64 181.66 176.63 180.90 176.16 C 180.13 175.68 179.12 175.92 178.64 176.68 Z M 178.13 177.51 L 177.97 177.76 C 177.49 178.53 177.72 179.54 178.49 180.02 C 179.26 180.50 180.27 180.27 180.75 179.50 L 180.91 179.24 C 181.39 178.47 181.15 177.46 180.39 176.98 C 179.62 176.51 178.61 176.74 178.13 177.51 Z"
      fill="black"
      fill-rule="nonzero" /></svg>