<svg xmlns="http://www.w3.org/2000/svg" width="300" height="300" viewBox="0 0 300 300">
<path d="M 119.64 138.54 L 120.04 139.32 C 120.46 140.15 121.48 140.48 122.30 140.06 C 123.13 139.64 123.46 138.62 123.04 137.80 L 122.63 137.01 C 122.21 136.18 121.20 135.85 120.37 136.27 C 119.55 136.70 119.22 137.71 119.64 138.54 Z M 119.95 139.27 L 120.33 140.12 C 120.73 141.00 121.76 141.39 122.63 140.99 C 123.51 140.60 123.90 139.57 123.51 138.70 L 123.13 137.85 C 122.73 136.97 121.70 136.58 120.83 136.97 C 119.95 137.37 119.56 138.40 119.95 139.27 Z M 120.22 140.00 L 120.56 140.97 C 120.89 141.90 121.91 142.40 122.85 142.07 C 123.78 141.75 124.28 140.72 123.95 139.79 L 123.62 138.82 C 123.29 137.88 122.27 137.39 121.33 137.71 C 120.39 138.04 119.90 139.06 120.22 140.00 Z M 120.46 140.80 L 120.72 141.91 C 120.95 142.90 121.95 143.52 122.95 143.28 C 123.94 143.05 124.56 142.05 124.32 141.05 L 124.06 139.95 C 123.82 138.95 122.82 138.34 121.83 138.57 C 120.83 138.81 120.22 139.81 120.46 140.80 Z M 120.66 141.78 L 120.79 142.58 C 120.95 143.61 121.92 144.31 122.94 144.14 C 123.96 143.98 124.66 143.02 124.50 142.00 L 124.37 141.19 C 124.21 140.17 123.25 139.47 122.23 139.63 C 121.20 139.79 120.50 140.75 120.66 141.78 Z M 120.78 142.50 L 120.88 143.39 C 121.00 144.42 121.93 145.16 122.96 145.04 C 123.99 144.93 124.73 144.00 124.61 142.96 L 124.51 142.08 C 124.40 141.05 123.46 140.31 122.43 140.42 C 121.40 140.54 120.66 141.47 120.78 142.50 Z M 120.88 143.33 L 120.96 144.30 C 121.04 145.33 121.95 146.10 122.98 146.01 C 124.02 145.93 124.79 145.02 124.70 143.98 L 124.62 143.02 C 124.53 141.99 123.63 141.22 122.59 141.31 C 121.56 141.39 120.79 142.30 120.88 143.33 Z M 120.95 144.26 L 121.02 145.29 C 121.08 146.32 121.98 147.11 123.01 147.05 C 124.05 146.98 124.83 146.09 124.77 145.05 L 124.70 144.02 C 124.64 142.99 123.74 142.20 122.71 142.27 C 121.67 142.33 120.89 143.22 120.95 144.26 Z M 121.02 145.27 L 121.07 146.36 C 121.13 147.40 122.01 148.19 123.04 148.14 C 124.08 148.09 124.88 147.21 124.82 146.17 L 124.77 145.08 C 124.72 144.04 123.83 143.24 122.80 143.30 C 121.76 143.35 120.97 144.23 121.02 145.27 Z M 121.07 146.35 L 121.12 147.50 C 121.17 148.54 122.05 149.34 123.08 149.29 C 124.12 149.25 124.92 148.37 124.88 147.33 L 124.82 146.18 C 124.78 145.15 123.90 144.34 122.86 144.39 C 121.83 144.44 121.03 145.31 121.07 146.35 Z M 121.12 147.50 L 121.17 148.59 C 121.22 149.62 122.09 150.43 123.13 150.38 C 124.16 150.34 124.97 149.46 124.92 148.43 L 124.88 147.34 C 124.83 146.30 123.95 145.50 122.92 145.54 C 121.88 145.59 121.08 146.46 121.12 147.50 Z M 121.17 148.59 L 121.22 149.65 C 121.27 150.69 122.14 151.49 123.18 151.45 C 124.21 151.40 125.01 150.52 124.97 149.49 L 124.92 148.42 C 124.88 147.39 124.00 146.59 122.96 146.63 C 121.93 146.68 121.13 147.55 121.17 148.59 Z M 121.22 149.65 L 121.27 150.72 C 121.31 151.76 122.19 152.56 123.22 152.51 C 124.26 152.47 125.06 151.59 125.01 150.56 L 124.97 149.49 C 124.92 148.45 124.05 147.65 123.01 147.70 C 121.98 147.74 121.18 148.62 121.22 149.65 Z M 121.27 150.72 L 121.32 151.78 C 121.36 152.81 122.23 153.61 123.27 153.57 C 124.30 153.52 125.10 152.65 125.06 151.61 L 125.01 150.56 C 124.97 149.53 124.09 148.72 123.06 148.77 C 122.03 148.81 121.22 149.69 121.27 150.72 Z M 121.32 151.78 L 121.36 152.80 C 121.40 153.83 122.28 154.63 123.31 154.59 C 124.34 154.54 125.15 153.67 125.10 152.64 L 125.06 151.62 C 125.01 150.58 124.14 149.78 123.11 149.82 C 122.07 149.87 121.27 150.74 121.32 151.78 Z M 121.36 152.79 L 121.40 153.76 C 121.44 154.80 122.31 155.60 123.35 155.56 C 124.38 155.52 125.18 154.64 125.14 153.61 L 125.10 152.64 C 125.06 151.61 124.19 150.81 123.15 150.85 C 122.12 150.89 121.32 151.76 121.36 152.79 Z M 121.40 153.76 L 121.44 154.66 C 121.48 155.69 122.35 156.50 123.38 156.46 C 124.41 156.42 125.21 155.55 125.17 154.52 L 125.14 153.62 C 125.10 152.58 124.23 151.78 123.20 151.82 C 122.17 151.86 121.36 152.73 121.40 153.76 Z M 121.44 154.65 L 121.47 155.66 C 121.51 156.69 122.37 157.49 123.40 157.46 C 124.43 157.42 125.24 156.56 125.21 155.53 L 125.17 154.52 C 125.14 153.49 124.27 152.69 123.24 152.72 C 122.21 152.76 121.40 153.62 121.44 154.65 Z M 121.48 155.64 L 121.52 156.84 C 121.54 157.86 122.40 158.67 123.42 158.65 C 124.44 158.62 125.25 157.77 125.23 156.74 L 125.19 155.54 C 125.17 154.52 124.32 153.71 123.29 153.74 C 122.27 153.76 121.46 154.62 121.48 155.64 Z M 121.53 156.82 L 121.55 157.80 C 121.56 158.81 122.40 159.62 123.41 159.61 C 124.43 159.59 125.24 158.75 125.23 157.74 L 125.21 156.76 C 125.19 155.75 124.36 154.94 123.34 154.95 C 122.33 154.97 121.52 155.80 121.53 156.82 Z M 121.56 157.78 L 121.57 158.62 C 121.57 159.63 122.39 160.44 123.40 160.43 C 124.41 160.43 125.22 159.61 125.21 158.60 L 125.21 157.76 C 125.20 156.75 124.38 155.94 123.38 155.94 C 122.37 155.95 121.56 156.77 121.56 157.78 Z M 121.58 158.61 L 121.58 159.46 C 121.58 160.46 122.39 161.27 123.39 161.27 C 124.39 161.27 125.20 160.46 125.20 159.46 L 125.20 158.61 C 125.20 157.61 124.39 156.80 123.39 156.80 C 122.39 156.80 121.58 157.61 121.58 158.61 Z M 121.60 159.46 L 121.60 160.45 C 121.60 161.44 122.40 162.25 123.39 162.25 C 124.38 162.25 125.19 161.44 125.19 160.45 L 125.19 159.46 C 125.19 158.47 124.38 157.66 123.39 157.66 C 122.40 157.66 121.60 158.47 121.60 159.46 Z M 121.60 160.45 L 121.60 161.46 C 121.60 162.44 122.40 163.24 123.39 163.24 C 124.38 163.24 125.18 162.44 125.18 161.46 L 125.18 160.45 C 125.18 159.46 124.38 158.66 123.39 158.66 C 122.40 158.66 121.60 159.46 121.60 160.45 Z M 121.61 161.46 L 121.61 162.47 C 121.61 163.45 122.41 164.24 123.39 164.24 C 124.37 164.24 125.17 163.45 125.17 162.47 L 125.17 161.46 C 125.17 160.47 124.37 159.68 123.39 159.68 C 122.41 159.68 121.61 160.47 121.61 161.46 Z M 121.62 162.47 L 121.62 163.47 C 121.62 164.45 122.41 165.24 123.39 165.24 C 124.37 165.24 125.16 164.45 125.16 163.47 L 125.16 162.47 C 125.16 161.49 124.37 160.70 123.39 160.70 C 122.41 160.70 121.62 161.49 121.62 162.47 Z M 121.63 163.47 L 121.63 164.47 C 121.63 165.44 122.42 166.22 123.39 166.22 C 124.36 166.22 125.15 165.44 125.15 164.47 L 125.15 163.47 C 125.15 162.50 124.36 161.71 123.39 161.71 C 122.42 161.71 121.63 162.50 121.63 163.47 Z M 121.64 164.47 L 121.64 165.47 C 121.64 166.43 122.43 167.21 123.39 167.21 C 124.36 167.21 125.14 166.43 125.14 165.47 L 125.14 164.47 C 125.14 163.50 124.36 162.72 123.39 162.72 C 122.43 162.72 121.64 163.50 121.64 164.47 Z M 121.65 165.47 L 121.65 166.46 C 121.65 167.42 122.43 168.20 123.39 168.20 C 124.35 168.20 125.13 167.42 125.13 166.46 L 125.13 165.47 C 125.13 164.51 124.35 163.73 123.39 163.73 C 122.43 163.73 121.65 164.51 121.65 165.47 Z M 121.66 166.46 L 121.66 167.45 C 121.66 168.41 122.44 169.18 123.39 169.18 C 124.35 169.18 125.12 168.41 125.12 167.45 L 125.12 166.46 C 125.12 165.50 124.35 164.73 123.39 164.73 C 122.44 164.73 121.66 165.50 121.66 166.46 Z M 121.67 167.45 L 121.67 168.45 C 121.67 169.40 122.44 170.17 123.39 170.17 C 124.34 170.17 125.11 169.40 125.11 168.45 L 125.11 167.45 C 125.11 166.50 124.34 165.73 123.39 165.73 C 122.44 165.73 121.67 166.50 121.67 167.45 Z M 121.68 168.45 L 121.68 169.46 C 121.68 170.40 122.45 171.17 123.39 171.17 C 124.34 171.17 125.10 170.40 125.10 169.46 L 125.10 168.45 C 125.10 167.51 124.34 166.75 123.39 166.75 C 122.45 166.75 121.68 167.51 121.68 168.45 Z M 121.69 169.46 L 121.69 170.38 C 121.69 171.32 122.45 172.08 123.39 172.08 C 124.33 172.08 125.09 171.32 125.09 170.38 L 125.09 169.46 C 125.09 168.52 124.33 167.76 123.39 167.76 C 122.45 167.76 121.69 168.52 121.69 169.46 Z M 121.70 170.38 L 121.70 171.35 C 121.70 172.28 122.46 173.04 123.39 173.04 C 124.32 173.04 125.08 172.28 125.08 171.35 L 125.08 170.38 C 125.08 169.45 124.32 168.69 123.39 168.69 C 122.46 168.69 121.70 169.45 121.70 170.38 Z M 121.71 171.35 L 121.71 172.38 C 121.71 173.31 122.46 174.06 123.39 174.06 C 124.32 174.06 125.07 173.31 125.07 172.38 L 125.07 171.35 C 125.07 170.42 124.32 169.67 123.39 169.67 C 122.46 169.67 121.71 170.42 121.71 171.35 Z M 121.72 172.38 L 121.72 173.45 C 121.72 174.37 122.47 175.12 123.39 175.12 C 124.31 175.12 125.06 174.37 125.06 173.45 L 125.06 172.38 C 125.06 171.46 124.31 170.71 123.39 170.71 C 122.47 170.71 121.72 171.46 121.72 172.38 Z M 121.73 173.45 L 121.73 174.42 C 121.72 175.34 122.47 176.09 123.39 176.09 C 124.31 176.09 125.06 175.35 125.06 174.43 L 125.06 173.45 C 125.06 172.53 124.31 171.79 123.39 171.79 C 122.47 171.79 121.73 172.53 121.73 173.45 Z M 121.73 174.42 L 121.73 175.43 C 121.72 176.35 122.46 177.10 123.38 177.10 C 124.30 177.10 125.04 176.36 125.05 175.45 L 125.05 174.43 C 125.06 173.51 124.31 172.77 123.40 172.76 C 122.48 172.76 121.73 173.50 121.73 174.42 Z M 121.73 175.42 L 121.72 176.45 C 121.71 177.37 122.45 178.11 123.36 178.12 C 124.28 178.13 125.03 177.40 125.03 176.48 L 125.04 175.45 C 125.05 174.54 124.32 173.79 123.40 173.78 C 122.49 173.77 121.74 174.51 121.73 175.42 Z M 121.73 176.44 L 121.71 177.45 C 121.69 178.36 122.42 179.11 123.33 179.13 C 124.25 179.14 125.00 178.42 125.01 177.50 L 125.03 176.49 C 125.05 175.58 124.32 174.83 123.41 174.81 C 122.49 174.80 121.74 175.53 121.73 176.44 Z M 121.71 177.43 L 121.68 178.46 C 121.66 179.37 122.37 180.13 123.28 180.15 C 124.19 180.18 124.95 179.46 124.98 178.55 L 125.01 177.52 C 125.03 176.61 124.32 175.86 123.41 175.83 C 122.50 175.80 121.74 176.52 121.71 177.43 Z M 121.69 178.42 L 121.63 179.45 C 121.59 180.36 122.29 181.13 123.19 181.18 C 124.10 181.23 124.87 180.53 124.92 179.62 L 124.97 178.59 C 125.02 177.68 124.32 176.91 123.42 176.86 C 122.51 176.81 121.73 177.51 121.69 178.42 Z M 121.64 179.39 L 121.55 180.37 C 121.47 181.28 122.13 182.08 123.04 182.16 C 123.94 182.24 124.74 181.58 124.82 180.67 L 124.91 179.69 C 125.00 178.79 124.33 177.99 123.43 177.90 C 122.53 177.82 121.73 178.48 121.64 179.39 Z M 121.57 180.28 L 121.42 181.23 C 121.29 182.13 121.90 182.96 122.80 183.10 C 123.69 183.24 124.53 182.62 124.66 181.72 L 124.81 180.77 C 124.94 179.87 124.33 179.04 123.43 178.90 C 122.54 178.77 121.70 179.38 121.57 180.28 Z M 121.45 181.12 L 121.23 182.06 C 121.03 182.94 121.59 183.82 122.47 184.02 C 123.35 184.22 124.23 183.66 124.43 182.78 L 124.64 181.84 C 124.84 180.96 124.29 180.08 123.40 179.88 C 122.52 179.68 121.65 180.23 121.45 181.12 Z M 121.26 181.94 L 120.98 182.87 C 120.71 183.74 121.20 184.66 122.06 184.92 C 122.93 185.19 123.85 184.70 124.11 183.83 L 124.40 182.90 C 124.66 182.03 124.17 181.12 123.31 180.85 C 122.44 180.59 121.53 181.07 121.26 181.94 Z M 121.00 182.79 L 120.66 183.72 C 120.35 184.57 120.78 185.52 121.63 185.83 C 122.48 186.14 123.43 185.71 123.74 184.86 L 124.08 183.92 C 124.40 183.07 123.96 182.13 123.11 181.81 C 122.26 181.50 121.32 181.94 121.00 182.79 Z M 120.68 183.67 L 120.30 184.60 C 119.95 185.44 120.36 186.40 121.20 186.75 C 122.04 187.09 122.99 186.69 123.34 185.85 L 123.72 184.91 C 124.06 184.07 123.66 183.11 122.82 182.77 C 121.98 182.43 121.02 182.83 120.68 183.67 Z M 120.31 184.58 L 119.91 185.51 C 119.55 186.35 119.93 187.31 120.77 187.67 C 121.60 188.03 122.57 187.64 122.93 186.81 L 123.33 185.87 C 123.69 185.04 123.30 184.07 122.47 183.72 C 121.63 183.36 120.67 183.74 120.31 184.58 Z"
      fill="black"
      fill-rule="nonzero" /><path d="M 116.32 180.19 L 117.00 179.51 C 117.72 178.80 117.72 177.65 117.02 176.93 C 116.31 176.22 115.16 176.21 114.44 176.92 L 113.76 177.60 C 113.04 178.31 113.04 179.46 113.74 180.18 C 114.45 180.89 115.60 180.90 116.32 180.19 Z M 116.97 179.55 L 117.69 178.88 C 118.43 178.19 118.47 177.03 117.78 176.29 C 117.09 175.55 115.93 175.51 115.19 176.20 L 114.47 176.88 C 113.73 177.57 113.70 178.73 114.39 179.47 C 115.08 180.21 116.24 180.24 116.97 179.55 Z M 117.63 178.95 L 118.41 178.30 C 119.19 177.64 119.30 176.48 118.64 175.70 C 117.99 174.92 116.83 174.82 116.05 175.47 L 115.26 176.13 C 114.48 176.78 114.38 177.95 115.03 178.73 C 115.69 179.51 116.85 179.61 117.63 178.95 Z M 118.32 178.38 L 119.10 177.81 C 119.92 177.21 120.10 176.05 119.50 175.23 C 118.90 174.40 117.75 174.22 116.92 174.82 L 116.14 175.39 C 115.32 175.99 115.14 177.15 115.74 177.97 C 116.34 178.80 117.49 178.98 118.32 178.38 Z M 119.02 177.85 L 119.83 177.32 C 120.68 176.76 120.91 175.62 120.35 174.77 C 119.79 173.92 118.65 173.69 117.80 174.25 L 117.00 174.78 C 116.15 175.34 115.91 176.48 116.47 177.33 C 117.03 178.18 118.17 178.41 119.02 177.85 Z M 119.79 177.33 L 120.65 176.79 C 121.50 176.26 121.76 175.12 121.22 174.27 C 120.68 173.41 119.55 173.16 118.70 173.69 L 117.84 174.23 C 116.98 174.77 116.73 175.90 117.27 176.76 C 117.81 177.62 118.94 177.87 119.79 177.33 Z M 120.65 176.79 L 121.54 176.22 C 122.39 175.68 122.64 174.56 122.11 173.71 C 121.57 172.86 120.45 172.60 119.59 173.14 L 118.70 173.70 C 117.85 174.24 117.60 175.37 118.13 176.22 C 118.67 177.07 119.79 177.32 120.65 176.79 Z M 121.56 176.19 L 122.36 175.66 C 123.20 175.12 123.43 174.00 122.88 173.16 C 122.34 172.33 121.22 172.09 120.38 172.64 L 119.58 173.17 C 118.74 173.72 118.51 174.84 119.06 175.67 C 119.60 176.51 120.72 176.74 121.56 176.19 Z M 122.38 175.62 L 123.17 175.08 C 123.98 174.52 124.19 173.42 123.63 172.60 C 123.07 171.79 121.96 171.59 121.15 172.14 L 120.36 172.68 C 119.55 173.24 119.35 174.35 119.90 175.16 C 120.46 175.97 121.57 176.18 122.38 175.62 Z M 123.18 175.04 L 123.99 174.46 C 124.78 173.90 124.96 172.80 124.39 172.01 C 123.83 171.22 122.73 171.04 121.94 171.61 L 121.14 172.18 C 120.35 172.75 120.17 173.85 120.73 174.63 C 121.30 175.42 122.39 175.60 123.18 175.04 Z M 124.00 174.42 L 124.83 173.80 C 125.60 173.23 125.75 172.15 125.18 171.38 C 124.61 170.61 123.53 170.46 122.76 171.03 L 121.93 171.65 C 121.17 172.22 121.01 173.30 121.58 174.07 C 122.15 174.84 123.24 174.99 124.00 174.42 Z M 124.84 173.76 L 125.69 173.11 C 126.43 172.53 126.57 171.46 125.99 170.72 C 125.41 169.97 124.34 169.84 123.59 170.41 L 122.75 171.07 C 122.01 171.64 121.87 172.72 122.45 173.46 C 123.03 174.20 124.10 174.34 124.84 173.76 Z M 125.70 173.08 L 126.46 172.47 C 127.18 171.88 127.30 170.82 126.72 170.09 C 126.13 169.37 125.07 169.25 124.34 169.83 L 123.58 170.44 C 122.86 171.03 122.74 172.09 123.32 172.82 C 123.91 173.54 124.97 173.66 125.70 173.08 Z M 126.47 172.44 L 127.24 171.80 C 127.95 171.21 128.05 170.15 127.46 169.44 C 126.87 168.73 125.81 168.63 125.10 169.22 L 124.33 169.86 C 123.61 170.45 123.52 171.51 124.11 172.22 C 124.70 172.94 125.76 173.03 126.47 172.44 Z M 127.26 171.77 L 128.03 171.11 C 128.72 170.51 128.80 169.45 128.20 168.76 C 127.59 168.06 126.54 167.99 125.84 168.59 L 125.08 169.25 C 124.38 169.85 124.30 170.91 124.91 171.60 C 125.51 172.30 126.56 172.38 127.26 171.77 Z M 128.05 171.08 L 128.80 170.40 C 129.48 169.78 129.53 168.73 128.92 168.06 C 128.30 167.38 127.25 167.33 126.58 167.94 L 125.82 168.62 C 125.14 169.23 125.09 170.28 125.71 170.96 C 126.32 171.64 127.37 171.69 128.05 171.08 Z M 128.82 170.36 L 129.55 169.67 C 130.21 169.04 130.23 168.00 129.61 167.34 C 128.98 166.68 127.94 166.66 127.28 167.28 L 126.55 167.98 C 125.89 168.60 125.87 169.65 126.50 170.30 C 127.12 170.96 128.17 170.99 128.82 170.36 Z M 129.58 169.63 L 130.30 168.90 C 130.94 168.25 130.93 167.21 130.29 166.58 C 129.64 165.94 128.60 165.95 127.97 166.59 L 127.25 167.32 C 126.61 167.97 126.62 169.01 127.26 169.64 C 127.91 170.28 128.95 170.27 129.58 169.63 Z M 130.33 168.86 L 131.03 168.11 C 131.64 167.45 131.60 166.42 130.94 165.80 C 130.28 165.18 129.24 165.22 128.63 165.89 L 127.93 166.63 C 127.32 167.29 127.36 168.33 128.02 168.95 C 128.68 169.56 129.72 169.52 130.33 168.86 Z M 131.05 168.08 L 131.71 167.34 C 132.31 166.66 132.25 165.62 131.57 165.02 C 130.89 164.43 129.86 164.49 129.26 165.17 L 128.60 165.92 C 128.00 166.59 128.06 167.63 128.74 168.23 C 129.42 168.83 130.45 168.76 131.05 168.08 Z M 131.73 167.31 L 132.37 166.56 C 132.96 165.87 132.88 164.84 132.19 164.25 C 131.50 163.67 130.47 163.75 129.88 164.44 L 129.24 165.19 C 128.65 165.88 128.74 166.91 129.43 167.50 C 130.11 168.08 131.15 168.00 131.73 167.31 Z M 132.38 166.55 L 133.01 165.80 C 133.59 165.10 133.50 164.07 132.80 163.49 C 132.11 162.91 131.08 163.01 130.50 163.70 L 129.87 164.45 C 129.29 165.15 129.38 166.18 130.08 166.76 C 130.77 167.34 131.81 167.24 132.38 166.55 Z M 133.02 165.79 L 133.27 165.48 C 133.85 164.78 133.75 163.75 133.06 163.18 C 132.36 162.60 131.33 162.70 130.75 163.39 L 130.49 163.70 C 129.92 164.40 130.01 165.43 130.71 166.01 C 131.41 166.59 132.44 166.49 133.02 165.79 Z"
      fill="black"
      fill-rule="nonzero" /><path d="M 139.03 146.74 L 139.57 147.65 C 140.05 148.46 141.11 148.73 141.92 148.24 C 142.73 147.76 143.00 146.70 142.51 145.89 L 141.97 144.98 C 141.49 144.17 140.43 143.90 139.62 144.39 C 138.80 144.88 138.54 145.93 139.03 146.74 Z M 139.67 147.84 L 140.28 148.63 C 140.87 149.38 141.97 149.52 142.73 148.92 C 143.48 148.33 143.62 147.23 143.02 146.48 L 142.41 145.69 C 141.82 144.94 140.72 144.80 139.97 145.40 C 139.21 145.99 139.07 147.08 139.67 147.84 Z M 140.63 148.99 L 141.38 149.53 C 142.18 150.10 143.28 149.91 143.85 149.12 C 144.42 148.32 144.23 147.22 143.44 146.65 L 142.68 146.11 C 141.88 145.54 140.78 145.73 140.21 146.52 C 139.65 147.32 139.83 148.42 140.63 148.99 Z M 142.01 149.81 L 142.89 150.02 C 143.84 150.24 144.79 149.65 145.01 148.70 C 145.23 147.75 144.64 146.80 143.69 146.58 L 142.81 146.37 C 141.86 146.15 140.91 146.74 140.69 147.69 C 140.47 148.64 141.06 149.59 142.01 149.81 Z M 143.37 150.03 L 144.37 149.98 C 145.33 149.94 146.07 149.13 146.02 148.17 C 145.98 147.21 145.17 146.47 144.21 146.52 L 143.21 146.56 C 142.25 146.61 141.51 147.42 141.56 148.38 C 141.60 149.33 142.41 150.08 143.37 150.03 Z M 144.66 149.92 L 145.70 149.68 C 146.62 149.48 147.19 148.57 146.99 147.65 C 146.79 146.73 145.88 146.15 144.96 146.36 L 143.92 146.59 C 143.00 146.79 142.42 147.70 142.62 148.62 C 142.83 149.54 143.74 150.12 144.66 149.92 Z M 145.87 149.61 L 146.82 149.28 C 147.70 148.98 148.17 148.03 147.87 147.15 C 147.57 146.27 146.61 145.80 145.73 146.10 L 144.78 146.43 C 143.90 146.73 143.43 147.69 143.74 148.57 C 144.04 149.44 144.99 149.91 145.87 149.61 Z M 146.94 149.22 L 147.85 148.83 C 148.69 148.46 149.08 147.48 148.71 146.64 C 148.34 145.79 147.36 145.41 146.52 145.77 L 145.61 146.16 C 144.77 146.53 144.38 147.51 144.75 148.36 C 145.12 149.20 146.10 149.59 146.94 149.22 Z M 147.92 148.78 L 148.82 148.34 C 149.63 147.93 149.97 146.94 149.56 146.12 C 149.16 145.30 148.16 144.97 147.34 145.37 L 146.45 145.82 C 145.63 146.23 145.29 147.22 145.70 148.04 C 146.11 148.85 147.10 149.19 147.92 148.78 Z M 148.85 148.31 L 149.71 147.85 C 150.51 147.43 150.82 146.44 150.40 145.63 C 149.97 144.83 148.98 144.52 148.18 144.95 L 147.31 145.40 C 146.51 145.82 146.20 146.82 146.63 147.62 C 147.05 148.42 148.04 148.73 148.85 148.31 Z M 149.72 147.84 L 150.44 147.46 C 151.24 147.03 151.53 146.03 151.10 145.24 C 150.67 144.44 149.68 144.14 148.88 144.57 L 148.17 144.96 C 147.37 145.39 147.07 146.38 147.50 147.18 C 147.93 147.97 148.92 148.27 149.72 147.84 Z M 150.46 147.44 L 151.24 147.00 C 152.03 146.56 152.31 145.56 151.87 144.77 C 151.42 143.99 150.42 143.71 149.64 144.15 L 148.86 144.59 C 148.07 145.03 147.79 146.03 148.23 146.82 C 148.68 147.60 149.68 147.88 150.46 147.44 Z M 151.28 146.98 L 152.15 146.47 C 152.92 146.00 153.18 145.00 152.71 144.22 C 152.25 143.44 151.25 143.19 150.47 143.65 L 149.60 144.17 C 148.82 144.63 148.57 145.64 149.03 146.41 C 149.49 147.19 150.50 147.45 151.28 146.98 Z M 152.18 146.44 L 153.18 145.81 C 153.94 145.33 154.17 144.32 153.69 143.55 C 153.20 142.79 152.19 142.56 151.43 143.05 L 150.43 143.68 C 149.67 144.16 149.44 145.17 149.92 145.93 C 150.41 146.70 151.42 146.93 152.18 146.44 Z M 153.21 145.79 L 154.08 145.21 C 154.84 144.71 155.04 143.70 154.54 142.94 C 154.04 142.19 153.02 141.99 152.27 142.49 L 151.40 143.07 C 150.64 143.57 150.44 144.58 150.94 145.33 C 151.44 146.09 152.46 146.29 153.21 145.79 Z M 154.10 145.20 L 154.81 144.71 C 155.56 144.20 155.75 143.18 155.24 142.44 C 154.73 141.69 153.71 141.50 152.96 142.01 L 152.25 142.50 C 151.51 143.01 151.31 144.03 151.83 144.77 C 152.34 145.52 153.36 145.71 154.10 145.20 Z M 154.83 144.70 L 155.59 144.17 C 156.33 143.65 156.51 142.63 155.99 141.89 C 155.48 141.15 154.46 140.97 153.71 141.49 L 152.95 142.02 C 152.21 142.54 152.03 143.56 152.55 144.30 C 153.06 145.04 154.09 145.22 154.83 144.70 Z M 155.60 144.17 L 156.40 143.60 C 157.13 143.08 157.31 142.06 156.79 141.32 C 156.26 140.58 155.24 140.40 154.51 140.93 L 153.70 141.49 C 152.97 142.02 152.79 143.04 153.31 143.78 C 153.84 144.51 154.86 144.69 155.60 144.17 Z M 156.40 143.59 L 157.24 143.00 C 157.97 142.47 158.14 141.45 157.62 140.71 C 157.09 139.98 156.07 139.81 155.33 140.34 L 154.50 140.93 C 153.76 141.46 153.59 142.48 154.12 143.22 C 154.65 143.95 155.67 144.12 156.40 143.59 Z M 157.24 143.00 L 158.10 142.38 C 158.83 141.85 159.00 140.82 158.47 140.09 C 157.94 139.36 156.92 139.19 156.19 139.72 L 155.33 140.34 C 154.59 140.87 154.43 141.89 154.96 142.62 C 155.48 143.36 156.51 143.52 157.24 143.00 Z M 158.10 142.37 L 158.98 141.74 C 159.71 141.21 159.88 140.18 159.35 139.45 C 158.82 138.72 157.79 138.56 157.06 139.09 L 156.18 139.72 C 155.45 140.25 155.29 141.28 155.82 142.01 C 156.35 142.74 157.37 142.90 158.10 142.37 Z M 158.98 141.74 L 159.87 141.09 C 160.60 140.56 160.76 139.54 160.23 138.81 C 159.70 138.07 158.68 137.91 157.95 138.44 L 157.06 139.09 C 156.33 139.62 156.16 140.64 156.70 141.38 C 157.23 142.11 158.25 142.27 158.98 141.74 Z M 159.87 141.09 L 160.43 140.69 C 161.16 140.16 161.32 139.13 160.79 138.40 C 160.26 137.67 159.23 137.51 158.50 138.04 L 157.95 138.44 C 157.21 138.98 157.05 140.00 157.58 140.73 C 158.12 141.46 159.14 141.62 159.87 141.09 Z"
      fill="black"
      fill-rule="nonzero" /><path d="M 167.01 124.07 L 166.58 124.89 C 166.12 125.77 166.47 126.87 167.36 127.33 C 168.24 127.79 169.33 127.44 169.80 126.56 L 170.22 125.74 C 170.68 124.85 170.34 123.76 169.45 123.30 C 168.56 122.84 167.47 123.18 167.01 124.07 Z M 166.51 124.89 L 166.09 125.76 C 165.63 126.68 166.00 127.80 166.93 128.26 C 167.86 128.72 168.98 128.34 169.44 127.42 L 169.86 126.55 C 170.32 125.63 169.95 124.51 169.02 124.05 C 168.09 123.59 166.97 123.97 166.51 124.89 Z M 166.00 125.79 L 165.57 126.74 C 165.13 127.71 165.56 128.86 166.53 129.30 C 167.50 129.74 168.64 129.31 169.08 128.34 L 169.52 127.39 C 169.96 126.42 169.53 125.27 168.56 124.83 C 167.59 124.39 166.45 124.82 166.00 125.79 Z M 165.50 126.79 L 165.12 127.72 C 164.71 128.72 165.19 129.88 166.20 130.29 C 167.20 130.71 168.36 130.22 168.77 129.22 L 169.15 128.29 C 169.57 127.29 169.08 126.13 168.08 125.72 C 167.07 125.30 165.91 125.79 165.50 126.79 Z M 165.09 127.76 L 164.75 128.65 C 164.37 129.68 164.88 130.82 165.91 131.21 C 166.94 131.60 168.09 131.08 168.47 130.05 L 168.81 129.17 C 169.19 128.14 168.68 126.99 167.65 126.61 C 166.62 126.22 165.47 126.74 165.09 127.76 Z M 164.74 128.69 L 164.40 129.63 C 164.04 130.67 164.58 131.81 165.62 132.17 C 166.66 132.54 167.79 131.99 168.16 130.96 L 168.49 130.01 C 168.86 128.97 168.31 127.84 167.27 127.47 C 166.24 127.11 165.10 127.65 164.74 128.69 Z M 164.39 129.67 L 164.06 130.66 C 163.72 131.70 164.28 132.83 165.32 133.17 C 166.37 133.52 167.50 132.96 167.84 131.91 L 168.17 130.92 C 168.52 129.88 167.95 128.75 166.91 128.40 C 165.86 128.06 164.74 128.62 164.39 129.67 Z M 164.05 130.69 L 163.73 131.71 C 163.40 132.76 163.98 133.87 165.03 134.20 C 166.08 134.54 167.20 133.95 167.53 132.90 L 167.85 131.88 C 168.18 130.83 167.60 129.71 166.55 129.38 C 165.50 129.05 164.38 129.64 164.05 130.69 Z M 163.72 131.73 L 163.42 132.75 C 163.10 133.80 163.70 134.91 164.75 135.23 C 165.81 135.55 166.92 134.95 167.24 133.89 L 167.54 132.88 C 167.86 131.82 167.26 130.71 166.20 130.39 C 165.15 130.08 164.04 130.68 163.72 131.73 Z M 163.41 132.77 L 163.12 133.77 C 162.82 134.83 163.43 135.94 164.48 136.24 C 165.54 136.55 166.64 135.94 166.95 134.88 L 167.24 133.87 C 167.55 132.82 166.94 131.71 165.88 131.40 C 164.82 131.10 163.72 131.71 163.41 132.77 Z M 163.12 133.78 L 162.84 134.76 C 162.54 135.82 163.16 136.92 164.22 137.22 C 165.28 137.52 166.38 136.90 166.68 135.85 L 166.95 134.87 C 167.25 133.81 166.64 132.71 165.58 132.41 C 164.52 132.11 163.42 132.73 163.12 133.78 Z M 162.84 134.76 L 162.58 135.69 C 162.28 136.75 162.90 137.85 163.96 138.15 C 165.02 138.44 166.12 137.83 166.41 136.77 L 166.68 135.84 C 166.97 134.78 166.36 133.69 165.30 133.39 C 164.24 133.09 163.14 133.71 162.84 134.76 Z M 162.59 135.68 L 162.32 136.60 C 162.02 137.65 162.63 138.75 163.69 139.06 C 164.75 139.36 165.85 138.75 166.15 137.69 L 166.41 136.78 C 166.71 135.72 166.10 134.62 165.05 134.32 C 163.99 134.01 162.89 134.63 162.59 135.68 Z M 162.33 136.58 L 162.03 137.61 C 161.72 138.66 162.32 139.76 163.37 140.07 C 164.42 140.38 165.53 139.78 165.84 138.73 L 166.14 137.71 C 166.45 136.65 165.85 135.55 164.80 135.24 C 163.75 134.93 162.64 135.53 162.33 136.58 Z M 162.04 137.61 L 161.76 138.54 C 161.45 139.59 162.04 140.69 163.09 141.00 C 164.14 141.31 165.24 140.72 165.56 139.67 L 165.83 138.73 C 166.14 137.69 165.55 136.58 164.50 136.27 C 163.45 135.96 162.35 136.56 162.04 137.61 Z M 161.76 138.56 L 161.50 139.46 C 161.20 140.51 161.81 141.60 162.85 141.90 C 163.90 142.21 165.00 141.60 165.30 140.55 L 165.56 139.65 C 165.86 138.60 165.25 137.51 164.20 137.21 C 163.15 136.91 162.06 137.51 161.76 138.56 Z M 161.49 139.50 L 161.25 140.41 C 160.97 141.46 161.60 142.54 162.65 142.82 C 163.70 143.10 164.78 142.47 165.06 141.42 L 165.30 140.51 C 165.58 139.46 164.96 138.38 163.90 138.10 C 162.85 137.82 161.77 138.45 161.49 139.50 Z M 161.25 140.44 L 161.01 141.39 C 160.75 142.44 161.39 143.51 162.44 143.77 C 163.50 144.03 164.56 143.39 164.83 142.34 L 165.06 141.39 C 165.33 140.34 164.69 139.27 163.63 139.01 C 162.58 138.75 161.51 139.39 161.25 140.44 Z M 161.01 141.40 L 160.77 142.39 C 160.52 143.44 161.16 144.50 162.21 144.76 C 163.27 145.02 164.33 144.37 164.58 143.32 L 164.83 142.33 C 165.08 141.28 164.44 140.22 163.38 139.96 C 162.33 139.70 161.27 140.35 161.01 141.40 Z M 160.78 142.38 L 160.53 143.39 C 160.27 144.44 160.91 145.50 161.96 145.76 C 163.01 146.02 164.07 145.38 164.33 144.33 L 164.58 143.32 C 164.84 142.27 164.20 141.21 163.15 140.95 C 162.10 140.69 161.04 141.33 160.78 142.38 Z M 160.54 143.38 L 160.29 144.33 C 160.03 145.38 160.66 146.44 161.70 146.71 C 162.75 146.97 163.81 146.34 164.08 145.30 L 164.32 144.35 C 164.59 143.30 163.96 142.24 162.91 141.97 C 161.87 141.71 160.80 142.34 160.54 143.38 Z M 160.30 144.33 L 160.05 145.30 C 159.78 146.34 160.41 147.40 161.45 147.67 C 162.49 147.94 163.55 147.31 163.82 146.27 L 164.07 145.30 C 164.34 144.26 163.72 143.20 162.67 142.93 C 161.63 142.66 160.57 143.28 160.30 144.33 Z M 160.06 145.30 L 159.80 146.28 C 159.53 147.32 160.16 148.38 161.19 148.64 C 162.23 148.91 163.29 148.29 163.56 147.25 L 163.81 146.27 C 164.08 145.23 163.46 144.17 162.42 143.90 C 161.38 143.64 160.32 144.26 160.06 145.30 Z M 159.81 146.29 L 159.55 147.27 C 159.29 148.30 159.91 149.36 160.95 149.62 C 161.99 149.89 163.04 149.26 163.31 148.23 L 163.56 147.24 C 163.82 146.21 163.20 145.15 162.16 144.89 C 161.12 144.62 160.07 145.25 159.81 146.29 Z M 159.56 147.28 L 159.31 148.25 C 159.05 149.28 159.68 150.33 160.72 150.59 C 161.75 150.85 162.80 150.22 163.06 149.19 L 163.30 148.22 C 163.56 147.18 162.93 146.13 161.90 145.87 C 160.87 145.61 159.82 146.24 159.56 147.28 Z M 159.32 148.25 L 159.08 149.22 C 158.82 150.25 159.45 151.30 160.48 151.55 C 161.51 151.81 162.56 151.18 162.81 150.15 L 163.05 149.18 C 163.31 148.15 162.68 147.10 161.65 146.85 C 160.62 146.59 159.57 147.22 159.32 148.25 Z M 159.08 149.22 L 158.84 150.19 C 158.59 151.22 159.21 152.26 160.24 152.52 C 161.27 152.77 162.31 152.14 162.57 151.12 L 162.81 150.15 C 163.06 149.12 162.44 148.08 161.41 147.82 C 160.38 147.57 159.34 148.19 159.08 149.22 Z M 158.85 150.18 L 158.61 151.15 C 158.35 152.18 158.97 153.22 159.99 153.48 C 161.02 153.74 162.06 153.11 162.32 152.09 L 162.56 151.12 C 162.82 150.10 162.20 149.06 161.17 148.80 C 160.15 148.54 159.11 149.16 158.85 150.18 Z M 158.61 151.15 L 158.37 152.10 C 158.11 153.12 158.72 154.16 159.74 154.42 C 160.76 154.68 161.80 154.07 162.06 153.05 L 162.31 152.10 C 162.57 151.08 161.96 150.04 160.94 149.77 C 159.92 149.51 158.88 150.13 158.61 151.15 Z M 158.38 152.09 L 158.13 153.06 C 157.86 154.07 158.47 155.11 159.49 155.38 C 160.50 155.64 161.54 155.03 161.80 154.02 L 162.06 153.05 C 162.32 152.04 161.71 151.00 160.70 150.73 C 159.68 150.47 158.64 151.08 158.38 152.09 Z M 158.13 153.06 L 157.88 154.03 C 157.61 155.04 158.22 156.08 159.23 156.34 C 160.24 156.61 161.28 156.00 161.54 154.99 L 161.80 154.01 C 162.06 153.00 161.46 151.97 160.44 151.70 C 159.43 151.44 158.40 152.04 158.13 153.06 Z M 157.88 154.04 L 157.63 155.02 C 157.36 156.03 157.97 157.06 158.98 157.32 C 159.99 157.59 161.02 156.98 161.28 155.97 L 161.54 154.98 C 161.80 153.97 161.19 152.94 160.18 152.68 C 159.18 152.42 158.14 153.03 157.88 154.04 Z M 157.63 155.03 L 157.39 155.98 C 157.13 156.99 157.74 158.01 158.74 158.27 C 159.75 158.53 160.78 157.92 161.03 156.91 L 161.28 155.96 C 161.54 154.96 160.93 153.93 159.92 153.67 C 158.91 153.42 157.89 154.02 157.63 155.03 Z M 157.39 155.99 L 157.15 156.96 C 156.90 157.96 157.51 158.98 158.51 159.23 C 159.52 159.48 160.54 158.87 160.79 157.87 L 161.03 156.90 C 161.28 155.90 160.67 154.88 159.67 154.63 C 158.66 154.38 157.64 154.99 157.39 155.99 Z M 157.15 156.97 L 156.92 157.95 C 156.67 158.95 157.28 159.96 158.29 160.20 C 159.29 160.45 160.30 159.84 160.54 158.83 L 160.78 157.86 C 161.03 156.86 160.41 155.84 159.41 155.60 C 158.41 155.35 157.40 155.97 157.15 156.97 Z M 156.92 157.96 L 156.69 158.95 C 156.45 159.95 157.07 160.95 158.07 161.19 C 159.07 161.42 160.07 160.80 160.31 159.80 L 160.54 158.82 C 160.78 157.82 160.16 156.82 159.16 156.58 C 158.16 156.34 157.16 156.96 156.92 157.96 Z M 156.69 158.96 L 156.47 159.94 C 156.24 160.93 156.86 161.93 157.86 162.16 C 158.86 162.39 159.85 161.76 160.08 160.76 L 160.30 159.79 C 160.53 158.79 159.91 157.80 158.91 157.57 C 157.91 157.34 156.92 157.96 156.69 158.96 Z M 156.47 159.95 L 156.25 160.92 C 156.03 161.92 156.66 162.90 157.65 163.12 C 158.65 163.35 159.64 162.72 159.86 161.73 L 160.08 160.75 C 160.30 159.76 159.67 158.77 158.68 158.55 C 157.68 158.33 156.69 158.95 156.47 159.95 Z M 156.26 160.93 L 156.04 161.90 C 155.83 162.90 156.45 163.88 157.44 164.10 C 158.44 164.31 159.42 163.69 159.64 162.70 L 159.85 161.72 C 160.07 160.73 159.44 159.75 158.45 159.53 C 157.46 159.31 156.48 159.93 156.26 160.93 Z M 156.05 161.90 L 155.84 162.88 C 155.62 163.87 156.24 164.85 157.23 165.07 C 158.22 165.29 159.19 164.66 159.41 163.68 L 159.63 162.70 C 159.85 161.71 159.22 160.73 158.24 160.51 C 157.25 160.29 156.27 160.92 156.05 161.90 Z M 155.84 162.88 L 155.62 163.85 C 155.40 164.84 156.02 165.81 157.00 166.03 C 157.98 166.26 158.96 165.64 159.18 164.66 L 159.40 163.68 C 159.62 162.70 159.01 161.72 158.02 161.50 C 157.04 161.28 156.07 161.90 155.84 162.88 Z M 155.63 163.85 L 155.41 164.81 C 155.19 165.78 155.79 166.76 156.77 166.99 C 157.75 167.21 158.73 166.60 158.95 165.63 L 159.17 164.66 C 159.40 163.69 158.79 162.71 157.81 162.49 C 156.83 162.26 155.86 162.87 155.63 163.85 Z M 155.42 164.80 L 155.19 165.77 C 154.96 166.74 155.57 167.71 156.54 167.94 C 157.51 168.17 158.49 167.57 158.72 166.60 L 158.94 165.63 C 159.17 164.66 158.57 163.68 157.59 163.45 C 156.62 163.23 155.65 163.83 155.42 164.80 Z M 155.20 165.77 L 154.97 166.74 C 154.74 167.71 155.34 168.68 156.31 168.91 C 157.28 169.14 158.25 168.54 158.48 167.57 L 158.71 166.60 C 158.94 165.63 158.34 164.66 157.37 164.43 C 156.40 164.20 155.43 164.80 155.20 165.77 Z M 154.98 166.75 L 154.75 167.73 C 154.52 168.70 155.12 169.67 156.08 169.89 C 157.05 170.12 158.01 169.52 158.24 168.55 L 158.47 167.57 C 158.70 166.60 158.10 165.64 157.13 165.41 C 156.17 165.18 155.20 165.78 154.98 166.75 Z M 154.75 167.74 L 154.52 168.74 C 154.30 169.70 154.90 170.66 155.86 170.88 C 156.82 171.10 157.78 170.50 158.00 169.54 L 158.23 168.55 C 158.46 167.59 157.86 166.63 156.89 166.40 C 155.93 166.18 154.97 166.78 154.75 167.74 Z M 154.53 168.74 L 154.30 169.74 C 154.09 170.70 154.68 171.65 155.64 171.87 C 156.60 172.09 157.55 171.49 157.77 170.53 L 158.00 169.53 C 158.21 168.58 157.61 167.62 156.66 167.40 C 155.70 167.19 154.75 167.79 154.53 168.74 Z M 154.31 169.75 L 154.09 170.74 C 153.87 171.69 154.47 172.64 155.43 172.85 C 156.38 173.06 157.33 172.47 157.54 171.51 L 157.76 170.52 C 157.98 169.57 157.38 168.62 156.42 168.41 C 155.47 168.20 154.52 168.79 154.31 169.75 Z M 154.10 170.74 L 153.88 171.71 C 153.67 172.66 154.27 173.60 155.22 173.81 C 156.17 174.02 157.11 173.42 157.32 172.48 L 157.53 171.51 C 157.74 170.56 157.14 169.62 156.19 169.41 C 155.25 169.20 154.31 169.80 154.10 170.74 Z M 153.89 171.72 L 153.68 172.66 C 153.48 173.60 154.07 174.54 155.02 174.74 C 155.96 174.95 156.90 174.35 157.10 173.41 L 157.31 172.47 C 157.52 171.53 156.92 170.59 155.97 170.39 C 155.03 170.18 154.10 170.78 153.89 171.72 Z M 153.69 172.66 L 153.46 173.71 C 153.26 174.65 153.85 175.58 154.79 175.78 C 155.73 175.99 156.66 175.39 156.87 174.45 L 157.10 173.40 C 157.30 172.46 156.70 171.54 155.76 171.33 C 154.82 171.13 153.90 171.72 153.69 172.66 Z M 153.47 173.71 L 153.26 174.70 C 153.05 175.64 153.65 176.56 154.58 176.76 C 155.52 176.97 156.44 176.37 156.65 175.44 L 156.86 174.45 C 157.06 173.51 156.47 172.59 155.53 172.38 C 154.60 172.18 153.67 172.77 153.47 173.71 Z M 153.26 174.70 L 153.06 175.65 C 152.85 176.58 153.44 177.50 154.38 177.70 C 155.31 177.91 156.23 177.32 156.43 176.38 L 156.64 175.44 C 156.84 174.50 156.25 173.58 155.32 173.38 C 154.39 173.18 153.47 173.77 153.26 174.70 Z M 153.06 175.65 L 152.86 176.57 C 152.65 177.50 153.24 178.42 154.17 178.62 C 155.10 178.83 156.01 178.24 156.22 177.31 L 156.42 176.39 C 156.63 175.46 156.04 174.54 155.11 174.34 C 154.19 174.13 153.27 174.72 153.06 175.65 Z M 152.87 176.57 L 152.64 177.58 C 152.43 178.50 153.01 179.42 153.94 179.62 C 154.86 179.83 155.77 179.25 155.98 178.33 L 156.21 177.32 C 156.42 176.40 155.84 175.48 154.92 175.27 C 153.99 175.06 153.08 175.64 152.87 176.57 Z M 152.65 177.57 L 152.42 178.55 C 152.21 179.47 152.78 180.38 153.70 180.60 C 154.62 180.81 155.53 180.24 155.75 179.32 L 155.97 178.34 C 156.19 177.42 155.61 176.50 154.70 176.29 C 153.78 176.08 152.86 176.65 152.65 177.57 Z M 152.43 178.54 L 152.21 179.49 C 151.99 180.40 152.55 181.32 153.46 181.53 C 154.37 181.75 155.29 181.19 155.51 180.28 L 155.74 179.33 C 155.95 178.42 155.39 177.50 154.48 177.28 C 153.57 177.07 152.65 177.63 152.43 178.54 Z M 152.22 179.47 L 151.99 180.39 C 151.76 181.30 152.31 182.22 153.21 182.44 C 154.12 182.67 155.04 182.12 155.27 181.22 L 155.50 180.29 C 155.72 179.39 155.17 178.47 154.27 178.24 C 153.36 178.02 152.44 178.57 152.22 179.47 Z M 151.99 180.39 L 151.76 181.31 C 151.53 182.21 152.07 183.13 152.97 183.36 C 153.88 183.59 154.79 183.04 155.02 182.14 L 155.26 181.22 C 155.49 180.32 154.94 179.40 154.04 179.17 C 153.14 178.94 152.22 179.49 151.99 180.39 Z M 151.76 181.32 L 151.52 182.29 C 151.30 183.19 151.85 184.10 152.75 184.32 C 153.65 184.55 154.56 184.00 154.78 183.10 L 155.02 182.13 C 155.24 181.23 154.69 180.32 153.79 180.09 C 152.89 179.87 151.98 180.42 151.76 181.32 Z M 151.52 182.32 L 151.28 183.35 C 151.07 184.25 151.63 185.15 152.53 185.36 C 153.44 185.57 154.33 185.01 154.54 184.10 L 154.78 183.07 C 154.99 182.17 154.43 181.27 153.53 181.06 C 152.63 180.86 151.73 181.42 151.52 182.32 Z M 151.28 183.38 L 151.08 184.29 C 150.89 185.20 151.47 186.08 152.37 186.28 C 153.27 186.47 154.16 185.89 154.35 184.99 L 154.54 184.08 C 154.74 183.17 154.16 182.29 153.26 182.09 C 152.36 181.90 151.47 182.48 151.28 183.38 Z M 151.08 184.32 L 150.89 185.30 C 150.71 186.20 151.30 187.08 152.20 187.26 C 153.10 187.43 153.98 186.85 154.16 185.94 L 154.35 184.97 C 154.53 184.06 153.94 183.19 153.04 183.01 C 152.14 182.83 151.26 183.42 151.08 184.32 Z M 150.89 185.32 L 150.70 186.34 C 150.54 187.24 151.14 188.11 152.04 188.27 C 152.95 188.44 153.81 187.84 153.98 186.93 L 154.16 185.92 C 154.32 185.01 153.72 184.15 152.82 183.98 C 151.92 183.82 151.05 184.42 150.89 185.32 Z M 150.70 186.37 L 150.53 187.40 C 150.39 188.30 151.00 189.16 151.91 189.30 C 152.81 189.45 153.66 188.84 153.81 187.93 L 153.98 186.90 C 154.12 186.00 153.51 185.14 152.61 185.00 C 151.70 184.85 150.85 185.47 150.70 186.37 Z M 150.53 187.43 L 150.39 188.45 C 150.26 189.36 150.89 190.20 151.80 190.33 C 152.70 190.45 153.54 189.82 153.67 188.92 L 153.81 187.90 C 153.94 186.99 153.31 186.15 152.40 186.03 C 151.50 185.90 150.66 186.53 150.53 187.43 Z M 150.39 188.49 L 150.27 189.49 C 150.16 190.40 150.80 191.22 151.71 191.33 C 152.62 191.44 153.44 190.79 153.55 189.89 L 153.67 188.88 C 153.78 187.98 153.13 187.15 152.23 187.05 C 151.32 186.94 150.50 187.58 150.39 188.49 Z M 150.27 189.52 L 150.17 190.51 C 150.07 191.41 150.73 192.22 151.63 192.32 C 152.54 192.41 153.35 191.76 153.44 190.85 L 153.55 189.86 C 153.64 188.96 152.99 188.15 152.08 188.05 C 151.18 187.95 150.37 188.61 150.27 189.52 Z M 150.17 190.52 L 150.07 191.51 C 149.99 192.41 150.65 193.21 151.55 193.30 C 152.46 193.38 153.26 192.72 153.34 191.82 L 153.44 190.84 C 153.53 189.93 152.86 189.13 151.96 189.04 C 151.06 188.96 150.25 189.62 150.17 190.52 Z M 150.08 191.51 L 150.01 192.28 C 149.92 193.18 150.59 193.98 151.49 194.06 C 152.39 194.14 153.19 193.48 153.27 192.58 L 153.34 191.81 C 153.42 190.91 152.76 190.11 151.86 190.03 C 150.96 189.95 150.16 190.61 150.08 191.51 Z"
      fill="black"
      fill-rule="nonzero" /><path d="M 165.78 164.22 L 166.63 164.77 C 167.47 165.31 168.58 165.07 169.12 164.24 C 169.66 163.40 169.42 162.29 168.58 161.75 L 167.73 161.20 C 166.90 160.66 165.79 160.90 165.25 161.74 C 164.71 162.57 164.95 163.68 165.78 164.22 Z M 166.58 164.77 L 167.42 165.34 C 168.25 165.90 169.39 165.68 169.95 164.85 C 170.52 164.02 170.30 162.88 169.47 162.32 L 168.63 161.75 C 167.80 161.18 166.66 161.40 166.10 162.24 C 165.53 163.07 165.75 164.20 166.58 164.77 Z M 167.33 165.31 L 168.13 165.90 C 168.94 166.52 170.11 166.35 170.72 165.53 C 171.33 164.71 171.17 163.55 170.35 162.94 L 169.55 162.34 C 168.73 161.73 167.57 161.90 166.96 162.71 C 166.34 163.53 166.51 164.69 167.33 165.31 Z M 168.01 165.84 L 168.74 166.48 C 169.52 167.16 170.71 167.07 171.39 166.29 C 172.07 165.51 171.99 164.32 171.20 163.64 L 170.47 163.00 C 169.68 162.32 168.50 162.41 167.82 163.19 C 167.14 163.97 167.22 165.16 168.01 165.84 Z M 168.61 166.39 L 169.23 167.02 C 169.96 167.78 171.17 167.79 171.92 167.06 C 172.67 166.32 172.69 165.12 171.95 164.36 L 171.33 163.73 C 170.60 162.98 169.39 162.96 168.64 163.69 C 167.89 164.43 167.87 165.63 168.61 166.39 Z M 169.12 166.94 L 169.73 167.65 C 170.42 168.46 171.63 168.56 172.44 167.87 C 173.25 167.18 173.35 165.96 172.66 165.15 L 172.06 164.44 C 171.37 163.64 170.15 163.54 169.34 164.23 C 168.53 164.92 168.43 166.13 169.12 166.94 Z M 169.66 167.60 L 170.28 168.40 C 170.94 169.25 172.16 169.40 173.01 168.74 C 173.86 168.08 174.01 166.85 173.35 166.00 L 172.73 165.20 C 172.07 164.36 170.84 164.20 170.00 164.86 C 169.15 165.53 169.00 166.75 169.66 167.60 Z M 170.24 168.38 L 170.92 169.29 C 171.57 170.16 172.80 170.34 173.67 169.69 C 174.54 169.04 174.73 167.81 174.08 166.94 L 173.40 166.02 C 172.75 165.15 171.51 164.97 170.64 165.62 C 169.77 166.27 169.59 167.51 170.24 168.38 Z M 170.90 169.29 L 171.46 170.06 C 172.12 170.95 173.36 171.13 174.24 170.48 C 175.13 169.83 175.31 168.58 174.66 167.70 L 174.09 166.93 C 173.44 166.05 172.20 165.86 171.32 166.51 C 170.43 167.17 170.25 168.41 170.90 169.29 Z M 171.46 170.07 L 172.02 170.83 C 172.68 171.72 173.93 171.91 174.82 171.25 C 175.70 170.59 175.89 169.34 175.23 168.46 L 174.67 167.69 C 174.01 166.81 172.76 166.62 171.87 167.28 C 170.99 167.93 170.80 169.18 171.46 170.07 Z M 172.02 170.84 L 172.62 171.65 C 173.28 172.53 174.54 172.72 175.42 172.06 C 176.31 171.39 176.50 170.14 175.83 169.25 L 175.24 168.45 C 174.58 167.56 173.32 167.37 172.43 168.04 C 171.54 168.70 171.36 169.96 172.02 170.84 Z M 172.61 171.66 L 173.23 172.48 C 173.90 173.37 175.17 173.55 176.06 172.88 C 176.95 172.21 177.13 170.95 176.46 170.06 L 175.84 169.23 C 175.17 168.34 173.90 168.16 173.01 168.83 C 172.12 169.50 171.94 170.77 172.61 171.66 Z M 173.23 172.50 L 173.87 173.33 C 174.55 174.22 175.82 174.39 176.71 173.72 C 177.60 173.04 177.77 171.77 177.09 170.88 L 176.46 170.04 C 175.78 169.15 174.51 168.98 173.62 169.66 C 172.73 170.34 172.55 171.61 173.23 172.50 Z M 173.87 173.35 L 174.51 174.18 C 175.20 175.07 176.48 175.23 177.37 174.54 C 178.26 173.85 178.42 172.57 177.73 171.68 L 177.09 170.86 C 176.40 169.97 175.12 169.80 174.23 170.49 C 173.34 171.18 173.18 172.46 173.87 173.35 Z M 174.52 174.20 L 175.17 175.02 C 175.87 175.91 177.15 176.06 178.04 175.36 C 178.92 174.66 179.07 173.37 178.37 172.49 L 177.72 171.66 C 177.02 170.78 175.74 170.63 174.85 171.33 C 173.97 172.03 173.82 173.31 174.52 174.20 Z M 175.18 175.04 L 175.83 175.85 C 176.55 176.73 177.83 176.87 178.71 176.15 C 179.59 175.44 179.73 174.15 179.02 173.28 L 178.36 172.47 C 177.65 171.59 176.36 171.45 175.48 172.16 C 174.60 172.87 174.47 174.16 175.18 175.04 Z M 175.85 175.87 L 176.50 176.65 C 177.22 177.52 178.51 177.65 179.38 176.92 C 180.25 176.20 180.37 174.91 179.65 174.04 L 179.00 173.26 C 178.28 172.39 176.99 172.26 176.12 172.98 C 175.25 173.71 175.13 175.00 175.85 175.87 Z M 176.51 176.67 L 177.15 177.43 C 177.88 178.29 179.17 178.40 180.04 177.67 C 180.90 176.94 181.01 175.65 180.28 174.78 L 179.64 174.02 C 178.91 173.16 177.62 173.05 176.75 173.78 C 175.89 174.51 175.78 175.80 176.51 176.67 Z M 177.16 177.45 L 177.80 178.18 C 178.54 179.04 179.83 179.14 180.69 178.40 C 181.55 177.66 181.65 176.37 180.91 175.51 L 180.27 174.77 C 179.53 173.91 178.24 173.81 177.38 174.55 C 176.52 175.29 176.42 176.59 177.16 177.45 Z M 177.81 178.20 L 178.44 178.92 C 179.19 179.77 180.49 179.86 181.34 179.11 C 182.19 178.36 182.28 177.07 181.53 176.21 L 180.90 175.49 C 180.15 174.64 178.85 174.55 178.00 175.30 C 177.15 176.05 177.06 177.35 177.81 178.20 Z M 178.45 178.93 L 179.12 179.68 C 179.87 180.52 181.17 180.60 182.01 179.84 C 182.86 179.09 182.94 177.79 182.18 176.94 L 181.52 176.20 C 180.76 175.35 179.47 175.28 178.62 176.03 C 177.77 176.79 177.70 178.09 178.45 178.93 Z M 179.13 179.69 L 179.81 180.44 C 180.57 181.28 181.87 181.35 182.71 180.59 C 183.55 179.82 183.62 178.53 182.85 177.69 L 182.17 176.93 C 181.41 176.09 180.11 176.03 179.27 176.79 C 178.43 177.55 178.37 178.85 179.13 179.69 Z M 179.83 180.46 L 180.51 181.20 C 181.28 182.03 182.58 182.08 183.41 181.31 C 184.24 180.54 184.29 179.24 183.52 178.41 L 182.84 177.67 C 182.07 176.84 180.77 176.79 179.94 177.56 C 179.11 178.33 179.06 179.63 179.83 180.46 Z M 180.52 181.21 L 181.21 181.93 C 181.98 182.76 183.28 182.80 184.11 182.02 C 184.93 181.24 184.97 179.94 184.19 179.12 L 183.51 178.40 C 182.73 177.57 181.43 177.53 180.61 178.31 C 179.78 179.09 179.75 180.39 180.52 181.21 Z M 181.22 181.95 L 181.91 182.66 C 182.69 183.47 183.99 183.50 184.81 182.71 C 185.62 181.92 185.64 180.63 184.86 179.81 L 184.17 179.10 C 183.39 178.29 182.09 178.27 181.27 179.05 C 180.46 179.84 180.44 181.14 181.22 181.95 Z M 181.93 182.68 L 182.62 183.37 C 183.41 184.18 184.71 184.18 185.51 183.39 C 186.32 182.59 186.32 181.30 185.53 180.49 L 184.84 179.79 C 184.04 178.99 182.75 178.98 181.94 179.78 C 181.14 180.57 181.13 181.87 181.93 182.68 Z M 182.64 183.39 L 183.36 184.11 C 184.17 184.90 185.46 184.89 186.25 184.09 C 187.05 183.28 187.04 181.99 186.24 181.19 L 185.51 180.48 C 184.70 179.68 183.41 179.69 182.62 180.50 C 181.82 181.30 181.83 182.59 182.64 183.39 Z M 183.38 184.11 L 184.11 184.82 C 184.92 185.60 186.21 185.58 186.99 184.78 C 187.77 183.97 187.75 182.68 186.95 181.89 L 186.22 181.19 C 185.41 180.40 184.12 180.42 183.34 181.23 C 182.55 182.04 182.57 183.33 183.38 184.11 Z M 184.12 184.82 L 184.84 185.52 C 185.65 186.29 186.94 186.27 187.72 185.46 C 188.49 184.65 188.47 183.36 187.66 182.58 L 186.94 181.89 C 186.13 181.11 184.84 181.14 184.06 181.95 C 183.28 182.76 183.31 184.04 184.12 184.82 Z M 184.84 185.51 L 185.56 186.20 C 186.36 186.97 187.65 186.95 188.42 186.14 C 189.20 185.33 189.18 184.05 188.37 183.27 L 187.66 182.59 C 186.85 181.81 185.56 181.84 184.79 182.64 C 184.01 183.45 184.04 184.74 184.84 185.51 Z M 185.55 186.19 L 186.25 186.87 C 187.05 187.64 188.33 187.63 189.11 186.82 C 189.89 186.02 189.87 184.74 189.07 183.96 L 188.37 183.29 C 187.57 182.51 186.29 182.53 185.51 183.33 C 184.73 184.13 184.75 185.41 185.55 186.19 Z M 186.25 186.85 L 186.95 187.54 C 187.74 188.33 189.02 188.32 189.80 187.53 C 190.58 186.74 190.57 185.46 189.78 184.68 L 189.08 183.98 C 188.29 183.20 187.01 183.21 186.23 184.00 C 185.45 184.79 185.45 186.06 186.25 186.85 Z M 186.94 187.52 L 187.63 188.22 C 188.41 189.01 189.68 189.02 190.46 188.24 C 191.25 187.47 191.26 186.20 190.49 185.41 L 189.79 184.71 C 189.02 183.92 187.75 183.91 186.96 184.69 C 186.17 185.46 186.16 186.73 186.94 187.52 Z M 187.62 188.19 L 188.31 188.91 C 189.07 189.70 190.33 189.73 191.12 188.97 C 191.91 188.21 191.94 186.95 191.18 186.15 L 190.50 185.44 C 189.74 184.65 188.48 184.62 187.68 185.38 C 186.89 186.14 186.86 187.40 187.62 188.19 Z M 188.29 188.88 L 188.97 189.61 C 189.72 190.41 190.97 190.46 191.77 189.71 C 192.57 188.97 192.62 187.72 191.87 186.92 L 191.19 186.18 C 190.45 185.38 189.20 185.34 188.40 186.08 C 187.60 186.82 187.55 188.08 188.29 188.88 Z M 188.96 189.58 L 189.65 190.34 C 190.37 191.15 191.61 191.21 192.42 190.49 C 193.23 189.76 193.29 188.52 192.57 187.71 L 191.88 186.95 C 191.16 186.14 189.92 186.08 189.11 186.80 C 188.30 187.53 188.24 188.77 188.96 189.58 Z M 189.64 190.30 L 190.32 191.08 C 191.02 191.90 192.26 191.98 193.07 191.27 C 193.88 190.57 193.96 189.34 193.26 188.52 L 192.58 187.74 C 191.87 186.93 190.64 186.85 189.83 187.55 C 189.01 188.26 188.93 189.49 189.64 190.30 Z M 190.31 191.05 L 190.98 191.85 C 191.67 192.66 192.89 192.76 193.70 192.08 C 194.52 191.39 194.62 190.17 193.94 189.36 L 193.26 188.56 C 192.58 187.75 191.36 187.64 190.54 188.33 C 189.73 189.01 189.62 190.23 190.31 191.05 Z M 190.98 191.80 L 191.63 192.61 C 192.29 193.42 193.49 193.55 194.31 192.89 C 195.13 192.22 195.26 191.02 194.59 190.20 L 193.94 189.40 C 193.28 188.58 192.08 188.46 191.26 189.12 C 190.44 189.78 190.31 190.99 190.98 191.80 Z M 191.62 192.56 L 192.23 193.34 C 192.86 194.17 194.05 194.32 194.87 193.68 C 195.70 193.04 195.85 191.86 195.21 191.03 L 194.60 190.25 C 193.96 189.42 192.78 189.27 191.95 189.91 C 191.13 190.55 190.98 191.74 191.62 192.56 Z M 192.21 193.29 L 192.76 194.04 C 193.37 194.87 194.53 195.05 195.37 194.45 C 196.20 193.84 196.38 192.67 195.77 191.84 L 195.22 191.09 C 194.62 190.26 193.45 190.07 192.62 190.68 C 191.78 191.29 191.60 192.46 192.21 193.29 Z M 192.74 193.96 L 193.34 194.86 C 193.91 195.70 195.04 195.93 195.89 195.37 C 196.73 194.81 196.95 193.67 196.39 192.83 L 195.79 191.92 C 195.23 191.08 194.09 190.85 193.25 191.42 C 192.41 191.98 192.18 193.11 192.74 193.96 Z M 193.34 194.75 L 193.86 195.64 C 194.37 196.49 195.46 196.76 196.30 196.26 C 197.15 195.76 197.43 194.67 196.93 193.82 L 196.40 192.93 C 195.90 192.09 194.81 191.81 193.96 192.31 C 193.11 192.81 192.84 193.91 193.34 194.75 Z M 193.87 195.54 L 194.32 196.37 C 194.77 197.21 195.81 197.53 196.65 197.08 C 197.49 196.63 197.81 195.59 197.36 194.75 L 196.92 193.92 C 196.47 193.08 195.42 192.76 194.58 193.21 C 193.74 193.66 193.42 194.70 193.87 195.54 Z M 194.34 196.31 L 194.71 197.03 C 195.12 197.85 196.13 198.19 196.95 197.77 C 197.78 197.35 198.11 196.35 197.69 195.52 L 197.33 194.81 C 196.92 193.98 195.91 193.65 195.09 194.07 C 194.26 194.48 193.93 195.49 194.34 196.31 Z"
      fill="black"
      fill-rule="nonzero" /></svg>