<svg xmlns="http://www.w3.org/2000/svg" width="300" height="300" viewBox="0 0 300 300">
<path d="M 123.92 101.58 L 124.00 102.57 C 124.09 103.59 124.99 104.36 126.02 104.27 C 127.04 104.18 127.81 103.28 127.72 102.26 L 127.64 101.27 C 127.55 100.24 126.65 99.48 125.62 99.56 C 124.60 99.65 123.84 100.55 123.92 101.58 Z M 124.00 102.53 L 124.07 103.53 C 124.13 104.56 125.02 105.34 126.05 105.27 C 127.08 105.20 127.85 104.32 127.79 103.29 L 127.72 102.29 C 127.66 101.26 126.77 100.49 125.74 100.55 C 124.71 100.62 123.93 101.51 124.00 102.53 Z M 124.06 103.46 L 124.09 104.47 C 124.12 105.50 124.98 106.31 126.01 106.28 C 127.04 106.25 127.85 105.39 127.82 104.36 L 127.79 103.36 C 127.76 102.33 126.90 101.52 125.87 101.54 C 124.84 101.57 124.03 102.43 124.06 103.46 Z M 124.09 104.38 L 124.07 105.29 C 124.06 106.32 124.88 107.17 125.91 107.19 C 126.94 107.21 127.79 106.39 127.81 105.36 L 127.82 104.45 C 127.84 103.42 127.02 102.57 125.99 102.55 C 124.96 102.53 124.11 103.35 124.09 104.38 Z M 124.07 105.24 L 124.03 106.20 C 123.99 107.23 124.78 108.10 125.82 108.14 C 126.85 108.19 127.72 107.39 127.76 106.36 L 127.81 105.41 C 127.85 104.38 127.05 103.51 126.02 103.46 C 124.99 103.41 124.12 104.21 124.07 105.24 Z M 124.03 106.19 L 123.98 107.24 C 123.93 108.27 124.73 109.14 125.76 109.19 C 126.79 109.24 127.67 108.44 127.71 107.41 L 127.76 106.37 C 127.81 105.34 127.02 104.46 125.99 104.41 C 124.95 104.36 124.08 105.16 124.03 106.19 Z M 123.98 107.26 L 123.94 108.34 C 123.91 109.37 124.72 110.24 125.75 110.27 C 126.78 110.30 127.65 109.50 127.68 108.46 L 127.72 107.39 C 127.75 106.36 126.94 105.49 125.91 105.46 C 124.88 105.42 124.01 106.23 123.98 107.26 Z M 123.94 108.39 L 123.93 109.41 C 123.93 110.44 124.76 111.29 125.79 111.29 C 126.82 111.30 127.67 110.47 127.67 109.44 L 127.68 108.42 C 127.69 107.38 126.86 106.54 125.83 106.53 C 124.79 106.52 123.95 107.35 123.94 108.39 Z M 123.93 109.49 L 123.97 110.53 C 124.00 111.56 124.87 112.37 125.90 112.33 C 126.93 112.30 127.74 111.43 127.71 110.40 L 127.67 109.36 C 127.64 108.33 126.77 107.52 125.74 107.55 C 124.71 107.59 123.90 108.45 123.93 109.49 Z M 123.98 110.65 L 124.08 111.65 C 124.18 112.68 125.09 113.43 126.12 113.33 C 127.15 113.23 127.90 112.32 127.80 111.29 L 127.70 110.28 C 127.60 109.25 126.68 108.50 125.66 108.60 C 124.63 108.70 123.88 109.62 123.98 110.65 Z M 124.10 111.84 L 124.29 112.76 C 124.49 113.77 125.48 114.43 126.49 114.22 C 127.51 114.02 128.16 113.03 127.96 112.02 L 127.77 111.10 C 127.57 110.09 126.58 109.43 125.57 109.64 C 124.55 109.84 123.90 110.83 124.10 111.84 Z M 124.39 113.09 L 124.79 114.08 C 125.17 115.04 126.26 115.50 127.22 115.12 C 128.18 114.73 128.64 113.64 128.26 112.68 L 127.86 111.69 C 127.47 110.73 126.38 110.27 125.42 110.66 C 124.47 111.04 124.00 112.13 124.39 113.09 Z M 125.03 114.50 L 125.60 115.27 C 126.22 116.10 127.39 116.27 128.21 115.65 C 129.04 115.04 129.21 113.87 128.60 113.04 L 128.02 112.27 C 127.40 111.44 126.23 111.27 125.41 111.88 C 124.58 112.50 124.41 113.67 125.03 114.50 Z M 125.92 115.60 L 126.67 116.21 C 127.47 116.85 128.64 116.73 129.29 115.93 C 129.94 115.13 129.82 113.95 129.02 113.31 L 128.27 112.70 C 127.47 112.06 126.30 112.18 125.65 112.98 C 125.00 113.78 125.12 114.96 125.92 115.60 Z M 126.96 116.40 L 127.75 116.82 C 128.66 117.31 129.79 116.97 130.28 116.07 C 130.76 115.16 130.43 114.03 129.52 113.54 L 128.73 113.12 C 127.82 112.63 126.69 112.97 126.20 113.87 C 125.71 114.78 126.05 115.91 126.96 116.40 Z M 127.98 116.93 L 128.86 117.26 C 129.82 117.62 130.89 117.13 131.25 116.16 C 131.62 115.20 131.13 114.13 130.16 113.77 L 129.29 113.44 C 128.33 113.08 127.25 113.57 126.89 114.53 C 126.53 115.49 127.02 116.57 127.98 116.93 Z M 129.06 117.32 L 130.05 117.56 C 131.04 117.82 132.05 117.21 132.30 116.21 C 132.55 115.22 131.95 114.21 130.95 113.96 L 129.96 113.71 C 128.97 113.46 127.96 114.06 127.71 115.06 C 127.46 116.05 128.06 117.06 129.06 117.32 Z M 130.22 117.60 L 131.32 117.77 C 132.33 117.92 133.28 117.23 133.44 116.21 C 133.60 115.20 132.90 114.25 131.89 114.09 L 130.78 113.92 C 129.77 113.77 128.82 114.46 128.66 115.48 C 128.51 116.49 129.20 117.44 130.22 117.60 Z M 131.45 117.78 L 132.43 117.86 C 133.46 117.94 134.35 117.18 134.44 116.16 C 134.52 115.14 133.76 114.24 132.74 114.16 L 131.75 114.08 C 130.73 114.00 129.83 114.76 129.75 115.78 C 129.67 116.80 130.43 117.70 131.45 117.78 Z M 132.54 117.86 L 133.53 117.89 C 134.56 117.92 135.41 117.11 135.44 116.08 C 135.46 115.06 134.65 114.21 133.63 114.18 L 132.63 114.16 C 131.61 114.13 130.76 114.94 130.73 115.96 C 130.70 116.99 131.51 117.84 132.54 117.86 Z M 133.63 117.89 L 134.65 117.86 C 135.67 117.83 136.48 116.98 136.45 115.96 C 136.42 114.94 135.57 114.13 134.55 114.16 L 133.53 114.18 C 132.51 114.21 131.70 115.06 131.73 116.09 C 131.76 117.11 132.61 117.92 133.63 117.89 Z M 134.75 117.85 L 135.77 117.77 C 136.79 117.69 137.55 116.80 137.46 115.78 C 137.38 114.76 136.49 114.00 135.47 114.08 L 134.45 114.16 C 133.43 114.25 132.67 115.14 132.76 116.16 C 132.84 117.18 133.73 117.94 134.75 117.85 Z M 135.88 117.76 L 136.87 117.62 C 137.88 117.47 138.58 116.54 138.44 115.53 C 138.30 114.52 137.36 113.81 136.35 113.96 L 135.36 114.10 C 134.35 114.24 133.65 115.17 133.79 116.18 C 133.93 117.19 134.87 117.90 135.88 117.76 Z M 136.99 117.59 L 137.99 117.38 C 138.99 117.17 139.63 116.19 139.42 115.19 C 139.20 114.20 138.23 113.56 137.23 113.77 L 136.23 113.98 C 135.23 114.19 134.60 115.17 134.81 116.17 C 135.02 117.16 136.00 117.80 136.99 117.59 Z M 138.11 117.35 L 139.07 117.07 C 140.05 116.80 140.62 115.78 140.34 114.80 C 140.06 113.82 139.05 113.26 138.07 113.53 L 137.11 113.80 C 136.13 114.08 135.56 115.10 135.84 116.08 C 136.12 117.05 137.13 117.62 138.11 117.35 Z M 139.17 117.04 L 140.10 116.72 C 141.06 116.39 141.57 115.34 141.24 114.38 C 140.91 113.42 139.86 112.92 138.90 113.25 L 137.97 113.57 C 137.01 113.90 136.50 114.94 136.84 115.90 C 137.17 116.86 138.21 117.37 139.17 117.04 Z M 140.17 116.69 L 141.09 116.32 C 142.03 115.95 142.50 114.89 142.13 113.95 C 141.75 113.01 140.69 112.54 139.75 112.92 L 138.83 113.28 C 137.89 113.65 137.43 114.71 137.80 115.65 C 138.17 116.59 139.23 117.06 140.17 116.69 Z M 141.14 116.30 L 142.04 115.92 C 142.97 115.52 143.40 114.45 143.00 113.52 C 142.61 112.59 141.54 112.16 140.61 112.56 L 139.71 112.94 C 138.78 113.33 138.35 114.41 138.74 115.33 C 139.14 116.26 140.21 116.69 141.14 116.30 Z M 142.06 115.90 L 142.91 115.53 C 143.83 115.12 144.24 114.04 143.83 113.12 C 143.43 112.20 142.35 111.79 141.43 112.20 L 140.58 112.57 C 139.66 112.98 139.25 114.06 139.66 114.98 C 140.07 115.89 141.14 116.31 142.06 115.90 Z M 142.93 115.51 L 143.80 115.11 C 144.71 114.69 145.11 113.61 144.69 112.70 C 144.27 111.79 143.19 111.39 142.28 111.81 L 141.41 112.21 C 140.50 112.63 140.10 113.71 140.52 114.62 C 140.94 115.53 142.02 115.93 142.93 115.51 Z M 143.82 115.09 L 144.72 114.66 C 145.63 114.23 146.01 113.14 145.57 112.24 C 145.14 111.34 144.06 110.96 143.16 111.39 L 142.26 111.83 C 141.35 112.26 140.97 113.34 141.41 114.24 C 141.84 115.14 142.92 115.52 143.82 115.09 Z M 144.75 114.64 L 145.68 114.17 C 146.58 113.73 146.94 112.64 146.49 111.75 C 146.05 110.86 144.96 110.50 144.07 110.94 L 143.13 111.41 C 142.24 111.86 141.88 112.94 142.32 113.83 C 142.77 114.73 143.85 115.09 144.75 114.64 Z M 145.71 114.16 L 146.67 113.66 C 147.55 113.20 147.90 112.11 147.44 111.23 C 146.98 110.35 145.90 110.00 145.01 110.46 L 144.05 110.96 C 143.17 111.42 142.82 112.50 143.28 113.39 C 143.74 114.27 144.82 114.61 145.71 114.16 Z M 146.69 113.64 L 147.53 113.19 C 148.41 112.72 148.74 111.64 148.27 110.76 C 147.80 109.89 146.72 109.55 145.84 110.02 L 145.00 110.47 C 144.12 110.94 143.79 112.03 144.26 112.90 C 144.72 113.78 145.81 114.11 146.69 113.64 Z M 147.54 113.18 L 148.41 112.71 C 149.28 112.23 149.60 111.14 149.13 110.28 C 148.66 109.41 147.57 109.09 146.70 109.56 L 145.83 110.03 C 144.96 110.51 144.64 111.59 145.11 112.46 C 145.59 113.33 146.67 113.65 147.54 113.18 Z M 148.42 112.70 L 149.30 112.21 C 150.17 111.73 150.48 110.65 150.01 109.78 C 149.53 108.92 148.44 108.61 147.58 109.08 L 146.70 109.57 C 145.83 110.05 145.52 111.13 145.99 111.99 C 146.47 112.86 147.56 113.17 148.42 112.70 Z M 149.31 112.20 L 150.20 111.70 C 151.06 111.23 151.37 110.15 150.89 109.29 C 150.41 108.43 149.33 108.12 148.47 108.59 L 147.58 109.09 C 146.72 109.57 146.41 110.65 146.89 111.51 C 147.36 112.37 148.45 112.68 149.31 112.20 Z M 150.20 111.70 L 151.09 111.20 C 151.94 110.73 152.25 109.65 151.78 108.79 C 151.30 107.94 150.22 107.63 149.37 108.10 L 148.47 108.60 C 147.62 109.07 147.31 110.15 147.78 111.01 C 148.26 111.87 149.34 112.18 150.20 111.70 Z M 151.08 111.20 L 151.96 110.72 C 152.82 110.24 153.13 109.17 152.65 108.31 C 152.18 107.46 151.11 107.15 150.25 107.62 L 149.37 108.11 C 148.52 108.58 148.21 109.65 148.68 110.51 C 149.15 111.36 150.23 111.67 151.08 111.20 Z M 151.95 110.71 L 152.91 110.19 C 153.77 109.72 154.08 108.65 153.61 107.80 C 153.15 106.95 152.08 106.63 151.23 107.10 L 150.26 107.62 C 149.41 108.09 149.10 109.16 149.56 110.01 C 150.03 110.86 151.10 111.18 151.95 110.71 Z M 152.90 110.18 L 153.85 109.67 C 154.70 109.21 155.01 108.15 154.55 107.30 C 154.10 106.45 153.04 106.13 152.19 106.59 L 151.24 107.10 C 150.39 107.56 150.07 108.62 150.53 109.47 C 150.99 110.32 152.05 110.64 152.90 110.18 Z M 153.83 109.66 L 154.74 109.17 C 155.59 108.72 155.91 107.67 155.46 106.83 C 155.00 105.98 153.95 105.66 153.11 106.11 L 152.20 106.60 C 151.36 107.05 151.04 108.10 151.49 108.95 C 151.94 109.79 152.99 110.11 153.83 109.66 Z M 154.73 109.17 L 155.59 108.71 C 156.43 108.26 156.75 107.22 156.31 106.38 C 155.86 105.54 154.82 105.22 153.98 105.67 L 153.12 106.12 C 152.28 106.57 151.96 107.61 152.40 108.45 C 152.85 109.29 153.89 109.61 154.73 109.17 Z M 155.58 108.70 L 156.39 108.28 C 157.23 107.84 157.55 106.80 157.11 105.97 C 156.67 105.13 155.63 104.81 154.80 105.25 L 153.99 105.68 C 153.16 106.12 152.84 107.15 153.28 107.98 C 153.72 108.82 154.75 109.14 155.58 108.70 Z M 156.38 108.26 L 157.24 107.81 C 158.07 107.38 158.39 106.35 157.95 105.52 C 157.52 104.70 156.49 104.38 155.66 104.81 L 154.81 105.26 C 153.98 105.70 153.66 106.72 154.09 107.55 C 154.53 108.38 155.55 108.70 156.38 108.26 Z M 157.23 107.80 L 158.19 107.30 C 159.01 106.87 159.33 105.85 158.90 105.03 C 158.47 104.21 157.45 103.89 156.63 104.32 L 155.67 104.82 C 154.85 105.25 154.53 106.27 154.96 107.09 C 155.39 107.92 156.41 108.23 157.23 107.80 Z M 158.18 107.29 L 159.05 106.84 C 159.87 106.41 160.18 105.40 159.76 104.58 C 159.33 103.77 158.32 103.45 157.51 103.88 L 156.64 104.33 C 155.82 104.76 155.50 105.77 155.93 106.58 C 156.36 107.40 157.37 107.72 158.18 107.29 Z M 159.04 106.82 L 159.86 106.40 C 160.67 105.97 160.99 104.97 160.56 104.16 C 160.14 103.36 159.14 103.04 158.33 103.46 L 157.51 103.89 C 156.70 104.31 156.39 105.31 156.81 106.12 C 157.24 106.93 158.24 107.25 159.04 106.82 Z M 159.86 106.39 L 160.22 106.20 C 161.03 105.78 161.34 104.78 160.92 103.98 C 160.50 103.17 159.51 102.86 158.70 103.28 L 158.34 103.47 C 157.53 103.89 157.22 104.89 157.64 105.69 C 158.06 106.50 159.05 106.81 159.86 106.39 Z"
      fill="black"
      fill-rule="nonzero" /><path d="M 135.37 131.51 L 134.61 132.15 C 133.87 132.79 133.78 133.91 134.42 134.66 C 135.05 135.41 136.18 135.50 136.92 134.86 L 137.68 134.22 C 138.42 133.58 138.51 132.45 137.87 131.71 C 137.24 130.96 136.11 130.87 135.37 131.51 Z M 134.56 132.20 L 133.83 132.87 C 133.11 133.54 133.07 134.66 133.73 135.38 C 134.40 136.11 135.52 136.15 136.25 135.48 L 136.98 134.81 C 137.70 134.15 137.74 133.02 137.08 132.30 C 136.41 131.58 135.29 131.53 134.56 132.20 Z M 133.74 132.96 L 133.05 133.70 C 132.38 134.42 132.42 135.55 133.14 136.22 C 133.86 136.89 134.98 136.85 135.65 136.13 L 136.34 135.39 C 137.01 134.67 136.97 133.55 136.25 132.88 C 135.53 132.21 134.41 132.25 133.74 132.96 Z M 132.93 133.84 L 132.35 134.61 C 131.76 135.39 131.91 136.51 132.70 137.10 C 133.48 137.70 134.60 137.54 135.19 136.76 L 135.77 135.99 C 136.37 135.21 136.21 134.09 135.43 133.49 C 134.64 132.90 133.53 133.05 132.93 133.84 Z M 132.24 134.75 L 131.74 135.57 C 131.23 136.42 131.49 137.52 132.34 138.03 C 133.18 138.55 134.28 138.28 134.80 137.44 L 135.30 136.62 C 135.81 135.77 135.55 134.67 134.70 134.16 C 133.86 133.64 132.76 133.91 132.24 134.75 Z M 131.66 135.71 L 131.21 136.61 C 130.77 137.50 131.13 138.58 132.02 139.02 C 132.91 139.46 133.99 139.10 134.43 138.21 L 134.88 137.31 C 135.32 136.42 134.96 135.34 134.07 134.90 C 133.18 134.45 132.10 134.82 131.66 135.71 Z M 131.14 136.73 L 130.74 137.71 C 130.37 138.64 130.81 139.69 131.74 140.07 C 132.66 140.44 133.72 140.00 134.09 139.08 L 134.49 138.09 C 134.87 137.17 134.42 136.11 133.50 135.74 C 132.58 135.36 131.52 135.81 131.14 136.73 Z M 130.70 137.82 L 130.38 138.78 C 130.06 139.73 130.57 140.76 131.52 141.08 C 132.47 141.40 133.49 140.89 133.81 139.94 L 134.14 138.97 C 134.45 138.02 133.94 137.00 133.00 136.68 C 132.05 136.36 131.02 136.87 130.70 137.82 Z M 130.35 138.87 L 130.07 139.86 C 129.80 140.82 130.36 141.82 131.33 142.09 C 132.29 142.36 133.29 141.80 133.56 140.84 L 133.84 139.85 C 134.11 138.89 133.55 137.89 132.58 137.62 C 131.62 137.35 130.62 137.91 130.35 138.87 Z M 130.05 139.94 L 129.82 140.93 C 129.60 141.90 130.21 142.88 131.18 143.10 C 132.16 143.33 133.13 142.72 133.36 141.74 L 133.58 140.76 C 133.81 139.78 133.20 138.81 132.22 138.58 C 131.25 138.36 130.28 138.97 130.05 139.94 Z M 129.81 141.01 L 129.64 141.96 C 129.46 142.95 130.11 143.89 131.10 144.07 C 132.08 144.24 133.02 143.59 133.20 142.61 L 133.37 141.66 C 133.55 140.67 132.90 139.73 131.91 139.55 C 130.93 139.37 129.98 140.03 129.81 141.01 Z M 129.62 142.07 L 129.50 143.11 C 129.38 144.10 130.08 145.00 131.08 145.12 C 132.07 145.24 132.97 144.54 133.09 143.54 L 133.22 142.50 C 133.34 141.51 132.63 140.61 131.64 140.49 C 130.64 140.37 129.74 141.07 129.62 142.07 Z M 129.49 143.22 L 129.43 144.22 C 129.37 145.21 130.13 146.07 131.12 146.13 C 132.12 146.19 132.98 145.43 133.04 144.43 L 133.10 143.43 C 133.16 142.44 132.40 141.58 131.40 141.52 C 130.41 141.46 129.55 142.22 129.49 143.22 Z M 129.43 144.30 L 129.42 145.25 C 129.40 146.25 130.19 147.07 131.19 147.08 C 132.18 147.10 133.00 146.31 133.02 145.31 L 133.03 144.36 C 133.05 143.36 132.26 142.54 131.26 142.52 C 130.27 142.51 129.45 143.30 129.43 144.30 Z M 129.42 145.28 L 129.42 146.24 C 129.42 147.23 130.22 148.04 131.22 148.04 C 132.21 148.04 133.01 147.24 133.01 146.24 L 133.01 145.28 C 133.01 144.29 132.21 143.49 131.22 143.49 C 130.23 143.49 129.42 144.29 129.42 145.28 Z M 129.43 146.25 L 129.43 147.23 C 129.43 148.22 130.24 149.02 131.23 149.02 C 132.22 149.01 133.01 148.21 133.01 147.22 L 133.01 146.24 C 133.00 145.25 132.20 144.45 131.21 144.45 C 130.22 144.46 129.42 145.26 129.43 146.25 Z M 129.44 147.25 L 129.45 148.26 C 129.47 149.24 130.28 150.03 131.26 150.02 C 132.24 150.00 133.03 149.19 133.02 148.21 L 133.00 147.20 C 132.99 146.22 132.18 145.43 131.19 145.44 C 130.21 145.46 129.42 146.27 129.44 147.25 Z M 129.46 148.29 L 129.49 149.31 C 129.52 150.29 130.34 151.06 131.32 151.03 C 132.30 151.00 133.07 150.18 133.04 149.20 L 133.01 148.18 C 132.98 147.20 132.16 146.43 131.18 146.46 C 130.20 146.49 129.43 147.31 129.46 148.29 Z M 129.50 149.36 L 129.56 150.35 C 129.62 151.32 130.45 152.06 131.42 152.01 C 132.40 151.95 133.14 151.12 133.09 150.14 L 133.03 149.15 C 132.97 148.18 132.14 147.44 131.17 147.49 C 130.19 147.55 129.45 148.38 129.50 149.36 Z M 129.58 150.42 L 129.68 151.42 C 129.77 152.38 130.63 153.08 131.60 152.99 C 132.56 152.89 133.26 152.03 133.17 151.07 L 133.07 150.07 C 132.97 149.11 132.11 148.40 131.15 148.50 C 130.19 148.60 129.48 149.46 129.58 150.42 Z M 129.70 151.52 L 129.86 152.51 C 130.02 153.46 130.91 154.11 131.86 153.96 C 132.81 153.80 133.46 152.91 133.30 151.96 L 133.14 150.97 C 132.99 150.02 132.10 149.37 131.15 149.52 C 130.20 149.68 129.55 150.57 129.70 151.52 Z M 129.90 152.64 L 130.14 153.62 C 130.36 154.55 131.30 155.12 132.23 154.89 C 133.16 154.67 133.73 153.73 133.50 152.80 L 133.27 151.83 C 133.04 150.90 132.10 150.33 131.17 150.55 C 130.25 150.78 129.68 151.72 129.90 152.64 Z M 130.18 153.73 L 130.49 154.69 C 130.78 155.59 131.75 156.09 132.65 155.80 C 133.55 155.51 134.05 154.54 133.76 153.64 L 133.46 152.68 C 133.17 151.78 132.20 151.28 131.30 151.57 C 130.39 151.86 129.89 152.83 130.18 153.73 Z M 130.53 154.76 L 130.88 155.70 C 131.21 156.58 132.19 157.03 133.07 156.70 C 133.96 156.37 134.41 155.38 134.08 154.50 L 133.72 153.56 C 133.39 152.68 132.41 152.23 131.53 152.56 C 130.64 152.89 130.19 153.88 130.53 154.76 Z M 130.90 155.73 L 131.27 156.66 C 131.62 157.52 132.61 157.94 133.48 157.59 C 134.35 157.24 134.77 156.26 134.42 155.39 L 134.05 154.47 C 133.70 153.60 132.71 153.18 131.84 153.53 C 130.97 153.88 130.55 154.86 130.90 155.73 Z M 131.29 156.66 L 131.66 157.56 C 132.01 158.42 133.00 158.83 133.86 158.47 C 134.72 158.12 135.13 157.13 134.77 156.27 L 134.41 155.38 C 134.05 154.52 133.07 154.11 132.21 154.46 C 131.35 154.82 130.93 155.80 131.29 156.66 Z M 131.67 157.56 L 132.05 158.47 C 132.41 159.32 133.39 159.72 134.24 159.37 C 135.10 159.01 135.50 158.03 135.14 157.17 L 134.76 156.27 C 134.40 155.41 133.42 155.01 132.57 155.37 C 131.71 155.73 131.31 156.71 131.67 157.56 Z M 132.07 158.48 L 132.47 159.42 C 132.84 160.26 133.82 160.65 134.66 160.29 C 135.50 159.92 135.89 158.94 135.53 158.10 L 135.12 157.16 C 134.76 156.32 133.78 155.93 132.94 156.29 C 132.09 156.66 131.70 157.64 132.07 158.48 Z M 132.49 159.43 L 132.90 160.37 C 133.27 161.20 134.25 161.58 135.09 161.21 C 135.92 160.84 136.30 159.86 135.93 159.02 L 135.51 158.09 C 135.14 157.25 134.16 156.88 133.33 157.25 C 132.49 157.62 132.12 158.60 132.49 159.43 Z M 132.92 160.39 L 133.35 161.31 C 133.73 162.13 134.71 162.49 135.54 162.11 C 136.36 161.72 136.72 160.74 136.34 159.91 L 135.91 159.00 C 135.53 158.17 134.55 157.82 133.72 158.20 C 132.89 158.58 132.54 159.56 132.92 160.39 Z M 133.37 161.35 L 133.83 162.26 C 134.24 163.07 135.23 163.40 136.04 162.99 C 136.85 162.58 137.18 161.59 136.77 160.78 L 136.31 159.87 C 135.90 159.06 134.91 158.73 134.10 159.14 C 133.29 159.55 132.96 160.54 133.37 161.35 Z M 133.87 162.33 L 134.36 163.20 C 134.81 163.99 135.81 164.27 136.60 163.82 C 137.39 163.37 137.67 162.37 137.22 161.58 L 136.73 160.71 C 136.28 159.92 135.28 159.65 134.49 160.09 C 133.70 160.54 133.42 161.54 133.87 162.33 Z M 134.43 163.30 L 134.98 164.14 C 135.48 164.89 136.50 165.10 137.26 164.60 C 138.01 164.10 138.22 163.08 137.72 162.33 L 137.16 161.48 C 136.66 160.73 135.64 160.52 134.88 161.03 C 134.13 161.53 133.92 162.54 134.43 163.30 Z M 135.07 164.25 L 135.71 165.05 C 136.27 165.76 137.30 165.88 138.01 165.32 C 138.71 164.75 138.83 163.72 138.27 163.01 L 137.63 162.21 C 137.07 161.51 136.04 161.39 135.33 161.95 C 134.62 162.51 134.51 163.54 135.07 164.25 Z M 135.78 165.14 L 136.44 165.86 C 137.05 166.53 138.09 166.58 138.75 165.97 C 139.42 165.36 139.47 164.32 138.86 163.66 L 138.20 162.93 C 137.59 162.26 136.55 162.22 135.88 162.83 C 135.22 163.44 135.17 164.47 135.78 165.14 Z M 136.48 165.91 L 137.16 166.59 C 137.79 167.24 138.83 167.25 139.47 166.61 C 140.12 165.98 140.13 164.94 139.49 164.30 L 138.82 163.61 C 138.18 162.97 137.15 162.96 136.50 163.59 C 135.86 164.23 135.85 165.26 136.48 165.91 Z M 137.17 166.60 L 137.22 166.65 C 137.86 167.29 138.90 167.29 139.53 166.66 C 140.17 166.02 140.17 164.98 139.54 164.34 L 139.48 164.29 C 138.84 163.65 137.81 163.65 137.17 164.29 C 136.53 164.93 136.53 165.96 137.17 166.60 Z"
      fill="black"
      fill-rule="nonzero" /><path d="M 146.64 132.40 L 146.31 133.33 C 145.98 134.25 146.46 135.27 147.39 135.61 C 148.32 135.94 149.34 135.45 149.67 134.53 L 150.00 133.59 C 150.33 132.67 149.85 131.65 148.92 131.32 C 148.00 130.98 146.98 131.47 146.64 132.40 Z M 146.27 133.38 L 145.96 134.32 C 145.66 135.28 146.19 136.29 147.14 136.60 C 148.09 136.90 149.11 136.38 149.41 135.42 L 149.72 134.48 C 150.02 133.52 149.49 132.51 148.54 132.20 C 147.59 131.90 146.57 132.42 146.27 133.38 Z M 145.91 134.43 L 145.66 135.41 C 145.42 136.40 146.02 137.40 147.01 137.64 C 147.99 137.88 148.99 137.28 149.23 136.30 L 149.47 135.31 C 149.72 134.33 149.12 133.33 148.13 133.09 C 147.15 132.85 146.15 133.45 145.91 134.43 Z M 145.62 135.56 L 145.48 136.45 C 145.31 137.46 146.00 138.41 147.01 138.57 C 148.02 138.73 148.97 138.04 149.13 137.03 L 149.28 136.15 C 149.44 135.14 148.75 134.19 147.74 134.03 C 146.73 133.87 145.78 134.55 145.62 135.56 Z M 145.46 136.57 L 145.37 137.50 C 145.28 138.52 146.03 139.42 147.05 139.51 C 148.07 139.61 148.97 138.85 149.07 137.84 L 149.15 136.91 C 149.24 135.89 148.49 134.99 147.47 134.89 C 146.45 134.80 145.55 135.55 145.46 136.57 Z M 145.37 137.58 L 145.32 138.61 C 145.28 139.64 146.07 140.50 147.09 140.55 C 148.11 140.59 148.98 139.80 149.03 138.78 L 149.07 137.75 C 149.12 136.73 148.33 135.86 147.30 135.82 C 146.28 135.77 145.42 136.56 145.37 137.58 Z M 145.32 138.66 L 145.30 139.80 C 145.28 140.82 146.09 141.66 147.11 141.69 C 148.14 141.71 148.98 140.89 149.00 139.87 L 149.03 138.73 C 149.05 137.71 148.23 136.87 147.21 136.85 C 146.19 136.83 145.34 137.64 145.32 138.66 Z M 145.31 139.82 L 145.30 140.76 C 145.29 141.78 146.11 142.61 147.13 142.62 C 148.14 142.63 148.98 141.81 148.99 140.79 L 149.00 139.85 C 149.01 138.83 148.19 138.00 147.17 137.99 C 146.15 137.98 145.32 138.80 145.31 139.82 Z M 145.31 140.78 L 145.31 141.78 C 145.31 142.79 146.13 143.61 147.15 143.61 C 148.16 143.61 148.98 142.79 148.98 141.78 L 148.98 140.77 C 148.98 139.76 148.15 138.94 147.14 138.94 C 146.13 138.94 145.31 139.77 145.31 140.78 Z M 145.32 141.81 L 145.33 142.84 C 145.35 143.84 146.18 144.65 147.19 144.63 C 148.20 144.62 149.00 143.79 148.98 142.78 L 148.97 141.75 C 148.95 140.74 148.12 139.94 147.12 139.95 C 146.11 139.97 145.30 140.80 145.32 141.81 Z M 145.35 142.87 L 145.38 143.90 C 145.42 144.90 146.26 145.69 147.26 145.65 C 148.26 145.62 149.04 144.78 149.01 143.78 L 148.97 142.74 C 148.94 141.74 148.10 140.96 147.10 140.99 C 146.10 141.03 145.31 141.87 145.35 142.87 Z M 145.39 143.95 L 145.45 144.95 C 145.51 145.94 146.37 146.70 147.36 146.64 C 148.36 146.58 149.12 145.73 149.06 144.73 L 149.00 143.73 C 148.94 142.74 148.08 141.98 147.09 142.04 C 146.09 142.10 145.33 142.95 145.39 143.95 Z M 145.48 145.01 L 145.58 146.08 C 145.67 147.06 146.55 147.78 147.53 147.69 C 148.51 147.59 149.23 146.72 149.14 145.74 L 149.03 144.67 C 148.94 143.69 148.07 142.97 147.09 143.06 C 146.10 143.16 145.38 144.03 145.48 145.01 Z M 145.61 146.15 L 145.75 147.17 C 145.89 148.13 146.78 148.80 147.74 148.67 C 148.70 148.54 149.38 147.65 149.24 146.68 L 149.10 145.67 C 148.97 144.70 148.08 144.03 147.12 144.16 C 146.15 144.30 145.48 145.19 145.61 146.15 Z M 145.79 147.24 L 145.97 148.20 C 146.14 149.15 147.04 149.77 147.99 149.60 C 148.93 149.43 149.55 148.52 149.38 147.58 L 149.20 146.61 C 149.03 145.67 148.13 145.05 147.19 145.22 C 146.24 145.39 145.62 146.29 145.79 147.24 Z M 146.01 148.27 L 146.22 149.20 C 146.43 150.12 147.34 150.70 148.26 150.49 C 149.18 150.28 149.76 149.36 149.55 148.45 L 149.34 147.51 C 149.13 146.60 148.22 146.02 147.30 146.23 C 146.38 146.44 145.80 147.35 146.01 148.27 Z M 146.26 149.26 L 146.51 150.21 C 146.76 151.10 147.68 151.64 148.58 151.39 C 149.48 151.15 150.01 150.23 149.77 149.33 L 149.51 148.38 C 149.27 147.49 148.35 146.95 147.45 147.20 C 146.55 147.44 146.02 148.36 146.26 149.26 Z M 146.55 150.26 L 146.85 151.25 C 147.12 152.13 148.06 152.63 148.94 152.35 C 149.82 152.08 150.31 151.15 150.04 150.27 L 149.73 149.28 C 149.46 148.39 148.53 147.90 147.65 148.17 C 146.77 148.45 146.27 149.38 146.55 150.26 Z M 146.88 151.30 L 147.21 152.26 C 147.51 153.13 148.45 153.59 149.32 153.29 C 150.18 152.99 150.64 152.04 150.35 151.18 L 150.02 150.22 C 149.72 149.35 148.77 148.89 147.91 149.19 C 147.04 149.49 146.58 150.43 146.88 151.30 Z M 147.23 152.30 L 147.58 153.21 C 147.89 154.07 148.84 154.50 149.70 154.18 C 150.55 153.86 150.98 152.91 150.66 152.06 L 150.32 151.14 C 150.00 150.29 149.05 149.86 148.20 150.17 C 147.35 150.49 146.91 151.44 147.23 152.30 Z M 147.60 153.24 L 147.96 154.15 C 148.30 154.99 149.25 155.40 150.09 155.07 C 150.93 154.73 151.34 153.78 151.01 152.93 L 150.64 152.03 C 150.31 151.18 149.35 150.77 148.51 151.11 C 147.67 151.45 147.26 152.40 147.60 153.24 Z M 147.97 154.18 L 148.38 155.14 C 148.73 155.97 149.69 156.36 150.53 156.01 C 151.36 155.66 151.75 154.70 151.40 153.86 L 150.99 152.91 C 150.64 152.07 149.68 151.68 148.85 152.03 C 148.01 152.39 147.62 153.35 147.97 154.18 Z M 148.39 155.16 L 148.78 156.06 C 149.15 156.89 150.12 157.27 150.95 156.90 C 151.78 156.54 152.15 155.57 151.79 154.74 L 151.39 153.84 C 151.02 153.01 150.05 152.63 149.23 153.00 C 148.40 153.37 148.02 154.33 148.39 155.16 Z M 148.79 156.08 L 149.18 156.95 C 149.56 157.77 150.53 158.14 151.36 157.77 C 152.18 157.39 152.55 156.42 152.17 155.59 L 151.78 154.72 C 151.41 153.90 150.43 153.53 149.61 153.90 C 148.78 154.28 148.41 155.25 148.79 156.08 Z M 149.18 156.95 L 149.21 157.02 C 149.59 157.85 150.56 158.22 151.39 157.84 C 152.22 157.46 152.58 156.49 152.21 155.66 L 152.17 155.59 C 151.80 154.76 150.82 154.40 150.00 154.77 C 149.17 155.15 148.81 156.12 149.18 156.95 Z"
      fill="black"
      fill-rule="nonzero" /><path d="M 157.32 127.44 L 157.54 128.38 C 157.77 129.34 158.73 129.94 159.70 129.72 C 160.66 129.49 161.26 128.52 161.03 127.56 L 160.81 126.62 C 160.59 125.65 159.62 125.05 158.66 125.28 C 157.69 125.50 157.09 126.47 157.32 127.44 Z M 157.51 128.33 L 157.70 129.30 C 157.91 130.28 158.87 130.91 159.85 130.71 C 160.83 130.51 161.47 129.55 161.27 128.57 L 161.07 127.60 C 160.87 126.62 159.91 125.99 158.92 126.19 C 157.94 126.39 157.31 127.35 157.51 128.33 Z M 157.66 129.20 L 157.81 130.21 C 157.96 131.21 158.90 131.91 159.90 131.76 C 160.91 131.61 161.60 130.67 161.45 129.67 L 161.31 128.66 C 161.16 127.66 160.22 126.96 159.21 127.11 C 158.21 127.26 157.51 128.20 157.66 129.20 Z M 157.78 130.08 L 157.86 131.05 C 157.93 132.08 158.83 132.84 159.85 132.77 C 160.87 132.69 161.64 131.79 161.56 130.77 L 161.49 129.80 C 161.41 128.77 160.52 128.01 159.49 128.09 C 158.47 128.16 157.70 129.06 157.78 130.08 Z M 157.85 130.94 L 157.86 131.87 C 157.88 132.90 158.72 133.72 159.75 133.70 C 160.78 133.69 161.60 132.84 161.58 131.81 L 161.57 130.88 C 161.55 129.86 160.71 129.03 159.68 129.05 C 158.65 129.07 157.83 129.91 157.85 130.94 Z M 157.86 131.81 L 157.85 132.79 C 157.83 133.82 158.64 134.66 159.67 134.68 C 160.70 134.70 161.54 133.88 161.56 132.86 L 161.58 131.87 C 161.60 130.85 160.78 130.00 159.76 129.98 C 158.73 129.96 157.88 130.78 157.86 131.81 Z M 157.85 132.76 L 157.81 133.81 C 157.78 134.83 158.58 135.69 159.61 135.73 C 160.63 135.76 161.49 134.96 161.53 133.93 L 161.56 132.88 C 161.59 131.86 160.79 131.00 159.77 130.97 C 158.74 130.93 157.88 131.74 157.85 132.76 Z M 157.82 133.81 L 157.78 134.90 C 157.75 135.92 158.56 136.78 159.58 136.81 C 160.60 136.84 161.46 136.04 161.49 135.01 L 161.52 133.93 C 161.55 132.90 160.75 132.05 159.73 132.02 C 158.70 131.99 157.85 132.79 157.82 133.81 Z M 157.79 134.92 L 157.77 135.92 C 157.75 136.94 158.56 137.78 159.58 137.80 C 160.60 137.82 161.44 137.01 161.46 135.99 L 161.48 134.99 C 161.50 133.97 160.69 133.13 159.67 133.11 C 158.65 133.09 157.81 133.90 157.79 134.92 Z M 157.78 135.94 L 157.77 136.96 C 157.76 137.97 158.57 138.80 159.59 138.81 C 160.60 138.82 161.43 138.01 161.44 137.00 L 161.45 135.97 C 161.46 134.96 160.65 134.13 159.64 134.12 C 158.62 134.11 157.79 134.92 157.78 135.94 Z M 157.78 136.97 L 157.78 138.00 C 157.78 139.00 158.59 139.82 159.60 139.82 C 160.61 139.83 161.43 139.01 161.43 138.00 L 161.43 136.98 C 161.43 135.97 160.62 135.15 159.61 135.15 C 158.60 135.15 157.78 135.96 157.78 136.97 Z M 157.79 138.01 L 157.79 139.01 C 157.80 140.01 158.62 140.82 159.62 140.81 C 160.62 140.81 161.43 139.99 161.42 138.99 L 161.42 137.99 C 161.41 136.99 160.60 136.18 159.60 136.19 C 158.59 136.19 157.79 137.01 157.79 138.01 Z M 157.81 139.02 L 157.82 139.99 C 157.83 140.98 158.64 141.78 159.64 141.77 C 160.64 141.76 161.43 140.94 161.42 139.95 L 161.41 138.98 C 161.40 137.98 160.58 137.19 159.59 137.20 C 158.59 137.21 157.79 138.03 157.81 139.02 Z M 157.83 140.00 L 157.85 141.02 C 157.88 142.00 158.69 142.79 159.68 142.77 C 160.67 142.74 161.45 141.93 161.43 140.94 L 161.41 139.93 C 161.39 138.94 160.57 138.16 159.58 138.18 C 158.59 138.20 157.81 139.02 157.83 140.00 Z M 157.88 141.06 L 157.92 142.03 C 157.97 143.01 158.79 143.76 159.77 143.71 C 160.74 143.67 161.50 142.84 161.45 141.87 L 161.41 140.90 C 161.36 139.92 160.54 139.17 159.56 139.21 C 158.58 139.26 157.83 140.08 157.88 141.06 Z M 157.94 142.10 L 158.03 143.06 C 158.11 144.03 158.96 144.74 159.92 144.66 C 160.88 144.58 161.59 143.73 161.51 142.77 L 161.43 141.80 C 161.35 140.84 160.50 140.12 159.54 140.21 C 158.58 140.29 157.86 141.13 157.94 142.10 Z M 158.06 143.15 L 158.19 144.15 C 158.32 145.10 159.19 145.76 160.14 145.64 C 161.08 145.51 161.75 144.64 161.62 143.69 L 161.48 142.68 C 161.36 141.74 160.49 141.07 159.54 141.20 C 158.59 141.33 157.93 142.20 158.06 143.15 Z M 158.22 144.23 L 158.39 145.19 C 158.57 146.12 159.46 146.73 160.39 146.56 C 161.32 146.39 161.94 145.50 161.77 144.57 L 161.59 143.61 C 161.42 142.68 160.53 142.06 159.59 142.24 C 158.66 142.41 158.05 143.30 158.22 144.23 Z M 158.42 145.25 L 158.63 146.18 C 158.83 147.10 159.74 147.68 160.66 147.47 C 161.58 147.27 162.16 146.36 161.95 145.44 L 161.74 144.51 C 161.54 143.59 160.63 143.01 159.71 143.21 C 158.79 143.42 158.21 144.33 158.42 145.25 Z M 158.65 146.23 L 158.89 147.20 C 159.12 148.11 160.04 148.66 160.95 148.43 C 161.86 148.20 162.41 147.28 162.18 146.37 L 161.93 145.40 C 161.70 144.49 160.78 143.94 159.87 144.17 C 158.97 144.40 158.42 145.32 158.65 146.23 Z M 158.91 147.24 L 159.19 148.23 C 159.43 149.12 160.36 149.65 161.26 149.40 C 162.16 149.15 162.69 148.22 162.44 147.32 L 162.16 146.33 C 161.91 145.43 160.98 144.91 160.08 145.16 C 159.19 145.41 158.66 146.34 158.91 147.24 Z M 159.20 148.26 L 159.50 149.25 C 159.77 150.14 160.70 150.64 161.59 150.38 C 162.48 150.11 162.98 149.18 162.72 148.29 L 162.42 147.29 C 162.15 146.41 161.22 145.90 160.33 146.17 C 159.44 146.43 158.94 147.37 159.20 148.26 Z M 159.52 149.28 L 159.83 150.27 C 160.11 151.15 161.05 151.63 161.93 151.35 C 162.81 151.07 163.30 150.13 163.02 149.25 L 162.70 148.26 C 162.42 147.38 161.48 146.90 160.60 147.18 C 159.72 147.46 159.24 148.40 159.52 149.28 Z M 159.85 150.29 L 160.19 151.29 C 160.48 152.16 161.43 152.63 162.30 152.34 C 163.17 152.04 163.63 151.10 163.34 150.23 L 163.00 149.23 C 162.71 148.36 161.76 147.89 160.89 148.18 C 160.02 148.48 159.55 149.42 159.85 150.29 Z M 160.20 151.32 L 160.55 152.29 C 160.86 153.15 161.81 153.60 162.67 153.29 C 163.53 152.98 163.98 152.03 163.67 151.17 L 163.32 150.20 C 163.01 149.34 162.06 148.89 161.20 149.20 C 160.34 149.51 159.89 150.46 160.20 151.32 Z M 160.57 152.32 L 160.93 153.26 C 161.26 154.11 162.21 154.53 163.06 154.21 C 163.91 153.88 164.34 152.92 164.01 152.07 L 163.65 151.14 C 163.33 150.29 162.37 149.86 161.52 150.19 C 160.67 150.52 160.24 151.47 160.57 152.32 Z M 160.95 153.29 L 161.32 154.18 C 161.66 155.03 162.63 155.43 163.47 155.08 C 164.31 154.73 164.71 153.77 164.36 152.93 L 163.99 152.04 C 163.65 151.20 162.68 150.80 161.84 151.14 C 161.00 151.49 160.60 152.45 160.95 153.29 Z M 161.34 154.22 L 161.72 155.08 C 162.09 155.90 163.05 156.28 163.88 155.91 C 164.71 155.54 165.08 154.57 164.72 153.75 L 164.34 152.89 C 163.97 152.06 163.00 151.69 162.17 152.06 C 161.35 152.43 160.97 153.39 161.34 154.22 Z M 161.74 155.12 L 162.20 156.06 C 162.59 156.88 163.57 157.22 164.38 156.83 C 165.20 156.44 165.54 155.46 165.15 154.64 L 164.69 153.70 C 164.30 152.89 163.32 152.54 162.51 152.94 C 161.69 153.33 161.35 154.31 161.74 155.12 Z M 162.22 156.11 L 162.68 157.01 C 163.10 157.81 164.09 158.12 164.89 157.71 C 165.69 157.29 166.01 156.30 165.59 155.50 L 165.12 154.60 C 164.71 153.80 163.72 153.49 162.92 153.90 C 162.12 154.32 161.80 155.31 162.22 156.11 Z M 162.70 157.04 L 163.17 157.90 C 163.61 158.70 164.60 158.99 165.40 158.55 C 166.19 158.12 166.48 157.12 166.05 156.33 L 165.57 155.47 C 165.14 154.67 164.14 154.38 163.35 154.82 C 162.56 155.25 162.27 156.24 162.70 157.04 Z M 163.18 157.92 L 163.66 158.77 C 164.11 159.55 165.10 159.83 165.89 159.39 C 166.68 158.94 166.96 157.94 166.51 157.16 L 166.03 156.31 C 165.59 155.52 164.59 155.25 163.80 155.69 C 163.02 156.14 162.74 157.14 163.18 157.92 Z M 163.67 158.77 L 163.88 159.15 C 164.33 159.93 165.33 160.20 166.11 159.76 C 166.90 159.31 167.17 158.31 166.72 157.52 L 166.51 157.15 C 166.06 156.36 165.06 156.09 164.28 156.54 C 163.49 156.99 163.22 157.99 163.67 158.77 Z"
      fill="black"
      fill-rule="nonzero" /><path d="M 174.17 125.18 L 173.87 126.18 C 173.59 127.15 174.14 128.16 175.10 128.44 C 176.06 128.73 177.07 128.18 177.36 127.21 L 177.65 126.21 C 177.94 125.25 177.39 124.24 176.42 123.96 C 175.46 123.67 174.45 124.22 174.17 125.18 Z M 173.84 126.23 L 173.58 127.22 C 173.32 128.19 173.90 129.20 174.88 129.46 C 175.86 129.72 176.86 129.14 177.12 128.16 L 177.38 127.17 C 177.64 126.19 177.06 125.19 176.09 124.93 C 175.11 124.67 174.10 125.25 173.84 126.23 Z M 173.54 127.31 L 173.34 128.28 C 173.14 129.28 173.78 130.26 174.78 130.46 C 175.78 130.67 176.75 130.03 176.96 129.03 L 177.16 128.06 C 177.36 127.06 176.72 126.09 175.72 125.88 C 174.73 125.67 173.75 126.32 173.54 127.31 Z M 173.30 128.45 L 173.20 129.39 C 173.08 130.41 173.82 131.33 174.84 131.44 C 175.86 131.55 176.78 130.82 176.89 129.80 L 177.00 128.86 C 177.11 127.84 176.38 126.92 175.36 126.81 C 174.34 126.69 173.42 127.43 173.30 128.45 Z M 173.19 129.63 L 173.21 130.63 C 173.23 131.65 174.08 132.46 175.10 132.44 C 176.13 132.42 176.94 131.57 176.92 130.55 L 176.90 129.56 C 176.88 128.53 176.03 127.72 175.01 127.74 C 173.99 127.76 173.17 128.61 173.19 129.63 Z M 173.26 130.85 L 173.40 131.83 C 173.55 132.82 174.48 133.51 175.47 133.37 C 176.47 133.22 177.16 132.29 177.02 131.30 L 176.87 130.32 C 176.73 129.33 175.80 128.64 174.80 128.78 C 173.80 128.93 173.11 129.86 173.26 130.85 Z M 173.46 131.98 L 173.69 132.95 C 173.92 133.92 174.90 134.52 175.86 134.28 C 176.83 134.05 177.43 133.08 177.19 132.11 L 176.96 131.14 C 176.73 130.17 175.75 129.58 174.79 129.81 C 173.82 130.04 173.22 131.01 173.46 131.98 Z M 173.74 133.03 L 174.00 133.94 C 174.27 134.88 175.26 135.42 176.20 135.14 C 177.15 134.87 177.69 133.88 177.41 132.94 L 177.15 132.04 C 176.87 131.09 175.89 130.55 174.94 130.83 C 174.00 131.10 173.46 132.09 173.74 133.03 Z M 174.03 133.96 L 174.28 134.79 C 174.57 135.72 175.56 136.24 176.49 135.94 C 177.42 135.65 177.94 134.67 177.65 133.74 L 177.39 132.91 C 177.10 131.98 176.11 131.47 175.18 131.76 C 174.25 132.05 173.73 133.04 174.03 133.96 Z M 174.30 134.80 L 174.59 135.70 C 174.89 136.62 175.87 137.12 176.79 136.83 C 177.71 136.53 178.21 135.55 177.92 134.63 L 177.63 133.73 C 177.33 132.81 176.35 132.31 175.43 132.60 C 174.51 132.90 174.01 133.88 174.30 134.80 Z M 174.60 135.69 L 174.93 136.69 C 175.22 137.60 176.19 138.10 177.11 137.81 C 178.02 137.52 178.52 136.54 178.22 135.63 L 177.90 134.63 C 177.61 133.72 176.63 133.22 175.72 133.51 C 174.81 133.81 174.31 134.78 174.60 135.69 Z M 174.94 136.68 L 175.29 137.81 C 175.58 138.72 176.54 139.22 177.45 138.93 C 178.35 138.65 178.86 137.68 178.57 136.78 L 178.21 135.65 C 177.93 134.74 176.96 134.24 176.06 134.52 C 175.15 134.81 174.65 135.77 174.94 136.68 Z M 175.30 137.79 L 175.58 138.70 C 175.85 139.60 176.81 140.10 177.71 139.83 C 178.61 139.55 179.12 138.60 178.84 137.70 L 178.56 136.79 C 178.29 135.89 177.33 135.39 176.43 135.66 C 175.53 135.94 175.02 136.89 175.30 137.79 Z M 175.58 138.68 L 175.86 139.61 C 176.13 140.51 177.07 141.02 177.97 140.75 C 178.87 140.48 179.38 139.53 179.11 138.63 L 178.84 137.71 C 178.57 136.81 177.62 136.30 176.72 136.57 C 175.82 136.84 175.31 137.78 175.58 138.68 Z M 175.86 139.59 L 176.14 140.56 C 176.41 141.46 177.34 141.97 178.24 141.71 C 179.14 141.45 179.65 140.51 179.39 139.61 L 179.11 138.65 C 178.85 137.75 177.91 137.23 177.01 137.50 C 176.11 137.76 175.60 138.70 175.86 139.59 Z M 176.15 140.55 L 176.43 141.54 C 176.68 142.44 177.61 142.96 178.51 142.70 C 179.40 142.45 179.92 141.52 179.67 140.62 L 179.39 139.63 C 179.13 138.73 178.20 138.21 177.31 138.47 C 176.41 138.72 175.89 139.65 176.15 140.55 Z M 176.43 141.53 L 176.71 142.53 C 176.95 143.42 177.88 143.95 178.77 143.70 C 179.66 143.46 180.19 142.54 179.94 141.64 L 179.66 140.64 C 179.42 139.75 178.50 139.22 177.61 139.47 C 176.71 139.71 176.19 140.63 176.43 141.53 Z M 176.71 142.51 L 176.98 143.51 C 177.21 144.40 178.12 144.93 179.01 144.70 C 179.90 144.46 180.44 143.55 180.20 142.66 L 179.94 141.66 C 179.70 140.77 178.79 140.24 177.90 140.48 C 177.01 140.71 176.48 141.62 176.71 142.51 Z M 176.98 143.49 L 177.23 144.49 C 177.45 145.37 178.35 145.91 179.24 145.69 C 180.13 145.47 180.67 144.57 180.45 143.68 L 180.20 142.68 C 179.97 141.79 179.07 141.25 178.18 141.47 C 177.29 141.70 176.76 142.60 176.98 143.49 Z M 177.23 144.46 L 177.47 145.51 C 177.68 146.40 178.57 146.95 179.46 146.74 C 180.35 146.53 180.91 145.64 180.70 144.75 L 180.45 143.70 C 180.24 142.81 179.35 142.26 178.46 142.47 C 177.57 142.68 177.02 143.57 177.23 144.46 Z M 177.47 145.48 L 177.69 146.49 C 177.88 147.38 178.76 147.95 179.65 147.75 C 180.55 147.56 181.11 146.68 180.92 145.79 L 180.70 144.78 C 180.51 143.89 179.63 143.32 178.74 143.52 C 177.84 143.71 177.28 144.59 177.47 145.48 Z M 177.69 146.46 L 177.88 147.44 C 178.06 148.33 178.92 148.91 179.82 148.73 C 180.71 148.56 181.29 147.69 181.11 146.80 L 180.92 145.82 C 180.74 144.93 179.88 144.35 178.98 144.52 C 178.09 144.70 177.51 145.57 177.69 146.46 Z M 177.88 147.41 L 178.05 148.36 C 178.21 149.25 179.06 149.85 179.95 149.69 C 180.85 149.53 181.44 148.68 181.29 147.78 L 181.12 146.83 C 180.96 145.94 180.10 145.34 179.21 145.50 C 178.32 145.66 177.72 146.51 177.88 147.41 Z M 178.05 148.33 L 178.19 149.26 C 178.33 150.16 179.17 150.77 180.07 150.63 C 180.96 150.49 181.58 149.65 181.44 148.75 L 181.29 147.82 C 181.15 146.92 180.31 146.31 179.41 146.45 C 178.52 146.59 177.90 147.43 178.05 148.33 Z M 178.19 149.23 L 178.32 150.18 C 178.44 151.07 179.27 151.70 180.17 151.58 C 181.06 151.45 181.69 150.63 181.57 149.73 L 181.44 148.79 C 181.31 147.89 180.49 147.26 179.59 147.38 C 178.70 147.51 178.07 148.33 178.19 149.23 Z M 178.32 150.14 L 178.43 151.14 C 178.54 152.03 179.35 152.68 180.25 152.57 C 181.15 152.47 181.79 151.66 181.69 150.76 L 181.57 149.76 C 181.47 148.87 180.65 148.22 179.75 148.33 C 178.86 148.43 178.21 149.24 178.32 150.14 Z M 178.43 151.10 L 178.53 152.10 C 178.61 153.00 179.41 153.66 180.31 153.57 C 181.21 153.48 181.87 152.68 181.79 151.78 L 181.69 150.79 C 181.60 149.89 180.80 149.23 179.90 149.32 C 179.00 149.40 178.34 150.21 178.43 151.10 Z M 178.52 152.07 L 178.60 153.06 C 178.67 153.96 179.46 154.64 180.36 154.56 C 181.26 154.49 181.94 153.71 181.87 152.80 L 181.79 151.81 C 181.72 150.91 180.93 150.24 180.03 150.31 C 179.13 150.38 178.45 151.17 178.52 152.07 Z M 178.60 153.03 L 178.66 154.03 C 178.72 154.93 179.49 155.62 180.40 155.56 C 181.30 155.51 181.98 154.73 181.93 153.83 L 181.87 152.83 C 181.81 151.93 181.04 151.24 180.13 151.30 C 179.23 151.35 178.54 152.13 178.60 153.03 Z M 178.66 154.01 L 178.71 155.01 C 178.75 155.91 179.51 156.61 180.42 156.57 C 181.32 156.53 182.02 155.76 181.98 154.86 L 181.93 153.85 C 181.89 152.95 181.12 152.25 180.22 152.29 C 179.32 152.34 178.62 153.10 178.66 154.01 Z M 178.71 154.99 L 178.74 156.04 C 178.77 156.94 179.53 157.65 180.43 157.62 C 181.33 157.59 182.04 156.83 182.01 155.93 L 181.98 154.88 C 181.95 153.98 181.19 153.27 180.29 153.30 C 179.39 153.33 178.68 154.08 178.71 154.99 Z M 178.74 156.02 L 178.76 157.08 C 178.78 157.98 179.53 158.70 180.43 158.68 C 181.34 158.66 182.05 157.91 182.03 157.01 L 182.01 155.95 C 181.99 155.04 181.25 154.33 180.34 154.35 C 179.44 154.36 178.72 155.11 178.74 156.02 Z M 178.76 157.06 L 178.77 158.10 C 178.78 159.00 179.53 159.72 180.43 159.71 C 181.33 159.70 182.06 158.96 182.05 158.06 L 182.03 157.02 C 182.02 156.12 181.28 155.39 180.38 155.41 C 179.47 155.42 178.75 156.16 178.76 157.06 Z M 178.77 158.09 L 178.78 159.08 C 178.78 159.98 179.52 160.71 180.43 160.71 C 181.33 160.70 182.06 159.96 182.05 159.06 L 182.05 158.07 C 182.04 157.16 181.31 156.44 180.40 156.44 C 179.50 156.45 178.77 157.18 178.77 158.09 Z M 178.78 159.07 L 178.78 160.00 C 178.78 160.91 179.52 161.64 180.42 161.64 C 181.32 161.63 182.06 160.90 182.05 160.00 L 182.05 159.07 C 182.05 158.16 181.32 157.43 180.41 157.43 C 179.51 157.43 178.78 158.17 178.78 159.07 Z M 178.78 160.00 L 178.78 161.03 C 178.78 161.93 179.51 162.66 180.42 162.66 C 181.32 162.66 182.05 161.93 182.05 161.03 L 182.05 160.00 C 182.05 159.09 181.32 158.36 180.42 158.36 C 179.51 158.36 178.78 159.09 178.78 160.00 Z M 178.78 161.03 L 178.78 162.10 C 178.78 163.00 179.51 163.73 180.42 163.73 C 181.32 163.73 182.05 163.00 182.05 162.10 L 182.05 161.03 C 182.05 160.12 181.32 159.39 180.42 159.39 C 179.51 159.39 178.78 160.12 178.78 161.03 Z M 178.78 162.10 L 178.78 163.05 C 178.78 163.95 179.51 164.69 180.42 164.69 C 181.32 164.69 182.05 163.95 182.05 163.05 L 182.05 162.10 C 182.05 161.19 181.32 160.46 180.42 160.46 C 179.51 160.46 178.78 161.19 178.78 162.10 Z M 178.78 163.05 L 178.78 163.95 C 178.78 164.85 179.51 165.58 180.42 165.58 C 181.32 165.58 182.05 164.85 182.05 163.95 L 182.05 163.05 C 182.05 162.15 181.32 161.41 180.42 161.41 C 179.51 161.41 178.78 162.15 178.78 163.05 Z M 178.78 163.95 L 178.78 164.04 C 178.78 164.94 179.51 165.68 180.42 165.68 C 181.32 165.68 182.05 164.94 182.05 164.04 L 182.05 163.95 C 182.05 163.04 181.32 162.31 180.42 162.31 C 179.51 162.31 178.78 163.04 178.78 163.95 Z"
      fill="black"
      fill-rule="nonzero" /><path d="M 119.99 150.34 L 121.06 150.32 C 122.07 150.29 122.87 149.45 122.84 148.44 C 122.82 147.43 121.98 146.64 120.97 146.66 L 119.90 146.69 C 118.89 146.72 118.09 147.55 118.12 148.56 C 118.14 149.57 118.98 150.37 119.99 150.34 Z M 121.07 150.33 L 122.12 150.30 C 123.14 150.26 123.94 149.42 123.91 148.40 C 123.88 147.39 123.03 146.59 122.01 146.62 L 120.96 146.65 C 119.94 146.68 119.15 147.53 119.18 148.55 C 119.21 149.56 120.06 150.36 121.07 150.33 Z M 122.14 150.31 L 123.16 150.27 C 124.18 150.23 124.97 149.36 124.93 148.34 C 124.89 147.32 124.03 146.53 123.01 146.57 L 121.99 146.61 C 120.97 146.65 120.18 147.51 120.22 148.53 C 120.26 149.55 121.12 150.35 122.14 150.31 Z M 123.19 150.28 L 124.15 150.22 C 125.18 150.16 125.96 149.28 125.90 148.26 C 125.85 147.23 124.97 146.44 123.94 146.50 L 122.98 146.56 C 121.95 146.61 121.17 147.49 121.22 148.52 C 121.28 149.55 122.16 150.33 123.19 150.28 Z M 124.20 150.23 L 125.10 150.16 C 126.13 150.07 126.90 149.17 126.82 148.14 C 126.73 147.10 125.83 146.34 124.80 146.42 L 123.89 146.49 C 122.86 146.58 122.09 147.48 122.17 148.51 C 122.26 149.55 123.16 150.32 124.20 150.23 Z M 125.18 150.16 L 126.26 150.02 C 127.29 149.90 128.03 148.96 127.90 147.93 C 127.77 146.89 126.83 146.16 125.80 146.29 L 124.72 146.42 C 123.69 146.55 122.95 147.49 123.08 148.52 C 123.21 149.55 124.15 150.28 125.18 150.16 Z M 126.35 150.01 L 127.32 149.84 C 128.34 149.67 129.03 148.70 128.86 147.67 C 128.68 146.65 127.71 145.96 126.69 146.13 L 125.71 146.30 C 124.69 146.47 124.00 147.45 124.18 148.47 C 124.35 149.50 125.32 150.19 126.35 150.01 Z M 127.38 149.83 L 128.30 149.65 C 129.32 149.44 129.98 148.44 129.77 147.42 C 129.56 146.40 128.56 145.75 127.54 145.96 L 126.62 146.14 C 125.60 146.35 124.95 147.35 125.16 148.37 C 125.37 149.39 126.36 150.04 127.38 149.83 Z M 128.33 149.64 L 129.25 149.44 C 130.26 149.22 130.91 148.21 130.68 147.19 C 130.46 146.18 129.45 145.53 128.44 145.76 L 127.52 145.96 C 126.50 146.18 125.86 147.19 126.08 148.20 C 126.31 149.22 127.31 149.86 128.33 149.64 Z M 129.25 149.44 L 130.19 149.23 C 131.21 149.01 131.85 148.00 131.63 146.99 C 131.40 145.97 130.40 145.33 129.38 145.55 L 128.44 145.76 C 127.42 145.98 126.78 146.99 127.00 148.00 C 127.22 149.02 128.23 149.66 129.25 149.44 Z M 130.19 149.23 L 131.17 149.02 C 132.19 148.80 132.83 147.80 132.61 146.78 C 132.39 145.76 131.39 145.12 130.37 145.34 L 129.39 145.55 C 128.37 145.77 127.72 146.77 127.94 147.79 C 128.16 148.81 129.17 149.45 130.19 149.23 Z M 131.16 149.02 L 132.18 148.80 C 133.20 148.59 133.85 147.59 133.64 146.57 C 133.42 145.55 132.42 144.90 131.40 145.12 L 130.38 145.33 C 129.36 145.55 128.71 146.55 128.93 147.57 C 129.14 148.59 130.14 149.24 131.16 149.02 Z M 132.17 148.81 L 133.13 148.61 C 134.15 148.40 134.80 147.41 134.60 146.39 C 134.39 145.37 133.39 144.71 132.37 144.92 L 131.41 145.12 C 130.40 145.32 129.74 146.32 129.95 147.34 C 130.16 148.36 131.15 149.02 132.17 148.81 Z M 133.12 148.61 L 134.09 148.42 C 135.11 148.21 135.77 147.22 135.56 146.20 C 135.35 145.18 134.36 144.52 133.34 144.72 L 132.38 144.92 C 131.36 145.12 130.70 146.12 130.90 147.14 C 131.11 148.16 132.10 148.82 133.12 148.61 Z M 134.09 148.41 L 135.08 148.21 C 136.10 148.00 136.75 147.01 136.55 145.99 C 136.34 144.97 135.34 144.31 134.32 144.52 L 133.34 144.72 C 132.32 144.93 131.66 145.93 131.87 146.95 C 132.08 147.97 133.07 148.62 134.09 148.41 Z M 135.09 148.21 L 136.10 148.00 C 137.11 147.78 137.77 146.78 137.55 145.77 C 137.34 144.75 136.34 144.10 135.32 144.31 L 134.31 144.53 C 133.30 144.74 132.64 145.74 132.86 146.76 C 133.07 147.77 134.07 148.42 135.09 148.21 Z M 136.11 147.99 L 137.08 147.78 C 138.09 147.56 138.73 146.55 138.51 145.54 C 138.29 144.52 137.28 143.88 136.27 144.11 L 135.30 144.32 C 134.29 144.54 133.65 145.55 133.87 146.56 C 134.09 147.58 135.10 148.22 136.11 147.99 Z M 137.09 147.78 L 138.04 147.56 C 139.05 147.33 139.69 146.32 139.45 145.31 C 139.22 144.29 138.21 143.66 137.20 143.89 L 136.25 144.11 C 135.24 144.34 134.61 145.35 134.84 146.36 C 135.07 147.37 136.08 148.01 137.09 147.78 Z M 138.05 147.56 L 139.01 147.33 C 140.03 147.10 140.66 146.09 140.42 145.08 C 140.19 144.07 139.18 143.44 138.16 143.67 L 137.20 143.90 C 136.18 144.13 135.55 145.14 135.79 146.15 C 136.02 147.16 137.03 147.79 138.05 147.56 Z M 139.01 147.33 L 140.01 147.10 C 141.02 146.87 141.65 145.86 141.41 144.85 C 141.18 143.84 140.17 143.21 139.16 143.44 L 138.17 143.67 C 137.15 143.91 136.53 144.91 136.76 145.93 C 136.99 146.94 138.00 147.57 139.01 147.33 Z M 140.00 147.10 L 141.01 146.87 C 142.02 146.64 142.66 145.64 142.43 144.62 C 142.19 143.61 141.19 142.98 140.18 143.21 L 139.17 143.44 C 138.15 143.67 137.52 144.68 137.75 145.69 C 137.98 146.70 138.99 147.33 140.00 147.10 Z M 141.00 146.87 L 141.97 146.66 C 142.98 146.43 143.61 145.43 143.39 144.42 C 143.17 143.41 142.16 142.77 141.15 143.00 L 140.19 143.21 C 139.18 143.43 138.54 144.44 138.76 145.45 C 138.99 146.46 139.99 147.10 141.00 146.87 Z M 141.96 146.66 L 142.94 146.44 C 143.95 146.22 144.59 145.22 144.37 144.21 C 144.15 143.20 143.15 142.56 142.14 142.78 L 141.16 143.00 C 140.15 143.22 139.51 144.22 139.73 145.23 C 139.95 146.24 140.95 146.88 141.96 146.66 Z M 142.94 146.44 L 143.92 146.23 C 144.93 146.01 145.57 145.01 145.35 144.00 C 145.14 142.99 144.14 142.35 143.13 142.57 L 142.14 142.78 C 141.13 143.00 140.49 144.00 140.71 145.01 C 140.93 146.02 141.93 146.66 142.94 146.44 Z M 143.92 146.22 L 144.91 146.01 C 145.92 145.79 146.55 144.80 146.33 143.79 C 146.12 142.78 145.12 142.14 144.11 142.36 L 143.13 142.57 C 142.12 142.79 141.48 143.79 141.70 144.80 C 141.92 145.81 142.92 146.44 143.92 146.22 Z M 144.91 146.01 L 145.89 145.79 C 146.90 145.57 147.53 144.57 147.31 143.57 C 147.09 142.56 146.09 141.92 145.08 142.15 L 144.11 142.36 C 143.10 142.58 142.46 143.58 142.69 144.59 C 142.91 145.59 143.91 146.23 144.91 146.01 Z M 145.90 145.79 L 146.89 145.56 C 147.90 145.34 148.53 144.34 148.30 143.33 C 148.08 142.33 147.08 141.70 146.08 141.93 L 145.08 142.15 C 144.07 142.38 143.44 143.37 143.67 144.38 C 143.90 145.38 144.89 146.01 145.90 145.79 Z M 146.90 145.56 L 147.88 145.33 C 148.88 145.11 149.51 144.11 149.28 143.11 C 149.05 142.11 148.05 141.48 147.05 141.71 L 146.07 141.93 C 145.07 142.16 144.44 143.16 144.67 144.16 C 144.90 145.16 145.90 145.79 146.90 145.56 Z M 147.88 145.33 L 148.85 145.11 C 149.85 144.88 150.47 143.89 150.24 142.89 C 150.02 141.89 149.02 141.26 148.02 141.49 L 147.05 141.71 C 146.05 141.94 145.43 142.93 145.66 143.93 C 145.88 144.93 146.88 145.56 147.88 145.33 Z M 148.84 145.11 L 149.80 144.89 C 150.80 144.67 151.43 143.67 151.20 142.68 C 150.98 141.68 149.98 141.05 148.98 141.28 L 148.02 141.49 C 147.03 141.72 146.40 142.71 146.62 143.71 C 146.85 144.71 147.84 145.33 148.84 145.11 Z M 149.79 144.89 L 150.76 144.68 C 151.76 144.46 152.39 143.47 152.17 142.47 C 151.95 141.47 150.96 140.84 149.96 141.06 L 148.99 141.28 C 148.00 141.50 147.37 142.48 147.59 143.48 C 147.81 144.48 148.79 145.11 149.79 144.89 Z M 150.75 144.67 L 151.73 144.46 C 152.73 144.25 153.36 143.27 153.15 142.27 C 152.93 141.27 151.95 140.64 150.95 140.85 L 149.97 141.06 C 148.98 141.28 148.34 142.26 148.56 143.26 C 148.77 144.25 149.75 144.89 150.75 144.67 Z M 151.72 144.46 L 152.71 144.25 C 153.70 144.04 154.34 143.06 154.13 142.07 C 153.92 141.07 152.94 140.44 151.94 140.65 L 150.96 140.86 C 149.97 141.07 149.33 142.04 149.54 143.04 C 149.75 144.03 150.73 144.67 151.72 144.46 Z M 152.70 144.25 L 153.68 144.04 C 154.67 143.84 155.31 142.86 155.10 141.87 C 154.89 140.88 153.92 140.24 152.92 140.45 L 151.95 140.65 C 150.95 140.86 150.32 141.83 150.53 142.83 C 150.73 143.82 151.71 144.46 152.70 144.25 Z M 153.68 144.04 L 154.65 143.84 C 155.64 143.63 156.28 142.66 156.07 141.67 C 155.86 140.68 154.89 140.04 153.90 140.25 L 152.93 140.45 C 151.94 140.66 151.30 141.63 151.51 142.62 C 151.71 143.61 152.68 144.25 153.68 144.04 Z M 154.65 143.83 L 155.64 143.63 C 156.63 143.42 157.26 142.45 157.05 141.46 C 156.84 140.47 155.88 139.84 154.89 140.05 L 153.90 140.25 C 152.91 140.46 152.28 141.43 152.48 142.42 C 152.69 143.41 153.66 144.04 154.65 143.83 Z M 155.64 143.62 L 156.62 143.42 C 157.61 143.21 158.24 142.24 158.03 141.26 C 157.83 140.27 156.86 139.64 155.87 139.84 L 154.89 140.05 C 153.90 140.26 153.27 141.22 153.48 142.21 C 153.68 143.20 154.65 143.83 155.64 143.62 Z M 156.62 143.41 L 157.60 143.21 C 158.58 143.00 159.21 142.04 159.01 141.06 C 158.80 140.07 157.84 139.44 156.85 139.65 L 155.88 139.85 C 154.89 140.05 154.26 141.02 154.47 142.00 C 154.67 142.98 155.63 143.62 156.62 143.41 Z M 157.59 143.20 L 158.56 143.00 C 159.54 142.80 160.17 141.84 159.97 140.86 C 159.77 139.88 158.81 139.25 157.83 139.45 L 156.86 139.65 C 155.88 139.85 155.25 140.81 155.45 141.79 C 155.65 142.77 156.61 143.40 157.59 143.20 Z M 158.55 143.00 L 159.53 142.80 C 160.51 142.61 161.15 141.65 160.95 140.67 C 160.75 139.70 159.80 139.06 158.82 139.26 L 157.84 139.45 C 156.86 139.65 156.23 140.60 156.42 141.58 C 156.62 142.56 157.57 143.20 158.55 143.00 Z M 159.52 142.80 L 160.52 142.61 C 161.50 142.42 162.13 141.47 161.94 140.49 C 161.75 139.51 160.81 138.88 159.83 139.07 L 158.83 139.26 C 157.85 139.45 157.22 140.40 157.41 141.38 C 157.60 142.35 158.54 142.99 159.52 142.80 Z M 160.51 142.60 L 161.49 142.42 C 162.47 142.23 163.11 141.29 162.93 140.31 C 162.74 139.34 161.80 138.70 160.82 138.88 L 159.84 139.07 C 158.86 139.25 158.22 140.20 158.41 141.17 C 158.59 142.15 159.53 142.79 160.51 142.60 Z M 161.48 142.41 L 162.46 142.23 C 163.43 142.05 164.08 141.12 163.90 140.14 C 163.72 139.17 162.78 138.53 161.81 138.71 L 160.83 138.89 C 159.86 139.07 159.22 140.00 159.40 140.97 C 159.58 141.95 160.51 142.59 161.48 142.41 Z M 162.45 142.23 L 163.42 142.05 C 164.39 141.88 165.04 140.95 164.86 139.98 C 164.69 139.01 163.76 138.36 162.79 138.54 L 161.82 138.71 C 160.85 138.88 160.20 139.81 160.38 140.78 C 160.55 141.76 161.48 142.40 162.45 142.23 Z M 163.41 142.05 L 164.40 141.88 C 165.37 141.71 166.02 140.79 165.85 139.82 C 165.68 138.85 164.76 138.20 163.79 138.37 L 162.80 138.54 C 161.83 138.71 161.18 139.63 161.35 140.60 C 161.52 141.57 162.44 142.22 163.41 142.05 Z M 164.39 141.87 L 165.38 141.70 C 166.35 141.54 167.00 140.62 166.83 139.66 C 166.67 138.69 165.75 138.04 164.78 138.20 L 163.80 138.37 C 162.83 138.54 162.18 139.45 162.35 140.42 C 162.51 141.39 163.43 142.04 164.39 141.87 Z M 165.37 141.70 L 166.35 141.54 C 167.32 141.37 167.97 140.46 167.81 139.50 C 167.65 138.53 166.73 137.88 165.77 138.05 L 164.79 138.21 C 163.82 138.37 163.17 139.28 163.34 140.25 C 163.50 141.21 164.41 141.86 165.37 141.70 Z M 166.35 141.53 L 167.33 141.37 C 168.29 141.21 168.94 140.30 168.78 139.34 C 168.63 138.38 167.72 137.73 166.76 137.89 L 165.77 138.05 C 164.81 138.21 164.16 139.12 164.32 140.08 C 164.48 141.04 165.39 141.69 166.35 141.53 Z M 167.33 141.36 L 168.27 141.21 C 169.23 141.05 169.88 140.15 169.72 139.19 C 169.56 138.23 168.66 137.58 167.70 137.74 L 166.76 137.89 C 165.80 138.05 165.15 138.95 165.31 139.91 C 165.47 140.87 166.37 141.52 167.33 141.36 Z M 168.26 141.20 L 169.22 141.05 C 170.18 140.90 170.83 140.00 170.68 139.05 C 170.52 138.09 169.63 137.44 168.67 137.59 L 167.71 137.75 C 166.76 137.90 166.11 138.80 166.26 139.75 C 166.41 140.71 167.31 141.36 168.26 141.20 Z M 169.21 141.04 L 170.21 140.89 C 171.16 140.74 171.81 139.85 171.66 138.90 C 171.51 137.95 170.62 137.30 169.67 137.45 L 168.68 137.60 C 167.73 137.75 167.08 138.64 167.23 139.59 C 167.37 140.54 168.26 141.19 169.21 141.04 Z M 170.19 140.88 L 171.23 140.73 C 172.17 140.59 172.83 139.71 172.69 138.76 C 172.55 137.81 171.66 137.16 170.72 137.30 L 169.68 137.45 C 168.74 137.59 168.08 138.48 168.22 139.42 C 168.36 140.37 169.25 141.02 170.19 140.88 Z M 171.21 140.72 L 172.20 140.58 C 173.15 140.45 173.81 139.58 173.67 138.63 C 173.54 137.69 172.66 137.03 171.72 137.16 L 170.73 137.30 C 169.78 137.44 169.13 138.31 169.26 139.26 C 169.40 140.20 170.27 140.86 171.21 140.72 Z M 172.19 140.58 L 173.17 140.45 C 174.11 140.32 174.77 139.46 174.65 138.51 C 174.52 137.57 173.65 136.91 172.71 137.04 L 171.73 137.17 C 170.79 137.29 170.13 138.16 170.25 139.10 C 170.38 140.05 171.25 140.71 172.19 140.58 Z M 173.16 140.45 L 174.16 140.32 C 175.10 140.20 175.76 139.34 175.65 138.40 C 175.53 137.46 174.67 136.79 173.73 136.91 L 172.73 137.04 C 171.79 137.16 171.12 138.02 171.24 138.96 C 171.36 139.90 172.21 140.56 173.16 140.45 Z M 174.14 140.32 L 175.15 140.20 C 176.09 140.09 176.76 139.24 176.65 138.30 C 176.54 137.36 175.69 136.69 174.76 136.80 L 173.75 136.92 C 172.81 137.02 172.13 137.87 172.24 138.81 C 172.35 139.75 173.20 140.43 174.14 140.32 Z M 175.13 140.20 L 176.14 140.09 C 177.07 139.99 177.75 139.15 177.65 138.22 C 177.56 137.28 176.72 136.60 175.78 136.70 L 174.77 136.80 C 173.84 136.90 173.16 137.74 173.26 138.68 C 173.35 139.61 174.19 140.29 175.13 140.20 Z M 176.10 140.09 L 177.35 139.98 C 178.28 139.90 178.98 139.07 178.89 138.14 C 178.81 137.20 177.99 136.51 177.06 136.59 L 175.81 136.70 C 174.88 136.78 174.18 137.60 174.27 138.54 C 174.35 139.47 175.17 140.17 176.10 140.09 Z M 177.26 139.97 L 178.44 139.93 C 179.38 139.90 180.11 139.12 180.08 138.19 C 180.05 137.26 179.27 136.53 178.34 136.56 L 177.15 136.60 C 176.22 136.63 175.49 137.41 175.52 138.34 C 175.55 139.27 176.33 140.00 177.26 139.97 Z M 178.19 139.91 L 179.07 140.02 C 179.99 140.13 180.82 139.47 180.93 138.55 C 181.04 137.64 180.39 136.80 179.47 136.69 L 178.59 136.58 C 177.67 136.47 176.84 137.13 176.73 138.05 C 176.62 138.97 177.27 139.80 178.19 139.91 Z M 178.26 139.68 L 178.69 140.00 C 179.42 140.55 180.46 140.41 181.02 139.68 C 181.57 138.95 181.43 137.90 180.70 137.35 L 180.28 137.03 C 179.55 136.47 178.50 136.62 177.95 137.35 C 177.39 138.08 177.53 139.12 178.26 139.68 Z M 178.09 138.26 L 177.93 138.87 C 177.71 139.76 178.24 140.66 179.12 140.89 C 180.01 141.11 180.91 140.58 181.14 139.70 L 181.29 139.09 C 181.52 138.20 180.99 137.30 180.11 137.07 C 179.22 136.84 178.32 137.38 178.09 138.26 Z M 178.25 138.25 L 177.61 139.04 C 177.04 139.75 177.15 140.79 177.86 141.36 C 178.57 141.93 179.61 141.82 180.18 141.11 L 180.82 140.32 C 181.39 139.61 181.28 138.57 180.57 138.00 C 179.86 137.43 178.82 137.54 178.25 138.25 Z M 177.78 138.87 L 176.85 139.74 C 176.18 140.36 176.14 141.40 176.76 142.06 C 177.38 142.73 178.41 142.76 179.08 142.15 L 180.01 141.28 C 180.68 140.66 180.72 139.63 180.10 138.96 C 179.48 138.30 178.44 138.26 177.78 138.87 Z M 176.93 139.67 L 176.11 140.33 C 175.41 140.90 175.30 141.93 175.87 142.63 C 176.43 143.34 177.46 143.45 178.17 142.88 L 178.99 142.22 C 179.69 141.65 179.80 140.62 179.24 139.92 C 178.67 139.21 177.64 139.10 176.93 139.67 Z M 176.17 140.29 L 175.37 140.88 C 174.64 141.42 174.49 142.44 175.02 143.17 C 175.56 143.90 176.59 144.05 177.31 143.51 L 178.11 142.92 C 178.84 142.39 179.00 141.36 178.46 140.63 C 177.92 139.91 176.90 139.75 176.17 140.29 Z M 175.41 140.85 L 174.58 141.42 C 173.84 141.94 173.66 142.96 174.17 143.70 C 174.69 144.45 175.71 144.63 176.45 144.11 L 177.28 143.54 C 178.02 143.03 178.20 142.01 177.69 141.26 C 177.17 140.52 176.15 140.34 175.41 140.85 Z M 174.61 141.41 L 173.77 141.97 C 173.02 142.47 172.82 143.48 173.32 144.24 C 173.82 144.99 174.84 145.19 175.59 144.69 L 176.43 144.13 C 177.18 143.63 177.38 142.61 176.88 141.86 C 176.38 141.11 175.36 140.91 174.61 141.41 Z M 173.78 141.96 L 173.15 142.37 C 172.40 142.87 172.19 143.88 172.68 144.64 C 173.18 145.40 174.20 145.61 174.95 145.11 L 175.58 144.70 C 176.34 144.20 176.55 143.19 176.05 142.43 C 175.55 141.67 174.54 141.46 173.78 141.96 Z"
      fill="black"
      fill-rule="nonzero" /><path d="M 115.86 184.63 L 116.89 184.54 C 117.93 184.45 118.70 183.54 118.62 182.50 C 118.53 181.46 117.62 180.69 116.58 180.78 L 115.54 180.86 C 114.50 180.95 113.73 181.86 113.82 182.90 C 113.91 183.94 114.82 184.71 115.86 184.63 Z M 116.90 184.56 L 117.93 184.47 C 118.98 184.38 119.76 183.45 119.66 182.40 C 119.57 181.35 118.65 180.57 117.59 180.66 L 116.57 180.75 C 115.52 180.84 114.74 181.77 114.83 182.82 C 114.92 183.88 115.85 184.65 116.90 184.56 Z M 117.94 184.49 L 118.94 184.40 C 120.01 184.30 120.79 183.35 120.69 182.29 C 120.59 181.22 119.64 180.44 118.58 180.55 L 117.58 180.64 C 116.51 180.74 115.73 181.69 115.83 182.75 C 115.94 183.81 116.88 184.59 117.94 184.49 Z M 118.97 184.42 L 119.93 184.32 C 121.01 184.20 121.79 183.23 121.67 182.16 C 121.55 181.08 120.59 180.30 119.51 180.42 L 118.55 180.52 C 117.48 180.64 116.70 181.61 116.81 182.68 C 116.93 183.76 117.89 184.54 118.97 184.42 Z M 119.97 184.33 L 120.94 184.21 C 122.02 184.07 122.79 183.08 122.66 182.00 C 122.52 180.92 121.53 180.15 120.45 180.28 L 119.48 180.41 C 118.39 180.54 117.62 181.53 117.76 182.62 C 117.90 183.70 118.89 184.47 119.97 184.33 Z M 120.98 184.21 L 121.98 184.06 C 123.07 183.90 123.82 182.89 123.66 181.81 C 123.50 180.72 122.49 179.97 121.40 180.13 L 120.40 180.28 C 119.32 180.44 118.57 181.45 118.73 182.54 C 118.89 183.62 119.90 184.37 120.98 184.21 Z M 122.02 184.06 L 122.99 183.90 C 124.07 183.72 124.80 182.69 124.62 181.61 C 124.44 180.52 123.42 179.79 122.33 179.97 L 121.36 180.14 C 120.28 180.32 119.55 181.34 119.73 182.43 C 119.91 183.51 120.94 184.24 122.02 184.06 Z M 123.01 183.90 L 123.98 183.72 C 125.06 183.53 125.78 182.49 125.59 181.41 C 125.40 180.33 124.36 179.61 123.28 179.80 L 122.31 179.98 C 121.23 180.17 120.51 181.21 120.70 182.29 C 120.90 183.37 121.93 184.09 123.01 183.90 Z M 123.99 183.72 L 124.94 183.55 C 126.02 183.35 126.74 182.31 126.54 181.23 C 126.34 180.15 125.30 179.43 124.22 179.63 L 123.27 179.80 C 122.19 180.00 121.47 181.04 121.67 182.12 C 121.87 183.20 122.91 183.92 123.99 183.72 Z M 124.94 183.55 L 125.87 183.38 C 126.96 183.18 127.67 182.14 127.47 181.06 C 127.27 179.97 126.23 179.26 125.15 179.46 L 124.22 179.63 C 123.14 179.83 122.42 180.87 122.62 181.95 C 122.82 183.03 123.86 183.75 124.94 183.55 Z M 125.88 183.38 L 126.85 183.19 C 127.93 182.99 128.65 181.95 128.44 180.87 C 128.24 179.78 127.20 179.07 126.11 179.27 L 125.14 179.46 C 124.06 179.66 123.35 180.70 123.55 181.78 C 123.76 182.87 124.80 183.58 125.88 183.38 Z M 126.86 183.19 L 127.87 183.00 C 128.95 182.79 129.66 181.74 129.45 180.66 C 129.24 179.58 128.19 178.87 127.11 179.08 L 126.10 179.28 C 125.02 179.49 124.31 180.53 124.52 181.61 C 124.73 182.70 125.78 183.40 126.86 183.19 Z M 127.89 182.99 L 128.94 182.78 C 130.02 182.56 130.72 181.51 130.50 180.43 C 130.28 179.35 129.23 178.65 128.15 178.87 L 127.10 179.08 C 126.02 179.30 125.32 180.36 125.54 181.43 C 125.76 182.51 126.81 183.21 127.89 182.99 Z M 128.96 182.78 L 129.88 182.58 C 130.96 182.35 131.65 181.29 131.42 180.21 C 131.19 179.13 130.13 178.45 129.05 178.68 L 128.13 178.87 C 127.05 179.10 126.36 180.16 126.59 181.24 C 126.82 182.32 127.88 183.01 128.96 182.78 Z M 129.90 182.58 L 130.85 182.37 C 131.92 182.13 132.60 181.06 132.36 179.99 C 132.13 178.91 131.06 178.23 129.99 178.47 L 129.04 178.68 C 127.96 178.92 127.28 179.98 127.52 181.06 C 127.76 182.13 128.82 182.81 129.90 182.58 Z M 130.86 182.36 L 131.83 182.14 C 132.91 181.90 133.58 180.83 133.33 179.75 C 133.09 178.68 132.02 178.01 130.95 178.25 L 129.97 178.47 C 128.90 178.72 128.23 179.79 128.47 180.86 C 128.72 181.94 129.79 182.61 130.86 182.36 Z M 131.84 182.14 L 132.84 181.90 C 133.91 181.65 134.58 180.58 134.33 179.51 C 134.08 178.44 133.00 177.77 131.93 178.02 L 130.93 178.26 C 129.86 178.51 129.20 179.58 129.45 180.65 C 129.70 181.72 130.77 182.39 131.84 182.14 Z M 132.85 181.90 L 133.87 181.66 C 134.94 181.40 135.60 180.32 135.34 179.25 C 135.08 178.18 134.01 177.52 132.94 177.78 L 131.92 178.02 C 130.85 178.28 130.19 179.36 130.45 180.43 C 130.70 181.50 131.78 182.16 132.85 181.90 Z M 133.88 181.65 L 134.84 181.42 C 135.91 181.16 136.56 180.08 136.30 179.01 C 136.04 177.94 134.96 177.29 133.89 177.55 L 132.93 177.78 C 131.86 178.04 131.21 179.12 131.47 180.19 C 131.73 181.26 132.81 181.92 133.88 181.65 Z M 134.85 181.41 L 135.80 181.18 C 136.86 180.91 137.51 179.83 137.24 178.76 C 136.98 177.70 135.90 177.05 134.83 177.31 L 133.88 177.55 C 132.82 177.82 132.17 178.90 132.43 179.97 C 132.70 181.03 133.78 181.68 134.85 181.41 Z M 135.81 181.17 L 136.77 180.93 C 137.83 180.66 138.47 179.57 138.20 178.51 C 137.93 177.44 136.85 176.80 135.78 177.07 L 134.82 177.32 C 133.75 177.59 133.11 178.67 133.38 179.74 C 133.66 180.80 134.74 181.45 135.81 181.17 Z M 136.78 180.92 L 137.75 180.67 C 138.81 180.39 139.45 179.30 139.17 178.24 C 138.89 177.18 137.80 176.54 136.74 176.82 L 135.77 177.08 C 134.71 177.35 134.07 178.44 134.35 179.51 C 134.63 180.57 135.72 181.20 136.78 180.92 Z M 137.76 180.66 L 138.75 180.40 C 139.81 180.11 140.44 179.02 140.15 177.96 C 139.86 176.90 138.77 176.27 137.71 176.56 L 136.73 176.83 C 135.67 177.11 135.04 178.20 135.33 179.26 C 135.61 180.32 136.70 180.95 137.76 180.66 Z M 138.76 180.39 L 139.75 180.12 C 140.81 179.82 141.43 178.73 141.14 177.67 C 140.84 176.61 139.75 175.99 138.69 176.29 L 137.70 176.56 C 136.64 176.86 136.02 177.96 136.31 179.01 C 136.61 180.07 137.71 180.69 138.76 180.39 Z M 139.77 180.11 L 140.72 179.84 C 141.78 179.54 142.38 178.44 142.08 177.38 C 141.78 176.33 140.68 175.72 139.62 176.02 L 138.67 176.29 C 137.62 176.60 137.01 177.70 137.31 178.75 C 137.62 179.81 138.72 180.41 139.77 180.11 Z M 140.74 179.83 L 141.69 179.55 C 142.74 179.24 143.34 178.14 143.03 177.09 C 142.72 176.04 141.61 175.44 140.56 175.75 L 139.61 176.03 C 138.56 176.34 137.96 177.44 138.27 178.49 C 138.58 179.54 139.68 180.14 140.74 179.83 Z M 141.70 179.55 L 142.65 179.26 C 143.70 178.94 144.29 177.83 143.97 176.79 C 143.66 175.74 142.55 175.15 141.50 175.46 L 140.55 175.75 C 139.50 176.07 138.91 177.18 139.23 178.22 C 139.54 179.27 140.65 179.86 141.70 179.55 Z M 142.66 179.25 L 143.62 178.95 C 144.67 178.63 145.25 177.52 144.93 176.48 C 144.61 175.44 143.50 174.85 142.45 175.17 L 141.49 175.47 C 140.45 175.79 139.87 176.90 140.19 177.94 C 140.51 178.99 141.62 179.57 142.66 179.25 Z M 143.63 178.95 L 144.59 178.65 C 145.63 178.32 146.21 177.21 145.88 176.17 C 145.56 175.13 144.45 174.55 143.41 174.88 L 142.44 175.18 C 141.40 175.51 140.82 176.62 141.15 177.66 C 141.48 178.70 142.59 179.28 143.63 178.95 Z M 144.60 178.64 L 145.56 178.33 C 146.60 178.00 147.17 176.89 146.84 175.85 C 146.51 174.82 145.40 174.24 144.36 174.57 L 143.40 174.88 C 142.36 175.21 141.79 176.32 142.12 177.36 C 142.45 178.40 143.56 178.97 144.60 178.64 Z M 145.57 178.33 L 146.51 178.02 C 147.55 177.69 148.12 176.58 147.78 175.54 C 147.45 174.51 146.34 173.94 145.30 174.27 L 144.36 174.58 C 143.32 174.91 142.75 176.02 143.09 177.06 C 143.42 178.10 144.53 178.66 145.57 178.33 Z M 146.52 178.02 L 147.46 177.71 C 148.49 177.38 149.05 176.26 148.72 175.23 C 148.38 174.20 147.27 173.63 146.23 173.97 L 145.30 174.28 C 144.26 174.62 143.70 175.73 144.04 176.76 C 144.37 177.79 145.49 178.36 146.52 178.02 Z M 147.46 177.71 L 148.40 177.40 C 149.43 177.05 149.99 175.94 149.65 174.91 C 149.31 173.88 148.20 173.32 147.17 173.66 L 146.23 173.98 C 145.20 174.32 144.64 175.43 144.98 176.46 C 145.32 177.49 146.43 178.05 147.46 177.71 Z M 148.41 177.39 L 149.36 177.07 C 150.38 176.73 150.94 175.61 150.59 174.59 C 150.25 173.56 149.13 173.01 148.11 173.35 L 147.16 173.67 C 146.13 174.02 145.58 175.13 145.93 176.16 C 146.27 177.18 147.38 177.74 148.41 177.39 Z M 149.37 177.07 L 150.32 176.74 C 151.34 176.39 151.89 175.28 151.54 174.25 C 151.19 173.23 150.07 172.68 149.05 173.03 L 148.10 173.36 C 147.07 173.71 146.53 174.82 146.88 175.85 C 147.23 176.87 148.34 177.42 149.37 177.07 Z M 150.32 176.74 L 151.28 176.40 C 152.30 176.05 152.84 174.93 152.49 173.91 C 152.13 172.89 151.02 172.35 150.00 172.71 L 149.04 173.04 C 148.02 173.39 147.48 174.51 147.83 175.53 C 148.19 176.55 149.30 177.09 150.32 176.74 Z M 151.29 176.40 L 152.25 176.06 C 153.27 175.70 153.80 174.58 153.44 173.56 C 153.08 172.55 151.96 172.01 150.95 172.37 L 149.99 172.71 C 148.97 173.07 148.44 174.19 148.80 175.21 C 149.16 176.22 150.27 176.76 151.29 176.40 Z M 152.26 176.05 L 153.21 175.71 C 154.22 175.35 154.75 174.23 154.38 173.22 C 154.02 172.20 152.90 171.68 151.89 172.04 L 150.94 172.38 C 149.93 172.75 149.40 173.86 149.76 174.88 C 150.13 175.89 151.25 176.42 152.26 176.05 Z M 153.21 175.70 L 154.16 175.36 C 155.17 174.99 155.69 173.87 155.32 172.86 C 154.96 171.85 153.84 171.33 152.83 171.70 L 151.88 172.05 C 150.87 172.42 150.35 173.53 150.72 174.54 C 151.09 175.55 152.20 176.07 153.21 175.70 Z M 154.17 175.35 L 155.12 175.00 C 156.12 174.63 156.64 173.52 156.27 172.51 C 155.90 171.50 154.78 170.99 153.78 171.36 L 152.83 171.71 C 151.82 172.08 151.31 173.19 151.68 174.20 C 152.05 175.20 153.16 175.72 154.17 175.35 Z M 155.12 174.99 L 156.06 174.65 C 157.06 174.27 157.58 173.16 157.20 172.16 C 156.83 171.16 155.72 170.64 154.72 171.02 L 153.77 171.36 C 152.77 171.74 152.26 172.85 152.63 173.85 C 153.00 174.85 154.12 175.37 155.12 174.99 Z M 156.06 174.64 L 156.99 174.29 C 157.99 173.92 158.50 172.81 158.13 171.81 C 157.76 170.81 156.65 170.30 155.65 170.67 L 154.72 171.02 C 153.72 171.39 153.21 172.50 153.58 173.50 C 153.95 174.50 155.06 175.01 156.06 174.64 Z M 156.99 174.29 L 157.91 173.95 C 158.91 173.58 159.41 172.47 159.04 171.47 C 158.67 170.48 157.56 169.97 156.57 170.34 L 155.65 170.68 C 154.65 171.05 154.15 172.16 154.52 173.16 C 154.89 174.15 156.00 174.66 156.99 174.29 Z M 157.91 173.95 L 158.87 173.59 C 159.87 173.22 160.38 172.11 160.01 171.12 C 159.64 170.12 158.53 169.61 157.54 169.98 L 156.57 170.34 C 155.58 170.71 155.07 171.82 155.44 172.81 C 155.81 173.81 156.91 174.31 157.91 173.95 Z M 158.87 173.58 L 159.84 173.22 C 160.83 172.86 161.34 171.75 160.97 170.76 C 160.60 169.77 159.50 169.26 158.51 169.63 L 157.54 169.99 C 156.55 170.36 156.04 171.46 156.41 172.45 C 156.78 173.44 157.88 173.95 158.87 173.58 Z M 159.84 173.22 L 160.79 172.87 C 161.78 172.50 162.28 171.40 161.91 170.41 C 161.55 169.42 160.44 168.92 159.46 169.28 L 158.51 169.63 C 157.52 170.00 157.02 171.10 157.38 172.09 C 157.75 173.08 158.85 173.59 159.84 173.22 Z M 160.79 172.86 L 161.72 172.51 C 162.70 172.14 163.20 171.04 162.83 170.06 C 162.46 169.07 161.36 168.57 160.38 168.94 L 159.45 169.29 C 158.47 169.66 157.97 170.76 158.34 171.74 C 158.71 172.73 159.80 173.23 160.79 172.86 Z M 161.72 172.51 L 162.63 172.16 C 163.61 171.79 164.11 170.69 163.74 169.71 C 163.36 168.72 162.26 168.23 161.28 168.60 L 160.37 168.95 C 159.39 169.32 158.90 170.42 159.27 171.40 C 159.64 172.38 160.74 172.88 161.72 172.51 Z M 162.64 172.15 L 163.54 171.80 C 164.51 171.43 165.00 170.33 164.62 169.35 C 164.24 168.37 163.15 167.89 162.17 168.27 L 161.27 168.61 C 160.30 168.99 159.81 170.09 160.19 171.07 C 160.57 172.04 161.67 172.53 162.64 172.15 Z M 163.55 171.79 L 164.49 171.42 C 165.46 171.04 165.94 169.94 165.55 168.97 C 165.17 167.99 164.07 167.52 163.10 167.90 L 162.16 168.28 C 161.19 168.66 160.71 169.76 161.09 170.73 C 161.48 171.70 162.58 172.18 163.55 171.79 Z M 164.50 171.41 L 165.44 171.03 C 166.41 170.64 166.87 169.55 166.48 168.58 C 166.10 167.61 165.00 167.15 164.03 167.53 L 163.09 167.91 C 162.12 168.30 161.66 169.40 162.05 170.37 C 162.43 171.33 163.53 171.80 164.50 171.41 Z M 165.44 171.03 L 166.37 170.65 C 167.33 170.26 167.80 169.16 167.41 168.20 C 167.02 167.24 165.92 166.77 164.96 167.16 L 164.03 167.54 C 163.07 167.93 162.60 169.03 162.99 169.99 C 163.38 170.95 164.48 171.42 165.44 171.03 Z M 166.37 170.65 L 167.29 170.27 C 168.25 169.89 168.71 168.79 168.32 167.83 C 167.94 166.87 166.84 166.41 165.88 166.80 L 164.96 167.17 C 164.00 167.56 163.54 168.65 163.93 169.61 C 164.31 170.57 165.41 171.03 166.37 170.65 Z M 167.28 170.27 L 168.19 169.91 C 169.15 169.53 169.62 168.44 169.24 167.48 C 168.85 166.52 167.77 166.05 166.81 166.44 L 165.90 166.80 C 164.94 167.18 164.47 168.27 164.85 169.23 C 165.23 170.18 166.32 170.65 167.28 170.27 Z M 168.17 169.91 L 169.11 169.55 C 170.06 169.17 170.54 168.10 170.17 167.14 C 169.80 166.18 168.72 165.70 167.76 166.07 L 166.83 166.43 C 165.87 166.81 165.39 167.89 165.76 168.84 C 166.14 169.80 167.22 170.28 168.17 169.91 Z M 169.09 169.55 L 170.05 169.18 C 171.01 168.82 171.49 167.75 171.13 166.79 C 170.77 165.83 169.70 165.35 168.74 165.71 L 167.78 166.07 C 166.82 166.43 166.33 167.50 166.70 168.46 C 167.06 169.42 168.13 169.91 169.09 169.55 Z M 170.03 169.18 L 170.98 168.83 C 171.94 168.48 172.43 167.41 172.08 166.46 C 171.73 165.50 170.66 165.01 169.70 165.36 L 168.75 165.71 C 167.79 166.07 167.30 167.13 167.66 168.09 C 168.01 169.05 169.08 169.54 170.03 169.18 Z M 170.98 168.83 L 171.91 168.48 C 172.87 168.13 173.36 167.08 173.01 166.12 C 172.66 165.16 171.60 164.67 170.65 165.02 L 169.71 165.37 C 168.75 165.72 168.26 166.77 168.61 167.73 C 168.96 168.69 170.02 169.18 170.98 168.83 Z M 171.91 168.48 L 172.83 168.14 C 173.78 167.79 174.27 166.73 173.92 165.78 C 173.57 164.83 172.52 164.34 171.57 164.69 L 170.65 165.03 C 169.70 165.38 169.21 166.44 169.56 167.39 C 169.91 168.34 170.96 168.83 171.91 168.48 Z M 172.84 168.13 L 173.72 167.80 C 174.66 167.45 175.14 166.39 174.79 165.45 C 174.44 164.50 173.38 164.02 172.44 164.37 L 171.56 164.70 C 170.61 165.06 170.13 166.11 170.49 167.06 C 170.84 168.00 171.89 168.48 172.84 168.13 Z M 173.73 167.79 L 174.54 167.48 C 175.48 167.12 175.95 166.06 175.59 165.12 C 175.23 164.18 174.18 163.71 173.24 164.07 L 172.43 164.39 C 171.49 164.75 171.02 165.80 171.38 166.74 C 171.74 167.68 172.79 168.15 173.73 167.79 Z M 174.54 167.47 L 175.38 167.15 C 176.31 166.78 176.77 165.73 176.41 164.80 C 176.05 163.86 175.00 163.40 174.06 163.76 L 173.23 164.08 C 172.30 164.45 171.83 165.50 172.20 166.43 C 172.56 167.37 173.61 167.83 174.54 167.47 Z M 175.37 167.14 L 176.26 166.79 C 177.19 166.43 177.65 165.38 177.29 164.45 C 176.93 163.52 175.88 163.06 174.95 163.42 L 174.06 163.77 C 173.13 164.13 172.67 165.18 173.03 166.11 C 173.40 167.04 174.44 167.50 175.37 167.14 Z M 176.25 166.79 L 177.23 166.41 C 178.16 166.05 178.62 165.01 178.26 164.08 C 177.90 163.16 176.86 162.70 175.93 163.05 L 174.96 163.43 C 174.03 163.79 173.57 164.83 173.93 165.76 C 174.28 166.69 175.33 167.15 176.25 166.79 Z M 177.22 166.41 L 178.31 165.99 C 179.24 165.64 179.70 164.60 179.35 163.68 C 179.00 162.75 177.96 162.29 177.04 162.64 L 175.94 163.06 C 175.02 163.41 174.55 164.45 174.90 165.37 C 175.26 166.30 176.29 166.76 177.22 166.41 Z M 178.30 165.99 L 179.29 165.62 C 180.21 165.27 180.68 164.24 180.34 163.32 C 179.99 162.39 178.96 161.93 178.04 162.27 L 177.05 162.64 C 176.12 162.99 175.66 164.02 176.00 164.94 C 176.35 165.87 177.38 166.34 178.30 165.99 Z M 179.28 165.62 L 180.20 165.28 C 181.12 164.94 181.59 163.91 181.25 162.99 C 180.91 162.07 179.88 161.59 178.96 161.94 L 178.04 162.27 C 177.12 162.62 176.65 163.64 176.99 164.56 C 177.33 165.49 178.36 165.96 179.28 165.62 Z M 180.19 165.28 L 181.15 164.92 C 182.07 164.59 182.55 163.57 182.21 162.64 C 181.87 161.72 180.85 161.25 179.93 161.59 L 178.97 161.94 C 178.04 162.28 177.57 163.30 177.91 164.22 C 178.25 165.14 179.27 165.61 180.19 165.28 Z M 181.14 164.92 L 182.13 164.56 C 183.05 164.23 183.53 163.21 183.19 162.29 C 182.86 161.37 181.84 160.90 180.92 161.23 L 179.94 161.59 C 179.01 161.92 178.54 162.94 178.87 163.86 C 179.21 164.78 180.22 165.26 181.14 164.92 Z M 182.12 164.56 L 183.12 164.20 C 184.04 163.88 184.52 162.86 184.19 161.94 C 183.86 161.02 182.85 160.55 181.93 160.87 L 180.93 161.23 C 180.01 161.56 179.53 162.57 179.86 163.49 C 180.19 164.41 181.20 164.89 182.12 164.56 Z M 183.11 164.20 L 184.10 163.85 C 185.01 163.53 185.50 162.52 185.17 161.60 C 184.85 160.68 183.84 160.20 182.92 160.53 L 181.94 160.88 C 181.02 161.20 180.54 162.21 180.86 163.13 C 181.19 164.05 182.19 164.53 183.11 164.20 Z M 184.09 163.85 L 185.04 163.52 C 185.96 163.20 186.44 162.20 186.12 161.28 C 185.80 160.36 184.80 159.88 183.88 160.20 L 182.93 160.53 C 182.01 160.85 181.53 161.85 181.85 162.77 C 182.17 163.69 183.17 164.17 184.09 163.85 Z M 185.03 163.52 L 185.93 163.21 C 186.85 162.90 187.33 161.90 187.02 160.98 C 186.71 160.07 185.71 159.58 184.79 159.89 L 183.89 160.20 C 182.97 160.51 182.49 161.51 182.80 162.43 C 183.11 163.35 184.11 163.83 185.03 163.52 Z M 185.91 163.21 L 187.09 162.82 C 188.01 162.51 188.50 161.53 188.20 160.61 C 187.89 159.69 186.91 159.20 185.99 159.50 L 184.81 159.89 C 183.89 160.20 183.40 161.19 183.70 162.10 C 184.01 163.02 184.99 163.51 185.91 163.21 Z M 187.04 162.82 L 188.41 162.40 C 189.33 162.13 189.84 161.17 189.57 160.25 C 189.30 159.34 188.33 158.82 187.42 159.09 L 186.04 159.50 C 185.13 159.78 184.61 160.74 184.88 161.66 C 185.16 162.57 186.12 163.09 187.04 162.82 Z M 188.25 162.42 L 189.20 162.23 C 190.12 162.04 190.72 161.14 190.53 160.22 C 190.34 159.30 189.45 158.70 188.52 158.89 L 187.58 159.08 C 186.65 159.26 186.06 160.16 186.24 161.09 C 186.43 162.01 187.33 162.61 188.25 162.42 Z M 188.58 162.22 L 189.05 162.29 C 189.97 162.45 190.84 161.83 190.99 160.91 C 191.14 159.99 190.52 159.13 189.60 158.97 L 189.13 158.90 C 188.22 158.75 187.35 159.37 187.20 160.28 C 187.05 161.20 187.67 162.07 188.58 162.22 Z M 187.67 160.49 L 187.64 160.84 C 187.56 161.76 188.23 162.57 189.15 162.65 C 190.07 162.73 190.87 162.05 190.95 161.14 L 190.99 160.78 C 191.07 159.87 190.39 159.06 189.47 158.98 C 188.56 158.90 187.75 159.57 187.67 160.49 Z M 187.96 160.02 L 187.54 160.59 C 187.01 161.33 187.17 162.36 187.91 162.90 C 188.65 163.44 189.69 163.27 190.22 162.53 L 190.64 161.96 C 191.17 161.22 191.01 160.19 190.27 159.65 C 189.53 159.12 188.49 159.28 187.96 160.02 Z M 187.68 160.44 L 186.98 161.18 C 186.36 161.85 186.40 162.89 187.07 163.51 C 187.73 164.13 188.78 164.09 189.40 163.43 L 190.09 162.69 C 190.71 162.02 190.67 160.97 190.01 160.35 C 189.34 159.73 188.30 159.77 187.68 160.44 Z M 187.04 161.13 L 186.17 161.98 C 185.52 162.62 185.51 163.66 186.14 164.31 C 186.78 164.96 187.82 164.97 188.47 164.34 L 189.34 163.48 C 189.99 162.84 190.00 161.80 189.37 161.15 C 188.73 160.50 187.69 160.49 187.04 161.13 Z M 186.19 161.97 L 185.26 162.85 C 184.60 163.47 184.57 164.51 185.19 165.16 C 185.82 165.82 186.85 165.85 187.51 165.23 L 188.44 164.35 C 189.10 163.73 189.13 162.69 188.51 162.03 C 187.89 161.38 186.85 161.35 186.19 161.97 Z"
      fill="black"
      fill-rule="nonzero" /><path d="M 126.65 202.08 L 126.63 203.24 C 126.61 204.23 127.39 205.04 128.38 205.06 C 129.36 205.07 130.17 204.29 130.19 203.31 L 130.21 202.14 C 130.23 201.16 129.45 200.35 128.46 200.33 C 127.48 200.31 126.67 201.10 126.65 202.08 Z M 126.62 203.30 L 126.63 204.41 C 126.65 205.40 127.46 206.19 128.45 206.18 C 129.43 206.17 130.22 205.36 130.21 204.37 L 130.20 203.25 C 130.19 202.27 129.38 201.47 128.39 201.49 C 127.40 201.50 126.61 202.31 126.62 203.30 Z M 126.63 204.54 L 126.71 205.56 C 126.79 206.55 127.66 207.29 128.65 207.21 C 129.64 207.13 130.38 206.26 130.30 205.27 L 130.22 204.25 C 130.14 203.26 129.27 202.52 128.28 202.60 C 127.29 202.68 126.55 203.55 126.63 204.54 Z M 126.74 205.78 L 126.92 206.67 C 127.13 207.64 128.08 208.27 129.06 208.06 C 130.04 207.86 130.66 206.90 130.46 205.92 L 130.27 205.04 C 130.07 204.07 129.11 203.44 128.13 203.65 C 127.16 203.85 126.53 204.81 126.74 205.78 Z M 127.04 207.06 L 127.37 207.76 C 127.79 208.67 128.87 209.06 129.78 208.64 C 130.69 208.21 131.08 207.13 130.66 206.22 L 130.34 205.53 C 129.91 204.62 128.83 204.22 127.92 204.65 C 127.01 205.07 126.62 206.15 127.04 207.06 Z M 127.83 208.38 L 128.52 208.96 C 129.29 209.61 130.44 209.52 131.09 208.76 C 131.74 207.99 131.65 206.84 130.88 206.19 L 130.19 205.60 C 129.43 204.95 128.28 205.04 127.63 205.81 C 126.98 206.57 127.07 207.72 127.83 208.38 Z M 129.24 209.34 L 130.15 209.58 C 131.12 209.83 132.12 209.25 132.38 208.28 C 132.63 207.31 132.05 206.31 131.08 206.05 L 130.17 205.81 C 129.20 205.56 128.20 206.14 127.94 207.11 C 127.69 208.09 128.27 209.08 129.24 209.34 Z M 130.65 209.64 L 131.69 209.62 C 132.70 209.60 133.50 208.77 133.48 207.76 C 133.46 206.75 132.63 205.95 131.62 205.97 L 130.58 205.99 C 129.57 206.01 128.77 206.85 128.79 207.85 C 128.81 208.86 129.64 209.66 130.65 209.64 Z M 131.98 209.59 L 133.01 209.41 C 134.00 209.23 134.66 208.29 134.48 207.30 C 134.31 206.30 133.36 205.64 132.37 205.82 L 131.34 206.00 C 130.35 206.18 129.69 207.12 129.86 208.11 C 130.04 209.11 130.99 209.77 131.98 209.59 Z M 133.18 209.37 L 134.10 209.12 C 135.07 208.85 135.64 207.84 135.37 206.87 C 135.10 205.90 134.09 205.33 133.12 205.60 L 132.20 205.86 C 131.23 206.13 130.66 207.13 130.93 208.10 C 131.20 209.07 132.20 209.64 133.18 209.37 Z M 134.22 209.08 L 135.14 208.75 C 136.09 208.41 136.59 207.37 136.25 206.42 C 135.92 205.47 134.87 204.98 133.92 205.31 L 133.00 205.64 C 132.05 205.98 131.55 207.02 131.89 207.97 C 132.23 208.92 133.27 209.42 134.22 209.08 Z M 135.23 208.72 L 136.17 208.33 C 137.10 207.94 137.54 206.87 137.16 205.94 C 136.77 205.01 135.71 204.57 134.78 204.96 L 133.83 205.35 C 132.90 205.73 132.46 206.80 132.85 207.73 C 133.23 208.66 134.30 209.10 135.23 208.72 Z M 136.23 208.30 L 137.19 207.86 C 138.11 207.44 138.51 206.36 138.10 205.45 C 137.68 204.53 136.60 204.13 135.68 204.54 L 134.72 204.98 C 133.80 205.40 133.40 206.48 133.82 207.40 C 134.23 208.31 135.31 208.72 136.23 208.30 Z M 137.22 207.85 L 138.07 207.44 C 138.98 207.01 139.36 205.92 138.92 205.01 C 138.49 204.10 137.40 203.72 136.49 204.15 L 135.65 204.56 C 134.74 204.99 134.36 206.08 134.79 206.99 C 135.23 207.90 136.32 208.28 137.22 207.85 Z M 138.09 207.43 L 138.96 206.99 C 139.86 206.54 140.23 205.45 139.78 204.55 C 139.33 203.65 138.24 203.29 137.34 203.73 L 136.47 204.17 C 135.57 204.62 135.20 205.71 135.65 206.61 C 136.10 207.51 137.19 207.88 138.09 207.43 Z M 138.99 206.98 L 139.88 206.52 C 140.77 206.06 141.12 204.96 140.66 204.07 C 140.19 203.17 139.09 202.82 138.20 203.29 L 137.31 203.75 C 136.42 204.21 136.07 205.31 136.53 206.20 C 137.00 207.09 138.09 207.44 138.99 206.98 Z M 139.90 206.50 L 140.81 206.02 C 141.69 205.54 142.03 204.44 141.55 203.55 C 141.07 202.67 139.97 202.34 139.09 202.81 L 138.18 203.30 C 137.29 203.78 136.96 204.88 137.44 205.76 C 137.91 206.65 139.02 206.98 139.90 206.50 Z M 140.83 206.00 L 141.76 205.49 C 142.63 205.00 142.95 203.89 142.46 203.01 C 141.97 202.14 140.86 201.82 139.99 202.31 L 139.06 202.83 C 138.19 203.32 137.87 204.42 138.36 205.30 C 138.85 206.18 139.96 206.49 140.83 206.00 Z M 141.78 205.47 L 142.63 204.98 C 143.49 204.48 143.79 203.37 143.29 202.50 C 142.79 201.63 141.68 201.34 140.81 201.84 L 139.96 202.33 C 139.10 202.83 138.80 203.94 139.30 204.81 C 139.80 205.68 140.91 205.97 141.78 205.47 Z M 142.65 204.97 L 143.49 204.47 C 144.35 203.96 144.64 202.84 144.12 201.98 C 143.61 201.12 142.50 200.83 141.63 201.35 L 140.79 201.85 C 139.93 202.36 139.64 203.48 140.16 204.34 C 140.67 205.20 141.78 205.48 142.65 204.97 Z M 143.51 204.46 L 144.36 203.94 C 145.22 203.41 145.49 202.29 144.96 201.44 C 144.44 200.58 143.32 200.31 142.46 200.84 L 141.61 201.36 C 140.76 201.88 140.49 203.00 141.01 203.86 C 141.54 204.71 142.66 204.98 143.51 204.46 Z M 144.38 203.93 L 145.23 203.39 C 146.08 202.86 146.34 201.73 145.81 200.88 C 145.27 200.03 144.15 199.78 143.30 200.31 L 142.45 200.85 C 141.60 201.38 141.34 202.50 141.87 203.35 C 142.41 204.20 143.53 204.46 144.38 203.93 Z M 145.25 203.38 L 146.11 202.83 C 146.95 202.28 147.20 201.16 146.65 200.31 C 146.11 199.47 144.98 199.23 144.14 199.77 L 143.28 200.32 C 142.44 200.86 142.19 201.99 142.74 202.83 C 143.28 203.68 144.41 203.92 145.25 203.38 Z M 146.12 202.82 L 146.98 202.26 C 147.82 201.70 148.05 200.58 147.50 199.74 C 146.95 198.90 145.82 198.66 144.98 199.22 L 144.12 199.78 C 143.28 200.33 143.05 201.46 143.60 202.30 C 144.16 203.14 145.29 203.37 146.12 202.82 Z M 146.99 202.25 L 147.83 201.69 C 148.67 201.13 148.89 200.00 148.33 199.16 C 147.77 198.32 146.64 198.10 145.80 198.66 L 144.96 199.22 C 144.13 199.78 143.91 200.92 144.47 201.75 C 145.03 202.59 146.16 202.81 146.99 202.25 Z M 147.84 201.68 L 148.68 201.11 C 149.51 200.55 149.72 199.41 149.16 198.58 C 148.59 197.75 147.46 197.53 146.62 198.10 L 145.79 198.67 C 144.96 199.23 144.74 200.37 145.31 201.20 C 145.87 202.03 147.01 202.25 147.84 201.68 Z M 148.68 201.11 L 149.51 200.54 C 150.35 199.97 150.56 198.84 149.99 198.01 C 149.42 197.17 148.28 196.96 147.45 197.53 L 146.62 198.10 C 145.79 198.67 145.57 199.81 146.14 200.64 C 146.71 201.47 147.85 201.68 148.68 201.11 Z M 149.52 200.54 L 150.34 199.98 C 151.17 199.41 151.38 198.27 150.81 197.44 C 150.24 196.60 149.10 196.39 148.27 196.96 L 147.45 197.53 C 146.61 198.10 146.40 199.24 146.97 200.07 C 147.55 200.91 148.68 201.12 149.52 200.54 Z M 150.34 199.98 L 151.16 199.42 C 151.99 198.85 152.20 197.71 151.63 196.88 C 151.06 196.04 149.92 195.83 149.09 196.40 L 148.27 196.96 C 147.44 197.53 147.22 198.67 147.79 199.51 C 148.37 200.34 149.50 200.55 150.34 199.98 Z M 151.15 199.43 L 151.98 198.87 C 152.82 198.30 153.04 197.16 152.47 196.32 C 151.90 195.49 150.76 195.27 149.92 195.83 L 149.09 196.40 C 148.26 196.96 148.04 198.10 148.60 198.94 C 149.17 199.78 150.31 200.00 151.15 199.43 Z M 151.97 198.87 L 152.83 198.30 C 153.67 197.74 153.90 196.60 153.34 195.76 C 152.78 194.92 151.64 194.69 150.80 195.25 L 149.94 195.83 C 149.10 196.39 148.87 197.52 149.43 198.37 C 149.99 199.21 151.12 199.43 151.97 198.87 Z M 152.81 198.31 L 153.66 197.75 C 154.51 197.20 154.75 196.07 154.20 195.23 C 153.65 194.38 152.52 194.14 151.67 194.69 L 150.82 195.25 C 149.97 195.80 149.73 196.93 150.28 197.77 C 150.83 198.62 151.97 198.86 152.81 198.31 Z M 153.64 197.76 L 154.48 197.23 C 155.33 196.69 155.59 195.57 155.05 194.72 C 154.51 193.87 153.39 193.61 152.53 194.15 L 151.69 194.68 C 150.84 195.22 150.59 196.34 151.13 197.20 C 151.66 198.05 152.79 198.30 153.64 197.76 Z M 154.45 197.24 L 155.29 196.73 C 156.15 196.21 156.42 195.09 155.90 194.24 C 155.37 193.38 154.25 193.11 153.40 193.63 L 152.56 194.14 C 151.70 194.66 151.43 195.78 151.96 196.64 C 152.48 197.49 153.60 197.77 154.45 197.24 Z M 155.26 196.75 L 156.08 196.27 C 156.95 195.76 157.24 194.65 156.74 193.79 C 156.23 192.92 155.12 192.63 154.26 193.13 L 153.43 193.61 C 152.56 194.12 152.27 195.23 152.77 196.10 C 153.28 196.96 154.39 197.25 155.26 196.75 Z M 156.05 196.29 L 156.94 195.80 C 157.82 195.31 158.14 194.21 157.66 193.33 C 157.17 192.45 156.07 192.13 155.19 192.61 L 154.29 193.11 C 153.41 193.59 153.09 194.70 153.58 195.58 C 154.06 196.46 155.17 196.78 156.05 196.29 Z M 156.91 195.83 L 157.80 195.36 C 158.70 194.90 159.05 193.80 158.58 192.90 C 158.12 192.01 157.02 191.66 156.12 192.12 L 155.22 192.58 C 154.33 193.05 153.98 194.15 154.44 195.05 C 154.91 195.94 156.01 196.29 156.91 195.83 Z M 157.76 195.39 L 158.66 194.96 C 159.57 194.52 159.95 193.42 159.51 192.51 C 159.07 191.60 157.97 191.21 157.06 191.65 L 156.16 192.09 C 155.25 192.53 154.87 193.63 155.31 194.54 C 155.75 195.45 156.85 195.84 157.76 195.39 Z M 158.61 194.99 L 159.51 194.59 C 160.44 194.17 160.86 193.08 160.44 192.15 C 160.03 191.22 158.93 190.80 158.00 191.22 L 157.10 191.62 C 156.17 192.04 155.76 193.13 156.17 194.06 C 156.59 194.99 157.68 195.41 158.61 194.99 Z M 159.47 194.62 L 160.38 194.24 C 161.32 193.85 161.77 192.77 161.38 191.82 C 160.99 190.87 159.91 190.42 158.96 190.81 L 158.05 191.19 C 157.10 191.58 156.65 192.67 157.04 193.61 C 157.43 194.56 158.52 195.01 159.47 194.62 Z M 160.33 194.28 L 161.28 193.92 C 162.25 193.55 162.73 192.47 162.37 191.51 C 162.00 190.54 160.93 190.06 159.96 190.42 L 159.01 190.78 C 158.04 191.14 157.56 192.22 157.92 193.19 C 158.28 194.15 159.36 194.64 160.33 194.28 Z M 161.22 193.95 L 162.18 193.63 C 163.17 193.29 163.70 192.23 163.36 191.24 C 163.03 190.26 161.96 189.73 160.98 190.06 L 160.02 190.38 C 159.03 190.72 158.51 191.79 158.84 192.77 C 159.17 193.76 160.24 194.28 161.22 193.95 Z M 162.12 193.66 L 163.08 193.38 C 164.08 193.09 164.66 192.03 164.36 191.03 C 164.07 190.02 163.01 189.45 162.01 189.74 L 161.05 190.02 C 160.04 190.32 159.47 191.37 159.76 192.38 C 160.06 193.38 161.11 193.96 162.12 193.66 Z M 163.00 193.42 L 163.95 193.18 C 164.98 192.93 165.61 191.90 165.36 190.87 C 165.11 189.85 164.07 189.22 163.05 189.47 L 162.09 189.71 C 161.06 189.96 160.44 190.99 160.69 192.02 C 160.94 193.04 161.97 193.67 163.00 193.42 Z M 163.86 193.22 L 164.82 193.04 C 165.87 192.84 166.56 191.83 166.36 190.79 C 166.16 189.74 165.15 189.05 164.11 189.25 L 163.14 189.44 C 162.10 189.63 161.41 190.64 161.61 191.69 C 161.81 192.73 162.81 193.42 163.86 193.22 Z M 164.72 193.07 L 165.72 192.93 C 166.78 192.80 167.53 191.82 167.39 190.76 C 167.25 189.70 166.27 188.95 165.21 189.09 L 164.21 189.22 C 163.15 189.36 162.41 190.34 162.54 191.40 C 162.68 192.46 163.66 193.21 164.72 193.07 Z M 165.62 192.96 L 166.62 192.88 C 167.69 192.79 168.49 191.84 168.40 190.77 C 168.31 189.70 167.37 188.90 166.30 188.99 L 165.30 189.07 C 164.23 189.16 163.43 190.10 163.52 191.17 C 163.61 192.25 164.55 193.05 165.62 192.96 Z M 166.55 192.89 L 167.54 192.85 C 168.62 192.80 169.46 191.88 169.41 190.79 C 169.36 189.71 168.44 188.87 167.36 188.92 L 166.37 188.97 C 165.28 189.02 164.44 189.94 164.50 191.02 C 164.55 192.11 165.46 192.94 166.55 192.89 Z M 167.49 192.86 L 168.49 192.84 C 169.58 192.81 170.45 191.91 170.42 190.82 C 170.40 189.72 169.49 188.86 168.40 188.89 L 167.40 188.91 C 166.31 188.94 165.45 189.84 165.47 190.93 C 165.50 192.02 166.40 192.89 167.49 192.86 Z M 168.47 192.85 L 169.46 192.84 C 170.55 192.82 171.43 191.92 171.42 190.83 C 171.41 189.73 170.51 188.85 169.41 188.86 L 168.42 188.87 C 167.33 188.89 166.45 189.79 166.46 190.88 C 166.47 191.98 167.37 192.86 168.47 192.85 Z M 169.42 192.85 L 170.41 192.85 C 171.51 192.86 172.41 191.97 172.42 190.87 C 172.43 189.77 171.54 188.87 170.44 188.86 L 169.45 188.85 C 168.34 188.85 167.44 189.73 167.44 190.84 C 167.43 191.94 168.32 192.84 169.42 192.85 Z M 170.35 192.86 L 171.34 192.90 C 172.45 192.95 173.39 192.08 173.43 190.98 C 173.47 189.87 172.61 188.93 171.50 188.89 L 170.50 188.85 C 169.40 188.81 168.46 189.67 168.42 190.78 C 168.38 191.89 169.24 192.82 170.35 192.86 Z M 171.25 192.91 L 172.25 192.99 C 173.36 193.09 174.34 192.27 174.44 191.16 C 174.53 190.05 173.71 189.07 172.60 188.97 L 171.60 188.89 C 170.49 188.79 169.51 189.61 169.41 190.72 C 169.32 191.83 170.14 192.81 171.25 192.91 Z M 172.13 192.99 L 173.12 193.13 C 174.23 193.30 175.26 192.53 175.42 191.43 C 175.59 190.32 174.82 189.29 173.71 189.13 L 172.72 188.98 C 171.62 188.81 170.59 189.58 170.42 190.69 C 170.26 191.79 171.02 192.82 172.13 192.99 Z M 172.99 193.12 L 173.90 193.32 C 175.00 193.55 176.08 192.85 176.32 191.76 C 176.56 190.66 175.86 189.58 174.76 189.34 L 173.85 189.14 C 172.75 188.90 171.67 189.60 171.43 190.70 C 171.19 191.80 171.89 192.88 172.99 193.12 Z M 173.79 193.30 L 174.72 193.55 C 175.80 193.85 176.93 193.21 177.23 192.13 C 177.53 191.04 176.89 189.91 175.80 189.61 L 174.87 189.36 C 173.79 189.06 172.66 189.70 172.36 190.78 C 172.06 191.87 172.70 193.00 173.79 193.30 Z M 174.62 193.53 L 175.56 193.84 C 176.64 194.19 177.80 193.61 178.15 192.53 C 178.50 191.46 177.92 190.30 176.84 189.95 L 175.90 189.64 C 174.82 189.28 173.66 189.87 173.31 190.94 C 172.96 192.02 173.54 193.18 174.62 193.53 Z M 175.49 193.82 L 176.46 194.18 C 177.53 194.58 178.71 194.03 179.10 192.97 C 179.50 191.91 178.96 190.72 177.89 190.33 L 176.92 189.97 C 175.86 189.57 174.67 190.11 174.28 191.18 C 173.88 192.24 174.42 193.42 175.49 193.82 Z M 176.40 194.16 L 177.40 194.57 C 178.46 195.00 179.66 194.49 180.09 193.44 C 180.52 192.38 180.01 191.18 178.95 190.75 L 177.95 190.35 C 176.90 189.92 175.70 190.43 175.27 191.48 C 174.84 192.53 175.35 193.74 176.40 194.16 Z M 177.36 194.56 L 178.29 194.95 C 179.33 195.40 180.55 194.92 181.00 193.87 C 181.45 192.83 180.96 191.61 179.92 191.16 L 178.99 190.76 C 177.95 190.31 176.73 190.80 176.28 191.85 C 175.83 192.89 176.32 194.11 177.36 194.56 Z M 178.26 194.95 L 179.20 195.36 C 180.25 195.83 181.47 195.36 181.93 194.31 C 182.39 193.27 181.92 192.05 180.88 191.59 L 179.94 191.17 C 178.90 190.71 177.68 191.18 177.21 192.22 C 176.75 193.26 177.22 194.48 178.26 194.95 Z M 179.19 195.36 L 180.13 195.78 C 181.17 196.25 182.40 195.79 182.87 194.75 C 183.34 193.71 182.87 192.49 181.83 192.02 L 180.89 191.59 C 179.85 191.12 178.63 191.59 178.16 192.63 C 177.69 193.67 178.15 194.89 179.19 195.36 Z M 180.13 195.78 L 181.05 196.20 C 182.09 196.67 183.32 196.21 183.79 195.17 C 184.26 194.13 183.80 192.91 182.76 192.43 L 181.84 192.02 C 180.80 191.55 179.57 192.01 179.10 193.05 C 178.63 194.09 179.09 195.31 180.13 195.78 Z M 181.06 196.21 L 181.95 196.60 C 182.99 197.07 184.22 196.60 184.68 195.56 C 185.15 194.52 184.68 193.29 183.64 192.83 L 182.75 192.43 C 181.71 191.96 180.48 192.43 180.02 193.47 C 179.55 194.52 180.02 195.74 181.06 196.21 Z M 181.97 196.61 L 182.89 197.01 C 183.94 197.47 185.16 196.98 185.61 195.94 C 186.07 194.89 185.59 193.67 184.54 193.22 L 183.62 192.82 C 182.57 192.36 181.35 192.84 180.90 193.89 C 180.44 194.94 180.92 196.16 181.97 196.61 Z M 182.93 197.03 L 183.95 197.44 C 185.01 197.87 186.22 197.37 186.65 196.31 C 187.08 195.25 186.57 194.05 185.52 193.62 L 184.50 193.20 C 183.44 192.77 182.23 193.28 181.80 194.33 C 181.37 195.39 181.88 196.60 182.93 197.03 Z M 184.00 197.46 L 184.94 197.81 C 186.01 198.22 187.20 197.68 187.60 196.61 C 188.01 195.55 187.47 194.36 186.40 193.96 L 185.46 193.60 C 184.40 193.20 183.21 193.73 182.80 194.80 C 182.40 195.87 182.94 197.06 184.00 197.46 Z M 185.00 197.83 L 185.89 198.14 C 186.96 198.51 188.13 197.94 188.51 196.87 C 188.88 195.79 188.31 194.62 187.24 194.25 L 186.35 193.94 C 185.28 193.57 184.10 194.14 183.73 195.21 C 183.36 196.28 183.93 197.46 185.00 197.83 Z M 185.94 198.15 L 186.80 198.42 C 187.88 198.77 189.04 198.17 189.38 197.09 C 189.72 196.01 189.13 194.85 188.04 194.51 L 187.18 194.24 C 186.10 193.89 184.95 194.49 184.60 195.57 C 184.26 196.65 184.86 197.81 185.94 198.15 Z M 186.85 198.43 L 187.85 198.72 C 188.94 199.03 190.07 198.41 190.38 197.32 C 190.70 196.24 190.07 195.10 188.99 194.79 L 187.99 194.50 C 186.90 194.19 185.77 194.81 185.46 195.90 C 185.14 196.98 185.77 198.12 186.85 198.43 Z M 187.92 198.72 L 188.91 198.97 C 190.00 199.25 191.10 198.59 191.37 197.50 C 191.65 196.42 190.99 195.31 189.90 195.04 L 188.92 194.79 C 187.83 194.51 186.73 195.17 186.45 196.26 C 186.18 197.34 186.83 198.45 187.92 198.72 Z M 189.00 198.98 L 189.96 199.18 C 191.05 199.40 192.11 198.70 192.34 197.62 C 192.57 196.53 191.87 195.46 190.78 195.23 L 189.82 195.03 C 188.73 194.81 187.66 195.51 187.44 196.59 C 187.21 197.68 187.91 198.75 189.00 198.98 Z M 190.07 199.18 L 191.04 199.32 C 192.13 199.48 193.15 198.74 193.31 197.65 C 193.47 196.56 192.72 195.54 191.64 195.38 L 190.66 195.23 C 189.58 195.07 188.56 195.82 188.40 196.91 C 188.24 198.00 188.98 199.01 190.07 199.18 Z M 191.24 199.30 L 192.28 199.35 C 193.36 199.41 194.28 198.58 194.33 197.50 C 194.38 196.42 193.55 195.51 192.47 195.45 L 191.44 195.40 C 190.36 195.35 189.44 196.18 189.39 197.25 C 189.34 198.33 190.17 199.25 191.24 199.30 Z M 192.65 199.28 L 193.60 199.15 C 194.64 199.00 195.36 198.04 195.22 197.00 C 195.07 195.96 194.10 195.24 193.07 195.38 L 192.11 195.52 C 191.07 195.67 190.35 196.63 190.50 197.67 C 190.65 198.71 191.61 199.43 192.65 199.28 Z M 194.10 198.95 L 194.95 198.56 C 195.88 198.14 196.29 197.05 195.87 196.12 C 195.45 195.19 194.35 194.78 193.42 195.20 L 192.57 195.58 C 191.64 196.00 191.23 197.10 191.65 198.03 C 192.07 198.96 193.17 199.37 194.10 198.95 Z M 195.36 198.24 L 196.04 197.65 C 196.79 197.00 196.88 195.86 196.23 195.11 C 195.58 194.36 194.44 194.28 193.69 194.93 L 193.01 195.52 C 192.26 196.17 192.18 197.31 192.83 198.06 C 193.48 198.80 194.61 198.89 195.36 198.24 Z M 196.26 197.34 L 196.86 196.54 C 197.44 195.78 197.29 194.68 196.52 194.10 C 195.75 193.52 194.65 193.67 194.07 194.44 L 193.47 195.24 C 192.89 196.01 193.05 197.10 193.82 197.68 C 194.59 198.26 195.68 198.11 196.26 197.34 Z M 196.97 196.28 L 197.47 195.33 C 197.90 194.50 197.59 193.48 196.76 193.04 C 195.93 192.60 194.90 192.92 194.47 193.75 L 193.97 194.71 C 193.53 195.53 193.85 196.56 194.68 197.00 C 195.51 197.43 196.53 197.11 196.97 196.28 Z M 197.52 195.13 L 197.88 194.19 C 198.20 193.33 197.77 192.37 196.91 192.05 C 196.05 191.72 195.10 192.16 194.77 193.01 L 194.41 193.95 C 194.09 194.81 194.52 195.77 195.38 196.09 C 196.24 196.42 197.20 195.99 197.52 195.13 Z M 197.91 194.05 L 198.18 193.12 C 198.43 192.24 197.92 191.33 197.04 191.08 C 196.17 190.83 195.26 191.33 195.01 192.21 L 194.74 193.15 C 194.49 194.02 194.99 194.94 195.87 195.19 C 196.75 195.44 197.66 194.93 197.91 194.05 Z M 198.20 193.03 L 198.42 192.05 C 198.62 191.16 198.07 190.28 197.18 190.07 C 196.30 189.87 195.41 190.43 195.21 191.31 L 194.99 192.30 C 194.78 193.18 195.34 194.07 196.23 194.27 C 197.11 194.47 198.00 193.92 198.20 193.03 Z M 198.43 191.99 L 198.63 190.99 C 198.80 190.09 198.22 189.23 197.33 189.06 C 196.44 188.88 195.57 189.47 195.40 190.36 L 195.20 191.37 C 195.03 192.26 195.61 193.12 196.50 193.29 C 197.39 193.47 198.26 192.89 198.43 191.99 Z M 198.63 190.97 L 198.74 190.34 C 198.91 189.44 198.32 188.59 197.42 188.43 C 196.53 188.26 195.68 188.85 195.51 189.74 L 195.40 190.38 C 195.23 191.27 195.83 192.12 196.72 192.29 C 197.61 192.45 198.46 191.86 198.63 190.97 Z"
      fill="black"
      fill-rule="nonzero" /></svg>