<svg xmlns="http://www.w3.org/2000/svg" width="300" height="300" viewBox="0 0 300 300">
<path d="M 134.29 106.73 L 134.29 107.72 C 134.29 108.71 135.08 109.51 136.07 109.51 C 137.06 109.51 137.86 108.71 137.86 107.72 L 137.86 106.73 C 137.86 105.74 137.06 104.94 136.07 104.94 C 135.09 104.94 134.29 105.74 134.29 106.73 Z M 134.27 107.72 L 134.27 108.71 C 134.27 109.71 135.07 110.51 136.06 110.52 C 137.06 110.52 137.86 109.72 137.87 108.73 L 137.87 107.73 C 137.88 106.74 137.07 105.93 136.08 105.92 C 135.09 105.92 134.28 106.72 134.27 107.72 Z M 134.26 108.70 L 134.25 109.71 C 134.24 110.70 135.04 111.52 136.04 111.53 C 137.04 111.54 137.86 110.74 137.87 109.74 L 137.88 108.74 C 137.89 107.74 137.09 106.92 136.09 106.91 C 135.09 106.90 134.27 107.70 134.26 108.70 Z M 134.24 109.69 L 134.22 110.65 C 134.20 111.66 135.00 112.49 136.01 112.50 C 137.01 112.52 137.84 111.72 137.86 110.72 L 137.88 109.76 C 137.90 108.75 137.10 107.92 136.09 107.91 C 135.09 107.89 134.26 108.69 134.24 109.69 Z M 134.22 110.64 L 134.20 111.58 C 134.17 112.59 134.97 113.43 135.97 113.45 C 136.98 113.48 137.81 112.68 137.84 111.68 L 137.86 110.73 C 137.89 109.73 137.09 108.89 136.09 108.87 C 135.08 108.84 134.25 109.63 134.22 110.64 Z M 134.19 111.58 L 134.17 112.57 C 134.14 113.58 134.94 114.42 135.94 114.45 C 136.95 114.47 137.79 113.68 137.81 112.67 L 137.84 111.68 C 137.87 110.67 137.07 109.83 136.06 109.81 C 135.06 109.78 134.22 110.58 134.19 111.58 Z M 134.17 112.58 L 134.14 113.65 C 134.12 114.66 134.92 115.49 135.93 115.51 C 136.94 115.54 137.77 114.74 137.79 113.73 L 137.82 112.66 C 137.84 111.65 137.04 110.82 136.03 110.80 C 135.02 110.77 134.19 111.57 134.17 112.58 Z M 134.14 113.66 L 134.13 114.68 C 134.11 115.69 134.92 116.52 135.93 116.54 C 136.94 116.55 137.77 115.74 137.78 114.73 L 137.80 113.71 C 137.81 112.70 137.00 111.88 135.99 111.86 C 134.98 111.85 134.16 112.65 134.14 113.66 Z M 134.13 114.70 L 134.12 115.72 C 134.12 116.73 134.93 117.55 135.94 117.55 C 136.95 117.56 137.77 116.74 137.78 115.73 L 137.78 114.72 C 137.79 113.71 136.97 112.89 135.96 112.88 C 134.95 112.88 134.13 113.69 134.13 114.70 Z M 134.12 115.74 L 134.13 116.77 C 134.13 117.77 134.96 118.59 135.97 118.58 C 136.98 118.58 137.79 117.75 137.78 116.74 L 137.78 115.71 C 137.77 114.70 136.95 113.89 135.94 113.90 C 134.93 113.90 134.12 114.73 134.12 115.74 Z M 134.13 116.79 L 134.15 117.80 C 134.17 118.81 135.00 119.61 136.01 119.59 C 137.02 119.57 137.82 118.74 137.80 117.73 L 137.78 116.72 C 137.76 115.71 136.93 114.91 135.92 114.93 C 134.91 114.95 134.11 115.78 134.13 116.79 Z M 134.15 117.83 L 134.19 118.82 C 134.23 119.82 135.07 120.61 136.08 120.57 C 137.09 120.53 137.88 119.69 137.84 118.68 L 137.80 117.69 C 137.76 116.69 136.91 115.90 135.91 115.94 C 134.90 115.98 134.11 116.83 134.15 117.83 Z M 134.19 118.88 L 134.27 120.00 C 134.35 121.01 135.22 121.76 136.23 121.69 C 137.24 121.61 137.99 120.74 137.92 119.73 L 137.84 118.61 C 137.76 117.61 136.89 116.85 135.88 116.92 C 134.87 117.00 134.12 117.87 134.19 118.88 Z M 134.29 120.13 L 134.43 121.12 C 134.58 122.12 135.50 122.81 136.50 122.66 C 137.50 122.52 138.19 121.59 138.05 120.59 L 137.90 119.60 C 137.76 118.60 136.83 117.91 135.83 118.06 C 134.83 118.20 134.14 119.13 134.29 120.13 Z M 134.48 121.33 L 134.71 122.20 C 134.97 123.18 135.97 123.76 136.94 123.50 C 137.92 123.24 138.50 122.24 138.24 121.26 L 138.00 120.39 C 137.74 119.41 136.74 118.83 135.77 119.09 C 134.80 119.35 134.22 120.35 134.48 121.33 Z M 134.81 122.49 L 135.20 123.34 C 135.62 124.26 136.70 124.66 137.62 124.25 C 138.53 123.83 138.94 122.75 138.52 121.83 L 138.13 120.98 C 137.72 120.06 136.63 119.66 135.72 120.07 C 134.80 120.49 134.40 121.57 134.81 122.49 Z M 135.39 123.66 L 135.97 124.45 C 136.57 125.26 137.71 125.44 138.52 124.84 C 139.33 124.25 139.50 123.11 138.91 122.30 L 138.33 121.51 C 137.74 120.70 136.60 120.52 135.78 121.12 C 134.97 121.71 134.80 122.85 135.39 123.66 Z M 136.23 124.73 L 136.98 125.40 C 137.73 126.07 138.88 126.00 139.55 125.25 C 140.21 124.50 140.15 123.35 139.40 122.68 L 138.65 122.02 C 137.90 121.35 136.75 121.42 136.08 122.17 C 135.42 122.92 135.48 124.07 136.23 124.73 Z M 137.26 125.60 L 138.12 126.11 C 138.98 126.62 140.09 126.34 140.60 125.48 C 141.12 124.62 140.83 123.50 139.97 122.99 L 139.12 122.48 C 138.26 121.97 137.14 122.26 136.63 123.12 C 136.12 123.98 136.40 125.09 137.26 125.60 Z M 138.36 126.22 L 139.27 126.60 C 140.20 126.98 141.25 126.54 141.63 125.62 C 142.02 124.70 141.58 123.64 140.66 123.26 L 139.74 122.88 C 138.82 122.50 137.76 122.94 137.38 123.86 C 137.00 124.78 137.43 125.84 138.36 126.22 Z M 139.45 126.66 L 140.43 126.95 C 141.38 127.23 142.39 126.69 142.67 125.73 C 142.95 124.78 142.41 123.78 141.45 123.49 L 140.48 123.20 C 139.52 122.92 138.52 123.47 138.24 124.42 C 137.96 125.37 138.50 126.37 139.45 126.66 Z M 140.58 126.98 L 141.56 127.18 C 142.53 127.39 143.48 126.76 143.69 125.79 C 143.89 124.82 143.27 123.87 142.30 123.67 L 141.31 123.46 C 140.34 123.26 139.39 123.88 139.19 124.85 C 138.98 125.82 139.61 126.78 140.58 126.98 Z M 141.69 127.20 L 142.66 127.33 C 143.64 127.46 144.54 126.78 144.67 125.80 C 144.80 124.82 144.12 123.92 143.14 123.79 L 142.17 123.66 C 141.19 123.52 140.29 124.21 140.16 125.19 C 140.03 126.16 140.71 127.06 141.69 127.20 Z M 142.77 127.33 L 143.74 127.40 C 144.72 127.48 145.57 126.75 145.65 125.77 C 145.72 124.79 144.99 123.94 144.01 123.86 L 143.04 123.79 C 142.06 123.71 141.20 124.45 141.13 125.42 C 141.06 126.40 141.79 127.25 142.77 127.33 Z M 143.81 127.40 L 144.83 127.43 C 145.81 127.47 146.62 126.71 146.66 125.73 C 146.69 124.76 145.93 123.94 144.96 123.90 L 143.94 123.87 C 142.97 123.83 142.15 124.59 142.11 125.57 C 142.08 126.54 142.84 127.36 143.81 127.40 Z M 144.87 127.42 L 145.82 127.44 C 146.79 127.46 147.59 126.68 147.61 125.71 C 147.62 124.75 146.85 123.95 145.88 123.93 L 144.92 123.91 C 143.95 123.90 143.16 124.67 143.14 125.64 C 143.12 126.61 143.90 127.41 144.87 127.42 Z M 145.84 127.43 L 146.79 127.44 C 147.75 127.44 148.54 126.66 148.55 125.70 C 148.55 124.73 147.77 123.95 146.81 123.94 L 145.86 123.94 C 144.89 123.93 144.11 124.71 144.10 125.68 C 144.10 126.64 144.88 127.43 145.84 127.43 Z M 146.81 127.43 L 147.82 127.42 C 148.78 127.41 149.55 126.63 149.54 125.67 C 149.53 124.71 148.75 123.93 147.79 123.94 L 146.78 123.95 C 145.82 123.96 145.05 124.74 145.06 125.70 C 145.07 126.67 145.85 127.44 146.81 127.43 Z M 147.84 127.41 L 148.90 127.39 C 149.86 127.36 150.61 126.57 150.59 125.61 C 150.57 124.66 149.77 123.90 148.82 123.92 L 147.76 123.95 C 146.80 123.97 146.05 124.77 146.07 125.72 C 146.09 126.68 146.89 127.44 147.84 127.41 Z M 148.93 127.38 L 149.92 127.34 C 150.87 127.30 151.61 126.50 151.57 125.55 C 151.53 124.60 150.73 123.86 149.78 123.89 L 148.79 123.93 C 147.84 123.97 147.10 124.77 147.14 125.73 C 147.17 126.68 147.98 127.42 148.93 127.38 Z M 149.95 127.33 L 150.82 127.28 C 151.76 127.23 152.49 126.41 152.43 125.47 C 152.38 124.52 151.57 123.80 150.62 123.85 L 149.75 123.90 C 148.81 123.96 148.08 124.77 148.14 125.71 C 148.19 126.66 149.00 127.38 149.95 127.33 Z M 150.85 127.27 L 151.77 127.20 C 152.71 127.13 153.42 126.31 153.34 125.36 C 153.27 124.42 152.45 123.72 151.51 123.79 L 150.59 123.86 C 149.65 123.94 148.94 124.76 149.02 125.70 C 149.09 126.64 149.91 127.34 150.85 127.27 Z M 151.81 127.19 L 152.79 127.09 C 153.73 127.00 154.41 126.16 154.32 125.23 C 154.22 124.29 153.39 123.61 152.46 123.70 L 151.47 123.80 C 150.54 123.90 149.85 124.73 149.95 125.66 C 150.04 126.60 150.87 127.28 151.81 127.19 Z M 152.83 127.08 L 153.89 126.95 C 154.82 126.83 155.48 125.99 155.37 125.06 C 155.25 124.13 154.41 123.47 153.48 123.59 L 152.42 123.72 C 151.49 123.83 150.83 124.68 150.94 125.60 C 151.06 126.53 151.90 127.19 152.83 127.08 Z M 153.93 126.93 L 155.09 126.76 C 156.01 126.63 156.64 125.77 156.51 124.85 C 156.37 123.93 155.52 123.29 154.59 123.43 L 153.44 123.60 C 152.52 123.73 151.88 124.59 152.02 125.51 C 152.15 126.43 153.01 127.07 153.93 126.93 Z M 155.12 126.75 L 156.12 126.58 C 157.03 126.43 157.65 125.57 157.50 124.65 C 157.34 123.74 156.48 123.12 155.56 123.27 L 154.56 123.44 C 153.65 123.59 153.03 124.46 153.18 125.37 C 153.34 126.29 154.20 126.91 155.12 126.75 Z M 156.14 126.57 L 157.13 126.39 C 158.04 126.23 158.64 125.36 158.48 124.45 C 158.31 123.54 157.44 122.94 156.53 123.10 L 155.54 123.28 C 154.64 123.45 154.03 124.32 154.20 125.23 C 154.36 126.14 155.23 126.74 156.14 126.57 Z M 157.14 126.38 L 158.16 126.19 C 159.06 126.02 159.66 125.15 159.49 124.24 C 159.31 123.34 158.44 122.75 157.54 122.92 L 156.52 123.11 C 155.62 123.29 155.02 124.16 155.20 125.06 C 155.37 125.96 156.24 126.56 157.14 126.38 Z M 158.17 126.18 L 159.20 125.98 C 160.09 125.80 160.68 124.93 160.50 124.04 C 160.33 123.14 159.46 122.55 158.56 122.73 L 157.53 122.93 C 156.63 123.10 156.05 123.98 156.22 124.87 C 156.40 125.77 157.27 126.36 158.17 126.18 Z M 159.20 125.97 L 160.22 125.77 C 161.11 125.59 161.69 124.73 161.51 123.83 C 161.34 122.94 160.47 122.36 159.57 122.53 L 158.56 122.73 C 157.66 122.91 157.08 123.78 157.26 124.68 C 157.44 125.57 158.30 126.15 159.20 125.97 Z M 160.21 125.76 L 161.20 125.57 C 162.09 125.39 162.67 124.53 162.50 123.64 C 162.32 122.75 161.45 122.17 160.56 122.34 L 159.57 122.54 C 158.68 122.72 158.11 123.58 158.28 124.47 C 158.46 125.36 159.32 125.94 160.21 125.76 Z M 161.20 125.56 L 162.14 125.38 C 163.02 125.21 163.60 124.35 163.43 123.46 C 163.26 122.57 162.40 121.99 161.51 122.17 L 160.57 122.35 C 159.68 122.52 159.10 123.38 159.28 124.27 C 159.45 125.16 160.31 125.74 161.20 125.56 Z M 162.12 125.37 L 163.14 125.19 C 164.02 125.02 164.60 124.17 164.44 123.29 C 164.28 122.40 163.42 121.82 162.54 121.98 L 161.53 122.17 C 160.64 122.34 160.06 123.19 160.22 124.07 C 160.39 124.96 161.24 125.54 162.12 125.37 Z M 163.11 125.18 L 164.26 124.98 C 165.14 124.83 165.73 123.99 165.58 123.11 C 165.43 122.23 164.59 121.64 163.71 121.79 L 162.56 121.99 C 161.68 122.14 161.09 122.98 161.24 123.86 C 161.39 124.74 162.23 125.33 163.11 125.18 Z M 164.23 124.97 L 165.25 124.82 C 166.13 124.68 166.73 123.86 166.59 122.98 C 166.45 122.11 165.63 121.51 164.76 121.64 L 163.74 121.80 C 162.86 121.94 162.26 122.76 162.40 123.63 C 162.53 124.51 163.35 125.11 164.23 124.97 Z M 165.22 124.81 L 166.15 124.68 C 167.02 124.55 167.63 123.75 167.51 122.88 C 167.38 122.00 166.58 121.40 165.71 121.52 L 164.78 121.65 C 163.91 121.77 163.30 122.58 163.42 123.45 C 163.55 124.32 164.35 124.93 165.22 124.81 Z M 166.13 124.67 L 167.00 124.55 C 167.87 124.44 168.48 123.65 168.36 122.78 C 168.25 121.92 167.46 121.31 166.59 121.42 L 165.72 121.53 C 164.86 121.64 164.25 122.44 164.36 123.30 C 164.47 124.17 165.27 124.78 166.13 124.67 Z M 166.99 124.54 L 167.57 124.47 C 168.43 124.36 169.04 123.58 168.93 122.72 C 168.82 121.86 168.04 121.25 167.18 121.36 L 166.60 121.43 C 165.74 121.54 165.13 122.32 165.24 123.18 C 165.35 124.04 166.13 124.65 166.99 124.54 Z"
      fill="black"
      fill-rule="nonzero" /><path d="M 134.44 146.84 L 133.82 147.91 C 133.33 148.74 133.61 149.81 134.44 150.29 C 135.28 150.78 136.34 150.49 136.83 149.66 L 137.45 148.60 C 137.93 147.77 137.65 146.70 136.82 146.21 C 135.99 145.73 134.92 146.01 134.44 146.84 Z M 133.64 148.29 L 133.39 149.14 C 133.11 150.07 133.64 151.05 134.57 151.32 C 135.50 151.60 136.48 151.06 136.75 150.14 L 137.00 149.28 C 137.28 148.35 136.75 147.38 135.82 147.10 C 134.89 146.83 133.91 147.36 133.64 148.29 Z M 133.76 150.82 L 134.13 151.23 C 134.78 151.95 135.90 152.01 136.62 151.35 C 137.34 150.70 137.40 149.59 136.75 148.86 L 136.38 148.46 C 135.73 147.73 134.61 147.68 133.89 148.33 C 133.16 148.98 133.11 150.10 133.76 150.82 Z M 135.30 151.81 L 136.09 151.87 C 137.06 151.94 137.91 151.22 137.99 150.24 C 138.06 149.27 137.34 148.42 136.36 148.34 L 135.57 148.28 C 134.60 148.21 133.75 148.94 133.67 149.91 C 133.60 150.88 134.33 151.73 135.30 151.81 Z M 136.44 151.86 L 137.53 151.73 C 138.50 151.62 139.20 150.74 139.08 149.77 C 138.97 148.80 138.09 148.10 137.12 148.22 L 136.02 148.35 C 135.05 148.47 134.36 149.35 134.47 150.32 C 134.59 151.29 135.47 151.98 136.44 151.86 Z M 137.67 151.71 L 138.93 151.46 C 139.89 151.27 140.51 150.34 140.32 149.38 C 140.13 148.42 139.20 147.80 138.24 147.99 L 136.98 148.24 C 136.02 148.43 135.40 149.36 135.59 150.32 C 135.78 151.28 136.71 151.90 137.67 151.71 Z M 138.99 151.45 L 139.99 151.21 C 140.94 150.99 141.53 150.04 141.31 149.09 C 141.09 148.14 140.14 147.55 139.19 147.77 L 138.18 148.00 C 137.23 148.22 136.64 149.18 136.86 150.13 C 137.09 151.08 138.04 151.67 138.99 151.45 Z M 140.02 151.20 L 141.02 150.95 C 141.97 150.71 142.54 149.75 142.30 148.81 C 142.07 147.86 141.11 147.29 140.16 147.52 L 139.16 147.78 C 138.21 148.02 137.64 148.98 137.88 149.92 C 138.11 150.87 139.07 151.44 140.02 151.20 Z M 141.04 150.94 L 142.02 150.69 C 142.97 150.44 143.53 149.47 143.28 148.53 C 143.03 147.58 142.06 147.02 141.12 147.27 L 140.14 147.53 C 139.20 147.78 138.64 148.75 138.88 149.69 C 139.13 150.63 140.10 151.19 141.04 150.94 Z M 142.03 150.68 L 142.96 150.43 C 143.90 150.17 144.46 149.21 144.21 148.26 C 143.95 147.32 142.98 146.77 142.04 147.02 L 141.11 147.28 C 140.17 147.53 139.61 148.50 139.87 149.44 C 140.12 150.38 141.09 150.94 142.03 150.68 Z M 142.96 150.43 L 143.95 150.16 C 144.89 149.90 145.45 148.94 145.19 148.00 C 144.94 147.06 143.97 146.50 143.03 146.76 L 142.04 147.03 C 141.10 147.28 140.55 148.25 140.80 149.19 C 141.06 150.13 142.03 150.68 142.96 150.43 Z M 143.95 150.16 L 144.96 149.89 C 145.89 149.64 146.45 148.67 146.20 147.74 C 145.95 146.80 144.99 146.24 144.05 146.49 L 143.04 146.76 C 142.10 147.01 141.55 147.97 141.80 148.91 C 142.05 149.85 143.01 150.41 143.95 150.16 Z M 144.95 149.88 L 145.88 149.64 C 146.81 149.39 147.37 148.43 147.13 147.50 C 146.88 146.56 145.92 146.00 144.99 146.25 L 144.06 146.50 C 143.12 146.74 142.57 147.70 142.81 148.63 C 143.06 149.57 144.02 150.13 144.95 149.88 Z M 145.87 149.63 L 146.77 149.40 C 147.70 149.15 148.26 148.20 148.01 147.27 C 147.77 146.34 146.82 145.78 145.89 146.02 L 144.99 146.26 C 144.06 146.50 143.50 147.45 143.75 148.38 C 143.99 149.32 144.94 149.87 145.87 149.63 Z M 146.77 149.39 L 147.73 149.14 C 148.66 148.90 149.21 147.95 148.97 147.02 C 148.73 146.09 147.78 145.53 146.85 145.78 L 145.89 146.03 C 144.96 146.27 144.40 147.22 144.64 148.15 C 144.89 149.08 145.84 149.64 146.77 149.39 Z M 147.72 149.14 L 148.69 148.89 C 149.62 148.65 150.18 147.70 149.93 146.77 C 149.69 145.84 148.75 145.29 147.82 145.53 L 146.85 145.78 C 145.93 146.02 145.37 146.97 145.61 147.90 C 145.85 148.82 146.80 149.38 147.72 149.14 Z M 148.69 148.88 L 149.66 148.63 C 150.59 148.40 151.14 147.45 150.91 146.53 C 150.67 145.60 149.72 145.04 148.80 145.28 L 147.82 145.53 C 146.90 145.77 146.34 146.71 146.58 147.64 C 146.82 148.57 147.76 149.12 148.69 148.88 Z M 149.66 148.63 L 150.61 148.39 C 151.54 148.15 152.09 147.21 151.86 146.29 C 151.62 145.36 150.68 144.81 149.76 145.04 L 148.80 145.28 C 147.88 145.52 147.32 146.46 147.56 147.38 C 147.79 148.31 148.73 148.87 149.66 148.63 Z M 150.61 148.38 L 151.58 148.14 C 152.50 147.90 153.05 146.96 152.82 146.04 C 152.59 145.12 151.65 144.57 150.73 144.80 L 149.76 145.05 C 148.84 145.28 148.28 146.22 148.52 147.14 C 148.75 148.06 149.69 148.62 150.61 148.38 Z M 151.58 148.13 L 152.56 147.88 C 153.48 147.64 154.03 146.70 153.79 145.79 C 153.55 144.87 152.62 144.32 151.70 144.55 L 150.72 144.81 C 149.80 145.04 149.25 145.98 149.49 146.90 C 149.73 147.82 150.66 148.37 151.58 148.13 Z M 152.57 147.87 L 153.53 147.61 C 154.45 147.37 154.99 146.43 154.75 145.52 C 154.51 144.61 153.57 144.06 152.66 144.30 L 151.69 144.56 C 150.78 144.80 150.23 145.74 150.47 146.65 C 150.72 147.57 151.66 148.11 152.57 147.87 Z M 153.54 147.61 L 154.50 147.35 C 155.41 147.10 155.95 146.17 155.70 145.26 C 155.46 144.35 154.52 143.81 153.61 144.05 L 152.65 144.31 C 151.74 144.55 151.20 145.49 151.45 146.40 C 151.69 147.31 152.63 147.85 153.54 147.61 Z M 154.49 147.35 L 155.46 147.09 C 156.37 146.86 156.91 145.93 156.67 145.02 C 156.44 144.11 155.51 143.56 154.60 143.80 L 153.63 144.05 C 152.72 144.29 152.17 145.22 152.41 146.13 C 152.65 147.04 153.58 147.58 154.49 147.35 Z M 155.43 147.10 L 156.41 146.86 C 157.32 146.64 157.88 145.72 157.66 144.81 C 157.44 143.90 156.52 143.34 155.61 143.56 L 154.63 143.80 C 153.72 144.02 153.16 144.94 153.38 145.85 C 153.60 146.76 154.52 147.32 155.43 147.10 Z M 156.37 146.86 L 157.35 146.64 C 158.26 146.44 158.84 145.54 158.64 144.63 C 158.43 143.71 157.53 143.14 156.62 143.34 L 155.64 143.56 C 154.73 143.76 154.16 144.66 154.36 145.57 C 154.56 146.49 155.46 147.06 156.37 146.86 Z M 157.33 146.64 L 158.31 146.44 C 159.22 146.24 159.81 145.35 159.62 144.44 C 159.42 143.53 158.53 142.95 157.62 143.14 L 156.64 143.34 C 155.73 143.53 155.15 144.43 155.34 145.34 C 155.53 146.25 156.42 146.83 157.33 146.64 Z M 158.31 146.43 L 159.29 146.23 C 160.20 146.04 160.78 145.15 160.59 144.24 C 160.40 143.33 159.51 142.75 158.60 142.94 L 157.62 143.14 C 156.72 143.33 156.13 144.22 156.32 145.13 C 156.51 146.04 157.40 146.62 158.31 146.43 Z M 159.30 146.22 L 160.20 146.02 C 161.11 145.82 161.68 144.93 161.48 144.03 C 161.29 143.13 160.39 142.55 159.49 142.75 L 158.59 142.95 C 157.69 143.14 157.11 144.03 157.31 144.94 C 157.51 145.84 158.40 146.41 159.30 146.22 Z M 160.21 146.01 L 161.11 145.81 C 162.01 145.61 162.57 144.72 162.37 143.82 C 162.17 142.92 161.27 142.36 160.38 142.56 L 159.48 142.76 C 158.58 142.96 158.02 143.85 158.22 144.75 C 158.42 145.65 159.31 146.21 160.21 146.01 Z M 161.10 145.80 L 162.07 145.59 C 162.97 145.39 163.53 144.50 163.33 143.60 C 163.13 142.71 162.24 142.15 161.35 142.35 L 160.38 142.57 C 159.48 142.77 158.92 143.65 159.12 144.55 C 159.32 145.44 160.21 146.01 161.10 145.80 Z M 162.06 145.58 L 163.15 145.35 C 164.05 145.15 164.61 144.27 164.42 143.38 C 164.22 142.49 163.34 141.92 162.45 142.11 L 161.36 142.35 C 160.47 142.55 159.90 143.43 160.09 144.32 C 160.29 145.21 161.17 145.78 162.06 145.58 Z M 163.14 145.34 L 164.06 145.15 C 164.95 144.96 165.52 144.09 165.34 143.20 C 165.15 142.31 164.28 141.74 163.39 141.92 L 162.46 142.12 C 161.57 142.30 161.00 143.18 161.19 144.07 C 161.38 144.96 162.25 145.53 163.14 145.34 Z M 164.05 145.15 L 164.96 144.96 C 165.85 144.78 166.43 143.92 166.25 143.03 C 166.07 142.14 165.20 141.56 164.32 141.74 L 163.40 141.93 C 162.51 142.11 161.94 142.97 162.12 143.86 C 162.30 144.75 163.16 145.32 164.05 145.15 Z M 164.95 144.96 L 165.92 144.77 C 166.81 144.60 167.39 143.74 167.22 142.86 C 167.05 141.97 166.19 141.39 165.30 141.56 L 164.33 141.75 C 163.44 141.92 162.86 142.77 163.03 143.66 C 163.20 144.55 164.06 145.13 164.95 144.96 Z M 165.91 144.77 L 166.92 144.58 C 167.81 144.42 168.40 143.57 168.24 142.69 C 168.07 141.80 167.23 141.21 166.34 141.38 L 165.32 141.56 C 164.44 141.72 163.85 142.57 164.01 143.46 C 164.17 144.34 165.02 144.93 165.91 144.77 Z M 166.91 144.58 L 167.96 144.40 C 168.84 144.25 169.43 143.41 169.28 142.53 C 169.13 141.64 168.29 141.05 167.41 141.20 L 166.36 141.38 C 165.47 141.53 164.88 142.37 165.03 143.25 C 165.18 144.14 166.02 144.73 166.91 144.58 Z M 167.93 144.40 L 169.00 144.23 C 169.88 144.09 170.49 143.26 170.35 142.38 C 170.21 141.50 169.38 140.89 168.50 141.03 L 167.43 141.20 C 166.55 141.34 165.94 142.17 166.08 143.05 C 166.22 143.93 167.05 144.54 167.93 144.40 Z M 168.98 144.23 L 169.96 144.09 C 170.85 143.96 171.46 143.14 171.33 142.26 C 171.20 141.38 170.39 140.77 169.51 140.89 L 168.52 141.04 C 167.64 141.16 167.03 141.98 167.15 142.86 C 167.28 143.74 168.10 144.35 168.98 144.23 Z M 169.94 144.08 L 170.93 143.95 C 171.81 143.84 172.43 143.03 172.32 142.15 C 172.20 141.27 171.39 140.65 170.52 140.77 L 169.53 140.90 C 168.65 141.01 168.03 141.82 168.14 142.70 C 168.26 143.58 169.07 144.20 169.94 144.08 Z M 170.92 143.95 L 171.91 143.82 C 172.79 143.72 173.41 142.92 173.30 142.04 C 173.20 141.17 172.40 140.54 171.52 140.65 L 170.53 140.77 C 169.65 140.88 169.03 141.68 169.14 142.55 C 169.25 143.43 170.04 144.05 170.92 143.95 Z M 171.90 143.82 L 172.89 143.71 C 173.77 143.60 174.39 142.82 174.29 141.94 C 174.19 141.07 173.40 140.44 172.53 140.54 L 171.54 140.66 C 170.66 140.76 170.04 141.55 170.14 142.42 C 170.24 143.29 171.03 143.92 171.90 143.82 Z M 172.88 143.70 L 173.88 143.59 C 174.75 143.49 175.38 142.71 175.28 141.84 C 175.19 140.97 174.40 140.34 173.53 140.44 L 172.54 140.55 C 171.67 140.64 171.04 141.43 171.14 142.30 C 171.23 143.17 172.01 143.79 172.88 143.70 Z M 173.87 143.58 L 174.87 143.48 C 175.74 143.38 176.36 142.61 176.27 141.74 C 176.18 140.87 175.40 140.25 174.53 140.34 L 173.54 140.45 C 172.67 140.54 172.05 141.32 172.14 142.18 C 172.23 143.05 173.01 143.68 173.87 143.58 Z M 174.87 143.47 L 175.10 143.45 C 175.96 143.36 176.59 142.58 176.50 141.72 C 176.40 140.85 175.63 140.23 174.76 140.32 L 174.54 140.34 C 173.67 140.44 173.05 141.21 173.14 142.07 C 173.23 142.94 174.01 143.56 174.87 143.47 Z"
      fill="black"
      fill-rule="nonzero" /><path d="M 131.78 177.41 L 132.71 177.29 C 133.65 177.17 134.31 176.32 134.20 175.38 C 134.08 174.44 133.22 173.78 132.29 173.90 L 131.35 174.02 C 130.41 174.13 129.75 174.99 129.87 175.93 C 129.99 176.86 130.84 177.53 131.78 177.41 Z M 132.72 177.31 L 133.68 177.19 C 134.63 177.07 135.29 176.19 135.17 175.24 C 135.05 174.30 134.17 173.63 133.23 173.75 L 132.27 173.88 C 131.32 174.00 130.66 174.87 130.78 175.82 C 130.90 176.77 131.77 177.44 132.72 177.31 Z M 133.70 177.21 L 134.68 177.07 C 135.64 176.94 136.31 176.05 136.18 175.09 C 136.04 174.12 135.15 173.46 134.19 173.59 L 133.21 173.73 C 132.24 173.86 131.57 174.75 131.71 175.72 C 131.84 176.68 132.73 177.35 133.70 177.21 Z M 134.71 177.09 L 135.74 176.93 C 136.72 176.78 137.38 175.87 137.23 174.90 C 137.08 173.93 136.17 173.26 135.20 173.41 L 134.16 173.57 C 133.19 173.72 132.52 174.63 132.67 175.60 C 132.82 176.58 133.73 177.24 134.71 177.09 Z M 135.77 176.95 L 136.80 176.77 C 137.78 176.61 138.44 175.68 138.28 174.70 C 138.11 173.71 137.18 173.05 136.20 173.22 L 135.17 173.40 C 134.19 173.56 133.53 174.49 133.70 175.47 C 133.86 176.45 134.79 177.11 135.77 176.95 Z M 136.83 176.78 L 137.82 176.59 C 138.80 176.42 139.45 175.47 139.27 174.49 C 139.09 173.51 138.15 172.86 137.17 173.04 L 136.18 173.22 C 135.20 173.40 134.54 174.34 134.72 175.32 C 134.90 176.30 135.84 176.95 136.83 176.78 Z M 137.83 176.59 L 138.84 176.40 C 139.82 176.22 140.46 175.27 140.28 174.29 C 140.09 173.31 139.15 172.66 138.17 172.85 L 137.16 173.04 C 136.18 173.23 135.53 174.17 135.72 175.15 C 135.90 176.13 136.85 176.78 137.83 176.59 Z M 138.84 176.40 L 139.85 176.21 C 140.83 176.02 141.47 175.07 141.29 174.09 C 141.10 173.11 140.15 172.47 139.17 172.66 L 138.16 172.85 C 137.18 173.04 136.54 173.99 136.73 174.97 C 136.92 175.94 137.86 176.59 138.84 176.40 Z M 139.85 176.21 L 140.83 176.02 C 141.81 175.83 142.45 174.89 142.26 173.91 C 142.08 172.93 141.13 172.29 140.15 172.47 L 139.17 172.66 C 138.19 172.84 137.55 173.79 137.74 174.77 C 137.92 175.75 138.87 176.39 139.85 176.21 Z M 140.82 176.02 L 141.77 175.85 C 142.75 175.67 143.40 174.72 143.22 173.74 C 143.04 172.76 142.10 172.12 141.12 172.30 L 140.16 172.47 C 139.18 172.65 138.53 173.59 138.71 174.57 C 138.89 175.55 139.84 176.20 140.82 176.02 Z M 141.75 175.85 L 142.81 175.67 C 143.79 175.50 144.45 174.56 144.28 173.58 C 144.11 172.60 143.18 171.94 142.19 172.11 L 141.14 172.29 C 140.16 172.46 139.50 173.40 139.67 174.38 C 139.84 175.36 140.77 176.02 141.75 175.85 Z M 142.79 175.66 L 143.77 175.50 C 144.75 175.35 145.42 174.42 145.26 173.44 C 145.10 172.46 144.18 171.79 143.20 171.95 L 142.21 172.11 C 141.23 172.27 140.57 173.20 140.73 174.18 C 140.88 175.16 141.81 175.82 142.79 175.66 Z M 143.76 175.50 L 144.71 175.35 C 145.69 175.20 146.36 174.28 146.20 173.30 C 146.05 172.32 145.13 171.65 144.15 171.81 L 143.20 171.96 C 142.23 172.11 141.56 173.03 141.71 174.01 C 141.86 174.99 142.78 175.66 143.76 175.50 Z M 144.71 175.35 L 145.66 175.20 C 146.63 175.05 147.30 174.13 147.15 173.15 C 146.99 172.17 146.07 171.51 145.10 171.66 L 144.15 171.81 C 143.17 171.97 142.51 172.88 142.66 173.86 C 142.81 174.84 143.73 175.50 144.71 175.35 Z M 145.67 175.20 L 146.62 175.04 C 147.59 174.88 148.25 173.96 148.09 172.99 C 147.93 172.01 147.01 171.35 146.04 171.51 L 145.09 171.67 C 144.11 171.83 143.45 172.75 143.61 173.72 C 143.77 174.69 144.69 175.35 145.67 175.20 Z M 146.62 175.03 L 147.60 174.87 C 148.57 174.71 149.23 173.79 149.06 172.82 C 148.90 171.84 147.98 171.19 147.01 171.35 L 146.03 171.52 C 145.06 171.68 144.40 172.60 144.57 173.57 C 144.73 174.54 145.65 175.20 146.62 175.03 Z M 147.60 174.87 L 148.60 174.70 C 149.57 174.53 150.22 173.61 150.05 172.64 C 149.89 171.68 148.97 171.02 148.00 171.19 L 147.01 171.36 C 146.04 171.52 145.39 172.44 145.55 173.41 C 145.71 174.38 146.63 175.03 147.60 174.87 Z M 148.60 174.69 L 149.60 174.52 C 150.57 174.36 151.22 173.44 151.06 172.48 C 150.90 171.51 149.98 170.86 149.01 171.02 L 148.01 171.19 C 147.04 171.35 146.39 172.27 146.55 173.24 C 146.71 174.20 147.63 174.85 148.60 174.69 Z M 149.60 174.52 L 150.60 174.35 C 151.56 174.20 152.22 173.29 152.06 172.32 C 151.90 171.36 150.99 170.70 150.02 170.86 L 149.02 171.03 C 148.06 171.18 147.40 172.09 147.56 173.06 C 147.72 174.02 148.63 174.68 149.60 174.52 Z M 150.59 174.35 L 151.58 174.20 C 152.54 174.04 153.20 173.14 153.05 172.17 C 152.90 171.21 151.99 170.55 151.03 170.70 L 150.03 170.86 C 149.07 171.01 148.41 171.92 148.57 172.88 C 148.72 173.85 149.62 174.51 150.59 174.35 Z M 151.57 174.19 L 152.56 174.04 C 153.52 173.90 154.18 173.00 154.04 172.03 C 153.89 171.07 152.99 170.41 152.03 170.56 L 151.04 170.71 C 150.07 170.85 149.41 171.75 149.56 172.72 C 149.71 173.68 150.61 174.34 151.57 174.19 Z M 152.55 174.04 L 153.53 173.90 C 154.49 173.76 155.16 172.86 155.02 171.90 C 154.88 170.94 153.99 170.27 153.02 170.41 L 152.04 170.56 C 151.07 170.70 150.41 171.59 150.55 172.55 C 150.69 173.52 151.58 174.18 152.55 174.04 Z M 153.52 173.90 L 154.50 173.76 C 155.47 173.62 156.14 172.74 156.00 171.77 C 155.87 170.81 154.98 170.14 154.02 170.28 L 153.03 170.41 C 152.07 170.55 151.40 171.44 151.54 172.40 C 151.67 173.36 152.56 174.03 153.52 173.90 Z M 154.49 173.76 L 155.48 173.63 C 156.44 173.50 157.12 172.62 156.99 171.65 C 156.86 170.69 155.98 170.02 155.02 170.15 L 154.03 170.28 C 153.07 170.41 152.39 171.29 152.52 172.25 C 152.65 173.21 153.53 173.89 154.49 173.76 Z M 155.47 173.62 L 156.46 173.50 C 157.42 173.38 158.10 172.50 157.98 171.54 C 157.85 170.58 156.98 169.90 156.02 170.02 L 155.03 170.15 C 154.07 170.27 153.39 171.15 153.51 172.11 C 153.63 173.07 154.51 173.75 155.47 173.62 Z M 156.45 173.50 L 157.44 173.37 C 158.40 173.25 159.08 172.38 158.97 171.42 C 158.85 170.46 157.97 169.78 157.02 169.90 L 156.02 170.02 C 155.07 170.14 154.38 171.02 154.50 171.97 C 154.62 172.93 155.49 173.61 156.45 173.50 Z M 157.44 173.37 L 158.44 173.25 C 159.39 173.13 160.08 172.26 159.96 171.31 C 159.84 170.35 158.97 169.67 158.02 169.78 L 157.02 169.90 C 156.06 170.02 155.38 170.89 155.50 171.85 C 155.61 172.80 156.48 173.49 157.44 173.37 Z M 158.43 173.25 L 159.43 173.13 C 160.39 173.01 161.07 172.15 160.95 171.19 C 160.84 170.24 159.97 169.55 159.02 169.67 L 158.02 169.79 C 157.07 169.90 156.38 170.77 156.50 171.72 C 156.61 172.68 157.48 173.36 158.43 173.25 Z M 159.43 173.12 L 160.43 173.00 C 161.38 172.89 162.06 172.03 161.95 171.07 C 161.83 170.12 160.97 169.44 160.02 169.55 L 159.02 169.67 C 158.07 169.79 157.39 170.65 157.50 171.60 C 157.61 172.56 158.48 173.24 159.43 173.12 Z M 160.43 173.00 L 161.42 172.88 C 162.37 172.77 163.05 171.91 162.94 170.96 C 162.83 170.01 161.96 169.33 161.01 169.44 L 160.02 169.56 C 159.07 169.67 158.39 170.53 158.50 171.48 C 158.61 172.43 159.48 173.11 160.43 173.00 Z M 161.42 172.88 L 162.42 172.76 C 163.36 172.64 164.04 171.78 163.93 170.84 C 163.81 169.89 162.95 169.21 162.01 169.33 L 161.01 169.44 C 160.07 169.56 159.39 170.42 159.50 171.37 C 159.62 172.31 160.48 172.99 161.42 172.88 Z M 162.42 172.75 L 163.40 172.63 C 164.35 172.52 165.02 171.66 164.91 170.72 C 164.80 169.77 163.94 169.10 162.99 169.21 L 162.00 169.33 C 161.06 169.45 160.39 170.30 160.50 171.25 C 160.61 172.19 161.47 172.87 162.42 172.75 Z M 163.41 172.63 L 164.42 172.51 C 165.36 172.39 166.03 171.53 165.92 170.59 C 165.81 169.65 164.95 168.98 164.01 169.09 L 162.99 169.22 C 162.05 169.33 161.38 170.19 161.49 171.13 C 161.61 172.07 162.46 172.74 163.41 172.63 Z M 164.42 172.50 L 165.42 172.38 C 166.36 172.27 167.03 171.42 166.92 170.48 C 166.80 169.54 165.95 168.87 165.01 168.98 L 164.01 169.10 C 163.07 169.21 162.40 170.06 162.51 171.00 C 162.62 171.94 163.48 172.61 164.42 172.50 Z M 165.41 172.38 L 166.40 172.26 C 167.33 172.16 168.01 171.31 167.90 170.37 C 167.79 169.44 166.95 168.76 166.01 168.87 L 165.02 168.98 C 164.08 169.09 163.41 169.94 163.52 170.87 C 163.62 171.81 164.47 172.48 165.41 172.38 Z M 166.38 172.26 L 167.35 172.16 C 168.29 172.06 168.97 171.22 168.87 170.29 C 168.77 169.35 167.93 168.67 167.00 168.77 L 166.02 168.87 C 165.09 168.97 164.41 169.81 164.51 170.74 C 164.61 171.68 165.44 172.36 166.38 172.26 Z M 167.33 172.16 L 168.34 172.06 C 169.27 171.98 169.96 171.15 169.87 170.22 C 169.79 169.28 168.96 168.60 168.03 168.68 L 167.02 168.77 C 166.08 168.86 165.40 169.69 165.48 170.62 C 165.57 171.56 166.40 172.24 167.33 172.16 Z M 168.32 172.06 L 169.33 171.98 C 170.26 171.90 170.95 171.08 170.87 170.15 C 170.80 169.22 169.98 168.53 169.05 168.60 L 168.04 168.69 C 167.11 168.76 166.42 169.58 166.50 170.51 C 166.57 171.44 167.39 172.14 168.32 172.06 Z M 169.32 171.97 L 170.31 171.89 C 171.24 171.82 171.93 171.01 171.86 170.08 C 171.79 169.15 170.97 168.46 170.05 168.53 L 169.05 168.61 C 168.13 168.68 167.43 169.49 167.51 170.42 C 167.58 171.35 168.39 172.04 169.32 171.97 Z M 170.31 171.89 L 171.29 171.81 C 172.22 171.73 172.91 170.92 172.83 170.00 C 172.76 169.07 171.95 168.38 171.02 168.46 L 170.04 168.54 C 169.12 168.61 168.43 169.42 168.50 170.35 C 168.58 171.27 169.39 171.96 170.31 171.89 Z M 171.30 171.80 L 172.27 171.71 C 173.19 171.63 173.87 170.82 173.79 169.90 C 173.71 168.98 172.90 168.30 171.98 168.38 L 171.01 168.47 C 170.09 168.55 169.41 169.36 169.49 170.28 C 169.57 171.20 170.38 171.88 171.30 171.80 Z M 172.27 171.71 L 173.24 171.62 C 174.16 171.53 174.83 170.72 174.75 169.81 C 174.67 168.89 173.86 168.22 172.94 168.30 L 171.97 168.39 C 171.06 168.47 170.38 169.28 170.46 170.20 C 170.55 171.12 171.36 171.79 172.27 171.71 Z M 173.24 171.61 L 174.23 171.52 C 175.15 171.44 175.82 170.63 175.74 169.72 C 175.65 168.81 174.85 168.14 173.94 168.22 L 172.94 168.31 C 172.03 168.39 171.36 169.20 171.44 170.11 C 171.52 171.02 172.33 171.69 173.24 171.61 Z M 174.22 171.51 L 175.26 171.43 C 176.17 171.35 176.84 170.56 176.77 169.65 C 176.69 168.74 175.89 168.06 174.98 168.14 L 173.95 168.23 C 173.04 168.30 172.37 169.10 172.44 170.01 C 172.52 170.92 173.31 171.59 174.22 171.51 Z M 175.24 171.42 L 176.23 171.35 C 177.14 171.28 177.82 170.50 177.75 169.59 C 177.68 168.69 176.90 168.01 175.99 168.07 L 175.00 168.15 C 174.10 168.21 173.42 169.00 173.48 169.90 C 173.55 170.81 174.34 171.49 175.24 171.42 Z M 176.21 171.35 L 177.21 171.28 C 178.11 171.23 178.80 170.45 178.74 169.55 C 178.68 168.64 177.90 167.96 177.00 168.01 L 176.01 168.08 C 175.10 168.13 174.42 168.91 174.47 169.82 C 174.53 170.72 175.31 171.40 176.21 171.35 Z M 177.19 171.28 L 178.20 171.23 C 179.11 171.18 179.80 170.41 179.75 169.51 C 179.70 168.61 178.93 167.91 178.03 167.96 L 177.02 168.02 C 176.12 168.07 175.42 168.84 175.47 169.74 C 175.52 170.64 176.29 171.33 177.19 171.28 Z M 178.19 171.22 L 179.20 171.18 C 180.10 171.14 180.80 170.38 180.76 169.48 C 180.72 168.58 179.96 167.88 179.06 167.92 L 178.05 167.97 C 177.15 168.01 176.45 168.77 176.49 169.67 C 176.53 170.57 177.29 171.26 178.19 171.22 Z M 179.19 171.18 L 180.19 171.14 C 181.09 171.11 181.79 170.36 181.76 169.46 C 181.73 168.57 180.98 167.86 180.08 167.89 L 179.08 167.93 C 178.18 167.96 177.48 168.71 177.51 169.60 C 177.54 170.50 178.29 171.21 179.19 171.18 Z M 180.17 171.14 L 181.20 171.11 C 182.10 171.09 182.81 170.35 182.79 169.46 C 182.77 168.57 182.03 167.86 181.13 167.88 L 180.10 167.90 C 179.21 167.92 178.50 168.66 178.52 169.55 C 178.54 170.45 179.28 171.15 180.17 171.14 Z M 181.19 171.10 L 182.19 171.09 C 183.08 171.08 183.79 170.35 183.78 169.46 C 183.77 168.58 183.04 167.86 182.15 167.87 L 181.15 167.89 C 180.26 167.90 179.55 168.63 179.56 169.51 C 179.57 170.40 180.30 171.11 181.19 171.10 Z M 182.18 171.08 L 183.17 171.08 C 184.05 171.07 184.76 170.35 184.76 169.47 C 184.75 168.59 184.03 167.88 183.15 167.88 L 182.17 167.88 C 181.28 167.89 180.57 168.61 180.57 169.49 C 180.58 170.37 181.30 171.09 182.18 171.08 Z M 183.16 171.07 L 184.14 171.07 C 185.02 171.07 185.73 170.35 185.73 169.48 C 185.73 168.60 185.01 167.89 184.14 167.89 L 183.16 167.89 C 182.28 167.89 181.57 168.60 181.57 169.48 C 181.57 170.36 182.28 171.07 183.16 171.07 Z M 184.14 171.06 L 184.35 171.06 C 185.22 171.06 185.93 170.35 185.93 169.48 C 185.93 168.60 185.22 167.89 184.35 167.89 L 184.14 167.89 C 183.26 167.89 182.55 168.60 182.55 169.48 C 182.55 170.35 183.26 171.06 184.14 171.06 Z"
      fill="black"
      fill-rule="nonzero" /><path d="M 152.80 106.14 L 152.56 107.03 C 152.31 107.97 152.88 108.94 153.82 109.19 C 154.77 109.44 155.74 108.88 155.99 107.93 L 156.22 107.05 C 156.47 106.10 155.90 105.13 154.96 104.88 C 154.01 104.63 153.05 105.20 152.80 106.14 Z M 152.53 107.07 L 152.31 108.00 C 152.08 108.96 152.68 109.93 153.65 110.15 C 154.62 110.38 155.58 109.78 155.81 108.81 L 156.02 107.89 C 156.25 106.92 155.65 105.96 154.68 105.73 C 153.72 105.51 152.75 106.11 152.53 107.07 Z M 152.27 108.08 L 152.08 109.08 C 151.91 110.07 152.56 111.02 153.55 111.20 C 154.54 111.38 155.49 110.72 155.67 109.73 L 155.85 108.73 C 156.03 107.74 155.37 106.79 154.38 106.61 C 153.39 106.43 152.44 107.09 152.27 108.08 Z M 152.04 109.20 L 151.92 110.30 C 151.80 111.31 152.53 112.23 153.54 112.34 C 154.55 112.46 155.47 111.73 155.59 110.72 L 155.71 109.62 C 155.83 108.61 155.10 107.69 154.09 107.57 C 153.08 107.46 152.16 108.18 152.04 109.20 Z M 151.90 110.40 L 151.84 111.34 C 151.78 112.37 152.56 113.25 153.59 113.31 C 154.61 113.37 155.49 112.58 155.55 111.56 L 155.61 110.62 C 155.67 109.59 154.88 108.71 153.86 108.65 C 152.83 108.59 151.96 109.37 151.90 110.40 Z M 151.84 111.41 L 151.82 112.41 C 151.79 113.44 152.61 114.29 153.63 114.31 C 154.66 114.33 155.51 113.52 155.53 112.49 L 155.55 111.49 C 155.58 110.46 154.76 109.61 153.74 109.59 C 152.71 109.57 151.86 110.38 151.84 111.41 Z M 151.82 112.46 L 151.82 113.49 C 151.83 114.52 152.66 115.34 153.69 115.34 C 154.72 115.33 155.54 114.50 155.54 113.47 L 155.53 112.44 C 155.53 111.41 154.69 110.59 153.66 110.59 C 152.64 110.60 151.81 111.43 151.82 112.46 Z M 151.82 113.53 L 151.85 114.56 C 151.88 115.59 152.73 116.39 153.76 116.37 C 154.78 116.34 155.59 115.49 155.56 114.46 L 155.54 113.43 C 155.51 112.40 154.65 111.60 153.63 111.62 C 152.60 111.65 151.80 112.50 151.82 113.53 Z M 151.85 114.59 L 151.90 115.59 C 151.94 116.62 152.81 117.41 153.83 117.37 C 154.86 117.32 155.65 116.46 155.61 115.43 L 155.56 114.43 C 155.52 113.41 154.65 112.61 153.63 112.66 C 152.60 112.70 151.81 113.57 151.85 114.59 Z M 151.90 115.62 L 151.96 116.68 C 152.02 117.71 152.90 118.49 153.92 118.43 C 154.94 118.37 155.72 117.49 155.66 116.47 L 155.60 115.41 C 155.54 114.38 154.66 113.60 153.64 113.66 C 152.62 113.72 151.84 114.60 151.90 115.62 Z M 151.97 116.71 L 152.04 117.72 C 152.12 118.74 153.00 119.51 154.02 119.44 C 155.04 119.36 155.80 118.48 155.73 117.46 L 155.66 116.44 C 155.58 115.42 154.70 114.66 153.68 114.73 C 152.66 114.80 151.90 115.69 151.97 116.71 Z M 152.05 117.74 L 152.13 118.72 C 152.21 119.74 153.10 120.49 154.12 120.41 C 155.13 120.32 155.89 119.43 155.80 118.42 L 155.72 117.44 C 155.64 116.43 154.75 115.67 153.73 115.76 C 152.72 115.84 151.97 116.73 152.05 117.74 Z M 152.14 118.73 L 152.22 119.69 C 152.31 120.70 153.20 121.45 154.21 121.36 C 155.22 121.27 155.97 120.38 155.88 119.36 L 155.80 118.41 C 155.71 117.40 154.81 116.65 153.80 116.74 C 152.79 116.83 152.05 117.72 152.14 118.73 Z M 152.23 119.69 L 152.31 120.65 C 152.41 121.66 153.30 122.40 154.30 122.31 C 155.31 122.22 156.05 121.33 155.96 120.32 L 155.88 119.36 C 155.78 118.35 154.89 117.61 153.89 117.70 C 152.88 117.79 152.14 118.69 152.23 119.69 Z M 152.32 120.65 L 152.41 121.62 C 152.50 122.63 153.38 123.37 154.39 123.28 C 155.39 123.19 156.14 122.30 156.05 121.30 L 155.96 120.32 C 155.87 119.32 154.98 118.58 153.97 118.67 C 152.97 118.76 152.23 119.64 152.32 120.65 Z M 152.41 121.62 L 152.50 122.61 C 152.59 123.61 153.47 124.35 154.47 124.26 C 155.48 124.17 156.22 123.29 156.13 122.29 L 156.04 121.30 C 155.95 120.30 155.07 119.55 154.07 119.64 C 153.06 119.73 152.32 120.62 152.41 121.62 Z M 152.50 122.60 L 152.59 123.61 C 152.68 124.61 153.56 125.35 154.56 125.26 C 155.56 125.18 156.30 124.29 156.21 123.29 L 156.12 122.29 C 156.04 121.29 155.16 120.55 154.16 120.64 C 153.15 120.72 152.41 121.60 152.50 122.60 Z M 152.59 123.61 L 152.68 124.63 C 152.77 125.63 153.64 126.36 154.64 126.28 C 155.64 126.19 156.38 125.32 156.30 124.32 L 156.21 123.30 C 156.12 122.30 155.24 121.56 154.25 121.64 C 153.25 121.73 152.51 122.61 152.59 123.61 Z M 152.69 124.62 L 152.77 125.61 C 152.85 126.60 153.73 127.34 154.72 127.26 C 155.72 127.17 156.46 126.30 156.37 125.30 L 156.29 124.32 C 156.21 123.33 155.33 122.59 154.34 122.67 C 153.34 122.75 152.60 123.63 152.69 124.62 Z M 152.77 125.60 L 152.85 126.58 C 152.94 127.58 153.81 128.31 154.80 128.23 C 155.79 128.15 156.53 127.28 156.45 126.29 L 156.37 125.31 C 156.29 124.31 155.41 123.57 154.42 123.66 C 153.43 123.74 152.69 124.61 152.77 125.60 Z M 152.86 126.58 L 152.94 127.58 C 153.02 128.57 153.89 129.30 154.88 129.22 C 155.87 129.14 156.61 128.27 156.52 127.28 L 156.44 126.29 C 156.36 125.30 155.50 124.56 154.51 124.64 C 153.52 124.72 152.78 125.59 152.86 126.58 Z M 152.95 127.57 L 153.03 128.58 C 153.11 129.57 153.97 130.30 154.96 130.23 C 155.94 130.15 156.68 129.28 156.60 128.30 L 156.52 127.29 C 156.44 126.30 155.58 125.56 154.59 125.64 C 153.60 125.72 152.87 126.59 152.95 127.57 Z M 153.03 128.58 L 153.11 129.60 C 153.19 130.59 154.05 131.32 155.04 131.24 C 156.02 131.16 156.75 130.30 156.68 129.32 L 156.60 128.30 C 156.52 127.31 155.66 126.58 154.67 126.66 C 153.69 126.74 152.95 127.60 153.03 128.58 Z M 153.12 129.60 L 153.20 130.59 C 153.27 131.57 154.13 132.31 155.11 132.23 C 156.09 132.15 156.83 131.29 156.75 130.31 L 156.67 129.32 C 156.59 128.34 155.74 127.61 154.76 127.68 C 153.78 127.76 153.04 128.62 153.12 129.60 Z M 153.20 130.59 L 153.28 131.59 C 153.36 132.56 154.21 133.29 155.19 133.22 C 156.16 133.14 156.90 132.29 156.82 131.31 L 156.74 130.32 C 156.67 129.34 155.81 128.61 154.84 128.68 C 153.86 128.76 153.13 129.61 153.20 130.59 Z M 153.29 131.58 L 153.36 132.58 C 153.43 133.56 154.28 134.29 155.26 134.21 C 156.23 134.14 156.96 133.29 156.89 132.32 L 156.81 131.32 C 156.74 130.34 155.89 129.61 154.92 129.68 C 153.94 129.76 153.21 130.61 153.29 131.58 Z M 153.37 132.58 L 153.44 133.58 C 153.51 134.55 154.35 135.28 155.32 135.21 C 156.30 135.14 157.03 134.30 156.96 133.32 L 156.88 132.32 C 156.81 131.35 155.97 130.62 155.00 130.69 C 154.03 130.76 153.30 131.60 153.37 132.58 Z M 153.44 133.57 L 153.51 134.57 C 153.58 135.54 154.42 136.27 155.38 136.20 C 156.35 136.14 157.09 135.30 157.02 134.33 L 156.95 133.33 C 156.89 132.36 156.05 131.63 155.08 131.70 C 154.11 131.76 153.38 132.60 153.44 133.57 Z M 153.52 134.56 L 153.58 135.57 C 153.64 136.53 154.47 137.27 155.44 137.21 C 156.41 137.14 157.14 136.31 157.08 135.35 L 157.01 134.34 C 156.95 133.37 156.12 132.64 155.15 132.70 C 154.19 132.76 153.45 133.60 153.52 134.56 Z M 153.59 135.56 L 153.65 136.56 C 153.70 137.53 154.53 138.26 155.49 138.21 C 156.45 138.15 157.19 137.32 157.13 136.36 L 157.07 135.35 C 157.02 134.39 156.19 133.66 155.23 133.71 C 154.26 133.77 153.53 134.60 153.59 135.56 Z M 153.65 136.56 L 153.71 137.56 C 153.76 138.52 154.58 139.25 155.54 139.20 C 156.50 139.15 157.23 138.33 157.18 137.37 L 157.13 136.37 C 157.07 135.41 156.25 134.67 155.29 134.73 C 154.34 134.78 153.60 135.60 153.65 136.56 Z M 153.71 137.55 L 153.76 138.54 C 153.81 139.50 154.62 140.23 155.58 140.19 C 156.53 140.14 157.27 139.33 157.22 138.37 L 157.17 137.38 C 157.13 136.42 156.31 135.68 155.36 135.73 C 154.40 135.78 153.66 136.59 153.71 137.55 Z M 153.77 138.53 L 153.81 139.52 C 153.85 140.48 154.66 141.21 155.61 141.17 C 156.56 141.13 157.30 140.32 157.26 139.37 L 157.22 138.38 C 157.17 137.43 156.37 136.69 155.42 136.73 C 154.46 136.77 153.72 137.58 153.77 138.53 Z M 153.82 139.51 L 153.86 140.51 C 153.89 141.46 154.69 142.20 155.64 142.16 C 156.59 142.13 157.33 141.33 157.29 140.38 L 157.25 139.38 C 157.22 138.43 156.42 137.69 155.47 137.73 C 154.52 137.77 153.78 138.56 153.82 139.51 Z M 153.86 140.50 L 153.90 141.50 C 153.93 142.45 154.72 143.19 155.67 143.16 C 156.62 143.12 157.35 142.33 157.32 141.38 L 157.29 140.38 C 157.25 139.44 156.46 138.70 155.51 138.73 C 154.57 138.77 153.83 139.56 153.86 140.50 Z M 153.90 141.50 L 153.94 142.50 C 153.97 143.44 154.76 144.18 155.70 144.15 C 156.64 144.11 157.38 143.32 157.35 142.38 L 157.31 141.39 C 157.28 140.44 156.49 139.71 155.55 139.74 C 154.61 139.77 153.87 140.56 153.90 141.50 Z M 153.94 142.50 L 153.98 143.50 C 154.01 144.43 154.80 145.17 155.73 145.14 C 156.67 145.10 157.41 144.32 157.38 143.38 L 157.34 142.38 C 157.31 141.44 156.52 140.71 155.58 140.74 C 154.65 140.77 153.91 141.56 153.94 142.50 Z M 153.98 143.50 L 154.02 144.50 C 154.06 145.44 154.84 146.17 155.78 146.13 C 156.71 146.10 157.44 145.31 157.41 144.38 L 157.37 143.38 C 157.33 142.44 156.55 141.71 155.61 141.75 C 154.68 141.78 153.95 142.57 153.98 143.50 Z M 154.03 144.51 L 154.07 145.53 C 154.11 146.46 154.89 147.19 155.83 147.15 C 156.76 147.11 157.48 146.32 157.44 145.39 L 157.40 144.37 C 157.36 143.44 156.57 142.72 155.64 142.75 C 154.71 142.79 153.99 143.58 154.03 144.51 Z M 154.08 145.54 L 154.13 146.57 C 154.17 147.49 154.95 148.21 155.88 148.17 C 156.80 148.12 157.52 147.34 157.48 146.42 L 157.43 145.39 C 157.39 144.46 156.61 143.75 155.68 143.79 C 154.76 143.83 154.04 144.61 154.08 145.54 Z M 154.14 146.57 L 154.18 147.58 C 154.23 148.50 155.01 149.21 155.93 149.17 C 156.85 149.13 157.56 148.35 157.52 147.43 L 157.47 146.41 C 157.42 145.49 156.64 144.78 155.72 144.83 C 154.80 144.87 154.09 145.65 154.14 146.57 Z M 154.19 147.58 L 154.24 148.57 C 154.29 149.49 155.06 150.19 155.98 150.15 C 156.89 150.10 157.60 149.33 157.55 148.41 L 157.51 147.43 C 157.46 146.51 156.69 145.81 155.77 145.85 C 154.86 145.89 154.15 146.67 154.19 147.58 Z M 154.25 148.57 L 154.29 149.52 C 154.34 150.43 155.11 151.13 156.02 151.09 C 156.93 151.04 157.63 150.27 157.59 149.36 L 157.54 148.42 C 157.50 147.51 156.73 146.80 155.82 146.85 C 154.91 146.89 154.21 147.66 154.25 148.57 Z M 154.30 149.51 L 154.35 150.48 C 154.38 151.38 155.15 152.08 156.05 152.04 C 156.96 152.00 157.66 151.24 157.62 150.33 L 157.58 149.37 C 157.54 148.46 156.77 147.76 155.87 147.80 C 154.97 147.84 154.26 148.61 154.30 149.51 Z M 154.35 150.47 L 154.39 151.42 C 154.43 152.32 155.19 153.02 156.09 152.98 C 157.00 152.95 157.69 152.18 157.65 151.28 L 157.61 150.33 C 157.57 149.43 156.81 148.73 155.91 148.77 C 155.01 148.81 154.31 149.57 154.35 150.47 Z M 154.40 151.43 L 154.45 152.40 C 154.49 153.30 155.25 153.99 156.15 153.95 C 157.04 153.91 157.74 153.15 157.69 152.25 L 157.65 151.28 C 157.61 150.38 156.84 149.69 155.95 149.73 C 155.05 149.77 154.36 150.53 154.40 151.43 Z M 154.45 152.41 L 154.51 153.45 C 154.56 154.34 155.32 155.03 156.21 154.98 C 157.11 154.93 157.79 154.17 157.74 153.27 L 157.69 152.24 C 157.64 151.35 156.87 150.66 155.98 150.71 C 155.09 150.76 154.41 151.52 154.45 152.41 Z M 154.52 153.46 L 154.58 154.50 C 154.64 155.38 155.40 156.06 156.29 156.00 C 157.18 155.95 157.85 155.18 157.80 154.29 L 157.73 153.26 C 157.68 152.37 156.91 151.70 156.03 151.75 C 155.14 151.81 154.46 152.58 154.52 153.46 Z M 154.59 154.51 L 154.66 155.47 C 154.72 156.36 155.49 157.02 156.37 156.96 C 157.26 156.90 157.92 156.13 157.86 155.25 L 157.79 154.28 C 157.73 153.40 156.96 152.73 156.08 152.79 C 155.19 152.86 154.53 153.62 154.59 154.51 Z M 154.66 155.49 L 154.74 156.50 C 154.81 157.38 155.58 158.04 156.46 157.97 C 157.34 157.90 158.00 157.13 157.93 156.25 L 157.86 155.24 C 157.79 154.36 157.02 153.70 156.14 153.77 C 155.25 153.83 154.60 154.60 154.66 155.49 Z M 154.75 156.51 L 154.84 157.54 C 154.91 158.42 155.68 159.07 156.56 158.99 C 157.44 158.92 158.09 158.15 158.01 157.27 L 157.93 156.24 C 157.85 155.36 157.08 154.71 156.20 154.78 C 155.33 154.86 154.68 155.63 154.75 156.51 Z M 154.84 157.55 L 154.94 158.57 C 155.02 159.45 155.79 160.09 156.67 160.01 C 157.54 159.93 158.18 159.16 158.10 158.28 L 158.01 157.26 C 157.93 156.38 157.15 155.74 156.28 155.82 C 155.41 155.90 154.76 156.67 154.84 157.55 Z M 154.94 158.59 L 155.04 159.58 C 155.13 160.45 155.91 161.08 156.78 161.00 C 157.65 160.91 158.29 160.13 158.20 159.26 L 158.10 158.27 C 158.01 157.40 157.23 156.76 156.36 156.85 C 155.49 156.94 154.86 157.72 154.94 158.59 Z M 155.05 159.60 L 155.17 160.66 C 155.27 161.53 156.05 162.15 156.92 162.05 C 157.79 161.96 158.41 161.17 158.31 160.31 L 158.19 159.24 C 158.09 158.38 157.31 157.75 156.44 157.85 C 155.58 157.95 154.95 158.73 155.05 159.60 Z M 155.18 160.68 L 155.31 161.72 C 155.42 162.59 156.21 163.20 157.07 163.09 C 157.93 162.98 158.54 162.19 158.44 161.33 L 158.30 160.29 C 158.20 159.42 157.41 158.81 156.54 158.92 C 155.68 159.03 155.07 159.82 155.18 160.68 Z M 155.31 161.74 L 155.45 162.72 C 155.57 163.58 156.36 164.18 157.22 164.06 C 158.08 163.95 158.68 163.15 158.56 162.29 L 158.43 161.31 C 158.31 160.45 157.52 159.85 156.66 159.97 C 155.80 160.09 155.20 160.88 155.31 161.74 Z M 155.46 162.73 L 155.59 163.68 C 155.72 164.53 156.51 165.13 157.37 165.00 C 158.23 164.88 158.82 164.08 158.70 163.22 L 158.56 162.28 C 158.43 161.42 157.64 160.83 156.78 160.96 C 155.92 161.08 155.33 161.88 155.46 162.73 Z M 155.60 163.68 L 155.74 164.60 C 155.86 165.46 156.66 166.04 157.52 165.92 C 158.37 165.79 158.96 164.99 158.83 164.14 L 158.69 163.22 C 158.56 162.36 157.77 161.77 156.91 161.90 C 156.06 162.03 155.47 162.83 155.60 163.68 Z M 155.74 164.60 L 155.75 164.67 C 155.88 165.52 156.67 166.11 157.53 165.98 C 158.38 165.85 158.97 165.06 158.84 164.20 L 158.83 164.14 C 158.70 163.28 157.90 162.70 157.05 162.83 C 156.20 162.95 155.61 163.75 155.74 164.60 Z"
      fill="black"
      fill-rule="nonzero" /></svg>