<svg xmlns="http://www.w3.org/2000/svg" width="300" height="300" viewBox="0 0 300 300">
<path d="M 140.41 147.96 L 141.32 147.51 C 142.25 147.04 142.63 145.91 142.17 144.97 C 141.70 144.03 140.57 143.65 139.63 144.12 L 138.73 144.57 C 137.79 145.03 137.41 146.17 137.88 147.10 C 138.34 148.04 139.48 148.42 140.41 147.96 Z M 141.30 147.53 L 142.20 147.09 C 143.15 146.64 143.55 145.50 143.09 144.55 C 142.64 143.61 141.50 143.21 140.56 143.66 L 139.65 144.10 C 138.71 144.55 138.31 145.69 138.76 146.64 C 139.22 147.58 140.35 147.98 141.30 147.53 Z M 142.16 147.12 L 143.07 146.71 C 144.03 146.28 144.46 145.16 144.03 144.19 C 143.60 143.23 142.47 142.80 141.51 143.23 L 140.60 143.64 C 139.64 144.06 139.21 145.19 139.64 146.16 C 140.07 147.12 141.19 147.55 142.16 147.12 Z M 143.00 146.75 L 143.91 146.39 C 144.89 146.00 145.37 144.89 144.98 143.90 C 144.59 142.92 143.48 142.44 142.50 142.83 L 141.58 143.19 C 140.60 143.58 140.12 144.69 140.51 145.68 C 140.90 146.66 142.01 147.14 143.00 146.75 Z M 143.81 146.43 L 144.72 146.13 C 145.73 145.79 146.28 144.70 145.94 143.69 C 145.60 142.69 144.51 142.14 143.50 142.48 L 142.59 142.79 C 141.59 143.12 141.04 144.21 141.38 145.22 C 141.72 146.23 142.81 146.77 143.81 146.43 Z M 144.62 146.17 L 145.56 145.91 C 146.59 145.64 147.20 144.57 146.92 143.54 C 146.64 142.51 145.58 141.91 144.55 142.18 L 143.61 142.44 C 142.58 142.72 141.97 143.78 142.25 144.81 C 142.53 145.84 143.59 146.45 144.62 146.17 Z M 145.45 145.95 L 146.45 145.74 C 147.50 145.52 148.17 144.49 147.95 143.44 C 147.73 142.40 146.71 141.72 145.66 141.94 L 144.66 142.15 C 143.61 142.37 142.94 143.40 143.16 144.45 C 143.38 145.49 144.41 146.17 145.45 145.95 Z M 146.35 145.77 L 147.38 145.61 C 148.44 145.45 149.17 144.45 149.01 143.39 C 148.84 142.33 147.85 141.60 146.79 141.76 L 145.76 141.92 C 144.70 142.08 143.97 143.07 144.13 144.14 C 144.29 145.20 145.29 145.93 146.35 145.77 Z M 147.29 145.62 L 148.28 145.52 C 149.35 145.40 150.12 144.44 150.01 143.37 C 149.89 142.30 148.93 141.52 147.86 141.64 L 146.87 141.74 C 145.80 141.86 145.03 142.82 145.14 143.89 C 145.26 144.97 146.22 145.74 147.29 145.62 Z M 148.21 145.52 L 149.22 145.45 C 150.29 145.37 151.10 144.44 151.03 143.37 C 150.95 142.29 150.02 141.48 148.94 141.56 L 147.93 141.63 C 146.85 141.71 146.04 142.64 146.12 143.72 C 146.20 144.79 147.13 145.60 148.21 145.52 Z M 149.15 145.46 L 150.17 145.42 C 151.25 145.38 152.09 144.48 152.05 143.40 C 152.01 142.32 151.11 141.48 150.03 141.52 L 149.01 141.55 C 147.93 141.59 147.09 142.50 147.13 143.57 C 147.17 144.65 148.07 145.49 149.15 145.46 Z M 150.10 145.42 L 151.09 145.42 C 152.17 145.42 153.04 144.55 153.04 143.47 C 153.05 142.39 152.17 141.52 151.09 141.52 L 150.10 141.52 C 149.02 141.51 148.15 142.39 148.15 143.47 C 148.14 144.54 149.02 145.42 150.10 145.42 Z M 151.00 145.42 L 152.06 145.47 C 153.14 145.52 154.05 144.69 154.10 143.61 C 154.15 142.54 153.32 141.62 152.25 141.57 L 151.18 141.52 C 150.11 141.47 149.19 142.30 149.14 143.38 C 149.09 144.45 149.92 145.37 151.00 145.42 Z M 151.91 145.46 L 152.93 145.58 C 154.00 145.72 154.98 144.95 155.11 143.88 C 155.24 142.81 154.48 141.84 153.41 141.71 L 152.39 141.58 C 151.32 141.45 150.34 142.21 150.21 143.28 C 150.08 144.35 150.84 145.33 151.91 145.46 Z M 152.72 145.55 L 153.66 145.77 C 154.71 146.02 155.76 145.37 156.01 144.32 C 156.26 143.27 155.61 142.22 154.57 141.97 L 153.62 141.74 C 152.57 141.50 151.52 142.14 151.27 143.19 C 151.02 144.24 151.67 145.30 152.72 145.55 Z M 153.39 145.68 L 154.25 146.03 C 155.26 146.43 156.39 145.95 156.79 144.95 C 157.20 143.94 156.71 142.81 155.71 142.41 L 154.84 142.06 C 153.84 141.65 152.70 142.14 152.30 143.14 C 151.90 144.14 152.38 145.28 153.39 145.68 Z M 153.95 145.87 L 154.79 146.40 C 155.71 146.97 156.91 146.70 157.48 145.78 C 158.06 144.87 157.78 143.66 156.86 143.09 L 156.02 142.56 C 155.10 141.99 153.90 142.27 153.33 143.18 C 152.75 144.10 153.03 145.30 153.95 145.87 Z M 154.55 146.22 L 155.31 146.88 C 156.12 147.59 157.35 147.50 158.06 146.69 C 158.77 145.88 158.68 144.65 157.87 143.94 L 157.11 143.28 C 156.30 142.57 155.07 142.65 154.36 143.46 C 153.65 144.28 153.73 145.51 154.55 146.22 Z M 155.13 146.70 L 155.79 147.45 C 156.50 148.26 157.73 148.33 158.54 147.62 C 159.35 146.91 159.42 145.68 158.71 144.87 L 158.05 144.12 C 157.34 143.31 156.11 143.24 155.30 143.95 C 154.49 144.66 154.41 145.89 155.13 146.70 Z M 155.65 147.27 L 156.22 148.09 C 156.84 148.97 158.05 149.19 158.94 148.58 C 159.82 147.96 160.03 146.75 159.42 145.86 L 158.85 145.05 C 158.23 144.16 157.02 143.95 156.14 144.56 C 155.25 145.18 155.04 146.39 155.65 147.27 Z M 156.11 147.90 L 156.59 148.79 C 157.10 149.74 158.28 150.09 159.23 149.58 C 160.17 149.07 160.52 147.89 160.01 146.94 L 159.53 146.05 C 159.02 145.11 157.84 144.76 156.90 145.27 C 155.95 145.78 155.60 146.96 156.11 147.90 Z M 156.49 148.58 L 156.86 149.50 C 157.25 150.50 158.38 150.98 159.38 150.59 C 160.38 150.19 160.87 149.06 160.47 148.06 L 160.11 147.15 C 159.71 146.15 158.58 145.66 157.58 146.06 C 156.59 146.46 156.10 147.59 156.49 148.58 Z M 156.79 149.30 L 157.05 150.25 C 157.34 151.28 158.41 151.89 159.44 151.60 C 160.48 151.32 161.08 150.25 160.80 149.22 L 160.54 148.27 C 160.25 147.23 159.18 146.62 158.15 146.91 C 157.12 147.19 156.51 148.26 156.79 149.30 Z M 157.02 150.07 L 157.19 151.01 C 157.38 152.06 158.38 152.77 159.44 152.58 C 160.49 152.39 161.19 151.38 161.00 150.32 L 160.84 149.39 C 160.65 148.33 159.64 147.63 158.58 147.82 C 157.53 148.01 156.83 149.02 157.02 150.07 Z M 157.17 150.88 L 157.28 151.86 C 157.40 152.93 158.35 153.69 159.42 153.58 C 160.48 153.46 161.25 152.50 161.13 151.44 L 161.02 150.45 C 160.90 149.39 159.94 148.62 158.88 148.74 C 157.82 148.86 157.05 149.82 157.17 150.88 Z M 157.27 151.77 L 157.34 152.80 C 157.40 153.87 158.32 154.68 159.39 154.61 C 160.46 154.55 161.27 153.63 161.20 152.56 L 161.13 151.53 C 161.07 150.46 160.15 149.65 159.08 149.72 C 158.01 149.79 157.20 150.71 157.27 151.77 Z M 157.34 152.75 L 157.37 153.73 C 157.41 154.79 158.30 155.63 159.37 155.59 C 160.44 155.56 161.27 154.66 161.23 153.60 L 161.20 152.62 C 161.16 151.55 160.27 150.71 159.20 150.75 C 158.14 150.79 157.30 151.68 157.34 152.75 Z M 157.37 153.68 L 157.38 154.62 C 157.39 155.69 158.26 156.54 159.32 156.54 C 160.39 156.53 161.24 155.66 161.24 154.60 L 161.23 153.65 C 161.22 152.58 160.35 151.73 159.29 151.73 C 158.22 151.74 157.37 152.61 157.37 153.68 Z M 157.39 154.55 L 157.35 155.54 C 157.32 156.60 158.15 157.49 159.22 157.52 C 160.28 157.56 161.17 156.72 161.20 155.66 L 161.23 154.67 C 161.27 153.61 160.43 152.72 159.37 152.69 C 158.31 152.65 157.42 153.49 157.39 154.55 Z M 157.36 155.45 L 157.28 156.49 C 157.20 157.55 157.98 158.47 159.04 158.56 C 160.10 158.64 161.02 157.86 161.11 156.80 L 161.19 155.75 C 161.28 154.70 160.49 153.77 159.43 153.69 C 158.37 153.60 157.45 154.39 157.36 155.45 Z M 157.30 156.39 L 157.16 157.39 C 157.02 158.44 157.76 159.40 158.81 159.54 C 159.86 159.68 160.82 158.95 160.96 157.90 L 161.09 156.90 C 161.23 155.85 160.50 154.89 159.45 154.75 C 158.40 154.61 157.44 155.34 157.30 156.39 Z M 157.18 157.30 L 157.02 158.18 C 156.83 159.21 157.52 160.21 158.56 160.40 C 159.59 160.59 160.59 159.90 160.78 158.86 L 160.94 157.99 C 161.13 156.95 160.44 155.96 159.40 155.77 C 158.37 155.58 157.37 156.26 157.18 157.30 Z M 157.05 158.10 L 156.84 159.02 C 156.61 160.04 157.25 161.06 158.27 161.29 C 159.29 161.53 160.31 160.88 160.54 159.86 L 160.75 158.94 C 160.99 157.92 160.34 156.90 159.32 156.67 C 158.30 156.44 157.28 157.08 157.05 158.10 Z M 156.86 158.95 L 156.60 159.91 C 156.33 160.92 156.93 161.96 157.94 162.23 C 158.95 162.50 159.99 161.91 160.26 160.90 L 160.52 159.93 C 160.79 158.92 160.19 157.88 159.18 157.61 C 158.17 157.34 157.14 157.94 156.86 158.95 Z M 156.63 159.85 L 156.32 160.86 C 156.01 161.86 156.56 162.91 157.56 163.22 C 158.55 163.53 159.61 162.97 159.92 161.98 L 160.23 160.96 C 160.54 159.97 159.98 158.91 158.99 158.60 C 157.99 158.30 156.94 158.85 156.63 159.85 Z M 156.34 160.80 L 155.97 161.88 C 155.63 162.86 156.15 163.93 157.13 164.27 C 158.11 164.61 159.18 164.09 159.52 163.11 L 159.89 162.04 C 160.23 161.06 159.71 159.99 158.73 159.65 C 157.75 159.31 156.68 159.83 156.34 160.80 Z M 156.00 161.83 L 155.64 162.78 C 155.27 163.74 155.76 164.82 156.72 165.19 C 157.69 165.55 158.76 165.07 159.13 164.10 L 159.49 163.16 C 159.86 162.19 159.37 161.11 158.41 160.75 C 157.44 160.38 156.36 160.87 156.00 161.83 Z M 155.66 162.74 L 155.28 163.69 C 154.89 164.64 155.35 165.73 156.30 166.11 C 157.25 166.50 158.34 166.04 158.72 165.09 L 159.10 164.14 C 159.49 163.19 159.03 162.10 158.08 161.72 C 157.13 161.34 156.05 161.79 155.66 162.74 Z M 155.30 163.67 L 154.89 164.62 C 154.50 165.56 154.93 166.64 155.87 167.04 C 156.81 167.44 157.89 167.01 158.29 166.07 L 158.70 165.11 C 159.10 164.18 158.66 163.09 157.72 162.69 C 156.79 162.29 155.70 162.73 155.30 163.67 Z M 154.92 164.60 L 154.50 165.54 C 154.08 166.47 154.50 167.55 155.42 167.97 C 156.35 168.38 157.43 167.96 157.84 167.04 L 158.27 166.09 C 158.68 165.17 158.26 164.09 157.34 163.67 C 156.42 163.26 155.33 163.67 154.92 164.60 Z M 154.52 165.52 L 154.09 166.44 C 153.66 167.35 154.06 168.43 154.97 168.86 C 155.88 169.29 156.97 168.89 157.39 167.98 L 157.82 167.06 C 158.25 166.15 157.85 165.07 156.94 164.64 C 156.03 164.22 154.94 164.61 154.52 165.52 Z M 154.11 166.42 L 153.69 167.29 C 153.25 168.19 153.62 169.27 154.52 169.71 C 155.42 170.15 156.51 169.77 156.94 168.87 L 157.37 168.00 C 157.81 167.10 157.43 166.02 156.53 165.58 C 155.64 165.14 154.55 165.52 154.11 166.42 Z M 153.72 167.26 L 153.28 168.12 C 152.82 169.01 153.17 170.09 154.06 170.54 C 154.94 170.99 156.02 170.64 156.48 169.76 L 156.92 168.90 C 157.37 168.01 157.02 166.93 156.13 166.48 C 155.25 166.03 154.17 166.38 153.72 167.26 Z M 153.32 168.09 L 152.77 169.10 C 152.30 169.96 152.61 171.04 153.47 171.51 C 154.33 171.98 155.41 171.66 155.88 170.80 L 156.43 169.80 C 156.90 168.94 156.59 167.86 155.73 167.39 C 154.87 166.92 153.79 167.23 153.32 168.09 Z M 152.83 169.05 L 152.30 169.93 C 151.80 170.75 152.06 171.82 152.89 172.32 C 153.71 172.82 154.78 172.56 155.28 171.73 L 155.81 170.85 C 156.31 170.03 156.05 168.96 155.23 168.46 C 154.40 167.96 153.33 168.22 152.83 169.05 Z M 152.37 169.86 L 151.84 170.64 C 151.31 171.43 151.51 172.49 152.29 173.03 C 153.07 173.56 154.14 173.36 154.67 172.58 L 155.20 171.80 C 155.74 171.02 155.54 169.95 154.76 169.42 C 153.97 168.88 152.91 169.08 152.37 169.86 Z M 151.93 170.58 L 151.38 171.28 C 150.81 172.02 150.94 173.08 151.67 173.65 C 152.40 174.22 153.46 174.09 154.03 173.35 L 154.58 172.65 C 155.16 171.91 155.02 170.85 154.29 170.28 C 153.56 169.71 152.50 169.84 151.93 170.58 Z M 151.47 171.22 L 150.85 171.91 C 150.24 172.59 150.30 173.64 150.99 174.25 C 151.67 174.86 152.72 174.80 153.33 174.12 L 153.94 173.42 C 154.55 172.74 154.49 171.69 153.81 171.08 C 153.12 170.47 152.08 170.53 151.47 171.22 Z M 150.92 171.85 L 150.22 172.54 C 149.58 173.19 149.58 174.23 150.22 174.87 C 150.86 175.52 151.91 175.52 152.55 174.88 L 153.25 174.18 C 153.90 173.54 153.90 172.49 153.25 171.85 C 152.61 171.20 151.57 171.20 150.92 171.85 Z M 150.28 172.50 L 149.54 173.17 C 148.87 173.78 148.82 174.82 149.44 175.50 C 150.05 176.17 151.09 176.21 151.76 175.60 L 152.50 174.92 C 153.17 174.31 153.22 173.27 152.60 172.60 C 151.99 171.93 150.95 171.88 150.28 172.50 Z M 149.58 173.14 L 148.81 173.80 C 148.13 174.40 148.05 175.43 148.65 176.12 C 149.24 176.80 150.27 176.88 150.96 176.29 L 151.72 175.63 C 152.41 175.03 152.48 174.00 151.89 173.31 C 151.30 172.63 150.26 172.55 149.58 173.14 Z M 148.83 173.79 L 148.20 174.33 C 147.50 174.91 147.42 175.94 148.00 176.64 C 148.58 177.33 149.62 177.42 150.31 176.83 L 150.94 176.30 C 151.63 175.71 151.72 174.68 151.14 173.99 C 150.56 173.30 149.52 173.21 148.83 173.79 Z"
      fill="black"
      fill-rule="nonzero" /></svg>