<svg xmlns="http://www.w3.org/2000/svg" width="300" height="300" viewBox="0 0 300 300">
<path d="M 144.95 140.22 L 145.90 140.19 C 146.88 140.15 147.65 139.31 147.61 138.33 C 147.57 137.34 146.74 136.57 145.76 136.61 L 144.81 136.65 C 143.82 136.69 143.05 137.52 143.09 138.50 C 143.13 139.49 143.96 140.26 144.95 140.22 Z M 145.85 140.23 L 146.83 140.21 C 147.84 140.20 148.65 139.37 148.64 138.36 C 148.62 137.35 147.79 136.54 146.78 136.55 L 145.80 136.57 C 144.79 136.58 143.98 137.41 144.00 138.42 C 144.01 139.43 144.84 140.24 145.85 140.23 Z M 146.75 140.25 L 147.79 140.29 C 148.82 140.32 149.69 139.51 149.72 138.48 C 149.75 137.45 148.94 136.58 147.91 136.55 L 146.87 136.52 C 145.84 136.48 144.97 137.29 144.94 138.32 C 144.91 139.36 145.71 140.22 146.75 140.25 Z M 147.69 140.31 L 148.68 140.39 C 149.73 140.48 150.64 139.71 150.73 138.67 C 150.82 137.62 150.05 136.71 149.01 136.62 L 148.01 136.53 C 146.97 136.44 146.05 137.21 145.96 138.25 C 145.87 139.30 146.65 140.21 147.69 140.31 Z M 148.60 140.39 L 149.60 140.52 C 150.64 140.66 151.60 139.92 151.73 138.88 C 151.87 137.84 151.14 136.89 150.10 136.75 L 149.09 136.62 C 148.05 136.48 147.10 137.22 146.96 138.26 C 146.83 139.30 147.56 140.25 148.60 140.39 Z M 149.53 140.51 L 150.54 140.68 C 151.58 140.86 152.56 140.16 152.73 139.12 C 152.91 138.08 152.21 137.10 151.17 136.93 L 150.16 136.76 C 149.13 136.58 148.15 137.28 147.97 138.32 C 147.80 139.36 148.50 140.34 149.53 140.51 Z M 150.48 140.67 L 151.45 140.87 C 152.48 141.08 153.49 140.41 153.70 139.38 C 153.90 138.35 153.24 137.34 152.21 137.13 L 151.23 136.94 C 150.20 136.73 149.20 137.39 148.99 138.43 C 148.78 139.46 149.44 140.46 150.48 140.67 Z M 151.38 140.85 L 152.39 141.10 C 153.42 141.35 154.45 140.72 154.70 139.70 C 154.95 138.68 154.32 137.65 153.29 137.40 L 152.28 137.15 C 151.26 136.90 150.22 137.53 149.98 138.55 C 149.73 139.58 150.35 140.61 151.38 140.85 Z M 152.31 141.08 L 153.26 141.36 C 154.27 141.66 155.33 141.08 155.63 140.07 C 155.92 139.06 155.35 138.00 154.34 137.70 L 153.38 137.42 C 152.37 137.12 151.31 137.70 151.02 138.71 C 150.72 139.72 151.30 140.78 152.31 141.08 Z M 153.16 141.33 L 154.08 141.65 C 155.07 142.00 156.16 141.48 156.51 140.49 C 156.86 139.50 156.34 138.41 155.35 138.06 L 154.43 137.73 C 153.44 137.38 152.35 137.90 152.00 138.89 C 151.65 139.89 152.17 140.97 153.16 141.33 Z M 153.98 141.61 L 154.89 141.99 C 155.86 142.40 156.97 141.94 157.38 140.97 C 157.79 140.00 157.33 138.88 156.36 138.48 L 155.45 138.10 C 154.48 137.69 153.36 138.15 152.95 139.12 C 152.55 140.09 153.00 141.21 153.98 141.61 Z M 154.78 141.95 L 155.68 142.39 C 156.63 142.85 157.77 142.46 158.24 141.52 C 158.70 140.57 158.31 139.43 157.36 138.97 L 156.46 138.52 C 155.52 138.06 154.38 138.45 153.91 139.40 C 153.45 140.34 153.84 141.48 154.78 141.95 Z M 155.57 142.33 L 156.44 142.83 C 157.35 143.36 158.51 143.05 159.04 142.14 C 159.57 141.23 159.26 140.06 158.35 139.53 L 157.48 139.03 C 156.57 138.50 155.40 138.81 154.87 139.72 C 154.35 140.63 154.66 141.80 155.57 142.33 Z M 156.31 142.75 L 157.13 143.32 C 157.99 143.92 159.18 143.70 159.78 142.84 C 160.38 141.97 160.16 140.78 159.30 140.18 L 158.48 139.62 C 157.61 139.02 156.43 139.23 155.83 140.10 C 155.23 140.96 155.44 142.15 156.31 142.75 Z M 156.98 143.20 L 157.75 143.85 C 158.55 144.53 159.75 144.43 160.43 143.63 C 161.11 142.83 161.01 141.63 160.21 140.95 L 159.44 140.30 C 158.64 139.62 157.44 139.72 156.76 140.52 C 156.08 141.32 156.18 142.52 156.98 143.20 Z M 157.60 143.71 L 158.29 144.43 C 159.01 145.19 160.22 145.22 160.98 144.50 C 161.74 143.77 161.77 142.57 161.04 141.81 L 160.36 141.09 C 159.63 140.33 158.43 140.30 157.67 141.02 C 156.91 141.75 156.88 142.95 157.60 143.71 Z M 158.15 144.26 L 158.75 145.06 C 159.38 145.89 160.57 146.06 161.41 145.43 C 162.25 144.79 162.41 143.60 161.78 142.77 L 161.18 141.97 C 160.55 141.14 159.36 140.97 158.52 141.60 C 157.68 142.24 157.52 143.43 158.15 144.26 Z M 158.63 144.87 L 159.11 145.69 C 159.64 146.59 160.80 146.89 161.70 146.36 C 162.61 145.83 162.91 144.67 162.38 143.77 L 161.90 142.95 C 161.37 142.05 160.20 141.75 159.30 142.28 C 158.40 142.81 158.10 143.97 158.63 144.87 Z M 159.01 145.49 L 159.41 146.39 C 159.83 147.34 160.95 147.77 161.90 147.35 C 162.86 146.93 163.29 145.81 162.87 144.86 L 162.47 143.96 C 162.05 143.01 160.93 142.58 159.98 143.00 C 159.02 143.42 158.59 144.54 159.01 145.49 Z M 159.34 146.19 L 159.65 147.18 C 159.96 148.17 161.02 148.72 162.01 148.41 C 163.00 148.10 163.56 147.05 163.25 146.05 L 162.94 145.06 C 162.63 144.07 161.57 143.51 160.58 143.82 C 159.58 144.14 159.03 145.19 159.34 146.19 Z M 159.61 147.00 L 159.81 147.95 C 160.02 148.97 161.01 149.62 162.03 149.41 C 163.04 149.20 163.70 148.20 163.49 147.19 L 163.29 146.23 C 163.08 145.22 162.08 144.57 161.07 144.78 C 160.05 144.99 159.40 145.98 159.61 147.00 Z M 159.79 147.81 L 159.91 148.75 C 160.05 149.78 160.99 150.50 162.01 150.37 C 163.04 150.23 163.76 149.29 163.63 148.27 L 163.50 147.33 C 163.37 146.30 162.43 145.58 161.40 145.71 C 160.38 145.85 159.66 146.79 159.79 147.81 Z M 159.91 148.64 L 159.98 149.64 C 160.05 150.67 160.94 151.44 161.97 151.37 C 163.00 151.30 163.77 150.41 163.70 149.38 L 163.63 148.38 C 163.56 147.35 162.67 146.58 161.64 146.65 C 160.61 146.72 159.84 147.62 159.91 148.64 Z M 159.98 149.55 L 160.01 150.60 C 160.03 151.63 160.88 152.44 161.90 152.42 C 162.93 152.40 163.74 151.55 163.72 150.52 L 163.70 149.47 C 163.68 148.45 162.83 147.63 161.80 147.66 C 160.78 147.68 159.96 148.52 159.98 149.55 Z M 160.01 150.52 L 159.99 151.59 C 159.97 152.61 160.78 153.45 161.80 153.48 C 162.82 153.50 163.67 152.69 163.69 151.67 L 163.71 150.60 C 163.73 149.58 162.92 148.74 161.90 148.71 C 160.88 148.69 160.04 149.50 160.01 150.52 Z M 160.00 151.52 L 159.94 152.56 C 159.89 153.57 160.66 154.44 161.67 154.50 C 162.69 154.56 163.56 153.78 163.62 152.77 L 163.68 151.73 C 163.73 150.72 162.96 149.85 161.94 149.79 C 160.93 149.73 160.06 150.51 160.00 151.52 Z M 159.96 152.50 L 159.86 153.52 C 159.77 154.53 160.51 155.42 161.52 155.51 C 162.52 155.61 163.41 154.87 163.50 153.86 L 163.60 152.83 C 163.69 151.83 162.95 150.94 161.95 150.84 C 160.94 150.75 160.05 151.49 159.96 152.50 Z M 159.88 153.46 L 159.75 154.45 C 159.62 155.45 160.33 156.36 161.32 156.49 C 162.32 156.62 163.23 155.92 163.36 154.92 L 163.49 153.93 C 163.62 152.93 162.91 152.02 161.92 151.89 C 160.92 151.76 160.01 152.46 159.88 153.46 Z M 159.78 154.38 L 159.61 155.31 C 159.44 156.29 160.10 157.22 161.08 157.40 C 162.06 157.57 163.00 156.91 163.17 155.93 L 163.33 155.00 C 163.50 154.02 162.85 153.08 161.87 152.91 C 160.88 152.74 159.95 153.39 159.78 154.38 Z M 159.65 155.20 L 159.41 156.24 C 159.18 157.20 159.77 158.16 160.73 158.39 C 161.70 158.62 162.66 158.03 162.89 157.06 L 163.14 156.03 C 163.36 155.07 162.77 154.10 161.81 153.88 C 160.84 153.65 159.88 154.24 159.65 155.20 Z M 159.46 156.12 L 159.15 157.09 C 158.86 158.02 159.38 159.02 160.31 159.31 C 161.24 159.61 162.24 159.09 162.53 158.16 L 162.84 157.18 C 163.13 156.25 162.61 155.25 161.68 154.96 C 160.75 154.67 159.75 155.18 159.46 156.12 Z M 159.21 156.99 L 158.87 157.88 C 158.52 158.78 158.97 159.80 159.87 160.14 C 160.78 160.49 161.79 160.04 162.14 159.14 L 162.48 158.25 C 162.82 157.35 162.37 156.33 161.47 155.99 C 160.57 155.64 159.55 156.09 159.21 156.99 Z M 158.91 157.83 L 158.54 158.69 C 158.16 159.57 158.57 160.59 159.45 160.96 C 160.33 161.34 161.35 160.93 161.73 160.05 L 162.10 159.19 C 162.47 158.31 162.06 157.29 161.18 156.91 C 160.30 156.54 159.28 156.95 158.91 157.83 Z M 158.56 158.67 L 158.16 159.58 C 157.78 160.44 158.17 161.46 159.04 161.84 C 159.90 162.23 160.92 161.84 161.30 160.97 L 161.70 160.07 C 162.09 159.20 161.70 158.18 160.83 157.80 C 159.96 157.41 158.95 157.81 158.56 158.67 Z M 158.18 159.56 L 157.76 160.47 C 157.37 161.32 157.74 162.34 158.60 162.73 C 159.46 163.13 160.47 162.75 160.87 161.90 L 161.28 160.99 C 161.68 160.13 161.30 159.12 160.45 158.72 C 159.59 158.33 158.58 158.70 158.18 159.56 Z M 157.79 160.45 L 157.35 161.36 C 156.94 162.21 157.30 163.22 158.14 163.63 C 158.99 164.03 160.00 163.67 160.41 162.83 L 160.85 161.91 C 161.25 161.07 160.89 160.06 160.05 159.65 C 159.20 159.25 158.19 159.60 157.79 160.45 Z M 157.37 161.35 L 156.94 162.21 C 156.52 163.04 156.86 164.05 157.70 164.47 C 158.53 164.88 159.54 164.54 159.96 163.71 L 160.39 162.85 C 160.80 162.01 160.46 161.00 159.63 160.59 C 158.79 160.17 157.78 160.51 157.37 161.35 Z M 156.95 162.20 L 156.50 163.08 C 156.09 163.91 156.42 164.92 157.24 165.34 C 158.07 165.76 159.08 165.43 159.50 164.60 L 159.94 163.72 C 160.36 162.89 160.03 161.88 159.21 161.46 C 158.38 161.04 157.37 161.37 156.95 162.20 Z M 156.51 163.09 L 156.05 164.00 C 155.63 164.82 155.96 165.83 156.78 166.24 C 157.60 166.66 158.61 166.33 159.03 165.51 L 159.49 164.60 C 159.91 163.77 159.58 162.77 158.75 162.35 C 157.93 161.94 156.93 162.27 156.51 163.09 Z M 156.05 164.01 L 155.60 164.93 C 155.19 165.75 155.52 166.74 156.34 167.15 C 157.16 167.56 158.16 167.23 158.57 166.41 L 159.02 165.50 C 159.43 164.68 159.10 163.68 158.28 163.27 C 157.46 162.86 156.46 163.19 156.05 164.01 Z M 155.60 164.93 L 155.15 165.84 C 154.74 166.66 155.08 167.65 155.90 168.06 C 156.72 168.46 157.71 168.13 158.12 167.31 L 158.56 166.40 C 158.97 165.58 158.63 164.59 157.82 164.19 C 157.00 163.78 156.00 164.11 155.60 164.93 Z M 155.16 165.83 L 154.71 166.74 C 154.30 167.55 154.62 168.54 155.44 168.95 C 156.25 169.36 157.24 169.03 157.65 168.22 L 158.11 167.31 C 158.52 166.50 158.19 165.51 157.37 165.10 C 156.56 164.69 155.57 165.02 155.16 165.83 Z M 154.72 166.72 L 154.26 167.60 C 153.84 168.40 154.16 169.39 154.96 169.81 C 155.77 170.23 156.76 169.92 157.18 169.11 L 157.64 168.24 C 158.06 167.43 157.74 166.44 156.94 166.02 C 156.13 165.60 155.14 165.91 154.72 166.72 Z M 154.29 167.56 L 153.79 168.47 C 153.35 169.26 153.64 170.26 154.43 170.70 C 155.22 171.14 156.22 170.85 156.66 170.05 L 157.16 169.15 C 157.60 168.35 157.31 167.36 156.52 166.92 C 155.72 166.48 154.72 166.77 154.29 167.56 Z M 153.81 168.43 L 153.30 169.31 C 152.84 170.09 153.10 171.09 153.88 171.55 C 154.67 172.01 155.67 171.74 156.13 170.96 L 156.64 170.09 C 157.09 169.31 156.83 168.30 156.05 167.85 C 155.27 167.39 154.26 167.65 153.81 168.43 Z M 153.31 169.29 L 152.81 170.12 C 152.34 170.89 152.59 171.90 153.36 172.37 C 154.13 172.84 155.14 172.59 155.61 171.81 L 156.11 170.98 C 156.58 170.21 156.33 169.20 155.56 168.73 C 154.79 168.26 153.78 168.51 153.31 169.29 Z M 152.81 170.11 L 152.32 170.91 C 151.85 171.69 152.10 172.69 152.87 173.16 C 153.64 173.63 154.65 173.39 155.12 172.62 L 155.61 171.82 C 156.08 171.05 155.83 170.04 155.06 169.57 C 154.29 169.10 153.28 169.34 152.81 170.11 Z M 152.32 170.91 L 151.84 171.70 C 151.37 172.47 151.61 173.48 152.39 173.95 C 153.16 174.42 154.17 174.18 154.64 173.41 L 155.12 172.62 C 155.59 171.85 155.35 170.84 154.57 170.37 C 153.80 169.90 152.80 170.14 152.32 170.91 Z M 151.85 171.69 L 151.33 172.52 C 150.85 173.29 151.08 174.30 151.85 174.78 C 152.62 175.26 153.63 175.03 154.11 174.26 L 154.63 173.42 C 155.11 172.65 154.87 171.64 154.11 171.16 C 153.34 170.69 152.33 170.92 151.85 171.69 Z M 151.34 172.50 L 150.74 173.44 C 150.25 174.20 150.47 175.21 151.23 175.70 C 151.99 176.19 153.00 175.97 153.49 175.21 L 154.09 174.28 C 154.58 173.52 154.36 172.51 153.60 172.02 C 152.85 171.53 151.83 171.74 151.34 172.50 Z M 150.75 173.42 L 150.25 174.18 C 149.74 174.93 149.95 175.94 150.70 176.45 C 151.45 176.95 152.47 176.74 152.97 175.99 L 153.48 175.23 C 153.98 174.48 153.78 173.46 153.02 172.96 C 152.27 172.46 151.25 172.66 150.75 173.42 Z M 150.25 174.16 L 149.72 174.96 C 149.21 175.70 149.40 176.72 150.15 177.23 C 150.90 177.74 151.91 177.55 152.42 176.80 L 152.96 176.00 C 153.47 175.26 153.28 174.24 152.53 173.73 C 151.78 173.22 150.76 173.42 150.25 174.16 Z M 149.72 174.95 L 149.14 175.79 C 148.63 176.53 148.82 177.55 149.56 178.06 C 150.31 178.57 151.33 178.39 151.84 177.64 L 152.42 176.81 C 152.93 176.06 152.74 175.04 152.00 174.53 C 151.25 174.02 150.23 174.20 149.72 174.95 Z M 149.15 175.78 L 148.55 176.65 C 148.03 177.39 148.22 178.41 148.96 178.92 C 149.70 179.44 150.72 179.25 151.24 178.51 L 151.84 177.65 C 152.35 176.90 152.17 175.88 151.43 175.37 C 150.68 174.85 149.66 175.04 149.15 175.78 Z M 148.55 176.64 L 147.94 177.52 C 147.42 178.26 147.60 179.28 148.35 179.80 C 149.09 180.32 150.11 180.14 150.62 179.39 L 151.24 178.51 C 151.75 177.77 151.57 176.75 150.83 176.24 C 150.09 175.72 149.07 175.90 148.55 176.64 Z"
      fill="black"
      fill-rule="nonzero" /></svg>