<svg xmlns="http://www.w3.org/2000/svg" width="300" height="300" viewBox="0 0 300 300">
<path d="M 148.23 89.91 L 147.86 90.78 C 147.54 91.51 147.87 92.36 148.60 92.68 C 149.34 93.00 150.19 92.67 150.51 91.93 L 150.89 91.07 C 151.20 90.33 150.87 89.48 150.14 89.16 C 149.41 88.84 148.55 89.18 148.23 89.91 Z M 147.83 90.74 L 147.41 91.67 C 147.07 92.42 147.40 93.30 148.15 93.64 C 148.90 93.98 149.78 93.65 150.12 92.90 L 150.54 91.97 C 150.88 91.22 150.54 90.34 149.80 90.00 C 149.05 89.66 148.16 89.99 147.83 90.74 Z M 147.39 91.63 L 146.96 92.55 C 146.60 93.31 146.92 94.22 147.67 94.57 C 148.43 94.93 149.34 94.61 149.69 93.86 L 150.13 92.94 C 150.49 92.18 150.17 91.27 149.41 90.91 C 148.66 90.56 147.75 90.88 147.39 91.63 Z M 146.96 92.53 L 146.51 93.45 C 146.13 94.20 146.44 95.11 147.20 95.49 C 147.95 95.86 148.86 95.55 149.24 94.80 L 149.69 93.88 C 150.06 93.13 149.75 92.21 149.00 91.84 C 148.25 91.47 147.33 91.78 146.96 92.53 Z M 146.52 93.43 L 146.06 94.32 C 145.68 95.07 145.98 95.99 146.72 96.37 C 147.47 96.75 148.39 96.45 148.77 95.70 L 149.23 94.81 C 149.61 94.06 149.31 93.15 148.56 92.76 C 147.82 92.38 146.90 92.68 146.52 93.43 Z M 146.07 94.30 L 145.59 95.21 C 145.20 95.95 145.48 96.88 146.22 97.27 C 146.97 97.66 147.89 97.38 148.28 96.63 L 148.76 95.72 C 149.16 94.98 148.87 94.06 148.13 93.67 C 147.39 93.27 146.46 93.56 146.07 94.30 Z M 145.60 95.19 L 145.13 96.04 C 144.73 96.78 144.99 97.70 145.73 98.11 C 146.47 98.51 147.39 98.25 147.80 97.51 L 148.27 96.66 C 148.67 95.92 148.41 95.00 147.67 94.59 C 146.93 94.18 146.01 94.45 145.60 95.19 Z M 145.14 96.02 L 144.67 96.86 C 144.25 97.59 144.51 98.51 145.24 98.93 C 145.97 99.35 146.89 99.09 147.31 98.36 L 147.79 97.53 C 148.20 96.80 147.95 95.87 147.22 95.46 C 146.49 95.04 145.56 95.29 145.14 96.02 Z M 144.68 96.85 L 144.18 97.69 C 143.76 98.42 144.01 99.35 144.73 99.77 C 145.46 100.19 146.39 99.95 146.81 99.22 L 147.30 98.37 C 147.72 97.65 147.48 96.72 146.75 96.30 C 146.03 95.88 145.10 96.12 144.68 96.85 Z M 144.19 97.69 L 143.66 98.58 C 143.24 99.31 143.48 100.24 144.20 100.66 C 144.93 101.08 145.86 100.84 146.28 100.12 L 146.81 99.23 C 147.23 98.50 146.99 97.57 146.27 97.15 C 145.54 96.72 144.61 96.97 144.19 97.69 Z M 143.67 98.58 L 143.18 99.41 C 142.75 100.13 142.99 101.06 143.71 101.49 C 144.43 101.91 145.36 101.67 145.79 100.95 L 146.28 100.12 C 146.70 99.40 146.46 98.47 145.74 98.05 C 145.02 97.62 144.09 97.86 143.67 98.58 Z M 143.18 99.40 L 142.68 100.25 C 142.25 100.97 142.48 101.90 143.20 102.33 C 143.92 102.76 144.85 102.52 145.28 101.80 L 145.78 100.96 C 146.21 100.24 145.98 99.31 145.26 98.88 C 144.54 98.45 143.61 98.69 143.18 99.40 Z M 142.69 100.24 L 142.14 101.13 C 141.70 101.85 141.93 102.78 142.64 103.21 C 143.36 103.65 144.29 103.42 144.72 102.71 L 145.27 101.82 C 145.70 101.10 145.48 100.17 144.77 99.74 C 144.05 99.30 143.12 99.53 142.69 100.24 Z M 142.15 101.12 L 141.63 101.95 C 141.18 102.66 141.40 103.59 142.10 104.04 C 142.81 104.48 143.74 104.27 144.19 103.56 L 144.71 102.72 C 145.16 102.02 144.94 101.08 144.24 100.64 C 143.53 100.20 142.60 100.41 142.15 101.12 Z M 141.63 101.94 L 141.10 102.78 C 140.65 103.48 140.85 104.42 141.55 104.87 C 142.25 105.32 143.19 105.12 143.64 104.41 L 144.18 103.57 C 144.63 102.87 144.42 101.94 143.72 101.49 C 143.02 101.04 142.09 101.24 141.63 101.94 Z M 141.10 102.78 L 140.55 103.63 C 140.09 104.33 140.29 105.26 140.99 105.72 C 141.69 106.17 142.62 105.97 143.08 105.27 L 143.63 104.42 C 144.09 103.72 143.89 102.79 143.19 102.33 C 142.49 101.88 141.56 102.08 141.10 102.78 Z M 140.55 103.62 L 140.00 104.47 C 139.54 105.17 139.74 106.10 140.43 106.56 C 141.13 107.01 142.06 106.82 142.52 106.12 L 143.07 105.28 C 143.53 104.58 143.34 103.65 142.64 103.19 C 141.94 102.73 141.01 102.93 140.55 103.62 Z M 140.00 104.47 L 139.45 105.30 C 139.00 106.00 139.19 106.93 139.89 107.39 C 140.58 107.84 141.52 107.65 141.97 106.96 L 142.52 106.12 C 142.97 105.43 142.78 104.50 142.08 104.04 C 141.39 103.58 140.46 103.78 140.00 104.47 Z M 139.46 105.30 L 138.91 106.14 C 138.45 106.83 138.65 107.76 139.34 108.22 C 140.04 108.67 140.97 108.48 141.42 107.79 L 141.97 106.95 C 142.43 106.26 142.23 105.33 141.54 104.87 C 140.84 104.42 139.91 104.61 139.46 105.30 Z M 138.91 106.14 L 138.36 106.98 C 137.91 107.67 138.10 108.61 138.79 109.06 C 139.49 109.51 140.42 109.32 140.87 108.63 L 141.42 107.78 C 141.88 107.09 141.68 106.16 140.99 105.70 C 140.30 105.25 139.36 105.44 138.91 106.14 Z M 138.36 106.98 L 137.82 107.81 C 137.37 108.50 137.57 109.43 138.26 109.88 C 138.95 110.34 139.88 110.14 140.34 109.45 L 140.87 108.62 C 141.33 107.93 141.13 107.00 140.44 106.55 C 139.74 106.09 138.81 106.29 138.36 106.98 Z M 137.82 107.81 L 137.28 108.64 C 136.83 109.34 137.03 110.26 137.73 110.71 C 138.42 111.16 139.35 110.97 139.80 110.27 L 140.34 109.44 C 140.79 108.75 140.59 107.82 139.89 107.37 C 139.20 106.92 138.27 107.12 137.82 107.81 Z M 137.28 108.64 L 136.74 109.49 C 136.29 110.18 136.49 111.11 137.18 111.56 C 137.88 112.01 138.80 111.81 139.25 111.11 L 139.80 110.27 C 140.25 109.58 140.05 108.65 139.35 108.20 C 138.66 107.75 137.73 107.95 137.28 108.64 Z M 136.74 109.49 L 136.18 110.35 C 135.73 111.04 135.93 111.97 136.63 112.42 C 137.32 112.87 138.25 112.67 138.70 111.97 L 139.25 111.11 C 139.70 110.42 139.50 109.49 138.81 109.05 C 138.11 108.60 137.19 108.80 136.74 109.49 Z M 136.18 110.35 L 135.65 111.18 C 135.20 111.88 135.40 112.80 136.09 113.25 C 136.78 113.70 137.71 113.50 138.16 112.80 L 138.69 111.97 C 139.14 111.28 138.94 110.35 138.25 109.91 C 137.56 109.46 136.63 109.66 136.18 110.35 Z M 135.65 111.19 L 135.11 112.03 C 134.66 112.72 134.86 113.64 135.55 114.09 C 136.25 114.54 137.17 114.33 137.62 113.64 L 138.16 112.80 C 138.60 112.11 138.40 111.18 137.71 110.74 C 137.02 110.29 136.09 110.49 135.65 111.19 Z M 135.10 112.03 L 134.56 112.88 C 134.12 113.57 134.32 114.50 135.02 114.94 C 135.72 115.38 136.64 115.18 137.08 114.48 L 137.62 113.63 C 138.06 112.94 137.86 112.02 137.16 111.57 C 136.47 111.13 135.55 111.34 135.10 112.03 Z M 134.56 112.89 L 134.02 113.74 C 133.58 114.44 133.80 115.36 134.49 115.80 C 135.19 116.24 136.11 116.03 136.55 115.33 L 137.09 114.47 C 137.52 113.78 137.31 112.85 136.62 112.42 C 135.92 111.98 135.00 112.19 134.56 112.89 Z M 134.02 113.75 L 133.49 114.61 C 133.06 115.31 133.27 116.23 133.98 116.66 C 134.68 117.10 135.60 116.88 136.03 116.18 L 136.56 115.32 C 136.99 114.62 136.77 113.70 136.07 113.26 C 135.37 112.83 134.45 113.05 134.02 113.75 Z M 133.48 114.62 L 132.96 115.48 C 132.53 116.19 132.76 117.10 133.46 117.53 C 134.17 117.96 135.09 117.73 135.51 117.03 L 136.03 116.17 C 136.46 115.46 136.24 114.54 135.53 114.12 C 134.83 113.69 133.91 113.92 133.48 114.62 Z M 132.96 115.49 L 132.44 116.35 C 132.02 117.05 132.25 117.97 132.96 118.39 C 133.67 118.81 134.58 118.58 135.01 117.87 L 135.52 117.02 C 135.94 116.31 135.71 115.39 135.00 114.97 C 134.29 114.55 133.38 114.78 132.96 115.49 Z M 132.44 116.35 L 131.94 117.20 C 131.52 117.91 131.75 118.83 132.46 119.25 C 133.17 119.67 134.09 119.43 134.51 118.72 L 135.01 117.87 C 135.43 117.16 135.19 116.24 134.48 115.82 C 133.77 115.41 132.86 115.64 132.44 116.35 Z M 131.93 117.21 L 131.43 118.07 C 131.01 118.79 131.25 119.70 131.96 120.12 C 132.67 120.54 133.58 120.30 134.00 119.59 L 134.51 118.72 C 134.93 118.01 134.69 117.09 133.98 116.67 C 133.27 116.26 132.35 116.50 131.93 117.21 Z M 131.42 118.08 L 130.92 118.94 C 130.50 119.65 130.74 120.57 131.46 120.98 C 132.17 121.40 133.08 121.16 133.50 120.45 L 134.00 119.58 C 134.42 118.87 134.18 117.96 133.47 117.54 C 132.75 117.12 131.84 117.36 131.42 118.08 Z M 130.92 118.94 L 130.42 119.80 C 130.00 120.51 130.24 121.43 130.96 121.85 C 131.67 122.26 132.58 122.02 133.00 121.31 L 133.50 120.45 C 133.92 119.73 133.68 118.82 132.96 118.40 C 132.25 117.99 131.33 118.23 130.92 118.94 Z M 130.42 119.80 L 129.91 120.67 C 129.50 121.38 129.74 122.29 130.45 122.71 C 131.16 123.13 132.08 122.89 132.50 122.17 L 133.00 121.31 C 133.42 120.59 133.17 119.68 132.46 119.26 C 131.75 118.85 130.83 119.09 130.42 119.80 Z M 129.91 120.66 L 129.39 121.56 C 128.97 122.27 129.21 123.19 129.92 123.61 C 130.64 124.02 131.55 123.78 131.97 123.07 L 132.49 122.17 C 132.91 121.46 132.67 120.54 131.96 120.13 C 131.25 119.71 130.33 119.95 129.91 120.66 Z M 129.39 121.56 L 128.87 122.45 C 128.46 123.16 128.70 124.08 129.41 124.49 C 130.13 124.91 131.04 124.66 131.46 123.95 L 131.97 123.07 C 132.39 122.35 132.15 121.44 131.43 121.02 C 130.72 120.61 129.80 120.85 129.39 121.56 Z M 128.87 122.45 L 128.38 123.30 C 127.97 124.02 128.21 124.93 128.93 125.34 C 129.65 125.76 130.56 125.51 130.97 124.79 L 131.46 123.94 C 131.87 123.23 131.63 122.31 130.91 121.90 C 130.20 121.49 129.28 121.74 128.87 122.45 Z M 128.37 123.32 L 127.89 124.18 C 127.48 124.90 127.74 125.81 128.46 126.22 C 129.17 126.62 130.09 126.37 130.49 125.65 L 130.98 124.78 C 131.38 124.06 131.13 123.15 130.41 122.75 C 129.69 122.34 128.78 122.60 128.37 123.32 Z M 127.88 124.20 L 127.38 125.11 C 126.98 125.83 127.25 126.74 127.97 127.14 C 128.70 127.54 129.61 127.27 130.00 126.54 L 130.50 125.63 C 130.90 124.91 130.63 124.00 129.91 123.60 C 129.18 123.21 128.27 123.47 127.88 124.20 Z M 127.37 125.12 L 126.91 125.98 C 126.53 126.71 126.80 127.61 127.53 128.00 C 128.26 128.39 129.17 128.11 129.56 127.38 L 130.01 126.53 C 130.40 125.80 130.12 124.89 129.39 124.50 C 128.66 124.12 127.76 124.39 127.37 125.12 Z M 126.91 125.98 L 126.46 126.83 C 126.07 127.57 126.36 128.47 127.09 128.86 C 127.82 129.24 128.73 128.96 129.11 128.23 L 129.56 127.38 C 129.95 126.65 129.67 125.74 128.93 125.35 C 128.20 124.97 127.30 125.25 126.91 125.98 Z M 126.46 126.83 L 125.99 127.72 C 125.60 128.45 125.88 129.36 126.61 129.75 C 127.35 130.13 128.25 129.86 128.64 129.12 L 129.11 128.23 C 129.50 127.50 129.22 126.59 128.49 126.21 C 127.76 125.82 126.85 126.10 126.46 126.83 Z M 126.00 127.72 L 125.53 128.59 C 125.14 129.32 125.41 130.23 126.14 130.62 C 126.87 131.01 127.78 130.73 128.17 130.00 L 128.63 129.13 C 129.02 128.40 128.75 127.49 128.02 127.10 C 127.29 126.71 126.39 126.99 126.00 127.72 Z M 125.53 128.58 L 125.05 129.46 C 124.66 130.19 124.93 131.10 125.65 131.49 C 126.38 131.89 127.29 131.62 127.68 130.89 L 128.16 130.01 C 128.56 129.29 128.29 128.38 127.56 127.98 C 126.84 127.59 125.93 127.86 125.53 128.58 Z M 125.06 129.46 L 124.58 130.34 C 124.18 131.06 124.44 131.97 125.17 132.37 C 125.89 132.77 126.80 132.50 127.20 131.78 L 127.68 130.90 C 128.07 130.18 127.81 129.27 127.09 128.87 C 126.36 128.47 125.46 128.74 125.06 129.46 Z M 124.57 130.35 L 124.10 131.21 C 123.71 131.94 123.98 132.84 124.70 133.24 C 125.43 133.63 126.33 133.36 126.73 132.64 L 127.20 131.77 C 127.59 131.05 127.32 130.14 126.60 129.75 C 125.87 129.35 124.97 129.62 124.57 130.35 Z M 124.09 131.23 L 123.62 132.12 C 123.24 132.85 123.52 133.75 124.25 134.14 C 124.98 134.52 125.88 134.24 126.26 133.51 L 126.74 132.62 C 127.12 131.89 126.84 130.99 126.11 130.60 C 125.38 130.22 124.48 130.50 124.09 131.23 Z M 123.62 132.13 L 123.16 133.01 C 122.78 133.74 123.06 134.65 123.80 135.03 C 124.53 135.41 125.43 135.12 125.81 134.39 L 126.27 133.50 C 126.65 132.77 126.37 131.87 125.63 131.49 C 124.90 131.11 124.00 131.39 123.62 132.13 Z M 123.16 133.01 L 122.70 133.89 C 122.33 134.63 122.61 135.53 123.35 135.91 C 124.08 136.28 124.99 136.00 125.36 135.26 L 125.82 134.38 C 126.19 133.65 125.91 132.75 125.17 132.37 C 124.44 131.99 123.53 132.28 123.16 133.01 Z M 122.70 133.89 L 122.25 134.77 C 121.87 135.51 122.16 136.41 122.90 136.79 C 123.63 137.17 124.53 136.88 124.91 136.14 L 125.36 135.26 C 125.74 134.53 125.45 133.62 124.72 133.25 C 123.98 132.87 123.08 133.16 122.70 133.89 Z M 122.25 134.77 L 121.78 135.68 C 121.41 136.42 121.69 137.32 122.43 137.70 C 123.16 138.07 124.07 137.78 124.44 137.05 L 124.91 136.14 C 125.29 135.41 125.00 134.51 124.26 134.13 C 123.53 133.75 122.63 134.04 122.25 134.77 Z M 121.78 135.68 L 121.32 136.59 C 120.94 137.33 121.23 138.23 121.96 138.61 C 122.70 138.98 123.60 138.69 123.98 137.96 L 124.45 137.05 C 124.82 136.31 124.53 135.41 123.80 135.03 C 123.06 134.66 122.16 134.95 121.78 135.68 Z M 121.31 136.60 L 120.86 137.49 C 120.48 138.23 120.78 139.13 121.51 139.50 C 122.25 139.88 123.15 139.58 123.53 138.85 L 123.98 137.95 C 124.35 137.22 124.06 136.32 123.32 135.94 C 122.59 135.57 121.69 135.86 121.31 136.60 Z M 120.85 137.50 L 120.40 138.41 C 120.03 139.15 120.33 140.05 121.07 140.42 C 121.81 140.79 122.71 140.49 123.08 139.75 L 123.53 138.84 C 123.90 138.10 123.60 137.20 122.86 136.83 C 122.12 136.46 121.22 136.76 120.85 137.50 Z M 120.39 138.42 L 119.95 139.31 C 119.59 140.06 119.90 140.95 120.64 141.32 C 121.38 141.68 122.28 141.38 122.64 140.63 L 123.08 139.74 C 123.44 139.00 123.14 138.10 122.40 137.74 C 121.66 137.37 120.76 137.68 120.39 138.42 Z M 119.96 139.31 L 119.52 140.18 C 119.16 140.92 119.46 141.81 120.19 142.18 C 120.93 142.55 121.83 142.25 122.20 141.51 L 122.64 140.64 C 123.01 139.90 122.70 139.00 121.97 138.64 C 121.23 138.27 120.33 138.57 119.96 139.31 Z M 119.54 140.16 L 119.07 141.05 C 118.69 141.78 118.98 142.68 119.71 143.06 C 120.44 143.44 121.35 143.16 121.73 142.43 L 122.19 141.53 C 122.57 140.80 122.28 139.90 121.55 139.52 C 120.82 139.14 119.92 139.42 119.54 140.16 Z M 119.09 141.02 L 118.64 141.85 C 118.24 142.57 118.51 143.48 119.23 143.88 C 119.96 144.27 120.86 144.00 121.26 143.28 L 121.71 142.45 C 122.11 141.73 121.84 140.82 121.12 140.43 C 120.39 140.03 119.48 140.30 119.09 141.02 Z M 118.67 141.80 L 118.15 142.65 C 117.73 143.36 117.96 144.28 118.67 144.70 C 119.38 145.12 120.29 144.89 120.72 144.19 L 121.23 143.33 C 121.65 142.63 121.42 141.71 120.72 141.28 C 120.01 140.86 119.09 141.09 118.67 141.80 Z M 118.19 142.60 L 117.67 143.39 C 117.21 144.07 117.40 145.00 118.09 145.46 C 118.78 145.91 119.70 145.72 120.16 145.03 L 120.68 144.24 C 121.14 143.56 120.95 142.63 120.26 142.17 C 119.57 141.72 118.64 141.91 118.19 142.60 Z M 117.69 143.35 L 117.12 144.15 C 116.64 144.83 116.80 145.76 117.48 146.24 C 118.15 146.71 119.08 146.55 119.56 145.88 L 120.13 145.07 C 120.61 144.40 120.45 143.47 119.78 142.99 C 119.10 142.51 118.17 142.67 117.69 143.35 Z M 117.14 144.12 L 116.48 145.01 C 115.98 145.67 116.12 146.61 116.78 147.10 C 117.44 147.60 118.38 147.46 118.87 146.80 L 119.54 145.92 C 120.03 145.25 119.90 144.32 119.24 143.82 C 118.58 143.32 117.64 143.46 117.14 144.12 Z M 116.47 144.99 L 115.75 145.93 C 115.24 146.60 115.37 147.55 116.03 148.06 C 116.70 148.56 117.65 148.44 118.15 147.77 L 118.88 146.82 C 119.39 146.16 119.26 145.21 118.59 144.70 C 117.93 144.19 116.98 144.32 116.47 144.99 Z M 115.64 146.03 L 115.12 146.86 C 114.67 147.59 114.89 148.54 115.61 148.99 C 116.34 149.45 117.29 149.23 117.74 148.50 L 118.26 147.67 C 118.71 146.95 118.49 145.99 117.77 145.54 C 117.05 145.09 116.09 145.31 115.64 146.03 Z M 114.86 147.71 L 114.87 148.32 C 114.89 149.18 115.61 149.87 116.48 149.85 C 117.35 149.84 118.03 149.12 118.02 148.25 L 118.00 147.65 C 117.99 146.78 117.27 146.09 116.40 146.11 C 115.53 146.13 114.84 146.85 114.86 147.71 Z M 115.85 149.75 L 116.70 150.10 C 117.51 150.43 118.44 150.04 118.77 149.23 C 119.10 148.42 118.71 147.50 117.90 147.17 L 117.04 146.82 C 116.23 146.49 115.31 146.87 114.98 147.68 C 114.65 148.49 115.04 149.42 115.85 149.75 Z M 116.74 150.12 L 117.78 150.50 C 118.60 150.81 119.51 150.40 119.82 149.57 C 120.13 148.75 119.71 147.84 118.89 147.53 L 117.86 147.15 C 117.04 146.84 116.12 147.26 115.81 148.08 C 115.51 148.90 115.92 149.81 116.74 150.12 Z M 117.56 150.41 L 118.41 150.88 C 119.18 151.30 120.15 151.03 120.57 150.26 C 121.00 149.49 120.72 148.52 119.95 148.10 L 119.10 147.63 C 118.33 147.20 117.37 147.48 116.94 148.25 C 116.52 149.02 116.80 149.98 117.56 150.41 Z M 118.29 150.80 L 119.15 151.39 C 119.87 151.88 120.86 151.69 121.35 150.97 C 121.85 150.24 121.66 149.26 120.94 148.76 L 120.08 148.18 C 119.35 147.68 118.36 147.87 117.87 148.60 C 117.38 149.32 117.56 150.31 118.29 150.80 Z M 119.06 151.32 L 119.89 151.98 C 120.58 152.52 121.58 152.40 122.12 151.72 C 122.66 151.03 122.55 150.03 121.86 149.49 L 121.03 148.83 C 120.34 148.29 119.34 148.40 118.80 149.09 C 118.25 149.78 118.37 150.78 119.06 151.32 Z M 119.82 151.92 L 120.60 152.61 C 121.25 153.19 122.25 153.13 122.84 152.48 C 123.42 151.82 123.36 150.82 122.71 150.24 L 121.93 149.55 C 121.27 148.96 120.27 149.02 119.69 149.68 C 119.10 150.33 119.16 151.34 119.82 151.92 Z M 120.55 152.56 L 121.26 153.26 C 121.89 153.87 122.90 153.85 123.51 153.22 C 124.12 152.59 124.10 151.58 123.47 150.97 L 122.76 150.28 C 122.13 149.67 121.12 149.69 120.51 150.32 C 119.90 150.95 119.92 151.95 120.55 152.56 Z M 121.23 153.23 L 121.90 153.91 C 122.51 154.54 123.52 154.55 124.15 153.93 C 124.77 153.32 124.78 152.31 124.17 151.69 L 123.50 151.00 C 122.89 150.38 121.88 150.37 121.25 150.98 C 120.63 151.59 120.62 152.60 121.23 153.23 Z M 121.88 153.89 L 122.58 154.63 C 123.19 155.27 124.19 155.30 124.83 154.70 C 125.47 154.10 125.50 153.09 124.89 152.45 L 124.19 151.71 C 123.59 151.07 122.58 151.04 121.94 151.64 C 121.31 152.25 121.28 153.25 121.88 153.89 Z M 122.55 154.60 L 123.20 155.33 C 123.79 155.98 124.79 156.04 125.45 155.45 C 126.10 154.87 126.16 153.87 125.57 153.21 L 124.92 152.49 C 124.34 151.83 123.33 151.78 122.68 152.36 C 122.03 152.94 121.97 153.95 122.55 154.60 Z M 123.17 155.29 L 123.78 156.02 C 124.34 156.70 125.34 156.79 126.02 156.23 C 126.69 155.67 126.78 154.66 126.22 153.99 L 125.61 153.25 C 125.05 152.58 124.05 152.49 123.37 153.05 C 122.70 153.61 122.61 154.61 123.17 155.29 Z M 123.75 155.99 L 124.35 156.76 C 124.90 157.45 125.89 157.57 126.58 157.03 C 127.27 156.49 127.39 155.49 126.85 154.80 L 126.25 154.03 C 125.71 153.34 124.71 153.22 124.02 153.76 C 123.33 154.30 123.21 155.30 123.75 155.99 Z M 124.34 156.73 L 124.96 157.56 C 125.49 158.26 126.48 158.40 127.18 157.87 C 127.88 157.34 128.02 156.35 127.49 155.65 L 126.87 154.82 C 126.35 154.12 125.35 153.98 124.65 154.51 C 123.95 155.04 123.81 156.03 124.34 156.73 Z M 124.95 157.54 L 125.53 158.33 C 126.05 159.04 127.04 159.19 127.75 158.67 C 128.45 158.15 128.60 157.15 128.08 156.45 L 127.50 155.66 C 126.98 154.95 125.99 154.80 125.28 155.32 C 124.58 155.84 124.43 156.84 124.95 157.54 Z M 125.52 158.33 L 126.10 159.12 C 126.62 159.83 127.61 159.99 128.32 159.47 C 129.03 158.95 129.19 157.96 128.67 157.25 L 128.09 156.45 C 127.57 155.74 126.58 155.59 125.87 156.11 C 125.16 156.62 125.01 157.62 125.52 158.33 Z M 126.10 159.12 L 126.70 159.95 C 127.21 160.66 128.21 160.82 128.92 160.31 C 129.63 159.79 129.79 158.80 129.28 158.09 L 128.68 157.25 C 128.16 156.54 127.17 156.38 126.46 156.90 C 125.74 157.41 125.58 158.40 126.10 159.12 Z M 126.70 159.95 L 127.28 160.76 C 127.79 161.48 128.79 161.64 129.50 161.13 C 130.22 160.62 130.38 159.62 129.87 158.91 L 129.28 158.09 C 128.77 157.38 127.77 157.21 127.06 157.72 C 126.35 158.24 126.18 159.23 126.70 159.95 Z M 127.28 160.76 L 127.85 161.56 C 128.36 162.27 129.36 162.44 130.07 161.92 C 130.79 161.41 130.95 160.42 130.44 159.70 L 129.87 158.91 C 129.36 158.19 128.36 158.03 127.65 158.54 C 126.93 159.05 126.77 160.05 127.28 160.76 Z M 127.85 161.56 L 128.43 162.38 C 128.95 163.09 129.95 163.25 130.66 162.74 C 131.38 162.22 131.54 161.23 131.03 160.51 L 130.44 159.70 C 129.92 158.98 128.93 158.82 128.21 159.33 C 127.49 159.85 127.33 160.84 127.85 161.56 Z M 128.44 162.38 L 129.04 163.22 C 129.56 163.93 130.56 164.09 131.28 163.57 C 131.99 163.05 132.15 162.05 131.63 161.34 L 131.02 160.50 C 130.50 159.79 129.50 159.63 128.79 160.15 C 128.07 160.67 127.92 161.67 128.44 162.38 Z M 129.05 163.23 L 129.63 164.02 C 130.15 164.73 131.16 164.88 131.87 164.36 C 132.58 163.83 132.73 162.83 132.21 162.12 L 131.63 161.33 C 131.10 160.62 130.10 160.46 129.39 160.99 C 128.67 161.52 128.52 162.52 129.05 163.23 Z M 129.63 164.03 L 130.22 164.82 C 130.76 165.53 131.76 165.67 132.47 165.14 C 133.18 164.61 133.33 163.60 132.79 162.89 L 132.20 162.11 C 131.67 161.40 130.67 161.25 129.96 161.78 C 129.25 162.32 129.10 163.32 129.63 164.03 Z M 130.23 164.83 L 130.84 165.63 C 131.38 166.34 132.39 166.47 133.10 165.94 C 133.80 165.40 133.94 164.39 133.40 163.68 L 132.79 162.88 C 132.25 162.18 131.24 162.04 130.53 162.58 C 129.83 163.12 129.69 164.13 130.23 164.83 Z M 130.85 165.65 L 131.48 166.46 C 132.03 167.16 133.04 167.29 133.74 166.74 C 134.44 166.19 134.57 165.18 134.02 164.48 L 133.39 163.67 C 132.85 162.97 131.83 162.84 131.13 163.39 C 130.43 163.93 130.30 164.94 130.85 165.65 Z M 131.49 166.47 L 132.10 167.24 C 132.65 167.94 133.66 168.05 134.36 167.50 C 135.06 166.95 135.18 165.93 134.62 165.23 L 134.02 164.47 C 133.46 163.77 132.45 163.65 131.75 164.20 C 131.05 164.76 130.93 165.77 131.49 166.47 Z M 132.10 167.25 L 132.72 168.01 C 133.28 168.71 134.30 168.81 134.99 168.25 C 135.68 167.69 135.79 166.67 135.23 165.98 L 134.62 165.22 C 134.06 164.53 133.04 164.42 132.34 164.98 C 131.65 165.54 131.54 166.56 132.10 167.25 Z M 132.72 168.02 L 133.36 168.79 C 133.92 169.49 134.94 169.59 135.63 169.02 C 136.33 168.45 136.43 167.43 135.86 166.74 L 135.23 165.97 C 134.66 165.28 133.64 165.18 132.95 165.74 C 132.26 166.31 132.16 167.33 132.72 168.02 Z M 133.36 168.80 L 134.02 169.59 C 134.59 170.28 135.61 170.37 136.30 169.80 C 136.99 169.23 137.08 168.21 136.51 167.52 L 135.85 166.73 C 135.28 166.04 134.26 165.95 133.57 166.52 C 132.88 167.09 132.79 168.12 133.36 168.80 Z M 134.02 169.60 L 134.68 170.38 C 135.26 171.07 136.28 171.16 136.97 170.58 C 137.65 170.01 137.74 168.98 137.16 168.29 L 136.50 167.51 C 135.93 166.82 134.90 166.73 134.22 167.31 C 133.53 167.89 133.44 168.91 134.02 169.60 Z M 134.68 170.39 L 135.33 171.15 C 135.91 171.84 136.93 171.92 137.62 171.34 C 138.30 170.76 138.39 169.73 137.81 169.05 L 137.16 168.29 C 136.58 167.60 135.55 167.52 134.87 168.10 C 134.18 168.68 134.10 169.71 134.68 170.39 Z M 135.33 171.16 L 135.98 171.92 C 136.57 172.61 137.59 172.69 138.28 172.10 C 138.96 171.52 139.04 170.49 138.46 169.81 L 137.80 169.04 C 137.22 168.36 136.19 168.28 135.51 168.86 C 134.82 169.44 134.74 170.47 135.33 171.16 Z M 135.98 171.93 L 136.64 172.69 C 137.23 173.38 138.26 173.45 138.94 172.87 C 139.62 172.28 139.70 171.25 139.11 170.57 L 138.46 169.80 C 137.87 169.12 136.84 169.04 136.16 169.63 C 135.47 170.22 135.40 171.25 135.98 171.93 Z M 136.64 172.70 L 137.30 173.45 C 137.89 174.14 138.92 174.21 139.60 173.62 C 140.28 173.03 140.36 172.00 139.77 171.32 L 139.11 170.56 C 138.52 169.88 137.49 169.80 136.81 170.39 C 136.13 170.98 136.05 172.02 136.64 172.70 Z M 137.30 173.46 L 137.96 174.22 C 138.55 174.90 139.59 174.98 140.27 174.38 C 140.95 173.79 141.02 172.76 140.43 172.08 L 139.77 171.31 C 139.17 170.63 138.14 170.56 137.46 171.15 C 136.78 171.74 136.71 172.78 137.30 173.46 Z M 137.96 174.22 L 138.63 174.99 C 139.22 175.67 140.26 175.74 140.94 175.15 C 141.62 174.55 141.69 173.52 141.10 172.84 L 140.43 172.08 C 139.83 171.39 138.80 171.32 138.12 171.92 C 137.44 172.51 137.37 173.54 137.96 174.22 Z M 138.63 174.99 L 139.28 175.74 C 139.88 176.42 140.91 176.49 141.59 175.90 C 142.27 175.31 142.34 174.27 141.75 173.59 L 141.10 172.84 C 140.50 172.16 139.47 172.09 138.79 172.68 C 138.11 173.27 138.03 174.31 138.63 174.99 Z M 139.28 175.74 L 139.93 176.48 C 140.52 177.17 141.55 177.24 142.23 176.65 C 142.92 176.06 142.99 175.03 142.40 174.34 L 141.75 173.60 C 141.16 172.91 140.13 172.84 139.45 173.43 C 138.76 174.02 138.69 175.06 139.28 175.74 Z M 139.92 176.48 L 140.56 177.22 C 141.15 177.91 142.18 177.99 142.87 177.40 C 143.55 176.81 143.63 175.78 143.05 175.09 L 142.41 174.35 C 141.82 173.66 140.78 173.58 140.10 174.17 C 139.41 174.76 139.33 175.79 139.92 176.48 Z M 140.55 177.22 L 141.20 177.98 C 141.78 178.67 142.82 178.76 143.51 178.17 C 144.20 177.59 144.28 176.56 143.70 175.86 L 143.05 175.10 C 142.47 174.41 141.44 174.33 140.75 174.91 C 140.06 175.49 139.97 176.53 140.55 177.22 Z M 141.19 177.97 L 141.83 178.74 C 142.41 179.44 143.44 179.53 144.14 178.95 C 144.83 178.37 144.93 177.34 144.35 176.64 L 143.71 175.87 C 143.13 175.18 142.09 175.08 141.40 175.66 C 140.70 176.24 140.61 177.28 141.19 177.97 Z M 141.82 178.73 L 142.46 179.51 C 143.03 180.21 144.06 180.31 144.76 179.73 C 145.47 179.16 145.57 178.13 144.99 177.43 L 144.36 176.65 C 143.78 175.95 142.75 175.85 142.05 176.42 C 141.35 177.00 141.25 178.03 141.82 178.73 Z M 142.44 179.50 L 143.07 180.27 C 143.64 180.98 144.67 181.09 145.38 180.52 C 146.09 179.96 146.20 178.92 145.63 178.21 L 145.00 177.44 C 144.44 176.73 143.40 176.62 142.69 177.19 C 141.99 177.75 141.88 178.79 142.44 179.50 Z M 143.06 180.26 L 143.69 181.05 C 144.25 181.77 145.28 181.89 145.99 181.33 C 146.71 180.76 146.83 179.73 146.27 179.02 L 145.64 178.23 C 145.08 177.51 144.05 177.39 143.33 177.95 C 142.62 178.52 142.50 179.55 143.06 180.26 Z M 143.68 181.04 L 144.30 181.84 C 144.85 182.56 145.89 182.69 146.60 182.14 C 147.32 181.58 147.45 180.55 146.90 179.83 L 146.28 179.03 C 145.72 178.31 144.69 178.18 143.97 178.74 C 143.25 179.29 143.12 180.33 143.68 181.04 Z M 144.29 181.83 L 144.90 182.63 C 145.45 183.36 146.48 183.49 147.20 182.94 C 147.92 182.39 148.06 181.36 147.51 180.64 L 146.90 179.84 C 146.35 179.12 145.32 178.98 144.60 179.53 C 143.88 180.08 143.74 181.11 144.29 181.83 Z M 144.89 182.63 L 145.49 183.42 C 146.03 184.14 147.07 184.29 147.79 183.74 C 148.52 183.19 148.66 182.16 148.11 181.44 L 147.52 180.65 C 146.97 179.92 145.94 179.78 145.22 180.32 C 144.49 180.87 144.35 181.90 144.89 182.63 Z M 145.48 183.41 L 146.08 184.21 C 146.62 184.93 147.65 185.08 148.38 184.54 C 149.10 184.00 149.25 182.97 148.71 182.24 L 148.12 181.44 C 147.58 180.72 146.55 180.57 145.82 181.11 C 145.09 181.65 144.94 182.68 145.48 183.41 Z M 146.07 184.20 L 146.69 185.03 C 147.23 185.76 148.26 185.91 148.99 185.37 C 149.71 184.83 149.87 183.80 149.33 183.07 L 148.71 182.24 C 148.17 181.52 147.15 181.36 146.42 181.90 C 145.69 182.44 145.53 183.47 146.07 184.20 Z M 146.69 185.02 L 147.28 185.83 C 147.82 186.56 148.84 186.72 149.58 186.19 C 150.31 185.65 150.46 184.62 149.93 183.89 L 149.33 183.08 C 148.79 182.35 147.77 182.19 147.04 182.73 C 146.31 183.26 146.15 184.29 146.69 185.02 Z M 147.28 185.83 L 147.86 186.62 C 148.39 187.35 149.41 187.52 150.14 186.98 C 150.88 186.45 151.04 185.43 150.51 184.70 L 149.93 183.90 C 149.40 183.17 148.37 183.00 147.64 183.54 C 146.91 184.07 146.75 185.09 147.28 185.83 Z M 147.85 186.61 L 148.42 187.40 C 148.94 188.14 149.97 188.31 150.70 187.78 C 151.44 187.26 151.61 186.23 151.08 185.50 L 150.51 184.71 C 149.99 183.97 148.96 183.80 148.23 184.33 C 147.49 184.85 147.32 185.88 147.85 186.61 Z M 148.41 187.39 L 149.00 188.22 C 149.52 188.96 150.54 189.14 151.28 188.62 C 152.02 188.10 152.19 187.07 151.67 186.34 L 151.09 185.51 C 150.57 184.77 149.54 184.59 148.80 185.11 C 148.07 185.63 147.89 186.66 148.41 187.39 Z M 148.99 188.22 L 149.56 189.04 C 150.08 189.78 151.11 189.96 151.85 189.44 C 152.59 188.92 152.77 187.90 152.25 187.16 L 151.68 186.34 C 151.16 185.60 150.14 185.42 149.39 185.94 C 148.65 186.46 148.47 187.48 148.99 188.22 Z M 149.56 189.04 L 150.13 189.85 C 150.65 190.59 151.68 190.77 152.42 190.25 C 153.16 189.73 153.34 188.70 152.82 187.96 L 152.25 187.15 C 151.73 186.41 150.71 186.23 149.96 186.75 C 149.22 187.28 149.04 188.30 149.56 189.04 Z M 150.14 189.86 L 150.72 190.68 C 151.25 191.42 152.27 191.59 153.01 191.07 C 153.75 190.54 153.92 189.52 153.40 188.78 L 152.81 187.95 C 152.29 187.22 151.26 187.04 150.52 187.57 C 149.78 188.09 149.61 189.12 150.14 189.86 Z M 150.73 190.69 L 151.33 191.53 C 151.86 192.26 152.89 192.43 153.63 191.90 C 154.36 191.37 154.53 190.34 154.00 189.61 L 153.39 188.77 C 152.86 188.03 151.84 187.87 151.10 188.40 C 150.36 188.93 150.20 189.96 150.73 190.69 Z M 151.34 191.54 L 151.93 192.35 C 152.47 193.08 153.49 193.24 154.23 192.70 C 154.96 192.17 155.12 191.14 154.58 190.41 L 153.99 189.60 C 153.46 188.86 152.43 188.70 151.69 189.24 C 150.96 189.78 150.80 190.80 151.34 191.54 Z M 151.93 192.35 L 152.50 193.12 C 153.04 193.85 154.07 194.00 154.80 193.46 C 155.53 192.92 155.69 191.89 155.15 191.16 L 154.58 190.40 C 154.04 189.67 153.01 189.51 152.28 190.05 C 151.55 190.59 151.39 191.62 151.93 192.35 Z M 152.51 193.13 L 153.14 193.97 C 153.68 194.70 154.71 194.85 155.44 194.30 C 156.17 193.76 156.32 192.73 155.77 192.00 L 155.14 191.16 C 154.60 190.43 153.56 190.28 152.84 190.82 C 152.11 191.37 151.96 192.40 152.51 193.13 Z M 153.15 193.98 L 153.75 194.77 C 154.30 195.49 155.33 195.63 156.05 195.08 C 156.77 194.53 156.91 193.50 156.36 192.78 L 155.76 191.99 C 155.21 191.27 154.18 191.13 153.46 191.68 C 152.74 192.23 152.60 193.26 153.15 193.98 Z M 153.77 194.79 L 154.35 195.53 C 154.91 196.25 155.94 196.37 156.65 195.81 C 157.37 195.25 157.49 194.22 156.93 193.51 L 156.35 192.76 C 155.79 192.05 154.76 191.92 154.04 192.48 C 153.33 193.04 153.21 194.07 153.77 194.79 Z M 154.37 195.55 L 155.01 196.33 C 155.58 197.04 156.61 197.14 157.31 196.57 C 158.01 196.00 158.12 194.97 157.55 194.27 L 156.91 193.49 C 156.34 192.79 155.31 192.68 154.61 193.25 C 153.91 193.82 153.80 194.85 154.37 195.55 Z M 155.03 196.35 L 155.68 197.12 C 156.26 197.81 157.29 197.89 157.98 197.31 C 158.66 196.73 158.75 195.70 158.17 195.01 L 157.52 194.25 C 156.94 193.56 155.91 193.47 155.22 194.06 C 154.54 194.64 154.45 195.67 155.03 196.35 Z M 155.70 197.14 L 156.36 197.89 C 156.95 198.56 157.98 198.63 158.65 198.03 C 159.33 197.44 159.39 196.41 158.80 195.74 L 158.14 194.99 C 157.55 194.32 156.52 194.25 155.85 194.84 C 155.17 195.43 155.11 196.46 155.70 197.14 Z M 156.38 197.90 L 157.05 198.64 C 157.64 199.31 158.67 199.36 159.33 198.76 C 160.00 198.16 160.05 197.14 159.45 196.47 L 158.78 195.73 C 158.19 195.06 157.16 195.01 156.50 195.61 C 155.83 196.21 155.78 197.23 156.38 197.90 Z M 157.05 198.63 L 157.71 199.38 C 158.30 200.04 159.32 200.10 159.99 199.50 C 160.65 198.91 160.71 197.89 160.12 197.23 L 159.45 196.48 C 158.86 195.82 157.84 195.76 157.18 196.35 C 156.51 196.95 156.45 197.97 157.05 198.63 Z M 157.69 199.35 L 158.34 200.10 C 158.92 200.78 159.94 200.86 160.61 200.28 C 161.28 199.70 161.36 198.69 160.78 198.02 L 160.13 197.26 C 159.56 196.58 158.54 196.50 157.87 197.08 C 157.20 197.66 157.12 198.67 157.69 199.35 Z M 158.33 200.07 L 158.96 200.85 C 159.52 201.53 160.53 201.63 161.21 201.07 C 161.89 200.51 161.99 199.50 161.43 198.82 L 160.80 198.05 C 160.24 197.37 159.23 197.27 158.55 197.83 C 157.87 198.38 157.77 199.39 158.33 200.07 Z M 158.96 200.82 L 159.58 201.60 C 160.13 202.29 161.12 202.40 161.81 201.86 C 162.49 201.31 162.61 200.31 162.06 199.63 L 161.44 198.85 C 160.89 198.16 159.90 198.05 159.21 198.59 C 158.52 199.14 158.41 200.14 158.96 200.82 Z M 159.58 201.59 L 160.19 202.37 C 160.73 203.06 161.72 203.18 162.41 202.64 C 163.09 202.11 163.21 201.12 162.68 200.43 L 162.06 199.64 C 161.53 198.96 160.54 198.84 159.85 199.37 C 159.16 199.91 159.04 200.90 159.58 201.59 Z M 160.19 202.35 L 160.80 203.15 C 161.33 203.83 162.31 203.96 163.00 203.44 C 163.68 202.91 163.81 201.93 163.29 201.24 L 162.68 200.45 C 162.15 199.76 161.17 199.63 160.48 200.16 C 159.80 200.68 159.67 201.67 160.19 202.35 Z M 160.80 203.13 L 161.41 203.95 C 161.93 204.63 162.90 204.77 163.59 204.26 C 164.28 203.74 164.41 202.77 163.90 202.08 L 163.29 201.26 C 162.77 200.58 161.80 200.44 161.11 200.95 C 160.42 201.47 160.29 202.44 160.80 203.13 Z M 161.41 203.92 L 162.02 204.75 C 162.52 205.44 163.48 205.59 164.17 205.09 C 164.86 204.59 165.01 203.62 164.51 202.93 L 163.90 202.11 C 163.40 201.42 162.44 201.27 161.75 201.77 C 161.06 202.27 160.91 203.23 161.41 203.92 Z M 162.02 204.72 L 162.57 205.50 C 163.05 206.19 164.00 206.36 164.69 205.87 C 165.38 205.39 165.55 204.44 165.06 203.75 L 164.51 202.97 C 164.03 202.28 163.07 202.11 162.39 202.60 C 161.70 203.08 161.53 204.03 162.02 204.72 Z M 162.56 205.47 L 163.11 206.29 C 163.57 206.98 164.51 207.17 165.20 206.71 C 165.90 206.24 166.08 205.31 165.62 204.61 L 165.07 203.79 C 164.61 203.09 163.67 202.91 162.98 203.37 C 162.28 203.83 162.09 204.77 162.56 205.47 Z M 163.11 206.26 L 163.64 207.09 C 164.09 207.79 165.02 207.99 165.71 207.54 C 166.41 207.09 166.61 206.16 166.16 205.47 L 165.62 204.64 C 165.17 203.94 164.25 203.74 163.55 204.19 C 162.86 204.64 162.66 205.57 163.11 206.26 Z M 163.66 207.09 L 164.21 207.94 C 164.66 208.63 165.58 208.82 166.27 208.37 C 166.95 207.92 167.15 207.00 166.70 206.32 L 166.14 205.47 C 165.69 204.78 164.77 204.59 164.09 205.04 C 163.40 205.49 163.21 206.41 163.66 207.09 Z M 164.24 207.96 L 164.82 208.81 C 165.27 209.48 166.19 209.66 166.86 209.20 C 167.54 208.75 167.71 207.83 167.25 207.16 L 166.67 206.30 C 166.22 205.63 165.30 205.45 164.63 205.91 C 163.96 206.37 163.78 207.28 164.24 207.96 Z M 164.85 208.84 L 165.45 209.67 C 165.93 210.32 166.84 210.46 167.49 209.99 C 168.15 209.51 168.29 208.60 167.81 207.95 L 167.22 207.12 C 166.74 206.47 165.83 206.33 165.18 206.80 C 164.52 207.28 164.38 208.19 164.85 208.84 Z M 165.52 209.72 L 166.16 210.50 C 166.66 211.12 167.57 211.21 168.19 210.70 C 168.81 210.20 168.90 209.29 168.39 208.67 L 167.75 207.89 C 167.24 207.27 166.33 207.18 165.72 207.69 C 165.10 208.20 165.01 209.11 165.52 209.72 Z M 166.20 210.53 L 166.52 210.90 C 167.05 211.49 167.95 211.55 168.54 211.02 C 169.13 210.50 169.19 209.60 168.67 209.01 L 168.35 208.64 C 167.82 208.05 166.92 207.99 166.33 208.51 C 165.73 209.04 165.68 209.94 166.20 210.53 Z"
      fill="black"
      fill-rule="nonzero" /><path d="M 179.05 95.49 L 178.41 96.24 C 177.87 96.87 177.95 97.82 178.58 98.36 C 179.21 98.89 180.16 98.82 180.70 98.18 L 181.34 97.43 C 181.87 96.80 181.80 95.85 181.17 95.32 C 180.54 94.78 179.59 94.86 179.05 95.49 Z M 178.38 96.26 L 177.75 97.03 C 177.22 97.68 177.32 98.63 177.97 99.16 C 178.61 99.69 179.56 99.59 180.09 98.94 L 180.72 98.17 C 181.25 97.52 181.15 96.57 180.51 96.04 C 179.86 95.52 178.91 95.61 178.38 96.26 Z M 177.71 97.08 L 177.09 97.90 C 176.58 98.57 176.72 99.52 177.39 100.03 C 178.06 100.53 179.01 100.40 179.51 99.73 L 180.13 98.90 C 180.64 98.23 180.50 97.28 179.83 96.78 C 179.16 96.27 178.21 96.41 177.71 97.08 Z M 177.05 97.95 L 176.46 98.79 C 175.98 99.48 176.15 100.43 176.84 100.91 C 177.53 101.39 178.48 101.22 178.96 100.53 L 179.55 99.68 C 180.03 98.99 179.86 98.05 179.17 97.57 C 178.48 97.09 177.53 97.26 177.05 97.95 Z M 176.45 98.82 L 175.91 99.62 C 175.45 100.32 175.64 101.26 176.34 101.73 C 177.03 102.19 177.98 102.00 178.44 101.30 L 178.98 100.50 C 179.44 99.80 179.25 98.86 178.55 98.40 C 177.85 97.93 176.91 98.12 176.45 98.82 Z M 175.91 99.63 L 175.35 100.49 C 174.89 101.19 175.08 102.13 175.79 102.59 C 176.49 103.05 177.43 102.85 177.89 102.15 L 178.45 101.29 C 178.91 100.59 178.71 99.65 178.01 99.19 C 177.31 98.73 176.37 98.93 175.91 99.63 Z M 175.34 100.51 L 174.83 101.30 C 174.39 102.01 174.60 102.95 175.30 103.40 C 176.01 103.84 176.95 103.63 177.40 102.93 L 177.90 102.13 C 178.35 101.42 178.14 100.49 177.43 100.04 C 176.72 99.59 175.78 99.80 175.34 100.51 Z M 174.83 101.32 L 174.30 102.16 C 173.86 102.87 174.08 103.81 174.79 104.25 C 175.50 104.69 176.44 104.47 176.88 103.76 L 177.40 102.91 C 177.84 102.20 177.63 101.27 176.91 100.83 C 176.20 100.39 175.27 100.61 174.83 101.32 Z M 174.31 102.15 L 173.78 102.99 C 173.33 103.70 173.54 104.63 174.25 105.08 C 174.96 105.53 175.89 105.32 176.34 104.61 L 176.87 103.77 C 177.32 103.06 177.11 102.13 176.40 101.68 C 175.69 101.23 174.76 101.44 174.31 102.15 Z M 173.78 102.99 L 173.25 103.83 C 172.80 104.54 173.01 105.47 173.71 105.92 C 174.42 106.37 175.35 106.16 175.80 105.46 L 176.34 104.61 C 176.78 103.91 176.58 102.97 175.87 102.53 C 175.17 102.08 174.23 102.28 173.78 102.99 Z M 173.24 103.85 L 172.71 104.71 C 172.27 105.42 172.49 106.35 173.20 106.79 C 173.91 107.22 174.85 107.00 175.28 106.29 L 175.81 105.44 C 176.25 104.73 176.03 103.79 175.32 103.36 C 174.61 102.92 173.67 103.14 173.24 103.85 Z M 172.70 104.73 L 172.19 105.57 C 171.77 106.29 172.00 107.22 172.72 107.64 C 173.44 108.07 174.37 107.83 174.79 107.12 L 175.29 106.27 C 175.72 105.55 175.48 104.63 174.77 104.20 C 174.05 103.77 173.12 104.01 172.70 104.73 Z M 172.19 105.58 L 171.67 106.47 C 171.24 107.19 171.48 108.12 172.20 108.54 C 172.92 108.96 173.84 108.72 174.27 108.00 L 174.79 107.11 C 175.22 106.39 174.98 105.47 174.26 105.05 C 173.54 104.62 172.62 104.86 172.19 105.58 Z M 171.67 106.47 L 171.17 107.31 C 170.75 108.03 170.98 108.95 171.70 109.38 C 172.41 109.80 173.34 109.57 173.76 108.85 L 174.26 108.01 C 174.69 107.29 174.45 106.37 173.74 105.94 C 173.02 105.52 172.10 105.76 171.67 106.47 Z M 171.17 107.32 L 170.66 108.19 C 170.24 108.90 170.48 109.82 171.19 110.25 C 171.91 110.67 172.83 110.43 173.25 109.72 L 173.76 108.85 C 174.18 108.13 173.95 107.21 173.23 106.79 C 172.52 106.37 171.59 106.60 171.17 107.32 Z M 170.66 108.20 L 170.15 109.07 C 169.74 109.79 169.98 110.71 170.70 111.12 C 171.41 111.54 172.33 111.29 172.75 110.58 L 173.25 109.70 C 173.67 108.99 173.42 108.07 172.71 107.65 C 171.99 107.24 171.07 107.48 170.66 108.20 Z M 170.15 109.08 L 169.65 109.95 C 169.25 110.67 169.50 111.58 170.22 111.99 C 170.94 112.40 171.85 112.15 172.26 111.43 L 172.75 110.56 C 173.16 109.84 172.91 108.93 172.19 108.52 C 171.47 108.11 170.55 108.36 170.15 109.08 Z M 169.66 109.95 L 169.16 110.82 C 168.75 111.54 169.00 112.46 169.72 112.87 C 170.44 113.27 171.36 113.02 171.76 112.30 L 172.26 111.43 C 172.67 110.71 172.42 109.80 171.70 109.39 C 170.98 108.98 170.06 109.23 169.66 109.95 Z M 169.17 110.82 L 168.67 111.68 C 168.26 112.39 168.50 113.31 169.22 113.72 C 169.93 114.13 170.85 113.89 171.26 113.17 L 171.76 112.31 C 172.17 111.60 171.92 110.68 171.21 110.27 C 170.49 109.86 169.58 110.10 169.17 110.82 Z M 168.68 111.67 L 168.17 112.52 C 167.76 113.24 167.99 114.15 168.71 114.57 C 169.42 114.99 170.33 114.75 170.75 114.04 L 171.25 113.18 C 171.67 112.47 171.43 111.55 170.72 111.13 C 170.01 110.72 169.10 110.95 168.68 111.67 Z M 168.18 112.52 L 167.66 113.39 C 167.24 114.10 167.48 115.02 168.19 115.44 C 168.90 115.86 169.81 115.62 170.23 114.91 L 170.75 114.04 C 171.17 113.33 170.93 112.42 170.22 112.00 C 169.51 111.58 168.60 111.81 168.18 112.52 Z M 167.66 113.39 L 167.16 114.25 C 166.74 114.96 166.97 115.87 167.68 116.29 C 168.39 116.71 169.30 116.48 169.72 115.77 L 170.23 114.91 C 170.65 114.20 170.42 113.29 169.71 112.87 C 169.00 112.45 168.08 112.68 167.66 113.39 Z M 167.16 114.25 L 166.65 115.11 C 166.22 115.82 166.46 116.73 167.17 117.15 C 167.87 117.57 168.79 117.34 169.21 116.63 L 169.72 115.77 C 170.14 115.06 169.91 114.15 169.20 113.73 C 168.49 113.31 167.58 113.54 167.16 114.25 Z M 166.65 115.10 L 166.13 115.96 C 165.71 116.67 165.93 117.58 166.64 118.01 C 167.34 118.43 168.26 118.21 168.69 117.50 L 169.20 116.64 C 169.63 115.93 169.40 115.02 168.70 114.59 C 167.99 114.17 167.08 114.40 166.65 115.10 Z M 166.14 115.95 L 165.61 116.81 C 165.18 117.51 165.40 118.43 166.10 118.86 C 166.80 119.29 167.72 119.07 168.15 118.37 L 168.68 117.51 C 169.11 116.81 168.89 115.89 168.19 115.46 C 167.49 115.03 166.57 115.25 166.14 115.95 Z M 165.62 116.79 L 165.08 117.64 C 164.64 118.34 164.85 119.26 165.55 119.70 C 166.24 120.14 167.16 119.93 167.60 119.23 L 168.14 118.39 C 168.58 117.69 168.37 116.77 167.68 116.33 C 166.98 115.89 166.06 116.10 165.62 116.79 Z M 165.10 117.62 L 164.55 118.45 C 164.10 119.14 164.30 120.06 164.98 120.51 C 165.67 120.97 166.60 120.77 167.05 120.08 L 167.59 119.25 C 168.04 118.57 167.85 117.64 167.16 117.19 C 166.47 116.74 165.55 116.93 165.10 117.62 Z M 164.57 118.43 L 164.00 119.26 C 163.54 119.94 163.71 120.87 164.39 121.33 C 165.07 121.80 166.00 121.62 166.46 120.94 L 167.03 120.11 C 167.50 119.43 167.32 118.50 166.64 118.04 C 165.96 117.57 165.03 117.75 164.57 118.43 Z M 164.02 119.24 L 163.44 120.06 C 162.96 120.73 163.12 121.66 163.79 122.13 C 164.46 122.61 165.39 122.45 165.87 121.78 L 166.45 120.96 C 166.92 120.29 166.77 119.36 166.09 118.89 C 165.42 118.41 164.49 118.57 164.02 119.24 Z M 163.45 120.03 L 162.87 120.83 C 162.38 121.49 162.52 122.42 163.18 122.91 C 163.85 123.40 164.78 123.26 165.27 122.60 L 165.85 121.80 C 166.34 121.14 166.20 120.21 165.54 119.72 C 164.88 119.23 163.94 119.37 163.45 120.03 Z M 162.88 120.81 L 162.28 121.60 C 161.78 122.25 161.91 123.19 162.56 123.69 C 163.22 124.18 164.15 124.06 164.65 123.40 L 165.25 122.62 C 165.75 121.96 165.62 121.03 164.97 120.53 C 164.32 120.03 163.38 120.16 162.88 120.81 Z M 162.30 121.59 L 161.68 122.37 C 161.17 123.02 161.29 123.95 161.93 124.46 C 162.58 124.96 163.51 124.85 164.02 124.20 L 164.63 123.42 C 165.14 122.77 165.03 121.84 164.38 121.33 C 163.74 120.83 162.80 120.94 162.30 121.59 Z M 161.69 122.36 L 161.06 123.15 C 160.54 123.79 160.65 124.72 161.29 125.23 C 161.92 125.75 162.86 125.65 163.37 125.01 L 164.01 124.22 C 164.52 123.58 164.42 122.64 163.78 122.13 C 163.14 121.62 162.21 121.72 161.69 122.36 Z M 161.07 123.14 L 160.42 123.93 C 159.90 124.57 159.99 125.50 160.63 126.02 C 161.26 126.54 162.19 126.44 162.71 125.81 L 163.36 125.02 C 163.88 124.38 163.79 123.45 163.15 122.93 C 162.52 122.41 161.59 122.50 161.07 123.14 Z M 160.43 123.92 L 159.78 124.69 C 159.26 125.32 159.34 126.25 159.97 126.78 C 160.60 127.30 161.53 127.22 162.06 126.59 L 162.70 125.82 C 163.23 125.19 163.14 124.26 162.52 123.73 C 161.89 123.21 160.95 123.29 160.43 123.92 Z M 159.80 124.67 L 159.15 125.43 C 158.61 126.05 158.68 126.98 159.30 127.52 C 159.92 128.05 160.86 127.98 161.39 127.36 L 162.04 126.61 C 162.58 125.99 162.51 125.05 161.89 124.52 C 161.27 123.98 160.33 124.05 159.80 124.67 Z M 159.16 125.41 L 158.48 126.17 C 157.94 126.78 157.99 127.72 158.60 128.26 C 159.21 128.81 160.15 128.75 160.69 128.14 L 161.37 127.38 C 161.92 126.77 161.87 125.84 161.26 125.29 C 160.65 124.75 159.71 124.80 159.16 125.41 Z M 158.50 126.16 L 157.85 126.86 C 157.30 127.46 157.34 128.40 157.95 128.95 C 158.55 129.51 159.49 129.46 160.04 128.86 L 160.68 128.16 C 161.24 127.55 161.19 126.62 160.59 126.06 C 159.99 125.51 159.05 125.55 158.50 126.16 Z M 157.85 126.86 L 157.17 127.60 C 156.62 128.20 156.66 129.14 157.26 129.70 C 157.87 130.25 158.80 130.21 159.36 129.61 L 160.04 128.86 C 160.59 128.26 160.55 127.32 159.95 126.77 C 159.35 126.21 158.41 126.25 157.85 126.86 Z M 157.17 127.60 L 156.50 128.33 C 155.95 128.94 155.99 129.88 156.59 130.43 C 157.20 130.98 158.14 130.94 158.69 130.34 L 159.36 129.60 C 159.91 129.00 159.87 128.06 159.27 127.51 C 158.66 126.96 157.72 127.00 157.17 127.60 Z M 156.50 128.34 L 155.82 129.09 C 155.26 129.69 155.31 130.63 155.91 131.18 C 156.52 131.73 157.45 131.69 158.01 131.08 L 158.69 130.33 C 159.24 129.73 159.20 128.79 158.59 128.24 C 157.99 127.69 157.05 127.73 156.50 128.34 Z M 155.81 129.09 L 155.15 129.83 C 154.60 130.44 154.65 131.37 155.25 131.92 C 155.86 132.47 156.80 132.42 157.35 131.81 L 158.01 131.08 C 158.56 130.47 158.51 129.53 157.90 128.98 C 157.30 128.44 156.36 128.48 155.81 129.09 Z M 155.13 129.84 L 154.47 130.60 C 153.93 131.21 153.99 132.15 154.60 132.69 C 155.22 133.23 156.16 133.17 156.70 132.56 L 157.36 131.80 C 157.90 131.18 157.84 130.25 157.22 129.71 C 156.61 129.17 155.67 129.23 155.13 129.84 Z M 154.45 130.62 L 153.82 131.37 C 153.29 131.99 153.36 132.93 153.99 133.46 C 154.61 133.99 155.54 133.91 156.07 133.29 L 156.71 132.54 C 157.24 131.91 157.16 130.98 156.54 130.45 C 155.92 129.92 154.98 130.00 154.45 130.62 Z M 153.80 131.39 L 153.17 132.16 C 152.65 132.79 152.75 133.72 153.38 134.24 C 154.01 134.76 154.94 134.67 155.46 134.03 L 156.09 133.27 C 156.61 132.63 156.51 131.70 155.88 131.18 C 155.25 130.67 154.32 130.76 153.80 131.39 Z M 153.14 132.20 L 152.53 132.99 C 152.04 133.64 152.16 134.57 152.81 135.07 C 153.46 135.56 154.39 135.44 154.89 134.79 L 155.49 133.99 C 155.99 133.35 155.86 132.42 155.21 131.92 C 154.56 131.42 153.64 131.55 153.14 132.20 Z M 152.49 133.05 L 151.95 133.83 C 151.48 134.50 151.65 135.43 152.33 135.89 C 153.00 136.36 153.92 136.19 154.39 135.52 L 154.93 134.73 C 155.39 134.06 155.23 133.14 154.55 132.67 C 153.88 132.20 152.95 132.37 152.49 133.05 Z M 151.90 133.89 L 151.35 134.78 C 150.92 135.48 151.13 136.40 151.83 136.83 C 152.53 137.26 153.45 137.05 153.88 136.35 L 154.43 135.46 C 154.87 134.76 154.65 133.84 153.95 133.41 C 153.25 132.98 152.34 133.19 151.90 133.89 Z M 151.32 134.83 L 150.83 135.69 C 150.42 136.40 150.67 137.32 151.39 137.72 C 152.11 138.13 153.02 137.88 153.42 137.16 L 153.91 136.30 C 154.32 135.59 154.07 134.68 153.35 134.27 C 152.64 133.86 151.72 134.11 151.32 134.83 Z M 150.80 135.72 L 150.33 136.62 C 149.94 137.35 150.22 138.26 150.95 138.65 C 151.68 139.03 152.58 138.76 152.97 138.03 L 153.45 137.13 C 153.83 136.40 153.56 135.49 152.83 135.10 C 152.10 134.72 151.19 134.99 150.80 135.72 Z M 150.30 136.66 L 149.85 137.57 C 149.49 138.31 149.79 139.21 150.54 139.58 C 151.28 139.94 152.18 139.64 152.55 138.90 L 152.99 137.99 C 153.36 137.25 153.05 136.35 152.31 135.98 C 151.57 135.61 150.67 135.92 150.30 136.66 Z M 149.83 137.62 L 149.42 138.52 C 149.09 139.28 149.43 140.17 150.18 140.51 C 150.94 140.85 151.83 140.51 152.17 139.75 L 152.57 138.85 C 152.91 138.09 152.57 137.20 151.81 136.86 C 151.05 136.52 150.16 136.86 149.83 137.62 Z M 149.39 138.58 L 149.01 139.54 C 148.71 140.32 149.09 141.20 149.86 141.50 C 150.64 141.81 151.52 141.43 151.82 140.65 L 152.20 139.69 C 152.51 138.91 152.13 138.03 151.35 137.73 C 150.58 137.42 149.70 137.80 149.39 138.58 Z M 148.96 139.68 L 148.67 140.69 C 148.44 141.49 148.90 142.33 149.71 142.56 C 150.51 142.80 151.36 142.33 151.59 141.52 L 151.88 140.52 C 152.11 139.71 151.64 138.87 150.84 138.64 C 150.03 138.40 149.19 138.87 148.96 139.68 Z M 148.60 141.18 L 148.64 142.06 C 148.69 142.91 149.41 143.56 150.25 143.51 C 151.10 143.47 151.75 142.75 151.70 141.90 L 151.66 141.03 C 151.61 140.18 150.89 139.53 150.05 139.58 C 149.20 139.62 148.56 140.34 148.60 141.18 Z M 148.99 142.98 L 149.60 143.71 C 150.15 144.37 151.13 144.45 151.78 143.90 C 152.44 143.35 152.53 142.37 151.98 141.72 L 151.36 140.99 C 150.81 140.33 149.83 140.24 149.18 140.79 C 148.52 141.34 148.43 142.32 148.99 142.98 Z M 149.72 143.86 L 150.44 144.53 C 151.07 145.12 152.07 145.09 152.66 144.45 C 153.25 143.82 153.21 142.83 152.58 142.23 L 151.86 141.56 C 151.22 140.97 150.23 141.01 149.64 141.64 C 149.05 142.28 149.08 143.27 149.72 143.86 Z M 150.37 144.48 L 151.08 145.21 C 151.68 145.84 152.68 145.86 153.31 145.26 C 153.94 144.65 153.96 143.65 153.35 143.03 L 152.65 142.29 C 152.04 141.66 151.04 141.64 150.42 142.25 C 149.79 142.85 149.77 143.85 150.37 144.48 Z M 151.06 145.20 L 151.75 145.93 C 152.35 146.57 153.35 146.60 153.98 146.00 C 154.62 145.40 154.65 144.40 154.05 143.76 L 153.36 143.03 C 152.77 142.40 151.77 142.37 151.13 142.97 C 150.49 143.57 150.46 144.57 151.06 145.20 Z M 151.76 145.94 L 152.43 146.65 C 153.04 147.28 154.04 147.30 154.67 146.69 C 155.30 146.09 155.32 145.09 154.72 144.45 L 154.04 143.75 C 153.44 143.12 152.44 143.10 151.80 143.70 C 151.17 144.31 151.15 145.31 151.76 145.94 Z M 152.44 146.66 L 153.18 147.41 C 153.79 148.04 154.79 148.05 155.42 147.44 C 156.05 146.83 156.06 145.83 155.45 145.20 L 154.71 144.44 C 154.10 143.82 153.09 143.80 152.47 144.42 C 151.84 145.03 151.83 146.03 152.44 146.66 Z M 153.19 147.42 L 153.90 148.14 C 154.51 148.76 155.52 148.77 156.14 148.15 C 156.76 147.54 156.77 146.53 156.15 145.91 L 155.44 145.19 C 154.82 144.57 153.82 144.56 153.20 145.18 C 152.57 145.80 152.57 146.80 153.19 147.42 Z M 153.90 148.15 L 154.63 148.87 C 155.25 149.49 156.25 149.49 156.87 148.87 C 157.49 148.24 157.49 147.24 156.87 146.62 L 156.14 145.90 C 155.52 145.28 154.52 145.28 153.90 145.91 C 153.28 146.53 153.28 147.53 153.90 148.15 Z M 154.64 148.88 L 155.35 149.57 C 155.98 150.19 156.98 150.17 157.59 149.54 C 158.21 148.92 158.19 147.91 157.56 147.30 L 156.86 146.61 C 156.23 146.00 155.22 146.01 154.61 146.64 C 154.00 147.27 154.01 148.27 154.64 148.88 Z M 155.36 149.59 L 156.11 150.30 C 156.75 150.90 157.76 150.88 158.36 150.24 C 158.96 149.60 158.94 148.60 158.30 147.99 L 157.55 147.28 C 156.91 146.68 155.91 146.71 155.30 147.34 C 154.70 147.98 154.73 148.99 155.36 149.59 Z M 156.12 150.30 L 156.81 150.96 C 157.45 151.56 158.45 151.53 159.06 150.89 C 159.66 150.25 159.63 149.25 158.99 148.64 L 158.30 147.99 C 157.66 147.39 156.65 147.42 156.05 148.06 C 155.45 148.69 155.48 149.70 156.12 150.30 Z M 156.79 150.94 L 157.48 151.61 C 158.11 152.22 159.12 152.20 159.73 151.57 C 160.34 150.94 160.32 149.93 159.69 149.32 L 159.01 148.66 C 158.38 148.05 157.37 148.06 156.76 148.69 C 156.15 149.33 156.16 150.33 156.79 150.94 Z M 157.47 151.60 L 158.19 152.30 C 158.81 152.92 159.82 152.91 160.44 152.29 C 161.05 151.66 161.04 150.66 160.42 150.04 L 159.70 149.33 C 159.08 148.72 158.07 148.72 157.45 149.35 C 156.84 149.97 156.84 150.98 157.47 151.60 Z M 158.19 152.31 L 158.90 153.00 C 159.52 153.62 160.53 153.61 161.15 152.98 C 161.76 152.36 161.75 151.35 161.13 150.74 L 160.42 150.04 C 159.79 149.42 158.78 149.43 158.17 150.06 C 157.55 150.68 157.56 151.69 158.19 152.31 Z M 158.90 153.01 L 159.59 153.68 C 160.22 154.30 161.23 154.29 161.84 153.66 C 162.46 153.03 162.44 152.02 161.82 151.41 L 161.12 150.73 C 160.50 150.12 159.49 150.13 158.88 150.76 C 158.26 151.39 158.27 152.39 158.90 153.01 Z M 159.59 153.68 L 160.33 154.41 C 160.95 155.03 161.96 155.02 162.58 154.39 C 163.19 153.77 163.19 152.76 162.56 152.14 L 161.82 151.42 C 161.20 150.80 160.19 150.81 159.57 151.43 C 158.96 152.06 158.96 153.06 159.59 153.68 Z M 160.32 154.40 L 161.02 155.11 C 161.64 155.73 162.65 155.73 163.27 155.11 C 163.89 154.49 163.90 153.48 163.28 152.86 L 162.57 152.15 C 161.95 151.53 160.94 151.53 160.32 152.15 C 159.70 152.77 159.70 153.78 160.32 154.40 Z M 161.01 155.10 L 161.71 155.80 C 162.32 156.43 163.33 156.44 163.95 155.83 C 164.58 155.22 164.59 154.21 163.98 153.58 L 163.29 152.87 C 162.67 152.24 161.67 152.23 161.04 152.85 C 160.41 153.46 160.40 154.47 161.01 155.10 Z M 161.69 155.79 L 162.40 156.53 C 163.01 157.16 164.01 157.19 164.65 156.58 C 165.28 155.97 165.30 154.96 164.70 154.33 L 163.99 153.59 C 163.38 152.96 162.38 152.94 161.74 153.55 C 161.11 154.15 161.09 155.16 161.69 155.79 Z M 162.39 156.52 L 163.08 157.26 C 163.68 157.90 164.69 157.93 165.33 157.33 C 165.97 156.73 166.00 155.73 165.40 155.08 L 164.71 154.34 C 164.11 153.70 163.10 153.67 162.46 154.27 C 161.82 154.87 161.79 155.88 162.39 156.52 Z M 163.07 157.24 L 163.74 157.98 C 164.33 158.62 165.34 158.67 165.99 158.08 C 166.63 157.48 166.68 156.48 166.09 155.83 L 165.42 155.10 C 164.82 154.45 163.82 154.41 163.17 155.00 C 162.52 155.59 162.48 156.60 163.07 157.24 Z M 163.73 157.97 L 164.40 158.71 C 164.99 159.36 165.99 159.41 166.64 158.83 C 167.30 158.24 167.35 157.23 166.76 156.58 L 166.09 155.84 C 165.51 155.19 164.50 155.13 163.85 155.72 C 163.20 156.31 163.14 157.31 163.73 157.97 Z M 164.39 158.70 L 165.06 159.46 C 165.65 160.11 166.65 160.17 167.31 159.59 C 167.97 159.01 168.02 158.00 167.44 157.34 L 166.77 156.59 C 166.18 155.93 165.18 155.87 164.52 156.46 C 163.87 157.04 163.81 158.05 164.39 158.70 Z M 165.06 159.45 L 165.71 160.19 C 166.30 160.85 167.30 160.92 167.96 160.33 C 168.62 159.75 168.68 158.75 168.10 158.09 L 167.44 157.35 C 166.86 156.69 165.86 156.63 165.20 157.21 C 164.54 157.79 164.48 158.80 165.06 159.45 Z M 165.71 160.19 L 166.37 160.94 C 166.95 161.60 167.95 161.67 168.61 161.09 C 169.28 160.51 169.34 159.50 168.76 158.84 L 168.10 158.09 C 167.52 157.43 166.52 157.36 165.86 157.94 C 165.19 158.52 165.13 159.53 165.71 160.19 Z M 166.36 160.94 L 167.02 161.70 C 167.60 162.36 168.61 162.43 169.27 161.86 C 169.94 161.28 170.01 160.27 169.43 159.61 L 168.77 158.85 C 168.19 158.18 167.18 158.11 166.52 158.69 C 165.85 159.26 165.78 160.27 166.36 160.94 Z M 167.01 161.69 L 167.67 162.46 C 168.24 163.13 169.25 163.20 169.92 162.63 C 170.59 162.06 170.67 161.05 170.09 160.38 L 169.44 159.61 C 168.86 158.95 167.86 158.87 167.19 159.44 C 166.52 160.01 166.44 161.02 167.01 161.69 Z M 167.66 162.45 L 168.31 163.21 C 168.88 163.89 169.89 163.97 170.56 163.40 C 171.23 162.83 171.31 161.82 170.74 161.15 L 170.10 160.39 C 169.53 159.71 168.52 159.63 167.85 160.20 C 167.18 160.77 167.09 161.78 167.66 162.45 Z M 168.31 163.21 L 168.95 163.97 C 169.52 164.65 170.53 164.73 171.20 164.16 C 171.88 163.60 171.96 162.59 171.39 161.92 L 170.75 161.15 C 170.18 160.48 169.17 160.39 168.50 160.96 C 167.82 161.53 167.74 162.54 168.31 163.21 Z M 168.96 163.98 L 169.60 164.74 C 170.17 165.41 171.18 165.49 171.85 164.92 C 172.52 164.35 172.61 163.35 172.04 162.68 L 171.39 161.91 C 170.82 161.24 169.81 161.16 169.14 161.73 C 168.47 162.30 168.39 163.30 168.96 163.98 Z M 169.61 164.75 L 170.26 165.51 C 170.84 166.18 171.84 166.26 172.51 165.68 C 173.18 165.11 173.26 164.10 172.68 163.43 L 172.03 162.67 C 171.46 162.00 170.45 161.92 169.78 162.50 C 169.11 163.07 169.03 164.08 169.61 164.75 Z M 170.27 165.52 L 170.93 166.28 C 171.50 166.94 172.51 167.01 173.18 166.43 C 173.85 165.86 173.92 164.85 173.34 164.18 L 172.68 163.42 C 172.10 162.76 171.09 162.68 170.42 163.26 C 169.76 163.84 169.69 164.85 170.27 165.52 Z M 170.93 166.28 L 171.59 167.04 C 172.17 167.70 173.18 167.77 173.85 167.18 C 174.51 166.60 174.58 165.59 173.99 164.92 L 173.34 164.17 C 172.75 163.51 171.74 163.44 171.08 164.02 C 170.41 164.61 170.34 165.62 170.93 166.28 Z M 171.59 167.04 L 172.25 167.78 C 172.83 168.45 173.85 168.51 174.51 167.92 C 175.17 167.34 175.24 166.32 174.65 165.66 L 173.99 164.92 C 173.41 164.25 172.39 164.19 171.73 164.78 C 171.06 165.36 171.00 166.38 171.59 167.04 Z M 172.25 167.79 L 172.91 168.53 C 173.50 169.19 174.51 169.25 175.18 168.66 C 175.84 168.07 175.90 167.05 175.31 166.39 L 174.65 165.65 C 174.06 164.99 173.04 164.93 172.38 165.52 C 171.72 166.11 171.66 167.13 172.25 167.79 Z M 172.91 168.54 L 173.58 169.27 C 174.17 169.93 175.19 169.99 175.85 169.39 C 176.51 168.80 176.56 167.78 175.97 167.12 L 175.30 166.39 C 174.71 165.73 173.69 165.67 173.03 166.27 C 172.37 166.86 172.32 167.88 172.91 168.54 Z M 173.59 169.28 L 174.26 170.03 C 174.86 170.68 175.88 170.73 176.53 170.13 C 177.19 169.53 177.24 168.52 176.64 167.86 L 175.96 167.12 C 175.36 166.46 174.35 166.41 173.69 167.01 C 173.03 167.61 172.99 168.63 173.59 169.28 Z M 174.27 170.03 L 174.96 170.78 C 175.56 171.43 176.58 171.47 177.23 170.86 C 177.88 170.26 177.92 169.24 177.32 168.59 L 176.63 167.85 C 176.03 167.20 175.01 167.16 174.36 167.76 C 173.71 168.37 173.67 169.38 174.27 170.03 Z M 174.97 170.79 L 175.67 171.52 C 176.28 172.17 177.29 172.20 177.94 171.59 C 178.58 170.98 178.61 169.97 178.00 169.32 L 177.31 168.58 C 176.70 167.94 175.68 167.91 175.04 168.52 C 174.39 169.13 174.36 170.14 174.97 170.79 Z M 175.68 171.54 L 176.38 172.26 C 177.00 172.90 178.01 172.92 178.65 172.30 C 179.29 171.69 179.30 170.67 178.69 170.03 L 177.99 169.31 C 177.37 168.67 176.36 168.65 175.72 169.27 C 175.08 169.88 175.07 170.90 175.68 171.54 Z M 176.40 172.28 L 177.09 172.97 C 177.71 173.60 178.73 173.60 179.35 172.98 C 179.98 172.36 179.98 171.34 179.36 170.71 L 178.67 170.02 C 178.05 169.39 177.03 169.39 176.41 170.01 C 175.78 170.63 175.78 171.65 176.40 172.28 Z M 177.11 172.99 L 177.85 173.71 C 178.49 174.33 179.50 174.31 180.12 173.68 C 180.73 173.04 180.72 172.03 180.08 171.42 L 179.34 170.69 C 178.71 170.08 177.69 170.09 177.08 170.73 C 176.46 171.36 176.48 172.37 177.11 172.99 Z M 177.87 173.73 L 178.60 174.41 C 179.25 175.02 180.26 174.99 180.86 174.34 C 181.47 173.70 181.43 172.69 180.79 172.08 L 180.06 171.40 C 179.42 170.80 178.41 170.83 177.80 171.47 C 177.20 172.11 177.23 173.12 177.87 173.73 Z M 178.62 174.42 L 179.33 175.08 C 179.98 175.68 180.99 175.64 181.59 174.99 C 182.18 174.34 182.14 173.33 181.49 172.73 L 180.78 172.07 C 180.13 171.48 179.12 171.52 178.52 172.17 C 177.93 172.82 177.97 173.83 178.62 174.42 Z M 179.34 175.08 L 180.07 175.75 C 180.72 176.34 181.72 176.30 182.32 175.65 C 182.91 175.00 182.87 173.99 182.22 173.40 L 181.49 172.73 C 180.84 172.14 179.83 172.18 179.24 172.83 C 178.64 173.48 178.69 174.49 179.34 175.08 Z M 180.07 175.75 L 180.81 176.42 C 181.45 177.02 182.46 176.97 183.05 176.33 C 183.65 175.68 183.60 174.67 182.96 174.08 L 182.22 173.40 C 181.57 172.81 180.56 172.85 179.97 173.50 C 179.38 174.15 179.42 175.15 180.07 175.75 Z M 180.80 176.42 L 181.54 177.10 C 182.18 177.69 183.19 177.65 183.78 177.00 C 184.38 176.36 184.34 175.35 183.69 174.76 L 182.96 174.08 C 182.31 173.49 181.31 173.53 180.71 174.17 C 180.12 174.82 180.16 175.83 180.80 176.42 Z M 181.54 177.09 L 182.27 177.77 C 182.91 178.37 183.92 178.33 184.51 177.69 C 185.11 177.05 185.07 176.04 184.43 175.45 L 183.70 174.76 C 183.05 174.17 182.05 174.21 181.45 174.85 C 180.86 175.49 180.89 176.50 181.54 177.09 Z M 182.26 177.76 L 182.99 178.45 C 183.63 179.05 184.64 179.02 185.24 178.39 C 185.84 177.75 185.81 176.74 185.17 176.14 L 184.44 175.46 C 183.80 174.86 182.80 174.89 182.20 175.52 C 181.60 176.16 181.63 177.16 182.26 177.76 Z M 182.98 178.44 L 183.70 179.13 C 184.33 179.74 185.33 179.72 185.94 179.09 C 186.55 178.46 186.53 177.46 185.90 176.85 L 185.18 176.16 C 184.55 175.55 183.55 175.57 182.94 176.20 C 182.33 176.83 182.35 177.83 182.98 178.44 Z M 183.68 179.11 L 184.39 179.82 C 185.01 180.43 186.01 180.43 186.63 179.82 C 187.24 179.20 187.24 178.20 186.63 177.58 L 185.92 176.87 C 185.30 176.25 184.30 176.25 183.68 176.87 C 183.06 177.49 183.06 178.49 183.68 179.11 Z M 184.37 179.79 L 185.07 180.52 C 185.67 181.15 186.67 181.17 187.30 180.56 C 187.93 179.96 187.95 178.96 187.34 178.33 L 186.65 177.60 C 186.04 176.97 185.04 176.95 184.41 177.56 C 183.78 178.16 183.76 179.16 184.37 179.79 Z M 185.04 180.49 L 185.71 181.22 C 186.30 181.87 187.30 181.91 187.94 181.32 C 188.58 180.73 188.63 179.74 188.04 179.09 L 187.37 178.36 C 186.78 177.72 185.78 177.67 185.14 178.26 C 184.50 178.85 184.45 179.85 185.04 180.49 Z M 185.69 181.19 L 186.34 181.94 C 186.91 182.60 187.90 182.67 188.56 182.10 C 189.22 181.53 189.29 180.53 188.72 179.87 L 188.07 179.13 C 187.50 178.47 186.50 178.40 185.84 178.97 C 185.19 179.54 185.12 180.53 185.69 181.19 Z M 186.31 181.91 L 186.95 182.68 C 187.50 183.34 188.49 183.44 189.16 182.89 C 189.83 182.34 189.93 181.35 189.37 180.68 L 188.74 179.91 C 188.19 179.24 187.20 179.14 186.53 179.69 C 185.86 180.25 185.76 181.24 186.31 181.91 Z M 186.93 182.65 L 187.55 183.43 C 188.08 184.11 189.07 184.23 189.75 183.69 C 190.43 183.16 190.55 182.17 190.01 181.49 L 189.39 180.71 C 188.86 180.03 187.87 179.91 187.19 180.45 C 186.51 180.98 186.39 181.97 186.93 182.65 Z M 187.54 183.41 L 188.16 184.22 C 188.68 184.91 189.66 185.04 190.34 184.52 C 191.03 184.00 191.16 183.02 190.64 182.33 L 190.02 181.52 C 189.50 180.83 188.52 180.70 187.83 181.22 C 187.15 181.74 187.01 182.72 187.54 183.41 Z M 188.15 184.20 L 188.76 185.03 C 189.27 185.72 190.24 185.87 190.93 185.36 C 191.62 184.85 191.77 183.88 191.26 183.19 L 190.65 182.36 C 190.14 181.66 189.17 181.51 188.48 182.02 C 187.79 182.53 187.64 183.51 188.15 184.20 Z M 188.74 185.00 L 189.31 185.80 C 189.80 186.50 190.77 186.66 191.46 186.17 C 192.16 185.68 192.33 184.71 191.84 184.01 L 191.27 183.21 C 190.78 182.52 189.82 182.35 189.12 182.84 C 188.42 183.33 188.25 184.30 188.74 185.00 Z M 189.29 185.75 L 189.86 186.62 C 190.33 187.33 191.28 187.52 191.99 187.06 C 192.70 186.59 192.90 185.63 192.43 184.92 L 191.86 184.06 C 191.39 183.35 190.43 183.15 189.72 183.62 C 189.01 184.09 188.82 185.04 189.29 185.75 Z M 189.83 186.55 L 190.33 187.40 C 190.77 188.12 191.70 188.36 192.43 187.93 C 193.16 187.50 193.39 186.56 192.96 185.83 L 192.46 184.99 C 192.02 184.26 191.08 184.02 190.36 184.46 C 189.63 184.89 189.40 185.83 189.83 186.55 Z M 190.30 187.33 L 190.73 188.14 C 191.13 188.88 192.05 189.16 192.79 188.77 C 193.53 188.37 193.81 187.45 193.42 186.71 L 192.99 185.90 C 192.60 185.16 191.68 184.88 190.93 185.27 C 190.19 185.66 189.91 186.59 190.30 187.33 Z M 190.71 188.06 L 191.12 188.94 C 191.47 189.69 192.37 190.02 193.13 189.67 C 193.88 189.31 194.21 188.41 193.85 187.66 L 193.44 186.79 C 193.09 186.03 192.19 185.70 191.44 186.06 C 190.68 186.41 190.36 187.31 190.71 188.06 Z M 191.10 188.88 L 191.50 189.83 C 191.82 190.60 192.70 190.96 193.46 190.64 C 194.23 190.32 194.59 189.44 194.27 188.68 L 193.87 187.72 C 193.55 186.96 192.67 186.60 191.91 186.91 C 191.14 187.23 190.78 188.11 191.10 188.88 Z M 191.49 189.79 L 191.84 190.70 C 192.14 191.47 193.00 191.85 193.77 191.55 C 194.54 191.26 194.92 190.39 194.63 189.62 L 194.28 188.72 C 193.98 187.95 193.12 187.57 192.35 187.86 C 191.58 188.16 191.20 189.02 191.49 189.79 Z M 191.83 190.66 L 192.18 191.63 C 192.46 192.41 193.30 192.81 194.08 192.54 C 194.85 192.26 195.26 191.41 194.98 190.64 L 194.63 189.66 C 194.36 188.89 193.51 188.49 192.74 188.76 C 191.97 189.04 191.56 189.88 191.83 190.66 Z M 192.17 191.58 L 192.49 192.59 C 192.73 193.37 193.56 193.80 194.34 193.55 C 195.12 193.31 195.55 192.48 195.31 191.70 L 194.99 190.69 C 194.75 189.92 193.92 189.48 193.14 189.73 C 192.36 189.97 191.93 190.80 192.17 191.58 Z M 192.48 192.52 L 192.75 193.53 C 192.96 194.31 193.76 194.78 194.55 194.57 C 195.33 194.36 195.79 193.55 195.58 192.77 L 195.32 191.77 C 195.11 190.98 194.30 190.52 193.52 190.73 C 192.74 190.94 192.27 191.74 192.48 192.52 Z M 192.75 193.46 L 192.96 194.41 C 193.13 195.19 193.90 195.69 194.69 195.51 C 195.47 195.34 195.97 194.56 195.80 193.78 L 195.59 192.84 C 195.41 192.05 194.64 191.56 193.85 191.73 C 193.07 191.90 192.57 192.68 192.75 193.46 Z M 192.95 194.33 L 193.12 195.32 C 193.25 196.11 194.00 196.64 194.78 196.50 C 195.57 196.37 196.10 195.63 195.96 194.84 L 195.80 193.85 C 195.67 193.07 194.92 192.54 194.13 192.67 C 193.35 192.80 192.82 193.55 192.95 194.33 Z M 193.12 195.23 L 193.22 196.21 C 193.31 197.00 194.01 197.57 194.80 197.49 C 195.59 197.40 196.16 196.69 196.07 195.91 L 195.97 194.93 C 195.88 194.14 195.18 193.57 194.39 193.65 C 193.60 193.74 193.03 194.45 193.12 195.23 Z M 193.22 196.13 L 193.27 197.10 C 193.31 197.89 193.98 198.49 194.77 198.45 C 195.56 198.41 196.17 197.74 196.12 196.95 L 196.07 195.98 C 196.03 195.20 195.36 194.59 194.57 194.63 C 193.79 194.67 193.18 195.35 193.22 196.13 Z M 193.27 197.05 L 193.29 198.05 C 193.30 198.84 193.95 199.46 194.74 199.45 C 195.53 199.44 196.15 198.79 196.14 198.00 L 196.12 197.00 C 196.11 196.22 195.46 195.59 194.67 195.60 C 193.89 195.61 193.26 196.26 193.27 197.05 Z M 193.29 198.03 L 193.29 198.88 C 193.29 199.66 193.93 200.30 194.72 200.30 C 195.51 200.30 196.14 199.66 196.14 198.87 L 196.14 198.02 C 196.14 197.23 195.50 196.60 194.71 196.60 C 193.92 196.60 193.29 197.24 193.29 198.03 Z"
      fill="black"
      fill-rule="nonzero" /></svg>