<svg xmlns="http://www.w3.org/2000/svg" width="300" height="300" viewBox="0 0 300 300">
<path d="M 129.09 130.25 L 129.79 129.77 C 130.54 129.26 130.74 128.24 130.23 127.49 C 129.72 126.73 128.70 126.53 127.94 127.04 L 127.24 127.52 C 126.49 128.03 126.29 129.05 126.80 129.81 C 127.31 130.56 128.34 130.76 129.09 130.25 Z M 129.77 129.80 L 130.53 129.31 C 131.30 128.81 131.52 127.78 131.02 127.01 C 130.52 126.24 129.49 126.02 128.72 126.52 L 127.96 127.01 C 127.19 127.51 126.97 128.54 127.47 129.31 C 127.97 130.08 129.00 130.30 129.77 129.80 Z M 130.49 129.36 L 131.35 128.84 C 132.15 128.36 132.40 127.32 131.93 126.53 C 131.45 125.73 130.41 125.48 129.62 125.96 L 128.75 126.48 C 127.96 126.96 127.70 127.99 128.18 128.79 C 128.66 129.58 129.70 129.84 130.49 129.36 Z M 131.31 128.88 L 132.34 128.31 C 133.16 127.86 133.45 126.82 133.00 126.00 C 132.55 125.18 131.51 124.89 130.69 125.34 L 129.66 125.91 C 128.84 126.37 128.55 127.40 129.00 128.22 C 129.46 129.04 130.49 129.34 131.31 128.88 Z M 132.30 128.35 L 133.19 127.89 C 134.03 127.45 134.36 126.43 133.93 125.59 C 133.50 124.75 132.47 124.42 131.63 124.85 L 130.74 125.31 C 129.90 125.74 129.57 126.77 130.00 127.61 C 130.43 128.45 131.46 128.78 132.30 128.35 Z M 133.16 127.90 L 134.05 127.46 C 134.90 127.05 135.25 126.02 134.83 125.18 C 134.42 124.33 133.39 123.98 132.55 124.40 L 131.66 124.83 C 130.81 125.25 130.46 126.27 130.88 127.12 C 131.29 127.97 132.32 128.32 133.16 127.90 Z M 134.03 127.47 L 134.97 127.03 C 135.82 126.62 136.18 125.60 135.78 124.75 C 135.37 123.90 134.35 123.53 133.50 123.94 L 132.56 124.39 C 131.71 124.79 131.35 125.81 131.76 126.67 C 132.16 127.52 133.18 127.88 134.03 127.47 Z M 134.96 127.03 L 135.91 126.58 C 136.77 126.18 137.14 125.17 136.74 124.31 C 136.34 123.46 135.32 123.09 134.47 123.49 L 133.51 123.94 C 132.66 124.34 132.29 125.35 132.69 126.21 C 133.09 127.06 134.11 127.43 134.96 127.03 Z M 135.91 126.59 L 136.85 126.15 C 137.70 125.76 138.08 124.74 137.68 123.89 C 137.28 123.03 136.27 122.66 135.41 123.05 L 134.47 123.49 C 133.62 123.88 133.24 124.90 133.64 125.75 C 134.03 126.61 135.05 126.98 135.91 126.59 Z M 136.84 126.15 L 137.74 125.74 C 138.60 125.35 138.97 124.33 138.58 123.48 C 138.18 122.62 137.17 122.24 136.31 122.64 L 135.41 123.05 C 134.56 123.44 134.18 124.46 134.58 125.32 C 134.97 126.17 135.99 126.55 136.84 126.15 Z M 137.74 125.74 L 138.71 125.29 C 139.56 124.90 139.94 123.88 139.54 123.03 C 139.15 122.17 138.13 121.80 137.27 122.19 L 136.31 122.64 C 135.45 123.04 135.08 124.05 135.47 124.91 C 135.87 125.76 136.88 126.14 137.74 125.74 Z M 138.71 125.29 L 139.72 124.82 C 140.58 124.42 140.94 123.40 140.54 122.55 C 140.15 121.70 139.13 121.33 138.28 121.73 L 137.27 122.20 C 136.42 122.60 136.05 123.61 136.45 124.47 C 136.85 125.32 137.86 125.69 138.71 125.29 Z M 139.73 124.81 L 140.62 124.38 C 141.47 123.98 141.83 122.96 141.42 122.11 C 141.02 121.27 140.01 120.91 139.16 121.31 L 138.27 121.74 C 137.42 122.14 137.06 123.16 137.47 124.00 C 137.87 124.85 138.89 125.21 139.73 124.81 Z M 140.64 124.37 L 141.45 123.97 C 142.29 123.56 142.64 122.54 142.23 121.70 C 141.82 120.86 140.80 120.51 139.96 120.92 L 139.14 121.32 C 138.30 121.74 137.96 122.75 138.37 123.59 C 138.78 124.43 139.80 124.78 140.64 124.37 Z M 141.47 123.96 L 142.26 123.56 C 143.09 123.14 143.43 122.12 143.01 121.29 C 142.59 120.45 141.57 120.12 140.74 120.54 L 139.95 120.94 C 139.11 121.36 138.78 122.37 139.20 123.21 C 139.62 124.04 140.63 124.38 141.47 123.96 Z M 142.27 123.55 L 143.14 123.10 C 143.97 122.67 144.30 121.65 143.87 120.83 C 143.44 120.00 142.42 119.67 141.60 120.10 L 140.72 120.55 C 139.89 120.98 139.57 121.99 140.00 122.82 C 140.42 123.65 141.44 123.98 142.27 123.55 Z M 143.15 123.09 L 144.04 122.62 C 144.86 122.19 145.18 121.17 144.75 120.35 C 144.31 119.53 143.30 119.21 142.47 119.64 L 141.59 120.11 C 140.76 120.54 140.45 121.56 140.88 122.38 C 141.31 123.20 142.33 123.52 143.15 123.09 Z M 144.04 122.61 L 144.94 122.14 C 145.75 121.70 146.06 120.69 145.63 119.87 C 145.19 119.05 144.18 118.74 143.36 119.18 L 142.47 119.65 C 141.65 120.09 141.34 121.10 141.78 121.92 C 142.21 122.74 143.23 123.05 144.04 122.61 Z M 144.94 122.13 L 145.82 121.66 C 146.64 121.22 146.94 120.21 146.51 119.39 C 146.07 118.58 145.06 118.27 144.24 118.71 L 143.36 119.18 C 142.54 119.62 142.24 120.63 142.67 121.45 C 143.11 122.26 144.12 122.57 144.94 122.13 Z M 145.82 121.65 L 146.72 121.17 C 147.53 120.74 147.83 119.72 147.39 118.91 C 146.96 118.10 145.95 117.80 145.14 118.23 L 144.24 118.71 C 143.43 119.15 143.13 120.16 143.57 120.97 C 144.00 121.78 145.01 122.09 145.82 121.65 Z M 146.72 121.17 L 147.60 120.69 C 148.41 120.25 148.71 119.24 148.27 118.44 C 147.83 117.63 146.82 117.33 146.02 117.76 L 145.14 118.24 C 144.33 118.68 144.03 119.69 144.46 120.49 C 144.90 121.30 145.91 121.60 146.72 121.17 Z M 147.60 120.68 L 148.47 120.21 C 149.28 119.77 149.57 118.76 149.14 117.96 C 148.70 117.15 147.69 116.86 146.89 117.29 L 146.01 117.77 C 145.21 118.21 144.91 119.22 145.35 120.02 C 145.79 120.83 146.80 121.12 147.60 120.68 Z M 148.48 120.20 L 149.35 119.72 C 150.15 119.28 150.44 118.27 150.00 117.47 C 149.55 116.67 148.55 116.38 147.75 116.82 L 146.88 117.30 C 146.08 117.75 145.79 118.75 146.23 119.55 C 146.67 120.35 147.68 120.64 148.48 120.20 Z M 149.36 119.71 L 150.22 119.22 C 151.02 118.78 151.30 117.77 150.85 116.98 C 150.41 116.18 149.40 115.90 148.61 116.35 L 147.74 116.83 C 146.94 117.28 146.66 118.29 147.11 119.08 C 147.56 119.87 148.56 120.16 149.36 119.71 Z M 150.23 119.21 L 151.10 118.72 C 151.88 118.27 152.16 117.26 151.71 116.47 C 151.26 115.68 150.25 115.41 149.46 115.86 L 148.60 116.36 C 147.81 116.81 147.54 117.81 147.99 118.60 C 148.44 119.39 149.44 119.66 150.23 119.21 Z M 151.10 118.71 L 151.97 118.20 C 152.75 117.75 153.02 116.74 152.56 115.96 C 152.11 115.18 151.10 114.91 150.32 115.37 L 149.46 115.87 C 148.67 116.33 148.41 117.33 148.86 118.11 C 149.32 118.90 150.32 119.16 151.10 118.71 Z M 151.98 118.19 L 152.84 117.68 C 153.62 117.22 153.88 116.22 153.42 115.44 C 152.96 114.66 151.96 114.41 151.18 114.87 L 150.31 115.38 C 149.54 115.84 149.28 116.84 149.74 117.62 C 150.20 118.39 151.20 118.65 151.98 118.19 Z M 152.85 117.67 L 153.71 117.15 C 154.49 116.69 154.74 115.69 154.27 114.92 C 153.81 114.14 152.81 113.89 152.04 114.36 L 151.17 114.88 C 150.40 115.34 150.15 116.34 150.62 117.11 C 151.08 117.88 152.08 118.13 152.85 117.67 Z M 153.72 117.14 L 154.58 116.62 C 155.35 116.15 155.59 115.15 155.12 114.39 C 154.66 113.62 153.66 113.38 152.89 113.84 L 152.03 114.37 C 151.27 114.83 151.02 115.83 151.49 116.60 C 151.96 117.36 152.95 117.61 153.72 117.14 Z M 154.58 116.61 L 155.43 116.09 C 156.19 115.62 156.43 114.62 155.97 113.86 C 155.50 113.10 154.50 112.86 153.74 113.33 L 152.89 113.85 C 152.13 114.32 151.89 115.32 152.36 116.08 C 152.83 116.84 153.82 117.08 154.58 116.61 Z M 155.44 116.08 L 156.27 115.56 C 157.03 115.09 157.26 114.10 156.80 113.34 C 156.33 112.58 155.34 112.35 154.58 112.82 L 153.74 113.34 C 152.98 113.81 152.75 114.80 153.22 115.56 C 153.69 116.31 154.68 116.55 155.44 116.08 Z M 156.27 115.55 L 157.15 115.01 C 157.90 114.54 158.13 113.55 157.66 112.80 C 157.20 112.05 156.21 111.81 155.45 112.28 L 154.58 112.83 C 153.83 113.29 153.60 114.28 154.06 115.04 C 154.53 115.79 155.52 116.02 156.27 115.55 Z M 157.15 115.00 L 158.00 114.47 C 158.75 114.00 158.98 113.01 158.51 112.27 C 158.04 111.52 157.06 111.29 156.31 111.76 L 155.45 112.29 C 154.70 112.76 154.48 113.74 154.94 114.49 C 155.41 115.24 156.40 115.47 157.15 115.00 Z M 158.00 114.46 L 158.84 113.94 C 159.58 113.47 159.81 112.49 159.34 111.74 C 158.87 111.00 157.89 110.77 157.15 111.24 L 156.31 111.76 C 155.56 112.23 155.34 113.21 155.81 113.96 C 156.27 114.70 157.26 114.93 158.00 114.46 Z M 158.84 113.93 L 159.65 113.42 C 160.39 112.95 160.61 111.97 160.14 111.23 C 159.68 110.49 158.70 110.27 157.95 110.73 L 157.15 111.24 C 156.40 111.71 156.18 112.69 156.65 113.43 C 157.12 114.18 158.10 114.40 158.84 113.93 Z M 159.65 113.41 L 160.42 112.92 C 161.16 112.45 161.38 111.48 160.91 110.74 C 160.44 110.00 159.46 109.78 158.72 110.25 L 157.95 110.74 C 157.21 111.21 157.00 112.19 157.46 112.93 C 157.93 113.66 158.91 113.88 159.65 113.41 Z M 160.43 112.91 L 161.23 112.39 C 161.96 111.92 162.17 110.94 161.70 110.21 C 161.22 109.48 160.25 109.27 159.51 109.74 L 158.71 110.26 C 157.98 110.74 157.77 111.72 158.25 112.45 C 158.72 113.18 159.70 113.39 160.43 112.91 Z M 161.25 112.38 L 162.11 111.80 C 162.84 111.31 163.03 110.34 162.55 109.61 C 162.06 108.89 161.09 108.70 160.36 109.18 L 159.50 109.76 C 158.78 110.24 158.58 111.22 159.07 111.94 C 159.55 112.67 160.53 112.86 161.25 112.38 Z M 162.13 111.78 L 163.03 111.16 C 163.74 110.67 163.92 109.69 163.43 108.98 C 162.93 108.27 161.96 108.09 161.24 108.58 L 160.35 109.20 C 159.63 109.69 159.45 110.67 159.95 111.38 C 160.44 112.09 161.42 112.27 162.13 111.78 Z M 163.04 111.15 L 163.83 110.59 C 164.54 110.08 164.70 109.11 164.20 108.40 C 163.70 107.69 162.72 107.53 162.02 108.03 L 161.22 108.59 C 160.52 109.10 160.35 110.08 160.86 110.78 C 161.36 111.49 162.34 111.65 163.04 111.15 Z M 163.86 110.57 L 164.68 109.96 C 165.37 109.45 165.52 108.46 165.00 107.77 C 164.49 107.07 163.51 106.93 162.81 107.44 L 161.99 108.05 C 161.30 108.57 161.15 109.55 161.67 110.24 C 162.18 110.94 163.16 111.08 163.86 110.57 Z M 164.71 109.93 L 165.53 109.30 C 166.21 108.76 166.33 107.78 165.80 107.10 C 165.26 106.42 164.28 106.30 163.60 106.83 L 162.78 107.47 C 162.10 108.00 161.98 108.98 162.51 109.67 C 163.04 110.35 164.03 110.47 164.71 109.93 Z M 165.57 109.26 L 166.35 108.60 C 167.01 108.05 167.10 107.06 166.54 106.40 C 165.98 105.74 165.00 105.65 164.34 106.21 L 163.56 106.87 C 162.89 107.42 162.81 108.41 163.36 109.07 C 163.92 109.73 164.91 109.82 165.57 109.26 Z M 166.41 108.55 L 167.12 107.89 C 167.76 107.30 167.79 106.31 167.21 105.68 C 166.62 105.05 165.63 105.01 165.00 105.60 L 164.28 106.26 C 163.65 106.85 163.61 107.84 164.20 108.47 C 164.78 109.10 165.77 109.14 166.41 108.55 Z M 167.20 107.81 L 167.95 107.00 C 168.54 106.37 168.51 105.38 167.88 104.80 C 167.25 104.21 166.26 104.24 165.67 104.87 L 164.92 105.68 C 164.33 106.31 164.36 107.29 164.99 107.88 C 165.63 108.47 166.61 108.44 167.20 107.81 Z M 168.03 106.91 L 168.66 106.12 C 169.20 105.45 169.09 104.46 168.42 103.93 C 167.75 103.39 166.76 103.50 166.22 104.17 L 165.59 104.96 C 165.05 105.64 165.16 106.62 165.84 107.16 C 166.51 107.70 167.49 107.59 168.03 106.91 Z M 168.72 106.04 L 169.27 105.26 C 169.77 104.56 169.60 103.58 168.90 103.08 C 168.19 102.59 167.22 102.76 166.72 103.46 L 166.17 104.25 C 165.67 104.95 165.84 105.92 166.54 106.42 C 167.25 106.92 168.22 106.75 168.72 106.04 Z M 169.30 105.21 L 169.81 104.43 C 170.29 103.71 170.08 102.74 169.36 102.27 C 168.64 101.80 167.67 102.00 167.20 102.73 L 166.69 103.51 C 166.22 104.23 166.42 105.20 167.14 105.67 C 167.87 106.14 168.83 105.94 169.30 105.21 Z M 169.82 104.42 L 169.93 104.25 C 170.39 103.53 170.18 102.56 169.46 102.10 C 168.73 101.63 167.76 101.84 167.30 102.57 L 167.19 102.74 C 166.73 103.46 166.94 104.43 167.67 104.89 C 168.39 105.36 169.36 105.15 169.82 104.42 Z"
      fill="black"
      fill-rule="nonzero" /><path d="M 150.68 120.62 L 150.43 121.53 C 150.19 122.43 150.72 123.36 151.62 123.60 C 152.52 123.84 153.44 123.31 153.68 122.41 L 153.93 121.49 C 154.17 120.60 153.64 119.67 152.74 119.43 C 151.84 119.19 150.92 119.72 150.68 120.62 Z M 150.42 121.56 L 150.18 122.51 C 149.96 123.42 150.51 124.33 151.41 124.56 C 152.31 124.78 153.22 124.23 153.45 123.33 L 153.69 122.38 C 153.92 121.48 153.37 120.56 152.47 120.34 C 151.56 120.11 150.65 120.66 150.42 121.56 Z M 150.17 122.57 L 149.95 123.59 C 149.75 124.50 150.33 125.40 151.24 125.59 C 152.15 125.79 153.04 125.21 153.24 124.31 L 153.46 123.28 C 153.66 122.37 153.08 121.48 152.17 121.28 C 151.27 121.08 150.37 121.66 150.17 122.57 Z M 149.93 123.65 L 149.76 124.63 C 149.59 125.55 150.20 126.42 151.12 126.59 C 152.04 126.75 152.92 126.14 153.08 125.22 L 153.26 124.25 C 153.42 123.33 152.81 122.45 151.89 122.29 C 150.97 122.12 150.10 122.73 149.93 123.65 Z M 149.74 124.68 L 149.60 125.68 C 149.46 126.60 150.10 127.46 151.03 127.60 C 151.95 127.74 152.81 127.09 152.95 126.17 L 153.10 125.17 C 153.23 124.25 152.59 123.38 151.67 123.25 C 150.74 123.11 149.88 123.75 149.74 124.68 Z M 149.58 125.72 L 149.46 126.74 C 149.35 127.67 150.02 128.52 150.96 128.63 C 151.89 128.74 152.74 128.07 152.85 127.14 L 152.97 126.12 C 153.08 125.19 152.41 124.34 151.47 124.23 C 150.54 124.12 149.69 124.79 149.58 125.72 Z M 149.45 126.79 L 149.36 127.78 C 149.28 128.72 149.97 129.56 150.92 129.64 C 151.86 129.72 152.69 129.02 152.77 128.08 L 152.86 127.09 C 152.94 126.14 152.25 125.31 151.30 125.23 C 150.36 125.15 149.53 125.84 149.45 126.79 Z M 149.35 127.84 L 149.30 128.85 C 149.24 129.80 149.97 130.61 150.92 130.66 C 151.86 130.71 152.67 129.99 152.72 129.04 L 152.78 128.03 C 152.83 127.08 152.11 126.27 151.16 126.22 C 150.21 126.17 149.40 126.89 149.35 127.84 Z M 149.29 128.90 L 149.27 129.89 C 149.24 130.84 149.99 131.63 150.94 131.65 C 151.89 131.68 152.68 130.93 152.70 129.98 L 152.73 128.99 C 152.75 128.05 152.00 127.26 151.06 127.23 C 150.11 127.21 149.32 127.96 149.29 128.90 Z M 149.27 129.92 L 149.26 130.91 C 149.25 131.86 150.02 132.63 150.96 132.64 C 151.91 132.65 152.69 131.88 152.69 130.94 L 152.70 129.95 C 152.71 129.00 151.95 128.23 151.00 128.22 C 150.05 128.21 149.27 128.97 149.27 129.92 Z M 149.26 130.92 L 149.26 131.89 C 149.26 132.84 150.03 133.61 150.98 133.61 C 151.92 133.61 152.69 132.84 152.69 131.89 L 152.69 130.92 C 152.69 129.98 151.93 129.21 150.98 129.21 C 150.03 129.21 149.26 129.97 149.26 130.92 Z M 149.26 131.89 L 149.26 132.84 C 149.26 133.78 150.03 134.55 150.98 134.55 C 151.93 134.55 152.70 133.78 152.69 132.83 L 152.69 131.89 C 152.69 130.94 151.92 130.17 150.97 130.18 C 150.03 130.18 149.26 130.95 149.26 131.89 Z M 149.26 132.84 L 149.26 133.83 C 149.27 134.78 150.04 135.55 150.99 135.54 C 151.94 135.54 152.70 134.77 152.70 133.82 L 152.69 132.83 C 152.69 131.88 151.92 131.11 150.97 131.12 C 150.02 131.12 149.26 131.89 149.26 132.84 Z M 149.26 133.84 L 149.27 134.88 C 149.28 135.83 150.06 136.59 151.00 136.59 C 151.95 136.58 152.71 135.80 152.71 134.86 L 152.70 133.81 C 152.69 132.86 151.92 132.10 150.97 132.11 C 150.02 132.12 149.26 132.89 149.26 133.84 Z M 149.27 134.89 L 149.29 135.92 C 149.30 136.87 150.08 137.63 151.03 137.62 C 151.98 137.60 152.73 136.83 152.72 135.88 L 152.71 134.85 C 152.69 133.90 151.91 133.14 150.97 133.15 C 150.02 133.17 149.26 133.95 149.27 134.89 Z M 149.29 135.94 L 149.31 136.89 C 149.33 137.83 150.11 138.59 151.06 138.57 C 152.01 138.55 152.76 137.76 152.74 136.81 L 152.72 135.86 C 152.70 134.92 151.91 134.16 150.97 134.18 C 150.02 134.21 149.27 134.99 149.29 135.94 Z M 149.31 136.91 L 149.34 137.89 C 149.38 138.84 150.17 139.58 151.12 139.55 C 152.06 139.52 152.80 138.72 152.77 137.78 L 152.74 136.79 C 152.71 135.84 151.91 135.10 150.97 135.13 C 150.02 135.17 149.28 135.96 149.31 136.91 Z M 149.35 137.92 L 149.40 138.94 C 149.45 139.88 150.25 140.61 151.20 140.56 C 152.14 140.51 152.87 139.71 152.82 138.76 L 152.77 137.75 C 152.72 136.80 151.92 136.07 150.97 136.12 C 150.02 136.17 149.30 136.98 149.35 137.92 Z M 149.40 138.97 L 149.48 140.01 C 149.54 140.96 150.37 141.67 151.31 141.60 C 152.25 141.53 152.96 140.71 152.90 139.77 L 152.82 138.72 C 152.75 137.78 151.93 137.07 150.98 137.14 C 150.04 137.21 149.33 138.03 149.40 138.97 Z M 149.48 140.06 L 149.59 141.11 C 149.68 142.05 150.52 142.74 151.46 142.65 C 152.40 142.55 153.09 141.71 152.99 140.77 L 152.89 139.72 C 152.80 138.78 151.96 138.09 151.02 138.19 C 150.08 138.28 149.39 139.12 149.48 140.06 Z M 149.59 141.15 L 149.72 142.20 C 149.84 143.14 150.69 143.80 151.63 143.69 C 152.57 143.57 153.23 142.72 153.12 141.78 L 152.99 140.73 C 152.87 139.79 152.02 139.13 151.08 139.24 C 150.14 139.36 149.48 140.21 149.59 141.15 Z M 149.73 142.23 L 149.88 143.26 C 150.01 144.19 150.87 144.84 151.81 144.71 C 152.74 144.58 153.39 143.71 153.26 142.78 L 153.11 141.75 C 152.98 140.81 152.11 140.16 151.18 140.30 C 150.25 140.43 149.60 141.29 149.73 142.23 Z M 149.88 143.28 L 150.03 144.27 C 150.18 145.20 151.05 145.84 151.98 145.70 C 152.91 145.56 153.55 144.69 153.40 143.75 L 153.25 142.76 C 153.11 141.83 152.24 141.19 151.31 141.33 C 150.38 141.48 149.74 142.35 149.88 143.28 Z M 150.04 144.28 L 150.19 145.21 C 150.33 146.14 151.21 146.78 152.13 146.63 C 153.06 146.48 153.70 145.61 153.55 144.68 L 153.40 143.75 C 153.25 142.82 152.38 142.18 151.45 142.33 C 150.52 142.48 149.89 143.35 150.04 144.28 Z M 150.19 145.21 L 150.34 146.20 C 150.49 147.13 151.36 147.76 152.28 147.62 C 153.21 147.47 153.84 146.61 153.70 145.68 L 153.54 144.69 C 153.40 143.76 152.53 143.12 151.61 143.27 C 150.68 143.41 150.04 144.28 150.19 145.21 Z M 150.35 146.19 L 150.50 147.25 C 150.64 148.17 151.50 148.81 152.42 148.68 C 153.35 148.54 153.99 147.68 153.85 146.76 L 153.70 145.70 C 153.56 144.77 152.70 144.13 151.78 144.27 C 150.85 144.40 150.21 145.26 150.35 146.19 Z M 150.51 147.23 L 150.64 148.18 C 150.77 149.10 151.61 149.75 152.54 149.62 C 153.46 149.49 154.10 148.65 153.98 147.72 L 153.85 146.77 C 153.72 145.85 152.87 145.21 151.95 145.33 C 151.03 145.46 150.38 146.31 150.51 147.23 Z M 150.65 148.17 L 150.76 149.06 C 150.88 149.98 151.72 150.63 152.64 150.51 C 153.56 150.39 154.20 149.55 154.08 148.63 L 153.97 147.74 C 153.85 146.82 153.01 146.17 152.09 146.29 C 151.17 146.41 150.53 147.25 150.65 148.17 Z M 150.77 149.06 L 150.89 150.03 C 151.01 150.94 151.84 151.59 152.76 151.47 C 153.67 151.35 154.32 150.52 154.20 149.61 L 154.08 148.64 C 153.96 147.72 153.13 147.08 152.21 147.19 C 151.30 147.31 150.65 148.14 150.77 149.06 Z M 150.90 150.02 L 151.02 151.01 C 151.14 151.92 151.97 152.57 152.88 152.45 C 153.79 152.34 154.43 151.51 154.32 150.60 L 154.20 149.61 C 154.08 148.70 153.25 148.05 152.34 148.17 C 151.43 148.28 150.78 149.11 150.90 150.02 Z M 151.03 151.01 L 151.15 152.01 C 151.26 152.92 152.09 153.56 153.00 153.45 C 153.91 153.34 154.55 152.51 154.44 151.61 L 154.31 150.60 C 154.20 149.70 153.37 149.05 152.47 149.16 C 151.56 149.28 150.92 150.10 151.03 151.01 Z M 151.16 152.01 L 151.28 152.98 C 151.39 153.89 152.21 154.53 153.11 154.42 C 154.02 154.31 154.66 153.49 154.55 152.58 L 154.43 151.61 C 154.32 150.71 153.50 150.06 152.60 150.17 C 151.69 150.28 151.05 151.10 151.16 152.01 Z M 151.28 152.98 L 151.40 153.95 C 151.50 154.85 152.32 155.50 153.22 155.39 C 154.12 155.29 154.77 154.47 154.66 153.57 L 154.55 152.59 C 154.44 151.69 153.62 151.05 152.72 151.15 C 151.82 151.26 151.18 152.07 151.28 152.98 Z M 151.40 153.94 L 151.51 154.94 C 151.61 155.84 152.41 156.49 153.31 156.39 C 154.21 156.29 154.86 155.49 154.76 154.59 L 154.65 153.58 C 154.56 152.69 153.75 152.04 152.85 152.13 C 151.95 152.23 151.30 153.04 151.40 153.94 Z M 151.51 154.92 L 151.61 155.94 C 151.70 156.83 152.49 157.49 153.39 157.41 C 154.29 157.32 154.94 156.52 154.86 155.63 L 154.76 154.61 C 154.67 153.71 153.88 153.06 152.98 153.14 C 152.09 153.23 151.43 154.02 151.51 154.92 Z M 151.62 155.92 L 151.70 156.91 C 151.77 157.80 152.56 158.47 153.45 158.39 C 154.34 158.32 155.01 157.53 154.93 156.64 L 154.85 155.65 C 154.78 154.76 153.99 154.09 153.10 154.17 C 152.21 154.24 151.54 155.02 151.62 155.92 Z M 151.70 156.89 L 151.78 157.90 C 151.84 158.79 152.61 159.46 153.50 159.39 C 154.39 159.33 155.06 158.56 155.00 157.67 L 154.93 156.66 C 154.86 155.77 154.09 155.10 153.20 155.16 C 152.31 155.23 151.64 156.00 151.70 156.89 Z M 151.78 157.88 L 151.85 158.89 C 151.90 159.77 152.66 160.45 153.55 160.39 C 154.44 160.33 155.11 159.57 155.06 158.69 L 154.99 157.68 C 154.94 156.79 154.17 156.12 153.29 156.18 C 152.40 156.23 151.73 157.00 151.78 157.88 Z M 151.85 158.87 L 151.91 159.88 C 151.95 160.76 152.71 161.44 153.59 161.39 C 154.47 161.34 155.15 160.59 155.10 159.70 L 155.05 158.70 C 155.00 157.82 154.25 157.14 153.36 157.19 C 152.48 157.23 151.80 157.99 151.85 158.87 Z M 151.91 159.86 L 151.96 160.86 C 152.00 161.74 152.74 162.42 153.63 162.38 C 154.51 162.34 155.19 161.60 155.15 160.72 L 155.10 159.72 C 155.06 158.84 154.31 158.16 153.43 158.20 C 152.55 158.24 151.87 158.98 151.91 159.86 Z M 151.96 160.85 L 152.00 161.85 C 152.04 162.72 152.78 163.41 153.66 163.37 C 154.53 163.33 155.22 162.59 155.18 161.72 L 155.14 160.72 C 155.10 159.85 154.36 159.16 153.49 159.20 C 152.61 159.24 151.93 159.98 151.96 160.85 Z M 152.01 161.84 L 152.05 162.84 C 152.08 163.71 152.81 164.39 153.69 164.36 C 154.56 164.33 155.25 163.59 155.21 162.72 L 155.18 161.72 C 155.14 160.85 154.41 160.16 153.53 160.20 C 152.66 160.23 151.97 160.97 152.01 161.84 Z M 152.05 162.83 L 152.09 163.82 C 152.12 164.70 152.85 165.38 153.72 165.35 C 154.60 165.32 155.28 164.58 155.25 163.71 L 155.21 162.72 C 155.18 161.85 154.44 161.17 153.57 161.20 C 152.70 161.23 152.02 161.96 152.05 162.83 Z M 152.09 163.82 L 152.12 164.82 C 152.15 165.69 152.88 166.37 153.75 166.35 C 154.62 166.32 155.30 165.59 155.27 164.72 L 155.24 163.72 C 155.21 162.85 154.48 162.16 153.61 162.19 C 152.74 162.22 152.06 162.95 152.09 163.82 Z M 152.13 164.81 L 152.15 165.82 C 152.18 166.69 152.90 167.37 153.77 167.35 C 154.64 167.32 155.32 166.60 155.30 165.73 L 155.27 164.73 C 155.25 163.86 154.52 163.17 153.66 163.20 C 152.79 163.22 152.10 163.94 152.13 164.81 Z M 152.16 165.81 L 152.18 166.81 C 152.19 167.68 152.91 168.37 153.78 168.35 C 154.64 168.33 155.33 167.62 155.32 166.75 L 155.30 165.74 C 155.28 164.88 154.56 164.19 153.70 164.20 C 152.83 164.22 152.14 164.94 152.16 165.81 Z M 152.18 166.80 L 152.19 167.80 C 152.20 168.67 152.91 169.36 153.77 169.35 C 154.64 169.34 155.33 168.63 155.32 167.77 L 155.31 166.76 C 155.30 165.90 154.59 165.20 153.73 165.21 C 152.86 165.22 152.17 165.93 152.18 166.80 Z M 152.19 167.79 L 152.19 168.79 C 152.20 169.65 152.90 170.35 153.77 170.35 C 154.63 170.34 155.33 169.64 155.33 168.78 L 155.32 167.78 C 155.32 166.91 154.61 166.22 153.75 166.22 C 152.88 166.22 152.19 166.93 152.19 167.79 Z M 152.20 168.78 L 152.20 169.78 C 152.20 170.64 152.90 171.34 153.76 171.34 C 154.63 171.34 155.33 170.64 155.33 169.78 L 155.32 168.78 C 155.32 167.92 154.62 167.22 153.76 167.22 C 152.90 167.22 152.20 167.92 152.20 168.78 Z M 152.20 169.78 L 152.20 170.78 C 152.20 171.64 152.90 172.34 153.76 172.34 C 154.62 172.34 155.32 171.64 155.32 170.78 L 155.32 169.78 C 155.32 168.91 154.62 168.22 153.76 168.22 C 152.90 168.22 152.20 168.91 152.20 169.78 Z M 152.20 170.78 L 152.20 171.78 C 152.20 172.65 152.90 173.35 153.76 173.35 C 154.62 173.35 155.32 172.65 155.32 171.78 L 155.32 170.78 C 155.32 169.92 154.62 169.22 153.76 169.22 C 152.90 169.22 152.20 169.92 152.20 170.78 Z M 152.20 171.78 L 152.20 172.78 C 152.20 173.65 152.90 174.34 153.76 174.34 C 154.62 174.34 155.32 173.65 155.32 172.78 L 155.32 171.78 C 155.32 170.92 154.62 170.22 153.76 170.22 C 152.90 170.22 152.20 170.92 152.20 171.78 Z M 152.20 172.78 L 152.20 173.78 C 152.20 174.64 152.90 175.34 153.76 175.34 C 154.62 175.34 155.32 174.64 155.32 173.78 L 155.32 172.78 C 155.32 171.92 154.62 171.22 153.76 171.22 C 152.90 171.22 152.20 171.92 152.20 172.78 Z M 152.20 173.78 L 152.20 174.78 C 152.20 175.64 152.90 176.34 153.76 176.34 C 154.62 176.34 155.32 175.64 155.32 174.78 L 155.32 173.78 C 155.32 172.91 154.62 172.22 153.76 172.22 C 152.90 172.22 152.20 172.91 152.20 173.78 Z M 152.20 174.78 L 152.20 175.77 C 152.20 176.64 152.90 177.34 153.76 177.34 C 154.62 177.34 155.32 176.64 155.32 175.77 L 155.32 174.78 C 155.32 173.92 154.62 173.22 153.76 173.22 C 152.90 173.22 152.20 173.92 152.20 174.78 Z M 152.20 175.77 L 152.20 176.77 C 152.20 177.64 152.90 178.34 153.76 178.34 C 154.62 178.34 155.32 177.64 155.32 176.77 L 155.32 175.77 C 155.32 174.91 154.62 174.21 153.76 174.21 C 152.90 174.21 152.20 174.91 152.20 175.77 Z M 152.20 176.77 L 152.20 177.74 C 152.20 178.60 152.90 179.30 153.76 179.30 C 154.62 179.30 155.32 178.60 155.32 177.74 L 155.32 176.77 C 155.32 175.91 154.62 175.21 153.76 175.21 C 152.90 175.21 152.20 175.91 152.20 176.77 Z M 152.20 177.74 L 152.20 178.71 C 152.20 179.57 152.90 180.27 153.76 180.27 C 154.62 180.27 155.32 179.57 155.32 178.71 L 155.32 177.74 C 155.32 176.88 154.62 176.18 153.76 176.18 C 152.90 176.18 152.20 176.88 152.20 177.74 Z M 152.20 178.71 L 152.20 179.72 C 152.20 180.58 152.90 181.28 153.76 181.28 C 154.62 181.28 155.32 180.58 155.32 179.72 L 155.32 178.71 C 155.32 177.85 154.62 177.15 153.76 177.15 C 152.90 177.15 152.20 177.85 152.20 178.71 Z M 152.20 179.72 L 152.20 180.78 C 152.20 181.64 152.90 182.34 153.76 182.34 C 154.62 182.34 155.32 181.64 155.32 180.78 L 155.32 179.72 C 155.32 178.86 154.62 178.16 153.76 178.16 C 152.90 178.16 152.20 178.86 152.20 179.72 Z M 152.20 180.78 L 152.20 181.73 C 152.20 182.59 152.90 183.29 153.76 183.29 C 154.62 183.29 155.32 182.59 155.32 181.73 L 155.32 180.78 C 155.32 179.91 154.62 179.22 153.76 179.22 C 152.90 179.22 152.20 179.91 152.20 180.78 Z M 152.20 181.73 L 152.20 182.72 C 152.20 183.58 152.90 184.28 153.76 184.28 C 154.62 184.28 155.32 183.58 155.32 182.72 L 155.32 181.73 C 155.32 180.87 154.62 180.17 153.76 180.17 C 152.90 180.17 152.20 180.87 152.20 181.73 Z M 152.20 182.72 L 152.20 183.73 C 152.20 184.59 152.90 185.29 153.76 185.29 C 154.62 185.29 155.32 184.59 155.32 183.73 L 155.32 182.72 C 155.32 181.85 154.62 181.16 153.76 181.16 C 152.90 181.16 152.20 181.85 152.20 182.72 Z M 152.20 183.73 L 152.20 184.76 C 152.20 185.63 152.90 186.32 153.76 186.32 C 154.62 186.32 155.32 185.63 155.32 184.76 L 155.32 183.73 C 155.32 182.87 154.62 182.17 153.76 182.17 C 152.90 182.17 152.20 182.87 152.20 183.73 Z M 152.20 184.76 L 152.20 185.13 C 152.20 185.99 152.90 186.69 153.76 186.69 C 154.62 186.69 155.32 185.99 155.32 185.13 L 155.32 184.76 C 155.32 183.90 154.62 183.20 153.76 183.20 C 152.90 183.20 152.20 183.90 152.20 184.76 Z"
      fill="black"
      fill-rule="nonzero" /><path d="M 156.00 145.94 L 156.74 146.65 C 157.44 147.32 158.55 147.29 159.22 146.59 C 159.89 145.89 159.87 144.77 159.16 144.10 L 158.42 143.40 C 157.72 142.73 156.61 142.75 155.94 143.46 C 155.27 144.16 155.29 145.27 156.00 145.94 Z M 156.75 146.66 L 157.49 147.35 C 158.20 148.01 159.31 147.98 159.97 147.27 C 160.64 146.56 160.60 145.45 159.89 144.79 L 159.15 144.09 C 158.44 143.43 157.33 143.47 156.67 144.18 C 156.01 144.88 156.04 146.00 156.75 146.66 Z M 157.52 147.37 L 158.26 148.04 C 158.98 148.69 160.09 148.63 160.73 147.91 C 161.38 147.19 161.32 146.08 160.60 145.43 L 159.86 144.77 C 159.14 144.12 158.04 144.18 157.39 144.90 C 156.74 145.62 156.80 146.72 157.52 147.37 Z M 158.30 148.07 L 159.04 148.70 C 159.78 149.32 160.88 149.23 161.51 148.49 C 162.13 147.76 162.04 146.65 161.30 146.03 L 160.56 145.40 C 159.82 144.78 158.72 144.87 158.10 145.61 C 157.47 146.34 157.56 147.45 158.30 148.07 Z M 159.10 148.75 L 159.87 149.34 C 160.64 149.94 161.74 149.80 162.33 149.03 C 162.92 148.27 162.78 147.17 162.01 146.58 L 161.24 145.98 C 160.48 145.39 159.38 145.53 158.79 146.29 C 158.20 147.06 158.34 148.16 159.10 148.75 Z M 159.94 149.40 L 160.74 149.95 C 161.53 150.51 162.63 150.31 163.18 149.51 C 163.73 148.72 163.54 147.62 162.74 147.07 L 161.94 146.52 C 161.15 145.97 160.06 146.16 159.50 146.96 C 158.95 147.75 159.15 148.85 159.94 149.40 Z M 160.82 150.01 L 161.66 150.53 C 162.49 151.04 163.57 150.78 164.08 149.96 C 164.59 149.13 164.33 148.05 163.51 147.54 L 162.66 147.02 C 161.84 146.51 160.76 146.76 160.25 147.59 C 159.74 148.41 159.99 149.50 160.82 150.01 Z M 161.74 150.58 L 162.66 151.08 C 163.51 151.55 164.58 151.24 165.05 150.39 C 165.52 149.54 165.20 148.47 164.35 148.00 L 163.43 147.49 C 162.58 147.02 161.51 147.33 161.04 148.19 C 160.57 149.04 160.88 150.11 161.74 150.58 Z M 162.72 151.12 L 163.60 151.56 C 164.48 152.00 165.53 151.64 165.97 150.77 C 166.40 149.90 166.05 148.84 165.18 148.41 L 164.29 147.96 C 163.42 147.53 162.36 147.88 161.93 148.75 C 161.49 149.62 161.85 150.68 162.72 151.12 Z M 163.65 151.58 L 164.58 152.01 C 165.46 152.42 166.51 152.04 166.92 151.15 C 167.33 150.27 166.94 149.22 166.06 148.81 L 165.13 148.39 C 164.25 147.98 163.20 148.36 162.79 149.24 C 162.38 150.13 162.77 151.17 163.65 151.58 Z M 164.61 152.03 L 165.55 152.44 C 166.45 152.83 167.48 152.42 167.87 151.53 C 168.26 150.64 167.85 149.60 166.96 149.21 L 166.02 148.80 C 165.13 148.41 164.09 148.82 163.70 149.71 C 163.31 150.60 163.72 151.64 164.61 152.03 Z M 165.59 152.45 L 166.51 152.83 C 167.41 153.20 168.44 152.78 168.81 151.88 C 169.18 150.98 168.75 149.95 167.85 149.57 L 166.93 149.19 C 166.03 148.82 165.00 149.25 164.63 150.15 C 164.26 151.05 164.69 152.08 165.59 152.45 Z M 166.54 152.85 L 167.49 153.22 C 168.39 153.57 169.41 153.12 169.77 152.22 C 170.12 151.31 169.68 150.29 168.77 149.93 L 167.82 149.56 C 166.92 149.21 165.89 149.66 165.54 150.56 C 165.18 151.47 165.63 152.49 166.54 152.85 Z M 167.52 153.23 L 168.50 153.59 C 169.41 153.93 170.43 153.46 170.76 152.54 C 171.10 151.63 170.63 150.62 169.72 150.28 L 168.74 149.92 C 167.82 149.59 166.81 150.05 166.47 150.97 C 166.14 151.88 166.61 152.89 167.52 153.23 Z M 168.53 153.60 L 169.46 153.92 C 170.38 154.24 171.38 153.75 171.70 152.83 C 172.02 151.91 171.53 150.91 170.61 150.59 L 169.69 150.27 C 168.77 149.95 167.76 150.44 167.45 151.36 C 167.13 152.28 167.62 153.28 168.53 153.60 Z M 169.48 153.93 L 170.38 154.22 C 171.31 154.53 172.30 154.02 172.60 153.10 C 172.91 152.18 172.40 151.18 171.48 150.88 L 170.58 150.58 C 169.66 150.28 168.66 150.78 168.36 151.71 C 168.06 152.63 168.56 153.62 169.48 153.93 Z M 170.40 154.23 L 171.32 154.52 C 172.24 154.81 173.23 154.30 173.53 153.38 C 173.82 152.45 173.31 151.46 172.39 151.17 L 171.47 150.87 C 170.54 150.58 169.55 151.09 169.26 152.02 C 168.96 152.94 169.47 153.93 170.40 154.23 Z M 171.33 154.52 L 172.27 154.82 C 173.20 155.11 174.18 154.59 174.47 153.67 C 174.76 152.74 174.25 151.76 173.32 151.47 L 172.38 151.17 C 171.45 150.88 170.47 151.39 170.18 152.32 C 169.89 153.24 170.40 154.23 171.33 154.52 Z M 172.27 154.81 L 173.23 155.11 C 174.16 155.40 175.14 154.89 175.43 153.97 C 175.72 153.05 175.21 152.06 174.28 151.77 L 173.32 151.47 C 172.40 151.18 171.42 151.69 171.13 152.62 C 170.84 153.54 171.35 154.52 172.27 154.81 Z M 173.23 155.11 L 174.20 155.42 C 175.11 155.71 176.10 155.20 176.39 154.28 C 176.68 153.36 176.18 152.38 175.26 152.09 L 174.29 151.78 C 173.37 151.49 172.39 151.99 172.09 152.91 C 171.80 153.83 172.31 154.82 173.23 155.11 Z M 174.19 155.41 L 175.12 155.71 C 176.03 156.01 177.02 155.50 177.31 154.59 C 177.61 153.67 177.11 152.69 176.19 152.40 L 175.26 152.09 C 174.35 151.80 173.37 152.30 173.07 153.21 C 172.77 154.13 173.27 155.11 174.19 155.41 Z M 175.12 155.70 L 176.06 156.01 C 176.97 156.31 177.95 155.81 178.25 154.90 C 178.55 153.99 178.05 153.01 177.14 152.71 L 176.19 152.40 C 175.28 152.11 174.30 152.60 174.00 153.51 C 173.71 154.43 174.21 155.41 175.12 155.70 Z M 176.07 156.01 L 177.03 156.32 C 177.94 156.61 178.91 156.11 179.21 155.20 C 179.50 154.30 179.00 153.32 178.10 153.03 L 177.13 152.71 C 176.22 152.42 175.25 152.92 174.95 153.83 C 174.66 154.74 175.16 155.71 176.07 156.01 Z M 177.04 156.31 L 178.02 156.62 C 178.92 156.91 179.89 156.41 180.18 155.50 C 180.47 154.60 179.97 153.63 179.06 153.34 L 178.08 153.03 C 177.18 152.74 176.21 153.24 175.92 154.15 C 175.63 155.06 176.13 156.03 177.04 156.31 Z M 178.03 156.62 L 178.99 156.92 C 179.90 157.20 180.86 156.70 181.14 155.79 C 181.42 154.89 180.92 153.93 180.01 153.65 L 179.05 153.34 C 178.14 153.06 177.18 153.57 176.90 154.47 C 176.62 155.38 177.12 156.34 178.03 156.62 Z M 179.00 156.91 L 179.97 157.21 C 180.86 157.49 181.82 156.99 182.10 156.09 C 182.38 155.19 181.88 154.24 180.98 153.96 L 180.01 153.66 C 179.11 153.38 178.16 153.88 177.88 154.78 C 177.60 155.67 178.10 156.63 179.00 156.91 Z M 179.96 157.20 L 180.91 157.50 C 181.80 157.78 182.75 157.29 183.03 156.40 C 183.31 155.51 182.82 154.56 181.93 154.27 L 180.98 153.97 C 180.09 153.69 179.14 154.18 178.86 155.07 C 178.58 155.96 179.07 156.91 179.96 157.20 Z M 180.89 157.48 L 181.84 157.79 C 182.72 158.09 183.67 157.61 183.97 156.73 C 184.26 155.85 183.78 154.90 182.90 154.61 L 181.95 154.29 C 181.07 154.00 180.12 154.48 179.83 155.36 C 179.53 156.24 180.01 157.19 180.89 157.48 Z M 181.82 157.77 L 182.80 158.12 C 183.67 158.42 184.62 157.96 184.92 157.10 C 185.23 156.23 184.77 155.28 183.90 154.97 L 182.92 154.63 C 182.06 154.32 181.10 154.78 180.80 155.65 C 180.49 156.52 180.95 157.47 181.82 157.77 Z M 182.78 158.10 L 183.71 158.44 C 184.56 158.76 185.51 158.32 185.83 157.46 C 186.15 156.60 185.71 155.65 184.85 155.33 L 183.92 154.99 C 183.07 154.67 182.11 155.11 181.80 155.97 C 181.48 156.83 181.92 157.78 182.78 158.10 Z M 183.69 158.42 L 184.58 158.76 C 185.43 159.09 186.38 158.67 186.70 157.82 C 187.03 156.97 186.61 156.02 185.76 155.70 L 184.87 155.35 C 184.02 155.03 183.07 155.45 182.74 156.30 C 182.42 157.14 182.84 158.10 183.69 158.42 Z M 184.57 158.75 L 185.43 159.09 C 186.27 159.42 187.22 159.01 187.55 158.17 C 187.88 157.33 187.47 156.39 186.63 156.05 L 185.77 155.71 C 184.93 155.38 183.99 155.79 183.65 156.63 C 183.32 157.47 183.73 158.41 184.57 158.75 Z M 185.41 159.07 L 186.29 159.43 C 187.12 159.77 188.06 159.38 188.40 158.56 C 188.75 157.73 188.36 156.78 187.53 156.44 L 186.65 156.08 C 185.83 155.73 184.88 156.13 184.54 156.95 C 184.19 157.78 184.59 158.72 185.41 159.07 Z M 186.26 159.40 L 187.20 159.82 C 188.01 160.18 188.96 159.81 189.32 159.00 C 189.68 158.19 189.31 157.24 188.50 156.88 L 187.56 156.47 C 186.75 156.11 185.80 156.48 185.44 157.29 C 185.08 158.10 185.45 159.05 186.26 159.40 Z M 187.17 159.79 L 188.13 160.24 C 188.93 160.61 189.87 160.27 190.25 159.47 C 190.62 158.68 190.28 157.73 189.48 157.35 L 188.53 156.91 C 187.73 156.53 186.78 156.88 186.41 157.67 C 186.03 158.47 186.38 159.42 187.17 159.79 Z M 188.10 160.22 L 188.95 160.64 C 189.74 161.03 190.69 160.70 191.08 159.92 C 191.47 159.13 191.14 158.18 190.36 157.79 L 189.51 157.37 C 188.72 156.99 187.77 157.31 187.38 158.09 C 186.99 158.88 187.32 159.83 188.10 160.22 Z M 188.92 160.62 L 189.81 161.08 C 190.59 161.49 191.54 161.19 191.95 160.41 C 192.35 159.64 192.05 158.68 191.28 158.28 L 190.39 157.81 C 189.61 157.41 188.66 157.71 188.25 158.48 C 187.85 159.26 188.15 160.21 188.92 160.62 Z M 189.78 161.06 L 190.68 161.56 C 191.44 161.98 192.40 161.71 192.83 160.95 C 193.25 160.19 192.98 159.23 192.22 158.81 L 191.31 158.30 C 190.55 157.88 189.59 158.15 189.17 158.91 C 188.74 159.67 189.02 160.63 189.78 161.06 Z M 190.64 161.53 L 191.53 162.07 C 192.27 162.51 193.24 162.27 193.68 161.53 C 194.13 160.79 193.89 159.82 193.15 159.37 L 192.26 158.84 C 191.52 158.39 190.55 158.63 190.10 159.37 C 189.65 160.12 189.89 161.08 190.64 161.53 Z M 191.47 162.03 L 192.33 162.60 C 193.05 163.07 194.03 162.88 194.50 162.16 C 194.98 161.43 194.79 160.46 194.06 159.98 L 193.20 159.41 C 192.48 158.93 191.51 159.13 191.03 159.85 C 190.55 160.57 190.75 161.55 191.47 162.03 Z M 192.28 162.56 L 193.10 163.15 C 193.80 163.66 194.78 163.51 195.29 162.81 C 195.79 162.11 195.64 161.13 194.94 160.62 L 194.12 160.02 C 193.42 159.51 192.44 159.67 191.93 160.37 C 191.42 161.07 191.58 162.05 192.28 162.56 Z M 193.06 163.12 L 193.84 163.73 C 194.52 164.27 195.50 164.15 196.04 163.47 C 196.57 162.79 196.45 161.80 195.77 161.27 L 194.98 160.66 C 194.30 160.12 193.32 160.24 192.79 160.92 C 192.26 161.60 192.38 162.59 193.06 163.12 Z M 193.81 163.71 L 194.57 164.33 C 195.24 164.88 196.23 164.79 196.77 164.12 C 197.32 163.45 197.22 162.47 196.56 161.92 L 195.80 161.29 C 195.13 160.75 194.15 160.84 193.60 161.51 C 193.05 162.18 193.15 163.16 193.81 163.71 Z M 194.56 164.32 L 195.31 164.95 C 195.97 165.51 196.95 165.42 197.51 164.76 C 198.06 164.10 197.98 163.12 197.32 162.56 L 196.57 161.93 C 195.91 161.38 194.93 161.46 194.37 162.12 C 193.82 162.78 193.90 163.77 194.56 164.32 Z"
      fill="black"
      fill-rule="nonzero" /></svg>