<?xml version="1.0" standalone="no"?>
<!DOCTYPE svg PUBLIC "-//W3C//DTD SVG 20010904//EN"
 "http://www.w3.org/TR/2001/REC-SVG-20010904/DTD/svg10.dtd">
<svg version="1.0" xmlns="http://www.w3.org/2000/svg"
 width="300.000000pt" height="300.000000pt" viewBox="0 0 300.000000 300.000000"
 preserveAspectRatio="xMidYMid meet">
<metadata>
Created by potrace 1.16, written by Peter Selinger 2001-2019
</metadata>
<g transform="translate(0.000000,300.000000) scale(0.100000,-0.100000)"
fill="#000000" stroke="none">
<path d="M1734 2677 c-98 -73 -224 -219 -330 -382 -64 -100 -124 -176 -195
-251 -67 -70 -86 -106 -75 -141 4 -10 41 -43 82 -73 42 -30 103 -77 136 -105
33 -27 70 -58 83 -69 l23 -18 21 11 c12 7 21 21 21 34 0 33 -91 130 -182 194
-43 30 -78 59 -78 63 0 5 21 31 48 57 26 27 65 75 87 108 126 190 295 398 357
441 23 16 64 40 92 54 l51 25 3 28 c4 36 -22 67 -58 67 -17 0 -51 -17 -86 -43z"/>
<path d="M2131 2364 c-11 -14 -39 -85 -61 -157 -69 -219 -86 -267 -132 -367
-11 -25 -38 -90 -59 -145 -22 -55 -48 -123 -59 -151 -22 -55 -19 -81 13 -93
23 -9 32 -7 202 39 175 47 270 67 355 75 l76 6 27 -21 c15 -12 36 -38 46 -58
20 -40 55 -276 49 -332 l-3 -35 -45 -7 c-25 -3 -79 -11 -120 -17 -120 -17
-369 -79 -412 -102 -26 -14 -24 -67 3 -77 20 -8 141 13 299 51 102 25 260 49
277 43 l16 -6 -6 -118 c-7 -131 -21 -188 -52 -208 -12 -7 -57 -18 -100 -24
-348 -47 -799 -140 -883 -184 -56 -29 -68 -75 -27 -101 l20 -13 50 14 c68 18
174 42 270 60 155 28 221 42 300 62 128 32 306 65 313 58 13 -14 -46 -57 -123
-90 l-80 -35 -3 -25 -3 -25 27 -7 c32 -8 108 16 165 52 21 13 74 57 118 99
l81 75 40 0 c51 0 86 30 70 60 -11 20 -30 27 -85 32 l-30 3 1 35 c3 93 27 308
36 327 8 17 8 30 -1 49 -6 15 -14 63 -17 108 -18 275 -92 434 -209 452 -65 9
-187 0 -265 -21 -109 -29 -204 -56 -232 -67 -62 -23 -61 -7 8 139 36 76 95
217 131 313 36 96 74 194 84 217 22 48 25 113 7 131 -20 20 -55 14 -77 -14z"/>
<path d="M1682 2248 c-20 -20 -14 -42 41 -156 41 -87 121 -127 162 -82 23 25
14 46 -29 67 -25 12 -40 29 -55 64 -12 26 -21 54 -21 63 0 18 -47 56 -69 56
-10 0 -22 -5 -29 -12z"/>
<path d="M620 2231 c-5 -11 -10 -27 -10 -36 0 -21 -43 -131 -85 -215 -66 -134
-115 -292 -115 -373 0 -44 22 -92 49 -107 35 -18 68 -11 129 30 33 22 62 40
66 40 15 0 3 -43 -43 -156 -75 -184 -78 -266 -11 -294 38 -16 80 4 163 74 73
62 82 60 78 -16 -2 -57 -22 -118 -51 -159 -27 -37 -23 -73 8 -77 33 -5 64 27
106 111 64 126 60 264 -7 292 -42 17 -78 5 -148 -50 -57 -45 -89 -56 -89 -32
0 7 25 70 55 139 81 189 92 252 50 293 -35 35 -65 31 -132 -19 -76 -56 -103
-70 -114 -59 -14 14 59 248 91 288 11 14 100 277 100 296 0 42 -71 65 -90 30z"/>
<path d="M1583 1671 c-26 -21 -86 -73 -133 -116 -93 -85 -176 -145 -200 -145
-9 0 -21 -5 -28 -12 -25 -25 -12 -60 46 -123 31 -34 69 -87 84 -117 28 -55 35
-79 87 -308 59 -256 72 -296 104 -306 35 -11 42 10 28 83 -7 38 -19 91 -27
118 -7 28 -15 74 -16 104 l-3 53 42 13 c23 7 56 22 75 33 18 11 65 37 103 57
39 21 85 49 103 62 l33 25 -3 31 c-2 24 -9 33 -24 35 -12 2 -81 -25 -154 -58
-73 -34 -147 -64 -165 -67 l-32 -5 -18 58 c-26 85 -53 143 -91 195 -19 26 -34
53 -34 61 0 8 39 47 88 85 102 83 242 225 242 245 0 19 -20 38 -41 38 -10 0
-39 -17 -66 -39z"/>
<path d="M291 701 c-28 -52 -2 -126 61 -174 86 -65 254 -77 450 -31 l113 27
182 -6 c193 -5 219 0 211 39 -6 33 -65 44 -256 44 l-177 1 -104 -31 c-117 -34
-174 -37 -266 -14 -71 18 -107 48 -140 117 -23 48 -57 61 -74 28z"/>
</g>
</svg>
