<svg xmlns="http://www.w3.org/2000/svg" width="300" height="300" viewBox="0 0 300 300">
<path d="M 134.32 113.28 L 133.89 114.16 C 133.48 115.01 133.84 116.03 134.69 116.44 C 135.54 116.85 136.57 116.50 136.98 115.64 L 137.40 114.77 C 137.81 113.92 137.45 112.89 136.60 112.48 C 135.75 112.07 134.73 112.43 134.32 113.28 Z M 133.90 114.15 L 133.47 115.03 C 133.05 115.88 133.40 116.90 134.25 117.32 C 135.09 117.74 136.12 117.39 136.54 116.54 L 136.97 115.66 C 137.39 114.81 137.04 113.78 136.19 113.37 C 135.34 112.95 134.32 113.30 133.90 114.15 Z M 133.48 115.01 L 133.02 115.91 C 132.59 116.75 132.93 117.78 133.77 118.21 C 134.61 118.63 135.63 118.30 136.06 117.46 L 136.52 116.56 C 136.95 115.72 136.62 114.69 135.78 114.26 C 134.94 113.84 133.91 114.17 133.48 115.01 Z M 133.04 115.88 L 132.57 116.75 C 132.12 117.58 132.44 118.61 133.27 119.06 C 134.10 119.51 135.13 119.19 135.58 118.36 L 136.05 117.49 C 136.49 116.66 136.18 115.63 135.35 115.18 C 134.52 114.74 133.49 115.05 133.04 115.88 Z M 132.59 116.72 L 132.18 117.45 C 131.72 118.27 132.01 119.31 132.83 119.77 C 133.65 120.23 134.69 119.94 135.15 119.12 L 135.56 118.39 C 136.02 117.57 135.73 116.53 134.91 116.07 C 134.09 115.61 133.05 115.90 132.59 116.72 Z M 132.19 117.43 L 131.74 118.21 C 131.27 119.02 131.55 120.07 132.37 120.54 C 133.18 121.01 134.23 120.73 134.70 119.91 L 135.14 119.13 C 135.61 118.32 135.33 117.27 134.52 116.80 C 133.70 116.33 132.66 116.62 132.19 117.43 Z M 131.74 118.20 L 131.25 119.06 C 130.77 119.88 131.05 120.92 131.87 121.39 C 132.68 121.87 133.73 121.59 134.20 120.77 L 134.69 119.91 C 135.17 119.10 134.89 118.05 134.07 117.58 C 133.26 117.11 132.21 117.39 131.74 118.20 Z M 131.24 119.07 L 130.69 120.04 C 130.22 120.86 130.50 121.90 131.31 122.37 C 132.13 122.84 133.17 122.55 133.64 121.74 L 134.20 120.77 C 134.67 119.95 134.39 118.91 133.57 118.44 C 132.76 117.97 131.71 118.25 131.24 119.07 Z M 130.68 120.05 L 130.10 121.08 C 129.63 121.90 129.92 122.94 130.74 123.40 C 131.56 123.87 132.60 123.58 133.07 122.76 L 133.65 121.73 C 134.11 120.91 133.82 119.87 133.00 119.40 C 132.18 118.94 131.14 119.23 130.68 120.05 Z M 130.09 121.09 L 129.63 121.92 C 129.17 122.75 129.46 123.78 130.28 124.24 C 131.11 124.70 132.15 124.41 132.60 123.58 L 133.07 122.75 C 133.53 121.93 133.23 120.89 132.41 120.43 C 131.59 119.97 130.55 120.26 130.09 121.09 Z M 129.62 121.93 L 129.13 122.82 C 128.68 123.64 128.98 124.68 129.80 125.13 C 130.63 125.59 131.67 125.29 132.12 124.46 L 132.61 123.58 C 133.06 122.75 132.76 121.71 131.94 121.26 C 131.11 120.80 130.08 121.10 129.62 121.93 Z M 129.13 122.82 L 128.63 123.74 C 128.18 124.57 128.48 125.61 129.31 126.06 C 130.14 126.51 131.17 126.20 131.62 125.37 L 132.12 124.46 C 132.58 123.63 132.27 122.59 131.44 122.14 C 130.61 121.69 129.58 122.00 129.13 122.82 Z M 128.62 123.75 L 128.12 124.67 C 127.68 125.51 127.99 126.54 128.82 126.99 C 129.65 127.43 130.68 127.12 131.13 126.29 L 131.63 125.37 C 132.08 124.54 131.77 123.50 130.94 123.05 C 130.11 122.61 129.07 122.92 128.62 123.75 Z M 128.12 124.68 L 127.63 125.60 C 127.19 126.43 127.51 127.46 128.34 127.91 C 129.17 128.35 130.21 128.03 130.65 127.20 L 131.14 126.29 C 131.58 125.45 131.26 124.42 130.43 123.98 C 129.60 123.53 128.56 123.85 128.12 124.68 Z M 127.63 125.61 L 127.17 126.49 C 126.73 127.33 127.05 128.36 127.89 128.80 C 128.72 129.23 129.76 128.91 130.19 128.07 L 130.65 127.19 C 131.09 126.36 130.77 125.32 129.93 124.89 C 129.10 124.45 128.06 124.77 127.63 125.61 Z M 127.16 126.50 L 126.73 127.33 C 126.30 128.17 126.63 129.20 127.47 129.63 C 128.31 130.06 129.34 129.73 129.77 128.89 L 130.20 128.06 C 130.63 127.22 130.30 126.19 129.46 125.76 C 128.62 125.33 127.59 125.66 127.16 126.50 Z M 126.72 127.35 L 126.17 128.46 C 125.75 129.31 126.10 130.33 126.94 130.75 C 127.79 131.17 128.81 130.83 129.23 129.98 L 129.78 128.87 C 130.20 128.03 129.86 127.00 129.01 126.58 C 128.17 126.16 127.14 126.51 126.72 127.35 Z M 126.16 128.49 L 125.68 129.50 C 125.28 130.35 125.65 131.37 126.50 131.77 C 127.36 132.17 128.37 131.81 128.78 130.95 L 129.25 129.95 C 129.65 129.10 129.28 128.08 128.43 127.68 C 127.58 127.27 126.56 127.64 126.16 128.49 Z M 125.66 129.54 L 125.28 130.42 C 124.90 131.28 125.29 132.29 126.16 132.67 C 127.02 133.05 128.03 132.66 128.41 131.79 L 128.80 130.91 C 129.17 130.05 128.78 129.04 127.92 128.66 C 127.05 128.28 126.04 128.67 125.66 129.54 Z M 125.26 130.47 L 124.94 131.26 C 124.59 132.13 125.01 133.13 125.89 133.48 C 126.77 133.83 127.76 133.41 128.11 132.53 L 128.43 131.74 C 128.78 130.87 128.36 129.87 127.48 129.52 C 126.61 129.17 125.61 129.59 125.26 130.47 Z M 124.92 131.31 L 124.62 132.15 C 124.30 133.04 124.76 134.02 125.64 134.34 C 126.53 134.66 127.51 134.20 127.83 133.31 L 128.13 132.48 C 128.45 131.59 128.00 130.61 127.11 130.29 C 126.22 129.97 125.24 130.43 124.92 131.31 Z M 124.58 132.28 L 124.26 133.42 C 124.01 134.33 124.55 135.27 125.45 135.52 C 126.36 135.77 127.30 135.24 127.55 134.33 L 127.87 133.18 C 128.12 132.28 127.59 131.34 126.68 131.09 C 125.77 130.84 124.83 131.37 124.58 132.28 Z M 124.21 133.88 L 124.21 134.75 C 124.21 135.69 124.98 136.45 125.92 136.45 C 126.86 136.44 127.61 135.68 127.61 134.74 L 127.61 133.87 C 127.60 132.93 126.84 132.17 125.90 132.18 C 124.96 132.18 124.21 132.94 124.21 133.88 Z M 124.77 135.99 L 125.25 136.43 C 125.94 137.07 127.01 137.02 127.64 136.33 C 128.27 135.64 128.22 134.57 127.53 133.94 L 127.05 133.50 C 126.37 132.87 125.30 132.91 124.66 133.60 C 124.03 134.29 124.08 135.36 124.77 135.99 Z M 126.38 136.87 L 127.28 136.88 C 128.21 136.88 128.97 136.14 128.98 135.21 C 128.99 134.28 128.24 133.52 127.31 133.51 L 126.41 133.50 C 125.48 133.50 124.72 134.24 124.71 135.17 C 124.70 136.10 125.45 136.86 126.38 136.87 Z M 127.74 136.80 L 128.86 136.50 C 129.75 136.25 130.27 135.33 130.02 134.44 C 129.78 133.55 128.86 133.03 127.97 133.28 L 126.85 133.59 C 125.96 133.83 125.44 134.75 125.69 135.64 C 125.93 136.53 126.85 137.05 127.74 136.80 Z M 129.10 136.40 L 130.06 135.96 C 130.89 135.58 131.26 134.60 130.88 133.76 C 130.50 132.93 129.52 132.56 128.69 132.94 L 127.73 133.37 C 126.89 133.75 126.52 134.74 126.90 135.57 C 127.28 136.41 128.26 136.78 129.10 136.40 Z M 130.22 135.88 L 131.07 135.37 C 131.86 134.90 132.12 133.88 131.65 133.10 C 131.18 132.31 130.17 132.05 129.38 132.52 L 128.52 133.03 C 127.74 133.49 127.48 134.51 127.95 135.30 C 128.41 136.09 129.43 136.34 130.22 135.88 Z M 131.18 135.30 L 132.00 134.72 C 132.75 134.20 132.93 133.16 132.40 132.42 C 131.88 131.67 130.84 131.49 130.10 132.01 L 129.28 132.59 C 128.53 133.11 128.35 134.15 128.87 134.89 C 129.40 135.64 130.43 135.82 131.18 135.30 Z M 132.06 134.68 L 132.91 134.02 C 133.63 133.47 133.77 132.43 133.21 131.70 C 132.65 130.98 131.61 130.84 130.88 131.40 L 130.04 132.06 C 129.31 132.61 129.18 133.65 129.74 134.38 C 130.29 135.10 131.33 135.24 132.06 134.68 Z M 132.89 134.05 L 133.80 133.37 C 134.54 132.83 134.69 131.78 134.15 131.04 C 133.60 130.30 132.56 130.15 131.82 130.70 L 130.90 131.37 C 130.16 131.92 130.01 132.97 130.56 133.70 C 131.11 134.44 132.15 134.60 132.89 134.05 Z M 133.54 133.55 L 134.36 133.15 C 135.20 132.75 135.55 131.74 135.15 130.91 C 134.74 130.07 133.74 129.72 132.90 130.12 L 132.08 130.52 C 131.24 130.92 130.89 131.93 131.29 132.77 C 131.70 133.60 132.70 133.95 133.54 133.55 Z M 133.36 133.31 L 134.03 133.42 C 134.95 133.57 135.82 132.95 135.98 132.03 C 136.13 131.10 135.50 130.23 134.58 130.08 L 133.91 129.97 C 132.99 129.82 132.11 130.44 131.96 131.36 C 131.81 132.28 132.43 133.16 133.36 133.31 Z M 132.90 132.70 L 133.36 133.38 C 133.88 134.15 134.94 134.36 135.71 133.83 C 136.49 133.31 136.69 132.25 136.17 131.47 L 135.71 130.80 C 135.19 130.02 134.13 129.82 133.35 130.34 C 132.58 130.87 132.37 131.93 132.90 132.70 Z M 133.08 132.67 L 133.25 133.79 C 133.39 134.72 134.25 135.36 135.17 135.22 C 136.10 135.09 136.74 134.22 136.61 133.30 L 136.44 132.18 C 136.30 131.25 135.44 130.61 134.52 130.75 C 133.59 130.88 132.95 131.75 133.08 132.67 Z M 133.24 133.35 L 133.12 134.43 C 133.01 135.36 133.68 136.20 134.61 136.31 C 135.54 136.42 136.38 135.75 136.49 134.82 L 136.61 133.74 C 136.72 132.81 136.05 131.96 135.12 131.86 C 134.19 131.75 133.35 132.42 133.24 133.35 Z M 133.16 134.19 L 132.92 135.11 C 132.69 136.01 133.23 136.94 134.13 137.18 C 135.04 137.42 135.97 136.87 136.20 135.97 L 136.44 135.05 C 136.68 134.15 136.14 133.22 135.23 132.98 C 134.33 132.75 133.40 133.29 133.16 134.19 Z M 132.96 134.98 L 132.63 135.94 C 132.32 136.82 132.79 137.79 133.68 138.10 C 134.56 138.40 135.53 137.93 135.84 137.05 L 136.17 136.09 C 136.47 135.21 136.00 134.24 135.12 133.93 C 134.23 133.63 133.27 134.10 132.96 134.98 Z M 132.66 135.86 L 132.27 136.84 C 131.92 137.70 132.34 138.69 133.21 139.04 C 134.08 139.39 135.07 138.97 135.41 138.10 L 135.81 137.13 C 136.16 136.26 135.73 135.27 134.87 134.92 C 134.00 134.57 133.01 134.99 132.66 135.86 Z M 132.29 136.79 L 131.87 137.75 C 131.49 138.61 131.89 139.61 132.74 139.99 C 133.60 140.36 134.60 139.97 134.98 139.11 L 135.40 138.15 C 135.77 137.29 135.38 136.29 134.52 135.91 C 133.66 135.54 132.66 135.93 132.29 136.79 Z M 131.88 137.73 L 131.46 138.66 C 131.07 139.52 131.46 140.52 132.31 140.90 C 133.16 141.29 134.17 140.91 134.55 140.05 L 134.97 139.13 C 135.35 138.27 134.97 137.27 134.12 136.88 C 133.26 136.50 132.26 136.88 131.88 137.73 Z M 131.46 138.66 L 131.06 139.55 C 130.67 140.41 131.05 141.41 131.90 141.80 C 132.76 142.18 133.76 141.80 134.15 140.95 L 134.55 140.06 C 134.94 139.20 134.56 138.20 133.70 137.81 C 132.85 137.43 131.85 137.80 131.46 138.66 Z M 131.05 139.56 L 130.66 140.45 C 130.27 141.30 130.66 142.31 131.51 142.69 C 132.37 143.07 133.37 142.69 133.75 141.83 L 134.15 140.94 C 134.53 140.09 134.15 139.09 133.29 138.70 C 132.44 138.32 131.44 138.70 131.05 139.56 Z M 130.65 140.46 L 130.25 141.37 C 129.88 142.23 130.27 143.23 131.13 143.60 C 131.99 143.98 132.99 143.58 133.36 142.72 L 133.76 141.82 C 134.13 140.96 133.74 139.96 132.88 139.59 C 132.02 139.21 131.02 139.60 130.65 140.46 Z M 130.24 141.39 L 129.85 142.34 C 129.48 143.21 129.89 144.20 130.75 144.56 C 131.62 144.92 132.61 144.52 132.97 143.65 L 133.37 142.70 C 133.73 141.84 133.33 140.85 132.46 140.48 C 131.60 140.12 130.61 140.53 130.24 141.39 Z M 129.83 142.37 L 129.45 143.32 C 129.11 144.19 129.53 145.17 130.40 145.52 C 131.27 145.87 132.25 145.45 132.60 144.58 L 132.98 143.63 C 133.33 142.76 132.91 141.77 132.04 141.42 C 131.17 141.07 130.18 141.50 129.83 142.37 Z M 129.44 143.34 L 129.07 144.31 C 128.74 145.18 129.17 146.17 130.05 146.50 C 130.93 146.84 131.91 146.40 132.24 145.52 L 132.61 144.55 C 132.95 143.68 132.51 142.70 131.64 142.36 C 130.76 142.03 129.78 142.46 129.44 143.34 Z M 129.06 144.33 L 128.70 145.32 C 128.38 146.20 128.84 147.17 129.72 147.49 C 130.60 147.82 131.57 147.36 131.90 146.48 L 132.25 145.50 C 132.58 144.62 132.12 143.64 131.24 143.32 C 130.36 143.00 129.38 143.45 129.06 144.33 Z M 128.69 145.34 L 128.36 146.31 C 128.05 147.20 128.52 148.16 129.41 148.47 C 130.30 148.78 131.27 148.30 131.57 147.42 L 131.91 146.45 C 132.21 145.56 131.74 144.60 130.85 144.29 C 129.97 143.98 129.00 144.46 128.69 145.34 Z M 128.35 146.34 L 128.05 147.26 C 127.77 148.15 128.26 149.11 129.15 149.40 C 130.05 149.68 131.01 149.19 131.29 148.30 L 131.59 147.38 C 131.87 146.49 131.38 145.53 130.49 145.24 C 129.59 144.95 128.63 145.45 128.35 146.34 Z M 128.03 147.31 L 127.74 148.36 C 127.48 149.27 128.01 150.21 128.91 150.47 C 129.82 150.72 130.76 150.20 131.02 149.29 L 131.31 148.24 C 131.57 147.34 131.04 146.39 130.14 146.14 C 129.23 145.88 128.29 146.41 128.03 147.31 Z M 127.70 148.51 L 127.48 149.68 C 127.30 150.61 127.91 151.50 128.83 151.68 C 129.76 151.85 130.65 151.25 130.83 150.32 L 131.05 149.15 C 131.23 148.22 130.62 147.33 129.70 147.15 C 128.77 146.98 127.88 147.58 127.70 148.51 Z M 127.45 150.09 L 127.49 150.95 C 127.54 151.89 128.34 152.61 129.28 152.56 C 130.21 152.52 130.94 151.72 130.89 150.78 L 130.85 149.92 C 130.81 148.98 130.01 148.26 129.07 148.30 C 128.13 148.35 127.41 149.15 127.45 150.09 Z M 127.82 151.86 L 128.21 152.41 C 128.77 153.17 129.83 153.33 130.59 152.78 C 131.35 152.23 131.52 151.17 130.96 150.41 L 130.57 149.86 C 130.02 149.11 128.95 148.94 128.19 149.49 C 127.43 150.04 127.27 151.10 127.82 151.86 Z M 129.21 153.06 L 130.06 153.25 C 130.97 153.46 131.88 152.89 132.09 151.98 C 132.30 151.07 131.73 150.16 130.81 149.95 L 129.96 149.76 C 129.05 149.55 128.15 150.12 127.94 151.03 C 127.73 151.94 128.30 152.85 129.21 153.06 Z M 130.67 153.27 L 131.76 153.11 C 132.68 152.98 133.32 152.13 133.19 151.22 C 133.06 150.30 132.21 149.66 131.29 149.78 L 130.21 149.94 C 129.29 150.07 128.65 150.92 128.77 151.83 C 128.90 152.75 129.75 153.39 130.67 153.27 Z M 132.07 153.03 L 133.06 152.69 C 133.93 152.39 134.39 151.44 134.09 150.56 C 133.79 149.69 132.84 149.23 131.96 149.53 L 130.98 149.87 C 130.11 150.17 129.64 151.12 129.95 151.99 C 130.25 152.87 131.20 153.33 132.07 153.03 Z M 133.25 152.60 L 134.13 152.17 C 134.95 151.76 135.29 150.76 134.88 149.94 C 134.47 149.11 133.47 148.77 132.65 149.18 L 131.77 149.61 C 130.95 150.02 130.61 151.02 131.02 151.85 C 131.42 152.67 132.42 153.01 133.25 152.60 Z M 134.24 152.10 L 135.11 151.58 C 135.90 151.11 136.16 150.09 135.69 149.30 C 135.21 148.51 134.19 148.26 133.40 148.73 L 132.53 149.25 C 131.74 149.72 131.49 150.74 131.96 151.53 C 132.43 152.32 133.45 152.57 134.24 152.10 Z M 135.16 151.55 L 136.01 150.99 C 136.78 150.49 137.00 149.46 136.50 148.69 C 136.00 147.93 134.97 147.71 134.20 148.21 L 133.35 148.76 C 132.58 149.27 132.37 150.29 132.87 151.06 C 133.37 151.83 134.40 152.05 135.16 151.55 Z M 136.03 150.98 L 136.83 150.44 C 137.59 149.93 137.80 148.90 137.29 148.14 C 136.78 147.38 135.75 147.18 134.99 147.69 L 134.18 148.23 C 133.42 148.74 133.22 149.76 133.73 150.52 C 134.24 151.28 135.27 151.49 136.03 150.98 Z M 136.83 150.44 L 137.66 149.88 C 138.42 149.37 138.62 148.34 138.11 147.58 C 137.60 146.83 136.57 146.62 135.82 147.13 L 134.99 147.69 C 134.23 148.20 134.03 149.23 134.54 149.98 C 135.05 150.74 136.07 150.94 136.83 150.44 Z M 137.65 149.88 L 138.51 149.31 C 139.27 148.81 139.48 147.79 138.98 147.03 C 138.47 146.27 137.45 146.06 136.69 146.56 L 135.83 147.13 C 135.07 147.63 134.86 148.65 135.36 149.41 C 135.86 150.17 136.89 150.38 137.65 149.88 Z M 138.48 149.33 L 139.35 148.78 C 140.11 148.29 140.34 147.27 139.85 146.50 C 139.36 145.74 138.34 145.51 137.58 146.00 L 136.72 146.55 C 135.95 147.04 135.72 148.05 136.21 148.82 C 136.70 149.59 137.72 149.81 138.48 149.33 Z M 139.31 148.80 L 140.18 148.27 C 140.96 147.80 141.21 146.79 140.74 146.01 C 140.27 145.24 139.26 144.99 138.48 145.46 L 137.61 145.98 C 136.83 146.45 136.58 147.46 137.05 148.24 C 137.52 149.02 138.53 149.27 139.31 148.80 Z M 140.13 148.30 L 141.01 147.81 C 141.81 147.36 142.09 146.36 141.65 145.57 C 141.20 144.78 140.20 144.49 139.41 144.94 L 138.53 145.43 C 137.74 145.87 137.45 146.87 137.90 147.67 C 138.34 148.46 139.34 148.74 140.13 148.30 Z M 140.95 147.84 L 141.83 147.40 C 142.64 146.99 142.97 146.00 142.56 145.19 C 142.15 144.38 141.17 144.05 140.36 144.46 L 139.47 144.90 C 138.66 145.31 138.34 146.30 138.74 147.11 C 139.15 147.92 140.14 148.25 140.95 147.84 Z M 141.72 147.44 L 142.77 147.01 C 143.61 146.66 144.00 145.70 143.65 144.86 C 143.30 144.03 142.34 143.63 141.50 143.98 L 140.46 144.41 C 139.62 144.76 139.23 145.72 139.58 146.56 C 139.93 147.40 140.89 147.79 141.72 147.44 Z M 142.54 147.08 L 143.58 146.82 C 144.46 146.59 144.99 145.70 144.76 144.82 C 144.54 143.95 143.65 143.42 142.77 143.64 L 141.73 143.91 C 140.85 144.13 140.32 145.02 140.55 145.90 C 140.77 146.78 141.67 147.31 142.54 147.08 Z M 143.04 146.86 L 143.88 146.93 C 144.78 147.01 145.57 146.33 145.64 145.43 C 145.72 144.53 145.05 143.74 144.15 143.67 L 143.31 143.60 C 142.41 143.52 141.62 144.19 141.54 145.09 C 141.47 146.00 142.14 146.79 143.04 146.86 Z M 142.90 146.49 L 143.44 146.99 C 144.09 147.61 145.13 147.57 145.74 146.91 C 146.36 146.25 146.32 145.22 145.66 144.61 L 145.13 144.10 C 144.47 143.49 143.43 143.53 142.82 144.18 C 142.20 144.84 142.24 145.88 142.90 146.49 Z M 142.98 146.22 L 143.22 147.10 C 143.45 147.97 144.34 148.48 145.20 148.25 C 146.07 148.02 146.58 147.13 146.35 146.26 L 146.12 145.38 C 145.89 144.52 145.00 144.00 144.13 144.23 C 143.26 144.46 142.75 145.35 142.98 146.22 Z M 143.17 146.64 L 143.15 147.77 C 143.13 148.66 143.83 149.40 144.72 149.42 C 145.61 149.44 146.35 148.73 146.37 147.84 L 146.40 146.72 C 146.42 145.83 145.71 145.09 144.82 145.07 C 143.93 145.05 143.19 145.75 143.17 146.64 Z M 143.19 147.50 L 142.98 148.56 C 142.81 149.42 143.38 150.26 144.25 150.43 C 145.12 150.60 145.96 150.03 146.13 149.16 L 146.33 148.11 C 146.50 147.24 145.93 146.40 145.06 146.24 C 144.19 146.07 143.35 146.63 143.19 147.50 Z M 143.03 148.39 L 142.74 149.34 C 142.48 150.17 142.95 151.07 143.79 151.32 C 144.63 151.58 145.52 151.11 145.78 150.27 L 146.07 149.33 C 146.33 148.49 145.86 147.60 145.02 147.34 C 144.18 147.08 143.29 147.55 143.03 148.39 Z M 142.79 149.23 L 142.42 150.17 C 142.10 150.99 142.51 151.90 143.32 152.22 C 144.13 152.54 145.05 152.14 145.37 151.32 L 145.74 150.38 C 146.05 149.57 145.65 148.65 144.84 148.33 C 144.02 148.01 143.11 148.42 142.79 149.23 Z M 142.46 150.10 L 142.04 151.03 C 141.69 151.82 142.04 152.75 142.83 153.11 C 143.62 153.46 144.55 153.11 144.91 152.32 L 145.33 151.39 C 145.68 150.60 145.33 149.67 144.54 149.32 C 143.75 148.96 142.82 149.31 142.46 150.10 Z M 142.07 150.99 L 141.63 151.89 C 141.25 152.67 141.57 153.60 142.35 153.98 C 143.12 154.36 144.06 154.04 144.44 153.27 L 144.88 152.36 C 145.26 151.59 144.94 150.65 144.17 150.27 C 143.39 149.89 142.45 150.21 142.07 150.99 Z M 141.65 151.86 L 141.19 152.74 C 140.79 153.50 141.09 154.44 141.85 154.84 C 142.62 155.24 143.56 154.94 143.96 154.18 L 144.42 153.30 C 144.82 152.54 144.52 151.59 143.76 151.19 C 142.99 150.80 142.05 151.09 141.65 151.86 Z M 141.21 152.71 L 140.73 153.57 C 140.32 154.33 140.59 155.28 141.35 155.69 C 142.10 156.11 143.05 155.83 143.47 155.08 L 143.94 154.21 C 144.36 153.45 144.08 152.51 143.33 152.09 C 142.57 151.67 141.62 151.95 141.21 152.71 Z M 140.75 153.55 L 140.25 154.42 C 139.82 155.16 140.08 156.12 140.82 156.55 C 141.57 156.98 142.52 156.72 142.95 155.97 L 143.45 155.10 C 143.88 154.35 143.62 153.40 142.88 152.97 C 142.13 152.54 141.17 152.80 140.75 153.55 Z M 140.26 154.40 L 139.75 155.25 C 139.31 155.99 139.56 156.95 140.30 157.39 C 141.04 157.83 142.00 157.58 142.44 156.84 L 142.94 155.99 C 143.38 155.25 143.14 154.29 142.39 153.85 C 141.65 153.41 140.70 153.66 140.26 154.40 Z M 139.76 155.24 L 139.25 156.08 C 138.81 156.81 139.04 157.77 139.78 158.22 C 140.52 158.67 141.48 158.43 141.93 157.69 L 142.43 156.85 C 142.88 156.12 142.64 155.16 141.90 154.71 C 141.16 154.26 140.20 154.50 139.76 155.24 Z M 139.26 156.07 L 138.73 156.92 C 138.28 157.66 138.52 158.62 139.25 159.07 C 139.99 159.52 140.95 159.29 141.40 158.55 L 141.92 157.70 C 142.37 156.96 142.14 156.00 141.40 155.55 C 140.67 155.10 139.71 155.33 139.26 156.07 Z M 138.74 156.92 L 138.20 157.78 C 137.75 158.52 137.98 159.48 138.71 159.93 C 139.44 160.39 140.41 160.16 140.86 159.43 L 141.39 158.56 C 141.85 157.83 141.62 156.86 140.89 156.41 C 140.15 155.96 139.19 156.18 138.74 156.92 Z M 138.20 157.78 L 137.71 158.57 C 137.26 159.31 137.49 160.27 138.22 160.72 C 138.95 161.18 139.91 160.95 140.37 160.22 L 140.86 159.43 C 141.31 158.70 141.09 157.73 140.35 157.28 C 139.62 156.82 138.66 157.05 138.20 157.78 Z"
      fill="black"
      fill-rule="nonzero" /><path d="M 125.54 181.97 L 126.30 181.35 C 127.05 180.75 127.16 179.66 126.56 178.92 C 125.96 178.18 124.87 178.06 124.13 178.66 L 123.37 179.27 C 122.62 179.87 122.51 180.96 123.11 181.71 C 123.70 182.45 124.79 182.57 125.54 181.97 Z M 126.29 181.38 L 127.07 180.77 C 127.82 180.18 127.96 179.08 127.37 178.32 C 126.77 177.57 125.68 177.43 124.92 178.03 L 124.14 178.64 C 123.39 179.23 123.25 180.32 123.84 181.08 C 124.44 181.84 125.53 181.97 126.29 181.38 Z M 127.03 180.81 L 127.85 180.21 C 128.62 179.63 128.79 178.54 128.21 177.76 C 127.64 176.98 126.55 176.82 125.77 177.39 L 124.96 177.99 C 124.18 178.56 124.01 179.66 124.59 180.44 C 125.16 181.21 126.26 181.38 127.03 180.81 Z M 127.79 180.25 L 128.64 179.68 C 129.44 179.14 129.65 178.04 129.10 177.24 C 128.56 176.44 127.47 176.23 126.66 176.77 L 125.82 177.34 C 125.02 177.89 124.81 178.98 125.35 179.78 C 125.90 180.59 126.99 180.80 127.79 180.25 Z M 128.58 179.72 L 129.43 179.19 C 130.26 178.68 130.51 177.60 130.00 176.77 C 129.49 175.94 128.40 175.69 127.58 176.20 L 126.72 176.73 C 125.89 177.24 125.64 178.33 126.15 179.16 C 126.66 179.98 127.75 180.24 128.58 179.72 Z M 129.39 179.22 L 130.26 178.72 C 131.11 178.23 131.39 177.15 130.91 176.31 C 130.42 175.47 129.34 175.18 128.50 175.66 L 127.62 176.17 C 126.78 176.66 126.49 177.73 126.98 178.58 C 127.46 179.42 128.54 179.71 129.39 179.22 Z M 130.23 178.74 L 131.10 178.26 C 131.96 177.79 132.27 176.72 131.81 175.87 C 131.34 175.01 130.27 174.70 129.41 175.16 L 128.54 175.64 C 127.68 176.11 127.37 177.18 127.83 178.03 C 128.30 178.89 129.37 179.21 130.23 178.74 Z M 131.07 178.28 L 131.91 177.84 C 132.78 177.39 133.11 176.32 132.66 175.46 C 132.21 174.60 131.15 174.26 130.28 174.71 L 129.44 175.15 C 128.58 175.60 128.25 176.66 128.70 177.53 C 129.15 178.39 130.21 178.73 131.07 178.28 Z M 131.89 177.84 L 132.71 177.43 C 133.57 176.99 133.92 175.93 133.48 175.07 C 133.04 174.20 131.99 173.86 131.12 174.29 L 130.31 174.71 C 129.44 175.14 129.10 176.20 129.53 177.07 C 129.97 177.93 131.03 178.28 131.89 177.84 Z M 132.69 177.42 L 133.55 177.00 C 134.41 176.57 134.77 175.52 134.34 174.66 C 133.91 173.79 132.86 173.44 131.99 173.87 L 131.14 174.30 C 130.27 174.73 129.92 175.78 130.35 176.64 C 130.78 177.50 131.83 177.85 132.69 177.42 Z M 133.55 176.99 L 134.50 176.51 C 135.35 176.09 135.70 175.04 135.27 174.18 C 134.85 173.33 133.80 172.98 132.94 173.41 L 132.00 173.88 C 131.14 174.31 130.79 175.35 131.22 176.21 C 131.65 177.07 132.69 177.42 133.55 176.99 Z M 134.50 176.50 L 135.44 176.02 C 136.30 175.59 136.64 174.55 136.20 173.70 C 135.77 172.85 134.74 172.51 133.89 172.94 L 132.94 173.42 C 132.09 173.85 131.75 174.89 132.18 175.74 C 132.61 176.59 133.65 176.93 134.50 176.50 Z M 135.45 176.01 L 136.29 175.58 C 137.13 175.15 137.46 174.11 137.03 173.27 C 136.60 172.43 135.57 172.09 134.73 172.53 L 133.88 172.96 C 133.04 173.39 132.71 174.42 133.14 175.26 C 133.57 176.11 134.60 176.44 135.45 176.01 Z M 136.29 175.56 L 137.18 175.10 C 138.01 174.67 138.34 173.65 137.91 172.81 C 137.48 171.98 136.46 171.65 135.62 172.08 L 134.73 172.54 C 133.89 172.97 133.56 173.99 133.99 174.83 C 134.42 175.66 135.45 175.99 136.29 175.56 Z M 137.17 175.09 L 138.09 174.62 C 138.92 174.19 139.25 173.17 138.82 172.34 C 138.40 171.52 137.38 171.19 136.55 171.62 L 135.63 172.09 C 134.80 172.52 134.47 173.53 134.90 174.36 C 135.32 175.19 136.34 175.52 137.17 175.09 Z M 138.09 174.61 L 139.01 174.13 C 139.84 173.71 140.16 172.70 139.74 171.88 C 139.32 171.06 138.31 170.73 137.49 171.15 L 136.56 171.62 C 135.74 172.05 135.41 173.06 135.83 173.88 C 136.25 174.70 137.26 175.03 138.09 174.61 Z M 139.00 174.13 L 139.91 173.67 C 140.73 173.25 141.06 172.25 140.64 171.43 C 140.23 170.61 139.23 170.28 138.41 170.70 L 137.50 171.16 C 136.68 171.57 136.35 172.57 136.77 173.39 C 137.18 174.21 138.18 174.54 139.00 174.13 Z M 139.89 173.66 L 140.86 173.18 C 141.67 172.77 142.01 171.78 141.60 170.97 C 141.20 170.15 140.21 169.82 139.39 170.23 L 138.43 170.71 C 137.61 171.11 137.28 172.10 137.68 172.92 C 138.09 173.73 139.08 174.06 139.89 173.66 Z M 140.84 173.17 L 141.79 172.71 C 142.60 172.31 142.94 171.34 142.55 170.53 C 142.15 169.72 141.18 169.38 140.37 169.77 L 139.41 170.23 C 138.60 170.63 138.26 171.60 138.66 172.41 C 139.05 173.22 140.03 173.56 140.84 173.17 Z M 141.77 172.70 L 142.67 172.27 C 143.48 171.89 143.82 170.93 143.44 170.12 C 143.07 169.32 142.10 168.97 141.30 169.35 L 140.39 169.78 C 139.59 170.16 139.24 171.12 139.62 171.93 C 140.00 172.73 140.96 173.08 141.77 172.70 Z M 142.64 172.26 L 143.52 171.87 C 144.32 171.50 144.67 170.56 144.31 169.76 C 143.94 168.96 143.00 168.60 142.20 168.96 L 141.33 169.36 C 140.52 169.72 140.17 170.67 140.53 171.47 C 140.90 172.27 141.84 172.63 142.64 172.26 Z M 143.48 171.86 L 144.33 171.49 C 145.13 171.15 145.50 170.22 145.15 169.42 C 144.80 168.62 143.87 168.26 143.07 168.60 L 142.23 168.97 C 141.43 169.32 141.06 170.25 141.41 171.04 C 141.76 171.84 142.69 172.21 143.48 171.86 Z M 144.30 171.50 L 145.22 171.11 C 146.02 170.78 146.40 169.87 146.07 169.07 C 145.74 168.27 144.82 167.89 144.03 168.22 L 143.10 168.60 C 142.31 168.93 141.93 169.85 142.26 170.65 C 142.59 171.45 143.50 171.83 144.30 171.50 Z M 145.20 171.12 L 146.14 170.75 C 146.94 170.44 147.33 169.53 147.02 168.73 C 146.70 167.92 145.79 167.53 144.99 167.84 L 144.05 168.21 C 143.25 168.53 142.85 169.44 143.17 170.24 C 143.49 171.04 144.39 171.44 145.20 171.12 Z M 146.12 170.76 L 147.05 170.41 C 147.85 170.10 148.26 169.20 147.95 168.39 C 147.65 167.58 146.75 167.18 145.94 167.48 L 145.01 167.84 C 144.20 168.14 143.80 169.05 144.10 169.85 C 144.41 170.66 145.31 171.06 146.12 170.76 Z M 147.03 170.41 L 147.96 170.07 C 148.77 169.77 149.18 168.87 148.88 168.06 C 148.58 167.25 147.68 166.84 146.88 167.14 L 145.95 167.48 C 145.14 167.78 144.73 168.68 145.03 169.49 C 145.33 170.30 146.23 170.71 147.03 170.41 Z M 147.96 170.07 L 148.46 169.88 C 149.27 169.58 149.69 168.69 149.39 167.88 C 149.09 167.07 148.20 166.65 147.39 166.95 L 146.88 167.14 C 146.07 167.43 145.66 168.33 145.95 169.14 C 146.25 169.95 147.15 170.37 147.96 170.07 Z"
      fill="black"
      fill-rule="nonzero" /><path d="M 167.59 94.22 L 166.73 94.74 C 165.90 95.23 165.63 96.30 166.13 97.13 C 166.62 97.96 167.69 98.22 168.52 97.73 L 169.38 97.21 C 170.21 96.72 170.47 95.65 169.98 94.82 C 169.48 93.99 168.41 93.73 167.59 94.22 Z M 166.68 94.77 L 165.84 95.31 C 165.03 95.83 164.80 96.91 165.32 97.72 C 165.84 98.53 166.92 98.76 167.73 98.24 L 168.57 97.70 C 169.38 97.17 169.61 96.09 169.09 95.29 C 168.56 94.48 167.48 94.24 166.68 94.77 Z M 165.74 95.38 L 164.94 95.98 C 164.17 96.55 164.01 97.65 164.59 98.42 C 165.17 99.19 166.26 99.34 167.03 98.77 L 167.83 98.17 C 168.60 97.59 168.75 96.50 168.18 95.73 C 167.60 94.96 166.51 94.80 165.74 95.38 Z M 164.81 96.09 L 164.10 96.73 C 163.39 97.38 163.35 98.48 163.99 99.19 C 164.64 99.90 165.75 99.95 166.45 99.30 L 167.16 98.66 C 167.87 98.01 167.92 96.91 167.27 96.20 C 166.62 95.49 165.52 95.44 164.81 96.09 Z M 163.98 96.86 L 163.35 97.57 C 162.71 98.29 162.77 99.39 163.48 100.03 C 164.20 100.67 165.30 100.61 165.94 99.89 L 166.57 99.18 C 167.22 98.46 167.15 97.36 166.44 96.72 C 165.72 96.08 164.62 96.14 163.98 96.86 Z M 163.26 97.68 L 162.65 98.48 C 162.07 99.24 162.22 100.33 162.98 100.91 C 163.75 101.49 164.84 101.35 165.42 100.58 L 166.02 99.78 C 166.60 99.02 166.46 97.93 165.69 97.35 C 164.93 96.77 163.84 96.92 163.26 97.68 Z M 162.59 98.57 L 161.99 99.46 C 161.46 100.26 161.67 101.34 162.47 101.87 C 163.27 102.40 164.34 102.19 164.88 101.39 L 165.48 100.50 C 166.01 99.70 165.79 98.62 165.00 98.09 C 164.20 97.56 163.12 97.77 162.59 98.57 Z M 161.96 99.52 L 161.46 100.33 C 160.96 101.14 161.22 102.21 162.03 102.71 C 162.85 103.21 163.92 102.95 164.42 102.14 L 164.91 101.33 C 165.41 100.52 165.16 99.45 164.34 98.95 C 163.53 98.45 162.46 98.70 161.96 99.52 Z M 161.44 100.37 L 160.95 101.23 C 160.47 102.06 160.76 103.11 161.59 103.59 C 162.42 104.07 163.47 103.78 163.95 102.95 L 164.44 102.10 C 164.92 101.27 164.63 100.21 163.80 99.73 C 162.97 99.25 161.91 99.54 161.44 100.37 Z M 160.93 101.27 L 160.44 102.16 C 159.99 103.00 160.30 104.05 161.14 104.51 C 161.98 104.96 163.03 104.65 163.49 103.81 L 163.97 102.91 C 164.43 102.07 164.11 101.02 163.27 100.57 C 162.43 100.11 161.38 100.43 160.93 101.27 Z M 160.42 102.20 L 159.95 103.12 C 159.52 103.98 159.86 105.02 160.71 105.45 C 161.57 105.88 162.61 105.54 163.04 104.69 L 163.51 103.77 C 163.94 102.91 163.60 101.87 162.75 101.44 C 161.90 101.01 160.85 101.35 160.42 102.20 Z M 159.94 103.16 L 159.49 104.10 C 159.08 104.96 159.45 105.99 160.31 106.40 C 161.17 106.81 162.20 106.44 162.61 105.58 L 163.06 104.65 C 163.47 103.79 163.10 102.76 162.24 102.35 C 161.38 101.94 160.35 102.30 159.94 103.16 Z M 159.48 104.14 L 159.06 105.07 C 158.67 105.94 159.06 106.96 159.94 107.35 C 160.81 107.74 161.83 107.35 162.22 106.47 L 162.63 105.54 C 163.02 104.67 162.63 103.65 161.76 103.26 C 160.88 102.87 159.86 103.26 159.48 104.14 Z M 159.04 105.11 L 158.66 106.04 C 158.29 106.92 158.71 107.93 159.59 108.30 C 160.47 108.66 161.48 108.25 161.85 107.37 L 162.23 106.43 C 162.60 105.55 162.18 104.54 161.30 104.18 C 160.42 103.81 159.41 104.23 159.04 105.11 Z M 158.64 106.08 L 158.28 107.00 C 157.94 107.89 158.38 108.89 159.27 109.24 C 160.16 109.58 161.16 109.14 161.50 108.25 L 161.86 107.33 C 162.21 106.44 161.76 105.44 160.87 105.09 C 159.98 104.75 158.99 105.19 158.64 106.08 Z M 158.27 107.04 L 157.94 107.96 C 157.62 108.85 158.09 109.84 158.99 110.16 C 159.88 110.48 160.87 110.02 161.19 109.12 L 161.52 108.21 C 161.84 107.31 161.37 106.32 160.48 106.00 C 159.58 105.68 158.59 106.15 158.27 107.04 Z M 157.93 108.00 L 157.61 109.00 C 157.31 109.90 157.81 110.87 158.71 111.17 C 159.62 111.46 160.59 110.97 160.88 110.06 L 161.21 109.07 C 161.50 108.17 161.01 107.19 160.10 106.90 C 159.20 106.60 158.22 107.10 157.93 108.00 Z M 157.59 109.06 L 157.31 110.03 C 157.05 110.95 157.58 111.90 158.50 112.16 C 159.41 112.42 160.36 111.89 160.62 110.97 L 160.90 110.00 C 161.16 109.09 160.63 108.13 159.72 107.88 C 158.80 107.62 157.85 108.15 157.59 109.06 Z M 157.29 110.11 L 157.07 111.07 C 156.86 111.99 157.43 112.92 158.35 113.13 C 159.28 113.35 160.20 112.78 160.42 111.85 L 160.64 110.89 C 160.86 109.97 160.28 109.05 159.36 108.83 C 158.43 108.61 157.51 109.19 157.29 110.11 Z M 157.05 111.17 L 156.89 112.11 C 156.73 113.05 157.35 113.93 158.29 114.10 C 159.22 114.26 160.11 113.63 160.27 112.70 L 160.44 111.75 C 160.60 110.82 159.97 109.93 159.04 109.77 C 158.10 109.61 157.22 110.23 157.05 111.17 Z M 156.88 112.25 L 156.77 113.38 C 156.69 114.32 157.38 115.15 158.32 115.24 C 159.26 115.33 160.10 114.63 160.18 113.69 L 160.29 112.56 C 160.37 111.62 159.68 110.79 158.74 110.70 C 157.80 110.61 156.96 111.31 156.88 112.25 Z M 156.77 113.62 L 156.82 114.65 C 156.87 115.59 157.67 116.31 158.61 116.27 C 159.55 116.22 160.28 115.42 160.23 114.48 L 160.18 113.45 C 160.13 112.51 159.33 111.78 158.39 111.83 C 157.45 111.88 156.73 112.68 156.77 113.62 Z M 156.90 115.07 L 157.17 115.91 C 157.45 116.80 158.40 117.30 159.30 117.02 C 160.19 116.74 160.69 115.79 160.41 114.89 L 160.15 114.06 C 159.87 113.16 158.92 112.66 158.02 112.94 C 157.12 113.22 156.62 114.17 156.90 115.07 Z M 157.57 116.58 L 158.16 117.18 C 158.81 117.86 159.88 117.87 160.55 117.23 C 161.22 116.58 161.24 115.50 160.59 114.83 L 160.01 114.23 C 159.36 113.55 158.29 113.54 157.61 114.18 C 156.94 114.83 156.92 115.91 157.57 116.58 Z M 158.81 117.59 L 159.70 117.91 C 160.58 118.22 161.54 117.77 161.85 116.89 C 162.17 116.02 161.71 115.06 160.84 114.75 L 159.94 114.43 C 159.07 114.11 158.11 114.57 157.79 115.44 C 157.48 116.32 157.94 117.28 158.81 117.59 Z M 160.09 117.99 L 161.17 118.11 C 162.09 118.21 162.91 117.55 163.01 116.63 C 163.11 115.72 162.45 114.89 161.54 114.79 L 160.45 114.67 C 159.54 114.57 158.71 115.23 158.61 116.15 C 158.51 117.06 159.17 117.88 160.09 117.99 Z M 161.31 118.11 L 162.30 118.13 C 163.22 118.15 163.98 117.43 164.00 116.51 C 164.02 115.59 163.30 114.83 162.38 114.81 L 161.39 114.79 C 160.48 114.77 159.72 115.49 159.70 116.41 C 159.67 117.33 160.40 118.08 161.31 118.11 Z M 162.41 118.12 L 163.40 118.08 C 164.31 118.05 165.02 117.28 164.98 116.37 C 164.95 115.45 164.18 114.74 163.27 114.78 L 162.28 114.82 C 161.37 114.86 160.66 115.63 160.69 116.54 C 160.73 117.45 161.50 118.16 162.41 118.12 Z M 163.53 118.07 L 164.54 117.95 C 165.44 117.84 166.09 117.02 165.98 116.11 C 165.87 115.21 165.05 114.57 164.14 114.67 L 163.13 114.80 C 162.23 114.90 161.59 115.73 161.70 116.63 C 161.81 117.53 162.63 118.18 163.53 118.07 Z M 164.69 117.92 L 165.65 117.71 C 166.53 117.51 167.10 116.64 166.90 115.75 C 166.71 114.87 165.83 114.30 164.95 114.50 L 163.99 114.70 C 163.10 114.90 162.54 115.77 162.74 116.66 C 162.93 117.55 163.80 118.11 164.69 117.92 Z M 165.79 117.67 L 166.63 117.40 C 167.49 117.13 167.97 116.21 167.70 115.34 C 167.43 114.48 166.50 114.00 165.64 114.27 L 164.80 114.54 C 163.94 114.81 163.46 115.73 163.73 116.60 C 164.01 117.46 164.93 117.94 165.79 117.67 Z M 166.74 117.36 L 167.61 117.01 C 168.46 116.68 168.87 115.73 168.53 114.89 C 168.20 114.04 167.25 113.63 166.41 113.97 L 165.53 114.31 C 164.69 114.65 164.28 115.60 164.61 116.44 C 164.94 117.28 165.90 117.70 166.74 117.36 Z M 167.70 116.98 L 168.64 116.54 C 169.47 116.16 169.83 115.19 169.45 114.37 C 169.07 113.55 168.10 113.19 167.27 113.57 L 166.33 114.00 C 165.50 114.38 165.14 115.35 165.52 116.18 C 165.90 117.00 166.87 117.36 167.70 116.98 Z M 168.70 116.52 L 169.75 115.99 C 170.55 115.58 170.88 114.59 170.47 113.79 C 170.06 112.98 169.08 112.66 168.27 113.06 L 167.22 113.59 C 166.42 114.00 166.09 114.98 166.50 115.79 C 166.90 116.60 167.89 116.92 168.70 116.52 Z M 169.77 115.98 L 170.79 115.44 C 171.59 115.02 171.90 114.03 171.48 113.22 C 171.05 112.42 170.06 112.12 169.26 112.54 L 168.24 113.07 C 167.44 113.49 167.13 114.49 167.56 115.29 C 167.98 116.09 168.97 116.40 169.77 115.98 Z M 170.79 115.45 L 171.83 114.91 C 172.63 114.49 172.95 113.49 172.52 112.68 C 172.10 111.87 171.10 111.56 170.29 111.98 L 169.26 112.53 C 168.45 112.95 168.14 113.95 168.56 114.76 C 168.98 115.56 169.98 115.88 170.79 115.45 Z M 171.79 114.94 L 172.77 114.46 C 173.60 114.06 173.94 113.06 173.54 112.23 C 173.13 111.41 172.13 111.07 171.31 111.47 L 170.33 111.95 C 169.50 112.36 169.16 113.36 169.57 114.18 C 169.97 115.01 170.97 115.35 171.79 114.94 Z M 172.69 114.51 L 173.54 114.16 C 174.39 113.80 174.79 112.82 174.44 111.97 C 174.08 111.11 173.10 110.71 172.25 111.07 L 171.40 111.42 C 170.54 111.78 170.14 112.76 170.50 113.61 C 170.85 114.47 171.83 114.87 172.69 114.51 Z M 173.29 114.25 L 173.94 114.09 C 174.84 113.87 175.39 112.95 175.17 112.05 C 174.95 111.15 174.03 110.59 173.13 110.82 L 172.49 110.97 C 171.58 111.20 171.03 112.11 171.25 113.02 C 171.48 113.92 172.39 114.47 173.29 114.25 Z M 172.54 113.83 L 173.03 114.18 C 173.79 114.73 174.85 114.55 175.39 113.79 C 175.94 113.03 175.77 111.97 175.01 111.43 L 174.52 111.08 C 173.76 110.53 172.70 110.70 172.16 111.46 C 171.61 112.22 171.78 113.28 172.54 113.83 Z M 172.36 112.43 L 172.14 113.39 C 171.94 114.31 172.51 115.22 173.42 115.43 C 174.34 115.63 175.25 115.06 175.46 114.15 L 175.67 113.18 C 175.88 112.26 175.31 111.35 174.39 111.15 C 173.48 110.94 172.57 111.51 172.36 112.43 Z M 172.26 113.05 L 171.75 114.14 C 171.35 114.99 171.72 116.01 172.57 116.40 C 173.43 116.80 174.44 116.43 174.83 115.58 L 175.34 114.49 C 175.74 113.64 175.37 112.62 174.52 112.23 C 173.66 111.83 172.65 112.20 172.26 113.05 Z M 171.79 114.05 L 171.32 114.92 C 170.88 115.75 171.19 116.79 172.02 117.23 C 172.84 117.68 173.88 117.37 174.32 116.54 L 174.79 115.67 C 175.24 114.84 174.93 113.81 174.10 113.36 C 173.27 112.91 172.24 113.22 171.79 114.05 Z M 171.35 114.88 L 170.84 115.76 C 170.37 116.58 170.65 117.62 171.46 118.09 C 172.28 118.56 173.32 118.28 173.79 117.47 L 174.30 116.58 C 174.77 115.77 174.49 114.73 173.67 114.26 C 172.86 113.79 171.82 114.07 171.35 114.88 Z M 170.86 115.73 L 170.33 116.60 C 169.84 117.41 170.10 118.45 170.91 118.94 C 171.71 119.43 172.76 119.17 173.25 118.36 L 173.77 117.49 C 174.26 116.69 174.00 115.64 173.19 115.16 C 172.39 114.67 171.34 114.93 170.86 115.73 Z M 170.34 116.59 L 169.81 117.45 C 169.31 118.25 169.56 119.30 170.36 119.79 C 171.16 120.29 172.21 120.04 172.70 119.24 L 173.24 118.38 C 173.73 117.58 173.48 116.53 172.68 116.03 C 171.88 115.54 170.84 115.79 170.34 116.59 Z M 169.81 117.44 L 169.27 118.31 C 168.77 119.10 169.01 120.15 169.81 120.65 C 170.60 121.15 171.65 120.91 172.15 120.11 L 172.69 119.25 C 173.19 118.46 172.95 117.41 172.16 116.91 C 171.36 116.41 170.31 116.65 169.81 117.44 Z M 169.28 118.30 L 168.75 119.13 C 168.24 119.92 168.48 120.97 169.26 121.47 C 170.05 121.98 171.10 121.75 171.61 120.96 L 172.14 120.13 C 172.65 119.34 172.41 118.29 171.63 117.78 C 170.84 117.28 169.79 117.51 169.28 118.30 Z M 168.76 119.11 L 168.23 119.93 C 167.72 120.71 167.93 121.76 168.72 122.28 C 169.50 122.79 170.55 122.57 171.06 121.79 L 171.60 120.97 C 172.11 120.19 171.89 119.14 171.11 118.62 C 170.32 118.11 169.27 118.33 168.76 119.11 Z M 168.24 119.92 L 167.69 120.73 C 167.17 121.51 167.38 122.56 168.16 123.08 C 168.93 123.60 169.98 123.39 170.50 122.62 L 171.05 121.80 C 171.57 121.02 171.36 119.97 170.59 119.45 C 169.81 118.93 168.76 119.14 168.24 119.92 Z M 167.70 120.72 L 167.14 121.55 C 166.62 122.32 166.81 123.37 167.58 123.89 C 168.35 124.42 169.41 124.22 169.93 123.45 L 170.49 122.63 C 171.02 121.86 170.82 120.81 170.05 120.28 C 169.28 119.75 168.23 119.95 167.70 120.72 Z M 167.15 121.54 L 166.58 122.37 C 166.05 123.13 166.24 124.18 167.01 124.71 C 167.77 125.24 168.82 125.05 169.35 124.28 L 169.92 123.46 C 170.45 122.69 170.26 121.64 169.49 121.11 C 168.73 120.58 167.68 120.77 167.15 121.54 Z M 166.58 122.36 L 166.01 123.19 C 165.48 123.95 165.67 125.00 166.43 125.53 C 167.19 126.06 168.24 125.87 168.77 125.11 L 169.35 124.29 C 169.88 123.52 169.69 122.47 168.93 121.94 C 168.16 121.41 167.11 121.60 166.58 122.36 Z M 166.01 123.19 L 165.50 123.92 C 164.97 124.69 165.16 125.73 165.92 126.27 C 166.69 126.80 167.74 126.61 168.27 125.84 L 168.77 125.11 C 169.31 124.35 169.12 123.30 168.35 122.77 C 167.59 122.24 166.54 122.43 166.01 123.19 Z M 165.50 123.93 L 164.97 124.70 C 164.44 125.46 164.63 126.51 165.40 127.04 C 166.16 127.57 167.21 127.37 167.74 126.61 L 168.27 125.84 C 168.80 125.07 168.60 124.02 167.84 123.49 C 167.07 122.97 166.02 123.16 165.50 123.93 Z M 164.96 124.70 L 164.39 125.54 C 163.87 126.31 164.06 127.36 164.83 127.88 C 165.60 128.41 166.65 128.21 167.18 127.44 L 167.75 126.60 C 168.27 125.83 168.07 124.78 167.30 124.26 C 166.53 123.73 165.48 123.93 164.96 124.70 Z M 164.38 125.55 L 163.75 126.50 C 163.23 127.27 163.44 128.32 164.21 128.84 C 164.99 129.35 166.04 129.15 166.55 128.37 L 167.18 127.43 C 167.70 126.65 167.49 125.61 166.72 125.09 C 165.95 124.57 164.90 124.78 164.38 125.55 Z M 163.74 126.51 L 163.20 127.33 C 162.69 128.11 162.90 129.15 163.68 129.67 C 164.46 130.18 165.51 129.96 166.02 129.18 L 166.56 128.36 C 167.07 127.58 166.86 126.54 166.08 126.02 C 165.30 125.51 164.25 125.73 163.74 126.51 Z M 163.19 127.34 L 162.65 128.18 C 162.14 128.96 162.36 130.01 163.15 130.52 C 163.93 131.02 164.98 130.80 165.48 130.02 L 166.03 129.17 C 166.54 128.39 166.31 127.34 165.53 126.84 C 164.74 126.33 163.70 126.55 163.19 127.34 Z M 162.64 128.19 L 162.08 129.07 C 161.58 129.86 161.82 130.90 162.61 131.40 C 163.39 131.90 164.44 131.67 164.94 130.88 L 165.49 130.00 C 165.99 129.22 165.76 128.17 164.97 127.67 C 164.18 127.17 163.14 127.41 162.64 128.19 Z M 162.07 129.09 L 161.53 129.97 C 161.04 130.77 161.28 131.81 162.08 132.30 C 162.88 132.79 163.92 132.54 164.41 131.75 L 164.95 130.86 C 165.44 130.07 165.19 129.02 164.40 128.53 C 163.60 128.04 162.56 128.29 162.07 129.09 Z M 161.51 129.99 L 161.00 130.86 C 160.52 131.66 160.78 132.70 161.59 133.18 C 162.39 133.66 163.43 133.39 163.91 132.59 L 164.42 131.72 C 164.90 130.92 164.64 129.88 163.83 129.40 C 163.03 128.92 161.99 129.19 161.51 129.99 Z M 160.97 130.90 L 160.46 131.82 C 160.00 132.63 160.29 133.67 161.11 134.12 C 161.93 134.58 162.96 134.29 163.42 133.47 L 163.93 132.55 C 164.39 131.73 164.10 130.70 163.28 130.24 C 162.46 129.79 161.43 130.08 160.97 130.90 Z M 160.42 131.89 L 159.82 133.10 C 159.41 133.93 159.75 134.95 160.59 135.37 C 161.43 135.78 162.45 135.44 162.86 134.60 L 163.46 133.40 C 163.87 132.56 163.53 131.54 162.69 131.13 C 161.85 130.71 160.83 131.05 160.42 131.89 Z M 159.75 133.27 L 159.40 134.23 C 159.09 135.11 159.54 136.08 160.42 136.40 C 161.31 136.71 162.28 136.26 162.59 135.38 L 162.94 134.42 C 163.25 133.54 162.80 132.57 161.92 132.25 C 161.04 131.94 160.06 132.39 159.75 133.27 Z M 159.31 134.72 L 159.27 135.36 C 159.23 136.29 159.95 137.09 160.88 137.13 C 161.82 137.18 162.61 136.46 162.66 135.52 L 162.69 134.89 C 162.74 133.95 162.02 133.16 161.08 133.11 C 160.15 133.06 159.35 133.78 159.31 134.72 Z M 160.12 136.91 L 160.62 137.19 C 161.42 137.66 162.46 137.38 162.92 136.57 C 163.39 135.76 163.11 134.73 162.30 134.26 L 161.81 133.98 C 161.00 133.51 159.97 133.79 159.50 134.60 C 159.04 135.41 159.31 136.44 160.12 136.91 Z M 161.86 137.36 L 162.86 137.12 C 163.76 136.90 164.31 135.99 164.09 135.08 C 163.87 134.18 162.96 133.63 162.06 133.85 L 161.06 134.09 C 160.16 134.31 159.61 135.22 159.83 136.12 C 160.05 137.03 160.96 137.58 161.86 137.36 Z M 163.17 137.00 L 164.23 136.50 C 165.06 136.11 165.42 135.11 165.03 134.28 C 164.64 133.44 163.65 133.08 162.81 133.47 L 161.75 133.97 C 160.91 134.36 160.55 135.35 160.94 136.19 C 161.34 137.03 162.33 137.39 163.17 137.00 Z M 164.36 136.43 L 165.21 135.93 C 166.00 135.47 166.27 134.45 165.81 133.65 C 165.35 132.86 164.32 132.59 163.53 133.05 L 162.68 133.55 C 161.88 134.01 161.61 135.03 162.08 135.83 C 162.54 136.62 163.56 136.89 164.36 136.43 Z M 165.29 135.88 L 166.12 135.33 C 166.89 134.82 167.10 133.79 166.59 133.02 C 166.08 132.25 165.05 132.04 164.28 132.55 L 163.45 133.10 C 162.68 133.61 162.47 134.65 162.98 135.41 C 163.49 136.18 164.52 136.39 165.29 135.88 Z M 166.17 135.29 L 166.99 134.70 C 167.74 134.17 167.92 133.13 167.38 132.38 C 166.85 131.63 165.81 131.46 165.06 131.99 L 164.23 132.58 C 163.48 133.12 163.31 134.16 163.85 134.91 C 164.38 135.66 165.42 135.83 166.17 135.29 Z M 167.01 134.69 L 167.81 134.10 C 168.55 133.55 168.71 132.51 168.16 131.77 C 167.62 131.03 166.58 130.88 165.84 131.42 L 165.04 132.01 C 164.30 132.56 164.14 133.60 164.69 134.34 C 165.23 135.08 166.27 135.23 167.01 134.69 Z M 167.82 134.10 L 168.63 133.49 C 169.36 132.94 169.52 131.90 168.97 131.16 C 168.42 130.43 167.37 130.28 166.64 130.82 L 165.83 131.43 C 165.09 131.98 164.94 133.02 165.49 133.76 C 166.04 134.49 167.08 134.64 167.82 134.10 Z M 168.62 133.50 L 169.43 132.90 C 170.17 132.35 170.32 131.31 169.78 130.57 C 169.23 129.83 168.19 129.68 167.45 130.22 L 166.64 130.82 C 165.90 131.37 165.75 132.41 166.29 133.15 C 166.84 133.89 167.88 134.04 168.62 133.50 Z M 169.42 132.91 L 170.24 132.31 C 170.98 131.77 171.14 130.73 170.60 129.99 C 170.06 129.24 169.02 129.08 168.28 129.62 L 167.46 130.21 C 166.72 130.75 166.55 131.79 167.09 132.54 C 167.63 133.28 168.67 133.45 169.42 132.91 Z M 170.22 132.32 L 171.03 131.75 C 171.78 131.21 171.96 130.17 171.43 129.43 C 170.90 128.68 169.86 128.50 169.11 129.03 L 168.29 129.61 C 167.55 130.14 167.37 131.18 167.90 131.93 C 168.43 132.68 169.47 132.85 170.22 132.32 Z M 171.02 131.75 L 171.84 131.19 C 172.59 130.66 172.78 129.63 172.25 128.87 C 171.73 128.12 170.69 127.93 169.94 128.45 L 169.12 129.02 C 168.37 129.55 168.18 130.58 168.71 131.34 C 169.23 132.09 170.27 132.28 171.02 131.75 Z M 171.83 131.20 L 172.65 130.64 C 173.41 130.12 173.60 129.08 173.08 128.32 C 172.56 127.56 171.53 127.37 170.77 127.89 L 169.95 128.45 C 169.19 128.97 169.00 130.00 169.51 130.76 C 170.03 131.52 171.07 131.71 171.83 131.20 Z M 172.64 130.64 L 173.46 130.09 C 174.23 129.58 174.43 128.54 173.92 127.78 C 173.41 127.02 172.37 126.81 171.61 127.32 L 170.78 127.88 C 170.02 128.39 169.81 129.43 170.32 130.19 C 170.84 130.95 171.87 131.16 172.64 130.64 Z M 173.45 130.10 L 174.29 129.55 C 175.06 129.05 175.27 128.01 174.77 127.24 C 174.26 126.47 173.23 126.26 172.46 126.76 L 171.62 127.31 C 170.85 127.82 170.64 128.85 171.14 129.62 C 171.64 130.39 172.68 130.60 173.45 130.10 Z M 174.27 129.56 L 175.11 129.03 C 175.89 128.53 176.12 127.50 175.63 126.73 C 175.13 125.95 174.10 125.72 173.33 126.21 L 172.48 126.75 C 171.70 127.24 171.47 128.27 171.97 129.05 C 172.46 129.83 173.49 130.06 174.27 129.56 Z M 175.09 129.05 L 175.93 128.54 C 176.71 128.06 176.96 127.03 176.48 126.24 C 176.01 125.45 174.98 125.20 174.19 125.68 L 173.35 126.19 C 172.56 126.67 172.31 127.70 172.79 128.49 C 173.27 129.28 174.30 129.53 175.09 129.05 Z M 175.89 128.56 L 176.75 128.07 C 177.55 127.62 177.84 126.59 177.38 125.79 C 176.92 124.99 175.90 124.71 175.10 125.16 L 174.23 125.65 C 173.43 126.11 173.15 127.13 173.60 127.94 C 174.06 128.74 175.08 129.02 175.89 128.56 Z M 176.69 128.11 L 177.60 127.64 C 178.42 127.22 178.74 126.21 178.32 125.38 C 177.89 124.56 176.88 124.24 176.06 124.66 L 175.15 125.13 C 174.33 125.55 174.01 126.56 174.43 127.39 C 174.86 128.21 175.87 128.53 176.69 128.11 Z M 177.53 127.68 L 178.41 127.28 C 179.25 126.89 179.62 125.90 179.24 125.05 C 178.85 124.21 177.85 123.83 177.01 124.22 L 176.13 124.62 C 175.28 125.01 174.91 126.00 175.30 126.85 C 175.68 127.69 176.68 128.07 177.53 127.68 Z M 178.32 127.32 L 179.22 126.96 C 180.09 126.63 180.52 125.65 180.18 124.78 C 179.84 123.92 178.86 123.49 178.00 123.83 L 177.09 124.18 C 176.23 124.52 175.80 125.50 176.14 126.36 C 176.48 127.23 177.46 127.66 178.32 127.32 Z M 179.12 127.00 L 180.08 126.70 C 180.97 126.41 181.46 125.46 181.18 124.58 C 180.89 123.69 179.94 123.20 179.06 123.48 L 178.10 123.79 C 177.21 124.07 176.72 125.02 177.00 125.91 C 177.29 126.80 178.24 127.29 179.12 127.00 Z M 179.97 126.73 L 180.99 126.48 C 181.90 126.26 182.46 125.35 182.24 124.44 C 182.02 123.54 181.10 122.98 180.20 123.20 L 179.17 123.45 C 178.27 123.67 177.71 124.58 177.93 125.49 C 178.15 126.40 179.06 126.95 179.97 126.73 Z M 180.87 126.51 L 181.93 126.34 C 182.85 126.19 183.48 125.32 183.33 124.40 C 183.18 123.47 182.31 122.84 181.38 123.00 L 180.32 123.17 C 179.40 123.32 178.77 124.19 178.92 125.11 C 179.07 126.04 179.94 126.66 180.87 126.51 Z M 181.78 126.36 L 182.84 126.29 C 183.78 126.22 184.48 125.41 184.41 124.47 C 184.35 123.53 183.53 122.83 182.60 122.90 L 181.53 122.97 C 180.60 123.04 179.89 123.85 179.96 124.79 C 180.03 125.73 180.84 126.43 181.78 126.36 Z M 182.63 126.30 L 183.62 126.35 C 184.56 126.40 185.37 125.68 185.42 124.73 C 185.47 123.79 184.74 122.99 183.80 122.94 L 182.81 122.89 C 181.87 122.84 181.06 123.56 181.01 124.50 C 180.97 125.44 181.69 126.25 182.63 126.30 Z M 183.29 126.30 L 184.15 126.52 C 185.06 126.75 185.99 126.19 186.22 125.28 C 186.45 124.36 185.90 123.43 184.98 123.20 L 184.13 122.98 C 183.21 122.75 182.28 123.31 182.05 124.23 C 181.82 125.14 182.38 126.07 183.29 126.30 Z M 183.61 126.28 L 184.39 126.81 C 185.17 127.34 186.24 127.13 186.77 126.34 C 187.30 125.56 187.09 124.49 186.30 123.96 L 185.52 123.43 C 184.73 122.91 183.67 123.11 183.14 123.90 C 182.61 124.69 182.82 125.75 183.61 126.28 Z M 183.91 126.32 L 184.43 127.12 C 184.94 127.91 186.01 128.13 186.80 127.62 C 187.59 127.10 187.82 126.04 187.30 125.24 L 186.78 124.45 C 186.26 123.65 185.20 123.43 184.41 123.95 C 183.61 124.46 183.39 125.53 183.91 126.32 Z M 184.23 126.71 L 184.55 127.71 C 184.85 128.61 185.81 129.10 186.71 128.81 C 187.62 128.52 188.11 127.55 187.82 126.65 L 187.50 125.65 C 187.20 124.75 186.24 124.26 185.34 124.55 C 184.43 124.84 183.94 125.81 184.23 126.71 Z M 184.50 127.49 L 184.69 128.47 C 184.86 129.40 185.75 130.02 186.68 129.84 C 187.61 129.67 188.23 128.78 188.05 127.85 L 187.87 126.87 C 187.70 125.94 186.80 125.32 185.87 125.50 C 184.94 125.67 184.33 126.56 184.50 127.49 Z M 184.67 128.35 L 184.79 129.36 C 184.90 130.30 185.74 130.97 186.68 130.86 C 187.61 130.76 188.29 129.91 188.18 128.98 L 188.06 127.97 C 187.96 127.03 187.11 126.36 186.18 126.47 C 185.24 126.57 184.57 127.42 184.67 128.35 Z M 184.79 129.27 L 184.85 130.29 C 184.91 131.23 185.71 131.94 186.65 131.88 C 187.59 131.83 188.30 131.02 188.24 130.08 L 188.18 129.07 C 188.12 128.13 187.32 127.42 186.38 127.47 C 185.44 127.53 184.73 128.33 184.79 129.27 Z M 184.85 130.22 L 184.87 131.21 C 184.89 132.15 185.66 132.89 186.59 132.87 C 187.53 132.86 188.27 132.09 188.25 131.15 L 188.24 130.16 C 188.22 129.22 187.45 128.48 186.52 128.50 C 185.58 128.51 184.84 129.28 184.85 130.22 Z M 184.88 131.13 L 184.85 132.18 C 184.82 133.10 185.55 133.88 186.48 133.90 C 187.41 133.93 188.18 133.20 188.21 132.28 L 188.24 131.23 C 188.27 130.31 187.54 129.53 186.61 129.50 C 185.69 129.48 184.91 130.21 184.88 131.13 Z M 184.88 132.07 L 184.78 133.05 C 184.70 133.96 185.37 134.78 186.28 134.86 C 187.20 134.95 188.01 134.28 188.09 133.36 L 188.19 132.38 C 188.27 131.47 187.60 130.66 186.69 130.57 C 185.77 130.48 184.96 131.15 184.88 132.07 Z M 184.82 132.92 L 184.65 133.88 C 184.49 134.77 185.09 135.63 185.99 135.78 C 186.89 135.94 187.74 135.34 187.90 134.44 L 188.06 133.49 C 188.22 132.59 187.62 131.74 186.72 131.58 C 185.82 131.43 184.97 132.03 184.82 132.92 Z M 184.69 133.75 L 184.44 134.71 C 184.22 135.58 184.74 136.47 185.61 136.70 C 186.48 136.92 187.38 136.40 187.60 135.53 L 187.85 134.57 C 188.08 133.70 187.56 132.81 186.68 132.58 C 185.81 132.35 184.92 132.88 184.69 133.75 Z M 184.49 134.59 L 184.16 135.54 C 183.87 136.39 184.32 137.31 185.17 137.60 C 186.01 137.89 186.94 137.44 187.23 136.60 L 187.56 135.64 C 187.85 134.80 187.40 133.88 186.55 133.58 C 185.70 133.29 184.78 133.74 184.49 134.59 Z M 184.22 135.44 L 183.82 136.36 C 183.47 137.18 183.85 138.12 184.67 138.47 C 185.49 138.82 186.43 138.44 186.78 137.62 L 187.18 136.70 C 187.52 135.88 187.14 134.94 186.33 134.59 C 185.51 134.24 184.56 134.62 184.22 135.44 Z M 183.88 136.26 L 183.43 137.13 C 183.03 137.92 183.33 138.88 184.12 139.28 C 184.90 139.69 185.87 139.38 186.27 138.60 L 186.72 137.72 C 187.13 136.94 186.82 135.98 186.03 135.57 C 185.25 135.17 184.29 135.48 183.88 136.26 Z M 183.50 137.04 L 182.99 137.87 C 182.53 138.62 182.77 139.59 183.52 140.05 C 184.27 140.51 185.24 140.27 185.70 139.52 L 186.21 138.69 C 186.67 137.94 186.43 136.97 185.68 136.51 C 184.93 136.05 183.95 136.29 183.50 137.04 Z M 183.05 137.79 L 182.48 138.61 C 181.98 139.32 182.15 140.31 182.87 140.81 C 183.58 141.31 184.57 141.14 185.07 140.42 L 185.64 139.60 C 186.14 138.88 185.97 137.90 185.25 137.40 C 184.54 136.90 183.55 137.07 183.05 137.79 Z M 182.53 138.55 L 181.90 139.37 C 181.37 140.05 181.50 141.04 182.19 141.57 C 182.87 142.10 183.86 141.97 184.39 141.29 L 185.02 140.47 C 185.55 139.79 185.42 138.80 184.73 138.27 C 184.04 137.74 183.06 137.87 182.53 138.55 Z M 181.94 139.33 L 181.31 140.08 C 180.76 140.75 180.85 141.74 181.52 142.29 C 182.19 142.84 183.18 142.75 183.73 142.08 L 184.35 141.33 C 184.91 140.66 184.81 139.67 184.15 139.12 C 183.48 138.57 182.49 138.66 181.94 139.33 Z M 181.35 140.04 L 180.68 140.80 C 180.10 141.44 180.16 142.43 180.80 143.01 C 181.45 143.58 182.44 143.53 183.01 142.88 L 183.69 142.13 C 184.26 141.48 184.21 140.49 183.56 139.92 C 182.92 139.34 181.93 139.40 181.35 140.04 Z M 180.73 140.74 L 180.02 141.47 C 179.41 142.09 179.42 143.07 180.04 143.68 C 180.65 144.28 181.64 144.28 182.25 143.66 L 182.96 142.93 C 183.56 142.32 183.56 141.33 182.94 140.72 C 182.32 140.12 181.33 140.13 180.73 140.74 Z M 180.09 141.41 L 179.33 142.09 C 178.69 142.67 178.64 143.65 179.22 144.29 C 179.79 144.93 180.78 144.98 181.42 144.41 L 182.18 143.72 C 182.82 143.15 182.87 142.16 182.29 141.52 C 181.71 140.88 180.73 140.83 180.09 141.41 Z M 179.40 142.03 L 178.61 142.66 C 177.94 143.19 177.83 144.17 178.36 144.85 C 178.90 145.52 179.88 145.63 180.56 145.10 L 181.35 144.47 C 182.02 143.93 182.13 142.95 181.60 142.27 C 181.06 141.60 180.08 141.49 179.40 142.03 Z M 178.67 142.61 L 177.87 143.20 C 177.17 143.70 177.01 144.68 177.52 145.38 C 178.03 146.07 179.00 146.23 179.70 145.72 L 180.50 145.14 C 181.20 144.63 181.35 143.66 180.85 142.96 C 180.34 142.26 179.37 142.11 178.67 142.61 Z M 177.90 143.17 L 177.09 143.73 C 176.38 144.22 176.20 145.19 176.69 145.90 C 177.18 146.61 178.15 146.79 178.86 146.30 L 179.67 145.74 C 180.38 145.25 180.56 144.28 180.07 143.57 C 179.58 142.86 178.61 142.68 177.90 143.17 Z M 177.09 143.73 L 177.02 143.78 C 176.31 144.26 176.12 145.24 176.61 145.95 C 177.09 146.66 178.07 146.84 178.78 146.36 L 178.85 146.31 C 179.57 145.82 179.75 144.85 179.26 144.14 C 178.78 143.42 177.81 143.24 177.09 143.73 Z"
      fill="black"
      fill-rule="nonzero" /><path d="M 173.69 137.40 L 173.56 138.32 C 173.43 139.25 174.08 140.11 175.01 140.25 C 175.94 140.38 176.80 139.73 176.93 138.80 L 177.07 137.88 C 177.20 136.95 176.55 136.08 175.62 135.95 C 174.69 135.82 173.82 136.47 173.69 137.40 Z M 173.54 138.38 L 173.44 139.33 C 173.34 140.27 174.02 141.12 174.96 141.22 C 175.90 141.32 176.75 140.64 176.85 139.69 L 176.95 138.74 C 177.05 137.80 176.37 136.96 175.43 136.86 C 174.49 136.75 173.64 137.44 173.54 138.38 Z M 173.42 139.44 L 173.38 140.45 C 173.34 141.40 174.08 142.21 175.03 142.25 C 175.98 142.29 176.78 141.55 176.82 140.60 L 176.87 139.59 C 176.91 138.64 176.17 137.83 175.22 137.79 C 174.27 137.75 173.47 138.49 173.42 139.44 Z M 173.37 140.59 L 173.41 141.67 C 173.45 142.63 174.25 143.38 175.21 143.34 C 176.16 143.30 176.91 142.50 176.87 141.55 L 176.83 140.46 C 176.80 139.51 175.99 138.76 175.04 138.80 C 174.08 138.83 173.33 139.63 173.37 140.59 Z M 173.42 141.80 L 173.52 142.72 C 173.62 143.67 174.48 144.36 175.43 144.26 C 176.38 144.15 177.07 143.30 176.97 142.34 L 176.87 141.42 C 176.76 140.47 175.91 139.78 174.95 139.88 C 174.00 139.99 173.31 140.85 173.42 141.80 Z M 173.53 142.80 L 173.68 143.77 C 173.82 144.72 174.71 145.37 175.66 145.22 C 176.61 145.07 177.26 144.19 177.11 143.24 L 176.96 142.27 C 176.81 141.32 175.92 140.67 174.98 140.82 C 174.03 140.96 173.38 141.85 173.53 142.80 Z M 173.69 143.82 L 173.87 144.83 C 174.05 145.77 174.95 146.39 175.89 146.22 C 176.84 146.04 177.46 145.14 177.29 144.20 L 177.10 143.19 C 176.93 142.25 176.02 141.62 175.08 141.80 C 174.13 141.97 173.51 142.88 173.69 143.82 Z M 173.88 144.86 L 174.08 145.87 C 174.27 146.81 175.19 147.42 176.13 147.23 C 177.07 147.04 177.68 146.13 177.49 145.19 L 177.28 144.17 C 177.09 143.23 176.17 142.62 175.23 142.81 C 174.30 143.00 173.69 143.92 173.88 144.86 Z M 174.09 145.88 L 174.30 146.90 C 174.49 147.83 175.41 148.44 176.35 148.24 C 177.29 148.05 177.89 147.13 177.70 146.19 L 177.48 145.18 C 177.29 144.24 176.37 143.63 175.43 143.83 C 174.49 144.03 173.89 144.94 174.09 145.88 Z M 174.29 146.89 L 174.50 147.88 C 174.69 148.82 175.61 149.42 176.55 149.23 C 177.49 149.04 178.09 148.12 177.90 147.18 L 177.70 146.19 C 177.50 145.25 176.59 144.65 175.65 144.84 C 174.71 145.03 174.10 145.95 174.29 146.89 Z M 174.49 147.86 L 174.68 148.83 C 174.87 149.78 175.78 150.39 176.72 150.20 C 177.66 150.02 178.28 149.11 178.09 148.17 L 177.90 147.19 C 177.72 146.25 176.80 145.64 175.86 145.82 C 174.92 146.01 174.31 146.92 174.49 147.86 Z M 174.68 148.81 L 174.86 149.79 C 175.03 150.73 175.94 151.35 176.88 151.18 C 177.82 151.01 178.45 150.10 178.27 149.16 L 178.10 148.19 C 177.92 147.24 177.02 146.62 176.07 146.79 C 175.13 146.97 174.51 147.87 174.68 148.81 Z M 174.86 149.76 L 175.02 150.74 C 175.18 151.69 176.08 152.32 177.02 152.17 C 177.97 152.01 178.60 151.11 178.44 150.16 L 178.28 149.18 C 178.12 148.24 177.22 147.60 176.28 147.76 C 175.33 147.92 174.70 148.82 174.86 149.76 Z M 175.02 150.71 L 175.17 151.72 C 175.31 152.66 176.20 153.32 177.14 153.17 C 178.09 153.03 178.74 152.15 178.60 151.20 L 178.45 150.19 C 178.31 149.25 177.42 148.59 176.47 148.74 C 175.53 148.88 174.87 149.76 175.02 150.71 Z M 175.16 151.68 L 175.30 152.71 C 175.43 153.66 176.30 154.33 177.25 154.20 C 178.20 154.07 178.87 153.20 178.74 152.25 L 178.61 151.23 C 178.48 150.28 177.61 149.61 176.66 149.74 C 175.71 149.86 175.04 150.73 175.16 151.68 Z M 175.30 152.68 L 175.42 153.72 C 175.53 154.67 176.39 155.35 177.34 155.24 C 178.30 155.13 178.98 154.26 178.87 153.31 L 178.74 152.28 C 178.63 151.32 177.77 150.64 176.82 150.76 C 175.87 150.87 175.18 151.73 175.30 152.68 Z M 175.42 153.70 L 175.52 154.72 C 175.62 155.68 176.48 156.37 177.43 156.27 C 178.39 156.17 179.08 155.31 178.98 154.36 L 178.87 153.33 C 178.77 152.38 177.91 151.69 176.96 151.79 C 176.01 151.89 175.31 152.74 175.42 153.70 Z M 175.52 154.71 L 175.62 155.70 C 175.71 156.65 176.56 157.35 177.51 157.26 C 178.47 157.17 179.17 156.32 179.07 155.36 L 178.98 154.37 C 178.89 153.42 178.04 152.72 177.08 152.81 C 176.13 152.90 175.43 153.75 175.52 154.71 Z M 175.62 155.69 L 175.70 156.62 C 175.79 157.58 176.63 158.28 177.59 158.19 C 178.54 158.11 179.25 157.26 179.16 156.31 L 179.08 155.37 C 178.99 154.42 178.14 153.72 177.19 153.80 C 176.23 153.89 175.53 154.73 175.62 155.69 Z M 175.70 156.62 L 175.79 157.67 C 175.88 158.62 176.72 159.33 177.67 159.25 C 178.63 159.16 179.34 158.32 179.25 157.37 L 179.16 156.31 C 179.08 155.36 178.24 154.65 177.28 154.74 C 176.33 154.82 175.62 155.66 175.70 156.62 Z M 175.79 157.66 L 175.88 158.69 C 175.96 159.64 176.79 160.35 177.75 160.28 C 178.71 160.20 179.42 159.36 179.34 158.40 L 179.25 157.38 C 179.18 156.42 178.34 155.71 177.38 155.79 C 176.43 155.87 175.71 156.71 175.79 157.66 Z M 175.88 158.67 L 175.95 159.63 C 176.02 160.58 176.85 161.30 177.81 161.23 C 178.76 161.16 179.48 160.33 179.41 159.37 L 179.34 158.42 C 179.27 157.46 178.44 156.74 177.48 156.81 C 176.52 156.89 175.81 157.72 175.88 158.67 Z M 175.95 159.61 L 176.00 160.53 C 176.06 161.49 176.89 162.22 177.85 162.16 C 178.80 162.10 179.53 161.27 179.47 160.32 L 179.41 159.39 C 179.35 158.43 178.53 157.71 177.57 157.77 C 176.61 157.83 175.89 158.65 175.95 159.61 Z M 176.00 160.52 L 176.05 161.48 C 176.10 162.44 176.92 163.18 177.88 163.13 C 178.83 163.08 179.57 162.26 179.52 161.30 L 179.47 160.34 C 179.42 159.38 178.60 158.64 177.65 158.69 C 176.69 158.74 175.95 159.56 176.00 160.52 Z M 176.05 161.47 L 176.10 162.47 C 176.14 163.42 176.95 164.17 177.90 164.12 C 178.86 164.08 179.60 163.27 179.56 162.32 L 179.52 161.32 C 179.48 160.36 178.67 159.62 177.71 159.66 C 176.76 159.70 176.01 160.51 176.05 161.47 Z M 176.10 162.46 L 176.13 163.47 C 176.17 164.43 176.97 165.17 177.93 165.14 C 178.89 165.10 179.64 164.30 179.60 163.34 L 179.56 162.33 C 179.53 161.37 178.72 160.62 177.76 160.66 C 176.81 160.69 176.06 161.50 176.10 162.46 Z M 176.13 163.46 L 176.17 164.47 C 176.20 165.43 177.01 166.18 177.96 166.15 C 178.92 166.11 179.67 165.31 179.64 164.35 L 179.60 163.34 C 179.57 162.38 178.76 161.64 177.81 161.67 C 176.85 161.70 176.10 162.51 176.13 163.46 Z M 176.17 164.47 L 176.20 165.45 C 176.24 166.41 177.04 167.16 178.00 167.12 C 178.95 167.09 179.70 166.29 179.67 165.33 L 179.64 164.35 C 179.60 163.40 178.80 162.65 177.84 162.68 C 176.89 162.71 176.14 163.52 176.17 164.47 Z M 176.20 165.45 L 176.24 166.43 C 176.27 167.39 177.07 168.14 178.02 168.11 C 178.98 168.08 179.73 167.28 179.70 166.32 L 179.67 165.34 C 179.64 164.38 178.84 163.63 177.88 163.66 C 176.93 163.69 176.17 164.49 176.20 165.45 Z M 176.24 166.42 L 176.26 167.43 C 176.29 168.39 177.08 169.14 178.04 169.12 C 179.00 169.09 179.75 168.30 179.73 167.34 L 179.70 166.33 C 179.67 165.38 178.88 164.62 177.92 164.65 C 176.97 164.67 176.21 165.47 176.24 166.42 Z M 176.26 167.42 L 176.28 168.44 C 176.30 169.40 177.09 170.16 178.04 170.14 C 179.00 170.12 179.76 169.33 179.74 168.38 L 179.73 167.36 C 179.71 166.40 178.92 165.64 177.96 165.66 C 177.01 165.67 176.25 166.46 176.26 167.42 Z M 176.28 168.43 L 176.29 169.43 C 176.30 170.38 177.09 171.15 178.04 171.14 C 179.00 171.13 179.76 170.35 179.75 169.39 L 179.74 168.39 C 179.73 167.43 178.95 166.67 177.99 166.68 C 177.04 166.69 176.27 167.47 176.28 168.43 Z M 176.29 169.42 L 176.30 170.43 C 176.30 171.39 177.08 172.16 178.04 172.15 C 178.99 172.15 179.76 171.37 179.76 170.42 L 179.75 169.40 C 179.75 168.45 178.97 167.68 178.01 167.68 C 177.06 167.69 176.29 168.46 176.29 169.42 Z M 176.30 170.43 L 176.30 171.43 C 176.30 172.39 177.08 173.16 178.03 173.16 C 178.99 173.16 179.76 172.38 179.76 171.43 L 179.76 170.42 C 179.76 169.47 178.98 168.69 178.03 168.70 C 177.07 168.70 176.30 169.47 176.30 170.43 Z M 176.30 171.43 L 176.30 172.42 C 176.30 173.38 177.08 174.15 178.03 174.15 C 178.99 174.15 179.76 173.38 179.76 172.42 L 179.76 171.43 C 179.76 170.48 178.98 169.70 178.03 169.70 C 177.08 169.70 176.30 170.48 176.30 171.43 Z M 176.30 172.42 L 176.30 173.47 C 176.30 174.42 177.08 175.19 178.03 175.19 C 178.98 175.19 179.76 174.42 179.76 173.47 L 179.76 172.42 C 179.76 171.47 178.98 170.70 178.03 170.70 C 177.08 170.70 176.30 171.47 176.30 172.42 Z M 176.31 173.47 L 176.31 174.47 C 176.31 175.42 177.08 176.19 178.03 176.19 C 178.98 176.19 179.76 175.42 179.76 174.47 L 179.76 173.47 C 179.76 172.51 178.98 171.74 178.03 171.74 C 177.08 171.74 176.31 172.51 176.31 173.47 Z M 176.31 174.47 L 176.31 175.44 C 176.31 176.39 177.08 177.16 178.03 177.16 C 178.98 177.16 179.75 176.39 179.75 175.44 L 179.75 174.47 C 179.75 173.52 178.98 172.74 178.03 172.74 C 177.08 172.74 176.31 173.52 176.31 174.47 Z M 176.31 175.44 L 176.31 176.37 C 176.31 177.32 177.08 178.09 178.03 178.09 C 178.98 178.09 179.75 177.32 179.75 176.37 L 179.75 175.44 C 179.75 174.49 178.98 173.72 178.03 173.72 C 177.08 173.72 176.31 174.49 176.31 175.44 Z M 176.31 176.37 L 176.31 177.29 C 176.31 178.24 177.07 179.02 178.02 179.02 C 178.97 179.02 179.75 178.25 179.75 177.30 L 179.75 176.38 C 179.75 175.43 178.98 174.66 178.03 174.65 C 177.08 174.65 176.31 175.42 176.31 176.37 Z M 176.31 177.28 L 176.30 178.26 C 176.29 179.21 177.05 179.99 178.00 180.00 C 178.95 180.00 179.73 179.24 179.74 178.29 L 179.75 177.32 C 179.76 176.37 178.99 175.59 178.04 175.58 C 177.10 175.57 176.32 176.33 176.31 177.28 Z M 176.30 178.24 L 176.28 179.32 C 176.26 180.26 177.02 181.05 177.97 181.07 C 178.91 181.08 179.70 180.33 179.72 179.38 L 179.74 178.31 C 179.75 177.36 179.00 176.58 178.05 176.56 C 177.10 176.54 176.32 177.30 176.30 178.24 Z M 176.28 179.30 L 176.25 180.31 C 176.23 181.25 176.97 182.04 177.92 182.07 C 178.87 182.10 179.66 181.36 179.68 180.41 L 179.71 179.40 C 179.74 178.45 179.00 177.66 178.05 177.63 C 177.10 177.61 176.31 178.35 176.28 179.30 Z M 176.26 180.29 L 176.22 181.25 C 176.18 182.20 176.92 183.00 177.86 183.04 C 178.81 183.07 179.61 182.34 179.64 181.39 L 179.68 180.43 C 179.72 179.48 178.98 178.68 178.04 178.65 C 177.09 178.61 176.29 179.34 176.26 180.29 Z M 176.22 181.23 L 176.17 182.24 C 176.12 183.19 176.84 183.99 177.79 184.04 C 178.73 184.09 179.54 183.37 179.59 182.42 L 179.64 181.41 C 179.69 180.47 178.97 179.66 178.02 179.61 C 177.08 179.56 176.27 180.29 176.22 181.23 Z M 176.17 182.22 L 176.10 183.25 C 176.03 184.19 176.75 185.01 177.69 185.07 C 178.63 185.14 179.45 184.42 179.51 183.48 L 179.58 182.45 C 179.65 181.51 178.94 180.69 177.99 180.62 C 177.05 180.56 176.23 181.27 176.17 182.22 Z M 176.10 183.21 L 176.01 184.24 C 175.93 185.18 176.62 186.01 177.56 186.10 C 178.51 186.18 179.34 185.49 179.42 184.54 L 179.51 183.51 C 179.59 182.57 178.90 181.74 177.96 181.66 C 177.02 181.58 176.19 182.27 176.10 183.21 Z M 176.02 184.20 L 175.90 185.26 C 175.79 186.20 176.46 187.04 177.40 187.15 C 178.34 187.26 179.18 186.59 179.29 185.65 L 179.41 184.59 C 179.52 183.65 178.85 182.80 177.91 182.70 C 176.97 182.59 176.13 183.26 176.02 184.20 Z M 175.91 185.20 L 175.75 186.28 C 175.61 187.21 176.25 188.08 177.18 188.22 C 178.11 188.36 178.98 187.72 179.12 186.79 L 179.28 185.71 C 179.42 184.78 178.78 183.91 177.85 183.77 C 176.92 183.63 176.05 184.27 175.91 185.20 Z M 175.76 186.21 L 175.56 187.22 C 175.38 188.14 175.98 189.03 176.91 189.21 C 177.83 189.39 178.72 188.79 178.90 187.87 L 179.10 186.86 C 179.28 185.94 178.68 185.05 177.76 184.87 C 176.84 184.68 175.94 185.29 175.76 186.21 Z M 175.59 187.13 L 175.35 188.05 C 175.12 188.96 175.67 189.89 176.58 190.12 C 177.48 190.35 178.41 189.80 178.64 188.89 L 178.88 187.96 C 179.11 187.06 178.56 186.13 177.65 185.90 C 176.74 185.67 175.82 186.22 175.59 187.13 Z M 175.39 187.94 L 175.11 188.77 C 174.82 189.66 175.30 190.62 176.18 190.91 C 177.07 191.21 178.03 190.73 178.32 189.84 L 178.60 189.01 C 178.90 188.12 178.42 187.16 177.53 186.87 C 176.64 186.57 175.69 187.05 175.39 187.94 Z M 175.20 188.57 L 174.68 189.64 C 174.27 190.48 174.62 191.49 175.46 191.90 C 176.29 192.30 177.30 191.96 177.71 191.12 L 178.23 190.05 C 178.64 189.21 178.29 188.20 177.46 187.79 C 176.62 187.39 175.61 187.73 175.20 188.57 Z M 174.98 189.23 L 174.32 189.93 C 173.69 190.60 173.72 191.66 174.39 192.30 C 175.07 192.93 176.13 192.90 176.76 192.22 L 177.41 191.53 C 178.05 190.86 178.02 189.80 177.34 189.16 C 176.67 188.53 175.61 188.56 174.98 189.23 Z M 175.33 189.43 L 174.59 189.52 C 173.68 189.64 173.04 190.48 173.16 191.39 C 173.28 192.30 174.11 192.94 175.02 192.82 L 175.76 192.73 C 176.67 192.61 177.31 191.77 177.19 190.86 C 177.07 189.95 176.24 189.31 175.33 189.43 Z M 175.68 189.78 L 175.03 189.37 C 174.26 188.89 173.25 189.12 172.76 189.89 C 172.28 190.66 172.51 191.68 173.28 192.16 L 173.93 192.57 C 174.70 193.05 175.72 192.82 176.20 192.05 C 176.68 191.28 176.45 190.26 175.68 189.78 Z M 175.36 189.67 L 174.68 188.93 C 174.08 188.27 173.05 188.22 172.39 188.83 C 171.73 189.43 171.68 190.45 172.29 191.12 L 172.96 191.86 C 173.56 192.52 174.59 192.57 175.25 191.96 C 175.91 191.36 175.96 190.34 175.36 189.67 Z M 174.78 189.10 L 174.12 188.16 C 173.61 187.44 172.61 187.27 171.89 187.78 C 171.17 188.29 171.00 189.29 171.51 190.00 L 172.18 190.95 C 172.69 191.67 173.69 191.84 174.41 191.33 C 175.13 190.82 175.29 189.82 174.78 189.10 Z M 174.15 188.24 L 173.60 187.37 C 173.14 186.64 172.16 186.41 171.43 186.88 C 170.69 187.34 170.47 188.32 170.93 189.05 L 171.48 189.92 C 171.94 190.66 172.92 190.88 173.65 190.42 C 174.39 189.95 174.61 188.98 174.15 188.24 Z M 173.62 187.41 L 173.15 186.62 C 172.71 185.88 171.74 185.63 171.00 186.08 C 170.25 186.52 170.01 187.48 170.45 188.23 L 170.92 189.02 C 171.36 189.76 172.32 190.01 173.07 189.56 C 173.82 189.12 174.06 188.16 173.62 187.41 Z M 173.16 186.64 L 172.68 185.81 C 172.24 185.06 171.28 184.80 170.53 185.24 C 169.78 185.67 169.53 186.63 169.96 187.38 L 170.44 188.21 C 170.88 188.96 171.84 189.22 172.59 188.78 C 173.33 188.35 173.59 187.39 173.16 186.64 Z M 172.67 185.81 L 172.16 184.92 C 171.72 184.17 170.77 183.92 170.02 184.35 C 169.27 184.78 169.01 185.74 169.45 186.49 L 169.96 187.38 C 170.40 188.13 171.35 188.38 172.10 187.95 C 172.85 187.52 173.11 186.56 172.67 185.81 Z M 172.15 184.91 L 171.57 183.94 C 171.13 183.19 170.17 182.95 169.43 183.39 C 168.69 183.82 168.44 184.78 168.88 185.53 L 169.46 186.50 C 169.90 187.24 170.85 187.49 171.60 187.05 C 172.34 186.61 172.59 185.65 172.15 184.91 Z M 171.56 183.92 L 171.09 183.14 C 170.64 182.40 169.68 182.17 168.94 182.61 C 168.20 183.06 167.97 184.02 168.42 184.76 L 168.89 185.54 C 169.34 186.28 170.30 186.51 171.04 186.06 C 171.77 185.62 172.01 184.66 171.56 183.92 Z M 171.08 183.13 L 170.58 182.33 C 170.13 181.60 169.17 181.37 168.44 181.83 C 167.70 182.28 167.48 183.24 167.93 183.98 L 168.42 184.77 C 168.88 185.50 169.84 185.73 170.57 185.28 C 171.31 184.82 171.53 183.86 171.08 183.13 Z M 170.58 182.32 L 170.06 181.49 C 169.60 180.76 168.63 180.54 167.90 181.00 C 167.17 181.46 166.95 182.42 167.41 183.15 L 167.94 183.98 C 168.40 184.71 169.36 184.93 170.09 184.47 C 170.82 184.02 171.04 183.05 170.58 182.32 Z M 170.05 181.48 L 169.50 180.62 C 169.04 179.89 168.08 179.68 167.35 180.14 C 166.62 180.60 166.41 181.57 166.87 182.30 L 167.42 183.16 C 167.88 183.89 168.84 184.10 169.57 183.64 C 170.30 183.18 170.51 182.21 170.05 181.48 Z M 169.50 180.62 L 168.94 179.74 C 168.47 179.01 167.51 178.80 166.78 179.26 C 166.05 179.73 165.84 180.69 166.31 181.42 L 166.87 182.30 C 167.34 183.03 168.30 183.24 169.03 182.77 C 169.75 182.31 169.97 181.34 169.50 180.62 Z M 168.93 179.73 L 168.36 178.84 C 167.89 178.11 166.93 177.90 166.20 178.37 C 165.48 178.83 165.27 179.80 165.73 180.53 L 166.31 181.42 C 166.77 182.15 167.74 182.36 168.47 181.89 C 169.19 181.42 169.40 180.46 168.93 179.73 Z M 168.36 178.84 L 167.94 178.18 C 167.47 177.46 166.50 177.25 165.78 177.72 C 165.06 178.18 164.85 179.15 165.31 179.87 L 165.73 180.53 C 166.20 181.25 167.17 181.46 167.89 180.99 C 168.62 180.53 168.82 179.56 168.36 178.84 Z"
      fill="black"
      fill-rule="nonzero" /><path d="M 163.58 152.18 L 163.16 153.12 C 162.76 153.99 163.16 155.03 164.03 155.42 C 164.91 155.81 165.94 155.42 166.34 154.54 L 166.76 153.61 C 167.15 152.73 166.76 151.70 165.88 151.31 C 165.00 150.91 163.97 151.30 163.58 152.18 Z M 163.15 153.11 L 162.73 154.04 C 162.34 154.92 162.73 155.95 163.61 156.35 C 164.49 156.75 165.53 156.36 165.92 155.48 L 166.34 154.55 C 166.74 153.67 166.35 152.63 165.47 152.23 C 164.59 151.84 163.55 152.23 163.15 153.11 Z M 162.73 154.03 L 162.32 154.93 C 161.91 155.82 162.30 156.86 163.19 157.26 C 164.07 157.67 165.11 157.28 165.52 156.39 L 165.93 155.49 C 166.33 154.60 165.94 153.56 165.06 153.16 C 164.18 152.75 163.13 153.14 162.73 154.03 Z M 162.31 154.92 L 161.90 155.79 C 161.49 156.68 161.88 157.73 162.76 158.14 C 163.65 158.56 164.70 158.17 165.11 157.29 L 165.52 156.41 C 165.93 155.52 165.55 154.47 164.66 154.06 C 163.78 153.65 162.72 154.03 162.31 154.92 Z M 161.91 155.78 L 161.48 156.69 C 161.06 157.58 161.43 158.63 162.31 159.05 C 163.19 159.47 164.25 159.09 164.67 158.21 L 165.10 157.30 C 165.52 156.42 165.15 155.37 164.27 154.95 C 163.39 154.53 162.33 154.90 161.91 155.78 Z M 161.50 156.69 L 161.06 157.59 C 160.64 158.46 161.01 159.51 161.88 159.93 C 162.75 160.35 163.80 159.98 164.22 159.11 L 164.65 158.21 C 165.07 157.34 164.70 156.30 163.83 155.88 C 162.96 155.46 161.92 155.82 161.50 156.69 Z M 161.08 157.60 L 160.65 158.49 C 160.24 159.35 160.60 160.39 161.46 160.80 C 162.33 161.22 163.36 160.85 163.78 159.99 L 164.20 159.10 C 164.62 158.23 164.25 157.20 163.39 156.79 C 162.53 156.37 161.49 156.74 161.08 157.60 Z M 160.66 158.51 L 160.24 159.41 C 159.84 160.27 160.21 161.29 161.07 161.69 C 161.93 162.10 162.95 161.72 163.35 160.87 L 163.77 159.97 C 164.17 159.11 163.80 158.09 162.94 157.68 C 162.08 157.28 161.06 157.65 160.66 158.51 Z M 160.24 159.44 L 159.85 160.31 C 159.46 161.17 159.84 162.18 160.70 162.56 C 161.56 162.95 162.57 162.57 162.95 161.71 L 163.35 160.84 C 163.73 159.98 163.35 158.97 162.49 158.59 C 161.64 158.20 160.63 158.58 160.24 159.44 Z M 159.85 160.33 L 159.46 161.24 C 159.08 162.09 159.47 163.09 160.33 163.46 C 161.18 163.84 162.18 163.45 162.55 162.59 L 162.95 161.69 C 163.32 160.83 162.93 159.84 162.08 159.46 C 161.22 159.09 160.23 159.48 159.85 160.33 Z M 159.47 161.26 L 159.07 162.20 C 158.70 163.05 159.10 164.03 159.95 164.39 C 160.80 164.76 161.78 164.36 162.14 163.51 L 162.54 162.57 C 162.91 161.72 162.51 160.74 161.66 160.38 C 160.81 160.01 159.83 160.41 159.47 161.26 Z M 159.07 162.21 L 158.68 163.16 C 158.32 164.00 158.72 164.98 159.57 165.33 C 160.41 165.69 161.38 165.29 161.74 164.44 L 162.14 163.50 C 162.49 162.65 162.09 161.68 161.25 161.32 C 160.40 160.97 159.43 161.37 159.07 162.21 Z M 158.68 163.17 L 158.37 163.94 C 158.02 164.78 158.42 165.75 159.26 166.09 C 160.10 166.44 161.07 166.04 161.41 165.20 L 161.73 164.43 C 162.08 163.59 161.68 162.62 160.84 162.28 C 160.00 161.93 159.03 162.33 158.68 163.17 Z M 158.37 163.96 L 158.04 164.77 C 157.70 165.61 158.10 166.57 158.94 166.91 C 159.78 167.25 160.74 166.84 161.08 166.00 L 161.41 165.18 C 161.75 164.35 161.34 163.39 160.50 163.05 C 159.67 162.71 158.71 163.12 158.37 163.96 Z M 158.04 164.79 L 157.69 165.69 C 157.36 166.52 157.77 167.47 158.61 167.80 C 159.45 168.13 160.39 167.72 160.72 166.88 L 161.07 165.99 C 161.40 165.15 160.99 164.20 160.16 163.87 C 159.32 163.54 158.37 163.95 158.04 164.79 Z M 157.69 165.71 L 157.31 166.71 C 156.99 167.54 157.41 168.48 158.24 168.80 C 159.08 169.12 160.02 168.70 160.33 167.86 L 160.72 166.86 C 161.04 166.03 160.62 165.09 159.78 164.77 C 158.95 164.45 158.01 164.87 157.69 165.71 Z M 157.32 166.73 L 156.89 167.86 C 156.59 168.69 157.01 169.62 157.84 169.93 C 158.68 170.23 159.60 169.81 159.91 168.98 L 160.33 167.84 C 160.64 167.01 160.22 166.09 159.38 165.78 C 158.55 165.47 157.62 165.89 157.32 166.73 Z M 156.90 167.87 L 156.56 168.81 C 156.26 169.64 156.69 170.56 157.52 170.86 C 158.35 171.16 159.27 170.73 159.57 169.90 L 159.91 168.96 C 160.21 168.13 159.78 167.21 158.95 166.91 C 158.12 166.61 157.20 167.04 156.90 167.87 Z M 156.56 168.82 L 156.23 169.74 C 155.94 170.57 156.37 171.48 157.20 171.78 C 158.03 172.08 158.94 171.64 159.24 170.81 L 159.57 169.89 C 159.86 169.06 159.43 168.15 158.60 167.85 C 157.77 167.56 156.86 167.99 156.56 168.82 Z M 156.23 169.75 L 155.90 170.71 C 155.60 171.54 156.04 172.45 156.87 172.74 C 157.70 173.03 158.60 172.60 158.90 171.77 L 159.24 170.81 C 159.53 169.98 159.09 169.07 158.26 168.78 C 157.44 168.48 156.53 168.92 156.23 169.75 Z M 155.90 170.72 L 155.55 171.70 C 155.26 172.53 155.70 173.44 156.53 173.72 C 157.35 174.01 158.26 173.58 158.55 172.75 L 158.89 171.76 C 159.18 170.94 158.75 170.03 157.92 169.74 C 157.09 169.45 156.19 169.89 155.90 170.72 Z M 155.56 171.71 L 155.21 172.70 C 154.93 173.52 155.36 174.42 156.19 174.71 C 157.01 175.00 157.91 174.56 158.20 173.74 L 158.55 172.75 C 158.83 171.92 158.40 171.02 157.57 170.73 C 156.75 170.45 155.84 170.88 155.56 171.71 Z M 155.22 172.70 L 154.88 173.68 C 154.59 174.50 155.03 175.40 155.85 175.68 C 156.68 175.97 157.57 175.53 157.86 174.71 L 158.20 173.73 C 158.48 172.91 158.05 172.01 157.22 171.73 C 156.40 171.44 155.50 171.88 155.22 172.70 Z M 154.88 173.68 L 154.56 174.62 C 154.27 175.44 154.71 176.34 155.53 176.62 C 156.35 176.91 157.25 176.47 157.53 175.65 L 157.86 174.71 C 158.14 173.89 157.70 172.99 156.88 172.71 C 156.06 172.42 155.17 172.86 154.88 173.68 Z M 154.56 174.62 L 154.25 175.51 C 153.97 176.33 154.40 177.22 155.22 177.51 C 156.04 177.79 156.93 177.36 157.22 176.54 L 157.53 175.65 C 157.81 174.83 157.37 173.94 156.56 173.65 C 155.74 173.37 154.84 173.80 154.56 174.62 Z M 154.26 175.51 L 153.86 176.65 C 153.58 177.46 154.01 178.36 154.83 178.64 C 155.64 178.92 156.54 178.49 156.82 177.67 L 157.21 176.54 C 157.50 175.72 157.07 174.83 156.25 174.55 C 155.43 174.26 154.54 174.69 154.26 175.51 Z M 153.86 176.65 L 153.51 177.67 C 153.22 178.49 153.65 179.38 154.47 179.66 C 155.28 179.95 156.18 179.52 156.46 178.70 L 156.82 177.68 C 157.10 176.86 156.67 175.97 155.86 175.68 C 155.04 175.40 154.15 175.83 153.86 176.65 Z M 153.51 177.67 L 153.18 178.60 C 152.89 179.42 153.32 180.31 154.14 180.60 C 154.95 180.88 155.85 180.45 156.13 179.64 L 156.46 178.70 C 156.74 177.89 156.32 177.00 155.50 176.71 C 154.69 176.42 153.79 176.85 153.51 177.67 Z M 153.18 178.60 L 152.88 179.47 C 152.59 180.29 153.02 181.18 153.83 181.46 C 154.65 181.75 155.54 181.32 155.83 180.51 L 156.13 179.64 C 156.42 178.82 155.99 177.93 155.17 177.65 C 154.36 177.36 153.47 177.79 153.18 178.60 Z M 152.88 179.47 L 152.59 180.30 C 152.30 181.11 152.73 182.00 153.54 182.29 C 154.35 182.58 155.25 182.15 155.53 181.34 L 155.82 180.51 C 156.11 179.69 155.68 178.80 154.87 178.52 C 154.06 178.23 153.16 178.66 152.88 179.47 Z M 152.59 180.30 L 152.42 180.77 C 152.14 181.58 152.56 182.47 153.37 182.76 C 154.19 183.04 155.08 182.62 155.37 181.80 L 155.53 181.34 C 155.82 180.52 155.39 179.63 154.58 179.35 C 153.77 179.06 152.87 179.48 152.59 180.30 Z"
      fill="black"
      fill-rule="nonzero" /><path d="M 177.94 159.00 L 179.00 158.98 C 179.95 158.95 180.71 158.16 180.69 157.21 C 180.66 156.26 179.87 155.50 178.92 155.52 L 177.86 155.55 C 176.91 155.57 176.15 156.36 176.17 157.31 C 176.19 158.26 176.98 159.02 177.94 159.00 Z M 178.97 158.98 L 180.02 158.97 C 180.98 158.96 181.74 158.18 181.73 157.22 C 181.73 156.27 180.94 155.50 179.99 155.51 L 178.94 155.52 C 177.99 155.53 177.22 156.31 177.23 157.27 C 177.23 158.22 178.02 158.99 178.97 158.98 Z M 179.97 158.98 L 180.99 158.99 C 181.95 159.01 182.74 158.25 182.75 157.29 C 182.77 156.33 182.01 155.54 181.05 155.52 L 180.03 155.50 C 179.07 155.49 178.28 156.25 178.27 157.21 C 178.25 158.17 179.01 158.96 179.97 158.98 Z M 180.91 158.99 L 181.88 159.05 C 182.84 159.11 183.67 158.38 183.73 157.42 C 183.78 156.46 183.05 155.64 182.09 155.58 L 181.12 155.52 C 180.16 155.46 179.34 156.19 179.28 157.15 C 179.22 158.11 179.95 158.94 180.91 158.99 Z M 181.77 159.05 L 182.68 159.16 C 183.64 159.28 184.51 158.61 184.63 157.65 C 184.75 156.69 184.07 155.82 183.12 155.70 L 182.21 155.59 C 181.25 155.46 180.38 156.14 180.26 157.10 C 180.14 158.05 180.81 158.93 181.77 159.05 Z M 182.51 159.14 L 183.50 159.36 C 184.44 159.58 185.38 158.98 185.59 158.04 C 185.81 157.09 185.21 156.15 184.27 155.94 L 183.29 155.72 C 182.34 155.51 181.40 156.10 181.19 157.05 C 180.98 157.99 181.57 158.93 182.51 159.14 Z M 183.30 159.32 L 184.23 159.65 C 185.15 159.97 186.16 159.48 186.48 158.56 C 186.80 157.64 186.31 156.63 185.39 156.31 L 184.47 155.98 C 183.54 155.66 182.54 156.15 182.21 157.07 C 181.89 157.99 182.38 159.00 183.30 159.32 Z M 184.05 159.59 L 184.93 160.00 C 185.82 160.42 186.88 160.04 187.30 159.15 C 187.72 158.26 187.34 157.20 186.45 156.78 L 185.57 156.36 C 184.68 155.94 183.62 156.32 183.20 157.21 C 182.78 158.11 183.16 159.17 184.05 159.59 Z M 184.79 159.95 L 185.66 160.45 C 186.52 160.95 187.62 160.65 188.12 159.79 C 188.61 158.94 188.32 157.84 187.46 157.34 L 186.59 156.84 C 185.73 156.34 184.63 156.63 184.13 157.49 C 183.64 158.35 183.93 159.45 184.79 159.95 Z M 185.57 160.41 L 186.38 160.94 C 187.21 161.48 188.33 161.25 188.88 160.41 C 189.43 159.57 189.19 158.45 188.36 157.91 L 187.55 157.38 C 186.71 156.83 185.59 157.07 185.04 157.90 C 184.50 158.74 184.73 159.86 185.57 160.41 Z M 186.32 160.91 L 187.10 161.46 C 187.92 162.04 189.05 161.84 189.63 161.02 C 190.21 160.20 190.02 159.06 189.19 158.48 L 188.41 157.93 C 187.59 157.35 186.46 157.55 185.88 158.37 C 185.30 159.19 185.49 160.33 186.32 160.91 Z M 187.05 161.44 L 187.85 162.03 C 188.66 162.64 189.80 162.47 190.41 161.66 C 191.01 160.85 190.85 159.70 190.04 159.10 L 189.24 158.50 C 188.43 157.90 187.28 158.07 186.68 158.88 C 186.07 159.69 186.24 160.83 187.05 161.44 Z M 187.81 162.01 L 188.62 162.65 C 189.42 163.27 190.57 163.13 191.20 162.33 C 191.82 161.53 191.68 160.38 190.88 159.75 L 190.07 159.12 C 189.27 158.49 188.12 158.63 187.49 159.43 C 186.87 160.23 187.01 161.39 187.81 162.01 Z M 188.58 162.63 L 189.40 163.30 C 190.19 163.94 191.35 163.82 192.00 163.03 C 192.64 162.24 192.52 161.07 191.73 160.43 L 190.92 159.77 C 190.12 159.12 188.96 159.24 188.32 160.03 C 187.67 160.82 187.79 161.99 188.58 162.63 Z M 189.37 163.28 L 190.19 163.96 C 190.97 164.62 192.14 164.52 192.80 163.74 C 193.45 162.96 193.35 161.79 192.57 161.13 L 191.76 160.45 C 190.98 159.79 189.81 159.89 189.15 160.67 C 188.49 161.45 188.59 162.62 189.37 163.28 Z M 190.17 163.95 L 190.97 164.64 C 191.74 165.31 192.91 165.22 193.58 164.45 C 194.25 163.67 194.16 162.50 193.39 161.83 L 192.59 161.14 C 191.81 160.47 190.64 160.56 189.97 161.33 C 189.30 162.11 189.39 163.28 190.17 163.95 Z M 190.95 164.63 L 191.73 165.31 C 192.50 165.99 193.67 165.91 194.35 165.14 C 195.02 164.38 194.95 163.20 194.18 162.53 L 193.40 161.84 C 192.63 161.17 191.46 161.24 190.78 162.01 C 190.11 162.78 190.18 163.95 190.95 164.63 Z M 191.72 165.30 L 192.47 165.97 C 193.23 166.65 194.40 166.58 195.08 165.82 C 195.77 165.05 195.70 163.88 194.93 163.20 L 194.19 162.53 C 193.42 161.85 192.25 161.92 191.57 162.69 C 190.89 163.45 190.96 164.62 191.72 165.30 Z M 192.46 165.96 L 193.16 166.59 C 193.92 167.27 195.09 167.21 195.78 166.45 C 196.46 165.68 196.40 164.51 195.64 163.83 L 194.94 163.20 C 194.18 162.52 193.00 162.58 192.32 163.34 C 191.64 164.11 191.70 165.28 192.46 165.96 Z M 193.16 166.59 L 193.93 167.28 C 194.69 167.96 195.86 167.90 196.54 167.14 C 197.23 166.37 197.16 165.20 196.40 164.52 L 195.64 163.83 C 194.87 163.14 193.70 163.21 193.02 163.97 C 192.33 164.73 192.40 165.90 193.16 166.59 Z M 193.93 167.28 L 194.72 167.99 C 195.48 168.67 196.65 168.61 197.34 167.84 C 198.02 167.08 197.95 165.91 197.19 165.23 L 196.40 164.52 C 195.64 163.84 194.47 163.90 193.79 164.66 C 193.10 165.42 193.17 166.59 193.93 167.28 Z M 194.72 167.98 L 195.43 168.62 C 196.19 169.31 197.36 169.24 198.04 168.48 C 198.73 167.72 198.66 166.55 197.90 165.87 L 197.19 165.23 C 196.43 164.55 195.26 164.61 194.58 165.37 C 193.90 166.13 193.96 167.30 194.72 167.98 Z M 195.43 168.61 L 196.09 169.22 C 196.85 169.90 198.01 169.85 198.70 169.09 C 199.38 168.33 199.33 167.17 198.57 166.48 L 197.91 165.88 C 197.15 165.19 195.99 165.25 195.30 166.01 C 194.62 166.76 194.67 167.93 195.43 168.61 Z M 196.08 169.21 L 196.81 169.87 C 197.56 170.56 198.73 170.52 199.42 169.77 C 200.10 169.02 200.06 167.85 199.31 167.16 L 198.58 166.49 C 197.83 165.80 196.66 165.85 195.98 166.60 C 195.29 167.35 195.33 168.52 196.08 169.21 Z M 196.82 169.87 L 197.55 170.54 C 198.29 171.23 199.46 171.18 200.14 170.44 C 200.83 169.69 200.78 168.53 200.04 167.84 L 199.30 167.17 C 198.56 166.48 197.40 166.53 196.71 167.27 C 196.02 168.02 196.07 169.18 196.82 169.87 Z M 197.56 170.55 L 198.31 171.22 C 199.05 171.90 200.21 171.85 200.89 171.10 C 201.57 170.35 201.51 169.19 200.77 168.51 L 200.02 167.84 C 199.27 167.16 198.12 167.22 197.44 167.96 C 196.76 168.71 196.81 169.87 197.56 170.55 Z M 198.33 171.24 L 199.06 171.88 C 199.82 172.55 200.97 172.47 201.63 171.72 C 202.30 170.96 202.23 169.81 201.47 169.14 L 200.74 168.50 C 199.98 167.84 198.83 167.91 198.17 168.66 C 197.50 169.42 197.58 170.57 198.33 171.24 Z M 199.09 171.90 L 199.84 172.53 C 200.61 173.18 201.75 173.09 202.40 172.33 C 203.05 171.56 202.96 170.42 202.19 169.77 L 201.44 169.13 C 200.68 168.48 199.53 168.57 198.88 169.34 C 198.23 170.10 198.33 171.25 199.09 171.90 Z M 199.87 172.55 L 200.66 173.19 C 201.43 173.83 202.57 173.71 203.20 172.94 C 203.84 172.17 203.72 171.03 202.95 170.40 L 202.16 169.75 C 201.39 169.12 200.25 169.23 199.62 170.01 C 198.99 170.78 199.10 171.92 199.87 172.55 Z M 200.69 173.21 L 201.49 173.84 C 202.27 174.46 203.41 174.32 204.02 173.54 C 204.64 172.76 204.50 171.63 203.72 171.01 L 202.92 170.38 C 202.14 169.77 201.01 169.90 200.39 170.68 C 199.78 171.46 199.91 172.59 200.69 173.21 Z M 201.52 173.85 L 202.32 174.46 C 203.11 175.06 204.23 174.91 204.83 174.13 C 205.43 173.34 205.28 172.22 204.50 171.62 L 203.69 171.01 C 202.91 170.41 201.79 170.56 201.19 171.34 C 200.59 172.13 200.74 173.25 201.52 173.85 Z M 202.34 174.46 L 203.15 175.07 C 203.94 175.66 205.05 175.50 205.64 174.71 C 206.23 173.93 206.07 172.81 205.29 172.22 L 204.48 171.62 C 203.69 171.03 202.57 171.19 201.98 171.97 C 201.40 172.76 201.56 173.88 202.34 174.46 Z M 203.17 175.07 L 203.96 175.66 C 204.75 176.24 205.85 176.07 206.44 175.29 C 207.02 174.50 206.85 173.39 206.07 172.81 L 205.27 172.22 C 204.49 171.64 203.38 171.81 202.80 172.59 C 202.22 173.38 202.38 174.49 203.17 175.07 Z M 203.97 175.65 L 204.72 176.21 C 205.51 176.78 206.61 176.62 207.19 175.83 C 207.76 175.05 207.59 173.95 206.81 173.37 L 206.06 172.82 C 205.28 172.24 204.17 172.41 203.60 173.19 C 203.02 173.97 203.19 175.07 203.97 175.65 Z M 204.74 176.21 L 205.50 176.76 C 206.28 177.33 207.38 177.15 207.95 176.37 C 208.52 175.59 208.34 174.49 207.56 173.92 L 206.80 173.37 C 206.01 172.80 204.92 172.98 204.35 173.76 C 203.78 174.54 203.96 175.64 204.74 176.21 Z M 205.52 176.77 L 206.35 177.35 C 207.14 177.91 208.23 177.72 208.78 176.93 C 209.34 176.14 209.15 175.05 208.36 174.50 L 207.53 173.92 C 206.75 173.36 205.66 173.55 205.10 174.34 C 204.55 175.12 204.74 176.21 205.52 176.77 Z M 206.38 177.36 L 207.27 177.97 C 208.06 178.51 209.14 178.30 209.68 177.51 C 210.22 176.72 210.02 175.64 209.23 175.10 L 208.33 174.49 C 207.54 173.95 206.46 174.16 205.92 174.95 C 205.38 175.74 205.59 176.82 206.38 177.36 Z M 207.30 177.98 L 208.06 178.48 C 208.86 179.01 209.93 178.79 210.45 177.99 C 210.98 177.20 210.76 176.12 209.97 175.60 L 209.20 175.09 C 208.41 174.57 207.33 174.78 206.81 175.58 C 206.28 176.38 206.50 177.45 207.30 177.98 Z M 208.08 178.49 L 208.91 179.02 C 209.71 179.53 210.77 179.30 211.29 178.50 C 211.80 177.70 211.57 176.64 210.77 176.12 L 209.95 175.59 C 209.15 175.08 208.08 175.31 207.57 176.11 C 207.05 176.91 207.28 177.97 208.08 178.49 Z M 208.93 179.02 L 209.80 179.57 C 210.61 180.07 211.66 179.83 212.17 179.03 C 212.67 178.22 212.43 177.17 211.62 176.66 L 210.75 176.12 C 209.95 175.61 208.89 175.86 208.39 176.66 C 207.88 177.46 208.13 178.52 208.93 179.02 Z M 209.83 179.58 L 210.73 180.12 C 211.53 180.61 212.58 180.35 213.07 179.55 C 213.56 178.74 213.30 177.69 212.50 177.20 L 211.60 176.66 C 210.79 176.17 209.74 176.42 209.25 177.23 C 208.76 178.04 209.02 179.09 209.83 179.58 Z M 210.75 180.13 L 211.66 180.66 C 212.47 181.13 213.51 180.86 213.99 180.05 C 214.46 179.24 214.19 178.19 213.37 177.72 L 212.47 177.19 C 211.66 176.72 210.61 176.99 210.14 177.80 C 209.67 178.62 209.94 179.66 210.75 180.13 Z M 211.69 180.67 L 212.61 181.18 C 213.43 181.63 214.46 181.34 214.91 180.52 C 215.36 179.71 215.07 178.68 214.26 178.22 L 213.34 177.71 C 212.52 177.26 211.49 177.55 211.04 178.37 C 210.59 179.18 210.88 180.21 211.69 180.67 Z M 212.64 181.18 L 213.55 181.66 C 214.36 182.10 215.38 181.79 215.82 180.97 C 216.25 180.16 215.94 179.14 215.13 178.70 L 214.22 178.22 C 213.41 177.79 212.39 178.09 211.95 178.91 C 211.52 179.73 211.83 180.74 212.64 181.18 Z M 213.58 181.66 L 214.46 182.12 C 215.28 182.54 216.28 182.22 216.70 181.40 C 217.12 180.58 216.80 179.58 215.99 179.16 L 215.10 178.71 C 214.28 178.29 213.28 178.61 212.86 179.42 C 212.44 180.24 212.76 181.24 213.58 181.66 Z M 214.49 182.11 L 215.36 182.55 C 216.17 182.95 217.16 182.62 217.57 181.81 C 217.98 181.00 217.65 180.01 216.83 179.60 L 215.96 179.17 C 215.15 178.76 214.16 179.09 213.75 179.90 C 213.35 180.72 213.68 181.71 214.49 182.11 Z M 215.38 182.54 L 216.24 182.96 C 217.05 183.36 218.02 183.02 218.42 182.21 C 218.81 181.40 218.48 180.42 217.67 180.03 L 216.81 179.61 C 216.00 179.21 215.03 179.55 214.63 180.36 C 214.23 181.17 214.57 182.15 215.38 182.54 Z M 216.25 182.95 L 217.20 183.41 C 218.00 183.80 218.97 183.46 219.36 182.65 C 219.75 181.85 219.41 180.88 218.60 180.49 L 217.65 180.03 C 216.85 179.65 215.88 179.99 215.49 180.79 C 215.11 181.60 215.44 182.56 216.25 182.95 Z M 217.20 183.40 L 218.12 183.84 C 218.92 184.22 219.88 183.89 220.27 183.09 C 220.65 182.29 220.31 181.33 219.52 180.95 L 218.60 180.50 C 217.80 180.12 216.84 180.45 216.45 181.25 C 216.07 182.05 216.40 183.01 217.20 183.40 Z M 218.12 183.82 L 219.01 184.26 C 219.80 184.64 220.75 184.32 221.14 183.53 C 221.52 182.74 221.20 181.78 220.41 181.40 L 219.52 180.96 C 218.73 180.58 217.78 180.90 217.39 181.69 C 217.00 182.48 217.33 183.44 218.12 183.82 Z M 219.00 184.24 L 219.85 184.67 C 220.63 185.06 221.58 184.75 221.97 183.97 C 222.37 183.19 222.06 182.24 221.28 181.85 L 220.42 181.42 C 219.64 181.02 218.69 181.34 218.30 182.11 C 217.91 182.89 218.22 183.84 219.00 184.24 Z M 219.83 184.65 L 220.71 185.11 C 221.47 185.52 222.42 185.23 222.83 184.46 C 223.24 183.70 222.95 182.75 222.18 182.34 L 221.30 181.87 C 220.54 181.47 219.59 181.76 219.18 182.52 C 218.77 183.29 219.06 184.24 219.83 184.65 Z M 220.68 185.09 L 221.56 185.59 C 222.32 186.01 223.27 185.74 223.69 184.99 C 224.12 184.23 223.85 183.28 223.09 182.86 L 222.21 182.36 C 221.46 181.94 220.50 182.21 220.08 182.96 C 219.66 183.72 219.93 184.67 220.68 185.09 Z M 221.54 185.57 L 222.40 186.07 C 223.14 186.51 224.10 186.26 224.54 185.51 C 224.97 184.76 224.72 183.81 223.97 183.37 L 223.12 182.87 C 222.37 182.44 221.41 182.69 220.98 183.44 C 220.54 184.18 220.79 185.14 221.54 185.57 Z M 222.39 186.06 L 223.23 186.57 C 223.97 187.01 224.93 186.77 225.37 186.03 C 225.81 185.28 225.57 184.33 224.83 183.88 L 223.99 183.38 C 223.24 182.94 222.29 183.18 221.84 183.92 C 221.40 184.66 221.64 185.62 222.39 186.06 Z M 223.23 186.56 L 223.51 186.74 C 224.25 187.18 225.21 186.94 225.65 186.20 C 226.10 185.46 225.86 184.50 225.12 184.06 L 224.83 183.89 C 224.09 183.44 223.13 183.68 222.69 184.42 C 222.25 185.16 222.49 186.12 223.23 186.56 Z"
      fill="black"
      fill-rule="nonzero" /></svg>