<svg xmlns="http://www.w3.org/2000/svg" width="300" height="300" viewBox="0 0 300 300">
<path d="M 124.17 127.73 L 124.61 128.65 C 125.00 129.47 125.97 129.81 126.79 129.43 C 127.60 129.04 127.95 128.06 127.56 127.25 L 127.12 126.32 C 126.73 125.51 125.76 125.16 124.94 125.55 C 124.13 125.94 123.78 126.91 124.17 127.73 Z M 124.58 128.62 L 125.00 129.54 C 125.36 130.37 126.33 130.75 127.16 130.38 C 127.99 130.01 128.37 129.04 128.00 128.21 L 127.59 127.28 C 127.22 126.45 126.25 126.08 125.42 126.45 C 124.59 126.82 124.22 127.79 124.58 128.62 Z M 124.95 129.46 L 125.30 130.39 C 125.63 131.24 126.58 131.67 127.44 131.35 C 128.29 131.03 128.72 130.07 128.40 129.22 L 128.04 128.29 C 127.72 127.44 126.76 127.01 125.91 127.33 C 125.06 127.65 124.63 128.61 124.95 129.46 Z M 125.25 130.26 L 125.51 131.19 C 125.76 132.07 126.68 132.59 127.57 132.34 C 128.45 132.09 128.96 131.17 128.71 130.28 L 128.45 129.35 C 128.20 128.47 127.28 127.95 126.40 128.20 C 125.51 128.45 125.00 129.37 125.25 130.26 Z M 125.47 131.01 L 125.63 131.99 C 125.78 132.89 126.64 133.51 127.55 133.36 C 128.46 133.21 129.07 132.35 128.92 131.44 L 128.76 130.46 C 128.61 129.55 127.75 128.94 126.84 129.09 C 125.93 129.24 125.32 130.10 125.47 131.01 Z M 125.62 131.84 L 125.69 132.82 C 125.76 133.74 126.56 134.43 127.47 134.36 C 128.39 134.29 129.08 133.49 129.01 132.58 L 128.93 131.59 C 128.86 130.67 128.07 129.99 127.15 130.06 C 126.24 130.12 125.55 130.92 125.62 131.84 Z M 125.69 132.73 L 125.71 133.74 C 125.73 134.65 126.49 135.38 127.40 135.36 C 128.32 135.34 129.05 134.59 129.03 133.67 L 129.01 132.67 C 128.99 131.75 128.23 131.02 127.32 131.04 C 126.40 131.06 125.67 131.82 125.69 132.73 Z M 125.71 133.71 L 125.72 134.69 C 125.72 135.61 126.46 136.35 127.37 136.35 C 128.29 136.34 129.03 135.60 129.02 134.69 L 129.02 133.70 C 129.02 132.79 128.28 132.05 127.37 132.05 C 126.45 132.05 125.71 132.79 125.71 133.71 Z M 125.72 134.69 L 125.72 135.66 C 125.72 136.57 126.46 137.30 127.37 137.30 C 128.28 137.30 129.02 136.57 129.02 135.66 L 129.02 134.69 C 129.02 133.78 128.28 133.04 127.37 133.04 C 126.46 133.04 125.72 133.78 125.72 134.69 Z M 125.73 135.66 L 125.73 136.65 C 125.73 137.56 126.46 138.29 127.37 138.29 C 128.28 138.29 129.01 137.56 129.01 136.65 L 129.01 135.66 C 129.01 134.75 128.28 134.01 127.37 134.01 C 126.46 134.01 125.73 134.75 125.73 135.66 Z M 125.73 136.65 L 125.73 137.68 C 125.73 138.59 126.47 139.32 127.37 139.32 C 128.27 139.32 129.01 138.59 129.01 137.68 L 129.01 136.65 C 129.01 135.75 128.27 135.02 127.37 135.02 C 126.47 135.02 125.73 135.75 125.73 136.65 Z M 125.74 137.68 L 125.74 138.69 C 125.74 139.59 126.47 140.32 127.37 140.32 C 128.27 140.32 129.00 139.59 129.00 138.69 L 129.00 137.68 C 129.00 136.78 128.27 136.05 127.37 136.05 C 126.47 136.05 125.74 136.78 125.74 137.68 Z M 125.75 138.69 L 125.75 139.65 C 125.75 140.54 126.47 141.27 127.37 141.27 C 128.27 141.27 128.99 140.54 128.99 139.65 L 128.99 138.69 C 128.99 137.79 128.27 137.07 127.37 137.07 C 126.47 137.07 125.75 137.79 125.75 138.69 Z M 125.75 139.65 L 125.75 140.63 C 125.75 141.53 126.48 142.25 127.37 142.25 C 128.26 142.25 128.99 141.53 128.99 140.63 L 128.99 139.65 C 128.99 138.75 128.26 138.03 127.37 138.03 C 126.48 138.03 125.75 138.75 125.75 139.65 Z M 125.76 140.63 L 125.76 141.65 C 125.76 142.54 126.48 143.26 127.37 143.26 C 128.26 143.26 128.98 142.54 128.98 141.65 L 128.98 140.63 C 128.98 139.74 128.26 139.02 127.37 139.02 C 126.48 139.02 125.76 139.74 125.76 140.63 Z M 125.77 141.65 L 125.77 142.70 C 125.77 143.59 126.48 144.31 127.37 144.31 C 128.26 144.31 128.97 143.59 128.97 142.70 L 128.97 141.65 C 128.97 140.77 128.26 140.05 127.37 140.05 C 126.48 140.05 125.77 140.77 125.77 141.65 Z M 125.77 142.70 L 125.77 143.70 C 125.77 144.58 126.49 145.30 127.37 145.30 C 128.25 145.30 128.97 144.58 128.97 143.70 L 128.97 142.70 C 128.97 141.82 128.25 141.10 127.37 141.10 C 126.49 141.10 125.77 141.82 125.77 142.70 Z M 125.78 143.70 L 125.78 144.70 C 125.78 145.58 126.49 146.29 127.37 146.29 C 128.25 146.29 128.96 145.58 128.96 144.70 L 128.96 143.70 C 128.96 142.82 128.25 142.11 127.37 142.11 C 126.49 142.11 125.78 142.82 125.78 143.70 Z M 125.78 144.70 L 125.78 145.71 C 125.78 146.59 126.49 147.30 127.37 147.30 C 128.25 147.30 128.96 146.59 128.96 145.71 L 128.96 144.70 C 128.96 143.83 128.25 143.12 127.37 143.12 C 126.49 143.12 125.78 143.83 125.78 144.70 Z M 125.79 145.71 L 125.79 146.72 C 125.79 147.59 126.50 148.30 127.37 148.30 C 128.24 148.30 128.95 147.59 128.95 146.72 L 128.95 145.71 C 128.95 144.84 128.24 144.13 127.37 144.13 C 126.50 144.13 125.79 144.84 125.79 145.71 Z M 125.80 146.72 L 125.80 147.72 C 125.80 148.59 126.50 149.29 127.37 149.29 C 128.24 149.29 128.94 148.59 128.94 147.72 L 128.94 146.72 C 128.94 145.85 128.24 145.14 127.37 145.14 C 126.50 145.14 125.80 145.85 125.80 146.72 Z M 125.80 147.72 L 125.80 148.75 C 125.80 149.61 126.50 150.32 127.37 150.32 C 128.24 150.32 128.94 149.61 128.94 148.75 L 128.94 147.72 C 128.94 146.85 128.24 146.15 127.37 146.15 C 126.50 146.15 125.80 146.85 125.80 147.72 Z M 125.80 148.75 L 125.80 149.77 C 125.80 150.64 126.50 151.34 127.37 151.34 C 128.24 151.34 128.94 150.64 128.94 149.77 L 128.94 148.75 C 128.94 147.88 128.24 147.18 127.37 147.18 C 126.50 147.18 125.80 147.88 125.80 148.75 Z M 125.80 149.77 L 125.80 150.77 C 125.80 151.64 126.51 152.34 127.37 152.34 C 128.23 152.34 128.94 151.64 128.94 150.77 L 128.94 149.77 C 128.94 148.90 128.23 148.20 127.37 148.20 C 126.51 148.20 125.80 148.90 125.80 149.77 Z M 125.81 150.77 L 125.81 151.76 C 125.81 152.62 126.51 153.32 127.37 153.32 C 128.23 153.32 128.93 152.62 128.93 151.76 L 128.93 150.77 C 128.93 149.91 128.23 149.21 127.37 149.21 C 126.51 149.21 125.81 149.91 125.81 150.77 Z M 125.81 151.76 L 125.81 152.72 C 125.81 153.58 126.51 154.28 127.37 154.28 C 128.23 154.28 128.93 153.58 128.93 152.72 L 128.93 151.76 C 128.93 150.89 128.23 150.19 127.37 150.19 C 126.51 150.19 125.81 150.89 125.81 151.76 Z M 125.81 152.72 L 125.81 153.74 C 125.81 154.61 126.51 155.30 127.37 155.30 C 128.23 155.30 128.93 154.61 128.93 153.74 L 128.93 152.72 C 128.93 151.86 128.23 151.16 127.37 151.16 C 126.51 151.16 125.81 151.86 125.81 152.72 Z M 125.81 153.74 L 125.81 154.76 C 125.81 155.62 126.51 156.32 127.37 156.32 C 128.23 156.32 128.93 155.62 128.93 154.76 L 128.93 153.74 C 128.93 152.88 128.23 152.18 127.37 152.18 C 126.51 152.18 125.81 152.88 125.81 153.74 Z M 125.81 154.76 L 125.81 155.75 C 125.81 156.61 126.51 157.31 127.37 157.31 C 128.23 157.31 128.93 156.61 128.93 155.75 L 128.93 154.76 C 128.93 153.89 128.23 153.20 127.37 153.20 C 126.51 153.20 125.81 153.89 125.81 154.76 Z M 125.81 155.75 L 125.81 156.73 C 125.81 157.59 126.51 158.29 127.37 158.29 C 128.23 158.29 128.93 157.59 128.93 156.73 L 128.93 155.75 C 128.93 154.89 128.23 154.19 127.37 154.19 C 126.51 154.19 125.81 154.89 125.81 155.75 Z M 125.81 156.73 L 125.81 157.72 C 125.81 158.59 126.51 159.29 127.37 159.29 C 128.23 159.29 128.93 158.59 128.93 157.72 L 128.93 156.73 C 128.93 155.87 128.23 155.17 127.37 155.17 C 126.51 155.17 125.81 155.87 125.81 156.73 Z M 125.81 157.72 L 125.81 158.73 C 125.81 159.59 126.51 160.29 127.37 160.29 C 128.23 160.29 128.93 159.59 128.93 158.73 L 128.93 157.72 C 128.93 156.86 128.23 156.16 127.37 156.16 C 126.51 156.16 125.81 156.86 125.81 157.72 Z M 125.81 158.73 L 125.81 159.73 C 125.81 160.59 126.51 161.29 127.37 161.29 C 128.23 161.29 128.93 160.59 128.93 159.73 L 128.93 158.73 C 128.93 157.87 128.23 157.17 127.37 157.17 C 126.51 157.17 125.81 157.87 125.81 158.73 Z M 125.81 159.73 L 125.81 160.72 C 125.81 161.58 126.51 162.28 127.37 162.28 C 128.23 162.28 128.93 161.58 128.93 160.72 L 128.93 159.73 C 128.93 158.87 128.23 158.17 127.37 158.17 C 126.51 158.17 125.81 158.87 125.81 159.73 Z M 125.81 160.72 L 125.81 161.39 C 125.81 162.25 126.51 162.95 127.37 162.95 C 128.23 162.95 128.93 162.25 128.93 161.39 L 128.93 160.72 C 128.93 159.86 128.23 159.16 127.37 159.16 C 126.51 159.16 125.81 159.86 125.81 160.72 Z"
      fill="black"
      fill-rule="nonzero" /><path d="M 116.20 143.13 L 117.08 143.53 C 117.92 143.91 118.91 143.54 119.29 142.70 C 119.67 141.87 119.30 140.88 118.46 140.50 L 117.58 140.10 C 116.74 139.72 115.76 140.09 115.38 140.93 C 115.00 141.77 115.37 142.75 116.20 143.13 Z M 117.13 143.57 L 118.03 143.94 C 118.89 144.29 119.88 143.88 120.23 143.02 C 120.58 142.17 120.17 141.18 119.31 140.83 L 118.41 140.46 C 117.55 140.11 116.57 140.52 116.22 141.38 C 115.86 142.24 116.27 143.22 117.13 143.57 Z M 118.14 144.00 L 119.10 144.31 C 119.99 144.61 120.95 144.12 121.24 143.23 C 121.53 142.34 121.05 141.38 120.16 141.09 L 119.20 140.78 C 118.31 140.48 117.35 140.97 117.06 141.86 C 116.77 142.75 117.25 143.71 118.14 144.00 Z M 119.25 144.37 L 120.28 144.60 C 121.20 144.81 122.11 144.23 122.32 143.30 C 122.53 142.38 121.95 141.47 121.02 141.26 L 120.00 141.03 C 119.08 140.82 118.16 141.40 117.96 142.33 C 117.75 143.25 118.33 144.17 119.25 144.37 Z M 120.44 144.63 L 121.39 144.74 C 122.32 144.86 123.18 144.19 123.29 143.25 C 123.40 142.31 122.74 141.46 121.80 141.35 L 120.86 141.23 C 119.92 141.12 119.07 141.79 118.95 142.72 C 118.84 143.66 119.51 144.51 120.44 144.63 Z M 121.52 144.74 L 122.51 144.78 C 123.44 144.82 124.23 144.10 124.28 143.17 C 124.32 142.23 123.60 141.44 122.66 141.40 L 121.67 141.35 C 120.74 141.31 119.94 142.03 119.90 142.97 C 119.86 143.90 120.58 144.69 121.52 144.74 Z M 122.61 144.76 L 123.63 144.75 C 124.55 144.74 125.29 143.98 125.28 143.05 C 125.27 142.13 124.51 141.39 123.58 141.40 L 122.56 141.42 C 121.64 141.43 120.90 142.19 120.91 143.11 C 120.92 144.04 121.68 144.78 122.61 144.76 Z M 123.71 144.73 L 124.74 144.66 C 125.65 144.60 126.34 143.82 126.28 142.90 C 126.23 141.99 125.44 141.30 124.52 141.35 L 123.50 141.42 C 122.58 141.48 121.89 142.27 121.95 143.18 C 122.01 144.10 122.80 144.79 123.71 144.73 Z M 124.81 144.64 L 125.82 144.53 C 126.72 144.44 127.37 143.63 127.27 142.73 C 127.18 141.82 126.37 141.17 125.47 141.27 L 124.46 141.38 C 123.55 141.47 122.90 142.28 123.00 143.18 C 123.10 144.08 123.90 144.74 124.81 144.64 Z M 125.87 144.51 L 126.87 144.37 C 127.75 144.24 128.37 143.41 128.24 142.52 C 128.11 141.64 127.29 141.02 126.40 141.15 L 125.41 141.29 C 124.52 141.42 123.90 142.24 124.03 143.13 C 124.16 144.02 124.99 144.64 125.87 144.51 Z M 126.91 144.34 L 127.89 144.17 C 128.76 144.02 129.35 143.18 129.20 142.31 C 129.04 141.43 128.21 140.85 127.33 141.00 L 126.35 141.17 C 125.48 141.32 124.89 142.16 125.05 143.04 C 125.20 143.91 126.03 144.50 126.91 144.34 Z M 127.92 144.15 L 128.89 143.96 C 129.76 143.79 130.32 142.95 130.15 142.08 C 129.98 141.22 129.14 140.66 128.27 140.83 L 127.30 141.02 C 126.43 141.19 125.87 142.03 126.04 142.90 C 126.21 143.76 127.05 144.32 127.92 144.15 Z M 128.91 143.94 L 129.89 143.74 C 130.75 143.56 131.29 142.72 131.11 141.86 C 130.93 141.01 130.10 140.46 129.24 140.64 L 128.26 140.84 C 127.40 141.02 126.85 141.86 127.03 142.72 C 127.21 143.58 128.05 144.12 128.91 143.94 Z M 129.90 143.72 L 130.88 143.51 C 131.73 143.33 132.27 142.50 132.09 141.65 C 131.91 140.80 131.07 140.26 130.22 140.44 L 129.24 140.65 C 128.39 140.83 127.85 141.67 128.03 142.52 C 128.21 143.37 129.05 143.91 129.90 143.72 Z M 130.88 143.51 L 131.87 143.30 C 132.72 143.11 133.26 142.28 133.07 141.43 C 132.89 140.58 132.06 140.05 131.21 140.23 L 130.22 140.44 C 129.37 140.62 128.83 141.46 129.02 142.31 C 129.20 143.15 130.03 143.69 130.88 143.51 Z M 131.87 143.29 L 132.86 143.08 C 133.71 142.89 134.25 142.06 134.06 141.21 C 133.88 140.37 133.04 139.83 132.20 140.02 L 131.21 140.23 C 130.36 140.41 129.82 141.25 130.01 142.09 C 130.19 142.94 131.03 143.48 131.87 143.29 Z M 132.87 143.08 L 133.84 142.86 C 134.69 142.68 135.22 141.84 135.04 141.00 C 134.85 140.15 134.02 139.62 133.17 139.80 L 132.19 140.02 C 131.35 140.20 130.82 141.04 131.00 141.88 C 131.19 142.73 132.02 143.26 132.87 143.08 Z M 133.85 142.86 L 134.80 142.65 C 135.64 142.46 136.17 141.62 135.98 140.78 C 135.80 139.94 134.96 139.41 134.12 139.60 L 133.17 139.81 C 132.33 139.99 131.80 140.83 131.98 141.67 C 132.17 142.51 133.00 143.04 133.85 142.86 Z M 134.80 142.64 L 135.82 142.41 C 136.66 142.22 137.19 141.39 137.00 140.55 C 136.81 139.71 135.98 139.18 135.13 139.37 L 134.11 139.60 C 133.27 139.79 132.75 140.62 132.94 141.46 C 133.13 142.31 133.96 142.83 134.80 142.64 Z M 135.83 142.41 L 136.81 142.19 C 137.65 141.99 138.18 141.16 137.99 140.32 C 137.79 139.48 136.96 138.95 136.12 139.14 L 135.13 139.37 C 134.29 139.56 133.76 140.40 133.96 141.24 C 134.15 142.08 134.99 142.61 135.83 142.41 Z M 136.82 142.19 L 137.77 141.96 C 138.61 141.77 139.14 140.93 138.94 140.09 C 138.75 139.25 137.91 138.73 137.07 138.92 L 136.11 139.14 C 135.27 139.34 134.75 140.18 134.94 141.02 C 135.14 141.86 135.98 142.38 136.82 142.19 Z M 137.78 141.96 L 138.72 141.74 C 139.56 141.55 140.08 140.71 139.89 139.87 C 139.69 139.03 138.85 138.51 138.01 138.70 L 137.07 138.92 C 136.23 139.12 135.71 139.96 135.90 140.80 C 136.10 141.64 136.94 142.16 137.78 141.96 Z M 138.72 141.74 L 139.00 141.68 C 139.84 141.48 140.36 140.64 140.16 139.80 C 139.97 138.96 139.13 138.44 138.29 138.64 L 138.01 138.70 C 137.17 138.90 136.65 139.74 136.84 140.58 C 137.04 141.42 137.88 141.94 138.72 141.74 Z"
      fill="black"
      fill-rule="nonzero" /><path d="M 113.61 171.55 L 114.56 171.68 C 115.48 171.81 116.33 171.17 116.46 170.24 C 116.59 169.32 115.95 168.47 115.03 168.34 L 114.08 168.20 C 113.15 168.07 112.30 168.72 112.17 169.64 C 112.04 170.56 112.69 171.42 113.61 171.55 Z M 114.69 171.69 L 115.65 171.75 C 116.58 171.81 117.39 171.10 117.44 170.17 C 117.50 169.24 116.79 168.44 115.86 168.38 L 114.89 168.32 C 113.96 168.27 113.16 168.97 113.11 169.91 C 113.05 170.84 113.76 171.64 114.69 171.69 Z M 115.91 171.75 L 116.91 171.66 C 117.84 171.58 118.53 170.76 118.44 169.83 C 118.36 168.90 117.54 168.22 116.62 168.30 L 115.61 168.39 C 114.68 168.47 114.00 169.29 114.08 170.22 C 114.16 171.14 114.98 171.83 115.91 171.75 Z M 117.22 171.60 L 118.20 171.33 C 119.10 171.07 119.62 170.14 119.37 169.25 C 119.12 168.35 118.19 167.83 117.29 168.08 L 116.31 168.36 C 115.41 168.61 114.89 169.54 115.14 170.44 C 115.39 171.33 116.32 171.86 117.22 171.60 Z M 118.44 171.23 L 119.32 170.83 C 120.17 170.45 120.54 169.45 120.16 168.61 C 119.77 167.76 118.78 167.39 117.93 167.77 L 117.05 168.17 C 116.21 168.56 115.83 169.55 116.22 170.40 C 116.60 171.24 117.60 171.62 118.44 171.23 Z M 119.45 170.76 L 120.34 170.25 C 121.15 169.80 121.43 168.77 120.97 167.97 C 120.51 167.17 119.49 166.88 118.69 167.34 L 117.80 167.85 C 117.00 168.30 116.71 169.33 117.17 170.13 C 117.63 170.93 118.65 171.22 119.45 170.76 Z M 120.42 170.20 L 121.29 169.64 C 122.07 169.14 122.29 168.10 121.79 167.33 C 121.29 166.56 120.26 166.33 119.48 166.83 L 118.61 167.40 C 117.84 167.90 117.62 168.93 118.11 169.70 C 118.61 170.48 119.65 170.70 120.42 170.20 Z M 121.33 169.60 L 122.16 169.03 C 122.91 168.51 123.10 167.47 122.58 166.72 C 122.06 165.96 121.03 165.78 120.27 166.30 L 119.44 166.87 C 118.69 167.39 118.50 168.42 119.02 169.18 C 119.54 169.93 120.58 170.12 121.33 169.60 Z M 122.17 169.01 L 123.04 168.40 C 123.79 167.87 123.96 166.84 123.44 166.10 C 122.91 165.35 121.88 165.17 121.14 165.70 L 120.26 166.31 C 119.52 166.84 119.34 167.87 119.87 168.61 C 120.39 169.36 121.42 169.54 122.17 169.01 Z M 123.03 168.39 L 123.86 167.81 C 124.61 167.28 124.78 166.26 124.26 165.52 C 123.74 164.78 122.71 164.60 121.97 165.12 L 121.14 165.71 C 120.40 166.23 120.22 167.25 120.75 167.99 C 121.27 168.74 122.29 168.91 123.03 168.39 Z M 123.85 167.80 L 124.64 167.25 C 125.38 166.74 125.56 165.72 125.04 164.98 C 124.53 164.24 123.51 164.06 122.77 164.58 L 121.98 165.13 C 121.25 165.64 121.07 166.66 121.58 167.40 C 122.10 168.14 123.11 168.32 123.85 167.80 Z M 124.62 167.25 L 125.41 166.71 C 126.14 166.21 126.33 165.20 125.83 164.46 C 125.32 163.72 124.31 163.53 123.58 164.04 L 122.79 164.58 C 122.05 165.08 121.86 166.09 122.37 166.83 C 122.87 167.57 123.88 167.76 124.62 167.25 Z M 125.38 166.72 L 126.19 166.18 C 126.93 165.69 127.13 164.69 126.64 163.94 C 126.15 163.20 125.14 163.00 124.40 163.50 L 123.60 164.04 C 122.86 164.53 122.66 165.53 123.15 166.27 C 123.64 167.01 124.64 167.21 125.38 166.72 Z M 126.18 166.18 L 127.01 165.64 C 127.75 165.15 127.96 164.16 127.48 163.42 C 126.99 162.67 126.00 162.46 125.25 162.95 L 124.42 163.49 C 123.68 163.98 123.47 164.97 123.95 165.72 C 124.44 166.46 125.43 166.67 126.18 166.18 Z M 127.00 165.64 L 127.85 165.09 C 128.59 164.61 128.81 163.62 128.33 162.88 C 127.85 162.14 126.86 161.92 126.12 162.40 L 125.26 162.95 C 124.52 163.43 124.31 164.42 124.79 165.16 C 125.26 165.90 126.26 166.12 127.00 165.64 Z M 127.84 165.09 L 128.70 164.54 C 129.44 164.06 129.66 163.08 129.18 162.34 C 128.71 161.59 127.72 161.38 126.98 161.85 L 126.12 162.40 C 125.38 162.88 125.16 163.86 125.64 164.61 C 126.11 165.35 127.10 165.56 127.84 165.09 Z M 128.70 164.54 L 129.53 164.00 C 130.27 163.53 130.49 162.55 130.01 161.81 C 129.54 161.07 128.56 160.85 127.82 161.32 L 126.98 161.86 C 126.24 162.33 126.03 163.31 126.50 164.05 C 126.97 164.79 127.96 165.01 128.70 164.54 Z M 129.53 164.00 L 130.36 163.46 C 131.10 162.99 131.32 162.01 130.85 161.27 C 130.37 160.54 129.39 160.32 128.66 160.79 L 127.82 161.33 C 127.08 161.80 126.87 162.78 127.34 163.52 C 127.81 164.25 128.79 164.47 129.53 164.00 Z M 130.36 163.46 L 131.21 162.92 C 131.94 162.45 132.16 161.47 131.69 160.74 C 131.22 160.00 130.24 159.79 129.51 160.26 L 128.66 160.80 C 127.92 161.26 127.71 162.24 128.18 162.98 C 128.65 163.71 129.62 163.93 130.36 163.46 Z M 131.20 162.92 L 132.06 162.38 C 132.79 161.91 133.01 160.93 132.54 160.20 C 132.07 159.47 131.10 159.25 130.36 159.72 L 129.51 160.26 C 128.78 160.73 128.56 161.70 129.03 162.43 C 129.49 163.17 130.47 163.39 131.20 162.92 Z M 132.05 162.37 L 132.88 161.85 C 133.61 161.39 133.83 160.42 133.36 159.68 C 132.90 158.95 131.93 158.73 131.19 159.20 L 130.37 159.72 C 129.63 160.18 129.42 161.15 129.88 161.89 C 130.35 162.62 131.32 162.84 132.05 162.37 Z M 132.87 161.85 L 133.71 161.32 C 134.44 160.86 134.66 159.89 134.20 159.16 C 133.74 158.42 132.77 158.20 132.03 158.67 L 131.20 159.20 C 130.46 159.66 130.24 160.63 130.71 161.36 C 131.17 162.10 132.14 162.31 132.87 161.85 Z M 133.71 161.32 L 134.56 160.79 C 135.29 160.32 135.51 159.36 135.05 158.62 C 134.59 157.89 133.62 157.67 132.89 158.13 L 132.04 158.67 C 131.30 159.13 131.08 160.10 131.54 160.83 C 132.01 161.56 132.97 161.78 133.71 161.32 Z M 134.56 160.78 L 135.42 160.24 C 136.16 159.78 136.38 158.82 135.92 158.08 C 135.46 157.35 134.49 157.13 133.76 157.59 L 132.89 158.13 C 132.16 158.59 131.94 159.56 132.40 160.29 C 132.86 161.02 133.82 161.24 134.56 160.78 Z M 135.42 160.24 L 136.28 159.71 C 137.01 159.25 137.23 158.28 136.78 157.55 C 136.32 156.82 135.35 156.60 134.62 157.05 L 133.76 157.59 C 133.03 158.05 132.81 159.01 133.27 159.74 C 133.72 160.48 134.69 160.70 135.42 160.24 Z M 136.28 159.71 L 137.13 159.17 C 137.87 158.71 138.09 157.75 137.63 157.02 C 137.18 156.28 136.21 156.06 135.48 156.52 L 134.62 157.05 C 133.89 157.51 133.67 158.47 134.12 159.21 C 134.58 159.94 135.54 160.16 136.28 159.71 Z M 137.13 159.17 L 137.99 158.64 C 138.72 158.18 138.94 157.22 138.49 156.48 C 138.03 155.75 137.07 155.53 136.33 155.99 L 135.48 156.52 C 134.75 156.98 134.52 157.94 134.98 158.67 C 135.44 159.40 136.40 159.63 137.13 159.17 Z M 137.99 158.64 L 138.83 158.11 C 139.56 157.65 139.78 156.69 139.32 155.96 C 138.87 155.23 137.90 155.00 137.17 155.46 L 136.33 155.99 C 135.60 156.45 135.38 157.41 135.84 158.14 C 136.29 158.87 137.26 159.09 137.99 158.64 Z M 138.83 158.11 L 139.69 157.57 C 140.42 157.11 140.64 156.14 140.18 155.41 C 139.72 154.69 138.75 154.47 138.02 154.93 L 137.17 155.46 C 136.44 155.92 136.22 156.89 136.68 157.62 C 137.14 158.35 138.10 158.57 138.83 158.11 Z M 139.69 157.57 L 140.56 157.02 C 141.28 156.56 141.50 155.59 141.04 154.86 C 140.58 154.14 139.61 153.92 138.88 154.38 L 138.02 154.93 C 137.29 155.39 137.08 156.35 137.54 157.08 C 138.00 157.81 138.96 158.03 139.69 157.57 Z M 140.56 157.02 L 141.40 156.48 C 142.13 156.02 142.34 155.05 141.88 154.33 C 141.42 153.60 140.45 153.38 139.72 153.85 L 138.88 154.38 C 138.16 154.84 137.94 155.81 138.40 156.54 C 138.87 157.26 139.83 157.48 140.56 157.02 Z M 141.40 156.48 L 142.22 155.96 C 142.95 155.50 143.16 154.53 142.70 153.80 C 142.24 153.08 141.27 152.86 140.55 153.32 L 139.72 153.85 C 139.00 154.31 138.78 155.27 139.24 156.00 C 139.71 156.73 140.67 156.94 141.40 156.48 Z M 142.22 155.96 L 143.01 155.46 C 143.74 155.00 143.96 154.03 143.50 153.30 C 143.04 152.58 142.07 152.36 141.34 152.82 L 140.55 153.32 C 139.82 153.78 139.60 154.75 140.07 155.48 C 140.53 156.20 141.49 156.42 142.22 155.96 Z M 143.01 155.46 L 143.80 154.96 C 144.53 154.50 144.74 153.54 144.28 152.81 C 143.82 152.08 142.85 151.86 142.13 152.32 L 141.34 152.82 C 140.62 153.28 140.40 154.25 140.86 154.97 C 141.32 155.70 142.29 155.92 143.01 155.46 Z M 143.80 154.96 L 144.62 154.43 C 145.35 153.97 145.56 153.00 145.09 152.28 C 144.63 151.55 143.66 151.34 142.93 151.81 L 142.12 152.33 C 141.39 152.79 141.18 153.76 141.65 154.49 C 142.11 155.21 143.08 155.42 143.80 154.96 Z M 144.63 154.42 L 145.51 153.85 C 146.23 153.38 146.43 152.41 145.96 151.69 C 145.48 150.97 144.52 150.77 143.80 151.24 L 142.92 151.81 C 142.20 152.29 142.00 153.25 142.47 153.98 C 142.94 154.70 143.91 154.90 144.63 154.42 Z M 145.52 153.84 L 146.40 153.25 C 147.12 152.77 147.31 151.80 146.83 151.08 C 146.35 150.37 145.38 150.18 144.66 150.66 L 143.78 151.25 C 143.07 151.73 142.88 152.70 143.36 153.42 C 143.84 154.13 144.81 154.32 145.52 153.84 Z M 146.42 153.24 L 147.17 152.72 C 147.88 152.23 148.06 151.26 147.57 150.55 C 147.08 149.84 146.11 149.66 145.40 150.15 L 144.65 150.67 C 143.94 151.16 143.76 152.13 144.25 152.84 C 144.73 153.55 145.71 153.73 146.42 153.24 Z M 147.18 152.72 L 147.97 152.16 C 148.68 151.67 148.85 150.70 148.36 149.99 C 147.87 149.28 146.89 149.11 146.19 149.60 L 145.39 150.16 C 144.68 150.65 144.51 151.62 145.00 152.33 C 145.50 153.04 146.47 153.21 147.18 152.72 Z M 147.98 152.16 L 148.81 151.58 C 149.51 151.08 149.68 150.11 149.19 149.40 C 148.69 148.70 147.72 148.53 147.01 149.02 L 146.18 149.61 C 145.48 150.10 145.31 151.07 145.80 151.78 C 146.30 152.48 147.27 152.65 147.98 152.16 Z M 148.81 151.57 L 149.66 150.97 C 150.37 150.47 150.53 149.50 150.04 148.79 C 149.54 148.09 148.56 147.92 147.86 148.42 L 147.01 149.02 C 146.30 149.52 146.14 150.50 146.63 151.20 C 147.13 151.90 148.11 152.07 148.81 151.57 Z M 149.67 150.97 L 150.53 150.35 C 151.24 149.85 151.40 148.88 150.90 148.18 C 150.40 147.47 149.43 147.31 148.73 147.81 L 147.86 148.42 C 147.16 148.92 146.99 149.90 147.49 150.60 C 147.99 151.30 148.96 151.47 149.67 150.97 Z M 150.53 150.35 L 150.95 150.05 C 151.65 149.56 151.82 148.58 151.32 147.88 C 150.82 147.18 149.85 147.01 149.14 147.51 L 148.73 147.81 C 148.02 148.31 147.86 149.28 148.36 149.98 C 148.86 150.69 149.83 150.85 150.53 150.35 Z"
      fill="black"
      fill-rule="nonzero" /><path d="M 156.24 116.99 L 155.97 117.87 C 155.70 118.78 156.21 119.73 157.12 120.00 C 158.02 120.27 158.98 119.75 159.25 118.85 L 159.51 117.96 C 159.78 117.06 159.27 116.11 158.36 115.84 C 157.46 115.57 156.50 116.08 156.24 116.99 Z M 155.96 117.85 L 155.67 118.76 C 155.39 119.67 155.90 120.64 156.81 120.93 C 157.72 121.21 158.69 120.70 158.98 119.79 L 159.26 118.87 C 159.54 117.96 159.03 116.99 158.12 116.71 C 157.21 116.43 156.24 116.94 155.96 117.85 Z M 155.66 118.72 L 155.35 119.68 C 155.04 120.60 155.54 121.59 156.45 121.90 C 157.37 122.20 158.36 121.70 158.67 120.79 L 158.98 119.83 C 159.29 118.91 158.79 117.92 157.88 117.61 C 156.96 117.31 155.97 117.81 155.66 118.72 Z M 155.34 119.63 L 154.97 120.67 C 154.64 121.59 155.11 122.60 156.03 122.93 C 156.95 123.26 157.97 122.79 158.30 121.87 L 158.67 120.84 C 159.00 119.92 158.53 118.90 157.61 118.57 C 156.69 118.24 155.67 118.71 155.34 119.63 Z M 154.97 120.62 L 154.61 121.55 C 154.25 122.47 154.71 123.50 155.63 123.86 C 156.55 124.22 157.58 123.76 157.94 122.84 L 158.30 121.91 C 158.66 120.99 158.20 119.96 157.28 119.60 C 156.36 119.24 155.33 119.70 154.97 120.62 Z M 154.60 121.52 L 154.22 122.48 C 153.85 123.40 154.30 124.45 155.22 124.82 C 156.14 125.19 157.19 124.74 157.56 123.82 L 157.94 122.86 C 158.31 121.94 157.87 120.89 156.94 120.52 C 156.02 120.15 154.97 120.60 154.60 121.52 Z M 154.21 122.48 L 153.82 123.44 C 153.45 124.37 153.90 125.42 154.83 125.79 C 155.76 126.17 156.82 125.71 157.19 124.78 L 157.57 123.82 C 157.95 122.89 157.49 121.84 156.56 121.47 C 155.63 121.09 154.58 121.55 154.21 122.48 Z M 153.80 123.46 L 153.44 124.39 C 153.08 125.33 153.55 126.39 154.49 126.75 C 155.43 127.12 156.49 126.65 156.85 125.70 L 157.21 124.77 C 157.57 123.82 157.10 122.77 156.16 122.41 C 155.22 122.04 154.16 122.51 153.80 123.46 Z M 153.41 124.44 L 153.10 125.33 C 152.76 126.29 153.26 127.34 154.22 127.68 C 155.17 128.02 156.22 127.51 156.56 126.56 L 156.88 125.66 C 157.22 124.70 156.72 123.65 155.76 123.31 C 154.80 122.98 153.75 123.48 153.41 124.44 Z M 153.06 125.42 L 152.76 126.45 C 152.47 127.42 153.03 128.45 154.00 128.74 C 154.98 129.03 156.01 128.47 156.30 127.49 L 156.60 126.47 C 156.89 125.49 156.33 124.46 155.35 124.17 C 154.37 123.89 153.35 124.44 153.06 125.42 Z M 152.72 126.58 L 152.51 127.53 C 152.30 128.53 152.93 129.51 153.92 129.73 C 154.92 129.95 155.90 129.31 156.12 128.32 L 156.33 127.36 C 156.55 126.37 155.92 125.38 154.92 125.17 C 153.92 124.95 152.94 125.58 152.72 126.58 Z M 152.49 127.67 L 152.36 128.61 C 152.21 129.62 152.91 130.55 153.92 130.70 C 154.93 130.84 155.87 130.14 156.01 129.13 L 156.15 128.19 C 156.29 127.18 155.59 126.24 154.58 126.10 C 153.57 125.95 152.63 126.66 152.49 127.67 Z M 152.34 128.72 L 152.26 129.69 C 152.18 130.71 152.94 131.60 153.95 131.68 C 154.97 131.77 155.86 131.01 155.94 130.00 L 156.02 129.02 C 156.11 128.01 155.35 127.11 154.34 127.03 C 153.32 126.95 152.43 127.70 152.34 128.72 Z M 152.26 129.76 L 152.21 130.73 C 152.17 131.75 152.96 132.61 153.98 132.66 C 155.00 132.71 155.86 131.92 155.90 130.90 L 155.95 129.93 C 155.99 128.91 155.21 128.04 154.19 128.00 C 153.17 127.95 152.30 128.74 152.26 129.76 Z M 152.21 130.77 L 152.19 131.78 C 152.16 132.81 152.97 133.65 153.99 133.68 C 155.02 133.70 155.86 132.89 155.89 131.87 L 155.91 130.86 C 155.93 129.83 155.12 128.99 154.10 128.96 C 153.08 128.94 152.23 129.75 152.21 130.77 Z M 152.19 131.81 L 152.18 132.84 C 152.17 133.86 152.99 134.69 154.01 134.70 C 155.03 134.71 155.87 133.89 155.88 132.87 L 155.89 131.84 C 155.90 130.82 155.07 129.98 154.05 129.98 C 153.03 129.97 152.19 130.79 152.19 131.81 Z M 152.17 132.85 L 152.17 133.85 C 152.17 134.88 153.00 135.71 154.02 135.71 C 155.05 135.71 155.88 134.88 155.88 133.86 L 155.88 132.85 C 155.88 131.83 155.05 131.00 154.03 131.00 C 153.01 131.00 152.18 131.83 152.17 132.85 Z M 152.17 133.86 L 152.17 134.88 C 152.17 135.91 153.00 136.74 154.03 136.74 C 155.05 136.74 155.88 135.91 155.88 134.88 L 155.88 133.86 C 155.88 132.83 155.05 132.00 154.03 132.00 C 153.00 132.00 152.17 132.83 152.17 133.86 Z M 152.17 134.88 L 152.17 135.87 C 152.17 136.90 153.00 137.73 154.03 137.73 C 155.05 137.73 155.88 136.90 155.88 135.87 L 155.88 134.88 C 155.88 133.86 155.05 133.03 154.03 133.03 C 153.00 133.03 152.17 133.86 152.17 134.88 Z M 152.17 135.87 L 152.17 136.86 C 152.17 137.88 153.00 138.71 154.03 138.71 C 155.05 138.71 155.88 137.88 155.88 136.86 L 155.88 135.87 C 155.88 134.85 155.05 134.02 154.03 134.02 C 153.00 134.02 152.17 134.85 152.17 135.87 Z M 152.17 136.86 L 152.17 137.86 C 152.17 138.88 153.00 139.71 154.03 139.71 C 155.05 139.71 155.88 138.88 155.88 137.86 L 155.88 136.86 C 155.88 135.83 155.05 135.00 154.03 135.00 C 153.00 135.00 152.17 135.83 152.17 136.86 Z M 152.17 137.86 L 152.17 138.80 C 152.17 139.83 153.00 140.66 154.03 140.66 C 155.05 140.65 155.88 139.82 155.88 138.80 L 155.88 137.86 C 155.88 136.83 155.05 136.00 154.03 136.00 C 153.00 136.00 152.17 136.83 152.17 137.86 Z M 152.17 138.81 L 152.17 139.78 C 152.18 140.81 153.01 141.63 154.04 141.63 C 155.06 141.63 155.89 140.79 155.89 139.77 L 155.88 138.79 C 155.88 137.77 155.05 136.94 154.02 136.94 C 152.99 136.95 152.17 137.78 152.17 138.81 Z M 152.17 139.79 L 152.18 140.80 C 152.19 141.83 153.03 142.65 154.06 142.64 C 155.08 142.63 155.91 141.79 155.90 140.77 L 155.89 139.76 C 155.88 138.73 155.04 137.91 154.01 137.92 C 152.99 137.93 152.16 138.77 152.17 139.79 Z M 152.18 140.82 L 152.20 141.86 C 152.22 142.89 153.07 143.70 154.09 143.69 C 155.12 143.67 155.94 142.82 155.92 141.79 L 155.90 140.75 C 155.88 139.72 155.03 138.91 154.01 138.93 C 152.98 138.95 152.16 139.79 152.18 140.82 Z M 152.20 141.88 L 152.23 142.81 C 152.26 143.84 153.11 144.64 154.14 144.61 C 155.17 144.58 155.97 143.73 155.94 142.70 L 155.92 141.78 C 155.89 140.75 155.03 139.94 154.01 139.97 C 152.98 140.00 152.17 140.86 152.20 141.88 Z M 152.23 142.83 L 152.26 143.70 C 152.31 144.72 153.17 145.52 154.20 145.48 C 155.23 145.43 156.02 144.57 155.98 143.54 L 155.94 142.68 C 155.90 141.65 155.03 140.86 154.01 140.90 C 152.98 140.94 152.19 141.81 152.23 142.83 Z M 152.26 143.73 L 152.32 144.64 C 152.38 145.67 153.26 146.45 154.28 146.39 C 155.31 146.33 156.09 145.45 156.03 144.43 L 155.98 143.51 C 155.92 142.48 155.04 141.70 154.01 141.76 C 152.99 141.82 152.21 142.70 152.26 143.73 Z M 152.32 144.68 L 152.40 145.67 C 152.47 146.69 153.37 147.46 154.39 147.38 C 155.42 147.30 156.19 146.41 156.11 145.38 L 156.03 144.39 C 155.95 143.37 155.06 142.60 154.03 142.68 C 153.01 142.76 152.24 143.65 152.32 144.68 Z M 152.40 145.70 L 152.50 146.79 C 152.60 147.81 153.51 148.56 154.54 148.46 C 155.56 148.36 156.31 147.45 156.21 146.43 L 156.11 145.34 C 156.01 144.32 155.10 143.57 154.07 143.67 C 153.05 143.77 152.30 144.68 152.40 145.70 Z M 152.50 146.82 L 152.64 148.02 C 152.76 149.05 153.69 149.78 154.71 149.66 C 155.73 149.54 156.47 148.62 156.35 147.59 L 156.21 146.39 C 156.09 145.37 155.16 144.64 154.14 144.76 C 153.12 144.87 152.39 145.80 152.50 146.82 Z M 152.65 148.05 L 152.77 149.02 C 152.91 150.04 153.84 150.76 154.87 150.62 C 155.89 150.49 156.61 149.55 156.47 148.53 L 156.35 147.56 C 156.21 146.54 155.27 145.82 154.25 145.96 C 153.23 146.09 152.51 147.03 152.65 148.05 Z M 152.77 149.04 L 152.91 150.01 C 153.06 151.03 154.00 151.74 155.03 151.60 C 156.05 151.45 156.76 150.51 156.61 149.49 L 156.47 148.51 C 156.33 147.49 155.38 146.78 154.36 146.92 C 153.34 147.07 152.63 148.01 152.77 149.04 Z M 152.91 150.03 L 153.07 151.04 C 153.22 152.06 154.17 152.76 155.20 152.61 C 156.22 152.46 156.92 151.50 156.76 150.48 L 156.61 149.47 C 156.46 148.45 155.50 147.75 154.48 147.90 C 153.46 148.06 152.76 149.01 152.91 150.03 Z M 153.07 151.06 L 153.23 152.09 C 153.40 153.11 154.35 153.80 155.37 153.64 C 156.39 153.48 157.09 152.52 156.93 151.50 L 156.76 150.47 C 156.60 149.45 155.64 148.75 154.62 148.92 C 153.60 149.08 152.91 150.04 153.07 151.06 Z M 153.23 152.10 L 153.41 153.13 C 153.57 154.15 154.54 154.84 155.56 154.67 C 156.58 154.50 157.27 153.54 157.10 152.52 L 156.93 151.49 C 156.76 150.47 155.79 149.78 154.77 149.95 C 153.75 150.12 153.06 151.08 153.23 152.10 Z M 153.41 153.15 L 153.58 154.16 C 153.76 155.18 154.73 155.86 155.75 155.69 C 156.77 155.51 157.45 154.54 157.27 153.52 L 157.10 152.51 C 156.92 151.49 155.95 150.80 154.93 150.98 C 153.91 151.16 153.23 152.13 153.41 153.15 Z M 153.58 154.17 L 153.76 155.16 C 153.94 156.17 154.92 156.85 155.94 156.67 C 156.96 156.48 157.63 155.51 157.45 154.49 L 157.27 153.51 C 157.09 152.49 156.11 151.81 155.09 152.00 C 154.08 152.18 153.40 153.16 153.58 154.17 Z M 153.76 155.17 L 153.94 156.10 C 154.13 157.12 155.11 157.79 156.13 157.60 C 157.14 157.41 157.82 156.42 157.62 155.41 L 157.45 154.48 C 157.26 153.46 156.28 152.79 155.26 152.98 C 154.24 153.17 153.57 154.15 153.76 155.17 Z M 153.94 156.12 L 154.17 157.28 C 154.37 158.30 155.36 158.96 156.38 158.76 C 157.39 158.56 158.05 157.57 157.85 156.55 L 157.62 155.39 C 157.42 154.37 156.43 153.71 155.41 153.91 C 154.40 154.11 153.74 155.10 153.94 156.12 Z M 154.17 157.31 L 154.41 158.43 C 154.63 159.44 155.63 160.09 156.64 159.87 C 157.66 159.66 158.30 158.66 158.09 157.64 L 157.85 156.53 C 157.63 155.51 156.63 154.87 155.62 155.08 C 154.60 155.30 153.96 156.30 154.17 157.31 Z M 154.42 158.46 L 154.65 159.46 C 154.89 160.47 155.90 161.10 156.91 160.86 C 157.92 160.63 158.55 159.62 158.31 158.61 L 158.08 157.61 C 157.85 156.60 156.84 155.97 155.83 156.21 C 154.81 156.44 154.19 157.45 154.42 158.46 Z M 154.66 159.49 L 154.89 160.39 C 155.14 161.40 156.16 162.01 157.17 161.75 C 158.18 161.50 158.79 160.47 158.53 159.47 L 158.30 158.57 C 158.05 157.56 157.03 156.96 156.02 157.21 C 155.01 157.47 154.40 158.49 154.66 159.49 Z M 154.90 160.43 L 155.12 161.25 C 155.40 162.25 156.44 162.83 157.44 162.56 C 158.44 162.28 159.02 161.24 158.75 160.24 L 158.52 159.43 C 158.24 158.43 157.21 157.84 156.21 158.12 C 155.21 158.39 154.62 159.43 154.90 160.43 Z M 155.13 161.29 L 155.39 162.14 C 155.69 163.13 156.74 163.70 157.74 163.40 C 158.73 163.10 159.29 162.05 158.99 161.05 L 158.73 160.20 C 158.43 159.21 157.38 158.64 156.39 158.95 C 155.40 159.25 154.83 160.30 155.13 161.29 Z M 155.41 162.20 L 155.75 163.21 C 156.08 164.20 157.15 164.73 158.13 164.39 C 159.12 164.06 159.65 163.00 159.32 162.01 L 158.97 161.00 C 158.64 160.01 157.58 159.48 156.59 159.81 C 155.61 160.15 155.08 161.21 155.41 162.20 Z M 155.78 163.29 L 156.14 164.22 C 156.52 165.19 157.61 165.67 158.57 165.30 C 159.54 164.92 160.02 163.84 159.65 162.87 L 159.29 161.93 C 158.91 160.97 157.82 160.48 156.86 160.86 C 155.89 161.23 155.41 162.32 155.78 163.29 Z M 156.18 164.32 L 156.57 165.18 C 157.00 166.12 158.11 166.54 159.06 166.12 C 160.00 165.69 160.42 164.58 159.99 163.63 L 159.61 162.77 C 159.18 161.83 158.07 161.41 157.12 161.83 C 156.18 162.26 155.76 163.37 156.18 164.32 Z M 156.63 165.29 L 157.09 166.15 C 157.58 167.07 158.72 167.41 159.63 166.92 C 160.55 166.43 160.89 165.29 160.40 164.38 L 159.94 163.51 C 159.45 162.60 158.31 162.26 157.39 162.75 C 156.48 163.24 156.14 164.38 156.63 165.29 Z M 157.19 166.30 L 157.75 167.15 C 158.32 168.01 159.48 168.25 160.35 167.68 C 161.21 167.10 161.44 165.94 160.87 165.08 L 160.31 164.23 C 159.73 163.37 158.57 163.13 157.71 163.70 C 156.85 164.28 156.61 165.44 157.19 166.30 Z M 157.89 167.33 L 158.53 168.07 C 159.20 168.86 160.38 168.95 161.16 168.28 C 161.95 167.61 162.04 166.43 161.37 165.64 L 160.73 164.90 C 160.06 164.11 158.88 164.02 158.09 164.69 C 157.31 165.37 157.22 166.55 157.89 167.33 Z M 158.72 168.26 L 159.42 168.87 C 160.19 169.55 161.37 169.47 162.05 168.70 C 162.73 167.92 162.65 166.75 161.87 166.07 L 161.18 165.45 C 160.40 164.78 159.22 164.85 158.54 165.63 C 157.86 166.40 157.94 167.58 158.72 168.26 Z M 159.66 169.05 L 160.42 169.52 C 161.29 170.06 162.44 169.79 162.98 168.92 C 163.52 168.05 163.25 166.90 162.38 166.36 L 161.63 165.89 C 160.75 165.35 159.61 165.62 159.07 166.49 C 158.52 167.36 158.79 168.51 159.66 169.05 Z M 160.72 169.66 L 161.62 170.02 C 162.57 170.40 163.65 169.94 164.03 168.99 C 164.41 168.04 163.95 166.96 163.00 166.58 L 162.09 166.22 C 161.14 165.84 160.06 166.30 159.68 167.25 C 159.30 168.20 159.77 169.28 160.72 169.66 Z M 161.91 170.10 L 163.02 170.35 C 164.02 170.57 165.00 169.94 165.22 168.95 C 165.44 167.95 164.82 166.97 163.82 166.75 L 162.71 166.50 C 161.72 166.28 160.73 166.91 160.51 167.90 C 160.29 168.90 160.92 169.88 161.91 170.10 Z M 163.22 170.38 L 164.13 170.47 C 165.14 170.59 166.04 169.86 166.16 168.85 C 166.27 167.84 165.54 166.93 164.53 166.82 L 163.62 166.72 C 162.61 166.61 161.71 167.34 161.60 168.35 C 161.49 169.36 162.21 170.26 163.22 170.38 Z M 164.26 170.48 L 165.20 170.52 C 166.21 170.56 167.06 169.77 167.10 168.76 C 167.14 167.75 166.36 166.90 165.35 166.86 L 164.40 166.82 C 163.39 166.78 162.54 167.56 162.50 168.57 C 162.46 169.58 163.25 170.44 164.26 170.48 Z M 165.31 170.51 L 166.31 170.49 C 167.32 170.47 168.12 169.64 168.10 168.63 C 168.08 167.63 167.25 166.83 166.24 166.84 L 165.24 166.86 C 164.23 166.88 163.43 167.71 163.45 168.72 C 163.47 169.73 164.30 170.53 165.31 170.51 Z M 166.42 170.48 L 167.46 170.40 C 168.46 170.33 169.21 169.45 169.14 168.45 C 169.06 167.45 168.19 166.70 167.19 166.78 L 166.14 166.86 C 165.14 166.93 164.39 167.80 164.47 168.80 C 164.54 169.81 165.41 170.56 166.42 170.48 Z M 167.57 170.38 L 168.63 170.24 C 169.62 170.11 170.32 169.20 170.19 168.21 C 170.06 167.21 169.14 166.52 168.15 166.65 L 167.09 166.79 C 166.10 166.93 165.40 167.84 165.53 168.83 C 165.67 169.82 166.58 170.52 167.57 170.38 Z M 168.74 170.21 L 169.80 170.01 C 170.78 169.81 171.41 168.86 171.22 167.89 C 171.03 166.91 170.08 166.28 169.10 166.47 L 168.04 166.68 C 167.07 166.87 166.43 167.82 166.62 168.80 C 166.82 169.77 167.77 170.41 168.74 170.21 Z M 169.90 169.97 L 170.93 169.71 C 171.89 169.46 172.47 168.48 172.22 167.52 C 171.97 166.56 170.99 165.99 170.03 166.23 L 169.00 166.50 C 168.04 166.75 167.47 167.73 167.72 168.69 C 167.96 169.65 168.94 170.22 169.90 169.97 Z M 171.01 169.67 L 172.01 169.36 C 172.95 169.07 173.47 168.07 173.18 167.13 C 172.89 166.19 171.89 165.67 170.95 165.96 L 169.95 166.27 C 169.01 166.56 168.49 167.56 168.78 168.50 C 169.07 169.44 170.07 169.96 171.01 169.67 Z M 172.07 169.33 L 173.01 169.00 C 173.94 168.67 174.42 167.66 174.10 166.74 C 173.77 165.82 172.76 165.33 171.84 165.66 L 170.89 165.99 C 169.97 166.31 169.48 167.32 169.81 168.25 C 170.13 169.17 171.14 169.66 172.07 169.33 Z M 173.05 168.97 L 173.94 168.63 C 174.85 168.28 175.31 167.27 174.96 166.36 C 174.61 165.45 173.59 165.00 172.69 165.34 L 171.80 165.68 C 170.89 166.03 170.43 167.05 170.78 167.96 C 171.13 168.86 172.15 169.32 173.05 168.97 Z M 173.97 168.61 L 174.82 168.27 C 175.72 167.91 176.15 166.89 175.79 165.99 C 175.43 165.10 174.41 164.66 173.52 165.02 L 172.66 165.36 C 171.77 165.72 171.33 166.74 171.69 167.64 C 172.05 168.54 173.07 168.97 173.97 168.61 Z M 174.83 168.25 L 175.89 167.81 C 176.77 167.45 177.19 166.43 176.83 165.54 C 176.46 164.66 175.44 164.24 174.56 164.60 L 173.50 165.04 C 172.62 165.41 172.19 166.42 172.56 167.31 C 172.93 168.20 173.95 168.62 174.83 168.25 Z M 175.90 167.79 L 176.83 167.40 C 177.70 167.02 178.10 166.00 177.73 165.13 C 177.35 164.25 176.33 163.85 175.46 164.23 L 174.54 164.62 C 173.66 165.00 173.26 166.02 173.64 166.89 C 174.01 167.77 175.03 168.17 175.90 167.79 Z M 176.85 167.37 L 177.68 166.99 C 178.54 166.60 178.92 165.58 178.53 164.72 C 178.14 163.86 177.12 163.48 176.26 163.87 L 175.43 164.25 C 174.57 164.64 174.19 165.66 174.58 166.52 C 174.97 167.38 175.99 167.76 176.85 167.37 Z M 177.72 166.96 L 178.55 166.56 C 179.40 166.14 179.75 165.12 179.34 164.28 C 178.93 163.43 177.91 163.08 177.06 163.49 L 176.23 163.90 C 175.38 164.31 175.03 165.33 175.44 166.18 C 175.85 167.02 176.87 167.38 177.72 166.96 Z M 178.59 166.53 L 179.48 166.06 C 180.31 165.63 180.64 164.61 180.21 163.78 C 179.78 162.95 178.76 162.63 177.93 163.06 L 177.03 163.52 C 176.20 163.95 175.88 164.97 176.31 165.80 C 176.74 166.63 177.76 166.96 178.59 166.53 Z M 179.51 166.04 L 180.38 165.57 C 181.20 165.13 181.50 164.11 181.06 163.29 C 180.62 162.47 179.59 162.16 178.78 162.61 L 177.90 163.08 C 177.08 163.52 176.78 164.54 177.22 165.36 C 177.66 166.18 178.69 166.49 179.51 166.04 Z M 180.38 165.56 L 181.22 165.10 C 182.03 164.65 182.33 163.64 181.88 162.82 C 181.43 162.01 180.41 161.72 179.60 162.16 L 178.77 162.62 C 177.96 163.07 177.66 164.09 178.11 164.90 C 178.55 165.71 179.57 166.00 180.38 165.56 Z M 181.22 165.09 L 182.01 164.65 C 182.82 164.20 183.11 163.18 182.66 162.38 C 182.21 161.57 181.20 161.28 180.39 161.73 L 179.60 162.17 C 178.79 162.62 178.50 163.64 178.95 164.44 C 179.40 165.25 180.42 165.54 181.22 165.09 Z M 182.03 164.63 L 182.89 164.13 C 183.68 163.67 183.95 162.66 183.49 161.86 C 183.03 161.07 182.02 160.80 181.22 161.26 L 180.37 161.75 C 179.58 162.21 179.30 163.23 179.76 164.02 C 180.22 164.82 181.24 165.09 182.03 164.63 Z M 182.92 164.11 L 183.88 163.52 C 184.66 163.05 184.90 162.03 184.43 161.25 C 183.95 160.47 182.93 160.22 182.15 160.70 L 181.19 161.28 C 180.41 161.76 180.17 162.78 180.64 163.56 C 181.12 164.34 182.14 164.58 182.92 164.11 Z M 183.90 163.50 L 184.69 163.00 C 185.45 162.51 185.68 161.49 185.19 160.72 C 184.70 159.96 183.68 159.73 182.91 160.22 L 182.13 160.72 C 181.36 161.21 181.14 162.23 181.63 163.00 C 182.12 163.76 183.14 163.99 183.90 163.50 Z M 184.70 162.98 L 185.51 162.44 C 186.27 161.94 186.48 160.92 185.98 160.17 C 185.48 159.41 184.46 159.20 183.70 159.71 L 182.89 160.24 C 182.14 160.74 181.93 161.76 182.43 162.52 C 182.93 163.27 183.95 163.48 184.70 162.98 Z M 185.53 162.43 L 186.37 161.85 C 187.12 161.34 187.31 160.32 186.80 159.57 C 186.29 158.83 185.27 158.64 184.52 159.15 L 183.68 159.72 C 182.94 160.24 182.74 161.25 183.26 162.00 C 183.77 162.75 184.79 162.94 185.53 162.43 Z M 186.39 161.83 L 187.25 161.22 C 187.98 160.70 188.16 159.68 187.63 158.94 C 187.11 158.21 186.09 158.04 185.36 158.56 L 184.50 159.17 C 183.77 159.69 183.60 160.71 184.12 161.44 C 184.64 162.18 185.66 162.35 186.39 161.83 Z M 187.27 161.20 L 188.12 160.57 C 188.84 160.04 188.99 159.02 188.46 158.30 C 187.92 157.57 186.90 157.42 186.18 157.96 L 185.34 158.58 C 184.61 159.12 184.46 160.14 185.00 160.86 C 185.53 161.58 186.55 161.73 187.27 161.20 Z M 188.14 160.54 L 189.00 159.88 C 189.70 159.33 189.83 158.32 189.28 157.61 C 188.73 156.90 187.72 156.77 187.01 157.32 L 186.16 157.98 C 185.45 158.53 185.32 159.55 185.87 160.26 C 186.42 160.97 187.44 161.09 188.14 160.54 Z M 189.02 159.85 L 189.84 159.18 C 190.52 158.62 190.63 157.61 190.06 156.92 C 189.50 156.23 188.48 156.13 187.79 156.69 L 186.98 157.35 C 186.29 157.92 186.19 158.93 186.76 159.62 C 187.32 160.31 188.34 160.41 189.02 159.85 Z M 189.87 159.15 L 190.62 158.49 C 191.29 157.91 191.36 156.90 190.78 156.23 C 190.20 155.56 189.19 155.49 188.52 156.07 L 187.76 156.73 C 187.09 157.31 187.02 158.32 187.60 158.99 C 188.18 159.66 189.20 159.73 189.87 159.15 Z M 190.66 158.45 L 191.35 157.80 C 192.00 157.21 192.04 156.20 191.44 155.55 C 190.84 154.91 189.83 154.87 189.18 155.47 L 188.49 156.11 C 187.84 156.71 187.80 157.72 188.40 158.36 C 189.00 159.01 190.01 159.05 190.66 158.45 Z M 191.39 157.75 L 192.06 157.09 C 192.67 156.47 192.67 155.46 192.05 154.84 C 191.43 154.23 190.43 154.23 189.81 154.85 L 189.14 155.52 C 188.53 156.14 188.53 157.14 189.15 157.76 C 189.77 158.38 190.77 158.37 191.39 157.75 Z M 192.12 157.01 L 192.80 156.23 C 193.37 155.58 193.31 154.58 192.65 154.01 C 191.99 153.43 190.99 153.50 190.42 154.15 L 189.74 154.93 C 189.17 155.58 189.24 156.58 189.89 157.16 C 190.55 157.73 191.55 157.66 192.12 157.01 Z M 192.89 156.10 L 193.45 155.31 C 193.96 154.60 193.79 153.62 193.08 153.12 C 192.37 152.61 191.39 152.78 190.89 153.49 L 190.32 154.29 C 189.82 155.00 189.99 155.98 190.70 156.48 C 191.41 156.98 192.39 156.81 192.89 156.10 Z M 193.56 155.13 L 194.01 154.27 C 194.41 153.51 194.12 152.56 193.35 152.15 C 192.59 151.75 191.64 152.04 191.24 152.81 L 190.78 153.67 C 190.38 154.44 190.67 155.38 191.44 155.79 C 192.20 156.19 193.15 155.90 193.56 155.13 Z M 194.09 154.08 L 194.42 153.19 C 194.72 152.38 194.31 151.48 193.50 151.18 C 192.69 150.88 191.79 151.29 191.49 152.10 L 191.16 153.00 C 190.86 153.81 191.27 154.71 192.08 155.01 C 192.89 155.31 193.79 154.89 194.09 154.08 Z M 194.46 153.04 L 194.71 152.12 C 194.93 151.29 194.43 150.43 193.59 150.21 C 192.76 149.99 191.91 150.49 191.69 151.33 L 191.44 152.25 C 191.22 153.08 191.72 153.94 192.56 154.16 C 193.39 154.38 194.25 153.88 194.46 153.04 Z M 194.73 152.03 L 194.93 151.04 C 195.09 150.20 194.55 149.37 193.70 149.20 C 192.85 149.03 192.03 149.58 191.86 150.43 L 191.67 151.42 C 191.50 152.26 192.05 153.09 192.89 153.25 C 193.74 153.42 194.56 152.87 194.73 152.03 Z M 194.94 150.99 L 195.10 149.96 C 195.24 149.11 194.66 148.30 193.81 148.17 C 192.96 148.03 192.16 148.60 192.02 149.45 L 191.85 150.48 C 191.71 151.33 192.29 152.14 193.14 152.28 C 193.99 152.42 194.80 151.84 194.94 150.99 Z M 195.11 149.94 L 195.22 149.14 C 195.35 148.29 194.76 147.50 193.91 147.37 C 193.06 147.24 192.26 147.83 192.14 148.69 L 192.02 149.48 C 191.89 150.33 192.48 151.12 193.33 151.25 C 194.18 151.38 194.98 150.79 195.11 149.94 Z"
      fill="black"
      fill-rule="nonzero" /><path d="M 147.91 143.28 L 148.69 142.63 C 149.39 142.06 149.48 141.02 148.90 140.32 C 148.33 139.63 147.29 139.53 146.59 140.11 L 145.82 140.75 C 145.12 141.33 145.02 142.37 145.60 143.06 C 146.18 143.76 147.22 143.86 147.91 143.28 Z M 148.69 142.67 L 149.47 142.04 C 150.19 141.46 150.30 140.41 149.72 139.70 C 149.14 138.98 148.10 138.87 147.38 139.44 L 146.60 140.08 C 145.88 140.65 145.77 141.70 146.35 142.42 C 146.92 143.13 147.97 143.25 148.69 142.67 Z M 149.45 142.09 L 150.24 141.48 C 150.99 140.92 151.13 139.86 150.56 139.11 C 150.00 138.37 148.94 138.23 148.20 138.79 L 147.40 139.40 C 146.66 139.96 146.51 141.02 147.08 141.76 C 147.64 142.51 148.71 142.65 149.45 142.09 Z M 150.20 141.54 L 151.01 140.98 C 151.79 140.44 151.98 139.37 151.44 138.59 C 150.90 137.82 149.83 137.62 149.05 138.16 L 148.24 138.73 C 147.46 139.27 147.27 140.34 147.81 141.11 C 148.35 141.89 149.42 142.09 150.20 141.54 Z M 150.94 141.04 L 151.74 140.55 C 152.55 140.05 152.80 138.98 152.30 138.17 C 151.80 137.36 150.74 137.11 149.92 137.61 L 149.12 138.10 C 148.31 138.60 148.06 139.67 148.56 140.48 C 149.06 141.29 150.13 141.54 150.94 141.04 Z M 151.67 140.59 L 152.50 140.13 C 153.34 139.67 153.64 138.62 153.18 137.78 C 152.71 136.95 151.66 136.64 150.83 137.10 L 149.99 137.57 C 149.16 138.03 148.85 139.08 149.32 139.92 C 149.78 140.75 150.83 141.05 151.67 140.59 Z M 152.45 140.16 L 153.33 139.71 C 154.19 139.27 154.52 138.23 154.09 137.38 C 153.66 136.53 152.61 136.19 151.76 136.63 L 150.88 137.08 C 150.03 137.51 149.69 138.55 150.12 139.40 C 150.56 140.26 151.60 140.59 152.45 140.16 Z M 153.30 139.72 L 154.26 139.26 C 155.12 138.84 155.48 137.81 155.06 136.95 C 154.64 136.09 153.61 135.73 152.75 136.15 L 151.79 136.61 C 150.93 137.03 150.58 138.06 150.99 138.92 C 151.41 139.78 152.44 140.14 153.30 139.72 Z M 154.25 139.26 L 155.18 138.82 C 156.04 138.41 156.41 137.37 156.00 136.51 C 155.58 135.65 154.55 135.29 153.69 135.70 L 152.76 136.14 C 151.90 136.55 151.53 137.59 151.94 138.45 C 152.35 139.31 153.39 139.68 154.25 139.26 Z M 155.18 138.82 L 156.09 138.39 C 156.95 137.98 157.32 136.94 156.91 136.08 C 156.50 135.22 155.46 134.85 154.60 135.26 L 153.69 135.70 C 152.83 136.11 152.46 137.14 152.87 138.00 C 153.28 138.86 154.32 139.23 155.18 138.82 Z M 156.09 138.39 L 157.02 137.94 C 157.88 137.54 158.25 136.51 157.84 135.64 C 157.43 134.78 156.40 134.41 155.54 134.82 L 154.60 135.26 C 153.74 135.67 153.37 136.70 153.78 137.57 C 154.19 138.43 155.22 138.80 156.09 138.39 Z M 157.01 137.95 L 157.94 137.51 C 158.81 137.10 159.18 136.07 158.77 135.21 C 158.36 134.35 157.33 133.98 156.47 134.38 L 155.54 134.82 C 154.68 135.23 154.31 136.26 154.71 137.12 C 155.12 137.98 156.15 138.35 157.01 137.95 Z M 157.94 137.51 L 158.83 137.09 C 159.70 136.69 160.07 135.66 159.67 134.80 C 159.26 133.93 158.23 133.56 157.37 133.96 L 156.47 134.38 C 155.61 134.78 155.24 135.81 155.64 136.68 C 156.04 137.54 157.07 137.91 157.94 137.51 Z M 158.82 137.09 L 159.75 136.67 C 160.62 136.27 161.00 135.24 160.60 134.37 C 160.20 133.51 159.17 133.13 158.31 133.53 L 157.38 133.96 C 156.51 134.36 156.13 135.39 156.53 136.25 C 156.93 137.12 157.96 137.49 158.82 137.09 Z M 159.74 136.67 L 160.71 136.23 C 161.58 135.83 161.96 134.81 161.57 133.94 C 161.18 133.08 160.15 132.69 159.29 133.09 L 158.32 133.53 C 157.45 133.92 157.07 134.94 157.46 135.81 C 157.85 136.68 158.88 137.06 159.74 136.67 Z M 160.70 136.23 L 161.60 135.83 C 162.47 135.44 162.86 134.42 162.47 133.55 C 162.08 132.68 161.06 132.30 160.19 132.68 L 159.30 133.09 C 158.43 133.47 158.04 134.49 158.43 135.36 C 158.82 136.23 159.84 136.62 160.70 136.23 Z M 161.59 135.83 L 162.45 135.45 C 163.32 135.06 163.71 134.05 163.32 133.18 C 162.94 132.31 161.92 131.92 161.06 132.30 L 160.20 132.68 C 159.33 133.07 158.94 134.08 159.33 134.95 C 159.71 135.82 160.73 136.21 161.59 135.83 Z M 162.45 135.44 L 163.31 135.06 C 164.18 134.68 164.57 133.67 164.19 132.80 C 163.80 131.93 162.79 131.54 161.92 131.92 L 161.06 132.31 C 160.19 132.69 159.80 133.70 160.18 134.57 C 160.57 135.44 161.58 135.83 162.45 135.44 Z M 163.31 135.06 L 164.21 134.66 C 165.07 134.28 165.46 133.27 165.08 132.40 C 164.70 131.54 163.69 131.15 162.82 131.53 L 161.92 131.93 C 161.06 132.31 160.67 133.32 161.05 134.19 C 161.43 135.05 162.44 135.44 163.31 135.06 Z M 164.20 134.66 L 165.12 134.26 C 165.98 133.88 166.37 132.87 165.99 132.00 C 165.61 131.14 164.60 130.75 163.74 131.13 L 162.82 131.53 C 161.96 131.91 161.57 132.92 161.95 133.79 C 162.33 134.65 163.34 135.04 164.20 134.66 Z M 165.11 134.26 L 166.04 133.86 C 166.91 133.48 167.30 132.47 166.93 131.61 C 166.55 130.74 165.54 130.34 164.68 130.72 L 163.74 131.13 C 162.88 131.50 162.48 132.51 162.86 133.38 C 163.24 134.24 164.24 134.64 165.11 134.26 Z M 166.03 133.86 L 166.96 133.46 C 167.83 133.09 168.23 132.08 167.86 131.22 C 167.48 130.35 166.48 129.95 165.61 130.32 L 164.69 130.72 C 163.82 131.09 163.42 132.10 163.79 132.96 C 164.16 133.83 165.17 134.23 166.03 133.86 Z M 166.95 133.46 L 167.87 133.07 C 168.74 132.71 169.14 131.70 168.78 130.84 C 168.41 129.97 167.41 129.56 166.54 129.93 L 165.62 130.32 C 164.76 130.69 164.35 131.69 164.72 132.55 C 165.08 133.42 166.08 133.83 166.95 133.46 Z M 167.86 133.07 L 168.79 132.68 C 169.66 132.32 170.06 131.32 169.70 130.45 C 169.34 129.59 168.34 129.18 167.47 129.54 L 166.55 129.93 C 165.68 130.30 165.27 131.29 165.63 132.16 C 166.00 133.03 167.00 133.44 167.86 133.07 Z M 168.79 132.68 L 169.71 132.29 C 170.58 131.93 170.99 130.93 170.63 130.07 C 170.26 129.20 169.27 128.79 168.40 129.16 L 167.47 129.54 C 166.61 129.91 166.20 130.90 166.56 131.77 C 166.92 132.64 167.92 133.05 168.79 132.68 Z M 169.72 132.29 L 170.64 131.90 C 171.50 131.54 171.91 130.54 171.54 129.68 C 171.18 128.81 170.18 128.41 169.32 128.77 L 168.40 129.16 C 167.53 129.52 167.13 130.52 167.49 131.38 C 167.85 132.25 168.85 132.66 169.72 132.29 Z M 170.64 131.90 L 171.55 131.51 C 172.42 131.15 172.82 130.15 172.45 129.29 C 172.09 128.43 171.09 128.02 170.23 128.39 L 169.32 128.78 C 168.45 129.14 168.05 130.14 168.41 131.00 C 168.78 131.86 169.78 132.27 170.64 131.90 Z M 171.55 131.51 L 172.47 131.13 C 173.33 130.76 173.73 129.77 173.37 128.91 C 173.00 128.04 172.01 127.64 171.15 128.00 L 170.23 128.39 C 169.37 128.75 168.97 129.75 169.33 130.61 C 169.69 131.47 170.69 131.88 171.55 131.51 Z M 172.46 131.13 L 173.38 130.74 C 174.25 130.38 174.65 129.39 174.30 128.53 C 173.94 127.66 172.94 127.26 172.08 127.62 L 171.16 128.00 C 170.29 128.36 169.88 129.35 170.24 130.22 C 170.60 131.08 171.60 131.49 172.46 131.13 Z M 173.37 130.74 L 174.29 130.37 C 175.16 130.01 175.57 129.03 175.22 128.16 C 174.86 127.30 173.87 126.89 173.01 127.24 L 172.09 127.61 C 171.23 127.97 170.81 128.96 171.17 129.82 C 171.52 130.68 172.51 131.10 173.37 130.74 Z M 174.28 130.37 L 175.13 130.03 C 176.00 129.68 176.42 128.70 176.07 127.83 C 175.73 126.97 174.74 126.55 173.88 126.89 L 173.02 127.24 C 172.16 127.58 171.74 128.57 172.08 129.43 C 172.43 130.30 173.41 130.72 174.28 130.37 Z M 175.12 130.03 L 176.01 129.68 C 176.88 129.34 177.31 128.36 176.97 127.50 C 176.63 126.63 175.65 126.20 174.78 126.54 L 173.89 126.89 C 173.02 127.23 172.60 128.21 172.94 129.08 C 173.28 129.94 174.25 130.37 175.12 130.03 Z M 176.00 129.69 L 176.94 129.33 C 177.81 128.99 178.25 128.02 177.91 127.15 C 177.58 126.28 176.61 125.84 175.74 126.18 L 174.80 126.54 C 173.93 126.87 173.49 127.85 173.82 128.71 C 174.16 129.58 175.13 130.02 176.00 129.69 Z M 176.93 129.33 L 177.94 128.95 C 178.81 128.62 179.25 127.65 178.92 126.78 C 178.60 125.91 177.63 125.47 176.76 125.80 L 175.75 126.17 C 174.88 126.50 174.44 127.47 174.76 128.34 C 175.09 129.21 176.06 129.65 176.93 129.33 Z M 177.93 128.95 L 178.90 128.59 C 179.77 128.27 180.22 127.31 179.90 126.43 C 179.58 125.56 178.61 125.12 177.74 125.44 L 176.77 125.79 C 175.89 126.12 175.45 127.08 175.77 127.95 C 176.09 128.83 177.06 129.27 177.93 128.95 Z M 178.89 128.60 L 179.83 128.26 C 180.70 127.94 181.16 126.98 180.84 126.10 C 180.52 125.23 179.56 124.78 178.69 125.09 L 177.75 125.43 C 176.88 125.75 176.42 126.71 176.74 127.59 C 177.05 128.46 178.02 128.91 178.89 128.60 Z M 179.82 128.26 L 180.78 127.92 C 181.66 127.61 182.12 126.65 181.81 125.78 C 181.50 124.90 180.54 124.44 179.67 124.75 L 178.70 125.09 C 177.82 125.40 177.36 126.36 177.67 127.23 C 177.98 128.11 178.94 128.57 179.82 128.26 Z M 180.76 127.93 L 181.74 127.60 C 182.61 127.30 183.09 126.35 182.79 125.47 C 182.49 124.59 181.54 124.12 180.66 124.42 L 179.68 124.75 C 178.81 125.04 178.33 126.00 178.63 126.88 C 178.93 127.76 179.88 128.23 180.76 127.93 Z M 181.71 127.61 L 182.67 127.30 C 183.56 127.01 184.04 126.06 183.76 125.18 C 183.47 124.30 182.52 123.81 181.64 124.10 L 180.68 124.41 C 179.80 124.69 179.31 125.64 179.60 126.52 C 179.88 127.41 180.83 127.89 181.71 127.61 Z M 182.64 127.30 L 183.57 127.02 C 184.46 126.76 184.96 125.82 184.69 124.93 C 184.43 124.04 183.49 123.54 182.60 123.81 L 181.67 124.09 C 180.78 124.36 180.28 125.29 180.55 126.18 C 180.82 127.07 181.75 127.57 182.64 127.30 Z M 183.52 127.04 L 184.61 126.74 C 185.51 126.50 186.04 125.58 185.79 124.68 C 185.55 123.79 184.63 123.26 183.73 123.50 L 182.65 123.80 C 181.75 124.04 181.22 124.96 181.47 125.86 C 181.71 126.75 182.63 127.28 183.52 127.04 Z M 184.56 126.76 L 185.59 126.51 C 186.49 126.30 187.05 125.40 186.84 124.50 C 186.63 123.59 185.73 123.03 184.82 123.25 L 183.79 123.49 C 182.89 123.70 182.33 124.60 182.54 125.50 C 182.75 126.41 183.65 126.97 184.56 126.76 Z M 185.53 126.53 L 186.49 126.34 C 187.40 126.16 187.99 125.28 187.81 124.37 C 187.63 123.46 186.75 122.87 185.84 123.04 L 184.88 123.23 C 183.97 123.41 183.38 124.30 183.56 125.20 C 183.74 126.11 184.62 126.70 185.53 126.53 Z M 186.43 126.35 L 187.33 126.20 C 188.24 126.05 188.86 125.19 188.72 124.28 C 188.57 123.37 187.71 122.74 186.79 122.89 L 185.90 123.04 C 184.99 123.18 184.36 124.04 184.51 124.96 C 184.66 125.87 185.52 126.49 186.43 126.35 Z M 187.26 126.21 L 188.27 126.09 C 189.19 125.98 189.85 125.14 189.74 124.22 C 189.62 123.30 188.79 122.65 187.87 122.76 L 186.86 122.88 C 185.94 122.99 185.28 123.83 185.40 124.75 C 185.51 125.67 186.35 126.32 187.26 126.21 Z M 188.12 126.10 L 189.22 126.07 C 190.15 126.04 190.87 125.26 190.84 124.33 C 190.82 123.41 190.04 122.68 189.11 122.71 L 188.02 122.74 C 187.09 122.77 186.36 123.55 186.39 124.48 C 186.42 125.40 187.20 126.13 188.12 126.10 Z M 188.81 126.03 L 189.69 126.22 C 190.60 126.42 191.49 125.84 191.69 124.93 C 191.88 124.02 191.31 123.13 190.40 122.93 L 189.52 122.74 C 188.61 122.55 187.72 123.13 187.52 124.03 C 187.33 124.94 187.90 125.84 188.81 126.03 Z M 188.94 125.85 L 189.53 126.37 C 190.23 126.98 191.30 126.91 191.91 126.21 C 192.52 125.51 192.45 124.44 191.75 123.83 L 191.15 123.31 C 190.45 122.70 189.39 122.77 188.78 123.47 C 188.16 124.17 188.24 125.23 188.94 125.85 Z M 189.06 125.68 L 189.37 126.54 C 189.69 127.42 190.66 127.87 191.54 127.55 C 192.41 127.23 192.86 126.26 192.54 125.39 L 192.23 124.52 C 191.91 123.65 190.94 123.20 190.06 123.52 C 189.19 123.83 188.74 124.80 189.06 125.68 Z M 189.28 126.15 L 189.40 127.22 C 189.50 128.15 190.34 128.81 191.26 128.71 C 192.19 128.61 192.86 127.77 192.76 126.85 L 192.64 125.78 C 192.53 124.85 191.70 124.18 190.77 124.29 C 189.84 124.39 189.18 125.22 189.28 126.15 Z M 189.39 127.07 L 189.41 128.13 C 189.43 129.06 190.20 129.80 191.13 129.78 C 192.07 129.76 192.81 128.99 192.79 128.06 L 192.77 127.00 C 192.75 126.06 191.97 125.32 191.04 125.34 C 190.11 125.36 189.37 126.14 189.39 127.07 Z M 189.41 128.04 L 189.38 129.04 C 189.35 129.97 190.09 130.75 191.02 130.78 C 191.95 130.81 192.73 130.08 192.75 129.14 L 192.78 128.15 C 192.81 127.22 192.08 126.44 191.15 126.41 C 190.22 126.38 189.44 127.11 189.41 128.04 Z M 189.40 128.92 L 189.30 129.92 C 189.20 130.84 189.88 131.67 190.80 131.76 C 191.72 131.85 192.55 131.18 192.64 130.26 L 192.74 129.26 C 192.83 128.34 192.16 127.51 191.24 127.42 C 190.31 127.33 189.49 128.00 189.40 128.92 Z M 189.32 129.77 L 189.13 130.75 C 188.96 131.65 189.55 132.53 190.46 132.71 C 191.37 132.89 192.25 132.29 192.42 131.39 L 192.61 130.41 C 192.79 129.50 192.20 128.62 191.29 128.44 C 190.38 128.27 189.50 128.86 189.32 129.77 Z M 189.19 130.59 L 188.90 131.54 C 188.64 132.42 189.14 133.34 190.02 133.61 C 190.90 133.87 191.82 133.37 192.09 132.49 L 192.37 131.54 C 192.63 130.66 192.13 129.74 191.25 129.47 C 190.37 129.21 189.45 129.71 189.19 130.59 Z M 188.96 131.42 L 188.60 132.35 C 188.27 133.20 188.69 134.15 189.53 134.48 C 190.38 134.81 191.33 134.39 191.66 133.55 L 192.03 132.61 C 192.35 131.77 191.94 130.81 191.09 130.48 C 190.24 130.15 189.29 130.57 188.96 131.42 Z M 188.65 132.27 L 188.23 133.18 C 187.86 134.00 188.21 134.96 189.03 135.34 C 189.84 135.72 190.81 135.36 191.18 134.55 L 191.61 133.63 C 191.98 132.81 191.63 131.85 190.81 131.47 C 190.00 131.10 189.03 131.45 188.65 132.27 Z M 188.28 133.12 L 187.83 134.00 C 187.42 134.79 187.72 135.76 188.51 136.17 C 189.30 136.58 190.27 136.27 190.68 135.48 L 191.14 134.60 C 191.54 133.82 191.24 132.85 190.45 132.44 C 189.66 132.03 188.69 132.34 188.28 133.12 Z M 187.88 133.94 L 187.38 134.80 C 186.94 135.56 187.19 136.53 187.96 136.98 C 188.72 137.42 189.69 137.16 190.13 136.40 L 190.63 135.54 C 191.07 134.78 190.82 133.81 190.05 133.36 C 189.29 132.92 188.32 133.18 187.88 133.94 Z M 187.44 134.73 L 186.88 135.57 C 186.40 136.29 186.60 137.27 187.33 137.75 C 188.06 138.24 189.04 138.04 189.52 137.31 L 190.07 136.47 C 190.56 135.74 190.35 134.76 189.63 134.28 C 188.90 133.80 187.92 134.00 187.44 134.73 Z M 186.95 135.49 L 186.35 136.29 C 185.83 136.99 185.96 137.97 186.66 138.49 C 187.35 139.01 188.33 138.87 188.85 138.18 L 189.45 137.38 C 189.98 136.69 189.84 135.71 189.15 135.18 C 188.45 134.66 187.47 134.80 186.95 135.49 Z M 186.40 136.23 L 185.77 136.98 C 185.22 137.64 185.30 138.63 185.96 139.19 C 186.62 139.74 187.61 139.66 188.16 139.00 L 188.79 138.24 C 189.35 137.58 189.27 136.60 188.61 136.04 C 187.94 135.49 186.96 135.57 186.40 136.23 Z M 185.81 136.94 L 185.13 137.69 C 184.56 138.33 184.61 139.32 185.25 139.89 C 185.89 140.47 186.87 140.42 187.45 139.78 L 188.13 139.04 C 188.70 138.40 188.65 137.41 188.01 136.83 C 187.37 136.25 186.39 136.30 185.81 136.94 Z M 185.16 137.66 L 184.46 138.41 C 183.87 139.04 183.90 140.02 184.53 140.61 C 185.15 141.20 186.14 141.17 186.73 140.55 L 187.43 139.80 C 188.02 139.18 187.99 138.19 187.36 137.60 C 186.73 137.01 185.75 137.04 185.16 137.66 Z M 184.46 138.40 L 184.19 138.69 C 183.60 139.31 183.62 140.30 184.25 140.89 C 184.87 141.49 185.86 141.46 186.46 140.84 L 186.73 140.55 C 187.32 139.93 187.30 138.94 186.67 138.35 C 186.05 137.75 185.06 137.78 184.46 138.40 Z"
      fill="black"
      fill-rule="nonzero" /><path d="M 169.09 117.47 L 168.86 118.40 C 168.63 119.31 169.19 120.23 170.10 120.46 C 171.01 120.68 171.93 120.13 172.15 119.22 L 172.38 118.28 C 172.61 117.37 172.05 116.45 171.14 116.22 C 170.23 116.00 169.31 116.56 169.09 117.47 Z M 168.82 118.43 L 168.60 119.38 C 168.39 120.31 168.97 121.24 169.91 121.45 C 170.84 121.66 171.77 121.08 171.98 120.15 L 172.19 119.19 C 172.40 118.26 171.82 117.33 170.89 117.12 C 169.96 116.91 169.03 117.50 168.82 118.43 Z M 168.56 119.44 L 168.37 120.43 C 168.19 121.38 168.82 122.31 169.77 122.49 C 170.73 122.67 171.65 122.04 171.84 121.08 L 172.02 120.09 C 172.20 119.13 171.57 118.21 170.62 118.03 C 169.66 117.85 168.74 118.48 168.56 119.44 Z M 168.32 120.51 L 168.18 121.55 C 168.04 122.53 168.73 123.44 169.72 123.57 C 170.70 123.71 171.61 123.02 171.74 122.03 L 171.88 121.00 C 172.02 120.01 171.33 119.11 170.35 118.97 C 169.36 118.84 168.46 119.53 168.32 120.51 Z M 168.16 121.64 L 168.07 122.64 C 167.99 123.64 168.73 124.51 169.73 124.60 C 170.72 124.68 171.60 123.94 171.68 122.94 L 171.76 121.94 C 171.84 120.94 171.10 120.07 170.11 119.99 C 169.11 119.91 168.24 120.65 168.16 121.64 Z M 168.08 122.71 L 168.03 123.74 C 167.99 124.73 168.76 125.57 169.75 125.62 C 170.74 125.66 171.58 124.89 171.63 123.90 L 171.67 122.87 C 171.72 121.88 170.95 121.04 169.96 121.00 C 168.96 120.95 168.12 121.72 168.08 122.71 Z M 168.04 123.78 L 168.02 124.80 C 168.01 125.79 168.79 126.60 169.78 126.62 C 170.77 126.64 171.58 125.86 171.60 124.87 L 171.62 123.85 C 171.64 122.86 170.85 122.05 169.87 122.03 C 168.88 122.01 168.06 122.80 168.04 123.78 Z M 168.03 124.83 L 168.03 125.80 C 168.02 126.78 168.82 127.58 169.80 127.59 C 170.78 127.59 171.58 126.80 171.59 125.82 L 171.59 124.84 C 171.60 123.86 170.80 123.06 169.82 123.05 C 168.84 123.05 168.04 123.84 168.03 124.83 Z M 168.04 125.81 L 168.04 126.86 C 168.04 127.83 168.83 128.63 169.81 128.63 C 170.78 128.63 171.58 127.83 171.58 126.86 L 171.58 125.81 C 171.58 124.83 170.78 124.04 169.81 124.04 C 168.83 124.04 168.04 124.83 168.04 125.81 Z M 168.06 126.86 L 168.06 127.88 C 168.06 128.85 168.85 129.63 169.81 129.63 C 170.78 129.63 171.57 128.84 171.56 127.87 L 171.56 126.85 C 171.56 125.89 170.77 125.10 169.80 125.11 C 168.84 125.11 168.05 125.89 168.06 126.86 Z M 168.08 127.89 L 168.08 128.85 C 168.09 129.81 168.87 130.58 169.83 130.57 C 170.79 130.56 171.56 129.78 171.55 128.82 L 171.55 127.86 C 171.54 126.91 170.76 126.13 169.80 126.14 C 168.84 126.15 168.07 126.93 168.08 127.89 Z M 168.10 128.87 L 168.12 129.81 C 168.13 130.76 168.92 131.52 169.86 131.50 C 170.81 131.48 171.57 130.70 171.55 129.75 L 171.54 128.81 C 171.52 127.86 170.74 127.10 169.79 127.12 C 168.84 127.13 168.08 127.92 168.10 128.87 Z M 168.13 129.83 L 168.16 130.81 C 168.19 131.76 168.97 132.50 169.92 132.47 C 170.86 132.44 171.60 131.65 171.57 130.71 L 171.54 129.73 C 171.51 128.79 170.73 128.05 169.78 128.07 C 168.84 128.10 168.10 128.89 168.13 129.83 Z M 168.17 130.84 L 168.22 131.84 C 168.26 132.77 169.05 133.50 169.99 133.45 C 170.92 133.41 171.65 132.62 171.61 131.68 L 171.56 130.68 C 171.52 129.75 170.72 129.02 169.79 129.07 C 168.85 129.11 168.13 129.90 168.17 130.84 Z M 168.23 131.87 L 168.29 132.89 C 168.35 133.82 169.15 134.52 170.08 134.46 C 171.01 134.40 171.72 133.60 171.66 132.67 L 171.59 131.65 C 171.53 130.72 170.73 130.02 169.80 130.08 C 168.87 130.14 168.17 130.94 168.23 131.87 Z M 168.31 132.92 L 168.39 133.89 C 168.46 134.81 169.27 135.50 170.20 135.42 C 171.12 135.35 171.80 134.54 171.73 133.61 L 171.64 132.64 C 171.57 131.72 170.76 131.03 169.84 131.11 C 168.92 131.19 168.23 132.00 168.31 132.92 Z M 168.40 133.91 L 168.50 134.90 C 168.58 135.81 169.39 136.48 170.31 136.39 C 171.22 136.31 171.89 135.50 171.80 134.58 L 171.71 133.60 C 171.62 132.68 170.81 132.01 169.90 132.10 C 168.99 132.19 168.32 133.00 168.40 133.91 Z M 168.51 134.90 L 168.61 135.91 C 168.70 136.81 169.50 137.48 170.41 137.39 C 171.31 137.30 171.98 136.49 171.89 135.59 L 171.79 134.58 C 171.70 133.68 170.90 133.01 169.99 133.10 C 169.09 133.19 168.42 133.99 168.51 134.90 Z M 168.62 135.90 L 168.71 136.91 C 168.80 137.81 169.59 138.47 170.49 138.39 C 171.39 138.30 172.05 137.51 171.97 136.61 L 171.87 135.60 C 171.79 134.70 171.00 134.04 170.10 134.12 C 169.20 134.20 168.54 135.00 168.62 135.90 Z M 168.72 136.89 L 168.80 137.88 C 168.88 138.77 169.66 139.44 170.55 139.36 C 171.44 139.29 172.11 138.51 172.04 137.62 L 171.96 136.63 C 171.89 135.74 171.10 135.07 170.21 135.14 C 169.32 135.22 168.65 136.00 168.72 136.89 Z M 168.81 137.86 L 168.88 138.86 C 168.95 139.75 169.72 140.42 170.60 140.35 C 171.49 140.29 172.16 139.52 172.10 138.63 L 172.03 137.63 C 171.97 136.74 171.19 136.08 170.31 136.14 C 169.42 136.20 168.75 136.97 168.81 137.86 Z M 168.89 138.84 L 168.95 139.85 C 169.01 140.73 169.77 141.40 170.65 141.35 C 171.53 141.30 172.21 140.54 172.15 139.65 L 172.09 138.65 C 172.04 137.76 171.28 137.09 170.39 137.15 C 169.51 137.20 168.84 137.96 168.89 138.84 Z M 168.96 139.83 L 169.02 140.84 C 169.06 141.72 169.81 142.39 170.69 142.35 C 171.57 142.30 172.24 141.55 172.20 140.68 L 172.14 139.67 C 172.10 138.79 171.35 138.12 170.47 138.16 C 169.59 138.21 168.92 138.96 168.96 139.83 Z M 169.02 140.83 L 169.07 141.83 C 169.10 142.71 169.85 143.39 170.72 143.35 C 171.59 143.31 172.27 142.57 172.23 141.69 L 172.19 140.69 C 172.15 139.81 171.41 139.14 170.54 139.18 C 169.66 139.21 168.98 139.95 169.02 140.83 Z M 169.07 141.82 L 169.11 142.82 C 169.14 143.70 169.88 144.38 170.75 144.34 C 171.62 144.31 172.30 143.57 172.27 142.70 L 172.23 141.70 C 172.19 140.83 171.46 140.15 170.59 140.18 C 169.72 140.22 169.04 140.95 169.07 141.82 Z M 169.12 142.82 L 169.15 143.81 C 169.18 144.68 169.91 145.36 170.78 145.33 C 171.65 145.30 172.33 144.57 172.30 143.70 L 172.26 142.71 C 172.23 141.84 171.50 141.16 170.63 141.19 C 169.76 141.22 169.08 141.95 169.12 142.82 Z M 169.16 143.81 L 169.19 144.80 C 169.22 145.67 169.95 146.35 170.81 146.32 C 171.68 146.29 172.36 145.56 172.33 144.69 L 172.29 143.70 C 172.26 142.84 171.54 142.16 170.67 142.19 C 169.80 142.22 169.13 142.95 169.16 143.81 Z M 169.19 144.80 L 169.23 145.79 C 169.26 146.66 169.98 147.33 170.85 147.30 C 171.71 147.27 172.39 146.55 172.36 145.68 L 172.32 144.69 C 172.29 143.83 171.57 143.15 170.70 143.18 C 169.84 143.21 169.16 143.94 169.19 144.80 Z M 169.23 145.79 L 169.27 146.79 C 169.30 147.65 170.02 148.33 170.88 148.30 C 171.75 148.27 172.42 147.54 172.39 146.68 L 172.36 145.68 C 172.33 144.82 171.60 144.14 170.74 144.17 C 169.88 144.20 169.20 144.93 169.23 145.79 Z M 169.27 146.79 L 169.30 147.80 C 169.33 148.66 170.05 149.34 170.92 149.31 C 171.78 149.28 172.45 148.56 172.42 147.69 L 172.39 146.68 C 172.36 145.82 171.64 145.14 170.77 145.17 C 169.91 145.20 169.24 145.93 169.27 146.79 Z M 169.30 147.80 L 169.34 148.81 C 169.37 149.68 170.09 150.35 170.95 150.32 C 171.81 150.29 172.49 149.57 172.46 148.71 L 172.42 147.69 C 172.39 146.83 171.67 146.16 170.81 146.19 C 169.95 146.22 169.27 146.94 169.30 147.80 Z M 169.34 148.81 L 169.37 149.83 C 169.40 150.69 170.12 151.37 170.98 151.34 C 171.84 151.31 172.52 150.59 172.49 149.73 L 172.46 148.71 C 172.43 147.85 171.71 147.18 170.85 147.20 C 169.99 147.23 169.31 147.95 169.34 148.81 Z M 169.37 149.83 L 169.40 150.83 C 169.42 151.69 170.14 152.37 171.00 152.35 C 171.86 152.32 172.54 151.60 172.52 150.74 L 172.49 149.74 C 172.47 148.88 171.75 148.20 170.89 148.22 C 170.02 148.25 169.35 148.96 169.37 149.83 Z M 169.40 150.82 L 169.42 151.79 C 169.44 152.65 170.15 153.33 171.01 153.31 C 171.88 153.29 172.56 152.58 172.54 151.72 L 172.52 150.75 C 172.50 149.89 171.78 149.21 170.92 149.23 C 170.06 149.25 169.38 149.96 169.40 150.82 Z M 169.42 151.78 L 169.43 152.83 C 169.45 153.69 170.15 154.38 171.02 154.37 C 171.88 154.36 172.57 153.65 172.55 152.79 L 172.54 151.73 C 172.53 150.87 171.82 150.18 170.96 150.19 C 170.09 150.20 169.41 150.91 169.42 151.78 Z M 169.43 152.82 L 169.44 153.82 C 169.45 154.68 170.15 155.38 171.01 155.37 C 171.87 155.37 172.57 154.66 172.56 153.80 L 172.55 152.80 C 172.55 151.94 171.85 151.24 170.98 151.25 C 170.12 151.25 169.43 151.96 169.43 152.82 Z M 169.44 153.81 L 169.44 154.77 C 169.44 155.64 170.14 156.33 171.00 156.33 C 171.87 156.33 172.56 155.63 172.56 154.77 L 172.56 153.81 C 172.56 152.95 171.86 152.25 171.00 152.25 C 170.14 152.25 169.44 152.95 169.44 153.81 Z M 169.44 154.77 L 169.44 155.76 C 169.44 156.62 170.14 157.32 171.00 157.32 C 171.86 157.32 172.56 156.62 172.56 155.76 L 172.56 154.77 C 172.56 153.91 171.86 153.21 171.00 153.21 C 170.14 153.21 169.44 153.91 169.44 154.77 Z M 169.44 155.76 L 169.44 156.76 C 169.44 157.62 170.14 158.32 171.00 158.32 C 171.86 158.32 172.56 157.62 172.56 156.76 L 172.56 155.76 C 172.56 154.89 171.86 154.20 171.00 154.20 C 170.14 154.20 169.44 154.89 169.44 155.76 Z M 169.44 156.76 L 169.44 157.75 C 169.44 158.61 170.14 159.31 171.00 159.31 C 171.86 159.31 172.56 158.61 172.56 157.75 L 172.56 156.76 C 172.56 155.90 171.86 155.20 171.00 155.20 C 170.14 155.20 169.44 155.90 169.44 156.76 Z M 169.44 157.75 L 169.44 158.20 C 169.44 159.06 170.14 159.76 171.00 159.76 C 171.86 159.76 172.56 159.06 172.56 158.20 L 172.56 157.75 C 172.56 156.89 171.86 156.19 171.00 156.19 C 170.14 156.19 169.44 156.89 169.44 157.75 Z"
      fill="black"
      fill-rule="nonzero" /></svg>