<svg xmlns="http://www.w3.org/2000/svg" width="300" height="300" viewBox="0 0 300 300">
<path d="M 152.30 141.46 L 151.40 141.90 C 150.51 142.34 150.14 143.42 150.58 144.32 C 151.02 145.21 152.11 145.58 153.00 145.14 L 153.90 144.69 C 154.79 144.25 155.16 143.17 154.72 142.28 C 154.27 141.39 153.19 141.02 152.30 141.46 Z M 151.26 141.96 L 150.41 142.47 C 149.55 142.98 149.27 144.10 149.79 144.97 C 150.30 145.83 151.42 146.11 152.29 145.59 L 153.14 145.08 C 154.00 144.57 154.28 143.45 153.76 142.58 C 153.25 141.72 152.13 141.44 151.26 141.96 Z M 150.16 142.63 L 149.40 143.27 C 148.62 143.93 148.53 145.09 149.19 145.87 C 149.85 146.64 151.01 146.74 151.78 146.08 L 152.54 145.43 C 153.32 144.77 153.41 143.61 152.75 142.84 C 152.09 142.06 150.93 141.97 150.16 142.63 Z M 149.11 143.54 L 148.52 144.32 C 147.90 145.13 148.05 146.30 148.86 146.92 C 149.68 147.55 150.85 147.40 151.47 146.58 L 152.06 145.81 C 152.69 144.99 152.54 143.83 151.72 143.20 C 150.91 142.58 149.74 142.73 149.11 143.54 Z M 148.33 144.58 L 147.87 145.47 C 147.38 146.39 147.74 147.52 148.66 148.00 C 149.57 148.48 150.71 148.13 151.19 147.21 L 151.66 146.32 C 152.14 145.40 151.79 144.27 150.87 143.79 C 149.95 143.31 148.82 143.66 148.33 144.58 Z M 147.75 145.69 L 147.40 146.65 C 147.04 147.63 147.55 148.72 148.53 149.07 C 149.51 149.43 150.60 148.93 150.96 147.94 L 151.31 146.99 C 151.67 146.01 151.16 144.92 150.18 144.56 C 149.19 144.20 148.11 144.71 147.75 145.69 Z M 147.32 146.86 L 147.09 147.83 C 146.85 148.86 147.48 149.88 148.51 150.13 C 149.53 150.37 150.56 149.74 150.80 148.71 L 151.03 147.74 C 151.28 146.71 150.64 145.68 149.62 145.44 C 148.60 145.20 147.57 145.83 147.32 146.86 Z M 147.05 148.03 L 146.93 149.01 C 146.79 150.06 147.54 151.02 148.58 151.15 C 149.63 151.28 150.59 150.54 150.72 149.49 L 150.85 148.51 C 150.98 147.46 150.24 146.51 149.19 146.38 C 148.14 146.24 147.18 146.98 147.05 148.03 Z M 146.91 149.18 L 146.87 150.17 C 146.83 151.23 147.65 152.12 148.71 152.16 C 149.76 152.20 150.66 151.38 150.70 150.32 L 150.74 149.33 C 150.78 148.27 149.96 147.38 148.90 147.34 C 147.84 147.29 146.95 148.12 146.91 149.18 Z M 146.86 150.27 L 146.88 151.27 C 146.90 152.33 147.77 153.18 148.83 153.16 C 149.89 153.15 150.73 152.28 150.72 151.22 L 150.70 150.22 C 150.69 149.16 149.81 148.31 148.75 148.33 C 147.69 148.34 146.85 149.21 146.86 150.27 Z M 146.88 151.38 L 146.95 152.37 C 147.03 153.42 147.94 154.22 149.00 154.15 C 150.06 154.07 150.86 153.16 150.78 152.10 L 150.71 151.11 C 150.64 150.05 149.72 149.25 148.66 149.33 C 147.61 149.40 146.81 150.32 146.88 151.38 Z M 146.97 152.55 L 147.14 153.54 C 147.31 154.58 148.30 155.29 149.35 155.12 C 150.40 154.94 151.10 153.95 150.93 152.91 L 150.76 151.92 C 150.59 150.87 149.60 150.16 148.55 150.34 C 147.51 150.51 146.80 151.50 146.97 152.55 Z M 147.20 153.80 L 147.51 154.77 C 147.83 155.78 148.91 156.34 149.92 156.02 C 150.93 155.70 151.49 154.62 151.17 153.61 L 150.86 152.64 C 150.54 151.63 149.46 151.07 148.45 151.39 C 147.44 151.71 146.88 152.79 147.20 153.80 Z M 147.64 155.07 L 148.08 155.93 C 148.57 156.86 149.73 157.23 150.67 156.74 C 151.61 156.25 151.97 155.09 151.48 154.15 L 151.04 153.30 C 150.55 152.36 149.39 152.00 148.45 152.49 C 147.51 152.98 147.15 154.13 147.64 155.07 Z M 148.25 156.18 L 148.83 156.97 C 149.46 157.82 150.66 158.00 151.51 157.37 C 152.36 156.74 152.53 155.54 151.91 154.69 L 151.32 153.90 C 150.69 153.05 149.49 152.88 148.64 153.50 C 147.80 154.13 147.62 155.33 148.25 156.18 Z M 149.01 157.17 L 149.73 157.89 C 150.47 158.64 151.67 158.65 152.42 157.91 C 153.17 157.17 153.18 155.97 152.44 155.22 L 151.73 154.49 C 150.99 153.74 149.78 153.74 149.03 154.47 C 148.28 155.21 148.27 156.42 149.01 157.17 Z M 149.91 158.05 L 150.71 158.68 C 151.53 159.33 152.73 159.18 153.38 158.36 C 154.02 157.53 153.88 156.34 153.06 155.69 L 152.26 155.06 C 151.43 154.41 150.24 154.56 149.59 155.38 C 148.94 156.20 149.08 157.40 149.91 158.05 Z M 150.89 158.79 L 151.68 159.28 C 152.56 159.83 153.73 159.56 154.28 158.67 C 154.83 157.78 154.56 156.62 153.67 156.07 L 152.88 155.58 C 151.99 155.03 150.83 155.30 150.28 156.19 C 149.73 157.08 150.00 158.24 150.89 158.79 Z M 151.86 159.37 L 152.74 159.79 C 153.67 160.24 154.80 159.84 155.24 158.90 C 155.69 157.96 155.29 156.84 154.36 156.39 L 153.48 155.98 C 152.55 155.53 151.42 155.93 150.98 156.86 C 150.53 157.80 150.93 158.92 151.86 159.37 Z M 152.93 159.86 L 153.89 160.19 C 154.87 160.53 155.94 160.01 156.27 159.04 C 156.61 158.06 156.10 157.00 155.12 156.66 L 154.16 156.32 C 153.18 155.99 152.12 156.50 151.78 157.48 C 151.44 158.45 151.96 159.52 152.93 159.86 Z M 154.09 160.24 L 155.15 160.48 C 156.15 160.71 157.15 160.08 157.38 159.08 C 157.61 158.08 156.98 157.08 155.98 156.86 L 154.92 156.61 C 153.92 156.38 152.92 157.01 152.69 158.01 C 152.47 159.01 153.09 160.01 154.09 160.24 Z M 155.33 160.50 L 156.32 160.63 C 157.34 160.77 158.26 160.05 158.40 159.04 C 158.53 158.03 157.82 157.10 156.81 156.97 L 155.81 156.83 C 154.80 156.70 153.87 157.41 153.73 158.43 C 153.60 159.44 154.31 160.37 155.33 160.50 Z M 156.46 160.63 L 157.49 160.69 C 158.50 160.75 159.37 159.97 159.43 158.96 C 159.48 157.94 158.70 157.08 157.69 157.02 L 156.67 156.96 C 155.65 156.91 154.78 157.68 154.73 158.70 C 154.67 159.71 155.45 160.58 156.46 160.63 Z M 157.62 160.68 L 158.65 160.67 C 159.66 160.65 160.47 159.82 160.45 158.81 C 160.43 157.80 159.60 157.00 158.59 157.01 L 157.56 157.03 C 156.55 157.04 155.75 157.87 155.76 158.88 C 155.78 159.89 156.61 160.70 157.62 160.68 Z M 158.78 160.65 L 159.79 160.56 C 160.79 160.47 161.53 159.59 161.44 158.59 C 161.35 157.59 160.47 156.85 159.47 156.94 L 158.46 157.03 C 157.46 157.12 156.73 158.00 156.81 159.00 C 156.90 160.00 157.78 160.74 158.78 160.65 Z M 159.93 160.53 L 160.87 160.37 C 161.85 160.20 162.52 159.27 162.35 158.29 C 162.18 157.30 161.25 156.64 160.26 156.81 L 159.32 156.97 C 158.34 157.14 157.68 158.07 157.85 159.06 C 158.01 160.04 158.95 160.70 159.93 160.53 Z M 161.07 160.32 L 162.09 160.02 C 163.05 159.74 163.60 158.75 163.32 157.80 C 163.05 156.84 162.05 156.29 161.10 156.57 L 160.07 156.87 C 159.12 157.14 158.57 158.14 158.84 159.09 C 159.12 160.04 160.11 160.59 161.07 160.32 Z M 162.33 159.92 L 163.25 159.51 C 164.15 159.10 164.56 158.05 164.15 157.15 C 163.75 156.25 162.69 155.85 161.79 156.25 L 160.87 156.66 C 159.97 157.07 159.56 158.12 159.97 159.02 C 160.37 159.92 161.43 160.33 162.33 159.92 Z M 163.46 159.39 L 164.28 158.88 C 165.11 158.36 165.36 157.26 164.84 156.43 C 164.32 155.60 163.23 155.35 162.40 155.86 L 161.58 156.37 C 160.75 156.89 160.50 157.99 161.02 158.82 C 161.53 159.65 162.63 159.90 163.46 159.39 Z M 164.43 158.76 L 165.17 158.17 C 165.93 157.57 166.06 156.45 165.46 155.69 C 164.85 154.93 163.74 154.80 162.98 155.40 L 162.24 155.99 C 161.47 156.59 161.35 157.70 161.95 158.47 C 162.56 159.23 163.67 159.36 164.43 158.76 Z M 165.27 158.07 L 165.99 157.40 C 166.70 156.74 166.74 155.63 166.08 154.92 C 165.41 154.20 164.30 154.17 163.59 154.83 L 162.87 155.50 C 162.16 156.16 162.12 157.28 162.79 157.99 C 163.45 158.70 164.56 158.74 165.27 158.07 Z M 166.08 157.31 L 166.76 156.58 C 167.42 155.87 167.38 154.76 166.67 154.10 C 165.95 153.44 164.84 153.48 164.18 154.19 L 163.50 154.92 C 162.84 155.63 162.88 156.74 163.59 157.40 C 164.31 158.07 165.42 158.02 166.08 157.31 Z M 166.83 156.49 L 167.47 155.71 C 168.08 154.96 167.96 153.85 167.21 153.24 C 166.45 152.63 165.35 152.75 164.74 153.50 L 164.10 154.28 C 163.49 155.03 163.61 156.14 164.36 156.75 C 165.12 157.36 166.22 157.25 166.83 156.49 Z M 167.54 155.62 L 168.12 154.79 C 168.68 154.00 168.49 152.90 167.69 152.35 C 166.90 151.79 165.81 151.98 165.25 152.77 L 164.67 153.59 C 164.11 154.39 164.30 155.48 165.09 156.04 C 165.88 156.60 166.98 156.41 167.54 155.62 Z M 168.18 154.69 L 168.70 153.84 C 169.21 153.01 168.95 151.93 168.12 151.43 C 167.29 150.92 166.21 151.18 165.71 152.01 L 165.19 152.87 C 164.68 153.69 164.94 154.77 165.77 155.28 C 166.60 155.78 167.68 155.52 168.18 154.69 Z M 168.76 153.74 L 169.22 152.85 C 169.67 152.00 169.34 150.94 168.49 150.49 C 167.63 150.03 166.57 150.37 166.12 151.22 L 165.65 152.11 C 165.20 152.97 165.53 154.03 166.39 154.48 C 167.25 154.93 168.31 154.60 168.76 153.74 Z M 169.27 152.75 L 169.68 151.84 C 170.07 150.95 169.67 149.92 168.79 149.52 C 167.90 149.13 166.87 149.53 166.47 150.41 L 166.07 151.33 C 165.67 152.21 166.07 153.25 166.96 153.64 C 167.84 154.03 168.88 153.64 169.27 152.75 Z M 169.72 151.73 L 170.06 150.80 C 170.40 149.89 169.93 148.88 169.02 148.55 C 168.11 148.22 167.11 148.68 166.77 149.59 L 166.43 150.52 C 166.10 151.43 166.56 152.44 167.47 152.77 C 168.38 153.11 169.39 152.64 169.72 151.73 Z M 170.10 150.69 L 170.38 149.76 C 170.65 148.83 170.12 147.85 169.19 147.58 C 168.26 147.30 167.28 147.83 167.01 148.77 L 166.73 149.70 C 166.46 150.63 166.99 151.61 167.92 151.88 C 168.85 152.16 169.83 151.62 170.10 150.69 Z M 170.41 149.64 L 170.63 148.68 C 170.84 147.73 170.24 146.79 169.29 146.58 C 168.34 146.37 167.40 146.97 167.19 147.91 L 166.97 148.88 C 166.76 149.83 167.36 150.77 168.31 150.98 C 169.26 151.19 170.20 150.59 170.41 149.64 Z M 170.65 148.56 L 170.80 147.56 C 170.95 146.59 170.29 145.69 169.33 145.55 C 168.36 145.40 167.46 146.06 167.32 147.03 L 167.16 148.03 C 167.02 148.99 167.68 149.89 168.64 150.04 C 169.60 150.19 170.50 149.52 170.65 148.56 Z M 170.82 147.45 L 170.91 146.43 C 171.00 145.46 170.28 144.60 169.30 144.52 C 168.33 144.43 167.47 145.15 167.39 146.12 L 167.30 147.14 C 167.21 148.11 167.93 148.97 168.90 149.05 C 169.88 149.14 170.74 148.42 170.82 147.45 Z M 170.92 146.31 L 170.94 145.32 C 170.96 144.34 170.18 143.53 169.20 143.52 C 168.22 143.50 167.42 144.28 167.40 145.25 L 167.38 146.25 C 167.36 147.22 168.14 148.03 169.12 148.05 C 170.09 148.07 170.90 147.29 170.92 146.31 Z M 170.94 145.15 L 170.86 144.15 C 170.79 143.18 169.94 142.44 168.96 142.52 C 167.98 142.59 167.25 143.44 167.33 144.42 L 167.40 145.42 C 167.47 146.40 168.32 147.13 169.30 147.05 C 170.28 146.98 171.01 146.13 170.94 145.15 Z M 170.83 143.93 L 170.63 142.95 C 170.44 141.99 169.50 141.37 168.54 141.56 C 167.58 141.76 166.96 142.70 167.15 143.66 L 167.35 144.64 C 167.55 145.60 168.49 146.22 169.45 146.02 C 170.41 145.83 171.03 144.89 170.83 143.93 Z M 170.55 142.67 L 170.20 141.73 C 169.85 140.82 168.83 140.35 167.91 140.70 C 166.99 141.05 166.53 142.07 166.88 142.99 L 167.23 143.93 C 167.58 144.85 168.60 145.31 169.52 144.96 C 170.44 144.62 170.90 143.59 170.55 142.67 Z M 170.06 141.45 L 169.54 140.58 C 169.04 139.74 167.95 139.46 167.10 139.97 C 166.26 140.47 165.99 141.57 166.49 142.41 L 167.01 143.28 C 167.52 144.12 168.61 144.39 169.45 143.89 C 170.29 143.38 170.57 142.29 170.06 141.45 Z M 169.39 140.36 L 168.74 139.57 C 168.11 138.82 166.99 138.71 166.23 139.34 C 165.48 139.96 165.37 141.08 165.99 141.84 L 166.64 142.63 C 167.27 143.39 168.39 143.49 169.15 142.87 C 169.91 142.24 170.01 141.12 169.39 140.36 Z M 168.59 139.41 L 167.85 138.72 C 167.14 138.05 166.01 138.08 165.34 138.80 C 164.66 139.52 164.70 140.64 165.41 141.32 L 166.15 142.01 C 166.86 142.68 167.99 142.64 168.66 141.93 C 169.34 141.21 169.30 140.08 168.59 139.41 Z M 167.70 138.59 L 166.93 138.01 C 166.14 137.42 165.02 137.59 164.43 138.37 C 163.84 139.16 164.01 140.28 164.79 140.87 L 165.57 141.45 C 166.35 142.03 167.47 141.87 168.06 141.08 C 168.65 140.30 168.49 139.18 167.70 138.59 Z M 166.75 137.90 L 165.89 137.40 C 165.04 136.91 163.95 137.20 163.46 138.05 C 162.96 138.90 163.26 139.99 164.11 140.49 L 164.97 140.98 C 165.82 141.48 166.91 141.18 167.40 140.33 C 167.90 139.48 167.60 138.39 166.75 137.90 Z M 165.67 137.30 L 164.78 136.93 C 163.87 136.56 162.83 136.99 162.46 137.90 C 162.09 138.81 162.52 139.85 163.43 140.23 L 164.33 140.59 C 165.24 140.96 166.27 140.53 166.65 139.62 C 167.02 138.71 166.58 137.67 165.67 137.30 Z M 164.56 136.86 L 163.62 136.61 C 162.67 136.36 161.69 136.92 161.44 137.87 C 161.19 138.82 161.75 139.79 162.70 140.04 L 163.65 140.30 C 164.60 140.55 165.57 139.98 165.82 139.04 C 166.08 138.09 165.51 137.11 164.56 136.86 Z M 163.44 136.57 L 162.41 136.41 C 161.45 136.25 160.54 136.91 160.38 137.88 C 160.22 138.84 160.88 139.76 161.85 139.91 L 162.88 140.08 C 163.84 140.24 164.75 139.58 164.91 138.61 C 165.07 137.64 164.41 136.73 163.44 136.57 Z M 162.31 136.40 L 161.34 136.30 C 160.36 136.20 159.50 136.91 159.40 137.89 C 159.30 138.86 160.01 139.73 160.99 139.82 L 161.95 139.92 C 162.93 140.02 163.79 139.31 163.89 138.34 C 163.99 137.36 163.28 136.50 162.31 136.40 Z M 161.27 136.30 L 160.25 136.24 C 159.28 136.18 158.44 136.92 158.38 137.90 C 158.32 138.87 159.06 139.70 160.04 139.76 L 161.06 139.82 C 162.03 139.88 162.86 139.14 162.92 138.17 C 162.98 137.20 162.24 136.36 161.27 136.30 Z M 160.19 136.25 L 159.17 136.22 C 158.20 136.19 157.39 136.95 157.36 137.92 C 157.33 138.89 158.09 139.70 159.06 139.72 L 160.09 139.76 C 161.06 139.78 161.87 139.02 161.90 138.05 C 161.93 137.09 161.16 136.28 160.19 136.25 Z M 159.12 136.22 L 158.12 136.22 C 157.16 136.21 156.37 136.99 156.37 137.96 C 156.36 138.92 157.14 139.71 158.11 139.71 L 159.11 139.72 C 160.07 139.72 160.86 138.94 160.86 137.98 C 160.87 137.01 160.09 136.23 159.12 136.22 Z M 158.08 136.23 L 157.04 136.25 C 156.08 136.28 155.32 137.07 155.34 138.03 C 155.36 138.98 156.15 139.74 157.11 139.72 L 158.15 139.70 C 159.11 139.68 159.87 138.89 159.85 137.93 C 159.83 136.97 159.04 136.21 158.08 136.23 Z M 156.95 136.28 L 155.93 136.35 C 154.99 136.43 154.28 137.25 154.35 138.19 C 154.42 139.14 155.25 139.85 156.19 139.77 L 157.20 139.70 C 158.15 139.63 158.86 138.81 158.78 137.86 C 158.71 136.92 157.89 136.21 156.95 136.28 Z M 155.77 136.40 L 154.82 136.56 C 153.90 136.72 153.29 137.60 153.45 138.52 C 153.61 139.44 154.49 140.06 155.41 139.90 L 156.35 139.73 C 157.27 139.57 157.89 138.69 157.73 137.77 C 157.57 136.85 156.69 136.24 155.77 136.40 Z M 154.61 136.64 L 153.69 136.93 C 152.82 137.21 152.33 138.15 152.61 139.02 C 152.89 139.90 153.82 140.39 154.70 140.11 L 155.62 139.82 C 156.50 139.54 156.98 138.60 156.71 137.73 C 156.43 136.85 155.49 136.36 154.61 136.64 Z M 153.49 137.03 L 152.65 137.43 C 151.82 137.82 151.47 138.81 151.86 139.63 C 152.25 140.46 153.24 140.81 154.07 140.42 L 154.91 140.01 C 155.73 139.62 156.08 138.64 155.69 137.81 C 155.30 136.98 154.31 136.63 153.49 137.03 Z M 152.51 137.51 L 151.67 138.01 C 150.88 138.48 150.63 139.49 151.10 140.27 C 151.56 141.05 152.58 141.31 153.36 140.84 L 154.20 140.34 C 154.98 139.87 155.24 138.86 154.77 138.07 C 154.30 137.29 153.29 137.04 152.51 137.51 Z M 151.59 138.06 L 150.74 138.64 C 149.99 139.15 149.79 140.17 150.30 140.92 C 150.81 141.68 151.84 141.87 152.59 141.36 L 153.44 140.79 C 154.19 140.27 154.38 139.25 153.87 138.50 C 153.36 137.75 152.34 137.55 151.59 138.06 Z M 150.70 138.67 L 149.85 139.29 C 149.12 139.82 148.95 140.84 149.48 141.57 C 150.01 142.31 151.04 142.47 151.77 141.94 L 152.62 141.33 C 153.36 140.80 153.52 139.78 152.99 139.04 C 152.46 138.31 151.44 138.14 150.70 138.67 Z M 149.85 139.29 L 149.75 139.37 C 149.02 139.90 148.86 140.93 149.39 141.66 C 149.92 142.39 150.95 142.55 151.68 142.01 L 151.78 141.94 C 152.51 141.40 152.67 140.38 152.14 139.65 C 151.60 138.92 150.58 138.76 149.85 139.29 Z"
      fill="black"
      fill-rule="nonzero" /></svg>