<svg xmlns="http://www.w3.org/2000/svg" width="300" height="300" viewBox="0 0 300 300">
<path d="M 132.34 109.86 L 133.29 109.60 C 134.22 109.35 134.76 108.39 134.51 107.46 C 134.25 106.54 133.29 105.99 132.37 106.25 L 131.42 106.51 C 130.49 106.77 129.95 107.72 130.20 108.65 C 130.46 109.57 131.42 110.12 132.34 109.86 Z M 133.25 109.62 L 134.22 109.38 C 135.15 109.15 135.72 108.20 135.49 107.26 C 135.26 106.32 134.31 105.75 133.37 105.99 L 132.41 106.23 C 131.47 106.46 130.90 107.41 131.13 108.35 C 131.37 109.29 132.32 109.86 133.25 109.62 Z M 134.14 109.41 L 135.13 109.21 C 136.08 109.02 136.70 108.10 136.51 107.14 C 136.32 106.19 135.39 105.57 134.44 105.76 L 133.45 105.96 C 132.50 106.15 131.88 107.08 132.07 108.03 C 132.26 108.98 133.18 109.60 134.14 109.41 Z M 135.01 109.24 L 136.01 109.11 C 136.97 108.99 137.66 108.10 137.53 107.13 C 137.40 106.16 136.52 105.48 135.55 105.60 L 134.55 105.73 C 133.58 105.86 132.90 106.75 133.03 107.72 C 133.15 108.69 134.04 109.37 135.01 109.24 Z M 135.90 109.13 L 136.89 109.06 C 137.87 108.99 138.61 108.15 138.54 107.17 C 138.48 106.20 137.63 105.46 136.65 105.52 L 135.66 105.59 C 134.68 105.66 133.94 106.50 134.01 107.48 C 134.08 108.45 134.92 109.19 135.90 109.13 Z M 136.82 109.06 L 137.83 109.04 C 138.81 109.01 139.58 108.19 139.55 107.22 C 139.53 106.24 138.71 105.47 137.73 105.49 L 136.73 105.52 C 135.75 105.55 134.98 106.36 135.00 107.34 C 135.03 108.32 135.84 109.09 136.82 109.06 Z M 137.79 109.04 L 138.79 109.03 C 139.77 109.03 140.56 108.23 140.56 107.25 C 140.55 106.27 139.75 105.48 138.77 105.49 L 137.77 105.49 C 136.79 105.50 136.01 106.29 136.01 107.27 C 136.02 108.25 136.81 109.04 137.79 109.04 Z M 138.78 109.03 L 139.78 109.03 C 140.76 109.03 141.55 108.24 141.55 107.26 C 141.55 106.28 140.76 105.49 139.78 105.49 L 138.79 105.49 C 137.81 105.49 137.01 106.28 137.01 107.26 C 137.01 108.24 137.80 109.03 138.78 109.03 Z M 139.76 109.03 L 140.75 109.04 C 141.73 109.04 142.53 108.26 142.53 107.28 C 142.54 106.30 141.76 105.50 140.78 105.50 L 139.79 105.49 C 138.81 105.48 138.02 106.27 138.01 107.25 C 138.00 108.22 138.79 109.02 139.76 109.03 Z M 140.72 109.03 L 141.72 109.06 C 142.70 109.08 143.51 108.31 143.53 107.33 C 143.55 106.35 142.78 105.54 141.80 105.52 L 140.80 105.50 C 139.83 105.48 139.02 106.25 139.00 107.23 C 138.98 108.20 139.75 109.01 140.72 109.03 Z M 141.68 109.05 L 142.69 109.10 C 143.67 109.14 144.49 108.39 144.54 107.41 C 144.58 106.44 143.83 105.61 142.85 105.57 L 141.84 105.53 C 140.86 105.48 140.04 106.24 140.00 107.21 C 139.95 108.19 140.71 109.01 141.68 109.05 Z M 142.66 109.09 L 143.63 109.16 C 144.60 109.22 145.44 108.49 145.51 107.52 C 145.57 106.54 144.84 105.70 143.87 105.64 L 142.89 105.57 C 141.92 105.51 141.08 106.25 141.01 107.22 C 140.95 108.19 141.68 109.03 142.66 109.09 Z M 143.61 109.16 L 144.61 109.24 C 145.58 109.31 146.43 108.59 146.51 107.62 C 146.58 106.65 145.86 105.80 144.89 105.72 L 143.89 105.64 C 142.92 105.57 142.07 106.29 141.99 107.26 C 141.92 108.23 142.64 109.08 143.61 109.16 Z M 144.60 109.23 L 145.61 109.32 C 146.58 109.40 147.43 108.69 147.51 107.72 C 147.60 106.75 146.88 105.90 145.91 105.81 L 144.90 105.73 C 143.93 105.64 143.08 106.36 143.00 107.33 C 142.92 108.30 143.63 109.15 144.60 109.23 Z M 145.61 109.32 L 146.62 109.40 C 147.59 109.48 148.44 108.77 148.52 107.80 C 148.60 106.83 147.89 105.99 146.92 105.90 L 145.91 105.82 C 144.94 105.74 144.09 106.45 144.01 107.42 C 143.93 108.38 144.65 109.23 145.61 109.32 Z M 146.64 109.40 L 147.65 109.48 C 148.61 109.56 149.46 108.84 149.53 107.87 C 149.61 106.91 148.89 106.06 147.92 105.99 L 146.91 105.91 C 145.95 105.83 145.10 106.55 145.03 107.51 C 144.95 108.48 145.67 109.32 146.64 109.40 Z M 147.66 109.48 L 148.66 109.55 C 149.62 109.62 150.46 108.90 150.53 107.94 C 150.60 106.97 149.88 106.13 148.91 106.06 L 147.92 105.99 C 146.95 105.92 146.11 106.64 146.04 107.60 C 145.97 108.57 146.69 109.41 147.66 109.48 Z M 148.66 109.55 L 149.65 109.62 C 150.61 109.69 151.45 108.96 151.51 108.00 C 151.58 107.04 150.86 106.20 149.90 106.13 L 148.91 106.06 C 147.95 106.00 147.11 106.72 147.04 107.68 C 146.98 108.64 147.70 109.48 148.66 109.55 Z M 149.65 109.61 L 150.64 109.68 C 151.60 109.75 152.44 109.03 152.50 108.07 C 152.57 107.11 151.85 106.28 150.89 106.21 L 149.89 106.14 C 148.93 106.07 148.10 106.79 148.03 107.75 C 147.97 108.71 148.69 109.55 149.65 109.61 Z M 150.65 109.68 L 151.66 109.75 C 152.62 109.82 153.45 109.09 153.52 108.14 C 153.58 107.18 152.86 106.35 151.90 106.28 L 150.89 106.21 C 149.93 106.15 149.10 106.87 149.03 107.83 C 148.97 108.78 149.69 109.61 150.65 109.68 Z M 151.68 109.75 L 152.68 109.81 C 153.63 109.87 154.46 109.14 154.52 108.19 C 154.58 107.23 153.85 106.41 152.89 106.35 L 151.89 106.29 C 150.94 106.23 150.11 106.95 150.05 107.91 C 149.99 108.86 150.72 109.69 151.68 109.75 Z M 152.70 109.81 L 153.67 109.86 C 154.63 109.91 155.44 109.17 155.49 108.22 C 155.54 107.26 154.81 106.45 153.85 106.40 L 152.87 106.35 C 151.92 106.30 151.11 107.04 151.06 107.99 C 151.01 108.94 151.74 109.76 152.70 109.81 Z M 153.70 109.85 L 154.69 109.89 C 155.64 109.92 156.44 109.18 156.48 108.23 C 156.51 107.28 155.77 106.48 154.82 106.44 L 153.83 106.41 C 152.87 106.37 152.07 107.11 152.04 108.07 C 152.00 109.02 152.75 109.82 153.70 109.85 Z M 154.68 109.89 L 155.66 109.93 C 156.61 109.97 157.42 109.24 157.46 108.29 C 157.50 107.34 156.77 106.53 155.82 106.49 L 154.83 106.45 C 153.88 106.40 153.08 107.14 153.03 108.09 C 152.99 109.04 153.73 109.84 154.68 109.89 Z M 155.57 109.92 L 156.56 110.02 C 157.51 110.11 158.35 109.42 158.44 108.47 C 158.53 107.53 157.84 106.69 156.89 106.60 L 155.91 106.50 C 154.96 106.41 154.12 107.10 154.03 108.04 C 153.94 108.99 154.63 109.83 155.57 109.92 Z M 156.40 109.99 L 157.43 110.19 C 158.36 110.37 159.26 109.76 159.43 108.83 C 159.61 107.90 159.00 107.00 158.07 106.82 L 157.05 106.62 C 156.12 106.44 155.22 107.05 155.04 107.98 C 154.86 108.91 155.47 109.81 156.40 109.99 Z M 157.22 110.14 L 158.30 110.49 C 159.20 110.79 160.17 110.29 160.47 109.39 C 160.76 108.49 160.27 107.52 159.37 107.22 L 158.28 106.87 C 157.38 106.57 156.41 107.07 156.12 107.97 C 155.82 108.87 156.31 109.84 157.22 110.14 Z M 158.01 110.37 L 158.90 110.86 C 159.74 111.31 160.79 111.01 161.24 110.17 C 161.70 109.33 161.39 108.28 160.55 107.83 L 159.66 107.34 C 158.82 106.89 157.78 107.20 157.32 108.03 C 156.87 108.87 157.17 109.92 158.01 110.37 Z M 158.40 110.46 L 158.90 111.05 C 159.51 111.78 160.61 111.87 161.34 111.26 C 162.07 110.64 162.17 109.55 161.55 108.82 L 161.05 108.23 C 160.44 107.50 159.34 107.40 158.61 108.02 C 157.88 108.63 157.79 109.73 158.40 110.46 Z M 158.49 109.82 L 158.45 110.51 C 158.38 111.47 159.11 112.29 160.07 112.36 C 161.03 112.42 161.85 111.69 161.91 110.73 L 161.96 110.04 C 162.02 109.09 161.29 108.26 160.34 108.20 C 159.38 108.14 158.55 108.86 158.49 109.82 Z M 158.73 109.66 L 158.20 110.46 C 157.67 111.26 157.89 112.34 158.69 112.87 C 159.49 113.40 160.57 113.18 161.10 112.38 L 161.63 111.58 C 162.16 110.78 161.94 109.70 161.14 109.17 C 160.34 108.64 159.26 108.86 158.73 109.66 Z M 158.40 110.21 L 157.51 111.13 C 156.84 111.82 156.86 112.93 157.56 113.59 C 158.25 114.26 159.35 114.24 160.02 113.55 L 160.91 112.63 C 161.58 111.93 161.55 110.83 160.86 110.16 C 160.17 109.49 159.07 109.52 158.40 110.21 Z M 157.57 111.07 L 156.88 111.72 C 156.18 112.38 156.14 113.49 156.81 114.19 C 157.47 114.89 158.57 114.92 159.27 114.26 L 159.96 113.61 C 160.66 112.95 160.69 111.84 160.03 111.14 C 159.37 110.44 158.27 110.41 157.57 111.07 Z M 156.90 111.70 L 156.17 112.36 C 155.46 113.01 155.41 114.12 156.06 114.83 C 156.71 115.54 157.82 115.59 158.53 114.94 L 159.25 114.28 C 159.97 113.63 160.02 112.52 159.37 111.81 C 158.71 111.10 157.61 111.05 156.90 111.70 Z M 156.18 112.34 L 155.42 113.02 C 154.70 113.67 154.63 114.78 155.28 115.50 C 155.92 116.22 157.03 116.29 157.75 115.64 L 158.52 114.96 C 159.24 114.32 159.30 113.21 158.66 112.48 C 158.02 111.76 156.91 111.70 156.18 112.34 Z M 155.43 113.01 L 154.64 113.70 C 153.91 114.34 153.84 115.45 154.48 116.18 C 155.12 116.91 156.23 116.98 156.96 116.34 L 157.74 115.66 C 158.47 115.02 158.55 113.91 157.91 113.18 C 157.27 112.45 156.16 112.37 155.43 113.01 Z M 154.65 113.68 L 153.87 114.36 C 153.13 114.99 153.05 116.10 153.68 116.84 C 154.32 117.58 155.43 117.66 156.17 117.03 L 156.95 116.35 C 157.69 115.72 157.77 114.61 157.14 113.87 C 156.50 113.13 155.39 113.05 154.65 113.68 Z M 153.88 114.35 L 153.16 114.95 C 152.42 115.58 152.33 116.70 152.96 117.44 C 153.59 118.18 154.70 118.28 155.44 117.65 L 156.16 117.04 C 156.90 116.41 156.99 115.29 156.36 114.55 C 155.73 113.81 154.62 113.72 153.88 114.35 Z M 153.17 114.95 L 152.47 115.53 C 151.73 116.16 151.63 117.27 152.26 118.02 C 152.88 118.77 154.00 118.86 154.75 118.23 L 155.44 117.65 C 156.19 117.02 156.28 115.91 155.65 115.16 C 155.03 114.42 153.91 114.32 153.17 114.95 Z M 152.47 115.53 L 151.76 116.12 C 151.01 116.75 150.92 117.87 151.54 118.61 C 152.17 119.36 153.29 119.46 154.03 118.83 L 154.74 118.24 C 155.49 117.61 155.59 116.50 154.96 115.75 C 154.34 115.00 153.22 114.90 152.47 115.53 Z M 151.76 116.12 L 151.01 116.76 C 150.26 117.39 150.16 118.50 150.79 119.25 C 151.42 120.00 152.54 120.10 153.29 119.47 L 154.04 118.83 C 154.79 118.20 154.88 117.09 154.25 116.34 C 153.62 115.59 152.51 115.50 151.76 116.12 Z M 151.00 116.76 L 150.18 117.46 C 149.43 118.09 149.34 119.21 149.98 119.95 C 150.61 120.70 151.73 120.79 152.47 120.16 L 153.29 119.46 C 154.04 118.83 154.13 117.71 153.50 116.97 C 152.86 116.22 151.74 116.13 151.00 116.76 Z M 150.17 117.46 L 149.29 118.22 C 148.55 118.86 148.46 119.98 149.10 120.72 C 149.74 121.46 150.86 121.55 151.60 120.91 L 152.48 120.15 C 153.23 119.51 153.31 118.39 152.67 117.65 C 152.03 116.91 150.91 116.82 150.17 117.46 Z M 149.28 118.22 L 148.60 118.82 C 147.86 119.46 147.78 120.59 148.42 121.33 C 149.06 122.07 150.18 122.14 150.92 121.50 L 151.61 120.90 C 152.35 120.26 152.43 119.14 151.79 118.40 C 151.14 117.66 150.02 117.58 149.28 118.22 Z M 148.59 118.82 L 147.86 119.46 C 147.12 120.11 147.05 121.23 147.69 121.97 C 148.34 122.71 149.46 122.78 150.20 122.14 L 150.93 121.50 C 151.67 120.85 151.74 119.73 151.10 118.99 C 150.45 118.25 149.33 118.18 148.59 118.82 Z M 147.86 119.46 L 147.10 120.13 C 146.36 120.78 146.29 121.90 146.93 122.64 C 147.58 123.37 148.70 123.45 149.44 122.80 L 150.20 122.13 C 150.94 121.49 151.01 120.37 150.37 119.63 C 149.72 118.89 148.60 118.82 147.86 119.46 Z M 147.10 120.13 L 146.32 120.81 C 145.58 121.46 145.51 122.58 146.16 123.32 C 146.80 124.06 147.93 124.13 148.67 123.48 L 149.44 122.80 C 150.18 122.15 150.25 121.03 149.61 120.29 C 148.96 119.55 147.84 119.48 147.10 120.13 Z M 146.32 120.81 L 145.53 121.50 C 144.79 122.15 144.72 123.27 145.37 124.01 C 146.02 124.75 147.14 124.82 147.88 124.18 L 148.67 123.49 C 149.40 122.84 149.48 121.71 148.83 120.97 C 148.18 120.24 147.06 120.16 146.32 120.81 Z M 145.53 121.50 L 144.75 122.19 C 144.01 122.83 143.94 123.96 144.59 124.70 C 145.23 125.44 146.36 125.51 147.10 124.86 L 147.88 124.18 C 148.62 123.53 148.69 122.40 148.05 121.67 C 147.40 120.93 146.27 120.85 145.53 121.50 Z M 144.75 122.18 L 143.98 122.85 C 143.24 123.50 143.17 124.63 143.81 125.37 C 144.46 126.11 145.59 126.18 146.33 125.54 L 147.10 124.87 C 147.84 124.22 147.91 123.09 147.27 122.35 C 146.62 121.61 145.49 121.54 144.75 122.18 Z M 143.99 122.85 L 143.24 123.50 C 142.50 124.14 142.42 125.27 143.07 126.01 C 143.71 126.75 144.84 126.83 145.58 126.19 L 146.33 125.54 C 147.07 124.90 147.15 123.77 146.50 123.03 C 145.86 122.28 144.73 122.20 143.99 122.85 Z M 143.25 123.49 L 142.35 124.26 C 141.61 124.91 141.52 126.03 142.17 126.78 C 142.81 127.52 143.93 127.61 144.68 126.96 L 145.58 126.19 C 146.32 125.55 146.41 124.42 145.76 123.68 C 145.12 122.93 144.00 122.85 143.25 123.49 Z M 142.36 124.26 L 141.51 124.98 C 140.76 125.62 140.67 126.75 141.31 127.50 C 141.95 128.25 143.07 128.34 143.82 127.70 L 144.67 126.97 C 145.42 126.33 145.51 125.21 144.87 124.46 C 144.24 123.71 143.11 123.62 142.36 124.26 Z M 141.52 124.98 L 140.72 125.65 C 139.97 126.28 139.87 127.41 140.51 128.16 C 141.14 128.91 142.27 129.01 143.02 128.37 L 143.82 127.70 C 144.57 127.07 144.66 125.94 144.03 125.19 C 143.39 124.44 142.27 124.34 141.52 124.98 Z M 140.73 125.64 L 139.98 126.26 C 139.23 126.89 139.13 128.02 139.76 128.77 C 140.39 129.53 141.51 129.63 142.27 129.00 L 143.01 128.38 C 143.77 127.75 143.87 126.62 143.24 125.87 C 142.61 125.11 141.48 125.01 140.73 125.64 Z M 139.99 126.26 L 139.29 126.83 C 138.53 127.46 138.43 128.59 139.05 129.34 C 139.68 130.10 140.80 130.21 141.56 129.58 L 142.26 129.01 C 143.02 128.38 143.13 127.25 142.50 126.50 C 141.87 125.74 140.75 125.63 139.99 126.26 Z M 139.30 126.83 L 138.64 127.37 C 137.88 127.99 137.77 129.11 138.39 129.87 C 139.02 130.64 140.14 130.75 140.90 130.12 L 141.56 129.59 C 142.32 128.96 142.43 127.84 141.81 127.08 C 141.18 126.32 140.06 126.20 139.30 126.83 Z M 138.65 127.36 L 137.87 127.99 C 137.11 128.61 136.99 129.73 137.61 130.50 C 138.23 131.26 139.36 131.38 140.12 130.76 L 140.90 130.13 C 141.66 129.51 141.78 128.39 141.16 127.62 C 140.54 126.86 139.41 126.74 138.65 127.36 Z M 137.88 127.98 L 137.07 128.63 C 136.30 129.25 136.18 130.37 136.79 131.14 C 137.41 131.91 138.53 132.03 139.30 131.42 L 140.11 130.77 C 140.88 130.15 141.01 129.03 140.39 128.26 C 139.77 127.49 138.65 127.37 137.88 127.98 Z M 137.09 128.62 L 136.31 129.22 C 135.53 129.83 135.40 130.95 136.00 131.73 C 136.61 132.50 137.73 132.64 138.51 132.04 L 139.28 131.43 C 140.06 130.83 140.20 129.70 139.59 128.93 C 138.99 128.15 137.86 128.01 137.09 128.62 Z M 136.34 129.20 L 135.57 129.77 C 134.79 130.37 134.63 131.49 135.22 132.28 C 135.82 133.06 136.94 133.22 137.72 132.63 L 138.48 132.06 C 139.27 131.46 139.43 130.34 138.84 129.55 C 138.24 128.77 137.12 128.61 136.34 129.20 Z M 135.60 129.75 L 134.82 130.32 C 134.02 130.89 133.84 132.01 134.42 132.81 C 134.99 133.61 136.11 133.79 136.91 133.22 L 137.70 132.65 C 138.50 132.07 138.68 130.96 138.10 130.16 C 137.52 129.35 136.40 129.17 135.60 129.75 Z M 134.85 130.29 L 134.00 130.88 C 133.19 131.44 132.98 132.55 133.54 133.37 C 134.10 134.18 135.22 134.39 136.03 133.83 L 136.88 133.24 C 137.70 132.68 137.90 131.56 137.34 130.75 C 136.78 129.94 135.67 129.73 134.85 130.29 Z M 134.03 130.86 L 133.17 131.42 C 132.34 131.97 132.12 133.08 132.66 133.91 C 133.21 134.73 134.32 134.96 135.15 134.41 L 136.00 133.85 C 136.83 133.30 137.06 132.19 136.51 131.36 C 135.97 130.54 134.85 130.31 134.03 130.86 Z M 133.20 131.40 L 132.36 131.93 C 131.52 132.47 131.27 133.58 131.81 134.41 C 132.34 135.25 133.45 135.50 134.29 134.97 L 135.12 134.43 C 135.96 133.90 136.21 132.79 135.67 131.95 C 135.14 131.12 134.03 130.87 133.20 131.40 Z M 132.38 131.92 L 131.56 132.42 C 130.71 132.94 130.44 134.05 130.96 134.90 C 131.48 135.74 132.59 136.01 133.44 135.49 L 134.26 134.98 C 135.11 134.46 135.37 133.36 134.86 132.51 C 134.34 131.66 133.23 131.40 132.38 131.92 Z M 131.54 132.43 L 130.51 133.07 C 129.67 133.60 129.42 134.71 129.94 135.56 C 130.47 136.40 131.59 136.66 132.43 136.13 L 133.46 135.48 C 134.30 134.95 134.55 133.84 134.02 133.00 C 133.49 132.15 132.38 131.90 131.54 132.43 Z M 130.24 133.28 L 129.57 133.91 C 128.84 134.59 128.81 135.73 129.49 136.46 C 130.17 137.19 131.31 137.22 132.04 136.54 L 132.71 135.92 C 133.43 135.24 133.47 134.09 132.79 133.36 C 132.11 132.64 130.96 132.60 130.24 133.28 Z M 129.02 134.94 L 128.91 135.62 C 128.75 136.61 129.43 137.53 130.41 137.69 C 131.40 137.85 132.33 137.17 132.48 136.19 L 132.59 135.51 C 132.75 134.52 132.08 133.59 131.09 133.44 C 130.10 133.28 129.17 133.95 129.02 134.94 Z M 129.12 136.79 L 129.54 137.54 C 130.03 138.41 131.14 138.72 132.01 138.23 C 132.88 137.74 133.19 136.63 132.70 135.76 L 132.28 135.01 C 131.78 134.14 130.68 133.83 129.81 134.32 C 128.94 134.82 128.63 135.92 129.12 136.79 Z M 129.74 137.83 L 130.45 138.66 C 131.11 139.41 132.25 139.50 133.01 138.85 C 133.77 138.20 133.85 137.05 133.20 136.29 L 132.49 135.47 C 131.84 134.71 130.70 134.62 129.94 135.27 C 129.18 135.93 129.09 137.07 129.74 137.83 Z M 130.46 138.67 L 131.19 139.50 C 131.85 140.26 132.99 140.34 133.75 139.68 C 134.50 139.02 134.58 137.88 133.93 137.12 L 133.20 136.28 C 132.54 135.53 131.39 135.45 130.64 136.11 C 129.88 136.76 129.80 137.91 130.46 138.67 Z M 131.11 139.40 L 131.69 140.19 C 132.29 140.99 133.43 141.15 134.23 140.56 C 135.03 139.96 135.20 138.82 134.60 138.02 L 134.01 137.23 C 133.41 136.43 132.28 136.26 131.47 136.86 C 130.67 137.46 130.51 138.60 131.11 139.40 Z M 131.62 140.08 L 132.15 140.91 C 132.69 141.75 133.82 142.00 134.66 141.46 C 135.50 140.92 135.75 139.80 135.21 138.95 L 134.67 138.12 C 134.13 137.28 133.01 137.03 132.17 137.58 C 131.32 138.12 131.08 139.24 131.62 140.08 Z M 132.10 140.83 L 132.60 141.71 C 133.10 142.59 134.20 142.89 135.08 142.40 C 135.95 141.91 136.25 140.80 135.76 139.93 L 135.26 139.04 C 134.76 138.17 133.66 137.86 132.79 138.35 C 131.91 138.85 131.61 139.95 132.10 140.83 Z M 132.57 141.66 L 132.98 142.44 C 133.44 143.33 134.54 143.68 135.43 143.22 C 136.32 142.75 136.66 141.66 136.20 140.77 L 135.79 139.98 C 135.33 139.10 134.24 138.75 133.35 139.21 C 132.46 139.67 132.11 140.77 132.57 141.66 Z M 132.96 142.40 L 133.36 143.22 C 133.79 144.12 134.88 144.49 135.78 144.06 C 136.68 143.62 137.06 142.53 136.62 141.63 L 136.22 140.81 C 135.79 139.91 134.70 139.54 133.80 139.98 C 132.90 140.41 132.52 141.50 132.96 142.40 Z M 133.34 143.17 L 133.75 144.08 C 134.16 144.99 135.24 145.39 136.15 144.98 C 137.06 144.57 137.46 143.49 137.05 142.58 L 136.64 141.67 C 136.22 140.76 135.15 140.36 134.24 140.77 C 133.33 141.19 132.92 142.26 133.34 143.17 Z M 133.73 144.04 L 134.16 145.05 C 134.56 145.97 135.62 146.40 136.54 146.01 C 137.46 145.62 137.89 144.55 137.50 143.63 L 137.07 142.62 C 136.67 141.70 135.61 141.27 134.69 141.66 C 133.77 142.05 133.34 143.12 133.73 144.04 Z M 134.15 145.02 L 134.55 146.01 C 134.93 146.93 135.98 147.38 136.91 147.00 C 137.84 146.63 138.29 145.57 137.91 144.64 L 137.51 143.66 C 137.13 142.73 136.08 142.28 135.15 142.66 C 134.22 143.04 133.77 144.10 134.15 145.02 Z M 134.54 145.98 L 134.87 146.82 C 135.23 147.75 136.28 148.21 137.21 147.85 C 138.15 147.48 138.61 146.43 138.24 145.50 L 137.92 144.67 C 137.55 143.73 136.50 143.27 135.57 143.64 C 134.64 144.00 134.18 145.05 134.54 145.98 Z M 134.86 146.80 L 135.20 147.69 C 135.55 148.63 136.59 149.10 137.53 148.75 C 138.47 148.39 138.94 147.35 138.59 146.41 L 138.25 145.52 C 137.90 144.59 136.85 144.11 135.92 144.47 C 134.98 144.82 134.51 145.86 134.86 146.80 Z M 135.19 147.67 L 135.53 148.61 C 135.87 149.55 136.91 150.03 137.85 149.69 C 138.79 149.35 139.27 148.31 138.93 147.37 L 138.59 146.43 C 138.25 145.49 137.21 145.01 136.27 145.35 C 135.33 145.69 134.85 146.73 135.19 147.67 Z M 135.53 148.59 L 135.87 149.56 C 136.20 150.51 137.23 151.01 138.17 150.68 C 139.11 150.35 139.61 149.32 139.28 148.37 L 138.94 147.39 C 138.61 146.45 137.58 145.95 136.64 146.28 C 135.69 146.61 135.20 147.64 135.53 148.59 Z M 135.86 149.54 L 136.20 150.56 C 136.51 151.50 137.54 152.01 138.49 151.70 C 139.43 151.38 139.94 150.36 139.63 149.41 L 139.29 148.40 C 138.97 147.45 137.95 146.94 137.00 147.26 C 136.06 147.57 135.54 148.60 135.86 149.54 Z M 136.19 150.53 L 136.52 151.57 C 136.83 152.52 137.84 153.05 138.79 152.74 C 139.74 152.44 140.27 151.43 139.96 150.48 L 139.63 149.44 C 139.33 148.48 138.32 147.96 137.37 148.26 C 136.41 148.56 135.89 149.58 136.19 150.53 Z M 136.52 151.54 L 136.81 152.51 C 137.10 153.46 138.10 154.00 139.06 153.72 C 140.01 153.43 140.55 152.42 140.26 151.47 L 139.97 150.50 C 139.68 149.55 138.68 149.01 137.72 149.30 C 136.77 149.58 136.23 150.59 136.52 151.54 Z M 136.81 152.49 L 137.08 153.45 C 137.36 154.40 138.36 154.96 139.31 154.68 C 140.26 154.41 140.82 153.41 140.54 152.46 L 140.26 151.49 C 139.99 150.54 138.99 149.99 138.04 150.26 C 137.08 150.54 136.53 151.53 136.81 152.49 Z M 137.08 153.43 L 137.35 154.40 C 137.61 155.35 138.60 155.92 139.55 155.65 C 140.51 155.39 141.07 154.41 140.81 153.45 L 140.54 152.48 C 140.28 151.53 139.29 150.96 138.34 151.22 C 137.38 151.49 136.82 152.47 137.08 153.43 Z M 137.35 154.37 L 137.60 155.35 C 137.85 156.31 138.83 156.88 139.78 156.63 C 140.74 156.38 141.31 155.41 141.06 154.45 L 140.81 153.47 C 140.56 152.52 139.58 151.95 138.63 152.19 C 137.67 152.44 137.10 153.42 137.35 154.37 Z M 137.60 155.33 L 137.84 156.30 C 138.08 157.26 139.05 157.84 140.00 157.61 C 140.96 157.37 141.54 156.41 141.30 155.45 L 141.06 154.47 C 140.83 153.52 139.86 152.93 138.91 153.17 C 137.95 153.41 137.37 154.37 137.60 155.33 Z M 137.84 156.28 L 138.07 157.26 C 138.29 158.21 139.25 158.80 140.21 158.58 C 141.16 158.36 141.76 157.40 141.53 156.44 L 141.30 155.47 C 141.08 154.52 140.12 153.92 139.17 154.15 C 138.21 154.37 137.62 155.33 137.84 156.28 Z M 138.07 157.23 L 138.29 158.20 C 138.50 159.15 139.44 159.76 140.40 159.55 C 141.35 159.33 141.96 158.39 141.74 157.43 L 141.53 156.47 C 141.32 155.51 140.37 154.91 139.42 155.12 C 138.46 155.33 137.86 156.28 138.07 157.23 Z M 138.29 158.18 L 138.49 159.16 C 138.69 160.11 139.63 160.73 140.58 160.53 C 141.53 160.33 142.15 159.40 141.95 158.44 L 141.74 157.46 C 141.54 156.50 140.61 155.89 139.66 156.09 C 138.70 156.29 138.09 157.22 138.29 158.18 Z M 138.50 159.14 L 138.69 160.13 C 138.88 161.08 139.80 161.70 140.75 161.52 C 141.70 161.33 142.32 160.41 142.14 159.46 L 141.94 158.47 C 141.76 157.51 140.84 156.89 139.88 157.08 C 138.93 157.26 138.31 158.19 138.50 159.14 Z M 138.70 160.11 L 138.88 161.10 C 139.05 162.04 139.96 162.67 140.91 162.50 C 141.85 162.33 142.48 161.42 142.31 160.47 L 142.13 159.49 C 141.96 158.54 141.05 157.91 140.10 158.08 C 139.16 158.26 138.53 159.16 138.70 160.11 Z M 138.89 161.07 L 139.05 162.05 C 139.21 162.99 140.11 163.63 141.05 163.47 C 141.99 163.31 142.62 162.42 142.46 161.48 L 142.30 160.50 C 142.14 159.55 141.25 158.92 140.31 159.08 C 139.36 159.24 138.73 160.13 138.89 161.07 Z M 139.06 162.03 L 139.22 163.01 C 139.36 163.95 140.24 164.59 141.18 164.44 C 142.12 164.29 142.76 163.42 142.61 162.48 L 142.46 161.50 C 142.31 160.56 141.43 159.92 140.49 160.07 C 139.56 160.22 138.92 161.09 139.06 162.03 Z M 139.23 162.99 L 139.37 163.97 C 139.50 164.90 140.37 165.55 141.30 165.41 C 142.23 165.28 142.88 164.41 142.74 163.48 L 142.60 162.50 C 142.46 161.57 141.60 160.92 140.67 161.06 C 139.74 161.19 139.09 162.06 139.23 162.99 Z M 139.38 163.95 L 139.51 164.93 C 139.63 165.86 140.49 166.51 141.41 166.39 C 142.34 166.26 142.99 165.41 142.87 164.48 L 142.73 163.50 C 142.61 162.57 141.76 161.92 140.83 162.05 C 139.90 162.17 139.25 163.02 139.38 163.95 Z M 139.52 164.92 L 139.64 165.90 C 139.75 166.82 140.60 167.47 141.52 167.36 C 142.44 167.24 143.09 166.40 142.98 165.48 L 142.86 164.50 C 142.74 163.58 141.90 162.92 140.98 163.04 C 140.06 163.15 139.40 163.99 139.52 164.92 Z M 139.65 165.88 L 139.76 166.87 C 139.87 167.79 140.70 168.44 141.62 168.34 C 142.54 168.23 143.20 167.40 143.09 166.48 L 142.97 165.50 C 142.87 164.58 142.04 163.92 141.12 164.02 C 140.20 164.13 139.54 164.96 139.65 165.88 Z M 139.76 166.85 L 139.87 167.85 C 139.97 168.76 140.80 169.42 141.71 169.32 C 142.63 169.22 143.29 168.40 143.19 167.48 L 143.08 166.49 C 142.98 165.58 142.16 164.91 141.24 165.01 C 140.33 165.11 139.66 165.94 139.76 166.85 Z M 139.88 167.84 L 139.98 168.83 C 140.08 169.74 140.89 170.41 141.81 170.31 C 142.72 170.22 143.38 169.40 143.29 168.49 L 143.19 167.49 C 143.09 166.58 142.27 165.92 141.36 166.01 C 140.45 166.10 139.78 166.92 139.88 167.84 Z M 139.99 168.82 L 140.09 169.82 C 140.18 170.73 140.99 171.40 141.90 171.31 C 142.81 171.22 143.47 170.40 143.38 169.49 L 143.28 168.50 C 143.19 167.58 142.38 166.92 141.47 167.01 C 140.56 167.10 139.90 167.91 139.99 168.82 Z M 140.09 169.82 L 140.19 170.82 C 140.28 171.73 141.08 172.39 141.99 172.30 C 142.90 172.22 143.56 171.41 143.47 170.50 L 143.38 169.50 C 143.29 168.59 142.48 167.93 141.58 168.02 C 140.67 168.10 140.00 168.91 140.09 169.82 Z M 140.20 170.82 L 140.29 171.82 C 140.38 172.72 141.18 173.39 142.08 173.30 C 142.99 173.21 143.65 172.41 143.56 171.51 L 143.47 170.51 C 143.38 169.60 142.58 168.94 141.68 169.02 C 140.77 169.11 140.11 169.91 140.20 170.82 Z M 140.29 171.82 L 140.33 172.15 C 140.41 173.05 141.21 173.72 142.11 173.63 C 143.01 173.55 143.68 172.75 143.59 171.84 L 143.56 171.51 C 143.47 170.61 142.67 169.95 141.77 170.03 C 140.87 170.12 140.21 170.92 140.29 171.82 Z"
      fill="black"
      fill-rule="nonzero" /><path d="M 141.01 143.40 L 140.72 142.36 C 140.46 141.42 139.49 140.87 138.54 141.13 C 137.60 141.39 137.05 142.36 137.31 143.30 L 137.60 144.35 C 137.86 145.29 138.84 145.84 139.78 145.58 C 140.72 145.32 141.27 144.34 141.01 143.40 Z M 140.81 142.65 L 140.71 141.68 C 140.61 140.69 139.73 139.96 138.74 140.06 C 137.75 140.16 137.03 141.05 137.13 142.04 L 137.23 143.01 C 137.32 144.00 138.21 144.72 139.20 144.62 C 140.19 144.52 140.91 143.64 140.81 142.65 Z M 140.66 142.42 L 140.93 141.60 C 141.24 140.64 140.72 139.60 139.76 139.29 C 138.79 138.98 137.76 139.50 137.45 140.46 L 137.18 141.29 C 136.87 142.25 137.39 143.28 138.35 143.60 C 139.31 143.91 140.35 143.38 140.66 142.42 Z M 140.48 142.34 L 141.02 141.82 C 141.74 141.10 141.75 139.93 141.03 139.21 C 140.32 138.48 139.15 138.48 138.42 139.19 L 137.89 139.72 C 137.17 140.43 137.16 141.60 137.88 142.33 C 138.59 143.05 139.76 143.06 140.48 142.34 Z M 140.66 142.10 L 141.45 141.63 C 142.33 141.11 142.62 139.98 142.11 139.10 C 141.59 138.22 140.46 137.93 139.58 138.45 L 138.78 138.91 C 137.91 139.43 137.61 140.56 138.13 141.44 C 138.64 142.32 139.78 142.61 140.66 142.10 Z M 141.26 141.73 L 142.28 141.28 C 143.22 140.86 143.64 139.77 143.23 138.84 C 142.81 137.91 141.72 137.48 140.79 137.90 L 139.77 138.35 C 138.83 138.76 138.41 139.85 138.82 140.79 C 139.24 141.72 140.33 142.14 141.26 141.73 Z M 142.22 141.31 L 143.34 140.86 C 144.29 140.49 144.75 139.41 144.38 138.46 C 144.00 137.51 142.92 137.05 141.97 137.42 L 140.85 137.87 C 139.90 138.24 139.44 139.32 139.82 140.27 C 140.19 141.22 141.27 141.68 142.22 141.31 Z M 143.33 140.87 L 144.20 140.52 C 145.16 140.15 145.63 139.08 145.25 138.13 C 144.88 137.17 143.81 136.70 142.85 137.08 L 141.98 137.42 C 141.03 137.79 140.56 138.87 140.93 139.82 C 141.31 140.77 142.38 141.24 143.33 140.87 Z M 144.20 140.52 L 145.13 140.16 C 146.08 139.79 146.55 138.72 146.17 137.77 C 145.80 136.81 144.73 136.34 143.78 136.72 L 142.86 137.08 C 141.90 137.45 141.43 138.52 141.81 139.48 C 142.18 140.43 143.25 140.90 144.20 140.52 Z M 145.12 140.16 L 146.08 139.79 C 147.03 139.42 147.50 138.35 147.13 137.40 C 146.75 136.44 145.68 135.97 144.73 136.34 L 143.78 136.72 C 142.83 137.09 142.35 138.16 142.73 139.11 C 143.10 140.07 144.17 140.54 145.12 140.16 Z M 146.07 139.79 L 147.04 139.42 C 147.99 139.05 148.46 137.97 148.09 137.02 C 147.72 136.07 146.65 135.60 145.69 135.97 L 144.73 136.34 C 143.78 136.71 143.31 137.79 143.68 138.74 C 144.05 139.69 145.12 140.16 146.07 139.79 Z M 147.04 139.42 L 148.00 139.05 C 148.95 138.68 149.42 137.60 149.05 136.65 C 148.68 135.70 147.61 135.23 146.66 135.60 L 145.70 135.97 C 144.74 136.34 144.27 137.41 144.64 138.36 C 145.01 139.32 146.08 139.79 147.04 139.42 Z M 147.99 139.05 L 148.97 138.67 C 149.93 138.30 150.40 137.23 150.03 136.28 C 149.67 135.32 148.59 134.85 147.64 135.22 L 146.66 135.59 C 145.71 135.96 145.23 137.03 145.60 137.99 C 145.97 138.94 147.04 139.42 147.99 139.05 Z M 148.97 138.67 L 150.01 138.27 C 150.96 137.90 151.44 136.84 151.07 135.88 C 150.71 134.93 149.64 134.45 148.69 134.82 L 147.64 135.22 C 146.69 135.58 146.21 136.65 146.58 137.60 C 146.95 138.56 148.01 139.04 148.97 138.67 Z M 150.00 138.27 L 150.99 137.90 C 151.94 137.53 152.42 136.47 152.06 135.51 C 151.70 134.56 150.63 134.08 149.68 134.44 L 148.69 134.82 C 147.74 135.18 147.26 136.25 147.62 137.20 C 147.98 138.15 149.05 138.63 150.00 138.27 Z M 150.98 137.90 L 151.91 137.55 C 152.86 137.19 153.35 136.13 152.99 135.17 C 152.63 134.22 151.57 133.74 150.61 134.09 L 149.69 134.44 C 148.73 134.80 148.25 135.86 148.61 136.82 C 148.96 137.77 150.03 138.25 150.98 137.90 Z M 151.90 137.55 L 152.76 137.23 C 153.71 136.88 154.20 135.82 153.85 134.87 C 153.50 133.91 152.44 133.42 151.49 133.78 L 150.63 134.09 C 149.67 134.44 149.18 135.50 149.53 136.46 C 149.88 137.41 150.94 137.90 151.90 137.55 Z M 152.74 137.24 L 153.60 136.93 C 154.56 136.58 155.06 135.53 154.71 134.57 C 154.37 133.62 153.32 133.12 152.36 133.46 L 151.50 133.77 C 150.55 134.12 150.05 135.17 150.39 136.13 C 150.74 137.08 151.79 137.58 152.74 137.24 Z M 153.58 136.93 L 154.62 136.58 C 155.57 136.24 156.08 135.20 155.75 134.24 C 155.42 133.28 154.38 132.77 153.42 133.10 L 152.39 133.46 C 151.43 133.79 150.92 134.84 151.25 135.79 C 151.58 136.75 152.62 137.26 153.58 136.93 Z M 154.59 136.58 L 155.52 136.27 C 156.48 135.96 157.00 134.92 156.69 133.96 C 156.37 133.00 155.33 132.48 154.37 132.79 L 153.44 133.10 C 152.48 133.42 151.96 134.45 152.28 135.41 C 152.59 136.37 153.63 136.90 154.59 136.58 Z M 155.50 136.28 L 156.37 136.00 C 157.33 135.70 157.87 134.67 157.56 133.71 C 157.26 132.74 156.23 132.21 155.27 132.51 L 154.39 132.79 C 153.43 133.10 152.90 134.12 153.20 135.09 C 153.51 136.05 154.53 136.58 155.50 136.28 Z M 156.36 136.00 L 157.27 135.72 C 158.23 135.42 158.77 134.40 158.47 133.44 C 158.17 132.47 157.15 131.94 156.19 132.23 L 155.28 132.52 C 154.32 132.81 153.78 133.84 154.08 134.80 C 154.38 135.76 155.40 136.30 156.36 136.00 Z M 157.26 135.72 L 158.20 135.43 C 159.16 135.13 159.70 134.12 159.41 133.15 C 159.11 132.19 158.10 131.65 157.13 131.95 L 156.19 132.23 C 155.23 132.53 154.69 133.55 154.99 134.51 C 155.28 135.47 156.30 136.01 157.26 135.72 Z M 158.19 135.43 L 159.17 135.13 C 160.13 134.84 160.67 133.83 160.38 132.87 C 160.09 131.90 159.07 131.36 158.11 131.65 L 157.14 131.95 C 156.18 132.24 155.64 133.25 155.93 134.21 C 156.22 135.18 157.23 135.72 158.19 135.43 Z M 159.16 135.13 L 160.14 134.84 C 161.10 134.55 161.64 133.54 161.35 132.58 C 161.06 131.62 160.05 131.07 159.09 131.36 L 158.12 131.65 C 157.16 131.94 156.61 132.95 156.90 133.91 C 157.19 134.87 158.20 135.42 159.16 135.13 Z M 160.13 134.84 L 161.09 134.56 C 162.05 134.27 162.60 133.26 162.31 132.31 C 162.03 131.35 161.02 130.80 160.06 131.08 L 159.10 131.36 C 158.14 131.65 157.59 132.65 157.88 133.61 C 158.16 134.57 159.17 135.12 160.13 134.84 Z M 161.07 134.56 L 162.04 134.28 C 163.00 134.01 163.56 133.01 163.29 132.05 C 163.01 131.09 162.01 130.53 161.05 130.80 L 160.08 131.08 C 159.12 131.35 158.56 132.35 158.84 133.31 C 159.11 134.27 160.11 134.83 161.07 134.56 Z M 162.01 134.28 L 162.98 134.03 C 163.94 133.77 164.51 132.78 164.25 131.82 C 164.00 130.85 163.01 130.28 162.04 130.54 L 161.08 130.80 C 160.12 131.06 159.55 132.04 159.80 133.01 C 160.06 133.97 161.05 134.54 162.01 134.28 Z M 162.94 134.03 L 163.93 133.79 C 164.90 133.56 165.49 132.58 165.25 131.61 C 165.02 130.65 164.04 130.05 163.08 130.29 L 162.08 130.53 C 161.12 130.77 160.52 131.74 160.76 132.71 C 161.00 133.68 161.97 134.27 162.94 134.03 Z M 163.89 133.80 L 164.87 133.59 C 165.84 133.37 166.45 132.41 166.24 131.44 C 166.02 130.47 165.06 129.85 164.09 130.07 L 163.12 130.28 C 162.15 130.50 161.53 131.46 161.75 132.43 C 161.96 133.40 162.92 134.01 163.89 133.80 Z M 164.83 133.59 L 165.80 133.40 C 166.77 133.20 167.40 132.26 167.21 131.28 C 167.01 130.31 166.07 129.68 165.09 129.87 L 164.13 130.06 C 163.15 130.26 162.52 131.20 162.71 132.18 C 162.91 133.15 163.86 133.78 164.83 133.59 Z M 165.77 133.40 L 166.74 133.22 C 167.72 133.05 168.37 132.11 168.19 131.13 C 168.01 130.16 167.07 129.51 166.10 129.69 L 165.12 129.87 C 164.15 130.04 163.50 130.98 163.68 131.96 C 163.86 132.93 164.79 133.58 165.77 133.40 Z M 166.71 133.23 L 167.70 133.07 C 168.67 132.91 169.34 131.98 169.18 131.00 C 169.02 130.03 168.09 129.36 167.11 129.52 L 166.13 129.69 C 165.15 129.85 164.49 130.77 164.65 131.75 C 164.81 132.73 165.73 133.39 166.71 133.23 Z M 167.65 133.07 L 168.65 132.93 C 169.63 132.80 170.31 131.89 170.17 130.91 C 170.04 129.93 169.13 129.24 168.15 129.38 L 167.16 129.52 C 166.18 129.66 165.49 130.56 165.63 131.54 C 165.77 132.52 166.67 133.21 167.65 133.07 Z M 168.59 132.94 L 169.59 132.83 C 170.57 132.72 171.28 131.84 171.18 130.85 C 171.07 129.87 170.19 129.16 169.20 129.27 L 168.20 129.37 C 167.22 129.48 166.51 130.37 166.62 131.35 C 166.72 132.33 167.61 133.04 168.59 132.94 Z M 169.53 132.83 L 170.54 132.76 C 171.52 132.68 172.26 131.82 172.18 130.83 C 172.11 129.85 171.25 129.11 170.26 129.19 L 169.26 129.26 C 168.27 129.34 167.54 130.20 167.61 131.18 C 167.69 132.17 168.55 132.91 169.53 132.83 Z M 170.50 132.76 L 171.49 132.70 C 172.48 132.65 173.24 131.81 173.18 130.82 C 173.13 129.83 172.29 129.08 171.30 129.13 L 170.30 129.18 C 169.32 129.24 168.56 130.08 168.61 131.07 C 168.67 132.05 169.51 132.81 170.50 132.76 Z M 171.47 132.70 L 172.47 132.66 C 173.45 132.62 174.22 131.78 174.17 130.80 C 174.13 129.81 173.30 129.05 172.31 129.09 L 171.32 129.13 C 170.34 129.17 169.57 130.01 169.61 130.99 C 169.65 131.98 170.49 132.75 171.47 132.70 Z M 172.46 132.66 L 173.47 132.62 C 174.46 132.58 175.23 131.75 175.19 130.76 C 175.15 129.78 174.31 129.01 173.33 129.05 L 172.32 129.09 C 171.33 129.13 170.56 129.96 170.60 130.95 C 170.64 131.93 171.48 132.70 172.46 132.66 Z M 173.47 132.62 L 174.47 132.58 C 175.45 132.54 176.22 131.72 176.19 130.73 C 176.15 129.75 175.32 128.98 174.34 129.01 L 173.34 129.05 C 172.35 129.09 171.58 129.91 171.62 130.90 C 171.65 131.89 172.48 132.65 173.47 132.62 Z M 174.46 132.58 L 175.44 132.55 C 176.43 132.52 177.20 131.70 177.17 130.71 C 177.14 129.73 176.32 128.96 175.34 128.98 L 174.35 129.01 C 173.37 129.04 172.59 129.86 172.62 130.85 C 172.65 131.83 173.47 132.61 174.46 132.58 Z M 175.42 132.55 L 176.41 132.53 C 177.40 132.51 178.18 131.70 178.16 130.72 C 178.15 129.73 177.34 128.95 176.35 128.97 L 175.36 128.99 C 174.38 129.00 173.59 129.81 173.61 130.80 C 173.63 131.78 174.44 132.57 175.42 132.55 Z M 176.39 132.53 L 177.38 132.53 C 178.37 132.52 179.16 131.72 179.16 130.74 C 179.15 129.76 178.35 128.96 177.37 128.97 L 176.38 128.97 C 175.39 128.97 174.60 129.77 174.60 130.76 C 174.61 131.74 175.41 132.53 176.39 132.53 Z M 177.36 132.52 L 178.36 132.53 C 179.34 132.54 180.15 131.75 180.16 130.77 C 180.17 129.79 179.38 128.99 178.40 128.98 L 177.39 128.97 C 176.41 128.96 175.61 129.75 175.60 130.73 C 175.59 131.71 176.38 132.51 177.36 132.52 Z M 178.34 132.53 L 179.29 132.55 C 180.27 132.58 181.09 131.80 181.11 130.82 C 181.14 129.84 180.36 129.03 179.38 129.00 L 178.42 128.98 C 177.44 128.96 176.63 129.73 176.61 130.71 C 176.58 131.69 177.36 132.51 178.34 132.53 Z M 179.22 132.55 L 180.17 132.61 C 181.15 132.68 181.99 131.94 182.06 130.96 C 182.12 129.99 181.39 129.14 180.41 129.08 L 179.46 129.01 C 178.48 128.94 177.64 129.68 177.57 130.66 C 177.50 131.63 178.24 132.48 179.22 132.55 Z M 180.02 132.59 L 181.02 132.75 C 181.99 132.90 182.89 132.23 183.04 131.27 C 183.19 130.30 182.53 129.40 181.56 129.25 L 180.56 129.10 C 179.59 128.95 178.69 129.61 178.54 130.57 C 178.39 131.54 179.05 132.44 180.02 132.59 Z M 180.83 132.70 L 181.85 132.98 C 182.79 133.24 183.76 132.68 184.02 131.74 C 184.27 130.80 183.72 129.83 182.78 129.57 L 181.75 129.29 C 180.81 129.04 179.84 129.60 179.59 130.54 C 179.33 131.48 179.89 132.45 180.83 132.70 Z M 181.68 132.92 L 182.56 133.26 C 183.46 133.61 184.49 133.16 184.84 132.26 C 185.19 131.35 184.74 130.33 183.83 129.97 L 182.95 129.63 C 182.04 129.28 181.02 129.73 180.67 130.64 C 180.32 131.54 180.77 132.57 181.68 132.92 Z M 182.41 133.20 L 183.31 133.64 C 184.18 134.07 185.24 133.71 185.67 132.84 C 186.10 131.97 185.74 130.91 184.87 130.48 L 183.98 130.04 C 183.10 129.61 182.05 129.96 181.62 130.84 C 181.19 131.71 181.54 132.77 182.41 133.20 Z M 183.17 133.56 L 184.05 134.10 C 184.88 134.60 185.96 134.34 186.47 133.51 C 186.97 132.68 186.71 131.60 185.88 131.09 L 185.00 130.56 C 184.17 130.05 183.09 130.32 182.59 131.15 C 182.08 131.97 182.34 133.06 183.17 133.56 Z M 183.92 134.00 L 184.75 134.62 C 185.53 135.20 186.63 135.04 187.21 134.26 C 187.79 133.48 187.63 132.38 186.85 131.80 L 186.01 131.18 C 185.24 130.60 184.14 130.77 183.56 131.55 C 182.98 132.32 183.14 133.42 183.92 134.00 Z M 184.62 134.51 L 185.36 135.18 C 186.07 135.84 187.18 135.79 187.84 135.07 C 188.49 134.35 188.44 133.25 187.72 132.59 L 186.98 131.92 C 186.27 131.26 185.16 131.31 184.50 132.03 C 183.85 132.75 183.90 133.85 184.62 134.51 Z M 185.24 135.06 L 185.91 135.80 C 186.55 136.51 187.66 136.57 188.38 135.92 C 189.10 135.28 189.15 134.17 188.50 133.45 L 187.84 132.71 C 187.19 132.00 186.09 131.94 185.37 132.59 C 184.65 133.24 184.59 134.34 185.24 135.06 Z M 185.81 135.68 L 186.41 136.47 C 186.99 137.24 188.09 137.39 188.86 136.81 C 189.63 136.23 189.78 135.13 189.20 134.36 L 188.60 133.57 C 188.02 132.80 186.92 132.65 186.15 133.23 C 185.38 133.81 185.23 134.91 185.81 135.68 Z M 186.34 136.36 L 186.88 137.21 C 187.40 138.02 188.48 138.25 189.29 137.73 C 190.10 137.21 190.34 136.13 189.82 135.32 L 189.27 134.47 C 188.75 133.66 187.67 133.43 186.86 133.95 C 186.05 134.47 185.82 135.55 186.34 136.36 Z M 186.83 137.11 L 187.32 137.99 C 187.78 138.83 188.84 139.13 189.69 138.67 C 190.53 138.20 190.83 137.14 190.36 136.30 L 189.87 135.42 C 189.40 134.58 188.34 134.27 187.50 134.74 C 186.66 135.21 186.36 136.27 186.83 137.11 Z M 187.27 137.90 L 187.71 138.79 C 188.13 139.66 189.17 140.02 190.03 139.60 C 190.89 139.18 191.26 138.14 190.84 137.28 L 190.40 136.39 C 189.99 135.52 188.95 135.16 188.08 135.58 C 187.22 136.00 186.86 137.04 187.27 137.90 Z M 187.67 138.71 L 188.05 139.63 C 188.42 140.51 189.44 140.93 190.33 140.56 C 191.21 140.19 191.63 139.18 191.26 138.29 L 190.88 137.37 C 190.51 136.48 189.49 136.06 188.60 136.43 C 187.72 136.80 187.30 137.82 187.67 138.71 Z M 188.02 139.53 L 188.35 140.48 C 188.67 141.39 189.66 141.86 190.56 141.54 C 191.47 141.23 191.94 140.24 191.63 139.33 L 191.29 138.38 C 190.98 137.48 189.99 137.00 189.08 137.32 C 188.18 137.64 187.70 138.63 188.02 139.53 Z M 188.32 140.38 L 188.60 141.35 C 188.86 142.27 189.82 142.80 190.74 142.54 C 191.66 142.28 192.19 141.32 191.93 140.40 L 191.66 139.43 C 191.40 138.51 190.44 137.98 189.51 138.24 C 188.59 138.50 188.06 139.46 188.32 140.38 Z M 188.57 141.24 L 188.78 142.21 C 188.99 143.15 189.91 143.74 190.84 143.54 C 191.78 143.34 192.37 142.41 192.17 141.48 L 191.96 140.50 C 191.75 139.57 190.83 138.98 189.90 139.18 C 188.96 139.38 188.37 140.30 188.57 141.24 Z M 188.76 142.11 L 188.92 143.09 C 189.06 144.03 189.95 144.68 190.89 144.53 C 191.84 144.39 192.49 143.50 192.34 142.56 L 192.19 141.58 C 192.04 140.64 191.16 139.99 190.21 140.13 C 189.26 140.28 188.62 141.17 188.76 142.11 Z M 188.91 143.00 L 189.01 143.99 C 189.11 144.94 189.96 145.63 190.91 145.53 C 191.86 145.43 192.55 144.58 192.45 143.63 L 192.35 142.64 C 192.25 141.69 191.40 141.00 190.45 141.10 C 189.49 141.20 188.81 142.05 188.91 143.00 Z M 189.00 143.93 L 189.07 144.93 C 189.14 145.88 189.96 146.60 190.92 146.54 C 191.87 146.47 192.59 145.65 192.53 144.70 L 192.46 143.70 C 192.39 142.74 191.57 142.02 190.61 142.08 C 189.66 142.15 188.94 142.97 189.00 143.93 Z M 189.07 144.88 L 189.11 145.89 C 189.15 146.85 189.96 147.59 190.91 147.55 C 191.87 147.51 192.61 146.71 192.57 145.75 L 192.53 144.74 C 192.49 143.79 191.68 143.04 190.73 143.08 C 189.77 143.12 189.03 143.93 189.07 144.88 Z M 189.11 145.87 L 189.14 146.86 C 189.16 147.81 189.95 148.57 190.91 148.54 C 191.86 148.52 192.62 147.73 192.59 146.77 L 192.57 145.78 C 192.55 144.83 191.75 144.07 190.80 144.09 C 189.84 144.12 189.09 144.91 189.11 145.87 Z M 189.14 146.83 L 189.14 147.81 C 189.15 148.76 189.93 149.53 190.88 149.52 C 191.84 149.52 192.61 148.74 192.60 147.78 L 192.59 146.80 C 192.59 145.85 191.81 145.08 190.85 145.09 C 189.90 145.09 189.13 145.87 189.14 146.83 Z M 189.15 147.76 L 189.12 148.75 C 189.11 149.71 189.86 150.50 190.82 150.52 C 191.77 150.54 192.56 149.78 192.58 148.83 L 192.60 147.83 C 192.62 146.88 191.86 146.09 190.91 146.07 C 189.95 146.05 189.16 146.81 189.15 147.76 Z M 189.13 148.69 L 189.07 149.69 C 189.02 150.65 189.74 151.46 190.69 151.52 C 191.65 151.57 192.46 150.85 192.52 149.89 L 192.57 148.89 C 192.63 147.94 191.90 147.12 190.95 147.07 C 190.00 147.01 189.18 147.74 189.13 148.69 Z M 189.08 149.61 L 188.97 150.63 C 188.87 151.58 189.56 152.43 190.51 152.52 C 191.46 152.62 192.30 151.94 192.40 150.99 L 192.51 149.97 C 192.61 149.03 191.92 148.18 190.97 148.08 C 190.03 147.98 189.18 148.67 189.08 149.61 Z M 188.98 150.54 L 188.83 151.53 C 188.68 152.47 189.32 153.35 190.26 153.50 C 191.20 153.65 192.08 153.01 192.23 152.07 L 192.39 151.08 C 192.54 150.14 191.90 149.26 190.96 149.11 C 190.02 148.96 189.13 149.60 188.98 150.54 Z M 188.85 151.44 L 188.64 152.42 C 188.44 153.35 189.03 154.27 189.96 154.46 C 190.89 154.66 191.81 154.07 192.01 153.14 L 192.21 152.16 C 192.41 151.23 191.82 150.32 190.89 150.12 C 189.96 149.92 189.04 150.51 188.85 151.44 Z M 188.66 152.34 L 188.40 153.32 C 188.16 154.23 188.71 155.17 189.63 155.42 C 190.55 155.66 191.49 155.11 191.73 154.19 L 191.99 153.22 C 192.23 152.30 191.68 151.36 190.76 151.11 C 189.84 150.87 188.90 151.42 188.66 152.34 Z M 188.42 153.24 L 188.13 154.21 C 187.85 155.11 188.35 156.08 189.26 156.36 C 190.17 156.64 191.13 156.13 191.41 155.22 L 191.71 154.26 C 191.99 153.35 191.48 152.39 190.57 152.11 C 189.67 151.83 188.70 152.34 188.42 153.24 Z M 188.15 154.14 L 187.81 155.08 C 187.50 155.98 187.96 156.96 188.86 157.28 C 189.75 157.59 190.73 157.13 191.05 156.23 L 191.39 155.29 C 191.70 154.40 191.24 153.41 190.34 153.10 C 189.45 152.78 188.47 153.25 188.15 154.14 Z M 187.84 155.02 L 187.47 155.95 C 187.12 156.83 187.54 157.83 188.42 158.18 C 189.30 158.53 190.30 158.11 190.65 157.23 L 191.02 156.30 C 191.38 155.42 190.95 154.42 190.07 154.07 C 189.19 153.71 188.19 154.14 187.84 155.02 Z M 187.50 155.89 L 187.08 156.82 C 186.69 157.69 187.08 158.70 187.94 159.09 C 188.80 159.47 189.82 159.09 190.20 158.22 L 190.62 157.29 C 191.01 156.43 190.62 155.41 189.76 155.03 C 188.90 154.64 187.88 155.03 187.50 155.89 Z M 187.11 156.76 L 186.66 157.67 C 186.24 158.51 186.59 159.54 187.43 159.96 C 188.28 160.38 189.30 160.03 189.72 159.19 L 190.17 158.28 C 190.59 157.44 190.24 156.41 189.40 155.99 C 188.55 155.57 187.53 155.92 187.11 156.76 Z M 186.70 157.61 L 186.22 158.48 C 185.77 159.31 186.08 160.35 186.90 160.80 C 187.73 161.25 188.76 160.94 189.21 160.11 L 189.69 159.24 C 190.14 158.41 189.83 157.38 189.01 156.93 C 188.18 156.48 187.15 156.79 186.70 157.61 Z M 186.25 158.43 L 185.75 159.28 C 185.28 160.09 185.55 161.13 186.35 161.61 C 187.16 162.09 188.21 161.82 188.68 161.01 L 189.18 160.16 C 189.66 159.35 189.39 158.31 188.58 157.83 C 187.77 157.36 186.73 157.63 186.25 158.43 Z M 185.79 159.24 L 185.26 160.07 C 184.76 160.86 184.99 161.91 185.78 162.41 C 186.57 162.91 187.62 162.67 188.12 161.88 L 188.65 161.05 C 189.15 160.26 188.92 159.21 188.13 158.71 C 187.34 158.21 186.29 158.45 185.79 159.24 Z M 185.29 160.03 L 184.73 160.85 C 184.21 161.63 184.41 162.68 185.18 163.20 C 185.95 163.73 187.01 163.53 187.53 162.75 L 188.09 161.92 C 188.62 161.15 188.41 160.10 187.64 159.57 C 186.87 159.05 185.82 159.25 185.29 160.03 Z M 184.76 160.81 L 184.18 161.62 C 183.63 162.38 183.80 163.43 184.55 163.98 C 185.31 164.52 186.36 164.36 186.91 163.60 L 187.50 162.79 C 188.04 162.04 187.87 160.99 187.12 160.44 C 186.37 159.89 185.31 160.06 184.76 160.81 Z M 184.21 161.58 L 183.60 162.37 C 183.03 163.10 183.17 164.16 183.90 164.73 C 184.64 165.30 185.69 165.17 186.26 164.43 L 186.87 163.64 C 187.44 162.91 187.31 161.85 186.57 161.28 C 185.84 160.71 184.78 160.85 184.21 161.58 Z M 183.64 162.33 L 183.00 163.10 C 182.41 163.81 182.51 164.87 183.22 165.46 C 183.94 166.05 185.00 165.95 185.59 165.24 L 186.22 164.47 C 186.81 163.76 186.72 162.70 186.00 162.11 C 185.29 161.52 184.23 161.62 183.64 162.33 Z M 183.04 163.06 L 182.37 163.82 C 181.76 164.51 181.82 165.57 182.52 166.18 C 183.21 166.79 184.27 166.73 184.88 166.03 L 185.55 165.28 C 186.16 164.59 186.09 163.53 185.40 162.92 C 184.71 162.30 183.65 162.37 183.04 163.06 Z M 182.41 163.78 L 181.71 164.52 C 181.08 165.19 181.11 166.25 181.78 166.88 C 182.45 167.52 183.50 167.49 184.13 166.82 L 184.84 166.07 C 185.47 165.40 185.44 164.35 184.77 163.71 C 184.10 163.08 183.05 163.11 182.41 163.78 Z M 181.75 164.49 L 181.03 165.20 C 180.38 165.84 180.37 166.90 181.01 167.55 C 181.66 168.21 182.71 168.21 183.37 167.57 L 184.09 166.86 C 184.75 166.21 184.75 165.16 184.11 164.50 C 183.46 163.85 182.41 163.84 181.75 164.49 Z M 181.08 165.16 L 180.34 165.83 C 179.66 166.45 179.61 167.50 180.23 168.17 C 180.85 168.85 181.90 168.90 182.58 168.28 L 183.32 167.61 C 183.99 166.99 184.04 165.94 183.43 165.27 C 182.81 164.59 181.76 164.54 181.08 165.16 Z M 180.40 165.78 L 179.65 166.41 C 178.95 166.99 178.86 168.04 179.44 168.74 C 180.03 169.44 181.07 169.54 181.77 168.95 L 182.52 168.33 C 183.22 167.74 183.32 166.70 182.73 166.00 C 182.15 165.29 181.10 165.20 180.40 165.78 Z M 179.72 166.35 L 178.91 166.96 C 178.18 167.51 178.03 168.54 178.58 169.27 C 179.13 170.00 180.16 170.15 180.89 169.61 L 181.70 169.00 C 182.43 168.46 182.58 167.42 182.04 166.69 C 181.49 165.96 180.46 165.81 179.72 166.35 Z M 179.00 166.90 L 178.15 167.46 C 177.39 167.96 177.17 168.98 177.67 169.74 C 178.17 170.50 179.19 170.72 179.95 170.22 L 180.81 169.66 C 181.57 169.17 181.78 168.14 181.28 167.38 C 180.79 166.62 179.76 166.41 179.00 166.90 Z M 178.25 167.40 L 177.38 167.89 C 176.59 168.33 176.31 169.34 176.75 170.13 C 177.19 170.92 178.20 171.20 178.99 170.76 L 179.85 170.28 C 180.65 169.83 180.93 168.83 180.49 168.04 C 180.04 167.24 179.04 166.96 178.25 167.40 Z M 177.49 167.84 L 176.60 168.25 C 175.78 168.64 175.43 169.62 175.82 170.44 C 176.20 171.26 177.18 171.61 178.00 171.23 L 178.89 170.81 C 179.71 170.42 180.06 169.45 179.67 168.62 C 179.29 167.80 178.31 167.45 177.49 167.84 Z M 176.71 168.21 L 175.80 168.56 C 174.96 168.89 174.54 169.84 174.87 170.69 C 175.20 171.53 176.15 171.95 176.99 171.62 L 177.90 171.27 C 178.74 170.94 179.16 169.99 178.83 169.15 C 178.50 168.30 177.55 167.88 176.71 168.21 Z M 175.90 168.53 L 174.97 168.82 C 174.11 169.10 173.63 170.02 173.90 170.88 C 174.17 171.74 175.09 172.22 175.96 171.95 L 176.89 171.65 C 177.75 171.38 178.23 170.46 177.96 169.60 C 177.69 168.74 176.77 168.26 175.90 168.53 Z M 175.06 168.80 L 174.10 169.04 C 173.22 169.26 172.69 170.15 172.91 171.03 C 173.13 171.91 174.02 172.44 174.90 172.22 L 175.86 171.97 C 176.74 171.75 177.27 170.86 177.05 169.99 C 176.83 169.11 175.94 168.58 175.06 168.80 Z M 174.18 169.02 L 173.19 169.22 C 172.30 169.39 171.73 170.25 171.90 171.14 C 172.08 172.03 172.94 172.61 173.83 172.43 L 174.82 172.24 C 175.70 172.06 176.28 171.20 176.11 170.31 C 175.93 169.42 175.07 168.85 174.18 169.02 Z M 173.26 169.21 L 172.25 169.36 C 171.35 169.49 170.74 170.33 170.87 171.22 C 171.01 172.12 171.84 172.73 172.74 172.60 L 173.75 172.44 C 174.65 172.31 175.26 171.47 175.13 170.58 C 174.99 169.69 174.16 169.07 173.26 169.21 Z M 172.31 169.35 L 171.31 169.46 C 170.41 169.57 169.77 170.38 169.87 171.28 C 169.97 172.17 170.78 172.82 171.68 172.72 L 172.68 172.60 C 173.58 172.50 174.22 171.69 174.12 170.79 C 174.02 169.90 173.21 169.25 172.31 169.35 Z M 171.36 169.46 L 170.36 169.54 C 169.45 169.62 168.78 170.41 168.86 171.31 C 168.93 172.21 169.72 172.88 170.63 172.81 L 171.63 172.72 C 172.53 172.65 173.20 171.86 173.13 170.96 C 173.05 170.06 172.26 169.39 171.36 169.46 Z M 170.40 169.54 L 169.39 169.60 C 168.49 169.65 167.80 170.42 167.85 171.32 C 167.90 172.22 168.67 172.92 169.58 172.86 L 170.58 172.81 C 171.48 172.76 172.18 171.99 172.12 171.08 C 172.07 170.18 171.30 169.49 170.40 169.54 Z M 169.43 169.59 L 168.44 169.63 C 167.54 169.66 166.83 170.41 166.86 171.32 C 166.89 172.22 167.65 172.93 168.55 172.90 L 169.54 172.87 C 170.44 172.84 171.15 172.08 171.12 171.18 C 171.09 170.27 170.34 169.57 169.43 169.59 Z M 168.48 169.63 L 167.46 169.64 C 166.56 169.64 165.83 170.38 165.84 171.29 C 165.85 172.19 166.59 172.92 167.49 172.91 L 168.51 172.90 C 169.42 172.89 170.14 172.15 170.13 171.25 C 170.12 170.34 169.38 169.62 168.48 169.63 Z M 167.53 169.64 L 166.52 169.60 C 165.61 169.57 164.86 170.28 164.83 171.19 C 164.80 172.09 165.51 172.85 166.41 172.88 L 167.42 172.91 C 168.33 172.94 169.08 172.23 169.11 171.32 C 169.14 170.42 168.43 169.67 167.53 169.64 Z M 166.64 169.61 L 165.65 169.51 C 164.76 169.42 163.95 170.07 163.86 170.97 C 163.76 171.87 164.42 172.67 165.32 172.77 L 166.30 172.87 C 167.20 172.96 168.00 172.31 168.09 171.41 C 168.19 170.51 167.53 169.71 166.64 169.61 Z M 165.82 169.54 L 164.86 169.34 C 163.98 169.15 163.11 169.72 162.93 170.61 C 162.74 171.49 163.31 172.36 164.20 172.54 L 165.15 172.74 C 166.04 172.92 166.90 172.36 167.09 171.47 C 167.27 170.59 166.70 169.72 165.82 169.54 Z M 165.05 169.39 L 164.14 169.08 C 163.28 168.79 162.35 169.25 162.06 170.10 C 161.77 170.96 162.23 171.89 163.09 172.18 L 164.00 172.49 C 164.86 172.78 165.79 172.32 166.08 171.47 C 166.37 170.61 165.91 169.68 165.05 169.39 Z M 164.30 169.14 L 163.42 168.73 C 162.60 168.35 161.62 168.71 161.24 169.53 C 160.86 170.35 161.22 171.32 162.04 171.70 L 162.92 172.11 C 163.74 172.49 164.72 172.14 165.10 171.32 C 165.48 170.50 165.12 169.53 164.30 169.14 Z M 163.53 168.79 L 162.65 168.30 C 161.86 167.86 160.86 168.14 160.42 168.93 C 159.98 169.72 160.27 170.72 161.05 171.16 L 161.93 171.65 C 162.72 172.09 163.72 171.80 164.16 171.01 C 164.60 170.22 164.32 169.23 163.53 168.79 Z M 162.71 168.34 L 161.84 167.80 C 161.07 167.32 160.06 167.56 159.59 168.33 C 159.11 169.10 159.35 170.11 160.12 170.58 L 160.99 171.12 C 161.76 171.60 162.77 171.36 163.25 170.59 C 163.72 169.82 163.48 168.81 162.71 168.34 Z M 161.86 167.81 L 161.28 167.44 C 160.51 166.95 159.50 167.17 159.01 167.93 C 158.53 168.69 158.75 169.71 159.51 170.19 L 160.10 170.57 C 160.86 171.06 161.87 170.84 162.36 170.07 C 162.85 169.31 162.63 168.30 161.86 167.81 Z"
      fill="black"
      fill-rule="nonzero" /><path d="M 153.99 142.41 L 153.99 143.41 C 153.99 144.38 154.78 145.17 155.75 145.17 C 156.72 145.17 157.51 144.38 157.51 143.41 L 157.51 142.41 C 157.51 141.44 156.72 140.65 155.75 140.65 C 154.78 140.65 153.99 141.44 153.99 142.41 Z M 153.98 143.41 L 153.98 144.41 C 153.98 145.39 154.77 146.18 155.75 146.18 C 156.73 146.18 157.53 145.39 157.53 144.41 L 157.53 143.41 C 157.53 142.43 156.73 141.63 155.75 141.63 C 154.77 141.63 153.98 142.43 153.98 143.41 Z M 153.96 144.41 L 153.96 145.41 C 153.96 146.40 154.76 147.20 155.75 147.20 C 156.74 147.20 157.54 146.40 157.54 145.41 L 157.54 144.41 C 157.54 143.42 156.74 142.62 155.75 142.62 C 154.76 142.62 153.96 143.42 153.96 144.41 Z M 153.95 145.41 L 153.95 146.42 C 153.95 147.41 154.76 148.22 155.75 148.21 C 156.75 148.21 157.55 147.41 157.55 146.42 L 157.55 145.41 C 157.55 144.42 156.74 143.61 155.75 143.61 C 154.76 143.61 153.95 144.42 153.95 145.41 Z M 153.95 146.43 L 153.96 147.44 C 153.97 148.43 154.78 149.23 155.77 149.22 C 156.76 149.21 157.56 148.40 157.56 147.41 L 157.55 146.41 C 157.54 145.41 156.73 144.61 155.74 144.62 C 154.75 144.63 153.95 145.44 153.95 146.43 Z M 153.96 147.46 L 153.98 148.46 C 154.00 149.45 154.82 150.24 155.82 150.22 C 156.81 150.20 157.60 149.38 157.58 148.38 L 157.55 147.39 C 157.53 146.39 156.71 145.61 155.72 145.63 C 154.73 145.65 153.94 146.47 153.96 147.46 Z M 153.99 148.50 L 154.03 149.49 C 154.08 150.48 154.91 151.24 155.90 151.20 C 156.89 151.16 157.65 150.32 157.61 149.33 L 157.57 148.34 C 157.53 147.36 156.69 146.59 155.70 146.63 C 154.71 146.67 153.95 147.51 153.99 148.50 Z M 154.05 149.54 L 154.12 150.53 C 154.19 151.51 155.04 152.24 156.02 152.17 C 157.00 152.10 157.74 151.25 157.67 150.27 L 157.59 149.28 C 157.52 148.30 156.67 147.57 155.69 147.64 C 154.71 147.71 153.98 148.56 154.05 149.54 Z M 154.14 150.58 L 154.25 151.58 C 154.35 152.54 155.22 153.24 156.18 153.14 C 157.15 153.04 157.85 152.17 157.75 151.21 L 157.64 150.22 C 157.54 149.25 156.68 148.55 155.71 148.65 C 154.74 148.75 154.04 149.62 154.14 150.58 Z M 154.27 151.63 L 154.41 152.59 C 154.54 153.54 155.41 154.21 156.37 154.08 C 157.32 153.95 157.99 153.07 157.85 152.12 L 157.72 151.15 C 157.59 150.20 156.71 149.54 155.76 149.67 C 154.81 149.80 154.14 150.68 154.27 151.63 Z M 154.43 152.63 L 154.58 153.54 C 154.73 154.48 155.62 155.12 156.56 154.96 C 157.50 154.81 158.13 153.92 157.98 152.98 L 157.83 152.07 C 157.68 151.13 156.79 150.50 155.85 150.65 C 154.91 150.81 154.27 151.69 154.43 152.63 Z M 154.60 153.57 L 154.78 154.54 C 154.95 155.47 155.84 156.08 156.76 155.91 C 157.69 155.74 158.31 154.85 158.14 153.92 L 157.96 152.95 C 157.79 152.03 156.90 151.41 155.97 151.58 C 155.04 151.75 154.43 152.64 154.60 153.57 Z M 154.80 154.55 L 155.00 155.61 C 155.18 156.53 156.07 157.13 156.99 156.95 C 157.90 156.77 158.50 155.88 158.32 154.97 L 158.12 153.91 C 157.94 152.99 157.05 152.39 156.13 152.57 C 155.22 152.75 154.62 153.64 154.80 154.55 Z M 155.02 155.62 L 155.22 156.62 C 155.40 157.52 156.28 158.11 157.19 157.93 C 158.10 157.75 158.69 156.87 158.51 155.96 L 158.31 154.96 C 158.13 154.05 157.24 153.46 156.33 153.65 C 155.43 153.83 154.84 154.71 155.02 155.62 Z M 155.23 156.61 L 155.42 157.58 C 155.60 158.48 156.48 159.07 157.38 158.89 C 158.29 158.71 158.87 157.83 158.69 156.92 L 158.50 155.96 C 158.32 155.06 157.44 154.47 156.53 154.65 C 155.63 154.83 155.04 155.71 155.23 156.61 Z M 155.42 157.57 L 155.62 158.57 C 155.80 159.47 156.67 160.06 157.57 159.88 C 158.47 159.70 159.06 158.83 158.88 157.93 L 158.69 156.93 C 158.51 156.03 157.64 155.44 156.73 155.62 C 155.83 155.80 155.25 156.67 155.42 157.57 Z M 155.63 158.56 L 155.82 159.57 C 155.99 160.46 156.85 161.05 157.75 160.88 C 158.65 160.71 159.24 159.85 159.07 158.95 L 158.88 157.94 C 158.71 157.04 157.84 156.45 156.94 156.62 C 156.05 156.79 155.46 157.66 155.63 158.56 Z M 155.82 159.55 L 156.00 160.55 C 156.16 161.44 157.02 162.04 157.91 161.88 C 158.81 161.72 159.40 160.86 159.24 159.97 L 159.06 158.97 C 158.90 158.07 158.05 157.48 157.15 157.64 C 156.26 157.80 155.66 158.65 155.82 159.55 Z M 156.00 160.52 L 156.17 161.55 C 156.32 162.45 157.16 163.05 158.05 162.91 C 158.95 162.76 159.56 161.92 159.41 161.02 L 159.24 159.99 C 159.10 159.10 158.25 158.49 157.36 158.64 C 156.46 158.78 155.85 159.63 156.00 160.52 Z M 156.17 161.53 L 156.32 162.53 C 156.45 163.43 157.28 164.05 158.18 163.92 C 159.08 163.78 159.69 162.95 159.56 162.05 L 159.41 161.05 C 159.28 160.15 158.45 159.53 157.55 159.66 C 156.65 159.80 156.03 160.63 156.17 161.53 Z M 156.31 162.52 L 156.45 163.50 C 156.57 164.39 157.40 165.02 158.29 164.90 C 159.19 164.78 159.82 163.95 159.70 163.05 L 159.56 162.07 C 159.44 161.18 158.61 160.55 157.72 160.67 C 156.82 160.79 156.19 161.62 156.31 162.52 Z M 156.45 163.48 L 156.57 164.45 C 156.69 165.34 157.51 165.98 158.40 165.86 C 159.30 165.75 159.94 164.93 159.82 164.03 L 159.70 163.07 C 159.58 162.17 158.76 161.53 157.86 161.65 C 156.97 161.76 156.33 162.59 156.45 163.48 Z M 156.57 164.44 L 156.65 165.04 C 156.76 165.94 157.58 166.57 158.47 166.46 C 159.37 166.35 160.01 165.53 159.90 164.63 L 159.82 164.03 C 159.71 163.14 158.89 162.50 157.99 162.61 C 157.09 162.72 156.46 163.54 156.57 164.44 Z"
      fill="black"
      fill-rule="nonzero" /><path d="M 168.09 138.98 L 168.30 139.86 C 168.53 140.81 169.49 141.40 170.44 141.17 C 171.39 140.94 171.97 139.98 171.74 139.03 L 171.53 138.15 C 171.30 137.20 170.34 136.62 169.39 136.85 C 168.44 137.08 167.86 138.03 168.09 138.98 Z M 168.30 139.85 L 168.51 140.76 C 168.74 141.71 169.69 142.30 170.64 142.07 C 171.60 141.85 172.19 140.89 171.96 139.94 L 171.75 139.04 C 171.52 138.08 170.56 137.49 169.61 137.72 C 168.66 137.95 168.07 138.90 168.30 139.85 Z M 168.50 140.74 L 168.72 141.70 C 168.94 142.65 169.89 143.25 170.85 143.03 C 171.81 142.81 172.40 141.86 172.18 140.90 L 171.97 139.95 C 171.75 138.99 170.79 138.40 169.84 138.62 C 168.88 138.84 168.28 139.79 168.50 140.74 Z M 168.71 141.68 L 168.94 142.70 C 169.15 143.66 170.10 144.27 171.06 144.06 C 172.02 143.85 172.63 142.90 172.42 141.94 L 172.19 140.92 C 171.98 139.96 171.03 139.35 170.07 139.56 C 169.11 139.77 168.50 140.72 168.71 141.68 Z M 168.93 142.68 L 169.17 143.80 C 169.37 144.77 170.31 145.39 171.27 145.19 C 172.24 144.99 172.86 144.04 172.66 143.08 L 172.42 141.96 C 172.22 140.99 171.28 140.37 170.31 140.58 C 169.35 140.78 168.73 141.72 168.93 142.68 Z M 169.16 143.79 L 169.34 144.72 C 169.53 145.68 170.47 146.31 171.44 146.12 C 172.41 145.93 173.04 144.99 172.85 144.02 L 172.66 143.09 C 172.47 142.13 171.53 141.50 170.56 141.69 C 169.60 141.88 168.97 142.82 169.16 143.79 Z M 169.34 144.70 L 169.52 145.68 C 169.71 146.65 170.65 147.29 171.62 147.10 C 172.59 146.92 173.22 145.98 173.04 145.01 L 172.85 144.03 C 172.67 143.06 171.73 142.43 170.76 142.61 C 169.79 142.80 169.15 143.73 169.34 144.70 Z M 169.52 145.67 L 169.71 146.68 C 169.89 147.65 170.82 148.29 171.80 148.11 C 172.77 147.93 173.41 147.00 173.23 146.02 L 173.04 145.02 C 172.86 144.04 171.93 143.40 170.95 143.58 C 169.98 143.76 169.34 144.70 169.52 145.67 Z M 169.70 146.67 L 169.89 147.69 C 170.06 148.67 171.00 149.31 171.97 149.14 C 172.95 148.96 173.60 148.02 173.42 147.05 L 173.24 146.03 C 173.06 145.05 172.12 144.41 171.15 144.58 C 170.17 144.76 169.52 145.69 169.70 146.67 Z M 169.88 147.68 L 170.06 148.70 C 170.24 149.67 171.17 150.33 172.15 150.15 C 173.13 149.98 173.78 149.04 173.60 148.07 L 173.42 147.05 C 173.25 146.08 172.32 145.42 171.34 145.60 C 170.36 145.77 169.71 146.71 169.88 147.68 Z M 170.06 148.69 L 170.23 149.68 C 170.40 150.66 171.34 151.31 172.32 151.14 C 173.30 150.97 173.95 150.04 173.78 149.05 L 173.61 148.07 C 173.44 147.09 172.50 146.43 171.52 146.60 C 170.54 146.78 169.89 147.71 170.06 148.69 Z M 170.23 149.67 L 170.40 150.69 C 170.57 151.67 171.50 152.33 172.49 152.16 C 173.47 151.99 174.13 151.06 173.96 150.08 L 173.78 149.06 C 173.62 148.08 172.68 147.42 171.70 147.59 C 170.72 147.76 170.06 148.69 170.23 149.67 Z M 170.40 150.69 L 170.58 151.76 C 170.75 152.75 171.68 153.41 172.66 153.24 C 173.65 153.08 174.31 152.14 174.14 151.16 L 173.96 150.08 C 173.79 149.10 172.86 148.44 171.88 148.60 C 170.90 148.77 170.23 149.70 170.40 150.69 Z M 170.58 151.76 L 170.75 152.77 C 170.91 153.75 171.84 154.42 172.83 154.25 C 173.81 154.09 174.47 153.16 174.31 152.18 L 174.14 151.17 C 173.98 150.18 173.05 149.52 172.07 149.68 C 171.08 149.84 170.42 150.77 170.58 151.76 Z M 170.75 152.76 L 170.90 153.72 C 171.06 154.71 171.99 155.37 172.97 155.22 C 173.96 155.06 174.63 154.13 174.47 153.15 L 174.31 152.18 C 174.15 151.20 173.23 150.53 172.24 150.69 C 171.26 150.85 170.59 151.78 170.75 152.76 Z M 170.90 153.71 L 171.05 154.64 C 171.20 155.62 172.13 156.30 173.11 156.14 C 174.10 155.99 174.77 155.06 174.61 154.08 L 174.47 153.15 C 174.31 152.17 173.39 151.50 172.41 151.65 C 171.42 151.81 170.75 152.73 170.90 153.71 Z M 171.05 154.63 L 171.19 155.54 C 171.34 156.52 172.26 157.20 173.24 157.05 C 174.23 156.90 174.90 155.98 174.75 154.99 L 174.62 154.09 C 174.46 153.10 173.54 152.42 172.56 152.57 C 171.57 152.73 170.90 153.65 171.05 154.63 Z M 171.19 155.53 L 171.33 156.52 C 171.48 157.51 172.40 158.19 173.38 158.04 C 174.37 157.89 175.05 156.98 174.90 155.99 L 174.75 155.00 C 174.61 154.02 173.69 153.34 172.71 153.48 C 171.72 153.63 171.04 154.54 171.19 155.53 Z M 171.34 156.51 L 171.48 157.50 C 171.62 158.48 172.53 159.16 173.52 159.02 C 174.50 158.88 175.18 157.97 175.04 156.99 L 174.89 156.00 C 174.75 155.02 173.84 154.34 172.86 154.48 C 171.88 154.62 171.20 155.53 171.34 156.51 Z M 171.49 157.50 L 171.63 158.48 C 171.76 159.46 172.67 160.14 173.65 160.01 C 174.63 159.87 175.31 158.96 175.17 157.98 L 175.03 157.00 C 174.89 156.02 173.99 155.33 173.01 155.47 C 172.03 155.61 171.35 156.52 171.49 157.50 Z M 171.63 158.48 L 171.77 159.47 C 171.90 160.44 172.81 161.13 173.78 160.99 C 174.76 160.85 175.44 159.95 175.30 158.98 L 175.17 157.99 C 175.03 157.01 174.13 156.33 173.15 156.47 C 172.18 156.60 171.50 157.50 171.63 158.48 Z M 171.77 159.46 L 171.91 160.45 C 172.04 161.42 172.94 162.10 173.91 161.97 C 174.89 161.83 175.57 160.93 175.43 159.96 L 175.30 158.98 C 175.16 158.01 174.27 157.33 173.29 157.46 C 172.32 157.59 171.64 158.49 171.77 159.46 Z M 171.92 160.44 L 172.04 161.36 C 172.17 162.33 173.07 163.00 174.03 162.87 C 175.00 162.74 175.68 161.85 175.55 160.88 L 175.42 159.97 C 175.29 159.00 174.40 158.32 173.43 158.45 C 172.47 158.58 171.79 159.47 171.92 160.44 Z M 172.05 161.35 L 172.18 162.29 C 172.30 163.25 173.19 163.93 174.15 163.80 C 175.11 163.67 175.79 162.79 175.66 161.83 L 175.54 160.89 C 175.41 159.93 174.53 159.25 173.57 159.38 C 172.60 159.50 171.93 160.39 172.05 161.35 Z M 172.19 162.27 L 172.31 163.25 C 172.43 164.20 173.30 164.88 174.26 164.76 C 175.21 164.65 175.89 163.77 175.77 162.82 L 175.65 161.84 C 175.53 160.89 174.66 160.21 173.70 160.33 C 172.75 160.45 172.07 161.32 172.19 162.27 Z M 172.32 163.23 L 172.44 164.26 C 172.55 165.21 173.41 165.89 174.36 165.78 C 175.31 165.67 175.99 164.81 175.88 163.86 L 175.76 162.83 C 175.65 161.88 174.79 161.20 173.84 161.31 C 172.89 161.42 172.21 162.28 172.32 163.23 Z M 172.45 164.24 L 172.56 165.33 C 172.66 166.28 173.51 166.96 174.45 166.86 C 175.40 166.76 176.09 165.92 175.99 164.97 L 175.87 163.88 C 175.77 162.93 174.92 162.25 173.98 162.35 C 173.03 162.45 172.35 163.29 172.45 164.24 Z M 172.57 165.31 L 172.67 166.32 C 172.76 167.26 173.59 167.95 174.53 167.86 C 175.47 167.77 176.16 166.94 176.07 166.00 L 175.98 164.99 C 175.89 164.05 175.05 163.36 174.11 163.45 C 173.17 163.54 172.48 164.37 172.57 165.31 Z M 172.68 166.31 L 172.76 167.32 C 172.84 168.25 173.67 168.95 174.60 168.87 C 175.54 168.78 176.23 167.96 176.15 167.02 L 176.06 166.01 C 175.98 165.08 175.16 164.38 174.22 164.46 C 173.29 164.55 172.59 165.37 172.68 166.31 Z M 172.77 167.31 L 172.85 168.34 C 172.93 169.27 173.74 169.96 174.67 169.89 C 175.60 169.82 176.30 169.00 176.22 168.07 L 176.14 167.04 C 176.07 166.11 175.26 165.41 174.32 165.49 C 173.39 165.56 172.70 166.37 172.77 167.31 Z M 172.86 168.33 L 172.94 169.36 C 173.00 170.28 173.81 170.98 174.73 170.91 C 175.66 170.85 176.36 170.04 176.29 169.12 L 176.22 168.08 C 176.15 167.16 175.34 166.46 174.42 166.53 C 173.49 166.60 172.80 167.40 172.86 168.33 Z M 172.95 169.34 L 173.01 170.35 C 173.07 171.27 173.87 171.97 174.79 171.91 C 175.71 171.85 176.41 171.06 176.35 170.14 L 176.28 169.13 C 176.22 168.21 175.43 167.51 174.51 167.57 C 173.59 167.63 172.89 168.42 172.95 169.34 Z M 173.02 170.34 L 173.08 171.30 C 173.13 172.22 173.91 172.92 174.83 172.87 C 175.74 172.81 176.44 172.03 176.39 171.11 L 176.34 170.15 C 176.29 169.24 175.50 168.53 174.59 168.59 C 173.67 168.64 172.97 169.42 173.02 170.34 Z M 173.08 171.29 L 173.13 172.32 C 173.17 173.23 173.95 173.94 174.86 173.89 C 175.77 173.85 176.47 173.08 176.43 172.17 L 176.38 171.13 C 176.34 170.22 175.57 169.52 174.66 169.56 C 173.75 169.60 173.04 170.37 173.08 171.29 Z M 173.14 172.30 L 173.17 173.40 C 173.20 174.31 173.96 175.03 174.87 175.00 C 175.78 174.97 176.49 174.20 176.46 173.30 L 176.43 172.19 C 176.40 171.28 175.64 170.57 174.73 170.60 C 173.82 170.63 173.11 171.39 173.14 172.30 Z M 173.17 173.38 L 173.19 174.39 C 173.21 175.29 173.96 176.02 174.87 176.00 C 175.78 175.98 176.50 175.23 176.48 174.32 L 176.46 173.32 C 176.44 172.41 175.69 171.69 174.79 171.71 C 173.88 171.72 173.16 172.47 173.17 173.38 Z M 173.20 174.37 L 173.20 175.30 C 173.21 176.21 173.95 176.94 174.86 176.93 C 175.77 176.92 176.50 176.18 176.49 175.27 L 176.48 174.34 C 176.47 173.43 175.73 172.70 174.82 172.71 C 173.92 172.72 173.19 173.46 173.20 174.37 Z M 173.21 175.29 L 173.21 176.19 C 173.21 177.09 173.95 177.82 174.85 177.82 C 175.76 177.82 176.49 177.09 176.49 176.18 L 176.49 175.29 C 176.48 174.38 175.75 173.65 174.84 173.65 C 173.94 173.65 173.21 174.39 173.21 175.29 Z M 173.21 176.18 L 173.21 176.38 C 173.21 177.28 173.94 178.01 174.85 178.01 C 175.75 178.01 176.49 177.28 176.49 176.38 L 176.49 176.18 C 176.48 175.28 175.75 174.55 174.85 174.55 C 173.94 174.55 173.21 175.28 173.21 176.18 Z"
      fill="black"
      fill-rule="nonzero" /></svg>