<svg xmlns="http://www.w3.org/2000/svg" width="300" height="300" viewBox="0 0 300 300">
<path d="M 119.66 153.19 L 120.25 153.91 C 120.85 154.66 121.94 154.77 122.69 154.16 C 123.43 153.56 123.54 152.47 122.93 151.72 L 122.35 151.00 C 121.74 150.26 120.65 150.15 119.91 150.76 C 119.17 151.36 119.06 152.45 119.66 153.19 Z M 120.39 154.11 L 121.09 154.76 C 121.80 155.42 122.91 155.39 123.58 154.67 C 124.24 153.96 124.20 152.85 123.49 152.18 L 122.80 151.53 C 122.08 150.86 120.97 150.90 120.30 151.61 C 119.64 152.33 119.68 153.44 120.39 154.11 Z M 121.41 155.04 L 122.33 155.55 C 123.20 156.03 124.29 155.73 124.77 154.86 C 125.26 154.00 124.95 152.90 124.08 152.42 L 123.17 151.90 C 122.30 151.42 121.21 151.73 120.72 152.59 C 120.24 153.46 120.55 154.55 121.41 155.04 Z M 122.71 155.73 L 123.62 155.99 C 124.59 156.26 125.59 155.71 125.87 154.74 C 126.14 153.78 125.58 152.77 124.62 152.50 L 123.70 152.24 C 122.74 151.96 121.74 152.52 121.46 153.49 C 121.19 154.45 121.75 155.45 122.71 155.73 Z M 123.86 156.05 L 124.81 156.18 C 125.81 156.33 126.73 155.63 126.87 154.64 C 127.02 153.64 126.32 152.72 125.33 152.58 L 124.38 152.44 C 123.38 152.30 122.46 152.99 122.32 153.99 C 122.17 154.98 122.87 155.90 123.86 156.05 Z M 124.95 156.20 L 125.98 156.27 C 126.99 156.33 127.86 155.57 127.92 154.56 C 127.99 153.56 127.22 152.69 126.22 152.63 L 125.19 152.56 C 124.18 152.50 123.32 153.26 123.25 154.26 C 123.19 155.27 123.95 156.14 124.95 156.20 Z M 126.07 156.27 L 127.13 156.29 C 128.14 156.30 128.97 155.50 128.99 154.49 C 129.00 153.48 128.19 152.65 127.19 152.64 L 126.13 152.62 C 125.12 152.61 124.29 153.41 124.27 154.42 C 124.26 155.43 125.07 156.26 126.07 156.27 Z M 127.19 156.29 L 128.23 156.27 C 129.24 156.26 130.04 155.42 130.03 154.41 C 130.01 153.40 129.18 152.60 128.17 152.62 L 127.13 152.63 C 126.12 152.65 125.31 153.48 125.33 154.49 C 125.35 155.50 126.18 156.31 127.19 156.29 Z M 128.26 156.27 L 129.33 156.24 C 130.34 156.20 131.13 155.36 131.10 154.35 C 131.06 153.34 130.22 152.54 129.21 152.58 L 128.14 152.62 C 127.13 152.65 126.33 153.50 126.37 154.51 C 126.40 155.52 127.25 156.31 128.26 156.27 Z M 129.36 156.24 L 130.38 156.18 C 131.38 156.13 132.16 155.27 132.11 154.26 C 132.06 153.25 131.20 152.48 130.19 152.53 L 129.17 152.58 C 128.17 152.63 127.39 153.49 127.44 154.50 C 127.49 155.51 128.35 156.29 129.36 156.24 Z M 130.41 156.18 L 131.38 156.11 C 132.39 156.04 133.15 155.16 133.08 154.16 C 133.00 153.15 132.13 152.39 131.12 152.46 L 130.15 152.53 C 129.14 152.60 128.38 153.48 128.46 154.49 C 128.53 155.49 129.40 156.25 130.41 156.18 Z M 131.42 156.11 L 132.37 156.02 C 133.38 155.93 134.12 155.04 134.03 154.03 C 133.93 153.02 133.04 152.28 132.04 152.38 L 131.08 152.47 C 130.08 152.56 129.34 153.45 129.43 154.45 C 129.52 155.46 130.41 156.20 131.42 156.11 Z M 132.41 156.01 L 133.36 155.91 C 134.36 155.80 135.08 154.89 134.97 153.89 C 134.85 152.88 133.95 152.16 132.95 152.28 L 132.00 152.38 C 131.00 152.49 130.28 153.40 130.39 154.40 C 130.50 155.41 131.41 156.13 132.41 156.01 Z M 133.39 155.90 L 134.34 155.78 C 135.34 155.65 136.05 154.73 135.92 153.73 C 135.79 152.73 134.87 152.03 133.87 152.16 L 132.92 152.28 C 131.92 152.41 131.21 153.33 131.34 154.33 C 131.47 155.33 132.39 156.03 133.39 155.90 Z M 134.37 155.77 L 135.35 155.63 C 136.34 155.49 137.04 154.56 136.89 153.57 C 136.75 152.57 135.82 151.88 134.83 152.02 L 133.85 152.16 C 132.85 152.31 132.16 153.23 132.30 154.23 C 132.44 155.22 133.37 155.92 134.37 155.77 Z M 135.37 155.63 L 136.38 155.47 C 137.37 155.32 138.05 154.38 137.90 153.39 C 137.75 152.40 136.81 151.71 135.82 151.87 L 134.81 152.03 C 133.81 152.18 133.13 153.11 133.29 154.11 C 133.44 155.10 134.37 155.78 135.37 155.63 Z M 136.39 155.47 L 137.43 155.30 C 138.42 155.13 139.09 154.20 138.93 153.21 C 138.77 152.21 137.83 151.54 136.84 151.70 L 135.81 151.87 C 134.81 152.04 134.14 152.97 134.30 153.96 C 134.47 154.96 135.40 155.63 136.39 155.47 Z M 137.44 155.29 L 138.38 155.13 C 139.37 154.96 140.04 154.03 139.87 153.04 C 139.70 152.05 138.76 151.38 137.77 151.55 L 136.83 151.71 C 135.84 151.88 135.18 152.81 135.34 153.80 C 135.51 154.79 136.45 155.46 137.44 155.29 Z M 138.39 155.13 L 139.35 154.96 C 140.34 154.79 141.00 153.85 140.83 152.86 C 140.66 151.87 139.72 151.21 138.73 151.39 L 137.76 151.55 C 136.78 151.73 136.12 152.67 136.29 153.65 C 136.46 154.64 137.40 155.30 138.39 155.13 Z M 139.36 154.95 L 140.35 154.78 C 141.33 154.60 141.99 153.66 141.81 152.68 C 141.64 151.69 140.70 151.04 139.71 151.21 L 138.72 151.39 C 137.74 151.57 137.09 152.51 137.26 153.49 C 137.44 154.47 138.38 155.13 139.36 154.95 Z M 140.36 154.77 L 141.36 154.59 C 142.34 154.41 142.99 153.47 142.81 152.49 C 142.64 151.51 141.70 150.86 140.71 151.04 L 139.71 151.22 C 138.73 151.40 138.08 152.34 138.26 153.32 C 138.43 154.30 139.37 154.95 140.36 154.77 Z M 141.37 154.58 L 142.39 154.39 C 143.37 154.21 144.01 153.27 143.83 152.29 C 143.65 151.31 142.71 150.67 141.73 150.85 L 140.71 151.04 C 139.73 151.22 139.09 152.16 139.27 153.14 C 139.45 154.12 140.39 154.76 141.37 154.58 Z M 142.39 154.39 L 143.35 154.21 C 144.32 154.02 144.96 153.08 144.78 152.11 C 144.60 151.13 143.66 150.49 142.68 150.68 L 141.73 150.86 C 140.75 151.04 140.11 151.98 140.29 152.95 C 140.48 153.93 141.42 154.57 142.39 154.39 Z M 143.35 154.20 L 144.31 154.01 C 145.28 153.83 145.92 152.89 145.73 151.92 C 145.55 150.95 144.61 150.31 143.64 150.50 L 142.68 150.68 C 141.71 150.87 141.07 151.81 141.26 152.78 C 141.44 153.75 142.38 154.39 143.35 154.20 Z M 144.32 154.01 L 145.29 153.82 C 146.26 153.63 146.89 152.69 146.70 151.73 C 146.51 150.76 145.57 150.13 144.61 150.32 L 143.63 150.51 C 142.67 150.69 142.04 151.63 142.22 152.60 C 142.41 153.57 143.35 154.20 144.32 154.01 Z M 145.29 153.81 L 146.28 153.61 C 147.24 153.42 147.87 152.49 147.68 151.52 C 147.49 150.56 146.55 149.94 145.59 150.13 L 144.60 150.32 C 143.64 150.52 143.01 151.45 143.20 152.41 C 143.40 153.38 144.33 154.00 145.29 153.81 Z M 146.29 153.61 L 147.29 153.40 C 148.25 153.21 148.87 152.27 148.68 151.32 C 148.48 150.36 147.55 149.74 146.59 149.93 L 145.58 150.14 C 144.63 150.33 144.01 151.26 144.20 152.22 C 144.39 153.18 145.33 153.80 146.29 153.61 Z M 147.30 153.39 L 148.30 153.19 C 149.25 152.99 149.86 152.06 149.67 151.11 C 149.47 150.15 148.54 149.54 147.58 149.73 L 146.58 149.94 C 145.63 150.14 145.02 151.07 145.21 152.02 C 145.41 152.98 146.34 153.59 147.30 153.39 Z M 148.30 153.18 L 149.26 152.98 C 150.21 152.78 150.82 151.85 150.62 150.90 C 150.42 149.95 149.49 149.34 148.54 149.54 L 147.58 149.74 C 146.63 149.94 146.02 150.87 146.22 151.82 C 146.42 152.77 147.35 153.38 148.30 153.18 Z M 149.26 152.97 L 150.24 152.76 C 151.18 152.56 151.79 151.63 151.59 150.69 C 151.39 149.75 150.46 149.14 149.52 149.34 L 148.54 149.55 C 147.60 149.75 146.99 150.68 147.19 151.62 C 147.39 152.57 148.32 153.17 149.26 152.97 Z M 150.24 152.75 L 151.22 152.54 C 152.16 152.34 152.76 151.42 152.56 150.48 C 152.36 149.54 151.44 148.94 150.50 149.14 L 149.52 149.35 C 148.58 149.55 147.98 150.48 148.18 151.42 C 148.38 152.35 149.30 152.95 150.24 152.75 Z M 151.22 152.53 L 152.21 152.32 C 153.14 152.12 153.74 151.21 153.54 150.27 C 153.34 149.34 152.42 148.74 151.49 148.94 L 150.50 149.15 C 149.57 149.35 148.97 150.27 149.17 151.20 C 149.37 152.14 150.29 152.73 151.22 152.53 Z M 152.21 152.31 L 153.19 152.10 C 154.12 151.91 154.71 150.99 154.52 150.06 C 154.32 149.14 153.41 148.54 152.48 148.74 L 151.49 148.95 C 150.56 149.15 149.97 150.06 150.17 150.99 C 150.36 151.92 151.28 152.51 152.21 152.31 Z M 153.19 152.10 L 154.17 151.89 C 155.10 151.69 155.69 150.78 155.49 149.86 C 155.30 148.94 154.39 148.35 153.47 148.54 L 152.48 148.75 C 151.56 148.94 150.97 149.85 151.16 150.78 C 151.36 151.70 152.27 152.29 153.19 152.10 Z M 154.17 151.88 L 155.16 151.67 C 156.08 151.48 156.66 150.58 156.47 149.66 C 156.28 148.74 155.38 148.15 154.46 148.34 L 153.47 148.55 C 152.55 148.74 151.96 149.64 152.16 150.56 C 152.35 151.48 153.25 152.07 154.17 151.88 Z M 155.15 151.66 L 156.13 151.46 C 157.05 151.27 157.63 150.37 157.44 149.46 C 157.25 148.54 156.36 147.96 155.44 148.15 L 154.46 148.35 C 153.55 148.54 152.96 149.44 153.15 150.35 C 153.34 151.27 154.24 151.85 155.15 151.66 Z M 156.13 151.45 L 157.10 151.25 C 158.02 151.06 158.60 150.17 158.41 149.26 C 158.23 148.35 157.34 147.76 156.42 147.95 L 155.45 148.15 C 154.54 148.34 153.95 149.23 154.14 150.14 C 154.33 151.05 155.22 151.64 156.13 151.45 Z M 157.10 151.24 L 158.08 151.04 C 158.98 150.86 159.57 149.97 159.38 149.07 C 159.20 148.16 158.31 147.57 157.40 147.76 L 156.43 147.96 C 155.52 148.15 154.94 149.03 155.12 149.94 C 155.31 150.84 156.19 151.43 157.10 151.24 Z M 158.07 151.04 L 159.05 150.84 C 159.95 150.65 160.53 149.77 160.35 148.87 C 160.17 147.97 159.29 147.39 158.38 147.57 L 157.41 147.77 C 156.51 147.95 155.92 148.83 156.11 149.73 C 156.29 150.64 157.17 151.22 158.07 151.04 Z M 159.05 150.83 L 160.02 150.63 C 160.92 150.45 161.50 149.57 161.32 148.68 C 161.14 147.78 160.26 147.20 159.36 147.38 L 158.39 147.58 C 157.49 147.76 156.91 148.63 157.09 149.53 C 157.27 150.43 158.15 151.01 159.05 150.83 Z M 160.02 150.62 L 160.99 150.43 C 161.88 150.25 162.46 149.38 162.28 148.48 C 162.10 147.59 161.23 147.01 160.33 147.19 L 159.37 147.39 C 158.47 147.57 157.89 148.44 158.07 149.33 C 158.25 150.23 159.12 150.80 160.02 150.62 Z M 160.98 150.42 L 161.96 150.23 C 162.85 150.05 163.42 149.18 163.24 148.29 C 163.07 147.40 162.20 146.83 161.31 147.00 L 160.34 147.20 C 159.45 147.38 158.87 148.24 159.05 149.13 C 159.23 150.02 160.10 150.60 160.98 150.42 Z M 161.95 150.22 L 162.93 150.02 C 163.82 149.84 164.39 148.98 164.21 148.10 C 164.04 147.21 163.18 146.64 162.29 146.82 L 161.31 147.01 C 160.43 147.19 159.86 148.05 160.03 148.94 C 160.21 149.82 161.07 150.39 161.95 150.22 Z M 162.93 150.01 L 163.91 149.82 C 164.79 149.64 165.37 148.79 165.19 147.91 C 165.02 147.03 164.16 146.45 163.28 146.63 L 162.30 146.82 C 161.41 147.00 160.84 147.86 161.02 148.74 C 161.19 149.62 162.05 150.19 162.93 150.01 Z M 163.91 149.81 L 164.90 149.62 C 165.78 149.44 166.35 148.59 166.17 147.71 C 166.00 146.84 165.15 146.27 164.27 146.44 L 163.28 146.64 C 162.41 146.81 161.84 147.66 162.01 148.54 C 162.18 149.41 163.03 149.98 163.91 149.81 Z M 164.90 149.61 L 165.89 149.41 C 166.76 149.24 167.33 148.40 167.16 147.52 C 166.99 146.65 166.14 146.08 165.27 146.25 L 164.28 146.45 C 163.40 146.62 162.84 147.47 163.01 148.34 C 163.18 149.21 164.02 149.78 164.90 149.61 Z M 165.88 149.41 L 166.86 149.22 C 167.73 149.05 168.30 148.21 168.13 147.34 C 167.96 146.47 167.12 145.90 166.25 146.07 L 165.27 146.26 C 164.40 146.43 163.84 147.27 164.01 148.14 C 164.18 149.01 165.02 149.58 165.88 149.41 Z M 166.86 149.21 L 167.84 149.02 C 168.70 148.85 169.27 148.02 169.10 147.15 C 168.93 146.29 168.10 145.72 167.23 145.89 L 166.25 146.08 C 165.39 146.24 164.82 147.08 164.99 147.95 C 165.15 148.81 165.99 149.38 166.86 149.21 Z M 167.83 149.02 L 168.82 148.83 C 169.68 148.66 170.25 147.83 170.08 146.97 C 169.92 146.10 169.08 145.54 168.22 145.70 L 167.24 145.89 C 166.37 146.06 165.81 146.89 165.97 147.75 C 166.14 148.62 166.97 149.18 167.83 149.02 Z M 168.81 148.82 L 169.80 148.64 C 170.66 148.47 171.22 147.64 171.06 146.78 C 170.90 145.92 170.07 145.36 169.21 145.52 L 168.22 145.71 C 167.36 145.87 166.80 146.70 166.96 147.56 C 167.12 148.42 167.95 148.99 168.81 148.82 Z M 169.79 148.63 L 170.78 148.45 C 171.64 148.29 172.20 147.46 172.04 146.60 C 171.88 145.75 171.06 145.18 170.20 145.34 L 169.21 145.53 C 168.36 145.69 167.79 146.51 167.95 147.37 C 168.11 148.23 168.94 148.79 169.79 148.63 Z M 170.78 148.44 L 171.76 148.26 C 172.61 148.10 173.18 147.28 173.02 146.43 C 172.86 145.57 172.04 145.01 171.19 145.17 L 170.20 145.35 C 169.35 145.51 168.79 146.33 168.94 147.18 C 169.10 148.03 169.92 148.60 170.78 148.44 Z M 171.75 148.26 L 172.75 148.07 C 173.61 147.92 174.17 147.10 174.02 146.25 C 173.86 145.40 173.04 144.83 172.19 144.99 L 171.19 145.17 C 170.34 145.32 169.78 146.14 169.93 146.99 C 170.09 147.85 170.90 148.41 171.75 148.26 Z M 172.75 148.07 L 173.75 147.90 C 174.60 147.74 175.17 146.93 175.01 146.08 C 174.86 145.23 174.05 144.66 173.19 144.81 L 172.20 144.99 C 171.35 145.14 170.78 145.95 170.93 146.81 C 171.08 147.66 171.90 148.23 172.75 148.07 Z M 173.74 147.89 L 174.73 147.72 C 175.58 147.57 176.15 146.76 176.01 145.91 C 175.86 145.06 175.04 144.49 174.19 144.64 L 173.20 144.81 C 172.35 144.96 171.78 145.77 171.93 146.62 C 172.08 147.47 172.89 148.04 173.74 147.89 Z M 174.73 147.72 L 175.71 147.55 C 176.56 147.41 177.14 146.60 176.99 145.75 C 176.84 144.89 176.04 144.32 175.18 144.47 L 174.20 144.64 C 173.35 144.78 172.77 145.59 172.92 146.44 C 173.07 147.29 173.87 147.87 174.73 147.72 Z M 175.71 147.55 L 176.68 147.39 C 177.53 147.25 178.11 146.44 177.97 145.59 C 177.83 144.74 177.02 144.16 176.17 144.31 L 175.19 144.47 C 174.34 144.61 173.76 145.42 173.91 146.27 C 174.05 147.12 174.85 147.69 175.71 147.55 Z M 176.68 147.39 L 177.64 147.23 C 178.50 147.10 179.07 146.29 178.94 145.44 C 178.80 144.59 178.00 144.01 177.15 144.15 L 176.18 144.31 C 175.32 144.44 174.75 145.25 174.88 146.10 C 175.02 146.95 175.82 147.53 176.68 147.39 Z M 177.64 147.23 L 178.63 147.08 C 179.48 146.94 180.07 146.15 179.93 145.29 C 179.80 144.44 179.00 143.86 178.15 143.99 L 177.15 144.15 C 176.30 144.28 175.72 145.08 175.85 145.93 C 175.98 146.78 176.78 147.37 177.64 147.23 Z M 178.62 147.08 L 179.63 146.93 C 180.48 146.80 181.07 146.00 180.94 145.15 C 180.81 144.30 180.01 143.71 179.16 143.84 L 178.16 143.99 C 177.31 144.12 176.72 144.91 176.85 145.77 C 176.98 146.62 177.77 147.21 178.62 147.08 Z M 179.62 146.93 L 180.61 146.78 C 181.47 146.66 182.06 145.87 181.93 145.01 C 181.81 144.16 181.02 143.57 180.16 143.69 L 179.17 143.84 C 178.32 143.96 177.73 144.76 177.85 145.61 C 177.97 146.46 178.77 147.05 179.62 146.93 Z M 180.61 146.79 L 181.59 146.65 C 182.45 146.53 183.04 145.74 182.92 144.88 C 182.80 144.03 182.01 143.44 181.16 143.56 L 180.17 143.69 C 179.32 143.81 178.72 144.60 178.84 145.46 C 178.96 146.31 179.75 146.91 180.61 146.79 Z M 181.59 146.65 L 182.56 146.51 C 183.42 146.40 184.02 145.61 183.90 144.76 C 183.78 143.90 183.00 143.31 182.14 143.42 L 181.16 143.55 C 180.31 143.67 179.71 144.46 179.83 145.31 C 179.94 146.17 180.73 146.76 181.59 146.65 Z M 182.56 146.52 L 183.53 146.39 C 184.39 146.27 184.99 145.49 184.88 144.64 C 184.76 143.78 183.98 143.18 183.12 143.29 L 182.15 143.42 C 181.30 143.53 180.69 144.32 180.81 145.17 C 180.92 146.03 181.70 146.63 182.56 146.52 Z M 183.53 146.39 L 184.52 146.26 C 185.38 146.15 185.98 145.37 185.87 144.51 C 185.76 143.66 184.98 143.05 184.12 143.16 L 183.13 143.29 C 182.27 143.40 181.67 144.18 181.78 145.04 C 181.89 145.89 182.67 146.50 183.53 146.39 Z M 184.52 146.26 L 185.51 146.14 C 186.37 146.03 186.98 145.25 186.87 144.39 C 186.76 143.54 185.98 142.93 185.12 143.03 L 184.13 143.16 C 183.27 143.27 182.66 144.05 182.77 144.91 C 182.88 145.76 183.66 146.37 184.52 146.26 Z M 185.51 146.14 L 186.50 146.02 C 187.36 145.92 187.97 145.13 187.87 144.28 C 187.76 143.42 186.98 142.80 186.12 142.91 L 185.13 143.03 C 184.27 143.14 183.66 143.92 183.76 144.78 C 183.87 145.64 184.65 146.25 185.51 146.14 Z M 186.50 146.03 L 187.49 145.91 C 188.35 145.80 188.97 145.02 188.86 144.16 C 188.76 143.30 187.97 142.68 187.11 142.79 L 186.12 142.91 C 185.26 143.01 184.65 143.79 184.75 144.65 C 184.86 145.52 185.64 146.13 186.50 146.03 Z M 187.49 145.91 L 188.48 145.79 C 189.34 145.69 189.96 144.90 189.85 144.04 C 189.75 143.18 188.97 142.56 188.10 142.67 L 187.11 142.78 C 186.25 142.89 185.64 143.67 185.74 144.53 C 185.84 145.40 186.63 146.01 187.49 145.91 Z M 188.48 145.79 L 189.22 145.70 C 190.09 145.60 190.71 144.82 190.60 143.95 C 190.50 143.09 189.72 142.47 188.85 142.57 L 188.10 142.66 C 187.24 142.77 186.62 143.55 186.73 144.41 C 186.83 145.28 187.61 145.90 188.48 145.79 Z"
      fill="black"
      fill-rule="nonzero" /></svg>