<svg xmlns="http://www.w3.org/2000/svg" width="300" height="300" viewBox="0 0 300 300">
<path d="M 145.53 113.92 L 145.29 114.93 C 145.08 115.82 145.63 116.70 146.52 116.91 C 147.40 117.12 148.29 116.57 148.49 115.68 L 148.73 114.66 C 148.94 113.78 148.39 112.89 147.50 112.69 C 146.62 112.48 145.74 113.03 145.53 113.92 Z M 145.27 114.93 L 145.04 115.94 C 144.83 116.84 145.39 117.73 146.28 117.94 C 147.18 118.15 148.07 117.59 148.28 116.69 L 148.51 115.68 C 148.72 114.79 148.16 113.90 147.27 113.69 C 146.37 113.48 145.48 114.04 145.27 114.93 Z M 145.02 115.95 L 144.80 116.94 C 144.59 117.85 145.15 118.75 146.06 118.95 C 146.96 119.16 147.86 118.59 148.07 117.69 L 148.29 116.69 C 148.50 115.79 147.93 114.89 147.03 114.68 C 146.13 114.48 145.23 115.04 145.02 115.95 Z M 144.78 116.95 L 144.56 117.93 C 144.36 118.84 144.93 119.74 145.85 119.95 C 146.76 120.15 147.66 119.57 147.87 118.66 L 148.08 117.68 C 148.29 116.77 147.71 115.87 146.80 115.66 C 145.88 115.46 144.98 116.04 144.78 116.95 Z M 144.54 117.94 L 144.34 118.88 C 144.14 119.81 144.73 120.72 145.65 120.91 C 146.58 121.11 147.48 120.52 147.68 119.60 L 147.89 118.65 C 148.08 117.73 147.49 116.82 146.57 116.62 C 145.65 116.42 144.74 117.01 144.54 117.94 Z M 144.32 118.90 L 144.13 119.81 C 143.94 120.75 144.55 121.66 145.48 121.85 C 146.41 122.04 147.33 121.43 147.52 120.50 L 147.70 119.59 C 147.89 118.65 147.29 117.74 146.35 117.55 C 145.42 117.36 144.51 117.96 144.32 118.90 Z M 144.12 119.84 L 143.94 120.77 C 143.76 121.72 144.38 122.62 145.33 122.80 C 146.27 122.98 147.18 122.36 147.35 121.42 L 147.53 120.48 C 147.71 119.54 147.09 118.63 146.15 118.45 C 145.20 118.27 144.30 118.89 144.12 119.84 Z M 143.93 120.81 L 143.78 121.73 C 143.62 122.68 144.26 123.58 145.20 123.74 C 146.15 123.90 147.05 123.26 147.21 122.31 L 147.36 121.38 C 147.52 120.44 146.88 119.54 145.94 119.38 C 144.99 119.22 144.09 119.86 143.93 120.81 Z M 143.77 121.77 L 143.63 122.71 C 143.49 123.66 144.16 124.55 145.11 124.68 C 146.06 124.82 146.95 124.16 147.08 123.21 L 147.22 122.27 C 147.36 121.32 146.69 120.43 145.74 120.30 C 144.79 120.16 143.90 120.82 143.77 121.77 Z M 143.62 122.75 L 143.51 123.73 C 143.39 124.69 144.08 125.56 145.03 125.67 C 145.99 125.78 146.86 125.10 146.98 124.14 L 147.09 123.16 C 147.21 122.21 146.52 121.34 145.56 121.22 C 144.61 121.11 143.74 121.79 143.62 122.75 Z M 143.50 123.77 L 143.40 124.82 C 143.31 125.78 144.01 126.64 144.98 126.73 C 145.94 126.82 146.79 126.11 146.88 125.15 L 146.98 124.10 C 147.07 123.14 146.37 122.28 145.41 122.19 C 144.44 122.10 143.59 122.81 143.50 123.77 Z M 143.39 124.85 L 143.31 125.94 C 143.24 126.90 143.96 127.74 144.93 127.82 C 145.90 127.89 146.74 127.16 146.81 126.20 L 146.89 125.12 C 146.96 124.15 146.24 123.31 145.27 123.24 C 144.31 123.17 143.46 123.89 143.39 124.85 Z M 143.31 125.96 L 143.25 126.90 C 143.19 127.87 143.93 128.70 144.90 128.76 C 145.87 128.81 146.70 128.08 146.76 127.11 L 146.81 126.17 C 146.87 125.21 146.13 124.37 145.17 124.32 C 144.20 124.26 143.37 124.99 143.31 125.96 Z M 143.25 126.92 L 143.20 127.90 C 143.15 128.87 143.90 129.70 144.87 129.74 C 145.83 129.79 146.66 129.05 146.71 128.08 L 146.76 127.09 C 146.81 126.12 146.06 125.30 145.09 125.25 C 144.12 125.20 143.30 125.95 143.25 126.92 Z M 143.20 127.92 L 143.16 128.94 C 143.11 129.91 143.87 130.73 144.84 130.77 C 145.81 130.81 146.62 130.06 146.67 129.09 L 146.71 128.07 C 146.75 127.10 146.00 126.28 145.03 126.24 C 144.06 126.19 143.24 126.95 143.20 127.92 Z M 143.15 128.95 L 143.12 129.99 C 143.08 130.96 143.84 131.77 144.81 131.81 C 145.78 131.84 146.59 131.08 146.63 130.11 L 146.67 129.08 C 146.70 128.11 145.94 127.29 144.97 127.26 C 144.00 127.22 143.19 127.98 143.15 128.95 Z M 143.11 130.00 L 143.08 131.04 C 143.05 132.01 143.82 132.82 144.79 132.85 C 145.76 132.88 146.57 132.11 146.60 131.14 L 146.63 130.10 C 146.66 129.13 145.90 128.32 144.93 128.29 C 143.96 128.26 143.14 129.03 143.11 130.00 Z M 143.08 131.04 L 143.06 132.07 C 143.03 133.04 143.80 133.85 144.77 133.87 C 145.74 133.90 146.55 133.13 146.57 132.16 L 146.60 131.13 C 146.63 130.16 145.86 129.35 144.89 129.33 C 143.91 129.30 143.11 130.07 143.08 131.04 Z M 143.05 132.07 L 143.03 133.06 C 143.01 134.03 143.78 134.84 144.75 134.86 C 145.73 134.88 146.53 134.11 146.55 133.14 L 146.58 132.15 C 146.60 131.18 145.83 130.37 144.85 130.35 C 143.88 130.33 143.08 131.10 143.05 132.07 Z M 143.03 133.07 L 143.01 134.16 C 143.00 135.13 143.77 135.93 144.74 135.95 C 145.72 135.97 146.52 135.19 146.54 134.22 L 146.55 133.13 C 146.57 132.16 145.80 131.36 144.82 131.34 C 143.85 131.32 143.05 132.10 143.03 133.07 Z M 143.01 134.16 L 143.00 135.25 C 142.99 136.22 143.76 137.02 144.74 137.03 C 145.71 137.04 146.51 136.27 146.52 135.29 L 146.54 134.21 C 146.55 133.24 145.77 132.44 144.80 132.43 C 143.82 132.41 143.03 133.19 143.01 134.16 Z M 143.00 135.25 L 142.99 136.27 C 142.98 137.25 143.76 138.04 144.74 138.05 C 145.71 138.06 146.50 137.28 146.51 136.31 L 146.52 135.28 C 146.53 134.31 145.75 133.52 144.78 133.51 C 143.80 133.50 143.01 134.28 143.00 135.25 Z M 142.99 136.28 L 142.99 137.25 C 142.98 138.23 143.76 139.02 144.74 139.02 C 145.71 139.03 146.50 138.24 146.51 137.27 L 146.51 136.30 C 146.52 135.33 145.73 134.53 144.76 134.53 C 143.79 134.52 143.00 135.31 142.99 136.28 Z M 142.99 137.26 L 142.98 138.20 C 142.98 139.17 143.77 139.96 144.74 139.96 C 145.71 139.96 146.50 139.18 146.50 138.21 L 146.51 137.27 C 146.51 136.29 145.72 135.50 144.75 135.50 C 143.78 135.50 142.99 136.29 142.99 137.26 Z M 142.98 138.20 L 142.98 139.12 C 142.98 140.09 143.77 140.88 144.74 140.88 C 145.71 140.88 146.50 140.09 146.50 139.12 L 146.50 138.20 C 146.50 137.23 145.72 136.44 144.74 136.44 C 143.77 136.44 142.98 137.23 142.98 138.20 Z M 142.98 139.12 L 142.99 140.08 C 142.99 141.05 143.77 141.84 144.74 141.84 C 145.71 141.84 146.50 141.05 146.50 140.08 L 146.50 139.12 C 146.50 138.15 145.71 137.36 144.74 137.36 C 143.77 137.36 142.98 138.15 142.98 139.12 Z M 142.99 140.08 L 142.99 141.08 C 142.99 142.05 143.78 142.83 144.75 142.83 C 145.72 142.83 146.50 142.04 146.50 141.07 L 146.50 140.08 C 146.50 139.11 145.71 138.33 144.74 138.33 C 143.77 138.33 142.99 139.12 142.99 140.08 Z M 143.00 141.08 L 143.00 142.08 C 143.01 143.04 143.79 143.82 144.76 143.82 C 145.72 143.81 146.50 143.03 146.50 142.06 L 146.49 141.07 C 146.49 140.10 145.70 139.32 144.74 139.33 C 143.77 139.33 142.99 140.12 143.00 141.08 Z M 143.01 142.09 L 143.02 143.09 C 143.03 144.05 143.82 144.82 144.78 144.81 C 145.74 144.80 146.51 144.01 146.50 143.05 L 146.49 142.05 C 146.48 141.09 145.69 140.32 144.73 140.33 C 143.77 140.34 143.00 141.13 143.01 142.09 Z M 143.02 143.10 L 143.04 144.11 C 143.06 145.07 143.85 145.83 144.81 145.81 C 145.77 145.79 146.54 145.00 146.52 144.04 L 146.50 143.04 C 146.48 142.08 145.69 141.31 144.73 141.33 C 143.77 141.35 143.00 142.14 143.02 143.10 Z M 143.05 144.12 L 143.08 145.13 C 143.10 146.09 143.90 146.85 144.86 146.82 C 145.82 146.79 146.57 145.99 146.54 145.03 L 146.51 144.02 C 146.48 143.07 145.69 142.31 144.73 142.34 C 143.77 142.37 143.02 143.17 143.05 144.12 Z M 143.08 145.15 L 143.12 146.17 C 143.16 147.13 143.97 147.87 144.92 147.83 C 145.87 147.79 146.61 146.99 146.58 146.03 L 146.53 145.01 C 146.50 144.06 145.69 143.32 144.74 143.36 C 143.79 143.40 143.04 144.20 143.08 145.15 Z M 143.13 146.19 L 143.19 147.21 C 143.24 148.16 144.04 148.89 144.99 148.84 C 145.94 148.79 146.67 147.98 146.62 147.04 L 146.57 146.02 C 146.52 145.07 145.71 144.34 144.76 144.39 C 143.81 144.44 143.08 145.25 143.13 146.19 Z M 143.20 147.23 L 143.26 148.25 C 143.32 149.19 144.13 149.91 145.08 149.85 C 146.02 149.79 146.74 148.97 146.68 148.03 L 146.61 147.02 C 146.55 146.07 145.74 145.36 144.79 145.42 C 143.85 145.48 143.14 146.29 143.20 147.23 Z M 143.27 148.27 L 143.34 149.26 C 143.41 150.20 144.23 150.90 145.17 150.83 C 146.11 150.76 146.81 149.94 146.74 149.01 L 146.67 148.01 C 146.60 147.07 145.78 146.37 144.84 146.44 C 143.90 146.51 143.20 147.33 143.27 148.27 Z M 143.35 149.28 L 143.44 150.25 C 143.52 151.19 144.34 151.88 145.27 151.80 C 146.21 151.71 146.90 150.89 146.82 149.96 L 146.73 148.99 C 146.65 148.05 145.83 147.36 144.90 147.44 C 143.96 147.53 143.27 148.35 143.35 149.28 Z M 143.45 150.27 L 143.55 151.27 C 143.64 152.19 144.47 152.87 145.39 152.78 C 146.32 152.69 147.00 151.86 146.91 150.93 L 146.81 149.94 C 146.71 149.01 145.89 148.33 144.96 148.43 C 144.03 148.52 143.35 149.35 143.45 150.27 Z M 143.56 151.29 L 143.68 152.33 C 143.78 153.25 144.61 153.92 145.53 153.81 C 146.46 153.71 147.12 152.87 147.01 151.95 L 146.90 150.91 C 146.79 149.99 145.96 149.32 145.04 149.43 C 144.11 149.53 143.45 150.37 143.56 151.29 Z M 143.69 152.35 L 143.81 153.35 C 143.93 154.27 144.76 154.92 145.68 154.80 C 146.60 154.69 147.25 153.85 147.13 152.93 L 147.00 151.93 C 146.89 151.02 146.05 150.37 145.14 150.48 C 144.22 150.60 143.57 151.43 143.69 152.35 Z M 143.82 153.37 L 143.96 154.34 C 144.08 155.25 144.92 155.89 145.83 155.76 C 146.74 155.64 147.38 154.80 147.25 153.89 L 147.12 152.92 C 147.00 152.01 146.16 151.37 145.25 151.50 C 144.34 151.62 143.70 152.46 143.82 153.37 Z M 143.97 154.35 L 144.10 155.30 C 144.23 156.20 145.07 156.83 145.97 156.70 C 146.88 156.57 147.51 155.73 147.38 154.83 L 147.24 153.88 C 147.11 152.98 146.27 152.35 145.37 152.48 C 144.46 152.61 143.84 153.44 143.97 154.35 Z M 144.11 155.30 L 144.25 156.28 C 144.39 157.18 145.22 157.81 146.12 157.67 C 147.02 157.54 147.65 156.70 147.51 155.80 L 147.37 154.82 C 147.24 153.92 146.40 153.30 145.50 153.43 C 144.60 153.56 143.98 154.40 144.11 155.30 Z M 144.26 156.28 L 144.41 157.29 C 144.54 158.19 145.37 158.81 146.27 158.68 C 147.17 158.55 147.79 157.71 147.66 156.81 L 147.51 155.80 C 147.38 154.90 146.54 154.28 145.64 154.42 C 144.75 154.55 144.12 155.38 144.26 156.28 Z M 144.41 157.29 L 144.55 158.28 C 144.68 159.18 145.51 159.80 146.41 159.67 C 147.31 159.54 147.93 158.71 147.80 157.81 L 147.66 156.82 C 147.53 155.92 146.69 155.30 145.80 155.43 C 144.90 155.56 144.28 156.39 144.41 157.29 Z M 144.55 158.27 L 144.69 159.25 C 144.81 160.15 145.64 160.77 146.54 160.65 C 147.44 160.52 148.06 159.69 147.94 158.80 L 147.80 157.82 C 147.68 156.92 146.85 156.30 145.95 156.42 C 145.05 156.55 144.43 157.38 144.55 158.27 Z M 144.69 159.24 L 144.82 160.20 C 144.93 161.10 145.76 161.73 146.65 161.61 C 147.55 161.50 148.18 160.68 148.06 159.78 L 147.94 158.81 C 147.82 157.91 147.00 157.28 146.10 157.40 C 145.20 157.52 144.57 158.34 144.69 159.24 Z M 144.81 160.19 L 144.94 161.20 C 145.04 162.10 145.86 162.74 146.76 162.63 C 147.65 162.52 148.29 161.71 148.19 160.81 L 148.06 159.80 C 147.96 158.90 147.14 158.26 146.25 158.37 C 145.35 158.47 144.71 159.29 144.81 160.19 Z M 144.93 161.18 L 145.04 162.18 C 145.14 163.08 145.95 163.73 146.85 163.63 C 147.75 163.53 148.40 162.72 148.30 161.82 L 148.19 160.82 C 148.09 159.93 147.28 159.28 146.38 159.38 C 145.48 159.48 144.83 160.28 144.93 161.18 Z M 145.04 162.17 L 145.14 163.15 C 145.24 164.05 146.04 164.70 146.94 164.61 C 147.84 164.52 148.49 163.71 148.40 162.81 L 148.30 161.83 C 148.21 160.93 147.40 160.28 146.50 160.37 C 145.60 160.46 144.95 161.27 145.04 162.17 Z M 145.14 163.15 L 145.24 164.07 C 145.33 164.97 146.13 165.62 147.03 165.53 C 147.93 165.44 148.58 164.64 148.49 163.74 L 148.40 162.82 C 148.31 161.92 147.51 161.26 146.61 161.35 C 145.71 161.45 145.05 162.25 145.14 163.15 Z"
      fill="black"
      fill-rule="nonzero" /><path d="M 149.08 130.91 L 148.94 129.85 C 148.81 128.92 147.96 128.27 147.03 128.39 C 146.10 128.51 145.45 129.37 145.57 130.30 L 145.71 131.36 C 145.84 132.29 146.69 132.95 147.62 132.82 C 148.55 132.70 149.20 131.84 149.08 130.91 Z M 148.98 130.00 L 148.93 128.99 C 148.89 128.04 148.09 127.30 147.14 127.34 C 146.19 127.38 145.45 128.18 145.49 129.13 L 145.53 130.15 C 145.57 131.10 146.37 131.84 147.33 131.80 C 148.28 131.76 149.02 130.95 148.98 130.00 Z M 148.94 129.35 L 149.09 128.44 C 149.26 127.49 148.62 126.58 147.66 126.42 C 146.71 126.26 145.81 126.89 145.64 127.85 L 145.49 128.76 C 145.32 129.71 145.96 130.62 146.91 130.78 C 147.87 130.95 148.77 130.31 148.94 129.35 Z M 148.90 129.02 L 149.33 128.28 C 149.82 127.43 149.52 126.35 148.68 125.87 C 147.83 125.38 146.75 125.67 146.26 126.52 L 145.84 127.26 C 145.35 128.11 145.64 129.19 146.49 129.68 C 147.34 130.16 148.42 129.87 148.90 129.02 Z M 148.97 128.72 L 149.66 128.11 C 150.39 127.46 150.46 126.34 149.80 125.61 C 149.15 124.88 148.03 124.81 147.30 125.46 L 146.62 126.07 C 145.89 126.73 145.82 127.85 146.47 128.58 C 147.12 129.31 148.24 129.37 148.97 128.72 Z M 149.39 128.31 L 150.28 127.78 C 151.12 127.28 151.40 126.19 150.90 125.35 C 150.40 124.51 149.31 124.23 148.47 124.73 L 147.57 125.26 C 146.73 125.76 146.46 126.85 146.96 127.69 C 147.46 128.54 148.54 128.81 149.39 128.31 Z M 150.13 127.86 L 151.14 127.38 C 152.03 126.96 152.41 125.91 151.99 125.02 C 151.57 124.14 150.51 123.76 149.63 124.18 L 148.62 124.66 C 147.73 125.07 147.35 126.13 147.77 127.02 C 148.19 127.90 149.25 128.28 150.13 127.86 Z M 151.08 127.41 L 151.97 127.03 C 152.87 126.64 153.29 125.60 152.90 124.70 C 152.52 123.80 151.48 123.39 150.58 123.77 L 149.69 124.15 C 148.79 124.54 148.37 125.58 148.76 126.48 C 149.14 127.37 150.18 127.79 151.08 127.41 Z M 151.93 127.04 L 152.86 126.67 C 153.77 126.31 154.21 125.28 153.85 124.38 C 153.49 123.47 152.46 123.03 151.56 123.39 L 150.62 123.76 C 149.72 124.12 149.27 125.14 149.63 126.05 C 149.99 126.96 151.02 127.40 151.93 127.04 Z M 152.81 126.68 L 153.77 126.33 C 154.69 126.00 155.15 124.98 154.82 124.07 C 154.48 123.16 153.47 122.69 152.56 123.02 L 151.60 123.38 C 150.69 123.71 150.22 124.72 150.55 125.64 C 150.89 126.55 151.90 127.02 152.81 126.68 Z M 153.73 126.34 L 154.69 126.02 C 155.61 125.71 156.10 124.71 155.79 123.79 C 155.48 122.87 154.49 122.38 153.57 122.69 L 152.61 123.01 C 151.69 123.32 151.19 124.32 151.50 125.24 C 151.81 126.16 152.81 126.65 153.73 126.34 Z M 154.64 126.03 L 155.61 125.73 C 156.53 125.45 157.05 124.48 156.77 123.55 C 156.49 122.63 155.52 122.11 154.59 122.39 L 153.62 122.68 C 152.70 122.96 152.18 123.94 152.46 124.86 C 152.74 125.78 153.71 126.31 154.64 126.03 Z M 155.55 125.73 L 156.52 125.47 C 157.44 125.22 157.99 124.27 157.74 123.35 C 157.49 122.42 156.54 121.88 155.61 122.12 L 154.65 122.38 C 153.72 122.63 153.17 123.58 153.42 124.51 C 153.67 125.43 154.62 125.98 155.55 125.73 Z M 156.46 125.47 L 157.43 125.24 C 158.35 125.02 158.92 124.10 158.70 123.17 C 158.48 122.25 157.55 121.68 156.63 121.90 L 155.67 122.13 C 154.74 122.35 154.17 123.27 154.39 124.20 C 154.61 125.12 155.54 125.69 156.46 125.47 Z M 157.38 125.24 L 158.35 125.03 C 159.27 124.84 159.86 123.94 159.67 123.02 C 159.47 122.10 158.57 121.51 157.65 121.70 L 156.68 121.90 C 155.76 122.10 155.17 123.00 155.36 123.92 C 155.56 124.84 156.46 125.43 157.38 125.24 Z M 158.31 125.03 L 159.29 124.84 C 160.21 124.67 160.81 123.79 160.64 122.87 C 160.47 121.95 159.59 121.35 158.67 121.52 L 157.69 121.71 C 156.77 121.88 156.17 122.76 156.34 123.68 C 156.51 124.59 157.39 125.20 158.31 125.03 Z M 159.26 124.84 L 160.23 124.67 C 161.14 124.52 161.76 123.65 161.60 122.74 C 161.45 121.83 160.58 121.21 159.67 121.37 L 158.70 121.53 C 157.79 121.68 157.17 122.55 157.33 123.46 C 157.48 124.37 158.35 124.99 159.26 124.84 Z M 160.20 124.67 L 161.18 124.52 C 162.09 124.39 162.72 123.54 162.59 122.63 C 162.45 121.71 161.60 121.08 160.69 121.22 L 159.70 121.37 C 158.79 121.50 158.16 122.35 158.30 123.27 C 158.43 124.18 159.28 124.81 160.20 124.67 Z M 161.15 124.52 L 162.15 124.39 C 163.06 124.27 163.70 123.44 163.58 122.53 C 163.47 121.62 162.63 120.98 161.72 121.10 L 160.72 121.22 C 159.81 121.34 159.17 122.17 159.29 123.08 C 159.41 123.99 160.24 124.64 161.15 124.52 Z M 162.11 124.39 L 163.12 124.28 C 164.03 124.18 164.68 123.37 164.59 122.46 C 164.49 121.55 163.68 120.90 162.77 120.99 L 161.76 121.10 C 160.85 121.20 160.20 122.01 160.29 122.92 C 160.39 123.83 161.20 124.48 162.11 124.39 Z M 163.08 124.28 L 164.10 124.19 C 165.01 124.12 165.68 123.32 165.61 122.42 C 165.53 121.51 164.74 120.84 163.83 120.91 L 162.81 120.99 C 161.90 121.07 161.23 121.86 161.30 122.77 C 161.38 123.68 162.17 124.35 163.08 124.28 Z M 164.06 124.19 L 165.08 124.13 C 165.99 124.08 166.68 123.30 166.63 122.39 C 166.58 121.49 165.80 120.80 164.89 120.85 L 163.87 120.91 C 162.96 120.96 162.27 121.74 162.32 122.65 C 162.38 123.56 163.16 124.25 164.06 124.19 Z M 165.05 124.13 L 166.06 124.09 C 166.97 124.06 167.67 123.29 167.64 122.39 C 167.60 121.48 166.84 120.78 165.93 120.81 L 164.92 120.85 C 164.02 120.89 163.31 121.65 163.35 122.56 C 163.38 123.46 164.15 124.17 165.05 124.13 Z M 166.03 124.09 L 167.02 124.07 C 167.92 124.05 168.64 123.30 168.62 122.40 C 168.60 121.49 167.85 120.77 166.95 120.79 L 165.96 120.81 C 165.06 120.83 164.34 121.58 164.36 122.49 C 164.38 123.39 165.12 124.11 166.03 124.09 Z M 166.99 124.07 L 167.96 124.06 C 168.86 124.06 169.59 123.32 169.59 122.42 C 169.58 121.51 168.85 120.78 167.94 120.79 L 166.97 120.79 C 166.07 120.80 165.34 121.54 165.34 122.44 C 165.35 123.35 166.09 124.07 166.99 124.07 Z M 167.94 124.06 L 168.97 124.07 C 169.88 124.08 170.62 123.36 170.63 122.45 C 170.63 121.55 169.91 120.81 169.00 120.80 L 167.97 120.79 C 167.06 120.78 166.32 121.51 166.31 122.41 C 166.31 123.32 167.03 124.06 167.94 124.06 Z M 168.95 124.07 L 169.96 124.09 C 170.86 124.11 171.61 123.40 171.63 122.49 C 171.65 121.59 170.93 120.84 170.03 120.82 L 169.02 120.80 C 168.12 120.78 167.37 121.50 167.35 122.40 C 167.33 123.30 168.05 124.05 168.95 124.07 Z M 169.94 124.09 L 170.92 124.12 C 171.82 124.15 172.58 123.44 172.61 122.54 C 172.63 121.63 171.92 120.88 171.02 120.85 L 170.04 120.82 C 169.14 120.79 168.38 121.51 168.35 122.41 C 168.33 123.31 169.04 124.07 169.94 124.09 Z M 170.91 124.12 L 171.74 124.15 C 172.65 124.18 173.40 123.47 173.43 122.57 C 173.46 121.67 172.76 120.91 171.85 120.88 L 171.02 120.85 C 170.12 120.82 169.36 121.53 169.33 122.43 C 169.30 123.33 170.01 124.09 170.91 124.12 Z"
      fill="black"
      fill-rule="nonzero" /><path d="M 118.33 185.40 L 119.37 185.33 C 120.39 185.27 121.17 184.39 121.11 183.37 C 121.05 182.34 120.17 181.56 119.14 181.62 L 118.11 181.68 C 117.08 181.74 116.30 182.63 116.36 183.65 C 116.42 184.68 117.31 185.46 118.33 185.40 Z M 119.38 185.34 L 120.40 185.27 C 121.43 185.20 122.21 184.31 122.14 183.28 C 122.07 182.25 121.18 181.47 120.15 181.54 L 119.13 181.61 C 118.10 181.68 117.32 182.58 117.39 183.61 C 117.46 184.63 118.35 185.41 119.38 185.34 Z M 120.44 185.27 L 121.43 185.19 C 122.46 185.10 123.23 184.19 123.14 183.16 C 123.05 182.13 122.14 181.36 121.11 181.45 L 120.11 181.54 C 119.08 181.63 118.32 182.54 118.41 183.57 C 118.50 184.60 119.41 185.36 120.44 185.27 Z M 121.49 185.19 L 122.44 185.08 C 123.48 184.96 124.22 184.03 124.10 182.99 C 123.98 181.96 123.04 181.22 122.01 181.34 L 121.05 181.45 C 120.02 181.57 119.28 182.50 119.40 183.54 C 119.52 184.57 120.45 185.31 121.49 185.19 Z M 122.52 185.07 L 123.50 184.92 C 124.53 184.76 125.24 183.79 125.07 182.76 C 124.91 181.73 123.94 181.03 122.91 181.19 L 121.93 181.35 C 120.90 181.51 120.20 182.48 120.36 183.51 C 120.53 184.54 121.49 185.24 122.52 185.07 Z M 123.59 184.91 L 124.56 184.71 C 125.59 184.50 126.24 183.50 126.03 182.47 C 125.82 181.45 124.82 180.79 123.80 181.00 L 122.83 181.20 C 121.81 181.41 121.15 182.41 121.36 183.43 C 121.57 184.46 122.57 185.12 123.59 184.91 Z M 124.62 184.69 L 125.58 184.47 C 126.60 184.22 127.22 183.20 126.98 182.18 C 126.73 181.17 125.71 180.54 124.70 180.78 L 123.74 181.01 C 122.72 181.26 122.10 182.28 122.34 183.30 C 122.59 184.31 123.61 184.94 124.62 184.69 Z M 125.61 184.46 L 126.58 184.21 C 127.59 183.95 128.20 182.92 127.94 181.90 C 127.68 180.89 126.65 180.28 125.64 180.54 L 124.67 180.79 C 123.65 181.05 123.04 182.08 123.30 183.10 C 123.56 184.11 124.60 184.72 125.61 184.46 Z M 126.58 184.21 L 127.49 183.98 C 128.51 183.72 129.12 182.68 128.86 181.67 C 128.60 180.65 127.56 180.04 126.55 180.30 L 125.63 180.54 C 124.62 180.80 124.01 181.84 124.27 182.85 C 124.53 183.86 125.57 184.47 126.58 184.21 Z M 127.49 183.98 L 128.42 183.74 C 129.44 183.48 130.05 182.45 129.79 181.43 C 129.53 180.41 128.50 179.80 127.48 180.06 L 126.55 180.30 C 125.53 180.56 124.92 181.60 125.18 182.61 C 125.44 183.63 126.48 184.24 127.49 183.98 Z M 128.43 183.74 L 129.40 183.49 C 130.41 183.23 131.03 182.19 130.76 181.18 C 130.50 180.16 129.46 179.55 128.45 179.81 L 127.48 180.06 C 126.46 180.33 125.85 181.36 126.11 182.38 C 126.37 183.39 127.41 184.00 128.43 183.74 Z M 129.41 183.49 L 130.42 183.22 C 131.44 182.95 132.04 181.92 131.78 180.90 C 131.51 179.88 130.47 179.28 129.45 179.55 L 128.44 179.81 C 127.42 180.08 126.82 181.12 127.09 182.13 C 127.35 183.15 128.39 183.76 129.41 183.49 Z M 130.43 183.22 L 131.42 182.95 C 132.43 182.68 133.03 181.64 132.76 180.62 C 132.48 179.61 131.44 179.01 130.42 179.28 L 129.44 179.55 C 128.43 179.82 127.83 180.87 128.10 181.88 C 128.37 182.89 129.42 183.49 130.43 183.22 Z M 131.43 182.95 L 132.34 182.70 C 133.35 182.42 133.95 181.37 133.67 180.36 C 133.38 179.34 132.34 178.75 131.32 179.03 L 130.41 179.28 C 129.40 179.57 128.80 180.61 129.09 181.63 C 129.37 182.64 130.42 183.23 131.43 182.95 Z M 132.35 182.70 L 133.29 182.43 C 134.30 182.14 134.89 181.09 134.60 180.08 C 134.32 179.07 133.27 178.48 132.25 178.77 L 131.31 179.03 C 130.30 179.32 129.71 180.37 130.00 181.38 C 130.29 182.40 131.34 182.98 132.35 182.70 Z M 133.30 182.43 L 134.27 182.15 C 135.28 181.86 135.86 180.80 135.57 179.79 C 135.28 178.78 134.23 178.20 133.22 178.49 L 132.25 178.77 C 131.24 179.06 130.65 180.11 130.94 181.12 C 131.23 182.13 132.29 182.72 133.30 182.43 Z M 134.27 182.15 L 135.27 181.86 C 136.28 181.57 136.86 180.51 136.57 179.50 C 136.28 178.49 135.22 177.91 134.21 178.20 L 133.21 178.49 C 132.20 178.78 131.62 179.84 131.91 180.85 C 132.21 181.86 133.26 182.44 134.27 182.15 Z M 135.28 181.86 L 136.28 181.56 C 137.29 181.27 137.87 180.21 137.58 179.20 C 137.28 178.19 136.22 177.61 135.21 177.91 L 134.21 178.20 C 133.20 178.50 132.62 179.55 132.91 180.56 C 133.21 181.57 134.27 182.15 135.28 181.86 Z M 136.28 181.56 L 137.20 181.29 C 138.21 181.00 138.79 179.94 138.49 178.93 C 138.20 177.92 137.14 177.34 136.13 177.64 L 135.21 177.91 C 134.20 178.20 133.62 179.26 133.92 180.27 C 134.22 181.28 135.27 181.86 136.28 181.56 Z M 137.20 181.29 L 138.14 181.02 C 139.15 180.72 139.73 179.66 139.43 178.65 C 139.13 177.64 138.07 177.07 137.07 177.36 L 136.13 177.64 C 135.12 177.94 134.54 179.00 134.84 180.00 C 135.14 181.01 136.19 181.59 137.20 181.29 Z M 138.14 181.01 L 139.10 180.73 C 140.11 180.44 140.68 179.38 140.38 178.37 C 140.09 177.36 139.03 176.79 138.02 177.08 L 137.07 177.37 C 136.06 177.66 135.48 178.72 135.78 179.73 C 136.08 180.74 137.13 181.31 138.14 181.01 Z M 139.10 180.73 L 140.07 180.44 C 141.08 180.15 141.65 179.09 141.36 178.08 C 141.06 177.07 140.00 176.50 138.99 176.80 L 138.02 177.08 C 137.01 177.38 136.44 178.44 136.74 179.45 C 137.03 180.45 138.09 181.03 139.10 180.73 Z M 140.07 180.44 L 141.06 180.15 C 142.06 179.85 142.64 178.80 142.34 177.79 C 142.04 176.78 140.99 176.21 139.98 176.51 L 138.99 176.80 C 137.99 177.10 137.41 178.15 137.71 179.16 C 138.01 180.17 139.07 180.74 140.07 180.44 Z M 141.06 180.15 L 142.04 179.86 C 143.05 179.56 143.62 178.50 143.32 177.50 C 143.03 176.49 141.97 175.92 140.96 176.22 L 139.98 176.51 C 138.97 176.81 138.40 177.86 138.70 178.87 C 139.00 179.87 140.05 180.45 141.06 180.15 Z M 142.04 179.86 L 142.96 179.58 C 143.97 179.28 144.54 178.23 144.24 177.22 C 143.94 176.22 142.89 175.65 141.88 175.94 L 140.96 176.22 C 139.96 176.52 139.39 177.57 139.68 178.58 C 139.98 179.58 141.04 180.15 142.04 179.86 Z M 142.97 179.58 L 143.90 179.30 C 144.90 179.00 145.47 177.95 145.17 176.94 C 144.87 175.94 143.82 175.37 142.81 175.67 L 141.88 175.95 C 140.88 176.24 140.31 177.30 140.61 178.30 C 140.91 179.31 141.96 179.88 142.97 179.58 Z M 143.90 179.30 L 144.84 179.02 C 145.85 178.72 146.42 177.66 146.12 176.66 C 145.82 175.66 144.76 175.09 143.76 175.39 L 142.81 175.67 C 141.81 175.97 141.24 177.03 141.54 178.03 C 141.84 179.03 142.90 179.60 143.90 179.30 Z M 144.85 179.02 L 145.81 178.73 C 146.81 178.43 147.38 177.37 147.07 176.37 C 146.77 175.37 145.72 174.80 144.72 175.10 L 143.76 175.39 C 142.75 175.69 142.19 176.75 142.49 177.75 C 142.79 178.75 143.84 179.32 144.85 179.02 Z M 145.81 178.72 L 146.79 178.43 C 147.79 178.13 148.35 177.07 148.05 176.07 C 147.75 175.07 146.69 174.50 145.69 174.81 L 144.71 175.10 C 143.71 175.41 143.15 176.46 143.45 177.46 C 143.75 178.46 144.81 179.03 145.81 178.72 Z M 146.79 178.43 L 147.78 178.12 C 148.78 177.82 149.35 176.76 149.04 175.76 C 148.74 174.77 147.68 174.20 146.68 174.51 L 145.69 174.81 C 144.69 175.11 144.12 176.17 144.43 177.17 C 144.73 178.17 145.79 178.73 146.79 178.43 Z M 147.79 178.12 L 148.75 177.82 C 149.75 177.52 150.31 176.46 150.00 175.46 C 149.70 174.47 148.64 173.91 147.64 174.21 L 146.68 174.51 C 145.68 174.82 145.12 175.87 145.43 176.87 C 145.73 177.87 146.79 178.43 147.79 178.12 Z M 148.75 177.82 L 149.70 177.53 C 150.69 177.22 151.25 176.17 150.94 175.17 C 150.63 174.18 149.58 173.62 148.58 173.93 L 147.64 174.22 C 146.65 174.52 146.09 175.58 146.40 176.57 C 146.70 177.57 147.76 178.13 148.75 177.82 Z M 149.70 177.52 L 150.65 177.23 C 151.64 176.92 152.20 175.87 151.89 174.88 C 151.58 173.88 150.53 173.33 149.54 173.64 L 148.58 173.93 C 147.59 174.24 147.04 175.29 147.34 176.28 C 147.65 177.28 148.70 177.83 149.70 177.52 Z M 150.65 177.22 L 151.61 176.93 C 152.60 176.62 153.15 175.57 152.85 174.58 C 152.54 173.59 151.49 173.04 150.50 173.34 L 149.54 173.64 C 148.55 173.95 148.00 175.00 148.30 175.99 C 148.61 176.98 149.66 177.53 150.65 177.22 Z M 151.61 176.92 L 152.57 176.63 C 153.56 176.32 154.11 175.27 153.81 174.29 C 153.51 173.30 152.46 172.74 151.47 173.05 L 150.50 173.35 C 149.52 173.65 148.96 174.70 149.27 175.69 C 149.57 176.67 150.62 177.23 151.61 176.92 Z M 152.57 176.62 L 153.53 176.33 C 154.52 176.03 155.07 174.98 154.77 173.99 C 154.47 173.01 153.43 172.45 152.44 172.76 L 151.47 173.05 C 150.49 173.35 149.93 174.40 150.23 175.38 C 150.54 176.37 151.58 176.93 152.57 176.62 Z M 153.53 176.33 L 154.49 176.03 C 155.47 175.73 156.03 174.69 155.73 173.71 C 155.43 172.72 154.39 172.17 153.41 172.47 L 152.45 172.76 C 151.46 173.06 150.90 174.10 151.20 175.08 C 151.50 176.07 152.54 176.62 153.53 176.33 Z M 154.48 176.03 L 155.44 175.74 C 156.43 175.45 156.99 174.41 156.69 173.43 C 156.40 172.45 155.36 171.89 154.38 172.18 L 153.42 172.47 C 152.43 172.76 151.87 173.80 152.17 174.78 C 152.46 175.77 153.50 176.33 154.48 176.03 Z M 155.43 175.74 L 156.40 175.46 C 157.39 175.17 157.95 174.14 157.66 173.15 C 157.37 172.17 156.34 171.61 155.36 171.90 L 154.39 172.18 C 153.40 172.47 152.84 173.50 153.13 174.49 C 153.42 175.47 154.45 176.03 155.43 175.74 Z M 156.40 175.45 L 157.36 175.18 C 158.34 174.89 158.91 173.86 158.62 172.88 C 158.34 171.90 157.31 171.34 156.33 171.62 L 155.37 171.90 C 154.38 172.18 153.82 173.21 154.10 174.19 C 154.39 175.17 155.41 175.74 156.40 175.45 Z M 157.35 175.17 L 158.31 174.90 C 159.29 174.62 159.86 173.60 159.58 172.62 C 159.30 171.64 158.28 171.07 157.30 171.35 L 156.34 171.62 C 155.36 171.90 154.79 172.92 155.07 173.90 C 155.35 174.88 156.37 175.45 157.35 175.17 Z M 158.30 174.90 L 159.26 174.63 C 160.24 174.35 160.81 173.33 160.53 172.36 C 160.26 171.38 159.24 170.81 158.26 171.08 L 157.30 171.35 C 156.32 171.63 155.75 172.64 156.03 173.62 C 156.31 174.60 157.32 175.17 158.30 174.90 Z M 159.25 174.62 L 160.21 174.36 C 161.19 174.09 161.76 173.07 161.49 172.10 C 161.21 171.12 160.20 170.55 159.22 170.82 L 158.27 171.09 C 157.29 171.36 156.72 172.37 156.99 173.35 C 157.26 174.32 158.27 174.90 159.25 174.62 Z M 160.20 174.36 L 161.16 174.09 C 162.14 173.82 162.71 172.81 162.44 171.84 C 162.17 170.86 161.17 170.29 160.19 170.56 L 159.23 170.82 C 158.25 171.09 157.68 172.10 157.95 173.07 C 158.22 174.05 159.23 174.62 160.20 174.36 Z M 161.16 174.09 L 162.12 173.83 C 163.09 173.56 163.67 172.56 163.40 171.58 C 163.14 170.61 162.13 170.03 161.16 170.30 L 160.20 170.56 C 159.22 170.83 158.65 171.83 158.91 172.80 C 159.18 173.78 160.18 174.35 161.16 174.09 Z M 162.11 173.82 L 163.06 173.56 C 164.04 173.30 164.61 172.30 164.35 171.33 C 164.08 170.36 163.08 169.78 162.11 170.05 L 161.16 170.30 C 160.19 170.57 159.62 171.57 159.88 172.54 C 160.14 173.51 161.14 174.08 162.11 173.82 Z M 163.06 173.56 L 164.02 173.30 C 164.99 173.04 165.56 172.05 165.30 171.08 C 165.04 170.11 164.05 169.54 163.08 169.80 L 162.12 170.05 C 161.15 170.31 160.58 171.31 160.83 172.28 C 161.09 173.24 162.09 173.82 163.06 173.56 Z M 164.01 173.30 L 164.97 173.04 C 165.94 172.79 166.52 171.80 166.26 170.83 C 166.00 169.86 165.01 169.29 164.05 169.54 L 163.08 169.80 C 162.12 170.06 161.54 171.05 161.80 172.01 C 162.05 172.98 163.04 173.55 164.01 173.30 Z M 164.97 173.04 L 165.94 172.78 C 166.90 172.53 167.48 171.54 167.22 170.58 C 166.97 169.62 165.99 169.04 165.02 169.29 L 164.05 169.55 C 163.09 169.80 162.51 170.79 162.77 171.75 C 163.02 172.71 164.01 173.29 164.97 173.04 Z M 165.93 172.78 L 166.91 172.52 C 167.87 172.28 168.44 171.29 168.19 170.33 C 167.94 169.37 166.96 168.80 166.00 169.05 L 165.03 169.30 C 164.07 169.55 163.49 170.53 163.74 171.49 C 163.99 172.45 164.97 173.03 165.93 172.78 Z M 166.90 172.52 L 167.88 172.27 C 168.84 172.02 169.41 171.05 169.17 170.09 C 168.92 169.13 167.94 168.55 166.99 168.80 L 166.01 169.05 C 165.05 169.30 164.47 170.27 164.72 171.23 C 164.97 172.19 165.94 172.77 166.90 172.52 Z M 167.87 172.26 L 168.85 172.01 C 169.81 171.77 170.39 170.80 170.14 169.85 C 169.90 168.89 168.93 168.31 167.97 168.56 L 166.99 168.80 C 166.04 169.05 165.46 170.02 165.70 170.97 C 165.95 171.93 166.92 172.51 167.87 172.26 Z M 168.85 172.01 L 169.82 171.76 C 170.78 171.53 171.36 170.56 171.12 169.61 C 170.88 168.65 169.91 168.08 168.96 168.31 L 167.98 168.56 C 167.03 168.80 166.45 169.76 166.69 170.72 C 166.93 171.67 167.89 172.25 168.85 172.01 Z M 169.82 171.76 L 170.80 171.52 C 171.75 171.28 172.33 170.32 172.09 169.37 C 171.86 168.42 170.89 167.84 169.94 168.08 L 168.97 168.32 C 168.02 168.56 167.44 169.52 167.67 170.47 C 167.91 171.42 168.87 171.99 169.82 171.76 Z M 170.79 171.51 L 171.77 171.27 C 172.72 171.04 173.30 170.08 173.06 169.14 C 172.83 168.19 171.87 167.61 170.93 167.84 L 169.95 168.08 C 169.00 168.32 168.42 169.27 168.66 170.22 C 168.89 171.16 169.85 171.74 170.79 171.51 Z M 171.77 171.27 L 172.74 171.03 C 173.68 170.80 174.26 169.85 174.03 168.90 C 173.80 167.96 172.85 167.38 171.91 167.61 L 170.93 167.85 C 169.99 168.08 169.41 169.03 169.64 169.97 C 169.87 170.92 170.82 171.50 171.77 171.27 Z M 172.74 171.02 L 173.71 170.79 C 174.65 170.56 175.23 169.61 175.00 168.67 C 174.77 167.73 173.82 167.15 172.88 167.38 L 171.91 167.62 C 170.97 167.84 170.39 168.79 170.62 169.73 C 170.85 170.67 171.80 171.25 172.74 171.02 Z M 173.70 170.78 L 174.67 170.55 C 175.61 170.32 176.18 169.38 175.96 168.44 C 175.73 167.50 174.79 166.93 173.85 167.15 L 172.89 167.39 C 171.95 167.61 171.37 168.56 171.60 169.49 C 171.82 170.43 172.77 171.01 173.70 170.78 Z M 174.67 170.54 L 175.62 170.31 C 176.56 170.09 177.13 169.15 176.91 168.21 C 176.68 167.28 175.74 166.70 174.81 166.93 L 173.85 167.16 C 172.92 167.38 172.34 168.32 172.57 169.26 C 172.79 170.19 173.73 170.77 174.67 170.54 Z M 175.62 170.31 L 176.62 170.07 C 177.55 169.84 178.12 168.91 177.90 167.98 C 177.68 167.04 176.74 166.47 175.81 166.69 L 174.81 166.93 C 173.88 167.16 173.31 168.09 173.53 169.03 C 173.75 169.96 174.69 170.53 175.62 170.31 Z M 176.62 170.06 L 177.62 169.82 C 178.55 169.60 179.12 168.67 178.90 167.74 C 178.67 166.81 177.74 166.24 176.81 166.46 L 175.81 166.70 C 174.88 166.92 174.31 167.86 174.53 168.78 C 174.76 169.71 175.69 170.28 176.62 170.06 Z M 177.62 169.82 L 178.60 169.58 C 179.53 169.36 180.10 168.43 179.88 167.50 C 179.66 166.58 178.73 166.00 177.80 166.23 L 176.81 166.46 C 175.89 166.68 175.32 167.62 175.54 168.54 C 175.76 169.47 176.69 170.04 177.62 169.82 Z M 178.60 169.58 L 179.58 169.35 C 180.50 169.13 181.07 168.20 180.85 167.27 C 180.63 166.35 179.70 165.78 178.78 166.00 L 177.80 166.23 C 176.88 166.45 176.31 167.38 176.53 168.30 C 176.75 169.23 177.68 169.80 178.60 169.58 Z M 179.57 169.34 L 180.54 169.11 C 181.46 168.90 182.03 167.97 181.81 167.05 C 181.59 166.13 180.67 165.56 179.74 165.77 L 178.78 166.00 C 177.86 166.22 177.29 167.14 177.51 168.07 C 177.73 168.99 178.65 169.56 179.57 169.34 Z M 180.53 169.11 L 181.48 168.89 C 182.40 168.67 182.97 167.75 182.76 166.83 C 182.54 165.91 181.62 165.34 180.70 165.55 L 179.75 165.78 C 178.83 165.99 178.26 166.92 178.47 167.84 C 178.69 168.76 179.61 169.33 180.53 169.11 Z M 181.48 168.88 L 182.41 168.67 C 183.33 168.45 183.90 167.53 183.69 166.62 C 183.47 165.70 182.55 165.13 181.64 165.34 L 180.70 165.56 C 179.78 165.77 179.21 166.69 179.43 167.61 C 179.64 168.53 180.56 169.10 181.48 168.88 Z M 182.41 168.67 L 183.42 168.43 C 184.34 168.22 184.91 167.31 184.70 166.39 C 184.49 165.47 183.57 164.89 182.65 165.11 L 181.64 165.34 C 180.72 165.55 180.15 166.47 180.36 167.39 C 180.57 168.31 181.49 168.88 182.41 168.67 Z M 183.41 168.44 L 184.41 168.21 C 185.33 168.00 185.91 167.09 185.70 166.16 C 185.49 165.24 184.57 164.66 183.65 164.87 L 182.65 165.10 C 181.73 165.31 181.15 166.23 181.36 167.15 C 181.57 168.07 182.49 168.65 183.41 168.44 Z M 184.40 168.22 L 185.39 168.00 C 186.31 167.79 186.89 166.87 186.68 165.95 C 186.48 165.02 185.56 164.44 184.63 164.65 L 183.65 164.87 C 182.73 165.08 182.14 166.00 182.35 166.92 C 182.56 167.85 183.48 168.43 184.40 168.22 Z M 185.38 168.00 L 186.35 167.79 C 187.28 167.58 187.86 166.66 187.66 165.74 C 187.45 164.81 186.53 164.22 185.60 164.43 L 184.64 164.64 C 183.71 164.85 183.12 165.77 183.33 166.70 C 183.53 167.62 184.45 168.21 185.38 168.00 Z M 186.35 167.79 L 187.31 167.58 C 188.24 167.38 188.82 166.46 188.62 165.53 C 188.42 164.60 187.50 164.01 186.56 164.21 L 185.61 164.42 C 184.68 164.63 184.09 165.55 184.29 166.48 C 184.50 167.41 185.42 168.00 186.35 167.79 Z M 187.30 167.59 L 188.25 167.38 C 189.19 167.18 189.78 166.26 189.57 165.32 C 189.37 164.39 188.45 163.80 187.52 164.00 L 186.57 164.21 C 185.63 164.41 185.04 165.33 185.24 166.27 C 185.45 167.20 186.37 167.79 187.30 167.59 Z M 188.25 167.39 L 189.23 167.18 C 190.16 166.98 190.76 166.05 190.56 165.12 C 190.36 164.18 189.43 163.58 188.49 163.78 L 187.52 163.99 C 186.58 164.19 185.98 165.12 186.19 166.06 C 186.39 167.00 187.31 167.59 188.25 167.39 Z M 189.22 167.19 L 190.20 166.98 C 191.15 166.78 191.75 165.85 191.55 164.91 C 191.35 163.96 190.42 163.36 189.48 163.56 L 188.50 163.77 C 187.55 163.97 186.95 164.90 187.15 165.85 C 187.35 166.79 188.28 167.39 189.22 167.19 Z M 190.20 167.00 L 191.18 166.79 C 192.13 166.59 192.74 165.66 192.54 164.71 C 192.34 163.76 191.41 163.14 190.46 163.34 L 189.48 163.55 C 188.53 163.75 187.92 164.68 188.12 165.63 C 188.31 166.59 189.25 167.20 190.20 167.00 Z M 191.17 166.81 L 192.15 166.61 C 193.11 166.41 193.73 165.47 193.53 164.51 C 193.33 163.55 192.39 162.93 191.43 163.13 L 190.46 163.33 C 189.50 163.53 188.88 164.47 189.08 165.43 C 189.28 166.39 190.21 167.00 191.17 166.81 Z M 192.14 166.62 L 193.12 166.42 C 194.09 166.23 194.72 165.29 194.52 164.32 C 194.33 163.35 193.39 162.72 192.42 162.92 L 191.44 163.12 C 190.47 163.31 189.85 164.25 190.04 165.22 C 190.23 166.19 191.18 166.81 192.14 166.62 Z M 193.12 166.44 L 194.10 166.24 C 195.07 166.05 195.71 165.11 195.52 164.13 C 195.33 163.16 194.38 162.52 193.41 162.71 L 192.42 162.91 C 191.45 163.10 190.81 164.04 191.00 165.02 C 191.20 165.99 192.14 166.63 193.12 166.44 Z M 194.09 166.26 L 195.07 166.07 C 196.05 165.88 196.69 164.93 196.51 163.95 C 196.32 162.97 195.37 162.32 194.39 162.51 L 193.41 162.70 C 192.43 162.89 191.78 163.84 191.97 164.82 C 192.16 165.80 193.11 166.45 194.09 166.26 Z M 195.06 166.09 L 196.04 165.90 C 197.03 165.72 197.68 164.77 197.50 163.77 C 197.31 162.78 196.36 162.13 195.37 162.31 L 194.39 162.50 C 193.40 162.68 192.75 163.64 192.93 164.63 C 193.12 165.62 194.07 166.27 195.06 166.09 Z M 196.04 165.92 L 197.02 165.74 C 198.02 165.55 198.68 164.60 198.50 163.60 C 198.31 162.60 197.35 161.94 196.36 162.12 L 195.37 162.30 C 194.37 162.48 193.71 163.44 193.90 164.44 C 194.08 165.44 195.04 166.10 196.04 165.92 Z M 197.02 165.75 L 198.00 165.57 C 199.01 165.39 199.68 164.43 199.50 163.42 C 199.32 162.41 198.35 161.75 197.34 161.93 L 196.36 162.11 C 195.35 162.29 194.68 163.25 194.86 164.26 C 195.05 165.27 196.01 165.93 197.02 165.75 Z M 198.00 165.59 L 198.99 165.41 C 200.01 165.23 200.68 164.26 200.50 163.25 C 200.32 162.23 199.35 161.56 198.33 161.74 L 197.35 161.91 C 196.33 162.10 195.66 163.07 195.84 164.08 C 196.02 165.09 196.99 165.77 198.00 165.59 Z M 198.99 165.42 L 199.98 165.25 C 201.01 165.07 201.69 164.09 201.50 163.07 C 201.32 162.05 200.35 161.37 199.32 161.55 L 198.33 161.72 C 197.31 161.91 196.63 162.88 196.81 163.90 C 197.00 164.92 197.97 165.61 198.99 165.42 Z M 199.98 165.25 L 200.11 165.23 C 201.14 165.05 201.82 164.07 201.64 163.04 C 201.46 162.02 200.48 161.34 199.45 161.52 L 199.32 161.54 C 198.30 161.72 197.61 162.70 197.80 163.73 C 197.98 164.75 198.96 165.44 199.98 165.25 Z"
      fill="black"
      fill-rule="nonzero" /></svg>