<svg xmlns="http://www.w3.org/2000/svg" width="300" height="300" viewBox="0 0 300 300">
<path d="M 126.66 108.51 L 127.63 108.61 C 128.62 108.71 129.50 107.99 129.60 107.01 C 129.70 106.03 128.98 105.15 128.00 105.05 L 127.02 104.95 C 126.04 104.85 125.16 105.56 125.06 106.55 C 124.96 107.53 125.67 108.41 126.66 108.51 Z M 127.64 108.63 L 128.63 108.72 C 129.62 108.82 130.51 108.09 130.60 107.09 C 130.69 106.10 129.96 105.21 128.97 105.12 L 127.99 105.03 C 126.99 104.93 126.11 105.66 126.01 106.66 C 125.92 107.65 126.65 108.54 127.64 108.63 Z M 128.65 108.74 L 129.65 108.82 C 130.66 108.91 131.54 108.15 131.62 107.15 C 131.70 106.14 130.95 105.26 129.95 105.18 L 128.95 105.10 C 127.94 105.02 127.06 105.77 126.98 106.77 C 126.89 107.78 127.65 108.66 128.65 108.74 Z M 129.69 108.85 L 130.71 108.91 C 131.73 108.97 132.61 108.19 132.67 107.17 C 132.73 106.15 131.95 105.28 130.93 105.22 L 129.91 105.16 C 128.89 105.10 128.02 105.87 127.96 106.89 C 127.89 107.91 128.67 108.79 129.69 108.85 Z M 130.76 108.92 L 131.74 108.96 C 132.76 108.99 133.63 108.19 133.66 107.17 C 133.70 106.14 132.90 105.28 131.87 105.24 L 130.89 105.20 C 129.86 105.17 129.00 105.97 128.97 106.99 C 128.93 108.02 129.73 108.88 130.76 108.92 Z M 131.77 108.96 L 132.77 108.98 C 133.80 109.00 134.65 108.18 134.67 107.15 C 134.69 106.12 133.87 105.27 132.84 105.25 L 131.84 105.24 C 130.81 105.22 129.96 106.03 129.94 107.06 C 129.92 108.09 130.74 108.94 131.77 108.96 Z M 132.79 108.98 L 133.80 108.99 C 134.83 109.00 135.68 108.17 135.68 107.14 C 135.69 106.11 134.86 105.27 133.83 105.26 L 132.82 105.25 C 131.79 105.24 130.95 106.07 130.94 107.10 C 130.93 108.13 131.76 108.98 132.79 108.98 Z M 133.81 109.00 L 134.82 109.00 C 135.85 109.00 136.69 108.16 136.69 107.13 C 136.70 106.10 135.86 105.26 134.83 105.26 L 133.82 105.25 C 132.79 105.25 131.95 106.09 131.95 107.12 C 131.94 108.16 132.78 108.99 133.81 109.00 Z M 134.82 109.00 L 135.83 109.00 C 136.87 109.00 137.71 108.16 137.71 107.13 C 137.71 106.09 136.87 105.25 135.83 105.25 L 134.82 105.25 C 133.79 105.25 132.95 106.09 132.95 107.13 C 132.95 108.16 133.79 109.00 134.82 109.00 Z M 135.83 109.00 L 136.83 109.00 C 137.87 109.00 138.71 108.16 138.71 107.13 C 138.71 106.09 137.87 105.25 136.83 105.25 L 135.83 105.25 C 134.80 105.25 133.96 106.09 133.96 107.13 C 133.96 108.16 134.80 109.00 135.83 109.00 Z M 136.83 109.00 L 137.83 109.00 C 138.86 109.00 139.70 108.16 139.70 107.13 C 139.70 106.09 138.86 105.25 137.83 105.25 L 136.83 105.25 C 135.80 105.25 134.96 106.09 134.96 107.13 C 134.96 108.16 135.80 109.00 136.83 109.00 Z M 137.83 109.00 L 138.82 109.00 C 139.86 109.00 140.70 108.16 140.70 107.13 C 140.70 106.09 139.86 105.25 138.82 105.25 L 137.83 105.25 C 136.79 105.25 135.96 106.09 135.96 107.13 C 135.96 108.16 136.79 109.00 137.83 109.00 Z M 138.82 109.00 L 139.83 109.00 C 140.86 109.00 141.70 108.16 141.70 107.13 C 141.70 106.09 140.86 105.25 139.83 105.25 L 138.82 105.25 C 137.79 105.25 136.95 106.09 136.95 107.13 C 136.95 108.16 137.79 109.00 138.82 109.00 Z M 139.82 109.00 L 140.83 109.00 C 141.87 109.00 142.71 108.17 142.71 107.13 C 142.71 106.10 141.88 105.26 140.84 105.26 L 139.83 105.25 C 138.80 105.25 137.96 106.09 137.96 107.12 C 137.95 108.16 138.79 109.00 139.82 109.00 Z M 140.82 109.00 L 141.83 109.01 C 142.86 109.02 143.71 108.19 143.71 107.15 C 143.72 106.12 142.89 105.27 141.86 105.26 L 140.85 105.26 C 139.82 105.25 138.97 106.08 138.96 107.11 C 138.96 108.15 139.79 108.99 140.82 109.00 Z M 141.81 109.01 L 142.80 109.03 C 143.83 109.05 144.69 108.22 144.71 107.19 C 144.73 106.16 143.90 105.30 142.87 105.28 L 141.88 105.27 C 140.84 105.25 139.99 106.07 139.97 107.10 C 139.95 108.14 140.77 108.99 141.81 109.01 Z M 142.77 109.03 L 143.78 109.06 C 144.82 109.09 145.68 108.28 145.71 107.25 C 145.75 106.22 144.94 105.35 143.90 105.32 L 142.90 105.29 C 141.86 105.25 141.00 106.06 140.96 107.09 C 140.93 108.13 141.74 108.99 142.77 109.03 Z M 143.75 109.05 L 144.77 109.11 C 145.80 109.16 146.68 108.37 146.73 107.33 C 146.79 106.30 145.99 105.43 144.96 105.37 L 143.94 105.32 C 142.91 105.27 142.03 106.06 141.98 107.09 C 141.93 108.12 142.72 109.00 143.75 109.05 Z M 144.74 109.10 L 145.73 109.17 C 146.76 109.24 147.65 108.47 147.72 107.44 C 147.80 106.41 147.02 105.52 145.99 105.45 L 145.00 105.38 C 143.97 105.31 143.08 106.08 143.00 107.11 C 142.93 108.14 143.71 109.03 144.74 109.10 Z M 145.70 109.17 L 146.66 109.25 C 147.69 109.35 148.60 108.59 148.69 107.56 C 148.78 106.54 148.02 105.63 147.00 105.54 L 146.03 105.45 C 145.01 105.36 144.10 106.12 144.01 107.14 C 143.91 108.17 144.67 109.07 145.70 109.17 Z M 146.62 109.25 L 147.62 109.36 C 148.64 109.47 149.57 108.74 149.68 107.72 C 149.80 106.70 149.06 105.78 148.04 105.66 L 147.04 105.55 C 146.02 105.43 145.10 106.17 144.98 107.19 C 144.87 108.21 145.60 109.13 146.62 109.25 Z M 147.55 109.35 L 148.56 109.50 C 149.57 109.65 150.52 108.95 150.67 107.94 C 150.82 106.93 150.13 105.98 149.11 105.83 L 148.11 105.68 C 147.10 105.52 146.15 106.22 146.00 107.23 C 145.84 108.25 146.54 109.19 147.55 109.35 Z M 148.44 109.47 L 149.41 109.68 C 150.41 109.90 151.39 109.26 151.61 108.26 C 151.83 107.26 151.19 106.28 150.19 106.06 L 149.23 105.85 C 148.23 105.64 147.24 106.27 147.03 107.27 C 146.81 108.27 147.45 109.26 148.44 109.47 Z M 149.25 109.63 L 150.20 109.93 C 151.17 110.23 152.20 109.69 152.51 108.71 C 152.81 107.74 152.27 106.71 151.29 106.40 L 150.35 106.11 C 149.38 105.81 148.34 106.35 148.04 107.32 C 147.74 108.30 148.28 109.33 149.25 109.63 Z M 149.96 109.83 L 150.97 110.30 C 151.89 110.74 152.99 110.34 153.42 109.42 C 153.85 108.50 153.45 107.41 152.53 106.97 L 151.53 106.50 C 150.61 106.07 149.51 106.46 149.08 107.38 C 148.65 108.30 149.04 109.40 149.96 109.83 Z M 150.57 110.04 L 151.31 110.66 C 152.08 111.32 153.24 111.22 153.89 110.45 C 154.55 109.67 154.45 108.51 153.67 107.86 L 152.94 107.24 C 152.16 106.58 151.00 106.68 150.35 107.45 C 149.70 108.23 149.79 109.39 150.57 110.04 Z M 150.78 109.92 L 151.07 110.66 C 151.43 111.61 152.49 112.08 153.43 111.72 C 154.37 111.36 154.85 110.30 154.48 109.36 L 154.20 108.61 C 153.84 107.67 152.78 107.19 151.84 107.55 C 150.89 107.91 150.42 108.97 150.78 109.92 Z M 151.00 109.63 L 150.85 110.34 C 150.64 111.32 151.26 112.29 152.25 112.50 C 153.23 112.71 154.19 112.08 154.40 111.10 L 154.55 110.39 C 154.76 109.41 154.14 108.44 153.16 108.23 C 152.18 108.03 151.21 108.65 151.00 109.63 Z M 151.09 109.79 L 150.61 110.58 C 150.09 111.43 150.36 112.54 151.21 113.05 C 152.05 113.57 153.16 113.30 153.68 112.45 L 154.16 111.66 C 154.68 110.81 154.41 109.70 153.56 109.19 C 152.71 108.67 151.61 108.94 151.09 109.79 Z M 150.83 110.31 L 150.04 111.17 C 149.38 111.89 149.42 113.02 150.15 113.68 C 150.87 114.35 151.99 114.30 152.66 113.58 L 153.45 112.72 C 154.12 112.00 154.07 110.87 153.35 110.21 C 152.62 109.54 151.50 109.59 150.83 110.31 Z M 150.20 111.04 L 149.32 111.79 C 148.58 112.43 148.49 113.54 149.13 114.28 C 149.76 115.02 150.88 115.11 151.62 114.47 L 152.50 113.71 C 153.24 113.08 153.32 111.96 152.69 111.23 C 152.06 110.49 150.94 110.40 150.20 111.04 Z M 149.41 111.73 L 148.68 112.28 C 147.91 112.86 147.75 113.96 148.33 114.74 C 148.91 115.51 150.01 115.67 150.79 115.09 L 151.52 114.54 C 152.30 113.95 152.45 112.85 151.87 112.08 C 151.29 111.30 150.19 111.15 149.41 111.73 Z M 148.74 112.25 L 147.94 112.80 C 147.14 113.35 146.94 114.44 147.49 115.24 C 148.04 116.03 149.13 116.23 149.93 115.68 L 150.73 115.12 C 151.52 114.57 151.72 113.48 151.17 112.69 C 150.62 111.89 149.53 111.70 148.74 112.25 Z M 147.98 112.78 L 147.13 113.34 C 146.32 113.86 146.09 114.94 146.62 115.75 C 147.14 116.55 148.22 116.78 149.03 116.26 L 149.88 115.70 C 150.69 115.18 150.92 114.10 150.39 113.29 C 149.87 112.48 148.79 112.25 147.98 112.78 Z M 147.16 113.32 L 146.27 113.87 C 145.46 114.37 145.21 115.44 145.71 116.26 C 146.22 117.08 147.29 117.33 148.10 116.82 L 148.99 116.27 C 149.81 115.77 150.06 114.70 149.55 113.88 C 149.05 113.07 147.98 112.81 147.16 113.32 Z M 146.30 113.86 L 145.40 114.40 C 144.58 114.88 144.31 115.95 144.80 116.77 C 145.28 117.59 146.35 117.86 147.17 117.37 L 148.07 116.83 C 148.90 116.35 149.17 115.28 148.68 114.46 C 148.19 113.64 147.13 113.37 146.30 113.86 Z M 145.42 114.39 L 144.52 114.91 C 143.69 115.39 143.41 116.44 143.88 117.27 C 144.36 118.09 145.42 118.38 146.24 117.90 L 147.15 117.38 C 147.97 116.90 148.26 115.85 147.78 115.02 C 147.30 114.20 146.25 113.91 145.42 114.39 Z M 144.53 114.90 L 143.55 115.46 C 142.72 115.92 142.43 116.97 142.89 117.80 C 143.36 118.63 144.41 118.93 145.24 118.46 L 146.22 117.91 C 147.05 117.44 147.35 116.39 146.88 115.56 C 146.41 114.73 145.36 114.44 144.53 114.90 Z M 143.57 115.45 L 142.62 115.97 C 141.78 116.43 141.48 117.48 141.94 118.31 C 142.39 119.14 143.44 119.45 144.27 118.99 L 145.22 118.47 C 146.06 118.01 146.36 116.96 145.90 116.13 C 145.45 115.30 144.40 114.99 143.57 115.45 Z M 142.63 115.97 L 141.72 116.45 C 140.89 116.90 140.57 117.94 141.02 118.78 C 141.47 119.62 142.51 119.93 143.35 119.48 L 144.26 119.00 C 145.10 118.55 145.41 117.50 144.96 116.67 C 144.51 115.83 143.47 115.52 142.63 115.97 Z M 141.74 116.45 L 140.88 116.90 C 140.04 117.34 139.72 118.38 140.16 119.22 C 140.60 120.06 141.64 120.38 142.48 119.94 L 143.34 119.49 C 144.18 119.05 144.50 118.01 144.06 117.17 C 143.62 116.33 142.58 116.01 141.74 116.45 Z M 140.89 116.89 L 140.10 117.30 C 139.25 117.74 138.92 118.77 139.35 119.61 C 139.79 120.46 140.82 120.79 141.66 120.36 L 142.46 119.95 C 143.31 119.51 143.64 118.48 143.21 117.63 C 142.77 116.79 141.74 116.46 140.89 116.89 Z M 140.11 117.30 L 139.26 117.72 C 138.41 118.15 138.07 119.18 138.50 120.02 C 138.92 120.87 139.95 121.21 140.80 120.79 L 141.65 120.36 C 142.50 119.94 142.84 118.91 142.41 118.06 C 141.99 117.21 140.96 116.87 140.11 117.30 Z M 139.28 117.71 L 138.29 118.19 C 137.44 118.61 137.08 119.64 137.50 120.49 C 137.91 121.34 138.94 121.69 139.79 121.28 L 140.78 120.80 C 141.63 120.38 141.99 119.36 141.57 118.50 C 141.16 117.65 140.13 117.30 139.28 117.71 Z M 138.31 118.19 L 137.43 118.60 C 136.57 119.01 136.21 120.03 136.61 120.89 C 137.02 121.74 138.04 122.11 138.89 121.70 L 139.77 121.29 C 140.63 120.88 141.00 119.86 140.59 119.00 C 140.19 118.15 139.16 117.78 138.31 118.19 Z M 137.44 118.60 L 136.62 118.98 C 135.76 119.38 135.39 120.40 135.79 121.26 C 136.19 122.12 137.21 122.49 138.07 122.09 L 138.89 121.71 C 139.75 121.31 140.12 120.29 139.72 119.43 C 139.32 118.57 138.30 118.20 137.44 118.60 Z M 136.61 118.98 L 135.75 119.38 C 134.89 119.78 134.52 120.81 134.92 121.67 C 135.33 122.52 136.35 122.89 137.21 122.49 L 138.07 122.09 C 138.93 121.69 139.30 120.67 138.90 119.81 C 138.49 118.95 137.47 118.58 136.61 118.98 Z M 135.74 119.39 L 134.84 119.82 C 133.98 120.22 133.62 121.25 134.02 122.10 C 134.43 122.96 135.45 123.33 136.31 122.92 L 137.21 122.49 C 138.07 122.08 138.44 121.06 138.03 120.20 C 137.62 119.35 136.60 118.98 135.74 119.39 Z M 134.83 119.82 L 133.93 120.25 C 133.07 120.67 132.71 121.69 133.12 122.55 C 133.53 123.40 134.56 123.76 135.41 123.35 L 136.32 122.92 C 137.17 122.50 137.53 121.48 137.12 120.62 C 136.71 119.77 135.68 119.41 134.83 119.82 Z M 133.92 120.26 L 133.07 120.67 C 132.22 121.08 131.87 122.11 132.28 122.97 C 132.70 123.82 133.73 124.17 134.58 123.76 L 135.42 123.35 C 136.28 122.93 136.63 121.90 136.22 121.05 C 135.80 120.20 134.77 119.84 133.92 120.26 Z M 133.07 120.67 L 132.35 121.02 C 131.50 121.44 131.14 122.47 131.56 123.32 C 131.98 124.18 133.01 124.53 133.86 124.11 L 134.58 123.76 C 135.44 123.34 135.79 122.31 135.37 121.46 C 134.95 120.60 133.92 120.25 133.07 120.67 Z M 132.36 121.01 L 131.55 121.40 C 130.69 121.81 130.33 122.84 130.75 123.70 C 131.16 124.56 132.19 124.92 133.05 124.51 L 133.85 124.12 C 134.71 123.71 135.07 122.68 134.66 121.82 C 134.25 120.96 133.22 120.60 132.36 121.01 Z M 131.57 121.39 L 130.60 121.84 C 129.74 122.25 129.37 123.27 129.77 124.14 C 130.18 125.00 131.20 125.37 132.07 124.97 L 133.03 124.52 C 133.89 124.11 134.27 123.09 133.86 122.22 C 133.46 121.36 132.43 120.99 131.57 121.39 Z M 130.62 121.83 L 129.44 122.37 C 128.57 122.76 128.19 123.78 128.58 124.65 C 128.98 125.52 130.00 125.91 130.87 125.51 L 132.05 124.98 C 132.92 124.58 133.30 123.56 132.91 122.69 C 132.51 121.82 131.49 121.44 130.62 121.83 Z M 129.45 122.36 L 128.64 122.72 C 127.76 123.11 127.37 124.13 127.76 125.00 C 128.14 125.88 129.17 126.27 130.04 125.88 L 130.86 125.52 C 131.73 125.13 132.12 124.11 131.74 123.24 C 131.35 122.36 130.33 121.97 129.45 122.36 Z M 128.64 122.72 L 127.75 123.11 C 126.87 123.49 126.48 124.51 126.86 125.39 C 127.24 126.26 128.26 126.66 129.14 126.28 L 130.03 125.89 C 130.91 125.50 131.31 124.48 130.92 123.61 C 130.54 122.73 129.52 122.33 128.64 122.72 Z M 127.76 123.10 L 126.81 123.51 C 125.93 123.89 125.53 124.91 125.91 125.79 C 126.29 126.67 127.31 127.08 128.19 126.69 L 129.14 126.28 C 130.01 125.90 130.42 124.88 130.04 124.00 C 129.66 123.12 128.63 122.72 127.76 123.10 Z M 126.82 123.51 L 125.84 123.92 C 124.96 124.30 124.56 125.33 124.94 126.21 C 125.31 127.09 126.34 127.49 127.22 127.12 L 128.19 126.70 C 129.07 126.32 129.48 125.30 129.10 124.42 C 128.72 123.54 127.70 123.13 126.82 123.51 Z M 125.85 123.92 L 124.88 124.34 C 123.99 124.71 123.58 125.73 123.96 126.62 C 124.33 127.50 125.36 127.91 126.24 127.53 L 127.21 127.12 C 128.10 126.74 128.51 125.72 128.13 124.84 C 127.75 123.96 126.73 123.54 125.85 123.92 Z M 124.88 124.33 L 123.93 124.73 C 123.04 125.11 122.63 126.13 123.00 127.01 C 123.38 127.90 124.40 128.32 125.28 127.94 L 126.24 127.54 C 127.12 127.16 127.54 126.14 127.16 125.26 C 126.79 124.37 125.77 123.96 124.88 124.33 Z M 123.93 124.73 L 123.03 125.11 C 122.14 125.48 121.72 126.50 122.09 127.39 C 122.47 128.28 123.49 128.70 124.38 128.32 L 125.28 127.95 C 126.17 127.57 126.59 126.55 126.21 125.66 C 125.84 124.78 124.82 124.36 123.93 124.73 Z M 123.04 125.10 L 121.97 125.54 C 121.08 125.91 120.66 126.93 121.02 127.82 C 121.39 128.71 122.41 129.14 123.30 128.77 L 124.37 128.33 C 125.26 127.96 125.68 126.94 125.31 126.05 C 124.95 125.16 123.93 124.74 123.04 125.10 Z M 121.98 125.54 L 120.94 125.96 C 120.04 126.33 119.61 127.35 119.98 128.24 C 120.34 129.13 121.36 129.56 122.25 129.20 L 123.29 128.77 C 124.19 128.41 124.62 127.39 124.25 126.50 C 123.89 125.61 122.87 125.18 121.98 125.54 Z M 120.94 125.96 L 120.01 126.34 C 119.12 126.69 118.68 127.71 119.04 128.60 C 119.40 129.50 120.42 129.93 121.31 129.57 L 122.24 129.20 C 123.14 128.84 123.57 127.83 123.21 126.93 C 122.85 126.04 121.84 125.60 120.94 125.96 Z M 120.02 126.33 L 119.17 126.67 C 118.27 127.03 117.84 128.04 118.19 128.94 C 118.55 129.83 119.56 130.27 120.46 129.91 L 121.31 129.58 C 122.20 129.22 122.64 128.20 122.28 127.31 C 121.93 126.41 120.91 125.98 120.02 126.33 Z M 119.17 126.67 L 118.37 126.99 C 117.48 127.34 117.04 128.36 117.39 129.25 C 117.75 130.15 118.76 130.59 119.66 130.23 L 120.46 129.91 C 121.35 129.56 121.79 128.54 121.43 127.65 C 121.08 126.75 120.06 126.32 119.17 126.67 Z M 118.37 126.99 L 117.49 127.34 C 116.60 127.70 116.16 128.71 116.52 129.61 C 116.88 130.50 117.89 130.94 118.79 130.58 L 119.67 130.23 C 120.56 129.87 120.99 128.85 120.64 127.96 C 120.28 127.06 119.26 126.63 118.37 126.99 Z M 117.48 127.34 L 116.54 127.72 C 115.64 128.09 115.21 129.10 115.57 130.00 C 115.93 130.90 116.95 131.33 117.85 130.96 L 118.80 130.58 C 119.69 130.22 120.12 129.20 119.76 128.30 C 119.40 127.41 118.38 126.98 117.48 127.34 Z M 116.53 127.72 L 115.60 128.10 C 114.71 128.46 114.28 129.49 114.64 130.38 C 115.01 131.28 116.03 131.71 116.92 131.35 L 117.85 130.97 C 118.75 130.60 119.18 129.58 118.82 128.68 C 118.45 127.79 117.43 127.35 116.53 127.72 Z M 115.60 128.09 L 114.70 128.46 C 113.80 128.83 113.36 129.85 113.73 130.75 C 114.09 131.65 115.12 132.08 116.02 131.72 L 116.92 131.35 C 117.82 130.99 118.26 129.96 117.89 129.06 C 117.53 128.16 116.50 127.73 115.60 128.09 Z M 114.70 128.45 L 113.74 128.83 C 112.84 129.20 112.40 130.23 112.76 131.13 C 113.13 132.04 114.15 132.47 115.06 132.11 L 116.01 131.73 C 116.92 131.36 117.36 130.34 116.99 129.43 C 116.63 128.53 115.60 128.09 114.70 128.45 Z M 113.69 128.84 L 112.71 129.26 C 111.80 129.65 111.39 130.70 111.78 131.61 C 112.17 132.51 113.22 132.93 114.12 132.54 L 115.11 132.11 C 116.01 131.72 116.43 130.67 116.04 129.76 C 115.65 128.86 114.60 128.45 113.69 128.84 Z M 112.52 129.33 L 111.67 129.82 C 110.80 130.31 110.50 131.42 111.00 132.28 C 111.49 133.15 112.59 133.45 113.46 132.95 L 114.31 132.47 C 115.17 131.97 115.48 130.87 114.98 130.00 C 114.49 129.14 113.38 128.84 112.52 129.33 Z M 111.31 130.06 L 110.67 130.66 C 109.93 131.35 109.90 132.51 110.59 133.24 C 111.28 133.98 112.44 134.01 113.17 133.32 L 113.81 132.72 C 114.55 132.02 114.58 130.87 113.89 130.13 C 113.20 129.40 112.04 129.36 111.31 130.06 Z M 110.26 131.21 L 109.86 132.06 C 109.43 132.98 109.82 134.08 110.74 134.51 C 111.66 134.94 112.76 134.54 113.19 133.62 L 113.59 132.77 C 114.02 131.85 113.62 130.76 112.70 130.32 C 111.78 129.89 110.69 130.29 110.26 131.21 Z M 109.69 132.65 L 109.59 133.64 C 109.48 134.65 110.22 135.55 111.23 135.66 C 112.24 135.77 113.14 135.03 113.25 134.02 L 113.35 133.03 C 113.46 132.02 112.72 131.12 111.71 131.01 C 110.70 130.91 109.80 131.64 109.69 132.65 Z M 109.59 134.07 L 109.73 135.09 C 109.86 136.10 110.78 136.81 111.79 136.68 C 112.80 136.55 113.51 135.63 113.38 134.62 L 113.25 133.59 C 113.11 132.58 112.19 131.87 111.18 132.00 C 110.17 132.13 109.46 133.06 109.59 134.07 Z M 109.79 135.40 L 110.08 136.35 C 110.39 137.32 111.42 137.86 112.39 137.56 C 113.36 137.26 113.91 136.23 113.60 135.25 L 113.31 134.31 C 113.01 133.34 111.98 132.79 111.01 133.10 C 110.03 133.40 109.49 134.43 109.79 135.40 Z M 110.16 136.54 L 110.55 137.45 C 110.96 138.38 112.05 138.80 112.99 138.39 C 113.92 137.98 114.34 136.89 113.93 135.96 L 113.53 135.06 C 113.12 134.12 112.03 133.70 111.10 134.11 C 110.17 134.52 109.75 135.61 110.16 136.54 Z M 110.59 137.53 L 111.05 138.44 C 111.51 139.35 112.62 139.71 113.53 139.25 C 114.44 138.80 114.80 137.69 114.35 136.78 L 113.89 135.87 C 113.43 134.96 112.32 134.60 111.41 135.05 C 110.50 135.51 110.13 136.62 110.59 137.53 Z M 111.04 138.43 L 111.45 139.25 C 111.91 140.16 113.02 140.54 113.93 140.08 C 114.84 139.63 115.21 138.52 114.76 137.61 L 114.35 136.78 C 113.90 135.87 112.79 135.50 111.87 135.95 C 110.96 136.41 110.59 137.52 111.04 138.43 Z M 111.43 139.20 L 111.80 140.00 C 112.23 140.93 113.32 141.33 114.25 140.90 C 115.18 140.47 115.58 139.38 115.15 138.45 L 114.78 137.65 C 114.35 136.73 113.26 136.32 112.33 136.75 C 111.41 137.18 111.00 138.28 111.43 139.20 Z M 111.78 139.95 L 112.16 140.85 C 112.56 141.78 113.64 142.22 114.58 141.82 C 115.52 141.42 115.96 140.33 115.56 139.40 L 115.17 138.50 C 114.77 137.56 113.69 137.13 112.75 137.53 C 111.81 137.93 111.38 139.01 111.78 139.95 Z M 112.14 140.80 L 112.55 141.83 C 112.92 142.78 114.00 143.24 114.94 142.87 C 115.89 142.49 116.36 141.42 115.98 140.47 L 115.57 139.44 C 115.20 138.49 114.13 138.03 113.18 138.40 C 112.23 138.78 111.76 139.85 112.14 140.80 Z M 112.53 141.80 L 112.91 142.80 C 113.26 143.76 114.32 144.24 115.28 143.89 C 116.24 143.53 116.72 142.47 116.37 141.51 L 116.00 140.51 C 115.64 139.55 114.58 139.07 113.62 139.42 C 112.67 139.78 112.18 140.84 112.53 141.80 Z M 112.90 142.78 L 113.20 143.63 C 113.55 144.59 114.60 145.10 115.56 144.75 C 116.52 144.41 117.02 143.36 116.68 142.40 L 116.38 141.54 C 116.04 140.58 114.98 140.07 114.02 140.42 C 113.06 140.76 112.56 141.81 112.90 142.78 Z M 113.20 143.62 L 113.52 144.54 C 113.85 145.50 114.90 146.01 115.86 145.68 C 116.83 145.35 117.34 144.29 117.01 143.33 L 116.69 142.41 C 116.36 141.45 115.30 140.94 114.34 141.27 C 113.38 141.60 112.87 142.65 113.20 143.62 Z M 113.51 144.52 L 113.84 145.49 C 114.16 146.45 115.21 146.97 116.17 146.65 C 117.14 146.32 117.66 145.28 117.33 144.31 L 117.01 143.35 C 116.69 142.38 115.64 141.86 114.67 142.18 C 113.71 142.51 113.19 143.56 113.51 144.52 Z M 113.83 145.47 L 114.16 146.47 C 114.48 147.44 115.52 147.97 116.49 147.65 C 117.46 147.33 117.98 146.29 117.67 145.32 L 117.34 144.32 C 117.02 143.36 115.98 142.83 115.01 143.15 C 114.04 143.46 113.51 144.51 113.83 145.47 Z M 114.15 146.46 L 114.48 147.47 C 114.79 148.44 115.83 148.97 116.80 148.66 C 117.77 148.35 118.30 147.31 117.99 146.34 L 117.67 145.33 C 117.36 144.36 116.32 143.83 115.35 144.14 C 114.38 144.45 113.84 145.49 114.15 146.46 Z M 114.47 147.45 L 114.79 148.47 C 115.10 149.44 116.13 149.98 117.10 149.68 C 118.07 149.37 118.62 148.34 118.31 147.36 L 118.00 146.35 C 117.69 145.38 116.66 144.84 115.68 145.14 C 114.71 145.45 114.17 146.48 114.47 147.45 Z M 114.79 148.45 L 115.12 149.52 C 115.41 150.50 116.44 151.05 117.42 150.75 C 118.39 150.45 118.94 149.42 118.64 148.45 L 118.31 147.38 C 118.02 146.40 116.99 145.86 116.01 146.15 C 115.04 146.45 114.49 147.48 114.79 148.45 Z M 115.12 149.51 L 115.43 150.55 C 115.71 151.52 116.74 152.08 117.71 151.79 C 118.69 151.50 119.24 150.48 118.95 149.50 L 118.64 148.46 C 118.35 147.49 117.33 146.93 116.35 147.22 C 115.38 147.51 114.83 148.54 115.12 149.51 Z M 115.43 150.54 L 115.72 151.54 C 116.00 152.51 117.02 153.07 117.99 152.79 C 118.96 152.50 119.52 151.48 119.24 150.51 L 118.95 149.51 C 118.67 148.54 117.65 147.98 116.67 148.26 C 115.70 148.55 115.14 149.57 115.43 150.54 Z M 115.72 151.53 L 115.99 152.47 C 116.26 153.44 117.28 154.01 118.25 153.73 C 119.22 153.45 119.79 152.44 119.51 151.47 L 119.24 150.52 C 118.96 149.55 117.95 148.99 116.98 149.26 C 116.00 149.54 115.44 150.55 115.72 151.53 Z M 115.99 152.46 L 116.24 153.34 C 116.51 154.32 117.52 154.88 118.49 154.61 C 119.46 154.34 120.03 153.33 119.75 152.36 L 119.51 151.48 C 119.23 150.50 118.23 149.94 117.25 150.21 C 116.28 150.48 115.72 151.49 115.99 152.46 Z M 116.24 153.34 L 116.47 154.18 C 116.74 155.15 117.75 155.72 118.72 155.45 C 119.69 155.19 120.26 154.18 119.99 153.21 L 119.75 152.36 C 119.48 151.39 118.48 150.82 117.51 151.09 C 116.54 151.36 115.97 152.37 116.24 153.34 Z M 116.48 154.17 L 116.78 155.29 C 117.04 156.26 118.04 156.83 119.01 156.57 C 119.98 156.30 120.55 155.31 120.29 154.34 L 119.98 153.22 C 119.72 152.25 118.72 151.68 117.75 151.94 C 116.78 152.21 116.21 153.21 116.48 154.17 Z M 116.79 155.28 L 117.04 156.24 C 117.30 157.21 118.29 157.78 119.25 157.52 C 120.22 157.27 120.79 156.28 120.54 155.31 L 120.28 154.35 C 120.02 153.38 119.03 152.81 118.07 153.07 C 117.10 153.32 116.53 154.31 116.79 155.28 Z M 117.05 156.23 L 117.27 157.10 C 117.52 158.06 118.51 158.64 119.47 158.39 C 120.43 158.14 121.01 157.16 120.76 156.20 L 120.53 155.32 C 120.28 154.36 119.30 153.78 118.34 154.03 C 117.37 154.28 116.80 155.27 117.05 156.23 Z M 117.28 157.09 L 117.51 157.98 C 117.75 158.94 118.73 159.52 119.69 159.27 C 120.65 159.03 121.22 158.05 120.98 157.09 L 120.75 156.20 C 120.51 155.25 119.53 154.67 118.57 154.91 C 117.61 155.16 117.03 156.13 117.28 157.09 Z M 117.51 157.97 L 117.76 158.94 C 118.00 159.90 118.97 160.47 119.92 160.23 C 120.88 159.99 121.46 159.02 121.22 158.06 L 120.97 157.10 C 120.73 156.14 119.76 155.56 118.81 155.80 C 117.85 156.05 117.27 157.02 117.51 157.97 Z M 117.76 158.93 L 118.00 159.91 C 118.24 160.86 119.21 161.44 120.16 161.20 C 121.12 160.96 121.70 159.99 121.46 159.04 L 121.21 158.07 C 120.97 157.12 120.01 156.54 119.05 156.78 C 118.10 157.01 117.52 157.98 117.76 158.93 Z M 118.01 159.90 L 118.25 160.88 C 118.49 161.83 119.45 162.41 120.41 162.17 C 121.36 161.93 121.93 160.97 121.70 160.02 L 121.45 159.04 C 121.21 158.09 120.25 157.52 119.30 157.75 C 118.35 157.99 117.77 158.95 118.01 159.90 Z M 118.26 160.88 L 118.50 161.85 C 118.74 162.80 119.70 163.37 120.64 163.14 C 121.59 162.90 122.17 161.94 121.93 160.99 L 121.69 160.02 C 121.45 159.08 120.49 158.50 119.55 158.73 C 118.60 158.97 118.02 159.93 118.26 160.88 Z M 118.51 161.84 L 118.74 162.81 C 118.98 163.76 119.93 164.33 120.87 164.10 C 121.82 163.87 122.40 162.92 122.16 161.97 L 121.93 161.00 C 121.70 160.06 120.74 159.48 119.80 159.71 C 118.85 159.94 118.28 160.90 118.51 161.84 Z M 118.75 162.80 L 118.98 163.77 C 119.20 164.71 120.15 165.29 121.09 165.07 C 122.03 164.85 122.61 163.90 122.39 162.96 L 122.16 161.99 C 121.94 161.05 120.99 160.46 120.05 160.69 C 119.11 160.91 118.53 161.85 118.75 162.80 Z M 118.98 163.75 L 119.20 164.73 C 119.42 165.68 120.35 166.27 121.29 166.05 C 122.23 165.84 122.82 164.91 122.61 163.97 L 122.39 162.98 C 122.18 162.04 121.24 161.45 120.30 161.66 C 119.36 161.87 118.77 162.81 118.98 163.75 Z M 119.21 164.73 L 119.43 165.71 C 119.63 166.64 120.56 167.24 121.50 167.03 C 122.44 166.82 123.03 165.89 122.82 164.96 L 122.60 163.98 C 122.40 163.04 121.47 162.45 120.53 162.65 C 119.59 162.86 119.00 163.79 119.21 164.73 Z M 119.44 165.71 L 119.65 166.68 C 119.87 167.61 120.79 168.20 121.72 167.99 C 122.66 167.78 123.24 166.85 123.03 165.92 L 122.81 164.95 C 122.60 164.02 121.67 163.43 120.74 163.64 C 119.81 163.86 119.22 164.78 119.44 165.71 Z M 119.67 166.70 L 119.89 167.61 C 120.11 168.53 121.04 169.10 121.97 168.88 C 122.89 168.66 123.46 167.73 123.24 166.80 L 123.02 165.90 C 122.79 164.97 121.86 164.40 120.94 164.62 C 120.01 164.85 119.44 165.78 119.67 166.70 Z M 119.90 167.64 L 120.13 168.54 C 120.37 169.45 121.31 170.00 122.22 169.77 C 123.14 169.53 123.69 168.59 123.45 167.68 L 123.22 166.78 C 122.98 165.86 122.05 165.31 121.13 165.55 C 120.21 165.78 119.66 166.72 119.90 167.64 Z M 120.15 168.55 L 120.41 169.53 C 120.66 170.44 121.59 170.98 122.50 170.73 C 123.41 170.49 123.95 169.55 123.71 168.64 L 123.44 167.66 C 123.20 166.75 122.26 166.21 121.35 166.46 C 120.44 166.70 119.90 167.64 120.15 168.55 Z M 120.42 169.54 L 120.72 170.60 C 120.97 171.51 121.90 172.04 122.81 171.79 C 123.71 171.54 124.24 170.60 123.99 169.69 L 123.70 168.63 C 123.45 167.72 122.51 167.19 121.60 167.45 C 120.70 167.70 120.17 168.63 120.42 169.54 Z M 120.73 170.61 L 121.00 171.56 C 121.25 172.46 122.19 172.98 123.09 172.73 C 123.99 172.47 124.51 171.54 124.25 170.64 L 123.98 169.69 C 123.73 168.79 122.79 168.26 121.89 168.52 C 120.99 168.78 120.47 169.71 120.73 170.61 Z M 121.01 171.59 L 121.31 172.58 C 121.58 173.47 122.53 173.98 123.42 173.71 C 124.31 173.43 124.81 172.49 124.54 171.60 L 124.24 170.61 C 123.97 169.72 123.02 169.21 122.13 169.49 C 121.24 169.76 120.74 170.70 121.01 171.59 Z M 121.34 172.64 L 121.67 173.61 C 121.97 174.49 122.93 174.96 123.81 174.66 C 124.68 174.36 125.15 173.41 124.85 172.53 L 124.52 171.55 C 124.22 170.67 123.26 170.20 122.38 170.50 C 121.50 170.80 121.04 171.76 121.34 172.64 Z M 121.71 173.70 L 122.08 174.61 C 122.42 175.46 123.40 175.88 124.26 175.53 C 125.11 175.18 125.53 174.21 125.18 173.35 L 124.81 172.44 C 124.47 171.59 123.49 171.17 122.63 171.52 C 121.78 171.87 121.36 172.84 121.71 173.70 Z M 122.15 174.75 L 122.65 175.70 C 123.07 176.51 124.08 176.83 124.90 176.40 C 125.71 175.98 126.03 174.97 125.60 174.15 L 125.11 173.21 C 124.68 172.39 123.67 172.07 122.85 172.50 C 122.04 172.93 121.72 173.94 122.15 174.75 Z M 122.77 175.88 L 123.36 176.72 C 123.89 177.47 124.93 177.65 125.67 177.12 C 126.42 176.59 126.60 175.55 126.07 174.80 L 125.48 173.97 C 124.95 173.22 123.91 173.04 123.17 173.57 C 122.42 174.10 122.24 175.14 122.77 175.88 Z M 123.48 176.86 L 124.11 177.56 C 124.71 178.24 125.76 178.30 126.44 177.69 C 127.12 177.09 127.18 176.04 126.57 175.36 L 125.95 174.66 C 125.34 173.98 124.30 173.92 123.62 174.53 C 122.94 175.14 122.88 176.18 123.48 176.86 Z M 124.17 177.62 L 124.61 178.06 C 125.25 178.71 126.29 178.72 126.93 178.08 C 127.58 177.44 127.59 176.40 126.95 175.75 L 126.51 175.31 C 125.87 174.66 124.83 174.65 124.18 175.29 C 123.54 175.93 123.53 176.97 124.17 177.62 Z"
      fill="black"
      fill-rule="nonzero" /><path d="M 126.46 142.73 L 127.21 142.14 C 127.97 141.54 128.10 140.44 127.51 139.68 C 126.91 138.92 125.81 138.79 125.05 139.39 L 124.30 139.98 C 123.54 140.58 123.41 141.68 124.00 142.44 C 124.60 143.20 125.70 143.33 126.46 142.73 Z M 127.17 142.22 L 127.96 141.65 C 128.77 141.08 128.95 139.96 128.38 139.16 C 127.80 138.35 126.69 138.17 125.88 138.74 L 125.09 139.31 C 124.29 139.88 124.10 141.00 124.68 141.80 C 125.25 142.61 126.37 142.79 127.17 142.22 Z M 127.85 141.77 L 128.73 141.25 C 129.60 140.73 129.88 139.62 129.37 138.75 C 128.86 137.88 127.74 137.59 126.87 138.11 L 125.99 138.63 C 125.13 139.14 124.84 140.26 125.35 141.13 C 125.86 141.99 126.98 142.28 127.85 141.77 Z M 128.57 141.36 L 129.45 140.96 C 130.38 140.54 130.79 139.44 130.37 138.51 C 129.94 137.58 128.84 137.16 127.91 137.59 L 127.03 137.99 C 126.10 138.41 125.69 139.51 126.11 140.45 C 126.54 141.38 127.64 141.79 128.57 141.36 Z M 129.30 141.04 L 130.10 140.76 C 131.08 140.41 131.59 139.34 131.24 138.37 C 130.90 137.39 129.83 136.88 128.86 137.23 L 128.05 137.51 C 127.08 137.86 126.57 138.93 126.92 139.90 C 127.26 140.88 128.33 141.39 129.30 141.04 Z M 130.01 140.80 L 130.90 140.53 C 131.90 140.24 132.47 139.20 132.18 138.20 C 131.88 137.21 130.84 136.64 129.85 136.93 L 128.95 137.19 C 127.96 137.48 127.39 138.52 127.68 139.52 C 127.97 140.52 129.01 141.09 130.01 140.80 Z M 130.84 140.56 L 131.83 140.31 C 132.84 140.05 133.45 139.03 133.20 138.02 C 132.94 137.01 131.91 136.40 130.90 136.65 L 129.91 136.90 C 128.90 137.16 128.29 138.19 128.55 139.20 C 128.80 140.20 129.83 140.82 130.84 140.56 Z M 131.80 140.32 L 132.90 140.07 C 133.92 139.83 134.55 138.81 134.32 137.80 C 134.08 136.78 133.06 136.14 132.04 136.38 L 130.94 136.64 C 129.92 136.87 129.29 137.89 129.52 138.91 C 129.76 139.93 130.78 140.56 131.80 140.32 Z M 132.89 140.08 L 133.99 139.83 C 135.01 139.60 135.66 138.58 135.43 137.56 C 135.20 136.54 134.18 135.89 133.16 136.12 L 132.06 136.37 C 131.03 136.60 130.39 137.62 130.62 138.64 C 130.85 139.66 131.86 140.31 132.89 140.08 Z M 133.99 139.83 L 134.98 139.61 C 136.00 139.38 136.65 138.37 136.42 137.34 C 136.19 136.32 135.18 135.67 134.15 135.90 L 133.16 136.12 C 132.14 136.35 131.49 137.36 131.72 138.39 C 131.95 139.41 132.96 140.06 133.99 139.83 Z M 134.98 139.61 L 136.00 139.39 C 137.03 139.16 137.67 138.15 137.45 137.12 C 137.22 136.09 136.20 135.44 135.18 135.67 L 134.15 135.90 C 133.13 136.12 132.48 137.14 132.71 138.17 C 132.93 139.19 133.95 139.84 134.98 139.61 Z M 136.00 139.39 L 137.03 139.16 C 138.05 138.94 138.70 137.92 138.48 136.90 C 138.25 135.87 137.24 135.22 136.21 135.44 L 135.18 135.67 C 134.15 135.90 133.50 136.91 133.73 137.94 C 133.95 138.96 134.97 139.61 136.00 139.39 Z M 137.02 139.16 L 138.04 138.95 C 139.06 138.72 139.72 137.71 139.49 136.68 C 139.27 135.65 138.25 135.00 137.23 135.22 L 136.22 135.44 C 135.19 135.67 134.54 136.68 134.76 137.71 C 134.98 138.74 136.00 139.39 137.02 139.16 Z M 138.03 138.95 L 139.00 138.74 C 140.02 138.52 140.68 137.51 140.46 136.48 C 140.24 135.45 139.22 134.79 138.20 135.01 L 137.23 135.22 C 136.20 135.44 135.55 136.45 135.77 137.48 C 135.99 138.51 137.00 139.17 138.03 138.95 Z M 138.99 138.74 L 139.88 138.55 C 140.91 138.34 141.57 137.33 141.35 136.29 C 141.13 135.26 140.12 134.61 139.09 134.82 L 138.20 135.01 C 137.17 135.23 136.51 136.24 136.73 137.27 C 136.95 138.30 137.96 138.96 138.99 138.74 Z M 139.87 138.56 L 141.03 138.32 C 142.06 138.11 142.73 137.10 142.51 136.07 C 142.30 135.04 141.30 134.37 140.26 134.58 L 139.10 134.82 C 138.07 135.03 137.41 136.04 137.62 137.07 C 137.83 138.10 138.84 138.77 139.87 138.56 Z M 141.01 138.32 L 142.07 138.12 C 143.11 137.92 143.78 136.92 143.58 135.88 C 143.38 134.85 142.38 134.17 141.35 134.37 L 140.28 134.58 C 139.25 134.78 138.57 135.78 138.77 136.82 C 138.97 137.85 139.98 138.53 141.01 138.32 Z M 142.05 138.12 L 142.95 137.96 C 143.99 137.77 144.67 136.77 144.48 135.74 C 144.29 134.70 143.30 134.01 142.26 134.20 L 141.37 134.37 C 140.33 134.56 139.64 135.55 139.83 136.59 C 140.02 137.62 141.02 138.31 142.05 138.12 Z M 142.93 137.96 L 143.74 137.82 C 144.78 137.64 145.48 136.65 145.30 135.61 C 145.12 134.58 144.13 133.88 143.09 134.06 L 142.28 134.20 C 141.24 134.38 140.55 135.37 140.73 136.41 C 140.91 137.45 141.89 138.14 142.93 137.96 Z M 143.73 137.82 L 144.67 137.66 C 145.71 137.49 146.41 136.50 146.23 135.46 C 146.06 134.42 145.07 133.72 144.03 133.90 L 143.10 134.06 C 142.06 134.24 141.36 135.22 141.53 136.26 C 141.71 137.30 142.70 138.00 143.73 137.82 Z M 144.67 137.66 L 145.65 137.50 C 146.69 137.32 147.39 136.34 147.21 135.30 C 147.04 134.26 146.06 133.56 145.02 133.74 L 144.04 133.90 C 143.00 134.07 142.30 135.06 142.47 136.10 C 142.64 137.14 143.63 137.84 144.67 137.66 Z M 145.64 137.50 L 146.64 137.33 C 147.68 137.16 148.38 136.18 148.21 135.14 C 148.04 134.10 147.06 133.40 146.02 133.57 L 145.02 133.74 C 143.98 133.91 143.28 134.89 143.45 135.93 C 143.62 136.97 144.61 137.67 145.64 137.50 Z M 146.64 137.33 L 147.61 137.17 C 148.65 137.00 149.36 136.02 149.19 134.99 C 149.02 133.95 148.04 133.24 147.00 133.41 L 146.02 133.57 C 144.98 133.74 144.28 134.72 144.45 135.76 C 144.62 136.80 145.60 137.50 146.64 137.33 Z M 147.61 137.17 L 148.58 137.02 C 149.62 136.85 150.33 135.87 150.16 134.83 C 149.99 133.79 149.01 133.09 147.97 133.26 L 147.00 133.41 C 145.96 133.58 145.26 134.56 145.43 135.60 C 145.60 136.64 146.57 137.34 147.61 137.17 Z M 148.59 137.01 L 149.58 136.85 C 150.62 136.68 151.32 135.70 151.15 134.66 C 150.98 133.63 150.00 132.92 148.96 133.09 L 147.97 133.26 C 146.93 133.43 146.23 134.41 146.40 135.44 C 146.57 136.48 147.55 137.18 148.59 137.01 Z M 149.58 136.85 L 150.59 136.68 C 151.63 136.50 152.33 135.52 152.15 134.49 C 151.98 133.45 151.00 132.75 149.96 132.93 L 148.95 133.10 C 147.92 133.27 147.22 134.25 147.39 135.29 C 147.57 136.32 148.55 137.02 149.58 136.85 Z M 150.60 136.67 L 151.58 136.51 C 152.61 136.33 153.31 135.35 153.13 134.32 C 152.95 133.28 151.97 132.59 150.94 132.76 L 149.96 132.93 C 148.93 133.11 148.23 134.09 148.41 135.12 C 148.58 136.16 149.57 136.85 150.60 136.67 Z M 151.57 136.50 L 152.56 136.34 C 153.59 136.17 154.29 135.19 154.12 134.16 C 153.95 133.13 152.97 132.43 151.94 132.60 L 150.95 132.77 C 149.92 132.94 149.22 133.91 149.39 134.94 C 149.56 135.98 150.54 136.68 151.57 136.50 Z M 152.54 136.34 L 153.53 136.19 C 154.56 136.03 155.27 135.07 155.12 134.04 C 154.96 133.00 153.99 132.29 152.96 132.45 L 151.97 132.60 C 150.94 132.76 150.23 133.72 150.38 134.75 C 150.54 135.79 151.50 136.50 152.54 136.34 Z M 153.49 136.19 L 154.49 136.06 C 155.52 135.93 156.25 134.98 156.12 133.95 C 155.99 132.92 155.04 132.19 154.01 132.32 L 153.00 132.45 C 151.97 132.58 151.24 133.53 151.37 134.56 C 151.51 135.59 152.45 136.32 153.49 136.19 Z M 154.44 136.06 L 155.44 135.96 C 156.48 135.86 157.23 134.93 157.12 133.90 C 157.02 132.86 156.09 132.11 155.06 132.21 L 154.06 132.32 C 153.02 132.42 152.27 133.35 152.37 134.38 C 152.48 135.42 153.40 136.17 154.44 136.06 Z M 155.40 135.96 L 156.39 135.88 C 157.43 135.80 158.20 134.89 158.11 133.86 C 158.03 132.82 157.12 132.05 156.09 132.13 L 155.10 132.21 C 154.06 132.30 153.29 133.20 153.38 134.24 C 153.46 135.27 154.37 136.05 155.40 135.96 Z M 156.36 135.88 L 157.34 135.82 C 158.38 135.75 159.16 134.86 159.10 133.83 C 159.03 132.79 158.14 132.01 157.10 132.07 L 156.12 132.14 C 155.09 132.20 154.30 133.09 154.37 134.13 C 154.43 135.16 155.33 135.95 156.36 135.88 Z M 157.32 135.82 L 158.32 135.76 C 159.35 135.71 160.14 134.83 160.09 133.79 C 160.03 132.76 159.15 131.97 158.12 132.02 L 157.13 132.07 C 156.09 132.13 155.30 133.01 155.35 134.04 C 155.41 135.08 156.29 135.87 157.32 135.82 Z M 158.30 135.76 L 159.30 135.72 C 160.33 135.67 161.13 134.80 161.08 133.77 C 161.04 132.73 160.16 131.93 159.13 131.98 L 158.13 132.03 C 157.10 132.07 156.30 132.94 156.35 133.98 C 156.40 135.01 157.27 135.81 158.30 135.76 Z M 159.29 135.71 L 160.29 135.67 C 161.32 135.63 162.12 134.76 162.08 133.73 C 162.04 132.71 161.17 131.90 160.14 131.94 L 159.14 131.98 C 158.11 132.02 157.31 132.89 157.35 133.92 C 157.39 134.95 158.26 135.75 159.29 135.71 Z M 160.29 135.67 L 161.29 135.63 C 162.31 135.59 163.12 134.73 163.08 133.70 C 163.04 132.67 162.17 131.87 161.15 131.91 L 160.15 131.95 C 159.12 131.99 158.32 132.85 158.36 133.88 C 158.39 134.91 159.26 135.71 160.29 135.67 Z M 161.28 135.63 L 162.28 135.59 C 163.30 135.56 164.11 134.70 164.07 133.67 C 164.03 132.64 163.17 131.84 162.15 131.88 L 161.15 131.91 C 160.12 131.95 159.32 132.81 159.36 133.84 C 159.39 134.86 160.26 135.67 161.28 135.63 Z M 162.27 135.59 L 163.27 135.56 C 164.30 135.53 165.10 134.67 165.07 133.65 C 165.04 132.62 164.18 131.82 163.16 131.85 L 162.15 131.88 C 161.13 131.91 160.33 132.77 160.36 133.79 C 160.39 134.82 161.24 135.62 162.27 135.59 Z M 163.26 135.56 L 164.26 135.53 C 165.28 135.51 166.09 134.66 166.07 133.64 C 166.05 132.62 165.20 131.81 164.18 131.83 L 163.17 131.85 C 162.15 131.88 161.34 132.73 161.36 133.75 C 161.39 134.77 162.23 135.58 163.26 135.56 Z M 164.24 135.53 L 165.25 135.52 C 166.27 135.50 167.09 134.66 167.07 133.64 C 167.06 132.62 166.22 131.81 165.20 131.82 L 164.19 131.83 C 163.17 131.85 162.36 132.68 162.37 133.71 C 162.38 134.73 163.22 135.54 164.24 135.53 Z M 165.22 135.51 L 166.23 135.51 C 167.25 135.51 168.07 134.69 168.07 133.67 C 168.07 132.65 167.25 131.82 166.23 131.82 L 165.22 131.82 C 164.21 131.82 163.38 132.65 163.38 133.67 C 163.38 134.69 164.21 135.51 165.22 135.51 Z M 166.20 135.51 L 167.19 135.52 C 168.21 135.54 169.05 134.73 169.06 133.72 C 169.08 132.70 168.27 131.86 167.25 131.85 L 166.26 131.83 C 165.24 131.81 164.40 132.62 164.39 133.64 C 164.37 134.65 165.18 135.49 166.20 135.51 Z M 167.16 135.52 L 168.15 135.55 C 169.16 135.59 170.01 134.80 170.05 133.79 C 170.09 132.77 169.30 131.92 168.28 131.89 L 167.29 131.85 C 166.28 131.81 165.43 132.61 165.39 133.62 C 165.35 134.63 166.14 135.48 167.16 135.52 Z M 168.10 135.55 L 169.09 135.61 C 170.10 135.67 170.97 134.90 171.03 133.90 C 171.09 132.89 170.33 132.02 169.32 131.95 L 168.33 131.89 C 167.32 131.83 166.45 132.60 166.39 133.61 C 166.33 134.62 167.09 135.49 168.10 135.55 Z M 169.03 135.60 L 170.02 135.70 C 171.03 135.79 171.92 135.06 172.01 134.05 C 172.11 133.05 171.38 132.16 170.37 132.06 L 169.38 131.96 C 168.38 131.87 167.48 132.60 167.39 133.61 C 167.29 134.61 168.03 135.50 169.03 135.60 Z M 169.95 135.68 L 170.95 135.82 C 171.95 135.96 172.87 135.26 173.00 134.27 C 173.14 133.27 172.45 132.35 171.45 132.21 L 170.45 132.07 C 169.45 131.93 168.53 132.63 168.39 133.63 C 168.25 134.63 168.95 135.55 169.95 135.68 Z M 170.87 135.80 L 171.79 135.97 C 172.77 136.16 173.72 135.50 173.91 134.52 C 174.09 133.53 173.44 132.58 172.45 132.40 L 171.53 132.23 C 170.54 132.04 169.59 132.70 169.41 133.69 C 169.23 134.67 169.88 135.62 170.87 135.80 Z M 171.69 135.95 L 172.62 136.18 C 173.60 136.41 174.58 135.81 174.81 134.84 C 175.05 133.86 174.45 132.88 173.47 132.65 L 172.54 132.42 C 171.57 132.19 170.59 132.79 170.35 133.76 C 170.12 134.74 170.72 135.72 171.69 135.95 Z M 172.52 136.14 L 173.48 136.44 C 174.44 136.73 175.45 136.20 175.75 135.24 C 176.04 134.28 175.50 133.27 174.55 132.98 L 173.58 132.68 C 172.62 132.38 171.61 132.92 171.32 133.88 C 171.02 134.83 171.56 135.85 172.52 136.14 Z M 173.37 136.40 L 174.38 136.78 C 175.32 137.14 176.36 136.67 176.72 135.74 C 177.08 134.81 176.61 133.76 175.67 133.40 L 174.66 133.02 C 173.73 132.66 172.68 133.13 172.33 134.06 C 171.97 135.00 172.44 136.04 173.37 136.40 Z M 174.28 136.74 L 175.16 137.14 C 176.07 137.55 177.14 137.15 177.55 136.24 C 177.97 135.33 177.56 134.26 176.66 133.85 L 175.78 133.45 C 174.87 133.04 173.80 133.44 173.38 134.35 C 172.97 135.26 173.37 136.33 174.28 136.74 Z M 175.08 137.10 L 175.96 137.55 C 176.84 138.01 177.93 137.67 178.39 136.78 C 178.85 135.90 178.51 134.81 177.62 134.35 L 176.74 133.89 C 175.86 133.43 174.77 133.78 174.31 134.66 C 173.85 135.55 174.19 136.64 175.08 137.10 Z M 175.87 137.50 L 176.75 138.02 C 177.60 138.53 178.71 138.24 179.21 137.39 C 179.72 136.53 179.44 135.43 178.58 134.92 L 177.71 134.40 C 176.85 133.89 175.74 134.18 175.24 135.03 C 174.73 135.89 175.01 137.00 175.87 137.50 Z M 176.66 137.96 L 177.51 138.53 C 178.33 139.09 179.45 138.87 180.00 138.05 C 180.56 137.22 180.34 136.11 179.52 135.55 L 178.67 134.98 C 177.85 134.42 176.73 134.64 176.17 135.46 C 175.61 136.29 175.83 137.41 176.66 137.96 Z M 177.41 138.46 L 178.21 139.08 C 178.99 139.69 180.12 139.55 180.73 138.77 C 181.34 137.98 181.20 136.85 180.42 136.24 L 179.62 135.62 C 178.83 135.01 177.70 135.15 177.09 135.94 C 176.48 136.72 176.62 137.85 177.41 138.46 Z M 178.10 138.99 L 178.86 139.68 C 179.60 140.35 180.73 140.30 181.40 139.57 C 182.07 138.83 182.02 137.70 181.28 137.03 L 180.52 136.34 C 179.79 135.67 178.65 135.72 177.99 136.45 C 177.32 137.19 177.37 138.32 178.10 138.99 Z M 178.76 139.57 L 179.44 140.31 C 180.11 141.04 181.25 141.08 181.97 140.41 C 182.70 139.74 182.74 138.61 182.07 137.88 L 181.39 137.14 C 180.72 136.41 179.58 136.37 178.86 137.04 C 178.13 137.71 178.09 138.85 178.76 139.57 Z M 179.34 140.19 L 179.95 140.98 C 180.56 141.76 181.68 141.90 182.46 141.29 C 183.24 140.69 183.38 139.57 182.78 138.79 L 182.17 138.00 C 181.57 137.22 180.44 137.08 179.66 137.68 C 178.88 138.29 178.74 139.41 179.34 140.19 Z M 179.86 140.84 L 180.40 141.67 C 180.93 142.50 182.03 142.74 182.86 142.21 C 183.69 141.68 183.93 140.58 183.40 139.75 L 182.87 138.92 C 182.33 138.09 181.23 137.85 180.40 138.38 C 179.57 138.91 179.33 140.02 179.86 140.84 Z M 180.32 141.53 L 180.77 142.40 C 181.23 143.28 182.30 143.61 183.17 143.16 C 184.05 142.70 184.38 141.63 183.93 140.76 L 183.47 139.89 C 183.02 139.02 181.94 138.68 181.07 139.13 C 180.20 139.59 179.86 140.66 180.32 141.53 Z M 180.71 142.26 L 181.09 143.18 C 181.47 144.08 182.51 144.51 183.41 144.14 C 184.32 143.76 184.75 142.72 184.37 141.81 L 183.99 140.90 C 183.61 139.99 182.57 139.57 181.67 139.94 C 180.76 140.32 180.34 141.36 180.71 142.26 Z M 181.05 143.05 L 181.36 143.99 C 181.66 144.92 182.66 145.43 183.59 145.13 C 184.52 144.82 185.03 143.82 184.73 142.89 L 184.42 141.95 C 184.11 141.02 183.11 140.51 182.18 140.81 C 181.25 141.12 180.74 142.12 181.05 143.05 Z M 181.33 143.87 L 181.57 144.85 C 181.81 145.79 182.77 146.37 183.71 146.13 C 184.66 145.90 185.24 144.94 185.00 143.99 L 184.76 143.02 C 184.52 142.07 183.56 141.49 182.61 141.73 C 181.67 141.97 181.09 142.93 181.33 143.87 Z M 181.55 144.74 L 181.73 145.73 C 181.91 146.68 182.83 147.32 183.79 147.14 C 184.75 146.97 185.38 146.05 185.20 145.09 L 185.02 144.10 C 184.84 143.14 183.92 142.51 182.97 142.68 C 182.01 142.86 181.37 143.78 181.55 144.74 Z M 181.72 145.63 L 181.85 146.66 C 181.97 147.62 182.85 148.31 183.81 148.19 C 184.78 148.07 185.46 147.19 185.34 146.22 L 185.21 145.19 C 185.09 144.22 184.21 143.54 183.25 143.66 C 182.28 143.78 181.60 144.66 181.72 145.63 Z M 181.84 146.56 L 181.92 147.61 C 181.98 148.58 182.82 149.31 183.79 149.25 C 184.76 149.18 185.49 148.34 185.42 147.37 L 185.35 146.32 C 185.28 145.35 184.44 144.62 183.48 144.69 C 182.51 144.75 181.78 145.59 181.84 146.56 Z M 181.92 147.51 L 181.93 148.54 C 181.94 149.51 182.73 150.28 183.70 150.27 C 184.67 150.26 185.44 149.46 185.43 148.50 L 185.42 147.47 C 185.41 146.51 184.62 145.73 183.65 145.74 C 182.68 145.75 181.91 146.55 181.92 147.51 Z M 181.94 148.43 L 181.89 149.40 C 181.84 150.36 182.58 151.18 183.54 151.23 C 184.51 151.28 185.33 150.54 185.38 149.58 L 185.43 148.61 C 185.47 147.64 184.73 146.82 183.77 146.77 C 182.80 146.72 181.98 147.47 181.94 148.43 Z M 181.90 149.27 L 181.79 150.19 C 181.67 151.15 182.35 152.02 183.30 152.13 C 184.26 152.25 185.13 151.57 185.25 150.62 L 185.36 149.70 C 185.48 148.75 184.80 147.88 183.85 147.76 C 182.89 147.64 182.02 148.32 181.90 149.27 Z M 181.83 150.02 L 181.58 151.07 C 181.37 152.01 181.96 152.94 182.89 153.15 C 183.83 153.37 184.76 152.78 184.97 151.85 L 185.21 150.79 C 185.43 149.86 184.84 148.92 183.91 148.71 C 182.97 148.50 182.04 149.08 181.83 150.02 Z M 181.64 150.89 L 181.32 151.82 C 181.01 152.72 181.48 153.71 182.38 154.02 C 183.29 154.34 184.27 153.86 184.59 152.96 L 184.91 152.03 C 185.22 151.13 184.75 150.14 183.85 149.83 C 182.95 149.51 181.96 149.99 181.64 150.89 Z M 181.38 151.69 L 181.00 152.54 C 180.61 153.41 181.01 154.43 181.87 154.81 C 182.74 155.20 183.76 154.81 184.15 153.94 L 184.53 153.09 C 184.91 152.22 184.52 151.20 183.65 150.81 C 182.79 150.43 181.77 150.82 181.38 151.69 Z M 181.04 152.47 L 180.61 153.34 C 180.18 154.19 180.53 155.22 181.37 155.64 C 182.22 156.07 183.25 155.72 183.67 154.87 L 184.11 154.01 C 184.53 153.16 184.19 152.13 183.34 151.71 C 182.49 151.28 181.46 151.63 181.04 152.47 Z M 180.64 153.29 L 180.16 154.16 C 179.71 154.99 180.02 156.03 180.85 156.48 C 181.68 156.93 182.72 156.63 183.17 155.80 L 183.64 154.93 C 184.09 154.10 183.79 153.06 182.96 152.60 C 182.13 152.15 181.09 152.46 180.64 153.29 Z M 180.20 154.11 L 179.68 154.98 C 179.20 155.79 179.47 156.84 180.28 157.32 C 181.09 157.80 182.14 157.53 182.62 156.72 L 183.13 155.85 C 183.62 155.04 183.35 153.99 182.54 153.51 C 181.73 153.03 180.68 153.30 180.20 154.11 Z M 179.72 154.93 L 179.19 155.75 C 178.68 156.54 178.91 157.60 179.70 158.10 C 180.49 158.61 181.54 158.38 182.05 157.59 L 182.58 156.77 C 183.09 155.98 182.86 154.93 182.07 154.42 C 181.28 153.91 180.23 154.14 179.72 154.93 Z M 179.22 155.72 L 178.66 156.53 C 178.14 157.30 178.33 158.36 179.11 158.89 C 179.88 159.42 180.94 159.22 181.47 158.44 L 182.02 157.63 C 182.55 156.86 182.35 155.80 181.58 155.27 C 180.80 154.74 179.75 154.94 179.22 155.72 Z M 178.68 156.50 L 178.10 157.33 C 177.55 158.10 177.73 159.15 178.50 159.70 C 179.26 160.24 180.32 160.06 180.86 159.29 L 181.45 158.47 C 181.99 157.70 181.81 156.65 181.05 156.10 C 180.28 155.56 179.23 155.74 178.68 156.50 Z M 178.11 157.32 L 177.51 158.16 C 176.96 158.91 177.13 159.97 177.88 160.52 C 178.64 161.06 179.69 160.89 180.24 160.14 L 180.85 159.31 C 181.39 158.55 181.22 157.49 180.47 156.95 C 179.71 156.40 178.66 156.57 178.11 157.32 Z M 177.52 158.15 L 176.92 158.96 C 176.37 159.71 176.53 160.76 177.28 161.31 C 178.03 161.86 179.09 161.70 179.64 160.95 L 180.23 160.15 C 180.78 159.40 180.62 158.34 179.87 157.79 C 179.12 157.24 178.07 157.40 177.52 158.15 Z M 176.94 158.94 L 176.33 159.75 C 175.77 160.49 175.92 161.55 176.66 162.10 C 177.41 162.66 178.46 162.51 179.02 161.77 L 179.62 160.96 C 180.18 160.22 180.03 159.17 179.29 158.61 C 178.55 158.05 177.50 158.20 176.94 158.94 Z M 176.35 159.73 L 175.74 160.52 C 175.17 161.25 175.30 162.30 176.03 162.87 C 176.76 163.44 177.82 163.31 178.38 162.58 L 179.00 161.79 C 179.57 161.06 179.43 160.01 178.70 159.44 C 177.97 158.87 176.92 159.00 176.35 159.73 Z M 175.77 160.49 L 175.13 161.27 C 174.54 161.99 174.65 163.04 175.37 163.63 C 176.08 164.21 177.13 164.10 177.72 163.39 L 178.36 162.61 C 178.94 161.89 178.83 160.84 178.12 160.25 C 177.40 159.67 176.35 159.78 175.77 160.49 Z M 175.16 161.24 L 174.50 162.00 C 173.90 162.70 173.98 163.75 174.68 164.36 C 175.38 164.96 176.43 164.88 177.03 164.18 L 177.69 163.42 C 178.29 162.72 178.21 161.67 177.51 161.07 C 176.81 160.47 175.76 160.54 175.16 161.24 Z M 174.54 161.97 L 173.87 162.70 C 173.25 163.38 173.30 164.44 173.98 165.06 C 174.66 165.67 175.71 165.62 176.33 164.94 L 177.00 164.21 C 177.62 163.53 177.57 162.48 176.89 161.86 C 176.21 161.24 175.15 161.29 174.54 161.97 Z M 173.90 162.68 L 173.22 163.39 C 172.58 164.05 172.61 165.10 173.27 165.74 C 173.93 166.37 174.98 166.35 175.62 165.69 L 176.30 164.97 C 176.93 164.31 176.91 163.26 176.25 162.62 C 175.59 161.99 174.54 162.01 173.90 162.68 Z M 173.25 163.37 L 172.54 164.07 C 171.89 164.72 171.89 165.77 172.54 166.42 C 173.18 167.06 174.23 167.06 174.88 166.42 L 175.59 165.71 C 176.24 165.07 176.24 164.02 175.59 163.37 C 174.94 162.72 173.89 162.72 173.25 163.37 Z M 172.56 164.05 L 171.84 164.75 C 171.18 165.38 171.16 166.43 171.80 167.09 C 172.43 167.74 173.48 167.76 174.13 167.13 L 174.86 166.44 C 175.51 165.80 175.54 164.76 174.90 164.10 C 174.27 163.44 173.22 163.42 172.56 164.05 Z M 171.86 164.73 L 171.13 165.42 C 170.46 166.04 170.43 167.08 171.05 167.75 C 171.67 168.42 172.72 168.45 173.39 167.83 L 174.12 167.14 C 174.78 166.52 174.82 165.48 174.19 164.81 C 173.57 164.15 172.53 164.11 171.86 164.73 Z M 171.14 165.41 L 170.40 166.09 C 169.73 166.70 169.68 167.75 170.30 168.42 C 170.91 169.09 171.96 169.13 172.63 168.52 L 173.37 167.84 C 174.04 167.22 174.09 166.18 173.47 165.51 C 172.86 164.84 171.81 164.79 171.14 165.41 Z M 170.42 166.08 L 169.67 166.74 C 168.99 167.35 168.93 168.39 169.53 169.07 C 170.14 169.75 171.18 169.81 171.86 169.20 L 172.61 168.53 C 173.29 167.93 173.35 166.89 172.74 166.21 C 172.14 165.53 171.10 165.47 170.42 166.08 Z M 169.70 166.72 L 168.94 167.37 C 168.25 167.96 168.17 168.99 168.76 169.69 C 169.34 170.38 170.38 170.46 171.07 169.87 L 171.83 169.22 C 172.52 168.64 172.60 167.60 172.01 166.91 C 171.42 166.22 170.39 166.13 169.70 166.72 Z M 168.98 167.34 L 168.20 167.96 C 167.49 168.53 167.38 169.56 167.95 170.27 C 168.52 170.98 169.55 171.09 170.26 170.52 L 171.03 169.90 C 171.74 169.33 171.85 168.30 171.29 167.59 C 170.72 166.88 169.69 166.77 168.98 167.34 Z M 168.25 167.93 L 167.44 168.53 C 166.71 169.08 166.56 170.10 167.11 170.83 C 167.65 171.55 168.68 171.70 169.40 171.16 L 170.21 170.56 C 170.94 170.01 171.08 168.99 170.54 168.26 C 170.00 167.54 168.97 167.39 168.25 167.93 Z M 167.48 168.50 L 166.66 169.08 C 165.92 169.60 165.74 170.62 166.26 171.36 C 166.78 172.10 167.80 172.28 168.54 171.76 L 169.36 171.19 C 170.10 170.67 170.28 169.65 169.76 168.91 C 169.24 168.17 168.22 167.99 167.48 168.50 Z M 166.70 169.05 L 165.88 169.60 C 165.12 170.10 164.92 171.11 165.42 171.87 C 165.92 172.62 166.93 172.83 167.69 172.33 L 168.51 171.78 C 169.26 171.29 169.47 170.27 168.97 169.51 C 168.47 168.76 167.45 168.55 166.70 169.05 Z M 165.91 169.58 L 165.07 170.11 C 164.30 170.59 164.07 171.61 164.56 172.37 C 165.04 173.13 166.05 173.36 166.82 172.88 L 167.66 172.35 C 168.42 171.86 168.65 170.85 168.17 170.09 C 167.68 169.32 166.67 169.10 165.91 169.58 Z M 165.09 170.10 L 164.24 170.62 C 163.47 171.09 163.22 172.10 163.69 172.87 C 164.17 173.64 165.17 173.88 165.95 173.41 L 166.79 172.89 C 167.57 172.42 167.81 171.41 167.34 170.64 C 166.87 169.87 165.86 169.63 165.09 170.10 Z M 164.25 170.61 L 163.38 171.13 C 162.61 171.59 162.36 172.60 162.82 173.37 C 163.28 174.15 164.29 174.40 165.07 173.94 L 165.93 173.42 C 166.71 172.95 166.96 171.95 166.50 171.17 C 166.03 170.40 165.03 170.14 164.25 170.61 Z M 163.39 171.12 L 162.61 171.59 C 161.83 172.04 161.57 173.05 162.02 173.83 C 162.48 174.61 163.49 174.87 164.27 174.41 L 165.06 173.94 C 165.83 173.48 166.09 172.48 165.64 171.70 C 165.18 170.92 164.17 170.66 163.39 171.12 Z M 162.64 171.56 L 161.80 172.03 C 161.01 172.47 160.72 173.46 161.16 174.25 C 161.60 175.04 162.59 175.33 163.39 174.89 L 164.23 174.43 C 165.02 173.99 165.31 173.00 164.87 172.21 C 164.43 171.41 163.44 171.13 162.64 171.56 Z M 161.87 171.99 L 160.94 172.45 C 160.13 172.85 159.79 173.83 160.19 174.64 C 160.59 175.45 161.57 175.79 162.38 175.39 L 163.32 174.93 C 164.13 174.53 164.46 173.55 164.06 172.74 C 163.67 171.93 162.68 171.59 161.87 171.99 Z M 161.03 172.41 L 160.06 172.82 C 159.22 173.17 158.83 174.13 159.18 174.96 C 159.53 175.80 160.49 176.19 161.33 175.84 L 162.30 175.43 C 163.13 175.08 163.52 174.12 163.17 173.28 C 162.82 172.45 161.86 172.06 161.03 172.41 Z M 160.13 172.79 L 159.24 173.11 C 158.39 173.42 157.95 174.36 158.25 175.21 C 158.56 176.06 159.50 176.50 160.35 176.19 L 161.25 175.87 C 162.10 175.56 162.54 174.62 162.23 173.77 C 161.92 172.92 160.98 172.48 160.13 172.79 Z M 159.30 173.09 L 158.34 173.39 C 157.48 173.67 157.00 174.59 157.28 175.45 C 157.55 176.31 158.47 176.79 159.33 176.52 L 160.29 176.21 C 161.15 175.94 161.63 175.02 161.35 174.16 C 161.08 173.30 160.16 172.82 159.30 173.09 Z M 158.40 173.38 L 157.41 173.65 C 156.54 173.89 156.02 174.79 156.26 175.66 C 156.50 176.53 157.40 177.05 158.28 176.81 L 159.27 176.53 C 160.14 176.29 160.65 175.39 160.41 174.52 C 160.18 173.65 159.27 173.14 158.40 173.38 Z M 157.47 173.63 L 156.46 173.87 C 155.58 174.07 155.04 174.95 155.24 175.84 C 155.45 176.72 156.33 177.26 157.21 177.06 L 158.22 176.82 C 159.10 176.62 159.64 175.74 159.44 174.85 C 159.23 173.97 158.35 173.43 157.47 173.63 Z M 156.53 173.85 L 155.51 174.05 C 154.62 174.22 154.04 175.08 154.21 175.96 C 154.38 176.85 155.24 177.43 156.13 177.26 L 157.14 177.07 C 158.03 176.90 158.61 176.04 158.44 175.16 C 158.28 174.27 157.42 173.69 156.53 173.85 Z M 155.58 174.04 L 154.57 174.19 C 153.67 174.32 153.06 175.15 153.19 176.05 C 153.32 176.94 154.15 177.56 155.05 177.43 L 156.06 177.28 C 156.95 177.14 157.57 176.31 157.44 175.42 C 157.31 174.52 156.47 173.90 155.58 174.04 Z M 154.63 174.18 L 153.63 174.29 C 152.74 174.39 152.09 175.20 152.19 176.10 C 152.29 177.00 153.10 177.64 154.00 177.54 L 154.99 177.43 C 155.89 177.33 156.54 176.52 156.44 175.63 C 156.34 174.73 155.53 174.08 154.63 174.18 Z M 153.68 174.29 L 152.71 174.36 C 151.81 174.44 151.13 175.22 151.20 176.13 C 151.28 177.03 152.07 177.70 152.97 177.63 L 153.94 177.55 C 154.85 177.48 155.52 176.69 155.45 175.79 C 155.37 174.89 154.59 174.21 153.68 174.29 Z M 152.75 174.36 L 151.78 174.41 C 150.88 174.46 150.18 175.23 150.23 176.14 C 150.28 177.04 151.05 177.73 151.96 177.68 L 152.93 177.63 C 153.83 177.58 154.52 176.81 154.47 175.91 C 154.42 175.00 153.65 174.31 152.75 174.36 Z M 151.81 174.41 L 150.80 174.45 C 149.89 174.48 149.19 175.24 149.22 176.14 C 149.25 177.04 150.01 177.75 150.91 177.72 L 151.92 177.68 C 152.83 177.65 153.53 176.90 153.50 175.99 C 153.47 175.09 152.71 174.38 151.81 174.41 Z M 150.82 174.45 L 149.82 174.46 C 148.92 174.48 148.20 175.23 148.22 176.13 C 148.23 177.04 148.98 177.76 149.88 177.74 L 150.88 177.72 C 151.79 177.70 152.51 176.96 152.49 176.05 C 152.47 175.15 151.73 174.43 150.82 174.45 Z M 149.84 174.46 L 148.85 174.47 C 147.94 174.48 147.21 175.22 147.22 176.12 C 147.23 177.03 147.97 177.75 148.87 177.75 L 149.86 177.74 C 150.77 177.73 151.50 176.99 151.49 176.09 C 151.48 175.19 150.74 174.46 149.84 174.46 Z M 148.86 174.47 L 147.86 174.47 C 146.96 174.48 146.23 175.21 146.23 176.11 C 146.23 177.02 146.97 177.75 147.87 177.75 L 148.86 177.75 C 149.76 177.74 150.50 177.01 150.49 176.11 C 150.49 175.20 149.76 174.47 148.86 174.47 Z M 147.87 174.47 L 147.66 174.47 C 146.76 174.47 146.02 175.21 146.02 176.11 C 146.02 177.01 146.76 177.75 147.66 177.75 L 147.87 177.75 C 148.77 177.75 149.50 177.01 149.50 176.11 C 149.50 175.21 148.77 174.47 147.87 174.47 Z"
      fill="black"
      fill-rule="nonzero" /><path d="M 137.43 148.12 L 137.43 149.08 C 137.43 150.04 138.21 150.82 139.17 150.82 C 140.14 150.82 140.92 150.04 140.92 149.08 L 140.92 148.12 C 140.92 147.16 140.14 146.38 139.17 146.38 C 138.21 146.38 137.43 147.16 137.43 148.12 Z M 137.42 149.08 L 137.42 150.06 C 137.42 151.03 138.20 151.82 139.17 151.82 C 140.14 151.82 140.93 151.03 140.93 150.06 L 140.93 149.08 C 140.93 148.11 140.14 147.32 139.17 147.32 C 138.20 147.32 137.42 148.11 137.42 149.08 Z M 137.40 150.06 L 137.40 151.09 C 137.40 152.07 138.20 152.86 139.17 152.86 C 140.15 152.86 140.94 152.07 140.94 151.09 L 140.94 150.06 C 140.94 149.08 140.15 148.29 139.17 148.29 C 138.20 148.29 137.40 149.08 137.40 150.06 Z M 137.40 151.09 L 137.40 152.08 C 137.40 153.07 138.19 153.86 139.17 153.86 C 140.16 153.86 140.95 153.06 140.95 152.08 L 140.95 151.09 C 140.95 150.11 140.15 149.31 139.17 149.31 C 138.19 149.31 137.39 150.11 137.40 151.09 Z M 137.39 152.10 L 137.40 153.08 C 137.41 154.06 138.21 154.85 139.20 154.85 C 140.18 154.84 140.97 154.03 140.96 153.05 L 140.95 152.07 C 140.95 151.08 140.14 150.29 139.16 150.30 C 138.18 150.31 137.39 151.11 137.39 152.10 Z M 137.40 153.11 L 137.43 154.13 C 137.45 155.11 138.27 155.89 139.25 155.86 C 140.24 155.84 141.01 155.02 140.99 154.03 L 140.96 153.02 C 140.94 152.04 140.12 151.26 139.14 151.29 C 138.15 151.31 137.38 152.13 137.40 153.11 Z M 137.43 154.17 L 137.48 155.20 C 137.54 156.18 138.37 156.94 139.36 156.89 C 140.34 156.83 141.09 156.00 141.04 155.01 L 140.99 153.99 C 140.93 153.00 140.09 152.25 139.11 152.30 C 138.13 152.35 137.38 153.19 137.43 154.17 Z M 137.49 155.27 L 137.57 156.20 C 137.66 157.18 138.53 157.90 139.50 157.81 C 140.48 157.72 141.20 156.86 141.12 155.88 L 141.03 154.95 C 140.95 153.97 140.08 153.25 139.10 153.34 C 138.13 153.42 137.40 154.29 137.49 155.27 Z M 137.59 156.26 L 137.70 157.17 C 137.83 158.14 138.72 158.83 139.69 158.71 C 140.66 158.58 141.34 157.70 141.22 156.73 L 141.10 155.81 C 140.98 154.84 140.09 154.16 139.12 154.28 C 138.15 154.41 137.46 155.29 137.59 156.26 Z M 137.72 157.23 L 137.88 158.19 C 138.03 159.15 138.94 159.80 139.90 159.65 C 140.86 159.49 141.51 158.59 141.36 157.62 L 141.20 156.67 C 141.05 155.70 140.14 155.05 139.18 155.21 C 138.22 155.36 137.56 156.27 137.72 157.23 Z M 137.89 158.24 L 138.09 159.28 C 138.28 160.23 139.20 160.85 140.15 160.67 C 141.10 160.49 141.73 159.56 141.54 158.61 L 141.34 157.57 C 141.16 156.62 140.24 156.00 139.28 156.18 C 138.33 156.37 137.71 157.29 137.89 158.24 Z M 138.11 159.31 L 138.34 160.39 C 138.54 161.34 139.47 161.94 140.42 161.73 C 141.36 161.53 141.96 160.60 141.76 159.66 L 141.53 158.58 C 141.32 157.63 140.39 157.03 139.45 157.23 C 138.50 157.44 137.90 158.37 138.11 159.31 Z M 138.35 160.42 L 138.56 161.30 C 138.77 162.24 139.71 162.83 140.65 162.61 C 141.58 162.39 142.17 161.46 141.95 160.52 L 141.75 159.63 C 141.53 158.70 140.60 158.11 139.66 158.33 C 138.72 158.54 138.14 159.48 138.35 160.42 Z M 138.57 161.32 L 138.79 162.26 C 139.02 163.19 139.96 163.76 140.89 163.54 C 141.82 163.31 142.39 162.38 142.17 161.45 L 141.94 160.51 C 141.72 159.57 140.78 159.00 139.85 159.23 C 138.92 159.45 138.34 160.39 138.57 161.32 Z M 138.80 162.27 L 139.05 163.25 C 139.28 164.18 140.22 164.74 141.15 164.51 C 142.07 164.27 142.63 163.34 142.40 162.41 L 142.16 161.43 C 141.93 160.51 140.99 159.94 140.06 160.18 C 139.14 160.41 138.57 161.35 138.80 162.27 Z M 139.06 163.26 L 139.32 164.26 C 139.56 165.18 140.50 165.74 141.42 165.50 C 142.34 165.26 142.89 164.32 142.65 163.40 L 142.39 162.40 C 142.15 161.48 141.21 160.93 140.29 161.16 C 139.37 161.40 138.82 162.34 139.06 163.26 Z M 139.33 164.27 L 139.60 165.29 C 139.84 166.20 140.78 166.75 141.70 166.50 C 142.61 166.26 143.16 165.32 142.91 164.40 L 142.64 163.39 C 142.40 162.48 141.46 161.93 140.54 162.18 C 139.63 162.42 139.09 163.36 139.33 164.27 Z M 139.61 165.30 L 139.89 166.31 C 140.14 167.22 141.08 167.75 141.99 167.50 C 142.90 167.25 143.43 166.31 143.18 165.40 L 142.90 164.39 C 142.65 163.48 141.71 162.95 140.80 163.20 C 139.89 163.45 139.36 164.39 139.61 165.30 Z M 139.90 166.32 L 140.20 167.37 C 140.45 168.27 141.39 168.79 142.30 168.54 C 143.20 168.28 143.72 167.34 143.47 166.44 L 143.17 165.39 C 142.91 164.49 141.97 163.96 141.07 164.22 C 140.17 164.48 139.64 165.42 139.90 166.32 Z M 140.21 167.38 L 140.52 168.41 C 140.78 169.30 141.72 169.81 142.61 169.55 C 143.51 169.29 144.02 168.35 143.76 167.45 L 143.45 166.42 C 143.19 165.53 142.25 165.02 141.35 165.28 C 140.46 165.55 139.95 166.49 140.21 167.38 Z M 140.53 168.43 L 140.84 169.42 C 141.11 170.30 142.05 170.80 142.94 170.53 C 143.82 170.25 144.32 169.31 144.05 168.43 L 143.74 167.43 C 143.47 166.55 142.53 166.05 141.64 166.33 C 140.75 166.60 140.26 167.54 140.53 168.43 Z M 140.86 169.44 L 141.16 170.39 C 141.45 171.26 142.39 171.74 143.27 171.46 C 144.14 171.17 144.62 170.23 144.34 169.35 L 144.03 168.41 C 143.74 167.53 142.80 167.05 141.93 167.34 C 141.05 167.62 140.57 168.56 140.86 169.44 Z M 141.18 170.41 L 141.49 171.31 C 141.79 172.17 142.74 172.63 143.60 172.33 C 144.47 172.03 144.93 171.08 144.63 170.22 L 144.32 169.33 C 144.02 168.46 143.07 168.00 142.21 168.30 C 141.34 168.60 140.88 169.55 141.18 170.41 Z M 141.52 171.34 L 141.83 172.17 C 142.14 173.02 143.10 173.46 143.95 173.14 C 144.80 172.82 145.24 171.87 144.92 171.02 L 144.61 170.19 C 144.29 169.33 143.34 168.90 142.48 169.22 C 141.63 169.54 141.20 170.49 141.52 171.34 Z M 141.85 172.22 L 142.27 173.23 C 142.61 174.07 143.57 174.47 144.41 174.12 C 145.25 173.77 145.65 172.81 145.31 171.97 L 144.89 170.97 C 144.55 170.13 143.58 169.73 142.75 170.08 C 141.91 170.42 141.51 171.38 141.85 172.22 Z M 142.29 173.28 L 142.73 174.23 C 143.10 175.05 144.08 175.41 144.90 175.03 C 145.73 174.66 146.09 173.68 145.71 172.86 L 145.28 171.92 C 144.90 171.09 143.93 170.73 143.10 171.11 C 142.28 171.49 141.92 172.46 142.29 173.28 Z M 142.75 174.28 L 143.18 175.14 C 143.59 175.95 144.57 176.28 145.38 175.87 C 146.19 175.47 146.52 174.48 146.12 173.67 L 145.68 172.81 C 145.28 172.00 144.29 171.67 143.48 172.08 C 142.68 172.48 142.35 173.47 142.75 174.28 Z M 143.20 175.17 L 143.63 175.99 C 144.06 176.79 145.05 177.10 145.85 176.67 C 146.65 176.25 146.95 175.26 146.53 174.46 L 146.10 173.64 C 145.68 172.84 144.69 172.54 143.89 172.96 C 143.09 173.38 142.78 174.37 143.20 175.17 Z M 143.64 176.00 L 143.83 176.36 C 144.26 177.15 145.25 177.45 146.05 177.02 C 146.85 176.59 147.14 175.60 146.72 174.80 L 146.52 174.45 C 146.10 173.65 145.10 173.35 144.31 173.78 C 143.51 174.21 143.21 175.20 143.64 176.00 Z"
      fill="black"
      fill-rule="nonzero" /><path d="M 152.31 149.62 L 152.55 150.54 C 152.79 151.49 153.76 152.06 154.70 151.81 C 155.65 151.57 156.22 150.61 155.98 149.66 L 155.74 148.74 C 155.50 147.80 154.53 147.23 153.59 147.47 C 152.64 147.71 152.07 148.67 152.31 149.62 Z M 152.53 150.53 L 152.76 151.47 C 153.00 152.43 153.97 153.01 154.92 152.78 C 155.88 152.54 156.47 151.57 156.23 150.61 L 156.00 149.67 C 155.76 148.72 154.79 148.13 153.83 148.37 C 152.88 148.61 152.29 149.57 152.53 150.53 Z M 152.74 151.45 L 152.96 152.42 C 153.18 153.39 154.15 154.00 155.12 153.77 C 156.09 153.55 156.70 152.58 156.48 151.61 L 156.25 150.64 C 156.03 149.67 155.06 149.06 154.09 149.28 C 153.12 149.51 152.51 150.47 152.74 151.45 Z M 152.93 152.38 L 153.14 153.40 C 153.34 154.39 154.31 155.02 155.30 154.82 C 156.28 154.62 156.92 153.65 156.72 152.67 L 156.51 151.65 C 156.30 150.66 155.34 150.02 154.35 150.23 C 153.36 150.43 152.73 151.39 152.93 152.38 Z M 153.12 153.36 L 153.30 154.35 C 153.47 155.35 154.43 156.02 155.43 155.84 C 156.43 155.66 157.09 154.70 156.92 153.70 L 156.74 152.71 C 156.56 151.71 155.61 151.05 154.61 151.22 C 153.61 151.40 152.94 152.36 153.12 153.36 Z M 153.28 154.31 L 153.43 155.27 C 153.59 156.28 154.53 156.96 155.54 156.81 C 156.55 156.65 157.24 155.71 157.08 154.70 L 156.93 153.74 C 156.77 152.73 155.83 152.05 154.82 152.20 C 153.81 152.36 153.12 153.30 153.28 154.31 Z M 153.42 155.24 L 153.56 156.23 C 153.70 157.24 154.64 157.95 155.65 157.81 C 156.66 157.66 157.37 156.73 157.23 155.72 L 157.09 154.73 C 156.94 153.71 156.01 153.01 155.00 153.15 C 153.99 153.29 153.28 154.23 153.42 155.24 Z M 153.56 156.21 L 153.69 157.22 C 153.82 158.24 154.75 158.95 155.77 158.82 C 156.78 158.69 157.50 157.76 157.36 156.74 L 157.23 155.73 C 157.10 154.72 156.17 154.00 155.15 154.14 C 154.14 154.27 153.42 155.20 153.56 156.21 Z M 153.68 157.21 L 153.81 158.23 C 153.94 159.25 154.87 159.97 155.88 159.85 C 156.90 159.72 157.62 158.79 157.50 157.77 L 157.37 156.75 C 157.24 155.74 156.31 155.02 155.30 155.14 C 154.28 155.27 153.56 156.20 153.68 157.21 Z M 153.81 158.23 L 153.93 159.22 C 154.06 160.24 154.98 160.97 156.00 160.84 C 157.02 160.71 157.75 159.79 157.62 158.77 L 157.50 157.78 C 157.37 156.76 156.44 156.03 155.43 156.16 C 154.41 156.28 153.68 157.21 153.81 158.23 Z M 153.93 159.22 L 154.04 160.12 C 154.17 161.14 155.10 161.87 156.12 161.74 C 157.14 161.62 157.86 160.69 157.73 159.67 L 157.62 158.77 C 157.49 157.75 156.57 157.02 155.55 157.15 C 154.53 157.27 153.80 158.20 153.93 159.22 Z M 154.04 160.12 L 154.16 161.04 C 154.28 162.06 155.21 162.78 156.23 162.66 C 157.25 162.53 157.97 161.60 157.85 160.58 L 157.73 159.67 C 157.61 158.65 156.68 157.92 155.66 158.05 C 154.64 158.18 153.92 159.11 154.04 160.12 Z M 154.16 161.04 L 154.27 161.99 C 154.40 163.01 155.32 163.73 156.34 163.61 C 157.36 163.48 158.09 162.56 157.96 161.54 L 157.84 160.59 C 157.72 159.57 156.79 158.84 155.77 158.97 C 154.76 159.09 154.03 160.02 154.16 161.04 Z M 154.27 161.98 L 154.39 162.99 C 154.51 164.01 155.44 164.74 156.46 164.61 C 157.48 164.49 158.20 163.57 158.08 162.55 L 157.96 161.54 C 157.84 160.52 156.91 159.80 155.90 159.92 C 154.88 160.04 154.15 160.96 154.27 161.98 Z M 154.39 162.98 L 154.52 164.07 C 154.64 165.08 155.56 165.81 156.58 165.70 C 157.59 165.58 158.32 164.66 158.21 163.64 L 158.08 162.56 C 157.96 161.54 157.04 160.81 156.02 160.93 C 155.00 161.04 154.27 161.96 154.39 162.98 Z M 154.52 164.06 L 154.64 165.13 C 154.75 166.15 155.67 166.88 156.69 166.77 C 157.71 166.65 158.44 165.74 158.33 164.72 L 158.21 163.65 C 158.09 162.63 157.17 161.89 156.16 162.01 C 155.14 162.12 154.40 163.04 154.52 164.06 Z M 154.64 165.13 L 154.73 165.98 C 154.85 167.00 155.76 167.73 156.78 167.62 C 157.79 167.51 158.53 166.60 158.42 165.58 L 158.32 164.72 C 158.21 163.71 157.30 162.97 156.28 163.08 C 155.26 163.19 154.53 164.11 154.64 165.13 Z M 154.74 165.98 L 154.83 166.88 C 154.94 167.90 155.86 168.63 156.87 168.52 C 157.89 168.41 158.62 167.50 158.51 166.49 L 158.42 165.58 C 158.31 164.57 157.39 163.83 156.38 163.94 C 155.36 164.05 154.63 164.96 154.74 165.98 Z M 154.84 166.88 L 154.94 167.83 C 155.05 168.84 155.96 169.57 156.97 169.47 C 157.98 169.36 158.72 168.45 158.61 167.43 L 158.51 166.49 C 158.40 165.47 157.49 164.74 156.48 164.85 C 155.46 164.96 154.73 165.87 154.84 166.88 Z M 154.94 167.83 L 155.05 168.81 C 155.16 169.82 156.06 170.56 157.08 170.45 C 158.09 170.34 158.82 169.43 158.71 168.42 L 158.61 167.43 C 158.50 166.42 157.59 165.69 156.58 165.80 C 155.57 165.91 154.83 166.81 154.94 167.83 Z M 155.05 168.81 L 155.16 169.83 C 155.27 170.84 156.18 171.57 157.19 171.46 C 158.20 171.36 158.93 170.45 158.82 169.44 L 158.71 168.42 C 158.60 167.41 157.69 166.68 156.68 166.79 C 155.67 166.89 154.94 167.80 155.05 168.81 Z M 155.16 169.83 L 155.28 170.88 C 155.39 171.89 156.29 172.62 157.30 172.51 C 158.31 172.40 159.04 171.50 158.93 170.49 L 158.82 169.44 C 158.71 168.43 157.80 167.70 156.79 167.81 C 155.78 167.92 155.05 168.82 155.16 169.83 Z M 155.28 170.89 L 155.40 171.96 C 155.51 172.97 156.42 173.70 157.42 173.59 C 158.43 173.47 159.16 172.57 159.04 171.56 L 158.93 170.48 C 158.81 169.48 157.91 168.75 156.90 168.86 C 155.90 168.97 155.17 169.88 155.28 170.89 Z M 155.40 171.97 L 155.53 173.07 C 155.64 174.07 156.55 174.80 157.55 174.68 C 158.55 174.57 159.28 173.66 159.16 172.66 L 159.04 171.56 C 158.93 170.55 158.02 169.83 157.02 169.94 C 156.01 170.06 155.29 170.96 155.40 171.97 Z M 155.53 173.07 L 155.66 174.16 C 155.77 175.16 156.68 175.88 157.68 175.76 C 158.68 175.65 159.40 174.74 159.28 173.74 L 159.16 172.66 C 159.04 171.66 158.14 170.94 157.14 171.05 C 156.14 171.17 155.42 172.07 155.53 173.07 Z M 155.67 174.16 L 155.79 175.23 C 155.91 176.22 156.81 176.93 157.81 176.82 C 158.80 176.70 159.51 175.80 159.40 174.80 L 159.27 173.74 C 159.16 172.74 158.25 172.03 157.26 172.15 C 156.26 172.27 155.55 173.17 155.67 174.16 Z M 155.81 175.23 L 155.93 176.30 C 156.05 177.28 156.95 177.99 157.94 177.87 C 158.92 177.75 159.63 176.86 159.51 175.87 L 159.39 174.80 C 159.27 173.81 158.37 173.11 157.38 173.23 C 156.39 173.34 155.69 174.24 155.81 175.23 Z M 155.94 176.30 L 156.07 177.35 C 156.19 178.34 157.08 179.04 158.06 178.92 C 159.05 178.80 159.75 177.91 159.63 176.93 L 159.50 175.87 C 159.38 174.89 158.49 174.19 157.51 174.30 C 156.53 174.42 155.83 175.31 155.94 176.30 Z M 156.08 177.36 L 156.21 178.40 C 156.33 179.37 157.21 180.07 158.19 179.95 C 159.17 179.83 159.86 178.94 159.74 177.97 L 159.62 176.93 C 159.50 175.95 158.61 175.26 157.64 175.37 C 156.66 175.49 155.97 176.38 156.08 177.36 Z M 156.22 178.40 L 156.34 179.41 C 156.46 180.38 157.34 181.07 158.31 180.95 C 159.28 180.83 159.97 179.95 159.85 178.98 L 159.73 177.97 C 159.61 177.00 158.73 176.31 157.76 176.43 C 156.79 176.55 156.10 177.43 156.22 178.40 Z M 156.36 179.41 L 156.48 180.39 C 156.59 181.35 157.47 182.04 158.43 181.92 C 159.39 181.80 160.08 180.93 159.96 179.97 L 159.84 178.99 C 159.73 178.02 158.85 177.34 157.89 177.46 C 156.93 177.57 156.24 178.45 156.36 179.41 Z M 156.49 180.39 L 156.60 181.32 C 156.72 182.28 157.58 182.96 158.54 182.84 C 159.50 182.73 160.18 181.86 160.06 180.90 L 159.95 179.97 C 159.83 179.01 158.97 178.33 158.01 178.45 C 157.05 178.56 156.37 179.43 156.49 180.39 Z M 156.61 181.32 L 156.72 182.20 C 156.83 183.15 157.69 183.83 158.64 183.72 C 159.59 183.60 160.27 182.74 160.16 181.79 L 160.05 180.91 C 159.94 179.96 159.08 179.28 158.13 179.39 C 157.18 179.51 156.50 180.37 156.61 181.32 Z M 156.73 182.19 L 156.84 183.13 C 156.95 184.08 157.80 184.75 158.75 184.64 C 159.69 184.53 160.36 183.68 160.25 182.74 L 160.14 181.80 C 160.03 180.85 159.18 180.18 158.24 180.29 C 157.29 180.40 156.62 181.25 156.73 182.19 Z M 156.85 183.12 L 156.99 184.40 C 157.10 185.34 157.94 186.01 158.88 185.91 C 159.81 185.80 160.49 184.96 160.38 184.02 L 160.24 182.75 C 160.14 181.81 159.29 181.14 158.36 181.24 C 157.42 181.34 156.75 182.19 156.85 183.12 Z M 157.01 184.39 L 157.12 185.48 C 157.22 186.41 158.05 187.08 158.98 186.99 C 159.91 186.89 160.58 186.06 160.48 185.13 L 160.37 184.04 C 160.27 183.11 159.44 182.43 158.51 182.53 C 157.58 182.63 156.91 183.46 157.01 184.39 Z M 157.13 185.46 L 157.23 186.41 C 157.31 187.33 158.13 188.01 159.05 187.92 C 159.97 187.83 160.65 187.01 160.56 186.09 L 160.47 185.15 C 160.38 184.22 159.56 183.55 158.64 183.64 C 157.72 183.73 157.05 184.54 157.13 185.46 Z M 157.24 186.39 L 157.31 187.22 C 157.39 188.14 158.19 188.82 159.11 188.74 C 160.02 188.66 160.70 187.85 160.62 186.94 L 160.55 186.11 C 160.47 185.20 159.67 184.52 158.75 184.60 C 157.84 184.67 157.16 185.48 157.24 186.39 Z M 157.32 187.21 L 157.38 187.96 C 157.45 188.87 158.24 189.54 159.14 189.48 C 160.05 189.41 160.73 188.62 160.66 187.71 L 160.60 186.96 C 160.54 186.05 159.75 185.37 158.84 185.44 C 157.93 185.51 157.26 186.30 157.32 187.21 Z M 157.39 187.94 L 157.45 189.00 C 157.51 189.90 158.29 190.59 159.19 190.53 C 160.09 190.47 160.78 189.70 160.72 188.79 L 160.65 187.73 C 160.60 186.83 159.82 186.14 158.92 186.20 C 158.01 186.26 157.33 187.04 157.39 187.94 Z M 157.45 188.98 L 157.51 189.98 C 157.55 190.88 158.32 191.58 159.23 191.53 C 160.13 191.48 160.82 190.71 160.78 189.81 L 160.72 188.81 C 160.68 187.91 159.91 187.22 159.00 187.26 C 158.10 187.31 157.41 188.08 157.45 188.98 Z M 157.51 189.97 L 157.55 190.92 C 157.59 191.83 158.35 192.52 159.26 192.48 C 160.16 192.44 160.86 191.68 160.82 190.78 L 160.78 189.82 C 160.74 188.92 159.97 188.22 159.07 188.26 C 158.16 188.30 157.47 189.07 157.51 189.97 Z M 157.55 190.92 L 157.56 191.30 C 157.60 192.21 158.36 192.91 159.27 192.87 C 160.17 192.83 160.87 192.07 160.83 191.17 L 160.82 190.78 C 160.78 189.88 160.02 189.18 159.11 189.21 C 158.21 189.25 157.51 190.01 157.55 190.92 Z"
      fill="black"
      fill-rule="nonzero" /></svg>