<svg xmlns="http://www.w3.org/2000/svg" version="1.0" width="300.000000pt" height="300.000000pt" viewBox="0 0 300.000000 300.000000" preserveAspectRatio="xMidYMid meet">
  <defs/>
  <path fill="#000000" d="M153.8,27.5 C150.3,29.5 149,31.9 149,36.9 C149,42.7 147.1,44.1 140.2,43.4 L134.5,42.8 L132.7,44.8 C131.6,46 131,47.9 131.2,49.7 L131.5,52.5 L140.2,52.8 L149,53.1 L150,55 C150.8,56.4 150.7,57.6 150,59 L148.9,61.1 L145.5,60.4 C136,58.6 129.9,66.6 138.2,70.1 C140.6,71.1 142.2,71.1 145.7,70.2 C148.1,69.5 150.6,69.2 151.1,69.5 C152.5,70.4 152.2,77.7 150.7,79.2 C149.9,79.9 146.1,81.4 142,82.5 C134.2,84.6 131.3,87.2 132.5,91 C133.3,93.7 138.5,96.3 141.3,95.5 C142.5,95.1 145.2,93.7 147.2,92.3 C149.2,90.9 151.4,90.1 151.9,90.5 C152.6,90.8 153,94.7 153,99.6 C153,110.5 155.1,115.1 159.2,112.9 L161,111.9 L161,98.4 L161,84.9 L168.8,81.4 C179.3,76.7 179.5,76.6 179.5,73.9 L179.5,71.5 L176.4,71.2 C174.7,71 170.8,71.7 167.9,72.8 C164.9,73.8 161.9,74.5 161.3,74.3 C160.5,74 160,72.2 160,70 L160,66.1 L163.4,64.5 C165.2,63.6 168,61.6 169.6,59.9 L172.4,56.9 L171.4,55.2 C169.9,52.9 166.5,52.5 163.8,54.4 C161,56.4 159.4,56.4 158.6,54.4 C157.5,51.6 160,49 166.4,46.1 C172.7,43.3 175.2,40.8 174.3,38.2 C173.7,36.6 168.7,36.7 164.3,38.5 C159.8,40.4 158.1,40.4 157.3,38.4 C157,37.5 158,35.6 160,33.5 C163.9,29.5 163.7,26.6 159.5,26.3 C157.8,26.1 155.3,26.7 153.8,27.5 Z"/>
  <path fill="#000000" d="M98.7,29.8 C97.7,30.9 96.8,34.4 96.4,39.1 C96,43.1 95.3,47.1 94.7,47.7 C93.5,49.3 82.3,49.4 78.5,48 C74.7,46.6 71.8,48.3 72.2,51.8 C72.7,56.1 76,57 86.9,55.9 C97.9,54.9 98,54.9 98,62.8 L98,68.1 L94.3,69.7 C92.2,70.5 87.7,71.3 84.2,71.4 C78.5,71.6 76,72.7 76,75 C76,79.4 86.9,80.8 95.4,77.4 C98.7,76.1 100.4,82.7 97.7,86.4 C96.4,88.2 67.3,98.9 61.3,99.7 L58.2,100.2 L56.6,97.1 C54.5,93.2 52.9,93.2 49.6,97.1 C46.5,100.7 46.3,105 49,107.5 C53.2,111.3 63.4,109.3 85.4,100.5 C91.6,98 97.2,96 97.7,96 C99.2,96 100,99.6 100,107 C100.1,110.6 100.9,115.7 101.8,118.5 L103.5,123.5 L106,123.5 L108.5,123.5 L108.4,120 C108.3,118.1 107.8,114.1 107.2,111.1 C106.5,108.2 106,102.9 106,99.5 C106,92.6 106.3,92.2 114.5,87.5 C120.6,84 128.7,77.9 129.4,76.2 C130.3,74 128.8,72 126.2,72 C124.8,72 121.9,73.5 119.6,75.4 C115,79.1 109.8,82 107.6,82 C105.4,82 104.6,78.2 106.3,75.7 C107.1,74.4 110.9,72.1 114.9,70.6 C118.8,69 122.7,66.9 123.6,65.9 L125.3,64 L123.9,62.4 C122.4,60.5 119.6,60.9 112.3,63.8 L107.1,65.9 L105.5,64.3 C104.4,63.2 104,61.3 104.2,58.2 L104.5,53.6 L110.5,50.2 C118.2,45.9 121.2,43.1 120.8,40.5 C120.3,37.1 115.5,37.3 111.4,40.9 C107.9,44 104.7,44.9 103.5,43 C103.1,42.4 103.4,39.5 104.1,36.5 L105.3,31.1 L104,29.5 C102.4,27.5 100.7,27.6 98.7,29.8 Z"/>
  <path fill="#000000" d="M121.1,126.5 C112.7,128.3 104.7,130.3 103.4,130.9 C98.6,133 101.4,138 107.4,138 C108.7,138 115.4,136.6 122.2,134.9 C146.5,128.8 155,131.3 155,144.5 C155,149.8 153.1,154.1 148.7,158.8 C146.2,161.4 143.2,162.8 134.5,165.5 C126.1,168.1 122.7,169.7 120.5,172 L117.5,175.1 L119.1,177.8 C121.1,181.5 123.1,181.6 126.8,178 C130.1,174.9 132.4,174.4 142.1,174.9 C149.4,175.3 152.8,172.5 158.1,161.6 L162.4,152.5 L162.4,145.5 C162.4,133.5 159,127.7 150.1,124.5 C144,122.4 138.8,122.7 121.1,126.5 Z"/>
  <path fill="#000000" d="M133,146.7 C131.6,147 122.6,149.8 113,153 C86.4,161.9 76,164.4 74.6,162.1 C73.3,160 68.9,161 64.9,164.2 C60.4,167.8 60,170.3 63.5,172.6 C68.4,175.8 77,174.1 105.2,164.6 C119.4,159.8 133.7,155.3 137.2,154.6 C143.9,153.2 146.2,151.2 144.4,148.2 C143.3,146.5 138,145.8 133,146.7 Z"/>
  <path fill="#000000" d="M218.5,183.6 C217.4,183.8 214,184.5 211,185.1 C203.9,186.5 184.1,193.2 175.3,197.1 C171.6,198.8 165,201 160.7,202 C152.1,204.1 150,205.3 150,208.1 C150,210.7 153,212 159,212 C161.9,212 165.6,212.6 167.3,213.4 C169.1,214.2 173.1,216 176.3,217.3 L182,219.9 L182,222.6 C182,224.7 180.5,226.9 176.2,231.1 C168.6,238.5 162.9,240.5 151.8,239.7 C138.3,238.8 128.4,232.2 121.5,219.4 C117.9,212.7 115.8,211 113.2,212.6 C110.4,214.4 110.7,217.4 114.5,225 C119.3,234.5 124.8,240.3 132.9,244.3 L139.5,247.5 L152.5,247.5 L165.5,247.5 L171.3,244.8 C177.8,241.7 186.7,233.4 189.3,227.8 C193.1,219.8 190.5,215.3 179.7,211 C176.6,209.7 174.1,208.1 174.3,207.6 C175.2,204.8 213.4,191 220.1,191 C223.3,191 227.4,196.5 233.5,208.9 C239,219.9 247,239 247,240.8 C247,241.8 250.3,245 251.3,245 C251.6,245 252.5,244.4 253.3,243.6 L254.7,242.1 L253.5,237.3 C248.4,218.2 247.3,215.5 239.3,199.7 C231.2,183.8 228.4,181.7 218.5,183.6 Z"/>
  <path fill="#000000" d="M89.6,188.2 C85.3,193.9 81.4,203.1 78.2,215 C73.5,232.6 72.7,239.3 73.2,253.1 C73.7,265.6 74.9,270.4 77.9,271.5 C80.2,272.4 83.3,268.2 82.4,265.6 C81.2,262.1 80.8,239.9 81.8,233 C83.2,223.3 88.3,208 93.5,197.4 L98.2,188 L97,186.5 C95,184.1 92.3,184.8 89.6,188.2 Z"/>
</svg>

