<svg xmlns="http://www.w3.org/2000/svg" width="300" height="300" viewBox="0 0 300 300">
<path d="M 130.03 121.24 L 129.27 122.23 C 128.71 122.96 128.85 124.00 129.58 124.56 C 130.31 125.12 131.35 124.98 131.91 124.25 L 132.67 123.26 C 133.23 122.53 133.09 121.49 132.36 120.93 C 131.63 120.37 130.59 120.51 130.03 121.24 Z M 129.22 122.26 L 128.55 123.19 C 128.01 123.95 128.19 125.00 128.94 125.54 C 129.70 126.08 130.75 125.91 131.29 125.15 L 131.96 124.22 C 132.50 123.46 132.33 122.41 131.57 121.87 C 130.82 121.33 129.76 121.50 129.22 122.26 Z M 128.46 123.30 L 127.97 124.12 C 127.49 124.92 127.75 125.97 128.56 126.45 C 129.36 126.93 130.41 126.67 130.89 125.86 L 131.38 125.05 C 131.86 124.24 131.60 123.19 130.80 122.71 C 129.99 122.23 128.95 122.49 128.46 123.30 Z M 127.81 124.43 L 127.58 125.08 C 127.28 125.98 127.75 126.95 128.65 127.26 C 129.55 127.57 130.53 127.09 130.83 126.19 L 131.06 125.55 C 131.36 124.65 130.89 123.67 129.99 123.36 C 129.09 123.06 128.12 123.53 127.81 124.43 Z M 127.68 126.44 L 127.99 127.03 C 128.43 127.88 129.48 128.20 130.33 127.75 C 131.17 127.31 131.50 126.26 131.05 125.42 L 130.74 124.83 C 130.29 123.98 129.25 123.66 128.40 124.11 C 127.56 124.55 127.23 125.60 127.68 126.44 Z M 129.14 127.92 L 130.10 128.14 C 131.04 128.35 131.97 127.76 132.18 126.82 C 132.39 125.88 131.80 124.95 130.87 124.74 L 129.90 124.53 C 128.96 124.31 128.03 124.90 127.82 125.84 C 127.61 126.78 128.20 127.71 129.14 127.92 Z M 130.43 128.19 L 131.57 128.22 C 132.53 128.26 133.34 127.50 133.37 126.54 C 133.40 125.57 132.65 124.76 131.68 124.73 L 130.54 124.69 C 129.58 124.66 128.77 125.42 128.74 126.38 C 128.71 127.35 129.46 128.15 130.43 128.19 Z M 131.62 128.23 L 132.57 128.23 C 133.53 128.24 134.32 127.46 134.32 126.49 C 134.33 125.52 133.55 124.74 132.58 124.73 L 131.63 124.73 C 130.67 124.72 129.88 125.50 129.87 126.47 C 129.87 127.44 130.65 128.22 131.62 128.23 Z M 132.62 128.23 L 133.62 128.21 C 134.58 128.18 135.35 127.38 135.32 126.41 C 135.30 125.45 134.50 124.68 133.53 124.71 L 132.53 124.73 C 131.56 124.76 130.80 125.56 130.82 126.53 C 130.85 127.49 131.65 128.26 132.62 128.23 Z M 133.68 128.20 L 134.73 128.14 C 135.70 128.08 136.43 127.24 136.37 126.28 C 136.31 125.31 135.48 124.58 134.51 124.64 L 133.46 124.71 C 132.50 124.77 131.76 125.61 131.83 126.57 C 131.89 127.53 132.72 128.27 133.68 128.20 Z M 134.81 128.13 L 135.73 128.03 C 136.69 127.93 137.38 127.07 137.28 126.11 C 137.18 125.15 136.32 124.45 135.36 124.55 L 134.44 124.65 C 133.48 124.75 132.78 125.62 132.88 126.58 C 132.99 127.54 133.85 128.23 134.81 128.13 Z M 135.79 128.02 L 136.69 127.89 C 137.64 127.76 138.30 126.87 138.17 125.91 C 138.03 124.96 137.14 124.30 136.19 124.43 L 135.29 124.56 C 134.34 124.70 133.68 125.59 133.81 126.54 C 133.95 127.50 134.84 128.16 135.79 128.02 Z M 136.74 127.88 L 137.70 127.71 C 138.65 127.55 139.28 126.64 139.11 125.69 C 138.95 124.74 138.04 124.11 137.09 124.28 L 136.13 124.45 C 135.19 124.61 134.55 125.52 134.72 126.47 C 134.89 127.41 135.79 128.05 136.74 127.88 Z M 137.74 127.70 L 138.78 127.49 C 139.72 127.30 140.33 126.38 140.14 125.44 C 139.95 124.49 139.03 123.89 138.09 124.08 L 137.05 124.29 C 136.11 124.48 135.50 125.40 135.69 126.34 C 135.88 127.28 136.80 127.89 137.74 127.70 Z M 138.81 127.48 L 139.95 127.23 C 140.88 127.01 141.47 126.08 141.26 125.15 C 141.05 124.21 140.12 123.62 139.18 123.83 L 138.05 124.09 C 137.11 124.30 136.52 125.23 136.74 126.17 C 136.95 127.10 137.88 127.69 138.81 127.48 Z M 139.97 127.22 L 140.80 127.02 C 141.73 126.79 142.31 125.85 142.08 124.92 C 141.86 123.99 140.92 123.42 139.99 123.64 L 139.16 123.84 C 138.23 124.07 137.65 125.00 137.88 125.94 C 138.10 126.87 139.04 127.44 139.97 127.22 Z M 140.82 127.01 L 141.69 126.79 C 142.61 126.56 143.18 125.61 142.94 124.69 C 142.71 123.76 141.77 123.20 140.84 123.43 L 139.97 123.65 C 139.04 123.88 138.48 124.82 138.71 125.75 C 138.95 126.68 139.89 127.24 140.82 127.01 Z M 141.70 126.78 L 142.62 126.54 C 143.54 126.30 144.09 125.35 143.85 124.43 C 143.61 123.51 142.66 122.95 141.74 123.20 L 140.82 123.44 C 139.90 123.68 139.35 124.63 139.59 125.55 C 139.83 126.47 140.78 127.03 141.70 126.78 Z M 142.63 126.53 L 143.60 126.27 C 144.52 126.02 145.06 125.07 144.81 124.15 C 144.55 123.23 143.61 122.69 142.69 122.94 L 141.72 123.20 C 140.80 123.46 140.26 124.40 140.51 125.32 C 140.76 126.24 141.71 126.79 142.63 126.53 Z M 143.61 126.26 L 144.62 125.98 C 145.53 125.72 146.07 124.77 145.81 123.85 C 145.55 122.94 144.60 122.40 143.68 122.66 L 142.67 122.95 C 141.76 123.21 141.23 124.16 141.48 125.08 C 141.74 125.99 142.70 126.52 143.61 126.26 Z M 144.63 125.97 L 145.69 125.66 C 146.60 125.39 147.12 124.44 146.85 123.53 C 146.59 122.62 145.63 122.10 144.72 122.36 L 143.67 122.67 C 142.76 122.94 142.23 123.89 142.50 124.80 C 142.77 125.71 143.72 126.24 144.63 125.97 Z M 145.70 125.65 L 146.80 125.32 C 147.70 125.05 148.22 124.09 147.94 123.18 C 147.67 122.28 146.71 121.76 145.80 122.04 L 144.71 122.37 C 143.80 122.65 143.29 123.60 143.56 124.51 C 143.84 125.42 144.79 125.93 145.70 125.65 Z M 146.81 125.31 L 147.80 125.00 C 148.70 124.72 149.21 123.76 148.93 122.86 C 148.65 121.96 147.69 121.46 146.78 121.74 L 145.79 122.05 C 144.89 122.33 144.39 123.29 144.67 124.19 C 144.95 125.09 145.91 125.59 146.81 125.31 Z M 147.81 125.00 L 148.81 124.68 C 149.70 124.40 150.20 123.44 149.92 122.54 C 149.63 121.64 148.67 121.14 147.77 121.43 L 146.78 121.74 C 145.88 122.03 145.38 122.99 145.67 123.89 C 145.95 124.79 146.91 125.28 147.81 125.00 Z M 148.81 124.67 L 149.81 124.35 C 150.71 124.06 151.20 123.10 150.91 122.21 C 150.62 121.31 149.66 120.82 148.77 121.11 L 147.77 121.43 C 146.87 121.72 146.38 122.68 146.67 123.58 C 146.96 124.47 147.92 124.96 148.81 124.67 Z M 149.82 124.35 L 150.82 124.02 C 151.71 123.73 152.20 122.77 151.90 121.88 C 151.61 120.99 150.65 120.50 149.76 120.79 L 148.77 121.12 C 147.87 121.41 147.39 122.37 147.68 123.26 C 147.97 124.15 148.93 124.64 149.82 124.35 Z M 150.82 124.01 L 151.80 123.69 C 152.69 123.40 153.17 122.44 152.88 121.56 C 152.59 120.67 151.63 120.18 150.74 120.47 L 149.76 120.80 C 148.87 121.09 148.39 122.05 148.68 122.93 C 148.97 123.82 149.93 124.31 150.82 124.01 Z M 151.80 123.69 L 152.75 123.38 C 153.64 123.08 154.12 122.13 153.83 121.24 C 153.53 120.36 152.58 119.87 151.69 120.17 L 150.74 120.48 C 149.86 120.77 149.37 121.73 149.67 122.61 C 149.96 123.50 150.91 123.98 151.80 123.69 Z M 152.75 123.37 L 153.65 123.07 C 154.54 122.78 155.02 121.83 154.73 120.95 C 154.44 120.06 153.49 119.58 152.60 119.87 L 151.69 120.17 C 150.81 120.46 150.33 121.41 150.62 122.30 C 150.91 123.18 151.86 123.66 152.75 123.37 Z M 153.65 123.07 L 154.50 122.79 C 155.39 122.50 155.87 121.55 155.58 120.67 C 155.29 119.79 154.34 119.31 153.46 119.60 L 152.61 119.87 C 151.72 120.16 151.24 121.11 151.53 121.99 C 151.82 122.88 152.77 123.36 153.65 123.07 Z M 154.49 122.79 L 155.57 122.44 C 156.45 122.16 156.94 121.22 156.65 120.33 C 156.37 119.45 155.42 118.97 154.54 119.25 L 153.47 119.60 C 152.58 119.88 152.10 120.83 152.38 121.71 C 152.67 122.59 153.61 123.07 154.49 122.79 Z M 155.56 122.45 L 156.65 122.11 C 157.53 121.83 158.03 120.89 157.75 120.01 C 157.47 119.12 156.53 118.63 155.65 118.91 L 154.56 119.25 C 153.67 119.52 153.18 120.46 153.46 121.35 C 153.73 122.23 154.67 122.72 155.56 122.45 Z M 156.63 122.11 L 157.60 121.82 C 158.48 121.55 158.98 120.62 158.72 119.73 C 158.45 118.85 157.52 118.35 156.63 118.61 L 155.67 118.90 C 154.78 119.17 154.28 120.10 154.55 120.99 C 154.81 121.87 155.75 122.38 156.63 122.11 Z M 157.58 121.82 L 158.45 121.57 C 159.34 121.32 159.85 120.39 159.59 119.50 C 159.34 118.61 158.41 118.10 157.52 118.36 L 156.65 118.61 C 155.76 118.86 155.25 119.79 155.51 120.68 C 155.76 121.57 156.69 122.08 157.58 121.82 Z M 158.43 121.58 L 159.24 121.35 C 160.13 121.11 160.66 120.19 160.41 119.30 C 160.17 118.41 159.25 117.88 158.36 118.13 L 157.54 118.35 C 156.65 118.60 156.13 119.52 156.37 120.41 C 156.62 121.30 157.54 121.82 158.43 121.58 Z M 159.22 121.36 L 160.11 121.13 C 161.00 120.89 161.54 119.98 161.30 119.09 C 161.07 118.19 160.16 117.66 159.26 117.89 L 158.38 118.12 C 157.48 118.36 156.95 119.27 157.18 120.16 C 157.41 121.06 158.33 121.59 159.22 121.36 Z M 160.08 121.14 L 161.06 120.90 C 161.95 120.68 162.51 119.78 162.29 118.88 C 162.07 117.98 161.16 117.43 160.27 117.65 L 159.29 117.88 C 158.39 118.10 157.84 119.01 158.06 119.90 C 158.28 120.80 159.18 121.35 160.08 121.14 Z M 161.01 120.91 L 161.99 120.70 C 162.89 120.51 163.47 119.62 163.27 118.71 C 163.08 117.80 162.19 117.23 161.28 117.42 L 160.31 117.63 C 159.40 117.83 158.83 118.72 159.02 119.62 C 159.22 120.53 160.11 121.11 161.01 120.91 Z M 161.93 120.72 L 162.91 120.54 C 163.82 120.38 164.43 119.51 164.27 118.59 C 164.11 117.68 163.23 117.07 162.32 117.23 L 161.34 117.41 C 160.43 117.57 159.82 118.44 159.98 119.36 C 160.14 120.27 161.02 120.88 161.93 120.72 Z M 162.84 120.56 L 163.85 120.42 C 164.77 120.30 165.42 119.45 165.29 118.53 C 165.17 117.61 164.32 116.96 163.40 117.08 L 162.39 117.22 C 161.47 117.34 160.82 118.19 160.95 119.11 C 161.07 120.03 161.92 120.68 162.84 120.56 Z M 163.76 120.44 L 164.80 120.35 C 165.73 120.28 166.42 119.46 166.35 118.53 C 166.27 117.60 165.46 116.91 164.53 116.98 L 163.49 117.07 C 162.56 117.14 161.86 117.96 161.94 118.89 C 162.02 119.82 162.83 120.51 163.76 120.44 Z M 164.70 120.37 L 165.72 120.34 C 166.66 120.32 167.40 119.54 167.38 118.61 C 167.36 117.67 166.58 116.93 165.64 116.95 L 164.62 116.97 C 163.69 116.99 162.94 117.77 162.96 118.71 C 162.99 119.64 163.76 120.39 164.70 120.37 Z M 165.60 120.35 L 166.56 120.40 C 167.51 120.44 168.31 119.72 168.35 118.78 C 168.40 117.84 167.67 117.03 166.73 116.99 L 165.76 116.94 C 164.82 116.89 164.02 117.62 163.98 118.56 C 163.93 119.50 164.65 120.30 165.60 120.35 Z M 166.39 120.39 L 167.39 120.54 C 168.33 120.68 169.20 120.03 169.34 119.10 C 169.48 118.16 168.84 117.29 167.90 117.15 L 166.90 117.00 C 165.97 116.86 165.09 117.50 164.95 118.44 C 164.81 119.38 165.46 120.25 166.39 120.39 Z M 167.12 120.48 L 168.12 120.80 C 169.02 121.09 169.99 120.59 170.28 119.68 C 170.57 118.77 170.07 117.80 169.16 117.52 L 168.17 117.20 C 167.26 116.91 166.29 117.41 166.00 118.32 C 165.71 119.23 166.22 120.20 167.12 120.48 Z M 167.73 120.63 L 168.54 121.13 C 169.35 121.63 170.42 121.38 170.92 120.56 C 171.42 119.75 171.17 118.68 170.35 118.18 L 169.55 117.68 C 168.73 117.18 167.67 117.44 167.16 118.25 C 166.66 119.06 166.92 120.13 167.73 120.63 Z M 168.12 120.78 L 168.70 121.46 C 169.32 122.19 170.42 122.28 171.15 121.66 C 171.88 121.03 171.97 119.94 171.35 119.21 L 170.77 118.53 C 170.14 117.80 169.05 117.71 168.32 118.33 C 167.59 118.96 167.50 120.05 168.12 120.78 Z M 168.43 121.04 L 168.80 121.87 C 169.19 122.74 170.22 123.14 171.10 122.75 C 171.98 122.36 172.37 121.33 171.98 120.45 L 171.61 119.63 C 171.22 118.75 170.19 118.35 169.32 118.74 C 168.44 119.13 168.04 120.16 168.43 121.04 Z M 168.69 121.55 L 168.92 122.53 C 169.13 123.47 170.07 124.06 171.01 123.84 C 171.94 123.63 172.53 122.69 172.31 121.75 L 172.09 120.77 C 171.87 119.83 170.94 119.25 170.00 119.46 C 169.06 119.68 168.48 120.61 168.69 121.55 Z M 168.88 122.33 L 169.00 123.45 C 169.11 124.41 169.97 125.10 170.92 125.00 C 171.88 124.90 172.57 124.04 172.47 123.08 L 172.35 121.96 C 172.25 121.00 171.39 120.31 170.43 120.41 C 169.47 120.51 168.78 121.37 168.88 122.33 Z M 169.00 123.34 L 169.03 124.23 C 169.07 125.19 169.88 125.94 170.84 125.90 C 171.81 125.86 172.55 125.05 172.51 124.09 L 172.48 123.20 C 172.44 122.24 171.63 121.49 170.67 121.53 C 169.70 121.57 168.96 122.38 169.00 123.34 Z M 169.03 124.13 L 169.01 125.08 C 169.00 126.05 169.77 126.84 170.73 126.86 C 171.69 126.87 172.48 126.11 172.50 125.14 L 172.52 124.19 C 172.53 123.23 171.76 122.44 170.80 122.42 C 169.84 122.40 169.05 123.17 169.03 124.13 Z M 169.02 124.97 L 168.94 125.98 C 168.86 126.94 169.57 127.78 170.53 127.86 C 171.49 127.94 172.33 127.22 172.41 126.26 L 172.49 125.26 C 172.57 124.30 171.86 123.46 170.90 123.38 C 169.94 123.30 169.10 124.01 169.02 124.97 Z M 168.95 125.85 L 168.79 126.91 C 168.64 127.86 169.29 128.75 170.24 128.90 C 171.19 129.05 172.08 128.40 172.23 127.45 L 172.40 126.39 C 172.54 125.44 171.89 124.55 170.94 124.40 C 169.99 124.25 169.10 124.90 168.95 125.85 Z M 168.81 126.78 L 168.58 127.78 C 168.36 128.72 168.94 129.66 169.88 129.88 C 170.81 130.10 171.75 129.51 171.97 128.58 L 172.21 127.57 C 172.42 126.64 171.84 125.70 170.91 125.48 C 169.97 125.26 169.03 125.84 168.81 126.78 Z M 168.60 127.68 L 168.34 128.56 C 168.07 129.48 168.59 130.45 169.51 130.73 C 170.43 131.00 171.40 130.48 171.68 129.56 L 171.94 128.68 C 172.22 127.76 171.70 126.79 170.77 126.51 C 169.85 126.23 168.88 126.76 168.60 127.68 Z M 168.36 128.49 L 168.05 129.39 C 167.73 130.30 168.22 131.29 169.13 131.61 C 170.03 131.92 171.03 131.44 171.34 130.53 L 171.66 129.63 C 171.97 128.72 171.49 127.73 170.58 127.41 C 169.67 127.10 168.68 127.58 168.36 128.49 Z M 168.07 129.34 L 167.71 130.27 C 167.37 131.17 167.82 132.18 168.72 132.52 C 169.62 132.87 170.62 132.42 170.97 131.52 L 171.32 130.58 C 171.67 129.69 171.22 128.68 170.32 128.33 C 169.42 127.99 168.41 128.44 168.07 129.34 Z M 167.73 130.24 L 167.34 131.20 C 166.97 132.09 167.40 133.11 168.29 133.47 C 169.19 133.83 170.20 133.40 170.56 132.51 L 170.95 131.55 C 171.32 130.66 170.89 129.64 170.00 129.28 C 169.10 128.92 168.09 129.35 167.73 130.24 Z M 167.34 131.18 L 166.93 132.17 C 166.56 133.06 166.97 134.08 167.86 134.45 C 168.75 134.82 169.77 134.41 170.14 133.52 L 170.56 132.53 C 170.93 131.64 170.51 130.62 169.62 130.25 C 168.74 129.88 167.72 130.29 167.34 131.18 Z M 166.93 132.17 L 166.53 133.12 C 166.15 134.01 166.56 135.03 167.45 135.40 C 168.34 135.78 169.36 135.36 169.73 134.48 L 170.14 133.52 C 170.51 132.64 170.10 131.62 169.21 131.24 C 168.33 130.87 167.31 131.28 166.93 132.17 Z M 166.52 133.12 L 166.15 134.01 C 165.78 134.90 166.19 135.92 167.08 136.29 C 167.97 136.67 168.99 136.25 169.36 135.36 L 169.74 134.48 C 170.11 133.59 169.69 132.57 168.81 132.19 C 167.92 131.82 166.90 132.24 166.52 133.12 Z M 166.15 134.02 L 165.77 134.93 C 165.40 135.81 165.82 136.84 166.71 137.21 C 167.60 137.57 168.62 137.15 168.99 136.27 L 169.37 135.36 C 169.74 134.47 169.31 133.45 168.43 133.08 C 167.54 132.71 166.52 133.13 166.15 134.02 Z M 165.76 134.94 L 165.39 135.86 C 165.02 136.75 165.45 137.77 166.34 138.13 C 167.23 138.50 168.25 138.07 168.62 137.18 L 168.99 136.25 C 169.36 135.36 168.93 134.34 168.04 133.98 C 167.15 133.62 166.13 134.04 165.76 134.94 Z M 165.38 135.87 L 165.00 136.81 C 164.65 137.71 165.09 138.72 165.98 139.08 C 166.88 139.44 167.89 139.00 168.25 138.10 L 168.62 137.16 C 168.98 136.27 168.54 135.25 167.65 134.90 C 166.75 134.54 165.73 134.98 165.38 135.87 Z M 165.00 136.83 L 164.63 137.78 C 164.28 138.68 164.73 139.69 165.63 140.04 C 166.53 140.39 167.55 139.94 167.89 139.04 L 168.26 138.09 C 168.60 137.19 168.16 136.17 167.25 135.83 C 166.35 135.48 165.34 135.93 165.00 136.83 Z M 164.62 137.80 L 164.26 138.77 C 163.93 139.67 164.39 140.68 165.30 141.01 C 166.21 141.35 167.21 140.89 167.55 139.98 L 167.90 139.02 C 168.24 138.11 167.77 137.10 166.87 136.77 C 165.96 136.44 164.96 136.90 164.62 137.80 Z M 164.25 138.79 L 163.91 139.77 C 163.59 140.68 164.07 141.68 164.98 142.00 C 165.89 142.32 166.89 141.84 167.21 140.93 L 167.56 139.95 C 167.88 139.04 167.40 138.04 166.49 137.72 C 165.57 137.40 164.57 137.88 164.25 138.79 Z M 163.90 139.80 L 163.57 140.78 C 163.27 141.70 163.77 142.69 164.68 143.00 C 165.60 143.30 166.59 142.80 166.90 141.89 L 167.22 140.90 C 167.53 139.98 167.03 138.99 166.11 138.69 C 165.20 138.38 164.21 138.88 163.90 139.80 Z M 163.57 140.81 L 163.25 141.79 C 162.96 142.72 163.48 143.70 164.40 143.99 C 165.32 144.28 166.30 143.77 166.59 142.85 L 166.90 141.86 C 167.19 140.94 166.68 139.96 165.76 139.67 C 164.84 139.38 163.86 139.89 163.57 140.81 Z M 163.25 141.82 L 162.95 142.80 C 162.68 143.72 163.20 144.70 164.13 144.97 C 165.05 145.25 166.03 144.73 166.31 143.80 L 166.60 142.82 C 166.88 141.90 166.35 140.92 165.43 140.64 C 164.50 140.37 163.53 140.89 163.25 141.82 Z M 162.95 142.82 L 162.67 143.78 C 162.41 144.71 162.94 145.68 163.87 145.95 C 164.80 146.21 165.77 145.67 166.04 144.74 L 166.31 143.78 C 166.58 142.85 166.04 141.88 165.11 141.62 C 164.18 141.35 163.21 141.89 162.95 142.82 Z M 162.67 143.80 L 162.41 144.75 C 162.15 145.68 162.70 146.64 163.64 146.90 C 164.57 147.15 165.53 146.60 165.78 145.67 L 166.04 144.72 C 166.30 143.79 165.75 142.83 164.81 142.58 C 163.88 142.32 162.92 142.87 162.67 143.80 Z M 162.40 144.77 L 162.16 145.69 C 161.92 146.62 162.48 147.58 163.42 147.82 C 164.35 148.07 165.31 147.50 165.55 146.57 L 165.79 145.65 C 166.03 144.71 165.47 143.76 164.54 143.52 C 163.60 143.27 162.65 143.83 162.40 144.77 Z M 162.16 145.71 L 161.92 146.69 C 161.68 147.63 162.26 148.58 163.19 148.81 C 164.13 149.04 165.08 148.47 165.31 147.53 L 165.56 146.55 C 165.79 145.61 165.22 144.66 164.28 144.43 C 163.34 144.20 162.39 144.77 162.16 145.71 Z M 161.91 146.71 L 161.67 147.76 C 161.45 148.71 162.03 149.65 162.97 149.87 C 163.91 150.09 164.85 149.50 165.07 148.56 L 165.32 147.51 C 165.54 146.57 164.95 145.63 164.01 145.41 C 163.07 145.19 162.13 145.77 161.91 146.71 Z M 161.66 147.79 L 161.44 148.80 C 161.24 149.74 161.83 150.67 162.78 150.88 C 163.72 151.08 164.65 150.49 164.86 149.54 L 165.08 148.53 C 165.28 147.59 164.69 146.66 163.74 146.45 C 162.80 146.25 161.87 146.85 161.66 147.79 Z M 161.44 148.82 L 161.24 149.79 C 161.05 150.74 161.66 151.66 162.61 151.85 C 163.55 152.04 164.48 151.43 164.67 150.48 L 164.86 149.52 C 165.05 148.57 164.44 147.65 163.50 147.46 C 162.55 147.26 161.63 147.88 161.44 148.82 Z M 161.24 149.82 L 161.06 150.75 C 160.89 151.70 161.51 152.61 162.46 152.79 C 163.41 152.96 164.32 152.34 164.50 151.39 L 164.67 150.46 C 164.85 149.51 164.22 148.59 163.27 148.42 C 162.33 148.24 161.41 148.87 161.24 149.82 Z M 161.06 150.77 L 160.90 151.68 C 160.74 152.63 161.38 153.53 162.33 153.69 C 163.28 153.86 164.19 153.22 164.35 152.27 L 164.50 151.36 C 164.66 150.41 164.03 149.51 163.07 149.35 C 162.12 149.18 161.22 149.82 161.06 150.77 Z M 160.90 151.71 L 160.75 152.67 C 160.61 153.62 161.26 154.51 162.21 154.66 C 163.17 154.80 164.06 154.15 164.21 153.20 L 164.35 152.24 C 164.50 151.28 163.85 150.39 162.89 150.25 C 161.94 150.10 161.05 150.75 160.90 151.71 Z M 160.75 152.70 L 160.62 153.66 C 160.49 154.62 161.16 155.50 162.12 155.62 C 163.07 155.75 163.95 155.08 164.08 154.13 L 164.21 153.16 C 164.34 152.21 163.67 151.33 162.71 151.20 C 161.76 151.07 160.88 151.74 160.75 152.70 Z M 160.61 153.70 L 160.51 154.67 C 160.40 155.63 161.09 156.49 162.05 156.60 C 163.00 156.71 163.87 156.02 163.98 155.06 L 164.08 154.09 C 164.19 153.13 163.50 152.27 162.54 152.16 C 161.59 152.05 160.72 152.74 160.61 153.70 Z M 160.50 154.71 L 160.41 155.71 C 160.33 156.67 161.04 157.52 162.00 157.60 C 162.96 157.69 163.81 156.98 163.89 156.02 L 163.98 155.02 C 164.06 154.06 163.35 153.21 162.39 153.13 C 161.43 153.04 160.59 153.75 160.50 154.71 Z M 160.41 155.75 L 160.34 156.79 C 160.28 157.75 161.01 158.58 161.97 158.65 C 162.93 158.71 163.76 157.98 163.83 157.02 L 163.89 155.98 C 163.96 155.01 163.23 154.18 162.27 154.12 C 161.30 154.06 160.47 154.79 160.41 155.75 Z M 160.34 156.83 L 160.30 157.84 C 160.26 158.81 161.00 159.62 161.97 159.66 C 162.93 159.70 163.74 158.96 163.78 157.99 L 163.83 156.98 C 163.87 156.02 163.12 155.20 162.16 155.16 C 161.20 155.12 160.38 155.87 160.34 156.83 Z M 160.30 157.87 L 160.27 158.90 C 160.24 159.86 161.00 160.66 161.97 160.69 C 162.93 160.71 163.73 159.95 163.76 158.99 L 163.78 157.97 C 163.81 157.00 163.05 156.20 162.09 156.18 C 161.13 156.15 160.32 156.91 160.30 157.87 Z M 160.27 158.92 L 160.25 159.95 C 160.24 160.92 161.01 161.71 161.97 161.72 C 162.94 161.74 163.73 160.97 163.74 160.00 L 163.76 158.97 C 163.77 158.01 163.00 157.21 162.04 157.20 C 161.08 157.19 160.28 157.95 160.27 158.92 Z M 160.25 159.97 L 160.25 160.99 C 160.25 161.96 161.02 162.74 161.99 162.74 C 162.95 162.75 163.73 161.97 163.74 161.01 L 163.74 159.99 C 163.75 159.02 162.97 158.24 162.01 158.23 C 161.04 158.23 160.26 159.01 160.25 159.97 Z M 160.25 161.01 L 160.25 161.99 C 160.26 162.96 161.04 163.73 162.00 163.73 C 162.97 163.73 163.74 162.94 163.74 161.98 L 163.74 160.99 C 163.73 160.03 162.95 159.25 161.99 159.26 C 161.02 159.26 160.25 160.04 160.25 161.01 Z M 160.25 162.00 L 160.27 162.97 C 160.28 163.93 161.06 164.70 162.03 164.69 C 162.99 164.68 163.76 163.89 163.75 162.93 L 163.74 161.97 C 163.73 161.00 162.94 160.23 161.98 160.24 C 161.02 160.25 160.24 161.04 160.25 162.00 Z M 160.27 163.00 L 160.30 164.15 C 160.32 165.11 161.12 165.87 162.08 165.85 C 163.05 165.82 163.81 165.02 163.78 164.06 L 163.75 162.91 C 163.72 161.94 162.92 161.18 161.96 161.21 C 161.00 161.23 160.24 162.04 160.27 163.00 Z M 160.30 164.25 L 160.39 165.26 C 160.46 166.22 161.30 166.93 162.26 166.86 C 163.22 166.78 163.93 165.94 163.86 164.98 L 163.77 163.97 C 163.70 163.01 162.86 162.29 161.90 162.37 C 160.94 162.45 160.23 163.29 160.30 164.25 Z M 160.41 165.45 L 160.58 166.35 C 160.76 167.29 161.67 167.91 162.62 167.73 C 163.56 167.55 164.18 166.64 164.00 165.70 L 163.83 164.80 C 163.65 163.85 162.74 163.23 161.79 163.41 C 160.85 163.59 160.23 164.50 160.41 165.45 Z M 160.66 166.63 L 160.97 167.44 C 161.30 168.34 162.30 168.80 163.20 168.46 C 164.10 168.13 164.56 167.13 164.22 166.23 L 163.92 165.41 C 163.59 164.51 162.58 164.06 161.68 164.39 C 160.78 164.73 160.33 165.73 160.66 166.63 Z M 161.14 167.78 L 161.65 168.58 C 162.17 169.39 163.25 169.62 164.05 169.10 C 164.86 168.58 165.09 167.50 164.57 166.70 L 164.06 165.89 C 163.54 165.09 162.46 164.86 161.65 165.38 C 160.85 165.90 160.62 166.97 161.14 167.78 Z M 161.89 168.87 L 162.59 169.56 C 163.27 170.23 164.37 170.23 165.05 169.55 C 165.72 168.87 165.71 167.77 165.03 167.09 L 164.33 166.40 C 163.65 165.73 162.55 165.74 161.88 166.42 C 161.21 167.10 161.21 168.20 161.89 168.87 Z M 162.87 169.78 L 163.73 170.34 C 164.53 170.86 165.60 170.63 166.12 169.83 C 166.64 169.03 166.42 167.96 165.61 167.43 L 164.76 166.88 C 163.95 166.35 162.88 166.58 162.36 167.38 C 161.84 168.19 162.07 169.26 162.87 169.78 Z M 164.01 170.48 L 164.95 170.87 C 165.83 171.23 166.84 170.82 167.20 169.93 C 167.57 169.05 167.15 168.04 166.27 167.68 L 165.33 167.29 C 164.45 166.93 163.44 167.34 163.08 168.23 C 162.71 169.11 163.13 170.12 164.01 170.48 Z M 165.19 170.94 L 166.14 171.18 C 167.06 171.41 168.00 170.85 168.23 169.93 C 168.46 169.00 167.90 168.07 166.97 167.84 L 166.02 167.60 C 165.10 167.37 164.17 167.93 163.94 168.86 C 163.71 169.78 164.27 170.71 165.19 170.94 Z M 166.33 171.21 L 167.34 171.34 C 168.27 171.46 169.14 170.80 169.26 169.87 C 169.38 168.93 168.72 168.07 167.78 167.94 L 166.78 167.81 C 165.84 167.69 164.98 168.35 164.86 169.29 C 164.74 170.23 165.40 171.09 166.33 171.21 Z M 167.50 171.35 L 168.52 171.38 C 169.46 171.42 170.25 170.68 170.28 169.74 C 170.32 168.80 169.58 168.01 168.64 167.98 L 167.62 167.94 C 166.68 167.90 165.89 168.64 165.86 169.58 C 165.82 170.52 166.56 171.31 167.50 171.35 Z M 168.66 171.37 L 169.67 171.33 C 170.60 171.28 171.33 170.49 171.28 169.55 C 171.24 168.62 170.44 167.89 169.51 167.94 L 168.50 167.98 C 167.57 168.03 166.84 168.82 166.89 169.76 C 166.93 170.69 167.72 171.42 168.66 171.37 Z M 169.80 171.31 L 170.78 171.18 C 171.71 171.06 172.36 170.22 172.24 169.29 C 172.12 168.37 171.28 167.72 170.35 167.83 L 169.37 167.96 C 168.45 168.08 167.80 168.92 167.91 169.85 C 168.03 170.77 168.88 171.42 169.80 171.31 Z M 170.92 171.15 L 171.88 170.94 C 172.78 170.74 173.36 169.85 173.17 168.95 C 172.97 168.04 172.08 167.47 171.17 167.66 L 170.21 167.87 C 169.31 168.06 168.73 168.96 168.93 169.86 C 169.12 170.77 170.01 171.34 170.92 171.15 Z M 172.01 170.89 L 172.97 170.60 C 173.85 170.33 174.34 169.40 174.07 168.52 C 173.81 167.64 172.87 167.15 172.00 167.42 L 171.04 167.71 C 170.16 167.98 169.67 168.91 169.93 169.79 C 170.20 170.67 171.13 171.16 172.01 170.89 Z M 173.09 170.55 L 174.04 170.17 C 174.89 169.84 175.30 168.88 174.97 168.03 C 174.64 167.18 173.67 166.76 172.82 167.10 L 171.88 167.47 C 171.03 167.80 170.61 168.76 170.94 169.61 C 171.28 170.46 172.24 170.88 173.09 170.55 Z M 174.13 170.12 L 174.98 169.72 C 175.80 169.34 176.16 168.36 175.77 167.53 C 175.38 166.71 174.40 166.36 173.58 166.75 L 172.73 167.15 C 171.91 167.53 171.55 168.51 171.94 169.34 C 172.33 170.16 173.31 170.51 174.13 170.12 Z M 175.06 169.68 L 175.92 169.22 C 176.72 168.79 177.02 167.80 176.59 167.00 C 176.16 166.20 175.17 165.90 174.37 166.33 L 173.51 166.79 C 172.71 167.22 172.41 168.21 172.84 169.01 C 173.26 169.81 174.26 170.11 175.06 169.68 Z M 175.98 169.18 L 176.85 168.66 C 177.62 168.20 177.88 167.19 177.41 166.42 C 176.95 165.64 175.95 165.39 175.17 165.85 L 174.31 166.37 C 173.53 166.83 173.28 167.83 173.74 168.61 C 174.20 169.38 175.20 169.64 175.98 169.18 Z M 176.90 168.62 L 177.77 168.05 C 178.52 167.56 178.74 166.55 178.25 165.80 C 177.75 165.05 176.75 164.83 175.99 165.32 L 175.12 165.89 C 174.37 166.38 174.16 167.39 174.65 168.14 C 175.14 168.90 176.15 169.11 176.90 168.62 Z M 177.82 168.01 L 178.66 167.41 C 179.40 166.90 179.57 165.89 179.06 165.16 C 178.54 164.42 177.53 164.25 176.80 164.76 L 175.95 165.36 C 175.22 165.88 175.04 166.89 175.56 167.62 C 176.07 168.35 177.08 168.53 177.82 168.01 Z M 178.70 167.38 L 179.50 166.78 C 180.21 166.24 180.35 165.23 179.82 164.52 C 179.28 163.81 178.27 163.66 177.56 164.20 L 176.76 164.80 C 176.05 165.34 175.91 166.35 176.44 167.06 C 176.98 167.77 177.99 167.91 178.70 167.38 Z M 179.53 166.74 L 180.32 166.11 C 181.01 165.56 181.12 164.55 180.57 163.86 C 180.01 163.16 179.00 163.05 178.31 163.61 L 177.52 164.23 C 176.83 164.79 176.72 165.80 177.27 166.49 C 177.83 167.19 178.84 167.30 179.53 166.74 Z M 180.35 166.08 L 181.12 165.43 C 181.79 164.86 181.87 163.84 181.30 163.17 C 180.73 162.50 179.72 162.42 179.04 162.99 L 178.28 163.64 C 177.60 164.21 177.52 165.22 178.09 165.90 C 178.67 166.57 179.68 166.65 180.35 166.08 Z M 181.15 165.39 L 181.89 164.72 C 182.55 164.13 182.60 163.12 182.01 162.47 C 181.42 161.82 180.41 161.76 179.76 162.35 L 179.01 163.02 C 178.36 163.61 178.31 164.62 178.90 165.28 C 179.49 165.93 180.49 165.98 181.15 165.39 Z M 181.92 164.68 L 182.63 164.00 C 183.27 163.39 183.29 162.39 182.68 161.76 C 182.08 161.12 181.07 161.10 180.44 161.71 L 179.72 162.39 C 179.09 163.00 179.07 164.00 179.68 164.64 C 180.28 165.27 181.29 165.29 181.92 164.68 Z M 182.67 163.96 L 183.33 163.28 C 183.94 162.66 183.93 161.66 183.31 161.04 C 182.68 160.43 181.68 160.44 181.07 161.07 L 180.40 161.75 C 179.79 162.37 179.80 163.38 180.43 163.99 C 181.05 164.60 182.06 164.59 182.67 163.96 Z M 183.37 163.24 L 184.01 162.53 C 184.59 161.88 184.55 160.88 183.90 160.30 C 183.25 159.71 182.25 159.76 181.67 160.41 L 181.03 161.12 C 180.44 161.76 180.49 162.76 181.14 163.35 C 181.79 163.93 182.78 163.88 183.37 163.24 Z M 184.05 162.48 L 184.67 161.73 C 185.23 161.06 185.14 160.06 184.47 159.51 C 183.80 158.95 182.81 159.04 182.25 159.71 L 181.63 160.46 C 181.07 161.13 181.16 162.13 181.83 162.68 C 182.50 163.24 183.49 163.15 184.05 162.48 Z M 184.71 161.67 L 185.33 160.86 C 185.85 160.17 185.72 159.18 185.03 158.66 C 184.34 158.13 183.35 158.27 182.82 158.96 L 182.21 159.77 C 181.68 160.46 181.82 161.45 182.51 161.97 C 183.20 162.50 184.19 162.36 184.71 161.67 Z M 185.37 160.80 L 185.98 159.91 C 186.48 159.20 186.30 158.23 185.59 157.73 C 184.87 157.24 183.90 157.42 183.40 158.13 L 182.79 159.02 C 182.29 159.73 182.47 160.71 183.18 161.20 C 183.90 161.69 184.87 161.51 185.37 160.80 Z M 186.01 159.86 L 186.56 159.00 C 187.03 158.27 186.81 157.31 186.08 156.84 C 185.35 156.38 184.39 156.59 183.92 157.32 L 183.37 158.18 C 182.91 158.91 183.12 159.88 183.85 160.34 C 184.58 160.81 185.55 160.59 186.01 159.86 Z M 186.59 158.96 L 187.11 158.08 C 187.55 157.34 187.31 156.38 186.57 155.94 C 185.82 155.49 184.86 155.74 184.42 156.48 L 183.90 157.36 C 183.45 158.10 183.70 159.06 184.44 159.51 C 185.18 159.95 186.14 159.71 186.59 158.96 Z M 187.13 158.05 L 187.64 157.14 C 188.06 156.38 187.79 155.43 187.04 155.01 C 186.28 154.58 185.33 154.85 184.91 155.61 L 184.40 156.52 C 183.98 157.27 184.25 158.23 185.00 158.65 C 185.76 159.07 186.71 158.80 187.13 158.05 Z M 187.66 157.10 L 188.14 156.18 C 188.54 155.41 188.25 154.47 187.48 154.07 C 186.72 153.67 185.77 153.96 185.37 154.73 L 184.89 155.65 C 184.49 156.41 184.78 157.36 185.55 157.76 C 186.31 158.16 187.26 157.86 187.66 157.10 Z M 188.16 156.14 L 188.60 155.23 C 188.98 154.46 188.66 153.52 187.89 153.14 C 187.11 152.76 186.17 153.09 185.79 153.86 L 185.35 154.77 C 184.97 155.54 185.29 156.48 186.07 156.86 C 186.84 157.24 187.78 156.92 188.16 156.14 Z M 188.62 155.19 L 189.01 154.32 C 189.37 153.53 189.02 152.61 188.23 152.25 C 187.45 151.90 186.52 152.25 186.17 153.04 L 185.77 153.91 C 185.42 154.69 185.77 155.62 186.56 155.97 C 187.34 156.33 188.27 155.98 188.62 155.19 Z M 189.04 154.26 L 189.43 153.29 C 189.75 152.48 189.36 151.58 188.56 151.26 C 187.76 150.94 186.85 151.33 186.53 152.13 L 186.14 153.10 C 185.82 153.90 186.21 154.81 187.01 155.13 C 187.81 155.45 188.72 155.06 189.04 154.26 Z M 189.46 153.20 L 189.81 152.15 C 190.08 151.33 189.64 150.44 188.82 150.17 C 188.00 149.90 187.12 150.34 186.85 151.16 L 186.50 152.21 C 186.23 153.03 186.67 153.92 187.49 154.19 C 188.31 154.46 189.19 154.02 189.46 153.20 Z M 189.84 152.05 L 190.09 151.10 C 190.31 150.26 189.81 149.41 188.98 149.19 C 188.14 148.97 187.29 149.47 187.07 150.30 L 186.82 151.26 C 186.60 152.09 187.10 152.94 187.93 153.16 C 188.76 153.38 189.62 152.88 189.84 152.05 Z M 190.11 151.02 L 190.29 150.13 C 190.47 149.29 189.93 148.46 189.09 148.28 C 188.24 148.10 187.42 148.64 187.24 149.49 L 187.05 150.38 C 186.87 151.22 187.42 152.05 188.26 152.23 C 189.10 152.40 189.93 151.86 190.11 151.02 Z M 190.30 150.09 L 190.44 149.33 C 190.60 148.48 190.03 147.67 189.19 147.51 C 188.34 147.36 187.53 147.92 187.37 148.77 L 187.23 149.53 C 187.08 150.38 187.64 151.19 188.49 151.34 C 189.33 151.50 190.15 150.94 190.30 150.09 Z"
      fill="black"
      fill-rule="nonzero" /><path d="M 158.05 96.70 L 157.11 96.14 C 156.34 95.68 155.33 95.93 154.87 96.71 C 154.41 97.49 154.66 98.49 155.44 98.95 L 156.37 99.51 C 157.15 99.97 158.15 99.72 158.62 98.94 C 159.08 98.17 158.82 97.16 158.05 96.70 Z M 156.97 96.03 L 156.05 95.61 C 155.21 95.23 154.22 95.60 153.84 96.44 C 153.46 97.28 153.83 98.27 154.67 98.66 L 155.58 99.07 C 156.42 99.45 157.42 99.08 157.80 98.24 C 158.18 97.40 157.81 96.41 156.97 96.03 Z M 155.62 95.44 L 154.74 95.31 C 153.81 95.17 152.94 95.81 152.80 96.75 C 152.66 97.68 153.30 98.55 154.23 98.69 L 155.11 98.82 C 156.04 98.96 156.91 98.32 157.05 97.39 C 157.19 96.45 156.55 95.58 155.62 95.44 Z M 153.97 95.35 L 153.14 95.61 C 152.23 95.90 151.72 96.87 152.01 97.78 C 152.29 98.69 153.26 99.20 154.18 98.91 L 155.01 98.65 C 155.92 98.37 156.42 97.39 156.14 96.48 C 155.85 95.57 154.88 95.06 153.97 95.35 Z M 152.58 95.89 L 151.81 96.50 C 151.05 97.10 150.92 98.19 151.51 98.95 C 152.11 99.70 153.20 99.83 153.96 99.24 L 154.73 98.63 C 155.49 98.04 155.62 96.94 155.03 96.19 C 154.43 95.43 153.34 95.30 152.58 95.89 Z M 151.54 96.75 L 150.82 97.60 C 150.20 98.34 150.30 99.44 151.04 100.06 C 151.78 100.69 152.88 100.59 153.51 99.85 L 154.22 99.00 C 154.84 98.26 154.75 97.15 154.01 96.53 C 153.26 95.91 152.16 96.01 151.54 96.75 Z M 150.71 97.74 L 150.22 98.47 C 149.68 99.27 149.89 100.36 150.69 100.91 C 151.50 101.45 152.59 101.24 153.13 100.43 L 153.62 99.71 C 154.16 98.90 153.95 97.81 153.15 97.27 C 152.34 96.73 151.25 96.94 150.71 97.74 Z M 150.16 98.56 L 149.68 99.39 C 149.19 100.22 149.47 101.30 150.30 101.79 C 151.14 102.28 152.22 102.00 152.71 101.16 L 153.19 100.34 C 153.68 99.50 153.40 98.43 152.56 97.94 C 151.72 97.45 150.65 97.73 150.16 98.56 Z M 149.63 99.46 L 149.15 100.38 C 148.71 101.24 149.04 102.30 149.90 102.75 C 150.76 103.20 151.82 102.87 152.27 102.01 L 152.75 101.09 C 153.20 100.23 152.86 99.17 152.00 98.72 C 151.14 98.27 150.08 98.60 149.63 99.46 Z M 149.12 100.44 L 148.64 101.45 C 148.23 102.33 148.60 103.38 149.48 103.80 C 150.36 104.21 151.41 103.84 151.82 102.96 L 152.30 101.95 C 152.72 101.07 152.34 100.02 151.47 99.60 C 150.59 99.19 149.54 99.56 149.12 100.44 Z M 148.62 101.50 L 148.22 102.42 C 147.82 103.31 148.23 104.35 149.12 104.74 C 150.00 105.14 151.04 104.73 151.43 103.84 L 151.84 102.92 C 152.23 102.03 151.83 100.99 150.94 100.60 C 150.05 100.21 149.02 100.61 148.62 101.50 Z M 148.20 102.45 L 147.81 103.39 C 147.43 104.29 147.86 105.32 148.75 105.69 C 149.65 106.07 150.68 105.65 151.05 104.75 L 151.45 103.81 C 151.82 102.92 151.40 101.89 150.50 101.51 C 149.61 101.14 148.58 101.56 148.20 102.45 Z M 147.80 103.41 L 147.42 104.37 C 147.05 105.27 147.49 106.30 148.39 106.66 C 149.29 107.02 150.32 106.58 150.68 105.68 L 151.06 104.73 C 151.43 103.83 150.99 102.80 150.09 102.44 C 149.19 102.08 148.16 102.51 147.80 103.41 Z M 147.41 104.39 L 147.04 105.34 C 146.69 106.24 147.14 107.26 148.04 107.61 C 148.95 107.97 149.97 107.52 150.32 106.61 L 150.69 105.66 C 151.04 104.76 150.59 103.74 149.68 103.39 C 148.78 103.04 147.76 103.48 147.41 104.39 Z M 147.03 105.35 L 146.69 106.27 C 146.35 107.18 146.81 108.19 147.71 108.53 C 148.62 108.88 149.64 108.42 149.98 107.51 L 150.32 106.59 C 150.67 105.69 150.21 104.67 149.30 104.33 C 148.39 103.98 147.38 104.44 147.03 105.35 Z M 146.68 106.28 L 146.33 107.26 C 145.99 108.17 146.46 109.18 147.37 109.51 C 148.29 109.85 149.30 109.38 149.63 108.47 L 149.99 107.49 C 150.32 106.58 149.85 105.57 148.94 105.23 C 148.03 104.90 147.02 105.37 146.68 106.28 Z M 146.32 107.28 L 145.98 108.25 C 145.65 109.17 146.13 110.17 147.05 110.49 C 147.97 110.82 148.97 110.34 149.29 109.42 L 149.64 108.45 C 149.96 107.53 149.48 106.53 148.56 106.20 C 147.65 105.88 146.64 106.36 146.32 107.28 Z M 145.97 108.27 L 145.66 109.19 C 145.34 110.11 145.84 111.11 146.75 111.42 C 147.67 111.73 148.67 111.24 148.99 110.32 L 149.30 109.40 C 149.61 108.48 149.12 107.48 148.20 107.17 C 147.28 106.86 146.28 107.35 145.97 108.27 Z M 145.65 109.21 L 145.35 110.11 C 145.05 111.03 145.55 112.03 146.47 112.33 C 147.39 112.64 148.39 112.14 148.69 111.21 L 148.99 110.31 C 149.29 109.39 148.79 108.39 147.87 108.09 C 146.95 107.78 145.96 108.28 145.65 109.21 Z M 145.35 110.12 L 145.06 111.02 C 144.76 111.95 145.27 112.94 146.19 113.24 C 147.12 113.53 148.11 113.03 148.40 112.10 L 148.69 111.20 C 148.99 110.28 148.49 109.29 147.56 108.99 C 146.64 108.69 145.65 109.20 145.35 110.12 Z M 145.06 111.03 L 144.77 111.94 C 144.48 112.86 144.99 113.85 145.91 114.14 C 146.84 114.44 147.83 113.92 148.12 113.00 L 148.41 112.09 C 148.70 111.17 148.19 110.18 147.26 109.89 C 146.34 109.60 145.35 110.11 145.06 111.03 Z M 144.77 111.95 L 144.48 112.89 C 144.19 113.82 144.71 114.80 145.64 115.09 C 146.56 115.37 147.55 114.85 147.83 113.93 L 148.12 112.99 C 148.41 112.06 147.89 111.08 146.96 110.79 C 146.04 110.50 145.05 111.02 144.77 111.95 Z M 144.47 112.91 L 144.18 113.89 C 143.90 114.81 144.43 115.79 145.36 116.07 C 146.29 116.35 147.26 115.82 147.54 114.89 L 147.84 113.91 C 148.11 112.98 147.59 112.01 146.66 111.73 C 145.73 111.45 144.75 111.98 144.47 112.91 Z M 144.17 113.90 L 143.88 114.93 C 143.61 115.86 144.15 116.83 145.08 117.10 C 146.01 117.37 146.98 116.83 147.25 115.90 L 147.55 114.88 C 147.82 113.95 147.28 112.97 146.35 112.70 C 145.42 112.43 144.44 112.97 144.17 113.90 Z M 143.88 114.94 L 143.62 115.85 C 143.36 116.79 143.91 117.75 144.84 118.01 C 145.78 118.27 146.74 117.72 147.00 116.79 L 147.25 115.88 C 147.51 114.95 146.97 113.98 146.03 113.72 C 145.10 113.46 144.13 114.01 143.88 114.94 Z M 143.62 115.87 L 143.37 116.79 C 143.12 117.73 143.67 118.69 144.61 118.94 C 145.54 119.19 146.50 118.64 146.75 117.70 L 147.00 116.78 C 147.26 115.84 146.70 114.88 145.77 114.63 C 144.83 114.38 143.87 114.93 143.62 115.87 Z M 143.37 116.80 L 143.12 117.76 C 142.87 118.69 143.43 119.65 144.36 119.90 C 145.30 120.14 146.26 119.59 146.50 118.65 L 146.75 117.69 C 147.00 116.76 146.44 115.80 145.51 115.56 C 144.58 115.31 143.62 115.87 143.37 116.80 Z M 143.12 117.77 L 142.86 118.76 C 142.62 119.69 143.18 120.64 144.11 120.89 C 145.05 121.13 146.00 120.57 146.24 119.64 L 146.50 118.65 C 146.74 117.71 146.18 116.76 145.25 116.51 C 144.32 116.27 143.36 116.83 143.12 117.77 Z M 142.86 118.76 L 142.60 119.78 C 142.36 120.71 142.92 121.67 143.85 121.91 C 144.78 122.15 145.74 121.59 145.98 120.66 L 146.24 119.63 C 146.48 118.70 145.92 117.75 144.99 117.51 C 144.06 117.26 143.10 117.83 142.86 118.76 Z M 142.60 119.78 L 142.35 120.76 C 142.11 121.70 142.67 122.65 143.60 122.89 C 144.53 123.13 145.48 122.57 145.72 121.64 L 145.98 120.66 C 146.22 119.72 145.66 118.77 144.72 118.53 C 143.79 118.29 142.84 118.85 142.60 119.78 Z M 142.35 120.77 L 142.10 121.71 C 141.86 122.64 142.42 123.59 143.35 123.83 C 144.28 124.08 145.23 123.52 145.47 122.59 L 145.72 121.64 C 145.96 120.71 145.40 119.76 144.47 119.52 C 143.54 119.28 142.59 119.83 142.35 120.77 Z M 142.11 121.72 L 141.86 122.68 C 141.62 123.61 142.18 124.56 143.10 124.80 C 144.03 125.04 144.98 124.48 145.22 123.55 L 145.47 122.58 C 145.71 121.66 145.15 120.71 144.22 120.47 C 143.29 120.23 142.35 120.79 142.11 121.72 Z M 141.86 122.69 L 141.61 123.66 C 141.37 124.59 141.93 125.54 142.86 125.77 C 143.79 126.01 144.73 125.45 144.97 124.52 L 145.22 123.55 C 145.46 122.62 144.90 121.67 143.97 121.44 C 143.04 121.20 142.10 121.76 141.86 122.69 Z M 141.61 123.67 L 141.36 124.65 C 141.13 125.58 141.69 126.52 142.61 126.75 C 143.54 126.99 144.48 126.43 144.72 125.50 L 144.97 124.52 C 145.20 123.59 144.64 122.65 143.71 122.41 C 142.79 122.18 141.84 122.74 141.61 123.67 Z M 141.36 124.66 L 141.12 125.64 C 140.89 126.57 141.45 127.51 142.38 127.74 C 143.30 127.97 144.24 127.41 144.47 126.48 L 144.72 125.49 C 144.95 124.57 144.38 123.63 143.46 123.40 C 142.53 123.17 141.59 123.73 141.36 124.66 Z M 141.12 125.65 L 140.88 126.63 C 140.65 127.56 141.22 128.49 142.14 128.72 C 143.07 128.95 144.00 128.38 144.23 127.45 L 144.47 126.47 C 144.70 125.54 144.13 124.61 143.20 124.38 C 142.28 124.16 141.34 124.73 141.12 125.65 Z M 140.88 126.64 L 140.65 127.62 C 140.42 128.54 140.99 129.47 141.92 129.70 C 142.84 129.92 143.77 129.35 143.99 128.42 L 144.23 127.44 C 144.45 126.52 143.88 125.59 142.96 125.37 C 142.03 125.15 141.10 125.72 140.88 126.64 Z M 140.65 127.63 L 140.42 128.60 C 140.20 129.52 140.77 130.45 141.69 130.67 C 142.62 130.88 143.54 130.31 143.76 129.39 L 143.99 128.42 C 144.21 127.49 143.64 126.57 142.71 126.35 C 141.79 126.13 140.87 126.70 140.65 127.63 Z M 140.42 128.60 L 140.19 129.57 C 139.98 130.50 140.55 131.42 141.47 131.63 C 142.39 131.85 143.32 131.28 143.53 130.36 L 143.76 129.38 C 143.97 128.46 143.40 127.54 142.48 127.33 C 141.56 127.11 140.64 127.68 140.42 128.60 Z M 140.20 129.58 L 139.97 130.55 C 139.76 131.47 140.33 132.39 141.25 132.60 C 142.17 132.81 143.09 132.24 143.30 131.32 L 143.53 130.35 C 143.74 129.43 143.17 128.51 142.25 128.30 C 141.33 128.09 140.41 128.66 140.20 129.58 Z M 139.98 130.55 L 139.75 131.52 C 139.53 132.43 140.10 133.35 141.02 133.57 C 141.94 133.78 142.86 133.21 143.07 132.29 L 143.30 131.32 C 143.51 130.41 142.94 129.49 142.02 129.27 C 141.11 129.06 140.19 129.63 139.98 130.55 Z M 139.75 131.52 L 139.53 132.49 C 139.31 133.40 139.88 134.32 140.79 134.53 C 141.71 134.75 142.62 134.18 142.84 133.27 L 143.07 132.30 C 143.28 131.38 142.71 130.46 141.80 130.25 C 140.89 130.03 139.97 130.60 139.75 131.52 Z M 139.53 132.48 L 139.30 133.45 C 139.08 134.36 139.65 135.28 140.56 135.50 C 141.47 135.71 142.39 135.15 142.60 134.24 L 142.83 133.27 C 143.05 132.36 142.49 131.44 141.57 131.22 C 140.66 131.01 139.75 131.57 139.53 132.48 Z M 139.30 133.45 L 139.07 134.42 C 138.85 135.33 139.41 136.24 140.32 136.46 C 141.23 136.68 142.15 136.12 142.37 135.21 L 142.60 134.24 C 142.82 133.33 142.25 132.41 141.34 132.20 C 140.44 131.98 139.52 132.54 139.30 133.45 Z M 139.08 134.42 L 138.84 135.40 C 138.63 136.30 139.18 137.21 140.09 137.43 C 141.00 137.65 141.91 137.09 142.13 136.18 L 142.36 135.21 C 142.58 134.30 142.02 133.39 141.11 133.17 C 140.20 132.96 139.29 133.51 139.08 134.42 Z M 138.85 135.40 L 138.61 136.37 C 138.40 137.28 138.96 138.19 139.86 138.40 C 140.77 138.62 141.68 138.06 141.89 137.15 L 142.12 136.18 C 142.34 135.27 141.78 134.37 140.88 134.15 C 139.97 133.93 139.06 134.49 138.85 135.40 Z M 138.62 136.38 L 138.39 137.35 C 138.17 138.26 138.73 139.16 139.63 139.37 C 140.54 139.59 141.44 139.03 141.66 138.13 L 141.89 137.15 C 142.10 136.25 141.54 135.34 140.64 135.13 C 139.74 134.91 138.83 135.47 138.62 136.38 Z M 138.39 137.36 L 138.16 138.33 C 137.95 139.23 138.51 140.14 139.41 140.35 C 140.31 140.56 141.21 140.00 141.43 139.10 L 141.65 138.12 C 141.86 137.22 141.30 136.32 140.40 136.11 C 139.50 135.90 138.60 136.46 138.39 137.36 Z M 138.16 138.34 L 137.94 139.31 C 137.73 140.21 138.29 141.11 139.19 141.31 C 140.09 141.52 140.99 140.96 141.20 140.06 L 141.42 139.09 C 141.63 138.19 141.07 137.29 140.17 137.09 C 139.27 136.88 138.37 137.44 138.16 138.34 Z M 137.94 139.31 L 137.72 140.29 C 137.52 141.18 138.08 142.08 138.98 142.28 C 139.87 142.49 140.77 141.93 140.97 141.03 L 141.19 140.06 C 141.40 139.16 140.84 138.27 139.94 138.06 C 139.04 137.86 138.15 138.42 137.94 139.31 Z M 137.73 140.29 L 137.51 141.26 C 137.30 142.16 137.86 143.05 138.76 143.25 C 139.65 143.46 140.54 142.89 140.75 142.00 L 140.97 141.03 C 141.17 140.13 140.61 139.24 139.72 139.04 C 138.82 138.83 137.93 139.40 137.73 140.29 Z M 137.51 141.26 L 137.29 142.24 C 137.09 143.13 137.65 144.02 138.54 144.22 C 139.43 144.42 140.32 143.87 140.52 142.97 L 140.74 142.00 C 140.94 141.11 140.38 140.22 139.49 140.02 C 138.60 139.81 137.71 140.37 137.51 141.26 Z M 137.29 142.24 L 137.07 143.22 C 136.87 144.11 137.43 144.99 138.31 145.19 C 139.20 145.40 140.09 144.84 140.29 143.95 L 140.51 142.97 C 140.72 142.08 140.16 141.20 139.27 141.00 C 138.38 140.79 137.50 141.35 137.29 142.24 Z M 137.08 143.22 L 136.85 144.20 C 136.65 145.08 137.20 145.97 138.09 146.17 C 138.97 146.37 139.86 145.82 140.06 144.93 L 140.29 143.95 C 140.49 143.07 139.94 142.18 139.05 141.98 C 138.16 141.78 137.28 142.33 137.08 143.22 Z M 136.86 144.19 L 136.63 145.17 C 136.43 146.05 136.97 146.93 137.86 147.14 C 138.74 147.34 139.62 146.79 139.83 145.91 L 140.06 144.94 C 140.26 144.05 139.71 143.17 138.83 142.97 C 137.94 142.76 137.06 143.31 136.86 144.19 Z M 136.64 145.16 L 136.41 146.14 C 136.20 147.02 136.74 147.90 137.62 148.11 C 138.50 148.31 139.39 147.77 139.59 146.89 L 139.82 145.91 C 140.03 145.03 139.49 144.15 138.61 143.94 C 137.73 143.74 136.84 144.28 136.64 145.16 Z M 136.41 146.13 L 136.18 147.11 C 135.97 147.99 136.51 148.87 137.39 149.08 C 138.26 149.29 139.14 148.75 139.35 147.87 L 139.59 146.89 C 139.80 146.02 139.26 145.14 138.38 144.93 C 137.50 144.72 136.62 145.26 136.41 146.13 Z M 136.18 147.10 L 135.95 148.08 C 135.74 148.95 136.27 149.83 137.15 150.04 C 138.02 150.26 138.90 149.72 139.11 148.85 L 139.35 147.87 C 139.56 147.00 139.02 146.12 138.15 145.91 C 137.28 145.69 136.40 146.23 136.18 147.10 Z M 135.95 148.07 L 135.71 149.04 C 135.50 149.91 136.03 150.79 136.90 151.01 C 137.77 151.22 138.65 150.69 138.87 149.82 L 139.11 148.85 C 139.32 147.98 138.79 147.10 137.92 146.89 C 137.05 146.67 136.17 147.20 135.95 148.07 Z M 135.72 149.04 L 135.48 150.00 C 135.26 150.87 135.78 151.75 136.65 151.97 C 137.52 152.19 138.40 151.66 138.62 150.79 L 138.86 149.83 C 139.08 148.96 138.55 148.08 137.69 147.86 C 136.82 147.64 135.94 148.17 135.72 149.04 Z M 135.48 149.99 L 135.24 150.95 C 135.01 151.82 135.53 152.70 136.40 152.92 C 137.26 153.14 138.14 152.62 138.36 151.76 L 138.61 150.80 C 138.83 149.94 138.31 149.06 137.45 148.83 C 136.59 148.61 135.70 149.13 135.48 149.99 Z M 135.24 150.95 L 134.99 151.90 C 134.77 152.76 135.28 153.64 136.14 153.87 C 137.00 154.09 137.88 153.58 138.11 152.72 L 138.36 151.76 C 138.58 150.90 138.07 150.02 137.21 149.80 C 136.35 149.57 135.47 150.09 135.24 150.95 Z M 135.00 151.90 L 134.74 152.86 C 134.52 153.72 135.03 154.60 135.89 154.82 C 136.75 155.05 137.63 154.53 137.85 153.68 L 138.10 152.72 C 138.33 151.86 137.82 150.98 136.96 150.76 C 136.10 150.53 135.22 151.04 135.00 151.90 Z M 134.75 152.86 L 134.49 153.82 C 134.27 154.68 134.78 155.55 135.63 155.78 C 136.49 156.01 137.37 155.50 137.59 154.64 L 137.85 153.68 C 138.07 152.82 137.56 151.94 136.71 151.72 C 135.85 151.49 134.97 152.00 134.75 152.86 Z M 134.50 153.83 L 134.24 154.80 C 134.02 155.65 134.53 156.53 135.38 156.75 C 136.24 156.97 137.11 156.46 137.34 155.61 L 137.59 154.64 C 137.81 153.78 137.30 152.91 136.45 152.68 C 135.59 152.46 134.72 152.97 134.50 153.83 Z M 134.24 154.80 L 133.99 155.79 C 133.77 156.65 134.28 157.52 135.13 157.74 C 135.99 157.96 136.86 157.45 137.08 156.59 L 137.33 155.60 C 137.55 154.75 137.04 153.88 136.19 153.66 C 135.34 153.44 134.46 153.95 134.24 154.80 Z M 133.99 155.80 L 133.74 156.78 C 133.52 157.63 134.04 158.50 134.89 158.71 C 135.74 158.93 136.61 158.41 136.83 157.56 L 137.08 156.58 C 137.29 155.73 136.78 154.87 135.92 154.65 C 135.07 154.43 134.21 154.95 133.99 155.80 Z M 133.74 156.78 L 133.50 157.76 C 133.29 158.62 133.80 159.48 134.66 159.69 C 135.51 159.90 136.37 159.39 136.58 158.53 L 136.83 157.55 C 137.04 156.70 136.52 155.84 135.67 155.63 C 134.82 155.42 133.95 155.93 133.74 156.78 Z M 133.50 157.77 L 133.26 158.76 C 133.05 159.61 133.57 160.47 134.42 160.68 C 135.27 160.88 136.13 160.36 136.34 159.51 L 136.58 158.53 C 136.79 157.68 136.27 156.82 135.42 156.61 C 134.57 156.40 133.71 156.92 133.50 157.77 Z M 133.26 158.76 L 133.02 159.75 C 132.81 160.60 133.34 161.45 134.19 161.66 C 135.04 161.86 135.90 161.34 136.10 160.49 L 136.34 159.51 C 136.54 158.66 136.02 157.80 135.17 157.59 C 134.32 157.39 133.46 157.91 133.26 158.76 Z M 133.02 159.75 L 132.79 160.73 C 132.59 161.58 133.11 162.43 133.96 162.63 C 134.81 162.84 135.66 162.31 135.87 161.46 L 136.10 160.49 C 136.30 159.63 135.78 158.78 134.93 158.58 C 134.08 158.38 133.22 158.90 133.02 159.75 Z M 132.79 160.73 L 132.56 161.69 C 132.36 162.54 132.89 163.39 133.74 163.59 C 134.59 163.79 135.44 163.27 135.64 162.42 L 135.87 161.46 C 136.07 160.61 135.54 159.76 134.69 159.56 C 133.84 159.36 132.99 159.88 132.79 160.73 Z M 132.56 161.70 L 132.34 162.67 C 132.14 163.51 132.67 164.36 133.52 164.56 C 134.37 164.76 135.22 164.23 135.42 163.38 L 135.64 162.41 C 135.84 161.56 135.31 160.71 134.46 160.52 C 133.61 160.32 132.76 160.85 132.56 161.70 Z M 132.34 162.67 L 132.11 163.70 C 131.91 164.55 132.44 165.39 133.29 165.59 C 134.14 165.78 134.99 165.25 135.18 164.40 L 135.42 163.37 C 135.61 162.52 135.08 161.68 134.23 161.48 C 133.38 161.29 132.53 161.82 132.34 162.67 Z M 132.10 163.70 L 131.88 164.70 C 131.69 165.55 132.23 166.40 133.08 166.59 C 133.93 166.78 134.78 166.24 134.97 165.39 L 135.19 164.39 C 135.38 163.54 134.84 162.69 133.99 162.50 C 133.14 162.31 132.29 162.85 132.10 163.70 Z M 131.88 164.71 L 131.66 165.68 C 131.48 166.53 132.02 167.38 132.87 167.56 C 133.73 167.75 134.57 167.21 134.76 166.35 L 134.97 165.38 C 135.16 164.53 134.61 163.68 133.76 163.50 C 132.91 163.31 132.06 163.85 131.88 164.71 Z M 131.66 165.69 L 131.46 166.64 C 131.28 167.50 131.82 168.34 132.68 168.52 C 133.54 168.70 134.38 168.16 134.56 167.30 L 134.76 166.34 C 134.94 165.49 134.40 164.65 133.54 164.46 C 132.68 164.28 131.84 164.83 131.66 165.69 Z M 131.45 166.65 L 131.26 167.59 C 131.08 168.45 131.64 169.29 132.50 169.47 C 133.36 169.65 134.19 169.09 134.37 168.23 L 134.56 167.29 C 134.74 166.43 134.19 165.59 133.33 165.41 C 132.47 165.24 131.63 165.79 131.45 166.65 Z M 131.25 167.60 L 131.06 168.57 C 130.89 169.44 131.45 170.27 132.32 170.44 C 133.18 170.61 134.01 170.05 134.18 169.19 L 134.38 168.22 C 134.55 167.36 133.99 166.52 133.12 166.35 C 132.26 166.18 131.42 166.74 131.25 167.60 Z M 131.06 168.58 L 130.87 169.58 C 130.70 170.45 131.27 171.28 132.14 171.45 C 133.00 171.61 133.84 171.04 134.00 170.18 L 134.19 169.18 C 134.36 168.31 133.79 167.48 132.92 167.31 C 132.06 167.15 131.22 167.72 131.06 168.58 Z M 130.86 169.59 L 130.68 170.58 C 130.52 171.45 131.09 172.29 131.96 172.45 C 132.83 172.61 133.67 172.03 133.83 171.16 L 134.01 170.17 C 134.17 169.30 133.59 168.47 132.72 168.31 C 131.85 168.15 131.02 168.72 130.86 169.59 Z M 130.67 170.59 L 130.50 171.58 C 130.34 172.45 130.92 173.28 131.80 173.44 C 132.67 173.59 133.50 173.01 133.66 172.14 L 133.83 171.15 C 133.99 170.28 133.41 169.45 132.53 169.29 C 131.66 169.14 130.83 169.72 130.67 170.59 Z M 130.49 171.58 L 130.32 172.55 C 130.17 173.43 130.76 174.27 131.63 174.42 C 132.51 174.57 133.35 173.98 133.50 173.10 L 133.67 172.13 C 133.82 171.25 133.23 170.42 132.35 170.27 C 131.48 170.12 130.64 170.70 130.49 171.58 Z M 130.31 172.56 L 130.15 173.53 C 130.00 174.41 130.59 175.25 131.47 175.40 C 132.35 175.54 133.19 174.95 133.34 174.07 L 133.50 173.10 C 133.65 172.22 133.06 171.38 132.18 171.23 C 131.30 171.08 130.46 171.68 130.31 172.56 Z M 130.14 173.53 L 129.97 174.56 C 129.82 175.45 130.42 176.29 131.30 176.43 C 132.19 176.58 133.03 175.98 133.17 175.10 L 133.35 174.07 C 133.49 173.18 132.90 172.35 132.01 172.20 C 131.13 172.05 130.29 172.65 130.14 173.53 Z M 129.96 174.57 L 129.80 175.58 C 129.65 176.47 130.25 177.31 131.14 177.45 C 132.03 177.60 132.87 176.99 133.02 176.10 L 133.18 175.09 C 133.33 174.20 132.72 173.37 131.84 173.22 C 130.95 173.08 130.11 173.68 129.96 174.57 Z M 129.79 175.58 L 129.63 176.57 C 129.49 177.46 130.10 178.30 130.99 178.44 C 131.89 178.59 132.73 177.98 132.87 177.08 L 133.03 176.10 C 133.17 175.20 132.56 174.36 131.67 174.22 C 130.77 174.08 129.93 174.69 129.79 175.58 Z M 129.62 176.58 L 129.47 177.53 C 129.34 178.43 129.95 179.27 130.85 179.41 C 131.75 179.55 132.59 178.94 132.73 178.04 L 132.88 177.08 C 133.02 176.18 132.40 175.34 131.50 175.20 C 130.60 175.06 129.76 175.68 129.62 176.58 Z M 129.47 177.54 L 129.32 178.50 C 129.19 179.40 129.81 180.25 130.72 180.38 C 131.62 180.51 132.46 179.89 132.59 178.99 L 132.74 178.03 C 132.87 177.13 132.25 176.28 131.34 176.15 C 130.44 176.02 129.60 176.64 129.47 177.54 Z M 129.32 178.51 L 129.17 179.54 C 129.04 180.44 129.68 181.28 130.58 181.41 C 131.49 181.54 132.33 180.91 132.45 180.00 L 132.60 178.98 C 132.73 178.07 132.10 177.23 131.19 177.10 C 130.29 176.98 129.45 177.61 129.32 178.51 Z M 129.17 179.55 L 129.03 180.54 C 128.91 181.45 129.55 182.28 130.46 182.41 C 131.36 182.53 132.20 181.89 132.32 180.99 L 132.46 179.99 C 132.58 179.08 131.95 178.25 131.04 178.12 C 130.13 178.00 129.29 178.64 129.17 179.55 Z M 129.03 180.55 L 128.90 181.52 C 128.78 182.43 129.42 183.26 130.33 183.38 C 131.24 183.50 132.08 182.86 132.20 181.95 L 132.33 180.98 C 132.45 180.07 131.81 179.23 130.90 179.11 C 129.99 178.99 129.15 179.63 129.03 180.55 Z M 128.90 181.52 L 128.77 182.48 C 128.66 183.40 129.30 184.23 130.21 184.35 C 131.12 184.47 131.96 183.82 132.08 182.91 L 132.20 181.95 C 132.32 181.04 131.68 180.20 130.76 180.08 C 129.85 179.97 129.02 180.61 128.90 181.52 Z"
      fill="black"
      fill-rule="nonzero" /></svg>