<svg xmlns="http://www.w3.org/2000/svg" width="300" height="300" viewBox="0 0 300 300">
<path d="M 139.17 124.82 L 137.73 124.83 C 136.74 124.83 135.93 125.64 135.94 126.64 C 135.94 127.63 136.75 128.44 137.75 128.44 L 139.18 128.43 C 140.18 128.43 140.98 127.62 140.98 126.62 C 140.97 125.63 140.16 124.82 139.17 124.82 Z M 137.69 124.80 L 136.58 124.83 C 135.57 124.86 134.77 125.71 134.80 126.72 C 134.83 127.73 135.67 128.53 136.69 128.50 L 137.79 128.47 C 138.81 128.44 139.60 127.59 139.57 126.58 C 139.54 125.57 138.70 124.77 137.69 124.80 Z M 136.28 124.83 L 135.82 124.92 C 134.81 125.12 134.15 126.10 134.34 127.11 C 134.54 128.12 135.52 128.78 136.53 128.58 L 136.99 128.50 C 138.00 128.30 138.66 127.32 138.46 126.31 C 138.27 125.30 137.29 124.64 136.28 124.83 Z M 135.46 128.50 L 135.80 128.64 C 136.77 129.03 137.87 128.57 138.26 127.61 C 138.66 126.65 138.20 125.55 137.23 125.15 L 136.89 125.01 C 135.93 124.62 134.83 125.08 134.43 126.04 C 134.04 127.00 134.50 128.10 135.46 128.50 Z M 136.13 128.74 L 137.02 128.93 C 138.04 129.14 139.04 128.49 139.25 127.47 C 139.47 126.45 138.81 125.45 137.79 125.23 L 136.90 125.05 C 135.88 124.83 134.88 125.49 134.67 126.51 C 134.46 127.53 135.11 128.53 136.13 128.74 Z M 137.07 128.94 L 138.27 129.16 C 139.30 129.34 140.28 128.66 140.46 127.63 C 140.65 126.60 139.96 125.62 138.94 125.44 L 137.74 125.22 C 136.71 125.04 135.73 125.72 135.55 126.75 C 135.36 127.77 136.04 128.76 137.07 128.94 Z M 138.27 129.16 L 139.55 129.38 C 140.57 129.57 141.56 128.88 141.74 127.85 C 141.92 126.82 141.23 125.84 140.21 125.66 L 138.93 125.43 C 137.90 125.25 136.92 125.94 136.74 126.97 C 136.56 127.99 137.24 128.98 138.27 129.16 Z M 139.52 129.38 L 140.65 129.60 C 141.68 129.79 142.67 129.12 142.86 128.09 C 143.06 127.07 142.39 126.07 141.36 125.88 L 140.23 125.66 C 139.20 125.47 138.21 126.14 138.02 127.17 C 137.82 128.19 138.49 129.18 139.52 129.38 Z M 140.61 129.59 L 141.61 129.80 C 142.64 130.02 143.64 129.37 143.86 128.34 C 144.08 127.32 143.42 126.32 142.40 126.10 L 141.40 125.89 C 140.38 125.67 139.37 126.32 139.15 127.34 C 138.94 128.37 139.59 129.37 140.61 129.59 Z M 141.57 129.79 L 142.49 130.01 C 143.50 130.25 144.52 129.62 144.77 128.61 C 145.01 127.59 144.38 126.57 143.36 126.33 L 142.45 126.11 C 141.43 125.87 140.41 126.50 140.17 127.51 C 139.93 128.53 140.55 129.55 141.57 129.79 Z M 142.44 130.00 L 143.31 130.23 C 144.32 130.49 145.36 129.89 145.62 128.88 C 145.89 127.87 145.28 126.83 144.27 126.57 L 143.40 126.34 C 142.39 126.07 141.36 126.68 141.09 127.69 C 140.83 128.70 141.43 129.73 142.44 130.00 Z M 143.27 130.21 L 144.25 130.50 C 145.25 130.78 146.30 130.20 146.59 129.20 C 146.88 128.20 146.30 127.15 145.29 126.86 L 144.32 126.58 C 143.31 126.29 142.26 126.87 141.97 127.87 C 141.69 128.88 142.27 129.93 143.27 130.21 Z M 144.21 130.48 L 145.17 130.78 C 146.16 131.09 147.22 130.54 147.54 129.54 C 147.85 128.55 147.29 127.48 146.30 127.17 L 145.34 126.87 C 144.34 126.56 143.28 127.12 142.97 128.11 C 142.65 129.11 143.21 130.17 144.21 130.48 Z M 145.13 130.77 L 146.06 131.08 C 147.05 131.42 148.12 130.89 148.46 129.90 C 148.79 128.91 148.26 127.84 147.27 127.50 L 146.34 127.19 C 145.35 126.85 144.27 127.38 143.94 128.37 C 143.61 129.36 144.14 130.43 145.13 130.77 Z M 146.02 131.07 L 146.94 131.40 C 147.92 131.76 149.00 131.25 149.36 130.27 C 149.71 129.29 149.21 128.21 148.23 127.85 L 147.31 127.52 C 146.33 127.16 145.25 127.67 144.89 128.65 C 144.54 129.63 145.04 130.71 146.02 131.07 Z M 146.88 131.38 L 147.78 131.74 C 148.75 132.13 149.85 131.66 150.24 130.70 C 150.63 129.73 150.16 128.63 149.19 128.24 L 148.29 127.88 C 147.32 127.49 146.22 127.96 145.83 128.92 C 145.44 129.89 145.91 130.99 146.88 131.38 Z M 147.69 131.70 L 148.60 132.12 C 149.54 132.56 150.66 132.15 151.10 131.20 C 151.54 130.26 151.13 129.14 150.18 128.70 L 149.28 128.28 C 148.33 127.84 147.21 128.26 146.78 129.20 C 146.34 130.14 146.75 131.27 147.69 131.70 Z M 148.50 132.07 L 149.41 132.56 C 150.32 133.05 151.46 132.71 151.96 131.79 C 152.45 130.87 152.10 129.73 151.19 129.24 L 150.28 128.75 C 149.37 128.26 148.22 128.60 147.73 129.52 C 147.24 130.44 147.58 131.58 148.50 132.07 Z M 149.31 132.50 L 150.13 133.01 C 151.01 133.55 152.17 133.28 152.72 132.39 C 153.26 131.51 152.99 130.35 152.11 129.80 L 151.29 129.30 C 150.40 128.75 149.24 129.02 148.70 129.91 C 148.15 130.79 148.42 131.95 149.31 132.50 Z M 150.02 132.93 L 150.84 133.52 C 151.69 134.12 152.86 133.93 153.46 133.08 C 154.07 132.24 153.87 131.07 153.03 130.46 L 152.21 129.88 C 151.37 129.27 150.19 129.47 149.59 130.31 C 148.99 131.16 149.18 132.33 150.02 132.93 Z M 150.72 133.42 L 151.50 134.08 C 152.29 134.75 153.48 134.66 154.15 133.87 C 154.82 133.07 154.72 131.89 153.93 131.22 L 153.15 130.56 C 152.36 129.89 151.17 129.98 150.50 130.78 C 149.83 131.57 149.93 132.75 150.72 133.42 Z M 151.36 133.95 L 152.08 134.69 C 152.79 135.44 153.98 135.46 154.73 134.75 C 155.48 134.03 155.50 132.84 154.78 132.09 L 154.07 131.35 C 153.35 130.60 152.16 130.58 151.41 131.30 C 150.67 132.02 150.64 133.20 151.36 133.95 Z M 151.94 134.53 L 152.57 135.35 C 153.20 136.18 154.37 136.33 155.20 135.70 C 156.02 135.08 156.17 133.90 155.55 133.08 L 154.92 132.26 C 154.29 131.43 153.11 131.28 152.29 131.91 C 151.47 132.53 151.31 133.71 151.94 134.53 Z M 152.46 135.19 L 152.99 136.06 C 153.53 136.94 154.68 137.21 155.56 136.68 C 156.44 136.14 156.72 134.99 156.18 134.11 L 155.65 133.24 C 155.11 132.36 153.97 132.08 153.08 132.62 C 152.20 133.16 151.93 134.31 152.46 135.19 Z M 152.91 135.90 L 153.34 136.77 C 153.78 137.70 154.90 138.09 155.83 137.64 C 156.75 137.19 157.14 136.07 156.69 135.15 L 156.26 134.27 C 155.82 133.34 154.70 132.96 153.77 133.41 C 152.85 133.85 152.46 134.97 152.91 135.90 Z M 153.27 136.60 L 153.61 137.52 C 153.96 138.49 155.03 138.98 155.99 138.62 C 156.96 138.27 157.45 137.20 157.09 136.24 L 156.76 135.32 C 156.40 134.36 155.33 133.86 154.37 134.22 C 153.41 134.57 152.91 135.64 153.27 136.60 Z M 153.56 137.33 L 153.80 138.31 C 154.05 139.30 155.06 139.90 156.05 139.65 C 157.04 139.40 157.64 138.39 157.39 137.40 L 157.15 136.43 C 156.90 135.44 155.89 134.84 154.90 135.09 C 153.91 135.34 153.31 136.34 153.56 137.33 Z M 153.78 138.13 L 153.92 139.10 C 154.07 140.10 155.01 140.80 156.02 140.64 C 157.02 140.49 157.72 139.55 157.56 138.55 L 157.42 137.58 C 157.27 136.58 156.33 135.88 155.32 136.04 C 154.32 136.19 153.63 137.12 153.78 138.13 Z M 153.92 138.97 L 154.00 139.94 C 154.08 140.95 154.96 141.71 155.97 141.62 C 156.98 141.54 157.73 140.66 157.65 139.65 L 157.57 138.68 C 157.49 137.67 156.61 136.92 155.60 137.00 C 154.59 137.08 153.84 137.96 153.92 138.97 Z M 154.00 139.86 L 154.03 140.72 C 154.06 141.73 154.90 142.52 155.91 142.49 C 156.91 142.46 157.70 141.61 157.67 140.61 L 157.64 139.74 C 157.61 138.73 156.77 137.94 155.76 137.98 C 154.76 138.01 153.97 138.85 154.00 139.86 Z M 154.03 140.59 L 154.00 141.53 C 153.96 142.53 154.73 143.37 155.74 143.41 C 156.74 143.46 157.58 142.68 157.62 141.67 L 157.66 140.74 C 157.70 139.74 156.93 138.89 155.92 138.85 C 154.92 138.81 154.08 139.59 154.03 140.59 Z M 154.02 141.36 L 153.88 142.39 C 153.74 143.38 154.44 144.29 155.43 144.43 C 156.42 144.56 157.33 143.87 157.46 142.88 L 157.60 141.84 C 157.74 140.85 157.04 139.94 156.05 139.81 C 155.06 139.67 154.15 140.37 154.02 141.36 Z M 153.92 142.22 L 153.66 143.33 C 153.43 144.30 154.03 145.27 155.00 145.50 C 155.96 145.73 156.93 145.13 157.16 144.16 L 157.42 143.05 C 157.65 142.08 157.05 141.11 156.08 140.88 C 155.11 140.66 154.15 141.26 153.92 142.22 Z M 153.70 143.21 L 153.44 144.05 C 153.14 144.99 153.66 146.00 154.61 146.29 C 155.55 146.59 156.56 146.07 156.86 145.12 L 157.12 144.28 C 157.42 143.34 156.89 142.33 155.95 142.03 C 155.00 141.74 154.00 142.26 153.70 143.21 Z M 153.47 143.96 L 153.14 144.85 C 152.80 145.78 153.27 146.81 154.20 147.15 C 155.12 147.49 156.15 147.02 156.49 146.09 L 156.82 145.20 C 157.16 144.28 156.69 143.25 155.76 142.91 C 154.84 142.57 153.81 143.04 153.47 143.96 Z M 153.18 144.78 L 152.79 145.71 C 152.41 146.62 152.84 147.66 153.74 148.04 C 154.65 148.42 155.69 147.99 156.07 147.08 L 156.46 146.16 C 156.84 145.25 156.41 144.21 155.51 143.83 C 154.60 143.45 153.56 143.88 153.18 144.78 Z M 152.82 145.65 L 152.38 146.60 C 151.97 147.48 152.35 148.54 153.24 148.95 C 154.13 149.36 155.18 148.98 155.60 148.09 L 156.04 147.14 C 156.45 146.26 156.07 145.20 155.18 144.79 C 154.29 144.38 153.24 144.76 152.82 145.65 Z M 152.42 146.54 L 151.93 147.49 C 151.49 148.36 151.83 149.43 152.70 149.87 C 153.57 150.31 154.63 149.97 155.07 149.10 L 155.56 148.15 C 156.01 147.28 155.66 146.22 154.79 145.77 C 153.93 145.33 152.86 145.67 152.42 146.54 Z M 151.97 147.44 L 151.44 148.38 C 150.97 149.23 151.27 150.30 152.12 150.77 C 152.96 151.25 154.04 150.95 154.51 150.10 L 155.04 149.16 C 155.51 148.31 155.21 147.24 154.36 146.76 C 153.51 146.29 152.44 146.59 151.97 147.44 Z M 151.48 148.33 L 150.96 149.19 C 150.46 150.02 150.72 151.09 151.54 151.59 C 152.37 152.10 153.44 151.83 153.95 151.01 L 154.47 150.15 C 154.97 149.32 154.71 148.25 153.88 147.75 C 153.06 147.24 151.98 147.51 151.48 148.33 Z M 151.00 149.15 L 150.45 149.99 C 149.92 150.79 150.15 151.87 150.95 152.40 C 151.75 152.92 152.83 152.70 153.36 151.89 L 153.91 151.05 C 154.43 150.25 154.21 149.17 153.40 148.65 C 152.60 148.12 151.52 148.35 151.00 149.15 Z M 150.49 149.95 L 149.91 150.78 C 149.37 151.56 149.56 152.63 150.34 153.18 C 151.12 153.72 152.20 153.53 152.74 152.75 L 153.32 151.93 C 153.86 151.15 153.67 150.07 152.89 149.53 C 152.11 148.98 151.03 149.17 150.49 149.95 Z M 149.95 150.75 L 149.35 151.55 C 148.79 152.31 148.95 153.38 149.71 153.95 C 150.47 154.51 151.55 154.35 152.11 153.59 L 152.70 152.78 C 153.27 152.02 153.11 150.95 152.35 150.39 C 151.59 149.83 150.51 149.99 149.95 150.75 Z M 149.39 151.52 L 148.78 152.31 C 148.20 153.05 148.33 154.12 149.07 154.70 C 149.81 155.28 150.88 155.14 151.46 154.40 L 152.07 153.62 C 152.65 152.87 152.52 151.81 151.78 151.23 C 151.04 150.65 149.97 150.78 149.39 151.52 Z M 148.81 152.29 L 148.18 153.06 C 147.59 153.78 147.70 154.84 148.42 155.43 C 149.15 156.02 150.21 155.91 150.80 155.19 L 151.43 154.42 C 152.02 153.70 151.91 152.64 151.19 152.05 C 150.46 151.46 149.40 151.57 148.81 152.29 Z M 148.21 153.04 L 147.53 153.83 C 146.93 154.54 147.02 155.60 147.72 156.20 C 148.43 156.80 149.49 156.72 150.09 156.01 L 150.77 155.21 C 151.37 154.51 151.29 153.45 150.58 152.85 C 149.88 152.25 148.82 152.33 148.21 153.04 Z M 147.56 153.81 L 146.83 154.63 C 146.22 155.32 146.29 156.38 146.98 156.99 C 147.67 157.60 148.72 157.54 149.33 156.85 L 150.06 156.03 C 150.67 155.34 150.61 154.29 149.92 153.67 C 149.23 153.06 148.17 153.12 147.56 153.81 Z M 146.86 154.62 L 146.14 155.40 C 145.52 156.07 145.56 157.13 146.24 157.75 C 146.92 158.37 147.97 158.33 148.59 157.65 L 149.31 156.87 C 149.93 156.19 149.89 155.14 149.21 154.52 C 148.53 153.90 147.48 153.94 146.86 154.62 Z M 146.16 155.38 L 145.47 156.12 C 144.84 156.78 144.86 157.83 145.53 158.46 C 146.19 159.09 147.24 159.06 147.87 158.40 L 148.57 157.66 C 149.20 157.00 149.17 155.95 148.51 155.32 C 147.84 154.69 146.79 154.72 146.16 155.38 Z M 145.49 156.11 L 144.82 156.79 C 144.19 157.44 144.20 158.48 144.85 159.12 C 145.50 159.76 146.55 159.74 147.18 159.09 L 147.85 158.41 C 148.48 157.76 148.47 156.71 147.82 156.08 C 147.17 155.44 146.12 155.45 145.49 156.11 Z M 144.84 156.78 L 144.23 157.39 C 143.58 158.03 143.58 159.07 144.22 159.72 C 144.87 160.36 145.91 160.36 146.55 159.72 L 147.16 159.10 C 147.81 158.46 147.81 157.42 147.17 156.78 C 146.52 156.14 145.48 156.14 144.84 156.78 Z M 144.25 157.38 L 143.45 158.15 C 142.80 158.78 142.78 159.82 143.41 160.47 C 144.04 161.12 145.08 161.13 145.73 160.50 L 146.53 159.73 C 147.18 159.10 147.19 158.06 146.56 157.41 C 145.93 156.76 144.90 156.75 144.25 157.38 Z M 143.47 158.13 L 142.71 158.85 C 142.05 159.46 142.01 160.50 142.63 161.16 C 143.25 161.82 144.28 161.86 144.94 161.24 L 145.71 160.52 C 146.37 159.91 146.40 158.87 145.79 158.21 C 145.17 157.55 144.13 157.51 143.47 158.13 Z M 142.73 158.83 L 142.05 159.44 C 141.38 160.04 141.33 161.08 141.93 161.75 C 142.54 162.42 143.57 162.48 144.24 161.87 L 144.92 161.26 C 145.59 160.65 145.65 159.62 145.04 158.95 C 144.44 158.27 143.40 158.22 142.73 158.83 Z M 142.06 159.43 L 141.54 159.89 C 140.86 160.49 140.80 161.53 141.40 162.20 C 141.99 162.88 143.03 162.94 143.71 162.35 L 144.23 161.88 C 144.91 161.28 144.97 160.25 144.37 159.57 C 143.77 158.89 142.74 158.83 142.06 159.43 Z"
      fill="black"
      fill-rule="nonzero" /></svg>