<svg xmlns="http://www.w3.org/2000/svg" width="300" height="300" viewBox="0 0 300 300">
<path d="M 153.23 144.96 L 152.81 143.83 C 152.46 142.88 151.40 142.40 150.45 142.75 C 149.50 143.11 149.01 144.17 149.37 145.12 L 149.79 146.24 C 150.14 147.19 151.20 147.67 152.15 147.32 C 153.10 146.97 153.58 145.91 153.23 144.96 Z M 152.93 144.15 L 152.76 143.19 C 152.58 142.18 151.61 141.50 150.59 141.68 C 149.58 141.86 148.90 142.83 149.08 143.84 L 149.25 144.80 C 149.43 145.82 150.40 146.49 151.41 146.31 C 152.43 146.13 153.11 145.17 152.93 144.15 Z M 152.61 144.38 L 152.92 143.76 C 153.39 142.83 153.02 141.69 152.09 141.22 C 151.16 140.74 150.02 141.11 149.54 142.05 L 149.23 142.66 C 148.76 143.59 149.13 144.73 150.06 145.21 C 150.99 145.68 152.13 145.31 152.61 144.38 Z M 151.75 144.74 L 152.43 144.55 C 153.44 144.26 154.03 143.21 153.75 142.19 C 153.46 141.18 152.41 140.59 151.39 140.88 L 150.71 141.07 C 149.70 141.36 149.11 142.41 149.39 143.42 C 149.68 144.44 150.74 145.03 151.75 144.74 Z M 151.86 144.62 L 152.84 144.65 C 153.89 144.68 154.77 143.85 154.80 142.79 C 154.83 141.74 154.00 140.86 152.94 140.83 L 151.97 140.81 C 150.91 140.78 150.04 141.61 150.01 142.66 C 149.98 143.71 150.81 144.59 151.86 144.62 Z M 152.58 144.62 L 153.74 144.81 C 154.78 144.98 155.76 144.27 155.93 143.24 C 156.10 142.20 155.39 141.22 154.35 141.05 L 153.20 140.86 C 152.16 140.69 151.18 141.39 151.01 142.43 C 150.84 143.47 151.54 144.45 152.58 144.62 Z M 153.61 144.78 L 154.74 145.05 C 155.77 145.29 156.79 144.66 157.03 143.64 C 157.28 142.61 156.64 141.59 155.62 141.34 L 154.49 141.08 C 153.46 140.83 152.44 141.47 152.20 142.49 C 151.95 143.51 152.59 144.54 153.61 144.78 Z M 154.66 145.02 L 155.64 145.30 C 156.65 145.59 157.70 145.01 157.99 144.00 C 158.28 142.99 157.70 141.94 156.69 141.66 L 155.70 141.37 C 154.70 141.09 153.65 141.67 153.36 142.67 C 153.07 143.68 153.65 144.73 154.66 145.02 Z M 155.57 145.27 L 156.53 145.59 C 157.52 145.92 158.59 145.38 158.92 144.40 C 159.25 143.41 158.71 142.34 157.72 142.01 L 156.76 141.69 C 155.77 141.36 154.70 141.89 154.37 142.88 C 154.05 143.87 154.58 144.94 155.57 145.27 Z M 156.46 145.55 L 157.39 145.91 C 158.36 146.28 159.44 145.79 159.81 144.82 C 160.18 143.85 159.70 142.77 158.73 142.40 L 157.80 142.04 C 156.83 141.68 155.74 142.16 155.37 143.13 C 155.00 144.10 155.49 145.19 156.46 145.55 Z M 157.32 145.87 L 158.20 146.25 C 159.15 146.66 160.25 146.23 160.66 145.28 C 161.07 144.33 160.64 143.23 159.69 142.82 L 158.80 142.44 C 157.85 142.03 156.75 142.46 156.34 143.41 C 155.93 144.36 156.37 145.46 157.32 145.87 Z M 158.12 146.21 L 159.04 146.66 C 159.96 147.12 161.08 146.74 161.53 145.82 C 161.99 144.90 161.62 143.79 160.70 143.33 L 159.77 142.87 C 158.85 142.41 157.74 142.79 157.28 143.71 C 156.82 144.63 157.20 145.75 158.12 146.21 Z M 158.93 146.60 L 159.80 147.11 C 160.69 147.63 161.83 147.33 162.35 146.44 C 162.86 145.56 162.57 144.42 161.68 143.90 L 160.80 143.39 C 159.92 142.87 158.78 143.17 158.26 144.06 C 157.74 144.94 158.04 146.08 158.93 146.60 Z M 159.68 147.03 L 160.48 147.59 C 161.32 148.18 162.48 147.98 163.07 147.14 C 163.66 146.30 163.45 145.14 162.61 144.55 L 161.81 143.99 C 160.97 143.40 159.81 143.60 159.22 144.44 C 158.63 145.28 158.84 146.44 159.68 147.03 Z M 160.34 147.48 L 161.08 148.11 C 161.86 148.78 163.03 148.68 163.70 147.91 C 164.36 147.13 164.27 145.96 163.49 145.29 L 162.75 144.66 C 161.97 143.99 160.80 144.09 160.14 144.87 C 159.47 145.65 159.56 146.82 160.34 147.48 Z M 160.94 147.98 L 161.64 148.71 C 162.34 149.46 163.52 149.49 164.26 148.78 C 165.00 148.08 165.03 146.90 164.33 146.16 L 163.63 145.42 C 162.93 144.68 161.75 144.65 161.01 145.36 C 160.27 146.06 160.23 147.23 160.94 147.98 Z M 161.51 148.57 L 162.14 149.38 C 162.76 150.20 163.93 150.35 164.74 149.72 C 165.55 149.10 165.71 147.93 165.08 147.12 L 164.45 146.30 C 163.83 145.49 162.66 145.34 161.85 145.97 C 161.04 146.59 160.89 147.76 161.51 148.57 Z M 162.03 149.23 L 162.56 150.08 C 163.10 150.96 164.25 151.22 165.12 150.68 C 165.99 150.14 166.26 148.99 165.72 148.12 L 165.19 147.27 C 164.65 146.40 163.50 146.13 162.63 146.67 C 161.76 147.21 161.49 148.36 162.03 149.23 Z M 162.47 149.92 L 162.89 150.78 C 163.34 151.70 164.45 152.08 165.37 151.63 C 166.30 151.18 166.68 150.07 166.23 149.14 L 165.81 148.29 C 165.36 147.36 164.25 146.98 163.32 147.43 C 162.40 147.88 162.02 148.99 162.47 149.92 Z M 162.80 150.57 L 163.11 151.46 C 163.45 152.44 164.51 152.95 165.48 152.61 C 166.46 152.27 166.97 151.21 166.63 150.23 L 166.32 149.34 C 165.98 148.37 164.91 147.86 163.94 148.20 C 162.97 148.54 162.46 149.60 162.80 150.57 Z M 163.04 151.24 L 163.24 152.16 C 163.46 153.17 164.45 153.81 165.45 153.59 C 166.46 153.38 167.11 152.39 166.89 151.38 L 166.69 150.46 C 166.48 149.45 165.49 148.81 164.48 149.02 C 163.47 149.24 162.83 150.23 163.04 151.24 Z M 163.21 151.97 L 163.31 152.98 C 163.42 154.00 164.34 154.75 165.37 154.64 C 166.40 154.53 167.14 153.61 167.03 152.58 L 166.92 151.57 C 166.81 150.54 165.89 149.80 164.87 149.91 C 163.84 150.02 163.10 150.94 163.21 151.97 Z M 163.30 152.86 L 163.35 153.91 C 163.39 154.95 164.26 155.75 165.30 155.71 C 166.33 155.66 167.13 154.79 167.09 153.76 L 167.04 152.70 C 167.00 151.67 166.13 150.86 165.09 150.91 C 164.06 150.95 163.26 151.82 163.30 152.86 Z M 163.34 153.85 L 163.35 154.78 C 163.36 155.82 164.20 156.65 165.24 156.64 C 166.27 156.64 167.10 155.79 167.10 154.76 L 167.09 153.82 C 167.08 152.79 166.24 151.96 165.21 151.96 C 164.17 151.97 163.34 152.81 163.34 153.85 Z M 163.35 154.72 L 163.32 155.71 C 163.29 156.75 164.11 157.61 165.14 157.64 C 166.17 157.67 167.04 156.86 167.07 155.82 L 167.10 154.83 C 167.13 153.79 166.31 152.93 165.28 152.90 C 164.24 152.87 163.38 153.68 163.35 154.72 Z M 163.33 155.63 L 163.25 156.66 C 163.18 157.70 163.95 158.59 164.98 158.67 C 166.01 158.74 166.91 157.97 166.99 156.94 L 167.06 155.91 C 167.14 154.87 166.36 153.98 165.33 153.90 C 164.30 153.83 163.40 154.60 163.33 155.63 Z M 163.26 156.56 L 163.13 157.60 C 163.00 158.62 163.72 159.56 164.75 159.69 C 165.78 159.82 166.71 159.10 166.84 158.07 L 166.98 157.04 C 167.11 156.01 166.38 155.07 165.36 154.94 C 164.33 154.81 163.39 155.54 163.26 156.56 Z M 163.15 157.47 L 162.95 158.48 C 162.75 159.49 163.41 160.48 164.42 160.68 C 165.44 160.88 166.42 160.22 166.62 159.21 L 166.82 158.20 C 167.02 157.18 166.37 156.20 165.35 156.00 C 164.34 155.80 163.35 156.46 163.15 157.47 Z M 162.99 158.34 L 162.71 159.30 C 162.44 160.30 163.01 161.33 164.01 161.61 C 165.00 161.89 166.04 161.31 166.32 160.32 L 166.59 159.35 C 166.87 158.35 166.29 157.32 165.29 157.04 C 164.30 156.76 163.27 157.34 162.99 158.34 Z M 162.76 159.18 L 162.42 160.11 C 162.07 161.08 162.58 162.15 163.55 162.50 C 164.52 162.85 165.59 162.35 165.94 161.38 L 166.27 160.44 C 166.62 159.47 166.12 158.40 165.15 158.05 C 164.18 157.70 163.11 158.21 162.76 159.18 Z M 162.47 160.01 L 162.08 160.92 C 161.67 161.86 162.11 162.96 163.05 163.36 C 164.00 163.77 165.09 163.33 165.50 162.39 L 165.89 161.48 C 166.30 160.53 165.86 159.44 164.92 159.03 C 163.97 158.63 162.87 159.06 162.47 160.01 Z M 162.12 160.84 L 161.68 161.73 C 161.23 162.66 161.61 163.77 162.53 164.22 C 163.46 164.67 164.57 164.29 165.02 163.37 L 165.46 162.47 C 165.91 161.55 165.53 160.43 164.60 159.98 C 163.68 159.53 162.57 159.91 162.12 160.84 Z M 161.71 161.68 L 161.25 162.55 C 160.77 163.46 161.11 164.58 162.02 165.06 C 162.92 165.54 164.04 165.20 164.52 164.29 L 164.99 163.42 C 165.47 162.52 165.12 161.39 164.22 160.91 C 163.32 160.43 162.19 160.78 161.71 161.68 Z M 161.28 162.52 L 160.80 163.36 C 160.30 164.25 160.62 165.37 161.51 165.87 C 162.40 166.37 163.53 166.06 164.03 165.17 L 164.50 164.33 C 165.00 163.44 164.68 162.31 163.79 161.81 C 162.90 161.31 161.77 161.63 161.28 162.52 Z M 160.83 163.33 L 160.33 164.18 C 159.82 165.05 160.11 166.18 160.99 166.69 C 161.87 167.21 162.99 166.91 163.51 166.04 L 164.00 165.19 C 164.52 164.32 164.22 163.19 163.35 162.67 C 162.47 162.16 161.34 162.45 160.83 163.33 Z M 160.35 164.16 L 159.83 165.01 C 159.31 165.88 159.59 167.01 160.45 167.53 C 161.32 168.06 162.44 167.78 162.97 166.91 L 163.49 166.06 C 164.01 165.19 163.74 164.07 162.87 163.54 C 162.01 163.02 160.88 163.29 160.35 164.16 Z M 159.85 165.00 L 159.31 165.87 C 158.78 166.73 159.04 167.85 159.89 168.38 C 160.75 168.92 161.87 168.65 162.41 167.80 L 162.95 166.93 C 163.48 166.07 163.22 164.95 162.36 164.42 C 161.51 163.88 160.38 164.14 159.85 165.00 Z M 159.33 165.86 L 158.76 166.75 C 158.23 167.59 158.48 168.72 159.32 169.25 C 160.17 169.79 161.29 169.54 161.83 168.69 L 162.39 167.81 C 162.93 166.96 162.68 165.84 161.83 165.30 C 160.98 164.76 159.86 165.01 159.33 165.86 Z M 158.78 166.74 L 158.27 167.53 C 157.73 168.37 157.97 169.49 158.81 170.03 C 159.65 170.57 160.77 170.33 161.31 169.49 L 161.82 168.70 C 162.36 167.86 162.11 166.74 161.27 166.20 C 160.43 165.66 159.32 165.90 158.78 166.74 Z M 158.29 167.53 L 157.76 168.33 C 157.22 169.16 157.45 170.28 158.28 170.82 C 159.11 171.36 160.22 171.13 160.77 170.30 L 161.29 169.49 C 161.83 168.66 161.60 167.55 160.77 167.01 C 159.94 166.47 158.83 166.70 158.29 167.53 Z M 157.78 168.33 L 157.23 169.15 C 156.69 169.97 156.91 171.07 157.73 171.62 C 158.55 172.16 159.66 171.94 160.20 171.12 L 160.75 170.30 C 161.29 169.48 161.07 168.38 160.25 167.83 C 159.43 167.29 158.33 167.51 157.78 168.33 Z M 157.26 169.14 L 156.69 169.97 C 156.14 170.78 156.34 171.88 157.15 172.43 C 157.96 172.98 159.06 172.77 159.61 171.97 L 160.18 171.13 C 160.73 170.32 160.52 169.22 159.72 168.67 C 158.91 168.12 157.81 168.33 157.26 169.14 Z M 156.71 169.96 L 156.11 170.81 C 155.56 171.60 155.75 172.70 156.54 173.26 C 157.34 173.81 158.44 173.62 158.99 172.83 L 159.59 171.98 C 160.15 171.18 159.96 170.09 159.16 169.53 C 158.36 168.97 157.27 169.16 156.71 169.96 Z M 156.14 170.79 L 155.52 171.65 C 154.95 172.44 155.12 173.53 155.91 174.09 C 156.69 174.66 157.78 174.48 158.35 173.70 L 158.97 172.84 C 159.54 172.06 159.36 170.97 158.58 170.40 C 157.80 169.83 156.70 170.01 156.14 170.79 Z M 155.54 171.64 L 154.91 172.48 C 154.34 173.25 154.50 174.34 155.26 174.91 C 156.03 175.48 157.12 175.32 157.69 174.56 L 158.32 173.72 C 158.89 172.95 158.74 171.86 157.97 171.29 C 157.20 170.71 156.11 170.87 155.54 171.64 Z M 154.94 172.47 L 154.29 173.31 C 153.71 174.06 153.86 175.14 154.61 175.72 C 155.37 176.30 156.45 176.16 157.02 175.41 L 157.67 174.57 C 158.25 173.81 158.11 172.73 157.35 172.15 C 156.60 171.57 155.52 171.72 154.94 172.47 Z M 154.32 173.30 L 153.67 174.13 C 153.09 174.87 153.21 175.94 153.96 176.53 C 154.70 177.11 155.77 176.98 156.35 176.24 L 157.00 175.41 C 157.58 174.67 157.46 173.60 156.71 173.02 C 155.97 172.43 154.90 172.56 154.32 173.30 Z M 153.69 174.12 L 153.05 174.92 C 152.46 175.65 152.58 176.72 153.31 177.30 C 154.04 177.89 155.11 177.77 155.69 177.04 L 156.33 176.24 C 156.92 175.51 156.80 174.45 156.07 173.86 C 155.34 173.28 154.28 173.39 153.69 174.12 Z M 153.07 174.92 L 152.45 175.67 C 151.86 176.39 151.97 177.45 152.69 178.04 C 153.40 178.62 154.46 178.52 155.05 177.80 L 155.67 177.05 C 156.26 176.33 156.15 175.27 155.43 174.68 C 154.72 174.09 153.66 174.20 153.07 174.92 Z M 152.47 175.67 L 151.89 176.37 C 151.30 177.07 151.39 178.13 152.10 178.72 C 152.80 179.31 153.85 179.21 154.44 178.51 L 155.03 177.81 C 155.62 177.10 155.53 176.05 154.82 175.46 C 154.11 174.87 153.06 174.96 152.47 175.67 Z M 151.91 176.36 L 151.21 177.17 C 150.62 177.87 150.70 178.91 151.39 179.51 C 152.09 180.10 153.13 180.02 153.73 179.33 L 154.42 178.51 C 155.02 177.82 154.94 176.77 154.24 176.18 C 153.55 175.59 152.50 175.67 151.91 176.36 Z M 151.23 177.16 L 150.50 177.98 C 149.90 178.67 149.97 179.71 150.65 180.31 C 151.33 180.91 152.37 180.85 152.98 180.17 L 153.70 179.34 C 154.31 178.66 154.24 177.62 153.56 177.02 C 152.88 176.41 151.84 176.48 151.23 177.16 Z M 150.53 177.97 L 149.88 178.68 C 149.26 179.35 149.31 180.39 149.98 181.00 C 150.65 181.61 151.69 181.57 152.31 180.90 L 152.95 180.18 C 153.57 179.51 153.52 178.47 152.85 177.86 C 152.18 177.25 151.14 177.29 150.53 177.97 Z M 149.89 178.66 L 149.29 179.31 C 148.67 179.97 148.71 181.01 149.37 181.63 C 150.03 182.25 151.07 182.21 151.69 181.55 L 152.29 180.91 C 152.91 180.25 152.87 179.21 152.21 178.59 C 151.55 177.97 150.51 178.00 149.89 178.66 Z M 149.30 179.30 L 148.99 179.63 C 148.37 180.29 148.40 181.32 149.05 181.94 C 149.71 182.57 150.75 182.54 151.37 181.88 L 151.68 181.55 C 152.30 180.90 152.27 179.86 151.61 179.24 C 150.96 178.62 149.92 178.65 149.30 179.30 Z"
      fill="black"
      fill-rule="nonzero" /></svg>