<svg xmlns="http://www.w3.org/2000/svg" version="1.0" width="300.000000pt" height="300.000000pt" viewBox="0 0 300.000000 300.000000" preserveAspectRatio="xMidYMid meet">
  <defs/>
  <path fill="#000000" d="M148.8,55.7 C147.4,57.2 145.8,59.4 145.2,60.5 C144.7,61.6 144.2,70.6 144.1,80.5 C144,90.4 143.8,101.8 143.6,105.9 L143.3,113.4 L140.4,115.7 C136.5,118.9 125,125 122.9,125 C120.6,125 120,123 120,115.6 L120,109.4 L128.1,106 C132.5,104.1 136.6,101.7 137.2,100.6 C137.8,99.5 138.4,94.9 138.6,90.3 C138.8,84.6 139.4,81.3 140.6,79.4 L142.4,76.7 L139.4,74.4 C134.3,70.2 131.9,67.6 131.5,65.5 C131.3,64.4 130.9,62.3 130.6,60.9 C129.5,55.6 122.8,57.1 121.7,62.9 C121.1,65.8 118.1,67.8 116.1,66.6 C115.6,66.2 114.9,64.5 114.5,62.7 C113,55.9 109,52.9 105.9,56.6 L104.6,58.2 L106.3,62.8 L108.1,67.4 L106.2,70 C103.3,73.8 101.1,73.7 97.4,69.6 L94.1,66 L90.3,66 C88.2,66 85.6,66.7 84.6,67.5 C80.8,70.4 79.8,69.5 80.5,63.7 C81.3,57.6 79.7,55 76.2,56.9 C72.5,58.9 71.5,63.6 71.5,79.5 C71.6,102.8 75.5,118 83.7,127.1 C89.5,133.6 94.4,135.3 106.9,135.2 C119.1,135.2 124.2,133.8 134.1,127.9 C137.7,125.8 141,124 141.4,124 C141.9,124 141.9,126 141.6,128.4 C140.9,133.1 141.7,134.5 144.8,133.6 C150.3,131.8 151.9,121.4 154.6,69 C154.9,64.3 155.2,58.9 155.3,57 L155.5,53.5 L153.5,53.2 C152.3,53 150.4,54.1 148.8,55.7 Z M128,74.9 L128,78.8 L124.5,81.5 C119.8,85 117.6,84.5 117.2,79.9 L116.9,76.3 L121.2,73.7 C127.1,70.1 128,70.3 128,74.9 Z M93.3,77.8 C96.8,81.4 96.7,84 93.1,87.9 C90.1,91.1 86.5,91.9 82.9,90 C80,88.4 80.3,82 83.6,78.1 C86.8,74.2 89.8,74.2 93.3,77.8 Z M110.4,86.7 L111,94 L107.2,95.9 C102.6,98.3 97.7,103.5 93,111.2 C89.2,117.4 87.7,118.2 86,114.9 C84.1,111.5 81.8,102.9 82.4,101.5 C82.7,100.7 85.8,99.2 89.5,98.1 C99.2,95.1 99.6,94.7 102,87.3 C103.3,83.5 105,79.7 105.8,78.7 L107.4,76.9 L108.6,78.2 C109.2,78.9 110,82.8 110.4,86.7 Z M129.6,90.4 C129.9,91.2 129.6,93.1 128.8,94.7 C127.4,97.7 121.3,102.3 119.9,101.4 C119.4,101.1 119,98.5 119,95.5 L119,90.1 L121.3,89.7 C126.1,88.8 129.1,89 129.6,90.4 Z M111.5,103.2 C112.8,106.9 113.8,124.5 112.8,125.7 C112.2,126.5 109.5,127 105.8,127 C96,127 91.1,122.9 95.9,118.6 C96.9,117.7 98.8,114.9 100,112.4 C102.3,108 108.1,102 110.1,102 C110.6,102 111.3,102.6 111.5,103.2 Z"/>
  <path fill="#000000" d="M199.5,65 C194.6,66.1 187.5,67.9 183.8,69 C180.2,70.1 175.8,71 174.2,71 C172.5,71 170.5,71.6 169.8,72.3 C169.1,73 166.7,74.5 164.5,75.6 C158.2,78.6 158.5,83.8 165.1,85.5 L167.8,86.2 L170.1,82.8 C173,78.6 173.9,78 177.2,78 C178.7,78 182,77.5 184.5,76.8 C186.9,76.1 189.2,75.9 189.5,76.2 C189.8,76.5 189,78.3 187.7,80.3 C186.4,82.2 184.3,87.8 183.1,92.6 C181.8,97.5 180.6,102 180.4,102.7 C179.9,104.7 174.9,105.4 171.6,104 C166.2,101.8 163.1,101.6 162.4,103.4 C160.6,108.1 165.7,113.4 173.3,114.6 C177.8,115.4 177.7,114.3 175,135 C173.9,143.5 173,152.6 173,155.2 L173,160 L175.9,163.2 L178.8,166.4 L183.4,166.2 C189.9,166 192.8,164.2 201.4,154.8 L209,146.5 L210.4,148 C211.6,149.2 213.9,161.6 215.3,174.4 L215.5,176.3 L200.8,180.6 C182.7,185.8 176.3,189.9 180.2,193.8 C182,195.6 183.7,195.3 192.5,191.9 C210.6,184.8 220.2,181.8 221.4,183 C222.1,183.7 222.5,190 222.4,201.8 L222.3,219.5 L220.4,225 C219.3,228.1 217.9,230.5 217.1,230.5 C215.6,230.5 213.6,223.9 212.5,215 C212.1,212 211.4,207.9 210.8,205.9 C210,203 210.1,201.2 211.3,197.6 C213.2,192.1 212.7,190 209.3,190 C205.5,190 203,196.5 203,206.5 C203,214.4 206.6,232.5 209.1,237.2 C211,240.7 207.7,245.7 202.8,247.1 C200.6,247.6 197.9,248 196.7,247.8 L194.5,247.5 L193.9,242 C192.4,229.1 191.8,209.4 192.8,205.8 C194.8,198.5 189.1,196.6 185.5,203.4 L183.7,206.8 L184.3,227.8 L184.9,248.8 L183.1,250.4 C180.4,252.8 164.1,252.7 161,250.2 C158.2,247.9 157.4,241.4 158.9,232.6 C160.3,224.5 159.4,222 154.9,222 C151.1,222 148.3,223.5 139.1,230.4 C135,233.5 131.3,236 130.8,236 C130.3,236 130,230.2 130.1,223.2 C130.2,213.8 129.9,209.8 128.9,208.2 C128.1,207 127.2,206 126.8,206 C124.5,206 126.7,202.5 131.6,198.3 C138.1,192.7 140,189.5 140,184.2 C140,181.2 139.3,179.7 136.9,177.4 L133.9,174.5 L118.5,174.5 L103,174.5 L100.3,177.3 L97.5,180 L97.5,197.7 L97.5,215.3 L99.3,216.4 C100.7,217.3 101.9,217 105,215.2 C107.1,214 109.9,213 111.1,213 C112.4,213 114.9,212.5 116.7,211.8 L120.1,210.6 L121.1,212 C121.6,212.8 121.9,218.9 121.8,225.5 C121.6,235 121.2,237.5 120.1,237.5 C118.4,237.5 116.2,231.8 116.1,227.3 C116,225.6 115.7,223.5 115.4,222.6 C114.5,220.4 110.7,220.6 108.5,223 L106.6,225.1 L107.9,230.3 C108.6,233.2 110.5,237.8 112.1,240.6 L114.9,245.8 L113.6,247.6 C112.9,248.6 108.8,250.8 104.5,252.5 C96,255.9 93.8,257.9 95.6,260.7 C97.2,263.2 103.2,262.8 110.4,259.6 C115.8,257.2 139.7,241.3 144.7,236.8 C148.3,233.5 149.3,234.9 149.6,243.2 C150.2,260.7 155.9,263.1 187.8,259.1 C219,255.1 275,245.4 276.8,243.6 L278.4,242 L276.7,240.3 L275,238.6 L254.8,241.3 C243.6,242.8 231.5,244.6 227.7,245.2 C224,245.8 220.7,246 220.3,245.6 C219.9,245.2 220.2,243.9 221,242.7 C223.9,237.9 227.4,230.3 229.2,224.6 C233,212.5 232.7,177 228.8,172.2 C227.2,170.3 223.2,170.8 222,173 C220.5,175.8 218.6,175.6 219.5,172.7 C222.2,163.9 222.1,161 219.1,143.7 C217.1,132.5 212.5,128.5 206.8,133 C205.3,134.1 202,138.3 199.3,142.3 C191.2,154.6 184.1,160 182.4,155.5 C181.7,153.8 186.7,116.7 188,113.4 C188.6,111.9 191.1,110.5 197,108.6 C209.8,104.3 229.9,94.8 230.6,92.7 C231.6,89.5 227,86.4 224.6,88.7 C224.3,89.1 222.5,89.9 220.7,90.5 C219,91.2 212.4,93.8 206.2,96.4 C200,98.9 194.3,101 193.5,101 C191.6,101 191.6,97.3 193.5,90 C197,76 199.8,72.5 208.1,71.4 C210.8,71 214.1,69.9 215.3,68.9 L217.5,67.1 L216.4,65.3 C214.9,62.8 210.2,62.7 199.5,65 Z M130.5,182.3 C134.9,185.6 128.7,192.2 114.7,199 C110.1,201.3 107.6,202 106.9,201.3 C105.5,199.9 104.6,185.9 105.8,184.1 C107.8,181.2 127,179.8 130.5,182.3 Z"/>
  <path fill="#000000" d="M31.6,103.2 C30.6,104.6 30,107.6 30,110.8 L30,116.2 L33.1,119.1 L36.2,122 L41.9,122 C47.2,122 58.5,119 63.9,116.1 C68,113.9 65.4,108.2 60.8,109.3 C59.5,109.6 56.7,110.5 54.5,111.4 C49.7,113.2 40.9,113.5 39.2,111.8 C38.5,111.1 38,109.2 38,107.4 C38,105.6 37.7,103.5 37.4,102.6 C36.5,100.3 33.4,100.6 31.6,103.2 Z"/>
  <path fill="#000000" d="M54.8,156.6 C48.1,165.8 41.7,174.2 40.8,175.4 L39,177.5 L37.2,175.1 L35.3,172.8 L33.3,173.8 C31,175.1 27.5,185.5 27.5,191.3 C27.5,197.6 31.8,198.8 37.2,194.1 C40.5,191.2 42.3,188.8 54.3,170.5 C57.9,165 63.1,157.2 66,153.2 C69.7,147.9 71,145.2 70.8,143.2 C70.1,137.3 67.5,139.5 54.8,156.6 Z"/>
  <path fill="#000000" d="M131.5,140.6 C128.5,141.2 118.7,143.9 108,147 C102.8,148.6 97,150.2 95.1,150.7 C90.9,151.7 89,154.3 90.6,156.8 C92.5,159.8 97.4,159.3 111.2,154.6 C118.5,152.2 128.3,149.4 133,148.4 C144,146.1 145.7,144.9 142.4,141.6 C140.9,140.1 136.2,139.7 131.5,140.6 Z"/>
</svg>

