<svg xmlns="http://www.w3.org/2000/svg" version="1.0" width="300.000000pt" height="300.000000pt" viewBox="0 0 300.000000 300.000000" preserveAspectRatio="xMidYMid meet">
  <defs/>
  <path fill="#000000" d="M146,28 C145,28.6 144.3,31.2 144,36.1 L143.5,43.3 L132.5,46.2 C126.5,47.8 121,48.8 120.3,48.6 C117.9,47.6 118.9,42.2 122.1,38.6 C125.8,34.4 125.6,31.6 121.6,31.2 C116,30.5 111,38 111,46.9 L111,51.9 L105.3,53.5 C92.9,56.9 91.5,57.5 91.2,59.3 C90.3,64.1 95.3,65.2 103.8,62 C111.8,58.9 112.5,59.2 115.6,65.9 C117,69.2 119.1,72.7 120.1,73.6 C123.6,76.7 122.5,79.6 116.6,82.9 C113.5,84.7 109.8,86 107.8,86 C101.1,86 98.8,92.7 102.1,102.8 C102.8,104.8 103.4,110 103.4,114.2 C103.5,119.9 104,122.4 105.2,123.6 L106.8,125.2 L113.5,122.5 C121.3,119.4 127,118.3 127,119.8 C127,122.6 121.4,131.2 118.3,133.1 C111.5,137.3 110.4,142.5 115.8,144.9 C119.9,146.8 134.1,148 141,147 C147.6,146.1 150,144.7 150,142 C150,138.5 147.5,137.7 138,138.5 L129,139.2 L129,137.3 C129,136.2 130.4,132.6 132,129.2 C133.7,125.8 135,122.6 135,122.2 C135,121.7 136.6,119.5 138.5,117.3 L142,113.2 L147.7,112.5 C150.9,112.1 155.9,111.8 158.9,111.9 L164.3,111.9 L170.9,104.8 C174.5,100.9 178.3,96.3 179.2,94.6 C181.3,90.8 181.5,82.9 179.6,79.2 C176.2,72.7 171,70.3 157.8,69.2 L149.5,68.5 L149.8,66.5 C152.1,52.5 152.8,48.8 153.6,48.1 C155,46.8 176.6,38 178.3,38 C179.8,38 183,34.4 183,32.8 C183,32.4 182,31.4 180.7,30.5 L178.3,29 L167.4,33.5 C161.5,36 156,38 155.4,38 C154.8,38 153.7,36 153.1,33.5 C152.5,31 151.2,28.6 150.1,28 C147.7,26.8 147.9,26.8 146,28 Z M144,55.7 C144,61.6 143,64 140.3,64.6 C139,65 136.7,66.9 135.3,68.9 C132.1,73.2 130.1,75 128.4,75 C127,75 121,62.7 121,59.9 C121,58.8 122,57.6 123.3,57.1 C127.6,55.3 139.5,52.1 141.8,52.1 L144,52 L144,55.7 Z M169.6,80.1 C174,84.2 172.2,91.8 165.2,99.2 C162.2,102.4 158.9,103.6 150.3,104.5 C142.9,105.3 142.9,105.3 146.6,96.3 C149.4,89.2 149.4,86.3 146.8,84.6 C144.6,83.3 141.7,84.8 141.2,87.6 C141,88.6 140.2,90.8 139.5,92.5 C138.8,94.1 137.2,97.7 136.1,100.3 C132.9,107.8 129.4,105.7 129.1,96.2 C129,94.3 128.2,92.3 127,91.3 C123.3,88.1 124.9,86 132,84.5 C133.9,84.1 137,82.6 138.9,81.1 C144.9,76.5 165.1,75.8 169.6,80.1 Z M118.7,93.8 C119.4,94.2 119.9,96.9 119.9,100 C119.9,103 120,106.8 120.2,108.5 L120.5,111.5 L116.5,111.5 L112.6,111.5 L111.3,105.5 C109.6,97 109.7,94.2 111.8,93.7 C114.6,92.9 117.4,93 118.7,93.8 Z"/>
  <path fill="#000000" d="M192.2,127.6 L190,129.1 L190,137.1 C190,142 191,150 192.6,157.3 C194,164 196.1,173.5 197.1,178.5 C200.8,195.8 202.2,203.6 203,213 C203.5,218.2 204.4,225.9 204.9,230 C206.5,241.7 206.3,259.6 204.5,263 C201.3,269.2 194.1,268.2 185.9,260.3 L180.1,254.8 L177.5,255.4 C173.1,256.5 174.3,260.1 180.9,265.8 C187.1,271.2 195,275 200.2,275 C204.7,275 209.6,271.5 212,266.5 L214.2,262 L213.5,242.8 C212.5,214 210.5,197.4 204.5,167.2 C201.6,153 200,142.3 200,137.6 L200,130.3 L197.7,128.2 C194.9,125.6 195,125.6 192.2,127.6 Z"/>
  <path fill="#000000" d="M155.2,131.2 C153.7,132.7 153.6,136.6 155,137.5 C155.6,137.8 156,141.2 156,144.9 C156,152.2 157.8,163 161.1,175.7 C162.2,180 163.9,186.7 165,190.7 C168.5,204.5 172.7,209.3 175.7,202.9 L177,200.2 L174.6,191.9 C168.3,169.3 166.8,161.3 166.1,146.9 L165.5,134.2 L163.6,132.1 C161.5,129.8 157.1,129.3 155.2,131.2 Z"/>
  <path fill="#000000" d="M142.5,152.5 C140.5,153.1 131.4,155.7 125,157.5 C121.4,158.5 114.8,160.4 110.3,161.7 C102,164.1 100,164.1 100,161.6 C100,159.5 97.3,157.8 95,158.5 C92.3,159.4 86.1,165.9 85.4,168.8 C83.7,175.2 93.4,177 105.6,172.4 C116,168.6 136.2,162 137.6,162 C140.3,162 139.9,164 136.8,166.7 C135.1,168.2 129,173.7 123.3,178.8 L113,188.2 L113,190.9 C113,192.8 113.8,194.1 115.5,195 L117.9,196.3 L124.2,194.2 C127.7,193.1 130.8,192.5 131.3,192.9 C131.7,193.3 130.7,195.6 129,198.1 C127.3,200.5 124.4,204.8 122.5,207.5 C118.5,213.6 117.4,214.6 113.4,215.4 C105.7,217.1 102.7,227 107,236.6 C108.2,239.3 109.4,243.7 109.7,246.5 C110.7,255.4 115.4,262 120.7,262 C122.4,262 123.1,261.3 123.5,259.2 C124.7,253.7 125.4,253.3 140,249 C147,246.9 148.5,245.6 155.1,235.6 C162.4,224.5 159.6,216.5 147.6,214 C142.4,212.9 135.7,213.2 130.7,214.6 C126.7,215.8 128,211.9 134.3,203.4 C141.5,193.8 144,187.5 142.2,183.5 C141.4,181.8 140.2,181 138.6,181 C134.1,181 134.7,178.9 141.2,172.2 C148.4,164.7 151,160.5 151,156.2 C151,152.6 147.3,150.9 142.5,152.5 Z M150.9,223.4 C153.1,225.6 151.4,229.7 146.2,234.8 L141.5,239.5 L130.7,243 C118.5,246.9 117.6,246.7 115.3,240.5 C112,231.7 111.6,229.2 112.9,227.6 C117.1,222.6 146.7,219.3 150.9,223.4 Z"/>
</svg>

