<svg xmlns="http://www.w3.org/2000/svg" width="300" height="300" viewBox="0 0 300 300">
<path d="M 110.79 114.81 L 111.75 114.81 C 112.77 114.81 113.59 113.98 113.59 112.96 C 113.59 111.94 112.76 111.11 111.74 111.11 L 110.79 111.12 C 109.77 111.12 108.94 111.94 108.94 112.96 C 108.95 113.99 109.77 114.81 110.79 114.81 Z M 111.76 114.82 L 112.72 114.81 C 113.75 114.81 114.57 113.97 114.57 112.94 C 114.56 111.92 113.72 111.09 112.70 111.10 L 111.73 111.11 C 110.71 111.11 109.88 111.95 109.89 112.97 C 109.90 114.00 110.73 114.82 111.76 114.82 Z M 112.74 114.82 L 113.73 114.80 C 114.76 114.78 115.58 113.94 115.56 112.91 C 115.54 111.88 114.70 111.06 113.67 111.08 L 112.68 111.09 C 111.65 111.11 110.83 111.96 110.85 112.99 C 110.87 114.02 111.71 114.84 112.74 114.82 Z M 113.76 114.81 L 114.78 114.78 C 115.81 114.74 116.62 113.88 116.59 112.85 C 116.56 111.82 115.69 111.01 114.66 111.04 L 113.64 111.07 C 112.61 111.10 111.80 111.97 111.83 113.00 C 111.86 114.03 112.73 114.84 113.76 114.81 Z M 114.81 114.78 L 115.88 114.73 C 116.92 114.68 117.71 113.80 117.66 112.76 C 117.61 111.73 116.73 110.93 115.69 110.98 L 114.63 111.03 C 113.59 111.08 112.79 111.97 112.85 113.00 C 112.90 114.04 113.78 114.83 114.81 114.78 Z M 115.92 114.73 L 116.86 114.67 C 117.89 114.60 118.68 113.70 118.60 112.66 C 118.53 111.63 117.64 110.84 116.60 110.91 L 115.66 110.98 C 114.62 111.05 113.84 111.95 113.91 112.98 C 113.98 114.02 114.88 114.80 115.92 114.73 Z M 116.88 114.67 L 117.85 114.59 C 118.89 114.50 119.66 113.59 119.57 112.55 C 119.49 111.51 118.58 110.74 117.54 110.83 L 116.57 110.91 C 115.53 111.00 114.76 111.91 114.85 112.95 C 114.94 113.98 115.85 114.75 116.88 114.67 Z M 117.88 114.59 L 118.87 114.49 C 119.91 114.39 120.67 113.47 120.57 112.43 C 120.47 111.39 119.54 110.63 118.51 110.73 L 117.51 110.83 C 116.48 110.93 115.72 111.86 115.82 112.89 C 115.92 113.93 116.84 114.69 117.88 114.59 Z M 118.90 114.49 L 119.91 114.38 C 120.95 114.26 121.70 113.33 121.58 112.29 C 121.47 111.26 120.53 110.51 119.50 110.62 L 118.48 110.73 C 117.45 110.85 116.70 111.78 116.81 112.82 C 116.93 113.86 117.86 114.60 118.90 114.49 Z M 119.93 114.38 L 120.96 114.25 C 121.99 114.13 122.73 113.18 122.61 112.14 C 122.48 111.11 121.54 110.37 120.50 110.50 L 119.47 110.62 C 118.44 110.75 117.70 111.69 117.83 112.73 C 117.95 113.77 118.90 114.50 119.93 114.38 Z M 120.98 114.25 L 122.01 114.11 C 123.04 113.98 123.77 113.02 123.63 111.99 C 123.49 110.95 122.54 110.22 121.50 110.36 L 120.48 110.50 C 119.44 110.64 118.71 111.59 118.85 112.63 C 118.99 113.66 119.94 114.39 120.98 114.25 Z M 122.03 114.11 L 123.08 113.96 C 124.12 113.81 124.83 112.85 124.68 111.81 C 124.53 110.78 123.57 110.06 122.54 110.21 L 121.48 110.36 C 120.45 110.51 119.73 111.47 119.88 112.51 C 120.03 113.54 120.99 114.26 122.03 114.11 Z M 123.10 113.96 L 124.14 113.80 C 125.17 113.64 125.88 112.67 125.72 111.63 C 125.56 110.60 124.59 109.89 123.56 110.05 L 122.52 110.21 C 121.48 110.37 120.77 111.34 120.93 112.37 C 121.09 113.41 122.06 114.12 123.10 113.96 Z M 124.15 113.80 L 125.16 113.63 C 126.20 113.46 126.90 112.49 126.73 111.46 C 126.56 110.42 125.59 109.72 124.56 109.89 L 123.54 110.05 C 122.51 110.22 121.81 111.19 121.97 112.23 C 122.14 113.26 123.11 113.96 124.15 113.80 Z M 125.17 113.63 L 126.15 113.47 C 127.19 113.29 127.88 112.32 127.71 111.28 C 127.54 110.25 126.56 109.55 125.53 109.73 L 124.55 109.89 C 123.52 110.06 122.82 111.04 122.99 112.07 C 123.16 113.10 124.14 113.80 125.17 113.63 Z M 126.16 113.46 L 127.10 113.31 C 128.13 113.13 128.82 112.15 128.65 111.12 C 128.47 110.09 127.49 109.39 126.46 109.57 L 125.52 109.73 C 124.49 109.90 123.80 110.88 123.97 111.91 C 124.15 112.95 125.13 113.64 126.16 113.46 Z M 127.10 113.30 L 128.02 113.15 C 129.05 112.97 129.75 111.99 129.57 110.96 C 129.39 109.93 128.41 109.23 127.38 109.41 L 126.46 109.57 C 125.43 109.75 124.73 110.72 124.91 111.76 C 125.09 112.79 126.07 113.48 127.10 113.30 Z M 128.02 113.15 L 129.11 112.96 C 130.14 112.78 130.84 111.81 130.66 110.77 C 130.49 109.74 129.51 109.05 128.48 109.23 L 127.38 109.41 C 126.35 109.59 125.66 110.57 125.84 111.60 C 126.01 112.63 126.99 113.32 128.02 113.15 Z M 129.11 112.96 L 130.12 112.79 C 131.15 112.61 131.84 111.64 131.67 110.61 C 131.49 109.58 130.52 108.88 129.49 109.06 L 128.48 109.23 C 127.45 109.40 126.76 110.38 126.93 111.41 C 127.11 112.44 128.08 113.13 129.11 112.96 Z M 130.12 112.78 L 131.06 112.62 C 132.09 112.45 132.78 111.47 132.61 110.45 C 132.43 109.42 131.46 108.73 130.43 108.90 L 129.49 109.06 C 128.46 109.23 127.77 110.21 127.94 111.24 C 128.11 112.27 129.09 112.96 130.12 112.78 Z M 131.06 112.62 L 131.96 112.47 C 132.99 112.29 133.68 111.32 133.50 110.29 C 133.33 109.26 132.35 108.57 131.33 108.75 L 130.43 108.90 C 129.40 109.08 128.71 110.05 128.88 111.08 C 129.06 112.11 130.04 112.80 131.06 112.62 Z M 131.97 112.46 L 132.94 112.30 C 133.96 112.12 134.65 111.14 134.47 110.12 C 134.29 109.09 133.32 108.41 132.29 108.58 L 131.32 108.75 C 130.30 108.93 129.61 109.91 129.79 110.93 C 129.97 111.95 130.94 112.64 131.97 112.46 Z M 132.95 112.29 L 133.93 112.12 C 134.95 111.93 135.63 110.96 135.45 109.94 C 135.27 108.91 134.29 108.23 133.27 108.41 L 132.29 108.59 C 131.27 108.77 130.58 109.75 130.77 110.77 C 130.95 111.79 131.92 112.47 132.95 112.29 Z M 133.94 112.11 L 134.92 111.93 C 135.94 111.75 136.61 110.77 136.43 109.75 C 136.24 108.73 135.26 108.05 134.24 108.24 L 133.26 108.42 C 132.24 108.60 131.57 109.58 131.75 110.60 C 131.94 111.62 132.92 112.30 133.94 112.11 Z M 134.93 111.93 L 135.91 111.74 C 136.92 111.55 137.59 110.57 137.40 109.55 C 137.21 108.54 136.23 107.87 135.21 108.06 L 134.23 108.24 C 133.21 108.44 132.55 109.42 132.74 110.43 C 132.93 111.45 133.91 112.12 134.93 111.93 Z M 135.92 111.74 L 136.90 111.54 C 137.91 111.34 138.57 110.36 138.37 109.35 C 138.17 108.33 137.19 107.67 136.18 107.87 L 135.20 108.07 C 134.19 108.26 133.53 109.25 133.72 110.26 C 133.92 111.27 134.91 111.93 135.92 111.74 Z M 136.91 111.54 L 137.89 111.34 C 138.90 111.13 139.55 110.14 139.35 109.13 C 139.14 108.12 138.15 107.47 137.14 107.68 L 136.16 107.88 C 135.15 108.09 134.50 109.07 134.71 110.08 C 134.91 111.09 135.90 111.74 136.91 111.54 Z M 137.91 111.33 L 138.89 111.12 C 139.89 110.91 140.54 109.92 140.32 108.91 C 140.11 107.90 139.12 107.26 138.11 107.48 L 137.13 107.69 C 136.12 107.90 135.48 108.89 135.69 109.90 C 135.91 110.90 136.90 111.55 137.91 111.33 Z M 138.90 111.11 L 139.88 110.90 C 140.88 110.67 141.52 109.68 141.29 108.67 C 141.07 107.67 140.07 107.04 139.07 107.26 L 138.09 107.48 C 137.09 107.71 136.46 108.70 136.68 109.70 C 136.91 110.71 137.90 111.34 138.90 111.11 Z M 139.90 110.89 L 140.89 110.66 C 141.89 110.42 142.50 109.42 142.27 108.42 C 142.04 107.43 141.04 106.81 140.04 107.04 L 139.05 107.27 C 138.05 107.51 137.43 108.51 137.67 109.50 C 137.90 110.50 138.90 111.12 139.90 110.89 Z M 140.91 110.65 L 141.88 110.41 C 142.88 110.16 143.48 109.16 143.24 108.16 C 142.99 107.17 141.99 106.57 141.00 106.81 L 140.02 107.05 C 139.03 107.30 138.42 108.30 138.67 109.29 C 138.91 110.29 139.91 110.89 140.91 110.65 Z M 141.90 110.40 L 142.86 110.15 C 143.85 109.89 144.44 108.88 144.19 107.89 C 143.93 106.91 142.92 106.31 141.94 106.57 L 140.97 106.82 C 139.99 107.08 139.39 108.09 139.65 109.07 C 139.91 110.06 140.92 110.65 141.90 110.40 Z M 142.89 110.13 L 143.85 109.87 C 144.83 109.60 145.40 108.59 145.14 107.61 C 144.87 106.63 143.85 106.05 142.87 106.32 L 141.91 106.58 C 140.93 106.85 140.35 107.86 140.62 108.85 C 140.89 109.83 141.91 110.40 142.89 110.13 Z M 143.87 109.86 L 144.85 109.58 C 145.82 109.30 146.39 108.28 146.10 107.30 C 145.82 106.33 144.81 105.77 143.83 106.05 L 142.85 106.33 C 141.88 106.61 141.31 107.63 141.59 108.60 C 141.88 109.58 142.89 110.14 143.87 109.86 Z M 144.86 109.57 L 145.82 109.28 C 146.79 108.99 147.34 107.97 147.06 107.00 C 146.77 106.03 145.75 105.48 144.78 105.77 L 143.82 106.06 C 142.85 106.35 142.30 107.37 142.58 108.33 C 142.87 109.30 143.89 109.86 144.86 109.57 Z M 145.83 109.28 L 146.77 108.99 C 147.73 108.70 148.28 107.68 147.99 106.72 C 147.70 105.75 146.68 105.20 145.71 105.49 L 144.77 105.78 C 143.81 106.07 143.26 107.09 143.55 108.05 C 143.84 109.02 144.86 109.57 145.83 109.28 Z M 146.76 108.99 L 147.66 108.72 C 148.62 108.43 149.17 107.41 148.88 106.45 C 148.59 105.49 147.58 104.94 146.61 105.23 L 145.72 105.50 C 144.75 105.79 144.21 106.80 144.50 107.77 C 144.78 108.73 145.80 109.28 146.76 108.99 Z M 147.66 108.71 L 148.55 108.44 C 149.51 108.15 150.06 107.14 149.77 106.18 C 149.48 105.22 148.46 104.68 147.50 104.97 L 146.61 105.24 C 145.65 105.53 145.11 106.54 145.40 107.50 C 145.69 108.46 146.70 109.00 147.66 108.71 Z M 148.57 108.43 L 149.52 108.13 C 150.47 107.83 151.00 106.82 150.70 105.86 C 150.40 104.91 149.39 104.38 148.44 104.68 L 147.49 104.98 C 146.53 105.28 146.00 106.29 146.30 107.25 C 146.60 108.20 147.62 108.73 148.57 108.43 Z M 149.55 108.12 L 150.60 107.77 C 151.54 107.46 152.05 106.43 151.74 105.49 C 151.43 104.54 150.41 104.03 149.46 104.35 L 148.41 104.70 C 147.46 105.01 146.95 106.03 147.27 106.97 C 147.58 107.92 148.60 108.43 149.55 108.12 Z M 150.62 107.75 L 151.54 107.43 C 152.48 107.10 152.97 106.08 152.64 105.14 C 152.31 104.21 151.29 103.71 150.35 104.04 L 149.43 104.36 C 148.50 104.69 148.00 105.71 148.33 106.65 C 148.66 107.59 149.69 108.08 150.62 107.75 Z M 151.56 107.42 L 152.51 107.07 C 153.44 106.73 153.92 105.70 153.58 104.78 C 153.24 103.85 152.21 103.37 151.28 103.71 L 150.33 104.05 C 149.40 104.39 148.92 105.42 149.26 106.35 C 149.60 107.28 150.63 107.76 151.56 107.42 Z M 152.53 107.06 L 153.50 106.69 C 154.42 106.34 154.88 105.31 154.53 104.39 C 154.18 103.46 153.15 103.00 152.23 103.35 L 151.26 103.72 C 150.34 104.07 149.87 105.10 150.23 106.03 C 150.58 106.95 151.61 107.41 152.53 107.06 Z M 153.52 106.67 L 154.47 106.29 C 155.39 105.93 155.83 104.89 155.47 103.98 C 155.10 103.07 154.07 102.62 153.15 102.99 L 152.20 103.37 C 151.29 103.73 150.84 104.77 151.21 105.68 C 151.57 106.59 152.61 107.04 153.52 106.67 Z M 154.50 106.27 L 155.40 105.89 C 156.31 105.51 156.73 104.47 156.35 103.57 C 155.97 102.67 154.93 102.25 154.02 102.63 L 153.12 103.01 C 152.22 103.39 151.80 104.43 152.18 105.33 C 152.56 106.23 153.60 106.66 154.50 106.27 Z M 155.45 105.86 L 156.46 105.40 C 157.35 104.99 157.73 103.95 157.33 103.06 C 156.92 102.18 155.88 101.79 154.99 102.19 L 153.98 102.66 C 153.09 103.06 152.70 104.11 153.11 105.00 C 153.52 105.88 154.56 106.27 155.45 105.86 Z M 156.52 105.35 L 157.43 104.89 C 158.29 104.45 158.63 103.39 158.19 102.53 C 157.75 101.67 156.69 101.33 155.83 101.78 L 154.93 102.24 C 154.07 102.68 153.73 103.73 154.17 104.59 C 154.61 105.45 155.66 105.79 156.52 105.35 Z M 157.50 104.83 L 158.32 104.36 C 159.15 103.87 159.43 102.81 158.95 101.98 C 158.47 101.15 157.41 100.87 156.58 101.35 L 155.76 101.83 C 154.93 102.31 154.65 103.38 155.13 104.21 C 155.61 105.03 156.68 105.32 157.50 104.83 Z M 158.40 104.29 L 159.17 103.78 C 159.96 103.26 160.18 102.19 159.65 101.40 C 159.13 100.60 158.06 100.39 157.26 100.91 L 156.50 101.42 C 155.71 101.95 155.49 103.02 156.02 103.81 C 156.54 104.60 157.61 104.82 158.40 104.29 Z M 159.25 103.71 L 160.04 103.11 C 160.80 102.54 160.94 101.47 160.38 100.72 C 159.81 99.97 158.74 99.82 157.99 100.38 L 157.19 100.99 C 156.44 101.55 156.29 102.62 156.85 103.38 C 157.42 104.13 158.49 104.28 159.25 103.71 Z M 160.10 103.05 L 160.86 102.41 C 161.58 101.81 161.68 100.74 161.08 100.03 C 160.49 99.31 159.42 99.21 158.70 99.81 L 157.93 100.45 C 157.22 101.04 157.12 102.11 157.71 102.83 C 158.31 103.54 159.38 103.64 160.10 103.05 Z M 160.89 102.36 L 161.64 101.70 C 162.33 101.09 162.40 100.03 161.79 99.34 C 161.18 98.64 160.12 98.58 159.43 99.19 L 158.68 99.85 C 157.98 100.46 157.92 101.52 158.53 102.21 C 159.14 102.91 160.20 102.97 160.89 102.36 Z M 161.64 101.68 L 162.03 101.33 C 162.72 100.72 162.77 99.67 162.16 98.98 C 161.55 98.30 160.49 98.25 159.81 98.86 L 159.42 99.21 C 158.74 99.82 158.68 100.87 159.30 101.56 C 159.91 102.24 160.96 102.29 161.64 101.68 Z"
      fill="black"
      fill-rule="nonzero" /><path d="M 130.12 99.54 L 129.38 100.29 C 128.70 100.97 128.71 102.07 129.39 102.74 C 130.07 103.41 131.17 103.41 131.84 102.73 L 132.58 101.98 C 133.26 101.30 133.25 100.20 132.57 99.53 C 131.89 98.85 130.79 98.86 130.12 99.54 Z M 129.33 100.32 L 128.63 101.07 C 127.97 101.78 128.01 102.88 128.72 103.54 C 129.42 104.20 130.53 104.16 131.18 103.45 L 131.89 102.70 C 132.54 101.99 132.50 100.89 131.80 100.23 C 131.09 99.57 129.99 99.61 129.33 100.32 Z M 128.54 101.15 L 127.92 101.92 C 127.30 102.67 127.41 103.78 128.17 104.39 C 128.92 105.01 130.03 104.89 130.64 104.14 L 131.27 103.37 C 131.88 102.62 131.77 101.51 131.02 100.90 C 130.27 100.28 129.16 100.40 128.54 101.15 Z M 127.79 102.06 L 127.28 102.85 C 126.75 103.67 126.98 104.77 127.80 105.30 C 128.62 105.84 129.71 105.61 130.25 104.79 L 130.76 104.00 C 131.30 103.18 131.07 102.08 130.25 101.55 C 129.43 101.01 128.33 101.24 127.79 102.06 Z M 127.13 103.10 L 126.74 104.01 C 126.34 104.91 126.75 105.96 127.65 106.35 C 128.55 106.75 129.60 106.34 130.00 105.44 L 130.40 104.53 C 130.79 103.63 130.38 102.58 129.48 102.19 C 128.58 101.79 127.53 102.20 127.13 103.10 Z M 126.62 104.34 L 126.41 105.31 C 126.20 106.27 126.82 107.23 127.78 107.43 C 128.75 107.64 129.70 107.03 129.91 106.07 L 130.11 105.10 C 130.32 104.14 129.71 103.18 128.75 102.98 C 127.78 102.77 126.83 103.38 126.62 104.34 Z M 126.37 105.67 L 126.35 106.65 C 126.34 107.64 127.13 108.45 128.12 108.46 C 129.11 108.48 129.93 107.68 129.94 106.69 L 129.95 105.71 C 129.96 104.72 129.17 103.91 128.18 103.90 C 127.19 103.88 126.38 104.68 126.37 105.67 Z M 126.38 106.99 L 126.55 107.98 C 126.73 108.96 127.66 109.61 128.64 109.44 C 129.62 109.26 130.27 108.33 130.09 107.35 L 129.92 106.36 C 129.74 105.38 128.81 104.73 127.83 104.90 C 126.86 105.08 126.20 106.01 126.38 106.99 Z M 126.63 108.26 L 126.95 109.17 C 127.27 110.11 128.29 110.61 129.23 110.28 C 130.17 109.96 130.66 108.93 130.34 108.00 L 130.02 107.08 C 129.69 106.14 128.67 105.65 127.73 105.97 C 126.80 106.30 126.30 107.32 126.63 108.26 Z M 127.03 109.36 L 127.46 110.26 C 127.89 111.15 128.95 111.53 129.84 111.11 C 130.74 110.68 131.11 109.61 130.69 108.72 L 130.25 107.82 C 129.83 106.93 128.76 106.55 127.87 106.97 C 126.98 107.40 126.60 108.47 127.03 109.36 Z M 127.53 110.38 L 128.04 111.26 C 128.53 112.11 129.61 112.41 130.47 111.92 C 131.32 111.43 131.61 110.34 131.12 109.49 L 130.62 108.61 C 130.13 107.75 129.04 107.46 128.19 107.95 C 127.34 108.44 127.04 109.53 127.53 110.38 Z M 128.09 111.33 L 128.63 112.17 C 129.15 113.00 130.25 113.24 131.07 112.71 C 131.90 112.19 132.14 111.09 131.61 110.27 L 131.07 109.42 C 130.55 108.60 129.45 108.36 128.63 108.88 C 127.80 109.41 127.56 110.50 128.09 111.33 Z M 128.67 112.20 L 129.24 113.06 C 129.78 113.86 130.87 114.08 131.68 113.54 C 132.48 113.00 132.70 111.91 132.16 111.10 L 131.58 110.24 C 131.04 109.44 129.95 109.22 129.14 109.76 C 128.34 110.31 128.12 111.39 128.67 112.20 Z M 129.28 113.06 L 129.84 113.89 C 130.39 114.67 131.46 114.87 132.25 114.33 C 133.03 113.79 133.23 112.71 132.69 111.93 L 132.12 111.10 C 131.58 110.32 130.51 110.12 129.72 110.66 C 128.93 111.20 128.73 112.27 129.28 113.06 Z M 129.86 113.87 L 130.42 114.68 C 130.95 115.45 132.01 115.65 132.78 115.12 C 133.56 114.59 133.76 113.53 133.23 112.75 L 132.67 111.94 C 132.14 111.17 131.08 110.97 130.31 111.50 C 129.53 112.03 129.33 113.09 129.86 113.87 Z M 130.42 114.64 L 130.96 115.46 C 131.47 116.23 132.51 116.44 133.29 115.93 C 134.06 115.42 134.27 114.38 133.76 113.61 L 133.22 112.79 C 132.71 112.02 131.67 111.80 130.90 112.31 C 130.12 112.83 129.91 113.87 130.42 114.64 Z M 130.95 115.41 L 131.48 116.26 C 131.97 117.04 132.99 117.27 133.77 116.78 C 134.55 116.30 134.79 115.27 134.30 114.49 L 133.77 113.65 C 133.28 112.87 132.26 112.63 131.48 113.12 C 130.70 113.61 130.46 114.64 130.95 115.41 Z M 131.47 116.23 L 131.99 117.09 C 132.46 117.87 133.48 118.12 134.26 117.65 C 135.04 117.18 135.29 116.16 134.82 115.38 L 134.31 114.52 C 133.84 113.74 132.82 113.49 132.04 113.96 C 131.25 114.43 131.00 115.45 131.47 116.23 Z M 131.99 117.07 L 132.50 117.93 C 132.96 118.71 133.96 118.98 134.75 118.52 C 135.53 118.05 135.79 117.05 135.33 116.26 L 134.82 115.40 C 134.36 114.62 133.36 114.35 132.57 114.81 C 131.79 115.27 131.53 116.28 131.99 117.07 Z M 132.50 117.92 L 132.72 118.30 C 133.17 119.08 134.18 119.35 134.96 118.89 C 135.74 118.43 136.01 117.43 135.55 116.65 L 135.33 116.27 C 134.87 115.49 133.87 115.23 133.09 115.68 C 132.31 116.14 132.04 117.14 132.50 117.92 Z"
      fill="black"
      fill-rule="nonzero" /><path d="M 141.04 97.05 L 140.72 97.87 C 140.36 98.82 140.83 99.89 141.78 100.25 C 142.73 100.61 143.80 100.14 144.16 99.19 L 144.47 98.36 C 144.84 97.41 144.36 96.35 143.41 95.99 C 142.46 95.63 141.40 96.10 141.04 97.05 Z M 140.69 97.96 L 140.40 98.84 C 140.08 99.81 140.61 100.85 141.57 101.17 C 142.54 101.48 143.58 100.96 143.90 99.99 L 144.19 99.11 C 144.51 98.14 143.98 97.10 143.02 96.78 C 142.05 96.46 141.01 96.99 140.69 97.96 Z M 140.36 98.98 L 140.11 99.99 C 139.87 100.98 140.48 101.98 141.47 102.22 C 142.45 102.46 143.45 101.85 143.69 100.86 L 143.94 99.85 C 144.18 98.86 143.57 97.87 142.58 97.63 C 141.60 97.39 140.60 97.99 140.36 98.98 Z M 140.08 100.15 L 139.91 101.26 C 139.76 102.26 140.45 103.20 141.45 103.36 C 142.46 103.51 143.40 102.82 143.56 101.81 L 143.72 100.71 C 143.88 99.70 143.19 98.76 142.18 98.61 C 141.17 98.45 140.23 99.14 140.08 100.15 Z M 139.90 101.38 L 139.81 102.34 C 139.73 103.36 140.48 104.25 141.49 104.33 C 142.51 104.42 143.40 103.67 143.49 102.66 L 143.57 101.69 C 143.65 100.68 142.90 99.79 141.89 99.70 C 140.88 99.61 139.98 100.36 139.90 101.38 Z M 139.81 102.42 L 139.77 103.45 C 139.72 104.46 140.51 105.32 141.52 105.36 C 142.54 105.41 143.40 104.62 143.44 103.61 L 143.49 102.58 C 143.53 101.56 142.75 100.71 141.73 100.66 C 140.72 100.62 139.86 101.40 139.81 102.42 Z M 139.77 103.50 L 139.76 104.55 C 139.74 105.57 140.56 106.40 141.57 106.41 C 142.58 106.42 143.42 105.61 143.43 104.60 L 143.44 103.55 C 143.45 102.53 142.64 101.70 141.63 101.69 C 140.61 101.68 139.78 102.49 139.77 103.50 Z M 139.76 104.60 L 139.77 105.63 C 139.79 106.64 140.62 107.45 141.64 107.43 C 142.65 107.42 143.46 106.58 143.44 105.57 L 143.43 104.55 C 143.41 103.53 142.58 102.73 141.56 102.74 C 140.55 102.76 139.74 103.59 139.76 104.60 Z M 139.78 105.67 L 139.82 106.63 C 139.86 107.64 140.71 108.43 141.72 108.38 C 142.73 108.34 143.52 107.49 143.48 106.48 L 143.44 105.52 C 143.40 104.51 142.54 103.73 141.53 103.77 C 140.52 103.81 139.74 104.66 139.78 105.67 Z M 139.84 106.69 L 139.92 107.83 C 139.99 108.83 140.86 109.58 141.86 109.51 C 142.86 109.44 143.61 108.57 143.54 107.57 L 143.46 106.42 C 143.38 105.42 142.51 104.67 141.51 104.74 C 140.51 104.82 139.76 105.69 139.84 106.69 Z M 139.96 107.89 L 140.06 108.89 C 140.17 109.87 141.05 110.58 142.03 110.48 C 143.01 110.37 143.72 109.49 143.61 108.51 L 143.50 107.50 C 143.40 106.52 142.52 105.82 141.54 105.92 C 140.56 106.03 139.85 106.91 139.96 107.89 Z M 140.10 108.93 L 140.22 109.85 C 140.35 110.81 141.23 111.48 142.19 111.36 C 143.15 111.23 143.83 110.35 143.70 109.39 L 143.58 108.47 C 143.45 107.51 142.57 106.84 141.61 106.96 C 140.65 107.09 139.97 107.97 140.10 108.93 Z M 140.25 109.85 L 140.38 110.75 C 140.51 111.69 141.38 112.35 142.32 112.22 C 143.26 112.09 143.92 111.22 143.79 110.28 L 143.67 109.38 C 143.54 108.44 142.67 107.78 141.73 107.91 C 140.78 108.04 140.12 108.91 140.25 109.85 Z M 140.40 110.72 L 140.51 111.65 C 140.63 112.58 141.47 113.24 142.41 113.13 C 143.34 113.01 144.00 112.16 143.89 111.23 L 143.77 110.30 C 143.66 109.37 142.81 108.71 141.88 108.82 C 140.94 108.94 140.28 109.79 140.40 110.72 Z M 140.52 111.61 L 140.62 112.59 C 140.72 113.51 141.55 114.19 142.47 114.09 C 143.40 114.00 144.07 113.17 143.98 112.24 L 143.88 111.27 C 143.78 110.34 142.95 109.67 142.03 109.76 C 141.10 109.86 140.43 110.69 140.52 111.61 Z M 140.63 112.55 L 140.72 113.58 C 140.79 114.50 141.59 115.18 142.51 115.11 C 143.43 115.04 144.12 114.24 144.04 113.32 L 143.96 112.28 C 143.89 111.37 143.09 110.68 142.17 110.75 C 141.25 110.82 140.56 111.63 140.63 112.55 Z M 140.73 113.53 L 140.78 114.59 C 140.83 115.51 141.61 116.21 142.52 116.16 C 143.44 116.11 144.14 115.33 144.09 114.42 L 144.03 113.36 C 143.99 112.45 143.21 111.75 142.29 111.79 C 141.38 111.84 140.68 112.62 140.73 113.53 Z M 140.79 114.55 L 140.81 115.57 C 140.84 116.48 141.59 117.20 142.50 117.18 C 143.42 117.15 144.13 116.40 144.11 115.48 L 144.08 114.46 C 144.06 113.55 143.30 112.83 142.39 112.86 C 141.48 112.88 140.76 113.64 140.79 114.55 Z M 140.82 115.52 L 140.81 116.55 C 140.81 117.46 141.54 118.20 142.45 118.20 C 143.36 118.21 144.10 117.47 144.10 116.56 L 144.11 115.53 C 144.11 114.62 143.38 113.88 142.47 113.88 C 141.56 113.88 140.82 114.61 140.82 115.52 Z M 140.82 116.49 L 140.78 117.49 C 140.74 118.40 141.44 119.17 142.35 119.20 C 143.26 119.24 144.02 118.53 144.06 117.63 L 144.10 116.62 C 144.14 115.72 143.43 114.95 142.53 114.92 C 141.62 114.88 140.85 115.58 140.82 116.49 Z M 140.78 117.41 L 140.70 118.36 C 140.62 119.26 141.28 120.06 142.19 120.14 C 143.09 120.22 143.88 119.55 143.97 118.65 L 144.05 117.71 C 144.13 116.81 143.47 116.01 142.56 115.93 C 141.66 115.85 140.87 116.51 140.78 117.41 Z M 140.72 118.23 L 140.54 119.28 C 140.39 120.18 140.99 121.02 141.88 121.17 C 142.78 121.32 143.62 120.72 143.77 119.83 L 143.95 118.77 C 144.10 117.88 143.50 117.04 142.60 116.89 C 141.71 116.74 140.87 117.34 140.72 118.23 Z M 140.57 119.12 L 140.32 120.07 C 140.08 120.94 140.59 121.84 141.46 122.08 C 142.34 122.32 143.24 121.81 143.48 120.93 L 143.74 119.99 C 143.98 119.11 143.46 118.21 142.59 117.97 C 141.72 117.73 140.81 118.25 140.57 119.12 Z M 140.37 119.91 L 140.02 120.81 C 139.70 121.65 140.12 122.60 140.96 122.93 C 141.81 123.25 142.76 122.83 143.08 121.99 L 143.43 121.09 C 143.75 120.25 143.33 119.30 142.49 118.97 C 141.64 118.64 140.69 119.07 140.37 119.91 Z M 140.07 120.68 L 139.65 121.54 C 139.25 122.36 139.60 123.34 140.41 123.74 C 141.23 124.14 142.22 123.80 142.61 122.98 L 143.03 122.12 C 143.43 121.30 143.09 120.31 142.27 119.91 C 141.45 119.52 140.47 119.86 140.07 120.68 Z M 139.70 121.41 L 139.20 122.26 C 138.73 123.05 138.99 124.07 139.79 124.54 C 140.58 125.00 141.60 124.74 142.06 123.95 L 142.56 123.11 C 143.03 122.32 142.77 121.30 141.98 120.83 C 141.19 120.36 140.17 120.62 139.70 121.41 Z M 139.28 122.10 L 138.68 122.91 C 138.12 123.66 138.28 124.71 139.03 125.27 C 139.77 125.82 140.83 125.67 141.38 124.92 L 141.99 124.11 C 142.54 123.36 142.39 122.31 141.64 121.75 C 140.89 121.20 139.84 121.35 139.28 122.10 Z M 138.80 122.73 L 138.08 123.47 C 137.43 124.15 137.45 125.23 138.12 125.88 C 138.80 126.54 139.88 126.52 140.54 125.84 L 141.26 125.10 C 141.91 124.42 141.89 123.34 141.22 122.69 C 140.54 122.03 139.46 122.05 138.80 122.73 Z M 138.26 123.29 L 137.19 124.11 C 136.43 124.69 136.29 125.78 136.87 126.53 C 137.45 127.29 138.53 127.43 139.29 126.85 L 140.36 126.03 C 141.12 125.45 141.26 124.36 140.68 123.61 C 140.10 122.85 139.02 122.71 138.26 123.29 Z M 137.24 124.05 L 136.56 124.53 C 135.77 125.08 135.58 126.17 136.13 126.96 C 136.68 127.74 137.76 127.94 138.55 127.39 L 139.23 126.91 C 140.02 126.36 140.21 125.27 139.66 124.49 C 139.11 123.70 138.03 123.50 137.24 124.05 Z M 137.60 127.71 L 137.84 127.71 C 138.81 127.68 139.57 126.87 139.54 125.90 C 139.51 124.93 138.71 124.17 137.74 124.20 L 137.50 124.20 C 136.53 124.23 135.77 125.04 135.80 126.01 C 135.83 126.98 136.63 127.74 137.60 127.71 Z M 138.36 127.62 L 138.96 127.41 C 139.88 127.10 140.37 126.09 140.06 125.17 C 139.74 124.25 138.74 123.76 137.82 124.08 L 137.21 124.29 C 136.29 124.60 135.80 125.60 136.12 126.52 C 136.44 127.45 137.44 127.94 138.36 127.62 Z M 139.01 127.40 L 139.88 127.07 C 140.79 126.73 141.26 125.72 140.92 124.80 C 140.58 123.89 139.56 123.43 138.65 123.77 L 137.77 124.09 C 136.86 124.43 136.40 125.45 136.74 126.36 C 137.08 127.27 138.09 127.74 139.01 127.40 Z M 139.90 127.07 L 140.96 126.66 C 141.87 126.31 142.32 125.28 141.97 124.37 C 141.61 123.46 140.59 123.01 139.68 123.36 L 138.63 123.77 C 137.72 124.12 137.26 125.15 137.62 126.06 C 137.97 126.97 138.99 127.42 139.90 127.07 Z M 140.97 126.65 L 142.12 126.20 C 143.03 125.84 143.47 124.81 143.11 123.90 C 142.75 122.99 141.72 122.55 140.81 122.91 L 139.67 123.37 C 138.76 123.73 138.31 124.76 138.68 125.66 C 139.04 126.57 140.06 127.01 140.97 126.65 Z M 142.13 126.19 L 143.29 125.73 C 144.19 125.36 144.63 124.32 144.26 123.42 C 143.89 122.51 142.86 122.08 141.95 122.45 L 140.80 122.91 C 139.89 123.28 139.46 124.31 139.83 125.22 C 140.20 126.13 141.23 126.56 142.13 126.19 Z M 143.30 125.71 L 144.32 125.29 C 145.22 124.91 145.64 123.88 145.27 122.98 C 144.90 122.09 143.87 121.66 142.97 122.03 L 141.94 122.46 C 141.05 122.83 140.62 123.86 140.99 124.76 C 141.37 125.66 142.40 126.08 143.30 125.71 Z M 144.32 125.26 L 145.29 124.85 C 146.17 124.48 146.58 123.46 146.21 122.57 C 145.83 121.69 144.81 121.27 143.93 121.65 L 142.96 122.06 C 142.08 122.43 141.67 123.46 142.04 124.34 C 142.42 125.22 143.44 125.64 144.32 125.26 Z M 145.29 124.83 L 146.20 124.43 C 147.07 124.06 147.47 123.04 147.10 122.17 C 146.72 121.30 145.71 120.90 144.84 121.28 L 143.92 121.67 C 143.05 122.05 142.65 123.06 143.03 123.93 C 143.41 124.80 144.42 125.20 145.29 124.83 Z M 146.20 124.41 L 147.08 124.02 C 147.94 123.65 148.33 122.65 147.95 121.79 C 147.57 120.93 146.57 120.54 145.72 120.92 L 144.84 121.30 C 143.98 121.68 143.59 122.68 143.97 123.54 C 144.34 124.39 145.34 124.78 146.20 124.41 Z M 147.08 124.00 L 147.93 123.62 C 148.78 123.25 149.16 122.26 148.79 121.41 C 148.41 120.57 147.42 120.19 146.58 120.56 L 145.72 120.94 C 144.87 121.31 144.49 122.30 144.87 123.15 C 145.24 123.99 146.23 124.38 147.08 124.00 Z M 147.93 123.60 L 148.47 123.37 C 149.30 122.99 149.68 122.01 149.31 121.18 C 148.94 120.34 147.96 119.97 147.12 120.34 L 146.58 120.58 C 145.75 120.95 145.37 121.93 145.74 122.76 C 146.11 123.60 147.09 123.98 147.93 123.60 Z"
      fill="black"
      fill-rule="nonzero" /><path d="M 105.61 147.37 L 106.40 146.89 C 107.24 146.38 107.50 145.29 106.99 144.46 C 106.48 143.63 105.39 143.36 104.56 143.87 L 103.77 144.36 C 102.94 144.86 102.67 145.95 103.18 146.79 C 103.69 147.62 104.78 147.88 105.61 147.37 Z M 106.38 146.95 L 107.21 146.47 C 108.08 145.98 108.38 144.88 107.89 144.01 C 107.39 143.14 106.29 142.84 105.42 143.33 L 104.59 143.81 C 103.72 144.31 103.42 145.41 103.91 146.28 C 104.41 147.14 105.51 147.45 106.38 146.95 Z M 107.14 146.56 L 108.07 146.09 C 108.99 145.63 109.35 144.52 108.90 143.61 C 108.44 142.70 107.33 142.33 106.42 142.79 L 105.49 143.25 C 104.58 143.71 104.21 144.82 104.66 145.73 C 105.12 146.64 106.23 147.01 107.14 146.56 Z M 107.98 146.17 L 108.94 145.76 C 109.89 145.36 110.34 144.26 109.93 143.30 C 109.53 142.35 108.43 141.90 107.47 142.30 L 106.51 142.71 C 105.56 143.11 105.11 144.22 105.52 145.17 C 105.92 146.13 107.02 146.57 107.98 146.17 Z M 108.85 145.81 L 109.77 145.47 C 110.75 145.12 111.25 144.03 110.89 143.05 C 110.53 142.07 109.45 141.56 108.47 141.92 L 107.55 142.26 C 106.57 142.62 106.07 143.70 106.43 144.68 C 106.79 145.66 107.87 146.17 108.85 145.81 Z M 109.72 145.49 L 110.68 145.17 C 111.67 144.84 112.21 143.77 111.88 142.78 C 111.55 141.79 110.48 141.25 109.49 141.58 L 108.52 141.90 C 107.53 142.23 106.99 143.31 107.32 144.30 C 107.65 145.29 108.73 145.82 109.72 145.49 Z M 110.65 145.18 L 111.64 144.87 C 112.63 144.56 113.19 143.50 112.87 142.50 C 112.56 141.50 111.50 140.95 110.50 141.26 L 109.52 141.57 C 108.52 141.89 107.96 142.95 108.28 143.95 C 108.59 144.94 109.66 145.50 110.65 145.18 Z M 111.62 144.88 L 112.59 144.58 C 113.59 144.27 114.15 143.21 113.84 142.21 C 113.54 141.21 112.48 140.65 111.48 140.96 L 110.51 141.26 C 109.51 141.56 108.95 142.62 109.26 143.62 C 109.56 144.62 110.62 145.19 111.62 144.88 Z M 112.59 144.58 L 113.58 144.28 C 114.58 143.97 115.13 142.91 114.83 141.91 C 114.52 140.91 113.46 140.35 112.46 140.66 L 111.47 140.96 C 110.47 141.27 109.91 142.33 110.22 143.33 C 110.53 144.33 111.59 144.89 112.59 144.58 Z M 113.58 144.28 L 114.53 143.98 C 115.53 143.67 116.09 142.61 115.78 141.61 C 115.46 140.61 114.40 140.05 113.40 140.36 L 112.45 140.66 C 111.46 140.97 110.90 142.03 111.21 143.03 C 111.52 144.03 112.58 144.59 113.58 144.28 Z M 114.52 143.98 L 115.46 143.69 C 116.46 143.39 117.02 142.33 116.71 141.33 C 116.41 140.33 115.35 139.77 114.35 140.07 L 113.41 140.36 C 112.41 140.67 111.85 141.73 112.16 142.73 C 112.46 143.73 113.52 144.29 114.52 143.98 Z M 115.44 143.70 L 116.39 143.41 C 117.39 143.12 117.96 142.06 117.66 141.06 C 117.37 140.06 116.31 139.49 115.31 139.79 L 114.36 140.07 C 113.36 140.37 112.79 141.42 113.09 142.42 C 113.39 143.42 114.44 143.99 115.44 143.70 Z M 116.37 143.42 L 117.29 143.16 C 118.29 142.87 118.87 141.83 118.59 140.82 C 118.30 139.82 117.26 139.24 116.25 139.52 L 115.33 139.78 C 114.33 140.07 113.75 141.12 114.03 142.12 C 114.32 143.12 115.37 143.71 116.37 143.42 Z M 117.27 143.16 L 118.18 142.91 C 119.19 142.64 119.78 141.60 119.51 140.59 C 119.23 139.58 118.19 138.99 117.19 139.27 L 116.27 139.52 C 115.27 139.79 114.67 140.83 114.95 141.84 C 115.22 142.84 116.26 143.44 117.27 143.16 Z M 118.17 142.91 L 119.12 142.66 C 120.13 142.39 120.73 141.36 120.46 140.35 C 120.19 139.34 119.16 138.74 118.15 139.01 L 117.20 139.27 C 116.19 139.53 115.59 140.57 115.86 141.57 C 116.13 142.58 117.16 143.18 118.17 142.91 Z M 119.11 142.66 L 120.11 142.40 C 121.12 142.14 121.72 141.11 121.45 140.10 C 121.19 139.09 120.16 138.49 119.15 138.75 L 118.16 139.01 C 117.15 139.28 116.55 140.31 116.81 141.31 C 117.08 142.32 118.11 142.92 119.11 142.66 Z M 120.10 142.40 L 121.14 142.13 C 122.15 141.87 122.75 140.84 122.49 139.83 C 122.23 138.83 121.20 138.22 120.19 138.48 L 119.16 138.75 C 118.15 139.01 117.55 140.04 117.81 141.05 C 118.07 142.06 119.10 142.66 120.10 142.40 Z M 121.14 142.13 L 122.09 141.88 C 123.10 141.62 123.70 140.59 123.44 139.59 C 123.18 138.58 122.15 137.98 121.14 138.24 L 120.19 138.49 C 119.19 138.75 118.58 139.78 118.85 140.78 C 119.11 141.79 120.13 142.39 121.14 142.13 Z M 122.09 141.88 L 123.04 141.63 C 124.04 141.37 124.64 140.34 124.38 139.34 C 124.12 138.34 123.09 137.73 122.09 138.00 L 121.14 138.24 C 120.14 138.50 119.54 139.53 119.80 140.53 C 120.06 141.54 121.09 142.14 122.09 141.88 Z M 123.04 141.63 L 124.00 141.37 C 125.00 141.11 125.60 140.09 125.34 139.09 C 125.08 138.09 124.06 137.49 123.06 137.75 L 122.09 138.00 C 121.09 138.26 120.49 139.29 120.75 140.29 C 121.01 141.29 122.04 141.89 123.04 141.63 Z M 124.00 141.37 L 124.98 141.11 C 125.98 140.85 126.58 139.83 126.32 138.83 C 126.06 137.83 125.04 137.23 124.04 137.50 L 123.06 137.75 C 122.06 138.01 121.46 139.03 121.72 140.03 C 121.98 141.03 123.00 141.63 124.00 141.37 Z M 124.98 141.11 L 125.97 140.85 C 126.97 140.59 127.57 139.57 127.31 138.57 C 127.04 137.57 126.02 136.98 125.03 137.24 L 124.04 137.50 C 123.04 137.76 122.44 138.78 122.71 139.78 C 122.97 140.77 123.99 141.37 124.98 141.11 Z M 125.97 140.85 L 126.96 140.59 C 127.96 140.33 128.55 139.31 128.29 138.31 C 128.03 137.32 127.01 136.72 126.02 136.98 L 125.03 137.24 C 124.03 137.50 123.44 138.52 123.70 139.52 C 123.96 140.51 124.98 141.11 125.97 140.85 Z M 126.96 140.58 L 127.92 140.33 C 128.92 140.07 129.51 139.05 129.25 138.06 C 128.99 137.07 127.97 136.48 126.98 136.74 L 126.02 136.99 C 125.03 137.25 124.43 138.26 124.69 139.26 C 124.95 140.25 125.97 140.84 126.96 140.58 Z M 127.92 140.33 L 128.89 140.07 C 129.88 139.81 130.47 138.80 130.21 137.81 C 129.95 136.82 128.94 136.23 127.95 136.49 L 126.98 136.74 C 125.99 137.00 125.40 138.01 125.66 139.00 C 125.92 139.99 126.93 140.59 127.92 140.33 Z M 128.89 140.07 L 129.85 139.82 C 130.84 139.56 131.43 138.55 131.17 137.56 C 130.92 136.57 129.90 135.98 128.92 136.24 L 127.95 136.49 C 126.96 136.75 126.37 137.76 126.63 138.75 C 126.89 139.74 127.90 140.33 128.89 140.07 Z M 129.85 139.81 L 130.82 139.56 C 131.80 139.30 132.39 138.30 132.14 137.31 C 131.88 136.32 130.87 135.73 129.89 135.99 L 128.92 136.24 C 127.93 136.50 127.34 137.51 127.60 138.49 C 127.86 139.48 128.86 140.07 129.85 139.81 Z M 130.82 139.56 L 131.79 139.30 C 132.77 139.05 133.36 138.04 133.11 137.06 C 132.85 136.08 131.84 135.49 130.86 135.74 L 129.89 135.99 C 128.91 136.25 128.32 137.25 128.57 138.24 C 128.83 139.22 129.83 139.81 130.82 139.56 Z M 131.78 139.30 L 132.76 139.05 C 133.74 138.79 134.33 137.79 134.07 136.81 C 133.82 135.83 132.82 135.24 131.84 135.49 L 130.86 135.75 C 129.88 136.00 129.29 137.00 129.55 137.98 C 129.80 138.97 130.80 139.55 131.78 139.30 Z M 132.76 139.04 L 133.73 138.79 C 134.71 138.54 135.30 137.54 135.04 136.56 C 134.79 135.58 133.79 134.99 132.81 135.25 L 131.84 135.50 C 130.86 135.75 130.27 136.75 130.52 137.73 C 130.78 138.71 131.78 139.30 132.76 139.04 Z M 133.73 138.79 L 134.70 138.54 C 135.68 138.28 136.27 137.29 136.01 136.31 C 135.76 135.33 134.77 134.75 133.79 135.00 L 132.81 135.25 C 131.84 135.50 131.25 136.50 131.50 137.48 C 131.75 138.45 132.75 139.04 133.73 138.79 Z M 134.70 138.53 L 135.67 138.28 C 136.65 138.03 137.23 137.03 136.98 136.06 C 136.73 135.08 135.73 134.50 134.76 134.75 L 133.79 135.00 C 132.81 135.26 132.23 136.25 132.48 137.22 C 132.73 138.20 133.73 138.78 134.70 138.53 Z M 135.68 138.28 L 136.64 138.02 C 137.61 137.77 138.20 136.78 137.94 135.81 C 137.69 134.83 136.70 134.25 135.73 134.50 L 134.76 134.76 C 133.79 135.01 133.20 136.00 133.46 136.97 C 133.71 137.95 134.70 138.53 135.68 138.28 Z M 136.64 138.02 L 137.60 137.77 C 138.57 137.51 139.15 136.52 138.90 135.55 C 138.64 134.58 137.65 134.00 136.68 134.26 L 135.72 134.51 C 134.75 134.76 134.17 135.76 134.43 136.72 C 134.68 137.69 135.67 138.27 136.64 138.02 Z M 137.61 137.76 L 138.59 137.50 C 139.55 137.24 140.13 136.25 139.87 135.29 C 139.61 134.32 138.62 133.75 137.66 134.00 L 136.68 134.26 C 135.71 134.52 135.14 135.51 135.39 136.48 C 135.65 137.44 136.64 138.02 137.61 137.76 Z M 138.59 137.49 L 139.58 137.23 C 140.54 136.97 141.11 135.98 140.85 135.02 C 140.59 134.06 139.60 133.49 138.64 133.74 L 137.65 134.01 C 136.69 134.27 136.12 135.26 136.38 136.22 C 136.64 137.18 137.63 137.75 138.59 137.49 Z M 139.59 137.22 L 140.56 136.96 C 141.52 136.69 142.08 135.70 141.82 134.75 C 141.56 133.79 140.57 133.22 139.61 133.48 L 138.64 133.75 C 137.68 134.01 137.11 135.00 137.38 135.96 C 137.64 136.92 138.63 137.48 139.59 137.22 Z M 140.57 136.95 L 141.52 136.68 C 142.48 136.42 143.04 135.43 142.77 134.47 C 142.51 133.52 141.52 132.96 140.56 133.22 L 139.61 133.49 C 138.65 133.76 138.09 134.75 138.36 135.70 C 138.62 136.65 139.61 137.21 140.57 136.95 Z M 141.53 136.68 L 142.47 136.41 C 143.42 136.14 143.98 135.15 143.71 134.20 C 143.44 133.25 142.45 132.70 141.50 132.97 L 140.56 133.23 C 139.61 133.50 139.05 134.49 139.32 135.44 C 139.59 136.39 140.58 136.94 141.53 136.68 Z M 142.48 136.40 L 143.42 136.13 C 144.37 135.86 144.91 134.87 144.64 133.92 C 144.37 132.98 143.38 132.43 142.43 132.70 L 141.49 132.97 C 140.55 133.25 140.00 134.23 140.27 135.18 C 140.55 136.13 141.53 136.67 142.48 136.40 Z M 143.43 136.12 L 144.43 135.83 C 145.37 135.55 145.91 134.57 145.63 133.62 C 145.36 132.68 144.37 132.14 143.43 132.42 L 142.43 132.71 C 141.48 132.99 140.94 133.98 141.22 134.92 C 141.50 135.86 142.48 136.40 143.43 136.12 Z M 144.44 135.82 L 145.41 135.53 C 146.35 135.25 146.89 134.26 146.61 133.32 C 146.32 132.38 145.34 131.85 144.40 132.13 L 143.42 132.42 C 142.48 132.70 141.95 133.69 142.23 134.63 C 142.51 135.57 143.50 136.10 144.44 135.82 Z M 145.42 135.52 L 146.37 135.23 C 147.31 134.95 147.84 133.96 147.55 133.03 C 147.27 132.09 146.28 131.56 145.35 131.85 L 144.39 132.14 C 143.46 132.42 142.93 133.41 143.21 134.35 C 143.50 135.28 144.49 135.81 145.42 135.52 Z M 146.38 135.23 L 147.31 134.94 C 148.24 134.65 148.76 133.67 148.48 132.73 C 148.19 131.80 147.20 131.28 146.27 131.57 L 145.34 131.86 C 144.41 132.14 143.89 133.13 144.18 134.06 C 144.46 134.99 145.45 135.51 146.38 135.23 Z M 147.31 134.93 L 148.24 134.65 C 149.16 134.36 149.68 133.37 149.39 132.44 C 149.10 131.52 148.11 131.00 147.19 131.29 L 146.27 131.58 C 145.34 131.87 144.82 132.85 145.11 133.78 C 145.40 134.71 146.39 135.22 147.31 134.93 Z M 148.24 134.64 L 149.22 134.33 C 150.14 134.04 150.66 133.05 150.37 132.13 C 150.07 131.21 149.09 130.69 148.17 130.99 L 147.18 131.30 C 146.26 131.59 145.75 132.57 146.04 133.49 C 146.33 134.42 147.32 134.93 148.24 134.64 Z M 149.22 134.32 L 150.18 134.02 C 151.10 133.72 151.61 132.74 151.32 131.82 C 151.02 130.90 150.04 130.39 149.12 130.69 L 148.16 130.99 C 147.24 131.28 146.74 132.27 147.03 133.19 C 147.32 134.11 148.30 134.62 149.22 134.32 Z M 150.18 134.01 L 151.12 133.71 C 152.04 133.41 152.54 132.43 152.25 131.52 C 151.96 130.60 150.97 130.10 150.06 130.39 L 149.12 130.69 C 148.20 130.99 147.70 131.97 147.99 132.88 C 148.29 133.80 149.27 134.30 150.18 134.01 Z M 151.12 133.70 L 152.05 133.40 C 152.97 133.11 153.47 132.13 153.17 131.22 C 152.88 130.30 151.90 129.80 150.99 130.10 L 150.06 130.40 C 149.14 130.69 148.64 131.67 148.94 132.58 C 149.23 133.50 150.21 134.00 151.12 133.70 Z M 152.05 133.40 L 152.93 133.11 C 153.84 132.82 154.34 131.84 154.05 130.93 C 153.76 130.02 152.78 129.52 151.87 129.82 L 150.99 130.10 C 150.08 130.40 149.58 131.37 149.87 132.28 C 150.17 133.19 151.14 133.69 152.05 133.40 Z M 152.93 133.11 L 153.81 132.82 C 154.72 132.53 155.22 131.55 154.92 130.65 C 154.63 129.74 153.65 129.24 152.75 129.54 L 151.87 129.82 C 150.96 130.12 150.47 131.09 150.76 132.00 C 151.05 132.90 152.03 133.40 152.93 133.11 Z M 153.82 132.81 L 154.74 132.51 C 155.64 132.21 156.13 131.24 155.83 130.34 C 155.54 129.44 154.57 128.95 153.66 129.24 L 152.74 129.55 C 151.84 129.84 151.35 130.82 151.65 131.72 C 151.94 132.62 152.92 133.11 153.82 132.81 Z M 154.74 132.50 L 155.73 132.17 C 156.62 131.87 157.11 130.90 156.81 130.00 C 156.51 129.11 155.54 128.62 154.64 128.92 L 153.66 129.25 C 152.76 129.55 152.28 130.52 152.58 131.42 C 152.88 132.32 153.85 132.80 154.74 132.50 Z M 155.74 132.16 L 156.80 131.80 C 157.70 131.49 158.17 130.52 157.87 129.63 C 157.56 128.74 156.59 128.26 155.70 128.57 L 154.63 128.93 C 153.74 129.24 153.26 130.21 153.57 131.10 C 153.87 131.99 154.84 132.47 155.74 132.16 Z M 156.81 131.79 L 157.74 131.47 C 158.63 131.16 159.10 130.19 158.79 129.30 C 158.48 128.41 157.51 127.94 156.62 128.25 L 155.69 128.57 C 154.80 128.88 154.34 129.85 154.64 130.74 C 154.95 131.63 155.92 132.10 156.81 131.79 Z M 157.74 131.46 L 158.70 131.13 C 159.59 130.82 160.05 129.85 159.74 128.96 C 159.43 128.08 158.46 127.61 157.58 127.92 L 156.62 128.26 C 155.73 128.57 155.26 129.54 155.57 130.42 C 155.88 131.31 156.85 131.77 157.74 131.46 Z M 158.70 131.13 L 159.68 130.78 C 160.56 130.47 161.03 129.51 160.72 128.62 C 160.41 127.74 159.44 127.27 158.56 127.58 L 157.58 127.92 C 156.69 128.23 156.23 129.20 156.54 130.08 C 156.85 130.97 157.81 131.43 158.70 131.13 Z M 159.67 130.78 L 160.65 130.44 C 161.53 130.14 162.00 129.17 161.70 128.29 C 161.39 127.41 160.43 126.94 159.54 127.24 L 158.57 127.58 C 157.68 127.89 157.21 128.85 157.52 129.74 C 157.83 130.62 158.79 131.09 159.67 130.78 Z M 160.64 130.44 L 161.59 130.12 C 162.47 129.82 162.95 128.86 162.65 127.98 C 162.35 127.09 161.39 126.62 160.50 126.92 L 159.55 127.24 C 158.67 127.54 158.20 128.50 158.50 129.39 C 158.80 130.27 159.76 130.74 160.64 130.44 Z M 161.57 130.12 L 162.47 129.83 C 163.35 129.53 163.84 128.58 163.54 127.70 C 163.25 126.81 162.30 126.33 161.42 126.62 L 160.52 126.92 C 159.63 127.21 159.15 128.16 159.44 129.05 C 159.74 129.93 160.69 130.41 161.57 130.12 Z M 162.44 129.83 L 163.54 129.49 C 164.42 129.21 164.92 128.27 164.64 127.38 C 164.37 126.50 163.43 126.00 162.54 126.28 L 161.44 126.62 C 160.56 126.90 160.06 127.84 160.34 128.72 C 160.61 129.61 161.56 130.10 162.44 129.83 Z M 163.50 129.49 L 164.51 129.20 C 165.40 128.94 165.91 128.02 165.65 127.13 C 165.39 126.24 164.47 125.73 163.58 125.99 L 162.58 126.28 C 161.69 126.53 161.18 127.46 161.43 128.35 C 161.69 129.23 162.62 129.74 163.50 129.49 Z M 164.48 129.20 L 165.40 128.95 C 166.28 128.71 166.81 127.80 166.57 126.91 C 166.33 126.03 165.42 125.50 164.53 125.74 L 163.61 125.99 C 162.73 126.23 162.20 127.14 162.44 128.02 C 162.68 128.91 163.59 129.44 164.48 129.20 Z M 165.37 128.95 L 166.24 128.72 C 167.13 128.50 167.66 127.60 167.44 126.72 C 167.21 125.83 166.31 125.30 165.43 125.52 L 164.56 125.74 C 163.67 125.97 163.14 126.87 163.37 127.75 C 163.59 128.64 164.49 129.17 165.37 128.95 Z M 166.23 128.72 L 166.63 128.62 C 167.51 128.40 168.04 127.51 167.82 126.63 C 167.60 125.74 166.71 125.21 165.83 125.43 L 165.44 125.53 C 164.55 125.75 164.02 126.64 164.24 127.52 C 164.46 128.40 165.35 128.94 166.23 128.72 Z"
      fill="black"
      fill-rule="nonzero" /><path d="M 129.60 149.28 L 129.42 150.32 C 129.26 151.28 129.91 152.20 130.87 152.37 C 131.84 152.53 132.76 151.88 132.92 150.91 L 133.10 149.88 C 133.27 148.91 132.62 147.99 131.65 147.83 C 130.68 147.66 129.76 148.31 129.60 149.28 Z M 129.42 150.33 L 129.25 151.35 C 129.09 152.32 129.75 153.23 130.72 153.39 C 131.69 153.55 132.60 152.89 132.76 151.92 L 132.93 150.90 C 133.09 149.93 132.43 149.02 131.46 148.86 C 130.49 148.70 129.58 149.36 129.42 150.33 Z M 129.25 151.37 L 129.10 152.36 C 128.95 153.33 129.62 154.24 130.59 154.38 C 131.56 154.53 132.47 153.86 132.61 152.89 L 132.76 151.90 C 132.91 150.93 132.24 150.02 131.27 149.88 C 130.30 149.73 129.39 150.40 129.25 151.37 Z M 129.09 152.40 L 128.97 153.34 C 128.84 154.32 129.53 155.21 130.50 155.33 C 131.48 155.46 132.37 154.77 132.49 153.80 L 132.62 152.85 C 132.74 151.88 132.06 150.99 131.08 150.86 C 130.11 150.74 129.22 151.42 129.09 152.40 Z M 128.96 153.40 L 128.87 154.39 C 128.77 155.37 129.49 156.23 130.46 156.33 C 131.44 156.42 132.31 155.71 132.40 154.73 L 132.50 153.74 C 132.59 152.77 131.88 151.90 130.90 151.80 C 129.93 151.71 129.06 152.42 128.96 153.40 Z M 128.87 154.46 L 128.81 155.47 C 128.75 156.45 129.50 157.29 130.48 157.34 C 131.46 157.40 132.29 156.65 132.35 155.67 L 132.41 154.66 C 132.46 153.68 131.71 152.85 130.74 152.79 C 129.76 152.74 128.92 153.48 128.87 154.46 Z M 128.81 155.53 L 128.79 156.51 C 128.77 157.48 129.54 158.29 130.52 158.31 C 131.49 158.34 132.30 157.56 132.33 156.59 L 132.35 155.61 C 132.37 154.64 131.60 153.83 130.62 153.80 C 129.64 153.78 128.83 154.56 128.81 155.53 Z M 128.79 156.54 L 128.79 157.52 C 128.78 158.49 129.57 159.28 130.55 159.29 C 131.52 159.29 132.31 158.51 132.32 157.53 L 132.32 156.55 C 132.33 155.58 131.54 154.79 130.56 154.78 C 129.59 154.78 128.80 155.56 128.79 156.54 Z M 128.79 157.53 L 128.79 158.49 C 128.80 159.46 129.59 160.25 130.56 160.24 C 131.53 160.24 132.32 159.45 132.32 158.48 L 132.31 157.52 C 132.31 156.55 131.52 155.76 130.55 155.76 C 129.58 155.76 128.79 156.55 128.79 157.53 Z M 128.80 158.52 L 128.82 159.50 C 128.83 160.48 129.64 161.25 130.61 161.23 C 131.58 161.21 132.35 160.40 132.33 159.43 L 132.32 158.45 C 132.30 157.47 131.49 156.70 130.52 156.72 C 129.55 156.74 128.78 157.55 128.80 158.52 Z M 128.82 159.57 L 128.88 160.58 C 128.93 161.55 129.76 162.29 130.73 162.24 C 131.70 162.18 132.44 161.35 132.39 160.38 L 132.33 159.37 C 132.28 158.40 131.45 157.66 130.48 157.71 C 129.51 157.77 128.76 158.60 128.82 159.57 Z M 128.89 160.68 L 129.00 161.71 C 129.11 162.67 129.98 163.37 130.94 163.26 C 131.91 163.15 132.60 162.28 132.49 161.32 L 132.38 160.29 C 132.27 159.32 131.40 158.63 130.44 158.74 C 129.47 158.84 128.78 159.71 128.89 160.68 Z M 129.02 161.82 L 129.20 162.78 C 129.37 163.73 130.27 164.37 131.23 164.20 C 132.18 164.03 132.81 163.12 132.64 162.16 L 132.47 161.20 C 132.30 160.25 131.39 159.62 130.44 159.79 C 129.49 159.96 128.85 160.87 129.02 161.82 Z M 129.23 162.87 L 129.46 163.84 C 129.68 164.77 130.62 165.35 131.55 165.13 C 132.48 164.91 133.06 163.97 132.84 163.03 L 132.61 162.07 C 132.39 161.14 131.45 160.56 130.52 160.78 C 129.58 161.00 129.01 161.94 129.23 162.87 Z M 129.49 163.91 L 129.77 164.88 C 130.03 165.80 130.99 166.33 131.90 166.06 C 132.82 165.80 133.35 164.84 133.09 163.93 L 132.81 162.96 C 132.54 162.04 131.59 161.51 130.67 161.78 C 129.75 162.04 129.23 163.00 129.49 163.91 Z M 129.80 164.94 L 130.12 165.91 C 130.41 166.81 131.38 167.30 132.28 167.00 C 133.18 166.71 133.67 165.74 133.37 164.84 L 133.05 163.87 C 132.76 162.97 131.79 162.48 130.89 162.78 C 129.99 163.07 129.50 164.04 129.80 164.94 Z M 130.15 165.95 L 130.49 166.91 C 130.81 167.79 131.78 168.25 132.67 167.93 C 133.55 167.61 134.01 166.63 133.69 165.75 L 133.34 164.79 C 133.03 163.91 132.05 163.45 131.17 163.77 C 130.28 164.09 129.83 165.07 130.15 165.95 Z M 130.52 166.94 L 130.89 167.88 C 131.22 168.75 132.20 169.18 133.07 168.84 C 133.94 168.50 134.37 167.52 134.03 166.66 L 133.66 165.71 C 133.32 164.85 132.34 164.42 131.48 164.76 C 130.61 165.09 130.18 166.07 130.52 166.94 Z M 130.91 167.91 L 131.30 168.84 C 131.66 169.70 132.64 170.10 133.49 169.74 C 134.34 169.39 134.74 168.41 134.39 167.55 L 134.00 166.63 C 133.65 165.77 132.67 165.37 131.81 165.73 C 130.96 166.08 130.56 167.06 130.91 167.91 Z M 131.33 168.87 L 131.73 169.78 C 132.10 170.62 133.08 170.99 133.92 170.62 C 134.76 170.25 135.14 169.27 134.76 168.43 L 134.36 167.52 C 133.99 166.69 133.01 166.31 132.17 166.68 C 131.33 167.05 130.96 168.03 131.33 168.87 Z M 131.76 169.81 L 132.18 170.71 C 132.57 171.53 133.55 171.89 134.38 171.50 C 135.20 171.11 135.55 170.13 135.16 169.31 L 134.74 168.40 C 134.35 167.58 133.37 167.23 132.54 167.61 C 131.72 168.00 131.37 168.98 131.76 169.81 Z M 132.20 170.74 L 132.66 171.65 C 133.06 172.46 134.05 172.79 134.86 172.39 C 135.67 171.99 136.00 171.00 135.60 170.19 L 135.14 169.28 C 134.74 168.46 133.75 168.13 132.94 168.54 C 132.13 168.94 131.80 169.93 132.20 170.74 Z M 132.67 171.67 L 133.13 172.56 C 133.55 173.36 134.54 173.68 135.34 173.26 C 136.15 172.84 136.46 171.85 136.04 171.05 L 135.58 170.16 C 135.17 169.36 134.18 169.05 133.37 169.46 C 132.57 169.88 132.25 170.87 132.67 171.67 Z M 133.14 172.57 L 133.60 173.44 C 134.03 174.24 135.02 174.54 135.82 174.12 C 136.62 173.69 136.92 172.70 136.49 171.90 L 136.03 171.03 C 135.61 170.23 134.61 169.93 133.81 170.36 C 133.02 170.78 132.71 171.78 133.14 172.57 Z M 133.61 173.45 L 133.89 173.97 C 134.31 174.76 135.31 175.06 136.10 174.63 C 136.90 174.21 137.20 173.21 136.77 172.42 L 136.49 171.90 C 136.06 171.10 135.07 170.80 134.27 171.23 C 133.48 171.66 133.18 172.65 133.61 173.45 Z"
      fill="black"
      fill-rule="nonzero" /><path d="M 139.43 148.83 L 140.15 148.26 C 140.99 147.61 141.13 146.40 140.47 145.57 C 139.82 144.73 138.61 144.59 137.78 145.25 L 137.06 145.82 C 136.22 146.47 136.08 147.68 136.74 148.51 C 137.39 149.34 138.60 149.49 139.43 148.83 Z M 140.10 148.31 L 140.87 147.75 C 141.73 147.13 141.92 145.92 141.29 145.06 C 140.67 144.20 139.47 144.01 138.61 144.64 L 137.83 145.20 C 136.97 145.82 136.78 147.03 137.41 147.89 C 138.03 148.75 139.24 148.94 140.10 148.31 Z M 140.76 147.83 L 141.63 147.29 C 142.54 146.72 142.81 145.53 142.25 144.63 C 141.68 143.72 140.49 143.45 139.59 144.01 L 138.72 144.56 C 137.81 145.12 137.54 146.31 138.10 147.22 C 138.66 148.12 139.85 148.40 140.76 147.83 Z M 141.49 147.37 L 142.45 146.88 C 143.40 146.39 143.77 145.23 143.29 144.28 C 142.80 143.33 141.63 142.95 140.68 143.44 L 139.73 143.93 C 138.78 144.41 138.40 145.58 138.89 146.53 C 139.38 147.48 140.54 147.86 141.49 147.37 Z M 142.32 146.94 L 143.20 146.57 C 144.19 146.15 144.64 145.01 144.23 144.03 C 143.81 143.04 142.67 142.59 141.69 143.00 L 140.81 143.38 C 139.82 143.80 139.36 144.94 139.78 145.92 C 140.20 146.90 141.34 147.36 142.32 146.94 Z M 143.11 146.60 L 144.06 146.25 C 145.06 145.89 145.58 144.77 145.21 143.77 C 144.84 142.77 143.73 142.25 142.73 142.62 L 141.78 142.97 C 140.77 143.34 140.26 144.45 140.63 145.45 C 141.00 146.46 142.11 146.97 143.11 146.60 Z M 143.98 146.28 L 144.97 145.97 C 145.98 145.64 146.55 144.55 146.22 143.53 C 145.90 142.52 144.81 141.95 143.79 142.28 L 142.80 142.59 C 141.79 142.92 141.22 144.01 141.55 145.03 C 141.87 146.04 142.96 146.61 143.98 146.28 Z M 144.89 145.99 L 145.88 145.72 C 146.91 145.43 147.52 144.37 147.23 143.33 C 146.95 142.30 145.88 141.70 144.85 141.98 L 143.86 142.26 C 142.83 142.54 142.23 143.61 142.51 144.64 C 142.80 145.67 143.86 146.27 144.89 145.99 Z M 145.80 145.74 L 146.81 145.50 C 147.85 145.26 148.50 144.22 148.26 143.18 C 148.02 142.14 146.98 141.49 145.94 141.73 L 144.93 141.96 C 143.89 142.21 143.24 143.24 143.48 144.29 C 143.72 145.33 144.76 145.98 145.80 145.74 Z M 146.72 145.52 L 147.76 145.33 C 148.81 145.14 149.51 144.13 149.31 143.08 C 149.12 142.03 148.12 141.33 147.06 141.52 L 146.03 141.71 C 144.97 141.91 144.28 142.91 144.47 143.96 C 144.66 145.01 145.67 145.71 146.72 145.52 Z M 147.67 145.34 L 148.66 145.21 C 149.72 145.07 150.46 144.10 150.32 143.04 C 150.18 141.98 149.21 141.24 148.15 141.38 L 147.16 141.51 C 146.10 141.65 145.36 142.62 145.50 143.68 C 145.64 144.74 146.61 145.48 147.67 145.34 Z M 148.57 145.22 L 149.53 145.13 C 150.59 145.04 151.38 144.11 151.29 143.04 C 151.19 141.98 150.26 141.20 149.20 141.29 L 148.24 141.37 C 147.17 141.47 146.39 142.40 146.48 143.46 C 146.58 144.53 147.51 145.31 148.57 145.22 Z M 149.46 145.14 L 150.40 145.09 C 151.46 145.04 152.28 144.13 152.23 143.07 C 152.18 142.01 151.28 141.19 150.21 141.24 L 149.27 141.29 C 148.21 141.34 147.39 142.24 147.44 143.31 C 147.49 144.37 148.40 145.19 149.46 145.14 Z M 150.32 145.09 L 151.36 145.08 C 152.42 145.07 153.27 144.20 153.26 143.14 C 153.25 142.08 152.38 141.22 151.32 141.23 L 150.29 141.24 C 149.23 141.25 148.37 142.12 148.38 143.18 C 148.39 144.25 149.26 145.10 150.32 145.09 Z M 151.22 145.07 L 152.23 145.13 C 153.29 145.20 154.20 144.39 154.26 143.34 C 154.33 142.28 153.52 141.37 152.46 141.30 L 151.46 141.24 C 150.40 141.17 149.49 141.98 149.42 143.04 C 149.36 144.10 150.16 145.01 151.22 145.07 Z M 152.02 145.10 L 152.98 145.27 C 154.03 145.46 155.02 144.76 155.20 143.72 C 155.38 142.68 154.69 141.68 153.65 141.50 L 152.68 141.33 C 151.64 141.15 150.64 141.85 150.46 142.89 C 150.28 143.93 150.97 144.92 152.02 145.10 Z M 152.69 145.19 L 153.61 145.51 C 154.60 145.85 155.69 145.32 156.04 144.33 C 156.38 143.33 155.85 142.24 154.85 141.90 L 153.94 141.58 C 152.94 141.24 151.85 141.77 151.51 142.76 C 151.16 143.76 151.69 144.85 152.69 145.19 Z M 153.29 145.36 L 154.16 145.85 C 155.07 146.37 156.24 146.06 156.76 145.14 C 157.28 144.23 156.96 143.06 156.04 142.54 L 155.17 142.05 C 154.26 141.53 153.10 141.85 152.57 142.76 C 152.05 143.67 152.37 144.84 153.29 145.36 Z M 153.91 145.68 L 154.70 146.31 C 155.52 146.97 156.71 146.83 157.37 146.02 C 158.02 145.20 157.89 144.01 157.07 143.35 L 156.29 142.72 C 155.47 142.06 154.28 142.19 153.62 143.01 C 152.96 143.83 153.10 145.02 153.91 145.68 Z M 154.53 146.14 L 155.22 146.86 C 155.95 147.61 157.15 147.63 157.90 146.91 C 158.65 146.18 158.67 144.98 157.94 144.23 L 157.25 143.52 C 156.52 142.77 155.32 142.75 154.57 143.47 C 153.82 144.20 153.80 145.39 154.53 146.14 Z M 155.10 146.71 L 155.72 147.50 C 156.36 148.32 157.55 148.46 158.36 147.82 C 159.18 147.18 159.32 146.00 158.68 145.18 L 158.06 144.39 C 157.42 143.57 156.24 143.43 155.42 144.07 C 154.60 144.71 154.46 145.89 155.10 146.71 Z M 155.62 147.34 L 156.17 148.20 C 156.72 149.07 157.87 149.33 158.75 148.78 C 159.62 148.23 159.88 147.07 159.33 146.20 L 158.78 145.34 C 158.23 144.47 157.08 144.21 156.20 144.76 C 155.33 145.31 155.07 146.47 155.62 147.34 Z M 156.09 148.03 L 156.53 148.91 C 156.99 149.82 158.10 150.19 159.01 149.74 C 159.93 149.28 160.30 148.17 159.84 147.25 L 159.40 146.37 C 158.95 145.46 157.84 145.08 156.92 145.54 C 156.00 146.00 155.63 147.11 156.09 148.03 Z M 156.47 148.74 L 156.83 149.65 C 157.19 150.60 158.26 151.07 159.20 150.70 C 160.15 150.34 160.62 149.27 160.25 148.33 L 159.90 147.42 C 159.53 146.47 158.47 146.00 157.52 146.37 C 156.58 146.73 156.11 147.80 156.47 148.74 Z M 156.79 149.51 L 157.07 150.44 C 157.36 151.40 158.37 151.95 159.33 151.66 C 160.30 151.38 160.85 150.36 160.56 149.40 L 160.28 148.47 C 160.00 147.51 158.98 146.96 158.02 147.24 C 157.05 147.53 156.51 148.55 156.79 149.51 Z M 157.05 150.31 L 157.27 151.28 C 157.49 152.25 158.45 152.86 159.42 152.65 C 160.40 152.43 161.01 151.47 160.79 150.49 L 160.58 149.53 C 160.36 148.55 159.40 147.94 158.42 148.16 C 157.45 148.37 156.84 149.34 157.05 150.31 Z M 157.26 151.17 L 157.42 152.18 C 157.58 153.15 158.50 153.82 159.47 153.66 C 160.45 153.50 161.11 152.59 160.96 151.61 L 160.80 150.60 C 160.64 149.63 159.72 148.96 158.75 149.12 C 157.77 149.27 157.11 150.19 157.26 151.17 Z M 157.43 152.09 L 157.53 153.03 C 157.64 154.01 158.51 154.71 159.49 154.60 C 160.46 154.50 161.16 153.62 161.06 152.65 L 160.95 151.70 C 160.85 150.73 159.97 150.02 159.00 150.13 C 158.02 150.24 157.32 151.11 157.43 152.09 Z M 157.54 152.97 L 157.61 153.88 C 157.68 154.85 158.52 155.58 159.49 155.51 C 160.46 155.44 161.19 154.60 161.12 153.63 L 161.05 152.71 C 160.98 151.74 160.14 151.01 159.17 151.08 C 158.20 151.15 157.47 152.00 157.54 152.97 Z M 157.62 153.83 L 157.66 154.82 C 157.70 155.78 158.52 156.53 159.48 156.49 C 160.45 156.44 161.19 155.63 161.15 154.66 L 161.11 153.68 C 161.06 152.72 160.25 151.97 159.28 152.01 C 158.32 152.05 157.57 152.87 157.62 153.83 Z M 157.67 154.79 L 157.70 155.86 C 157.72 156.82 158.52 157.58 159.48 157.55 C 160.43 157.53 161.19 156.73 161.17 155.77 L 161.14 154.70 C 161.11 153.74 160.32 152.98 159.36 153.01 C 158.40 153.03 157.65 153.83 157.67 154.79 Z M 157.71 155.84 L 157.73 156.89 C 157.74 157.84 158.52 158.60 159.47 158.59 C 160.42 158.57 161.18 157.79 161.17 156.84 L 161.15 155.79 C 161.14 154.84 160.36 154.08 159.41 154.10 C 158.46 154.11 157.70 154.89 157.71 155.84 Z M 157.73 156.87 L 157.74 157.83 C 157.74 158.78 158.51 159.54 159.45 159.54 C 160.40 159.54 161.16 158.77 161.16 157.82 L 161.16 156.86 C 161.16 155.91 160.39 155.15 159.44 155.15 C 158.50 155.15 157.73 155.92 157.73 156.87 Z M 157.75 157.80 L 157.73 158.80 C 157.71 159.74 158.46 160.52 159.40 160.54 C 160.34 160.55 161.12 159.80 161.14 158.86 L 161.15 157.86 C 161.17 156.92 160.42 156.14 159.48 156.12 C 158.54 156.11 157.76 156.86 157.75 157.80 Z M 157.74 158.75 L 157.69 159.78 C 157.64 160.71 158.37 161.51 159.30 161.55 C 160.24 161.59 161.03 160.87 161.08 159.94 L 161.13 158.91 C 161.17 157.98 160.45 157.18 159.51 157.14 C 158.58 157.09 157.78 157.81 157.74 158.75 Z M 157.70 159.71 L 157.61 160.73 C 157.53 161.66 158.21 162.48 159.14 162.56 C 160.07 162.64 160.89 161.96 160.97 161.03 L 161.06 160.00 C 161.15 159.08 160.46 158.26 159.53 158.17 C 158.60 158.09 157.78 158.78 157.70 159.71 Z M 157.63 160.64 L 157.48 161.65 C 157.35 162.57 157.99 163.42 158.91 163.55 C 159.83 163.68 160.68 163.05 160.81 162.13 L 160.95 161.12 C 161.09 160.20 160.45 159.35 159.53 159.22 C 158.61 159.09 157.76 159.73 157.63 160.64 Z M 157.51 161.54 L 157.28 162.62 C 157.09 163.52 157.67 164.41 158.57 164.60 C 159.47 164.79 160.36 164.22 160.55 163.31 L 160.78 162.24 C 160.98 161.34 160.40 160.45 159.50 160.25 C 158.59 160.06 157.71 160.64 157.51 161.54 Z M 157.32 162.51 L 157.03 163.52 C 156.77 164.41 157.29 165.33 158.17 165.58 C 159.05 165.83 159.97 165.32 160.23 164.44 L 160.52 163.42 C 160.77 162.54 160.26 161.62 159.38 161.37 C 158.49 161.11 157.57 161.62 157.32 162.51 Z M 157.07 163.43 L 156.73 164.38 C 156.43 165.24 156.88 166.19 157.74 166.49 C 158.61 166.79 159.55 166.34 159.86 165.48 L 160.19 164.53 C 160.49 163.67 160.04 162.72 159.18 162.42 C 158.32 162.12 157.37 162.57 157.07 163.43 Z M 156.77 164.30 L 156.41 165.17 C 156.06 166.01 156.46 166.97 157.30 167.32 C 158.14 167.67 159.11 167.27 159.46 166.43 L 159.82 165.56 C 160.17 164.72 159.77 163.75 158.92 163.41 C 158.08 163.06 157.12 163.46 156.77 164.30 Z M 156.45 165.09 L 156.05 165.93 C 155.67 166.75 156.02 167.73 156.83 168.12 C 157.65 168.50 158.63 168.16 159.02 167.34 L 159.42 166.50 C 159.81 165.68 159.46 164.70 158.64 164.31 C 157.82 163.92 156.84 164.27 156.45 165.09 Z M 156.11 165.84 L 155.58 166.79 C 155.14 167.58 155.42 168.58 156.21 169.02 C 157.00 169.46 158.00 169.17 158.44 168.38 L 158.97 167.43 C 159.41 166.64 159.12 165.64 158.33 165.20 C 157.54 164.76 156.55 165.05 156.11 165.84 Z M 155.67 166.65 L 155.11 167.45 C 154.59 168.19 154.77 169.21 155.51 169.73 C 156.25 170.25 157.27 170.07 157.79 169.32 L 158.35 168.53 C 158.87 167.79 158.69 166.77 157.95 166.25 C 157.21 165.73 156.19 165.91 155.67 166.65 Z M 155.24 167.28 L 154.62 167.95 C 154.01 168.62 154.05 169.65 154.72 170.26 C 155.38 170.88 156.42 170.83 157.03 170.17 L 157.65 169.49 C 158.27 168.83 158.22 167.79 157.56 167.18 C 156.89 166.57 155.86 166.61 155.24 167.28 Z M 154.79 167.79 L 154.05 168.40 C 153.35 168.97 153.25 170.00 153.82 170.70 C 154.39 171.40 155.42 171.51 156.12 170.93 L 156.86 170.33 C 157.56 169.76 157.67 168.72 157.09 168.02 C 156.52 167.32 155.49 167.22 154.79 167.79 Z M 154.19 168.30 L 153.36 168.84 C 152.60 169.34 152.39 170.35 152.88 171.11 C 153.38 171.86 154.39 172.07 155.15 171.58 L 155.98 171.04 C 156.74 170.54 156.95 169.53 156.46 168.77 C 155.96 168.01 154.95 167.80 154.19 168.30 Z M 153.44 168.79 L 152.56 169.29 C 151.77 169.74 151.50 170.74 151.95 171.53 C 152.40 172.31 153.40 172.58 154.18 172.14 L 155.07 171.63 C 155.85 171.18 156.12 170.18 155.68 169.40 C 155.23 168.61 154.23 168.34 153.44 168.79 Z M 152.58 169.28 L 152.18 169.50 C 151.39 169.93 151.10 170.93 151.53 171.72 C 151.96 172.52 152.96 172.81 153.75 172.37 L 154.16 172.15 C 154.95 171.72 155.24 170.72 154.81 169.93 C 154.37 169.14 153.38 168.84 152.58 169.28 Z"
      fill="black"
      fill-rule="nonzero" /><path d="M 139.59 158.91 L 140.42 158.56 C 141.33 158.19 141.75 157.15 141.37 156.24 C 141.00 155.34 139.95 154.91 139.05 155.29 L 138.22 155.63 C 137.32 156.01 136.89 157.05 137.27 157.96 C 137.65 158.86 138.69 159.29 139.59 158.91 Z M 140.39 158.59 L 141.26 158.25 C 142.18 157.89 142.63 156.85 142.27 155.93 C 141.91 155.01 140.87 154.55 139.95 154.92 L 139.08 155.26 C 138.16 155.62 137.71 156.66 138.07 157.58 C 138.43 158.50 139.47 158.96 140.39 158.59 Z M 141.20 158.29 L 142.15 157.96 C 143.09 157.64 143.59 156.60 143.26 155.66 C 142.94 154.72 141.91 154.22 140.96 154.55 L 140.01 154.88 C 139.07 155.20 138.57 156.23 138.90 157.18 C 139.22 158.12 140.25 158.62 141.20 158.29 Z M 142.07 158.01 L 143.14 157.69 C 144.11 157.41 144.66 156.40 144.38 155.43 C 144.10 154.46 143.09 153.91 142.12 154.19 L 141.04 154.50 C 140.08 154.79 139.52 155.80 139.80 156.77 C 140.09 157.73 141.10 158.29 142.07 158.01 Z M 143.06 157.72 L 144.03 157.48 C 145.01 157.24 145.61 156.25 145.38 155.27 C 145.14 154.29 144.15 153.69 143.17 153.93 L 142.20 154.16 C 141.22 154.40 140.62 155.39 140.85 156.37 C 141.09 157.35 142.08 157.95 143.06 157.72 Z M 143.98 157.48 L 144.96 157.27 C 145.94 157.06 146.56 156.09 146.35 155.11 C 146.14 154.13 145.18 153.51 144.20 153.72 L 143.22 153.93 C 142.24 154.14 141.62 155.11 141.83 156.08 C 142.04 157.06 143.00 157.69 143.98 157.48 Z M 144.93 157.26 L 145.95 157.05 C 146.92 156.86 147.55 155.91 147.36 154.94 C 147.16 153.97 146.22 153.33 145.24 153.53 L 144.23 153.73 C 143.25 153.93 142.62 154.87 142.82 155.85 C 143.01 156.82 143.96 157.45 144.93 157.26 Z M 145.94 157.04 L 146.95 156.84 C 147.92 156.65 148.55 155.72 148.36 154.75 C 148.17 153.79 147.24 153.16 146.27 153.35 L 145.25 153.54 C 144.29 153.73 143.66 154.67 143.85 155.63 C 144.04 156.60 144.97 157.23 145.94 157.04 Z M 146.96 156.82 L 147.95 156.62 C 148.90 156.43 149.52 155.50 149.33 154.55 C 149.14 153.59 148.21 152.98 147.26 153.17 L 146.27 153.36 C 145.31 153.56 144.69 154.48 144.89 155.44 C 145.08 156.39 146.01 157.01 146.96 156.82 Z M 147.97 156.60 L 148.94 156.39 C 149.88 156.18 150.48 155.25 150.28 154.31 C 150.07 153.37 149.15 152.77 148.20 152.98 L 147.23 153.19 C 146.29 153.39 145.69 154.32 145.90 155.26 C 146.10 156.20 147.03 156.80 147.97 156.60 Z M 148.99 156.36 L 150.08 156.08 C 151.00 155.85 151.57 154.92 151.34 154.00 C 151.11 153.07 150.17 152.51 149.25 152.74 L 148.16 153.01 C 147.24 153.24 146.67 154.17 146.90 155.10 C 147.13 156.02 148.07 156.58 148.99 156.36 Z M 150.13 156.05 L 151.10 155.77 C 152.00 155.51 152.53 154.57 152.27 153.67 C 152.02 152.77 151.08 152.25 150.17 152.50 L 149.20 152.78 C 148.30 153.03 147.77 153.97 148.03 154.88 C 148.29 155.78 149.23 156.30 150.13 156.05 Z M 151.14 155.73 L 152.03 155.45 C 152.91 155.18 153.41 154.24 153.13 153.36 C 152.85 152.47 151.91 151.98 151.03 152.26 L 150.14 152.54 C 149.25 152.81 148.76 153.75 149.04 154.64 C 149.32 155.52 150.26 156.01 151.14 155.73 Z M 152.05 155.42 L 152.90 155.14 C 153.77 154.86 154.24 153.92 153.95 153.06 C 153.67 152.19 152.73 151.72 151.87 152.01 L 151.01 152.29 C 150.15 152.57 149.68 153.51 149.96 154.37 C 150.25 155.24 151.18 155.71 152.05 155.42 Z M 152.90 155.13 L 152.95 155.11 C 153.81 154.83 154.27 153.90 153.99 153.04 C 153.70 152.18 152.78 151.72 151.92 152.00 L 151.87 152.02 C 151.01 152.31 150.54 153.23 150.83 154.09 C 151.12 154.95 152.04 155.41 152.90 155.13 Z"
      fill="black"
      fill-rule="nonzero" /><path d="M 135.29 172.33 L 136.23 172.66 C 137.15 172.98 138.15 172.49 138.46 171.57 C 138.78 170.65 138.29 169.65 137.37 169.33 L 136.43 169.01 C 135.51 168.69 134.51 169.18 134.20 170.10 C 133.88 171.02 134.37 172.02 135.29 172.33 Z M 136.41 172.71 L 137.37 172.93 C 138.31 173.15 139.26 172.56 139.48 171.62 C 139.70 170.67 139.11 169.73 138.16 169.51 L 137.20 169.28 C 136.25 169.07 135.31 169.65 135.09 170.60 C 134.87 171.55 135.46 172.49 136.41 172.71 Z M 137.73 172.98 L 138.73 173.00 C 139.70 173.01 140.50 172.24 140.52 171.27 C 140.54 170.30 139.76 169.50 138.79 169.48 L 137.80 169.46 C 136.82 169.44 136.02 170.22 136.01 171.19 C 135.99 172.16 136.76 172.96 137.73 172.98 Z M 139.16 172.95 L 140.02 172.75 C 140.97 172.53 141.56 171.58 141.33 170.64 C 141.11 169.69 140.17 169.11 139.23 169.33 L 138.36 169.53 C 137.42 169.75 136.83 170.69 137.05 171.64 C 137.27 172.58 138.22 173.17 139.16 172.95 Z M 140.30 172.65 L 141.18 172.28 C 142.07 171.90 142.49 170.88 142.12 169.99 C 141.74 169.10 140.72 168.68 139.83 169.05 L 138.95 169.42 C 138.06 169.80 137.64 170.82 138.01 171.71 C 138.39 172.61 139.41 173.02 140.30 172.65 Z M 141.34 172.20 L 142.26 171.69 C 143.10 171.23 143.41 170.17 142.95 169.33 C 142.49 168.48 141.43 168.17 140.58 168.64 L 139.67 169.14 C 138.82 169.60 138.51 170.66 138.98 171.50 C 139.44 172.35 140.50 172.66 141.34 172.20 Z M 142.34 171.64 L 143.28 171.05 C 144.09 170.55 144.34 169.48 143.83 168.66 C 143.33 167.85 142.26 167.60 141.44 168.10 L 140.50 168.69 C 139.69 169.20 139.44 170.27 139.95 171.08 C 140.45 171.90 141.52 172.15 142.34 171.64 Z M 143.31 171.02 L 144.10 170.50 C 144.90 169.98 145.12 168.91 144.60 168.11 C 144.07 167.31 143.00 167.09 142.20 167.61 L 141.41 168.13 C 140.61 168.66 140.39 169.73 140.91 170.53 C 141.44 171.33 142.51 171.55 143.31 171.02 Z M 144.12 170.48 L 144.93 169.93 C 145.72 169.40 145.92 168.33 145.39 167.54 C 144.85 166.75 143.78 166.55 143.00 167.08 L 142.18 167.64 C 141.40 168.17 141.19 169.24 141.73 170.03 C 142.26 170.81 143.33 171.02 144.12 170.48 Z M 144.94 169.91 L 145.77 169.33 C 146.55 168.79 146.73 167.72 146.19 166.95 C 145.65 166.17 144.58 165.98 143.81 166.53 L 142.98 167.11 C 142.21 167.65 142.02 168.71 142.56 169.49 C 143.10 170.26 144.17 170.45 144.94 169.91 Z M 145.78 169.31 L 146.62 168.71 C 147.39 168.16 147.56 167.10 147.01 166.33 C 146.46 165.57 145.40 165.40 144.64 165.94 L 143.80 166.55 C 143.03 167.09 142.86 168.16 143.41 168.92 C 143.96 169.69 145.02 169.86 145.78 169.31 Z M 146.63 168.69 L 147.46 168.08 C 148.21 167.53 148.38 166.47 147.82 165.72 C 147.27 164.96 146.21 164.80 145.46 165.35 L 144.63 165.96 C 143.87 166.52 143.71 167.58 144.26 168.33 C 144.82 169.08 145.88 169.25 146.63 168.69 Z M 147.47 168.07 L 148.26 167.47 C 149.00 166.91 149.15 165.86 148.60 165.11 C 148.04 164.37 146.98 164.22 146.24 164.78 L 145.45 165.37 C 144.70 165.93 144.55 166.98 145.11 167.73 C 145.67 168.47 146.72 168.62 147.47 168.07 Z M 148.27 167.46 L 149.06 166.85 C 149.80 166.29 149.93 165.23 149.37 164.50 C 148.81 163.76 147.76 163.62 147.02 164.19 L 146.23 164.79 C 145.49 165.36 145.35 166.41 145.92 167.14 C 146.48 167.88 147.53 168.02 148.27 167.46 Z M 149.07 166.83 L 149.86 166.21 C 150.59 165.64 150.71 164.59 150.14 163.87 C 149.57 163.14 148.53 163.02 147.80 163.59 L 147.01 164.20 C 146.29 164.77 146.16 165.82 146.73 166.55 C 147.30 167.27 148.34 167.40 149.07 166.83 Z M 149.87 166.19 L 150.66 165.56 C 151.37 164.99 151.48 163.94 150.91 163.23 C 150.34 162.51 149.29 162.40 148.58 162.97 L 147.79 163.60 C 147.08 164.18 146.96 165.22 147.54 165.94 C 148.11 166.65 149.16 166.77 149.87 166.19 Z M 150.67 165.54 L 151.45 164.90 C 152.15 164.32 152.25 163.27 151.67 162.57 C 151.09 161.87 150.05 161.77 149.34 162.35 L 148.56 162.99 C 147.86 163.57 147.76 164.62 148.34 165.32 C 148.92 166.02 149.96 166.12 150.67 165.54 Z M 151.46 164.88 L 152.24 164.22 C 152.93 163.63 153.01 162.59 152.43 161.90 C 151.84 161.20 150.80 161.12 150.10 161.71 L 149.33 162.37 C 148.63 162.96 148.55 164.00 149.14 164.69 C 149.73 165.38 150.77 165.47 151.46 164.88 Z M 152.25 164.20 L 153.01 163.54 C 153.70 162.94 153.77 161.90 153.17 161.22 C 152.57 160.53 151.53 160.46 150.85 161.06 L 150.09 161.73 C 149.40 162.33 149.33 163.37 149.93 164.05 C 150.53 164.73 151.57 164.80 152.25 164.20 Z M 153.03 163.52 L 153.78 162.85 C 154.45 162.24 154.50 161.20 153.89 160.53 C 153.28 159.85 152.25 159.80 151.57 160.41 L 150.83 161.08 C 150.16 161.69 150.10 162.73 150.71 163.40 C 151.32 164.07 152.36 164.13 153.03 163.52 Z M 153.79 162.83 L 154.52 162.15 C 155.18 161.53 155.22 160.49 154.60 159.83 C 153.98 159.17 152.94 159.13 152.28 159.75 L 151.55 160.43 C 150.89 161.05 150.86 162.08 151.47 162.75 C 152.09 163.41 153.13 163.45 153.79 162.83 Z M 154.54 162.13 L 155.24 161.45 C 155.90 160.82 155.91 159.78 155.28 159.13 C 154.66 158.48 153.62 158.46 152.97 159.09 L 152.26 159.77 C 151.61 160.40 151.59 161.44 152.22 162.09 C 152.85 162.74 153.89 162.76 154.54 162.13 Z M 155.27 161.42 L 156.03 160.65 C 156.67 160.01 156.66 158.98 156.02 158.34 C 155.38 157.70 154.34 157.70 153.71 158.35 L 152.94 159.11 C 152.31 159.76 152.31 160.79 152.95 161.43 C 153.59 162.07 154.63 162.06 155.27 161.42 Z M 156.06 160.62 L 156.78 159.87 C 157.40 159.21 157.37 158.17 156.71 157.55 C 156.05 156.93 155.02 156.96 154.40 157.62 L 153.68 158.37 C 153.06 159.03 153.09 160.07 153.74 160.69 C 154.40 161.31 155.44 161.28 156.06 160.62 Z M 156.81 159.83 L 157.47 159.09 C 158.07 158.42 158.01 157.38 157.34 156.78 C 156.66 156.18 155.63 156.24 155.02 156.91 L 154.36 157.65 C 153.76 158.33 153.82 159.36 154.50 159.96 C 155.17 160.56 156.21 160.51 156.81 159.83 Z M 157.51 159.04 L 158.10 158.33 C 158.67 157.64 158.58 156.60 157.88 156.03 C 157.18 155.45 156.15 155.55 155.58 156.24 L 154.99 156.96 C 154.41 157.65 154.51 158.68 155.20 159.26 C 155.90 159.84 156.93 159.74 157.51 159.04 Z M 158.15 158.27 L 158.76 157.45 C 159.30 156.72 159.15 155.70 158.42 155.16 C 157.70 154.62 156.67 154.77 156.13 155.49 L 155.52 156.31 C 154.98 157.03 155.13 158.06 155.86 158.60 C 156.58 159.14 157.61 158.99 158.15 158.27 Z M 158.82 157.36 L 159.38 156.50 C 159.87 155.75 159.66 154.73 158.90 154.24 C 158.15 153.74 157.13 153.96 156.64 154.71 L 156.08 155.57 C 155.58 156.33 155.79 157.35 156.55 157.84 C 157.31 158.33 158.32 158.12 158.82 157.36 Z M 159.42 156.43 L 159.90 155.61 C 160.36 154.83 160.09 153.83 159.31 153.37 C 158.53 152.92 157.53 153.18 157.07 153.96 L 156.59 154.78 C 156.14 155.57 156.40 156.57 157.18 157.02 C 157.96 157.48 158.97 157.21 159.42 156.43 Z M 159.92 155.58 L 160.23 155.01 C 160.67 154.22 160.38 153.23 159.59 152.79 C 158.80 152.35 157.81 152.64 157.37 153.43 L 157.06 153.99 C 156.62 154.78 156.90 155.78 157.70 156.22 C 158.49 156.66 159.48 156.37 159.92 155.58 Z"
      fill="black"
      fill-rule="nonzero" /><path d="M 145.70 145.52 L 144.91 146.24 C 144.21 146.89 144.16 147.98 144.81 148.68 C 145.45 149.38 146.55 149.43 147.25 148.78 L 148.03 148.06 C 148.74 147.42 148.78 146.33 148.14 145.62 C 147.49 144.92 146.40 144.88 145.70 145.52 Z M 144.80 146.38 L 144.14 147.13 C 143.51 147.84 143.58 148.92 144.29 149.55 C 145.00 150.17 146.08 150.10 146.70 149.39 L 147.36 148.64 C 147.99 147.94 147.92 146.86 147.21 146.23 C 146.50 145.61 145.42 145.67 144.80 146.38 Z M 143.91 147.49 L 143.49 148.30 C 143.07 149.13 143.39 150.15 144.22 150.58 C 145.06 151.01 146.08 150.68 146.50 149.85 L 146.92 149.04 C 147.35 148.21 147.02 147.19 146.19 146.76 C 145.36 146.33 144.34 146.66 143.91 147.49 Z M 143.33 148.92 L 143.24 149.83 C 143.16 150.75 143.83 151.57 144.75 151.66 C 145.67 151.75 146.49 151.07 146.58 150.15 L 146.67 149.24 C 146.76 148.31 146.08 147.50 145.16 147.41 C 144.24 147.32 143.42 148.00 143.33 148.92 Z M 143.29 150.34 L 143.50 151.31 C 143.69 152.21 144.57 152.78 145.47 152.59 C 146.36 152.40 146.93 151.52 146.74 150.62 L 146.54 149.65 C 146.34 148.75 145.46 148.18 144.57 148.37 C 143.67 148.56 143.10 149.44 143.29 150.34 Z M 143.60 151.60 L 144.01 152.58 C 144.36 153.42 145.32 153.82 146.16 153.47 C 147.00 153.12 147.40 152.15 147.05 151.32 L 146.64 150.34 C 146.29 149.50 145.33 149.10 144.49 149.45 C 143.65 149.80 143.25 150.76 143.60 151.60 Z M 144.09 152.73 L 144.54 153.56 C 144.97 154.36 145.97 154.65 146.76 154.22 C 147.56 153.79 147.85 152.80 147.42 152.01 L 146.97 151.17 C 146.54 150.37 145.54 150.08 144.75 150.51 C 143.95 150.94 143.66 151.93 144.09 152.73 Z M 144.58 153.64 L 145.10 154.49 C 145.57 155.26 146.58 155.50 147.35 155.03 C 148.12 154.56 148.37 153.55 147.90 152.78 L 147.38 151.93 C 146.91 151.16 145.90 150.92 145.13 151.39 C 144.36 151.86 144.11 152.87 144.58 153.64 Z M 145.12 154.51 L 145.67 155.39 C 146.16 156.15 147.17 156.38 147.93 155.89 C 148.70 155.41 148.92 154.40 148.44 153.63 L 147.88 152.76 C 147.40 151.99 146.39 151.77 145.62 152.25 C 144.86 152.74 144.63 153.75 145.12 154.51 Z M 145.67 155.37 L 146.21 156.25 C 146.69 157.02 147.69 157.25 148.46 156.78 C 149.23 156.30 149.47 155.29 148.99 154.52 L 148.45 153.65 C 147.97 152.88 146.96 152.64 146.19 153.12 C 145.42 153.60 145.19 154.61 145.67 155.37 Z M 146.19 156.22 L 146.71 157.10 C 147.16 157.88 148.17 158.14 148.95 157.68 C 149.73 157.22 149.99 156.22 149.53 155.44 L 149.01 154.56 C 148.55 153.78 147.55 153.52 146.77 153.98 C 145.99 154.43 145.73 155.44 146.19 156.22 Z M 146.68 157.05 L 147.17 157.94 C 147.60 158.73 148.60 159.02 149.39 158.59 C 150.18 158.15 150.47 157.16 150.04 156.36 L 149.55 155.48 C 149.12 154.69 148.12 154.40 147.33 154.83 C 146.54 155.27 146.25 156.26 146.68 157.05 Z M 147.14 157.88 L 147.57 158.75 C 147.97 159.56 148.95 159.89 149.76 159.49 C 150.57 159.08 150.90 158.10 150.50 157.29 L 150.07 156.42 C 149.67 155.61 148.68 155.28 147.87 155.69 C 147.06 156.09 146.73 157.07 147.14 157.88 Z M 147.52 158.66 L 147.92 159.62 C 148.28 160.46 149.25 160.84 150.08 160.49 C 150.92 160.13 151.31 159.17 150.95 158.33 L 150.55 157.38 C 150.19 156.54 149.23 156.15 148.39 156.51 C 147.55 156.86 147.16 157.83 147.52 158.66 Z M 147.86 159.51 L 148.18 160.45 C 148.47 161.32 149.42 161.79 150.29 161.49 C 151.16 161.20 151.63 160.26 151.34 159.38 L 151.02 158.44 C 150.72 157.57 149.78 157.10 148.91 157.39 C 148.03 157.69 147.57 158.63 147.86 159.51 Z M 148.12 160.32 L 148.35 161.26 C 148.57 162.17 149.48 162.72 150.39 162.50 C 151.29 162.28 151.85 161.36 151.63 160.46 L 151.40 159.51 C 151.17 158.61 150.26 158.05 149.35 158.28 C 148.45 158.50 147.90 159.41 148.12 160.32 Z M 148.30 161.13 L 148.45 162.05 C 148.59 162.99 149.47 163.62 150.40 163.47 C 151.34 163.32 151.97 162.45 151.82 161.51 L 151.68 160.59 C 151.53 159.66 150.65 159.02 149.72 159.17 C 148.79 159.32 148.15 160.20 148.30 161.13 Z M 148.41 161.94 L 148.49 162.89 C 148.58 163.85 149.43 164.55 150.38 164.46 C 151.34 164.37 152.04 163.53 151.95 162.57 L 151.86 161.62 C 151.77 160.67 150.93 159.97 149.98 160.06 C 149.02 160.14 148.32 160.99 148.41 161.94 Z M 148.46 162.82 L 148.51 163.83 C 148.56 164.80 149.38 165.55 150.35 165.51 C 151.32 165.46 152.07 164.64 152.03 163.67 L 151.98 162.65 C 151.93 161.68 151.11 160.93 150.14 160.97 C 149.17 161.02 148.42 161.84 148.46 162.82 Z M 148.49 163.79 L 148.51 164.86 C 148.53 165.84 149.35 166.62 150.33 166.60 C 151.32 166.58 152.10 165.76 152.08 164.78 L 152.05 163.71 C 152.03 162.73 151.22 161.94 150.23 161.97 C 149.25 161.99 148.47 162.80 148.49 163.79 Z M 148.49 164.83 L 148.50 165.78 C 148.51 166.78 149.32 167.58 150.32 167.57 C 151.31 167.56 152.11 166.75 152.10 165.75 L 152.09 164.80 C 152.08 163.81 151.27 163.01 150.28 163.02 C 149.28 163.03 148.49 163.84 148.49 164.83 Z M 148.49 165.75 L 148.49 166.75 C 148.48 167.75 149.28 168.56 150.28 168.57 C 151.28 168.58 152.09 167.78 152.10 166.78 L 152.11 165.78 C 152.12 164.78 151.31 163.97 150.32 163.96 C 149.32 163.95 148.50 164.75 148.49 165.75 Z M 148.48 166.71 L 148.45 167.73 C 148.42 168.74 149.20 169.57 150.21 169.60 C 151.21 169.64 152.05 168.85 152.08 167.85 L 152.11 166.82 C 152.14 165.82 151.35 164.98 150.35 164.95 C 149.35 164.92 148.51 165.70 148.48 166.71 Z M 148.44 167.68 L 148.38 168.71 C 148.31 169.72 149.08 170.58 150.09 170.64 C 151.09 170.71 151.96 169.94 152.02 168.93 L 152.08 167.90 C 152.15 166.89 151.38 166.03 150.37 165.97 C 149.37 165.90 148.50 166.67 148.44 167.68 Z M 148.38 168.64 L 148.27 169.69 C 148.17 170.69 148.90 171.59 149.91 171.69 C 150.92 171.79 151.81 171.06 151.92 170.05 L 152.02 169.01 C 152.12 168.00 151.39 167.10 150.38 167.00 C 149.38 166.90 148.48 167.63 148.38 168.64 Z M 148.28 169.61 L 148.13 170.64 C 147.99 171.64 148.69 172.57 149.70 172.71 C 150.70 172.85 151.62 172.15 151.76 171.15 L 151.91 170.12 C 152.05 169.12 151.35 168.19 150.35 168.05 C 149.35 167.91 148.42 168.61 148.28 169.61 Z M 148.14 170.58 L 147.97 171.56 C 147.79 172.56 148.46 173.51 149.45 173.69 C 150.45 173.87 151.40 173.20 151.58 172.20 L 151.75 171.22 C 151.93 170.22 151.27 169.27 150.27 169.09 C 149.27 168.91 148.32 169.58 148.14 170.58 Z M 147.98 171.50 L 147.78 172.43 C 147.57 173.43 148.20 174.40 149.19 174.61 C 150.18 174.82 151.16 174.19 151.37 173.20 L 151.57 172.27 C 151.78 171.28 151.15 170.30 150.16 170.09 C 149.17 169.88 148.19 170.51 147.98 171.50 Z M 147.80 172.37 L 147.55 173.34 C 147.30 174.32 147.90 175.32 148.88 175.56 C 149.86 175.81 150.86 175.22 151.11 174.24 L 151.35 173.27 C 151.60 172.29 151.01 171.29 150.02 171.04 C 149.04 170.79 148.04 171.39 147.80 172.37 Z M 147.57 173.27 L 147.28 174.24 C 146.99 175.21 147.55 176.23 148.52 176.52 C 149.49 176.81 150.51 176.25 150.80 175.28 L 151.09 174.31 C 151.38 173.34 150.82 172.32 149.85 172.03 C 148.88 171.74 147.86 172.29 147.57 173.27 Z M 147.30 174.18 L 146.99 175.10 C 146.67 176.06 147.19 177.10 148.15 177.42 C 149.10 177.74 150.14 177.23 150.47 176.27 L 150.78 175.35 C 151.10 174.39 150.58 173.35 149.62 173.02 C 148.67 172.70 147.63 173.22 147.30 174.18 Z M 147.01 175.06 L 146.68 175.96 C 146.33 176.91 146.82 177.96 147.77 178.31 C 148.72 178.66 149.77 178.17 150.12 177.22 L 150.45 176.31 C 150.80 175.36 150.31 174.31 149.36 173.97 C 148.41 173.62 147.36 174.11 147.01 175.06 Z M 146.69 175.94 L 146.34 176.85 C 145.98 177.79 146.45 178.85 147.39 179.21 C 148.34 179.57 149.39 179.10 149.75 178.16 L 150.10 177.25 C 150.46 176.31 149.99 175.25 149.05 174.89 C 148.11 174.53 147.05 175.00 146.69 175.94 Z M 146.36 176.83 L 145.99 177.76 C 145.62 178.69 146.07 179.75 147.00 180.12 C 147.93 180.49 148.99 180.04 149.36 179.11 L 149.73 178.18 C 150.11 177.25 149.65 176.19 148.72 175.82 C 147.79 175.45 146.73 175.90 146.36 176.83 Z M 146.01 177.73 L 145.62 178.67 C 145.23 179.59 145.66 180.65 146.59 181.04 C 147.51 181.42 148.57 180.99 148.95 180.07 L 149.35 179.13 C 149.73 178.21 149.30 177.15 148.38 176.76 C 147.45 176.38 146.39 176.81 146.01 177.73 Z M 145.64 178.64 L 145.25 179.52 C 144.85 180.43 145.26 181.49 146.17 181.89 C 147.08 182.29 148.15 181.88 148.55 180.97 L 148.93 180.09 C 149.33 179.18 148.92 178.12 148.01 177.72 C 147.10 177.32 146.04 177.73 145.64 178.64 Z M 145.27 179.50 L 144.89 180.34 C 144.47 181.23 144.87 182.30 145.77 182.71 C 146.66 183.12 147.73 182.73 148.14 181.83 L 148.53 181.00 C 148.94 180.10 148.55 179.03 147.65 178.62 C 146.75 178.21 145.69 178.60 145.27 179.50 Z M 144.91 180.31 L 144.49 181.20 C 144.06 182.08 144.44 183.15 145.32 183.57 C 146.21 184.00 147.27 183.62 147.70 182.73 L 148.12 181.85 C 148.54 180.97 148.17 179.90 147.28 179.48 C 146.40 179.05 145.33 179.43 144.91 180.31 Z M 144.51 181.18 L 144.03 182.14 C 143.60 183.01 143.96 184.08 144.83 184.51 C 145.71 184.94 146.77 184.58 147.20 183.71 L 147.68 182.75 C 148.11 181.87 147.75 180.81 146.88 180.38 C 146.00 179.95 144.94 180.31 144.51 181.18 Z M 144.05 182.13 L 143.59 183.04 C 143.15 183.91 143.49 184.97 144.36 185.40 C 145.23 185.84 146.29 185.50 146.72 184.63 L 147.19 183.72 C 147.63 182.85 147.28 181.79 146.41 181.35 C 145.55 180.91 144.49 181.26 144.05 182.13 Z M 143.60 183.03 L 143.18 183.85 C 142.74 184.71 143.08 185.76 143.94 186.21 C 144.80 186.65 145.85 186.31 146.29 185.45 L 146.71 184.64 C 147.15 183.78 146.82 182.72 145.96 182.28 C 145.10 181.84 144.04 182.18 143.60 183.03 Z M 143.19 183.84 L 142.74 184.71 C 142.30 185.56 142.63 186.61 143.48 187.06 C 144.33 187.50 145.39 187.17 145.83 186.32 L 146.28 185.46 C 146.73 184.60 146.39 183.55 145.54 183.11 C 144.69 182.66 143.64 182.99 143.19 183.84 Z M 142.75 184.70 L 142.28 185.60 C 141.83 186.45 142.15 187.50 143.00 187.95 C 143.85 188.39 144.90 188.07 145.34 187.22 L 145.82 186.32 C 146.27 185.48 145.94 184.43 145.10 183.98 C 144.25 183.53 143.20 183.86 142.75 184.70 Z M 142.29 185.60 L 141.79 186.53 C 141.34 187.37 141.66 188.41 142.50 188.86 C 143.34 189.31 144.38 189.00 144.83 188.16 L 145.33 187.23 C 145.78 186.39 145.46 185.34 144.62 184.89 C 143.79 184.44 142.74 184.76 142.29 185.60 Z M 141.80 186.52 L 141.29 187.47 C 140.84 188.31 141.15 189.35 141.98 189.80 C 142.81 190.25 143.85 189.94 144.31 189.11 L 144.82 188.16 C 145.27 187.33 144.96 186.29 144.13 185.84 C 143.30 185.38 142.26 185.69 141.80 186.52 Z M 141.30 187.47 L 140.79 188.40 C 140.34 189.22 140.64 190.26 141.46 190.72 C 142.29 191.17 143.33 190.87 143.78 190.04 L 144.29 189.12 C 144.75 188.29 144.45 187.25 143.62 186.80 C 142.79 186.34 141.76 186.64 141.30 187.47 Z M 140.80 188.40 L 140.29 189.32 C 139.84 190.13 140.13 191.17 140.95 191.62 C 141.77 192.08 142.80 191.78 143.26 190.96 L 143.77 190.05 C 144.22 189.23 143.93 188.19 143.11 187.74 C 142.29 187.28 141.26 187.58 140.80 188.40 Z M 140.30 189.32 L 139.80 190.22 C 139.34 191.04 139.63 192.06 140.45 192.52 C 141.26 192.97 142.29 192.68 142.74 191.87 L 143.25 190.96 C 143.70 190.15 143.41 189.12 142.60 188.67 C 141.78 188.21 140.76 188.50 140.30 189.32 Z M 139.81 190.23 L 139.31 191.11 C 138.86 191.92 139.15 192.94 139.96 193.39 C 140.77 193.84 141.79 193.55 142.24 192.74 L 142.73 191.86 C 143.18 191.06 142.89 190.04 142.09 189.58 C 141.28 189.13 140.26 189.42 139.81 190.23 Z M 139.32 191.12 L 138.85 191.96 C 138.40 192.77 138.69 193.78 139.50 194.23 C 140.30 194.67 141.31 194.38 141.76 193.58 L 142.23 192.74 C 142.68 191.93 142.39 190.92 141.58 190.47 C 140.78 190.03 139.77 190.31 139.32 191.12 Z M 138.86 191.97 L 138.42 192.77 C 137.98 193.57 138.27 194.58 139.07 195.02 C 139.87 195.46 140.88 195.17 141.32 194.37 L 141.75 193.57 C 142.19 192.77 141.90 191.76 141.10 191.32 C 140.30 190.88 139.30 191.17 138.86 191.97 Z M 138.42 192.79 L 137.90 193.74 C 137.47 194.54 137.77 195.54 138.58 195.97 C 139.38 196.40 140.37 196.10 140.81 195.30 L 141.32 194.35 C 141.75 193.55 141.45 192.55 140.65 192.12 C 139.85 191.69 138.85 191.99 138.42 192.79 Z M 137.90 193.76 L 137.43 194.67 C 137.01 195.47 137.32 196.47 138.12 196.89 C 138.93 197.30 139.92 196.99 140.34 196.19 L 140.81 195.28 C 141.23 194.47 140.92 193.48 140.11 193.06 C 139.31 192.64 138.32 192.96 137.90 193.76 Z M 137.42 194.69 L 136.98 195.55 C 136.58 196.36 136.91 197.35 137.72 197.76 C 138.53 198.16 139.51 197.83 139.92 197.02 L 140.35 196.16 C 140.76 195.35 140.43 194.37 139.62 193.96 C 138.81 193.55 137.82 193.88 137.42 194.69 Z M 136.98 195.58 L 136.57 196.43 C 136.17 197.24 136.52 198.22 137.33 198.61 C 138.15 199.01 139.13 198.67 139.52 197.85 L 139.93 197.00 C 140.32 196.18 139.98 195.21 139.16 194.81 C 138.35 194.42 137.37 194.76 136.98 195.58 Z M 136.56 196.45 L 136.16 197.31 C 135.77 198.13 136.13 199.10 136.95 199.49 C 137.77 199.87 138.74 199.51 139.12 198.69 L 139.53 197.83 C 139.91 197.01 139.55 196.04 138.73 195.65 C 137.91 195.27 136.94 195.63 136.56 196.45 Z M 136.15 197.32 L 135.75 198.21 C 135.37 199.03 135.74 200.01 136.56 200.38 C 137.38 200.75 138.35 200.39 138.73 199.57 L 139.13 198.68 C 139.50 197.85 139.14 196.88 138.32 196.51 C 137.49 196.14 136.52 196.50 136.15 197.32 Z M 135.74 198.22 L 135.33 199.14 C 134.97 199.96 135.34 200.93 136.16 201.30 C 136.99 201.67 137.96 201.30 138.32 200.47 L 138.73 199.56 C 139.10 198.73 138.73 197.76 137.90 197.39 C 137.08 197.03 136.11 197.40 135.74 198.22 Z M 135.33 199.14 L 134.92 200.07 C 134.56 200.90 134.93 201.87 135.76 202.23 C 136.59 202.60 137.55 202.22 137.92 201.39 L 138.33 200.46 C 138.69 199.64 138.32 198.67 137.49 198.30 C 136.66 197.94 135.70 198.32 135.33 199.14 Z M 134.92 200.08 L 134.51 201.02 C 134.15 201.85 134.52 202.81 135.35 203.18 C 136.18 203.54 137.14 203.16 137.51 202.33 L 137.92 201.39 C 138.28 200.56 137.90 199.60 137.08 199.24 C 136.25 198.87 135.28 199.25 134.92 200.08 Z"
      fill="black"
      fill-rule="nonzero" /><path d="M 150.29 180.91 L 151.27 180.71 C 152.23 180.50 152.85 179.55 152.65 178.58 C 152.44 177.61 151.49 177.00 150.52 177.20 L 149.54 177.41 C 148.58 177.62 147.96 178.57 148.16 179.53 C 148.37 180.50 149.32 181.12 150.29 180.91 Z M 151.22 180.74 L 152.21 180.56 C 153.19 180.37 153.84 179.43 153.66 178.44 C 153.48 177.46 152.53 176.80 151.55 176.99 L 150.56 177.17 C 149.58 177.35 148.93 178.30 149.11 179.28 C 149.29 180.27 150.24 180.92 151.22 180.74 Z M 152.11 180.59 L 153.11 180.46 C 154.11 180.33 154.82 179.41 154.69 178.40 C 154.56 177.40 153.64 176.69 152.63 176.82 L 151.64 176.95 C 150.63 177.08 149.92 178.00 150.05 179.01 C 150.18 180.02 151.11 180.73 152.11 180.59 Z M 152.97 180.50 L 153.94 180.45 C 154.97 180.40 155.76 179.52 155.71 178.49 C 155.65 177.46 154.78 176.67 153.75 176.73 L 152.77 176.78 C 151.74 176.83 150.95 177.71 151.01 178.74 C 151.06 179.77 151.94 180.56 152.97 180.50 Z M 153.76 180.48 L 154.75 180.53 C 155.80 180.57 156.68 179.76 156.73 178.72 C 156.77 177.67 155.96 176.79 154.92 176.74 L 153.93 176.70 C 152.89 176.65 152.00 177.46 151.96 178.51 C 151.91 179.55 152.72 180.43 153.76 180.48 Z M 154.53 180.53 L 155.54 180.69 C 156.58 180.86 157.57 180.14 157.73 179.09 C 157.90 178.05 157.19 177.06 156.14 176.90 L 155.14 176.74 C 154.09 176.57 153.11 177.29 152.94 178.33 C 152.77 179.38 153.49 180.37 154.53 180.53 Z M 155.31 180.66 L 156.23 180.92 C 157.27 181.21 158.34 180.61 158.63 179.58 C 158.92 178.55 158.32 177.47 157.29 177.18 L 156.36 176.92 C 155.33 176.63 154.26 177.23 153.97 178.27 C 153.68 179.30 154.28 180.37 155.31 180.66 Z M 156.06 180.88 L 156.95 181.22 C 157.96 181.61 159.09 181.11 159.48 180.10 C 159.87 179.09 159.36 177.96 158.36 177.58 L 157.46 177.23 C 156.46 176.84 155.33 177.34 154.94 178.35 C 154.55 179.36 155.05 180.49 156.06 180.88 Z M 156.83 181.18 L 157.75 181.60 C 158.74 182.06 159.90 181.63 160.36 180.65 C 160.81 179.66 160.38 178.50 159.40 178.04 L 158.48 177.62 C 157.49 177.16 156.33 177.59 155.87 178.58 C 155.42 179.56 155.85 180.73 156.83 181.18 Z M 157.68 181.58 L 158.64 182.07 C 159.61 182.56 160.79 182.18 161.29 181.21 C 161.78 180.24 161.40 179.05 160.43 178.56 L 159.47 178.07 C 158.50 177.57 157.31 177.96 156.82 178.93 C 156.33 179.90 156.71 181.08 157.68 181.58 Z M 158.60 182.05 L 159.42 182.49 C 160.38 183.01 161.58 182.65 162.09 181.68 C 162.61 180.72 162.25 179.53 161.29 179.01 L 160.47 178.57 C 159.51 178.06 158.31 178.42 157.79 179.38 C 157.28 180.34 157.64 181.54 158.60 182.05 Z M 159.40 182.48 L 160.24 182.95 C 161.20 183.48 162.40 183.13 162.93 182.17 C 163.45 181.22 163.11 180.02 162.15 179.49 L 161.31 179.02 C 160.36 178.49 159.15 178.84 158.62 179.79 C 158.10 180.75 158.44 181.95 159.40 182.48 Z M 160.22 182.94 L 161.09 183.43 C 162.04 183.97 163.25 183.64 163.79 182.69 C 164.33 181.75 164.00 180.54 163.05 180.00 L 162.18 179.50 C 161.23 178.96 160.02 179.29 159.48 180.24 C 158.94 181.19 159.27 182.40 160.22 182.94 Z M 161.07 183.42 L 161.98 183.95 C 162.92 184.50 164.13 184.19 164.69 183.24 C 165.24 182.30 164.92 181.09 163.98 180.54 L 163.07 180.01 C 162.13 179.46 160.92 179.78 160.37 180.72 C 159.81 181.66 160.13 182.87 161.07 183.42 Z M 161.96 183.94 L 162.84 184.47 C 163.78 185.03 164.99 184.72 165.56 183.79 C 166.12 182.85 165.81 181.64 164.87 181.08 L 163.99 180.55 C 163.06 179.99 161.84 180.30 161.28 181.23 C 160.72 182.17 161.03 183.38 161.96 183.94 Z M 162.83 184.46 L 163.64 184.95 C 164.57 185.52 165.79 185.23 166.36 184.30 C 166.92 183.36 166.63 182.15 165.70 181.58 L 164.89 181.09 C 163.96 180.52 162.74 180.81 162.17 181.74 C 161.60 182.68 161.90 183.89 162.83 184.46 Z M 163.63 184.94 L 164.46 185.46 C 165.39 186.03 166.60 185.75 167.18 184.82 C 167.75 183.89 167.47 182.68 166.54 182.10 L 165.71 181.59 C 164.78 181.02 163.57 181.30 162.99 182.23 C 162.42 183.15 162.70 184.37 163.63 184.94 Z M 164.45 185.45 L 165.30 185.99 C 166.22 186.57 167.44 186.29 168.02 185.37 C 168.60 184.44 168.32 183.23 167.40 182.65 L 166.55 182.11 C 165.63 181.53 164.41 181.81 163.83 182.73 C 163.25 183.65 163.53 184.87 164.45 185.45 Z M 165.29 185.98 L 166.16 186.53 C 167.08 187.12 168.30 186.85 168.88 185.93 C 169.47 185.01 169.20 183.80 168.28 183.21 L 167.41 182.66 C 166.49 182.07 165.27 182.34 164.69 183.26 C 164.11 184.18 164.37 185.39 165.29 185.98 Z M 166.16 186.53 L 167.04 187.10 C 167.96 187.69 169.18 187.43 169.77 186.51 C 170.35 185.60 170.09 184.38 169.18 183.79 L 168.29 183.22 C 167.37 182.63 166.16 182.89 165.57 183.81 C 164.98 184.72 165.24 185.94 166.16 186.53 Z M 167.04 187.09 L 167.82 187.60 C 168.73 188.19 169.94 187.93 170.53 187.03 C 171.13 186.12 170.87 184.90 169.96 184.31 L 169.18 183.80 C 168.28 183.21 167.06 183.46 166.47 184.37 C 165.87 185.28 166.13 186.50 167.04 187.09 Z M 167.81 187.58 L 168.59 188.10 C 169.49 188.70 170.71 188.45 171.30 187.55 C 171.90 186.65 171.65 185.44 170.75 184.84 L 169.97 184.32 C 169.07 183.72 167.85 183.97 167.26 184.87 C 166.66 185.77 166.91 186.99 167.81 187.58 Z M 168.58 188.09 L 169.38 188.63 C 170.28 189.23 171.49 189.00 172.09 188.10 C 172.69 187.21 172.46 186.00 171.56 185.40 L 170.76 184.86 C 169.87 184.25 168.66 184.49 168.06 185.38 C 167.45 186.27 167.69 187.48 168.58 188.09 Z M 169.37 188.61 L 170.19 189.18 C 171.07 189.79 172.28 189.57 172.89 188.69 C 173.50 187.80 173.28 186.59 172.40 185.98 L 171.58 185.42 C 170.70 184.80 169.49 185.03 168.88 185.91 C 168.27 186.79 168.49 188.00 169.37 188.61 Z M 170.17 189.16 L 171.02 189.76 C 171.89 190.38 173.10 190.17 173.72 189.30 C 174.34 188.43 174.13 187.22 173.26 186.60 L 172.42 186.00 C 171.55 185.38 170.34 185.59 169.72 186.46 C 169.10 187.33 169.30 188.54 170.17 189.16 Z M 171.00 189.74 L 171.87 190.37 C 172.73 191.00 173.93 190.82 174.56 189.96 C 175.19 189.10 175.01 187.90 174.15 187.27 L 173.28 186.63 C 172.42 186.00 171.22 186.18 170.59 187.04 C 169.96 187.90 170.14 189.10 171.00 189.74 Z M 171.85 190.35 L 172.69 190.98 C 173.53 191.62 174.74 191.46 175.38 190.62 C 176.02 189.77 175.85 188.57 175.01 187.93 L 174.17 187.29 C 173.32 186.65 172.12 186.82 171.48 187.66 C 170.84 188.50 171.01 189.71 171.85 190.35 Z M 172.68 190.96 L 173.48 191.58 C 174.31 192.23 175.50 192.08 176.15 191.25 C 176.80 190.42 176.65 189.23 175.82 188.58 L 175.02 187.95 C 174.19 187.31 172.99 187.46 172.35 188.28 C 171.70 189.11 171.85 190.31 172.68 190.96 Z M 173.47 191.56 L 174.28 192.20 C 175.09 192.85 176.28 192.72 176.93 191.91 C 177.58 191.09 177.45 189.91 176.64 189.25 L 175.83 188.61 C 175.02 187.96 173.83 188.09 173.18 188.90 C 172.52 189.72 172.66 190.90 173.47 191.56 Z M 174.27 192.17 L 175.07 192.83 C 175.87 193.49 177.05 193.37 177.70 192.57 C 178.36 191.77 178.25 190.59 177.45 189.94 L 176.64 189.28 C 175.85 188.62 174.67 188.74 174.01 189.54 C 173.35 190.34 173.47 191.52 174.27 192.17 Z M 175.06 192.81 L 175.85 193.47 C 176.63 194.13 177.80 194.03 178.46 193.24 C 179.12 192.46 179.02 191.29 178.24 190.63 L 177.45 189.97 C 176.67 189.31 175.50 189.41 174.84 190.19 C 174.18 190.97 174.28 192.15 175.06 192.81 Z M 175.84 193.44 L 176.60 194.09 C 177.37 194.76 178.53 194.67 179.19 193.90 C 179.86 193.14 179.77 191.97 179.00 191.31 L 178.25 190.65 C 177.48 189.99 176.32 190.07 175.65 190.84 C 174.99 191.61 175.07 192.77 175.84 193.44 Z M 176.59 194.06 L 177.31 194.70 C 178.06 195.37 179.21 195.31 179.88 194.55 C 180.55 193.80 180.48 192.65 179.73 191.98 L 179.01 191.34 C 178.26 190.67 177.11 190.74 176.44 191.49 C 175.77 192.24 175.84 193.39 176.59 194.06 Z M 177.30 194.67 L 178.00 195.32 C 178.74 196.00 179.88 195.95 180.56 195.21 C 181.23 194.48 181.18 193.34 180.45 192.66 L 179.74 192.01 C 179.01 191.33 177.86 191.38 177.19 192.12 C 176.51 192.85 176.56 193.99 177.30 194.67 Z M 177.99 195.27 L 178.82 196.08 C 179.53 196.76 180.66 196.74 181.34 196.03 C 182.03 195.32 182.00 194.19 181.30 193.51 L 180.46 192.71 C 179.75 192.02 178.63 192.04 177.94 192.75 C 177.26 193.46 177.28 194.59 177.99 195.27 Z M 178.81 196.02 L 179.54 196.77 C 180.22 197.47 181.33 197.48 182.02 196.80 C 182.72 196.12 182.73 195.01 182.05 194.32 L 181.31 193.57 C 180.63 192.87 179.52 192.86 178.83 193.54 C 178.14 194.22 178.13 195.33 178.81 196.02 Z M 179.53 196.72 L 180.19 197.43 C 180.84 198.13 181.93 198.18 182.63 197.53 C 183.33 196.89 183.37 195.80 182.73 195.10 L 182.06 194.38 C 181.42 193.68 180.33 193.63 179.63 194.28 C 178.93 194.92 178.88 196.02 179.53 196.72 Z M 180.18 197.38 L 180.78 198.07 C 181.39 198.78 182.46 198.85 183.17 198.24 C 183.88 197.62 183.95 196.55 183.34 195.85 L 182.74 195.16 C 182.12 194.45 181.05 194.37 180.35 194.99 C 179.64 195.60 179.57 196.67 180.18 197.38 Z M 180.77 198.01 L 181.33 198.69 C 181.91 199.40 182.96 199.51 183.67 198.92 C 184.38 198.34 184.49 197.29 183.90 196.58 L 183.35 195.90 C 182.76 195.19 181.71 195.09 181.00 195.67 C 180.29 196.26 180.19 197.30 180.77 198.01 Z M 181.32 198.65 L 181.94 199.44 C 182.50 200.16 183.53 200.28 184.25 199.72 C 184.96 199.16 185.09 198.13 184.53 197.41 L 183.91 196.62 C 183.35 195.91 182.32 195.78 181.60 196.34 C 180.89 196.90 180.76 197.94 181.32 198.65 Z M 181.92 199.41 L 182.52 200.22 C 183.06 200.94 184.09 201.09 184.82 200.55 C 185.55 200.00 185.69 198.97 185.15 198.25 L 184.55 197.44 C 184.00 196.71 182.97 196.57 182.25 197.11 C 181.52 197.65 181.37 198.68 181.92 199.41 Z M 182.51 200.19 L 183.09 201.00 C 183.62 201.73 184.65 201.90 185.38 201.37 C 186.12 200.83 186.28 199.81 185.75 199.07 L 185.17 198.27 C 184.63 197.54 183.61 197.37 182.87 197.90 C 182.14 198.43 181.98 199.46 182.51 200.19 Z M 183.08 200.99 L 183.65 201.79 C 184.18 202.53 185.20 202.70 185.94 202.18 C 186.68 201.66 186.85 200.63 186.33 199.89 L 185.76 199.09 C 185.23 198.35 184.21 198.18 183.47 198.70 C 182.73 199.22 182.56 200.25 183.08 200.99 Z M 183.65 201.79 L 183.99 202.26 C 184.51 203.00 185.53 203.18 186.27 202.66 C 187.01 202.13 187.18 201.11 186.66 200.37 L 186.33 199.90 C 185.81 199.16 184.79 198.98 184.05 199.50 C 183.31 200.02 183.13 201.05 183.65 201.79 Z"
      fill="black"
      fill-rule="nonzero" /></svg>