<svg xmlns="http://www.w3.org/2000/svg" width="300" height="300" viewBox="0 0 300 300">
<path d="M 122.46 128.15 L 122.42 129.00 C 122.39 129.99 123.15 130.82 124.14 130.85 C 125.12 130.89 125.95 130.13 125.99 129.14 L 126.02 128.29 C 126.06 127.30 125.29 126.48 124.31 126.44 C 123.32 126.40 122.49 127.17 122.46 128.15 Z M 122.40 128.96 L 122.34 129.86 C 122.28 130.86 123.04 131.72 124.04 131.78 C 125.04 131.84 125.90 131.08 125.96 130.08 L 126.02 129.19 C 126.08 128.19 125.32 127.33 124.32 127.26 C 123.32 127.20 122.46 127.96 122.40 128.96 Z M 122.32 129.78 L 122.21 130.76 C 122.11 131.77 122.85 132.68 123.86 132.78 C 124.87 132.89 125.78 132.15 125.88 131.14 L 125.98 130.16 C 126.09 129.14 125.35 128.24 124.34 128.13 C 123.33 128.03 122.42 128.77 122.32 129.78 Z M 122.20 130.67 L 122.03 131.78 C 121.87 132.80 122.58 133.76 123.60 133.91 C 124.62 134.07 125.58 133.36 125.73 132.34 L 125.90 131.23 C 126.06 130.21 125.35 129.25 124.33 129.10 C 123.31 128.94 122.35 129.64 122.20 130.67 Z M 122.02 131.69 L 121.80 132.77 C 121.60 133.80 122.27 134.79 123.30 135.00 C 124.32 135.20 125.32 134.54 125.53 133.51 L 125.74 132.43 C 125.95 131.40 125.28 130.40 124.25 130.20 C 123.22 129.99 122.22 130.66 122.02 131.69 Z M 121.81 132.71 L 121.59 133.65 C 121.35 134.68 121.99 135.70 123.02 135.94 C 124.04 136.18 125.07 135.54 125.30 134.51 L 125.52 133.57 C 125.76 132.54 125.12 131.52 124.09 131.28 C 123.07 131.04 122.05 131.68 121.81 132.71 Z M 121.60 133.62 L 121.35 134.62 C 121.09 135.64 121.71 136.67 122.73 136.93 C 123.76 137.18 124.79 136.56 125.05 135.54 L 125.30 134.55 C 125.55 133.53 124.93 132.49 123.91 132.24 C 122.89 131.98 121.86 132.60 121.60 133.62 Z M 121.36 134.59 L 121.09 135.61 C 120.82 136.63 121.43 137.67 122.44 137.94 C 123.46 138.21 124.50 137.60 124.77 136.58 L 125.04 135.57 C 125.31 134.55 124.70 133.51 123.68 133.24 C 122.67 132.97 121.63 133.58 121.36 134.59 Z M 121.09 135.59 L 120.82 136.60 C 120.54 137.62 121.14 138.67 122.15 138.94 C 123.17 139.22 124.21 138.62 124.49 137.61 L 124.77 136.60 C 125.04 135.58 124.45 134.54 123.43 134.26 C 122.42 133.98 121.37 134.58 121.09 135.59 Z M 120.82 136.60 L 120.55 137.57 C 120.27 138.58 120.86 139.63 121.87 139.92 C 122.88 140.20 123.93 139.61 124.21 138.59 L 124.49 137.62 C 124.77 136.60 124.18 135.56 123.16 135.27 C 122.15 134.99 121.10 135.58 120.82 136.60 Z M 120.55 137.57 L 120.29 138.48 C 120.01 139.50 120.60 140.55 121.61 140.83 C 122.62 141.11 123.67 140.52 123.96 139.51 L 124.21 138.60 C 124.50 137.58 123.91 136.53 122.89 136.25 C 121.88 135.97 120.83 136.56 120.55 137.57 Z M 120.29 138.49 L 119.99 139.60 C 119.71 140.61 120.30 141.66 121.31 141.94 C 122.32 142.22 123.37 141.63 123.65 140.62 L 123.96 139.51 C 124.24 138.49 123.64 137.45 122.63 137.17 C 121.62 136.89 120.57 137.48 120.29 138.49 Z M 119.99 139.61 L 119.71 140.65 C 119.43 141.66 120.03 142.70 121.04 142.97 C 122.05 143.25 123.09 142.65 123.37 141.64 L 123.65 140.60 C 123.92 139.59 123.32 138.55 122.31 138.28 C 121.30 138.00 120.26 138.60 119.99 139.61 Z M 119.71 140.66 L 119.46 141.58 C 119.20 142.59 119.80 143.63 120.81 143.89 C 121.82 144.16 122.85 143.56 123.12 142.55 L 123.36 141.63 C 123.63 140.62 123.03 139.58 122.02 139.32 C 121.01 139.05 119.98 139.65 119.71 140.66 Z M 119.47 141.59 L 119.24 142.46 C 118.98 143.46 119.59 144.49 120.60 144.76 C 121.60 145.02 122.63 144.41 122.89 143.40 L 123.12 142.54 C 123.38 141.53 122.77 140.50 121.76 140.24 C 120.76 139.98 119.73 140.58 119.47 141.59 Z M 119.25 142.46 L 119.02 143.33 C 118.77 144.34 119.38 145.36 120.38 145.62 C 121.39 145.87 122.41 145.27 122.67 144.26 L 122.89 143.39 C 123.15 142.39 122.54 141.36 121.53 141.11 C 120.53 140.85 119.50 141.46 119.25 142.46 Z M 119.03 143.34 L 118.79 144.27 C 118.54 145.27 119.15 146.29 120.16 146.55 C 121.16 146.80 122.18 146.19 122.43 145.18 L 122.67 144.25 C 122.92 143.25 122.31 142.23 121.31 141.97 C 120.30 141.72 119.28 142.33 119.03 143.34 Z M 118.79 144.28 L 118.56 145.24 C 118.31 146.24 118.92 147.26 119.93 147.51 C 120.93 147.75 121.95 147.14 122.20 146.14 L 122.43 145.17 C 122.68 144.17 122.07 143.15 121.06 142.91 C 120.06 142.66 119.04 143.27 118.79 144.28 Z M 118.56 145.25 L 118.32 146.24 C 118.08 147.25 118.70 148.25 119.70 148.50 C 120.71 148.74 121.72 148.12 121.96 147.11 L 122.19 146.12 C 122.44 145.12 121.82 144.11 120.81 143.87 C 119.81 143.63 118.80 144.25 118.56 145.25 Z M 118.32 146.26 L 118.09 147.27 C 117.86 148.28 118.48 149.28 119.49 149.51 C 120.49 149.74 121.49 149.11 121.72 148.11 L 121.96 147.10 C 122.19 146.09 121.56 145.09 120.56 144.86 C 119.55 144.63 118.55 145.25 118.32 146.26 Z M 118.09 147.29 L 117.88 148.24 C 117.66 149.24 118.29 150.23 119.30 150.46 C 120.30 150.68 121.30 150.04 121.52 149.04 L 121.72 148.09 C 121.95 147.09 121.31 146.09 120.31 145.87 C 119.30 145.65 118.31 146.29 118.09 147.29 Z M 117.88 148.25 L 117.68 149.21 C 117.46 150.21 118.11 151.20 119.11 151.41 C 120.12 151.62 121.10 150.98 121.31 149.98 L 121.52 149.02 C 121.73 148.02 121.09 147.03 120.08 146.82 C 119.08 146.60 118.09 147.25 117.88 148.25 Z M 117.68 149.22 L 117.48 150.19 C 117.27 151.20 117.92 152.18 118.92 152.39 C 119.92 152.59 120.91 151.95 121.11 150.94 L 121.31 149.97 C 121.52 148.96 120.87 147.98 119.87 147.77 C 118.87 147.57 117.88 148.21 117.68 149.22 Z M 117.48 150.20 L 117.28 151.20 C 117.07 152.21 117.72 153.18 118.73 153.39 C 119.73 153.59 120.71 152.94 120.91 151.94 L 121.11 150.94 C 121.31 149.93 120.66 148.96 119.66 148.75 C 118.66 148.55 117.68 149.20 117.48 150.20 Z M 117.28 151.21 L 117.08 152.23 C 116.88 153.23 117.52 154.20 118.53 154.40 C 119.53 154.60 120.50 153.95 120.70 152.95 L 120.91 151.93 C 121.11 150.93 120.46 149.96 119.46 149.76 C 118.45 149.56 117.48 150.21 117.28 151.21 Z M 117.08 152.23 L 116.89 153.20 C 116.69 154.20 117.34 155.17 118.33 155.37 C 119.33 155.57 120.30 154.92 120.50 153.92 L 120.70 152.95 C 120.90 151.95 120.25 150.98 119.25 150.78 C 118.25 150.58 117.28 151.23 117.08 152.23 Z M 116.89 153.20 L 116.70 154.19 C 116.50 155.19 117.15 156.15 118.14 156.35 C 119.13 156.55 120.10 155.90 120.30 154.91 L 120.49 153.92 C 120.69 152.93 120.05 151.96 119.05 151.76 C 118.06 151.56 117.09 152.21 116.89 153.20 Z M 116.70 154.20 L 116.51 155.19 C 116.32 156.18 116.96 157.14 117.95 157.33 C 118.94 157.53 119.90 156.88 120.10 155.89 L 120.29 154.90 C 120.49 153.91 119.84 152.95 118.85 152.76 C 117.86 152.56 116.90 153.21 116.70 154.20 Z M 116.52 155.20 L 116.33 156.18 C 116.13 157.17 116.78 158.12 117.77 158.31 C 118.75 158.51 119.71 157.86 119.90 156.87 L 120.09 155.89 C 120.28 154.90 119.64 153.95 118.65 153.75 C 117.66 153.56 116.71 154.21 116.52 155.20 Z M 116.33 156.19 L 116.15 157.16 C 115.96 158.15 116.61 159.09 117.59 159.28 C 118.57 159.47 119.52 158.82 119.71 157.84 L 119.89 156.87 C 120.08 155.88 119.43 154.93 118.45 154.75 C 117.47 154.56 116.52 155.21 116.33 156.19 Z M 116.15 157.17 L 115.97 158.19 C 115.79 159.17 116.43 160.11 117.41 160.29 C 118.40 160.47 119.34 159.82 119.52 158.84 L 119.70 157.83 C 119.88 156.85 119.24 155.90 118.25 155.72 C 117.27 155.54 116.33 156.19 116.15 157.17 Z M 115.97 158.20 L 115.79 159.20 C 115.62 160.18 116.27 161.11 117.25 161.28 C 118.23 161.46 119.16 160.80 119.34 159.83 L 119.51 158.83 C 119.69 157.85 119.03 156.92 118.05 156.74 C 117.08 156.57 116.14 157.22 115.97 158.20 Z M 115.80 159.22 L 115.63 160.20 C 115.47 161.17 116.13 162.10 117.10 162.26 C 118.08 162.42 119.00 161.77 119.17 160.79 L 119.33 159.81 C 119.50 158.83 118.84 157.91 117.86 157.75 C 116.89 157.58 115.96 158.24 115.80 159.22 Z M 115.64 160.21 L 115.48 161.18 C 115.33 162.16 115.99 163.07 116.97 163.23 C 117.94 163.38 118.86 162.72 119.01 161.74 L 119.16 160.77 C 119.32 159.80 118.65 158.88 117.68 158.73 C 116.71 158.58 115.79 159.24 115.64 160.21 Z M 115.49 161.20 L 115.35 162.17 C 115.20 163.14 115.87 164.05 116.85 164.19 C 117.82 164.33 118.72 163.66 118.86 162.69 L 119.01 161.72 C 119.15 160.75 118.48 159.85 117.51 159.70 C 116.53 159.56 115.63 160.23 115.49 161.20 Z M 115.35 162.19 L 115.21 163.19 C 115.08 164.16 115.76 165.05 116.73 165.19 C 117.70 165.32 118.59 164.64 118.72 163.67 L 118.86 162.67 C 118.99 161.70 118.31 160.81 117.34 160.68 C 116.37 160.55 115.48 161.22 115.35 162.19 Z M 115.22 163.21 L 115.09 164.21 C 114.97 165.17 115.65 166.06 116.62 166.18 C 117.59 166.30 118.47 165.62 118.59 164.65 L 118.72 163.65 C 118.84 162.69 118.16 161.81 117.19 161.68 C 116.22 161.56 115.34 162.24 115.22 163.21 Z M 115.10 164.22 L 114.98 165.21 C 114.86 166.17 115.55 167.05 116.51 167.16 C 117.47 167.28 118.35 166.60 118.46 165.63 L 118.58 164.64 C 118.70 163.68 118.01 162.80 117.05 162.69 C 116.09 162.57 115.22 163.26 115.10 164.22 Z M 114.99 165.22 L 114.87 166.20 C 114.76 167.16 115.44 168.03 116.40 168.14 C 117.36 168.25 118.23 167.57 118.34 166.61 L 118.46 165.63 C 118.57 164.67 117.88 163.80 116.93 163.69 C 115.97 163.58 115.10 164.26 114.99 165.22 Z M 114.88 166.20 L 114.76 167.21 C 114.65 168.16 115.33 169.02 116.28 169.14 C 117.24 169.25 118.10 168.57 118.21 167.61 L 118.33 166.61 C 118.44 165.66 117.76 164.79 116.81 164.68 C 115.86 164.57 114.99 165.25 114.88 166.20 Z M 114.77 167.21 L 114.65 168.23 C 114.54 169.18 115.22 170.04 116.17 170.15 C 117.12 170.26 117.98 169.58 118.09 168.63 L 118.21 167.61 C 118.32 166.66 117.64 165.80 116.69 165.69 C 115.74 165.58 114.88 166.26 114.77 167.21 Z M 114.66 168.24 L 114.54 169.24 C 114.44 170.18 115.12 171.04 116.06 171.14 C 117.01 171.25 117.86 170.57 117.97 169.62 L 118.08 168.62 C 118.19 167.68 117.51 166.82 116.56 166.72 C 115.61 166.61 114.76 167.29 114.66 168.24 Z M 114.55 169.26 L 114.45 170.23 C 114.35 171.18 115.04 172.02 115.98 172.11 C 116.92 172.21 117.77 171.53 117.86 170.58 L 117.96 169.60 C 118.06 168.66 117.37 167.82 116.43 167.72 C 115.49 167.63 114.65 168.31 114.55 169.26 Z M 114.46 170.26 L 114.37 171.23 C 114.29 172.17 114.98 173.00 115.92 173.08 C 116.86 173.16 117.69 172.47 117.77 171.53 L 117.86 170.56 C 117.94 169.62 117.24 168.79 116.30 168.71 C 115.37 168.63 114.54 169.32 114.46 170.26 Z M 114.38 171.26 L 114.31 172.31 C 114.24 173.25 114.95 174.06 115.89 174.12 C 116.82 174.18 117.63 173.47 117.70 172.54 L 117.77 171.49 C 117.83 170.56 117.12 169.75 116.19 169.68 C 115.25 169.62 114.44 170.33 114.38 171.26 Z M 114.31 172.34 L 114.26 173.35 C 114.22 174.28 114.94 175.08 115.87 175.12 C 116.80 175.17 117.60 174.45 117.64 173.51 L 117.69 172.50 C 117.74 171.57 117.02 170.78 116.08 170.73 C 115.15 170.69 114.36 171.41 114.31 172.34 Z M 114.27 173.38 L 114.24 174.35 C 114.21 175.28 114.94 176.06 115.87 176.09 C 116.79 176.12 117.57 175.39 117.60 174.46 L 117.63 173.49 C 117.66 172.56 116.94 171.78 116.01 171.75 C 115.08 171.72 114.30 172.45 114.27 173.38 Z M 114.25 174.37 L 114.23 175.34 C 114.21 176.27 114.94 177.03 115.87 177.05 C 116.79 177.07 117.56 176.34 117.57 175.41 L 117.59 174.44 C 117.61 173.52 116.88 172.75 115.96 172.73 C 115.03 172.71 114.27 173.45 114.25 174.37 Z M 114.23 175.36 L 114.22 176.39 C 114.21 177.31 114.95 178.06 115.87 178.07 C 116.79 178.08 117.54 177.35 117.56 176.42 L 117.57 175.40 C 117.58 174.48 116.84 173.72 115.92 173.71 C 115.00 173.70 114.24 174.44 114.23 175.36 Z M 114.23 176.40 L 114.22 177.39 C 114.22 178.31 114.96 179.05 115.88 179.06 C 116.79 179.06 117.54 178.32 117.54 177.41 L 117.55 176.41 C 117.55 175.50 116.81 174.75 115.90 174.75 C 114.98 174.74 114.23 175.48 114.23 176.40 Z M 114.23 177.40 L 114.23 178.37 C 114.23 179.28 114.97 180.02 115.88 180.02 C 116.80 180.02 117.54 179.28 117.54 178.37 L 117.54 177.40 C 117.54 176.49 116.80 175.75 115.89 175.75 C 114.97 175.74 114.23 176.48 114.23 177.40 Z M 114.24 178.38 L 114.24 179.37 C 114.25 180.28 114.99 181.02 115.90 181.01 C 116.81 181.00 117.54 180.26 117.54 179.35 L 117.53 178.36 C 117.53 177.45 116.78 176.71 115.87 176.72 C 114.96 176.73 114.23 177.47 114.24 178.38 Z M 114.25 179.46 L 114.31 180.45 C 114.36 181.36 115.14 182.05 116.05 181.99 C 116.95 181.94 117.64 181.16 117.59 180.26 L 117.53 179.27 C 117.48 178.36 116.70 177.67 115.79 177.72 C 114.89 177.78 114.19 178.55 114.25 179.46 Z M 114.33 180.63 L 114.50 181.62 C 114.65 182.51 115.50 183.11 116.40 182.95 C 117.29 182.80 117.89 181.95 117.74 181.06 L 117.57 180.07 C 117.41 179.18 116.56 178.58 115.67 178.74 C 114.78 178.89 114.18 179.74 114.33 180.63 Z M 114.56 181.86 L 114.87 182.77 C 115.16 183.63 116.08 184.10 116.94 183.81 C 117.80 183.52 118.27 182.60 117.98 181.74 L 117.67 180.82 C 117.39 179.96 116.46 179.50 115.60 179.78 C 114.74 180.07 114.28 181.00 114.56 181.86 Z M 114.95 182.96 L 115.37 183.85 C 115.76 184.66 116.74 185.01 117.55 184.62 C 118.37 184.23 118.71 183.25 118.32 182.43 L 117.90 181.55 C 117.51 180.73 116.53 180.39 115.72 180.78 C 114.90 181.17 114.56 182.15 114.95 182.96 Z M 115.43 183.95 L 115.93 184.84 C 116.38 185.62 117.38 185.89 118.17 185.44 C 118.95 185.00 119.22 184.00 118.77 183.21 L 118.27 182.33 C 117.82 181.54 116.82 181.27 116.03 181.72 C 115.25 182.17 114.98 183.17 115.43 183.95 Z M 115.96 184.88 L 116.48 185.73 C 116.95 186.50 117.96 186.73 118.73 186.26 C 119.50 185.78 119.74 184.78 119.27 184.01 L 118.75 183.16 C 118.27 182.39 117.26 182.16 116.49 182.63 C 115.72 183.11 115.48 184.11 115.96 184.88 Z"
      fill="black"
      fill-rule="nonzero" /><path d="M 135.73 150.66 L 135.88 151.61 C 136.04 152.59 136.96 153.25 137.94 153.10 C 138.92 152.94 139.58 152.02 139.43 151.04 L 139.27 150.09 C 139.12 149.11 138.19 148.44 137.21 148.60 C 136.24 148.76 135.57 149.68 135.73 150.66 Z M 135.88 151.62 L 136.04 152.59 C 136.21 153.57 137.13 154.23 138.11 154.07 C 139.09 153.90 139.75 152.98 139.59 152.00 L 139.43 151.03 C 139.26 150.05 138.34 149.39 137.36 149.55 C 136.38 149.72 135.72 150.64 135.88 151.62 Z M 136.04 152.61 L 136.22 153.62 C 136.40 154.60 137.34 155.25 138.32 155.07 C 139.29 154.90 139.94 153.96 139.77 152.98 L 139.59 151.98 C 139.41 151.00 138.48 150.35 137.50 150.52 C 136.52 150.70 135.87 151.63 136.04 152.61 Z M 136.22 153.65 L 136.41 154.62 C 136.61 155.60 137.56 156.24 138.53 156.05 C 139.51 155.85 140.15 154.90 139.96 153.92 L 139.77 152.95 C 139.58 151.97 138.63 151.33 137.65 151.53 C 136.67 151.72 136.03 152.67 136.22 153.65 Z M 136.41 154.66 L 136.61 155.59 C 136.82 156.57 137.79 157.20 138.78 156.98 C 139.76 156.77 140.38 155.80 140.17 154.81 L 139.97 153.88 C 139.75 152.90 138.78 152.28 137.80 152.49 C 136.82 152.71 136.19 153.68 136.41 154.66 Z M 136.60 155.65 L 136.85 156.61 C 137.09 157.60 138.09 158.20 139.08 157.95 C 140.06 157.71 140.66 156.71 140.42 155.72 L 140.18 154.75 C 139.93 153.77 138.93 153.17 137.94 153.41 C 136.96 153.66 136.36 154.66 136.60 155.65 Z M 136.85 156.69 L 137.14 157.69 C 137.43 158.67 138.46 159.24 139.44 158.95 C 140.43 158.66 141.00 157.63 140.71 156.65 L 140.42 155.65 C 140.13 154.66 139.10 154.09 138.11 154.38 C 137.12 154.67 136.56 155.70 136.85 156.69 Z M 137.15 157.78 L 137.49 158.77 C 137.82 159.75 138.89 160.27 139.87 159.94 C 140.85 159.60 141.38 158.53 141.04 157.55 L 140.70 156.56 C 140.36 155.58 139.30 155.05 138.31 155.39 C 137.33 155.73 136.81 156.79 137.15 157.78 Z M 137.50 158.86 L 137.88 159.80 C 138.26 160.77 139.36 161.24 140.33 160.86 C 141.30 160.48 141.78 159.38 141.39 158.41 L 141.02 157.47 C 140.64 156.49 139.54 156.02 138.57 156.40 C 137.60 156.79 137.12 157.88 137.50 158.86 Z M 137.90 159.87 L 138.31 160.81 C 138.74 161.77 139.86 162.20 140.82 161.77 C 141.78 161.34 142.22 160.22 141.79 159.26 L 141.37 158.33 C 140.95 157.37 139.82 156.94 138.86 157.36 C 137.90 157.79 137.47 158.91 137.90 159.87 Z M 138.34 160.88 L 138.79 161.79 C 139.26 162.73 140.40 163.12 141.35 162.65 C 142.30 162.18 142.68 161.03 142.21 160.09 L 141.76 159.18 C 141.29 158.23 140.15 157.85 139.20 158.32 C 138.25 158.79 137.87 159.94 138.34 160.88 Z M 138.82 161.87 L 139.29 162.72 C 139.80 163.65 140.97 163.99 141.90 163.48 C 142.83 162.96 143.17 161.79 142.66 160.86 L 142.18 160.00 C 141.67 159.07 140.50 158.74 139.57 159.25 C 138.64 159.77 138.30 160.94 138.82 161.87 Z M 139.33 162.82 L 139.88 163.69 C 140.45 164.60 141.64 164.87 142.54 164.31 C 143.45 163.74 143.72 162.55 143.16 161.64 L 142.61 160.77 C 142.05 159.86 140.85 159.59 139.95 160.15 C 139.04 160.72 138.77 161.91 139.33 162.82 Z M 139.95 163.80 L 140.54 164.63 C 141.17 165.50 142.38 165.69 143.25 165.07 C 144.11 164.45 144.31 163.24 143.69 162.37 L 143.09 161.54 C 142.47 160.67 141.26 160.47 140.39 161.10 C 139.52 161.72 139.32 162.93 139.95 163.80 Z M 140.63 164.74 L 141.25 165.49 C 141.94 166.31 143.16 166.42 143.98 165.74 C 144.81 165.05 144.92 163.83 144.23 163.01 L 143.60 162.26 C 142.92 161.43 141.70 161.32 140.88 162.01 C 140.05 162.69 139.94 163.92 140.63 164.74 Z M 141.35 165.60 L 142.01 166.29 C 142.76 167.06 143.99 167.08 144.76 166.34 C 145.53 165.59 145.55 164.36 144.81 163.59 L 144.14 162.90 C 143.40 162.13 142.17 162.11 141.40 162.85 C 140.62 163.60 140.60 164.83 141.35 165.60 Z M 142.11 166.39 L 142.83 167.03 C 143.63 167.75 144.86 167.69 145.58 166.89 C 146.29 166.09 146.23 164.86 145.43 164.15 L 144.71 163.50 C 143.91 162.78 142.68 162.85 141.97 163.64 C 141.25 164.44 141.31 165.67 142.11 166.39 Z M 142.94 167.12 L 143.72 167.73 C 144.57 168.39 145.79 168.24 146.44 167.39 C 147.10 166.54 146.95 165.32 146.10 164.66 L 145.32 164.06 C 144.48 163.40 143.26 163.55 142.60 164.40 C 141.94 165.25 142.09 166.47 142.94 167.12 Z M 143.84 167.81 L 144.67 168.37 C 145.56 168.96 146.77 168.72 147.36 167.82 C 147.96 166.93 147.71 165.73 146.82 165.13 L 145.99 164.58 C 145.09 163.98 143.89 164.23 143.29 165.12 C 142.70 166.01 142.94 167.22 143.84 167.81 Z M 144.80 168.45 L 145.69 168.94 C 146.63 169.47 147.81 169.13 148.33 168.20 C 148.86 167.26 148.52 166.08 147.58 165.55 L 146.69 165.05 C 145.76 164.53 144.57 164.87 144.05 165.80 C 143.53 166.74 143.86 167.92 144.80 168.45 Z M 145.82 169.01 L 146.69 169.42 C 147.67 169.87 148.82 169.44 149.27 168.47 C 149.72 167.50 149.30 166.35 148.33 165.89 L 147.45 165.49 C 146.48 165.04 145.33 165.46 144.88 166.43 C 144.43 167.40 144.85 168.56 145.82 169.01 Z M 146.82 169.46 L 147.73 169.81 C 148.73 170.19 149.85 169.69 150.23 168.69 C 150.61 167.69 150.11 166.57 149.11 166.19 L 148.20 165.84 C 147.20 165.46 146.08 165.96 145.70 166.96 C 145.32 167.96 145.82 169.08 146.82 169.46 Z M 147.85 169.85 L 148.81 170.15 C 149.83 170.46 150.91 169.89 151.23 168.86 C 151.54 167.84 150.97 166.76 149.95 166.45 L 148.99 166.15 C 147.97 165.84 146.88 166.41 146.57 167.43 C 146.26 168.45 146.83 169.54 147.85 169.85 Z M 148.93 170.17 L 149.94 170.41 C 150.97 170.66 152.02 170.02 152.26 168.98 C 152.51 167.95 151.87 166.91 150.83 166.66 L 149.83 166.42 C 148.79 166.17 147.75 166.81 147.50 167.85 C 147.25 168.89 147.89 169.93 148.93 170.17 Z M 150.05 170.43 L 151.05 170.61 C 152.10 170.79 153.10 170.09 153.28 169.05 C 153.47 168.00 152.77 167.00 151.72 166.81 L 150.72 166.64 C 149.67 166.45 148.67 167.15 148.49 168.20 C 148.30 169.25 149.00 170.25 150.05 170.43 Z M 151.15 170.62 L 152.12 170.74 C 153.17 170.87 154.13 170.12 154.27 169.07 C 154.40 168.02 153.65 167.06 152.60 166.93 L 151.62 166.81 C 150.57 166.67 149.61 167.42 149.48 168.48 C 149.35 169.53 150.09 170.49 151.15 170.62 Z M 152.20 170.74 L 153.20 170.82 C 154.26 170.91 155.18 170.12 155.27 169.07 C 155.35 168.02 154.57 167.09 153.51 167.01 L 152.51 166.93 C 151.46 166.84 150.54 167.62 150.45 168.68 C 150.36 169.73 151.15 170.66 152.20 170.74 Z M 153.27 170.82 L 154.28 170.87 C 155.34 170.91 156.23 170.10 156.28 169.04 C 156.32 167.99 155.51 167.10 154.45 167.05 L 153.44 167.01 C 152.39 166.96 151.50 167.78 151.45 168.83 C 151.40 169.88 152.22 170.77 153.27 170.82 Z M 154.35 170.86 L 155.36 170.87 C 156.41 170.89 157.27 170.04 157.29 168.99 C 157.30 167.94 156.46 167.08 155.41 167.07 L 154.39 167.06 C 153.34 167.05 152.48 167.89 152.47 168.94 C 152.46 169.99 153.30 170.85 154.35 170.86 Z M 155.42 170.87 L 156.37 170.85 C 157.42 170.83 158.25 169.97 158.24 168.92 C 158.22 167.88 157.36 167.04 156.31 167.06 L 155.35 167.08 C 154.31 167.10 153.47 167.96 153.49 169.00 C 153.51 170.05 154.37 170.88 155.42 170.87 Z M 156.45 170.84 L 157.38 170.79 C 158.42 170.73 159.21 169.84 159.15 168.80 C 159.10 167.76 158.20 166.96 157.16 167.02 L 156.24 167.07 C 155.19 167.13 154.40 168.02 154.46 169.06 C 154.52 170.10 155.41 170.90 156.45 170.84 Z M 157.48 170.77 L 158.43 170.67 C 159.46 170.55 160.20 169.62 160.09 168.59 C 159.97 167.55 159.04 166.81 158.01 166.93 L 157.06 167.03 C 156.03 167.15 155.28 168.08 155.40 169.11 C 155.52 170.15 156.45 170.89 157.48 170.77 Z M 158.55 170.64 L 159.53 170.46 C 160.55 170.28 161.23 169.30 161.04 168.28 C 160.85 167.26 159.88 166.59 158.86 166.77 L 157.88 166.95 C 156.86 167.14 156.19 168.12 156.37 169.13 C 156.56 170.15 157.53 170.83 158.55 170.64 Z M 159.67 170.42 L 160.70 170.15 C 161.70 169.89 162.30 168.87 162.04 167.87 C 161.77 166.87 160.75 166.28 159.76 166.54 L 158.72 166.81 C 157.72 167.07 157.13 168.09 157.39 169.09 C 157.65 170.09 158.67 170.69 159.67 170.42 Z M 160.83 170.11 L 161.85 169.76 C 162.82 169.42 163.34 168.37 163.01 167.39 C 162.67 166.42 161.62 165.90 160.64 166.24 L 159.63 166.59 C 158.65 166.92 158.14 167.98 158.47 168.95 C 158.80 169.92 159.86 170.44 160.83 170.11 Z M 161.95 169.71 L 162.85 169.34 C 163.80 168.96 164.25 167.87 163.87 166.92 C 163.48 165.98 162.39 165.52 161.45 165.91 L 160.54 166.28 C 159.60 166.67 159.14 167.75 159.53 168.70 C 159.92 169.65 161.00 170.10 161.95 169.71 Z M 162.92 169.31 L 163.85 168.88 C 164.77 168.45 165.18 167.36 164.75 166.43 C 164.32 165.50 163.23 165.09 162.30 165.52 L 161.37 165.95 C 160.45 166.38 160.04 167.47 160.47 168.40 C 160.90 169.33 162.00 169.73 162.92 169.31 Z M 163.90 168.85 L 164.83 168.38 C 165.74 167.92 166.10 166.81 165.65 165.90 C 165.19 164.99 164.08 164.63 163.17 165.09 L 162.24 165.56 C 161.33 166.02 160.97 167.13 161.43 168.03 C 161.89 168.94 163.00 169.31 163.90 168.85 Z M 164.88 168.35 L 165.79 167.85 C 166.68 167.36 167.01 166.24 166.52 165.35 C 166.04 164.46 164.92 164.14 164.03 164.62 L 163.12 165.12 C 162.23 165.61 161.90 166.72 162.39 167.61 C 162.87 168.51 163.99 168.83 164.88 168.35 Z M 165.84 167.81 L 166.72 167.30 C 167.59 166.79 167.88 165.66 167.37 164.79 C 166.85 163.92 165.73 163.63 164.86 164.14 L 163.98 164.65 C 163.11 165.17 162.82 166.29 163.33 167.16 C 163.84 168.03 164.97 168.33 165.84 167.81 Z M 166.76 167.27 L 167.58 166.75 C 168.44 166.21 168.69 165.08 168.15 164.23 C 167.62 163.38 166.49 163.12 165.64 163.66 L 164.81 164.17 C 163.96 164.71 163.70 165.84 164.24 166.69 C 164.78 167.55 165.91 167.80 166.76 167.27 Z M 167.63 166.70 L 168.53 166.09 C 169.36 165.52 169.58 164.39 169.01 163.56 C 168.44 162.73 167.31 162.52 166.48 163.09 L 165.58 163.70 C 164.75 164.27 164.54 165.40 165.11 166.23 C 165.67 167.06 166.80 167.27 167.63 166.70 Z M 168.60 166.03 L 169.50 165.35 C 170.29 164.75 170.45 163.61 169.84 162.82 C 169.24 162.02 168.11 161.87 167.31 162.47 L 166.41 163.15 C 165.62 163.75 165.46 164.89 166.07 165.68 C 166.67 166.48 167.80 166.63 168.60 166.03 Z M 169.57 165.28 L 170.34 164.62 C 171.09 163.98 171.18 162.84 170.54 162.09 C 169.90 161.33 168.76 161.24 168.01 161.89 L 167.24 162.54 C 166.48 163.19 166.39 164.32 167.04 165.07 C 167.68 165.83 168.81 165.92 169.57 165.28 Z M 170.41 164.54 L 171.08 163.90 C 171.79 163.22 171.81 162.09 171.13 161.38 C 170.45 160.67 169.32 160.64 168.61 161.32 L 167.94 161.96 C 167.23 162.65 167.20 163.78 167.88 164.49 C 168.57 165.20 169.70 165.23 170.41 164.54 Z M 171.14 163.83 L 171.73 163.20 C 172.40 162.48 172.36 161.36 171.65 160.69 C 170.93 160.02 169.81 160.06 169.14 160.77 L 168.55 161.40 C 167.88 162.11 167.92 163.24 168.63 163.91 C 169.34 164.58 170.47 164.54 171.14 163.83 Z M 171.78 163.13 L 172.40 162.40 C 173.03 161.66 172.94 160.54 172.20 159.91 C 171.45 159.28 170.34 159.37 169.71 160.11 L 169.09 160.84 C 168.46 161.58 168.55 162.70 169.29 163.33 C 170.03 163.96 171.15 163.87 171.78 163.13 Z M 172.45 162.32 L 173.05 161.53 C 173.64 160.76 173.49 159.66 172.72 159.07 C 171.94 158.48 170.84 158.63 170.25 159.40 L 169.66 160.19 C 169.07 160.96 169.22 162.07 169.99 162.65 C 170.76 163.24 171.86 163.09 172.45 162.32 Z M 173.11 161.44 L 173.65 160.62 C 174.19 159.82 173.98 158.73 173.18 158.20 C 172.37 157.66 171.29 157.87 170.75 158.68 L 170.20 159.49 C 169.66 160.30 169.87 161.38 170.68 161.92 C 171.48 162.46 172.57 162.25 173.11 161.44 Z M 173.71 160.53 L 174.22 159.66 C 174.70 158.83 174.42 157.76 173.59 157.27 C 172.76 156.79 171.69 157.07 171.21 157.90 L 170.70 158.77 C 170.21 159.60 170.49 160.67 171.32 161.16 C 172.15 161.64 173.22 161.36 173.71 160.53 Z M 174.26 159.57 L 174.71 158.69 C 175.15 157.84 174.81 156.79 173.96 156.35 C 173.10 155.91 172.05 156.25 171.62 157.10 L 171.16 157.99 C 170.73 158.84 171.06 159.89 171.92 160.33 C 172.77 160.76 173.82 160.43 174.26 159.57 Z M 174.75 158.61 L 175.16 157.69 C 175.55 156.82 175.16 155.79 174.28 155.40 C 173.41 155.01 172.38 155.40 171.99 156.27 L 171.58 157.19 C 171.19 158.06 171.58 159.09 172.46 159.48 C 173.33 159.87 174.36 159.48 174.75 158.61 Z M 175.19 157.60 L 175.55 156.65 C 175.89 155.76 175.44 154.76 174.55 154.42 C 173.66 154.08 172.66 154.53 172.32 155.42 L 171.96 156.37 C 171.62 157.26 172.06 158.26 172.96 158.60 C 173.85 158.94 174.85 158.49 175.19 157.60 Z M 175.58 156.55 L 175.88 155.59 C 176.16 154.68 175.66 153.71 174.75 153.43 C 173.84 153.14 172.87 153.65 172.59 154.56 L 172.29 155.52 C 172.00 156.43 172.51 157.40 173.42 157.68 C 174.33 157.97 175.30 157.46 175.58 156.55 Z M 175.91 155.46 L 176.14 154.45 C 176.35 153.52 175.77 152.60 174.85 152.39 C 173.92 152.18 173.00 152.76 172.78 153.68 L 172.55 154.69 C 172.34 155.62 172.92 156.54 173.85 156.75 C 174.78 156.96 175.70 156.38 175.91 155.46 Z M 176.17 154.29 L 176.30 153.24 C 176.43 152.30 175.76 151.44 174.82 151.32 C 173.88 151.20 173.02 151.86 172.90 152.80 L 172.76 153.84 C 172.64 154.79 173.30 155.65 174.24 155.77 C 175.18 155.89 176.04 155.23 176.17 154.29 Z M 176.32 153.05 L 176.33 152.05 C 176.34 151.10 175.59 150.32 174.64 150.31 C 173.69 150.29 172.91 151.05 172.90 152.00 L 172.88 153.00 C 172.87 153.94 173.63 154.72 174.57 154.74 C 175.52 154.75 176.30 154.00 176.32 153.05 Z M 176.31 151.81 L 176.20 150.88 C 176.08 149.94 175.23 149.27 174.29 149.39 C 173.35 149.50 172.68 150.36 172.80 151.30 L 172.91 152.23 C 173.03 153.17 173.89 153.84 174.82 153.72 C 175.76 153.61 176.43 152.75 176.31 151.81 Z M 176.14 150.59 L 175.88 149.73 C 175.61 148.82 174.65 148.31 173.75 148.58 C 172.84 148.85 172.33 149.81 172.60 150.71 L 172.86 151.58 C 173.13 152.48 174.09 153.00 174.99 152.73 C 175.90 152.45 176.41 151.50 176.14 150.59 Z M 175.76 149.43 L 175.33 148.62 C 174.90 147.78 173.86 147.46 173.03 147.89 C 172.19 148.33 171.86 149.36 172.30 150.20 L 172.72 151.01 C 173.16 151.85 174.19 152.17 175.03 151.73 C 175.87 151.30 176.19 150.26 175.76 149.43 Z M 175.18 148.37 L 174.58 147.59 C 174.01 146.84 172.93 146.70 172.18 147.27 C 171.43 147.84 171.29 148.91 171.86 149.67 L 172.46 150.45 C 173.03 151.20 174.10 151.34 174.85 150.77 C 175.61 150.20 175.75 149.12 175.18 148.37 Z M 174.44 147.43 L 173.65 146.63 C 172.99 145.96 171.91 145.95 171.23 146.61 C 170.56 147.27 170.55 148.36 171.21 149.03 L 172.00 149.83 C 172.66 150.50 173.75 150.51 174.42 149.85 C 175.09 149.18 175.10 148.10 174.44 147.43 Z M 173.56 146.54 L 172.82 145.89 C 172.11 145.27 171.03 145.34 170.40 146.05 C 169.78 146.76 169.85 147.84 170.56 148.46 L 171.31 149.11 C 172.02 149.74 173.10 149.67 173.72 148.96 C 174.34 148.25 174.27 147.17 173.56 146.54 Z M 172.76 145.85 L 171.98 145.21 C 171.24 144.62 170.16 144.74 169.57 145.47 C 168.98 146.21 169.10 147.28 169.83 147.88 L 170.62 148.51 C 171.35 149.10 172.43 148.99 173.02 148.25 C 173.61 147.51 173.50 146.44 172.76 145.85 Z M 171.93 145.18 L 171.10 144.55 C 170.35 143.98 169.27 144.14 168.71 144.89 C 168.14 145.64 168.29 146.72 169.04 147.28 L 169.88 147.91 C 170.63 148.48 171.70 148.33 172.27 147.57 C 172.84 146.82 172.69 145.75 171.93 145.18 Z M 171.06 144.52 L 170.22 143.93 C 169.45 143.38 168.38 143.56 167.84 144.33 C 167.29 145.10 167.47 146.17 168.24 146.72 L 169.08 147.31 C 169.85 147.86 170.92 147.68 171.47 146.91 C 172.01 146.14 171.83 145.07 171.06 144.52 Z M 170.18 143.90 L 169.36 143.35 C 168.58 142.83 167.52 143.04 166.99 143.82 C 166.47 144.61 166.68 145.67 167.46 146.20 L 168.28 146.74 C 169.06 147.27 170.13 147.06 170.65 146.27 C 171.18 145.49 170.97 144.42 170.18 143.90 Z M 169.31 143.32 L 168.38 142.75 C 167.58 142.25 166.53 142.50 166.03 143.30 C 165.53 144.10 165.78 145.16 166.58 145.65 L 167.51 146.23 C 168.32 146.73 169.37 146.48 169.87 145.67 C 170.36 144.87 170.12 143.82 169.31 143.32 Z M 168.32 142.71 L 167.41 142.20 C 166.58 141.74 165.54 142.04 165.08 142.86 C 164.62 143.68 164.92 144.73 165.74 145.19 L 166.65 145.69 C 167.48 146.15 168.52 145.86 168.98 145.03 C 169.44 144.21 169.14 143.17 168.32 142.71 Z M 167.34 142.16 L 166.49 141.74 C 165.64 141.32 164.62 141.66 164.19 142.51 C 163.77 143.35 164.12 144.38 164.96 144.80 L 165.81 145.22 C 166.66 145.65 167.69 145.30 168.11 144.46 C 168.53 143.61 168.18 142.58 167.34 142.16 Z M 166.43 141.71 L 165.60 141.34 C 164.73 140.95 163.72 141.33 163.33 142.19 C 162.95 143.05 163.33 144.07 164.19 144.45 L 165.02 144.83 C 165.88 145.22 166.90 144.83 167.28 143.97 C 167.67 143.11 167.29 142.10 166.43 141.71 Z M 165.56 141.32 L 164.67 140.94 C 163.80 140.58 162.79 140.99 162.43 141.86 C 162.06 142.73 162.47 143.73 163.34 144.10 L 164.23 144.47 C 165.10 144.84 166.10 144.43 166.47 143.56 C 166.84 142.69 166.43 141.68 165.56 141.32 Z M 164.64 140.93 L 163.71 140.56 C 162.83 140.21 161.84 140.64 161.49 141.52 C 161.14 142.40 161.57 143.39 162.45 143.74 L 163.37 144.11 C 164.25 144.46 165.24 144.03 165.59 143.15 C 165.94 142.28 165.51 141.28 164.64 140.93 Z M 163.69 140.55 L 162.74 140.20 C 161.86 139.86 160.87 140.30 160.54 141.19 C 160.20 142.07 160.65 143.06 161.53 143.39 L 162.47 143.75 C 163.36 144.09 164.34 143.64 164.68 142.76 C 165.01 141.88 164.57 140.89 163.69 140.55 Z M 162.72 140.19 L 161.76 139.84 C 160.87 139.52 159.89 139.97 159.57 140.86 C 159.25 141.75 159.70 142.73 160.59 143.05 L 161.55 143.40 C 162.44 143.72 163.42 143.27 163.74 142.38 C 164.07 141.49 163.61 140.51 162.72 140.19 Z M 161.74 139.83 L 160.77 139.49 C 159.88 139.18 158.90 139.65 158.59 140.54 C 158.28 141.44 158.75 142.41 159.64 142.72 L 160.61 143.06 C 161.50 143.37 162.48 142.90 162.79 142.01 C 163.10 141.12 162.63 140.14 161.74 139.83 Z M 160.75 139.48 L 159.79 139.16 C 158.89 138.86 157.92 139.34 157.62 140.24 C 157.32 141.14 157.80 142.11 158.70 142.41 L 159.66 142.73 C 160.56 143.04 161.53 142.55 161.83 141.65 C 162.13 140.75 161.65 139.78 160.75 139.48 Z M 159.77 139.15 L 158.84 138.85 C 157.94 138.56 156.97 139.06 156.68 139.96 C 156.39 140.86 156.89 141.83 157.79 142.12 L 158.72 142.42 C 159.63 142.71 160.59 142.21 160.88 141.31 C 161.17 140.41 160.68 139.44 159.77 139.15 Z M 158.82 138.84 L 157.87 138.55 C 156.96 138.27 156.00 138.79 155.72 139.70 C 155.44 140.61 155.96 141.57 156.87 141.85 L 157.81 142.13 C 158.72 142.41 159.68 141.90 159.96 140.99 C 160.24 140.08 159.73 139.12 158.82 138.84 Z M 157.84 138.54 L 156.88 138.27 C 155.96 138.01 155.01 138.55 154.75 139.46 C 154.49 140.38 155.03 141.33 155.95 141.59 L 156.90 141.86 C 157.82 142.12 158.77 141.58 159.03 140.66 C 159.29 139.75 158.75 138.79 157.84 138.54 Z M 156.83 138.25 L 155.87 138.01 C 154.94 137.78 154.01 138.35 153.78 139.28 C 153.55 140.21 154.11 141.14 155.04 141.37 L 156.00 141.61 C 156.93 141.84 157.87 141.27 158.10 140.35 C 158.32 139.42 157.76 138.48 156.83 138.25 Z M 155.81 137.99 L 154.83 137.79 C 153.89 137.59 152.97 138.19 152.78 139.13 C 152.58 140.07 153.18 140.99 154.12 141.19 L 155.10 141.39 C 156.04 141.59 156.96 140.99 157.16 140.05 C 157.35 139.11 156.75 138.19 155.81 137.99 Z M 154.76 137.77 L 153.78 137.60 C 152.83 137.44 151.93 138.09 151.77 139.04 C 151.61 139.99 152.26 140.89 153.21 141.05 L 154.19 141.21 C 155.14 141.37 156.04 140.73 156.20 139.78 C 156.36 138.82 155.72 137.92 154.76 137.77 Z M 153.69 137.58 L 152.68 137.47 C 151.72 137.36 150.85 138.06 150.74 139.02 C 150.63 139.99 151.33 140.86 152.30 140.96 L 153.30 141.07 C 154.27 141.18 155.14 140.48 155.24 139.52 C 155.35 138.55 154.65 137.68 153.69 137.58 Z M 152.55 137.44 L 151.55 137.41 C 150.57 137.38 149.75 138.14 149.72 139.12 C 149.68 140.10 150.45 140.92 151.43 140.95 L 152.43 140.98 C 153.41 141.02 154.22 140.25 154.26 139.27 C 154.29 138.30 153.53 137.48 152.55 137.44 Z M 151.34 137.38 L 150.02 137.49 C 149.02 137.57 148.28 138.45 148.37 139.44 C 148.45 140.43 149.32 141.17 150.32 141.09 L 151.64 140.98 C 152.63 140.90 153.37 140.02 153.29 139.03 C 153.20 138.04 152.33 137.30 151.34 137.38 Z M 149.74 137.47 L 148.80 137.69 C 147.79 137.92 147.16 138.93 147.40 139.94 C 147.63 140.95 148.64 141.57 149.65 141.34 L 150.59 141.11 C 151.60 140.88 152.23 139.87 151.99 138.86 C 151.76 137.86 150.75 137.23 149.74 137.47 Z M 147.33 139.88 L 147.35 140.01 C 147.55 141.06 148.57 141.75 149.61 141.55 C 150.66 141.35 151.35 140.33 151.15 139.29 L 151.12 139.15 C 150.92 138.10 149.91 137.41 148.86 137.61 C 147.81 137.81 147.12 138.83 147.33 139.88 Z M 149.32 141.61 L 150.19 141.58 C 151.27 141.54 152.11 140.63 152.08 139.55 C 152.04 138.47 151.13 137.63 150.05 137.67 L 149.18 137.70 C 148.10 137.73 147.26 138.64 147.29 139.72 C 147.33 140.80 148.24 141.64 149.32 141.61 Z M 150.46 141.55 L 151.80 141.32 C 152.87 141.13 153.59 140.12 153.40 139.05 C 153.21 137.98 152.20 137.27 151.13 137.45 L 149.78 137.69 C 148.72 137.87 148.00 138.89 148.19 139.96 C 148.37 141.03 149.39 141.74 150.46 141.55 Z M 152.02 141.27 L 153.02 140.98 C 154.06 140.68 154.66 139.59 154.36 138.55 C 154.05 137.50 152.96 136.90 151.92 137.21 L 150.92 137.50 C 149.88 137.80 149.28 138.89 149.58 139.93 C 149.88 140.98 150.97 141.58 152.02 141.27 Z M 153.15 140.94 L 154.10 140.59 C 155.12 140.21 155.63 139.07 155.25 138.06 C 154.87 137.04 153.74 136.52 152.72 136.90 L 151.78 137.25 C 150.76 137.63 150.24 138.77 150.62 139.78 C 151.00 140.80 152.14 141.32 153.15 140.94 Z M 154.20 140.55 L 155.13 140.14 C 156.13 139.70 156.58 138.55 156.15 137.55 C 155.71 136.55 154.55 136.10 153.56 136.53 L 152.63 136.94 C 151.63 137.37 151.17 138.53 151.61 139.53 C 152.04 140.52 153.20 140.98 154.20 140.55 Z M 155.20 140.10 L 156.10 139.67 C 157.08 139.19 157.49 138.02 157.01 137.04 C 156.54 136.06 155.36 135.65 154.39 136.13 L 153.48 136.57 C 152.51 137.04 152.10 138.22 152.58 139.20 C 153.05 140.17 154.23 140.58 155.20 140.10 Z M 156.16 139.64 L 157.01 139.19 C 157.97 138.69 158.34 137.50 157.83 136.54 C 157.33 135.57 156.14 135.21 155.18 135.71 L 154.33 136.16 C 153.37 136.66 153.00 137.85 153.50 138.81 C 154.01 139.78 155.20 140.14 156.16 139.64 Z M 157.06 139.16 L 157.88 138.70 C 158.82 138.16 159.16 136.96 158.62 136.02 C 158.09 135.07 156.89 134.74 155.94 135.28 L 155.12 135.74 C 154.18 136.28 153.85 137.48 154.38 138.42 C 154.92 139.37 156.12 139.70 157.06 139.16 Z M 157.93 138.67 L 158.76 138.17 C 159.69 137.60 159.99 136.39 159.42 135.47 C 158.86 134.54 157.65 134.24 156.72 134.80 L 155.89 135.31 C 154.96 135.87 154.67 137.08 155.23 138.01 C 155.79 138.94 157.00 139.23 157.93 138.67 Z M 158.80 138.14 L 159.69 137.57 C 160.61 136.99 160.87 135.77 160.29 134.86 C 159.70 133.94 158.49 133.67 157.57 134.26 L 156.68 134.83 C 155.77 135.41 155.50 136.63 156.08 137.54 C 156.67 138.46 157.89 138.73 158.80 138.14 Z M 159.72 137.56 L 160.57 137.00 C 161.47 136.40 161.72 135.18 161.12 134.27 C 160.52 133.36 159.30 133.12 158.40 133.71 L 157.55 134.28 C 156.64 134.87 156.39 136.09 156.99 137.00 C 157.59 137.91 158.81 138.16 159.72 137.56 Z M 160.58 136.99 L 161.38 136.45 C 162.28 135.84 162.52 134.61 161.91 133.71 C 161.30 132.81 160.07 132.58 159.17 133.19 L 158.38 133.73 C 157.48 134.33 157.24 135.56 157.85 136.46 C 158.46 137.36 159.68 137.59 160.58 136.99 Z M 161.40 136.43 L 162.23 135.86 C 163.12 135.24 163.35 134.01 162.73 133.12 C 162.11 132.22 160.88 132.00 159.99 132.62 L 159.16 133.20 C 158.26 133.82 158.04 135.04 158.66 135.94 C 159.28 136.83 160.51 137.05 161.40 136.43 Z M 162.25 135.85 L 163.10 135.24 C 163.98 134.61 164.19 133.38 163.56 132.50 C 162.93 131.61 161.69 131.40 160.81 132.03 L 159.97 132.63 C 159.08 133.27 158.87 134.50 159.50 135.38 C 160.14 136.27 161.37 136.48 162.25 135.85 Z M 163.12 135.23 L 163.95 134.62 C 164.83 133.97 165.02 132.73 164.37 131.86 C 163.73 130.98 162.49 130.79 161.62 131.44 L 160.78 132.05 C 159.91 132.70 159.72 133.93 160.36 134.81 C 161.01 135.69 162.24 135.87 163.12 135.23 Z M 163.98 134.59 L 164.78 133.98 C 165.65 133.32 165.81 132.08 165.15 131.21 C 164.49 130.35 163.25 130.18 162.38 130.85 L 161.58 131.46 C 160.72 132.12 160.55 133.36 161.22 134.23 C 161.88 135.09 163.12 135.26 163.98 134.59 Z M 164.82 133.95 L 165.57 133.35 C 166.43 132.66 166.56 131.42 165.88 130.57 C 165.19 129.72 163.95 129.59 163.10 130.27 L 162.35 130.87 C 161.50 131.56 161.36 132.80 162.04 133.65 C 162.73 134.50 163.97 134.64 164.82 133.95 Z M 165.62 133.32 L 166.34 132.71 C 167.17 132.00 167.27 130.75 166.56 129.92 C 165.86 129.09 164.61 128.98 163.78 129.69 L 163.06 130.30 C 162.22 131.01 162.12 132.25 162.83 133.09 C 163.53 133.92 164.78 134.02 165.62 133.32 Z M 166.37 132.68 L 167.08 132.04 C 167.90 131.32 167.97 130.06 167.25 129.25 C 166.52 128.43 165.27 128.36 164.45 129.09 L 163.74 129.72 C 162.92 130.45 162.85 131.70 163.58 132.52 C 164.31 133.33 165.56 133.40 166.37 132.68 Z M 167.12 132.02 L 167.84 131.34 C 168.65 130.59 168.69 129.34 167.95 128.54 C 167.20 127.74 165.95 127.69 165.14 128.44 L 164.42 129.11 C 163.62 129.86 163.57 131.11 164.32 131.91 C 165.06 132.72 166.32 132.76 167.12 132.02 Z M 167.87 131.32 L 168.64 130.58 C 169.43 129.82 169.45 128.57 168.69 127.78 C 167.93 126.99 166.67 126.96 165.89 127.72 L 165.12 128.46 C 164.33 129.22 164.31 130.47 165.07 131.26 C 165.82 132.05 167.08 132.08 167.87 131.32 Z M 168.65 130.57 L 169.38 129.85 C 170.16 129.08 170.18 127.82 169.41 127.04 C 168.64 126.26 167.38 126.25 166.60 127.02 L 165.87 127.74 C 165.09 128.50 165.08 129.76 165.84 130.54 C 166.61 131.33 167.87 131.34 168.65 130.57 Z M 169.39 129.84 L 170.03 129.21 C 170.81 128.43 170.81 127.17 170.04 126.40 C 169.26 125.62 168.00 125.62 167.23 126.39 L 166.59 127.02 C 165.81 127.80 165.81 129.06 166.58 129.84 C 167.36 130.61 168.61 130.62 169.39 129.84 Z M 170.04 129.20 L 170.71 128.53 C 171.48 127.75 171.48 126.49 170.71 125.72 C 169.93 124.94 168.67 124.94 167.89 125.72 L 167.22 126.39 C 166.44 127.17 166.45 128.43 167.22 129.21 C 168.00 129.98 169.26 129.98 170.04 129.20 Z M 170.71 128.53 L 171.41 127.83 C 172.19 127.05 172.18 125.79 171.40 125.01 C 170.62 124.24 169.36 124.24 168.59 125.02 L 167.89 125.72 C 167.11 126.50 167.11 127.76 167.89 128.54 C 168.67 129.31 169.94 129.31 170.71 128.53 Z M 171.41 127.83 L 172.13 127.10 C 172.91 126.32 172.91 125.06 172.12 124.28 C 171.34 123.51 170.08 123.51 169.30 124.29 L 168.58 125.02 C 167.81 125.80 167.81 127.06 168.59 127.84 C 169.37 128.61 170.64 128.61 171.41 127.83 Z M 172.13 127.11 L 172.87 126.37 C 173.65 125.58 173.65 124.32 172.87 123.54 C 172.08 122.76 170.82 122.77 170.04 123.55 L 169.30 124.29 C 168.53 125.07 168.53 126.34 169.31 127.11 C 170.09 127.89 171.36 127.89 172.13 127.11 Z M 172.87 126.37 L 173.62 125.62 C 174.40 124.84 174.40 123.57 173.62 122.79 C 172.84 122.01 171.57 122.01 170.79 122.79 L 170.04 123.54 C 169.26 124.33 169.26 125.59 170.05 126.37 C 170.83 127.15 172.09 127.15 172.87 126.37 Z M 173.62 125.62 L 174.38 124.87 C 175.16 124.09 175.16 122.83 174.38 122.04 C 173.60 121.26 172.34 121.26 171.55 122.04 L 170.80 122.79 C 170.01 123.57 170.01 124.83 170.79 125.62 C 171.57 126.40 172.84 126.40 173.62 125.62 Z M 174.37 124.88 L 175.14 124.12 C 175.93 123.34 175.94 122.07 175.16 121.28 C 174.38 120.50 173.12 120.49 172.33 121.27 L 171.56 122.03 C 170.77 122.80 170.76 124.07 171.54 124.86 C 172.32 125.65 173.58 125.66 174.37 124.88 Z M 175.14 124.13 L 175.91 123.37 C 176.70 122.60 176.72 121.33 175.94 120.53 C 175.17 119.74 173.90 119.73 173.11 120.50 L 172.33 121.26 C 171.54 122.03 171.53 123.30 172.30 124.09 C 173.07 124.89 174.35 124.90 175.14 124.13 Z M 175.90 123.38 L 176.67 122.65 C 177.47 121.88 177.49 120.60 176.72 119.80 C 175.95 119.00 174.68 118.98 173.88 119.75 L 173.11 120.49 C 172.31 121.26 172.29 122.53 173.06 123.33 C 173.83 124.13 175.11 124.15 175.90 123.38 Z M 176.66 122.66 L 177.41 121.95 C 178.22 121.18 178.25 119.91 177.49 119.10 C 176.72 118.29 175.44 118.26 174.64 119.03 L 173.89 119.74 C 173.08 120.50 173.05 121.78 173.81 122.59 C 174.58 123.39 175.85 123.43 176.66 122.66 Z M 177.40 121.96 L 178.13 121.28 C 178.95 120.52 178.99 119.24 178.23 118.43 C 177.47 117.61 176.20 117.57 175.38 118.33 L 174.65 119.01 C 173.83 119.77 173.79 121.05 174.55 121.86 C 175.31 122.68 176.59 122.72 177.40 121.96 Z M 178.12 121.30 L 178.83 120.65 C 179.65 119.90 179.71 118.62 178.96 117.80 C 178.21 116.97 176.93 116.91 176.10 117.66 L 175.39 118.31 C 174.57 119.06 174.51 120.34 175.26 121.17 C 176.01 121.99 177.29 122.05 178.12 121.30 Z M 178.81 120.67 L 179.49 120.07 C 180.33 119.33 180.40 118.05 179.66 117.21 C 178.92 116.37 177.64 116.30 176.80 117.04 L 176.12 117.64 C 175.28 118.39 175.21 119.67 175.95 120.50 C 176.69 121.34 177.97 121.42 178.81 120.67 Z M 179.46 120.10 L 180.18 119.49 C 181.03 118.76 181.13 117.48 180.40 116.63 C 179.67 115.77 178.39 115.67 177.54 116.40 L 176.83 117.01 C 175.97 117.74 175.87 119.02 176.60 119.87 C 177.33 120.73 178.61 120.83 179.46 120.10 Z M 180.14 119.53 L 181.04 118.79 C 181.92 118.09 182.05 116.81 181.35 115.94 C 180.64 115.06 179.36 114.93 178.49 115.63 L 177.58 116.36 C 176.71 117.07 176.57 118.35 177.28 119.22 C 177.98 120.09 179.26 120.23 180.14 119.53 Z M 180.98 118.85 L 181.82 118.22 C 182.72 117.55 182.91 116.27 182.24 115.37 C 181.57 114.47 180.29 114.28 179.39 114.95 L 178.55 115.58 C 177.65 116.25 177.46 117.53 178.13 118.43 C 178.80 119.33 180.08 119.52 180.98 118.85 Z M 181.75 118.28 L 182.54 117.74 C 183.47 117.11 183.72 115.84 183.09 114.91 C 182.46 113.98 181.19 113.73 180.26 114.36 L 179.46 114.90 C 178.53 115.53 178.28 116.80 178.92 117.73 C 179.55 118.66 180.81 118.91 181.75 118.28 Z M 182.45 117.80 L 183.22 117.34 C 184.18 116.76 184.49 115.50 183.91 114.53 C 183.33 113.57 182.07 113.26 181.10 113.84 L 180.34 114.30 C 179.37 114.89 179.07 116.14 179.65 117.11 C 180.23 118.07 181.49 118.38 182.45 117.80 Z M 183.12 117.40 L 183.91 116.98 C 184.91 116.45 185.29 115.21 184.75 114.21 C 184.22 113.21 182.98 112.83 181.98 113.36 L 181.20 113.78 C 180.20 114.32 179.82 115.56 180.35 116.55 C 180.89 117.55 182.13 117.93 183.12 117.40 Z M 183.80 117.04 L 184.71 116.62 C 185.74 116.15 186.19 114.94 185.72 113.91 C 185.25 112.88 184.03 112.42 183.00 112.89 L 182.10 113.30 C 181.07 113.77 180.61 114.99 181.08 116.02 C 181.55 117.05 182.77 117.51 183.80 117.04 Z M 184.56 116.69 L 185.49 116.35 C 186.55 115.96 187.10 114.78 186.71 113.71 C 186.32 112.65 185.14 112.10 184.07 112.49 L 183.15 112.83 C 182.08 113.22 181.53 114.40 181.92 115.46 C 182.31 116.53 183.49 117.08 184.56 116.69 Z M 185.32 116.41 L 186.28 116.15 C 187.38 115.85 188.03 114.72 187.73 113.62 C 187.43 112.52 186.30 111.87 185.20 112.17 L 184.24 112.43 C 183.14 112.73 182.49 113.86 182.79 114.96 C 183.09 116.06 184.22 116.71 185.32 116.41 Z M 186.10 116.20 L 187.09 116.02 C 188.21 115.83 188.96 114.75 188.76 113.63 C 188.57 112.51 187.49 111.75 186.37 111.95 L 185.38 112.12 C 184.26 112.32 183.51 113.39 183.70 114.52 C 183.90 115.64 184.97 116.39 186.10 116.20 Z M 186.91 116.05 L 187.80 115.97 C 188.94 115.87 189.79 114.87 189.69 113.73 C 189.59 112.59 188.59 111.75 187.45 111.85 L 186.55 111.92 C 185.41 112.02 184.57 113.03 184.67 114.17 C 184.76 115.30 185.77 116.15 186.91 116.05 Z M 187.60 115.98 L 188.54 115.99 C 189.69 116.01 190.62 115.09 190.64 113.95 C 190.65 112.80 189.74 111.86 188.59 111.85 L 187.65 111.84 C 186.51 111.82 185.57 112.74 185.55 113.88 C 185.54 115.03 186.45 115.97 187.60 115.98 Z M 188.30 115.98 L 189.29 116.10 C 190.43 116.25 191.46 115.45 191.61 114.31 C 191.76 113.18 190.95 112.14 189.82 111.99 L 188.83 111.86 C 187.70 111.72 186.66 112.52 186.51 113.66 C 186.36 114.79 187.17 115.83 188.30 115.98 Z M 189.03 116.06 L 190.07 116.32 C 191.17 116.61 192.31 115.94 192.59 114.83 C 192.88 113.72 192.21 112.59 191.10 112.30 L 190.07 112.04 C 188.96 111.75 187.83 112.42 187.54 113.53 C 187.26 114.64 187.92 115.77 189.03 116.06 Z M 189.82 116.25 L 190.83 116.64 C 191.89 117.07 193.10 116.55 193.52 115.48 C 193.95 114.41 193.42 113.21 192.36 112.78 L 191.35 112.38 C 190.28 111.96 189.08 112.48 188.65 113.55 C 188.23 114.62 188.75 115.82 189.82 116.25 Z M 190.64 116.56 L 191.47 116.99 C 192.49 117.52 193.74 117.12 194.27 116.10 C 194.80 115.08 194.40 113.83 193.38 113.30 L 192.55 112.87 C 191.53 112.34 190.27 112.74 189.75 113.76 C 189.22 114.78 189.62 116.03 190.64 116.56 Z M 191.34 116.92 L 192.18 117.43 C 193.16 118.03 194.44 117.72 195.04 116.74 C 195.64 115.76 195.33 114.48 194.35 113.89 L 193.51 113.37 C 192.53 112.77 191.25 113.08 190.65 114.06 C 190.05 115.04 190.36 116.32 191.34 116.92 Z M 192.08 117.37 L 192.92 117.95 C 193.86 118.60 195.16 118.37 195.81 117.43 C 196.47 116.48 196.23 115.19 195.29 114.53 L 194.45 113.95 C 193.51 113.30 192.21 113.53 191.56 114.47 C 190.91 115.42 191.14 116.71 192.08 117.37 Z M 192.84 117.89 L 193.66 118.52 C 194.57 119.22 195.87 119.05 196.57 118.14 C 197.27 117.23 197.10 115.93 196.19 115.23 L 195.37 114.59 C 194.46 113.89 193.16 114.06 192.46 114.97 C 191.76 115.88 191.93 117.19 192.84 117.89 Z M 193.59 118.46 L 194.38 119.13 C 195.25 119.87 196.56 119.75 197.30 118.88 C 198.04 118.00 197.93 116.69 197.05 115.95 L 196.26 115.28 C 195.39 114.54 194.08 114.66 193.34 115.53 C 192.60 116.41 192.71 117.72 193.59 118.46 Z M 194.31 119.07 L 195.06 119.75 C 195.90 120.53 197.22 120.47 197.99 119.62 C 198.77 118.78 198.71 117.46 197.86 116.69 L 197.12 116.01 C 196.27 115.23 194.96 115.29 194.18 116.13 C 193.41 116.98 193.47 118.30 194.31 119.07 Z M 194.99 119.69 L 195.79 120.48 C 196.60 121.29 197.91 121.29 198.72 120.48 C 199.54 119.67 199.53 118.35 198.72 117.54 L 197.93 116.75 C 197.12 115.94 195.80 115.94 194.99 116.75 C 194.18 117.57 194.18 118.88 194.99 119.69 Z M 195.73 120.42 L 196.47 121.23 C 197.24 122.07 198.56 122.13 199.40 121.35 C 200.25 120.58 200.30 119.27 199.53 118.42 L 198.78 117.61 C 198.01 116.77 196.70 116.71 195.85 117.48 C 195.01 118.26 194.95 119.57 195.73 120.42 Z M 196.42 121.16 L 197.08 121.95 C 197.82 122.83 199.13 122.94 200.00 122.20 C 200.88 121.46 200.99 120.15 200.25 119.28 L 199.58 118.49 C 198.84 117.61 197.54 117.50 196.66 118.24 C 195.79 118.98 195.68 120.29 196.42 121.16 Z M 197.04 121.89 L 197.63 122.65 C 198.34 123.55 199.64 123.71 200.54 123.00 C 201.44 122.29 201.59 120.99 200.89 120.09 L 200.30 119.34 C 199.59 118.44 198.29 118.28 197.39 118.99 C 196.49 119.69 196.33 120.99 197.04 121.89 Z M 197.59 122.60 L 198.12 123.31 C 198.80 124.23 200.09 124.43 201.01 123.75 C 201.93 123.07 202.13 121.78 201.45 120.86 L 200.92 120.14 C 200.25 119.22 198.95 119.03 198.03 119.71 C 197.11 120.38 196.92 121.68 197.59 122.60 Z M 198.09 123.27 L 198.65 124.06 C 199.30 124.99 200.59 125.22 201.52 124.57 C 202.46 123.91 202.68 122.63 202.03 121.69 L 201.48 120.90 C 200.82 119.97 199.54 119.74 198.60 120.39 C 197.67 121.04 197.44 122.33 198.09 123.27 Z M 198.62 124.01 L 199.21 124.90 C 199.84 125.85 201.12 126.11 202.06 125.49 C 203.01 124.86 203.27 123.58 202.65 122.64 L 202.05 121.74 C 201.43 120.79 200.15 120.53 199.20 121.16 C 198.26 121.79 198.00 123.06 198.62 124.01 Z M 199.19 124.85 L 199.70 125.67 C 200.30 126.63 201.56 126.92 202.52 126.32 C 203.48 125.73 203.77 124.46 203.17 123.51 L 202.67 122.69 C 202.07 121.73 200.81 121.44 199.85 122.03 C 198.89 122.63 198.60 123.89 199.19 124.85 Z M 199.69 125.63 L 200.15 126.40 C 200.73 127.37 201.97 127.69 202.94 127.11 C 203.90 126.54 204.22 125.29 203.65 124.32 L 203.19 123.55 C 202.61 122.58 201.36 122.26 200.40 122.84 C 199.43 123.41 199.11 124.66 199.69 125.63 Z M 200.15 126.38 L 200.64 127.23 C 201.20 128.19 202.44 128.52 203.41 127.96 C 204.37 127.40 204.70 126.16 204.14 125.20 L 203.65 124.35 C 203.09 123.38 201.85 123.05 200.88 123.62 C 199.92 124.18 199.59 125.41 200.15 126.38 Z M 200.64 127.20 L 201.13 128.07 C 201.68 129.04 202.90 129.38 203.87 128.84 C 204.84 128.29 205.18 127.06 204.64 126.10 L 204.14 125.23 C 203.60 124.26 202.37 123.92 201.41 124.46 C 200.44 125.01 200.10 126.23 200.64 127.20 Z M 201.12 128.03 L 201.60 128.92 C 202.12 129.89 203.33 130.25 204.31 129.73 C 205.28 129.21 205.64 127.99 205.12 127.02 L 204.64 126.14 C 204.12 125.17 202.91 124.80 201.94 125.32 C 200.96 125.85 200.60 127.06 201.12 128.03 Z M 201.59 128.87 L 202.03 129.75 C 202.53 130.72 203.72 131.12 204.70 130.62 C 205.68 130.13 206.07 128.93 205.58 127.95 L 205.13 127.07 C 204.64 126.09 203.44 125.70 202.46 126.20 C 201.48 126.69 201.09 127.89 201.59 128.87 Z M 202.03 129.71 L 202.46 130.60 C 202.94 131.58 204.11 131.99 205.09 131.51 C 206.07 131.04 206.48 129.86 206.01 128.88 L 205.58 127.99 C 205.10 127.01 203.93 126.60 202.95 127.08 C 201.97 127.55 201.56 128.73 202.03 129.71 Z M 202.47 130.59 L 202.91 131.50 C 203.38 132.47 204.55 132.88 205.52 132.41 C 206.49 131.94 206.90 130.77 206.43 129.80 L 206.00 128.89 C 205.53 127.92 204.36 127.51 203.39 127.98 C 202.41 128.45 202.01 129.62 202.47 130.59 Z M 202.94 131.51 L 203.39 132.42 C 203.87 133.38 205.03 133.77 205.99 133.29 C 206.95 132.81 207.34 131.65 206.86 130.69 L 206.41 129.78 C 205.93 128.83 204.77 128.44 203.81 128.91 C 202.85 129.39 202.46 130.55 202.94 131.51 Z M 203.42 132.43 L 203.88 133.33 C 204.36 134.27 205.52 134.64 206.46 134.16 C 207.40 133.67 207.77 132.52 207.29 131.58 L 206.83 130.68 C 206.35 129.74 205.19 129.37 204.25 129.85 C 203.31 130.33 202.94 131.49 203.42 132.43 Z M 203.90 133.31 L 204.35 134.21 C 204.82 135.14 205.96 135.51 206.90 135.04 C 207.83 134.57 208.20 133.43 207.73 132.50 L 207.27 131.60 C 206.80 130.66 205.66 130.29 204.73 130.76 C 203.80 131.24 203.42 132.37 203.90 133.31 Z M 204.35 134.16 L 204.78 135.05 C 205.23 135.98 206.35 136.38 207.28 135.93 C 208.21 135.48 208.60 134.37 208.16 133.43 L 207.73 132.54 C 207.28 131.61 206.16 131.22 205.23 131.66 C 204.30 132.11 203.91 133.23 204.35 134.16 Z M 204.77 134.98 L 205.14 135.82 C 205.54 136.75 206.63 137.18 207.57 136.78 C 208.51 136.37 208.94 135.28 208.53 134.34 L 208.17 133.50 C 207.76 132.57 206.67 132.14 205.73 132.55 C 204.79 132.95 204.36 134.04 204.77 134.98 Z M 205.13 135.75 L 205.47 136.62 C 205.85 137.56 206.91 138.03 207.85 137.65 C 208.79 137.28 209.25 136.22 208.88 135.28 L 208.54 134.41 C 208.16 133.46 207.10 133.00 206.16 133.38 C 205.22 133.75 204.76 134.81 205.13 135.75 Z M 205.48 136.58 L 205.84 137.55 C 206.18 138.49 207.23 138.97 208.17 138.62 C 209.10 138.27 209.58 137.23 209.24 136.29 L 208.88 135.32 C 208.53 134.38 207.49 133.90 206.55 134.25 C 205.61 134.60 205.13 135.64 205.48 136.58 Z M 205.85 137.53 L 206.21 138.54 C 206.55 139.47 207.57 139.95 208.51 139.62 C 209.44 139.28 209.92 138.25 209.59 137.32 L 209.22 136.31 C 208.89 135.38 207.86 134.89 206.93 135.23 C 205.99 135.57 205.51 136.60 205.85 137.53 Z M 206.22 138.53 L 206.53 139.38 C 206.86 140.31 207.88 140.79 208.80 140.46 C 209.73 140.13 210.21 139.11 209.88 138.19 L 209.58 137.33 C 209.24 136.40 208.23 135.92 207.30 136.25 C 206.37 136.58 205.89 137.60 206.22 138.53 Z M 206.54 139.37 L 206.86 140.30 C 207.19 141.22 208.19 141.70 209.12 141.38 C 210.04 141.05 210.52 140.05 210.20 139.13 L 209.87 138.20 C 209.55 137.28 208.54 136.80 207.62 137.12 C 206.70 137.44 206.22 138.45 206.54 139.37 Z M 206.87 140.28 L 207.21 141.25 C 207.52 142.17 208.52 142.65 209.43 142.34 C 210.35 142.03 210.83 141.03 210.52 140.12 L 210.19 139.14 C 209.87 138.23 208.88 137.74 207.96 138.05 C 207.05 138.37 206.56 139.36 206.87 140.28 Z M 207.21 141.23 L 207.54 142.23 C 207.85 143.14 208.83 143.64 209.74 143.34 C 210.65 143.04 211.15 142.05 210.84 141.14 L 210.51 140.14 C 210.21 139.23 209.23 138.73 208.32 139.03 C 207.41 139.34 206.91 140.32 207.21 141.23 Z M 207.55 142.21 L 207.87 143.22 C 208.16 144.13 209.12 144.63 210.03 144.35 C 210.94 144.06 211.44 143.09 211.16 142.18 L 210.84 141.17 C 210.55 140.26 209.58 139.76 208.68 140.04 C 207.77 140.33 207.26 141.30 207.55 142.21 Z M 207.88 143.19 L 208.19 144.23 C 208.45 145.14 209.41 145.66 210.31 145.39 C 211.22 145.12 211.73 144.17 211.46 143.26 L 211.15 142.22 C 210.89 141.31 209.93 140.79 209.03 141.06 C 208.12 141.33 207.61 142.28 207.88 143.19 Z M 208.19 144.20 L 208.48 145.23 C 208.73 146.13 209.66 146.66 210.57 146.41 C 211.47 146.16 211.99 145.22 211.74 144.32 L 211.46 143.29 C 211.21 142.39 210.27 141.86 209.37 142.12 C 208.47 142.37 207.94 143.30 208.19 144.20 Z M 208.49 145.20 L 208.75 146.19 C 208.98 147.09 209.90 147.62 210.80 147.39 C 211.70 147.15 212.23 146.23 212.00 145.33 L 211.74 144.35 C 211.50 143.45 210.58 142.91 209.68 143.15 C 208.78 143.39 208.25 144.31 208.49 145.20 Z M 208.76 146.17 L 208.99 147.11 C 209.22 148.00 210.12 148.54 211.02 148.31 C 211.91 148.09 212.45 147.18 212.22 146.29 L 211.99 145.36 C 211.76 144.46 210.86 143.92 209.96 144.15 C 209.07 144.37 208.53 145.28 208.76 146.17 Z M 209.00 147.09 L 209.21 147.96 C 209.43 148.84 210.32 149.39 211.21 149.17 C 212.09 148.96 212.64 148.06 212.42 147.18 L 212.21 146.31 C 212.00 145.42 211.10 144.88 210.22 145.09 C 209.33 145.31 208.79 146.20 209.00 147.09 Z M 209.22 147.94 L 209.47 149.00 C 209.68 149.88 210.56 150.43 211.44 150.22 C 212.33 150.01 212.87 149.13 212.67 148.25 L 212.42 147.19 C 212.21 146.31 211.33 145.76 210.44 145.97 C 209.56 146.18 209.01 147.06 209.22 147.94 Z M 209.47 148.99 L 209.70 149.99 C 209.90 150.87 210.78 151.42 211.66 151.22 C 212.54 151.02 213.09 150.14 212.89 149.26 L 212.67 148.26 C 212.47 147.38 211.59 146.83 210.70 147.03 C 209.82 147.23 209.27 148.11 209.47 148.99 Z M 209.70 149.98 L 209.90 150.89 C 210.09 151.77 210.97 152.33 211.85 152.13 C 212.73 151.94 213.29 151.06 213.10 150.18 L 212.89 149.27 C 212.70 148.39 211.83 147.83 210.94 148.02 C 210.06 148.22 209.50 149.09 209.70 149.98 Z M 209.90 150.88 L 210.03 151.52 C 210.23 152.40 211.10 152.96 211.98 152.77 C 212.87 152.58 213.43 151.71 213.23 150.82 L 213.10 150.19 C 212.90 149.30 212.03 148.74 211.15 148.93 C 210.26 149.13 209.70 150.00 209.90 150.88 Z"
      fill="black"
      fill-rule="nonzero" /></svg>